<svg xmlns="http://www.w3.org/2000/svg" width="300" height="300" viewBox="0 0 300 300">
<path d="M 150.57 158.32 L 149.91 157.55 C 149.37 156.93 148.42 156.86 147.80 157.40 C 147.17 157.94 147.10 158.89 147.64 159.51 L 148.31 160.28 C 148.85 160.90 149.79 160.97 150.42 160.43 C 151.04 159.89 151.11 158.94 150.57 158.32 Z M 149.98 157.59 L 149.31 156.74 C 148.79 156.07 147.83 155.95 147.17 156.47 C 146.50 157.00 146.38 157.96 146.90 158.62 L 147.57 159.48 C 148.09 160.14 149.05 160.26 149.72 159.74 C 150.38 159.22 150.50 158.25 149.98 157.59 Z M 149.13 156.51 L 148.53 155.99 C 147.88 155.42 146.90 155.49 146.34 156.14 C 145.77 156.79 145.84 157.77 146.49 158.33 L 147.09 158.85 C 147.74 159.42 148.72 159.35 149.28 158.70 C 149.84 158.05 149.78 157.07 149.13 156.51 Z M 146.01 156.74 L 145.76 157.60 C 145.53 158.43 146.02 159.29 146.85 159.52 C 147.68 159.75 148.54 159.27 148.77 158.44 L 149.01 157.58 C 149.25 156.75 148.76 155.89 147.93 155.65 C 147.10 155.42 146.24 155.91 146.01 156.74 Z M 145.71 157.94 L 145.65 159.03 C 145.61 159.89 146.27 160.63 147.14 160.67 C 148.00 160.71 148.73 160.05 148.78 159.19 L 148.83 158.10 C 148.87 157.23 148.21 156.50 147.35 156.46 C 146.49 156.41 145.75 157.08 145.71 157.94 Z M 145.65 159.09 L 145.64 160.12 C 145.63 160.98 146.32 161.69 147.19 161.70 C 148.05 161.71 148.76 161.02 148.77 160.15 L 148.78 159.13 C 148.79 158.26 148.10 157.55 147.23 157.55 C 146.37 157.54 145.66 158.23 145.65 159.09 Z M 145.64 160.14 L 145.64 161.19 C 145.64 162.05 146.34 162.75 147.20 162.75 C 148.07 162.75 148.77 162.05 148.77 161.18 L 148.77 160.14 C 148.77 159.27 148.07 158.57 147.20 158.57 C 146.34 158.57 145.64 159.27 145.64 160.14 Z M 145.64 161.22 L 145.66 162.20 C 145.68 163.06 146.39 163.75 147.26 163.73 C 148.12 163.71 148.81 163.00 148.79 162.13 L 148.77 161.15 C 148.75 160.29 148.04 159.60 147.17 159.62 C 146.31 159.64 145.62 160.35 145.64 161.22 Z M 145.67 162.34 L 145.79 163.46 C 145.89 164.32 146.66 164.94 147.52 164.85 C 148.38 164.75 149.00 163.98 148.90 163.12 L 148.78 161.99 C 148.68 161.13 147.91 160.51 147.05 160.61 C 146.19 160.71 145.57 161.48 145.67 162.34 Z M 147.14 164.84 L 147.48 164.89 C 148.33 165.00 149.12 164.40 149.24 163.55 C 149.35 162.69 148.75 161.91 147.90 161.79 L 147.56 161.74 C 146.70 161.63 145.92 162.23 145.80 163.08 C 145.69 163.94 146.28 164.72 147.14 164.84 Z M 149.18 163.80 L 149.53 162.69 C 149.78 161.87 149.33 160.99 148.50 160.73 C 147.68 160.48 146.81 160.93 146.55 161.76 L 146.20 162.87 C 145.94 163.69 146.40 164.57 147.22 164.82 C 148.04 165.08 148.92 164.62 149.18 163.80 Z M 149.58 162.46 L 149.73 161.47 C 149.87 160.62 149.28 159.82 148.43 159.69 C 147.58 159.56 146.79 160.14 146.65 160.99 L 146.50 161.98 C 146.37 162.83 146.95 163.63 147.80 163.76 C 148.65 163.89 149.45 163.31 149.58 162.46 Z M 149.75 161.33 L 149.83 160.17 C 149.88 159.31 149.23 158.56 148.37 158.51 C 147.51 158.45 146.77 159.10 146.71 159.96 L 146.63 161.13 C 146.58 161.99 147.23 162.73 148.09 162.79 C 148.95 162.84 149.70 162.19 149.75 161.33 Z M 149.82 159.85 L 149.73 159.24 C 149.61 158.39 148.82 157.79 147.96 157.91 C 147.11 158.03 146.51 158.83 146.63 159.68 L 146.72 160.29 C 146.84 161.14 147.63 161.74 148.49 161.62 C 149.35 161.49 149.94 160.70 149.82 159.85 Z M 146.65 159.15 L 146.43 160.23 C 146.26 161.08 146.81 161.91 147.65 162.08 C 148.50 162.25 149.33 161.70 149.50 160.86 L 149.72 159.77 C 149.89 158.93 149.34 158.10 148.49 157.93 C 147.65 157.76 146.82 158.30 146.65 159.15 Z M 146.40 160.47 L 146.35 161.47 C 146.31 162.33 146.97 163.07 147.84 163.11 C 148.70 163.16 149.44 162.49 149.48 161.63 L 149.53 160.62 C 149.57 159.76 148.91 159.02 148.04 158.98 C 147.18 158.94 146.44 159.60 146.40 160.47 Z M 146.35 161.59 L 146.38 162.61 C 146.40 163.48 147.12 164.16 147.99 164.13 C 148.85 164.11 149.53 163.39 149.51 162.52 L 149.48 161.50 C 149.46 160.64 148.74 159.96 147.87 159.98 C 147.01 160.01 146.32 160.73 146.35 161.59 Z M 146.40 162.81 L 146.56 163.87 C 146.70 164.73 147.50 165.31 148.35 165.18 C 149.21 165.04 149.79 164.24 149.66 163.39 L 149.49 162.32 C 149.36 161.47 148.55 160.89 147.70 161.02 C 146.85 161.15 146.26 161.96 146.40 162.81 Z M 146.81 164.50 L 147.31 165.24 C 147.79 165.95 148.76 166.15 149.47 165.67 C 150.19 165.19 150.38 164.22 149.90 163.50 L 149.41 162.76 C 148.93 162.04 147.96 161.85 147.24 162.33 C 146.53 162.81 146.33 163.78 146.81 164.50 Z M 148.21 165.88 L 149.16 166.13 C 149.99 166.35 150.84 165.85 151.06 165.02 C 151.28 164.18 150.79 163.33 149.95 163.11 L 149.00 162.86 C 148.17 162.64 147.32 163.14 147.10 163.97 C 146.88 164.80 147.37 165.65 148.21 165.88 Z M 150.35 165.96 L 151.12 165.50 C 151.86 165.07 152.10 164.11 151.66 163.37 C 151.23 162.63 150.27 162.38 149.53 162.82 L 148.76 163.28 C 148.02 163.72 147.77 164.67 148.21 165.41 C 148.65 166.15 149.61 166.40 150.35 165.96 Z M 151.68 164.92 L 152.20 164.00 C 152.62 163.25 152.36 162.30 151.60 161.88 C 150.85 161.46 149.90 161.72 149.48 162.47 L 148.96 163.40 C 148.54 164.15 148.81 165.10 149.56 165.52 C 150.31 165.94 151.26 165.68 151.68 164.92 Z M 152.32 163.73 L 152.64 162.78 C 152.92 161.96 152.48 161.08 151.67 160.80 C 150.85 160.52 149.97 160.96 149.69 161.78 L 149.37 162.74 C 149.09 163.55 149.53 164.44 150.34 164.71 C 151.16 164.99 152.04 164.55 152.32 163.73 Z M 152.69 162.63 L 152.92 161.65 C 153.12 160.81 152.60 159.97 151.76 159.77 C 150.92 159.57 150.08 160.09 149.88 160.93 L 149.65 161.92 C 149.45 162.76 149.97 163.60 150.81 163.80 C 151.65 164.00 152.49 163.47 152.69 162.63 Z M 152.95 161.51 L 153.09 160.51 C 153.21 159.65 152.61 158.86 151.75 158.74 C 150.90 158.62 150.11 159.22 149.99 160.08 L 149.85 161.07 C 149.73 161.93 150.33 162.72 151.18 162.84 C 152.04 162.96 152.83 162.36 152.95 161.51 Z M 153.10 160.37 L 153.15 159.42 C 153.20 158.55 152.53 157.82 151.67 157.77 C 150.81 157.73 150.07 158.39 150.02 159.25 L 149.97 160.21 C 149.93 161.07 150.59 161.81 151.46 161.86 C 152.32 161.90 153.06 161.24 153.10 160.37 Z M 153.15 159.30 L 153.14 158.30 C 153.12 157.43 152.40 156.74 151.54 156.76 C 150.67 156.78 149.98 157.49 150.00 158.36 L 150.02 159.37 C 150.04 160.23 150.75 160.92 151.62 160.90 C 152.48 160.89 153.17 160.17 153.15 159.30 Z M 153.13 158.16 L 153.02 157.16 C 152.93 156.30 152.15 155.67 151.29 155.77 C 150.43 155.86 149.81 156.63 149.90 157.49 L 150.01 158.50 C 150.10 159.36 150.88 159.98 151.74 159.89 C 152.60 159.79 153.22 159.02 153.13 158.16 Z M 152.96 156.87 L 152.67 155.92 C 152.42 155.09 151.54 154.62 150.71 154.88 C 149.88 155.13 149.42 156.01 149.67 156.84 L 149.96 157.79 C 150.21 158.61 151.09 159.08 151.92 158.83 C 152.75 158.57 153.21 157.69 152.96 156.87 Z M 152.42 155.42 L 151.83 154.65 C 151.30 153.97 150.32 153.83 149.63 154.36 C 148.94 154.89 148.81 155.87 149.33 156.56 L 149.92 157.33 C 150.45 158.02 151.44 158.15 152.12 157.62 C 152.81 157.10 152.94 156.11 152.42 155.42 Z M 151.27 154.20 L 150.38 153.76 C 149.60 153.37 148.66 153.70 148.27 154.47 C 147.89 155.25 148.21 156.20 148.99 156.58 L 149.89 157.02 C 150.67 157.40 151.61 157.08 151.99 156.30 C 152.37 155.52 152.05 154.58 151.27 154.20 Z M 149.81 153.60 L 148.80 153.52 C 147.93 153.45 147.18 154.10 147.11 154.97 C 147.04 155.83 147.69 156.59 148.56 156.66 L 149.56 156.74 C 150.43 156.80 151.18 156.16 151.25 155.29 C 151.32 154.42 150.67 153.67 149.81 153.60 Z M 148.24 153.58 L 147.28 153.86 C 146.45 154.10 145.97 154.97 146.21 155.80 C 146.45 156.64 147.32 157.12 148.16 156.88 L 149.12 156.60 C 149.95 156.36 150.43 155.49 150.19 154.65 C 149.95 153.82 149.08 153.34 148.24 153.58 Z M 146.70 154.17 L 145.94 154.82 C 145.28 155.38 145.20 156.38 145.77 157.04 C 146.33 157.70 147.33 157.77 147.99 157.21 L 148.74 156.56 C 149.40 156.00 149.48 155.00 148.91 154.34 C 148.35 153.68 147.36 153.61 146.70 154.17 Z M 145.64 155.16 L 145.10 155.99 C 144.63 156.72 144.83 157.69 145.56 158.17 C 146.29 158.64 147.27 158.44 147.74 157.71 L 148.28 156.87 C 148.76 156.14 148.55 155.17 147.82 154.69 C 147.09 154.22 146.12 154.43 145.64 155.16 Z M 144.98 156.22 L 144.58 157.13 C 144.23 157.93 144.59 158.85 145.39 159.20 C 146.19 159.55 147.11 159.19 147.46 158.39 L 147.86 157.48 C 148.21 156.68 147.85 155.76 147.05 155.41 C 146.26 155.06 145.33 155.42 144.98 156.22 Z M 144.53 157.26 L 144.21 158.21 C 143.94 159.04 144.38 159.93 145.21 160.20 C 146.03 160.48 146.92 160.03 147.20 159.21 L 147.51 158.26 C 147.79 157.44 147.34 156.54 146.52 156.27 C 145.69 155.99 144.80 156.44 144.53 157.26 Z M 144.19 158.29 L 143.92 159.26 C 143.69 160.10 144.18 160.97 145.02 161.20 C 145.86 161.43 146.72 160.93 146.96 160.10 L 147.22 159.13 C 147.45 158.29 146.96 157.42 146.12 157.19 C 145.28 156.96 144.42 157.45 144.19 158.29 Z M 143.89 159.39 L 143.71 160.35 C 143.55 161.21 144.11 162.03 144.97 162.19 C 145.82 162.35 146.64 161.79 146.80 160.93 L 146.98 159.97 C 147.14 159.11 146.58 158.29 145.73 158.13 C 144.87 157.97 144.05 158.53 143.89 159.39 Z M 143.69 160.50 L 143.60 161.49 C 143.52 162.36 144.16 163.12 145.03 163.20 C 145.89 163.28 146.66 162.64 146.74 161.77 L 146.82 160.78 C 146.90 159.92 146.26 159.15 145.40 159.07 C 144.53 159.00 143.77 159.64 143.69 160.50 Z M 143.60 161.59 L 143.57 162.59 C 143.54 163.46 144.23 164.18 145.09 164.21 C 145.96 164.23 146.69 163.55 146.71 162.68 L 146.74 161.68 C 146.77 160.81 146.08 160.09 145.21 160.06 C 144.35 160.03 143.62 160.72 143.60 161.59 Z M 143.57 162.66 L 143.59 163.68 C 143.60 164.55 144.32 165.24 145.19 165.22 C 146.06 165.21 146.75 164.49 146.73 163.62 L 146.71 162.60 C 146.70 161.74 145.98 161.04 145.11 161.06 C 144.24 161.08 143.55 161.80 143.57 162.66 Z M 143.59 163.80 L 143.70 164.86 C 143.78 165.73 144.55 166.36 145.42 166.27 C 146.28 166.19 146.91 165.42 146.83 164.55 L 146.72 163.49 C 146.64 162.63 145.87 162.00 145.00 162.08 C 144.14 162.17 143.51 162.94 143.59 163.80 Z M 143.81 165.30 L 144.16 166.16 C 144.48 166.97 145.40 167.36 146.20 167.03 C 147.01 166.71 147.40 165.79 147.07 164.99 L 146.72 164.12 C 146.40 163.32 145.48 162.93 144.67 163.25 C 143.87 163.58 143.48 164.49 143.81 165.30 Z M 144.88 166.97 L 145.72 167.41 C 146.49 167.81 147.44 167.51 147.84 166.74 C 148.24 165.97 147.94 165.02 147.18 164.62 L 146.34 164.18 C 145.57 163.78 144.62 164.08 144.22 164.85 C 143.82 165.62 144.11 166.57 144.88 166.97 Z M 146.75 167.55 L 147.72 167.36 C 148.57 167.19 149.12 166.37 148.95 165.52 C 148.78 164.66 147.96 164.11 147.11 164.28 L 146.14 164.47 C 145.29 164.64 144.73 165.47 144.90 166.32 C 145.07 167.17 145.90 167.72 146.75 167.55 Z M 148.46 166.99 L 149.20 166.33 C 149.85 165.75 149.90 164.75 149.32 164.11 C 148.74 163.46 147.74 163.41 147.10 163.99 L 146.36 164.65 C 145.72 165.23 145.66 166.23 146.24 166.87 C 146.82 167.52 147.82 167.57 148.46 166.99 Z M 149.44 166.05 L 150.02 165.21 C 150.51 164.50 150.33 163.52 149.62 163.03 C 148.90 162.53 147.92 162.71 147.43 163.43 L 146.86 164.27 C 146.36 164.98 146.54 165.96 147.26 166.45 C 147.97 166.94 148.95 166.76 149.44 166.05 Z M 150.12 165.04 L 150.58 164.16 C 150.97 163.39 150.67 162.44 149.90 162.04 C 149.13 161.65 148.18 161.95 147.78 162.72 L 147.33 163.60 C 146.93 164.37 147.24 165.32 148.01 165.72 C 148.78 166.11 149.73 165.81 150.12 165.04 Z M 150.64 164.02 L 151.00 163.10 C 151.32 162.30 150.93 161.39 150.12 161.07 C 149.32 160.75 148.40 161.14 148.08 161.95 L 147.72 162.86 C 147.40 163.67 147.80 164.58 148.60 164.90 C 149.41 165.22 150.32 164.82 150.64 164.02 Z M 151.04 162.99 L 151.34 162.02 C 151.60 161.19 151.14 160.31 150.31 160.05 C 149.48 159.80 148.60 160.26 148.35 161.09 L 148.04 162.06 C 147.79 162.89 148.25 163.77 149.08 164.02 C 149.91 164.28 150.78 163.82 151.04 162.99 Z M 151.37 161.91 L 151.58 161.01 C 151.78 160.17 151.26 159.32 150.41 159.12 C 149.57 158.93 148.73 159.45 148.53 160.29 L 148.32 161.19 C 148.12 162.04 148.64 162.88 149.49 163.08 C 150.33 163.28 151.17 162.76 151.37 161.91 Z M 151.61 160.90 L 151.77 159.87 C 151.90 159.01 151.32 158.21 150.46 158.07 C 149.60 157.94 148.80 158.52 148.67 159.38 L 148.51 160.41 C 148.37 161.27 148.96 162.07 149.81 162.20 C 150.67 162.34 151.47 161.75 151.61 160.90 Z M 151.78 159.77 L 151.88 158.74 C 151.96 157.87 151.32 157.11 150.46 157.03 C 149.60 156.95 148.83 157.58 148.75 158.44 L 148.66 159.48 C 148.57 160.34 149.21 161.10 150.07 161.18 C 150.93 161.27 151.70 160.63 151.78 159.77 Z M 151.88 158.66 L 151.93 157.62 C 151.97 156.76 151.30 156.03 150.43 155.99 C 149.57 155.95 148.83 156.62 148.79 157.48 L 148.75 158.52 C 148.71 159.39 149.38 160.12 150.24 160.16 C 151.11 160.20 151.84 159.53 151.88 158.66 Z M 151.93 157.52 L 151.91 156.51 C 151.89 155.65 151.18 154.96 150.31 154.97 C 149.45 154.99 148.76 155.70 148.78 156.57 L 148.79 157.58 C 148.81 158.45 149.52 159.14 150.39 159.12 C 151.26 159.11 151.94 158.39 151.93 157.52 Z M 151.85 156.12 L 151.57 155.12 C 151.33 154.29 150.47 153.81 149.64 154.04 C 148.81 154.27 148.32 155.14 148.56 155.97 L 148.84 156.96 C 149.07 157.79 149.93 158.28 150.77 158.05 C 151.60 157.81 152.08 156.95 151.85 156.12 Z M 149.99 154.00 L 149.34 154.03 C 148.48 154.07 147.83 154.80 147.87 155.65 C 147.91 156.51 148.64 157.16 149.49 157.12 L 150.14 157.09 C 150.99 157.05 151.65 156.32 151.61 155.47 C 151.56 154.61 150.84 153.96 149.99 154.00 Z M 148.54 154.34 L 147.69 154.94 C 147.01 155.42 146.85 156.36 147.33 157.05 C 147.81 157.73 148.76 157.89 149.44 157.41 L 150.29 156.81 C 150.97 156.33 151.13 155.39 150.65 154.70 C 150.17 154.02 149.22 153.86 148.54 154.34 Z M 147.62 155.03 L 147.10 155.46 C 146.47 155.99 146.38 156.93 146.90 157.56 C 147.43 158.19 148.37 158.27 149.00 157.75 L 149.52 157.32 C 150.15 156.79 150.23 155.85 149.71 155.22 C 149.18 154.59 148.25 154.51 147.62 155.03 Z"
      fill="black"
      fill-rule="nonzero" /></svg>