<svg xmlns="http://www.w3.org/2000/svg" width="300" height="300" viewBox="0 0 300 300">
<path d="M 66.94 86.65 L 65.75 86.62 C 64.90 86.60 64.19 87.28 64.17 88.13 C 64.15 88.98 64.83 89.68 65.68 89.70 L 66.87 89.73 C 67.72 89.75 68.43 89.08 68.45 88.23 C 68.47 87.38 67.79 86.67 66.94 86.65 Z M 65.32 89.74 L 65.70 89.83 C 66.57 90.04 67.45 89.51 67.66 88.65 C 67.88 87.78 67.35 86.90 66.48 86.68 L 66.10 86.59 C 65.23 86.37 64.35 86.90 64.14 87.77 C 63.92 88.64 64.45 89.52 65.32 89.74 Z M 65.78 89.89 L 66.97 90.11 C 67.87 90.28 68.74 89.68 68.91 88.78 C 69.08 87.88 68.48 87.01 67.58 86.84 L 66.39 86.62 C 65.49 86.45 64.62 87.05 64.45 87.95 C 64.29 88.86 64.88 89.72 65.78 89.89 Z M 66.83 90.11 L 67.78 90.37 C 68.68 90.61 69.61 90.08 69.86 89.18 C 70.10 88.28 69.57 87.35 68.67 87.11 L 67.72 86.85 C 66.82 86.60 65.89 87.13 65.64 88.03 C 65.40 88.93 65.93 89.86 66.83 90.11 Z M 67.75 90.38 L 68.68 90.65 C 69.59 90.92 70.54 90.40 70.80 89.49 C 71.07 88.58 70.55 87.63 69.64 87.36 L 68.71 87.09 C 67.80 86.83 66.85 87.35 66.58 88.26 C 66.32 89.16 66.84 90.11 67.75 90.38 Z M 68.68 90.67 L 69.66 90.96 C 70.58 91.22 71.54 90.69 71.80 89.77 C 72.07 88.85 71.54 87.89 70.62 87.63 L 69.64 87.34 C 68.72 87.08 67.76 87.61 67.49 88.53 C 67.23 89.45 67.76 90.41 68.68 90.67 Z M 69.66 90.97 L 70.61 91.24 C 71.54 91.51 72.51 90.97 72.78 90.04 C 73.04 89.11 72.50 88.15 71.57 87.88 L 70.62 87.61 C 69.69 87.34 68.72 87.88 68.46 88.81 C 68.19 89.74 68.73 90.71 69.66 90.97 Z M 70.63 91.26 L 71.60 91.53 C 72.54 91.79 73.51 91.24 73.77 90.30 C 74.02 89.36 73.47 88.38 72.53 88.13 L 71.56 87.86 C 70.62 87.60 69.65 88.15 69.39 89.09 C 69.13 90.04 69.69 91.01 70.63 91.26 Z M 71.63 91.55 L 72.60 91.80 C 73.55 92.04 74.52 91.46 74.76 90.51 C 75.00 89.55 74.42 88.59 73.47 88.35 L 72.50 88.10 C 71.54 87.86 70.58 88.44 70.34 89.39 C 70.10 90.35 70.67 91.31 71.63 91.55 Z M 72.64 91.82 L 73.60 92.04 C 74.57 92.26 75.53 91.65 75.75 90.69 C 75.96 89.72 75.36 88.76 74.39 88.54 L 73.43 88.32 C 72.46 88.11 71.50 88.71 71.28 89.68 C 71.06 90.64 71.67 91.60 72.64 91.82 Z M 73.64 92.06 L 74.64 92.27 C 75.62 92.47 76.57 91.84 76.77 90.86 C 76.97 89.88 76.34 88.93 75.37 88.73 L 74.36 88.52 C 73.38 88.32 72.43 88.95 72.23 89.93 C 72.03 90.91 72.66 91.86 73.64 92.06 Z M 74.67 92.29 L 75.61 92.46 C 76.60 92.65 77.55 92.00 77.73 91.01 C 77.92 90.02 77.27 89.07 76.28 88.88 L 75.34 88.71 C 74.35 88.52 73.40 89.18 73.21 90.16 C 73.03 91.15 73.68 92.10 74.67 92.29 Z M 75.63 92.48 L 76.62 92.65 C 77.62 92.83 78.57 92.16 78.74 91.16 C 78.92 90.16 78.25 89.21 77.25 89.03 L 76.26 88.86 C 75.26 88.69 74.31 89.36 74.13 90.36 C 73.96 91.36 74.63 92.31 75.63 92.48 Z M 76.64 92.67 L 77.64 92.83 C 78.66 93.00 79.61 92.31 79.77 91.30 C 79.93 90.29 79.24 89.34 78.23 89.18 L 77.23 89.01 C 76.22 88.85 75.27 89.54 75.11 90.55 C 74.94 91.56 75.63 92.51 76.64 92.67 Z M 77.66 92.85 L 78.59 92.99 C 79.61 93.15 80.56 92.44 80.72 91.42 C 80.87 90.40 80.17 89.45 79.15 89.30 L 78.22 89.16 C 77.20 89.00 76.25 89.71 76.09 90.73 C 75.94 91.75 76.64 92.70 77.66 92.85 Z M 78.61 93.01 L 79.60 93.15 C 80.63 93.29 81.58 92.58 81.72 91.55 C 81.87 90.52 81.15 89.57 80.12 89.42 L 79.13 89.28 C 78.10 89.14 77.15 89.85 77.01 90.88 C 76.86 91.91 77.58 92.86 78.61 93.01 Z M 79.61 93.16 L 80.68 93.30 C 81.72 93.44 82.67 92.71 82.80 91.67 C 82.94 90.64 82.21 89.68 81.17 89.55 L 80.11 89.41 C 79.07 89.27 78.12 90.00 77.98 91.04 C 77.85 92.08 78.58 93.03 79.61 93.16 Z M 80.69 93.32 L 81.64 93.43 C 82.68 93.56 83.63 92.82 83.76 91.77 C 83.89 90.73 83.14 89.78 82.10 89.65 L 81.16 89.53 C 80.11 89.40 79.16 90.15 79.03 91.19 C 78.91 92.24 79.65 93.19 80.69 93.32 Z M 81.65 93.45 L 82.63 93.56 C 83.68 93.68 84.63 92.92 84.75 91.87 C 84.87 90.81 84.11 89.86 83.06 89.74 L 82.08 89.63 C 81.03 89.51 80.08 90.27 79.96 91.32 C 79.84 92.38 80.60 93.33 81.65 93.45 Z M 82.65 93.57 L 83.66 93.68 C 84.72 93.79 85.67 93.01 85.78 91.95 C 85.89 90.89 85.12 89.94 84.06 89.83 L 83.04 89.73 C 81.98 89.62 81.03 90.39 80.92 91.45 C 80.81 92.52 81.59 93.46 82.65 93.57 Z M 83.68 93.69 L 84.73 93.79 C 85.80 93.88 86.74 93.09 86.84 92.02 C 86.94 90.95 86.15 90.01 85.08 89.91 L 84.03 89.82 C 82.96 89.72 82.02 90.51 81.92 91.58 C 81.83 92.65 82.61 93.60 83.68 93.69 Z M 84.75 93.80 L 85.73 93.87 C 86.81 93.95 87.75 93.15 87.83 92.07 C 87.91 91.00 87.11 90.06 86.03 89.98 L 85.05 89.90 C 83.98 89.82 83.04 90.62 82.95 91.70 C 82.87 92.78 83.68 93.72 84.75 93.80 Z M 85.76 93.88 L 86.74 93.94 C 87.82 94.01 88.75 93.19 88.82 92.11 C 88.89 91.03 88.07 90.10 86.99 90.03 L 86.01 89.97 C 84.92 89.90 83.99 90.72 83.92 91.80 C 83.85 92.88 84.67 93.81 85.76 93.88 Z M 86.76 93.95 L 87.76 94.00 C 88.84 94.06 89.77 93.23 89.82 92.14 C 89.88 91.06 89.05 90.13 87.96 90.07 L 86.96 90.02 C 85.88 89.97 84.95 90.80 84.90 91.88 C 84.84 92.97 85.67 93.89 86.76 93.95 Z M 87.78 94.01 L 88.80 94.05 C 89.89 94.10 90.81 93.25 90.85 92.16 C 90.90 91.08 90.05 90.16 88.96 90.11 L 87.94 90.07 C 86.85 90.02 85.93 90.87 85.89 91.96 C 85.84 93.04 86.69 93.96 87.78 94.01 Z M 88.81 94.06 L 89.82 94.09 C 90.92 94.13 91.83 93.27 91.87 92.18 C 91.90 91.09 91.05 90.17 89.95 90.14 L 88.94 90.10 C 87.85 90.07 86.94 90.92 86.90 92.02 C 86.87 93.11 87.72 94.02 88.81 94.06 Z M 89.84 94.10 L 90.81 94.12 C 91.91 94.15 92.82 93.29 92.84 92.19 C 92.87 91.09 92.01 90.18 90.91 90.15 L 89.94 90.13 C 88.84 90.10 87.93 90.97 87.90 92.06 C 87.88 93.16 88.74 94.07 89.84 94.10 Z M 90.82 94.13 L 91.81 94.15 C 92.91 94.17 93.82 93.30 93.84 92.20 C 93.86 91.10 92.99 90.19 91.89 90.17 L 90.90 90.15 C 89.80 90.13 88.89 91.00 88.87 92.10 C 88.85 93.20 89.72 94.11 90.82 94.13 Z M 91.82 94.15 L 92.83 94.17 C 93.93 94.18 94.84 93.30 94.85 92.20 C 94.87 91.10 93.99 90.19 92.88 90.18 L 91.88 90.16 C 90.77 90.15 89.87 91.03 89.85 92.13 C 89.84 93.23 90.72 94.14 91.82 94.15 Z M 92.84 94.17 L 93.86 94.18 C 94.97 94.19 95.87 93.31 95.88 92.20 C 95.89 91.09 95.01 90.19 93.90 90.18 L 92.88 90.17 C 91.77 90.16 90.87 91.05 90.85 92.15 C 90.84 93.26 91.73 94.16 92.84 94.17 Z M 93.87 94.19 L 94.88 94.20 C 95.99 94.20 96.89 93.31 96.90 92.20 C 96.90 91.09 96.01 90.19 94.90 90.18 L 93.89 90.17 C 92.79 90.17 91.88 91.06 91.87 92.17 C 91.87 93.28 92.76 94.18 93.87 94.19 Z M 94.88 94.20 L 95.86 94.20 C 96.97 94.21 97.88 93.31 97.88 92.20 C 97.89 91.09 96.99 90.19 95.88 90.18 L 94.90 90.18 C 93.79 90.17 92.88 91.07 92.88 92.18 C 92.87 93.29 93.77 94.19 94.88 94.20 Z M 95.87 94.21 L 96.86 94.21 C 97.97 94.21 98.88 93.31 98.88 92.20 C 98.88 91.09 97.98 90.18 96.87 90.18 L 95.88 90.18 C 94.76 90.18 93.86 91.08 93.86 92.19 C 93.85 93.30 94.75 94.20 95.87 94.21 Z M 96.86 94.21 L 97.87 94.21 C 98.98 94.21 99.88 93.31 99.89 92.20 C 99.89 91.08 98.98 90.18 97.87 90.18 L 96.87 90.18 C 95.75 90.18 94.85 91.08 94.85 92.19 C 94.85 93.31 95.75 94.21 96.86 94.21 Z M 97.87 94.22 L 98.88 94.22 C 100.00 94.22 100.90 93.31 100.90 92.20 C 100.90 91.08 100.00 90.18 98.88 90.18 L 97.87 90.18 C 96.75 90.18 95.85 91.08 95.85 92.20 C 95.85 93.31 96.75 94.21 97.87 94.22 Z M 98.88 94.22 L 99.90 94.22 C 101.01 94.22 101.92 93.31 101.92 92.20 C 101.92 91.08 101.01 90.17 99.90 90.17 L 98.88 90.17 C 97.77 90.17 96.86 91.08 96.86 92.20 C 96.86 93.31 97.77 94.22 98.88 94.22 Z M 99.90 94.22 L 100.87 94.22 C 101.99 94.22 102.90 93.31 102.89 92.19 C 102.89 91.08 101.99 90.17 100.87 90.17 L 99.90 90.17 C 98.78 90.17 97.87 91.08 97.87 92.20 C 97.87 93.32 98.78 94.22 99.90 94.22 Z M 100.88 94.22 L 101.86 94.22 C 102.98 94.21 103.88 93.30 103.88 92.18 C 103.87 91.06 102.96 90.16 101.84 90.17 L 100.86 90.17 C 99.74 90.17 98.84 91.09 98.84 92.20 C 98.85 93.32 99.76 94.23 100.88 94.22 Z M 101.88 94.22 L 102.87 94.21 C 103.99 94.20 104.89 93.28 104.88 92.16 C 104.86 91.04 103.95 90.14 102.83 90.15 L 101.83 90.16 C 100.71 90.18 99.81 91.09 99.83 92.21 C 99.84 93.33 100.76 94.23 101.88 94.22 Z M 102.89 94.21 L 103.90 94.19 C 105.02 94.17 105.91 93.24 105.89 92.12 C 105.87 91.00 104.94 90.11 103.82 90.13 L 102.81 90.15 C 101.69 90.17 100.80 91.10 100.82 92.22 C 100.84 93.34 101.77 94.23 102.89 94.21 Z M 103.92 94.19 L 104.95 94.16 C 106.07 94.12 106.95 93.18 106.92 92.06 C 106.88 90.94 105.94 90.06 104.82 90.10 L 103.79 90.13 C 102.67 90.16 101.79 91.10 101.83 92.23 C 101.86 93.35 102.80 94.23 103.92 94.19 Z M 104.98 94.16 L 105.96 94.11 C 107.08 94.06 107.95 93.11 107.90 91.99 C 107.85 90.87 106.90 90.00 105.78 90.05 L 104.79 90.09 C 103.67 90.15 102.80 91.10 102.85 92.22 C 102.90 93.34 103.85 94.21 104.98 94.16 Z M 105.99 94.12 L 106.95 94.06 C 108.07 93.99 108.92 93.03 108.86 91.91 C 108.79 90.78 107.83 89.93 106.71 89.99 L 105.75 90.05 C 104.63 90.12 103.77 91.08 103.84 92.20 C 103.90 93.32 104.87 94.18 105.99 94.12 Z M 106.97 94.06 L 107.94 93.99 C 109.06 93.91 109.91 92.94 109.83 91.82 C 109.75 90.69 108.78 89.85 107.66 89.92 L 106.68 89.99 C 105.56 90.07 104.71 91.05 104.79 92.17 C 104.87 93.29 105.84 94.14 106.97 94.06 Z M 107.96 93.99 L 108.96 93.91 C 110.08 93.82 110.92 92.84 110.83 91.72 C 110.74 90.59 109.76 89.76 108.63 89.85 L 107.64 89.92 C 106.52 90.01 105.68 91.00 105.77 92.12 C 105.86 93.24 106.84 94.08 107.96 93.99 Z M 108.97 93.91 L 109.99 93.82 C 111.11 93.73 111.94 92.74 111.84 91.61 C 111.74 90.49 110.75 89.66 109.63 89.76 L 108.62 89.85 C 107.49 89.94 106.66 90.93 106.76 92.06 C 106.86 93.18 107.85 94.01 108.97 93.91 Z M 110.00 93.82 L 111.03 93.73 C 112.16 93.62 112.98 92.63 112.88 91.50 C 112.77 90.38 111.78 89.55 110.65 89.66 L 109.62 89.76 C 108.49 89.86 107.67 90.86 107.77 91.98 C 107.88 93.10 108.87 93.93 110.00 93.82 Z M 111.04 93.73 L 112.07 93.63 C 113.20 93.52 114.02 92.52 113.91 91.39 C 113.80 90.27 112.80 89.45 111.67 89.56 L 110.64 89.66 C 109.52 89.77 108.70 90.77 108.81 91.89 C 108.92 93.02 109.92 93.84 111.04 93.73 Z M 112.08 93.63 L 113.07 93.53 C 114.20 93.41 115.01 92.41 114.90 91.28 C 114.78 90.16 113.78 89.34 112.66 89.46 L 111.67 89.56 C 110.54 89.67 109.72 90.68 109.84 91.80 C 109.95 92.92 110.96 93.74 112.08 93.63 Z M 113.08 93.53 L 114.08 93.42 C 115.20 93.30 116.02 92.30 115.90 91.17 C 115.78 90.05 114.77 89.23 113.65 89.35 L 112.65 89.45 C 111.52 89.57 110.71 90.58 110.83 91.71 C 110.94 92.83 111.95 93.65 113.08 93.53 Z M 114.08 93.42 L 115.09 93.32 C 116.22 93.19 117.03 92.18 116.91 91.06 C 116.79 89.93 115.78 89.12 114.65 89.24 L 113.64 89.35 C 112.52 89.47 111.70 90.48 111.83 91.61 C 111.95 92.73 112.96 93.55 114.08 93.42 Z M 115.10 93.32 L 116.10 93.21 C 117.23 93.08 118.04 92.07 117.91 90.94 C 117.79 89.81 116.78 89.00 115.65 89.13 L 114.64 89.24 C 113.52 89.36 112.71 90.38 112.83 91.50 C 112.96 92.63 113.97 93.44 115.10 93.32 Z M 116.11 93.21 L 117.10 93.09 C 118.23 92.97 119.04 91.95 118.91 90.82 C 118.78 89.69 117.77 88.88 116.64 89.01 L 115.64 89.13 C 114.52 89.25 113.71 90.27 113.83 91.40 C 113.96 92.52 114.98 93.33 116.11 93.21 Z M 117.11 93.09 L 118.09 92.98 C 119.22 92.85 120.03 91.83 119.90 90.70 C 119.77 89.58 118.75 88.77 117.62 88.90 L 116.64 89.01 C 115.51 89.14 114.70 90.16 114.83 91.29 C 114.96 92.42 115.98 93.23 117.11 93.09 Z M 118.10 92.98 L 119.10 92.86 C 120.23 92.73 121.04 91.71 120.90 90.58 C 120.77 89.45 119.75 88.64 118.62 88.78 L 117.61 88.90 C 116.49 89.03 115.68 90.05 115.81 91.18 C 115.95 92.31 116.97 93.11 118.10 92.98 Z M 119.11 92.86 L 120.13 92.74 C 121.26 92.60 122.06 91.58 121.93 90.45 C 121.79 89.32 120.76 88.52 119.64 88.65 L 118.62 88.78 C 117.49 88.91 116.68 89.94 116.82 91.07 C 116.96 92.20 117.98 93.00 119.11 92.86 Z M 120.14 92.74 L 121.14 92.61 C 122.27 92.47 123.07 91.45 122.93 90.32 C 122.79 89.19 121.76 88.39 120.63 88.53 L 119.63 88.65 C 118.50 88.79 117.70 89.82 117.84 90.95 C 117.98 92.08 119.01 92.88 120.14 92.74 Z M 121.15 92.61 L 122.13 92.49 C 123.26 92.34 124.06 91.31 123.91 90.19 C 123.77 89.06 122.74 88.26 121.61 88.41 L 120.63 88.53 C 119.50 88.67 118.70 89.71 118.84 90.83 C 118.99 91.96 120.02 92.76 121.15 92.61 Z M 122.14 92.49 L 123.11 92.36 C 124.24 92.21 125.03 91.18 124.89 90.05 C 124.74 88.92 123.70 88.13 122.58 88.28 L 121.60 88.41 C 120.48 88.55 119.68 89.59 119.83 90.71 C 119.98 91.84 121.01 92.63 122.14 92.49 Z M 123.12 92.36 L 124.09 92.23 C 125.22 92.07 126.01 91.04 125.85 89.91 C 125.70 88.79 124.66 88.00 123.54 88.15 L 122.57 88.28 C 121.44 88.43 120.65 89.47 120.81 90.59 C 120.96 91.72 122.00 92.51 123.12 92.36 Z M 124.10 92.23 L 125.07 92.09 C 126.19 91.93 126.98 90.89 126.82 89.77 C 126.66 88.64 125.63 87.86 124.50 88.01 L 123.53 88.15 C 122.40 88.31 121.62 89.35 121.78 90.47 C 121.93 91.60 122.97 92.38 124.10 92.23 Z M 125.08 92.09 L 126.05 91.95 C 127.18 91.79 127.96 90.75 127.80 89.62 C 127.64 88.50 126.59 87.71 125.47 87.87 L 124.49 88.01 C 123.37 88.18 122.58 89.22 122.75 90.34 C 122.91 91.47 123.95 92.25 125.08 92.09 Z M 126.06 91.95 L 127.04 91.81 C 128.16 91.64 128.94 90.60 128.78 89.47 C 128.61 88.35 127.57 87.57 126.44 87.73 L 125.46 87.88 C 124.34 88.04 123.56 89.09 123.72 90.21 C 123.89 91.34 124.93 92.11 126.06 91.95 Z M 127.04 91.81 L 128.03 91.66 C 129.15 91.49 129.93 90.45 129.76 89.32 C 129.60 88.20 128.55 87.42 127.43 87.59 L 126.44 87.73 C 125.31 87.90 124.54 88.95 124.70 90.07 C 124.87 91.20 125.92 91.97 127.04 91.81 Z M 128.03 91.66 L 129.02 91.51 C 130.15 91.35 130.92 90.30 130.76 89.17 C 130.59 88.05 129.54 87.27 128.42 87.44 L 127.42 87.59 C 126.30 87.75 125.52 88.80 125.69 89.93 C 125.86 91.05 126.91 91.83 128.03 91.66 Z M 129.02 91.51 L 130.02 91.37 C 131.15 91.20 131.92 90.15 131.76 89.02 C 131.59 87.90 130.54 87.12 129.41 87.29 L 128.42 87.44 C 127.29 87.61 126.51 88.65 126.68 89.78 C 126.85 90.90 127.90 91.68 129.02 91.51 Z M 130.02 91.37 L 131.02 91.22 C 132.15 91.05 132.93 90.00 132.76 88.88 C 132.59 87.75 131.55 86.97 130.42 87.14 L 129.42 87.29 C 128.29 87.45 127.51 88.50 127.68 89.63 C 127.85 90.75 128.89 91.53 130.02 91.37 Z M 131.02 91.22 L 131.99 91.08 C 133.11 90.91 133.89 89.87 133.73 88.74 C 133.56 87.61 132.52 86.83 131.39 87.00 L 130.42 87.14 C 129.30 87.30 128.52 88.35 128.68 89.48 C 128.85 90.60 129.89 91.38 131.02 91.22 Z M 131.98 91.08 L 132.96 90.94 C 134.09 90.78 134.87 89.73 134.71 88.60 C 134.54 87.48 133.50 86.69 132.37 86.86 L 131.40 87.00 C 130.27 87.16 129.49 88.20 129.65 89.33 C 129.81 90.46 130.86 91.24 131.98 91.08 Z M 132.95 90.94 L 133.94 90.80 C 135.07 90.64 135.85 89.60 135.69 88.47 C 135.53 87.34 134.49 86.56 133.36 86.72 L 132.38 86.86 C 131.25 87.02 130.47 88.06 130.63 89.19 C 130.78 90.31 131.83 91.10 132.95 90.94 Z M 133.93 90.80 L 134.93 90.66 C 136.06 90.51 136.84 89.47 136.69 88.34 C 136.53 87.21 135.49 86.42 134.36 86.58 L 133.37 86.72 C 132.24 86.87 131.45 87.91 131.61 89.04 C 131.77 90.17 132.81 90.96 133.93 90.80 Z M 134.92 90.66 L 135.92 90.53 C 137.05 90.38 137.84 89.34 137.69 88.21 C 137.54 87.08 136.50 86.29 135.37 86.44 L 134.37 86.58 C 133.24 86.73 132.45 87.77 132.60 88.90 C 132.75 90.02 133.79 90.82 134.92 90.66 Z M 135.92 90.53 L 136.93 90.40 C 138.05 90.25 138.85 89.21 138.70 88.08 C 138.55 86.95 137.52 86.16 136.39 86.31 L 135.38 86.44 C 134.25 86.59 133.45 87.63 133.60 88.75 C 133.75 89.88 134.79 90.68 135.92 90.53 Z M 136.92 90.40 L 137.92 90.27 C 139.04 90.12 139.84 89.09 139.70 87.96 C 139.55 86.83 138.52 86.04 137.39 86.18 L 136.39 86.31 C 135.27 86.45 134.47 87.48 134.61 88.61 C 134.76 89.74 135.79 90.54 136.92 90.40 Z M 137.91 90.27 L 138.90 90.15 C 140.03 90.01 140.83 88.98 140.69 87.85 C 140.55 86.72 139.52 85.92 138.39 86.06 L 137.40 86.18 C 136.27 86.32 135.47 87.35 135.61 88.48 C 135.75 89.61 136.78 90.41 137.91 90.27 Z M 138.89 90.15 L 139.88 90.03 C 141.01 89.89 141.82 88.86 141.68 87.73 C 141.54 86.61 140.52 85.80 139.39 85.94 L 138.40 86.06 C 137.27 86.19 136.46 87.22 136.60 88.35 C 136.74 89.48 137.76 90.28 138.89 90.15 Z M 139.88 90.03 L 140.87 89.91 C 142.00 89.77 142.81 88.75 142.68 87.62 C 142.54 86.49 141.52 85.69 140.39 85.82 L 139.40 85.94 C 138.27 86.07 137.46 87.09 137.59 88.22 C 137.73 89.35 138.75 90.16 139.88 90.03 Z M 140.87 89.91 L 141.87 89.79 C 142.99 89.66 143.80 88.64 143.67 87.51 C 143.54 86.38 142.52 85.57 141.39 85.71 L 140.40 85.82 C 139.27 85.95 138.46 86.97 138.59 88.10 C 138.72 89.23 139.74 90.04 140.87 89.91 Z M 141.86 89.79 L 142.86 89.68 C 143.98 89.55 144.80 88.53 144.67 87.41 C 144.54 86.28 143.52 85.47 142.39 85.59 L 141.40 85.71 C 140.27 85.83 139.46 86.85 139.59 87.98 C 139.71 89.11 140.73 89.92 141.86 89.79 Z M 142.85 89.68 L 143.84 89.57 C 144.97 89.44 145.79 88.43 145.66 87.30 C 145.53 86.17 144.52 85.36 143.39 85.48 L 142.40 85.59 C 141.27 85.72 140.46 86.73 140.58 87.86 C 140.71 88.99 141.72 89.80 142.85 89.68 Z M 143.84 89.57 L 144.83 89.46 C 145.96 89.34 146.77 88.32 146.65 87.20 C 146.53 86.07 145.51 85.25 144.38 85.38 L 143.39 85.48 C 142.27 85.61 141.45 86.62 141.58 87.75 C 141.70 88.88 142.71 89.69 143.84 89.57 Z M 144.83 89.46 L 145.81 89.35 C 146.94 89.23 147.75 88.22 147.63 87.09 C 147.51 85.97 146.50 85.15 145.37 85.27 L 144.39 85.38 C 143.26 85.50 142.45 86.51 142.57 87.64 C 142.69 88.76 143.70 89.58 144.83 89.46 Z M 145.81 89.35 L 146.80 89.25 C 147.92 89.13 148.74 88.12 148.62 86.99 C 148.50 85.87 147.49 85.05 146.36 85.17 L 145.38 85.27 C 144.25 85.39 143.44 86.40 143.55 87.53 C 143.67 88.65 144.68 89.47 145.81 89.35 Z M 146.79 89.25 L 147.78 89.14 C 148.91 89.02 149.72 88.02 149.61 86.89 C 149.49 85.77 148.48 84.95 147.36 85.07 L 146.37 85.17 C 145.24 85.29 144.42 86.29 144.54 87.42 C 144.66 88.55 145.67 89.36 146.79 89.25 Z M 147.78 89.14 L 148.77 89.04 C 149.90 88.92 150.72 87.92 150.60 86.79 C 150.48 85.67 149.48 84.85 148.35 84.97 L 147.36 85.07 C 146.23 85.18 145.42 86.19 145.53 87.31 C 145.65 88.44 146.65 89.26 147.78 89.14 Z M 148.77 89.04 L 149.77 88.93 C 150.90 88.82 151.72 87.82 151.60 86.69 C 151.49 85.57 150.48 84.75 149.36 84.86 L 148.36 84.97 C 147.23 85.08 146.41 86.09 146.53 87.21 C 146.64 88.33 147.65 89.15 148.77 89.04 Z M 149.77 88.93 L 150.78 88.83 C 151.91 88.72 152.73 87.72 152.61 86.59 C 152.50 85.47 151.50 84.65 150.37 84.76 L 149.36 84.87 C 148.24 84.98 147.42 85.98 147.53 87.10 C 147.65 88.23 148.65 89.05 149.77 88.93 Z M 150.78 88.83 L 151.78 88.73 C 152.90 88.62 153.72 87.62 153.61 86.50 C 153.50 85.37 152.50 84.55 151.37 84.67 L 150.38 84.77 C 149.25 84.88 148.44 85.88 148.55 87.00 C 148.66 88.12 149.66 88.94 150.78 88.83 Z M 151.78 88.73 L 152.78 88.63 C 153.90 88.52 154.72 87.52 154.61 86.40 C 154.50 85.28 153.51 84.46 152.39 84.57 L 151.38 84.67 C 150.26 84.78 149.44 85.78 149.55 86.90 C 149.66 88.02 150.66 88.84 151.78 88.73 Z M 152.78 88.63 L 153.78 88.53 C 154.90 88.42 155.73 87.43 155.62 86.31 C 155.51 85.19 154.52 84.37 153.40 84.48 L 152.39 84.57 C 151.27 84.68 150.45 85.67 150.56 86.79 C 150.66 87.91 151.66 88.73 152.78 88.63 Z M 153.78 88.53 L 154.78 88.44 C 155.90 88.34 156.73 87.35 156.62 86.23 C 156.52 85.11 155.53 84.28 154.41 84.39 L 153.41 84.48 C 152.29 84.58 151.46 85.57 151.57 86.69 C 151.67 87.81 152.66 88.63 153.78 88.53 Z M 154.77 88.44 L 155.77 88.35 C 156.89 88.25 157.71 87.27 157.62 86.15 C 157.52 85.03 156.54 84.21 155.42 84.30 L 154.42 84.39 C 153.30 84.48 152.48 85.47 152.57 86.59 C 152.67 87.70 153.65 88.53 154.77 88.44 Z M 155.76 88.35 L 156.74 88.27 C 157.86 88.18 158.69 87.20 158.60 86.09 C 158.51 84.97 157.53 84.13 156.42 84.22 L 155.43 84.30 C 154.31 84.39 153.48 85.37 153.57 86.49 C 153.66 87.61 154.64 88.44 155.76 88.35 Z M 156.72 88.27 L 157.71 88.20 C 158.83 88.12 159.67 87.15 159.58 86.03 C 159.50 84.91 158.53 84.07 157.42 84.15 L 156.43 84.23 C 155.31 84.31 154.47 85.28 154.56 86.39 C 154.64 87.51 155.61 88.35 156.72 88.27 Z M 157.69 88.20 L 158.73 88.13 C 159.84 88.06 160.69 87.10 160.62 85.98 C 160.55 84.86 159.58 84.02 158.47 84.09 L 157.43 84.16 C 156.32 84.23 155.47 85.19 155.54 86.31 C 155.61 87.42 156.58 88.27 157.69 88.20 Z M 158.71 88.13 L 159.73 88.07 C 160.84 88.01 161.69 87.05 161.63 85.94 C 161.57 84.83 160.61 83.97 159.50 84.03 L 158.49 84.09 C 157.37 84.15 156.52 85.11 156.58 86.22 C 156.64 87.34 157.60 88.19 158.71 88.13 Z M 159.71 88.07 L 160.71 88.02 C 161.82 87.96 162.68 87.02 162.62 85.90 C 162.57 84.79 161.62 83.93 160.51 83.99 L 159.51 84.04 C 158.40 84.09 157.54 85.04 157.60 86.15 C 157.65 87.26 158.60 88.12 159.71 88.07 Z M 160.70 88.02 L 161.68 87.97 C 162.79 87.92 163.66 86.98 163.61 85.87 C 163.56 84.76 162.62 83.90 161.51 83.95 L 160.52 83.99 C 159.41 84.04 158.55 84.98 158.60 86.09 C 158.65 87.20 159.59 88.06 160.70 88.02 Z M 161.68 87.97 L 162.65 87.93 C 163.76 87.88 164.63 86.95 164.58 85.84 C 164.54 84.73 163.60 83.87 162.49 83.91 L 161.51 83.95 C 160.40 84.00 159.54 84.93 159.59 86.04 C 159.63 87.15 160.57 88.01 161.68 87.97 Z M 162.65 87.93 L 163.62 87.89 C 164.73 87.85 165.59 86.91 165.55 85.81 C 165.51 84.70 164.58 83.83 163.47 83.88 L 162.49 83.91 C 161.39 83.96 160.52 84.89 160.57 86.00 C 160.61 87.11 161.54 87.97 162.65 87.93 Z M 163.62 87.89 L 164.62 87.85 C 165.73 87.81 166.59 86.87 166.55 85.77 C 166.51 84.66 165.58 83.80 164.47 83.84 L 163.47 83.88 C 162.36 83.92 161.50 84.85 161.54 85.96 C 161.59 87.06 162.52 87.93 163.62 87.89 Z M 164.62 87.84 L 165.62 87.81 C 166.73 87.76 167.59 86.84 167.55 85.73 C 167.51 84.63 166.58 83.77 165.47 83.81 L 164.47 83.85 C 163.37 83.89 162.51 84.82 162.55 85.92 C 162.59 87.02 163.52 87.88 164.62 87.84 Z M 165.62 87.80 L 166.62 87.77 C 167.72 87.73 168.58 86.80 168.55 85.70 C 168.51 84.60 167.58 83.74 166.48 83.78 L 165.48 83.81 C 164.38 83.85 163.51 84.78 163.55 85.88 C 163.59 86.98 164.52 87.84 165.62 87.80 Z M 166.62 87.76 L 167.62 87.73 C 168.72 87.69 169.58 86.77 169.54 85.67 C 169.51 84.57 168.58 83.71 167.48 83.75 L 166.48 83.78 C 165.38 83.82 164.52 84.74 164.56 85.84 C 164.60 86.94 165.52 87.80 166.62 87.76 Z M 167.61 87.73 L 168.61 87.69 C 169.71 87.66 170.57 86.74 170.54 85.65 C 170.50 84.55 169.59 83.69 168.49 83.72 L 167.49 83.75 C 166.39 83.78 165.53 84.70 165.56 85.80 C 165.60 86.90 166.52 87.76 167.61 87.73 Z M 168.60 87.69 L 169.60 87.66 C 170.69 87.63 171.56 86.72 171.53 85.63 C 171.50 84.53 170.58 83.67 169.49 83.70 L 168.49 83.72 C 167.40 83.75 166.54 84.67 166.56 85.76 C 166.59 86.86 167.51 87.72 168.60 87.69 Z M 169.59 87.66 L 170.60 87.64 C 171.69 87.61 172.56 86.70 172.53 85.61 C 172.51 84.52 171.60 83.65 170.51 83.68 L 169.50 83.70 C 168.40 83.73 167.54 84.63 167.56 85.73 C 167.59 86.82 168.49 87.68 169.59 87.66 Z M 170.59 87.63 L 171.60 87.61 C 172.70 87.59 173.56 86.69 173.54 85.60 C 173.52 84.51 172.62 83.64 171.53 83.66 L 170.52 83.68 C 169.43 83.70 168.56 84.60 168.58 85.69 C 168.60 86.78 169.50 87.65 170.59 87.63 Z M 171.60 87.61 L 172.60 87.59 C 173.69 87.57 174.56 86.68 174.54 85.59 C 174.53 84.50 173.63 83.64 172.54 83.65 L 171.54 83.67 C 170.45 83.68 169.58 84.58 169.60 85.67 C 169.61 86.75 170.51 87.62 171.60 87.61 Z M 172.60 87.59 L 173.59 87.57 C 174.68 87.56 175.55 86.67 175.53 85.59 C 175.52 84.50 174.63 83.63 173.55 83.65 L 172.55 83.66 C 171.47 83.67 170.60 84.56 170.61 85.65 C 170.62 86.73 171.51 87.60 172.60 87.59 Z M 173.59 87.57 L 174.58 87.56 C 175.66 87.55 176.53 86.67 176.52 85.58 C 176.51 84.50 175.62 83.63 174.54 83.64 L 173.55 83.65 C 172.47 83.66 171.60 84.55 171.61 85.63 C 171.62 86.71 172.51 87.58 173.59 87.57 Z M 174.57 87.55 L 175.55 87.55 C 176.63 87.54 177.50 86.66 177.49 85.58 C 177.49 84.50 176.61 83.63 175.53 83.64 L 174.55 83.65 C 173.47 83.66 172.60 84.54 172.61 85.61 C 172.61 86.69 173.49 87.56 174.57 87.55 Z M 175.55 87.54 L 176.56 87.54 C 177.64 87.53 178.51 86.66 178.50 85.58 C 178.50 84.51 177.62 83.64 176.55 83.64 L 175.53 83.65 C 174.46 83.65 173.59 84.53 173.59 85.60 C 173.60 86.68 174.48 87.55 175.55 87.54 Z M 176.56 87.53 L 177.57 87.53 C 178.64 87.53 179.51 86.65 179.50 85.58 C 179.50 84.51 178.63 83.64 177.56 83.65 L 176.55 83.65 C 175.48 83.65 174.61 84.52 174.61 85.60 C 174.62 86.67 175.49 87.54 176.56 87.53 Z M 177.57 87.52 L 178.57 87.52 C 179.64 87.52 180.50 86.65 180.50 85.58 C 180.50 84.51 179.63 83.65 178.56 83.65 L 177.56 83.65 C 176.49 83.65 175.63 84.52 175.63 85.59 C 175.63 86.66 176.50 87.52 177.57 87.52 Z M 178.57 87.52 L 179.56 87.51 C 180.63 87.51 181.49 86.65 181.49 85.58 C 181.49 84.52 180.62 83.65 179.56 83.65 L 178.56 83.65 C 177.50 83.66 176.63 84.52 176.63 85.59 C 176.63 86.65 177.50 87.52 178.57 87.52 Z M 179.56 87.51 L 180.55 87.51 C 181.61 87.51 182.47 86.65 182.47 85.58 C 182.47 84.52 181.61 83.66 180.55 83.66 L 179.56 83.66 C 178.50 83.66 177.63 84.52 177.63 85.58 C 177.64 86.65 178.50 87.51 179.56 87.51 Z M 180.55 87.50 L 181.54 87.50 C 182.60 87.50 183.46 86.64 183.46 85.58 C 183.46 84.52 182.60 83.66 181.54 83.66 L 180.55 83.66 C 179.49 83.67 178.63 84.52 178.63 85.58 C 178.63 86.64 179.49 87.50 180.55 87.50 Z M 181.54 87.50 L 182.53 87.50 C 183.58 87.50 184.44 86.64 184.44 85.58 C 184.44 84.53 183.58 83.67 182.53 83.67 L 181.54 83.67 C 180.48 83.67 179.63 84.53 179.62 85.58 C 179.62 86.64 180.48 87.50 181.54 87.50 Z M 182.52 87.49 L 183.52 87.49 C 184.57 87.49 185.42 86.64 185.42 85.59 C 185.43 84.54 184.57 83.68 183.52 83.68 L 182.53 83.68 C 181.48 83.68 180.62 84.53 180.62 85.58 C 180.62 86.63 181.47 87.49 182.52 87.49 Z M 183.51 87.48 L 184.51 87.49 C 185.56 87.49 186.41 86.64 186.41 85.59 C 186.42 84.55 185.57 83.69 184.52 83.69 L 183.52 83.69 C 182.48 83.68 181.62 84.53 181.62 85.58 C 181.62 86.63 182.46 87.48 183.51 87.48 Z M 184.50 87.48 L 185.51 87.49 C 186.55 87.49 187.40 86.65 187.41 85.61 C 187.41 84.56 186.57 83.71 185.53 83.70 L 184.53 83.70 C 183.48 83.69 182.63 84.53 182.62 85.58 C 182.62 86.62 183.46 87.47 184.50 87.48 Z M 185.50 87.48 L 186.51 87.49 C 187.55 87.50 188.41 86.66 188.41 85.62 C 188.42 84.58 187.59 83.73 186.55 83.72 L 185.53 83.71 C 184.49 83.70 183.64 84.54 183.63 85.58 C 183.62 86.62 184.46 87.47 185.50 87.48 Z M 186.51 87.48 L 187.53 87.49 C 188.57 87.51 189.42 86.68 189.43 85.64 C 189.44 84.61 188.62 83.75 187.58 83.74 L 186.56 83.73 C 185.52 83.71 184.67 84.54 184.65 85.58 C 184.64 86.61 185.47 87.47 186.51 87.48 Z M 187.52 87.48 L 188.55 87.50 C 189.58 87.52 190.43 86.70 190.45 85.67 C 190.47 84.64 189.65 83.79 188.62 83.77 L 187.59 83.75 C 186.56 83.73 185.71 84.55 185.69 85.58 C 185.67 86.61 186.49 87.46 187.52 87.48 Z M 188.54 87.49 L 189.57 87.51 C 190.59 87.54 191.44 86.72 191.47 85.70 C 191.49 84.68 190.68 83.83 189.65 83.80 L 188.63 83.78 C 187.60 83.76 186.75 84.57 186.73 85.59 C 186.71 86.62 187.52 87.47 188.54 87.49 Z M 189.56 87.50 L 190.57 87.53 C 191.59 87.56 192.44 86.75 192.46 85.74 C 192.49 84.72 191.69 83.87 190.67 83.84 L 189.66 83.82 C 188.64 83.79 187.80 84.59 187.77 85.61 C 187.74 86.63 188.54 87.47 189.56 87.50 Z M 190.56 87.52 L 191.54 87.55 C 192.55 87.58 193.40 86.79 193.43 85.78 C 193.47 84.77 192.67 83.92 191.66 83.89 L 190.68 83.85 C 189.67 83.82 188.82 84.61 188.79 85.63 C 188.76 86.64 189.55 87.48 190.56 87.52 Z M 191.53 87.54 L 192.47 87.58 C 193.47 87.61 194.32 86.83 194.36 85.83 C 194.40 84.82 193.62 83.97 192.61 83.93 L 191.67 83.90 C 190.67 83.86 189.82 84.64 189.78 85.65 C 189.74 86.65 190.52 87.50 191.53 87.54 Z M 192.45 87.56 L 193.55 87.62 C 194.55 87.66 195.40 86.89 195.44 85.89 C 195.49 84.89 194.72 84.05 193.72 84.00 L 192.63 83.95 C 191.63 83.90 190.78 84.67 190.73 85.67 C 190.68 86.67 191.46 87.52 192.45 87.56 Z M 193.53 87.60 L 194.56 87.66 C 195.56 87.72 196.41 86.96 196.47 85.97 C 196.52 84.98 195.77 84.13 194.77 84.07 L 193.74 84.01 C 192.75 83.95 191.90 84.71 191.84 85.70 C 191.78 86.70 192.54 87.55 193.53 87.60 Z M 194.54 87.65 L 195.52 87.72 C 196.51 87.79 197.36 87.04 197.43 86.06 C 197.50 85.07 196.75 84.22 195.77 84.15 L 194.79 84.08 C 193.81 84.01 192.95 84.76 192.88 85.74 C 192.82 86.73 193.56 87.58 194.54 87.65 Z M 195.50 87.71 L 196.44 87.78 C 197.41 87.86 198.27 87.13 198.35 86.15 C 198.43 85.18 197.70 84.32 196.72 84.24 L 195.79 84.16 C 194.81 84.08 193.95 84.81 193.87 85.79 C 193.79 86.77 194.52 87.63 195.50 87.71 Z M 196.41 87.77 L 197.38 87.86 C 198.35 87.95 199.21 87.24 199.30 86.26 C 199.39 85.29 198.68 84.43 197.71 84.34 L 196.74 84.25 C 195.77 84.16 194.91 84.88 194.82 85.85 C 194.73 86.82 195.44 87.68 196.41 87.77 Z M 197.36 87.85 L 198.38 87.95 C 199.35 88.05 200.21 87.35 200.31 86.39 C 200.41 85.42 199.71 84.56 198.74 84.46 L 197.73 84.35 C 196.76 84.25 195.90 84.95 195.80 85.92 C 195.70 86.88 196.40 87.75 197.36 87.85 Z M 198.37 87.94 L 199.36 88.05 C 200.32 88.16 201.18 87.47 201.29 86.51 C 201.40 85.55 200.71 84.69 199.75 84.58 L 198.76 84.47 C 197.80 84.36 196.93 85.05 196.83 86.01 C 196.72 86.97 197.41 87.84 198.37 87.94 Z M 199.36 88.04 L 200.33 88.16 C 201.28 88.27 202.14 87.58 202.25 86.63 C 202.36 85.68 201.68 84.81 200.72 84.70 L 199.75 84.59 C 198.80 84.48 197.94 85.17 197.83 86.12 C 197.72 87.07 198.40 87.93 199.36 88.04 Z M 200.33 88.14 L 201.33 88.26 C 202.27 88.37 203.13 87.69 203.24 86.74 C 203.35 85.79 202.67 84.94 201.72 84.83 L 200.72 84.72 C 199.77 84.61 198.92 85.29 198.81 86.23 C 198.70 87.18 199.38 88.04 200.33 88.14 Z M 201.33 88.25 L 202.35 88.36 C 203.29 88.47 204.14 87.79 204.24 86.85 C 204.35 85.91 203.67 85.06 202.73 84.96 L 201.71 84.84 C 200.77 84.74 199.93 85.41 199.82 86.35 C 199.72 87.29 200.39 88.14 201.33 88.25 Z M 202.35 88.35 L 203.34 88.46 C 204.27 88.56 205.11 87.89 205.22 86.96 C 205.32 86.03 204.65 85.19 203.72 85.08 L 202.73 84.97 C 201.80 84.87 200.96 85.54 200.85 86.47 C 200.75 87.40 201.42 88.24 202.35 88.35 Z M 203.33 88.44 L 204.29 88.55 C 205.21 88.66 206.05 88.00 206.15 87.07 C 206.26 86.15 205.60 85.31 204.67 85.21 L 203.72 85.10 C 202.80 84.99 201.96 85.65 201.85 86.58 C 201.75 87.50 202.41 88.34 203.33 88.44 Z M 204.28 88.54 L 205.32 88.66 C 206.23 88.77 207.06 88.12 207.17 87.21 C 207.29 86.29 206.63 85.46 205.72 85.35 L 204.68 85.22 C 203.77 85.11 202.94 85.76 202.82 86.68 C 202.71 87.59 203.37 88.42 204.28 88.54 Z M 205.31 88.64 L 206.31 88.77 C 207.21 88.88 208.04 88.24 208.15 87.33 C 208.26 86.43 207.62 85.60 206.71 85.49 L 205.72 85.36 C 204.82 85.25 203.99 85.89 203.88 86.80 C 203.76 87.71 204.41 88.53 205.31 88.64 Z M 206.31 88.75 L 207.27 88.87 C 208.16 88.98 208.98 88.34 209.09 87.45 C 209.20 86.55 208.56 85.73 207.67 85.62 L 206.71 85.50 C 205.81 85.39 205.00 86.03 204.89 86.93 C 204.78 87.83 205.41 88.64 206.31 88.75 Z M 207.28 88.86 L 208.28 88.97 C 209.17 89.08 209.98 88.44 210.08 87.55 C 210.19 86.66 209.55 85.86 208.66 85.75 L 207.66 85.64 C 206.77 85.53 205.96 86.17 205.86 87.06 C 205.75 87.95 206.39 88.75 207.28 88.86 Z M 208.29 88.96 L 209.28 89.07 C 210.16 89.17 210.96 88.54 211.06 87.66 C 211.16 86.78 210.53 85.98 209.65 85.88 L 208.66 85.77 C 207.78 85.67 206.98 86.30 206.88 87.18 C 206.78 88.06 207.41 88.86 208.29 88.96 Z M 209.28 89.06 L 210.25 89.17 C 211.12 89.28 211.92 88.66 212.02 87.78 C 212.12 86.91 211.50 86.12 210.63 86.02 L 209.65 85.90 C 208.78 85.79 207.99 86.42 207.89 87.29 C 207.78 88.16 208.40 88.95 209.28 89.06 Z M 210.24 89.16 L 211.29 89.29 C 212.15 89.40 212.94 88.80 213.05 87.93 C 213.16 87.07 212.56 86.28 211.69 86.17 L 210.64 86.03 C 209.78 85.92 208.99 86.53 208.88 87.39 C 208.77 88.25 209.38 89.04 210.24 89.16 Z M 211.28 89.27 L 212.26 89.41 C 213.11 89.53 213.90 88.93 214.01 88.08 C 214.13 87.23 213.54 86.44 212.68 86.32 L 211.70 86.19 C 210.85 86.07 210.07 86.67 209.95 87.52 C 209.83 88.37 210.43 89.16 211.28 89.27 Z M 212.26 89.39 L 213.22 89.53 C 214.06 89.64 214.84 89.06 214.96 88.22 C 215.08 87.37 214.49 86.60 213.65 86.48 L 212.69 86.34 C 211.84 86.22 211.07 86.81 210.95 87.65 C 210.83 88.49 211.42 89.27 212.26 89.39 Z M 213.19 89.51 L 214.15 89.66 C 214.98 89.80 215.76 89.23 215.90 88.40 C 216.03 87.57 215.47 86.79 214.64 86.65 L 213.68 86.50 C 212.85 86.36 212.06 86.93 211.93 87.76 C 211.79 88.59 212.36 89.37 213.19 89.51 Z M 214.06 89.63 L 215.14 89.87 C 215.95 90.06 216.76 89.55 216.94 88.73 C 217.13 87.92 216.62 87.11 215.80 86.93 L 214.72 86.68 C 213.91 86.50 213.10 87.01 212.92 87.83 C 212.73 88.64 213.25 89.45 214.06 89.63 Z M 214.96 89.81 L 215.93 90.16 C 216.71 90.45 217.57 90.04 217.85 89.26 C 218.14 88.48 217.73 87.62 216.95 87.34 L 215.98 86.99 C 215.20 86.70 214.34 87.11 214.06 87.89 C 213.77 88.67 214.18 89.53 214.96 89.81 Z M 214.96 88.96 L 215.01 89.32 C 215.13 90.13 215.88 90.70 216.70 90.59 C 217.52 90.47 218.09 89.71 217.97 88.90 L 217.92 88.54 C 217.80 87.72 217.05 87.15 216.23 87.27 C 215.41 87.39 214.84 88.14 214.96 88.96 Z M 215.98 87.72 L 214.90 88.12 C 214.13 88.40 213.74 89.25 214.02 90.02 C 214.31 90.79 215.16 91.18 215.93 90.89 L 217.00 90.50 C 217.77 90.21 218.16 89.36 217.88 88.59 C 217.60 87.83 216.74 87.43 215.98 87.72 Z M 215.04 88.09 L 213.97 88.37 C 213.19 88.57 212.72 89.38 212.93 90.16 C 213.13 90.94 213.94 91.41 214.72 91.20 L 215.79 90.92 C 216.57 90.72 217.04 89.92 216.83 89.13 C 216.62 88.35 215.82 87.88 215.04 88.09 Z M 214.00 88.37 L 213.00 88.61 C 212.22 88.81 211.74 89.59 211.93 90.38 C 212.13 91.16 212.91 91.64 213.70 91.44 L 214.69 91.20 C 215.47 91.01 215.95 90.22 215.76 89.44 C 215.57 88.66 214.78 88.18 214.00 88.37 Z M 213.02 88.62 L 211.98 88.86 C 211.20 89.05 210.72 89.83 210.90 90.60 C 211.09 91.38 211.86 91.86 212.64 91.68 L 213.68 91.44 C 214.46 91.26 214.94 90.48 214.76 89.70 C 214.58 88.92 213.80 88.44 213.02 88.62 Z M 211.99 88.87 L 211.00 89.10 C 210.23 89.27 209.74 90.04 209.92 90.82 C 210.10 91.59 210.87 92.08 211.64 91.90 L 212.63 91.68 C 213.41 91.50 213.89 90.73 213.71 89.95 C 213.54 89.18 212.77 88.69 211.99 88.87 Z M 211.02 89.10 L 209.92 89.34 C 209.14 89.51 208.66 90.27 208.82 91.04 C 208.99 91.82 209.76 92.30 210.53 92.14 L 211.63 91.90 C 212.40 91.73 212.89 90.96 212.72 90.19 C 212.55 89.42 211.79 88.93 211.02 89.10 Z M 209.93 89.34 L 208.92 89.55 C 208.15 89.71 207.65 90.46 207.81 91.23 C 207.97 92.01 208.73 92.50 209.50 92.34 L 210.51 92.14 C 211.28 91.98 211.78 91.22 211.62 90.45 C 211.46 89.68 210.71 89.18 209.93 89.34 Z M 208.94 89.55 L 208.13 89.70 C 207.36 89.85 206.85 90.60 207.00 91.37 C 207.15 92.15 207.90 92.65 208.67 92.50 L 209.48 92.35 C 210.25 92.20 210.76 91.45 210.61 90.68 C 210.46 89.90 209.71 89.40 208.94 89.55 Z M 208.14 89.70 L 208.07 89.72 C 207.29 89.86 206.78 90.61 206.93 91.38 C 207.08 92.15 207.82 92.66 208.60 92.52 L 208.67 92.50 C 209.44 92.36 209.95 91.61 209.80 90.84 C 209.66 90.06 208.91 89.56 208.14 89.70 Z"
      fill="black"
      fill-rule="nonzero" /><path d="M 143.90 96.38 L 143.11 95.50 C 142.53 94.86 141.53 94.81 140.89 95.39 C 140.25 95.97 140.20 96.96 140.78 97.61 L 141.57 98.48 C 142.15 99.13 143.14 99.18 143.78 98.60 C 144.43 98.02 144.48 97.02 143.90 96.38 Z M 140.90 95.31 L 140.63 95.54 C 139.94 96.11 139.84 97.14 140.42 97.83 C 141.00 98.52 142.02 98.61 142.71 98.03 L 142.98 97.80 C 143.67 97.23 143.77 96.20 143.19 95.51 C 142.61 94.82 141.59 94.73 140.90 95.31 Z M 140.02 97.01 L 140.16 98.09 C 140.28 99.00 141.12 99.64 142.04 99.52 C 142.95 99.40 143.59 98.56 143.47 97.64 L 143.32 96.56 C 143.20 95.65 142.36 95.01 141.45 95.13 C 140.53 95.25 139.89 96.09 140.02 97.01 Z M 140.16 98.22 L 140.38 99.30 C 140.58 100.21 141.48 100.80 142.39 100.60 C 143.31 100.41 143.90 99.51 143.70 98.59 L 143.47 97.51 C 143.28 96.60 142.38 96.01 141.46 96.21 C 140.55 96.40 139.96 97.30 140.16 98.22 Z M 140.37 99.32 L 140.59 100.28 C 140.80 101.20 141.72 101.78 142.64 101.57 C 143.56 101.36 144.14 100.44 143.93 99.52 L 143.71 98.57 C 143.50 97.65 142.59 97.07 141.67 97.28 C 140.74 97.48 140.17 98.40 140.37 99.32 Z M 140.58 100.27 L 140.80 101.29 C 141.01 102.21 141.92 102.80 142.85 102.60 C 143.78 102.39 144.37 101.47 144.16 100.54 L 143.94 99.53 C 143.74 98.60 142.82 98.01 141.89 98.22 C 140.96 98.42 140.37 99.34 140.58 100.27 Z M 140.79 101.26 L 140.97 102.18 C 141.17 103.12 142.08 103.72 143.02 103.53 C 143.95 103.34 144.56 102.43 144.37 101.49 L 144.18 100.57 C 143.99 99.63 143.07 99.03 142.14 99.22 C 141.20 99.41 140.60 100.32 140.79 101.26 Z M 140.96 102.16 L 141.15 103.12 C 141.32 104.07 142.23 104.69 143.17 104.51 C 144.12 104.33 144.74 103.42 144.56 102.48 L 144.38 101.51 C 144.20 100.57 143.29 99.95 142.35 100.13 C 141.41 100.31 140.79 101.21 140.96 102.16 Z M 141.14 103.10 L 141.32 104.13 C 141.49 105.08 142.39 105.72 143.34 105.55 C 144.29 105.38 144.92 104.47 144.75 103.53 L 144.57 102.50 C 144.40 101.55 143.50 100.92 142.55 101.08 C 141.60 101.25 140.97 102.16 141.14 103.10 Z M 141.31 104.12 L 141.48 105.11 C 141.64 106.06 142.54 106.71 143.49 106.55 C 144.44 106.38 145.09 105.48 144.93 104.53 L 144.76 103.54 C 144.60 102.59 143.70 101.94 142.75 102.10 C 141.79 102.26 141.15 103.17 141.31 104.12 Z M 141.47 105.10 L 141.62 106.04 C 141.77 107.00 142.67 107.65 143.63 107.50 C 144.59 107.35 145.24 106.45 145.09 105.49 L 144.93 104.54 C 144.78 103.59 143.88 102.93 142.92 103.09 C 141.97 103.24 141.32 104.14 141.47 105.10 Z M 141.61 106.03 L 141.76 107.02 C 141.90 107.98 142.80 108.64 143.76 108.50 C 144.72 108.35 145.38 107.46 145.24 106.50 L 145.09 105.51 C 144.95 104.55 144.05 103.88 143.09 104.03 C 142.13 104.17 141.47 105.07 141.61 106.03 Z M 141.75 107.00 L 141.89 108.03 C 142.03 109.00 142.92 109.67 143.88 109.54 C 144.85 109.40 145.52 108.51 145.39 107.55 L 145.25 106.52 C 145.12 105.55 144.23 104.87 143.26 105.01 C 142.29 105.14 141.62 106.03 141.75 107.00 Z M 141.88 108.01 L 142.01 109.00 C 142.13 109.97 143.01 110.66 143.98 110.54 C 144.96 110.41 145.64 109.53 145.52 108.56 L 145.40 107.57 C 145.28 106.60 144.39 105.91 143.42 106.03 C 142.45 106.15 141.76 107.04 141.88 108.01 Z M 142.00 108.98 L 142.10 109.91 C 142.22 110.89 143.10 111.59 144.07 111.48 C 145.05 111.37 145.75 110.49 145.64 109.51 L 145.53 108.58 C 145.42 107.60 144.54 106.90 143.57 107.01 C 142.59 107.12 141.89 108.00 142.00 108.98 Z M 142.10 109.90 L 142.20 110.87 C 142.30 111.85 143.18 112.56 144.16 112.46 C 145.14 112.36 145.85 111.48 145.75 110.50 L 145.65 109.53 C 145.54 108.55 144.67 107.84 143.69 107.94 C 142.71 108.04 141.99 108.92 142.10 109.90 Z M 142.19 110.86 L 142.29 111.87 C 142.38 112.86 143.26 113.58 144.24 113.48 C 145.23 113.39 145.95 112.51 145.85 111.53 L 145.76 110.51 C 145.66 109.53 144.79 108.81 143.80 108.90 C 142.82 109.00 142.09 109.87 142.19 110.86 Z M 142.28 111.86 L 142.37 112.92 C 142.46 113.91 143.34 114.64 144.33 114.55 C 145.32 114.47 146.05 113.59 145.96 112.60 L 145.86 111.54 C 145.77 110.55 144.90 109.82 143.91 109.91 C 142.92 110.00 142.19 110.87 142.28 111.86 Z M 142.37 112.92 L 142.45 113.88 C 142.53 114.88 143.41 115.61 144.40 115.53 C 145.39 115.44 146.13 114.57 146.05 113.58 L 145.96 112.61 C 145.88 111.62 145.00 110.88 144.01 110.97 C 143.02 111.05 142.28 111.92 142.37 112.92 Z M 142.44 113.88 L 142.52 114.81 C 142.60 115.80 143.48 116.55 144.47 116.46 C 145.47 116.38 146.21 115.51 146.13 114.51 L 146.05 113.58 C 145.97 112.59 145.10 111.85 144.10 111.93 C 143.10 112.01 142.36 112.88 142.44 113.88 Z M 142.52 114.80 L 142.59 115.77 C 142.67 116.77 143.54 117.51 144.54 117.44 C 145.54 117.36 146.29 116.48 146.21 115.49 L 146.13 114.52 C 146.05 113.52 145.18 112.78 144.18 112.85 C 143.18 112.93 142.44 113.80 142.52 114.80 Z M 142.59 115.76 L 142.66 116.76 C 142.74 117.77 143.61 118.52 144.61 118.44 C 145.61 118.37 146.36 117.50 146.29 116.50 L 146.21 115.49 C 146.14 114.49 145.27 113.74 144.26 113.82 C 143.26 113.89 142.51 114.76 142.59 115.76 Z M 142.66 116.76 L 142.73 117.80 C 142.80 118.80 143.67 119.56 144.68 119.49 C 145.68 119.41 146.43 118.54 146.36 117.54 L 146.29 116.50 C 146.22 115.50 145.35 114.74 144.35 114.81 C 143.34 114.88 142.59 115.75 142.66 116.76 Z M 142.73 117.79 L 142.80 118.87 C 142.86 119.87 143.73 120.63 144.74 120.57 C 145.75 120.50 146.51 119.63 146.44 118.62 L 146.37 117.55 C 146.30 116.54 145.43 115.78 144.43 115.85 C 143.42 115.91 142.66 116.78 142.73 117.79 Z M 142.79 118.86 L 142.86 119.85 C 142.92 120.85 143.79 121.62 144.80 121.56 C 145.80 121.49 146.57 120.62 146.51 119.62 L 146.44 118.63 C 146.38 117.62 145.51 116.85 144.50 116.92 C 143.50 116.98 142.73 117.85 142.79 118.86 Z M 142.85 119.84 L 142.91 120.78 C 142.97 121.79 143.84 122.56 144.85 122.50 C 145.86 122.44 146.63 121.57 146.57 120.56 L 146.51 119.62 C 146.45 118.61 145.58 117.84 144.57 117.90 C 143.56 117.96 142.79 118.83 142.85 119.84 Z M 142.91 120.78 L 142.96 121.74 C 143.02 122.75 143.89 123.53 144.90 123.47 C 145.91 123.41 146.68 122.54 146.62 121.53 L 146.57 120.57 C 146.51 119.56 145.64 118.78 144.63 118.84 C 143.62 118.90 142.85 119.76 142.91 120.78 Z M 142.96 121.74 L 143.01 122.73 C 143.07 123.74 143.93 124.52 144.95 124.46 C 145.96 124.40 146.74 123.54 146.68 122.52 L 146.63 121.54 C 146.57 120.52 145.70 119.75 144.69 119.80 C 143.68 119.86 142.90 120.72 142.96 121.74 Z M 143.01 122.72 L 143.06 123.73 C 143.12 124.75 143.98 125.53 145.00 125.47 C 146.01 125.42 146.79 124.55 146.74 123.54 L 146.68 122.53 C 146.63 121.51 145.76 120.73 144.75 120.79 C 143.73 120.84 142.96 121.71 143.01 122.72 Z M 143.06 123.73 L 143.11 124.76 C 143.17 125.78 144.03 126.56 145.05 126.51 C 146.06 126.46 146.85 125.59 146.79 124.57 L 146.74 123.54 C 146.69 122.53 145.82 121.74 144.81 121.80 C 143.79 121.85 143.01 122.71 143.06 123.73 Z M 143.11 124.76 L 143.16 125.81 C 143.22 126.83 144.08 127.62 145.10 127.56 C 146.12 127.51 146.90 126.65 146.85 125.63 L 146.80 124.58 C 146.74 123.56 145.88 122.78 144.86 122.83 C 143.84 122.88 143.06 123.74 143.11 124.76 Z M 143.16 125.81 L 143.21 126.86 C 143.26 127.87 144.13 128.66 145.15 128.61 C 146.17 128.56 146.95 127.69 146.90 126.67 L 146.85 125.63 C 146.80 124.61 145.93 123.83 144.92 123.88 C 143.90 123.93 143.11 124.79 143.16 125.81 Z M 143.21 126.85 L 143.26 127.85 C 143.31 128.87 144.17 129.66 145.20 129.61 C 146.22 129.56 147.00 128.69 146.95 127.67 L 146.91 126.68 C 146.86 125.66 145.99 124.87 144.97 124.92 C 143.95 124.97 143.16 125.83 143.21 126.85 Z M 143.26 127.85 L 143.30 128.86 C 143.35 129.88 144.22 130.67 145.24 130.62 C 146.26 130.57 147.05 129.70 147.00 128.68 L 146.96 127.67 C 146.91 126.65 146.04 125.86 145.02 125.91 C 144.00 125.96 143.21 126.83 143.26 127.85 Z M 143.30 128.86 L 143.35 129.87 C 143.40 130.89 144.26 131.68 145.29 131.63 C 146.31 131.59 147.10 130.72 147.05 129.70 L 147.01 128.68 C 146.96 127.66 146.09 126.87 145.07 126.92 C 144.04 126.97 143.25 127.83 143.30 128.86 Z M 143.35 129.87 L 143.39 130.88 C 143.44 131.90 144.31 132.70 145.33 132.65 C 146.36 132.60 147.15 131.73 147.10 130.71 L 147.06 129.70 C 147.01 128.67 146.14 127.88 145.12 127.93 C 144.09 127.97 143.30 128.84 143.35 129.87 Z M 143.39 130.88 L 143.43 131.88 C 143.48 132.91 144.35 133.70 145.37 133.66 C 146.40 133.61 147.19 132.74 147.15 131.72 L 147.10 130.71 C 147.06 129.69 146.19 128.89 145.16 128.94 C 144.14 128.98 143.34 129.85 143.39 130.88 Z M 143.43 131.88 L 143.48 132.88 C 143.52 133.91 144.39 134.70 145.42 134.66 C 146.44 134.61 147.24 133.75 147.19 132.72 L 147.15 131.72 C 147.11 130.69 146.24 129.90 145.21 129.94 C 144.18 129.99 143.39 130.86 143.43 131.88 Z M 143.47 132.88 L 143.51 133.86 C 143.56 134.89 144.43 135.69 145.45 135.64 C 146.48 135.60 147.28 134.73 147.24 133.70 L 147.20 132.72 C 147.15 131.69 146.28 130.89 145.26 130.94 C 144.23 130.98 143.43 131.85 143.47 132.88 Z M 143.51 133.86 L 143.55 134.86 C 143.59 135.89 144.46 136.69 145.49 136.65 C 146.52 136.60 147.32 135.73 147.28 134.71 L 147.24 133.71 C 147.20 132.68 146.33 131.88 145.30 131.92 C 144.27 131.96 143.47 132.83 143.51 133.86 Z M 143.55 134.85 L 143.59 135.89 C 143.63 136.92 144.50 137.73 145.53 137.69 C 146.56 137.65 147.36 136.78 147.32 135.75 L 147.28 134.71 C 147.24 133.68 146.37 132.87 145.34 132.91 C 144.31 132.96 143.51 133.82 143.55 134.85 Z M 143.59 135.89 L 143.63 136.91 C 143.67 137.94 144.53 138.75 145.57 138.71 C 146.60 138.67 147.40 137.80 147.36 136.77 L 147.33 135.75 C 147.29 134.72 146.42 133.91 145.39 133.95 C 144.36 133.99 143.55 134.86 143.59 135.89 Z M 143.63 136.91 L 143.66 137.91 C 143.70 138.94 144.57 139.75 145.60 139.71 C 146.63 139.67 147.44 138.80 147.40 137.77 L 147.37 136.77 C 147.33 135.74 146.46 134.93 145.43 134.97 C 144.39 135.00 143.59 135.87 143.63 136.91 Z M 143.66 137.90 L 143.69 138.89 C 143.73 139.93 144.60 140.73 145.63 140.70 C 146.67 140.66 147.48 139.79 147.44 138.76 L 147.41 137.77 C 147.37 136.74 146.50 135.93 145.47 135.96 C 144.43 136.00 143.62 136.87 143.66 137.90 Z M 143.69 138.89 L 143.73 139.87 C 143.76 140.90 144.63 141.71 145.67 141.68 C 146.70 141.64 147.51 140.77 147.48 139.74 L 147.44 138.76 C 147.41 137.72 146.54 136.91 145.50 136.95 C 144.47 136.99 143.66 137.85 143.69 138.89 Z M 143.72 139.87 L 143.76 140.84 C 143.79 141.88 144.66 142.69 145.70 142.66 C 146.74 142.62 147.55 141.75 147.51 140.71 L 147.48 139.74 C 147.44 138.70 146.57 137.89 145.54 137.93 C 144.50 137.96 143.69 138.83 143.72 139.87 Z M 143.76 140.84 L 143.79 141.82 C 143.82 142.85 144.69 143.67 145.73 143.63 C 146.77 143.60 147.58 142.73 147.55 141.69 L 147.51 140.71 C 147.48 139.68 146.61 138.86 145.57 138.90 C 144.53 138.93 143.72 139.80 143.76 140.84 Z M 143.79 141.82 L 143.82 142.80 C 143.85 143.84 144.72 144.65 145.76 144.62 C 146.80 144.58 147.62 143.71 147.58 142.67 L 147.55 141.69 C 147.51 140.65 146.64 139.84 145.60 139.87 C 144.57 139.91 143.75 140.78 143.79 141.82 Z M 143.82 142.80 L 143.85 143.79 C 143.88 144.83 144.76 145.64 145.80 145.61 C 146.84 145.57 147.65 144.70 147.62 143.66 L 147.58 142.67 C 147.55 141.63 146.68 140.82 145.64 140.85 C 144.60 140.89 143.78 141.76 143.82 142.80 Z M 143.85 143.79 L 143.88 144.78 C 143.91 145.82 144.78 146.64 145.83 146.60 C 146.87 146.57 147.68 145.70 147.65 144.66 L 147.62 143.66 C 147.59 142.62 146.71 141.81 145.67 141.84 C 144.63 141.87 143.81 142.74 143.85 143.79 Z M 143.88 144.78 L 143.91 145.78 C 143.94 146.82 144.81 147.64 145.86 147.60 C 146.90 147.57 147.72 146.70 147.68 145.66 L 147.65 144.66 C 147.62 143.62 146.75 142.80 145.71 142.83 C 144.66 142.86 143.85 143.73 143.88 144.78 Z M 143.91 145.77 L 143.94 146.78 C 143.97 147.82 144.84 148.64 145.88 148.61 C 146.93 148.58 147.75 147.71 147.72 146.66 L 147.69 145.66 C 147.66 144.62 146.78 143.80 145.74 143.83 C 144.70 143.86 143.88 144.73 143.91 145.77 Z M 143.94 146.78 L 143.96 147.79 C 143.99 148.83 144.87 149.66 145.91 149.63 C 146.96 149.60 147.78 148.72 147.75 147.68 L 147.72 146.67 C 147.69 145.62 146.82 144.80 145.77 144.83 C 144.73 144.86 143.91 145.73 143.94 146.78 Z M 143.96 147.78 L 143.99 148.80 C 144.02 149.85 144.89 150.67 145.94 150.65 C 146.98 150.62 147.81 149.75 147.78 148.70 L 147.75 147.68 C 147.72 146.64 146.85 145.81 145.80 145.84 C 144.76 145.87 143.93 146.74 143.96 147.78 Z M 143.99 148.80 L 144.01 149.80 C 144.04 150.84 144.91 151.67 145.96 151.64 C 147.00 151.62 147.83 150.75 147.81 149.70 L 147.78 148.70 C 147.75 147.66 146.88 146.83 145.84 146.86 C 144.79 146.88 143.96 147.75 143.99 148.80 Z M 144.01 149.79 L 144.04 150.79 C 144.06 151.84 144.93 152.67 145.98 152.64 C 147.03 152.62 147.86 151.75 147.83 150.70 L 147.81 149.70 C 147.78 148.65 146.91 147.83 145.86 147.85 C 144.82 147.88 143.99 148.74 144.01 149.79 Z M 144.03 150.79 L 144.06 151.79 C 144.08 152.84 144.95 153.67 146.00 153.65 C 147.05 153.62 147.88 152.75 147.85 151.71 L 147.83 150.70 C 147.81 149.66 146.94 148.82 145.89 148.85 C 144.84 148.87 144.01 149.74 144.03 150.79 Z M 144.06 151.79 L 144.08 152.79 C 144.10 153.84 144.97 154.68 146.02 154.65 C 147.07 154.63 147.90 153.76 147.88 152.71 L 147.86 151.71 C 147.83 150.66 146.96 149.83 145.91 149.85 C 144.87 149.87 144.03 150.74 144.06 151.79 Z M 144.08 152.79 L 144.10 153.80 C 144.12 154.85 144.99 155.68 146.04 155.66 C 147.09 155.64 147.92 154.77 147.90 153.72 L 147.88 152.71 C 147.86 151.66 146.99 150.83 145.94 150.85 C 144.89 150.87 144.05 151.74 144.08 152.79 Z M 144.10 153.80 L 144.12 154.80 C 144.14 155.85 145.01 156.68 146.06 156.66 C 147.11 156.64 147.94 155.77 147.92 154.72 L 147.90 153.72 C 147.88 152.67 147.01 151.83 145.96 151.85 C 144.91 151.88 144.07 152.74 144.10 153.80 Z M 144.12 154.80 L 144.14 155.79 C 144.16 156.84 145.03 157.68 146.08 157.66 C 147.13 157.64 147.96 156.77 147.94 155.72 L 147.92 154.72 C 147.90 153.67 147.03 152.83 145.98 152.85 C 144.93 152.88 144.09 153.74 144.12 154.80 Z M 144.13 155.79 L 144.15 156.81 C 144.18 157.86 145.05 158.70 146.10 158.68 C 147.15 158.65 147.98 157.78 147.96 156.73 L 147.94 155.72 C 147.92 154.66 147.05 153.83 146.00 153.85 C 144.95 153.87 144.11 154.74 144.13 155.79 Z M 144.15 156.81 L 144.17 157.84 C 144.20 158.89 145.07 159.73 146.12 159.71 C 147.17 159.69 148.01 158.82 147.99 157.76 L 147.97 156.73 C 147.94 155.68 147.07 154.84 146.02 154.87 C 144.97 154.89 144.13 155.76 144.15 156.81 Z M 144.17 157.84 L 144.19 158.86 C 144.21 159.91 145.09 160.75 146.14 160.73 C 147.19 160.71 148.03 159.84 148.01 158.78 L 147.99 157.76 C 147.97 156.71 147.09 155.87 146.04 155.89 C 144.99 155.92 144.15 156.79 144.17 157.84 Z M 144.19 158.86 L 144.21 159.87 C 144.23 160.93 145.10 161.76 146.16 161.74 C 147.21 161.72 148.05 160.85 148.03 159.79 L 148.01 158.79 C 147.99 157.73 147.12 156.89 146.06 156.91 C 145.01 156.94 144.17 157.81 144.19 158.86 Z M 144.21 159.87 L 144.23 160.87 C 144.25 161.92 145.12 162.76 146.18 162.74 C 147.23 162.72 148.07 161.85 148.05 160.79 L 148.03 159.80 C 148.01 158.74 147.14 157.90 146.08 157.92 C 145.03 157.94 144.19 158.81 144.21 159.87 Z M 144.23 160.87 L 144.25 161.85 C 144.27 162.90 145.14 163.74 146.20 163.72 C 147.25 163.70 148.09 162.83 148.07 161.77 L 148.05 160.79 C 148.03 159.74 147.16 158.90 146.10 158.92 C 145.05 158.94 144.21 159.81 144.23 160.87 Z M 144.25 161.85 L 144.26 162.81 C 144.28 163.87 145.16 164.71 146.21 164.69 C 147.27 164.67 148.11 163.80 148.09 162.74 L 148.07 161.78 C 148.05 160.72 147.18 159.88 146.12 159.90 C 145.07 159.92 144.23 160.79 144.25 161.85 Z M 144.26 162.81 L 144.28 163.79 C 144.30 164.85 145.17 165.69 146.23 165.68 C 147.29 165.66 148.13 164.78 148.11 163.73 L 148.09 162.74 C 148.07 161.68 147.20 160.84 146.14 160.86 C 145.09 160.88 144.24 161.75 144.26 162.81 Z M 144.28 163.79 L 144.29 164.80 C 144.31 165.86 145.18 166.70 146.24 166.69 C 147.30 166.67 148.14 165.80 148.13 164.74 L 148.11 163.73 C 148.09 162.67 147.22 161.83 146.16 161.84 C 145.10 161.86 144.26 162.73 144.28 163.79 Z M 144.29 164.80 L 144.31 165.80 C 144.33 166.85 145.20 167.70 146.26 167.68 C 147.31 167.67 148.16 166.80 148.14 165.74 L 148.13 164.74 C 148.11 163.68 147.24 162.84 146.18 162.85 C 145.12 162.87 144.28 163.74 144.29 164.80 Z M 144.31 165.79 L 144.32 166.78 C 144.34 167.84 145.21 168.69 146.27 168.68 C 147.33 168.66 148.17 167.79 148.16 166.73 L 148.14 165.74 C 148.13 164.68 147.26 163.83 146.20 163.85 C 145.14 163.86 144.29 164.73 144.31 165.79 Z M 144.32 166.78 L 144.33 167.77 C 144.35 168.83 145.21 169.68 146.27 169.67 C 147.33 169.65 148.18 168.78 148.17 167.72 L 148.16 166.73 C 148.15 165.67 147.28 164.82 146.22 164.84 C 145.16 164.85 144.31 165.72 144.32 166.78 Z M 144.33 167.77 L 144.34 168.76 C 144.35 169.82 145.22 170.67 146.28 170.66 C 147.34 170.65 148.19 169.78 148.18 168.72 L 148.17 167.73 C 148.16 166.67 147.29 165.82 146.23 165.83 C 145.17 165.84 144.32 166.70 144.33 167.77 Z M 144.34 168.76 L 144.35 169.76 C 144.36 170.82 145.22 171.68 146.28 171.67 C 147.35 171.66 148.20 170.79 148.19 169.73 L 148.18 168.73 C 148.17 167.66 147.31 166.81 146.25 166.82 C 145.19 166.83 144.33 167.70 144.34 168.76 Z M 144.35 169.76 L 144.35 170.75 C 144.36 171.81 145.23 172.67 146.29 172.66 C 147.35 172.65 148.20 171.79 148.20 170.73 L 148.19 169.74 C 148.19 168.68 147.32 167.82 146.26 167.83 C 145.20 167.83 144.34 168.70 144.35 169.76 Z M 144.35 170.75 L 144.36 171.74 C 144.36 172.81 145.23 173.66 146.29 173.66 C 147.35 173.65 148.21 172.79 148.20 171.73 L 148.20 170.73 C 148.19 169.67 147.33 168.81 146.27 168.82 C 145.21 168.82 144.35 169.68 144.35 170.75 Z M 144.36 171.74 L 144.36 172.75 C 144.36 173.81 145.23 174.67 146.29 174.67 C 147.35 174.66 148.21 173.80 148.20 172.74 L 148.20 171.73 C 148.20 170.67 147.34 169.81 146.27 169.81 C 145.21 169.82 144.35 170.68 144.36 171.74 Z M 144.36 172.75 L 144.36 173.76 C 144.36 174.82 145.23 175.68 146.29 175.68 C 147.35 175.67 148.21 174.81 148.21 173.75 L 148.20 172.74 C 148.20 171.68 147.34 170.82 146.28 170.82 C 145.22 170.82 144.36 171.69 144.36 172.75 Z M 144.36 173.75 L 144.36 174.76 C 144.36 175.82 145.22 176.68 146.29 176.68 C 147.35 176.68 148.21 175.82 148.21 174.76 L 148.21 173.75 C 148.21 172.69 147.34 171.83 146.28 171.83 C 145.22 171.83 144.36 172.69 144.36 173.75 Z M 144.36 174.76 L 144.36 175.76 C 144.36 176.82 145.22 177.68 146.29 177.68 C 147.35 177.68 148.21 176.82 148.21 175.76 L 148.21 174.76 C 148.21 173.70 147.35 172.84 146.28 172.84 C 145.22 172.84 144.36 173.70 144.36 174.76 Z M 144.36 175.76 L 144.36 176.76 C 144.36 177.82 145.22 178.68 146.29 178.68 C 147.35 178.68 148.21 177.82 148.21 176.76 L 148.21 175.76 C 148.21 174.70 147.35 173.84 146.28 173.84 C 145.22 173.84 144.36 174.70 144.36 175.76 Z M 144.36 176.76 L 144.36 177.79 C 144.36 178.85 145.22 179.71 146.28 179.71 C 147.35 179.71 148.21 178.85 148.21 177.79 L 148.21 176.76 C 148.21 175.69 147.35 174.83 146.28 174.83 C 145.22 174.83 144.36 175.69 144.36 176.76 Z M 144.36 177.79 L 144.36 178.80 C 144.36 179.86 145.22 180.72 146.28 180.72 C 147.35 180.72 148.21 179.86 148.21 178.80 L 148.21 177.79 C 148.21 176.73 147.35 175.87 146.28 175.87 C 145.22 175.87 144.36 176.73 144.36 177.79 Z M 144.36 178.80 L 144.36 179.80 C 144.36 180.86 145.22 181.72 146.28 181.72 C 147.35 181.72 148.21 180.86 148.21 179.80 L 148.21 178.80 C 148.21 177.74 147.35 176.88 146.28 176.88 C 145.22 176.88 144.36 177.74 144.36 178.80 Z M 144.36 179.80 L 144.36 180.79 C 144.36 181.86 145.22 182.72 146.28 182.72 C 147.35 182.72 148.21 181.86 148.21 180.79 L 148.21 179.80 C 148.21 178.74 147.35 177.88 146.28 177.88 C 145.22 177.88 144.36 178.74 144.36 179.80 Z M 144.36 180.79 L 144.36 181.78 C 144.36 182.84 145.22 183.70 146.28 183.70 C 147.35 183.70 148.21 182.84 148.21 181.78 L 148.21 180.79 C 148.21 179.73 147.35 178.87 146.28 178.87 C 145.22 178.87 144.36 179.73 144.36 180.79 Z M 144.37 181.78 L 144.37 182.75 C 144.37 183.81 145.22 184.67 146.28 184.67 C 147.35 184.67 148.20 183.81 148.20 182.75 L 148.20 181.78 C 148.20 180.72 147.35 179.86 146.28 179.86 C 145.22 179.86 144.37 180.72 144.37 181.78 Z M 144.37 182.75 L 144.37 183.76 C 144.37 184.82 145.23 185.68 146.28 185.68 C 147.34 185.68 148.20 184.82 148.20 183.76 L 148.20 182.75 C 148.20 181.69 147.34 180.84 146.29 180.84 C 145.23 180.84 144.37 181.69 144.37 182.75 Z M 144.37 183.76 L 144.37 184.77 C 144.37 185.83 145.22 186.69 146.28 186.69 C 147.34 186.69 148.20 185.84 148.20 184.78 L 148.20 183.76 C 148.20 182.70 147.35 181.85 146.29 181.85 C 145.23 181.84 144.37 182.70 144.37 183.76 Z M 144.37 184.77 L 144.37 185.78 C 144.36 186.84 145.22 187.70 146.28 187.70 C 147.34 187.70 148.20 186.85 148.20 185.79 L 148.20 184.78 C 148.20 183.72 147.35 182.86 146.29 182.86 C 145.23 182.86 144.37 183.71 144.37 184.77 Z M 144.37 185.78 L 144.36 186.78 C 144.36 187.83 145.21 188.69 146.27 188.70 C 147.33 188.70 148.19 187.85 148.19 186.79 L 148.20 185.79 C 148.20 184.73 147.35 183.87 146.29 183.87 C 145.23 183.86 144.37 184.72 144.37 185.78 Z M 144.36 186.77 L 144.36 187.76 C 144.35 188.82 145.20 189.68 146.26 189.69 C 147.32 189.70 148.18 188.84 148.19 187.79 L 148.19 186.80 C 148.20 185.74 147.35 184.88 146.29 184.87 C 145.23 184.86 144.37 185.71 144.36 186.77 Z M 144.36 187.75 L 144.35 188.74 C 144.34 189.79 145.18 190.66 146.24 190.67 C 147.30 190.68 148.16 189.83 148.17 188.78 L 148.18 187.79 C 148.20 186.74 147.35 185.87 146.29 185.86 C 145.23 185.85 144.37 186.70 144.36 187.75 Z M 144.35 188.73 L 144.33 189.72 C 144.32 190.78 145.16 191.65 146.22 191.66 C 147.27 191.68 148.14 190.84 148.16 189.78 L 148.17 188.78 C 148.19 187.73 147.35 186.86 146.29 186.84 C 145.23 186.83 144.37 187.67 144.35 188.73 Z M 144.34 189.71 L 144.32 190.71 C 144.30 191.76 145.13 192.64 146.19 192.66 C 147.24 192.68 148.12 191.84 148.14 190.79 L 148.16 189.79 C 148.18 188.73 147.34 187.86 146.28 187.84 C 145.23 187.82 144.36 188.66 144.34 189.71 Z M 144.32 190.70 L 144.29 191.69 C 144.27 192.74 145.10 193.62 146.15 193.65 C 147.21 193.67 148.08 192.84 148.11 191.79 L 148.13 190.80 C 148.16 189.74 147.33 188.87 146.27 188.84 C 145.22 188.81 144.35 189.65 144.32 190.70 Z M 144.30 191.68 L 144.27 192.67 C 144.23 193.73 145.06 194.61 146.11 194.64 C 147.17 194.67 148.04 193.84 148.08 192.79 L 148.11 191.80 C 148.14 190.74 147.31 189.87 146.26 189.83 C 145.21 189.80 144.33 190.63 144.30 191.68 Z M 144.27 192.66 L 144.23 193.66 C 144.19 194.71 145.01 195.60 146.07 195.64 C 147.12 195.67 148.00 194.85 148.04 193.80 L 148.07 192.80 C 148.11 191.75 147.29 190.87 146.24 190.83 C 145.19 190.79 144.31 191.61 144.27 192.66 Z M 144.23 193.65 L 144.19 194.66 C 144.15 195.71 144.96 196.60 146.01 196.64 C 147.06 196.69 147.95 195.87 147.99 194.82 L 148.04 193.81 C 148.08 192.76 147.26 191.87 146.21 191.83 C 145.16 191.79 144.28 192.60 144.23 193.65 Z M 144.19 194.65 L 144.15 195.62 C 144.10 196.67 144.91 197.56 145.96 197.61 C 147.01 197.66 147.90 196.85 147.95 195.80 L 147.99 194.83 C 148.04 193.78 147.23 192.89 146.18 192.84 C 145.13 192.79 144.24 193.60 144.19 194.65 Z M 144.15 195.61 L 144.10 196.58 C 144.05 197.63 144.85 198.52 145.90 198.57 C 146.95 198.63 147.84 197.82 147.89 196.77 L 147.94 195.81 C 148.00 194.76 147.19 193.87 146.14 193.81 C 145.10 193.76 144.20 194.56 144.15 195.61 Z M 144.10 196.57 L 144.05 197.56 C 143.99 198.60 144.79 199.50 145.84 199.55 C 146.88 199.61 147.78 198.81 147.84 197.77 L 147.89 196.78 C 147.95 195.74 147.15 194.84 146.10 194.78 C 145.06 194.72 144.16 195.53 144.10 196.57 Z M 144.05 197.55 L 143.99 198.55 C 143.93 199.60 144.73 200.49 145.77 200.55 C 146.82 200.61 147.71 199.82 147.77 198.77 L 147.83 197.77 C 147.89 196.73 147.10 195.83 146.05 195.77 C 145.01 195.71 144.11 196.51 144.05 197.55 Z M 144.00 198.55 L 143.93 199.56 C 143.87 200.61 144.66 201.50 145.71 201.57 C 146.75 201.63 147.65 200.84 147.71 199.79 L 147.77 198.78 C 147.84 197.73 147.04 196.84 146.00 196.77 C 144.96 196.71 144.06 197.50 144.00 198.55 Z M 143.94 199.56 L 143.87 200.60 C 143.81 201.64 144.60 202.53 145.64 202.60 C 146.68 202.66 147.58 201.87 147.64 200.83 L 147.71 199.80 C 147.77 198.75 146.98 197.86 145.94 197.79 C 144.90 197.73 144.00 198.52 143.94 199.56 Z M 143.87 200.59 L 143.81 201.60 C 143.75 202.64 144.54 203.53 145.58 203.60 C 146.62 203.67 147.51 202.88 147.58 201.84 L 147.64 200.83 C 147.71 199.79 146.92 198.90 145.88 198.83 C 144.84 198.76 143.94 199.55 143.87 200.59 Z M 143.81 201.60 L 143.75 202.57 C 143.69 203.61 144.47 204.50 145.51 204.57 C 146.55 204.64 147.45 203.85 147.51 202.81 L 147.57 201.84 C 147.64 200.80 146.85 199.90 145.81 199.84 C 144.78 199.77 143.88 200.56 143.81 201.60 Z M 143.75 202.57 L 143.69 203.55 C 143.62 204.59 144.41 205.48 145.45 205.55 C 146.48 205.62 147.38 204.83 147.45 203.80 L 147.51 202.81 C 147.58 201.77 146.79 200.88 145.75 200.81 C 144.72 200.75 143.82 201.53 143.75 202.57 Z M 143.69 203.55 L 143.63 204.55 C 143.56 205.58 144.35 206.48 145.38 206.54 C 146.41 206.61 147.31 205.83 147.38 204.79 L 147.44 203.80 C 147.51 202.76 146.73 201.87 145.69 201.80 C 144.66 201.73 143.76 202.52 143.69 203.55 Z M 143.63 204.55 L 143.57 205.55 C 143.50 206.58 144.28 207.48 145.31 207.55 C 146.34 207.61 147.24 206.83 147.31 205.80 L 147.37 204.79 C 147.44 203.76 146.66 202.87 145.63 202.80 C 144.59 202.73 143.70 203.51 143.63 204.55 Z M 143.57 205.55 L 143.50 206.56 C 143.43 207.59 144.21 208.49 145.24 208.56 C 146.27 208.63 147.17 207.85 147.24 206.82 L 147.30 205.80 C 147.37 204.77 146.59 203.88 145.56 203.81 C 144.53 203.74 143.64 204.52 143.57 205.55 Z M 143.50 206.56 L 143.43 207.58 C 143.36 208.61 144.14 209.50 145.17 209.57 C 146.20 209.64 147.09 208.87 147.16 207.84 L 147.23 206.82 C 147.30 205.79 146.53 204.90 145.50 204.82 C 144.47 204.75 143.57 205.53 143.50 206.56 Z M 143.44 207.58 L 143.37 208.61 C 143.29 209.64 144.07 210.53 145.10 210.60 C 146.12 210.67 147.02 209.90 147.09 208.87 L 147.16 207.84 C 147.23 206.81 146.46 205.92 145.43 205.85 C 144.40 205.78 143.51 206.55 143.44 207.58 Z M 143.37 208.61 L 143.30 209.65 C 143.22 210.67 144.00 211.56 145.02 211.64 C 146.05 211.71 146.94 210.94 147.01 209.91 L 147.08 208.87 C 147.16 207.85 146.38 206.96 145.36 206.89 C 144.33 206.81 143.44 207.58 143.37 208.61 Z M 143.30 209.65 L 143.23 210.68 C 143.15 211.70 143.92 212.59 144.94 212.66 C 145.97 212.74 146.86 211.97 146.93 210.94 L 147.00 209.91 C 147.08 208.89 146.31 208.00 145.29 207.93 C 144.26 207.85 143.37 208.62 143.30 209.65 Z M 143.23 210.67 L 143.16 211.69 C 143.08 212.71 143.85 213.60 144.87 213.68 C 145.89 213.75 146.78 212.99 146.85 211.96 L 146.93 210.95 C 147.00 209.93 146.23 209.04 145.21 208.96 C 144.19 208.89 143.31 209.65 143.23 210.67 Z M 143.16 211.69 L 143.09 212.69 C 143.01 213.71 143.77 214.59 144.79 214.67 C 145.81 214.75 146.69 213.98 146.77 212.97 L 146.85 211.97 C 146.92 210.95 146.16 210.06 145.14 209.99 C 144.12 209.91 143.24 210.67 143.16 211.69 Z M 143.09 212.69 L 143.02 213.65 C 142.94 214.67 143.70 215.56 144.71 215.64 C 145.73 215.71 146.61 214.95 146.69 213.94 L 146.77 212.97 C 146.85 211.95 146.09 211.07 145.07 210.99 C 144.05 210.91 143.17 211.67 143.09 212.69 Z M 143.02 213.65 L 142.95 214.59 C 142.87 215.60 143.62 216.49 144.63 216.57 C 145.65 216.65 146.53 215.89 146.61 214.88 L 146.69 213.94 C 146.77 212.93 146.01 212.04 145.00 211.96 C 143.99 211.88 143.10 212.64 143.02 213.65 Z M 142.95 214.58 L 142.87 215.61 C 142.78 216.62 143.54 217.50 144.55 217.59 C 145.56 217.67 146.44 216.92 146.52 215.91 L 146.61 214.88 C 146.69 213.87 145.94 212.99 144.93 212.90 C 143.92 212.82 143.03 213.57 142.95 214.58 Z M 142.87 215.60 L 142.78 216.64 C 142.70 217.64 143.45 218.53 144.45 218.62 C 145.46 218.70 146.35 217.95 146.43 216.95 L 146.52 215.91 C 146.61 214.90 145.86 214.02 144.85 213.93 C 143.84 213.85 142.96 214.59 142.87 215.60 Z M 142.79 216.63 L 142.70 217.63 C 142.61 218.63 143.36 219.52 144.36 219.61 C 145.37 219.69 146.25 218.95 146.34 217.94 L 146.43 216.95 C 146.52 215.95 145.77 215.06 144.77 214.97 C 143.76 214.88 142.88 215.63 142.79 216.63 Z M 142.71 217.62 L 142.62 218.59 C 142.53 219.59 143.27 220.48 144.27 220.57 C 145.27 220.66 146.16 219.92 146.25 218.92 L 146.34 217.95 C 146.43 216.95 145.69 216.06 144.68 215.97 C 143.68 215.88 142.80 216.62 142.71 217.62 Z M 142.62 218.59 L 142.54 219.55 C 142.45 220.55 143.18 221.43 144.18 221.52 C 145.18 221.62 146.07 220.88 146.16 219.88 L 146.24 218.92 C 146.34 217.92 145.60 217.04 144.60 216.94 C 143.60 216.85 142.71 217.59 142.62 218.59 Z M 142.54 219.55 L 142.45 220.51 C 142.36 221.51 143.09 222.39 144.09 222.48 C 145.09 222.58 145.97 221.84 146.06 220.84 L 146.15 219.88 C 146.24 218.88 145.51 218.00 144.51 217.91 C 143.52 217.82 142.63 218.55 142.54 219.55 Z M 142.46 220.51 L 142.37 221.47 C 142.28 222.47 143.01 223.35 144.00 223.44 C 145.00 223.53 145.88 222.80 145.97 221.80 L 146.06 220.84 C 146.15 219.85 145.42 218.97 144.42 218.88 C 143.43 218.79 142.55 219.52 142.46 220.51 Z M 142.37 221.47 L 142.28 222.45 C 142.19 223.44 142.92 224.32 143.92 224.41 C 144.91 224.50 145.79 223.77 145.88 222.78 L 145.97 221.80 C 146.06 220.81 145.33 219.93 144.33 219.84 C 143.34 219.75 142.46 220.48 142.37 221.47 Z M 142.29 222.46 L 142.20 223.45 C 142.11 224.44 142.84 225.31 143.83 225.40 C 144.82 225.49 145.69 224.76 145.78 223.77 L 145.87 222.78 C 145.96 221.79 145.23 220.92 144.24 220.83 C 143.25 220.74 142.38 221.47 142.29 222.46 Z M 142.21 223.45 L 142.12 224.46 C 142.03 225.45 142.76 226.31 143.74 226.40 C 144.73 226.49 145.60 225.76 145.69 224.78 L 145.78 223.77 C 145.86 222.78 145.13 221.91 144.15 221.83 C 143.16 221.74 142.29 222.47 142.21 223.45 Z M 142.12 224.46 L 142.03 225.48 C 141.95 226.47 142.68 227.33 143.66 227.42 C 144.64 227.50 145.51 226.77 145.59 225.79 L 145.68 224.77 C 145.77 223.79 145.04 222.92 144.06 222.84 C 143.07 222.75 142.21 223.48 142.12 224.46 Z M 142.04 225.49 L 141.95 226.51 C 141.87 227.49 142.60 228.35 143.58 228.43 C 144.56 228.51 145.42 227.79 145.50 226.81 L 145.59 225.79 C 145.67 224.81 144.94 223.95 143.96 223.86 C 142.98 223.78 142.12 224.51 142.04 225.49 Z M 141.96 226.51 L 141.88 227.51 C 141.80 228.49 142.52 229.35 143.50 229.43 C 144.48 229.51 145.33 228.78 145.41 227.80 L 145.50 226.80 C 145.58 225.82 144.85 224.97 143.87 224.89 C 142.89 224.81 142.04 225.54 141.96 226.51 Z M 141.88 227.52 L 141.80 228.52 C 141.72 229.50 142.45 230.35 143.42 230.43 C 144.40 230.51 145.25 229.78 145.33 228.81 L 145.41 227.80 C 145.49 226.83 144.76 225.97 143.79 225.90 C 142.81 225.82 141.96 226.54 141.88 227.52 Z M 141.81 228.52 L 141.72 229.53 C 141.65 230.50 142.37 231.35 143.34 231.43 C 144.31 231.51 145.17 230.78 145.24 229.81 L 145.32 228.81 C 145.40 227.83 144.68 226.98 143.71 226.91 C 142.73 226.83 141.88 227.55 141.81 228.52 Z M 141.73 229.53 L 141.65 230.52 C 141.57 231.49 142.29 232.34 143.26 232.42 C 144.23 232.50 145.08 231.78 145.16 230.81 L 145.24 229.81 C 145.32 228.84 144.59 227.99 143.63 227.91 C 142.66 227.84 141.81 228.56 141.73 229.53 Z M 141.65 230.52 L 141.57 231.51 C 141.49 232.47 142.21 233.32 143.18 233.40 C 144.14 233.48 144.99 232.76 145.07 231.80 L 145.15 230.81 C 145.23 229.85 144.51 229.00 143.55 228.92 C 142.58 228.84 141.73 229.55 141.65 230.52 Z M 141.58 231.50 L 141.49 232.51 C 141.41 233.47 142.12 234.32 143.08 234.40 C 144.05 234.48 144.89 233.77 144.98 232.81 L 145.06 231.80 C 145.15 230.84 144.43 229.99 143.47 229.91 C 142.51 229.83 141.66 230.54 141.58 231.50 Z M 141.50 232.50 L 141.40 233.55 C 141.32 234.51 142.02 235.35 142.98 235.44 C 143.94 235.53 144.79 234.82 144.87 233.86 L 144.97 232.82 C 145.06 231.86 144.35 231.01 143.39 230.92 C 142.43 230.84 141.58 231.54 141.50 232.50 Z M 141.41 233.54 L 141.31 234.56 C 141.22 235.52 141.92 236.37 142.87 236.46 C 143.83 236.55 144.68 235.85 144.77 234.89 L 144.87 233.87 C 144.96 232.92 144.26 232.07 143.30 231.98 C 142.35 231.89 141.50 232.59 141.41 233.54 Z M 141.32 234.55 L 141.22 235.55 C 141.12 236.50 141.81 237.35 142.77 237.44 C 143.72 237.54 144.56 236.85 144.66 235.90 L 144.76 234.90 C 144.86 233.95 144.16 233.10 143.21 233.01 C 142.26 232.91 141.42 233.60 141.32 234.55 Z M 141.23 235.54 L 141.12 236.50 C 141.02 237.45 141.71 238.30 142.65 238.40 C 143.60 238.50 144.45 237.82 144.55 236.87 L 144.65 235.91 C 144.75 234.96 144.07 234.11 143.12 234.01 C 142.18 233.91 141.33 234.59 141.23 235.54 Z M 141.13 236.49 L 141.03 237.42 C 140.92 238.37 141.60 239.22 142.54 239.32 C 143.48 239.43 144.33 238.75 144.44 237.81 L 144.54 236.88 C 144.65 235.94 143.97 235.09 143.03 234.98 C 142.09 234.87 141.24 235.55 141.13 236.49 Z M 141.03 237.41 L 140.91 238.46 C 140.79 239.39 141.46 240.25 142.40 240.36 C 143.34 240.47 144.19 239.80 144.30 238.87 L 144.43 237.82 C 144.54 236.88 143.87 236.03 142.94 235.92 C 142.00 235.81 141.15 236.47 141.03 237.41 Z M 140.91 238.45 L 140.78 239.46 C 140.66 240.39 141.32 241.25 142.26 241.37 C 143.19 241.49 144.05 240.83 144.17 239.89 L 144.30 238.88 C 144.42 237.94 143.76 237.09 142.82 236.97 C 141.89 236.85 141.03 237.51 140.91 238.45 Z M 140.79 239.45 L 140.66 240.43 C 140.53 241.36 141.19 242.22 142.12 242.34 C 143.05 242.47 143.90 241.81 144.03 240.88 L 144.16 239.90 C 144.29 238.97 143.63 238.12 142.70 237.99 C 141.77 237.87 140.92 238.52 140.79 239.45 Z M 140.66 240.42 L 140.53 241.37 C 140.40 242.30 141.05 243.16 141.98 243.29 C 142.90 243.42 143.76 242.77 143.89 241.84 L 144.02 240.89 C 144.15 239.96 143.51 239.11 142.58 238.98 C 141.65 238.85 140.79 239.49 140.66 240.42 Z M 140.54 241.37 L 140.40 242.35 C 140.26 243.27 140.91 244.13 141.83 244.26 C 142.75 244.39 143.61 243.75 143.74 242.83 L 143.88 241.85 C 144.02 240.93 143.37 240.07 142.45 239.94 C 141.53 239.80 140.67 240.45 140.54 241.37 Z M 140.40 242.34 L 140.25 243.37 C 140.12 244.29 140.76 245.15 141.68 245.28 C 142.60 245.42 143.45 244.78 143.59 243.86 L 143.74 242.83 C 143.87 241.91 143.23 241.05 142.31 240.92 C 141.39 240.78 140.54 241.42 140.40 242.34 Z M 140.26 243.37 L 140.11 244.37 C 139.97 245.29 140.61 246.14 141.52 246.28 C 142.44 246.41 143.29 245.78 143.43 244.86 L 143.58 243.86 C 143.71 242.95 143.08 242.09 142.17 241.96 C 141.25 241.82 140.40 242.45 140.26 243.37 Z M 140.12 244.37 L 139.97 245.33 C 139.83 246.24 140.46 247.09 141.37 247.23 C 142.28 247.37 143.14 246.74 143.28 245.83 L 143.42 244.87 C 143.56 243.96 142.93 243.10 142.02 242.96 C 141.11 242.83 140.26 243.45 140.12 244.37 Z M 139.98 245.33 L 139.83 246.29 C 139.69 247.19 140.31 248.04 141.22 248.19 C 142.13 248.33 142.98 247.70 143.12 246.80 L 143.27 245.84 C 143.41 244.93 142.79 244.08 141.88 243.94 C 140.97 243.80 140.12 244.42 139.98 245.33 Z M 139.84 246.28 L 139.68 247.30 C 139.53 248.20 140.15 249.05 141.05 249.20 C 141.96 249.34 142.80 248.72 142.95 247.82 L 143.11 246.80 C 143.25 245.90 142.64 245.05 141.73 244.90 C 140.83 244.76 139.98 245.38 139.84 246.28 Z M 139.68 247.30 L 139.53 248.27 C 139.38 249.17 139.99 250.02 140.89 250.16 C 141.79 250.31 142.64 249.70 142.78 248.80 L 142.94 247.82 C 143.09 246.92 142.47 246.08 141.58 245.93 C 140.68 245.79 139.83 246.40 139.68 247.30 Z M 139.53 248.27 L 139.38 249.23 C 139.23 250.12 139.84 250.96 140.73 251.11 C 141.63 251.26 142.47 250.65 142.62 249.75 L 142.78 248.80 C 142.92 247.90 142.31 247.06 141.42 246.91 C 140.52 246.77 139.68 247.37 139.53 248.27 Z M 139.39 249.23 L 139.23 250.20 C 139.08 251.09 139.69 251.93 140.58 252.08 C 141.47 252.22 142.31 251.62 142.45 250.73 L 142.61 249.75 C 142.76 248.86 142.15 248.02 141.26 247.88 C 140.37 247.73 139.53 248.34 139.39 249.23 Z M 139.23 250.21 L 139.07 251.19 C 138.93 252.08 139.53 252.92 140.42 253.06 C 141.31 253.20 142.14 252.60 142.29 251.71 L 142.45 250.73 C 142.59 249.84 141.99 249.00 141.10 248.86 C 140.21 248.72 139.38 249.32 139.23 250.21 Z M 139.08 251.20 L 138.92 252.19 C 138.78 253.07 139.38 253.90 140.26 254.04 C 141.14 254.19 141.98 253.59 142.12 252.70 L 142.28 251.71 C 142.42 250.83 141.82 250.00 140.94 249.86 C 140.06 249.71 139.22 250.31 139.08 251.20 Z M 138.93 252.19 L 138.77 253.19 C 138.63 254.07 139.22 254.89 140.10 255.03 C 140.98 255.18 141.81 254.58 141.95 253.70 L 142.11 252.70 C 142.25 251.82 141.66 251.00 140.78 250.85 C 139.90 250.71 139.07 251.31 138.93 252.19 Z M 138.77 253.19 L 138.61 254.19 C 138.47 255.07 139.07 255.89 139.94 256.03 C 140.82 256.17 141.64 255.58 141.78 254.70 L 141.94 253.70 C 142.08 252.82 141.49 252.00 140.61 251.86 C 139.74 251.72 138.92 252.31 138.77 253.19 Z M 138.62 254.19 L 138.46 255.18 C 138.32 256.05 138.91 256.87 139.79 257.01 C 140.66 257.15 141.48 256.56 141.62 255.69 L 141.77 254.70 C 141.91 253.83 141.32 253.01 140.45 252.87 C 139.58 252.73 138.76 253.32 138.62 254.19 Z M 138.47 255.18 L 138.31 256.15 C 138.17 257.02 138.77 257.84 139.63 257.97 C 140.50 258.11 141.32 257.52 141.46 256.65 L 141.61 255.68 C 141.75 254.82 141.16 254.00 140.29 253.86 C 139.42 253.72 138.61 254.31 138.47 255.18 Z M 138.32 256.16 L 138.16 257.20 C 138.02 258.06 138.61 258.87 139.47 259.01 C 140.33 259.14 141.15 258.55 141.28 257.69 L 141.45 256.65 C 141.58 255.79 141.00 254.98 140.13 254.84 C 139.27 254.70 138.46 255.29 138.32 256.16 Z M 138.16 257.20 L 138.01 258.18 C 137.87 259.04 138.46 259.84 139.32 259.98 C 140.17 260.12 140.98 259.53 141.12 258.67 L 141.27 257.69 C 141.41 256.83 140.83 256.03 139.97 255.89 C 139.11 255.75 138.30 256.34 138.16 257.20 Z M 138.02 258.17 L 137.86 259.13 C 137.72 259.98 138.30 260.79 139.16 260.92 C 140.01 261.06 140.82 260.48 140.95 259.63 L 141.11 258.68 C 141.25 257.82 140.67 257.02 139.81 256.88 C 138.96 256.74 138.16 257.32 138.02 258.17 Z M 137.88 259.12 L 137.70 260.15 C 137.56 261.00 138.14 261.80 138.98 261.94 C 139.83 262.08 140.63 261.51 140.77 260.66 L 140.94 259.63 C 141.08 258.79 140.51 257.99 139.66 257.85 C 138.82 257.70 138.02 258.28 137.88 259.12 Z M 137.72 260.15 L 137.56 261.09 C 137.42 261.93 137.99 262.72 138.82 262.86 C 139.66 263.00 140.46 262.44 140.60 261.60 L 140.76 260.66 C 140.90 259.82 140.33 259.03 139.49 258.89 C 138.65 258.74 137.86 259.31 137.72 260.15 Z M 137.57 261.09 L 137.41 262.11 C 137.27 262.94 137.83 263.73 138.67 263.86 C 139.50 264.00 140.28 263.44 140.42 262.60 L 140.59 261.59 C 140.72 260.76 140.16 259.97 139.33 259.83 C 138.50 259.70 137.71 260.26 137.57 261.09 Z M 137.42 262.12 L 137.27 263.07 C 137.14 263.90 137.70 264.67 138.52 264.81 C 139.35 264.94 140.13 264.37 140.26 263.55 L 140.41 262.59 C 140.54 261.77 139.98 260.99 139.15 260.86 C 138.33 260.73 137.55 261.29 137.42 262.12 Z M 137.29 263.09 L 137.14 264.09 C 137.02 264.90 137.58 265.66 138.39 265.78 C 139.20 265.90 139.95 265.35 140.08 264.53 L 140.23 263.53 C 140.35 262.72 139.80 261.97 138.98 261.84 C 138.17 261.72 137.42 262.28 137.29 263.09 Z M 137.18 264.10 L 137.07 264.85 C 136.95 265.64 137.50 266.37 138.29 266.49 C 139.08 266.60 139.81 266.06 139.93 265.27 L 140.04 264.52 C 140.16 263.73 139.61 263.00 138.82 262.88 C 138.03 262.77 137.30 263.31 137.18 264.10 Z"
      fill="black"
      fill-rule="nonzero" /><path d="M 148.51 137.39 L 149.53 137.49 C 150.41 137.58 151.20 136.94 151.29 136.05 C 151.37 135.17 150.73 134.38 149.85 134.30 L 148.83 134.19 C 147.94 134.11 147.16 134.75 147.07 135.63 C 146.98 136.52 147.63 137.30 148.51 137.39 Z M 149.33 137.59 L 150.28 137.80 C 151.22 137.99 152.14 137.40 152.34 136.46 C 152.54 135.52 151.94 134.60 151.00 134.40 L 150.05 134.20 C 149.11 134.00 148.19 134.60 147.99 135.53 C 147.79 136.47 148.39 137.39 149.33 137.59 Z M 149.90 137.75 L 150.78 138.14 C 151.69 138.55 152.76 138.14 153.17 137.23 C 153.58 136.32 153.17 135.25 152.26 134.84 L 151.38 134.45 C 150.47 134.04 149.40 134.45 148.99 135.36 C 148.58 136.27 148.99 137.34 149.90 137.75 Z M 150.56 138.04 L 151.43 138.58 C 152.28 139.11 153.41 138.85 153.94 138.00 C 154.47 137.14 154.21 136.02 153.35 135.49 L 152.49 134.95 C 151.63 134.41 150.51 134.67 149.97 135.53 C 149.44 136.38 149.70 137.51 150.56 138.04 Z M 151.39 138.57 L 152.16 139.08 C 153.01 139.63 154.15 139.39 154.70 138.55 C 155.26 137.70 155.02 136.57 154.17 136.01 L 153.40 135.50 C 152.55 134.95 151.41 135.18 150.86 136.03 C 150.30 136.88 150.54 138.01 151.39 138.57 Z M 152.14 139.06 L 153.00 139.64 C 153.84 140.21 154.98 139.99 155.55 139.15 C 156.12 138.31 155.90 137.17 155.06 136.60 L 154.20 136.02 C 153.36 135.45 152.22 135.67 151.65 136.51 C 151.08 137.35 151.30 138.50 152.14 139.06 Z M 152.96 139.63 L 153.76 140.19 C 154.59 140.78 155.74 140.58 156.33 139.75 C 156.91 138.92 156.72 137.77 155.89 137.19 L 155.09 136.62 C 154.26 136.03 153.11 136.23 152.52 137.06 C 151.93 137.89 152.13 139.04 152.96 139.63 Z M 153.73 140.17 L 154.50 140.74 C 155.32 141.35 156.47 141.18 157.08 140.36 C 157.69 139.54 157.51 138.38 156.69 137.77 L 155.92 137.20 C 155.10 136.60 153.94 136.77 153.34 137.59 C 152.73 138.41 152.91 139.57 153.73 140.17 Z M 154.47 140.73 L 155.31 141.36 C 156.12 141.98 157.28 141.83 157.90 141.01 C 158.52 140.20 158.36 139.04 157.55 138.42 L 156.72 137.79 C 155.90 137.17 154.74 137.33 154.12 138.14 C 153.51 138.95 153.66 140.11 154.47 140.73 Z M 155.29 141.35 L 156.08 141.97 C 156.88 142.60 158.05 142.46 158.68 141.65 C 159.31 140.85 159.17 139.68 158.36 139.05 L 157.57 138.43 C 156.76 137.80 155.60 137.95 154.97 138.75 C 154.34 139.56 154.48 140.72 155.29 141.35 Z M 156.06 141.96 L 156.79 142.55 C 157.60 143.19 158.76 143.06 159.40 142.26 C 160.04 141.46 159.91 140.29 159.11 139.65 L 158.38 139.06 C 157.58 138.42 156.41 138.55 155.77 139.35 C 155.13 140.15 155.26 141.32 156.06 141.96 Z M 156.77 142.53 L 157.55 143.17 C 158.34 143.82 159.51 143.70 160.16 142.91 C 160.81 142.12 160.70 140.95 159.90 140.30 L 159.13 139.66 C 158.34 139.01 157.17 139.13 156.52 139.92 C 155.87 140.71 155.98 141.88 156.77 142.53 Z M 157.52 143.15 L 158.33 143.83 C 159.11 144.50 160.28 144.40 160.95 143.62 C 161.61 142.84 161.52 141.67 160.73 141.00 L 159.93 140.32 C 159.15 139.65 157.97 139.75 157.31 140.53 C 156.64 141.31 156.74 142.48 157.52 143.15 Z M 158.30 143.81 L 159.06 144.49 C 159.84 145.17 161.01 145.09 161.69 144.32 C 162.37 143.55 162.30 142.38 161.53 141.70 L 160.76 141.02 C 159.99 140.34 158.81 140.42 158.14 141.19 C 157.46 141.96 157.53 143.13 158.30 143.81 Z M 159.04 144.47 L 159.74 145.11 C 160.50 145.80 161.68 145.75 162.37 144.99 C 163.07 144.23 163.01 143.05 162.25 142.35 L 161.55 141.71 C 160.79 141.02 159.61 141.08 158.92 141.84 C 158.22 142.60 158.28 143.78 159.04 144.47 Z M 159.72 145.09 L 160.43 145.77 C 161.19 146.47 162.37 146.44 163.08 145.68 C 163.78 144.93 163.74 143.75 162.99 143.04 L 162.27 142.37 C 161.52 141.66 160.34 141.70 159.63 142.45 C 158.93 143.20 158.96 144.39 159.72 145.09 Z M 160.41 145.75 L 161.15 146.46 C 161.89 147.18 163.08 147.16 163.79 146.41 C 164.51 145.67 164.49 144.48 163.75 143.76 L 163.01 143.06 C 162.27 142.34 161.08 142.36 160.36 143.10 C 159.65 143.85 159.67 145.04 160.41 145.75 Z M 161.13 146.45 L 161.87 147.18 C 162.61 147.91 163.80 147.91 164.53 147.17 C 165.26 146.43 165.25 145.24 164.51 144.51 L 163.76 143.77 C 163.03 143.05 161.84 143.05 161.11 143.79 C 160.38 144.53 160.39 145.72 161.13 146.45 Z M 161.86 147.17 L 162.57 147.89 C 163.30 148.63 164.49 148.63 165.23 147.90 C 165.97 147.17 165.97 145.98 165.24 145.24 L 164.53 144.52 C 163.80 143.79 162.61 143.78 161.87 144.51 C 161.13 145.24 161.12 146.43 161.86 147.17 Z M 162.55 147.88 L 163.22 148.57 C 163.95 149.31 165.14 149.33 165.88 148.61 C 166.63 147.88 166.65 146.69 165.92 145.94 L 165.25 145.25 C 164.53 144.51 163.34 144.49 162.59 145.21 C 161.84 145.94 161.83 147.13 162.55 147.88 Z M 163.21 148.56 L 163.89 149.27 C 164.60 150.02 165.80 150.05 166.55 149.33 C 167.30 148.61 167.33 147.42 166.61 146.66 L 165.94 145.95 C 165.22 145.20 164.02 145.17 163.27 145.89 C 162.52 146.61 162.49 147.80 163.21 148.56 Z M 163.87 149.25 L 164.56 149.99 C 165.27 150.75 166.46 150.79 167.22 150.07 C 167.98 149.36 168.02 148.17 167.31 147.41 L 166.63 146.68 C 165.91 145.92 164.72 145.88 163.96 146.59 C 163.20 147.30 163.16 148.49 163.87 149.25 Z M 164.55 149.98 L 165.24 150.73 C 165.95 151.50 167.14 151.55 167.91 150.84 C 168.67 150.13 168.72 148.94 168.02 148.17 L 167.32 147.42 C 166.62 146.65 165.42 146.60 164.66 147.31 C 163.89 148.02 163.84 149.21 164.55 149.98 Z M 165.23 150.72 L 165.93 151.49 C 166.63 152.27 167.83 152.33 168.60 151.63 C 169.37 150.93 169.43 149.73 168.73 148.96 L 168.03 148.18 C 167.33 147.41 166.13 147.35 165.36 148.05 C 164.59 148.75 164.53 149.95 165.23 150.72 Z M 165.92 151.48 L 166.59 152.24 C 167.29 153.01 168.48 153.08 169.26 152.39 C 170.04 151.69 170.11 150.50 169.41 149.72 L 168.74 148.97 C 168.05 148.19 166.85 148.12 166.07 148.82 C 165.29 149.51 165.23 150.70 165.92 151.48 Z M 166.58 152.23 L 167.24 152.98 C 167.93 153.77 169.13 153.84 169.91 153.15 C 170.70 152.46 170.77 151.27 170.08 150.48 L 169.42 149.73 C 168.73 148.95 167.54 148.87 166.75 149.56 C 165.97 150.25 165.89 151.44 166.58 152.23 Z M 167.24 152.97 L 167.90 153.74 C 168.58 154.52 169.78 154.61 170.57 153.92 C 171.36 153.24 171.44 152.04 170.76 151.25 L 170.09 150.49 C 169.41 149.70 168.21 149.62 167.42 150.30 C 166.64 150.99 166.55 152.18 167.24 152.97 Z M 167.89 153.73 L 168.55 154.49 C 169.23 155.29 170.42 155.38 171.22 154.70 C 172.01 154.02 172.10 152.82 171.42 152.03 L 170.76 151.26 C 170.08 150.47 168.89 150.38 168.09 151.06 C 167.30 151.74 167.21 152.93 167.89 153.73 Z M 168.54 154.49 L 169.19 155.25 C 169.87 156.05 171.06 156.15 171.86 155.47 C 172.66 154.79 172.75 153.60 172.08 152.80 L 171.43 152.04 C 170.75 151.24 169.56 151.14 168.76 151.82 C 167.96 152.49 167.86 153.69 168.54 154.49 Z M 169.18 155.24 L 169.82 156.00 C 170.49 156.80 171.69 156.91 172.49 156.23 C 173.29 155.56 173.39 154.36 172.72 153.56 L 172.08 152.81 C 171.41 152.01 170.22 151.90 169.41 152.57 C 168.61 153.25 168.51 154.44 169.18 155.24 Z M 169.81 155.99 L 170.47 156.78 C 171.14 157.59 172.33 157.70 173.13 157.03 C 173.94 156.36 174.05 155.16 173.38 154.36 L 172.72 153.57 C 172.06 152.77 170.86 152.66 170.06 153.32 C 169.25 153.99 169.14 155.19 169.81 155.99 Z M 170.46 156.77 L 171.12 157.57 C 171.78 158.38 172.98 158.49 173.78 157.83 C 174.59 157.16 174.71 155.97 174.04 155.16 L 173.39 154.37 C 172.72 153.56 171.53 153.44 170.72 154.11 C 169.91 154.77 169.80 155.97 170.46 156.77 Z M 171.12 157.57 L 171.76 158.35 C 172.42 159.16 173.61 159.28 174.42 158.61 C 175.23 157.95 175.35 156.76 174.68 155.95 L 174.04 155.17 C 173.38 154.36 172.19 154.24 171.38 154.90 C 170.57 155.57 170.45 156.76 171.12 157.57 Z M 171.76 158.35 L 172.38 159.11 C 173.04 159.92 174.23 160.04 175.04 159.38 C 175.85 158.72 175.97 157.53 175.31 156.72 L 174.69 155.95 C 174.02 155.15 172.83 155.03 172.03 155.69 C 171.22 156.35 171.10 157.54 171.76 158.35 Z M 172.38 159.11 L 173.00 159.87 C 173.66 160.67 174.85 160.79 175.66 160.13 C 176.47 159.47 176.59 158.28 175.93 157.47 L 175.31 156.72 C 174.65 155.91 173.46 155.79 172.65 156.45 C 171.84 157.11 171.72 158.30 172.38 159.11 Z M 173.00 159.87 L 173.61 160.61 C 174.28 161.42 175.46 161.53 176.27 160.87 C 177.08 160.21 177.19 159.02 176.53 158.21 L 175.92 157.47 C 175.26 156.67 174.07 156.55 173.26 157.21 C 172.46 157.87 172.34 159.06 173.00 159.87 Z M 173.62 160.62 L 174.28 161.41 C 174.95 162.21 176.14 162.33 176.94 161.66 C 177.74 161.00 177.85 159.81 177.18 159.01 L 176.52 158.21 C 175.86 157.41 174.67 157.30 173.87 157.96 C 173.07 158.62 172.96 159.81 173.62 160.62 Z M 174.29 161.42 L 174.95 162.20 C 175.62 163.00 176.80 163.10 177.60 162.43 C 178.40 161.76 178.50 160.57 177.83 159.78 L 177.17 159.00 C 176.51 158.20 175.32 158.10 174.52 158.77 C 173.73 159.44 173.62 160.62 174.29 161.42 Z M 174.96 162.21 L 175.61 162.97 C 176.29 163.76 177.47 163.85 178.26 163.18 C 179.05 162.50 179.14 161.32 178.47 160.53 L 177.82 159.77 C 177.14 158.98 175.96 158.89 175.17 159.56 C 174.38 160.24 174.29 161.42 174.96 162.21 Z M 175.63 162.99 L 176.27 163.73 C 176.96 164.51 178.14 164.59 178.92 163.90 C 179.70 163.22 179.78 162.04 179.10 161.25 L 178.45 160.51 C 177.77 159.73 176.58 159.65 175.80 160.34 C 175.02 161.02 174.94 162.21 175.63 162.99 Z M 176.29 163.74 L 176.93 164.46 C 177.63 165.23 178.81 165.29 179.58 164.60 C 180.35 163.91 180.42 162.72 179.73 161.95 L 179.08 161.24 C 178.39 160.47 177.20 160.40 176.43 161.09 C 175.66 161.79 175.60 162.97 176.29 163.74 Z M 176.96 164.48 L 177.66 165.23 C 178.36 165.99 179.55 166.04 180.30 165.33 C 181.06 164.63 181.11 163.45 180.40 162.69 L 179.70 161.93 C 179.00 161.18 177.82 161.13 177.06 161.83 C 176.30 162.54 176.26 163.72 176.96 164.48 Z M 177.69 165.26 L 178.39 165.99 C 179.10 166.73 180.29 166.75 181.03 166.04 C 181.77 165.32 181.79 164.14 181.08 163.40 L 180.38 162.67 C 179.66 161.93 178.48 161.91 177.74 162.62 C 177.00 163.33 176.97 164.51 177.69 165.26 Z M 178.42 166.01 L 179.12 166.71 C 179.85 167.44 181.02 167.44 181.75 166.71 C 182.48 165.99 182.48 164.81 181.75 164.09 L 181.05 163.38 C 180.33 162.66 179.15 162.65 178.42 163.38 C 177.70 164.10 177.70 165.28 178.42 166.01 Z M 179.15 166.73 L 179.86 167.41 C 180.59 168.12 181.77 168.10 182.48 167.36 C 183.18 166.63 183.16 165.45 182.43 164.74 L 181.72 164.07 C 180.99 163.36 179.81 163.38 179.11 164.11 C 178.40 164.85 178.42 166.02 179.15 166.73 Z M 179.89 167.43 L 180.61 168.10 C 181.36 168.79 182.52 168.75 183.22 168.00 C 183.91 167.25 183.86 166.08 183.12 165.39 L 182.40 164.72 C 181.65 164.03 180.48 164.08 179.79 164.82 C 179.10 165.57 179.14 166.74 179.89 167.43 Z M 180.64 168.12 L 181.40 168.79 C 182.15 169.46 183.32 169.40 183.99 168.64 C 184.67 167.88 184.60 166.72 183.84 166.04 L 183.08 165.37 C 182.33 164.70 181.16 164.77 180.49 165.52 C 179.81 166.28 179.88 167.44 180.64 168.12 Z M 181.43 168.81 L 182.19 169.46 C 182.96 170.11 184.12 170.02 184.77 169.25 C 185.43 168.48 185.34 167.33 184.57 166.67 L 183.80 166.02 C 183.04 165.37 181.88 165.46 181.22 166.23 C 180.57 167.00 180.66 168.15 181.43 168.81 Z M 182.23 169.48 L 183.00 170.11 C 183.78 170.74 184.92 170.63 185.56 169.85 C 186.20 169.07 186.08 167.92 185.30 167.28 L 184.53 166.65 C 183.75 166.02 182.60 166.13 181.97 166.91 C 181.33 167.69 181.45 168.84 182.23 169.48 Z M 183.03 170.12 L 183.81 170.73 C 184.60 171.35 185.74 171.21 186.36 170.42 C 186.98 169.63 186.84 168.49 186.05 167.87 L 185.27 167.26 C 184.48 166.65 183.34 166.79 182.72 167.58 C 182.10 168.37 182.24 169.51 183.03 170.12 Z M 183.84 170.75 L 184.63 171.34 C 185.43 171.94 186.56 171.78 187.16 170.98 C 187.76 170.18 187.60 169.05 186.80 168.45 L 186.01 167.86 C 185.22 167.26 184.08 167.42 183.48 168.22 C 182.88 169.02 183.05 170.15 183.84 170.75 Z M 184.65 171.35 L 185.45 171.93 C 186.25 172.51 187.38 172.33 187.96 171.53 C 188.55 170.73 188.37 169.60 187.57 169.02 L 186.77 168.44 C 185.97 167.85 184.84 168.03 184.26 168.83 C 183.67 169.64 183.85 170.76 184.65 171.35 Z M 185.47 171.93 L 186.28 172.51 C 187.08 173.09 188.20 172.90 188.78 172.10 C 189.35 171.29 189.17 170.17 188.36 169.60 L 187.55 169.02 C 186.75 168.44 185.63 168.63 185.05 169.43 C 184.48 170.23 184.66 171.35 185.47 171.93 Z M 186.28 172.50 L 187.11 173.10 C 187.91 173.67 189.03 173.48 189.60 172.68 C 190.17 171.88 189.99 170.77 189.18 170.20 L 188.36 169.60 C 187.55 169.03 186.44 169.22 185.87 170.02 C 185.30 170.82 185.48 171.93 186.28 172.50 Z M 187.11 173.08 L 187.94 173.68 C 188.73 174.25 189.84 174.07 190.41 173.28 C 190.99 172.48 190.81 171.38 190.01 170.80 L 189.19 170.21 C 188.39 169.64 187.28 169.82 186.71 170.61 C 186.14 171.40 186.32 172.51 187.11 173.08 Z M 187.94 173.67 L 188.76 174.26 C 189.55 174.84 190.65 174.66 191.22 173.88 C 191.79 173.09 191.62 171.99 190.83 171.42 L 190.01 170.82 C 189.23 170.25 188.12 170.42 187.55 171.21 C 186.98 171.99 187.15 173.09 187.94 173.67 Z M 188.77 174.25 L 189.59 174.85 C 190.37 175.42 191.46 175.25 192.03 174.47 C 192.60 173.69 192.43 172.60 191.65 172.03 L 190.83 171.43 C 190.05 170.86 188.95 171.03 188.39 171.81 C 187.82 172.59 187.99 173.68 188.77 174.25 Z M 189.60 174.84 L 190.41 175.43 C 191.19 175.99 192.27 175.82 192.83 175.05 C 193.40 174.27 193.22 173.19 192.45 172.62 L 191.64 172.04 C 190.86 171.47 189.78 171.65 189.22 172.42 C 188.65 173.20 188.83 174.28 189.60 174.84 Z M 190.43 175.43 L 191.21 175.99 C 191.99 176.54 193.06 176.37 193.62 175.59 C 194.17 174.82 193.99 173.75 193.22 173.19 L 192.43 172.63 C 191.66 172.07 190.58 172.25 190.03 173.02 C 189.48 173.80 189.65 174.87 190.43 175.43 Z M 191.23 175.99 L 192.08 176.59 C 192.86 177.13 193.92 176.94 194.47 176.17 C 195.01 175.40 194.82 174.33 194.05 173.79 L 193.20 173.19 C 192.43 172.65 191.36 172.84 190.82 173.61 C 190.27 174.38 190.46 175.45 191.23 175.99 Z M 192.10 176.59 L 192.92 177.16 C 193.70 177.69 194.76 177.49 195.29 176.72 C 195.82 175.95 195.63 174.89 194.86 174.36 L 194.03 173.79 C 193.26 173.25 192.20 173.45 191.67 174.22 C 191.13 174.99 191.33 176.05 192.10 176.59 Z M 192.93 177.15 L 193.74 177.70 C 194.51 178.23 195.56 178.04 196.09 177.27 C 196.62 176.50 196.42 175.45 195.65 174.92 L 194.85 174.36 C 194.08 173.83 193.03 174.03 192.50 174.80 C 191.97 175.57 192.16 176.62 192.93 177.15 Z M 193.74 177.69 L 194.54 178.25 C 195.30 178.78 196.35 178.59 196.88 177.83 C 197.41 177.07 197.22 176.02 196.46 175.49 L 195.66 174.93 C 194.90 174.40 193.85 174.59 193.32 175.35 C 192.79 176.11 192.97 177.16 193.74 177.69 Z M 194.53 178.23 L 195.33 178.80 C 196.08 179.34 197.12 179.16 197.66 178.41 C 198.19 177.66 198.02 176.61 197.27 176.08 L 196.47 175.51 C 195.72 174.97 194.67 175.15 194.14 175.90 C 193.60 176.65 193.78 177.70 194.53 178.23 Z M 195.32 178.79 L 196.13 179.37 C 196.87 179.91 197.92 179.74 198.45 179.00 C 198.99 178.25 198.83 177.21 198.08 176.67 L 197.27 176.09 C 196.53 175.55 195.49 175.72 194.95 176.46 C 194.41 177.21 194.57 178.25 195.32 178.79 Z M 196.13 179.37 L 196.95 179.96 C 197.69 180.50 198.73 180.33 199.27 179.59 C 199.80 178.84 199.64 177.80 198.89 177.27 L 198.08 176.68 C 197.33 176.14 196.30 176.30 195.76 177.05 C 195.22 177.79 195.39 178.83 196.13 179.37 Z M 196.96 179.96 L 197.78 180.55 C 198.52 181.08 199.56 180.91 200.09 180.17 C 200.62 179.42 200.45 178.39 199.71 177.86 L 198.88 177.27 C 198.14 176.73 197.11 176.90 196.57 177.65 C 196.04 178.39 196.21 179.43 196.96 179.96 Z M 197.79 180.56 L 198.62 181.13 C 199.37 181.66 200.40 181.48 200.92 180.73 C 201.45 179.98 201.27 178.95 200.52 178.43 L 199.69 177.85 C 198.95 177.32 197.91 177.51 197.39 178.25 C 196.87 179.00 197.05 180.03 197.79 180.56 Z M 198.63 181.14 L 199.46 181.71 C 200.21 182.23 201.24 182.04 201.76 181.28 C 202.27 180.53 202.08 179.50 201.33 178.99 L 200.50 178.42 C 199.75 177.90 198.72 178.09 198.21 178.84 C 197.69 179.60 197.88 180.63 198.63 181.14 Z M 199.47 181.72 L 200.29 182.28 C 201.05 182.79 202.08 182.59 202.59 181.84 C 203.10 181.08 202.91 180.05 202.15 179.54 L 201.32 178.98 C 200.57 178.47 199.54 178.66 199.03 179.42 C 198.51 180.18 198.71 181.20 199.47 181.72 Z M 200.30 182.28 L 201.12 182.84 C 201.88 183.35 202.91 183.15 203.42 182.39 C 203.93 181.64 203.73 180.61 202.97 180.10 L 202.15 179.54 C 201.39 179.03 200.36 179.23 199.85 179.98 C 199.34 180.74 199.54 181.77 200.30 182.28 Z M 201.12 182.83 L 201.95 183.40 C 202.70 183.91 203.73 183.71 204.24 182.95 C 204.75 182.20 204.56 181.17 203.80 180.66 L 202.97 180.10 C 202.22 179.59 201.19 179.78 200.68 180.54 C 200.17 181.30 200.36 182.32 201.12 182.83 Z M 201.94 183.39 L 202.77 183.96 C 203.53 184.47 204.55 184.28 205.07 183.52 C 205.58 182.77 205.39 181.74 204.63 181.23 L 203.81 180.66 C 203.05 180.15 202.02 180.34 201.51 181.10 C 201.00 181.85 201.19 182.88 201.94 183.39 Z M 202.77 183.95 L 203.59 184.52 C 204.35 185.03 205.37 184.84 205.89 184.09 C 206.40 183.34 206.21 182.31 205.46 181.79 L 204.64 181.23 C 203.88 180.71 202.86 180.91 202.34 181.66 C 201.82 182.41 202.02 183.44 202.77 183.95 Z M 203.59 184.52 L 204.41 185.08 C 205.17 185.60 206.19 185.41 206.71 184.66 C 207.23 183.91 207.04 182.88 206.28 182.36 L 205.46 181.80 C 204.71 181.28 203.68 181.47 203.17 182.22 C 202.65 182.97 202.84 184.00 203.59 184.52 Z M 204.41 185.08 L 204.86 185.39 C 205.62 185.91 206.64 185.72 207.16 184.97 C 207.68 184.22 207.49 183.19 206.74 182.67 L 206.28 182.36 C 205.53 181.85 204.51 182.04 203.99 182.79 C 203.47 183.54 203.66 184.57 204.41 185.08 Z"
      fill="black"
      fill-rule="nonzero" /></svg>