<svg xmlns="http://www.w3.org/2000/svg" width="300" height="300" viewBox="0 0 300 300">
<path d="M 53.44 92.33 L 54.41 92.27 C 55.25 92.22 55.88 91.50 55.83 90.67 C 55.78 89.84 55.07 89.20 54.23 89.25 L 53.26 89.31 C 52.42 89.36 51.79 90.07 51.84 90.91 C 51.89 91.74 52.61 92.38 53.44 92.33 Z M 54.40 92.29 L 55.40 92.24 C 56.24 92.20 56.90 91.48 56.85 90.63 C 56.81 89.78 56.09 89.13 55.24 89.18 L 54.25 89.23 C 53.40 89.27 52.75 89.99 52.79 90.84 C 52.83 91.69 53.56 92.34 54.40 92.29 Z M 55.37 92.26 L 56.41 92.23 C 57.26 92.20 57.94 91.48 57.91 90.62 C 57.88 89.76 57.16 89.09 56.30 89.12 L 55.26 89.15 C 54.40 89.18 53.73 89.91 53.76 90.76 C 53.79 91.62 54.51 92.30 55.37 92.26 Z M 56.38 92.25 L 57.42 92.23 C 58.29 92.22 58.98 91.50 58.97 90.63 C 58.96 89.76 58.24 89.07 57.37 89.08 L 56.33 89.10 C 55.46 89.11 54.76 89.83 54.78 90.70 C 54.79 91.57 55.51 92.26 56.38 92.25 Z M 57.40 92.24 L 58.41 92.24 C 59.29 92.24 60.00 91.53 60.00 90.65 C 60.00 89.78 59.28 89.07 58.41 89.07 L 57.40 89.07 C 56.52 89.07 55.81 89.78 55.81 90.66 C 55.81 91.53 56.52 92.24 57.40 92.24 Z M 58.39 92.25 L 59.37 92.27 C 60.25 92.28 60.98 91.57 60.99 90.69 C 61.00 89.81 60.30 89.08 59.41 89.07 L 58.43 89.06 C 57.55 89.04 56.82 89.75 56.81 90.63 C 56.80 91.52 57.50 92.24 58.39 92.25 Z M 59.33 92.28 L 60.36 92.31 C 61.25 92.35 61.99 91.65 62.03 90.77 C 62.06 89.88 61.37 89.13 60.48 89.10 L 59.45 89.06 C 58.56 89.03 57.82 89.72 57.78 90.61 C 57.75 91.50 58.44 92.24 59.33 92.28 Z M 60.30 92.31 L 61.21 92.38 C 62.10 92.45 62.87 91.79 62.94 90.90 C 63.01 90.01 62.34 89.24 61.46 89.17 L 60.54 89.10 C 59.65 89.03 58.88 89.70 58.81 90.58 C 58.74 91.47 59.41 92.25 60.30 92.31 Z M 61.15 92.38 L 62.13 92.49 C 63.02 92.59 63.82 91.96 63.92 91.07 C 64.02 90.18 63.38 89.38 62.49 89.28 L 61.51 89.17 C 60.63 89.07 59.83 89.71 59.73 90.60 C 59.63 91.48 60.26 92.28 61.15 92.38 Z M 62.09 92.49 L 63.10 92.63 C 63.98 92.75 64.80 92.13 64.92 91.24 C 65.04 90.35 64.41 89.53 63.53 89.41 L 62.53 89.28 C 61.64 89.16 60.82 89.78 60.70 90.67 C 60.58 91.56 61.21 92.38 62.09 92.49 Z M 63.08 92.63 L 64.06 92.77 C 64.94 92.90 65.77 92.28 65.90 91.40 C 66.03 90.51 65.41 89.68 64.52 89.55 L 63.54 89.41 C 62.66 89.28 61.83 89.90 61.70 90.79 C 61.57 91.68 62.19 92.50 63.08 92.63 Z M 64.04 92.77 L 65.05 92.93 C 65.94 93.06 66.77 92.45 66.91 91.57 C 67.05 90.68 66.43 89.84 65.55 89.71 L 64.54 89.55 C 63.65 89.42 62.81 90.03 62.68 90.92 C 62.54 91.81 63.15 92.64 64.04 92.77 Z M 65.04 92.93 L 66.01 93.08 C 66.90 93.23 67.73 92.62 67.88 91.73 C 68.02 90.84 67.41 90.00 66.52 89.86 L 65.56 89.71 C 64.67 89.56 63.83 90.17 63.69 91.06 C 63.54 91.95 64.15 92.79 65.04 92.93 Z M 66.01 93.09 L 67.01 93.25 C 67.90 93.39 68.74 92.78 68.89 91.89 C 69.03 91.00 68.42 90.16 67.53 90.02 L 66.52 89.86 C 65.63 89.71 64.79 90.32 64.65 91.22 C 64.51 92.11 65.11 92.95 66.01 93.09 Z M 67.02 93.25 L 68.00 93.40 C 68.89 93.54 69.73 92.92 69.87 92.03 C 70.00 91.13 69.39 90.29 68.49 90.16 L 67.52 90.01 C 66.62 89.87 65.78 90.49 65.65 91.38 C 65.51 92.28 66.13 93.12 67.02 93.25 Z M 68.01 93.41 L 69.00 93.55 C 69.90 93.68 70.74 93.06 70.87 92.16 C 71.00 91.25 70.37 90.42 69.47 90.29 L 68.48 90.15 C 67.58 90.02 66.74 90.65 66.61 91.55 C 66.48 92.45 67.11 93.28 68.01 93.41 Z M 69.02 93.56 L 70.03 93.70 C 70.94 93.81 71.77 93.18 71.89 92.27 C 72.00 91.36 71.36 90.53 70.46 90.41 L 69.45 90.28 C 68.54 90.16 67.71 90.80 67.59 91.71 C 67.47 92.61 68.11 93.45 69.02 93.56 Z M 70.05 93.71 L 71.01 93.82 C 71.92 93.93 72.75 93.28 72.86 92.36 C 72.97 91.45 72.32 90.62 71.40 90.51 L 70.44 90.40 C 69.53 90.29 68.70 90.94 68.59 91.86 C 68.48 92.77 69.13 93.60 70.05 93.71 Z M 71.02 93.83 L 72.02 93.95 C 72.94 94.05 73.77 93.39 73.87 92.47 C 73.98 91.55 73.32 90.72 72.40 90.62 L 71.40 90.50 C 70.48 90.40 69.65 91.06 69.54 91.98 C 69.44 92.90 70.10 93.73 71.02 93.83 Z M 72.01 93.96 L 73.03 94.07 C 73.95 94.18 74.79 93.52 74.90 92.59 C 75.00 91.67 74.34 90.83 73.41 90.72 L 72.40 90.61 C 71.47 90.50 70.64 91.16 70.53 92.09 C 70.42 93.01 71.09 93.85 72.01 93.96 Z M 73.02 94.09 L 74.01 94.20 C 74.94 94.31 75.78 93.65 75.89 92.72 C 76.00 91.79 75.34 90.94 74.41 90.83 L 73.42 90.71 C 72.49 90.60 71.64 91.27 71.53 92.20 C 71.42 93.13 72.09 93.97 73.02 94.09 Z M 74.01 94.21 L 75.01 94.33 C 75.95 94.44 76.80 93.77 76.91 92.84 C 77.02 91.90 76.35 91.05 75.41 90.94 L 74.41 90.82 C 73.47 90.71 72.62 91.38 72.51 92.32 C 72.40 93.25 73.07 94.10 74.01 94.21 Z M 75.02 94.35 L 76.02 94.46 C 76.96 94.57 77.81 93.89 77.92 92.95 C 78.03 92.00 77.35 91.15 76.41 91.04 L 75.41 90.93 C 74.46 90.82 73.61 91.50 73.50 92.44 C 73.39 93.38 74.07 94.24 75.02 94.35 Z M 76.03 94.47 L 77.02 94.58 C 77.97 94.68 78.83 93.99 78.93 93.04 C 79.03 92.09 78.34 91.24 77.39 91.14 L 76.39 91.03 C 75.44 90.93 74.59 91.62 74.49 92.57 C 74.39 93.52 75.08 94.37 76.03 94.47 Z M 77.04 94.59 L 78.03 94.68 C 78.98 94.78 79.83 94.08 79.93 93.12 C 80.02 92.17 79.32 91.31 78.37 91.22 L 77.38 91.12 C 76.42 91.03 75.57 91.73 75.48 92.69 C 75.38 93.64 76.08 94.49 77.04 94.59 Z M 78.04 94.70 L 79.04 94.78 C 80.00 94.87 80.85 94.16 80.93 93.20 C 81.02 92.23 80.31 91.38 79.35 91.30 L 78.35 91.21 C 77.39 91.13 76.54 91.84 76.45 92.80 C 76.37 93.76 77.08 94.61 78.04 94.70 Z M 79.05 94.79 L 80.02 94.87 C 80.99 94.95 81.83 94.23 81.91 93.26 C 81.99 92.29 81.27 91.44 80.30 91.37 L 79.33 91.29 C 78.36 91.21 77.52 91.93 77.44 92.90 C 77.36 93.87 78.08 94.72 79.05 94.79 Z M 80.03 94.88 L 81.03 94.95 C 82.00 95.02 82.84 94.29 82.91 93.31 C 82.98 92.34 82.25 91.50 81.28 91.43 L 80.28 91.36 C 79.31 91.29 78.47 92.02 78.40 92.99 C 78.33 93.96 79.06 94.81 80.03 94.88 Z M 81.04 94.96 L 82.07 95.02 C 83.05 95.08 83.88 94.34 83.95 93.36 C 84.01 92.39 83.26 91.55 82.29 91.49 L 81.26 91.42 C 80.29 91.36 79.45 92.10 79.39 93.08 C 79.33 94.06 80.07 94.89 81.04 94.96 Z M 82.09 95.03 L 83.06 95.08 C 84.04 95.13 84.87 94.38 84.93 93.40 C 84.98 92.42 84.23 91.58 83.25 91.53 L 82.27 91.48 C 81.29 91.43 80.46 92.18 80.41 93.16 C 80.35 94.14 81.11 94.97 82.09 95.03 Z M 83.07 95.08 L 84.06 95.13 C 85.04 95.17 85.87 94.41 85.92 93.43 C 85.96 92.45 85.20 91.61 84.22 91.57 L 83.23 91.53 C 82.25 91.48 81.42 92.24 81.37 93.22 C 81.33 94.21 82.09 95.04 83.07 95.08 Z M 84.07 95.13 L 85.08 95.17 C 86.07 95.21 86.90 94.44 86.94 93.46 C 86.97 92.47 86.21 91.64 85.22 91.60 L 84.21 91.56 C 83.22 91.53 82.39 92.29 82.35 93.28 C 82.31 94.27 83.08 95.10 84.07 95.13 Z M 85.09 95.18 L 86.12 95.21 C 87.11 95.24 87.93 94.47 87.97 93.48 C 88.00 92.49 87.22 91.66 86.23 91.63 L 85.21 91.60 C 84.22 91.57 83.39 92.34 83.36 93.33 C 83.33 94.32 84.10 95.15 85.09 95.18 Z M 86.13 95.22 L 87.10 95.24 C 88.09 95.27 88.91 94.49 88.94 93.50 C 88.97 92.51 88.19 91.68 87.20 91.65 L 86.22 91.63 C 85.23 91.60 84.41 92.38 84.38 93.37 C 84.35 94.36 85.13 95.19 86.13 95.22 Z M 87.10 95.25 L 88.10 95.27 C 89.09 95.29 89.92 94.51 89.94 93.51 C 89.96 92.52 89.18 91.70 88.18 91.67 L 87.19 91.65 C 86.20 91.62 85.37 92.41 85.35 93.40 C 85.32 94.40 86.11 95.22 87.10 95.25 Z M 88.10 95.28 L 89.12 95.30 C 90.11 95.32 90.94 94.53 90.96 93.53 C 90.98 92.54 90.19 91.71 89.20 91.69 L 88.18 91.67 C 87.18 91.65 86.36 92.44 86.34 93.43 C 86.32 94.43 87.11 95.25 88.10 95.28 Z M 89.12 95.30 L 90.14 95.32 C 91.13 95.34 91.96 94.55 91.98 93.55 C 92.00 92.55 91.21 91.73 90.21 91.71 L 89.19 91.69 C 88.19 91.67 87.37 92.46 87.35 93.46 C 87.33 94.45 88.12 95.28 89.12 95.30 Z M 90.14 95.33 L 91.11 95.35 C 92.11 95.37 92.93 94.57 92.95 93.57 C 92.97 92.57 92.18 91.74 91.18 91.72 L 90.21 91.70 C 89.21 91.68 88.38 92.48 88.36 93.48 C 88.34 94.48 89.14 95.31 90.14 95.33 Z M 91.11 95.35 L 92.10 95.37 C 93.10 95.39 93.93 94.59 93.95 93.58 C 93.96 92.58 93.17 91.75 92.16 91.74 L 91.18 91.72 C 90.17 91.70 89.34 92.50 89.33 93.50 C 89.31 94.50 90.11 95.33 91.11 95.35 Z M 92.10 95.37 L 93.11 95.39 C 94.12 95.40 94.94 94.60 94.96 93.60 C 94.98 92.59 94.17 91.76 93.17 91.75 L 92.16 91.73 C 91.15 91.72 90.33 92.52 90.31 93.52 C 90.29 94.53 91.10 95.36 92.10 95.37 Z M 93.12 95.39 L 94.15 95.40 C 95.16 95.42 95.99 94.61 96.00 93.60 C 96.01 92.59 95.20 91.77 94.20 91.76 L 93.16 91.74 C 92.15 91.73 91.33 92.54 91.32 93.55 C 91.30 94.55 92.11 95.38 93.12 95.39 Z M 94.16 95.41 L 95.16 95.42 C 96.17 95.42 97.00 94.61 97.00 93.60 C 97.01 92.59 96.20 91.77 95.19 91.76 L 94.19 91.75 C 93.18 91.74 92.36 92.56 92.35 93.57 C 92.34 94.57 93.15 95.40 94.16 95.41 Z M 95.17 95.42 L 96.17 95.42 C 97.18 95.43 98.01 94.61 98.01 93.60 C 98.02 92.59 97.20 91.77 96.19 91.76 L 95.18 91.76 C 94.17 91.75 93.35 92.57 93.34 93.58 C 93.34 94.59 94.16 95.41 95.17 95.42 Z M 96.18 95.43 L 97.19 95.43 C 98.20 95.43 99.02 94.61 99.03 93.60 C 99.03 92.59 98.21 91.76 97.20 91.76 L 96.19 91.76 C 95.17 91.76 94.35 92.58 94.35 93.59 C 94.35 94.60 95.16 95.42 96.18 95.43 Z M 97.19 95.43 L 98.19 95.43 C 99.21 95.43 100.03 94.61 100.03 93.60 C 100.03 92.58 99.21 91.76 98.20 91.76 L 97.19 91.76 C 96.18 91.76 95.36 92.58 95.35 93.59 C 95.35 94.61 96.18 95.43 97.19 95.43 Z M 98.19 95.43 L 99.19 95.43 C 100.21 95.44 101.03 94.61 101.03 93.60 C 101.03 92.58 100.21 91.76 99.19 91.76 L 98.19 91.76 C 97.18 91.76 96.35 92.58 96.35 93.59 C 96.35 94.61 97.18 95.43 98.19 95.43 Z M 99.19 95.44 L 100.21 95.44 C 101.23 95.44 102.05 94.61 102.05 93.60 C 102.05 92.58 101.23 91.75 100.21 91.75 L 99.19 91.75 C 98.17 91.75 97.35 92.58 97.35 93.60 C 97.35 94.61 98.17 95.44 99.19 95.44 Z M 100.21 95.44 L 101.21 95.44 C 102.23 95.44 103.05 94.61 103.05 93.60 C 103.05 92.58 102.23 91.75 101.21 91.75 L 100.21 91.75 C 99.19 91.75 98.37 92.58 98.37 93.60 C 98.37 94.61 99.19 95.44 100.21 95.44 Z M 101.21 95.44 L 102.20 95.44 C 103.22 95.44 104.04 94.61 104.04 93.60 C 104.04 92.58 103.22 91.75 102.20 91.75 L 101.21 91.75 C 100.19 91.75 99.37 92.58 99.37 93.60 C 99.37 94.61 100.19 95.44 101.21 95.44 Z M 102.20 95.44 L 103.18 95.44 C 104.20 95.44 105.03 94.62 105.03 93.60 C 105.03 92.58 104.20 91.75 103.18 91.75 L 102.20 91.75 C 101.18 91.75 100.35 92.58 100.35 93.60 C 100.35 94.62 101.18 95.44 102.20 95.44 Z M 103.18 95.44 L 104.17 95.44 C 105.19 95.44 106.02 94.62 106.02 93.59 C 106.02 92.57 105.19 91.75 104.17 91.75 L 103.18 91.75 C 102.16 91.75 101.34 92.57 101.34 93.60 C 101.34 94.62 102.16 95.44 103.18 95.44 Z M 104.17 95.44 L 105.16 95.44 C 106.18 95.44 107.01 94.61 107.01 93.59 C 107.01 92.57 106.18 91.74 105.16 91.74 L 104.16 91.75 C 103.14 91.75 102.32 92.58 102.32 93.60 C 102.32 94.62 103.15 95.45 104.17 95.44 Z M 105.17 95.44 L 106.17 95.44 C 107.19 95.43 108.02 94.60 108.01 93.58 C 108.00 92.56 107.17 91.73 106.15 91.74 L 105.15 91.74 C 104.13 91.75 103.30 92.58 103.31 93.60 C 103.31 94.63 104.15 95.45 105.17 95.44 Z M 106.18 95.44 L 107.19 95.43 C 108.21 95.42 109.03 94.58 109.02 93.56 C 109.01 92.53 108.17 91.71 107.15 91.73 L 106.14 91.74 C 105.12 91.75 104.30 92.59 104.31 93.61 C 104.32 94.63 105.16 95.45 106.18 95.44 Z M 107.20 95.43 L 108.20 95.41 C 109.23 95.39 110.04 94.55 110.02 93.52 C 110.00 92.50 109.16 91.69 108.14 91.71 L 107.14 91.72 C 106.11 91.74 105.30 92.59 105.32 93.61 C 105.34 94.63 106.18 95.45 107.20 95.43 Z M 108.22 95.41 L 109.20 95.38 C 110.22 95.36 111.03 94.51 111.01 93.48 C 110.98 92.46 110.13 91.65 109.10 91.68 L 108.12 91.71 C 107.10 91.73 106.29 92.58 106.32 93.61 C 106.35 94.63 107.20 95.44 108.22 95.41 Z M 109.22 95.39 L 110.21 95.35 C 111.23 95.32 112.03 94.46 112.00 93.43 C 111.96 92.41 111.11 91.61 110.08 91.65 L 109.09 91.68 C 108.07 91.72 107.27 92.57 107.30 93.60 C 107.34 94.62 108.19 95.42 109.22 95.39 Z M 110.23 95.35 L 111.23 95.31 C 112.26 95.26 113.05 94.40 113.01 93.38 C 112.96 92.35 112.10 91.56 111.07 91.60 L 110.07 91.65 C 109.04 91.69 108.25 92.55 108.29 93.58 C 108.34 94.60 109.20 95.39 110.23 95.35 Z M 111.25 95.31 L 112.27 95.25 C 113.29 95.20 114.08 94.33 114.02 93.31 C 113.97 92.28 113.10 91.50 112.08 91.55 L 111.06 91.60 C 110.03 91.66 109.25 92.53 109.30 93.55 C 109.35 94.57 110.23 95.36 111.25 95.31 Z M 112.28 95.25 L 113.26 95.20 C 114.29 95.13 115.07 94.26 115.01 93.23 C 114.94 92.21 114.07 91.43 113.04 91.49 L 112.06 91.55 C 111.04 91.61 110.26 92.49 110.32 93.51 C 110.38 94.54 111.26 95.32 112.28 95.25 Z M 113.28 95.19 L 114.26 95.13 C 115.28 95.06 116.05 94.18 115.99 93.15 C 115.92 92.13 115.03 91.36 114.01 91.43 L 113.03 91.49 C 112.01 91.56 111.23 92.44 111.30 93.47 C 111.37 94.49 112.25 95.26 113.28 95.19 Z M 114.27 95.13 L 115.26 95.06 C 116.28 94.99 117.05 94.10 116.98 93.08 C 116.91 92.05 116.02 91.28 115.00 91.36 L 114.00 91.43 C 112.98 91.50 112.21 92.39 112.28 93.41 C 112.36 94.43 113.24 95.20 114.27 95.13 Z M 115.27 95.06 L 116.27 94.98 C 117.30 94.91 118.06 94.02 117.99 93.00 C 117.91 91.97 117.02 91.21 116.00 91.28 L 114.99 91.36 C 113.97 91.43 113.20 92.32 113.28 93.34 C 113.35 94.37 114.24 95.13 115.27 95.06 Z M 116.28 94.98 L 117.30 94.91 C 118.32 94.83 119.09 93.94 119.01 92.92 C 118.94 91.90 118.04 91.13 117.02 91.21 L 116.00 91.28 C 114.98 91.36 114.21 92.25 114.29 93.27 C 114.36 94.29 115.25 95.06 116.28 94.98 Z M 117.30 94.91 L 118.32 94.83 C 119.34 94.76 120.11 93.87 120.03 92.84 C 119.95 91.82 119.06 91.05 118.04 91.13 L 117.02 91.21 C 116.00 91.28 115.23 92.17 115.31 93.19 C 115.39 94.22 116.28 94.98 117.30 94.91 Z M 118.31 94.83 L 119.33 94.76 C 120.36 94.68 121.12 93.79 121.05 92.77 C 120.98 91.75 120.09 90.98 119.06 91.06 L 118.04 91.13 C 117.02 91.20 116.25 92.09 116.33 93.12 C 116.40 94.14 117.29 94.91 118.31 94.83 Z M 119.33 94.76 L 120.34 94.69 C 121.37 94.61 122.14 93.73 122.06 92.70 C 121.99 91.68 121.10 90.91 120.08 90.98 L 119.07 91.05 C 118.04 91.13 117.27 92.02 117.35 93.04 C 117.42 94.06 118.31 94.83 119.33 94.76 Z M 120.34 94.69 L 121.33 94.62 C 122.36 94.55 123.13 93.66 123.06 92.64 C 122.99 91.61 122.10 90.84 121.08 90.91 L 120.08 90.98 C 119.06 91.05 118.29 91.94 118.36 92.96 C 118.43 93.99 119.32 94.76 120.34 94.69 Z M 121.33 94.62 L 122.29 94.55 C 123.31 94.49 124.09 93.60 124.02 92.58 C 123.95 91.55 123.07 90.78 122.04 90.85 L 121.08 90.91 C 120.06 90.98 119.28 91.87 119.35 92.89 C 119.42 93.91 120.31 94.69 121.33 94.62 Z M 122.29 94.55 L 123.33 94.49 C 124.35 94.42 125.13 93.54 125.06 92.52 C 125.00 91.49 124.11 90.72 123.09 90.78 L 122.05 90.85 C 121.03 90.91 120.25 91.80 120.31 92.82 C 120.38 93.84 121.26 94.62 122.29 94.55 Z M 123.32 94.49 L 124.35 94.43 C 125.37 94.36 126.15 93.48 126.09 92.46 C 126.02 91.44 125.14 90.66 124.12 90.72 L 123.09 90.78 C 122.07 90.84 121.29 91.72 121.35 92.75 C 121.42 93.77 122.30 94.55 123.32 94.49 Z M 124.34 94.43 L 125.33 94.37 C 126.35 94.31 127.13 93.43 127.07 92.41 C 127.01 91.38 126.13 90.60 125.11 90.66 L 124.12 90.72 C 123.10 90.78 122.32 91.66 122.38 92.68 C 122.44 93.70 123.32 94.49 124.34 94.43 Z M 125.32 94.37 L 126.28 94.31 C 127.31 94.25 128.09 93.38 128.03 92.35 C 127.97 91.33 127.09 90.55 126.07 90.61 L 125.11 90.66 C 124.09 90.72 123.30 91.60 123.36 92.62 C 123.42 93.64 124.30 94.43 125.32 94.37 Z M 126.28 94.31 L 127.26 94.26 C 128.28 94.20 129.06 93.32 129.00 92.30 C 128.95 91.27 128.07 90.49 127.04 90.55 L 126.07 90.61 C 125.05 90.66 124.26 91.54 124.32 92.57 C 124.38 93.59 125.26 94.37 126.28 94.31 Z M 127.26 94.26 L 128.26 94.20 C 129.29 94.14 130.07 93.26 130.01 92.24 C 129.95 91.22 129.07 90.43 128.05 90.49 L 127.05 90.55 C 126.02 90.61 125.24 91.49 125.30 92.51 C 125.36 93.53 126.23 94.32 127.26 94.26 Z M 128.26 94.20 L 129.26 94.14 C 130.28 94.09 131.07 93.21 131.01 92.19 C 130.95 91.16 130.08 90.38 129.05 90.44 L 128.05 90.49 C 127.03 90.55 126.25 91.43 126.30 92.45 C 126.36 93.47 127.24 94.26 128.26 94.20 Z M 129.25 94.14 L 130.24 94.09 C 131.27 94.04 132.05 93.16 132.00 92.14 C 131.95 91.12 131.07 90.33 130.05 90.39 L 129.06 90.44 C 128.03 90.49 127.25 91.36 127.30 92.39 C 127.36 93.41 128.23 94.20 129.25 94.14 Z M 130.24 94.09 L 131.23 94.04 C 132.26 93.99 133.04 93.12 133.00 92.10 C 132.95 91.08 132.08 90.29 131.05 90.34 L 130.06 90.39 C 129.03 90.43 128.24 91.30 128.29 92.33 C 128.34 93.35 129.21 94.14 130.24 94.09 Z M 131.22 94.04 L 132.22 94.00 C 133.25 93.96 134.04 93.09 134.00 92.07 C 133.95 91.04 133.09 90.25 132.06 90.29 L 131.06 90.34 C 130.04 90.38 129.24 91.25 129.29 92.27 C 129.33 93.29 130.20 94.09 131.22 94.04 Z M 132.21 94.00 L 133.21 93.96 C 134.23 93.93 135.03 93.07 135.00 92.04 C 134.96 91.02 134.10 90.22 133.08 90.26 L 132.08 90.29 C 131.05 90.33 130.25 91.19 130.29 92.21 C 130.33 93.24 131.19 94.04 132.21 94.00 Z M 133.19 93.96 L 134.19 93.94 C 135.21 93.91 136.02 93.06 135.99 92.03 C 135.96 91.01 135.11 90.20 134.09 90.23 L 133.09 90.26 C 132.07 90.29 131.26 91.14 131.29 92.16 C 131.32 93.19 132.17 93.99 133.19 93.96 Z M 134.17 93.94 L 135.17 93.92 C 136.20 93.90 137.01 93.05 136.99 92.03 C 136.97 91.01 136.13 90.19 135.10 90.21 L 134.10 90.23 C 133.08 90.25 132.27 91.10 132.29 92.12 C 132.31 93.14 133.15 93.96 134.17 93.94 Z M 135.16 93.92 L 136.16 93.91 C 137.18 93.89 138.00 93.06 137.99 92.03 C 137.98 91.01 137.14 90.19 136.12 90.20 L 135.12 90.21 C 134.10 90.22 133.28 91.06 133.29 92.08 C 133.30 93.11 134.14 93.93 135.16 93.92 Z M 136.15 93.90 L 137.15 93.90 C 138.17 93.90 139.00 93.06 138.99 92.04 C 138.99 91.02 138.16 90.19 137.13 90.20 L 136.13 90.20 C 135.11 90.21 134.29 91.04 134.29 92.06 C 134.29 93.08 135.13 93.91 136.15 93.90 Z M 137.14 93.90 L 138.14 93.90 C 139.16 93.90 139.99 93.07 139.99 92.05 C 139.99 91.02 139.16 90.20 138.14 90.20 L 137.14 90.20 C 136.12 90.20 135.29 91.03 135.29 92.05 C 135.29 93.07 136.12 93.90 137.14 93.90 Z M 138.14 93.90 L 139.13 93.90 C 140.15 93.90 140.98 93.07 140.98 92.05 C 140.98 91.03 140.15 90.20 139.13 90.20 L 138.14 90.20 C 137.12 90.20 136.29 91.03 136.29 92.05 C 136.29 93.07 137.12 93.90 138.14 93.90 Z M 139.13 93.89 L 140.13 93.89 C 141.14 93.89 141.97 93.07 141.97 92.05 C 141.97 91.03 141.14 90.20 140.13 90.20 L 139.13 90.20 C 138.11 90.20 137.29 91.03 137.29 92.05 C 137.29 93.07 138.11 93.89 139.13 93.89 Z M 140.13 93.89 L 141.12 93.89 C 142.14 93.89 142.97 93.07 142.97 92.05 C 142.97 91.03 142.14 90.21 141.12 90.21 L 140.13 90.21 C 139.11 90.21 138.28 91.03 138.28 92.05 C 138.28 93.07 139.11 93.89 140.13 93.89 Z M 141.12 93.89 L 142.13 93.89 C 143.15 93.89 143.97 93.06 143.97 92.05 C 143.97 91.03 143.15 90.21 142.13 90.21 L 141.12 90.21 C 140.11 90.21 139.28 91.03 139.28 92.05 C 139.28 93.06 140.11 93.89 141.12 93.89 Z M 142.13 93.89 L 143.16 93.89 C 144.17 93.89 144.99 93.06 144.99 92.05 C 144.99 91.03 144.17 90.21 143.16 90.21 L 142.13 90.21 C 141.12 90.21 140.29 91.03 140.29 92.05 C 140.29 93.06 141.12 93.89 142.13 93.89 Z M 143.16 93.88 L 144.18 93.88 C 145.20 93.88 146.02 93.06 146.02 92.05 C 146.02 91.04 145.20 90.21 144.18 90.21 L 143.16 90.21 C 142.14 90.21 141.32 91.04 141.32 92.05 C 141.32 93.06 142.14 93.88 143.16 93.88 Z M 144.18 93.88 L 145.19 93.88 C 146.20 93.88 147.02 93.06 147.02 92.05 C 147.02 91.04 146.20 90.22 145.19 90.22 L 144.18 90.22 C 143.17 90.22 142.36 91.04 142.36 92.05 C 142.36 93.06 143.17 93.88 144.18 93.88 Z M 145.19 93.87 L 146.16 93.87 C 147.17 93.87 147.98 93.06 147.98 92.05 C 147.98 91.04 147.17 90.22 146.16 90.22 L 145.19 90.22 C 144.19 90.22 143.37 91.04 143.37 92.05 C 143.37 93.06 144.19 93.87 145.19 93.87 Z M 146.16 93.87 L 147.20 93.87 C 148.21 93.87 149.02 93.05 149.02 92.05 C 149.02 91.04 148.21 90.23 147.20 90.23 L 146.16 90.23 C 145.15 90.23 144.34 91.04 144.34 92.05 C 144.34 93.05 145.15 93.87 146.16 93.87 Z M 147.20 93.87 L 148.21 93.87 C 149.22 93.87 150.03 93.06 150.03 92.05 C 150.04 91.05 149.22 90.23 148.22 90.23 L 147.21 90.23 C 146.20 90.23 145.39 91.04 145.39 92.04 C 145.38 93.05 146.20 93.86 147.20 93.87 Z M 148.20 93.86 L 149.15 93.87 C 150.16 93.88 150.97 93.07 150.98 92.07 C 150.99 91.07 150.18 90.25 149.18 90.24 L 148.23 90.24 C 147.23 90.23 146.41 91.04 146.40 92.04 C 146.39 93.04 147.20 93.86 148.20 93.86 Z M 149.14 93.87 L 150.12 93.88 C 151.12 93.90 151.94 93.10 151.96 92.10 C 151.97 91.10 151.17 90.28 150.17 90.26 L 149.20 90.25 C 148.20 90.23 147.37 91.03 147.36 92.03 C 147.34 93.03 148.14 93.85 149.14 93.87 Z M 150.09 93.88 L 151.10 93.91 C 152.09 93.94 152.93 93.15 152.96 92.15 C 152.98 91.16 152.20 90.32 151.20 90.30 L 150.20 90.27 C 149.20 90.24 148.37 91.02 148.34 92.02 C 148.31 93.02 149.10 93.85 150.09 93.88 Z M 151.06 93.90 L 152.05 93.95 C 153.05 94.00 153.89 93.23 153.94 92.24 C 153.99 91.24 153.22 90.40 152.23 90.35 L 151.24 90.30 C 150.24 90.25 149.40 91.02 149.35 92.01 C 149.30 93.01 150.07 93.85 151.06 93.90 Z M 152.01 93.94 L 153.01 94.02 C 154.00 94.09 154.86 93.34 154.93 92.35 C 155.00 91.36 154.26 90.50 153.27 90.43 L 152.27 90.36 C 151.28 90.28 150.42 91.03 150.35 92.02 C 150.27 93.01 151.02 93.87 152.01 93.94 Z M 152.97 94.01 L 153.97 94.10 C 154.96 94.19 155.83 93.46 155.92 92.48 C 156.01 91.49 155.28 90.62 154.30 90.53 L 153.30 90.44 C 152.31 90.35 151.44 91.07 151.35 92.06 C 151.26 93.05 151.99 93.92 152.97 94.01 Z M 153.96 94.09 L 154.95 94.19 C 155.93 94.29 156.81 93.57 156.90 92.58 C 157.00 91.60 156.28 90.73 155.30 90.63 L 154.31 90.53 C 153.32 90.44 152.45 91.16 152.35 92.14 C 152.26 93.12 152.98 94.00 153.96 94.09 Z M 154.96 94.19 L 155.95 94.28 C 156.93 94.37 157.80 93.65 157.89 92.67 C 157.98 91.69 157.26 90.82 156.28 90.73 L 155.29 90.63 C 154.31 90.54 153.44 91.26 153.35 92.25 C 153.26 93.23 153.98 94.10 154.96 94.19 Z M 155.95 94.28 L 156.95 94.37 C 157.93 94.45 158.79 93.73 158.88 92.75 C 158.97 91.78 158.25 90.91 157.27 90.82 L 156.28 90.73 C 155.30 90.64 154.43 91.36 154.34 92.34 C 154.25 93.32 154.98 94.19 155.95 94.28 Z M 156.94 94.36 L 157.94 94.45 C 158.91 94.55 159.78 93.83 159.87 92.86 C 159.96 91.88 159.25 91.01 158.27 90.92 L 157.28 90.83 C 156.30 90.73 155.44 91.45 155.34 92.43 C 155.25 93.40 155.97 94.27 156.94 94.36 Z M 157.93 94.45 L 158.89 94.55 C 159.86 94.64 160.73 93.94 160.83 92.96 C 160.93 91.99 160.22 91.12 159.25 91.02 L 158.28 90.93 C 157.31 90.83 156.44 91.54 156.34 92.51 C 156.25 93.48 156.95 94.35 157.93 94.45 Z M 158.89 94.54 L 159.89 94.64 C 160.86 94.74 161.72 94.03 161.82 93.06 C 161.92 92.09 161.21 91.22 160.24 91.13 L 159.24 91.03 C 158.27 90.93 157.41 91.64 157.31 92.61 C 157.21 93.58 157.92 94.45 158.89 94.54 Z M 159.91 94.64 L 160.94 94.73 C 161.91 94.82 162.76 94.10 162.85 93.13 C 162.93 92.16 162.22 91.31 161.25 91.22 L 160.22 91.13 C 159.25 91.04 158.39 91.76 158.31 92.73 C 158.22 93.70 158.94 94.55 159.91 94.64 Z M 160.96 94.73 L 161.96 94.80 C 162.92 94.88 163.77 94.15 163.84 93.18 C 163.91 92.22 163.19 91.37 162.22 91.30 L 161.23 91.22 C 160.26 91.15 159.41 91.88 159.34 92.84 C 159.27 93.81 159.99 94.65 160.96 94.73 Z M 161.97 94.80 L 162.98 94.87 C 163.94 94.94 164.78 94.21 164.85 93.24 C 164.91 92.28 164.19 91.44 163.22 91.37 L 162.21 91.30 C 161.24 91.24 160.41 91.97 160.34 92.93 C 160.27 93.90 161.00 94.73 161.97 94.80 Z M 162.98 94.86 L 163.97 94.93 C 164.94 95.00 165.77 94.27 165.84 93.31 C 165.90 92.34 165.17 91.51 164.21 91.45 L 163.22 91.38 C 162.26 91.31 161.42 92.04 161.36 93.00 C 161.29 93.97 162.02 94.80 162.98 94.86 Z M 163.97 94.93 L 165.00 95.00 C 165.96 95.07 166.79 94.35 166.86 93.39 C 166.93 92.43 166.21 91.60 165.25 91.53 L 164.22 91.45 C 163.26 91.38 162.42 92.10 162.35 93.06 C 162.28 94.02 163.01 94.86 163.97 94.93 Z M 164.99 95.00 L 165.98 95.07 C 166.94 95.14 167.77 94.43 167.85 93.47 C 167.92 92.51 167.20 91.68 166.25 91.61 L 165.25 91.53 C 164.30 91.46 163.46 92.18 163.39 93.13 C 163.32 94.09 164.03 94.92 164.99 95.00 Z M 165.99 95.07 L 166.96 95.14 C 167.91 95.21 168.74 94.49 168.81 93.54 C 168.88 92.59 168.16 91.76 167.21 91.69 L 166.24 91.61 C 165.29 91.54 164.46 92.26 164.39 93.21 C 164.32 94.16 165.03 94.99 165.99 95.07 Z M 166.97 95.13 L 167.97 95.20 C 168.92 95.26 169.74 94.54 169.80 93.59 C 169.87 92.64 169.15 91.82 168.20 91.76 L 167.20 91.69 C 166.25 91.63 165.43 92.34 165.36 93.29 C 165.30 94.25 166.02 95.07 166.97 95.13 Z M 167.98 95.20 L 168.98 95.26 C 169.92 95.31 170.74 94.59 170.80 93.65 C 170.86 92.70 170.14 91.88 169.19 91.82 L 168.19 91.76 C 167.24 91.70 166.42 92.42 166.37 93.37 C 166.31 94.32 167.03 95.14 167.98 95.20 Z M 168.98 95.25 L 169.98 95.31 C 170.92 95.36 171.73 94.64 171.79 93.70 C 171.84 92.75 171.12 91.94 170.18 91.88 L 169.18 91.83 C 168.23 91.77 167.42 92.50 167.37 93.44 C 167.31 94.39 168.04 95.20 168.98 95.25 Z M 169.98 95.30 L 170.99 95.36 C 171.93 95.41 172.74 94.69 172.79 93.75 C 172.84 92.80 172.12 92.00 171.18 91.95 L 170.17 91.89 C 169.23 91.84 168.42 92.56 168.37 93.50 C 168.32 94.45 169.04 95.25 169.98 95.30 Z M 171.00 95.35 L 172.00 95.40 C 172.93 95.45 173.73 94.72 173.78 93.78 C 173.82 92.85 173.10 92.05 172.16 92.00 L 171.17 91.95 C 170.23 91.91 169.43 92.63 169.38 93.57 C 169.34 94.51 170.06 95.30 171.00 95.35 Z M 172.01 95.39 L 173.01 95.43 C 173.94 95.47 174.73 94.74 174.77 93.81 C 174.80 92.88 174.08 92.09 173.14 92.05 L 172.15 92.01 C 171.21 91.97 170.43 92.70 170.39 93.63 C 170.35 94.57 171.08 95.35 172.01 95.39 Z M 173.02 95.43 L 174.02 95.46 C 174.95 95.49 175.73 94.76 175.76 93.83 C 175.79 92.90 175.06 92.12 174.13 92.09 L 173.13 92.06 C 172.20 92.03 171.42 92.76 171.39 93.69 C 171.36 94.62 172.09 95.40 173.02 95.43 Z M 174.03 95.45 L 175.03 95.48 C 175.95 95.51 176.73 94.77 176.75 93.85 C 176.78 92.92 176.05 92.15 175.12 92.12 L 174.12 92.09 C 173.19 92.07 172.42 92.80 172.40 93.73 C 172.37 94.65 173.10 95.43 174.03 95.45 Z M 175.03 95.47 L 176.02 95.50 C 176.94 95.53 177.71 94.80 177.74 93.87 C 177.76 92.95 177.04 92.18 176.11 92.15 L 175.12 92.13 C 174.19 92.10 173.42 92.83 173.40 93.75 C 173.37 94.68 174.10 95.45 175.03 95.47 Z M 176.01 95.50 L 177.01 95.53 C 177.93 95.55 178.70 94.83 178.73 93.91 C 178.76 92.99 178.03 92.22 177.11 92.19 L 176.11 92.16 C 175.19 92.13 174.42 92.86 174.40 93.78 C 174.37 94.70 175.09 95.47 176.01 95.50 Z M 177.01 95.52 L 178.02 95.55 C 178.94 95.58 179.70 94.86 179.73 93.94 C 179.76 93.02 179.04 92.25 178.12 92.22 L 177.11 92.19 C 176.19 92.17 175.42 92.89 175.40 93.81 C 175.37 94.73 176.09 95.49 177.01 95.52 Z M 178.02 95.55 L 179.03 95.58 C 179.95 95.61 180.71 94.89 180.74 93.97 C 180.77 93.05 180.05 92.29 179.13 92.26 L 178.12 92.23 C 177.20 92.20 176.43 92.92 176.41 93.84 C 176.38 94.76 177.10 95.52 178.02 95.55 Z M 179.03 95.58 L 180.04 95.61 C 180.96 95.64 181.72 94.91 181.75 94.00 C 181.78 93.08 181.06 92.32 180.14 92.29 L 179.13 92.26 C 178.21 92.23 177.45 92.95 177.42 93.87 C 177.39 94.79 178.12 95.55 179.03 95.58 Z M 180.04 95.61 L 181.03 95.64 C 181.95 95.66 182.71 94.94 182.74 94.02 C 182.76 93.11 182.04 92.34 181.12 92.32 L 180.14 92.29 C 179.22 92.26 178.46 92.98 178.43 93.90 C 178.40 94.82 179.13 95.58 180.04 95.61 Z M 181.03 95.64 L 182.05 95.66 C 182.97 95.69 183.73 94.97 183.76 94.05 C 183.78 93.13 183.06 92.37 182.14 92.35 L 181.12 92.32 C 180.20 92.29 179.44 93.02 179.42 93.93 C 179.39 94.85 180.12 95.61 181.03 95.64 Z M 182.06 95.66 L 183.04 95.68 C 183.96 95.70 184.72 94.98 184.74 94.06 C 184.76 93.14 184.03 92.38 183.11 92.37 L 182.13 92.35 C 181.22 92.33 180.46 93.05 180.44 93.97 C 180.42 94.89 181.15 95.64 182.06 95.66 Z M 183.06 95.68 L 184.04 95.70 C 184.96 95.71 185.71 94.97 185.72 94.06 C 185.73 93.14 185.00 92.39 184.08 92.38 L 183.10 92.37 C 182.18 92.36 181.43 93.09 181.42 94.01 C 181.41 94.92 182.14 95.67 183.06 95.68 Z M 184.06 95.70 L 185.06 95.70 C 185.97 95.70 186.72 94.96 186.72 94.05 C 186.72 93.13 185.98 92.38 185.07 92.38 L 184.07 92.38 C 183.15 92.37 182.41 93.11 182.40 94.03 C 182.40 94.95 183.14 95.69 184.06 95.70 Z M 185.06 95.70 L 186.07 95.70 C 186.98 95.70 187.73 94.96 187.73 94.04 C 187.73 93.12 186.98 92.38 186.07 92.38 L 185.06 92.38 C 184.15 92.38 183.40 93.12 183.40 94.04 C 183.40 94.96 184.15 95.70 185.06 95.70 Z M 186.07 95.70 L 187.07 95.70 C 187.98 95.70 188.73 94.96 188.73 94.04 C 188.73 93.12 187.98 92.38 187.07 92.38 L 186.07 92.38 C 185.15 92.38 184.41 93.12 184.41 94.04 C 184.41 94.96 185.15 95.70 186.07 95.70 Z M 187.07 95.70 L 188.07 95.70 C 188.98 95.70 189.73 94.96 189.73 94.04 C 189.73 93.12 188.98 92.38 188.07 92.38 L 187.07 92.38 C 186.15 92.38 185.41 93.12 185.41 94.04 C 185.41 94.96 186.15 95.70 187.07 95.70 Z M 188.07 95.70 L 189.08 95.70 C 190.00 95.70 190.74 94.96 190.74 94.04 C 190.74 93.12 190.00 92.38 189.08 92.38 L 188.07 92.38 C 187.15 92.38 186.41 93.12 186.41 94.04 C 186.41 94.96 187.15 95.70 188.07 95.70 Z M 189.08 95.70 L 190.08 95.70 C 191.00 95.70 191.74 94.96 191.74 94.04 C 191.74 93.12 191.00 92.38 190.08 92.38 L 189.08 92.38 C 188.17 92.38 187.42 93.12 187.42 94.04 C 187.42 94.96 188.17 95.70 189.08 95.70 Z M 190.08 95.70 L 191.08 95.70 C 191.99 95.70 192.74 94.96 192.74 94.04 C 192.74 93.12 191.99 92.38 191.08 92.38 L 190.08 92.38 C 189.16 92.38 188.42 93.12 188.42 94.04 C 188.42 94.96 189.16 95.70 190.08 95.70 Z M 191.08 95.70 L 192.07 95.70 C 192.99 95.70 193.74 94.96 193.74 94.04 C 193.74 93.12 192.99 92.38 192.07 92.38 L 191.08 92.38 C 190.16 92.38 189.41 93.12 189.41 94.04 C 189.41 94.96 190.16 95.70 191.08 95.70 Z M 192.07 95.71 L 193.08 95.71 C 194.00 95.71 194.74 94.96 194.74 94.04 C 194.74 93.12 194.00 92.37 193.08 92.37 L 192.07 92.37 C 191.15 92.37 190.41 93.12 190.41 94.04 C 190.41 94.96 191.15 95.71 192.07 95.71 Z M 193.08 95.71 L 194.11 95.71 C 195.03 95.71 195.78 94.96 195.78 94.04 C 195.78 93.12 195.03 92.37 194.11 92.37 L 193.08 92.37 C 192.16 92.37 191.41 93.12 191.41 94.04 C 191.41 94.96 192.16 95.71 193.08 95.71 Z M 194.11 95.71 L 195.07 95.71 C 195.99 95.71 196.74 94.96 196.74 94.04 C 196.74 93.12 195.99 92.37 195.07 92.37 L 194.11 92.37 C 193.19 92.37 192.44 93.12 192.44 94.04 C 192.44 94.96 193.19 95.71 194.11 95.71 Z M 195.07 95.71 L 196.03 95.71 C 196.95 95.71 197.70 94.96 197.70 94.04 C 197.70 93.12 196.95 92.37 196.03 92.37 L 195.07 92.37 C 194.14 92.37 193.40 93.12 193.40 94.04 C 193.40 94.96 194.14 95.71 195.07 95.71 Z M 196.03 95.71 L 197.02 95.71 C 197.94 95.71 198.69 94.96 198.69 94.04 C 198.69 93.12 197.94 92.37 197.02 92.37 L 196.03 92.37 C 195.10 92.37 194.35 93.12 194.35 94.04 C 194.35 94.96 195.10 95.71 196.03 95.71 Z M 197.01 95.71 L 197.94 95.72 C 198.86 95.72 199.61 94.97 199.62 94.04 C 199.62 93.12 198.87 92.37 197.95 92.37 L 197.02 92.37 C 196.09 92.36 195.34 93.11 195.34 94.04 C 195.34 94.96 196.09 95.71 197.01 95.71 Z M 197.93 95.72 L 199.00 95.72 C 199.92 95.73 200.68 94.99 200.68 94.06 C 200.69 93.14 199.94 92.38 199.02 92.37 L 197.95 92.37 C 197.03 92.36 196.27 93.11 196.27 94.03 C 196.26 94.96 197.01 95.71 197.93 95.72 Z M 198.98 95.73 L 200.05 95.74 C 200.97 95.75 201.73 95.01 201.74 94.09 C 201.76 93.16 201.02 92.40 200.09 92.39 L 199.03 92.37 C 198.11 92.36 197.35 93.10 197.33 94.03 C 197.32 94.95 198.06 95.71 198.98 95.73 Z M 200.03 95.74 L 201.06 95.76 C 201.98 95.79 202.75 95.05 202.77 94.13 C 202.79 93.20 202.06 92.43 201.13 92.41 L 200.11 92.39 C 199.18 92.37 198.41 93.10 198.39 94.03 C 198.37 94.95 199.10 95.72 200.03 95.74 Z M 201.04 95.77 L 202.04 95.80 C 202.97 95.83 203.75 95.11 203.78 94.18 C 203.81 93.25 203.08 92.48 202.16 92.44 L 201.15 92.41 C 200.23 92.38 199.45 93.10 199.42 94.03 C 199.38 94.96 200.11 95.73 201.04 95.77 Z M 202.01 95.80 L 203.05 95.86 C 203.97 95.91 204.77 95.20 204.82 94.27 C 204.87 93.34 204.15 92.55 203.23 92.50 L 202.19 92.44 C 201.26 92.39 200.47 93.11 200.42 94.03 C 200.37 94.96 201.08 95.75 202.01 95.80 Z M 203.01 95.86 L 204.05 95.94 C 204.97 96.01 205.78 95.32 205.86 94.39 C 205.93 93.47 205.24 92.66 204.31 92.58 L 203.27 92.50 C 202.34 92.43 201.53 93.12 201.46 94.05 C 201.39 94.97 202.08 95.78 203.01 95.86 Z M 204.02 95.94 L 204.90 96.02 C 205.82 96.11 206.64 95.43 206.73 94.51 C 206.82 93.58 206.14 92.76 205.22 92.67 L 204.34 92.59 C 203.42 92.50 202.59 93.17 202.51 94.10 C 202.42 95.02 203.09 95.85 204.02 95.94 Z M 204.90 96.02 L 205.91 96.12 C 206.84 96.21 207.66 95.53 207.75 94.61 C 207.84 93.68 207.16 92.86 206.24 92.77 L 205.22 92.67 C 204.30 92.58 203.47 93.26 203.38 94.18 C 203.29 95.11 203.97 95.93 204.90 96.02 Z M 205.93 96.12 L 206.88 96.20 C 207.81 96.29 208.63 95.60 208.71 94.68 C 208.79 93.75 208.11 92.94 207.18 92.85 L 206.23 92.77 C 205.30 92.69 204.48 93.37 204.40 94.29 C 204.32 95.22 205.00 96.04 205.93 96.12 Z M 206.91 96.21 L 207.90 96.28 C 208.83 96.35 209.64 95.65 209.70 94.73 C 209.77 93.80 209.08 92.99 208.15 92.93 L 207.16 92.85 C 206.23 92.78 205.43 93.48 205.36 94.41 C 205.29 95.33 205.99 96.14 206.91 96.21 Z M 207.96 96.28 L 208.97 96.32 C 209.90 96.36 210.68 95.64 210.72 94.71 C 210.76 93.79 210.04 93.00 209.11 92.97 L 208.10 92.92 C 207.17 92.89 206.39 93.61 206.35 94.53 C 206.31 95.46 207.03 96.24 207.96 96.28 Z M 209.02 96.32 L 210.02 96.33 C 210.95 96.34 211.71 95.60 211.72 94.67 C 211.73 93.75 210.99 92.99 210.06 92.98 L 209.06 92.97 C 208.13 92.96 207.37 93.70 207.36 94.63 C 207.35 95.55 208.10 96.31 209.02 96.32 Z M 210.04 96.33 L 211.04 96.33 C 211.97 96.33 212.72 95.58 212.72 94.66 C 212.72 93.73 211.97 92.98 211.05 92.98 L 210.04 92.98 C 209.12 92.98 208.37 93.73 208.37 94.65 C 208.37 95.58 209.12 96.33 210.04 96.33 Z M 211.04 96.33 L 212.04 96.33 C 212.97 96.33 213.72 95.58 213.72 94.65 C 213.72 93.73 212.97 92.98 212.04 92.98 L 211.04 92.98 C 210.12 92.98 209.37 93.73 209.37 94.65 C 209.37 95.58 210.12 96.33 211.04 96.33 Z M 212.04 96.33 L 213.04 96.33 C 213.97 96.33 214.72 95.58 214.72 94.65 C 214.72 93.73 213.97 92.98 213.04 92.98 L 212.04 92.98 C 211.12 92.98 210.37 93.73 210.37 94.65 C 210.37 95.58 211.12 96.33 212.04 96.33 Z M 213.04 96.33 L 214.04 96.33 C 214.97 96.33 215.72 95.58 215.72 94.65 C 215.72 93.73 214.97 92.98 214.04 92.98 L 213.04 92.98 C 212.12 92.98 211.37 93.73 211.37 94.65 C 211.37 95.58 212.12 96.33 213.04 96.33 Z M 214.05 96.33 L 215.06 96.32 C 215.98 96.32 216.73 95.58 216.73 94.65 C 216.73 93.73 215.98 92.98 215.06 92.98 L 214.04 92.98 C 213.12 92.98 212.37 93.73 212.37 94.66 C 212.38 95.58 213.12 96.33 214.05 96.33 Z M 215.07 96.32 L 216.06 96.32 C 216.99 96.31 217.73 95.56 217.72 94.63 C 217.71 93.71 216.96 92.97 216.04 92.98 L 215.04 92.98 C 214.12 92.99 213.38 93.74 213.39 94.67 C 213.39 95.59 214.15 96.33 215.07 96.32 Z M 216.09 96.32 L 217.01 96.30 C 217.93 96.28 218.67 95.51 218.65 94.59 C 218.63 93.67 217.86 92.94 216.94 92.96 L 216.02 92.98 C 215.09 93.00 214.36 93.76 214.38 94.68 C 214.40 95.61 215.16 96.34 216.09 96.32 Z M 217.01 96.30 L 218.05 96.28 C 218.97 96.26 219.71 95.49 219.69 94.57 C 219.67 93.64 218.90 92.91 217.98 92.93 L 216.94 92.95 C 216.02 92.97 215.28 93.74 215.30 94.66 C 215.32 95.59 216.09 96.32 217.01 96.30 Z M 218.03 96.28 L 219.05 96.27 C 219.98 96.26 220.72 95.50 220.71 94.58 C 220.70 93.65 219.94 92.91 219.02 92.92 L 218.00 92.93 C 217.07 92.94 216.33 93.70 216.34 94.62 C 216.34 95.55 217.10 96.29 218.03 96.28 Z M 219.04 96.28 L 220.08 96.27 C 221.01 96.27 221.76 95.51 221.75 94.59 C 221.75 93.66 221.00 92.91 220.07 92.91 L 219.03 92.91 C 218.10 92.92 217.35 93.67 217.35 94.60 C 217.35 95.53 218.11 96.28 219.04 96.28 Z M 220.07 96.28 L 221.08 96.28 C 222.01 96.28 222.76 95.52 222.76 94.59 C 222.76 93.66 222.01 92.91 221.08 92.91 L 220.07 92.91 C 219.14 92.91 218.39 93.66 218.39 94.59 C 218.39 95.52 219.14 96.28 220.07 96.28 Z M 221.06 96.28 L 222.07 96.29 C 223.00 96.30 223.77 95.55 223.78 94.62 C 223.79 93.69 223.04 92.93 222.11 92.92 L 221.10 92.90 C 220.17 92.89 219.40 93.64 219.39 94.57 C 219.38 95.50 220.13 96.27 221.06 96.28 Z M 221.98 96.29 L 222.92 96.35 C 223.85 96.41 224.66 95.71 224.72 94.77 C 224.78 93.84 224.07 93.04 223.14 92.98 L 222.20 92.92 C 221.27 92.86 220.47 93.56 220.41 94.49 C 220.35 95.42 221.05 96.23 221.98 96.29 Z M 222.84 96.34 L 223.85 96.46 C 224.78 96.57 225.61 95.90 225.72 94.97 C 225.83 94.05 225.16 93.21 224.23 93.10 L 223.23 92.98 C 222.30 92.88 221.46 93.54 221.35 94.47 C 221.25 95.40 221.91 96.24 222.84 96.34 Z M 223.83 96.46 L 224.81 96.59 C 225.73 96.70 226.58 96.05 226.70 95.12 C 226.82 94.19 226.16 93.34 225.23 93.22 L 224.25 93.10 C 223.33 92.98 222.48 93.64 222.36 94.57 C 222.24 95.50 222.90 96.34 223.83 96.46 Z M 224.83 96.59 L 225.79 96.70 C 226.72 96.80 227.56 96.13 227.66 95.20 C 227.76 94.27 227.09 93.43 226.16 93.32 L 225.21 93.22 C 224.28 93.12 223.44 93.79 223.33 94.72 C 223.23 95.65 223.90 96.49 224.83 96.59 Z M 225.81 96.70 L 226.82 96.80 C 227.76 96.88 228.58 96.20 228.67 95.26 C 228.76 94.33 228.07 93.50 227.14 93.41 L 226.13 93.32 C 225.20 93.23 224.37 93.92 224.28 94.85 C 224.20 95.79 224.88 96.61 225.81 96.70 Z M 226.85 96.80 L 227.85 96.88 C 228.79 96.95 229.61 96.26 229.68 95.32 C 229.76 94.39 229.06 93.57 228.12 93.49 L 227.12 93.41 C 226.18 93.34 225.36 94.03 225.29 94.97 C 225.21 95.90 225.91 96.72 226.85 96.80 Z M 227.88 96.88 L 228.91 96.95 C 229.84 97.01 230.65 96.29 230.71 95.35 C 230.77 94.42 230.06 93.61 229.12 93.55 L 228.09 93.49 C 227.16 93.43 226.35 94.14 226.29 95.08 C 226.23 96.02 226.94 96.82 227.88 96.88 Z M 228.96 96.95 L 230.02 96.99 C 230.96 97.02 231.75 96.28 231.78 95.34 C 231.81 94.40 231.08 93.61 230.13 93.58 L 229.07 93.55 C 228.13 93.52 227.34 94.25 227.31 95.19 C 227.28 96.13 228.02 96.92 228.96 96.95 Z M 230.07 96.99 L 231.02 97.00 C 231.96 97.01 232.73 96.25 232.74 95.30 C 232.75 94.36 231.99 93.59 231.05 93.58 L 230.09 93.58 C 229.15 93.57 228.38 94.33 228.37 95.27 C 228.36 96.21 229.12 96.98 230.07 96.99 Z M 231.03 97.00 L 232.03 97.00 C 232.98 97.00 233.74 96.24 233.74 95.29 C 233.74 94.35 232.98 93.58 232.03 93.58 L 231.03 93.58 C 230.09 93.58 229.32 94.35 229.32 95.29 C 229.32 96.24 230.09 97.00 231.03 97.00 Z M 232.03 97.00 L 233.01 97.00 C 233.96 97.00 234.72 96.24 234.72 95.29 C 234.72 94.35 233.96 93.58 233.01 93.58 L 232.03 93.58 C 231.09 93.58 230.32 94.35 230.32 95.29 C 230.32 96.24 231.09 97.00 232.03 97.00 Z M 233.02 97.00 L 234.02 97.00 C 234.96 96.99 235.72 96.22 235.72 95.28 C 235.72 94.33 234.95 93.57 234.00 93.58 L 233.00 93.58 C 232.06 93.58 231.30 94.35 231.30 95.30 C 231.31 96.24 232.08 97.01 233.02 97.00 Z M 234.07 97.00 L 235.07 96.96 C 236.01 96.93 236.75 96.14 236.72 95.20 C 236.69 94.25 235.90 93.51 234.95 93.54 L 233.95 93.58 C 233.01 93.61 232.27 94.40 232.30 95.34 C 232.33 96.29 233.12 97.03 234.07 97.00 Z M 235.15 96.96 L 236.14 96.88 C 237.08 96.80 237.78 95.97 237.71 95.03 C 237.63 94.09 236.80 93.39 235.86 93.47 L 234.87 93.55 C 233.93 93.63 233.23 94.45 233.30 95.39 C 233.38 96.33 234.21 97.03 235.15 96.96 Z M 236.21 96.87 L 237.20 96.75 C 238.13 96.63 238.80 95.78 238.68 94.84 C 238.57 93.90 237.71 93.24 236.77 93.35 L 235.79 93.47 C 234.85 93.59 234.19 94.44 234.30 95.38 C 234.42 96.32 235.28 96.99 236.21 96.87 Z M 237.25 96.74 L 238.23 96.59 C 239.16 96.44 239.80 95.57 239.66 94.64 C 239.51 93.70 238.64 93.06 237.71 93.21 L 236.72 93.36 C 235.79 93.50 235.15 94.38 235.29 95.31 C 235.44 96.24 236.31 96.88 237.25 96.74 Z M 238.25 96.59 L 239.25 96.42 C 240.18 96.26 240.81 95.38 240.65 94.44 C 240.50 93.51 239.61 92.88 238.68 93.04 L 237.68 93.21 C 236.75 93.37 236.12 94.25 236.28 95.18 C 236.44 96.12 237.32 96.74 238.25 96.59 Z M 239.26 96.42 L 240.26 96.24 C 241.19 96.08 241.81 95.19 241.65 94.26 C 241.49 93.33 240.60 92.71 239.67 92.87 L 238.67 93.04 C 237.74 93.20 237.12 94.09 237.28 95.02 C 237.44 95.95 238.33 96.58 239.26 96.42 Z M 240.25 96.24 L 241.27 96.07 C 242.20 95.91 242.83 95.02 242.67 94.09 C 242.51 93.16 241.62 92.53 240.69 92.69 L 239.67 92.87 C 238.74 93.03 238.11 93.91 238.27 94.85 C 238.43 95.78 239.32 96.40 240.25 96.24 Z M 241.12 96.09 L 242.12 96.01 C 243.06 95.93 243.76 95.10 243.69 94.16 C 243.61 93.21 242.78 92.51 241.84 92.59 L 240.84 92.67 C 239.90 92.75 239.19 93.58 239.27 94.52 C 239.35 95.46 240.18 96.17 241.12 96.09 Z M 241.54 95.96 L 242.45 96.20 C 243.37 96.44 244.31 95.89 244.55 94.98 C 244.79 94.06 244.24 93.12 243.33 92.88 L 242.42 92.64 C 241.50 92.40 240.56 92.94 240.32 93.86 C 240.08 94.78 240.62 95.72 241.54 95.96 Z M 241.93 95.96 L 242.76 96.52 C 243.55 97.05 244.62 96.84 245.14 96.06 C 245.67 95.27 245.47 94.20 244.68 93.67 L 243.85 93.11 C 243.06 92.59 241.99 92.79 241.46 93.58 C 240.93 94.37 241.14 95.43 241.93 95.96 Z"
      fill="black"
      fill-rule="nonzero" /><path d="M 152.51 99.64 L 151.89 98.54 C 151.50 97.82 150.60 97.57 149.88 97.96 C 149.17 98.36 148.91 99.26 149.31 99.97 L 149.92 101.07 C 150.32 101.79 151.22 102.04 151.93 101.65 C 152.65 101.25 152.90 100.35 152.51 99.64 Z M 151.90 98.40 L 151.40 97.65 C 150.93 96.94 149.97 96.74 149.26 97.21 C 148.54 97.68 148.34 98.64 148.81 99.36 L 149.31 100.11 C 149.78 100.82 150.74 101.02 151.46 100.55 C 152.17 100.08 152.37 99.12 151.90 98.40 Z M 149.56 97.00 L 149.22 97.12 C 148.39 97.43 147.97 98.35 148.27 99.18 C 148.58 100.01 149.50 100.44 150.33 100.13 L 150.66 100.01 C 151.49 99.71 151.92 98.78 151.61 97.95 C 151.31 97.12 150.39 96.69 149.56 97.00 Z M 148.15 98.59 L 148.12 99.78 C 148.10 100.68 148.81 101.43 149.71 101.45 C 150.61 101.47 151.36 100.76 151.38 99.86 L 151.41 98.67 C 151.43 97.77 150.72 97.02 149.82 97.00 C 148.92 96.97 148.17 97.69 148.15 98.59 Z M 148.11 99.82 L 148.11 100.84 C 148.11 101.75 148.84 102.48 149.75 102.48 C 150.66 102.48 151.39 101.75 151.39 100.84 L 151.39 99.82 C 151.39 98.91 150.66 98.17 149.75 98.17 C 148.84 98.17 148.11 98.91 148.11 99.82 Z M 148.10 100.84 L 148.10 101.84 C 148.10 102.75 148.84 103.49 149.75 103.49 C 150.66 103.49 151.40 102.75 151.40 101.84 L 151.40 100.84 C 151.40 99.93 150.66 99.19 149.75 99.19 C 148.84 99.19 148.10 99.93 148.10 100.84 Z M 148.09 101.85 L 148.10 102.86 C 148.10 103.77 148.84 104.51 149.76 104.51 C 150.67 104.51 151.41 103.76 151.41 102.85 L 151.40 101.84 C 151.40 100.92 150.66 100.18 149.74 100.19 C 148.83 100.19 148.09 100.93 148.09 101.85 Z M 148.09 102.88 L 148.11 103.83 C 148.12 104.75 148.88 105.48 149.80 105.46 C 150.71 105.45 151.44 104.69 151.43 103.78 L 151.41 102.82 C 151.40 101.91 150.64 101.18 149.72 101.19 C 148.81 101.21 148.08 101.96 148.09 102.88 Z M 148.11 103.86 L 148.14 104.84 C 148.17 105.76 148.93 106.48 149.85 106.45 C 150.77 106.42 151.49 105.65 151.46 104.74 L 151.43 103.75 C 151.40 102.83 150.63 102.11 149.71 102.14 C 148.80 102.17 148.08 102.94 148.11 103.86 Z M 148.13 104.85 L 148.17 105.87 C 148.20 106.79 148.97 107.51 149.89 107.48 C 150.81 107.45 151.53 106.68 151.50 105.76 L 151.47 104.73 C 151.43 103.81 150.66 103.09 149.74 103.12 C 148.82 103.16 148.10 103.93 148.13 104.85 Z M 148.17 105.88 L 148.20 106.88 C 148.24 107.80 149.01 108.52 149.93 108.49 C 150.86 108.45 151.58 107.68 151.54 106.75 L 151.51 105.75 C 151.47 104.83 150.70 104.11 149.77 104.14 C 148.85 104.18 148.13 104.95 148.17 105.88 Z M 148.20 106.90 L 148.25 107.91 C 148.29 108.83 149.08 109.54 150.00 109.50 C 150.92 109.45 151.64 108.67 151.59 107.75 L 151.54 106.74 C 151.50 105.81 150.72 105.10 149.79 105.14 C 148.87 105.19 148.16 105.97 148.20 106.90 Z M 148.25 107.93 L 148.31 108.92 C 148.36 109.85 149.16 110.55 150.09 110.49 C 151.01 110.44 151.71 109.64 151.66 108.72 L 151.59 107.72 C 151.54 106.80 150.74 106.09 149.82 106.15 C 148.89 106.21 148.19 107.00 148.25 107.93 Z M 148.31 108.92 L 148.37 109.92 C 148.42 110.85 149.22 111.55 150.14 111.50 C 151.07 111.44 151.77 110.64 151.72 109.72 L 151.66 108.72 C 151.60 107.79 150.81 107.09 149.88 107.14 C 148.95 107.20 148.25 108.00 148.31 108.92 Z M 148.36 109.90 L 148.40 110.88 C 148.45 111.81 149.24 112.53 150.17 112.48 C 151.10 112.44 151.81 111.65 151.77 110.72 L 151.73 109.74 C 151.68 108.81 150.89 108.09 149.96 108.14 C 149.03 108.18 148.32 108.97 148.36 109.90 Z M 148.40 110.87 L 148.44 111.88 C 148.48 112.81 149.26 113.54 150.20 113.50 C 151.13 113.46 151.86 112.67 151.82 111.74 L 151.78 110.73 C 151.74 109.80 150.95 109.07 150.02 109.11 C 149.08 109.15 148.36 109.94 148.40 110.87 Z M 148.43 111.89 L 148.48 112.88 C 148.52 113.82 149.32 114.54 150.26 114.50 C 151.20 114.45 151.92 113.66 151.88 112.72 L 151.83 111.73 C 151.78 110.79 150.99 110.06 150.05 110.11 C 149.11 110.15 148.38 110.95 148.43 111.89 Z M 148.47 112.89 L 148.52 113.88 C 148.58 114.83 149.38 115.55 150.33 115.50 C 151.27 115.45 151.99 114.64 151.94 113.69 L 151.88 112.70 C 151.83 111.76 151.02 111.04 150.08 111.09 C 149.14 111.14 148.41 111.95 148.47 112.89 Z M 148.51 113.89 L 148.57 114.91 C 148.63 115.86 149.44 116.58 150.39 116.52 C 151.34 116.47 152.07 115.65 152.01 114.70 L 151.95 113.69 C 151.89 112.74 151.08 112.01 150.13 112.07 C 149.18 112.13 148.46 112.94 148.51 113.89 Z M 148.56 114.91 L 148.62 115.86 C 148.67 116.82 149.49 117.55 150.45 117.49 C 151.40 117.43 152.13 116.62 152.08 115.66 L 152.02 114.70 C 151.96 113.75 151.14 113.02 150.19 113.08 C 149.24 113.13 148.51 113.95 148.56 114.91 Z M 148.61 115.86 L 148.67 116.87 C 148.72 117.83 149.54 118.56 150.50 118.51 C 151.46 118.45 152.20 117.63 152.14 116.67 L 152.09 115.67 C 152.03 114.71 151.21 113.97 150.25 114.02 C 149.29 114.08 148.56 114.90 148.61 115.86 Z M 148.66 116.86 L 148.71 117.87 C 148.76 118.84 149.58 119.58 150.55 119.53 C 151.51 119.48 152.25 118.65 152.20 117.69 L 152.15 116.68 C 152.10 115.72 151.28 114.97 150.31 115.02 C 149.35 115.07 148.61 115.90 148.66 116.86 Z M 148.70 117.86 L 148.75 118.81 C 148.79 119.78 149.62 120.52 150.59 120.48 C 151.55 120.43 152.30 119.61 152.26 118.64 L 152.21 117.70 C 152.16 116.73 151.34 115.98 150.37 116.03 C 149.40 116.07 148.66 116.89 148.70 117.86 Z M 148.74 118.80 L 148.78 119.80 C 148.83 120.78 149.65 121.53 150.62 121.49 C 151.60 121.45 152.35 120.62 152.31 119.65 L 152.26 118.65 C 152.22 117.67 151.40 116.92 150.42 116.96 C 149.45 117.00 148.70 117.83 148.74 118.80 Z M 148.78 119.80 L 148.82 120.87 C 148.86 121.85 149.69 122.61 150.66 122.57 C 151.64 122.53 152.40 121.71 152.36 120.73 L 152.31 119.65 C 152.27 118.68 151.45 117.92 150.47 117.96 C 149.50 118.00 148.74 118.82 148.78 119.80 Z M 148.81 120.87 L 148.85 121.83 C 148.89 122.81 149.71 123.57 150.69 123.54 C 151.67 123.50 152.44 122.67 152.40 121.69 L 152.37 120.73 C 152.33 119.75 151.50 118.99 150.52 119.02 C 149.54 119.06 148.78 119.89 148.81 120.87 Z M 148.84 121.82 L 148.88 122.82 C 148.91 123.80 149.74 124.57 150.73 124.53 C 151.71 124.50 152.48 123.67 152.44 122.69 L 152.41 121.70 C 152.37 120.71 151.55 119.94 150.56 119.98 C 149.58 120.01 148.81 120.84 148.84 121.82 Z M 148.87 122.81 L 148.91 123.83 C 148.94 124.82 149.77 125.59 150.75 125.56 C 151.74 125.53 152.52 124.70 152.48 123.71 L 152.45 122.69 C 152.42 121.70 151.59 120.93 150.60 120.96 C 149.61 121.00 148.84 121.82 148.87 122.81 Z M 148.90 123.82 L 148.93 124.85 C 148.96 125.85 149.79 126.63 150.78 126.60 C 151.77 126.57 152.55 125.74 152.52 124.75 L 152.49 123.72 C 152.46 122.72 151.63 121.94 150.64 121.97 C 149.65 122.00 148.87 122.83 148.90 123.82 Z M 148.92 124.85 L 148.95 125.85 C 148.98 126.84 149.81 127.63 150.80 127.60 C 151.80 127.58 152.58 126.75 152.56 125.75 L 152.53 124.75 C 152.50 123.76 151.67 122.97 150.68 123.00 C 149.68 123.03 148.90 123.85 148.92 124.85 Z M 148.95 125.84 L 148.97 126.84 C 148.99 127.84 149.82 128.63 150.82 128.60 C 151.82 128.58 152.61 127.75 152.59 126.75 L 152.56 125.76 C 152.54 124.76 151.71 123.97 150.71 123.99 C 149.71 124.02 148.92 124.85 148.95 125.84 Z M 148.97 126.84 L 148.99 127.83 C 149.01 128.83 149.84 129.63 150.84 129.61 C 151.84 129.58 152.63 128.75 152.61 127.75 L 152.59 126.76 C 152.57 125.75 151.74 124.96 150.74 124.98 C 149.74 125.00 148.94 125.83 148.97 126.84 Z M 148.98 127.83 L 149.00 128.84 C 149.02 129.84 149.85 130.64 150.86 130.62 C 151.86 130.60 152.66 129.77 152.64 128.76 L 152.62 127.76 C 152.60 126.75 151.77 125.96 150.76 125.98 C 149.76 126.00 148.96 126.83 148.98 127.83 Z M 149.00 128.83 L 149.02 129.83 C 149.04 130.84 149.87 131.64 150.87 131.62 C 151.88 131.60 152.68 130.77 152.66 129.76 L 152.64 128.76 C 152.62 127.76 151.79 126.96 150.79 126.98 C 149.78 127.00 148.98 127.83 149.00 128.83 Z M 149.01 129.83 L 149.03 130.82 C 149.05 131.83 149.88 132.64 150.89 132.62 C 151.90 132.60 152.70 131.77 152.68 130.76 L 152.67 129.76 C 152.65 128.75 151.81 127.95 150.81 127.97 C 149.80 127.99 148.99 128.82 149.01 129.83 Z M 149.03 130.82 L 149.04 131.83 C 149.06 132.84 149.90 133.64 150.91 133.62 C 151.92 133.61 152.72 132.77 152.70 131.76 L 152.69 130.76 C 152.67 129.75 151.84 128.94 150.82 128.96 C 149.81 128.98 149.01 129.81 149.03 130.82 Z M 149.04 131.83 L 149.06 132.83 C 149.07 133.84 149.91 134.65 150.92 134.63 C 151.94 134.62 152.74 133.78 152.73 132.77 L 152.71 131.76 C 152.69 130.75 151.86 129.94 150.84 129.96 C 149.83 129.98 149.02 130.81 149.04 131.83 Z M 149.05 132.83 L 149.07 133.84 C 149.09 134.85 149.92 135.66 150.94 135.65 C 151.96 135.63 152.76 134.79 152.75 133.78 L 152.73 132.77 C 152.71 131.75 151.88 130.94 150.86 130.96 C 149.84 130.98 149.04 131.82 149.05 132.83 Z M 149.06 133.84 L 149.08 134.85 C 149.10 135.87 149.94 136.68 150.96 136.66 C 151.98 136.64 152.79 135.80 152.77 134.79 L 152.75 133.78 C 152.73 132.76 151.90 131.95 150.88 131.96 C 149.86 131.98 149.05 132.82 149.06 133.84 Z M 149.08 134.85 L 149.09 135.85 C 149.11 136.88 149.95 137.69 150.97 137.67 C 152.00 137.65 152.81 136.81 152.79 135.79 L 152.77 134.79 C 152.76 133.77 151.92 132.95 150.89 132.97 C 149.87 132.99 149.06 133.83 149.08 134.85 Z M 149.09 135.85 L 149.11 136.85 C 149.12 137.87 149.97 138.69 150.99 138.67 C 152.02 138.65 152.83 137.81 152.81 136.79 L 152.80 135.79 C 152.78 134.77 151.94 133.95 150.91 133.97 C 149.89 133.99 149.07 134.83 149.09 135.85 Z M 149.10 136.85 L 149.12 137.84 C 149.14 138.86 149.98 139.68 151.01 139.66 C 152.04 139.64 152.86 138.80 152.84 137.77 L 152.82 136.78 C 152.80 135.76 151.95 134.94 150.93 134.96 C 149.90 134.98 149.08 135.82 149.10 136.85 Z M 149.11 137.84 L 149.13 138.85 C 149.15 139.88 150.00 140.70 151.03 140.68 C 152.06 140.66 152.88 139.81 152.86 138.78 L 152.84 137.77 C 152.82 136.74 151.97 135.92 150.94 135.94 C 149.92 135.96 149.09 136.81 149.11 137.84 Z M 149.13 138.85 L 149.14 139.85 C 149.16 140.88 150.01 141.70 151.04 141.68 C 152.08 141.67 152.90 140.82 152.88 139.79 L 152.86 138.78 C 152.85 137.75 152.00 136.93 150.96 136.95 C 149.93 136.96 149.11 137.81 149.13 138.85 Z M 149.14 139.84 L 149.15 140.84 C 149.17 141.87 150.02 142.70 151.05 142.68 C 152.09 142.67 152.91 141.82 152.90 140.78 L 152.88 139.79 C 152.87 138.75 152.02 137.93 150.98 137.94 C 149.95 137.96 149.12 138.81 149.14 139.84 Z M 149.15 140.83 L 149.16 141.82 C 149.17 142.86 150.02 143.69 151.06 143.68 C 152.10 143.67 152.93 142.82 152.91 141.78 L 152.90 140.79 C 152.89 139.75 152.04 138.92 151.01 138.93 C 149.97 138.95 149.14 139.80 149.15 140.83 Z M 149.16 141.82 L 149.17 142.78 C 149.17 143.82 150.02 144.66 151.06 144.65 C 152.10 144.64 152.93 143.80 152.92 142.76 L 152.92 141.79 C 152.91 140.75 152.06 139.91 151.02 139.92 C 149.99 139.93 149.15 140.78 149.16 141.82 Z M 149.16 142.78 L 149.17 143.76 C 149.17 144.80 150.02 145.63 151.06 145.63 C 152.10 145.63 152.93 144.78 152.93 143.74 L 152.93 142.76 C 152.92 141.72 152.08 140.89 151.04 140.89 C 150.00 140.89 149.16 141.74 149.16 142.78 Z M 149.17 143.75 L 149.17 144.75 C 149.17 145.79 150.01 146.63 151.05 146.63 C 152.09 146.63 152.93 145.79 152.93 144.75 L 152.93 143.75 C 152.93 142.71 152.09 141.86 151.05 141.87 C 150.01 141.87 149.16 142.71 149.17 143.75 Z M 149.17 144.75 L 149.17 145.78 C 149.17 146.82 150.01 147.67 151.05 147.67 C 152.09 147.67 152.94 146.82 152.93 145.78 L 152.93 144.75 C 152.93 143.71 152.09 142.86 151.05 142.87 C 150.01 142.87 149.17 143.71 149.17 144.75 Z M 149.17 145.78 L 149.17 146.79 C 149.17 147.83 150.01 148.67 151.05 148.67 C 152.09 148.67 152.94 147.83 152.94 146.79 L 152.94 145.78 C 152.94 144.74 152.09 143.90 151.05 143.90 C 150.01 143.90 149.17 144.74 149.17 145.78 Z M 149.16 146.79 L 149.16 147.78 C 149.16 148.83 150.01 149.67 151.05 149.67 C 152.09 149.67 152.94 148.83 152.94 147.78 L 152.94 146.79 C 152.94 145.74 152.09 144.90 151.05 144.90 C 150.01 144.90 149.16 145.74 149.16 146.79 Z M 149.16 147.78 L 149.16 148.80 C 149.16 149.84 150.01 150.69 151.05 150.69 C 152.09 150.69 152.94 149.84 152.94 148.80 L 152.94 147.78 C 152.94 146.74 152.09 145.89 151.05 145.89 C 150.01 145.89 149.16 146.74 149.16 147.78 Z M 149.16 148.80 L 149.16 149.81 C 149.16 150.85 150.01 151.70 151.05 151.70 C 152.10 151.70 152.94 150.85 152.94 149.81 L 152.94 148.80 C 152.94 147.75 152.10 146.90 151.05 146.90 C 150.01 146.90 149.16 147.75 149.16 148.80 Z M 149.16 149.81 L 149.16 150.80 C 149.16 151.85 150.00 152.70 151.05 152.70 C 152.10 152.70 152.95 151.85 152.95 150.80 L 152.95 149.81 C 152.95 148.76 152.10 147.91 151.05 147.91 C 150.00 147.91 149.16 148.76 149.16 149.81 Z M 149.15 150.80 L 149.15 151.83 C 149.15 152.88 150.00 153.73 151.05 153.73 C 152.10 153.73 152.95 152.88 152.95 151.83 L 152.95 150.80 C 152.95 149.75 152.10 148.90 151.05 148.90 C 150.00 148.90 149.15 149.75 149.15 150.80 Z M 149.15 151.83 L 149.15 152.83 C 149.15 153.88 150.00 154.73 151.05 154.73 C 152.10 154.73 152.95 153.88 152.95 152.83 L 152.95 151.83 C 152.95 150.78 152.10 149.93 151.05 149.93 C 150.00 149.93 149.15 150.78 149.15 151.83 Z M 149.15 152.83 L 149.15 153.82 C 149.15 154.87 150.00 155.72 151.05 155.72 C 152.10 155.72 152.95 154.87 152.95 153.82 L 152.95 152.83 C 152.95 151.78 152.10 150.93 151.05 150.93 C 150.00 150.93 149.15 151.78 149.15 152.83 Z M 149.15 153.82 L 149.15 154.81 C 149.15 155.86 150.00 156.71 151.05 156.71 C 152.10 156.71 152.95 155.86 152.95 154.81 L 152.95 153.82 C 152.95 152.77 152.10 151.92 151.05 151.92 C 150.00 151.92 149.15 152.77 149.15 153.82 Z M 149.15 154.81 L 149.15 155.80 C 149.15 156.85 150.00 157.70 151.05 157.70 C 152.10 157.70 152.96 156.85 152.96 155.80 L 152.96 154.81 C 152.96 153.75 152.10 152.90 151.05 152.90 C 150.00 152.90 149.15 153.75 149.15 154.81 Z M 149.14 155.80 L 149.14 156.80 C 149.14 157.85 150.00 158.71 151.05 158.71 C 152.10 158.71 152.96 157.85 152.96 156.80 L 152.96 155.80 C 152.96 154.74 152.10 153.89 151.05 153.89 C 150.00 153.89 149.14 154.74 149.14 155.80 Z M 149.14 156.80 L 149.14 157.80 C 149.14 158.86 150.00 159.71 151.05 159.71 C 152.11 159.71 152.96 158.86 152.96 157.80 L 152.96 156.80 C 152.96 155.74 152.11 154.89 151.05 154.89 C 150.00 154.89 149.14 155.74 149.14 156.80 Z M 149.14 157.80 L 149.14 158.80 C 149.14 159.86 150.00 160.72 151.05 160.72 C 152.11 160.72 152.96 159.86 152.96 158.80 L 152.96 157.80 C 152.96 156.75 152.11 155.89 151.05 155.89 C 150.00 155.89 149.14 156.75 149.14 157.80 Z M 149.14 158.80 L 149.14 159.81 C 149.14 160.86 149.99 161.72 151.05 161.72 C 152.11 161.72 152.96 160.86 152.96 159.81 L 152.96 158.80 C 152.96 157.75 152.11 156.89 151.05 156.89 C 149.99 156.89 149.14 157.75 149.14 158.80 Z M 149.14 159.81 L 149.14 160.82 C 149.13 161.88 149.99 162.74 151.05 162.74 C 152.11 162.74 152.96 161.88 152.97 160.83 L 152.97 159.81 C 152.97 158.75 152.11 157.89 151.05 157.89 C 149.99 157.89 149.14 158.75 149.14 159.81 Z M 149.13 160.82 L 149.13 161.82 C 149.13 162.88 149.98 163.74 151.04 163.75 C 152.10 163.75 152.96 162.89 152.96 161.83 L 152.97 160.83 C 152.97 159.77 152.12 158.91 151.06 158.91 C 150.00 158.90 149.14 159.76 149.13 160.82 Z M 149.13 161.81 L 149.12 162.81 C 149.11 163.87 149.96 164.73 151.03 164.74 C 152.09 164.75 152.95 163.90 152.96 162.84 L 152.97 161.84 C 152.98 160.78 152.12 159.92 151.06 159.91 C 150.00 159.90 149.13 160.75 149.13 161.81 Z M 149.12 162.79 L 149.10 163.77 C 149.09 164.84 149.94 165.71 151.00 165.72 C 152.06 165.74 152.93 164.89 152.95 163.83 L 152.96 162.85 C 152.98 161.79 152.13 160.91 151.07 160.90 C 150.00 160.88 149.13 161.73 149.12 162.79 Z M 149.10 163.76 L 149.08 164.76 C 149.06 165.83 149.90 166.71 150.96 166.73 C 152.02 166.75 152.90 165.91 152.93 164.85 L 152.95 163.84 C 152.97 162.78 152.13 161.90 151.07 161.88 C 150.01 161.85 149.13 162.70 149.10 163.76 Z M 149.08 164.75 L 149.05 165.75 C 149.02 166.81 149.85 167.70 150.92 167.73 C 151.98 167.76 152.87 166.92 152.90 165.86 L 152.93 164.86 C 152.96 163.80 152.12 162.91 151.06 162.88 C 150.00 162.85 149.11 163.69 149.08 164.75 Z M 149.05 165.74 L 149.01 166.73 C 148.98 167.80 149.81 168.69 150.87 168.73 C 151.94 168.76 152.83 167.93 152.87 166.87 L 152.90 165.87 C 152.94 164.81 152.10 163.91 151.04 163.88 C 149.98 163.84 149.08 164.67 149.05 165.74 Z M 149.01 166.73 L 148.98 167.73 C 148.94 168.79 149.77 169.69 150.83 169.73 C 151.90 169.77 152.79 168.94 152.83 167.87 L 152.87 166.87 C 152.91 165.81 152.08 164.91 151.01 164.87 C 149.95 164.83 149.05 165.66 149.01 166.73 Z M 148.98 167.73 L 148.94 168.69 C 148.90 169.75 149.73 170.65 150.79 170.69 C 151.86 170.73 152.75 169.90 152.79 168.83 L 152.83 167.87 C 152.87 166.81 152.04 165.91 150.98 165.87 C 149.91 165.83 149.02 166.66 148.98 167.73 Z M 148.94 168.69 L 148.90 169.66 C 148.86 170.73 149.69 171.62 150.76 171.66 C 151.82 171.70 152.72 170.87 152.76 169.81 L 152.79 168.83 C 152.83 167.77 152.00 166.88 150.94 166.84 C 149.88 166.79 148.98 167.62 148.94 168.69 Z M 148.90 169.67 L 148.87 170.67 C 148.83 171.73 149.66 172.62 150.72 172.66 C 151.78 172.70 152.68 171.87 152.72 170.81 L 152.75 169.81 C 152.79 168.75 151.96 167.85 150.90 167.81 C 149.84 167.77 148.94 168.60 148.90 169.67 Z M 148.87 170.67 L 148.83 171.71 C 148.79 172.77 149.62 173.66 150.69 173.70 C 151.75 173.74 152.64 172.90 152.68 171.84 L 152.72 170.81 C 152.75 169.75 151.92 168.85 150.86 168.82 C 149.80 168.78 148.91 169.61 148.87 170.67 Z M 148.83 171.71 L 148.80 172.71 C 148.76 173.77 149.60 174.66 150.66 174.70 C 151.72 174.74 152.61 173.90 152.64 172.84 L 152.68 171.84 C 152.71 170.78 151.88 169.89 150.82 169.85 C 149.76 169.82 148.87 170.65 148.83 171.71 Z M 148.80 172.72 L 148.77 173.71 C 148.74 174.77 149.57 175.66 150.63 175.69 C 151.69 175.73 152.58 174.89 152.61 173.83 L 152.64 172.84 C 152.68 171.78 151.84 170.89 150.78 170.86 C 149.72 170.82 148.83 171.66 148.80 172.72 Z M 148.77 173.71 L 148.74 174.72 C 148.71 175.78 149.54 176.67 150.60 176.70 C 151.66 176.73 152.55 175.90 152.58 174.84 L 152.61 173.83 C 152.64 172.77 151.81 171.88 150.75 171.85 C 149.69 171.82 148.80 172.65 148.77 173.71 Z M 148.74 174.73 L 148.71 175.74 C 148.68 176.80 149.52 177.68 150.58 177.71 C 151.64 177.74 152.52 176.91 152.55 175.84 L 152.58 174.83 C 152.61 173.77 151.77 172.89 150.71 172.86 C 149.65 172.83 148.77 173.67 148.74 174.73 Z M 148.71 175.74 L 148.69 176.75 C 148.66 177.81 149.50 178.69 150.56 178.71 C 151.62 178.74 152.50 177.90 152.53 176.84 L 152.55 175.84 C 152.58 174.78 151.74 173.90 150.68 173.87 C 149.62 173.85 148.74 174.68 148.71 175.74 Z M 148.69 176.75 L 148.67 177.77 C 148.64 178.83 149.48 179.71 150.54 179.73 C 151.60 179.76 152.48 178.92 152.50 177.86 L 152.53 176.84 C 152.55 175.78 151.71 174.90 150.65 174.88 C 149.59 174.85 148.71 175.69 148.69 176.75 Z M 148.67 177.78 L 148.65 178.79 C 148.63 179.85 149.47 180.72 150.53 180.74 C 151.59 180.76 152.46 179.92 152.48 178.86 L 152.50 177.85 C 152.52 176.80 151.68 175.92 150.62 175.90 C 149.56 175.88 148.69 176.72 148.67 177.78 Z M 148.65 178.79 L 148.63 179.79 C 148.62 180.85 149.46 181.72 150.52 181.73 C 151.58 181.75 152.45 180.91 152.46 179.85 L 152.48 178.85 C 152.50 177.80 151.65 176.93 150.60 176.91 C 149.54 176.89 148.67 177.74 148.65 178.79 Z M 148.64 179.79 L 148.62 180.78 C 148.61 181.84 149.46 182.70 150.51 182.72 C 151.57 182.73 152.44 181.89 152.45 180.83 L 152.46 179.84 C 152.48 178.79 151.63 177.92 150.57 177.90 C 149.52 177.89 148.65 178.74 148.64 179.79 Z M 148.63 180.79 L 148.62 181.78 C 148.61 182.84 149.46 183.70 150.51 183.71 C 151.57 183.72 152.43 182.87 152.44 181.81 L 152.45 180.82 C 152.46 179.77 151.61 178.90 150.55 178.89 C 149.50 178.88 148.63 179.73 148.63 180.79 Z M 148.62 181.79 L 148.61 182.80 C 148.61 183.85 149.46 184.71 150.51 184.72 C 151.57 184.72 152.43 183.87 152.43 182.82 L 152.44 181.81 C 152.44 180.75 151.59 179.89 150.54 179.89 C 149.48 179.88 148.62 180.73 148.62 181.79 Z M 148.61 182.80 L 148.61 183.81 C 148.61 184.86 149.46 185.72 150.51 185.72 C 151.56 185.73 152.42 184.88 152.43 183.82 L 152.43 182.81 C 152.43 181.76 151.58 180.90 150.53 180.90 C 149.48 180.89 148.62 181.74 148.61 182.80 Z M 148.61 183.81 L 148.61 184.80 C 148.60 185.86 149.45 186.71 150.50 186.72 C 151.56 186.72 152.41 185.87 152.42 184.82 L 152.42 183.82 C 152.43 182.77 151.58 181.91 150.53 181.91 C 149.47 181.90 148.62 182.75 148.61 183.81 Z M 148.61 184.80 L 148.60 185.79 C 148.60 186.84 149.44 187.69 150.49 187.70 C 151.55 187.71 152.40 186.86 152.41 185.81 L 152.42 184.82 C 152.42 183.77 151.58 182.92 150.53 182.91 C 149.47 182.90 148.62 183.75 148.61 184.80 Z M 148.61 185.78 L 148.60 186.81 C 148.59 187.86 149.43 188.71 150.48 188.72 C 151.53 188.74 152.39 187.89 152.40 186.84 L 152.41 185.82 C 152.42 184.77 151.58 183.91 150.53 183.90 C 149.48 183.89 148.62 184.73 148.61 185.78 Z M 148.60 186.80 L 148.59 187.82 C 148.57 188.87 149.41 189.73 150.46 189.74 C 151.51 189.75 152.37 188.91 152.38 187.86 L 152.40 186.85 C 152.41 185.80 151.57 184.94 150.52 184.92 C 149.47 184.91 148.61 185.75 148.60 186.80 Z M 148.59 187.82 L 148.57 188.81 C 148.56 189.86 149.40 190.72 150.45 190.73 C 151.49 190.75 152.35 189.91 152.37 188.86 L 152.38 187.87 C 152.40 186.82 151.56 185.96 150.51 185.94 C 149.46 185.93 148.60 186.77 148.59 187.82 Z M 148.58 188.81 L 148.56 189.78 C 148.55 190.83 149.39 191.69 150.44 191.70 C 151.48 191.72 152.34 190.88 152.36 189.83 L 152.37 188.86 C 152.38 187.81 151.54 186.95 150.49 186.94 C 149.45 186.93 148.59 187.76 148.58 188.81 Z M 148.57 189.79 L 148.56 190.79 C 148.55 191.84 149.39 192.70 150.43 192.70 C 151.48 192.71 152.34 191.87 152.35 190.83 L 152.35 189.82 C 152.36 188.78 151.52 187.92 150.48 187.91 C 149.43 187.90 148.57 188.74 148.57 189.79 Z M 148.56 190.80 L 148.55 191.81 C 148.55 192.85 149.39 193.70 150.44 193.71 C 151.48 193.71 152.33 192.87 152.34 191.83 L 152.34 190.82 C 152.35 189.77 151.50 188.92 150.46 188.92 C 149.41 188.91 148.56 189.76 148.56 190.80 Z M 148.56 191.81 L 148.55 192.81 C 148.55 193.85 149.40 194.70 150.44 194.70 C 151.48 194.70 152.33 193.86 152.33 192.81 L 152.34 191.82 C 152.34 190.78 151.49 189.93 150.45 189.93 C 149.41 189.93 148.56 190.77 148.56 191.81 Z M 148.56 192.81 L 148.56 193.80 C 148.56 194.84 149.40 195.68 150.44 195.68 C 151.49 195.68 152.33 194.84 152.33 193.80 L 152.33 192.81 C 152.33 191.77 151.49 190.92 150.45 190.92 C 149.40 190.92 148.56 191.77 148.56 192.81 Z M 148.56 193.80 L 148.56 194.77 C 148.56 195.81 149.40 196.65 150.44 196.65 C 151.49 196.65 152.33 195.81 152.33 194.77 L 152.33 193.80 C 152.33 192.75 151.49 191.91 150.44 191.91 C 149.40 191.91 148.56 192.75 148.56 193.80 Z M 148.56 194.77 L 148.56 195.75 C 148.56 196.79 149.40 197.63 150.44 197.63 C 151.48 197.63 152.33 196.79 152.33 195.75 L 152.33 194.77 C 152.33 193.73 151.48 192.88 150.44 192.88 C 149.40 192.88 148.56 193.73 148.56 194.77 Z M 148.56 195.75 L 148.56 196.75 C 148.56 197.79 149.41 198.63 150.44 198.63 C 151.48 198.63 152.32 197.79 152.32 196.75 L 152.32 195.75 C 152.32 194.71 151.48 193.86 150.44 193.86 C 149.41 193.86 148.56 194.71 148.56 195.75 Z M 148.57 196.75 L 148.57 197.79 C 148.57 198.83 149.41 199.67 150.44 199.67 C 151.48 199.67 152.32 198.83 152.32 197.79 L 152.32 196.75 C 152.32 195.71 151.48 194.87 150.44 194.87 C 149.41 194.87 148.57 195.71 148.57 196.75 Z M 148.57 197.79 L 148.57 198.78 C 148.57 199.81 149.41 200.65 150.44 200.65 C 151.48 200.65 152.32 199.81 152.32 198.78 L 152.32 197.79 C 152.32 196.75 151.48 195.91 150.44 195.91 C 149.41 195.91 148.57 196.75 148.57 197.79 Z M 148.57 198.78 L 148.57 199.78 C 148.57 200.82 149.41 201.66 150.44 201.66 C 151.48 201.66 152.31 200.82 152.31 199.78 L 152.31 198.78 C 152.31 197.74 151.48 196.91 150.44 196.91 C 149.41 196.91 148.57 197.74 148.57 198.78 Z M 148.58 199.78 L 148.58 200.80 C 148.58 201.83 149.41 202.66 150.44 202.66 C 151.47 202.66 152.31 201.83 152.31 200.80 L 152.31 199.78 C 152.31 198.75 151.47 197.92 150.44 197.92 C 149.41 197.92 148.58 198.75 148.58 199.78 Z M 148.58 200.80 L 148.58 201.80 C 148.58 202.83 149.42 203.66 150.44 203.66 C 151.47 203.66 152.31 202.83 152.31 201.80 L 152.31 200.80 C 152.31 199.77 151.47 198.94 150.44 198.94 C 149.42 198.94 148.58 199.77 148.58 200.80 Z M 148.59 201.80 L 148.59 202.82 C 148.59 203.85 149.42 204.68 150.44 204.68 C 151.47 204.68 152.30 203.85 152.30 202.82 L 152.30 201.80 C 152.30 200.77 151.47 199.94 150.44 199.94 C 149.42 199.94 148.59 200.77 148.59 201.80 Z M 148.59 202.82 L 148.59 203.83 C 148.59 204.86 149.42 205.69 150.44 205.69 C 151.47 205.69 152.30 204.86 152.30 203.83 L 152.30 202.82 C 152.30 201.80 151.47 200.97 150.44 200.97 C 149.42 200.97 148.59 201.80 148.59 202.82 Z M 148.59 203.83 L 148.59 204.82 C 148.59 205.85 149.42 206.68 150.44 206.68 C 151.47 206.68 152.30 205.85 152.30 204.82 L 152.30 203.83 C 152.30 202.81 151.47 201.98 150.44 201.98 C 149.42 201.98 148.59 202.81 148.59 203.83 Z M 148.60 204.82 L 148.60 205.80 C 148.60 206.82 149.42 207.65 150.44 207.65 C 151.46 207.65 152.29 206.82 152.29 205.80 L 152.29 204.82 C 152.29 203.80 151.46 202.98 150.44 202.98 C 149.42 202.98 148.60 203.80 148.60 204.82 Z M 148.60 205.80 L 148.60 206.80 C 148.60 207.82 149.43 208.65 150.44 208.65 C 151.46 208.65 152.29 207.82 152.29 206.80 L 152.29 205.80 C 152.29 204.78 151.46 203.96 150.44 203.96 C 149.43 203.96 148.60 204.78 148.60 205.80 Z M 148.60 206.80 L 148.60 207.81 C 148.60 208.83 149.43 209.65 150.44 209.65 C 151.46 209.65 152.29 208.83 152.29 207.81 L 152.29 206.80 C 152.29 205.78 151.46 204.96 150.44 204.96 C 149.43 204.96 148.60 205.78 148.60 206.80 Z M 148.61 207.81 L 148.61 208.81 C 148.61 209.83 149.43 210.65 150.44 210.65 C 151.46 210.65 152.28 209.83 152.28 208.81 L 152.28 207.81 C 152.28 206.80 151.46 205.97 150.44 205.97 C 149.43 205.97 148.61 206.80 148.61 207.81 Z M 148.61 208.81 L 148.61 209.80 C 148.61 210.81 149.43 211.63 150.44 211.63 C 151.46 211.63 152.28 210.81 152.28 209.80 L 152.28 208.81 C 152.28 207.80 151.46 206.98 150.44 206.98 C 149.43 206.98 148.61 207.80 148.61 208.81 Z M 148.62 209.80 L 148.62 210.83 C 148.62 211.84 149.43 212.65 150.44 212.65 C 151.45 212.65 152.27 211.84 152.27 210.83 L 152.27 209.80 C 152.27 208.79 151.45 207.97 150.44 207.97 C 149.43 207.97 148.62 208.79 148.62 209.80 Z M 148.62 210.83 L 148.62 211.84 C 148.63 212.85 149.44 213.66 150.45 213.66 C 151.45 213.66 152.27 212.84 152.27 211.84 L 152.27 210.82 C 152.26 209.82 151.45 209.00 150.44 209.01 C 149.44 209.01 148.62 209.82 148.62 210.83 Z M 148.63 211.85 L 148.64 212.83 C 148.64 213.83 149.46 214.64 150.46 214.64 C 151.46 214.63 152.27 213.82 152.26 212.82 L 152.26 211.83 C 152.25 210.83 151.44 210.02 150.44 210.03 C 149.44 210.03 148.63 210.85 148.63 211.85 Z M 148.64 212.84 L 148.65 213.82 C 148.66 214.82 149.48 215.62 150.48 215.61 C 151.47 215.60 152.28 214.78 152.27 213.79 L 152.26 212.81 C 152.25 211.81 151.43 211.01 150.43 211.02 C 149.44 211.03 148.63 211.84 148.64 212.84 Z M 148.66 213.83 L 148.68 214.85 C 148.69 215.84 149.51 216.64 150.50 216.62 C 151.50 216.60 152.29 215.79 152.28 214.79 L 152.26 213.77 C 152.24 212.78 151.42 211.99 150.43 212.00 C 149.44 212.02 148.64 212.84 148.66 213.83 Z M 148.68 214.86 L 148.70 215.85 C 148.72 216.84 149.54 217.63 150.53 217.61 C 151.52 217.59 152.31 216.77 152.29 215.78 L 152.27 214.78 C 152.25 213.79 151.43 213.01 150.44 213.03 C 149.45 213.05 148.66 213.87 148.68 214.86 Z M 148.71 215.86 L 148.73 216.83 C 148.75 217.82 149.57 218.60 150.56 218.58 C 151.55 218.56 152.33 217.74 152.31 216.75 L 152.28 215.77 C 152.26 214.78 151.44 214.00 150.45 214.03 C 149.47 214.05 148.69 214.87 148.71 215.86 Z M 148.74 216.83 L 148.76 217.81 C 148.78 218.80 149.60 219.58 150.58 219.55 C 151.57 219.53 152.35 218.71 152.32 217.73 L 152.30 216.75 C 152.28 215.76 151.46 214.99 150.48 215.01 C 149.49 215.03 148.71 215.85 148.74 216.83 Z M 148.77 217.81 L 148.79 218.80 C 148.81 219.79 149.63 220.56 150.61 220.54 C 151.59 220.52 152.36 219.70 152.34 218.72 L 152.32 217.73 C 152.30 216.75 151.48 215.97 150.50 216.00 C 149.52 216.02 148.74 216.83 148.77 217.81 Z M 148.80 218.80 L 148.82 219.83 C 148.84 220.80 149.65 221.58 150.63 221.55 C 151.61 221.53 152.38 220.72 152.36 219.74 L 152.33 218.72 C 152.31 217.75 151.50 216.97 150.53 216.99 C 149.55 217.02 148.77 217.83 148.80 218.80 Z M 148.83 219.82 L 148.85 220.83 C 148.87 221.80 149.68 222.57 150.65 222.55 C 151.62 222.53 152.39 221.72 152.37 220.75 L 152.35 219.75 C 152.33 218.77 151.52 218.00 150.55 218.02 C 149.58 218.04 148.80 218.85 148.83 219.82 Z M 148.85 220.82 L 148.88 221.84 C 148.90 222.81 149.70 223.58 150.67 223.55 C 151.64 223.53 152.41 222.73 152.39 221.76 L 152.37 220.75 C 152.35 219.78 151.54 219.01 150.57 219.03 C 149.60 219.05 148.83 219.85 148.85 220.82 Z M 148.88 221.84 L 148.90 222.84 C 148.93 223.81 149.73 224.57 150.69 224.55 C 151.66 224.53 152.42 223.73 152.40 222.76 L 152.38 221.76 C 152.36 220.79 151.56 220.03 150.59 220.05 C 149.63 220.07 148.86 220.87 148.88 221.84 Z M 148.91 222.84 L 148.93 223.85 C 148.96 224.81 149.75 225.57 150.72 225.55 C 151.68 225.53 152.44 224.73 152.42 223.77 L 152.40 222.76 C 152.37 221.80 151.58 221.04 150.61 221.06 C 149.65 221.08 148.89 221.88 148.91 222.84 Z M 148.94 223.85 L 148.97 224.86 C 148.99 225.81 149.78 226.57 150.74 226.55 C 151.70 226.53 152.46 225.73 152.43 224.77 L 152.41 223.77 C 152.39 222.81 151.59 222.05 150.64 222.07 C 149.68 222.10 148.92 222.89 148.94 223.85 Z M 148.97 224.86 L 149.00 225.84 C 149.02 226.80 149.81 227.55 150.77 227.53 C 151.72 227.50 152.48 226.71 152.45 225.76 L 152.43 224.77 C 152.40 223.82 151.61 223.06 150.66 223.09 C 149.70 223.11 148.95 223.90 148.97 224.86 Z M 149.01 225.84 L 149.03 226.83 C 149.06 227.78 149.84 228.53 150.79 228.51 C 151.74 228.48 152.49 227.69 152.47 226.74 L 152.44 225.75 C 152.42 224.81 151.63 224.06 150.68 224.08 C 149.73 224.10 148.98 224.89 149.01 225.84 Z M 149.04 226.83 L 149.06 227.83 C 149.09 228.77 149.87 229.52 150.82 229.50 C 151.76 229.47 152.51 228.69 152.49 227.74 L 152.46 226.74 C 152.44 225.80 151.65 225.05 150.71 225.08 C 149.76 225.10 149.01 225.89 149.04 226.83 Z M 149.07 227.82 L 149.10 228.83 C 149.12 229.77 149.90 230.51 150.84 230.49 C 151.78 230.47 152.52 229.69 152.50 228.75 L 152.48 227.75 C 152.46 226.80 151.68 226.06 150.74 226.08 C 149.80 226.10 149.05 226.88 149.07 227.82 Z M 149.10 228.82 L 149.12 229.82 C 149.14 230.76 149.91 231.50 150.84 231.49 C 151.78 231.47 152.53 230.70 152.51 229.76 L 152.49 228.76 C 152.48 227.82 151.71 227.08 150.77 227.09 C 149.83 227.11 149.09 227.88 149.10 228.82 Z M 149.13 229.81 L 149.14 230.82 C 149.14 231.76 149.91 232.50 150.84 232.50 C 151.77 232.49 152.52 231.72 152.51 230.79 L 152.50 229.78 C 152.50 228.84 151.73 228.09 150.80 228.10 C 149.87 228.11 149.12 228.87 149.13 229.81 Z M 149.14 230.81 L 149.14 231.81 C 149.15 232.74 149.90 233.49 150.83 233.49 C 151.76 233.49 152.52 232.73 152.51 231.80 L 152.51 230.80 C 152.51 229.87 151.75 229.12 150.82 229.12 C 149.89 229.13 149.14 229.88 149.14 230.81 Z M 149.15 231.81 L 149.15 232.79 C 149.15 233.72 149.90 234.47 150.83 234.47 C 151.76 234.47 152.51 233.72 152.51 232.79 L 152.51 231.81 C 152.51 230.88 151.76 230.13 150.83 230.13 C 149.90 230.13 149.15 230.88 149.15 231.81 Z M 149.15 232.79 L 149.15 233.82 C 149.15 234.74 149.90 235.50 150.83 235.50 C 151.76 235.50 152.51 234.74 152.51 233.82 L 152.51 232.79 C 152.51 231.86 151.76 231.11 150.83 231.11 C 149.90 231.11 149.15 231.86 149.15 232.79 Z M 149.15 233.82 L 149.15 234.82 C 149.15 235.74 149.90 236.49 150.83 236.49 C 151.75 236.49 152.50 235.74 152.50 234.82 L 152.50 233.82 C 152.50 232.89 151.75 232.14 150.83 232.14 C 149.90 232.14 149.15 232.89 149.15 233.82 Z M 149.15 234.82 L 149.15 235.80 C 149.15 236.72 149.90 237.47 150.83 237.47 C 151.75 237.47 152.50 236.72 152.50 235.80 L 152.50 234.82 C 152.50 233.89 151.75 233.14 150.83 233.14 C 149.90 233.14 149.15 233.89 149.15 234.82 Z M 149.16 235.80 L 149.16 236.81 C 149.16 237.74 149.90 238.49 150.83 238.49 C 151.75 238.49 152.50 237.74 152.50 236.81 L 152.50 235.80 C 152.50 234.87 151.75 234.12 150.83 234.12 C 149.90 234.12 149.16 234.87 149.16 235.80 Z M 149.16 236.81 L 149.16 237.80 C 149.16 238.72 149.91 239.47 150.83 239.47 C 151.75 239.47 152.50 238.72 152.50 237.80 L 152.50 236.81 C 152.50 235.89 151.75 235.14 150.83 235.14 C 149.91 235.14 149.16 235.89 149.16 236.81 Z M 149.16 237.80 L 149.16 238.78 C 149.16 239.70 149.91 240.45 150.83 240.45 C 151.75 240.45 152.50 239.70 152.50 238.78 L 152.50 237.80 C 152.50 236.88 151.75 236.13 150.83 236.13 C 149.91 236.13 149.16 236.88 149.16 237.80 Z M 149.16 238.78 L 149.16 239.76 C 149.16 240.69 149.91 241.43 150.83 241.43 C 151.75 241.43 152.50 240.69 152.50 239.76 L 152.50 238.78 C 152.50 237.85 151.75 237.11 150.83 237.11 C 149.91 237.11 149.16 237.85 149.16 238.78 Z M 149.16 239.76 L 149.16 240.79 C 149.16 241.71 149.91 242.45 150.83 242.45 C 151.75 242.45 152.50 241.71 152.50 240.79 L 152.50 239.76 C 152.50 238.84 151.75 238.10 150.83 238.10 C 149.91 238.10 149.16 238.84 149.16 239.76 Z M 149.16 240.78 L 149.16 241.78 C 149.16 242.70 149.90 243.45 150.83 243.45 C 151.75 243.45 152.49 242.71 152.50 241.79 L 152.50 240.79 C 152.50 239.87 151.75 239.12 150.83 239.12 C 149.91 239.12 149.16 239.86 149.16 240.78 Z M 149.16 241.77 L 149.15 242.78 C 149.15 243.70 149.89 244.45 150.81 244.46 C 151.73 244.47 152.48 243.73 152.49 242.81 L 152.50 241.80 C 152.50 240.88 151.76 240.12 150.84 240.12 C 149.92 240.11 149.17 240.85 149.16 241.77 Z M 149.15 242.76 L 149.13 243.75 C 149.11 244.67 149.84 245.43 150.76 245.46 C 151.68 245.48 152.44 244.75 152.46 243.83 L 152.49 242.83 C 152.51 241.91 151.78 241.15 150.86 241.13 C 149.94 241.11 149.17 241.84 149.15 242.76 Z M 149.13 243.72 L 149.09 244.71 C 149.06 245.63 149.77 246.40 150.69 246.44 C 151.61 246.48 152.38 245.76 152.42 244.84 L 152.46 243.86 C 152.50 242.94 151.78 242.16 150.87 242.13 C 149.95 242.09 149.17 242.80 149.13 243.72 Z M 149.10 244.70 L 149.05 245.70 C 149.01 246.61 149.72 247.39 150.64 247.43 C 151.56 247.47 152.33 246.76 152.37 245.84 L 152.42 244.85 C 152.46 243.93 151.75 243.16 150.83 243.12 C 149.91 243.08 149.14 243.79 149.10 244.70 Z M 149.06 245.72 L 149.03 246.86 C 149.00 247.77 149.72 248.54 150.63 248.56 C 151.55 248.59 152.31 247.87 152.34 246.96 L 152.37 245.82 C 152.40 244.90 151.68 244.14 150.76 244.11 C 149.85 244.09 149.08 244.81 149.06 245.72 Z M 149.03 246.89 L 149.02 248.05 C 149.01 248.96 149.74 249.71 150.66 249.71 C 151.57 249.72 152.31 248.99 152.32 248.08 L 152.33 246.92 C 152.34 246.01 151.61 245.26 150.69 245.26 C 149.78 245.25 149.04 245.98 149.03 246.89 Z M 149.04 248.10 L 149.05 248.69 C 149.07 249.59 149.82 250.31 150.72 250.28 C 151.63 250.26 152.34 249.51 152.32 248.61 L 152.31 248.03 C 152.28 247.12 151.54 246.41 150.63 246.43 C 149.73 246.45 149.01 247.20 149.04 248.10 Z M 152.25 248.78 L 152.32 247.89 C 152.39 247.02 151.75 246.27 150.88 246.20 C 150.02 246.13 149.26 246.77 149.19 247.64 L 149.12 248.52 C 149.05 249.39 149.69 250.15 150.56 250.22 C 151.42 250.29 152.18 249.64 152.25 248.78 Z M 152.25 247.89 L 152.34 246.80 C 152.42 245.97 151.81 245.25 150.98 245.18 C 150.16 245.10 149.43 245.72 149.36 246.54 L 149.26 247.63 C 149.19 248.46 149.80 249.19 150.63 249.26 C 151.45 249.33 152.18 248.72 152.25 247.89 Z M 152.31 246.81 L 152.41 245.79 C 152.49 244.98 151.90 244.26 151.10 244.18 C 150.29 244.10 149.57 244.69 149.49 245.50 L 149.39 246.53 C 149.31 247.33 149.90 248.05 150.71 248.13 C 151.51 248.21 152.23 247.62 152.31 246.81 Z M 152.39 245.79 L 152.49 244.77 C 152.57 243.97 151.99 243.26 151.20 243.19 C 150.40 243.11 149.70 243.69 149.62 244.48 L 149.52 245.50 C 149.44 246.29 150.02 247.00 150.81 247.08 C 151.60 247.16 152.31 246.58 152.39 245.79 Z M 152.48 244.76 L 152.57 243.74 C 152.65 242.95 152.07 242.25 151.28 242.18 C 150.49 242.11 149.80 242.68 149.72 243.47 L 149.63 244.49 C 149.56 245.28 150.13 245.98 150.92 246.05 C 151.71 246.12 152.41 245.54 152.48 244.76 Z M 152.57 243.73 L 152.64 242.99 C 152.70 242.21 152.12 241.52 151.34 241.45 C 150.55 241.38 149.86 241.96 149.79 242.74 L 149.73 243.48 C 149.66 244.26 150.24 244.96 151.02 245.03 C 151.81 245.10 152.50 244.52 152.57 243.73 Z"
      fill="black"
      fill-rule="nonzero" /><path d="M 160.18 135.00 L 159.87 133.89 C 159.65 133.06 158.79 132.57 157.96 132.79 C 157.13 133.02 156.64 133.88 156.86 134.71 L 157.17 135.82 C 157.40 136.65 158.25 137.14 159.08 136.92 C 159.92 136.69 160.40 135.83 160.18 135.00 Z M 159.99 134.66 L 160.15 133.94 C 160.35 133.05 159.79 132.16 158.89 131.96 C 158.00 131.76 157.11 132.32 156.91 133.22 L 156.75 133.94 C 156.55 134.83 157.11 135.72 158.01 135.92 C 158.90 136.12 159.79 135.56 159.99 134.66 Z M 158.62 135.32 L 159.56 135.27 C 160.52 135.22 161.26 134.40 161.21 133.44 C 161.15 132.47 160.33 131.73 159.37 131.79 L 158.44 131.84 C 157.47 131.89 156.73 132.71 156.79 133.67 C 156.84 134.64 157.66 135.37 158.62 135.32 Z M 158.84 135.22 L 159.84 135.59 C 160.78 135.93 161.82 135.46 162.16 134.52 C 162.50 133.59 162.02 132.55 161.09 132.21 L 160.08 131.84 C 159.15 131.49 158.11 131.97 157.77 132.91 C 157.43 133.84 157.91 134.88 158.84 135.22 Z M 159.49 135.46 L 160.33 135.98 C 161.19 136.52 162.32 136.26 162.86 135.40 C 163.40 134.54 163.14 133.40 162.28 132.87 L 161.44 132.34 C 160.58 131.80 159.45 132.07 158.91 132.93 C 158.37 133.79 158.63 134.92 159.49 135.46 Z M 160.21 135.92 L 160.99 136.49 C 161.82 137.09 162.98 136.91 163.58 136.08 C 164.19 135.26 164.01 134.09 163.18 133.49 L 162.40 132.92 C 161.57 132.32 160.41 132.50 159.81 133.33 C 159.20 134.16 159.38 135.32 160.21 135.92 Z M 160.95 136.48 L 161.77 137.10 C 162.59 137.73 163.77 137.57 164.39 136.74 C 165.02 135.92 164.86 134.74 164.03 134.12 L 163.22 133.50 C 162.39 132.87 161.22 133.04 160.59 133.86 C 159.97 134.68 160.13 135.86 160.95 136.48 Z M 161.74 137.10 L 162.52 137.70 C 163.34 138.34 164.53 138.19 165.17 137.37 C 165.81 136.55 165.66 135.36 164.84 134.72 L 164.06 134.12 C 163.24 133.48 162.05 133.63 161.41 134.45 C 160.77 135.27 160.92 136.46 161.74 137.10 Z M 162.49 137.69 L 163.27 138.32 C 164.09 138.98 165.29 138.85 165.94 138.03 C 166.60 137.21 166.46 136.02 165.65 135.36 L 164.86 134.73 C 164.05 134.08 162.85 134.21 162.20 135.03 C 161.54 135.84 161.67 137.04 162.49 137.69 Z M 163.24 138.31 L 164.01 138.95 C 164.82 139.63 166.03 139.52 166.70 138.71 C 167.37 137.90 167.26 136.69 166.45 136.02 L 165.68 135.38 C 164.87 134.70 163.67 134.81 163.00 135.62 C 162.32 136.43 162.43 137.63 163.24 138.31 Z M 163.98 138.93 L 164.71 139.57 C 165.51 140.27 166.73 140.18 167.42 139.38 C 168.11 138.58 168.03 137.37 167.23 136.68 L 166.49 136.04 C 165.69 135.34 164.48 135.43 163.79 136.23 C 163.09 137.03 163.18 138.24 163.98 138.93 Z M 164.68 139.56 L 165.44 140.25 C 166.24 140.96 167.45 140.90 168.17 140.10 C 168.88 139.31 168.82 138.09 168.03 137.38 L 167.26 136.69 C 166.47 135.98 165.25 136.04 164.54 136.84 C 163.83 137.63 163.89 138.85 164.68 139.56 Z M 165.41 140.23 L 166.12 140.89 C 166.91 141.62 168.13 141.58 168.86 140.80 C 169.59 140.01 169.55 138.79 168.77 138.06 L 168.06 137.40 C 167.27 136.67 166.05 136.71 165.32 137.49 C 164.59 138.28 164.63 139.50 165.41 140.23 Z M 166.09 140.87 L 166.79 141.55 C 167.57 142.30 168.80 142.28 169.55 141.51 C 170.29 140.73 170.27 139.50 169.50 138.75 L 168.80 138.08 C 168.02 137.33 166.79 137.35 166.05 138.12 C 165.30 138.90 165.32 140.13 166.09 140.87 Z M 166.76 141.53 L 167.49 142.27 C 168.25 143.03 169.49 143.04 170.25 142.28 C 171.02 141.52 171.02 140.28 170.26 139.51 L 169.53 138.78 C 168.77 138.01 167.54 138.01 166.77 138.77 C 166.00 139.53 166.00 140.76 166.76 141.53 Z M 167.45 142.24 L 168.13 142.96 C 168.88 143.74 170.12 143.78 170.91 143.03 C 171.69 142.28 171.72 141.04 170.98 140.26 L 170.30 139.54 C 169.55 138.75 168.31 138.72 167.53 139.47 C 166.74 140.21 166.71 141.45 167.45 142.24 Z M 168.10 142.93 L 168.75 143.64 C 169.48 144.44 170.72 144.50 171.53 143.76 C 172.33 143.03 172.38 141.79 171.65 140.98 L 171.01 140.28 C 170.28 139.48 169.03 139.42 168.23 140.15 C 167.43 140.89 167.37 142.13 168.10 142.93 Z M 168.72 143.62 L 169.39 144.37 C 170.11 145.19 171.36 145.26 172.18 144.54 C 172.99 143.82 173.07 142.57 172.34 141.75 L 171.67 141.00 C 170.95 140.18 169.70 140.11 168.89 140.83 C 168.07 141.56 168.00 142.81 168.72 143.62 Z M 169.37 144.36 L 170.07 145.16 C 170.78 145.99 172.03 146.08 172.86 145.36 C 173.68 144.64 173.77 143.39 173.06 142.57 L 172.36 141.77 C 171.64 140.94 170.39 140.85 169.57 141.57 C 168.74 142.28 168.65 143.53 169.37 144.36 Z M 170.05 145.15 L 170.69 145.90 C 171.41 146.74 172.66 146.84 173.49 146.12 C 174.32 145.41 174.42 144.16 173.71 143.33 L 173.07 142.58 C 172.36 141.74 171.11 141.64 170.27 142.36 C 169.44 143.07 169.34 144.32 170.05 145.15 Z M 170.68 145.89 L 171.31 146.64 C 172.01 147.48 173.27 147.59 174.11 146.88 C 174.95 146.18 175.06 144.92 174.35 144.08 L 173.73 143.34 C 173.02 142.49 171.76 142.38 170.92 143.09 C 170.08 143.80 169.97 145.05 170.68 145.89 Z M 171.29 146.63 L 171.93 147.40 C 172.63 148.25 173.88 148.37 174.73 147.67 C 175.58 146.97 175.71 145.72 175.01 144.87 L 174.37 144.09 C 173.67 143.24 172.41 143.12 171.56 143.82 C 170.71 144.52 170.59 145.78 171.29 146.63 Z M 171.91 147.39 L 172.55 148.19 C 173.24 149.05 174.50 149.18 175.36 148.49 C 176.22 147.80 176.36 146.55 175.67 145.68 L 175.02 144.88 C 174.33 144.02 173.08 143.89 172.22 144.58 C 171.36 145.27 171.22 146.53 171.91 147.39 Z M 172.53 148.17 L 173.17 148.98 C 173.85 149.85 175.10 150.01 175.98 149.33 C 176.85 148.65 177.00 147.39 176.32 146.52 L 175.69 145.70 C 175.01 144.83 173.75 144.68 172.88 145.36 C 172.01 146.04 171.85 147.29 172.53 148.17 Z M 173.14 148.96 L 173.73 149.74 C 174.40 150.62 175.66 150.79 176.54 150.13 C 177.42 149.46 177.60 148.20 176.93 147.32 L 176.34 146.54 C 175.68 145.66 174.42 145.48 173.53 146.15 C 172.65 146.82 172.48 148.08 173.14 148.96 Z M 173.71 149.72 L 174.30 150.51 C 174.96 151.40 176.21 151.60 177.11 150.94 C 178.00 150.28 178.19 149.02 177.53 148.13 L 176.95 147.34 C 176.29 146.44 175.03 146.25 174.14 146.91 C 173.25 147.57 173.06 148.82 173.71 149.72 Z M 174.28 150.50 L 174.87 151.31 C 175.52 152.21 176.78 152.41 177.68 151.76 C 178.58 151.11 178.78 149.86 178.13 148.95 L 177.55 148.14 C 176.90 147.24 175.64 147.04 174.74 147.69 C 173.84 148.34 173.63 149.60 174.28 150.50 Z M 174.86 151.30 L 175.45 152.13 C 176.09 153.03 177.35 153.25 178.26 152.60 C 179.16 151.96 179.38 150.70 178.73 149.79 L 178.14 148.97 C 177.50 148.06 176.24 147.85 175.34 148.49 C 174.43 149.13 174.21 150.39 174.86 151.30 Z M 175.44 152.12 L 176.03 152.96 C 176.67 153.87 177.92 154.09 178.84 153.45 C 179.75 152.81 179.97 151.55 179.33 150.64 L 178.74 149.80 C 178.10 148.89 176.84 148.67 175.93 149.31 C 175.02 149.95 174.80 151.21 175.44 152.12 Z M 176.02 152.95 L 176.58 153.76 C 177.22 154.67 178.48 154.89 179.39 154.26 C 180.31 153.62 180.53 152.36 179.89 151.44 L 179.33 150.64 C 178.70 149.73 177.44 149.50 176.52 150.14 C 175.61 150.78 175.38 152.04 176.02 152.95 Z M 176.58 153.75 L 177.14 154.57 C 177.78 155.49 179.04 155.71 179.96 155.08 C 180.87 154.44 181.10 153.18 180.46 152.26 L 179.90 151.45 C 179.26 150.53 178.00 150.30 177.08 150.94 C 176.17 151.58 175.94 152.84 176.58 153.75 Z M 177.14 154.57 L 177.71 155.39 C 178.35 156.31 179.61 156.54 180.53 155.90 C 181.45 155.27 181.68 154.00 181.04 153.09 L 180.47 152.26 C 179.83 151.34 178.57 151.11 177.65 151.75 C 176.73 152.39 176.50 153.65 177.14 154.57 Z M 177.71 155.39 L 178.29 156.23 C 178.92 157.15 180.19 157.37 181.11 156.74 C 182.03 156.10 182.25 154.84 181.62 153.92 L 181.04 153.08 C 180.40 152.16 179.14 151.94 178.22 152.57 C 177.30 153.21 177.07 154.47 177.71 155.39 Z M 178.29 156.23 L 178.87 157.06 C 179.50 157.98 180.77 158.21 181.69 157.57 C 182.61 156.93 182.84 155.67 182.20 154.75 L 181.62 153.91 C 180.98 152.99 179.71 152.77 178.79 153.40 C 177.87 154.04 177.65 155.31 178.29 156.23 Z M 178.87 157.07 L 179.44 157.89 C 180.08 158.81 181.35 159.04 182.27 158.40 C 183.19 157.75 183.42 156.49 182.77 155.57 L 182.20 154.74 C 181.56 153.82 180.29 153.60 179.37 154.24 C 178.45 154.88 178.22 156.15 178.87 157.07 Z M 179.44 157.90 L 180.02 158.72 C 180.67 159.64 181.93 159.86 182.85 159.22 C 183.77 158.57 183.99 157.30 183.35 156.38 L 182.77 155.56 C 182.13 154.64 180.86 154.42 179.94 155.07 C 179.02 155.71 178.80 156.98 179.44 157.90 Z M 180.02 158.73 L 180.60 159.55 C 181.25 160.46 182.52 160.68 183.44 160.03 C 184.36 159.38 184.57 158.11 183.92 157.19 L 183.34 156.38 C 182.69 155.46 181.42 155.24 180.51 155.89 C 179.59 156.54 179.38 157.81 180.02 158.73 Z M 180.61 159.56 L 181.19 160.37 C 181.85 161.28 183.12 161.49 184.03 160.84 C 184.95 160.18 185.16 158.91 184.50 158.00 L 183.92 157.18 C 183.26 156.27 181.99 156.06 181.08 156.72 C 180.16 157.37 179.95 158.64 180.61 159.56 Z M 181.20 160.38 L 181.78 161.19 C 182.45 162.10 183.72 162.30 184.63 161.64 C 185.54 160.97 185.74 159.70 185.08 158.79 L 184.49 157.99 C 183.83 157.08 182.56 156.87 181.65 157.54 C 180.74 158.20 180.54 159.47 181.20 160.38 Z M 181.79 161.20 L 182.39 162.01 C 183.06 162.91 184.34 163.11 185.24 162.44 C 186.15 161.77 186.34 160.49 185.67 159.58 L 185.07 158.78 C 184.40 157.87 183.13 157.68 182.22 158.35 C 181.31 159.02 181.12 160.30 181.79 161.20 Z M 182.40 162.02 L 183.02 162.84 C 183.70 163.74 184.97 163.92 185.87 163.24 C 186.77 162.57 186.95 161.29 186.28 160.39 L 185.66 159.57 C 184.98 158.67 183.70 158.49 182.80 159.17 C 181.90 159.85 181.72 161.12 182.40 162.02 Z M 183.03 162.86 L 183.64 163.66 C 184.33 164.55 185.61 164.72 186.50 164.04 C 187.40 163.35 187.57 162.07 186.88 161.18 L 186.27 160.37 C 185.58 159.48 184.30 159.31 183.41 160.00 C 182.51 160.68 182.34 161.96 183.03 162.86 Z M 183.65 163.67 L 184.27 164.46 C 184.96 165.35 186.24 165.51 187.13 164.82 C 188.02 164.12 188.18 162.84 187.49 161.95 L 186.87 161.17 C 186.18 160.28 184.90 160.12 184.01 160.81 C 183.12 161.50 182.96 162.78 183.65 163.67 Z M 184.27 164.47 L 184.88 165.24 C 185.58 166.13 186.86 166.28 187.75 165.58 C 188.63 164.88 188.78 163.60 188.09 162.71 L 187.48 161.94 C 186.78 161.06 185.50 160.91 184.61 161.60 C 183.73 162.30 183.58 163.58 184.27 164.47 Z M 184.89 165.25 L 185.50 166.01 C 186.20 166.89 187.49 167.04 188.37 166.34 C 189.25 165.63 189.39 164.35 188.69 163.47 L 188.08 162.70 C 187.38 161.82 186.09 161.68 185.21 162.38 C 184.33 163.09 184.19 164.37 184.89 165.25 Z M 185.51 166.02 L 186.14 166.81 C 186.85 167.69 188.14 167.83 189.01 167.12 C 189.89 166.41 190.03 165.13 189.32 164.25 L 188.68 163.46 C 187.97 162.58 186.69 162.44 185.81 163.15 C 184.94 163.86 184.80 165.15 185.51 166.02 Z M 186.15 166.82 L 186.78 167.60 C 187.49 168.47 188.78 168.60 189.66 167.89 C 190.53 167.18 190.66 165.89 189.95 165.02 L 189.32 164.24 C 188.60 163.37 187.32 163.24 186.44 163.95 C 185.57 164.66 185.44 165.95 186.15 166.82 Z M 186.79 167.60 L 187.42 168.37 C 188.13 169.24 189.42 169.37 190.29 168.65 C 191.16 167.93 191.29 166.65 190.57 165.78 L 189.94 165.01 C 189.23 164.14 187.94 164.01 187.07 164.73 C 186.20 165.45 186.07 166.73 186.79 167.60 Z M 187.42 168.38 L 188.05 169.14 C 188.77 170.01 190.06 170.13 190.93 169.41 C 191.80 168.69 191.92 167.40 191.20 166.53 L 190.57 165.77 C 189.85 164.90 188.56 164.78 187.69 165.50 C 186.82 166.22 186.70 167.51 187.42 168.38 Z M 188.05 169.14 L 188.70 169.92 C 189.42 170.78 190.71 170.90 191.58 170.18 C 192.44 169.46 192.56 168.17 191.84 167.30 L 191.20 166.53 C 190.48 165.66 189.19 165.54 188.32 166.26 C 187.45 166.99 187.33 168.28 188.05 169.14 Z M 188.70 169.92 L 189.36 170.71 C 190.08 171.58 191.37 171.69 192.24 170.97 C 193.10 170.25 193.22 168.96 192.50 168.09 L 191.84 167.30 C 191.12 166.43 189.83 166.32 188.96 167.04 C 188.09 167.76 187.98 169.05 188.70 169.92 Z M 189.36 170.71 L 190.01 171.49 C 190.73 172.36 192.02 172.48 192.89 171.76 C 193.75 171.04 193.87 169.75 193.15 168.88 L 192.50 168.09 C 191.78 167.23 190.49 167.11 189.62 167.83 C 188.75 168.55 188.63 169.84 189.36 170.71 Z M 190.00 171.48 L 190.64 172.25 C 191.36 173.13 192.64 173.25 193.51 172.53 C 194.38 171.82 194.51 170.53 193.79 169.66 L 193.16 168.89 C 192.44 168.02 191.15 167.89 190.28 168.61 C 189.41 169.33 189.29 170.61 190.00 171.48 Z M 190.63 172.24 L 191.24 172.99 C 191.95 173.87 193.23 174.00 194.11 173.29 C 194.98 172.58 195.12 171.29 194.41 170.42 L 193.80 169.67 C 193.09 168.79 191.80 168.66 190.93 169.37 C 190.05 170.08 189.92 171.37 190.63 172.24 Z M 191.22 172.97 L 191.87 173.78 C 192.57 174.67 193.85 174.82 194.73 174.12 C 195.62 173.42 195.76 172.13 195.07 171.25 L 194.42 170.44 C 193.72 169.55 192.44 169.41 191.56 170.11 C 190.67 170.81 190.52 172.09 191.22 172.97 Z M 191.85 173.76 L 192.48 174.58 C 193.17 175.47 194.45 175.64 195.34 174.95 C 196.23 174.27 196.40 172.99 195.71 172.09 L 195.08 171.27 C 194.39 170.38 193.11 170.22 192.22 170.90 C 191.33 171.59 191.16 172.87 191.85 173.76 Z M 192.47 174.56 L 193.06 175.34 C 193.73 176.24 195.01 176.42 195.91 175.75 C 196.81 175.07 196.99 173.80 196.31 172.90 L 195.72 172.11 C 195.05 171.22 193.77 171.03 192.87 171.71 C 191.98 172.39 191.79 173.66 192.47 174.56 Z M 193.05 175.33 L 193.61 176.09 C 194.28 176.99 195.55 177.18 196.45 176.52 C 197.36 175.85 197.55 174.58 196.88 173.67 L 196.32 172.91 C 195.66 172.01 194.38 171.82 193.48 172.49 C 192.58 173.15 192.38 174.43 193.05 175.33 Z M 193.61 176.08 L 194.20 176.89 C 194.86 177.79 196.13 177.99 197.04 177.33 C 197.94 176.67 198.14 175.40 197.48 174.49 L 196.89 173.68 C 196.23 172.78 194.95 172.58 194.05 173.24 C 193.14 173.90 192.94 175.17 193.61 176.08 Z M 194.19 176.88 L 194.78 177.70 C 195.44 178.60 196.71 178.81 197.62 178.15 C 198.52 177.50 198.73 176.23 198.07 175.32 L 197.48 174.50 C 196.83 173.60 195.56 173.39 194.65 174.05 C 193.74 174.70 193.54 175.97 194.19 176.88 Z M 194.78 177.69 L 195.35 178.49 C 196.00 179.40 197.27 179.61 198.18 178.96 C 199.09 178.31 199.30 177.04 198.65 176.13 L 198.08 175.33 C 197.43 174.42 196.16 174.21 195.25 174.86 C 194.34 175.51 194.13 176.78 194.78 177.69 Z M 195.35 178.48 L 195.92 179.29 C 196.57 180.20 197.83 180.42 198.74 179.78 C 199.65 179.13 199.87 177.87 199.23 176.96 L 198.66 176.15 C 198.01 175.23 196.75 175.01 195.84 175.66 C 194.92 176.30 194.71 177.56 195.35 178.48 Z M 195.92 179.28 L 196.50 180.12 C 197.14 181.03 198.40 181.26 199.32 180.62 C 200.23 179.98 200.46 178.72 199.82 177.81 L 199.23 176.97 C 198.59 176.05 197.34 175.83 196.42 176.47 C 195.51 177.11 195.28 178.36 195.92 179.28 Z M 196.50 180.11 L 197.07 180.93 C 197.71 181.85 198.96 182.07 199.88 181.44 C 200.79 180.81 201.02 179.55 200.38 178.64 L 199.82 177.82 C 199.18 176.90 197.93 176.67 197.01 177.31 C 196.10 177.94 195.87 179.20 196.50 180.11 Z M 197.08 180.93 L 197.63 181.73 C 198.26 182.64 199.51 182.87 200.43 182.24 C 201.34 181.61 201.57 180.35 200.94 179.44 L 200.38 178.64 C 199.75 177.73 198.50 177.50 197.59 178.13 C 196.67 178.76 196.44 180.01 197.08 180.93 Z M 197.64 181.73 L 198.23 182.58 C 198.86 183.49 200.11 183.71 201.02 183.08 C 201.92 182.45 202.15 181.20 201.52 180.29 L 200.93 179.44 C 200.29 178.53 199.05 178.31 198.14 178.94 C 197.23 179.57 197.01 180.82 197.64 181.73 Z M 198.24 182.58 L 198.81 183.39 C 199.45 184.29 200.69 184.51 201.59 183.87 C 202.49 183.24 202.71 182.00 202.07 181.10 L 201.50 180.29 C 200.87 179.39 199.63 179.17 198.73 179.80 C 197.83 180.44 197.61 181.68 198.24 182.58 Z M 198.83 183.40 L 199.40 184.19 C 200.03 185.08 201.27 185.29 202.16 184.65 C 203.05 184.01 203.26 182.77 202.62 181.88 L 202.06 181.09 C 201.42 180.20 200.18 179.99 199.29 180.63 C 198.40 181.27 198.19 182.51 198.83 183.40 Z M 199.42 184.20 L 200.02 185.01 C 200.66 185.89 201.89 186.08 202.77 185.44 C 203.65 184.79 203.84 183.56 203.19 182.68 L 202.60 181.87 C 201.95 181.00 200.72 180.81 199.85 181.45 C 198.97 182.09 198.78 183.32 199.42 184.20 Z M 200.05 185.03 L 200.65 185.82 C 201.30 186.68 202.53 186.85 203.39 186.19 C 204.25 185.54 204.41 184.32 203.76 183.46 L 203.16 182.67 C 202.51 181.81 201.28 181.64 200.42 182.29 C 199.56 182.95 199.40 184.17 200.05 185.03 Z M 200.69 185.84 L 201.33 186.64 C 201.99 187.48 203.21 187.62 204.05 186.96 C 204.88 186.29 205.02 185.08 204.36 184.24 L 203.72 183.44 C 203.05 182.60 201.84 182.46 201.00 183.12 C 200.17 183.79 200.03 185.00 200.69 185.84 Z M 201.38 186.67 L 202.04 187.45 C 202.71 188.26 203.92 188.36 204.72 187.69 C 205.53 187.01 205.64 185.81 204.96 185.00 L 204.31 184.22 C 203.63 183.41 202.43 183.30 201.62 183.98 C 200.81 184.66 200.70 185.86 201.38 186.67 Z M 202.10 187.48 L 202.75 188.20 C 203.45 188.97 204.63 189.04 205.40 188.34 C 206.18 187.65 206.24 186.46 205.54 185.69 L 204.89 184.97 C 204.20 184.20 203.01 184.13 202.24 184.83 C 201.47 185.52 201.41 186.71 202.10 187.48 Z M 202.85 188.26 L 203.59 188.99 C 204.32 189.70 205.48 189.69 206.20 188.97 C 206.91 188.25 206.91 187.08 206.18 186.37 L 205.44 185.63 C 204.72 184.92 203.55 184.93 202.84 185.65 C 202.12 186.38 202.13 187.54 202.85 188.26 Z M 203.74 189.06 L 204.45 189.65 C 205.21 190.28 206.34 190.18 206.98 189.41 C 207.61 188.65 207.51 187.51 206.74 186.88 L 206.04 186.29 C 205.27 185.66 204.14 185.76 203.50 186.53 C 202.87 187.29 202.97 188.43 203.74 189.06 Z M 204.64 189.73 L 205.44 190.25 C 206.26 190.78 207.34 190.55 207.87 189.74 C 208.39 188.92 208.16 187.84 207.35 187.31 L 206.55 186.79 C 205.74 186.27 204.65 186.50 204.13 187.31 C 203.60 188.12 203.83 189.21 204.64 189.73 Z M 205.66 190.31 L 206.60 190.77 C 207.44 191.18 208.46 190.82 208.87 189.98 C 209.27 189.13 208.92 188.12 208.08 187.71 L 207.14 187.25 C 206.29 186.84 205.28 187.20 204.87 188.04 C 204.46 188.89 204.81 189.90 205.66 190.31 Z M 206.73 190.77 L 207.69 191.15 C 208.54 191.48 209.50 191.06 209.83 190.22 C 210.16 189.37 209.75 188.41 208.90 188.08 L 207.94 187.70 C 207.09 187.37 206.13 187.79 205.80 188.64 C 205.47 189.48 205.89 190.44 206.73 190.77 Z M 207.82 191.14 L 208.77 191.44 C 209.62 191.70 210.51 191.24 210.78 190.39 C 211.04 189.55 210.57 188.65 209.73 188.39 L 208.78 188.09 C 207.93 187.82 207.04 188.29 206.77 189.13 C 206.51 189.98 206.97 190.87 207.82 191.14 Z M 208.97 191.43 L 209.98 191.62 C 210.82 191.77 211.62 191.22 211.78 190.39 C 211.93 189.56 211.39 188.75 210.55 188.59 L 209.54 188.40 C 208.70 188.25 207.90 188.80 207.74 189.63 C 207.58 190.46 208.13 191.27 208.97 191.43 Z M 210.17 191.58 L 211.12 191.64 C 211.93 191.69 212.63 191.07 212.68 190.26 C 212.73 189.44 212.11 188.74 211.30 188.69 L 210.36 188.63 C 209.54 188.58 208.84 189.20 208.79 190.01 C 208.74 190.83 209.36 191.53 210.17 191.58 Z M 211.19 191.60 L 212.20 191.62 C 212.99 191.63 213.65 190.99 213.66 190.20 C 213.67 189.40 213.03 188.75 212.24 188.74 L 211.23 188.72 C 210.43 188.71 209.78 189.35 209.77 190.14 C 209.76 190.94 210.39 191.59 211.19 191.60 Z M 212.22 191.61 L 213.23 191.61 C 214.02 191.61 214.66 190.97 214.66 190.18 C 214.66 189.39 214.02 188.75 213.23 188.75 L 212.22 188.75 C 211.43 188.75 210.79 189.39 210.79 190.18 C 210.78 190.97 211.43 191.61 212.22 191.61 Z M 213.23 191.61 L 214.22 191.61 C 215.01 191.61 215.65 190.97 215.65 190.18 C 215.65 189.39 215.01 188.75 214.22 188.75 L 213.23 188.75 C 212.44 188.75 211.80 189.39 211.80 190.18 C 211.80 190.97 212.44 191.61 213.23 191.61 Z M 214.22 191.60 L 214.34 191.60 C 215.13 191.60 215.77 190.97 215.77 190.18 C 215.77 189.39 215.13 188.75 214.34 188.75 L 214.22 188.75 C 213.43 188.75 212.79 189.39 212.79 190.18 C 212.79 190.97 213.43 191.60 214.22 191.60 Z"
      fill="black"
      fill-rule="nonzero" /></svg>