<svg xmlns="http://www.w3.org/2000/svg" width="300" height="300" viewBox="0 0 300 300">
<path d="M 176.75 79.99 L 177.69 79.52 C 178.44 79.15 178.75 78.25 178.38 77.50 C 178.01 76.75 177.10 76.44 176.35 76.81 L 175.41 77.28 C 174.66 77.64 174.35 78.55 174.72 79.30 C 175.09 80.05 176.00 80.36 176.75 79.99 Z M 177.68 79.53 L 178.56 79.10 C 179.31 78.74 179.63 77.83 179.26 77.08 C 178.90 76.33 177.99 76.02 177.24 76.38 L 176.36 76.81 C 175.61 77.17 175.30 78.08 175.66 78.83 C 176.03 79.58 176.93 79.89 177.68 79.53 Z M 178.53 79.12 L 179.41 78.72 C 180.17 78.37 180.50 77.47 180.15 76.71 C 179.81 75.95 178.91 75.61 178.15 75.96 L 177.27 76.36 C 176.51 76.71 176.17 77.61 176.52 78.37 C 176.87 79.13 177.77 79.47 178.53 79.12 Z M 179.29 78.77 L 180.23 78.43 C 181.02 78.14 181.43 77.27 181.14 76.48 C 180.86 75.69 179.99 75.29 179.20 75.57 L 178.26 75.91 C 177.47 76.20 177.06 77.07 177.35 77.86 C 177.64 78.64 178.51 79.05 179.29 78.77 Z M 180.10 78.47 L 181.06 78.22 C 181.87 78.01 182.36 77.18 182.15 76.37 C 181.94 75.55 181.11 75.07 180.29 75.28 L 179.33 75.53 C 178.52 75.74 178.03 76.57 178.24 77.38 C 178.45 78.20 179.28 78.68 180.10 78.47 Z M 180.98 78.24 L 181.99 78.04 C 182.81 77.87 183.35 77.07 183.18 76.25 C 183.01 75.42 182.21 74.89 181.39 75.05 L 180.38 75.26 C 179.55 75.42 179.02 76.22 179.18 77.05 C 179.35 77.87 180.15 78.41 180.98 78.24 Z M 181.90 78.06 L 182.93 77.91 C 183.76 77.80 184.35 77.03 184.23 76.19 C 184.11 75.36 183.34 74.77 182.51 74.89 L 181.48 75.04 C 180.64 75.15 180.06 75.92 180.18 76.76 C 180.29 77.59 181.06 78.17 181.90 78.06 Z M 182.83 77.93 L 183.78 77.86 C 184.62 77.80 185.26 77.07 185.20 76.23 C 185.14 75.38 184.41 74.75 183.57 74.81 L 182.61 74.88 C 181.77 74.94 181.14 75.67 181.19 76.51 C 181.25 77.35 181.99 77.99 182.83 77.93 Z M 183.74 77.86 L 184.70 77.82 C 185.55 77.79 186.20 77.08 186.17 76.23 C 186.13 75.39 185.42 74.73 184.58 74.77 L 183.61 74.81 C 182.77 74.84 182.11 75.55 182.15 76.40 C 182.18 77.24 182.89 77.90 183.74 77.86 Z M 184.68 77.83 L 185.70 77.80 C 186.54 77.78 187.21 77.07 187.19 76.23 C 187.17 75.38 186.46 74.71 185.62 74.74 L 184.60 74.76 C 183.75 74.79 183.09 75.49 183.11 76.34 C 183.13 77.18 183.83 77.85 184.68 77.83 Z M 185.67 77.80 L 186.64 77.79 C 187.49 77.79 188.17 77.09 188.16 76.24 C 188.16 75.40 187.46 74.72 186.62 74.73 L 185.64 74.73 C 184.80 74.74 184.12 75.44 184.12 76.28 C 184.13 77.13 184.83 77.81 185.67 77.80 Z M 186.63 77.80 L 187.66 77.79 C 188.51 77.79 189.19 77.10 189.19 76.26 C 189.19 75.41 188.50 74.72 187.66 74.72 L 186.63 74.72 C 185.78 74.72 185.09 75.41 185.09 76.26 C 185.09 77.11 185.78 77.80 186.63 77.80 Z M 187.66 77.80 L 188.66 77.80 C 189.51 77.80 190.20 77.11 190.20 76.26 C 190.20 75.41 189.51 74.72 188.66 74.72 L 187.66 74.72 C 186.81 74.72 186.12 75.41 186.12 76.26 C 186.12 77.11 186.81 77.80 187.66 77.80 Z M 188.65 77.80 L 189.65 77.81 C 190.50 77.82 191.19 77.13 191.20 76.28 C 191.21 75.43 190.52 74.73 189.67 74.73 L 188.67 74.72 C 187.82 74.71 187.12 75.40 187.12 76.25 C 187.11 77.10 187.79 77.79 188.65 77.80 Z M 189.62 77.81 L 190.64 77.83 C 191.49 77.86 192.19 77.18 192.22 76.33 C 192.24 75.48 191.56 74.77 190.71 74.75 L 189.70 74.73 C 188.85 74.70 188.14 75.38 188.12 76.23 C 188.10 77.08 188.77 77.79 189.62 77.81 Z M 190.59 77.83 L 191.57 77.89 C 192.43 77.93 193.15 77.28 193.20 76.43 C 193.25 75.58 192.59 74.85 191.74 74.80 L 190.76 74.75 C 189.90 74.70 189.18 75.36 189.13 76.21 C 189.08 77.06 189.74 77.79 190.59 77.83 Z M 191.51 77.88 L 192.50 77.98 C 193.35 78.06 194.10 77.43 194.18 76.58 C 194.26 75.73 193.64 74.98 192.79 74.90 L 191.80 74.81 C 190.95 74.73 190.20 75.35 190.12 76.20 C 190.04 77.05 190.66 77.80 191.51 77.88 Z M 192.44 77.97 L 193.43 78.11 C 194.28 78.22 195.06 77.63 195.18 76.78 C 195.29 75.93 194.70 75.15 193.85 75.04 L 192.85 74.90 C 192.01 74.79 191.23 75.38 191.11 76.23 C 191.00 77.08 191.59 77.86 192.44 77.97 Z M 193.38 78.10 L 194.36 78.27 C 195.20 78.41 196.00 77.85 196.15 77.01 C 196.29 76.17 195.73 75.36 194.89 75.22 L 193.91 75.05 C 193.06 74.90 192.26 75.47 192.12 76.31 C 191.97 77.15 192.53 77.95 193.38 78.10 Z M 194.33 78.26 L 195.32 78.45 C 196.16 78.61 196.97 78.06 197.13 77.22 C 197.29 76.38 196.74 75.57 195.90 75.41 L 194.91 75.22 C 194.07 75.06 193.26 75.61 193.10 76.45 C 192.94 77.29 193.49 78.10 194.33 78.26 Z M 195.32 78.45 L 196.30 78.64 C 197.14 78.80 197.95 78.25 198.11 77.41 C 198.27 76.57 197.72 75.76 196.88 75.60 L 195.90 75.41 C 195.06 75.25 194.25 75.80 194.09 76.64 C 193.93 77.48 194.48 78.29 195.32 78.45 Z M 196.29 78.64 L 197.28 78.83 C 198.12 79.00 198.93 78.45 199.10 77.61 C 199.26 76.77 198.71 75.95 197.87 75.79 L 196.89 75.60 C 196.05 75.43 195.23 75.98 195.07 76.82 C 194.91 77.66 195.45 78.48 196.29 78.64 Z M 197.25 78.83 L 198.22 79.03 C 199.06 79.21 199.88 78.68 200.06 77.84 C 200.24 77.00 199.70 76.18 198.86 76.00 L 197.90 75.80 C 197.06 75.62 196.24 76.15 196.06 76.99 C 195.88 77.83 196.42 78.65 197.25 78.83 Z M 198.22 79.03 L 199.20 79.24 C 200.03 79.42 200.86 78.89 201.04 78.05 C 201.22 77.21 200.68 76.39 199.85 76.21 L 198.87 76.00 C 198.03 75.82 197.20 76.36 197.03 77.19 C 196.85 78.03 197.38 78.85 198.22 79.03 Z M 199.23 79.25 L 200.22 79.44 C 201.06 79.60 201.87 79.05 202.03 78.21 C 202.20 77.37 201.65 76.56 200.81 76.39 L 199.81 76.20 C 198.97 76.04 198.16 76.59 198.00 77.43 C 197.84 78.27 198.39 79.09 199.23 79.25 Z M 200.24 79.44 L 201.24 79.62 C 202.08 79.77 202.88 79.21 203.03 78.36 C 203.18 77.52 202.62 76.72 201.78 76.57 L 200.78 76.39 C 199.94 76.24 199.13 76.80 198.99 77.65 C 198.84 78.49 199.40 79.29 200.24 79.44 Z M 201.23 79.62 L 202.23 79.80 C 203.07 79.95 203.87 79.39 204.03 78.55 C 204.18 77.70 203.62 76.90 202.78 76.75 L 201.78 76.57 C 200.94 76.42 200.13 76.98 199.98 77.82 C 199.83 78.66 200.39 79.47 201.23 79.62 Z M 202.22 79.80 L 203.20 79.98 C 204.04 80.13 204.85 79.57 205.01 78.73 C 205.16 77.89 204.60 77.08 203.76 76.93 L 202.78 76.75 C 201.94 76.59 201.13 77.15 200.98 77.99 C 200.82 78.83 201.38 79.64 202.22 79.80 Z M 203.23 79.98 L 204.20 80.14 C 205.05 80.28 205.84 79.70 205.98 78.86 C 206.12 78.01 205.54 77.21 204.70 77.08 L 203.73 76.92 C 202.88 76.78 202.09 77.36 201.95 78.20 C 201.81 79.05 202.39 79.85 203.23 79.98 Z M 204.25 80.15 L 205.24 80.28 C 206.09 80.39 206.86 79.79 206.98 78.94 C 207.09 78.09 206.49 77.31 205.64 77.20 L 204.65 77.07 C 203.80 76.96 203.02 77.56 202.91 78.41 C 202.80 79.25 203.40 80.03 204.25 80.15 Z M 205.26 80.28 L 206.24 80.40 C 207.09 80.50 207.86 79.89 207.96 79.04 C 208.06 78.19 207.46 77.42 206.61 77.32 L 205.62 77.20 C 204.77 77.10 204.00 77.71 203.90 78.56 C 203.80 79.41 204.41 80.18 205.26 80.28 Z M 206.26 80.40 L 207.25 80.50 C 208.10 80.59 208.87 79.97 208.96 79.12 C 209.05 78.27 208.43 77.51 207.58 77.42 L 206.59 77.31 C 205.73 77.22 204.97 77.84 204.88 78.69 C 204.79 79.55 205.41 80.31 206.26 80.40 Z M 207.30 80.51 L 208.30 80.58 C 209.16 80.64 209.90 80.00 209.96 79.15 C 210.02 78.29 209.38 77.55 208.53 77.49 L 207.53 77.41 C 206.67 77.35 205.93 77.99 205.87 78.85 C 205.81 79.70 206.45 80.44 207.30 80.51 Z M 208.35 80.58 L 209.35 80.62 C 210.20 80.65 210.92 79.99 210.96 79.13 C 210.99 78.28 210.33 77.56 209.47 77.52 L 208.48 77.49 C 207.62 77.45 206.90 78.12 206.87 78.97 C 206.83 79.83 207.50 80.55 208.35 80.58 Z M 209.38 80.62 L 210.39 80.64 C 211.24 80.65 211.95 79.97 211.96 79.12 C 211.98 78.26 211.30 77.56 210.45 77.54 L 209.44 77.52 C 208.58 77.51 207.88 78.19 207.86 79.04 C 207.85 79.90 208.53 80.60 209.38 80.62 Z M 210.41 80.64 L 211.38 80.64 C 212.24 80.65 212.93 79.96 212.94 79.11 C 212.95 78.25 212.26 77.56 211.40 77.55 L 210.43 77.54 C 209.57 77.54 208.88 78.23 208.87 79.08 C 208.86 79.93 209.55 80.63 210.41 80.64 Z M 211.39 80.64 L 212.42 80.64 C 213.27 80.65 213.96 79.95 213.96 79.10 C 213.96 78.25 213.27 77.55 212.42 77.55 L 211.39 77.55 C 210.54 77.55 209.85 78.24 209.85 79.10 C 209.84 79.95 210.54 80.64 211.39 80.64 Z M 212.42 80.64 L 213.43 80.64 C 214.28 80.64 214.97 79.95 214.97 79.10 C 214.97 78.24 214.28 77.55 213.43 77.55 L 212.42 77.55 C 211.56 77.55 210.87 78.24 210.87 79.10 C 210.87 79.95 211.56 80.64 212.42 80.64 Z M 213.43 80.64 L 214.44 80.64 C 215.30 80.64 215.99 79.95 215.99 79.10 C 215.99 78.25 215.30 77.55 214.44 77.55 L 213.43 77.55 C 212.58 77.55 211.88 78.25 211.88 79.10 C 211.88 79.95 212.58 80.64 213.43 80.64 Z M 214.44 80.64 L 215.45 80.64 C 216.30 80.64 216.99 79.95 216.99 79.10 C 216.99 78.25 216.30 77.56 215.44 77.56 L 214.44 77.56 C 213.59 77.56 212.90 78.25 212.90 79.10 C 212.90 79.95 213.59 80.64 214.44 80.64 Z M 215.46 80.64 L 216.47 80.63 C 217.32 80.62 218.01 79.93 218.00 79.08 C 217.99 78.23 217.30 77.54 216.45 77.55 L 215.43 77.56 C 214.58 77.56 213.90 78.26 213.90 79.11 C 213.91 79.96 214.61 80.65 215.46 80.64 Z M 216.52 80.63 L 217.49 80.59 C 218.34 80.55 219.00 79.83 218.96 78.98 C 218.93 78.14 218.21 77.47 217.36 77.51 L 216.39 77.55 C 215.54 77.59 214.88 78.30 214.92 79.15 C 214.95 80.00 215.67 80.66 216.52 80.63 Z M 217.57 80.58 L 218.56 80.49 C 219.41 80.41 220.03 79.66 219.95 78.81 C 219.87 77.96 219.12 77.34 218.27 77.42 L 217.28 77.52 C 216.43 77.60 215.81 78.35 215.89 79.19 C 215.97 80.04 216.73 80.66 217.57 80.58 Z M 218.63 80.48 L 219.63 80.33 C 220.47 80.21 221.05 79.43 220.93 78.59 C 220.81 77.75 220.03 77.17 219.19 77.29 L 218.20 77.43 C 217.36 77.55 216.77 78.33 216.90 79.17 C 217.02 80.01 217.79 80.60 218.63 80.48 Z M 219.69 80.32 L 220.68 80.14 C 221.51 79.99 222.06 79.19 221.91 78.35 C 221.76 77.52 220.96 76.97 220.12 77.12 L 219.13 77.30 C 218.30 77.46 217.75 78.26 217.90 79.09 C 218.05 79.92 218.85 80.47 219.69 80.32 Z M 220.73 80.13 L 221.70 79.91 C 222.53 79.73 223.05 78.91 222.87 78.09 C 222.69 77.26 221.87 76.74 221.04 76.92 L 220.07 77.13 C 219.24 77.32 218.72 78.13 218.90 78.96 C 219.09 79.79 219.90 80.31 220.73 80.13 Z M 221.76 79.90 L 222.73 79.65 C 223.55 79.44 224.04 78.60 223.83 77.78 C 223.62 76.97 222.79 76.47 221.97 76.68 L 220.99 76.93 C 220.17 77.14 219.68 77.98 219.89 78.80 C 220.10 79.62 220.94 80.11 221.76 79.90 Z M 222.76 79.63 L 223.73 79.36 C 224.54 79.13 225.01 78.29 224.78 77.47 C 224.55 76.66 223.71 76.19 222.89 76.42 L 221.93 76.70 C 221.12 76.93 220.65 77.77 220.88 78.58 C 221.11 79.39 221.95 79.87 222.76 79.63 Z M 223.74 79.36 L 224.69 79.08 C 225.50 78.84 225.96 78.00 225.73 77.19 C 225.49 76.38 224.64 75.92 223.83 76.15 L 222.89 76.43 C 222.08 76.66 221.61 77.51 221.85 78.32 C 222.08 79.13 222.93 79.59 223.74 79.36 Z M 224.68 79.08 L 225.64 78.80 C 226.44 78.57 226.91 77.73 226.68 76.92 C 226.45 76.11 225.60 75.65 224.79 75.88 L 223.84 76.15 C 223.03 76.39 222.57 77.23 222.80 78.04 C 223.03 78.84 223.87 79.31 224.68 79.08 Z M 225.63 78.80 L 226.61 78.52 C 227.41 78.29 227.88 77.45 227.65 76.64 C 227.42 75.84 226.58 75.37 225.77 75.60 L 224.80 75.88 C 223.99 76.11 223.52 76.95 223.75 77.76 C 223.98 78.56 224.83 79.03 225.63 78.80 Z M 226.61 78.52 L 227.59 78.24 C 228.39 78.01 228.86 77.17 228.63 76.37 C 228.40 75.56 227.56 75.09 226.76 75.32 L 225.77 75.60 C 224.97 75.83 224.50 76.67 224.73 77.48 C 224.96 78.28 225.80 78.75 226.61 78.52 Z M 227.59 78.24 L 228.52 77.97 C 229.32 77.74 229.79 76.90 229.56 76.10 C 229.33 75.30 228.49 74.83 227.69 75.06 L 226.76 75.33 C 225.95 75.56 225.49 76.39 225.72 77.20 C 225.95 78.00 226.78 78.47 227.59 78.24 Z M 228.53 77.96 L 229.46 77.69 C 230.26 77.45 230.71 76.61 230.47 75.81 C 230.24 75.01 229.40 74.56 228.60 74.79 L 227.67 75.07 C 226.88 75.30 226.42 76.15 226.66 76.94 C 226.89 77.74 227.73 78.20 228.53 77.96 Z M 229.49 77.68 L 230.45 77.36 C 231.24 77.11 231.68 76.26 231.42 75.46 C 231.16 74.67 230.31 74.24 229.52 74.50 L 228.56 74.81 C 227.77 75.07 227.34 75.92 227.59 76.71 C 227.85 77.50 228.70 77.93 229.49 77.68 Z M 230.47 77.35 L 231.41 77.03 C 232.20 76.76 232.61 75.91 232.34 75.12 C 232.07 74.33 231.22 73.92 230.43 74.19 L 229.50 74.51 C 228.71 74.78 228.29 75.63 228.56 76.42 C 228.83 77.20 229.69 77.62 230.47 77.35 Z M 231.41 77.03 L 232.39 76.69 C 233.18 76.42 233.59 75.57 233.32 74.78 C 233.05 74.00 232.20 73.58 231.42 73.85 L 230.43 74.19 C 229.65 74.46 229.23 75.31 229.50 76.10 C 229.77 76.88 230.62 77.30 231.41 77.03 Z M 232.36 76.70 L 233.38 76.37 C 234.17 76.12 234.60 75.27 234.35 74.48 C 234.09 73.70 233.25 73.26 232.46 73.52 L 231.44 73.84 C 230.66 74.10 230.22 74.94 230.48 75.73 C 230.73 76.52 231.57 76.95 232.36 76.70 Z M 233.25 76.40 L 234.21 76.18 C 235.01 76.00 235.52 75.20 235.33 74.39 C 235.15 73.59 234.35 73.09 233.54 73.27 L 232.59 73.49 C 231.78 73.67 231.28 74.47 231.47 75.28 C 231.65 76.08 232.45 76.58 233.25 76.40 Z M 233.90 76.21 L 234.86 76.20 C 235.68 76.19 236.34 75.51 236.33 74.69 C 236.32 73.87 235.64 73.21 234.82 73.22 L 233.86 73.24 C 233.03 73.25 232.38 73.92 232.39 74.75 C 232.40 75.57 233.08 76.22 233.90 76.21 Z M 234.52 76.15 L 235.48 76.37 C 236.27 76.55 237.07 76.05 237.25 75.26 C 237.43 74.46 236.93 73.67 236.13 73.49 L 235.17 73.27 C 234.37 73.09 233.58 73.59 233.40 74.38 C 233.22 75.18 233.72 75.97 234.52 76.15 Z M 235.37 76.34 L 235.69 76.44 C 236.47 76.67 237.29 76.24 237.53 75.46 C 237.77 74.69 237.34 73.86 236.56 73.62 L 236.24 73.52 C 235.46 73.28 234.64 73.72 234.40 74.50 C 234.16 75.27 234.59 76.10 235.37 76.34 Z"
      fill="black"
      fill-rule="nonzero" /><path d="M 181.99 78.34 L 180.87 78.18 C 180.06 78.06 179.32 78.61 179.20 79.42 C 179.08 80.22 179.63 80.97 180.44 81.09 L 181.56 81.25 C 182.37 81.37 183.11 80.82 183.23 80.01 C 183.35 79.21 182.80 78.46 181.99 78.34 Z M 180.58 78.15 L 179.66 78.19 C 178.84 78.23 178.21 78.93 178.25 79.75 C 178.29 80.56 178.98 81.20 179.80 81.16 L 180.72 81.11 C 181.54 81.08 182.17 80.38 182.13 79.56 C 182.10 78.74 181.40 78.11 180.58 78.15 Z M 178.74 78.56 L 178.17 79.06 C 177.55 79.61 177.49 80.55 178.04 81.17 C 178.59 81.79 179.53 81.85 180.15 81.30 L 180.72 80.79 C 181.34 80.25 181.39 79.30 180.85 78.68 C 180.30 78.07 179.35 78.01 178.74 78.56 Z M 177.68 79.90 L 177.49 80.90 C 177.34 81.72 177.87 82.50 178.69 82.66 C 179.50 82.81 180.29 82.28 180.45 81.46 L 180.64 80.46 C 180.79 79.65 180.26 78.86 179.44 78.70 C 178.62 78.55 177.84 79.08 177.68 79.90 Z M 177.46 81.13 L 177.42 82.21 C 177.40 83.05 178.05 83.74 178.89 83.77 C 179.72 83.80 180.42 83.14 180.44 82.31 L 180.48 81.23 C 180.50 80.40 179.85 79.70 179.02 79.67 C 178.18 79.65 177.49 80.30 177.46 81.13 Z M 177.42 82.25 L 177.41 83.28 C 177.40 84.12 178.08 84.80 178.91 84.81 C 179.75 84.81 180.44 84.14 180.44 83.30 L 180.45 82.27 C 180.46 81.44 179.78 80.75 178.95 80.75 C 178.11 80.74 177.42 81.41 177.42 82.25 Z M 177.40 83.30 L 177.41 84.29 C 177.42 85.13 178.11 85.80 178.95 85.80 C 179.79 85.79 180.46 85.10 180.46 84.26 L 180.45 83.28 C 180.44 82.44 179.75 81.76 178.91 81.77 C 178.07 81.77 177.40 82.46 177.40 83.30 Z M 177.41 84.32 L 177.44 85.36 C 177.46 86.20 178.16 86.87 179.01 86.85 C 179.85 86.82 180.52 86.12 180.49 85.27 L 180.46 84.23 C 180.44 83.39 179.73 82.72 178.89 82.75 C 178.05 82.77 177.38 83.48 177.41 84.32 Z M 177.43 85.42 L 177.50 86.38 C 177.56 87.23 178.29 87.87 179.14 87.81 C 179.98 87.75 180.62 87.02 180.56 86.17 L 180.50 85.21 C 180.44 84.36 179.70 83.73 178.86 83.78 C 178.01 83.84 177.37 84.58 177.43 85.42 Z M 177.49 86.46 L 177.61 87.40 C 177.71 88.25 178.48 88.85 179.33 88.75 C 180.17 88.65 180.78 87.88 180.68 87.03 L 180.57 86.09 C 180.46 85.24 179.69 84.64 178.85 84.74 C 178.00 84.84 177.39 85.61 177.49 86.46 Z M 177.60 87.44 L 177.74 88.43 C 177.87 89.28 178.66 89.87 179.51 89.75 C 180.36 89.63 180.95 88.84 180.83 87.99 L 180.68 86.99 C 180.56 86.14 179.77 85.55 178.92 85.67 C 178.07 85.80 177.48 86.59 177.60 87.44 Z M 177.73 88.42 L 177.87 89.42 C 177.99 90.28 178.78 90.88 179.64 90.76 C 180.50 90.64 181.10 89.85 180.98 88.99 L 180.84 87.99 C 180.72 87.13 179.93 86.54 179.07 86.65 C 178.21 86.77 177.61 87.57 177.73 88.42 Z M 177.85 89.39 L 177.97 90.34 C 178.07 91.20 178.86 91.82 179.72 91.72 C 180.59 91.62 181.21 90.83 181.11 89.96 L 180.99 89.02 C 180.89 88.15 180.11 87.53 179.24 87.63 C 178.37 87.74 177.75 88.52 177.85 89.39 Z M 177.95 90.31 L 178.06 91.34 C 178.14 92.21 178.92 92.85 179.80 92.76 C 180.67 92.68 181.31 91.90 181.22 91.02 L 181.12 89.99 C 181.03 89.12 180.25 88.48 179.38 88.57 C 178.50 88.65 177.87 89.43 177.95 90.31 Z M 178.04 91.31 L 178.13 92.31 C 178.20 93.19 178.98 93.85 179.86 93.77 C 180.74 93.70 181.39 92.92 181.32 92.04 L 181.24 91.05 C 181.16 90.16 180.39 89.51 179.51 89.58 C 178.62 89.66 177.97 90.43 178.04 91.31 Z M 178.12 92.29 L 178.19 93.26 C 178.25 94.15 179.03 94.82 179.91 94.75 C 180.80 94.68 181.47 93.91 181.40 93.02 L 181.33 92.06 C 181.27 91.17 180.49 90.50 179.60 90.57 C 178.72 90.63 178.05 91.41 178.12 92.29 Z M 178.18 93.25 L 178.25 94.27 C 178.31 95.16 179.08 95.84 179.97 95.78 C 180.87 95.72 181.54 94.95 181.48 94.05 L 181.41 93.03 C 181.35 92.14 180.58 91.46 179.69 91.52 C 178.79 91.58 178.12 92.36 178.18 93.25 Z M 178.24 94.26 L 178.30 95.32 C 178.36 96.22 179.13 96.90 180.03 96.84 C 180.93 96.78 181.61 96.01 181.56 95.11 L 181.49 94.06 C 181.43 93.16 180.66 92.48 179.76 92.53 C 178.86 92.59 178.18 93.37 178.24 94.26 Z M 178.29 95.31 L 178.35 96.26 C 178.41 97.17 179.19 97.85 180.09 97.80 C 180.99 97.74 181.68 96.97 181.62 96.06 L 181.57 95.11 C 181.51 94.21 180.73 93.52 179.83 93.58 C 178.93 93.63 178.24 94.41 178.29 95.31 Z M 178.35 96.26 L 178.40 97.23 C 178.45 98.14 179.23 98.84 180.14 98.78 C 181.05 98.73 181.74 97.96 181.69 97.05 L 181.63 96.07 C 181.58 95.16 180.80 94.47 179.89 94.52 C 178.99 94.57 178.29 95.35 178.35 96.26 Z M 178.39 97.22 L 178.44 98.24 C 178.49 99.15 179.27 99.85 180.18 99.80 C 181.09 99.76 181.79 98.98 181.75 98.07 L 181.69 97.06 C 181.65 96.15 180.87 95.44 179.96 95.49 C 179.05 95.54 178.35 96.31 178.39 97.22 Z M 178.44 98.22 L 178.48 99.28 C 178.52 100.19 179.29 100.90 180.21 100.87 C 181.12 100.83 181.83 100.06 181.80 99.14 L 181.75 98.09 C 181.72 97.17 180.94 96.46 180.03 96.50 C 179.11 96.53 178.40 97.31 178.44 98.22 Z M 178.47 99.26 L 178.50 100.21 C 178.53 101.13 179.30 101.85 180.22 101.82 C 181.14 101.80 181.86 101.03 181.83 100.11 L 181.80 99.16 C 181.77 98.24 181.01 97.52 180.09 97.54 C 179.17 97.57 178.44 98.34 178.47 99.26 Z M 178.50 100.20 L 178.52 101.18 C 178.54 102.11 179.31 102.84 180.23 102.81 C 181.15 102.79 181.88 102.02 181.86 101.10 L 181.84 100.12 C 181.82 99.20 181.05 98.47 180.13 98.49 C 179.20 98.51 178.47 99.28 178.50 100.20 Z M 178.52 101.18 L 178.54 102.18 C 178.55 103.11 179.32 103.85 180.24 103.83 C 181.17 103.81 181.90 103.04 181.89 102.12 L 181.87 101.11 C 181.85 100.18 181.08 99.45 180.16 99.47 C 179.23 99.48 178.50 100.25 178.52 101.18 Z M 178.53 102.18 L 178.55 103.21 C 178.56 104.14 179.33 104.88 180.26 104.86 C 181.18 104.85 181.92 104.08 181.91 103.15 L 181.89 102.12 C 181.88 101.20 181.11 100.46 180.18 100.47 C 179.25 100.49 178.51 101.25 178.53 102.18 Z M 178.54 103.21 L 178.56 104.23 C 178.57 105.16 179.34 105.90 180.27 105.89 C 181.20 105.88 181.94 105.11 181.93 104.18 L 181.91 103.16 C 181.90 102.22 181.13 101.48 180.20 101.49 C 179.27 101.51 178.53 102.28 178.54 103.21 Z M 178.55 104.23 L 178.57 105.22 C 178.58 106.15 179.35 106.90 180.28 106.89 C 181.22 106.87 181.96 106.10 181.95 105.17 L 181.94 104.18 C 181.92 103.24 181.15 102.50 180.22 102.51 C 179.28 102.53 178.54 103.29 178.55 104.23 Z M 178.56 105.22 L 178.57 106.22 C 178.59 107.15 179.36 107.90 180.30 107.89 C 181.23 107.88 181.98 107.11 181.97 106.17 L 181.96 105.17 C 181.94 104.23 181.17 103.49 180.23 103.50 C 179.30 103.51 178.55 104.28 178.56 105.22 Z M 178.57 106.21 L 178.58 107.22 C 178.59 108.16 179.37 108.91 180.31 108.90 C 181.25 108.89 182.00 108.12 181.99 107.18 L 181.97 106.17 C 181.96 105.23 181.19 104.48 180.25 104.49 C 179.31 104.50 178.56 105.27 178.57 106.21 Z M 178.58 107.21 L 178.59 108.22 C 178.60 109.16 179.37 109.92 180.31 109.91 C 181.26 109.90 182.01 109.13 182.00 108.19 L 181.99 107.18 C 181.98 106.24 181.21 105.48 180.27 105.49 C 179.32 105.50 178.57 106.27 178.58 107.21 Z M 178.58 108.22 L 178.59 109.22 C 178.60 110.17 179.37 110.93 180.32 110.92 C 181.26 110.92 182.02 110.14 182.02 109.20 L 182.01 108.19 C 182.00 107.24 181.23 106.48 180.28 106.49 C 179.34 106.50 178.57 107.27 178.58 108.22 Z M 178.58 109.22 L 178.59 110.22 C 178.59 111.17 179.37 111.94 180.32 111.93 C 181.27 111.93 182.03 111.15 182.03 110.21 L 182.02 109.20 C 182.02 108.25 181.24 107.49 180.29 107.49 C 179.35 107.50 178.58 108.27 178.58 109.22 Z M 178.58 110.22 L 178.59 111.22 C 178.59 112.17 179.36 112.94 180.32 112.94 C 181.27 112.94 182.04 112.16 182.03 111.21 L 182.03 110.21 C 182.03 109.26 181.25 108.49 180.30 108.49 C 179.35 108.49 178.58 109.27 178.58 110.22 Z M 178.58 111.22 L 178.58 112.22 C 178.59 113.17 179.36 113.95 180.31 113.95 C 181.27 113.94 182.04 113.17 182.04 112.22 L 182.04 111.22 C 182.04 110.26 181.26 109.49 180.31 109.49 C 179.35 109.49 178.58 110.27 178.58 111.22 Z M 178.58 112.22 L 178.58 113.21 C 178.58 114.17 179.36 114.95 180.31 114.95 C 181.27 114.95 182.05 114.17 182.04 113.21 L 182.04 112.22 C 182.04 111.26 181.27 110.48 180.31 110.48 C 179.35 110.49 178.58 111.26 178.58 112.22 Z M 178.58 113.21 L 178.58 114.20 C 178.58 115.16 179.35 115.94 180.31 115.94 C 181.27 115.94 182.05 115.16 182.05 114.20 L 182.05 113.21 C 182.05 112.25 181.27 111.48 180.31 111.48 C 179.35 111.48 178.58 112.25 178.58 113.21 Z M 178.57 114.20 L 178.57 115.18 C 178.57 116.14 179.35 116.92 180.31 116.92 C 181.27 116.92 182.05 116.14 182.05 115.18 L 182.05 114.20 C 182.05 113.24 181.27 112.46 180.31 112.46 C 179.35 112.46 178.57 113.24 178.57 114.20 Z M 178.57 115.18 L 178.57 116.16 C 178.57 117.12 179.35 117.91 180.31 117.91 C 181.28 117.91 182.06 117.12 182.06 116.16 L 182.06 115.18 C 182.06 114.21 181.28 113.43 180.31 113.43 C 179.35 113.43 178.57 114.21 178.57 115.18 Z M 178.56 116.16 L 178.56 117.16 C 178.56 118.13 179.35 118.91 180.31 118.91 C 181.28 118.91 182.06 118.13 182.06 117.16 L 182.06 116.16 C 182.06 115.19 181.28 114.41 180.31 114.41 C 179.35 114.41 178.56 115.19 178.56 116.16 Z M 178.56 117.16 L 178.56 118.18 C 178.56 119.15 179.34 119.93 180.31 119.93 C 181.28 119.93 182.07 119.15 182.07 118.18 L 182.07 117.16 C 182.07 116.19 181.28 115.40 180.31 115.40 C 179.34 115.40 178.56 116.19 178.56 117.16 Z M 178.55 118.18 L 178.55 119.19 C 178.55 120.17 179.34 120.95 180.31 120.95 C 181.28 120.95 182.07 120.17 182.07 119.19 L 182.07 118.18 C 182.07 117.21 181.28 116.42 180.31 116.42 C 179.34 116.42 178.55 117.21 178.55 118.18 Z M 178.55 119.19 L 178.55 120.18 C 178.55 121.15 179.34 121.94 180.31 121.94 C 181.29 121.94 182.07 121.15 182.07 120.18 L 182.07 119.19 C 182.07 118.22 181.29 117.43 180.31 117.43 C 179.34 117.43 178.55 118.22 178.55 119.19 Z M 178.55 120.18 L 178.55 121.18 C 178.55 122.15 179.34 122.94 180.31 122.94 C 181.29 122.94 182.08 122.15 182.08 121.18 L 182.08 120.18 C 182.08 119.20 181.29 118.41 180.31 118.41 C 179.34 118.41 178.55 119.20 178.55 120.18 Z M 178.55 121.18 L 178.55 122.19 C 178.55 123.16 179.34 123.95 180.31 123.95 C 181.29 123.95 182.08 123.16 182.08 122.19 L 182.08 121.18 C 182.08 120.20 181.29 119.41 180.31 119.41 C 179.34 119.41 178.55 120.20 178.55 121.18 Z M 178.54 122.19 L 178.54 123.20 C 178.54 124.18 179.34 124.97 180.31 124.97 C 181.29 124.97 182.08 124.18 182.08 123.20 L 182.08 122.19 C 182.08 121.21 181.29 120.42 180.31 120.42 C 179.34 120.42 178.54 121.21 178.54 122.19 Z M 178.54 123.20 L 178.54 124.21 C 178.54 125.19 179.33 125.98 180.31 125.98 C 181.29 125.98 182.08 125.19 182.08 124.21 L 182.08 123.20 C 182.08 122.22 181.29 121.43 180.31 121.43 C 179.33 121.43 178.54 122.22 178.54 123.20 Z M 178.54 124.21 L 178.54 125.22 C 178.54 126.20 179.33 126.99 180.31 126.99 C 181.29 126.99 182.08 126.20 182.08 125.22 L 182.08 124.21 C 182.08 123.23 181.29 122.44 180.31 122.44 C 179.33 122.44 178.54 123.23 178.54 124.21 Z M 178.54 125.22 L 178.54 126.23 C 178.54 127.21 179.33 128.00 180.31 128.00 C 181.29 128.00 182.09 127.21 182.09 126.23 L 182.09 125.22 C 182.09 124.24 181.29 123.45 180.31 123.45 C 179.33 123.45 178.54 124.24 178.54 125.22 Z M 178.54 126.22 L 178.54 127.22 C 178.53 128.20 179.33 129.00 180.31 129.00 C 181.29 129.00 182.08 128.21 182.09 127.23 L 182.09 126.23 C 182.09 125.25 181.29 124.45 180.31 124.45 C 179.33 124.45 178.54 125.24 178.54 126.22 Z M 178.53 127.22 L 178.53 128.21 C 178.53 129.19 179.32 129.99 180.30 129.99 C 181.28 130.00 182.08 129.20 182.08 128.22 L 182.09 127.23 C 182.09 126.25 181.30 125.45 180.32 125.45 C 179.33 125.44 178.54 126.24 178.53 127.22 Z M 178.53 128.21 L 178.53 129.20 C 178.52 130.18 179.31 130.98 180.30 130.99 C 181.28 130.99 182.08 130.20 182.08 129.22 L 182.09 128.22 C 182.09 127.24 181.30 126.44 180.32 126.44 C 179.33 126.43 178.53 127.23 178.53 128.21 Z M 178.52 129.20 L 178.52 130.20 C 178.51 131.18 179.30 131.98 180.29 131.99 C 181.27 131.99 182.07 131.20 182.08 130.22 L 182.08 129.22 C 182.09 128.24 181.30 127.44 180.32 127.43 C 179.33 127.42 178.53 128.22 178.52 129.20 Z M 178.52 130.19 L 178.51 131.20 C 178.50 132.18 179.29 132.98 180.27 132.99 C 181.25 133.00 182.06 132.21 182.07 131.23 L 182.08 130.23 C 182.09 129.24 181.30 128.44 180.31 128.43 C 179.33 128.42 178.53 129.21 178.52 130.19 Z M 178.51 131.19 L 178.50 132.20 C 178.48 133.18 179.27 133.99 180.25 134.00 C 181.24 134.01 182.04 133.23 182.05 132.24 L 182.07 131.24 C 182.08 130.25 181.29 129.45 180.31 129.43 C 179.33 129.42 178.52 130.21 178.51 131.19 Z M 178.50 132.19 L 178.48 133.20 C 178.46 134.18 179.25 134.99 180.23 135.00 C 181.21 135.02 182.02 134.24 182.04 133.25 L 182.05 132.25 C 182.07 131.27 181.29 130.46 180.30 130.44 C 179.32 130.43 178.51 131.21 178.50 132.19 Z M 178.48 133.19 L 178.46 134.18 C 178.44 135.17 179.22 135.98 180.20 136.00 C 181.18 136.02 182.00 135.24 182.02 134.26 L 182.04 133.26 C 182.06 132.28 181.28 131.47 180.30 131.45 C 179.31 131.43 178.50 132.21 178.48 133.19 Z M 178.46 134.18 L 178.43 135.16 C 178.41 136.14 179.18 136.96 180.17 136.99 C 181.15 137.01 181.96 136.24 181.99 135.25 L 182.02 134.27 C 182.04 133.29 181.27 132.47 180.28 132.44 C 179.30 132.42 178.49 133.19 178.46 134.18 Z M 178.44 135.15 L 178.40 136.17 C 178.37 137.16 179.14 137.98 180.12 138.01 C 181.10 138.04 181.93 137.27 181.96 136.29 L 181.99 135.27 C 182.02 134.28 181.25 133.46 180.27 133.43 C 179.29 133.40 178.47 134.17 178.44 135.15 Z M 178.40 136.17 L 178.37 137.18 C 178.33 138.16 179.10 138.98 180.08 139.02 C 181.06 139.06 181.88 138.29 181.92 137.31 L 181.96 136.30 C 181.99 135.32 181.23 134.49 180.25 134.45 C 179.26 134.42 178.44 135.18 178.40 136.17 Z M 178.36 137.17 L 178.33 138.17 C 178.29 139.15 179.05 139.98 180.03 140.02 C 181.01 140.06 181.84 139.29 181.88 138.31 L 181.92 137.31 C 181.96 136.33 181.20 135.50 180.21 135.46 C 179.23 135.43 178.40 136.19 178.36 137.17 Z M 178.32 138.17 L 178.28 139.16 C 178.24 140.14 179.01 140.97 179.99 141.01 C 180.97 141.05 181.80 140.28 181.84 139.30 L 181.88 138.31 C 181.92 137.33 181.16 136.50 180.18 136.46 C 179.19 136.42 178.37 137.19 178.32 138.17 Z M 178.28 139.16 L 178.24 140.14 C 178.21 141.12 178.97 141.95 179.95 141.99 C 180.93 142.03 181.76 141.26 181.80 140.28 L 181.84 139.30 C 181.88 138.32 181.12 137.49 180.13 137.45 C 179.15 137.41 178.32 138.17 178.28 139.16 Z M 178.24 140.14 L 178.21 141.13 C 178.17 142.11 178.94 142.94 179.92 142.98 C 180.90 143.01 181.73 142.25 181.77 141.26 L 181.80 140.27 C 181.84 139.29 181.07 138.47 180.09 138.43 C 179.11 138.39 178.28 139.16 178.24 140.14 Z M 178.21 141.14 L 178.17 142.13 C 178.14 143.11 178.91 143.93 179.89 143.97 C 180.87 144.00 181.70 143.23 181.73 142.25 L 181.77 141.26 C 181.80 140.28 181.03 139.45 180.05 139.42 C 179.06 139.39 178.24 140.15 178.21 141.14 Z M 178.17 142.13 L 178.14 143.13 C 178.11 144.11 178.89 144.93 179.87 144.96 C 180.85 144.99 181.67 144.22 181.70 143.24 L 181.73 142.24 C 181.76 141.26 180.99 140.44 180.01 140.41 C 179.02 140.38 178.20 141.15 178.17 142.13 Z M 178.14 143.13 L 178.12 144.14 C 178.09 145.12 178.86 145.94 179.85 145.96 C 180.83 145.99 181.65 145.21 181.67 144.23 L 181.70 143.23 C 181.73 142.25 180.95 141.43 179.97 141.40 C 178.99 141.38 178.17 142.15 178.14 143.13 Z M 178.12 144.14 L 178.09 145.15 C 178.07 146.14 178.85 146.95 179.83 146.97 C 180.81 147.00 181.63 146.22 181.65 145.24 L 181.67 144.23 C 181.70 143.24 180.92 142.43 179.94 142.41 C 178.96 142.38 178.14 143.16 178.12 144.14 Z M 178.09 145.16 L 178.07 146.12 C 178.05 147.10 178.83 147.92 179.81 147.94 C 180.80 147.96 181.61 147.18 181.63 146.20 L 181.65 145.23 C 181.67 144.25 180.89 143.44 179.91 143.42 C 178.93 143.40 178.11 144.18 178.09 145.16 Z M 178.07 146.13 L 178.06 147.09 C 178.04 148.07 178.82 148.88 179.80 148.90 C 180.78 148.92 181.59 148.14 181.61 147.15 L 181.63 146.19 C 181.65 145.21 180.87 144.40 179.88 144.38 C 178.90 144.36 178.09 145.14 178.07 146.13 Z M 178.06 147.09 L 178.04 148.07 C 178.02 149.05 178.80 149.86 179.78 149.88 C 180.77 149.90 181.58 149.12 181.59 148.14 L 181.61 147.15 C 181.63 146.17 180.85 145.36 179.86 145.34 C 178.88 145.33 178.07 146.11 178.06 147.09 Z M 178.04 148.07 L 178.02 149.08 C 178.01 150.06 178.79 150.87 179.77 150.89 C 180.75 150.91 181.56 150.12 181.57 149.14 L 181.59 148.13 C 181.61 147.15 180.83 146.34 179.85 146.33 C 178.87 146.31 178.06 147.09 178.04 148.07 Z M 178.02 149.08 L 178.00 150.12 C 177.99 151.10 178.77 151.91 179.75 151.93 C 180.73 151.95 181.54 151.16 181.56 150.18 L 181.57 149.15 C 181.59 148.16 180.81 147.36 179.83 147.34 C 178.85 147.32 178.04 148.10 178.02 149.08 Z M 178.01 150.12 L 177.98 151.16 C 177.97 152.14 178.74 152.95 179.72 152.97 C 180.70 152.99 181.51 152.21 181.53 151.23 L 181.55 150.19 C 181.57 149.21 180.79 148.40 179.81 148.38 C 178.83 148.36 178.02 149.14 178.01 150.12 Z M 177.99 151.16 L 177.96 152.15 C 177.94 153.12 178.72 153.94 179.70 153.96 C 180.68 153.98 181.49 153.20 181.51 152.22 L 181.53 151.23 C 181.55 150.25 180.78 149.44 179.80 149.42 C 178.82 149.40 178.01 150.18 177.99 151.16 Z M 177.97 152.14 L 177.94 153.15 C 177.92 154.13 178.70 154.94 179.68 154.96 C 180.66 154.98 181.47 154.21 181.49 153.23 L 181.51 152.22 C 181.53 151.24 180.76 150.43 179.78 150.41 C 178.80 150.39 177.99 151.17 177.97 152.14 Z M 177.94 153.15 L 177.92 154.17 C 177.90 155.14 178.68 155.95 179.66 155.97 C 180.64 156.00 181.45 155.22 181.47 154.24 L 181.49 153.23 C 181.51 152.25 180.73 151.44 179.75 151.42 C 178.78 151.40 177.97 152.17 177.94 153.15 Z M 177.92 154.17 L 177.90 155.18 C 177.88 156.16 178.66 156.97 179.64 156.99 C 180.62 157.01 181.43 156.23 181.45 155.25 L 181.47 154.24 C 181.49 153.26 180.71 152.45 179.73 152.43 C 178.75 152.41 177.94 153.19 177.92 154.17 Z M 177.90 155.18 L 177.89 156.18 C 177.87 157.16 178.65 157.97 179.62 157.99 C 180.60 158.00 181.41 157.22 181.43 156.25 L 181.44 155.25 C 181.46 154.27 180.68 153.46 179.71 153.44 C 178.73 153.43 177.92 154.21 177.90 155.18 Z M 177.89 156.19 L 177.87 157.18 C 177.86 158.16 178.64 158.97 179.62 158.98 C 180.59 159.00 181.40 158.21 181.41 157.24 L 181.43 156.24 C 181.44 155.26 180.66 154.46 179.68 154.45 C 178.71 154.43 177.90 155.21 177.89 156.19 Z M 177.87 157.19 L 177.86 158.25 C 177.85 159.22 178.63 160.02 179.61 160.03 C 180.59 160.05 181.39 159.26 181.40 158.29 L 181.41 157.23 C 181.42 156.25 180.64 155.45 179.66 155.44 C 178.68 155.43 177.88 156.22 177.87 157.19 Z M 177.86 158.25 L 177.86 159.28 C 177.85 160.25 178.63 161.05 179.61 161.06 C 180.59 161.06 181.38 160.28 181.39 159.30 L 181.40 158.28 C 181.40 157.30 180.62 156.51 179.64 156.50 C 178.67 156.49 177.87 157.28 177.86 158.25 Z M 177.86 159.28 L 177.85 160.28 C 177.85 161.26 178.64 162.05 179.61 162.05 C 180.59 162.06 181.38 161.27 181.38 160.29 L 181.39 159.30 C 181.39 158.32 180.60 157.53 179.63 157.53 C 178.65 157.52 177.86 158.31 177.86 159.28 Z M 177.85 160.28 L 177.85 161.26 C 177.85 162.23 178.64 163.02 179.61 163.03 C 180.59 163.03 181.38 162.24 181.38 161.26 L 181.38 160.29 C 181.38 159.32 180.60 158.53 179.62 158.52 C 178.65 158.52 177.86 159.31 177.85 160.28 Z M 177.85 161.26 L 177.85 162.22 C 177.85 163.19 178.64 163.98 179.62 163.98 C 180.59 163.98 181.38 163.19 181.38 162.22 L 181.38 161.26 C 181.38 160.29 180.59 159.50 179.62 159.50 C 178.64 159.50 177.86 160.29 177.85 161.26 Z M 177.86 162.22 L 177.86 163.21 C 177.86 164.18 178.64 164.97 179.62 164.97 C 180.59 164.97 181.38 164.18 181.38 163.21 L 181.38 162.22 C 181.38 161.25 180.59 160.46 179.62 160.46 C 178.64 160.46 177.86 161.25 177.86 162.22 Z M 177.86 163.21 L 177.86 164.22 C 177.86 165.19 178.65 165.98 179.62 165.98 C 180.59 165.98 181.37 165.19 181.37 164.22 L 181.37 163.21 C 181.37 162.24 180.59 161.45 179.62 161.45 C 178.65 161.45 177.86 162.24 177.86 163.21 Z M 177.86 164.22 L 177.86 165.22 C 177.86 166.19 178.65 166.97 179.62 166.97 C 180.58 166.97 181.37 166.19 181.37 165.22 L 181.37 164.22 C 181.37 163.25 180.58 162.47 179.62 162.47 C 178.65 162.47 177.86 163.25 177.86 164.22 Z M 177.87 165.22 L 177.87 166.21 C 177.87 167.18 178.65 167.96 179.62 167.96 C 180.58 167.96 181.37 167.18 181.37 166.21 L 181.37 165.22 C 181.37 164.25 180.58 163.47 179.62 163.47 C 178.65 163.47 177.87 164.25 177.87 165.22 Z M 177.87 166.21 L 177.87 167.20 C 177.87 168.17 178.65 168.95 179.62 168.95 C 180.58 168.95 181.36 168.17 181.36 167.20 L 181.36 166.21 C 181.36 165.25 180.58 164.47 179.62 164.47 C 178.65 164.47 177.87 165.25 177.87 166.21 Z M 177.88 167.20 L 177.88 168.19 C 177.88 169.15 178.66 169.93 179.62 169.93 C 180.58 169.93 181.36 169.15 181.36 168.19 L 181.36 167.20 C 181.36 166.24 180.58 165.46 179.62 165.46 C 178.66 165.46 177.88 166.24 177.88 167.20 Z M 177.88 168.19 L 177.88 169.18 C 177.88 170.14 178.66 170.92 179.62 170.92 C 180.58 170.92 181.35 170.14 181.35 169.18 L 181.35 168.19 C 181.35 167.23 180.58 166.46 179.62 166.46 C 178.66 166.46 177.88 167.23 177.88 168.19 Z M 177.89 169.18 L 177.89 170.18 C 177.89 171.14 178.66 171.91 179.62 171.91 C 180.57 171.91 181.35 171.14 181.35 170.18 L 181.35 169.18 C 181.35 168.23 180.57 167.45 179.62 167.45 C 178.66 167.45 177.89 168.23 177.89 169.18 Z M 177.89 170.18 L 177.89 171.18 C 177.89 172.13 178.66 172.91 179.62 172.91 C 180.57 172.91 181.34 172.13 181.34 171.18 L 181.34 170.18 C 181.34 169.23 180.57 168.45 179.62 168.45 C 178.66 168.45 177.89 169.23 177.89 170.18 Z M 177.90 171.18 L 177.90 172.19 C 177.90 173.14 178.67 173.91 179.62 173.91 C 180.57 173.91 181.34 173.14 181.34 172.19 L 181.34 171.18 C 181.34 170.23 180.57 169.46 179.62 169.46 C 178.67 169.46 177.90 170.23 177.90 171.18 Z M 177.90 172.19 L 177.90 173.19 C 177.90 174.14 178.67 174.91 179.62 174.91 C 180.56 174.91 181.33 174.14 181.33 173.19 L 181.33 172.19 C 181.33 171.24 180.56 170.47 179.62 170.47 C 178.67 170.47 177.90 171.24 177.90 172.19 Z M 177.91 173.19 L 177.91 174.19 C 177.91 175.13 178.67 175.90 179.62 175.90 C 180.56 175.90 181.33 175.13 181.33 174.19 L 181.33 173.19 C 181.33 172.25 180.56 171.48 179.62 171.48 C 178.67 171.48 177.91 172.25 177.91 173.19 Z M 177.91 174.19 L 177.91 175.18 C 177.91 176.13 178.67 176.89 179.62 176.89 C 180.56 176.89 181.32 176.13 181.32 175.18 L 181.32 174.19 C 181.32 173.24 180.56 172.48 179.62 172.48 C 178.67 172.48 177.91 173.24 177.91 174.19 Z M 177.92 175.18 L 177.92 176.19 C 177.92 177.13 178.68 177.89 179.62 177.89 C 180.56 177.89 181.32 177.13 181.32 176.19 L 181.32 175.18 C 181.32 174.24 180.56 173.48 179.62 173.48 C 178.68 173.48 177.92 174.24 177.92 175.18 Z M 177.92 176.19 L 177.92 177.19 C 177.92 178.13 178.68 178.89 179.62 178.89 C 180.55 178.89 181.31 178.13 181.31 177.19 L 181.31 176.19 C 181.31 175.25 180.55 174.49 179.62 174.49 C 178.68 174.49 177.92 175.25 177.92 176.19 Z M 177.92 177.19 L 177.92 178.20 C 177.92 179.13 178.68 179.89 179.62 179.89 C 180.55 179.89 181.31 179.13 181.31 178.20 L 181.31 177.19 C 181.31 176.26 180.55 175.50 179.62 175.50 C 178.68 175.50 177.92 176.26 177.92 177.19 Z M 177.93 178.20 L 177.93 179.20 C 177.93 180.13 178.69 180.89 179.62 180.89 C 180.55 180.89 181.31 180.13 181.30 179.20 L 181.30 178.20 C 181.30 177.27 180.55 176.51 179.62 176.51 C 178.68 176.51 177.93 177.27 177.93 178.20 Z M 177.93 179.20 L 177.94 180.20 C 177.94 181.13 178.70 181.88 179.63 181.88 C 180.55 181.88 181.31 181.12 181.30 180.19 L 181.30 179.19 C 181.30 178.26 180.54 177.51 179.61 177.52 C 178.68 177.52 177.93 178.27 177.93 179.20 Z M 177.94 180.21 L 177.95 181.21 C 177.96 182.14 178.71 182.88 179.64 182.88 C 180.57 182.87 181.31 182.11 181.31 181.19 L 181.30 180.19 C 181.29 179.26 180.53 178.51 179.61 178.52 C 178.68 178.53 177.94 179.28 177.94 180.21 Z M 177.96 181.22 L 177.97 182.22 C 177.98 183.15 178.74 183.88 179.67 183.87 C 180.59 183.86 181.33 183.10 181.32 182.18 L 181.30 181.18 C 181.29 180.25 180.53 179.51 179.60 179.53 C 178.68 179.54 177.94 180.30 177.96 181.22 Z M 177.97 182.24 L 178.00 183.24 C 178.02 184.16 178.78 184.89 179.70 184.87 C 180.62 184.85 181.35 184.08 181.33 183.16 L 181.31 182.16 C 181.29 181.24 180.53 180.51 179.60 180.53 C 178.68 180.55 177.95 181.32 177.97 182.24 Z M 178.00 183.25 L 178.04 184.31 C 178.07 185.23 178.84 185.95 179.76 185.92 C 180.67 185.89 181.39 185.12 181.36 184.20 L 181.33 183.14 C 181.30 182.22 180.53 181.50 179.61 181.53 C 178.69 181.57 177.97 182.34 178.00 183.25 Z M 178.04 184.33 L 178.09 185.39 C 178.13 186.30 178.90 187.01 179.82 186.97 C 180.74 186.93 181.45 186.16 181.41 185.24 L 181.36 184.18 C 181.32 183.27 180.54 182.56 179.63 182.60 C 178.71 182.64 178.00 183.41 178.04 184.33 Z M 178.09 185.40 L 178.15 186.42 C 178.20 187.34 178.98 188.04 179.89 187.99 C 180.81 187.94 181.51 187.16 181.46 186.24 L 181.40 185.22 C 181.35 184.31 180.57 183.61 179.66 183.66 C 178.74 183.71 178.04 184.49 178.09 185.40 Z M 178.15 186.44 L 178.21 187.41 C 178.27 188.32 179.06 189.01 179.97 188.96 C 180.88 188.90 181.58 188.11 181.52 187.20 L 181.46 186.23 C 181.40 185.31 180.61 184.62 179.70 184.68 C 178.78 184.74 178.09 185.53 178.15 186.44 Z M 178.22 187.43 L 178.28 188.33 C 178.35 189.24 179.15 189.92 180.06 189.85 C 180.97 189.79 181.65 188.99 181.58 188.08 L 181.51 187.18 C 181.45 186.27 180.65 185.59 179.74 185.65 C 178.83 185.72 178.15 186.52 178.22 187.43 Z M 178.29 188.35 L 178.39 189.49 C 178.47 190.40 179.27 191.07 180.18 190.99 C 181.09 190.90 181.76 190.10 181.68 189.19 L 181.58 188.06 C 181.50 187.15 180.69 186.48 179.79 186.56 C 178.88 186.64 178.21 187.44 178.29 188.35 Z M 178.40 189.52 L 178.51 190.54 C 178.60 191.44 179.42 192.10 180.32 192.00 C 181.22 191.90 181.88 191.09 181.78 190.19 L 181.67 189.17 C 181.57 188.26 180.76 187.61 179.86 187.70 C 178.95 187.80 178.30 188.61 178.40 189.52 Z M 178.51 190.57 L 178.63 191.46 C 178.74 192.36 179.56 193.00 180.46 192.89 C 181.36 192.77 182.00 191.95 181.89 191.05 L 181.77 190.16 C 181.66 189.26 180.84 188.62 179.94 188.73 C 179.04 188.84 178.40 189.67 178.51 190.57 Z M 178.64 191.49 L 178.77 192.45 C 178.90 193.34 179.73 193.96 180.62 193.84 C 181.52 193.71 182.14 192.88 182.01 191.99 L 181.88 191.03 C 181.75 190.13 180.92 189.51 180.03 189.64 C 179.13 189.76 178.51 190.59 178.64 191.49 Z M 178.78 192.48 L 178.94 193.48 C 179.09 194.37 179.92 194.97 180.81 194.83 C 181.70 194.69 182.31 193.85 182.16 192.96 L 182.00 191.96 C 181.86 191.07 181.02 190.46 180.13 190.61 C 179.24 190.75 178.64 191.59 178.78 192.48 Z M 178.96 193.52 L 179.13 194.44 C 179.30 195.32 180.14 195.90 181.03 195.74 C 181.91 195.57 182.49 194.72 182.32 193.84 L 182.15 192.92 C 181.98 192.04 181.14 191.46 180.26 191.62 C 179.37 191.79 178.79 192.64 178.96 193.52 Z M 179.15 194.48 L 179.37 195.50 C 179.56 196.37 180.42 196.92 181.29 196.74 C 182.16 196.55 182.71 195.69 182.52 194.82 L 182.30 193.80 C 182.11 192.93 181.26 192.38 180.38 192.57 C 179.51 192.75 178.96 193.61 179.15 194.48 Z M 179.39 195.53 L 179.61 196.47 C 179.82 197.33 180.68 197.86 181.54 197.65 C 182.40 197.45 182.94 196.58 182.73 195.72 L 182.51 194.79 C 182.30 193.92 181.44 193.39 180.57 193.60 C 179.71 193.81 179.18 194.67 179.39 195.53 Z M 179.63 196.48 L 179.87 197.46 C 180.09 198.31 180.95 198.83 181.81 198.62 C 182.66 198.40 183.18 197.54 182.96 196.68 L 182.71 195.70 C 182.50 194.85 181.63 194.33 180.78 194.55 C 179.93 194.76 179.41 195.63 179.63 196.48 Z M 179.90 197.49 L 180.13 198.36 C 180.36 199.20 181.23 199.70 182.07 199.47 C 182.91 199.24 183.41 198.37 183.18 197.53 L 182.94 196.65 C 182.71 195.81 181.84 195.32 181.00 195.55 C 180.16 195.78 179.66 196.65 179.90 197.49 Z M 180.17 198.43 L 180.47 199.34 C 180.73 200.16 181.62 200.61 182.44 200.35 C 183.26 200.08 183.71 199.20 183.44 198.38 L 183.14 197.46 C 182.88 196.64 181.99 196.19 181.17 196.46 C 180.35 196.72 179.90 197.61 180.17 198.43 Z M 180.51 199.41 L 180.90 200.41 C 181.21 201.21 182.10 201.61 182.89 201.30 C 183.69 200.99 184.09 200.10 183.78 199.30 L 183.39 198.30 C 183.09 197.51 182.19 197.11 181.40 197.42 C 180.60 197.72 180.21 198.62 180.51 199.41 Z M 180.94 200.46 L 181.34 201.39 C 181.67 202.16 182.56 202.52 183.34 202.19 C 184.11 201.86 184.47 200.97 184.14 200.19 L 183.74 199.26 C 183.41 198.49 182.51 198.13 181.74 198.46 C 180.97 198.79 180.61 199.69 180.94 200.46 Z M 181.39 201.44 L 181.83 202.38 C 182.19 203.12 183.08 203.44 183.83 203.09 C 184.57 202.73 184.89 201.84 184.54 201.09 L 184.09 200.15 C 183.74 199.40 182.84 199.09 182.10 199.44 C 181.35 199.79 181.03 200.69 181.39 201.44 Z M 181.90 202.45 L 182.41 203.38 C 182.81 204.09 183.71 204.34 184.42 203.95 C 185.13 203.55 185.39 202.65 184.99 201.94 L 184.47 201.02 C 184.08 200.30 183.18 200.05 182.47 200.44 C 181.75 200.84 181.50 201.74 181.90 202.45 Z M 182.50 203.49 L 183.08 204.32 C 183.54 204.98 184.44 205.15 185.11 204.69 C 185.77 204.23 185.93 203.32 185.47 202.66 L 184.90 201.83 C 184.44 201.17 183.53 201.00 182.87 201.46 C 182.21 201.92 182.04 202.83 182.50 203.49 Z M 183.15 204.39 L 183.66 205.02 C 184.15 205.65 185.06 205.75 185.68 205.25 C 186.30 204.75 186.41 203.85 185.91 203.22 L 185.40 202.59 C 184.91 201.97 184.00 201.87 183.38 202.36 C 182.75 202.86 182.65 203.77 183.15 204.39 Z"
      fill="black"
      fill-rule="nonzero" /></svg>