<svg xmlns="http://www.w3.org/2000/svg" width="300" height="300" viewBox="0 0 300 300">
<path d="M 146.55 141.55 L 147.48 141.87 C 148.27 142.15 149.14 141.73 149.42 140.94 C 149.69 140.15 149.27 139.28 148.48 139.01 L 147.56 138.68 C 146.76 138.41 145.90 138.82 145.62 139.62 C 145.34 140.41 145.76 141.27 146.55 141.55 Z M 147.33 141.88 L 148.25 142.30 C 149.05 142.67 149.99 142.31 150.35 141.52 C 150.71 140.72 150.36 139.78 149.56 139.42 L 148.64 139.00 C 147.84 138.64 146.90 138.99 146.54 139.79 C 146.18 140.58 146.53 141.52 147.33 141.88 Z M 148.05 142.23 L 148.85 142.74 C 149.61 143.21 150.61 142.98 151.08 142.22 C 151.56 141.46 151.32 140.46 150.57 139.99 L 149.76 139.49 C 149.01 139.01 148.01 139.24 147.53 140.00 C 147.06 140.76 147.29 141.76 148.05 142.23 Z M 148.73 142.65 L 149.55 143.28 C 150.26 143.82 151.28 143.68 151.82 142.96 C 152.36 142.25 152.22 141.23 151.51 140.69 L 150.69 140.07 C 149.97 139.53 148.96 139.67 148.41 140.38 C 147.87 141.10 148.01 142.11 148.73 142.65 Z M 149.49 143.23 L 150.29 143.90 C 150.98 144.48 152.00 144.38 152.58 143.70 C 153.15 143.01 153.06 141.98 152.37 141.41 L 151.57 140.74 C 150.88 140.16 149.86 140.25 149.28 140.94 C 148.71 141.63 148.80 142.65 149.49 143.23 Z M 150.26 143.87 L 151.03 144.55 C 151.70 145.15 152.73 145.08 153.32 144.41 C 153.91 143.73 153.85 142.71 153.18 142.11 L 152.41 141.43 C 151.73 140.84 150.70 140.91 150.11 141.58 C 149.52 142.25 149.58 143.28 150.26 143.87 Z M 151.00 144.53 L 151.72 145.19 C 152.38 145.80 153.41 145.76 154.02 145.10 C 154.63 144.43 154.59 143.40 153.92 142.80 L 153.20 142.13 C 152.54 141.53 151.51 141.57 150.90 142.23 C 150.29 142.89 150.34 143.92 151.00 144.53 Z M 151.69 145.17 L 152.42 145.87 C 153.06 146.50 154.10 146.48 154.72 145.84 C 155.35 145.19 155.33 144.16 154.69 143.53 L 153.96 142.83 C 153.31 142.20 152.28 142.22 151.65 142.86 C 151.03 143.51 151.04 144.54 151.69 145.17 Z M 152.37 145.83 L 153.03 146.51 C 153.65 147.16 154.68 147.19 155.33 146.56 C 155.98 145.94 156.01 144.91 155.38 144.26 L 154.73 143.57 C 154.11 142.92 153.08 142.90 152.42 143.52 C 151.77 144.15 151.75 145.18 152.37 145.83 Z M 152.98 146.47 L 153.65 147.22 C 154.25 147.89 155.28 147.96 155.95 147.36 C 156.63 146.76 156.69 145.73 156.09 145.05 L 155.43 144.30 C 154.83 143.63 153.80 143.57 153.12 144.16 C 152.45 144.76 152.39 145.79 152.98 146.47 Z M 153.59 147.16 L 154.22 147.94 C 154.79 148.65 155.82 148.76 156.52 148.20 C 157.23 147.63 157.34 146.61 156.78 145.90 L 156.15 145.11 C 155.58 144.41 154.55 144.29 153.85 144.86 C 153.14 145.42 153.03 146.45 153.59 147.16 Z M 154.17 147.87 L 154.74 148.68 C 155.27 149.42 156.29 149.59 157.03 149.07 C 157.77 148.54 157.94 147.52 157.41 146.78 L 156.83 145.97 C 156.31 145.23 155.28 145.06 154.55 145.59 C 153.81 146.11 153.64 147.14 154.17 147.87 Z M 154.70 148.63 L 155.25 149.46 C 155.74 150.22 156.76 150.43 157.52 149.94 C 158.28 149.44 158.49 148.42 157.99 147.66 L 157.45 146.83 C 156.95 146.07 155.94 145.86 155.18 146.36 C 154.42 146.86 154.21 147.87 154.70 148.63 Z M 155.21 149.41 L 155.73 150.27 C 156.20 151.04 157.21 151.30 157.98 150.83 C 158.76 150.36 159.01 149.35 158.54 148.57 L 158.03 147.71 C 157.56 146.94 156.55 146.69 155.77 147.15 C 154.99 147.62 154.74 148.63 155.21 149.41 Z M 155.68 150.20 L 156.16 151.09 C 156.59 151.89 157.59 152.19 158.39 151.76 C 159.19 151.33 159.49 150.33 159.06 149.53 L 158.59 148.64 C 158.16 147.84 157.16 147.54 156.36 147.97 C 155.56 148.40 155.25 149.39 155.68 150.20 Z M 156.12 151.01 L 156.54 151.91 C 156.93 152.74 157.91 153.09 158.73 152.71 C 159.56 152.32 159.92 151.34 159.53 150.52 L 159.11 149.61 C 158.72 148.78 157.74 148.43 156.91 148.81 C 156.09 149.20 155.73 150.18 156.12 151.01 Z M 156.51 151.84 L 156.89 152.77 C 157.23 153.61 158.20 154.02 159.04 153.67 C 159.89 153.33 160.29 152.36 159.95 151.52 L 159.57 150.59 C 159.22 149.74 158.26 149.34 157.41 149.68 C 156.57 150.03 156.16 150.99 156.51 151.84 Z M 156.85 152.69 L 157.18 153.63 C 157.49 154.49 158.43 154.95 159.29 154.64 C 160.16 154.34 160.61 153.39 160.31 152.53 L 159.98 151.59 C 159.67 150.73 158.73 150.28 157.87 150.58 C 157.00 150.88 156.55 151.83 156.85 152.69 Z M 157.15 153.54 L 157.44 154.51 C 157.69 155.39 158.61 155.90 159.49 155.64 C 160.37 155.38 160.87 154.46 160.62 153.58 L 160.34 152.62 C 160.08 151.74 159.16 151.23 158.28 151.49 C 157.40 151.75 156.90 152.67 157.15 153.54 Z M 157.41 154.42 L 157.63 155.37 C 157.84 156.27 158.73 156.82 159.62 156.61 C 160.52 156.41 161.07 155.51 160.86 154.62 L 160.64 153.67 C 160.44 152.78 159.54 152.22 158.65 152.43 C 157.76 152.64 157.20 153.53 157.41 154.42 Z M 157.61 155.28 L 157.78 156.28 C 157.94 157.18 158.80 157.79 159.71 157.63 C 160.61 157.47 161.22 156.61 161.06 155.71 L 160.88 154.71 C 160.73 153.81 159.87 153.20 158.96 153.36 C 158.06 153.52 157.45 154.38 157.61 155.28 Z M 157.77 156.19 L 157.89 157.20 C 158.00 158.11 158.82 158.77 159.74 158.66 C 160.65 158.55 161.30 157.72 161.19 156.81 L 161.07 155.80 C 160.97 154.89 160.14 154.23 159.23 154.34 C 158.31 154.45 157.66 155.28 157.77 156.19 Z M 157.88 157.13 L 157.95 158.14 C 158.02 159.06 158.82 159.74 159.74 159.68 C 160.66 159.61 161.34 158.81 161.28 157.89 L 161.20 156.88 C 161.13 155.96 160.33 155.28 159.42 155.34 C 158.50 155.41 157.81 156.21 157.88 157.13 Z M 157.95 158.09 L 157.99 159.08 C 158.03 160.00 158.81 160.71 159.73 160.67 C 160.65 160.63 161.36 159.85 161.32 158.93 L 161.28 157.94 C 161.24 157.02 160.46 156.31 159.54 156.35 C 158.62 156.39 157.91 157.17 157.95 158.09 Z M 157.99 159.03 L 158.00 160.04 C 158.01 160.96 158.77 161.70 159.69 161.69 C 160.61 161.68 161.35 160.92 161.34 160.00 L 161.33 158.99 C 161.32 158.07 160.56 157.33 159.64 157.34 C 158.72 157.35 157.98 158.10 157.99 159.03 Z M 158.00 159.96 L 157.97 160.94 C 157.93 161.86 158.65 162.63 159.57 162.67 C 160.49 162.70 161.27 161.98 161.30 161.06 L 161.34 160.08 C 161.37 159.16 160.65 158.39 159.73 158.35 C 158.81 158.32 158.04 159.04 158.00 159.96 Z M 157.97 160.83 L 157.87 161.81 C 157.78 162.73 158.45 163.55 159.37 163.64 C 160.28 163.73 161.10 163.07 161.20 162.15 L 161.29 161.17 C 161.39 160.25 160.72 159.43 159.80 159.34 C 158.88 159.24 158.06 159.91 157.97 160.83 Z M 157.89 161.66 L 157.70 162.65 C 157.53 163.55 158.12 164.43 159.02 164.61 C 159.93 164.78 160.81 164.19 160.98 163.28 L 161.18 162.30 C 161.35 161.39 160.76 160.51 159.85 160.34 C 158.95 160.16 158.07 160.75 157.89 161.66 Z M 157.75 162.46 L 157.45 163.40 C 157.17 164.28 157.65 165.22 158.53 165.50 C 159.41 165.78 160.35 165.29 160.64 164.41 L 160.94 163.48 C 161.22 162.60 160.73 161.65 159.85 161.37 C 158.97 161.09 158.03 161.58 157.75 162.46 Z M 157.51 163.23 L 157.11 164.15 C 156.74 164.99 157.12 165.98 157.97 166.35 C 158.81 166.72 159.80 166.33 160.17 165.49 L 160.57 164.58 C 160.94 163.73 160.56 162.75 159.71 162.38 C 158.87 162.00 157.88 162.39 157.51 163.23 Z M 157.16 164.04 L 156.69 164.94 C 156.26 165.75 156.58 166.76 157.39 167.19 C 158.21 167.62 159.22 167.31 159.65 166.49 L 160.12 165.60 C 160.55 164.78 160.23 163.77 159.42 163.34 C 158.60 162.91 157.59 163.23 157.16 164.04 Z M 156.73 164.87 L 156.23 165.72 C 155.77 166.52 156.04 167.54 156.83 168.00 C 157.63 168.47 158.65 168.20 159.11 167.40 L 159.61 166.55 C 160.07 165.76 159.81 164.74 159.01 164.27 C 158.22 163.81 157.19 164.08 156.73 164.87 Z M 156.26 165.68 L 155.72 166.55 C 155.24 167.33 155.48 168.35 156.26 168.84 C 157.04 169.33 158.07 169.09 158.55 168.31 L 159.09 167.44 C 159.57 166.66 159.34 165.64 158.55 165.15 C 157.77 164.66 156.74 164.90 156.26 165.68 Z M 155.74 166.52 L 155.21 167.34 C 154.71 168.12 154.93 169.15 155.71 169.65 C 156.48 170.14 157.51 169.92 158.01 169.15 L 158.54 168.33 C 159.04 167.56 158.81 166.52 158.04 166.03 C 157.27 165.53 156.24 165.75 155.74 166.52 Z M 155.22 167.33 L 154.68 168.15 C 154.17 168.92 154.38 169.95 155.15 170.46 C 155.92 170.96 156.95 170.75 157.46 169.98 L 158.00 169.16 C 158.50 168.39 158.29 167.36 157.52 166.86 C 156.76 166.35 155.72 166.56 155.22 167.33 Z M 154.68 168.14 L 154.11 169.01 C 153.60 169.77 153.81 170.80 154.57 171.31 C 155.33 171.82 156.37 171.62 156.88 170.85 L 157.45 169.99 C 157.96 169.22 157.76 168.19 156.99 167.68 C 156.23 167.17 155.19 167.38 154.68 168.14 Z M 154.11 169.00 L 153.56 169.83 C 153.05 170.59 153.25 171.62 154.02 172.13 C 154.78 172.64 155.81 172.44 156.32 171.68 L 156.87 170.85 C 157.38 170.09 157.18 169.06 156.42 168.55 C 155.66 168.04 154.62 168.24 154.11 169.00 Z M 153.57 169.82 L 153.00 170.65 C 152.49 171.41 152.69 172.45 153.45 172.96 C 154.21 173.47 155.24 173.27 155.75 172.51 L 156.32 171.68 C 156.83 170.92 156.63 169.89 155.87 169.38 C 155.11 168.86 154.08 169.06 153.57 169.82 Z M 153.01 170.65 L 152.44 171.48 C 151.92 172.24 152.11 173.27 152.87 173.79 C 153.62 174.31 154.65 174.11 155.17 173.36 L 155.74 172.52 C 156.26 171.77 156.07 170.74 155.32 170.22 C 154.56 169.70 153.53 169.89 153.01 170.65 Z M 152.45 171.47 L 151.87 172.30 C 151.34 173.05 151.52 174.08 152.27 174.60 C 153.02 175.13 154.05 174.95 154.58 174.20 L 155.16 173.37 C 155.68 172.62 155.50 171.59 154.75 171.07 C 154.01 170.54 152.97 170.72 152.45 171.47 Z M 151.88 172.29 L 151.30 173.10 C 150.77 173.84 150.94 174.87 151.68 175.40 C 152.42 175.93 153.45 175.76 153.99 175.02 L 154.57 174.21 C 155.10 173.47 154.93 172.44 154.18 171.90 C 153.44 171.37 152.41 171.55 151.88 172.29 Z M 151.30 173.10 L 150.72 173.90 C 150.19 174.64 150.36 175.67 151.10 176.20 C 151.84 176.74 152.87 176.57 153.40 175.83 L 153.98 175.02 C 154.51 174.28 154.34 173.25 153.61 172.72 C 152.87 172.19 151.84 172.36 151.30 173.10 Z M 150.72 173.91 L 150.14 174.72 C 149.62 175.46 149.79 176.49 150.53 177.01 C 151.27 177.54 152.30 177.37 152.82 176.63 L 153.40 175.82 C 153.93 175.08 153.76 174.06 153.02 173.53 C 152.28 173.00 151.25 173.17 150.72 173.91 Z M 150.14 174.73 L 149.57 175.54 C 149.05 176.28 149.23 177.30 149.97 177.82 C 150.71 178.35 151.74 178.17 152.26 177.43 L 152.83 176.62 C 153.35 175.88 153.17 174.85 152.43 174.33 C 151.69 173.81 150.66 173.99 150.14 174.73 Z M 149.57 175.54 L 149.00 176.37 C 148.48 177.11 148.66 178.13 149.40 178.65 C 150.15 179.17 151.17 178.98 151.69 178.24 L 152.26 177.42 C 152.78 176.68 152.60 175.65 151.85 175.14 C 151.11 174.62 150.09 174.80 149.57 175.54 Z M 149.00 176.37 L 148.42 177.21 C 147.90 177.95 148.09 178.97 148.83 179.48 C 149.57 180.00 150.59 179.81 151.10 179.07 L 151.68 178.24 C 152.20 177.50 152.02 176.48 151.28 175.96 C 150.53 175.45 149.52 175.63 149.00 176.37 Z M 148.42 177.21 L 147.85 178.03 C 147.34 178.76 147.52 179.78 148.26 180.30 C 149.00 180.81 150.01 180.63 150.53 179.89 L 151.10 179.07 C 151.61 178.33 151.43 177.32 150.69 176.80 C 149.95 176.29 148.94 176.47 148.42 177.21 Z M 147.86 178.02 L 147.28 178.84 C 146.77 179.58 146.95 180.60 147.68 181.11 C 148.42 181.63 149.43 181.45 149.95 180.71 L 150.52 179.89 C 151.04 179.15 150.86 178.14 150.12 177.62 C 149.39 177.11 148.37 177.29 147.86 178.02 Z M 147.29 178.84 L 146.71 179.66 C 146.20 180.39 146.37 181.41 147.10 181.92 C 147.84 182.44 148.85 182.26 149.37 181.53 L 149.94 180.71 C 150.46 179.98 150.28 178.97 149.55 178.45 C 148.82 177.94 147.81 178.11 147.29 178.84 Z M 146.72 179.66 L 146.14 180.48 C 145.62 181.21 145.79 182.22 146.52 182.74 C 147.24 183.26 148.26 183.08 148.77 182.36 L 149.36 181.54 C 149.88 180.81 149.71 179.80 148.98 179.28 C 148.25 178.76 147.24 178.93 146.72 179.66 Z M 146.15 180.48 L 145.56 181.30 C 145.04 182.02 145.20 183.03 145.92 183.55 C 146.65 184.07 147.65 183.90 148.17 183.18 L 148.76 182.36 C 149.28 181.64 149.12 180.63 148.40 180.11 C 147.67 179.59 146.67 179.75 146.15 180.48 Z M 145.57 181.29 L 144.98 182.10 C 144.46 182.82 144.62 183.82 145.33 184.34 C 146.05 184.87 147.05 184.71 147.58 183.99 L 148.16 183.18 C 148.69 182.47 148.53 181.46 147.81 180.94 C 147.09 180.42 146.09 180.58 145.57 181.29 Z M 144.99 182.10 L 144.40 182.89 C 143.88 183.60 144.03 184.60 144.74 185.13 C 145.46 185.65 146.46 185.50 146.98 184.79 L 147.57 183.99 C 148.09 183.28 147.94 182.28 147.23 181.76 C 146.52 181.23 145.51 181.38 144.99 182.10 Z M 144.42 182.89 L 143.81 183.70 C 143.28 184.40 143.43 185.40 144.13 185.93 C 144.84 186.45 145.84 186.31 146.36 185.60 L 146.97 184.79 C 147.50 184.09 147.35 183.09 146.65 182.56 C 145.94 182.04 144.94 182.18 144.42 182.89 Z M 143.83 183.69 L 143.22 184.48 C 142.69 185.18 142.82 186.17 143.52 186.70 C 144.22 187.24 145.21 187.10 145.74 186.41 L 146.35 185.61 C 146.88 184.92 146.75 183.92 146.05 183.39 C 145.35 182.86 144.36 182.99 143.83 183.69 Z M 143.24 184.47 L 142.63 185.25 C 142.09 185.94 142.21 186.93 142.90 187.47 C 143.59 188.00 144.58 187.88 145.12 187.20 L 145.73 186.42 C 146.26 185.73 146.14 184.74 145.46 184.20 C 144.77 183.66 143.78 183.78 143.24 184.47 Z M 142.65 185.23 L 141.99 186.05 C 141.45 186.72 141.55 187.71 142.22 188.26 C 142.90 188.80 143.89 188.70 144.43 188.02 L 145.09 187.21 C 145.64 186.54 145.53 185.55 144.86 185.00 C 144.19 184.46 143.20 184.56 142.65 185.23 Z M 142.02 186.03 L 141.36 186.81 C 140.81 187.47 140.89 188.45 141.55 189.01 C 142.20 189.56 143.19 189.48 143.74 188.82 L 144.40 188.04 C 144.96 187.39 144.87 186.40 144.22 185.85 C 143.56 185.29 142.58 185.38 142.02 186.03 Z M 141.40 186.79 L 140.77 187.49 C 140.20 188.13 140.26 189.10 140.89 189.67 C 141.53 190.24 142.50 190.19 143.07 189.55 L 143.70 188.85 C 144.27 188.21 144.22 187.24 143.58 186.67 C 142.95 186.10 141.97 186.16 141.40 186.79 Z M 140.83 187.45 L 140.08 188.22 C 139.49 188.82 139.49 189.79 140.10 190.38 C 140.70 190.97 141.66 190.96 142.26 190.36 L 143.01 189.59 C 143.60 188.99 143.59 188.03 142.99 187.43 C 142.39 186.84 141.42 186.85 140.83 187.45 Z M 140.15 188.17 L 139.45 188.81 C 138.83 189.37 138.78 190.32 139.34 190.94 C 139.90 191.56 140.86 191.61 141.48 191.05 L 142.18 190.41 C 142.80 189.85 142.85 188.89 142.29 188.28 C 141.73 187.66 140.77 187.61 140.15 188.17 Z M 139.52 188.77 L 138.79 189.37 C 138.16 189.89 138.06 190.83 138.58 191.47 C 139.11 192.10 140.05 192.20 140.69 191.68 L 141.41 191.08 C 142.05 190.56 142.14 189.62 141.62 188.98 C 141.10 188.34 140.15 188.25 139.52 188.77 Z M 138.92 189.30 L 138.09 189.85 C 137.41 190.31 137.23 191.22 137.69 191.90 C 138.14 192.57 139.06 192.75 139.73 192.30 L 140.56 191.74 C 141.24 191.29 141.42 190.37 140.96 189.70 C 140.51 189.02 139.59 188.84 138.92 189.30 Z M 138.24 189.78 L 137.39 190.22 C 136.67 190.59 136.39 191.47 136.76 192.19 C 137.13 192.90 138.01 193.18 138.72 192.81 L 139.58 192.37 C 140.29 192.00 140.57 191.13 140.21 190.41 C 139.84 189.69 138.96 189.41 138.24 189.78 Z M 137.47 190.20 L 136.54 190.61 C 135.81 190.93 135.48 191.78 135.80 192.52 C 136.12 193.25 136.98 193.58 137.71 193.25 L 138.64 192.84 C 139.37 192.52 139.70 191.66 139.38 190.93 C 139.06 190.20 138.20 189.87 137.47 190.20 Z M 136.57 190.61 L 135.94 190.87 C 135.21 191.17 134.87 192.02 135.18 192.75 C 135.48 193.48 136.33 193.82 137.06 193.52 L 137.68 193.26 C 138.41 192.95 138.76 192.11 138.45 191.37 C 138.14 190.64 137.30 190.30 136.57 190.61 Z"
      fill="black"
      fill-rule="nonzero" /></svg>