<svg xmlns="http://www.w3.org/2000/svg" width="300" height="300" viewBox="0 0 300 300">
<path d="M 153.48 141.97 L 153.33 141.00 C 153.21 140.22 152.47 139.68 151.68 139.80 C 150.90 139.92 150.36 140.66 150.48 141.45 L 150.63 142.42 C 150.76 143.20 151.49 143.74 152.28 143.62 C 153.07 143.50 153.61 142.76 153.48 141.97 Z M 153.33 140.93 L 153.13 139.95 C 152.96 139.17 152.19 138.66 151.41 138.83 C 150.62 138.99 150.12 139.76 150.28 140.54 L 150.48 141.52 C 150.65 142.30 151.41 142.81 152.20 142.65 C 152.99 142.48 153.49 141.72 153.33 140.93 Z M 153.13 139.92 L 152.91 138.95 C 152.73 138.17 151.94 137.68 151.15 137.86 C 150.37 138.04 149.88 138.82 150.06 139.61 L 150.28 140.57 C 150.46 141.36 151.24 141.85 152.03 141.67 C 152.82 141.49 153.31 140.71 153.13 139.92 Z M 152.94 139.07 L 152.80 138.05 C 152.68 137.24 151.93 136.68 151.13 136.80 C 150.32 136.91 149.76 137.66 149.88 138.46 L 150.02 139.49 C 150.14 140.30 150.88 140.86 151.69 140.74 C 152.50 140.63 153.06 139.88 152.94 139.07 Z M 152.82 138.30 L 152.85 137.28 C 152.87 136.46 152.22 135.78 151.41 135.76 C 150.59 135.74 149.90 136.38 149.88 137.20 L 149.85 138.21 C 149.83 139.03 150.47 139.72 151.29 139.74 C 152.11 139.76 152.80 139.12 152.82 138.30 Z M 152.78 137.72 L 153.09 136.80 C 153.35 136.02 152.93 135.17 152.15 134.91 C 151.37 134.64 150.52 135.07 150.26 135.85 L 149.95 136.77 C 149.68 137.55 150.10 138.40 150.89 138.66 C 151.67 138.92 152.52 138.50 152.78 137.72 Z M 152.76 137.37 L 153.44 136.67 C 154.02 136.07 154.00 135.12 153.40 134.54 C 152.80 133.96 151.84 133.97 151.27 134.57 L 150.59 135.28 C 150.01 135.87 150.02 136.83 150.62 137.41 C 151.22 137.99 152.18 137.97 152.76 137.37 Z M 152.91 137.04 L 153.83 136.68 C 154.61 136.37 155.00 135.49 154.69 134.70 C 154.38 133.92 153.49 133.53 152.71 133.84 L 151.79 134.20 C 151.01 134.51 150.62 135.40 150.93 136.18 C 151.24 136.97 152.13 137.35 152.91 137.04 Z M 153.36 136.80 L 154.36 136.74 C 155.21 136.69 155.85 135.96 155.80 135.11 C 155.75 134.27 155.03 133.62 154.18 133.67 L 153.18 133.73 C 152.33 133.78 151.68 134.50 151.73 135.35 C 151.78 136.20 152.51 136.85 153.36 136.80 Z M 153.97 136.72 L 154.95 136.91 C 155.79 137.07 156.60 136.52 156.76 135.69 C 156.93 134.85 156.38 134.04 155.54 133.87 L 154.56 133.68 C 153.72 133.52 152.91 134.07 152.75 134.91 C 152.59 135.75 153.14 136.56 153.97 136.72 Z M 154.61 136.81 L 155.48 137.20 C 156.27 137.55 157.18 137.20 157.54 136.42 C 157.89 135.64 157.54 134.72 156.76 134.37 L 155.88 133.98 C 155.10 133.62 154.18 133.97 153.83 134.76 C 153.48 135.54 153.83 136.46 154.61 136.81 Z M 155.24 137.07 L 156.11 137.67 C 156.82 138.15 157.79 137.97 158.28 137.26 C 158.76 136.55 158.58 135.58 157.87 135.10 L 157.00 134.50 C 156.29 134.02 155.32 134.20 154.84 134.91 C 154.35 135.62 154.53 136.59 155.24 137.07 Z M 155.98 137.57 L 156.75 138.23 C 157.41 138.78 158.39 138.70 158.95 138.05 C 159.51 137.39 159.43 136.41 158.77 135.85 L 158.00 135.20 C 157.35 134.64 156.36 134.72 155.81 135.37 C 155.25 136.03 155.33 137.01 155.98 137.57 Z M 156.68 138.16 L 157.41 138.87 C 158.03 139.47 159.02 139.45 159.62 138.83 C 160.22 138.22 160.20 137.23 159.58 136.63 L 158.85 135.92 C 158.23 135.32 157.24 135.33 156.64 135.95 C 156.04 136.57 156.06 137.56 156.68 138.16 Z M 157.35 138.81 L 158.04 139.55 C 158.62 140.18 159.61 140.22 160.24 139.64 C 160.88 139.05 160.92 138.06 160.33 137.43 L 159.64 136.69 C 159.06 136.06 158.07 136.02 157.44 136.60 C 156.80 137.19 156.77 138.18 157.35 138.81 Z M 157.96 139.46 L 158.59 140.25 C 159.12 140.92 160.11 141.03 160.78 140.50 C 161.46 139.96 161.57 138.98 161.03 138.30 L 160.40 137.52 C 159.87 136.84 158.88 136.73 158.21 137.27 C 157.53 137.81 157.42 138.79 157.96 139.46 Z M 158.51 140.15 L 159.04 140.93 C 159.52 141.64 160.49 141.83 161.21 141.35 C 161.92 140.87 162.11 139.90 161.63 139.18 L 161.10 138.40 C 160.62 137.68 159.65 137.50 158.93 137.98 C 158.22 138.46 158.03 139.43 158.51 140.15 Z M 158.99 140.86 L 159.50 141.70 C 159.94 142.44 160.90 142.68 161.64 142.24 C 162.38 141.79 162.62 140.83 162.18 140.09 L 161.67 139.25 C 161.23 138.51 160.27 138.27 159.53 138.71 C 158.79 139.16 158.55 140.12 158.99 140.86 Z M 159.46 141.64 L 159.95 142.54 C 160.36 143.30 161.31 143.58 162.07 143.17 C 162.83 142.76 163.11 141.81 162.70 141.05 L 162.21 140.15 C 161.80 139.39 160.85 139.11 160.09 139.52 C 159.33 139.93 159.05 140.88 159.46 141.64 Z M 159.92 142.49 L 160.35 143.35 C 160.73 144.13 161.67 144.45 162.44 144.07 C 163.22 143.69 163.54 142.75 163.16 141.97 L 162.73 141.11 C 162.35 140.33 161.41 140.01 160.64 140.39 C 159.86 140.78 159.54 141.71 159.92 142.49 Z M 160.32 143.29 L 160.73 144.23 C 161.08 145.02 162.00 145.38 162.79 145.03 C 163.58 144.68 163.94 143.76 163.59 142.97 L 163.18 142.03 C 162.84 141.24 161.91 140.88 161.12 141.23 C 160.33 141.58 159.97 142.50 160.32 143.29 Z M 160.70 144.17 L 161.06 145.08 C 161.37 145.88 162.28 146.28 163.09 145.97 C 163.89 145.66 164.29 144.75 163.98 143.94 L 163.62 143.03 C 163.31 142.22 162.40 141.82 161.59 142.14 C 160.79 142.45 160.39 143.36 160.70 144.17 Z M 161.03 145.03 L 161.36 145.96 C 161.65 146.78 162.54 147.21 163.36 146.93 C 164.18 146.64 164.61 145.74 164.33 144.93 L 164.00 143.99 C 163.71 143.17 162.82 142.74 162.00 143.03 C 161.18 143.31 160.75 144.21 161.03 145.03 Z M 161.34 145.92 L 161.66 146.91 C 161.92 147.74 162.81 148.20 163.63 147.94 C 164.46 147.68 164.92 146.79 164.66 145.96 L 164.34 144.97 C 164.08 144.14 163.20 143.68 162.37 143.94 C 161.54 144.20 161.08 145.09 161.34 145.92 Z M 161.64 146.88 L 161.92 147.83 C 162.16 148.66 163.04 149.15 163.88 148.90 C 164.72 148.66 165.20 147.78 164.95 146.94 L 164.68 145.99 C 164.43 145.16 163.55 144.68 162.72 144.92 C 161.88 145.17 161.40 146.04 161.64 146.88 Z M 161.90 147.79 L 162.16 148.76 C 162.39 149.60 163.26 150.11 164.10 149.88 C 164.95 149.65 165.45 148.78 165.22 147.94 L 164.97 146.97 C 164.74 146.13 163.87 145.62 163.02 145.85 C 162.18 146.08 161.68 146.95 161.90 147.79 Z M 162.15 148.72 L 162.38 149.71 C 162.59 150.56 163.45 151.09 164.30 150.88 C 165.16 150.68 165.68 149.82 165.48 148.96 L 165.24 147.97 C 165.03 147.12 164.17 146.59 163.32 146.80 C 162.47 147.00 161.94 147.86 162.15 148.72 Z M 162.37 149.67 L 162.58 150.65 C 162.76 151.51 163.61 152.07 164.47 151.88 C 165.33 151.70 165.88 150.85 165.70 149.99 L 165.49 149.01 C 165.31 148.14 164.46 147.59 163.60 147.77 C 162.74 147.96 162.19 148.80 162.37 149.67 Z M 162.56 150.61 L 162.74 151.59 C 162.90 152.46 163.74 153.04 164.61 152.88 C 165.48 152.72 166.05 151.89 165.89 151.02 L 165.72 150.03 C 165.56 149.16 164.72 148.59 163.85 148.75 C 162.98 148.91 162.40 149.74 162.56 150.61 Z M 162.73 151.55 L 162.89 152.54 C 163.03 153.42 163.85 154.02 164.72 153.88 C 165.60 153.74 166.20 152.92 166.06 152.05 L 165.91 151.06 C 165.77 150.18 164.95 149.58 164.07 149.72 C 163.19 149.86 162.59 150.68 162.73 151.55 Z M 162.88 152.51 L 163.01 153.50 C 163.13 154.38 163.94 155.00 164.82 154.88 C 165.70 154.76 166.32 153.95 166.20 153.07 L 166.07 152.08 C 165.95 151.20 165.14 150.58 164.26 150.70 C 163.38 150.82 162.76 151.63 162.88 152.51 Z M 163.00 153.47 L 163.12 154.46 C 163.22 155.34 164.01 155.98 164.90 155.88 C 165.78 155.78 166.42 154.98 166.32 154.10 L 166.21 153.11 C 166.11 152.22 165.31 151.58 164.43 151.68 C 163.54 151.78 162.91 152.58 163.00 153.47 Z M 163.11 154.42 L 163.20 155.42 C 163.28 156.31 164.07 156.96 164.96 156.88 C 165.84 156.80 166.50 156.02 166.42 155.13 L 166.33 154.13 C 166.25 153.25 165.46 152.59 164.57 152.67 C 163.69 152.75 163.03 153.54 163.11 154.42 Z M 163.20 155.39 L 163.27 156.39 C 163.33 157.28 164.10 157.95 164.99 157.89 C 165.88 157.83 166.55 157.05 166.49 156.16 L 166.42 155.16 C 166.36 154.27 165.59 153.60 164.70 153.66 C 163.81 153.72 163.14 154.49 163.20 155.39 Z M 163.26 156.35 L 163.31 157.35 C 163.35 158.24 164.11 158.93 165.00 158.89 C 165.90 158.84 166.59 158.08 166.54 157.19 L 166.50 156.20 C 166.45 155.30 165.69 154.61 164.80 154.66 C 163.91 154.70 163.22 155.46 163.26 156.35 Z M 163.31 157.32 L 163.34 158.32 C 163.36 159.21 164.11 159.92 165.01 159.89 C 165.90 159.86 166.61 159.11 166.58 158.22 L 166.55 157.22 C 166.52 156.32 165.77 155.62 164.88 155.65 C 163.98 155.68 163.28 156.42 163.31 157.32 Z M 163.33 158.30 L 163.35 159.30 C 163.37 160.20 164.11 160.91 165.01 160.90 C 165.90 160.88 166.62 160.14 166.60 159.24 L 166.58 158.24 C 166.56 157.34 165.82 156.63 164.93 156.64 C 164.03 156.66 163.32 157.40 163.33 158.30 Z M 163.35 159.29 L 163.36 160.29 C 163.37 161.19 164.10 161.91 165.00 161.90 C 165.90 161.89 166.62 161.16 166.61 160.26 L 166.60 159.26 C 166.59 158.36 165.86 157.64 164.96 157.65 C 164.06 157.65 163.34 158.39 163.35 159.29 Z M 163.36 160.27 L 163.35 161.27 C 163.35 162.17 164.07 162.90 164.97 162.90 C 165.87 162.91 166.60 162.18 166.61 161.28 L 166.61 160.28 C 166.62 159.38 165.89 158.65 164.99 158.65 C 164.10 158.64 163.36 159.37 163.36 160.27 Z M 163.35 161.22 L 163.32 162.22 C 163.29 163.12 163.99 163.87 164.89 163.90 C 165.79 163.93 166.54 163.23 166.57 162.33 L 166.61 161.33 C 166.64 160.43 165.94 159.68 165.04 159.65 C 164.14 159.62 163.38 160.32 163.35 161.22 Z M 163.32 162.15 L 163.25 163.14 C 163.18 164.03 163.85 164.82 164.74 164.89 C 165.64 164.96 166.42 164.29 166.49 163.39 L 166.57 162.40 C 166.64 161.50 165.97 160.72 165.07 160.65 C 164.18 160.58 163.39 161.25 163.32 162.15 Z M 163.25 163.05 L 163.13 164.03 C 163.01 164.92 163.64 165.74 164.53 165.85 C 165.42 165.97 166.24 165.34 166.36 164.45 L 166.48 163.48 C 166.60 162.58 165.97 161.77 165.08 161.65 C 164.19 161.53 163.37 162.16 163.25 163.05 Z M 163.14 163.95 L 162.96 164.93 C 162.80 165.81 163.39 166.66 164.27 166.82 C 165.16 166.98 166.01 166.39 166.17 165.51 L 166.35 164.53 C 166.51 163.64 165.92 162.79 165.03 162.63 C 164.15 162.47 163.30 163.06 163.14 163.95 Z M 162.97 164.86 L 162.75 165.85 C 162.55 166.73 163.10 167.60 163.98 167.80 C 164.86 168.00 165.73 167.45 165.93 166.57 L 166.16 165.58 C 166.35 164.70 165.80 163.83 164.93 163.63 C 164.05 163.43 163.17 163.98 162.97 164.86 Z M 162.76 165.79 L 162.51 166.73 C 162.28 167.60 162.80 168.50 163.67 168.73 C 164.54 168.96 165.43 168.44 165.67 167.57 L 165.92 166.63 C 166.15 165.76 165.63 164.86 164.76 164.63 C 163.89 164.40 162.99 164.92 162.76 165.79 Z M 162.52 166.68 L 162.24 167.62 C 161.98 168.49 162.47 169.40 163.34 169.66 C 164.20 169.91 165.11 169.42 165.37 168.56 L 165.65 167.62 C 165.91 166.76 165.42 165.85 164.56 165.59 C 163.69 165.33 162.78 165.82 162.52 166.68 Z M 162.26 167.58 L 161.94 168.54 C 161.65 169.39 162.12 170.32 162.97 170.60 C 163.83 170.89 164.75 170.42 165.04 169.57 L 165.36 168.61 C 165.64 167.75 165.18 166.83 164.32 166.54 C 163.47 166.26 162.54 166.72 162.26 167.58 Z M 161.95 168.49 L 161.60 169.47 C 161.29 170.32 161.73 171.26 162.57 171.56 C 163.42 171.87 164.36 171.44 164.67 170.59 L 165.02 169.61 C 165.33 168.76 164.89 167.83 164.05 167.52 C 163.20 167.21 162.26 167.65 161.95 168.49 Z M 161.61 169.43 L 161.25 170.36 C 160.92 171.20 161.33 172.15 162.17 172.48 C 163.01 172.81 163.96 172.39 164.29 171.56 L 164.65 170.63 C 164.98 169.79 164.57 168.84 163.73 168.51 C 162.89 168.18 161.94 168.59 161.61 169.43 Z M 161.26 170.32 L 160.87 171.25 C 160.52 172.08 160.91 173.04 161.74 173.39 C 162.57 173.74 163.53 173.35 163.88 172.52 L 164.27 171.59 C 164.62 170.76 164.23 169.81 163.40 169.45 C 162.57 169.10 161.62 169.49 161.26 170.32 Z M 160.89 171.21 L 160.47 172.12 C 160.10 172.95 160.46 173.91 161.28 174.29 C 162.10 174.66 163.07 174.30 163.44 173.48 L 163.86 172.56 C 164.23 171.74 163.87 170.77 163.05 170.40 C 162.23 170.02 161.26 170.39 160.89 171.21 Z M 160.49 172.08 L 160.05 172.97 C 159.66 173.78 159.99 174.76 160.80 175.16 C 161.61 175.55 162.59 175.22 162.99 174.41 L 163.42 173.52 C 163.82 172.71 163.48 171.73 162.67 171.33 C 161.86 170.94 160.89 171.27 160.49 172.08 Z M 160.08 172.93 L 159.62 173.80 C 159.20 174.60 159.51 175.58 160.31 176.00 C 161.10 176.42 162.09 176.12 162.51 175.32 L 162.97 174.45 C 163.39 173.65 163.08 172.67 162.28 172.25 C 161.48 171.83 160.50 172.13 160.08 172.93 Z M 159.64 173.77 L 159.17 174.62 C 158.73 175.41 159.01 176.40 159.80 176.84 C 160.59 177.28 161.58 176.99 162.02 176.20 L 162.49 175.35 C 162.93 174.56 162.64 173.57 161.86 173.13 C 161.07 172.69 160.08 172.98 159.64 173.77 Z M 159.18 174.61 L 158.68 175.47 C 158.24 176.26 158.51 177.25 159.30 177.70 C 160.08 178.14 161.07 177.87 161.52 177.08 L 162.01 176.22 C 162.46 175.43 162.18 174.44 161.40 173.99 C 160.62 173.55 159.62 173.82 159.18 174.61 Z M 158.68 175.47 L 158.17 176.38 C 157.73 177.16 158.00 178.16 158.78 178.60 C 159.57 179.04 160.56 178.77 161.00 177.99 L 161.52 177.08 C 161.96 176.30 161.69 175.30 160.90 174.86 C 160.12 174.42 159.13 174.69 158.68 175.47 Z M 158.16 176.39 L 157.69 177.24 C 157.25 178.03 157.54 179.02 158.32 179.46 C 159.11 179.89 160.10 179.61 160.54 178.83 L 161.01 177.97 C 161.45 177.19 161.16 176.20 160.38 175.76 C 159.59 175.32 158.60 175.61 158.16 176.39 Z M 157.69 177.25 L 157.21 178.12 C 156.77 178.91 157.06 179.90 157.84 180.33 C 158.63 180.77 159.62 180.48 160.05 179.70 L 160.54 178.82 C 160.97 178.03 160.69 177.05 159.90 176.61 C 159.11 176.18 158.12 176.46 157.69 177.25 Z M 157.21 178.12 L 156.71 179.00 C 156.28 179.79 156.56 180.78 157.34 181.21 C 158.12 181.65 159.11 181.37 159.55 180.59 L 160.05 179.70 C 160.49 178.92 160.21 177.93 159.42 177.49 C 158.64 177.05 157.65 177.33 157.21 178.12 Z M 156.73 178.99 L 156.22 179.87 C 155.77 180.65 156.04 181.64 156.82 182.09 C 157.60 182.53 158.59 182.26 159.04 181.49 L 159.54 180.60 C 159.99 179.83 159.72 178.83 158.94 178.39 C 158.16 177.94 157.17 178.21 156.73 178.99 Z M 156.24 179.84 L 155.72 180.71 C 155.25 181.48 155.50 182.48 156.27 182.94 C 157.04 183.40 158.04 183.15 158.50 182.38 L 159.02 181.51 C 159.48 180.74 159.23 179.75 158.46 179.29 C 157.69 178.82 156.70 179.07 156.24 179.84 Z M 155.74 180.68 L 155.19 181.54 C 154.71 182.30 154.94 183.30 155.69 183.78 C 156.45 184.26 157.45 184.03 157.93 183.28 L 158.48 182.41 C 158.95 181.66 158.73 180.66 157.97 180.18 C 157.22 179.70 156.22 179.92 155.74 180.68 Z M 155.21 181.52 L 154.66 182.35 C 154.17 183.10 154.37 184.10 155.12 184.59 C 155.86 185.08 156.87 184.88 157.36 184.13 L 157.91 183.30 C 158.40 182.56 158.20 181.55 157.45 181.06 C 156.71 180.57 155.70 180.77 155.21 181.52 Z M 154.67 182.33 L 154.12 183.15 C 153.62 183.88 153.81 184.89 154.55 185.39 C 155.28 185.89 156.29 185.70 156.79 184.97 L 157.35 184.15 C 157.85 183.41 157.66 182.41 156.92 181.91 C 156.18 181.40 155.18 181.60 154.67 182.33 Z M 154.13 183.14 L 153.57 183.95 C 153.06 184.68 153.25 185.69 153.98 186.19 C 154.71 186.70 155.72 186.51 156.23 185.78 L 156.78 184.97 C 157.29 184.24 157.11 183.24 156.37 182.73 C 155.64 182.22 154.63 182.41 154.13 183.14 Z M 153.57 183.95 L 153.01 184.76 C 152.51 185.49 152.69 186.49 153.42 187.00 C 154.15 187.50 155.15 187.32 155.66 186.59 L 156.22 185.78 C 156.73 185.05 156.55 184.05 155.81 183.54 C 155.08 183.03 154.08 183.22 153.57 183.95 Z M 153.02 184.76 L 152.45 185.57 C 151.94 186.30 152.12 187.30 152.85 187.81 C 153.58 188.32 154.58 188.14 155.09 187.41 L 155.66 186.59 C 156.16 185.86 155.98 184.86 155.25 184.35 C 154.53 183.85 153.52 184.03 153.02 184.76 Z M 152.46 185.57 L 151.88 186.39 C 151.37 187.11 151.55 188.11 152.27 188.62 C 153.00 189.13 154.00 188.96 154.51 188.23 L 155.08 187.41 C 155.59 186.69 155.42 185.69 154.69 185.18 C 153.97 184.67 152.97 184.84 152.46 185.57 Z M 151.89 186.38 L 151.30 187.20 C 150.79 187.92 150.95 188.92 151.67 189.44 C 152.39 189.95 153.39 189.78 153.91 189.06 L 154.50 188.24 C 155.01 187.52 154.84 186.52 154.12 186.01 C 153.40 185.49 152.40 185.66 151.89 186.38 Z M 151.31 187.19 L 150.71 188.01 C 150.19 188.73 150.35 189.73 151.06 190.25 C 151.78 190.77 152.78 190.61 153.30 189.90 L 153.90 189.08 C 154.42 188.36 154.26 187.36 153.55 186.84 C 152.83 186.32 151.83 186.48 151.31 187.19 Z M 150.73 188.00 L 150.12 188.82 C 149.59 189.53 149.74 190.53 150.45 191.05 C 151.15 191.58 152.15 191.43 152.68 190.72 L 153.29 189.91 C 153.81 189.20 153.67 188.20 152.96 187.67 C 152.25 187.15 151.25 187.29 150.73 188.00 Z M 150.13 188.81 L 149.52 189.62 C 148.99 190.32 149.13 191.32 149.83 191.85 C 150.53 192.38 151.53 192.24 152.06 191.54 L 152.67 190.73 C 153.20 190.03 153.06 189.03 152.36 188.50 C 151.66 187.97 150.66 188.11 150.13 188.81 Z M 149.53 189.61 L 148.93 190.40 C 148.39 191.10 148.53 192.10 149.23 192.63 C 149.92 193.16 150.92 193.03 151.46 192.33 L 152.06 191.54 C 152.59 190.84 152.45 189.84 151.76 189.31 C 151.06 188.78 150.06 188.91 149.53 189.61 Z M 148.93 190.40 L 148.32 191.19 C 147.79 191.89 147.92 192.88 148.62 193.42 C 149.31 193.95 150.31 193.82 150.84 193.12 L 151.45 192.33 C 151.98 191.64 151.85 190.64 151.16 190.10 C 150.46 189.57 149.46 189.70 148.93 190.40 Z M 148.33 191.18 L 147.67 192.03 C 147.14 192.72 147.26 193.72 147.95 194.25 C 148.64 194.79 149.64 194.67 150.18 193.98 L 150.83 193.13 C 151.37 192.44 151.25 191.44 150.55 190.91 C 149.86 190.37 148.87 190.49 148.33 191.18 Z M 147.70 192.01 L 147.06 192.79 C 146.51 193.47 146.61 194.47 147.29 195.02 C 147.97 195.57 148.97 195.46 149.52 194.78 L 150.16 194.00 C 150.71 193.32 150.60 192.32 149.92 191.77 C 149.24 191.22 148.25 191.33 147.70 192.01 Z M 147.10 192.74 L 146.48 193.46 C 145.90 194.11 145.97 195.11 146.63 195.69 C 147.28 196.26 148.28 196.20 148.86 195.54 L 149.48 194.83 C 150.05 194.17 149.99 193.17 149.33 192.60 C 148.68 192.02 147.68 192.09 147.10 192.74 Z M 146.55 193.38 L 145.86 194.08 C 145.24 194.70 145.24 195.69 145.86 196.31 C 146.47 196.93 147.47 196.93 148.09 196.31 L 148.79 195.61 C 149.40 195.00 149.40 194.00 148.78 193.38 C 148.17 192.76 147.17 192.76 146.55 193.38 Z M 145.95 193.99 L 145.17 194.65 C 144.51 195.22 144.44 196.22 145.00 196.88 C 145.57 197.54 146.57 197.62 147.23 197.05 L 148.00 196.39 C 148.66 195.83 148.74 194.83 148.17 194.17 C 147.60 193.50 146.61 193.43 145.95 193.99 Z M 145.24 194.60 L 144.47 195.19 C 143.78 195.72 143.65 196.71 144.18 197.40 C 144.70 198.09 145.70 198.23 146.39 197.70 L 147.16 197.11 C 147.85 196.58 147.99 195.59 147.46 194.90 C 146.93 194.20 145.94 194.07 145.24 194.60 Z M 144.50 195.17 L 144.11 195.45 C 143.41 195.97 143.25 196.96 143.77 197.66 C 144.28 198.36 145.27 198.52 145.97 198.00 L 146.36 197.72 C 147.07 197.20 147.22 196.21 146.70 195.51 C 146.19 194.81 145.20 194.65 144.50 195.17 Z"
      fill="black"
      fill-rule="nonzero" /></svg>