<svg xmlns="http://www.w3.org/2000/svg" width="300" height="300" viewBox="0 0 300 300">
<path d="M 146.07 127.23 L 146.12 125.96 C 146.16 125.14 145.52 124.44 144.69 124.41 C 143.87 124.38 143.18 125.02 143.14 125.84 L 143.09 127.11 C 143.06 127.93 143.70 128.63 144.52 128.66 C 145.35 128.69 146.04 128.05 146.07 127.23 Z M 146.16 126.19 L 146.30 125.42 C 146.46 124.58 145.90 123.77 145.06 123.61 C 144.22 123.46 143.41 124.01 143.25 124.85 L 143.11 125.61 C 142.95 126.45 143.51 127.26 144.35 127.42 C 145.19 127.58 146.00 127.03 146.16 126.19 Z M 143.78 126.40 L 144.19 126.72 C 144.89 127.27 145.90 127.15 146.45 126.46 C 147.00 125.76 146.88 124.75 146.18 124.20 L 145.77 123.88 C 145.08 123.33 144.07 123.45 143.52 124.14 C 142.97 124.84 143.09 125.85 143.78 126.40 Z M 143.65 126.07 L 144.11 127.22 C 144.44 128.07 145.40 128.49 146.25 128.15 C 147.10 127.82 147.51 126.86 147.18 126.01 L 146.72 124.86 C 146.39 124.01 145.43 123.59 144.58 123.93 C 143.73 124.26 143.32 125.22 143.65 126.07 Z M 144.04 127.08 L 144.32 128.06 C 144.58 128.95 145.51 129.46 146.40 129.20 C 147.28 128.94 147.79 128.01 147.53 127.12 L 147.25 126.15 C 146.99 125.26 146.06 124.75 145.18 125.01 C 144.29 125.27 143.78 126.20 144.04 127.08 Z M 144.30 128.01 L 144.55 128.98 C 144.78 129.88 145.69 130.43 146.59 130.20 C 147.49 129.97 148.03 129.05 147.80 128.15 L 147.55 127.18 C 147.32 126.28 146.41 125.74 145.51 125.96 C 144.61 126.19 144.07 127.11 144.30 128.01 Z M 144.54 128.97 L 144.79 129.97 C 145.01 130.88 145.92 131.43 146.83 131.20 C 147.73 130.98 148.28 130.07 148.06 129.17 L 147.81 128.17 C 147.59 127.26 146.68 126.71 145.77 126.93 C 144.87 127.16 144.32 128.07 144.54 128.97 Z M 144.79 129.98 L 145.03 130.93 C 145.26 131.83 146.17 132.37 147.08 132.15 C 147.98 131.92 148.52 131.00 148.30 130.10 L 148.06 129.16 C 147.83 128.25 146.91 127.71 146.01 127.94 C 145.11 128.17 144.56 129.08 144.79 129.98 Z M 145.03 130.95 L 145.29 131.88 C 145.53 132.78 146.45 133.31 147.35 133.07 C 148.25 132.82 148.78 131.90 148.54 131.00 L 148.29 130.07 C 148.05 129.17 147.12 128.64 146.22 128.88 C 145.32 129.13 144.79 130.05 145.03 130.95 Z M 145.29 131.90 L 145.57 132.87 C 145.82 133.76 146.76 134.28 147.65 134.02 C 148.55 133.77 149.07 132.83 148.81 131.94 L 148.53 130.97 C 148.28 130.08 147.34 129.56 146.45 129.82 C 145.55 130.07 145.03 131.01 145.29 131.90 Z M 145.57 132.88 L 145.86 133.85 C 146.12 134.74 147.06 135.25 147.95 134.99 C 148.85 134.73 149.36 133.79 149.09 132.89 L 148.81 131.92 C 148.54 131.03 147.60 130.52 146.71 130.78 C 145.82 131.05 145.31 131.99 145.57 132.88 Z M 145.86 133.86 L 146.15 134.81 C 146.42 135.70 147.36 136.21 148.25 135.94 C 149.14 135.67 149.65 134.72 149.38 133.83 L 149.09 132.88 C 148.82 131.99 147.88 131.49 146.99 131.76 C 146.10 132.02 145.59 132.97 145.86 133.86 Z M 146.15 134.82 L 146.45 135.79 C 146.72 136.68 147.67 137.18 148.56 136.91 C 149.45 136.63 149.95 135.69 149.68 134.79 L 149.38 133.82 C 149.10 132.93 148.15 132.43 147.26 132.71 C 146.37 132.98 145.87 133.93 146.15 134.82 Z M 146.45 135.80 L 146.74 136.72 C 147.02 137.61 147.97 138.11 148.86 137.83 C 149.75 137.55 150.24 136.60 149.96 135.71 L 149.67 134.78 C 149.39 133.90 148.44 133.40 147.55 133.68 C 146.67 133.96 146.17 134.91 146.45 135.80 Z M 146.74 136.73 L 147.05 137.69 C 147.33 138.58 148.28 139.07 149.17 138.78 C 150.06 138.50 150.55 137.55 150.27 136.66 L 149.96 135.71 C 149.68 134.82 148.73 134.33 147.84 134.61 C 146.95 134.89 146.46 135.84 146.74 136.73 Z M 147.05 137.69 L 147.36 138.65 C 147.64 139.54 148.58 140.03 149.47 139.75 C 150.36 139.47 150.86 138.52 150.57 137.63 L 150.27 136.67 C 149.99 135.78 149.04 135.29 148.15 135.57 C 147.26 135.85 146.77 136.80 147.05 137.69 Z M 147.36 138.65 L 147.66 139.60 C 147.94 140.49 148.89 140.99 149.78 140.70 C 150.66 140.42 151.16 139.47 150.88 138.59 L 150.57 137.63 C 150.29 136.74 149.34 136.25 148.46 136.53 C 147.57 136.81 147.07 137.76 147.36 138.65 Z M 147.66 139.62 L 147.97 140.58 C 148.26 141.46 149.21 141.95 150.10 141.66 C 150.98 141.37 151.47 140.42 151.18 139.54 L 150.87 138.58 C 150.58 137.69 149.63 137.20 148.75 137.49 C 147.86 137.78 147.37 138.73 147.66 139.62 Z M 147.98 140.60 L 148.29 141.54 C 148.59 142.42 149.55 142.90 150.43 142.60 C 151.32 142.30 151.79 141.34 151.50 140.46 L 151.18 139.52 C 150.88 138.63 149.92 138.16 149.04 138.45 C 148.15 138.75 147.68 139.71 147.98 140.60 Z M 148.29 141.55 L 148.61 142.48 C 148.92 143.37 149.88 143.84 150.77 143.53 C 151.65 143.23 152.13 142.26 151.82 141.38 L 151.50 140.44 C 151.19 139.56 150.23 139.09 149.34 139.39 C 148.46 139.70 147.98 140.66 148.29 141.55 Z M 148.60 142.47 L 148.92 143.44 C 149.23 144.33 150.19 144.81 151.09 144.51 C 151.98 144.21 152.46 143.24 152.16 142.35 L 151.83 141.38 C 151.53 140.49 150.56 140.01 149.67 140.31 C 148.78 140.61 148.30 141.58 148.60 142.47 Z M 148.91 143.41 L 149.21 144.34 C 149.49 145.24 150.46 145.74 151.36 145.45 C 152.26 145.16 152.76 144.20 152.47 143.30 L 152.17 142.37 C 151.88 141.47 150.92 140.97 150.02 141.26 C 149.12 141.55 148.62 142.51 148.91 143.41 Z M 149.19 144.33 L 149.49 145.28 C 149.77 146.19 150.73 146.70 151.64 146.42 C 152.55 146.14 153.06 145.17 152.78 144.27 L 152.48 143.31 C 152.20 142.40 151.24 141.89 150.33 142.17 C 149.42 142.45 148.91 143.42 149.19 144.33 Z M 149.48 145.28 L 149.77 146.26 C 150.05 147.17 151.02 147.69 151.93 147.41 C 152.85 147.13 153.36 146.16 153.08 145.25 L 152.79 144.27 C 152.51 143.35 151.54 142.84 150.63 143.12 C 149.71 143.40 149.20 144.36 149.48 145.28 Z M 149.77 146.26 L 150.06 147.22 C 150.35 148.14 151.32 148.65 152.24 148.37 C 153.15 148.08 153.67 147.11 153.38 146.19 L 153.09 145.24 C 152.81 144.32 151.83 143.81 150.92 144.09 C 150.00 144.37 149.49 145.35 149.77 146.26 Z M 150.06 147.22 L 150.35 148.17 C 150.63 149.09 151.61 149.61 152.53 149.32 C 153.45 149.04 153.97 148.06 153.68 147.14 L 153.39 146.19 C 153.11 145.27 152.13 144.75 151.21 145.04 C 150.29 145.32 149.77 146.30 150.06 147.22 Z M 150.34 148.16 L 150.63 149.12 C 150.90 150.05 151.88 150.58 152.81 150.30 C 153.74 150.02 154.26 149.04 153.99 148.11 L 153.70 147.15 C 153.42 146.22 152.44 145.70 151.51 145.97 C 150.58 146.25 150.06 147.23 150.34 148.16 Z M 150.61 149.10 L 150.89 150.07 C 151.15 151.00 152.12 151.55 153.06 151.28 C 154.00 151.02 154.54 150.05 154.28 149.11 L 154.00 148.14 C 153.74 147.20 152.76 146.66 151.83 146.92 C 150.89 147.19 150.35 148.16 150.61 149.10 Z M 150.87 150.04 L 151.12 151.00 C 151.37 151.95 152.34 152.51 153.28 152.26 C 154.23 152.02 154.79 151.05 154.54 150.10 L 154.29 149.14 C 154.04 148.20 153.08 147.63 152.13 147.88 C 151.19 148.13 150.62 149.09 150.87 150.04 Z M 151.11 150.97 L 151.34 151.94 C 151.57 152.90 152.53 153.49 153.48 153.26 C 154.44 153.03 155.02 152.07 154.79 151.11 L 154.56 150.14 C 154.33 149.18 153.37 148.60 152.42 148.83 C 151.46 149.05 150.88 150.01 151.11 150.97 Z M 151.32 151.91 L 151.54 152.89 C 151.75 153.85 152.70 154.46 153.66 154.25 C 154.62 154.04 155.23 153.09 155.02 152.13 L 154.81 151.15 C 154.60 150.19 153.65 149.58 152.69 149.79 C 151.72 150.00 151.11 150.95 151.32 151.91 Z M 151.52 152.85 L 151.71 153.82 C 151.90 154.80 152.84 155.43 153.81 155.24 C 154.78 155.05 155.42 154.11 155.23 153.14 L 155.04 152.17 C 154.85 151.20 153.91 150.56 152.94 150.75 C 151.97 150.94 151.33 151.88 151.52 152.85 Z M 151.70 153.78 L 151.87 154.76 C 152.03 155.74 152.96 156.39 153.94 156.23 C 154.92 156.06 155.57 155.13 155.41 154.16 L 155.24 153.18 C 155.07 152.20 154.15 151.55 153.17 151.71 C 152.19 151.88 151.53 152.81 151.70 153.78 Z M 151.86 154.72 L 152.00 155.71 C 152.14 156.70 153.06 157.38 154.04 157.23 C 155.03 157.09 155.71 156.17 155.56 155.19 L 155.42 154.20 C 155.27 153.21 154.36 152.53 153.38 152.68 C 152.39 152.82 151.71 153.73 151.86 154.72 Z M 151.99 155.67 L 152.11 156.68 C 152.24 157.67 153.14 158.37 154.13 158.25 C 155.11 158.13 155.82 157.23 155.70 156.24 L 155.57 155.23 C 155.45 154.24 154.55 153.54 153.56 153.66 C 152.57 153.78 151.87 154.68 151.99 155.67 Z M 152.10 156.64 L 152.21 157.65 C 152.31 158.65 153.20 159.37 154.19 159.27 C 155.18 159.17 155.91 158.28 155.81 157.29 L 155.71 156.28 C 155.61 155.28 154.72 154.56 153.72 154.66 C 152.73 154.76 152.00 155.65 152.10 156.64 Z M 152.20 157.62 L 152.28 158.63 C 152.36 159.63 153.24 160.37 154.24 160.29 C 155.24 160.21 155.98 159.33 155.90 158.33 L 155.82 157.32 C 155.74 156.32 154.86 155.58 153.86 155.66 C 152.86 155.74 152.12 156.62 152.20 157.62 Z M 152.27 158.59 L 152.33 159.58 C 152.40 160.58 153.26 161.34 154.26 161.28 C 155.27 161.22 156.03 160.35 155.97 159.35 L 155.91 158.37 C 155.84 157.36 154.98 156.60 153.98 156.66 C 152.97 156.72 152.21 157.59 152.27 158.59 Z M 152.33 159.54 L 152.37 160.56 C 152.41 161.57 153.26 162.35 154.26 162.31 C 155.27 162.27 156.06 161.42 156.02 160.42 L 155.98 159.39 C 155.94 158.38 155.09 157.60 154.08 157.64 C 153.07 157.68 152.29 158.53 152.33 159.54 Z M 152.36 160.50 L 152.37 161.51 C 152.37 162.52 153.20 163.34 154.21 163.33 C 155.22 163.32 156.03 162.50 156.03 161.49 L 156.02 160.48 C 156.02 159.47 155.19 158.65 154.18 158.66 C 153.17 158.67 152.36 159.49 152.36 160.50 Z M 152.36 161.42 L 152.32 162.39 C 152.28 163.41 153.07 164.26 154.08 164.30 C 155.09 164.35 155.95 163.56 155.99 162.55 L 156.03 161.58 C 156.07 160.56 155.29 159.71 154.27 159.67 C 153.26 159.62 152.41 160.41 152.36 161.42 Z M 152.33 162.28 L 152.23 163.25 C 152.13 164.26 152.86 165.17 153.87 165.27 C 154.88 165.37 155.79 164.64 155.89 163.63 L 155.99 162.66 C 156.09 161.65 155.35 160.74 154.34 160.64 C 153.33 160.54 152.43 161.27 152.33 162.28 Z M 152.25 163.13 L 152.08 164.11 C 151.91 165.11 152.58 166.06 153.58 166.23 C 154.58 166.41 155.53 165.73 155.70 164.73 L 155.87 163.75 C 156.04 162.75 155.37 161.80 154.37 161.63 C 153.37 161.46 152.42 162.13 152.25 163.13 Z M 152.11 163.97 L 151.86 164.94 C 151.61 165.92 152.21 166.92 153.19 167.17 C 154.18 167.42 155.18 166.83 155.43 165.84 L 155.67 164.87 C 155.92 163.89 155.33 162.89 154.34 162.64 C 153.36 162.39 152.36 162.99 152.11 163.97 Z M 151.91 164.79 L 151.59 165.73 C 151.26 166.69 151.77 167.73 152.73 168.06 C 153.69 168.39 154.73 167.88 155.06 166.92 L 155.38 165.99 C 155.71 165.03 155.20 163.98 154.24 163.65 C 153.28 163.32 152.24 163.83 151.91 164.79 Z M 151.64 165.60 L 151.25 166.48 C 150.85 167.42 151.28 168.50 152.21 168.90 C 153.14 169.30 154.22 168.87 154.63 167.94 L 155.01 167.05 C 155.41 166.12 154.98 165.04 154.05 164.64 C 153.12 164.24 152.04 164.66 151.64 165.60 Z M 151.30 166.39 L 150.85 167.29 C 150.39 168.20 150.76 169.30 151.67 169.75 C 152.58 170.21 153.68 169.84 154.13 168.93 L 154.58 168.03 C 155.04 167.13 154.67 166.02 153.76 165.57 C 152.86 165.12 151.75 165.48 151.30 166.39 Z M 150.88 167.23 L 150.38 168.14 C 149.90 169.03 150.22 170.14 151.11 170.63 C 152.00 171.12 153.12 170.79 153.60 169.90 L 154.10 168.99 C 154.59 168.10 154.26 166.99 153.37 166.50 C 152.48 166.01 151.37 166.34 150.88 167.23 Z M 150.40 168.10 L 149.94 168.91 C 149.44 169.79 149.74 170.91 150.62 171.41 C 151.50 171.92 152.62 171.61 153.12 170.74 L 153.58 169.93 C 154.09 169.05 153.79 167.93 152.91 167.43 C 152.03 166.92 150.91 167.23 150.40 168.10 Z M 149.95 168.89 L 149.46 169.73 C 148.94 170.60 149.23 171.73 150.10 172.24 C 150.98 172.76 152.10 172.47 152.62 171.59 L 153.11 170.75 C 153.63 169.88 153.34 168.76 152.46 168.24 C 151.59 167.73 150.47 168.02 149.95 168.89 Z M 149.46 169.72 L 148.93 170.61 C 148.41 171.48 148.69 172.60 149.56 173.12 C 150.43 173.64 151.56 173.36 152.08 172.49 L 152.61 171.60 C 153.13 170.74 152.85 169.61 151.98 169.09 C 151.11 168.57 149.98 168.85 149.46 169.72 Z M 148.94 170.60 L 148.39 171.52 C 147.86 172.38 148.14 173.51 149.01 174.03 C 149.88 174.55 151.00 174.27 151.53 173.41 L 152.07 172.49 C 152.60 171.63 152.32 170.50 151.45 169.98 C 150.58 169.46 149.46 169.74 148.94 170.60 Z M 148.39 171.52 L 147.89 172.34 C 147.37 173.21 147.64 174.33 148.51 174.86 C 149.37 175.38 150.50 175.10 151.02 174.24 L 151.52 173.41 C 152.05 172.54 151.77 171.42 150.90 170.89 C 150.04 170.37 148.91 170.65 148.39 171.52 Z M 147.90 172.33 L 147.37 173.19 C 146.85 174.05 147.12 175.17 147.98 175.70 C 148.84 176.23 149.96 175.96 150.49 175.10 L 151.01 174.25 C 151.54 173.38 151.27 172.26 150.41 171.73 C 149.55 171.20 148.42 171.47 147.90 172.33 Z M 147.39 173.17 L 146.85 174.03 C 146.31 174.88 146.56 176.01 147.42 176.55 C 148.27 177.09 149.40 176.83 149.94 175.98 L 150.48 175.12 C 151.02 174.26 150.76 173.13 149.91 172.60 C 149.05 172.06 147.93 172.31 147.39 173.17 Z M 146.86 174.00 L 146.31 174.85 C 145.75 175.70 145.99 176.83 146.83 177.38 C 147.67 177.93 148.81 177.70 149.36 176.86 L 149.92 176.00 C 150.47 175.16 150.24 174.03 149.39 173.48 C 148.55 172.92 147.42 173.16 146.86 174.00 Z M 146.33 174.82 L 145.76 175.65 C 145.19 176.47 145.39 177.61 146.22 178.18 C 147.05 178.76 148.18 178.55 148.76 177.72 L 149.33 176.89 C 149.90 176.06 149.70 174.93 148.87 174.36 C 148.04 173.78 146.91 173.99 146.33 174.82 Z M 145.79 175.61 L 145.20 176.41 C 144.61 177.22 144.78 178.36 145.60 178.95 C 146.41 179.55 147.55 179.37 148.14 178.56 L 148.73 177.76 C 149.32 176.95 149.15 175.81 148.33 175.21 C 147.52 174.62 146.38 174.80 145.79 175.61 Z M 145.23 176.38 L 144.63 177.16 C 144.01 177.96 144.16 179.10 144.96 179.71 C 145.76 180.33 146.90 180.18 147.51 179.38 L 148.11 178.59 C 148.73 177.80 148.58 176.65 147.78 176.04 C 146.98 175.43 145.84 175.58 145.23 176.38 Z M 144.65 177.14 L 144.03 177.92 C 143.40 178.70 143.53 179.85 144.32 180.47 C 145.10 181.10 146.24 180.97 146.87 180.18 L 147.49 179.40 C 148.12 178.62 147.99 177.47 147.20 176.85 C 146.42 176.22 145.27 176.35 144.65 177.14 Z M 144.04 177.90 L 143.40 178.69 C 142.77 179.46 142.88 180.61 143.66 181.24 C 144.44 181.87 145.58 181.76 146.21 180.98 L 146.85 180.20 C 147.49 179.42 147.37 178.28 146.60 177.64 C 145.82 177.01 144.67 177.13 144.04 177.90 Z M 143.41 178.68 L 142.79 179.43 C 142.15 180.20 142.26 181.34 143.03 181.98 C 143.80 182.62 144.94 182.51 145.58 181.74 L 146.20 180.99 C 146.84 180.22 146.74 179.08 145.96 178.44 C 145.19 177.80 144.05 177.91 143.41 178.68 Z M 142.80 179.42 L 142.17 180.17 C 141.52 180.94 141.62 182.08 142.39 182.72 C 143.16 183.37 144.30 183.27 144.94 182.50 L 145.57 181.75 C 146.21 180.98 146.12 179.84 145.35 179.20 C 144.58 178.56 143.44 178.66 142.80 179.42 Z M 142.18 180.16 L 141.53 180.92 C 140.88 181.68 140.97 182.82 141.73 183.47 C 142.49 184.12 143.63 184.03 144.28 183.27 L 144.93 182.51 C 145.58 181.75 145.49 180.61 144.73 179.96 C 143.97 179.31 142.83 179.40 142.18 180.16 Z M 141.55 180.90 L 140.88 181.66 C 140.22 182.41 140.29 183.55 141.04 184.21 C 141.79 184.87 142.93 184.80 143.59 184.05 L 144.26 183.29 C 144.92 182.54 144.85 181.40 144.10 180.74 C 143.35 180.08 142.21 180.15 141.55 180.90 Z M 140.90 181.65 L 140.21 182.41 C 139.54 183.14 139.60 184.28 140.34 184.95 C 141.07 185.62 142.21 185.56 142.88 184.83 L 143.57 184.07 C 144.24 183.33 144.18 182.19 143.45 181.52 C 142.71 180.85 141.57 180.91 140.90 181.65 Z M 140.23 182.39 L 139.55 183.12 C 138.87 183.84 138.91 184.98 139.63 185.66 C 140.36 186.34 141.49 186.30 142.17 185.58 L 142.86 184.85 C 143.54 184.12 143.50 182.98 142.78 182.30 C 142.05 181.63 140.91 181.66 140.23 182.39 Z M 139.57 183.10 L 138.88 183.81 C 138.19 184.52 138.21 185.66 138.92 186.35 C 139.63 187.04 140.77 187.02 141.46 186.31 L 142.15 185.60 C 142.84 184.88 142.82 183.75 142.11 183.06 C 141.40 182.37 140.26 182.39 139.57 183.10 Z M 138.90 183.80 L 138.19 184.50 C 137.50 185.20 137.50 186.34 138.20 187.04 C 138.90 187.74 140.03 187.74 140.73 187.03 L 141.44 186.33 C 142.14 185.63 142.13 184.49 141.43 183.79 C 140.73 183.09 139.60 183.10 138.90 183.80 Z M 138.21 184.49 L 137.50 185.19 C 136.79 185.88 136.78 187.01 137.47 187.72 C 138.16 188.43 139.29 188.44 139.99 187.75 L 140.71 187.05 C 141.42 186.36 141.43 185.23 140.74 184.52 C 140.05 183.81 138.92 183.80 138.21 184.49 Z M 137.51 185.18 L 136.79 185.88 C 136.07 186.56 136.05 187.68 136.73 188.40 C 137.41 189.11 138.54 189.14 139.25 188.46 L 139.98 187.76 C 140.69 187.08 140.72 185.95 140.04 185.24 C 139.35 184.53 138.23 184.50 137.51 185.18 Z M 136.80 185.87 L 136.06 186.56 C 135.35 187.23 135.31 188.35 135.98 189.07 C 136.65 189.79 137.78 189.83 138.50 189.16 L 139.23 188.47 C 139.95 187.79 139.99 186.67 139.32 185.95 C 138.65 185.23 137.52 185.19 136.80 185.87 Z M 136.08 186.55 L 135.33 187.23 C 134.61 187.90 134.56 189.02 135.23 189.74 C 135.89 190.46 137.01 190.51 137.74 189.85 L 138.48 189.16 C 139.20 188.50 139.25 187.38 138.59 186.65 C 137.92 185.93 136.80 185.88 136.08 186.55 Z M 135.35 187.23 L 134.60 187.90 C 133.87 188.56 133.82 189.68 134.47 190.40 C 135.13 191.13 136.25 191.18 136.97 190.53 L 137.72 189.85 C 138.45 189.20 138.50 188.08 137.85 187.35 C 137.19 186.63 136.07 186.57 135.35 187.23 Z M 134.61 187.89 L 133.87 188.56 C 133.14 189.21 133.07 190.32 133.72 191.05 C 134.36 191.78 135.48 191.85 136.21 191.20 L 136.96 190.54 C 137.69 189.89 137.75 188.77 137.11 188.04 C 136.46 187.31 135.34 187.25 134.61 187.89 Z M 133.88 188.55 L 133.13 189.21 C 132.40 189.85 132.32 190.96 132.96 191.69 C 133.60 192.42 134.72 192.50 135.45 191.86 L 136.20 191.21 C 136.93 190.57 137.00 189.45 136.36 188.72 C 135.72 187.99 134.61 187.91 133.88 188.55 Z M 133.15 189.20 L 132.40 189.84 C 131.66 190.47 131.58 191.58 132.21 192.32 C 132.85 193.05 133.96 193.14 134.69 192.50 L 135.44 191.86 C 136.17 191.23 136.26 190.12 135.62 189.39 C 134.99 188.65 133.88 188.57 133.15 189.20 Z M 132.41 189.84 L 131.65 190.49 C 130.91 191.11 130.82 192.22 131.44 192.96 C 132.07 193.69 133.17 193.78 133.91 193.16 L 134.68 192.51 C 135.42 191.88 135.51 190.78 134.88 190.04 C 134.25 189.30 133.15 189.21 132.41 189.84 Z M 131.66 190.49 L 130.89 191.13 C 130.16 191.75 130.06 192.85 130.68 193.59 C 131.30 194.33 132.40 194.42 133.14 193.80 L 133.90 193.16 C 134.64 192.54 134.74 191.44 134.11 190.70 C 133.49 189.96 132.39 189.87 131.66 190.49 Z M 130.90 191.13 L 130.14 191.77 C 129.40 192.39 129.31 193.49 129.92 194.22 C 130.54 194.96 131.64 195.05 132.37 194.44 L 133.14 193.80 C 133.87 193.18 133.97 192.08 133.35 191.35 C 132.73 190.61 131.63 190.52 130.90 191.13 Z M 130.14 191.78 L 129.38 192.42 C 128.64 193.04 128.55 194.13 129.17 194.87 C 129.79 195.60 130.88 195.69 131.61 195.07 L 132.37 194.43 C 133.11 193.81 133.20 192.72 132.58 191.99 C 131.96 191.25 130.87 191.16 130.14 191.78 Z M 129.37 192.43 L 128.61 193.09 C 127.88 193.71 127.80 194.80 128.42 195.52 C 129.04 196.25 130.13 196.33 130.85 195.71 L 131.62 195.06 C 132.34 194.44 132.43 193.35 131.81 192.63 C 131.19 191.90 130.10 191.81 129.37 192.43 Z M 128.60 193.10 L 127.83 193.77 C 127.11 194.40 127.04 195.48 127.66 196.20 C 128.28 196.92 129.37 196.99 130.09 196.37 L 130.86 195.70 C 131.57 195.08 131.65 193.99 131.03 193.27 C 130.40 192.56 129.32 192.48 128.60 193.10 Z M 127.83 193.79 L 127.06 194.46 C 126.35 195.09 126.28 196.17 126.90 196.88 C 127.53 197.59 128.61 197.66 129.32 197.03 L 130.09 196.36 C 130.80 195.73 130.87 194.65 130.24 193.94 C 129.62 193.23 128.53 193.16 127.83 193.79 Z M 127.05 194.48 L 126.30 195.15 C 125.59 195.78 125.53 196.86 126.16 197.56 C 126.78 198.26 127.86 198.32 128.56 197.70 L 129.32 197.02 C 130.02 196.40 130.09 195.32 129.46 194.62 C 128.83 193.91 127.76 193.85 127.05 194.48 Z M 126.30 195.16 L 125.56 195.83 C 124.86 196.45 124.80 197.52 125.43 198.22 C 126.06 198.92 127.13 198.97 127.82 198.35 L 128.56 197.69 C 129.26 197.06 129.32 195.99 128.69 195.29 C 128.07 194.59 126.99 194.54 126.30 195.16 Z M 125.56 195.83 L 124.85 196.47 C 124.16 197.10 124.10 198.16 124.73 198.86 C 125.35 199.55 126.42 199.60 127.11 198.98 L 127.82 198.34 C 128.51 197.72 128.57 196.65 127.95 195.96 C 127.32 195.26 126.25 195.21 125.56 195.83 Z M 124.86 196.48 L 124.07 197.19 C 123.38 197.81 123.32 198.88 123.95 199.56 C 124.57 200.25 125.63 200.31 126.32 199.69 L 127.11 198.97 C 127.80 198.35 127.85 197.29 127.23 196.60 C 126.61 195.91 125.55 195.86 124.86 196.48 Z M 124.07 197.20 L 123.31 197.89 C 122.63 198.51 122.57 199.57 123.19 200.25 C 123.81 200.94 124.87 200.99 125.56 200.37 L 126.32 199.68 C 127.00 199.06 127.05 198.00 126.43 197.31 C 125.81 196.63 124.76 196.58 124.07 197.20 Z M 123.31 197.90 L 122.59 198.56 C 121.91 199.18 121.86 200.23 122.48 200.91 C 123.10 201.59 124.15 201.64 124.83 201.02 L 125.56 200.36 C 126.24 199.74 126.29 198.68 125.67 198.00 C 125.04 197.32 123.99 197.27 123.31 197.90 Z M 122.58 198.57 L 121.89 199.21 C 121.21 199.83 121.17 200.88 121.79 201.56 C 122.42 202.23 123.47 202.27 124.14 201.65 L 124.84 201.01 C 125.51 200.38 125.55 199.33 124.93 198.66 C 124.31 197.99 123.26 197.94 122.58 198.57 Z M 121.88 199.22 L 121.16 199.90 C 120.50 200.52 120.46 201.57 121.09 202.24 C 121.72 202.90 122.76 202.94 123.43 202.31 L 124.15 201.64 C 124.81 201.01 124.85 199.96 124.22 199.30 C 123.59 198.63 122.55 198.60 121.88 199.22 Z M 121.16 199.91 L 120.43 200.61 C 119.77 201.24 119.75 202.28 120.38 202.94 C 121.00 203.60 122.05 203.62 122.71 202.99 L 123.43 202.30 C 124.09 201.67 124.12 200.62 123.49 199.97 C 122.86 199.31 121.82 199.28 121.16 199.91 Z M 120.42 200.62 L 119.71 201.31 C 119.06 201.94 119.04 202.98 119.67 203.64 C 120.30 204.29 121.34 204.31 122.00 203.67 L 122.71 202.98 C 123.36 202.35 123.38 201.31 122.75 200.65 C 122.12 200.00 121.08 199.99 120.42 200.62 Z M 119.70 201.32 L 119.00 202.01 C 118.35 202.65 118.34 203.69 118.97 204.33 C 119.61 204.98 120.64 204.99 121.29 204.36 L 122.00 203.66 C 122.65 203.03 122.66 201.99 122.02 201.35 C 121.39 200.70 120.35 200.69 119.70 201.32 Z M 118.99 202.02 L 118.27 202.73 C 117.63 203.37 117.62 204.40 118.26 205.05 C 118.89 205.69 119.93 205.70 120.57 205.06 L 121.29 204.35 C 121.94 203.72 121.94 202.68 121.31 202.04 C 120.67 201.39 119.64 201.39 118.99 202.02 Z M 118.28 202.73 L 117.55 203.44 C 116.91 204.07 116.90 205.11 117.53 205.75 C 118.17 206.40 119.20 206.41 119.85 205.77 L 120.57 205.06 C 121.21 204.43 121.22 203.39 120.59 202.75 C 119.96 202.11 118.92 202.10 118.28 202.73 Z M 117.56 203.43 L 116.85 204.12 C 116.20 204.75 116.18 205.79 116.81 206.44 C 117.43 207.09 118.47 207.10 119.12 206.48 L 119.84 205.78 C 120.49 205.16 120.50 204.12 119.88 203.47 C 119.25 202.82 118.21 202.80 117.56 203.43 Z M 116.87 204.11 L 116.16 204.77 C 115.50 205.39 115.46 206.42 116.08 207.08 C 116.69 207.74 117.73 207.78 118.39 207.16 L 119.10 206.50 C 119.76 205.88 119.80 204.84 119.18 204.18 C 118.56 203.52 117.53 203.49 116.87 204.11 Z M 116.18 204.74 L 115.42 205.42 C 114.74 206.03 114.69 207.06 115.29 207.73 C 115.89 208.41 116.92 208.47 117.60 207.87 L 118.36 207.19 C 119.03 206.59 119.09 205.55 118.49 204.88 C 117.89 204.20 116.86 204.14 116.18 204.74 Z M 115.44 205.40 L 114.68 206.05 C 114.00 206.64 113.92 207.67 114.50 208.36 C 115.09 209.05 116.12 209.13 116.81 208.54 L 117.57 207.89 C 118.26 207.30 118.34 206.27 117.75 205.58 C 117.17 204.89 116.13 204.81 115.44 205.40 Z M 114.70 206.04 L 113.94 206.67 C 113.25 207.25 113.15 208.28 113.73 208.97 C 114.31 209.67 115.34 209.76 116.04 209.18 L 116.80 208.55 C 117.49 207.98 117.59 206.94 117.01 206.25 C 116.43 205.55 115.39 205.46 114.70 206.04 Z M 113.95 206.66 L 113.60 206.95 C 112.90 207.53 112.80 208.56 113.38 209.26 C 113.95 209.96 114.99 210.06 115.68 209.48 L 116.03 209.19 C 116.73 208.61 116.83 207.58 116.25 206.88 C 115.68 206.18 114.64 206.09 113.95 206.66 Z"
      fill="black"
      fill-rule="nonzero" /></svg>