<svg xmlns="http://www.w3.org/2000/svg" width="300" height="300" viewBox="0 0 300 300">
<path d="M 146.32 143.49 L 146.30 142.35 C 146.30 141.52 145.62 140.86 144.79 140.87 C 143.97 140.88 143.30 141.55 143.31 142.38 L 143.32 143.52 C 143.33 144.35 144.01 145.01 144.83 145.00 C 145.66 145.00 146.32 144.32 146.32 143.49 Z M 146.31 142.48 L 146.39 141.47 C 146.46 140.64 145.83 139.91 145.00 139.85 C 144.17 139.79 143.44 140.41 143.38 141.24 L 143.30 142.25 C 143.24 143.08 143.86 143.81 144.69 143.87 C 145.52 143.94 146.25 143.31 146.31 142.48 Z M 146.32 141.88 L 146.61 141.09 C 146.89 140.30 146.49 139.43 145.69 139.14 C 144.90 138.85 144.03 139.26 143.74 140.05 L 143.45 140.83 C 143.17 141.63 143.57 142.50 144.36 142.79 C 145.16 143.08 146.03 142.67 146.32 141.88 Z M 145.93 141.92 L 146.75 141.46 C 147.50 141.04 147.76 140.10 147.35 139.36 C 146.93 138.61 145.99 138.35 145.25 138.76 L 144.42 139.22 C 143.68 139.64 143.41 140.58 143.82 141.32 C 144.24 142.07 145.18 142.33 145.93 141.92 Z M 145.94 141.67 L 146.92 141.71 C 147.78 141.75 148.51 141.08 148.55 140.21 C 148.58 139.35 147.91 138.62 147.05 138.58 L 146.06 138.55 C 145.20 138.51 144.47 139.18 144.43 140.05 C 144.40 140.91 145.07 141.64 145.94 141.67 Z M 146.52 141.66 L 147.44 141.94 C 148.27 142.20 149.16 141.73 149.41 140.90 C 149.67 140.06 149.20 139.18 148.37 138.92 L 147.45 138.64 C 146.61 138.38 145.73 138.85 145.47 139.68 C 145.22 140.52 145.68 141.40 146.52 141.66 Z M 147.18 141.84 L 148.08 142.30 C 148.86 142.70 149.81 142.40 150.21 141.62 C 150.61 140.84 150.30 139.88 149.53 139.48 L 148.63 139.02 C 147.85 138.62 146.90 138.93 146.50 139.71 C 146.10 140.49 146.40 141.44 147.18 141.84 Z M 147.95 142.23 L 148.76 142.75 C 149.50 143.23 150.48 143.01 150.96 142.27 C 151.43 141.53 151.21 140.55 150.47 140.08 L 149.66 139.56 C 148.92 139.08 147.94 139.30 147.46 140.04 C 146.99 140.78 147.21 141.76 147.95 142.23 Z M 148.67 142.70 L 149.52 143.32 C 150.23 143.84 151.23 143.69 151.75 142.99 C 152.27 142.28 152.12 141.28 151.41 140.76 L 150.56 140.13 C 149.85 139.61 148.86 139.76 148.34 140.47 C 147.81 141.18 147.96 142.18 148.67 142.70 Z M 149.45 143.27 L 150.26 143.94 C 150.94 144.50 151.94 144.41 152.50 143.73 C 153.07 143.05 152.97 142.05 152.29 141.48 L 151.48 140.81 C 150.80 140.25 149.80 140.34 149.24 141.02 C 148.67 141.70 148.77 142.71 149.45 143.27 Z M 150.20 143.89 L 150.95 144.58 C 151.60 145.18 152.61 145.13 153.21 144.48 C 153.80 143.83 153.76 142.82 153.11 142.22 L 152.35 141.53 C 151.70 140.94 150.69 140.98 150.10 141.63 C 149.50 142.29 149.55 143.30 150.20 143.89 Z M 150.90 144.53 L 151.57 145.21 C 152.19 145.83 153.21 145.83 153.83 145.21 C 154.46 144.59 154.46 143.57 153.84 142.95 L 153.16 142.27 C 152.54 141.65 151.53 141.65 150.90 142.27 C 150.27 142.89 150.27 143.91 150.90 144.53 Z M 151.51 145.14 L 152.21 145.94 C 152.80 146.60 153.81 146.66 154.47 146.07 C 155.13 145.48 155.19 144.47 154.61 143.81 L 153.90 143.02 C 153.32 142.35 152.30 142.29 151.64 142.88 C 150.98 143.47 150.92 144.48 151.51 145.14 Z M 152.16 145.88 L 152.74 146.60 C 153.29 147.29 154.30 147.40 154.99 146.85 C 155.68 146.29 155.79 145.28 155.24 144.59 L 154.66 143.87 C 154.10 143.18 153.10 143.07 152.41 143.62 C 151.72 144.18 151.61 145.19 152.16 145.88 Z M 152.72 146.58 L 153.33 147.36 C 153.87 148.05 154.88 148.18 155.57 147.64 C 156.27 147.10 156.40 146.09 155.86 145.39 L 155.25 144.61 C 154.71 143.91 153.70 143.79 153.01 144.33 C 152.31 144.87 152.18 145.88 152.72 146.58 Z M 153.30 147.32 L 153.89 148.13 C 154.41 148.84 155.41 149.00 156.13 148.48 C 156.84 147.96 157.00 146.96 156.48 146.24 L 155.89 145.43 C 155.37 144.71 154.36 144.56 153.65 145.08 C 152.93 145.60 152.77 146.60 153.30 147.32 Z M 153.85 148.08 L 154.40 148.90 C 154.90 149.63 155.89 149.83 156.63 149.33 C 157.36 148.84 157.56 147.84 157.06 147.11 L 156.51 146.29 C 156.02 145.56 155.02 145.36 154.29 145.85 C 153.55 146.35 153.36 147.34 153.85 148.08 Z M 154.38 148.87 L 154.94 149.73 C 155.42 150.48 156.41 150.69 157.15 150.21 C 157.90 149.73 158.11 148.74 157.64 148.00 L 157.08 147.14 C 156.60 146.39 155.61 146.18 154.87 146.66 C 154.12 147.13 153.91 148.13 154.38 148.87 Z M 154.92 149.71 L 155.45 150.56 C 155.91 151.31 156.90 151.54 157.65 151.07 C 158.41 150.61 158.64 149.62 158.17 148.87 L 157.65 148.02 C 157.18 147.27 156.20 147.04 155.44 147.50 C 154.69 147.97 154.46 148.96 154.92 149.71 Z M 155.41 150.49 L 155.90 151.37 C 156.33 152.14 157.31 152.42 158.08 151.99 C 158.85 151.56 159.13 150.58 158.70 149.81 L 158.21 148.93 C 157.78 148.16 156.80 147.88 156.03 148.31 C 155.26 148.74 154.98 149.72 155.41 150.49 Z M 155.85 151.27 L 156.28 152.18 C 156.66 152.98 157.61 153.32 158.41 152.95 C 159.21 152.57 159.56 151.61 159.18 150.81 L 158.75 149.90 C 158.37 149.10 157.42 148.76 156.62 149.14 C 155.81 149.52 155.47 150.47 155.85 151.27 Z M 156.25 152.12 L 156.64 153.04 C 156.99 153.86 157.93 154.24 158.75 153.89 C 159.56 153.54 159.94 152.60 159.60 151.79 L 159.20 150.87 C 158.86 150.05 157.91 149.67 157.10 150.02 C 156.28 150.37 155.91 151.31 156.25 152.12 Z M 156.64 153.04 L 157.03 153.95 C 157.37 154.77 158.31 155.15 159.13 154.81 C 159.95 154.46 160.33 153.52 159.98 152.71 L 159.60 151.79 C 159.25 150.98 158.31 150.59 157.50 150.94 C 156.68 151.28 156.30 152.22 156.64 153.04 Z M 157.02 153.93 L 157.39 154.85 C 157.72 155.67 158.65 156.07 159.47 155.75 C 160.30 155.42 160.70 154.48 160.37 153.66 L 160.00 152.73 C 159.67 151.91 158.73 151.51 157.91 151.84 C 157.09 152.17 156.69 153.10 157.02 153.93 Z M 157.35 154.77 L 157.68 155.71 C 157.96 156.56 158.88 157.00 159.72 156.72 C 160.56 156.43 161.01 155.52 160.72 154.68 L 160.40 153.74 C 160.11 152.90 159.20 152.45 158.36 152.73 C 157.52 153.02 157.07 153.93 157.35 154.77 Z M 157.64 155.63 L 157.91 156.60 C 158.15 157.45 159.04 157.95 159.90 157.72 C 160.76 157.48 161.26 156.59 161.02 155.73 L 160.75 154.76 C 160.51 153.91 159.62 153.40 158.76 153.64 C 157.91 153.88 157.40 154.77 157.64 155.63 Z M 157.89 156.52 L 158.11 157.51 C 158.31 158.38 159.18 158.93 160.05 158.73 C 160.93 158.53 161.47 157.66 161.27 156.79 L 161.04 155.80 C 160.84 154.93 159.98 154.38 159.10 154.58 C 158.23 154.78 157.69 155.65 157.89 156.52 Z M 158.09 157.44 L 158.27 158.43 C 158.44 159.31 159.29 159.89 160.17 159.73 C 161.05 159.57 161.64 158.72 161.47 157.83 L 161.29 156.85 C 161.13 155.97 160.28 155.38 159.40 155.55 C 158.51 155.71 157.93 156.56 158.09 157.44 Z M 158.25 158.36 L 158.39 159.35 C 158.52 160.24 159.34 160.87 160.24 160.74 C 161.14 160.62 161.76 159.79 161.63 158.89 L 161.50 157.90 C 161.37 157.01 160.54 156.38 159.65 156.51 C 158.75 156.63 158.13 157.46 158.25 158.36 Z M 158.38 159.28 L 158.47 160.26 C 158.56 161.16 159.36 161.82 160.27 161.73 C 161.17 161.65 161.83 160.84 161.75 159.94 L 161.65 158.96 C 161.56 158.06 160.76 157.40 159.85 157.48 C 158.95 157.57 158.29 158.38 158.38 159.28 Z M 158.46 160.20 L 158.52 161.20 C 158.57 162.11 159.36 162.80 160.27 162.75 C 161.18 162.69 161.87 161.91 161.82 161.00 L 161.76 160.00 C 161.70 159.09 160.92 158.39 160.01 158.45 C 159.10 158.50 158.40 159.29 158.46 160.20 Z M 158.51 161.15 L 158.54 162.17 C 158.57 163.08 159.33 163.80 160.25 163.77 C 161.17 163.74 161.88 162.98 161.86 162.06 L 161.83 161.05 C 161.80 160.13 161.03 159.41 160.12 159.44 C 159.20 159.47 158.48 160.23 158.51 161.15 Z M 158.53 162.13 L 158.54 163.14 C 158.55 164.06 159.30 164.80 160.22 164.79 C 161.14 164.79 161.88 164.03 161.87 163.11 L 161.87 162.10 C 161.86 161.18 161.11 160.44 160.19 160.45 C 159.27 160.46 158.53 161.21 158.53 162.13 Z M 158.53 163.10 L 158.52 164.09 C 158.50 165.02 159.24 165.78 160.17 165.79 C 161.09 165.81 161.85 165.07 161.87 164.14 L 161.88 163.15 C 161.89 162.23 161.16 161.47 160.23 161.45 C 159.31 161.44 158.55 162.18 158.53 163.10 Z M 158.51 164.04 L 158.46 165.05 C 158.42 165.98 159.13 166.77 160.06 166.81 C 160.99 166.86 161.77 166.14 161.82 165.22 L 161.87 164.20 C 161.91 163.27 161.20 162.49 160.27 162.44 C 159.35 162.40 158.56 163.11 158.51 164.04 Z M 158.48 164.91 L 158.34 165.88 C 158.22 166.80 158.86 167.65 159.78 167.77 C 160.70 167.90 161.55 167.25 161.68 166.33 L 161.81 165.36 C 161.93 164.44 161.29 163.59 160.37 163.47 C 159.45 163.34 158.60 163.99 158.48 164.91 Z M 158.39 165.65 L 158.13 166.57 C 157.88 167.47 158.40 168.40 159.29 168.65 C 160.19 168.90 161.12 168.38 161.37 167.49 L 161.63 166.56 C 161.88 165.67 161.36 164.74 160.47 164.49 C 159.57 164.24 158.64 164.76 158.39 165.65 Z M 158.20 166.37 L 157.81 167.28 C 157.45 168.14 157.85 169.13 158.71 169.49 C 159.56 169.85 160.55 169.45 160.92 168.60 L 161.30 167.69 C 161.67 166.83 161.26 165.84 160.41 165.48 C 159.55 165.11 158.56 165.52 158.20 166.37 Z M 157.87 167.16 L 157.38 168.09 C 156.95 168.92 157.28 169.94 158.11 170.37 C 158.93 170.79 159.95 170.47 160.38 169.64 L 160.86 168.71 C 161.29 167.89 160.97 166.87 160.14 166.44 C 159.31 166.01 158.29 166.33 157.87 167.16 Z M 157.42 168.03 L 156.94 168.86 C 156.48 169.67 156.76 170.71 157.57 171.17 C 158.38 171.63 159.41 171.35 159.87 170.54 L 160.35 169.70 C 160.81 168.89 160.53 167.86 159.72 167.40 C 158.91 166.94 157.88 167.22 157.42 168.03 Z M 156.97 168.82 L 156.44 169.68 C 155.96 170.47 156.20 171.51 157.00 171.99 C 157.79 172.48 158.83 172.23 159.31 171.44 L 159.84 170.58 C 160.33 169.79 160.08 168.75 159.29 168.27 C 158.50 167.78 157.46 168.03 156.97 168.82 Z M 156.48 169.63 L 155.91 170.49 C 155.40 171.26 155.61 172.30 156.38 172.82 C 157.16 173.33 158.20 173.12 158.71 172.34 L 159.28 171.49 C 159.79 170.71 159.58 169.67 158.81 169.16 C 158.03 168.65 156.99 168.86 156.48 169.63 Z M 155.94 170.45 L 155.39 171.23 C 154.86 171.98 155.04 173.03 155.80 173.56 C 156.55 174.10 157.60 173.92 158.13 173.16 L 158.68 172.38 C 159.22 171.63 159.04 170.58 158.28 170.04 C 157.52 169.51 156.48 169.69 155.94 170.45 Z M 155.41 171.20 L 154.83 172.00 C 154.28 172.75 154.44 173.80 155.18 174.34 C 155.93 174.89 156.98 174.73 157.53 173.98 L 158.11 173.19 C 158.66 172.44 158.50 171.39 157.76 170.84 C 157.01 170.29 155.96 170.46 155.41 171.20 Z M 154.83 171.99 L 154.21 172.83 C 153.65 173.57 153.81 174.62 154.55 175.17 C 155.29 175.73 156.34 175.58 156.89 174.83 L 157.52 173.99 C 158.07 173.25 157.92 172.20 157.18 171.65 C 156.44 171.10 155.39 171.25 154.83 171.99 Z M 154.21 172.83 L 153.64 173.59 C 153.09 174.33 153.24 175.38 153.98 175.93 C 154.72 176.49 155.77 176.33 156.32 175.59 L 156.89 174.83 C 157.44 174.09 157.29 173.04 156.55 172.49 C 155.81 171.94 154.76 172.09 154.21 172.83 Z M 153.64 173.59 L 153.06 174.37 C 152.51 175.11 152.66 176.16 153.41 176.71 C 154.15 177.26 155.20 177.11 155.75 176.37 L 156.33 175.59 C 156.88 174.85 156.72 173.80 155.98 173.25 C 155.24 172.70 154.19 172.85 153.64 173.59 Z M 153.06 174.37 L 152.45 175.19 C 151.90 175.93 152.06 176.98 152.80 177.53 C 153.55 178.08 154.59 177.93 155.15 177.18 L 155.75 176.37 C 156.30 175.62 156.15 174.57 155.40 174.02 C 154.66 173.47 153.61 173.63 153.06 174.37 Z M 152.45 175.19 L 151.82 176.05 C 151.27 176.79 151.42 177.84 152.17 178.39 C 152.91 178.94 153.96 178.79 154.51 178.04 L 155.15 177.18 C 155.70 176.44 155.54 175.39 154.80 174.84 C 154.05 174.29 153.00 174.44 152.45 175.19 Z M 151.82 176.05 L 151.23 176.84 C 150.68 177.58 150.83 178.63 151.58 179.19 C 152.32 179.74 153.37 179.58 153.92 178.84 L 154.51 178.04 C 155.06 177.30 154.91 176.25 154.16 175.70 C 153.42 175.14 152.37 175.30 151.82 176.05 Z M 151.23 176.84 L 150.64 177.63 C 150.09 178.38 150.24 179.43 150.99 179.98 C 151.73 180.53 152.78 180.38 153.33 179.63 L 153.92 178.84 C 154.47 178.09 154.32 177.04 153.58 176.49 C 152.83 175.94 151.78 176.09 151.23 176.84 Z M 150.64 177.63 L 150.04 178.44 C 149.48 179.18 149.64 180.23 150.38 180.78 C 151.12 181.34 152.17 181.19 152.72 180.45 L 153.33 179.64 C 153.88 178.90 153.73 177.85 152.99 177.29 C 152.25 176.74 151.20 176.89 150.64 177.63 Z M 150.04 178.43 L 149.43 179.24 C 148.87 179.98 149.02 181.03 149.76 181.59 C 150.50 182.15 151.55 182.00 152.10 181.26 L 152.72 180.45 C 153.28 179.71 153.13 178.66 152.39 178.11 C 151.65 177.55 150.60 177.69 150.04 178.43 Z M 149.44 179.23 L 148.82 180.04 C 148.26 180.77 148.40 181.82 149.13 182.39 C 149.87 182.95 150.92 182.81 151.48 182.08 L 152.10 181.27 C 152.66 180.54 152.52 179.49 151.79 178.92 C 151.05 178.36 150.00 178.50 149.44 179.23 Z M 148.83 180.03 L 148.21 180.82 C 147.64 181.55 147.77 182.60 148.50 183.17 C 149.23 183.74 150.28 183.61 150.85 182.88 L 151.47 182.09 C 152.04 181.36 151.91 180.31 151.18 179.74 C 150.45 179.17 149.40 179.30 148.83 180.03 Z M 148.22 180.81 L 147.60 181.59 C 147.02 182.32 147.14 183.37 147.86 183.94 C 148.58 184.52 149.63 184.40 150.21 183.68 L 150.83 182.90 C 151.41 182.18 151.29 181.12 150.57 180.55 C 149.85 179.97 148.80 180.09 148.22 180.81 Z M 147.61 181.58 L 146.98 182.35 C 146.40 183.07 146.50 184.12 147.22 184.70 C 147.93 185.28 148.98 185.18 149.57 184.47 L 150.20 183.69 C 150.78 182.98 150.67 181.93 149.96 181.34 C 149.25 180.76 148.19 180.87 147.61 181.58 Z M 147.00 182.33 L 146.36 183.09 C 145.77 183.80 145.86 184.85 146.56 185.44 C 147.27 186.04 148.32 185.95 148.91 185.24 L 149.55 184.48 C 150.14 183.78 150.05 182.72 149.35 182.13 C 148.64 181.54 147.59 181.63 147.00 182.33 Z M 146.38 183.08 L 145.72 183.83 C 145.12 184.52 145.20 185.58 145.89 186.18 C 146.59 186.78 147.64 186.71 148.24 186.01 L 148.90 185.26 C 149.50 184.56 149.42 183.51 148.73 182.91 C 148.03 182.30 146.98 182.38 146.38 183.08 Z M 145.74 183.81 L 145.08 184.56 C 144.46 185.24 144.52 186.29 145.21 186.91 C 145.90 187.52 146.95 187.46 147.56 186.77 L 148.23 186.03 C 148.84 185.34 148.78 184.29 148.09 183.68 C 147.41 183.07 146.35 183.12 145.74 183.81 Z M 145.09 184.54 L 144.42 185.27 C 143.80 185.95 143.84 187.00 144.52 187.62 C 145.19 188.25 146.24 188.20 146.87 187.53 L 147.54 186.79 C 148.16 186.11 148.12 185.06 147.44 184.44 C 146.77 183.82 145.72 183.86 145.09 184.54 Z M 144.44 185.26 L 143.75 185.98 C 143.12 186.65 143.15 187.70 143.81 188.33 C 144.48 188.96 145.53 188.93 146.16 188.27 L 146.85 187.54 C 147.48 186.88 147.45 185.83 146.78 185.19 C 146.12 184.56 145.07 184.59 144.44 185.26 Z M 143.77 185.97 L 143.07 186.69 C 142.43 187.34 142.44 188.39 143.10 189.03 C 143.75 189.67 144.80 189.66 145.44 189.00 L 146.14 188.28 C 146.78 187.63 146.77 186.58 146.11 185.94 C 145.46 185.30 144.41 185.31 143.77 185.97 Z M 143.08 186.67 L 142.38 187.38 C 141.73 188.02 141.73 189.07 142.37 189.72 C 143.02 190.37 144.07 190.37 144.72 189.72 L 145.42 189.02 C 146.07 188.37 146.07 187.32 145.43 186.67 C 144.78 186.03 143.73 186.03 143.08 186.67 Z M 142.40 187.36 L 141.68 188.06 C 141.02 188.70 141.00 189.74 141.64 190.40 C 142.27 191.05 143.32 191.07 143.98 190.44 L 144.70 189.74 C 145.35 189.10 145.37 188.06 144.73 187.40 C 144.10 186.75 143.05 186.73 142.40 187.36 Z M 141.70 188.05 L 140.97 188.73 C 140.30 189.36 140.27 190.40 140.90 191.06 C 141.52 191.73 142.56 191.76 143.23 191.14 L 143.96 190.45 C 144.62 189.83 144.65 188.78 144.03 188.12 C 143.40 187.45 142.36 187.42 141.70 188.05 Z M 140.99 188.72 L 140.25 189.39 C 139.58 190.00 139.53 191.05 140.14 191.72 C 140.76 192.39 141.80 192.44 142.47 191.82 L 143.21 191.15 C 143.88 190.54 143.93 189.50 143.31 188.82 C 142.70 188.15 141.66 188.11 140.99 188.72 Z M 140.27 189.38 L 139.53 190.04 C 138.85 190.64 138.78 191.67 139.38 192.35 C 139.98 193.03 141.02 193.10 141.70 192.50 L 142.45 191.84 C 143.13 191.24 143.19 190.20 142.59 189.52 C 141.99 188.84 140.95 188.78 140.27 189.38 Z M 139.55 190.02 L 138.79 190.67 C 138.10 191.26 138.03 192.30 138.62 192.98 C 139.21 193.67 140.24 193.75 140.93 193.16 L 141.68 192.51 C 142.37 191.92 142.45 190.88 141.86 190.20 C 141.27 189.51 140.23 189.43 139.55 190.02 Z M 138.81 190.66 L 138.04 191.30 C 137.35 191.89 137.27 192.92 137.85 193.61 C 138.43 194.30 139.46 194.39 140.15 193.81 L 140.91 193.17 C 141.60 192.58 141.69 191.55 141.11 190.86 C 140.53 190.17 139.50 190.08 138.81 190.66 Z M 138.05 191.30 L 137.28 191.94 C 136.59 192.52 136.50 193.55 137.08 194.24 C 137.65 194.93 138.68 195.03 139.37 194.45 L 140.14 193.81 C 140.84 193.23 140.93 192.20 140.35 191.51 C 139.77 190.82 138.75 190.73 138.05 191.30 Z M 137.29 191.95 L 136.51 192.59 C 135.82 193.17 135.73 194.19 136.30 194.89 C 136.88 195.58 137.90 195.67 138.59 195.10 L 139.37 194.45 C 140.06 193.87 140.16 192.85 139.58 192.16 C 139.01 191.46 137.98 191.37 137.29 191.95 Z M 136.51 192.60 L 135.72 193.26 C 135.03 193.84 134.94 194.86 135.51 195.55 C 136.09 196.24 137.11 196.33 137.80 195.75 L 138.59 195.09 C 139.28 194.51 139.37 193.49 138.80 192.80 C 138.22 192.11 137.20 192.02 136.51 192.60 Z M 135.72 193.27 L 134.93 193.93 C 134.25 194.51 134.16 195.53 134.73 196.21 C 135.31 196.89 136.33 196.98 137.01 196.41 L 137.80 195.74 C 138.48 195.17 138.57 194.15 138.00 193.47 C 137.42 192.78 136.40 192.70 135.72 193.27 Z M 134.93 193.94 L 134.16 194.59 C 133.48 195.16 133.40 196.18 133.97 196.86 C 134.54 197.54 135.56 197.62 136.24 197.05 L 137.01 196.40 C 137.69 195.83 137.77 194.81 137.20 194.13 C 136.63 193.45 135.61 193.37 134.93 193.94 Z M 134.17 194.59 L 133.43 195.21 C 132.75 195.79 132.67 196.80 133.24 197.47 C 133.81 198.15 134.82 198.24 135.50 197.67 L 136.23 197.04 C 136.91 196.47 137.00 195.46 136.43 194.79 C 135.86 194.11 134.85 194.02 134.17 194.59 Z M 133.44 195.22 L 132.71 195.83 C 132.03 196.40 131.95 197.40 132.51 198.08 C 133.08 198.75 134.09 198.84 134.76 198.27 L 135.49 197.66 C 136.16 197.10 136.25 196.09 135.69 195.41 C 135.12 194.74 134.11 194.65 133.44 195.22 Z M 132.71 195.83 L 131.99 196.44 C 131.32 197.00 131.23 198.01 131.80 198.68 C 132.37 199.35 133.37 199.44 134.04 198.87 L 134.76 198.27 C 135.43 197.70 135.52 196.70 134.95 196.03 C 134.39 195.35 133.38 195.27 132.71 195.83 Z M 131.99 196.45 L 131.26 197.07 C 130.59 197.64 130.51 198.64 131.08 199.31 C 131.65 199.97 132.65 200.05 133.32 199.48 L 134.05 198.86 C 134.71 198.29 134.79 197.29 134.22 196.63 C 133.66 195.96 132.65 195.88 131.99 196.45 Z M 131.25 197.08 L 130.47 197.76 C 129.81 198.34 129.74 199.34 130.32 200.00 C 130.89 200.65 131.89 200.72 132.55 200.15 L 133.33 199.47 C 133.99 198.89 134.06 197.90 133.48 197.24 C 132.91 196.58 131.91 196.51 131.25 197.08 Z M 130.46 197.78 L 129.70 198.46 C 129.05 199.04 128.99 200.04 129.57 200.69 C 130.15 201.34 131.15 201.39 131.80 200.81 L 132.56 200.13 C 133.21 199.55 133.27 198.56 132.69 197.91 C 132.11 197.26 131.11 197.20 130.46 197.78 Z M 129.69 198.47 L 129.02 199.07 C 128.38 199.66 128.33 200.66 128.91 201.30 C 129.50 201.95 130.50 201.99 131.14 201.41 L 131.81 200.80 C 132.45 200.22 132.50 199.22 131.91 198.58 C 131.33 197.93 130.33 197.88 129.69 198.47 Z M 129.02 199.08 L 128.30 199.73 C 127.66 200.32 127.62 201.32 128.21 201.96 C 128.80 202.60 129.79 202.64 130.43 202.06 L 131.15 201.40 C 131.79 200.81 131.83 199.82 131.24 199.18 C 130.65 198.54 129.66 198.49 129.02 199.08 Z M 128.30 199.74 L 127.55 200.43 C 126.91 201.02 126.87 202.02 127.46 202.65 C 128.05 203.29 129.05 203.33 129.69 202.74 L 130.44 202.05 C 131.08 201.46 131.11 200.46 130.52 199.83 C 129.93 199.19 128.94 199.15 128.30 199.74 Z M 127.55 200.43 L 126.78 201.15 C 126.14 201.74 126.10 202.74 126.69 203.38 C 127.29 204.01 128.28 204.05 128.92 203.46 L 129.69 202.74 C 130.33 202.15 130.37 201.15 129.77 200.51 C 129.18 199.88 128.19 199.84 127.55 200.43 Z M 126.77 201.15 L 125.99 201.89 C 125.35 202.48 125.31 203.47 125.91 204.11 C 126.50 204.75 127.49 204.78 128.13 204.19 L 128.92 203.46 C 129.56 202.86 129.59 201.87 129.00 201.23 C 128.41 200.60 127.41 200.56 126.77 201.15 Z M 125.99 201.89 L 125.57 202.27 C 124.94 202.87 124.90 203.86 125.49 204.50 C 126.09 205.13 127.08 205.17 127.72 204.58 L 128.13 204.19 C 128.77 203.60 128.80 202.60 128.21 201.97 C 127.62 201.33 126.62 201.30 125.99 201.89 Z"
      fill="black"
      fill-rule="nonzero" /></svg>