<svg xmlns="http://www.w3.org/2000/svg" width="300" height="300" viewBox="0 0 300 300">
<path d="M 152.82 140.71 L 152.44 139.57 C 152.18 138.76 151.30 138.33 150.50 138.59 C 149.69 138.86 149.26 139.73 149.52 140.54 L 149.90 141.68 C 150.17 142.49 151.04 142.93 151.85 142.66 C 152.65 142.39 153.09 141.52 152.82 140.71 Z M 152.55 139.78 L 152.39 138.86 C 152.24 138.00 151.41 137.42 150.54 137.57 C 149.68 137.72 149.10 138.55 149.25 139.42 L 149.41 140.33 C 149.57 141.20 150.39 141.78 151.26 141.62 C 152.13 141.47 152.71 140.64 152.55 139.78 Z M 152.11 140.15 L 152.51 139.64 C 153.07 138.92 152.95 137.90 152.24 137.34 C 151.53 136.78 150.50 136.90 149.94 137.61 L 149.53 138.13 C 148.98 138.84 149.10 139.87 149.81 140.43 C 150.52 140.99 151.55 140.86 152.11 140.15 Z M 150.92 140.25 L 151.97 140.45 C 152.87 140.62 153.73 140.03 153.90 139.13 C 154.07 138.23 153.48 137.36 152.58 137.19 L 151.54 137.00 C 150.64 136.83 149.77 137.42 149.60 138.32 C 149.43 139.21 150.02 140.08 150.92 140.25 Z M 151.46 140.27 L 152.31 140.75 C 153.11 141.20 154.12 140.92 154.57 140.12 C 155.03 139.32 154.75 138.31 153.95 137.86 L 153.09 137.38 C 152.29 136.92 151.28 137.20 150.83 138.00 C 150.38 138.80 150.66 139.82 151.46 140.27 Z M 152.05 140.57 L 152.82 141.23 C 153.52 141.83 154.57 141.75 155.17 141.05 C 155.77 140.36 155.68 139.31 154.99 138.71 L 154.21 138.04 C 153.51 137.45 152.46 137.53 151.87 138.22 C 151.27 138.92 151.35 139.97 152.05 140.57 Z M 152.71 141.12 L 153.41 141.86 C 154.05 142.52 155.10 142.54 155.76 141.90 C 156.42 141.27 156.45 140.22 155.81 139.55 L 155.10 138.82 C 154.47 138.16 153.42 138.14 152.75 138.77 C 152.09 139.41 152.07 140.46 152.71 141.12 Z M 153.36 141.80 L 154.01 142.55 C 154.62 143.24 155.67 143.32 156.36 142.71 C 157.05 142.11 157.12 141.06 156.52 140.37 L 155.86 139.62 C 155.26 138.92 154.21 138.85 153.52 139.45 C 152.83 140.05 152.76 141.10 153.36 141.80 Z M 153.97 142.50 L 154.61 143.29 C 155.18 144.01 156.23 144.13 156.94 143.55 C 157.66 142.98 157.77 141.94 157.20 141.22 L 156.56 140.42 C 155.99 139.71 154.95 139.59 154.23 140.16 C 153.52 140.74 153.40 141.78 153.97 142.50 Z M 154.55 143.21 L 155.09 143.99 C 155.62 144.74 156.65 144.93 157.40 144.40 C 158.15 143.88 158.34 142.85 157.81 142.10 L 157.27 141.31 C 156.74 140.56 155.71 140.38 154.96 140.90 C 154.21 141.42 154.02 142.46 154.55 143.21 Z M 155.03 143.90 L 155.53 144.73 C 156.00 145.51 157.02 145.76 157.80 145.29 C 158.59 144.82 158.84 143.81 158.37 143.02 L 157.87 142.19 C 157.40 141.41 156.39 141.16 155.60 141.63 C 154.82 142.10 154.56 143.11 155.03 143.90 Z M 155.49 144.64 L 155.96 145.55 C 156.38 146.36 157.38 146.67 158.19 146.25 C 159.00 145.82 159.32 144.82 158.89 144.01 L 158.42 143.11 C 157.99 142.30 156.99 141.98 156.19 142.41 C 155.38 142.83 155.06 143.83 155.49 144.64 Z M 155.93 145.48 L 156.34 146.36 C 156.72 147.19 157.71 147.55 158.53 147.16 C 159.36 146.77 159.72 145.79 159.34 144.96 L 158.93 144.08 C 158.54 143.26 157.56 142.90 156.73 143.28 C 155.90 143.67 155.54 144.65 155.93 145.48 Z M 156.32 146.33 L 156.74 147.28 C 157.11 148.11 158.09 148.49 158.92 148.12 C 159.76 147.76 160.14 146.78 159.77 145.95 L 159.35 145.00 C 158.98 144.16 158.01 143.78 157.17 144.15 C 156.34 144.52 155.96 145.49 156.32 146.33 Z M 156.74 147.27 L 157.13 148.17 C 157.49 149.00 158.46 149.39 159.30 149.03 C 160.13 148.67 160.52 147.69 160.16 146.86 L 159.77 145.96 C 159.41 145.12 158.44 144.73 157.60 145.09 C 156.76 145.46 156.38 146.43 156.74 147.27 Z M 157.11 148.13 L 157.49 149.07 C 157.83 149.92 158.80 150.32 159.64 149.98 C 160.49 149.64 160.90 148.68 160.55 147.83 L 160.17 146.89 C 159.83 146.05 158.87 145.64 158.02 145.98 C 157.18 146.32 156.77 147.28 157.11 148.13 Z M 157.47 149.00 L 157.80 149.95 C 158.11 150.81 159.05 151.26 159.91 150.96 C 160.77 150.65 161.22 149.71 160.92 148.85 L 160.58 147.90 C 160.27 147.04 159.33 146.59 158.47 146.89 C 157.61 147.20 157.16 148.14 157.47 149.00 Z M 157.78 149.88 L 158.07 150.83 C 158.33 151.70 159.25 152.20 160.13 151.93 C 161.00 151.67 161.49 150.75 161.23 149.87 L 160.94 148.92 C 160.68 148.05 159.75 147.55 158.88 147.82 C 158.01 148.08 157.51 149.00 157.78 149.88 Z M 158.05 150.77 L 158.31 151.74 C 158.54 152.63 159.44 153.15 160.32 152.92 C 161.20 152.69 161.73 151.79 161.50 150.90 L 161.24 149.93 C 161.01 149.05 160.11 148.52 159.23 148.76 C 158.35 148.99 157.82 149.89 158.05 150.77 Z M 158.30 151.70 L 158.52 152.66 C 158.73 153.55 159.61 154.10 160.50 153.89 C 161.39 153.69 161.94 152.80 161.74 151.91 L 161.51 150.95 C 161.30 150.06 160.42 149.51 159.53 149.72 C 158.64 149.92 158.09 150.81 158.30 151.70 Z M 158.51 152.62 L 158.71 153.60 C 158.90 154.50 159.77 155.07 160.66 154.89 C 161.56 154.70 162.13 153.83 161.95 152.94 L 161.74 151.95 C 161.56 151.06 160.69 150.48 159.79 150.67 C 158.90 150.85 158.33 151.72 158.51 152.62 Z M 158.70 153.56 L 158.88 154.55 C 159.04 155.44 159.90 156.04 160.80 155.88 C 161.69 155.72 162.29 154.87 162.13 153.97 L 161.96 152.98 C 161.80 152.08 160.94 151.48 160.04 151.64 C 159.14 151.80 158.54 152.66 158.70 153.56 Z M 158.87 154.50 L 159.02 155.48 C 159.15 156.39 159.99 157.01 160.89 156.88 C 161.80 156.74 162.42 155.90 162.29 155.00 L 162.14 154.02 C 162.01 153.11 161.17 152.49 160.26 152.62 C 159.36 152.76 158.74 153.60 158.87 154.50 Z M 159.01 155.43 L 159.12 156.43 C 159.23 157.33 160.04 157.99 160.95 157.88 C 161.85 157.78 162.51 156.97 162.41 156.06 L 162.29 155.06 C 162.19 154.15 161.37 153.50 160.47 153.60 C 159.56 153.70 158.91 154.52 159.01 155.43 Z M 159.12 156.36 L 159.19 157.36 C 159.26 158.27 160.05 158.95 160.96 158.89 C 161.87 158.82 162.55 158.03 162.48 157.12 L 162.41 156.12 C 162.35 155.21 161.55 154.53 160.64 154.60 C 159.74 154.66 159.05 155.45 159.12 156.36 Z M 159.19 157.31 L 159.23 158.31 C 159.26 159.22 160.03 159.93 160.94 159.89 C 161.85 159.85 162.56 159.08 162.53 158.17 L 162.49 157.17 C 162.45 156.26 161.68 155.55 160.77 155.59 C 159.86 155.63 159.15 156.40 159.19 157.31 Z M 159.23 158.27 L 159.25 159.27 C 159.26 160.19 160.02 160.91 160.93 160.89 C 161.84 160.88 162.57 160.12 162.55 159.21 L 162.53 158.21 C 162.51 157.30 161.76 156.57 160.84 156.59 C 159.93 156.61 159.21 157.36 159.23 158.27 Z M 159.24 159.25 L 159.25 160.25 C 159.26 161.16 160.00 161.89 160.91 161.89 C 161.83 161.88 162.56 161.14 162.56 160.22 L 162.55 159.23 C 162.54 158.32 161.80 157.58 160.88 157.59 C 159.97 157.60 159.24 158.34 159.24 159.25 Z M 159.25 160.22 L 159.24 161.22 C 159.23 162.13 159.96 162.88 160.88 162.89 C 161.79 162.90 162.54 162.16 162.55 161.25 L 162.56 160.25 C 162.57 159.34 161.83 158.59 160.92 158.58 C 160.01 158.57 159.26 159.30 159.25 160.22 Z M 159.24 161.18 L 159.20 162.19 C 159.17 163.10 159.89 163.87 160.80 163.90 C 161.72 163.93 162.48 163.21 162.51 162.30 L 162.55 161.29 C 162.58 160.38 161.86 159.61 160.95 159.58 C 160.04 159.55 159.27 160.26 159.24 161.18 Z M 159.20 162.13 L 159.13 163.14 C 159.07 164.05 159.76 164.84 160.67 164.91 C 161.59 164.97 162.38 164.28 162.44 163.37 L 162.51 162.36 C 162.58 161.45 161.89 160.65 160.97 160.59 C 160.06 160.53 159.27 161.22 159.20 162.13 Z M 159.14 163.04 L 159.01 164.03 C 158.89 164.94 159.54 165.78 160.45 165.89 C 161.36 166.01 162.19 165.37 162.31 164.46 L 162.44 163.47 C 162.55 162.56 161.91 161.72 161.00 161.61 C 160.09 161.49 159.26 162.13 159.14 163.04 Z M 159.03 163.89 L 158.82 164.86 C 158.62 165.75 159.19 166.64 160.09 166.84 C 160.99 167.04 161.87 166.47 162.07 165.57 L 162.29 164.61 C 162.49 163.71 161.92 162.82 161.02 162.62 C 160.12 162.42 159.23 162.99 159.03 163.89 Z M 158.87 164.69 L 158.55 165.63 C 158.26 166.51 158.73 167.45 159.60 167.74 C 160.47 168.04 161.42 167.57 161.71 166.69 L 162.03 165.74 C 162.32 164.87 161.85 163.93 160.98 163.63 C 160.10 163.34 159.16 163.81 158.87 164.69 Z M 158.60 165.50 L 158.20 166.41 C 157.84 167.26 158.23 168.24 159.08 168.61 C 159.92 168.97 160.90 168.58 161.27 167.73 L 161.66 166.82 C 162.03 165.98 161.64 165.00 160.79 164.63 C 159.94 164.27 158.96 164.66 158.60 165.50 Z M 158.24 166.33 L 157.80 167.21 C 157.39 168.04 157.73 169.04 158.56 169.45 C 159.38 169.86 160.38 169.52 160.79 168.70 L 161.23 167.82 C 161.64 166.99 161.30 165.99 160.48 165.58 C 159.65 165.17 158.65 165.51 158.24 166.33 Z M 157.84 167.15 L 157.35 168.02 C 156.91 168.83 157.20 169.85 158.01 170.29 C 158.82 170.74 159.83 170.44 160.28 169.64 L 160.76 168.76 C 161.21 167.96 160.91 166.94 160.10 166.49 C 159.30 166.05 158.28 166.34 157.84 167.15 Z M 157.39 167.96 L 156.86 168.83 C 156.38 169.61 156.63 170.64 157.42 171.12 C 158.21 171.60 159.23 171.35 159.71 170.57 L 160.24 169.70 C 160.72 168.91 160.47 167.88 159.69 167.40 C 158.90 166.92 157.87 167.17 157.39 167.96 Z M 156.90 168.77 L 156.36 169.58 C 155.85 170.35 156.05 171.39 156.82 171.90 C 157.59 172.41 158.63 172.20 159.14 171.43 L 159.68 170.62 C 160.19 169.85 159.98 168.82 159.21 168.31 C 158.45 167.79 157.41 168.00 156.90 168.77 Z M 156.38 169.55 L 155.81 170.37 C 155.28 171.12 155.46 172.16 156.22 172.69 C 156.97 173.22 158.01 173.04 158.54 172.28 L 159.11 171.47 C 159.64 170.71 159.46 169.67 158.71 169.14 C 157.95 168.61 156.91 168.79 156.38 169.55 Z M 155.82 170.36 L 155.22 171.19 C 154.69 171.94 154.86 172.98 155.61 173.51 C 156.36 174.05 157.40 173.88 157.93 173.13 L 158.53 172.30 C 159.07 171.55 158.89 170.51 158.14 169.97 C 157.40 169.43 156.35 169.61 155.82 170.36 Z M 155.23 171.19 L 154.65 171.99 C 154.11 172.74 154.28 173.78 155.03 174.31 C 155.78 174.85 156.82 174.68 157.35 173.93 L 157.93 173.13 C 158.47 172.38 158.30 171.34 157.55 170.81 C 156.80 170.27 155.76 170.44 155.23 171.19 Z M 154.66 171.98 L 154.07 172.79 C 153.52 173.53 153.68 174.57 154.42 175.11 C 155.16 175.66 156.20 175.50 156.75 174.76 L 157.34 173.95 C 157.89 173.21 157.73 172.17 156.99 171.62 C 156.25 171.08 155.21 171.24 154.66 171.98 Z M 154.09 172.76 L 153.47 173.56 C 152.91 174.28 153.05 175.32 153.77 175.89 C 154.50 176.45 155.54 176.31 156.10 175.59 L 156.72 174.79 C 157.28 174.06 157.15 173.02 156.42 172.46 C 155.69 171.90 154.65 172.03 154.09 172.76 Z M 153.51 173.52 L 152.89 174.27 C 152.31 174.98 152.41 176.02 153.12 176.60 C 153.82 177.19 154.87 177.08 155.45 176.38 L 156.07 175.62 C 156.65 174.92 156.55 173.87 155.84 173.29 C 155.14 172.71 154.09 172.81 153.51 173.52 Z M 152.91 174.24 L 152.27 174.99 C 151.67 175.69 151.75 176.74 152.45 177.33 C 153.14 177.93 154.19 177.85 154.79 177.15 L 155.43 176.40 C 156.03 175.71 155.95 174.66 155.25 174.06 C 154.55 173.47 153.51 173.55 152.91 174.24 Z M 152.27 174.99 L 151.60 175.76 C 151.01 176.46 151.08 177.50 151.77 178.10 C 152.47 178.70 153.51 178.62 154.11 177.93 L 154.78 177.16 C 155.38 176.46 155.30 175.42 154.61 174.82 C 153.92 174.22 152.87 174.30 152.27 174.99 Z M 151.60 175.78 L 150.95 176.54 C 150.35 177.24 150.44 178.28 151.13 178.88 C 151.83 179.47 152.88 179.38 153.47 178.69 L 154.12 177.92 C 154.71 177.22 154.63 176.18 153.93 175.59 C 153.23 174.99 152.19 175.08 151.60 175.78 Z M 150.95 176.54 L 150.29 177.31 C 149.70 178.01 149.78 179.05 150.48 179.65 C 151.18 180.24 152.22 180.15 152.81 179.46 L 153.47 178.68 C 154.06 177.99 153.98 176.94 153.28 176.35 C 152.58 175.76 151.54 175.85 150.95 176.54 Z M 150.31 177.30 L 149.64 178.06 C 149.04 178.74 149.11 179.79 149.80 180.39 C 150.48 180.99 151.53 180.92 152.13 180.23 L 152.80 179.47 C 153.40 178.79 153.33 177.74 152.64 177.14 C 151.95 176.54 150.91 176.61 150.31 177.30 Z M 149.68 178.02 L 149.00 178.75 C 148.37 179.42 148.41 180.46 149.08 181.08 C 149.74 181.71 150.79 181.67 151.41 181.00 L 152.09 180.27 C 152.72 179.60 152.68 178.56 152.01 177.94 C 151.35 177.31 150.30 177.35 149.68 178.02 Z M 149.05 178.70 L 148.31 179.42 C 147.66 180.05 147.65 181.10 148.29 181.75 C 148.93 182.40 149.97 182.41 150.62 181.78 L 151.36 181.06 C 152.01 180.42 152.02 179.37 151.38 178.72 C 150.75 178.07 149.70 178.06 149.05 178.70 Z M 148.37 179.37 L 147.63 180.03 C 146.96 180.64 146.90 181.68 147.51 182.36 C 148.12 183.04 149.16 183.09 149.84 182.48 L 150.57 181.82 C 151.25 181.21 151.30 180.17 150.69 179.49 C 150.08 178.82 149.04 178.76 148.37 179.37 Z M 147.67 180.01 L 146.93 180.63 C 146.24 181.22 146.16 182.26 146.75 182.95 C 147.34 183.65 148.37 183.73 149.07 183.14 L 149.80 182.51 C 150.49 181.92 150.58 180.88 149.99 180.19 C 149.40 179.50 148.36 179.42 147.67 180.01 Z M 146.95 180.62 L 146.17 181.27 C 145.47 181.84 145.38 182.88 145.95 183.58 C 146.53 184.28 147.57 184.37 148.26 183.80 L 149.04 183.15 C 149.74 182.57 149.84 181.54 149.26 180.84 C 148.69 180.14 147.65 180.04 146.95 180.62 Z M 146.20 181.25 L 145.42 181.87 C 144.71 182.43 144.59 183.46 145.15 184.17 C 145.71 184.88 146.74 185.00 147.45 184.44 L 148.24 183.81 C 148.94 183.25 149.06 182.22 148.50 181.51 C 147.94 180.81 146.91 180.69 146.20 181.25 Z M 145.45 181.85 L 144.67 182.44 C 143.94 182.98 143.80 184.00 144.34 184.72 C 144.88 185.45 145.90 185.59 146.62 185.05 L 147.41 184.46 C 148.13 183.92 148.28 182.90 147.74 182.18 C 147.20 181.45 146.18 181.31 145.45 181.85 Z M 144.72 182.41 L 143.88 182.99 C 143.15 183.50 142.96 184.52 143.48 185.25 C 143.99 185.99 145.00 186.17 145.74 185.66 L 146.57 185.08 C 147.31 184.57 147.49 183.55 146.98 182.82 C 146.47 182.08 145.45 181.90 144.72 182.41 Z M 143.93 182.96 L 143.10 183.51 C 142.34 183.99 142.13 185.00 142.62 185.75 C 143.10 186.50 144.11 186.71 144.86 186.23 L 145.69 185.68 C 146.45 185.20 146.66 184.19 146.17 183.44 C 145.69 182.69 144.68 182.48 143.93 182.96 Z M 143.13 183.49 L 142.29 184.01 C 141.53 184.47 141.29 185.47 141.75 186.23 C 142.22 186.99 143.21 187.23 143.97 186.76 L 144.82 186.24 C 145.58 185.78 145.82 184.78 145.35 184.02 C 144.89 183.26 143.89 183.02 143.13 183.49 Z M 142.33 183.99 L 141.45 184.50 C 140.69 184.95 140.42 185.93 140.87 186.70 C 141.31 187.46 142.30 187.73 143.06 187.28 L 143.94 186.77 C 144.70 186.33 144.97 185.35 144.52 184.58 C 144.08 183.81 143.09 183.55 142.33 183.99 Z M 141.51 184.48 L 140.63 184.95 C 139.85 185.36 139.55 186.33 139.96 187.11 C 140.38 187.89 141.34 188.18 142.12 187.77 L 143.01 187.30 C 143.79 186.89 144.08 185.92 143.67 185.14 C 143.26 184.36 142.29 184.07 141.51 184.48 Z M 140.71 184.92 L 139.81 185.33 C 139.01 185.70 138.67 186.64 139.03 187.44 C 139.40 188.23 140.34 188.58 141.14 188.21 L 142.04 187.80 C 142.84 187.43 143.18 186.49 142.82 185.69 C 142.45 184.90 141.51 184.55 140.71 184.92 Z M 139.90 185.31 L 138.97 185.67 C 138.16 185.99 137.76 186.90 138.08 187.71 C 138.40 188.52 139.31 188.92 140.12 188.60 L 141.05 188.24 C 141.86 187.92 142.26 187.01 141.94 186.20 C 141.62 185.39 140.71 184.99 139.90 185.31 Z M 139.02 185.66 L 138.08 186.00 C 137.26 186.29 136.84 187.19 137.13 188.00 C 137.43 188.82 138.32 189.24 139.13 188.95 L 140.07 188.61 C 140.89 188.32 141.31 187.42 141.02 186.61 C 140.73 185.80 139.83 185.37 139.02 185.66 Z M 138.08 186.01 L 137.11 186.36 C 136.31 186.65 135.89 187.54 136.18 188.35 C 136.47 189.15 137.36 189.57 138.16 189.28 L 139.13 188.93 C 139.94 188.64 140.36 187.76 140.07 186.95 C 139.78 186.14 138.89 185.72 138.08 186.01 Z M 137.13 186.37 L 136.16 186.71 C 135.36 187.00 134.94 187.87 135.22 188.67 C 135.51 189.47 136.39 189.89 137.19 189.61 L 138.15 189.27 C 138.95 188.99 139.37 188.11 139.09 187.31 C 138.80 186.51 137.93 186.09 137.13 186.37 Z M 136.22 186.71 L 135.32 186.99 C 134.51 187.24 134.06 188.09 134.31 188.89 C 134.56 189.69 135.41 190.14 136.21 189.90 L 137.12 189.62 C 137.93 189.37 138.38 188.52 138.13 187.71 C 137.88 186.91 137.03 186.46 136.22 186.71 Z M 135.45 186.97 L 134.40 187.19 C 133.59 187.37 133.07 188.17 133.25 188.98 C 133.42 189.79 134.22 190.31 135.03 190.14 L 136.08 189.92 C 136.89 189.74 137.41 188.94 137.24 188.13 C 137.06 187.31 136.26 186.80 135.45 186.97 Z M 134.53 187.19 L 133.61 187.31 C 132.79 187.41 132.21 188.16 132.32 188.98 C 132.42 189.79 133.17 190.37 133.99 190.26 L 134.91 190.14 C 135.73 190.04 136.30 189.29 136.20 188.47 C 136.09 187.66 135.34 187.08 134.53 187.19 Z M 133.66 187.32 L 132.69 187.41 C 131.88 187.49 131.28 188.21 131.36 189.02 C 131.44 189.83 132.16 190.42 132.97 190.34 L 133.94 190.25 C 134.75 190.18 135.34 189.46 135.26 188.65 C 135.19 187.84 134.47 187.24 133.66 187.32 Z M 132.75 187.42 L 131.75 187.47 C 130.94 187.52 130.32 188.20 130.37 189.01 C 130.41 189.81 131.10 190.43 131.90 190.39 L 132.91 190.33 C 133.71 190.29 134.33 189.60 134.29 188.80 C 134.24 188.00 133.56 187.38 132.75 187.42 Z M 131.80 187.49 L 130.82 187.50 C 130.03 187.51 129.39 188.17 129.40 188.97 C 129.42 189.77 130.07 190.41 130.87 190.39 L 131.85 190.38 C 132.65 190.36 133.28 189.70 133.27 188.91 C 133.25 188.11 132.60 187.47 131.80 187.49 Z M 130.84 187.51 L 129.80 187.52 C 129.01 187.52 128.37 188.16 128.37 188.95 C 128.37 189.74 129.02 190.38 129.81 190.38 L 130.85 190.38 C 131.64 190.38 132.28 189.74 132.28 188.94 C 132.28 188.15 131.64 187.51 130.84 187.51 Z"
      fill="black"
      fill-rule="nonzero" /></svg>