<svg xmlns="http://www.w3.org/2000/svg" width="300" height="300" viewBox="0 0 300 300">
<path d="M 148.29 71.76 L 148.52 72.73 C 148.72 73.53 149.53 74.03 150.33 73.84 C 151.14 73.64 151.64 72.83 151.44 72.02 L 151.21 71.05 C 151.02 70.25 150.20 69.75 149.40 69.94 C 148.59 70.14 148.09 70.95 148.29 71.76 Z M 148.56 72.91 L 148.91 73.85 C 149.21 74.63 150.09 75.03 150.87 74.73 C 151.66 74.44 152.05 73.56 151.76 72.77 L 151.41 71.84 C 151.11 71.05 150.23 70.66 149.45 70.95 C 148.66 71.25 148.26 72.13 148.56 72.91 Z M 149.00 74.07 L 149.50 74.95 C 149.93 75.68 150.86 75.94 151.60 75.52 C 152.33 75.09 152.59 74.16 152.17 73.42 L 151.66 72.55 C 151.24 71.81 150.31 71.56 149.57 71.98 C 148.84 72.40 148.58 73.34 149.00 74.07 Z M 149.51 74.97 L 150.02 75.83 C 150.45 76.56 151.39 76.80 152.12 76.37 C 152.86 75.94 153.10 75.00 152.67 74.27 L 152.16 73.40 C 151.73 72.67 150.79 72.43 150.05 72.86 C 149.32 73.29 149.08 74.23 149.51 74.97 Z M 149.95 75.71 L 150.37 76.60 C 150.74 77.38 151.66 77.70 152.43 77.34 C 153.20 76.97 153.53 76.05 153.16 75.28 L 152.74 74.39 C 152.37 73.61 151.45 73.29 150.68 73.65 C 149.91 74.02 149.58 74.94 149.95 75.71 Z M 150.32 76.50 L 150.67 77.40 C 150.97 78.20 151.87 78.60 152.67 78.30 C 153.46 77.99 153.87 77.10 153.56 76.30 L 153.21 75.39 C 152.91 74.59 152.01 74.19 151.21 74.50 C 150.42 74.80 150.01 75.70 150.32 76.50 Z M 150.63 77.31 L 150.93 78.29 C 151.19 79.11 152.06 79.57 152.88 79.31 C 153.70 79.06 154.15 78.19 153.90 77.37 L 153.60 76.39 C 153.34 75.57 152.47 75.11 151.65 75.37 C 150.83 75.62 150.38 76.49 150.63 77.31 Z M 150.91 78.21 L 151.14 79.14 C 151.36 79.97 152.20 80.47 153.03 80.26 C 153.87 80.05 154.37 79.20 154.16 78.37 L 153.93 77.45 C 153.71 76.61 152.87 76.11 152.03 76.32 C 151.20 76.53 150.70 77.38 150.91 78.21 Z M 151.12 79.06 L 151.33 80.08 C 151.50 80.93 152.32 81.47 153.17 81.30 C 154.01 81.13 154.56 80.31 154.39 79.46 L 154.18 78.44 C 154.01 77.60 153.19 77.05 152.34 77.23 C 151.50 77.40 150.95 78.22 151.12 79.06 Z M 151.31 80.01 L 151.46 80.91 C 151.59 81.76 152.39 82.34 153.24 82.21 C 154.09 82.07 154.68 81.27 154.54 80.42 L 154.40 79.53 C 154.27 78.68 153.47 78.09 152.62 78.23 C 151.76 78.36 151.18 79.16 151.31 80.01 Z M 151.44 80.85 L 151.56 81.84 C 151.67 82.70 152.45 83.31 153.30 83.21 C 154.16 83.11 154.77 82.33 154.67 81.47 L 154.55 80.48 C 154.45 79.62 153.67 79.01 152.81 79.11 C 151.95 79.21 151.34 79.99 151.44 80.85 Z M 151.56 81.79 L 151.65 82.88 C 151.73 83.74 152.49 84.38 153.36 84.30 C 154.22 84.23 154.85 83.46 154.78 82.60 L 154.68 81.51 C 154.60 80.65 153.84 80.01 152.98 80.09 C 152.11 80.17 151.48 80.93 151.56 81.79 Z M 151.65 82.85 L 151.72 83.84 C 151.78 84.70 152.53 85.35 153.39 85.29 C 154.26 85.23 154.91 84.48 154.85 83.62 L 154.78 82.63 C 154.72 81.77 153.97 81.11 153.11 81.17 C 152.24 81.23 151.59 81.99 151.65 82.85 Z M 151.71 83.81 L 151.77 84.84 C 151.82 85.71 152.56 86.37 153.43 86.32 C 154.30 86.28 154.96 85.53 154.91 84.67 L 154.85 83.64 C 154.81 82.77 154.06 82.11 153.20 82.16 C 152.33 82.20 151.67 82.95 151.71 83.81 Z M 151.77 84.82 L 151.81 85.83 C 151.85 86.70 152.59 87.37 153.46 87.34 C 154.32 87.30 155.00 86.56 154.96 85.69 L 154.92 84.69 C 154.88 83.82 154.14 83.14 153.27 83.18 C 152.40 83.22 151.73 83.96 151.77 84.82 Z M 151.81 85.81 L 151.84 86.86 C 151.87 87.73 152.59 88.42 153.46 88.39 C 154.33 88.37 155.02 87.64 154.99 86.77 L 154.96 85.72 C 154.94 84.85 154.21 84.16 153.34 84.19 C 152.47 84.21 151.79 84.94 151.81 85.81 Z M 151.84 86.84 L 151.85 87.84 C 151.87 88.71 152.58 89.41 153.45 89.40 C 154.32 89.38 155.02 88.67 155.01 87.80 L 154.99 86.80 C 154.98 85.92 154.27 85.23 153.40 85.24 C 152.53 85.25 151.83 85.97 151.84 86.84 Z M 151.85 87.82 L 151.86 88.77 C 151.86 89.64 152.57 90.35 153.44 90.34 C 154.31 90.34 155.01 89.63 155.01 88.76 L 155.01 87.81 C 155.01 86.94 154.30 86.24 153.43 86.24 C 152.56 86.24 151.85 86.95 151.85 87.82 Z M 151.86 88.77 L 151.86 89.76 C 151.86 90.63 152.56 91.33 153.43 91.33 C 154.30 91.33 155.01 90.63 155.01 89.76 L 155.01 88.77 C 155.01 87.90 154.30 87.19 153.43 87.19 C 152.56 87.19 151.86 87.90 151.86 88.77 Z M 151.86 89.76 L 151.86 90.76 C 151.86 91.64 152.56 92.34 153.43 92.34 C 154.31 92.34 155.01 91.64 155.01 90.76 L 155.01 89.76 C 155.01 88.89 154.31 88.18 153.43 88.18 C 152.56 88.18 151.86 88.89 151.86 89.76 Z M 151.86 90.76 L 151.86 91.75 C 151.86 92.62 152.56 93.33 153.43 93.33 C 154.31 93.33 155.01 92.62 155.01 91.75 L 155.01 90.76 C 155.01 89.89 154.31 89.19 153.43 89.19 C 152.56 89.19 151.86 89.89 151.86 90.76 Z M 151.86 91.75 L 151.85 92.75 C 151.85 93.62 152.56 94.33 153.43 94.33 C 154.30 94.33 155.01 93.63 155.01 92.76 L 155.01 91.76 C 155.01 90.88 154.31 90.18 153.44 90.17 C 152.57 90.17 151.86 90.88 151.86 91.75 Z M 151.85 92.73 L 151.84 93.73 C 151.83 94.60 152.52 95.31 153.40 95.33 C 154.27 95.34 154.98 94.64 155.00 93.77 L 155.01 92.78 C 155.02 91.91 154.33 91.19 153.45 91.18 C 152.58 91.16 151.87 91.86 151.85 92.73 Z M 151.84 93.69 L 151.80 94.70 C 151.77 95.58 152.45 96.31 153.32 96.34 C 154.19 96.37 154.93 95.69 154.96 94.82 L 155.00 93.81 C 155.03 92.93 154.35 92.20 153.48 92.17 C 152.61 92.14 151.87 92.82 151.84 93.69 Z M 151.80 94.67 L 151.74 95.70 C 151.69 96.57 152.35 97.32 153.22 97.37 C 154.09 97.43 154.84 96.76 154.89 95.89 L 154.96 94.86 C 155.01 93.99 154.35 93.24 153.48 93.19 C 152.61 93.13 151.86 93.80 151.80 94.67 Z M 151.74 95.68 L 151.67 96.65 C 151.60 97.52 152.25 98.28 153.12 98.35 C 153.99 98.41 154.75 97.76 154.82 96.89 L 154.89 95.92 C 154.96 95.05 154.31 94.29 153.44 94.22 C 152.57 94.16 151.81 94.81 151.74 95.68 Z M 151.67 96.64 L 151.58 97.69 C 151.51 98.56 152.15 99.32 153.02 99.40 C 153.89 99.47 154.65 98.82 154.73 97.96 L 154.82 96.91 C 154.89 96.04 154.24 95.27 153.38 95.20 C 152.51 95.13 151.74 95.77 151.67 96.64 Z M 151.58 97.68 L 151.50 98.62 C 151.42 99.49 152.06 100.26 152.93 100.34 C 153.79 100.41 154.56 99.77 154.64 98.91 L 154.73 97.96 C 154.80 97.10 154.16 96.33 153.30 96.25 C 152.43 96.17 151.66 96.81 151.58 97.68 Z M 151.50 98.61 L 151.40 99.59 C 151.32 100.46 151.96 101.23 152.82 101.31 C 153.69 101.39 154.46 100.76 154.55 99.89 L 154.64 98.91 C 154.72 98.05 154.09 97.28 153.22 97.19 C 152.35 97.11 151.58 97.75 151.50 98.61 Z M 151.41 99.57 L 151.30 100.55 C 151.20 101.41 151.82 102.19 152.69 102.29 C 153.56 102.39 154.34 101.76 154.43 100.90 L 154.54 99.91 C 154.64 99.05 154.02 98.27 153.15 98.17 C 152.28 98.07 151.50 98.70 151.41 99.57 Z M 151.30 100.52 L 151.17 101.50 C 151.06 102.37 151.67 103.16 152.53 103.27 C 153.40 103.38 154.19 102.77 154.30 101.91 L 154.43 100.92 C 154.54 100.06 153.93 99.27 153.07 99.16 C 152.20 99.04 151.41 99.65 151.30 100.52 Z M 151.17 101.50 L 151.04 102.50 C 150.93 103.36 151.54 104.16 152.41 104.27 C 153.27 104.38 154.06 103.77 154.17 102.91 L 154.30 101.91 C 154.42 101.04 153.81 100.25 152.94 100.14 C 152.08 100.03 151.28 100.64 151.17 101.50 Z M 151.04 102.51 L 150.92 103.51 C 150.81 104.37 151.43 105.16 152.29 105.27 C 153.16 105.37 153.94 104.76 154.05 103.89 L 154.17 102.90 C 154.28 102.03 153.67 101.24 152.80 101.14 C 151.94 101.03 151.15 101.64 151.04 102.51 Z M 150.92 103.50 L 150.80 104.49 C 150.69 105.36 151.30 106.15 152.17 106.25 C 153.03 106.36 153.82 105.75 153.93 104.88 L 154.05 103.89 C 154.16 103.03 153.55 102.24 152.68 102.13 C 151.82 102.02 151.03 102.64 150.92 103.50 Z M 150.80 104.49 L 150.67 105.49 C 150.56 106.35 151.18 107.14 152.04 107.25 C 152.91 107.36 153.70 106.74 153.81 105.88 L 153.93 104.88 C 154.04 104.02 153.42 103.23 152.56 103.12 C 151.69 103.01 150.90 103.63 150.80 104.49 Z M 150.67 105.50 L 150.56 106.47 C 150.45 107.33 151.07 108.12 151.94 108.22 C 152.80 108.32 153.59 107.70 153.69 106.84 L 153.81 105.87 C 153.91 105.00 153.29 104.22 152.42 104.11 C 151.56 104.01 150.77 104.63 150.67 105.50 Z M 150.56 106.46 L 150.43 107.46 C 150.33 108.33 150.94 109.12 151.81 109.22 C 152.67 109.33 153.46 108.71 153.57 107.85 L 153.69 106.84 C 153.80 105.98 153.18 105.19 152.32 105.08 C 151.45 104.98 150.66 105.59 150.56 106.46 Z M 150.44 107.43 L 150.29 108.44 C 150.17 109.30 150.77 110.10 151.64 110.23 C 152.50 110.35 153.30 109.75 153.42 108.88 L 153.56 107.88 C 153.69 107.01 153.09 106.21 152.22 106.09 C 151.36 105.97 150.56 106.57 150.44 107.43 Z M 150.30 108.42 L 150.14 109.42 C 150.01 110.28 150.60 111.09 151.46 111.22 C 152.32 111.36 153.13 110.77 153.26 109.91 L 153.42 108.91 C 153.55 108.04 152.96 107.24 152.10 107.10 C 151.24 106.97 150.43 107.56 150.30 108.42 Z M 150.14 109.41 L 149.98 110.41 C 149.84 111.27 150.43 112.08 151.29 112.22 C 152.15 112.36 152.96 111.78 153.10 110.92 L 153.26 109.91 C 153.40 109.05 152.81 108.24 151.95 108.10 C 151.09 107.96 150.28 108.55 150.14 109.41 Z M 149.98 110.40 L 149.82 111.39 C 149.67 112.25 150.26 113.06 151.12 113.21 C 151.98 113.35 152.79 112.77 152.93 111.91 L 153.10 110.92 C 153.24 110.06 152.66 109.25 151.80 109.11 C 150.94 108.96 150.12 109.54 149.98 110.40 Z M 149.82 111.37 L 149.65 112.33 C 149.49 113.19 150.06 114.01 150.91 114.17 C 151.77 114.32 152.60 113.76 152.75 112.90 L 152.93 111.93 C 153.09 111.08 152.52 110.25 151.66 110.10 C 150.80 109.94 149.98 110.51 149.82 111.37 Z M 149.65 112.29 L 149.45 113.27 C 149.27 114.13 149.82 114.96 150.68 115.14 C 151.53 115.32 152.37 114.77 152.54 113.91 L 152.75 112.94 C 152.92 112.08 152.37 111.25 151.52 111.07 C 150.67 110.89 149.83 111.44 149.65 112.29 Z M 149.46 113.24 L 149.23 114.21 C 149.03 115.06 149.56 115.91 150.41 116.10 C 151.26 116.30 152.11 115.77 152.31 114.92 L 152.53 113.95 C 152.73 113.10 152.20 112.25 151.35 112.06 C 150.50 111.86 149.66 112.39 149.46 113.24 Z M 149.24 114.18 L 148.99 115.15 C 148.78 115.99 149.29 116.85 150.14 117.06 C 150.98 117.28 151.84 116.77 152.06 115.92 L 152.30 114.95 C 152.51 114.11 152.00 113.25 151.16 113.03 C 150.31 112.82 149.45 113.33 149.24 114.18 Z M 149.00 115.13 L 148.74 116.10 C 148.52 116.94 149.02 117.81 149.87 118.03 C 150.71 118.25 151.57 117.75 151.80 116.90 L 152.05 115.94 C 152.27 115.09 151.77 114.23 150.93 114.01 C 150.08 113.78 149.22 114.29 149.00 115.13 Z M 148.75 116.08 L 148.48 117.05 C 148.25 117.89 148.74 118.76 149.58 118.99 C 150.43 119.22 151.30 118.73 151.53 117.88 L 151.79 116.92 C 152.02 116.08 151.53 115.21 150.69 114.98 C 149.85 114.75 148.98 115.24 148.75 116.08 Z M 148.49 117.01 L 148.21 117.96 C 147.96 118.79 148.44 119.67 149.27 119.92 C 150.11 120.17 150.99 119.69 151.24 118.86 L 151.52 117.91 C 151.77 117.08 151.29 116.20 150.45 115.95 C 149.62 115.70 148.74 116.18 148.49 117.01 Z M 148.22 117.94 L 147.91 118.91 C 147.65 119.74 148.12 120.63 148.95 120.88 C 149.79 121.14 150.67 120.68 150.93 119.85 L 151.23 118.88 C 151.49 118.04 151.03 117.16 150.19 116.90 C 149.36 116.64 148.47 117.11 148.22 117.94 Z M 147.91 118.90 L 147.61 119.86 C 147.35 120.70 147.82 121.58 148.65 121.84 C 149.48 122.10 150.37 121.64 150.63 120.81 L 150.93 119.85 C 151.19 119.02 150.73 118.13 149.89 117.87 C 149.06 117.61 148.18 118.07 147.91 118.90 Z M 147.62 119.86 L 147.31 120.81 C 147.05 121.64 147.51 122.53 148.34 122.79 C 149.17 123.06 150.06 122.60 150.33 121.76 L 150.63 120.81 C 150.89 119.98 150.43 119.09 149.60 118.83 C 148.77 118.57 147.88 119.03 147.62 119.86 Z M 147.32 120.79 L 147.00 121.76 C 146.73 122.59 147.18 123.48 148.01 123.75 C 148.84 124.02 149.74 123.57 150.01 122.74 L 150.32 121.78 C 150.59 120.95 150.14 120.05 149.31 119.78 C 148.48 119.51 147.59 119.96 147.32 120.79 Z M 147.01 121.73 L 146.69 122.66 C 146.41 123.49 146.85 124.39 147.67 124.67 C 148.50 124.95 149.40 124.51 149.68 123.69 L 150.00 122.76 C 150.28 121.94 149.85 121.04 149.02 120.75 C 148.19 120.47 147.29 120.91 147.01 121.73 Z M 146.70 122.64 L 146.36 123.58 C 146.07 124.40 146.50 125.31 147.32 125.60 C 148.14 125.90 149.05 125.47 149.34 124.65 L 149.68 123.71 C 149.97 122.88 149.54 121.98 148.72 121.69 C 147.90 121.39 146.99 121.82 146.70 122.64 Z M 146.36 123.58 L 146.03 124.53 C 145.73 125.35 146.17 126.26 146.99 126.55 C 147.81 126.84 148.72 126.41 149.01 125.59 L 149.34 124.64 C 149.63 123.82 149.20 122.91 148.38 122.62 C 147.56 122.33 146.65 122.76 146.36 123.58 Z M 146.02 124.54 L 145.69 125.48 C 145.40 126.30 145.84 127.21 146.66 127.50 C 147.49 127.78 148.39 127.35 148.68 126.52 L 149.01 125.58 C 149.30 124.75 148.86 123.85 148.04 123.56 C 147.21 123.28 146.31 123.71 146.02 124.54 Z M 145.70 125.46 L 145.36 126.41 C 145.06 127.23 145.49 128.14 146.31 128.44 C 147.13 128.73 148.04 128.31 148.34 127.48 L 148.68 126.54 C 148.97 125.72 148.55 124.81 147.72 124.51 C 146.90 124.22 145.99 124.64 145.70 125.46 Z M 145.36 126.40 L 145.01 127.34 C 144.71 128.16 145.13 129.07 145.95 129.37 C 146.77 129.68 147.68 129.26 147.98 128.44 L 148.33 127.50 C 148.63 126.68 148.21 125.77 147.39 125.46 C 146.57 125.16 145.66 125.58 145.36 126.40 Z M 145.01 127.35 L 144.67 128.29 C 144.37 129.11 144.80 130.02 145.62 130.31 C 146.44 130.61 147.35 130.19 147.65 129.36 L 147.99 128.43 C 148.28 127.60 147.86 126.70 147.04 126.40 C 146.22 126.10 145.31 126.53 145.01 127.35 Z M 144.67 128.30 L 144.33 129.24 C 144.04 130.06 144.47 130.97 145.30 131.26 C 146.12 131.55 147.03 131.12 147.32 130.29 L 147.65 129.35 C 147.94 128.53 147.51 127.62 146.69 127.33 C 145.86 127.04 144.96 127.47 144.67 128.30 Z M 144.34 129.23 L 143.99 130.20 C 143.70 131.02 144.13 131.92 144.95 132.22 C 145.78 132.51 146.68 132.08 146.98 131.26 L 147.32 130.30 C 147.61 129.47 147.18 128.57 146.36 128.27 C 145.53 127.98 144.63 128.41 144.34 129.23 Z M 144.00 130.19 L 143.66 131.13 C 143.36 131.95 143.79 132.86 144.61 133.15 C 145.43 133.45 146.34 133.02 146.64 132.20 L 146.97 131.26 C 147.27 130.44 146.84 129.53 146.02 129.24 C 145.20 128.94 144.29 129.37 144.00 130.19 Z M 143.66 131.13 L 143.34 132.00 C 143.04 132.83 143.46 133.73 144.29 134.03 C 145.11 134.33 146.02 133.91 146.31 133.08 L 146.63 132.21 C 146.93 131.38 146.51 130.48 145.69 130.18 C 144.86 129.88 143.96 130.30 143.66 131.13 Z M 143.34 132.00 L 142.99 132.96 C 142.68 133.78 143.10 134.69 143.92 134.99 C 144.74 135.30 145.65 134.88 145.96 134.06 L 146.31 133.09 C 146.61 132.27 146.20 131.36 145.38 131.06 C 144.56 130.76 143.65 131.18 143.34 132.00 Z M 142.99 132.95 L 142.65 133.84 C 142.35 134.66 142.76 135.57 143.58 135.88 C 144.40 136.19 145.31 135.77 145.62 134.95 L 145.95 134.07 C 146.26 133.25 145.85 132.33 145.03 132.03 C 144.21 131.72 143.30 132.13 142.99 132.95 Z M 142.65 133.84 L 142.29 134.80 C 141.99 135.62 142.40 136.53 143.22 136.84 C 144.03 137.15 144.95 136.73 145.26 135.91 L 145.62 134.96 C 145.93 134.14 145.51 133.22 144.69 132.92 C 143.88 132.61 142.96 133.02 142.65 133.84 Z M 142.29 134.80 L 141.92 135.79 C 141.62 136.61 142.03 137.52 142.85 137.83 C 143.67 138.14 144.58 137.72 144.89 136.90 L 145.26 135.91 C 145.56 135.09 145.15 134.18 144.33 133.87 C 143.51 133.57 142.60 133.98 142.29 134.80 Z M 141.92 135.80 L 141.56 136.77 C 141.26 137.59 141.69 138.50 142.51 138.80 C 143.33 139.10 144.24 138.68 144.54 137.86 L 144.89 136.89 C 145.19 136.07 144.77 135.16 143.95 134.86 C 143.13 134.56 142.22 134.98 141.92 135.80 Z M 141.56 136.78 L 141.23 137.71 C 140.93 138.53 141.36 139.44 142.18 139.73 C 143.01 140.03 143.91 139.60 144.21 138.78 L 144.54 137.85 C 144.84 137.02 144.41 136.12 143.58 135.82 C 142.76 135.53 141.86 135.96 141.56 136.78 Z M 141.22 137.72 L 140.91 138.62 C 140.62 139.45 141.06 140.35 141.88 140.64 C 142.71 140.92 143.61 140.49 143.90 139.66 L 144.21 138.76 C 144.50 137.94 144.06 137.04 143.24 136.75 C 142.41 136.46 141.51 136.90 141.22 137.72 Z M 140.91 138.63 L 140.60 139.54 C 140.32 140.37 140.77 141.26 141.59 141.54 C 142.42 141.82 143.32 141.38 143.60 140.55 L 143.90 139.65 C 144.18 138.82 143.74 137.92 142.91 137.64 C 142.08 137.36 141.19 137.81 140.91 138.63 Z M 140.60 139.55 L 140.27 140.53 C 140.00 141.36 140.45 142.26 141.28 142.53 C 142.11 142.80 143.00 142.35 143.28 141.52 L 143.60 140.54 C 143.87 139.71 143.42 138.82 142.59 138.54 C 141.76 138.27 140.87 138.72 140.60 139.55 Z M 140.27 140.54 L 139.96 141.51 C 139.69 142.34 140.15 143.23 140.98 143.50 C 141.81 143.77 142.70 143.31 142.97 142.48 L 143.28 141.51 C 143.55 140.68 143.09 139.79 142.26 139.52 C 141.43 139.25 140.54 139.71 140.27 140.54 Z M 139.96 141.51 L 139.65 142.49 C 139.38 143.32 139.84 144.21 140.67 144.48 C 141.51 144.74 142.39 144.28 142.66 143.45 L 142.97 142.47 C 143.23 141.64 142.77 140.75 141.94 140.49 C 141.11 140.22 140.22 140.68 139.96 141.51 Z M 139.65 142.50 L 139.34 143.47 C 139.08 144.31 139.55 145.19 140.38 145.45 C 141.21 145.71 142.10 145.25 142.36 144.41 L 142.66 143.44 C 142.92 142.61 142.45 141.72 141.62 141.46 C 140.79 141.20 139.90 141.67 139.65 142.50 Z M 139.34 143.49 L 139.04 144.47 C 138.79 145.30 139.27 146.18 140.10 146.43 C 140.94 146.68 141.82 146.21 142.07 145.37 L 142.36 144.40 C 142.61 143.56 142.14 142.68 141.30 142.43 C 140.47 142.18 139.59 142.65 139.34 143.49 Z M 139.04 144.49 L 138.76 145.47 C 138.52 146.31 139.01 147.18 139.85 147.42 C 140.68 147.66 141.56 147.17 141.79 146.33 L 142.07 145.35 C 142.31 144.51 141.83 143.64 140.99 143.40 C 140.15 143.17 139.28 143.65 139.04 144.49 Z M 138.76 145.49 L 138.51 146.41 C 138.28 147.25 138.78 148.11 139.62 148.34 C 140.46 148.57 141.32 148.07 141.55 147.23 L 141.80 146.31 C 142.02 145.47 141.53 144.61 140.69 144.38 C 139.85 144.15 138.98 144.65 138.76 145.49 Z M 138.51 146.42 L 138.25 147.40 C 138.03 148.24 138.53 149.10 139.37 149.32 C 140.21 149.54 141.07 149.04 141.29 148.20 L 141.55 147.22 C 141.77 146.38 141.27 145.52 140.43 145.30 C 139.59 145.08 138.73 145.58 138.51 146.42 Z M 138.25 147.40 L 138.00 148.40 C 137.78 149.24 138.28 150.09 139.12 150.31 C 139.96 150.53 140.82 150.02 141.04 149.18 L 141.29 148.19 C 141.51 147.35 141.01 146.49 140.17 146.28 C 139.33 146.06 138.47 146.56 138.25 147.40 Z M 137.99 148.40 L 137.75 149.35 C 137.54 150.19 138.05 151.04 138.89 151.26 C 139.73 151.47 140.59 150.96 140.80 150.12 L 141.04 149.17 C 141.25 148.33 140.74 147.48 139.90 147.27 C 139.06 147.05 138.21 147.56 137.99 148.40 Z M 137.75 149.36 L 137.51 150.36 C 137.30 151.20 137.82 152.05 138.66 152.26 C 139.50 152.46 140.35 151.95 140.56 151.11 L 140.80 150.11 C 141.01 149.27 140.49 148.42 139.65 148.21 C 138.81 148.01 137.96 148.52 137.75 149.36 Z M 137.51 150.38 L 137.29 151.28 C 137.10 152.13 137.62 152.97 138.46 153.17 C 139.30 153.37 140.15 152.84 140.35 152.00 L 140.56 151.09 C 140.76 150.25 140.23 149.41 139.39 149.21 C 138.55 149.01 137.70 149.53 137.51 150.38 Z M 137.29 151.29 L 137.07 152.26 C 136.88 153.10 137.41 153.94 138.25 154.13 C 139.09 154.33 139.93 153.80 140.13 152.96 L 140.35 151.99 C 140.54 151.15 140.01 150.31 139.17 150.12 C 138.33 149.92 137.49 150.45 137.29 151.29 Z M 137.07 152.26 L 136.85 153.26 C 136.66 154.10 137.18 154.94 138.03 155.13 C 138.87 155.32 139.71 154.79 139.90 153.95 L 140.12 152.96 C 140.32 152.11 139.79 151.27 138.95 151.08 C 138.10 150.89 137.27 151.42 137.07 152.26 Z M 136.85 153.25 L 136.62 154.24 C 136.43 155.08 136.96 155.92 137.80 156.11 C 138.64 156.31 139.48 155.78 139.67 154.94 L 139.90 153.95 C 140.09 153.11 139.56 152.27 138.72 152.08 C 137.88 151.89 137.04 152.41 136.85 153.25 Z M 136.62 154.23 L 136.40 155.22 C 136.20 156.06 136.72 156.90 137.56 157.10 C 138.40 157.29 139.24 156.77 139.44 155.93 L 139.67 154.94 C 139.86 154.10 139.34 153.26 138.50 153.07 C 137.66 152.87 136.82 153.39 136.62 154.23 Z M 136.40 155.22 L 136.17 156.17 C 135.97 157.01 136.49 157.85 137.33 158.05 C 138.17 158.25 139.01 157.73 139.21 156.89 L 139.44 155.93 C 139.63 155.09 139.11 154.25 138.27 154.05 C 137.43 153.86 136.59 154.38 136.40 155.22 Z M 136.17 156.18 L 135.95 157.15 C 135.75 157.99 136.28 158.83 137.12 159.02 C 137.96 159.21 138.79 158.69 138.99 157.85 L 139.21 156.88 C 139.41 156.04 138.88 155.20 138.04 155.01 C 137.20 154.82 136.36 155.34 136.17 156.18 Z M 135.95 157.15 L 135.73 158.11 C 135.53 158.95 136.06 159.79 136.90 159.98 C 137.74 160.18 138.57 159.65 138.77 158.81 L 138.99 157.85 C 139.18 157.01 138.66 156.17 137.82 155.98 C 136.98 155.79 136.14 156.31 135.95 157.15 Z M 135.73 158.10 L 135.51 159.01 C 135.32 159.85 135.83 160.69 136.67 160.89 C 137.51 161.08 138.35 160.57 138.55 159.73 L 138.76 158.82 C 138.96 157.98 138.44 157.14 137.61 156.94 C 136.77 156.75 135.93 157.26 135.73 158.10 Z M 135.52 158.99 L 135.26 160.03 C 135.05 160.86 135.56 161.71 136.40 161.92 C 137.23 162.13 138.08 161.62 138.29 160.78 L 138.54 159.75 C 138.75 158.91 138.24 158.06 137.41 157.85 C 136.57 157.65 135.73 158.16 135.52 158.99 Z M 135.26 160.01 L 135.01 161.00 C 134.79 161.83 135.29 162.68 136.12 162.90 C 136.96 163.12 137.81 162.62 138.03 161.78 L 138.28 160.80 C 138.50 159.97 138.00 159.11 137.16 158.90 C 136.33 158.68 135.48 159.18 135.26 160.01 Z M 135.01 160.99 L 134.75 161.97 C 134.52 162.80 135.02 163.66 135.85 163.88 C 136.68 164.10 137.53 163.61 137.76 162.78 L 138.02 161.80 C 138.25 160.97 137.75 160.11 136.92 159.89 C 136.09 159.66 135.24 160.16 135.01 160.99 Z M 134.75 161.95 L 134.47 162.95 C 134.23 163.78 134.71 164.64 135.54 164.88 C 136.36 165.12 137.23 164.64 137.46 163.81 L 137.75 162.80 C 137.99 161.98 137.51 161.11 136.68 160.88 C 135.85 160.64 134.99 161.12 134.75 161.95 Z M 134.49 162.89 L 134.19 163.79 C 133.92 164.60 134.36 165.48 135.18 165.75 C 136.00 166.02 136.88 165.58 137.15 164.76 L 137.44 163.87 C 137.71 163.05 137.27 162.17 136.45 161.90 C 135.64 161.63 134.76 162.08 134.49 162.89 Z M 134.22 163.71 L 133.88 164.58 C 133.57 165.38 133.97 166.28 134.77 166.59 C 135.57 166.90 136.47 166.51 136.79 165.70 L 137.12 164.84 C 137.43 164.04 137.03 163.13 136.23 162.82 C 135.43 162.51 134.53 162.91 134.22 163.71 Z M 133.91 164.51 L 133.49 165.45 C 133.14 166.24 133.49 167.16 134.28 167.51 C 135.06 167.86 135.98 167.51 136.33 166.72 L 136.76 165.78 C 137.11 164.99 136.75 164.07 135.97 163.72 C 135.18 163.37 134.26 163.72 133.91 164.51 Z M 133.52 165.39 L 133.08 166.27 C 132.69 167.04 133.00 167.97 133.76 168.36 C 134.53 168.75 135.47 168.44 135.85 167.67 L 136.30 166.79 C 136.69 166.02 136.38 165.08 135.61 164.70 C 134.85 164.31 133.91 164.62 133.52 165.39 Z M 133.10 166.22 L 132.61 167.11 C 132.20 167.86 132.48 168.81 133.23 169.22 C 133.99 169.64 134.93 169.36 135.35 168.60 L 135.83 167.72 C 136.24 166.96 135.97 166.02 135.21 165.61 C 134.46 165.19 133.51 165.47 133.10 166.22 Z M 132.63 167.08 L 132.11 167.98 C 131.68 168.73 131.94 169.68 132.68 170.11 C 133.43 170.54 134.38 170.28 134.81 169.54 L 135.33 168.63 C 135.76 167.89 135.50 166.94 134.76 166.51 C 134.01 166.08 133.06 166.34 132.63 167.08 Z M 132.12 167.97 L 131.59 168.86 C 131.15 169.60 131.40 170.55 132.14 170.99 C 132.88 171.43 133.83 171.19 134.27 170.45 L 134.80 169.55 C 135.24 168.82 134.99 167.86 134.25 167.42 C 133.51 166.98 132.56 167.23 132.12 167.97 Z M 131.59 168.86 L 131.11 169.68 C 130.67 170.42 130.92 171.38 131.66 171.81 C 132.40 172.25 133.36 172.00 133.79 171.26 L 134.27 170.44 C 134.71 169.70 134.46 168.75 133.72 168.31 C 132.98 167.88 132.03 168.12 131.59 168.86 Z M 131.09 169.71 L 130.59 170.61 C 130.17 171.37 130.44 172.31 131.20 172.73 C 131.95 173.15 132.89 172.88 133.31 172.12 L 133.81 171.22 C 134.23 170.47 133.96 169.53 133.21 169.11 C 132.45 168.69 131.51 168.96 131.09 169.71 Z M 130.57 170.66 L 130.13 171.52 C 129.74 172.28 130.04 173.22 130.81 173.61 C 131.57 174.00 132.51 173.70 132.90 172.93 L 133.34 172.08 C 133.73 171.31 133.42 170.38 132.66 169.98 C 131.89 169.59 130.96 169.90 130.57 170.66 Z M 130.11 171.55 L 129.69 172.44 C 129.32 173.21 129.64 174.14 130.42 174.51 C 131.19 174.88 132.12 174.56 132.49 173.78 L 132.92 172.90 C 133.29 172.12 132.96 171.19 132.19 170.82 C 131.41 170.45 130.48 170.78 130.11 171.55 Z M 129.67 172.47 L 129.25 173.40 C 128.90 174.19 129.25 175.11 130.04 175.46 C 130.82 175.81 131.74 175.46 132.09 174.67 L 132.51 173.74 C 132.86 172.96 132.51 172.04 131.72 171.69 C 130.94 171.34 130.02 171.69 129.67 172.47 Z M 129.24 173.44 L 128.86 174.35 C 128.53 175.15 128.91 176.06 129.70 176.39 C 130.49 176.72 131.40 176.34 131.73 175.55 L 132.11 174.64 C 132.44 173.84 132.06 172.93 131.27 172.60 C 130.48 172.27 129.57 172.65 129.24 173.44 Z M 128.85 174.37 L 128.48 175.31 C 128.16 176.11 128.55 177.01 129.34 177.33 C 130.14 177.65 131.05 177.26 131.37 176.46 L 131.74 175.53 C 132.06 174.73 131.67 173.82 130.87 173.50 C 130.08 173.18 129.17 173.57 128.85 174.37 Z M 128.47 175.32 L 128.14 176.17 C 127.82 176.96 128.22 177.87 129.01 178.18 C 129.81 178.50 130.72 178.11 131.03 177.31 L 131.37 176.46 C 131.68 175.66 131.29 174.76 130.49 174.44 C 129.69 174.12 128.79 174.52 128.47 175.32 Z M 128.14 176.17 L 127.76 177.13 C 127.45 177.93 127.85 178.84 128.65 179.15 C 129.45 179.46 130.35 179.06 130.66 178.26 L 131.04 177.30 C 131.35 176.50 130.95 175.60 130.15 175.29 C 129.35 174.97 128.45 175.37 128.14 176.17 Z M 127.76 177.14 L 127.38 178.11 C 127.08 178.91 127.48 179.81 128.28 180.12 C 129.08 180.43 129.98 180.03 130.29 179.23 L 130.67 178.26 C 130.97 177.45 130.57 176.55 129.77 176.24 C 128.97 175.93 128.07 176.33 127.76 177.14 Z M 127.38 178.11 L 127.02 179.06 C 126.71 179.87 127.11 180.77 127.92 181.07 C 128.72 181.38 129.62 180.98 129.93 180.18 L 130.29 179.23 C 130.60 178.42 130.20 177.52 129.39 177.21 C 128.59 176.91 127.69 177.31 127.38 178.11 Z M 127.02 179.06 L 126.65 180.02 C 126.34 180.82 126.74 181.72 127.55 182.03 C 128.35 182.34 129.25 181.94 129.56 181.14 L 129.93 180.18 C 130.24 179.37 129.84 178.47 129.03 178.16 C 128.23 177.85 127.33 178.26 127.02 179.06 Z M 126.65 180.01 L 126.28 180.96 C 125.97 181.76 126.36 182.67 127.17 182.98 C 127.97 183.29 128.87 182.90 129.19 182.10 L 129.56 181.14 C 129.87 180.34 129.48 179.44 128.67 179.12 C 127.87 178.81 126.97 179.21 126.65 180.01 Z M 126.29 180.95 L 125.90 181.91 C 125.58 182.71 125.97 183.61 126.77 183.94 C 127.56 184.26 128.47 183.87 128.79 183.07 L 129.18 182.11 C 129.50 181.31 129.11 180.40 128.32 180.08 C 127.52 179.76 126.61 180.15 126.29 180.95 Z M 125.91 181.89 L 125.54 182.77 C 125.21 183.56 125.59 184.47 126.39 184.80 C 127.18 185.13 128.09 184.76 128.43 183.96 L 128.79 183.09 C 129.12 182.29 128.74 181.38 127.95 181.05 C 127.15 180.72 126.24 181.09 125.91 181.89 Z M 125.55 182.75 L 125.16 183.66 C 124.82 184.45 125.19 185.37 125.98 185.71 C 126.78 186.05 127.69 185.68 128.03 184.89 L 128.42 183.98 C 128.76 183.18 128.39 182.27 127.60 181.93 C 126.80 181.59 125.89 181.96 125.55 182.75 Z M 125.17 183.64 L 124.76 184.56 C 124.41 185.35 124.77 186.27 125.56 186.62 C 126.35 186.97 127.27 186.62 127.62 185.83 L 128.02 184.90 C 128.37 184.12 128.02 183.19 127.23 182.84 C 126.44 182.50 125.52 182.85 125.17 183.64 Z M 124.77 184.53 L 124.36 185.41 C 123.99 186.19 124.33 187.13 125.11 187.49 C 125.89 187.86 126.82 187.52 127.19 186.74 L 127.60 185.86 C 127.97 185.08 127.63 184.15 126.85 183.78 C 126.07 183.41 125.14 183.75 124.77 184.53 Z M 124.38 185.36 L 123.94 186.22 C 123.55 186.99 123.85 187.93 124.62 188.33 C 125.39 188.72 126.33 188.42 126.72 187.65 L 127.16 186.79 C 127.56 186.02 127.26 185.08 126.49 184.69 C 125.72 184.29 124.78 184.60 124.38 185.36 Z M 123.97 186.16 L 123.47 187.06 C 123.04 187.81 123.30 188.76 124.05 189.19 C 124.80 189.62 125.75 189.35 126.18 188.60 L 126.69 187.71 C 127.12 186.96 126.86 186.01 126.11 185.58 C 125.36 185.15 124.40 185.41 123.97 186.16 Z M 123.49 187.01 L 122.97 187.85 C 122.52 188.59 122.75 189.55 123.48 190.01 C 124.22 190.46 125.18 190.23 125.63 189.50 L 126.15 188.65 C 126.61 187.92 126.38 186.95 125.64 186.50 C 124.91 186.05 123.95 186.27 123.49 187.01 Z M 122.99 187.82 L 122.43 188.68 C 121.96 189.41 122.17 190.38 122.89 190.85 C 123.62 191.32 124.59 191.11 125.06 190.39 L 125.61 189.53 C 126.08 188.80 125.88 187.83 125.15 187.36 C 124.43 186.89 123.46 187.10 122.99 187.82 Z M 122.45 188.66 L 121.88 189.49 C 121.40 190.21 121.59 191.18 122.31 191.67 C 123.02 192.15 124.00 191.96 124.48 191.24 L 125.04 190.41 C 125.52 189.69 125.34 188.72 124.62 188.24 C 123.90 187.75 122.93 187.94 122.45 188.66 Z M 121.90 189.47 L 121.30 190.32 C 120.80 191.03 120.97 192.00 121.68 192.50 C 122.39 193.00 123.36 192.83 123.86 192.12 L 124.46 191.27 C 124.96 190.56 124.79 189.59 124.08 189.09 C 123.38 188.59 122.40 188.76 121.90 189.47 Z M 121.32 190.29 L 120.75 191.06 C 120.24 191.76 120.39 192.74 121.08 193.25 C 121.78 193.77 122.76 193.62 123.27 192.92 L 123.84 192.15 C 124.35 191.46 124.21 190.48 123.51 189.96 C 122.82 189.45 121.84 189.60 121.32 190.29 Z M 120.77 191.04 L 120.22 191.76 C 119.69 192.45 119.82 193.43 120.51 193.96 C 121.20 194.48 122.18 194.35 122.71 193.66 L 123.26 192.94 C 123.78 192.26 123.65 191.27 122.96 190.75 C 122.27 190.22 121.29 190.36 120.77 191.04 Z M 120.21 191.77 L 119.62 192.55 C 119.10 193.24 119.24 194.22 119.93 194.74 C 120.62 195.26 121.61 195.13 122.13 194.43 L 122.71 193.66 C 123.23 192.96 123.10 191.98 122.40 191.46 C 121.71 190.94 120.73 191.08 120.21 191.77 Z M 119.60 192.58 L 118.97 193.47 C 118.46 194.17 118.63 195.15 119.33 195.65 C 120.04 196.16 121.02 195.99 121.52 195.29 L 122.15 194.40 C 122.66 193.70 122.49 192.72 121.79 192.21 C 121.08 191.71 120.10 191.87 119.60 192.58 Z M 118.94 193.50 L 118.39 194.31 C 117.91 195.03 118.10 196.01 118.82 196.49 C 119.53 196.98 120.51 196.79 120.99 196.07 L 121.55 195.25 C 122.03 194.54 121.84 193.56 121.12 193.08 C 120.41 192.59 119.43 192.78 118.94 193.50 Z M 118.38 194.33 L 117.81 195.20 C 117.34 195.93 117.55 196.90 118.27 197.37 C 119.00 197.85 119.97 197.64 120.45 196.91 L 121.01 196.05 C 121.48 195.32 121.28 194.35 120.55 193.88 C 119.82 193.40 118.85 193.61 118.38 194.33 Z M 117.80 195.22 L 117.26 196.08 C 116.80 196.81 117.02 197.78 117.76 198.24 C 118.49 198.70 119.46 198.48 119.92 197.75 L 120.46 196.89 C 120.92 196.16 120.70 195.19 119.96 194.73 C 119.23 194.27 118.26 194.49 117.80 195.22 Z M 117.25 196.10 L 116.73 196.96 C 116.28 197.71 116.52 198.67 117.27 199.12 C 118.01 199.56 118.97 199.32 119.42 198.58 L 119.94 197.72 C 120.38 196.98 120.14 196.01 119.40 195.57 C 118.66 195.12 117.69 195.36 117.25 196.10 Z M 116.71 197.00 L 116.24 197.83 C 115.81 198.59 116.07 199.54 116.83 199.97 C 117.58 200.40 118.54 200.14 118.97 199.38 L 119.44 198.55 C 119.87 197.79 119.61 196.84 118.85 196.41 C 118.10 195.98 117.14 196.24 116.71 197.00 Z M 116.22 197.86 L 115.74 198.74 C 115.33 199.51 115.62 200.46 116.38 200.87 C 117.14 201.28 118.09 201.00 118.51 200.24 L 118.98 199.35 C 119.39 198.59 119.11 197.64 118.35 197.23 C 117.58 196.82 116.63 197.10 116.22 197.86 Z M 115.73 198.76 L 115.26 199.67 C 114.86 200.44 115.15 201.39 115.92 201.79 C 116.69 202.19 117.64 201.89 118.04 201.13 L 118.51 200.22 C 118.92 199.45 118.62 198.50 117.85 198.10 C 117.08 197.70 116.14 197.99 115.73 198.76 Z M 115.25 199.68 L 114.77 200.61 C 114.38 201.38 114.68 202.33 115.45 202.73 C 116.22 203.12 117.17 202.82 117.56 202.05 L 118.05 201.12 C 118.44 200.34 118.14 199.40 117.37 199.00 C 116.60 198.61 115.65 198.91 115.25 199.68 Z M 114.77 200.62 L 114.31 201.53 C 113.92 202.31 114.23 203.25 115.00 203.64 C 115.77 204.03 116.72 203.72 117.11 202.95 L 117.57 202.04 C 117.96 201.27 117.65 200.32 116.88 199.93 C 116.10 199.54 115.16 199.85 114.77 200.62 Z M 114.30 201.54 L 113.87 202.42 C 113.48 203.19 113.80 204.14 114.58 204.52 C 115.35 204.91 116.30 204.59 116.68 203.81 L 117.11 202.94 C 117.50 202.16 117.18 201.22 116.41 200.84 C 115.63 200.45 114.69 200.77 114.30 201.54 Z M 113.86 202.44 L 113.41 203.37 C 113.03 204.16 113.36 205.09 114.14 205.47 C 114.92 205.84 115.86 205.52 116.24 204.73 L 116.69 203.80 C 117.06 203.01 116.74 202.08 115.96 201.70 C 115.17 201.33 114.24 201.65 113.86 202.44 Z M 113.41 203.37 L 113.01 204.20 C 112.63 204.98 112.96 205.91 113.74 206.29 C 114.52 206.67 115.46 206.34 115.84 205.56 L 116.24 204.74 C 116.61 203.96 116.29 203.02 115.51 202.64 C 114.73 202.26 113.79 202.59 113.41 203.37 Z M 113.03 204.17 L 112.58 205.05 C 112.18 205.82 112.49 206.77 113.26 207.16 C 114.04 207.55 114.98 207.25 115.37 206.47 L 115.82 205.59 C 116.22 204.82 115.91 203.87 115.14 203.48 C 114.36 203.09 113.42 203.40 113.03 204.17 Z M 112.58 205.04 L 112.11 205.95 C 111.71 206.72 112.01 207.67 112.78 208.07 C 113.54 208.47 114.49 208.17 114.89 207.40 L 115.37 206.49 C 115.77 205.72 115.47 204.77 114.70 204.37 C 113.93 203.97 112.98 204.27 112.58 205.04 Z M 112.11 205.95 L 111.63 206.88 C 111.23 207.65 111.53 208.59 112.30 208.99 C 113.07 209.39 114.02 209.09 114.42 208.32 L 114.89 207.40 C 115.29 206.63 114.99 205.68 114.22 205.28 C 113.45 204.88 112.51 205.18 112.11 205.95 Z M 111.63 206.88 L 111.19 207.74 C 110.79 208.51 111.09 209.45 111.86 209.85 C 112.63 210.25 113.58 209.94 113.97 209.17 L 114.42 208.32 C 114.81 207.55 114.51 206.60 113.74 206.21 C 112.97 205.81 112.03 206.11 111.63 206.88 Z M 111.20 207.70 L 110.74 208.55 C 110.33 209.31 110.61 210.26 111.37 210.68 C 112.13 211.09 113.08 210.81 113.49 210.05 L 113.96 209.21 C 114.37 208.45 114.09 207.49 113.33 207.08 C 112.57 206.66 111.62 206.94 111.20 207.70 Z M 110.75 208.54 L 110.26 209.41 C 109.84 210.17 110.11 211.12 110.87 211.54 C 111.62 211.97 112.58 211.70 113.00 210.94 L 113.49 210.07 C 113.91 209.31 113.64 208.36 112.88 207.93 C 112.13 207.51 111.17 207.78 110.75 208.54 Z M 110.25 209.42 L 109.82 210.21 C 109.41 210.97 109.68 211.92 110.44 212.34 C 111.20 212.76 112.16 212.48 112.57 211.72 L 113.01 210.93 C 113.42 210.17 113.14 209.22 112.38 208.80 C 111.63 208.38 110.67 208.66 110.25 209.42 Z M 109.84 210.18 L 109.29 211.13 C 108.86 211.88 109.12 212.84 109.87 213.27 C 110.62 213.70 111.58 213.44 112.01 212.69 L 112.56 211.75 C 112.99 211.00 112.73 210.04 111.98 209.60 C 111.23 209.17 110.27 209.43 109.84 210.18 Z M 109.31 211.09 L 108.82 211.90 C 108.37 212.64 108.61 213.61 109.35 214.06 C 110.09 214.51 111.05 214.27 111.50 213.53 L 111.99 212.73 C 112.45 211.99 112.21 211.02 111.47 210.57 C 110.73 210.12 109.76 210.35 109.31 211.09 Z M 108.84 211.87 L 108.28 212.75 C 107.82 213.48 108.04 214.45 108.77 214.92 C 109.50 215.38 110.47 215.16 110.93 214.43 L 111.49 213.56 C 111.95 212.83 111.74 211.85 111.00 211.39 C 110.27 210.93 109.30 211.14 108.84 211.87 Z M 108.30 212.72 L 107.72 213.59 C 107.24 214.32 107.44 215.29 108.16 215.77 C 108.88 216.25 109.86 216.06 110.34 215.33 L 110.92 214.46 C 111.40 213.74 111.20 212.76 110.48 212.28 C 109.76 211.80 108.78 212.00 108.30 212.72 Z M 107.75 213.56 L 107.15 214.40 C 106.65 215.11 106.82 216.09 107.52 216.59 C 108.23 217.09 109.21 216.93 109.71 216.22 L 110.31 215.37 C 110.81 214.66 110.64 213.68 109.93 213.18 C 109.23 212.68 108.25 212.85 107.75 213.56 Z M 107.18 214.37 L 106.59 215.15 C 106.06 215.84 106.20 216.83 106.89 217.35 C 107.59 217.87 108.57 217.73 109.09 217.04 L 109.68 216.26 C 110.21 215.56 110.07 214.58 109.38 214.06 C 108.68 213.53 107.70 213.67 107.18 214.37 Z M 106.61 215.11 L 106.01 215.87 C 105.46 216.54 105.57 217.53 106.25 218.07 C 106.92 218.62 107.91 218.51 108.46 217.83 L 109.06 217.08 C 109.61 216.40 109.50 215.41 108.82 214.87 C 108.15 214.33 107.16 214.43 106.61 215.11 Z M 106.03 215.83 L 105.39 216.59 C 104.83 217.25 104.91 218.25 105.57 218.81 C 106.23 219.37 107.22 219.29 107.79 218.63 L 108.43 217.87 C 108.99 217.20 108.91 216.21 108.25 215.65 C 107.59 215.09 106.59 215.17 106.03 215.83 Z M 105.41 216.57 L 104.75 217.33 C 104.17 217.98 104.24 218.97 104.89 219.54 C 105.55 220.12 106.54 220.05 107.11 219.40 L 107.77 218.64 C 108.34 217.99 108.28 217.00 107.62 216.43 C 106.97 215.85 105.98 215.92 105.41 216.57 Z M 104.75 217.32 L 104.09 218.06 C 103.52 218.71 103.58 219.71 104.23 220.28 C 104.88 220.86 105.88 220.80 106.45 220.14 L 107.11 219.40 C 107.68 218.75 107.62 217.76 106.97 217.18 C 106.32 216.61 105.32 216.67 104.75 217.32 Z M 104.09 218.07 L 103.43 218.82 C 102.86 219.48 102.93 220.47 103.58 221.04 C 104.24 221.61 105.23 221.55 105.80 220.89 L 106.46 220.14 C 107.03 219.48 106.96 218.49 106.31 217.92 C 105.65 217.35 104.66 217.41 104.09 218.07 Z M 103.42 218.83 L 102.76 219.61 C 102.19 220.27 102.27 221.26 102.93 221.83 C 103.60 222.39 104.59 222.31 105.16 221.65 L 105.81 220.88 C 106.38 220.22 106.30 219.22 105.64 218.66 C 104.98 218.09 103.98 218.17 103.42 218.83 Z M 102.74 219.62 L 102.06 220.44 C 101.51 221.11 101.60 222.11 102.28 222.66 C 102.95 223.22 103.94 223.12 104.50 222.45 L 105.17 221.63 C 105.73 220.96 105.63 219.97 104.96 219.41 C 104.29 218.86 103.30 218.95 102.74 219.62 Z M 102.05 220.46 L 101.42 221.23 C 100.88 221.91 100.98 222.91 101.66 223.45 C 102.34 224.00 103.33 223.90 103.88 223.22 L 104.51 222.44 C 105.05 221.76 104.95 220.77 104.27 220.22 C 103.59 219.67 102.60 219.78 102.05 220.46 Z M 101.42 221.24 L 100.80 222.01 C 100.25 222.69 100.36 223.68 101.04 224.23 C 101.72 224.78 102.71 224.67 103.26 223.99 L 103.88 223.22 C 104.43 222.54 104.32 221.54 103.64 221.00 C 102.96 220.45 101.97 220.56 101.42 221.24 Z M 100.80 222.00 L 100.18 222.77 C 99.63 223.45 99.73 224.44 100.41 224.99 C 101.09 225.54 102.08 225.44 102.63 224.76 L 103.25 224.00 C 103.80 223.32 103.70 222.32 103.02 221.77 C 102.35 221.22 101.35 221.33 100.80 222.00 Z M 100.18 222.77 L 99.59 223.49 C 99.04 224.17 99.14 225.16 99.82 225.71 C 100.50 226.26 101.49 226.16 102.04 225.49 L 102.63 224.76 C 103.18 224.09 103.08 223.09 102.40 222.54 C 101.73 221.99 100.73 222.09 100.18 222.77 Z M 99.58 223.50 L 98.95 224.29 C 98.41 224.97 98.52 225.97 99.20 226.51 C 99.88 227.06 100.87 226.95 101.42 226.27 L 102.05 225.48 C 102.60 224.79 102.48 223.80 101.80 223.26 C 101.12 222.71 100.13 222.82 99.58 223.50 Z M 98.94 224.31 L 98.32 225.10 C 97.78 225.79 97.91 226.78 98.60 227.32 C 99.29 227.86 100.28 227.73 100.81 227.04 L 101.43 226.25 C 101.97 225.56 101.85 224.57 101.16 224.03 C 100.47 223.49 99.47 223.62 98.94 224.31 Z M 98.31 225.11 L 97.70 225.91 C 97.17 226.60 97.30 227.59 97.99 228.13 C 98.68 228.66 99.67 228.53 100.21 227.84 L 100.82 227.04 C 101.35 226.34 101.22 225.35 100.53 224.82 C 99.84 224.29 98.85 224.42 98.31 225.11 Z M 97.70 225.90 L 97.08 226.70 C 96.55 227.39 96.67 228.38 97.36 228.92 C 98.05 229.45 99.04 229.33 99.58 228.64 L 100.20 227.84 C 100.74 227.16 100.61 226.16 99.93 225.62 C 99.24 225.09 98.24 225.21 97.70 225.90 Z M 97.10 226.67 L 96.48 227.43 C 95.93 228.11 96.03 229.11 96.71 229.66 C 97.39 230.21 98.38 230.11 98.94 229.43 L 99.56 228.67 C 100.11 227.99 100.01 226.99 99.33 226.44 C 98.65 225.89 97.66 225.99 97.10 226.67 Z M 96.51 227.40 L 95.86 228.15 C 95.29 228.81 95.36 229.81 96.03 230.38 C 96.69 230.95 97.69 230.88 98.26 230.22 L 98.91 229.47 C 99.48 228.80 99.40 227.80 98.74 227.23 C 98.08 226.66 97.08 226.74 96.51 227.40 Z M 95.87 228.14 L 95.21 228.90 C 94.63 229.56 94.70 230.56 95.36 231.14 C 96.02 231.71 97.02 231.64 97.60 230.98 L 98.26 230.22 C 98.83 229.56 98.76 228.56 98.10 227.99 C 97.44 227.41 96.44 227.48 95.87 228.14 Z M 95.20 228.91 L 94.55 229.66 C 93.98 230.33 94.06 231.33 94.72 231.90 C 95.39 232.47 96.39 232.39 96.96 231.73 L 97.60 230.98 C 98.17 230.31 98.10 229.31 97.43 228.74 C 96.77 228.17 95.77 228.25 95.20 228.91 Z M 94.56 229.65 L 93.90 230.40 C 93.32 231.06 93.38 232.06 94.04 232.64 C 94.70 233.22 95.70 233.16 96.28 232.50 L 96.94 231.75 C 97.52 231.09 97.46 230.09 96.80 229.51 C 96.15 228.93 95.14 228.99 94.56 229.65 Z M 93.92 230.38 L 93.24 231.11 C 92.65 231.76 92.69 232.76 93.33 233.35 C 93.97 233.95 94.98 233.91 95.57 233.27 L 96.25 232.53 C 96.85 231.89 96.81 230.88 96.17 230.29 C 95.52 229.69 94.52 229.73 93.92 230.38 Z M 93.26 231.09 L 92.57 231.81 C 91.97 232.44 91.99 233.44 92.62 234.05 C 93.25 234.66 94.26 234.64 94.86 234.01 L 95.55 233.29 C 96.16 232.66 96.14 231.65 95.51 231.04 C 94.88 230.44 93.87 230.46 93.26 231.09 Z M 92.59 231.79 L 91.90 232.49 C 91.28 233.11 91.28 234.11 91.90 234.73 C 92.52 235.35 93.53 235.35 94.15 234.73 L 94.84 234.03 C 95.46 233.41 95.46 232.40 94.84 231.78 C 94.22 231.16 93.21 231.16 92.59 231.79 Z M 91.92 232.46 L 91.19 233.16 C 90.56 233.77 90.53 234.78 91.14 235.41 C 91.75 236.04 92.76 236.06 93.39 235.46 L 94.12 234.75 C 94.75 234.14 94.77 233.14 94.17 232.51 C 93.56 231.87 92.55 231.85 91.92 232.46 Z M 91.21 233.14 L 90.47 233.83 C 89.82 234.42 89.78 235.43 90.37 236.07 C 90.97 236.72 91.97 236.76 92.62 236.17 L 93.36 235.48 C 94.01 234.88 94.05 233.88 93.46 233.23 C 92.86 232.59 91.86 232.55 91.21 233.14 Z M 90.49 233.81 L 89.74 234.47 C 89.09 235.05 89.03 236.06 89.61 236.71 C 90.19 237.37 91.19 237.43 91.85 236.85 L 92.60 236.19 C 93.25 235.60 93.31 234.60 92.73 233.94 C 92.15 233.29 91.14 233.23 90.49 233.81 Z M 89.77 234.45 L 88.99 235.10 C 88.32 235.67 88.24 236.67 88.81 237.34 C 89.37 238.01 90.38 238.10 91.05 237.53 L 91.82 236.87 C 92.49 236.30 92.58 235.30 92.01 234.63 C 91.44 233.96 90.44 233.88 89.77 234.45 Z M 89.03 235.07 L 88.27 235.68 C 87.58 236.23 87.47 237.23 88.01 237.91 C 88.56 238.60 89.56 238.71 90.25 238.17 L 91.01 237.56 C 91.70 237.01 91.81 236.01 91.26 235.33 C 90.72 234.64 89.72 234.53 89.03 235.07 Z M 88.31 235.64 L 87.50 236.24 C 86.80 236.76 86.65 237.76 87.17 238.46 C 87.69 239.17 88.69 239.32 89.39 238.80 L 90.20 238.20 C 90.91 237.68 91.06 236.69 90.54 235.98 C 90.01 235.27 89.02 235.12 88.31 235.64 Z M 87.57 236.19 L 86.73 236.75 C 86.00 237.23 85.80 238.22 86.29 238.95 C 86.77 239.68 87.76 239.88 88.49 239.40 L 89.33 238.85 C 90.06 238.36 90.26 237.37 89.78 236.64 C 89.29 235.91 88.30 235.71 87.57 236.19 Z M 86.79 236.71 L 85.94 237.22 C 85.19 237.68 84.94 238.65 85.40 239.41 C 85.85 240.16 86.83 240.40 87.58 239.95 L 88.43 239.44 C 89.19 238.98 89.43 238.01 88.98 237.25 C 88.52 236.50 87.55 236.26 86.79 236.71 Z M 85.95 237.22 L 85.16 237.69 C 84.41 238.14 84.16 239.11 84.61 239.87 C 85.06 240.62 86.03 240.87 86.79 240.42 L 87.57 239.95 C 88.33 239.50 88.58 238.53 88.13 237.77 C 87.68 237.02 86.70 236.77 85.95 237.22 Z M 85.17 237.68 L 84.27 238.21 C 83.51 238.66 83.26 239.64 83.70 240.39 C 84.15 241.15 85.12 241.40 85.88 240.96 L 86.78 240.43 C 87.54 239.98 87.79 239.00 87.35 238.25 C 86.90 237.49 85.92 237.24 85.17 237.68 Z M 84.28 238.20 L 83.43 238.69 C 82.67 239.13 82.40 240.10 82.84 240.86 C 83.28 241.62 84.25 241.89 85.01 241.45 L 85.86 240.97 C 86.63 240.53 86.89 239.56 86.46 238.80 C 86.02 238.03 85.05 237.77 84.28 238.20 Z M 83.44 238.68 L 82.55 239.18 C 81.78 239.61 81.51 240.58 81.93 241.35 C 82.36 242.12 83.33 242.39 84.10 241.96 L 85.00 241.46 C 85.77 241.03 86.04 240.06 85.61 239.30 C 85.18 238.53 84.21 238.25 83.44 238.68 Z M 82.56 239.18 L 81.65 239.67 C 80.88 240.10 80.60 241.06 81.02 241.84 C 81.44 242.61 82.41 242.89 83.18 242.47 L 84.09 241.97 C 84.86 241.55 85.14 240.58 84.72 239.81 C 84.30 239.04 83.33 238.76 82.56 239.18 Z M 81.67 239.67 L 80.74 240.16 C 79.97 240.58 79.67 241.54 80.09 242.32 C 80.50 243.09 81.47 243.38 82.24 242.97 L 83.17 242.47 C 83.94 242.06 84.24 241.09 83.82 240.32 C 83.41 239.54 82.44 239.25 81.67 239.67 Z M 80.75 240.16 L 79.90 240.61 C 79.12 241.02 78.82 241.98 79.23 242.76 C 79.64 243.54 80.60 243.83 81.38 243.42 L 82.23 242.97 C 83.01 242.56 83.31 241.60 82.90 240.82 C 82.49 240.05 81.53 239.75 80.75 240.16 Z M 79.90 240.61 L 79.04 241.06 C 78.26 241.47 77.96 242.43 78.37 243.21 C 78.77 243.99 79.74 244.29 80.52 243.88 L 81.38 243.43 C 82.16 243.02 82.46 242.05 82.05 241.28 C 81.64 240.50 80.68 240.20 79.90 240.61 Z M 79.03 241.06 L 78.15 241.52 C 77.37 241.93 77.08 242.90 77.49 243.68 C 77.90 244.45 78.86 244.75 79.64 244.34 L 80.52 243.88 C 81.30 243.46 81.59 242.50 81.18 241.72 C 80.77 240.95 79.81 240.65 79.03 241.06 Z M 78.14 241.53 L 77.29 241.98 C 76.52 242.40 76.22 243.36 76.64 244.14 C 77.05 244.91 78.01 245.21 78.79 244.79 L 79.64 244.34 C 80.42 243.92 80.71 242.96 80.30 242.18 C 79.89 241.41 78.92 241.11 78.14 241.53 Z M 77.27 241.99 L 76.48 242.43 C 75.71 242.86 75.42 243.82 75.85 244.59 C 76.27 245.36 77.24 245.65 78.01 245.22 L 78.81 244.78 C 79.58 244.36 79.86 243.39 79.44 242.62 C 79.01 241.85 78.04 241.57 77.27 241.99 Z M 76.44 242.45 L 75.54 242.98 C 74.78 243.43 74.52 244.40 74.97 245.16 C 75.41 245.92 76.39 246.17 77.15 245.73 L 78.05 245.20 C 78.81 244.76 79.06 243.78 78.62 243.02 C 78.17 242.26 77.20 242.01 76.44 242.45 Z M 75.50 243.01 L 74.60 243.57 C 73.85 244.04 73.63 245.02 74.09 245.77 C 74.56 246.51 75.54 246.74 76.29 246.27 L 77.19 245.70 C 77.93 245.24 78.16 244.25 77.69 243.51 C 77.22 242.76 76.24 242.54 75.50 243.01 Z M 74.57 243.59 L 73.71 244.15 C 72.98 244.63 72.77 245.62 73.26 246.35 C 73.74 247.09 74.72 247.29 75.46 246.81 L 76.32 246.25 C 77.05 245.77 77.26 244.78 76.77 244.05 C 76.29 243.31 75.30 243.11 74.57 243.59 Z M 73.70 244.16 L 72.83 244.74 C 72.11 245.23 71.91 246.22 72.41 246.95 C 72.90 247.68 73.89 247.87 74.62 247.38 L 75.48 246.80 C 76.21 246.31 76.40 245.32 75.91 244.59 C 75.41 243.86 74.42 243.67 73.70 244.16 Z M 72.82 244.75 L 72.02 245.30 C 71.30 245.80 71.12 246.80 71.61 247.52 C 72.11 248.24 73.11 248.42 73.83 247.92 L 74.63 247.37 C 75.35 246.87 75.53 245.88 75.03 245.16 C 74.54 244.43 73.54 244.25 72.82 244.75 Z M 72.00 245.32 L 71.07 245.98 C 70.35 246.49 70.18 247.48 70.69 248.20 C 71.20 248.92 72.19 249.09 72.91 248.58 L 73.85 247.91 C 74.56 247.40 74.73 246.41 74.22 245.69 C 73.71 244.98 72.72 244.81 72.00 245.32 Z M 71.04 246.00 L 70.28 246.57 C 69.58 247.09 69.43 248.08 69.95 248.79 C 70.47 249.49 71.47 249.64 72.17 249.12 L 72.93 248.56 C 73.64 248.03 73.79 247.04 73.26 246.34 C 72.74 245.63 71.75 245.48 71.04 246.00 Z M 70.25 246.59 L 69.53 247.16 C 68.84 247.69 68.71 248.69 69.25 249.38 C 69.79 250.07 70.78 250.19 71.47 249.66 L 72.20 249.10 C 72.89 248.56 73.01 247.56 72.48 246.87 C 71.94 246.18 70.94 246.06 70.25 246.59 Z M 69.50 247.19 L 68.73 247.83 C 68.06 248.38 67.97 249.37 68.52 250.05 C 69.08 250.72 70.07 250.81 70.74 250.25 L 71.51 249.62 C 72.18 249.07 72.27 248.07 71.72 247.40 C 71.16 246.73 70.17 246.64 69.50 247.19 Z M 68.68 247.88 L 67.96 248.54 C 67.32 249.12 67.27 250.11 67.86 250.75 C 68.44 251.39 69.43 251.44 70.07 250.86 L 70.79 250.20 C 71.43 249.62 71.48 248.63 70.89 247.99 C 70.31 247.35 69.32 247.30 68.68 247.88 Z M 67.94 248.57 L 67.22 249.26 C 66.60 249.86 66.57 250.84 67.17 251.46 C 67.76 252.08 68.74 252.10 69.36 251.51 L 70.08 250.82 C 70.70 250.23 70.73 249.25 70.14 248.63 C 69.55 248.01 68.56 247.98 67.94 248.57 Z M 67.25 249.26 L 66.52 249.93 C 65.90 250.51 65.86 251.48 66.43 252.10 C 67.00 252.72 67.97 252.76 68.60 252.19 L 69.33 251.52 C 69.95 250.94 69.99 249.97 69.42 249.35 C 68.84 248.73 67.87 248.69 67.25 249.26 Z M 66.55 249.93 L 65.97 250.45 C 65.35 251.01 65.30 251.97 65.85 252.59 C 66.41 253.21 67.37 253.26 67.99 252.71 L 68.57 252.19 C 69.19 251.63 69.24 250.67 68.68 250.05 C 68.13 249.43 67.17 249.38 66.55 249.93 Z"
      fill="black"
      fill-rule="nonzero" /><path d="M 147.11 126.67 L 146.98 127.64 C 146.86 128.46 147.44 129.22 148.26 129.33 C 149.08 129.44 149.83 128.87 149.95 128.05 L 150.08 127.07 C 150.19 126.25 149.62 125.50 148.80 125.39 C 147.98 125.27 147.22 125.85 147.11 126.67 Z M 146.94 127.81 L 146.92 128.82 C 146.90 129.65 147.56 130.35 148.40 130.37 C 149.23 130.39 149.93 129.73 149.95 128.90 L 149.98 127.88 C 150.00 127.05 149.34 126.35 148.50 126.33 C 147.66 126.31 146.97 126.97 146.94 127.81 Z M 146.92 129.07 L 147.04 129.93 C 147.16 130.77 147.93 131.35 148.77 131.24 C 149.60 131.12 150.19 130.35 150.07 129.51 L 149.95 128.64 C 149.83 127.81 149.06 127.23 148.22 127.34 C 147.39 127.46 146.80 128.23 146.92 129.07 Z M 147.07 130.12 L 147.33 131.09 C 147.55 131.91 148.39 132.39 149.21 132.17 C 150.03 131.95 150.52 131.11 150.30 130.29 L 150.04 129.33 C 149.82 128.51 148.98 128.02 148.16 128.24 C 147.34 128.46 146.86 129.30 147.07 130.12 Z M 147.36 131.19 L 147.72 132.24 C 148.00 133.04 148.87 133.47 149.68 133.19 C 150.48 132.91 150.91 132.04 150.63 131.24 L 150.27 130.19 C 149.99 129.39 149.12 128.96 148.31 129.24 C 147.51 129.52 147.09 130.39 147.36 131.19 Z M 147.74 132.29 L 148.10 133.23 C 148.40 134.03 149.29 134.43 150.09 134.12 C 150.88 133.82 151.28 132.93 150.98 132.13 L 150.62 131.19 C 150.31 130.39 149.42 129.99 148.63 130.30 C 147.83 130.60 147.43 131.49 147.74 132.29 Z M 148.10 133.26 L 148.49 134.23 C 148.81 135.02 149.71 135.40 150.50 135.08 C 151.30 134.76 151.68 133.86 151.36 133.07 L 150.97 132.11 C 150.65 131.31 149.75 130.93 148.96 131.25 C 148.17 131.57 147.79 132.47 148.10 133.26 Z M 148.50 134.25 L 148.88 135.16 C 149.21 135.95 150.12 136.32 150.91 135.99 C 151.70 135.66 152.07 134.75 151.74 133.96 L 151.36 133.05 C 151.02 132.26 150.12 131.89 149.33 132.22 C 148.54 132.55 148.17 133.46 148.50 134.25 Z M 148.89 135.18 L 149.33 136.19 C 149.68 136.98 150.59 137.33 151.38 136.99 C 152.16 136.64 152.52 135.73 152.17 134.94 L 151.73 133.93 C 151.39 133.15 150.47 132.79 149.68 133.14 C 148.90 133.48 148.54 134.40 148.89 135.18 Z M 149.34 136.22 L 149.75 137.10 C 150.11 137.88 151.04 138.22 151.82 137.86 C 152.60 137.50 152.93 136.57 152.57 135.79 L 152.16 134.91 C 151.80 134.13 150.88 133.79 150.10 134.16 C 149.32 134.52 148.98 135.44 149.34 136.22 Z M 149.75 137.12 L 150.14 137.92 C 150.51 138.70 151.44 139.02 152.22 138.65 C 153.00 138.28 153.32 137.34 152.95 136.57 L 152.57 135.77 C 152.19 134.99 151.26 134.67 150.48 135.04 C 149.71 135.41 149.38 136.35 149.75 137.12 Z M 150.14 137.93 L 150.56 138.79 C 150.94 139.56 151.88 139.88 152.65 139.50 C 153.43 139.12 153.75 138.18 153.37 137.41 L 152.95 136.55 C 152.57 135.78 151.63 135.46 150.85 135.84 C 150.08 136.22 149.76 137.16 150.14 137.93 Z M 150.57 138.82 L 151.06 139.76 C 151.46 140.53 152.41 140.83 153.18 140.43 C 153.94 140.03 154.24 139.08 153.84 138.32 L 153.35 137.37 C 152.95 136.61 152.01 136.31 151.24 136.71 C 150.47 137.11 150.17 138.05 150.57 138.82 Z M 151.08 139.80 L 151.52 140.59 C 151.94 141.34 152.89 141.62 153.65 141.20 C 154.41 140.77 154.68 139.82 154.26 139.06 L 153.83 138.28 C 153.40 137.52 152.45 137.24 151.69 137.67 C 150.93 138.09 150.66 139.04 151.08 139.80 Z M 151.53 140.63 L 152.04 141.47 C 152.48 142.22 153.45 142.47 154.20 142.02 C 154.95 141.58 155.19 140.61 154.75 139.86 L 154.24 139.02 C 153.80 138.27 152.83 138.02 152.08 138.47 C 151.33 138.91 151.09 139.88 151.53 140.63 Z M 152.06 141.52 L 152.65 142.44 C 153.13 143.17 154.10 143.38 154.84 142.91 C 155.57 142.44 155.78 141.46 155.31 140.73 L 154.72 139.81 C 154.25 139.08 153.27 138.87 152.54 139.34 C 151.80 139.81 151.59 140.79 152.06 141.52 Z M 152.68 142.49 L 153.28 143.35 C 153.78 144.07 154.77 144.25 155.49 143.74 C 156.21 143.24 156.38 142.26 155.88 141.54 L 155.28 140.68 C 154.78 139.96 153.79 139.78 153.08 140.28 C 152.36 140.78 152.18 141.77 152.68 142.49 Z M 153.30 143.39 L 153.92 144.22 C 154.44 144.93 155.44 145.08 156.14 144.56 C 156.85 144.04 157.00 143.04 156.48 142.34 L 155.86 141.50 C 155.34 140.80 154.34 140.65 153.64 141.17 C 152.93 141.69 152.78 142.68 153.30 143.39 Z M 153.94 144.25 L 154.56 145.06 C 155.10 145.76 156.10 145.88 156.79 145.35 C 157.49 144.81 157.62 143.81 157.08 143.11 L 156.46 142.31 C 155.92 141.61 154.92 141.48 154.23 142.02 C 153.53 142.56 153.40 143.56 153.94 144.25 Z M 154.57 145.08 L 155.16 145.81 C 155.71 146.50 156.71 146.61 157.40 146.06 C 158.09 145.51 158.20 144.51 157.65 143.82 L 157.07 143.09 C 156.51 142.40 155.51 142.29 154.82 142.84 C 154.13 143.39 154.02 144.40 154.57 145.08 Z M 155.18 145.84 L 155.86 146.65 C 156.43 147.33 157.44 147.42 158.11 146.85 C 158.79 146.28 158.88 145.27 158.31 144.60 L 157.63 143.79 C 157.06 143.11 156.05 143.02 155.38 143.59 C 154.70 144.16 154.61 145.17 155.18 145.84 Z M 155.89 146.69 L 156.53 147.40 C 157.12 148.06 158.13 148.12 158.79 147.53 C 159.45 146.94 159.50 145.93 158.91 145.27 L 158.27 144.56 C 157.69 143.90 156.67 143.84 156.02 144.43 C 155.36 145.02 155.30 146.03 155.89 146.69 Z M 156.56 147.44 L 157.22 148.14 C 157.83 148.78 158.84 148.81 159.48 148.20 C 160.13 147.59 160.15 146.58 159.55 145.94 L 158.88 145.24 C 158.28 144.59 157.26 144.57 156.62 145.17 C 155.98 145.78 155.95 146.79 156.56 147.44 Z M 157.24 148.15 L 157.86 148.80 C 158.48 149.43 159.50 149.45 160.13 148.83 C 160.76 148.21 160.78 147.20 160.16 146.57 L 159.53 145.92 C 158.92 145.29 157.90 145.27 157.27 145.89 C 156.63 146.51 156.62 147.52 157.24 148.15 Z M 157.87 148.81 L 158.57 149.52 C 159.19 150.15 160.20 150.16 160.84 149.54 C 161.47 148.91 161.48 147.90 160.85 147.27 L 160.16 146.56 C 159.53 145.93 158.52 145.92 157.89 146.54 C 157.26 147.16 157.25 148.18 157.87 148.81 Z M 158.57 149.52 L 159.32 150.29 C 159.95 150.92 160.96 150.92 161.60 150.30 C 162.23 149.68 162.23 148.66 161.61 148.03 L 160.85 147.26 C 160.23 146.63 159.21 146.63 158.58 147.25 C 157.95 147.87 157.94 148.89 158.57 149.52 Z M 159.32 150.29 L 160.04 151.02 C 160.66 151.65 161.68 151.66 162.31 151.03 C 162.95 150.41 162.95 149.39 162.33 148.76 L 161.61 148.03 C 160.99 147.40 159.97 147.39 159.34 148.01 C 158.70 148.64 158.70 149.65 159.32 150.29 Z M 160.04 151.01 L 160.73 151.72 C 161.35 152.35 162.37 152.36 163.00 151.74 C 163.64 151.12 163.65 150.10 163.03 149.46 L 162.33 148.76 C 161.71 148.12 160.69 148.11 160.06 148.74 C 159.42 149.36 159.41 150.38 160.04 151.01 Z M 160.72 151.71 L 161.42 152.44 C 162.04 153.08 163.06 153.09 163.70 152.47 C 164.34 151.85 164.36 150.83 163.74 150.19 L 163.03 149.47 C 162.41 148.83 161.39 148.82 160.75 149.44 C 160.12 150.06 160.10 151.08 160.72 151.71 Z M 161.42 152.43 L 162.12 153.17 C 162.74 153.81 163.76 153.83 164.40 153.22 C 165.04 152.60 165.06 151.58 164.45 150.94 L 163.74 150.20 C 163.13 149.56 162.11 149.54 161.47 150.15 C 160.82 150.77 160.80 151.79 161.42 152.43 Z M 162.11 153.16 L 162.84 153.93 C 163.45 154.58 164.47 154.61 165.12 154.00 C 165.76 153.38 165.79 152.36 165.18 151.72 L 164.46 150.95 C 163.85 150.30 162.83 150.27 162.18 150.88 C 161.53 151.49 161.50 152.51 162.11 153.16 Z M 162.82 153.92 L 163.57 154.72 C 164.17 155.38 165.19 155.42 165.85 154.81 C 166.50 154.21 166.54 153.19 165.94 152.53 L 165.20 151.73 C 164.59 151.07 163.57 151.03 162.92 151.64 C 162.26 152.24 162.22 153.26 162.82 153.92 Z M 163.55 154.71 L 164.24 155.47 C 164.84 156.13 165.86 156.18 166.52 155.58 C 167.18 154.98 167.23 153.96 166.64 153.30 L 165.95 152.54 C 165.35 151.88 164.33 151.83 163.67 152.43 C 163.01 153.03 162.96 154.05 163.55 154.71 Z M 164.23 155.45 L 164.83 156.14 C 165.42 156.81 166.44 156.87 167.11 156.28 C 167.78 155.69 167.84 154.66 167.25 154.00 L 166.65 153.31 C 166.06 152.64 165.04 152.58 164.37 153.17 C 163.70 153.76 163.63 154.79 164.23 155.45 Z M 164.81 156.12 L 165.47 156.89 C 166.05 157.57 167.07 157.65 167.75 157.07 C 168.43 156.49 168.51 155.47 167.93 154.79 L 167.27 154.02 C 166.69 153.34 165.67 153.25 164.99 153.83 C 164.31 154.41 164.23 155.43 164.81 156.12 Z M 165.43 156.85 L 166.03 157.60 C 166.58 158.30 167.60 158.42 168.30 157.86 C 169.00 157.31 169.12 156.29 168.57 155.59 L 167.97 154.84 C 167.41 154.14 166.40 154.02 165.70 154.57 C 164.99 155.13 164.88 156.15 165.43 156.85 Z M 165.99 157.55 L 166.53 158.29 C 167.06 159.01 168.07 159.17 168.80 158.64 C 169.52 158.11 169.67 157.10 169.14 156.38 L 168.60 155.64 C 168.07 154.92 167.06 154.76 166.34 155.29 C 165.62 155.82 165.46 156.83 165.99 157.55 Z M 166.51 158.26 L 167.06 159.05 C 167.58 159.79 168.59 159.97 169.32 159.45 C 170.05 158.94 170.23 157.93 169.72 157.20 L 169.17 156.41 C 168.65 155.67 167.64 155.49 166.91 156.00 C 166.18 156.52 166.00 157.53 166.51 158.26 Z M 167.04 159.02 L 167.62 159.89 C 168.11 160.64 169.12 160.84 169.86 160.35 C 170.61 159.85 170.81 158.85 170.32 158.10 L 169.74 157.23 C 169.25 156.49 168.24 156.28 167.50 156.78 C 166.75 157.27 166.55 158.28 167.04 159.02 Z M 167.59 159.85 L 168.16 160.76 C 168.63 161.52 169.63 161.75 170.39 161.28 C 171.15 160.81 171.38 159.81 170.91 159.05 L 170.35 158.14 C 169.87 157.38 168.87 157.15 168.11 157.62 C 167.35 158.09 167.12 159.09 167.59 159.85 Z M 168.14 160.73 L 168.66 161.61 C 169.12 162.38 170.11 162.63 170.88 162.18 C 171.65 161.72 171.90 160.73 171.45 159.96 L 170.93 159.08 C 170.47 158.31 169.48 158.05 168.71 158.51 C 167.94 158.97 167.68 159.96 168.14 160.73 Z M 168.65 161.60 L 169.13 162.43 C 169.58 163.20 170.57 163.47 171.35 163.02 C 172.12 162.57 172.39 161.58 171.94 160.80 L 171.46 159.97 C 171.01 159.20 170.02 158.93 169.24 159.38 C 168.47 159.83 168.20 160.82 168.65 161.60 Z M 169.14 162.43 L 169.65 163.31 C 170.10 164.08 171.10 164.34 171.87 163.89 C 172.64 163.43 172.90 162.44 172.45 161.67 L 171.93 160.79 C 171.48 160.02 170.49 159.76 169.72 160.22 C 168.94 160.67 168.68 161.66 169.14 162.43 Z M 169.67 163.33 L 170.14 164.11 C 170.61 164.88 171.60 165.12 172.37 164.65 C 173.13 164.18 173.37 163.19 172.91 162.42 L 172.43 161.65 C 171.97 160.88 170.97 160.64 170.21 161.11 C 169.44 161.57 169.20 162.57 169.67 163.33 Z M 170.15 164.12 L 170.67 164.96 C 171.14 165.72 172.14 165.96 172.90 165.48 C 173.66 165.01 173.90 164.01 173.42 163.25 L 172.90 162.41 C 172.43 161.65 171.43 161.42 170.67 161.89 C 169.91 162.36 169.67 163.36 170.15 164.12 Z M 170.66 164.95 L 171.19 165.82 C 171.65 166.58 172.65 166.83 173.41 166.36 C 174.18 165.90 174.42 164.90 173.96 164.14 L 173.43 163.27 C 172.97 162.50 171.97 162.26 171.21 162.72 C 170.44 163.19 170.20 164.18 170.66 164.95 Z M 171.18 165.81 L 171.70 166.68 C 172.16 167.44 173.16 167.69 173.93 167.23 C 174.69 166.77 174.94 165.77 174.48 165.01 L 173.96 164.14 C 173.50 163.37 172.50 163.13 171.74 163.59 C 170.97 164.05 170.72 165.04 171.18 165.81 Z M 171.71 166.69 L 172.24 167.55 C 172.71 168.31 173.71 168.54 174.47 168.07 C 175.24 167.60 175.47 166.60 175.00 165.84 L 174.47 164.99 C 174.00 164.23 173.00 163.99 172.24 164.46 C 171.48 164.93 171.24 165.93 171.71 166.69 Z M 172.26 167.57 L 172.74 168.32 C 173.23 169.07 174.23 169.28 174.98 168.80 C 175.73 168.31 175.95 167.31 175.46 166.55 L 174.98 165.81 C 174.50 165.06 173.49 164.85 172.74 165.33 C 171.99 165.82 171.77 166.82 172.26 167.57 Z M 172.74 168.32 L 173.29 169.16 C 173.78 169.92 174.78 170.13 175.53 169.64 C 176.28 169.15 176.50 168.15 176.01 167.40 L 175.46 166.55 C 174.97 165.80 173.97 165.59 173.22 166.07 C 172.47 166.56 172.25 167.57 172.74 168.32 Z M 173.28 169.15 L 173.87 170.08 C 174.34 170.84 175.35 171.06 176.10 170.59 C 176.86 170.11 177.09 169.11 176.61 168.35 L 176.02 167.41 C 175.54 166.66 174.54 166.43 173.78 166.91 C 173.02 167.39 172.80 168.39 173.28 169.15 Z M 173.86 170.07 L 174.38 170.92 C 174.85 171.68 175.85 171.92 176.61 171.45 C 177.38 170.97 177.62 169.97 177.14 169.21 L 176.62 168.36 C 176.15 167.60 175.15 167.36 174.39 167.83 C 173.62 168.30 173.38 169.30 173.86 170.07 Z M 174.37 170.91 L 174.92 171.81 C 175.39 172.57 176.39 172.82 177.16 172.35 C 177.93 171.88 178.17 170.88 177.70 170.11 L 177.15 169.21 C 176.68 168.45 175.68 168.21 174.91 168.68 C 174.15 169.14 173.91 170.15 174.37 170.91 Z M 174.92 171.81 L 175.46 172.68 C 175.92 173.45 176.93 173.69 177.69 173.23 C 178.46 172.76 178.70 171.75 178.24 170.99 L 177.70 170.11 C 177.23 169.34 176.23 169.10 175.46 169.57 C 174.69 170.04 174.45 171.04 174.92 171.81 Z M 175.46 172.69 L 175.99 173.55 C 176.46 174.32 177.47 174.56 178.23 174.09 C 179.00 173.62 179.24 172.61 178.77 171.84 L 178.23 170.98 C 177.76 170.21 176.76 169.97 175.99 170.45 C 175.22 170.92 174.98 171.92 175.46 172.69 Z M 175.99 173.57 L 176.58 174.50 C 177.06 175.26 178.06 175.49 178.83 175.01 C 179.59 174.53 179.82 173.52 179.34 172.76 L 178.76 171.83 C 178.28 171.07 177.27 170.84 176.51 171.32 C 175.75 171.80 175.51 172.80 175.99 173.57 Z M 176.58 174.50 L 177.07 175.28 C 177.56 176.04 178.57 176.26 179.33 175.78 C 180.09 175.30 180.31 174.29 179.83 173.52 L 179.34 172.75 C 178.85 171.99 177.84 171.77 177.08 172.25 C 176.32 172.73 176.10 173.74 176.58 174.50 Z M 177.07 175.27 L 177.56 176.05 C 178.04 176.82 179.05 177.04 179.82 176.56 C 180.58 176.08 180.81 175.07 180.33 174.31 L 179.83 173.53 C 179.35 172.77 178.34 172.54 177.58 173.02 C 176.82 173.50 176.59 174.51 177.07 175.27 Z M 177.55 176.04 L 178.08 176.90 C 178.56 177.67 179.57 177.90 180.33 177.43 C 181.10 176.95 181.34 175.95 180.86 175.18 L 180.33 174.32 C 179.86 173.55 178.85 173.32 178.08 173.79 C 177.32 174.27 177.08 175.27 177.55 176.04 Z M 178.08 176.89 L 178.60 177.74 C 179.07 178.51 180.08 178.76 180.85 178.29 C 181.62 177.82 181.86 176.81 181.39 176.04 L 180.87 175.19 C 180.40 174.42 179.39 174.17 178.62 174.64 C 177.85 175.11 177.61 176.12 178.08 176.89 Z M 178.60 177.74 L 179.10 178.56 C 179.56 179.34 180.57 179.58 181.34 179.11 C 182.12 178.65 182.36 177.64 181.89 176.87 L 181.39 176.04 C 180.92 175.27 179.92 175.02 179.15 175.49 C 178.37 175.96 178.13 176.97 178.60 177.74 Z M 179.10 178.58 L 179.63 179.42 C 180.10 180.19 181.11 180.42 181.88 179.95 C 182.65 179.47 182.89 178.46 182.41 177.69 L 181.89 176.85 C 181.41 176.08 180.40 175.85 179.63 176.32 C 178.86 176.80 178.63 177.81 179.10 178.58 Z M 179.65 179.45 L 180.22 180.32 C 180.71 181.08 181.73 181.30 182.48 180.80 C 183.24 180.31 183.45 179.29 182.96 178.53 L 182.39 177.66 C 181.89 176.90 180.88 176.69 180.12 177.18 C 179.36 177.68 179.15 178.69 179.65 179.45 Z M 180.23 180.35 L 180.81 181.21 C 181.32 181.96 182.34 182.16 183.09 181.65 C 183.84 181.14 184.04 180.12 183.53 179.37 L 182.95 178.51 C 182.44 177.76 181.42 177.56 180.67 178.07 C 179.92 178.58 179.72 179.60 180.23 180.35 Z M 180.81 181.21 L 181.37 182.04 C 181.88 182.79 182.90 182.99 183.65 182.48 C 184.40 181.98 184.60 180.96 184.09 180.21 L 183.53 179.37 C 183.02 178.62 182.00 178.43 181.25 178.93 C 180.50 179.44 180.30 180.46 180.81 181.21 Z M 181.35 182.01 L 181.90 182.87 C 182.39 183.63 183.41 183.85 184.17 183.36 C 184.93 182.87 185.15 181.85 184.66 181.09 L 184.11 180.24 C 183.62 179.48 182.61 179.25 181.84 179.74 C 181.08 180.23 180.86 181.25 181.35 182.01 Z M 181.88 182.83 L 182.38 183.65 C 182.85 184.42 183.86 184.67 184.63 184.20 C 185.41 183.72 185.65 182.72 185.18 181.94 L 184.68 181.13 C 184.21 180.35 183.20 180.11 182.43 180.58 C 181.65 181.05 181.41 182.06 181.88 182.83 Z M 182.40 183.68 L 182.90 184.47 C 183.39 185.23 184.41 185.45 185.17 184.96 C 185.93 184.48 186.15 183.46 185.66 182.70 L 185.16 181.91 C 184.67 181.15 183.66 180.93 182.89 181.41 C 182.13 181.90 181.91 182.92 182.40 183.68 Z M 182.93 184.52 L 183.50 185.34 C 184.02 186.08 185.04 186.27 185.78 185.75 C 186.53 185.24 186.71 184.22 186.20 183.47 L 185.63 182.65 C 185.12 181.91 184.10 181.72 183.35 182.23 C 182.61 182.75 182.42 183.77 182.93 184.52 Z M 183.52 185.36 L 184.14 186.21 C 184.67 186.95 185.69 187.11 186.43 186.58 C 187.16 186.05 187.33 185.02 186.79 184.29 L 186.18 183.44 C 185.65 182.71 184.62 182.54 183.89 183.07 C 183.15 183.61 182.99 184.63 183.52 185.36 Z M 184.15 186.24 L 184.74 187.03 C 185.29 187.75 186.32 187.90 187.04 187.36 C 187.77 186.81 187.91 185.78 187.37 185.06 L 186.78 184.27 C 186.24 183.54 185.21 183.40 184.48 183.94 C 183.76 184.48 183.61 185.51 184.15 186.24 Z M 184.76 187.05 L 185.37 187.84 C 185.93 188.56 186.96 188.69 187.68 188.13 C 188.39 187.58 188.52 186.55 187.97 185.83 L 187.36 185.04 C 186.80 184.32 185.77 184.19 185.05 184.74 C 184.34 185.30 184.20 186.33 184.76 187.05 Z M 185.39 187.86 L 186.01 188.64 C 186.58 189.35 187.61 189.47 188.32 188.90 C 189.03 188.34 189.15 187.31 188.58 186.60 L 187.95 185.81 C 187.39 185.10 186.36 184.99 185.65 185.55 C 184.94 186.12 184.82 187.15 185.39 187.86 Z M 186.03 188.66 L 186.66 189.44 C 187.24 190.14 188.27 190.24 188.97 189.67 C 189.67 189.09 189.78 188.06 189.20 187.36 L 188.57 186.58 C 187.99 185.88 186.96 185.78 186.26 186.35 C 185.56 186.92 185.45 187.96 186.03 188.66 Z M 186.67 189.44 L 187.31 190.22 C 187.89 190.92 188.92 191.01 189.62 190.43 C 190.32 189.85 190.42 188.82 189.84 188.12 L 189.20 187.35 C 188.62 186.65 187.58 186.55 186.88 187.13 C 186.19 187.71 186.09 188.75 186.67 189.44 Z M 187.31 190.22 L 187.97 191.01 C 188.55 191.70 189.59 191.79 190.28 191.21 C 190.98 190.63 191.07 189.59 190.49 188.90 L 189.83 188.12 C 189.25 187.42 188.22 187.33 187.52 187.91 C 186.83 188.49 186.73 189.53 187.31 190.22 Z M 187.98 191.02 L 188.63 191.78 C 189.22 192.47 190.26 192.55 190.95 191.96 C 191.63 191.37 191.72 190.33 191.13 189.65 L 190.48 188.89 C 189.89 188.20 188.85 188.12 188.16 188.71 C 187.47 189.29 187.39 190.33 187.98 191.02 Z M 188.66 191.81 L 189.32 192.54 C 189.92 193.22 190.96 193.27 191.63 192.67 C 192.31 192.06 192.36 191.02 191.76 190.35 L 191.10 189.62 C 190.49 188.94 189.46 188.89 188.78 189.49 C 188.11 190.10 188.05 191.13 188.66 191.81 Z M 189.35 192.58 L 190.05 193.31 C 190.68 193.97 191.72 193.99 192.37 193.36 C 193.03 192.74 193.05 191.70 192.42 191.04 L 191.72 190.31 C 191.10 189.66 190.06 189.63 189.40 190.26 C 188.75 190.89 188.72 191.93 189.35 192.58 Z M 190.08 193.34 L 190.78 194.04 C 191.42 194.68 192.46 194.67 193.10 194.03 C 193.74 193.39 193.74 192.35 193.09 191.71 L 192.39 191.01 C 191.75 190.37 190.71 190.38 190.07 191.02 C 189.43 191.66 189.44 192.70 190.08 193.34 Z M 190.79 194.05 L 191.52 194.76 C 192.17 195.39 193.21 195.38 193.84 194.73 C 194.47 194.08 194.46 193.04 193.81 192.40 L 193.08 191.70 C 192.43 191.06 191.39 191.08 190.76 191.73 C 190.13 192.38 190.14 193.42 190.79 194.05 Z M 191.52 194.76 L 192.24 195.46 C 192.89 196.09 193.93 196.07 194.56 195.42 C 195.19 194.76 195.18 193.73 194.52 193.09 L 193.81 192.40 C 193.15 191.77 192.11 191.79 191.48 192.44 C 190.85 193.09 190.87 194.13 191.52 194.76 Z M 192.23 195.45 L 192.94 196.14 C 193.59 196.78 194.63 196.77 195.26 196.12 C 195.90 195.47 195.89 194.43 195.24 193.79 L 194.53 193.10 C 193.88 192.47 192.84 192.48 192.21 193.13 C 191.57 193.77 191.59 194.82 192.23 195.45 Z M 192.91 196.11 L 193.60 196.82 C 194.24 197.48 195.28 197.49 195.93 196.86 C 196.58 196.22 196.59 195.18 195.96 194.53 L 195.27 193.82 C 194.64 193.17 193.59 193.16 192.94 193.79 C 192.29 194.42 192.28 195.46 192.91 196.11 Z M 193.55 196.77 L 194.18 197.47 C 194.78 198.15 195.82 198.21 196.50 197.60 C 197.18 197.00 197.24 195.96 196.63 195.28 L 196.01 194.58 C 195.40 193.90 194.36 193.85 193.69 194.45 C 193.01 195.05 192.95 196.09 193.55 196.77 Z M 194.12 197.41 L 194.70 198.13 C 195.28 198.83 196.31 198.94 197.02 198.37 C 197.72 197.80 197.83 196.76 197.26 196.06 L 196.68 195.34 C 196.11 194.63 195.07 194.52 194.37 195.10 C 193.66 195.67 193.55 196.70 194.12 197.41 Z M 194.66 198.08 L 195.33 198.97 C 195.88 199.70 196.91 199.85 197.64 199.30 C 198.36 198.76 198.51 197.73 197.97 197.00 L 197.30 196.11 C 196.76 195.38 195.73 195.23 195.00 195.77 C 194.27 196.32 194.12 197.35 194.66 198.08 Z M 195.31 198.94 L 195.85 199.70 C 196.38 200.44 197.41 200.61 198.15 200.08 C 198.89 199.56 199.06 198.53 198.53 197.79 L 197.99 197.03 C 197.46 196.29 196.43 196.12 195.69 196.64 C 194.95 197.17 194.78 198.20 195.31 198.94 Z M 195.84 199.69 L 196.40 200.49 C 196.93 201.24 197.95 201.42 198.70 200.90 C 199.44 200.38 199.63 199.35 199.10 198.61 L 198.54 197.80 C 198.02 197.05 196.99 196.87 196.25 197.39 C 195.50 197.91 195.32 198.94 195.84 199.69 Z M 196.40 200.49 L 196.99 201.35 C 197.51 202.10 198.54 202.28 199.29 201.76 C 200.04 201.25 200.22 200.22 199.70 199.47 L 199.11 198.61 C 198.59 197.86 197.56 197.68 196.82 198.19 C 196.07 198.71 195.88 199.74 196.40 200.49 Z M 196.99 201.35 L 197.60 202.23 C 198.12 202.98 199.15 203.16 199.90 202.65 C 200.64 202.13 200.83 201.10 200.31 200.35 L 199.71 199.47 C 199.19 198.72 198.16 198.53 197.41 199.05 C 196.66 199.57 196.48 200.60 196.99 201.35 Z M 197.60 202.23 L 198.20 203.09 C 198.72 203.84 199.75 204.03 200.50 203.51 C 201.25 202.99 201.43 201.96 200.91 201.21 L 200.31 200.35 C 199.79 199.60 198.77 199.41 198.02 199.93 C 197.27 200.45 197.08 201.48 197.60 202.23 Z M 198.20 203.10 L 198.79 203.94 C 199.31 204.68 200.34 204.86 201.09 204.34 C 201.84 203.82 202.02 202.79 201.49 202.04 L 200.91 201.21 C 200.39 200.46 199.36 200.28 198.61 200.80 C 197.86 201.32 197.68 202.35 198.20 203.10 Z M 198.80 203.94 L 199.37 204.75 C 199.89 205.49 200.92 205.66 201.67 205.14 C 202.41 204.61 202.58 203.58 202.06 202.84 L 201.49 202.03 C 200.96 201.29 199.93 201.12 199.19 201.64 C 198.44 202.17 198.27 203.20 198.80 203.94 Z M 199.37 204.76 L 199.94 205.54 C 200.47 206.28 201.51 206.44 202.25 205.91 C 202.98 205.38 203.15 204.34 202.61 203.61 L 202.05 202.82 C 201.51 202.08 200.48 201.92 199.74 202.45 C 199.01 202.99 198.84 204.02 199.37 204.76 Z M 199.95 205.56 L 200.60 206.44 C 201.15 207.17 202.18 207.32 202.91 206.78 C 203.65 206.24 203.80 205.20 203.26 204.47 L 202.60 203.59 C 202.06 202.86 201.03 202.70 200.29 203.25 C 199.56 203.79 199.41 204.82 199.95 205.56 Z M 200.61 206.44 L 201.20 207.23 C 201.74 207.96 202.78 208.11 203.51 207.57 C 204.24 207.02 204.39 205.99 203.84 205.25 L 203.25 204.46 C 202.71 203.73 201.67 203.58 200.94 204.13 C 200.21 204.68 200.06 205.71 200.61 206.44 Z M 201.18 207.22 L 201.72 207.95 C 202.26 208.69 203.29 208.85 204.03 208.31 C 204.77 207.78 204.93 206.74 204.39 206.00 L 203.86 205.27 C 203.32 204.53 202.28 204.37 201.55 204.91 C 200.81 205.44 200.65 206.48 201.18 207.22 Z M 201.69 207.91 L 202.27 208.76 C 202.79 209.52 203.82 209.71 204.57 209.19 C 205.33 208.67 205.52 207.64 205.00 206.89 L 204.42 206.04 C 203.90 205.29 202.87 205.10 202.12 205.61 C 201.37 206.13 201.17 207.16 201.69 207.91 Z M 202.26 208.75 L 202.80 209.54 C 203.31 210.30 204.33 210.51 205.09 210.00 C 205.85 209.49 206.06 208.46 205.55 207.70 L 205.01 206.90 C 204.50 206.14 203.48 205.94 202.72 206.45 C 201.96 206.96 201.75 207.99 202.26 208.75 Z M 202.81 209.57 L 203.35 210.34 C 203.87 211.09 204.90 211.28 205.65 210.76 C 206.40 210.24 206.59 209.20 206.07 208.45 L 205.53 207.68 C 205.01 206.93 203.98 206.74 203.23 207.26 C 202.48 207.79 202.29 208.82 202.81 209.57 Z M 203.37 210.36 L 203.96 211.18 C 204.49 211.93 205.52 212.10 206.27 211.56 C 207.01 211.03 207.18 209.99 206.64 209.25 L 206.05 208.43 C 205.52 207.69 204.49 207.52 203.74 208.05 C 203.00 208.59 202.83 209.62 203.37 210.36 Z M 203.96 211.20 L 204.56 212.01 C 205.10 212.75 206.14 212.91 206.87 212.37 C 207.61 211.83 207.77 210.79 207.23 210.06 L 206.64 209.24 C 206.10 208.50 205.06 208.34 204.32 208.88 C 203.58 209.42 203.42 210.46 203.96 211.20 Z M 204.57 212.02 L 205.16 212.81 C 205.70 213.54 206.74 213.69 207.47 213.14 C 208.20 212.60 208.35 211.56 207.81 210.83 L 207.22 210.04 C 206.68 209.31 205.64 209.16 204.91 209.71 C 204.17 210.25 204.02 211.29 204.57 212.02 Z M 205.17 212.83 L 205.80 213.64 C 206.36 214.37 207.40 214.50 208.12 213.94 C 208.85 213.38 208.98 212.34 208.42 211.62 L 207.79 210.80 C 207.23 210.08 206.19 209.95 205.47 210.51 C 204.75 211.07 204.61 212.10 205.17 212.83 Z M 205.83 213.67 L 206.49 214.50 C 207.07 215.21 208.11 215.31 208.82 214.74 C 209.53 214.16 209.64 213.12 209.06 212.41 L 208.40 211.59 C 207.82 210.88 206.78 210.77 206.07 211.35 C 205.36 211.92 205.25 212.96 205.83 213.67 Z M 206.52 214.53 L 207.19 215.32 C 207.79 216.02 208.83 216.10 209.53 215.51 C 210.22 214.92 210.31 213.87 209.71 213.17 L 209.04 212.38 C 208.45 211.68 207.40 211.60 206.70 212.19 C 206.01 212.78 205.92 213.83 206.52 214.53 Z M 207.22 215.35 L 207.86 216.08 C 208.47 216.76 209.52 216.82 210.20 216.21 C 210.89 215.60 210.95 214.55 210.34 213.87 L 209.69 213.14 C 209.08 212.46 208.03 212.40 207.35 213.01 C 206.67 213.62 206.61 214.67 207.22 215.35 Z M 207.90 216.11 L 208.61 216.87 C 209.24 217.53 210.29 217.56 210.95 216.93 C 211.62 216.30 211.65 215.25 211.02 214.59 L 210.31 213.83 C 209.68 213.17 208.63 213.14 207.96 213.77 C 207.30 214.40 207.27 215.45 207.90 216.11 Z M 208.66 216.92 L 209.36 217.59 C 210.02 218.23 211.07 218.21 211.70 217.55 C 212.34 216.89 212.32 215.84 211.66 215.21 L 210.97 214.53 C 210.31 213.90 209.26 213.91 208.62 214.57 C 207.98 215.23 208.00 216.28 208.66 216.92 Z M 209.41 217.64 L 210.08 218.24 C 210.77 218.85 211.82 218.78 212.43 218.09 C 213.03 217.41 212.97 216.36 212.28 215.75 L 211.61 215.15 C 210.92 214.55 209.87 214.61 209.26 215.30 C 208.66 215.99 208.72 217.04 209.41 217.64 Z M 210.11 218.27 L 210.87 218.90 C 211.57 219.49 212.62 219.40 213.21 218.70 C 213.80 217.99 213.71 216.95 213.01 216.36 L 212.25 215.72 C 211.55 215.13 210.50 215.22 209.91 215.93 C 209.32 216.63 209.41 217.68 210.11 218.27 Z M 210.88 218.91 L 211.65 219.55 C 212.36 220.14 213.40 220.04 213.99 219.33 C 214.58 218.63 214.48 217.58 213.77 216.99 L 213.00 216.35 C 212.29 215.76 211.25 215.86 210.66 216.57 C 210.07 217.27 210.17 218.32 210.88 218.91 Z M 211.64 219.54 L 212.39 220.18 C 213.10 220.77 214.14 220.68 214.74 219.97 C 215.33 219.27 215.24 218.22 214.53 217.63 L 213.78 217.00 C 213.08 216.41 212.03 216.50 211.44 217.20 C 210.85 217.90 210.94 218.95 211.64 219.54 Z M 212.38 220.17 L 213.18 220.85 C 213.87 221.45 214.92 221.37 215.52 220.68 C 216.12 219.98 216.04 218.93 215.35 218.33 L 214.55 217.64 C 213.85 217.04 212.80 217.12 212.20 217.82 C 211.60 218.51 211.68 219.57 212.38 220.17 Z M 213.15 220.83 L 213.93 221.53 C 214.62 222.15 215.67 222.08 216.29 221.40 C 216.90 220.71 216.84 219.66 216.15 219.05 L 215.37 218.35 C 214.68 217.74 213.63 217.80 213.02 218.48 C 212.41 219.17 212.47 220.22 213.15 220.83 Z M 213.91 221.51 L 214.66 222.20 C 215.33 222.83 216.39 222.79 217.01 222.12 C 217.64 221.44 217.60 220.39 216.92 219.76 L 216.18 219.07 C 215.50 218.44 214.45 218.48 213.82 219.16 C 213.20 219.83 213.24 220.88 213.91 221.51 Z M 214.63 222.18 L 215.33 222.85 C 215.99 223.49 217.04 223.48 217.68 222.82 C 218.32 222.15 218.31 221.10 217.65 220.46 L 216.95 219.79 C 216.29 219.14 215.23 219.16 214.59 219.82 C 213.95 220.48 213.97 221.54 214.63 222.18 Z M 215.29 222.82 L 216.01 223.56 C 216.65 224.21 217.71 224.23 218.37 223.58 C 219.03 222.94 219.04 221.89 218.40 221.23 L 217.68 220.49 C 217.04 219.83 215.98 219.82 215.32 220.46 C 214.66 221.11 214.65 222.16 215.29 222.82 Z M 215.98 223.52 L 216.65 224.24 C 217.27 224.92 218.33 224.96 219.00 224.34 C 219.68 223.71 219.72 222.66 219.10 221.98 L 218.43 221.26 C 217.80 220.58 216.75 220.54 216.07 221.17 C 215.40 221.79 215.35 222.85 215.98 223.52 Z M 216.63 224.22 L 217.28 224.95 C 217.89 225.64 218.94 225.70 219.63 225.08 C 220.32 224.47 220.38 223.42 219.76 222.73 L 219.11 222.00 C 218.50 221.32 217.45 221.26 216.76 221.87 C 216.07 222.48 216.01 223.54 216.63 224.22 Z M 217.26 224.93 L 217.92 225.69 C 218.52 226.38 219.57 226.46 220.27 225.85 C 220.96 225.25 221.04 224.20 220.43 223.50 L 219.78 222.75 C 219.17 222.05 218.12 221.98 217.43 222.58 C 216.73 223.19 216.66 224.24 217.26 224.93 Z M 217.89 225.66 L 218.53 226.43 C 219.12 227.14 220.17 227.24 220.88 226.65 C 221.59 226.06 221.69 225.01 221.10 224.30 L 220.46 223.53 C 219.87 222.82 218.82 222.72 218.11 223.31 C 217.40 223.90 217.30 224.95 217.89 225.66 Z M 218.50 226.39 L 219.12 227.18 C 219.68 227.91 220.73 228.03 221.46 227.47 C 222.18 226.90 222.31 225.85 221.75 225.13 L 221.13 224.34 C 220.56 223.61 219.51 223.48 218.79 224.05 C 218.06 224.62 217.93 225.67 218.50 226.39 Z M 219.09 227.14 L 219.68 227.95 C 220.23 228.69 221.28 228.85 222.02 228.30 C 222.76 227.75 222.91 226.71 222.37 225.97 L 221.77 225.16 C 221.23 224.42 220.18 224.27 219.44 224.81 C 218.70 225.36 218.54 226.40 219.09 227.14 Z M 219.66 227.92 L 220.25 228.74 C 220.78 229.49 221.82 229.67 222.57 229.14 C 223.32 228.61 223.50 227.57 222.97 226.81 L 222.39 225.99 C 221.85 225.24 220.81 225.06 220.06 225.60 C 219.31 226.13 219.13 227.17 219.66 227.92 Z M 220.24 228.73 L 220.81 229.55 C 221.33 230.31 222.37 230.50 223.13 229.97 C 223.88 229.45 224.07 228.41 223.55 227.65 L 222.98 226.83 C 222.45 226.07 221.42 225.88 220.66 226.41 C 219.90 226.93 219.71 227.97 220.24 228.73 Z M 220.81 229.55 L 221.38 230.38 C 221.90 231.13 222.94 231.32 223.70 230.80 C 224.45 230.28 224.64 229.24 224.12 228.48 L 223.55 227.66 C 223.03 226.90 221.99 226.71 221.23 227.23 C 220.47 227.75 220.28 228.79 220.81 229.55 Z M 221.37 230.37 L 221.94 231.20 C 222.46 231.96 223.50 232.16 224.26 231.64 C 225.02 231.12 225.21 230.08 224.69 229.32 L 224.12 228.49 C 223.60 227.73 222.57 227.53 221.81 228.05 C 221.05 228.57 220.85 229.61 221.37 230.37 Z M 221.92 231.17 L 222.46 232.00 C 222.97 232.77 224.00 232.99 224.77 232.49 C 225.54 231.98 225.76 230.95 225.25 230.18 L 224.71 229.35 C 224.21 228.58 223.18 228.36 222.41 228.86 C 221.64 229.37 221.42 230.40 221.92 231.17 Z M 222.44 231.97 L 222.97 232.83 C 223.46 233.61 224.48 233.85 225.27 233.37 C 226.05 232.89 226.29 231.86 225.81 231.08 L 225.28 230.22 C 224.79 229.43 223.77 229.19 222.98 229.67 C 222.20 230.16 221.96 231.18 222.44 231.97 Z M 222.99 232.85 L 223.51 233.68 C 224.01 234.45 225.04 234.68 225.82 234.18 C 226.59 233.69 226.82 232.66 226.32 231.88 L 225.79 231.05 C 225.30 230.28 224.27 230.05 223.49 230.55 C 222.72 231.04 222.49 232.07 222.99 232.85 Z M 223.56 233.74 L 224.13 234.55 C 224.67 235.30 225.71 235.48 226.46 234.95 C 227.21 234.42 227.39 233.37 226.85 232.62 L 226.28 231.81 C 225.74 231.06 224.70 230.89 223.95 231.42 C 223.20 231.95 223.03 232.99 223.56 233.74 Z M 224.18 234.62 L 224.80 235.41 C 225.37 236.13 226.42 236.26 227.14 235.69 C 227.87 235.12 227.99 234.07 227.43 233.35 L 226.80 232.56 C 226.24 231.83 225.19 231.71 224.46 232.28 C 223.74 232.85 223.61 233.89 224.18 234.62 Z M 224.87 235.49 L 225.54 236.24 C 226.16 236.93 227.21 236.98 227.90 236.37 C 228.59 235.75 228.64 234.70 228.03 234.01 L 227.36 233.26 C 226.74 232.58 225.68 232.52 225.00 233.14 C 224.31 233.75 224.26 234.81 224.87 235.49 Z M 225.69 236.39 L 226.45 237.05 C 227.14 237.65 228.20 237.58 228.80 236.88 C 229.41 236.19 229.34 235.13 228.64 234.52 L 227.88 233.86 C 227.19 233.26 226.13 233.33 225.52 234.03 C 224.92 234.73 224.99 235.78 225.69 236.39 Z M 226.62 237.18 L 227.43 237.72 C 228.20 238.23 229.24 238.03 229.75 237.26 C 230.26 236.49 230.06 235.45 229.29 234.94 L 228.47 234.39 C 227.70 233.88 226.66 234.09 226.15 234.86 C 225.64 235.63 225.85 236.67 226.62 237.18 Z M 227.52 237.78 L 228.36 238.26 C 229.16 238.73 230.19 238.45 230.65 237.65 C 231.11 236.85 230.84 235.83 230.04 235.37 L 229.20 234.88 C 228.40 234.42 227.37 234.69 226.91 235.49 C 226.45 236.29 226.72 237.31 227.52 237.78 Z M 228.35 238.26 L 229.22 238.77 C 230.02 239.24 231.04 238.98 231.51 238.18 C 231.98 237.38 231.72 236.36 230.92 235.89 L 230.05 235.37 C 229.25 234.91 228.23 235.17 227.76 235.97 C 227.29 236.76 227.56 237.79 228.35 238.26 Z M 229.18 238.75 L 230.03 239.28 C 230.81 239.77 231.85 239.53 232.34 238.74 C 232.83 237.96 232.59 236.93 231.80 236.44 L 230.96 235.91 C 230.18 235.42 229.14 235.66 228.65 236.44 C 228.16 237.23 228.40 238.26 229.18 238.75 Z M 230.03 239.28 L 230.90 239.82 C 231.69 240.31 232.72 240.06 233.21 239.28 C 233.69 238.49 233.45 237.46 232.67 236.97 L 231.80 236.43 C 231.01 235.95 229.98 236.19 229.49 236.97 C 229.01 237.76 229.25 238.79 230.03 239.28 Z M 230.94 239.84 L 231.80 240.34 C 232.59 240.81 233.62 240.54 234.09 239.75 C 234.56 238.95 234.29 237.92 233.49 237.46 L 232.63 236.95 C 231.83 236.48 230.81 236.75 230.34 237.55 C 229.87 238.35 230.14 239.37 230.94 239.84 Z M 231.85 240.37 L 232.73 240.85 C 233.54 241.29 234.56 240.99 235.00 240.17 C 235.44 239.36 235.13 238.34 234.32 237.90 L 233.44 237.43 C 232.63 236.99 231.61 237.29 231.17 238.10 C 230.73 238.92 231.03 239.93 231.85 240.37 Z M 232.79 240.88 L 233.67 241.31 C 234.50 241.72 235.50 241.38 235.91 240.55 C 236.32 239.72 235.97 238.71 235.14 238.31 L 234.26 237.87 C 233.43 237.47 232.43 237.81 232.02 238.64 C 231.62 239.47 231.96 240.47 232.79 240.88 Z M 233.72 241.34 L 234.65 241.75 C 235.50 242.13 236.49 241.75 236.86 240.91 C 237.24 240.07 236.86 239.08 236.02 238.70 L 235.09 238.28 C 234.25 237.90 233.26 238.28 232.88 239.12 C 232.50 239.97 232.88 240.96 233.72 241.34 Z M 234.70 241.77 L 235.60 242.14 C 236.46 242.49 237.44 242.09 237.79 241.23 C 238.14 240.38 237.73 239.40 236.87 239.05 L 235.97 238.68 C 235.12 238.33 234.14 238.74 233.79 239.59 C 233.44 240.45 233.85 241.42 234.70 241.77 Z M 235.69 242.18 L 236.65 242.50 C 237.52 242.81 238.47 242.34 238.77 241.47 C 239.07 240.60 238.61 239.65 237.74 239.35 L 236.78 239.02 C 235.91 238.72 234.96 239.18 234.66 240.05 C 234.36 240.92 234.82 241.87 235.69 242.18 Z M 236.79 242.55 L 237.81 242.80 C 238.71 243.02 239.61 242.48 239.84 241.58 C 240.06 240.69 239.51 239.78 238.62 239.56 L 237.59 239.31 C 236.70 239.08 235.79 239.63 235.57 240.52 C 235.35 241.42 235.90 242.32 236.79 242.55 Z M 238.01 242.83 L 239.05 242.96 C 239.96 243.08 240.80 242.43 240.91 241.51 C 241.02 240.60 240.37 239.76 239.46 239.65 L 238.42 239.52 C 237.51 239.41 236.67 240.06 236.56 240.98 C 236.45 241.89 237.10 242.72 238.01 242.83 Z M 239.37 242.97 L 240.29 242.90 C 241.21 242.84 241.90 242.04 241.83 241.12 C 241.77 240.21 240.97 239.52 240.06 239.58 L 239.13 239.65 C 238.22 239.71 237.53 240.51 237.59 241.42 C 237.66 242.34 238.45 243.03 239.37 242.97 Z M 240.90 242.72 L 241.81 242.27 C 242.62 241.87 242.96 240.88 242.55 240.06 C 242.15 239.25 241.16 238.92 240.35 239.32 L 239.44 239.77 C 238.63 240.17 238.30 241.16 238.70 241.97 C 239.10 242.79 240.09 243.12 240.90 242.72 Z M 242.15 242.00 L 242.58 241.62 C 243.25 241.03 243.32 240.01 242.73 239.34 C 242.14 238.67 241.11 238.61 240.45 239.20 L 240.01 239.58 C 239.34 240.17 239.28 241.19 239.87 241.86 C 240.46 242.53 241.48 242.60 242.15 242.00 Z"
      fill="black"
      fill-rule="nonzero" /></svg>