<svg xmlns="http://www.w3.org/2000/svg" width="300" height="300" viewBox="0 0 300 300">
<path d="M 143.08 92.57 L 142.36 91.85 C 141.79 91.29 140.87 91.29 140.31 91.86 C 139.74 92.43 139.74 93.34 140.31 93.91 L 141.03 94.62 C 141.60 95.19 142.51 95.19 143.08 94.62 C 143.65 94.05 143.64 93.13 143.08 92.57 Z M 142.55 92.07 L 141.99 91.22 C 141.54 90.55 140.63 90.37 139.96 90.82 C 139.29 91.27 139.10 92.18 139.55 92.85 L 140.12 93.70 C 140.57 94.37 141.48 94.55 142.15 94.10 C 142.82 93.65 143.00 92.74 142.55 92.07 Z M 142.25 91.87 L 142.14 90.92 C 142.05 90.10 141.31 89.51 140.49 89.61 C 139.68 89.70 139.09 90.44 139.18 91.26 L 139.29 92.20 C 139.38 93.02 140.12 93.61 140.94 93.52 C 141.76 93.42 142.34 92.68 142.25 91.87 Z M 141.67 92.24 L 142.33 91.66 C 142.97 91.10 143.04 90.14 142.48 89.50 C 141.93 88.87 140.96 88.80 140.33 89.35 L 139.66 89.94 C 139.02 90.49 138.96 91.46 139.51 92.09 C 140.07 92.73 141.03 92.79 141.67 92.24 Z M 141.73 92.01 L 142.72 91.75 C 143.55 91.53 144.04 90.68 143.82 89.84 C 143.60 89.01 142.75 88.52 141.92 88.74 L 140.93 89.00 C 140.10 89.22 139.61 90.07 139.83 90.90 C 140.05 91.73 140.90 92.23 141.73 92.01 Z M 142.47 91.81 L 143.40 91.72 C 144.26 91.64 144.90 90.87 144.82 90.01 C 144.74 89.14 143.97 88.51 143.10 88.59 L 142.17 88.68 C 141.31 88.76 140.67 89.53 140.75 90.39 C 140.83 91.26 141.60 91.89 142.47 91.81 Z M 143.29 91.74 L 144.35 91.71 C 145.22 91.69 145.91 90.96 145.89 90.09 C 145.87 89.22 145.15 88.53 144.27 88.55 L 143.21 88.57 C 142.34 88.60 141.65 89.32 141.67 90.19 C 141.69 91.07 142.42 91.76 143.29 91.74 Z M 144.32 91.72 L 145.29 91.71 C 146.17 91.70 146.87 90.99 146.86 90.11 C 146.86 89.23 146.14 88.53 145.26 88.53 L 144.30 88.54 C 143.42 88.55 142.72 89.26 142.72 90.14 C 142.73 91.02 143.45 91.72 144.32 91.72 Z M 145.28 91.71 L 146.32 91.71 C 147.20 91.71 147.91 91.00 147.91 90.12 C 147.91 89.24 147.20 88.53 146.32 88.53 L 145.27 88.53 C 144.39 88.53 143.68 89.25 143.68 90.13 C 143.69 91.00 144.40 91.72 145.28 91.71 Z M 146.32 91.71 L 147.40 91.71 C 148.28 91.71 148.99 91.00 148.99 90.12 C 148.99 89.24 148.28 88.52 147.40 88.52 L 146.32 88.52 C 145.44 88.52 144.72 89.24 144.73 90.12 C 144.73 91.00 145.44 91.72 146.32 91.71 Z M 147.40 91.72 L 148.47 91.72 C 149.35 91.72 150.07 91.00 150.07 90.12 C 150.07 89.24 149.35 88.52 148.47 88.52 L 147.40 88.52 C 146.51 88.52 145.80 89.24 145.80 90.12 C 145.80 91.00 146.51 91.72 147.40 91.72 Z M 148.47 91.72 L 149.42 91.72 C 150.30 91.72 151.01 91.00 151.01 90.12 C 151.01 89.24 150.30 88.52 149.42 88.52 L 148.47 88.52 C 147.59 88.52 146.87 89.24 146.87 90.12 C 146.87 91.00 147.59 91.72 148.47 91.72 Z M 149.42 91.72 L 150.42 91.72 C 151.30 91.72 152.02 91.00 152.02 90.12 C 152.02 89.24 151.30 88.52 150.42 88.52 L 149.42 88.52 C 148.53 88.52 147.82 89.24 147.82 90.12 C 147.82 91.00 148.53 91.72 149.42 91.72 Z M 150.42 91.72 L 151.37 91.72 C 152.25 91.72 152.97 91.00 152.97 90.12 C 152.97 89.24 152.25 88.52 151.37 88.52 L 150.42 88.52 C 149.54 88.52 148.82 89.24 148.82 90.12 C 148.82 91.00 149.54 91.72 150.42 91.72 Z M 151.37 91.72 L 152.33 91.72 C 153.21 91.72 153.93 91.00 153.93 90.12 C 153.93 89.24 153.21 88.52 152.33 88.52 L 151.37 88.52 C 150.49 88.52 149.77 89.24 149.77 90.12 C 149.77 91.00 150.49 91.72 151.37 91.72 Z M 152.33 91.72 L 153.35 91.72 C 154.23 91.72 154.95 91.00 154.95 90.12 C 154.95 89.24 154.23 88.52 153.35 88.52 L 152.33 88.52 C 151.45 88.52 150.73 89.24 150.73 90.12 C 150.73 91.00 151.45 91.72 152.33 91.72 Z M 153.35 91.72 L 154.33 91.72 C 155.21 91.72 155.93 91.00 155.93 90.12 C 155.93 89.24 155.21 88.52 154.33 88.52 L 153.35 88.52 C 152.47 88.52 151.75 89.24 151.75 90.12 C 151.75 91.00 152.47 91.72 153.35 91.72 Z M 154.33 91.71 L 155.35 91.71 C 156.23 91.71 156.94 91.00 156.94 90.12 C 156.94 89.24 156.23 88.52 155.35 88.52 L 154.33 88.52 C 153.45 88.52 152.73 89.24 152.73 90.12 C 152.73 91.00 153.45 91.71 154.33 91.71 Z M 155.35 91.71 L 156.31 91.71 C 157.19 91.71 157.90 91.00 157.90 90.12 C 157.90 89.24 157.19 88.52 156.31 88.52 L 155.35 88.52 C 154.47 88.52 153.75 89.24 153.75 90.12 C 153.75 91.00 154.47 91.71 155.35 91.71 Z M 156.31 91.71 L 157.35 91.71 C 158.23 91.71 158.94 91.00 158.94 90.12 C 158.94 89.24 158.23 88.53 157.35 88.53 L 156.31 88.53 C 155.43 88.53 154.72 89.24 154.72 90.12 C 154.72 91.00 155.43 91.71 156.31 91.71 Z M 157.35 91.71 L 158.33 91.71 C 159.21 91.71 159.92 91.00 159.92 90.12 C 159.92 89.24 159.21 88.53 158.33 88.53 L 157.35 88.53 C 156.47 88.53 155.75 89.24 155.75 90.12 C 155.75 91.00 156.47 91.71 157.35 91.71 Z M 158.33 91.71 L 159.34 91.71 C 160.22 91.71 160.93 91.00 160.93 90.12 C 160.93 89.24 160.22 88.53 159.34 88.53 L 158.33 88.53 C 157.45 88.53 156.74 89.24 156.74 90.12 C 156.74 91.00 157.45 91.71 158.33 91.71 Z M 159.34 91.71 L 160.36 91.71 C 161.23 91.71 161.94 91.00 161.94 90.12 C 161.94 89.24 161.23 88.53 160.36 88.53 L 159.34 88.53 C 158.46 88.53 157.75 89.24 157.75 90.12 C 157.75 91.00 158.46 91.71 159.34 91.71 Z M 160.36 91.71 L 161.36 91.71 C 162.23 91.71 162.94 91.00 162.94 90.12 C 162.94 89.24 162.23 88.53 161.36 88.53 L 160.36 88.53 C 159.48 88.53 158.77 89.24 158.77 90.12 C 158.77 91.00 159.48 91.71 160.36 91.71 Z M 161.36 91.70 L 162.35 91.70 C 163.23 91.70 163.94 90.99 163.94 90.12 C 163.94 89.24 163.23 88.53 162.35 88.53 L 161.36 88.53 C 160.48 88.53 159.77 89.24 159.77 90.12 C 159.77 90.99 160.48 91.70 161.36 91.70 Z M 162.35 91.70 L 163.36 91.70 C 164.23 91.70 164.94 90.99 164.94 90.12 C 164.94 89.24 164.23 88.53 163.36 88.53 L 162.35 88.53 C 161.48 88.54 160.77 89.24 160.77 90.12 C 160.77 91.00 161.48 91.70 162.35 91.70 Z M 163.36 91.70 L 164.37 91.70 C 165.24 91.69 165.95 90.98 165.94 90.11 C 165.94 89.23 165.22 88.53 164.35 88.53 L 163.35 88.54 C 162.47 88.54 161.77 89.25 161.77 90.13 C 161.78 91.00 162.49 91.71 163.36 91.70 Z M 164.38 91.70 L 165.38 91.68 C 166.25 91.67 166.95 90.95 166.94 90.08 C 166.93 89.20 166.21 88.50 165.33 88.52 L 164.33 88.53 C 163.46 88.54 162.76 89.26 162.78 90.14 C 162.79 91.01 163.51 91.71 164.38 91.70 Z M 165.40 91.68 L 166.41 91.65 C 167.28 91.62 167.97 90.90 167.94 90.02 C 167.92 89.15 167.19 88.46 166.31 88.49 L 165.31 88.52 C 164.44 88.54 163.75 89.27 163.78 90.15 C 163.80 91.02 164.53 91.71 165.40 91.68 Z M 166.44 91.65 L 167.43 91.60 C 168.30 91.56 168.98 90.81 168.93 89.94 C 168.89 89.07 168.15 88.40 167.27 88.44 L 166.28 88.49 C 165.41 88.53 164.74 89.28 164.78 90.15 C 164.83 91.02 165.57 91.69 166.44 91.65 Z M 167.47 91.60 L 168.48 91.52 C 169.35 91.46 170.00 90.70 169.94 89.83 C 169.87 88.96 169.12 88.31 168.25 88.37 L 167.24 88.45 C 166.37 88.51 165.71 89.27 165.78 90.14 C 165.84 91.01 166.60 91.66 167.47 91.60 Z M 168.52 91.52 L 169.51 91.42 C 170.38 91.34 171.01 90.56 170.93 89.70 C 170.85 88.83 170.07 88.19 169.21 88.28 L 168.21 88.37 C 167.34 88.46 166.71 89.23 166.79 90.10 C 166.88 90.96 167.65 91.60 168.52 91.52 Z M 169.54 91.42 L 170.53 91.30 C 171.39 91.20 172.01 90.42 171.91 89.55 C 171.81 88.69 171.03 88.07 170.16 88.17 L 169.18 88.28 C 168.31 88.38 167.69 89.17 167.79 90.03 C 167.89 90.90 168.67 91.52 169.54 91.42 Z M 170.56 91.30 L 171.54 91.16 C 172.41 91.05 173.01 90.26 172.90 89.39 C 172.78 88.53 171.99 87.92 171.13 88.04 L 170.14 88.17 C 169.27 88.29 168.67 89.08 168.78 89.94 C 168.90 90.81 169.69 91.41 170.56 91.30 Z M 171.57 91.16 L 172.54 91.01 C 173.40 90.88 173.99 90.08 173.86 89.22 C 173.74 88.36 172.93 87.77 172.07 87.90 L 171.10 88.04 C 170.24 88.17 169.65 88.98 169.78 89.84 C 169.91 90.70 170.71 91.29 171.57 91.16 Z M 172.57 91.01 L 173.53 90.85 C 174.39 90.71 174.97 89.90 174.82 89.04 C 174.68 88.18 173.87 87.60 173.01 87.74 L 172.05 87.90 C 171.19 88.05 170.61 88.86 170.75 89.71 C 170.90 90.57 171.71 91.15 172.57 91.01 Z M 173.55 90.84 L 174.56 90.66 C 175.42 90.50 175.99 89.68 175.83 88.83 C 175.67 87.97 174.85 87.41 174.00 87.56 L 172.99 87.75 C 172.14 87.90 171.57 88.72 171.72 89.58 C 171.88 90.43 172.70 91.00 173.55 90.84 Z M 174.59 90.65 L 175.61 90.45 C 176.46 90.28 177.02 89.45 176.85 88.60 C 176.68 87.75 175.85 87.20 175.00 87.37 L 173.98 87.57 C 173.13 87.74 172.57 88.57 172.74 89.42 C 172.91 90.27 173.74 90.82 174.59 90.65 Z M 175.63 90.44 L 176.62 90.24 C 177.46 90.06 178.01 89.22 177.83 88.37 C 177.65 87.52 176.81 86.98 175.96 87.16 L 174.98 87.37 C 174.13 87.55 173.59 88.39 173.77 89.23 C 173.95 90.08 174.78 90.62 175.63 90.44 Z M 176.64 90.23 L 177.80 89.96 C 178.65 89.77 179.18 88.93 178.99 88.08 C 178.79 87.24 177.95 86.71 177.10 86.90 L 175.94 87.17 C 175.09 87.36 174.56 88.20 174.76 89.05 C 174.95 89.90 175.79 90.42 176.64 90.23 Z M 177.49 90.01 L 177.86 90.00 C 178.73 89.98 179.42 89.26 179.40 88.39 C 179.38 87.52 178.66 86.83 177.79 86.85 L 177.42 86.86 C 176.55 86.87 175.86 87.59 175.88 88.46 C 175.90 89.34 176.62 90.03 177.49 90.01 Z M 176.90 87.14 L 175.99 87.80 C 175.28 88.32 175.12 89.31 175.64 90.01 C 176.15 90.72 177.14 90.88 177.85 90.37 L 178.76 89.71 C 179.46 89.19 179.62 88.20 179.11 87.50 C 178.60 86.79 177.61 86.63 176.90 87.14 Z M 175.60 88.19 L 175.05 89.00 C 174.56 89.73 174.75 90.72 175.48 91.21 C 176.21 91.70 177.19 91.51 177.69 90.78 L 178.23 89.98 C 178.72 89.25 178.53 88.26 177.81 87.77 C 177.08 87.28 176.09 87.47 175.60 88.19 Z M 174.88 89.33 L 174.53 90.25 C 174.22 91.07 174.63 91.99 175.46 92.31 C 176.28 92.62 177.20 92.20 177.51 91.38 L 177.86 90.46 C 178.17 89.63 177.76 88.71 176.93 88.40 C 176.11 88.09 175.19 88.50 174.88 89.33 Z M 174.46 90.44 L 174.23 91.42 C 174.02 92.28 174.55 93.15 175.41 93.35 C 176.27 93.56 177.13 93.03 177.34 92.17 L 177.58 91.19 C 177.78 90.33 177.26 89.47 176.40 89.26 C 175.54 89.05 174.67 89.58 174.46 90.44 Z M 174.19 91.55 L 174.03 92.59 C 173.90 93.47 174.50 94.29 175.38 94.43 C 176.26 94.56 177.08 93.96 177.22 93.08 L 177.37 92.04 C 177.51 91.16 176.91 90.34 176.03 90.21 C 175.15 90.07 174.33 90.68 174.19 91.55 Z M 174.01 92.69 L 173.91 93.70 C 173.83 94.60 174.49 95.39 175.39 95.47 C 176.28 95.55 177.07 94.89 177.15 94.00 L 177.24 92.98 C 177.32 92.09 176.67 91.30 175.77 91.22 C 174.88 91.14 174.09 91.79 174.01 92.69 Z M 173.89 93.77 L 173.84 94.74 C 173.80 95.65 174.49 96.42 175.40 96.47 C 176.31 96.51 177.08 95.82 177.13 94.91 L 177.18 93.93 C 177.22 93.03 176.52 92.25 175.62 92.21 C 174.71 92.16 173.94 92.86 173.89 93.77 Z M 173.82 94.79 L 173.80 95.80 C 173.78 96.72 174.51 97.48 175.42 97.50 C 176.34 97.52 177.11 96.79 177.13 95.87 L 177.15 94.86 C 177.17 93.94 176.44 93.18 175.52 93.16 C 174.60 93.14 173.84 93.87 173.82 94.79 Z M 173.77 95.83 L 173.77 96.82 C 173.77 97.75 174.52 98.51 175.45 98.51 C 176.38 98.51 177.14 97.76 177.15 96.83 L 177.15 95.84 C 177.15 94.91 176.40 94.15 175.47 94.15 C 174.54 94.14 173.78 94.90 173.77 95.83 Z M 173.75 96.82 L 173.75 97.75 C 173.75 98.69 174.52 99.46 175.46 99.46 C 176.40 99.46 177.16 98.69 177.16 97.75 L 177.16 96.82 C 177.16 95.88 176.40 95.12 175.46 95.12 C 174.52 95.12 173.75 95.88 173.75 96.82 Z M 173.74 97.75 L 173.74 98.77 C 173.74 99.72 174.51 100.49 175.46 100.49 C 176.41 100.49 177.18 99.72 177.18 98.77 L 177.18 97.75 C 177.18 96.80 176.41 96.03 175.46 96.03 C 174.51 96.03 173.74 96.80 173.74 97.75 Z M 173.72 98.77 L 173.72 99.79 C 173.72 100.74 174.50 101.52 175.46 101.52 C 176.42 101.52 177.20 100.74 177.20 99.79 L 177.20 98.77 C 177.20 97.81 176.42 97.03 175.46 97.03 C 174.50 97.03 173.72 97.81 173.72 98.77 Z M 173.71 99.79 L 173.71 100.76 C 173.71 101.72 174.49 102.51 175.46 102.51 C 176.43 102.51 177.21 101.72 177.21 100.76 L 177.21 99.79 C 177.21 98.82 176.43 98.03 175.46 98.03 C 174.49 98.03 173.71 98.82 173.71 99.79 Z M 173.69 100.76 L 173.69 101.78 C 173.69 102.76 174.48 103.55 175.46 103.55 C 176.43 103.55 177.22 102.76 177.22 101.78 L 177.22 100.76 C 177.22 99.78 176.43 98.99 175.46 98.99 C 174.48 98.99 173.69 99.78 173.69 100.76 Z M 173.68 101.78 L 173.68 102.81 C 173.68 103.79 174.48 104.59 175.46 104.59 C 176.44 104.59 177.24 103.79 177.24 102.81 L 177.24 101.78 C 177.24 100.80 176.44 100.01 175.46 100.01 C 174.48 100.01 173.68 100.80 173.68 101.78 Z M 173.67 102.81 L 173.67 103.78 C 173.67 104.77 174.48 105.57 175.46 105.57 C 176.45 105.57 177.25 104.76 177.25 103.78 L 177.25 102.81 C 177.24 101.82 176.44 101.02 175.45 101.02 C 174.47 101.02 173.67 101.83 173.67 102.81 Z M 173.66 103.80 L 173.67 104.80 C 173.68 105.79 174.49 106.59 175.49 106.58 C 176.48 106.57 177.28 105.76 177.27 104.76 L 177.26 103.76 C 177.25 102.77 176.44 101.97 175.44 101.98 C 174.45 101.99 173.65 102.80 173.66 103.80 Z M 173.66 104.82 L 173.68 105.85 C 173.70 106.85 174.53 107.64 175.53 107.62 C 176.53 107.60 177.32 106.77 177.30 105.77 L 177.28 104.74 C 177.26 103.74 176.43 102.95 175.43 102.97 C 174.43 102.99 173.64 103.82 173.66 104.82 Z M 173.67 105.88 L 173.71 106.85 C 173.74 107.85 174.59 108.64 175.59 108.60 C 176.60 108.56 177.38 107.72 177.34 106.72 L 177.31 105.75 C 177.27 104.74 176.43 103.96 175.43 103.99 C 174.42 104.03 173.64 104.87 173.67 105.88 Z M 173.70 106.87 L 173.75 107.85 C 173.80 108.86 174.66 109.64 175.67 109.59 C 176.68 109.54 177.45 108.68 177.40 107.67 L 177.35 106.69 C 177.30 105.68 176.44 104.91 175.43 104.96 C 174.43 105.01 173.65 105.87 173.70 106.87 Z M 173.74 107.88 L 173.81 108.89 C 173.87 109.90 174.74 110.67 175.76 110.60 C 176.77 110.54 177.54 109.67 177.47 108.66 L 177.41 107.65 C 177.35 106.63 176.47 105.86 175.46 105.93 C 174.45 105.99 173.68 106.87 173.74 107.88 Z M 173.80 108.91 L 173.88 109.95 C 173.95 110.96 174.84 111.72 175.86 111.65 C 176.87 111.57 177.63 110.69 177.56 109.67 L 177.48 108.63 C 177.40 107.62 176.52 106.85 175.50 106.93 C 174.48 107.01 173.72 107.89 173.80 108.91 Z M 173.87 109.97 L 173.95 110.93 C 174.04 111.95 174.94 112.70 175.96 112.61 C 176.98 112.53 177.73 111.63 177.65 110.61 L 177.56 109.65 C 177.48 108.63 176.58 107.87 175.56 107.96 C 174.54 108.05 173.78 108.95 173.87 109.97 Z M 173.95 110.94 L 174.04 111.91 C 174.14 112.93 175.04 113.68 176.06 113.58 C 177.09 113.49 177.83 112.58 177.74 111.56 L 177.65 110.60 C 177.55 109.58 176.65 108.83 175.63 108.92 C 174.61 109.02 173.86 109.92 173.95 110.94 Z M 174.04 111.92 L 174.14 112.91 C 174.24 113.93 175.15 114.68 176.17 114.58 C 177.20 114.48 177.94 113.57 177.84 112.55 L 177.74 111.55 C 177.64 110.53 176.73 109.78 175.71 109.89 C 174.69 109.99 173.94 110.90 174.04 111.92 Z M 174.14 112.92 L 174.24 113.95 C 174.35 114.97 175.26 115.71 176.28 115.61 C 177.31 115.50 178.05 114.59 177.95 113.57 L 177.84 112.54 C 177.74 111.52 176.82 110.77 175.80 110.88 C 174.78 110.98 174.03 111.90 174.14 112.92 Z M 174.24 113.95 L 174.34 114.96 C 174.45 115.98 175.37 116.73 176.39 116.62 C 177.41 116.51 178.16 115.60 178.05 114.57 L 177.95 113.57 C 177.84 112.54 176.93 111.80 175.90 111.90 C 174.88 112.01 174.13 112.92 174.24 113.95 Z M 174.34 114.96 L 174.44 115.89 C 174.54 116.92 175.46 117.66 176.49 117.56 C 177.51 117.45 178.26 116.53 178.15 115.51 L 178.06 114.57 C 177.95 113.55 177.03 112.80 176.01 112.91 C 174.98 113.01 174.24 113.93 174.34 114.96 Z M 174.43 115.89 L 174.53 116.86 C 174.64 117.88 175.56 118.63 176.59 118.52 C 177.61 118.42 178.36 117.50 178.25 116.47 L 178.16 115.51 C 178.05 114.48 177.13 113.73 176.10 113.84 C 175.08 113.94 174.33 114.86 174.43 115.89 Z M 174.53 116.86 L 174.64 117.86 C 174.74 118.89 175.66 119.63 176.69 119.53 C 177.72 119.42 178.47 118.50 178.36 117.47 L 178.26 116.47 C 178.15 115.44 177.23 114.69 176.20 114.80 C 175.17 114.91 174.43 115.83 174.53 116.86 Z M 174.63 117.86 L 174.74 118.89 C 174.85 119.92 175.77 120.67 176.80 120.56 C 177.83 120.46 178.58 119.53 178.47 118.50 L 178.36 117.47 C 178.25 116.44 177.33 115.69 176.30 115.80 C 175.27 115.91 174.53 116.83 174.63 117.86 Z M 174.74 118.90 L 174.85 119.96 C 174.96 120.99 175.88 121.74 176.92 121.63 C 177.95 121.52 178.69 120.60 178.59 119.56 L 178.47 118.50 C 178.36 117.47 177.44 116.72 176.41 116.83 C 175.38 116.94 174.63 117.87 174.74 118.90 Z M 174.85 119.96 L 174.95 120.88 C 175.06 121.91 175.98 122.66 177.02 122.55 C 178.05 122.44 178.79 121.51 178.68 120.48 L 178.59 119.56 C 178.48 118.53 177.55 117.78 176.52 117.89 C 175.49 118.00 174.74 118.93 174.85 119.96 Z M 174.95 120.88 L 175.05 121.83 C 175.16 122.86 176.09 123.61 177.12 123.49 C 178.15 123.38 178.90 122.46 178.79 121.42 L 178.68 120.48 C 178.57 119.45 177.65 118.70 176.62 118.81 C 175.58 118.92 174.84 119.85 174.95 120.88 Z M 175.05 121.83 L 175.15 122.80 C 175.27 123.83 176.19 124.58 177.23 124.47 C 178.26 124.36 179.00 123.43 178.89 122.40 L 178.79 121.42 C 178.68 120.39 177.75 119.65 176.72 119.76 C 175.68 119.87 174.94 120.80 175.05 121.83 Z M 175.15 122.80 L 175.26 123.80 C 175.37 124.84 176.30 125.58 177.33 125.47 C 178.37 125.36 179.11 124.43 179.00 123.40 L 178.89 122.40 C 178.78 121.37 177.85 120.62 176.82 120.73 C 175.79 120.84 175.04 121.77 175.15 122.80 Z M 175.26 123.80 L 175.37 124.84 C 175.48 125.87 176.41 126.62 177.44 126.51 C 178.48 126.40 179.22 125.47 179.11 124.44 L 179.00 123.40 C 178.89 122.37 177.96 121.62 176.93 121.73 C 175.90 121.84 175.15 122.77 175.26 123.80 Z M 175.37 124.84 L 175.48 125.90 C 175.59 126.93 176.52 127.68 177.55 127.57 C 178.59 127.46 179.34 126.54 179.23 125.50 L 179.11 124.44 C 179.00 123.40 178.08 122.66 177.04 122.77 C 176.01 122.88 175.26 123.80 175.37 124.84 Z M 175.48 125.90 L 175.59 126.90 C 175.70 127.94 176.62 128.69 177.66 128.58 C 178.69 128.47 179.44 127.54 179.33 126.51 L 179.23 125.50 C 179.12 124.47 178.19 123.72 177.16 123.83 C 176.13 123.94 175.37 124.86 175.48 125.90 Z M 175.59 126.90 L 175.69 127.88 C 175.80 128.92 176.72 129.67 177.76 129.56 C 178.79 129.45 179.54 128.53 179.44 127.49 L 179.33 126.51 C 179.23 125.48 178.30 124.73 177.27 124.83 C 176.23 124.94 175.48 125.87 175.59 126.90 Z M 175.69 127.88 L 175.79 128.88 C 175.90 129.91 176.83 130.67 177.86 130.56 C 178.90 130.45 179.65 129.52 179.54 128.49 L 179.44 127.49 C 179.33 126.46 178.40 125.71 177.37 125.81 C 176.33 125.92 175.58 126.85 175.69 127.88 Z M 175.79 128.88 L 175.90 129.89 C 176.00 130.92 176.93 131.67 177.97 131.57 C 179.00 131.46 179.76 130.53 179.65 129.49 L 179.54 128.49 C 179.43 127.45 178.51 126.70 177.47 126.81 C 176.43 126.92 175.68 127.85 175.79 128.88 Z M 175.90 129.89 L 176.00 130.90 C 176.11 131.93 177.04 132.68 178.08 132.57 C 179.11 132.46 179.86 131.54 179.75 130.50 L 179.65 129.49 C 179.54 128.46 178.61 127.70 177.57 127.81 C 176.54 127.92 175.79 128.85 175.90 129.89 Z M 176.00 130.90 L 176.11 131.91 C 176.22 132.94 177.15 133.69 178.19 133.58 C 179.23 133.47 179.98 132.54 179.86 131.50 L 179.76 130.50 C 179.64 129.46 178.71 128.71 177.68 128.82 C 176.64 128.93 175.89 129.86 176.00 130.90 Z M 176.11 131.91 L 176.22 132.91 C 176.33 133.94 177.27 134.69 178.30 134.58 C 179.34 134.46 180.09 133.53 179.97 132.49 L 179.86 131.50 C 179.75 130.46 178.82 129.71 177.78 129.83 C 176.74 129.94 175.99 130.87 176.11 131.91 Z M 176.22 132.91 L 176.33 133.91 C 176.45 134.95 177.39 135.70 178.42 135.58 C 179.46 135.46 180.21 134.52 180.09 133.49 L 179.97 132.49 C 179.86 131.45 178.92 130.70 177.88 130.82 C 176.85 130.94 176.10 131.88 176.22 132.91 Z M 176.33 133.92 L 176.45 134.93 C 176.57 135.97 177.51 136.71 178.55 136.59 C 179.59 136.47 180.33 135.53 180.21 134.49 L 180.09 133.48 C 179.97 132.44 179.03 131.70 177.99 131.82 C 176.95 131.94 176.21 132.88 176.33 133.92 Z M 176.45 134.94 L 176.57 135.94 C 176.70 136.98 177.64 137.72 178.68 137.59 C 179.71 137.46 180.45 136.52 180.33 135.48 L 180.21 134.49 C 180.08 133.45 179.14 132.71 178.10 132.83 C 177.06 132.96 176.33 133.90 176.45 134.94 Z M 176.57 135.94 L 176.69 136.93 C 176.82 137.97 177.76 138.71 178.80 138.58 C 179.84 138.45 180.58 137.51 180.45 136.47 L 180.33 135.48 C 180.20 134.44 179.26 133.70 178.22 133.83 C 177.18 133.96 176.44 134.90 176.57 135.94 Z M 176.69 136.93 L 176.81 137.92 C 176.94 138.95 177.89 139.69 178.93 139.56 C 179.97 139.43 180.70 138.49 180.57 137.45 L 180.45 136.47 C 180.32 135.43 179.38 134.69 178.34 134.82 C 177.30 134.95 176.56 135.90 176.69 136.93 Z M 176.81 137.92 L 176.94 138.90 C 177.07 139.94 178.01 140.67 179.05 140.54 C 180.09 140.41 180.83 139.46 180.70 138.43 L 180.57 137.45 C 180.44 136.41 179.50 135.67 178.46 135.80 C 177.42 135.93 176.68 136.88 176.81 137.92 Z M 176.93 138.90 L 177.06 139.88 C 177.19 140.92 178.14 141.66 179.18 141.53 C 180.21 141.40 180.95 140.45 180.82 139.41 L 180.70 138.43 C 180.57 137.39 179.62 136.65 178.58 136.78 C 177.54 136.91 176.80 137.86 176.93 138.90 Z M 177.06 139.88 L 177.18 140.85 C 177.31 141.89 178.25 142.63 179.29 142.50 C 180.33 142.37 181.07 141.42 180.94 140.38 L 180.82 139.41 C 180.69 138.37 179.75 137.63 178.71 137.76 C 177.67 137.89 176.93 138.84 177.06 139.88 Z M 177.18 140.85 L 177.29 141.81 C 177.42 142.85 178.37 143.59 179.41 143.46 C 180.45 143.33 181.19 142.39 181.06 141.35 L 180.94 140.39 C 180.82 139.35 179.87 138.61 178.83 138.73 C 177.79 138.86 177.05 139.81 177.18 140.85 Z M 177.29 141.81 L 177.41 142.78 C 177.54 143.82 178.49 144.56 179.53 144.43 C 180.57 144.31 181.31 143.36 181.18 142.32 L 181.06 141.35 C 180.94 140.31 179.99 139.57 178.95 139.69 C 177.91 139.82 177.17 140.77 177.29 141.81 Z M 177.41 142.78 L 177.53 143.76 C 177.66 144.80 178.60 145.54 179.64 145.42 C 180.69 145.29 181.43 144.34 181.30 143.30 L 181.18 142.32 C 181.06 141.28 180.11 140.54 179.07 140.66 C 178.03 140.79 177.29 141.74 177.41 142.78 Z M 177.53 143.76 L 177.65 144.75 C 177.78 145.80 178.72 146.54 179.76 146.41 C 180.81 146.29 181.55 145.34 181.42 144.30 L 181.30 143.30 C 181.18 142.26 180.23 141.52 179.19 141.64 C 178.15 141.77 177.40 142.72 177.53 143.76 Z M 177.65 144.75 L 177.77 145.76 C 177.90 146.80 178.85 147.55 179.89 147.42 C 180.93 147.29 181.67 146.35 181.55 145.31 L 181.42 144.30 C 181.30 143.26 180.35 142.51 179.31 142.64 C 178.27 142.77 177.52 143.71 177.65 144.75 Z M 177.77 145.76 L 177.90 146.79 C 178.02 147.83 178.97 148.57 180.01 148.44 C 181.05 148.32 181.80 147.37 181.67 146.33 L 181.55 145.30 C 181.42 144.26 180.47 143.52 179.43 143.65 C 178.39 143.77 177.65 144.72 177.77 145.76 Z M 177.90 146.79 L 178.02 147.81 C 178.15 148.85 179.09 149.59 180.14 149.46 C 181.18 149.34 181.92 148.39 181.79 147.35 L 181.67 146.33 C 181.54 145.28 180.60 144.54 179.55 144.67 C 178.51 144.80 177.77 145.74 177.90 146.79 Z M 178.02 147.81 L 178.14 148.78 C 178.27 149.82 179.22 150.56 180.26 150.43 C 181.30 150.30 182.04 149.35 181.91 148.31 L 181.79 147.34 C 181.67 146.30 180.72 145.56 179.68 145.69 C 178.63 145.82 177.89 146.76 178.02 147.81 Z M 178.14 148.78 L 178.26 149.76 C 178.39 150.80 179.34 151.54 180.38 151.41 C 181.42 151.28 182.16 150.33 182.04 149.29 L 181.91 148.31 C 181.78 147.27 180.83 146.53 179.79 146.66 C 178.75 146.78 178.01 147.73 178.14 148.78 Z M 178.26 149.76 L 178.38 150.75 C 178.51 151.79 179.46 152.53 180.51 152.40 C 181.55 152.27 182.29 151.32 182.16 150.28 L 182.04 149.29 C 181.90 148.24 180.95 147.51 179.91 147.64 C 178.87 147.77 178.13 148.72 178.26 149.76 Z M 178.38 150.75 L 178.51 151.75 C 178.64 152.79 179.59 153.53 180.64 153.40 C 181.68 153.26 182.42 152.31 182.29 151.27 L 182.16 150.27 C 182.03 149.23 181.07 148.49 180.03 148.62 C 178.99 148.76 178.25 149.71 178.38 150.75 Z M 178.51 151.75 L 178.64 152.75 C 178.77 153.80 179.73 154.53 180.77 154.40 C 181.81 154.26 182.55 153.31 182.41 152.27 L 182.29 151.27 C 182.15 150.22 181.20 149.49 180.15 149.62 C 179.11 149.76 178.38 150.71 178.51 151.75 Z M 178.64 152.76 L 178.77 153.76 C 178.91 154.80 179.86 155.54 180.90 155.40 C 181.95 155.27 182.68 154.31 182.55 153.27 L 182.41 152.26 C 182.28 151.22 181.32 150.49 180.28 150.62 C 179.24 150.76 178.50 151.71 178.64 152.76 Z M 178.77 153.77 L 178.90 154.77 C 179.04 155.81 180.00 156.55 181.04 156.41 C 182.09 156.27 182.82 155.31 182.68 154.27 L 182.55 153.26 C 182.41 152.22 181.45 151.49 180.41 151.63 C 179.36 151.77 178.63 152.72 178.77 153.77 Z M 178.90 154.78 L 179.04 155.78 C 179.18 156.82 180.14 157.55 181.19 157.41 C 182.23 157.27 182.96 156.31 182.82 155.27 L 182.68 154.26 C 182.54 153.22 181.58 152.49 180.53 152.63 C 179.49 152.77 178.76 153.73 178.90 154.78 Z M 179.04 155.79 L 179.18 156.79 C 179.33 157.84 180.29 158.56 181.33 158.42 C 182.37 158.27 183.10 157.31 182.96 156.27 L 182.82 155.26 C 182.67 154.22 181.71 153.49 180.67 153.64 C 179.62 153.78 178.90 154.75 179.04 155.79 Z M 179.18 156.80 L 179.33 157.80 C 179.47 158.84 180.44 159.57 181.48 159.42 C 182.52 159.27 183.25 158.31 183.10 157.27 L 182.95 156.26 C 182.81 155.22 181.84 154.50 180.80 154.65 C 179.76 154.79 179.04 155.76 179.18 156.80 Z M 179.33 157.81 L 179.47 158.81 C 179.62 159.85 180.59 160.57 181.63 160.42 C 182.67 160.27 183.39 159.30 183.24 158.26 L 183.10 157.26 C 182.94 156.22 181.98 155.50 180.94 155.65 C 179.90 155.80 179.18 156.77 179.33 157.81 Z M 179.47 158.81 L 179.62 159.80 C 179.77 160.84 180.74 161.56 181.78 161.41 C 182.82 161.25 183.54 160.28 183.39 159.24 L 183.24 158.25 C 183.09 157.21 182.12 156.49 181.08 156.65 C 180.04 156.80 179.32 157.77 179.47 158.81 Z M 179.62 159.81 L 179.77 160.79 C 179.93 161.83 180.90 162.55 181.94 162.39 C 182.98 162.23 183.69 161.26 183.54 160.22 L 183.39 159.24 C 183.23 158.20 182.26 157.48 181.22 157.64 C 180.18 157.80 179.46 158.77 179.62 159.81 Z M 179.77 160.80 L 179.92 161.78 C 180.08 162.81 181.05 163.53 182.09 163.37 C 183.13 163.21 183.85 162.23 183.68 161.19 L 183.53 160.22 C 183.37 159.18 182.40 158.47 181.36 158.63 C 180.32 158.79 179.61 159.76 179.77 160.80 Z M 179.92 161.78 L 180.08 162.75 C 180.24 163.79 181.21 164.50 182.25 164.33 C 183.29 164.17 184.00 163.19 183.84 162.16 L 183.68 161.19 C 183.52 160.15 182.55 159.44 181.51 159.60 C 180.47 159.77 179.76 160.74 179.92 161.78 Z M 180.08 162.75 L 180.23 163.74 C 180.40 164.77 181.38 165.48 182.42 165.31 C 183.45 165.15 184.16 164.17 183.99 163.13 L 183.84 162.15 C 183.67 161.11 182.69 160.41 181.65 160.57 C 180.62 160.74 179.91 161.72 180.08 162.75 Z M 180.24 163.74 L 180.40 164.73 C 180.57 165.77 181.55 166.47 182.58 166.30 C 183.62 166.13 184.32 165.15 184.15 164.11 L 183.99 163.13 C 183.82 162.09 182.84 161.39 181.81 161.56 C 180.77 161.73 180.07 162.70 180.24 163.74 Z M 180.40 164.74 L 180.56 165.72 C 180.74 166.75 181.72 167.45 182.75 167.28 C 183.79 167.11 184.49 166.13 184.32 165.09 L 184.15 164.11 C 183.98 163.07 183.00 162.37 181.96 162.54 C 180.93 162.72 180.23 163.70 180.40 164.74 Z M 180.56 165.72 L 180.73 166.70 C 180.91 167.74 181.89 168.43 182.93 168.26 C 183.96 168.08 184.66 167.10 184.48 166.06 L 184.32 165.08 C 184.14 164.05 183.16 163.35 182.12 163.53 C 181.08 163.70 180.39 164.69 180.56 165.72 Z M 180.73 166.71 L 180.90 167.69 C 181.08 168.72 182.06 169.42 183.10 169.24 C 184.14 169.06 184.83 168.07 184.65 167.04 L 184.48 166.06 C 184.30 165.02 183.32 164.33 182.28 164.51 C 181.25 164.69 180.55 165.67 180.73 166.71 Z M 180.90 167.69 L 181.07 168.67 C 181.25 169.71 182.24 170.40 183.28 170.22 C 184.31 170.04 185.00 169.05 184.82 168.02 L 184.65 167.03 C 184.47 166.00 183.48 165.31 182.45 165.49 C 181.41 165.67 180.72 166.65 180.90 167.69 Z M 181.07 168.68 L 181.25 169.66 C 181.43 170.70 182.42 171.39 183.45 171.21 C 184.49 171.02 185.18 170.03 185.00 169.00 L 184.82 168.01 C 184.64 166.98 183.65 166.29 182.62 166.47 C 181.58 166.65 180.89 167.64 181.07 168.68 Z M 181.25 169.67 L 181.43 170.66 C 181.61 171.70 182.60 172.38 183.64 172.20 C 184.67 172.01 185.36 171.03 185.17 169.99 L 185.00 169.00 C 184.81 167.96 183.82 167.27 182.79 167.46 C 181.75 167.64 181.07 168.63 181.25 169.67 Z M 181.43 170.66 L 181.61 171.65 C 181.79 172.68 182.78 173.37 183.82 173.18 C 184.85 173.00 185.54 172.01 185.35 170.97 L 185.17 169.99 C 184.99 168.96 184.00 168.27 182.96 168.46 C 181.93 168.64 181.24 169.63 181.43 170.66 Z M 181.61 171.65 L 181.79 172.64 C 181.98 173.68 182.97 174.36 184.00 174.17 C 185.03 173.98 185.72 172.99 185.53 171.96 L 185.35 170.97 C 185.16 169.94 184.17 169.25 183.14 169.44 C 182.10 169.63 181.42 170.62 181.61 171.65 Z M 181.79 172.65 L 181.97 173.64 C 182.16 174.67 183.15 175.36 184.19 175.17 C 185.22 174.98 185.90 173.98 185.71 172.95 L 185.53 171.96 C 185.34 170.92 184.35 170.24 183.31 170.43 C 182.28 170.62 181.60 171.61 181.79 172.65 Z M 181.97 173.64 L 182.16 174.64 C 182.35 175.67 183.34 176.35 184.38 176.16 C 185.41 175.96 186.09 174.97 185.90 173.94 L 185.71 172.95 C 185.52 171.92 184.53 171.24 183.49 171.43 C 182.46 171.62 181.78 172.61 181.97 173.64 Z M 182.16 174.64 L 182.35 175.63 C 182.54 176.66 183.54 177.34 184.57 177.14 C 185.60 176.95 186.28 175.95 186.08 174.92 L 185.89 173.94 C 185.70 172.90 184.70 172.23 183.67 172.42 C 182.64 172.62 181.97 173.61 182.16 174.64 Z M 182.35 175.64 L 182.54 176.62 C 182.74 177.65 183.73 178.32 184.76 178.12 C 185.79 177.92 186.47 176.93 186.27 175.90 L 186.08 174.92 C 185.88 173.89 184.89 173.21 183.86 173.41 C 182.83 173.61 182.15 174.61 182.35 175.64 Z M 182.54 176.62 L 182.73 177.59 C 182.93 178.62 183.93 179.29 184.96 179.09 C 185.99 178.88 186.66 177.89 186.46 176.86 L 186.27 175.89 C 186.07 174.86 185.07 174.19 184.04 174.39 C 183.01 174.59 182.34 175.59 182.54 176.62 Z M 182.73 177.60 L 182.93 178.59 C 183.14 179.62 184.14 180.29 185.17 180.08 C 186.19 179.88 186.86 178.88 186.65 177.85 L 186.45 176.85 C 186.25 175.82 185.25 175.16 184.22 175.36 C 183.19 175.57 182.53 176.57 182.73 177.60 Z M 182.93 178.60 L 183.15 179.64 C 183.36 180.66 184.36 181.33 185.39 181.12 C 186.41 180.91 187.07 179.90 186.86 178.88 L 186.65 177.84 C 186.44 176.81 185.44 176.15 184.41 176.36 C 183.38 176.57 182.72 177.58 182.93 178.60 Z M 183.15 179.65 L 183.36 180.66 C 183.58 181.68 184.58 182.34 185.61 182.12 C 186.63 181.91 187.29 180.90 187.07 179.88 L 186.86 178.87 C 186.65 177.84 185.64 177.18 184.61 177.40 C 183.59 177.62 182.93 178.62 183.15 179.65 Z M 183.36 180.67 L 183.58 181.66 C 183.80 182.68 184.81 183.33 185.83 183.11 C 186.86 182.89 187.51 181.88 187.28 180.86 L 187.07 179.87 C 186.85 178.84 185.84 178.19 184.82 178.41 C 183.79 178.64 183.14 179.64 183.36 180.67 Z M 183.58 181.67 L 183.80 182.63 C 184.02 183.65 185.04 184.30 186.06 184.07 C 187.08 183.84 187.72 182.83 187.50 181.81 L 187.28 180.84 C 187.05 179.82 186.04 179.18 185.02 179.41 C 184.00 179.63 183.35 180.65 183.58 181.67 Z M 183.80 182.64 L 184.01 183.58 C 184.25 184.60 185.26 185.24 186.28 185.01 C 187.30 184.77 187.94 183.76 187.71 182.74 L 187.49 181.80 C 187.26 180.78 186.24 180.14 185.22 180.37 C 184.20 180.61 183.57 181.62 183.80 182.64 Z M 184.02 183.60 L 184.23 184.51 C 184.48 185.53 185.50 186.16 186.51 185.92 C 187.53 185.68 188.16 184.66 187.92 183.64 L 187.70 182.73 C 187.46 181.71 186.44 181.08 185.43 181.32 C 184.41 181.56 183.78 182.58 184.02 183.60 Z M 184.24 184.53 L 184.48 185.51 C 184.73 186.53 185.75 187.15 186.77 186.90 C 187.78 186.65 188.41 185.63 188.16 184.61 L 187.92 183.63 C 187.67 182.61 186.64 181.99 185.63 182.24 C 184.61 182.49 183.99 183.51 184.24 184.53 Z M 184.49 185.53 L 184.74 186.55 C 185.00 187.56 186.03 188.18 187.05 187.92 C 188.06 187.66 188.67 186.63 188.41 185.62 L 188.15 184.60 C 187.90 183.58 186.87 182.97 185.85 183.23 C 184.84 183.49 184.23 184.52 184.49 185.53 Z M 184.75 186.57 L 185.01 187.56 C 185.28 188.57 186.32 189.17 187.33 188.90 C 188.34 188.63 188.94 187.60 188.67 186.59 L 188.41 185.60 C 188.14 184.59 187.10 183.99 186.09 184.26 C 185.08 184.52 184.48 185.56 184.75 186.57 Z M 185.02 187.58 L 185.29 188.54 C 185.56 189.54 186.61 190.13 187.61 189.85 C 188.62 189.57 189.21 188.53 188.93 187.53 L 188.66 186.57 C 188.38 185.56 187.34 184.97 186.34 185.25 C 185.33 185.53 184.74 186.57 185.02 187.58 Z M 185.29 188.56 L 185.56 189.49 C 185.85 190.49 186.90 191.07 187.90 190.77 C 188.91 190.48 189.48 189.44 189.19 188.43 L 188.92 187.50 C 188.63 186.50 187.58 185.93 186.58 186.22 C 185.58 186.51 185.00 187.56 185.29 188.56 Z M 185.57 189.51 L 185.84 190.41 C 186.15 191.41 187.20 191.97 188.20 191.66 C 189.20 191.36 189.76 190.31 189.46 189.31 L 189.18 188.41 C 188.88 187.41 187.82 186.85 186.83 187.15 C 185.83 187.46 185.27 188.51 185.57 189.51 Z M 185.85 190.44 L 186.17 191.41 C 186.49 192.40 187.55 192.95 188.54 192.63 C 189.53 192.31 190.08 191.25 189.76 190.26 L 189.45 189.28 C 189.13 188.29 188.07 187.74 187.07 188.06 C 186.08 188.38 185.53 189.44 185.85 190.44 Z M 186.18 191.44 L 186.51 192.42 C 186.84 193.40 187.91 193.93 188.90 193.60 C 189.89 193.26 190.41 192.19 190.08 191.20 L 189.75 190.23 C 189.41 189.24 188.34 188.71 187.36 189.05 C 186.37 189.38 185.84 190.45 186.18 191.44 Z M 186.52 192.44 L 186.86 193.39 C 187.20 194.37 188.28 194.88 189.26 194.53 C 190.24 194.18 190.75 193.10 190.41 192.12 L 190.07 191.18 C 189.72 190.20 188.64 189.69 187.66 190.03 C 186.68 190.38 186.17 191.46 186.52 192.44 Z M 186.87 193.41 L 187.21 194.33 C 187.57 195.30 188.65 195.80 189.63 195.44 C 190.60 195.07 191.10 193.99 190.74 193.02 L 190.40 192.10 C 190.03 191.12 188.95 190.63 187.98 190.99 C 187.00 191.35 186.50 192.44 186.87 193.41 Z M 187.22 194.35 L 187.56 195.24 C 187.93 196.21 189.02 196.69 189.99 196.32 C 190.96 195.95 191.44 194.86 191.07 193.89 L 190.73 193.00 C 190.35 192.03 189.26 191.54 188.29 191.92 C 187.33 192.29 186.84 193.38 187.22 194.35 Z M 187.57 195.26 L 187.94 196.19 C 188.32 197.16 189.42 197.63 190.38 197.24 C 191.35 196.86 191.82 195.77 191.43 194.80 L 191.06 193.87 C 190.68 192.91 189.59 192.43 188.62 192.82 C 187.66 193.20 187.19 194.29 187.57 195.26 Z M 187.95 196.21 L 188.33 197.14 C 188.72 198.10 189.82 198.56 190.78 198.17 C 191.74 197.78 192.20 196.69 191.81 195.73 L 191.43 194.79 C 191.03 193.83 189.94 193.37 188.98 193.76 C 188.02 194.15 187.56 195.25 187.95 196.21 Z M 188.34 197.15 L 188.72 198.08 C 189.11 199.03 190.21 199.49 191.17 199.09 C 192.13 198.69 192.58 197.59 192.18 196.64 L 191.80 195.72 C 191.40 194.76 190.31 194.30 189.35 194.70 C 188.39 195.10 187.94 196.20 188.34 197.15 Z M 188.72 198.08 L 189.10 198.99 C 189.50 199.95 190.60 200.40 191.56 200.00 C 192.51 199.59 192.96 198.50 192.56 197.54 L 192.18 196.63 C 191.78 195.68 190.68 195.23 189.73 195.63 C 188.77 196.03 188.32 197.13 188.72 198.08 Z M 189.11 198.99 L 189.49 199.90 C 189.89 200.85 190.99 201.30 191.94 200.90 C 192.89 200.50 193.34 199.40 192.94 198.45 L 192.56 197.54 C 192.16 196.59 191.06 196.14 190.11 196.54 C 189.15 196.94 188.71 198.04 189.11 198.99 Z M 189.49 199.90 L 189.87 200.82 C 190.27 201.77 191.37 202.22 192.32 201.82 C 193.27 201.42 193.72 200.32 193.32 199.37 L 192.94 198.45 C 192.54 197.50 191.44 197.05 190.49 197.45 C 189.54 197.85 189.09 198.95 189.49 199.90 Z M 189.88 200.82 L 190.26 201.73 C 190.66 202.68 191.76 203.13 192.71 202.73 C 193.66 202.33 194.11 201.24 193.71 200.29 L 193.32 199.37 C 192.92 198.42 191.83 197.97 190.88 198.37 C 189.92 198.77 189.48 199.87 189.88 200.82 Z M 190.27 201.74 L 190.66 202.66 C 191.06 203.61 192.15 204.05 193.10 203.65 C 194.05 203.24 194.49 202.15 194.09 201.20 L 193.70 200.28 C 193.30 199.34 192.21 198.89 191.26 199.29 C 190.31 199.70 189.87 200.79 190.27 201.74 Z M 190.66 202.66 L 191.06 203.59 C 191.47 204.53 192.56 204.97 193.51 204.56 C 194.45 204.16 194.89 203.06 194.48 202.12 L 194.08 201.20 C 193.68 200.25 192.58 199.81 191.64 200.22 C 190.70 200.63 190.26 201.72 190.66 202.66 Z M 191.07 203.60 L 191.48 204.54 C 191.89 205.48 192.98 205.91 193.92 205.50 C 194.87 205.08 195.29 203.99 194.88 203.05 L 194.47 202.11 C 194.06 201.17 192.97 200.74 192.03 201.15 C 191.09 201.56 190.66 202.66 191.07 203.60 Z M 191.49 204.55 L 191.90 205.49 C 192.32 206.42 193.42 206.84 194.35 206.43 C 195.29 206.01 195.71 204.91 195.29 203.98 L 194.88 203.04 C 194.46 202.10 193.36 201.68 192.43 202.10 C 191.49 202.51 191.07 203.61 191.49 204.55 Z M 191.91 205.49 L 192.33 206.42 C 192.75 207.35 193.85 207.76 194.78 207.34 C 195.71 206.92 196.12 205.82 195.70 204.89 L 195.29 203.97 C 194.86 203.04 193.77 202.62 192.84 203.04 C 191.90 203.47 191.49 204.56 191.91 205.49 Z M 192.34 206.43 L 192.75 207.32 C 193.17 208.25 194.27 208.65 195.20 208.23 C 196.13 207.80 196.53 206.70 196.11 205.78 L 195.70 204.88 C 195.27 203.96 194.17 203.55 193.24 203.97 C 192.32 204.40 191.91 205.50 192.34 206.43 Z M 192.75 207.33 L 193.17 208.22 C 193.60 209.14 194.70 209.54 195.62 209.11 C 196.54 208.68 196.94 207.58 196.51 206.66 L 196.10 205.77 C 195.67 204.84 194.57 204.44 193.65 204.88 C 192.72 205.31 192.32 206.40 192.75 207.33 Z M 193.18 208.23 L 193.64 209.18 C 194.07 210.10 195.17 210.49 196.09 210.05 C 197.00 209.61 197.39 208.52 196.96 207.60 L 196.50 206.65 C 196.06 205.73 194.97 205.34 194.05 205.78 C 193.13 206.21 192.74 207.31 193.18 208.23 Z M 193.65 209.20 L 194.09 210.09 C 194.54 211.00 195.64 211.37 196.54 210.93 C 197.45 210.48 197.82 209.38 197.38 208.47 L 196.94 207.58 C 196.49 206.67 195.39 206.30 194.49 206.75 C 193.58 207.19 193.21 208.29 193.65 209.20 Z M 194.11 210.12 L 194.55 210.96 C 195.01 211.86 196.11 212.21 197.00 211.75 C 197.90 211.29 198.25 210.19 197.79 209.30 L 197.36 208.45 C 196.90 207.55 195.80 207.20 194.90 207.66 C 194.01 208.12 193.65 209.22 194.11 210.12 Z M 194.57 210.99 L 195.04 211.87 C 195.52 212.75 196.62 213.08 197.51 212.60 C 198.39 212.12 198.72 211.02 198.24 210.14 L 197.77 209.27 C 197.29 208.38 196.19 208.06 195.31 208.53 C 194.42 209.01 194.10 210.11 194.57 210.99 Z M 195.08 211.90 L 195.58 212.78 C 196.08 213.65 197.18 213.94 198.05 213.45 C 198.91 212.95 199.21 211.85 198.71 210.98 L 198.21 210.10 C 197.71 209.24 196.61 208.94 195.74 209.43 C 194.88 209.93 194.58 211.04 195.08 211.90 Z M 195.61 212.82 L 196.13 213.66 C 196.65 214.51 197.75 214.78 198.60 214.26 C 199.45 213.74 199.71 212.63 199.20 211.79 L 198.68 210.94 C 198.16 210.10 197.06 209.83 196.21 210.35 C 195.36 210.87 195.10 211.97 195.61 212.82 Z M 196.17 213.70 L 196.71 214.53 C 197.25 215.36 198.36 215.59 199.18 215.05 C 200.01 214.51 200.24 213.40 199.70 212.58 L 199.16 211.75 C 198.62 210.92 197.51 210.69 196.69 211.23 C 195.86 211.77 195.63 212.88 196.17 213.70 Z M 196.75 214.57 L 197.34 215.41 C 197.90 216.21 199.01 216.40 199.81 215.84 C 200.61 215.28 200.80 214.18 200.24 213.37 L 199.66 212.54 C 199.10 211.74 197.99 211.54 197.19 212.10 C 196.39 212.66 196.19 213.77 196.75 214.57 Z M 197.38 215.44 L 197.97 216.24 C 198.55 217.01 199.65 217.17 200.43 216.59 C 201.21 216.01 201.37 214.91 200.79 214.13 L 200.20 213.34 C 199.62 212.56 198.52 212.40 197.74 212.98 C 196.96 213.56 196.80 214.66 197.38 215.44 Z M 198.01 216.26 L 198.62 217.04 C 199.22 217.79 200.31 217.92 201.07 217.33 C 201.83 216.73 201.96 215.64 201.36 214.88 L 200.75 214.11 C 200.16 213.35 199.06 213.22 198.30 213.81 C 197.55 214.41 197.42 215.51 198.01 216.26 Z M 198.66 217.05 L 199.30 217.83 C 199.91 218.57 201.00 218.68 201.73 218.07 C 202.47 217.46 202.57 216.38 201.97 215.64 L 201.32 214.86 C 200.72 214.12 199.63 214.02 198.89 214.63 C 198.16 215.23 198.05 216.32 198.66 217.05 Z M 199.33 217.84 L 199.98 218.60 C 200.59 219.31 201.66 219.40 202.38 218.79 C 203.10 218.18 203.18 217.10 202.57 216.39 L 201.93 215.63 C 201.32 214.91 200.25 214.83 199.53 215.44 C 198.81 216.05 198.72 217.13 199.33 217.84 Z M 200.00 218.60 L 200.65 219.34 C 201.25 220.05 202.32 220.12 203.02 219.51 C 203.73 218.90 203.81 217.84 203.20 217.13 L 202.55 216.39 C 201.94 215.68 200.88 215.61 200.17 216.22 C 199.47 216.83 199.39 217.89 200.00 218.60 Z M 200.67 219.34 L 201.32 220.09 C 201.93 220.78 202.99 220.85 203.68 220.24 C 204.37 219.63 204.44 218.57 203.83 217.88 L 203.18 217.14 C 202.57 216.44 201.51 216.37 200.82 216.98 C 200.13 217.59 200.06 218.65 200.67 219.34 Z M 201.35 220.09 L 202.02 220.84 C 202.63 221.52 203.68 221.57 204.36 220.96 C 205.04 220.35 205.09 219.30 204.48 218.62 L 203.81 217.88 C 203.19 217.20 202.15 217.14 201.47 217.76 C 200.79 218.37 200.74 219.41 201.35 220.09 Z M 202.05 220.85 L 202.75 221.59 C 203.36 222.26 204.40 222.29 205.06 221.67 C 205.73 221.06 205.76 220.02 205.14 219.36 L 204.45 218.61 C 203.83 217.95 202.80 217.92 202.13 218.53 C 201.47 219.15 201.44 220.19 202.05 220.85 Z M 202.78 221.60 L 203.48 222.33 C 204.10 222.98 205.12 223.00 205.77 222.38 C 206.41 221.76 206.44 220.73 205.82 220.08 L 205.12 219.35 C 204.50 218.71 203.47 218.69 202.82 219.31 C 202.18 219.93 202.16 220.95 202.78 221.60 Z M 203.50 222.33 L 204.18 223.03 C 204.80 223.66 205.82 223.67 206.45 223.05 C 207.09 222.44 207.10 221.42 206.48 220.79 L 205.79 220.09 C 205.17 219.45 204.16 219.44 203.52 220.06 C 202.89 220.68 202.88 221.69 203.50 222.33 Z M 204.21 223.03 L 204.94 223.76 C 205.56 224.39 206.56 224.39 207.19 223.77 C 207.81 223.15 207.81 222.14 207.19 221.52 L 206.46 220.78 C 205.84 220.16 204.83 220.16 204.21 220.78 C 203.59 221.40 203.59 222.41 204.21 223.03 Z M 204.98 223.78 L 205.68 224.45 C 206.31 225.05 207.31 225.03 207.91 224.40 C 208.51 223.76 208.49 222.77 207.85 222.17 L 207.15 221.50 C 206.52 220.90 205.52 220.92 204.92 221.55 C 204.32 222.19 204.35 223.18 204.98 223.78 Z M 205.74 224.49 L 206.48 225.14 C 207.14 225.71 208.13 225.64 208.70 224.99 C 209.26 224.33 209.19 223.34 208.54 222.77 L 207.80 222.13 C 207.14 221.56 206.15 221.63 205.58 222.28 C 205.02 222.93 205.09 223.93 205.74 224.49 Z M 206.52 225.17 L 207.30 225.80 C 207.96 226.35 208.95 226.25 209.49 225.58 C 210.04 224.91 209.94 223.93 209.28 223.38 L 208.50 222.75 C 207.83 222.20 206.85 222.30 206.30 222.97 C 205.76 223.63 205.85 224.62 206.52 225.17 Z M 207.29 225.79 L 208.07 226.43 C 208.74 226.98 209.72 226.89 210.27 226.22 C 210.81 225.56 210.72 224.58 210.06 224.03 L 209.28 223.39 C 208.61 222.84 207.63 222.93 207.08 223.60 C 206.53 224.26 206.63 225.24 207.29 225.79 Z M 208.07 226.43 L 208.84 227.07 C 209.50 227.62 210.48 227.54 211.03 226.88 C 211.58 226.22 211.50 225.24 210.84 224.69 L 210.06 224.04 C 209.40 223.49 208.42 223.58 207.87 224.24 C 207.32 224.89 207.41 225.88 208.07 226.43 Z M 208.88 227.10 L 209.67 227.71 C 210.34 228.24 211.31 228.13 211.84 227.45 C 212.37 226.78 212.25 225.80 211.58 225.28 L 210.80 224.66 C 210.12 224.13 209.15 224.25 208.62 224.92 C 208.09 225.60 208.21 226.57 208.88 227.10 Z M 209.73 227.76 L 210.57 228.34 C 211.26 228.83 212.23 228.67 212.72 227.97 C 213.21 227.27 213.04 226.30 212.34 225.81 L 211.51 225.23 C 210.81 224.74 209.85 224.91 209.36 225.61 C 208.87 226.31 209.04 227.27 209.73 227.76 Z M 210.60 228.36 L 211.42 228.91 C 212.13 229.38 213.08 229.18 213.56 228.48 C 214.03 227.77 213.83 226.81 213.13 226.34 L 212.31 225.80 C 211.60 225.32 210.64 225.52 210.17 226.23 C 209.70 226.93 209.89 227.89 210.60 228.36 Z M 211.43 228.91 L 212.27 229.45 C 212.98 229.92 213.93 229.72 214.39 229.01 C 214.86 228.30 214.66 227.35 213.95 226.88 L 213.11 226.34 C 212.40 225.87 211.45 226.07 210.99 226.78 C 210.52 227.49 210.72 228.44 211.43 228.91 Z M 212.32 229.48 L 213.17 229.99 C 213.89 230.42 214.83 230.19 215.26 229.47 C 215.70 228.75 215.47 227.81 214.75 227.37 L 213.90 226.86 C 213.18 226.42 212.24 226.66 211.80 227.38 C 211.36 228.10 211.60 229.04 212.32 229.48 Z M 213.23 230.02 L 214.11 230.49 C 214.85 230.89 215.77 230.62 216.17 229.88 C 216.57 229.14 216.29 228.22 215.55 227.82 L 214.68 227.34 C 213.94 226.94 213.02 227.22 212.62 227.96 C 212.22 228.70 212.49 229.62 213.23 230.02 Z M 214.12 230.48 L 214.99 230.96 C 215.73 231.35 216.65 231.07 217.04 230.34 C 217.43 229.60 217.16 228.69 216.42 228.29 L 215.55 227.82 C 214.81 227.43 213.90 227.70 213.50 228.44 C 213.11 229.17 213.38 230.09 214.12 230.48 Z M 214.79 230.81 L 215.57 231.41 C 216.23 231.92 217.17 231.80 217.68 231.15 C 218.18 230.49 218.06 229.55 217.41 229.05 L 216.63 228.44 C 215.97 227.93 215.03 228.05 214.52 228.71 C 214.02 229.36 214.14 230.30 214.79 230.81 Z M 215.38 231.20 L 216.04 231.96 C 216.57 232.58 217.51 232.64 218.12 232.10 C 218.74 231.56 218.80 230.63 218.27 230.01 L 217.61 229.26 C 217.07 228.64 216.13 228.58 215.52 229.11 C 214.90 229.65 214.84 230.59 215.38 231.20 Z M 216.00 231.89 L 216.19 232.14 C 216.69 232.78 217.62 232.89 218.25 232.38 C 218.89 231.88 219.00 230.96 218.50 230.32 L 218.30 230.08 C 217.80 229.44 216.88 229.33 216.24 229.83 C 215.61 230.33 215.50 231.26 216.00 231.89 Z"
      fill="black"
      fill-rule="nonzero" /><path d="M 122.93 97.99 L 122.77 96.99 C 122.65 96.19 121.90 95.65 121.11 95.78 C 120.32 95.90 119.78 96.64 119.90 97.44 L 120.06 98.44 C 120.18 99.23 120.93 99.77 121.72 99.65 C 122.51 99.53 123.05 98.78 122.93 97.99 Z M 122.78 97.03 L 122.66 96.01 C 122.56 95.21 121.83 94.64 121.03 94.74 C 120.23 94.84 119.66 95.57 119.76 96.37 L 119.89 97.39 C 119.99 98.19 120.72 98.76 121.52 98.66 C 122.32 98.56 122.89 97.83 122.78 97.03 Z M 122.70 96.24 L 122.73 95.27 C 122.76 94.45 122.12 93.76 121.29 93.73 C 120.47 93.70 119.78 94.35 119.75 95.17 L 119.72 96.14 C 119.69 96.96 120.33 97.65 121.16 97.68 C 121.98 97.71 122.67 97.07 122.70 96.24 Z M 120.00 96.13 L 120.40 96.68 C 120.90 97.37 121.86 97.52 122.55 97.01 C 123.24 96.51 123.39 95.55 122.89 94.86 L 122.49 94.31 C 121.98 93.62 121.02 93.47 120.33 93.98 C 119.64 94.48 119.50 95.44 120.00 96.13 Z M 120.15 96.32 L 120.57 97.44 C 120.88 98.27 121.80 98.68 122.62 98.37 C 123.44 98.07 123.86 97.15 123.55 96.33 L 123.13 95.21 C 122.82 94.39 121.91 93.97 121.09 94.28 C 120.26 94.59 119.85 95.50 120.15 96.32 Z M 120.48 97.24 L 120.70 98.20 C 120.89 99.07 121.76 99.62 122.63 99.42 C 123.50 99.23 124.05 98.36 123.86 97.49 L 123.64 96.53 C 123.45 95.66 122.58 95.11 121.71 95.31 C 120.83 95.50 120.28 96.37 120.48 97.24 Z M 120.65 98.07 L 120.79 99.06 C 120.91 99.96 121.74 100.59 122.64 100.46 C 123.54 100.34 124.17 99.51 124.04 98.61 L 123.90 97.62 C 123.78 96.72 122.95 96.09 122.05 96.22 C 121.15 96.34 120.52 97.17 120.65 98.07 Z M 120.76 99.01 L 120.86 99.94 C 120.96 100.86 121.77 101.52 122.69 101.42 C 123.60 101.33 124.26 100.51 124.17 99.60 L 124.07 98.66 C 123.97 97.75 123.15 97.09 122.24 97.18 C 121.33 97.28 120.67 98.10 120.76 99.01 Z M 120.84 99.90 L 120.92 100.93 C 120.99 101.86 121.80 102.55 122.72 102.48 C 123.65 102.41 124.34 101.60 124.27 100.67 L 124.19 99.64 C 124.12 98.72 123.31 98.02 122.38 98.10 C 121.46 98.17 120.77 98.98 120.84 99.90 Z M 120.90 100.89 L 120.95 101.89 C 121.00 102.83 121.80 103.55 122.74 103.50 C 123.67 103.45 124.39 102.65 124.34 101.71 L 124.29 100.71 C 124.24 99.78 123.44 99.06 122.50 99.11 C 121.57 99.16 120.85 99.96 120.90 100.89 Z M 120.94 101.86 L 120.97 102.84 C 121.01 103.78 121.80 104.52 122.74 104.49 C 123.69 104.45 124.42 103.66 124.39 102.72 L 124.36 101.74 C 124.32 100.80 123.53 100.06 122.59 100.09 C 121.64 100.13 120.90 100.92 120.94 101.86 Z M 120.96 102.82 L 120.98 103.85 C 121.01 104.80 121.80 105.55 122.75 105.53 C 123.70 105.51 124.46 104.71 124.43 103.76 L 124.41 102.73 C 124.38 101.78 123.59 101.03 122.64 101.05 C 121.68 101.08 120.93 101.87 120.96 102.82 Z M 120.97 103.84 L 120.99 104.86 C 121.01 105.82 121.81 106.58 122.77 106.56 C 123.73 106.54 124.49 105.74 124.47 104.78 L 124.45 103.77 C 124.43 102.81 123.63 102.05 122.67 102.07 C 121.71 102.09 120.95 102.88 120.97 103.84 Z M 120.98 104.86 L 121.00 105.83 C 121.02 106.80 121.82 107.56 122.79 107.54 C 123.75 107.52 124.52 106.72 124.50 105.76 L 124.48 104.79 C 124.46 103.82 123.66 103.05 122.69 103.07 C 121.73 103.09 120.96 103.89 120.98 104.86 Z M 120.98 105.82 L 121.00 106.83 C 121.02 107.80 121.82 108.58 122.80 108.56 C 123.77 108.54 124.55 107.74 124.53 106.76 L 124.52 105.76 C 124.50 104.79 123.69 104.01 122.72 104.03 C 121.74 104.04 120.97 104.85 120.98 105.82 Z M 120.99 106.82 L 121.00 107.85 C 121.02 108.84 121.82 109.62 122.80 109.61 C 123.79 109.60 124.57 108.79 124.56 107.81 L 124.55 106.77 C 124.53 105.79 123.73 105.00 122.74 105.02 C 121.76 105.03 120.98 105.84 120.99 106.82 Z M 120.99 107.85 L 121.00 108.84 C 121.01 109.83 121.81 110.62 122.80 110.61 C 123.79 110.60 124.59 109.80 124.58 108.81 L 124.57 107.82 C 124.56 106.83 123.76 106.03 122.77 106.04 C 121.78 106.05 120.98 106.86 120.99 107.85 Z M 120.99 108.83 L 120.99 109.82 C 120.99 110.82 121.81 111.62 122.80 111.62 C 123.80 111.61 124.60 110.80 124.60 109.81 L 124.59 108.81 C 124.59 107.82 123.78 107.01 122.78 107.02 C 121.79 107.02 120.98 107.83 120.99 108.83 Z M 120.98 109.82 L 120.98 110.83 C 120.98 111.83 121.80 112.64 122.80 112.64 C 123.80 112.64 124.61 111.82 124.61 110.82 L 124.61 109.81 C 124.61 108.81 123.79 108.00 122.79 108.00 C 121.79 108.00 120.98 108.82 120.98 109.82 Z M 120.97 110.82 L 120.97 111.84 C 120.97 112.85 121.79 113.67 122.80 113.67 C 123.81 113.67 124.62 112.85 124.62 111.84 L 124.62 110.82 C 124.62 109.81 123.80 109.00 122.79 109.00 C 121.79 109.00 120.97 109.81 120.97 110.82 Z M 120.96 111.84 L 120.96 112.81 C 120.96 113.82 121.78 114.64 122.79 114.64 C 123.81 114.64 124.63 113.82 124.63 112.81 L 124.63 111.84 C 124.63 110.83 123.81 110.00 122.80 110.00 C 121.78 110.00 120.96 110.82 120.96 111.84 Z M 120.95 112.80 L 120.95 113.76 C 120.95 114.78 121.77 115.61 122.78 115.61 C 123.80 115.62 124.63 114.80 124.63 113.78 L 124.64 112.82 C 124.64 111.80 123.82 110.97 122.80 110.97 C 121.79 110.96 120.96 111.78 120.95 112.80 Z M 120.94 113.75 L 120.93 114.74 C 120.92 115.76 121.73 116.60 122.75 116.61 C 123.77 116.63 124.61 115.81 124.62 114.79 L 124.64 113.80 C 124.65 112.78 123.83 111.94 122.82 111.93 C 121.80 111.91 120.96 112.73 120.94 113.75 Z M 120.93 114.72 L 120.90 115.75 C 120.87 116.78 121.68 117.63 122.70 117.65 C 123.73 117.68 124.58 116.87 124.60 115.85 L 124.63 114.81 C 124.66 113.79 123.85 112.94 122.83 112.91 C 121.80 112.89 120.95 113.70 120.93 114.72 Z M 120.90 115.73 L 120.86 116.72 C 120.82 117.74 121.61 118.61 122.64 118.65 C 123.66 118.69 124.53 117.89 124.57 116.87 L 124.61 115.88 C 124.65 114.85 123.85 113.99 122.83 113.95 C 121.80 113.91 120.94 114.70 120.90 115.73 Z M 120.85 116.69 L 120.80 117.62 C 120.75 118.65 121.54 119.52 122.56 119.58 C 123.59 119.63 124.47 118.85 124.52 117.82 L 124.57 116.89 C 124.63 115.86 123.84 114.99 122.81 114.93 C 121.79 114.88 120.91 115.67 120.85 116.69 Z M 120.80 117.60 L 120.74 118.57 C 120.67 119.60 121.45 120.48 122.48 120.55 C 123.51 120.62 124.39 119.84 124.46 118.81 L 124.52 117.84 C 124.59 116.81 123.81 115.93 122.78 115.86 C 121.76 115.79 120.87 116.57 120.80 117.60 Z M 120.74 118.55 L 120.66 119.56 C 120.58 120.59 121.35 121.49 122.38 121.57 C 123.41 121.64 124.31 120.87 124.39 119.84 L 124.46 118.83 C 124.54 117.80 123.77 116.90 122.74 116.83 C 121.71 116.75 120.81 117.52 120.74 118.55 Z M 120.66 119.54 L 120.56 120.59 C 120.48 121.62 121.24 122.53 122.27 122.62 C 123.30 122.71 124.21 121.95 124.30 120.92 L 124.39 119.86 C 124.48 118.83 123.71 117.92 122.68 117.84 C 121.65 117.75 120.74 118.51 120.66 119.54 Z M 120.56 120.58 L 120.46 121.64 C 120.36 122.67 121.12 123.58 122.15 123.68 C 123.18 123.78 124.10 123.02 124.20 121.99 L 124.30 120.93 C 124.40 119.90 123.64 118.98 122.61 118.89 C 121.58 118.79 120.66 119.54 120.56 120.58 Z M 120.46 121.62 L 120.36 122.56 C 120.25 123.59 121.01 124.52 122.04 124.63 C 123.07 124.73 124.00 123.98 124.10 122.95 L 124.20 122.01 C 124.31 120.97 123.56 120.05 122.52 119.94 C 121.49 119.84 120.57 120.59 120.46 121.62 Z M 120.36 122.55 L 120.25 123.51 C 120.14 124.55 120.88 125.48 121.92 125.59 C 122.95 125.71 123.89 124.96 124.00 123.92 L 124.11 122.96 C 124.22 121.93 123.47 120.99 122.44 120.88 C 121.40 120.77 120.47 121.51 120.36 122.55 Z M 120.25 123.50 L 120.13 124.48 C 120.01 125.52 120.75 126.46 121.79 126.58 C 122.83 126.70 123.77 125.96 123.89 124.92 L 124.00 123.94 C 124.12 122.90 123.38 121.96 122.35 121.84 C 121.31 121.72 120.37 122.46 120.25 123.50 Z M 120.13 124.47 L 120.01 125.48 C 119.88 126.52 120.62 127.46 121.66 127.59 C 122.69 127.72 123.64 126.98 123.77 125.94 L 123.89 124.94 C 124.02 123.90 123.28 122.95 122.24 122.82 C 121.20 122.70 120.26 123.43 120.13 124.47 Z M 120.00 125.47 L 119.87 126.49 C 119.74 127.53 120.47 128.48 121.51 128.62 C 122.55 128.75 123.50 128.02 123.64 126.98 L 123.77 125.95 C 123.90 124.91 123.17 123.96 122.13 123.83 C 121.09 123.69 120.14 124.43 120.00 125.47 Z M 119.87 126.48 L 119.73 127.52 C 119.59 128.56 120.32 129.52 121.36 129.66 C 122.40 129.80 123.36 129.07 123.50 128.03 L 123.64 126.99 C 123.78 125.95 123.05 124.99 122.01 124.85 C 120.97 124.71 120.01 125.44 119.87 126.48 Z M 119.73 127.51 L 119.59 128.49 C 119.44 129.53 120.17 130.49 121.21 130.64 C 122.25 130.78 123.22 130.06 123.36 129.02 L 123.50 128.04 C 123.65 127.00 122.92 126.03 121.88 125.89 C 120.84 125.74 119.87 126.47 119.73 127.51 Z M 119.59 128.48 L 119.45 129.45 C 119.29 130.49 120.02 131.46 121.06 131.61 C 122.10 131.76 123.07 131.04 123.22 130.00 L 123.37 129.03 C 123.52 127.98 122.80 127.01 121.75 126.86 C 120.71 126.71 119.74 127.43 119.59 128.48 Z M 119.45 129.44 L 119.30 130.42 C 119.14 131.46 119.86 132.44 120.90 132.59 C 121.94 132.75 122.92 132.03 123.08 130.99 L 123.23 130.01 C 123.38 128.97 122.67 127.99 121.62 127.83 C 120.58 127.68 119.60 128.39 119.45 129.44 Z M 119.30 130.41 L 119.14 131.40 C 118.98 132.44 119.69 133.42 120.73 133.58 C 121.78 133.75 122.76 133.04 122.92 131.99 L 123.08 131.00 C 123.24 129.96 122.53 128.98 121.48 128.81 C 120.44 128.65 119.46 129.36 119.30 130.41 Z M 119.14 131.38 L 118.98 132.38 C 118.80 133.42 119.51 134.41 120.56 134.58 C 121.60 134.75 122.59 134.04 122.76 133.00 L 122.92 132.00 C 123.09 130.96 122.39 129.97 121.34 129.80 C 120.30 129.63 119.31 130.34 119.14 131.38 Z M 118.98 132.37 L 118.80 133.37 C 118.63 134.41 119.33 135.40 120.38 135.58 C 121.42 135.76 122.41 135.06 122.59 134.01 L 122.76 133.01 C 122.94 131.96 122.24 130.97 121.19 130.80 C 120.15 130.62 119.15 131.32 118.98 132.37 Z M 118.80 133.35 L 118.63 134.36 C 118.44 135.40 119.14 136.40 120.18 136.59 C 121.23 136.77 122.23 136.08 122.41 135.03 L 122.59 134.02 C 122.78 132.98 122.08 131.98 121.03 131.80 C 119.99 131.61 118.99 132.31 118.80 133.35 Z M 118.63 134.35 L 118.45 135.29 C 118.26 136.34 118.95 137.35 120.00 137.54 C 121.04 137.73 122.05 137.04 122.24 135.99 L 122.41 135.04 C 122.61 134.00 121.91 132.99 120.87 132.80 C 119.82 132.61 118.82 133.30 118.63 134.35 Z M 118.45 135.28 L 118.27 136.23 C 118.07 137.28 118.76 138.29 119.80 138.48 C 120.85 138.68 121.86 138.00 122.06 136.95 L 122.24 136.00 C 122.44 134.96 121.75 133.95 120.71 133.75 C 119.66 133.55 118.65 134.24 118.45 135.28 Z M 118.27 136.22 L 118.08 137.18 C 117.88 138.22 118.56 139.24 119.61 139.44 C 120.65 139.64 121.67 138.96 121.87 137.92 L 122.06 136.96 C 122.26 135.91 121.58 134.90 120.53 134.70 C 119.49 134.49 118.47 135.17 118.27 136.22 Z M 118.08 137.17 L 117.89 138.14 C 117.68 139.18 118.36 140.20 119.41 140.41 C 120.45 140.62 121.47 139.94 121.68 138.89 L 121.87 137.92 C 122.08 136.88 121.40 135.86 120.36 135.65 C 119.31 135.44 118.29 136.12 118.08 137.17 Z M 117.89 138.13 L 117.69 139.11 C 117.48 140.16 118.16 141.18 119.20 141.39 C 120.25 141.61 121.27 140.93 121.48 139.88 L 121.68 138.90 C 121.89 137.85 121.22 136.83 120.17 136.62 C 119.12 136.41 118.10 137.08 117.89 138.13 Z M 117.69 139.11 L 117.48 140.11 C 117.27 141.16 117.95 142.18 118.99 142.40 C 120.04 142.61 121.06 141.94 121.28 140.89 L 121.48 139.89 C 121.70 138.84 121.02 137.81 119.97 137.60 C 118.93 137.39 117.90 138.06 117.69 139.11 Z M 117.48 140.11 L 117.27 141.14 C 117.06 142.18 117.73 143.21 118.78 143.42 C 119.83 143.64 120.85 142.96 121.07 141.92 L 121.28 140.89 C 121.50 139.84 120.82 138.82 119.77 138.60 C 118.72 138.39 117.70 139.06 117.48 140.11 Z M 117.27 141.14 L 117.06 142.14 C 116.85 143.19 117.53 144.21 118.57 144.43 C 119.62 144.64 120.65 143.97 120.87 142.92 L 121.07 141.92 C 121.29 140.87 120.61 139.84 119.56 139.62 C 118.51 139.41 117.49 140.09 117.27 141.14 Z M 117.06 142.14 L 116.87 143.09 C 116.65 144.14 117.33 145.17 118.38 145.38 C 119.43 145.60 120.46 144.92 120.67 143.87 L 120.87 142.92 C 121.08 141.87 120.41 140.84 119.36 140.62 C 118.31 140.41 117.28 141.08 117.06 142.14 Z M 116.86 143.09 L 116.66 144.05 C 116.45 145.11 117.12 146.14 118.18 146.35 C 119.23 146.57 120.26 145.89 120.47 144.84 L 120.67 143.87 C 120.89 142.82 120.22 141.79 119.16 141.57 C 118.11 141.36 117.08 142.03 116.86 143.09 Z M 116.66 144.05 L 116.46 145.03 C 116.24 146.08 116.91 147.12 117.97 147.33 C 119.02 147.55 120.05 146.88 120.27 145.83 L 120.48 144.85 C 120.70 143.79 120.02 142.76 118.97 142.54 C 117.91 142.32 116.88 143.00 116.66 144.05 Z M 116.46 145.03 L 116.25 146.01 C 116.03 147.07 116.70 148.10 117.75 148.32 C 118.81 148.55 119.84 147.87 120.06 146.82 L 120.27 145.83 C 120.50 144.78 119.82 143.74 118.77 143.52 C 117.71 143.30 116.68 143.97 116.46 145.03 Z M 116.25 146.01 L 116.03 147.00 C 115.81 148.05 116.48 149.09 117.53 149.32 C 118.59 149.54 119.63 148.87 119.85 147.82 L 120.07 146.83 C 120.29 145.77 119.62 144.73 118.57 144.51 C 117.51 144.28 116.47 144.95 116.25 146.01 Z M 116.03 146.99 L 115.82 147.98 C 115.58 149.03 116.25 150.08 117.31 150.31 C 118.36 150.54 119.40 149.87 119.64 148.82 L 119.85 147.83 C 120.08 146.77 119.42 145.73 118.36 145.50 C 117.31 145.27 116.27 145.93 116.03 146.99 Z M 115.82 147.97 L 115.59 148.96 C 115.36 150.01 116.02 151.06 117.07 151.30 C 118.13 151.53 119.18 150.87 119.41 149.82 L 119.64 148.83 C 119.87 147.77 119.21 146.73 118.16 146.49 C 117.10 146.25 116.05 146.91 115.82 147.97 Z M 115.59 148.94 L 115.37 149.92 C 115.12 150.98 115.78 152.03 116.83 152.27 C 117.89 152.52 118.94 151.86 119.19 150.81 L 119.41 149.83 C 119.66 148.77 119.00 147.72 117.95 147.48 C 116.89 147.23 115.84 147.89 115.59 148.94 Z M 115.37 149.91 L 115.13 150.91 C 114.88 151.97 115.52 153.02 116.58 153.28 C 117.63 153.53 118.69 152.88 118.94 151.83 L 119.18 150.82 C 119.44 149.77 118.79 148.71 117.73 148.46 C 116.68 148.20 115.62 148.85 115.37 149.91 Z M 115.13 150.90 L 114.88 151.89 C 114.62 152.94 115.27 154.01 116.32 154.27 C 117.37 154.53 118.43 153.89 118.70 152.83 L 118.94 151.84 C 119.20 150.79 118.56 149.72 117.51 149.46 C 116.46 149.20 115.39 149.85 115.13 150.90 Z M 114.89 151.88 L 114.64 152.86 C 114.37 153.91 115.00 154.98 116.05 155.25 C 117.10 155.51 118.17 154.88 118.44 153.83 L 118.69 152.85 C 118.96 151.80 118.33 150.73 117.28 150.46 C 116.22 150.19 115.15 150.82 114.89 151.88 Z M 114.64 152.84 L 114.38 153.81 C 114.11 154.86 114.73 155.94 115.78 156.21 C 116.84 156.49 117.91 155.86 118.19 154.81 L 118.44 153.84 C 118.72 152.79 118.09 151.72 117.04 151.44 C 115.99 151.16 114.91 151.79 114.64 152.84 Z M 114.39 153.80 L 114.13 154.76 C 113.84 155.81 114.46 156.89 115.51 157.17 C 116.56 157.45 117.64 156.83 117.93 155.78 L 118.18 154.82 C 118.47 153.78 117.85 152.70 116.80 152.41 C 115.75 152.13 114.67 152.75 114.39 153.80 Z M 114.13 154.75 L 113.87 155.70 C 113.58 156.74 114.19 157.83 115.24 158.12 C 116.29 158.41 117.37 157.79 117.66 156.75 L 117.92 155.80 C 118.21 154.75 117.60 153.66 116.55 153.37 C 115.50 153.08 114.42 153.70 114.13 154.75 Z M 113.87 155.68 L 113.60 156.63 C 113.30 157.67 113.91 158.76 114.96 159.06 C 116.01 159.36 117.10 158.75 117.39 157.70 L 117.66 156.76 C 117.96 155.71 117.35 154.62 116.30 154.32 C 115.25 154.03 114.16 154.64 113.87 155.68 Z M 113.60 156.61 L 113.33 157.55 C 113.03 158.60 113.63 159.69 114.68 159.99 C 115.72 160.29 116.82 159.69 117.12 158.65 L 117.39 157.71 C 117.69 156.66 117.09 155.57 116.04 155.27 C 115.00 154.97 113.90 155.57 113.60 156.61 Z M 113.33 157.54 L 113.05 158.51 C 112.74 159.56 113.33 160.65 114.38 160.96 C 115.43 161.27 116.52 160.67 116.83 159.63 L 117.12 158.66 C 117.43 157.61 116.83 156.51 115.78 156.20 C 114.74 155.90 113.64 156.49 113.33 157.54 Z M 113.05 158.50 L 112.76 159.47 C 112.44 160.51 113.03 161.61 114.08 161.93 C 115.12 162.24 116.22 161.65 116.54 160.61 L 116.83 159.64 C 117.14 158.59 116.55 157.49 115.51 157.18 C 114.46 156.86 113.36 157.46 113.05 158.50 Z M 112.76 159.46 L 112.46 160.42 C 112.14 161.46 112.73 162.57 113.77 162.89 C 114.82 163.21 115.92 162.62 116.24 161.58 L 116.54 160.62 C 116.86 159.57 116.27 158.47 115.23 158.15 C 114.18 157.83 113.08 158.41 112.76 159.46 Z M 112.47 160.41 L 112.17 161.36 C 111.84 162.41 112.42 163.52 113.46 163.84 C 114.50 164.17 115.61 163.59 115.94 162.54 L 116.24 161.59 C 116.56 160.55 115.98 159.44 114.94 159.11 C 113.90 158.79 112.79 159.37 112.47 160.41 Z M 112.17 161.35 L 111.87 162.30 C 111.53 163.34 112.11 164.46 113.15 164.79 C 114.19 165.12 115.30 164.55 115.64 163.50 L 115.94 162.56 C 116.27 161.51 115.69 160.40 114.65 160.07 C 113.61 159.74 112.50 160.31 112.17 161.35 Z M 111.87 162.29 L 111.56 163.24 C 111.22 164.28 111.79 165.39 112.83 165.73 C 113.87 166.07 114.99 165.50 115.33 164.46 L 115.63 163.52 C 115.97 162.48 115.40 161.36 114.36 161.02 C 113.32 160.68 112.21 161.25 111.87 162.29 Z M 111.56 163.23 L 111.25 164.17 C 110.91 165.20 111.47 166.32 112.51 166.67 C 113.55 167.01 114.67 166.45 115.01 165.41 L 115.32 164.47 C 115.67 163.43 115.10 162.31 114.07 161.97 C 113.03 161.62 111.91 162.19 111.56 163.23 Z M 111.26 164.15 L 110.94 165.09 C 110.59 166.13 111.15 167.25 112.19 167.60 C 113.22 167.95 114.35 167.39 114.70 166.36 L 115.01 165.42 C 115.36 164.38 114.80 163.26 113.77 162.91 C 112.73 162.56 111.60 163.12 111.26 164.15 Z M 110.94 165.08 L 110.62 166.02 C 110.27 167.06 110.82 168.19 111.85 168.54 C 112.89 168.90 114.02 168.34 114.37 167.31 L 114.69 166.37 C 115.05 165.33 114.50 164.20 113.46 163.85 C 112.42 163.49 111.30 164.05 110.94 165.08 Z M 110.62 166.02 L 110.30 166.96 C 109.94 167.99 110.49 169.12 111.52 169.48 C 112.56 169.84 113.69 169.29 114.04 168.26 L 114.37 167.32 C 114.73 166.28 114.18 165.15 113.15 164.79 C 112.11 164.43 110.98 164.98 110.62 166.02 Z M 110.30 166.95 L 109.97 167.89 C 109.61 168.92 110.15 170.05 111.18 170.42 C 112.22 170.78 113.35 170.24 113.71 169.20 L 114.04 168.26 C 114.41 167.23 113.86 166.10 112.83 165.73 C 111.79 165.37 110.66 165.92 110.30 166.95 Z M 109.97 167.88 L 109.64 168.82 C 109.27 169.86 109.81 170.99 110.85 171.36 C 111.88 171.72 113.02 171.18 113.38 170.15 L 113.71 169.21 C 114.08 168.17 113.54 167.04 112.50 166.67 C 111.47 166.31 110.33 166.85 109.97 167.88 Z M 109.64 168.82 L 109.30 169.76 C 108.94 170.79 109.48 171.93 110.51 172.30 C 111.54 172.66 112.68 172.12 113.05 171.09 L 113.38 170.15 C 113.75 169.12 113.21 167.98 112.17 167.61 C 111.14 167.25 110.01 167.79 109.64 168.82 Z M 109.30 169.76 L 108.97 170.71 C 108.60 171.74 109.14 172.87 110.17 173.24 C 111.20 173.61 112.34 173.07 112.71 172.04 L 113.05 171.09 C 113.41 170.06 112.87 168.92 111.84 168.55 C 110.81 168.19 109.67 168.73 109.30 169.76 Z M 108.97 170.71 L 108.63 171.66 C 108.26 172.69 108.80 173.83 109.83 174.20 C 110.87 174.56 112.00 174.02 112.37 172.99 L 112.71 172.04 C 113.08 171.00 112.54 169.87 111.50 169.50 C 110.47 169.13 109.33 169.67 108.97 170.71 Z M 108.63 171.66 L 108.29 172.60 C 107.92 173.63 108.47 174.77 109.50 175.13 C 110.53 175.50 111.67 174.96 112.04 173.93 L 112.37 172.99 C 112.74 171.95 112.20 170.82 111.16 170.45 C 110.13 170.08 108.99 170.62 108.63 171.66 Z M 108.29 172.60 L 107.96 173.53 C 107.59 174.57 108.14 175.71 109.17 176.07 C 110.21 176.44 111.34 175.90 111.71 174.86 L 112.04 173.93 C 112.41 172.89 111.86 171.75 110.83 171.39 C 109.79 171.02 108.66 171.56 108.29 172.60 Z M 107.96 173.53 L 107.63 174.48 C 107.26 175.51 107.80 176.65 108.84 177.01 C 109.87 177.38 111.01 176.84 111.38 175.80 L 111.71 174.86 C 112.08 173.83 111.53 172.69 110.50 172.32 C 109.46 171.96 108.33 172.50 107.96 173.53 Z M 107.63 174.47 L 107.29 175.42 C 106.93 176.45 107.47 177.59 108.50 177.96 C 109.54 178.32 110.68 177.78 111.04 176.75 L 111.38 175.80 C 111.74 174.77 111.20 173.63 110.16 173.26 C 109.13 172.90 107.99 173.44 107.63 174.47 Z M 107.29 175.42 L 106.96 176.36 C 106.59 177.40 107.13 178.54 108.17 178.90 C 109.20 179.27 110.34 178.73 110.71 177.69 L 111.04 176.75 C 111.41 175.71 110.87 174.57 109.83 174.21 C 108.80 173.84 107.66 174.38 107.29 175.42 Z M 106.96 176.36 L 106.62 177.31 C 106.25 178.34 106.79 179.48 107.83 179.85 C 108.86 180.22 110.00 179.68 110.37 178.64 L 110.71 177.70 C 111.07 176.66 110.53 175.52 109.50 175.15 C 108.46 174.79 107.33 175.33 106.96 176.36 Z M 106.62 177.31 L 106.28 178.25 C 105.91 179.29 106.45 180.43 107.49 180.80 C 108.52 181.17 109.66 180.63 110.03 179.59 L 110.37 178.65 C 110.74 177.61 110.20 176.47 109.16 176.10 C 108.13 175.73 106.99 176.27 106.62 177.31 Z M 106.28 178.25 L 105.95 179.19 C 105.57 180.23 106.11 181.37 107.14 181.74 C 108.18 182.11 109.32 181.57 109.69 180.54 L 110.03 179.60 C 110.40 178.56 109.86 177.42 108.83 177.05 C 107.80 176.68 106.66 177.21 106.28 178.25 Z M 105.95 179.19 L 105.60 180.13 C 105.23 181.17 105.76 182.31 106.80 182.68 C 107.83 183.06 108.97 182.52 109.35 181.49 L 109.69 180.54 C 110.06 179.51 109.53 178.37 108.50 177.99 C 107.46 177.62 106.32 178.15 105.95 179.19 Z M 105.61 180.13 L 105.26 181.07 C 104.88 182.10 105.41 183.25 106.45 183.63 C 107.48 184.00 108.62 183.47 109.00 182.44 L 109.34 181.50 C 109.72 180.46 109.19 179.32 108.16 178.94 C 107.13 178.57 105.98 179.10 105.61 180.13 Z M 105.26 181.07 L 104.92 182.01 C 104.53 183.04 105.06 184.18 106.09 184.56 C 107.12 184.94 108.27 184.42 108.65 183.39 L 109.00 182.45 C 109.38 181.41 108.85 180.27 107.82 179.89 C 106.79 179.51 105.64 180.04 105.26 181.07 Z M 104.92 182.00 L 104.57 182.94 C 104.18 183.97 104.71 185.11 105.74 185.50 C 106.77 185.88 107.91 185.36 108.30 184.33 L 108.65 183.39 C 109.03 182.36 108.51 181.22 107.48 180.83 C 106.45 180.45 105.30 180.97 104.92 182.00 Z M 104.57 182.93 L 104.22 183.86 C 103.83 184.89 104.35 186.04 105.37 186.43 C 106.40 186.82 107.55 186.30 107.94 185.27 L 108.29 184.34 C 108.68 183.31 108.17 182.16 107.14 181.77 C 106.11 181.38 104.96 181.90 104.57 182.93 Z M 104.22 183.85 L 103.86 184.78 C 103.47 185.81 103.98 186.96 105.01 187.36 C 106.04 187.75 107.19 187.24 107.58 186.21 L 107.94 185.28 C 108.33 184.25 107.82 183.10 106.79 182.71 C 105.77 182.31 104.61 182.83 104.22 183.85 Z M 103.87 184.77 L 103.51 185.70 C 103.11 186.73 103.61 187.88 104.64 188.28 C 105.66 188.68 106.82 188.17 107.22 187.15 L 107.58 186.22 C 107.98 185.19 107.47 184.04 106.44 183.64 C 105.42 183.24 104.27 183.75 103.87 184.77 Z M 103.51 185.69 L 103.14 186.62 C 102.74 187.64 103.24 188.80 104.26 189.21 C 105.28 189.61 106.44 189.11 106.85 188.09 L 107.21 187.16 C 107.62 186.13 107.12 184.98 106.09 184.57 C 105.07 184.17 103.91 184.67 103.51 185.69 Z M 103.15 186.61 L 102.76 187.57 C 102.35 188.59 102.85 189.75 103.87 190.16 C 104.89 190.57 106.05 190.07 106.46 189.05 L 106.84 188.10 C 107.25 187.08 106.76 185.92 105.74 185.51 C 104.72 185.10 103.56 185.59 103.15 186.61 Z M 102.77 187.56 L 102.38 188.51 C 101.96 189.53 102.45 190.69 103.47 191.10 C 104.49 191.52 105.65 191.03 106.07 190.01 L 106.45 189.06 C 106.87 188.04 106.38 186.88 105.36 186.47 C 104.34 186.05 103.18 186.54 102.77 187.56 Z M 102.38 188.50 L 101.99 189.44 C 101.57 190.46 102.05 191.62 103.07 192.04 C 104.09 192.46 105.25 191.98 105.67 190.96 L 106.06 190.02 C 106.48 189.01 106.00 187.84 104.98 187.42 C 103.97 187.00 102.80 187.48 102.38 188.50 Z M 101.99 189.43 L 101.60 190.36 C 101.18 191.38 101.66 192.54 102.67 192.97 C 103.69 193.40 104.85 192.92 105.28 191.90 L 105.67 190.97 C 106.10 189.96 105.62 188.79 104.60 188.36 C 103.59 187.94 102.42 188.42 101.99 189.43 Z M 101.61 190.35 L 101.22 191.27 C 100.79 192.28 101.26 193.45 102.27 193.88 C 103.29 194.31 104.46 193.84 104.89 192.83 L 105.28 191.91 C 105.71 190.90 105.23 189.73 104.22 189.30 C 103.21 188.87 102.04 189.34 101.61 190.35 Z M 101.22 191.26 L 100.84 192.16 C 100.40 193.17 100.87 194.35 101.88 194.78 C 102.89 195.21 104.06 194.75 104.50 193.73 L 104.88 192.83 C 105.32 191.82 104.85 190.65 103.84 190.22 C 102.83 189.78 101.66 190.25 101.22 191.26 Z M 100.84 192.15 L 100.46 193.03 C 100.02 194.04 100.48 195.22 101.49 195.66 C 102.50 196.09 103.68 195.63 104.12 194.62 L 104.50 193.74 C 104.93 192.73 104.47 191.56 103.46 191.12 C 102.45 190.68 101.28 191.14 100.84 192.15 Z M 100.46 193.03 L 100.06 193.95 C 99.61 194.96 100.07 196.13 101.08 196.57 C 102.09 197.02 103.27 196.56 103.71 195.55 L 104.11 194.63 C 104.55 193.62 104.09 192.44 103.09 192.00 C 102.08 191.56 100.90 192.02 100.46 193.03 Z M 100.06 193.94 L 99.65 194.87 C 99.20 195.88 99.66 197.06 100.67 197.50 C 101.67 197.95 102.85 197.49 103.30 196.48 L 103.71 195.55 C 104.15 194.55 103.70 193.37 102.69 192.92 C 101.68 192.48 100.50 192.93 100.06 193.94 Z M 99.65 194.87 L 99.24 195.78 C 98.80 196.79 99.25 197.97 100.25 198.41 C 101.26 198.86 102.44 198.41 102.89 197.40 L 103.29 196.49 C 103.74 195.48 103.29 194.30 102.28 193.86 C 101.28 193.41 100.10 193.86 99.65 194.87 Z M 99.24 195.78 L 98.84 196.68 C 98.39 197.69 98.84 198.87 99.85 199.31 C 100.85 199.76 102.03 199.31 102.48 198.31 L 102.89 197.41 C 103.34 196.40 102.88 195.22 101.88 194.77 C 100.87 194.32 99.69 194.77 99.24 195.78 Z M 98.84 196.68 L 98.44 197.58 C 97.99 198.58 98.44 199.76 99.44 200.21 C 100.45 200.66 101.63 200.21 102.08 199.21 L 102.48 198.31 C 102.93 197.30 102.48 196.12 101.48 195.67 C 100.47 195.22 99.29 195.67 98.84 196.68 Z M 98.44 197.58 L 98.04 198.48 C 97.59 199.48 98.04 200.66 99.04 201.11 C 100.05 201.56 101.23 201.11 101.68 200.11 L 102.08 199.21 C 102.53 198.20 102.08 197.02 101.07 196.57 C 100.07 196.12 98.89 196.57 98.44 197.58 Z M 98.03 198.48 L 97.63 199.39 C 97.18 200.40 97.63 201.58 98.64 202.03 C 99.64 202.47 100.82 202.02 101.27 201.02 L 101.68 200.11 C 102.13 199.10 101.67 197.92 100.67 197.47 C 99.66 197.02 98.48 197.47 98.03 198.48 Z M 97.63 199.39 L 97.23 200.28 C 96.79 201.29 97.24 202.47 98.25 202.92 C 99.25 203.36 100.43 202.91 100.88 201.90 L 101.27 201.01 C 101.72 200.01 101.27 198.83 100.26 198.38 C 99.25 197.93 98.07 198.39 97.63 199.39 Z M 97.23 200.29 L 96.83 201.19 C 96.39 202.19 96.84 203.37 97.85 203.82 C 98.86 204.26 100.03 203.81 100.48 202.80 L 100.88 201.90 C 101.32 200.89 100.87 199.72 99.86 199.27 C 98.86 198.82 97.68 199.28 97.23 200.29 Z M 96.83 201.18 L 96.43 202.10 C 95.98 203.10 96.44 204.28 97.44 204.73 C 98.45 205.17 99.63 204.72 100.08 203.71 L 100.48 202.80 C 100.93 201.80 100.47 200.62 99.47 200.17 C 98.46 199.72 97.28 200.18 96.83 201.18 Z M 96.43 202.09 L 96.02 203.01 C 95.57 204.02 96.03 205.19 97.03 205.64 C 98.04 206.09 99.22 205.64 99.66 204.63 L 100.07 203.72 C 100.52 202.71 100.07 201.53 99.06 201.08 C 98.06 200.63 96.88 201.09 96.43 202.09 Z M 96.03 203.00 L 95.61 203.93 C 95.16 204.93 95.61 206.11 96.61 206.56 C 97.62 207.01 98.80 206.57 99.25 205.56 L 99.66 204.64 C 100.11 203.64 99.67 202.46 98.66 202.00 C 97.66 201.55 96.48 202.00 96.03 203.00 Z M 95.61 203.92 L 95.19 204.84 C 94.74 205.84 95.18 207.03 96.18 207.48 C 97.18 207.94 98.37 207.50 98.82 206.49 L 99.24 205.57 C 99.70 204.57 99.26 203.39 98.25 202.93 C 97.25 202.47 96.07 202.92 95.61 203.92 Z M 95.20 204.83 L 94.77 205.75 C 94.31 206.75 94.75 207.94 95.75 208.40 C 96.74 208.86 97.93 208.42 98.39 207.43 L 98.82 206.50 C 99.28 205.50 98.84 204.32 97.85 203.86 C 96.85 203.40 95.66 203.83 95.20 204.83 Z M 94.78 205.74 L 94.34 206.66 C 93.87 207.66 94.30 208.85 95.30 209.32 C 96.29 209.79 97.48 209.36 97.95 208.36 L 98.38 207.44 C 98.85 206.44 98.43 205.26 97.43 204.79 C 96.44 204.32 95.25 204.74 94.78 205.74 Z M 94.35 206.65 L 93.91 207.57 C 93.43 208.56 93.85 209.75 94.84 210.23 C 95.83 210.70 97.02 210.29 97.50 209.30 L 97.94 208.38 C 98.42 207.39 98.00 206.20 97.01 205.72 C 96.02 205.24 94.83 205.66 94.35 206.65 Z M 93.92 207.55 L 93.47 208.46 C 92.98 209.45 93.39 210.64 94.38 211.13 C 95.36 211.61 96.55 211.21 97.04 210.22 L 97.49 209.31 C 97.97 208.33 97.57 207.13 96.58 206.65 C 95.60 206.16 94.41 206.57 93.92 207.55 Z M 93.48 208.44 L 93.03 209.34 C 92.53 210.32 92.92 211.51 93.90 212.01 C 94.88 212.51 96.08 212.11 96.58 211.14 L 97.03 210.24 C 97.53 209.26 97.13 208.06 96.15 207.57 C 95.17 207.07 93.98 207.46 93.48 208.44 Z M 93.04 209.32 L 92.58 210.20 C 92.07 211.17 92.45 212.37 93.42 212.88 C 94.40 213.39 95.60 213.01 96.10 212.04 L 96.56 211.16 C 97.07 210.18 96.69 208.98 95.72 208.48 C 94.75 207.97 93.55 208.35 93.04 209.32 Z M 92.59 210.18 L 92.13 211.04 C 91.61 212.01 91.97 213.21 92.94 213.73 C 93.90 214.25 95.11 213.89 95.63 212.92 L 96.09 212.06 C 96.61 211.09 96.25 209.89 95.28 209.37 C 94.32 208.85 93.11 209.21 92.59 210.18 Z M 92.14 211.02 L 91.67 211.86 C 91.14 212.82 91.48 214.03 92.44 214.56 C 93.40 215.09 94.61 214.75 95.14 213.79 L 95.61 212.95 C 96.14 211.99 95.80 210.78 94.84 210.25 C 93.89 209.72 92.68 210.06 92.14 211.02 Z M 91.69 211.84 L 91.17 212.73 C 90.62 213.68 90.95 214.89 91.90 215.44 C 92.84 215.99 94.06 215.67 94.60 214.72 L 95.12 213.82 C 95.67 212.87 95.35 211.66 94.40 211.11 C 93.45 210.56 92.24 210.89 91.69 211.84 Z M 91.19 212.71 L 90.67 213.58 C 90.10 214.52 90.41 215.73 91.34 216.30 C 92.28 216.86 93.50 216.56 94.06 215.62 L 94.59 214.74 C 95.15 213.81 94.85 212.59 93.91 212.03 C 92.97 211.46 91.75 211.77 91.19 212.71 Z M 90.68 213.55 L 90.15 214.41 C 89.58 215.34 89.86 216.56 90.79 217.13 C 91.72 217.71 92.94 217.42 93.52 216.50 L 94.04 215.64 C 94.62 214.71 94.34 213.49 93.41 212.92 C 92.48 212.34 91.26 212.63 90.68 213.55 Z M 90.17 214.39 L 89.63 215.22 C 89.05 216.14 89.31 217.36 90.23 217.95 C 91.15 218.54 92.38 218.27 92.96 217.35 L 93.50 216.52 C 94.09 215.60 93.82 214.37 92.90 213.79 C 91.98 213.20 90.76 213.47 90.17 214.39 Z M 89.65 215.20 L 89.11 216.02 C 88.51 216.94 88.76 218.16 89.68 218.76 C 90.59 219.36 91.81 219.10 92.41 218.19 L 92.95 217.37 C 93.55 216.46 93.30 215.23 92.38 214.64 C 91.47 214.04 90.25 214.29 89.65 215.20 Z M 89.12 216.01 L 88.58 216.82 C 87.97 217.72 88.21 218.95 89.12 219.56 C 90.02 220.16 91.25 219.92 91.86 219.02 L 92.40 218.21 C 93.01 217.30 92.77 216.08 91.86 215.47 C 90.96 214.86 89.73 215.10 89.12 216.01 Z M 88.59 216.80 L 88.03 217.62 C 87.42 218.52 87.65 219.74 88.55 220.36 C 89.45 220.97 90.68 220.74 91.29 219.84 L 91.85 219.03 C 92.46 218.13 92.23 216.90 91.33 216.29 C 90.43 215.67 89.20 215.91 88.59 216.80 Z M 88.04 217.61 L 87.48 218.42 C 86.86 219.32 87.08 220.54 87.98 221.16 C 88.87 221.78 90.10 221.56 90.72 220.66 L 91.28 219.85 C 91.90 218.96 91.68 217.73 90.78 217.11 C 89.89 216.49 88.66 216.71 88.04 217.61 Z M 87.49 218.42 L 86.92 219.23 C 86.30 220.12 86.52 221.34 87.41 221.97 C 88.30 222.59 89.52 222.37 90.14 221.48 L 90.71 220.67 C 91.33 219.78 91.12 218.55 90.23 217.93 C 89.34 217.31 88.11 217.53 87.49 218.42 Z M 86.93 219.23 L 86.35 220.04 C 85.73 220.93 85.94 222.15 86.83 222.78 C 87.72 223.40 88.94 223.18 89.57 222.30 L 90.14 221.48 C 90.76 220.60 90.55 219.37 89.66 218.75 C 88.77 218.13 87.55 218.34 86.93 219.23 Z M 86.36 220.04 L 85.78 220.86 C 85.16 221.75 85.37 222.97 86.26 223.59 C 87.14 224.22 88.36 224.00 88.99 223.12 L 89.56 222.30 C 90.19 221.41 89.97 220.19 89.09 219.57 C 88.20 218.94 86.98 219.16 86.36 220.04 Z M 85.78 220.87 L 85.20 221.70 C 84.58 222.58 84.79 223.80 85.68 224.42 C 86.56 225.04 87.78 224.83 88.40 223.94 L 88.99 223.11 C 89.61 222.23 89.39 221.01 88.51 220.39 C 87.62 219.77 86.40 219.98 85.78 220.87 Z M 85.20 221.70 L 84.62 222.54 C 84.00 223.42 84.22 224.64 85.10 225.26 C 85.99 225.88 87.20 225.66 87.82 224.77 L 88.40 223.94 C 89.02 223.05 88.80 221.83 87.92 221.22 C 87.03 220.60 85.81 220.82 85.20 221.70 Z M 84.61 222.55 L 84.04 223.38 C 83.42 224.27 83.64 225.48 84.53 226.10 C 85.42 226.71 86.63 226.49 87.25 225.60 L 87.82 224.76 C 88.44 223.88 88.21 222.66 87.33 222.05 C 86.44 221.44 85.23 221.66 84.61 222.55 Z M 84.03 223.39 L 83.46 224.23 C 82.85 225.12 83.08 226.33 83.96 226.94 C 84.85 227.55 86.06 227.32 86.67 226.43 L 87.25 225.59 C 87.86 224.71 87.63 223.49 86.74 222.88 C 85.86 222.28 84.64 222.50 84.03 223.39 Z M 83.46 224.24 L 82.89 225.08 C 82.28 225.96 82.51 227.17 83.40 227.78 C 84.29 228.38 85.50 228.15 86.10 227.26 L 86.67 226.43 C 87.28 225.54 87.05 224.33 86.16 223.72 C 85.27 223.12 84.06 223.35 83.46 224.24 Z M 82.88 225.08 L 82.32 225.91 C 81.72 226.80 81.96 228.01 82.84 228.61 C 83.73 229.21 84.94 228.98 85.54 228.09 L 86.10 227.26 C 86.70 226.37 86.47 225.16 85.58 224.56 C 84.69 223.96 83.48 224.19 82.88 225.08 Z M 82.32 225.92 L 81.77 226.74 C 81.18 227.63 81.42 228.83 82.31 229.43 C 83.20 230.02 84.40 229.79 85.00 228.90 L 85.54 228.08 C 86.14 227.19 85.90 225.99 85.01 225.39 C 84.12 224.79 82.92 225.03 82.32 225.92 Z M 81.77 226.75 L 81.23 227.56 C 80.64 228.45 80.89 229.65 81.78 230.24 C 82.67 230.83 83.87 230.59 84.46 229.70 L 85.00 228.89 C 85.59 228.00 85.35 226.80 84.46 226.20 C 83.56 225.61 82.36 225.86 81.77 226.75 Z M 81.23 227.56 L 80.65 228.46 C 80.06 229.35 80.31 230.55 81.20 231.13 C 82.09 231.72 83.29 231.47 83.88 230.58 L 84.46 229.69 C 85.05 228.80 84.80 227.60 83.91 227.01 C 83.02 226.43 81.82 226.67 81.23 227.56 Z M 80.65 228.46 L 80.08 229.32 C 79.50 230.21 79.75 231.41 80.64 231.99 C 81.54 232.58 82.73 232.33 83.31 231.43 L 83.88 230.57 C 84.46 229.68 84.21 228.49 83.32 227.90 C 82.43 227.32 81.23 227.57 80.65 228.46 Z M 80.09 229.32 L 79.54 230.16 C 78.96 231.05 79.21 232.24 80.10 232.82 C 80.99 233.41 82.19 233.16 82.77 232.27 L 83.31 231.43 C 83.89 230.54 83.64 229.35 82.75 228.77 C 81.86 228.18 80.67 228.43 80.09 229.32 Z M 79.55 230.16 L 79.02 230.97 C 78.43 231.85 78.68 233.05 79.57 233.63 C 80.45 234.21 81.65 233.97 82.23 233.08 L 82.76 232.27 C 83.35 231.38 83.10 230.19 82.21 229.60 C 81.32 229.02 80.13 229.27 79.55 230.16 Z M 79.02 230.96 L 78.50 231.75 C 77.91 232.63 78.15 233.82 79.03 234.41 C 79.91 235.00 81.11 234.76 81.69 233.88 L 82.22 233.09 C 82.81 232.20 82.57 231.01 81.69 230.42 C 80.80 229.84 79.61 230.08 79.02 230.96 Z M 78.51 231.74 L 77.95 232.57 C 77.35 233.44 77.58 234.63 78.46 235.23 C 79.33 235.82 80.53 235.59 81.12 234.72 L 81.68 233.89 C 82.28 233.01 82.05 231.82 81.17 231.23 C 80.30 230.63 79.10 230.86 78.51 231.74 Z M 77.96 232.55 L 77.38 233.39 C 76.77 234.26 76.99 235.45 77.86 236.06 C 78.72 236.66 79.92 236.44 80.52 235.58 L 81.10 234.73 C 81.71 233.87 81.49 232.67 80.62 232.07 C 79.76 231.47 78.56 231.68 77.96 232.55 Z M 77.39 233.38 L 76.81 234.20 C 76.19 235.06 76.39 236.25 77.25 236.86 C 78.11 237.47 79.30 237.28 79.92 236.42 L 80.50 235.59 C 81.12 234.74 80.92 233.54 80.06 232.93 C 79.20 232.32 78.01 232.52 77.39 233.38 Z M 76.82 234.18 L 76.24 234.98 C 75.62 235.83 75.80 237.02 76.65 237.64 C 77.50 238.27 78.69 238.08 79.31 237.23 L 79.90 236.44 C 80.52 235.59 80.34 234.39 79.49 233.77 C 78.64 233.15 77.45 233.33 76.82 234.18 Z M 76.26 234.96 L 75.67 235.73 C 75.04 236.56 75.20 237.76 76.04 238.39 C 76.88 239.03 78.07 238.86 78.71 238.03 L 79.29 237.26 C 79.93 236.42 79.76 235.22 78.92 234.59 C 78.09 233.95 76.89 234.12 76.26 234.96 Z M 75.70 235.70 L 75.07 236.51 C 74.42 237.33 74.56 238.52 75.38 239.17 C 76.21 239.82 77.40 239.68 78.05 238.85 L 78.68 238.05 C 79.33 237.23 79.19 236.03 78.37 235.38 C 77.54 234.74 76.35 234.88 75.70 235.70 Z M 75.09 236.48 L 74.44 237.27 C 73.78 238.08 73.89 239.28 74.70 239.94 C 75.51 240.61 76.71 240.49 77.37 239.68 L 78.02 238.88 C 78.69 238.07 78.57 236.88 77.76 236.22 C 76.95 235.55 75.76 235.67 75.09 236.48 Z M 74.47 237.24 L 73.82 238.00 C 73.14 238.79 73.23 239.99 74.02 240.67 C 74.81 241.35 76.01 241.26 76.69 240.47 L 77.34 239.71 C 78.02 238.92 77.93 237.72 77.14 237.04 C 76.35 236.36 75.15 236.45 74.47 237.24 Z M 73.85 237.97 L 73.20 238.69 C 72.50 239.46 72.57 240.66 73.34 241.36 C 74.11 242.05 75.31 241.99 76.01 241.22 L 76.66 240.50 C 77.35 239.72 77.29 238.53 76.52 237.83 C 75.74 237.13 74.55 237.20 73.85 237.97 Z M 73.24 238.66 L 72.57 239.36 C 71.85 240.12 71.88 241.31 72.64 242.02 C 73.39 242.74 74.58 242.71 75.30 241.96 L 75.97 241.25 C 76.69 240.50 76.66 239.31 75.90 238.59 C 75.15 237.87 73.96 237.90 73.24 238.66 Z M 72.61 239.33 L 71.89 240.05 C 71.15 240.78 71.15 241.97 71.88 242.70 C 72.61 243.44 73.80 243.44 74.54 242.71 L 75.26 241.99 C 75.99 241.26 76.00 240.07 75.26 239.33 C 74.53 238.60 73.34 238.60 72.61 239.33 Z M 71.93 240.02 L 71.20 240.71 C 70.45 241.41 70.42 242.60 71.13 243.35 C 71.84 244.10 73.02 244.13 73.77 243.42 L 74.50 242.74 C 75.25 242.03 75.28 240.84 74.57 240.09 C 73.86 239.34 72.68 239.31 71.93 240.02 Z M 71.24 240.68 L 70.51 241.34 C 69.75 242.03 69.69 243.21 70.38 243.97 C 71.07 244.74 72.24 244.79 73.01 244.11 L 73.74 243.44 C 74.50 242.75 74.56 241.58 73.87 240.81 C 73.18 240.05 72.00 239.99 71.24 240.68 Z M 70.54 241.33 L 69.80 241.97 C 69.03 242.65 68.95 243.82 69.62 244.59 C 70.29 245.36 71.46 245.44 72.23 244.77 L 72.98 244.12 C 73.75 243.45 73.83 242.28 73.15 241.51 C 72.48 240.74 71.31 240.66 70.54 241.33 Z M 69.82 241.96 L 69.07 242.60 C 68.29 243.26 68.19 244.43 68.85 245.20 C 69.51 245.98 70.68 246.08 71.45 245.42 L 72.21 244.78 C 72.99 244.12 73.08 242.96 72.42 242.18 C 71.76 241.40 70.60 241.30 69.82 241.96 Z M 69.09 242.59 L 68.32 243.23 C 67.54 243.87 67.43 245.03 68.08 245.82 C 68.72 246.60 69.88 246.71 70.66 246.06 L 71.43 245.43 C 72.21 244.78 72.33 243.62 71.68 242.84 C 71.03 242.06 69.87 241.95 69.09 242.59 Z M 68.34 243.22 L 67.56 243.85 C 66.77 244.49 66.65 245.64 67.29 246.43 C 67.92 247.22 69.07 247.34 69.86 246.70 L 70.64 246.07 C 71.43 245.43 71.55 244.28 70.92 243.49 C 70.28 242.71 69.13 242.59 68.34 243.22 Z M 67.58 243.85 L 66.78 244.48 C 65.99 245.11 65.86 246.26 66.48 247.04 C 67.11 247.83 68.25 247.97 69.04 247.34 L 69.84 246.71 C 70.63 246.08 70.76 244.93 70.14 244.15 C 69.51 243.36 68.37 243.22 67.58 243.85 Z M 66.79 244.48 L 65.99 245.11 C 65.20 245.73 65.06 246.87 65.67 247.66 C 66.29 248.45 67.43 248.59 68.22 247.97 L 69.03 247.34 C 69.82 246.73 69.96 245.59 69.34 244.80 C 68.73 244.00 67.58 243.86 66.79 244.48 Z M 66.00 245.11 L 65.20 245.73 C 64.41 246.33 64.26 247.47 64.87 248.26 C 65.47 249.05 66.61 249.20 67.40 248.59 L 68.20 247.97 C 68.99 247.37 69.14 246.23 68.54 245.44 C 67.93 244.65 66.79 244.50 66.00 245.11 Z M 65.21 245.72 L 64.43 246.32 C 63.64 246.92 63.48 248.04 64.08 248.84 C 64.68 249.63 65.81 249.79 66.60 249.19 L 67.38 248.59 C 68.18 248.00 68.33 246.87 67.73 246.08 C 67.13 245.28 66.01 245.13 65.21 245.72 Z M 64.45 246.32 L 63.63 246.92 C 62.84 247.51 62.67 248.63 63.26 249.42 C 63.85 250.22 64.97 250.38 65.76 249.80 L 66.58 249.19 C 67.37 248.60 67.54 247.48 66.95 246.69 C 66.36 245.89 65.24 245.73 64.45 246.32 Z M 63.66 246.91 L 62.81 247.53 C 62.01 248.10 61.83 249.22 62.41 250.01 C 62.98 250.81 64.09 250.99 64.89 250.41 L 65.74 249.80 C 66.54 249.22 66.72 248.11 66.14 247.32 C 65.56 246.52 64.45 246.34 63.66 246.91 Z M 62.84 247.52 L 62.04 248.08 C 61.24 248.64 61.04 249.74 61.60 250.54 C 62.16 251.34 63.26 251.54 64.06 250.98 L 64.86 250.42 C 65.66 249.86 65.86 248.76 65.30 247.96 C 64.74 247.16 63.64 246.96 62.84 247.52 Z M 62.07 248.07 L 61.28 248.59 C 60.48 249.13 60.26 250.23 60.80 251.03 C 61.34 251.84 62.43 252.06 63.24 251.52 L 64.03 250.99 C 64.84 250.45 65.05 249.36 64.51 248.55 C 63.97 247.74 62.88 247.53 62.07 248.07 Z M 61.33 248.58 L 60.44 249.15 C 59.62 249.66 59.38 250.74 59.90 251.56 C 60.42 252.37 61.49 252.61 62.31 252.09 L 63.20 251.53 C 64.01 251.01 64.25 249.93 63.74 249.12 C 63.22 248.31 62.14 248.07 61.33 248.58 Z M 60.49 249.14 L 59.65 249.64 C 58.83 250.12 58.56 251.19 59.05 252.01 C 59.54 252.83 60.60 253.09 61.42 252.60 L 62.26 252.10 C 63.08 251.62 63.35 250.56 62.86 249.74 C 62.37 248.92 61.31 248.65 60.49 249.14 Z M 59.71 249.62 L 58.84 250.10 C 58.02 250.56 57.72 251.60 58.17 252.43 C 58.63 253.25 59.67 253.55 60.50 253.10 L 61.36 252.62 C 62.19 252.16 62.49 251.12 62.03 250.29 C 61.58 249.47 60.54 249.17 59.71 249.62 Z M 58.95 250.07 L 58.05 250.49 C 57.21 250.88 56.84 251.89 57.24 252.73 C 57.63 253.58 58.64 253.94 59.48 253.55 L 60.38 253.13 C 61.23 252.73 61.59 251.73 61.20 250.88 C 60.80 250.04 59.80 249.67 58.95 250.07 Z M 58.27 250.43 L 57.31 250.73 C 56.44 251.01 55.95 251.94 56.22 252.82 C 56.50 253.69 57.43 254.18 58.31 253.91 L 59.26 253.61 C 60.14 253.33 60.63 252.40 60.35 251.52 C 60.08 250.65 59.15 250.16 58.27 250.43 Z M 57.71 250.69 L 56.70 250.75 C 55.80 250.80 55.12 251.57 55.17 252.47 C 55.22 253.37 55.99 254.06 56.89 254.01 L 57.91 253.95 C 58.80 253.89 59.49 253.12 59.44 252.22 C 59.38 251.33 58.61 250.64 57.71 250.69 Z M 57.60 251.01 L 56.85 250.57 C 56.10 250.12 55.13 250.37 54.68 251.12 C 54.23 251.88 54.48 252.85 55.24 253.30 L 55.99 253.74 C 56.74 254.19 57.71 253.94 58.16 253.19 C 58.61 252.43 58.36 251.46 57.60 251.01 Z M 57.46 251.35 L 57.08 250.42 C 56.76 249.64 55.86 249.26 55.08 249.58 C 54.30 249.90 53.92 250.80 54.24 251.58 L 54.63 252.51 C 54.95 253.30 55.84 253.67 56.63 253.35 C 57.41 253.03 57.78 252.13 57.46 251.35 Z M 57.13 250.81 L 57.00 249.82 C 56.90 249.00 56.15 248.43 55.34 248.54 C 54.53 248.64 53.96 249.39 54.06 250.20 L 54.19 251.19 C 54.30 252.00 55.04 252.58 55.85 252.47 C 56.66 252.37 57.24 251.62 57.13 250.81 Z M 56.98 249.99 L 56.97 248.98 C 56.96 248.18 56.30 247.54 55.50 247.55 C 54.70 247.56 54.06 248.21 54.07 249.02 L 54.08 250.02 C 54.09 250.82 54.75 251.47 55.55 251.46 C 56.35 251.45 56.99 250.79 56.98 249.99 Z M 56.95 249.04 L 56.98 248.07 C 57.01 247.28 56.39 246.62 55.60 246.60 C 54.80 246.57 54.14 247.19 54.12 247.98 L 54.09 248.95 C 54.06 249.75 54.68 250.41 55.48 250.43 C 56.27 250.46 56.93 249.83 56.95 249.04 Z M 56.97 248.15 L 57.06 247.14 C 57.13 246.35 56.55 245.66 55.77 245.59 C 54.98 245.52 54.29 246.10 54.22 246.89 L 54.13 247.90 C 54.06 248.69 54.64 249.38 55.43 249.45 C 56.21 249.52 56.90 248.94 56.97 248.15 Z M 57.05 247.26 L 57.22 246.28 C 57.35 245.50 56.84 244.76 56.06 244.63 C 55.28 244.49 54.54 245.01 54.41 245.78 L 54.24 246.76 C 54.10 247.54 54.62 248.28 55.39 248.42 C 56.17 248.55 56.91 248.03 57.05 247.26 Z M 57.20 246.36 L 57.43 245.38 C 57.62 244.62 57.14 243.85 56.38 243.67 C 55.61 243.48 54.84 243.95 54.66 244.72 L 54.43 245.70 C 54.24 246.46 54.72 247.23 55.48 247.42 C 56.25 247.60 57.02 247.13 57.20 246.36 Z M 57.43 245.41 L 57.57 244.86 C 57.77 244.10 57.31 243.32 56.55 243.12 C 55.79 242.92 55.01 243.38 54.81 244.14 L 54.67 244.69 C 54.47 245.45 54.93 246.23 55.69 246.43 C 56.45 246.63 57.23 246.17 57.43 245.41 Z"
      fill="black"
      fill-rule="nonzero" /></svg>