<svg xmlns="http://www.w3.org/2000/svg" width="300" height="300" viewBox="0 0 300 300">
<path d="M 80.43 116.62 L 80.59 117.63 C 80.72 118.45 81.49 119.01 82.31 118.88 C 83.13 118.75 83.69 117.98 83.56 117.16 L 83.40 116.14 C 83.27 115.32 82.50 114.76 81.68 114.89 C 80.86 115.02 80.30 115.79 80.43 116.62 Z M 80.54 117.67 L 80.72 118.65 C 80.87 119.50 81.68 120.06 82.53 119.91 C 83.38 119.75 83.94 118.94 83.79 118.09 L 83.61 117.11 C 83.46 116.26 82.65 115.70 81.80 115.85 C 80.95 116.01 80.38 116.82 80.54 117.67 Z M 80.69 118.73 L 80.91 119.68 C 81.11 120.55 81.97 121.09 82.83 120.89 C 83.69 120.69 84.23 119.83 84.04 118.96 L 83.82 118.01 C 83.62 117.15 82.76 116.61 81.89 116.81 C 81.03 117.00 80.49 117.87 80.69 118.73 Z M 80.91 119.76 L 81.18 120.70 C 81.41 121.56 82.31 122.07 83.17 121.83 C 84.03 121.59 84.53 120.70 84.29 119.84 L 84.03 118.89 C 83.79 118.03 82.90 117.53 82.04 117.76 C 81.18 118.00 80.67 118.89 80.91 119.76 Z M 81.18 120.71 L 81.45 121.67 C 81.69 122.53 82.59 123.03 83.45 122.78 C 84.31 122.54 84.81 121.64 84.56 120.78 L 84.29 119.83 C 84.05 118.97 83.15 118.47 82.29 118.71 C 81.43 118.96 80.93 119.85 81.18 120.71 Z M 81.44 121.65 L 81.70 122.58 C 81.93 123.45 82.82 123.96 83.68 123.72 C 84.55 123.49 85.06 122.60 84.82 121.73 L 84.57 120.80 C 84.34 119.94 83.45 119.43 82.58 119.66 C 81.72 119.90 81.21 120.79 81.44 121.65 Z M 81.70 122.58 L 81.97 123.58 C 82.20 124.44 83.09 124.95 83.95 124.72 C 84.82 124.49 85.33 123.60 85.09 122.73 L 84.82 121.73 C 84.59 120.87 83.70 120.36 82.84 120.59 C 81.97 120.83 81.46 121.72 81.70 122.58 Z M 81.97 123.59 L 82.23 124.55 C 82.47 125.41 83.37 125.91 84.23 125.67 C 85.09 125.43 85.60 124.54 85.36 123.68 L 85.09 122.72 C 84.85 121.86 83.96 121.35 83.10 121.59 C 82.23 121.83 81.73 122.73 81.97 123.59 Z M 82.24 124.56 L 82.51 125.50 C 82.75 126.36 83.65 126.86 84.51 126.61 C 85.37 126.37 85.87 125.47 85.62 124.61 L 85.35 123.67 C 85.11 122.81 84.21 122.31 83.35 122.55 C 82.49 122.80 81.99 123.69 82.24 124.56 Z M 82.50 125.50 L 82.79 126.48 C 83.03 127.35 83.93 127.84 84.79 127.60 C 85.65 127.36 86.15 126.46 85.90 125.60 L 85.62 124.61 C 85.38 123.75 84.48 123.25 83.62 123.50 C 82.76 123.74 82.26 124.64 82.50 125.50 Z M 82.78 126.48 L 83.05 127.45 C 83.29 128.31 84.19 128.81 85.05 128.57 C 85.91 128.33 86.42 127.44 86.18 126.58 L 85.91 125.61 C 85.67 124.74 84.77 124.24 83.91 124.48 C 83.05 124.72 82.54 125.61 82.78 126.48 Z M 83.05 127.44 L 83.31 128.40 C 83.55 129.26 84.44 129.77 85.31 129.53 C 86.17 129.29 86.68 128.40 86.44 127.54 L 86.18 126.58 C 85.94 125.72 85.05 125.21 84.19 125.45 C 83.32 125.69 82.81 126.58 83.05 127.44 Z M 83.32 128.40 L 83.59 129.38 C 83.83 130.24 84.72 130.74 85.58 130.50 C 86.44 130.26 86.95 129.37 86.71 128.51 L 86.44 127.53 C 86.20 126.67 85.31 126.17 84.44 126.41 C 83.58 126.65 83.08 127.54 83.32 128.40 Z M 83.59 129.39 L 83.87 130.37 C 84.12 131.23 85.02 131.73 85.88 131.48 C 86.74 131.23 87.24 130.33 86.99 129.47 L 86.71 128.49 C 86.46 127.63 85.56 127.14 84.70 127.39 C 83.84 127.63 83.34 128.53 83.59 129.39 Z M 83.88 130.39 L 84.17 131.35 C 84.43 132.21 85.34 132.69 86.19 132.43 C 87.05 132.17 87.53 131.27 87.27 130.41 L 86.98 129.45 C 86.72 128.59 85.82 128.11 84.96 128.37 C 84.10 128.63 83.62 129.54 83.88 130.39 Z M 84.18 131.37 L 84.48 132.32 C 84.75 133.18 85.66 133.65 86.52 133.38 C 87.37 133.11 87.84 132.20 87.57 131.34 L 87.27 130.39 C 87.00 129.54 86.08 129.06 85.23 129.34 C 84.38 129.61 83.91 130.52 84.18 131.37 Z M 84.49 132.34 L 84.80 133.29 C 85.08 134.14 85.99 134.60 86.84 134.32 C 87.69 134.04 88.16 133.12 87.88 132.27 L 87.56 131.33 C 87.28 130.48 86.37 130.01 85.52 130.29 C 84.67 130.57 84.21 131.49 84.49 132.34 Z M 84.80 133.30 L 85.12 134.25 C 85.41 135.10 86.33 135.55 87.18 135.27 C 88.02 134.98 88.48 134.06 88.19 133.21 L 87.87 132.26 C 87.59 131.41 86.67 130.96 85.82 131.25 C 84.97 131.53 84.52 132.45 84.80 133.30 Z M 85.13 134.26 L 85.46 135.21 C 85.75 136.06 86.67 136.51 87.52 136.21 C 88.36 135.92 88.81 135.00 88.52 134.15 L 88.19 133.20 C 87.90 132.36 86.97 131.91 86.13 132.20 C 85.28 132.49 84.83 133.42 85.13 134.26 Z M 85.46 135.23 L 85.80 136.17 C 86.10 137.01 87.02 137.45 87.86 137.15 C 88.71 136.85 89.15 135.92 88.85 135.08 L 88.51 134.14 C 88.21 133.30 87.29 132.86 86.44 133.16 C 85.60 133.46 85.16 134.38 85.46 135.23 Z M 85.80 136.18 L 86.15 137.11 C 86.45 137.95 87.38 138.38 88.22 138.07 C 89.06 137.77 89.49 136.84 89.18 136.00 L 88.84 135.07 C 88.53 134.23 87.60 133.80 86.76 134.11 C 85.92 134.41 85.49 135.34 85.80 136.18 Z M 86.15 137.13 L 86.52 138.08 C 86.84 138.92 87.77 139.33 88.61 139.02 C 89.44 138.70 89.86 137.76 89.54 136.93 L 89.17 135.98 C 88.85 135.14 87.92 134.73 87.09 135.05 C 86.25 135.36 85.83 136.30 86.15 137.13 Z M 86.53 138.10 L 86.90 139.03 C 87.23 139.86 88.17 140.27 89.00 139.94 C 89.83 139.60 90.23 138.66 89.90 137.84 L 89.53 136.91 C 89.20 136.08 88.26 135.67 87.43 136.00 C 86.60 136.34 86.20 137.28 86.53 138.10 Z M 86.91 139.05 L 87.29 139.96 C 87.63 140.79 88.57 141.18 89.40 140.83 C 90.22 140.49 90.61 139.55 90.27 138.72 L 89.89 137.81 C 89.55 136.99 88.60 136.60 87.78 136.94 C 86.95 137.29 86.56 138.23 86.91 139.05 Z M 87.30 139.99 L 87.70 140.91 C 88.05 141.73 89.00 142.10 89.82 141.75 C 90.64 141.39 91.01 140.44 90.66 139.63 L 90.26 138.70 C 89.90 137.88 88.95 137.51 88.13 137.86 C 87.32 138.22 86.94 139.17 87.30 139.99 Z M 87.71 140.93 L 88.12 141.85 C 88.49 142.66 89.44 143.02 90.25 142.66 C 91.07 142.29 91.43 141.33 91.06 140.52 L 90.65 139.61 C 90.28 138.80 89.33 138.43 88.52 138.80 C 87.71 139.17 87.34 140.12 87.71 140.93 Z M 88.13 141.86 L 88.55 142.76 C 88.92 143.57 89.88 143.92 90.69 143.54 C 91.49 143.17 91.84 142.21 91.47 141.40 L 91.05 140.51 C 90.68 139.70 89.72 139.35 88.91 139.72 C 88.11 140.10 87.76 141.06 88.13 141.86 Z M 88.55 142.77 L 88.98 143.66 C 89.35 144.47 90.31 144.81 91.12 144.43 C 91.92 144.05 92.26 143.09 91.88 142.29 L 91.46 141.39 C 91.08 140.59 90.12 140.25 89.32 140.63 C 88.52 141.01 88.17 141.97 88.55 142.77 Z M 88.98 143.67 L 89.41 144.56 C 89.79 145.36 90.75 145.70 91.55 145.32 C 92.35 144.94 92.69 143.98 92.31 143.18 L 91.88 142.28 C 91.50 141.48 90.54 141.14 89.74 141.52 C 88.94 141.91 88.60 142.86 88.98 143.67 Z M 89.41 144.56 L 89.84 145.46 C 90.22 146.26 91.17 146.61 91.97 146.23 C 92.77 145.85 93.12 144.89 92.74 144.09 L 92.31 143.18 C 91.93 142.38 90.97 142.04 90.17 142.42 C 89.37 142.80 89.03 143.76 89.41 144.56 Z M 89.83 145.45 L 90.27 146.38 C 90.64 147.18 91.59 147.53 92.40 147.15 C 93.20 146.78 93.54 145.83 93.17 145.02 L 92.74 144.10 C 92.36 143.30 91.41 142.95 90.61 143.32 C 89.81 143.70 89.46 144.65 89.83 145.45 Z M 90.27 146.37 L 90.69 147.30 C 91.06 148.10 92.01 148.45 92.82 148.09 C 93.62 147.72 93.97 146.77 93.60 145.96 L 93.17 145.03 C 92.80 144.23 91.85 143.88 91.05 144.25 C 90.25 144.62 89.90 145.57 90.27 146.37 Z M 90.70 147.30 L 91.12 148.21 C 91.48 149.01 92.43 149.36 93.23 148.99 C 94.03 148.62 94.38 147.67 94.01 146.87 L 93.60 145.96 C 93.23 145.16 92.28 144.81 91.48 145.18 C 90.68 145.55 90.33 146.50 90.70 147.30 Z M 91.12 148.21 L 91.55 149.13 C 91.92 149.92 92.87 150.26 93.67 149.89 C 94.46 149.52 94.81 148.57 94.43 147.77 L 94.01 146.86 C 93.63 146.06 92.68 145.72 91.89 146.10 C 91.09 146.47 90.75 147.42 91.12 148.21 Z M 91.56 149.14 L 92.00 150.06 C 92.38 150.85 93.33 151.18 94.12 150.80 C 94.91 150.42 95.25 149.47 94.87 148.68 L 94.42 147.76 C 94.04 146.97 93.09 146.64 92.30 147.02 C 91.51 147.40 91.18 148.35 91.56 149.14 Z M 92.01 150.07 L 92.43 150.92 C 92.82 151.71 93.77 152.03 94.56 151.64 C 95.34 151.26 95.66 150.31 95.28 149.52 L 94.86 148.67 C 94.47 147.88 93.52 147.56 92.73 147.94 C 91.95 148.33 91.63 149.28 92.01 150.07 Z M 92.44 150.92 L 92.89 151.82 C 93.27 152.61 94.22 152.92 95.00 152.54 C 95.79 152.15 96.11 151.20 95.72 150.42 L 95.27 149.52 C 94.88 148.74 93.93 148.42 93.15 148.80 C 92.37 149.19 92.05 150.14 92.44 150.92 Z M 92.89 151.81 L 93.33 152.71 C 93.71 153.49 94.65 153.82 95.43 153.43 C 96.21 153.05 96.54 152.11 96.16 151.33 L 95.72 150.43 C 95.33 149.65 94.39 149.33 93.61 149.71 C 92.83 150.09 92.51 151.03 92.89 151.81 Z M 93.32 152.69 L 93.75 153.60 C 94.12 154.38 95.05 154.72 95.84 154.35 C 96.62 153.98 96.96 153.05 96.59 152.26 L 96.16 151.35 C 95.79 150.57 94.86 150.23 94.07 150.60 C 93.29 150.97 92.95 151.90 93.32 152.69 Z M 93.75 153.57 L 94.16 154.49 C 94.52 155.27 95.44 155.62 96.23 155.26 C 97.01 154.91 97.36 153.98 97.00 153.20 L 96.59 152.28 C 96.24 151.50 95.31 151.15 94.53 151.51 C 93.74 151.86 93.39 152.79 93.75 153.57 Z M 94.17 154.49 L 94.59 155.39 C 94.95 156.17 95.87 156.51 96.65 156.16 C 97.43 155.80 97.77 154.88 97.41 154.10 L 96.99 153.19 C 96.64 152.42 95.71 152.07 94.94 152.43 C 94.16 152.79 93.82 153.71 94.17 154.49 Z M 94.60 155.40 L 95.03 156.32 C 95.40 157.09 96.32 157.42 97.09 157.05 C 97.86 156.69 98.19 155.77 97.82 155.00 L 97.39 154.09 C 97.03 153.32 96.11 152.99 95.34 153.35 C 94.57 153.71 94.24 154.63 94.60 155.40 Z M 95.03 156.29 L 95.44 157.19 C 95.79 157.96 96.70 158.30 97.47 157.95 C 98.24 157.60 98.58 156.70 98.23 155.92 L 97.82 155.03 C 97.48 154.26 96.57 153.92 95.80 154.26 C 95.03 154.61 94.69 155.52 95.03 156.29 Z M 95.44 157.15 L 95.82 158.06 C 96.15 158.83 97.04 159.19 97.81 158.87 C 98.59 158.54 98.95 157.65 98.62 156.88 L 98.24 155.96 C 97.91 155.19 97.02 154.83 96.24 155.16 C 95.47 155.48 95.11 156.38 95.44 157.15 Z M 95.83 158.05 L 96.21 158.95 C 96.53 159.71 97.42 160.07 98.18 159.75 C 98.95 159.43 99.31 158.55 98.99 157.78 L 98.61 156.88 C 98.29 156.12 97.40 155.76 96.64 156.08 C 95.87 156.40 95.51 157.29 95.83 158.05 Z M 96.22 158.92 L 96.59 159.87 C 96.90 160.63 97.77 161.00 98.53 160.70 C 99.29 160.39 99.67 159.53 99.36 158.76 L 98.98 157.81 C 98.68 157.05 97.81 156.68 97.05 156.98 C 96.28 157.28 95.91 158.15 96.22 158.92 Z M 96.58 159.80 L 96.91 160.73 C 97.17 161.50 98.01 161.91 98.78 161.64 C 99.55 161.38 99.96 160.54 99.70 159.77 L 99.37 158.83 C 99.11 158.06 98.27 157.65 97.50 157.92 C 96.73 158.18 96.32 159.02 96.58 159.80 Z M 96.89 160.64 L 97.16 161.62 C 97.38 162.40 98.19 162.85 98.97 162.63 C 99.75 162.42 100.20 161.61 99.98 160.83 L 99.71 159.86 C 99.49 159.08 98.69 158.62 97.91 158.84 C 97.13 159.06 96.67 159.87 96.89 160.64 Z M 97.15 161.52 L 97.36 162.50 C 97.52 163.29 98.29 163.79 99.07 163.63 C 99.86 163.46 100.36 162.70 100.20 161.91 L 99.99 160.93 C 99.83 160.14 99.06 159.64 98.28 159.80 C 97.49 159.97 96.99 160.73 97.15 161.52 Z M 97.36 162.44 L 97.52 163.39 C 97.65 164.18 98.39 164.70 99.17 164.57 C 99.96 164.44 100.48 163.70 100.35 162.92 L 100.19 161.97 C 100.06 161.19 99.32 160.66 98.54 160.79 C 97.76 160.92 97.23 161.66 97.36 162.44 Z"
      fill="black"
      fill-rule="nonzero" /><path d="M 146.05 82.77 L 146.70 81.93 C 147.19 81.29 147.08 80.37 146.44 79.88 C 145.80 79.39 144.88 79.50 144.39 80.14 L 143.74 80.98 C 143.25 81.62 143.36 82.54 144.00 83.03 C 144.64 83.52 145.56 83.41 146.05 82.77 Z M 145.08 82.47 L 145.67 82.66 C 146.46 82.92 147.32 82.49 147.57 81.70 C 147.83 80.90 147.40 80.05 146.61 79.79 L 146.01 79.60 C 145.22 79.34 144.37 79.77 144.11 80.57 C 143.85 81.36 144.28 82.21 145.08 82.47 Z M 144.81 81.99 L 145.40 83.02 C 145.83 83.76 146.76 84.01 147.50 83.59 C 148.23 83.17 148.49 82.23 148.06 81.49 L 147.47 80.46 C 147.05 79.73 146.11 79.48 145.37 79.90 C 144.64 80.32 144.39 81.26 144.81 81.99 Z M 145.31 82.88 L 145.71 83.78 C 146.05 84.57 146.97 84.92 147.75 84.58 C 148.54 84.23 148.89 83.32 148.55 82.53 L 148.15 81.63 C 147.81 80.85 146.89 80.49 146.11 80.84 C 145.32 81.18 144.97 82.10 145.31 82.88 Z M 145.67 83.74 L 146.06 84.70 C 146.38 85.50 147.29 85.89 148.09 85.57 C 148.90 85.25 149.29 84.34 148.97 83.54 L 148.58 82.58 C 148.26 81.77 147.35 81.38 146.55 81.70 C 145.74 82.02 145.35 82.94 145.67 83.74 Z M 146.03 84.67 L 146.39 85.64 C 146.70 86.46 147.61 86.88 148.43 86.57 C 149.24 86.27 149.66 85.36 149.36 84.54 L 148.99 83.57 C 148.69 82.75 147.78 82.33 146.96 82.64 C 146.14 82.94 145.73 83.85 146.03 84.67 Z M 146.37 85.61 L 146.69 86.57 C 146.98 87.40 147.89 87.84 148.72 87.56 C 149.55 87.27 150.00 86.36 149.71 85.53 L 149.38 84.58 C 149.10 83.74 148.19 83.30 147.36 83.58 C 146.52 83.87 146.08 84.78 146.37 85.61 Z M 146.67 86.53 L 146.95 87.42 C 147.21 88.27 148.11 88.74 148.96 88.47 C 149.81 88.21 150.28 87.31 150.01 86.46 L 149.74 85.57 C 149.47 84.72 148.57 84.25 147.72 84.51 C 146.87 84.78 146.40 85.68 146.67 86.53 Z M 146.93 87.39 L 147.20 88.34 C 147.45 89.20 148.35 89.69 149.21 89.44 C 150.07 89.19 150.56 88.30 150.31 87.44 L 150.03 86.49 C 149.79 85.63 148.89 85.14 148.03 85.39 C 147.17 85.64 146.68 86.53 146.93 87.39 Z M 147.19 88.31 L 147.45 89.29 C 147.68 90.15 148.58 90.67 149.44 90.43 C 150.31 90.20 150.83 89.31 150.59 88.44 L 150.33 87.46 C 150.09 86.60 149.20 86.08 148.33 86.32 C 147.46 86.55 146.95 87.45 147.19 88.31 Z M 147.43 89.27 L 147.67 90.21 C 147.89 91.09 148.78 91.62 149.66 91.40 C 150.54 91.18 151.07 90.28 150.85 89.41 L 150.61 88.46 C 150.39 87.58 149.50 87.05 148.62 87.27 C 147.74 87.49 147.21 88.39 147.43 89.27 Z M 147.65 90.20 L 147.89 91.20 C 148.10 92.09 149.00 92.64 149.89 92.42 C 150.78 92.21 151.33 91.31 151.11 90.42 L 150.87 89.42 C 150.66 88.53 149.76 87.98 148.87 88.20 C 147.98 88.41 147.43 89.31 147.65 90.20 Z M 147.87 91.18 L 148.08 92.11 C 148.29 93.01 149.18 93.58 150.09 93.37 C 150.99 93.17 151.55 92.27 151.34 91.37 L 151.13 90.44 C 150.93 89.54 150.03 88.97 149.13 89.18 C 148.23 89.38 147.66 90.28 147.87 91.18 Z M 148.06 92.09 L 148.27 93.07 C 148.46 93.99 149.35 94.57 150.27 94.38 C 151.18 94.19 151.77 93.29 151.57 92.38 L 151.37 91.39 C 151.17 90.48 150.28 89.89 149.37 90.09 C 148.45 90.28 147.87 91.17 148.06 92.09 Z M 148.24 93.04 L 148.43 94.03 C 148.60 94.96 149.49 95.57 150.42 95.40 C 151.34 95.22 151.95 94.33 151.78 93.41 L 151.60 92.41 C 151.42 91.49 150.53 90.88 149.61 91.05 C 148.68 91.22 148.07 92.11 148.24 93.04 Z M 148.41 94.00 L 148.56 94.94 C 148.71 95.88 149.60 96.52 150.54 96.37 C 151.47 96.21 152.11 95.33 151.96 94.39 L 151.80 93.44 C 151.65 92.51 150.77 91.87 149.83 92.02 C 148.89 92.18 148.25 93.06 148.41 94.00 Z M 148.54 94.92 L 148.69 95.93 C 148.83 96.87 149.71 97.53 150.65 97.39 C 151.60 97.26 152.26 96.38 152.12 95.43 L 151.98 94.42 C 151.84 93.47 150.96 92.81 150.01 92.95 C 149.06 93.09 148.41 93.97 148.54 94.92 Z M 148.67 95.90 L 148.80 96.92 C 148.93 97.88 149.80 98.56 150.76 98.43 C 151.72 98.31 152.40 97.43 152.27 96.47 L 152.14 95.45 C 152.02 94.50 151.14 93.82 150.18 93.94 C 149.22 94.07 148.55 94.94 148.67 95.90 Z M 148.79 96.90 L 148.90 97.85 C 149.01 98.81 149.89 99.50 150.86 99.39 C 151.82 99.28 152.51 98.40 152.40 97.43 L 152.29 96.49 C 152.17 95.52 151.30 94.83 150.33 94.95 C 149.36 95.06 148.67 95.94 148.79 96.90 Z M 148.88 97.84 L 148.99 98.82 C 149.10 99.80 149.98 100.50 150.95 100.39 C 151.93 100.28 152.63 99.41 152.52 98.43 L 152.41 97.44 C 152.30 96.47 151.43 95.77 150.45 95.88 C 149.48 95.98 148.78 96.86 148.88 97.84 Z M 148.98 98.82 L 149.09 99.86 C 149.20 100.84 150.08 101.55 151.06 101.44 C 152.04 101.34 152.75 100.46 152.65 99.48 L 152.54 98.44 C 152.43 97.46 151.55 96.75 150.57 96.85 C 149.59 96.96 148.88 97.84 148.98 98.82 Z M 149.08 99.86 L 149.19 100.86 C 149.29 101.85 150.17 102.57 151.16 102.46 C 152.15 102.36 152.87 101.47 152.76 100.48 L 152.66 99.48 C 152.56 98.49 151.67 97.77 150.68 97.88 C 149.69 97.98 148.98 98.87 149.08 99.86 Z M 149.17 100.86 L 149.27 101.84 C 149.38 102.83 150.27 103.56 151.26 103.46 C 152.26 103.35 152.98 102.46 152.88 101.47 L 152.78 100.49 C 152.67 99.49 151.79 98.77 150.79 98.87 C 149.80 98.97 149.07 99.86 149.17 100.86 Z M 149.26 101.83 L 149.36 102.83 C 149.45 103.84 150.35 104.57 151.35 104.47 C 152.35 104.38 153.08 103.49 152.99 102.48 L 152.89 101.48 C 152.79 100.48 151.90 99.74 150.90 99.84 C 149.90 99.94 149.16 100.83 149.26 101.83 Z M 149.35 102.82 L 149.43 103.83 C 149.52 104.84 150.41 105.59 151.42 105.50 C 152.43 105.41 153.17 104.52 153.09 103.51 L 153.00 102.50 C 152.91 101.49 152.02 100.74 151.01 100.83 C 150.00 100.92 149.26 101.81 149.35 102.82 Z M 149.42 103.81 L 149.49 104.82 C 149.57 105.84 150.45 106.60 151.47 106.52 C 152.48 106.45 153.25 105.57 153.17 104.55 L 153.10 103.54 C 153.03 102.52 152.14 101.76 151.13 101.83 C 150.11 101.91 149.35 102.79 149.42 103.81 Z M 149.48 104.79 L 149.54 105.80 C 149.60 106.82 150.48 107.60 151.50 107.54 C 152.52 107.48 153.30 106.61 153.24 105.58 L 153.19 104.58 C 153.13 103.55 152.25 102.77 151.23 102.83 C 150.20 102.89 149.42 103.77 149.48 104.79 Z M 149.53 105.78 L 149.58 106.78 C 149.63 107.81 150.50 108.60 151.53 108.55 C 152.56 108.50 153.35 107.63 153.30 106.60 L 153.25 105.60 C 153.20 104.58 152.33 103.78 151.31 103.83 C 150.28 103.88 149.48 104.75 149.53 105.78 Z M 149.57 106.77 L 149.61 107.76 C 149.65 108.79 150.52 109.59 151.56 109.55 C 152.59 109.51 153.39 108.64 153.35 107.61 L 153.31 106.62 C 153.27 105.58 152.40 104.78 151.37 104.82 C 150.33 104.86 149.53 105.73 149.57 106.77 Z M 149.60 107.75 L 149.64 108.75 C 149.68 109.78 150.55 110.59 151.59 110.55 C 152.62 110.51 153.43 109.64 153.39 108.60 L 153.36 107.61 C 153.32 106.58 152.45 105.77 151.41 105.81 C 150.37 105.85 149.57 106.72 149.60 107.75 Z M 149.63 108.75 L 149.67 109.75 C 149.71 110.79 150.59 111.60 151.63 111.56 C 152.67 111.52 153.48 110.65 153.44 109.61 L 153.40 108.60 C 153.36 107.56 152.49 106.75 151.45 106.79 C 150.41 106.83 149.59 107.71 149.63 108.75 Z M 149.66 109.75 L 149.70 110.75 C 149.74 111.79 150.62 112.61 151.66 112.57 C 152.71 112.53 153.52 111.65 153.48 110.61 L 153.45 109.61 C 153.41 108.56 152.53 107.75 151.49 107.79 C 150.44 107.82 149.63 108.70 149.66 109.75 Z M 149.69 110.74 L 149.73 111.74 C 149.76 112.79 150.64 113.61 151.69 113.58 C 152.74 113.54 153.56 112.66 153.53 111.61 L 153.49 110.61 C 153.45 109.56 152.57 108.74 151.53 108.78 C 150.48 108.82 149.66 109.70 149.69 110.74 Z M 149.72 111.74 L 149.75 112.73 C 149.78 113.78 150.66 114.61 151.72 114.58 C 152.77 114.55 153.60 113.67 153.56 112.61 L 153.53 111.62 C 153.50 110.56 152.62 109.74 151.57 109.77 C 150.51 109.80 149.69 110.68 149.72 111.74 Z M 149.74 112.72 L 149.77 113.72 C 149.80 114.77 150.68 115.61 151.73 115.58 C 152.79 115.55 153.63 114.67 153.60 113.62 L 153.57 112.62 C 153.54 111.56 152.66 110.73 151.61 110.76 C 150.55 110.78 149.71 111.66 149.74 112.72 Z M 149.76 113.71 L 149.78 114.70 C 149.80 115.77 150.68 116.61 151.75 116.59 C 152.81 116.56 153.65 115.68 153.63 114.62 L 153.61 113.63 C 153.58 112.56 152.70 111.72 151.64 111.74 C 150.58 111.77 149.74 112.65 149.76 113.71 Z M 149.77 114.69 L 149.79 115.69 C 149.81 116.76 150.69 117.61 151.75 117.59 C 152.82 117.58 153.67 116.70 153.65 115.63 L 153.64 114.63 C 153.62 113.56 152.74 112.71 151.67 112.73 C 150.61 112.75 149.76 113.63 149.77 114.69 Z M 149.78 115.68 L 149.79 116.69 C 149.81 117.76 150.68 118.62 151.76 118.61 C 152.83 118.60 153.68 117.72 153.67 116.65 L 153.66 115.64 C 153.65 114.57 152.77 113.71 151.70 113.72 C 150.63 113.74 149.77 114.61 149.78 115.68 Z M 149.79 116.68 L 149.79 117.65 C 149.80 118.73 150.68 119.59 151.75 119.58 C 152.83 119.58 153.69 118.70 153.69 117.62 L 153.68 116.65 C 153.67 115.58 152.79 114.72 151.72 114.72 C 150.64 114.73 149.78 115.61 149.79 116.68 Z M 149.79 117.65 L 149.79 118.62 C 149.80 119.70 150.67 120.57 151.75 120.57 C 152.83 120.56 153.70 119.69 153.70 118.61 L 153.69 117.63 C 153.69 116.55 152.81 115.68 151.73 115.69 C 150.65 115.69 149.78 116.57 149.79 117.65 Z M 149.79 118.62 L 149.79 119.62 C 149.79 120.70 150.67 121.58 151.75 121.57 C 152.83 121.57 153.71 120.69 153.70 119.61 L 153.70 118.61 C 153.70 117.53 152.82 116.66 151.74 116.66 C 150.66 116.66 149.78 117.54 149.79 118.62 Z M 149.78 119.62 L 149.78 120.64 C 149.78 121.73 150.66 122.61 151.75 122.61 C 152.83 122.61 153.71 121.73 153.71 120.64 L 153.71 119.62 C 153.71 118.53 152.83 117.65 151.75 117.65 C 150.66 117.65 149.78 118.53 149.78 119.62 Z M 149.78 120.64 L 149.78 121.64 C 149.78 122.72 150.66 123.60 151.75 123.60 C 152.83 123.60 153.71 122.72 153.71 121.64 L 153.72 120.64 C 153.72 119.56 152.83 118.67 151.75 118.67 C 150.66 118.67 149.78 119.56 149.78 120.64 Z M 149.77 121.63 L 149.77 122.58 C 149.77 123.67 150.65 124.55 151.74 124.55 C 152.83 124.56 153.72 123.67 153.72 122.58 L 153.72 121.64 C 153.72 120.55 152.84 119.66 151.75 119.66 C 150.66 119.66 149.78 120.54 149.77 121.63 Z M 149.77 122.57 L 149.76 123.55 C 149.76 124.64 150.64 125.53 151.73 125.54 C 152.82 125.54 153.71 124.66 153.72 123.57 L 153.72 122.59 C 153.73 121.50 152.85 120.61 151.75 120.61 C 150.66 120.60 149.77 121.48 149.77 122.57 Z M 149.76 123.54 L 149.75 124.55 C 149.74 125.64 150.62 126.54 151.71 126.55 C 152.80 126.56 153.70 125.69 153.71 124.59 L 153.72 123.58 C 153.73 122.49 152.86 121.59 151.76 121.58 C 150.67 121.57 149.77 122.45 149.76 123.54 Z M 149.75 124.54 L 149.73 125.59 C 149.71 126.68 150.58 127.59 151.68 127.61 C 152.77 127.63 153.68 126.75 153.69 125.66 L 153.71 124.61 C 153.73 123.51 152.86 122.61 151.77 122.59 C 150.67 122.57 149.77 123.44 149.75 124.54 Z M 149.72 125.57 L 149.70 126.60 C 149.67 127.70 150.53 128.62 151.63 128.64 C 152.73 128.67 153.64 127.81 153.67 126.71 L 153.70 125.68 C 153.73 124.58 152.86 123.66 151.76 123.63 C 150.67 123.61 149.75 124.47 149.72 125.57 Z M 149.69 126.59 L 149.66 127.57 C 149.62 128.67 150.48 129.59 151.58 129.63 C 152.67 129.67 153.60 128.81 153.64 127.72 L 153.67 126.73 C 153.71 125.63 152.85 124.71 151.75 124.67 C 150.66 124.63 149.73 125.49 149.69 126.59 Z M 149.66 127.56 L 149.61 128.56 C 149.56 129.66 150.42 130.59 151.51 130.64 C 152.61 130.69 153.54 129.84 153.59 128.74 L 153.64 127.73 C 153.69 126.63 152.84 125.70 151.74 125.65 C 150.64 125.61 149.71 126.46 149.66 127.56 Z M 149.61 128.54 L 149.56 129.56 C 149.50 130.66 150.34 131.60 151.44 131.65 C 152.54 131.71 153.48 130.87 153.54 129.77 L 153.59 128.76 C 153.65 127.66 152.81 126.72 151.71 126.66 C 150.61 126.60 149.67 127.44 149.61 128.54 Z M 149.56 129.54 L 149.49 130.55 C 149.42 131.65 150.26 132.60 151.36 132.66 C 152.46 132.73 153.41 131.90 153.48 130.80 L 153.54 129.79 C 153.61 128.69 152.77 127.74 151.67 127.67 C 150.57 127.60 149.62 128.44 149.56 129.54 Z M 149.49 130.53 L 149.42 131.52 C 149.34 132.62 150.17 133.58 151.27 133.66 C 152.37 133.74 153.33 132.91 153.41 131.81 L 153.48 130.82 C 153.56 129.71 152.73 128.76 151.63 128.68 C 150.53 128.60 149.57 129.43 149.49 130.53 Z M 149.42 131.50 L 149.33 132.53 C 149.24 133.63 150.06 134.59 151.16 134.69 C 152.26 134.78 153.23 133.96 153.32 132.86 L 153.41 131.83 C 153.50 130.73 152.68 129.77 151.58 129.67 C 150.48 129.58 149.51 130.40 149.42 131.50 Z M 149.34 132.50 L 149.24 133.53 C 149.13 134.63 149.94 135.61 151.04 135.71 C 152.14 135.82 153.12 135.01 153.22 133.91 L 153.32 132.88 C 153.43 131.78 152.62 130.80 151.52 130.70 C 150.42 130.59 149.44 131.40 149.34 132.50 Z M 149.24 133.51 L 149.13 134.51 C 149.02 135.61 149.82 136.59 150.92 136.71 C 152.02 136.83 153.00 136.03 153.12 134.93 L 153.22 133.93 C 153.34 132.83 152.54 131.84 151.44 131.73 C 150.34 131.61 149.36 132.41 149.24 133.51 Z M 149.13 134.49 L 149.02 135.47 C 148.90 136.57 149.68 137.56 150.78 137.69 C 151.88 137.82 152.88 137.03 153.01 135.93 L 153.12 134.95 C 153.24 133.85 152.45 132.85 151.35 132.73 C 150.25 132.60 149.26 133.39 149.13 134.49 Z M 149.02 135.45 L 148.90 136.42 C 148.77 137.52 149.55 138.52 150.65 138.65 C 151.75 138.79 152.75 138.00 152.89 136.90 L 153.00 135.94 C 153.14 134.84 152.36 133.84 151.26 133.71 C 150.16 133.57 149.16 134.35 149.02 135.45 Z M 148.90 136.41 L 148.78 137.37 C 148.64 138.47 149.42 139.48 150.52 139.62 C 151.62 139.76 152.62 138.98 152.76 137.88 L 152.89 136.92 C 153.03 135.82 152.25 134.81 151.15 134.67 C 150.05 134.53 149.04 135.31 148.90 136.41 Z M 148.78 137.36 L 148.65 138.35 C 148.50 139.45 149.28 140.46 150.38 140.61 C 151.48 140.76 152.49 139.98 152.63 138.88 L 152.76 137.89 C 152.91 136.79 152.14 135.78 151.04 135.64 C 149.94 135.49 148.93 136.26 148.78 137.36 Z M 148.65 138.34 L 148.51 139.33 C 148.36 140.43 149.13 141.45 150.23 141.60 C 151.33 141.75 152.35 140.98 152.50 139.88 L 152.63 138.89 C 152.78 137.79 152.01 136.78 150.91 136.63 C 149.81 136.48 148.80 137.24 148.65 138.34 Z M 148.51 139.32 L 148.37 140.31 C 148.22 141.41 148.98 142.43 150.08 142.58 C 151.18 142.74 152.20 141.97 152.36 140.87 L 152.50 139.89 C 152.65 138.79 151.89 137.77 150.79 137.61 C 149.69 137.46 148.67 138.22 148.51 139.32 Z M 148.37 140.30 L 148.23 141.29 C 148.07 142.39 148.83 143.41 149.93 143.57 C 151.03 143.73 152.05 142.97 152.21 141.87 L 152.36 140.88 C 152.52 139.78 151.76 138.76 150.66 138.60 C 149.56 138.44 148.53 139.20 148.37 140.30 Z M 148.23 141.28 L 148.08 142.27 C 147.91 143.37 148.67 144.39 149.77 144.56 C 150.87 144.72 151.90 143.97 152.06 142.87 L 152.21 141.88 C 152.38 140.78 151.62 139.76 150.52 139.59 C 149.42 139.42 148.39 140.18 148.23 141.28 Z M 148.08 142.26 L 147.93 143.22 C 147.76 144.32 148.52 145.35 149.62 145.52 C 150.72 145.69 151.75 144.93 151.92 143.83 L 152.06 142.87 C 152.23 141.77 151.48 140.74 150.38 140.58 C 149.28 140.41 148.25 141.16 148.08 142.26 Z M 147.93 143.21 L 147.78 144.18 C 147.61 145.28 148.36 146.31 149.46 146.49 C 150.56 146.66 151.59 145.91 151.76 144.81 L 151.92 143.84 C 152.09 142.74 151.34 141.70 150.24 141.53 C 149.14 141.36 148.11 142.11 147.93 143.21 Z M 147.78 144.17 L 147.62 145.16 C 147.45 146.26 148.20 147.30 149.30 147.47 C 150.40 147.65 151.43 146.90 151.61 145.80 L 151.77 144.81 C 151.94 143.71 151.19 142.68 150.09 142.50 C 148.99 142.32 147.96 143.07 147.78 144.17 Z M 147.62 145.15 L 147.46 146.16 C 147.28 147.26 148.03 148.30 149.13 148.48 C 150.23 148.66 151.27 147.91 151.44 146.81 L 151.61 145.80 C 151.79 144.70 151.04 143.66 149.94 143.49 C 148.84 143.31 147.80 144.05 147.62 145.15 Z M 147.46 146.16 L 147.29 147.18 C 147.11 148.28 147.85 149.32 148.95 149.50 C 150.06 149.68 151.10 148.94 151.28 147.84 L 151.45 146.81 C 151.63 145.71 150.88 144.67 149.78 144.49 C 148.68 144.31 147.64 145.05 147.46 146.16 Z M 147.29 147.18 L 147.13 148.14 C 146.95 149.24 147.69 150.29 148.79 150.47 C 149.89 150.65 150.93 149.91 151.12 148.81 L 151.28 147.84 C 151.46 146.74 150.72 145.70 149.61 145.51 C 148.51 145.33 147.47 146.08 147.29 147.18 Z M 147.13 148.14 L 146.97 149.11 C 146.78 150.21 147.52 151.26 148.63 151.44 C 149.73 151.62 150.77 150.88 150.95 149.78 L 151.12 148.81 C 151.30 147.71 150.56 146.66 149.46 146.48 C 148.35 146.30 147.31 147.04 147.13 148.14 Z M 146.96 149.11 L 146.80 150.10 C 146.61 151.20 147.36 152.24 148.46 152.43 C 149.56 152.61 150.60 151.87 150.79 150.77 L 150.95 149.78 C 151.14 148.68 150.40 147.64 149.30 147.45 C 148.19 147.27 147.15 148.01 146.96 149.11 Z M 146.80 150.09 L 146.63 151.09 C 146.44 152.19 147.19 153.23 148.29 153.42 C 149.39 153.61 150.43 152.86 150.62 151.76 L 150.79 150.77 C 150.98 149.67 150.23 148.62 149.13 148.44 C 148.03 148.25 146.98 148.99 146.80 150.09 Z M 146.63 151.09 L 146.46 152.09 C 146.27 153.19 147.02 154.24 148.12 154.42 C 149.22 154.61 150.26 153.87 150.45 152.77 L 150.62 151.76 C 150.81 150.66 150.07 149.62 148.96 149.43 C 147.86 149.24 146.82 149.99 146.63 151.09 Z M 146.46 152.09 L 146.29 153.09 C 146.10 154.19 146.84 155.24 147.95 155.43 C 149.05 155.61 150.09 154.87 150.28 153.77 L 150.45 152.77 C 150.64 151.66 149.90 150.62 148.79 150.43 C 147.69 150.24 146.65 150.99 146.46 152.09 Z M 146.29 153.09 L 146.12 154.07 C 145.93 155.18 146.68 156.22 147.78 156.41 C 148.88 156.60 149.93 155.85 150.11 154.75 L 150.28 153.77 C 150.47 152.67 149.73 151.62 148.62 151.44 C 147.52 151.25 146.48 151.99 146.29 153.09 Z M 146.12 154.07 L 145.95 155.05 C 145.77 156.16 146.51 157.20 147.61 157.39 C 148.71 157.58 149.76 156.84 149.95 155.74 L 150.12 154.75 C 150.30 153.65 149.56 152.60 148.46 152.42 C 147.36 152.23 146.31 152.97 146.12 154.07 Z M 145.95 155.05 L 145.79 156.03 C 145.60 157.14 146.34 158.18 147.44 158.37 C 148.54 158.56 149.59 157.82 149.78 156.72 L 149.95 155.74 C 150.14 154.63 149.40 153.59 148.29 153.40 C 147.19 153.21 146.14 153.95 145.95 155.05 Z M 145.79 156.03 L 145.61 157.02 C 145.42 158.12 146.16 159.17 147.27 159.36 C 148.37 159.55 149.42 158.81 149.61 157.71 L 149.78 156.72 C 149.97 155.62 149.23 154.57 148.13 154.38 C 147.03 154.19 145.98 154.93 145.79 156.03 Z M 145.62 157.01 L 145.44 158.00 C 145.25 159.10 145.99 160.15 147.09 160.35 C 148.19 160.54 149.24 159.80 149.43 158.70 L 149.61 157.71 C 149.80 156.61 149.06 155.56 147.96 155.37 C 146.86 155.17 145.81 155.91 145.62 157.01 Z M 145.44 157.99 L 145.27 158.99 C 145.07 160.09 145.80 161.14 146.91 161.34 C 148.01 161.53 149.06 160.80 149.26 159.70 L 149.43 158.71 C 149.63 157.60 148.90 156.55 147.79 156.36 C 146.69 156.16 145.64 156.89 145.44 157.99 Z M 145.27 158.98 L 145.08 160.00 C 144.88 161.10 145.61 162.16 146.71 162.36 C 147.82 162.56 148.87 161.83 149.07 160.73 L 149.26 159.70 C 149.46 158.60 148.72 157.55 147.62 157.35 C 146.52 157.15 145.47 157.88 145.27 158.98 Z M 145.08 160.00 L 144.89 161.01 C 144.69 162.12 145.42 163.17 146.52 163.38 C 147.62 163.58 148.68 162.85 148.88 161.75 L 149.07 160.73 C 149.27 159.63 148.55 158.58 147.44 158.37 C 146.34 158.17 145.29 158.89 145.08 160.00 Z M 144.90 161.01 L 144.70 162.01 C 144.50 163.11 145.22 164.17 146.32 164.38 C 147.42 164.59 148.48 163.87 148.69 162.77 L 148.88 161.76 C 149.09 160.66 148.36 159.60 147.27 159.39 C 146.17 159.18 145.10 159.91 144.90 161.01 Z M 144.71 162.00 L 144.51 162.98 C 144.30 164.08 145.02 165.15 146.12 165.36 C 147.21 165.58 148.28 164.86 148.49 163.76 L 148.69 162.78 C 148.90 161.68 148.18 160.62 147.08 160.40 C 145.99 160.19 144.92 160.90 144.71 162.00 Z M 144.52 162.97 L 144.33 163.92 C 144.10 165.02 144.81 166.09 145.91 166.31 C 147.01 166.53 148.08 165.82 148.30 164.72 L 148.49 163.77 C 148.71 162.68 148.00 161.61 146.91 161.39 C 145.81 161.16 144.74 161.87 144.52 162.97 Z M 144.33 163.90 L 144.13 164.82 C 143.90 165.92 144.60 166.99 145.70 167.22 C 146.80 167.46 147.87 166.75 148.10 165.66 L 148.30 164.74 C 148.53 163.64 147.83 162.57 146.73 162.34 C 145.63 162.11 144.56 162.81 144.33 163.90 Z M 144.14 164.80 L 143.91 165.85 C 143.66 166.94 144.35 168.03 145.45 168.27 C 146.54 168.51 147.62 167.82 147.86 166.73 L 148.10 165.68 C 148.34 164.59 147.65 163.51 146.56 163.26 C 145.46 163.02 144.38 163.71 144.14 164.80 Z M 143.91 165.83 L 143.68 166.82 C 143.43 167.91 144.11 169.00 145.19 169.25 C 146.28 169.51 147.37 168.83 147.63 167.74 L 147.86 166.75 C 148.11 165.66 147.44 164.57 146.35 164.32 C 145.26 164.06 144.17 164.74 143.91 165.83 Z M 143.69 166.80 L 143.46 167.75 C 143.19 168.84 143.86 169.93 144.95 170.20 C 146.03 170.46 147.13 169.79 147.39 168.71 L 147.62 167.76 C 147.89 166.67 147.22 165.57 146.13 165.31 C 145.04 165.05 143.95 165.71 143.69 166.80 Z M 143.46 167.74 L 143.23 168.67 C 142.96 169.75 143.62 170.85 144.70 171.12 C 145.79 171.39 146.89 170.73 147.16 169.65 L 147.39 168.72 C 147.66 167.63 147.00 166.53 145.91 166.26 C 144.83 165.99 143.73 166.65 143.46 167.74 Z M 143.23 168.66 L 143.00 169.59 C 142.72 170.68 143.38 171.78 144.47 172.05 C 145.55 172.32 146.65 171.66 146.92 170.58 L 147.16 169.65 C 147.43 168.57 146.77 167.47 145.69 167.19 C 144.60 166.92 143.50 167.58 143.23 168.66 Z M 143.00 169.59 L 142.76 170.53 C 142.48 171.61 143.14 172.71 144.23 172.99 C 145.31 173.26 146.41 172.61 146.69 171.52 L 146.92 170.58 C 147.20 169.50 146.54 168.40 145.46 168.12 C 144.37 167.85 143.27 168.50 143.00 169.59 Z M 142.76 170.53 L 142.52 171.48 C 142.24 172.57 142.90 173.67 143.98 173.94 C 145.06 174.22 146.17 173.56 146.44 172.48 L 146.68 171.52 C 146.96 170.44 146.30 169.34 145.22 169.06 C 144.14 168.79 143.04 169.44 142.76 170.53 Z M 142.52 171.48 L 142.27 172.45 C 141.99 173.54 142.64 174.64 143.73 174.92 C 144.81 175.19 145.91 174.54 146.19 173.46 L 146.44 172.48 C 146.72 171.40 146.06 170.30 144.98 170.02 C 143.90 169.74 142.80 170.40 142.52 171.48 Z M 142.27 172.45 L 142.01 173.44 C 141.73 174.53 142.38 175.63 143.47 175.91 C 144.55 176.19 145.65 175.54 145.93 174.46 L 146.19 173.46 C 146.47 172.38 145.82 171.27 144.74 171.00 C 143.65 170.72 142.55 171.37 142.27 172.45 Z M 142.01 173.44 L 141.76 174.41 C 141.48 175.49 142.13 176.60 143.21 176.88 C 144.29 177.16 145.40 176.51 145.68 175.43 L 145.93 174.46 C 146.21 173.38 145.57 172.27 144.48 171.99 C 143.40 171.71 142.30 172.36 142.01 173.44 Z M 141.76 174.40 L 141.51 175.35 C 141.23 176.43 141.87 177.54 142.96 177.82 C 144.04 178.11 145.14 177.46 145.43 176.38 L 145.68 175.44 C 145.96 174.35 145.32 173.25 144.24 172.96 C 143.15 172.68 142.05 173.32 141.76 174.40 Z M 141.52 175.35 L 141.26 176.31 C 140.97 177.39 141.62 178.50 142.70 178.78 C 143.78 179.07 144.88 178.43 145.17 177.35 L 145.43 176.39 C 145.71 175.31 145.07 174.20 143.99 173.91 C 142.91 173.62 141.80 174.27 141.52 175.35 Z M 141.26 176.30 L 141.00 177.28 C 140.71 178.36 141.35 179.47 142.43 179.76 C 143.51 180.05 144.62 179.41 144.91 178.33 L 145.17 177.35 C 145.46 176.27 144.82 175.16 143.74 174.87 C 142.66 174.58 141.55 175.22 141.26 176.30 Z M 141.00 177.27 L 140.73 178.26 C 140.44 179.34 141.08 180.45 142.16 180.74 C 143.24 181.03 144.35 180.39 144.64 179.32 L 144.91 178.33 C 145.20 177.25 144.56 176.14 143.48 175.85 C 142.40 175.56 141.29 176.20 141.00 177.27 Z M 140.74 178.25 L 140.47 179.24 C 140.17 180.32 140.81 181.43 141.89 181.72 C 142.96 182.02 144.08 181.38 144.37 180.30 L 144.64 179.32 C 144.93 178.24 144.30 177.13 143.22 176.84 C 142.14 176.54 141.03 177.18 140.74 178.25 Z M 140.47 179.23 L 140.20 180.20 C 139.90 181.28 140.53 182.40 141.61 182.69 C 142.69 182.99 143.80 182.36 144.10 181.28 L 144.37 180.31 C 144.67 179.23 144.03 178.12 142.96 177.82 C 141.88 177.52 140.77 178.15 140.47 179.23 Z M 140.20 180.20 L 139.93 181.17 C 139.63 182.24 140.25 183.36 141.33 183.66 C 142.41 183.97 143.52 183.34 143.83 182.26 L 144.10 181.29 C 144.40 180.22 143.77 179.10 142.70 178.79 C 141.62 178.49 140.50 179.12 140.20 180.20 Z M 139.93 181.15 L 139.65 182.12 C 139.34 183.19 139.96 184.31 141.04 184.62 C 142.11 184.93 143.24 184.31 143.55 183.24 L 143.82 182.28 C 144.13 181.20 143.51 180.08 142.44 179.77 C 141.36 179.46 140.24 180.08 139.93 181.15 Z M 139.66 182.10 L 139.37 183.05 C 139.05 184.13 139.66 185.26 140.74 185.57 C 141.81 185.89 142.94 185.28 143.26 184.21 L 143.54 183.26 C 143.86 182.18 143.25 181.05 142.18 180.73 C 141.10 180.42 139.98 181.03 139.66 182.10 Z M 139.38 183.03 L 139.09 183.97 C 138.76 185.04 139.35 186.18 140.42 186.51 C 141.49 186.84 142.63 186.24 142.96 185.17 L 143.25 184.23 C 143.58 183.16 142.99 182.03 141.92 181.69 C 140.84 181.36 139.71 181.96 139.38 183.03 Z M 139.09 183.95 L 138.78 184.91 C 138.43 185.98 139.02 187.12 140.09 187.47 C 141.15 187.81 142.30 187.23 142.64 186.16 L 142.95 185.20 C 143.30 184.13 142.72 182.99 141.65 182.64 C 140.58 182.30 139.44 182.88 139.09 183.95 Z M 138.79 184.88 L 138.47 185.84 C 138.10 186.90 138.67 188.05 139.73 188.41 C 140.79 188.77 141.95 188.21 142.31 187.14 L 142.63 186.19 C 142.99 185.13 142.43 183.98 141.36 183.62 C 140.30 183.26 139.15 183.82 138.79 184.88 Z M 138.48 185.81 L 138.14 186.75 C 137.76 187.80 138.31 188.96 139.37 189.34 C 140.42 189.72 141.58 189.17 141.96 188.11 L 142.30 187.17 C 142.67 186.12 142.13 184.96 141.07 184.58 C 140.01 184.20 138.85 184.75 138.48 185.81 Z M 138.15 186.72 L 137.80 187.64 C 137.41 188.69 137.94 189.86 138.99 190.26 C 140.04 190.65 141.21 190.12 141.60 189.07 L 141.95 188.14 C 142.34 187.09 141.81 185.92 140.76 185.53 C 139.71 185.14 138.54 185.67 138.15 186.72 Z M 137.81 187.61 L 137.45 188.54 C 137.04 189.58 137.56 190.76 138.60 191.17 C 139.64 191.58 140.82 191.06 141.23 190.02 L 141.59 189.10 C 142.00 188.06 141.49 186.88 140.45 186.47 C 139.40 186.06 138.22 186.57 137.81 187.61 Z M 137.46 188.51 L 137.08 189.45 C 136.65 190.49 137.14 191.67 138.18 192.10 C 139.22 192.53 140.40 192.03 140.83 191.00 L 141.22 190.05 C 141.64 189.01 141.15 187.83 140.11 187.40 C 139.08 186.98 137.89 187.47 137.46 188.51 Z M 137.09 189.42 L 136.68 190.36 C 136.24 191.39 136.72 192.59 137.75 193.03 C 138.78 193.47 139.97 192.99 140.41 191.96 L 140.82 191.02 C 141.26 189.99 140.78 188.80 139.75 188.36 C 138.72 187.92 137.53 188.39 137.09 189.42 Z M 136.70 190.34 L 136.29 191.26 C 135.83 192.28 136.29 193.48 137.31 193.94 C 138.33 194.39 139.53 193.93 139.99 192.91 L 140.40 191.99 C 140.86 190.97 140.40 189.77 139.37 189.31 C 138.35 188.86 137.15 189.32 136.70 190.34 Z M 136.30 191.24 L 135.88 192.13 C 135.41 193.15 135.86 194.35 136.87 194.82 C 137.89 195.29 139.09 194.85 139.56 193.83 L 139.98 192.94 C 140.45 191.92 140.00 190.72 138.99 190.25 C 137.97 189.78 136.77 190.22 136.30 191.24 Z M 135.90 192.11 L 135.48 192.97 C 135.00 193.98 135.43 195.19 136.44 195.67 C 137.45 196.16 138.65 195.73 139.14 194.72 L 139.55 193.86 C 140.03 192.85 139.60 191.64 138.60 191.16 C 137.59 190.67 136.38 191.10 135.90 192.11 Z M 135.50 192.95 L 135.04 193.88 C 134.54 194.88 134.95 196.09 135.96 196.59 C 136.96 197.08 138.17 196.67 138.67 195.67 L 139.12 194.74 C 139.62 193.74 139.21 192.53 138.21 192.03 C 137.20 191.54 135.99 191.95 135.50 192.95 Z M 135.05 193.86 L 134.60 194.75 C 134.09 195.75 134.49 196.96 135.48 197.47 C 136.48 197.97 137.70 197.58 138.20 196.58 L 138.66 195.69 C 139.16 194.69 138.76 193.47 137.77 192.97 C 136.77 192.46 135.55 192.86 135.05 193.86 Z M 134.60 194.74 L 134.15 195.61 C 133.64 196.61 134.03 197.83 135.02 198.34 C 136.02 198.85 137.23 198.46 137.75 197.46 L 138.20 196.59 C 138.71 195.60 138.32 194.38 137.32 193.87 C 136.33 193.36 135.11 193.75 134.60 194.74 Z M 134.15 195.62 L 133.70 196.49 C 133.19 197.48 133.58 198.70 134.57 199.21 C 135.57 199.72 136.78 199.33 137.29 198.34 L 137.74 197.46 C 138.25 196.47 137.86 195.25 136.87 194.74 C 135.88 194.23 134.66 194.62 134.15 195.62 Z M 133.70 196.50 L 133.26 197.37 C 132.75 198.36 133.15 199.57 134.14 200.08 C 135.14 200.59 136.35 200.19 136.86 199.20 L 137.30 198.33 C 137.80 197.34 137.41 196.12 136.41 195.62 C 135.42 195.11 134.21 195.51 133.70 196.50 Z M 133.25 197.38 L 132.82 198.26 C 132.32 199.25 132.72 200.46 133.72 200.96 C 134.71 201.46 135.92 201.06 136.42 200.06 L 136.86 199.18 C 137.36 198.19 136.95 196.98 135.96 196.48 C 134.96 195.98 133.75 196.38 133.25 197.38 Z M 132.81 198.27 L 132.37 199.17 C 131.88 200.17 132.29 201.37 133.29 201.86 C 134.29 202.35 135.50 201.94 135.99 200.94 L 136.43 200.05 C 136.92 199.05 136.51 197.84 135.51 197.35 C 134.51 196.86 133.30 197.27 132.81 198.27 Z M 132.37 199.18 L 131.92 200.10 C 131.44 201.10 131.86 202.30 132.86 202.78 C 133.86 203.27 135.07 202.85 135.55 201.85 L 135.99 200.93 C 136.47 199.93 136.05 198.73 135.05 198.24 C 134.05 197.76 132.85 198.18 132.37 199.18 Z M 131.92 200.11 L 131.48 201.03 C 131.00 202.04 131.43 203.24 132.43 203.71 C 133.44 204.19 134.64 203.76 135.11 202.76 L 135.55 201.83 C 136.03 200.83 135.60 199.63 134.60 199.15 C 133.60 198.68 132.40 199.10 131.92 200.11 Z M 131.48 201.05 L 131.06 201.94 C 130.59 202.95 131.02 204.14 132.03 204.61 C 133.03 205.08 134.23 204.65 134.70 203.64 L 135.12 202.75 C 135.59 201.74 135.15 200.55 134.15 200.08 C 133.14 199.61 131.95 200.04 131.48 201.05 Z M 131.06 201.95 L 130.64 202.86 C 130.17 203.86 130.61 205.06 131.62 205.52 C 132.62 205.99 133.82 205.55 134.28 204.54 L 134.70 203.64 C 135.17 202.63 134.73 201.44 133.72 200.97 C 132.71 200.51 131.52 200.94 131.06 201.95 Z M 130.64 202.86 L 130.22 203.78 C 129.75 204.78 130.20 205.97 131.20 206.44 C 132.21 206.90 133.40 206.46 133.86 205.45 L 134.28 204.54 C 134.74 203.53 134.30 202.34 133.30 201.88 C 132.29 201.41 131.10 201.86 130.64 202.86 Z M 130.22 203.78 L 129.80 204.69 C 129.34 205.70 129.78 206.89 130.79 207.35 C 131.79 207.81 132.98 207.37 133.44 206.36 L 133.86 205.45 C 134.32 204.44 133.88 203.25 132.88 202.79 C 131.87 202.33 130.68 202.77 130.22 203.78 Z M 129.80 204.69 L 129.38 205.61 C 128.92 206.61 129.36 207.80 130.36 208.27 C 131.37 208.73 132.56 208.29 133.02 207.28 L 133.44 206.36 C 133.90 205.36 133.46 204.17 132.46 203.71 C 131.45 203.24 130.26 203.68 129.80 204.69 Z M 129.38 205.60 L 128.95 206.53 C 128.49 207.53 128.92 208.72 129.93 209.19 C 130.93 209.65 132.12 209.22 132.59 208.21 L 133.01 207.29 C 133.48 206.29 133.04 205.10 132.04 204.63 C 131.04 204.17 129.85 204.60 129.38 205.60 Z M 128.96 206.52 L 128.53 207.43 C 128.06 208.43 128.49 209.62 129.49 210.09 C 130.49 210.56 131.68 210.13 132.15 209.13 L 132.58 208.22 C 133.05 207.22 132.62 206.03 131.62 205.56 C 130.62 205.09 129.43 205.52 128.96 206.52 Z M 128.54 207.42 L 128.11 208.32 C 127.63 209.32 128.06 210.51 129.05 210.99 C 130.05 211.46 131.24 211.04 131.71 210.04 L 132.14 209.14 C 132.62 208.15 132.20 206.96 131.20 206.48 C 130.20 206.01 129.01 206.43 128.54 207.42 Z M 128.12 208.31 L 127.69 209.19 C 127.21 210.18 127.62 211.38 128.61 211.86 C 129.60 212.34 130.79 211.93 131.28 210.94 L 131.71 210.06 C 132.19 209.07 131.78 207.87 130.79 207.39 C 129.79 206.91 128.60 207.32 128.12 208.31 Z M 127.70 209.17 L 127.25 210.07 C 126.76 211.06 127.16 212.26 128.14 212.75 C 129.13 213.24 130.33 212.84 130.82 211.85 L 131.27 210.95 C 131.76 209.97 131.36 208.77 130.37 208.28 C 129.39 207.79 128.19 208.19 127.70 209.17 Z M 127.26 210.05 L 126.80 210.95 C 126.30 211.93 126.68 213.13 127.66 213.63 C 128.64 214.14 129.84 213.75 130.34 212.77 L 130.80 211.87 C 131.31 210.90 130.92 209.70 129.94 209.19 C 128.97 208.69 127.76 209.08 127.26 210.05 Z M 126.81 210.93 L 126.35 211.81 C 125.83 212.78 126.20 213.98 127.18 214.50 C 128.15 215.01 129.35 214.64 129.86 213.67 L 130.33 212.79 C 130.84 211.82 130.47 210.62 129.50 210.10 C 128.53 209.59 127.33 209.96 126.81 210.93 Z M 126.36 211.79 L 125.89 212.66 C 125.36 213.62 125.72 214.83 126.68 215.35 C 127.64 215.88 128.85 215.52 129.38 214.56 L 129.85 213.69 C 130.37 212.73 130.02 211.52 129.06 211.00 C 128.09 210.47 126.89 210.83 126.36 211.79 Z M 125.90 212.64 L 125.42 213.51 C 124.88 214.46 125.22 215.67 126.17 216.21 C 127.13 216.74 128.33 216.40 128.87 215.45 L 129.36 214.58 C 129.90 213.63 129.56 212.42 128.61 211.88 C 127.65 211.34 126.44 211.68 125.90 212.64 Z M 125.43 213.49 L 124.92 214.37 C 124.37 215.32 124.69 216.53 125.64 217.07 C 126.58 217.62 127.79 217.30 128.34 216.35 L 128.86 215.47 C 129.40 214.52 129.08 213.31 128.14 212.77 C 127.19 212.22 125.98 212.54 125.43 213.49 Z M 124.94 214.35 L 124.42 215.22 C 123.86 216.16 124.17 217.37 125.10 217.93 C 126.04 218.48 127.25 218.18 127.81 217.24 L 128.33 216.37 C 128.88 215.44 128.58 214.23 127.64 213.67 C 126.70 213.11 125.49 213.42 124.94 214.35 Z M 124.44 215.21 L 123.92 216.05 C 123.35 216.98 123.64 218.19 124.57 218.76 C 125.50 219.32 126.71 219.03 127.27 218.10 L 127.79 217.26 C 128.36 216.33 128.06 215.12 127.14 214.55 C 126.21 213.99 125.00 214.28 124.44 215.21 Z M 123.93 216.04 L 123.42 216.86 C 122.85 217.78 123.12 218.99 124.04 219.56 C 124.96 220.14 126.17 219.86 126.74 218.94 L 127.26 218.12 C 127.83 217.20 127.55 215.99 126.64 215.42 C 125.72 214.84 124.51 215.12 123.93 216.04 Z M 123.44 216.85 L 122.89 217.70 C 122.31 218.61 122.57 219.82 123.48 220.40 C 124.39 220.98 125.60 220.72 126.18 219.81 L 126.73 218.96 C 127.31 218.05 127.05 216.84 126.14 216.26 C 125.23 215.67 124.02 215.94 123.44 216.85 Z M 122.90 217.69 L 122.36 218.52 C 121.77 219.42 122.02 220.63 122.93 221.22 C 123.83 221.81 125.04 221.55 125.62 220.65 L 126.17 219.82 C 126.75 218.92 126.50 217.71 125.60 217.12 C 124.70 216.53 123.49 216.79 122.90 217.69 Z M 122.37 218.51 L 121.82 219.34 C 121.23 220.24 121.48 221.44 122.38 222.03 C 123.28 222.62 124.48 222.38 125.07 221.48 L 125.62 220.65 C 126.21 219.76 125.96 218.55 125.06 217.96 C 124.16 217.37 122.96 217.62 122.37 218.51 Z M 121.83 219.35 L 121.29 220.17 C 120.70 221.07 120.95 222.27 121.84 222.86 C 122.74 223.44 123.94 223.19 124.53 222.30 L 125.07 221.47 C 125.66 220.58 125.41 219.37 124.51 218.79 C 123.62 218.20 122.41 218.45 121.83 219.35 Z M 121.28 220.18 L 120.76 220.99 C 120.18 221.89 120.43 223.09 121.33 223.67 C 122.22 224.25 123.42 224.00 124.01 223.10 L 124.53 222.29 C 125.11 221.39 124.86 220.19 123.96 219.61 C 123.07 219.03 121.87 219.28 121.28 220.18 Z M 120.76 221.00 L 120.22 221.84 C 119.64 222.74 119.90 223.93 120.80 224.51 C 121.70 225.08 122.89 224.82 123.47 223.93 L 124.01 223.09 C 124.58 222.19 124.32 220.99 123.43 220.42 C 122.53 219.84 121.33 220.10 120.76 221.00 Z M 120.21 221.85 L 119.67 222.71 C 119.10 223.61 119.37 224.81 120.27 225.37 C 121.17 225.94 122.36 225.68 122.93 224.78 L 123.47 223.91 C 124.04 223.01 123.78 221.82 122.88 221.25 C 121.98 220.68 120.78 220.95 120.21 221.85 Z M 119.67 222.73 L 119.12 223.60 C 118.56 224.50 118.84 225.69 119.74 226.25 C 120.64 226.81 121.83 226.54 122.39 225.63 L 122.93 224.76 C 123.49 223.86 123.22 222.67 122.32 222.11 C 121.41 221.55 120.23 221.83 119.67 222.73 Z M 119.12 223.61 L 118.61 224.44 C 118.06 225.35 118.34 226.53 119.24 227.08 C 120.14 227.64 121.33 227.36 121.88 226.45 L 122.39 225.62 C 122.95 224.72 122.66 223.54 121.76 222.98 C 120.86 222.43 119.68 222.71 119.12 223.61 Z M 118.61 224.45 L 118.10 225.30 C 117.55 226.20 117.83 227.38 118.73 227.93 C 119.64 228.48 120.81 228.19 121.36 227.29 L 121.88 226.44 C 122.43 225.54 122.14 224.37 121.24 223.82 C 120.34 223.27 119.16 223.55 118.61 224.45 Z M 118.10 225.31 L 117.58 226.17 C 117.03 227.06 117.32 228.24 118.21 228.78 C 119.11 229.33 120.28 229.05 120.83 228.15 L 121.36 227.29 C 121.90 226.39 121.62 225.22 120.72 224.67 C 119.82 224.12 118.65 224.41 118.10 225.31 Z M 117.59 226.17 L 117.05 227.04 C 116.50 227.93 116.79 229.10 117.68 229.65 C 118.57 230.19 119.74 229.91 120.29 229.02 L 120.82 228.15 C 121.37 227.25 121.09 226.09 120.20 225.54 C 119.30 224.99 118.13 225.27 117.59 226.17 Z M 117.06 227.03 L 116.53 227.89 C 115.99 228.77 116.26 229.94 117.15 230.49 C 118.04 231.04 119.20 230.76 119.75 229.88 L 120.28 229.02 C 120.83 228.14 120.55 226.97 119.67 226.42 C 118.78 225.87 117.61 226.14 117.06 227.03 Z M 116.55 227.88 L 116.02 228.72 C 115.46 229.60 115.73 230.77 116.61 231.32 C 117.49 231.88 118.65 231.61 119.21 230.73 L 119.74 229.88 C 120.29 229.00 120.03 227.84 119.15 227.29 C 118.27 226.73 117.10 227.00 116.55 227.88 Z M 116.03 228.71 L 115.49 229.56 C 114.93 230.43 115.18 231.59 116.06 232.15 C 116.93 232.71 118.09 232.46 118.65 231.59 L 119.19 230.74 C 119.75 229.87 119.50 228.71 118.62 228.15 C 117.75 227.59 116.59 227.84 116.03 228.71 Z M 115.50 229.55 L 114.95 230.39 C 114.39 231.25 114.63 232.41 115.49 232.98 C 116.36 233.54 117.52 233.30 118.09 232.44 L 118.64 231.60 C 119.20 230.73 118.96 229.57 118.10 229.01 C 117.23 228.44 116.07 228.68 115.50 229.55 Z M 114.97 230.37 L 114.41 231.20 C 113.84 232.06 114.07 233.21 114.92 233.79 C 115.78 234.36 116.93 234.14 117.51 233.28 L 118.07 232.45 C 118.64 231.60 118.42 230.44 117.56 229.86 C 116.71 229.29 115.55 229.52 114.97 230.37 Z M 114.43 231.18 L 113.86 232.01 C 113.28 232.85 113.49 234.01 114.33 234.60 C 115.17 235.18 116.33 234.97 116.92 234.13 L 117.49 233.30 C 118.07 232.46 117.86 231.30 117.02 230.71 C 116.18 230.13 115.02 230.34 114.43 231.18 Z M 113.88 231.99 L 113.30 232.81 C 112.70 233.64 112.90 234.80 113.73 235.39 C 114.56 235.99 115.72 235.79 116.31 234.96 L 116.89 234.15 C 117.49 233.32 117.30 232.16 116.47 231.56 C 115.63 230.97 114.48 231.16 113.88 231.99 Z M 113.32 232.79 L 112.73 233.59 C 112.12 234.41 112.30 235.56 113.11 236.17 C 113.93 236.78 115.09 236.60 115.70 235.78 L 116.29 234.98 C 116.89 234.16 116.72 233.01 115.90 232.40 C 115.08 231.79 113.93 231.97 113.32 232.79 Z M 112.75 233.57 L 112.15 234.36 C 111.53 235.16 111.68 236.32 112.49 236.94 C 113.29 237.55 114.45 237.40 115.07 236.59 L 115.67 235.80 C 116.29 235.00 116.14 233.84 115.33 233.23 C 114.52 232.61 113.37 232.76 112.75 233.57 Z M 112.17 234.34 L 111.54 235.14 C 110.91 235.93 111.04 237.08 111.83 237.71 C 112.62 238.34 113.78 238.21 114.41 237.42 L 115.04 236.62 C 115.67 235.82 115.54 234.67 114.75 234.04 C 113.95 233.41 112.80 233.54 112.17 234.34 Z M 111.56 235.11 L 110.90 235.92 C 110.26 236.70 110.37 237.85 111.15 238.49 C 111.92 239.13 113.07 239.02 113.71 238.24 L 114.38 237.44 C 115.02 236.66 114.91 235.51 114.13 234.87 C 113.35 234.23 112.20 234.34 111.56 235.11 Z M 110.92 235.90 L 110.26 236.68 C 109.61 237.44 109.70 238.59 110.46 239.24 C 111.22 239.89 112.37 239.80 113.02 239.04 L 113.69 238.26 C 114.34 237.50 114.25 236.35 113.49 235.70 C 112.73 235.05 111.58 235.14 110.92 235.90 Z M 110.29 236.65 L 109.64 237.39 C 108.97 238.13 109.04 239.28 109.79 239.94 C 110.54 240.61 111.68 240.54 112.35 239.79 L 113.00 239.06 C 113.66 238.31 113.59 237.17 112.85 236.50 C 112.10 235.84 110.95 235.91 110.29 236.65 Z M 109.67 237.36 L 109.02 238.06 C 108.35 238.79 108.39 239.93 109.12 240.61 C 109.85 241.29 111.00 241.24 111.67 240.51 L 112.32 239.82 C 112.99 239.09 112.95 237.94 112.22 237.27 C 111.49 236.59 110.35 236.63 109.67 237.36 Z M 109.06 238.03 L 108.31 238.80 C 107.61 239.51 107.62 240.65 108.34 241.34 C 109.05 242.04 110.18 242.03 110.88 241.32 L 111.64 240.54 C 112.33 239.83 112.32 238.69 111.61 238.00 C 110.90 237.30 109.76 237.32 109.06 238.03 Z M 108.35 238.77 L 107.63 239.46 C 106.92 240.15 106.90 241.28 107.59 241.99 C 108.28 242.70 109.41 242.72 110.12 242.04 L 110.84 241.35 C 111.55 240.66 111.57 239.53 110.88 238.81 C 110.19 238.10 109.06 238.08 108.35 238.77 Z M 107.67 239.43 L 106.98 240.07 C 106.26 240.73 106.21 241.86 106.88 242.59 C 107.55 243.31 108.68 243.36 109.40 242.69 L 110.09 242.06 C 110.81 241.39 110.86 240.26 110.19 239.54 C 109.53 238.81 108.40 238.77 107.67 239.43 Z M 107.01 240.05 L 106.27 240.71 C 105.53 241.36 105.47 242.49 106.12 243.22 C 106.77 243.95 107.90 244.02 108.63 243.37 L 109.37 242.71 C 110.11 242.05 110.17 240.93 109.52 240.20 C 108.87 239.46 107.75 239.40 107.01 240.05 Z M 106.29 240.71 L 105.53 241.37 C 104.79 242.01 104.72 243.13 105.36 243.86 C 106.00 244.60 107.12 244.68 107.86 244.03 L 108.61 243.37 C 109.35 242.73 109.42 241.61 108.78 240.88 C 108.14 240.14 107.02 240.06 106.29 240.71 Z M 105.54 241.37 L 104.80 242.02 C 104.06 242.65 103.98 243.77 104.62 244.50 C 105.26 245.23 106.37 245.31 107.11 244.67 L 107.85 244.03 C 108.58 243.39 108.66 242.28 108.02 241.55 C 107.38 240.81 106.27 240.73 105.54 241.37 Z M 104.79 242.03 L 104.04 242.70 C 103.31 243.34 103.24 244.44 103.88 245.17 C 104.52 245.89 105.63 245.96 106.35 245.32 L 107.11 244.66 C 107.83 244.02 107.90 242.91 107.26 242.19 C 106.63 241.46 105.52 241.39 104.79 242.03 Z M 104.03 242.71 L 103.29 243.38 C 102.57 244.02 102.51 245.12 103.15 245.84 C 103.79 246.56 104.89 246.62 105.61 245.97 L 106.36 245.31 C 107.07 244.67 107.13 243.57 106.49 242.85 C 105.85 242.13 104.75 242.07 104.03 242.71 Z M 103.29 243.40 L 102.56 244.06 C 101.85 244.70 101.79 245.80 102.44 246.50 C 103.08 247.21 104.17 247.27 104.88 246.62 L 105.61 245.96 C 106.32 245.32 106.37 244.22 105.73 243.51 C 105.09 242.81 104.00 242.75 103.29 243.40 Z M 102.56 244.07 L 101.81 244.75 C 101.11 245.40 101.06 246.48 101.70 247.18 C 102.34 247.89 103.43 247.93 104.13 247.29 L 104.88 246.61 C 105.58 245.97 105.63 244.88 104.99 244.18 C 104.35 243.48 103.26 243.43 102.56 244.07 Z M 101.82 244.76 L 101.08 245.44 C 100.38 246.07 100.34 247.15 100.97 247.85 C 101.61 248.55 102.69 248.60 103.39 247.96 L 104.12 247.29 C 104.82 246.65 104.87 245.57 104.23 244.87 C 103.60 244.17 102.51 244.13 101.82 244.76 Z M 101.09 245.44 L 100.36 246.11 C 99.66 246.74 99.61 247.81 100.24 248.50 C 100.87 249.20 101.94 249.25 102.63 248.62 L 103.37 247.96 C 104.07 247.33 104.12 246.25 103.49 245.56 C 102.86 244.86 101.79 244.81 101.09 245.44 Z M 100.37 246.11 L 99.62 246.78 C 98.93 247.40 98.86 248.46 99.48 249.16 C 100.10 249.85 101.17 249.92 101.86 249.30 L 102.62 248.62 C 103.31 248.00 103.37 246.94 102.75 246.24 C 102.13 245.55 101.07 245.49 100.37 246.11 Z M 99.64 246.78 L 98.89 247.44 C 98.20 248.05 98.13 249.10 98.74 249.80 C 99.35 250.49 100.41 250.56 101.10 249.95 L 101.85 249.29 C 102.54 248.68 102.61 247.63 102.00 246.93 C 101.39 246.24 100.33 246.17 99.64 246.78 Z M 98.91 247.44 L 98.16 248.09 C 97.47 248.69 97.40 249.74 98.00 250.43 C 98.60 251.12 99.65 251.19 100.34 250.59 L 101.09 249.94 C 101.78 249.34 101.85 248.29 101.25 247.60 C 100.65 246.91 99.60 246.84 98.91 247.44 Z M 98.21 248.07 L 97.44 248.70 C 96.74 249.28 96.64 250.32 97.21 251.02 C 97.79 251.72 98.83 251.82 99.53 251.24 L 100.30 250.61 C 101.00 250.03 101.10 249.00 100.52 248.30 C 99.94 247.60 98.91 247.50 98.21 248.07 Z M 97.53 248.65 L 96.71 249.25 C 95.98 249.78 95.82 250.79 96.34 251.52 C 96.87 252.25 97.89 252.42 98.62 251.89 L 99.44 251.29 C 100.17 250.77 100.33 249.75 99.80 249.02 C 99.28 248.29 98.26 248.13 97.53 248.65 Z M 96.83 249.18 L 95.96 249.70 C 95.19 250.16 94.94 251.16 95.40 251.92 C 95.86 252.69 96.85 252.94 97.62 252.48 L 98.49 251.96 C 99.26 251.50 99.51 250.50 99.05 249.74 C 98.60 248.97 97.60 248.72 96.83 249.18 Z M 96.13 249.62 L 95.23 250.03 C 94.42 250.39 94.05 251.34 94.41 252.15 C 94.78 252.96 95.73 253.33 96.54 252.96 L 97.44 252.56 C 98.25 252.20 98.62 251.25 98.26 250.44 C 97.89 249.63 96.94 249.26 96.13 249.62 Z M 95.53 249.94 L 94.51 250.17 C 93.65 250.37 93.12 251.22 93.31 252.08 C 93.50 252.93 94.35 253.47 95.21 253.28 L 96.23 253.05 C 97.09 252.86 97.63 252.00 97.43 251.15 C 97.24 250.29 96.39 249.75 95.53 249.94 Z M 95.23 250.20 L 94.33 249.99 C 93.49 249.78 92.64 250.30 92.44 251.14 C 92.24 251.98 92.75 252.83 93.59 253.03 L 94.49 253.25 C 95.33 253.45 96.18 252.94 96.38 252.09 C 96.59 251.25 96.07 250.41 95.23 250.20 Z M 95.26 250.69 L 94.79 249.95 C 94.34 249.23 93.40 249.01 92.68 249.46 C 91.96 249.91 91.74 250.86 92.19 251.58 L 92.66 252.32 C 93.11 253.04 94.06 253.26 94.78 252.81 C 95.49 252.36 95.71 251.41 95.26 250.69 Z M 94.98 250.55 L 94.83 249.53 C 94.71 248.71 93.95 248.14 93.13 248.26 C 92.31 248.38 91.75 249.14 91.86 249.96 L 92.01 250.98 C 92.13 251.80 92.89 252.36 93.71 252.25 C 94.53 252.13 95.10 251.37 94.98 250.55 Z M 94.81 249.82 L 94.86 248.77 C 94.91 247.96 94.29 247.27 93.48 247.23 C 92.68 247.19 91.99 247.81 91.95 248.61 L 91.89 249.67 C 91.85 250.47 92.46 251.16 93.27 251.20 C 94.07 251.25 94.76 250.63 94.81 249.82 Z M 94.80 249.05 L 95.06 248.03 C 95.26 247.26 94.79 246.48 94.02 246.28 C 93.26 246.08 92.47 246.54 92.27 247.31 L 92.01 248.33 C 91.81 249.10 92.28 249.88 93.05 250.08 C 93.81 250.28 94.60 249.82 94.80 249.05 Z M 94.96 248.28 L 95.35 247.44 C 95.69 246.73 95.38 245.88 94.67 245.54 C 93.95 245.20 93.10 245.51 92.77 246.22 L 92.37 247.06 C 92.04 247.78 92.34 248.63 93.06 248.96 C 93.77 249.30 94.62 248.99 94.96 248.28 Z M 95.30 247.53 L 95.78 246.68 C 96.16 246.00 95.92 245.13 95.23 244.74 C 94.55 244.36 93.68 244.60 93.29 245.29 L 92.82 246.14 C 92.43 246.82 92.68 247.69 93.36 248.08 C 94.05 248.46 94.92 248.22 95.30 247.53 Z M 95.75 246.74 L 96.29 245.87 C 96.71 245.20 96.50 244.32 95.83 243.90 C 95.17 243.49 94.29 243.69 93.87 244.36 L 93.33 245.23 C 92.91 245.90 93.11 246.78 93.78 247.19 C 94.45 247.61 95.33 247.41 95.75 246.74 Z M 96.26 245.91 L 96.81 245.10 C 97.25 244.45 97.08 243.56 96.43 243.12 C 95.78 242.68 94.89 242.85 94.45 243.50 L 93.90 244.31 C 93.46 244.96 93.63 245.85 94.28 246.29 C 94.93 246.73 95.82 246.57 96.26 245.91 Z M 96.79 245.12 L 97.38 244.29 C 97.84 243.65 97.68 242.76 97.04 242.31 C 96.40 241.85 95.51 242.01 95.06 242.65 L 94.47 243.48 C 94.01 244.12 94.17 245.01 94.81 245.46 C 95.45 245.92 96.34 245.77 96.79 245.12 Z M 97.38 244.30 L 97.48 244.16 C 97.93 243.52 97.79 242.63 97.15 242.17 C 96.50 241.72 95.61 241.87 95.16 242.51 L 95.06 242.64 C 94.60 243.28 94.75 244.17 95.39 244.63 C 96.03 245.09 96.92 244.94 97.38 244.30 Z"
      fill="black"
      fill-rule="nonzero" /><path d="M 150.46 176.80 L 150.64 175.75 C 150.78 174.93 150.23 174.15 149.41 174.01 C 148.59 173.87 147.81 174.43 147.67 175.25 L 147.49 176.30 C 147.36 177.12 147.91 177.90 148.73 178.03 C 149.55 178.17 150.32 177.62 150.46 176.80 Z M 150.61 175.92 L 150.88 174.99 C 151.12 174.18 150.65 173.34 149.85 173.11 C 149.05 172.88 148.21 173.34 147.97 174.14 L 147.70 175.07 C 147.47 175.88 147.93 176.72 148.73 176.95 C 149.54 177.18 150.38 176.72 150.61 175.92 Z M 150.69 175.44 L 151.25 174.64 C 151.74 173.94 151.57 172.98 150.87 172.50 C 150.17 172.01 149.21 172.18 148.73 172.88 L 148.17 173.68 C 147.68 174.38 147.85 175.34 148.55 175.82 C 149.24 176.31 150.20 176.14 150.69 175.44 Z M 150.75 175.15 L 151.60 174.69 C 152.37 174.27 152.65 173.30 152.23 172.54 C 151.81 171.77 150.85 171.48 150.08 171.90 L 149.23 172.36 C 148.46 172.78 148.18 173.75 148.60 174.52 C 149.02 175.29 149.98 175.57 150.75 175.15 Z M 150.98 174.92 L 151.90 174.84 C 152.80 174.76 153.46 173.96 153.38 173.07 C 153.30 172.17 152.51 171.51 151.61 171.59 L 150.69 171.67 C 149.79 171.75 149.13 172.54 149.21 173.44 C 149.29 174.34 150.08 175.00 150.98 174.92 Z M 151.19 174.78 L 152.17 175.13 C 153.03 175.44 153.99 175.00 154.30 174.13 C 154.61 173.27 154.17 172.32 153.30 172.01 L 152.32 171.65 C 151.46 171.34 150.51 171.79 150.19 172.65 C 149.88 173.51 150.33 174.46 151.19 174.78 Z M 151.77 174.95 L 152.56 175.50 C 153.32 176.03 154.37 175.85 154.90 175.09 C 155.44 174.33 155.25 173.28 154.49 172.74 L 153.70 172.19 C 152.94 171.66 151.89 171.84 151.36 172.60 C 150.82 173.36 151.01 174.41 151.77 174.95 Z M 152.40 175.40 L 153.19 176.09 C 153.90 176.70 154.97 176.63 155.59 175.92 C 156.21 175.22 156.13 174.14 155.43 173.52 L 154.64 172.84 C 153.93 172.22 152.86 172.29 152.24 173.00 C 151.62 173.71 151.70 174.78 152.40 175.40 Z M 153.11 176.03 L 153.84 176.75 C 154.52 177.42 155.61 177.40 156.27 176.73 C 156.93 176.05 156.92 174.96 156.24 174.30 L 155.51 173.58 C 154.83 172.92 153.74 172.93 153.08 173.60 C 152.42 174.28 152.43 175.37 153.11 176.03 Z M 153.78 176.70 L 154.45 177.42 C 155.10 178.12 156.19 178.16 156.89 177.51 C 157.59 176.86 157.63 175.76 156.98 175.07 L 156.31 174.35 C 155.66 173.65 154.56 173.61 153.87 174.26 C 153.17 174.91 153.13 176.01 153.78 176.70 Z M 154.40 177.38 L 155.04 178.11 C 155.66 178.84 156.76 178.92 157.48 178.29 C 158.21 177.67 158.29 176.58 157.66 175.85 L 157.03 175.11 C 156.40 174.39 155.31 174.31 154.58 174.93 C 153.86 175.56 153.78 176.65 154.40 177.38 Z M 155.00 178.08 L 155.62 178.84 C 156.23 179.58 157.33 179.69 158.07 179.09 C 158.82 178.48 158.92 177.38 158.32 176.63 L 157.70 175.88 C 157.09 175.13 155.99 175.02 155.25 175.63 C 154.50 176.24 154.39 177.34 155.00 178.08 Z M 155.59 178.82 L 156.23 179.63 C 156.82 180.39 157.92 180.52 158.68 179.93 C 159.44 179.33 159.58 178.23 158.98 177.47 L 158.35 176.66 C 157.75 175.90 156.65 175.76 155.89 176.36 C 155.13 176.96 154.99 178.06 155.59 178.82 Z M 156.20 179.61 L 156.79 180.39 C 157.38 181.17 158.48 181.32 159.26 180.74 C 160.03 180.15 160.18 179.05 159.60 178.27 L 159.01 177.49 C 158.42 176.71 157.32 176.56 156.54 177.14 C 155.77 177.73 155.61 178.83 156.20 179.61 Z M 156.77 180.38 L 157.36 181.18 C 157.93 181.96 159.04 182.13 159.83 181.56 C 160.61 180.98 160.78 179.87 160.21 179.09 L 159.62 178.29 C 159.04 177.50 157.94 177.33 157.15 177.91 C 156.36 178.48 156.19 179.59 156.77 180.38 Z M 157.34 181.17 L 157.94 182.01 C 158.52 182.81 159.63 182.99 160.42 182.42 C 161.22 181.84 161.40 180.73 160.83 179.94 L 160.22 179.10 C 159.65 178.30 158.54 178.12 157.74 178.69 C 156.95 179.26 156.77 180.37 157.34 181.17 Z M 157.93 182.01 L 158.49 182.79 C 159.06 183.60 160.18 183.78 160.98 183.21 C 161.78 182.64 161.97 181.53 161.40 180.73 L 160.84 179.94 C 160.27 179.14 159.16 178.95 158.35 179.52 C 157.55 180.09 157.36 181.20 157.93 182.01 Z M 158.48 182.79 L 159.06 183.61 C 159.63 184.42 160.75 184.61 161.56 184.04 C 162.37 183.46 162.56 182.35 161.98 181.54 L 161.41 180.72 C 160.83 179.92 159.72 179.73 158.91 180.30 C 158.10 180.87 157.91 181.99 158.48 182.79 Z M 159.06 183.61 L 159.65 184.45 C 160.23 185.26 161.35 185.45 162.16 184.88 C 162.97 184.31 163.16 183.18 162.58 182.37 L 161.99 181.53 C 161.41 180.73 160.29 180.53 159.48 181.11 C 158.67 181.68 158.48 182.81 159.06 183.61 Z M 159.65 184.46 L 160.23 185.27 C 160.81 186.08 161.93 186.27 162.74 185.69 C 163.56 185.11 163.74 183.99 163.16 183.18 L 162.59 182.37 C 162.01 181.56 160.88 181.37 160.07 181.95 C 159.26 182.52 159.07 183.65 159.65 184.46 Z M 160.23 185.28 L 160.81 186.09 C 161.40 186.90 162.53 187.08 163.34 186.50 C 164.15 185.91 164.33 184.78 163.75 183.97 L 163.16 183.17 C 162.58 182.36 161.45 182.17 160.64 182.76 C 159.83 183.34 159.64 184.47 160.23 185.28 Z M 160.82 186.11 L 161.41 186.92 C 162.01 187.73 163.14 187.90 163.95 187.31 C 164.76 186.72 164.93 185.58 164.34 184.77 L 163.74 183.96 C 163.15 183.15 162.01 182.98 161.21 183.57 C 160.40 184.16 160.22 185.30 160.82 186.11 Z M 161.42 186.94 L 162.02 187.74 C 162.62 188.54 163.76 188.71 164.57 188.10 C 165.37 187.50 165.54 186.36 164.93 185.55 L 164.33 184.75 C 163.73 183.95 162.59 183.78 161.78 184.39 C 160.98 184.99 160.82 186.13 161.42 186.94 Z M 162.03 187.75 L 162.62 188.54 C 163.24 189.34 164.38 189.49 165.18 188.88 C 165.98 188.27 166.14 187.12 165.53 186.32 L 164.93 185.54 C 164.32 184.74 163.17 184.58 162.37 185.19 C 161.57 185.81 161.41 186.95 162.03 187.75 Z M 162.62 188.54 L 163.23 189.34 C 163.85 190.14 165.00 190.29 165.80 189.67 C 166.60 189.06 166.75 187.91 166.14 187.11 L 165.53 186.32 C 164.91 185.51 163.76 185.36 162.96 185.98 C 162.16 186.59 162.01 187.74 162.62 188.54 Z M 163.22 189.33 L 163.84 190.14 C 164.45 190.95 165.60 191.11 166.41 190.49 C 167.22 189.88 167.37 188.73 166.76 187.92 L 166.14 187.11 C 165.53 186.30 164.38 186.15 163.57 186.76 C 162.77 187.38 162.61 188.53 163.22 189.33 Z M 163.83 190.13 L 164.40 190.90 C 165.01 191.72 166.16 191.89 166.97 191.28 C 167.79 190.67 167.96 189.52 167.35 188.70 L 166.77 187.93 C 166.17 187.12 165.01 186.95 164.20 187.56 C 163.39 188.17 163.22 189.32 163.83 190.13 Z M 164.39 190.89 L 164.96 191.68 C 165.56 192.50 166.72 192.68 167.54 192.08 C 168.36 191.48 168.54 190.32 167.94 189.50 L 167.36 188.72 C 166.76 187.89 165.61 187.72 164.79 188.32 C 163.96 188.92 163.79 190.07 164.39 190.89 Z M 164.95 191.67 L 165.54 192.49 C 166.14 193.32 167.29 193.51 168.12 192.91 C 168.95 192.32 169.14 191.16 168.54 190.33 L 167.95 189.51 C 167.35 188.68 166.20 188.50 165.37 189.09 C 164.54 189.69 164.36 190.84 164.95 191.67 Z M 165.53 192.48 L 166.14 193.34 C 166.73 194.18 167.89 194.37 168.72 193.78 C 169.56 193.19 169.75 192.03 169.16 191.20 L 168.55 190.34 C 167.96 189.51 166.80 189.31 165.97 189.90 C 165.14 190.49 164.94 191.65 165.53 192.48 Z M 166.13 193.34 L 166.69 194.13 C 167.28 194.97 168.44 195.17 169.27 194.58 C 170.11 194.00 170.32 192.84 169.73 192.00 L 169.17 191.21 C 168.58 190.37 167.42 190.16 166.59 190.75 C 165.75 191.34 165.54 192.50 166.13 193.34 Z M 166.68 194.13 L 167.25 194.94 C 167.84 195.79 169.00 195.99 169.84 195.41 C 170.68 194.82 170.89 193.66 170.30 192.82 L 169.73 192.00 C 169.15 191.16 167.99 190.95 167.15 191.54 C 166.30 192.13 166.10 193.29 166.68 194.13 Z M 167.25 194.94 L 167.82 195.77 C 168.41 196.62 169.57 196.83 170.41 196.25 C 171.26 195.66 171.47 194.50 170.88 193.65 L 170.31 192.82 C 169.72 191.98 168.56 191.77 167.72 192.35 C 166.87 192.94 166.66 194.10 167.25 194.94 Z M 167.82 195.77 L 168.39 196.61 C 168.98 197.46 170.14 197.67 170.99 197.09 C 171.84 196.51 172.05 195.34 171.47 194.49 L 170.89 193.66 C 170.31 192.81 169.14 192.59 168.29 193.18 C 167.45 193.76 167.23 194.92 167.82 195.77 Z M 168.39 196.61 L 168.96 197.44 C 169.54 198.29 170.71 198.51 171.56 197.92 C 172.41 197.34 172.63 196.18 172.04 195.33 L 171.47 194.49 C 170.89 193.64 169.72 193.43 168.87 194.01 C 168.02 194.60 167.80 195.76 168.39 196.61 Z M 168.95 197.44 L 169.52 198.26 C 170.10 199.11 171.26 199.33 172.12 198.75 C 172.97 198.17 173.19 197.00 172.61 196.15 L 172.05 195.33 C 171.46 194.47 170.30 194.25 169.44 194.84 C 168.59 195.42 168.37 196.59 168.95 197.44 Z M 169.51 198.26 L 170.07 199.08 C 170.65 199.94 171.81 200.16 172.67 199.58 C 173.53 199.00 173.75 197.83 173.17 196.98 L 172.61 196.15 C 172.03 195.30 170.87 195.07 170.01 195.65 C 169.15 196.23 168.93 197.40 169.51 198.26 Z M 170.06 199.07 L 170.62 199.90 C 171.20 200.76 172.36 200.99 173.22 200.42 C 174.08 199.84 174.31 198.67 173.73 197.81 L 173.18 196.98 C 172.60 196.12 171.43 195.89 170.57 196.47 C 169.71 197.05 169.48 198.21 170.06 199.07 Z M 170.61 199.90 L 171.17 200.74 C 171.74 201.60 172.91 201.84 173.77 201.27 C 174.64 200.69 174.87 199.53 174.30 198.66 L 173.74 197.82 C 173.17 196.96 172.00 196.72 171.14 197.29 C 170.27 197.86 170.04 199.03 170.61 199.90 Z M 171.16 200.73 L 171.69 201.54 C 172.26 202.41 173.42 202.66 174.29 202.09 C 175.16 201.52 175.41 200.36 174.84 199.49 L 174.31 198.67 C 173.74 197.80 172.58 197.56 171.71 198.12 C 170.84 198.69 170.59 199.86 171.16 200.73 Z M 171.68 201.54 L 172.22 202.36 C 172.78 203.24 173.95 203.49 174.82 202.92 C 175.70 202.36 175.95 201.19 175.38 200.32 L 174.85 199.49 C 174.28 198.62 173.12 198.37 172.24 198.93 C 171.37 199.50 171.12 200.66 171.68 201.54 Z M 172.22 202.36 L 172.76 203.21 C 173.32 204.08 174.49 204.33 175.36 203.77 C 176.24 203.21 176.49 202.04 175.93 201.17 L 175.39 200.33 C 174.82 199.45 173.66 199.20 172.78 199.76 C 171.91 200.32 171.65 201.49 172.22 202.36 Z M 172.76 203.21 L 173.31 204.06 C 173.87 204.94 175.04 205.19 175.91 204.63 C 176.79 204.07 177.04 202.90 176.48 202.03 L 175.93 201.17 C 175.37 200.29 174.20 200.04 173.33 200.60 C 172.45 201.16 172.20 202.33 172.76 203.21 Z M 173.31 204.06 L 173.86 204.92 C 174.42 205.80 175.59 206.05 176.47 205.48 C 177.34 204.92 177.59 203.75 177.03 202.88 L 176.48 202.02 C 175.91 201.15 174.75 200.90 173.87 201.46 C 173.00 202.02 172.74 203.19 173.31 204.06 Z M 173.86 204.93 L 174.40 205.76 C 174.97 206.64 176.14 206.89 177.01 206.32 C 177.89 205.75 178.14 204.58 177.57 203.71 L 177.03 202.87 C 176.46 202.00 175.29 201.75 174.42 202.32 C 173.54 202.88 173.30 204.05 173.86 204.93 Z M 174.41 205.77 L 174.96 206.61 C 175.53 207.48 176.70 207.72 177.57 207.15 C 178.44 206.58 178.69 205.41 178.11 204.54 L 177.56 203.70 C 176.99 202.83 175.82 202.59 174.95 203.16 C 174.08 203.73 173.84 204.90 174.41 205.77 Z M 174.97 206.62 L 175.52 207.46 C 176.10 208.32 177.27 208.56 178.14 207.98 C 179.01 207.41 179.24 206.24 178.66 205.37 L 178.11 204.53 C 177.53 203.66 176.36 203.43 175.49 204.00 C 174.62 204.58 174.39 205.75 174.97 206.62 Z M 175.53 207.47 L 176.09 208.30 C 176.68 209.16 177.85 209.39 178.71 208.80 C 179.58 208.22 179.80 207.05 179.22 206.18 L 178.66 205.35 C 178.07 204.49 176.90 204.27 176.03 204.85 C 175.17 205.43 174.95 206.61 175.53 207.47 Z M 176.10 208.32 L 176.68 209.15 C 177.27 210.00 178.45 210.22 179.30 209.62 C 180.16 209.03 180.37 207.85 179.78 207.00 L 179.21 206.17 C 178.61 205.31 177.44 205.10 176.58 205.69 C 175.72 206.28 175.51 207.46 176.10 208.32 Z M 176.69 209.17 L 177.28 210.00 C 177.89 210.85 179.07 211.05 179.92 210.44 C 180.77 209.84 180.97 208.66 180.36 207.81 L 179.77 206.98 C 179.16 206.13 177.98 205.93 177.13 206.53 C 176.28 207.14 176.09 208.32 176.69 209.17 Z M 177.30 210.02 L 177.90 210.84 C 178.52 211.68 179.70 211.86 180.54 211.24 C 181.38 210.62 181.56 209.44 180.94 208.60 L 180.34 207.79 C 179.73 206.95 178.55 206.77 177.70 207.38 C 176.86 208.00 176.68 209.18 177.30 210.02 Z M 177.92 210.86 L 178.52 211.65 C 179.15 212.48 180.34 212.64 181.17 212.01 C 182.00 211.38 182.16 210.20 181.53 209.37 L 180.92 208.58 C 180.29 207.75 179.11 207.59 178.28 208.22 C 177.45 208.85 177.29 210.03 177.92 210.86 Z M 178.54 211.68 L 179.15 212.45 C 179.80 213.26 180.98 213.40 181.80 212.75 C 182.62 212.10 182.76 210.92 182.11 210.10 L 181.50 209.34 C 180.85 208.52 179.67 208.38 178.85 209.03 C 178.03 209.68 177.89 210.87 178.54 211.68 Z M 179.18 212.48 L 179.82 213.25 C 180.48 214.05 181.67 214.16 182.48 213.50 C 183.28 212.83 183.39 211.64 182.72 210.84 L 182.08 210.07 C 181.41 209.26 180.22 209.15 179.42 209.82 C 178.62 210.49 178.51 211.68 179.18 212.48 Z M 179.85 213.29 L 180.51 214.05 C 181.20 214.83 182.39 214.91 183.18 214.23 C 183.96 213.54 184.04 212.35 183.36 211.56 L 182.69 210.80 C 182.00 210.02 180.81 209.94 180.03 210.62 C 179.24 211.31 179.16 212.50 179.85 213.29 Z M 180.55 214.09 L 181.23 214.82 C 181.93 215.58 183.13 215.63 183.89 214.92 C 184.66 214.21 184.70 213.02 184.00 212.25 L 183.32 211.52 C 182.61 210.76 181.42 210.71 180.65 211.42 C 179.89 212.13 179.84 213.32 180.55 214.09 Z M 181.26 214.86 L 181.95 215.56 C 182.68 216.31 183.88 216.32 184.62 215.59 C 185.37 214.86 185.38 213.67 184.65 212.92 L 183.96 212.22 C 183.23 211.47 182.04 211.46 181.29 212.19 C 180.55 212.92 180.54 214.11 181.26 214.86 Z M 181.99 215.60 L 182.71 216.29 C 183.46 217.01 184.66 216.99 185.38 216.24 C 186.10 215.49 186.08 214.30 185.33 213.58 L 184.61 212.88 C 183.86 212.16 182.67 212.18 181.95 212.93 C 181.22 213.68 181.24 214.88 181.99 215.60 Z M 182.75 216.33 L 183.52 217.03 C 184.29 217.73 185.48 217.67 186.18 216.90 C 186.88 216.13 186.83 214.94 186.06 214.24 L 185.29 213.54 C 184.52 212.84 183.33 212.90 182.63 213.67 C 181.93 214.44 181.99 215.63 182.75 216.33 Z M 183.57 217.06 L 184.34 217.73 C 185.13 218.40 186.32 218.31 187.00 217.52 C 187.67 216.73 187.58 215.54 186.79 214.87 L 186.01 214.20 C 185.22 213.53 184.04 213.62 183.36 214.41 C 182.69 215.20 182.78 216.39 183.57 217.06 Z M 184.39 217.76 L 185.16 218.38 C 185.97 219.03 187.15 218.90 187.80 218.09 C 188.45 217.28 188.32 216.10 187.51 215.45 L 186.74 214.83 C 185.93 214.18 184.75 214.31 184.10 215.12 C 183.45 215.93 183.58 217.11 184.39 217.76 Z M 185.22 218.42 L 185.98 218.99 C 186.81 219.61 187.99 219.43 188.61 218.60 C 189.23 217.77 189.05 216.60 188.22 215.98 L 187.45 215.41 C 186.62 214.79 185.45 214.96 184.83 215.79 C 184.21 216.62 184.39 217.80 185.22 218.42 Z M 186.05 219.03 L 186.93 219.63 C 187.79 220.21 188.95 219.99 189.53 219.13 C 190.11 218.27 189.89 217.11 189.03 216.53 L 188.15 215.93 C 187.30 215.35 186.13 215.58 185.55 216.43 C 184.97 217.29 185.20 218.45 186.05 219.03 Z M 187.00 219.67 L 187.85 220.19 C 188.73 220.73 189.88 220.46 190.42 219.58 C 190.96 218.70 190.69 217.55 189.81 217.01 L 188.96 216.49 C 188.08 215.95 186.93 216.22 186.39 217.10 C 185.85 217.98 186.12 219.13 187.00 219.67 Z M 187.90 220.22 L 188.73 220.69 C 189.62 221.20 190.76 220.89 191.27 220.00 C 191.78 219.10 191.47 217.96 190.58 217.45 L 189.75 216.98 C 188.86 216.47 187.72 216.78 187.21 217.68 C 186.70 218.57 187.01 219.71 187.90 220.22 Z M 188.76 220.70 L 189.63 221.18 C 190.54 221.67 191.66 221.34 192.16 220.44 C 192.65 219.54 192.32 218.41 191.42 217.92 L 190.54 217.44 C 189.64 216.95 188.51 217.28 188.02 218.18 C 187.53 219.08 187.86 220.21 188.76 220.70 Z M 189.66 221.18 L 190.55 221.65 C 191.45 222.13 192.57 221.79 193.05 220.88 C 193.53 219.98 193.18 218.86 192.28 218.38 L 191.39 217.91 C 190.49 217.43 189.37 217.78 188.89 218.68 C 188.41 219.59 188.76 220.71 189.66 221.18 Z M 190.57 221.65 L 191.44 222.11 C 192.35 222.58 193.46 222.22 193.93 221.32 C 194.40 220.41 194.04 219.30 193.14 218.83 L 192.26 218.38 C 191.35 217.91 190.24 218.27 189.77 219.17 C 189.31 220.08 189.66 221.19 190.57 221.65 Z M 191.46 222.11 L 192.35 222.56 C 193.25 223.02 194.36 222.66 194.82 221.76 C 195.28 220.86 194.92 219.75 194.02 219.29 L 193.12 218.84 C 192.22 218.38 191.12 218.73 190.66 219.64 C 190.20 220.54 190.55 221.65 191.46 222.11 Z M 192.35 222.55 L 193.24 223.01 C 194.14 223.47 195.24 223.12 195.70 222.22 C 196.16 221.32 195.81 220.22 194.91 219.76 L 194.02 219.30 C 193.12 218.84 192.02 219.20 191.56 220.09 C 191.10 220.99 191.45 222.09 192.35 222.55 Z M 193.23 222.99 L 194.10 223.46 C 194.99 223.93 196.09 223.59 196.56 222.70 C 197.03 221.81 196.69 220.71 195.80 220.24 L 194.93 219.78 C 194.04 219.31 192.94 219.65 192.47 220.54 C 192.00 221.42 192.34 222.52 193.23 222.99 Z M 194.07 223.43 L 194.95 223.92 C 195.83 224.40 196.93 224.09 197.41 223.22 C 197.90 222.34 197.59 221.24 196.71 220.75 L 195.83 220.27 C 194.96 219.78 193.86 220.09 193.37 220.97 C 192.89 221.84 193.20 222.94 194.07 223.43 Z M 194.91 223.89 L 195.78 224.40 C 196.63 224.91 197.74 224.62 198.25 223.76 C 198.75 222.91 198.47 221.80 197.61 221.30 L 196.75 220.79 C 195.89 220.28 194.79 220.56 194.28 221.42 C 193.77 222.28 194.06 223.38 194.91 223.89 Z M 195.74 224.36 L 196.58 224.89 C 197.41 225.42 198.52 225.17 199.05 224.33 C 199.58 223.49 199.33 222.39 198.49 221.86 L 197.65 221.33 C 196.81 220.80 195.71 221.05 195.18 221.89 C 194.65 222.73 194.90 223.84 195.74 224.36 Z M 196.54 224.86 L 197.36 225.41 C 198.18 225.96 199.29 225.75 199.84 224.93 C 200.39 224.11 200.17 223.00 199.35 222.45 L 198.53 221.89 C 197.71 221.34 196.60 221.56 196.05 222.38 C 195.50 223.20 195.72 224.31 196.54 224.86 Z M 197.33 225.38 L 198.14 225.95 C 198.94 226.52 200.05 226.34 200.61 225.54 C 201.18 224.74 201.00 223.63 200.20 223.06 L 199.39 222.48 C 198.59 221.91 197.48 222.10 196.91 222.90 C 196.34 223.70 196.53 224.81 197.33 225.38 Z M 198.12 225.93 L 198.93 226.53 C 199.71 227.11 200.82 226.94 201.40 226.16 C 201.98 225.37 201.82 224.27 201.03 223.69 L 200.22 223.09 C 199.43 222.51 198.33 222.67 197.75 223.46 C 197.17 224.24 197.33 225.35 198.12 225.93 Z M 198.92 226.51 L 199.73 227.12 C 200.51 227.71 201.61 227.56 202.19 226.79 C 202.78 226.01 202.63 224.91 201.85 224.33 L 201.04 223.71 C 200.27 223.13 199.17 223.28 198.58 224.05 C 198.00 224.82 198.15 225.92 198.92 226.51 Z M 199.73 227.10 L 200.52 227.72 C 201.28 228.31 202.38 228.17 202.96 227.41 C 203.55 226.65 203.41 225.56 202.66 224.97 L 201.86 224.35 C 201.10 223.76 200.01 223.90 199.42 224.66 C 198.83 225.42 198.97 226.51 199.73 227.10 Z M 200.52 227.69 L 201.30 228.31 C 202.05 228.90 203.13 228.78 203.72 228.03 C 204.31 227.28 204.19 226.20 203.44 225.61 L 202.66 224.99 C 201.91 224.40 200.83 224.53 200.24 225.27 C 199.65 226.02 199.77 227.10 200.52 227.69 Z M 201.29 228.29 L 202.09 228.94 C 202.83 229.53 203.90 229.42 204.50 228.68 C 205.09 227.95 204.98 226.87 204.24 226.27 L 203.45 225.63 C 202.71 225.03 201.63 225.15 201.04 225.88 C 200.44 226.62 200.56 227.70 201.29 228.29 Z M 202.09 228.92 L 202.83 229.53 C 203.56 230.12 204.63 230.02 205.23 229.29 C 205.82 228.57 205.72 227.49 204.99 226.90 L 204.25 226.29 C 203.52 225.69 202.45 225.80 201.85 226.53 C 201.26 227.25 201.36 228.32 202.09 228.92 Z M 202.83 229.52 L 203.61 230.16 C 204.33 230.75 205.40 230.65 205.99 229.93 C 206.59 229.21 206.48 228.14 205.76 227.55 L 204.99 226.91 C 204.26 226.31 203.20 226.41 202.60 227.14 C 202.01 227.86 202.11 228.93 202.83 229.52 Z M 203.61 230.15 L 204.38 230.78 C 205.09 231.38 206.16 231.28 206.75 230.56 C 207.34 229.84 207.24 228.78 206.53 228.19 L 205.76 227.55 C 205.04 226.96 203.98 227.06 203.39 227.78 C 202.80 228.50 202.90 229.56 203.61 230.15 Z M 204.38 230.77 L 205.15 231.42 C 205.86 232.02 206.92 231.92 207.51 231.21 C 208.11 230.50 208.01 229.44 207.30 228.85 L 206.53 228.20 C 205.82 227.61 204.76 227.70 204.17 228.41 C 203.57 229.12 203.67 230.18 204.38 230.77 Z M 205.17 231.42 L 205.93 232.05 C 206.65 232.64 207.70 232.54 208.28 231.82 C 208.87 231.11 208.77 230.06 208.05 229.47 L 207.29 228.84 C 206.57 228.26 205.52 228.36 204.94 229.08 C 204.35 229.79 204.45 230.84 205.17 231.42 Z M 205.99 232.09 L 206.79 232.70 C 207.52 233.25 208.56 233.11 209.12 232.38 C 209.67 231.65 209.53 230.61 208.80 230.05 L 208.00 229.44 C 207.27 228.89 206.23 229.03 205.67 229.76 C 205.12 230.49 205.26 231.53 205.99 232.09 Z M 206.83 232.71 L 207.64 233.29 C 208.38 233.82 209.41 233.65 209.94 232.92 C 210.47 232.18 210.30 231.15 209.56 230.61 L 208.76 230.04 C 208.02 229.50 206.99 229.67 206.46 230.41 C 205.93 231.15 206.09 232.18 206.83 232.71 Z M 207.63 233.27 L 208.39 233.83 C 209.11 234.37 210.14 234.21 210.68 233.49 C 211.21 232.76 211.06 231.74 210.33 231.20 L 209.57 230.64 C 208.85 230.10 207.82 230.25 207.28 230.98 C 206.75 231.71 206.90 232.73 207.63 233.27 Z M 208.40 233.83 L 209.24 234.44 C 209.96 234.97 210.98 234.81 211.51 234.08 C 212.04 233.36 211.88 232.34 211.15 231.81 L 210.32 231.20 C 209.59 230.67 208.58 230.83 208.05 231.56 C 207.52 232.28 207.68 233.30 208.40 233.83 Z M 209.28 234.46 L 210.08 235.00 C 210.81 235.50 211.82 235.31 212.32 234.58 C 212.82 233.84 212.63 232.84 211.90 232.33 L 211.11 231.79 C 210.37 231.29 209.37 231.48 208.86 232.21 C 208.36 232.95 208.55 233.95 209.28 234.46 Z M 210.11 235.01 L 210.98 235.57 C 211.72 236.05 212.71 235.84 213.19 235.10 C 213.68 234.36 213.47 233.37 212.72 232.88 L 211.86 232.32 C 211.12 231.84 210.13 232.05 209.64 232.79 C 209.16 233.53 209.37 234.53 210.11 235.01 Z M 211.01 235.57 L 211.90 236.13 C 212.65 236.60 213.63 236.37 214.09 235.63 C 214.56 234.88 214.33 233.90 213.59 233.44 L 212.69 232.88 C 211.95 232.41 210.97 232.64 210.50 233.39 C 210.04 234.13 210.26 235.11 211.01 235.57 Z M 211.98 236.15 L 212.86 236.65 C 213.62 237.08 214.58 236.81 215.00 236.05 C 215.43 235.29 215.16 234.34 214.40 233.91 L 213.51 233.42 C 212.76 232.99 211.80 233.26 211.37 234.02 C 210.95 234.77 211.22 235.73 211.98 236.15 Z M 213.04 236.71 L 213.92 237.08 C 214.71 237.41 215.61 237.03 215.94 236.24 C 216.27 235.45 215.90 234.55 215.11 234.22 L 214.23 233.85 C 213.44 233.53 212.53 233.90 212.20 234.69 C 211.87 235.48 212.25 236.39 213.04 236.71 Z M 214.20 237.13 L 215.19 237.34 C 216.01 237.52 216.81 236.99 216.99 236.17 C 217.16 235.35 216.64 234.55 215.82 234.37 L 214.83 234.16 C 214.01 233.99 213.20 234.52 213.03 235.34 C 212.86 236.16 213.38 236.96 214.20 237.13 Z M 215.36 237.33 L 216.20 237.41 C 217.01 237.49 217.74 236.89 217.81 236.08 C 217.89 235.26 217.29 234.54 216.48 234.46 L 215.64 234.38 C 214.83 234.31 214.10 234.90 214.03 235.72 C 213.95 236.53 214.55 237.26 215.36 237.33 Z"
      fill="black"
      fill-rule="nonzero" /><path d="M 197.99 175.02 L 197.74 174.06 C 197.54 173.27 196.74 172.80 195.95 173.00 C 195.16 173.21 194.69 174.01 194.89 174.79 L 195.14 175.75 C 195.34 176.54 196.15 177.01 196.93 176.81 C 197.72 176.60 198.19 175.80 197.99 175.02 Z M 197.75 174.01 L 197.48 173.07 C 197.25 172.27 196.42 171.82 195.63 172.05 C 194.84 172.27 194.38 173.10 194.61 173.90 L 194.88 174.84 C 195.11 175.63 195.94 176.09 196.73 175.86 C 197.53 175.63 197.98 174.80 197.75 174.01 Z M 197.54 173.09 L 197.29 172.13 C 197.07 171.31 196.23 170.81 195.40 171.03 C 194.58 171.24 194.08 172.09 194.30 172.91 L 194.55 173.87 C 194.77 174.70 195.61 175.19 196.43 174.98 C 197.26 174.76 197.75 173.92 197.54 173.09 Z M 197.38 172.32 L 197.26 171.35 C 197.15 170.47 196.35 169.85 195.47 169.96 C 194.59 170.07 193.97 170.87 194.08 171.75 L 194.21 172.72 C 194.32 173.60 195.12 174.22 196.00 174.11 C 196.87 174.00 197.49 173.20 197.38 172.32 Z M 197.32 171.58 L 197.34 170.58 C 197.35 169.67 196.62 168.92 195.71 168.90 C 194.80 168.89 194.05 169.61 194.04 170.52 L 194.02 171.52 C 194.01 172.43 194.73 173.18 195.64 173.20 C 196.55 173.21 197.30 172.49 197.32 171.58 Z M 197.36 170.81 L 197.52 169.77 C 197.66 168.84 197.03 167.98 196.11 167.84 C 195.19 167.69 194.32 168.32 194.18 169.25 L 194.02 170.29 C 193.87 171.21 194.50 172.08 195.43 172.22 C 196.35 172.37 197.21 171.73 197.36 170.81 Z M 197.51 169.98 L 197.79 168.99 C 198.05 168.07 197.51 167.12 196.60 166.86 C 195.68 166.60 194.73 167.13 194.47 168.05 L 194.19 169.04 C 193.93 169.95 194.47 170.91 195.38 171.16 C 196.30 171.42 197.25 170.89 197.51 169.98 Z M 197.76 169.14 L 198.11 168.21 C 198.45 167.31 198.00 166.31 197.10 165.96 C 196.20 165.62 195.19 166.08 194.85 166.98 L 194.50 167.90 C 194.16 168.80 194.61 169.81 195.51 170.15 C 196.41 170.49 197.42 170.04 197.76 169.14 Z M 198.07 168.35 L 198.51 167.43 C 198.93 166.55 198.55 165.50 197.67 165.08 C 196.79 164.66 195.74 165.04 195.32 165.92 L 194.88 166.84 C 194.47 167.72 194.84 168.77 195.72 169.19 C 196.60 169.61 197.66 169.23 198.07 168.35 Z M 198.47 167.54 L 198.94 166.69 C 199.41 165.84 199.11 164.76 198.25 164.28 C 197.39 163.80 196.31 164.11 195.84 164.97 L 195.37 165.81 C 194.89 166.66 195.19 167.75 196.05 168.22 C 196.91 168.70 197.99 168.39 198.47 167.54 Z M 198.93 166.72 L 199.41 165.90 C 199.90 165.05 199.60 163.95 198.75 163.46 C 197.89 162.97 196.80 163.26 196.31 164.12 L 195.84 164.94 C 195.35 165.79 195.64 166.89 196.49 167.38 C 197.35 167.87 198.44 167.58 198.93 166.72 Z M 199.42 165.90 L 199.92 165.02 C 200.41 164.15 200.11 163.06 199.25 162.57 C 198.38 162.07 197.28 162.38 196.79 163.24 L 196.29 164.12 C 195.80 164.99 196.10 166.08 196.97 166.57 C 197.83 167.07 198.93 166.76 199.42 165.90 Z M 199.94 165.02 L 200.43 164.15 C 200.92 163.28 200.61 162.18 199.74 161.68 C 198.87 161.19 197.76 161.50 197.27 162.37 L 196.78 163.24 C 196.29 164.11 196.59 165.22 197.47 165.71 C 198.34 166.20 199.44 165.89 199.94 165.02 Z M 200.44 164.16 L 200.92 163.30 C 201.41 162.43 201.10 161.31 200.22 160.82 C 199.35 160.33 198.23 160.64 197.74 161.51 L 197.26 162.37 C 196.76 163.25 197.07 164.36 197.95 164.85 C 198.83 165.35 199.94 165.04 200.44 164.16 Z M 200.93 163.31 L 201.44 162.39 C 201.94 161.51 201.62 160.39 200.74 159.89 C 199.85 159.40 198.74 159.71 198.24 160.60 L 197.73 161.51 C 197.23 162.40 197.55 163.51 198.43 164.01 C 199.32 164.50 200.43 164.19 200.93 163.31 Z M 201.45 162.39 L 201.91 161.56 C 202.41 160.67 202.09 159.55 201.20 159.05 C 200.31 158.56 199.19 158.88 198.70 159.77 L 198.23 160.60 C 197.74 161.49 198.06 162.61 198.95 163.10 C 199.83 163.60 200.95 163.28 201.45 162.39 Z M 201.92 161.55 L 202.39 160.69 C 202.89 159.80 202.56 158.68 201.67 158.19 C 200.78 157.69 199.66 158.02 199.17 158.91 L 198.69 159.77 C 198.20 160.66 198.53 161.78 199.42 162.27 C 200.31 162.77 201.43 162.44 201.92 161.55 Z M 202.40 160.68 L 202.90 159.76 C 203.39 158.87 203.06 157.75 202.16 157.26 C 201.27 156.78 200.15 157.11 199.66 158.00 L 199.16 158.92 C 198.68 159.81 199.01 160.93 199.90 161.42 C 200.79 161.90 201.91 161.57 202.40 160.68 Z M 202.90 159.75 L 203.37 158.89 C 203.85 158.00 203.51 156.88 202.61 156.40 C 201.72 155.92 200.60 156.26 200.12 157.15 L 199.66 158.01 C 199.18 158.91 199.51 160.02 200.41 160.50 C 201.31 160.98 202.42 160.65 202.90 159.75 Z M 203.37 158.88 L 203.82 158.03 C 204.29 157.13 203.95 156.02 203.05 155.54 C 202.15 155.07 201.04 155.41 200.57 156.31 L 200.12 157.16 C 199.64 158.06 199.98 159.17 200.88 159.65 C 201.78 160.12 202.89 159.78 203.37 158.88 Z M 203.82 158.02 L 204.29 157.12 C 204.76 156.22 204.41 155.11 203.51 154.64 C 202.61 154.18 201.50 154.53 201.03 155.43 L 200.56 156.32 C 200.09 157.22 200.44 158.33 201.34 158.80 C 202.24 159.27 203.35 158.92 203.82 158.02 Z M 204.29 157.11 L 204.78 156.17 C 205.24 155.27 204.89 154.16 203.99 153.70 C 203.08 153.23 201.98 153.59 201.51 154.49 L 201.03 155.43 C 200.56 156.34 200.92 157.44 201.82 157.91 C 202.72 158.37 203.83 158.02 204.29 157.11 Z M 204.78 156.16 L 205.23 155.28 C 205.68 154.38 205.33 153.28 204.42 152.82 C 203.52 152.36 202.42 152.72 201.96 153.62 L 201.51 154.50 C 201.05 155.40 201.41 156.50 202.31 156.96 C 203.22 157.42 204.32 157.06 204.78 156.16 Z M 205.22 155.28 L 205.67 154.39 C 206.13 153.49 205.77 152.39 204.87 151.93 C 203.97 151.48 202.86 151.84 202.41 152.74 L 201.96 153.62 C 201.50 154.53 201.87 155.63 202.77 156.08 C 203.67 156.54 204.77 156.18 205.22 155.28 Z M 205.67 154.39 L 206.13 153.49 C 206.58 152.59 206.22 151.49 205.32 151.04 C 204.42 150.58 203.33 150.94 202.87 151.84 L 202.41 152.74 C 201.96 153.64 202.32 154.74 203.22 155.19 C 204.11 155.65 205.21 155.29 205.67 154.39 Z M 206.12 153.49 L 206.58 152.59 C 207.04 151.69 206.68 150.59 205.79 150.14 C 204.89 149.68 203.80 150.03 203.34 150.93 L 202.88 151.83 C 202.42 152.73 202.77 153.83 203.67 154.29 C 204.56 154.74 205.66 154.39 206.12 153.49 Z M 206.57 152.59 L 207.04 151.69 C 207.50 150.80 207.15 149.71 206.26 149.24 C 205.37 148.78 204.27 149.13 203.81 150.02 L 203.35 150.92 C 202.88 151.81 203.23 152.91 204.12 153.37 C 205.02 153.83 206.11 153.48 206.57 152.59 Z M 207.03 151.70 L 207.50 150.81 C 207.97 149.93 207.63 148.83 206.74 148.36 C 205.85 147.90 204.76 148.24 204.29 149.12 L 203.82 150.01 C 203.35 150.90 203.69 152.00 204.58 152.46 C 205.47 152.93 206.57 152.59 207.03 151.70 Z M 207.49 150.82 L 207.96 149.94 C 208.43 149.06 208.10 147.96 207.22 147.49 C 206.33 147.02 205.24 147.35 204.76 148.24 L 204.30 149.12 C 203.83 150.00 204.16 151.10 205.04 151.57 C 205.93 152.04 207.02 151.70 207.49 150.82 Z M 207.96 149.94 L 208.43 149.07 C 208.90 148.19 208.57 147.09 207.69 146.62 C 206.81 146.15 205.71 146.48 205.24 147.36 L 204.77 148.23 C 204.30 149.11 204.63 150.21 205.51 150.68 C 206.39 151.15 207.48 150.82 207.96 149.94 Z M 208.42 149.07 L 208.90 148.19 C 209.37 147.31 209.04 146.22 208.16 145.74 C 207.29 145.27 206.19 145.60 205.72 146.48 L 205.25 147.36 C 204.77 148.23 205.10 149.33 205.98 149.80 C 206.86 150.27 207.95 149.95 208.42 149.07 Z M 208.89 148.19 L 209.36 147.31 C 209.83 146.44 209.51 145.35 208.63 144.88 C 207.75 144.40 206.66 144.73 206.19 145.61 L 205.72 146.48 C 205.25 147.35 205.58 148.45 206.45 148.92 C 207.33 149.39 208.42 149.06 208.89 148.19 Z M 209.36 147.31 L 209.83 146.44 C 210.30 145.56 209.97 144.48 209.10 144.00 C 208.23 143.53 207.14 143.86 206.67 144.73 L 206.20 145.61 C 205.73 146.48 206.05 147.57 206.92 148.04 C 207.80 148.51 208.89 148.19 209.36 147.31 Z M 209.82 146.44 L 210.30 145.56 C 210.77 144.69 210.45 143.60 209.58 143.13 C 208.71 142.66 207.63 142.98 207.15 143.85 L 206.68 144.73 C 206.21 145.60 206.53 146.69 207.40 147.16 C 208.26 147.63 209.35 147.31 209.82 146.44 Z M 210.29 145.56 L 210.78 144.68 C 211.25 143.82 210.93 142.73 210.07 142.26 C 209.21 141.78 208.12 142.10 207.65 142.96 L 207.16 143.85 C 206.69 144.71 207.01 145.79 207.87 146.27 C 208.73 146.74 209.82 146.43 210.29 145.56 Z M 210.77 144.69 L 211.25 143.81 C 211.73 142.95 211.42 141.87 210.56 141.39 C 209.71 140.91 208.62 141.22 208.15 142.08 L 207.66 142.96 C 207.18 143.81 207.49 144.90 208.35 145.38 C 209.20 145.85 210.29 145.55 210.77 144.69 Z M 211.24 143.82 L 211.73 142.95 C 212.21 142.10 211.91 141.02 211.06 140.54 C 210.21 140.05 209.13 140.36 208.64 141.21 L 208.15 142.07 C 207.67 142.93 207.97 144.01 208.83 144.49 C 209.68 144.97 210.76 144.67 211.24 143.82 Z M 211.73 142.96 L 212.22 142.09 C 212.70 141.24 212.41 140.16 211.56 139.68 C 210.71 139.19 209.63 139.49 209.14 140.34 L 208.65 141.20 C 208.17 142.05 208.46 143.13 209.31 143.62 C 210.16 144.10 211.24 143.81 211.73 142.96 Z M 212.22 142.09 L 212.71 141.22 C 213.20 140.37 212.90 139.30 212.06 138.81 C 211.21 138.33 210.13 138.62 209.65 139.47 L 209.15 140.34 C 208.66 141.18 208.96 142.26 209.80 142.75 C 210.65 143.23 211.73 142.94 212.22 142.09 Z M 212.71 141.22 L 213.21 140.34 C 213.69 139.50 213.40 138.42 212.55 137.94 C 211.71 137.46 210.63 137.75 210.15 138.60 L 209.65 139.47 C 209.17 140.32 209.46 141.39 210.31 141.87 C 211.15 142.36 212.23 142.06 212.71 141.22 Z M 213.21 140.34 L 213.70 139.47 C 214.18 138.62 213.88 137.55 213.04 137.07 C 212.19 136.59 211.12 136.89 210.64 137.74 L 210.15 138.60 C 209.67 139.45 209.97 140.52 210.81 141.00 C 211.66 141.48 212.73 141.18 213.21 140.34 Z M 213.70 139.46 L 214.19 138.59 C 214.66 137.74 214.35 136.68 213.51 136.20 C 212.66 135.73 211.59 136.04 211.12 136.88 L 210.64 137.75 C 210.17 138.59 210.47 139.66 211.31 140.14 C 212.16 140.61 213.23 140.30 213.70 139.46 Z M 214.19 138.57 L 214.67 137.70 C 215.13 136.85 214.82 135.79 213.97 135.32 C 213.12 134.86 212.06 135.17 211.60 136.02 L 211.12 136.90 C 210.65 137.75 210.97 138.81 211.81 139.27 C 212.66 139.74 213.73 139.42 214.19 138.57 Z M 214.67 137.68 L 215.14 136.79 C 215.60 135.94 215.27 134.88 214.42 134.43 C 213.57 133.98 212.51 134.30 212.06 135.15 L 211.59 136.04 C 211.14 136.89 211.46 137.95 212.31 138.40 C 213.17 138.85 214.22 138.53 214.67 137.68 Z M 215.15 136.76 L 215.61 135.86 C 216.05 135.01 215.71 133.96 214.85 133.52 C 214.00 133.08 212.95 133.42 212.51 134.28 L 212.05 135.18 C 211.61 136.04 211.95 137.09 212.81 137.52 C 213.67 137.96 214.72 137.62 215.15 136.76 Z M 215.62 135.83 L 216.05 134.96 C 216.47 134.10 216.11 133.06 215.25 132.64 C 214.39 132.22 213.35 132.57 212.93 133.43 L 212.50 134.31 C 212.08 135.17 212.44 136.21 213.30 136.63 C 214.16 137.05 215.20 136.70 215.62 135.83 Z M 216.06 134.93 L 216.47 134.04 C 216.88 133.18 216.51 132.15 215.64 131.74 C 214.77 131.33 213.74 131.71 213.34 132.57 L 212.92 133.46 C 212.51 134.33 212.89 135.36 213.75 135.77 C 214.62 136.17 215.65 135.80 216.06 134.93 Z M 216.48 134.02 L 216.89 133.11 C 217.28 132.24 216.89 131.22 216.02 130.83 C 215.15 130.43 214.13 130.82 213.74 131.69 L 213.33 132.60 C 212.94 133.47 213.33 134.49 214.20 134.88 C 215.07 135.27 216.09 134.89 216.48 134.02 Z M 216.89 133.09 L 217.30 132.16 C 217.68 131.28 217.28 130.27 216.41 129.89 C 215.53 129.51 214.52 129.91 214.14 130.78 L 213.74 131.71 C 213.36 132.59 213.76 133.60 214.63 133.98 C 215.50 134.36 216.52 133.96 216.89 133.09 Z M 217.30 132.14 L 217.70 131.18 C 218.07 130.31 217.66 129.30 216.79 128.93 C 215.91 128.56 214.91 128.98 214.54 129.85 L 214.14 130.80 C 213.77 131.68 214.18 132.69 215.05 133.05 C 215.93 133.42 216.93 133.01 217.30 132.14 Z M 217.71 131.16 L 218.09 130.23 C 218.45 129.35 218.03 128.35 217.15 128.00 C 216.28 127.64 215.28 128.06 214.92 128.93 L 214.54 129.87 C 214.18 130.74 214.60 131.74 215.47 132.10 C 216.35 132.46 217.35 132.04 217.71 131.16 Z M 218.09 130.21 L 218.46 129.26 C 218.81 128.39 218.39 127.40 217.51 127.05 C 216.64 126.70 215.64 127.13 215.30 128.00 L 214.92 128.95 C 214.57 129.82 215.00 130.82 215.87 131.16 C 216.75 131.51 217.74 131.09 218.09 130.21 Z M 218.46 129.25 L 218.83 128.30 C 219.17 127.42 218.74 126.44 217.86 126.10 C 216.99 125.76 216.00 126.19 215.67 127.07 L 215.30 128.02 C 214.96 128.89 215.39 129.88 216.27 130.22 C 217.14 130.55 218.12 130.12 218.46 129.25 Z M 218.83 128.28 L 219.18 127.35 C 219.52 126.48 219.08 125.50 218.20 125.17 C 217.33 124.84 216.35 125.28 216.02 126.15 L 215.67 127.09 C 215.34 127.96 215.78 128.94 216.65 129.27 C 217.52 129.60 218.50 129.16 218.83 128.28 Z M 219.18 127.33 L 219.52 126.43 C 219.84 125.55 219.39 124.58 218.52 124.26 C 217.65 123.94 216.68 124.39 216.35 125.26 L 216.02 126.17 C 215.70 127.04 216.15 128.01 217.02 128.33 C 217.89 128.65 218.86 128.21 219.18 127.33 Z M 219.52 126.41 L 219.88 125.40 C 220.19 124.53 219.73 123.57 218.86 123.26 C 217.99 122.95 217.03 123.40 216.71 124.27 L 216.36 125.28 C 216.04 126.15 216.50 127.11 217.37 127.43 C 218.24 127.74 219.21 127.28 219.52 126.41 Z M 219.88 125.38 L 220.21 124.40 C 220.51 123.52 220.05 122.57 219.18 122.27 C 218.30 121.97 217.35 122.44 217.05 123.31 L 216.71 124.30 C 216.41 125.17 216.88 126.12 217.75 126.42 C 218.62 126.72 219.58 126.25 219.88 125.38 Z M 220.21 124.37 L 220.52 123.44 C 220.81 122.56 220.34 121.62 219.46 121.34 C 218.59 121.05 217.65 121.52 217.36 122.40 L 217.05 123.33 C 216.77 124.21 217.24 125.15 218.11 125.43 C 218.99 125.72 219.93 125.25 220.21 124.37 Z M 220.52 123.41 L 220.80 122.52 C 221.08 121.64 220.59 120.71 219.72 120.44 C 218.85 120.17 217.92 120.65 217.65 121.52 L 217.36 122.42 C 217.09 123.29 217.57 124.22 218.45 124.50 C 219.32 124.77 220.25 124.29 220.52 123.41 Z M 220.80 122.49 L 221.09 121.54 C 221.35 120.67 220.85 119.75 219.98 119.49 C 219.11 119.23 218.19 119.72 217.93 120.59 L 217.65 121.55 C 217.39 122.42 217.88 123.34 218.75 123.60 C 219.62 123.86 220.54 123.36 220.80 122.49 Z M 221.09 121.51 L 221.37 120.50 C 221.62 119.63 221.12 118.73 220.25 118.48 C 219.38 118.23 218.47 118.73 218.22 119.60 L 217.94 120.62 C 217.69 121.49 218.19 122.39 219.06 122.64 C 219.93 122.89 220.84 122.38 221.09 121.51 Z M 221.37 120.48 L 221.63 119.53 C 221.87 118.66 221.36 117.77 220.49 117.53 C 219.63 117.29 218.73 117.80 218.49 118.67 L 218.23 119.62 C 217.99 120.49 218.50 121.38 219.37 121.62 C 220.23 121.86 221.13 121.35 221.37 120.48 Z M 221.62 119.52 L 221.86 118.63 C 222.09 117.77 221.59 116.89 220.72 116.65 C 219.86 116.42 218.98 116.93 218.74 117.79 L 218.50 118.67 C 218.27 119.54 218.78 120.42 219.64 120.66 C 220.50 120.89 221.39 120.38 221.62 119.52 Z M 221.85 118.63 L 222.13 117.61 C 222.36 116.76 221.86 115.88 221.00 115.64 C 220.15 115.41 219.27 115.91 219.03 116.77 L 218.76 117.79 C 218.52 118.64 219.03 119.53 219.88 119.76 C 220.73 119.99 221.62 119.49 221.85 118.63 Z M 222.11 117.60 L 222.37 116.65 C 222.60 115.81 222.10 114.94 221.25 114.71 C 220.40 114.48 219.53 114.98 219.30 115.83 L 219.05 116.78 C 218.82 117.62 219.32 118.49 220.17 118.72 C 221.01 118.95 221.89 118.45 222.11 117.60 Z M 222.36 116.63 L 222.59 115.70 C 222.81 114.86 222.30 114.01 221.46 113.79 C 220.62 113.58 219.76 114.09 219.55 114.93 L 219.31 115.85 C 219.10 116.70 219.61 117.55 220.45 117.76 C 221.29 117.98 222.14 117.47 222.36 116.63 Z M 222.58 115.67 L 222.80 114.69 C 223.00 113.86 222.48 113.03 221.65 112.84 C 220.82 112.64 219.99 113.16 219.80 113.99 L 219.57 114.97 C 219.37 115.80 219.89 116.63 220.72 116.82 C 221.55 117.02 222.38 116.50 222.58 115.67 Z M 222.78 114.67 L 222.99 113.69 C 223.17 112.88 222.65 112.07 221.84 111.89 C 221.02 111.71 220.22 112.23 220.04 113.04 L 219.82 114.02 C 219.64 114.83 220.16 115.64 220.97 115.82 C 221.79 116.00 222.60 115.48 222.78 114.67 Z M 222.97 113.68 L 223.03 113.39 C 223.21 112.58 222.70 111.79 221.89 111.62 C 221.09 111.44 220.30 111.95 220.12 112.76 L 220.06 113.05 C 219.88 113.86 220.39 114.65 221.20 114.82 C 222.00 115.00 222.80 114.49 222.97 113.68 Z"
      fill="black"
      fill-rule="nonzero" /></svg>