<svg xmlns="http://www.w3.org/2000/svg" width="300" height="300" viewBox="0 0 300 300">
<path d="M 103.87 133.97 L 103.50 134.96 C 103.21 135.76 103.62 136.65 104.42 136.94 C 105.22 137.23 106.11 136.82 106.40 136.02 L 106.76 135.03 C 107.06 134.23 106.65 133.34 105.85 133.05 C 105.05 132.76 104.16 133.17 103.87 133.97 Z M 103.42 135.00 L 103.12 135.94 C 102.85 136.79 103.32 137.69 104.16 137.96 C 105.01 138.23 105.91 137.77 106.18 136.92 L 106.48 135.98 C 106.75 135.14 106.29 134.23 105.44 133.96 C 104.60 133.69 103.69 134.16 103.42 135.00 Z M 103.03 136.10 L 102.83 137.06 C 102.65 137.96 103.23 138.83 104.12 139.02 C 105.02 139.20 105.89 138.62 106.08 137.73 L 106.27 136.77 C 106.46 135.87 105.88 135.00 104.98 134.81 C 104.09 134.63 103.21 135.21 103.03 136.10 Z M 102.77 137.30 L 102.72 138.27 C 102.67 139.20 103.38 139.99 104.30 140.05 C 105.23 140.10 106.03 139.39 106.08 138.46 L 106.13 137.49 C 106.19 136.56 105.48 135.77 104.55 135.71 C 103.62 135.66 102.83 136.37 102.77 137.30 Z M 102.70 138.36 L 102.70 139.30 C 102.70 140.23 103.46 141.00 104.40 141.00 C 105.34 141.00 106.10 140.24 106.10 139.30 L 106.10 138.37 C 106.10 137.43 105.34 136.67 104.40 136.67 C 103.46 136.66 102.70 137.42 102.70 138.36 Z M 102.68 139.30 L 102.68 140.29 C 102.68 141.24 103.45 142.01 104.40 142.01 C 105.35 142.01 106.11 141.24 106.11 140.29 L 106.11 139.30 C 106.11 138.35 105.35 137.58 104.40 137.58 C 103.45 137.58 102.68 138.35 102.68 139.30 Z M 102.67 140.29 L 102.67 141.32 C 102.67 142.27 103.44 143.05 104.40 143.05 C 105.35 143.05 106.13 142.27 106.13 141.32 L 106.13 140.29 C 106.13 139.33 105.35 138.56 104.40 138.56 C 103.44 138.56 102.67 139.33 102.67 140.29 Z M 102.65 141.32 L 102.65 142.24 C 102.65 143.21 103.43 143.99 104.40 143.99 C 105.36 143.99 106.14 143.21 106.14 142.24 L 106.14 141.32 C 106.14 140.35 105.36 139.57 104.40 139.57 C 103.43 139.57 102.65 140.35 102.65 141.32 Z M 102.64 142.24 L 102.64 143.27 C 102.64 144.24 103.43 145.02 104.40 145.02 C 105.37 145.02 106.15 144.24 106.15 143.27 L 106.15 142.24 C 106.15 141.27 105.37 140.49 104.40 140.49 C 103.43 140.49 102.64 141.27 102.64 142.24 Z M 102.63 143.27 L 102.63 144.34 C 102.63 145.32 103.42 146.11 104.40 146.11 C 105.37 146.11 106.17 145.32 106.17 144.34 L 106.17 143.27 C 106.17 142.29 105.37 141.50 104.40 141.50 C 103.42 141.50 102.63 142.29 102.63 143.27 Z M 102.62 144.34 L 102.62 145.26 C 102.62 146.24 103.42 147.03 104.40 147.03 C 105.38 147.03 106.17 146.24 106.17 145.26 L 106.17 144.34 C 106.17 143.36 105.38 142.56 104.40 142.56 C 103.42 142.56 102.62 143.36 102.62 144.34 Z M 102.61 145.26 L 102.62 146.24 C 102.62 147.22 103.42 148.02 104.40 148.02 C 105.39 148.02 106.19 147.22 106.18 146.23 L 106.18 145.25 C 106.18 144.27 105.38 143.47 104.40 143.47 C 103.41 143.47 102.61 144.27 102.61 145.26 Z M 102.61 146.24 L 102.61 147.28 C 102.62 148.27 103.42 149.07 104.41 149.06 C 105.40 149.06 106.20 148.26 106.20 147.27 L 106.19 146.23 C 106.19 145.24 105.38 144.44 104.39 144.44 C 103.40 144.45 102.60 145.25 102.61 146.24 Z M 102.60 147.28 L 102.61 148.37 C 102.62 149.37 103.43 150.17 104.42 150.16 C 105.42 150.16 106.22 149.35 106.21 148.35 L 106.20 147.26 C 106.20 146.27 105.39 145.47 104.39 145.47 C 103.40 145.48 102.60 146.29 102.60 147.28 Z M 102.60 148.38 L 102.61 149.32 C 102.62 150.32 103.44 151.12 104.44 151.11 C 105.43 151.10 106.23 150.28 106.23 149.28 L 106.22 148.35 C 106.21 147.35 105.39 146.55 104.39 146.56 C 103.40 146.57 102.60 147.38 102.60 148.38 Z M 102.61 149.32 L 102.62 150.30 C 102.63 151.30 103.45 152.10 104.45 152.09 C 105.46 152.07 106.26 151.25 106.24 150.25 L 106.23 149.28 C 106.22 148.28 105.40 147.48 104.40 147.49 C 103.40 147.50 102.60 148.32 102.61 149.32 Z M 102.61 150.30 L 102.63 151.31 C 102.65 152.31 103.47 153.11 104.48 153.09 C 105.48 153.08 106.28 152.25 106.27 151.25 L 106.25 150.24 C 106.23 149.24 105.41 148.44 104.40 148.46 C 103.40 148.47 102.60 149.30 102.61 150.30 Z M 102.63 151.31 L 102.65 152.34 C 102.67 153.35 103.50 154.15 104.51 154.13 C 105.51 154.11 106.31 153.27 106.29 152.27 L 106.27 151.24 C 106.25 150.23 105.42 149.43 104.41 149.45 C 103.40 149.47 102.60 150.31 102.63 151.31 Z M 102.64 152.35 L 102.67 153.40 C 102.69 154.41 103.53 155.21 104.54 155.19 C 105.55 155.16 106.35 154.32 106.32 153.31 L 106.30 152.26 C 106.27 151.25 105.43 150.45 104.42 150.48 C 103.41 150.50 102.62 151.34 102.64 152.35 Z M 102.66 153.41 L 102.69 154.38 C 102.72 155.39 103.57 156.19 104.58 156.16 C 105.59 156.13 106.39 155.28 106.36 154.27 L 106.33 153.30 C 106.30 152.29 105.45 151.49 104.44 151.53 C 103.43 151.56 102.63 152.40 102.66 153.41 Z M 102.69 154.39 L 102.72 155.36 C 102.76 156.38 103.61 157.17 104.62 157.13 C 105.64 157.10 106.43 156.25 106.39 155.24 L 106.36 154.26 C 106.33 153.25 105.48 152.46 104.46 152.49 C 103.45 152.53 102.66 153.38 102.69 154.39 Z M 102.72 155.37 L 102.76 156.36 C 102.80 157.37 103.65 158.17 104.67 158.13 C 105.68 158.09 106.47 157.23 106.43 156.22 L 106.40 155.23 C 106.36 154.21 105.50 153.42 104.49 153.46 C 103.48 153.50 102.68 154.35 102.72 155.37 Z M 102.76 156.36 L 102.80 157.37 C 102.84 158.39 103.70 159.18 104.71 159.14 C 105.73 159.10 106.52 158.24 106.48 157.22 L 106.44 156.22 C 106.40 155.20 105.54 154.41 104.52 154.45 C 103.51 154.49 102.72 155.35 102.76 156.36 Z M 102.80 157.38 L 102.84 158.40 C 102.88 159.42 103.74 160.21 104.76 160.17 C 105.78 160.12 106.57 159.26 106.52 158.25 L 106.48 157.22 C 106.44 156.20 105.58 155.41 104.56 155.46 C 103.54 155.50 102.75 156.36 102.80 157.38 Z M 102.84 158.41 L 102.88 159.44 C 102.93 160.45 103.79 161.24 104.81 161.20 C 105.83 161.15 106.62 160.29 106.57 159.27 L 106.53 158.24 C 106.48 157.22 105.62 156.43 104.60 156.48 C 103.58 156.52 102.79 157.39 102.84 158.41 Z M 102.88 159.44 L 102.92 160.42 C 102.97 161.44 103.83 162.23 104.85 162.18 C 105.87 162.14 106.67 161.27 106.62 160.25 L 106.58 159.27 C 106.53 158.25 105.66 157.46 104.64 157.51 C 103.62 157.55 102.83 158.42 102.88 159.44 Z M 102.92 160.42 L 102.96 161.41 C 103.01 162.44 103.88 163.23 104.90 163.18 C 105.92 163.14 106.72 162.27 106.67 161.25 L 106.62 160.25 C 106.58 159.23 105.71 158.44 104.69 158.48 C 103.66 158.53 102.87 159.40 102.92 160.42 Z M 102.96 161.42 L 103.01 162.42 C 103.05 163.44 103.92 164.24 104.95 164.19 C 105.97 164.14 106.77 163.27 106.72 162.25 L 106.67 161.24 C 106.62 160.22 105.76 159.43 104.73 159.47 C 103.71 159.52 102.91 160.39 102.96 161.42 Z M 103.00 162.42 L 103.05 163.43 C 103.10 164.45 103.97 165.25 105.00 165.20 C 106.03 165.15 106.82 164.28 106.77 163.25 L 106.72 162.24 C 106.67 161.22 105.80 160.42 104.78 160.47 C 103.75 160.52 102.95 161.39 103.00 162.42 Z M 103.05 163.43 L 103.10 164.44 C 103.14 165.47 104.02 166.26 105.05 166.21 C 106.08 166.16 106.87 165.29 106.82 164.26 L 106.77 163.25 C 106.73 162.22 105.85 161.43 104.82 161.48 C 103.79 161.52 103.00 162.40 103.05 163.43 Z M 103.09 164.44 L 103.14 165.44 C 103.19 166.47 104.07 167.27 105.10 167.22 C 106.13 167.17 106.93 166.29 106.88 165.26 L 106.83 164.26 C 106.78 163.22 105.90 162.43 104.87 162.48 C 103.84 162.53 103.04 163.41 103.09 164.44 Z M 103.14 165.44 L 103.19 166.44 C 103.24 167.47 104.12 168.27 105.15 168.22 C 106.18 168.17 106.98 167.29 106.93 166.25 L 106.88 165.26 C 106.83 164.23 105.95 163.43 104.92 163.48 C 103.88 163.53 103.09 164.41 103.14 165.44 Z M 103.18 166.44 L 103.23 167.43 C 103.28 168.47 104.17 169.26 105.20 169.21 C 106.24 169.16 107.03 168.28 106.98 167.24 L 106.93 166.25 C 106.88 165.22 106.00 164.42 104.96 164.47 C 103.93 164.52 103.13 165.41 103.18 166.44 Z M 103.23 167.43 L 103.28 168.42 C 103.33 169.46 104.22 170.26 105.25 170.21 C 106.29 170.15 107.09 169.27 107.03 168.23 L 106.98 167.24 C 106.93 166.21 106.05 165.41 105.01 165.46 C 103.97 165.51 103.18 166.40 103.23 167.43 Z M 103.28 168.43 L 103.33 169.42 C 103.38 170.46 104.27 171.26 105.31 171.20 C 106.34 171.15 107.14 170.26 107.09 169.23 L 107.04 168.23 C 106.98 167.19 106.10 166.40 105.06 166.45 C 104.02 166.50 103.22 167.39 103.28 168.43 Z M 103.33 169.42 L 103.38 170.43 C 103.43 171.47 104.32 172.26 105.36 172.21 C 106.40 172.15 107.20 171.27 107.14 170.23 L 107.09 169.23 C 107.04 168.19 106.15 167.39 105.11 167.44 C 104.07 167.50 103.27 168.38 103.33 169.42 Z M 103.38 170.43 L 103.43 171.44 C 103.49 172.48 104.38 173.28 105.42 173.22 C 106.46 173.17 107.26 172.28 107.20 171.24 L 107.15 170.23 C 107.09 169.18 106.20 168.39 105.16 168.44 C 104.12 168.50 103.32 169.39 103.38 170.43 Z M 103.43 171.44 L 103.48 172.43 C 103.54 173.47 104.43 174.27 105.47 174.21 C 106.52 174.15 107.31 173.26 107.26 172.22 L 107.20 171.24 C 107.15 170.19 106.25 169.40 105.21 169.45 C 104.17 169.51 103.37 170.40 103.43 171.44 Z M 103.48 172.43 L 103.54 173.41 C 103.60 174.45 104.49 175.25 105.53 175.19 C 106.57 175.13 107.37 174.24 107.31 173.20 L 107.26 172.22 C 107.20 171.17 106.31 170.38 105.26 170.43 C 104.22 170.49 103.42 171.39 103.48 172.43 Z M 103.54 173.41 L 103.59 174.40 C 103.65 175.45 104.54 176.25 105.59 176.19 C 106.63 176.13 107.43 175.23 107.37 174.19 L 107.31 173.20 C 107.26 172.15 106.36 171.36 105.32 171.42 C 104.27 171.47 103.48 172.37 103.54 173.41 Z M 103.59 174.40 L 103.65 175.41 C 103.71 176.45 104.60 177.25 105.65 177.19 C 106.69 177.13 107.49 176.23 107.43 175.19 L 107.37 174.19 C 107.31 173.14 106.42 172.35 105.37 172.41 C 104.33 172.47 103.53 173.36 103.59 174.40 Z M 103.65 175.41 L 103.70 176.41 C 103.76 177.46 104.66 178.26 105.70 178.20 C 106.75 178.14 107.55 177.24 107.49 176.20 L 107.43 175.19 C 107.37 174.14 106.47 173.35 105.43 173.41 C 104.39 173.47 103.59 174.36 103.65 175.41 Z M 103.70 176.42 L 103.76 177.43 C 103.82 178.47 104.72 179.27 105.76 179.21 C 106.81 179.15 107.61 178.26 107.55 177.21 L 107.49 176.20 C 107.43 175.15 106.53 174.35 105.49 174.41 C 104.44 174.47 103.64 175.37 103.70 176.42 Z M 103.76 177.43 L 103.82 178.44 C 103.88 179.49 104.78 180.29 105.82 180.23 C 106.87 180.17 107.67 179.27 107.61 178.23 L 107.55 177.21 C 107.49 176.16 106.59 175.37 105.55 175.43 C 104.50 175.49 103.70 176.38 103.76 177.43 Z M 103.82 178.44 L 103.88 179.45 C 103.94 180.50 104.83 181.30 105.88 181.24 C 106.93 181.18 107.73 180.28 107.67 179.24 L 107.61 178.23 C 107.55 177.18 106.65 176.38 105.60 176.44 C 104.56 176.50 103.76 177.40 103.82 178.44 Z M 103.88 179.45 L 103.93 180.46 C 103.99 181.51 104.89 182.31 105.94 182.25 C 106.99 182.19 107.79 181.29 107.73 180.24 L 107.67 179.24 C 107.61 178.19 106.71 177.39 105.66 177.45 C 104.61 177.51 103.81 178.41 103.88 179.45 Z M 103.93 180.47 L 103.99 181.47 C 104.05 182.52 104.95 183.32 106.00 183.26 C 107.05 183.19 107.85 182.30 107.78 181.25 L 107.73 180.24 C 107.66 179.20 106.77 178.40 105.72 178.46 C 104.67 178.52 103.87 179.42 103.93 180.47 Z M 103.99 181.47 L 104.05 182.47 C 104.12 183.52 105.02 184.32 106.06 184.26 C 107.11 184.19 107.91 183.29 107.84 182.25 L 107.78 181.25 C 107.72 180.20 106.82 179.40 105.77 179.46 C 104.73 179.53 103.93 180.43 103.99 181.47 Z M 104.05 182.48 L 104.11 183.47 C 104.18 184.52 105.08 185.31 106.13 185.25 C 107.17 185.18 107.97 184.28 107.91 183.24 L 107.84 182.24 C 107.78 181.20 106.88 180.40 105.83 180.46 C 104.78 180.53 103.99 181.43 104.05 182.48 Z M 104.11 183.47 L 104.18 184.46 C 104.24 185.50 105.15 186.30 106.19 186.23 C 107.24 186.16 108.04 185.26 107.97 184.21 L 107.91 183.23 C 107.84 182.18 106.94 181.39 105.89 181.46 C 104.84 181.52 104.05 182.43 104.11 183.47 Z M 104.18 184.46 L 104.24 185.47 C 104.31 186.51 105.22 187.31 106.27 187.24 C 107.31 187.17 108.11 186.26 108.04 185.21 L 107.97 184.21 C 107.90 183.16 106.99 182.37 105.95 182.44 C 104.90 182.51 104.11 183.41 104.18 184.46 Z M 104.24 185.47 L 104.32 186.49 C 104.39 187.54 105.30 188.33 106.34 188.26 C 107.39 188.18 108.18 187.27 108.11 186.23 L 108.04 185.21 C 107.96 184.16 107.05 183.37 106.01 183.44 C 104.96 183.52 104.17 184.43 104.24 185.47 Z M 104.32 186.50 L 104.39 187.51 C 104.47 188.55 105.38 189.34 106.42 189.26 C 107.47 189.19 108.26 188.28 108.18 187.23 L 108.11 186.22 C 108.03 185.18 107.12 184.39 106.07 184.47 C 105.03 184.54 104.24 185.45 104.32 186.50 Z M 104.39 187.51 L 104.47 188.51 C 104.55 189.55 105.46 190.34 106.51 190.26 C 107.55 190.18 108.34 189.26 108.26 188.22 L 108.18 187.22 C 108.10 186.18 107.19 185.39 106.14 185.47 C 105.09 185.55 104.31 186.47 104.39 187.51 Z M 104.47 188.51 L 104.54 189.50 C 104.63 190.54 105.54 191.32 106.59 191.24 C 107.63 191.16 108.42 190.24 108.33 189.20 L 108.26 188.21 C 108.17 187.17 107.26 186.38 106.21 186.47 C 105.17 186.55 104.38 187.46 104.47 188.51 Z M 104.55 189.50 L 104.62 190.48 C 104.71 191.52 105.63 192.30 106.67 192.22 C 107.72 192.13 108.50 191.21 108.41 190.17 L 108.33 189.19 C 108.25 188.15 107.33 187.37 106.28 187.45 C 105.24 187.54 104.46 188.45 104.55 189.50 Z M 104.63 190.48 L 104.71 191.45 C 104.79 192.50 105.71 193.28 106.76 193.19 C 107.80 193.10 108.58 192.18 108.49 191.14 L 108.41 190.16 C 108.32 189.12 107.41 188.34 106.36 188.43 C 105.31 188.52 104.54 189.43 104.63 190.48 Z M 104.71 191.46 L 104.79 192.43 C 104.88 193.48 105.80 194.25 106.84 194.16 C 107.89 194.07 108.66 193.15 108.57 192.11 L 108.49 191.13 C 108.40 190.09 107.48 189.31 106.44 189.40 C 105.39 189.49 104.62 190.41 104.71 191.46 Z M 104.79 192.44 L 104.88 193.41 C 104.97 194.46 105.89 195.23 106.93 195.14 C 107.98 195.05 108.75 194.13 108.66 193.09 L 108.57 192.11 C 108.48 191.06 107.56 190.29 106.52 190.38 C 105.47 190.47 104.70 191.39 104.79 192.44 Z M 104.88 193.42 L 104.97 194.40 C 105.06 195.45 105.98 196.22 107.02 196.13 C 108.07 196.03 108.84 195.11 108.74 194.07 L 108.66 193.08 C 108.57 192.04 107.64 191.27 106.60 191.36 C 105.56 191.45 104.79 192.37 104.88 193.42 Z M 104.97 194.40 L 105.06 195.40 C 105.15 196.45 106.07 197.22 107.11 197.12 C 108.16 197.03 108.93 196.11 108.83 195.07 L 108.74 194.07 C 108.65 193.02 107.73 192.25 106.69 192.35 C 105.64 192.44 104.87 193.36 104.97 194.40 Z M 105.06 195.40 L 105.15 196.42 C 105.24 197.46 106.16 198.23 107.20 198.14 C 108.25 198.05 109.02 197.12 108.92 196.08 L 108.83 195.07 C 108.74 194.02 107.82 193.25 106.77 193.35 C 105.73 193.44 104.96 194.36 105.06 195.40 Z M 105.15 196.42 L 105.24 197.44 C 105.33 198.49 106.25 199.25 107.30 199.16 C 108.34 199.07 109.11 198.15 109.01 197.11 L 108.92 196.08 C 108.83 195.04 107.91 194.27 106.87 194.37 C 105.82 194.46 105.06 195.38 105.15 196.42 Z M 105.24 197.44 L 105.33 198.43 C 105.42 199.47 106.34 200.24 107.38 200.15 C 108.43 200.05 109.19 199.13 109.10 198.09 L 109.01 197.11 C 108.92 196.06 108.00 195.30 106.96 195.39 C 105.92 195.48 105.15 196.40 105.24 197.44 Z M 105.33 198.43 L 105.42 199.44 C 105.52 200.48 106.44 201.24 107.48 201.15 C 108.52 201.05 109.28 200.14 109.19 199.10 L 109.10 198.09 C 109.00 197.05 108.09 196.29 107.05 196.38 C 106.01 196.47 105.24 197.39 105.33 198.43 Z M 105.42 199.44 L 105.52 200.45 C 105.61 201.48 106.53 202.25 107.57 202.16 C 108.61 202.06 109.37 201.14 109.28 200.10 L 109.19 199.09 C 109.09 198.06 108.17 197.29 107.14 197.38 C 106.10 197.48 105.33 198.40 105.42 199.44 Z M 105.52 200.45 L 105.61 201.46 C 105.71 202.49 106.62 203.26 107.66 203.16 C 108.70 203.07 109.46 202.15 109.37 201.11 L 109.28 200.10 C 109.18 199.06 108.26 198.30 107.23 198.40 C 106.19 198.49 105.42 199.41 105.52 200.45 Z M 105.61 201.46 L 105.71 202.46 C 105.80 203.49 106.72 204.26 107.76 204.16 C 108.79 204.06 109.56 203.14 109.46 202.11 L 109.37 201.11 C 109.27 200.07 108.35 199.31 107.32 199.41 C 106.28 199.50 105.52 200.42 105.61 201.46 Z M 105.71 202.46 L 105.80 203.44 C 105.90 204.48 106.82 205.24 107.85 205.14 C 108.89 205.04 109.65 204.12 109.55 203.09 L 109.46 202.10 C 109.36 201.07 108.44 200.31 107.41 200.41 C 106.37 200.50 105.61 201.42 105.71 202.46 Z M 105.80 203.45 L 105.90 204.48 C 106.00 205.51 106.92 206.27 107.96 206.17 C 108.99 206.07 109.75 205.15 109.65 204.11 L 109.55 203.08 C 109.45 202.05 108.53 201.29 107.49 201.39 C 106.46 201.49 105.70 202.41 105.80 203.45 Z M 105.90 204.48 L 106.01 205.52 C 106.11 206.55 107.03 207.31 108.07 207.20 C 109.10 207.10 109.85 206.18 109.75 205.15 L 109.65 204.11 C 109.54 203.07 108.62 202.32 107.59 202.42 C 106.56 202.53 105.80 203.45 105.90 204.48 Z M 106.01 205.53 L 106.11 206.54 C 106.22 207.57 107.14 208.32 108.18 208.21 C 109.21 208.11 109.96 207.18 109.85 206.15 L 109.75 205.14 C 109.64 204.11 108.72 203.36 107.69 203.46 C 106.65 203.57 105.90 204.49 106.01 205.53 Z M 106.12 206.54 L 106.22 207.53 C 106.33 208.56 107.26 209.31 108.29 209.20 C 109.32 209.09 110.07 208.16 109.96 207.13 L 109.85 206.15 C 109.74 205.12 108.82 204.37 107.78 204.48 C 106.75 204.59 106.01 205.51 106.12 206.54 Z M 106.22 207.54 L 106.33 208.50 C 106.45 209.53 107.37 210.27 108.40 210.16 C 109.43 210.04 110.17 209.12 110.06 208.09 L 109.95 207.12 C 109.84 206.10 108.91 205.35 107.88 205.47 C 106.85 205.58 106.11 206.51 106.22 207.54 Z M 106.33 208.51 L 106.44 209.45 C 106.56 210.48 107.49 211.22 108.52 211.10 C 109.55 210.98 110.28 210.05 110.17 209.02 L 110.06 208.08 C 109.94 207.05 109.01 206.31 107.98 206.43 C 106.95 206.55 106.22 207.48 106.33 208.51 Z M 106.45 209.46 L 106.57 210.47 C 106.69 211.50 107.62 212.23 108.65 212.11 C 109.67 211.98 110.41 211.05 110.28 210.03 L 110.16 209.02 C 110.04 207.99 109.11 207.26 108.08 207.38 C 107.06 207.50 106.32 208.43 106.45 209.46 Z M 106.57 210.48 L 106.70 211.50 C 106.83 212.53 107.76 213.25 108.78 213.12 C 109.81 213.00 110.54 212.06 110.41 211.04 L 110.28 210.02 C 110.15 208.99 109.22 208.26 108.19 208.39 C 107.17 208.52 106.44 209.45 106.57 210.48 Z M 106.70 211.51 L 106.83 212.51 C 106.96 213.54 107.90 214.26 108.92 214.12 C 109.95 213.99 110.67 213.05 110.53 212.03 L 110.40 211.03 C 110.27 210.01 109.33 209.28 108.31 209.42 C 107.29 209.55 106.57 210.49 106.70 211.51 Z M 106.84 212.52 L 106.97 213.50 C 107.11 214.52 108.05 215.24 109.07 215.10 C 110.09 214.96 110.80 214.02 110.66 213.00 L 110.53 212.02 C 110.39 211.00 109.45 210.28 108.43 210.42 C 107.41 210.56 106.70 211.50 106.84 212.52 Z M 106.97 213.51 L 107.11 214.47 C 107.25 215.49 108.20 216.20 109.22 216.05 C 110.23 215.91 110.94 214.96 110.80 213.94 L 110.66 212.99 C 110.52 211.97 109.57 211.26 108.55 211.41 C 107.54 211.55 106.83 212.50 106.97 213.51 Z M 107.11 214.48 L 107.26 215.46 C 107.41 216.48 108.36 217.18 109.38 217.03 C 110.39 216.88 111.09 215.93 110.94 214.91 L 110.79 213.93 C 110.64 212.92 109.69 212.21 108.68 212.37 C 107.66 212.52 106.96 213.47 107.11 214.48 Z M 107.27 215.48 L 107.42 216.49 C 107.58 217.51 108.53 218.20 109.55 218.04 C 110.56 217.88 111.25 216.93 111.10 215.92 L 110.94 214.90 C 110.78 213.89 109.83 213.20 108.81 213.35 C 107.80 213.51 107.11 214.46 107.27 215.48 Z M 107.43 216.51 L 107.59 217.50 C 107.76 218.51 108.72 219.19 109.73 219.03 C 110.74 218.86 111.42 217.90 111.25 216.89 L 111.09 215.90 C 110.92 214.89 109.97 214.21 108.96 214.38 C 107.95 214.54 107.26 215.50 107.43 216.51 Z M 107.60 217.51 L 107.77 218.48 C 107.94 219.49 108.90 220.17 109.91 219.99 C 110.92 219.82 111.59 218.86 111.42 217.85 L 111.25 216.88 C 111.07 215.87 110.11 215.20 109.11 215.37 C 108.10 215.55 107.42 216.51 107.60 217.51 Z M 107.77 218.50 L 107.95 219.45 C 108.13 220.46 109.10 221.12 110.10 220.94 C 111.11 220.76 111.77 219.79 111.59 218.79 L 111.41 217.83 C 111.23 216.83 110.26 216.16 109.26 216.35 C 108.25 216.53 107.59 217.50 107.77 218.50 Z M 107.95 219.47 L 108.14 220.45 C 108.34 221.46 109.31 222.11 110.31 221.92 C 111.31 221.72 111.97 220.76 111.77 219.75 L 111.58 218.77 C 111.39 217.77 110.42 217.11 109.42 217.31 C 108.42 217.50 107.76 218.47 107.95 219.47 Z M 108.15 220.47 L 108.35 221.46 C 108.55 222.45 109.53 223.10 110.52 222.90 C 111.52 222.69 112.17 221.72 111.97 220.72 L 111.77 219.74 C 111.56 218.74 110.59 218.09 109.59 218.30 C 108.59 218.50 107.95 219.47 108.15 220.47 Z M 108.36 221.47 L 108.56 222.45 C 108.77 223.44 109.75 224.08 110.74 223.87 C 111.74 223.66 112.37 222.68 112.16 221.69 L 111.96 220.71 C 111.75 219.72 110.77 219.08 109.78 219.29 C 108.78 219.50 108.15 220.47 108.36 221.47 Z M 108.57 222.46 L 108.78 223.43 C 109.00 224.42 109.98 225.05 110.97 224.83 C 111.96 224.61 112.59 223.64 112.37 222.64 L 112.16 221.67 C 111.94 220.68 110.96 220.05 109.97 220.27 C 108.98 220.49 108.35 221.47 108.57 222.46 Z M 108.79 223.44 L 109.00 224.40 C 109.22 225.39 110.20 226.01 111.19 225.79 C 112.18 225.57 112.80 224.59 112.58 223.60 L 112.36 222.63 C 112.14 221.65 111.16 221.02 110.17 221.25 C 109.19 221.47 108.56 222.45 108.79 223.44 Z M 109.01 224.41 L 109.23 225.37 C 109.45 226.35 110.44 226.97 111.42 226.74 C 112.41 226.52 113.02 225.54 112.79 224.55 L 112.57 223.59 C 112.35 222.61 111.37 221.99 110.38 222.22 C 109.40 222.44 108.78 223.42 109.01 224.41 Z M 109.24 225.38 L 109.46 226.34 C 109.69 227.32 110.67 227.93 111.65 227.70 C 112.63 227.47 113.24 226.49 113.01 225.51 L 112.79 224.54 C 112.56 223.56 111.58 222.95 110.60 223.18 C 109.62 223.41 109.01 224.39 109.24 225.38 Z M 109.47 226.35 L 109.70 227.32 C 109.93 228.30 110.91 228.90 111.89 228.67 C 112.87 228.44 113.47 227.46 113.24 226.48 L 113.01 225.51 C 112.77 224.53 111.79 223.92 110.82 224.16 C 109.84 224.39 109.24 225.37 109.47 226.35 Z M 109.71 227.33 L 109.95 228.32 C 110.18 229.29 111.16 229.89 112.13 229.66 C 113.11 229.42 113.70 228.44 113.47 227.47 L 113.23 226.48 C 113.00 225.50 112.02 224.90 111.05 225.14 C 110.07 225.37 109.47 226.35 109.71 227.33 Z M 109.95 228.32 L 110.19 229.32 C 110.43 230.29 111.41 230.88 112.38 230.65 C 113.35 230.41 113.94 229.43 113.71 228.46 L 113.46 227.47 C 113.23 226.50 112.25 225.90 111.28 226.14 C 110.31 226.37 109.72 227.35 109.95 228.32 Z M 110.20 229.32 L 110.45 230.32 C 110.69 231.29 111.66 231.88 112.63 231.64 C 113.60 231.40 114.19 230.42 113.95 229.46 L 113.70 228.46 C 113.46 227.49 112.48 226.90 111.52 227.14 C 110.55 227.38 109.96 228.36 110.20 229.32 Z M 110.46 230.33 L 110.71 231.32 C 110.95 232.28 111.93 232.86 112.89 232.61 C 113.86 232.37 114.44 231.39 114.19 230.43 L 113.94 229.44 C 113.69 228.48 112.71 227.90 111.75 228.15 C 110.79 228.39 110.21 229.37 110.46 230.33 Z M 110.72 231.34 L 110.97 232.28 C 111.23 233.24 112.21 233.80 113.17 233.55 C 114.12 233.29 114.69 232.31 114.43 231.35 L 114.18 230.41 C 113.92 229.45 112.94 228.88 111.98 229.14 C 111.03 229.40 110.46 230.38 110.72 231.34 Z M 110.99 232.31 L 111.26 233.28 C 111.54 234.22 112.53 234.77 113.48 234.50 C 114.42 234.22 114.97 233.23 114.70 232.29 L 114.42 231.32 C 114.14 230.37 113.15 229.83 112.21 230.10 C 111.26 230.37 110.71 231.36 110.99 232.31 Z M 111.28 233.32 L 111.61 234.33 C 111.90 235.27 112.90 235.79 113.84 235.49 C 114.78 235.19 115.30 234.19 115.00 233.26 L 114.68 232.24 C 114.38 231.31 113.38 230.79 112.44 231.09 C 111.51 231.38 110.99 232.38 111.28 233.32 Z M 111.63 234.38 L 111.96 235.31 C 112.28 236.23 113.29 236.72 114.22 236.40 C 115.14 236.07 115.63 235.06 115.30 234.14 L 114.97 233.21 C 114.65 232.28 113.64 231.80 112.72 232.12 C 111.79 232.45 111.31 233.46 111.63 234.38 Z M 111.98 235.36 L 112.32 236.23 C 112.67 237.14 113.69 237.59 114.60 237.24 C 115.51 236.89 115.96 235.86 115.61 234.95 L 115.28 234.09 C 114.92 233.18 113.90 232.73 112.99 233.08 C 112.08 233.43 111.63 234.45 111.98 235.36 Z M 112.34 236.28 L 112.74 237.21 C 113.12 238.11 114.15 238.52 115.04 238.15 C 115.94 237.77 116.36 236.74 115.98 235.84 L 115.58 234.90 C 115.20 234.01 114.17 233.59 113.28 233.97 C 112.38 234.35 111.97 235.38 112.34 236.28 Z M 112.77 237.26 L 113.20 238.18 C 113.61 239.06 114.65 239.44 115.52 239.03 C 116.40 238.63 116.78 237.59 116.37 236.71 L 115.95 235.79 C 115.54 234.91 114.50 234.53 113.62 234.94 C 112.75 235.35 112.37 236.39 112.77 237.26 Z M 113.24 238.24 L 113.67 239.10 C 114.11 239.95 115.16 240.29 116.01 239.86 C 116.87 239.42 117.21 238.37 116.77 237.52 L 116.34 236.66 C 115.90 235.80 114.85 235.46 114.00 235.90 C 113.14 236.33 112.80 237.38 113.24 238.24 Z M 113.72 239.15 L 114.22 240.04 C 114.69 240.88 115.74 241.17 116.57 240.70 C 117.41 240.23 117.70 239.18 117.23 238.35 L 116.73 237.46 C 116.26 236.62 115.21 236.33 114.38 236.80 C 113.54 237.27 113.25 238.32 113.72 239.15 Z M 114.27 240.11 L 114.80 240.96 C 115.30 241.76 116.36 242.01 117.17 241.50 C 117.97 241.00 118.22 239.94 117.71 239.13 L 117.18 238.28 C 116.68 237.48 115.62 237.23 114.81 237.74 C 114.01 238.24 113.76 239.30 114.27 240.11 Z M 114.85 241.02 L 115.40 241.81 C 115.94 242.59 117.01 242.78 117.78 242.24 C 118.56 241.70 118.75 240.64 118.21 239.86 L 117.66 239.07 C 117.12 238.29 116.06 238.10 115.28 238.64 C 114.50 239.18 114.31 240.24 114.85 241.02 Z M 115.46 241.87 L 116.08 242.68 C 116.65 243.43 117.72 243.57 118.47 243.00 C 119.21 242.42 119.35 241.35 118.78 240.61 L 118.16 239.80 C 117.58 239.05 116.51 238.91 115.77 239.49 C 115.02 240.06 114.88 241.13 115.46 241.87 Z M 116.13 242.74 L 116.76 243.49 C 117.37 244.21 118.44 244.30 119.15 243.69 C 119.87 243.09 119.96 242.02 119.36 241.30 L 118.73 240.55 C 118.12 239.84 117.05 239.74 116.34 240.35 C 115.62 240.95 115.53 242.02 116.13 242.74 Z M 116.81 243.53 L 117.47 244.27 C 118.10 244.96 119.17 245.01 119.86 244.38 C 120.56 243.76 120.61 242.69 119.98 241.99 L 119.31 241.26 C 118.69 240.57 117.62 240.52 116.92 241.14 C 116.23 241.77 116.18 242.84 116.81 243.53 Z M 117.52 244.31 L 118.22 245.02 C 118.87 245.69 119.94 245.70 120.60 245.04 C 121.27 244.39 121.28 243.33 120.63 242.66 L 119.93 241.95 C 119.28 241.29 118.21 241.28 117.55 241.93 C 116.88 242.58 116.87 243.65 117.52 244.31 Z M 118.27 245.06 L 119.01 245.75 C 119.68 246.39 120.74 246.36 121.38 245.69 C 122.01 245.01 121.98 243.95 121.31 243.31 L 120.58 242.62 C 119.90 241.98 118.84 242.02 118.20 242.69 C 117.57 243.36 117.60 244.43 118.27 245.06 Z M 119.05 245.79 L 119.81 246.45 C 120.50 247.06 121.56 247.00 122.17 246.30 C 122.78 245.61 122.71 244.56 122.02 243.95 L 121.26 243.28 C 120.57 242.67 119.51 242.74 118.90 243.43 C 118.29 244.12 118.36 245.18 119.05 245.79 Z M 119.86 246.48 L 120.64 247.12 C 121.35 247.71 122.39 247.61 122.98 246.90 C 123.56 246.19 123.46 245.14 122.75 244.56 L 121.97 243.92 C 121.26 243.33 120.21 243.44 119.63 244.14 C 119.05 244.85 119.15 245.90 119.86 246.48 Z M 120.70 247.16 L 121.50 247.76 C 122.23 248.31 123.27 248.16 123.82 247.43 C 124.36 246.70 124.22 245.66 123.48 245.12 L 122.68 244.52 C 121.95 243.97 120.92 244.12 120.37 244.85 C 119.82 245.58 119.97 246.62 120.70 247.16 Z M 121.59 247.82 L 122.41 248.35 C 123.17 248.85 124.19 248.63 124.69 247.87 C 125.19 247.11 124.97 246.09 124.21 245.59 L 123.39 245.06 C 122.63 244.56 121.61 244.78 121.11 245.54 C 120.62 246.30 120.83 247.32 121.59 247.82 Z M 122.51 248.40 L 123.38 248.89 C 124.17 249.33 125.17 249.05 125.61 248.26 C 126.05 247.47 125.77 246.47 124.98 246.03 L 124.11 245.54 C 123.32 245.10 122.32 245.38 121.88 246.17 C 121.44 246.96 121.72 247.96 122.51 248.40 Z M 123.45 248.92 L 124.35 249.37 C 125.15 249.77 126.13 249.44 126.54 248.64 C 126.94 247.83 126.61 246.85 125.81 246.45 L 124.91 246.00 C 124.10 245.60 123.12 245.92 122.72 246.73 C 122.32 247.54 122.64 248.52 123.45 248.92 Z M 124.42 249.40 L 125.34 249.80 C 126.16 250.16 127.12 249.79 127.48 248.96 C 127.84 248.14 127.47 247.18 126.65 246.82 L 125.73 246.42 C 124.91 246.06 123.95 246.43 123.59 247.25 C 123.22 248.07 123.60 249.03 124.42 249.40 Z M 125.46 249.84 L 126.40 250.17 C 127.25 250.46 128.18 250.02 128.47 249.17 C 128.76 248.32 128.32 247.40 127.47 247.11 L 126.52 246.78 C 125.68 246.48 124.75 246.93 124.46 247.78 C 124.17 248.62 124.61 249.55 125.46 249.84 Z M 126.54 250.21 L 127.51 250.45 C 128.38 250.67 129.26 250.14 129.47 249.28 C 129.69 248.41 129.17 247.53 128.30 247.31 L 127.33 247.07 C 126.47 246.85 125.59 247.38 125.37 248.24 C 125.15 249.11 125.68 249.99 126.54 250.21 Z M 127.62 250.47 L 128.60 250.65 C 129.48 250.80 130.31 250.22 130.47 249.34 C 130.63 248.46 130.04 247.62 129.17 247.47 L 128.19 247.29 C 127.31 247.14 126.47 247.72 126.32 248.60 C 126.16 249.47 126.74 250.31 127.62 250.47 Z M 128.69 250.66 L 129.67 250.78 C 130.55 250.88 131.36 250.25 131.46 249.37 C 131.57 248.48 130.94 247.68 130.05 247.57 L 129.07 247.46 C 128.19 247.35 127.39 247.98 127.28 248.86 C 127.17 249.75 127.81 250.55 128.69 250.66 Z M 129.76 250.78 L 130.77 250.85 C 131.66 250.91 132.43 250.23 132.49 249.35 C 132.54 248.46 131.87 247.69 130.98 247.63 L 129.97 247.57 C 129.08 247.51 128.31 248.18 128.25 249.07 C 128.20 249.96 128.87 250.72 129.76 250.78 Z M 130.85 250.85 L 131.84 250.87 C 132.73 250.89 133.47 250.18 133.48 249.29 C 133.50 248.40 132.79 247.66 131.90 247.65 L 130.91 247.63 C 130.02 247.61 129.28 248.32 129.27 249.21 C 129.25 250.10 129.96 250.84 130.85 250.85 Z M 131.91 250.87 L 132.92 250.85 C 133.81 250.83 134.52 250.09 134.49 249.20 C 134.47 248.31 133.74 247.60 132.85 247.62 L 131.83 247.65 C 130.94 247.67 130.24 248.41 130.26 249.30 C 130.28 250.19 131.02 250.89 131.91 250.87 Z M 132.99 250.84 L 133.98 250.78 C 134.87 250.71 135.54 249.94 135.48 249.06 C 135.41 248.17 134.64 247.50 133.76 247.56 L 132.77 247.63 C 131.88 247.69 131.21 248.46 131.28 249.35 C 131.34 250.24 132.11 250.91 132.99 250.84 Z M 134.10 250.76 L 135.09 250.62 C 135.97 250.49 136.58 249.67 136.45 248.78 C 136.32 247.90 135.50 247.30 134.61 247.43 L 133.63 247.57 C 132.75 247.70 132.14 248.52 132.27 249.40 C 132.40 250.29 133.22 250.89 134.10 250.76 Z M 135.25 250.58 L 136.21 250.34 C 137.08 250.11 137.59 249.23 137.37 248.37 C 137.15 247.51 136.27 246.99 135.41 247.21 L 134.45 247.46 C 133.59 247.68 133.07 248.56 133.29 249.42 C 133.51 250.29 134.39 250.81 135.25 250.58 Z M 136.35 250.29 L 137.28 249.96 C 138.12 249.66 138.55 248.74 138.25 247.90 C 137.95 247.06 137.03 246.62 136.19 246.92 L 135.27 247.25 C 134.43 247.55 133.99 248.48 134.29 249.32 C 134.59 250.16 135.51 250.60 136.35 250.29 Z M 137.37 249.93 L 138.31 249.53 C 139.14 249.18 139.52 248.23 139.17 247.41 C 138.82 246.59 137.87 246.20 137.05 246.55 L 136.10 246.96 C 135.28 247.31 134.90 248.25 135.25 249.08 C 135.60 249.90 136.54 250.28 137.37 249.93 Z M 138.37 249.51 L 139.28 249.08 C 140.09 248.70 140.44 247.74 140.06 246.93 C 139.68 246.12 138.71 245.77 137.90 246.15 L 137.00 246.57 C 136.19 246.95 135.84 247.92 136.22 248.73 C 136.59 249.54 137.56 249.89 138.37 249.51 Z M 139.32 249.07 L 140.21 248.62 C 141.01 248.22 141.33 247.25 140.94 246.45 C 140.54 245.64 139.56 245.32 138.76 245.72 L 137.87 246.16 C 137.06 246.56 136.74 247.54 137.14 248.34 C 137.54 249.14 138.51 249.47 139.32 249.07 Z M 140.24 248.61 L 141.13 248.14 C 141.93 247.72 142.24 246.74 141.82 245.95 C 141.40 245.15 140.42 244.84 139.62 245.26 L 138.73 245.73 C 137.93 246.15 137.62 247.13 138.04 247.93 C 138.46 248.72 139.44 249.03 140.24 248.61 Z M 141.16 248.13 L 142.04 247.65 C 142.83 247.22 143.12 246.23 142.69 245.44 C 142.26 244.65 141.27 244.36 140.48 244.79 L 139.60 245.27 C 138.81 245.70 138.52 246.69 138.95 247.48 C 139.38 248.27 140.37 248.56 141.16 248.13 Z M 142.07 247.64 L 142.94 247.14 C 143.73 246.69 144.00 245.70 143.55 244.91 C 143.10 244.13 142.11 243.85 141.32 244.30 L 140.45 244.80 C 139.67 245.25 139.39 246.24 139.84 247.03 C 140.29 247.81 141.29 248.09 142.07 247.64 Z M 142.97 247.13 L 143.83 246.61 C 144.61 246.15 144.86 245.14 144.39 244.37 C 143.93 243.59 142.92 243.34 142.15 243.80 L 141.29 244.32 C 140.51 244.78 140.26 245.79 140.73 246.56 C 141.19 247.34 142.20 247.59 142.97 247.13 Z M 143.87 246.60 L 144.71 246.06 C 145.47 245.58 145.70 244.56 145.21 243.80 C 144.73 243.03 143.71 242.80 142.95 243.29 L 142.11 243.82 C 141.34 244.31 141.12 245.32 141.60 246.09 C 142.09 246.85 143.10 247.08 143.87 246.60 Z M 144.74 246.05 L 145.56 245.50 C 146.32 244.99 146.52 243.97 146.02 243.21 C 145.51 242.46 144.49 242.25 143.73 242.76 L 142.91 243.31 C 142.15 243.81 141.95 244.84 142.46 245.59 C 142.96 246.35 143.98 246.55 144.74 246.05 Z M 145.59 245.48 L 146.42 244.91 C 147.17 244.39 147.35 243.36 146.83 242.61 C 146.31 241.86 145.28 241.68 144.53 242.20 L 143.71 242.77 C 142.96 243.29 142.77 244.32 143.29 245.07 C 143.81 245.82 144.84 246.01 145.59 245.48 Z M 146.44 244.90 L 147.27 244.31 C 148.01 243.78 148.18 242.74 147.65 242.00 C 147.12 241.25 146.08 241.08 145.34 241.61 L 144.51 242.20 C 143.76 242.74 143.59 243.77 144.12 244.52 C 144.66 245.26 145.69 245.44 146.44 244.90 Z M 147.28 244.31 L 148.11 243.71 C 148.85 243.16 149.01 242.12 148.47 241.38 C 147.93 240.64 146.88 240.47 146.14 241.02 L 145.32 241.62 C 144.57 242.16 144.41 243.20 144.96 243.95 C 145.50 244.69 146.54 244.85 147.28 244.31 Z M 148.13 243.70 L 148.93 243.10 C 149.67 242.54 149.82 241.49 149.26 240.76 C 148.71 240.02 147.66 239.87 146.92 240.42 L 146.12 241.02 C 145.38 241.58 145.23 242.63 145.78 243.37 C 146.34 244.11 147.39 244.26 148.13 243.70 Z M 148.96 243.09 L 149.75 242.47 C 150.48 241.90 150.61 240.84 150.04 240.11 C 149.47 239.38 148.41 239.25 147.68 239.82 L 146.89 240.44 C 146.16 241.01 146.03 242.06 146.60 242.80 C 147.17 243.53 148.23 243.66 148.96 243.09 Z M 149.78 242.45 L 150.57 241.81 C 151.29 241.22 151.39 240.15 150.80 239.43 C 150.21 238.71 149.15 238.60 148.43 239.20 L 147.64 239.84 C 146.92 240.43 146.81 241.49 147.41 242.22 C 148.00 242.94 149.06 243.04 149.78 242.45 Z M 150.60 241.79 L 151.34 241.15 C 152.05 240.54 152.13 239.47 151.52 238.76 C 150.91 238.05 149.84 237.97 149.13 238.58 L 148.39 239.22 C 147.68 239.83 147.60 240.90 148.21 241.61 C 148.82 242.32 149.89 242.40 150.60 241.79 Z M 151.37 241.14 L 152.10 240.49 C 152.80 239.86 152.86 238.78 152.23 238.08 C 151.60 237.38 150.53 237.32 149.83 237.95 L 149.10 238.60 C 148.40 239.23 148.34 240.30 148.97 241.00 C 149.59 241.70 150.67 241.76 151.37 241.14 Z M 152.13 240.47 L 152.86 239.79 C 153.55 239.14 153.58 238.06 152.94 237.37 C 152.29 236.68 151.21 236.64 150.52 237.29 L 149.79 237.97 C 149.10 238.62 149.07 239.70 149.71 240.39 C 150.36 241.08 151.44 241.11 152.13 240.47 Z M 152.90 239.76 L 153.62 239.04 C 154.29 238.37 154.29 237.28 153.62 236.61 C 152.95 235.94 151.87 235.93 151.19 236.60 L 150.47 237.32 C 149.80 237.99 149.80 239.08 150.47 239.75 C 151.14 240.43 152.23 240.43 152.90 239.76 Z M 153.67 239.00 L 154.34 238.29 C 154.99 237.59 154.95 236.50 154.25 235.84 C 153.56 235.19 152.46 235.23 151.81 235.93 L 151.14 236.64 C 150.49 237.34 150.53 238.43 151.23 239.09 C 151.92 239.74 153.02 239.70 153.67 239.00 Z M 154.39 238.25 L 155.04 237.50 C 155.67 236.77 155.59 235.67 154.87 235.04 C 154.14 234.41 153.04 234.49 152.41 235.22 L 151.76 235.97 C 151.13 236.69 151.21 237.79 151.93 238.42 C 152.66 239.05 153.76 238.98 154.39 238.25 Z M 155.09 237.45 L 155.73 236.65 C 156.34 235.90 156.22 234.80 155.47 234.19 C 154.71 233.58 153.61 233.70 153.00 234.46 L 152.36 235.26 C 151.75 236.01 151.87 237.12 152.63 237.72 C 153.38 238.33 154.48 238.21 155.09 237.45 Z M 155.78 236.61 L 156.36 235.83 C 156.94 235.05 156.79 233.95 156.01 233.37 C 155.23 232.78 154.12 232.94 153.54 233.72 L 152.96 234.50 C 152.37 235.28 152.53 236.38 153.31 236.97 C 154.09 237.55 155.20 237.39 155.78 236.61 Z M 156.40 235.80 L 156.97 234.99 C 157.53 234.19 157.34 233.08 156.55 232.52 C 155.75 231.96 154.64 232.15 154.08 232.94 L 153.50 233.76 C 152.94 234.55 153.13 235.66 153.93 236.22 C 154.73 236.79 155.83 236.60 156.40 235.80 Z M 156.99 234.96 L 157.57 234.12 C 158.12 233.30 157.91 232.20 157.10 231.65 C 156.28 231.10 155.18 231.31 154.63 232.12 L 154.05 232.97 C 153.50 233.78 153.71 234.89 154.53 235.44 C 155.34 235.99 156.44 235.78 156.99 234.96 Z M 157.59 234.10 L 158.13 233.28 C 158.67 232.46 158.44 231.35 157.62 230.81 C 156.80 230.27 155.69 230.49 155.15 231.32 L 154.61 232.14 C 154.06 232.96 154.29 234.07 155.11 234.61 C 155.94 235.15 157.04 234.93 157.59 234.10 Z M 158.15 233.27 L 158.67 232.45 C 159.21 231.62 158.97 230.51 158.13 229.98 C 157.30 229.44 156.19 229.68 155.66 230.51 L 155.13 231.33 C 154.60 232.16 154.84 233.27 155.67 233.81 C 156.50 234.34 157.61 234.10 158.15 233.27 Z M 158.69 232.44 L 159.23 231.58 C 159.75 230.74 159.49 229.63 158.65 229.10 C 157.81 228.57 156.70 228.83 156.17 229.68 L 155.64 230.53 C 155.11 231.37 155.37 232.49 156.21 233.01 C 157.06 233.54 158.17 233.28 158.69 232.44 Z M 159.25 231.56 L 159.79 230.66 C 160.30 229.80 160.03 228.69 159.17 228.17 C 158.32 227.66 157.21 227.94 156.69 228.79 L 156.15 229.70 C 155.63 230.55 155.91 231.66 156.77 232.18 C 157.62 232.69 158.73 232.41 159.25 231.56 Z M 159.81 230.63 L 160.30 229.78 C 160.81 228.92 160.51 227.81 159.64 227.30 C 158.78 226.80 157.67 227.10 157.16 227.96 L 156.67 228.81 C 156.17 229.68 156.46 230.79 157.33 231.30 C 158.20 231.80 159.31 231.50 159.81 230.63 Z M 160.32 229.77 L 160.82 228.89 C 161.31 228.01 161.00 226.90 160.12 226.41 C 159.24 225.91 158.13 226.22 157.64 227.10 L 157.14 227.98 C 156.65 228.86 156.96 229.97 157.84 230.46 C 158.72 230.96 159.83 230.64 160.32 229.77 Z M 160.83 228.88 L 161.32 227.99 C 161.81 227.10 161.48 225.99 160.60 225.50 C 159.71 225.02 158.60 225.34 158.11 226.23 L 157.62 227.11 C 157.14 228.00 157.46 229.11 158.35 229.60 C 159.23 230.09 160.35 229.76 160.83 228.88 Z M 161.33 227.98 L 161.81 227.10 C 162.29 226.21 161.95 225.09 161.06 224.61 C 160.17 224.13 159.05 224.46 158.57 225.36 L 158.10 226.24 C 157.62 227.13 157.95 228.24 158.84 228.73 C 159.74 229.21 160.85 228.87 161.33 227.98 Z M 161.82 227.09 L 162.30 226.19 C 162.77 225.29 162.43 224.17 161.53 223.69 C 160.63 223.22 159.51 223.56 159.04 224.46 L 158.56 225.37 C 158.08 226.27 158.43 227.38 159.33 227.86 C 160.23 228.33 161.34 227.99 161.82 227.09 Z M 162.31 226.18 L 162.77 225.29 C 163.24 224.38 162.89 223.27 161.98 222.80 C 161.08 222.32 159.96 222.68 159.49 223.58 L 159.03 224.47 C 158.56 225.38 158.91 226.49 159.81 226.96 C 160.72 227.43 161.84 227.08 162.31 226.18 Z M 162.78 225.28 L 163.23 224.40 C 163.69 223.49 163.33 222.37 162.42 221.91 C 161.51 221.44 160.40 221.80 159.93 222.71 L 159.48 223.59 C 159.01 224.50 159.38 225.62 160.29 226.08 C 161.20 226.55 162.31 226.19 162.78 225.28 Z M 163.24 224.39 L 163.68 223.51 C 164.14 222.59 163.77 221.48 162.86 221.02 C 161.94 220.56 160.82 220.92 160.36 221.84 L 159.92 222.72 C 159.46 223.64 159.83 224.75 160.74 225.22 C 161.66 225.68 162.78 225.31 163.24 224.39 Z M 163.69 223.50 L 164.13 222.61 C 164.59 221.69 164.21 220.57 163.29 220.12 C 162.37 219.66 161.25 220.04 160.80 220.96 L 160.35 221.85 C 159.90 222.77 160.27 223.89 161.20 224.34 C 162.12 224.80 163.23 224.42 163.69 223.50 Z M 164.14 222.60 L 164.58 221.70 C 165.03 220.78 164.65 219.66 163.73 219.21 C 162.80 218.76 161.68 219.14 161.23 220.06 L 160.79 220.96 C 160.34 221.89 160.72 223.00 161.64 223.46 C 162.57 223.91 163.69 223.53 164.14 222.60 Z M 164.58 221.70 L 165.02 220.80 C 165.47 219.87 165.09 218.75 164.16 218.30 C 163.23 217.85 162.11 218.24 161.66 219.17 L 161.23 220.07 C 160.78 221.00 161.16 222.11 162.09 222.56 C 163.02 223.01 164.13 222.63 164.58 221.70 Z M 165.03 220.80 L 165.46 219.89 C 165.91 218.96 165.52 217.84 164.59 217.40 C 163.66 216.95 162.55 217.34 162.10 218.27 L 161.66 219.17 C 161.21 220.10 161.60 221.22 162.53 221.67 C 163.46 222.11 164.58 221.72 165.03 220.80 Z M 165.47 219.89 L 165.90 218.98 C 166.35 218.05 165.96 216.93 165.03 216.48 C 164.09 216.04 162.98 216.43 162.53 217.36 L 162.09 218.27 C 161.64 219.20 162.04 220.32 162.97 220.77 C 163.90 221.21 165.02 220.82 165.47 219.89 Z M 165.91 218.98 L 166.34 218.07 C 166.78 217.14 166.39 216.02 165.45 215.57 C 164.51 215.13 163.40 215.53 162.95 216.46 L 162.52 217.37 C 162.08 218.30 162.48 219.42 163.41 219.87 C 164.35 220.31 165.47 219.91 165.91 218.98 Z M 166.35 218.06 L 166.77 217.16 C 167.21 216.22 166.80 215.10 165.86 214.66 C 164.92 214.23 163.80 214.63 163.36 215.57 L 162.94 216.47 C 162.50 217.41 162.91 218.53 163.85 218.97 C 164.79 219.41 165.91 219.00 166.35 218.06 Z M 166.78 217.14 L 167.19 216.25 C 167.62 215.30 167.20 214.18 166.25 213.75 C 165.30 213.33 164.19 213.74 163.76 214.69 L 163.35 215.59 C 162.92 216.53 163.34 217.65 164.29 218.08 C 165.23 218.51 166.35 218.09 166.78 217.14 Z M 167.20 216.22 L 167.59 215.32 C 168.01 214.37 167.58 213.26 166.62 212.84 C 165.67 212.42 164.56 212.86 164.14 213.81 L 163.75 214.71 C 163.33 215.67 163.76 216.78 164.72 217.19 C 165.67 217.61 166.78 217.18 167.20 216.22 Z M 167.61 215.29 L 167.99 214.37 C 168.39 213.41 167.94 212.31 166.98 211.91 C 166.02 211.51 164.91 211.96 164.51 212.92 L 164.13 213.84 C 163.73 214.80 164.18 215.90 165.14 216.31 C 166.10 216.71 167.21 216.25 167.61 215.29 Z M 168.01 214.34 L 168.38 213.39 C 168.76 212.42 168.29 211.33 167.32 210.95 C 166.35 210.56 165.25 211.04 164.87 212.01 L 164.50 212.96 C 164.11 213.93 164.59 215.02 165.56 215.40 C 166.53 215.79 167.62 215.31 168.01 214.34 Z M 168.40 213.36 L 168.73 212.46 C 169.09 211.48 168.59 210.39 167.61 210.03 C 166.63 209.67 165.55 210.17 165.19 211.15 L 164.85 212.05 C 164.49 213.02 164.99 214.11 165.97 214.47 C 166.95 214.83 168.03 214.33 168.40 213.36 Z M 168.74 212.42 L 169.05 211.52 C 169.39 210.54 168.87 209.46 167.89 209.12 C 166.90 208.78 165.83 209.30 165.49 210.28 L 165.17 211.18 C 164.83 212.17 165.35 213.24 166.34 213.59 C 167.32 213.93 168.40 213.41 168.74 212.42 Z M 169.06 211.49 L 169.37 210.54 C 169.69 209.55 169.15 208.48 168.16 208.16 C 167.17 207.84 166.11 208.38 165.78 209.37 L 165.47 210.32 C 165.15 211.31 165.69 212.37 166.69 212.70 C 167.68 213.02 168.74 212.48 169.06 211.49 Z M 169.38 210.50 L 169.69 209.50 C 169.99 208.51 169.43 207.45 168.43 207.15 C 167.44 206.84 166.38 207.41 166.08 208.40 L 165.77 209.40 C 165.47 210.40 166.03 211.46 167.03 211.76 C 168.02 212.06 169.08 211.50 169.38 210.50 Z M 169.70 209.47 L 169.98 208.48 C 170.27 207.48 169.69 206.43 168.69 206.15 C 167.68 205.86 166.64 206.44 166.35 207.44 L 166.07 208.43 C 165.78 209.44 166.36 210.48 167.36 210.77 C 168.37 211.05 169.41 210.47 169.70 209.47 Z M 169.99 208.45 L 170.24 207.52 C 170.51 206.51 169.92 205.48 168.91 205.21 C 167.91 204.94 166.87 205.53 166.60 206.53 L 166.35 207.47 C 166.07 208.47 166.67 209.51 167.67 209.78 C 168.68 210.05 169.72 209.46 169.99 208.45 Z M 170.25 207.50 L 170.49 206.53 C 170.75 205.52 170.15 204.50 169.14 204.24 C 168.13 203.98 167.10 204.58 166.84 205.59 L 166.59 206.56 C 166.33 207.57 166.94 208.59 167.95 208.85 C 168.96 209.11 169.99 208.51 170.25 207.50 Z M 170.50 206.51 L 170.74 205.52 C 170.99 204.51 170.37 203.49 169.36 203.25 C 168.35 203.00 167.33 203.62 167.08 204.63 L 166.84 205.61 C 166.59 206.63 167.21 207.65 168.22 207.89 C 169.23 208.14 170.25 207.52 170.50 206.51 Z M 170.74 205.50 L 170.98 204.50 C 171.21 203.49 170.58 202.48 169.57 202.24 C 168.55 202.01 167.54 202.64 167.31 203.65 L 167.07 204.65 C 166.84 205.66 167.47 206.68 168.48 206.91 C 169.50 207.15 170.51 206.52 170.74 205.50 Z M 170.98 204.48 L 171.20 203.48 C 171.42 202.47 170.78 201.46 169.77 201.24 C 168.75 201.01 167.74 201.66 167.52 202.67 L 167.30 203.67 C 167.08 204.69 167.72 205.69 168.74 205.92 C 169.75 206.14 170.76 205.50 170.98 204.48 Z M 171.21 203.46 L 171.41 202.48 C 171.62 201.46 170.97 200.46 169.95 200.25 C 168.93 200.04 167.93 200.69 167.72 201.71 L 167.52 202.70 C 167.30 203.71 167.96 204.71 168.98 204.92 C 170.00 205.14 170.99 204.48 171.21 203.46 Z M 171.41 202.46 L 171.61 201.48 C 171.81 200.46 171.15 199.47 170.13 199.27 C 169.10 199.07 168.11 199.73 167.91 200.75 L 167.72 201.73 C 167.52 202.75 168.18 203.74 169.20 203.94 C 170.22 204.15 171.21 203.48 171.41 202.46 Z M 171.61 201.47 L 171.79 200.49 C 171.99 199.47 171.32 198.48 170.30 198.29 C 169.28 198.09 168.29 198.76 168.10 199.78 L 167.91 200.76 C 167.72 201.79 168.39 202.77 169.41 202.96 C 170.43 203.16 171.41 202.49 171.61 201.47 Z M 171.80 200.48 L 171.98 199.50 C 172.16 198.47 171.49 197.49 170.47 197.30 C 169.44 197.12 168.46 197.79 168.28 198.81 L 168.09 199.80 C 167.91 200.82 168.58 201.80 169.60 201.99 C 170.63 202.17 171.61 201.50 171.80 200.48 Z M 171.98 199.49 L 172.15 198.50 C 172.34 197.48 171.66 196.50 170.64 196.32 C 169.62 196.14 168.64 196.82 168.45 197.84 L 168.28 198.82 C 168.09 199.84 168.77 200.82 169.79 201.01 C 170.81 201.19 171.79 200.51 171.98 199.49 Z M 172.15 198.50 L 172.33 197.52 C 172.51 196.50 171.83 195.52 170.81 195.34 C 169.79 195.16 168.81 195.84 168.63 196.86 L 168.45 197.84 C 168.27 198.86 168.95 199.84 169.97 200.02 C 171.00 200.20 171.97 199.52 172.15 198.50 Z M 172.33 197.52 L 172.50 196.53 C 172.68 195.51 172.00 194.54 170.98 194.36 C 169.96 194.18 168.98 194.86 168.80 195.88 L 168.63 196.86 C 168.45 197.88 169.13 198.86 170.15 199.04 C 171.17 199.22 172.15 198.54 172.33 197.52 Z M 172.50 196.53 L 172.67 195.54 C 172.85 194.52 172.17 193.55 171.15 193.37 C 170.13 193.19 169.16 193.87 168.98 194.90 L 168.80 195.88 C 168.63 196.90 169.31 197.88 170.33 198.05 C 171.35 198.23 172.32 197.55 172.50 196.53 Z M 172.67 195.54 L 172.84 194.55 C 173.02 193.53 172.34 192.56 171.32 192.38 C 170.30 192.21 169.33 192.89 169.15 193.91 L 168.98 194.90 C 168.80 195.92 169.48 196.89 170.51 197.07 C 171.53 197.24 172.50 196.56 172.67 195.54 Z M 172.84 194.55 L 173.01 193.56 C 173.19 192.54 172.50 191.57 171.48 191.40 C 170.46 191.22 169.49 191.91 169.32 192.93 L 169.15 193.92 C 168.97 194.94 169.66 195.90 170.68 196.08 C 171.70 196.25 172.67 195.57 172.84 194.55 Z M 173.01 193.56 L 173.18 192.58 C 173.35 191.56 172.66 190.59 171.64 190.42 C 170.62 190.25 169.66 190.94 169.48 191.95 L 169.32 192.93 C 169.15 193.95 169.83 194.92 170.85 195.09 C 171.87 195.26 172.84 194.58 173.01 193.56 Z M 173.18 192.58 L 173.34 191.60 C 173.51 190.58 172.82 189.62 171.80 189.45 C 170.78 189.28 169.82 189.96 169.65 190.98 L 169.49 191.96 C 169.31 192.98 170.00 193.94 171.02 194.11 C 172.04 194.28 173.01 193.60 173.18 192.58 Z M 173.34 191.60 L 173.50 190.62 C 173.67 189.60 172.98 188.64 171.96 188.47 C 170.94 188.30 169.98 188.99 169.81 190.01 L 169.65 190.99 C 169.48 192.00 170.17 192.97 171.19 193.14 C 172.21 193.31 173.17 192.62 173.34 191.60 Z M 173.50 190.62 L 173.66 189.63 C 173.83 188.61 173.14 187.65 172.12 187.48 C 171.11 187.31 170.14 188.00 169.98 189.02 L 169.81 190.01 C 169.65 191.03 170.33 191.99 171.35 192.16 C 172.37 192.32 173.33 191.63 173.50 190.62 Z M 173.66 189.63 L 173.83 188.63 C 173.99 187.61 173.30 186.65 172.29 186.49 C 171.27 186.32 170.31 187.01 170.14 188.02 L 169.98 189.02 C 169.81 190.04 170.50 191.00 171.52 191.17 C 172.53 191.33 173.49 190.65 173.66 189.63 Z M 173.82 188.63 L 173.99 187.65 C 174.15 186.63 173.46 185.67 172.45 185.50 C 171.43 185.34 170.47 186.03 170.31 187.04 L 170.14 188.02 C 169.98 189.04 170.66 190.00 171.68 190.17 C 172.70 190.33 173.66 189.65 173.82 188.63 Z M 173.98 187.65 L 174.14 186.69 C 174.31 185.68 173.62 184.72 172.61 184.55 C 171.59 184.39 170.63 185.07 170.47 186.09 L 170.31 187.04 C 170.14 188.06 170.83 189.01 171.84 189.18 C 172.86 189.35 173.82 188.66 173.98 187.65 Z M 174.14 186.69 L 174.30 185.72 C 174.47 184.71 173.78 183.75 172.77 183.59 C 171.75 183.42 170.80 184.10 170.63 185.12 L 170.47 186.09 C 170.30 187.10 170.99 188.06 172.00 188.22 C 173.01 188.39 173.97 187.71 174.14 186.69 Z M 174.29 185.72 L 174.46 184.74 C 174.63 183.73 173.94 182.77 172.93 182.60 C 171.92 182.44 170.97 183.12 170.80 184.13 L 170.63 185.12 C 170.47 186.13 171.15 187.08 172.16 187.25 C 173.17 187.42 174.13 186.73 174.29 185.72 Z M 174.45 184.74 L 174.62 183.74 C 174.79 182.73 174.11 181.77 173.10 181.60 C 172.09 181.44 171.14 182.12 170.97 183.12 L 170.80 184.13 C 170.63 185.14 171.31 186.09 172.32 186.26 C 173.33 186.43 174.29 185.75 174.45 184.74 Z M 174.62 183.74 L 174.79 182.72 C 174.96 181.71 174.28 180.76 173.27 180.59 C 172.27 180.42 171.31 181.10 171.14 182.10 L 170.97 183.12 C 170.80 184.13 171.48 185.08 172.49 185.25 C 173.50 185.42 174.45 184.74 174.62 183.74 Z M 174.79 182.72 L 174.95 181.74 C 175.12 180.74 174.45 179.79 173.44 179.61 C 172.44 179.44 171.48 180.12 171.31 181.13 L 171.15 182.10 C 170.98 183.11 171.65 184.06 172.66 184.23 C 173.66 184.40 174.62 183.72 174.79 182.72 Z M 174.95 181.74 L 175.11 180.78 C 175.28 179.78 174.61 178.83 173.61 178.66 C 172.60 178.49 171.65 179.16 171.48 180.16 L 171.32 181.12 C 171.15 182.13 171.82 183.08 172.82 183.25 C 173.83 183.42 174.78 182.75 174.95 181.74 Z M 175.11 180.79 L 175.28 179.81 C 175.45 178.81 174.78 177.86 173.78 177.69 C 172.78 177.51 171.82 178.19 171.65 179.19 L 171.48 180.16 C 171.31 181.16 171.98 182.11 172.99 182.29 C 173.99 182.46 174.94 181.79 175.11 180.79 Z M 175.27 179.81 L 175.44 178.83 C 175.62 177.83 174.95 176.88 173.95 176.70 C 172.95 176.53 172.00 177.20 171.83 178.20 L 171.66 179.19 C 171.48 180.19 172.15 181.14 173.15 181.31 C 174.15 181.48 175.10 180.81 175.27 179.81 Z M 175.44 178.83 L 175.61 177.83 C 175.79 176.83 175.12 175.88 174.12 175.71 C 173.12 175.53 172.17 176.20 172.00 177.20 L 171.83 178.20 C 171.66 179.20 172.32 180.15 173.32 180.32 C 174.32 180.49 175.27 179.82 175.44 178.83 Z M 175.61 177.83 L 175.79 176.82 C 175.96 175.82 175.29 174.87 174.30 174.70 C 173.30 174.53 172.35 175.19 172.18 176.19 L 172.00 177.20 C 171.83 178.20 172.50 179.14 173.50 179.32 C 174.49 179.49 175.44 178.82 175.61 177.83 Z M 175.78 176.82 L 175.96 175.80 C 176.13 174.80 175.47 173.86 174.47 173.68 C 173.48 173.51 172.53 174.18 172.36 175.17 L 172.18 176.19 C 172.01 177.18 172.68 178.13 173.67 178.30 C 174.66 178.48 175.61 177.81 175.78 176.82 Z M 175.96 175.80 L 176.14 174.78 C 176.31 173.78 175.64 172.84 174.65 172.67 C 173.66 172.49 172.71 173.16 172.54 174.15 L 172.36 175.17 C 172.19 176.16 172.85 177.11 173.85 177.28 C 174.84 177.45 175.78 176.79 175.96 175.80 Z M 176.13 174.78 L 176.31 173.76 C 176.48 172.77 175.82 171.83 174.83 171.65 C 173.84 171.48 172.90 172.14 172.72 173.13 L 172.54 174.15 C 172.37 175.14 173.03 176.08 174.02 176.26 C 175.01 176.43 175.96 175.77 176.13 174.78 Z M 176.31 173.77 L 176.49 172.76 C 176.66 171.77 176.00 170.83 175.02 170.65 C 174.03 170.48 173.08 171.13 172.91 172.12 L 172.73 173.13 C 172.55 174.12 173.21 175.06 174.20 175.24 C 175.19 175.41 176.13 174.75 176.31 173.77 Z M 176.48 172.77 L 176.66 171.78 C 176.84 170.80 176.19 169.85 175.20 169.67 C 174.21 169.49 173.27 170.15 173.09 171.13 L 172.91 172.12 C 172.73 173.10 173.38 174.05 174.37 174.23 C 175.36 174.41 176.30 173.75 176.48 172.77 Z M 176.66 171.79 L 176.83 170.84 C 177.02 169.86 176.37 168.91 175.39 168.73 C 174.40 168.54 173.46 169.19 173.27 170.17 L 173.09 171.13 C 172.91 172.11 173.56 173.06 174.54 173.24 C 175.53 173.42 176.47 172.78 176.66 171.79 Z M 176.83 170.85 L 177.01 169.93 C 177.20 168.95 176.56 168.00 175.57 167.81 C 174.59 167.62 173.64 168.26 173.45 169.24 L 173.28 170.16 C 173.09 171.14 173.73 172.09 174.71 172.28 C 175.69 172.47 176.64 171.83 176.83 170.85 Z M 177.00 169.95 L 177.22 168.86 C 177.42 167.88 176.79 166.93 175.81 166.73 C 174.83 166.53 173.88 167.16 173.68 168.14 L 173.46 169.23 C 173.26 170.20 173.89 171.16 174.87 171.36 C 175.85 171.55 176.80 170.92 177.00 169.95 Z M 177.21 168.88 L 177.43 167.86 C 177.64 166.88 177.02 165.92 176.05 165.72 C 175.08 165.51 174.12 166.13 173.91 167.10 L 173.69 168.12 C 173.48 169.09 174.10 170.05 175.07 170.26 C 176.05 170.47 177.01 169.85 177.21 168.88 Z M 177.43 167.87 L 177.64 166.91 C 177.86 165.94 177.25 164.98 176.28 164.76 C 175.31 164.54 174.35 165.15 174.13 166.12 L 173.92 167.08 C 173.70 168.05 174.31 169.01 175.28 169.23 C 176.24 169.45 177.21 168.84 177.43 167.87 Z M 177.64 166.93 L 177.85 166.01 C 178.08 165.05 177.48 164.08 176.52 163.85 C 175.55 163.63 174.58 164.22 174.36 165.19 L 174.14 166.10 C 173.91 167.07 174.51 168.04 175.48 168.26 C 176.44 168.49 177.41 167.89 177.64 166.93 Z M 177.84 166.03 L 178.06 165.14 C 178.30 164.18 177.71 163.21 176.75 162.97 C 175.79 162.73 174.82 163.32 174.58 164.28 L 174.36 165.17 C 174.13 166.14 174.72 167.11 175.68 167.34 C 176.64 167.58 177.61 166.99 177.84 166.03 Z M 178.06 165.15 L 178.31 164.15 C 178.55 163.19 177.97 162.22 177.02 161.97 C 176.06 161.73 175.09 162.31 174.84 163.27 L 174.59 164.27 C 174.34 165.23 174.92 166.20 175.88 166.44 C 176.84 166.69 177.81 166.11 178.06 165.15 Z M 178.30 164.16 L 178.56 163.19 C 178.81 162.23 178.24 161.26 177.29 161.01 C 176.33 160.76 175.36 161.33 175.11 162.28 L 174.85 163.25 C 174.60 164.21 175.17 165.18 176.12 165.43 C 177.08 165.69 178.05 165.12 178.30 164.16 Z M 178.55 163.20 L 178.81 162.25 C 179.07 161.30 178.51 160.32 177.56 160.06 C 176.61 159.80 175.63 160.36 175.37 161.31 L 175.11 162.27 C 174.86 163.22 175.42 164.20 176.37 164.45 C 177.32 164.71 178.30 164.15 178.55 163.20 Z M 178.81 162.26 L 179.07 161.32 C 179.33 160.38 178.78 159.40 177.83 159.13 C 176.89 158.87 175.91 159.42 175.64 160.37 L 175.38 161.30 C 175.11 162.25 175.67 163.23 176.61 163.49 C 177.56 163.76 178.54 163.21 178.81 162.26 Z M 179.06 161.34 L 179.34 160.36 C 179.61 159.42 179.07 158.43 178.13 158.16 C 177.18 157.89 176.20 158.43 175.93 159.38 L 175.65 160.35 C 175.38 161.30 175.92 162.28 176.86 162.55 C 177.81 162.82 178.79 162.28 179.06 161.34 Z M 179.33 160.37 L 179.62 159.40 C 179.90 158.46 179.36 157.48 178.43 157.20 C 177.49 156.92 176.50 157.46 176.22 158.39 L 175.94 159.37 C 175.66 160.30 176.19 161.29 177.13 161.57 C 178.07 161.84 179.06 161.31 179.33 160.37 Z M 179.61 159.41 L 179.90 158.46 C 180.19 157.52 179.66 156.54 178.73 156.25 C 177.79 155.97 176.81 156.50 176.52 157.43 L 176.23 158.38 C 175.95 159.32 176.47 160.30 177.41 160.59 C 178.34 160.87 179.33 160.35 179.61 159.41 Z M 179.90 158.47 L 180.19 157.54 C 180.48 156.61 179.96 155.62 179.03 155.33 C 178.10 155.04 177.11 155.56 176.82 156.49 L 176.53 157.42 C 176.24 158.35 176.76 159.34 177.69 159.63 C 178.61 159.92 179.60 159.40 179.90 158.47 Z M 180.18 157.56 L 180.50 156.57 C 180.80 155.65 180.29 154.66 179.36 154.36 C 178.44 154.06 177.45 154.56 177.15 155.49 L 176.83 156.47 C 176.53 157.40 177.04 158.39 177.96 158.69 C 178.89 158.99 179.88 158.48 180.18 157.56 Z M 180.49 156.58 L 180.81 155.62 C 181.11 154.70 180.61 153.71 179.69 153.40 C 178.77 153.10 177.78 153.60 177.48 154.52 L 177.16 155.48 C 176.85 156.40 177.35 157.39 178.27 157.70 C 179.19 158.00 180.18 157.50 180.49 156.58 Z M 180.80 155.63 L 181.11 154.70 C 181.42 153.78 180.93 152.79 180.01 152.48 C 179.10 152.17 178.10 152.66 177.79 153.58 L 177.48 154.51 C 177.17 155.43 177.67 156.42 178.58 156.73 C 179.50 157.04 180.49 156.54 180.80 155.63 Z M 181.11 154.70 L 181.42 153.77 C 181.73 152.86 181.24 151.87 180.33 151.56 C 179.41 151.25 178.42 151.74 178.11 152.65 L 177.80 153.58 C 177.49 154.49 177.98 155.49 178.90 155.79 C 179.81 156.10 180.80 155.61 181.11 154.70 Z M 181.42 153.77 L 181.74 152.80 C 182.05 151.89 181.56 150.90 180.65 150.60 C 179.74 150.29 178.75 150.78 178.44 151.69 L 178.12 152.65 C 177.81 153.57 178.30 154.55 179.21 154.86 C 180.12 155.17 181.11 154.68 181.42 153.77 Z M 181.74 152.81 L 182.06 151.87 C 182.37 150.96 181.88 149.97 180.97 149.66 C 180.06 149.35 179.08 149.84 178.77 150.75 L 178.45 151.69 C 178.14 152.60 178.62 153.58 179.53 153.89 C 180.44 154.20 181.43 153.72 181.74 152.81 Z M 182.05 151.88 L 182.37 150.95 C 182.69 150.05 182.21 149.06 181.30 148.75 C 180.40 148.43 179.41 148.91 179.10 149.81 L 178.78 150.74 C 178.46 151.64 178.94 152.63 179.84 152.95 C 180.75 153.26 181.74 152.78 182.05 151.88 Z M 182.36 150.97 L 182.70 150.02 C 183.02 149.12 182.56 148.13 181.66 147.81 C 180.76 147.49 179.77 147.95 179.45 148.85 L 179.11 149.80 C 178.78 150.70 179.25 151.69 180.15 152.01 C 181.05 152.33 182.04 151.87 182.36 150.97 Z M 182.69 150.05 L 183.04 149.11 C 183.38 148.22 182.93 147.22 182.04 146.89 C 181.14 146.55 180.15 147.00 179.81 147.89 L 179.46 148.83 C 179.12 149.72 179.57 150.71 180.47 151.05 C 181.36 151.39 182.35 150.94 182.69 150.05 Z M 183.02 149.14 L 183.39 148.22 C 183.75 147.34 183.32 146.34 182.44 145.98 C 181.56 145.63 180.56 146.06 180.20 146.94 L 179.83 147.86 C 179.48 148.74 179.90 149.74 180.79 150.10 C 181.67 150.45 182.67 150.02 183.02 149.14 Z M 183.37 148.27 L 183.80 147.29 C 184.18 146.42 183.78 145.41 182.91 145.03 C 182.04 144.65 181.03 145.05 180.65 145.92 L 180.23 146.89 C 179.85 147.76 180.24 148.77 181.11 149.15 C 181.98 149.53 182.99 149.13 183.37 148.27 Z M 183.76 147.36 L 184.21 146.46 C 184.63 145.61 184.28 144.58 183.43 144.16 C 182.59 143.74 181.56 144.09 181.14 144.94 L 180.69 145.84 C 180.27 146.69 180.62 147.72 181.47 148.14 C 182.31 148.56 183.34 148.21 183.76 147.36 Z M 184.13 146.58 L 184.63 145.75 C 185.12 144.94 184.86 143.89 184.05 143.41 C 183.24 142.92 182.19 143.18 181.71 143.99 L 181.21 144.82 C 180.73 145.62 180.99 146.67 181.79 147.16 C 182.60 147.64 183.65 147.38 184.13 146.58 Z M 184.42 146.03 L 185.20 145.19 C 185.84 144.50 185.80 143.42 185.11 142.78 C 184.42 142.14 183.34 142.18 182.70 142.87 L 181.92 143.71 C 181.28 144.40 181.32 145.48 182.01 146.12 C 182.70 146.76 183.78 146.72 184.42 146.03 Z M 183.21 145.57 L 183.66 145.79 C 184.51 146.19 185.53 145.84 185.94 144.98 C 186.35 144.13 185.99 143.11 185.14 142.70 L 184.69 142.49 C 183.84 142.08 182.82 142.44 182.41 143.29 C 182.00 144.14 182.36 145.16 183.21 145.57 Z M 182.68 144.29 L 182.72 145.42 C 182.74 146.37 183.53 147.11 184.48 147.09 C 185.43 147.06 186.17 146.27 186.15 145.32 L 186.11 144.20 C 186.09 143.25 185.30 142.50 184.35 142.53 C 183.40 142.56 182.66 143.35 182.68 144.29 Z M 182.71 145.20 L 182.61 146.17 C 182.52 147.12 183.21 147.97 184.15 148.06 C 185.10 148.16 185.95 147.47 186.05 146.52 L 186.15 145.55 C 186.25 144.60 185.56 143.75 184.61 143.66 C 183.66 143.56 182.81 144.25 182.71 145.20 Z M 182.60 146.13 L 182.48 147.11 C 182.36 148.07 183.04 148.94 183.99 149.06 C 184.95 149.18 185.82 148.50 185.94 147.54 L 186.06 146.56 C 186.18 145.61 185.50 144.74 184.55 144.62 C 183.59 144.50 182.72 145.18 182.60 146.13 Z M 182.46 147.14 L 182.36 148.11 C 182.26 149.07 182.96 149.94 183.92 150.04 C 184.89 150.14 185.76 149.44 185.86 148.47 L 185.96 147.51 C 186.06 146.54 185.36 145.68 184.39 145.58 C 183.42 145.48 182.56 146.18 182.46 147.14 Z M 182.34 148.14 L 182.25 149.19 C 182.16 150.17 182.89 151.03 183.86 151.11 C 184.84 151.20 185.70 150.47 185.79 149.50 L 185.88 148.44 C 185.96 147.47 185.24 146.60 184.26 146.52 C 183.28 146.44 182.42 147.16 182.34 148.14 Z M 182.23 149.22 L 182.16 150.17 C 182.09 151.15 182.83 152.01 183.82 152.08 C 184.81 152.15 185.67 151.41 185.74 150.42 L 185.80 149.47 C 185.87 148.48 185.13 147.63 184.14 147.56 C 183.16 147.49 182.30 148.23 182.23 149.22 Z M 182.15 150.19 L 182.09 151.20 C 182.03 152.20 182.80 153.05 183.79 153.11 C 184.78 153.16 185.64 152.40 185.69 151.41 L 185.75 150.40 C 185.81 149.40 185.05 148.55 184.05 148.49 C 183.06 148.44 182.20 149.20 182.15 150.19 Z M 182.08 151.23 L 182.03 152.24 C 181.99 153.24 182.77 154.08 183.77 154.13 C 184.77 154.17 185.62 153.39 185.66 152.39 L 185.71 151.38 C 185.75 150.38 184.97 149.54 183.97 149.49 C 182.97 149.45 182.12 150.23 182.08 151.23 Z M 182.02 152.25 L 181.99 153.22 C 181.96 154.23 182.75 155.07 183.76 155.10 C 184.77 155.13 185.61 154.34 185.64 153.33 L 185.67 152.37 C 185.71 151.36 184.92 150.52 183.91 150.49 C 182.90 150.45 182.06 151.25 182.02 152.25 Z M 181.98 153.23 L 181.96 154.25 C 181.93 155.26 182.73 156.11 183.75 156.13 C 184.76 156.16 185.60 155.36 185.63 154.34 L 185.65 153.32 C 185.68 152.31 184.88 151.47 183.86 151.44 C 182.85 151.42 182.01 152.22 181.98 153.23 Z M 181.95 154.26 L 181.92 155.29 C 181.90 156.31 182.71 157.15 183.73 157.18 C 184.75 157.20 185.59 156.39 185.62 155.37 L 185.64 154.34 C 185.66 153.32 184.85 152.47 183.83 152.45 C 182.81 152.43 181.97 153.24 181.95 154.26 Z M 181.91 155.29 L 181.89 156.27 C 181.87 157.29 182.69 158.14 183.71 158.16 C 184.74 158.18 185.59 157.37 185.61 156.35 L 185.63 155.37 C 185.65 154.34 184.83 153.50 183.81 153.47 C 182.78 153.45 181.93 154.27 181.91 155.29 Z M 181.88 156.27 L 181.86 157.27 C 181.84 158.30 182.66 159.16 183.69 159.18 C 184.72 159.20 185.58 158.38 185.60 157.35 L 185.62 156.34 C 185.64 155.31 184.82 154.46 183.79 154.44 C 182.76 154.42 181.90 155.24 181.88 156.27 Z M 181.85 157.27 L 181.83 158.30 C 181.81 159.33 182.63 160.19 183.67 160.21 C 184.71 160.23 185.57 159.41 185.59 158.37 L 185.61 157.35 C 185.63 156.31 184.81 155.45 183.77 155.43 C 182.73 155.41 181.87 156.23 181.85 157.27 Z M 181.82 158.30 L 181.80 159.30 C 181.78 160.35 182.61 161.21 183.65 161.23 C 184.70 161.25 185.56 160.42 185.58 159.38 L 185.60 158.37 C 185.62 157.33 184.79 156.46 183.75 156.44 C 182.70 156.42 181.84 157.25 181.82 158.30 Z M 181.79 159.30 L 181.77 160.30 C 181.75 161.35 182.59 162.22 183.64 162.24 C 184.68 162.25 185.55 161.42 185.57 160.37 L 185.59 159.37 C 185.61 158.32 184.77 157.46 183.72 157.44 C 182.67 157.42 181.81 158.25 181.79 159.30 Z M 181.76 160.30 L 181.74 161.30 C 181.73 162.36 182.57 163.23 183.62 163.25 C 184.68 163.26 185.55 162.42 185.57 161.37 L 185.58 160.37 C 185.60 159.31 184.76 158.44 183.70 158.42 C 182.65 158.41 181.78 159.25 181.76 160.30 Z M 181.73 161.31 L 181.72 162.32 C 181.71 163.38 182.56 164.25 183.62 164.26 C 184.68 164.28 185.55 163.43 185.56 162.37 L 185.58 161.36 C 185.59 160.30 184.74 159.43 183.68 159.41 C 182.62 159.40 181.75 160.25 181.73 161.31 Z M 181.71 162.33 L 181.70 163.29 C 181.69 164.36 182.55 165.23 183.62 165.23 C 184.68 165.24 185.56 164.39 185.56 163.32 L 185.57 162.36 C 185.58 161.29 184.72 160.42 183.66 160.41 C 182.59 160.40 181.72 161.26 181.71 162.33 Z M 181.70 163.30 L 181.69 164.27 C 181.69 165.34 182.55 166.21 183.62 166.22 C 184.69 166.22 185.56 165.36 185.57 164.29 L 185.57 163.31 C 185.58 162.24 184.71 161.37 183.64 161.37 C 182.57 161.36 181.70 162.23 181.70 163.30 Z M 181.68 164.27 L 181.68 165.28 C 181.68 166.35 182.55 167.23 183.63 167.23 C 184.70 167.23 185.57 166.36 185.57 165.28 L 185.58 164.28 C 185.58 163.21 184.71 162.33 183.63 162.33 C 182.56 162.33 181.69 163.20 181.68 164.27 Z M 181.68 165.28 L 181.68 166.33 C 181.68 167.41 182.55 168.28 183.63 168.28 C 184.71 168.28 185.58 167.41 185.58 166.33 L 185.58 165.28 C 185.58 164.20 184.71 163.33 183.63 163.33 C 182.55 163.33 181.68 164.20 181.68 165.28 Z M 181.67 166.33 L 181.67 167.30 C 181.67 168.38 182.55 169.26 183.63 169.26 C 184.71 169.26 185.59 168.38 185.59 167.30 L 185.59 166.33 C 185.59 165.25 184.71 164.37 183.63 164.37 C 182.55 164.37 181.67 165.25 181.67 166.33 Z M 181.66 167.30 L 181.66 168.29 C 181.66 169.37 182.54 170.25 183.63 170.25 C 184.71 170.25 185.59 169.37 185.59 168.29 L 185.59 167.30 C 185.59 166.22 184.71 165.34 183.63 165.34 C 182.54 165.34 181.66 166.22 181.66 167.30 Z M 181.66 168.29 L 181.66 169.30 C 181.66 170.39 182.54 171.27 183.63 171.27 C 184.72 171.27 185.60 170.39 185.60 169.30 L 185.60 168.29 C 185.60 167.20 184.72 166.32 183.63 166.32 C 182.54 166.32 181.66 167.20 181.66 168.29 Z M 181.65 169.30 L 181.65 170.32 C 181.65 171.41 182.54 172.30 183.63 172.30 C 184.72 172.30 185.61 171.41 185.61 170.32 L 185.61 169.30 C 185.61 168.21 184.72 167.32 183.63 167.32 C 182.54 167.32 181.65 168.21 181.65 169.30 Z M 181.65 170.32 L 181.65 171.34 C 181.65 172.44 182.53 173.32 183.63 173.32 C 184.72 173.32 185.61 172.44 185.61 171.34 L 185.61 170.32 C 185.61 169.23 184.72 168.34 183.63 168.34 C 182.53 168.34 181.65 169.23 181.65 170.32 Z M 181.64 171.34 L 181.64 172.33 C 181.64 173.42 182.53 174.31 183.63 174.31 C 184.73 174.31 185.61 173.42 185.61 172.33 L 185.61 171.34 C 185.61 170.24 184.73 169.35 183.63 169.35 C 182.53 169.35 181.64 170.24 181.64 171.34 Z M 181.64 172.33 L 181.64 173.32 C 181.64 174.41 182.53 175.30 183.63 175.30 C 184.73 175.30 185.62 174.41 185.62 173.32 L 185.62 172.33 C 185.62 171.23 184.73 170.34 183.63 170.34 C 182.53 170.34 181.64 171.23 181.64 172.33 Z M 181.64 173.32 L 181.64 174.31 C 181.64 175.41 182.53 176.30 183.63 176.30 C 184.73 176.30 185.62 175.41 185.62 174.31 L 185.62 173.32 C 185.62 172.22 184.73 171.32 183.63 171.32 C 182.53 171.32 181.64 172.22 181.64 173.32 Z M 181.63 174.31 L 181.63 175.32 C 181.63 176.43 182.53 177.32 183.63 177.32 C 184.73 177.32 185.62 176.43 185.62 175.32 L 185.62 174.31 C 185.62 173.21 184.73 172.32 183.63 172.32 C 182.53 172.32 181.63 173.21 181.63 174.31 Z M 181.63 175.32 L 181.63 176.33 C 181.63 177.43 182.53 178.32 183.63 178.32 C 184.73 178.32 185.62 177.43 185.62 176.33 L 185.62 175.32 C 185.62 174.22 184.73 173.33 183.63 173.33 C 182.53 173.33 181.63 174.22 181.63 175.32 Z M 181.63 176.33 L 181.63 177.30 C 181.63 178.40 182.53 179.30 183.63 179.30 C 184.73 179.30 185.63 178.40 185.63 177.30 L 185.63 176.33 C 185.63 175.22 184.73 174.33 183.63 174.33 C 182.52 174.33 181.63 175.22 181.63 176.33 Z M 181.63 177.30 L 181.63 178.29 C 181.63 179.39 182.53 180.29 183.63 180.29 C 184.74 180.29 185.63 179.39 185.63 178.29 L 185.63 177.30 C 185.63 176.19 184.73 175.30 183.63 175.30 C 182.52 175.30 181.63 176.20 181.63 177.30 Z M 181.63 178.29 L 181.63 179.30 C 181.63 180.40 182.53 181.30 183.64 181.30 C 184.74 181.29 185.63 180.40 185.63 179.29 L 185.63 178.28 C 185.63 177.18 184.73 176.29 183.62 176.29 C 182.52 176.29 181.63 177.19 181.63 178.29 Z M 181.63 179.30 L 181.63 180.32 C 181.64 181.43 182.54 182.32 183.64 182.32 C 184.75 182.31 185.64 181.41 185.64 180.31 L 185.63 179.29 C 185.63 178.18 184.73 177.29 183.62 177.29 C 182.52 177.30 181.63 178.20 181.63 179.30 Z M 181.63 180.33 L 181.64 181.35 C 181.65 182.46 182.55 183.35 183.65 183.34 C 184.76 183.33 185.65 182.43 185.64 181.33 L 185.64 180.30 C 185.63 179.20 184.73 178.31 183.62 178.31 C 182.52 178.32 181.63 179.22 181.63 180.33 Z M 181.64 181.36 L 181.65 182.33 C 181.66 183.44 182.56 184.32 183.67 184.32 C 184.77 184.31 185.66 183.40 185.65 182.30 L 185.64 181.32 C 185.63 180.22 184.73 179.33 183.62 179.34 C 182.52 179.35 181.63 180.25 181.64 181.36 Z M 181.65 182.33 L 181.66 183.32 C 181.67 184.42 182.58 185.31 183.68 185.30 C 184.79 185.29 185.68 184.38 185.66 183.27 L 185.65 182.29 C 185.64 181.18 184.73 180.30 183.63 180.31 C 182.52 180.32 181.63 181.23 181.65 182.33 Z M 181.66 183.32 L 181.67 184.32 C 181.69 185.43 182.60 186.31 183.70 186.30 C 184.81 186.28 185.69 185.37 185.68 184.26 L 185.66 183.27 C 185.65 182.16 184.74 181.28 183.63 181.29 C 182.52 181.31 181.64 182.22 181.66 183.32 Z M 181.67 184.33 L 181.69 185.34 C 181.71 186.44 182.62 187.32 183.73 187.30 C 184.84 187.29 185.72 186.37 185.70 185.26 L 185.68 184.26 C 185.66 183.15 184.75 182.27 183.64 182.29 C 182.53 182.31 181.65 183.22 181.67 184.33 Z M 181.69 185.34 L 181.71 186.37 C 181.73 187.48 182.65 188.35 183.76 188.33 C 184.87 188.31 185.74 187.39 185.72 186.28 L 185.70 185.26 C 185.67 184.15 184.76 183.27 183.65 183.29 C 182.54 183.32 181.66 184.23 181.69 185.34 Z M 181.71 186.37 L 181.73 187.36 C 181.76 188.47 182.68 189.35 183.79 189.32 C 184.90 189.29 185.77 188.37 185.75 187.26 L 185.72 186.27 C 185.69 185.17 184.77 184.29 183.66 184.32 C 182.56 184.35 181.68 185.27 181.71 186.37 Z M 181.73 187.37 L 181.76 188.33 C 181.79 189.44 182.72 190.31 183.82 190.28 C 184.93 190.25 185.81 189.32 185.77 188.21 L 185.75 187.26 C 185.71 186.15 184.79 185.28 183.68 185.31 C 182.57 185.34 181.70 186.26 181.73 187.37 Z M 181.76 188.34 L 181.79 189.31 C 181.83 190.42 182.75 191.29 183.86 191.26 C 184.97 191.22 185.84 190.29 185.80 189.18 L 185.77 188.21 C 185.74 187.10 184.81 186.23 183.70 186.27 C 182.60 186.30 181.73 187.23 181.76 188.34 Z M 181.79 189.32 L 181.83 190.31 C 181.86 191.42 182.79 192.29 183.90 192.25 C 185.01 192.21 185.88 191.28 185.84 190.18 L 185.80 189.18 C 185.77 188.07 184.84 187.20 183.73 187.24 C 182.62 187.28 181.75 188.21 181.79 189.32 Z M 181.83 190.32 L 181.86 191.33 C 181.90 192.44 182.84 193.31 183.94 193.27 C 185.05 193.23 185.92 192.29 185.88 191.19 L 185.84 190.17 C 185.80 189.06 184.87 188.20 183.76 188.24 C 182.65 188.28 181.79 189.21 181.83 190.32 Z M 181.86 191.34 L 181.90 192.38 C 181.95 193.48 182.88 194.35 183.99 194.30 C 185.09 194.26 185.96 193.33 185.92 192.22 L 185.88 191.18 C 185.83 190.08 184.90 189.21 183.79 189.25 C 182.68 189.30 181.82 190.23 181.86 191.34 Z M 181.90 192.38 L 181.94 193.40 C 181.99 194.50 182.92 195.37 184.03 195.32 C 185.14 195.28 186.00 194.34 185.96 193.24 L 185.92 192.22 C 185.87 191.11 184.94 190.25 183.83 190.29 C 182.72 190.34 181.86 191.27 181.90 192.38 Z M 181.95 193.40 L 181.98 194.34 C 182.03 195.45 182.96 196.31 184.07 196.26 C 185.18 196.22 186.04 195.28 185.99 194.17 L 185.96 193.23 C 185.91 192.13 184.98 191.27 183.87 191.31 C 182.76 191.36 181.90 192.29 181.95 193.40 Z M 181.98 194.34 L 182.03 195.30 C 182.07 196.41 183.01 197.27 184.11 197.22 C 185.22 197.17 186.08 196.24 186.03 195.13 L 185.99 194.17 C 185.95 193.06 185.01 192.20 183.90 192.25 C 182.80 192.30 181.94 193.23 181.98 194.34 Z M 182.03 195.30 L 182.07 196.28 C 182.12 197.39 183.05 198.25 184.16 198.20 C 185.27 198.15 186.12 197.22 186.08 196.11 L 186.03 195.13 C 185.98 194.02 185.05 193.16 183.94 193.21 C 182.84 193.26 181.98 194.20 182.03 195.30 Z M 182.07 196.29 L 182.11 197.29 C 182.16 198.39 183.10 199.25 184.21 199.20 C 185.31 199.15 186.17 198.21 186.12 197.11 L 186.07 196.11 C 186.02 195.00 185.09 194.14 183.98 194.19 C 182.88 194.24 182.02 195.18 182.07 196.29 Z M 182.12 197.29 L 182.16 198.32 C 182.21 199.42 183.15 200.28 184.26 200.22 C 185.36 200.17 186.22 199.24 186.17 198.13 L 186.12 197.11 C 186.07 196.00 185.13 195.15 184.02 195.20 C 182.92 195.25 182.06 196.19 182.12 197.29 Z M 182.16 198.32 L 182.21 199.37 C 182.27 200.47 183.21 201.32 184.31 201.27 C 185.41 201.22 186.27 200.28 186.21 199.18 L 186.16 198.13 C 186.11 197.02 185.17 196.17 184.07 196.22 C 182.96 196.28 182.11 197.21 182.16 198.32 Z M 182.22 199.37 L 182.27 200.43 C 182.32 201.53 183.26 202.38 184.36 202.33 C 185.47 202.27 186.32 201.33 186.27 200.23 L 186.21 199.17 C 186.16 198.07 185.22 197.22 184.12 197.27 C 183.01 197.33 182.16 198.26 182.22 199.37 Z M 182.27 200.43 L 182.32 201.42 C 182.37 202.52 183.31 203.37 184.42 203.32 C 185.52 203.26 186.37 202.32 186.31 201.22 L 186.26 200.23 C 186.21 199.12 185.27 198.27 184.17 198.33 C 183.06 198.39 182.21 199.33 182.27 200.43 Z M 182.32 201.42 L 182.37 202.43 C 182.43 203.53 183.37 204.38 184.47 204.32 C 185.57 204.26 186.42 203.32 186.36 202.22 L 186.31 201.21 C 186.26 200.11 185.32 199.26 184.21 199.32 C 183.11 199.38 182.26 200.32 182.32 201.42 Z M 182.37 202.43 L 182.43 203.44 C 182.49 204.54 183.43 205.39 184.53 205.33 C 185.63 205.27 186.48 204.33 186.42 203.23 L 186.36 202.22 C 186.30 201.11 185.36 200.27 184.26 200.33 C 183.16 200.39 182.32 201.33 182.37 202.43 Z M 182.43 203.44 L 182.49 204.46 C 182.55 205.56 183.49 206.40 184.59 206.34 C 185.69 206.28 186.53 205.34 186.47 204.24 L 186.41 203.22 C 186.35 202.12 185.41 201.28 184.31 201.34 C 183.21 201.40 182.37 202.34 182.43 203.44 Z M 182.49 204.46 L 182.54 205.47 C 182.61 206.57 183.55 207.41 184.65 207.35 C 185.75 207.29 186.59 206.35 186.53 205.25 L 186.47 204.24 C 186.41 203.14 185.47 202.30 184.37 202.36 C 183.27 202.42 182.43 203.36 182.49 204.46 Z M 182.55 205.47 L 182.60 206.47 C 182.67 207.57 183.61 208.41 184.71 208.35 C 185.80 208.28 186.64 207.34 186.58 206.24 L 186.52 205.24 C 186.46 204.15 185.52 203.31 184.42 203.37 C 183.32 203.43 182.48 204.37 182.55 205.47 Z M 182.61 206.48 L 182.66 207.46 C 182.73 208.56 183.67 209.40 184.77 209.33 C 185.87 209.27 186.70 208.32 186.64 207.23 L 186.58 206.24 C 186.51 205.14 185.57 204.31 184.47 204.37 C 183.38 204.44 182.54 205.38 182.61 206.48 Z M 182.67 207.47 L 182.73 208.46 C 182.79 209.55 183.74 210.39 184.83 210.32 C 185.93 210.25 186.76 209.31 186.70 208.21 L 186.64 207.22 C 186.57 206.13 185.63 205.29 184.53 205.36 C 183.43 205.43 182.60 206.37 182.67 207.47 Z M 182.73 208.46 L 182.79 209.51 C 182.86 210.61 183.81 211.44 184.90 211.37 C 186.00 211.30 186.83 210.36 186.76 209.26 L 186.69 208.21 C 186.63 207.11 185.68 206.28 184.59 206.35 C 183.49 206.42 182.66 207.36 182.73 208.46 Z M 182.79 209.51 L 182.86 210.54 C 182.93 211.63 183.88 212.46 184.97 212.39 C 186.07 212.32 186.90 211.37 186.83 210.28 L 186.76 209.26 C 186.69 208.16 185.74 207.33 184.65 207.40 C 183.55 207.47 182.72 208.42 182.79 209.51 Z M 182.86 210.54 L 182.93 211.54 C 183.00 212.64 183.95 213.47 185.04 213.39 C 186.14 213.32 186.97 212.37 186.89 211.28 L 186.82 210.28 C 186.75 209.18 185.80 208.35 184.71 208.43 C 183.62 208.50 182.79 209.45 182.86 210.54 Z M 182.93 211.55 L 183.00 212.53 C 183.07 213.63 184.02 214.45 185.11 214.38 C 186.21 214.30 187.03 213.35 186.96 212.26 L 186.89 211.27 C 186.82 210.18 185.87 209.36 184.77 209.43 C 183.68 209.51 182.86 210.45 182.93 211.55 Z M 183.00 212.54 L 183.07 213.51 C 183.15 214.60 184.09 215.42 185.19 215.35 C 186.28 215.27 187.10 214.32 187.03 213.23 L 186.96 212.26 C 186.88 211.16 185.93 210.34 184.84 210.42 C 183.75 210.49 182.92 211.44 183.00 212.54 Z M 183.07 213.51 L 183.14 214.48 C 183.22 215.57 184.17 216.39 185.26 216.31 C 186.35 216.23 187.17 215.28 187.09 214.19 L 187.02 213.23 C 186.95 212.13 186.00 211.31 184.90 211.39 C 183.81 211.47 182.99 212.42 183.07 213.51 Z M 183.14 214.48 L 183.21 215.45 C 183.29 216.54 184.24 217.36 185.33 217.28 C 186.42 217.20 187.24 216.25 187.16 215.15 L 187.09 214.19 C 187.01 213.10 186.06 212.28 184.97 212.36 C 183.88 212.44 183.06 213.39 183.14 214.48 Z M 183.21 215.45 L 183.29 216.43 C 183.37 217.52 184.32 218.34 185.41 218.26 C 186.50 218.17 187.32 217.23 187.23 216.14 L 187.16 215.15 C 187.08 214.06 186.13 213.25 185.04 213.33 C 183.95 213.41 183.13 214.36 183.21 215.45 Z M 183.29 216.43 L 183.36 217.42 C 183.45 218.50 184.40 219.32 185.48 219.24 C 186.57 219.16 187.39 218.21 187.31 217.12 L 187.23 216.13 C 187.15 215.05 186.20 214.23 185.11 214.31 C 184.02 214.39 183.21 215.34 183.29 216.43 Z M 183.37 217.42 L 183.44 218.41 C 183.53 219.49 184.47 220.31 185.56 220.22 C 186.65 220.14 187.46 219.19 187.38 218.11 L 187.30 217.12 C 187.22 216.03 186.27 215.22 185.19 215.30 C 184.10 215.38 183.29 216.33 183.37 217.42 Z M 183.45 218.41 L 183.52 219.40 C 183.60 220.49 184.55 221.30 185.64 221.22 C 186.72 221.13 187.53 220.19 187.45 219.10 L 187.37 218.11 C 187.29 217.02 186.35 216.21 185.26 216.29 C 184.18 216.38 183.36 217.32 183.45 218.41 Z M 183.53 219.40 L 183.60 220.40 C 183.68 221.49 184.63 222.30 185.71 222.22 C 186.79 222.13 187.60 221.19 187.52 220.11 L 187.45 219.10 C 187.36 218.02 186.42 217.21 185.34 217.29 C 184.25 217.37 183.44 218.32 183.53 219.40 Z M 183.60 220.40 L 183.68 221.41 C 183.76 222.50 184.71 223.31 185.79 223.22 C 186.87 223.14 187.68 222.20 187.60 221.12 L 187.52 220.11 C 187.44 219.03 186.50 218.22 185.41 218.30 C 184.33 218.38 183.52 219.32 183.60 220.40 Z M 183.68 221.41 L 183.76 222.43 C 183.84 223.50 184.78 224.31 185.86 224.23 C 186.94 224.15 187.75 223.21 187.67 222.13 L 187.59 221.12 C 187.51 220.04 186.57 219.23 185.49 219.31 C 184.41 219.39 183.60 220.33 183.68 221.41 Z M 183.76 222.42 L 183.84 223.41 C 183.92 224.49 184.86 225.29 185.93 225.21 C 187.01 225.13 187.82 224.20 187.74 223.12 L 187.66 222.13 C 187.58 221.06 186.65 220.25 185.57 220.33 C 184.49 220.41 183.68 221.35 183.76 222.42 Z M 183.84 223.41 L 183.92 224.40 C 184.00 225.48 184.93 226.28 186.01 226.20 C 187.08 226.12 187.89 225.19 187.81 224.11 L 187.73 223.12 C 187.65 222.05 186.72 221.24 185.64 221.32 C 184.57 221.40 183.76 222.33 183.84 223.41 Z M 183.92 224.40 L 184.00 225.40 C 184.07 226.47 185.01 227.28 186.08 227.20 C 187.15 227.12 187.96 226.18 187.88 225.11 L 187.80 224.11 C 187.72 223.04 186.79 222.24 185.72 222.32 C 184.65 222.40 183.84 223.33 183.92 224.40 Z M 184.00 225.40 L 184.08 226.40 C 184.15 227.47 185.09 228.27 186.15 228.19 C 187.22 228.11 188.03 227.18 187.95 226.11 L 187.87 225.11 C 187.79 224.04 186.86 223.24 185.79 223.32 C 184.72 223.40 183.92 224.33 184.00 225.40 Z M 184.08 226.40 L 184.16 227.41 C 184.24 228.47 185.17 229.27 186.23 229.19 C 187.30 229.11 188.10 228.18 188.02 227.12 L 187.94 226.11 C 187.86 225.05 186.93 224.25 185.86 224.33 C 184.80 224.41 184.00 225.34 184.08 226.40 Z M 184.16 227.41 L 184.24 228.41 C 184.32 229.48 185.25 230.27 186.31 230.19 C 187.37 230.11 188.17 229.18 188.09 228.12 L 188.01 227.11 C 187.93 226.05 187.00 225.25 185.94 225.34 C 184.87 225.42 184.08 226.35 184.16 227.41 Z M 184.24 228.41 L 184.32 229.41 C 184.40 230.47 185.33 231.27 186.39 231.18 C 187.45 231.10 188.25 230.17 188.16 229.11 L 188.08 228.11 C 188.00 227.05 187.07 226.26 186.01 226.34 C 184.95 226.43 184.16 227.35 184.24 228.41 Z M 184.33 229.42 L 184.41 230.43 C 184.49 231.49 185.42 232.28 186.48 232.19 C 187.54 232.10 188.32 231.18 188.24 230.12 L 188.16 229.11 C 188.07 228.05 187.15 227.26 186.09 227.35 C 185.03 227.43 184.24 228.36 184.33 229.42 Z M 184.41 230.43 L 184.50 231.44 C 184.58 232.50 185.51 233.28 186.56 233.19 C 187.62 233.11 188.40 232.18 188.32 231.13 L 188.23 230.12 C 188.15 229.06 187.22 228.28 186.17 228.37 C 185.11 228.45 184.33 229.38 184.41 230.43 Z M 184.50 231.44 L 184.59 232.45 C 184.67 233.50 185.60 234.28 186.65 234.19 C 187.70 234.10 188.48 233.18 188.40 232.12 L 188.31 231.12 C 188.22 230.07 187.30 229.29 186.25 229.38 C 185.19 229.47 184.41 230.39 184.50 231.44 Z M 184.59 232.45 L 184.68 233.45 C 184.77 234.49 185.69 235.27 186.74 235.18 C 187.79 235.09 188.57 234.17 188.48 233.12 L 188.39 232.12 C 188.30 231.07 187.38 230.30 186.33 230.39 C 185.28 230.48 184.50 231.40 184.59 232.45 Z M 184.68 233.45 L 184.77 234.44 C 184.86 235.48 185.78 236.26 186.83 236.17 C 187.87 236.08 188.65 235.15 188.56 234.11 L 188.47 233.12 C 188.38 232.07 187.46 231.30 186.41 231.39 C 185.37 231.48 184.59 232.40 184.68 233.45 Z M 184.77 234.44 L 184.86 235.43 C 184.95 236.47 185.87 237.24 186.92 237.15 C 187.96 237.06 188.73 236.14 188.64 235.09 L 188.55 234.11 C 188.46 233.06 187.54 232.29 186.50 232.39 C 185.45 232.48 184.68 233.40 184.77 234.44 Z M 184.87 235.43 L 184.95 236.41 C 185.05 237.45 185.96 238.22 187.00 238.12 C 188.04 238.03 188.81 237.11 188.72 236.07 L 188.63 235.09 C 188.54 234.05 187.62 233.28 186.58 233.38 C 185.54 233.47 184.77 234.39 184.87 235.43 Z M 184.96 236.41 L 185.05 237.45 C 185.14 238.49 186.06 239.25 187.10 239.16 C 188.13 239.07 188.90 238.15 188.81 237.12 L 188.71 236.07 C 188.62 235.04 187.71 234.27 186.67 234.36 C 185.63 234.46 184.87 235.37 184.96 236.41 Z M 185.06 237.45 L 185.15 238.50 C 185.25 239.54 186.16 240.30 187.19 240.20 C 188.23 240.11 188.99 239.20 188.89 238.17 L 188.80 237.12 C 188.71 236.08 187.79 235.32 186.76 235.41 C 185.73 235.51 184.97 236.42 185.06 237.45 Z M 185.16 238.50 L 185.25 239.53 C 185.35 240.56 186.26 241.32 187.29 241.23 C 188.32 241.14 189.08 240.22 188.98 239.20 L 188.89 238.16 C 188.79 237.13 187.88 236.38 186.85 236.47 C 185.82 236.56 185.07 237.47 185.16 238.50 Z M 185.26 239.54 L 185.35 240.54 C 185.45 241.57 186.36 242.32 187.38 242.23 C 188.41 242.13 189.16 241.23 189.07 240.20 L 188.97 239.19 C 188.88 238.17 187.97 237.41 186.95 237.51 C 185.92 237.60 185.17 238.51 185.26 239.54 Z M 185.36 240.55 L 185.45 241.52 C 185.55 242.54 186.46 243.29 187.48 243.20 C 188.50 243.10 189.25 242.20 189.15 241.17 L 189.06 240.20 C 188.96 239.18 188.06 238.43 187.04 238.52 C 186.02 238.62 185.26 239.52 185.36 240.55 Z M 185.46 241.53 L 185.55 242.46 C 185.65 243.48 186.55 244.23 187.57 244.13 C 188.59 244.03 189.33 243.13 189.24 242.11 L 189.15 241.17 C 189.05 240.15 188.14 239.41 187.13 239.51 C 186.11 239.60 185.36 240.51 185.46 241.53 Z M 185.56 242.47 L 185.65 243.42 C 185.75 244.44 186.66 245.18 187.67 245.07 C 188.68 244.97 189.42 244.07 189.32 243.06 L 189.23 242.10 C 189.13 241.09 188.22 240.35 187.21 240.45 C 186.20 240.55 185.46 241.45 185.56 242.47 Z M 185.66 243.43 L 185.77 244.51 C 185.88 245.52 186.78 246.26 187.79 246.15 C 188.80 246.05 189.53 245.15 189.43 244.14 L 189.32 243.05 C 189.21 242.04 188.31 241.31 187.30 241.41 C 186.29 241.52 185.56 242.42 185.66 243.43 Z M 185.78 244.52 L 185.89 245.54 C 185.99 246.54 186.89 247.27 187.90 247.17 C 188.90 247.06 189.63 246.16 189.53 245.16 L 189.42 244.13 C 189.31 243.13 188.41 242.40 187.41 242.51 C 186.40 242.61 185.67 243.51 185.78 244.52 Z M 185.89 245.54 L 186.00 246.51 C 186.10 247.51 187.00 248.24 188.00 248.13 C 189.00 248.02 189.73 247.13 189.62 246.12 L 189.52 245.15 C 189.41 244.15 188.52 243.43 187.51 243.53 C 186.51 243.64 185.79 244.54 185.89 245.54 Z M 186.00 246.51 L 186.10 247.44 C 186.21 248.44 187.10 249.16 188.10 249.06 C 189.09 248.95 189.82 248.06 189.71 247.06 L 189.62 246.13 C 189.51 245.13 188.62 244.41 187.62 244.51 C 186.62 244.62 185.90 245.51 186.00 246.51 Z M 186.11 247.43 L 186.20 248.37 C 186.30 249.36 187.19 250.09 188.19 249.98 C 189.18 249.88 189.90 249.00 189.80 248.00 L 189.71 247.07 C 189.61 246.08 188.72 245.35 187.73 245.45 C 186.73 245.55 186.01 246.44 186.11 247.43 Z M 186.21 248.36 L 186.31 249.37 C 186.40 250.36 187.28 251.09 188.27 250.99 C 189.26 250.90 189.99 250.02 189.89 249.03 L 189.79 248.01 C 189.70 247.02 188.82 246.30 187.83 246.39 C 186.84 246.49 186.12 247.37 186.21 248.36 Z M 186.32 249.36 L 186.41 250.37 C 186.49 251.35 187.37 252.08 188.35 251.99 C 189.34 251.90 190.06 251.03 189.97 250.05 L 189.88 249.04 C 189.80 248.06 188.93 247.33 187.94 247.42 C 186.95 247.51 186.23 248.38 186.32 249.36 Z M 186.41 250.36 L 186.50 251.35 C 186.58 252.33 187.44 253.06 188.42 252.97 C 189.40 252.89 190.13 252.03 190.05 251.05 L 189.97 250.06 C 189.89 249.08 189.02 248.35 188.04 248.43 C 187.06 248.51 186.33 249.37 186.41 250.36 Z M 186.50 251.33 L 186.58 252.31 C 186.65 253.29 187.51 254.02 188.48 253.94 C 189.46 253.87 190.19 253.01 190.12 252.04 L 190.04 251.06 C 189.97 250.08 189.11 249.35 188.14 249.43 C 187.16 249.50 186.43 250.36 186.50 251.33 Z M 186.59 252.30 L 186.66 253.31 C 186.73 254.28 187.57 255.01 188.54 254.95 C 189.52 254.88 190.25 254.03 190.18 253.06 L 190.11 252.05 C 190.04 251.08 189.20 250.34 188.22 250.41 C 187.25 250.48 186.52 251.33 186.59 252.30 Z M 186.67 253.30 L 186.73 254.31 C 186.79 255.28 187.63 256.01 188.59 255.95 C 189.56 255.89 190.30 255.06 190.24 254.09 L 190.17 253.07 C 190.11 252.11 189.28 251.37 188.31 251.43 C 187.34 251.49 186.60 252.33 186.67 253.30 Z M 186.74 254.30 L 186.79 255.29 C 186.85 256.26 187.67 256.99 188.64 256.94 C 189.60 256.89 190.34 256.06 190.28 255.10 L 190.23 254.10 C 190.18 253.14 189.35 252.40 188.39 252.45 C 187.42 252.51 186.68 253.33 186.74 254.30 Z M 186.80 255.28 L 186.85 256.26 C 186.89 257.22 187.71 257.96 188.67 257.91 C 189.63 257.87 190.37 257.05 190.32 256.09 L 190.28 255.11 C 190.23 254.15 189.42 253.41 188.46 253.46 C 187.50 253.50 186.76 254.32 186.80 255.28 Z M 186.86 256.24 L 186.89 257.25 C 186.93 258.21 187.73 258.95 188.69 258.92 C 189.65 258.88 190.39 258.08 190.35 257.12 L 190.32 256.11 C 190.28 255.15 189.47 254.41 188.52 254.44 C 187.56 254.48 186.82 255.28 186.86 256.24 Z M 186.90 257.24 L 186.93 258.27 C 186.96 259.22 187.76 259.97 188.71 259.94 C 189.66 259.91 190.41 259.12 190.38 258.17 L 190.35 257.14 C 190.32 256.18 189.52 255.44 188.57 255.46 C 187.62 255.49 186.87 256.29 186.90 257.24 Z M 186.94 258.26 L 186.96 259.26 C 186.99 260.21 187.77 260.96 188.72 260.93 C 189.67 260.91 190.42 260.13 190.40 259.18 L 190.37 258.18 C 190.35 257.23 189.56 256.48 188.61 256.51 C 187.67 256.53 186.92 257.31 186.94 258.26 Z M 186.97 259.26 L 186.99 260.21 C 187.01 261.15 187.79 261.90 188.74 261.88 C 189.68 261.86 190.43 261.08 190.41 260.14 L 190.39 259.18 C 190.37 258.24 189.59 257.49 188.64 257.51 C 187.70 257.53 186.95 258.31 186.97 259.26 Z M 187.00 260.21 L 187.02 261.24 C 187.04 262.18 187.82 262.93 188.76 262.91 C 189.70 262.89 190.44 262.11 190.42 261.17 L 190.40 260.14 C 190.38 259.20 189.60 258.45 188.66 258.47 C 187.72 258.49 186.98 259.27 187.00 260.21 Z M 187.02 261.24 L 187.05 262.25 C 187.07 263.19 187.84 263.94 188.78 263.92 C 189.72 263.90 190.46 263.12 190.44 262.18 L 190.42 261.17 C 190.40 260.23 189.62 259.49 188.69 259.51 C 187.75 259.53 187.00 260.31 187.02 261.24 Z M 187.05 262.25 L 187.07 263.21 C 187.08 264.15 187.86 264.89 188.79 264.87 C 189.73 264.86 190.47 264.09 190.46 263.15 L 190.44 262.19 C 190.42 261.25 189.65 260.51 188.71 260.52 C 187.78 260.54 187.03 261.31 187.05 262.25 Z M 187.07 263.20 L 187.08 264.19 C 187.09 265.12 187.86 265.87 188.79 265.86 C 189.73 265.85 190.47 265.08 190.46 264.15 L 190.45 263.16 C 190.44 262.23 189.68 261.48 188.74 261.49 C 187.81 261.50 187.06 262.27 187.07 263.20 Z M 187.08 264.18 L 187.09 265.18 C 187.09 266.11 187.85 266.86 188.79 266.86 C 189.72 266.85 190.47 266.09 190.47 265.16 L 190.46 264.16 C 190.46 263.23 189.70 262.47 188.76 262.48 C 187.83 262.48 187.08 263.24 187.08 264.18 Z M 187.09 265.17 L 187.09 266.16 C 187.09 267.09 187.85 267.85 188.78 267.84 C 189.71 267.84 190.47 267.09 190.46 266.16 L 190.46 265.17 C 190.46 264.24 189.71 263.48 188.78 263.48 C 187.84 263.49 187.09 264.24 187.09 265.17 Z M 187.10 266.16 L 187.10 266.44 C 187.10 267.37 187.85 268.12 188.78 268.12 C 189.71 268.12 190.46 267.37 190.46 266.44 L 190.46 266.16 C 190.46 265.23 189.71 264.48 188.78 264.48 C 187.85 264.48 187.10 265.23 187.10 266.16 Z"
      fill="black"
      fill-rule="nonzero" /></svg>