<svg xmlns="http://www.w3.org/2000/svg" width="300" height="300" viewBox="0 0 300 300">
<path d="M 122.88 87.87 L 123.63 88.52 C 124.26 89.07 125.22 89.00 125.76 88.37 C 126.31 87.74 126.25 86.79 125.62 86.24 L 124.87 85.59 C 124.24 85.04 123.28 85.10 122.73 85.73 C 122.19 86.36 122.25 87.32 122.88 87.87 Z M 123.86 88.71 L 124.72 89.20 C 125.45 89.61 126.39 89.36 126.81 88.62 C 127.23 87.89 126.97 86.95 126.23 86.53 L 125.38 86.05 C 124.65 85.63 123.71 85.88 123.29 86.62 C 122.87 87.36 123.13 88.29 123.86 88.71 Z M 125.05 89.35 L 126.01 89.63 C 126.83 89.86 127.69 89.39 127.92 88.57 C 128.16 87.75 127.68 86.89 126.86 86.66 L 125.90 86.38 C 125.08 86.14 124.23 86.62 123.99 87.44 C 123.76 88.26 124.23 89.11 125.05 89.35 Z M 126.23 89.68 L 127.18 89.81 C 128.04 89.92 128.82 89.33 128.93 88.48 C 129.04 87.63 128.45 86.84 127.60 86.73 L 126.64 86.60 C 125.79 86.49 125.01 87.08 124.90 87.93 C 124.78 88.78 125.38 89.57 126.23 89.68 Z M 127.31 89.82 L 128.30 89.87 C 129.16 89.92 129.89 89.25 129.94 88.39 C 129.98 87.54 129.32 86.80 128.46 86.76 L 127.47 86.71 C 126.61 86.67 125.88 87.33 125.84 88.19 C 125.79 89.05 126.46 89.78 127.31 89.82 Z M 128.36 89.88 L 129.41 89.89 C 130.27 89.91 130.98 89.22 130.99 88.36 C 131.00 87.49 130.31 86.79 129.45 86.77 L 128.40 86.76 C 127.54 86.74 126.83 87.43 126.82 88.29 C 126.81 89.16 127.50 89.87 128.36 89.88 Z M 129.42 89.90 L 130.44 89.90 C 131.30 89.90 132.00 89.21 132.01 88.35 C 132.01 87.48 131.32 86.78 130.45 86.78 L 129.44 86.77 C 128.57 86.77 127.87 87.46 127.87 88.33 C 127.86 89.19 128.56 89.89 129.42 89.90 Z M 130.44 89.90 L 131.46 89.90 C 132.32 89.90 133.02 89.20 133.02 88.34 C 133.02 87.48 132.32 86.78 131.46 86.78 L 130.45 86.77 C 129.58 86.77 128.88 87.47 128.88 88.34 C 128.88 89.20 129.58 89.90 130.44 89.90 Z M 131.46 89.90 L 132.51 89.90 C 133.37 89.90 134.07 89.20 134.07 88.34 C 134.07 87.47 133.37 86.77 132.50 86.77 L 131.46 86.77 C 130.59 86.78 129.89 87.48 129.89 88.34 C 129.90 89.20 130.60 89.90 131.46 89.90 Z M 132.53 89.90 L 133.50 89.89 C 134.37 89.87 135.06 89.16 135.04 88.30 C 135.03 87.43 134.32 86.74 133.46 86.76 L 132.48 86.77 C 131.62 86.79 130.93 87.50 130.94 88.36 C 130.95 89.23 131.66 89.92 132.53 89.90 Z M 133.56 89.89 L 134.51 89.84 C 135.38 89.80 136.04 89.06 136.00 88.20 C 135.96 87.33 135.22 86.67 134.36 86.71 L 133.40 86.76 C 132.54 86.80 131.87 87.54 131.92 88.40 C 131.96 89.26 132.69 89.93 133.56 89.89 Z M 134.57 89.84 L 135.56 89.75 C 136.43 89.67 137.06 88.91 136.99 88.05 C 136.91 87.19 136.15 86.55 135.29 86.63 L 134.30 86.72 C 133.44 86.79 132.80 87.55 132.88 88.41 C 132.95 89.27 133.71 89.91 134.57 89.84 Z M 135.61 89.74 L 136.61 89.63 C 137.47 89.53 138.08 88.76 137.98 87.90 C 137.89 87.04 137.11 86.42 136.25 86.52 L 135.25 86.63 C 134.39 86.73 133.77 87.51 133.87 88.37 C 133.97 89.23 134.75 89.84 135.61 89.74 Z M 136.63 89.63 L 137.61 89.50 C 138.47 89.39 139.08 88.61 138.97 87.75 C 138.86 86.90 138.08 86.29 137.22 86.40 L 136.23 86.52 C 135.37 86.63 134.77 87.41 134.88 88.27 C 134.98 89.13 135.77 89.74 136.63 89.63 Z M 137.61 89.50 L 138.61 89.38 C 139.47 89.27 140.08 88.49 139.97 87.63 C 139.87 86.77 139.09 86.17 138.23 86.27 L 137.22 86.40 C 136.36 86.50 135.75 87.28 135.86 88.14 C 135.97 89.00 136.75 89.61 137.61 89.50 Z M 138.59 89.38 L 139.59 89.27 C 140.45 89.18 141.07 88.40 140.97 87.54 C 140.88 86.68 140.10 86.06 139.24 86.16 L 138.25 86.27 C 137.39 86.36 136.77 87.14 136.86 88.00 C 136.96 88.86 137.73 89.48 138.59 89.38 Z M 139.57 89.27 L 140.57 89.17 C 141.43 89.08 142.06 88.32 141.97 87.46 C 141.88 86.60 141.11 85.97 140.25 86.06 L 139.26 86.16 C 138.40 86.25 137.77 87.01 137.86 87.87 C 137.94 88.73 138.71 89.36 139.57 89.27 Z M 140.57 89.17 L 141.57 89.07 C 142.43 88.99 143.05 88.22 142.97 87.36 C 142.88 86.50 142.12 85.87 141.26 85.96 L 140.26 86.06 C 139.40 86.14 138.77 86.91 138.85 87.77 C 138.94 88.63 139.71 89.26 140.57 89.17 Z M 141.57 89.07 L 142.56 88.97 C 143.42 88.88 144.05 88.12 143.96 87.26 C 143.88 86.40 143.11 85.77 142.25 85.86 L 141.25 85.96 C 140.39 86.04 139.77 86.81 139.85 87.67 C 139.94 88.53 140.71 89.16 141.57 89.07 Z M 142.57 88.97 L 143.55 88.87 C 144.41 88.78 145.04 88.01 144.95 87.15 C 144.86 86.29 144.09 85.67 143.23 85.76 L 142.25 85.86 C 141.39 85.95 140.76 86.71 140.85 87.57 C 140.94 88.43 141.71 89.06 142.57 88.97 Z M 143.55 88.87 L 144.54 88.77 C 145.40 88.68 146.03 87.92 145.94 87.06 C 145.85 86.20 145.09 85.57 144.23 85.66 L 143.24 85.76 C 142.38 85.84 141.75 86.61 141.84 87.47 C 141.92 88.33 142.69 88.96 143.55 88.87 Z M 144.52 88.77 L 145.53 88.68 C 146.39 88.60 147.02 87.84 146.94 86.98 C 146.87 86.12 146.10 85.49 145.24 85.57 L 144.24 85.66 C 143.38 85.73 142.75 86.49 142.83 87.35 C 142.90 88.21 143.66 88.85 144.52 88.77 Z M 145.50 88.68 L 146.53 88.61 C 147.39 88.54 148.03 87.79 147.97 86.93 C 147.91 86.07 147.16 85.42 146.29 85.49 L 145.27 85.56 C 144.41 85.63 143.76 86.38 143.83 87.24 C 143.89 88.10 144.64 88.75 145.50 88.68 Z M 146.51 88.61 L 147.49 88.54 C 148.36 88.49 149.01 87.75 148.96 86.89 C 148.90 86.03 148.16 85.37 147.30 85.43 L 146.31 85.49 C 145.45 85.54 144.80 86.28 144.85 87.14 C 144.90 88.01 145.65 88.66 146.51 88.61 Z M 147.48 88.54 L 148.44 88.49 C 149.30 88.45 149.96 87.71 149.91 86.85 C 149.87 85.99 149.13 85.33 148.27 85.38 L 147.31 85.43 C 146.45 85.47 145.79 86.21 145.84 87.07 C 145.89 87.93 146.62 88.59 147.48 88.54 Z M 148.43 88.49 L 149.42 88.44 C 150.28 88.40 150.94 87.67 150.90 86.81 C 150.86 85.95 150.12 85.28 149.26 85.33 L 148.28 85.38 C 147.42 85.42 146.75 86.15 146.80 87.01 C 146.84 87.87 147.57 88.53 148.43 88.49 Z M 149.42 88.44 L 150.41 88.39 C 151.27 88.35 151.94 87.62 151.90 86.76 C 151.85 85.90 151.12 85.24 150.26 85.28 L 149.27 85.33 C 148.41 85.37 147.74 86.10 147.79 86.96 C 147.83 87.82 148.56 88.48 149.42 88.44 Z M 150.41 88.39 L 151.43 88.35 C 152.29 88.31 152.95 87.58 152.91 86.72 C 152.87 85.86 152.15 85.20 151.29 85.23 L 150.27 85.28 C 149.41 85.32 148.74 86.05 148.78 86.91 C 148.82 87.77 149.55 88.43 150.41 88.39 Z M 151.41 88.34 L 152.43 88.31 C 153.29 88.28 153.96 87.56 153.93 86.70 C 153.90 85.84 153.18 85.17 152.32 85.20 L 151.30 85.23 C 150.44 85.27 149.77 85.99 149.80 86.85 C 149.83 87.70 150.55 88.38 151.41 88.34 Z M 152.40 88.31 L 153.49 88.29 C 154.35 88.27 155.03 87.56 155.01 86.70 C 155.00 85.84 154.29 85.16 153.43 85.18 L 152.35 85.20 C 151.49 85.22 150.80 85.92 150.82 86.78 C 150.84 87.64 151.55 88.32 152.40 88.31 Z M 153.47 88.28 L 154.42 88.28 C 155.27 88.28 155.97 87.58 155.96 86.72 C 155.96 85.86 155.26 85.17 154.40 85.18 L 153.45 85.18 C 152.60 85.18 151.90 85.88 151.91 86.74 C 151.91 87.60 152.61 88.29 153.47 88.28 Z M 154.40 88.28 L 155.40 88.28 C 156.26 88.29 156.95 87.60 156.96 86.74 C 156.96 85.88 156.27 85.19 155.42 85.18 L 154.42 85.18 C 153.56 85.17 152.87 85.87 152.86 86.72 C 152.86 87.58 153.55 88.27 154.40 88.28 Z M 155.32 88.28 L 156.28 88.33 C 157.13 88.39 157.87 87.74 157.92 86.88 C 157.97 86.03 157.32 85.30 156.47 85.25 L 155.50 85.19 C 154.65 85.14 153.92 85.79 153.86 86.64 C 153.81 87.49 154.46 88.23 155.32 88.28 Z M 156.10 88.31 L 157.06 88.48 C 157.90 88.64 158.70 88.08 158.85 87.24 C 159.01 86.40 158.45 85.60 157.61 85.44 L 156.65 85.27 C 155.81 85.12 155.00 85.68 154.85 86.52 C 154.70 87.36 155.26 88.16 156.10 88.31 Z M 156.87 88.43 L 157.84 88.74 C 158.65 89.00 159.52 88.55 159.78 87.74 C 160.04 86.93 159.59 86.06 158.78 85.81 L 157.80 85.50 C 156.99 85.24 156.12 85.69 155.87 86.50 C 155.61 87.31 156.06 88.18 156.87 88.43 Z M 157.62 88.65 L 158.52 89.11 C 159.28 89.49 160.21 89.18 160.59 88.42 C 160.97 87.66 160.67 86.74 159.91 86.35 L 159.00 85.90 C 158.24 85.52 157.32 85.82 156.94 86.58 C 156.55 87.34 156.86 88.27 157.62 88.65 Z M 158.17 88.86 L 158.86 89.50 C 159.49 90.08 160.46 90.04 161.04 89.42 C 161.62 88.80 161.58 87.82 160.96 87.24 L 160.26 86.60 C 159.64 86.02 158.66 86.06 158.09 86.68 C 157.51 87.31 157.54 88.28 158.17 88.86 Z M 158.52 89.05 L 158.95 89.93 C 159.32 90.70 160.25 91.01 161.02 90.64 C 161.78 90.26 162.10 89.34 161.73 88.57 L 161.30 87.69 C 160.92 86.93 160.00 86.61 159.23 86.98 C 158.46 87.36 158.14 88.28 158.52 89.05 Z M 158.83 89.61 L 159.05 90.55 C 159.26 91.39 160.09 91.90 160.93 91.70 C 161.76 91.50 162.27 90.66 162.07 89.82 L 161.85 88.89 C 161.65 88.05 160.81 87.54 159.97 87.74 C 159.14 87.94 158.63 88.78 158.83 89.61 Z M 159.02 90.40 L 159.15 91.36 C 159.27 92.22 160.06 92.81 160.91 92.69 C 161.76 92.57 162.36 91.79 162.24 90.94 L 162.11 89.97 C 161.99 89.12 161.20 88.53 160.35 88.65 C 159.50 88.76 158.90 89.55 159.02 90.40 Z M 159.14 91.27 L 159.22 92.37 C 159.29 93.23 160.04 93.88 160.90 93.81 C 161.76 93.75 162.40 93.00 162.34 92.14 L 162.25 91.03 C 162.19 90.17 161.44 89.53 160.58 89.59 C 159.72 89.66 159.08 90.41 159.14 91.27 Z M 159.22 92.31 L 159.25 93.35 C 159.29 94.21 160.01 94.88 160.87 94.85 C 161.74 94.82 162.41 94.10 162.38 93.23 L 162.34 92.20 C 162.31 91.34 161.59 90.66 160.73 90.69 C 159.86 90.72 159.19 91.45 159.22 92.31 Z M 159.25 93.31 L 159.27 94.35 C 159.28 95.21 159.99 95.90 160.85 95.89 C 161.72 95.88 162.41 95.17 162.40 94.31 L 162.38 93.27 C 162.37 92.40 161.66 91.71 160.80 91.72 C 159.93 91.74 159.24 92.45 159.25 93.31 Z M 159.26 94.33 L 159.27 95.28 C 159.27 96.14 159.97 96.84 160.84 96.84 C 161.70 96.84 162.40 96.13 162.40 95.27 L 162.40 94.32 C 162.40 93.46 161.69 92.76 160.83 92.76 C 159.96 92.76 159.26 93.46 159.26 94.33 Z M 159.26 95.27 L 159.26 96.35 C 159.26 97.22 159.97 97.92 160.83 97.92 C 161.70 97.92 162.40 97.22 162.40 96.35 L 162.40 95.27 C 162.40 94.41 161.70 93.70 160.83 93.70 C 159.97 93.70 159.26 94.41 159.26 95.27 Z M 159.26 96.35 L 159.26 97.27 C 159.26 98.14 159.97 98.84 160.83 98.84 C 161.70 98.84 162.40 98.14 162.40 97.27 L 162.40 96.35 C 162.40 95.49 161.70 94.78 160.83 94.78 C 159.97 94.78 159.26 95.49 159.26 96.35 Z M 159.26 97.27 L 159.26 98.19 C 159.26 99.06 159.96 99.77 160.83 99.77 C 161.70 99.77 162.41 99.06 162.41 98.19 L 162.41 97.27 C 162.41 96.40 161.70 95.70 160.83 95.70 C 159.96 95.70 159.26 96.40 159.26 97.27 Z M 159.25 98.19 L 159.25 99.22 C 159.25 100.10 159.96 100.81 160.83 100.81 C 161.71 100.81 162.42 100.10 162.42 99.22 L 162.42 98.19 C 162.42 97.32 161.71 96.61 160.83 96.61 C 159.96 96.61 159.25 97.32 159.25 98.19 Z M 159.24 99.22 L 159.24 100.22 C 159.24 101.10 159.95 101.81 160.83 101.81 C 161.72 101.81 162.43 101.10 162.43 100.22 L 162.43 99.22 C 162.43 98.34 161.72 97.63 160.83 97.63 C 159.95 97.63 159.24 98.34 159.24 99.22 Z M 159.23 100.22 L 159.23 101.22 C 159.23 102.11 159.95 102.83 160.83 102.83 C 161.72 102.83 162.44 102.11 162.44 101.22 L 162.44 100.22 C 162.44 99.33 161.72 98.61 160.83 98.61 C 159.95 98.61 159.23 99.33 159.23 100.22 Z M 159.21 101.22 L 159.21 102.26 C 159.21 103.15 159.94 103.88 160.83 103.88 C 161.73 103.88 162.46 103.15 162.46 102.26 L 162.46 101.22 C 162.46 100.32 161.73 99.59 160.83 99.59 C 159.94 99.59 159.21 100.32 159.21 101.22 Z M 159.20 102.26 L 159.20 103.23 C 159.20 104.14 159.93 104.87 160.83 104.87 C 161.74 104.87 162.47 104.14 162.47 103.23 L 162.47 102.26 C 162.47 101.35 161.74 100.62 160.83 100.62 C 159.93 100.62 159.20 101.35 159.20 102.26 Z M 159.19 103.23 L 159.19 104.23 C 159.19 105.14 159.93 105.88 160.83 105.88 C 161.74 105.88 162.48 105.14 162.48 104.23 L 162.48 103.23 C 162.48 102.32 161.74 101.59 160.83 101.59 C 159.93 101.59 159.19 102.32 159.19 103.23 Z M 159.18 104.23 L 159.18 105.25 C 159.18 106.17 159.92 106.91 160.83 106.91 C 161.75 106.91 162.49 106.17 162.49 105.25 L 162.49 104.23 C 162.49 103.32 161.75 102.58 160.83 102.58 C 159.92 102.58 159.18 103.32 159.18 104.23 Z M 159.17 105.25 L 159.17 106.22 C 159.17 107.14 159.91 107.89 160.83 107.89 C 161.75 107.89 162.50 107.14 162.50 106.22 L 162.50 105.25 C 162.50 104.33 161.75 103.59 160.83 103.59 C 159.91 103.59 159.17 104.33 159.17 105.25 Z M 159.16 106.22 L 159.16 107.23 C 159.16 108.15 159.91 108.90 160.83 108.90 C 161.76 108.90 162.51 108.15 162.51 107.23 L 162.51 106.22 C 162.51 105.30 161.76 104.55 160.83 104.55 C 159.91 104.55 159.16 105.30 159.16 106.22 Z M 159.15 107.23 L 159.15 108.26 C 159.15 109.19 159.90 109.94 160.83 109.94 C 161.76 109.94 162.52 109.19 162.52 108.26 L 162.52 107.23 C 162.52 106.30 161.76 105.54 160.83 105.54 C 159.90 105.54 159.15 106.30 159.15 107.23 Z M 159.14 108.26 L 159.14 109.24 C 159.14 110.17 159.90 110.93 160.83 110.93 C 161.77 110.93 162.53 110.17 162.53 109.24 L 162.53 108.26 C 162.53 107.32 161.77 106.56 160.83 106.56 C 159.90 106.56 159.14 107.32 159.14 108.26 Z M 159.14 109.24 L 159.14 110.23 C 159.14 111.17 159.90 111.93 160.83 111.93 C 161.77 111.93 162.53 111.17 162.53 110.23 L 162.53 109.24 C 162.53 108.30 161.77 107.54 160.83 107.54 C 159.90 107.54 159.14 108.30 159.14 109.24 Z M 159.13 110.23 L 159.13 111.25 C 159.13 112.19 159.89 112.95 160.83 112.95 C 161.78 112.95 162.54 112.19 162.54 111.25 L 162.54 110.23 C 162.54 109.29 161.78 108.53 160.83 108.53 C 159.89 108.53 159.13 109.29 159.13 110.23 Z M 159.12 111.25 L 159.12 112.24 C 159.12 113.19 159.89 113.95 160.83 113.95 C 161.78 113.95 162.54 113.19 162.54 112.24 L 162.54 111.25 C 162.54 110.30 161.78 109.54 160.83 109.54 C 159.89 109.54 159.12 110.30 159.12 111.25 Z M 159.12 112.24 L 159.12 113.22 C 159.11 114.17 159.88 114.94 160.83 114.94 C 161.78 114.94 162.55 114.18 162.55 113.23 L 162.55 112.25 C 162.55 111.30 161.79 110.53 160.84 110.53 C 159.89 110.52 159.12 111.29 159.12 112.24 Z M 159.11 113.21 L 159.10 114.22 C 159.10 115.17 159.86 115.95 160.81 115.95 C 161.76 115.96 162.54 115.19 162.55 114.24 L 162.56 113.24 C 162.56 112.29 161.80 111.51 160.84 111.50 C 159.89 111.50 159.12 112.26 159.11 113.21 Z M 159.10 114.20 L 159.08 115.23 C 159.07 116.18 159.83 116.97 160.78 116.98 C 161.74 117.00 162.52 116.23 162.54 115.28 L 162.55 114.26 C 162.57 113.30 161.81 112.51 160.85 112.50 C 159.90 112.49 159.11 113.25 159.10 114.20 Z M 159.07 115.21 L 159.05 116.16 C 159.03 117.11 159.78 117.91 160.74 117.93 C 161.70 117.96 162.50 117.20 162.52 116.24 L 162.54 115.30 C 162.57 114.34 161.81 113.54 160.85 113.52 C 159.89 113.49 159.10 114.25 159.07 115.21 Z M 159.05 116.14 L 159.01 117.11 C 158.98 118.07 159.74 118.87 160.70 118.90 C 161.66 118.93 162.46 118.18 162.50 117.22 L 162.53 116.26 C 162.56 115.29 161.80 114.49 160.84 114.46 C 159.88 114.43 159.08 115.18 159.05 116.14 Z M 159.01 117.10 L 158.97 118.11 C 158.94 119.07 159.69 119.88 160.66 119.92 C 161.62 119.95 162.43 119.20 162.46 118.23 L 162.50 117.23 C 162.53 116.26 161.78 115.45 160.82 115.42 C 159.85 115.38 159.04 116.14 159.01 117.10 Z M 158.97 118.11 L 158.93 119.17 C 158.90 120.14 159.65 120.95 160.62 120.99 C 161.59 121.02 162.40 120.26 162.43 119.30 L 162.47 118.23 C 162.50 117.27 161.75 116.45 160.78 116.42 C 159.81 116.38 159.00 117.14 158.97 118.11 Z M 158.92 119.18 L 158.89 120.15 C 158.86 121.12 159.62 121.93 160.59 121.96 C 161.56 121.99 162.37 121.23 162.41 120.26 L 162.44 119.29 C 162.47 118.32 161.71 117.51 160.74 117.48 C 159.77 117.45 158.96 118.21 158.92 119.18 Z M 158.89 120.15 L 158.86 121.12 C 158.82 122.10 159.59 122.91 160.56 122.94 C 161.53 122.97 162.35 122.21 162.38 121.24 L 162.41 120.26 C 162.44 119.29 161.68 118.47 160.71 118.44 C 159.73 118.41 158.92 119.18 158.89 120.15 Z M 158.85 121.12 L 158.82 122.13 C 158.79 123.10 159.55 123.92 160.53 123.95 C 161.50 123.98 162.32 123.22 162.35 122.24 L 162.38 121.24 C 162.42 120.26 161.65 119.44 160.67 119.41 C 159.70 119.38 158.88 120.15 158.85 121.12 Z M 158.81 122.13 L 158.78 123.15 C 158.75 124.13 159.51 124.95 160.49 124.98 C 161.47 125.02 162.29 124.25 162.32 123.27 L 162.36 122.24 C 162.39 121.27 161.62 120.45 160.64 120.41 C 159.67 120.38 158.85 121.15 158.81 122.13 Z M 158.77 123.15 L 158.74 124.18 C 158.70 125.17 159.47 125.99 160.45 126.02 C 161.43 126.06 162.26 125.29 162.29 124.31 L 162.33 123.28 C 162.36 122.29 161.59 121.47 160.61 121.44 C 159.63 121.40 158.81 122.17 158.77 123.15 Z M 158.73 124.18 L 158.69 125.17 C 158.66 126.16 159.42 126.98 160.41 127.02 C 161.39 127.06 162.22 126.29 162.26 125.31 L 162.29 124.32 C 162.33 123.33 161.57 122.51 160.58 122.47 C 159.60 122.43 158.77 123.20 158.73 124.18 Z M 158.69 125.17 L 158.65 126.16 C 158.61 127.14 159.38 127.97 160.36 128.01 C 161.35 128.05 162.18 127.29 162.22 126.30 L 162.26 125.32 C 162.30 124.33 161.53 123.50 160.55 123.46 C 159.56 123.42 158.73 124.18 158.69 125.17 Z M 158.65 126.15 L 158.60 127.15 C 158.56 128.13 159.33 128.97 160.31 129.01 C 161.30 129.05 162.14 128.29 162.18 127.30 L 162.22 126.31 C 162.26 125.32 161.50 124.49 160.51 124.44 C 159.52 124.40 158.69 125.17 158.65 126.15 Z M 158.60 127.15 L 158.56 128.15 C 158.51 129.14 159.28 129.97 160.27 130.02 C 161.26 130.06 162.09 129.29 162.14 128.30 L 162.18 127.30 C 162.22 126.31 161.46 125.48 160.47 125.43 C 159.48 125.39 158.64 126.16 158.60 127.15 Z M 158.55 128.15 L 158.51 129.16 C 158.47 130.15 159.23 130.99 160.22 131.03 C 161.21 131.08 162.05 130.31 162.10 129.32 L 162.14 128.30 C 162.18 127.31 161.42 126.48 160.43 126.43 C 159.44 126.39 158.60 127.16 158.55 128.15 Z M 158.51 129.16 L 158.46 130.16 C 158.42 131.15 159.19 131.99 160.18 132.03 C 161.17 132.07 162.01 131.30 162.06 130.31 L 162.10 129.32 C 162.14 128.33 161.37 127.49 160.38 127.44 C 159.39 127.40 158.55 128.17 158.51 129.16 Z M 158.46 130.16 L 158.42 131.15 C 158.38 132.15 159.15 132.98 160.14 133.03 C 161.13 133.07 161.97 132.30 162.02 131.31 L 162.06 130.31 C 162.10 129.32 161.33 128.48 160.34 128.44 C 159.34 128.40 158.50 129.17 158.46 130.16 Z M 158.42 131.15 L 158.38 132.15 C 158.33 133.15 159.11 133.99 160.10 134.03 C 161.09 134.07 161.93 133.30 161.97 132.31 L 162.02 131.31 C 162.06 130.31 161.29 129.47 160.29 129.43 C 159.30 129.39 158.46 130.16 158.42 131.15 Z M 158.38 132.15 L 158.33 133.16 C 158.29 134.15 159.06 134.99 160.05 135.04 C 161.05 135.08 161.89 134.31 161.93 133.31 L 161.97 132.31 C 162.02 131.32 161.25 130.47 160.25 130.43 C 159.26 130.39 158.42 131.16 158.38 132.15 Z M 158.33 133.15 L 158.29 134.16 C 158.24 135.15 159.01 136.00 160.00 136.04 C 161.00 136.09 161.84 135.32 161.89 134.32 L 161.93 133.32 C 161.98 132.32 161.21 131.48 160.21 131.44 C 159.22 131.39 158.38 132.16 158.33 133.15 Z M 158.28 134.15 L 158.24 135.16 C 158.19 136.15 158.96 137.00 159.95 137.04 C 160.95 137.09 161.79 136.32 161.84 135.33 L 161.89 134.33 C 161.93 133.33 161.17 132.49 160.17 132.44 C 159.18 132.39 158.33 133.16 158.28 134.15 Z M 158.24 135.15 L 158.18 136.15 C 158.13 137.14 158.90 137.99 159.89 138.04 C 160.89 138.10 161.74 137.33 161.79 136.33 L 161.84 135.34 C 161.89 134.34 161.13 133.49 160.13 133.44 C 159.13 133.39 158.29 134.16 158.24 135.15 Z M 158.18 136.14 L 158.13 137.14 C 158.07 138.14 158.84 138.99 159.84 139.04 C 160.83 139.09 161.68 138.33 161.74 137.33 L 161.79 136.34 C 161.84 135.34 161.08 134.49 160.08 134.44 C 159.09 134.38 158.24 135.15 158.18 136.14 Z M 158.13 137.14 L 158.07 138.13 C 158.02 139.13 158.78 139.98 159.78 140.04 C 160.77 140.09 161.63 139.33 161.68 138.33 L 161.74 137.34 C 161.79 136.34 161.03 135.49 160.03 135.43 C 159.04 135.38 158.18 136.14 158.13 137.14 Z M 158.07 138.13 L 158.01 139.13 C 157.96 140.13 158.72 140.98 159.72 141.04 C 160.72 141.09 161.57 140.33 161.63 139.33 L 161.69 138.33 C 161.74 137.34 160.98 136.48 159.98 136.42 C 158.98 136.37 158.13 137.13 158.07 138.13 Z M 158.01 139.13 L 157.95 140.13 C 157.90 141.13 158.66 141.99 159.66 142.04 C 160.66 142.10 161.52 141.34 161.57 140.34 L 161.63 139.33 C 161.69 138.33 160.92 137.48 159.92 137.42 C 158.92 137.36 158.07 138.13 158.01 139.13 Z M 157.95 140.13 L 157.90 141.11 C 157.84 142.11 158.60 142.97 159.61 143.03 C 160.61 143.08 161.46 142.32 161.52 141.32 L 161.57 140.34 C 161.63 139.34 160.87 138.48 159.87 138.42 C 158.87 138.36 158.01 139.13 157.95 140.13 Z M 157.90 141.11 L 157.84 142.10 C 157.78 143.10 158.55 143.95 159.55 144.01 C 160.55 144.07 161.41 143.30 161.46 142.30 L 161.52 141.32 C 161.58 140.31 160.81 139.46 159.81 139.40 C 158.81 139.35 157.95 140.11 157.90 141.11 Z M 157.84 142.10 L 157.78 143.09 C 157.73 144.09 158.50 144.95 159.50 145.00 C 160.50 145.06 161.35 144.29 161.41 143.29 L 161.47 142.30 C 161.52 141.30 160.75 140.44 159.75 140.38 C 158.75 140.33 157.90 141.10 157.84 142.10 Z M 157.78 143.09 L 157.73 144.10 C 157.67 145.10 158.44 145.95 159.44 146.01 C 160.44 146.06 161.30 145.30 161.36 144.29 L 161.41 143.29 C 161.47 142.29 160.70 141.43 159.70 141.38 C 158.70 141.32 157.84 142.09 157.78 143.09 Z M 157.73 144.10 L 157.67 145.11 C 157.62 146.11 158.39 146.97 159.39 147.02 C 160.39 147.08 161.25 146.31 161.30 145.31 L 161.36 144.29 C 161.41 143.29 160.64 142.43 159.64 142.38 C 158.64 142.33 157.78 143.09 157.73 144.10 Z M 157.67 145.11 L 157.62 146.12 C 157.56 147.12 158.33 147.98 159.33 148.03 C 160.34 148.09 161.19 147.32 161.25 146.31 L 161.30 145.31 C 161.36 144.30 160.59 143.45 159.58 143.39 C 158.58 143.34 157.73 144.11 157.67 145.11 Z M 157.62 146.12 L 157.56 147.08 C 157.51 148.08 158.28 148.94 159.28 148.99 C 160.29 149.05 161.14 148.28 161.20 147.27 L 161.25 146.31 C 161.30 145.31 160.53 144.45 159.53 144.40 C 158.53 144.35 157.67 145.12 157.62 146.12 Z M 157.56 147.08 L 157.51 148.05 C 157.46 149.06 158.23 149.91 159.23 149.97 C 160.24 150.02 161.09 149.25 161.15 148.25 L 161.20 147.27 C 161.25 146.27 160.48 145.41 159.48 145.36 C 158.47 145.31 157.62 146.08 157.56 147.08 Z M 157.51 148.05 L 157.46 149.04 C 157.41 150.05 158.18 150.90 159.18 150.96 C 160.18 151.01 161.04 150.24 161.09 149.24 L 161.15 148.25 C 161.20 147.24 160.43 146.39 159.43 146.33 C 158.42 146.28 157.56 147.05 157.51 148.05 Z M 157.46 149.04 L 157.40 150.05 C 157.35 151.05 158.12 151.91 159.13 151.96 C 160.13 152.02 160.99 151.25 161.04 150.24 L 161.09 149.24 C 161.15 148.23 160.38 147.37 159.37 147.32 C 158.37 147.27 157.51 148.04 157.46 149.04 Z M 157.40 150.05 L 157.35 151.08 C 157.30 152.08 158.07 152.94 159.07 152.99 C 160.08 153.05 160.93 152.28 160.99 151.27 L 161.04 150.24 C 161.10 149.24 160.32 148.38 159.32 148.33 C 158.32 148.27 157.46 149.04 157.40 150.05 Z M 157.35 151.08 L 157.29 152.12 C 157.24 153.12 158.01 153.98 159.01 154.03 C 160.02 154.09 160.88 153.32 160.93 152.31 L 160.99 151.27 C 161.04 150.27 160.27 149.41 159.27 149.35 C 158.26 149.30 157.40 150.07 157.35 151.08 Z M 157.29 152.12 L 157.24 153.12 C 157.18 154.12 157.95 154.98 158.96 155.04 C 159.96 155.09 160.82 154.32 160.88 153.31 L 160.93 152.31 C 160.99 151.31 160.22 150.45 159.21 150.40 C 158.21 150.34 157.35 151.11 157.29 152.12 Z M 157.24 153.12 L 157.18 154.13 C 157.13 155.13 157.90 155.99 158.90 156.05 C 159.91 156.10 160.77 155.33 160.82 154.33 L 160.88 153.32 C 160.93 152.31 160.16 151.45 159.16 151.40 C 158.15 151.34 157.29 152.11 157.24 153.12 Z M 157.18 154.13 L 157.13 155.14 C 157.07 156.15 157.84 157.01 158.85 157.07 C 159.85 157.12 160.71 156.35 160.77 155.35 L 160.82 154.33 C 160.88 153.32 160.11 152.46 159.10 152.41 C 158.10 152.35 157.24 153.12 157.18 154.13 Z M 157.13 155.14 L 157.07 156.16 C 157.01 157.16 157.78 158.02 158.79 158.08 C 159.80 158.13 160.66 157.36 160.71 156.36 L 160.77 155.35 C 160.82 154.34 160.05 153.48 159.05 153.42 C 158.04 153.37 157.18 154.14 157.13 155.14 Z M 157.07 156.16 L 157.01 157.15 C 156.96 158.16 157.73 159.02 158.73 159.07 C 159.74 159.13 160.60 158.36 160.66 157.35 L 160.71 156.36 C 160.77 155.35 160.00 154.49 158.99 154.43 C 157.99 154.38 157.12 155.15 157.07 156.16 Z M 157.01 157.15 L 156.96 158.12 C 156.90 159.13 157.67 159.99 158.68 160.05 C 159.69 160.10 160.55 159.33 160.60 158.33 L 160.66 157.35 C 160.71 156.35 159.94 155.49 158.94 155.43 C 157.93 155.37 157.07 156.15 157.01 157.15 Z M 156.96 158.12 L 156.90 159.16 C 156.85 160.17 157.62 161.03 158.62 161.09 C 159.63 161.14 160.49 160.37 160.55 159.36 L 160.60 158.33 C 160.66 157.32 159.89 156.46 158.88 156.40 C 157.88 156.35 157.01 157.12 156.96 158.12 Z M 156.90 159.16 L 156.84 160.21 C 156.79 161.22 157.56 162.08 158.56 162.14 C 159.57 162.19 160.43 161.42 160.49 160.42 L 160.55 159.36 C 160.60 158.36 159.83 157.50 158.82 157.44 C 157.82 157.39 156.96 158.16 156.90 159.16 Z M 156.84 160.21 L 156.79 161.23 C 156.73 162.23 157.50 163.10 158.51 163.15 C 159.51 163.21 160.38 162.44 160.43 161.43 L 160.49 160.42 C 160.54 159.41 159.77 158.55 158.77 158.49 C 157.76 158.44 156.90 159.21 156.84 160.21 Z M 156.79 161.23 L 156.73 162.21 C 156.67 163.21 157.45 164.07 158.45 164.13 C 159.46 164.19 160.32 163.42 160.38 162.41 L 160.43 161.43 C 160.49 160.42 159.72 159.56 158.71 159.51 C 157.71 159.45 156.84 160.22 156.79 161.23 Z M 156.73 162.20 L 156.68 163.16 C 156.62 164.16 157.39 165.03 158.40 165.08 C 159.40 165.14 160.27 164.37 160.32 163.37 L 160.38 162.41 C 160.43 161.41 159.67 160.54 158.66 160.49 C 157.65 160.43 156.79 161.20 156.73 162.20 Z M 156.68 163.16 L 156.62 164.09 C 156.56 165.10 157.33 165.96 158.34 166.02 C 159.35 166.08 160.21 165.31 160.27 164.31 L 160.32 163.37 C 160.38 162.36 159.61 161.50 158.61 161.44 C 157.60 161.38 156.74 162.15 156.68 163.16 Z M 156.62 164.09 L 156.56 165.11 C 156.50 166.12 157.27 166.98 158.28 167.04 C 159.28 167.10 160.15 166.34 160.21 165.33 L 160.27 164.31 C 160.33 163.30 159.56 162.44 158.55 162.38 C 157.55 162.32 156.68 163.08 156.62 164.09 Z M 156.56 165.11 L 156.50 166.12 C 156.44 167.12 157.21 167.99 158.21 168.05 C 159.22 168.11 160.08 167.35 160.15 166.34 L 160.21 165.33 C 160.27 164.33 159.50 163.46 158.50 163.40 C 157.49 163.34 156.62 164.10 156.56 165.11 Z M 156.50 166.12 L 156.44 167.11 C 156.38 168.12 157.14 168.98 158.15 169.04 C 159.15 169.11 160.02 168.34 160.08 167.34 L 160.14 166.34 C 160.21 165.34 159.44 164.47 158.44 164.41 C 157.43 164.34 156.56 165.11 156.50 166.12 Z M 156.44 167.11 L 156.38 168.09 C 156.32 169.10 157.08 169.97 158.09 170.03 C 159.09 170.09 159.96 169.33 160.02 168.32 L 160.08 167.34 C 160.15 166.33 159.38 165.46 158.38 165.40 C 157.37 165.34 156.50 166.10 156.44 167.11 Z M 156.38 168.09 L 156.32 169.07 C 156.25 170.08 157.02 170.95 158.02 171.01 C 159.03 171.07 159.89 170.31 159.96 169.30 L 160.02 168.32 C 160.08 167.32 159.32 166.45 158.31 166.39 C 157.31 166.32 156.44 167.09 156.38 168.09 Z M 156.32 169.07 L 156.25 170.07 C 156.19 171.07 156.95 171.94 157.96 172.00 C 158.96 172.06 159.83 171.30 159.89 170.30 L 159.96 169.30 C 160.02 168.30 159.26 167.43 158.25 167.37 C 157.25 167.30 156.38 168.07 156.32 169.07 Z M 156.25 170.07 L 156.19 171.06 C 156.13 172.06 156.89 172.93 157.90 172.99 C 158.90 173.06 159.77 172.29 159.83 171.29 L 159.89 170.29 C 159.96 169.29 159.19 168.42 158.19 168.36 C 157.18 168.30 156.32 169.06 156.25 170.07 Z M 156.19 171.06 L 156.13 172.06 C 156.07 173.06 156.83 173.93 157.84 173.99 C 158.84 174.05 159.71 173.28 159.77 172.28 L 159.83 171.28 C 159.89 170.28 159.13 169.41 158.12 169.35 C 157.12 169.29 156.25 170.06 156.19 171.06 Z M 156.13 172.06 L 156.07 173.06 C 156.01 174.07 156.78 174.93 157.78 174.99 C 158.79 175.05 159.65 174.28 159.71 173.28 L 159.77 172.28 C 159.83 171.27 159.06 170.41 158.06 170.35 C 157.05 170.29 156.19 171.06 156.13 172.06 Z M 156.07 173.07 L 156.02 174.08 C 155.96 175.08 156.73 175.94 157.73 176.00 C 158.74 176.05 159.60 175.28 159.66 174.28 L 159.71 173.27 C 159.77 172.27 159.00 171.41 157.99 171.35 C 156.99 171.29 156.13 172.06 156.07 173.07 Z M 156.02 174.08 L 155.96 175.07 C 155.91 176.07 156.68 176.93 157.69 176.98 C 158.69 177.04 159.55 176.26 159.60 175.26 L 159.66 174.27 C 159.71 173.27 158.94 172.41 157.93 172.36 C 156.93 172.30 156.07 173.08 156.02 174.08 Z M 155.96 175.07 L 155.91 176.07 C 155.86 177.07 156.64 177.93 157.64 177.98 C 158.65 178.03 159.50 177.25 159.55 176.25 L 159.60 175.25 C 159.65 174.25 158.88 173.39 157.87 173.34 C 156.87 173.29 156.01 174.07 155.96 175.07 Z M 155.92 176.07 L 155.87 177.07 C 155.82 178.08 156.60 178.93 157.60 178.98 C 158.60 179.03 159.46 178.25 159.51 177.25 L 159.55 176.24 C 159.60 175.24 158.83 174.39 157.82 174.34 C 156.82 174.29 155.96 175.07 155.92 176.07 Z M 155.87 177.08 L 155.82 178.08 C 155.78 179.09 156.55 179.94 157.56 179.98 C 158.56 180.03 159.41 179.25 159.46 178.25 L 159.51 177.24 C 159.55 176.24 158.77 175.39 157.77 175.34 C 156.77 175.30 155.91 176.07 155.87 177.08 Z M 155.82 178.08 L 155.78 179.09 C 155.73 180.10 156.51 180.95 157.51 180.99 C 158.52 181.04 159.37 180.26 159.41 179.26 L 159.46 178.25 C 159.50 177.24 158.73 176.39 157.72 176.35 C 156.72 176.30 155.87 177.08 155.82 178.08 Z M 155.78 179.09 L 155.73 180.09 C 155.69 181.10 156.47 181.95 157.47 181.99 C 158.47 182.04 159.32 181.26 159.37 180.25 L 159.41 179.25 C 159.46 178.25 158.68 177.40 157.68 177.36 C 156.67 177.31 155.82 178.09 155.78 179.09 Z M 155.73 180.09 L 155.69 181.09 C 155.65 182.10 156.42 182.95 157.43 182.99 C 158.43 183.03 159.28 182.26 159.32 181.25 L 159.37 180.25 C 159.41 179.25 158.63 178.40 157.63 178.36 C 156.63 178.31 155.78 179.09 155.73 180.09 Z M 155.69 181.09 L 155.65 182.09 C 155.60 183.09 156.38 183.94 157.38 183.99 C 158.39 184.03 159.24 183.25 159.28 182.25 L 159.32 181.25 C 159.37 180.25 158.59 179.40 157.59 179.36 C 156.58 179.31 155.73 180.09 155.69 181.09 Z M 155.65 182.09 L 155.60 183.09 C 155.56 184.09 156.34 184.94 157.34 184.99 C 158.34 185.03 159.19 184.25 159.24 183.25 L 159.28 182.25 C 159.32 181.25 158.55 180.40 157.54 180.35 C 156.54 180.31 155.69 181.09 155.65 182.09 Z M 155.60 183.09 L 155.56 184.09 C 155.52 185.09 156.29 185.94 157.30 185.99 C 158.30 186.03 159.15 185.25 159.19 184.25 L 159.24 183.25 C 159.28 182.25 158.50 181.40 157.50 181.35 C 156.50 181.31 155.65 182.09 155.60 183.09 Z M 155.56 184.09 L 155.51 185.13 C 155.47 186.14 156.25 186.99 157.25 187.03 C 158.25 187.07 159.10 186.30 159.14 185.30 L 159.19 184.25 C 159.24 183.25 158.46 182.40 157.46 182.35 C 156.45 182.31 155.61 183.09 155.56 184.09 Z M 155.51 185.13 L 155.47 186.18 C 155.42 187.18 156.20 188.03 157.20 188.07 C 158.20 188.12 159.05 187.34 159.10 186.34 L 159.14 185.30 C 159.19 184.29 158.41 183.45 157.41 183.40 C 156.41 183.36 155.56 184.13 155.51 185.13 Z M 155.47 186.18 L 155.42 187.19 C 155.38 188.19 156.15 189.04 157.15 189.09 C 158.16 189.13 159.00 188.36 159.05 187.36 L 159.10 186.34 C 159.14 185.34 158.37 184.49 157.36 184.45 C 156.36 184.40 155.51 185.17 155.47 186.18 Z M 155.42 187.19 L 155.38 188.17 C 155.34 189.17 156.11 190.02 157.11 190.06 C 158.11 190.11 158.96 189.33 159.00 188.33 L 159.05 187.36 C 159.09 186.36 158.32 185.51 157.32 185.46 C 156.32 185.42 155.47 186.19 155.42 187.19 Z M 155.38 188.17 L 155.34 189.09 C 155.30 190.09 156.07 190.94 157.07 190.98 C 158.07 191.03 158.92 190.25 158.96 189.25 L 159.00 188.33 C 159.05 187.33 158.27 186.48 157.27 186.44 C 156.27 186.40 155.43 187.17 155.38 188.17 Z M 155.34 189.09 L 155.29 190.19 C 155.25 191.19 156.02 192.03 157.02 192.08 C 158.02 192.12 158.87 191.35 158.91 190.35 L 158.96 189.25 C 159.00 188.25 158.23 187.41 157.23 187.36 C 156.23 187.32 155.39 188.09 155.34 189.09 Z M 155.30 190.19 L 155.25 191.21 C 155.21 192.20 155.98 193.05 156.98 193.09 C 157.97 193.14 158.82 192.36 158.86 191.37 L 158.91 190.35 C 158.95 189.35 158.18 188.51 157.18 188.47 C 156.18 188.42 155.34 189.19 155.30 190.19 Z M 155.26 191.21 L 155.21 192.15 C 155.17 193.15 155.94 193.99 156.93 194.03 C 157.93 194.08 158.77 193.31 158.82 192.31 L 158.86 191.37 C 158.90 190.37 158.13 189.53 157.14 189.48 C 156.14 189.44 155.30 190.21 155.26 191.21 Z M 155.22 192.15 L 155.17 193.08 C 155.13 194.07 155.89 194.92 156.89 194.96 C 157.88 195.01 158.72 194.24 158.77 193.25 L 158.81 192.31 C 158.86 191.32 158.09 190.48 157.10 190.43 C 156.11 190.39 155.26 191.15 155.22 192.15 Z M 155.18 193.08 L 155.13 194.08 C 155.08 195.08 155.85 195.92 156.84 195.96 C 157.83 196.01 158.67 195.25 158.72 194.26 L 158.77 193.25 C 158.81 192.26 158.05 191.42 157.06 191.37 C 156.07 191.32 155.22 192.09 155.18 193.08 Z M 155.13 194.09 L 155.09 195.08 C 155.04 196.07 155.81 196.91 156.80 196.95 C 157.78 197.00 158.62 196.23 158.67 195.25 L 158.71 194.25 C 158.76 193.26 158.00 192.42 157.01 192.38 C 156.02 192.33 155.18 193.10 155.13 194.09 Z M 155.09 195.09 L 155.05 196.08 C 155.01 197.07 155.78 197.91 156.77 197.95 C 157.75 197.99 158.59 197.22 158.63 196.23 L 158.67 195.24 C 158.71 194.25 157.94 193.41 156.95 193.37 C 155.96 193.33 155.13 194.10 155.09 195.09 Z M 155.05 196.10 L 155.02 197.09 C 154.99 198.07 155.76 198.90 156.75 198.93 C 157.73 198.96 158.56 198.19 158.59 197.20 L 158.62 196.21 C 158.65 195.23 157.88 194.40 156.89 194.37 C 155.91 194.34 155.08 195.11 155.05 196.10 Z M 155.02 197.10 L 155.00 198.10 C 154.98 199.08 155.75 199.90 156.74 199.93 C 157.72 199.95 158.54 199.17 158.56 198.19 L 158.59 197.19 C 158.61 196.20 157.83 195.38 156.85 195.36 C 155.86 195.34 155.05 196.12 155.02 197.10 Z M 155.00 198.11 L 154.99 199.12 C 154.97 200.11 155.75 200.92 156.74 200.93 C 157.72 200.95 158.53 200.16 158.54 199.18 L 158.56 198.17 C 158.58 197.19 157.79 196.38 156.81 196.36 C 155.83 196.35 155.02 197.13 155.00 198.11 Z M 154.99 199.13 L 154.98 200.12 C 154.97 201.10 155.76 201.91 156.74 201.92 C 157.72 201.93 158.52 201.14 158.53 200.16 L 158.54 199.17 C 158.55 198.19 157.76 197.39 156.78 197.38 C 155.80 197.37 155.00 198.15 154.99 199.13 Z M 154.98 200.13 L 154.98 201.12 C 154.97 202.10 155.76 202.90 156.74 202.90 C 157.72 202.91 158.51 202.12 158.52 201.14 L 158.53 200.15 C 158.53 199.17 157.74 198.38 156.77 198.37 C 155.79 198.36 154.99 199.15 154.98 200.13 Z M 154.98 201.12 L 154.98 202.13 C 154.97 203.10 155.76 203.90 156.73 203.90 C 157.71 203.91 158.50 203.12 158.51 202.15 L 158.51 201.14 C 158.52 200.17 157.73 199.37 156.76 199.37 C 155.79 199.36 154.99 200.15 154.98 201.12 Z M 154.98 202.12 L 154.97 203.13 C 154.97 204.10 155.75 204.90 156.72 204.90 C 157.69 204.91 158.48 204.13 158.49 203.16 L 158.50 202.15 C 158.51 201.18 157.73 200.39 156.76 200.38 C 155.79 200.37 154.99 201.15 154.98 202.12 Z M 154.98 203.12 L 154.97 204.10 C 154.95 205.07 155.73 205.86 156.70 205.87 C 157.67 205.89 158.46 205.11 158.47 204.14 L 158.49 203.17 C 158.50 202.20 157.73 201.40 156.76 201.39 C 155.79 201.38 154.99 202.15 154.98 203.12 Z M 154.97 204.09 L 154.96 205.09 C 154.94 206.06 155.71 206.85 156.68 206.87 C 157.65 206.88 158.44 206.11 158.45 205.15 L 158.47 204.15 C 158.48 203.18 157.71 202.39 156.75 202.37 C 155.78 202.36 154.99 203.13 154.97 204.09 Z M 154.96 205.10 L 154.95 206.12 C 154.94 207.08 155.71 207.87 156.67 207.88 C 157.63 207.90 158.42 207.13 158.44 206.16 L 158.45 205.14 C 158.46 204.18 157.69 203.39 156.73 203.38 C 155.77 203.36 154.98 204.13 154.96 205.10 Z M 154.95 206.12 L 154.95 207.16 C 154.94 208.11 155.71 208.90 156.67 208.91 C 157.63 208.92 158.41 208.15 158.42 207.19 L 158.43 206.16 C 158.44 205.20 157.67 204.41 156.71 204.40 C 155.75 204.39 154.96 205.17 154.95 206.12 Z M 154.95 207.16 L 154.95 208.19 C 154.94 209.15 155.71 209.93 156.67 209.93 C 157.63 209.93 158.40 209.16 158.41 208.21 L 158.41 207.18 C 158.42 206.22 157.65 205.44 156.69 205.44 C 155.74 205.44 154.96 206.21 154.95 207.16 Z M 154.95 208.20 L 154.95 209.20 C 154.95 210.16 155.72 210.93 156.67 210.93 C 157.62 210.93 158.40 210.16 158.40 209.21 L 158.40 208.20 C 158.40 207.25 157.63 206.48 156.68 206.47 C 155.73 206.47 154.96 207.24 154.95 208.20 Z M 154.96 209.21 L 154.96 210.17 C 154.96 211.12 155.73 211.89 156.67 211.89 C 157.62 211.89 158.39 211.12 158.39 210.17 L 158.39 209.21 C 158.39 208.26 157.62 207.49 156.68 207.49 C 155.73 207.49 154.96 208.26 154.96 209.21 Z M 154.96 210.17 L 154.96 211.23 C 154.96 212.17 155.73 212.94 156.68 212.94 C 157.62 212.94 158.39 212.17 158.39 211.23 L 158.39 210.17 C 158.39 209.23 157.62 208.46 156.68 208.46 C 155.73 208.46 154.96 209.23 154.96 210.17 Z M 154.97 211.23 L 154.97 212.24 C 154.97 213.18 155.73 213.94 156.68 213.94 C 157.62 213.94 158.38 213.18 158.38 212.24 L 158.38 211.23 C 158.38 210.29 157.62 209.53 156.68 209.53 C 155.73 209.53 154.97 210.29 154.97 211.23 Z M 154.98 212.24 L 154.98 213.18 C 154.98 214.12 155.74 214.88 156.68 214.88 C 157.61 214.88 158.37 214.12 158.37 213.18 L 158.37 212.24 C 158.37 211.30 157.61 210.54 156.68 210.54 C 155.74 210.54 154.98 211.30 154.98 212.24 Z M 154.98 213.18 L 154.98 214.18 C 154.98 215.11 155.74 215.87 156.68 215.87 C 157.61 215.87 158.37 215.11 158.37 214.18 L 158.37 213.18 C 158.37 212.24 157.61 211.49 156.68 211.49 C 155.74 211.49 154.98 212.24 154.98 213.18 Z M 154.99 214.18 L 154.99 215.18 C 154.99 216.11 155.74 216.86 156.68 216.86 C 157.61 216.86 158.36 216.11 158.36 215.18 L 158.36 214.18 C 158.36 213.25 157.61 212.49 156.68 212.49 C 155.74 212.49 154.99 213.25 154.99 214.18 Z M 155.00 215.18 L 155.00 216.16 C 155.00 217.08 155.75 217.83 156.68 217.83 C 157.60 217.83 158.35 217.08 158.35 216.16 L 158.35 215.18 C 158.35 214.25 157.60 213.50 156.68 213.50 C 155.75 213.50 155.00 214.25 155.00 215.18 Z M 155.00 216.16 L 155.00 217.15 C 155.00 218.08 155.75 218.83 156.68 218.83 C 157.60 218.83 158.35 218.08 158.35 217.15 L 158.35 216.16 C 158.35 215.23 157.60 214.49 156.68 214.49 C 155.75 214.49 155.00 215.23 155.00 216.16 Z M 155.01 217.15 L 155.01 218.15 C 155.01 219.07 155.76 219.82 156.68 219.82 C 157.59 219.82 158.34 219.07 158.34 218.15 L 158.34 217.15 C 158.34 216.24 157.59 215.49 156.68 215.49 C 155.76 215.49 155.01 216.24 155.01 217.15 Z M 155.02 218.15 L 155.02 219.14 C 155.02 220.05 155.76 220.79 156.68 220.79 C 157.59 220.79 158.33 220.05 158.33 219.14 L 158.33 218.15 C 158.33 217.24 157.59 216.50 156.68 216.50 C 155.76 216.50 155.02 217.24 155.02 218.15 Z M 155.02 219.14 L 155.02 220.12 C 155.02 221.03 155.76 221.77 156.68 221.77 C 157.59 221.77 158.33 221.03 158.33 220.12 L 158.33 219.14 C 158.33 218.23 157.59 217.49 156.68 217.49 C 155.76 217.49 155.02 218.23 155.02 219.14 Z M 155.03 220.12 L 155.03 221.15 C 155.03 222.05 155.77 222.79 156.68 222.79 C 157.58 222.79 158.32 222.05 158.32 221.15 L 158.32 220.12 C 158.32 219.21 157.58 218.48 156.68 218.48 C 155.77 218.48 155.03 219.21 155.03 220.12 Z M 155.04 221.15 L 155.04 222.12 C 155.04 223.02 155.77 223.75 156.68 223.75 C 157.58 223.75 158.31 223.02 158.31 222.12 L 158.31 221.15 C 158.31 220.24 157.58 219.51 156.68 219.51 C 155.77 219.51 155.04 220.24 155.04 221.15 Z M 155.04 222.12 L 155.04 223.11 C 155.04 224.01 155.77 224.74 156.68 224.74 C 157.58 224.74 158.31 224.01 158.31 223.11 L 158.31 222.12 C 158.31 221.22 157.58 220.49 156.68 220.49 C 155.77 220.49 155.04 221.22 155.04 222.12 Z M 155.05 223.11 L 155.05 224.14 C 155.05 225.04 155.78 225.77 156.68 225.77 C 157.57 225.77 158.30 225.04 158.30 224.14 L 158.30 223.11 C 158.30 222.21 157.57 221.49 156.68 221.49 C 155.78 221.49 155.05 222.21 155.05 223.11 Z M 155.06 224.14 L 155.06 225.15 C 155.06 226.04 155.78 226.77 156.68 226.77 C 157.57 226.77 158.29 226.04 158.29 225.15 L 158.29 224.14 C 158.29 223.25 157.57 222.53 156.68 222.53 C 155.78 222.53 155.06 223.25 155.06 224.14 Z M 155.06 225.15 L 155.06 226.15 C 155.06 227.04 155.78 227.76 156.68 227.76 C 157.57 227.76 158.29 227.04 158.29 226.15 L 158.29 225.15 C 158.29 224.26 157.57 223.53 156.68 223.53 C 155.78 223.53 155.06 224.26 155.06 225.15 Z M 155.07 226.15 L 155.07 227.16 C 155.07 228.05 155.79 228.76 156.68 228.76 C 157.56 228.76 158.28 228.05 158.28 227.16 L 158.28 226.15 C 158.28 225.26 157.56 224.54 156.68 224.54 C 155.79 224.54 155.07 225.26 155.07 226.15 Z M 155.07 227.16 L 155.07 228.17 C 155.07 229.05 155.79 229.77 156.68 229.77 C 157.56 229.77 158.28 229.05 158.28 228.17 L 158.28 227.16 C 158.28 226.27 157.56 225.55 156.68 225.55 C 155.79 225.55 155.07 226.27 155.07 227.16 Z M 155.08 228.17 L 155.08 229.18 C 155.08 230.06 155.79 230.78 156.68 230.78 C 157.56 230.78 158.27 230.06 158.27 229.18 L 158.27 228.17 C 158.27 227.29 157.56 226.57 156.68 226.57 C 155.79 226.57 155.08 227.29 155.08 228.17 Z M 155.08 229.18 L 155.08 230.17 C 155.08 231.05 155.79 231.77 156.68 231.77 C 157.56 231.77 158.27 231.05 158.27 230.17 L 158.27 229.18 C 158.27 228.30 157.56 227.58 156.68 227.58 C 155.79 227.58 155.08 228.30 155.08 229.18 Z M 155.08 230.17 L 155.08 231.16 C 155.08 232.04 155.80 232.76 156.68 232.76 C 157.56 232.76 158.27 232.04 158.27 231.16 L 158.27 230.17 C 158.27 229.29 157.56 228.58 156.68 228.58 C 155.80 228.58 155.08 229.29 155.08 230.17 Z M 155.08 231.17 L 155.09 232.18 C 155.09 233.06 155.80 233.77 156.68 233.77 C 157.56 233.77 158.27 233.06 158.27 232.18 L 158.27 231.16 C 158.27 230.28 157.55 229.57 156.67 229.57 C 155.80 229.57 155.08 230.29 155.08 231.17 Z M 155.09 232.19 L 155.09 233.18 C 155.10 234.06 155.81 234.77 156.69 234.76 C 157.57 234.76 158.27 234.04 158.27 233.17 L 158.26 232.17 C 158.26 231.29 157.55 230.59 156.67 230.59 C 155.79 230.59 155.08 231.31 155.09 232.19 Z M 155.10 233.19 L 155.11 234.19 C 155.12 235.06 155.84 235.77 156.71 235.76 C 157.59 235.75 158.29 235.03 158.28 234.15 L 158.27 233.15 C 158.26 232.28 157.54 231.58 156.66 231.59 C 155.79 231.60 155.09 232.32 155.10 233.19 Z M 155.11 234.20 L 155.13 235.22 C 155.15 236.10 155.87 236.79 156.74 236.78 C 157.62 236.76 158.31 236.04 158.30 235.16 L 158.28 234.14 C 158.26 233.27 157.54 232.57 156.66 232.59 C 155.79 232.61 155.09 233.33 155.11 234.20 Z M 155.13 235.23 L 155.16 236.22 C 155.18 237.09 155.91 237.78 156.78 237.76 C 157.65 237.73 158.34 237.01 158.32 236.14 L 158.29 235.15 C 158.27 234.28 157.55 233.59 156.67 233.61 C 155.80 233.64 155.11 234.36 155.13 235.23 Z M 155.16 236.22 L 155.19 237.23 C 155.21 238.10 155.94 238.79 156.81 238.77 C 157.68 238.74 158.37 238.01 158.35 237.14 L 158.32 236.13 C 158.29 235.26 157.56 234.57 156.69 234.60 C 155.82 234.62 155.13 235.35 155.16 236.22 Z M 155.19 237.24 L 155.22 238.24 C 155.25 239.11 155.98 239.80 156.85 239.77 C 157.72 239.74 158.40 239.02 158.38 238.14 L 158.34 237.14 C 158.32 236.27 157.59 235.58 156.72 235.61 C 155.85 235.64 155.16 236.37 155.19 237.24 Z M 155.22 238.25 L 155.26 239.22 C 155.29 240.09 156.02 240.77 156.89 240.74 C 157.76 240.71 158.44 239.98 158.41 239.11 L 158.38 238.14 C 158.34 237.27 157.61 236.59 156.74 236.62 C 155.87 236.65 155.19 237.38 155.22 238.25 Z M 155.26 239.22 L 155.30 240.23 C 155.33 241.10 156.06 241.78 156.93 241.75 C 157.80 241.71 158.48 240.98 158.45 240.11 L 158.41 239.10 C 158.37 238.23 157.64 237.55 156.77 237.58 C 155.90 237.62 155.22 238.35 155.26 239.22 Z M 155.30 240.23 L 155.34 241.22 C 155.37 242.09 156.10 242.76 156.97 242.73 C 157.84 242.69 158.52 241.96 158.49 241.09 L 158.45 240.11 C 158.41 239.24 157.68 238.56 156.81 238.60 C 155.94 238.63 155.26 239.36 155.30 240.23 Z M 155.34 241.21 L 155.37 242.24 C 155.41 243.11 156.14 243.79 157.01 243.76 C 157.88 243.73 158.56 243.00 158.53 242.12 L 158.49 241.09 C 158.45 240.22 157.72 239.54 156.85 239.58 C 155.98 239.61 155.30 240.34 155.34 241.21 Z M 155.38 242.25 L 155.41 243.22 C 155.45 244.09 156.18 244.76 157.05 244.73 C 157.92 244.70 158.60 243.96 158.56 243.09 L 158.53 242.12 C 158.49 241.25 157.76 240.58 156.89 240.61 C 156.02 240.64 155.34 241.38 155.38 242.25 Z M 155.41 243.22 L 155.46 244.24 C 155.49 245.11 156.22 245.78 157.09 245.75 C 157.96 245.71 158.64 244.98 158.61 244.11 L 158.56 243.09 C 158.53 242.22 157.79 241.54 156.92 241.58 C 156.05 241.62 155.38 242.35 155.41 243.22 Z M 155.45 244.21 L 155.48 245.18 C 155.50 246.05 156.23 246.73 157.10 246.71 C 157.97 246.69 158.65 245.97 158.63 245.10 L 158.61 244.13 C 158.58 243.26 157.86 242.58 156.99 242.60 C 156.12 242.62 155.43 243.34 155.45 244.21 Z M 155.48 245.14 L 155.49 246.15 C 155.49 247.02 156.20 247.72 157.07 247.71 C 157.94 247.71 158.64 247.00 158.64 246.13 L 158.63 245.13 C 158.63 244.26 157.92 243.56 157.05 243.56 C 156.18 243.57 155.48 244.28 155.48 245.14 Z M 155.49 246.14 L 155.49 247.14 C 155.49 248.01 156.19 248.71 157.06 248.71 C 157.93 248.71 158.63 248.01 158.63 247.14 L 158.63 246.14 C 158.63 245.27 157.93 244.56 157.06 244.56 C 156.19 244.56 155.49 245.27 155.49 246.14 Z M 155.49 247.14 L 155.49 248.15 C 155.49 249.02 156.19 249.72 157.06 249.72 C 157.93 249.72 158.63 249.02 158.63 248.15 L 158.63 247.14 C 158.63 246.27 157.93 245.56 157.06 245.56 C 156.19 245.56 155.49 246.27 155.49 247.14 Z M 155.49 248.15 L 155.49 249.15 C 155.49 250.02 156.19 250.73 157.06 250.73 C 157.93 250.73 158.63 250.02 158.63 249.15 L 158.63 248.15 C 158.63 247.28 157.93 246.58 157.06 246.58 C 156.19 246.58 155.49 247.28 155.49 248.15 Z M 155.49 249.15 L 155.49 250.15 C 155.49 251.02 156.19 251.72 157.06 251.72 C 157.93 251.72 158.63 251.02 158.63 250.15 L 158.63 249.15 C 158.63 248.29 157.93 247.58 157.06 247.58 C 156.19 247.58 155.49 248.29 155.49 249.15 Z M 155.49 250.15 L 155.49 251.14 C 155.49 252.01 156.19 252.71 157.06 252.71 C 157.93 252.71 158.63 252.01 158.63 251.14 L 158.63 250.15 C 158.63 249.28 157.93 248.57 157.06 248.57 C 156.19 248.57 155.49 249.28 155.49 250.15 Z M 155.49 251.14 L 155.49 252.11 C 155.49 252.97 156.19 253.68 157.06 253.68 C 157.93 253.68 158.63 252.97 158.63 252.11 L 158.63 251.14 C 158.63 250.27 157.93 249.57 157.06 249.57 C 156.19 249.57 155.49 250.27 155.49 251.14 Z M 155.49 252.11 L 155.49 253.07 C 155.49 253.94 156.19 254.64 157.06 254.64 C 157.93 254.64 158.63 253.94 158.63 253.07 L 158.63 252.11 C 158.63 251.24 157.93 250.53 157.06 250.53 C 156.19 250.53 155.49 251.24 155.49 252.11 Z M 155.49 253.07 L 155.49 254.12 C 155.49 254.99 156.19 255.70 157.06 255.70 C 157.93 255.70 158.63 254.99 158.63 254.12 L 158.63 253.07 C 158.63 252.20 157.93 251.50 157.06 251.50 C 156.19 251.50 155.49 252.20 155.49 253.07 Z M 155.49 254.12 L 155.49 255.11 C 155.49 255.98 156.19 256.68 157.06 256.68 C 157.93 256.68 158.63 255.98 158.63 255.11 L 158.63 254.12 C 158.63 253.26 157.93 252.55 157.06 252.55 C 156.19 252.55 155.49 253.26 155.49 254.12 Z M 155.49 255.11 L 155.49 256.14 C 155.49 257.01 156.19 257.71 157.06 257.71 C 157.93 257.71 158.63 257.01 158.63 256.14 L 158.63 255.11 C 158.63 254.24 157.93 253.54 157.06 253.54 C 156.19 253.54 155.49 254.24 155.49 255.11 Z M 155.49 256.14 L 155.49 257.19 C 155.49 258.05 156.19 258.76 157.06 258.76 C 157.93 258.76 158.63 258.05 158.63 257.19 L 158.63 256.14 C 158.63 255.27 157.93 254.57 157.06 254.57 C 156.19 254.57 155.49 255.27 155.49 256.14 Z M 155.49 257.18 L 155.48 258.20 C 155.48 259.06 156.18 259.77 157.05 259.78 C 157.92 259.78 158.62 259.08 158.63 258.21 L 158.63 257.19 C 158.63 256.33 157.93 255.62 157.07 255.62 C 156.20 255.61 155.49 256.31 155.49 257.18 Z M 155.49 258.18 L 155.47 259.12 C 155.45 259.99 156.14 260.71 157.01 260.72 C 157.87 260.74 158.59 260.05 158.61 259.18 L 158.62 258.23 C 158.64 257.37 157.95 256.65 157.08 256.64 C 156.22 256.62 155.50 257.31 155.49 258.18 Z M 155.47 259.09 L 155.42 260.12 C 155.39 260.99 156.06 261.72 156.92 261.76 C 157.79 261.80 158.52 261.12 158.56 260.26 L 158.61 259.22 C 158.64 258.36 157.97 257.62 157.11 257.59 C 156.24 257.55 155.51 258.22 155.47 259.09 Z M 155.43 260.08 L 155.36 261.06 C 155.30 261.92 155.96 262.67 156.82 262.73 C 157.69 262.78 158.43 262.13 158.49 261.27 L 158.56 260.29 C 158.61 259.43 157.96 258.68 157.10 258.62 C 156.23 258.57 155.48 259.22 155.43 260.08 Z M 155.36 261.03 L 155.28 262.06 C 155.21 262.92 155.85 263.68 156.72 263.75 C 157.58 263.82 158.34 263.17 158.41 262.31 L 158.49 261.29 C 158.56 260.43 157.92 259.67 157.05 259.60 C 156.19 259.53 155.43 260.17 155.36 261.03 Z M 155.28 262.03 L 155.19 262.99 C 155.10 263.85 155.73 264.62 156.59 264.70 C 157.45 264.79 158.22 264.16 158.31 263.30 L 158.40 262.34 C 158.49 261.48 157.86 260.71 157.00 260.62 C 156.14 260.54 155.37 261.17 155.28 262.03 Z M 155.20 262.92 L 155.05 263.91 C 154.93 264.77 155.53 265.56 156.38 265.68 C 157.24 265.81 158.03 265.21 158.16 264.36 L 158.30 263.37 C 158.42 262.51 157.83 261.72 156.97 261.59 C 156.11 261.47 155.32 262.07 155.20 262.92 Z M 155.09 263.73 L 154.83 264.69 C 154.61 265.52 155.10 266.38 155.94 266.61 C 156.77 266.83 157.63 266.34 157.86 265.50 L 158.12 264.54 C 158.34 263.70 157.85 262.85 157.01 262.62 C 156.18 262.40 155.32 262.89 155.09 263.73 Z M 154.95 264.39 L 154.50 265.29 C 154.11 266.06 154.42 267.01 155.20 267.39 C 155.97 267.78 156.91 267.47 157.30 266.69 L 157.75 265.79 C 158.14 265.02 157.82 264.08 157.05 263.69 C 156.27 263.30 155.33 263.62 154.95 264.39 Z M 154.83 264.84 L 154.12 265.50 C 153.48 266.09 153.45 267.08 154.03 267.72 C 154.62 268.35 155.61 268.39 156.25 267.80 L 156.96 267.14 C 157.60 266.55 157.64 265.56 157.05 264.93 C 156.46 264.29 155.47 264.25 154.83 264.84 Z M 154.62 265.18 L 153.68 265.55 C 152.87 265.86 152.47 266.77 152.78 267.58 C 153.09 268.39 154.00 268.79 154.81 268.48 L 155.75 268.12 C 156.56 267.80 156.96 266.89 156.65 266.09 C 156.34 265.28 155.43 264.87 154.62 265.18 Z M 154.01 265.46 L 153.02 265.60 C 152.16 265.73 151.57 266.53 151.70 267.39 C 151.83 268.25 152.63 268.85 153.49 268.72 L 154.48 268.57 C 155.34 268.44 155.93 267.64 155.80 266.78 C 155.68 265.92 154.87 265.33 154.01 265.46 Z M 153.18 265.59 L 152.19 265.64 C 151.32 265.68 150.65 266.42 150.69 267.29 C 150.74 268.16 151.48 268.83 152.35 268.79 L 153.34 268.73 C 154.21 268.69 154.88 267.95 154.83 267.08 C 154.79 266.21 154.05 265.54 153.18 265.59 Z M 152.21 265.63 L 151.22 265.67 C 150.35 265.70 149.67 266.43 149.70 267.30 C 149.73 268.17 150.46 268.85 151.33 268.82 L 152.32 268.79 C 153.19 268.76 153.87 268.03 153.84 267.16 C 153.81 266.29 153.08 265.60 152.21 265.63 Z M 151.15 265.67 L 150.17 265.74 C 149.30 265.81 148.64 266.57 148.71 267.44 C 148.78 268.31 149.53 268.96 150.40 268.90 L 151.39 268.82 C 152.26 268.75 152.92 268.00 152.85 267.13 C 152.78 266.26 152.02 265.60 151.15 265.67 Z M 150.13 265.75 L 149.11 265.85 C 148.24 265.93 147.61 266.71 147.70 267.58 C 147.78 268.45 148.56 269.08 149.43 268.99 L 150.44 268.89 C 151.31 268.81 151.94 268.03 151.86 267.16 C 151.77 266.29 151.00 265.66 150.13 265.75 Z M 149.12 265.85 L 148.14 265.94 C 147.27 266.02 146.63 266.79 146.71 267.66 C 146.79 268.53 147.56 269.17 148.43 269.09 L 149.42 269.00 C 150.29 268.91 150.93 268.14 150.84 267.27 C 150.76 266.40 149.99 265.76 149.12 265.85 Z M 148.13 265.94 L 147.13 266.04 C 146.26 266.12 145.62 266.90 145.71 267.77 C 145.80 268.64 146.57 269.27 147.44 269.19 L 148.44 269.09 C 149.31 269.00 149.94 268.23 149.86 267.36 C 149.77 266.49 149.00 265.85 148.13 265.94 Z M 147.10 266.04 L 146.18 266.15 C 145.31 266.25 144.69 267.04 144.79 267.91 C 144.89 268.77 145.68 269.40 146.55 269.29 L 147.47 269.18 C 148.34 269.08 148.96 268.30 148.86 267.43 C 148.75 266.56 147.97 265.94 147.10 266.04 Z M 146.17 266.15 L 145.17 266.27 C 144.30 266.38 143.68 267.17 143.79 268.04 C 143.90 268.90 144.69 269.52 145.55 269.42 L 146.56 269.29 C 147.42 269.19 148.04 268.40 147.94 267.53 C 147.83 266.66 147.04 266.04 146.17 266.15 Z M 145.19 266.27 L 144.13 266.39 C 143.26 266.48 142.63 267.27 142.73 268.14 C 142.82 269.01 143.61 269.63 144.48 269.54 L 145.54 269.42 C 146.41 269.32 147.03 268.54 146.94 267.67 C 146.84 266.80 146.06 266.17 145.19 266.27 Z M 144.15 266.38 L 143.12 266.49 C 142.25 266.57 141.62 267.35 141.70 268.22 C 141.79 269.09 142.56 269.73 143.44 269.64 L 144.46 269.54 C 145.33 269.45 145.97 268.68 145.88 267.80 C 145.79 266.93 145.02 266.30 144.15 266.38 Z M 143.13 266.48 L 142.12 266.58 C 141.25 266.67 140.61 267.44 140.70 268.31 C 140.78 269.18 141.56 269.82 142.43 269.74 L 143.43 269.64 C 144.30 269.56 144.94 268.78 144.86 267.91 C 144.77 267.04 144.00 266.40 143.13 266.48 Z M 142.11 266.58 L 141.09 266.69 C 140.22 266.77 139.58 267.55 139.67 268.42 C 139.76 269.30 140.54 269.93 141.41 269.84 L 142.44 269.74 C 143.31 269.65 143.94 268.87 143.85 268.00 C 143.76 267.13 142.99 266.49 142.11 266.58 Z M 141.08 266.69 L 140.09 266.79 C 139.22 266.89 138.59 267.67 138.69 268.54 C 138.78 269.41 139.56 270.04 140.43 269.95 L 141.42 269.84 C 142.29 269.75 142.92 268.97 142.83 268.09 C 142.73 267.22 141.95 266.59 141.08 266.69 Z M 140.11 266.79 L 139.18 266.88 C 138.31 266.97 137.67 267.74 137.75 268.61 C 137.84 269.49 138.62 270.13 139.49 270.04 L 140.42 269.95 C 141.29 269.86 141.93 269.09 141.84 268.22 C 141.76 267.34 140.98 266.71 140.11 266.79 Z M 139.21 266.88 L 138.22 266.96 C 137.35 267.02 136.70 267.79 136.77 268.66 C 136.83 269.54 137.60 270.19 138.47 270.12 L 139.46 270.04 C 140.33 269.97 140.99 269.21 140.92 268.34 C 140.85 267.46 140.08 266.81 139.21 266.88 Z M 138.24 266.95 L 137.23 267.02 C 136.35 267.08 135.69 267.84 135.75 268.72 C 135.81 269.59 136.57 270.25 137.44 270.19 L 138.46 270.12 C 139.33 270.06 139.99 269.30 139.93 268.43 C 139.87 267.56 139.11 266.89 138.24 266.95 Z M 137.23 267.02 L 136.25 267.09 C 135.38 267.14 134.71 267.90 134.77 268.78 C 134.83 269.65 135.58 270.31 136.46 270.26 L 137.44 270.19 C 138.31 270.13 138.98 269.38 138.92 268.50 C 138.86 267.63 138.10 266.97 137.23 267.02 Z M 136.25 267.09 L 135.24 267.15 C 134.36 267.21 133.70 267.97 133.75 268.84 C 133.81 269.72 134.57 270.38 135.44 270.32 L 136.46 270.26 C 137.33 270.20 138.00 269.44 137.94 268.57 C 137.88 267.69 137.13 267.03 136.25 267.09 Z M 135.23 267.15 L 134.24 267.22 C 133.37 267.28 132.71 268.03 132.76 268.91 C 132.82 269.78 133.58 270.45 134.45 270.39 L 135.44 270.32 C 136.32 270.26 136.98 269.51 136.92 268.63 C 136.87 267.76 136.11 267.10 135.23 267.15 Z M 134.24 267.22 L 133.24 267.29 C 132.36 267.35 131.70 268.11 131.76 268.98 C 131.82 269.86 132.58 270.52 133.46 270.46 L 134.46 270.39 C 135.33 270.33 135.99 269.57 135.93 268.69 C 135.87 267.82 135.11 267.16 134.24 267.22 Z M 133.22 267.29 L 132.23 267.37 C 131.35 267.44 130.70 268.20 130.77 269.07 C 130.83 269.95 131.60 270.60 132.47 270.53 L 133.47 270.46 C 134.34 270.39 135.00 269.63 134.93 268.75 C 134.86 267.88 134.10 267.22 133.22 267.29 Z M 132.22 267.37 L 131.24 267.45 C 130.37 267.52 129.72 268.29 129.79 269.16 C 129.86 270.04 130.63 270.69 131.50 270.61 L 132.48 270.53 C 133.35 270.46 134.00 269.69 133.93 268.82 C 133.86 267.95 133.09 267.30 132.22 267.37 Z M 131.25 267.45 L 130.24 267.53 C 129.36 267.60 128.71 268.36 128.78 269.24 C 128.85 270.11 129.61 270.76 130.49 270.69 L 131.50 270.61 C 132.37 270.54 133.02 269.78 132.95 268.91 C 132.88 268.03 132.12 267.38 131.25 267.45 Z M 130.26 267.53 L 129.25 267.60 C 128.38 267.66 127.72 268.41 127.78 269.28 C 127.83 270.16 128.59 270.82 129.46 270.76 L 130.47 270.69 C 131.34 270.63 132.00 269.88 131.94 269.01 C 131.88 268.13 131.13 267.47 130.26 267.53 Z M 129.27 267.60 L 128.26 267.66 C 127.39 267.70 126.72 268.45 126.77 269.32 C 126.81 270.19 127.56 270.86 128.43 270.81 L 129.44 270.76 C 130.31 270.71 130.98 269.96 130.93 269.09 C 130.89 268.22 130.14 267.55 129.27 267.60 Z M 128.27 267.66 L 127.27 267.70 C 126.40 267.74 125.73 268.48 125.77 269.35 C 125.81 270.22 126.55 270.90 127.42 270.86 L 128.42 270.81 C 129.29 270.77 129.96 270.03 129.92 269.16 C 129.88 268.29 129.14 267.62 128.27 267.66 Z M 127.28 267.71 L 126.26 267.75 C 125.40 267.78 124.72 268.51 124.75 269.38 C 124.79 270.25 125.52 270.93 126.39 270.89 L 127.41 270.85 C 128.28 270.82 128.95 270.09 128.92 269.22 C 128.88 268.35 128.15 267.67 127.28 267.71 Z M 126.27 267.75 L 125.28 267.79 C 124.42 267.82 123.74 268.54 123.77 269.41 C 123.80 270.28 124.52 270.95 125.39 270.92 L 126.38 270.89 C 127.25 270.86 127.93 270.13 127.90 269.27 C 127.87 268.40 127.14 267.72 126.27 267.75 Z M 125.29 267.79 L 124.31 267.82 C 123.44 267.85 122.76 268.57 122.79 269.43 C 122.82 270.29 123.54 270.97 124.40 270.95 L 125.38 270.92 C 126.25 270.89 126.93 270.17 126.90 269.31 C 126.87 268.44 126.15 267.77 125.29 267.79 Z M 124.31 267.83 L 123.31 267.85 C 122.45 267.87 121.77 268.59 121.80 269.45 C 121.82 270.31 122.53 270.99 123.39 270.97 L 124.39 270.94 C 125.25 270.92 125.93 270.20 125.91 269.34 C 125.89 268.48 125.17 267.80 124.31 267.83 Z M 123.32 267.86 L 122.32 267.88 C 121.46 267.89 120.78 268.60 120.80 269.46 C 120.82 270.32 121.53 271.00 122.38 270.98 L 123.38 270.96 C 124.24 270.95 124.92 270.24 124.91 269.38 C 124.89 268.52 124.18 267.84 123.32 267.86 Z M 122.34 267.88 L 121.33 267.90 C 120.47 267.91 119.79 268.60 119.80 269.46 C 119.81 270.31 120.51 271.00 121.36 270.99 L 122.37 270.97 C 123.22 270.97 123.91 270.27 123.90 269.41 C 123.89 268.56 123.19 267.87 122.34 267.88 Z M 121.34 267.90 L 120.33 267.91 C 119.48 267.91 118.80 268.60 118.80 269.45 C 118.81 270.30 119.50 270.99 120.35 270.98 L 121.35 270.98 C 122.20 270.97 122.88 270.28 122.88 269.43 C 122.88 268.59 122.19 267.90 121.34 267.90 Z M 120.34 267.92 L 119.35 267.92 C 118.51 267.92 117.82 268.60 117.82 269.45 C 117.82 270.29 118.51 270.97 119.35 270.97 L 120.34 270.97 C 121.18 270.97 121.87 270.29 121.87 269.44 C 121.87 268.60 121.18 267.92 120.34 267.92 Z M 119.35 267.93 L 118.33 267.93 C 117.49 267.93 116.81 268.61 116.81 269.45 C 116.81 270.28 117.49 270.97 118.33 270.97 L 119.35 270.97 C 120.19 270.97 120.87 270.28 120.87 269.45 C 120.87 268.61 120.19 267.93 119.35 267.93 Z M 118.33 267.94 L 117.34 267.94 C 116.51 267.94 115.83 268.61 115.83 269.45 C 115.83 270.28 116.51 270.96 117.34 270.96 L 118.33 270.96 C 119.17 270.96 119.84 270.28 119.84 269.45 C 119.84 268.61 119.17 267.94 118.33 267.94 Z M 117.34 267.95 L 116.35 267.95 C 115.52 267.95 114.85 268.62 114.85 269.45 C 114.85 270.27 115.52 270.94 116.35 270.94 L 117.34 270.94 C 118.17 270.94 118.84 270.27 118.84 269.45 C 118.84 268.62 118.17 267.95 117.34 267.95 Z M 116.35 267.96 L 115.36 267.96 C 114.53 267.96 113.87 268.62 113.87 269.45 C 113.87 270.27 114.53 270.93 115.36 270.93 L 116.35 270.93 C 117.17 270.93 117.84 270.27 117.84 269.45 C 117.84 268.62 117.17 267.96 116.35 267.96 Z M 115.36 267.97 L 114.36 267.97 C 113.55 267.97 112.89 268.63 112.89 269.45 C 112.89 270.26 113.55 270.92 114.36 270.92 L 115.36 270.92 C 116.17 270.92 116.83 270.26 116.83 269.45 C 116.83 268.63 116.17 267.97 115.36 267.97 Z M 114.37 267.99 L 113.38 267.98 C 112.57 267.98 111.92 268.63 111.91 269.43 C 111.91 270.24 112.56 270.90 113.37 270.90 L 114.36 270.91 C 115.16 270.91 115.82 270.26 115.82 269.45 C 115.83 268.65 115.18 267.99 114.37 267.99 Z M 113.40 267.99 L 112.38 267.97 C 111.58 267.96 110.92 268.59 110.91 269.39 C 110.89 270.19 111.53 270.85 112.33 270.87 L 113.34 270.89 C 114.14 270.90 114.80 270.27 114.82 269.47 C 114.83 268.67 114.20 268.01 113.40 267.99 Z M 112.41 267.98 L 111.42 267.94 C 110.63 267.91 109.96 268.53 109.93 269.32 C 109.90 270.12 110.51 270.78 111.31 270.82 L 112.30 270.86 C 113.09 270.89 113.76 270.27 113.79 269.48 C 113.82 268.68 113.21 268.02 112.41 267.98 Z M 111.44 267.95 L 110.44 267.89 C 109.65 267.85 108.97 268.46 108.93 269.25 C 108.89 270.04 109.49 270.72 110.28 270.76 L 111.29 270.81 C 112.08 270.85 112.75 270.25 112.80 269.46 C 112.84 268.67 112.23 267.99 111.44 267.95 Z M 110.44 267.90 L 109.94 267.87 C 109.15 267.82 108.48 268.43 108.43 269.21 C 108.39 270.00 108.99 270.68 109.78 270.73 L 110.28 270.75 C 111.07 270.80 111.74 270.20 111.79 269.41 C 111.84 268.62 111.23 267.94 110.44 267.90 Z"
      fill="black"
      fill-rule="nonzero" /></svg>