<svg xmlns="http://www.w3.org/2000/svg" width="300" height="300" viewBox="0 0 300 300">
<path d="M 115.82 128.85 L 116.76 128.84 C 117.60 128.82 118.27 128.13 118.25 127.30 C 118.24 126.46 117.55 125.79 116.71 125.80 L 115.77 125.82 C 114.93 125.83 114.26 126.52 114.28 127.36 C 114.29 128.20 114.98 128.87 115.82 128.85 Z M 116.88 128.83 L 117.92 128.73 C 118.75 128.66 119.36 127.91 119.29 127.08 C 119.21 126.24 118.47 125.63 117.63 125.71 L 116.59 125.81 C 115.76 125.89 115.14 126.63 115.22 127.46 C 115.30 128.30 116.04 128.91 116.88 128.83 Z M 118.01 128.73 L 119.01 128.57 C 119.84 128.44 120.41 127.67 120.28 126.83 C 120.16 126.00 119.38 125.43 118.55 125.56 L 117.54 125.72 C 116.71 125.85 116.14 126.62 116.27 127.45 C 116.40 128.29 117.17 128.86 118.01 128.73 Z M 119.01 128.58 L 120.01 128.43 C 120.84 128.30 121.42 127.52 121.29 126.69 C 121.17 125.86 120.39 125.28 119.55 125.41 L 118.55 125.56 C 117.72 125.68 117.14 126.46 117.27 127.29 C 117.39 128.13 118.17 128.70 119.01 128.58 Z M 119.92 128.44 L 120.93 128.35 C 121.78 128.27 122.40 127.53 122.32 126.69 C 122.24 125.84 121.50 125.22 120.65 125.30 L 119.64 125.39 C 118.80 125.47 118.18 126.21 118.25 127.06 C 118.33 127.90 119.08 128.52 119.92 128.44 Z M 120.84 128.36 L 121.79 128.33 C 122.64 128.30 123.31 127.59 123.28 126.74 C 123.25 125.90 122.54 125.23 121.69 125.26 L 120.74 125.29 C 119.90 125.32 119.23 126.03 119.26 126.87 C 119.29 127.72 120.00 128.39 120.84 128.36 Z M 121.76 128.33 L 122.75 128.33 C 123.60 128.32 124.28 127.62 124.28 126.77 C 124.27 125.92 123.57 125.24 122.72 125.25 L 121.73 125.25 C 120.88 125.26 120.20 125.96 120.20 126.81 C 120.21 127.66 120.91 128.34 121.76 128.33 Z M 122.74 128.33 L 123.74 128.33 C 124.59 128.33 125.28 127.64 125.29 126.79 C 125.29 125.94 124.60 125.24 123.74 125.24 L 122.74 125.24 C 121.89 125.24 121.19 125.93 121.19 126.79 C 121.19 127.64 121.88 128.33 122.74 128.33 Z M 123.71 128.33 L 124.71 128.35 C 125.56 128.37 126.27 127.70 126.28 126.84 C 126.30 125.99 125.63 125.28 124.77 125.26 L 123.78 125.24 C 122.92 125.22 122.22 125.90 122.20 126.75 C 122.18 127.61 122.86 128.31 123.71 128.33 Z M 124.62 128.35 L 125.61 128.43 C 126.47 128.50 127.21 127.86 127.28 127.01 C 127.35 126.16 126.71 125.41 125.86 125.34 L 124.86 125.26 C 124.01 125.20 123.26 125.83 123.20 126.69 C 123.13 127.54 123.76 128.28 124.62 128.35 Z M 125.51 128.43 L 126.48 128.57 C 127.33 128.70 128.12 128.11 128.25 127.26 C 128.37 126.41 127.79 125.62 126.94 125.49 L 125.97 125.35 C 125.12 125.22 124.32 125.81 124.20 126.66 C 124.07 127.51 124.66 128.30 125.51 128.43 Z M 126.39 128.57 L 127.41 128.77 C 128.26 128.94 129.08 128.40 129.25 127.55 C 129.43 126.70 128.88 125.88 128.03 125.70 L 127.02 125.50 C 126.17 125.33 125.35 125.87 125.17 126.72 C 125.00 127.57 125.55 128.39 126.39 128.57 Z M 127.35 128.77 L 128.31 129.00 C 129.15 129.20 130.00 128.68 130.20 127.84 C 130.41 127.00 129.89 126.15 129.05 125.94 L 128.09 125.71 C 127.25 125.51 126.40 126.03 126.19 126.87 C 125.99 127.71 126.51 128.56 127.35 128.77 Z M 128.27 128.99 L 129.25 129.25 C 130.09 129.48 130.95 128.98 131.18 128.14 C 131.40 127.30 130.90 126.43 130.06 126.21 L 129.08 125.95 C 128.24 125.72 127.38 126.22 127.15 127.06 C 126.93 127.90 127.43 128.77 128.27 128.99 Z M 129.22 129.25 L 130.18 129.53 C 131.02 129.77 131.90 129.28 132.14 128.45 C 132.38 127.61 131.90 126.73 131.06 126.49 L 130.09 126.21 C 129.25 125.97 128.38 126.46 128.14 127.30 C 127.90 128.13 128.38 129.01 129.22 129.25 Z M 130.16 129.53 L 131.11 129.81 C 131.95 130.06 132.83 129.59 133.09 128.75 C 133.34 127.91 132.86 127.03 132.03 126.78 L 131.08 126.49 C 130.24 126.24 129.36 126.72 129.10 127.55 C 128.85 128.39 129.33 129.27 130.16 129.53 Z M 131.10 129.81 L 132.07 130.11 C 132.90 130.36 133.79 129.89 134.05 129.06 C 134.31 128.22 133.84 127.33 133.00 127.07 L 132.04 126.78 C 131.20 126.52 130.31 126.99 130.05 127.83 C 129.79 128.67 130.27 129.55 131.10 129.81 Z M 132.07 130.11 L 133.00 130.40 C 133.83 130.65 134.72 130.18 134.98 129.34 C 135.24 128.50 134.77 127.61 133.93 127.36 L 133.00 127.07 C 132.16 126.81 131.27 127.28 131.01 128.12 C 130.75 128.96 131.23 129.85 132.07 130.11 Z M 133.00 130.40 L 133.95 130.69 C 134.80 130.94 135.68 130.47 135.94 129.63 C 136.20 128.79 135.72 127.90 134.88 127.64 L 133.92 127.35 C 133.08 127.10 132.19 127.57 131.94 128.41 C 131.68 129.26 132.16 130.15 133.00 130.40 Z M 133.96 130.70 L 134.95 130.99 C 135.80 131.24 136.69 130.76 136.94 129.91 C 137.19 129.06 136.70 128.18 135.86 127.93 L 134.87 127.64 C 134.02 127.39 133.14 127.87 132.89 128.71 C 132.64 129.56 133.12 130.45 133.96 130.70 Z M 134.97 130.99 L 135.91 131.26 C 136.76 131.51 137.64 131.01 137.88 130.17 C 138.13 129.32 137.63 128.43 136.79 128.19 L 135.85 127.92 C 135.00 127.68 134.11 128.17 133.87 129.02 C 133.63 129.87 134.12 130.75 134.97 130.99 Z M 135.92 131.27 L 136.88 131.53 C 137.73 131.77 138.61 131.27 138.85 130.42 C 139.08 129.57 138.59 128.69 137.74 128.46 L 136.77 128.19 C 135.92 127.95 135.04 128.45 134.81 129.30 C 134.57 130.15 135.07 131.03 135.92 131.27 Z M 136.89 131.54 L 137.87 131.80 C 138.72 132.04 139.60 131.53 139.83 130.68 C 140.07 129.83 139.56 128.95 138.71 128.72 L 137.73 128.45 C 136.88 128.22 136.00 128.72 135.77 129.58 C 135.54 130.43 136.04 131.30 136.89 131.54 Z M 137.88 131.81 L 138.84 132.06 C 139.69 132.29 140.57 131.78 140.80 130.93 C 141.03 130.08 140.52 129.20 139.67 128.97 L 138.70 128.72 C 137.85 128.49 136.97 129.00 136.75 129.85 C 136.52 130.70 137.03 131.58 137.88 131.81 Z M 138.85 132.07 L 139.81 132.32 C 140.67 132.55 141.54 132.03 141.77 131.18 C 141.99 130.32 141.48 129.44 140.62 129.22 L 139.66 128.97 C 138.80 128.74 137.93 129.26 137.70 130.11 C 137.48 130.97 137.99 131.85 138.85 132.07 Z M 139.82 132.33 L 140.79 132.58 C 141.65 132.80 142.53 132.28 142.75 131.42 C 142.97 130.56 142.45 129.68 141.59 129.46 L 140.61 129.21 C 139.75 128.99 138.88 129.51 138.66 130.37 C 138.44 131.23 138.96 132.11 139.82 132.33 Z M 140.81 132.58 L 141.77 132.82 C 142.64 133.04 143.51 132.51 143.72 131.64 C 143.94 130.78 143.41 129.91 142.55 129.69 L 141.58 129.46 C 140.71 129.24 139.84 129.77 139.63 130.63 C 139.41 131.50 139.94 132.37 140.81 132.58 Z M 141.79 132.83 L 142.74 133.06 C 143.61 133.26 144.48 132.73 144.68 131.86 C 144.89 130.99 144.35 130.12 143.49 129.92 L 142.53 129.69 C 141.67 129.48 140.80 130.02 140.59 130.88 C 140.38 131.75 140.92 132.62 141.79 132.83 Z M 142.75 133.06 L 143.73 133.29 C 144.60 133.48 145.47 132.94 145.66 132.07 C 145.86 131.20 145.32 130.33 144.45 130.13 L 143.47 129.91 C 142.60 129.71 141.74 130.25 141.54 131.12 C 141.34 132.00 141.88 132.86 142.75 133.06 Z M 143.74 133.29 L 144.74 133.51 C 145.62 133.70 146.48 133.15 146.67 132.28 C 146.87 131.40 146.31 130.54 145.44 130.35 L 144.44 130.13 C 143.56 129.93 142.70 130.49 142.51 131.36 C 142.31 132.24 142.87 133.10 143.74 133.29 Z M 144.76 133.52 L 145.74 133.72 C 146.62 133.91 147.48 133.35 147.66 132.47 C 147.85 131.59 147.29 130.73 146.41 130.55 L 145.43 130.34 C 144.55 130.16 143.69 130.72 143.50 131.59 C 143.32 132.47 143.88 133.33 144.76 133.52 Z M 145.75 133.73 L 146.74 133.93 C 147.62 134.11 148.48 133.54 148.66 132.66 C 148.84 131.78 148.27 130.93 147.39 130.75 L 146.40 130.54 C 145.52 130.36 144.66 130.93 144.48 131.81 C 144.30 132.69 144.87 133.55 145.75 133.73 Z M 146.75 133.93 L 147.74 134.13 C 148.62 134.31 149.47 133.73 149.65 132.85 C 149.82 131.97 149.25 131.11 148.37 130.94 L 147.38 130.74 C 146.50 130.57 145.65 131.14 145.47 132.02 C 145.30 132.90 145.87 133.76 146.75 133.93 Z M 147.74 134.13 L 148.71 134.32 C 149.60 134.50 150.45 133.92 150.62 133.04 C 150.80 132.15 150.22 131.30 149.34 131.12 L 148.37 130.93 C 147.48 130.76 146.63 131.34 146.45 132.22 C 146.28 133.11 146.86 133.96 147.74 134.13 Z M 148.72 134.33 L 149.72 134.52 C 150.61 134.69 151.46 134.11 151.63 133.23 C 151.80 132.34 151.22 131.49 150.34 131.32 L 149.33 131.12 C 148.45 130.95 147.59 131.53 147.42 132.42 C 147.25 133.30 147.83 134.16 148.72 134.33 Z M 149.73 134.52 L 150.71 134.71 C 151.59 134.87 152.45 134.29 152.61 133.40 C 152.78 132.52 152.19 131.66 151.31 131.50 L 150.33 131.31 C 149.45 131.15 148.59 131.73 148.43 132.62 C 148.26 133.50 148.84 134.36 149.73 134.52 Z M 150.72 134.71 L 151.68 134.88 C 152.57 135.04 153.42 134.45 153.58 133.56 C 153.74 132.68 153.15 131.83 152.26 131.67 L 151.30 131.49 C 150.41 131.33 149.56 131.92 149.40 132.81 C 149.24 133.70 149.83 134.55 150.72 134.71 Z M 151.70 134.89 L 152.66 135.05 C 153.55 135.20 154.39 134.61 154.55 133.72 C 154.70 132.83 154.10 131.98 153.21 131.83 L 152.25 131.66 C 151.36 131.51 150.51 132.11 150.36 133.00 C 150.21 133.89 150.81 134.73 151.70 134.89 Z M 152.67 135.05 L 153.64 135.21 C 154.54 135.36 155.38 134.76 155.52 133.87 C 155.67 132.97 155.07 132.13 154.18 131.99 L 153.20 131.83 C 152.31 131.68 151.47 132.28 151.32 133.17 C 151.17 134.07 151.78 134.91 152.67 135.05 Z M 153.65 135.21 L 154.64 135.38 C 155.54 135.52 156.38 134.91 156.52 134.02 C 156.66 133.13 156.06 132.29 155.17 132.15 L 154.17 131.99 C 153.28 131.84 152.44 132.45 152.30 133.34 C 152.15 134.23 152.76 135.07 153.65 135.21 Z M 154.64 135.37 L 155.64 135.54 C 156.53 135.68 157.37 135.08 157.52 134.19 C 157.66 133.30 157.06 132.46 156.17 132.31 L 155.17 132.15 C 154.28 132.00 153.44 132.61 153.29 133.50 C 153.15 134.39 153.75 135.23 154.64 135.37 Z M 155.63 135.54 L 156.59 135.70 C 157.48 135.84 158.33 135.24 158.47 134.35 C 158.62 133.46 158.02 132.62 157.13 132.47 L 156.17 132.31 C 155.28 132.16 154.44 132.77 154.29 133.66 C 154.14 134.55 154.74 135.39 155.63 135.54 Z M 156.60 135.70 L 157.58 135.86 C 158.47 136.00 159.31 135.40 159.46 134.51 C 159.60 133.62 159.00 132.78 158.11 132.63 L 157.13 132.47 C 156.24 132.33 155.40 132.93 155.25 133.82 C 155.10 134.71 155.71 135.55 156.60 135.70 Z M 157.59 135.86 L 158.60 136.02 C 159.49 136.16 160.33 135.55 160.47 134.66 C 160.61 133.77 160.00 132.93 159.11 132.79 L 158.10 132.63 C 157.21 132.49 156.37 133.10 156.23 133.99 C 156.09 134.88 156.70 135.72 157.59 135.86 Z M 158.61 136.02 L 159.61 136.17 C 160.50 136.30 161.33 135.69 161.46 134.80 C 161.60 133.91 160.98 133.07 160.09 132.94 L 159.10 132.79 C 158.20 132.66 157.37 133.27 157.24 134.16 C 157.11 135.06 157.72 135.89 158.61 136.02 Z M 159.62 136.17 L 160.60 136.31 C 161.49 136.43 162.31 135.81 162.44 134.92 C 162.57 134.03 161.95 133.20 161.05 133.08 L 160.08 132.94 C 159.19 132.81 158.36 133.43 158.23 134.33 C 158.11 135.22 158.73 136.04 159.62 136.17 Z M 160.60 136.31 L 161.60 136.44 C 162.49 136.57 163.31 135.94 163.43 135.05 C 163.56 134.16 162.93 133.34 162.04 133.22 L 161.05 133.08 C 160.16 132.96 159.33 133.58 159.21 134.47 C 159.09 135.36 159.71 136.19 160.60 136.31 Z M 161.60 136.44 L 162.60 136.58 C 163.49 136.70 164.32 136.08 164.44 135.19 C 164.56 134.30 163.93 133.47 163.04 133.35 L 162.04 133.22 C 161.15 133.10 160.33 133.72 160.21 134.61 C 160.08 135.50 160.71 136.32 161.60 136.44 Z M 162.60 136.58 L 163.59 136.71 C 164.48 136.84 165.30 136.22 165.43 135.33 C 165.55 134.44 164.93 133.62 164.04 133.49 L 163.05 133.36 C 162.16 133.23 161.34 133.85 161.21 134.74 C 161.09 135.63 161.71 136.45 162.60 136.58 Z M 163.59 136.71 L 164.56 136.85 C 165.45 136.98 166.27 136.36 166.40 135.47 C 166.53 134.58 165.91 133.76 165.02 133.64 L 164.05 133.50 C 163.16 133.37 162.33 133.99 162.21 134.87 C 162.08 135.76 162.70 136.59 163.59 136.71 Z M 164.56 136.85 L 165.54 136.99 C 166.43 137.12 167.25 136.51 167.38 135.62 C 167.51 134.74 166.90 133.91 166.01 133.78 L 165.03 133.64 C 164.14 133.51 163.31 134.12 163.18 135.01 C 163.05 135.90 163.67 136.72 164.56 136.85 Z M 165.54 136.99 L 166.53 137.14 C 167.42 137.27 168.24 136.66 168.38 135.77 C 168.51 134.89 167.90 134.06 167.01 133.93 L 166.01 133.78 C 165.13 133.65 164.30 134.26 164.17 135.15 C 164.04 136.03 164.65 136.86 165.54 136.99 Z M 166.53 137.14 L 167.54 137.29 C 168.43 137.42 169.25 136.81 169.39 135.93 C 169.52 135.05 168.91 134.22 168.03 134.09 L 167.01 133.93 C 166.13 133.80 165.30 134.41 165.17 135.29 C 165.04 136.18 165.65 137.00 166.53 137.14 Z M 167.54 137.29 L 168.55 137.44 C 169.43 137.57 170.25 136.97 170.39 136.08 C 170.52 135.20 169.92 134.38 169.03 134.24 L 168.03 134.09 C 167.14 133.96 166.32 134.56 166.19 135.45 C 166.05 136.33 166.66 137.15 167.54 137.29 Z M 168.55 137.44 L 169.55 137.59 C 170.43 137.73 171.26 137.12 171.39 136.24 C 171.53 135.36 170.92 134.53 170.04 134.40 L 169.03 134.24 C 168.15 134.11 167.33 134.72 167.19 135.60 C 167.06 136.48 167.66 137.30 168.55 137.44 Z M 169.55 137.59 L 170.54 137.74 C 171.42 137.88 172.25 137.27 172.38 136.39 C 172.52 135.51 171.91 134.69 171.03 134.55 L 170.04 134.40 C 169.16 134.27 168.34 134.87 168.20 135.75 C 168.07 136.63 168.67 137.45 169.55 137.59 Z M 170.54 137.74 L 171.50 137.88 C 172.38 138.02 173.20 137.41 173.34 136.53 C 173.47 135.66 172.87 134.83 171.99 134.70 L 171.03 134.55 C 170.15 134.42 169.33 135.02 169.19 135.90 C 169.06 136.78 169.67 137.60 170.54 137.74 Z M 171.50 137.88 L 172.54 138.04 C 173.42 138.17 174.24 137.57 174.37 136.69 C 174.51 135.81 173.90 134.99 173.02 134.86 L 171.99 134.70 C 171.11 134.57 170.29 135.17 170.16 136.05 C 170.02 136.93 170.63 137.75 171.50 137.88 Z M 172.54 138.04 L 173.54 138.19 C 174.42 138.32 175.24 137.72 175.37 136.84 C 175.51 135.97 174.90 135.15 174.03 135.01 L 173.02 134.86 C 172.15 134.73 171.33 135.33 171.19 136.21 C 171.06 137.08 171.66 137.90 172.54 138.04 Z M 173.54 138.19 L 174.50 138.34 C 175.38 138.47 176.20 137.87 176.33 137.00 C 176.47 136.12 175.87 135.30 174.99 135.17 L 174.03 135.02 C 173.16 134.88 172.34 135.48 172.20 136.36 C 172.06 137.23 172.66 138.05 173.54 138.19 Z M 174.49 138.33 L 175.44 138.49 C 176.31 138.63 177.13 138.03 177.27 137.16 C 177.41 136.29 176.82 135.46 175.95 135.32 L 175.00 135.17 C 174.13 135.03 173.31 135.62 173.17 136.50 C 173.03 137.37 173.62 138.19 174.49 138.33 Z M 175.42 138.48 L 176.42 138.65 C 177.29 138.80 178.11 138.21 178.26 137.34 C 178.41 136.47 177.83 135.65 176.96 135.50 L 175.96 135.33 C 175.09 135.18 174.26 135.77 174.11 136.64 C 173.97 137.51 174.55 138.33 175.42 138.48 Z M 176.40 138.65 L 177.39 138.82 C 178.26 138.98 179.09 138.40 179.24 137.53 C 179.40 136.67 178.82 135.84 177.95 135.68 L 176.97 135.50 C 176.10 135.35 175.27 135.92 175.12 136.79 C 174.96 137.66 175.54 138.49 176.40 138.65 Z M 177.38 138.82 L 178.35 139.00 C 179.22 139.16 180.05 138.60 180.21 137.73 C 180.38 136.87 179.81 136.03 178.94 135.87 L 177.97 135.68 C 177.10 135.52 176.27 136.09 176.11 136.96 C 175.94 137.82 176.51 138.65 177.38 138.82 Z M 178.34 139.00 L 179.32 139.19 C 180.18 139.36 181.02 138.80 181.19 137.94 C 181.36 137.08 180.80 136.24 179.94 136.07 L 178.95 135.87 C 178.09 135.70 177.26 136.26 177.09 137.13 C 176.92 137.99 177.48 138.83 178.34 139.00 Z M 179.31 139.18 L 180.29 139.39 C 181.15 139.57 181.99 139.01 182.17 138.15 C 182.35 137.30 181.79 136.46 180.94 136.28 L 179.95 136.07 C 179.09 135.90 178.25 136.45 178.08 137.31 C 177.90 138.17 178.45 139.01 179.31 139.18 Z M 180.28 139.38 L 181.25 139.59 C 182.11 139.78 182.95 139.23 183.14 138.38 C 183.32 137.52 182.78 136.68 181.92 136.49 L 180.95 136.28 C 180.09 136.10 179.25 136.64 179.07 137.50 C 178.88 138.35 179.43 139.20 180.28 139.38 Z M 181.24 139.59 L 182.21 139.80 C 183.07 140.00 183.91 139.46 184.10 138.61 C 184.29 137.76 183.76 136.91 182.91 136.72 L 181.94 136.50 C 181.08 136.31 180.24 136.84 180.05 137.70 C 179.85 138.55 180.39 139.39 181.24 139.59 Z M 182.20 139.80 L 183.18 140.03 C 184.03 140.23 184.88 139.70 185.08 138.85 C 185.28 138.00 184.75 137.15 183.90 136.96 L 182.92 136.73 C 182.07 136.53 181.22 137.05 181.02 137.90 C 180.83 138.75 181.35 139.60 182.20 139.80 Z M 183.17 140.02 L 184.14 140.26 C 184.98 140.46 185.84 139.95 186.04 139.10 C 186.25 138.26 185.73 137.41 184.89 137.20 L 183.92 136.96 C 183.07 136.76 182.22 137.27 182.01 138.12 C 181.81 138.96 182.33 139.81 183.17 140.02 Z M 184.12 140.25 L 185.08 140.50 C 185.92 140.71 186.78 140.20 186.99 139.36 C 187.21 138.52 186.70 137.67 185.86 137.45 L 184.90 137.21 C 184.06 136.99 183.21 137.50 182.99 138.34 C 182.78 139.18 183.28 140.04 184.12 140.25 Z M 185.06 140.49 L 186.03 140.75 C 186.87 140.97 187.73 140.48 187.96 139.64 C 188.18 138.80 187.68 137.94 186.85 137.72 L 185.88 137.46 C 185.04 137.23 184.18 137.73 183.95 138.57 C 183.73 139.40 184.23 140.26 185.06 140.49 Z M 186.01 140.74 L 186.97 141.01 C 187.81 141.25 188.67 140.77 188.91 139.93 C 189.14 139.10 188.66 138.23 187.83 138.00 L 186.87 137.73 C 186.03 137.49 185.17 137.97 184.93 138.81 C 184.70 139.64 185.18 140.51 186.01 140.74 Z M 186.95 141.01 L 187.91 141.29 C 188.73 141.54 189.61 141.07 189.86 140.24 C 190.10 139.41 189.63 138.54 188.80 138.29 L 187.85 138.01 C 187.02 137.76 186.15 138.23 185.90 139.06 C 185.65 139.89 186.12 140.76 186.95 141.01 Z M 187.88 141.28 L 188.88 141.60 C 189.71 141.86 190.59 141.41 190.85 140.59 C 191.11 139.76 190.66 138.88 189.83 138.62 L 188.83 138.30 C 188.01 138.04 187.13 138.49 186.86 139.32 C 186.60 140.14 187.06 141.02 187.88 141.28 Z M 188.85 141.59 L 189.82 141.92 C 190.64 142.20 191.53 141.76 191.81 140.94 C 192.08 140.13 191.65 139.24 190.83 138.96 L 189.86 138.63 C 189.04 138.35 188.16 138.79 187.88 139.61 C 187.60 140.43 188.04 141.31 188.85 141.59 Z M 189.79 141.90 L 190.66 142.23 C 191.47 142.53 192.37 142.11 192.67 141.30 C 192.97 140.49 192.55 139.60 191.74 139.30 L 190.86 138.98 C 190.06 138.68 189.16 139.09 188.86 139.90 C 188.56 140.71 188.98 141.61 189.79 141.90 Z M 190.60 142.20 L 191.61 142.62 C 192.40 142.95 193.31 142.58 193.65 141.79 C 193.98 140.99 193.60 140.08 192.81 139.75 L 191.81 139.33 C 191.01 138.99 190.10 139.37 189.77 140.16 C 189.43 140.96 189.81 141.87 190.60 142.20 Z M 191.51 142.57 L 192.34 142.99 C 193.11 143.38 194.04 143.07 194.43 142.30 C 194.81 141.53 194.50 140.60 193.73 140.21 L 192.91 139.79 C 192.14 139.41 191.20 139.72 190.82 140.49 C 190.43 141.25 190.74 142.19 191.51 142.57 Z M 192.21 142.91 L 193.00 143.42 C 193.73 143.87 194.69 143.65 195.15 142.93 C 195.60 142.20 195.39 141.24 194.66 140.79 L 193.86 140.29 C 193.14 139.83 192.18 140.05 191.72 140.77 C 191.26 141.50 191.48 142.46 192.21 142.91 Z M 192.78 143.24 L 193.54 143.94 C 194.17 144.52 195.15 144.48 195.73 143.84 C 196.31 143.21 196.27 142.23 195.64 141.65 L 194.88 140.96 C 194.25 140.38 193.27 140.42 192.69 141.05 C 192.11 141.68 192.15 142.66 192.78 143.24 Z M 193.36 143.74 L 193.89 144.43 C 194.41 145.11 195.38 145.23 196.06 144.71 C 196.74 144.19 196.87 143.22 196.35 142.54 L 195.82 141.85 C 195.30 141.17 194.32 141.05 193.65 141.57 C 192.97 142.09 192.84 143.06 193.36 143.74 Z M 193.75 144.20 L 194.22 145.11 C 194.62 145.87 195.56 146.16 196.31 145.76 C 197.07 145.37 197.36 144.43 196.96 143.67 L 196.49 142.77 C 196.09 142.01 195.15 141.72 194.40 142.11 C 193.64 142.51 193.35 143.45 193.75 144.20 Z M 194.12 144.85 L 194.45 145.90 C 194.70 146.71 195.57 147.17 196.38 146.91 C 197.19 146.66 197.65 145.79 197.39 144.98 L 197.07 143.93 C 196.81 143.12 195.95 142.67 195.13 142.92 C 194.32 143.17 193.87 144.04 194.12 144.85 Z M 194.40 145.70 L 194.58 146.73 C 194.72 147.56 195.52 148.13 196.36 147.98 C 197.20 147.84 197.76 147.04 197.61 146.20 L 197.44 145.18 C 197.29 144.34 196.50 143.78 195.66 143.92 C 194.82 144.07 194.26 144.86 194.40 145.70 Z M 194.57 146.60 L 194.65 147.63 C 194.73 148.47 195.47 149.10 196.32 149.03 C 197.16 148.95 197.79 148.21 197.72 147.36 L 197.63 146.33 C 197.56 145.49 196.81 144.86 195.96 144.93 C 195.12 145.01 194.49 145.75 194.57 146.60 Z M 194.65 147.52 L 194.66 148.45 C 194.68 149.30 195.37 149.98 196.22 149.97 C 197.07 149.95 197.74 149.26 197.73 148.41 L 197.72 147.48 C 197.71 146.63 197.01 145.95 196.17 145.96 C 195.32 145.97 194.64 146.67 194.65 147.52 Z M 194.67 148.27 L 194.56 149.39 C 194.47 150.23 195.08 150.99 195.93 151.07 C 196.77 151.16 197.52 150.55 197.61 149.70 L 197.72 148.59 C 197.81 147.75 197.20 146.99 196.36 146.91 C 195.51 146.82 194.76 147.43 194.67 148.27 Z M 194.61 149.13 L 194.37 149.98 C 194.14 150.80 194.61 151.65 195.43 151.87 C 196.25 152.10 197.09 151.63 197.32 150.81 L 197.56 149.96 C 197.79 149.15 197.31 148.30 196.50 148.07 C 195.68 147.84 194.84 148.32 194.61 149.13 Z M 194.41 149.85 L 194.07 150.73 C 193.77 151.53 194.17 152.41 194.96 152.72 C 195.75 153.02 196.64 152.62 196.94 151.83 L 197.28 150.95 C 197.58 150.15 197.18 149.27 196.39 148.96 C 195.60 148.66 194.71 149.06 194.41 149.85 Z M 194.10 150.66 L 193.68 151.61 C 193.34 152.39 193.70 153.29 194.47 153.63 C 195.25 153.98 196.16 153.62 196.50 152.85 L 196.91 151.90 C 197.26 151.12 196.90 150.22 196.13 149.88 C 195.35 149.53 194.44 149.89 194.10 150.66 Z M 193.71 151.55 L 193.28 152.43 C 192.91 153.20 193.22 154.12 193.99 154.49 C 194.75 154.86 195.67 154.55 196.04 153.78 L 196.47 152.90 C 196.85 152.14 196.53 151.22 195.76 150.84 C 195.00 150.47 194.08 150.79 193.71 151.55 Z M 193.29 152.40 L 192.83 153.30 C 192.44 154.06 192.74 154.99 193.49 155.38 C 194.25 155.77 195.18 155.47 195.57 154.71 L 196.03 153.81 C 196.42 153.06 196.12 152.13 195.37 151.74 C 194.61 151.35 193.68 151.65 193.29 152.40 Z M 192.83 153.29 L 192.37 154.17 C 191.97 154.92 192.26 155.86 193.01 156.25 C 193.77 156.65 194.70 156.36 195.10 155.61 L 195.56 154.73 C 195.96 153.98 195.67 153.04 194.92 152.64 C 194.16 152.25 193.23 152.53 192.83 153.29 Z M 192.37 154.15 L 191.90 155.02 C 191.49 155.77 191.77 156.71 192.52 157.12 C 193.27 157.53 194.21 157.25 194.62 156.50 L 195.10 155.63 C 195.51 154.88 195.23 153.93 194.48 153.53 C 193.72 153.12 192.78 153.39 192.37 154.15 Z M 191.91 154.98 L 191.39 155.87 C 190.96 156.62 191.22 157.57 191.97 158.00 C 192.72 158.43 193.67 158.17 194.10 157.43 L 194.61 156.54 C 195.04 155.79 194.79 154.83 194.04 154.40 C 193.29 153.98 192.34 154.23 191.91 154.98 Z M 191.41 155.83 L 190.89 156.67 C 190.44 157.41 190.67 158.38 191.41 158.83 C 192.15 159.29 193.11 159.05 193.57 158.32 L 194.09 157.47 C 194.54 156.73 194.31 155.76 193.57 155.31 C 192.83 154.86 191.86 155.09 191.41 155.83 Z M 190.90 156.63 L 190.35 157.48 C 189.88 158.21 190.09 159.19 190.82 159.67 C 191.55 160.14 192.53 159.93 193.00 159.20 L 193.55 158.35 C 194.03 157.62 193.82 156.64 193.09 156.17 C 192.36 155.69 191.38 155.90 190.90 156.63 Z M 190.37 157.44 L 189.80 158.28 C 189.30 159.00 189.49 159.99 190.21 160.48 C 190.94 160.98 191.93 160.79 192.42 160.07 L 192.99 159.24 C 193.48 158.51 193.30 157.53 192.57 157.03 C 191.85 156.54 190.86 156.72 190.37 157.44 Z M 189.82 158.23 L 189.23 159.04 C 188.71 159.75 188.87 160.75 189.58 161.27 C 190.29 161.79 191.29 161.63 191.81 160.92 L 192.40 160.11 C 192.92 159.40 192.76 158.40 192.05 157.88 C 191.34 157.36 190.34 157.52 189.82 158.23 Z M 189.27 158.97 L 188.65 159.75 C 188.09 160.44 188.20 161.44 188.89 162.00 C 189.58 162.55 190.59 162.45 191.14 161.76 L 191.77 160.98 C 192.32 160.29 192.21 159.29 191.53 158.73 C 190.84 158.18 189.83 158.28 189.27 158.97 Z M 188.70 159.67 L 188.04 160.40 C 187.45 161.06 187.50 162.08 188.16 162.67 C 188.82 163.27 189.84 163.22 190.43 162.56 L 191.09 161.83 C 191.69 161.17 191.64 160.15 190.98 159.56 C 190.32 158.96 189.30 159.01 188.70 159.67 Z M 188.09 160.33 L 187.39 161.03 C 186.75 161.66 186.75 162.69 187.38 163.33 C 188.01 163.96 189.04 163.96 189.68 163.33 L 190.38 162.63 C 191.02 162.00 191.02 160.97 190.39 160.34 C 189.76 159.70 188.73 159.70 188.09 160.33 Z M 187.43 160.97 L 186.68 161.66 C 186.01 162.27 185.96 163.30 186.57 163.97 C 187.18 164.64 188.21 164.69 188.88 164.08 L 189.63 163.39 C 190.30 162.78 190.35 161.75 189.74 161.08 C 189.13 160.41 188.10 160.37 187.43 160.97 Z M 186.71 161.61 L 185.96 162.25 C 185.27 162.84 185.18 163.88 185.77 164.57 C 186.36 165.26 187.40 165.35 188.09 164.76 L 188.84 164.12 C 189.54 163.54 189.62 162.50 189.03 161.80 C 188.44 161.11 187.40 161.03 186.71 161.61 Z M 185.99 162.21 L 185.21 162.84 C 184.50 163.41 184.38 164.45 184.95 165.17 C 185.52 165.88 186.57 166.00 187.28 165.42 L 188.06 164.80 C 188.78 164.23 188.89 163.19 188.32 162.47 C 187.75 161.76 186.71 161.64 185.99 162.21 Z M 185.24 162.80 L 184.43 163.42 C 183.69 163.98 183.55 165.02 184.11 165.76 C 184.67 166.49 185.71 166.63 186.44 166.07 L 187.25 165.46 C 187.99 164.90 188.13 163.86 187.57 163.12 C 187.02 162.39 185.97 162.25 185.24 162.80 Z M 184.45 163.39 L 183.65 163.97 C 182.90 164.52 182.73 165.57 183.28 166.31 C 183.82 167.06 184.87 167.23 185.62 166.69 L 186.42 166.10 C 187.17 165.56 187.34 164.51 186.79 163.76 C 186.25 163.01 185.20 162.85 184.45 163.39 Z M 183.67 163.94 L 182.85 164.51 C 182.08 165.04 181.89 166.09 182.42 166.86 C 182.95 167.63 184.00 167.82 184.77 167.29 L 185.59 166.72 C 186.36 166.19 186.55 165.14 186.02 164.37 C 185.49 163.60 184.44 163.41 183.67 163.94 Z M 182.88 164.48 L 182.04 165.03 C 181.25 165.54 181.03 166.60 181.55 167.38 C 182.06 168.17 183.11 168.39 183.90 167.87 L 184.74 167.32 C 185.52 166.81 185.74 165.75 185.23 164.97 C 184.72 164.18 183.66 163.96 182.88 164.48 Z M 182.07 165.00 L 181.25 165.51 C 180.44 166.00 180.19 167.06 180.69 167.86 C 181.19 168.66 182.24 168.91 183.04 168.41 L 183.87 167.90 C 184.67 167.41 184.92 166.35 184.42 165.55 C 183.92 164.75 182.87 164.50 182.07 165.00 Z M 181.27 165.48 L 180.42 165.98 C 179.60 166.46 179.33 167.52 179.81 168.33 C 180.30 169.15 181.35 169.42 182.17 168.94 L 183.02 168.44 C 183.84 167.96 184.11 166.90 183.62 166.09 C 183.14 165.27 182.09 165.00 181.27 165.48 Z M 180.44 165.96 L 179.54 166.47 C 178.71 166.94 178.43 168.00 178.90 168.83 C 179.38 169.66 180.43 169.95 181.26 169.47 L 182.15 168.96 C 182.98 168.49 183.27 167.43 182.80 166.60 C 182.32 165.77 181.26 165.48 180.44 165.96 Z M 179.55 166.46 L 178.68 166.94 C 177.84 167.42 177.55 168.48 178.02 169.31 C 178.49 170.15 179.55 170.45 180.39 169.97 L 181.26 169.49 C 182.09 169.01 182.39 167.95 181.92 167.12 C 181.45 166.28 180.39 165.98 179.55 166.46 Z M 178.68 166.93 L 177.81 167.42 C 176.97 167.89 176.67 168.95 177.14 169.80 C 177.61 170.64 178.67 170.94 179.51 170.47 L 180.39 169.98 C 181.23 169.51 181.53 168.45 181.06 167.61 C 180.59 166.77 179.53 166.46 178.68 166.93 Z M 177.82 167.41 L 176.93 167.90 C 176.08 168.37 175.77 169.44 176.24 170.28 C 176.71 171.13 177.78 171.44 178.62 170.97 L 179.51 170.48 C 180.36 170.01 180.67 168.95 180.20 168.10 C 179.73 167.25 178.66 166.94 177.82 167.41 Z M 176.93 167.89 L 176.05 168.38 C 175.19 168.84 174.88 169.91 175.35 170.76 C 175.81 171.62 176.88 171.93 177.73 171.46 L 178.62 170.98 C 179.47 170.51 179.79 169.45 179.32 168.59 C 178.85 167.74 177.78 167.43 176.93 167.89 Z M 176.05 168.37 L 175.18 168.84 C 174.32 169.30 174.00 170.37 174.47 171.23 C 174.93 172.09 176.00 172.41 176.86 171.94 L 177.73 171.47 C 178.58 171.01 178.91 169.94 178.44 169.08 C 177.98 168.23 176.91 167.90 176.05 168.37 Z M 175.19 168.83 L 174.32 169.29 C 173.45 169.75 173.13 170.82 173.58 171.68 C 174.04 172.55 175.11 172.87 175.98 172.42 L 176.85 171.95 C 177.71 171.49 178.04 170.42 177.58 169.56 C 177.12 168.70 176.05 168.37 175.19 168.83 Z M 174.33 169.28 L 173.43 169.75 C 172.57 170.20 172.23 171.27 172.68 172.14 C 173.14 173.01 174.21 173.34 175.08 172.89 L 175.97 172.43 C 176.84 171.97 177.17 170.90 176.72 170.03 C 176.27 169.16 175.19 168.83 174.33 169.28 Z M 173.44 169.74 L 172.57 170.19 C 171.69 170.64 171.35 171.71 171.80 172.58 C 172.24 173.46 173.32 173.80 174.19 173.35 L 175.07 172.90 C 175.94 172.45 176.29 171.38 175.84 170.51 C 175.39 169.63 174.32 169.29 173.44 169.74 Z M 172.57 170.18 L 171.72 170.61 C 170.84 171.06 170.49 172.13 170.94 173.01 C 171.38 173.88 172.45 174.23 173.33 173.79 L 174.18 173.36 C 175.06 172.91 175.41 171.84 174.97 170.96 C 174.52 170.09 173.45 169.74 172.57 170.18 Z M 171.72 170.61 L 170.84 171.06 C 169.96 171.50 169.60 172.57 170.04 173.45 C 170.49 174.33 171.56 174.68 172.44 174.24 L 173.33 173.79 C 174.21 173.35 174.56 172.28 174.12 171.40 C 173.68 170.52 172.60 170.17 171.72 170.61 Z M 170.84 171.05 L 169.91 171.51 C 169.03 171.96 168.67 173.03 169.12 173.91 C 169.56 174.79 170.63 175.15 171.51 174.71 L 172.44 174.24 C 173.32 173.80 173.67 172.73 173.23 171.85 C 172.79 170.97 171.72 170.61 170.84 171.05 Z M 169.91 171.51 L 168.99 171.97 C 168.11 172.41 167.75 173.49 168.20 174.37 C 168.64 175.25 169.71 175.61 170.59 175.17 L 171.51 174.71 C 172.39 174.27 172.75 173.19 172.31 172.31 C 171.87 171.43 170.79 171.07 169.91 171.51 Z M 168.99 171.97 L 168.15 172.39 C 167.26 172.84 166.90 173.91 167.35 174.80 C 167.79 175.68 168.86 176.04 169.75 175.59 L 170.60 175.17 C 171.48 174.73 171.84 173.65 171.39 172.77 C 170.95 171.88 169.88 171.53 168.99 171.97 Z M 168.14 172.39 L 167.27 172.83 C 166.38 173.27 166.02 174.35 166.47 175.23 C 166.91 176.12 167.99 176.48 168.87 176.04 L 169.75 175.60 C 170.63 175.15 170.99 174.08 170.55 173.19 C 170.11 172.31 169.03 171.95 168.14 172.39 Z M 167.27 172.83 L 166.36 173.28 C 165.48 173.72 165.12 174.80 165.56 175.68 C 166.00 176.57 167.08 176.93 167.97 176.49 L 168.87 176.04 C 169.76 175.60 170.12 174.52 169.68 173.63 C 169.23 172.74 168.16 172.38 167.27 172.83 Z M 166.37 173.27 L 165.43 173.74 C 164.54 174.18 164.18 175.26 164.62 176.15 C 165.06 177.03 166.14 177.40 167.03 176.96 L 167.96 176.49 C 168.85 176.05 169.22 174.97 168.78 174.08 C 168.33 173.20 167.26 172.83 166.37 173.27 Z M 165.43 173.73 L 164.53 174.18 C 163.64 174.62 163.27 175.70 163.71 176.59 C 164.15 177.48 165.23 177.85 166.12 177.41 L 167.02 176.96 C 167.92 176.52 168.28 175.44 167.84 174.55 C 167.40 173.66 166.33 173.29 165.43 173.73 Z M 164.53 174.18 L 163.67 174.60 C 162.78 175.04 162.41 176.11 162.84 177.01 C 163.28 177.90 164.36 178.27 165.25 177.83 L 166.12 177.41 C 167.01 176.97 167.38 175.89 166.94 175.00 C 166.50 174.11 165.42 173.74 164.53 174.18 Z M 163.67 174.60 L 162.79 175.03 C 161.89 175.46 161.52 176.54 161.96 177.44 C 162.40 178.33 163.48 178.70 164.37 178.27 L 165.25 177.83 C 166.15 177.40 166.52 176.32 166.08 175.42 C 165.64 174.53 164.56 174.16 163.67 174.60 Z M 162.79 175.03 L 161.88 175.47 C 160.99 175.91 160.62 176.98 161.06 177.88 C 161.49 178.77 162.57 179.14 163.47 178.71 L 164.37 178.27 C 165.26 177.83 165.64 176.75 165.20 175.86 C 164.76 174.96 163.68 174.59 162.79 175.03 Z M 161.88 175.47 L 160.96 175.92 C 160.07 176.36 159.70 177.44 160.13 178.33 C 160.57 179.23 161.65 179.60 162.55 179.16 L 163.47 178.71 C 164.36 178.27 164.73 177.19 164.30 176.30 C 163.86 175.40 162.78 175.03 161.88 175.47 Z M 160.96 175.92 L 160.02 176.38 C 159.12 176.82 158.76 177.90 159.19 178.80 C 159.63 179.69 160.72 180.06 161.61 179.62 L 162.55 179.16 C 163.44 178.72 163.81 177.64 163.37 176.74 C 162.93 175.85 161.85 175.48 160.96 175.92 Z M 160.02 176.38 L 159.15 176.81 C 158.26 177.25 157.89 178.33 158.33 179.22 C 158.78 180.12 159.86 180.49 160.75 180.04 L 161.61 179.62 C 162.51 179.18 162.87 178.10 162.43 177.20 C 161.99 176.31 160.91 175.94 160.02 176.38 Z M 159.15 176.81 L 158.29 177.23 C 157.40 177.68 157.03 178.76 157.47 179.65 C 157.92 180.55 159.00 180.91 159.89 180.47 L 160.75 180.04 C 161.65 179.60 162.01 178.52 161.57 177.62 C 161.13 176.73 160.04 176.36 159.15 176.81 Z M 158.29 177.23 L 157.41 177.67 C 156.52 178.11 156.15 179.20 156.60 180.09 C 157.04 180.99 158.13 181.35 159.02 180.91 L 159.90 180.47 C 160.79 180.03 161.15 178.94 160.71 178.05 C 160.27 177.15 159.18 176.79 158.29 177.23 Z M 157.41 177.67 L 156.51 178.12 C 155.62 178.56 155.26 179.65 155.70 180.54 C 156.15 181.43 157.23 181.80 158.13 181.35 L 159.02 180.90 C 159.91 180.46 160.28 179.37 159.83 178.48 C 159.39 177.59 158.30 177.23 157.41 177.67 Z M 156.51 178.12 L 155.60 178.57 C 154.70 179.02 154.34 180.11 154.79 181.00 C 155.23 181.89 156.32 182.26 157.21 181.81 L 158.13 181.35 C 159.02 180.91 159.38 179.82 158.94 178.93 C 158.49 178.03 157.41 177.67 156.51 178.12 Z M 155.60 178.57 L 154.66 179.04 C 153.76 179.49 153.40 180.58 153.85 181.47 C 154.29 182.36 155.38 182.73 156.27 182.28 L 157.21 181.81 C 158.11 181.36 158.47 180.28 158.02 179.38 C 157.57 178.49 156.49 178.13 155.60 178.57 Z M 154.66 179.04 L 153.75 179.50 C 152.86 179.94 152.50 181.03 152.94 181.92 C 153.39 182.82 154.48 183.18 155.37 182.73 L 156.27 182.28 C 157.17 181.83 157.53 180.75 157.08 179.85 C 156.64 178.96 155.55 178.60 154.66 179.04 Z M 153.75 179.49 L 152.88 179.93 C 151.99 180.38 151.62 181.46 152.07 182.36 C 152.52 183.25 153.60 183.61 154.50 183.17 L 155.37 182.73 C 156.26 182.29 156.63 181.20 156.18 180.30 C 155.73 179.41 154.65 179.05 153.75 179.49 Z M 152.88 179.93 L 151.99 180.37 C 151.10 180.82 150.74 181.90 151.18 182.80 C 151.63 183.69 152.71 184.06 153.61 183.61 L 154.50 183.17 C 155.39 182.72 155.75 181.64 155.31 180.74 C 154.86 179.85 153.78 179.48 152.88 179.93 Z M 152.00 180.37 L 151.10 180.82 C 150.20 181.26 149.84 182.35 150.28 183.24 C 150.72 184.14 151.81 184.50 152.71 184.06 L 153.60 183.61 C 154.50 183.17 154.87 182.08 154.42 181.19 C 153.98 180.29 152.89 179.93 152.00 180.37 Z M 151.10 180.81 L 150.19 181.26 C 149.30 181.70 148.93 182.79 149.37 183.68 C 149.81 184.58 150.90 184.95 151.79 184.51 L 152.70 184.06 C 153.60 183.62 153.97 182.53 153.52 181.64 C 153.08 180.74 152.00 180.37 151.10 180.81 Z M 150.20 181.26 L 149.29 181.71 C 148.39 182.15 148.02 183.23 148.46 184.13 C 148.89 185.02 149.98 185.40 150.88 184.96 L 151.79 184.51 C 152.69 184.07 153.06 182.99 152.62 182.09 C 152.18 181.19 151.10 180.82 150.20 181.26 Z M 149.29 181.70 L 148.38 182.15 C 147.48 182.58 147.10 183.66 147.54 184.56 C 147.97 185.46 149.06 185.84 149.96 185.40 L 150.87 184.96 C 151.77 184.52 152.15 183.44 151.71 182.54 C 151.27 181.64 150.19 181.27 149.29 181.70 Z M 148.38 182.14 L 147.48 182.58 C 146.57 183.01 146.19 184.09 146.63 184.99 C 147.06 185.89 148.14 186.27 149.04 185.84 L 149.95 185.41 C 150.85 184.97 151.23 183.89 150.80 182.99 C 150.37 182.09 149.29 181.71 148.38 182.14 Z M 147.48 182.57 L 146.58 183.00 C 145.68 183.43 145.29 184.51 145.72 185.41 C 146.15 186.31 147.23 186.70 148.13 186.27 L 149.03 185.85 C 149.93 185.42 150.32 184.34 149.89 183.44 C 149.47 182.53 148.39 182.15 147.48 182.57 Z M 146.59 183.00 L 145.69 183.42 C 144.79 183.84 144.40 184.92 144.82 185.82 C 145.24 186.73 146.32 187.12 147.22 186.70 L 148.12 186.28 C 149.03 185.85 149.42 184.78 149.00 183.87 C 148.57 182.97 147.50 182.58 146.59 183.00 Z M 145.70 183.41 L 144.80 183.83 C 143.89 184.24 143.49 185.32 143.91 186.22 C 144.33 187.13 145.40 187.53 146.31 187.11 L 147.21 186.70 C 148.12 186.28 148.52 185.21 148.10 184.30 C 147.68 183.40 146.61 183.00 145.70 183.41 Z M 144.81 183.82 L 143.90 184.23 C 142.99 184.64 142.59 185.71 143.00 186.62 C 143.41 187.53 144.48 187.94 145.39 187.53 L 146.30 187.12 C 147.21 186.71 147.61 185.64 147.20 184.73 C 146.79 183.82 145.72 183.41 144.81 183.82 Z M 143.92 184.23 L 143.00 184.63 C 142.09 185.03 141.68 186.10 142.08 187.01 C 142.48 187.93 143.55 188.34 144.46 187.94 L 145.38 187.53 C 146.29 187.13 146.70 186.06 146.30 185.15 C 145.90 184.24 144.83 183.82 143.92 184.23 Z M 143.02 184.63 L 142.09 185.03 C 141.18 185.42 140.75 186.49 141.15 187.40 C 141.55 188.32 142.61 188.74 143.52 188.34 L 144.45 187.94 C 145.36 187.54 145.78 186.48 145.39 185.57 C 144.99 184.65 143.93 184.23 143.02 184.63 Z M 142.10 185.02 L 141.18 185.41 C 140.26 185.80 139.83 186.86 140.22 187.78 C 140.61 188.70 141.66 189.13 142.58 188.74 L 143.51 188.35 C 144.43 187.96 144.86 186.90 144.47 185.98 C 144.08 185.06 143.02 184.63 142.10 185.02 Z M 141.19 185.41 L 140.28 185.78 C 139.36 186.17 138.93 187.22 139.31 188.14 C 139.69 189.06 140.74 189.50 141.66 189.12 L 142.57 188.74 C 143.49 188.36 143.93 187.31 143.55 186.39 C 143.16 185.47 142.11 185.03 141.19 185.41 Z M 140.29 185.78 L 139.38 186.15 C 138.46 186.53 138.01 187.58 138.39 188.50 C 138.76 189.43 139.81 189.87 140.74 189.50 L 141.65 189.12 C 142.58 188.75 143.02 187.69 142.65 186.77 C 142.27 185.85 141.22 185.40 140.29 185.78 Z M 139.39 186.15 L 138.46 186.52 C 137.54 186.89 137.09 187.94 137.46 188.86 C 137.83 189.79 138.88 190.24 139.80 189.87 L 140.73 189.50 C 141.65 189.13 142.10 188.08 141.73 187.15 C 141.36 186.23 140.31 185.78 139.39 186.15 Z M 138.47 186.51 L 137.54 186.88 C 136.61 187.25 136.15 188.30 136.52 189.22 C 136.89 190.15 137.93 190.61 138.86 190.24 L 139.80 189.87 C 140.72 189.51 141.18 188.46 140.81 187.53 C 140.45 186.60 139.40 186.15 138.47 186.51 Z M 137.54 186.88 L 136.60 187.24 C 135.67 187.61 135.21 188.65 135.58 189.58 C 135.94 190.51 136.99 190.97 137.92 190.61 L 138.86 190.25 C 139.78 189.88 140.24 188.84 139.88 187.91 C 139.52 186.98 138.47 186.52 137.54 186.88 Z M 136.61 187.24 L 135.67 187.61 C 134.73 187.97 134.27 189.01 134.63 189.94 C 134.99 190.87 136.04 191.34 136.97 190.98 L 137.91 190.61 C 138.84 190.25 139.31 189.21 138.95 188.28 C 138.59 187.35 137.54 186.88 136.61 187.24 Z M 135.67 187.60 L 134.72 187.97 C 133.79 188.32 133.33 189.37 133.68 190.30 C 134.04 191.23 135.09 191.70 136.02 191.34 L 136.96 190.98 C 137.90 190.62 138.36 189.58 138.00 188.65 C 137.65 187.71 136.60 187.25 135.67 187.60 Z M 134.73 187.97 L 133.79 188.32 C 132.85 188.68 132.38 189.73 132.74 190.66 C 133.10 191.59 134.14 192.06 135.07 191.70 L 136.01 191.34 C 136.95 190.99 137.42 189.94 137.06 189.01 C 136.70 188.08 135.66 187.61 134.73 187.97 Z M 133.79 188.32 L 132.85 188.68 C 131.92 189.03 131.45 190.08 131.80 191.01 C 132.16 191.95 133.20 192.42 134.13 192.06 L 135.07 191.70 C 136.00 191.35 136.47 190.31 136.12 189.37 C 135.77 188.44 134.72 187.97 133.79 188.32 Z M 132.85 188.68 L 131.91 189.03 C 130.98 189.39 130.51 190.43 130.86 191.36 C 131.22 192.30 132.26 192.77 133.19 192.42 L 134.13 192.06 C 135.06 191.71 135.54 190.66 135.18 189.73 C 134.83 188.80 133.79 188.33 132.85 188.68 Z M 131.92 189.03 L 130.98 189.39 C 130.04 189.74 129.57 190.78 129.92 191.71 C 130.28 192.65 131.32 193.12 132.25 192.77 L 133.19 192.42 C 134.13 192.07 134.60 191.02 134.25 190.09 C 133.89 189.15 132.85 188.68 131.92 189.03 Z M 130.98 189.38 L 130.05 189.73 C 129.11 190.09 128.64 191.13 128.99 192.06 C 129.34 193.00 130.38 193.47 131.31 193.12 L 132.25 192.77 C 133.19 192.42 133.66 191.38 133.31 190.44 C 132.96 189.51 131.92 189.03 130.98 189.38 Z M 130.05 189.73 L 129.11 190.08 C 128.18 190.43 127.70 191.47 128.05 192.41 C 128.40 193.34 129.44 193.82 130.38 193.47 L 131.31 193.12 C 132.25 192.77 132.72 191.73 132.37 190.80 C 132.03 189.86 130.98 189.38 130.05 189.73 Z M 129.12 190.08 L 128.18 190.43 C 127.24 190.78 126.77 191.82 127.11 192.75 C 127.46 193.69 128.50 194.17 129.44 193.82 L 130.37 193.47 C 131.31 193.13 131.79 192.09 131.44 191.15 C 131.09 190.21 130.05 189.73 129.12 190.08 Z M 128.18 190.43 L 127.25 190.77 C 126.31 191.12 125.83 192.16 126.18 193.09 C 126.52 194.03 127.56 194.51 128.50 194.17 L 129.44 193.82 C 130.37 193.48 130.85 192.44 130.51 191.50 C 130.16 190.56 129.12 190.08 128.18 190.43 Z M 127.25 190.77 L 126.31 191.11 C 125.38 191.46 124.89 192.50 125.24 193.44 C 125.58 194.37 126.62 194.85 127.56 194.51 L 128.50 194.17 C 129.44 193.82 129.92 192.78 129.57 191.84 C 129.23 190.91 128.19 190.43 127.25 190.77 Z M 126.32 191.11 L 125.38 191.46 C 124.44 191.80 123.96 192.84 124.30 193.78 C 124.64 194.71 125.68 195.20 126.62 194.85 L 127.56 194.51 C 128.50 194.17 128.98 193.13 128.64 192.19 C 128.29 191.25 127.25 190.77 126.32 191.11 Z M 125.38 191.46 L 124.44 191.80 C 123.50 192.14 123.02 193.18 123.36 194.12 C 123.70 195.06 124.74 195.54 125.68 195.20 L 126.62 194.86 C 127.56 194.51 128.04 193.47 127.70 192.54 C 127.35 191.60 126.32 191.11 125.38 191.46 Z M 124.44 191.80 L 123.50 192.14 C 122.56 192.48 122.08 193.52 122.42 194.46 C 122.76 195.40 123.80 195.88 124.74 195.54 L 125.68 195.20 C 126.62 194.85 127.10 193.82 126.76 192.88 C 126.42 191.94 125.38 191.46 124.44 191.80 Z M 123.50 192.14 L 122.56 192.48 C 121.62 192.83 121.14 193.87 121.48 194.80 C 121.83 195.74 122.87 196.23 123.81 195.88 L 124.74 195.54 C 125.68 195.20 126.16 194.16 125.82 193.22 C 125.48 192.28 124.44 191.80 123.50 192.14 Z M 122.56 192.49 L 121.62 192.83 C 120.68 193.17 120.20 194.21 120.55 195.15 C 120.89 196.09 121.93 196.57 122.87 196.23 L 123.81 195.88 C 124.75 195.54 125.23 194.50 124.88 193.56 C 124.54 192.62 123.50 192.14 122.56 192.49 Z M 121.62 192.83 L 120.68 193.18 C 119.74 193.53 119.26 194.57 119.61 195.50 C 119.96 196.44 121.00 196.92 121.93 196.57 L 122.87 196.22 C 123.81 195.88 124.29 194.84 123.94 193.90 C 123.59 192.96 122.55 192.48 121.62 192.83 Z M 120.67 193.18 L 119.74 193.53 C 118.81 193.88 118.33 194.92 118.68 195.86 C 119.03 196.79 120.07 197.27 121.01 196.92 L 121.94 196.57 C 122.87 196.22 123.35 195.18 123.00 194.24 C 122.65 193.31 121.61 192.83 120.67 193.18 Z M 119.74 193.53 L 118.82 193.88 C 117.88 194.23 117.41 195.27 117.76 196.21 C 118.11 197.14 119.16 197.62 120.09 197.26 L 121.01 196.92 C 121.95 196.56 122.42 195.52 122.07 194.59 C 121.71 193.65 120.67 193.18 119.74 193.53 Z M 118.81 193.88 L 117.89 194.23 C 116.95 194.59 116.48 195.63 116.84 196.57 C 117.20 197.50 118.24 197.97 119.17 197.61 L 120.10 197.26 C 121.03 196.90 121.50 195.86 121.14 194.93 C 120.79 193.99 119.74 193.53 118.81 193.88 Z M 117.88 194.24 L 116.95 194.59 C 116.02 194.95 115.56 196.00 115.92 196.93 C 116.28 197.86 117.32 198.33 118.25 197.97 L 119.18 197.61 C 120.11 197.25 120.58 196.20 120.22 195.27 C 119.86 194.34 118.81 193.88 117.88 194.24 Z M 116.95 194.60 L 116.02 194.96 C 115.09 195.32 114.63 196.37 114.99 197.30 C 115.35 198.23 116.40 198.69 117.33 198.33 L 118.26 197.96 C 119.19 197.60 119.65 196.55 119.29 195.62 C 118.92 194.69 117.88 194.23 116.95 194.60 Z M 116.01 194.96 L 115.08 195.33 C 114.15 195.70 113.69 196.75 114.06 197.68 C 114.42 198.60 115.47 199.06 116.40 198.69 L 117.34 198.32 C 118.26 197.96 118.72 196.91 118.35 195.98 C 117.99 195.05 116.94 194.60 116.01 194.96 Z M 115.07 195.33 L 114.13 195.71 C 113.20 196.08 112.75 197.13 113.12 198.06 C 113.49 198.98 114.54 199.43 115.47 199.06 L 116.41 198.69 C 117.33 198.32 117.79 197.27 117.42 196.34 C 117.05 195.42 115.99 194.96 115.07 195.33 Z M 114.12 195.71 L 113.18 196.10 C 112.25 196.47 111.81 197.52 112.18 198.45 C 112.55 199.37 113.61 199.82 114.53 199.44 L 115.48 199.06 C 116.40 198.69 116.85 197.63 116.47 196.71 C 116.10 195.79 115.05 195.34 114.12 195.71 Z M 113.17 196.10 L 112.22 196.49 C 111.30 196.87 110.85 197.92 111.23 198.85 C 111.61 199.77 112.67 200.21 113.59 199.83 L 114.54 199.44 C 115.46 199.06 115.90 198.01 115.52 197.09 C 115.15 196.16 114.09 195.72 113.17 196.10 Z M 112.21 196.49 L 111.26 196.89 C 110.34 197.27 109.90 198.33 110.28 199.25 C 110.66 200.17 111.72 200.61 112.64 200.22 L 113.59 199.83 C 114.51 199.44 114.95 198.39 114.57 197.47 C 114.19 196.55 113.13 196.11 112.21 196.49 Z M 111.25 196.90 L 110.30 197.30 C 109.38 197.68 108.95 198.74 109.34 199.66 C 109.72 200.58 110.78 201.01 111.70 200.62 L 112.65 200.22 C 113.57 199.83 114.00 198.77 113.61 197.86 C 113.22 196.94 112.17 196.51 111.25 196.90 Z M 110.29 197.30 L 109.35 197.70 C 108.43 198.10 108.01 199.15 108.40 200.07 C 108.79 200.98 109.85 201.41 110.76 201.02 L 111.71 200.62 C 112.62 200.22 113.05 199.16 112.65 198.25 C 112.26 197.33 111.20 196.91 110.29 197.30 Z M 109.34 197.71 L 108.41 198.11 C 107.50 198.51 107.08 199.57 107.48 200.48 C 107.87 201.39 108.93 201.81 109.85 201.42 L 110.77 201.01 C 111.69 200.62 112.10 199.56 111.71 198.64 C 111.31 197.73 110.25 197.31 109.34 197.71 Z M 108.40 198.12 L 107.50 198.52 C 106.59 198.92 106.18 199.98 106.58 200.89 C 106.98 201.80 108.04 202.21 108.95 201.81 L 109.86 201.41 C 110.77 201.01 111.18 199.95 110.78 199.04 C 110.37 198.13 109.31 197.71 108.40 198.12 Z M 107.49 198.52 L 106.61 198.92 C 105.70 199.32 105.30 200.39 105.70 201.30 C 106.11 202.20 107.18 202.61 108.08 202.20 L 108.96 201.80 C 109.87 201.40 110.27 200.33 109.87 199.42 C 109.46 198.52 108.39 198.11 107.49 198.52 Z M 106.60 198.92 L 105.75 199.31 C 104.85 199.73 104.45 200.79 104.87 201.70 C 105.28 202.60 106.35 203.00 107.25 202.58 L 108.10 202.19 C 109.00 201.78 109.40 200.71 108.98 199.81 C 108.57 198.90 107.50 198.51 106.60 198.92 Z M 105.73 199.32 L 104.73 199.79 C 103.83 200.22 103.45 201.29 103.87 202.18 C 104.29 203.08 105.36 203.47 106.26 203.05 L 107.27 202.57 C 108.17 202.15 108.55 201.08 108.13 200.18 C 107.70 199.28 106.63 198.90 105.73 199.32 Z M 104.71 199.80 L 103.76 200.26 C 102.86 200.70 102.49 201.77 102.92 202.66 C 103.35 203.56 104.43 203.93 105.32 203.50 L 106.28 203.04 C 107.17 202.60 107.55 201.53 107.11 200.64 C 106.68 199.74 105.61 199.37 104.71 199.80 Z M 103.74 200.27 L 102.83 200.72 C 101.94 201.17 101.58 202.24 102.02 203.13 C 102.46 204.02 103.54 204.38 104.43 203.94 L 105.34 203.49 C 106.23 203.05 106.59 201.97 106.15 201.08 C 105.71 200.20 104.63 199.83 103.74 200.27 Z M 102.82 200.73 L 101.95 201.17 C 101.07 201.62 100.71 202.70 101.16 203.58 C 101.61 204.47 102.69 204.82 103.57 204.37 L 104.44 203.93 C 105.32 203.48 105.68 202.41 105.23 201.52 C 104.78 200.64 103.70 200.29 102.82 200.73 Z M 101.94 201.18 L 101.10 201.61 C 100.23 202.07 99.88 203.15 100.33 204.03 C 100.79 204.91 101.87 205.25 102.75 204.80 L 103.58 204.37 C 104.46 203.91 104.81 202.83 104.35 201.95 C 103.90 201.07 102.82 200.73 101.94 201.18 Z M 101.10 201.62 L 100.29 202.04 C 99.41 202.50 99.07 203.58 99.53 204.46 C 99.99 205.33 101.07 205.67 101.95 205.21 L 102.76 204.79 C 103.63 204.33 103.97 203.25 103.51 202.37 C 103.05 201.50 101.97 201.16 101.10 201.62 Z M 100.28 202.05 L 99.37 202.53 C 98.50 202.99 98.16 204.07 98.63 204.95 C 99.09 205.82 100.17 206.15 101.04 205.69 L 101.95 205.21 C 102.83 204.75 103.16 203.67 102.70 202.79 C 102.24 201.92 101.15 201.59 100.28 202.05 Z M 99.37 202.53 L 98.46 203.02 C 97.59 203.48 97.26 204.56 97.72 205.44 C 98.18 206.31 99.26 206.64 100.13 206.17 L 101.05 205.69 C 101.92 205.22 102.25 204.14 101.78 203.27 C 101.32 202.40 100.24 202.07 99.37 202.53 Z M 98.45 203.02 L 97.57 203.50 C 96.70 203.96 96.37 205.04 96.84 205.91 C 97.30 206.78 98.38 207.11 99.25 206.64 L 100.14 206.17 C 101.01 205.70 101.33 204.62 100.87 203.75 C 100.40 202.89 99.32 202.56 98.45 203.02 Z M 97.57 203.50 L 96.70 203.97 C 95.83 204.43 95.51 205.51 95.97 206.38 C 96.44 207.24 97.52 207.57 98.39 207.10 L 99.25 206.64 C 100.12 206.18 100.44 205.10 99.98 204.23 C 99.51 203.36 98.43 203.04 97.57 203.50 Z M 96.70 203.97 L 95.86 204.42 C 95.00 204.88 94.67 205.96 95.14 206.83 C 95.60 207.69 96.68 208.02 97.54 207.55 L 98.38 207.10 C 99.25 206.64 99.58 205.56 99.11 204.69 C 98.65 203.83 97.57 203.50 96.70 203.97 Z M 95.87 204.42 L 94.96 204.90 C 94.10 205.36 93.77 206.44 94.23 207.30 C 94.70 208.17 95.77 208.50 96.64 208.03 L 97.54 207.55 C 98.40 207.09 98.73 206.01 98.27 205.15 C 97.81 204.28 96.73 203.96 95.87 204.42 Z M 94.97 204.90 L 94.05 205.39 C 93.19 205.85 92.86 206.92 93.31 207.78 C 93.77 208.65 94.84 208.98 95.71 208.52 L 96.63 208.03 C 97.49 207.57 97.82 206.50 97.36 205.64 C 96.91 204.77 95.83 204.45 94.97 204.90 Z M 94.06 205.39 L 93.17 205.86 C 92.31 206.31 91.97 207.38 92.43 208.24 C 92.88 209.10 93.95 209.44 94.81 208.98 L 95.70 208.52 C 96.56 208.07 96.89 207.00 96.44 206.14 C 95.99 205.27 94.92 204.94 94.06 205.39 Z M 93.18 205.86 L 92.33 206.30 C 91.46 206.74 91.12 207.80 91.57 208.67 C 92.01 209.53 93.08 209.87 93.94 209.43 L 94.80 208.99 C 95.66 208.54 96.00 207.48 95.55 206.62 C 95.11 205.75 94.05 205.41 93.18 205.86 Z M 92.34 206.30 L 91.48 206.73 C 90.61 207.17 90.27 208.22 90.70 209.09 C 91.14 209.95 92.19 210.30 93.06 209.87 L 93.92 209.43 C 94.79 208.99 95.14 207.94 94.70 207.07 C 94.26 206.21 93.21 205.86 92.34 206.30 Z M 91.50 206.73 L 90.54 207.20 C 89.67 207.62 89.31 208.67 89.73 209.54 C 90.16 210.41 91.20 210.77 92.07 210.34 L 93.04 209.87 C 93.90 209.44 94.26 208.40 93.84 207.53 C 93.41 206.66 92.37 206.30 91.50 206.73 Z M 90.56 207.20 L 89.65 207.63 C 88.78 208.04 88.41 209.08 88.82 209.95 C 89.23 210.82 90.27 211.19 91.14 210.78 L 92.05 210.35 C 92.92 209.93 93.29 208.90 92.88 208.03 C 92.47 207.16 91.43 206.78 90.56 207.20 Z M 89.67 207.62 L 88.82 208.01 C 87.95 208.41 87.56 209.44 87.96 210.31 C 88.36 211.18 89.39 211.57 90.26 211.17 L 91.11 210.78 C 91.98 210.38 92.37 209.35 91.97 208.48 C 91.57 207.61 90.54 207.23 89.67 207.62 Z M 88.85 208.01 L 87.90 208.42 C 87.02 208.81 86.62 209.82 87.01 210.70 C 87.39 211.57 88.41 211.97 89.28 211.59 L 90.23 211.17 C 91.10 210.79 91.50 209.77 91.12 208.90 C 90.74 208.03 89.72 207.63 88.85 208.01 Z M 87.93 208.42 L 86.98 208.82 C 86.10 209.18 85.69 210.19 86.05 211.06 C 86.42 211.94 87.42 212.35 88.30 211.99 L 89.25 211.59 C 90.12 211.23 90.54 210.22 90.17 209.35 C 89.81 208.47 88.81 208.06 87.93 208.42 Z M 87.01 208.82 L 86.17 209.15 C 85.30 209.50 84.87 210.49 85.21 211.36 C 85.56 212.24 86.55 212.67 87.43 212.32 L 88.27 211.99 C 89.14 211.64 89.57 210.65 89.22 209.77 C 88.88 208.90 87.89 208.47 87.01 208.82 Z M 86.20 209.15 L 85.22 209.52 C 84.35 209.85 83.91 210.83 84.24 211.71 C 84.58 212.58 85.55 213.02 86.43 212.69 L 87.40 212.32 C 88.27 211.98 88.71 211.01 88.38 210.13 C 88.05 209.26 87.07 208.82 86.20 209.15 Z M 85.25 209.53 L 84.36 209.85 C 83.49 210.17 83.04 211.14 83.36 212.01 C 83.68 212.88 84.64 213.33 85.52 213.01 L 86.40 212.68 C 87.27 212.36 87.72 211.40 87.40 210.53 C 87.08 209.65 86.12 209.21 85.25 209.53 Z"
      fill="black"
      fill-rule="nonzero" /></svg>