<svg xmlns="http://www.w3.org/2000/svg" width="300" height="300" viewBox="0 0 300 300">
<path d="M 76.52 139.90 L 77.45 139.90 C 78.31 139.91 79.01 139.21 79.02 138.35 C 79.02 137.49 78.32 136.78 77.46 136.78 L 76.53 136.77 C 75.67 136.77 74.97 137.47 74.97 138.33 C 74.96 139.19 75.66 139.90 76.52 139.90 Z M 77.41 140.04 L 78.47 140.06 C 79.41 140.09 80.19 139.35 80.21 138.41 C 80.24 137.48 79.50 136.70 78.56 136.68 L 77.50 136.65 C 76.56 136.62 75.78 137.36 75.76 138.30 C 75.73 139.23 76.47 140.01 77.41 140.04 Z M 78.44 140.13 L 79.43 140.18 C 80.41 140.22 81.23 139.47 81.28 138.50 C 81.32 137.53 80.57 136.70 79.60 136.65 L 78.60 136.61 C 77.63 136.56 76.80 137.31 76.76 138.29 C 76.71 139.26 77.46 140.08 78.44 140.13 Z M 79.42 140.19 L 80.44 140.24 C 81.42 140.30 82.26 139.54 82.31 138.56 C 82.36 137.59 81.61 136.75 80.63 136.70 L 79.61 136.64 C 78.63 136.59 77.80 137.34 77.74 138.32 C 77.69 139.30 78.44 140.14 79.42 140.19 Z M 80.45 140.25 L 81.48 140.30 C 82.47 140.35 83.31 139.59 83.36 138.61 C 83.40 137.62 82.64 136.78 81.66 136.74 L 80.63 136.69 C 79.64 136.64 78.80 137.40 78.76 138.38 C 78.71 139.37 79.47 140.21 80.45 140.25 Z M 81.50 140.31 L 82.47 140.35 C 83.45 140.39 84.29 139.62 84.33 138.63 C 84.37 137.64 83.60 136.81 82.61 136.77 L 81.64 136.73 C 80.65 136.69 79.82 137.46 79.78 138.45 C 79.74 139.44 80.51 140.27 81.50 140.31 Z M 82.47 140.36 L 83.42 140.39 C 84.41 140.43 85.25 139.66 85.28 138.66 C 85.32 137.67 84.55 136.84 83.55 136.80 L 82.61 136.76 C 81.61 136.72 80.78 137.50 80.74 138.49 C 80.70 139.48 81.48 140.32 82.47 140.36 Z M 83.42 140.40 L 84.42 140.44 C 85.42 140.47 86.26 139.69 86.29 138.70 C 86.33 137.70 85.55 136.87 84.56 136.83 L 83.55 136.79 C 82.56 136.76 81.72 137.53 81.68 138.53 C 81.65 139.53 82.42 140.36 83.42 140.40 Z M 84.43 140.44 L 85.45 140.47 C 86.44 140.51 87.28 139.72 87.31 138.72 C 87.34 137.73 86.56 136.89 85.56 136.86 L 84.55 136.82 C 83.55 136.79 82.71 137.58 82.68 138.57 C 82.65 139.57 83.43 140.41 84.43 140.44 Z M 85.45 140.48 L 86.45 140.51 C 87.45 140.54 88.28 139.75 88.31 138.75 C 88.34 137.74 87.55 136.91 86.55 136.88 L 85.56 136.85 C 84.55 136.82 83.72 137.61 83.69 138.61 C 83.66 139.61 84.45 140.45 85.45 140.48 Z M 86.45 140.51 L 87.47 140.54 C 88.47 140.57 89.31 139.78 89.34 138.78 C 89.37 137.77 88.58 136.93 87.57 136.91 L 86.55 136.88 C 85.55 136.85 84.71 137.64 84.68 138.64 C 84.65 139.65 85.44 140.48 86.45 140.51 Z M 87.46 140.55 L 88.45 140.58 C 89.46 140.61 90.30 139.81 90.33 138.81 C 90.36 137.80 89.57 136.96 88.56 136.93 L 87.57 136.90 C 86.57 136.87 85.73 137.66 85.70 138.67 C 85.67 139.68 86.46 140.52 87.46 140.55 Z M 88.46 140.58 L 89.46 140.60 C 90.47 140.63 91.31 139.83 91.33 138.83 C 91.36 137.82 90.57 136.98 89.56 136.95 L 88.55 136.93 C 87.54 136.90 86.71 137.70 86.68 138.71 C 86.65 139.71 87.45 140.55 88.46 140.58 Z M 89.48 140.61 L 90.48 140.62 C 91.49 140.64 92.32 139.84 92.33 138.83 C 92.35 137.82 91.55 136.98 90.54 136.97 L 89.54 136.95 C 88.53 136.93 87.70 137.74 87.68 138.75 C 87.66 139.76 88.47 140.59 89.48 140.61 Z M 90.49 140.63 L 91.48 140.64 C 92.49 140.65 93.32 139.83 93.33 138.82 C 93.34 137.81 92.52 136.98 91.51 136.97 L 90.52 136.96 C 89.51 136.95 88.68 137.77 88.67 138.78 C 88.66 139.79 89.48 140.62 90.49 140.63 Z M 91.48 140.64 L 92.49 140.65 C 93.51 140.66 94.34 139.85 94.35 138.83 C 94.36 137.82 93.54 136.99 92.53 136.98 L 91.51 136.97 C 90.50 136.96 89.67 137.77 89.66 138.79 C 89.65 139.80 90.46 140.63 91.48 140.64 Z M 92.48 140.66 L 93.47 140.67 C 94.49 140.69 95.33 139.88 95.35 138.86 C 95.36 137.85 94.55 137.01 93.54 136.99 L 92.54 136.97 C 91.53 136.96 90.69 137.77 90.67 138.78 C 90.65 139.80 91.46 140.64 92.48 140.66 Z M 93.47 140.67 L 94.47 140.70 C 95.48 140.72 96.33 139.91 96.35 138.89 C 96.37 137.87 95.56 137.03 94.55 137.01 L 93.54 136.99 C 92.53 136.97 91.68 137.77 91.66 138.79 C 91.64 139.81 92.45 140.65 93.47 140.67 Z M 94.47 140.70 L 95.48 140.72 C 96.50 140.74 97.34 139.93 97.36 138.91 C 97.38 137.89 96.57 137.05 95.55 137.03 L 94.54 137.01 C 93.52 136.99 92.68 137.80 92.66 138.82 C 92.64 139.84 93.45 140.68 94.47 140.70 Z M 95.50 140.72 L 96.50 140.73 C 97.52 140.74 98.35 139.92 98.36 138.90 C 98.38 137.88 97.56 137.05 96.54 137.03 L 95.54 137.02 C 94.52 137.01 93.68 137.83 93.67 138.85 C 93.66 139.87 94.48 140.71 95.50 140.72 Z M 96.51 140.73 L 97.51 140.74 C 98.53 140.74 99.36 139.92 99.37 138.89 C 99.37 137.87 98.54 137.04 97.52 137.04 L 96.52 137.03 C 95.50 137.03 94.67 137.85 94.66 138.88 C 94.66 139.90 95.49 140.73 96.51 140.73 Z M 97.51 140.74 L 98.52 140.74 C 99.54 140.74 100.37 139.91 100.37 138.89 C 100.37 137.87 99.54 137.03 98.52 137.03 L 97.52 137.03 C 96.49 137.03 95.66 137.86 95.66 138.89 C 95.66 139.91 96.49 140.74 97.51 140.74 Z M 98.52 140.74 L 99.50 140.74 C 100.53 140.74 101.36 139.91 101.36 138.89 C 101.36 137.86 100.53 137.03 99.50 137.03 L 98.52 137.03 C 97.49 137.03 96.66 137.86 96.66 138.89 C 96.66 139.91 97.49 140.74 98.52 140.74 Z M 99.50 140.75 L 100.50 140.75 C 101.53 140.75 102.36 139.91 102.36 138.89 C 102.36 137.86 101.53 137.03 100.50 137.03 L 99.50 137.03 C 98.48 137.03 97.64 137.86 97.64 138.89 C 97.64 139.91 98.48 140.75 99.50 140.75 Z M 100.50 140.75 L 101.52 140.75 C 102.54 140.75 103.38 139.91 103.38 138.89 C 103.38 137.86 102.54 137.03 101.52 137.03 L 100.50 137.03 C 99.47 137.03 98.64 137.86 98.64 138.89 C 98.64 139.91 99.47 140.75 100.50 140.75 Z M 101.52 140.75 L 102.52 140.75 C 103.55 140.75 104.39 139.92 104.39 138.89 C 104.39 137.86 103.55 137.03 102.52 137.03 L 101.52 137.03 C 100.49 137.03 99.66 137.86 99.66 138.89 C 99.66 139.92 100.49 140.75 101.52 140.75 Z M 102.52 140.75 L 103.53 140.75 C 104.56 140.75 105.40 139.92 105.40 138.89 C 105.40 137.86 104.56 137.02 103.53 137.02 L 102.52 137.02 C 101.50 137.02 100.66 137.86 100.66 138.89 C 100.66 139.92 101.50 140.75 102.52 140.75 Z M 103.53 140.75 L 104.52 140.75 C 105.55 140.75 106.39 139.92 106.39 138.89 C 106.39 137.86 105.55 137.02 104.52 137.02 L 103.53 137.02 C 102.50 137.02 101.67 137.86 101.67 138.89 C 101.67 139.92 102.50 140.75 103.53 140.75 Z M 104.52 140.75 L 105.55 140.75 C 106.58 140.75 107.42 139.92 107.42 138.89 C 107.42 137.86 106.58 137.02 105.55 137.02 L 104.52 137.02 C 103.49 137.02 102.66 137.86 102.66 138.89 C 102.66 139.92 103.49 140.75 104.52 140.75 Z M 105.55 140.76 L 106.55 140.76 C 107.58 140.76 108.42 139.92 108.42 138.89 C 108.42 137.86 107.58 137.02 106.55 137.02 L 105.55 137.02 C 104.52 137.02 103.68 137.86 103.68 138.89 C 103.68 139.92 104.52 140.76 105.55 140.76 Z M 106.55 140.76 L 107.52 140.76 C 108.55 140.76 109.39 139.92 109.39 138.89 C 109.39 137.86 108.55 137.02 107.52 137.02 L 106.55 137.02 C 105.52 137.02 104.68 137.86 104.68 138.89 C 104.68 139.92 105.52 140.76 106.55 140.76 Z M 107.52 140.76 L 108.51 140.76 C 109.55 140.76 110.39 139.92 110.39 138.89 C 110.39 137.85 109.55 137.01 108.51 137.01 L 107.52 137.01 C 106.48 137.01 105.65 137.85 105.65 138.89 C 105.65 139.92 106.48 140.76 107.52 140.76 Z M 108.51 140.77 L 109.51 140.77 C 110.55 140.77 111.39 139.93 111.39 138.89 C 111.39 137.85 110.55 137.01 109.51 137.01 L 108.51 137.01 C 107.48 137.01 106.63 137.85 106.63 138.89 C 106.63 139.93 107.48 140.77 108.51 140.77 Z M 109.51 140.77 L 110.51 140.77 C 111.56 140.77 112.40 139.93 112.40 138.89 C 112.40 137.85 111.56 137.00 110.51 137.00 L 109.51 137.00 C 108.47 137.00 107.63 137.85 107.63 138.89 C 107.63 139.93 108.47 140.77 109.51 140.77 Z M 110.51 140.78 L 111.51 140.78 C 112.55 140.78 113.40 139.93 113.40 138.89 C 113.40 137.84 112.55 137.00 111.51 137.00 L 110.51 137.00 C 109.47 137.00 108.62 137.84 108.62 138.89 C 108.62 139.93 109.47 140.78 110.51 140.78 Z M 111.51 140.78 L 112.51 140.78 C 113.56 140.78 114.41 139.93 114.41 138.89 C 114.41 137.84 113.56 136.99 112.51 136.99 L 111.51 136.99 C 110.46 136.99 109.61 137.84 109.61 138.89 C 109.61 139.93 110.46 140.78 111.51 140.78 Z M 112.51 140.79 L 113.52 140.79 C 114.57 140.79 115.42 139.94 115.42 138.89 C 115.42 137.84 114.57 136.99 113.52 136.99 L 112.51 136.99 C 111.47 136.99 110.62 137.84 110.62 138.89 C 110.62 139.94 111.47 140.79 112.51 140.79 Z M 113.52 140.79 L 114.52 140.79 C 115.57 140.79 116.42 139.94 116.42 138.89 C 116.42 137.84 115.57 136.99 114.52 136.99 L 113.52 136.99 C 112.47 136.99 111.62 137.84 111.62 138.89 C 111.62 139.94 112.47 140.79 113.52 140.79 Z M 114.52 140.79 L 115.52 140.79 C 116.57 140.79 117.42 139.94 117.42 138.89 C 117.42 137.84 116.57 136.98 115.52 136.98 L 114.52 136.98 C 113.47 136.98 112.62 137.84 112.62 138.89 C 112.62 139.94 113.47 140.79 114.52 140.79 Z M 115.52 140.79 L 116.51 140.79 C 117.56 140.79 118.42 139.94 118.42 138.89 C 118.42 137.83 117.56 136.98 116.51 136.98 L 115.52 136.98 C 114.47 136.98 113.61 137.83 113.61 138.89 C 113.61 139.94 114.47 140.79 115.52 140.79 Z M 116.51 140.80 L 117.50 140.80 C 118.56 140.80 119.41 139.94 119.41 138.89 C 119.41 137.83 118.56 136.98 117.50 136.98 L 116.51 136.98 C 115.46 136.98 114.60 137.83 114.60 138.89 C 114.60 139.94 115.46 140.80 116.51 140.80 Z M 117.50 140.80 L 118.51 140.80 C 119.57 140.80 120.43 139.95 120.43 138.89 C 120.43 137.83 119.57 136.97 118.51 136.97 L 117.50 136.97 C 116.44 136.97 115.59 137.83 115.59 138.89 C 115.59 139.95 116.44 140.80 117.50 140.80 Z M 118.51 140.81 L 119.53 140.81 C 120.59 140.81 121.45 139.95 121.45 138.89 C 121.45 137.83 120.59 136.97 119.53 136.97 L 118.51 136.97 C 117.45 136.97 116.59 137.83 116.59 138.89 C 116.59 139.95 117.45 140.81 118.51 140.81 Z M 119.53 140.81 L 120.55 140.81 C 121.61 140.81 122.47 139.95 122.47 138.89 C 122.47 137.83 121.61 136.97 120.55 136.97 L 119.53 136.97 C 118.47 136.97 117.61 137.83 117.61 138.89 C 117.61 139.95 118.47 140.81 119.53 140.81 Z M 120.55 140.81 L 121.53 140.81 C 122.59 140.81 123.45 139.95 123.45 138.89 C 123.45 137.82 122.59 136.96 121.53 136.96 L 120.55 136.96 C 119.49 136.96 118.62 137.82 118.62 138.89 C 118.62 139.95 119.49 140.81 120.55 140.81 Z M 121.53 140.82 L 122.56 140.82 C 123.63 140.82 124.49 139.95 124.49 138.89 C 124.49 137.82 123.63 136.96 122.56 136.96 L 121.53 136.96 C 120.46 136.96 119.60 137.82 119.60 138.89 C 119.60 139.95 120.46 140.82 121.53 140.82 Z M 122.56 140.82 L 123.54 140.82 C 124.61 140.82 125.47 139.95 125.47 138.89 C 125.47 137.82 124.61 136.96 123.54 136.96 L 122.56 136.96 C 121.50 136.96 120.63 137.82 120.63 138.89 C 120.63 139.95 121.50 140.82 122.56 140.82 Z M 123.54 140.82 L 124.52 140.82 C 125.59 140.82 126.45 139.95 126.45 138.89 C 126.45 137.82 125.59 136.96 124.52 136.96 L 123.54 136.96 C 122.48 136.96 121.62 137.82 121.62 138.89 C 121.62 139.95 122.48 140.82 123.54 140.82 Z M 124.52 140.82 L 125.52 140.82 C 126.59 140.82 127.45 139.95 127.45 138.89 C 127.45 137.82 126.59 136.96 125.52 136.96 L 124.52 136.96 C 123.45 136.96 122.59 137.82 122.59 138.89 C 122.59 139.95 123.45 140.82 124.52 140.82 Z M 125.52 140.82 L 126.52 140.82 C 127.59 140.82 128.45 139.95 128.45 138.89 C 128.45 137.82 127.59 136.96 126.52 136.96 L 125.52 136.96 C 124.46 136.96 123.59 137.82 123.59 138.89 C 123.59 139.95 124.46 140.82 125.52 140.82 Z M 126.52 140.82 L 127.52 140.82 C 128.59 140.82 129.45 139.95 129.45 138.89 C 129.45 137.82 128.59 136.96 127.52 136.96 L 126.52 136.96 C 125.45 136.96 124.59 137.82 124.59 138.89 C 124.59 139.95 125.45 140.82 126.52 140.82 Z M 127.52 140.82 L 128.52 140.82 C 129.58 140.82 130.45 139.95 130.45 138.89 C 130.45 137.82 129.58 136.96 128.52 136.96 L 127.52 136.96 C 126.46 136.96 125.59 137.82 125.59 138.89 C 125.59 139.95 126.46 140.82 127.52 140.82 Z M 128.52 140.82 L 129.51 140.82 C 130.58 140.82 131.44 139.95 131.44 138.89 C 131.44 137.82 130.58 136.96 129.51 136.96 L 128.52 136.96 C 127.45 136.96 126.59 137.82 126.59 138.89 C 126.59 139.95 127.45 140.82 128.52 140.82 Z M 129.51 140.82 L 130.52 140.82 C 131.58 140.82 132.45 139.95 132.45 138.89 C 132.45 137.82 131.58 136.96 130.52 136.96 L 129.51 136.96 C 128.45 136.96 127.58 137.82 127.58 138.89 C 127.58 139.95 128.45 140.82 129.51 140.82 Z M 130.52 140.82 L 131.50 140.82 C 132.57 140.82 133.43 139.95 133.43 138.89 C 133.43 137.82 132.57 136.96 131.50 136.96 L 130.52 136.96 C 129.45 136.96 128.59 137.82 128.59 138.89 C 128.59 139.95 129.45 140.82 130.52 140.82 Z M 131.50 140.82 L 132.49 140.82 C 133.56 140.82 134.42 139.95 134.42 138.89 C 134.42 137.82 133.56 136.96 132.49 136.96 L 131.50 136.96 C 130.44 136.96 129.57 137.82 129.57 138.89 C 129.57 139.95 130.44 140.82 131.50 140.82 Z M 132.49 140.82 L 133.51 140.82 C 134.58 140.82 135.45 139.95 135.45 138.89 C 135.45 137.82 134.58 136.96 133.51 136.96 L 132.49 136.96 C 131.42 136.96 130.56 137.82 130.56 138.89 C 130.56 139.95 131.42 140.82 132.49 140.82 Z M 133.51 140.82 L 134.51 140.82 C 135.57 140.82 136.44 139.96 136.44 138.89 C 136.44 137.82 135.57 136.95 134.51 136.95 L 133.51 136.95 C 132.45 136.95 131.58 137.82 131.58 138.89 C 131.58 139.96 132.45 140.82 133.51 140.82 Z M 134.51 140.82 L 135.52 140.82 C 136.59 140.82 137.45 139.96 137.45 138.89 C 137.45 137.82 136.59 136.95 135.52 136.95 L 134.51 136.95 C 133.44 136.95 132.57 137.82 132.57 138.89 C 132.57 139.96 133.44 140.82 134.51 140.82 Z M 135.52 140.83 L 136.53 140.83 C 137.60 140.83 138.47 139.96 138.47 138.89 C 138.47 137.82 137.60 136.95 136.53 136.95 L 135.52 136.95 C 134.45 136.95 133.58 137.82 133.58 138.89 C 133.58 139.96 134.45 140.83 135.52 140.83 Z M 136.53 140.83 L 137.53 140.83 C 138.60 140.83 139.47 139.96 139.47 138.89 C 139.47 137.82 138.60 136.95 137.53 136.95 L 136.53 136.95 C 135.46 136.95 134.59 137.82 134.59 138.89 C 134.59 139.96 135.46 140.83 136.53 140.83 Z M 137.53 140.83 L 138.52 140.83 C 139.59 140.83 140.46 139.96 140.46 138.89 C 140.46 137.82 139.59 136.95 138.52 136.95 L 137.53 136.95 C 136.46 136.95 135.59 137.82 135.59 138.89 C 135.59 139.96 136.46 140.83 137.53 140.83 Z M 138.52 140.83 L 139.51 140.83 C 140.58 140.83 141.45 139.96 141.45 138.89 C 141.45 137.82 140.58 136.95 139.51 136.95 L 138.52 136.95 C 137.45 136.95 136.58 137.82 136.58 138.89 C 136.58 139.96 137.45 140.83 138.52 140.83 Z M 139.51 140.83 L 140.51 140.83 C 141.58 140.83 142.45 139.96 142.45 138.89 C 142.45 137.82 141.58 136.95 140.51 136.95 L 139.51 136.95 C 138.44 136.95 137.57 137.82 137.57 138.89 C 137.57 139.96 138.44 140.83 139.51 140.83 Z M 140.51 140.82 L 141.52 140.82 C 142.59 140.82 143.45 139.96 143.45 138.89 C 143.45 137.82 142.59 136.95 141.52 136.95 L 140.51 136.95 C 139.44 136.95 138.57 137.82 138.57 138.89 C 138.57 139.96 139.44 140.82 140.51 140.82 Z M 141.52 140.82 L 142.52 140.82 C 143.59 140.82 144.45 139.96 144.45 138.89 C 144.45 137.82 143.59 136.95 142.52 136.95 L 141.52 136.95 C 140.45 136.95 139.58 137.82 139.58 138.89 C 139.58 139.96 140.45 140.82 141.52 140.82 Z M 142.52 140.82 L 143.52 140.82 C 144.59 140.82 145.45 139.96 145.45 138.89 C 145.45 137.82 144.59 136.95 143.52 136.95 L 142.52 136.95 C 141.45 136.95 140.58 137.82 140.58 138.89 C 140.58 139.96 141.45 140.82 142.52 140.82 Z M 143.52 140.82 L 144.52 140.82 C 145.59 140.82 146.45 139.95 146.45 138.89 C 146.45 137.82 145.59 136.96 144.52 136.96 L 143.52 136.96 C 142.45 136.96 141.59 137.82 141.59 138.89 C 141.59 139.95 142.45 140.82 143.52 140.82 Z M 144.52 140.82 L 145.52 140.82 C 146.58 140.82 147.45 139.95 147.45 138.89 C 147.45 137.82 146.58 136.96 145.52 136.96 L 144.52 136.96 C 143.45 136.96 142.59 137.82 142.59 138.89 C 142.59 139.95 143.45 140.82 144.52 140.82 Z M 145.52 140.82 L 146.52 140.82 C 147.58 140.82 148.45 139.95 148.45 138.89 C 148.45 137.82 147.58 136.96 146.52 136.96 L 145.52 136.96 C 144.45 136.96 143.59 137.82 143.59 138.89 C 143.59 139.95 144.45 140.82 145.52 140.82 Z M 146.52 140.82 L 147.50 140.82 C 148.56 140.82 149.42 139.95 149.42 138.89 C 149.42 137.82 148.56 136.96 147.50 136.96 L 146.52 136.96 C 145.45 136.96 144.59 137.82 144.59 138.89 C 144.59 139.95 145.45 140.82 146.52 140.82 Z M 147.50 140.81 L 148.50 140.81 C 149.56 140.81 150.42 139.95 150.42 138.89 C 150.42 137.82 149.56 136.96 148.50 136.96 L 147.50 136.96 C 146.43 136.96 145.57 137.82 145.57 138.89 C 145.57 139.95 146.43 140.81 147.50 140.81 Z M 148.50 140.81 L 149.52 140.81 C 150.58 140.81 151.44 139.95 151.44 138.89 C 151.44 137.83 150.58 136.96 149.52 136.96 L 148.50 136.96 C 147.44 136.96 146.58 137.83 146.58 138.89 C 146.58 139.95 147.44 140.81 148.50 140.81 Z M 149.52 140.81 L 150.54 140.81 C 151.60 140.80 152.46 139.94 152.45 138.88 C 152.45 137.82 151.59 136.96 150.53 136.96 L 149.51 136.97 C 148.45 136.97 147.59 137.83 147.60 138.89 C 147.60 139.96 148.46 140.81 149.52 140.81 Z M 150.56 140.81 L 151.56 140.79 C 152.62 140.78 153.47 139.91 153.45 138.84 C 153.44 137.78 152.57 136.94 151.51 136.95 L 150.51 136.96 C 149.45 136.98 148.60 137.85 148.61 138.91 C 148.63 139.97 149.50 140.82 150.56 140.81 Z M 151.60 140.79 L 152.61 140.76 C 153.67 140.72 154.50 139.83 154.47 138.77 C 154.43 137.71 153.54 136.88 152.48 136.92 L 151.47 136.95 C 150.41 136.99 149.58 137.88 149.61 138.94 C 149.65 140.00 150.54 140.83 151.60 140.79 Z M 152.66 140.75 L 153.65 140.70 C 154.71 140.63 155.52 139.73 155.46 138.67 C 155.40 137.61 154.49 136.80 153.43 136.86 L 152.43 136.92 C 151.38 136.98 150.57 137.89 150.63 138.95 C 150.69 140.01 151.60 140.81 152.66 140.75 Z M 153.69 140.69 L 154.65 140.62 C 155.71 140.54 156.51 139.62 156.43 138.56 C 156.35 137.51 155.43 136.71 154.37 136.79 L 153.40 136.86 C 152.34 136.94 151.55 137.86 151.63 138.92 C 151.71 139.98 152.63 140.77 153.69 140.69 Z M 154.67 140.62 L 155.66 140.54 C 156.71 140.45 157.50 139.53 157.41 138.47 C 157.33 137.41 156.40 136.63 155.34 136.71 L 154.36 136.79 C 153.30 136.88 152.51 137.81 152.60 138.86 C 152.68 139.92 153.61 140.71 154.67 140.62 Z M 155.66 140.54 L 156.67 140.45 C 157.72 140.36 158.51 139.43 158.41 138.38 C 158.32 137.32 157.39 136.54 156.34 136.63 L 155.34 136.71 C 154.28 136.80 153.50 137.73 153.59 138.79 C 153.68 139.85 154.61 140.63 155.66 140.54 Z M 156.67 140.45 L 157.66 140.36 C 158.72 140.27 159.50 139.34 159.41 138.28 C 159.31 137.22 158.38 136.44 157.32 136.54 L 156.33 136.63 C 155.27 136.72 154.49 137.65 154.59 138.71 C 154.68 139.77 155.61 140.55 156.67 140.45 Z M 157.67 140.36 L 158.66 140.27 C 159.72 140.17 160.50 139.24 160.40 138.18 C 160.30 137.12 159.36 136.35 158.30 136.45 L 157.31 136.54 C 156.26 136.64 155.48 137.57 155.58 138.63 C 155.68 139.69 156.62 140.46 157.67 140.36 Z M 158.68 140.27 L 159.69 140.17 C 160.74 140.06 161.51 139.12 161.40 138.06 C 161.30 137.01 160.35 136.24 159.30 136.34 L 158.29 136.45 C 157.23 136.55 156.46 137.50 156.57 138.55 C 156.68 139.61 157.62 140.38 158.68 140.27 Z M 159.70 140.17 L 160.68 140.06 C 161.74 139.95 162.50 139.00 162.38 137.94 C 162.27 136.89 161.32 136.12 160.26 136.24 L 159.28 136.35 C 158.23 136.46 157.47 137.41 157.58 138.46 C 157.70 139.52 158.64 140.28 159.70 140.17 Z M 160.68 140.06 L 161.68 139.95 C 162.74 139.84 163.50 138.89 163.38 137.83 C 163.27 136.77 162.32 136.01 161.26 136.13 L 160.26 136.24 C 159.21 136.35 158.44 137.30 158.56 138.36 C 158.68 139.42 159.63 140.18 160.68 140.06 Z M 161.67 139.95 L 162.66 139.85 C 163.72 139.74 164.49 138.80 164.38 137.74 C 164.27 136.69 163.33 135.92 162.27 136.02 L 161.27 136.13 C 160.22 136.24 159.45 137.18 159.56 138.24 C 159.66 139.29 160.61 140.06 161.67 139.95 Z M 162.64 139.85 L 163.62 139.76 C 164.68 139.67 165.46 138.73 165.36 137.67 C 165.26 136.61 164.33 135.84 163.27 135.93 L 162.29 136.02 C 161.23 136.12 160.45 137.06 160.55 138.11 C 160.65 139.17 161.58 139.95 162.64 139.85 Z M 163.60 139.77 L 164.61 139.68 C 165.67 139.59 166.46 138.66 166.37 137.60 C 166.28 136.54 165.35 135.76 164.29 135.85 L 163.28 135.93 C 162.22 136.02 161.44 136.95 161.53 138.01 C 161.62 139.07 162.55 139.85 163.60 139.77 Z M 164.60 139.68 L 165.62 139.60 C 166.68 139.52 167.47 138.59 167.39 137.53 C 167.30 136.47 166.38 135.68 165.32 135.77 L 164.30 135.85 C 163.24 135.93 162.45 136.86 162.53 137.92 C 162.61 138.98 163.54 139.77 164.60 139.68 Z M 165.62 139.60 L 166.63 139.52 C 167.69 139.44 168.49 138.52 168.41 137.46 C 168.32 136.40 167.40 135.60 166.34 135.69 L 165.32 135.77 C 164.26 135.85 163.47 136.77 163.55 137.83 C 163.63 138.89 164.56 139.68 165.62 139.60 Z M 166.64 139.52 L 167.63 139.45 C 168.69 139.36 169.48 138.44 169.40 137.38 C 169.32 136.32 168.39 135.52 167.33 135.61 L 166.34 135.69 C 165.28 135.77 164.48 136.70 164.57 137.76 C 164.65 138.82 165.58 139.61 166.64 139.52 Z M 167.64 139.45 L 168.65 139.36 C 169.71 139.27 170.50 138.34 170.41 137.28 C 170.32 136.22 169.39 135.43 168.33 135.52 L 167.32 135.61 C 166.26 135.70 165.47 136.63 165.56 137.69 C 165.65 138.75 166.58 139.53 167.64 139.45 Z M 168.66 139.36 L 169.67 139.27 C 170.72 139.17 171.51 138.24 171.41 137.18 C 171.32 136.12 170.38 135.34 169.32 135.43 L 168.32 135.52 C 167.26 135.62 166.48 136.55 166.58 137.61 C 166.67 138.67 167.60 139.45 168.66 139.36 Z M 169.66 139.27 L 170.61 139.19 C 171.67 139.10 172.46 138.17 172.37 137.11 C 172.28 136.05 171.34 135.26 170.28 135.35 L 169.33 135.43 C 168.27 135.52 167.49 136.46 167.58 137.52 C 167.67 138.58 168.60 139.36 169.66 139.27 Z M 170.59 139.19 L 171.60 139.12 C 172.66 139.04 173.45 138.11 173.37 137.05 C 173.30 135.99 172.37 135.20 171.31 135.28 L 170.31 135.35 C 169.25 135.43 168.45 136.35 168.53 137.41 C 168.61 138.47 169.53 139.27 170.59 139.19 Z M 171.58 139.12 L 172.58 139.05 C 173.64 138.98 174.44 138.07 174.37 137.00 C 174.30 135.94 173.38 135.14 172.32 135.21 L 171.33 135.28 C 170.27 135.35 169.46 136.26 169.53 137.32 C 169.60 138.38 170.52 139.19 171.58 139.12 Z M 172.57 139.05 L 173.58 138.99 C 174.64 138.92 175.44 138.00 175.37 136.94 C 175.31 135.88 174.39 135.08 173.33 135.15 L 172.33 135.21 C 171.26 135.28 170.46 136.19 170.53 137.25 C 170.60 138.31 171.51 139.12 172.57 139.05 Z M 173.56 138.99 L 174.56 138.93 C 175.62 138.87 176.43 137.96 176.37 136.90 C 176.31 135.84 175.40 135.03 174.34 135.09 L 173.34 135.14 C 172.28 135.21 171.47 136.12 171.53 137.18 C 171.59 138.24 172.50 139.05 173.56 138.99 Z M 174.52 138.93 L 175.51 138.90 C 176.57 138.86 177.40 137.96 177.36 136.90 C 177.32 135.84 176.43 135.01 175.37 135.05 L 174.38 135.09 C 173.32 135.12 172.49 136.02 172.53 137.08 C 172.57 138.14 173.46 138.97 174.52 138.93 Z M 175.46 138.90 L 176.46 138.89 C 177.52 138.87 178.37 138.00 178.36 136.94 C 178.34 135.87 177.47 135.02 176.41 135.04 L 175.41 135.05 C 174.35 135.06 173.50 135.93 173.51 137.00 C 173.53 138.06 174.40 138.91 175.46 138.90 Z M 176.44 138.89 L 177.45 138.88 C 178.51 138.88 179.37 138.02 179.37 136.96 C 179.37 135.89 178.50 135.03 177.44 135.03 L 176.43 135.04 C 175.37 135.04 174.51 135.90 174.51 136.96 C 174.51 138.03 175.37 138.89 176.44 138.89 Z M 177.44 138.88 L 178.47 138.88 C 179.53 138.88 180.39 138.02 180.39 136.96 C 180.39 135.90 179.53 135.03 178.47 135.03 L 177.44 135.03 C 176.38 135.03 175.52 135.90 175.52 136.96 C 175.52 138.02 176.38 138.88 177.44 138.88 Z M 178.47 138.88 L 179.44 138.88 C 180.50 138.88 181.36 138.02 181.36 136.96 C 181.36 135.90 180.50 135.03 179.44 135.03 L 178.47 135.03 C 177.41 135.03 176.54 135.90 176.54 136.96 C 176.54 138.02 177.41 138.88 178.47 138.88 Z M 179.44 138.88 L 180.47 138.88 C 181.54 138.88 182.40 138.02 182.40 136.96 C 182.40 135.90 181.54 135.03 180.47 135.03 L 179.44 135.03 C 178.37 135.03 177.51 135.90 177.51 136.96 C 177.51 138.02 178.37 138.88 179.44 138.88 Z M 180.47 138.88 L 181.44 138.88 C 182.50 138.88 183.36 138.02 183.36 136.96 C 183.36 135.90 182.50 135.03 181.44 135.03 L 180.47 135.03 C 179.41 135.03 178.55 135.90 178.55 136.96 C 178.55 138.02 179.41 138.88 180.47 138.88 Z M 181.44 138.88 L 182.44 138.88 C 183.51 138.88 184.37 138.02 184.37 136.96 C 184.37 135.90 183.51 135.03 182.44 135.03 L 181.44 135.03 C 180.38 135.03 179.51 135.90 179.51 136.96 C 179.51 138.02 180.38 138.88 181.44 138.88 Z M 182.44 138.88 L 183.44 138.88 C 184.50 138.89 185.37 138.02 185.37 136.96 C 185.37 135.90 184.50 135.03 183.44 135.03 L 182.44 135.03 C 181.38 135.03 180.52 135.90 180.52 136.96 C 180.52 138.02 181.38 138.88 182.44 138.88 Z M 183.42 138.88 L 184.42 138.89 C 185.49 138.90 186.35 138.05 186.36 136.98 C 186.37 135.92 185.52 135.05 184.45 135.04 L 183.46 135.03 C 182.39 135.03 181.52 135.88 181.51 136.94 C 181.51 138.01 182.36 138.88 183.42 138.88 Z M 184.38 138.89 L 185.36 138.92 C 186.43 138.96 187.32 138.12 187.35 137.06 C 187.38 136.00 186.55 135.11 185.49 135.07 L 184.50 135.04 C 183.44 135.01 182.55 135.84 182.51 136.91 C 182.48 137.97 183.31 138.86 184.38 138.89 Z M 185.26 138.92 L 186.26 139.00 C 187.32 139.10 188.25 138.31 188.35 137.25 C 188.44 136.19 187.65 135.26 186.59 135.17 L 185.59 135.08 C 184.53 134.99 183.60 135.77 183.51 136.83 C 183.42 137.89 184.20 138.83 185.26 138.92 Z M 186.14 138.99 L 187.12 139.14 C 188.17 139.30 189.15 138.57 189.31 137.52 C 189.47 136.47 188.74 135.49 187.69 135.33 L 186.71 135.18 C 185.66 135.02 184.68 135.75 184.52 136.80 C 184.37 137.85 185.09 138.83 186.14 138.99 Z M 187.08 139.13 L 188.09 139.30 C 189.14 139.48 190.13 138.78 190.31 137.73 C 190.49 136.68 189.79 135.69 188.74 135.51 L 187.73 135.34 C 186.68 135.16 185.69 135.86 185.51 136.91 C 185.33 137.96 186.03 138.95 187.08 139.13 Z M 188.10 139.31 L 189.10 139.47 C 190.15 139.64 191.14 138.93 191.31 137.88 C 191.48 136.83 190.77 135.84 189.72 135.67 L 188.73 135.51 C 187.68 135.33 186.69 136.04 186.51 137.09 C 186.34 138.14 187.05 139.13 188.10 139.31 Z M 189.12 139.47 L 190.12 139.62 C 191.17 139.79 192.15 139.06 192.31 138.01 C 192.47 136.96 191.75 135.98 190.70 135.82 L 189.70 135.67 C 188.65 135.51 187.67 136.23 187.51 137.28 C 187.35 138.33 188.07 139.31 189.12 139.47 Z M 190.13 139.63 L 191.10 139.77 C 192.16 139.92 193.13 139.19 193.28 138.13 C 193.43 137.08 192.70 136.10 191.65 135.95 L 190.68 135.81 C 189.63 135.66 188.65 136.39 188.50 137.45 C 188.35 138.50 189.08 139.48 190.13 139.63 Z M 191.10 139.77 L 192.08 139.91 C 193.13 140.07 194.11 139.34 194.27 138.29 C 194.42 137.23 193.70 136.26 192.64 136.10 L 191.66 135.96 C 190.61 135.80 189.63 136.53 189.47 137.58 C 189.32 138.63 190.04 139.61 191.10 139.77 Z M 192.07 139.91 L 193.02 140.05 C 194.07 140.21 195.05 139.49 195.21 138.44 C 195.37 137.38 194.65 136.40 193.59 136.24 L 192.65 136.10 C 191.60 135.94 190.62 136.67 190.46 137.72 C 190.30 138.77 191.02 139.75 192.07 139.91 Z M 193.04 140.05 L 193.99 140.19 C 195.04 140.34 196.02 139.61 196.17 138.55 C 196.32 137.50 195.58 136.53 194.53 136.38 L 193.58 136.24 C 192.52 136.09 191.55 136.82 191.40 137.88 C 191.25 138.93 191.98 139.91 193.04 140.05 Z M 194.03 140.19 L 195.07 140.32 C 196.13 140.45 197.09 139.70 197.21 138.64 C 197.34 137.59 196.59 136.63 195.54 136.50 L 194.49 136.37 C 193.44 136.24 192.48 136.99 192.35 138.05 C 192.22 139.11 192.97 140.07 194.03 140.19 Z M 195.10 140.33 L 196.12 140.43 C 197.18 140.55 198.13 139.78 198.24 138.72 C 198.35 137.67 197.59 136.72 196.53 136.60 L 195.51 136.50 C 194.45 136.38 193.50 137.15 193.39 138.21 C 193.28 139.26 194.04 140.21 195.10 140.33 Z M 196.15 140.44 L 197.15 140.53 C 198.21 140.62 199.15 139.84 199.24 138.78 C 199.34 137.73 198.56 136.79 197.50 136.69 L 196.50 136.60 C 195.44 136.51 194.50 137.29 194.41 138.34 C 194.31 139.40 195.09 140.34 196.15 140.44 Z M 197.20 140.53 L 198.21 140.60 C 199.27 140.67 200.19 139.87 200.26 138.81 C 200.33 137.75 199.53 136.83 198.47 136.76 L 197.45 136.69 C 196.39 136.62 195.48 137.42 195.40 138.48 C 195.33 139.54 196.14 140.46 197.20 140.53 Z M 198.24 140.60 L 199.22 140.65 C 200.28 140.70 201.18 139.88 201.23 138.82 C 201.29 137.76 200.47 136.86 199.41 136.80 L 198.43 136.75 C 197.37 136.70 196.47 137.52 196.41 138.58 C 196.36 139.64 197.18 140.55 198.24 140.60 Z M 199.21 140.65 L 200.09 140.69 C 201.15 140.75 202.06 139.93 202.11 138.87 C 202.17 137.81 201.35 136.90 200.29 136.85 L 199.41 136.80 C 198.35 136.75 197.44 137.57 197.39 138.63 C 197.33 139.69 198.15 140.59 199.21 140.65 Z M 200.10 140.69 L 201.07 140.74 C 202.13 140.79 203.03 139.97 203.08 138.91 C 203.13 137.85 202.31 136.94 201.25 136.89 L 200.28 136.85 C 199.22 136.80 198.32 137.62 198.27 138.68 C 198.22 139.74 199.04 140.64 200.10 140.69 Z M 201.09 140.74 L 202.22 140.78 C 203.28 140.82 204.18 139.98 204.21 138.92 C 204.25 137.86 203.42 136.97 202.35 136.93 L 201.22 136.89 C 200.16 136.86 199.27 137.69 199.23 138.75 C 199.20 139.81 200.03 140.70 201.09 140.74 Z M 202.25 140.78 L 203.24 140.80 C 204.31 140.82 205.19 139.97 205.21 138.91 C 205.23 137.85 204.38 136.97 203.32 136.95 L 202.32 136.93 C 201.26 136.91 200.38 137.76 200.36 138.82 C 200.34 139.88 201.19 140.76 202.25 140.78 Z M 203.26 140.80 L 204.28 140.81 C 205.34 140.82 206.21 139.96 206.22 138.90 C 206.23 137.84 205.37 136.97 204.31 136.96 L 203.30 136.95 C 202.24 136.94 201.37 137.79 201.36 138.86 C 201.35 139.92 202.20 140.79 203.26 140.80 Z M 204.29 140.81 L 205.32 140.81 C 206.38 140.81 207.24 139.96 207.25 138.89 C 207.25 137.83 206.39 136.97 205.33 136.96 L 204.30 136.96 C 203.24 136.96 202.37 137.81 202.37 138.88 C 202.37 139.94 203.23 140.80 204.29 140.81 Z M 205.32 140.81 L 206.32 140.81 C 207.38 140.81 208.24 139.95 208.25 138.89 C 208.25 137.83 207.39 136.96 206.32 136.96 L 205.32 136.96 C 204.26 136.96 203.40 137.82 203.40 138.89 C 203.40 139.95 204.26 140.81 205.32 140.81 Z M 206.32 140.81 L 207.41 140.81 C 208.47 140.81 209.34 139.95 209.34 138.89 C 209.34 137.83 208.47 136.96 207.41 136.96 L 206.32 136.96 C 205.26 136.96 204.40 137.83 204.40 138.89 C 204.40 139.95 205.26 140.81 206.32 140.81 Z M 207.41 140.81 L 208.42 140.81 C 209.49 140.81 210.35 139.95 210.35 138.89 C 210.35 137.83 209.49 136.96 208.42 136.96 L 207.41 136.96 C 206.35 136.96 205.49 137.83 205.49 138.89 C 205.49 139.95 206.35 140.81 207.41 140.81 Z M 208.42 140.81 L 209.36 140.81 C 210.42 140.81 211.28 139.95 211.28 138.89 C 211.28 137.83 210.42 136.96 209.36 136.96 L 208.42 136.96 C 207.36 136.96 206.50 137.83 206.50 138.89 C 206.50 139.95 207.36 140.81 208.42 140.81 Z M 209.36 140.81 L 210.35 140.81 C 211.41 140.81 212.27 139.95 212.27 138.89 C 212.27 137.83 211.41 136.96 210.35 136.96 L 209.36 136.96 C 208.30 136.96 207.44 137.83 207.44 138.89 C 207.44 139.95 208.30 140.81 209.36 140.81 Z M 210.35 140.81 L 211.36 140.81 C 212.42 140.81 213.29 139.95 213.29 138.89 C 213.29 137.83 212.42 136.96 211.36 136.96 L 210.35 136.96 C 209.29 136.96 208.43 137.83 208.43 138.89 C 208.43 139.95 209.29 140.81 210.35 140.81 Z M 211.36 140.81 L 212.33 140.81 C 213.39 140.81 214.25 139.95 214.25 138.89 C 214.25 137.83 213.39 136.96 212.33 136.96 L 211.36 136.96 C 210.30 136.96 209.44 137.83 209.44 138.89 C 209.44 139.95 210.30 140.81 211.36 140.81 Z M 212.33 140.81 L 213.35 140.81 C 214.42 140.81 215.28 139.95 215.28 138.89 C 215.28 137.83 214.42 136.96 213.35 136.96 L 212.33 136.96 C 211.26 136.96 210.40 137.83 210.40 138.89 C 210.40 139.95 211.26 140.81 212.33 140.81 Z M 213.35 140.81 L 214.34 140.81 C 215.41 140.81 216.27 139.95 216.27 138.89 C 216.27 137.83 215.41 136.96 214.34 136.96 L 213.35 136.96 C 212.29 136.96 211.43 137.83 211.43 138.89 C 211.43 139.95 212.29 140.81 213.35 140.81 Z M 214.34 140.81 L 215.33 140.81 C 216.40 140.81 217.26 139.95 217.26 138.89 C 217.26 137.83 216.40 136.96 215.33 136.96 L 214.34 136.96 C 213.28 136.96 212.42 137.83 212.42 138.89 C 212.42 139.95 213.28 140.81 214.34 140.81 Z M 215.33 140.81 L 216.33 140.81 C 217.39 140.81 218.25 139.95 218.25 138.89 C 218.25 137.83 217.39 136.96 216.33 136.96 L 215.33 136.96 C 214.27 136.96 213.41 137.83 213.41 138.89 C 213.41 139.95 214.27 140.81 215.33 140.81 Z M 216.33 140.81 L 217.32 140.81 C 218.39 140.81 219.25 139.95 219.25 138.89 C 219.25 137.83 218.39 136.97 217.32 136.97 L 216.33 136.96 C 215.27 136.96 214.41 137.83 214.41 138.89 C 214.41 139.95 215.27 140.81 216.33 140.81 Z M 217.30 140.81 L 218.30 140.82 C 219.37 140.84 220.24 139.99 220.25 138.93 C 220.27 137.87 219.42 137.00 218.36 136.98 L 217.35 136.97 C 216.29 136.95 215.42 137.80 215.40 138.86 C 215.39 139.92 216.24 140.80 217.30 140.81 Z M 218.20 140.82 L 219.31 140.90 C 220.37 140.97 221.29 140.17 221.36 139.11 C 221.44 138.05 220.64 137.14 219.58 137.06 L 218.46 136.99 C 217.41 136.91 216.49 137.71 216.42 138.77 C 216.34 139.83 217.14 140.74 218.20 140.82 Z M 218.88 140.81 L 219.66 141.05 C 220.67 141.36 221.74 140.80 222.05 139.78 C 222.36 138.77 221.80 137.70 220.79 137.39 L 220.01 137.15 C 219.00 136.84 217.93 137.40 217.62 138.41 C 217.30 139.43 217.87 140.50 218.88 140.81 Z M 219.48 137.50 L 218.80 137.79 C 217.85 138.20 217.41 139.31 217.82 140.26 C 218.23 141.21 219.33 141.64 220.28 141.23 L 220.96 140.94 C 221.91 140.53 222.35 139.42 221.94 138.47 C 221.53 137.52 220.43 137.09 219.48 137.50 Z M 219.15 137.77 L 217.96 138.04 C 217.00 138.26 216.39 139.21 216.61 140.17 C 216.82 141.13 217.77 141.73 218.73 141.52 L 219.93 141.25 C 220.89 141.04 221.49 140.08 221.28 139.12 C 221.06 138.16 220.11 137.56 219.15 137.77 Z M 218.05 138.16 L 217.04 138.34 C 216.14 138.50 215.55 139.36 215.71 140.26 C 215.87 141.16 216.73 141.75 217.63 141.59 L 218.64 141.41 C 219.54 141.24 220.13 140.38 219.97 139.49 C 219.81 138.59 218.95 137.99 218.05 138.16 Z M 217.10 138.47 L 216.13 138.63 C 215.31 138.76 214.75 139.53 214.88 140.36 C 215.01 141.18 215.79 141.74 216.61 141.61 L 217.58 141.45 C 218.40 141.32 218.96 140.55 218.83 139.72 C 218.70 138.90 217.92 138.34 217.10 138.47 Z M 216.16 138.69 L 215.17 138.84 C 214.38 138.96 213.84 139.69 213.96 140.47 C 214.07 141.26 214.80 141.80 215.59 141.69 L 216.58 141.54 C 217.37 141.43 217.91 140.69 217.80 139.91 C 217.68 139.12 216.95 138.58 216.16 138.69 Z M 215.19 138.85 L 214.23 138.98 C 213.45 139.08 212.90 139.80 213.00 140.58 C 213.11 141.36 213.83 141.91 214.61 141.81 L 215.57 141.68 C 216.35 141.58 216.90 140.86 216.80 140.08 C 216.69 139.29 215.97 138.74 215.19 138.85 Z M 214.24 138.98 L 213.25 139.10 C 212.47 139.20 211.91 139.91 212.01 140.69 C 212.11 141.47 212.82 142.03 213.60 141.93 L 214.59 141.81 C 215.38 141.71 215.93 141.00 215.83 140.22 C 215.74 139.44 215.02 138.88 214.24 138.98 Z M 213.25 139.10 L 212.70 139.17 C 211.92 139.26 211.37 139.97 211.46 140.76 C 211.55 141.54 212.27 142.09 213.05 142.00 L 213.60 141.93 C 214.38 141.84 214.94 141.13 214.84 140.34 C 214.75 139.56 214.04 139.01 213.25 139.10 Z"
      fill="black"
      fill-rule="nonzero" /><path d="M 145.57 75.85 L 144.50 75.92 C 143.68 75.97 143.06 76.67 143.11 77.49 C 143.16 78.32 143.86 78.94 144.69 78.89 L 145.75 78.83 C 146.58 78.78 147.20 78.07 147.15 77.25 C 147.10 76.43 146.39 75.80 145.57 75.85 Z M 143.77 76.06 L 143.04 76.50 C 142.30 76.96 142.06 77.93 142.52 78.67 C 142.97 79.42 143.94 79.65 144.68 79.20 L 145.42 78.75 C 146.16 78.30 146.40 77.33 145.94 76.58 C 145.49 75.84 144.52 75.60 143.77 76.06 Z M 142.28 77.43 L 142.04 78.35 C 141.80 79.22 142.32 80.12 143.19 80.35 C 144.07 80.58 144.96 80.06 145.20 79.19 L 145.44 78.27 C 145.67 77.40 145.16 76.51 144.28 76.27 C 143.41 76.04 142.52 76.56 142.28 77.43 Z M 141.95 78.73 L 141.93 79.80 C 141.90 80.72 142.63 81.49 143.55 81.51 C 144.47 81.53 145.23 80.80 145.26 79.88 L 145.28 78.81 C 145.30 77.89 144.58 77.13 143.66 77.11 C 142.74 77.08 141.97 77.81 141.95 78.73 Z M 141.91 79.84 L 141.91 80.85 C 141.91 81.78 142.66 82.53 143.59 82.53 C 144.52 82.53 145.28 81.78 145.28 80.85 L 145.28 79.84 C 145.28 78.91 144.52 78.16 143.59 78.16 C 142.66 78.16 141.91 78.91 141.91 79.84 Z M 141.89 80.85 L 141.89 81.80 C 141.90 82.74 142.65 83.50 143.59 83.50 C 144.53 83.50 145.29 82.74 145.29 81.80 L 145.29 80.85 C 145.29 79.91 144.53 79.15 143.59 79.15 C 142.65 79.15 141.89 79.91 141.89 80.85 Z M 141.89 81.82 L 141.90 82.81 C 141.90 83.75 142.67 84.51 143.62 84.50 C 144.56 84.49 145.31 83.72 145.31 82.78 L 145.30 81.79 C 145.29 80.85 144.52 80.09 143.58 80.10 C 142.63 80.11 141.88 80.88 141.89 81.82 Z M 141.89 82.85 L 141.92 83.86 C 141.96 84.80 142.75 85.54 143.69 85.51 C 144.64 85.48 145.38 84.69 145.35 83.74 L 145.31 82.74 C 145.28 81.79 144.49 81.05 143.54 81.09 C 142.60 81.12 141.86 81.91 141.89 82.85 Z M 141.92 83.92 L 141.99 84.90 C 142.05 85.85 142.87 86.56 143.82 86.50 C 144.76 86.43 145.48 85.61 145.42 84.67 L 145.35 83.68 C 145.28 82.74 144.46 82.02 143.52 82.08 C 142.57 82.15 141.86 82.97 141.92 83.92 Z M 141.99 84.96 L 142.09 85.98 C 142.19 86.92 143.04 87.61 143.98 87.51 C 144.93 87.42 145.62 86.57 145.52 85.62 L 145.42 84.61 C 145.32 83.66 144.47 82.97 143.52 83.07 C 142.58 83.17 141.89 84.02 141.99 84.96 Z M 142.09 86.02 L 142.22 86.99 C 142.34 87.94 143.21 88.60 144.16 88.48 C 145.10 88.36 145.77 87.49 145.65 86.54 L 145.52 85.58 C 145.40 84.63 144.53 83.96 143.58 84.09 C 142.64 84.21 141.97 85.08 142.09 86.02 Z M 142.22 87.00 L 142.36 88.02 C 142.49 88.97 143.36 89.63 144.31 89.50 C 145.25 89.37 145.92 88.50 145.79 87.55 L 145.65 86.53 C 145.52 85.59 144.64 84.92 143.70 85.05 C 142.75 85.18 142.09 86.06 142.22 87.00 Z M 142.35 88.00 L 142.48 88.98 C 142.60 89.93 143.47 90.60 144.42 90.48 C 145.37 90.36 146.04 89.49 145.92 88.54 L 145.79 87.56 C 145.67 86.61 144.80 85.94 143.85 86.06 C 142.90 86.18 142.23 87.05 142.35 88.00 Z M 142.47 88.96 L 142.58 89.94 C 142.70 90.90 143.56 91.58 144.52 91.47 C 145.47 91.35 146.16 90.49 146.04 89.53 L 145.93 88.55 C 145.81 87.60 144.95 86.91 143.99 87.03 C 143.04 87.14 142.35 88.01 142.47 88.96 Z M 142.58 89.94 L 142.69 90.97 C 142.80 91.92 143.67 92.61 144.63 92.50 C 145.59 92.39 146.28 91.53 146.17 90.57 L 146.05 89.54 C 145.94 88.58 145.07 87.89 144.11 88.00 C 143.16 88.11 142.47 88.98 142.58 89.94 Z M 142.69 90.97 L 142.80 91.91 C 142.91 92.87 143.78 93.57 144.74 93.46 C 145.70 93.35 146.39 92.48 146.28 91.51 L 146.17 90.57 C 146.06 89.60 145.19 88.91 144.23 89.02 C 143.27 89.13 142.58 90.00 142.69 90.97 Z M 142.79 91.91 L 142.90 92.89 C 143.01 93.85 143.88 94.55 144.85 94.44 C 145.82 94.33 146.51 93.46 146.40 92.49 L 146.29 91.51 C 146.18 90.55 145.31 89.85 144.34 89.96 C 143.37 90.07 142.68 90.94 142.79 91.91 Z M 142.89 92.88 L 143.00 93.91 C 143.11 94.88 143.99 95.58 144.96 95.48 C 145.93 95.37 146.63 94.50 146.52 93.52 L 146.41 92.49 C 146.30 91.52 145.43 90.82 144.46 90.93 C 143.48 91.04 142.78 91.91 142.89 92.88 Z M 143.00 93.90 L 143.10 94.91 C 143.20 95.89 144.08 96.60 145.06 96.49 C 146.03 96.39 146.74 95.52 146.64 94.54 L 146.53 93.53 C 146.43 92.56 145.55 91.85 144.58 91.95 C 143.60 92.05 142.89 92.93 143.00 93.90 Z M 143.09 94.90 L 143.19 95.88 C 143.29 96.86 144.17 97.57 145.15 97.48 C 146.13 97.38 146.84 96.50 146.75 95.52 L 146.65 94.55 C 146.55 93.56 145.67 92.85 144.69 92.95 C 143.71 93.05 142.99 93.92 143.09 94.90 Z M 143.18 95.87 L 143.28 96.88 C 143.38 97.86 144.25 98.58 145.24 98.49 C 146.23 98.39 146.95 97.51 146.85 96.53 L 146.75 95.52 C 146.66 94.54 145.78 93.82 144.79 93.91 C 143.81 94.01 143.09 94.89 143.18 95.87 Z M 143.27 96.87 L 143.37 97.90 C 143.47 98.89 144.35 99.61 145.34 99.52 C 146.33 99.42 147.05 98.54 146.96 97.55 L 146.86 96.53 C 146.77 95.54 145.88 94.81 144.89 94.91 C 143.90 95.00 143.18 95.88 143.27 96.87 Z M 143.36 97.89 L 143.46 98.90 C 143.55 99.89 144.44 100.62 145.43 100.53 C 146.43 100.44 147.16 99.55 147.06 98.56 L 146.97 97.55 C 146.87 96.56 145.99 95.83 144.99 95.92 C 144.00 96.02 143.27 96.90 143.36 97.89 Z M 143.45 98.90 L 143.55 99.89 C 143.64 100.89 144.53 101.62 145.52 101.53 C 146.52 101.43 147.25 100.55 147.16 99.55 L 147.07 98.56 C 146.97 97.56 146.09 96.83 145.09 96.92 C 144.09 97.02 143.36 97.90 143.45 98.90 Z M 143.54 99.89 L 143.64 100.89 C 143.73 101.89 144.62 102.62 145.62 102.53 C 146.62 102.43 147.35 101.55 147.26 100.55 L 147.17 99.55 C 147.07 98.55 146.18 97.81 145.18 97.91 C 144.18 98.00 143.45 98.89 143.54 99.89 Z M 143.63 100.89 L 143.72 101.89 C 143.82 102.89 144.71 103.63 145.71 103.53 C 146.71 103.44 147.45 102.55 147.36 101.55 L 147.26 100.55 C 147.17 99.54 146.28 98.81 145.28 98.90 C 144.27 98.99 143.54 99.88 143.63 100.89 Z M 143.72 101.89 L 143.81 102.88 C 143.91 103.89 144.80 104.63 145.80 104.53 C 146.81 104.44 147.55 103.55 147.46 102.54 L 147.36 101.55 C 147.27 100.54 146.38 99.80 145.37 99.89 C 144.37 99.99 143.63 100.88 143.72 101.89 Z M 143.81 102.88 L 143.90 103.87 C 143.99 104.88 144.89 105.62 145.89 105.53 C 146.90 105.43 147.65 104.54 147.55 103.53 L 147.46 102.54 C 147.37 101.53 146.47 100.79 145.47 100.88 C 144.46 100.98 143.71 101.87 143.81 102.88 Z M 143.89 103.87 L 143.98 104.86 C 144.07 105.87 144.97 106.62 145.98 106.53 C 146.99 106.44 147.74 105.54 147.65 104.53 L 147.56 103.53 C 147.47 102.52 146.57 101.78 145.56 101.87 C 144.55 101.96 143.80 102.85 143.89 103.87 Z M 143.98 104.86 L 144.06 105.86 C 144.15 106.87 145.05 107.62 146.06 107.53 C 147.08 107.45 147.83 106.55 147.74 105.54 L 147.65 104.53 C 147.57 103.52 146.67 102.77 145.65 102.86 C 144.64 102.94 143.89 103.84 143.98 104.86 Z M 144.06 105.85 L 144.14 106.85 C 144.23 107.87 145.12 108.63 146.14 108.55 C 147.16 108.46 147.92 107.57 147.83 106.55 L 147.75 105.54 C 147.66 104.52 146.77 103.77 145.75 103.85 C 144.73 103.93 143.97 104.83 144.06 105.85 Z M 144.14 106.85 L 144.21 107.85 C 144.29 108.87 145.19 109.63 146.21 109.55 C 147.23 109.47 148.00 108.58 147.92 107.56 L 147.84 106.55 C 147.76 105.53 146.86 104.77 145.84 104.85 C 144.82 104.93 144.05 105.82 144.14 106.85 Z M 144.21 107.84 L 144.29 108.85 C 144.36 109.87 145.26 110.64 146.28 110.56 C 147.31 110.48 148.08 109.59 148.00 108.56 L 147.92 107.56 C 147.84 106.54 146.95 105.77 145.92 105.85 C 144.90 105.92 144.13 106.82 144.21 107.84 Z M 144.28 108.84 L 144.35 109.84 C 144.43 110.87 145.33 111.64 146.35 111.56 C 147.38 111.49 148.15 110.59 148.08 109.56 L 148.00 108.57 C 147.93 107.54 147.03 106.77 146.00 106.84 C 144.97 106.92 144.20 107.82 144.28 108.84 Z M 144.35 109.84 L 144.42 110.83 C 144.50 111.86 145.40 112.63 146.43 112.56 C 147.46 112.48 148.23 111.58 148.16 110.55 L 148.08 109.56 C 148.01 108.53 147.11 107.76 146.08 107.84 C 145.05 107.91 144.27 108.81 144.35 109.84 Z M 144.42 110.83 L 144.50 111.85 C 144.57 112.89 145.47 113.66 146.51 113.58 C 147.54 113.50 148.32 112.60 148.24 111.57 L 148.16 110.55 C 148.08 109.52 147.18 108.74 146.15 108.82 C 145.12 108.90 144.34 109.80 144.42 110.83 Z M 144.49 111.85 L 144.57 112.86 C 144.65 113.89 145.55 114.67 146.59 114.59 C 147.62 114.51 148.40 113.61 148.32 112.57 L 148.24 111.57 C 148.16 110.53 147.26 109.76 146.22 109.83 C 145.19 109.91 144.41 110.82 144.49 111.85 Z M 144.56 112.86 L 144.64 113.85 C 144.72 114.89 145.63 115.66 146.67 115.58 C 147.70 115.50 148.48 114.60 148.40 113.56 L 148.33 112.57 C 148.24 111.53 147.34 110.75 146.30 110.83 C 145.26 110.91 144.48 111.82 144.56 112.86 Z M 144.63 113.85 L 144.71 114.82 C 144.79 115.87 145.70 116.64 146.74 116.56 C 147.78 116.48 148.56 115.57 148.48 114.53 L 148.41 113.56 C 148.33 112.51 147.42 111.73 146.37 111.82 C 145.33 111.90 144.55 112.81 144.63 113.85 Z M 144.70 114.82 L 144.78 115.81 C 144.86 116.86 145.78 117.64 146.82 117.56 C 147.87 117.48 148.65 116.56 148.57 115.52 L 148.49 114.53 C 148.41 113.48 147.49 112.70 146.45 112.78 C 145.40 112.87 144.62 113.78 144.70 114.82 Z M 144.77 115.81 L 144.85 116.80 C 144.94 117.85 145.85 118.63 146.90 118.55 C 147.95 118.47 148.73 117.55 148.65 116.50 L 148.57 115.51 C 148.49 114.47 147.57 113.68 146.52 113.77 C 145.47 113.85 144.69 114.77 144.77 115.81 Z M 144.85 116.80 L 144.93 117.80 C 145.01 118.85 145.93 119.64 146.98 119.55 C 148.03 119.47 148.82 118.55 148.73 117.49 L 148.65 116.50 C 148.57 115.45 147.65 114.66 146.60 114.75 C 145.55 114.83 144.76 115.75 144.85 116.80 Z M 144.92 117.81 L 145.01 118.82 C 145.10 119.87 146.02 120.66 147.07 120.57 C 148.13 120.48 148.91 119.56 148.82 118.50 L 148.74 117.49 C 148.65 116.44 147.73 115.65 146.67 115.74 C 145.62 115.83 144.84 116.75 144.92 117.81 Z M 145.00 118.83 L 145.09 119.83 C 145.18 120.88 146.11 121.67 147.16 121.58 C 148.22 121.49 149.00 120.56 148.91 119.50 L 148.83 118.50 C 148.74 117.44 147.81 116.66 146.75 116.75 C 145.70 116.84 144.91 117.77 145.00 118.83 Z M 145.08 119.83 L 145.17 120.84 C 145.26 121.90 146.19 122.68 147.25 122.59 C 148.31 122.50 149.10 121.57 149.00 120.51 L 148.92 119.50 C 148.83 118.44 147.89 117.66 146.84 117.75 C 145.78 117.84 144.99 118.77 145.08 119.83 Z M 145.16 120.84 L 145.25 121.84 C 145.34 122.90 146.27 123.69 147.34 123.60 C 148.40 123.51 149.18 122.57 149.09 121.51 L 149.01 120.51 C 148.92 119.45 147.99 118.66 146.92 118.75 C 145.86 118.84 145.07 119.77 145.16 120.84 Z M 145.24 121.83 L 145.32 122.81 C 145.41 123.87 146.34 124.66 147.41 124.58 C 148.47 124.49 149.27 123.56 149.18 122.49 L 149.10 121.52 C 149.01 120.45 148.08 119.66 147.01 119.75 C 145.95 119.83 145.16 120.77 145.24 121.83 Z M 145.32 122.80 L 145.40 123.83 C 145.48 124.90 146.41 125.69 147.48 125.61 C 148.55 125.53 149.34 124.60 149.26 123.53 L 149.18 122.50 C 149.10 121.43 148.17 120.64 147.10 120.72 C 146.04 120.80 145.24 121.73 145.32 122.80 Z M 145.40 123.82 L 145.47 124.81 C 145.54 125.88 146.47 126.69 147.54 126.61 C 148.61 126.54 149.41 125.61 149.34 124.54 L 149.27 123.54 C 149.19 122.47 148.26 121.67 147.19 121.75 C 146.12 121.82 145.32 122.75 145.40 123.82 Z M 145.46 124.81 L 145.53 125.79 C 145.60 126.86 146.53 127.67 147.60 127.59 C 148.67 127.52 149.48 126.59 149.41 125.52 L 149.34 124.55 C 149.27 123.47 148.34 122.67 147.27 122.74 C 146.20 122.81 145.39 123.74 145.46 124.81 Z M 145.53 125.78 L 145.59 126.76 C 145.66 127.83 146.59 128.65 147.66 128.58 C 148.73 128.51 149.54 127.58 149.47 126.51 L 149.41 125.53 C 149.34 124.46 148.41 123.64 147.34 123.71 C 146.27 123.78 145.46 124.71 145.53 125.78 Z M 145.59 126.76 L 145.65 127.76 C 145.72 128.83 146.65 129.64 147.72 129.57 C 148.79 129.51 149.61 128.58 149.54 127.51 L 149.47 126.51 C 149.41 125.44 148.48 124.62 147.41 124.69 C 146.33 124.76 145.52 125.69 145.59 126.76 Z M 145.65 127.75 L 145.71 128.76 C 145.78 129.83 146.71 130.65 147.78 130.58 C 148.86 130.51 149.67 129.58 149.60 128.51 L 149.54 127.51 C 149.47 126.43 148.55 125.62 147.47 125.69 C 146.40 125.75 145.58 126.68 145.65 127.75 Z M 145.71 128.75 L 145.77 129.76 C 145.84 130.83 146.77 131.65 147.84 131.58 C 148.92 131.51 149.74 130.59 149.67 129.51 L 149.61 128.51 C 149.54 127.44 148.61 126.62 147.54 126.68 C 146.46 126.75 145.64 127.68 145.71 128.75 Z M 145.77 129.76 L 145.83 130.76 C 145.90 131.84 146.83 132.65 147.90 132.59 C 148.98 132.52 149.80 131.59 149.73 130.52 L 149.67 129.51 C 149.60 128.44 148.68 127.62 147.60 127.68 C 146.52 127.75 145.70 128.68 145.77 129.76 Z M 145.83 130.76 L 145.90 131.76 C 145.96 132.84 146.89 133.66 147.97 133.59 C 149.04 133.52 149.86 132.60 149.79 131.52 L 149.73 130.52 C 149.67 129.44 148.74 128.62 147.66 128.69 C 146.59 128.75 145.77 129.68 145.83 130.76 Z M 145.90 131.76 L 145.96 132.76 C 146.02 133.83 146.95 134.65 148.03 134.58 C 149.10 134.52 149.92 133.59 149.86 132.51 L 149.79 131.52 C 149.73 130.44 148.80 129.62 147.72 129.69 C 146.65 129.76 145.83 130.68 145.90 131.76 Z M 145.96 132.76 L 146.02 133.75 C 146.09 134.83 147.02 135.64 148.09 135.58 C 149.17 135.51 149.99 134.58 149.92 133.50 L 149.86 132.51 C 149.79 131.44 148.86 130.62 147.78 130.69 C 146.71 130.75 145.89 131.68 145.96 132.76 Z M 146.02 133.75 L 146.09 134.77 C 146.15 135.85 147.08 136.66 148.16 136.59 C 149.23 136.53 150.05 135.60 149.98 134.52 L 149.92 133.50 C 149.85 132.43 148.92 131.61 147.84 131.68 C 146.77 131.75 145.95 132.67 146.02 133.75 Z M 146.09 134.77 L 146.15 135.78 C 146.22 136.86 147.15 137.68 148.23 137.61 C 149.30 137.54 150.12 136.61 150.05 135.53 L 149.98 134.52 C 149.91 133.44 148.98 132.63 147.91 132.70 C 146.83 132.77 146.02 133.70 146.09 134.77 Z M 146.15 135.79 L 146.22 136.77 C 146.29 137.85 147.22 138.66 148.30 138.59 C 149.37 138.52 150.19 137.59 150.11 136.51 L 150.05 135.53 C 149.98 134.45 149.05 133.64 147.97 133.71 C 146.89 133.78 146.08 134.71 146.15 135.79 Z M 146.22 136.78 L 146.29 137.76 C 146.36 138.84 147.29 139.65 148.37 139.58 C 149.44 139.50 150.25 138.57 150.18 137.50 L 150.11 136.51 C 150.04 135.44 149.11 134.62 148.03 134.70 C 146.96 134.77 146.14 135.70 146.22 136.78 Z M 146.29 137.77 L 146.36 138.77 C 146.43 139.85 147.37 140.66 148.44 140.58 C 149.52 140.51 150.33 139.57 150.25 138.50 L 150.18 137.49 C 150.10 136.42 149.17 135.61 148.09 135.68 C 147.02 135.76 146.21 136.69 146.29 137.77 Z M 146.36 138.78 L 146.43 139.77 C 146.51 140.84 147.45 141.65 148.53 141.57 C 149.60 141.48 150.41 140.55 150.32 139.47 L 150.25 138.49 C 150.17 137.41 149.23 136.61 148.16 136.69 C 147.08 136.77 146.28 137.71 146.36 138.78 Z M 146.43 139.78 L 146.51 140.77 C 146.60 141.84 147.54 142.64 148.62 142.56 C 149.69 142.47 150.49 141.53 150.40 140.46 L 150.32 139.46 C 150.24 138.39 149.29 137.59 148.22 137.68 C 147.15 137.76 146.35 138.70 146.43 139.78 Z M 146.52 140.78 L 146.61 141.81 C 146.70 142.88 147.65 143.68 148.72 143.59 C 149.79 143.49 150.59 142.55 150.49 141.47 L 150.40 140.44 C 150.31 139.37 149.36 138.58 148.29 138.67 C 147.22 138.76 146.42 139.71 146.52 140.78 Z M 146.61 141.82 L 146.70 142.83 C 146.80 143.90 147.75 144.69 148.82 144.59 C 149.89 144.49 150.68 143.54 150.58 142.47 L 150.49 141.46 C 150.39 140.39 149.44 139.60 148.37 139.70 C 147.30 139.80 146.51 140.75 146.61 141.82 Z M 146.70 142.84 L 146.79 143.78 C 146.89 144.86 147.85 145.64 148.92 145.54 C 149.99 145.44 150.78 144.49 150.67 143.41 L 150.58 142.46 C 150.48 141.39 149.53 140.61 148.46 140.71 C 147.38 140.81 146.60 141.76 146.70 142.84 Z M 146.79 143.79 L 146.90 144.83 C 147.00 145.90 147.95 146.68 149.02 146.57 C 150.10 146.47 150.88 145.52 150.77 144.44 L 150.67 143.41 C 150.57 142.34 149.61 141.56 148.54 141.66 C 147.47 141.77 146.69 142.72 146.79 143.79 Z M 146.90 144.82 L 146.99 145.79 C 147.10 146.86 148.05 147.64 149.12 147.54 C 150.19 147.43 150.97 146.48 150.86 145.41 L 150.77 144.45 C 150.67 143.38 149.71 142.60 148.65 142.70 C 147.58 142.80 146.79 143.76 146.90 144.82 Z M 147.00 145.78 L 147.08 146.74 C 147.18 147.81 148.13 148.59 149.19 148.50 C 150.26 148.40 151.05 147.45 150.95 146.39 L 150.86 145.42 C 150.76 144.36 149.82 143.57 148.75 143.67 C 147.68 143.77 146.90 144.71 147.00 145.78 Z M 147.09 146.73 L 147.17 147.71 C 147.26 148.78 148.20 149.57 149.26 149.48 C 150.33 149.39 151.12 148.46 151.03 147.39 L 150.95 146.40 C 150.86 145.33 149.92 144.54 148.85 144.63 C 147.79 144.72 147.00 145.66 147.09 146.73 Z M 147.17 147.70 L 147.25 148.72 C 147.33 149.78 148.26 150.58 149.32 150.50 C 150.39 150.42 151.19 149.49 151.11 148.42 L 151.03 147.40 C 150.95 146.34 150.02 145.54 148.95 145.62 C 147.89 145.70 147.09 146.63 147.17 147.70 Z M 147.25 148.70 L 147.32 149.67 C 147.39 150.74 148.31 151.54 149.37 151.47 C 150.44 151.40 151.24 150.48 151.17 149.41 L 151.10 148.44 C 151.03 147.38 150.11 146.57 149.05 146.64 C 147.98 146.72 147.18 147.64 147.25 148.70 Z M 147.32 149.66 L 147.38 150.64 C 147.44 151.71 148.36 152.52 149.42 152.45 C 150.48 152.39 151.29 151.48 151.23 150.41 L 151.17 149.43 C 151.10 148.37 150.19 147.56 149.13 147.62 C 148.07 147.68 147.26 148.60 147.32 149.66 Z M 147.38 150.63 L 147.44 151.67 C 147.50 152.73 148.40 153.54 149.46 153.49 C 150.52 153.43 151.33 152.52 151.28 151.46 L 151.22 150.43 C 151.17 149.37 150.26 148.55 149.20 148.61 C 148.14 148.67 147.33 149.57 147.38 150.63 Z M 147.44 151.66 L 147.49 152.63 C 147.54 153.69 148.44 154.51 149.50 154.46 C 150.56 154.41 151.37 153.51 151.32 152.45 L 151.27 151.47 C 151.22 150.42 150.32 149.60 149.27 149.65 C 148.21 149.70 147.39 150.60 147.44 151.66 Z M 147.49 152.62 L 147.54 153.63 C 147.58 154.69 148.48 155.51 149.53 155.46 C 150.59 155.41 151.41 154.52 151.36 153.46 L 151.32 152.46 C 151.27 151.40 150.38 150.58 149.32 150.63 C 148.26 150.67 147.45 151.57 147.49 152.62 Z M 147.54 153.62 L 147.58 154.64 C 147.62 155.69 148.51 156.51 149.56 156.47 C 150.62 156.43 151.44 155.55 151.40 154.49 L 151.36 153.47 C 151.32 152.42 150.43 151.59 149.38 151.63 C 148.32 151.67 147.50 152.56 147.54 153.62 Z M 147.58 154.63 L 147.61 155.62 C 147.65 156.67 148.53 157.50 149.58 157.46 C 150.64 157.43 151.46 156.55 151.43 155.49 L 151.40 154.50 C 151.36 153.45 150.48 152.62 149.43 152.65 C 148.37 152.69 147.55 153.57 147.58 154.63 Z M 147.61 155.61 L 147.64 156.59 C 147.67 157.64 148.55 158.47 149.60 158.44 C 150.65 158.41 151.48 157.54 151.45 156.49 L 151.43 155.50 C 151.40 154.45 150.52 153.62 149.47 153.65 C 148.42 153.68 147.59 154.55 147.61 155.61 Z M 147.64 156.58 L 147.67 157.59 C 147.69 158.64 148.57 159.47 149.62 159.44 C 150.67 159.42 151.50 158.55 151.47 157.50 L 151.45 156.49 C 151.42 155.44 150.55 154.61 149.50 154.64 C 148.45 154.66 147.62 155.53 147.64 156.58 Z M 147.67 157.59 L 147.70 158.61 C 147.72 159.66 148.59 160.49 149.64 160.47 C 150.69 160.44 151.52 159.57 151.49 158.52 L 151.47 157.50 C 151.45 156.45 150.58 155.62 149.53 155.64 C 148.48 155.67 147.65 156.54 147.67 157.59 Z M 147.70 158.61 L 147.72 159.63 C 147.75 160.67 148.61 161.50 149.66 161.48 C 150.71 161.46 151.54 160.59 151.51 159.54 L 151.49 158.52 C 151.47 157.48 150.60 156.65 149.55 156.67 C 148.51 156.69 147.68 157.56 147.70 158.61 Z M 147.73 159.62 L 147.75 160.64 C 147.77 161.68 148.63 162.51 149.68 162.49 C 150.72 162.47 151.55 161.61 151.53 160.56 L 151.51 159.54 C 151.49 158.50 150.62 157.67 149.58 157.69 C 148.53 157.71 147.71 158.58 147.73 159.62 Z M 147.75 160.63 L 147.77 161.61 C 147.79 162.66 148.65 163.49 149.69 163.47 C 150.73 163.45 151.56 162.59 151.54 161.55 L 151.53 160.57 C 151.51 159.53 150.65 158.70 149.61 158.71 C 148.56 158.73 147.73 159.59 147.75 160.63 Z M 147.77 161.60 L 147.79 162.65 C 147.80 163.69 148.65 164.53 149.69 164.52 C 150.73 164.50 151.56 163.65 151.55 162.61 L 151.54 161.56 C 151.53 160.52 150.67 159.69 149.63 159.70 C 148.60 159.71 147.76 160.56 147.77 161.60 Z M 147.79 162.64 L 147.80 163.65 C 147.80 164.68 148.65 165.52 149.68 165.51 C 150.72 165.51 151.56 164.66 151.55 163.63 L 151.55 162.62 C 151.54 161.59 150.70 160.75 149.66 160.76 C 148.62 160.76 147.79 161.61 147.79 162.64 Z M 147.80 163.64 L 147.80 164.58 C 147.80 165.62 148.64 166.45 149.68 166.45 C 150.71 166.45 151.55 165.61 151.55 164.58 L 151.55 163.64 C 151.54 162.60 150.71 161.76 149.67 161.76 C 148.64 161.77 147.80 162.60 147.80 163.64 Z M 147.81 164.58 L 147.81 165.59 C 147.81 166.62 148.64 167.46 149.67 167.46 C 150.71 167.46 151.54 166.62 151.54 165.59 L 151.54 164.58 C 151.54 163.55 150.71 162.71 149.67 162.71 C 148.64 162.71 147.81 163.55 147.81 164.58 Z M 147.81 165.59 L 147.81 166.59 C 147.81 167.62 148.65 168.45 149.67 168.45 C 150.70 168.45 151.54 167.62 151.54 166.59 L 151.54 165.59 C 151.54 164.56 150.70 163.73 149.67 163.73 C 148.65 163.73 147.81 164.56 147.81 165.59 Z M 147.82 166.59 L 147.82 167.57 C 147.82 168.59 148.65 169.42 149.67 169.42 C 150.70 169.42 151.53 168.59 151.53 167.57 L 151.53 166.59 C 151.53 165.57 150.70 164.74 149.67 164.74 C 148.65 164.74 147.82 165.57 147.82 166.59 Z M 147.83 167.57 L 147.83 168.56 C 147.83 169.58 148.65 170.41 149.67 170.41 C 150.69 170.41 151.52 169.58 151.52 168.56 L 151.52 167.57 C 151.52 166.55 150.69 165.72 149.67 165.72 C 148.65 165.72 147.83 166.55 147.83 167.57 Z M 147.83 168.56 L 147.83 169.56 C 147.83 170.58 148.66 171.40 149.67 171.40 C 150.69 171.40 151.51 170.58 151.51 169.56 L 151.51 168.56 C 151.51 167.55 150.69 166.72 149.67 166.72 C 148.66 166.72 147.83 167.55 147.83 168.56 Z M 147.84 169.56 L 147.84 170.55 C 147.84 171.57 148.66 172.39 149.67 172.39 C 150.69 172.39 151.51 171.57 151.51 170.55 L 151.51 169.56 C 151.51 168.55 150.69 167.73 149.67 167.73 C 148.66 167.73 147.84 168.55 147.84 169.56 Z M 147.84 170.55 L 147.84 171.56 C 147.84 172.57 148.66 173.40 149.67 173.40 C 150.69 173.40 151.51 172.57 151.51 171.56 L 151.51 170.55 C 151.51 169.54 150.69 168.72 149.67 168.72 C 148.66 168.72 147.84 169.54 147.84 170.55 Z M 147.84 171.56 L 147.84 172.56 C 147.84 173.57 148.66 174.39 149.67 174.39 C 150.69 174.39 151.51 173.57 151.51 172.56 L 151.51 171.56 C 151.51 170.55 150.69 169.73 149.67 169.73 C 148.66 169.73 147.84 170.55 147.84 171.56 Z M 147.84 172.55 L 147.84 173.52 C 147.83 174.53 148.65 175.36 149.67 175.36 C 150.68 175.36 151.50 174.55 151.50 173.53 L 151.51 172.56 C 151.51 171.55 150.69 170.73 149.68 170.72 C 148.67 170.72 147.84 171.54 147.84 172.55 Z M 147.84 173.50 L 147.82 174.52 C 147.81 175.53 148.62 176.36 149.63 176.37 C 150.64 176.39 151.47 175.58 151.49 174.57 L 151.50 173.55 C 151.52 172.54 150.71 171.71 149.70 171.70 C 148.69 171.68 147.85 172.49 147.84 173.50 Z M 147.82 174.49 L 147.79 175.50 C 147.76 176.51 148.56 177.35 149.57 177.38 C 150.58 177.41 151.43 176.62 151.46 175.61 L 151.49 174.60 C 151.52 173.59 150.72 172.74 149.71 172.71 C 148.70 172.68 147.86 173.47 147.82 174.49 Z M 147.80 175.47 L 147.75 176.48 C 147.70 177.50 148.49 178.35 149.50 178.40 C 150.51 178.44 151.36 177.66 151.41 176.65 L 151.46 175.63 C 151.50 174.62 150.72 173.77 149.71 173.72 C 148.70 173.68 147.84 174.46 147.80 175.47 Z M 147.75 176.46 L 147.69 177.47 C 147.64 178.48 148.41 179.34 149.42 179.40 C 150.43 179.46 151.29 178.69 151.35 177.68 L 151.41 176.67 C 151.47 175.66 150.69 174.80 149.68 174.74 C 148.67 174.68 147.81 175.45 147.75 176.46 Z M 147.70 177.44 L 147.62 178.47 C 147.55 179.48 148.31 180.35 149.32 180.42 C 150.33 180.49 151.21 179.73 151.28 178.72 L 151.35 177.70 C 151.42 176.69 150.66 175.82 149.65 175.75 C 148.64 175.67 147.77 176.44 147.70 177.44 Z M 147.63 178.45 L 147.55 179.44 C 147.47 180.45 148.22 181.33 149.23 181.41 C 150.23 181.49 151.12 180.74 151.20 179.73 L 151.28 178.74 C 151.36 177.73 150.60 176.85 149.60 176.77 C 148.59 176.69 147.71 177.44 147.63 178.45 Z M 147.55 179.44 L 147.47 180.41 C 147.39 181.42 148.14 182.30 149.15 182.38 C 150.16 182.46 151.04 181.71 151.12 180.70 L 151.20 179.73 C 151.28 178.72 150.52 177.84 149.52 177.76 C 148.51 177.68 147.63 178.44 147.55 179.44 Z M 147.47 180.43 L 147.40 181.43 C 147.33 182.44 148.09 183.32 149.10 183.39 C 150.10 183.46 150.98 182.70 151.05 181.69 L 151.12 180.68 C 151.19 179.67 150.43 178.80 149.42 178.73 C 148.42 178.66 147.54 179.42 147.47 180.43 Z M 147.40 181.45 L 147.33 182.44 C 147.27 183.45 148.03 184.32 149.04 184.39 C 150.05 184.45 150.92 183.69 150.98 182.68 L 151.05 181.68 C 151.12 180.67 150.35 179.80 149.34 179.74 C 148.33 179.67 147.46 180.44 147.40 181.45 Z M 147.33 182.45 L 147.27 183.46 C 147.20 184.46 147.97 185.33 148.98 185.40 C 149.98 185.46 150.85 184.70 150.92 183.69 L 150.98 182.68 C 151.05 181.67 150.28 180.80 149.28 180.74 C 148.27 180.67 147.40 181.44 147.33 182.45 Z M 147.27 183.45 L 147.20 184.45 C 147.14 185.46 147.90 186.33 148.91 186.40 C 149.91 186.47 150.78 185.70 150.85 184.70 L 150.92 183.70 C 150.99 182.69 150.22 181.82 149.22 181.75 C 148.21 181.68 147.34 182.44 147.27 183.45 Z M 147.20 184.44 L 147.13 185.42 C 147.06 186.43 147.82 187.30 148.83 187.37 C 149.84 187.45 150.71 186.69 150.78 185.68 L 150.85 184.70 C 150.92 183.70 150.16 182.82 149.16 182.75 C 148.15 182.68 147.28 183.44 147.20 184.44 Z M 147.14 185.42 L 147.06 186.43 C 146.99 187.43 147.74 188.31 148.75 188.38 C 149.76 188.46 150.63 187.70 150.71 186.69 L 150.78 185.68 C 150.85 184.68 150.10 183.80 149.09 183.73 C 148.08 183.66 147.21 184.41 147.14 185.42 Z M 147.06 186.44 L 147.00 187.39 C 146.93 188.40 147.70 189.26 148.70 189.33 C 149.71 189.40 150.58 188.63 150.64 187.63 L 150.71 186.68 C 150.77 185.67 150.01 184.80 149.00 184.74 C 148.00 184.67 147.13 185.44 147.06 186.44 Z M 147.00 187.41 L 146.95 188.27 C 146.90 189.28 147.67 190.14 148.68 190.19 C 149.68 190.25 150.54 189.47 150.60 188.47 L 150.65 187.61 C 150.70 186.60 149.93 185.74 148.92 185.68 C 147.92 185.63 147.05 186.40 147.00 187.41 Z M 146.95 188.26 L 146.89 189.35 C 146.83 190.36 147.59 191.22 148.60 191.28 C 149.61 191.34 150.47 190.58 150.53 189.57 L 150.60 188.48 C 150.66 187.47 149.89 186.61 148.89 186.55 C 147.88 186.49 147.01 187.25 146.95 188.26 Z M 146.89 189.33 L 146.82 190.36 C 146.75 191.37 147.50 192.24 148.51 192.31 C 149.51 192.38 150.39 191.62 150.46 190.62 L 150.53 189.59 C 150.60 188.58 149.84 187.71 148.84 187.64 C 147.83 187.57 146.96 188.33 146.89 189.33 Z M 146.82 190.35 L 146.74 191.39 C 146.66 192.39 147.41 193.27 148.41 193.35 C 149.42 193.43 150.30 192.68 150.37 191.67 L 150.46 190.63 C 150.53 189.63 149.78 188.75 148.78 188.67 C 147.77 188.59 146.90 189.34 146.82 190.35 Z M 146.74 191.38 L 146.65 192.43 C 146.57 193.43 147.31 194.31 148.32 194.40 C 149.32 194.48 150.20 193.73 150.29 192.73 L 150.37 191.68 C 150.46 190.68 149.71 189.80 148.71 189.71 C 147.70 189.63 146.82 190.38 146.74 191.38 Z M 146.65 192.42 L 146.57 193.36 C 146.48 194.36 147.22 195.25 148.22 195.34 C 149.23 195.43 150.11 194.69 150.20 193.68 L 150.29 192.74 C 150.38 191.74 149.63 190.85 148.63 190.76 C 147.63 190.67 146.74 191.41 146.65 192.42 Z M 146.57 193.34 L 146.45 194.53 C 146.35 195.53 147.08 196.43 148.08 196.53 C 149.08 196.63 149.97 195.90 150.07 194.90 L 150.20 193.71 C 150.30 192.71 149.57 191.81 148.57 191.71 C 147.57 191.61 146.67 192.33 146.57 193.34 Z M 146.46 194.51 L 146.36 195.35 C 146.24 196.35 146.95 197.25 147.95 197.37 C 148.95 197.48 149.85 196.77 149.97 195.77 L 150.07 194.93 C 150.19 193.93 149.47 193.03 148.47 192.91 C 147.48 192.79 146.57 193.51 146.46 194.51 Z M 146.36 195.36 L 146.26 196.27 C 146.14 197.27 146.86 198.17 147.86 198.28 C 148.86 198.39 149.76 197.67 149.87 196.68 L 149.97 195.76 C 150.08 194.76 149.36 193.87 148.37 193.75 C 147.37 193.64 146.47 194.36 146.36 195.36 Z M 146.26 196.29 L 146.15 197.31 C 146.05 198.31 146.77 199.20 147.77 199.30 C 148.77 199.40 149.66 198.68 149.76 197.68 L 149.87 196.66 C 149.97 195.66 149.24 194.77 148.25 194.67 C 147.25 194.57 146.36 195.29 146.26 196.29 Z M 146.15 197.31 L 146.05 198.31 C 145.95 199.31 146.67 200.20 147.67 200.30 C 148.67 200.40 149.56 199.68 149.66 198.68 L 149.76 197.68 C 149.86 196.68 149.14 195.79 148.14 195.69 C 147.14 195.59 146.25 196.31 146.15 197.31 Z M 146.05 198.31 L 145.95 199.30 C 145.85 200.30 146.57 201.19 147.57 201.29 C 148.56 201.39 149.45 200.67 149.56 199.67 L 149.66 198.68 C 149.76 197.68 149.03 196.79 148.04 196.69 C 147.04 196.59 146.15 197.31 146.05 198.31 Z M 145.95 199.32 L 145.86 200.28 C 145.77 201.27 146.50 202.15 147.50 202.24 C 148.49 202.34 149.37 201.60 149.47 200.61 L 149.55 199.65 C 149.65 198.66 148.91 197.78 147.92 197.68 C 146.92 197.59 146.04 198.32 145.95 199.32 Z M 145.86 200.35 L 145.81 201.36 C 145.75 202.36 146.52 203.21 147.51 203.27 C 148.51 203.32 149.36 202.55 149.41 201.56 L 149.47 200.54 C 149.52 199.54 148.76 198.69 147.76 198.64 C 146.76 198.58 145.91 199.35 145.86 200.35 Z M 145.81 201.43 L 145.79 202.39 C 145.77 203.39 146.56 204.21 147.56 204.23 C 148.55 204.25 149.38 203.45 149.40 202.46 L 149.41 201.49 C 149.43 200.50 148.64 199.68 147.64 199.66 C 146.65 199.64 145.82 200.43 145.81 201.43 Z M 145.79 202.42 L 145.79 203.46 C 145.78 204.45 146.59 205.26 147.58 205.27 C 148.58 205.27 149.38 204.47 149.39 203.47 L 149.39 202.43 C 149.40 201.44 148.59 200.63 147.60 200.62 C 146.60 200.62 145.79 201.42 145.79 202.42 Z M 145.79 203.47 L 145.79 204.49 C 145.79 205.48 146.59 206.29 147.59 206.29 C 148.58 206.29 149.39 205.48 149.39 204.49 L 149.39 203.47 C 149.39 202.47 148.58 201.67 147.59 201.67 C 146.59 201.67 145.79 202.47 145.79 203.47 Z M 145.79 204.49 L 145.79 205.48 C 145.79 206.47 146.60 207.28 147.59 207.28 C 148.58 207.28 149.38 206.47 149.38 205.48 L 149.38 204.49 C 149.38 203.50 148.58 202.70 147.59 202.70 C 146.60 202.70 145.79 203.50 145.79 204.49 Z M 145.80 205.48 L 145.80 206.48 C 145.80 207.47 146.60 208.27 147.59 208.27 C 148.58 208.27 149.38 207.47 149.38 206.48 L 149.38 205.48 C 149.38 204.50 148.58 203.70 147.59 203.70 C 146.60 203.70 145.80 204.50 145.80 205.48 Z M 145.80 206.48 L 145.80 207.49 C 145.80 208.48 146.60 209.28 147.59 209.28 C 148.57 209.28 149.37 208.48 149.37 207.49 L 149.37 206.48 C 149.37 205.50 148.57 204.70 147.59 204.70 C 146.60 204.70 145.80 205.50 145.80 206.48 Z M 145.81 207.49 L 145.81 208.50 C 145.81 209.48 146.60 210.28 147.59 210.28 C 148.57 210.28 149.37 209.48 149.37 208.50 L 149.37 207.49 C 149.37 206.51 148.57 205.71 147.59 205.71 C 146.60 205.71 145.81 206.51 145.81 207.49 Z M 145.81 208.50 L 145.81 209.52 C 145.81 210.50 146.61 211.30 147.59 211.30 C 148.57 211.30 149.37 210.50 149.37 209.52 L 149.37 208.50 C 149.37 207.51 148.57 206.72 147.59 206.72 C 146.60 206.72 145.81 207.52 145.81 208.50 Z M 145.81 209.54 L 145.82 210.55 C 145.83 211.53 146.63 212.31 147.61 212.31 C 148.59 212.30 149.38 211.50 149.37 210.52 L 149.36 209.51 C 149.36 208.53 148.55 207.74 147.57 207.75 C 146.59 207.75 145.80 208.55 145.81 209.54 Z M 145.82 210.59 L 145.86 211.54 C 145.89 212.52 146.71 213.29 147.69 213.26 C 148.66 213.22 149.43 212.40 149.40 211.43 L 149.37 210.47 C 149.34 209.49 148.52 208.73 147.54 208.76 C 146.56 208.79 145.79 209.61 145.82 210.59 Z M 145.86 211.61 L 145.93 212.59 C 146.00 213.57 146.85 214.30 147.82 214.23 C 148.80 214.16 149.53 213.32 149.46 212.34 L 149.39 211.36 C 149.32 210.38 148.48 209.65 147.50 209.72 C 146.53 209.79 145.79 210.64 145.86 211.61 Z M 145.94 212.63 L 146.05 213.76 C 146.14 214.73 147.00 215.45 147.97 215.36 C 148.94 215.27 149.65 214.41 149.56 213.44 L 149.45 212.30 C 149.36 211.33 148.50 210.62 147.53 210.71 C 146.56 210.80 145.85 211.66 145.94 212.63 Z M 146.07 213.87 L 146.22 214.81 C 146.36 215.77 147.26 216.43 148.22 216.28 C 149.18 216.13 149.83 215.23 149.68 214.27 L 149.54 213.33 C 149.39 212.37 148.49 211.72 147.53 211.87 C 146.58 212.01 145.92 212.91 146.07 213.87 Z M 149.59 214.94 L 149.73 214.37 C 149.95 213.46 149.39 212.55 148.48 212.33 C 147.58 212.11 146.66 212.67 146.44 213.58 L 146.30 214.15 C 146.08 215.06 146.64 215.97 147.55 216.19 C 148.46 216.41 149.38 215.85 149.59 214.94 Z M 149.66 214.09 L 149.76 212.83 C 149.82 211.96 149.17 211.20 148.30 211.14 C 147.43 211.07 146.67 211.73 146.61 212.60 L 146.51 213.85 C 146.45 214.73 147.10 215.48 147.97 215.55 C 148.84 215.61 149.60 214.96 149.66 214.09 Z M 149.67 212.75 L 149.70 211.74 C 149.72 210.91 149.07 210.23 148.25 210.21 C 147.42 210.19 146.74 210.84 146.72 211.66 L 146.69 212.68 C 146.67 213.50 147.32 214.18 148.14 214.20 C 148.96 214.23 149.65 213.58 149.67 212.75 Z M 149.65 211.70 L 149.65 211.23 C 149.65 210.43 149.01 209.78 148.21 209.78 C 147.42 209.78 146.77 210.42 146.77 211.22 L 146.77 211.69 C 146.76 212.49 147.41 213.14 148.20 213.14 C 149.00 213.14 149.65 212.50 149.65 211.70 Z"
      fill="black"
      fill-rule="nonzero" /><path d="M 96.95 224.38 L 97.44 225.26 C 97.85 226.02 98.80 226.29 99.56 225.88 C 100.32 225.46 100.59 224.51 100.17 223.75 L 99.68 222.87 C 99.27 222.11 98.31 221.84 97.56 222.26 C 96.80 222.67 96.53 223.62 96.95 224.38 Z M 97.90 225.95 L 98.67 226.44 C 99.46 226.94 100.52 226.70 101.02 225.90 C 101.52 225.11 101.28 224.05 100.48 223.55 L 99.71 223.07 C 98.92 222.57 97.86 222.80 97.36 223.60 C 96.86 224.40 97.10 225.45 97.90 225.95 Z M 99.35 226.78 L 100.39 226.91 C 101.37 227.03 102.27 226.33 102.39 225.34 C 102.52 224.36 101.82 223.46 100.83 223.34 L 99.80 223.21 C 98.81 223.09 97.91 223.79 97.79 224.77 C 97.67 225.76 98.37 226.66 99.35 226.78 Z M 100.56 226.97 L 101.51 226.99 C 102.53 227.02 103.38 226.21 103.40 225.19 C 103.43 224.17 102.62 223.32 101.60 223.30 L 100.65 223.28 C 99.63 223.25 98.79 224.06 98.76 225.08 C 98.74 226.10 99.54 226.94 100.56 226.97 Z M 101.55 227.01 L 102.61 227.02 C 103.64 227.02 104.48 226.19 104.48 225.15 C 104.48 224.12 103.65 223.28 102.62 223.28 L 101.56 223.28 C 100.53 223.27 99.69 224.11 99.69 225.14 C 99.68 226.17 100.52 227.01 101.55 227.01 Z M 102.61 227.03 L 103.61 227.03 C 104.65 227.03 105.50 226.19 105.50 225.15 C 105.50 224.11 104.65 223.26 103.61 223.26 L 102.61 223.26 C 101.57 223.26 100.73 224.11 100.73 225.15 C 100.73 226.19 101.57 227.03 102.61 227.03 Z M 103.61 227.04 L 104.63 227.04 C 105.67 227.04 106.52 226.20 106.52 225.15 C 106.52 224.10 105.67 223.25 104.63 223.25 L 103.61 223.25 C 102.57 223.25 101.72 224.10 101.72 225.15 C 101.72 226.20 102.57 227.04 103.61 227.04 Z M 104.63 227.05 L 105.66 227.05 C 106.71 227.05 107.57 226.20 107.57 225.15 C 107.57 224.10 106.71 223.24 105.66 223.24 L 104.63 223.24 C 103.58 223.24 102.72 224.10 102.72 225.15 C 102.72 226.20 103.58 227.05 104.63 227.05 Z M 105.66 227.06 L 106.63 227.06 C 107.69 227.06 108.54 226.21 108.54 225.15 C 108.54 224.09 107.69 223.24 106.63 223.24 L 105.66 223.24 C 104.61 223.24 103.75 224.09 103.75 225.15 C 103.75 226.21 104.61 227.06 105.66 227.06 Z M 106.63 227.07 L 107.59 227.07 C 108.64 227.07 109.50 226.21 109.50 225.15 C 109.50 224.09 108.64 223.23 107.59 223.23 L 106.63 223.23 C 105.57 223.23 104.71 224.09 104.71 225.15 C 104.71 226.21 105.57 227.07 106.63 227.07 Z M 107.59 227.07 L 108.60 227.07 C 109.66 227.07 110.52 226.21 110.52 225.15 C 110.52 224.09 109.66 223.23 108.60 223.23 L 107.59 223.23 C 106.53 223.23 105.67 224.09 105.67 225.15 C 105.67 226.21 106.53 227.07 107.59 227.07 Z M 108.60 227.07 L 109.57 227.07 C 110.63 227.07 111.49 226.21 111.49 225.15 C 111.49 224.09 110.63 223.23 109.57 223.23 L 108.60 223.23 C 107.54 223.23 106.68 224.09 106.68 225.15 C 106.68 226.21 107.54 227.07 108.60 227.07 Z M 109.57 227.07 L 110.59 227.07 C 111.65 227.07 112.51 226.21 112.51 225.15 C 112.51 224.09 111.65 223.23 110.59 223.23 L 109.57 223.23 C 108.51 223.23 107.65 224.09 107.65 225.15 C 107.65 226.21 108.51 227.07 109.57 227.07 Z M 110.59 227.07 L 111.59 227.07 C 112.65 227.07 113.51 226.21 113.51 225.15 C 113.51 224.09 112.65 223.23 111.59 223.23 L 110.59 223.23 C 109.53 223.23 108.67 224.09 108.67 225.15 C 108.67 226.21 109.53 227.07 110.59 227.07 Z M 111.59 227.07 L 112.59 227.07 C 113.65 227.07 114.51 226.20 114.50 225.14 C 114.50 224.08 113.64 223.22 112.58 223.22 L 111.58 223.23 C 110.52 223.23 109.66 224.09 109.67 225.15 C 109.67 226.22 110.53 227.07 111.59 227.07 Z M 112.60 227.07 L 113.63 227.06 C 114.69 227.05 115.54 226.18 115.53 225.12 C 115.52 224.06 114.65 223.21 113.59 223.22 L 112.57 223.23 C 111.51 223.24 110.65 224.10 110.66 225.16 C 110.67 226.22 111.54 227.07 112.60 227.07 Z M 113.64 227.06 L 114.62 227.04 C 115.68 227.02 116.53 226.15 116.51 225.09 C 116.49 224.03 115.62 223.19 114.56 223.20 L 113.58 223.22 C 112.52 223.24 111.67 224.11 111.69 225.17 C 111.71 226.23 112.58 227.07 113.64 227.06 Z M 114.63 227.04 L 115.64 227.02 C 116.70 227.00 117.54 226.12 117.52 225.06 C 117.49 224.00 116.61 223.16 115.55 223.18 L 114.55 223.20 C 113.49 223.22 112.65 224.10 112.67 225.16 C 112.69 226.22 113.57 227.06 114.63 227.04 Z M 115.64 227.02 L 116.65 226.99 C 117.71 226.97 118.55 226.09 118.52 225.02 C 118.49 223.96 117.61 223.13 116.55 223.15 L 115.55 223.18 C 114.48 223.21 113.65 224.09 113.67 225.15 C 113.70 226.21 114.58 227.05 115.64 227.02 Z M 116.65 227.00 L 117.62 226.97 C 118.69 226.94 119.52 226.05 119.49 224.99 C 119.46 223.93 118.58 223.09 117.52 223.12 L 116.54 223.15 C 115.48 223.18 114.64 224.07 114.67 225.13 C 114.70 226.19 115.59 227.03 116.65 227.00 Z M 117.63 226.97 L 118.64 226.94 C 119.70 226.90 120.54 226.02 120.50 224.95 C 120.47 223.89 119.58 223.06 118.52 223.09 L 117.51 223.12 C 116.45 223.16 115.61 224.04 115.65 225.11 C 115.68 226.17 116.57 227.00 117.63 226.97 Z M 118.65 226.94 L 119.67 226.90 C 120.73 226.87 121.56 225.97 121.53 224.91 C 121.49 223.85 120.60 223.01 119.53 223.05 L 118.51 223.09 C 117.45 223.13 116.61 224.02 116.65 225.08 C 116.69 226.15 117.58 226.98 118.65 226.94 Z M 119.68 226.91 L 120.67 226.87 C 121.74 226.83 122.57 225.93 122.53 224.86 C 122.49 223.80 121.59 222.97 120.52 223.01 L 119.53 223.05 C 118.46 223.09 117.63 223.99 117.67 225.05 C 117.71 226.12 118.61 226.95 119.68 226.91 Z M 120.68 226.88 L 121.69 226.83 C 122.76 226.79 123.59 225.88 123.54 224.81 C 123.50 223.74 122.60 222.91 121.53 222.96 L 120.52 223.00 C 119.45 223.05 118.61 223.95 118.66 225.02 C 118.71 226.09 119.61 226.92 120.68 226.88 Z M 121.69 226.84 L 122.70 226.80 C 123.77 226.75 124.60 225.84 124.55 224.76 C 124.50 223.69 123.60 222.86 122.52 222.91 L 121.52 222.95 C 120.45 223.00 119.62 223.91 119.66 224.98 C 119.71 226.06 120.62 226.89 121.69 226.84 Z M 122.70 226.80 L 123.71 226.75 C 124.79 226.70 125.62 225.79 125.57 224.71 C 125.52 223.64 124.61 222.80 123.53 222.85 L 122.52 222.90 C 121.44 222.95 120.61 223.87 120.66 224.94 C 120.71 226.02 121.62 226.85 122.70 226.80 Z M 123.72 226.76 L 124.71 226.71 C 125.79 226.66 126.63 225.74 126.57 224.66 C 126.52 223.58 125.60 222.74 124.52 222.80 L 123.52 222.85 C 122.44 222.90 121.61 223.82 121.67 224.90 C 121.72 225.98 122.64 226.81 123.72 226.76 Z M 124.73 226.72 L 125.71 226.66 C 126.80 226.60 127.63 225.67 127.57 224.59 C 127.50 223.51 126.58 222.68 125.49 222.74 L 124.51 222.79 C 123.42 222.85 122.59 223.78 122.65 224.86 C 122.72 225.95 123.64 226.78 124.73 226.72 Z M 125.73 226.66 L 126.71 226.60 C 127.79 226.54 128.62 225.60 128.55 224.51 C 128.48 223.43 127.55 222.60 126.46 222.67 L 125.48 222.73 C 124.40 222.80 123.57 223.74 123.64 224.82 C 123.71 225.91 124.64 226.73 125.73 226.66 Z M 126.71 226.61 L 127.71 226.54 C 128.79 226.47 129.62 225.53 129.55 224.44 C 129.47 223.35 128.53 222.53 127.45 222.60 L 126.45 222.67 C 125.37 222.74 124.54 223.68 124.61 224.77 C 124.69 225.86 125.63 226.68 126.71 226.61 Z M 127.70 226.55 L 128.71 226.48 C 129.81 226.41 130.63 225.47 130.56 224.38 C 130.49 223.29 129.55 222.46 128.46 222.53 L 127.45 222.60 C 126.36 222.67 125.53 223.61 125.60 224.70 C 125.67 225.79 126.61 226.62 127.70 226.55 Z M 128.70 226.49 L 129.70 226.43 C 130.79 226.36 131.63 225.42 131.56 224.33 C 131.50 223.24 130.56 222.40 129.46 222.47 L 128.47 222.53 C 127.38 222.59 126.54 223.53 126.61 224.62 C 126.67 225.72 127.61 226.55 128.70 226.49 Z M 129.69 226.43 L 130.68 226.38 C 131.77 226.32 132.61 225.38 132.55 224.28 C 132.49 223.19 131.56 222.35 130.46 222.41 L 129.47 222.46 C 128.38 222.52 127.54 223.46 127.60 224.56 C 127.66 225.65 128.59 226.49 129.69 226.43 Z M 130.68 226.38 L 131.68 226.33 C 132.78 226.27 133.62 225.33 133.56 224.23 C 133.50 223.13 132.57 222.29 131.47 222.35 L 130.46 222.40 C 129.36 222.46 128.52 223.40 128.58 224.50 C 128.64 225.60 129.58 226.44 130.68 226.38 Z M 131.69 226.33 L 132.70 226.27 C 133.80 226.21 134.64 225.27 134.58 224.17 C 134.52 223.07 133.58 222.23 132.48 222.29 L 131.46 222.35 C 130.36 222.41 129.52 223.35 129.58 224.45 C 129.64 225.55 130.59 226.39 131.69 226.33 Z M 132.70 226.28 L 133.69 226.22 C 134.79 226.16 135.63 225.21 135.56 224.11 C 135.50 223.01 134.55 222.16 133.45 222.23 L 132.47 222.29 C 131.37 222.35 130.53 223.30 130.59 224.40 C 130.66 225.50 131.60 226.34 132.70 226.28 Z M 133.69 226.22 L 134.68 226.17 C 135.79 226.10 136.63 225.15 136.56 224.05 C 136.50 222.94 135.55 222.10 134.45 222.17 L 133.45 222.23 C 132.35 222.29 131.50 223.24 131.57 224.34 C 131.64 225.45 132.58 226.29 133.69 226.22 Z M 134.68 226.17 L 135.69 226.11 C 136.79 226.05 137.64 225.10 137.58 224.00 C 137.52 222.89 136.57 222.04 135.46 222.11 L 134.45 222.16 C 133.34 222.23 132.50 223.17 132.56 224.28 C 132.62 225.39 133.57 226.23 134.68 226.17 Z M 135.68 226.12 L 136.67 226.07 C 137.78 226.01 138.63 225.06 138.58 223.96 C 138.52 222.85 137.58 221.99 136.47 222.05 L 135.47 222.10 C 134.36 222.16 133.51 223.10 133.57 224.21 C 133.62 225.32 134.57 226.17 135.68 226.12 Z M 136.66 226.07 L 137.64 226.02 C 138.75 225.97 139.61 225.03 139.56 223.92 C 139.51 222.81 138.57 221.95 137.46 222.00 L 136.48 222.05 C 135.37 222.10 134.51 223.04 134.56 224.15 C 134.61 225.26 135.55 226.12 136.66 226.07 Z M 137.64 226.03 L 138.64 225.98 C 139.75 225.93 140.61 224.99 140.56 223.88 C 140.51 222.77 139.57 221.91 138.46 221.96 L 137.46 222.00 C 136.35 222.05 135.49 222.99 135.54 224.10 C 135.58 225.21 136.53 226.07 137.64 226.03 Z M 138.64 225.98 L 139.66 225.94 C 140.77 225.89 141.63 224.95 141.58 223.83 C 141.53 222.72 140.59 221.86 139.48 221.91 L 138.46 221.95 C 137.34 222.00 136.48 222.95 136.53 224.06 C 136.58 225.17 137.52 226.03 138.64 225.98 Z M 139.66 225.94 L 140.68 225.89 C 141.80 225.84 142.66 224.89 142.60 223.78 C 142.55 222.67 141.60 221.81 140.49 221.86 L 139.47 221.91 C 138.36 221.96 137.50 222.91 137.55 224.02 C 137.60 225.13 138.55 225.99 139.66 225.94 Z M 140.69 225.89 L 141.70 225.84 C 142.82 225.79 143.67 224.84 143.62 223.73 C 143.57 222.61 142.62 221.75 141.50 221.81 L 140.49 221.86 C 139.37 221.91 138.51 222.86 138.57 223.97 C 138.62 225.09 139.57 225.95 140.69 225.89 Z M 141.70 225.84 L 142.71 225.80 C 143.82 225.74 144.68 224.80 144.63 223.68 C 144.58 222.57 143.63 221.71 142.52 221.76 L 141.51 221.81 C 140.39 221.86 139.53 222.80 139.58 223.92 C 139.64 225.03 140.58 225.90 141.70 225.84 Z M 142.69 225.80 L 143.68 225.76 C 144.79 225.71 145.66 224.77 145.62 223.66 C 145.57 222.54 144.63 221.67 143.51 221.72 L 142.53 221.76 C 141.41 221.80 140.55 222.74 140.59 223.86 C 140.64 224.98 141.58 225.84 142.69 225.80 Z M 143.65 225.76 L 144.67 225.73 C 145.79 225.70 146.67 224.77 146.64 223.65 C 146.61 222.53 145.67 221.65 144.56 221.69 L 143.54 221.72 C 142.42 221.75 141.54 222.68 141.57 223.80 C 141.61 224.91 142.54 225.79 143.65 225.76 Z M 144.65 225.73 L 145.67 225.71 C 146.79 225.69 147.68 224.77 147.66 223.65 C 147.64 222.54 146.72 221.65 145.60 221.67 L 144.58 221.68 C 143.46 221.70 142.57 222.63 142.59 223.74 C 142.61 224.86 143.53 225.75 144.65 225.73 Z M 145.66 225.72 L 146.64 225.70 C 147.76 225.69 148.66 224.77 148.64 223.65 C 148.63 222.53 147.71 221.64 146.59 221.65 L 145.61 221.67 C 144.49 221.68 143.60 222.60 143.61 223.72 C 143.63 224.84 144.54 225.73 145.66 225.72 Z M 146.65 225.70 L 147.61 225.69 C 148.73 225.67 149.62 224.74 149.60 223.62 C 149.58 222.51 148.66 221.61 147.54 221.63 L 146.58 221.65 C 145.46 221.67 144.57 222.60 144.59 223.71 C 144.61 224.83 145.53 225.72 146.65 225.70 Z M 147.63 225.69 L 148.64 225.66 C 149.76 225.63 150.64 224.69 150.61 223.57 C 150.58 222.46 149.65 221.57 148.53 221.61 L 147.52 221.63 C 146.40 221.67 145.52 222.60 145.55 223.72 C 145.58 224.84 146.52 225.72 147.63 225.69 Z M 148.65 225.66 L 149.65 225.62 C 150.77 225.59 151.65 224.65 151.61 223.53 C 151.57 222.41 150.64 221.54 149.52 221.57 L 148.52 221.61 C 147.40 221.64 146.52 222.58 146.56 223.70 C 146.60 224.82 147.53 225.69 148.65 225.66 Z M 149.65 225.62 L 150.64 225.59 C 151.76 225.56 152.64 224.63 152.60 223.51 C 152.57 222.39 151.64 221.51 150.52 221.54 L 149.52 221.57 C 148.41 221.61 147.53 222.54 147.56 223.66 C 147.59 224.78 148.53 225.66 149.65 225.62 Z M 150.62 225.59 L 151.62 225.57 C 152.74 225.55 153.63 224.63 153.60 223.51 C 153.58 222.39 152.66 221.50 151.54 221.53 L 150.54 221.54 C 149.42 221.57 148.53 222.49 148.55 223.61 C 148.58 224.73 149.50 225.61 150.62 225.59 Z M 151.60 225.57 L 152.60 225.56 C 153.72 225.55 154.61 224.63 154.60 223.52 C 154.59 222.40 153.67 221.50 152.56 221.52 L 151.56 221.53 C 150.44 221.54 149.54 222.45 149.56 223.57 C 149.57 224.69 150.48 225.58 151.60 225.57 Z M 152.60 225.56 L 153.59 225.55 C 154.71 225.54 155.61 224.63 155.60 223.51 C 155.59 222.40 154.67 221.50 153.56 221.51 L 152.56 221.52 C 151.45 221.53 150.55 222.44 150.56 223.56 C 150.57 224.67 151.48 225.57 152.60 225.56 Z M 153.60 225.55 L 154.59 225.53 C 155.70 225.52 156.60 224.60 156.58 223.49 C 156.57 222.38 155.65 221.48 154.54 221.50 L 153.55 221.51 C 152.44 221.53 151.54 222.44 151.56 223.56 C 151.57 224.67 152.49 225.56 153.60 225.55 Z M 154.60 225.53 L 155.58 225.51 C 156.70 225.49 157.58 224.58 157.56 223.46 C 157.54 222.35 156.62 221.46 155.51 221.48 L 154.53 221.50 C 153.41 221.52 152.53 222.44 152.55 223.55 C 152.57 224.67 153.49 225.55 154.60 225.53 Z M 155.58 225.51 L 156.59 225.49 C 157.70 225.47 158.58 224.55 158.56 223.44 C 158.54 222.33 157.62 221.45 156.51 221.47 L 155.51 221.48 C 154.40 221.51 153.51 222.42 153.53 223.54 C 153.55 224.65 154.47 225.53 155.58 225.51 Z M 156.58 225.49 L 157.60 225.48 C 158.71 225.46 159.60 224.55 159.58 223.44 C 159.57 222.33 158.65 221.44 157.54 221.45 L 156.52 221.47 C 155.41 221.48 154.52 222.40 154.54 223.51 C 154.55 224.62 155.47 225.51 156.58 225.49 Z M 157.59 225.47 L 158.59 225.47 C 159.70 225.46 160.60 224.55 160.59 223.44 C 160.58 222.33 159.67 221.44 158.56 221.45 L 157.56 221.46 C 156.45 221.46 155.55 222.37 155.56 223.48 C 155.57 224.59 156.48 225.48 157.59 225.47 Z M 158.58 225.46 L 159.60 225.46 C 160.70 225.46 161.60 224.56 161.60 223.45 C 161.59 222.34 160.69 221.44 159.58 221.45 L 158.57 221.45 C 157.46 221.46 156.57 222.36 156.57 223.46 C 156.57 224.57 157.48 225.47 158.58 225.46 Z M 159.59 225.46 L 160.58 225.46 C 161.69 225.46 162.59 224.56 162.59 223.45 C 162.59 222.35 161.69 221.45 160.58 221.45 L 159.59 221.45 C 158.48 221.45 157.59 222.35 157.59 223.46 C 157.59 224.56 158.48 225.46 159.59 225.46 Z M 160.58 225.45 L 161.61 225.45 C 162.71 225.45 163.61 224.56 163.61 223.45 C 163.61 222.35 162.71 221.45 161.60 221.45 L 160.58 221.45 C 159.48 221.45 158.58 222.35 158.58 223.45 C 158.58 224.56 159.48 225.45 160.58 225.45 Z M 161.60 225.45 L 162.61 225.45 C 163.71 225.45 164.61 224.56 164.61 223.45 C 164.61 222.35 163.71 221.46 162.61 221.46 L 161.60 221.46 C 160.50 221.46 159.61 222.35 159.61 223.45 C 159.61 224.56 160.50 225.45 161.60 225.45 Z M 162.61 225.45 L 163.59 225.45 C 164.69 225.45 165.58 224.56 165.58 223.45 C 165.58 222.35 164.69 221.46 163.59 221.46 L 162.61 221.46 C 161.51 221.46 160.62 222.35 160.62 223.45 C 160.62 224.56 161.51 225.45 162.61 225.45 Z M 163.59 225.45 L 164.58 225.45 C 165.68 225.45 166.57 224.55 166.57 223.45 C 166.57 222.35 165.68 221.46 164.58 221.46 L 163.59 221.46 C 162.49 221.46 161.60 222.35 161.60 223.45 C 161.60 224.55 162.49 225.45 163.59 225.45 Z M 164.58 225.44 L 165.58 225.44 C 166.68 225.44 167.57 224.55 167.57 223.45 C 167.57 222.35 166.67 221.46 165.58 221.46 L 164.57 221.47 C 163.48 221.47 162.59 222.36 162.59 223.46 C 162.59 224.55 163.48 225.44 164.58 225.44 Z M 165.59 225.44 L 166.59 225.43 C 167.68 225.43 168.57 224.54 168.56 223.44 C 168.56 222.34 167.66 221.46 166.57 221.46 L 165.57 221.47 C 164.47 221.47 163.59 222.36 163.59 223.46 C 163.60 224.56 164.49 225.44 165.59 225.44 Z M 166.60 225.43 L 167.60 225.42 C 168.70 225.41 169.58 224.51 169.56 223.42 C 169.55 222.32 168.66 221.44 167.56 221.46 L 166.56 221.47 C 165.46 221.48 164.58 222.37 164.60 223.47 C 164.61 224.56 165.50 225.44 166.60 225.43 Z M 167.61 225.42 L 168.62 225.40 C 169.71 225.38 170.59 224.49 170.57 223.39 C 170.55 222.30 169.66 221.43 168.56 221.44 L 167.55 221.46 C 166.46 221.48 165.59 222.37 165.60 223.47 C 165.62 224.56 166.52 225.43 167.61 225.42 Z M 168.62 225.40 L 169.62 225.38 C 170.71 225.36 171.58 224.47 171.56 223.38 C 171.54 222.29 170.65 221.42 169.56 221.43 L 168.56 221.45 C 167.47 221.46 166.60 222.36 166.62 223.45 C 166.63 224.54 167.53 225.41 168.62 225.40 Z M 169.61 225.38 L 170.61 225.37 C 171.70 225.35 172.57 224.46 172.56 223.37 C 172.55 222.29 171.66 221.41 170.57 221.43 L 169.56 221.44 C 168.48 221.45 167.60 222.34 167.62 223.43 C 167.63 224.52 168.52 225.39 169.61 225.38 Z M 170.60 225.36 L 171.61 225.36 C 172.70 225.35 173.58 224.47 173.57 223.38 C 173.56 222.30 172.68 221.42 171.59 221.42 L 170.58 221.43 C 169.49 221.43 168.62 222.32 168.62 223.41 C 168.63 224.49 169.51 225.37 170.60 225.36 Z M 171.61 225.35 L 172.59 225.35 C 173.67 225.35 174.55 224.47 174.55 223.39 C 174.55 222.30 173.67 221.43 172.58 221.43 L 171.60 221.43 C 170.52 221.43 169.64 222.31 169.64 223.39 C 169.64 224.48 170.52 225.35 171.61 225.35 Z M 172.59 225.35 L 173.58 225.35 C 174.66 225.35 175.54 224.47 175.54 223.39 C 175.54 222.31 174.66 221.43 173.58 221.43 L 172.59 221.43 C 171.50 221.43 170.63 222.31 170.63 223.39 C 170.63 224.47 171.50 225.35 172.59 225.35 Z M 173.58 225.34 L 174.57 225.34 C 175.65 225.34 176.52 224.47 176.52 223.39 C 176.52 222.31 175.65 221.44 174.57 221.44 L 173.58 221.44 C 172.50 221.44 171.63 222.31 171.63 223.39 C 171.63 224.47 172.50 225.34 173.58 225.34 Z M 174.57 225.34 L 175.58 225.34 C 176.65 225.34 177.52 224.46 177.52 223.39 C 177.52 222.32 176.65 221.44 175.58 221.44 L 174.57 221.44 C 173.50 221.44 172.63 222.32 172.63 223.39 C 172.63 224.46 173.50 225.34 174.57 225.34 Z M 175.58 225.33 L 176.61 225.33 C 177.68 225.33 178.55 224.46 178.55 223.39 C 178.55 222.32 177.68 221.45 176.61 221.45 L 175.58 221.45 C 174.50 221.45 173.63 222.32 173.63 223.39 C 173.63 224.46 174.50 225.33 175.58 225.33 Z M 176.61 225.33 L 177.61 225.33 C 178.68 225.33 179.55 224.46 179.55 223.39 C 179.55 222.32 178.68 221.45 177.61 221.45 L 176.61 221.45 C 175.54 221.45 174.67 222.32 174.67 223.39 C 174.67 224.46 175.54 225.33 176.61 225.33 Z M 177.61 225.33 L 178.63 225.33 C 179.70 225.33 180.57 224.46 180.57 223.39 C 180.57 222.32 179.70 221.45 178.63 221.45 L 177.61 221.45 C 176.54 221.45 175.67 222.32 175.67 223.39 C 175.67 224.46 176.54 225.33 177.61 225.33 Z M 178.62 225.33 L 179.60 225.34 C 180.68 225.34 181.55 224.48 181.56 223.40 C 181.56 222.33 180.69 221.46 179.62 221.45 L 178.64 221.45 C 177.56 221.44 176.69 222.31 176.69 223.38 C 176.68 224.45 177.55 225.33 178.62 225.33 Z M 179.58 225.34 L 180.54 225.35 C 181.62 225.37 182.50 224.52 182.52 223.45 C 182.54 222.38 181.69 221.49 180.62 221.47 L 179.65 221.45 C 178.58 221.43 177.69 222.29 177.67 223.36 C 177.65 224.43 178.50 225.32 179.58 225.34 Z M 180.49 225.35 L 181.48 225.40 C 182.55 225.45 183.47 224.63 183.52 223.56 C 183.57 222.48 182.74 221.57 181.67 221.52 L 180.68 221.47 C 179.60 221.42 178.69 222.25 178.64 223.32 C 178.59 224.39 179.41 225.30 180.49 225.35 Z M 181.38 225.40 L 182.38 225.49 C 183.45 225.60 184.40 224.82 184.51 223.75 C 184.61 222.69 183.83 221.73 182.77 221.63 L 181.77 221.53 C 180.70 221.42 179.75 222.20 179.64 223.27 C 179.54 224.34 180.32 225.29 181.38 225.40 Z M 182.27 225.48 L 183.25 225.64 C 184.31 225.80 185.31 225.08 185.47 224.02 C 185.64 222.96 184.92 221.96 183.86 221.80 L 182.88 221.64 C 181.82 221.47 180.82 222.20 180.65 223.26 C 180.49 224.32 181.21 225.31 182.27 225.48 Z M 183.17 225.62 L 184.15 225.82 C 185.20 226.03 186.23 225.36 186.44 224.30 C 186.65 223.25 185.97 222.22 184.92 222.01 L 183.94 221.81 C 182.89 221.60 181.86 222.28 181.65 223.33 C 181.44 224.38 182.12 225.41 183.17 225.62 Z M 184.17 225.83 L 185.14 226.01 C 186.20 226.21 187.21 225.52 187.42 224.47 C 187.62 223.41 186.93 222.39 185.87 222.19 L 184.90 222.01 C 183.85 221.80 182.83 222.49 182.62 223.55 C 182.42 224.60 183.11 225.62 184.17 225.83 Z M 185.19 226.02 L 186.17 226.18 C 187.23 226.36 188.23 225.65 188.41 224.59 C 188.58 223.53 187.87 222.52 186.81 222.35 L 185.83 222.18 C 184.77 222.01 183.76 222.72 183.59 223.78 C 183.41 224.84 184.13 225.84 185.19 226.02 Z M 186.11 226.17 L 187.11 226.37 C 188.16 226.58 189.19 225.90 189.40 224.84 C 189.60 223.79 188.92 222.76 187.86 222.55 L 186.87 222.36 C 185.81 222.15 184.79 222.83 184.58 223.89 C 184.37 224.94 185.06 225.97 186.11 226.17 Z M 187.05 226.36 L 188.04 226.58 C 189.08 226.82 190.13 226.17 190.37 225.12 C 190.60 224.07 189.95 223.03 188.90 222.79 L 187.92 222.57 C 186.87 222.33 185.83 222.98 185.59 224.03 C 185.35 225.08 186.01 226.12 187.05 226.36 Z M 188.04 226.59 L 189.04 226.81 C 190.09 227.04 191.13 226.38 191.36 225.33 C 191.59 224.28 190.93 223.24 189.88 223.01 L 188.89 222.79 C 187.84 222.55 186.80 223.21 186.57 224.26 C 186.33 225.31 186.99 226.35 188.04 226.59 Z M 189.04 226.81 L 189.99 227.02 C 191.04 227.25 192.08 226.59 192.31 225.54 C 192.54 224.49 191.88 223.45 190.83 223.22 L 189.88 223.01 C 188.83 222.77 187.79 223.44 187.56 224.49 C 187.33 225.54 187.99 226.58 189.04 226.81 Z M 189.97 227.02 L 190.95 227.24 C 192.00 227.48 193.04 226.83 193.28 225.78 C 193.53 224.73 192.87 223.69 191.82 223.44 L 190.85 223.22 C 189.80 222.98 188.76 223.63 188.51 224.68 C 188.27 225.73 188.93 226.77 189.97 227.02 Z M 191.01 227.25 L 191.99 227.45 C 193.04 227.66 194.07 226.97 194.28 225.92 C 194.49 224.86 193.81 223.84 192.75 223.63 L 191.77 223.43 C 190.71 223.22 189.69 223.91 189.48 224.96 C 189.27 226.02 189.95 227.04 191.01 227.25 Z M 192.02 227.45 L 193.00 227.63 C 194.06 227.83 195.07 227.13 195.27 226.07 C 195.46 225.01 194.76 224.00 193.70 223.80 L 192.72 223.62 C 191.66 223.43 190.65 224.13 190.45 225.19 C 190.26 226.25 190.96 227.26 192.02 227.45 Z M 192.93 227.62 L 193.81 227.82 C 194.86 228.05 195.90 227.39 196.13 226.34 C 196.37 225.29 195.70 224.25 194.65 224.01 L 193.77 223.82 C 192.72 223.58 191.68 224.25 191.45 225.30 C 191.22 226.35 191.88 227.39 192.93 227.62 Z M 193.82 227.82 L 194.87 228.04 C 195.92 228.27 196.96 227.60 197.18 226.55 C 197.41 225.50 196.74 224.46 195.69 224.23 L 194.64 224.01 C 193.59 223.78 192.55 224.45 192.33 225.50 C 192.10 226.56 192.77 227.59 193.82 227.82 Z M 194.92 228.05 L 195.85 228.23 C 196.91 228.43 197.93 227.74 198.13 226.68 C 198.33 225.62 197.64 224.60 196.58 224.40 L 195.64 224.23 C 194.58 224.03 193.56 224.72 193.36 225.78 C 193.16 226.83 193.86 227.85 194.92 228.05 Z M 195.88 228.23 L 196.91 228.42 C 197.97 228.60 198.98 227.90 199.16 226.84 C 199.35 225.78 198.64 224.77 197.58 224.58 L 196.55 224.40 C 195.50 224.21 194.49 224.92 194.30 225.98 C 194.11 227.04 194.82 228.05 195.88 228.23 Z M 196.92 228.42 L 197.89 228.58 C 198.95 228.76 199.96 228.04 200.14 226.98 C 200.31 225.92 199.60 224.92 198.54 224.74 L 197.57 224.58 C 196.51 224.40 195.50 225.11 195.33 226.17 C 195.15 227.23 195.86 228.24 196.92 228.42 Z M 197.91 228.58 L 198.82 228.73 C 199.88 228.90 200.88 228.18 201.05 227.12 C 201.22 226.06 200.50 225.06 199.44 224.89 L 198.53 224.74 C 197.46 224.57 196.46 225.29 196.29 226.35 C 196.12 227.41 196.85 228.41 197.91 228.58 Z M 198.83 228.73 L 199.84 228.89 C 200.91 229.05 201.90 228.32 202.06 227.26 C 202.22 226.19 201.49 225.20 200.43 225.04 L 199.42 224.88 C 198.36 224.72 197.37 225.45 197.20 226.51 C 197.04 227.58 197.77 228.57 198.83 228.73 Z M 199.86 228.89 L 200.92 229.04 C 201.98 229.20 202.97 228.46 203.13 227.40 C 203.28 226.33 202.54 225.34 201.48 225.19 L 200.42 225.03 C 199.35 224.88 198.36 225.62 198.21 226.68 C 198.06 227.75 198.79 228.73 199.86 228.89 Z M 200.93 229.04 L 201.93 229.19 C 203.00 229.34 203.98 228.59 204.13 227.53 C 204.28 226.46 203.54 225.48 202.47 225.33 L 201.47 225.19 C 200.41 225.04 199.42 225.78 199.27 226.84 C 199.12 227.91 199.86 228.89 200.93 229.04 Z M 201.94 229.19 L 202.98 229.33 C 204.04 229.48 205.03 228.73 205.17 227.67 C 205.32 226.60 204.57 225.62 203.51 225.47 L 202.47 225.33 C 201.40 225.18 200.42 225.93 200.27 226.99 C 200.13 228.06 200.87 229.04 201.94 229.19 Z M 202.98 229.33 L 203.99 229.47 C 205.05 229.61 206.03 228.86 206.18 227.79 C 206.32 226.73 205.57 225.75 204.50 225.60 L 203.50 225.47 C 202.43 225.33 201.45 226.08 201.31 227.14 C 201.17 228.21 201.92 229.19 202.98 229.33 Z M 204.00 229.47 L 205.02 229.60 C 206.09 229.73 207.06 228.98 207.20 227.91 C 207.34 226.85 206.58 225.87 205.52 225.73 L 204.49 225.60 C 203.43 225.47 202.45 226.22 202.31 227.29 C 202.18 228.35 202.93 229.33 204.00 229.47 Z M 205.04 229.60 L 206.12 229.73 C 207.18 229.85 208.15 229.09 208.28 228.02 C 208.40 226.95 207.64 225.98 206.57 225.86 L 205.49 225.73 C 204.43 225.61 203.46 226.37 203.33 227.44 C 203.21 228.51 203.97 229.48 205.04 229.60 Z M 206.15 229.73 L 207.04 229.82 C 208.11 229.93 209.07 229.14 209.17 228.07 C 209.28 227.00 208.50 226.05 207.43 225.94 L 206.54 225.85 C 205.46 225.75 204.51 226.53 204.40 227.60 C 204.30 228.67 205.08 229.62 206.15 229.73 Z M 207.08 229.82 L 207.99 229.90 C 209.07 229.98 210.01 229.18 210.09 228.11 C 210.18 227.04 209.38 226.10 208.31 226.01 L 207.39 225.94 C 206.32 225.85 205.38 226.65 205.29 227.72 C 205.21 228.80 206.01 229.74 207.08 229.82 Z M 208.03 229.90 L 209.02 229.96 C 210.10 230.03 211.02 229.21 211.09 228.13 C 211.15 227.06 210.34 226.14 209.26 226.07 L 208.27 226.01 C 207.20 225.94 206.27 226.76 206.21 227.84 C 206.14 228.91 206.96 229.83 208.03 229.90 Z M 209.07 229.96 L 210.09 230.00 C 211.17 230.04 212.07 229.20 212.11 228.13 C 212.16 227.05 211.32 226.15 210.24 226.11 L 209.22 226.07 C 208.14 226.03 207.24 226.87 207.20 227.94 C 207.16 229.02 207.99 229.92 209.07 229.96 Z M 210.14 230.00 L 211.15 230.02 C 212.22 230.04 213.11 229.18 213.13 228.10 C 213.14 227.03 212.28 226.14 211.21 226.12 L 210.20 226.11 C 209.12 226.09 208.24 226.95 208.22 228.02 C 208.20 229.10 209.06 229.98 210.14 230.00 Z M 211.17 230.02 L 212.17 230.02 C 213.25 230.03 214.12 229.16 214.13 228.08 C 214.13 227.01 213.26 226.13 212.19 226.13 L 211.19 226.12 C 210.11 226.12 209.23 226.99 209.23 228.06 C 209.23 229.14 210.09 230.01 211.17 230.02 Z M 212.18 230.02 L 213.21 230.02 C 214.28 230.02 215.15 229.15 215.15 228.07 C 215.15 227.00 214.28 226.13 213.21 226.13 L 212.18 226.13 C 211.10 226.13 210.23 227.00 210.23 228.07 C 210.23 229.15 211.10 230.02 212.18 230.02 Z M 213.22 230.02 L 214.22 230.01 C 215.30 230.00 216.16 229.12 216.15 228.05 C 216.15 226.97 215.27 226.11 214.19 226.12 L 213.19 226.13 C 212.12 226.14 211.25 227.01 211.26 228.09 C 211.27 229.17 212.15 230.03 213.22 230.02 Z M 214.27 230.01 L 215.22 229.98 C 216.30 229.95 217.14 229.05 217.11 227.98 C 217.07 226.90 216.18 226.06 215.10 226.09 L 214.15 226.12 C 213.07 226.15 212.23 227.05 212.26 228.13 C 212.29 229.20 213.19 230.05 214.27 230.01 Z M 215.30 229.98 L 216.27 229.91 C 217.34 229.84 218.15 228.91 218.08 227.84 C 218.01 226.76 217.08 225.95 216.00 226.03 L 215.03 226.09 C 213.96 226.17 213.15 227.10 213.22 228.17 C 213.29 229.24 214.22 230.05 215.30 229.98 Z M 216.34 229.90 L 217.33 229.80 C 218.40 229.69 219.17 228.73 219.06 227.66 C 218.94 226.59 217.98 225.81 216.91 225.93 L 215.93 226.03 C 214.86 226.15 214.09 227.11 214.20 228.17 C 214.31 229.24 215.27 230.02 216.34 229.90 Z M 217.37 229.79 L 218.26 229.68 C 219.33 229.54 220.08 228.57 219.94 227.50 C 219.80 226.44 218.83 225.68 217.76 225.82 L 216.87 225.93 C 215.81 226.07 215.05 227.05 215.19 228.11 C 215.33 229.18 216.30 229.93 217.37 229.79 Z M 218.27 229.68 L 219.30 229.54 C 220.36 229.40 221.11 228.42 220.97 227.36 C 220.83 226.29 219.85 225.54 218.79 225.68 L 217.76 225.82 C 216.69 225.96 215.94 226.94 216.08 228.00 C 216.22 229.07 217.20 229.82 218.27 229.68 Z M 219.28 229.54 L 220.37 229.41 C 221.44 229.27 222.20 228.30 222.06 227.24 C 221.93 226.17 220.96 225.41 219.89 225.55 L 218.80 225.68 C 217.74 225.82 216.98 226.79 217.11 227.85 C 217.25 228.92 218.22 229.68 219.28 229.54 Z M 220.36 229.41 L 221.39 229.29 C 222.46 229.16 223.22 228.20 223.10 227.13 C 222.98 226.07 222.01 225.30 220.95 225.43 L 219.91 225.55 C 218.84 225.67 218.08 226.63 218.20 227.70 C 218.33 228.77 219.29 229.53 220.36 229.41 Z M 221.38 229.29 L 222.41 229.18 C 223.48 229.06 224.25 228.10 224.13 227.04 C 224.02 225.97 223.06 225.20 221.99 225.31 L 220.96 225.43 C 219.90 225.54 219.12 226.50 219.24 227.57 C 219.35 228.63 220.31 229.40 221.38 229.29 Z M 222.39 229.18 L 223.33 229.09 C 224.39 228.98 225.17 228.03 225.07 226.96 C 224.96 225.90 224.01 225.12 222.95 225.22 L 222.01 225.31 C 220.95 225.42 220.17 226.37 220.27 227.44 C 220.37 228.50 221.32 229.28 222.39 229.18 Z M 223.29 229.09 L 224.43 229.00 C 225.50 228.91 226.30 227.98 226.21 226.91 C 226.12 225.84 225.19 225.05 224.12 225.13 L 222.98 225.22 C 221.91 225.31 221.12 226.24 221.20 227.31 C 221.29 228.38 222.22 229.17 223.29 229.09 Z M 224.41 228.99 L 225.29 228.93 C 226.36 228.86 227.16 227.94 227.09 226.87 C 227.02 225.80 226.09 225.00 225.03 225.07 L 224.14 225.13 C 223.08 225.21 222.27 226.13 222.35 227.20 C 222.42 228.26 223.34 229.07 224.41 228.99 Z M 225.34 228.92 L 226.47 228.82 C 227.53 228.72 228.31 227.78 228.21 226.71 C 228.11 225.65 227.17 224.88 226.11 224.98 L 224.98 225.08 C 223.92 225.18 223.14 226.12 223.24 227.18 C 223.34 228.24 224.28 229.02 225.34 228.92 Z M 225.47 225.21 L 225.23 225.33 C 224.30 225.78 223.91 226.90 224.36 227.83 C 224.81 228.76 225.93 229.15 226.86 228.70 L 227.10 228.58 C 228.03 228.13 228.42 227.01 227.97 226.08 C 227.52 225.15 226.40 224.76 225.47 225.21 Z M 225.61 225.34 L 224.41 225.65 C 223.49 225.89 222.93 226.83 223.17 227.75 C 223.40 228.67 224.34 229.23 225.27 228.99 L 226.47 228.69 C 227.39 228.45 227.95 227.51 227.71 226.59 C 227.48 225.67 226.54 225.11 225.61 225.34 Z M 224.42 225.79 L 223.44 226.06 C 222.60 226.29 222.10 227.16 222.33 228.00 C 222.56 228.85 223.43 229.35 224.27 229.12 L 225.25 228.85 C 226.10 228.62 226.60 227.75 226.37 226.91 C 226.14 226.06 225.27 225.56 224.42 225.79 Z M 223.45 226.16 L 222.51 226.43 C 221.72 226.66 221.26 227.47 221.49 228.26 C 221.71 229.05 222.53 229.51 223.32 229.28 L 224.26 229.01 C 225.05 228.79 225.51 227.97 225.28 227.18 C 225.06 226.40 224.24 225.94 223.45 226.16 Z"
      fill="black"
      fill-rule="nonzero" /></svg>