<svg xmlns="http://www.w3.org/2000/svg" width="300" height="300" viewBox="0 0 300 300">
<path d="M 120.34 145.50 L 121.14 144.98 C 121.87 144.50 122.07 143.53 121.59 142.80 C 121.12 142.07 120.14 141.87 119.42 142.35 L 118.62 142.87 C 117.89 143.35 117.69 144.32 118.16 145.05 C 118.64 145.78 119.62 145.98 120.34 145.50 Z M 120.92 145.18 L 121.87 144.78 C 122.70 144.42 123.09 143.46 122.74 142.62 C 122.38 141.79 121.42 141.39 120.58 141.75 L 119.64 142.15 C 118.80 142.50 118.41 143.47 118.76 144.30 C 119.12 145.14 120.08 145.53 120.92 145.18 Z M 121.51 144.92 L 122.48 144.76 C 123.40 144.60 124.02 143.73 123.86 142.81 C 123.70 141.89 122.83 141.28 121.91 141.43 L 120.94 141.60 C 120.02 141.76 119.40 142.63 119.56 143.55 C 119.72 144.47 120.59 145.08 121.51 144.92 Z M 122.28 144.79 L 123.31 144.74 C 124.24 144.69 124.97 143.90 124.92 142.96 C 124.87 142.03 124.08 141.31 123.14 141.35 L 122.11 141.40 C 121.18 141.45 120.46 142.24 120.50 143.18 C 120.55 144.11 121.34 144.84 122.28 144.79 Z M 123.23 144.75 L 124.25 144.74 C 125.19 144.74 125.95 143.98 125.95 143.04 C 125.94 142.09 125.18 141.34 124.24 141.34 L 123.22 141.34 C 122.28 141.35 121.52 142.11 121.52 143.05 C 121.53 143.99 122.29 144.75 123.23 144.75 Z M 124.24 144.75 L 125.24 144.75 C 126.18 144.75 126.94 143.99 126.95 143.05 C 126.95 142.11 126.19 141.34 125.25 141.34 L 124.25 141.34 C 123.31 141.33 122.54 142.09 122.54 143.04 C 122.53 143.98 123.30 144.75 124.24 144.75 Z M 125.22 144.75 L 126.19 144.76 C 127.13 144.78 127.90 144.02 127.92 143.08 C 127.93 142.14 127.17 141.36 126.23 141.35 L 125.26 141.34 C 124.32 141.33 123.55 142.08 123.53 143.02 C 123.52 143.97 124.28 144.74 125.22 144.75 Z M 126.17 144.77 L 127.10 144.79 C 128.05 144.81 128.83 144.07 128.85 143.12 C 128.88 142.18 128.13 141.40 127.19 141.37 L 126.25 141.35 C 125.31 141.33 124.52 142.07 124.50 143.02 C 124.48 143.96 125.22 144.74 126.17 144.77 Z M 127.10 144.79 L 128.13 144.82 C 129.07 144.85 129.86 144.10 129.88 143.16 C 129.91 142.22 129.17 141.43 128.22 141.40 L 127.20 141.37 C 126.25 141.35 125.46 142.09 125.44 143.03 C 125.41 143.98 126.15 144.76 127.10 144.79 Z M 128.13 144.82 L 129.13 144.85 C 130.07 144.87 130.86 144.13 130.88 143.18 C 130.91 142.24 130.16 141.45 129.22 141.43 L 128.22 141.40 C 127.28 141.38 126.49 142.12 126.47 143.06 C 126.44 144.01 127.19 144.79 128.13 144.82 Z M 129.13 144.85 L 130.10 144.87 C 131.05 144.89 131.83 144.14 131.85 143.20 C 131.87 142.25 131.13 141.47 130.18 141.45 L 129.21 141.43 C 128.27 141.40 127.49 142.15 127.46 143.10 C 127.44 144.04 128.19 144.82 129.13 144.85 Z M 130.11 144.87 L 131.14 144.89 C 132.08 144.91 132.86 144.16 132.88 143.22 C 132.90 142.27 132.15 141.49 131.21 141.47 L 130.18 141.45 C 129.24 141.43 128.45 142.18 128.43 143.12 C 128.41 144.07 129.16 144.85 130.11 144.87 Z M 131.14 144.89 L 132.15 144.91 C 133.09 144.93 133.87 144.18 133.90 143.24 C 133.92 142.30 133.17 141.51 132.22 141.49 L 131.21 141.47 C 130.27 141.45 129.48 142.20 129.46 143.14 C 129.44 144.09 130.19 144.87 131.14 144.89 Z M 132.15 144.91 L 133.12 144.93 C 134.06 144.95 134.84 144.20 134.86 143.26 C 134.88 142.32 134.13 141.54 133.19 141.51 L 132.22 141.49 C 131.28 141.47 130.50 142.22 130.48 143.17 C 130.46 144.11 131.21 144.89 132.15 144.91 Z M 133.12 144.93 L 134.13 144.95 C 135.07 144.97 135.85 144.22 135.87 143.28 C 135.89 142.33 135.14 141.55 134.19 141.53 L 133.19 141.51 C 132.24 141.50 131.46 142.25 131.45 143.19 C 131.43 144.14 132.18 144.92 133.12 144.93 Z M 134.14 144.95 L 135.18 144.97 C 136.12 144.98 136.90 144.23 136.91 143.28 C 136.93 142.34 136.17 141.56 135.23 141.55 L 134.19 141.53 C 133.24 141.52 132.47 142.27 132.45 143.22 C 132.44 144.16 133.19 144.94 134.14 144.95 Z M 135.19 144.97 L 136.17 144.98 C 137.11 144.99 137.88 144.23 137.89 143.28 C 137.90 142.34 137.14 141.57 136.20 141.56 L 135.22 141.55 C 134.28 141.54 133.50 142.30 133.49 143.24 C 133.49 144.19 134.24 144.96 135.19 144.97 Z M 136.17 144.98 L 137.15 144.98 C 138.10 144.99 138.87 144.22 138.87 143.28 C 138.88 142.34 138.12 141.57 137.17 141.56 L 136.19 141.56 C 135.25 141.56 134.48 142.32 134.47 143.26 C 134.47 144.20 135.23 144.97 136.17 144.98 Z M 137.16 144.98 L 138.17 144.98 C 139.11 144.98 139.87 144.22 139.88 143.28 C 139.88 142.34 139.12 141.57 138.17 141.57 L 137.17 141.57 C 136.22 141.56 135.46 142.33 135.46 143.27 C 135.45 144.21 136.22 144.98 137.16 144.98 Z M 138.17 144.98 L 139.20 144.98 C 140.14 144.98 140.91 144.22 140.91 143.28 C 140.91 142.33 140.14 141.57 139.20 141.57 L 138.17 141.57 C 137.23 141.57 136.46 142.33 136.46 143.27 C 136.46 144.22 137.23 144.98 138.17 144.98 Z M 139.20 144.98 L 140.21 144.98 C 141.15 144.98 141.92 144.22 141.92 143.27 C 141.92 142.33 141.15 141.57 140.21 141.57 L 139.20 141.57 C 138.26 141.57 137.50 142.33 137.50 143.27 C 137.50 144.22 138.26 144.98 139.20 144.98 Z M 140.21 144.98 L 141.22 144.98 C 142.16 144.98 142.92 144.22 142.92 143.27 C 142.92 142.33 142.16 141.57 141.22 141.57 L 140.21 141.57 C 139.27 141.57 138.51 142.33 138.51 143.27 C 138.51 144.22 139.27 144.98 140.21 144.98 Z M 141.22 144.98 L 142.23 144.98 C 143.16 144.98 143.93 144.21 143.93 143.27 C 143.93 142.34 143.16 141.57 142.23 141.57 L 141.22 141.57 C 140.28 141.57 139.51 142.34 139.51 143.27 C 139.51 144.21 140.28 144.98 141.22 144.98 Z M 142.23 144.98 L 143.23 144.98 C 144.16 144.98 144.93 144.21 144.93 143.27 C 144.93 142.34 144.16 141.57 143.23 141.57 L 142.23 141.57 C 141.29 141.57 140.52 142.34 140.52 143.27 C 140.52 144.21 141.29 144.98 142.23 144.98 Z M 143.23 144.97 L 144.23 144.97 C 145.17 144.97 145.93 144.21 145.93 143.27 C 145.93 142.34 145.17 141.58 144.23 141.58 L 143.23 141.58 C 142.29 141.58 141.53 142.34 141.53 143.27 C 141.53 144.21 142.29 144.97 143.23 144.97 Z M 144.23 144.97 L 145.25 144.97 C 146.19 144.97 146.95 144.21 146.95 143.27 C 146.95 142.34 146.19 141.58 145.25 141.58 L 144.23 141.58 C 143.29 141.58 142.53 142.34 142.53 143.27 C 142.53 144.21 143.29 144.97 144.23 144.97 Z M 145.25 144.97 L 146.25 144.97 C 147.19 144.97 147.95 144.21 147.95 143.27 C 147.95 142.34 147.19 141.58 146.25 141.58 L 145.25 141.58 C 144.32 141.58 143.56 142.34 143.56 143.27 C 143.56 144.21 144.32 144.97 145.25 144.97 Z M 146.25 144.97 L 147.23 144.97 C 148.17 144.97 148.93 144.21 148.93 143.27 C 148.93 142.34 148.17 141.58 147.23 141.58 L 146.25 141.58 C 145.32 141.58 144.56 142.34 144.56 143.27 C 144.56 144.21 145.32 144.97 146.25 144.97 Z M 147.23 144.97 L 148.22 144.97 C 149.15 144.97 149.91 144.21 149.91 143.27 C 149.91 142.34 149.15 141.58 148.22 141.58 L 147.23 141.58 C 146.30 141.58 145.54 142.34 145.54 143.27 C 145.54 144.21 146.30 144.97 147.23 144.97 Z M 148.22 144.96 L 149.23 144.96 C 150.16 144.96 150.92 144.21 150.92 143.27 C 150.92 142.34 150.16 141.59 149.23 141.59 L 148.22 141.59 C 147.29 141.59 146.53 142.34 146.53 143.27 C 146.53 144.21 147.29 144.96 148.22 144.96 Z M 149.23 144.96 L 150.23 144.96 C 151.17 144.96 151.92 144.21 151.92 143.27 C 151.92 142.34 151.17 141.59 150.23 141.59 L 149.23 141.59 C 148.30 141.59 147.54 142.34 147.54 143.27 C 147.54 144.21 148.30 144.96 149.23 144.96 Z M 150.23 144.96 L 151.23 144.96 C 152.16 144.96 152.91 144.21 152.91 143.27 C 152.91 142.34 152.16 141.59 151.23 141.59 L 150.23 141.59 C 149.30 141.59 148.55 142.34 148.55 143.27 C 148.55 144.21 149.30 144.96 150.23 144.96 Z M 151.23 144.96 L 152.22 144.96 C 153.15 144.96 153.90 144.20 153.90 143.27 C 153.90 142.35 153.15 141.59 152.22 141.59 L 151.23 141.59 C 150.30 141.59 149.54 142.35 149.54 143.28 C 149.54 144.20 150.30 144.96 151.23 144.96 Z M 152.22 144.95 L 153.23 144.95 C 154.16 144.95 154.91 144.20 154.91 143.27 C 154.91 142.35 154.16 141.59 153.23 141.59 L 152.22 141.60 C 151.29 141.60 150.54 142.35 150.54 143.28 C 150.54 144.20 151.30 144.96 152.22 144.95 Z M 153.24 144.95 L 154.24 144.95 C 155.16 144.94 155.91 144.19 155.91 143.27 C 155.90 142.34 155.15 141.59 154.23 141.60 L 153.23 141.60 C 152.30 141.60 151.55 142.35 151.56 143.28 C 151.56 144.20 152.31 144.95 153.24 144.95 Z M 154.24 144.94 L 155.23 144.94 C 156.16 144.93 156.90 144.18 156.89 143.25 C 156.89 142.33 156.13 141.59 155.21 141.59 L 154.22 141.60 C 153.30 141.61 152.55 142.36 152.56 143.28 C 152.57 144.21 153.32 144.95 154.24 144.94 Z M 155.24 144.93 L 156.24 144.92 C 157.16 144.91 157.90 144.15 157.89 143.23 C 157.88 142.31 157.12 141.57 156.20 141.58 L 155.20 141.60 C 154.28 141.61 153.54 142.36 153.55 143.29 C 153.56 144.21 154.32 144.94 155.24 144.93 Z M 156.25 144.92 L 157.26 144.90 C 158.17 144.88 158.91 144.12 158.89 143.20 C 158.87 142.28 158.11 141.55 157.19 141.57 L 156.19 141.59 C 155.27 141.61 154.54 142.36 154.56 143.28 C 154.57 144.20 155.33 144.93 156.25 144.92 Z M 157.27 144.89 L 158.26 144.87 C 159.18 144.85 159.90 144.09 159.88 143.17 C 159.86 142.25 159.10 141.53 158.18 141.55 L 157.18 141.57 C 156.27 141.60 155.54 142.36 155.56 143.27 C 155.59 144.19 156.35 144.92 157.27 144.89 Z M 158.27 144.86 L 159.26 144.83 C 160.18 144.81 160.90 144.04 160.87 143.13 C 160.84 142.22 160.08 141.50 159.16 141.52 L 158.17 141.55 C 157.26 141.58 156.54 142.34 156.57 143.26 C 156.59 144.17 157.36 144.89 158.27 144.86 Z M 159.27 144.83 L 160.27 144.79 C 161.18 144.76 161.89 144.00 161.86 143.09 C 161.83 142.18 161.06 141.46 160.15 141.49 L 159.16 141.53 C 158.25 141.56 157.53 142.33 157.56 143.24 C 157.60 144.15 158.36 144.86 159.27 144.83 Z M 160.27 144.79 L 161.26 144.75 C 162.17 144.72 162.88 143.96 162.85 143.05 C 162.81 142.14 162.05 141.43 161.14 141.46 L 160.15 141.50 C 159.24 141.53 158.53 142.30 158.56 143.21 C 158.60 144.11 159.36 144.82 160.27 144.79 Z M 161.26 144.75 L 162.26 144.71 C 163.17 144.68 163.88 143.92 163.84 143.01 C 163.81 142.11 163.05 141.40 162.15 141.43 L 161.14 141.47 C 160.24 141.50 159.53 142.26 159.56 143.17 C 159.60 144.07 160.36 144.78 161.26 144.75 Z M 162.26 144.71 L 163.28 144.67 C 164.18 144.64 164.89 143.89 164.86 142.99 C 164.83 142.08 164.07 141.38 163.17 141.41 L 162.15 141.44 C 161.25 141.47 160.54 142.22 160.57 143.12 C 160.60 144.03 161.36 144.74 162.26 144.71 Z M 163.27 144.67 L 164.30 144.64 C 165.19 144.61 165.90 143.87 165.88 142.97 C 165.85 142.07 165.11 141.36 164.21 141.38 L 163.18 141.41 C 162.28 141.44 161.57 142.18 161.60 143.08 C 161.62 143.98 162.37 144.69 163.27 144.67 Z M 164.29 144.63 L 165.30 144.61 C 166.19 144.59 166.90 143.85 166.88 142.95 C 166.86 142.06 166.12 141.35 165.23 141.37 L 164.22 141.39 C 163.32 141.41 162.61 142.15 162.63 143.05 C 162.65 143.94 163.39 144.65 164.29 144.63 Z M 165.29 144.60 L 166.25 144.59 C 167.14 144.57 167.85 143.84 167.83 142.95 C 167.82 142.06 167.09 141.35 166.20 141.36 L 165.23 141.38 C 164.34 141.39 163.63 142.13 163.65 143.02 C 163.66 143.91 164.40 144.62 165.29 144.60 Z M 166.24 144.58 L 167.30 144.57 C 168.19 144.56 168.90 143.83 168.89 142.95 C 168.88 142.06 168.16 141.35 167.27 141.36 L 166.21 141.37 C 165.32 141.38 164.61 142.10 164.62 142.99 C 164.63 143.88 165.35 144.59 166.24 144.58 Z M 167.29 144.56 L 168.29 144.55 C 169.18 144.55 169.89 143.83 169.88 142.95 C 169.88 142.07 169.16 141.36 168.28 141.36 L 167.28 141.37 C 166.40 141.37 165.69 142.09 165.69 142.97 C 165.70 143.85 166.41 144.56 167.29 144.56 Z M 168.29 144.55 L 169.21 144.55 C 170.09 144.54 170.80 143.83 170.80 142.96 C 170.80 142.08 170.09 141.37 169.21 141.37 L 168.29 141.37 C 167.41 141.37 166.70 142.08 166.70 142.96 C 166.70 143.84 167.41 144.55 168.29 144.55 Z M 169.21 144.54 L 170.25 144.54 C 171.12 144.54 171.83 143.83 171.83 142.96 C 171.83 142.08 171.12 141.38 170.25 141.38 L 169.21 141.38 C 168.34 141.38 167.63 142.08 167.63 142.96 C 167.63 143.83 168.34 144.54 169.21 144.54 Z M 170.25 144.53 L 171.23 144.53 C 172.10 144.53 172.80 143.82 172.80 142.96 C 172.80 142.09 172.10 141.39 171.23 141.39 L 170.25 141.39 C 169.38 141.39 168.68 142.09 168.68 142.96 C 168.68 143.82 169.38 144.53 170.25 144.53 Z M 171.23 144.52 L 172.24 144.52 C 173.10 144.52 173.79 143.82 173.79 142.96 C 173.79 142.10 173.10 141.40 172.24 141.40 L 171.23 141.40 C 170.37 141.40 169.67 142.10 169.67 142.96 C 169.67 143.82 170.37 144.52 171.23 144.52 Z M 172.24 144.50 L 173.24 144.50 C 174.09 144.50 174.79 143.81 174.79 142.96 C 174.79 142.10 174.09 141.41 173.24 141.41 L 172.24 141.41 C 171.38 141.41 170.69 142.10 170.69 142.96 C 170.69 143.81 171.38 144.50 172.24 144.50 Z M 173.24 144.49 L 174.19 144.49 C 175.04 144.49 175.73 143.81 175.73 142.96 C 175.73 142.11 175.04 141.42 174.19 141.42 L 173.24 141.42 C 172.39 141.42 171.70 142.11 171.70 142.96 C 171.70 143.81 172.39 144.49 173.24 144.49 Z M 174.18 144.48 L 175.14 144.49 C 175.98 144.50 176.67 143.82 176.68 142.98 C 176.69 142.14 176.01 141.45 175.17 141.44 L 174.20 141.43 C 173.36 141.42 172.67 142.10 172.66 142.94 C 172.66 143.79 173.33 144.48 174.18 144.48 Z M 175.11 144.48 L 176.15 144.51 C 176.99 144.54 177.69 143.88 177.71 143.04 C 177.74 142.21 177.08 141.51 176.24 141.48 L 175.20 141.45 C 174.36 141.43 173.67 142.08 173.64 142.92 C 173.62 143.76 174.27 144.45 175.11 144.48 Z M 176.09 144.50 L 177.11 144.57 C 177.94 144.63 178.66 144.01 178.72 143.18 C 178.78 142.35 178.16 141.63 177.33 141.57 L 176.31 141.50 C 175.48 141.44 174.76 142.06 174.70 142.89 C 174.64 143.72 175.26 144.44 176.09 144.50 Z M 176.96 144.55 L 177.95 144.72 C 178.76 144.86 179.54 144.32 179.68 143.50 C 179.82 142.69 179.28 141.91 178.47 141.77 L 177.48 141.60 C 176.66 141.46 175.89 142.00 175.75 142.81 C 175.60 143.63 176.15 144.40 176.96 144.55 Z M 177.64 144.61 L 178.59 145.01 C 179.34 145.32 180.21 144.96 180.52 144.21 C 180.84 143.45 180.48 142.58 179.72 142.27 L 178.78 141.88 C 178.02 141.56 177.15 141.92 176.84 142.68 C 176.52 143.43 176.88 144.30 177.64 144.61 Z M 178.28 144.81 L 179.06 145.39 C 179.71 145.87 180.62 145.74 181.10 145.09 C 181.59 144.44 181.45 143.52 180.80 143.04 L 180.03 142.46 C 179.38 141.98 178.46 142.12 177.98 142.77 C 177.50 143.41 177.63 144.33 178.28 144.81 Z M 178.98 145.30 L 179.21 145.51 C 179.81 146.04 180.73 145.98 181.26 145.37 C 181.78 144.77 181.72 143.86 181.12 143.33 L 180.88 143.12 C 180.28 142.60 179.37 142.66 178.84 143.26 C 178.31 143.86 178.37 144.78 178.98 145.30 Z"
      fill="black"
      fill-rule="nonzero" /><path d="M 179.43 80.90 L 179.24 79.89 C 179.09 79.06 178.30 78.51 177.47 78.66 C 176.65 78.82 176.10 79.61 176.25 80.43 L 176.43 81.45 C 176.58 82.27 177.38 82.82 178.20 82.67 C 179.03 82.52 179.58 81.73 179.43 80.90 Z M 179.24 79.87 L 179.04 78.88 C 178.88 78.05 178.08 77.51 177.26 77.67 C 176.43 77.84 175.90 78.64 176.06 79.46 L 176.25 80.45 C 176.41 81.28 177.21 81.82 178.04 81.66 C 178.86 81.49 179.40 80.69 179.24 79.87 Z M 179.04 78.84 L 178.82 77.88 C 178.64 77.06 177.82 76.54 177.00 76.73 C 176.18 76.91 175.67 77.73 175.85 78.55 L 176.07 79.50 C 176.25 80.32 177.06 80.84 177.88 80.65 C 178.70 80.47 179.22 79.66 179.04 78.84 Z M 178.80 77.81 L 178.54 76.83 C 178.32 76.02 177.48 75.54 176.67 75.76 C 175.86 75.98 175.38 76.82 175.60 77.63 L 175.87 78.61 C 176.09 79.42 176.93 79.90 177.74 79.68 C 178.55 79.46 179.03 78.62 178.80 77.81 Z M 178.51 76.76 L 178.20 75.79 C 177.93 74.99 177.07 74.56 176.28 74.82 C 175.48 75.08 175.04 75.95 175.31 76.74 L 175.62 77.71 C 175.89 78.51 176.75 78.94 177.54 78.68 C 178.34 78.41 178.78 77.55 178.51 76.76 Z M 178.18 75.74 L 177.84 74.83 C 177.55 74.04 176.67 73.64 175.88 73.94 C 175.10 74.23 174.70 75.11 174.99 75.89 L 175.33 76.80 C 175.62 77.59 176.49 77.99 177.28 77.69 C 178.07 77.40 178.47 76.52 178.18 75.74 Z M 177.83 74.80 L 177.46 73.85 C 177.15 73.07 176.26 72.69 175.48 73.00 C 174.70 73.31 174.31 74.19 174.62 74.98 L 175.00 75.92 C 175.31 76.71 176.19 77.09 176.98 76.78 C 177.76 76.47 178.14 75.58 177.83 74.80 Z M 177.45 73.83 L 177.06 72.89 C 176.74 72.11 175.84 71.74 175.06 72.07 C 174.28 72.39 173.91 73.29 174.24 74.07 L 174.63 75.00 C 174.95 75.78 175.85 76.15 176.63 75.83 C 177.41 75.50 177.78 74.61 177.45 73.83 Z M 177.05 72.85 L 176.66 71.98 C 176.31 71.20 175.41 70.85 174.63 71.20 C 173.86 71.55 173.51 72.46 173.86 73.23 L 174.25 74.11 C 174.59 74.88 175.50 75.23 176.28 74.88 C 177.05 74.54 177.40 73.63 177.05 72.85 Z M 176.64 71.92 L 176.19 71.00 C 175.81 70.23 174.88 69.92 174.12 70.29 C 173.35 70.67 173.04 71.60 173.42 72.36 L 173.87 73.29 C 174.25 74.05 175.18 74.37 175.94 73.99 C 176.71 73.61 177.02 72.68 176.64 71.92 Z M 176.17 70.94 L 175.71 70.09 C 175.30 69.34 174.35 69.06 173.60 69.48 C 172.85 69.89 172.57 70.83 172.98 71.58 L 173.44 72.42 C 173.85 73.18 174.79 73.45 175.55 73.04 C 176.30 72.63 176.58 71.69 176.17 70.94 Z M 175.68 70.03 L 175.16 69.18 C 174.71 68.44 173.75 68.20 173.01 68.65 C 172.28 69.10 172.04 70.06 172.49 70.80 L 173.01 71.65 C 173.45 72.39 174.42 72.62 175.15 72.18 C 175.89 71.73 176.13 70.77 175.68 70.03 Z M 175.10 69.06 L 174.50 68.25 C 173.99 67.55 173.01 67.39 172.30 67.91 C 171.60 68.42 171.45 69.41 171.96 70.11 L 172.56 70.92 C 173.07 71.62 174.05 71.77 174.76 71.26 C 175.46 70.74 175.61 69.76 175.10 69.06 Z M 174.39 68.10 L 173.70 67.36 C 173.11 66.72 172.10 66.68 171.46 67.28 C 170.82 67.88 170.79 68.88 171.38 69.52 L 172.07 70.26 C 172.67 70.90 173.68 70.94 174.32 70.34 C 174.96 69.74 174.99 68.74 174.39 68.10 Z M 173.54 67.19 L 172.76 66.57 C 172.07 66.02 171.07 66.13 170.52 66.82 C 169.97 67.52 170.08 68.52 170.77 69.07 L 171.55 69.69 C 172.24 70.24 173.24 70.13 173.79 69.43 C 174.34 68.74 174.23 67.74 173.54 67.19 Z M 172.49 66.38 L 171.60 65.93 C 170.81 65.53 169.84 65.85 169.44 66.64 C 169.04 67.43 169.35 68.40 170.15 68.80 L 171.04 69.26 C 171.83 69.66 172.80 69.34 173.20 68.55 C 173.60 67.75 173.29 66.79 172.49 66.38 Z M 171.25 65.79 L 170.30 65.57 C 169.43 65.36 168.56 65.90 168.35 66.77 C 168.14 67.64 168.68 68.51 169.55 68.72 L 170.50 68.94 C 171.37 69.15 172.24 68.61 172.45 67.74 C 172.65 66.87 172.12 66.00 171.25 65.79 Z M 169.98 65.52 L 168.98 65.48 C 168.08 65.45 167.33 66.16 167.30 67.06 C 167.27 67.95 167.98 68.70 168.87 68.73 L 169.87 68.77 C 170.77 68.80 171.52 68.09 171.55 67.20 C 171.58 66.30 170.87 65.55 169.98 65.52 Z M 168.76 65.48 L 167.74 65.59 C 166.84 65.68 166.19 66.49 166.28 67.39 C 166.37 68.28 167.18 68.94 168.08 68.84 L 169.10 68.74 C 170.00 68.64 170.65 67.84 170.55 66.94 C 170.46 66.04 169.66 65.39 168.76 65.48 Z M 167.51 65.61 L 166.54 65.85 C 165.65 66.07 165.11 66.97 165.33 67.85 C 165.55 68.74 166.45 69.28 167.33 69.06 L 168.30 68.82 C 169.19 68.60 169.73 67.70 169.51 66.82 C 169.29 65.94 168.39 65.40 167.51 65.61 Z M 166.18 65.97 L 165.31 66.42 C 164.49 66.83 164.16 67.83 164.58 68.65 C 165.00 69.47 166.00 69.80 166.82 69.38 L 167.69 68.94 C 168.51 68.52 168.83 67.52 168.42 66.70 C 168.00 65.88 167.00 65.56 166.18 65.97 Z M 164.99 66.61 L 164.22 67.25 C 163.51 67.84 163.41 68.89 164.00 69.61 C 164.59 70.32 165.65 70.42 166.36 69.83 L 167.13 69.19 C 167.84 68.60 167.94 67.54 167.35 66.83 C 166.76 66.12 165.71 66.02 164.99 66.61 Z M 164.10 67.35 L 163.44 68.01 C 162.78 68.67 162.78 69.74 163.44 70.39 C 164.10 71.05 165.16 71.05 165.82 70.39 L 166.49 69.73 C 167.14 69.07 167.14 68.00 166.48 67.34 C 165.83 66.69 164.76 66.69 164.10 67.35 Z M 163.35 68.08 L 162.65 68.87 C 162.04 69.58 162.11 70.65 162.81 71.27 C 163.52 71.89 164.59 71.82 165.21 71.12 L 165.91 70.32 C 166.53 69.62 166.46 68.54 165.75 67.92 C 165.05 67.30 163.97 67.37 163.35 68.08 Z M 162.59 68.94 L 162.02 69.66 C 161.43 70.40 161.56 71.48 162.31 72.06 C 163.05 72.65 164.13 72.52 164.71 71.78 L 165.28 71.05 C 165.86 70.31 165.73 69.23 164.99 68.65 C 164.25 68.06 163.17 68.19 162.59 68.94 Z M 161.97 69.70 L 161.37 70.53 C 160.81 71.30 160.98 72.38 161.75 72.94 C 162.52 73.50 163.60 73.33 164.16 72.56 L 164.76 71.73 C 165.32 70.96 165.15 69.88 164.38 69.32 C 163.61 68.76 162.53 68.93 161.97 69.70 Z M 161.33 70.57 L 160.75 71.42 C 160.21 72.22 160.42 73.30 161.22 73.83 C 162.01 74.37 163.09 74.16 163.63 73.37 L 164.20 72.52 C 164.74 71.72 164.53 70.64 163.74 70.11 C 162.94 69.57 161.86 69.78 161.33 70.57 Z M 160.71 71.46 L 160.20 72.28 C 159.68 73.09 159.92 74.17 160.74 74.69 C 161.55 75.20 162.63 74.96 163.15 74.15 L 163.66 73.33 C 164.18 72.52 163.94 71.44 163.12 70.92 C 162.31 70.40 161.23 70.65 160.71 71.46 Z M 160.16 72.32 L 159.64 73.20 C 159.15 74.04 159.43 75.12 160.27 75.61 C 161.11 76.10 162.18 75.82 162.67 74.98 L 163.19 74.10 C 163.68 73.26 163.40 72.19 162.56 71.69 C 161.72 71.20 160.65 71.48 160.16 72.32 Z M 159.60 73.26 L 159.10 74.18 C 158.65 75.04 158.97 76.11 159.84 76.57 C 160.70 77.03 161.77 76.71 162.23 75.84 L 162.72 74.92 C 163.18 74.06 162.85 72.99 161.99 72.53 C 161.13 72.07 160.05 72.40 159.60 73.26 Z M 159.06 74.24 L 158.64 75.12 C 158.22 76.00 158.59 77.06 159.48 77.49 C 160.36 77.91 161.42 77.54 161.85 76.66 L 162.27 75.78 C 162.69 74.90 162.32 73.84 161.44 73.41 C 160.55 72.99 159.49 73.36 159.06 74.24 Z M 158.61 75.16 L 158.21 76.07 C 157.81 76.97 158.22 78.03 159.12 78.43 C 160.02 78.83 161.08 78.42 161.48 77.52 L 161.88 76.61 C 162.28 75.71 161.87 74.65 160.97 74.25 C 160.07 73.85 159.01 74.26 158.61 75.16 Z M 158.19 76.10 L 157.79 77.04 C 157.41 77.96 157.84 79.01 158.76 79.39 C 159.67 79.77 160.72 79.34 161.11 78.43 L 161.50 77.49 C 161.88 76.57 161.45 75.52 160.54 75.14 C 159.62 74.76 158.57 75.19 158.19 76.10 Z M 157.78 77.06 L 157.40 77.99 C 157.03 78.92 157.47 79.97 158.39 80.34 C 159.32 80.72 160.37 80.27 160.74 79.35 L 161.12 78.41 C 161.49 77.49 161.05 76.44 160.13 76.06 C 159.20 75.69 158.15 76.14 157.78 77.06 Z M 157.39 78.00 L 157.03 78.91 C 156.66 79.84 157.11 80.90 158.04 81.26 C 158.98 81.63 160.03 81.18 160.40 80.25 L 160.76 79.34 C 161.12 78.41 160.67 77.35 159.74 76.99 C 158.81 76.62 157.75 77.07 157.39 78.00 Z M 157.01 78.93 L 156.66 79.86 C 156.29 80.79 156.76 81.85 157.70 82.21 C 158.64 82.57 159.69 82.10 160.05 81.16 L 160.41 80.23 C 160.77 79.30 160.30 78.24 159.37 77.88 C 158.43 77.52 157.38 77.99 157.01 78.93 Z M 156.64 79.87 L 156.29 80.82 C 155.93 81.77 156.41 82.82 157.36 83.17 C 158.30 83.53 159.35 83.05 159.71 82.10 L 160.06 81.15 C 160.42 80.21 159.94 79.15 158.99 78.80 C 158.05 78.45 157.00 78.93 156.64 79.87 Z M 156.27 80.84 L 155.93 81.80 C 155.58 82.75 156.07 83.80 157.03 84.14 C 157.98 84.49 159.03 83.99 159.38 83.04 L 159.72 82.09 C 160.07 81.13 159.57 80.08 158.62 79.74 C 157.67 79.39 156.62 79.89 156.27 80.84 Z M 155.91 81.81 L 155.58 82.75 C 155.25 83.71 155.75 84.76 156.71 85.09 C 157.67 85.43 158.73 84.92 159.06 83.96 L 159.39 83.03 C 159.73 82.07 159.22 81.02 158.26 80.68 C 157.30 80.34 156.25 80.85 155.91 81.81 Z M 155.57 82.76 L 155.25 83.70 C 154.92 84.67 155.43 85.72 156.40 86.06 C 157.37 86.39 158.42 85.87 158.75 84.90 L 159.07 83.96 C 159.41 82.99 158.89 81.94 157.92 81.60 C 156.96 81.27 155.90 81.79 155.57 82.76 Z M 155.24 83.71 L 154.91 84.66 C 154.58 85.63 155.11 86.69 156.08 87.02 C 157.05 87.35 158.11 86.83 158.44 85.85 L 158.76 84.90 C 159.09 83.93 158.57 82.87 157.59 82.54 C 156.62 82.21 155.57 82.73 155.24 83.71 Z M 154.90 84.66 L 154.58 85.61 C 154.25 86.59 154.78 87.65 155.76 87.98 C 156.73 88.31 157.79 87.78 158.12 86.81 L 158.45 85.86 C 158.78 84.88 158.25 83.82 157.27 83.49 C 156.30 83.16 155.23 83.68 154.90 84.66 Z M 154.58 85.61 L 154.26 86.55 C 153.92 87.53 154.45 88.60 155.43 88.93 C 156.41 89.26 157.48 88.74 157.81 87.76 L 158.13 86.81 C 158.46 85.83 157.94 84.76 156.96 84.43 C 155.97 84.10 154.91 84.63 154.58 85.61 Z M 154.25 86.55 L 153.93 87.49 C 153.60 88.48 154.13 89.55 155.12 89.88 C 156.10 90.21 157.17 89.68 157.50 88.70 L 157.82 87.75 C 158.15 86.77 157.62 85.70 156.64 85.37 C 155.65 85.04 154.58 85.57 154.25 86.55 Z M 153.92 87.50 L 153.61 88.45 C 153.28 89.44 153.82 90.51 154.81 90.83 C 155.80 91.16 156.87 90.63 157.19 89.64 L 157.51 88.69 C 157.84 87.70 157.30 86.63 156.31 86.30 C 155.32 85.97 154.25 86.51 153.92 87.50 Z M 153.60 88.46 L 153.29 89.42 C 152.97 90.42 153.52 91.48 154.51 91.80 C 155.51 92.12 156.58 91.58 156.90 90.58 L 157.21 89.62 C 157.53 88.63 156.98 87.56 155.98 87.24 C 154.99 86.92 153.92 87.47 153.60 88.46 Z M 153.28 89.44 L 152.99 90.36 C 152.68 91.37 153.24 92.43 154.25 92.74 C 155.25 93.05 156.31 92.49 156.62 91.49 L 156.91 90.56 C 157.22 89.56 156.66 88.50 155.66 88.19 C 154.65 87.88 153.59 88.44 153.28 89.44 Z M 152.99 90.38 L 152.71 91.31 C 152.41 92.31 152.98 93.37 153.99 93.67 C 154.99 93.97 156.05 93.40 156.35 92.39 L 156.63 91.47 C 156.93 90.46 156.36 89.40 155.35 89.10 C 154.35 88.80 153.29 89.37 152.99 90.38 Z M 152.70 91.32 L 152.43 92.27 C 152.13 93.28 152.72 94.34 153.73 94.63 C 154.74 94.92 155.79 94.34 156.09 93.33 L 156.36 92.38 C 156.65 91.37 156.07 90.31 155.06 90.02 C 154.05 89.73 153.00 90.31 152.70 91.32 Z M 152.42 92.28 L 152.14 93.27 C 151.85 94.28 152.44 95.33 153.46 95.62 C 154.47 95.91 155.52 95.32 155.81 94.31 L 156.09 93.32 C 156.38 92.31 155.79 91.25 154.78 90.97 C 153.76 90.68 152.71 91.27 152.42 92.28 Z M 152.14 93.27 L 151.85 94.29 C 151.57 95.30 152.16 96.36 153.18 96.64 C 154.19 96.92 155.25 96.33 155.53 95.32 L 155.82 94.30 C 156.10 93.29 155.51 92.23 154.49 91.95 C 153.48 91.66 152.42 92.26 152.14 93.27 Z M 151.85 94.29 L 151.59 95.21 C 151.31 96.23 151.91 97.28 152.93 97.57 C 153.94 97.85 155.00 97.25 155.28 96.24 L 155.54 95.31 C 155.82 94.29 155.22 93.24 154.20 92.96 C 153.19 92.68 152.13 93.27 151.85 94.29 Z M 151.59 95.22 L 151.33 96.17 C 151.05 97.19 151.65 98.24 152.68 98.52 C 153.70 98.80 154.75 98.20 155.03 97.18 L 155.28 96.23 C 155.56 95.21 154.96 94.15 153.94 93.88 C 152.92 93.60 151.87 94.20 151.59 95.22 Z M 151.32 96.19 L 151.07 97.16 C 150.80 98.18 151.41 99.23 152.43 99.50 C 153.46 99.77 154.51 99.16 154.78 98.13 L 155.03 97.16 C 155.30 96.14 154.69 95.09 153.67 94.82 C 152.64 94.55 151.59 95.16 151.32 96.19 Z M 151.06 97.18 L 150.81 98.17 C 150.55 99.20 151.18 100.24 152.21 100.50 C 153.23 100.76 154.28 100.13 154.54 99.10 L 154.79 98.11 C 155.04 97.08 154.42 96.04 153.39 95.78 C 152.36 95.52 151.32 96.15 151.06 97.18 Z M 150.80 98.19 L 150.56 99.19 C 150.32 100.23 150.96 101.26 152.00 101.51 C 153.03 101.75 154.07 101.11 154.31 100.08 L 154.55 99.08 C 154.79 98.04 154.15 97.00 153.12 96.76 C 152.08 96.52 151.04 97.16 150.80 98.19 Z M 150.55 99.23 L 150.34 100.20 C 150.12 101.24 150.78 102.27 151.82 102.50 C 152.86 102.72 153.88 102.06 154.11 101.02 L 154.32 100.04 C 154.55 99.00 153.89 97.98 152.85 97.75 C 151.81 97.53 150.78 98.19 150.55 99.23 Z M 150.33 100.23 L 150.14 101.20 C 149.93 102.25 150.61 103.27 151.65 103.48 C 152.70 103.68 153.72 103.01 153.92 101.96 L 154.12 100.99 C 154.33 99.94 153.65 98.93 152.60 98.72 C 151.56 98.51 150.54 99.19 150.33 100.23 Z M 150.13 101.23 L 149.95 102.21 C 149.76 103.26 150.45 104.27 151.50 104.46 C 152.55 104.66 153.56 103.96 153.75 102.91 L 153.93 101.93 C 154.13 100.88 153.43 99.88 152.38 99.68 C 151.33 99.49 150.33 100.18 150.13 101.23 Z M 149.94 102.23 L 149.77 103.21 C 149.59 104.27 150.30 105.27 151.35 105.45 C 152.40 105.64 153.40 104.93 153.59 103.88 L 153.76 102.89 C 153.94 101.84 153.23 100.83 152.18 100.65 C 151.13 100.47 150.13 101.18 149.94 102.23 Z M 149.77 103.23 L 149.60 104.23 C 149.43 105.28 150.15 106.28 151.20 106.45 C 152.26 106.63 153.26 105.91 153.43 104.85 L 153.59 103.86 C 153.77 102.80 153.05 101.81 151.99 101.63 C 150.94 101.46 149.94 102.17 149.77 103.23 Z M 149.60 104.24 L 149.44 105.24 C 149.27 106.30 150.00 107.29 151.06 107.46 C 152.12 107.63 153.11 106.90 153.28 105.84 L 153.43 104.84 C 153.60 103.78 152.88 102.79 151.82 102.62 C 150.76 102.46 149.77 103.18 149.60 104.24 Z M 149.44 105.25 L 149.29 106.22 C 149.12 107.28 149.85 108.28 150.92 108.44 C 151.98 108.60 152.97 107.87 153.13 106.81 L 153.28 105.84 C 153.44 104.78 152.71 103.78 151.65 103.62 C 150.59 103.46 149.60 104.19 149.44 105.25 Z M 149.28 106.23 L 149.14 107.21 C 148.98 108.28 149.71 109.27 150.78 109.43 C 151.84 109.59 152.83 108.85 152.99 107.79 L 153.14 106.80 C 153.29 105.74 152.56 104.75 151.50 104.59 C 150.43 104.43 149.44 105.17 149.28 106.23 Z M 149.13 107.22 L 148.99 108.21 C 148.84 109.28 149.58 110.27 150.64 110.42 C 151.71 110.58 152.70 109.84 152.85 108.77 L 152.99 107.78 C 153.15 106.71 152.41 105.72 151.34 105.57 C 150.27 105.42 149.29 106.16 149.13 107.22 Z M 148.99 108.22 L 148.85 109.22 C 148.70 110.29 149.45 111.27 150.51 111.42 C 151.58 111.57 152.57 110.82 152.72 109.76 L 152.85 108.76 C 153.00 107.69 152.26 106.71 151.19 106.56 C 150.12 106.41 149.13 107.16 148.99 108.22 Z M 148.84 109.23 L 148.71 110.23 C 148.57 111.30 149.32 112.28 150.39 112.43 C 151.46 112.57 152.45 111.82 152.59 110.74 L 152.72 109.75 C 152.86 108.68 152.11 107.69 151.04 107.55 C 149.97 107.41 148.99 108.16 148.84 109.23 Z M 148.71 110.24 L 148.58 111.24 C 148.45 112.31 149.20 113.29 150.28 113.42 C 151.35 113.56 152.33 112.80 152.47 111.73 L 152.59 110.73 C 152.73 109.66 151.97 108.68 150.90 108.55 C 149.82 108.41 148.84 109.17 148.71 110.24 Z M 148.58 111.25 L 148.46 112.23 C 148.33 113.30 149.10 114.28 150.17 114.41 C 151.25 114.54 152.22 113.77 152.35 112.69 L 152.47 111.72 C 152.60 110.64 151.83 109.67 150.76 109.54 C 149.68 109.41 148.71 110.17 148.58 111.25 Z M 148.46 112.24 L 148.34 113.22 C 148.22 114.30 148.99 115.27 150.07 115.39 C 151.15 115.51 152.12 114.74 152.24 113.66 L 152.36 112.68 C 152.48 111.61 151.71 110.63 150.63 110.51 C 149.55 110.39 148.58 111.16 148.46 112.24 Z M 148.34 113.23 L 148.23 114.22 C 148.11 115.30 148.89 116.27 149.97 116.38 C 151.05 116.50 152.02 115.72 152.14 114.64 L 152.25 113.65 C 152.36 112.58 151.59 111.61 150.51 111.49 C 149.43 111.37 148.46 112.15 148.34 113.23 Z M 148.23 114.23 L 148.12 115.22 C 148.01 116.30 148.80 117.27 149.88 117.38 C 150.96 117.50 151.93 116.71 152.04 115.63 L 152.14 114.63 C 152.25 113.55 151.47 112.58 150.39 112.47 C 149.31 112.36 148.34 113.15 148.23 114.23 Z M 148.12 115.23 L 148.02 116.24 C 147.91 117.33 148.71 118.29 149.79 118.40 C 150.87 118.50 151.84 117.71 151.94 116.63 L 152.04 115.62 C 152.15 114.54 151.36 113.57 150.28 113.47 C 149.19 113.36 148.23 114.15 148.12 115.23 Z M 148.02 116.25 L 147.92 117.25 C 147.82 118.33 148.62 119.29 149.70 119.40 C 150.79 119.50 151.75 118.70 151.85 117.62 L 151.95 116.62 C 152.05 115.54 151.25 114.58 150.17 114.47 C 149.08 114.37 148.12 115.17 148.02 116.25 Z M 147.92 117.25 L 147.84 118.19 C 147.74 119.28 148.54 120.24 149.62 120.34 C 150.71 120.44 151.67 119.64 151.77 118.55 L 151.85 117.61 C 151.95 116.53 151.15 115.57 150.07 115.47 C 148.98 115.37 148.02 116.17 147.92 117.25 Z M 147.83 118.20 L 147.75 119.16 C 147.66 120.25 148.46 121.20 149.55 121.30 C 150.64 121.39 151.59 120.59 151.69 119.50 L 151.77 118.54 C 151.87 117.46 151.06 116.50 149.97 116.40 C 148.89 116.31 147.93 117.11 147.83 118.20 Z M 147.75 119.17 L 147.67 120.15 C 147.58 121.23 148.39 122.19 149.48 122.28 C 150.57 122.37 151.52 121.56 151.61 120.47 L 151.69 119.49 C 151.78 118.40 150.97 117.45 149.88 117.36 C 148.79 117.27 147.84 118.08 147.75 119.17 Z M 147.66 120.15 L 147.59 121.16 C 147.50 122.25 148.32 123.20 149.41 123.28 C 150.50 123.37 151.45 122.55 151.54 121.46 L 151.61 120.46 C 151.70 119.37 150.88 118.42 149.79 118.33 C 148.70 118.25 147.75 119.06 147.66 120.15 Z M 147.58 121.17 L 147.51 122.20 C 147.43 123.29 148.25 124.24 149.34 124.32 C 150.43 124.40 151.38 123.58 151.46 122.48 L 151.54 121.45 C 151.62 120.36 150.80 119.41 149.70 119.33 C 148.61 119.25 147.66 120.07 147.58 121.17 Z M 147.51 122.21 L 147.43 123.27 C 147.36 124.36 148.19 125.31 149.28 125.38 C 150.37 125.46 151.32 124.63 151.39 123.54 L 151.47 122.47 C 151.54 121.38 150.71 120.43 149.62 120.36 C 148.53 120.29 147.58 121.11 147.51 122.21 Z M 147.43 123.28 L 147.37 124.29 C 147.30 125.38 148.13 126.32 149.23 126.39 C 150.32 126.46 151.26 125.63 151.33 124.54 L 151.40 123.53 C 151.47 122.43 150.63 121.49 149.54 121.42 C 148.44 121.35 147.50 122.18 147.43 123.28 Z M 147.37 124.29 L 147.31 125.28 C 147.24 126.37 148.08 127.32 149.18 127.38 C 150.27 127.44 151.21 126.61 151.28 125.51 L 151.34 124.53 C 151.40 123.43 150.56 122.49 149.47 122.43 C 148.37 122.36 147.43 123.20 147.37 124.29 Z M 147.31 125.29 L 147.25 126.29 C 147.19 127.38 148.03 128.32 149.13 128.38 C 150.23 128.44 151.17 127.60 151.23 126.50 L 151.28 125.50 C 151.34 124.40 150.50 123.47 149.40 123.41 C 148.30 123.35 147.37 124.19 147.31 125.29 Z M 147.25 126.30 L 147.20 127.31 C 147.14 128.40 147.99 129.34 149.09 129.40 C 150.19 129.45 151.12 128.60 151.18 127.51 L 151.23 126.49 C 151.28 125.40 150.44 124.46 149.34 124.41 C 148.24 124.35 147.30 125.20 147.25 126.30 Z M 147.20 127.31 L 147.15 128.33 C 147.10 129.43 147.95 130.36 149.05 130.41 C 150.15 130.46 151.08 129.61 151.13 128.51 L 151.18 127.50 C 151.23 126.40 150.38 125.46 149.28 125.41 C 148.18 125.36 147.25 126.21 147.20 127.31 Z M 147.15 128.34 L 147.10 129.35 C 147.06 130.45 147.91 131.38 149.02 131.43 C 150.12 131.47 151.05 130.62 151.09 129.52 L 151.14 128.50 C 151.18 127.40 150.33 126.47 149.22 126.43 C 148.12 126.38 147.19 127.23 147.15 128.34 Z M 147.10 129.36 L 147.06 130.36 C 147.02 131.46 147.88 132.39 148.99 132.43 C 150.09 132.47 151.02 131.61 151.06 130.51 L 151.10 129.51 C 151.14 128.40 150.28 127.48 149.17 127.43 C 148.07 127.39 147.14 128.25 147.10 129.36 Z M 147.06 130.37 L 147.03 131.36 C 146.99 132.47 147.86 133.39 148.96 133.43 C 150.07 133.46 150.99 132.60 151.03 131.49 L 151.06 130.50 C 151.10 129.40 150.23 128.47 149.13 128.44 C 148.02 128.40 147.10 129.26 147.06 130.37 Z M 147.03 131.37 L 147.00 132.43 C 146.97 133.53 147.84 134.45 148.94 134.49 C 150.05 134.52 150.97 133.65 151.00 132.54 L 151.03 131.48 C 151.06 130.38 150.19 129.46 149.08 129.43 C 147.98 129.40 147.06 130.27 147.03 131.37 Z M 147.00 132.44 L 146.97 133.47 C 146.95 134.58 147.82 135.49 148.93 135.52 C 150.03 135.55 150.95 134.67 150.98 133.56 L 151.00 132.53 C 151.03 131.42 150.15 130.51 149.04 130.48 C 147.94 130.46 147.02 131.33 147.00 132.44 Z M 146.97 133.48 L 146.95 134.49 C 146.93 135.60 147.81 136.51 148.92 136.53 C 150.03 136.55 150.94 135.67 150.96 134.57 L 150.98 133.55 C 151.00 132.45 150.12 131.53 149.01 131.51 C 147.91 131.49 146.99 132.37 146.97 133.48 Z M 146.95 134.50 L 146.94 135.49 C 146.92 136.60 147.80 137.51 148.91 137.53 C 150.02 137.54 150.93 136.66 150.95 135.55 L 150.96 134.56 C 150.98 133.45 150.09 132.54 148.99 132.52 C 147.88 132.51 146.97 133.39 146.95 134.50 Z M 146.93 135.50 L 146.92 136.48 C 146.91 137.59 147.80 138.49 148.91 138.51 C 150.02 138.52 150.92 137.63 150.94 136.52 L 150.95 135.54 C 150.96 134.44 150.07 133.53 148.96 133.52 C 147.86 133.50 146.95 134.39 146.93 135.50 Z M 146.92 136.48 L 146.91 137.45 C 146.90 138.55 147.80 139.46 148.91 139.47 C 150.01 139.48 150.92 138.59 150.93 137.48 L 150.94 136.52 C 150.95 135.41 150.06 134.50 148.95 134.49 C 147.84 134.48 146.93 135.37 146.92 136.48 Z M 146.91 137.45 L 146.91 138.41 C 146.90 139.52 147.79 140.43 148.90 140.43 C 150.01 140.44 150.92 139.55 150.93 138.44 L 150.93 137.47 C 150.94 136.36 150.04 135.46 148.93 135.45 C 147.82 135.45 146.92 136.34 146.91 137.45 Z M 146.91 138.41 L 146.90 139.41 C 146.90 140.52 147.79 141.43 148.90 141.43 C 150.01 141.44 150.92 140.54 150.92 139.43 L 150.93 138.43 C 150.93 137.32 150.04 136.42 148.93 136.41 C 147.81 136.41 146.91 137.30 146.91 138.41 Z M 146.90 139.41 L 146.90 140.41 C 146.89 141.52 147.79 142.42 148.90 142.42 C 150.01 142.43 150.92 141.53 150.92 140.42 L 150.92 139.43 C 150.93 138.32 150.03 137.41 148.92 137.41 C 147.81 137.40 146.90 138.30 146.90 139.41 Z M 146.90 140.41 L 146.89 141.40 C 146.89 142.51 147.79 143.41 148.90 143.42 C 150.01 143.42 150.92 142.52 150.92 141.41 L 150.92 140.42 C 150.92 139.30 150.02 138.40 148.91 138.40 C 147.80 138.40 146.90 139.30 146.90 140.41 Z M 146.89 141.40 L 146.89 142.39 C 146.89 143.51 147.79 144.41 148.90 144.41 C 150.02 144.41 150.92 143.51 150.92 142.40 L 150.92 141.41 C 150.92 140.29 150.02 139.39 148.91 139.39 C 147.80 139.39 146.89 140.29 146.89 141.40 Z M 146.89 142.40 L 146.89 143.40 C 146.89 144.51 147.79 145.41 148.90 145.41 C 150.02 145.41 150.92 144.51 150.92 143.40 L 150.92 142.40 C 150.92 141.29 150.02 140.38 148.91 140.38 C 147.79 140.38 146.89 141.28 146.89 142.40 Z M 146.89 143.40 L 146.89 144.41 C 146.89 145.53 147.79 146.43 148.90 146.43 C 150.02 146.43 150.92 145.53 150.92 144.41 L 150.92 143.40 C 150.92 142.29 150.02 141.38 148.91 141.38 C 147.79 141.38 146.89 142.29 146.89 143.40 Z M 146.89 144.41 L 146.89 145.40 C 146.89 146.51 147.79 147.41 148.90 147.41 C 150.02 147.41 150.92 146.51 150.92 145.40 L 150.92 144.41 C 150.92 143.30 150.02 142.40 148.90 142.40 C 147.79 142.40 146.89 143.30 146.89 144.41 Z M 146.89 145.40 L 146.89 146.37 C 146.89 147.49 147.79 148.39 148.91 148.39 C 150.02 148.39 150.92 147.49 150.92 146.37 L 150.92 145.40 C 150.92 144.28 150.02 143.38 148.90 143.38 C 147.79 143.38 146.89 144.29 146.89 145.40 Z M 146.89 146.38 L 146.89 147.37 C 146.89 148.48 147.80 149.38 148.91 149.38 C 150.03 149.38 150.93 148.47 150.93 147.36 L 150.92 146.37 C 150.92 145.25 150.01 144.35 148.90 144.35 C 147.79 144.36 146.88 145.26 146.89 146.38 Z M 146.89 147.37 L 146.90 148.37 C 146.90 149.49 147.81 150.38 148.92 150.38 C 150.04 150.37 150.94 149.46 150.93 148.35 L 150.93 147.35 C 150.92 146.23 150.01 145.34 148.90 145.34 C 147.78 145.35 146.88 146.26 146.89 147.37 Z M 146.89 148.38 L 146.90 149.39 C 146.91 150.50 147.83 151.40 148.94 151.39 C 150.06 151.38 150.95 150.47 150.94 149.35 L 150.93 148.34 C 150.92 147.23 150.01 146.33 148.89 146.34 C 147.78 146.35 146.88 147.26 146.89 148.38 Z M 146.90 149.40 L 146.92 150.42 C 146.93 151.53 147.85 152.42 148.97 152.41 C 150.08 152.39 150.97 151.47 150.96 150.36 L 150.94 149.34 C 150.93 148.22 150.01 147.33 148.89 147.35 C 147.78 147.37 146.89 148.28 146.90 149.40 Z M 146.92 150.43 L 146.94 151.45 C 146.96 152.57 147.89 153.45 149.00 153.43 C 150.12 153.41 151.00 152.49 150.98 151.37 L 150.96 150.35 C 150.94 149.23 150.01 148.34 148.90 148.37 C 147.78 148.39 146.90 149.31 146.92 150.43 Z M 146.94 151.47 L 146.97 152.48 C 147.00 153.59 147.93 154.47 149.04 154.44 C 150.16 154.41 151.04 153.48 151.01 152.37 L 150.98 151.36 C 150.95 150.24 150.02 149.36 148.90 149.39 C 147.79 149.42 146.91 150.35 146.94 151.47 Z M 146.97 152.49 L 147.00 153.50 C 147.04 154.61 147.98 155.49 149.09 155.45 C 150.21 155.41 151.08 154.47 151.04 153.36 L 151.01 152.35 C 150.97 151.24 150.03 150.36 148.92 150.40 C 147.80 150.44 146.93 151.38 146.97 152.49 Z M 147.00 153.51 L 147.04 154.52 C 147.09 155.63 148.03 156.50 149.15 156.45 C 150.26 156.41 151.13 155.46 151.08 154.35 L 151.04 153.34 C 151.00 152.23 150.05 151.36 148.94 151.41 C 147.82 151.45 146.96 152.40 147.00 153.51 Z M 147.04 154.53 L 147.09 155.53 C 147.15 156.65 148.10 157.51 149.21 157.46 C 150.33 157.40 151.19 156.45 151.13 155.34 L 151.08 154.33 C 151.03 153.22 150.08 152.36 148.97 152.41 C 147.85 152.47 146.99 153.42 147.04 154.53 Z M 147.09 155.55 L 147.15 156.55 C 147.21 157.66 148.16 158.52 149.28 158.46 C 150.40 158.39 151.25 157.44 151.19 156.33 L 151.13 155.32 C 151.07 154.21 150.12 153.36 149.00 153.42 C 147.89 153.48 147.03 154.43 147.09 155.55 Z M 147.15 156.56 L 147.21 157.56 C 147.28 158.67 148.24 159.52 149.36 159.45 C 150.47 159.38 151.32 158.42 151.25 157.31 L 151.19 156.31 C 151.12 155.20 150.16 154.35 149.04 154.42 C 147.93 154.49 147.08 155.45 147.15 156.56 Z M 147.21 157.57 L 147.28 158.56 C 147.36 159.67 148.32 160.52 149.44 160.44 C 150.55 160.36 151.39 159.40 151.32 158.28 L 151.25 157.29 C 151.17 156.18 150.21 155.34 149.09 155.41 C 147.98 155.49 147.14 156.46 147.21 157.57 Z M 147.28 158.57 L 147.35 159.57 C 147.44 160.68 148.41 161.52 149.52 161.43 C 150.64 161.35 151.47 160.38 151.39 159.26 L 151.32 158.27 C 151.23 157.16 150.26 156.32 149.15 156.40 C 148.03 156.49 147.20 157.46 147.28 158.57 Z M 147.36 159.58 L 147.44 160.59 C 147.53 161.70 148.51 162.53 149.62 162.44 C 150.73 162.35 151.56 161.37 151.47 160.26 L 151.39 159.25 C 151.30 158.14 150.32 157.31 149.21 157.40 C 148.09 157.49 147.26 158.47 147.36 159.58 Z M 147.44 160.60 L 147.53 161.60 C 147.62 162.71 148.61 163.53 149.72 163.44 C 150.84 163.34 151.66 162.35 151.56 161.24 L 151.47 160.24 C 151.37 159.13 150.39 158.30 149.28 158.40 C 148.16 158.50 147.34 159.48 147.44 160.60 Z M 147.53 161.61 L 147.62 162.60 C 147.73 163.71 148.71 164.53 149.83 164.43 C 150.94 164.32 151.76 163.33 151.65 162.22 L 151.56 161.23 C 151.45 160.11 150.47 159.29 149.35 159.40 C 148.24 159.51 147.42 160.49 147.53 161.61 Z M 147.62 162.61 L 147.72 163.60 C 147.83 164.72 148.83 165.53 149.94 165.42 C 151.05 165.30 151.87 164.31 151.75 163.20 L 151.65 162.21 C 151.54 161.09 150.55 160.28 149.43 160.39 C 148.32 160.50 147.51 161.50 147.62 162.61 Z M 147.72 163.61 L 147.83 164.60 C 147.94 165.72 148.94 166.52 150.06 166.41 C 151.17 166.29 151.98 165.29 151.86 164.17 L 151.75 163.18 C 151.64 162.07 150.64 161.26 149.52 161.38 C 148.41 161.50 147.60 162.50 147.72 163.61 Z M 147.83 164.61 L 147.94 165.61 C 148.06 166.72 149.06 167.52 150.18 167.40 C 151.29 167.27 152.09 166.27 151.97 165.16 L 151.86 164.16 C 151.73 163.05 150.73 162.25 149.62 162.37 C 148.50 162.50 147.70 163.50 147.83 164.61 Z M 147.94 165.61 L 148.05 166.61 C 148.18 167.72 149.19 168.52 150.30 168.39 C 151.42 168.26 152.21 167.25 152.08 166.14 L 151.97 165.15 C 151.84 164.03 150.83 163.24 149.72 163.36 C 148.61 163.49 147.81 164.50 147.94 165.61 Z M 148.05 166.62 L 148.17 167.61 C 148.31 168.72 149.32 169.51 150.43 169.38 C 151.54 169.24 152.34 168.23 152.20 167.12 L 152.08 166.13 C 151.95 165.02 150.94 164.22 149.83 164.36 C 148.71 164.49 147.92 165.50 148.05 166.62 Z M 148.17 167.61 L 148.30 168.61 C 148.44 169.72 149.45 170.51 150.56 170.37 C 151.67 170.23 152.46 169.22 152.33 168.11 L 152.20 167.11 C 152.06 166.00 151.05 165.21 149.94 165.35 C 148.82 165.49 148.04 166.50 148.17 167.61 Z M 148.30 168.62 L 148.43 169.61 C 148.57 170.72 149.59 171.51 150.70 171.37 C 151.81 171.23 152.59 170.21 152.45 169.10 L 152.32 168.10 C 152.18 166.99 151.17 166.20 150.05 166.35 C 148.94 166.49 148.16 167.50 148.30 168.62 Z M 148.43 169.62 L 148.56 170.61 C 148.70 171.73 149.72 172.51 150.83 172.36 C 151.95 172.22 152.73 171.20 152.58 170.09 L 152.45 169.09 C 152.31 167.98 151.29 167.20 150.17 167.34 C 149.06 167.49 148.28 168.51 148.43 169.62 Z M 148.56 170.62 L 148.69 171.61 C 148.84 172.72 149.86 173.50 150.97 173.35 C 152.08 173.20 152.86 172.18 152.71 171.07 L 152.58 170.08 C 152.43 168.97 151.41 168.19 150.30 168.34 C 149.19 168.49 148.41 169.51 148.56 170.62 Z M 148.69 171.62 L 148.83 172.60 C 148.98 173.72 150.00 174.49 151.11 174.34 C 152.22 174.19 153.00 173.16 152.85 172.05 L 152.71 171.07 C 152.56 169.96 151.54 169.18 150.43 169.33 C 149.32 169.48 148.54 170.51 148.69 171.62 Z M 148.83 172.61 L 148.97 173.60 C 149.12 174.71 150.15 175.48 151.26 175.33 C 152.37 175.17 153.14 174.15 152.99 173.04 L 152.85 172.05 C 152.69 170.94 151.67 170.17 150.56 170.32 C 149.45 170.47 148.67 171.50 148.83 172.61 Z M 148.97 173.61 L 149.11 174.60 C 149.27 175.71 150.29 176.48 151.40 176.32 C 152.51 176.17 153.28 175.14 153.13 174.03 L 152.99 173.04 C 152.83 171.93 151.80 171.15 150.69 171.31 C 149.58 171.47 148.81 172.50 148.97 173.61 Z M 149.11 174.60 L 149.25 175.60 C 149.41 176.70 150.44 177.47 151.55 177.31 C 152.66 177.15 153.43 176.13 153.27 175.02 L 153.13 174.03 C 152.97 172.92 151.94 172.15 150.83 172.31 C 149.72 172.47 148.95 173.50 149.11 174.60 Z M 149.25 175.60 L 149.40 176.59 C 149.56 177.69 150.59 178.46 151.70 178.30 C 152.81 178.14 153.57 177.11 153.41 176.00 L 153.27 175.01 C 153.11 173.90 152.08 173.14 150.97 173.30 C 149.86 173.46 149.09 174.49 149.25 175.60 Z M 149.40 176.59 L 149.54 177.57 C 149.71 178.68 150.74 179.45 151.85 179.28 C 152.96 179.12 153.72 178.09 153.56 176.98 L 153.41 176.00 C 153.25 174.89 152.22 174.12 151.11 174.29 C 150.00 174.45 149.23 175.48 149.40 176.59 Z M 149.54 177.58 L 149.69 178.56 C 149.86 179.67 150.89 180.44 152.00 180.27 C 153.11 180.10 153.87 179.07 153.70 177.96 L 153.56 176.98 C 153.39 175.87 152.36 175.11 151.25 175.27 C 150.14 175.44 149.38 176.47 149.54 177.58 Z M 149.69 178.57 L 149.84 179.55 C 150.01 180.66 151.04 181.42 152.15 181.26 C 153.26 181.09 154.02 180.06 153.85 178.95 L 153.70 177.96 C 153.54 176.85 152.50 176.09 151.40 176.26 C 150.29 176.42 149.52 177.46 149.69 178.57 Z M 149.84 179.56 L 149.99 180.55 C 150.16 181.65 151.20 182.41 152.30 182.25 C 153.41 182.08 154.17 181.04 154.00 179.94 L 153.85 178.95 C 153.68 177.84 152.65 177.08 151.54 177.25 C 150.43 177.41 149.67 178.45 149.84 179.56 Z M 149.99 180.55 L 150.15 181.54 C 150.32 182.65 151.35 183.41 152.46 183.24 C 153.56 183.07 154.32 182.03 154.15 180.92 L 154.00 179.93 C 153.83 178.83 152.80 178.07 151.69 178.24 C 150.58 178.41 149.82 179.44 149.99 180.55 Z M 150.15 181.54 L 150.30 182.54 C 150.47 183.64 151.51 184.40 152.62 184.23 C 153.72 184.05 154.48 183.02 154.31 181.91 L 154.15 180.92 C 153.98 179.81 152.94 179.06 151.84 179.23 C 150.73 179.40 149.97 180.44 150.15 181.54 Z M 150.30 182.54 L 150.46 183.53 C 150.63 184.64 151.67 185.39 152.78 185.22 C 153.88 185.04 154.64 184.00 154.46 182.90 L 154.31 181.91 C 154.13 180.80 153.09 180.05 151.99 180.22 C 150.88 180.40 150.13 181.43 150.30 182.54 Z M 150.46 183.54 L 150.62 184.53 C 150.80 185.63 151.84 186.38 152.94 186.21 C 154.05 186.03 154.80 184.99 154.62 183.88 L 154.46 182.89 C 154.28 181.79 153.24 181.04 152.14 181.22 C 151.03 181.39 150.28 182.43 150.46 183.54 Z M 150.62 184.53 L 150.79 185.52 C 150.97 186.62 152.01 187.37 153.11 187.19 C 154.22 187.01 154.96 185.96 154.78 184.86 L 154.62 183.88 C 154.44 182.77 153.39 182.03 152.29 182.21 C 151.19 182.39 150.44 183.43 150.62 184.53 Z M 150.79 185.53 L 150.95 186.51 C 151.14 187.61 152.18 188.35 153.29 188.16 C 154.39 187.98 155.13 186.93 154.94 185.83 L 154.78 184.85 C 154.59 183.75 153.55 183.01 152.45 183.19 C 151.34 183.38 150.60 184.43 150.79 185.53 Z M 150.96 186.52 L 151.13 187.51 C 151.32 188.61 152.37 189.35 153.47 189.15 C 154.57 188.96 155.31 187.91 155.11 186.81 L 154.94 185.82 C 154.75 184.72 153.70 183.98 152.60 184.18 C 151.50 184.37 150.76 185.42 150.96 186.52 Z M 151.13 187.52 L 151.31 188.51 C 151.51 189.61 152.56 190.34 153.66 190.14 C 154.75 189.95 155.49 188.90 155.29 187.80 L 155.11 186.80 C 154.92 185.71 153.86 184.97 152.77 185.17 C 151.67 185.37 150.93 186.42 151.13 187.52 Z M 151.31 188.52 L 151.49 189.50 C 151.69 190.60 152.74 191.33 153.84 191.13 C 154.94 190.93 155.67 189.87 155.47 188.78 L 155.29 187.79 C 155.09 186.69 154.03 185.96 152.94 186.17 C 151.84 186.37 151.11 187.42 151.31 188.52 Z M 151.49 189.51 L 151.68 190.49 C 151.88 191.59 152.93 192.31 154.03 192.11 C 155.13 191.90 155.85 190.85 155.65 189.75 L 155.47 188.77 C 155.26 187.67 154.21 186.95 153.11 187.15 C 152.01 187.36 151.29 188.41 151.49 189.51 Z M 151.68 190.49 L 151.86 191.47 C 152.07 192.57 153.12 193.29 154.22 193.08 C 155.32 192.88 156.04 191.82 155.83 190.73 L 155.65 189.75 C 155.44 188.65 154.38 187.93 153.29 188.14 C 152.19 188.34 151.47 189.40 151.68 190.49 Z M 151.86 191.47 L 152.05 192.45 C 152.26 193.54 153.31 194.26 154.41 194.06 C 155.50 193.85 156.22 192.79 156.01 191.70 L 155.83 190.72 C 155.62 189.63 154.57 188.91 153.47 189.12 C 152.37 189.32 151.66 190.38 151.86 191.47 Z M 152.05 192.45 L 152.23 193.43 C 152.44 194.52 153.50 195.24 154.59 195.03 C 155.69 194.82 156.41 193.77 156.20 192.67 L 156.01 191.70 C 155.80 190.60 154.75 189.88 153.65 190.09 C 152.56 190.30 151.84 191.36 152.05 192.45 Z M 152.23 193.42 L 152.42 194.39 C 152.62 195.48 153.68 196.20 154.77 195.99 C 155.87 195.79 156.59 194.73 156.38 193.64 L 156.20 192.67 C 155.99 191.58 154.93 190.86 153.84 191.07 C 152.75 191.27 152.03 192.33 152.23 193.42 Z M 152.42 194.38 L 152.60 195.35 C 152.81 196.44 153.86 197.16 154.95 196.96 C 156.05 196.75 156.77 195.70 156.56 194.60 L 156.38 193.64 C 156.17 192.54 155.12 191.82 154.02 192.03 C 152.93 192.24 152.21 193.29 152.42 194.38 Z M 152.60 195.35 L 152.78 196.32 C 152.99 197.41 154.04 198.13 155.13 197.93 C 156.23 197.72 156.95 196.67 156.74 195.58 L 156.56 194.61 C 156.35 193.51 155.30 192.79 154.21 193.00 C 153.12 193.20 152.40 194.26 152.60 195.35 Z M 152.78 196.32 L 152.97 197.30 C 153.17 198.39 154.22 199.11 155.31 198.91 C 156.41 198.70 157.13 197.65 156.92 196.56 L 156.74 195.58 C 156.54 194.49 155.49 193.77 154.39 193.97 C 153.30 194.17 152.58 195.23 152.78 196.32 Z M 152.97 197.30 L 153.15 198.29 C 153.35 199.38 154.40 200.10 155.50 199.90 C 156.59 199.69 157.31 198.64 157.11 197.55 L 156.92 196.56 C 156.72 195.47 155.67 194.75 154.58 194.95 C 153.49 195.15 152.76 196.20 152.97 197.30 Z M 153.15 198.28 L 153.34 199.29 C 153.54 200.38 154.59 201.10 155.68 200.90 C 156.77 200.70 157.49 199.65 157.29 198.56 L 157.11 197.55 C 156.90 196.46 155.86 195.74 154.76 195.94 C 153.67 196.14 152.95 197.19 153.15 198.28 Z M 153.34 199.28 L 153.52 200.28 C 153.72 201.37 154.77 202.10 155.86 201.90 C 156.95 201.70 157.67 200.65 157.47 199.56 L 157.29 198.56 C 157.09 197.47 156.04 196.75 154.95 196.95 C 153.86 197.15 153.14 198.19 153.34 199.28 Z M 153.52 200.28 L 153.70 201.23 C 153.89 202.33 154.94 203.05 156.03 202.85 C 157.12 202.65 157.84 201.61 157.64 200.52 L 157.47 199.56 C 157.27 198.47 156.23 197.75 155.14 197.95 C 154.05 198.15 153.32 199.19 153.52 200.28 Z M 153.70 201.23 L 153.87 202.20 C 154.07 203.29 155.11 204.01 156.20 203.81 C 157.29 203.62 158.01 202.57 157.82 201.49 L 157.64 200.52 C 157.45 199.43 156.40 198.71 155.31 198.90 C 154.22 199.10 153.50 200.14 153.70 201.23 Z M 153.87 202.20 L 154.05 203.18 C 154.25 204.26 155.29 204.99 156.38 204.79 C 157.46 204.59 158.19 203.55 157.99 202.46 L 157.82 201.49 C 157.62 200.40 156.58 199.68 155.49 199.87 C 154.40 200.07 153.68 201.11 153.87 202.20 Z M 154.05 203.17 L 154.23 204.16 C 154.43 205.25 155.47 205.97 156.55 205.78 C 157.64 205.58 158.36 204.54 158.17 203.45 L 157.99 202.47 C 157.79 201.38 156.75 200.66 155.67 200.85 C 154.58 201.05 153.86 202.09 154.05 203.17 Z M 154.23 204.16 L 154.41 205.16 C 154.61 206.24 155.65 206.96 156.73 206.77 C 157.82 206.57 158.54 205.54 158.34 204.45 L 158.16 203.45 C 157.97 202.37 156.93 201.65 155.85 201.84 C 154.76 202.04 154.04 203.08 154.23 204.16 Z M 154.42 205.16 L 154.60 206.16 C 154.79 207.24 155.83 207.96 156.91 207.77 C 158.00 207.57 158.72 206.54 158.52 205.45 L 158.34 204.45 C 158.15 203.37 157.11 202.65 156.02 202.84 C 154.94 203.04 154.22 204.07 154.42 205.16 Z M 154.60 206.16 L 154.78 207.17 C 154.98 208.25 156.01 208.97 157.10 208.78 C 158.18 208.58 158.90 207.54 158.70 206.46 L 158.52 205.45 C 158.32 204.37 157.29 203.65 156.20 203.85 C 155.12 204.04 154.40 205.08 154.60 206.16 Z M 154.78 207.17 L 154.97 208.19 C 155.17 209.27 156.20 209.99 157.28 209.79 C 158.36 209.59 159.08 208.56 158.88 207.48 L 158.70 206.46 C 158.50 205.38 157.47 204.66 156.39 204.86 C 155.31 205.05 154.59 206.09 154.78 207.17 Z M 154.97 208.19 L 155.16 209.21 C 155.36 210.29 156.39 211.00 157.47 210.81 C 158.55 210.61 159.26 209.57 159.07 208.50 L 158.88 207.48 C 158.68 206.40 157.65 205.68 156.57 205.88 C 155.49 206.08 154.78 207.11 154.97 208.19 Z M 155.16 209.21 L 155.35 210.22 C 155.55 211.30 156.58 212.01 157.66 211.81 C 158.73 211.62 159.45 210.58 159.25 209.51 L 159.06 208.49 C 158.86 207.42 157.83 206.71 156.75 206.90 C 155.68 207.10 154.97 208.13 155.16 209.21 Z M 155.35 210.22 L 155.54 211.22 C 155.73 212.30 156.77 213.01 157.84 212.81 C 158.92 212.61 159.63 211.58 159.43 210.51 L 159.24 209.51 C 159.05 208.43 158.01 207.72 156.94 207.92 C 155.86 208.12 155.15 209.15 155.35 210.22 Z M 155.54 211.22 L 155.72 212.21 C 155.92 213.28 156.95 213.99 158.02 213.79 C 159.10 213.59 159.81 212.56 159.61 211.49 L 159.42 210.50 C 159.23 209.43 158.20 208.72 157.12 208.92 C 156.05 209.12 155.34 210.15 155.54 211.22 Z M 155.73 212.21 L 155.90 213.17 C 156.10 214.24 157.13 214.94 158.20 214.74 C 159.28 214.55 159.98 213.52 159.78 212.44 L 159.60 211.49 C 159.40 210.42 158.37 209.71 157.30 209.91 C 156.23 210.11 155.53 211.14 155.73 212.21 Z M 155.91 213.17 L 156.08 214.10 C 156.28 215.17 157.31 215.87 158.38 215.67 C 159.45 215.47 160.15 214.44 159.95 213.37 L 159.78 212.44 C 159.58 211.37 158.55 210.67 157.48 210.87 C 156.41 211.07 155.71 212.10 155.91 213.17 Z M 156.09 214.10 L 156.27 215.10 C 156.48 216.16 157.50 216.86 158.57 216.66 C 159.64 216.46 160.34 215.43 160.14 214.37 L 159.95 213.37 C 159.75 212.30 158.72 211.60 157.65 211.80 C 156.59 212.01 155.88 213.03 156.09 214.10 Z M 156.28 215.10 L 156.47 216.12 C 156.68 217.19 157.70 217.89 158.77 217.68 C 159.83 217.48 160.53 216.45 160.33 215.39 L 160.13 214.36 C 159.93 213.30 158.90 212.60 157.84 212.80 C 156.77 213.01 156.08 214.03 156.28 215.10 Z M 156.48 216.13 L 156.67 217.11 C 156.87 218.18 157.90 218.87 158.96 218.67 C 160.02 218.47 160.72 217.44 160.51 216.38 L 160.32 215.39 C 160.12 214.33 159.09 213.63 158.03 213.83 C 156.97 214.04 156.27 215.06 156.48 216.13 Z M 156.67 217.12 L 156.86 218.08 C 157.06 219.14 158.09 219.83 159.14 219.63 C 160.20 219.43 160.90 218.40 160.69 217.34 L 160.51 216.38 C 160.30 215.32 159.28 214.62 158.22 214.83 C 157.16 215.03 156.47 216.06 156.67 217.12 Z M 156.86 218.08 L 157.04 219.03 C 157.25 220.09 158.27 220.78 159.33 220.58 C 160.39 220.37 161.08 219.35 160.87 218.29 L 160.69 217.34 C 160.49 216.28 159.46 215.59 158.41 215.80 C 157.35 216.00 156.66 217.02 156.86 218.08 Z M 157.05 219.03 L 157.23 219.98 C 157.43 221.03 158.45 221.72 159.51 221.52 C 160.56 221.32 161.26 220.30 161.05 219.24 L 160.87 218.29 C 160.67 217.24 159.65 216.55 158.59 216.75 C 157.54 216.95 156.85 217.97 157.05 219.03 Z M 157.23 219.98 L 157.42 220.92 C 157.62 221.98 158.64 222.67 159.69 222.46 C 160.74 222.26 161.43 221.24 161.23 220.19 L 161.05 219.24 C 160.85 218.19 159.83 217.50 158.78 217.70 C 157.72 217.91 157.03 218.92 157.23 219.98 Z M 157.42 220.92 L 157.60 221.87 C 157.80 222.92 158.82 223.61 159.87 223.41 C 160.92 223.21 161.61 222.19 161.41 221.14 L 161.23 220.19 C 161.03 219.14 160.01 218.45 158.96 218.65 C 157.91 218.85 157.22 219.87 157.42 220.92 Z M 157.60 221.86 L 157.79 222.83 C 157.98 223.88 158.99 224.57 160.04 224.37 C 161.09 224.17 161.78 223.16 161.59 222.11 L 161.40 221.15 C 161.21 220.10 160.20 219.41 159.15 219.61 C 158.10 219.80 157.41 220.81 157.60 221.86 Z M 157.79 222.82 L 157.97 223.80 C 158.16 224.85 159.17 225.54 160.22 225.35 C 161.26 225.15 161.96 224.15 161.76 223.10 L 161.58 222.12 C 161.39 221.07 160.38 220.38 159.34 220.57 C 158.29 220.77 157.60 221.77 157.79 222.82 Z M 157.97 223.79 L 158.15 224.79 C 158.34 225.83 159.34 226.53 160.39 226.34 C 161.43 226.15 162.13 225.15 161.94 224.11 L 161.76 223.11 C 161.57 222.06 160.57 221.37 159.53 221.56 C 158.48 221.74 157.78 222.74 157.97 223.79 Z M 158.15 224.78 L 158.33 225.79 C 158.51 226.84 159.51 227.54 160.55 227.35 C 161.60 227.17 162.30 226.18 162.11 225.13 L 161.94 224.12 C 161.76 223.07 160.76 222.37 159.72 222.56 C 158.67 222.74 157.97 223.73 158.15 224.78 Z M 158.33 225.78 L 158.50 226.79 C 158.68 227.84 159.67 228.54 160.71 228.37 C 161.75 228.19 162.46 227.20 162.28 226.16 L 162.11 225.15 C 161.94 224.10 160.95 223.40 159.91 223.57 C 158.86 223.75 158.16 224.74 158.33 225.78 Z M 158.50 226.78 L 158.66 227.76 C 158.83 228.80 159.81 229.51 160.85 229.34 C 161.90 229.17 162.61 228.19 162.44 227.15 L 162.28 226.17 C 162.11 225.13 161.13 224.42 160.09 224.59 C 159.05 224.76 158.34 225.74 158.50 226.78 Z M 158.66 227.75 L 158.82 228.73 C 158.98 229.78 159.96 230.49 161.00 230.33 C 162.04 230.16 162.76 229.19 162.59 228.14 L 162.44 227.16 C 162.27 226.11 161.30 225.40 160.25 225.56 C 159.21 225.73 158.50 226.70 158.66 227.75 Z M 158.82 228.73 L 158.97 229.72 C 159.13 230.76 160.10 231.48 161.15 231.32 C 162.19 231.16 162.90 230.19 162.74 229.14 L 162.59 228.15 C 162.43 227.11 161.46 226.39 160.42 226.55 C 159.37 226.71 158.66 227.69 158.82 228.73 Z M 158.97 229.72 L 159.12 230.71 C 159.28 231.75 160.25 232.47 161.29 232.31 C 162.33 232.16 163.05 231.19 162.89 230.14 L 162.74 229.15 C 162.58 228.11 161.61 227.39 160.57 227.55 C 159.53 227.71 158.81 228.68 158.97 229.72 Z M 159.12 230.71 L 159.27 231.71 C 159.43 232.75 160.40 233.46 161.44 233.31 C 162.48 233.15 163.20 232.18 163.04 231.14 L 162.89 230.15 C 162.73 229.11 161.76 228.39 160.72 228.55 C 159.68 228.70 158.97 229.67 159.12 230.71 Z M 159.28 231.71 L 159.43 232.70 C 159.58 233.74 160.55 234.45 161.59 234.30 C 162.63 234.14 163.34 233.17 163.19 232.13 L 163.04 231.14 C 162.88 230.10 161.91 229.39 160.87 229.54 C 159.84 229.70 159.12 230.67 159.28 231.71 Z M 159.43 232.70 L 159.58 233.71 C 159.74 234.75 160.71 235.46 161.74 235.30 C 162.78 235.15 163.49 234.18 163.34 233.14 L 163.18 232.13 C 163.02 231.09 162.06 230.38 161.02 230.54 C 159.98 230.70 159.27 231.66 159.43 232.70 Z M 159.59 233.71 L 159.74 234.74 C 159.90 235.77 160.87 236.48 161.90 236.32 C 162.94 236.16 163.65 235.19 163.49 234.16 L 163.33 233.14 C 163.17 232.10 162.21 231.39 161.17 231.55 C 160.14 231.71 159.43 232.68 159.59 233.71 Z M 159.75 234.74 L 159.90 235.74 C 160.06 236.78 161.03 237.48 162.06 237.32 C 163.09 237.16 163.80 236.20 163.64 235.17 L 163.49 234.16 C 163.33 233.13 162.36 232.42 161.33 232.58 C 160.29 232.74 159.59 233.70 159.75 234.74 Z M 159.91 235.74 L 160.06 236.74 C 160.22 237.77 161.18 238.47 162.22 238.31 C 163.25 238.15 163.95 237.19 163.79 236.16 L 163.64 235.17 C 163.48 234.14 162.51 233.43 161.48 233.59 C 160.45 233.75 159.75 234.71 159.91 235.74 Z M 160.06 236.73 L 160.21 237.71 C 160.37 238.74 161.34 239.44 162.36 239.28 C 163.39 239.12 164.10 238.16 163.94 237.13 L 163.79 236.16 C 163.63 235.13 162.67 234.43 161.64 234.58 C 160.61 234.74 159.91 235.71 160.06 236.73 Z M 160.22 237.71 L 160.36 238.66 C 160.52 239.69 161.48 240.40 162.51 240.24 C 163.53 240.08 164.24 239.12 164.08 238.10 L 163.94 237.14 C 163.78 236.11 162.82 235.41 161.79 235.56 C 160.77 235.72 160.06 236.68 160.22 237.71 Z M 160.37 238.66 L 160.51 239.62 C 160.67 240.64 161.62 241.35 162.65 241.19 C 163.67 241.04 164.38 240.08 164.22 239.06 L 164.08 238.10 C 163.92 237.08 162.97 236.37 161.94 236.52 C 160.92 236.68 160.21 237.63 160.37 238.66 Z M 160.51 239.61 L 160.66 240.61 C 160.81 241.63 161.76 242.34 162.79 242.19 C 163.81 242.04 164.52 241.09 164.37 240.06 L 164.22 239.06 C 164.07 238.04 163.12 237.33 162.09 237.48 C 161.07 237.63 160.36 238.59 160.51 239.61 Z M 160.66 240.60 L 160.81 241.59 C 160.95 242.61 161.90 243.32 162.92 243.17 C 163.94 243.03 164.65 242.08 164.50 241.06 L 164.36 240.07 C 164.22 239.05 163.27 238.34 162.25 238.49 C 161.23 238.63 160.52 239.58 160.66 240.60 Z M 160.81 241.58 L 160.94 242.56 C 161.09 243.58 162.03 244.29 163.05 244.15 C 164.07 244.01 164.78 243.07 164.64 242.05 L 164.50 241.07 C 164.36 240.05 163.42 239.34 162.40 239.48 C 161.38 239.62 160.67 240.56 160.81 241.58 Z M 160.95 242.55 L 161.08 243.53 C 161.22 244.55 162.15 245.27 163.17 245.13 C 164.19 244.99 164.90 244.06 164.77 243.04 L 164.63 242.06 C 164.50 241.04 163.56 240.32 162.54 240.46 C 161.53 240.60 160.81 241.53 160.95 242.55 Z M 161.08 243.53 L 161.21 244.52 C 161.34 245.53 162.27 246.25 163.29 246.12 C 164.31 245.99 165.02 245.06 164.89 244.04 L 164.76 243.05 C 164.63 242.03 163.70 241.31 162.68 241.45 C 161.67 241.58 160.95 242.51 161.08 243.53 Z M 161.21 244.51 L 161.34 245.50 C 161.46 246.52 162.39 247.24 163.40 247.11 C 164.42 246.98 165.14 246.06 165.01 245.04 L 164.89 244.05 C 164.76 243.03 163.84 242.31 162.82 242.44 C 161.81 242.57 161.09 243.49 161.21 244.51 Z M 161.34 245.49 L 161.46 246.49 C 161.58 247.50 162.50 248.22 163.52 248.10 C 164.53 247.98 165.25 247.06 165.13 246.05 L 165.01 245.05 C 164.89 244.04 163.97 243.32 162.96 243.44 C 161.94 243.56 161.22 244.48 161.34 245.49 Z M 161.47 246.48 L 161.58 247.48 C 161.70 248.49 162.61 249.22 163.62 249.10 C 164.63 248.99 165.36 248.07 165.24 247.06 L 165.12 246.06 C 165.01 245.05 164.09 244.32 163.08 244.44 C 162.07 244.56 161.35 245.47 161.47 246.48 Z M 161.59 247.48 L 161.70 248.48 C 161.81 249.49 162.72 250.21 163.72 250.10 C 164.73 249.99 165.46 249.08 165.35 248.08 L 165.23 247.07 C 165.12 246.06 164.22 245.34 163.21 245.45 C 162.20 245.56 161.48 246.47 161.59 247.48 Z M 161.70 248.47 L 161.81 249.47 C 161.92 250.48 162.82 251.20 163.82 251.10 C 164.83 250.99 165.55 250.09 165.45 249.09 L 165.34 248.09 C 165.24 247.08 164.33 246.35 163.33 246.46 C 162.33 246.57 161.60 247.47 161.70 248.47 Z M 161.81 249.46 L 161.91 250.45 C 162.01 251.45 162.91 252.18 163.91 252.08 C 164.91 251.98 165.64 251.08 165.54 250.08 L 165.44 249.10 C 165.34 248.09 164.45 247.36 163.45 247.46 C 162.44 247.56 161.71 248.46 161.81 249.46 Z M 161.92 250.43 L 162.01 251.43 C 162.11 252.43 162.99 253.17 163.99 253.07 C 164.99 252.98 165.73 252.09 165.63 251.09 L 165.54 250.09 C 165.44 249.09 164.56 248.36 163.56 248.45 C 162.56 248.55 161.82 249.44 161.92 250.43 Z M 162.02 251.42 L 162.11 252.46 C 162.20 253.46 163.07 254.19 164.07 254.11 C 165.07 254.02 165.80 253.14 165.72 252.14 L 165.63 251.11 C 165.54 250.11 164.66 249.37 163.66 249.46 C 162.67 249.55 161.93 250.43 162.02 251.42 Z M 162.11 252.45 L 162.19 253.46 C 162.27 254.45 163.15 255.19 164.14 255.11 C 165.13 255.03 165.87 254.16 165.79 253.17 L 165.71 252.16 C 165.63 251.16 164.76 250.42 163.77 250.50 C 162.77 250.58 162.03 251.45 162.11 252.45 Z M 162.20 253.45 L 162.27 254.44 C 162.35 255.43 163.21 256.17 164.20 256.10 C 165.19 256.02 165.94 255.16 165.86 254.17 L 165.79 253.18 C 165.72 252.19 164.85 251.45 163.86 251.52 C 162.87 251.59 162.13 252.46 162.20 253.45 Z M 162.28 254.42 L 162.34 255.40 C 162.41 256.38 163.27 257.13 164.25 257.06 C 165.24 257.00 165.99 256.14 165.92 255.15 L 165.86 254.18 C 165.79 253.19 164.93 252.45 163.95 252.51 C 162.96 252.58 162.21 253.44 162.28 254.42 Z M 162.35 255.38 L 162.41 256.34 C 162.47 257.33 163.32 258.08 164.30 258.01 C 165.29 257.95 166.04 257.11 165.98 256.12 L 165.92 255.16 C 165.86 254.18 165.01 253.43 164.02 253.49 C 163.04 253.55 162.29 254.40 162.35 255.38 Z M 162.42 256.33 L 162.47 257.37 C 162.53 258.35 163.37 259.10 164.35 259.05 C 165.33 258.99 166.08 258.15 166.03 257.17 L 165.97 256.13 C 165.91 255.15 165.07 254.40 164.09 254.45 C 163.11 254.51 162.36 255.35 162.42 256.33 Z M 162.48 257.36 L 162.53 258.39 C 162.58 259.36 163.42 260.12 164.39 260.07 C 165.37 260.02 166.12 259.18 166.07 258.21 L 166.02 257.18 C 165.97 256.20 165.14 255.45 164.16 255.50 C 163.18 255.55 162.43 256.38 162.48 257.36 Z M 162.54 258.38 L 162.59 259.38 C 162.63 260.35 163.46 261.11 164.43 261.06 C 165.40 261.02 166.16 260.19 166.11 259.22 L 166.07 258.21 C 166.02 257.24 165.20 256.49 164.22 256.53 C 163.25 256.58 162.50 257.40 162.54 258.38 Z M 162.60 259.37 L 162.64 260.35 C 162.68 261.32 163.49 262.07 164.46 262.03 C 165.43 261.99 166.18 261.17 166.14 260.21 L 166.10 259.23 C 166.06 258.26 165.25 257.51 164.28 257.55 C 163.31 257.59 162.56 258.40 162.60 259.37 Z M 162.64 260.34 L 162.68 261.29 C 162.71 262.25 163.52 263.00 164.49 262.97 C 165.45 262.93 166.21 262.12 166.17 261.16 L 166.14 260.21 C 166.10 259.25 165.29 258.50 164.33 258.53 C 163.36 258.57 162.61 259.38 162.64 260.34 Z M 162.69 261.28 L 162.72 262.36 C 162.75 263.32 163.55 264.08 164.51 264.05 C 165.47 264.02 166.23 263.21 166.20 262.25 L 166.16 261.17 C 166.13 260.21 165.33 259.45 164.37 259.49 C 163.41 259.52 162.66 260.32 162.69 261.28 Z M 162.73 262.36 L 162.76 263.39 C 162.78 264.34 163.58 265.09 164.53 265.07 C 165.49 265.04 166.24 264.25 166.22 263.29 L 166.19 262.26 C 166.16 261.31 165.37 260.55 164.41 260.58 C 163.46 260.60 162.70 261.40 162.73 262.36 Z M 162.76 263.38 L 162.79 264.35 C 162.81 265.30 163.60 266.06 164.55 266.03 C 165.50 266.01 166.25 265.22 166.23 264.27 L 166.21 263.30 C 166.19 262.35 165.40 261.59 164.44 261.62 C 163.49 261.64 162.74 262.43 162.76 263.38 Z M 162.80 264.35 L 162.82 265.27 C 162.84 266.21 163.62 266.96 164.57 266.94 C 165.52 266.92 166.27 266.14 166.24 265.19 L 166.22 264.27 C 166.20 263.33 165.42 262.58 164.47 262.60 C 163.52 262.62 162.78 263.40 162.80 264.35 Z M 162.83 265.27 L 162.85 266.33 C 162.87 267.27 163.65 268.02 164.59 268.00 C 165.53 267.97 166.28 267.19 166.26 266.25 L 166.24 265.19 C 166.21 264.25 165.43 263.50 164.49 263.52 C 163.55 263.54 162.80 264.32 162.83 265.27 Z M 162.86 266.33 L 162.88 267.33 C 162.90 268.27 163.67 269.01 164.61 268.99 C 165.55 268.97 166.29 268.20 166.27 267.26 L 166.25 266.25 C 166.23 265.32 165.46 264.57 164.52 264.59 C 163.58 264.61 162.84 265.39 162.86 266.33 Z M 162.89 267.33 L 162.91 268.27 C 162.92 269.21 163.69 269.95 164.62 269.93 C 165.55 269.92 166.30 269.15 166.28 268.22 L 166.26 267.27 C 166.25 266.33 165.48 265.59 164.55 265.61 C 163.61 265.62 162.87 266.39 162.89 267.33 Z M 162.91 268.26 L 162.92 269.24 C 162.93 270.17 163.69 270.92 164.62 270.91 C 165.55 270.90 166.29 270.14 166.28 269.21 L 166.27 268.23 C 166.26 267.30 165.50 266.56 164.57 266.57 C 163.65 266.58 162.90 267.34 162.91 268.26 Z M 162.93 269.23 L 162.93 270.23 C 162.94 271.15 163.69 271.89 164.62 271.89 C 165.54 271.89 166.28 271.13 166.28 270.21 L 166.28 269.22 C 166.27 268.29 165.52 267.55 164.60 267.55 C 163.67 267.56 162.93 268.31 162.93 269.23 Z M 162.94 270.22 L 162.94 271.22 C 162.94 272.14 163.69 272.88 164.61 272.88 C 165.53 272.88 166.28 272.14 166.28 271.21 L 166.27 270.22 C 166.27 269.30 165.53 268.55 164.61 268.55 C 163.69 268.55 162.94 269.30 162.94 270.22 Z M 162.95 271.22 L 162.95 272.22 C 162.95 273.14 163.69 273.89 164.61 273.89 C 165.53 273.89 166.27 273.14 166.27 272.22 L 166.27 271.22 C 166.27 270.30 165.53 269.55 164.61 269.55 C 163.69 269.55 162.95 270.30 162.95 271.22 Z M 162.95 272.22 L 162.95 273.24 C 162.95 274.15 163.69 274.90 164.61 274.90 C 165.52 274.90 166.27 274.15 166.27 273.24 L 166.27 272.22 C 166.27 271.31 165.52 270.56 164.61 270.56 C 163.69 270.56 162.95 271.31 162.95 272.22 Z M 162.95 273.24 L 162.95 274.23 C 162.95 275.14 163.69 275.89 164.61 275.89 C 165.52 275.89 166.27 275.14 166.27 274.23 L 166.27 273.24 C 166.27 272.32 165.52 271.58 164.61 271.58 C 163.69 271.58 162.95 272.32 162.95 273.24 Z M 162.95 274.23 L 162.95 275.26 C 162.95 276.17 163.69 276.91 164.61 276.91 C 165.52 276.91 166.26 276.17 166.26 275.26 L 166.26 274.23 C 166.26 273.31 165.52 272.57 164.61 272.57 C 163.69 272.57 162.95 273.31 162.95 274.23 Z M 162.96 275.26 L 162.96 276.25 C 162.96 277.16 163.70 277.90 164.61 277.90 C 165.52 277.90 166.26 277.16 166.26 276.25 L 166.26 275.26 C 166.26 274.34 165.52 273.60 164.61 273.60 C 163.70 273.60 162.96 274.34 162.96 275.26 Z M 162.96 276.25 L 162.96 277.08 C 162.96 277.99 163.70 278.73 164.61 278.73 C 165.52 278.73 166.26 277.99 166.26 277.08 L 166.26 276.25 C 166.26 275.34 165.52 274.60 164.61 274.60 C 163.70 274.60 162.96 275.34 162.96 276.25 Z"
      fill="black"
      fill-rule="nonzero" /></svg>