<svg xmlns="http://www.w3.org/2000/svg" width="300" height="300" viewBox="0 0 300 300">
<path d="M 152.18 85.73 L 152.18 84.73 C 152.18 83.93 151.53 83.29 150.74 83.29 C 149.95 83.29 149.30 83.93 149.30 84.73 L 149.30 85.73 C 149.30 86.53 149.95 87.17 150.74 87.17 C 151.53 87.17 152.18 86.53 152.18 85.73 Z M 152.18 84.73 L 152.18 83.77 C 152.18 82.97 151.54 82.33 150.74 82.33 C 149.94 82.33 149.30 82.97 149.30 83.77 L 149.30 84.73 C 149.30 85.52 149.94 86.17 150.74 86.17 C 151.54 86.17 152.18 85.52 152.18 84.73 Z M 152.19 83.75 L 152.18 82.80 C 152.17 82.00 151.51 81.36 150.71 81.37 C 149.91 81.38 149.27 82.04 149.28 82.84 L 149.29 83.79 C 149.30 84.59 149.96 85.23 150.76 85.22 C 151.56 85.21 152.20 84.55 152.19 83.75 Z M 152.20 82.76 L 152.14 81.55 C 152.11 80.74 151.42 80.11 150.61 80.15 C 149.80 80.18 149.17 80.87 149.21 81.68 L 149.26 82.88 C 149.29 83.70 149.98 84.32 150.79 84.29 C 151.60 84.25 152.23 83.57 152.20 82.76 Z M 152.18 81.55 L 152.13 80.42 C 152.10 79.59 151.39 78.94 150.56 78.98 C 149.73 79.01 149.09 79.71 149.12 80.55 L 149.17 81.68 C 149.21 82.51 149.91 83.15 150.74 83.12 C 151.57 83.08 152.22 82.38 152.18 81.55 Z M 151.98 81.24 L 152.06 81.09 C 152.48 80.34 152.22 79.40 151.48 78.98 C 150.73 78.56 149.78 78.82 149.36 79.56 L 149.28 79.72 C 148.86 80.46 149.12 81.41 149.86 81.83 C 150.61 82.25 151.56 81.99 151.98 81.24 Z M 149.16 80.64 L 149.39 81.77 C 149.57 82.62 150.40 83.18 151.26 83.00 C 152.12 82.83 152.67 81.99 152.49 81.13 L 152.27 80.01 C 152.09 79.15 151.25 78.60 150.40 78.77 C 149.54 78.95 148.99 79.79 149.16 80.64 Z M 149.35 81.66 L 149.50 82.80 C 149.61 83.68 150.42 84.30 151.30 84.18 C 152.18 84.07 152.79 83.27 152.68 82.39 L 152.53 81.24 C 152.42 80.37 151.61 79.75 150.74 79.86 C 149.86 79.97 149.24 80.78 149.35 81.66 Z M 149.48 82.73 L 149.57 83.71 C 149.64 84.60 150.42 85.26 151.31 85.19 C 152.19 85.11 152.85 84.33 152.78 83.45 L 152.70 82.46 C 152.62 81.57 151.84 80.91 150.96 80.99 C 150.07 81.06 149.41 81.84 149.48 82.73 Z M 149.56 83.68 L 149.62 84.67 C 149.67 85.56 150.44 86.24 151.33 86.18 C 152.22 86.13 152.90 85.36 152.85 84.47 L 152.79 83.48 C 152.73 82.59 151.97 81.91 151.07 81.97 C 150.18 82.02 149.51 82.79 149.56 83.68 Z M 149.62 84.65 L 149.66 85.62 C 149.71 86.51 150.47 87.20 151.36 87.15 C 152.25 87.11 152.94 86.35 152.90 85.46 L 152.85 84.49 C 152.81 83.60 152.05 82.91 151.15 82.95 C 150.26 83.00 149.57 83.76 149.62 84.65 Z M 149.66 85.61 L 149.70 86.56 C 149.74 87.46 150.50 88.15 151.39 88.11 C 152.29 88.07 152.98 87.31 152.94 86.42 L 152.90 85.47 C 152.86 84.57 152.10 83.88 151.21 83.92 C 150.32 83.96 149.62 84.71 149.66 85.61 Z M 149.70 86.55 L 149.74 87.59 C 149.78 88.49 150.53 89.18 151.43 89.15 C 152.32 89.11 153.02 88.36 152.99 87.46 L 152.94 86.43 C 152.91 85.53 152.15 84.83 151.26 84.87 C 150.36 84.90 149.66 85.66 149.70 86.55 Z M 149.74 87.58 L 149.77 88.54 C 149.80 89.44 150.55 90.14 151.45 90.11 C 152.35 90.08 153.05 89.33 153.02 88.43 L 152.99 87.47 C 152.96 86.57 152.21 85.87 151.31 85.90 C 150.41 85.93 149.70 86.68 149.74 87.58 Z M 149.76 88.53 L 149.78 89.56 C 149.81 90.46 150.56 91.18 151.46 91.16 C 152.37 91.13 153.08 90.38 153.06 89.48 L 153.03 88.45 C 153.01 87.54 152.26 86.83 151.36 86.85 C 150.45 86.87 149.74 87.62 149.76 88.53 Z M 149.78 89.54 L 149.79 90.50 C 149.80 91.41 150.54 92.14 151.45 92.13 C 152.36 92.12 153.09 91.38 153.08 90.47 L 153.07 89.50 C 153.06 88.59 152.31 87.86 151.40 87.87 C 150.49 87.88 149.77 88.63 149.78 89.54 Z M 149.78 90.49 L 149.78 91.50 C 149.78 92.41 150.53 93.15 151.44 93.15 C 152.36 93.14 153.09 92.40 153.09 91.49 L 153.09 90.48 C 153.09 89.57 152.34 88.83 151.43 88.83 C 150.51 88.83 149.77 89.58 149.78 90.49 Z M 149.77 91.49 L 149.77 92.50 C 149.77 93.42 150.52 94.16 151.44 94.16 C 152.36 94.16 153.10 93.42 153.10 92.50 L 153.10 91.49 C 153.10 90.57 152.35 89.83 151.44 89.83 C 150.52 89.83 149.77 90.57 149.77 91.49 Z M 149.76 92.50 L 149.76 93.46 C 149.76 94.39 150.51 95.14 151.44 95.14 C 152.36 95.14 153.11 94.39 153.11 93.46 L 153.11 92.50 C 153.11 91.57 152.36 90.83 151.44 90.83 C 150.51 90.83 149.76 91.57 149.76 92.50 Z M 149.75 93.46 L 149.75 94.49 C 149.75 95.42 150.51 96.17 151.44 96.17 C 152.36 96.17 153.12 95.42 153.12 94.49 L 153.12 93.46 C 153.12 92.54 152.36 91.78 151.44 91.78 C 150.51 91.78 149.75 92.54 149.75 93.46 Z M 149.75 94.49 L 149.75 95.50 C 149.75 96.43 150.50 97.19 151.44 97.19 C 152.37 97.19 153.12 96.43 153.12 95.50 L 153.12 94.49 C 153.12 93.56 152.37 92.80 151.44 92.80 C 150.50 92.80 149.75 93.56 149.75 94.49 Z M 149.74 95.50 L 149.74 96.47 C 149.74 97.40 150.50 98.16 151.44 98.16 C 152.37 98.16 153.13 97.40 153.13 96.47 L 153.13 95.50 C 153.13 94.56 152.37 93.81 151.44 93.81 C 150.50 93.81 149.74 94.56 149.74 95.50 Z M 149.74 96.47 L 149.74 97.48 C 149.74 98.41 150.50 99.17 151.44 99.17 C 152.37 99.17 153.13 98.41 153.13 97.48 L 153.13 96.47 C 153.13 95.53 152.37 94.77 151.44 94.77 C 150.50 94.77 149.74 95.53 149.74 96.47 Z M 149.74 97.48 L 149.74 98.53 C 149.74 99.46 150.50 100.22 151.44 100.22 C 152.37 100.22 153.13 99.46 153.13 98.53 L 153.13 97.48 C 153.13 96.54 152.37 95.78 151.44 95.78 C 150.50 95.78 149.74 96.54 149.74 97.48 Z M 149.74 98.53 L 149.74 99.48 C 149.74 100.42 150.50 101.18 151.44 101.18 C 152.37 101.18 153.13 100.42 153.13 99.48 L 153.13 98.53 C 153.13 97.59 152.37 96.83 151.44 96.83 C 150.50 96.83 149.74 97.59 149.74 98.53 Z M 149.73 99.48 L 149.73 100.47 C 149.73 101.41 150.50 102.17 151.44 102.17 C 152.38 102.17 153.14 101.41 153.14 100.47 L 153.14 99.48 C 153.14 98.54 152.38 97.78 151.44 97.78 C 150.50 97.78 149.73 98.54 149.73 99.48 Z M 149.73 100.47 L 149.73 101.48 C 149.73 102.42 150.49 103.19 151.44 103.19 C 152.38 103.19 153.14 102.42 153.14 101.48 L 153.14 100.47 C 153.14 99.52 152.38 98.76 151.44 98.76 C 150.49 98.76 149.73 99.52 149.73 100.47 Z M 149.73 101.48 L 149.73 102.52 C 149.73 103.47 150.49 104.23 151.44 104.23 C 152.38 104.23 153.14 103.47 153.14 102.52 L 153.14 101.48 C 153.14 100.54 152.38 99.77 151.44 99.77 C 150.49 99.77 149.73 100.54 149.73 101.48 Z M 149.72 102.52 L 149.72 103.48 C 149.72 104.42 150.49 105.19 151.44 105.19 C 152.38 105.19 153.15 104.42 153.15 103.48 L 153.15 102.52 C 153.15 101.58 152.38 100.81 151.44 100.81 C 150.49 100.81 149.72 101.58 149.72 102.52 Z M 149.72 103.48 L 149.72 104.46 C 149.72 105.41 150.49 106.17 151.44 106.17 C 152.38 106.17 153.15 105.41 153.15 104.46 L 153.15 103.48 C 153.15 102.53 152.38 101.76 151.44 101.76 C 150.49 101.76 149.72 102.53 149.72 103.48 Z M 149.71 104.46 L 149.71 105.46 C 149.71 106.42 150.48 107.19 151.44 107.19 C 152.39 107.19 153.16 106.42 153.16 105.46 L 153.16 104.46 C 153.16 103.50 152.39 102.73 151.44 102.73 C 150.48 102.73 149.71 103.50 149.71 104.46 Z M 149.71 105.46 L 149.71 106.50 C 149.71 107.46 150.48 108.23 151.44 108.23 C 152.39 108.23 153.17 107.46 153.17 106.50 L 153.17 105.46 C 153.17 104.51 152.39 103.74 151.44 103.74 C 150.48 103.74 149.71 104.51 149.71 105.46 Z M 149.70 106.50 L 149.70 107.52 C 149.70 108.48 150.48 109.25 151.44 109.25 C 152.39 109.25 153.17 108.48 153.17 107.52 L 153.17 106.50 C 153.17 105.55 152.39 104.77 151.44 104.77 C 150.48 104.77 149.70 105.55 149.70 106.50 Z M 149.70 107.52 L 149.70 108.52 C 149.70 109.48 150.48 110.26 151.44 110.26 C 152.40 110.26 153.17 109.48 153.17 108.52 L 153.17 107.52 C 153.17 106.56 152.40 105.78 151.44 105.78 C 150.48 105.78 149.70 106.56 149.70 107.52 Z M 149.69 108.52 L 149.69 109.53 C 149.69 110.49 150.47 111.27 151.44 111.27 C 152.40 111.27 153.18 110.49 153.18 109.53 L 153.18 108.52 C 153.18 107.55 152.40 106.77 151.44 106.77 C 150.47 106.77 149.69 107.55 149.69 108.52 Z M 149.69 109.53 L 149.69 110.53 C 149.69 111.50 150.47 112.28 151.44 112.28 C 152.40 112.28 153.18 111.50 153.18 110.53 L 153.18 109.53 C 153.18 108.56 152.40 107.78 151.44 107.78 C 150.47 107.78 149.69 108.56 149.69 109.53 Z M 149.69 110.53 L 149.69 111.53 C 149.69 112.50 150.47 113.28 151.44 113.28 C 152.40 113.28 153.19 112.50 153.19 111.53 L 153.19 110.53 C 153.19 109.57 152.40 108.78 151.44 108.78 C 150.47 108.78 149.69 109.57 149.69 110.53 Z M 149.68 111.53 L 149.68 112.54 C 149.68 113.51 150.47 114.29 151.44 114.29 C 152.40 114.29 153.19 113.51 153.19 112.54 L 153.19 111.53 C 153.19 110.56 152.40 109.78 151.44 109.78 C 150.47 109.78 149.68 110.56 149.68 111.53 Z M 149.68 112.54 L 149.68 113.54 C 149.68 114.51 150.47 115.30 151.44 115.30 C 152.41 115.30 153.19 114.51 153.19 113.54 L 153.19 112.54 C 153.19 111.57 152.41 110.78 151.43 110.78 C 150.46 110.78 149.68 111.57 149.68 112.54 Z M 149.68 113.54 L 149.68 114.54 C 149.68 115.51 150.47 116.30 151.44 116.29 C 152.41 116.29 153.20 115.50 153.20 114.53 L 153.20 113.54 C 153.19 112.57 152.41 111.78 151.43 111.78 C 150.46 111.78 149.67 112.57 149.68 113.54 Z M 149.67 114.54 L 149.68 115.53 C 149.68 116.51 150.47 117.29 151.45 117.29 C 152.42 117.29 153.21 116.49 153.20 115.52 L 153.20 114.53 C 153.20 113.55 152.41 112.77 151.43 112.77 C 150.46 112.77 149.67 113.57 149.67 114.54 Z M 149.68 115.54 L 149.68 116.54 C 149.69 117.51 150.48 118.30 151.46 118.29 C 152.43 118.29 153.22 117.49 153.21 116.52 L 153.21 115.52 C 153.20 114.54 152.41 113.75 151.43 113.76 C 150.46 113.77 149.67 114.56 149.68 115.54 Z M 149.68 116.54 L 149.69 117.52 C 149.70 118.49 150.50 119.28 151.47 119.27 C 152.45 119.26 153.23 118.46 153.23 117.49 L 153.22 116.51 C 153.21 115.54 152.41 114.75 151.43 114.76 C 150.46 114.77 149.67 115.57 149.68 116.54 Z M 149.69 117.52 L 149.70 118.51 C 149.71 119.49 150.51 120.27 151.49 120.26 C 152.47 120.25 153.25 119.45 153.24 118.47 L 153.23 117.48 C 153.22 116.50 152.41 115.72 151.44 115.73 C 150.46 115.74 149.68 116.54 149.69 117.52 Z M 149.70 118.51 L 149.71 119.52 C 149.72 120.49 150.53 121.28 151.51 121.26 C 152.48 121.25 153.27 120.45 153.25 119.47 L 153.24 118.47 C 153.23 117.49 152.42 116.71 151.44 116.72 C 150.47 116.73 149.68 117.54 149.70 118.51 Z M 149.71 119.52 L 149.72 120.53 C 149.74 121.51 150.54 122.29 151.52 122.28 C 152.50 122.26 153.29 121.46 153.27 120.48 L 153.26 119.47 C 153.24 118.49 152.44 117.70 151.46 117.72 C 150.48 117.73 149.69 118.54 149.71 119.52 Z M 149.72 120.53 L 149.74 121.55 C 149.75 122.53 150.56 123.32 151.54 123.30 C 152.52 123.29 153.30 122.48 153.29 121.50 L 153.27 120.48 C 153.26 119.50 152.45 118.72 151.47 118.73 C 150.49 118.75 149.71 119.55 149.72 120.53 Z M 149.74 121.56 L 149.75 122.55 C 149.77 123.53 150.58 124.31 151.56 124.29 C 152.54 124.28 153.32 123.47 153.31 122.49 L 153.29 121.50 C 153.27 120.52 152.47 119.73 151.48 119.75 C 150.50 119.77 149.72 120.57 149.74 121.56 Z M 149.75 122.55 L 149.77 123.54 C 149.78 124.52 150.59 125.31 151.58 125.29 C 152.56 125.28 153.34 124.47 153.33 123.48 L 153.31 122.49 C 153.29 121.50 152.48 120.72 151.50 120.74 C 150.52 120.75 149.73 121.56 149.75 122.55 Z M 149.77 123.54 L 149.78 124.54 C 149.80 125.53 150.61 126.31 151.59 126.29 C 152.58 126.28 153.36 125.47 153.34 124.48 L 153.33 123.48 C 153.31 122.50 152.50 121.72 151.52 121.73 C 150.53 121.75 149.75 122.56 149.77 123.54 Z M 149.78 124.54 L 149.80 125.55 C 149.81 126.53 150.62 127.32 151.61 127.30 C 152.59 127.29 153.38 126.47 153.36 125.49 L 153.35 124.48 C 153.33 123.50 152.52 122.72 151.53 122.73 C 150.55 122.75 149.76 123.56 149.78 124.54 Z M 149.80 125.55 L 149.81 126.56 C 149.83 127.54 150.64 128.33 151.62 128.31 C 152.61 128.30 153.40 127.48 153.38 126.50 L 153.36 125.49 C 153.35 124.51 152.54 123.72 151.55 123.73 C 150.57 123.75 149.78 124.56 149.80 125.55 Z M 149.81 126.55 L 149.82 127.56 C 149.84 128.55 150.65 129.34 151.64 129.32 C 152.63 129.30 153.41 128.49 153.40 127.51 L 153.38 126.50 C 153.37 125.51 152.55 124.73 151.57 124.74 C 150.58 124.76 149.79 125.57 149.81 126.55 Z M 149.82 127.56 L 149.84 128.57 C 149.85 129.55 150.67 130.34 151.65 130.33 C 152.64 130.31 153.43 129.50 153.41 128.51 L 153.40 127.51 C 153.38 126.52 152.57 125.73 151.58 125.75 C 150.60 125.76 149.81 126.57 149.82 127.56 Z M 149.84 128.57 L 149.85 129.57 C 149.87 130.56 150.68 131.35 151.67 131.33 C 152.66 131.32 153.45 130.50 153.43 129.52 L 153.42 128.51 C 153.40 127.52 152.59 126.73 151.60 126.75 C 150.61 126.76 149.82 127.58 149.84 128.57 Z M 149.85 129.57 L 149.86 130.57 C 149.88 131.55 150.69 132.35 151.68 132.33 C 152.67 132.32 153.46 131.50 153.45 130.51 L 153.43 129.52 C 153.42 128.53 152.60 127.74 151.62 127.75 C 150.63 127.76 149.84 128.58 149.85 129.57 Z M 149.86 130.57 L 149.88 131.55 C 149.89 132.55 150.71 133.34 151.70 133.32 C 152.69 133.31 153.48 132.49 153.46 131.50 L 153.45 130.51 C 153.43 129.52 152.62 128.73 151.63 128.75 C 150.64 128.76 149.85 129.57 149.86 130.57 Z M 149.87 131.56 L 149.89 132.57 C 149.90 133.56 150.72 134.35 151.71 134.33 C 152.70 134.32 153.50 133.50 153.48 132.51 L 153.47 131.50 C 153.45 130.51 152.64 129.72 151.64 129.73 C 150.65 129.75 149.86 130.56 149.87 131.56 Z M 149.89 132.57 L 149.90 133.57 C 149.92 134.57 150.74 135.36 151.73 135.34 C 152.72 135.33 153.51 134.51 153.50 133.52 L 153.48 132.51 C 153.47 131.52 152.65 130.73 151.66 130.74 C 150.66 130.76 149.87 131.58 149.89 132.57 Z M 149.90 133.58 L 149.92 134.58 C 149.94 135.57 150.76 136.36 151.75 136.34 C 152.75 136.33 153.54 135.50 153.52 134.51 L 153.50 133.51 C 153.48 132.52 152.66 131.73 151.67 131.75 C 150.67 131.76 149.88 132.59 149.90 133.58 Z M 149.92 134.59 L 149.94 135.58 C 149.96 136.57 150.79 137.36 151.78 137.34 C 152.78 137.32 153.57 136.49 153.54 135.50 L 153.52 134.50 C 153.50 133.51 152.67 132.72 151.68 132.74 C 150.68 132.77 149.90 133.59 149.92 134.59 Z M 149.94 135.59 L 149.97 136.58 C 150.00 137.57 150.82 138.36 151.82 138.33 C 152.82 138.30 153.60 137.47 153.57 136.48 L 153.55 135.49 C 153.52 134.49 152.69 133.71 151.69 133.73 C 150.70 133.76 149.91 134.59 149.94 135.59 Z M 149.97 136.59 L 150.00 137.64 C 150.04 138.63 150.87 139.41 151.87 139.38 C 152.87 139.34 153.65 138.51 153.61 137.51 L 153.58 136.46 C 153.54 135.47 152.71 134.69 151.71 134.72 C 150.71 134.76 149.93 135.59 149.97 136.59 Z M 150.00 137.65 L 150.04 138.68 C 150.08 139.68 150.92 140.46 151.92 140.42 C 152.92 140.38 153.70 139.54 153.66 138.54 L 153.61 137.50 C 153.57 136.50 152.73 135.73 151.73 135.77 C 150.74 135.81 149.96 136.65 150.00 137.65 Z M 150.04 138.69 L 150.08 139.70 C 150.13 140.70 150.97 141.47 151.97 141.43 C 152.97 141.38 153.75 140.54 153.70 139.54 L 153.66 138.53 C 153.61 137.53 152.77 136.76 151.77 136.80 C 150.77 136.85 149.99 137.69 150.04 138.69 Z M 150.08 139.70 L 150.13 140.67 C 150.17 141.67 151.02 142.44 152.02 142.39 C 153.02 142.35 153.80 141.50 153.75 140.50 L 153.70 139.53 C 153.66 138.53 152.81 137.76 151.81 137.81 C 150.81 137.85 150.03 138.70 150.08 139.70 Z M 150.12 140.67 L 150.17 141.64 C 150.22 142.64 151.07 143.42 152.07 143.37 C 153.07 143.32 153.84 142.47 153.80 141.47 L 153.75 140.50 C 153.70 139.50 152.85 138.72 151.85 138.77 C 150.85 138.82 150.08 139.67 150.12 140.67 Z M 150.17 141.64 L 150.22 142.70 C 150.26 143.71 151.11 144.48 152.12 144.43 C 153.12 144.39 153.90 143.54 153.85 142.53 L 153.80 141.47 C 153.75 140.47 152.90 139.69 151.90 139.74 C 150.89 139.79 150.12 140.64 150.17 141.64 Z M 150.22 142.71 L 150.27 143.70 C 150.32 144.70 151.17 145.47 152.17 145.42 C 153.18 145.37 153.95 144.52 153.90 143.51 L 153.85 142.53 C 153.80 141.52 152.94 140.75 151.94 140.80 C 150.94 140.85 150.16 141.71 150.22 142.71 Z M 150.26 143.71 L 150.32 144.65 C 150.38 145.65 151.24 146.42 152.24 146.36 C 153.25 146.30 154.01 145.44 153.95 144.44 L 153.90 143.50 C 153.84 142.49 152.98 141.73 151.98 141.79 C 150.97 141.85 150.21 142.71 150.26 143.71 Z M 150.32 144.67 L 150.39 145.65 C 150.46 146.65 151.33 147.41 152.34 147.33 C 153.34 147.26 154.10 146.39 154.02 145.39 L 153.95 144.41 C 153.88 143.41 153.01 142.65 152.01 142.73 C 151.00 142.80 150.25 143.67 150.32 144.67 Z M 150.39 145.67 L 150.47 146.66 C 150.55 147.66 151.43 148.41 152.44 148.33 C 153.44 148.24 154.19 147.36 154.11 146.36 L 154.02 145.37 C 153.94 144.36 153.06 143.62 152.06 143.70 C 151.05 143.78 150.31 144.66 150.39 145.67 Z M 150.47 146.67 L 150.56 147.66 C 150.64 148.66 151.53 149.41 152.53 149.32 C 153.53 149.24 154.28 148.35 154.19 147.35 L 154.11 146.35 C 154.02 145.35 153.14 144.61 152.13 144.69 C 151.13 144.78 150.39 145.66 150.47 146.67 Z M 150.56 147.65 L 150.64 148.64 C 150.72 149.65 151.60 150.40 152.60 150.31 C 153.61 150.23 154.35 149.35 154.27 148.35 L 154.19 147.36 C 154.11 146.35 153.23 145.61 152.23 145.69 C 151.22 145.77 150.47 146.65 150.56 147.65 Z M 150.64 148.63 L 150.71 149.61 C 150.78 150.62 151.66 151.37 152.66 151.30 C 153.67 151.22 154.42 150.35 154.35 149.34 L 154.27 148.36 C 154.20 147.36 153.32 146.60 152.32 146.68 C 151.31 146.75 150.56 147.63 150.64 148.63 Z M 150.71 149.61 L 150.78 150.61 C 150.85 151.61 151.73 152.37 152.73 152.30 C 153.73 152.22 154.49 151.35 154.42 150.35 L 154.35 149.35 C 154.27 148.34 153.40 147.59 152.40 147.66 C 151.39 147.73 150.64 148.60 150.71 149.61 Z M 150.78 150.61 L 150.86 151.63 C 150.93 152.63 151.80 153.39 152.81 153.31 C 153.81 153.24 154.57 152.36 154.49 151.36 L 154.42 150.34 C 154.34 149.34 153.47 148.59 152.47 148.66 C 151.46 148.73 150.71 149.61 150.78 150.61 Z M 150.86 151.64 L 150.93 152.62 C 151.01 153.62 151.89 154.37 152.89 154.29 C 153.90 154.21 154.65 153.34 154.57 152.33 L 154.49 151.35 C 154.41 150.35 153.54 149.60 152.53 149.68 C 151.53 149.76 150.78 150.63 150.86 151.64 Z M 150.94 152.62 L 151.02 153.61 C 151.10 154.61 151.97 155.36 152.98 155.28 C 153.98 155.20 154.73 154.32 154.64 153.32 L 154.57 152.33 C 154.48 151.33 153.61 150.58 152.60 150.66 C 151.60 150.74 150.86 151.62 150.94 152.62 Z M 151.02 153.61 L 151.10 154.62 C 151.18 155.62 152.05 156.36 153.05 156.29 C 154.05 156.21 154.80 155.33 154.72 154.33 L 154.64 153.32 C 154.56 152.32 153.69 151.57 152.69 151.65 C 151.69 151.73 150.94 152.61 151.02 153.61 Z M 151.10 154.61 L 151.17 155.61 C 151.25 156.61 152.12 157.36 153.12 157.29 C 154.12 157.21 154.87 156.34 154.80 155.34 L 154.72 154.34 C 154.65 153.34 153.77 152.59 152.77 152.66 C 151.77 152.74 151.02 153.61 151.10 154.61 Z M 151.17 155.60 L 151.24 156.58 C 151.31 157.58 152.18 158.34 153.18 158.27 C 154.18 158.20 154.93 157.33 154.86 156.33 L 154.80 155.35 C 154.73 154.35 153.86 153.60 152.86 153.67 C 151.86 153.74 151.10 154.60 151.17 155.60 Z M 151.25 156.58 L 151.31 157.57 C 151.38 158.57 152.24 159.33 153.24 159.26 C 154.24 159.19 155.00 158.33 154.93 157.33 L 154.86 156.33 C 154.80 155.34 153.93 154.58 152.93 154.65 C 151.93 154.72 151.18 155.58 151.25 156.58 Z M 151.31 157.57 L 151.38 158.59 C 151.45 159.58 152.31 160.34 153.31 160.27 C 154.31 160.20 155.06 159.34 155.00 158.34 L 154.93 157.33 C 154.86 156.33 154.00 155.58 153.00 155.65 C 152.00 155.71 151.25 156.58 151.31 157.57 Z M 151.39 158.59 L 151.46 159.61 C 151.53 160.61 152.39 161.36 153.39 161.29 C 154.38 161.22 155.13 160.36 155.07 159.36 L 154.99 158.34 C 154.92 157.34 154.06 156.59 153.06 156.66 C 152.07 156.73 151.32 157.59 151.39 158.59 Z M 151.46 159.62 L 151.53 160.64 C 151.61 161.64 152.47 162.38 153.47 162.31 C 154.46 162.24 155.21 161.37 155.14 160.38 L 155.06 159.36 C 154.99 158.36 154.12 157.61 153.13 157.69 C 152.14 157.76 151.39 158.62 151.46 159.62 Z M 151.54 160.65 L 151.61 161.65 C 151.69 162.65 152.55 163.39 153.54 163.32 C 154.54 163.24 155.28 162.38 155.21 161.39 L 155.13 160.38 C 155.06 159.38 154.19 158.64 153.20 158.71 C 152.21 158.79 151.46 159.65 151.54 160.65 Z M 151.62 161.66 L 151.69 162.62 C 151.76 163.62 152.63 164.36 153.62 164.28 C 154.61 164.21 155.35 163.35 155.28 162.35 L 155.21 161.38 C 155.13 160.39 154.27 159.65 153.28 159.72 C 152.28 159.80 151.54 160.66 151.62 161.66 Z M 151.69 162.62 L 151.77 163.65 C 151.84 164.64 152.71 165.39 153.70 165.31 C 154.69 165.24 155.43 164.38 155.35 163.39 L 155.28 162.35 C 155.20 161.36 154.34 160.62 153.35 160.70 C 152.36 160.77 151.62 161.63 151.69 162.62 Z M 151.77 163.65 L 151.85 164.67 C 151.92 165.66 152.78 166.40 153.77 166.32 C 154.76 166.25 155.50 165.39 155.43 164.40 L 155.35 163.39 C 155.28 162.40 154.42 161.66 153.43 161.73 C 152.44 161.81 151.70 162.67 151.77 163.65 Z M 151.85 164.67 L 151.92 165.63 C 152.00 166.61 152.86 167.35 153.85 167.28 C 154.83 167.20 155.57 166.34 155.50 165.36 L 155.42 164.40 C 155.35 163.41 154.49 162.67 153.50 162.75 C 152.52 162.82 151.78 163.68 151.85 164.67 Z M 151.93 165.63 L 152.00 166.59 C 152.08 167.58 152.94 168.31 153.92 168.24 C 154.91 168.16 155.64 167.30 155.57 166.32 L 155.49 165.35 C 155.41 164.37 154.55 163.63 153.57 163.71 C 152.59 163.79 151.85 164.65 151.93 165.63 Z M 152.01 166.59 L 152.09 167.59 C 152.16 168.57 153.02 169.30 154.00 169.22 C 154.98 169.15 155.72 168.29 155.64 167.31 L 155.56 166.32 C 155.48 165.34 154.63 164.60 153.65 164.68 C 152.67 164.76 151.93 165.61 152.01 166.59 Z M 152.09 167.58 L 152.17 168.57 C 152.24 169.55 153.09 170.29 154.07 170.21 C 155.04 170.14 155.78 169.29 155.71 168.31 L 155.63 167.32 C 155.56 166.34 154.71 165.61 153.73 165.68 C 152.76 165.75 152.02 166.60 152.09 167.58 Z M 152.17 168.56 L 152.24 169.54 C 152.30 170.51 153.14 171.25 154.11 171.19 C 155.09 171.13 155.83 170.29 155.76 169.31 L 155.70 168.33 C 155.64 167.36 154.80 166.62 153.82 166.68 C 152.85 166.74 152.11 167.58 152.17 168.56 Z M 152.24 169.52 L 152.29 170.51 C 152.35 171.48 153.18 172.22 154.15 172.17 C 155.12 172.11 155.87 171.28 155.81 170.31 L 155.76 169.33 C 155.71 168.36 154.87 167.61 153.90 167.67 C 152.93 167.72 152.19 168.55 152.24 169.52 Z M 152.30 170.50 L 152.35 171.51 C 152.40 172.48 153.22 173.22 154.19 173.18 C 155.16 173.13 155.91 172.30 155.86 171.33 L 155.81 170.32 C 155.76 169.35 154.94 168.61 153.97 168.65 C 153.00 168.70 152.25 169.53 152.30 170.50 Z M 152.36 171.50 L 152.40 172.50 C 152.45 173.47 153.27 174.21 154.24 174.17 C 155.20 174.12 155.95 173.30 155.90 172.34 L 155.85 171.34 C 155.81 170.37 154.99 169.63 154.02 169.67 C 153.06 169.72 152.31 170.54 152.36 171.50 Z M 152.41 172.50 L 152.45 173.47 C 152.50 174.43 153.31 175.18 154.28 175.13 C 155.24 175.09 155.98 174.27 155.94 173.31 L 155.90 172.34 C 155.85 171.38 155.03 170.63 154.07 170.68 C 153.11 170.72 152.36 171.54 152.41 172.50 Z M 152.46 173.46 L 152.50 174.47 C 152.54 175.43 153.35 176.17 154.31 176.13 C 155.27 176.09 156.02 175.28 155.98 174.32 L 155.93 173.32 C 155.89 172.36 155.08 171.61 154.12 171.65 C 153.16 171.69 152.42 172.50 152.46 173.46 Z M 152.51 174.46 L 152.54 175.50 C 152.58 176.46 153.38 177.20 154.34 177.17 C 155.30 177.14 156.04 176.33 156.01 175.38 L 155.97 174.33 C 155.94 173.38 155.13 172.63 154.18 172.66 C 153.22 172.70 152.47 173.50 152.51 174.46 Z M 152.55 175.49 L 152.58 176.43 C 152.61 177.39 153.40 178.14 154.35 178.11 C 155.31 178.08 156.06 177.29 156.03 176.33 L 156.00 175.39 C 155.98 174.44 155.18 173.68 154.23 173.71 C 153.27 173.74 152.52 174.54 152.55 175.49 Z M 152.58 176.42 L 152.61 177.40 C 152.63 178.35 153.42 179.10 154.37 179.08 C 155.32 179.06 156.07 178.27 156.05 177.32 L 156.02 176.34 C 156.00 175.39 155.21 174.64 154.26 174.66 C 153.31 174.69 152.56 175.47 152.58 176.42 Z M 152.61 177.40 L 152.63 178.41 C 152.65 179.36 153.43 180.11 154.38 180.09 C 155.33 180.07 156.08 179.29 156.06 178.34 L 156.04 177.33 C 156.02 176.38 155.24 175.63 154.29 175.65 C 153.35 175.67 152.59 176.45 152.61 177.40 Z M 152.64 178.41 L 152.66 179.47 C 152.68 180.41 153.45 181.16 154.40 181.15 C 155.34 181.13 156.09 180.35 156.07 179.41 L 156.05 178.35 C 156.04 177.40 155.26 176.65 154.32 176.67 C 153.37 176.69 152.62 177.47 152.64 178.41 Z M 152.66 179.47 L 152.68 180.46 C 152.70 181.40 153.47 182.15 154.41 182.13 C 155.35 182.12 156.10 181.34 156.08 180.40 L 156.07 179.41 C 156.05 178.47 155.28 177.72 154.34 177.74 C 153.40 177.75 152.65 178.53 152.66 179.47 Z M 152.69 180.46 L 152.70 181.47 C 152.72 182.41 153.49 183.15 154.43 183.14 C 155.36 183.12 156.11 182.35 156.09 181.41 L 156.08 180.40 C 156.06 179.47 155.29 178.72 154.35 178.74 C 153.42 178.75 152.67 179.52 152.69 180.46 Z M 152.71 181.47 L 152.73 182.48 C 152.74 183.42 153.51 184.16 154.44 184.14 C 155.38 184.13 156.12 183.36 156.11 182.43 L 156.09 181.41 C 156.07 180.48 155.30 179.74 154.37 179.75 C 153.44 179.77 152.70 180.54 152.71 181.47 Z M 152.73 182.48 L 152.75 183.48 C 152.77 184.41 153.53 185.15 154.46 185.13 C 155.39 185.12 156.13 184.35 156.12 183.42 L 156.10 182.43 C 156.08 181.50 155.32 180.76 154.39 180.77 C 153.46 180.79 152.72 181.55 152.73 182.48 Z M 152.76 183.48 L 152.77 184.50 C 152.79 185.43 153.55 186.17 154.48 186.15 C 155.41 186.14 156.14 185.37 156.13 184.45 L 156.11 183.42 C 156.09 182.50 155.33 181.76 154.40 181.77 C 153.48 181.79 152.74 182.55 152.76 183.48 Z M 152.78 184.51 L 152.80 185.54 C 152.81 186.46 153.58 187.19 154.50 187.18 C 155.42 187.16 156.16 186.40 156.14 185.47 L 156.12 184.44 C 156.11 183.52 155.34 182.79 154.42 182.80 C 153.50 182.82 152.76 183.58 152.78 184.51 Z M 152.80 185.54 L 152.82 186.53 C 152.84 187.45 153.60 188.18 154.52 188.16 C 155.44 188.15 156.17 187.38 156.16 186.46 L 156.14 185.47 C 156.12 184.55 155.36 183.82 154.44 183.84 C 153.52 183.86 152.78 184.62 152.80 185.54 Z M 152.83 186.53 L 152.85 187.49 C 152.86 188.41 153.62 189.14 154.54 189.12 C 155.46 189.10 156.19 188.34 156.17 187.42 L 156.15 186.46 C 156.13 185.54 155.37 184.81 154.45 184.83 C 153.54 184.85 152.81 185.61 152.83 186.53 Z M 152.85 187.49 L 152.87 188.49 C 152.89 189.40 153.65 190.13 154.57 190.11 C 155.48 190.09 156.21 189.33 156.19 188.41 L 156.17 187.42 C 156.15 186.51 155.39 185.78 154.47 185.80 C 153.56 185.82 152.83 186.58 152.85 187.49 Z M 152.88 188.49 L 152.90 189.50 C 152.92 190.41 153.68 191.13 154.59 191.11 C 155.50 191.09 156.23 190.34 156.21 189.42 L 156.18 188.41 C 156.16 187.50 155.41 186.78 154.49 186.80 C 153.58 186.82 152.86 187.57 152.88 188.49 Z M 152.91 189.49 L 152.93 190.49 C 152.94 191.40 153.70 192.12 154.61 192.10 C 155.52 192.08 156.24 191.33 156.22 190.42 L 156.20 189.43 C 156.18 188.52 155.43 187.79 154.52 187.81 C 153.61 187.83 152.89 188.58 152.91 189.49 Z M 152.93 190.48 L 152.95 191.46 C 152.96 192.37 153.71 193.09 154.61 193.08 C 155.52 193.06 156.24 192.32 156.23 191.41 L 156.21 190.43 C 156.20 189.52 155.45 188.80 154.55 188.81 C 153.64 188.83 152.92 189.57 152.93 190.48 Z M 152.95 191.45 L 152.96 192.46 C 152.97 193.37 153.71 194.09 154.61 194.08 C 155.52 194.08 156.24 193.34 156.23 192.43 L 156.22 191.42 C 156.21 190.52 155.48 189.79 154.57 189.80 C 153.67 189.81 152.94 190.55 152.95 191.45 Z M 152.97 192.46 L 152.97 193.46 C 152.98 194.36 153.71 195.08 154.61 195.08 C 155.51 195.08 156.23 194.34 156.23 193.44 L 156.23 192.44 C 156.22 191.54 155.49 190.82 154.59 190.82 C 153.69 190.82 152.96 191.56 152.97 192.46 Z M 152.98 193.45 L 152.98 194.45 C 152.98 195.34 153.71 196.07 154.60 196.07 C 155.50 196.07 156.23 195.34 156.23 194.44 L 156.22 193.45 C 156.22 192.55 155.50 191.83 154.60 191.83 C 153.70 191.83 152.98 192.56 152.98 193.45 Z M 152.99 194.44 L 152.99 195.44 C 152.99 196.33 153.71 197.06 154.60 197.06 C 155.50 197.06 156.22 196.33 156.22 195.44 L 156.22 194.44 C 156.22 193.55 155.50 192.83 154.60 192.83 C 153.71 192.83 152.99 193.55 152.99 194.44 Z M 152.99 195.44 L 152.99 196.44 C 152.99 197.33 153.71 198.05 154.60 198.05 C 155.49 198.05 156.21 197.33 156.21 196.44 L 156.21 195.44 C 156.21 194.55 155.49 193.83 154.60 193.83 C 153.71 193.83 152.99 194.55 152.99 195.44 Z M 153.00 196.44 L 153.00 197.44 C 153.00 198.32 153.72 199.04 154.60 199.04 C 155.49 199.04 156.21 198.32 156.21 197.44 L 156.21 196.44 C 156.21 195.55 155.49 194.84 154.60 194.84 C 153.72 194.84 153.00 195.55 153.00 196.44 Z M 153.01 197.44 L 153.01 198.44 C 153.01 199.32 153.72 200.03 154.60 200.03 C 155.48 200.03 156.20 199.32 156.20 198.44 L 156.20 197.44 C 156.20 196.56 155.48 195.84 154.60 195.84 C 153.72 195.84 153.01 196.56 153.01 197.44 Z M 153.01 198.44 L 153.01 199.43 C 153.01 200.30 153.72 201.02 154.60 201.02 C 155.48 201.02 156.19 200.30 156.19 199.43 L 156.19 198.44 C 156.19 197.56 155.48 196.85 154.60 196.85 C 153.72 196.85 153.01 197.56 153.01 198.44 Z M 153.02 199.43 L 153.02 200.42 C 153.02 201.30 153.73 202.01 154.60 202.01 C 155.48 202.01 156.19 201.30 156.19 200.42 L 156.19 199.43 C 156.19 198.55 155.48 197.84 154.60 197.84 C 153.73 197.84 153.02 198.55 153.02 199.43 Z M 153.02 200.42 L 153.02 201.43 C 153.02 202.30 153.73 203.01 154.60 203.01 C 155.47 203.01 156.18 202.30 156.18 201.43 L 156.18 200.42 C 156.18 199.55 155.47 198.84 154.60 198.84 C 153.73 198.84 153.02 199.55 153.02 200.42 Z M 153.03 201.43 L 153.03 202.46 C 153.03 203.33 153.73 204.03 154.60 204.03 C 155.47 204.03 156.18 203.33 156.18 202.46 L 156.18 201.43 C 156.18 200.56 155.47 199.86 154.60 199.86 C 153.73 199.86 153.03 200.56 153.03 201.43 Z M 153.03 202.46 L 153.03 203.49 C 153.03 204.36 153.73 205.06 154.60 205.06 C 155.47 205.06 156.18 204.36 156.18 203.49 L 156.18 202.46 C 156.18 201.59 155.47 200.89 154.60 200.89 C 153.73 200.89 153.03 201.59 153.03 202.46 Z M 153.03 203.49 L 153.03 204.49 C 153.03 205.35 153.74 206.06 154.60 206.06 C 155.47 206.06 156.17 205.35 156.17 204.49 L 156.17 203.49 C 156.17 202.62 155.47 201.92 154.60 201.92 C 153.74 201.92 153.03 202.62 153.03 203.49 Z M 153.03 204.49 L 153.03 205.46 C 153.03 206.33 153.74 207.03 154.60 207.03 C 155.47 207.03 156.17 206.33 156.17 205.46 L 156.17 204.49 C 156.17 203.62 155.47 202.92 154.60 202.92 C 153.74 202.92 153.03 203.62 153.03 204.49 Z M 153.03 205.46 L 153.03 206.52 C 153.03 207.39 153.74 208.09 154.60 208.09 C 155.47 208.09 156.17 207.39 156.17 206.52 L 156.17 205.46 C 156.17 204.59 155.47 203.89 154.60 203.89 C 153.74 203.89 153.03 204.59 153.03 205.46 Z M 153.03 206.52 L 153.03 207.48 C 153.03 208.35 153.74 209.05 154.60 209.05 C 155.47 209.05 156.17 208.35 156.17 207.48 L 156.17 206.52 C 156.17 205.65 155.47 204.95 154.60 204.95 C 153.74 204.95 153.03 205.65 153.03 206.52 Z M 153.03 207.48 L 153.03 208.46 C 153.03 209.32 153.74 210.03 154.60 210.03 C 155.47 210.03 156.17 209.32 156.17 208.46 L 156.17 207.48 C 156.17 206.62 155.47 205.92 154.60 205.92 C 153.74 205.92 153.04 206.62 153.03 207.48 Z M 153.04 208.45 L 153.03 209.46 C 153.02 210.32 153.72 211.03 154.59 211.04 C 155.45 211.04 156.16 210.34 156.16 209.48 L 156.17 208.47 C 156.18 207.60 155.48 206.90 154.61 206.89 C 153.75 206.88 153.04 207.58 153.04 208.45 Z M 153.03 209.43 L 153.01 210.40 C 152.98 211.27 153.67 211.99 154.53 212.01 C 155.40 212.03 156.11 211.35 156.14 210.48 L 156.16 209.51 C 156.18 208.64 155.50 207.92 154.64 207.90 C 153.77 207.88 153.05 208.56 153.03 209.43 Z M 153.01 210.36 L 152.95 211.39 C 152.90 212.25 153.56 212.99 154.43 213.04 C 155.29 213.08 156.03 212.42 156.08 211.56 L 156.13 210.53 C 156.18 209.67 155.52 208.93 154.66 208.88 C 153.80 208.83 153.06 209.49 153.01 210.36 Z M 152.96 211.35 L 152.88 212.31 C 152.81 213.17 153.46 213.93 154.32 213.99 C 155.18 214.06 155.93 213.42 156.00 212.56 L 156.07 211.59 C 156.14 210.73 155.49 209.98 154.63 209.92 C 153.77 209.85 153.02 210.49 152.96 211.35 Z M 152.88 212.30 L 152.80 213.33 C 152.72 214.19 153.36 214.94 154.22 215.01 C 155.08 215.09 155.83 214.45 155.91 213.59 L 155.99 212.57 C 156.07 211.71 155.43 210.95 154.57 210.88 C 153.71 210.81 152.96 211.44 152.88 212.30 Z M 152.80 213.31 L 152.71 214.27 C 152.63 215.12 153.26 215.89 154.11 215.97 C 154.97 216.05 155.73 215.42 155.81 214.56 L 155.90 213.61 C 155.98 212.75 155.35 211.99 154.50 211.91 C 153.64 211.83 152.88 212.46 152.80 213.31 Z M 152.71 214.24 L 152.60 215.22 C 152.51 216.08 153.13 216.85 153.98 216.94 C 154.83 217.04 155.60 216.42 155.70 215.57 L 155.81 214.59 C 155.90 213.73 155.29 212.96 154.43 212.87 C 153.58 212.77 152.81 213.39 152.71 214.24 Z M 152.61 215.20 L 152.46 216.41 C 152.35 217.27 152.95 218.04 153.81 218.15 C 154.66 218.26 155.44 217.65 155.54 216.80 L 155.70 215.59 C 155.80 214.74 155.20 213.96 154.35 213.85 C 153.49 213.75 152.72 214.35 152.61 215.20 Z M 152.62 217.32 L 152.78 217.62 C 153.17 218.37 154.10 218.67 154.86 218.28 C 155.62 217.89 155.92 216.96 155.53 216.20 L 155.37 215.90 C 154.98 215.14 154.05 214.84 153.29 215.23 C 152.53 215.62 152.23 216.56 152.62 217.32 Z M 155.23 217.98 L 155.87 217.33 C 156.47 216.73 156.46 215.77 155.86 215.18 C 155.27 214.59 154.31 214.59 153.71 215.19 L 153.07 215.84 C 152.48 216.43 152.49 217.40 153.08 217.99 C 153.68 218.58 154.64 218.57 155.23 217.98 Z M 153.39 216.83 L 153.76 217.74 C 154.07 218.51 154.95 218.89 155.73 218.57 C 156.50 218.26 156.88 217.38 156.56 216.60 L 156.20 215.69 C 155.88 214.92 155.00 214.55 154.23 214.86 C 153.45 215.17 153.08 216.05 153.39 216.83 Z M 153.64 217.32 L 153.75 218.38 C 153.83 219.22 154.58 219.83 155.42 219.75 C 156.26 219.67 156.87 218.92 156.79 218.08 L 156.68 217.02 C 156.60 216.18 155.85 215.57 155.01 215.65 C 154.17 215.73 153.56 216.48 153.64 217.32 Z M 153.73 218.24 L 153.73 219.24 C 153.74 220.09 154.44 220.78 155.29 220.77 C 156.14 220.76 156.82 220.07 156.81 219.22 L 156.81 218.22 C 156.80 217.37 156.10 216.68 155.25 216.69 C 154.40 216.70 153.72 217.39 153.73 218.24 Z M 153.73 219.17 L 153.69 220.19 C 153.65 221.05 154.32 221.77 155.17 221.80 C 156.03 221.83 156.75 221.17 156.78 220.31 L 156.82 219.29 C 156.85 218.44 156.19 217.72 155.33 217.68 C 154.48 217.65 153.76 218.32 153.73 219.17 Z M 153.70 220.02 L 153.55 220.98 C 153.43 221.83 154.01 222.62 154.86 222.75 C 155.71 222.87 156.50 222.29 156.63 221.44 L 156.77 220.48 C 156.90 219.63 156.31 218.84 155.46 218.72 C 154.62 218.59 153.83 219.17 153.70 220.02 Z M 153.61 220.73 L 153.30 221.69 C 153.03 222.51 153.48 223.39 154.30 223.65 C 155.12 223.92 156.00 223.47 156.26 222.65 L 156.57 221.69 C 156.84 220.87 156.39 219.99 155.57 219.73 C 154.75 219.46 153.87 219.91 153.61 220.73 Z M 153.37 221.50 L 152.94 222.40 C 152.58 223.18 152.91 224.11 153.69 224.48 C 154.47 224.85 155.40 224.51 155.77 223.73 L 156.20 222.83 C 156.56 222.05 156.23 221.12 155.45 220.75 C 154.67 220.39 153.74 220.72 153.37 221.50 Z M 152.99 222.30 L 152.51 223.17 C 152.08 223.92 152.35 224.88 153.10 225.30 C 153.86 225.72 154.81 225.46 155.23 224.70 L 155.72 223.83 C 156.15 223.08 155.88 222.13 155.13 221.70 C 154.37 221.28 153.42 221.55 152.99 222.30 Z M 152.51 223.17 L 152.01 224.05 C 151.59 224.80 151.86 225.75 152.61 226.18 C 153.37 226.60 154.32 226.33 154.74 225.58 L 155.24 224.70 C 155.66 223.95 155.39 222.99 154.64 222.57 C 153.88 222.15 152.93 222.42 152.51 223.17 Z M 152.01 224.04 L 151.52 224.92 C 151.10 225.67 151.36 226.63 152.12 227.05 C 152.87 227.48 153.83 227.21 154.25 226.46 L 154.74 225.58 C 155.17 224.83 154.90 223.87 154.15 223.45 C 153.39 223.02 152.44 223.29 152.01 224.04 Z M 151.50 224.96 L 151.04 225.84 C 150.63 226.60 150.92 227.55 151.69 227.95 C 152.45 228.36 153.40 228.07 153.80 227.30 L 154.27 226.42 C 154.67 225.66 154.38 224.71 153.62 224.30 C 152.85 223.90 151.91 224.19 151.50 224.96 Z M 150.94 226.07 L 150.64 226.94 C 150.36 227.76 150.80 228.64 151.62 228.92 C 152.44 229.20 153.33 228.76 153.61 227.94 L 153.90 227.07 C 154.18 226.25 153.74 225.36 152.92 225.09 C 152.10 224.81 151.21 225.25 150.94 226.07 Z M 150.57 227.30 L 150.47 228.32 C 150.39 229.18 151.03 229.95 151.89 230.02 C 152.75 230.10 153.51 229.47 153.59 228.61 L 153.68 227.58 C 153.76 226.72 153.13 225.96 152.27 225.88 C 151.41 225.80 150.65 226.44 150.57 227.30 Z M 150.47 228.59 L 150.55 229.55 C 150.62 230.41 151.37 231.05 152.23 230.98 C 153.09 230.91 153.73 230.15 153.66 229.30 L 153.59 228.34 C 153.52 227.48 152.76 226.84 151.90 226.91 C 151.04 226.98 150.40 227.73 150.47 228.59 Z M 150.57 229.66 L 150.72 230.66 C 150.85 231.51 151.65 232.09 152.50 231.96 C 153.35 231.83 153.93 231.03 153.80 230.18 L 153.65 229.18 C 153.51 228.33 152.72 227.75 151.87 227.88 C 151.02 228.01 150.43 228.81 150.57 229.66 Z M 150.73 230.70 L 150.91 231.68 C 151.07 232.53 151.88 233.09 152.72 232.93 C 153.57 232.78 154.13 231.97 153.97 231.12 L 153.79 230.14 C 153.64 229.30 152.83 228.74 151.98 228.89 C 151.14 229.05 150.58 229.86 150.73 230.70 Z"
      fill="black"
      fill-rule="nonzero" /></svg>