<svg xmlns="http://www.w3.org/2000/svg" width="300" height="300" viewBox="0 0 300 300">
<path d="M 186.41 139.83 L 185.71 139.16 C 185.13 138.60 184.21 138.61 183.65 139.19 C 183.09 139.76 183.10 140.69 183.68 141.25 L 184.37 141.93 C 184.95 142.49 185.87 142.47 186.44 141.90 C 187.00 141.32 186.98 140.40 186.41 139.83 Z M 185.62 139.07 L 184.83 138.42 C 184.21 137.91 183.28 138.00 182.77 138.62 C 182.26 139.25 182.35 140.17 182.97 140.68 L 183.76 141.33 C 184.39 141.85 185.31 141.76 185.82 141.13 C 186.34 140.51 186.25 139.59 185.62 139.07 Z M 184.70 138.31 L 183.88 137.78 C 183.19 137.34 182.28 137.54 181.84 138.22 C 181.40 138.91 181.59 139.82 182.28 140.26 L 183.10 140.79 C 183.79 141.23 184.70 141.04 185.14 140.35 C 185.58 139.67 185.39 138.75 184.70 138.31 Z M 183.79 137.71 L 182.90 137.22 C 182.17 136.83 181.26 137.10 180.87 137.83 C 180.48 138.55 180.75 139.46 181.47 139.85 L 182.37 140.34 C 183.09 140.73 184.00 140.46 184.39 139.73 C 184.79 139.01 184.52 138.10 183.79 137.71 Z M 182.84 137.18 L 181.98 136.76 C 181.23 136.39 180.32 136.71 179.96 137.46 C 179.60 138.21 179.91 139.11 180.66 139.48 L 181.52 139.90 C 182.28 140.26 183.18 139.95 183.54 139.20 C 183.91 138.45 183.59 137.54 182.84 137.18 Z M 181.94 136.73 L 181.05 136.33 C 180.29 135.99 179.39 136.34 179.04 137.10 C 178.70 137.87 179.05 138.77 179.81 139.11 L 180.70 139.51 C 181.47 139.85 182.37 139.51 182.71 138.74 C 183.05 137.97 182.71 137.07 181.94 136.73 Z M 181.02 136.31 L 180.03 135.90 C 179.25 135.57 178.36 135.94 178.03 136.72 C 177.71 137.50 178.08 138.40 178.86 138.73 L 179.85 139.14 C 180.63 139.46 181.52 139.09 181.85 138.31 C 182.17 137.53 181.80 136.63 181.02 136.31 Z M 180.02 135.88 L 179.08 135.51 C 178.29 135.19 177.39 135.58 177.07 136.37 C 176.76 137.16 177.14 138.05 177.94 138.37 L 178.88 138.74 C 179.67 139.06 180.56 138.67 180.88 137.88 C 181.19 137.09 180.81 136.20 180.02 135.88 Z M 179.06 135.49 L 178.10 135.12 C 177.30 134.81 176.40 135.21 176.09 136.01 C 175.79 136.81 176.18 137.70 176.98 138.01 L 177.95 138.38 C 178.75 138.69 179.64 138.29 179.95 137.49 C 180.26 136.70 179.86 135.80 179.06 135.49 Z M 178.08 135.10 L 177.18 134.77 C 176.37 134.47 175.48 134.88 175.18 135.69 C 174.88 136.50 175.29 137.39 176.10 137.69 L 177.00 138.03 C 177.81 138.33 178.70 137.91 179.00 137.11 C 179.30 136.30 178.89 135.40 178.08 135.10 Z M 177.15 134.75 L 176.12 134.40 C 175.30 134.12 174.41 134.55 174.13 135.37 C 173.85 136.19 174.29 137.08 175.10 137.36 L 176.13 137.71 C 176.95 137.99 177.84 137.56 178.12 136.74 C 178.40 135.92 177.96 135.03 177.15 134.75 Z M 176.08 134.38 L 175.19 134.10 C 174.37 133.85 173.49 134.31 173.23 135.14 C 172.97 135.96 173.43 136.84 174.26 137.10 L 175.15 137.37 C 175.97 137.63 176.85 137.17 177.11 136.34 C 177.37 135.52 176.90 134.64 176.08 134.38 Z M 175.17 134.09 L 174.27 133.83 C 173.44 133.59 172.57 134.07 172.32 134.90 C 172.08 135.74 172.56 136.61 173.39 136.85 L 174.29 137.11 C 175.12 137.35 175.99 136.87 176.24 136.04 C 176.48 135.21 176.00 134.34 175.17 134.09 Z M 174.24 133.82 L 173.26 133.56 C 172.42 133.34 171.56 133.84 171.33 134.68 C 171.11 135.52 171.61 136.38 172.45 136.60 L 173.43 136.86 C 174.27 137.09 175.13 136.59 175.35 135.75 C 175.58 134.91 175.08 134.04 174.24 133.82 Z M 173.21 133.54 L 172.18 133.31 C 171.34 133.11 170.49 133.64 170.29 134.49 C 170.09 135.33 170.62 136.18 171.47 136.38 L 172.50 136.62 C 173.35 136.81 174.19 136.29 174.39 135.44 C 174.59 134.59 174.06 133.74 173.21 133.54 Z M 172.14 133.29 L 171.12 133.09 C 170.27 132.92 169.44 133.47 169.26 134.33 C 169.09 135.18 169.65 136.02 170.50 136.19 L 171.52 136.39 C 172.37 136.56 173.21 136.01 173.38 135.15 C 173.55 134.30 172.99 133.47 172.14 133.29 Z M 171.08 133.08 L 170.14 132.92 C 169.28 132.77 168.46 133.35 168.31 134.21 C 168.17 135.07 168.74 135.89 169.60 136.04 L 170.54 136.20 C 171.40 136.35 172.22 135.77 172.37 134.91 C 172.52 134.05 171.94 133.23 171.08 133.08 Z M 170.08 132.91 L 169.04 132.77 C 168.17 132.65 167.38 133.26 167.26 134.13 C 167.14 134.99 167.75 135.79 168.62 135.91 L 169.66 136.05 C 170.53 136.16 171.33 135.55 171.44 134.69 C 171.56 133.82 170.95 133.02 170.08 132.91 Z M 168.99 132.76 L 168.06 132.67 C 167.19 132.58 166.41 133.22 166.33 134.09 C 166.24 134.96 166.88 135.74 167.75 135.82 L 168.68 135.91 C 169.55 136.00 170.32 135.36 170.41 134.49 C 170.49 133.62 169.86 132.85 168.99 132.76 Z M 168.03 132.67 L 167.05 132.58 C 166.18 132.51 165.41 133.16 165.34 134.03 C 165.26 134.90 165.91 135.67 166.79 135.74 L 167.77 135.83 C 168.64 135.90 169.41 135.25 169.48 134.38 C 169.55 133.51 168.91 132.74 168.03 132.67 Z M 167.00 132.58 L 165.99 132.53 C 165.11 132.49 164.37 133.16 164.32 134.03 C 164.28 134.91 164.95 135.65 165.83 135.70 L 166.84 135.75 C 167.71 135.79 168.46 135.12 168.50 134.24 C 168.55 133.37 167.87 132.62 167.00 132.58 Z M 165.93 132.53 L 164.93 132.51 C 164.06 132.50 163.34 133.20 163.33 134.08 C 163.31 134.95 164.01 135.67 164.89 135.68 L 165.88 135.70 C 166.76 135.71 167.48 135.01 167.49 134.14 C 167.51 133.26 166.81 132.54 165.93 132.53 Z M 164.91 132.51 L 163.91 132.51 C 163.04 132.51 162.33 133.22 162.33 134.10 C 162.32 134.97 163.03 135.68 163.91 135.68 L 164.91 135.69 C 165.79 135.69 166.50 134.98 166.50 134.10 C 166.50 133.22 165.79 132.51 164.91 132.51 Z M 163.91 132.51 L 162.93 132.51 C 162.05 132.51 161.34 133.22 161.34 134.10 C 161.34 134.97 162.05 135.68 162.93 135.68 L 163.91 135.68 C 164.79 135.68 165.50 134.97 165.50 134.10 C 165.50 133.22 164.79 132.51 163.91 132.51 Z M 162.93 132.51 L 161.90 132.51 C 161.02 132.51 160.31 133.22 160.31 134.10 C 160.31 134.97 161.02 135.69 161.90 135.69 L 162.93 135.69 C 163.80 135.69 164.51 134.97 164.51 134.10 C 164.51 133.22 163.80 132.51 162.93 132.51 Z M 161.90 132.51 L 160.90 132.51 C 160.02 132.51 159.31 133.22 159.31 134.10 C 159.31 134.97 160.02 135.69 160.90 135.69 L 161.90 135.69 C 162.78 135.69 163.49 134.97 163.49 134.10 C 163.49 133.22 162.78 132.51 161.90 132.51 Z M 160.90 132.51 L 159.89 132.51 C 159.01 132.51 158.30 133.22 158.30 134.10 C 158.30 134.98 159.01 135.69 159.89 135.69 L 160.90 135.69 C 161.77 135.69 162.48 134.98 162.48 134.10 C 162.48 133.22 161.77 132.51 160.90 132.51 Z M 159.89 132.51 L 158.88 132.51 C 158.00 132.51 157.29 133.22 157.29 134.10 C 157.29 134.98 158.00 135.69 158.88 135.69 L 159.89 135.69 C 160.77 135.69 161.48 134.97 161.48 134.10 C 161.48 133.22 160.77 132.51 159.89 132.51 Z M 158.85 132.51 L 157.86 132.53 C 156.98 132.54 156.28 133.27 156.30 134.14 C 156.32 135.02 157.04 135.72 157.92 135.71 L 158.91 135.69 C 159.79 135.67 160.49 134.95 160.47 134.07 C 160.45 133.19 159.73 132.49 158.85 132.51 Z M 157.81 132.53 L 156.82 132.58 C 155.94 132.63 155.27 133.38 155.32 134.25 C 155.37 135.13 156.11 135.80 156.99 135.76 L 157.98 135.71 C 158.85 135.66 159.53 134.91 159.48 134.03 C 159.43 133.15 158.68 132.48 157.81 132.53 Z M 156.75 132.59 L 155.75 132.69 C 154.88 132.77 154.24 133.55 154.33 134.43 C 154.42 135.30 155.20 135.94 156.07 135.85 L 157.07 135.75 C 157.94 135.67 158.58 134.88 158.49 134.01 C 158.40 133.14 157.62 132.50 156.75 132.59 Z M 155.67 132.70 L 154.67 132.85 C 153.81 132.98 153.21 133.80 153.34 134.66 C 153.48 135.53 154.29 136.13 155.16 136.00 L 156.15 135.84 C 157.02 135.71 157.62 134.90 157.49 134.03 C 157.35 133.16 156.54 132.56 155.67 132.70 Z M 154.60 132.86 L 153.62 133.06 C 152.76 133.24 152.21 134.08 152.38 134.94 C 152.56 135.80 153.40 136.36 154.26 136.18 L 155.24 135.98 C 156.10 135.81 156.65 134.96 156.48 134.10 C 156.30 133.24 155.46 132.69 154.60 132.86 Z M 153.58 133.07 L 152.60 133.31 C 151.74 133.51 151.21 134.37 151.41 135.22 C 151.62 136.08 152.48 136.61 153.33 136.41 L 154.31 136.17 C 155.17 135.97 155.70 135.11 155.49 134.25 C 155.29 133.40 154.43 132.87 153.58 133.07 Z M 152.58 133.31 L 151.61 133.55 C 150.75 133.77 150.23 134.63 150.45 135.49 C 150.66 136.34 151.53 136.86 152.38 136.65 L 153.35 136.40 C 154.21 136.19 154.72 135.32 154.51 134.47 C 154.30 133.61 153.43 133.10 152.58 133.31 Z M 151.59 133.56 L 150.62 133.81 C 149.77 134.03 149.26 134.90 149.48 135.76 C 149.70 136.61 150.58 137.12 151.43 136.90 L 152.40 136.64 C 153.25 136.42 153.76 135.55 153.54 134.70 C 153.31 133.84 152.44 133.33 151.59 133.56 Z M 150.60 133.81 L 149.65 134.08 C 148.80 134.31 148.30 135.19 148.53 136.04 C 148.76 136.89 149.64 137.39 150.49 137.15 L 151.45 136.89 C 152.30 136.66 152.80 135.78 152.56 134.93 C 152.33 134.08 151.45 133.58 150.60 133.81 Z M 149.63 134.08 L 148.68 134.35 C 147.83 134.60 147.35 135.48 147.59 136.33 C 147.83 137.18 148.72 137.66 149.56 137.42 L 150.51 137.15 C 151.36 136.90 151.85 136.02 151.60 135.17 C 151.36 134.33 150.47 133.84 149.63 134.08 Z M 148.67 134.36 L 147.69 134.65 C 146.84 134.90 146.36 135.79 146.62 136.64 C 146.87 137.48 147.76 137.96 148.60 137.71 L 149.58 137.42 C 150.42 137.16 150.90 136.27 150.65 135.43 C 150.40 134.59 149.51 134.11 148.67 134.36 Z M 147.68 134.65 L 146.71 134.95 C 145.87 135.21 145.40 136.10 145.66 136.94 C 145.92 137.79 146.81 138.26 147.65 138.00 L 148.61 137.71 C 149.46 137.45 149.93 136.55 149.67 135.71 C 149.41 134.87 148.52 134.40 147.68 134.65 Z M 146.70 134.95 L 145.74 135.26 C 144.90 135.53 144.43 136.42 144.70 137.26 C 144.96 138.11 145.86 138.57 146.70 138.30 L 147.67 138.00 C 148.51 137.73 148.97 136.83 148.71 135.99 C 148.44 135.15 147.54 134.69 146.70 134.95 Z M 145.72 135.27 L 144.76 135.58 C 143.93 135.86 143.47 136.76 143.75 137.60 C 144.03 138.44 144.93 138.89 145.77 138.61 L 146.72 138.30 C 147.56 138.02 148.01 137.12 147.74 136.28 C 147.46 135.44 146.55 134.99 145.72 135.27 Z M 144.74 135.59 L 143.78 135.93 C 142.95 136.22 142.51 137.13 142.80 137.96 C 143.10 138.80 144.01 139.23 144.84 138.94 L 145.80 138.60 C 146.63 138.31 147.07 137.40 146.78 136.57 C 146.48 135.73 145.57 135.30 144.74 135.59 Z M 143.76 135.94 L 142.84 136.27 C 142.01 136.58 141.59 137.50 141.90 138.33 C 142.20 139.15 143.12 139.58 143.95 139.27 L 144.86 138.93 C 145.69 138.63 146.12 137.71 145.81 136.88 C 145.50 136.05 144.58 135.63 143.76 135.94 Z M 142.83 136.28 L 141.90 136.63 C 141.07 136.95 140.66 137.87 140.98 138.70 C 141.29 139.52 142.22 139.94 143.04 139.62 L 143.97 139.27 C 144.79 138.95 145.21 138.03 144.89 137.20 C 144.57 136.38 143.65 135.96 142.83 136.28 Z M 141.89 136.64 L 140.96 137.00 C 140.13 137.32 139.73 138.25 140.05 139.07 C 140.37 139.90 141.30 140.30 142.12 139.98 L 143.05 139.62 C 143.87 139.30 144.28 138.37 143.96 137.55 C 143.64 136.72 142.71 136.32 141.89 136.64 Z M 140.95 137.00 L 140.02 137.37 C 139.20 137.69 138.79 138.62 139.12 139.44 C 139.44 140.27 140.37 140.67 141.19 140.35 L 142.12 139.98 C 142.94 139.66 143.35 138.73 143.02 137.91 C 142.70 137.08 141.77 136.68 140.95 137.00 Z M 140.02 137.37 L 139.09 137.74 C 138.27 138.06 137.86 138.99 138.19 139.81 C 138.51 140.63 139.44 141.04 140.26 140.71 L 141.19 140.35 C 142.01 140.02 142.42 139.09 142.09 138.27 C 141.77 137.45 140.84 137.05 140.02 137.37 Z M 139.09 137.74 L 138.16 138.10 C 137.33 138.43 136.93 139.36 137.25 140.18 C 137.58 141.00 138.51 141.40 139.33 141.08 L 140.26 140.71 C 141.08 140.39 141.49 139.46 141.16 138.64 C 140.84 137.82 139.91 137.41 139.09 137.74 Z M 138.16 138.10 L 137.22 138.47 C 136.40 138.80 135.99 139.73 136.32 140.55 C 136.64 141.37 137.57 141.77 138.39 141.45 L 139.33 141.08 C 140.15 140.76 140.56 139.83 140.23 139.00 C 139.91 138.18 138.98 137.78 138.16 138.10 Z M 137.21 138.48 L 136.29 138.85 C 135.47 139.18 135.07 140.11 135.40 140.93 C 135.73 141.75 136.66 142.15 137.48 141.82 L 138.40 141.45 C 139.22 141.12 139.62 140.19 139.29 139.37 C 138.96 138.55 138.03 138.15 137.21 138.48 Z M 136.27 138.85 L 135.35 139.23 C 134.53 139.57 134.15 140.51 134.48 141.32 C 134.82 142.14 135.76 142.53 136.57 142.19 L 137.50 141.81 C 138.31 141.47 138.70 140.54 138.36 139.72 C 138.03 138.90 137.09 138.51 136.27 138.85 Z M 135.34 139.24 L 134.42 139.62 C 133.61 139.97 133.23 140.91 133.57 141.72 C 133.91 142.54 134.85 142.92 135.67 142.58 L 136.58 142.19 C 137.40 141.84 137.78 140.91 137.44 140.09 C 137.09 139.28 136.16 138.89 135.34 139.24 Z M 134.42 139.63 L 133.47 140.03 C 132.66 140.37 132.28 141.31 132.62 142.13 C 132.97 142.94 133.91 143.32 134.72 142.98 L 135.67 142.57 C 136.48 142.23 136.86 141.29 136.52 140.48 C 136.17 139.66 135.23 139.28 134.42 139.63 Z M 133.45 140.04 L 132.53 140.44 C 131.72 140.79 131.35 141.74 131.71 142.55 C 132.06 143.36 133.01 143.73 133.82 143.37 L 134.74 142.97 C 135.55 142.61 135.92 141.67 135.56 140.86 C 135.21 140.05 134.26 139.68 133.45 140.04 Z M 132.48 140.46 L 131.60 140.89 C 130.81 141.27 130.47 142.23 130.86 143.02 C 131.24 143.82 132.20 144.15 133.00 143.77 L 133.87 143.35 C 134.67 142.96 135.00 142.01 134.62 141.21 C 134.23 140.41 133.28 140.08 132.48 140.46 Z M 131.53 140.92 L 130.67 141.40 C 129.90 141.82 129.62 142.80 130.04 143.57 C 130.47 144.35 131.44 144.63 132.22 144.20 L 133.07 143.73 C 133.85 143.30 134.13 142.33 133.70 141.55 C 133.28 140.78 132.30 140.50 131.53 140.92 Z M 130.63 141.42 L 129.81 141.91 C 129.05 142.36 128.79 143.34 129.24 144.10 C 129.69 144.86 130.68 145.11 131.44 144.66 L 132.26 144.18 C 133.02 143.73 133.27 142.75 132.82 141.98 C 132.37 141.22 131.39 140.97 130.63 141.42 Z M 129.76 141.94 L 128.91 142.48 C 128.17 142.95 127.95 143.94 128.43 144.69 C 128.90 145.43 129.89 145.65 130.64 145.17 L 131.49 144.63 C 132.23 144.16 132.45 143.17 131.97 142.42 C 131.49 141.68 130.50 141.46 129.76 141.94 Z M 128.83 142.53 L 127.97 143.17 C 127.25 143.69 127.10 144.69 127.62 145.40 C 128.14 146.12 129.14 146.27 129.86 145.75 L 130.72 145.12 C 131.44 144.60 131.59 143.59 131.07 142.88 C 130.55 142.17 129.54 142.01 128.83 142.53 Z M 127.86 143.25 L 127.07 143.93 C 126.40 144.51 126.33 145.52 126.91 146.19 C 127.49 146.86 128.50 146.93 129.17 146.36 L 129.96 145.67 C 130.63 145.09 130.70 144.08 130.12 143.41 C 129.54 142.74 128.53 142.67 127.86 143.25 Z M 126.96 144.04 L 126.29 144.75 C 125.68 145.39 125.70 146.40 126.35 147.01 C 126.99 147.62 128.00 147.59 128.61 146.95 L 129.28 146.25 C 129.89 145.61 129.86 144.59 129.22 143.98 C 128.58 143.37 127.57 143.40 126.96 144.04 Z M 126.11 144.97 L 125.56 145.81 C 125.07 146.54 125.27 147.54 126.01 148.02 C 126.75 148.51 127.74 148.31 128.23 147.57 L 128.78 146.73 C 129.27 145.99 129.07 145.00 128.33 144.51 C 127.59 144.03 126.60 144.23 126.11 144.97 Z M 125.37 146.20 L 125.08 147.11 C 124.81 147.95 125.27 148.85 126.11 149.12 C 126.95 149.39 127.86 148.93 128.13 148.09 L 128.42 147.18 C 128.69 146.34 128.23 145.43 127.38 145.16 C 126.54 144.89 125.64 145.36 125.37 146.20 Z M 125.01 147.40 L 124.89 148.38 C 124.78 149.26 125.41 150.06 126.29 150.17 C 127.16 150.28 127.96 149.65 128.07 148.78 L 128.19 147.80 C 128.30 146.92 127.68 146.12 126.80 146.01 C 125.92 145.90 125.12 146.53 125.01 147.40 Z M 124.88 148.51 L 124.84 149.52 C 124.80 150.41 125.48 151.15 126.37 151.19 C 127.25 151.23 128.00 150.54 128.04 149.66 L 128.08 148.65 C 128.12 147.76 127.43 147.02 126.55 146.98 C 125.67 146.94 124.92 147.63 124.88 148.51 Z M 124.84 149.57 L 124.82 150.57 C 124.81 151.45 125.52 152.18 126.41 152.19 C 127.29 152.20 128.02 151.49 128.03 150.61 L 128.04 149.61 C 128.05 148.73 127.34 148.00 126.46 147.99 C 125.57 147.98 124.85 148.69 124.84 149.57 Z M 124.82 150.60 L 124.83 151.60 C 124.84 152.49 125.56 153.20 126.45 153.19 C 127.33 153.18 128.04 152.46 128.04 151.57 L 128.03 150.58 C 128.02 149.69 127.30 148.98 126.41 148.99 C 125.53 149.00 124.82 149.72 124.82 150.60 Z M 124.83 151.64 L 124.86 152.50 C 124.89 153.38 125.63 154.07 126.52 154.04 C 127.40 154.01 128.09 153.27 128.06 152.39 L 128.04 151.53 C 128.00 150.65 127.26 149.96 126.38 149.99 C 125.49 150.02 124.80 150.76 124.83 151.64 Z M 124.87 152.58 L 124.96 153.62 C 125.03 154.50 125.81 155.15 126.69 155.07 C 127.57 155.00 128.23 154.22 128.15 153.34 L 128.06 152.30 C 127.98 151.42 127.21 150.77 126.32 150.85 C 125.44 150.92 124.79 151.70 124.87 152.58 Z M 124.97 153.71 L 125.12 154.75 C 125.24 155.63 126.06 156.23 126.93 156.11 C 127.81 155.98 128.42 155.17 128.29 154.29 L 128.14 153.25 C 128.01 152.37 127.20 151.77 126.33 151.89 C 125.45 152.02 124.84 152.83 124.97 153.71 Z M 125.13 154.80 L 125.30 155.78 C 125.45 156.65 126.29 157.23 127.16 157.08 C 128.03 156.92 128.61 156.09 128.45 155.22 L 128.28 154.24 C 128.13 153.37 127.29 152.79 126.42 152.94 C 125.55 153.10 124.97 153.93 125.13 154.80 Z M 125.30 155.81 L 125.50 156.83 C 125.67 157.70 126.52 158.26 127.38 158.09 C 128.25 157.92 128.82 157.08 128.65 156.21 L 128.45 155.19 C 128.28 154.32 127.44 153.76 126.57 153.93 C 125.70 154.10 125.14 154.94 125.30 155.81 Z M 125.51 156.84 L 125.71 157.84 C 125.89 158.71 126.74 159.27 127.61 159.09 C 128.47 158.91 129.03 158.06 128.85 157.20 L 128.65 156.20 C 128.47 155.33 127.62 154.77 126.75 154.95 C 125.89 155.13 125.33 155.98 125.51 156.84 Z M 125.71 157.85 L 125.94 158.90 C 126.12 159.77 126.97 160.32 127.84 160.14 C 128.70 159.95 129.26 159.10 129.07 158.24 L 128.85 157.19 C 128.67 156.32 127.82 155.77 126.95 155.95 C 126.08 156.13 125.53 156.99 125.71 157.85 Z M 125.94 158.91 L 126.15 159.89 C 126.34 160.75 127.20 161.30 128.06 161.11 C 128.93 160.92 129.47 160.06 129.28 159.20 L 129.07 158.22 C 128.88 157.36 128.02 156.81 127.16 157.00 C 126.30 157.19 125.75 158.05 125.94 158.91 Z M 126.16 159.90 L 126.37 160.82 C 126.57 161.69 127.43 162.22 128.30 162.02 C 129.16 161.82 129.69 160.96 129.49 160.10 L 129.28 159.18 C 129.08 158.32 128.22 157.78 127.36 157.98 C 126.49 158.18 125.96 159.04 126.16 159.90 Z M 126.38 160.85 L 126.63 161.86 C 126.84 162.72 127.71 163.24 128.57 163.03 C 129.43 162.81 129.95 161.94 129.74 161.08 L 129.49 160.07 C 129.27 159.22 128.41 158.69 127.55 158.91 C 126.69 159.12 126.16 159.99 126.38 160.85 Z M 126.63 161.88 L 126.90 162.87 C 127.12 163.73 128.00 164.24 128.85 164.01 C 129.71 163.79 130.22 162.91 130.00 162.06 L 129.73 161.06 C 129.51 160.21 128.63 159.70 127.78 159.92 C 126.92 160.15 126.41 161.02 126.63 161.88 Z M 126.90 162.89 L 127.14 163.78 C 127.38 164.63 128.26 165.13 129.11 164.90 C 129.97 164.66 130.47 163.78 130.24 162.93 L 129.99 162.04 C 129.76 161.19 128.87 160.68 128.02 160.92 C 127.17 161.15 126.67 162.04 126.90 162.89 Z M 127.15 163.80 L 127.44 164.78 C 127.69 165.63 128.58 166.12 129.42 165.87 C 130.27 165.63 130.76 164.74 130.51 163.89 L 130.23 162.91 C 129.98 162.06 129.09 161.57 128.24 161.81 C 127.39 162.06 126.90 162.95 127.15 163.80 Z M 127.45 164.83 L 127.75 165.75 C 128.02 166.59 128.93 167.05 129.77 166.78 C 130.61 166.50 131.07 165.60 130.80 164.76 L 130.50 163.84 C 130.23 163.00 129.32 162.54 128.48 162.81 C 127.64 163.09 127.18 163.99 127.45 164.83 Z M 127.76 165.79 L 128.09 166.69 C 128.39 167.53 129.30 167.96 130.14 167.66 C 130.97 167.37 131.40 166.45 131.11 165.62 L 130.78 164.71 C 130.49 163.88 129.57 163.45 128.73 163.74 C 127.90 164.04 127.47 164.96 127.76 165.79 Z M 128.11 166.75 L 128.49 167.71 C 128.82 168.53 129.75 168.94 130.57 168.61 C 131.39 168.28 131.80 167.35 131.47 166.53 L 131.09 165.56 C 130.76 164.74 129.83 164.34 129.01 164.67 C 128.18 164.99 127.78 165.92 128.11 166.75 Z M 128.52 167.78 L 128.91 168.65 C 129.28 169.46 130.23 169.81 131.03 169.45 C 131.84 169.08 132.20 168.13 131.83 167.33 L 131.44 166.46 C 131.07 165.65 130.12 165.29 129.32 165.66 C 128.51 166.03 128.15 166.97 128.52 167.78 Z M 128.95 168.74 L 129.41 169.60 C 129.82 170.38 130.79 170.68 131.57 170.27 C 132.36 169.86 132.66 168.89 132.25 168.11 L 131.79 167.24 C 131.38 166.46 130.41 166.16 129.63 166.57 C 128.84 166.98 128.54 167.95 128.95 168.74 Z M 129.45 169.68 L 130.01 170.59 C 130.46 171.35 131.45 171.60 132.21 171.14 C 132.96 170.68 133.21 169.70 132.75 168.94 L 132.20 168.03 C 131.74 167.27 130.76 167.02 130.00 167.48 C 129.24 167.94 129.00 168.92 129.45 169.68 Z M 130.04 170.65 L 130.59 171.47 C 131.07 172.21 132.07 172.42 132.81 171.93 C 133.54 171.44 133.75 170.45 133.26 169.71 L 132.72 168.88 C 132.23 168.15 131.23 167.94 130.50 168.43 C 129.76 168.92 129.55 169.91 130.04 170.65 Z M 130.61 171.52 L 131.21 172.36 C 131.72 173.08 132.72 173.25 133.44 172.74 C 134.16 172.23 134.34 171.23 133.83 170.51 L 133.23 169.67 C 132.72 168.94 131.72 168.77 131.00 169.28 C 130.27 169.79 130.10 170.79 130.61 171.52 Z M 131.24 172.40 L 131.84 173.20 C 132.38 173.90 133.38 174.04 134.09 173.51 C 134.79 172.97 134.93 171.97 134.40 171.26 L 133.79 170.46 C 133.26 169.76 132.26 169.62 131.55 170.15 C 130.84 170.69 130.71 171.69 131.24 172.40 Z M 131.89 173.25 L 132.56 174.07 C 133.13 174.75 134.14 174.84 134.82 174.28 C 135.50 173.71 135.60 172.70 135.03 172.02 L 134.35 171.21 C 133.79 170.53 132.78 170.43 132.10 171.00 C 131.42 171.56 131.32 172.57 131.89 173.25 Z M 132.63 174.14 L 133.30 174.86 C 133.90 175.50 134.92 175.54 135.56 174.93 C 136.21 174.33 136.24 173.31 135.64 172.67 L 134.97 171.95 C 134.36 171.30 133.35 171.27 132.70 171.87 C 132.06 172.48 132.02 173.49 132.63 174.14 Z M 133.37 174.93 L 134.06 175.58 C 134.70 176.19 135.71 176.16 136.32 175.51 C 136.93 174.87 136.90 173.86 136.26 173.25 L 135.57 172.60 C 134.93 171.99 133.91 172.02 133.30 172.66 C 132.70 173.30 132.72 174.32 133.37 174.93 Z M 134.12 175.63 L 134.85 176.26 C 135.53 176.83 136.54 176.75 137.11 176.08 C 137.69 175.41 137.61 174.40 136.93 173.82 L 136.20 173.20 C 135.53 172.62 134.51 172.70 133.94 173.37 C 133.37 174.05 133.44 175.06 134.12 175.63 Z M 134.90 176.30 L 135.69 176.92 C 136.38 177.47 137.39 177.35 137.94 176.66 C 138.49 175.96 138.37 174.95 137.67 174.41 L 136.89 173.78 C 136.19 173.23 135.18 173.35 134.64 174.05 C 134.09 174.74 134.21 175.75 134.90 176.30 Z M 135.72 176.95 L 136.54 177.56 C 137.25 178.09 138.25 177.94 138.78 177.24 C 139.31 176.53 139.17 175.52 138.46 174.99 L 137.64 174.38 C 136.93 173.85 135.93 174.00 135.40 174.70 C 134.87 175.41 135.01 176.42 135.72 176.95 Z M 136.57 177.58 L 137.37 178.15 C 138.09 178.67 139.09 178.50 139.60 177.78 C 140.12 177.06 139.95 176.06 139.24 175.55 L 138.43 174.97 C 137.71 174.46 136.71 174.62 136.20 175.34 C 135.68 176.06 135.85 177.06 136.57 177.58 Z M 137.40 178.18 L 138.24 178.74 C 138.97 179.24 139.97 179.05 140.46 178.32 C 140.96 177.58 140.77 176.59 140.04 176.09 L 139.20 175.52 C 138.47 175.03 137.47 175.22 136.98 175.95 C 136.48 176.68 136.67 177.68 137.40 178.18 Z M 138.28 178.77 L 139.16 179.32 C 139.90 179.79 140.89 179.57 141.37 178.82 C 141.84 178.07 141.61 177.08 140.86 176.61 L 139.99 176.06 C 139.24 175.59 138.25 175.81 137.78 176.56 C 137.31 177.31 137.54 178.30 138.28 178.77 Z M 139.21 179.35 L 140.14 179.89 C 140.90 180.33 141.88 180.07 142.33 179.31 C 142.77 178.54 142.51 177.56 141.74 177.12 L 140.81 176.58 C 140.05 176.14 139.07 176.40 138.62 177.17 C 138.18 177.93 138.44 178.91 139.21 179.35 Z M 140.18 179.91 L 141.05 180.39 C 141.83 180.81 142.80 180.52 143.22 179.74 C 143.64 178.96 143.35 177.99 142.57 177.57 L 141.70 177.09 C 140.92 176.67 139.95 176.96 139.53 177.74 C 139.11 178.52 139.40 179.49 140.18 179.91 Z M 141.08 180.40 L 141.95 180.85 C 142.74 181.25 143.70 180.94 144.11 180.16 C 144.51 179.37 144.20 178.40 143.42 178.00 L 142.54 177.55 C 141.76 177.15 140.79 177.46 140.39 178.24 C 139.99 179.03 140.30 180.00 141.08 180.40 Z M 141.99 180.86 L 142.90 181.30 C 143.69 181.69 144.65 181.35 145.03 180.56 C 145.42 179.76 145.09 178.81 144.29 178.42 L 143.38 177.98 C 142.58 177.60 141.63 177.93 141.24 178.73 C 140.86 179.52 141.19 180.48 141.99 180.86 Z M 142.96 181.33 L 143.81 181.69 C 144.62 182.04 145.56 181.67 145.91 180.86 C 146.25 180.05 145.88 179.11 145.07 178.76 L 144.23 178.39 C 143.41 178.05 142.47 178.42 142.13 179.23 C 141.78 180.04 142.15 180.98 142.96 181.33 Z M 143.86 181.71 L 144.79 182.08 C 145.61 182.40 146.54 181.99 146.86 181.17 C 147.18 180.34 146.77 179.42 145.95 179.10 L 145.01 178.74 C 144.19 178.42 143.27 178.82 142.95 179.65 C 142.63 180.47 143.04 181.40 143.86 181.71 Z M 144.80 182.08 L 145.75 182.44 C 146.57 182.75 147.50 182.34 147.81 181.51 C 148.12 180.69 147.71 179.77 146.88 179.45 L 145.94 179.09 C 145.11 178.78 144.19 179.20 143.88 180.02 C 143.56 180.85 143.98 181.77 144.80 182.08 Z M 145.78 182.45 L 146.73 182.78 C 147.56 183.08 148.47 182.64 148.76 181.81 C 149.06 180.98 148.62 180.07 147.79 179.77 L 146.85 179.44 C 146.02 179.15 145.10 179.58 144.81 180.41 C 144.52 181.25 144.95 182.16 145.78 182.45 Z M 146.81 182.81 L 147.78 183.10 C 148.62 183.34 149.51 182.86 149.76 182.02 C 150.01 181.17 149.52 180.28 148.68 180.03 L 147.71 179.75 C 146.86 179.50 145.98 179.98 145.73 180.83 C 145.48 181.67 145.96 182.56 146.81 182.81 Z M 147.82 183.11 L 148.77 183.36 C 149.62 183.58 150.50 183.07 150.72 182.22 C 150.94 181.37 150.43 180.50 149.58 180.27 L 148.63 180.02 C 147.78 179.80 146.91 180.31 146.69 181.16 C 146.46 182.01 146.97 182.88 147.82 183.11 Z M 148.78 183.36 L 149.75 183.61 C 150.60 183.83 151.47 183.32 151.69 182.47 C 151.91 181.61 151.40 180.74 150.55 180.52 L 149.58 180.27 C 148.72 180.05 147.86 180.56 147.64 181.42 C 147.41 182.27 147.93 183.14 148.78 183.36 Z M 149.76 183.61 L 150.65 183.83 C 151.50 184.05 152.37 183.53 152.58 182.67 C 152.79 181.82 152.28 180.96 151.42 180.74 L 150.54 180.52 C 149.68 180.31 148.82 180.83 148.60 181.68 C 148.39 182.53 148.91 183.40 149.76 183.61 Z M 150.68 183.84 L 151.73 184.08 C 152.58 184.28 153.44 183.75 153.64 182.89 C 153.83 182.03 153.30 181.18 152.45 180.98 L 151.40 180.74 C 150.54 180.54 149.69 181.07 149.49 181.93 C 149.29 182.78 149.82 183.64 150.68 183.84 Z M 151.75 184.08 L 152.65 184.28 C 153.51 184.46 154.35 183.92 154.54 183.06 C 154.72 182.20 154.18 181.36 153.32 181.17 L 152.42 180.98 C 151.57 180.79 150.72 181.34 150.53 182.20 C 150.35 183.05 150.89 183.90 151.75 184.08 Z M 152.66 184.28 L 153.67 184.49 C 154.53 184.67 155.37 184.12 155.55 183.26 C 155.73 182.40 155.18 181.56 154.32 181.38 L 153.31 181.17 C 152.45 180.99 151.61 181.55 151.43 182.40 C 151.25 183.26 151.80 184.10 152.66 184.28 Z M 153.69 184.49 L 154.73 184.70 C 155.59 184.87 156.43 184.31 156.60 183.45 C 156.77 182.59 156.21 181.76 155.35 181.59 L 154.30 181.38 C 153.44 181.21 152.61 181.77 152.44 182.63 C 152.27 183.49 152.83 184.32 153.69 184.49 Z M 154.75 184.70 L 155.75 184.89 C 156.61 185.05 157.44 184.49 157.60 183.63 C 157.77 182.77 157.20 181.94 156.34 181.78 L 155.34 181.58 C 154.48 181.42 153.65 181.99 153.48 182.85 C 153.32 183.71 153.89 184.54 154.75 184.70 Z M 155.76 184.89 L 156.74 185.07 C 157.60 185.23 158.42 184.66 158.58 183.80 C 158.74 182.94 158.17 182.12 157.31 181.96 L 156.34 181.78 C 155.48 181.62 154.65 182.18 154.49 183.04 C 154.33 183.90 154.90 184.73 155.76 184.89 Z M 156.73 185.07 L 157.72 185.25 C 158.58 185.41 159.40 184.85 159.56 183.99 C 159.73 183.13 159.16 182.31 158.30 182.14 L 157.32 181.96 C 156.46 181.80 155.63 182.36 155.47 183.22 C 155.31 184.08 155.88 184.91 156.73 185.07 Z M 157.71 185.25 L 158.71 185.44 C 159.57 185.61 160.40 185.05 160.56 184.19 C 160.73 183.34 160.17 182.51 159.31 182.34 L 158.31 182.15 C 157.46 181.98 156.63 182.54 156.46 183.40 C 156.30 184.25 156.86 185.08 157.71 185.25 Z M 158.70 185.44 L 159.63 185.63 C 160.49 185.80 161.32 185.25 161.49 184.40 C 161.66 183.54 161.11 182.71 160.26 182.54 L 159.33 182.35 C 158.47 182.18 157.64 182.73 157.47 183.58 C 157.30 184.43 157.85 185.26 158.70 185.44 Z M 159.62 185.62 L 160.62 185.83 C 161.47 186.01 162.30 185.47 162.48 184.62 C 162.66 183.77 162.12 182.94 161.27 182.76 L 160.28 182.54 C 159.43 182.36 158.59 182.90 158.41 183.75 C 158.23 184.60 158.77 185.44 159.62 185.62 Z M 160.61 185.83 L 161.58 186.04 C 162.42 186.22 163.26 185.68 163.44 184.83 C 163.62 183.98 163.08 183.15 162.24 182.97 L 161.27 182.76 C 160.43 182.58 159.59 183.12 159.41 183.96 C 159.23 184.81 159.77 185.65 160.61 185.83 Z M 161.59 186.04 L 162.52 186.23 C 163.37 186.40 164.20 185.85 164.37 185.00 C 164.55 184.15 164.00 183.32 163.15 183.15 L 162.22 182.96 C 161.37 182.79 160.54 183.34 160.37 184.19 C 160.20 185.04 160.75 185.87 161.59 186.04 Z M 162.56 186.23 L 163.54 186.41 C 164.40 186.56 165.21 185.99 165.36 185.14 C 165.52 184.29 164.95 183.47 164.09 183.32 L 163.11 183.15 C 162.26 182.99 161.44 183.56 161.29 184.41 C 161.14 185.27 161.71 186.08 162.56 186.23 Z M 163.58 186.42 L 164.74 186.59 C 165.60 186.73 166.40 186.14 166.53 185.28 C 166.66 184.42 166.07 183.62 165.22 183.49 L 164.06 183.31 C 163.20 183.18 162.40 183.77 162.27 184.63 C 162.14 185.48 162.72 186.29 163.58 186.42 Z M 164.68 186.59 L 165.74 186.79 C 166.60 186.96 167.42 186.40 167.59 185.54 C 167.75 184.68 167.19 183.86 166.33 183.70 L 165.27 183.49 C 164.42 183.33 163.59 183.89 163.43 184.75 C 163.27 185.60 163.83 186.43 164.68 186.59 Z M 165.01 186.45 L 165.33 186.73 C 166.00 187.30 167.00 187.22 167.57 186.55 C 168.14 185.89 168.06 184.89 167.39 184.32 L 167.07 184.04 C 166.40 183.47 165.40 183.55 164.83 184.21 C 164.26 184.88 164.34 185.88 165.01 186.45 Z M 165.59 184.13 L 164.75 184.60 C 163.98 185.02 163.70 185.99 164.12 186.76 C 164.55 187.53 165.52 187.80 166.29 187.38 L 167.13 186.92 C 167.90 186.49 168.18 185.52 167.75 184.75 C 167.33 183.98 166.36 183.71 165.59 184.13 Z M 164.88 184.53 L 163.82 184.99 C 163.01 185.35 162.65 186.29 163.00 187.09 C 163.35 187.90 164.29 188.27 165.10 187.91 L 166.16 187.45 C 166.96 187.09 167.33 186.15 166.98 185.35 C 166.62 184.54 165.68 184.18 164.88 184.53 Z M 163.81 185.00 L 162.92 185.39 C 162.11 185.75 161.75 186.69 162.11 187.50 C 162.47 188.30 163.41 188.66 164.21 188.31 L 165.11 187.91 C 165.91 187.55 166.27 186.61 165.92 185.81 C 165.56 185.00 164.62 184.64 163.81 185.00 Z M 162.92 185.39 L 161.97 185.81 C 161.16 186.17 160.79 187.11 161.15 187.92 C 161.50 188.72 162.45 189.09 163.25 188.73 L 164.21 188.31 C 165.02 187.95 165.38 187.01 165.03 186.21 C 164.67 185.40 163.73 185.03 162.92 185.39 Z M 161.98 185.81 L 161.01 186.22 C 160.20 186.57 159.83 187.51 160.18 188.32 C 160.53 189.13 161.47 189.50 162.28 189.15 L 163.24 188.74 C 164.05 188.39 164.42 187.45 164.08 186.64 C 163.73 185.83 162.79 185.46 161.98 185.81 Z M 161.04 186.21 L 160.07 186.61 C 159.25 186.94 158.86 187.88 159.20 188.69 C 159.53 189.51 160.46 189.90 161.28 189.56 L 162.25 189.16 C 163.07 188.83 163.46 187.90 163.12 187.08 C 162.79 186.26 161.85 185.87 161.04 186.21 Z M 160.10 186.60 L 159.16 186.96 C 158.33 187.28 157.92 188.20 158.24 189.02 C 158.56 189.85 159.48 190.26 160.30 189.94 L 161.25 189.58 C 162.07 189.26 162.48 188.34 162.16 187.51 C 161.85 186.69 160.92 186.28 160.10 186.60 Z M 159.19 186.95 L 158.27 187.27 C 157.44 187.57 157.01 188.49 157.31 189.32 C 157.61 190.15 158.52 190.58 159.35 190.28 L 160.27 189.95 C 161.10 189.66 161.53 188.74 161.23 187.91 C 160.94 187.08 160.02 186.65 159.19 186.95 Z M 158.31 187.26 L 157.38 187.57 C 156.55 187.85 156.10 188.76 156.38 189.59 C 156.66 190.43 157.56 190.88 158.40 190.60 L 159.32 190.29 C 160.16 190.01 160.61 189.11 160.33 188.27 C 160.05 187.43 159.14 186.98 158.31 187.26 Z M 157.41 187.56 L 156.43 187.87 C 155.59 188.14 155.12 189.04 155.39 189.88 C 155.66 190.72 156.55 191.19 157.39 190.92 L 158.37 190.61 C 159.21 190.35 159.68 189.45 159.42 188.61 C 159.15 187.76 158.25 187.30 157.41 187.56 Z M 156.45 187.86 L 155.47 188.16 C 154.63 188.41 154.15 189.30 154.40 190.15 C 154.65 191.00 155.55 191.48 156.39 191.22 L 157.37 190.93 C 158.22 190.67 158.70 189.78 158.44 188.94 C 158.19 188.09 157.30 187.61 156.45 187.86 Z M 155.49 188.15 L 154.54 188.43 C 153.69 188.67 153.20 189.55 153.45 190.40 C 153.69 191.25 154.57 191.74 155.42 191.50 L 156.37 191.23 C 157.22 190.98 157.71 190.10 157.47 189.25 C 157.23 188.40 156.34 187.91 155.49 188.15 Z M 154.56 188.42 L 153.63 188.67 C 152.78 188.91 152.28 189.78 152.51 190.64 C 152.74 191.49 153.62 191.99 154.47 191.76 L 155.40 191.51 C 156.25 191.27 156.76 190.39 156.53 189.54 C 156.29 188.69 155.41 188.19 154.56 188.42 Z M 153.66 188.67 L 152.72 188.90 C 151.87 189.12 151.35 189.99 151.57 190.85 C 151.79 191.70 152.66 192.22 153.51 192.00 L 154.44 191.77 C 155.30 191.55 155.82 190.68 155.60 189.82 C 155.38 188.97 154.51 188.45 153.66 188.67 Z M 152.76 188.90 L 151.80 189.12 C 150.94 189.32 150.40 190.18 150.60 191.04 C 150.80 191.90 151.66 192.43 152.52 192.23 L 153.48 192.01 C 154.34 191.81 154.87 190.95 154.67 190.09 C 154.47 189.23 153.62 188.70 152.76 188.90 Z M 151.83 189.11 L 150.81 189.33 C 149.94 189.52 149.39 190.37 149.58 191.23 C 149.76 192.09 150.61 192.64 151.48 192.46 L 152.50 192.24 C 153.36 192.05 153.91 191.20 153.72 190.34 C 153.54 189.48 152.69 188.93 151.83 189.11 Z M 150.82 189.33 L 149.82 189.53 C 148.96 189.71 148.40 190.55 148.57 191.42 C 148.75 192.28 149.59 192.84 150.46 192.67 L 151.46 192.46 C 152.33 192.29 152.89 191.44 152.71 190.58 C 152.54 189.71 151.69 189.15 150.82 189.33 Z M 149.83 189.53 L 148.81 189.73 C 147.94 189.90 147.37 190.74 147.54 191.61 C 147.71 192.48 148.55 193.04 149.42 192.87 L 150.45 192.67 C 151.32 192.50 151.88 191.66 151.71 190.79 C 151.54 189.92 150.70 189.36 149.83 189.53 Z M 148.81 189.72 L 147.85 189.91 C 146.98 190.07 146.40 190.91 146.57 191.78 C 146.73 192.65 147.57 193.22 148.44 193.06 L 149.41 192.87 C 150.28 192.71 150.86 191.87 150.69 191.00 C 150.52 190.13 149.68 189.56 148.81 189.72 Z M 147.86 189.90 L 146.78 190.10 C 145.90 190.26 145.33 191.10 145.49 191.97 C 145.65 192.84 146.48 193.42 147.35 193.26 L 148.43 193.06 C 149.31 192.90 149.88 192.07 149.72 191.19 C 149.57 190.32 148.73 189.74 147.86 189.90 Z M 146.79 190.10 L 145.82 190.27 C 144.94 190.42 144.35 191.25 144.51 192.12 C 144.66 193.00 145.49 193.58 146.36 193.43 L 147.34 193.26 C 148.21 193.11 148.80 192.28 148.65 191.41 C 148.50 190.53 147.67 189.95 146.79 190.10 Z M 145.83 190.26 L 144.97 190.41 C 144.09 190.55 143.50 191.38 143.64 192.26 C 143.79 193.13 144.62 193.72 145.49 193.58 L 146.35 193.43 C 147.23 193.29 147.82 192.46 147.67 191.59 C 147.53 190.71 146.70 190.12 145.83 190.26 Z M 144.97 190.41 L 143.98 190.57 C 143.11 190.71 142.51 191.54 142.66 192.41 C 142.80 193.29 143.63 193.88 144.50 193.74 L 145.49 193.58 C 146.37 193.44 146.96 192.61 146.82 191.73 C 146.67 190.86 145.85 190.26 144.97 190.41 Z M 144.01 190.56 L 143.03 190.71 C 142.15 190.84 141.55 191.66 141.68 192.54 C 141.81 193.41 142.63 194.02 143.50 193.89 L 144.48 193.74 C 145.36 193.61 145.96 192.80 145.83 191.92 C 145.70 191.04 144.88 190.43 144.01 190.56 Z M 143.05 190.71 L 142.06 190.84 C 141.18 190.96 140.56 191.77 140.68 192.65 C 140.80 193.53 141.62 194.15 142.50 194.03 L 143.48 193.89 C 144.37 193.77 144.98 192.96 144.86 192.08 C 144.74 191.20 143.93 190.59 143.05 190.71 Z M 142.05 190.84 L 141.06 190.98 C 140.18 191.11 139.57 191.92 139.70 192.80 C 139.82 193.68 140.64 194.30 141.52 194.17 L 142.51 194.03 C 143.39 193.90 144.00 193.09 143.87 192.21 C 143.75 191.33 142.93 190.71 142.05 190.84 Z M 141.05 190.98 L 140.06 191.13 C 139.18 191.27 138.57 192.09 138.71 192.97 C 138.84 193.85 139.66 194.45 140.54 194.32 L 141.53 194.17 C 142.41 194.03 143.02 193.21 142.88 192.33 C 142.75 191.45 141.93 190.85 141.05 190.98 Z M 140.06 191.13 L 139.06 191.28 C 138.18 191.42 137.58 192.24 137.71 193.12 C 137.84 194.00 138.66 194.60 139.54 194.47 L 140.54 194.32 C 141.42 194.19 142.03 193.37 141.89 192.49 C 141.76 191.61 140.94 191.00 140.06 191.13 Z M 139.07 191.28 L 138.08 191.43 C 137.20 191.55 136.59 192.37 136.72 193.25 C 136.85 194.14 137.66 194.75 138.55 194.62 L 139.54 194.47 C 140.42 194.34 141.03 193.53 140.90 192.64 C 140.77 191.76 139.95 191.15 139.07 191.28 Z M 138.08 191.42 L 137.09 191.57 C 136.21 191.70 135.60 192.52 135.73 193.40 C 135.86 194.28 136.68 194.89 137.56 194.76 L 138.55 194.62 C 139.43 194.49 140.04 193.67 139.91 192.79 C 139.78 191.90 138.96 191.29 138.08 191.42 Z M 137.08 191.57 L 136.09 191.73 C 135.21 191.87 134.61 192.69 134.75 193.57 C 134.89 194.45 135.71 195.06 136.60 194.92 L 137.58 194.76 C 138.46 194.62 139.06 193.80 138.92 192.92 C 138.78 192.04 137.96 191.43 137.08 191.57 Z M 136.06 191.73 L 135.06 191.91 C 134.18 192.06 133.60 192.90 133.75 193.78 C 133.91 194.66 134.74 195.25 135.62 195.09 L 136.63 194.91 C 137.50 194.76 138.09 193.92 137.94 193.04 C 137.78 192.16 136.94 191.58 136.06 191.73 Z M 135.03 191.91 L 134.03 192.11 C 133.15 192.28 132.58 193.13 132.75 194.01 C 132.92 194.88 133.77 195.45 134.65 195.28 L 135.65 195.09 C 136.53 194.91 137.10 194.06 136.93 193.19 C 136.76 192.31 135.91 191.74 135.03 191.91 Z M 134.02 192.11 L 133.05 192.30 C 132.18 192.48 131.61 193.33 131.79 194.21 C 131.96 195.08 132.81 195.65 133.69 195.48 L 134.65 195.28 C 135.53 195.11 136.10 194.25 135.92 193.38 C 135.75 192.50 134.90 191.94 134.02 192.11 Z M 133.07 192.30 L 132.06 192.49 C 131.19 192.66 130.61 193.51 130.78 194.39 C 130.95 195.27 131.80 195.84 132.67 195.67 L 133.68 195.48 C 134.55 195.31 135.13 194.46 134.96 193.58 C 134.79 192.71 133.94 192.13 133.07 192.30 Z M 132.06 192.49 L 131.15 192.67 C 130.27 192.84 129.70 193.69 129.87 194.57 C 130.04 195.45 130.89 196.02 131.77 195.85 L 132.68 195.67 C 133.56 195.50 134.13 194.65 133.96 193.77 C 133.79 192.90 132.94 192.32 132.06 192.49 Z M 131.09 192.68 L 130.14 192.90 C 129.26 193.11 128.72 193.98 128.92 194.85 C 129.12 195.72 129.99 196.26 130.86 196.06 L 131.82 195.84 C 132.69 195.64 133.24 194.77 133.04 193.90 C 132.83 193.02 131.97 192.48 131.09 192.68 Z M 130.05 192.93 L 129.08 193.21 C 128.22 193.46 127.73 194.35 127.98 195.21 C 128.23 196.07 129.12 196.57 129.98 196.32 L 130.95 196.04 C 131.81 195.79 132.30 194.89 132.06 194.03 C 131.81 193.17 130.91 192.68 130.05 192.93 Z M 129.01 193.23 L 128.05 193.56 C 127.20 193.85 126.75 194.77 127.04 195.61 C 127.33 196.46 128.25 196.91 129.09 196.62 L 130.06 196.29 C 130.90 196.01 131.36 195.08 131.07 194.24 C 130.78 193.39 129.86 192.94 129.01 193.23 Z M 127.96 193.59 L 126.99 193.98 C 126.16 194.32 125.76 195.26 126.09 196.09 C 126.43 196.92 127.37 197.32 128.20 196.99 L 129.18 196.59 C 130.01 196.26 130.41 195.31 130.07 194.48 C 129.74 193.65 128.79 193.25 127.96 193.59 Z M 126.87 194.04 L 125.93 194.51 C 125.13 194.91 124.81 195.88 125.21 196.68 C 125.61 197.48 126.58 197.81 127.38 197.40 L 128.32 196.93 C 129.12 196.53 129.44 195.56 129.04 194.76 C 128.64 193.96 127.67 193.63 126.87 194.04 Z M 125.76 194.61 L 124.99 195.12 C 124.24 195.62 124.04 196.62 124.54 197.37 C 125.03 198.11 126.04 198.31 126.79 197.82 L 127.56 197.30 C 128.30 196.81 128.50 195.80 128.00 195.06 C 127.51 194.31 126.50 194.11 125.76 194.61 Z M 124.72 195.34 L 124.01 196.08 C 123.39 196.72 123.41 197.75 124.05 198.37 C 124.70 198.99 125.72 198.97 126.34 198.33 L 127.05 197.59 C 127.67 196.95 127.66 195.92 127.01 195.30 C 126.37 194.68 125.34 194.70 124.72 195.34 Z M 123.76 196.41 L 123.30 197.25 C 122.86 198.03 123.14 199.02 123.92 199.45 C 124.70 199.89 125.69 199.61 126.13 198.83 L 126.59 198.00 C 127.03 197.21 126.75 196.23 125.97 195.79 C 125.19 195.35 124.20 195.63 123.76 196.41 Z M 123.18 197.52 L 122.86 198.46 C 122.57 199.31 123.02 200.23 123.87 200.52 C 124.72 200.81 125.64 200.35 125.93 199.50 L 126.25 198.56 C 126.53 197.71 126.08 196.79 125.23 196.50 C 124.38 196.22 123.46 196.67 123.18 197.52 Z M 122.80 198.66 L 122.62 199.57 C 122.44 200.45 123.00 201.31 123.88 201.49 C 124.76 201.67 125.61 201.10 125.79 200.22 L 125.98 199.31 C 126.16 198.43 125.59 197.58 124.72 197.40 C 123.84 197.22 122.98 197.78 122.80 198.66 Z M 122.59 199.72 L 122.48 200.72 C 122.39 201.61 123.03 202.41 123.92 202.50 C 124.81 202.60 125.61 201.96 125.71 201.07 L 125.82 200.07 C 125.91 199.18 125.27 198.38 124.38 198.29 C 123.49 198.19 122.69 198.83 122.59 199.72 Z M 122.48 200.82 L 122.43 201.85 C 122.38 202.75 123.08 203.51 123.97 203.55 C 124.86 203.59 125.62 202.90 125.67 202.01 L 125.71 200.97 C 125.76 200.08 125.07 199.32 124.17 199.27 C 123.28 199.23 122.52 199.92 122.48 200.82 Z M 122.43 201.90 L 122.41 202.90 C 122.39 203.79 123.11 204.53 124.00 204.55 C 124.90 204.56 125.63 203.85 125.65 202.96 L 125.67 201.96 C 125.68 201.06 124.97 200.33 124.07 200.31 C 123.18 200.29 122.44 201.01 122.43 201.90 Z M 122.41 202.92 L 122.40 203.96 C 122.40 204.85 123.12 205.58 124.02 205.59 C 124.91 205.59 125.64 204.87 125.65 203.97 L 125.65 202.93 C 125.65 202.04 124.93 201.31 124.04 201.31 C 123.14 201.30 122.41 202.02 122.41 202.92 Z M 122.40 203.96 L 122.40 205.04 C 122.40 205.93 123.13 206.66 124.02 206.66 C 124.92 206.66 125.65 205.93 125.65 205.04 L 125.65 203.96 C 125.65 203.07 124.92 202.34 124.02 202.34 C 123.13 202.34 122.40 203.07 122.40 203.96 Z M 122.40 205.04 L 122.41 206.09 C 122.41 206.98 123.14 207.71 124.03 207.71 C 124.93 207.70 125.65 206.98 125.65 206.08 L 125.65 205.04 C 125.64 204.14 124.92 203.42 124.02 203.42 C 123.13 203.42 122.40 204.15 122.40 205.04 Z M 122.41 206.10 L 122.42 207.01 C 122.43 207.91 123.16 208.63 124.05 208.62 C 124.95 208.61 125.67 207.87 125.66 206.98 L 125.65 206.07 C 125.64 205.17 124.90 204.45 124.01 204.46 C 123.11 204.47 122.40 205.21 122.41 206.10 Z M 122.42 207.05 L 122.45 208.03 C 122.48 208.92 123.23 209.63 124.12 209.60 C 125.02 209.57 125.72 208.82 125.69 207.92 L 125.66 206.94 C 125.63 206.05 124.88 205.35 123.98 205.38 C 123.09 205.41 122.39 206.15 122.42 207.05 Z M 122.45 208.09 L 122.52 209.07 C 122.58 209.97 123.36 210.64 124.25 210.58 C 125.14 210.52 125.82 209.74 125.75 208.85 L 125.69 207.86 C 125.62 206.97 124.85 206.30 123.96 206.36 C 123.06 206.42 122.39 207.20 122.45 208.09 Z M 122.52 209.12 L 122.61 210.00 C 122.69 210.89 123.49 211.54 124.38 211.46 C 125.27 211.37 125.92 210.58 125.84 209.69 L 125.75 208.81 C 125.67 207.92 124.87 207.26 123.98 207.35 C 123.09 207.43 122.44 208.23 122.52 209.12 Z M 122.61 210.03 L 122.73 211.03 C 122.83 211.92 123.63 212.56 124.52 212.45 C 125.41 212.35 126.05 211.55 125.95 210.66 L 125.83 209.66 C 125.73 208.77 124.93 208.13 124.04 208.23 C 123.15 208.34 122.51 209.14 122.61 210.03 Z M 122.73 211.06 L 122.88 212.16 C 123.00 213.05 123.82 213.67 124.70 213.55 C 125.59 213.43 126.21 212.62 126.09 211.73 L 125.94 210.63 C 125.82 209.74 125.01 209.12 124.12 209.24 C 123.23 209.36 122.61 210.17 122.73 211.06 Z M 122.88 212.19 L 123.04 213.19 C 123.17 214.08 124.00 214.69 124.88 214.55 C 125.77 214.42 126.38 213.59 126.24 212.71 L 126.09 211.70 C 125.96 210.82 125.13 210.21 124.24 210.34 C 123.36 210.48 122.75 211.30 122.88 212.19 Z M 123.04 213.21 L 123.21 214.23 C 123.35 215.11 124.19 215.71 125.07 215.56 C 125.95 215.42 126.55 214.58 126.41 213.70 L 126.24 212.68 C 126.09 211.80 125.26 211.20 124.37 211.35 C 123.49 211.50 122.89 212.33 123.04 213.21 Z M 123.21 214.25 L 123.38 215.21 C 123.54 216.10 124.38 216.68 125.27 216.52 C 126.15 216.36 126.73 215.52 126.57 214.64 L 126.40 213.68 C 126.24 212.80 125.40 212.21 124.52 212.37 C 123.64 212.53 123.05 213.37 123.21 214.25 Z M 123.39 215.25 L 123.61 216.31 C 123.78 217.19 124.64 217.76 125.52 217.58 C 126.39 217.40 126.96 216.55 126.78 215.67 L 126.57 214.61 C 126.39 213.73 125.54 213.16 124.66 213.34 C 123.78 213.52 123.21 214.37 123.39 215.25 Z M 123.62 216.37 L 123.85 217.32 C 124.06 218.19 124.94 218.73 125.81 218.52 C 126.68 218.30 127.21 217.43 127.00 216.56 L 126.77 215.61 C 126.56 214.74 125.68 214.21 124.81 214.42 C 123.94 214.63 123.41 215.50 123.62 216.37 Z M 123.87 217.41 L 124.13 218.26 C 124.39 219.12 125.29 219.61 126.15 219.35 C 127.00 219.09 127.49 218.19 127.23 217.33 L 126.98 216.48 C 126.72 215.62 125.82 215.13 124.96 215.39 C 124.10 215.65 123.62 216.55 123.87 217.41 Z M 124.16 218.36 L 124.49 219.24 C 124.80 220.08 125.73 220.51 126.57 220.20 C 127.41 219.89 127.84 218.96 127.53 218.12 L 127.20 217.24 C 126.89 216.40 125.96 215.97 125.12 216.28 C 124.28 216.59 123.85 217.52 124.16 218.36 Z M 124.52 219.32 L 124.95 220.31 C 125.30 221.13 126.26 221.50 127.08 221.14 C 127.90 220.79 128.28 219.83 127.92 219.01 L 127.49 218.03 C 127.14 217.21 126.18 216.84 125.36 217.19 C 124.54 217.55 124.16 218.50 124.52 219.32 Z M 124.97 220.35 L 125.40 221.25 C 125.78 222.06 126.75 222.40 127.55 222.02 C 128.36 221.63 128.71 220.67 128.32 219.86 L 127.90 218.96 C 127.51 218.16 126.55 217.81 125.74 218.20 C 124.93 218.58 124.59 219.55 124.97 220.35 Z M 125.41 221.28 L 125.87 222.20 C 126.27 223.00 127.24 223.33 128.04 222.93 C 128.84 222.53 129.17 221.55 128.77 220.75 L 128.31 219.83 C 127.91 219.03 126.93 218.70 126.13 219.10 C 125.33 219.50 125.01 220.48 125.41 221.28 Z M 125.89 222.23 L 126.35 223.12 C 126.77 223.91 127.75 224.22 128.54 223.80 C 129.33 223.39 129.64 222.41 129.22 221.62 L 128.75 220.73 C 128.34 219.93 127.36 219.63 126.57 220.04 C 125.78 220.46 125.47 221.44 125.89 222.23 Z M 126.38 223.16 L 126.90 224.09 C 127.34 224.87 128.32 225.15 129.10 224.71 C 129.88 224.27 130.16 223.28 129.72 222.50 L 129.20 221.57 C 128.76 220.79 127.77 220.52 126.99 220.96 C 126.21 221.39 125.94 222.38 126.38 223.16 Z M 126.93 224.15 L 127.45 224.97 C 127.92 225.73 128.91 225.97 129.67 225.50 C 130.43 225.02 130.67 224.03 130.20 223.27 L 129.68 222.44 C 129.21 221.68 128.22 221.45 127.46 221.92 C 126.70 222.39 126.46 223.39 126.93 224.15 Z M 127.48 225.03 L 128.01 225.80 C 128.52 226.54 129.52 226.73 130.26 226.23 C 131.00 225.72 131.19 224.71 130.68 223.98 L 130.16 223.21 C 129.65 222.47 128.64 222.28 127.91 222.78 C 127.17 223.29 126.98 224.30 127.48 225.03 Z M 128.05 225.85 L 128.63 226.64 C 129.16 227.36 130.17 227.51 130.89 226.97 C 131.61 226.44 131.76 225.43 131.23 224.71 L 130.65 223.93 C 130.12 223.21 129.10 223.06 128.38 223.59 C 127.67 224.12 127.52 225.13 128.05 225.85 Z M 128.66 226.68 L 129.31 227.49 C 129.86 228.19 130.88 228.31 131.58 227.75 C 132.28 227.19 132.40 226.18 131.84 225.48 L 131.19 224.67 C 130.64 223.97 129.62 223.85 128.92 224.41 C 128.22 224.96 128.10 225.98 128.66 226.68 Z M 129.34 227.53 L 129.98 228.29 C 130.56 228.97 131.58 229.06 132.26 228.48 C 132.94 227.90 133.03 226.88 132.45 226.20 L 131.81 225.44 C 131.23 224.76 130.21 224.67 129.53 225.25 C 128.84 225.83 128.76 226.85 129.34 227.53 Z M 130.01 228.32 L 130.68 229.08 C 131.28 229.74 132.30 229.80 132.97 229.20 C 133.64 228.60 133.69 227.58 133.09 226.91 L 132.42 226.16 C 131.82 225.50 130.80 225.44 130.13 226.04 C 129.47 226.63 129.41 227.66 130.01 228.32 Z M 130.72 229.11 L 131.41 229.84 C 132.03 230.49 133.06 230.51 133.70 229.89 C 134.35 229.28 134.37 228.25 133.76 227.60 L 133.06 226.88 C 132.44 226.23 131.42 226.21 130.77 226.82 C 130.12 227.44 130.10 228.47 130.72 229.11 Z M 131.46 229.89 L 132.18 230.58 C 132.82 231.20 133.84 231.19 134.47 230.55 C 135.09 229.90 135.07 228.88 134.43 228.26 L 133.71 227.56 C 133.07 226.94 132.04 226.95 131.42 227.60 C 130.80 228.24 130.82 229.26 131.46 229.89 Z M 132.23 230.64 L 132.98 231.29 C 133.65 231.88 134.67 231.82 135.27 231.14 C 135.86 230.47 135.79 229.45 135.12 228.86 L 134.37 228.20 C 133.70 227.61 132.68 227.68 132.09 228.35 C 131.50 229.02 131.56 230.04 132.23 230.64 Z M 133.05 231.35 L 133.82 231.96 C 134.52 232.51 135.54 232.39 136.09 231.69 C 136.65 230.99 136.53 229.97 135.83 229.42 L 135.05 228.81 C 134.35 228.25 133.33 228.37 132.78 229.07 C 132.23 229.77 132.34 230.79 133.05 231.35 Z M 133.89 232.01 L 134.69 232.58 C 135.42 233.09 136.43 232.92 136.95 232.19 C 137.46 231.46 137.29 230.45 136.56 229.94 L 135.76 229.37 C 135.03 228.85 134.02 229.02 133.50 229.75 C 132.99 230.48 133.16 231.49 133.89 232.01 Z M 134.76 232.63 L 135.62 233.17 C 136.38 233.64 137.38 233.42 137.85 232.66 C 138.33 231.91 138.10 230.91 137.35 230.43 L 136.49 229.89 C 135.73 229.41 134.73 229.64 134.26 230.39 C 133.78 231.15 134.01 232.15 134.76 232.63 Z M 135.70 233.21 L 136.58 233.70 C 137.36 234.14 138.35 233.86 138.78 233.08 C 139.22 232.30 138.94 231.31 138.16 230.88 L 137.27 230.38 C 136.49 229.95 135.51 230.23 135.07 231.01 C 134.64 231.79 134.92 232.78 135.70 233.21 Z M 136.65 233.74 L 137.55 234.19 C 138.35 234.58 139.32 234.26 139.72 233.46 C 140.12 232.65 139.79 231.68 138.99 231.29 L 138.09 230.84 C 137.29 230.44 136.32 230.77 135.92 231.57 C 135.52 232.37 135.85 233.34 136.65 233.74 Z M 137.61 234.21 L 138.53 234.62 C 139.34 234.99 140.30 234.62 140.66 233.81 C 141.03 232.99 140.66 232.03 139.85 231.67 L 138.93 231.26 C 138.11 230.89 137.16 231.26 136.79 232.08 C 136.43 232.89 136.79 233.85 137.61 234.21 Z M 138.58 234.65 L 139.51 235.03 C 140.34 235.36 141.29 234.96 141.62 234.13 C 141.96 233.30 141.56 232.36 140.73 232.02 L 139.79 231.65 C 138.97 231.31 138.02 231.71 137.69 232.54 C 137.35 233.37 137.75 234.31 138.58 234.65 Z M 139.56 235.04 L 140.50 235.39 C 141.34 235.70 142.27 235.27 142.58 234.44 C 142.89 233.60 142.46 232.67 141.63 232.36 L 140.68 232.01 C 139.84 231.70 138.91 232.12 138.60 232.96 C 138.29 233.80 138.72 234.73 139.56 235.04 Z M 140.54 235.40 L 141.47 235.73 C 142.32 236.02 143.24 235.57 143.53 234.72 C 143.82 233.88 143.37 232.96 142.53 232.67 L 141.59 232.34 C 140.75 232.05 139.82 232.50 139.53 233.35 C 139.24 234.19 139.69 235.11 140.54 235.40 Z M 141.49 235.73 L 142.43 236.04 C 143.28 236.32 144.19 235.86 144.47 235.01 C 144.75 234.16 144.29 233.25 143.44 232.97 L 142.51 232.66 C 141.66 232.38 140.74 232.84 140.46 233.69 C 140.18 234.54 140.64 235.45 141.49 235.73 Z M 142.43 236.04 L 143.38 236.35 C 144.23 236.63 145.14 236.16 145.42 235.31 C 145.70 234.47 145.23 233.55 144.38 233.27 L 143.44 232.97 C 142.59 232.69 141.67 233.15 141.40 234.00 C 141.12 234.85 141.58 235.77 142.43 236.04 Z M 143.37 236.35 L 144.32 236.67 C 145.17 236.95 146.09 236.49 146.37 235.65 C 146.65 234.80 146.20 233.88 145.35 233.60 L 144.39 233.28 C 143.55 232.99 142.63 233.45 142.35 234.30 C 142.06 235.15 142.52 236.06 143.37 236.35 Z M 144.30 236.66 L 145.25 237.00 C 146.10 237.29 147.02 236.85 147.32 236.01 C 147.62 235.17 147.17 234.24 146.33 233.94 L 145.37 233.61 C 144.53 233.31 143.61 233.75 143.31 234.59 C 143.01 235.44 143.45 236.36 144.30 236.66 Z M 145.23 236.99 L 146.18 237.34 C 147.01 237.65 147.95 237.23 148.26 236.39 C 148.57 235.55 148.14 234.62 147.31 234.31 L 146.36 233.95 C 145.52 233.64 144.59 234.07 144.28 234.91 C 143.96 235.74 144.39 236.67 145.23 236.99 Z M 146.15 237.33 L 147.07 237.69 C 147.90 238.01 148.84 237.60 149.17 236.77 C 149.49 235.94 149.08 235.00 148.25 234.67 L 147.33 234.32 C 146.50 233.99 145.56 234.40 145.23 235.24 C 144.91 236.07 145.32 237.01 146.15 237.33 Z M 147.05 237.68 L 148.02 238.08 C 148.84 238.41 149.79 238.01 150.13 237.19 C 150.46 236.36 150.07 235.41 149.24 235.08 L 148.27 234.68 C 147.44 234.35 146.50 234.74 146.16 235.57 C 145.82 236.40 146.22 237.34 147.05 237.68 Z M 148.01 238.07 L 148.93 238.45 C 149.75 238.79 150.70 238.40 151.04 237.57 C 151.38 236.75 150.99 235.80 150.16 235.46 L 149.25 235.08 C 148.42 234.74 147.47 235.13 147.13 235.96 C 146.79 236.78 147.18 237.73 148.01 238.07 Z M 148.95 238.46 L 149.85 238.82 C 150.68 239.15 151.62 238.74 151.95 237.91 C 152.28 237.08 151.87 236.14 151.04 235.81 L 150.14 235.45 C 149.31 235.12 148.37 235.53 148.04 236.36 C 147.71 237.19 148.12 238.13 148.95 238.46 Z M 149.89 238.83 L 150.83 239.18 C 151.67 239.48 152.60 239.05 152.91 238.21 C 153.21 237.37 152.78 236.44 151.94 236.14 L 151.00 235.79 C 150.16 235.49 149.23 235.92 148.92 236.76 C 148.62 237.60 149.05 238.53 149.89 238.83 Z M 150.88 239.19 L 151.81 239.50 C 152.66 239.79 153.58 239.33 153.86 238.48 C 154.14 237.63 153.68 236.72 152.83 236.43 L 151.90 236.12 C 151.05 235.84 150.14 236.30 149.85 237.15 C 149.57 238.00 150.03 238.91 150.88 239.19 Z M 151.85 239.52 L 152.83 239.81 C 153.69 240.07 154.59 239.59 154.85 238.74 C 155.11 237.88 154.63 236.98 153.77 236.72 L 152.79 236.42 C 151.94 236.16 151.03 236.64 150.77 237.50 C 150.51 238.35 151.00 239.26 151.85 239.52 Z M 152.89 239.83 L 153.83 240.08 C 154.69 240.31 155.58 239.80 155.81 238.93 C 156.04 238.07 155.52 237.18 154.66 236.95 L 153.72 236.70 C 152.85 236.47 151.97 236.99 151.74 237.85 C 151.51 238.72 152.02 239.60 152.89 239.83 Z M 153.91 240.10 L 154.91 240.31 C 155.79 240.49 156.65 239.93 156.83 239.05 C 157.01 238.18 156.45 237.32 155.57 237.14 L 154.57 236.93 C 153.70 236.75 152.84 237.31 152.66 238.19 C 152.48 239.06 153.04 239.92 153.91 240.10 Z M 155.00 240.33 L 155.96 240.47 C 156.84 240.60 157.67 239.99 157.80 239.11 C 157.93 238.22 157.32 237.40 156.44 237.27 L 155.48 237.12 C 154.60 236.99 153.77 237.60 153.64 238.49 C 153.51 239.37 154.12 240.19 155.00 240.33 Z M 156.04 240.48 L 157.01 240.58 C 157.90 240.66 158.69 240.02 158.78 239.13 C 158.87 238.24 158.22 237.44 157.33 237.35 L 156.36 237.26 C 155.47 237.17 154.68 237.82 154.59 238.71 C 154.50 239.60 155.15 240.39 156.04 240.48 Z M 157.09 240.58 L 158.10 240.63 C 159.00 240.68 159.76 239.99 159.80 239.10 C 159.85 238.20 159.16 237.44 158.27 237.40 L 157.25 237.35 C 156.36 237.30 155.60 237.99 155.56 238.88 C 155.51 239.78 156.20 240.54 157.09 240.58 Z M 158.16 240.63 L 159.16 240.65 C 160.05 240.66 160.79 239.95 160.80 239.05 C 160.81 238.16 160.10 237.42 159.20 237.41 L 158.21 237.40 C 157.31 237.38 156.58 238.10 156.57 238.99 C 156.55 239.89 157.27 240.62 158.16 240.63 Z M 159.18 240.65 L 160.20 240.65 C 161.09 240.65 161.82 239.93 161.82 239.03 C 161.82 238.14 161.10 237.41 160.20 237.41 L 159.18 237.41 C 158.29 237.41 157.56 238.13 157.56 239.03 C 157.56 239.92 158.28 240.65 159.18 240.65 Z M 160.20 240.65 L 161.18 240.65 C 162.08 240.65 162.80 239.93 162.80 239.03 C 162.80 238.14 162.08 237.41 161.18 237.41 L 160.20 237.41 C 159.30 237.41 158.58 238.14 158.58 239.03 C 158.58 239.93 159.30 240.65 160.20 240.65 Z M 161.18 240.65 L 162.20 240.65 C 163.10 240.65 163.82 239.93 163.82 239.03 C 163.82 238.14 163.10 237.41 162.20 237.41 L 161.18 237.41 C 160.29 237.41 159.56 238.14 159.56 239.03 C 159.56 239.93 160.29 240.65 161.18 240.65 Z M 162.20 240.65 L 163.17 240.65 C 164.07 240.65 164.79 239.93 164.79 239.03 C 164.79 238.14 164.07 237.41 163.17 237.41 L 162.20 237.41 C 161.31 237.41 160.58 238.14 160.58 239.03 C 160.58 239.93 161.31 240.65 162.20 240.65 Z M 163.17 240.65 L 164.18 240.65 C 165.07 240.65 165.80 239.93 165.80 239.03 C 165.80 238.14 165.07 237.41 164.18 237.41 L 163.17 237.41 C 162.28 237.41 161.55 238.14 161.55 239.03 C 161.55 239.93 162.28 240.65 163.17 240.65 Z M 164.18 240.65 L 165.20 240.65 C 166.10 240.65 166.82 239.93 166.82 239.03 C 166.82 238.14 166.10 237.41 165.20 237.41 L 164.18 237.41 C 163.29 237.41 162.56 238.14 162.56 239.03 C 162.56 239.93 163.29 240.65 164.18 240.65 Z M 165.20 240.65 L 166.21 240.65 C 167.10 240.65 167.83 239.93 167.83 239.03 C 167.83 238.14 167.10 237.41 166.21 237.41 L 165.20 237.41 C 164.31 237.41 163.58 238.14 163.58 239.03 C 163.58 239.93 164.31 240.65 165.20 240.65 Z M 166.21 240.65 L 167.21 240.65 C 168.10 240.65 168.83 239.93 168.83 239.03 C 168.83 238.14 168.10 237.41 167.21 237.41 L 166.21 237.41 C 165.31 237.41 164.59 238.14 164.59 239.03 C 164.59 239.93 165.31 240.65 166.21 240.65 Z M 167.21 240.65 L 168.23 240.65 C 169.12 240.65 169.85 239.92 169.85 239.03 C 169.85 238.13 169.12 237.41 168.23 237.41 L 167.21 237.41 C 166.31 237.41 165.59 238.14 165.59 239.03 C 165.59 239.93 166.32 240.65 167.21 240.65 Z M 168.25 240.65 L 169.25 240.63 C 170.15 240.62 170.86 239.88 170.85 238.99 C 170.83 238.09 170.09 237.38 169.20 237.39 L 168.20 237.41 C 167.31 237.43 166.59 238.16 166.61 239.06 C 166.62 239.95 167.36 240.66 168.25 240.65 Z M 169.31 240.63 L 170.28 240.58 C 171.17 240.53 171.85 239.77 171.81 238.88 C 171.76 237.98 171.00 237.30 170.10 237.35 L 169.14 237.40 C 168.25 237.44 167.56 238.21 167.61 239.10 C 167.66 239.99 168.42 240.68 169.31 240.63 Z M 170.36 240.57 L 171.31 240.47 C 172.20 240.38 172.84 239.58 172.75 238.70 C 172.66 237.81 171.86 237.16 170.97 237.25 L 170.02 237.35 C 169.13 237.44 168.49 238.24 168.58 239.13 C 168.67 240.02 169.47 240.67 170.36 240.57 Z M 171.37 240.47 L 172.39 240.32 C 173.27 240.19 173.89 239.37 173.76 238.48 C 173.63 237.60 172.81 236.98 171.92 237.11 L 170.91 237.26 C 170.02 237.39 169.41 238.21 169.54 239.10 C 169.67 239.98 170.49 240.59 171.37 240.47 Z M 172.42 240.31 L 173.44 240.14 C 174.32 239.99 174.91 239.16 174.76 238.28 C 174.62 237.39 173.78 236.80 172.90 236.95 L 171.89 237.12 C 171.00 237.27 170.41 238.10 170.56 238.99 C 170.71 239.87 171.54 240.46 172.42 240.31 Z M 173.46 240.14 L 174.48 239.95 C 175.36 239.79 175.94 238.95 175.78 238.07 C 175.61 237.19 174.77 236.60 173.89 236.77 L 172.88 236.95 C 172.00 237.11 171.41 237.96 171.58 238.84 C 171.74 239.72 172.58 240.30 173.46 240.14 Z M 174.50 239.95 L 175.47 239.75 C 176.35 239.57 176.92 238.72 176.74 237.84 C 176.57 236.97 175.71 236.40 174.84 236.58 L 173.86 236.77 C 172.99 236.95 172.42 237.80 172.60 238.68 C 172.77 239.55 173.62 240.12 174.50 239.95 Z M 175.52 239.74 L 176.55 239.51 C 177.42 239.31 177.96 238.44 177.77 237.57 C 177.57 236.69 176.70 236.15 175.83 236.35 L 174.79 236.58 C 173.92 236.78 173.38 237.65 173.58 238.52 C 173.78 239.40 174.64 239.94 175.52 239.74 Z M 176.61 239.49 L 177.54 239.24 C 178.40 239.00 178.91 238.11 178.68 237.25 C 178.45 236.39 177.56 235.88 176.69 236.11 L 175.76 236.36 C 174.90 236.60 174.39 237.49 174.62 238.35 C 174.86 239.21 175.75 239.72 176.61 239.49 Z M 177.60 239.22 L 178.52 238.93 C 179.37 238.66 179.85 237.75 179.58 236.90 C 179.31 236.05 178.40 235.57 177.55 235.84 L 176.63 236.13 C 175.78 236.40 175.30 237.31 175.57 238.16 C 175.84 239.01 176.75 239.49 177.60 239.22 Z M 178.58 238.91 L 179.53 238.57 C 180.37 238.27 180.81 237.34 180.51 236.50 C 180.21 235.66 179.28 235.22 178.44 235.52 L 177.49 235.86 C 176.65 236.16 176.21 237.09 176.51 237.93 C 176.81 238.77 177.74 239.21 178.58 238.91 Z M 179.62 238.54 L 180.54 238.14 C 181.36 237.79 181.74 236.84 181.39 236.02 C 181.04 235.20 180.09 234.82 179.27 235.17 L 178.35 235.56 C 177.53 235.91 177.14 236.86 177.49 237.68 C 177.84 238.50 178.80 238.89 179.62 238.54 Z M 180.63 238.10 L 181.52 237.65 C 182.31 237.25 182.63 236.28 182.23 235.48 C 181.83 234.68 180.85 234.36 180.06 234.76 L 179.17 235.21 C 178.37 235.62 178.05 236.59 178.46 237.39 C 178.86 238.18 179.83 238.50 180.63 238.10 Z M 181.57 237.62 L 182.43 237.15 C 183.21 236.71 183.49 235.73 183.05 234.95 C 182.62 234.17 181.63 233.89 180.85 234.32 L 180.00 234.79 C 179.22 235.23 178.94 236.21 179.37 236.99 C 179.81 237.78 180.79 238.06 181.57 237.62 Z M 182.46 237.13 L 183.32 236.62 C 184.09 236.16 184.35 235.17 183.89 234.40 C 183.44 233.63 182.45 233.38 181.68 233.83 L 180.82 234.34 C 180.05 234.79 179.79 235.78 180.25 236.55 C 180.70 237.32 181.69 237.58 182.46 237.13 Z M 183.35 236.60 L 184.18 236.08 C 184.94 235.61 185.17 234.62 184.70 233.86 C 184.23 233.10 183.23 232.87 182.48 233.34 L 181.65 233.85 C 180.89 234.32 180.66 235.32 181.13 236.08 C 181.60 236.84 182.59 237.07 183.35 236.60 Z M 184.22 236.06 L 185.04 235.52 C 185.78 235.03 185.99 234.03 185.50 233.28 C 185.01 232.54 184.01 232.33 183.26 232.82 L 182.44 233.36 C 181.69 233.85 181.49 234.85 181.98 235.60 C 182.47 236.35 183.47 236.55 184.22 236.06 Z M 185.08 235.49 L 185.94 234.89 C 186.67 234.38 186.84 233.37 186.33 232.64 C 185.81 231.91 184.81 231.73 184.08 232.25 L 183.22 232.85 C 182.49 233.36 182.31 234.37 182.83 235.10 C 183.34 235.83 184.35 236.01 185.08 235.49 Z M 185.97 234.86 L 186.74 234.29 C 187.46 233.75 187.60 232.74 187.07 232.03 C 186.53 231.31 185.52 231.17 184.81 231.70 L 184.04 232.27 C 183.32 232.81 183.18 233.82 183.71 234.54 C 184.25 235.25 185.26 235.40 185.97 234.86 Z M 186.77 234.26 L 187.57 233.63 C 188.27 233.08 188.39 232.07 187.84 231.36 C 187.29 230.66 186.28 230.54 185.57 231.09 L 184.77 231.72 C 184.07 232.28 183.95 233.29 184.50 233.99 C 185.06 234.69 186.07 234.81 186.77 234.26 Z M 187.60 233.61 L 188.41 232.94 C 189.10 232.37 189.20 231.35 188.63 230.66 C 188.06 229.98 187.04 229.88 186.36 230.45 L 185.54 231.12 C 184.86 231.69 184.76 232.71 185.33 233.39 C 185.90 234.08 186.92 234.18 187.60 233.61 Z M 188.44 232.91 L 189.25 232.21 C 189.92 231.63 189.99 230.61 189.40 229.93 C 188.82 229.26 187.80 229.19 187.13 229.78 L 186.33 230.47 C 185.65 231.06 185.58 232.08 186.17 232.75 C 186.75 233.42 187.77 233.49 188.44 232.91 Z M 189.27 232.18 L 190.01 231.51 C 190.67 230.91 190.72 229.89 190.12 229.23 C 189.52 228.57 188.50 228.53 187.84 229.13 L 187.10 229.80 C 186.44 230.40 186.40 231.42 187.00 232.08 C 187.60 232.74 188.62 232.79 189.27 232.18 Z M 190.05 231.48 L 190.75 230.80 C 191.38 230.18 191.40 229.16 190.78 228.52 C 190.16 227.88 189.14 227.87 188.50 228.48 L 187.80 229.16 C 187.17 229.78 187.15 230.80 187.77 231.44 C 188.39 232.08 189.41 232.09 190.05 231.48 Z M 190.80 230.74 L 191.50 229.98 C 192.11 229.33 192.07 228.32 191.43 227.71 C 190.78 227.11 189.76 227.14 189.16 227.79 L 188.45 228.55 C 187.85 229.19 187.88 230.21 188.53 230.81 C 189.18 231.42 190.19 231.38 190.80 230.74 Z M 191.57 229.89 L 192.14 229.19 C 192.70 228.50 192.60 227.50 191.92 226.94 C 191.23 226.38 190.23 226.48 189.67 227.17 L 189.09 227.87 C 188.53 228.56 188.64 229.57 189.32 230.12 C 190.01 230.68 191.01 230.58 191.57 229.89 Z M 192.20 229.10 L 192.78 228.29 C 193.28 227.58 193.12 226.58 192.40 226.08 C 191.69 225.57 190.69 225.74 190.19 226.45 L 189.61 227.26 C 189.10 227.97 189.27 228.97 189.99 229.47 C 190.70 229.98 191.69 229.81 192.20 229.10 Z M 192.83 228.19 L 193.35 227.33 C 193.80 226.59 193.56 225.62 192.81 225.17 C 192.07 224.72 191.10 224.95 190.65 225.70 L 190.13 226.55 C 189.68 227.30 189.92 228.27 190.66 228.72 C 191.41 229.17 192.38 228.93 192.83 228.19 Z M 193.41 227.19 L 193.84 226.28 C 194.22 225.50 193.89 224.57 193.11 224.20 C 192.33 223.82 191.39 224.15 191.02 224.93 L 190.59 225.84 C 190.21 226.62 190.54 227.56 191.32 227.93 C 192.10 228.30 193.04 227.97 193.41 227.19 Z M 193.91 226.06 L 194.20 225.10 C 194.45 224.29 194.00 223.42 193.18 223.17 C 192.37 222.92 191.50 223.38 191.25 224.20 L 190.96 225.15 C 190.71 225.97 191.16 226.83 191.98 227.08 C 192.79 227.33 193.66 226.88 193.91 226.06 Z M 194.21 224.93 L 194.40 223.95 C 194.56 223.13 194.02 222.34 193.20 222.18 C 192.38 222.03 191.59 222.56 191.43 223.38 L 191.24 224.36 C 191.09 225.18 191.62 225.98 192.44 226.13 C 193.26 226.29 194.05 225.75 194.21 224.93 Z M 194.39 223.92 L 194.41 223.79 C 194.55 222.97 194.00 222.20 193.19 222.07 C 192.37 221.93 191.60 222.48 191.47 223.29 L 191.44 223.42 C 191.31 224.23 191.85 225.00 192.67 225.14 C 193.48 225.28 194.25 224.73 194.39 223.92 Z"
      fill="black"
      fill-rule="nonzero" /></svg>