<svg xmlns="http://www.w3.org/2000/svg" width="300" height="300" viewBox="0 0 300 300">
<path d="M 114.19 139.06 L 113.19 138.52 C 112.48 138.13 111.59 138.39 111.20 139.10 C 110.81 139.82 111.07 140.71 111.79 141.10 L 112.78 141.64 C 113.50 142.03 114.39 141.77 114.78 141.05 C 115.17 140.34 114.90 139.45 114.19 139.06 Z M 111.85 138.46 L 111.34 138.70 C 110.59 139.05 110.27 139.94 110.62 140.69 C 110.97 141.43 111.86 141.75 112.61 141.40 L 113.13 141.16 C 113.87 140.81 114.19 139.92 113.84 139.17 C 113.49 138.42 112.60 138.10 111.85 138.46 Z M 110.47 140.20 L 110.59 141.32 C 110.67 142.15 111.41 142.75 112.24 142.66 C 113.07 142.58 113.67 141.84 113.59 141.01 L 113.47 139.90 C 113.39 139.07 112.65 138.47 111.82 138.55 C 110.99 138.63 110.39 139.37 110.47 140.20 Z M 110.64 141.61 L 110.89 142.42 C 111.14 143.22 111.99 143.67 112.79 143.42 C 113.58 143.17 114.03 142.33 113.78 141.53 L 113.53 140.72 C 113.29 139.92 112.44 139.47 111.64 139.72 C 110.84 139.96 110.39 140.81 110.64 141.61 Z M 110.93 142.53 L 111.31 143.50 C 111.61 144.28 112.49 144.66 113.27 144.36 C 114.05 144.05 114.44 143.18 114.13 142.40 L 113.75 141.42 C 113.44 140.64 112.56 140.26 111.78 140.56 C 111.01 140.87 110.62 141.75 110.93 142.53 Z M 111.32 143.55 L 111.76 144.56 C 112.09 145.33 112.98 145.69 113.75 145.36 C 114.52 145.03 114.88 144.14 114.55 143.37 L 114.11 142.35 C 113.78 141.58 112.89 141.22 112.12 141.55 C 111.35 141.88 110.99 142.78 111.32 143.55 Z M 111.77 144.58 L 112.19 145.53 C 112.52 146.30 113.42 146.65 114.19 146.31 C 114.96 145.97 115.30 145.08 114.97 144.31 L 114.55 143.35 C 114.21 142.59 113.31 142.24 112.54 142.58 C 111.78 142.91 111.43 143.81 111.77 144.58 Z M 112.19 145.54 L 112.61 146.49 C 112.95 147.26 113.85 147.61 114.62 147.27 C 115.38 146.93 115.73 146.03 115.39 145.26 L 114.97 144.31 C 114.63 143.54 113.73 143.19 112.96 143.53 C 112.19 143.87 111.85 144.77 112.19 145.54 Z M 112.60 146.49 L 112.98 147.35 C 113.32 148.12 114.22 148.48 114.99 148.14 C 115.76 147.80 116.11 146.90 115.77 146.13 L 115.39 145.27 C 115.06 144.50 114.16 144.15 113.39 144.48 C 112.62 144.82 112.27 145.72 112.60 146.49 Z M 112.97 147.33 L 113.42 148.41 C 113.74 149.18 114.64 149.55 115.41 149.23 C 116.19 148.90 116.56 148.01 116.23 147.23 L 115.78 146.16 C 115.46 145.38 114.57 145.01 113.79 145.34 C 113.01 145.66 112.65 146.55 112.97 147.33 Z M 113.41 148.38 L 113.72 149.17 C 114.02 149.96 114.91 150.34 115.69 150.04 C 116.48 149.73 116.87 148.84 116.56 148.06 L 116.25 147.26 C 115.94 146.48 115.06 146.09 114.27 146.40 C 113.49 146.71 113.10 147.59 113.41 148.38 Z M 113.72 149.19 L 114.08 150.07 C 114.39 150.85 115.28 151.23 116.06 150.92 C 116.85 150.60 117.22 149.71 116.91 148.93 L 116.55 148.05 C 116.24 147.26 115.35 146.89 114.57 147.20 C 113.79 147.51 113.41 148.40 113.72 149.19 Z M 114.07 150.06 L 114.44 150.99 C 114.75 151.78 115.63 152.16 116.42 151.85 C 117.20 151.54 117.59 150.66 117.28 149.87 L 116.92 148.94 C 116.61 148.16 115.72 147.77 114.93 148.08 C 114.15 148.39 113.76 149.27 114.07 150.06 Z M 114.42 150.95 L 114.76 151.89 C 115.05 152.68 115.93 153.09 116.72 152.81 C 117.51 152.52 117.92 151.64 117.64 150.85 L 117.30 149.91 C 117.01 149.12 116.13 148.71 115.34 149.00 C 114.55 149.28 114.14 150.16 114.42 150.95 Z M 114.76 151.90 L 115.11 152.84 C 115.40 153.63 116.28 154.04 117.07 153.75 C 117.87 153.45 118.27 152.57 117.98 151.78 L 117.64 150.84 C 117.34 150.05 116.47 149.64 115.67 149.93 C 114.88 150.23 114.47 151.10 114.76 151.90 Z M 115.12 152.85 L 115.47 153.79 C 115.77 154.58 116.66 154.98 117.45 154.68 C 118.24 154.38 118.63 153.49 118.33 152.70 L 117.98 151.77 C 117.67 150.98 116.79 150.58 116.00 150.88 C 115.21 151.18 114.81 152.06 115.12 152.85 Z M 115.47 153.79 L 115.82 154.72 C 116.12 155.51 117.00 155.91 117.80 155.61 C 118.59 155.31 118.99 154.42 118.69 153.63 L 118.33 152.71 C 118.04 151.92 117.15 151.52 116.36 151.82 C 115.57 152.12 115.17 153.00 115.47 153.79 Z M 115.82 154.70 L 116.16 155.65 C 116.45 156.44 117.33 156.85 118.13 156.56 C 118.92 156.26 119.33 155.38 119.04 154.59 L 118.69 153.65 C 118.40 152.85 117.52 152.45 116.73 152.74 C 115.93 153.03 115.52 153.91 115.82 154.70 Z M 116.16 155.63 L 116.49 156.56 C 116.77 157.36 117.65 157.77 118.44 157.49 C 119.24 157.21 119.66 156.33 119.37 155.53 L 119.04 154.60 C 118.76 153.81 117.88 153.39 117.09 153.67 C 116.29 153.96 115.87 154.83 116.16 155.63 Z M 116.49 156.56 L 116.83 157.52 C 117.11 158.32 117.99 158.74 118.78 158.45 C 119.58 158.17 120.00 157.29 119.72 156.50 L 119.38 155.53 C 119.09 154.74 118.22 154.32 117.42 154.60 C 116.62 154.88 116.20 155.76 116.49 156.56 Z M 116.83 157.52 L 117.16 158.47 C 117.45 159.27 118.32 159.69 119.12 159.40 C 119.92 159.12 120.34 158.24 120.06 157.44 L 119.72 156.49 C 119.43 155.70 118.56 155.28 117.76 155.56 C 116.96 155.85 116.54 156.72 116.83 157.52 Z M 117.16 158.46 L 117.48 159.40 C 117.76 160.21 118.63 160.63 119.43 160.36 C 120.23 160.08 120.66 159.21 120.39 158.41 L 120.06 157.46 C 119.79 156.66 118.91 156.23 118.11 156.51 C 117.31 156.78 116.88 157.65 117.16 158.46 Z M 117.47 159.38 L 117.79 160.34 C 118.05 161.14 118.92 161.58 119.73 161.32 C 120.53 161.05 120.97 160.18 120.71 159.38 L 120.39 158.43 C 120.13 157.62 119.26 157.18 118.45 157.45 C 117.65 157.71 117.21 158.58 117.47 159.38 Z M 117.79 160.35 L 118.11 161.29 C 118.38 162.09 119.25 162.52 120.06 162.25 C 120.86 161.98 121.29 161.10 121.02 160.30 L 120.70 159.36 C 120.43 158.56 119.56 158.13 118.75 158.40 C 117.95 158.67 117.52 159.55 117.79 160.35 Z M 118.11 161.30 L 118.45 162.25 C 118.73 163.05 119.61 163.47 120.41 163.19 C 121.21 162.90 121.63 162.03 121.35 161.23 L 121.01 160.28 C 120.73 159.48 119.85 159.06 119.05 159.34 C 118.25 159.62 117.83 160.50 118.11 161.30 Z M 118.44 162.23 L 118.76 163.18 C 119.03 163.99 119.90 164.42 120.71 164.15 C 121.51 163.88 121.95 163.01 121.68 162.20 L 121.35 161.25 C 121.08 160.44 120.21 160.01 119.41 160.28 C 118.60 160.55 118.17 161.42 118.44 162.23 Z M 118.75 163.16 L 119.05 164.10 C 119.31 164.91 120.17 165.36 120.98 165.11 C 121.79 164.85 122.24 163.99 121.98 163.18 L 121.69 162.23 C 121.43 161.42 120.57 160.97 119.76 161.23 C 118.95 161.48 118.50 162.35 118.75 163.16 Z M 119.05 164.09 L 119.34 165.05 C 119.59 165.87 120.45 166.32 121.26 166.07 C 122.07 165.83 122.53 164.97 122.28 164.15 L 121.99 163.19 C 121.74 162.38 120.88 161.92 120.07 162.17 C 119.25 162.42 118.80 163.28 119.05 164.09 Z M 119.34 165.05 L 119.62 165.99 C 119.87 166.80 120.73 167.26 121.54 167.02 C 122.36 166.77 122.82 165.91 122.57 165.10 L 122.28 164.16 C 122.04 163.34 121.18 162.88 120.36 163.13 C 119.55 163.38 119.09 164.24 119.34 165.05 Z M 119.62 165.99 L 119.91 166.94 C 120.16 167.76 121.02 168.22 121.83 167.97 C 122.65 167.72 123.11 166.86 122.86 166.05 L 122.57 165.10 C 122.32 164.28 121.46 163.82 120.65 164.07 C 119.83 164.32 119.37 165.18 119.62 165.99 Z M 119.91 166.94 L 120.20 167.91 C 120.45 168.73 121.31 169.19 122.12 168.94 C 122.94 168.70 123.40 167.84 123.16 167.02 L 122.86 166.05 C 122.62 165.23 121.76 164.77 120.94 165.02 C 120.12 165.26 119.66 166.12 119.91 166.94 Z M 120.20 167.90 L 120.48 168.86 C 120.72 169.68 121.58 170.15 122.40 169.91 C 123.21 169.67 123.68 168.81 123.44 167.99 L 123.16 167.03 C 122.92 166.21 122.06 165.75 121.24 165.99 C 120.43 166.23 119.96 167.08 120.20 167.90 Z M 120.47 168.84 L 120.74 169.81 C 120.97 170.63 121.82 171.12 122.64 170.89 C 123.46 170.66 123.94 169.81 123.72 168.99 L 123.45 168.02 C 123.22 167.20 122.37 166.71 121.55 166.94 C 120.73 167.17 120.25 168.02 120.47 168.84 Z M 120.73 169.78 L 120.97 170.73 C 121.18 171.56 122.02 172.05 122.85 171.84 C 123.68 171.63 124.18 170.79 123.97 169.96 L 123.73 169.02 C 123.52 168.19 122.67 167.69 121.85 167.90 C 121.02 168.11 120.52 168.95 120.73 169.78 Z M 120.97 170.71 L 121.20 171.67 C 121.39 172.50 122.23 173.01 123.06 172.82 C 123.89 172.62 124.40 171.78 124.20 170.95 L 123.97 169.99 C 123.78 169.16 122.94 168.64 122.11 168.84 C 121.28 169.04 120.77 169.87 120.97 170.71 Z M 121.19 171.65 L 121.41 172.62 C 121.59 173.46 122.42 173.98 123.25 173.80 C 124.08 173.61 124.61 172.79 124.43 171.96 L 124.21 170.98 C 124.02 170.14 123.20 169.62 122.37 169.80 C 121.53 169.99 121.01 170.81 121.19 171.65 Z M 121.40 172.60 L 121.60 173.59 C 121.77 174.42 122.59 174.96 123.42 174.79 C 124.26 174.63 124.80 173.81 124.63 172.97 L 124.43 171.98 C 124.26 171.15 123.45 170.60 122.61 170.77 C 121.77 170.94 121.23 171.76 121.40 172.60 Z M 121.59 173.55 L 121.77 174.53 C 121.92 175.37 122.73 175.93 123.57 175.78 C 124.41 175.63 124.97 174.83 124.81 173.99 L 124.64 173.01 C 124.49 172.16 123.68 171.61 122.84 171.76 C 122.00 171.91 121.44 172.71 121.59 173.55 Z M 121.77 174.51 L 121.93 175.50 C 122.06 176.34 122.86 176.92 123.70 176.78 C 124.54 176.64 125.12 175.85 124.98 175.00 L 124.82 174.01 C 124.68 173.17 123.89 172.59 123.04 172.73 C 122.20 172.87 121.63 173.66 121.77 174.51 Z M 121.92 175.49 L 122.07 176.45 C 122.20 177.30 122.99 177.88 123.84 177.75 C 124.68 177.62 125.26 176.83 125.13 175.98 L 124.98 175.02 C 124.85 174.17 124.06 173.59 123.22 173.72 C 122.37 173.85 121.79 174.64 121.92 175.49 Z M 122.07 176.45 L 122.22 177.45 C 122.35 178.29 123.14 178.87 123.99 178.74 C 124.83 178.62 125.41 177.83 125.28 176.98 L 125.13 175.98 C 125.00 175.14 124.22 174.56 123.37 174.69 C 122.52 174.81 121.94 175.60 122.07 176.45 Z M 122.22 177.45 L 122.38 178.45 C 122.50 179.29 123.29 179.87 124.14 179.75 C 124.99 179.62 125.57 178.83 125.44 177.98 L 125.28 176.98 C 125.16 176.13 124.37 175.55 123.52 175.68 C 122.67 175.81 122.09 176.60 122.22 177.45 Z M 122.37 178.44 L 122.52 179.44 C 122.65 180.29 123.44 180.87 124.28 180.75 C 125.13 180.62 125.71 179.83 125.59 178.99 L 125.44 177.99 C 125.31 177.14 124.52 176.56 123.68 176.68 C 122.83 176.81 122.25 177.60 122.37 178.44 Z M 122.52 179.42 L 122.66 180.42 C 122.77 181.27 123.55 181.86 124.40 181.75 C 125.25 181.63 125.84 180.85 125.73 180.01 L 125.59 179.01 C 125.47 178.16 124.69 177.57 123.85 177.68 C 123.00 177.80 122.41 178.58 122.52 179.42 Z M 122.65 180.39 L 122.77 181.40 C 122.87 182.25 123.64 182.85 124.49 182.75 C 125.34 182.65 125.95 181.89 125.85 181.04 L 125.73 180.03 C 125.63 179.18 124.86 178.58 124.01 178.68 C 123.16 178.78 122.55 179.54 122.65 180.39 Z M 122.77 181.38 L 122.87 182.36 C 122.97 183.21 123.73 183.82 124.58 183.73 C 125.43 183.64 126.05 182.88 125.95 182.03 L 125.85 181.05 C 125.76 180.20 124.99 179.58 124.14 179.68 C 123.29 179.77 122.68 180.53 122.77 181.38 Z M 122.87 182.36 L 122.98 183.36 C 123.07 184.21 123.84 184.82 124.69 184.73 C 125.54 184.64 126.15 183.87 126.06 183.02 L 125.95 182.02 C 125.86 181.17 125.10 180.56 124.25 180.65 C 123.40 180.74 122.78 181.51 122.87 182.36 Z M 122.98 183.36 L 123.09 184.35 C 123.19 185.20 123.95 185.81 124.80 185.72 C 125.65 185.63 126.26 184.86 126.17 184.01 L 126.06 183.02 C 125.97 182.17 125.20 181.56 124.35 181.65 C 123.50 181.74 122.89 182.51 122.98 183.36 Z M 123.09 184.35 L 123.20 185.36 C 123.30 186.21 124.07 186.82 124.92 186.72 C 125.77 186.62 126.38 185.86 126.28 185.01 L 126.17 184.01 C 126.07 183.16 125.31 182.54 124.46 182.64 C 123.61 182.74 123.00 183.50 123.09 184.35 Z M 123.21 185.37 L 123.33 186.35 C 123.43 187.20 124.20 187.81 125.05 187.71 C 125.90 187.60 126.50 186.83 126.40 185.98 L 126.28 185.00 C 126.18 184.15 125.41 183.54 124.56 183.64 C 123.71 183.75 123.10 184.52 123.21 185.37 Z M 123.33 186.37 L 123.46 187.38 C 123.57 188.22 124.35 188.82 125.20 188.71 C 126.05 188.59 126.65 187.81 126.53 186.96 L 126.40 185.96 C 126.29 185.11 125.51 184.52 124.66 184.63 C 123.81 184.75 123.21 185.53 123.33 186.37 Z M 123.46 187.39 L 123.60 188.37 C 123.72 189.22 124.50 189.81 125.35 189.69 C 126.20 189.57 126.79 188.79 126.67 187.94 L 126.53 186.95 C 126.41 186.11 125.63 185.52 124.78 185.63 C 123.93 185.75 123.34 186.54 123.46 187.39 Z M 123.60 188.36 L 123.72 189.22 C 123.83 190.07 124.62 190.66 125.46 190.54 C 126.31 190.43 126.90 189.65 126.79 188.80 L 126.67 187.94 C 126.56 187.10 125.77 186.50 124.93 186.62 C 124.08 186.73 123.48 187.52 123.60 188.36 Z M 123.72 189.22 L 123.85 190.18 C 123.96 191.03 124.74 191.62 125.59 191.51 C 126.44 191.39 127.03 190.61 126.92 189.76 L 126.79 188.80 C 126.67 187.95 125.89 187.36 125.04 187.47 C 124.20 187.59 123.60 188.37 123.72 189.22 Z M 123.85 190.19 L 124.00 191.27 C 124.12 192.12 124.90 192.71 125.75 192.59 C 126.60 192.47 127.19 191.69 127.07 190.84 L 126.92 189.76 C 126.80 188.91 126.02 188.32 125.17 188.44 C 124.32 188.55 123.73 189.34 123.85 190.19 Z M 124.00 191.27 L 124.13 192.19 C 124.25 193.03 125.03 193.62 125.88 193.50 C 126.73 193.38 127.32 192.60 127.20 191.75 L 127.07 190.84 C 126.95 189.99 126.16 189.40 125.32 189.52 C 124.47 189.64 123.88 190.43 124.00 191.27 Z M 124.13 192.18 L 124.27 193.19 C 124.39 194.04 125.17 194.63 126.02 194.51 C 126.87 194.39 127.46 193.61 127.34 192.76 L 127.20 191.75 C 127.08 190.90 126.30 190.31 125.45 190.43 C 124.60 190.55 124.01 191.33 124.13 192.18 Z M 124.27 193.19 L 124.41 194.24 C 124.53 195.09 125.31 195.69 126.16 195.57 C 127.00 195.46 127.60 194.68 127.49 193.83 L 127.34 192.77 C 127.23 191.92 126.45 191.33 125.60 191.44 C 124.75 191.56 124.15 192.34 124.27 193.19 Z M 124.41 194.23 L 124.55 195.31 C 124.65 196.16 125.43 196.76 126.28 196.65 C 127.13 196.54 127.73 195.77 127.62 194.92 L 127.49 193.84 C 127.38 192.99 126.60 192.39 125.75 192.50 C 124.90 192.60 124.30 193.38 124.41 194.23 Z M 124.54 195.29 L 124.67 196.41 C 124.77 197.26 125.54 197.87 126.39 197.78 C 127.24 197.68 127.85 196.91 127.75 196.06 L 127.63 194.94 C 127.53 194.09 126.76 193.47 125.91 193.57 C 125.06 193.67 124.45 194.44 124.54 195.29 Z M 124.67 196.40 L 124.78 197.43 C 124.87 198.28 125.63 198.90 126.48 198.81 C 127.33 198.72 127.95 197.96 127.86 197.11 L 127.76 196.08 C 127.67 195.22 126.91 194.60 126.05 194.69 C 125.20 194.78 124.58 195.54 124.67 196.40 Z M 124.78 197.41 L 124.86 198.32 C 124.94 199.18 125.70 199.81 126.55 199.73 C 127.40 199.65 128.03 198.89 127.95 198.04 L 127.87 197.13 C 127.79 196.27 127.03 195.64 126.18 195.72 C 125.32 195.80 124.70 196.56 124.78 197.41 Z M 124.86 198.31 L 124.93 199.23 C 125.00 200.08 125.75 200.72 126.61 200.65 C 127.46 200.58 128.10 199.83 128.03 198.98 L 127.95 198.06 C 127.88 197.20 127.13 196.57 126.28 196.63 C 125.43 196.70 124.79 197.45 124.86 198.31 Z M 124.93 199.20 L 124.99 200.15 C 125.05 201.01 125.79 201.65 126.64 201.60 C 127.50 201.54 128.15 200.80 128.09 199.95 L 128.03 199.00 C 127.97 198.15 127.23 197.50 126.38 197.55 C 125.52 197.61 124.88 198.35 124.93 199.20 Z M 124.99 200.14 L 125.05 201.14 C 125.10 202.00 125.83 202.65 126.68 202.61 C 127.54 202.56 128.19 201.83 128.15 200.97 L 128.09 199.96 C 128.04 199.11 127.31 198.45 126.46 198.50 C 125.60 198.55 124.94 199.28 124.99 200.14 Z M 125.05 201.15 L 125.10 202.07 C 125.15 202.92 125.88 203.58 126.74 203.53 C 127.59 203.48 128.25 202.74 128.20 201.89 L 128.15 200.97 C 128.10 200.11 127.36 199.46 126.51 199.51 C 125.65 199.56 125.00 200.29 125.05 201.15 Z M 125.10 202.06 L 125.16 203.09 C 125.21 203.95 125.94 204.60 126.80 204.56 C 127.65 204.51 128.31 203.77 128.26 202.92 L 128.20 201.89 C 128.15 201.03 127.42 200.38 126.56 200.43 C 125.71 200.48 125.05 201.21 125.10 202.06 Z M 125.16 203.09 L 125.21 204.13 C 125.26 204.99 125.99 205.65 126.85 205.60 C 127.70 205.56 128.36 204.83 128.31 203.97 L 128.26 202.92 C 128.21 202.07 127.48 201.41 126.63 201.46 C 125.77 201.50 125.11 202.23 125.16 203.09 Z M 125.21 204.12 L 125.26 205.18 C 125.30 206.04 126.02 206.70 126.88 206.66 C 127.74 206.62 128.40 205.90 128.36 205.04 L 128.31 203.98 C 128.28 203.13 127.55 202.46 126.69 202.50 C 125.84 202.54 125.17 203.27 125.21 204.12 Z M 125.26 205.16 L 125.30 206.17 C 125.33 207.02 126.04 207.69 126.90 207.66 C 127.76 207.63 128.43 206.91 128.40 206.05 L 128.36 205.05 C 128.33 204.20 127.61 203.53 126.76 203.56 C 125.90 203.59 125.23 204.31 125.26 205.16 Z M 125.30 206.15 L 125.32 207.11 C 125.35 207.97 126.06 208.64 126.92 208.62 C 127.78 208.59 128.45 207.88 128.43 207.02 L 128.40 206.07 C 128.37 205.21 127.66 204.53 126.80 204.56 C 125.95 204.58 125.27 205.30 125.30 206.15 Z M 125.32 207.11 L 125.35 208.10 C 125.37 208.95 126.08 209.63 126.94 209.61 C 127.80 209.59 128.47 208.87 128.45 208.02 L 128.43 207.02 C 128.40 206.17 127.69 205.49 126.83 205.51 C 125.98 205.54 125.30 206.25 125.32 207.11 Z M 125.35 208.10 L 125.38 209.11 C 125.40 209.97 126.12 210.64 126.97 210.62 C 127.83 210.59 128.51 209.88 128.48 209.02 L 128.45 208.01 C 128.43 207.16 127.71 206.48 126.86 206.51 C 126.00 206.53 125.32 207.24 125.35 208.10 Z M 125.38 209.12 L 125.41 210.11 C 125.44 210.97 126.16 211.64 127.02 211.61 C 127.88 211.58 128.55 210.86 128.52 210.00 L 128.48 209.01 C 128.45 208.16 127.73 207.49 126.87 207.52 C 126.02 207.55 125.35 208.26 125.38 209.12 Z M 125.41 210.13 L 125.46 211.08 C 125.50 211.94 126.23 212.60 127.09 212.56 C 127.94 212.52 128.60 211.79 128.56 210.93 L 128.51 209.98 C 128.47 209.12 127.74 208.46 126.89 208.50 C 126.03 208.55 125.37 209.27 125.41 210.13 Z M 125.46 211.13 L 125.54 212.11 C 125.61 212.96 126.36 213.60 127.22 213.53 C 128.07 213.46 128.71 212.71 128.64 211.86 L 128.56 210.88 C 128.49 210.03 127.74 209.39 126.88 209.46 C 126.03 209.53 125.39 210.28 125.46 211.13 Z M 125.55 212.18 L 125.68 213.22 C 125.79 214.07 126.57 214.67 127.42 214.56 C 128.27 214.46 128.87 213.68 128.76 212.83 L 128.63 211.79 C 128.52 210.94 127.75 210.33 126.89 210.44 C 126.04 210.55 125.44 211.33 125.55 212.18 Z M 125.69 213.28 L 125.85 214.21 C 125.99 215.05 126.79 215.62 127.63 215.48 C 128.48 215.34 129.05 214.54 128.91 213.70 L 128.75 212.77 C 128.61 211.92 127.81 211.35 126.97 211.49 C 126.12 211.63 125.55 212.43 125.69 213.28 Z M 125.85 214.25 L 126.05 215.24 C 126.21 216.08 127.03 216.63 127.87 216.46 C 128.71 216.30 129.26 215.48 129.10 214.64 L 128.90 213.65 C 128.74 212.81 127.92 212.26 127.08 212.43 C 126.24 212.59 125.69 213.41 125.85 214.25 Z M 126.06 215.28 L 126.29 216.30 C 126.47 217.13 127.30 217.66 128.14 217.47 C 128.98 217.29 129.50 216.46 129.31 215.62 L 129.09 214.60 C 128.90 213.77 128.07 213.24 127.23 213.43 C 126.40 213.61 125.87 214.44 126.06 215.28 Z M 126.30 216.34 L 126.54 217.31 C 126.75 218.14 127.59 218.64 128.43 218.43 C 129.26 218.22 129.76 217.38 129.55 216.55 L 129.31 215.58 C 129.10 214.75 128.25 214.24 127.42 214.45 C 126.59 214.66 126.09 215.51 126.30 216.34 Z M 126.55 217.35 L 126.81 218.28 C 127.04 219.10 127.90 219.58 128.73 219.35 C 129.55 219.12 130.03 218.26 129.80 217.43 L 129.54 216.51 C 129.31 215.68 128.45 215.20 127.62 215.44 C 126.80 215.67 126.32 216.53 126.55 217.35 Z M 126.82 218.31 L 127.12 219.26 C 127.37 220.07 128.24 220.53 129.06 220.28 C 129.88 220.02 130.34 219.15 130.08 218.33 L 129.79 217.39 C 129.53 216.57 128.66 216.12 127.85 216.37 C 127.03 216.63 126.57 217.50 126.82 218.31 Z M 127.13 219.29 L 127.46 220.27 C 127.73 221.09 128.61 221.52 129.43 221.25 C 130.24 220.97 130.68 220.09 130.40 219.28 L 130.07 218.30 C 129.80 217.49 128.91 217.05 128.10 217.32 C 127.29 217.60 126.85 218.48 127.13 219.29 Z M 127.47 220.30 L 127.81 221.25 C 128.10 222.06 128.99 222.48 129.80 222.19 C 130.60 221.90 131.02 221.01 130.73 220.20 L 130.39 219.25 C 130.10 218.45 129.21 218.03 128.41 218.32 C 127.60 218.61 127.18 219.50 127.47 220.30 Z M 127.82 221.27 L 128.17 222.20 C 128.47 223.00 129.36 223.40 130.17 223.10 C 130.97 222.80 131.37 221.90 131.07 221.10 L 130.72 220.18 C 130.42 219.38 129.53 218.97 128.72 219.27 C 127.92 219.58 127.52 220.47 127.82 221.27 Z M 128.17 222.22 L 128.55 223.16 C 128.86 223.96 129.76 224.35 130.56 224.04 C 131.36 223.73 131.75 222.82 131.44 222.03 L 131.06 221.08 C 130.75 220.28 129.85 219.89 129.05 220.21 C 128.25 220.52 127.86 221.42 128.17 222.22 Z M 128.56 223.19 L 128.95 224.13 C 129.27 224.92 130.18 225.30 130.97 224.97 C 131.77 224.65 132.14 223.74 131.82 222.95 L 131.43 222.00 C 131.10 221.21 130.19 220.83 129.40 221.16 C 128.61 221.49 128.23 222.40 128.56 223.19 Z M 128.96 224.16 L 129.36 225.08 C 129.70 225.87 130.62 226.23 131.40 225.89 C 132.19 225.54 132.55 224.63 132.21 223.84 L 131.81 222.92 C 131.46 222.13 130.55 221.77 129.76 222.12 C 128.98 222.46 128.62 223.37 128.96 224.16 Z M 129.37 225.11 L 129.85 226.14 C 130.21 226.92 131.13 227.26 131.91 226.90 C 132.69 226.54 133.03 225.62 132.67 224.84 L 132.19 223.81 C 131.83 223.03 130.91 222.69 130.13 223.05 C 129.35 223.41 129.01 224.34 129.37 225.11 Z M 129.86 226.17 L 130.34 227.13 C 130.71 227.90 131.64 228.22 132.41 227.84 C 133.18 227.46 133.50 226.53 133.12 225.76 L 132.65 224.81 C 132.27 224.04 131.34 223.72 130.57 224.10 C 129.80 224.47 129.49 225.40 129.86 226.17 Z M 130.35 227.16 L 130.79 228.02 C 131.18 228.78 132.12 229.08 132.88 228.68 C 133.64 228.29 133.94 227.36 133.55 226.59 L 133.11 225.74 C 132.72 224.98 131.78 224.68 131.02 225.07 C 130.26 225.46 129.96 226.40 130.35 227.16 Z M 130.80 228.04 L 131.20 228.78 C 131.60 229.53 132.54 229.81 133.30 229.41 C 134.05 229.00 134.34 228.06 133.93 227.31 L 133.54 226.57 C 133.13 225.82 132.19 225.53 131.44 225.94 C 130.68 226.34 130.40 227.28 130.80 228.04 Z M 131.21 228.80 L 131.75 229.75 C 132.17 230.50 133.12 230.76 133.86 230.34 C 134.61 229.92 134.87 228.97 134.45 228.23 L 133.92 227.28 C 133.50 226.53 132.55 226.27 131.80 226.69 C 131.06 227.11 130.79 228.06 131.21 228.80 Z M 131.78 229.81 L 132.27 230.60 C 132.73 231.32 133.69 231.55 134.41 231.09 C 135.14 230.64 135.36 229.68 134.91 228.95 L 134.42 228.17 C 133.96 227.44 133.01 227.22 132.28 227.67 C 131.55 228.13 131.33 229.08 131.78 229.81 Z M 132.31 230.65 L 132.84 231.43 C 133.33 232.13 134.29 232.32 135.00 231.83 C 135.71 231.35 135.89 230.38 135.40 229.67 L 134.87 228.90 C 134.39 228.19 133.42 228.01 132.71 228.50 C 132.01 228.98 131.83 229.95 132.31 230.65 Z M 132.88 231.47 L 133.48 232.28 C 133.99 232.97 134.96 233.12 135.65 232.61 C 136.33 232.10 136.48 231.12 135.97 230.44 L 135.37 229.63 C 134.86 228.94 133.89 228.79 133.20 229.30 C 132.51 229.81 132.36 230.79 132.88 231.47 Z M 133.52 232.34 L 134.18 233.14 C 134.72 233.81 135.70 233.91 136.36 233.36 C 137.02 232.82 137.12 231.84 136.58 231.18 L 135.92 230.38 C 135.38 229.71 134.40 229.62 133.74 230.16 C 133.08 230.70 132.98 231.68 133.52 232.34 Z M 134.24 233.22 L 134.94 233.97 C 135.52 234.59 136.51 234.63 137.13 234.04 C 137.76 233.46 137.79 232.47 137.21 231.85 L 136.51 231.10 C 135.93 230.48 134.95 230.44 134.32 231.03 C 133.69 231.61 133.66 232.59 134.24 233.22 Z M 135.02 234.05 L 135.75 234.72 C 136.38 235.30 137.36 235.26 137.94 234.63 C 138.52 234.00 138.48 233.02 137.85 232.44 L 137.13 231.77 C 136.50 231.19 135.52 231.22 134.93 231.85 C 134.35 232.48 134.39 233.46 135.02 234.05 Z M 135.83 234.79 L 136.61 235.42 C 137.28 235.95 138.26 235.84 138.80 235.17 C 139.33 234.50 139.22 233.52 138.55 232.99 L 137.77 232.37 C 137.10 231.83 136.12 231.94 135.59 232.61 C 135.05 233.28 135.16 234.26 135.83 234.79 Z M 136.70 235.48 L 137.54 236.06 C 138.24 236.54 139.21 236.36 139.70 235.66 C 140.18 234.95 140.00 233.98 139.30 233.50 L 138.46 232.92 C 137.76 232.44 136.79 232.62 136.30 233.32 C 135.82 234.03 136.00 235.00 136.70 235.48 Z M 137.63 236.11 L 138.47 236.61 C 139.21 237.05 140.16 236.81 140.60 236.07 C 141.03 235.33 140.79 234.38 140.05 233.94 L 139.21 233.44 C 138.47 233.01 137.52 233.25 137.08 233.99 C 136.65 234.72 136.89 235.68 137.63 236.11 Z M 138.56 236.66 L 139.41 237.09 C 140.18 237.47 141.11 237.16 141.49 236.40 C 141.88 235.63 141.57 234.70 140.80 234.32 L 139.96 233.89 C 139.19 233.51 138.26 233.82 137.87 234.58 C 137.49 235.35 137.80 236.28 138.56 236.66 Z M 139.51 237.13 L 140.42 237.52 C 141.21 237.85 142.12 237.47 142.45 236.68 C 142.78 235.89 142.41 234.98 141.62 234.65 L 140.70 234.27 C 139.91 233.94 139.00 234.31 138.67 235.10 C 138.34 235.89 138.72 236.80 139.51 237.13 Z M 140.49 237.54 L 141.48 237.90 C 142.29 238.19 143.18 237.78 143.47 236.97 C 143.76 236.16 143.34 235.28 142.54 234.98 L 141.55 234.63 C 140.74 234.33 139.85 234.75 139.56 235.56 C 139.27 236.36 139.69 237.25 140.49 237.54 Z M 141.51 237.91 L 142.50 238.25 C 143.31 238.52 144.19 238.08 144.47 237.27 C 144.74 236.46 144.31 235.58 143.49 235.30 L 142.51 234.97 C 141.69 234.70 140.81 235.13 140.54 235.95 C 140.27 236.76 140.70 237.64 141.51 237.91 Z M 142.51 238.25 L 143.48 238.57 C 144.29 238.83 145.17 238.39 145.43 237.58 C 145.70 236.76 145.26 235.89 144.44 235.62 L 143.48 235.30 C 142.67 235.03 141.79 235.48 141.52 236.29 C 141.26 237.10 141.70 237.98 142.51 238.25 Z M 143.47 238.56 L 144.43 238.88 C 145.24 239.15 146.12 238.72 146.39 237.90 C 146.66 237.09 146.22 236.21 145.41 235.94 L 144.45 235.62 C 143.64 235.35 142.76 235.79 142.49 236.60 C 142.22 237.41 142.66 238.29 143.47 238.56 Z M 144.43 238.88 L 145.34 239.19 C 146.15 239.46 147.03 239.02 147.30 238.21 C 147.57 237.40 147.14 236.52 146.32 236.25 L 145.42 235.94 C 144.60 235.67 143.72 236.10 143.45 236.92 C 143.18 237.73 143.61 238.61 144.43 238.88 Z M 145.37 239.20 L 146.26 239.47 C 147.08 239.73 147.95 239.27 148.20 238.45 C 148.46 237.63 148.00 236.76 147.18 236.51 L 146.29 236.23 C 145.47 235.98 144.60 236.44 144.35 237.26 C 144.09 238.08 144.55 238.95 145.37 239.20 Z M 146.31 239.49 L 147.25 239.75 C 148.08 239.97 148.93 239.49 149.16 238.66 C 149.39 237.84 148.90 236.98 148.08 236.75 L 147.13 236.50 C 146.31 236.27 145.45 236.75 145.22 237.58 C 145.00 238.41 145.48 239.26 146.31 239.49 Z M 147.29 239.76 L 148.32 240.01 C 149.15 240.22 149.99 239.72 150.20 238.88 C 150.40 238.05 149.90 237.21 149.07 237.00 L 148.04 236.75 C 147.21 236.54 146.37 237.04 146.16 237.87 C 145.95 238.71 146.46 239.55 147.29 239.76 Z M 148.35 240.02 L 149.33 240.24 C 150.16 240.43 150.99 239.91 151.18 239.07 C 151.37 238.23 150.85 237.40 150.01 237.21 L 149.03 236.99 C 148.20 236.81 147.37 237.33 147.18 238.17 C 146.99 239.00 147.51 239.83 148.35 240.02 Z M 149.36 240.25 L 150.34 240.45 C 151.18 240.61 152.00 240.07 152.17 239.23 C 152.34 238.39 151.79 237.57 150.95 237.40 L 149.97 237.21 C 149.13 237.04 148.32 237.58 148.15 238.42 C 147.98 239.26 148.52 240.08 149.36 240.25 Z M 150.38 240.45 L 151.37 240.63 C 152.22 240.77 153.02 240.21 153.17 239.36 C 153.32 238.52 152.75 237.72 151.91 237.57 L 150.91 237.40 C 150.07 237.25 149.26 237.81 149.12 238.66 C 148.97 239.50 149.53 240.30 150.38 240.45 Z M 151.41 240.63 L 152.41 240.78 C 153.25 240.91 154.04 240.33 154.17 239.48 C 154.30 238.63 153.71 237.84 152.87 237.71 L 151.87 237.56 C 151.02 237.44 150.23 238.02 150.11 238.87 C 149.98 239.71 150.56 240.50 151.41 240.63 Z M 152.44 240.79 L 153.44 240.91 C 154.29 241.02 155.06 240.42 155.17 239.57 C 155.28 238.72 154.68 237.94 153.83 237.84 L 152.83 237.71 C 151.98 237.60 151.21 238.20 151.10 239.05 C 150.99 239.90 151.59 240.68 152.44 240.79 Z M 153.47 240.92 L 154.46 241.02 C 155.31 241.11 156.08 240.49 156.17 239.64 C 156.25 238.79 155.64 238.02 154.78 237.94 L 153.79 237.83 C 152.94 237.74 152.18 238.36 152.09 239.21 C 152.00 240.07 152.62 240.83 153.47 240.92 Z M 154.50 241.03 L 155.49 241.10 C 156.35 241.17 157.09 240.53 157.16 239.68 C 157.23 238.83 156.59 238.08 155.74 238.01 L 154.74 237.93 C 153.89 237.86 153.14 238.50 153.08 239.36 C 153.01 240.21 153.65 240.96 154.50 241.03 Z M 155.53 241.11 L 156.53 241.16 C 157.38 241.20 158.11 240.54 158.16 239.69 C 158.20 238.83 157.54 238.10 156.69 238.06 L 155.69 238.01 C 154.84 237.96 154.11 238.62 154.06 239.48 C 154.02 240.33 154.68 241.06 155.53 241.11 Z M 156.57 241.16 L 157.61 241.19 C 158.47 241.21 159.18 240.53 159.20 239.68 C 159.22 238.82 158.55 238.11 157.69 238.08 L 156.65 238.06 C 155.79 238.04 155.08 238.71 155.06 239.57 C 155.04 240.42 155.71 241.14 156.57 241.16 Z M 157.64 241.19 L 158.66 241.20 C 159.52 241.20 160.22 240.52 160.23 239.66 C 160.24 238.80 159.55 238.10 158.69 238.09 L 157.66 238.08 C 156.81 238.08 156.11 238.76 156.10 239.62 C 156.09 240.48 156.78 241.18 157.64 241.19 Z M 158.68 241.20 L 159.64 241.20 C 160.49 241.20 161.19 240.50 161.19 239.65 C 161.19 238.79 160.50 238.10 159.64 238.09 L 158.68 238.09 C 157.82 238.09 157.13 238.79 157.12 239.64 C 157.12 240.50 157.82 241.20 158.68 241.20 Z M 159.64 241.20 L 160.66 241.20 C 161.52 241.20 162.21 240.50 162.21 239.65 C 162.21 238.79 161.52 238.09 160.66 238.09 L 159.64 238.09 C 158.78 238.09 158.09 238.79 158.09 239.65 C 158.09 240.50 158.78 241.20 159.64 241.20 Z M 160.66 241.20 L 161.61 241.20 C 162.47 241.20 163.16 240.50 163.16 239.64 C 163.16 238.79 162.46 238.09 161.61 238.09 L 160.66 238.09 C 159.80 238.09 159.11 238.79 159.11 239.65 C 159.11 240.51 159.80 241.20 160.66 241.20 Z M 161.65 241.20 L 162.66 241.17 C 163.52 241.14 164.19 240.43 164.17 239.57 C 164.14 238.71 163.43 238.04 162.57 238.06 L 161.56 238.09 C 160.70 238.12 160.03 238.83 160.05 239.69 C 160.08 240.55 160.79 241.22 161.65 241.20 Z M 162.82 241.16 L 163.82 241.02 C 164.68 240.91 165.27 240.13 165.16 239.28 C 165.04 238.42 164.26 237.83 163.41 237.94 L 162.41 238.08 C 161.56 238.19 160.96 238.97 161.07 239.82 C 161.19 240.67 161.97 241.27 162.82 241.16 Z M 163.99 240.99 L 164.95 240.75 C 165.78 240.54 166.29 239.70 166.08 238.87 C 165.87 238.03 165.03 237.53 164.20 237.74 L 163.24 237.97 C 162.41 238.18 161.90 239.03 162.11 239.86 C 162.32 240.69 163.16 241.20 163.99 240.99 Z M 165.02 240.73 L 165.98 240.45 C 166.80 240.20 167.27 239.33 167.02 238.51 C 166.77 237.69 165.91 237.22 165.08 237.47 L 164.13 237.75 C 163.30 238.00 162.84 238.87 163.08 239.69 C 163.33 240.51 164.20 240.98 165.02 240.73 Z M 166.05 240.42 L 166.99 240.08 C 167.80 239.79 168.22 238.90 167.93 238.10 C 167.64 237.29 166.75 236.87 165.94 237.16 L 165.01 237.49 C 164.20 237.78 163.78 238.67 164.07 239.48 C 164.36 240.29 165.25 240.71 166.05 240.42 Z M 167.08 240.05 L 168.00 239.66 C 168.79 239.32 169.16 238.41 168.82 237.62 C 168.48 236.83 167.57 236.46 166.78 236.80 L 165.86 237.19 C 165.07 237.53 164.70 238.44 165.04 239.23 C 165.37 240.02 166.29 240.39 167.08 240.05 Z M 168.07 239.63 L 168.97 239.19 C 169.74 238.82 170.07 237.89 169.69 237.11 C 169.32 236.34 168.39 236.01 167.61 236.39 L 166.71 236.82 C 165.94 237.20 165.61 238.13 165.99 238.90 C 166.36 239.68 167.29 240.00 168.07 239.63 Z M 169.05 239.16 L 169.92 238.67 C 170.67 238.25 170.94 237.30 170.52 236.55 C 170.10 235.80 169.15 235.52 168.40 235.94 L 167.53 236.43 C 166.78 236.85 166.51 237.80 166.93 238.55 C 167.35 239.30 168.30 239.58 169.05 239.16 Z M 170.00 238.63 L 170.84 238.09 C 171.57 237.62 171.78 236.65 171.31 235.92 C 170.84 235.20 169.87 234.99 169.15 235.45 L 168.31 235.99 C 167.58 236.46 167.37 237.43 167.84 238.16 C 168.31 238.88 169.28 239.09 170.00 238.63 Z M 170.90 238.05 L 171.72 237.46 C 172.43 236.96 172.59 235.99 172.09 235.28 C 171.59 234.58 170.62 234.41 169.91 234.91 L 169.09 235.49 C 168.38 235.99 168.22 236.97 168.72 237.68 C 169.22 238.38 170.20 238.55 170.90 238.05 Z M 171.80 237.41 L 172.58 236.78 C 173.25 236.24 173.36 235.25 172.82 234.58 C 172.28 233.90 171.29 233.80 170.62 234.34 L 169.84 234.96 C 169.16 235.51 169.05 236.49 169.60 237.17 C 170.14 237.84 171.12 237.95 171.80 237.41 Z M 172.69 236.68 L 173.41 235.98 C 174.03 235.38 174.05 234.39 173.44 233.77 C 172.84 233.15 171.85 233.13 171.23 233.73 L 170.51 234.43 C 169.89 235.04 169.87 236.03 170.48 236.65 C 171.08 237.27 172.07 237.29 172.69 236.68 Z M 173.49 235.90 L 174.15 235.17 C 174.72 234.52 174.67 233.53 174.02 232.95 C 173.38 232.38 172.38 232.43 171.81 233.08 L 171.15 233.81 C 170.57 234.46 170.63 235.45 171.28 236.03 C 171.92 236.61 172.91 236.55 173.49 235.90 Z M 174.19 235.12 L 174.82 234.35 C 175.37 233.67 175.27 232.69 174.60 232.14 C 173.93 231.59 172.94 231.69 172.39 232.36 L 171.76 233.13 C 171.21 233.80 171.31 234.79 171.98 235.34 C 172.65 235.89 173.64 235.79 174.19 235.12 Z M 174.88 234.27 L 175.47 233.46 C 175.97 232.76 175.82 231.78 175.11 231.27 C 174.41 230.76 173.43 230.92 172.92 231.62 L 172.33 232.43 C 171.83 233.13 171.98 234.12 172.69 234.63 C 173.39 235.13 174.37 234.98 174.88 234.27 Z M 175.52 233.39 L 176.06 232.54 C 176.53 231.81 176.31 230.84 175.58 230.37 C 174.85 229.90 173.88 230.12 173.41 230.85 L 172.87 231.70 C 172.40 232.43 172.61 233.40 173.35 233.87 C 174.08 234.34 175.05 234.12 175.52 233.39 Z M 176.10 232.48 L 176.60 231.62 C 177.03 230.86 176.77 229.90 176.02 229.47 C 175.27 229.03 174.31 229.29 173.87 230.04 L 173.37 230.91 C 172.94 231.66 173.20 232.62 173.95 233.06 C 174.70 233.49 175.66 233.23 176.10 232.48 Z M 176.63 231.57 L 177.10 230.68 C 177.50 229.91 177.21 228.96 176.44 228.55 C 175.67 228.14 174.72 228.43 174.31 229.20 L 173.84 230.09 C 173.43 230.86 173.73 231.81 174.50 232.22 C 175.26 232.63 176.22 232.34 176.63 231.57 Z M 177.12 230.64 L 177.55 229.77 C 177.94 228.99 177.62 228.04 176.84 227.66 C 176.06 227.27 175.11 227.59 174.73 228.37 L 174.29 229.24 C 173.91 230.02 174.22 230.97 175.00 231.35 C 175.78 231.74 176.73 231.42 177.12 230.64 Z M 177.56 229.76 L 178.00 228.84 C 178.38 228.06 178.06 227.12 177.27 226.73 C 176.49 226.35 175.55 226.68 175.16 227.46 L 174.72 228.38 C 174.34 229.16 174.66 230.11 175.45 230.49 C 176.23 230.87 177.18 230.54 177.56 229.76 Z M 178.00 228.85 L 178.44 227.95 C 178.83 227.17 178.51 226.22 177.72 225.84 C 176.94 225.45 175.99 225.77 175.61 226.56 L 175.17 227.46 C 174.78 228.24 175.10 229.19 175.89 229.57 C 176.67 229.96 177.62 229.63 178.00 228.85 Z M 178.45 227.94 L 178.89 227.02 C 179.26 226.23 178.93 225.29 178.14 224.92 C 177.35 224.54 176.41 224.87 176.04 225.66 L 175.60 226.57 C 175.22 227.36 175.56 228.30 176.34 228.68 C 177.13 229.06 178.08 228.72 178.45 227.94 Z M 178.91 226.97 L 179.32 226.03 C 179.66 225.23 179.29 224.30 178.49 223.96 C 177.69 223.61 176.76 223.98 176.41 224.78 L 176.01 225.72 C 175.66 226.52 176.03 227.45 176.84 227.79 C 177.64 228.14 178.57 227.77 178.91 226.97 Z M 179.34 225.97 L 179.70 225.04 C 180.01 224.23 179.60 223.31 178.78 223.00 C 177.96 222.69 177.05 223.10 176.74 223.92 L 176.38 224.85 C 176.07 225.66 176.48 226.58 177.30 226.89 C 178.12 227.20 179.03 226.79 179.34 225.97 Z M 179.71 225.02 L 180.04 224.09 C 180.34 223.27 179.91 222.36 179.09 222.06 C 178.27 221.77 177.36 222.19 177.06 223.02 L 176.73 223.94 C 176.43 224.76 176.86 225.67 177.68 225.97 C 178.50 226.27 179.41 225.84 179.71 225.02 Z M 180.05 224.08 L 180.38 223.14 C 180.67 222.31 180.24 221.41 179.41 221.12 C 178.59 220.83 177.68 221.26 177.39 222.08 L 177.06 223.03 C 176.76 223.85 177.20 224.76 178.02 225.05 C 178.85 225.34 179.75 224.91 180.05 224.08 Z M 180.39 223.11 L 180.70 222.16 C 180.98 221.33 180.53 220.43 179.70 220.16 C 178.87 219.88 177.97 220.33 177.69 221.16 L 177.38 222.11 C 177.10 222.94 177.55 223.84 178.38 224.12 C 179.21 224.39 180.11 223.94 180.39 223.11 Z M 180.72 222.13 L 181.01 221.17 C 181.27 220.33 180.80 219.45 179.96 219.19 C 179.12 218.93 178.23 219.40 177.98 220.24 L 177.68 221.19 C 177.42 222.03 177.89 222.92 178.73 223.18 C 179.57 223.44 180.46 222.97 180.72 222.13 Z M 181.02 221.15 L 181.30 220.18 C 181.54 219.34 181.06 218.46 180.22 218.21 C 179.38 217.97 178.49 218.45 178.25 219.30 L 177.97 220.26 C 177.72 221.10 178.21 221.99 179.05 222.23 C 179.89 222.47 180.77 221.99 181.02 221.15 Z M 181.30 220.17 L 181.58 219.20 C 181.81 218.36 181.32 217.48 180.48 217.24 C 179.63 217.00 178.75 217.50 178.52 218.34 L 178.24 219.31 C 178.01 220.15 178.50 221.03 179.34 221.27 C 180.19 221.51 181.07 221.01 181.30 220.17 Z M 181.58 219.20 L 181.84 218.25 C 182.08 217.41 181.59 216.53 180.74 216.29 C 179.90 216.05 179.02 216.55 178.78 217.39 L 178.52 218.34 C 178.28 219.19 178.77 220.06 179.62 220.30 C 180.46 220.54 181.34 220.05 181.58 219.20 Z M 181.84 218.26 L 182.12 217.31 C 182.36 216.46 181.87 215.58 181.02 215.34 C 180.18 215.10 179.30 215.59 179.06 216.43 L 178.78 217.38 C 178.54 218.23 179.03 219.11 179.88 219.35 C 180.72 219.59 181.60 219.10 181.84 218.26 Z M 182.12 217.31 L 182.39 216.34 C 182.64 215.49 182.15 214.61 181.31 214.37 C 180.46 214.13 179.58 214.61 179.34 215.46 L 179.06 216.43 C 178.81 217.27 179.30 218.16 180.14 218.40 C 180.99 218.64 181.87 218.16 182.12 217.31 Z M 182.40 216.33 L 182.67 215.36 C 182.91 214.51 182.42 213.63 181.57 213.39 C 180.73 213.15 179.85 213.65 179.61 214.49 L 179.33 215.46 C 179.09 216.31 179.59 217.19 180.43 217.43 C 181.28 217.67 182.16 217.18 182.40 216.33 Z M 182.68 215.33 L 182.94 214.37 C 183.16 213.52 182.65 212.65 181.80 212.42 C 180.95 212.20 180.08 212.70 179.86 213.55 L 179.60 214.52 C 179.38 215.37 179.88 216.24 180.73 216.46 C 181.58 216.69 182.46 216.18 182.68 215.33 Z M 182.95 214.33 L 183.18 213.35 C 183.38 212.49 182.85 211.64 181.99 211.43 C 181.13 211.23 180.28 211.76 180.08 212.62 L 179.85 213.59 C 179.64 214.45 180.17 215.31 181.03 215.51 C 181.89 215.71 182.74 215.18 182.95 214.33 Z M 183.18 213.33 L 183.39 212.38 C 183.59 211.52 183.05 210.67 182.19 210.48 C 181.33 210.28 180.48 210.82 180.28 211.68 L 180.07 212.64 C 179.88 213.50 180.42 214.35 181.28 214.54 C 182.14 214.73 182.99 214.19 183.18 213.33 Z M 183.39 212.38 L 183.61 211.42 C 183.80 210.56 183.26 209.71 182.41 209.52 C 181.55 209.32 180.69 209.86 180.50 210.72 L 180.28 211.68 C 180.09 212.54 180.63 213.39 181.49 213.58 C 182.35 213.78 183.20 213.24 183.39 212.38 Z M 183.61 211.41 L 183.83 210.42 C 184.02 209.56 183.48 208.71 182.62 208.52 C 181.76 208.33 180.90 208.87 180.72 209.73 L 180.50 210.73 C 180.31 211.59 180.85 212.44 181.71 212.63 C 182.57 212.82 183.42 212.27 183.61 211.41 Z M 183.84 210.41 L 184.04 209.45 C 184.22 208.59 183.67 207.74 182.80 207.56 C 181.94 207.38 181.09 207.93 180.91 208.80 L 180.71 209.75 C 180.53 210.61 181.08 211.46 181.94 211.64 C 182.81 211.82 183.66 211.27 183.84 210.41 Z M 184.04 209.45 L 184.25 208.44 C 184.43 207.57 183.87 206.73 183.01 206.55 C 182.14 206.37 181.29 206.93 181.11 207.79 L 180.91 208.80 C 180.73 209.67 181.28 210.51 182.15 210.69 C 183.02 210.87 183.86 210.32 184.04 209.45 Z M 184.25 208.44 L 184.45 207.49 C 184.63 206.62 184.07 205.78 183.21 205.59 C 182.34 205.41 181.49 205.97 181.31 206.84 L 181.11 207.79 C 180.93 208.66 181.49 209.51 182.36 209.69 C 183.22 209.87 184.07 209.31 184.25 208.44 Z M 184.46 207.49 L 184.66 206.51 C 184.84 205.64 184.27 204.79 183.40 204.61 C 182.53 204.43 181.69 204.99 181.51 205.86 L 181.31 206.84 C 181.13 207.71 181.69 208.56 182.56 208.74 C 183.43 208.92 184.28 208.36 184.46 207.49 Z M 184.66 206.50 L 184.86 205.49 C 185.03 204.62 184.47 203.77 183.59 203.60 C 182.72 203.43 181.87 204.00 181.70 204.87 L 181.50 205.87 C 181.33 206.74 181.90 207.59 182.77 207.76 C 183.64 207.94 184.49 207.37 184.66 206.50 Z M 184.87 205.48 L 185.05 204.53 C 185.21 203.66 184.64 202.81 183.76 202.65 C 182.89 202.48 182.04 203.06 181.88 203.93 L 181.70 204.88 C 181.53 205.76 182.10 206.60 182.98 206.77 C 183.86 206.93 184.70 206.36 184.87 205.48 Z M 185.05 204.53 L 185.23 203.53 C 185.39 202.66 184.81 201.82 183.94 201.65 C 183.06 201.49 182.22 202.07 182.06 202.95 L 181.87 203.94 C 181.71 204.82 182.29 205.66 183.17 205.82 C 184.04 205.98 184.89 205.40 185.05 204.53 Z M 185.23 203.53 L 185.42 202.51 C 185.58 201.64 185.00 200.79 184.12 200.63 C 183.24 200.47 182.40 201.06 182.24 201.93 L 182.05 202.95 C 181.89 203.83 182.47 204.67 183.35 204.83 C 184.23 204.99 185.07 204.41 185.23 203.53 Z M 185.42 202.51 L 185.60 201.54 C 185.76 200.66 185.18 199.81 184.30 199.65 C 183.42 199.49 182.58 200.07 182.42 200.95 L 182.24 201.93 C 182.08 202.81 182.66 203.65 183.54 203.81 C 184.42 203.98 185.26 203.39 185.42 202.51 Z M 185.60 201.53 L 185.78 200.54 C 185.94 199.66 185.36 198.82 184.48 198.66 C 183.60 198.50 182.76 199.08 182.60 199.96 L 182.42 200.95 C 182.26 201.83 182.84 202.68 183.72 202.84 C 184.60 203.00 185.44 202.41 185.60 201.53 Z M 185.78 200.54 L 185.96 199.55 C 186.12 198.68 185.54 197.83 184.66 197.67 C 183.78 197.51 182.94 198.10 182.78 198.98 L 182.60 199.96 C 182.44 200.84 183.02 201.68 183.90 201.84 C 184.78 202.00 185.62 201.42 185.78 200.54 Z M 185.96 199.55 L 186.14 198.54 C 186.30 197.66 185.72 196.82 184.84 196.66 C 183.96 196.50 183.11 197.09 182.96 197.97 L 182.77 198.98 C 182.62 199.86 183.20 200.70 184.08 200.86 C 184.96 201.02 185.80 200.43 185.96 199.55 Z M 186.14 198.54 L 186.32 197.56 C 186.48 196.68 185.89 195.84 185.01 195.68 C 184.13 195.52 183.29 196.11 183.13 196.99 L 182.95 197.97 C 182.80 198.85 183.38 199.69 184.26 199.85 C 185.15 200.01 185.99 199.42 186.14 198.54 Z M 186.32 197.56 L 186.49 196.59 C 186.65 195.71 186.06 194.87 185.18 194.71 C 184.30 194.56 183.46 195.14 183.30 196.02 L 183.13 196.99 C 182.97 197.87 183.56 198.71 184.44 198.87 C 185.32 199.03 186.16 198.44 186.32 197.56 Z M 186.49 196.60 L 186.67 195.61 C 186.83 194.72 186.24 193.88 185.36 193.72 C 184.48 193.56 183.64 194.15 183.48 195.03 L 183.30 196.02 C 183.14 196.90 183.73 197.75 184.61 197.90 C 185.49 198.06 186.34 197.48 186.49 196.60 Z M 186.67 195.61 L 186.85 194.62 C 187.01 193.74 186.42 192.89 185.54 192.73 C 184.66 192.58 183.82 193.16 183.66 194.04 L 183.48 195.03 C 183.32 195.91 183.91 196.76 184.79 196.92 C 185.67 197.07 186.51 196.49 186.67 195.61 Z M 186.85 194.62 L 187.03 193.64 C 187.18 192.76 186.60 191.92 185.71 191.76 C 184.83 191.60 183.99 192.19 183.83 193.07 L 183.66 194.05 C 183.50 194.93 184.09 195.77 184.97 195.93 C 185.85 196.09 186.69 195.50 186.85 194.62 Z M 187.03 193.64 L 187.20 192.64 C 187.36 191.76 186.77 190.91 185.88 190.76 C 185.00 190.61 184.16 191.20 184.00 192.08 L 183.83 193.08 C 183.67 193.96 184.26 194.80 185.15 194.96 C 186.03 195.11 186.87 194.52 187.03 193.64 Z M 187.20 192.63 L 187.37 191.64 C 187.52 190.76 186.92 189.92 186.04 189.77 C 185.16 189.62 184.32 190.22 184.17 191.10 L 184.00 192.09 C 183.85 192.97 184.45 193.81 185.33 193.96 C 186.21 194.11 187.05 193.51 187.20 192.63 Z M 187.37 191.63 L 187.53 190.66 C 187.67 189.78 187.07 188.95 186.19 188.80 C 185.31 188.66 184.47 189.26 184.33 190.14 L 184.17 191.11 C 184.03 191.99 184.63 192.83 185.51 192.97 C 186.39 193.12 187.23 192.52 187.37 191.63 Z M 187.53 190.65 L 187.68 189.67 C 187.82 188.78 187.21 187.95 186.33 187.82 C 185.45 187.68 184.62 188.29 184.48 189.17 L 184.33 190.16 C 184.19 191.04 184.80 191.87 185.68 192.00 C 186.56 192.14 187.39 191.54 187.53 190.65 Z M 187.68 189.65 L 187.83 188.67 C 187.96 187.79 187.35 186.96 186.46 186.83 C 185.58 186.70 184.76 187.31 184.63 188.20 L 184.48 189.18 C 184.35 190.07 184.96 190.89 185.84 191.02 C 186.73 191.15 187.55 190.54 187.68 189.65 Z M 187.83 188.66 L 187.97 187.68 C 188.09 186.80 187.48 185.98 186.59 185.85 C 185.71 185.73 184.89 186.34 184.76 187.23 L 184.62 188.21 C 184.50 189.09 185.11 189.91 186.00 190.03 C 186.88 190.16 187.70 189.54 187.83 188.66 Z M 187.97 187.67 L 188.10 186.72 C 188.22 185.83 187.59 185.02 186.71 184.90 C 185.83 184.78 185.01 185.40 184.89 186.28 L 184.76 187.24 C 184.64 188.12 185.26 188.94 186.15 189.06 C 187.03 189.18 187.85 188.56 187.97 187.67 Z M 188.10 186.70 L 188.22 185.69 C 188.33 184.81 187.70 184.00 186.82 183.89 C 185.93 183.78 185.13 184.41 185.01 185.29 L 184.89 186.30 C 184.78 187.19 185.41 187.99 186.29 188.10 C 187.18 188.21 187.99 187.59 188.10 186.70 Z M 188.23 185.67 L 188.34 184.65 C 188.44 183.77 187.80 182.97 186.91 182.87 C 186.02 182.77 185.22 183.41 185.13 184.30 L 185.01 185.32 C 184.91 186.20 185.55 187.00 186.44 187.10 C 187.33 187.20 188.13 186.56 188.23 185.67 Z M 188.34 184.63 L 188.44 183.65 C 188.52 182.76 187.87 181.97 186.98 181.88 C 186.10 181.80 185.31 182.45 185.22 183.34 L 185.12 184.32 C 185.04 185.21 185.69 186.00 186.58 186.08 C 187.46 186.17 188.25 185.52 188.34 184.63 Z M 188.44 183.63 L 188.52 182.62 C 188.60 181.73 187.94 180.95 187.05 180.87 C 186.16 180.80 185.38 181.46 185.31 182.35 L 185.22 183.35 C 185.14 184.24 185.80 185.02 186.69 185.10 C 187.58 185.18 188.36 184.52 188.44 183.63 Z M 188.52 182.60 L 188.60 181.59 C 188.66 180.70 188.00 179.93 187.11 179.86 C 186.22 179.80 185.44 180.46 185.38 181.35 L 185.30 182.36 C 185.24 183.25 185.91 184.03 186.80 184.09 C 187.68 184.16 188.46 183.49 188.52 182.60 Z M 188.60 181.57 L 188.66 180.56 C 188.71 179.67 188.04 178.91 187.15 178.86 C 186.26 178.80 185.49 179.48 185.44 180.37 L 185.38 181.37 C 185.32 182.26 186.00 183.03 186.89 183.08 C 187.78 183.13 188.54 182.46 188.60 181.57 Z M 188.66 180.54 L 188.71 179.55 C 188.75 178.66 188.07 177.90 187.18 177.86 C 186.29 177.82 185.53 178.50 185.49 179.39 L 185.44 180.38 C 185.40 181.27 186.08 182.03 186.97 182.07 C 187.86 182.12 188.62 181.43 188.66 180.54 Z M 188.71 179.53 L 188.75 178.54 C 188.78 177.65 188.09 176.90 187.20 176.86 C 186.31 176.83 185.56 177.52 185.53 178.41 L 185.49 179.41 C 185.45 180.29 186.15 181.04 187.04 181.08 C 187.92 181.12 188.67 180.42 188.71 179.53 Z M 188.75 178.53 L 188.78 177.54 C 188.81 176.65 188.11 175.91 187.22 175.88 C 186.33 175.85 185.59 176.55 185.56 177.44 L 185.53 178.42 C 185.50 179.31 186.20 180.06 187.09 180.08 C 187.98 180.11 188.72 179.42 188.75 178.53 Z M 188.78 177.53 L 188.81 176.54 C 188.83 175.65 188.13 174.91 187.24 174.89 C 186.35 174.87 185.61 175.57 185.59 176.46 L 185.56 177.44 C 185.54 178.33 186.24 179.07 187.13 179.10 C 188.02 179.12 188.76 178.42 188.78 177.53 Z M 188.81 176.53 L 188.83 175.53 C 188.85 174.64 188.15 173.91 187.26 173.88 C 186.37 173.86 185.63 174.57 185.61 175.46 L 185.59 176.46 C 185.57 177.35 186.27 178.09 187.16 178.11 C 188.05 178.13 188.79 177.42 188.81 176.53 Z M 188.83 175.53 L 188.85 174.51 C 188.87 173.62 188.16 172.89 187.28 172.87 C 186.39 172.85 185.65 173.55 185.63 174.44 L 185.61 175.46 C 185.59 176.35 186.30 177.08 187.19 177.10 C 188.07 177.12 188.81 176.41 188.83 175.53 Z M 188.85 174.51 L 188.87 173.51 C 188.88 172.62 188.18 171.89 187.29 171.87 C 186.41 171.85 185.67 172.56 185.66 173.44 L 185.64 174.44 C 185.62 175.33 186.32 176.06 187.21 176.08 C 188.10 176.10 188.83 175.39 188.85 174.51 Z M 188.86 173.50 L 188.88 172.50 C 188.90 171.61 188.19 170.88 187.31 170.87 C 186.43 170.85 185.69 171.55 185.68 172.44 L 185.66 173.44 C 185.64 174.33 186.35 175.06 187.23 175.08 C 188.12 175.09 188.85 174.39 188.86 173.50 Z M 188.88 172.49 L 188.89 171.49 C 188.91 170.61 188.20 169.88 187.32 169.87 C 186.44 169.86 185.71 170.56 185.70 171.45 L 185.68 172.44 C 185.67 173.33 186.37 174.05 187.26 174.07 C 188.14 174.08 188.87 173.38 188.88 172.49 Z M 188.89 171.49 L 188.90 170.47 C 188.91 169.59 188.20 168.87 187.32 168.86 C 186.44 168.85 185.72 169.56 185.71 170.44 L 185.70 171.45 C 185.69 172.33 186.40 173.06 187.28 173.06 C 188.16 173.07 188.88 172.37 188.89 171.49 Z M 188.90 170.46 L 188.90 169.44 C 188.91 168.56 188.20 167.85 187.32 167.84 C 186.44 167.84 185.72 168.55 185.72 169.43 L 185.71 170.45 C 185.71 171.33 186.42 172.04 187.30 172.05 C 188.18 172.05 188.89 171.34 188.90 170.46 Z M 188.90 169.44 L 188.90 168.45 C 188.90 167.57 188.19 166.86 187.32 166.85 C 186.44 166.85 185.73 167.56 185.72 168.44 L 185.72 169.43 C 185.72 170.31 186.43 171.02 187.31 171.02 C 188.19 171.02 188.90 170.31 188.90 169.44 Z M 188.90 168.44 L 188.90 167.47 C 188.90 166.60 188.19 165.89 187.31 165.89 C 186.44 165.89 185.73 166.60 185.73 167.47 L 185.73 168.44 C 185.73 169.32 186.44 170.03 187.31 170.03 C 188.19 170.03 188.90 169.32 188.90 168.44 Z M 188.90 167.47 L 188.90 166.46 C 188.90 165.58 188.19 164.88 187.31 164.88 C 186.44 164.88 185.73 165.58 185.73 166.46 L 185.73 167.47 C 185.73 168.35 186.44 169.06 187.31 169.06 C 188.19 169.06 188.90 168.35 188.90 167.47 Z M 188.90 166.46 L 188.90 165.47 C 188.90 164.59 188.19 163.88 187.31 163.88 C 186.44 163.88 185.73 164.59 185.73 165.47 L 185.73 166.46 C 185.73 167.33 186.44 168.04 187.31 168.04 C 188.19 168.04 188.90 167.33 188.90 166.46 Z M 188.90 165.47 L 188.90 164.47 C 188.90 163.60 188.19 162.89 187.31 162.89 C 186.44 162.89 185.73 163.60 185.73 164.47 L 185.73 165.47 C 185.73 166.34 186.44 167.05 187.31 167.05 C 188.19 167.05 188.90 166.34 188.90 165.47 Z M 188.90 164.47 L 188.89 163.44 C 188.89 162.57 188.18 161.86 187.31 161.86 C 186.44 161.86 185.73 162.57 185.73 163.44 L 185.73 164.48 C 185.73 165.35 186.44 166.06 187.32 166.06 C 188.19 166.06 188.90 165.35 188.90 164.47 Z M 188.90 163.43 L 188.89 162.42 C 188.88 161.54 188.16 160.84 187.29 160.85 C 186.41 160.86 185.71 161.57 185.72 162.45 L 185.73 163.46 C 185.74 164.33 186.45 165.03 187.33 165.03 C 188.20 165.02 188.90 164.30 188.90 163.43 Z M 188.89 162.39 L 188.86 161.43 C 188.83 160.55 188.10 159.86 187.23 159.89 C 186.35 159.91 185.67 160.64 185.69 161.52 L 185.72 162.48 C 185.74 163.35 186.47 164.04 187.35 164.02 C 188.22 163.99 188.91 163.26 188.89 162.39 Z M 188.86 161.38 L 188.79 160.33 C 188.74 159.46 187.99 158.79 187.12 158.84 C 186.24 158.89 185.58 159.65 185.63 160.52 L 185.69 161.57 C 185.74 162.44 186.49 163.11 187.37 163.05 C 188.24 163.00 188.91 162.25 188.86 161.38 Z M 188.79 160.29 L 188.71 159.32 C 188.63 158.45 187.86 157.80 186.99 157.88 C 186.12 157.95 185.47 158.72 185.55 159.60 L 185.63 160.56 C 185.71 161.44 186.48 162.08 187.35 162.01 C 188.22 161.93 188.87 161.16 188.79 160.29 Z M 188.71 159.30 L 188.61 158.32 C 188.52 157.45 187.75 156.81 186.87 156.90 C 186.00 156.99 185.36 157.77 185.45 158.64 L 185.55 159.62 C 185.63 160.49 186.41 161.13 187.28 161.04 C 188.16 160.95 188.79 160.17 188.71 159.30 Z M 188.61 158.31 L 188.50 157.32 C 188.41 156.44 187.63 155.81 186.76 155.90 C 185.88 156.00 185.25 156.78 185.34 157.65 L 185.45 158.65 C 185.54 159.52 186.33 160.15 187.20 160.06 C 188.07 159.97 188.70 159.19 188.61 158.31 Z M 188.50 157.30 L 188.38 156.30 C 188.28 155.43 187.49 154.81 186.62 154.91 C 185.75 155.02 185.12 155.81 185.23 156.68 L 185.35 157.67 C 185.45 158.54 186.24 159.17 187.11 159.06 C 187.98 158.96 188.61 158.17 188.50 157.30 Z M 188.38 156.28 L 188.25 155.28 C 188.13 154.41 187.33 153.80 186.46 153.91 C 185.59 154.03 184.98 154.83 185.09 155.70 L 185.23 156.70 C 185.35 157.57 186.15 158.18 187.02 158.07 C 187.89 157.95 188.50 157.15 188.38 156.28 Z M 188.24 155.26 L 188.10 154.28 C 187.97 153.41 187.17 152.81 186.30 152.94 C 185.43 153.07 184.83 153.88 184.95 154.75 L 185.10 155.72 C 185.22 156.59 186.03 157.19 186.90 157.06 C 187.77 156.94 188.37 156.13 188.24 155.26 Z M 188.10 154.27 L 187.95 153.27 C 187.81 152.40 187.00 151.80 186.13 151.93 C 185.26 152.07 184.67 152.88 184.80 153.75 L 184.95 154.76 C 185.09 155.62 185.90 156.22 186.77 156.09 C 187.64 155.95 188.23 155.14 188.10 154.27 Z M 187.95 153.26 L 187.79 152.29 C 187.65 151.42 186.84 150.83 185.97 150.97 C 185.10 151.10 184.51 151.92 184.65 152.79 L 184.80 153.76 C 184.94 154.63 185.75 155.22 186.62 155.08 C 187.49 154.94 188.08 154.13 187.95 153.26 Z M 187.79 152.28 L 187.63 151.28 C 187.48 150.42 186.66 149.83 185.79 149.97 C 184.92 150.12 184.34 150.94 184.48 151.81 L 184.65 152.80 C 184.79 153.67 185.61 154.26 186.48 154.11 C 187.35 153.97 187.94 153.15 187.79 152.28 Z M 187.62 151.26 L 187.45 150.31 C 187.29 149.44 186.45 148.87 185.59 149.03 C 184.72 149.19 184.15 150.02 184.31 150.89 L 184.49 151.84 C 184.65 152.70 185.48 153.27 186.34 153.11 C 187.21 152.95 187.78 152.12 187.62 151.26 Z M 187.43 150.25 L 187.23 149.32 C 187.04 148.47 186.18 147.92 185.32 148.12 C 184.47 148.31 183.92 149.16 184.12 150.02 L 184.32 150.94 C 184.51 151.80 185.37 152.34 186.23 152.15 C 187.09 151.96 187.63 151.11 187.43 150.25 Z M 187.21 149.24 L 186.92 148.21 C 186.68 147.37 185.80 146.87 184.95 147.11 C 184.10 147.35 183.61 148.24 183.85 149.08 L 184.14 150.11 C 184.38 150.95 185.26 151.45 186.11 151.21 C 186.95 150.97 187.45 150.08 187.21 149.24 Z M 186.89 148.14 L 186.57 147.18 C 186.29 146.34 185.38 145.89 184.55 146.18 C 183.71 146.46 183.27 147.36 183.55 148.20 L 183.87 149.16 C 184.15 149.99 185.06 150.44 185.89 150.16 C 186.73 149.88 187.18 148.97 186.89 148.14 Z M 186.54 147.10 L 186.17 146.16 C 185.85 145.34 184.92 144.93 184.10 145.26 C 183.28 145.58 182.88 146.51 183.20 147.32 L 183.57 148.27 C 183.90 149.09 184.82 149.49 185.64 149.17 C 186.46 148.85 186.86 147.92 186.54 147.10 Z M 186.11 146.03 L 185.63 145.07 C 185.24 144.28 184.28 143.96 183.49 144.36 C 182.71 144.75 182.39 145.71 182.78 146.50 L 183.26 147.45 C 183.65 148.24 184.61 148.56 185.40 148.17 C 186.19 147.77 186.51 146.81 186.11 146.03 Z M 185.48 144.83 L 184.91 144.07 C 184.38 143.37 183.38 143.22 182.68 143.75 C 181.97 144.28 181.83 145.28 182.36 145.99 L 182.93 146.74 C 183.46 147.45 184.46 147.59 185.17 147.06 C 185.87 146.53 186.01 145.53 185.48 144.83 Z M 184.60 143.75 L 183.83 143.18 C 183.13 142.65 182.13 142.79 181.60 143.50 C 181.07 144.20 181.21 145.20 181.92 145.73 L 182.68 146.30 C 183.38 146.83 184.38 146.69 184.91 145.99 C 185.44 145.28 185.30 144.28 184.60 143.75 Z M 183.43 142.96 L 182.49 142.61 C 181.67 142.31 180.75 142.72 180.44 143.55 C 180.14 144.37 180.56 145.29 181.38 145.60 L 182.32 145.95 C 183.14 146.25 184.06 145.84 184.37 145.01 C 184.67 144.19 184.26 143.27 183.43 142.96 Z M 182.10 142.53 L 181.10 142.42 C 180.23 142.33 179.45 142.96 179.35 143.83 C 179.26 144.70 179.89 145.48 180.76 145.57 L 181.77 145.68 C 182.64 145.77 183.42 145.14 183.51 144.27 C 183.60 143.40 182.97 142.62 182.10 142.53 Z M 180.53 142.50 L 179.60 142.74 C 178.77 142.96 178.27 143.81 178.49 144.64 C 178.71 145.47 179.56 145.97 180.39 145.75 L 181.32 145.50 C 182.15 145.28 182.65 144.43 182.43 143.60 C 182.21 142.77 181.36 142.28 180.53 142.50 Z M 179.14 143.02 L 178.32 143.59 C 177.65 144.06 177.48 144.99 177.95 145.66 C 178.42 146.34 179.34 146.51 180.02 146.04 L 180.84 145.47 C 181.51 145.00 181.68 144.07 181.21 143.40 C 180.74 142.72 179.82 142.56 179.14 143.02 Z M 178.26 143.70 L 178.18 143.77 C 177.56 144.27 177.46 145.17 177.96 145.79 C 178.47 146.41 179.37 146.51 179.99 146.00 L 180.08 145.93 C 180.70 145.43 180.79 144.53 180.29 143.91 C 179.79 143.29 178.88 143.20 178.26 143.70 Z"
      fill="black"
      fill-rule="nonzero" /></svg>