<svg xmlns="http://www.w3.org/2000/svg" width="300" height="300" viewBox="0 0 300 300">
<path d="M 125.28 83.65 L 124.68 82.82 C 124.21 82.18 123.30 82.04 122.66 82.51 C 122.01 82.98 121.87 83.89 122.34 84.54 L 122.94 85.36 C 123.42 86.00 124.32 86.14 124.97 85.67 C 125.61 85.20 125.76 84.29 125.28 83.65 Z M 124.71 82.86 L 124.15 82.04 C 123.70 81.38 122.79 81.21 122.13 81.66 C 121.47 82.12 121.30 83.02 121.75 83.68 L 122.31 84.50 C 122.76 85.16 123.67 85.33 124.33 84.88 C 125.00 84.43 125.16 83.52 124.71 82.86 Z M 124.24 82.17 L 123.77 81.29 C 123.39 80.58 122.50 80.32 121.79 80.70 C 121.08 81.08 120.81 81.97 121.19 82.68 L 121.66 83.56 C 122.05 84.27 122.93 84.53 123.65 84.15 C 124.36 83.77 124.62 82.88 124.24 82.17 Z M 123.92 81.63 L 123.67 80.62 C 123.48 79.82 122.67 79.33 121.88 79.53 C 121.08 79.73 120.59 80.53 120.79 81.33 L 121.04 82.34 C 121.24 83.14 122.04 83.63 122.84 83.43 C 123.63 83.23 124.12 82.43 123.92 81.63 Z M 123.68 81.45 L 123.95 80.62 C 124.21 79.82 123.78 78.97 122.98 78.70 C 122.18 78.44 121.33 78.87 121.06 79.67 L 120.79 80.50 C 120.53 81.29 120.96 82.15 121.76 82.42 C 122.55 82.68 123.41 82.25 123.68 81.45 Z M 122.98 81.62 L 123.91 81.32 C 124.73 81.06 125.18 80.19 124.92 79.37 C 124.66 78.56 123.79 78.11 122.97 78.37 L 122.03 78.67 C 121.22 78.93 120.77 79.80 121.03 80.62 C 121.29 81.43 122.16 81.88 122.98 81.62 Z M 123.57 81.41 L 124.56 81.33 C 125.42 81.26 126.06 80.50 125.99 79.63 C 125.92 78.77 125.16 78.13 124.29 78.20 L 123.31 78.28 C 122.45 78.35 121.80 79.11 121.88 79.98 C 121.95 80.84 122.71 81.48 123.57 81.41 Z M 124.48 81.34 L 125.52 81.31 C 126.39 81.27 127.07 80.54 127.04 79.67 C 127.01 78.80 126.28 78.11 125.40 78.15 L 124.37 78.18 C 123.49 78.22 122.81 78.95 122.85 79.82 C 122.88 80.70 123.61 81.38 124.48 81.34 Z M 125.48 81.31 L 126.42 81.30 C 127.30 81.29 128.00 80.57 127.99 79.70 C 127.98 78.82 127.26 78.12 126.39 78.13 L 125.44 78.14 C 124.57 78.15 123.86 78.87 123.87 79.75 C 123.88 80.62 124.60 81.32 125.48 81.31 Z M 126.41 81.31 L 127.45 81.31 C 128.33 81.30 129.04 80.59 129.04 79.71 C 129.04 78.83 128.32 78.12 127.44 78.12 L 126.40 78.12 C 125.52 78.12 124.81 78.84 124.81 79.72 C 124.81 80.60 125.53 81.31 126.41 81.31 Z M 127.45 81.31 L 128.50 81.31 C 129.38 81.31 130.09 80.60 130.09 79.71 C 130.09 78.83 129.38 78.11 128.50 78.11 L 127.45 78.11 C 126.56 78.11 125.85 78.83 125.85 79.71 C 125.85 80.60 126.56 81.31 127.45 81.31 Z M 128.50 81.31 L 129.51 81.31 C 130.40 81.31 131.11 80.60 131.11 79.71 C 131.11 78.83 130.40 78.11 129.51 78.11 L 128.50 78.11 C 127.61 78.11 126.89 78.83 126.89 79.71 C 126.89 80.60 127.61 81.31 128.50 81.31 Z M 129.51 81.32 L 130.51 81.32 C 131.40 81.32 132.12 80.60 132.12 79.71 C 132.12 78.83 131.40 78.11 130.51 78.11 L 129.51 78.11 C 128.63 78.11 127.91 78.83 127.91 79.71 C 127.91 80.60 128.63 81.32 129.51 81.32 Z M 130.50 81.32 L 131.48 81.32 C 132.37 81.33 133.09 80.62 133.10 79.73 C 133.10 78.84 132.39 78.12 131.50 78.11 L 130.52 78.11 C 129.64 78.10 128.91 78.82 128.91 79.70 C 128.90 80.59 129.62 81.31 130.50 81.32 Z M 131.45 81.33 L 132.38 81.35 C 133.27 81.38 134.01 80.68 134.03 79.79 C 134.06 78.90 133.36 78.16 132.47 78.14 L 131.53 78.11 C 130.65 78.09 129.91 78.79 129.88 79.68 C 129.86 80.56 130.56 81.30 131.45 81.33 Z M 132.35 81.35 L 133.37 81.40 C 134.26 81.44 135.01 80.76 135.05 79.87 C 135.09 78.98 134.41 78.23 133.52 78.19 L 132.50 78.14 C 131.62 78.10 130.86 78.78 130.82 79.67 C 130.78 80.56 131.47 81.31 132.35 81.35 Z M 133.35 81.40 L 134.34 81.46 C 135.23 81.51 135.99 80.83 136.04 79.95 C 136.10 79.06 135.42 78.30 134.53 78.25 L 133.54 78.19 C 132.65 78.13 131.89 78.81 131.84 79.70 C 131.79 80.58 132.46 81.35 133.35 81.40 Z M 134.33 81.46 L 135.34 81.52 C 136.23 81.58 136.99 80.91 137.05 80.03 C 137.11 79.14 136.44 78.37 135.56 78.31 L 134.55 78.25 C 133.66 78.19 132.89 78.86 132.83 79.74 C 132.77 80.63 133.44 81.40 134.33 81.46 Z M 135.33 81.52 L 136.33 81.60 C 137.22 81.66 137.99 80.99 138.05 80.11 C 138.12 79.22 137.45 78.45 136.56 78.38 L 135.56 78.31 C 134.68 78.25 133.91 78.92 133.84 79.80 C 133.78 80.69 134.45 81.46 135.33 81.52 Z M 136.33 81.60 L 137.32 81.67 C 138.21 81.73 138.98 81.07 139.05 80.18 C 139.11 79.29 138.44 78.52 137.56 78.46 L 136.56 78.38 C 135.68 78.32 134.91 78.99 134.84 79.87 C 134.78 80.76 135.44 81.53 136.33 81.60 Z M 137.33 81.67 L 138.33 81.74 C 139.22 81.80 139.99 81.13 140.05 80.24 C 140.11 79.35 139.44 78.59 138.55 78.52 L 137.55 78.46 C 136.66 78.39 135.90 79.06 135.83 79.95 C 135.77 80.84 136.44 81.61 137.33 81.67 Z M 138.34 81.74 L 139.33 81.80 C 140.22 81.86 140.98 81.18 141.04 80.30 C 141.10 79.41 140.42 78.64 139.53 78.59 L 138.55 78.52 C 137.66 78.47 136.89 79.14 136.84 80.03 C 136.78 80.92 137.45 81.68 138.34 81.74 Z M 139.34 81.80 L 140.35 81.86 C 141.24 81.92 142.00 81.24 142.05 80.35 C 142.11 79.46 141.43 78.70 140.54 78.65 L 139.53 78.59 C 138.64 78.53 137.88 79.21 137.83 80.10 C 137.77 80.98 138.45 81.75 139.34 81.80 Z M 140.35 81.86 L 141.34 81.92 C 142.23 81.97 142.99 81.30 143.04 80.41 C 143.10 79.52 142.42 78.76 141.53 78.71 L 140.54 78.65 C 139.65 78.60 138.89 79.27 138.84 80.16 C 138.79 81.05 139.46 81.81 140.35 81.86 Z M 141.35 81.92 L 142.35 81.97 C 143.23 82.02 143.99 81.34 144.04 80.46 C 144.09 79.57 143.41 78.81 142.52 78.76 L 141.52 78.71 C 140.64 78.66 139.88 79.34 139.83 80.23 C 139.78 81.11 140.46 81.87 141.35 81.92 Z M 142.36 81.97 L 143.36 82.02 C 144.25 82.06 145.01 81.38 145.05 80.49 C 145.09 79.60 144.40 78.85 143.51 78.81 L 142.51 78.76 C 141.62 78.72 140.87 79.40 140.83 80.29 C 140.79 81.18 141.47 81.93 142.36 81.97 Z M 143.38 82.02 L 144.37 82.06 C 145.26 82.09 146.01 81.40 146.04 80.51 C 146.07 79.62 145.38 78.88 144.49 78.84 L 143.50 78.81 C 142.61 78.77 141.87 79.47 141.83 80.35 C 141.80 81.24 142.49 81.99 143.38 82.02 Z M 144.38 82.06 L 145.39 82.09 C 146.28 82.12 147.02 81.42 147.05 80.53 C 147.07 79.65 146.38 78.90 145.49 78.88 L 144.48 78.84 C 143.60 78.82 142.85 79.51 142.83 80.40 C 142.80 81.29 143.50 82.03 144.38 82.06 Z M 145.40 82.09 L 146.39 82.12 C 147.27 82.14 148.01 81.44 148.04 80.55 C 148.06 79.67 147.36 78.93 146.47 78.90 L 145.48 78.88 C 144.60 78.85 143.86 79.55 143.83 80.44 C 143.81 81.33 144.51 82.06 145.40 82.09 Z M 146.39 82.11 L 147.38 82.14 C 148.26 82.16 149.00 81.46 149.02 80.58 C 149.05 79.69 148.35 78.95 147.46 78.93 L 146.47 78.90 C 145.58 78.88 144.85 79.58 144.82 80.47 C 144.80 81.36 145.50 82.09 146.39 82.11 Z M 147.38 82.14 L 148.40 82.16 C 149.28 82.19 150.02 81.49 150.04 80.60 C 150.06 79.71 149.36 78.98 148.48 78.96 L 147.46 78.93 C 146.57 78.91 145.84 79.61 145.81 80.49 C 145.79 81.38 146.49 82.12 147.38 82.14 Z M 148.40 82.16 L 149.40 82.19 C 150.28 82.21 151.02 81.51 151.04 80.63 C 151.07 79.74 150.37 79.01 149.48 78.98 L 148.48 78.96 C 147.59 78.94 146.86 79.63 146.83 80.52 C 146.81 81.40 147.51 82.14 148.40 82.16 Z M 149.40 82.19 L 150.41 82.21 C 151.29 82.24 152.03 81.54 152.05 80.66 C 152.08 79.77 151.38 79.04 150.50 79.01 L 149.49 78.99 C 148.60 78.96 147.87 79.66 147.84 80.54 C 147.82 81.43 148.51 82.16 149.40 82.19 Z M 150.41 82.21 L 151.40 82.24 C 152.28 82.27 153.02 81.57 153.04 80.69 C 153.07 79.81 152.37 79.07 151.49 79.05 L 150.50 79.02 C 149.62 78.99 148.88 79.69 148.85 80.57 C 148.83 81.45 149.52 82.19 150.41 82.21 Z M 151.40 82.24 L 152.42 82.27 C 153.30 82.30 154.04 81.60 154.06 80.72 C 154.09 79.84 153.40 79.10 152.51 79.08 L 151.49 79.05 C 150.61 79.02 149.87 79.71 149.85 80.59 C 149.82 81.48 150.51 82.21 151.40 82.24 Z M 152.42 82.27 L 153.41 82.30 C 154.29 82.32 155.02 81.63 155.05 80.75 C 155.08 79.87 154.39 79.14 153.51 79.11 L 152.51 79.08 C 151.63 79.05 150.90 79.75 150.87 80.63 C 150.85 81.51 151.54 82.24 152.42 82.27 Z M 153.41 82.30 L 154.39 82.32 C 155.27 82.35 156.00 81.66 156.03 80.78 C 156.05 79.90 155.36 79.17 154.48 79.14 L 153.50 79.11 C 152.62 79.09 151.89 79.78 151.87 80.66 C 151.84 81.54 152.53 82.27 153.41 82.30 Z M 154.40 82.32 L 155.39 82.35 C 156.27 82.37 157.00 81.68 157.02 80.80 C 157.05 79.92 156.35 79.19 155.48 79.17 L 154.48 79.14 C 153.60 79.12 152.87 79.81 152.85 80.69 C 152.83 81.57 153.52 82.30 154.40 82.32 Z M 155.39 82.34 L 156.40 82.37 C 157.27 82.39 158.00 81.70 158.02 80.83 C 158.05 79.95 157.35 79.22 156.48 79.20 L 155.48 79.17 C 154.60 79.15 153.87 79.84 153.85 80.72 C 153.83 81.59 154.52 82.32 155.39 82.34 Z M 156.39 82.37 L 157.39 82.39 C 158.27 82.42 158.99 81.73 159.02 80.86 C 159.04 79.98 158.35 79.25 157.48 79.23 L 156.48 79.20 C 155.61 79.18 154.88 79.87 154.85 80.74 C 154.83 81.61 155.52 82.34 156.39 82.37 Z M 157.39 82.39 L 158.38 82.42 C 159.25 82.45 159.98 81.76 160.01 80.89 C 160.04 80.02 159.35 79.29 158.48 79.26 L 157.48 79.23 C 156.61 79.21 155.88 79.89 155.85 80.76 C 155.83 81.64 156.52 82.37 157.39 82.39 Z M 158.38 82.42 L 159.39 82.45 C 160.26 82.48 160.99 81.79 161.01 80.92 C 161.04 80.05 160.35 79.32 159.48 79.30 L 158.48 79.26 C 157.61 79.24 156.88 79.92 156.85 80.79 C 156.83 81.66 157.51 82.39 158.38 82.42 Z M 159.39 82.45 L 160.38 82.48 C 161.25 82.50 161.98 81.82 162.00 80.95 C 162.03 80.08 161.35 79.36 160.48 79.33 L 159.48 79.30 C 158.61 79.27 157.89 79.95 157.86 80.82 C 157.83 81.69 158.52 82.42 159.39 82.45 Z M 160.38 82.47 L 161.38 82.51 C 162.24 82.53 162.97 81.85 163.00 80.99 C 163.03 80.12 162.35 79.39 161.48 79.36 L 160.48 79.33 C 159.61 79.30 158.89 79.98 158.86 80.85 C 158.83 81.72 159.51 82.45 160.38 82.47 Z M 161.37 82.50 L 162.38 82.54 C 163.24 82.57 163.97 81.90 164.00 81.03 C 164.04 80.17 163.36 79.44 162.50 79.41 L 161.49 79.37 C 160.62 79.34 159.89 80.01 159.86 80.88 C 159.83 81.74 160.50 82.47 161.37 82.50 Z M 162.37 82.54 L 163.35 82.58 C 164.22 82.62 164.95 81.95 164.99 81.09 C 165.03 80.22 164.36 79.49 163.49 79.45 L 162.51 79.41 C 161.64 79.37 160.91 80.04 160.87 80.90 C 160.83 81.77 161.50 82.50 162.37 82.54 Z M 163.35 82.58 L 164.34 82.63 C 165.21 82.67 165.94 82.00 165.98 81.14 C 166.02 80.28 165.36 79.55 164.50 79.50 L 163.50 79.46 C 162.64 79.41 161.90 80.08 161.86 80.94 C 161.82 81.80 162.49 82.54 163.35 82.58 Z M 164.34 82.62 L 165.36 82.67 C 166.22 82.72 166.95 82.06 166.99 81.19 C 167.04 80.33 166.37 79.60 165.51 79.56 L 164.50 79.51 C 163.64 79.46 162.91 80.13 162.86 80.99 C 162.82 81.85 163.48 82.58 164.34 82.62 Z M 165.36 82.67 L 166.38 82.72 C 167.24 82.77 167.97 82.11 168.01 81.25 C 168.06 80.39 167.40 79.66 166.54 79.61 L 165.51 79.56 C 164.65 79.52 163.92 80.18 163.88 81.04 C 163.84 81.90 164.50 82.63 165.36 82.67 Z M 166.37 82.72 L 167.38 82.78 C 168.24 82.82 168.97 82.17 169.02 81.31 C 169.06 80.45 168.41 79.72 167.55 79.67 L 166.54 79.62 C 165.69 79.57 164.95 80.23 164.91 81.08 C 164.86 81.94 165.52 82.67 166.37 82.72 Z M 167.36 82.77 L 168.35 82.84 C 169.20 82.89 169.94 82.25 170.00 81.39 C 170.05 80.54 169.41 79.80 168.55 79.74 L 167.57 79.67 C 166.71 79.62 165.97 80.27 165.92 81.12 C 165.86 81.98 166.51 82.72 167.36 82.77 Z M 168.32 82.83 L 169.36 82.92 C 170.21 82.99 170.96 82.36 171.03 81.51 C 171.10 80.65 170.47 79.90 169.62 79.83 L 168.58 79.74 C 167.72 79.67 166.98 80.31 166.90 81.16 C 166.83 82.01 167.46 82.76 168.32 82.83 Z M 169.33 82.92 L 170.28 83.01 C 171.14 83.10 171.89 82.47 171.98 81.62 C 172.06 80.77 171.44 80.02 170.59 79.93 L 169.64 79.84 C 168.79 79.75 168.03 80.37 167.95 81.22 C 167.86 82.07 168.48 82.83 169.33 82.92 Z M 170.27 83.01 L 171.28 83.12 C 172.13 83.21 172.89 82.59 172.98 81.75 C 173.07 80.90 172.46 80.13 171.61 80.04 L 170.60 79.93 C 169.76 79.84 168.99 80.46 168.90 81.30 C 168.81 82.15 169.42 82.92 170.27 83.01 Z M 171.27 83.11 L 172.25 83.23 C 173.10 83.32 173.86 82.71 173.96 81.87 C 174.06 81.02 173.45 80.26 172.60 80.16 L 171.62 80.05 C 170.77 79.95 170.01 80.56 169.91 81.40 C 169.81 82.25 170.42 83.02 171.27 83.11 Z M 172.24 83.22 L 173.24 83.35 C 174.09 83.45 174.86 82.85 174.96 82.00 C 175.07 81.16 174.47 80.39 173.62 80.29 L 172.61 80.16 C 171.77 80.06 171.00 80.66 170.89 81.50 C 170.79 82.35 171.39 83.12 172.24 83.22 Z M 173.23 83.34 L 174.19 83.47 C 175.04 83.58 175.81 82.99 175.92 82.15 C 176.04 81.31 175.45 80.53 174.60 80.42 L 173.64 80.29 C 172.79 80.18 172.02 80.77 171.91 81.61 C 171.79 82.45 172.38 83.23 173.23 83.34 Z M 174.17 83.47 L 175.10 83.61 C 175.94 83.73 176.72 83.15 176.85 82.31 C 176.98 81.47 176.40 80.69 175.56 80.56 L 174.63 80.42 C 173.79 80.30 173.00 80.88 172.88 81.72 C 172.75 82.56 173.33 83.34 174.17 83.47 Z M 175.04 83.59 L 176.06 83.79 C 176.90 83.95 177.70 83.40 177.86 82.56 C 178.02 81.73 177.47 80.93 176.64 80.77 L 175.62 80.58 C 174.78 80.42 173.98 80.97 173.82 81.80 C 173.66 82.63 174.21 83.44 175.04 83.59 Z M 175.99 83.77 L 176.93 84.00 C 177.76 84.20 178.59 83.70 178.79 82.88 C 178.99 82.05 178.49 81.22 177.66 81.02 L 176.72 80.79 C 175.89 80.59 175.06 81.09 174.86 81.91 C 174.66 82.74 175.16 83.57 175.99 83.77 Z M 176.78 83.95 L 177.75 84.30 C 178.55 84.59 179.43 84.17 179.71 83.37 C 180.00 82.58 179.58 81.70 178.78 81.41 L 177.82 81.07 C 177.02 80.78 176.14 81.20 175.85 81.99 C 175.57 82.79 175.98 83.67 176.78 83.95 Z M 177.46 84.16 L 178.45 84.77 C 179.17 85.22 180.11 84.99 180.56 84.27 C 181.00 83.55 180.78 82.61 180.06 82.16 L 179.08 81.55 C 178.35 81.11 177.41 81.33 176.96 82.05 C 176.52 82.77 176.74 83.72 177.46 84.16 Z M 177.91 84.23 L 178.32 84.94 C 178.74 85.68 179.68 85.93 180.42 85.51 C 181.16 85.09 181.42 84.15 180.99 83.41 L 180.59 82.70 C 180.17 81.96 179.23 81.71 178.49 82.13 C 177.75 82.55 177.49 83.49 177.91 84.23 Z M 178.56 83.09 L 178.02 83.63 C 177.42 84.24 177.42 85.22 178.03 85.82 C 178.64 86.42 179.62 86.41 180.22 85.81 L 180.76 85.26 C 181.36 84.65 181.35 83.67 180.74 83.07 C 180.13 82.47 179.16 82.48 178.56 83.09 Z M 178.54 83.28 L 177.47 83.71 C 176.67 84.03 176.28 84.93 176.60 85.73 C 176.92 86.52 177.83 86.91 178.62 86.59 L 179.69 86.16 C 180.49 85.84 180.88 84.94 180.56 84.14 C 180.24 83.35 179.33 82.96 178.54 83.28 Z M 177.55 83.68 L 176.55 84.01 C 175.74 84.29 175.30 85.17 175.58 85.99 C 175.85 86.80 176.74 87.23 177.55 86.96 L 178.54 86.62 C 179.36 86.35 179.79 85.47 179.52 84.65 C 179.24 83.84 178.36 83.40 177.55 83.68 Z M 176.56 84.01 L 175.64 84.31 C 174.82 84.58 174.38 85.46 174.65 86.28 C 174.92 87.10 175.80 87.54 176.61 87.27 L 177.54 86.96 C 178.35 86.69 178.80 85.82 178.53 85.00 C 178.26 84.18 177.38 83.74 176.56 84.01 Z M 175.64 84.32 L 174.76 84.61 C 173.95 84.88 173.51 85.76 173.78 86.57 C 174.05 87.39 174.93 87.83 175.74 87.56 L 176.62 87.27 C 177.43 87.00 177.87 86.12 177.60 85.30 C 177.33 84.49 176.45 84.04 175.64 84.32 Z M 174.77 84.60 L 173.82 84.91 C 173.00 85.18 172.55 86.05 172.82 86.87 C 173.09 87.69 173.96 88.14 174.78 87.87 L 175.73 87.56 C 176.55 87.30 177.00 86.42 176.73 85.60 C 176.47 84.78 175.59 84.34 174.77 84.60 Z M 173.84 84.90 L 172.85 85.21 C 172.03 85.46 171.57 86.33 171.82 87.15 C 172.07 87.97 172.95 88.44 173.77 88.18 L 174.76 87.88 C 175.58 87.63 176.04 86.75 175.79 85.93 C 175.53 85.11 174.66 84.65 173.84 84.90 Z M 172.87 85.21 L 171.86 85.50 C 171.04 85.75 170.57 86.61 170.82 87.44 C 171.06 88.26 171.93 88.73 172.75 88.48 L 173.75 88.19 C 174.58 87.94 175.04 87.08 174.80 86.25 C 174.55 85.43 173.69 84.96 172.87 85.21 Z M 171.87 85.50 L 170.92 85.78 C 170.09 86.02 169.62 86.88 169.86 87.70 C 170.09 88.53 170.96 89.00 171.78 88.76 L 172.74 88.49 C 173.56 88.25 174.04 87.39 173.80 86.56 C 173.56 85.74 172.70 85.26 171.87 85.50 Z M 170.93 85.78 L 169.86 86.08 C 169.04 86.31 168.56 87.16 168.79 87.99 C 169.02 88.81 169.88 89.29 170.70 89.06 L 171.77 88.77 C 172.59 88.53 173.07 87.68 172.84 86.85 C 172.61 86.03 171.75 85.55 170.93 85.78 Z M 169.87 86.08 L 169.02 86.32 C 168.19 86.55 167.71 87.40 167.94 88.22 C 168.17 89.04 169.02 89.53 169.85 89.30 L 170.70 89.06 C 171.52 88.83 172.00 87.98 171.77 87.16 C 171.54 86.33 170.69 85.85 169.87 86.08 Z M 168.99 86.33 L 168.05 86.61 C 167.23 86.86 166.77 87.72 167.02 88.53 C 167.26 89.35 168.12 89.81 168.94 89.57 L 169.87 89.29 C 170.69 89.04 171.15 88.18 170.91 87.36 C 170.66 86.55 169.80 86.08 168.99 86.33 Z M 168.05 86.61 L 167.09 86.90 C 166.28 87.15 165.82 88.01 166.06 88.83 C 166.31 89.64 167.17 90.10 167.99 89.85 L 168.94 89.56 C 169.76 89.32 170.22 88.45 169.97 87.64 C 169.72 86.82 168.86 86.36 168.05 86.61 Z M 167.12 86.90 L 166.15 87.17 C 165.33 87.41 164.86 88.26 165.09 89.08 C 165.33 89.90 166.18 90.37 167.00 90.14 L 167.96 89.86 C 168.78 89.63 169.26 88.77 169.02 87.95 C 168.79 87.14 167.93 86.66 167.12 86.90 Z M 166.18 87.17 L 165.22 87.42 C 164.39 87.64 163.91 88.49 164.13 89.31 C 164.35 90.13 165.19 90.62 166.01 90.40 L 166.98 90.14 C 167.80 89.92 168.29 89.08 168.07 88.26 C 167.85 87.43 167.00 86.95 166.18 87.17 Z M 165.22 87.42 L 164.24 87.68 C 163.42 87.90 162.93 88.75 163.15 89.57 C 163.37 90.39 164.21 90.88 165.03 90.66 L 166.01 90.40 C 166.83 90.18 167.32 89.34 167.10 88.52 C 166.89 87.69 166.04 87.20 165.22 87.42 Z M 164.22 87.69 L 163.28 87.95 C 162.46 88.19 161.99 89.04 162.22 89.85 C 162.45 90.67 163.30 91.15 164.12 90.92 L 165.06 90.65 C 165.88 90.42 166.35 89.57 166.12 88.75 C 165.89 87.93 165.04 87.46 164.22 87.69 Z M 163.27 87.96 L 162.29 88.24 C 161.47 88.48 161.00 89.33 161.24 90.15 C 161.47 90.97 162.33 91.44 163.15 91.20 L 164.13 90.92 C 164.95 90.68 165.42 89.83 165.18 89.01 C 164.95 88.19 164.09 87.72 163.27 87.96 Z M 162.30 88.24 L 161.34 88.51 C 160.52 88.74 160.04 89.59 160.27 90.41 C 160.50 91.23 161.35 91.71 162.17 91.47 L 163.14 91.20 C 163.95 90.97 164.43 90.12 164.20 89.30 C 163.97 88.48 163.12 88.01 162.30 88.24 Z M 161.34 88.51 L 160.37 88.78 C 159.55 89.00 159.07 89.85 159.30 90.67 C 159.52 91.49 160.37 91.97 161.19 91.75 L 162.17 91.48 C 162.99 91.25 163.47 90.40 163.24 89.58 C 163.01 88.76 162.16 88.28 161.34 88.51 Z M 160.37 88.78 L 159.40 89.04 C 158.58 89.27 158.10 90.12 158.33 90.94 C 158.55 91.76 159.40 92.24 160.22 92.01 L 161.19 91.75 C 162.01 91.52 162.49 90.67 162.27 89.85 C 162.04 89.03 161.19 88.55 160.37 88.78 Z M 159.39 89.05 L 158.44 89.32 C 157.62 89.56 157.14 90.41 157.38 91.23 C 157.61 92.04 158.47 92.52 159.28 92.28 L 160.24 92.01 C 161.05 91.78 161.53 90.92 161.29 90.10 C 161.06 89.29 160.21 88.81 159.39 89.05 Z M 158.40 89.33 L 157.46 89.62 C 156.65 89.87 156.19 90.74 156.44 91.55 C 156.69 92.36 157.56 92.82 158.37 92.57 L 159.31 92.27 C 160.13 92.02 160.58 91.16 160.33 90.35 C 160.08 89.53 159.22 89.08 158.40 89.33 Z M 157.43 89.63 L 156.48 89.94 C 155.67 90.21 155.23 91.08 155.50 91.89 C 155.76 92.70 156.63 93.14 157.44 92.87 L 158.40 92.56 C 159.21 92.29 159.65 91.42 159.38 90.61 C 159.11 89.80 158.24 89.36 157.43 89.63 Z M 156.47 89.95 L 155.52 90.27 C 154.71 90.54 154.28 91.41 154.55 92.22 C 154.82 93.03 155.69 93.46 156.50 93.19 L 157.45 92.87 C 158.26 92.60 158.69 91.72 158.42 90.92 C 158.15 90.11 157.28 89.67 156.47 89.95 Z M 155.51 90.27 L 154.57 90.59 C 153.76 90.87 153.33 91.74 153.61 92.55 C 153.88 93.36 154.76 93.79 155.57 93.51 L 156.51 93.19 C 157.32 92.91 157.75 92.03 157.47 91.23 C 157.19 90.42 156.32 89.99 155.51 90.27 Z M 154.55 90.60 L 153.60 90.94 C 152.80 91.23 152.38 92.11 152.67 92.91 C 152.96 93.72 153.84 94.13 154.65 93.84 L 155.59 93.50 C 156.39 93.21 156.81 92.33 156.52 91.53 C 156.23 90.72 155.35 90.31 154.55 90.60 Z M 153.57 90.95 L 152.64 91.30 C 151.84 91.61 151.44 92.50 151.75 93.30 C 152.05 94.10 152.95 94.50 153.74 94.19 L 154.68 93.83 C 155.47 93.53 155.87 92.63 155.57 91.84 C 155.26 91.04 154.37 90.64 153.57 90.95 Z M 152.61 91.31 L 151.68 91.69 C 150.89 92.01 150.50 92.91 150.82 93.70 C 151.14 94.50 152.05 94.88 152.84 94.56 L 153.77 94.18 C 154.56 93.86 154.95 92.96 154.62 92.17 C 154.30 91.37 153.40 90.99 152.61 91.31 Z M 151.65 91.70 L 150.74 92.08 C 149.96 92.42 149.59 93.33 149.92 94.11 C 150.26 94.90 151.17 95.27 151.96 94.94 L 152.86 94.55 C 153.65 94.22 154.02 93.31 153.69 92.52 C 153.35 91.73 152.44 91.36 151.65 91.70 Z M 150.72 92.09 L 149.81 92.50 C 149.02 92.84 148.67 93.76 149.01 94.54 C 149.36 95.33 150.28 95.68 151.06 95.33 L 151.98 94.93 C 152.76 94.58 153.12 93.67 152.77 92.88 C 152.42 92.10 151.51 91.74 150.72 92.09 Z M 149.79 92.50 L 148.87 92.92 C 148.09 93.28 147.74 94.20 148.10 94.98 C 148.46 95.76 149.38 96.10 150.16 95.75 L 151.08 95.33 C 151.86 94.97 152.20 94.05 151.85 93.27 C 151.49 92.49 150.57 92.14 149.79 92.50 Z M 148.85 92.93 L 147.93 93.36 C 147.16 93.73 146.82 94.65 147.19 95.43 C 147.56 96.21 148.49 96.54 149.26 96.17 L 150.18 95.74 C 150.95 95.38 151.29 94.45 150.92 93.67 C 150.55 92.89 149.63 92.56 148.85 92.93 Z M 147.91 93.37 L 147.01 93.82 C 146.24 94.20 145.92 95.13 146.31 95.90 C 146.69 96.68 147.62 96.99 148.39 96.61 L 149.29 96.16 C 150.06 95.78 150.38 94.85 149.99 94.07 C 149.61 93.30 148.68 92.99 147.91 93.37 Z M 146.97 93.83 L 146.07 94.31 C 145.31 94.72 145.02 95.66 145.42 96.42 C 145.83 97.18 146.77 97.47 147.53 97.07 L 148.43 96.59 C 149.20 96.19 149.48 95.24 149.08 94.48 C 148.68 93.72 147.73 93.43 146.97 93.83 Z M 146.03 94.33 L 145.19 94.81 C 144.44 95.24 144.17 96.19 144.60 96.94 C 145.03 97.69 145.98 97.95 146.73 97.53 L 147.58 97.05 C 148.33 96.62 148.59 95.67 148.16 94.92 C 147.73 94.17 146.78 93.90 146.03 94.33 Z M 145.15 94.83 L 144.29 95.35 C 143.55 95.79 143.31 96.76 143.75 97.50 C 144.20 98.24 145.16 98.48 145.91 98.03 L 146.77 97.51 C 147.51 97.06 147.75 96.10 147.30 95.36 C 146.86 94.62 145.89 94.38 145.15 94.83 Z M 144.26 95.36 L 143.42 95.89 C 142.69 96.36 142.47 97.33 142.93 98.06 C 143.40 98.79 144.37 99.01 145.10 98.55 L 145.94 98.02 C 146.67 97.55 146.89 96.58 146.42 95.85 C 145.96 95.12 144.99 94.90 144.26 95.36 Z M 143.39 95.91 L 142.55 96.46 C 141.82 96.94 141.63 97.92 142.11 98.64 C 142.59 99.37 143.56 99.57 144.29 99.09 L 145.13 98.53 C 145.85 98.05 146.05 97.08 145.57 96.35 C 145.09 95.62 144.12 95.43 143.39 95.91 Z M 142.51 96.49 L 141.70 97.06 C 140.99 97.56 140.82 98.55 141.32 99.26 C 141.82 99.97 142.81 100.14 143.52 99.64 L 144.33 99.07 C 145.04 98.56 145.21 97.58 144.71 96.86 C 144.21 96.15 143.22 95.98 142.51 96.49 Z M 141.65 97.09 L 140.85 97.70 C 140.16 98.23 140.03 99.22 140.56 99.92 C 141.09 100.61 142.08 100.74 142.78 100.21 L 143.57 99.60 C 144.26 99.07 144.40 98.08 143.87 97.39 C 143.33 96.69 142.34 96.56 141.65 97.09 Z M 140.81 97.72 L 140.04 98.35 C 139.36 98.90 139.26 99.90 139.81 100.58 C 140.36 101.26 141.36 101.37 142.04 100.81 L 142.81 100.19 C 143.49 99.64 143.60 98.64 143.05 97.96 C 142.49 97.28 141.49 97.17 140.81 97.72 Z M 140.02 98.37 L 139.26 99.00 C 138.59 99.57 138.51 100.57 139.07 101.25 C 139.64 101.92 140.64 102.00 141.31 101.43 L 142.07 100.80 C 142.74 100.23 142.82 99.23 142.26 98.56 C 141.69 97.89 140.69 97.80 140.02 98.37 Z M 139.23 99.03 L 138.47 99.70 C 137.81 100.28 137.75 101.29 138.33 101.95 C 138.92 102.61 139.92 102.67 140.58 102.09 L 141.34 101.41 C 142.00 100.83 142.06 99.82 141.48 99.16 C 140.90 98.50 139.89 98.44 139.23 99.03 Z M 138.43 99.73 L 137.69 100.42 C 137.05 101.02 137.02 102.03 137.62 102.68 C 138.22 103.32 139.23 103.36 139.88 102.75 L 140.62 102.06 C 141.26 101.46 141.30 100.45 140.69 99.80 C 140.09 99.16 139.08 99.12 138.43 99.73 Z M 137.65 100.45 L 136.94 101.16 C 136.32 101.79 136.32 102.81 136.95 103.43 C 137.57 104.06 138.59 104.05 139.22 103.43 L 139.92 102.72 C 140.55 102.09 140.55 101.07 139.92 100.45 C 139.29 99.82 138.28 99.83 137.65 100.45 Z M 136.88 101.22 L 136.21 101.97 C 135.62 102.63 135.67 103.64 136.33 104.24 C 136.99 104.83 138.01 104.78 138.60 104.12 L 139.27 103.37 C 139.87 102.71 139.81 101.69 139.15 101.10 C 138.49 100.51 137.48 100.56 136.88 101.22 Z M 136.15 102.03 L 135.53 102.80 C 134.98 103.50 135.09 104.51 135.78 105.07 C 136.48 105.62 137.49 105.51 138.05 104.82 L 138.66 104.05 C 139.22 103.36 139.11 102.34 138.41 101.79 C 137.72 101.23 136.71 101.34 136.15 102.03 Z M 135.48 102.87 L 134.90 103.68 C 134.38 104.40 134.54 105.41 135.27 105.93 C 135.99 106.45 137.00 106.29 137.52 105.56 L 138.10 104.75 C 138.62 104.03 138.46 103.02 137.73 102.50 C 137.01 101.98 136.00 102.14 135.48 102.87 Z M 134.85 103.74 L 134.31 104.58 C 133.82 105.34 134.04 106.34 134.79 106.82 C 135.54 107.31 136.54 107.09 137.03 106.34 L 137.57 105.50 C 138.05 104.75 137.84 103.74 137.09 103.26 C 136.33 102.78 135.33 102.99 134.85 103.74 Z M 134.27 104.64 L 133.76 105.50 C 133.31 106.28 133.57 107.27 134.35 107.72 C 135.12 108.17 136.11 107.91 136.56 107.14 L 137.07 106.28 C 137.52 105.51 137.26 104.51 136.49 104.06 C 135.71 103.61 134.72 103.87 134.27 104.64 Z M 133.73 105.56 L 133.26 106.44 C 132.84 107.23 133.14 108.22 133.93 108.64 C 134.72 109.06 135.71 108.76 136.13 107.97 L 136.60 107.09 C 137.02 106.29 136.72 105.31 135.93 104.89 C 135.14 104.47 134.15 104.77 133.73 105.56 Z M 133.22 106.51 L 132.80 107.41 C 132.42 108.22 132.77 109.19 133.58 109.57 C 134.40 109.95 135.37 109.60 135.75 108.79 L 136.17 107.90 C 136.55 107.08 136.20 106.11 135.39 105.73 C 134.57 105.35 133.60 105.70 133.22 106.51 Z M 132.76 107.49 L 132.39 108.41 C 132.05 109.25 132.45 110.20 133.29 110.54 C 134.12 110.87 135.07 110.47 135.41 109.64 L 135.79 108.71 C 136.12 107.88 135.72 106.92 134.89 106.59 C 134.05 106.25 133.10 106.65 132.76 107.49 Z M 132.36 108.48 L 132.02 109.43 C 131.72 110.28 132.16 111.22 133.01 111.52 C 133.86 111.82 134.79 111.38 135.10 110.53 L 135.44 109.58 C 135.74 108.73 135.30 107.79 134.45 107.49 C 133.60 107.18 132.66 107.63 132.36 108.48 Z M 132.00 109.48 L 131.69 110.43 C 131.42 111.30 131.89 112.22 132.75 112.49 C 133.61 112.77 134.54 112.29 134.81 111.43 L 135.12 110.48 C 135.39 109.62 134.92 108.70 134.06 108.42 C 133.20 108.15 132.28 108.62 132.00 109.48 Z M 131.67 110.50 L 131.40 111.47 C 131.16 112.35 131.67 113.25 132.54 113.49 C 133.42 113.73 134.32 113.22 134.56 112.35 L 134.83 111.37 C 135.07 110.50 134.56 109.60 133.69 109.35 C 132.82 109.11 131.91 109.62 131.67 110.50 Z M 131.38 111.55 L 131.16 112.50 C 130.96 113.39 131.52 114.27 132.40 114.47 C 133.29 114.67 134.16 114.11 134.37 113.23 L 134.58 112.28 C 134.78 111.39 134.23 110.51 133.35 110.31 C 132.46 110.11 131.58 110.66 131.38 111.55 Z M 131.15 112.56 L 130.97 113.55 C 130.80 114.44 131.38 115.30 132.28 115.47 C 133.17 115.63 134.03 115.05 134.19 114.15 L 134.38 113.17 C 134.55 112.28 133.96 111.42 133.07 111.25 C 132.18 111.08 131.32 111.67 131.15 112.56 Z M 130.96 113.59 L 130.80 114.57 C 130.65 115.47 131.26 116.31 132.16 116.46 C 133.06 116.60 133.90 115.99 134.04 115.10 L 134.20 114.11 C 134.35 113.22 133.74 112.37 132.84 112.23 C 131.95 112.08 131.10 112.69 130.96 113.59 Z M 130.79 114.62 L 130.66 115.61 C 130.54 116.51 131.17 117.34 132.07 117.46 C 132.97 117.58 133.80 116.95 133.92 116.05 L 134.05 115.05 C 134.17 114.15 133.54 113.32 132.64 113.20 C 131.74 113.08 130.91 113.72 130.79 114.62 Z M 130.65 115.67 L 130.55 116.65 C 130.46 117.56 131.12 118.36 132.03 118.45 C 132.94 118.54 133.74 117.88 133.83 116.97 L 133.93 115.99 C 134.02 115.09 133.36 114.28 132.45 114.19 C 131.55 114.10 130.74 114.76 130.65 115.67 Z M 130.55 116.69 L 130.48 117.70 C 130.41 118.60 131.09 119.39 132.00 119.46 C 132.91 119.52 133.70 118.84 133.76 117.93 L 133.84 116.93 C 133.90 116.02 133.22 115.23 132.31 115.17 C 131.40 115.10 130.61 115.79 130.55 116.69 Z M 130.47 117.73 L 130.42 118.70 C 130.37 119.61 131.07 120.39 131.98 120.43 C 132.89 120.48 133.66 119.79 133.71 118.88 L 133.77 117.90 C 133.81 116.99 133.12 116.22 132.21 116.17 C 131.30 116.12 130.52 116.82 130.47 117.73 Z M 130.42 118.72 L 130.38 119.74 C 130.34 120.65 131.05 121.42 131.96 121.46 C 132.87 121.49 133.63 120.79 133.67 119.88 L 133.71 118.86 C 133.75 117.95 133.04 117.18 132.14 117.14 C 131.23 117.10 130.46 117.81 130.42 118.72 Z M 130.38 119.75 L 130.34 120.75 C 130.31 121.66 131.03 122.42 131.94 122.45 C 132.85 122.48 133.61 121.77 133.64 120.86 L 133.67 119.86 C 133.70 118.95 132.99 118.19 132.08 118.16 C 131.17 118.13 130.41 118.84 130.38 119.75 Z M 130.34 120.77 L 130.32 121.78 C 130.30 122.69 131.02 123.45 131.93 123.47 C 132.84 123.49 133.60 122.77 133.62 121.86 L 133.64 120.84 C 133.66 119.93 132.94 119.17 132.03 119.15 C 131.12 119.13 130.36 119.86 130.34 120.77 Z M 130.32 121.80 L 130.31 122.80 C 130.30 123.72 131.03 124.46 131.94 124.47 C 132.85 124.48 133.60 123.75 133.61 122.84 L 133.62 121.84 C 133.63 120.93 132.90 120.18 131.98 120.17 C 131.07 120.16 130.33 120.89 130.32 121.80 Z M 130.31 122.82 L 130.31 123.82 C 130.31 124.73 131.04 125.47 131.95 125.47 C 132.87 125.47 133.61 124.73 133.61 123.82 L 133.61 122.82 C 133.61 121.91 132.87 121.17 131.96 121.17 C 131.05 121.17 130.31 121.91 130.31 122.82 Z M 130.31 123.82 L 130.31 124.81 C 130.31 125.72 131.05 126.46 131.96 126.46 C 132.87 126.46 133.61 125.72 133.61 124.81 L 133.61 123.82 C 133.61 122.91 132.87 122.17 131.96 122.17 C 131.05 122.17 130.31 122.91 130.31 123.82 Z M 130.31 124.82 L 130.31 125.82 C 130.32 126.73 131.06 127.47 131.97 127.46 C 132.88 127.46 133.62 126.71 133.61 125.80 L 133.61 124.80 C 133.60 123.89 132.86 123.15 131.95 123.16 C 131.04 123.16 130.30 123.91 130.31 124.82 Z M 130.32 125.84 L 130.33 126.84 C 130.35 127.75 131.10 128.48 132.01 128.46 C 132.92 128.45 133.65 127.69 133.63 126.78 L 133.61 125.78 C 133.60 124.87 132.85 124.15 131.94 124.16 C 131.03 124.18 130.30 124.93 130.32 125.84 Z M 130.33 126.88 L 130.37 127.87 C 130.41 128.78 131.18 129.49 132.09 129.46 C 133.00 129.42 133.70 128.65 133.67 127.74 L 133.63 126.75 C 133.59 125.84 132.83 125.13 131.92 125.16 C 131.01 125.20 130.30 125.97 130.33 126.88 Z M 130.38 127.94 L 130.46 128.94 C 130.53 129.85 131.32 130.53 132.23 130.46 C 133.14 130.39 133.82 129.59 133.74 128.68 L 133.66 127.68 C 133.59 126.77 132.80 126.09 131.89 126.16 C 130.98 126.24 130.30 127.03 130.38 127.94 Z M 130.46 129.02 L 130.59 130.01 C 130.70 130.92 131.53 131.56 132.43 131.44 C 133.34 131.33 133.98 130.50 133.86 129.60 L 133.74 128.61 C 133.62 127.70 132.80 127.06 131.89 127.18 C 130.99 127.29 130.35 128.12 130.46 129.02 Z M 130.60 130.09 L 130.77 131.08 C 130.93 131.97 131.78 132.57 132.68 132.42 C 133.58 132.26 134.18 131.41 134.02 130.51 L 133.85 129.52 C 133.70 128.63 132.84 128.03 131.94 128.18 C 131.05 128.34 130.45 129.19 130.60 130.09 Z M 130.79 131.15 L 131.00 132.12 C 131.19 133.01 132.07 133.57 132.96 133.38 C 133.85 133.18 134.42 132.30 134.22 131.41 L 134.01 130.44 C 133.81 129.55 132.93 128.99 132.04 129.18 C 131.15 129.38 130.59 130.26 130.79 131.15 Z M 131.01 132.18 L 131.26 133.14 C 131.49 134.03 132.39 134.56 133.27 134.33 C 134.16 134.10 134.69 133.20 134.46 132.32 L 134.21 131.35 C 133.98 130.47 133.08 129.94 132.20 130.17 C 131.32 130.40 130.79 131.30 131.01 132.18 Z M 131.28 133.19 L 131.55 134.16 C 131.81 135.04 132.72 135.54 133.59 135.29 C 134.47 135.04 134.98 134.13 134.72 133.25 L 134.45 132.28 C 134.19 131.40 133.28 130.90 132.41 131.15 C 131.53 131.40 131.02 132.31 131.28 133.19 Z M 131.56 134.19 L 131.87 135.17 C 132.14 136.04 133.06 136.53 133.93 136.26 C 134.80 135.99 135.29 135.07 135.02 134.20 L 134.71 133.22 C 134.44 132.35 133.52 131.86 132.65 132.13 C 131.78 132.40 131.29 133.32 131.56 134.19 Z M 131.89 135.23 L 132.21 136.15 C 132.51 137.01 133.45 137.47 134.31 137.17 C 135.17 136.87 135.62 135.93 135.32 135.07 L 135.00 134.14 C 134.70 133.28 133.76 132.83 132.90 133.13 C 132.04 133.43 131.59 134.37 131.89 135.23 Z M 132.25 136.25 L 132.65 137.20 C 133.00 138.04 133.97 138.43 134.81 138.08 C 135.64 137.73 136.04 136.76 135.69 135.92 L 135.29 134.97 C 134.93 134.13 133.97 133.74 133.13 134.09 C 132.29 134.44 131.89 135.41 132.25 136.25 Z M 132.70 137.32 L 133.15 138.18 C 133.57 138.99 134.57 139.30 135.38 138.88 C 136.18 138.46 136.50 137.46 136.07 136.65 L 135.63 135.80 C 135.21 134.99 134.21 134.68 133.40 135.10 C 132.60 135.52 132.28 136.52 132.70 137.32 Z M 133.22 138.29 L 133.75 139.14 C 134.23 139.91 135.25 140.14 136.02 139.66 C 136.79 139.17 137.02 138.15 136.54 137.38 L 136.01 136.54 C 135.53 135.77 134.51 135.54 133.74 136.02 C 132.96 136.50 132.73 137.52 133.22 138.29 Z M 133.80 139.22 L 134.39 140.03 C 134.92 140.77 135.95 140.94 136.69 140.40 C 137.43 139.87 137.59 138.84 137.06 138.10 L 136.48 137.30 C 135.95 136.56 134.92 136.39 134.18 136.92 C 133.44 137.45 133.27 138.48 133.80 139.22 Z M 134.44 140.10 L 135.08 140.89 C 135.65 141.60 136.69 141.70 137.40 141.13 C 138.10 140.56 138.21 139.52 137.64 138.81 L 137.01 138.03 C 136.43 137.32 135.39 137.21 134.69 137.79 C 133.98 138.36 133.87 139.40 134.44 140.10 Z M 135.17 140.99 L 135.86 141.71 C 136.49 142.36 137.54 142.38 138.19 141.75 C 138.85 141.12 138.87 140.08 138.23 139.42 L 137.55 138.71 C 136.91 138.05 135.87 138.03 135.21 138.66 C 134.56 139.29 134.54 140.34 135.17 140.99 Z M 135.99 141.83 L 136.76 142.47 C 137.45 143.06 138.49 142.96 139.08 142.27 C 139.66 141.57 139.57 140.53 138.87 139.94 L 138.11 139.30 C 137.41 138.72 136.37 138.81 135.78 139.51 C 135.20 140.20 135.29 141.24 135.99 141.83 Z M 136.86 142.55 L 137.66 143.12 C 138.40 143.65 139.43 143.48 139.96 142.74 C 140.49 142.00 140.32 140.97 139.58 140.44 L 138.77 139.86 C 138.03 139.34 137.00 139.51 136.47 140.25 C 135.94 140.99 136.11 142.02 136.86 142.55 Z M 137.73 143.17 L 138.56 143.71 C 139.33 144.20 140.35 143.98 140.84 143.22 C 141.34 142.45 141.12 141.43 140.35 140.94 L 139.52 140.40 C 138.75 139.90 137.73 140.12 137.24 140.89 C 136.74 141.65 136.96 142.67 137.73 143.17 Z M 138.60 143.73 L 139.47 144.26 C 140.25 144.73 141.26 144.49 141.73 143.71 C 142.21 142.93 141.96 141.91 141.18 141.44 L 140.31 140.91 C 139.54 140.44 138.52 140.69 138.05 141.47 C 137.57 142.25 137.82 143.26 138.60 143.73 Z M 139.51 144.29 L 140.39 144.78 C 141.18 145.23 142.19 144.95 142.64 144.15 C 143.08 143.36 142.80 142.35 142.01 141.90 L 141.14 141.41 C 140.34 140.96 139.33 141.25 138.89 142.04 C 138.44 142.83 138.72 143.84 139.51 144.29 Z M 140.48 144.83 L 141.39 145.27 C 142.21 145.67 143.20 145.33 143.60 144.50 C 144.00 143.68 143.65 142.69 142.83 142.30 L 141.92 141.86 C 141.10 141.46 140.11 141.80 139.71 142.62 C 139.31 143.45 139.66 144.43 140.48 144.83 Z M 141.49 145.32 L 142.40 145.68 C 143.25 146.03 144.21 145.62 144.55 144.77 C 144.89 143.92 144.48 142.96 143.64 142.62 L 142.73 142.25 C 141.88 141.91 140.92 142.32 140.58 143.17 C 140.23 144.01 140.64 144.98 141.49 145.32 Z M 142.46 145.71 L 143.40 146.05 C 144.27 146.35 145.21 145.90 145.52 145.04 C 145.83 144.18 145.38 143.23 144.51 142.92 L 143.57 142.59 C 142.71 142.28 141.76 142.73 141.46 143.60 C 141.15 144.46 141.60 145.40 142.46 145.71 Z M 143.45 146.06 L 144.40 146.37 C 145.27 146.65 146.21 146.18 146.49 145.30 C 146.77 144.43 146.29 143.50 145.42 143.22 L 144.47 142.91 C 143.60 142.63 142.67 143.10 142.38 143.97 C 142.10 144.84 142.58 145.78 143.45 146.06 Z M 144.43 146.38 L 145.38 146.67 C 146.26 146.94 147.19 146.45 147.45 145.57 C 147.72 144.70 147.23 143.77 146.35 143.50 L 145.40 143.21 C 144.52 142.94 143.60 143.43 143.33 144.31 C 143.06 145.18 143.55 146.11 144.43 146.38 Z M 145.39 146.68 L 146.35 146.96 C 147.23 147.23 148.15 146.73 148.42 145.85 C 148.68 144.97 148.18 144.05 147.30 143.79 L 146.35 143.50 C 145.47 143.23 144.54 143.73 144.28 144.61 C 144.01 145.49 144.51 146.41 145.39 146.68 Z M 146.38 146.97 L 147.30 147.23 C 148.18 147.48 149.10 146.97 149.35 146.09 C 149.60 145.20 149.08 144.29 148.20 144.04 L 147.28 143.78 C 146.39 143.53 145.48 144.04 145.23 144.92 C 144.98 145.81 145.49 146.72 146.38 146.97 Z M 147.35 147.25 L 148.26 147.47 C 149.15 147.69 150.05 147.15 150.27 146.26 C 150.49 145.36 149.95 144.46 149.06 144.25 L 148.15 144.02 C 147.25 143.80 146.35 144.35 146.13 145.24 C 145.92 146.13 146.46 147.03 147.35 147.25 Z M 148.31 147.48 L 149.33 147.70 C 150.23 147.89 151.12 147.32 151.31 146.42 C 151.50 145.53 150.93 144.64 150.03 144.45 L 149.01 144.23 C 148.11 144.04 147.23 144.61 147.03 145.51 C 146.84 146.41 147.42 147.29 148.31 147.48 Z M 149.37 147.71 L 150.31 147.89 C 151.22 148.07 152.09 147.48 152.26 146.58 C 152.44 145.67 151.85 144.80 150.95 144.63 L 150.00 144.44 C 149.10 144.27 148.22 144.86 148.05 145.76 C 147.88 146.66 148.46 147.53 149.37 147.71 Z M 150.34 147.90 L 151.38 148.08 C 152.29 148.24 153.15 147.63 153.31 146.73 C 153.46 145.82 152.86 144.96 151.95 144.80 L 150.92 144.62 C 150.01 144.46 149.15 145.07 148.99 145.97 C 148.83 146.88 149.44 147.74 150.34 147.90 Z M 151.42 148.09 L 152.42 148.24 C 153.32 148.37 154.17 147.75 154.31 146.84 C 154.45 145.93 153.82 145.09 152.91 144.95 L 151.92 144.80 C 151.01 144.66 150.16 145.28 150.02 146.19 C 149.89 147.10 150.51 147.95 151.42 148.09 Z M 152.46 148.24 L 153.39 148.36 C 154.31 148.47 155.14 147.83 155.25 146.91 C 155.36 146.00 154.72 145.17 153.81 145.06 L 152.87 144.94 C 151.96 144.83 151.13 145.48 151.01 146.39 C 150.90 147.30 151.55 148.13 152.46 148.24 Z M 153.44 148.36 L 154.43 148.46 C 155.34 148.55 156.16 147.89 156.25 146.97 C 156.34 146.06 155.67 145.24 154.76 145.15 L 153.76 145.05 C 152.85 144.96 152.04 145.63 151.94 146.55 C 151.85 147.46 152.52 148.27 153.44 148.36 Z M 154.46 148.47 L 155.55 148.55 C 156.46 148.62 157.27 147.94 157.34 147.02 C 157.41 146.11 156.72 145.30 155.81 145.23 L 154.72 145.15 C 153.81 145.08 153.01 145.76 152.93 146.68 C 152.86 147.59 153.55 148.39 154.46 148.47 Z M 155.57 148.55 L 156.61 148.62 C 157.52 148.68 158.32 147.98 158.37 147.06 C 158.43 146.15 157.74 145.36 156.82 145.30 L 155.78 145.23 C 154.87 145.17 154.08 145.87 154.02 146.79 C 153.96 147.70 154.66 148.49 155.57 148.55 Z M 156.62 148.62 L 157.68 148.68 C 158.60 148.73 159.38 148.02 159.44 147.11 C 159.49 146.19 158.78 145.40 157.86 145.35 L 156.80 145.30 C 155.89 145.25 155.10 145.95 155.05 146.87 C 155.00 147.78 155.71 148.57 156.62 148.62 Z M 157.70 148.68 L 158.70 148.73 C 159.62 148.77 160.40 148.06 160.44 147.14 C 160.48 146.22 159.77 145.44 158.86 145.40 L 157.85 145.35 C 156.93 145.31 156.16 146.02 156.11 146.94 C 156.07 147.86 156.78 148.63 157.70 148.68 Z M 158.71 148.73 L 159.68 148.76 C 160.60 148.80 161.37 148.08 161.40 147.17 C 161.44 146.25 160.73 145.47 159.81 145.44 L 158.84 145.40 C 157.92 145.36 157.15 146.08 157.11 147.00 C 157.08 147.92 157.79 148.69 158.71 148.73 Z M 159.70 148.76 L 160.83 148.79 C 161.74 148.81 162.51 148.09 162.53 147.17 C 162.55 146.25 161.83 145.49 160.91 145.47 L 159.78 145.44 C 158.86 145.42 158.10 146.14 158.08 147.06 C 158.06 147.98 158.78 148.74 159.70 148.76 Z M 160.86 148.79 L 161.67 148.80 C 162.58 148.80 163.33 148.06 163.34 147.14 C 163.34 146.22 162.60 145.47 161.68 145.47 L 160.87 145.47 C 159.95 145.46 159.21 146.20 159.20 147.12 C 159.20 148.04 159.94 148.79 160.86 148.79 Z M 161.67 148.80 L 162.67 148.80 C 163.59 148.80 164.34 148.05 164.34 147.13 C 164.34 146.21 163.59 145.47 162.67 145.47 L 161.67 145.47 C 160.75 145.47 160.01 146.21 160.01 147.13 C 160.01 148.05 160.75 148.80 161.67 148.80 Z M 162.67 148.80 L 163.61 148.80 C 164.53 148.80 165.27 148.05 165.27 147.13 C 165.27 146.21 164.53 145.47 163.61 145.47 L 162.67 145.47 C 161.75 145.47 161.01 146.21 161.01 147.13 C 161.01 148.05 161.75 148.80 162.67 148.80 Z M 163.61 148.80 L 164.62 148.80 C 165.54 148.80 166.28 148.05 166.28 147.13 C 166.28 146.21 165.54 145.47 164.62 145.47 L 163.61 145.47 C 162.69 145.47 161.95 146.21 161.95 147.13 C 161.95 148.05 162.69 148.80 163.61 148.80 Z M 164.62 148.80 L 165.60 148.80 C 166.52 148.80 167.26 148.05 167.26 147.13 C 167.26 146.21 166.52 145.47 165.60 145.47 L 164.62 145.47 C 163.70 145.47 162.96 146.21 162.96 147.13 C 162.96 148.05 163.70 148.79 164.62 148.80 Z M 165.59 148.79 L 166.61 148.80 C 167.53 148.80 168.27 148.06 168.27 147.14 C 168.28 146.22 167.54 145.48 166.62 145.47 L 165.60 145.47 C 164.69 145.47 163.94 146.21 163.94 147.13 C 163.93 148.05 164.68 148.79 165.59 148.79 Z M 166.60 148.80 L 167.66 148.81 C 168.58 148.81 169.33 148.08 169.34 147.16 C 169.35 146.24 168.61 145.49 167.69 145.48 L 166.63 145.47 C 165.71 145.47 164.96 146.20 164.95 147.12 C 164.94 148.04 165.68 148.79 166.60 148.80 Z M 167.65 148.80 L 168.69 148.82 C 169.61 148.84 170.37 148.11 170.38 147.19 C 170.40 146.27 169.67 145.52 168.75 145.50 L 167.71 145.48 C 166.79 145.47 166.03 146.20 166.02 147.12 C 166.00 148.03 166.73 148.79 167.65 148.80 Z M 168.68 148.82 L 169.67 148.85 C 170.58 148.87 171.35 148.15 171.37 147.23 C 171.40 146.32 170.67 145.56 169.76 145.53 L 168.77 145.50 C 167.85 145.48 167.09 146.20 167.06 147.12 C 167.04 148.03 167.76 148.79 168.68 148.82 Z M 169.64 148.84 L 170.64 148.89 C 171.56 148.93 172.33 148.22 172.37 147.30 C 172.41 146.39 171.70 145.62 170.79 145.58 L 169.78 145.53 C 168.87 145.50 168.10 146.20 168.06 147.12 C 168.02 148.03 168.73 148.80 169.64 148.84 Z M 170.61 148.88 L 171.62 148.94 C 172.53 149.00 173.32 148.31 173.38 147.40 C 173.43 146.49 172.74 145.70 171.83 145.65 L 170.82 145.58 C 169.91 145.52 169.12 146.22 169.07 147.13 C 169.01 148.04 169.70 148.82 170.61 148.88 Z M 171.59 148.94 L 172.53 149.02 C 173.44 149.09 174.24 148.41 174.31 147.51 C 174.39 146.60 173.71 145.80 172.80 145.73 L 171.86 145.65 C 170.95 145.58 170.16 146.25 170.08 147.16 C 170.01 148.07 170.68 148.87 171.59 148.94 Z M 172.44 149.00 L 173.42 149.14 C 174.32 149.26 175.15 148.63 175.27 147.73 C 175.40 146.83 174.77 146.00 173.87 145.87 L 172.89 145.74 C 171.99 145.62 171.16 146.25 171.04 147.15 C 170.91 148.05 171.54 148.88 172.44 149.00 Z M 173.18 149.08 L 174.14 149.37 C 175.01 149.62 175.93 149.12 176.18 148.25 C 176.44 147.38 175.94 146.46 175.07 146.21 L 174.10 145.93 C 173.23 145.67 172.32 146.17 172.06 147.04 C 171.81 147.92 172.31 148.83 173.18 149.08 Z M 173.83 149.24 L 174.72 149.71 C 175.52 150.14 176.52 149.84 176.94 149.04 C 177.37 148.23 177.07 147.24 176.27 146.81 L 175.38 146.34 C 174.58 145.91 173.58 146.21 173.15 147.01 C 172.73 147.81 173.03 148.81 173.83 149.24 Z M 174.29 149.38 L 174.98 150.13 C 175.60 150.79 176.64 150.83 177.30 150.21 C 177.97 149.59 178.01 148.55 177.39 147.88 L 176.70 147.14 C 176.08 146.48 175.04 146.44 174.37 147.06 C 173.71 147.68 173.67 148.72 174.29 149.38 Z M 174.61 149.52 L 174.93 150.48 C 175.21 151.35 176.14 151.82 177.01 151.54 C 177.88 151.26 178.35 150.33 178.07 149.46 L 177.75 148.49 C 177.47 147.63 176.54 147.15 175.67 147.44 C 174.81 147.72 174.33 148.65 174.61 149.52 Z M 174.88 149.61 L 174.68 150.50 C 174.48 151.39 175.04 152.28 175.93 152.48 C 176.83 152.68 177.71 152.12 177.91 151.23 L 178.12 150.33 C 178.32 149.44 177.75 148.55 176.86 148.35 C 175.97 148.15 175.08 148.71 174.88 149.61 Z M 175.20 149.62 L 174.46 150.27 C 173.77 150.88 173.70 151.93 174.31 152.62 C 174.92 153.31 175.97 153.37 176.66 152.76 L 177.40 152.11 C 178.09 151.50 178.15 150.45 177.54 149.76 C 176.93 149.07 175.88 149.01 175.20 149.62 Z M 174.81 150.03 L 173.99 150.45 C 173.17 150.86 172.84 151.86 173.25 152.68 C 173.66 153.50 174.66 153.83 175.48 153.42 L 176.31 153.01 C 177.13 152.59 177.46 151.59 177.04 150.77 C 176.63 149.95 175.63 149.62 174.81 150.03 Z M 174.17 150.37 L 173.19 150.72 C 172.32 151.04 171.88 151.99 172.19 152.86 C 172.51 153.72 173.46 154.17 174.33 153.85 L 175.30 153.50 C 176.17 153.18 176.62 152.23 176.30 151.36 C 175.99 150.50 175.03 150.05 174.17 150.37 Z M 173.30 150.69 L 172.33 150.96 C 171.45 151.22 170.94 152.14 171.19 153.03 C 171.45 153.91 172.37 154.42 173.26 154.17 L 174.22 153.89 C 175.10 153.63 175.61 152.71 175.36 151.83 C 175.10 150.94 174.18 150.43 173.30 150.69 Z M 172.38 150.95 L 171.39 151.21 C 170.50 151.44 169.96 152.34 170.19 153.24 C 170.42 154.13 171.33 154.66 172.22 154.43 L 173.21 154.18 C 174.10 153.95 174.64 153.04 174.41 152.15 C 174.18 151.26 173.27 150.72 172.38 150.95 Z M 171.41 151.20 L 170.41 151.45 C 169.51 151.67 168.97 152.57 169.19 153.47 C 169.41 154.36 170.31 154.91 171.21 154.69 L 172.21 154.44 C 173.10 154.22 173.65 153.32 173.43 152.42 C 173.21 151.53 172.30 150.98 171.41 151.20 Z M 170.41 151.45 L 169.34 151.71 C 168.45 151.93 167.90 152.83 168.12 153.73 C 168.34 154.62 169.25 155.17 170.14 154.95 L 171.21 154.69 C 172.10 154.47 172.65 153.56 172.43 152.67 C 172.21 151.77 171.30 151.23 170.41 151.45 Z M 169.34 151.71 L 168.38 151.95 C 167.48 152.17 166.94 153.08 167.16 153.97 C 167.39 154.87 168.29 155.41 169.19 155.19 L 170.15 154.95 C 171.04 154.72 171.59 153.82 171.36 152.92 C 171.14 152.03 170.23 151.49 169.34 151.71 Z M 168.37 151.95 L 167.44 152.19 C 166.55 152.41 166.01 153.32 166.24 154.21 C 166.46 155.11 167.37 155.65 168.26 155.42 L 169.19 155.19 C 170.09 154.96 170.63 154.05 170.40 153.16 C 170.17 152.26 169.27 151.72 168.37 151.95 Z M 167.44 152.19 L 166.49 152.43 C 165.60 152.66 165.06 153.57 165.28 154.46 C 165.51 155.35 166.42 155.89 167.31 155.66 L 168.27 155.42 C 169.16 155.19 169.70 154.28 169.47 153.39 C 169.24 152.50 168.33 151.96 167.44 152.19 Z M 166.50 152.43 L 165.58 152.65 C 164.69 152.87 164.14 153.78 164.36 154.67 C 164.58 155.57 165.48 156.11 166.38 155.89 L 167.30 155.67 C 168.20 155.45 168.74 154.54 168.52 153.65 C 168.30 152.75 167.40 152.21 166.50 152.43 Z M 165.59 152.65 L 164.59 152.89 C 163.70 153.11 163.15 154.01 163.37 154.91 C 163.58 155.80 164.48 156.35 165.38 156.14 L 166.37 155.90 C 167.27 155.68 167.82 154.78 167.60 153.88 C 167.38 152.99 166.48 152.44 165.59 152.65 Z M 164.59 152.89 L 163.63 153.13 C 162.73 153.35 162.19 154.26 162.41 155.15 C 162.63 156.05 163.54 156.59 164.43 156.37 L 165.39 156.13 C 166.28 155.91 166.83 155.01 166.61 154.11 C 166.38 153.22 165.48 152.67 164.59 152.89 Z M 163.62 153.13 L 162.64 153.38 C 161.75 153.60 161.20 154.51 161.43 155.41 C 161.65 156.30 162.56 156.84 163.45 156.62 L 164.44 156.37 C 165.33 156.14 165.87 155.24 165.65 154.34 C 165.42 153.45 164.52 152.91 163.62 153.13 Z M 162.64 153.38 L 161.69 153.62 C 160.80 153.85 160.26 154.76 160.48 155.65 C 160.71 156.54 161.62 157.08 162.51 156.86 L 163.46 156.62 C 164.35 156.39 164.89 155.48 164.67 154.59 C 164.44 153.69 163.53 153.15 162.64 153.38 Z M 161.68 153.62 L 160.69 153.88 C 159.80 154.11 159.27 155.03 159.50 155.92 C 159.73 156.81 160.64 157.34 161.53 157.11 L 162.52 156.85 C 163.41 156.62 163.95 155.71 163.72 154.82 C 163.48 153.93 162.57 153.39 161.68 153.62 Z M 160.68 153.88 L 159.72 154.14 C 158.83 154.38 158.30 155.30 158.54 156.19 C 158.78 157.08 159.70 157.61 160.59 157.37 L 161.55 157.11 C 162.44 156.87 162.96 155.95 162.72 155.06 C 162.48 154.17 161.57 153.64 160.68 153.88 Z M 159.72 154.14 L 158.74 154.41 C 157.85 154.65 157.33 155.57 157.57 156.46 C 157.81 157.35 158.73 157.87 159.62 157.63 L 160.59 157.36 C 161.48 157.12 162.01 156.21 161.77 155.32 C 161.53 154.43 160.61 153.90 159.72 154.14 Z M 158.74 154.41 L 157.78 154.67 C 156.89 154.91 156.36 155.83 156.60 156.72 C 156.84 157.61 157.76 158.13 158.65 157.89 L 159.61 157.63 C 160.50 157.39 161.03 156.47 160.79 155.58 C 160.55 154.69 159.63 154.17 158.74 154.41 Z M 157.77 154.67 L 156.81 154.94 C 155.92 155.18 155.40 156.10 155.64 156.99 C 155.89 157.88 156.80 158.40 157.69 158.15 L 158.65 157.89 C 159.54 157.65 160.07 156.73 159.82 155.84 C 159.58 154.95 158.66 154.43 157.77 154.67 Z M 156.79 154.94 L 155.83 155.21 C 154.95 155.47 154.44 156.40 154.69 157.28 C 154.95 158.17 155.87 158.68 156.76 158.43 L 157.71 158.15 C 158.60 157.90 159.11 156.97 158.86 156.08 C 158.60 155.20 157.67 154.68 156.79 154.94 Z M 155.82 155.22 L 154.85 155.50 C 153.97 155.77 153.47 156.70 153.73 157.59 C 154.00 158.48 154.93 158.98 155.82 158.71 L 156.78 158.42 C 157.67 158.16 158.17 157.22 157.90 156.34 C 157.64 155.45 156.70 154.95 155.82 155.22 Z M 154.84 155.50 L 153.88 155.80 C 153.00 156.07 152.50 157.01 152.77 157.90 C 153.04 158.78 153.98 159.28 154.87 159.01 L 155.83 158.71 C 156.72 158.44 157.21 157.50 156.94 156.61 C 156.67 155.73 155.73 155.23 154.84 155.50 Z M 153.87 155.80 L 152.92 156.10 C 152.04 156.37 151.54 157.32 151.82 158.20 C 152.10 159.09 153.04 159.58 153.93 159.31 L 154.88 159.01 C 155.76 158.73 156.26 157.79 155.98 156.90 C 155.70 156.02 154.76 155.52 153.87 155.80 Z M 152.91 156.10 L 151.96 156.41 C 151.07 156.69 150.58 157.63 150.86 158.52 C 151.15 159.40 152.09 159.89 152.98 159.61 L 153.93 159.30 C 154.82 159.02 155.31 158.08 155.03 157.19 C 154.74 156.31 153.80 155.82 152.91 156.10 Z M 151.95 156.41 L 151.00 156.72 C 150.12 157.00 149.63 157.95 149.92 158.83 C 150.21 159.72 151.16 160.20 152.04 159.91 L 152.99 159.61 C 153.87 159.32 154.35 158.37 154.07 157.49 C 153.78 156.60 152.83 156.12 151.95 156.41 Z M 150.99 156.72 L 150.04 157.03 C 149.16 157.33 148.68 158.28 148.97 159.16 C 149.26 160.04 150.22 160.52 151.10 160.23 L 152.05 159.91 C 152.93 159.62 153.41 158.67 153.12 157.79 C 152.83 156.90 151.87 156.43 150.99 156.72 Z M 150.03 157.03 L 149.09 157.35 C 148.21 157.65 147.74 158.60 148.03 159.48 C 148.33 160.36 149.28 160.84 150.16 160.54 L 151.10 160.22 C 151.98 159.93 152.46 158.98 152.16 158.09 C 151.87 157.21 150.91 156.74 150.03 157.03 Z M 149.09 157.35 L 148.15 157.67 C 147.27 157.97 146.79 158.92 147.09 159.80 C 147.39 160.68 148.34 161.16 149.22 160.86 L 150.17 160.54 C 151.05 160.24 151.52 159.29 151.22 158.41 C 150.92 157.53 149.97 157.05 149.09 157.35 Z M 148.15 157.67 L 147.18 157.99 C 146.30 158.29 145.83 159.24 146.13 160.13 C 146.42 161.01 147.38 161.48 148.26 161.18 L 149.22 160.86 C 150.10 160.56 150.58 159.61 150.28 158.73 C 149.98 157.84 149.03 157.37 148.15 157.67 Z M 147.18 157.99 L 146.22 158.31 C 145.34 158.61 144.86 159.57 145.16 160.45 C 145.46 161.33 146.41 161.81 147.30 161.51 L 148.26 161.19 C 149.14 160.89 149.62 159.93 149.32 159.05 C 149.02 158.17 148.07 157.69 147.18 157.99 Z M 146.21 158.32 L 145.27 158.64 C 144.39 158.94 143.92 159.90 144.22 160.78 C 144.52 161.66 145.48 162.13 146.36 161.83 L 147.30 161.51 C 148.19 161.21 148.66 160.25 148.35 159.37 C 148.05 158.48 147.09 158.01 146.21 158.32 Z M 145.25 158.65 L 144.29 158.99 C 143.41 159.30 142.95 160.27 143.26 161.14 C 143.58 162.02 144.54 162.48 145.42 162.17 L 146.38 161.82 C 147.26 161.51 147.72 160.55 147.40 159.67 C 147.09 158.79 146.12 158.33 145.25 158.65 Z M 144.27 158.99 L 143.33 159.34 C 142.46 159.66 142.01 160.64 142.34 161.51 C 142.66 162.39 143.64 162.83 144.51 162.51 L 145.44 162.16 C 146.32 161.84 146.76 160.86 146.44 159.99 C 146.11 159.11 145.14 158.67 144.27 158.99 Z M 143.33 159.34 L 142.41 159.68 C 141.54 160.01 141.10 160.98 141.42 161.86 C 141.75 162.73 142.72 163.17 143.60 162.85 L 144.51 162.51 C 145.39 162.18 145.83 161.21 145.51 160.33 C 145.18 159.46 144.21 159.01 143.33 159.34 Z M 142.43 159.68 L 141.48 160.02 C 140.61 160.34 140.15 161.31 140.47 162.19 C 140.79 163.06 141.76 163.52 142.64 163.20 L 143.58 162.85 C 144.46 162.54 144.91 161.57 144.59 160.69 C 144.28 159.81 143.30 159.36 142.43 159.68 Z M 141.50 160.01 L 140.56 160.34 C 139.68 160.65 139.21 161.62 139.52 162.50 C 139.83 163.38 140.80 163.84 141.68 163.54 L 142.62 163.20 C 143.50 162.90 143.97 161.93 143.66 161.05 C 143.35 160.17 142.38 159.70 141.50 160.01 Z M 140.57 160.34 L 139.62 160.66 C 138.74 160.96 138.27 161.92 138.57 162.81 C 138.87 163.69 139.83 164.17 140.72 163.87 L 141.67 163.54 C 142.55 163.24 143.02 162.28 142.72 161.39 C 142.42 160.51 141.46 160.03 140.57 160.34 Z M 139.61 160.66 L 138.68 160.99 C 137.80 161.29 137.33 162.26 137.64 163.14 C 137.94 164.02 138.91 164.49 139.79 164.19 L 140.72 163.86 C 141.61 163.56 142.08 162.59 141.77 161.71 C 141.46 160.82 140.50 160.36 139.61 160.66 Z M 138.66 160.99 L 137.72 161.33 C 136.84 161.65 136.39 162.62 136.71 163.50 C 137.02 164.38 138.00 164.84 138.88 164.52 L 139.81 164.18 C 140.69 163.86 141.15 162.89 140.83 162.01 C 140.51 161.13 139.54 160.67 138.66 160.99 Z M 137.71 161.34 L 136.80 161.67 C 135.92 162.00 135.47 162.98 135.80 163.85 C 136.13 164.73 137.10 165.18 137.98 164.85 L 138.89 164.51 C 139.77 164.19 140.22 163.21 139.89 162.33 C 139.56 161.46 138.59 161.01 137.71 161.34 Z M 136.78 161.68 L 135.85 162.04 C 134.98 162.38 134.54 163.36 134.88 164.23 C 135.21 165.11 136.20 165.54 137.07 165.20 L 138.00 164.85 C 138.87 164.51 139.31 163.53 138.97 162.65 C 138.64 161.78 137.65 161.34 136.78 161.68 Z M 135.82 162.05 L 134.87 162.44 C 134.00 162.79 133.58 163.78 133.94 164.65 C 134.29 165.52 135.28 165.93 136.15 165.58 L 137.10 165.19 C 137.97 164.84 138.39 163.85 138.03 162.98 C 137.68 162.11 136.69 161.70 135.82 162.05 Z M 134.83 162.45 L 133.90 162.86 C 133.04 163.23 132.65 164.23 133.02 165.09 C 133.40 165.95 134.40 166.35 135.26 165.97 L 136.19 165.57 C 137.05 165.19 137.44 164.19 137.07 163.33 C 136.69 162.47 135.69 162.08 134.83 162.45 Z M 133.84 162.88 L 132.93 163.32 C 132.09 163.72 131.73 164.74 132.13 165.59 C 132.54 166.43 133.55 166.79 134.40 166.38 L 135.31 165.95 C 136.16 165.54 136.52 164.53 136.11 163.68 C 135.71 162.83 134.69 162.48 133.84 162.88 Z M 132.85 163.36 L 131.95 163.85 C 131.12 164.30 130.82 165.34 131.27 166.16 C 131.72 166.99 132.75 167.29 133.58 166.84 L 134.48 166.34 C 135.31 165.89 135.61 164.86 135.16 164.03 C 134.71 163.21 133.67 162.91 132.85 163.36 Z M 131.86 163.90 L 131.05 164.41 C 130.25 164.90 130.01 165.95 130.51 166.75 C 131.00 167.55 132.05 167.79 132.85 167.30 L 133.66 166.79 C 134.46 166.29 134.70 165.24 134.21 164.45 C 133.71 163.65 132.66 163.40 131.86 163.90 Z M 130.93 164.49 L 130.13 165.08 C 129.38 165.64 129.22 166.71 129.79 167.46 C 130.35 168.22 131.41 168.37 132.17 167.81 L 132.97 167.22 C 133.72 166.65 133.88 165.59 133.32 164.83 C 132.75 164.08 131.69 163.92 130.93 164.49 Z M 129.91 165.28 L 129.24 165.99 C 128.60 166.68 128.64 167.76 129.32 168.40 C 130.01 169.04 131.09 169.01 131.73 168.32 L 132.40 167.61 C 133.04 166.92 133.00 165.84 132.31 165.20 C 131.63 164.56 130.55 164.60 129.91 165.28 Z M 129.04 166.26 L 128.52 167.11 C 128.02 167.91 128.27 168.96 129.07 169.45 C 129.87 169.95 130.92 169.70 131.42 168.90 L 131.94 168.05 C 132.43 167.25 132.18 166.20 131.38 165.71 C 130.58 165.21 129.53 165.46 129.04 166.26 Z M 128.39 167.35 L 128.01 168.28 C 127.65 169.15 128.06 170.15 128.93 170.51 C 129.80 170.86 130.80 170.45 131.16 169.58 L 131.54 168.65 C 131.90 167.78 131.49 166.79 130.62 166.43 C 129.75 166.07 128.75 166.48 128.39 167.35 Z M 127.93 168.49 L 127.68 169.45 C 127.44 170.36 127.98 171.29 128.89 171.53 C 129.80 171.77 130.73 171.23 130.98 170.32 L 131.23 169.37 C 131.47 168.46 130.93 167.52 130.02 167.28 C 129.11 167.04 128.18 167.58 127.93 168.49 Z M 127.64 169.64 L 127.49 170.66 C 127.36 171.60 128.01 172.46 128.94 172.59 C 129.87 172.73 130.73 172.08 130.87 171.15 L 131.02 170.13 C 131.15 169.20 130.50 168.33 129.57 168.20 C 128.64 168.07 127.78 168.71 127.64 169.64 Z M 127.48 170.81 L 127.42 171.82 C 127.37 172.76 128.09 173.57 129.03 173.62 C 129.97 173.67 130.78 172.95 130.83 172.01 L 130.88 171.00 C 130.93 170.06 130.21 169.26 129.27 169.21 C 128.33 169.15 127.53 169.87 127.48 170.81 Z M 127.42 171.90 L 127.41 172.90 C 127.40 173.84 128.16 174.61 129.10 174.62 C 130.04 174.63 130.81 173.87 130.82 172.93 L 130.83 171.94 C 130.84 170.99 130.08 170.22 129.14 170.21 C 128.20 170.20 127.43 170.96 127.42 171.90 Z M 127.41 172.91 L 127.41 173.92 C 127.41 174.86 128.17 175.62 129.12 175.62 C 130.06 175.62 130.82 174.86 130.82 173.92 L 130.82 172.91 C 130.82 171.97 130.06 171.21 129.12 171.21 C 128.17 171.21 127.41 171.97 127.41 172.91 Z M 127.41 173.92 L 127.41 174.90 C 127.41 175.84 128.17 176.61 129.12 176.61 C 130.06 176.61 130.82 175.84 130.82 174.90 L 130.82 173.92 C 130.82 172.98 130.06 172.21 129.12 172.21 C 128.17 172.21 127.41 172.98 127.41 173.92 Z M 127.41 174.90 L 127.41 175.88 C 127.41 176.82 128.17 177.59 129.12 177.59 C 130.06 177.59 130.82 176.82 130.82 175.88 L 130.82 174.90 C 130.82 173.96 130.06 173.20 129.12 173.20 C 128.17 173.20 127.41 173.96 127.41 174.90 Z M 127.41 175.88 L 127.41 176.89 C 127.41 177.83 128.17 178.59 129.12 178.59 C 130.06 178.59 130.82 177.83 130.82 176.89 L 130.82 175.88 C 130.82 174.94 130.06 174.18 129.12 174.18 C 128.17 174.18 127.41 174.94 127.41 175.88 Z M 127.41 176.89 L 127.41 177.90 C 127.41 178.84 128.17 179.61 129.12 179.61 C 130.06 179.61 130.82 178.84 130.82 177.90 L 130.82 176.89 C 130.82 175.95 130.06 175.18 129.12 175.18 C 128.17 175.18 127.41 175.95 127.41 176.89 Z M 127.41 177.90 L 127.41 178.89 C 127.41 179.83 128.16 180.60 129.11 180.60 C 130.05 180.60 130.81 179.84 130.82 178.90 L 130.82 177.91 C 130.82 176.97 130.06 176.20 129.12 176.20 C 128.18 176.20 127.42 176.96 127.41 177.90 Z M 127.41 178.87 L 127.39 179.87 C 127.38 180.81 128.13 181.59 129.07 181.61 C 130.01 181.62 130.78 180.87 130.80 179.93 L 130.82 178.92 C 130.83 177.98 130.08 177.21 129.14 177.19 C 128.20 177.18 127.42 177.93 127.41 178.87 Z M 127.39 179.84 L 127.36 180.77 C 127.32 181.71 128.05 182.50 128.99 182.54 C 129.93 182.57 130.72 181.84 130.76 180.90 L 130.80 179.97 C 130.83 179.03 130.10 178.24 129.16 178.20 C 128.22 178.16 127.43 178.90 127.39 179.84 Z M 127.36 180.72 L 127.29 181.69 C 127.23 182.63 127.94 183.44 128.88 183.50 C 129.82 183.57 130.63 182.86 130.69 181.92 L 130.76 180.95 C 130.82 180.01 130.11 179.20 129.17 179.14 C 128.23 179.07 127.42 179.78 127.36 180.72 Z M 127.30 181.64 L 127.19 182.72 C 127.10 183.66 127.78 184.49 128.72 184.58 C 129.65 184.68 130.49 183.99 130.58 183.06 L 130.69 181.97 C 130.78 181.04 130.10 180.20 129.16 180.11 C 128.23 180.02 127.39 180.70 127.30 181.64 Z M 127.20 182.68 L 127.08 183.62 C 126.96 184.55 127.62 185.40 128.55 185.52 C 129.49 185.64 130.34 184.97 130.46 184.04 L 130.58 183.10 C 130.69 182.17 130.03 181.32 129.10 181.20 C 128.16 181.08 127.31 181.74 127.20 182.68 Z M 127.08 183.58 L 126.94 184.57 C 126.80 185.50 127.45 186.37 128.38 186.50 C 129.31 186.64 130.17 186.00 130.31 185.07 L 130.45 184.08 C 130.59 183.14 129.94 182.28 129.01 182.14 C 128.08 182.01 127.22 182.65 127.08 183.58 Z M 126.94 184.54 L 126.77 185.56 C 126.62 186.49 127.25 187.36 128.17 187.52 C 129.10 187.67 129.98 187.05 130.13 186.12 L 130.30 185.10 C 130.46 184.17 129.83 183.29 128.90 183.14 C 127.97 182.98 127.10 183.61 126.94 184.54 Z M 126.78 185.52 L 126.59 186.55 C 126.41 187.48 127.02 188.37 127.95 188.54 C 128.87 188.71 129.76 188.11 129.93 187.18 L 130.13 186.15 C 130.30 185.23 129.69 184.34 128.77 184.17 C 127.84 183.99 126.95 184.60 126.78 185.52 Z M 126.59 186.52 L 126.37 187.56 C 126.18 188.48 126.77 189.38 127.69 189.57 C 128.61 189.77 129.51 189.18 129.71 188.26 L 129.93 187.22 C 130.12 186.30 129.53 185.39 128.61 185.20 C 127.69 185.01 126.79 185.59 126.59 186.52 Z M 126.38 187.52 L 126.15 188.51 C 125.94 189.43 126.51 190.34 127.43 190.55 C 128.34 190.77 129.26 190.19 129.47 189.28 L 129.70 188.29 C 129.91 187.38 129.34 186.46 128.43 186.25 C 127.51 186.04 126.59 186.61 126.38 187.52 Z M 126.16 188.48 L 125.93 189.40 C 125.71 190.31 126.26 191.23 127.17 191.46 C 128.09 191.69 129.01 191.13 129.24 190.22 L 129.47 189.30 C 129.69 188.39 129.14 187.47 128.22 187.24 C 127.31 187.01 126.39 187.57 126.16 188.48 Z M 125.94 189.37 L 125.70 190.28 C 125.46 191.20 126.01 192.13 126.92 192.37 C 127.83 192.60 128.76 192.06 129.00 191.15 L 129.23 190.24 C 129.47 189.33 128.93 188.40 128.02 188.16 C 127.11 187.92 126.18 188.46 125.94 189.37 Z M 125.70 190.27 L 125.45 191.18 C 125.21 192.09 125.74 193.03 126.65 193.27 C 127.56 193.52 128.50 192.98 128.75 192.07 L 129.00 191.16 C 129.24 190.25 128.70 189.32 127.80 189.07 C 126.89 188.82 125.95 189.36 125.70 190.27 Z M 125.45 191.17 L 125.18 192.16 C 124.93 193.07 125.47 194.01 126.38 194.26 C 127.29 194.51 128.23 193.98 128.48 193.07 L 128.75 192.08 C 129.00 191.17 128.46 190.23 127.55 189.98 C 126.64 189.73 125.70 190.26 125.45 191.17 Z M 125.18 192.17 L 124.90 193.17 C 124.65 194.09 125.19 195.03 126.11 195.28 C 127.02 195.53 127.96 194.99 128.21 194.07 L 128.48 193.06 C 128.73 192.15 128.19 191.21 127.28 190.96 C 126.36 190.71 125.42 191.25 125.18 192.17 Z M 124.90 193.18 L 124.63 194.19 C 124.38 195.11 124.92 196.05 125.84 196.29 C 126.75 196.54 127.69 196.00 127.94 195.08 L 128.21 194.07 C 128.46 193.15 127.91 192.21 127.00 191.97 C 126.08 191.72 125.14 192.27 124.90 193.18 Z M 124.63 194.20 L 124.36 195.21 C 124.11 196.13 124.66 197.07 125.57 197.31 C 126.49 197.55 127.43 197.01 127.67 196.09 L 127.94 195.08 C 128.18 194.16 127.64 193.22 126.72 192.98 C 125.81 192.74 124.87 193.28 124.63 194.20 Z M 124.35 195.21 L 124.11 196.13 C 123.87 197.05 124.41 197.99 125.33 198.23 C 126.24 198.48 127.18 197.93 127.43 197.02 L 127.67 196.09 C 127.91 195.18 127.37 194.24 126.45 193.99 C 125.54 193.75 124.60 194.30 124.35 195.21 Z M 124.11 196.14 L 123.84 197.15 C 123.60 198.06 124.14 199.00 125.06 199.25 C 125.98 199.49 126.92 198.94 127.16 198.03 L 127.43 197.01 C 127.67 196.10 127.12 195.16 126.21 194.92 C 125.29 194.67 124.35 195.22 124.11 196.14 Z M 123.84 197.16 L 123.61 198.05 C 123.37 198.96 123.92 199.90 124.84 200.14 C 125.76 200.38 126.69 199.83 126.93 198.91 L 127.16 198.02 C 127.40 197.10 126.85 196.16 125.93 195.93 C 125.01 195.69 124.08 196.24 123.84 197.16 Z M 123.60 198.06 L 123.37 198.98 C 123.14 199.90 123.70 200.83 124.62 201.06 C 125.54 201.29 126.47 200.74 126.70 199.82 L 126.93 198.90 C 127.16 197.98 126.61 197.04 125.69 196.81 C 124.77 196.58 123.83 197.14 123.60 198.06 Z M 123.37 198.99 L 123.14 199.91 C 122.92 200.84 123.48 201.77 124.41 201.99 C 125.33 202.22 126.26 201.65 126.48 200.73 L 126.71 199.81 C 126.93 198.88 126.37 197.96 125.45 197.73 C 124.52 197.51 123.59 198.07 123.37 198.99 Z M 123.14 199.93 L 122.90 200.95 C 122.68 201.87 123.26 202.79 124.18 203.01 C 125.10 203.23 126.03 202.66 126.24 201.73 L 126.48 200.72 C 126.70 199.79 126.13 198.87 125.21 198.65 C 124.28 198.43 123.36 199.00 123.14 199.93 Z M 122.90 200.97 L 122.67 201.99 C 122.46 202.91 123.05 203.83 123.97 204.04 C 124.90 204.24 125.82 203.66 126.02 202.73 L 126.25 201.71 C 126.46 200.79 125.87 199.87 124.95 199.66 C 124.02 199.46 123.10 200.04 122.90 200.97 Z M 122.66 202.02 L 122.44 203.13 C 122.25 204.06 122.85 204.97 123.78 205.15 C 124.72 205.34 125.62 204.74 125.81 203.81 L 126.03 202.70 C 126.22 201.77 125.62 200.86 124.69 200.67 C 123.75 200.49 122.85 201.09 122.66 202.02 Z M 122.43 203.16 L 122.26 204.14 C 122.09 205.07 122.71 205.96 123.64 206.13 C 124.58 206.30 125.47 205.68 125.64 204.74 L 125.82 203.77 C 125.98 202.84 125.36 201.94 124.43 201.78 C 123.49 201.61 122.60 202.23 122.43 203.16 Z M 122.25 204.16 L 122.10 205.05 C 121.95 205.98 122.58 206.87 123.52 207.03 C 124.46 207.18 125.34 206.55 125.50 205.61 L 125.64 204.72 C 125.80 203.79 125.17 202.90 124.23 202.74 C 123.29 202.59 122.41 203.22 122.25 204.16 Z M 122.10 205.08 L 121.96 206.05 C 121.82 206.99 122.46 207.86 123.40 208.00 C 124.34 208.14 125.22 207.49 125.36 206.55 L 125.50 205.58 C 125.64 204.64 124.99 203.77 124.05 203.63 C 123.11 203.49 122.24 204.14 122.10 205.08 Z M 121.95 206.12 L 121.85 207.06 C 121.75 208.00 122.43 208.85 123.37 208.95 C 124.32 209.05 125.17 208.37 125.27 207.42 L 125.37 206.48 C 125.47 205.54 124.78 204.69 123.84 204.59 C 122.89 204.49 122.05 205.18 121.95 206.12 Z M 121.84 207.12 L 121.78 208.06 C 121.71 209.00 122.43 209.83 123.37 209.89 C 124.32 209.96 125.14 209.24 125.21 208.29 L 125.27 207.36 C 125.34 206.41 124.62 205.59 123.67 205.52 C 122.73 205.46 121.91 206.17 121.84 207.12 Z M 121.77 208.10 L 121.73 209.19 C 121.69 210.14 122.43 210.94 123.38 210.98 C 124.33 211.02 125.13 210.28 125.17 209.33 L 125.21 208.25 C 125.25 207.30 124.51 206.50 123.56 206.46 C 122.61 206.42 121.81 207.16 121.77 208.10 Z M 121.73 209.23 L 121.71 210.26 C 121.69 211.21 122.45 212.00 123.40 212.02 C 124.35 212.03 125.13 211.28 125.15 210.33 L 125.17 209.29 C 125.18 208.34 124.43 207.56 123.48 207.54 C 122.53 207.52 121.75 208.28 121.73 209.23 Z M 121.71 210.30 L 121.71 211.33 C 121.71 212.28 122.49 213.05 123.44 213.05 C 124.39 213.04 125.15 212.27 125.15 211.32 L 125.15 210.29 C 125.14 209.34 124.37 208.57 123.42 208.58 C 122.47 208.58 121.71 209.35 121.71 210.30 Z M 121.71 211.38 L 121.74 212.36 C 121.77 213.31 122.57 214.05 123.51 214.02 C 124.46 213.99 125.21 213.20 125.18 212.25 L 125.15 211.27 C 125.12 210.32 124.33 209.58 123.38 209.61 C 122.43 209.64 121.68 210.43 121.71 211.38 Z M 121.75 212.45 L 121.84 213.53 C 121.92 214.48 122.75 215.18 123.70 215.10 C 124.65 215.02 125.35 214.18 125.27 213.24 L 125.17 212.16 C 125.09 211.21 124.26 210.51 123.31 210.59 C 122.37 210.67 121.67 211.50 121.75 212.45 Z M 121.87 213.72 L 122.05 214.64 C 122.23 215.58 123.14 216.18 124.07 216.00 C 125.00 215.82 125.61 214.91 125.42 213.98 L 125.24 213.05 C 125.06 212.12 124.15 211.51 123.22 211.70 C 122.29 211.88 121.68 212.78 121.87 213.72 Z M 122.12 214.91 L 122.44 215.77 C 122.77 216.66 123.76 217.11 124.65 216.78 C 125.54 216.45 126.00 215.46 125.67 214.57 L 125.35 213.71 C 125.02 212.82 124.03 212.37 123.14 212.70 C 122.25 213.03 121.79 214.02 122.12 214.91 Z M 122.58 216.05 L 123.09 216.90 C 123.57 217.72 124.63 217.98 125.44 217.50 C 126.26 217.01 126.53 215.96 126.04 215.14 L 125.53 214.29 C 125.04 213.47 123.99 213.20 123.17 213.69 C 122.36 214.18 122.09 215.23 122.58 216.05 Z M 123.22 217.09 L 123.86 217.90 C 124.45 218.64 125.53 218.76 126.27 218.17 C 127.02 217.58 127.14 216.50 126.55 215.76 L 125.91 214.95 C 125.32 214.21 124.24 214.08 123.49 214.67 C 122.75 215.26 122.63 216.35 123.22 217.09 Z M 123.95 218.00 L 124.65 218.75 C 125.30 219.45 126.39 219.48 127.09 218.83 C 127.78 218.18 127.81 217.09 127.16 216.40 L 126.46 215.65 C 125.81 214.95 124.72 214.92 124.03 215.57 C 123.33 216.22 123.30 217.31 123.95 218.00 Z M 124.75 218.85 L 125.48 219.51 C 126.18 220.15 127.27 220.10 127.91 219.39 C 128.55 218.69 128.50 217.60 127.79 216.96 L 127.06 216.30 C 126.36 215.66 125.27 215.71 124.63 216.42 C 123.99 217.12 124.04 218.21 124.75 218.85 Z M 125.64 219.64 L 126.38 220.17 C 127.16 220.73 128.23 220.55 128.79 219.77 C 129.34 219.00 129.16 217.92 128.38 217.37 L 127.64 216.83 C 126.86 216.28 125.79 216.46 125.23 217.24 C 124.68 218.01 124.86 219.09 125.64 219.64 Z M 126.57 220.29 L 127.46 220.77 C 128.30 221.22 129.34 220.90 129.79 220.07 C 130.24 219.23 129.93 218.18 129.09 217.73 L 128.20 217.25 C 127.36 216.80 126.32 217.11 125.86 217.95 C 125.41 218.79 125.73 219.84 126.57 220.29 Z M 127.55 220.81 L 128.47 221.24 C 129.34 221.64 130.36 221.26 130.76 220.40 C 131.16 219.53 130.79 218.51 129.92 218.11 L 129.00 217.68 C 128.13 217.28 127.11 217.66 126.71 218.53 C 126.31 219.39 126.69 220.42 127.55 220.81 Z M 128.51 221.26 L 129.44 221.66 C 130.31 222.04 131.33 221.64 131.71 220.77 C 132.09 219.89 131.69 218.88 130.81 218.50 L 129.88 218.09 C 129.01 217.71 128.00 218.11 127.62 218.99 C 127.24 219.86 127.64 220.88 128.51 221.26 Z M 129.47 221.67 L 130.44 222.07 C 131.32 222.44 132.33 222.02 132.69 221.14 C 133.05 220.26 132.64 219.25 131.76 218.89 L 130.79 218.49 C 129.91 218.12 128.90 218.54 128.53 219.42 C 128.17 220.30 128.59 221.31 129.47 221.67 Z M 130.47 222.09 L 131.40 222.45 C 132.28 222.80 133.28 222.36 133.63 221.47 C 133.98 220.59 133.54 219.59 132.65 219.24 L 131.72 218.87 C 130.84 218.53 129.84 218.96 129.49 219.85 C 129.14 220.74 129.58 221.74 130.47 222.09 Z M 131.44 222.47 L 132.41 222.82 C 133.31 223.14 134.30 222.67 134.62 221.77 C 134.94 220.88 134.47 219.89 133.57 219.57 L 132.61 219.22 C 131.71 218.90 130.72 219.37 130.40 220.26 C 130.08 221.16 130.55 222.15 131.44 222.47 Z M 132.47 222.84 L 133.38 223.12 C 134.29 223.41 135.26 222.91 135.55 222.00 C 135.84 221.10 135.33 220.12 134.43 219.84 L 133.52 219.55 C 132.61 219.26 131.64 219.76 131.35 220.67 C 131.06 221.58 131.56 222.55 132.47 222.84 Z M 133.42 223.14 L 134.39 223.42 C 135.31 223.68 136.27 223.16 136.53 222.24 C 136.80 221.33 136.27 220.37 135.35 220.10 L 134.38 219.82 C 133.47 219.56 132.51 220.08 132.24 221.00 C 131.98 221.92 132.51 222.87 133.42 223.14 Z M 134.41 223.43 L 135.33 223.68 C 136.24 223.93 137.20 223.40 137.45 222.48 C 137.71 221.56 137.17 220.61 136.25 220.35 L 135.34 220.10 C 134.42 219.84 133.47 220.38 133.21 221.30 C 132.96 222.22 133.49 223.17 134.41 223.43 Z M 135.34 223.68 L 136.32 223.95 C 137.24 224.20 138.19 223.65 138.44 222.73 C 138.69 221.81 138.14 220.86 137.22 220.61 L 136.24 220.35 C 135.32 220.10 134.37 220.64 134.12 221.56 C 133.87 222.49 134.42 223.43 135.34 223.68 Z M 136.33 223.95 L 137.33 224.21 C 138.25 224.46 139.20 223.90 139.44 222.98 C 139.68 222.06 139.13 221.11 138.21 220.87 L 137.21 220.61 C 136.29 220.37 135.34 220.92 135.10 221.84 C 134.86 222.77 135.41 223.71 136.33 223.95 Z M 137.35 224.22 L 138.38 224.48 C 139.30 224.71 140.24 224.15 140.48 223.23 C 140.71 222.30 140.15 221.36 139.22 221.13 L 138.19 220.87 C 137.27 220.63 136.33 221.19 136.09 222.12 C 135.86 223.05 136.42 223.98 137.35 224.22 Z M 138.40 224.48 L 139.46 224.74 C 140.39 224.97 141.33 224.40 141.55 223.47 C 141.77 222.54 141.20 221.61 140.28 221.38 L 139.21 221.12 C 138.28 220.90 137.35 221.47 137.12 222.40 C 136.90 223.32 137.47 224.26 138.40 224.48 Z M 139.47 224.74 L 140.40 224.96 C 141.33 225.18 142.26 224.61 142.48 223.68 C 142.70 222.75 142.13 221.82 141.20 221.60 L 140.27 221.38 C 139.34 221.16 138.41 221.74 138.19 222.66 C 137.97 223.59 138.54 224.52 139.47 224.74 Z M 140.39 224.96 L 141.24 225.17 C 142.17 225.39 143.10 224.82 143.33 223.89 C 143.55 222.97 142.98 222.03 142.05 221.81 L 141.21 221.60 C 140.28 221.38 139.34 221.95 139.12 222.88 C 138.89 223.80 139.47 224.74 140.39 224.96 Z M 141.23 225.16 L 142.11 225.39 C 143.04 225.62 143.98 225.05 144.21 224.13 C 144.44 223.20 143.88 222.26 142.95 222.03 L 142.07 221.81 C 141.14 221.58 140.20 222.14 139.97 223.07 C 139.74 224.00 140.30 224.93 141.23 225.16 Z M 142.14 225.39 L 143.19 225.64 C 144.12 225.86 145.05 225.28 145.27 224.35 C 145.49 223.42 144.92 222.49 143.99 222.27 L 142.93 222.03 C 142.00 221.81 141.07 222.38 140.85 223.31 C 140.63 224.24 141.21 225.17 142.14 225.39 Z M 143.22 225.65 L 144.16 225.85 C 145.09 226.06 146.01 225.47 146.22 224.54 C 146.42 223.61 145.84 222.68 144.90 222.48 L 143.96 222.27 C 143.03 222.06 142.11 222.65 141.90 223.58 C 141.70 224.52 142.29 225.44 143.22 225.65 Z M 144.17 225.85 L 145.20 226.08 C 146.13 226.28 147.05 225.69 147.25 224.75 C 147.46 223.82 146.86 222.90 145.93 222.70 L 144.89 222.47 C 143.96 222.27 143.04 222.87 142.84 223.80 C 142.64 224.73 143.23 225.65 144.17 225.85 Z M 145.20 226.08 L 146.20 226.29 C 147.14 226.49 148.06 225.90 148.25 224.96 C 148.45 224.03 147.86 223.11 146.93 222.91 L 145.93 222.70 C 144.99 222.50 144.07 223.09 143.87 224.03 C 143.67 224.96 144.27 225.88 145.20 226.08 Z M 146.20 226.29 L 147.26 226.52 C 148.19 226.72 149.11 226.13 149.31 225.19 C 149.51 224.26 148.92 223.34 147.99 223.14 L 146.93 222.91 C 146.00 222.71 145.08 223.30 144.87 224.24 C 144.67 225.17 145.27 226.09 146.20 226.29 Z M 147.26 226.52 L 148.19 226.72 C 149.13 226.92 150.05 226.33 150.25 225.39 C 150.45 224.46 149.85 223.54 148.92 223.34 L 147.98 223.14 C 147.05 222.94 146.13 223.53 145.93 224.47 C 145.73 225.40 146.32 226.32 147.26 226.52 Z M 148.22 226.73 L 149.10 226.90 C 150.04 227.09 150.95 226.49 151.14 225.55 C 151.33 224.61 150.72 223.70 149.78 223.51 L 148.90 223.34 C 147.96 223.15 147.05 223.75 146.86 224.69 C 146.67 225.63 147.28 226.54 148.22 226.73 Z M 149.13 226.91 L 150.09 227.09 C 151.03 227.26 151.93 226.64 152.10 225.70 C 152.27 224.76 151.65 223.86 150.71 223.68 L 149.76 223.51 C 148.82 223.34 147.91 223.96 147.74 224.90 C 147.57 225.84 148.19 226.74 149.13 226.91 Z M 150.12 227.09 L 151.15 227.26 C 152.09 227.42 152.98 226.78 153.13 225.84 C 153.29 224.90 152.65 224.01 151.71 223.85 L 150.68 223.68 C 149.74 223.52 148.85 224.16 148.70 225.10 C 148.54 226.04 149.18 226.93 150.12 227.09 Z M 151.18 227.27 L 152.17 227.41 C 153.12 227.55 154.00 226.90 154.14 225.95 C 154.27 225.01 153.62 224.13 152.68 223.99 L 151.68 223.84 C 150.73 223.71 149.86 224.36 149.72 225.30 C 149.58 226.25 150.23 227.13 151.18 227.27 Z M 152.20 227.42 L 153.19 227.54 C 154.14 227.67 155.00 227.00 155.13 226.05 C 155.25 225.11 154.58 224.24 153.63 224.11 L 152.65 223.99 C 151.70 223.86 150.83 224.53 150.71 225.48 C 150.59 226.43 151.25 227.29 152.20 227.42 Z M 153.21 227.55 L 154.21 227.67 C 155.16 227.78 156.02 227.10 156.13 226.15 C 156.24 225.20 155.56 224.34 154.62 224.23 L 153.62 224.11 C 152.67 224.00 151.81 224.68 151.69 225.63 C 151.58 226.57 152.26 227.43 153.21 227.55 Z M 154.22 227.67 L 155.22 227.78 C 156.16 227.88 157.02 227.20 157.13 226.25 C 157.23 225.30 156.55 224.45 155.60 224.34 L 154.60 224.23 C 153.65 224.12 152.80 224.81 152.69 225.76 C 152.59 226.71 153.27 227.56 154.22 227.67 Z M 155.23 227.78 L 156.22 227.88 C 157.17 227.98 158.03 227.30 158.13 226.35 C 158.23 225.40 157.54 224.55 156.59 224.45 L 155.59 224.34 C 154.64 224.24 153.79 224.93 153.69 225.88 C 153.59 226.83 154.28 227.68 155.23 227.78 Z M 156.23 227.89 L 157.23 227.98 C 158.18 228.08 159.03 227.39 159.12 226.44 C 159.22 225.49 158.52 224.64 157.57 224.54 L 156.58 224.44 C 155.63 224.35 154.78 225.04 154.69 225.99 C 154.59 226.94 155.28 227.79 156.23 227.89 Z M 157.23 227.99 L 158.22 228.08 C 159.17 228.17 160.02 227.48 160.11 226.53 C 160.20 225.58 159.51 224.73 158.56 224.64 L 157.57 224.54 C 156.62 224.45 155.77 225.15 155.68 226.10 C 155.59 227.05 156.28 227.89 157.23 227.99 Z M 158.22 228.08 L 159.21 228.18 C 160.16 228.27 161.01 227.58 161.11 226.63 C 161.20 225.68 160.51 224.83 159.56 224.74 L 158.56 224.64 C 157.61 224.55 156.76 225.24 156.67 226.19 C 156.58 227.14 157.27 227.99 158.22 228.08 Z M 159.20 228.18 L 160.11 228.27 C 161.06 228.38 161.91 227.69 162.01 226.74 C 162.11 225.79 161.42 224.94 160.47 224.84 L 159.57 224.74 C 158.62 224.64 157.77 225.33 157.67 226.28 C 157.56 227.23 158.25 228.08 159.20 228.18 Z M 160.09 228.27 L 161.04 228.38 C 161.99 228.49 162.85 227.81 162.96 226.87 C 163.07 225.92 162.39 225.06 161.44 224.95 L 160.49 224.84 C 159.54 224.73 158.68 225.41 158.57 226.36 C 158.46 227.30 159.14 228.16 160.09 228.27 Z M 161.02 228.38 L 162.10 228.52 C 163.05 228.64 163.92 227.97 164.04 227.02 C 164.16 226.07 163.49 225.21 162.54 225.09 L 161.46 224.95 C 160.51 224.83 159.65 225.50 159.53 226.45 C 159.41 227.40 160.08 228.26 161.02 228.38 Z M 162.09 228.52 L 163.03 228.65 C 163.98 228.77 164.85 228.11 164.98 227.17 C 165.11 226.22 164.45 225.35 163.50 225.22 L 162.55 225.09 C 161.61 224.96 160.74 225.62 160.61 226.57 C 160.48 227.52 161.14 228.39 162.09 228.52 Z M 163.02 228.64 L 163.96 228.78 C 164.90 228.92 165.78 228.26 165.92 227.32 C 166.06 226.37 165.40 225.50 164.46 225.36 L 163.52 225.22 C 162.57 225.08 161.69 225.74 161.56 226.68 C 161.42 227.63 162.07 228.50 163.02 228.64 Z M 163.94 228.78 L 164.94 228.93 C 165.88 229.08 166.77 228.44 166.92 227.50 C 167.07 226.55 166.42 225.67 165.48 225.52 L 164.48 225.36 C 163.53 225.21 162.65 225.86 162.50 226.80 C 162.35 227.74 163.00 228.63 163.94 228.78 Z M 164.92 228.93 L 165.97 229.11 C 166.91 229.27 167.80 228.64 167.96 227.70 C 168.12 226.76 167.49 225.87 166.55 225.71 L 165.50 225.52 C 164.56 225.36 163.67 225.99 163.51 226.93 C 163.35 227.87 163.98 228.77 164.92 228.93 Z M 165.94 229.11 L 166.99 229.31 C 167.93 229.48 168.83 228.87 169.01 227.93 C 169.19 226.99 168.57 226.09 167.64 225.91 L 166.58 225.71 C 165.64 225.53 164.74 226.15 164.56 227.09 C 164.38 228.02 165.00 228.93 165.94 229.11 Z M 166.96 229.30 L 167.98 229.51 C 168.92 229.71 169.83 229.11 170.03 228.17 C 170.22 227.24 169.62 226.32 168.69 226.13 L 167.67 225.92 C 166.73 225.72 165.82 226.32 165.62 227.26 C 165.43 228.19 166.03 229.11 166.96 229.30 Z M 167.96 229.51 L 168.96 229.73 C 169.90 229.94 170.82 229.35 171.03 228.42 C 171.23 227.49 170.65 226.57 169.72 226.36 L 168.71 226.13 C 167.78 225.93 166.86 226.51 166.65 227.44 C 166.44 228.37 167.03 229.30 167.96 229.51 Z M 168.94 229.73 L 169.92 229.96 C 170.84 230.18 171.78 229.60 171.99 228.67 C 172.21 227.75 171.64 226.81 170.71 226.60 L 169.74 226.36 C 168.81 226.14 167.88 226.72 167.66 227.65 C 167.44 228.58 168.01 229.51 168.94 229.73 Z M 169.90 229.95 L 170.82 230.18 C 171.74 230.41 172.68 229.85 172.91 228.92 C 173.14 228.00 172.58 227.06 171.65 226.83 L 170.73 226.60 C 169.81 226.37 168.87 226.93 168.64 227.86 C 168.41 228.78 168.97 229.72 169.90 229.95 Z M 170.80 230.17 L 171.85 230.45 C 172.78 230.69 173.72 230.14 173.96 229.22 C 174.20 228.30 173.65 227.36 172.73 227.11 L 171.67 226.84 C 170.75 226.59 169.81 227.14 169.57 228.07 C 169.32 228.99 169.87 229.93 170.80 230.17 Z M 171.83 230.44 L 172.86 230.73 C 173.78 230.99 174.73 230.46 174.99 229.54 C 175.25 228.62 174.71 227.67 173.79 227.41 L 172.76 227.12 C 171.84 226.86 170.89 227.40 170.63 228.32 C 170.37 229.23 170.91 230.19 171.83 230.44 Z M 172.83 230.72 L 173.72 230.99 C 174.63 231.27 175.59 230.75 175.87 229.84 C 176.14 228.93 175.63 227.96 174.71 227.69 L 173.83 227.42 C 172.91 227.15 171.95 227.66 171.68 228.57 C 171.40 229.49 171.92 230.45 172.83 230.72 Z M 173.68 230.98 L 174.55 231.27 C 175.46 231.57 176.43 231.08 176.73 230.17 C 177.03 229.27 176.54 228.29 175.63 227.99 L 174.76 227.70 C 173.85 227.40 172.88 227.90 172.58 228.80 C 172.28 229.71 172.77 230.68 173.68 230.98 Z M 174.49 231.24 L 175.44 231.60 C 176.33 231.94 177.33 231.49 177.66 230.60 C 178.00 229.71 177.55 228.71 176.66 228.38 L 175.70 228.02 C 174.81 227.68 173.82 228.13 173.48 229.02 C 173.14 229.91 173.59 230.91 174.49 231.24 Z M 175.35 231.57 L 176.19 231.94 C 177.06 232.33 178.08 231.93 178.47 231.06 C 178.85 230.19 178.46 229.17 177.59 228.79 L 176.75 228.41 C 175.88 228.03 174.86 228.42 174.47 229.29 C 174.09 230.16 174.48 231.18 175.35 231.57 Z M 176.09 231.89 L 176.97 232.35 C 177.81 232.80 178.85 232.47 179.29 231.63 C 179.74 230.78 179.41 229.74 178.57 229.30 L 177.69 228.84 C 176.85 228.39 175.81 228.72 175.36 229.56 C 174.92 230.40 175.24 231.45 176.09 231.89 Z M 176.82 232.27 L 177.65 232.82 C 178.44 233.34 179.52 233.12 180.04 232.33 C 180.57 231.53 180.35 230.46 179.55 229.94 L 178.72 229.39 C 177.93 228.86 176.85 229.08 176.33 229.87 C 175.80 230.67 176.02 231.74 176.82 232.27 Z M 177.49 232.70 L 178.25 233.34 C 178.98 233.96 180.07 233.86 180.69 233.13 C 181.30 232.40 181.21 231.31 180.48 230.70 L 179.71 230.05 C 178.98 229.44 177.89 229.53 177.28 230.26 C 176.66 231.00 176.76 232.09 177.49 232.70 Z M 178.11 233.21 L 178.80 233.94 C 179.45 234.63 180.55 234.66 181.24 234.01 C 181.94 233.35 181.97 232.25 181.31 231.56 L 180.62 230.83 C 179.97 230.13 178.87 230.10 178.18 230.76 C 177.48 231.42 177.45 232.51 178.11 233.21 Z M 178.65 233.77 L 179.24 234.57 C 179.81 235.35 180.89 235.51 181.66 234.95 C 182.44 234.38 182.60 233.30 182.04 232.53 L 181.45 231.72 C 180.89 230.95 179.80 230.78 179.03 231.35 C 178.26 231.91 178.09 233.00 178.65 233.77 Z M 179.11 234.36 L 179.58 235.26 C 180.03 236.10 181.08 236.43 181.93 235.98 C 182.78 235.53 183.10 234.47 182.65 233.63 L 182.17 232.73 C 181.72 231.89 180.67 231.57 179.82 232.02 C 178.98 232.47 178.66 233.52 179.11 234.36 Z M 179.49 235.06 L 179.84 236.00 C 180.18 236.90 181.19 237.35 182.08 237.01 C 182.98 236.67 183.44 235.67 183.10 234.77 L 182.74 233.83 C 182.40 232.93 181.40 232.48 180.50 232.82 C 179.60 233.16 179.15 234.16 179.49 235.06 Z M 179.80 235.87 L 180.07 236.82 C 180.34 237.74 181.30 238.28 182.22 238.01 C 183.15 237.75 183.68 236.78 183.42 235.86 L 183.14 234.91 C 182.88 233.98 181.91 233.45 180.99 233.71 C 180.07 233.98 179.53 234.94 179.80 235.87 Z M 180.05 236.73 L 180.26 237.65 C 180.47 238.59 181.41 239.17 182.34 238.96 C 183.28 238.74 183.87 237.81 183.65 236.87 L 183.44 235.95 C 183.23 235.01 182.29 234.42 181.35 234.64 C 180.42 234.85 179.83 235.79 180.05 236.73 Z M 180.24 237.56 L 180.42 238.58 C 180.58 239.53 181.49 240.16 182.44 239.99 C 183.38 239.83 184.02 238.92 183.85 237.98 L 183.67 236.96 C 183.50 236.01 182.60 235.38 181.65 235.54 C 180.71 235.71 180.07 236.61 180.24 237.56 Z M 180.41 238.52 L 180.54 239.48 C 180.68 240.43 181.56 241.10 182.51 240.96 C 183.47 240.83 184.13 239.94 184.00 238.99 L 183.86 238.03 C 183.72 237.08 182.84 236.42 181.89 236.55 C 180.94 236.69 180.27 237.57 180.41 238.52 Z M 180.54 239.44 L 180.66 240.45 C 180.77 241.40 181.64 242.09 182.60 241.97 C 183.55 241.86 184.24 240.99 184.12 240.03 L 184.00 239.03 C 183.89 238.07 183.02 237.39 182.06 237.50 C 181.11 237.62 180.42 238.49 180.54 239.44 Z M 180.66 240.42 L 180.76 241.45 C 180.86 242.41 181.71 243.11 182.67 243.01 C 183.63 242.91 184.33 242.06 184.23 241.10 L 184.12 240.07 C 184.03 239.11 183.17 238.41 182.22 238.51 C 181.26 238.60 180.56 239.46 180.66 240.42 Z M 180.76 241.41 L 180.84 242.48 C 180.92 243.44 181.76 244.15 182.72 244.08 C 183.68 244.00 184.39 243.16 184.32 242.20 L 184.23 241.14 C 184.16 240.18 183.32 239.46 182.36 239.54 C 181.40 239.62 180.68 240.46 180.76 241.41 Z M 180.84 242.45 L 180.91 243.46 C 180.97 244.42 181.80 245.15 182.76 245.08 C 183.72 245.02 184.45 244.19 184.38 243.23 L 184.32 242.23 C 184.26 241.27 183.43 240.54 182.47 240.60 C 181.51 240.66 180.78 241.49 180.84 242.45 Z M 180.91 243.45 L 180.96 244.39 C 181.02 245.35 181.85 246.08 182.81 246.02 C 183.77 245.96 184.50 245.13 184.44 244.17 L 184.39 243.24 C 184.33 242.28 183.50 241.55 182.54 241.61 C 181.58 241.67 180.85 242.49 180.91 243.45 Z M 180.97 244.40 L 181.04 245.44 C 181.10 246.40 181.93 247.12 182.89 247.06 C 183.86 246.99 184.58 246.16 184.51 245.20 L 184.44 244.16 C 184.38 243.20 183.54 242.48 182.58 242.54 C 181.62 242.61 180.90 243.44 180.97 244.40 Z M 181.04 245.43 L 181.10 246.39 C 181.16 247.35 181.99 248.07 182.95 248.01 C 183.91 247.95 184.64 247.12 184.58 246.16 L 184.51 245.20 C 184.45 244.24 183.62 243.52 182.66 243.58 C 181.70 243.64 180.97 244.47 181.04 245.43 Z M 181.10 246.36 L 181.15 247.34 C 181.20 248.30 182.01 249.04 182.97 248.99 C 183.94 248.94 184.68 248.12 184.63 247.16 L 184.58 246.19 C 184.53 245.22 183.71 244.48 182.75 244.53 C 181.79 244.58 181.05 245.40 181.10 246.36 Z M 181.15 247.31 L 181.18 248.32 C 181.22 249.29 182.03 250.04 182.99 250.00 C 183.95 249.96 184.70 249.15 184.67 248.19 L 184.63 247.18 C 184.59 246.22 183.78 245.47 182.82 245.51 C 181.86 245.54 181.11 246.35 181.15 247.31 Z M 181.18 248.32 L 181.22 249.31 C 181.25 250.27 182.05 251.02 183.02 250.99 C 183.98 250.96 184.73 250.16 184.70 249.19 L 184.67 248.20 C 184.64 247.24 183.83 246.49 182.87 246.52 C 181.91 246.55 181.15 247.35 181.18 248.32 Z M 181.22 249.30 L 181.24 250.30 C 181.27 251.27 182.07 252.02 183.03 252.00 C 183.99 251.97 184.75 251.17 184.73 250.21 L 184.70 249.20 C 184.67 248.24 183.87 247.48 182.91 247.51 C 181.95 247.54 181.19 248.34 181.22 249.30 Z M 181.24 250.28 L 181.26 251.29 C 181.27 252.26 182.07 253.02 183.03 253.01 C 183.99 252.99 184.76 252.20 184.74 251.24 L 184.73 250.23 C 184.71 249.27 183.92 248.50 182.96 248.52 C 182.00 248.53 181.23 249.32 181.24 250.28 Z M 181.26 251.28 L 181.26 252.28 C 181.27 253.24 182.05 254.02 183.01 254.01 C 183.98 254.01 184.75 253.22 184.75 252.26 L 184.74 251.26 C 184.74 250.30 183.95 249.52 182.99 249.53 C 182.03 249.53 181.25 250.31 181.26 251.28 Z M 181.26 252.27 L 181.26 253.27 C 181.26 254.23 182.05 255.01 183.01 255.01 C 183.97 255.01 184.75 254.23 184.75 253.27 L 184.75 252.27 C 184.75 251.31 183.97 250.53 183.01 250.53 C 182.04 250.53 181.26 251.31 181.26 252.27 Z M 181.26 253.27 L 181.26 254.27 C 181.26 255.24 182.04 256.02 183.01 256.02 C 183.97 256.02 184.75 255.24 184.75 254.27 L 184.75 253.27 C 184.75 252.31 183.97 251.53 183.01 251.53 C 182.04 251.53 181.26 252.31 181.26 253.27 Z M 181.26 254.27 L 181.26 255.26 C 181.26 256.23 182.04 257.01 183.01 257.01 C 183.97 257.01 184.75 256.23 184.75 255.26 L 184.75 254.27 C 184.75 253.31 183.97 252.53 183.01 252.53 C 182.04 252.53 181.26 253.31 181.26 254.27 Z M 181.26 255.26 L 181.26 256.25 C 181.26 257.21 182.04 258.00 183.00 258.00 C 183.97 258.00 184.75 257.22 184.75 256.26 L 184.75 255.27 C 184.75 254.30 183.97 253.52 183.01 253.52 C 182.05 253.52 181.27 254.30 181.26 255.26 Z M 181.26 256.24 L 181.26 257.25 C 181.25 258.21 182.02 258.99 182.98 259.00 C 183.95 259.01 184.73 258.24 184.74 257.27 L 184.75 256.27 C 184.75 255.31 183.98 254.52 183.02 254.51 C 182.06 254.50 181.27 255.28 181.26 256.24 Z M 181.26 257.22 L 181.23 258.24 C 181.21 259.21 181.98 260.00 182.94 260.02 C 183.90 260.04 184.70 259.28 184.72 258.32 L 184.74 257.30 C 184.76 256.33 184.00 255.54 183.03 255.52 C 182.07 255.50 181.28 256.26 181.26 257.22 Z M 181.23 258.20 L 181.19 259.20 C 181.14 260.16 181.88 260.98 182.84 261.03 C 183.81 261.07 184.62 260.33 184.67 259.37 L 184.72 258.36 C 184.76 257.40 184.02 256.59 183.06 256.54 C 182.10 256.50 181.28 257.24 181.23 258.20 Z M 181.19 259.11 L 181.09 260.13 C 181.00 261.08 181.70 261.94 182.66 262.03 C 183.61 262.13 184.47 261.43 184.56 260.47 L 184.66 259.46 C 184.76 258.50 184.06 257.65 183.10 257.55 C 182.14 257.46 181.29 258.16 181.19 259.11 Z M 181.11 260.00 L 180.94 260.97 C 180.78 261.92 181.42 262.82 182.37 262.98 C 183.32 263.14 184.22 262.51 184.38 261.56 L 184.54 260.59 C 184.71 259.64 184.07 258.74 183.12 258.58 C 182.17 258.42 181.27 259.05 181.11 260.00 Z M 180.97 260.86 L 180.74 261.82 C 180.51 262.76 181.09 263.70 182.03 263.92 C 182.96 264.14 183.90 263.56 184.13 262.63 L 184.36 261.67 C 184.58 260.73 184.00 259.79 183.07 259.57 C 182.13 259.35 181.19 259.92 180.97 260.86 Z M 180.76 261.72 L 180.48 262.67 C 180.20 263.59 180.72 264.56 181.64 264.84 C 182.56 265.12 183.53 264.60 183.81 263.68 L 184.10 262.73 C 184.38 261.81 183.86 260.84 182.94 260.56 C 182.02 260.28 181.04 260.80 180.76 261.72 Z M 180.51 262.56 L 180.16 263.50 C 179.82 264.41 180.28 265.41 181.18 265.75 C 182.08 266.09 183.08 265.63 183.42 264.73 L 183.78 263.79 C 184.11 262.89 183.66 261.88 182.76 261.54 C 181.86 261.20 180.85 261.66 180.51 262.56 Z M 180.21 263.39 L 179.79 264.30 C 179.39 265.17 179.77 266.20 180.65 266.61 C 181.52 267.01 182.56 266.62 182.96 265.75 L 183.37 264.84 C 183.78 263.97 183.39 262.93 182.52 262.53 C 181.64 262.13 180.61 262.51 180.21 263.39 Z M 179.85 264.19 L 179.37 265.06 C 178.90 265.91 179.21 266.97 180.06 267.43 C 180.90 267.89 181.96 267.58 182.42 266.73 L 182.90 265.86 C 183.37 265.01 183.06 263.96 182.21 263.49 C 181.37 263.03 180.31 263.34 179.85 264.19 Z M 179.41 264.99 L 178.90 265.82 C 178.40 266.65 178.66 267.72 179.48 268.22 C 180.30 268.72 181.37 268.46 181.88 267.64 L 182.38 266.81 C 182.88 265.98 182.62 264.91 181.80 264.41 C 180.98 263.91 179.91 264.17 179.41 264.99 Z M 178.92 265.78 L 178.37 266.64 C 177.85 267.45 178.08 268.52 178.89 269.05 C 179.69 269.57 180.77 269.34 181.30 268.53 L 181.85 267.68 C 182.37 266.87 182.14 265.79 181.34 265.27 C 180.53 264.74 179.45 264.98 178.92 265.78 Z M 178.39 266.61 L 177.83 267.44 C 177.29 268.24 177.50 269.32 178.30 269.86 C 179.09 270.40 180.18 270.19 180.72 269.39 L 181.28 268.56 C 181.82 267.76 181.61 266.68 180.81 266.14 C 180.01 265.60 178.93 265.81 178.39 266.61 Z M 177.87 267.38 L 177.27 268.19 C 176.70 268.96 176.86 270.06 177.63 270.63 C 178.41 271.20 179.50 271.04 180.07 270.27 L 180.67 269.45 C 181.25 268.68 181.08 267.59 180.31 267.02 C 179.54 266.44 178.45 266.60 177.87 267.38 Z M 177.34 268.10 L 176.69 268.87 C 176.07 269.60 176.17 270.70 176.90 271.32 C 177.64 271.94 178.74 271.85 179.36 271.12 L 180.00 270.35 C 180.62 269.62 180.53 268.52 179.79 267.90 C 179.06 267.28 177.96 267.37 177.34 268.10 Z M 176.74 268.82 L 176.08 269.54 C 175.43 270.26 175.48 271.36 176.19 272.01 C 176.90 272.65 178.01 272.60 178.65 271.89 L 179.31 271.16 C 179.96 270.45 179.91 269.35 179.20 268.70 C 178.49 268.05 177.39 268.11 176.74 268.82 Z M 176.09 269.53 L 175.41 270.26 C 174.75 270.97 174.79 272.07 175.49 272.73 C 176.19 273.38 177.30 273.34 177.95 272.64 L 178.64 271.91 C 179.29 271.20 179.26 270.10 178.55 269.44 C 177.85 268.79 176.75 268.83 176.09 269.53 Z M 175.41 270.26 L 174.73 270.99 C 174.07 271.69 174.10 272.79 174.80 273.45 C 175.50 274.11 176.61 274.07 177.26 273.37 L 177.95 272.64 C 178.61 271.94 178.57 270.84 177.87 270.18 C 177.17 269.53 176.07 269.56 175.41 270.26 Z M 174.74 270.98 L 174.04 271.71 C 173.38 272.40 173.40 273.50 174.10 274.17 C 174.79 274.83 175.90 274.80 176.56 274.11 L 177.25 273.38 C 177.92 272.69 177.89 271.59 177.20 270.92 C 176.50 270.26 175.40 270.29 174.74 270.98 Z M 174.06 271.69 L 173.36 272.40 C 172.69 273.09 172.70 274.19 173.38 274.86 C 174.06 275.53 175.16 275.52 175.84 274.84 L 176.54 274.13 C 177.21 273.44 177.20 272.34 176.52 271.67 C 175.84 271.00 174.74 271.01 174.06 271.69 Z M 173.37 272.40 L 172.70 273.07 C 172.02 273.75 172.02 274.85 172.70 275.52 C 173.38 276.20 174.48 276.20 175.15 275.52 L 175.83 274.85 C 176.50 274.17 176.50 273.07 175.82 272.39 C 175.15 271.72 174.05 271.72 173.37 272.40 Z M 172.72 273.06 L 172.04 273.72 C 171.35 274.39 171.34 275.49 172.01 276.17 C 172.67 276.85 173.77 276.87 174.45 276.20 L 175.14 275.53 C 175.82 274.87 175.83 273.77 175.16 273.09 C 174.50 272.40 173.40 272.39 172.72 273.06 Z M 172.07 273.69 L 171.29 274.41 C 170.59 275.06 170.55 276.15 171.20 276.85 C 171.85 277.55 172.94 277.59 173.64 276.95 L 174.42 276.23 C 175.12 275.58 175.16 274.49 174.51 273.79 C 173.86 273.09 172.77 273.05 172.07 273.69 Z M 171.33 274.39 L 170.58 275.05 C 169.87 275.68 169.80 276.77 170.43 277.48 C 171.06 278.19 172.15 278.26 172.86 277.63 L 173.61 276.97 C 174.32 276.34 174.39 275.25 173.76 274.54 C 173.13 273.83 172.04 273.76 171.33 274.39 Z M 170.62 275.03 L 169.82 275.70 C 169.10 276.31 169.01 277.39 169.62 278.11 C 170.23 278.84 171.31 278.93 172.03 278.32 L 172.83 277.65 C 173.55 277.04 173.64 275.96 173.03 275.23 C 172.42 274.51 171.34 274.42 170.62 275.03 Z M 169.88 275.67 L 169.04 276.32 C 168.30 276.90 168.17 277.97 168.76 278.71 C 169.34 279.45 170.41 279.58 171.15 279.00 L 171.98 278.35 C 172.72 277.77 172.85 276.70 172.27 275.96 C 171.69 275.22 170.62 275.09 169.88 275.67 Z M 169.15 276.27 L 168.31 276.84 C 167.54 277.36 167.34 278.40 167.86 279.17 C 168.38 279.94 169.43 280.14 170.20 279.62 L 171.04 279.06 C 171.81 278.54 172.01 277.49 171.49 276.72 C 170.97 275.95 169.92 275.75 169.15 276.27 Z M 168.51 276.75 L 167.68 277.17 C 166.86 277.58 166.54 278.58 166.95 279.40 C 167.36 280.21 168.36 280.54 169.17 280.13 L 170.00 279.71 C 170.82 279.30 171.15 278.30 170.74 277.48 C 170.32 276.67 169.33 276.34 168.51 276.75 Z M 167.94 277.10 L 166.99 277.40 C 166.13 277.67 165.65 278.58 165.92 279.43 C 166.19 280.29 167.10 280.76 167.95 280.50 L 168.91 280.20 C 169.77 279.93 170.24 279.02 169.97 278.16 C 169.71 277.31 168.80 276.83 167.94 277.10 Z M 167.16 277.40 L 166.18 277.60 C 165.33 277.77 164.78 278.61 164.95 279.46 C 165.12 280.31 165.96 280.86 166.81 280.69 L 167.78 280.49 C 168.64 280.32 169.19 279.49 169.01 278.63 C 168.84 277.78 168.01 277.23 167.16 277.40 Z"
      fill="black"
      fill-rule="nonzero" /></svg>