<svg xmlns="http://www.w3.org/2000/svg" width="300" height="300" viewBox="0 0 300 300">
<path d="M 201.82 94.78 L 201.08 94.05 C 200.50 93.48 199.58 93.49 199.01 94.07 C 198.45 94.64 198.46 95.57 199.03 96.13 L 199.77 96.86 C 200.35 97.43 201.27 97.42 201.84 96.84 C 202.40 96.27 202.40 95.35 201.82 94.78 Z M 201.00 93.97 L 200.27 93.35 C 199.65 92.83 198.73 92.90 198.20 93.52 C 197.68 94.13 197.75 95.06 198.37 95.58 L 199.11 96.21 C 199.72 96.73 200.65 96.66 201.17 96.04 C 201.69 95.42 201.62 94.50 201.00 93.97 Z M 200.06 93.19 L 199.22 92.70 C 198.51 92.28 197.61 92.52 197.20 93.23 C 196.79 93.93 197.02 94.84 197.73 95.25 L 198.58 95.74 C 199.28 96.15 200.19 95.91 200.60 95.21 C 201.01 94.50 200.77 93.60 200.06 93.19 Z M 198.97 92.56 L 198.02 92.23 C 197.24 91.96 196.38 92.37 196.11 93.15 C 195.84 93.94 196.26 94.79 197.04 95.06 L 197.98 95.39 C 198.77 95.66 199.62 95.25 199.89 94.46 C 200.16 93.68 199.75 92.83 198.97 92.56 Z M 197.90 92.17 L 196.93 91.93 C 196.12 91.73 195.29 92.22 195.09 93.04 C 194.89 93.86 195.38 94.68 196.20 94.88 L 197.16 95.12 C 197.98 95.32 198.80 94.83 199.01 94.01 C 199.21 93.20 198.71 92.37 197.90 92.17 Z M 196.90 91.90 L 195.91 91.68 C 195.07 91.49 194.25 92.02 194.06 92.85 C 193.88 93.68 194.40 94.51 195.24 94.69 L 196.23 94.91 C 197.06 95.10 197.89 94.57 198.07 93.74 C 198.26 92.91 197.73 92.08 196.90 91.90 Z M 195.92 91.66 L 194.95 91.44 C 194.11 91.25 193.27 91.78 193.08 92.62 C 192.89 93.46 193.42 94.29 194.26 94.49 L 195.23 94.71 C 196.07 94.90 196.90 94.37 197.09 93.53 C 197.28 92.69 196.76 91.85 195.92 91.66 Z M 194.93 91.43 L 193.95 91.22 C 193.11 91.04 192.27 91.57 192.09 92.42 C 191.90 93.27 192.44 94.10 193.29 94.29 L 194.27 94.50 C 195.12 94.68 195.95 94.14 196.14 93.30 C 196.32 92.45 195.78 91.61 194.93 91.43 Z M 193.92 91.20 L 193.04 91.03 C 192.19 90.87 191.36 91.42 191.19 92.28 C 191.03 93.13 191.58 93.96 192.44 94.13 L 193.32 94.30 C 194.17 94.47 195.00 93.91 195.17 93.05 C 195.34 92.20 194.78 91.37 193.92 91.20 Z M 193.04 91.03 L 192.04 90.83 C 191.18 90.66 190.35 91.22 190.18 92.08 C 190.01 92.94 190.57 93.77 191.43 93.94 L 192.44 94.14 C 193.30 94.30 194.13 93.74 194.30 92.88 C 194.46 92.03 193.90 91.19 193.04 91.03 Z M 192.06 90.83 L 191.02 90.61 C 190.16 90.43 189.32 90.98 189.13 91.84 C 188.95 92.70 189.50 93.54 190.36 93.72 L 191.41 93.94 C 192.27 94.12 193.11 93.57 193.29 92.71 C 193.47 91.85 192.92 91.01 192.06 90.83 Z M 191.04 90.61 L 190.03 90.38 C 189.17 90.19 188.32 90.73 188.13 91.59 C 187.94 92.45 188.48 93.30 189.34 93.49 L 190.34 93.72 C 191.20 93.91 192.05 93.37 192.25 92.51 C 192.44 91.65 191.90 90.80 191.04 90.61 Z M 190.04 90.38 L 189.05 90.15 C 188.19 89.95 187.33 90.49 187.13 91.35 C 186.93 92.21 187.47 93.07 188.33 93.27 L 189.33 93.50 C 190.18 93.69 191.04 93.16 191.24 92.30 C 191.44 91.44 190.90 90.58 190.04 90.38 Z M 189.05 90.15 L 188.06 89.92 C 187.20 89.72 186.34 90.25 186.14 91.11 C 185.93 91.98 186.47 92.84 187.33 93.04 L 188.33 93.27 C 189.19 93.47 190.05 92.93 190.25 92.07 C 190.45 91.21 189.91 90.35 189.05 90.15 Z M 188.06 89.92 L 187.05 89.68 C 186.19 89.48 185.33 90.02 185.13 90.88 C 184.93 91.75 185.47 92.61 186.33 92.81 L 187.33 93.04 C 188.20 93.24 189.06 92.70 189.26 91.84 C 189.46 90.98 188.92 90.11 188.06 89.92 Z M 187.05 89.68 L 186.17 89.48 C 185.30 89.28 184.44 89.82 184.24 90.69 C 184.05 91.55 184.59 92.41 185.45 92.61 L 186.33 92.81 C 187.20 93.01 188.06 92.47 188.26 91.60 C 188.45 90.74 187.91 89.88 187.05 89.68 Z M 186.17 89.48 L 185.30 89.28 C 184.44 89.08 183.58 89.62 183.38 90.49 C 183.18 91.35 183.72 92.21 184.58 92.41 L 185.45 92.61 C 186.31 92.81 187.18 92.27 187.38 91.40 C 187.57 90.54 187.03 89.68 186.17 89.48 Z M 185.33 89.28 L 184.32 89.04 C 183.46 88.83 182.58 89.36 182.37 90.22 C 182.16 91.08 182.69 91.96 183.56 92.17 L 184.56 92.41 C 185.43 92.62 186.30 92.09 186.51 91.23 C 186.72 90.36 186.19 89.49 185.33 89.28 Z M 184.35 89.04 L 183.34 88.78 C 182.48 88.55 181.60 89.07 181.37 89.93 C 181.15 90.79 181.66 91.67 182.53 91.90 L 183.53 92.16 C 184.39 92.39 185.27 91.87 185.50 91.01 C 185.72 90.15 185.21 89.27 184.35 89.04 Z M 183.37 88.78 L 182.39 88.51 C 181.54 88.28 180.65 88.78 180.41 89.64 C 180.17 90.50 180.67 91.39 181.53 91.63 L 182.50 91.89 C 183.36 92.13 184.25 91.63 184.49 90.77 C 184.73 89.91 184.22 89.02 183.37 88.78 Z M 182.42 88.52 L 181.42 88.23 C 180.56 87.98 179.67 88.47 179.42 89.33 C 179.17 90.18 179.66 91.08 180.52 91.33 L 181.51 91.62 C 182.37 91.87 183.27 91.38 183.51 90.52 C 183.76 89.66 183.27 88.77 182.42 88.52 Z M 181.45 88.24 L 180.49 87.94 C 179.64 87.67 178.73 88.15 178.47 89.00 C 178.20 89.86 178.68 90.76 179.53 91.03 L 180.49 91.32 C 181.34 91.59 182.25 91.11 182.51 90.26 C 182.78 89.41 182.30 88.50 181.45 88.24 Z M 180.52 87.95 L 179.59 87.64 C 178.74 87.36 177.82 87.81 177.54 88.66 C 177.26 89.51 177.72 90.42 178.57 90.71 L 179.50 91.02 C 180.35 91.30 181.26 90.84 181.54 89.99 C 181.82 89.14 181.37 88.23 180.52 87.95 Z M 179.59 87.64 L 178.68 87.33 C 177.83 87.05 176.91 87.51 176.63 88.35 C 176.35 89.20 176.80 90.12 177.65 90.40 L 178.56 90.71 C 179.41 90.99 180.33 90.53 180.61 89.69 C 180.89 88.84 180.44 87.92 179.59 87.64 Z M 178.64 87.32 L 177.65 87.01 C 176.79 86.74 175.89 87.22 175.62 88.07 C 175.35 88.93 175.83 89.83 176.68 90.10 L 177.68 90.41 C 178.53 90.68 179.44 90.20 179.71 89.35 C 179.97 88.49 179.50 87.59 178.64 87.32 Z M 177.60 86.99 L 176.68 86.74 C 175.82 86.50 174.92 87.00 174.68 87.86 C 174.44 88.72 174.94 89.62 175.81 89.86 L 176.73 90.12 C 177.59 90.36 178.48 89.85 178.73 88.99 C 178.97 88.13 178.46 87.24 177.60 86.99 Z M 176.64 86.72 L 175.65 86.47 C 174.78 86.25 173.90 86.78 173.68 87.65 C 173.46 88.52 173.99 89.40 174.86 89.62 L 175.84 89.87 C 176.71 90.09 177.60 89.56 177.82 88.70 C 178.04 87.83 177.51 86.94 176.64 86.72 Z M 175.61 86.46 L 174.61 86.23 C 173.73 86.04 172.86 86.59 172.66 87.46 C 172.46 88.34 173.01 89.21 173.89 89.41 L 174.90 89.63 C 175.77 89.83 176.64 89.28 176.84 88.40 C 177.04 87.53 176.49 86.66 175.61 86.46 Z M 174.56 86.22 L 173.57 86.03 C 172.69 85.86 171.84 86.44 171.67 87.32 C 171.50 88.21 172.08 89.06 172.96 89.23 L 173.94 89.42 C 174.82 89.59 175.68 89.01 175.85 88.13 C 176.02 87.24 175.44 86.39 174.56 86.22 Z M 173.50 86.02 L 172.37 85.85 C 171.47 85.72 170.65 86.34 170.52 87.23 C 170.39 88.12 171.00 88.95 171.89 89.08 L 173.03 89.25 C 173.92 89.38 174.75 88.76 174.88 87.87 C 175.01 86.98 174.39 86.15 173.50 86.02 Z M 172.29 85.84 L 171.29 85.74 C 170.39 85.66 169.60 86.31 169.51 87.21 C 169.42 88.11 170.08 88.91 170.97 88.99 L 171.97 89.09 C 172.87 89.18 173.67 88.52 173.75 87.62 C 173.84 86.73 173.19 85.93 172.29 85.84 Z M 171.23 85.74 L 170.37 85.69 C 169.47 85.63 168.70 86.32 168.65 87.22 C 168.59 88.12 169.28 88.89 170.18 88.95 L 171.03 89.00 C 171.94 89.05 172.71 88.37 172.76 87.47 C 172.82 86.57 172.13 85.79 171.23 85.74 Z M 170.33 85.68 L 169.27 85.65 C 168.36 85.62 167.61 86.33 167.58 87.23 C 167.55 88.14 168.26 88.89 169.17 88.92 L 170.23 88.95 C 171.13 88.98 171.88 88.27 171.91 87.37 C 171.94 86.46 171.23 85.71 170.33 85.68 Z M 169.23 85.64 L 168.30 85.64 C 167.39 85.63 166.65 86.36 166.65 87.27 C 166.64 88.18 167.37 88.91 168.28 88.92 L 169.21 88.92 C 170.11 88.93 170.85 88.20 170.86 87.29 C 170.86 86.39 170.13 85.65 169.23 85.64 Z M 168.29 85.64 L 167.31 85.64 C 166.40 85.64 165.67 86.37 165.67 87.28 C 165.67 88.19 166.40 88.92 167.31 88.92 L 168.29 88.92 C 169.20 88.92 169.93 88.19 169.93 87.28 C 169.93 86.37 169.20 85.64 168.29 85.64 Z M 167.31 85.64 L 166.29 85.64 C 165.39 85.64 164.65 86.37 164.65 87.28 C 164.65 88.19 165.39 88.92 166.29 88.92 L 167.31 88.92 C 168.22 88.92 168.95 88.19 168.95 87.28 C 168.95 86.37 168.22 85.64 167.31 85.64 Z M 166.28 85.64 L 165.30 85.65 C 164.39 85.66 163.66 86.40 163.67 87.31 C 163.68 88.22 164.43 88.94 165.33 88.93 L 166.31 88.92 C 167.22 88.91 167.95 88.17 167.94 87.26 C 167.93 86.35 167.18 85.63 166.28 85.64 Z M 165.21 85.65 L 164.19 85.71 C 163.28 85.77 162.59 86.56 162.65 87.46 C 162.71 88.37 163.49 89.06 164.40 89.00 L 165.42 88.93 C 166.33 88.87 167.02 88.09 166.96 87.18 C 166.90 86.28 166.12 85.59 165.21 85.65 Z M 164.06 85.73 L 163.04 85.87 C 162.14 86.00 161.52 86.83 161.65 87.73 C 161.78 88.64 162.61 89.26 163.51 89.13 L 164.53 88.99 C 165.43 88.86 166.05 88.02 165.92 87.12 C 165.80 86.22 164.96 85.60 164.06 85.73 Z M 162.96 85.88 L 161.99 86.08 C 161.10 86.25 160.52 87.12 160.70 88.01 C 160.87 88.91 161.74 89.49 162.63 89.31 L 163.60 89.12 C 164.49 88.94 165.07 88.07 164.89 87.18 C 164.72 86.29 163.85 85.71 162.96 85.88 Z M 161.93 86.09 L 161.06 86.30 C 160.17 86.50 159.62 87.39 159.83 88.28 C 160.04 89.17 160.93 89.71 161.81 89.50 L 162.69 89.30 C 163.58 89.09 164.13 88.20 163.92 87.31 C 163.71 86.43 162.82 85.88 161.93 86.09 Z M 161.04 86.30 L 160.04 86.55 C 159.15 86.76 158.61 87.66 158.83 88.54 C 159.04 89.42 159.94 89.97 160.82 89.75 L 161.83 89.50 C 162.71 89.28 163.25 88.39 163.04 87.51 C 162.82 86.62 161.93 86.08 161.04 86.30 Z M 160.05 86.54 L 159.16 86.75 C 158.27 86.96 157.72 87.84 157.93 88.73 C 158.13 89.62 159.02 90.17 159.91 89.96 L 160.80 89.75 C 161.69 89.55 162.24 88.66 162.03 87.77 C 161.83 86.89 160.94 86.33 160.05 86.54 Z M 159.17 86.75 L 158.22 86.96 C 157.33 87.16 156.78 88.05 156.98 88.94 C 157.18 89.83 158.06 90.38 158.95 90.18 L 159.90 89.96 C 160.79 89.76 161.35 88.88 161.14 87.99 C 160.94 87.10 160.06 86.54 159.17 86.75 Z M 158.22 86.96 L 157.18 87.20 C 156.29 87.40 155.73 88.29 155.93 89.18 C 156.14 90.07 157.02 90.62 157.91 90.42 L 158.95 90.18 C 159.84 89.98 160.40 89.09 160.20 88.20 C 159.99 87.31 159.11 86.76 158.22 86.96 Z M 157.17 87.20 L 156.10 87.45 C 155.22 87.66 154.66 88.54 154.87 89.43 C 155.08 90.32 155.97 90.87 156.85 90.67 L 157.92 90.42 C 158.81 90.21 159.36 89.32 159.15 88.43 C 158.94 87.55 158.06 86.99 157.17 87.20 Z M 156.10 87.45 L 155.11 87.69 C 154.23 87.90 153.68 88.79 153.89 89.68 C 154.10 90.56 154.99 91.11 155.88 90.90 L 156.86 90.66 C 157.75 90.45 158.30 89.56 158.09 88.67 C 157.87 87.79 156.98 87.24 156.10 87.45 Z M 155.11 87.69 L 154.13 87.92 C 153.24 88.14 152.70 89.03 152.91 89.92 C 153.13 90.80 154.02 91.35 154.90 91.14 L 155.89 90.90 C 156.77 90.68 157.32 89.79 157.10 88.90 C 156.89 88.02 156.00 87.47 155.11 87.69 Z M 154.13 87.92 L 153.16 88.16 C 152.27 88.37 151.73 89.26 151.94 90.15 C 152.15 91.04 153.05 91.58 153.93 91.37 L 154.90 91.14 C 155.79 90.92 156.34 90.03 156.12 89.14 C 155.91 88.26 155.02 87.71 154.13 87.92 Z M 153.17 88.15 L 152.19 88.38 C 151.30 88.59 150.75 89.48 150.96 90.37 C 151.17 91.26 152.06 91.81 152.95 91.60 L 153.93 91.37 C 154.81 91.16 155.37 90.27 155.16 89.38 C 154.95 88.50 154.06 87.94 153.17 88.15 Z M 152.20 88.38 L 151.16 88.62 C 150.27 88.82 149.72 89.70 149.92 90.59 C 150.12 91.48 151.01 92.04 151.90 91.84 L 152.94 91.60 C 153.83 91.40 154.38 90.52 154.18 89.63 C 153.98 88.74 153.09 88.18 152.20 88.38 Z M 151.17 88.61 L 150.19 88.83 C 149.30 89.03 148.74 89.92 148.93 90.81 C 149.13 91.70 150.02 92.26 150.91 92.06 L 151.89 91.84 C 152.78 91.64 153.34 90.76 153.14 89.87 C 152.95 88.98 152.06 88.42 151.17 88.61 Z M 150.19 88.83 L 149.27 89.04 C 148.38 89.24 147.82 90.12 148.02 91.01 C 148.22 91.90 149.10 92.46 149.99 92.27 L 150.91 92.06 C 151.80 91.86 152.36 90.98 152.16 90.09 C 151.96 89.20 151.08 88.63 150.19 88.83 Z M 149.26 89.04 L 148.33 89.26 C 147.44 89.46 146.88 90.35 147.09 91.24 C 147.29 92.13 148.18 92.68 149.07 92.48 L 150.00 92.26 C 150.89 92.06 151.45 91.17 151.24 90.28 C 151.04 89.39 150.15 88.84 149.26 89.04 Z M 148.32 89.26 L 147.39 89.48 C 146.50 89.69 145.95 90.58 146.16 91.47 C 146.37 92.36 147.26 92.91 148.14 92.70 L 149.08 92.48 C 149.97 92.27 150.52 91.38 150.31 90.49 C 150.10 89.60 149.21 89.05 148.32 89.26 Z M 147.40 89.48 L 146.40 89.70 C 145.51 89.91 144.96 90.79 145.16 91.68 C 145.37 92.57 146.25 93.13 147.14 92.93 L 148.13 92.70 C 149.02 92.50 149.58 91.61 149.38 90.72 C 149.17 89.83 148.29 89.27 147.40 89.48 Z M 146.42 89.70 L 145.49 89.90 C 144.59 90.10 144.03 90.98 144.22 91.87 C 144.42 92.76 145.30 93.33 146.19 93.13 L 147.12 92.93 C 148.02 92.74 148.58 91.86 148.39 90.96 C 148.20 90.07 147.31 89.51 146.42 89.70 Z M 145.50 89.90 L 144.55 90.10 C 143.66 90.29 143.09 91.16 143.27 92.06 C 143.46 92.95 144.34 93.52 145.23 93.34 L 146.18 93.14 C 147.07 92.95 147.64 92.07 147.46 91.18 C 147.27 90.28 146.39 89.71 145.50 89.90 Z M 144.55 90.10 L 143.54 90.31 C 142.65 90.50 142.08 91.38 142.27 92.27 C 142.45 93.16 143.33 93.74 144.23 93.55 L 145.23 93.34 C 146.13 93.15 146.70 92.27 146.51 91.38 C 146.32 90.48 145.45 89.91 144.55 90.10 Z M 143.54 90.31 L 142.50 90.53 C 141.61 90.73 141.04 91.61 141.23 92.50 C 141.42 93.39 142.30 93.96 143.20 93.77 L 144.23 93.55 C 145.13 93.35 145.69 92.48 145.50 91.58 C 145.31 90.69 144.43 90.12 143.54 90.31 Z M 142.49 90.54 L 141.50 90.76 C 140.60 90.96 140.04 91.84 140.24 92.74 C 140.44 93.63 141.33 94.19 142.22 93.99 L 143.21 93.77 C 144.10 93.57 144.66 92.68 144.46 91.79 C 144.26 90.90 143.38 90.34 142.49 90.54 Z M 141.48 90.76 L 140.51 90.99 C 139.62 91.20 139.07 92.09 139.28 92.98 C 139.49 93.87 140.38 94.42 141.27 94.21 L 142.24 93.98 C 143.12 93.78 143.68 92.89 143.47 92.00 C 143.26 91.11 142.37 90.55 141.48 90.76 Z M 140.49 90.99 L 139.53 91.23 C 138.64 91.45 138.10 92.35 138.32 93.24 C 138.53 94.12 139.43 94.67 140.32 94.45 L 141.29 94.21 C 142.17 93.99 142.71 93.09 142.50 92.20 C 142.28 91.32 141.38 90.78 140.49 90.99 Z M 139.51 91.24 L 138.53 91.49 C 137.65 91.72 137.12 92.63 137.35 93.51 C 137.58 94.39 138.48 94.92 139.37 94.69 L 140.34 94.44 C 141.22 94.21 141.75 93.31 141.52 92.42 C 141.29 91.54 140.39 91.01 139.51 91.24 Z M 138.51 91.50 L 137.51 91.77 C 136.62 92.02 136.11 92.93 136.35 93.81 C 136.59 94.69 137.50 95.21 138.38 94.97 L 139.39 94.69 C 140.27 94.45 140.79 93.54 140.55 92.66 C 140.30 91.77 139.39 91.26 138.51 91.50 Z M 137.49 91.78 L 136.45 92.08 C 135.57 92.33 135.07 93.25 135.32 94.13 C 135.57 95.00 136.49 95.51 137.37 95.26 L 138.40 94.96 C 139.28 94.71 139.79 93.79 139.53 92.91 C 139.28 92.03 138.36 91.53 137.49 91.78 Z M 136.43 92.08 L 135.44 92.38 C 134.57 92.64 134.07 93.57 134.33 94.44 C 134.60 95.32 135.52 95.81 136.40 95.55 L 137.39 95.25 C 138.26 94.99 138.76 94.07 138.49 93.19 C 138.23 92.32 137.31 91.82 136.43 92.08 Z M 135.43 92.38 L 134.52 92.67 C 133.65 92.94 133.16 93.87 133.43 94.74 C 133.71 95.61 134.64 96.10 135.51 95.83 L 136.41 95.55 C 137.29 95.27 137.77 94.34 137.50 93.47 C 137.23 92.60 136.30 92.11 135.43 92.38 Z M 134.50 92.67 L 133.59 92.97 C 132.72 93.25 132.25 94.19 132.53 95.06 C 132.81 95.93 133.75 96.40 134.62 96.12 L 135.53 95.82 C 136.40 95.54 136.87 94.60 136.59 93.73 C 136.31 92.86 135.37 92.39 134.50 92.67 Z M 133.54 92.99 L 132.62 93.32 C 131.76 93.63 131.31 94.58 131.62 95.44 C 131.93 96.30 132.88 96.74 133.74 96.44 L 134.66 96.10 C 135.53 95.79 135.97 94.85 135.66 93.98 C 135.35 93.12 134.41 92.68 133.54 92.99 Z M 132.55 93.35 L 131.67 93.71 C 130.82 94.06 130.42 95.03 130.77 95.88 C 131.12 96.72 132.09 97.12 132.94 96.77 L 133.82 96.41 C 134.66 96.06 135.06 95.09 134.71 94.24 C 134.36 93.40 133.39 93.00 132.55 93.35 Z M 131.61 93.74 L 130.74 94.14 C 129.91 94.52 129.54 95.50 129.93 96.34 C 130.31 97.17 131.29 97.53 132.12 97.15 L 132.99 96.75 C 133.82 96.36 134.19 95.38 133.81 94.55 C 133.42 93.72 132.44 93.35 131.61 93.74 Z M 130.70 94.16 L 129.80 94.60 C 128.98 95.01 128.64 96.00 129.04 96.82 C 129.45 97.64 130.44 97.98 131.26 97.57 L 132.16 97.13 C 132.98 96.72 133.32 95.73 132.92 94.91 C 132.51 94.09 131.52 93.75 130.70 94.16 Z M 129.75 94.62 L 128.83 95.11 C 128.02 95.54 127.72 96.54 128.14 97.35 C 128.57 98.16 129.58 98.47 130.38 98.04 L 131.30 97.55 C 132.11 97.12 132.42 96.12 131.99 95.31 C 131.56 94.50 130.56 94.20 129.75 94.62 Z M 128.77 95.14 L 127.88 95.66 C 127.09 96.13 126.82 97.14 127.29 97.93 C 127.75 98.72 128.76 98.99 129.55 98.53 L 130.44 98.01 C 131.23 97.55 131.50 96.53 131.04 95.74 C 130.58 94.95 129.56 94.68 128.77 95.14 Z M 127.80 95.71 L 126.94 96.28 C 126.18 96.79 125.97 97.81 126.47 98.58 C 126.98 99.34 128.00 99.55 128.77 99.05 L 129.63 98.48 C 130.39 97.97 130.60 96.95 130.10 96.18 C 129.59 95.42 128.57 95.21 127.80 95.71 Z M 126.87 96.33 L 126.09 96.91 C 125.35 97.46 125.20 98.50 125.74 99.23 C 126.29 99.97 127.32 100.12 128.06 99.57 L 128.84 99.00 C 129.57 98.45 129.73 97.41 129.18 96.68 C 128.64 95.94 127.60 95.79 126.87 96.33 Z M 126.03 96.95 L 125.27 97.56 C 124.56 98.14 124.45 99.18 125.02 99.89 C 125.59 100.61 126.64 100.72 127.35 100.15 L 128.11 99.54 C 128.82 98.96 128.94 97.92 128.36 97.21 C 127.79 96.49 126.75 96.38 126.03 96.95 Z M 125.24 97.59 L 124.45 98.26 C 123.75 98.85 123.67 99.89 124.26 100.59 C 124.85 101.29 125.89 101.38 126.59 100.79 L 127.38 100.12 C 128.08 99.53 128.17 98.48 127.58 97.79 C 126.98 97.09 125.94 97.00 125.24 97.59 Z M 124.42 98.29 L 123.67 98.96 C 122.99 99.57 122.93 100.61 123.54 101.30 C 124.16 101.98 125.20 102.03 125.88 101.42 L 126.63 100.76 C 127.31 100.14 127.37 99.10 126.76 98.42 C 126.15 97.74 125.10 97.68 124.42 98.29 Z M 123.63 99.00 L 122.93 99.67 C 122.28 100.31 122.26 101.36 122.90 102.01 C 123.53 102.67 124.58 102.69 125.24 102.05 L 125.93 101.38 C 126.59 100.74 126.60 99.69 125.97 99.04 C 125.33 98.38 124.28 98.36 123.63 99.00 Z M 122.87 99.74 L 122.22 100.44 C 121.60 101.11 121.64 102.16 122.31 102.78 C 122.98 103.40 124.03 103.36 124.65 102.69 L 125.30 101.98 C 125.92 101.31 125.88 100.26 125.21 99.64 C 124.54 99.02 123.49 99.06 122.87 99.74 Z M 122.16 100.51 L 121.51 101.29 C 120.92 101.99 121.02 103.04 121.72 103.62 C 122.43 104.21 123.47 104.11 124.06 103.41 L 124.71 102.63 C 125.29 101.92 125.20 100.88 124.49 100.29 C 123.79 99.71 122.75 99.80 122.16 100.51 Z M 121.48 101.32 L 120.93 102.03 C 120.36 102.74 120.49 103.79 121.21 104.35 C 121.92 104.92 122.96 104.79 123.53 104.08 L 124.08 103.37 C 124.65 102.65 124.53 101.61 123.81 101.05 C 123.09 100.48 122.05 100.60 121.48 101.32 Z M 120.92 102.04 L 120.34 102.79 C 119.78 103.51 119.91 104.55 120.63 105.11 C 121.36 105.67 122.40 105.54 122.96 104.82 L 123.54 104.07 C 124.10 103.34 123.97 102.30 123.24 101.74 C 122.52 101.18 121.48 101.31 120.92 102.04 Z M 120.34 102.79 L 119.69 103.63 C 119.13 104.35 119.26 105.39 119.98 105.95 C 120.70 106.51 121.74 106.38 122.30 105.66 L 122.95 104.82 C 123.52 104.10 123.38 103.06 122.66 102.50 C 121.94 101.94 120.90 102.07 120.34 102.79 Z M 119.69 103.62 L 119.01 104.49 C 118.44 105.21 118.57 106.25 119.28 106.82 C 120.00 107.39 121.04 107.26 121.61 106.54 L 122.30 105.67 C 122.86 104.95 122.74 103.91 122.02 103.34 C 121.30 102.78 120.26 102.90 119.69 103.62 Z M 119.01 104.48 L 118.37 105.29 C 117.79 106.01 117.91 107.05 118.62 107.62 C 119.34 108.19 120.38 108.08 120.95 107.36 L 121.60 106.55 C 122.17 105.84 122.06 104.80 121.34 104.22 C 120.63 103.65 119.59 103.77 119.01 104.48 Z M 118.37 105.29 L 117.71 106.10 C 117.14 106.81 117.25 107.85 117.96 108.43 C 118.67 109.00 119.71 108.89 120.29 108.18 L 120.95 107.37 C 121.52 106.66 121.41 105.62 120.70 105.04 C 119.99 104.47 118.95 104.57 118.37 105.29 Z M 117.72 106.09 L 117.09 106.86 C 116.50 107.57 116.61 108.61 117.31 109.19 C 118.02 109.77 119.06 109.67 119.64 108.97 L 120.28 108.19 C 120.86 107.49 120.76 106.44 120.05 105.86 C 119.35 105.28 118.30 105.38 117.72 106.09 Z M 117.09 106.85 L 116.50 107.56 C 115.91 108.26 116.00 109.31 116.71 109.90 C 117.41 110.48 118.45 110.39 119.04 109.69 L 119.63 108.98 C 120.22 108.27 120.13 107.23 119.43 106.64 C 118.73 106.06 117.68 106.15 117.09 106.85 Z M 116.51 107.54 L 115.76 108.41 C 115.17 109.10 115.24 110.15 115.93 110.75 C 116.63 111.35 117.67 111.27 118.27 110.58 L 119.02 109.71 C 119.62 109.02 119.54 107.97 118.85 107.37 C 118.16 106.77 117.11 106.85 116.51 107.54 Z M 115.80 108.38 L 115.16 109.07 C 114.55 109.74 114.59 110.79 115.27 111.41 C 115.94 112.02 116.99 111.98 117.61 111.30 L 118.24 110.61 C 118.86 109.94 118.81 108.89 118.14 108.27 C 117.46 107.66 116.41 107.70 115.80 108.38 Z M 115.21 109.02 L 114.61 109.63 C 113.97 110.28 113.98 111.33 114.63 111.97 C 115.28 112.61 116.33 112.60 116.97 111.95 L 117.57 111.34 C 118.21 110.69 118.20 109.64 117.55 109.00 C 116.90 108.36 115.85 108.37 115.21 109.02 Z M 114.65 109.59 L 114.01 110.20 C 113.34 110.83 113.32 111.88 113.95 112.54 C 114.58 113.21 115.63 113.23 116.29 112.60 L 116.93 111.99 C 117.60 111.36 117.62 110.31 116.99 109.65 C 116.36 108.98 115.31 108.96 114.65 109.59 Z M 114.04 110.17 L 113.25 110.89 C 112.57 111.50 112.52 112.55 113.13 113.23 C 113.75 113.91 114.79 113.96 115.47 113.34 L 116.26 112.63 C 116.94 112.02 116.99 110.97 116.37 110.29 C 115.76 109.61 114.71 109.56 114.04 110.17 Z M 113.26 110.88 L 112.46 111.59 C 111.77 112.19 111.71 113.24 112.31 113.93 C 112.92 114.61 113.97 114.67 114.65 114.07 L 115.46 113.36 C 116.14 112.75 116.21 111.70 115.60 111.02 C 114.99 110.33 113.95 110.27 113.26 110.88 Z M 112.46 111.58 L 111.68 112.27 C 110.99 112.87 110.93 113.92 111.53 114.61 C 112.13 115.29 113.18 115.36 113.87 114.76 L 114.65 114.07 C 115.33 113.47 115.40 112.42 114.80 111.74 C 114.20 111.05 113.15 110.98 112.46 111.58 Z M 111.68 112.27 L 110.89 112.97 C 110.20 113.57 110.13 114.62 110.74 115.30 C 111.34 115.99 112.39 116.06 113.07 115.45 L 113.87 114.76 C 114.55 114.16 114.62 113.11 114.02 112.42 C 113.42 111.73 112.37 111.67 111.68 112.27 Z M 110.89 112.97 L 110.16 113.61 C 109.47 114.22 109.40 115.26 110.01 115.95 C 110.61 116.63 111.66 116.70 112.35 116.10 L 113.08 115.45 C 113.76 114.85 113.83 113.80 113.22 113.11 C 112.62 112.43 111.57 112.36 110.89 112.97 Z M 110.15 113.62 L 109.32 114.36 C 108.64 114.97 108.58 116.02 109.19 116.70 C 109.80 117.38 110.85 117.44 111.53 116.83 L 112.36 116.09 C 113.04 115.47 113.10 114.43 112.48 113.75 C 111.87 113.07 110.83 113.01 110.15 113.62 Z M 109.28 114.40 L 108.60 115.05 C 107.94 115.68 107.92 116.73 108.55 117.39 C 109.18 118.05 110.23 118.08 110.89 117.44 L 111.57 116.79 C 112.23 116.16 112.26 115.11 111.62 114.45 C 110.99 113.79 109.94 113.77 109.28 114.40 Z M 108.54 115.12 L 107.93 115.76 C 107.30 116.43 107.34 117.48 108.01 118.11 C 108.67 118.73 109.72 118.70 110.35 118.03 L 110.95 117.38 C 111.58 116.71 111.54 115.66 110.88 115.04 C 110.21 114.41 109.16 114.45 108.54 115.12 Z M 107.88 115.82 L 107.22 116.59 C 106.63 117.29 106.71 118.34 107.41 118.93 C 108.11 119.52 109.15 119.44 109.74 118.74 L 110.40 117.97 C 110.99 117.27 110.91 116.23 110.21 115.63 C 109.51 115.04 108.47 115.13 107.88 115.82 Z M 107.17 116.66 L 106.55 117.46 C 106.00 118.19 106.14 119.23 106.86 119.78 C 107.59 120.34 108.63 120.20 109.19 119.47 L 109.80 118.67 C 110.35 117.95 110.22 116.91 109.49 116.35 C 108.76 115.80 107.72 115.93 107.17 116.66 Z M 106.48 117.57 L 105.92 118.44 C 105.42 119.21 105.64 120.23 106.41 120.73 C 107.18 121.22 108.21 121.00 108.71 120.23 L 109.26 119.37 C 109.76 118.60 109.54 117.57 108.77 117.08 C 108.00 116.58 106.97 116.80 106.48 117.57 Z M 105.83 118.59 L 105.40 119.45 C 104.99 120.27 105.32 121.27 106.14 121.68 C 106.95 122.09 107.95 121.76 108.36 120.94 L 108.80 120.08 C 109.21 119.26 108.88 118.26 108.06 117.85 C 107.24 117.44 106.24 117.77 105.83 118.59 Z M 105.33 119.60 L 104.98 120.52 C 104.65 121.37 105.09 122.33 105.94 122.66 C 106.80 122.98 107.76 122.55 108.09 121.70 L 108.43 120.78 C 108.76 119.93 108.33 118.97 107.47 118.64 C 106.61 118.31 105.65 118.75 105.33 119.60 Z M 104.94 120.64 L 104.65 121.62 C 104.39 122.51 104.90 123.43 105.78 123.69 C 106.66 123.94 107.58 123.44 107.84 122.56 L 108.13 121.57 C 108.39 120.69 107.88 119.77 107.00 119.51 C 106.12 119.25 105.20 119.76 104.94 120.64 Z M 104.63 121.71 L 104.39 122.70 C 104.18 123.59 104.73 124.49 105.63 124.70 C 106.52 124.91 107.42 124.36 107.63 123.47 L 107.86 122.47 C 108.07 121.58 107.52 120.69 106.63 120.47 C 105.74 120.26 104.84 120.81 104.63 121.71 Z M 104.38 122.76 L 104.19 123.72 C 104.01 124.62 104.60 125.50 105.50 125.67 C 106.39 125.85 107.27 125.27 107.45 124.37 L 107.64 123.41 C 107.82 122.51 107.23 121.63 106.33 121.45 C 105.43 121.27 104.56 121.86 104.38 122.76 Z M 104.18 123.79 L 104.02 124.75 C 103.88 125.66 104.50 126.51 105.41 126.66 C 106.31 126.80 107.16 126.18 107.31 125.27 L 107.46 124.31 C 107.60 123.40 106.99 122.55 106.08 122.40 C 105.17 122.26 104.32 122.88 104.18 123.79 Z M 104.01 124.83 L 103.90 125.83 C 103.80 126.74 104.46 127.56 105.37 127.66 C 106.29 127.76 107.11 127.11 107.21 126.19 L 107.32 125.20 C 107.42 124.28 106.76 123.46 105.85 123.36 C 104.93 123.26 104.11 123.92 104.01 124.83 Z M 103.90 125.88 L 103.83 126.76 C 103.76 127.68 104.44 128.48 105.36 128.55 C 106.28 128.62 107.08 127.93 107.15 127.01 L 107.22 126.14 C 107.29 125.22 106.60 124.42 105.68 124.35 C 104.77 124.28 103.97 124.97 103.90 125.88 Z M 103.83 126.80 L 103.77 127.84 C 103.73 128.76 104.43 129.54 105.35 129.59 C 106.27 129.64 107.05 128.93 107.10 128.01 L 107.15 126.97 C 107.20 126.05 106.49 125.27 105.57 125.22 C 104.65 125.18 103.87 125.88 103.83 126.80 Z M 103.77 127.88 L 103.74 128.95 C 103.72 129.87 104.44 130.63 105.36 130.66 C 106.28 130.68 107.05 129.96 107.07 129.04 L 107.10 127.97 C 107.13 127.05 106.40 126.29 105.48 126.26 C 104.56 126.23 103.80 126.96 103.77 127.88 Z M 103.74 128.97 L 103.73 129.96 C 103.72 130.88 104.45 131.64 105.37 131.65 C 106.29 131.66 107.05 130.93 107.06 130.01 L 107.07 129.01 C 107.09 128.09 106.35 127.34 105.43 127.33 C 104.51 127.32 103.75 128.05 103.74 128.97 Z M 103.73 129.98 L 103.72 131.01 C 103.72 131.93 104.46 132.67 105.38 132.68 C 106.30 132.68 107.05 131.94 107.06 131.02 L 107.06 129.99 C 107.07 129.07 106.32 128.32 105.40 128.32 C 104.48 128.31 103.73 129.06 103.73 129.98 Z M 103.72 131.01 L 103.72 132.02 C 103.72 132.94 104.47 133.69 105.39 133.69 C 106.31 133.69 107.06 132.94 107.06 132.02 L 107.06 131.01 C 107.06 130.09 106.31 129.35 105.39 129.35 C 104.47 129.35 103.72 130.09 103.72 131.01 Z M 103.72 132.02 L 103.72 133.15 C 103.72 134.07 104.47 134.81 105.39 134.81 C 106.31 134.81 107.06 134.07 107.06 133.15 L 107.06 132.02 C 107.06 131.10 106.31 130.36 105.39 130.36 C 104.47 130.36 103.72 131.10 103.72 132.02 Z M 103.72 133.15 L 103.72 134.16 C 103.72 135.08 104.47 135.83 105.39 135.83 C 106.31 135.83 107.06 135.08 107.06 134.16 L 107.06 133.15 C 107.06 132.23 106.31 131.48 105.39 131.48 C 104.47 131.48 103.72 132.23 103.72 133.15 Z M 103.72 134.16 L 103.72 135.02 C 103.72 135.94 104.47 136.69 105.39 136.69 C 106.31 136.69 107.06 135.94 107.06 135.02 L 107.06 134.16 C 107.06 133.24 106.31 132.49 105.39 132.49 C 104.47 132.49 103.72 133.24 103.72 134.16 Z M 103.72 135.04 L 103.74 136.07 C 103.75 136.99 104.50 137.73 105.42 137.72 C 106.34 137.70 107.08 136.95 107.07 136.03 L 107.06 135.00 C 107.05 134.08 106.29 133.34 105.37 133.36 C 104.45 133.37 103.71 134.12 103.72 135.04 Z M 103.74 136.19 L 103.83 137.16 C 103.91 138.07 104.71 138.75 105.63 138.67 C 106.55 138.59 107.23 137.78 107.15 136.87 L 107.06 135.90 C 106.98 134.99 106.17 134.31 105.26 134.39 C 104.34 134.47 103.66 135.28 103.74 136.19 Z M 103.84 137.30 L 104.01 138.22 C 104.16 139.13 105.03 139.73 105.94 139.58 C 106.84 139.42 107.45 138.55 107.29 137.65 L 107.13 136.72 C 106.97 135.82 106.11 135.21 105.20 135.37 C 104.29 135.53 103.68 136.39 103.84 137.30 Z M 104.02 138.31 L 104.26 139.33 C 104.47 140.23 105.37 140.78 106.27 140.57 C 107.16 140.36 107.72 139.47 107.51 138.57 L 107.27 137.55 C 107.06 136.66 106.17 136.10 105.27 136.31 C 104.37 136.52 103.81 137.42 104.02 138.31 Z M 104.28 139.40 L 104.56 140.41 C 104.82 141.29 105.74 141.81 106.63 141.56 C 107.51 141.30 108.03 140.38 107.78 139.49 L 107.49 138.49 C 107.24 137.61 106.32 137.09 105.43 137.34 C 104.54 137.59 104.03 138.52 104.28 139.40 Z M 104.59 140.47 L 104.90 141.43 C 105.19 142.31 106.14 142.78 107.01 142.49 C 107.89 142.20 108.36 141.26 108.07 140.38 L 107.75 139.43 C 107.46 138.55 106.52 138.08 105.65 138.37 C 104.77 138.66 104.30 139.60 104.59 140.47 Z M 104.93 141.50 L 105.27 142.42 C 105.60 143.28 106.56 143.71 107.42 143.39 C 108.29 143.06 108.72 142.10 108.40 141.24 L 108.05 140.32 C 107.72 139.46 106.76 139.02 105.90 139.35 C 105.04 139.67 104.60 140.64 104.93 141.50 Z M 105.30 142.48 L 105.70 143.42 C 106.06 144.26 107.04 144.66 107.89 144.29 C 108.74 143.93 109.13 142.95 108.77 142.10 L 108.37 141.17 C 108.00 140.32 107.02 139.93 106.18 140.29 C 105.33 140.66 104.94 141.64 105.30 142.48 Z M 105.73 143.48 L 106.15 144.36 C 106.54 145.20 107.54 145.55 108.37 145.15 C 109.20 144.76 109.56 143.76 109.16 142.93 L 108.74 142.04 C 108.35 141.21 107.35 140.86 106.52 141.25 C 105.69 141.65 105.33 142.64 105.73 143.48 Z M 106.17 144.40 L 106.58 145.22 C 107.00 146.04 108.00 146.37 108.82 145.95 C 109.64 145.53 109.97 144.53 109.56 143.71 L 109.14 142.89 C 108.73 142.07 107.72 141.74 106.90 142.16 C 106.08 142.58 105.75 143.58 106.17 144.40 Z M 106.60 145.25 L 107.06 146.12 C 107.50 146.93 108.51 147.23 109.32 146.80 C 110.13 146.36 110.44 145.35 110.00 144.54 L 109.54 143.67 C 109.10 142.86 108.09 142.55 107.28 142.99 C 106.47 143.43 106.16 144.44 106.60 145.25 Z M 107.08 146.15 L 107.61 147.08 C 108.06 147.89 109.08 148.17 109.88 147.72 C 110.68 147.27 110.97 146.25 110.52 145.45 L 109.99 144.51 C 109.54 143.71 108.52 143.42 107.71 143.87 C 106.91 144.33 106.63 145.34 107.08 146.15 Z M 107.62 147.10 L 108.11 147.95 C 108.57 148.74 109.59 149.01 110.39 148.55 C 111.19 148.09 111.46 147.07 110.99 146.27 L 110.50 145.43 C 110.04 144.63 109.02 144.36 108.22 144.82 C 107.43 145.28 107.15 146.31 107.62 147.10 Z M 108.11 147.96 L 108.64 148.84 C 109.11 149.64 110.13 149.90 110.93 149.43 C 111.72 148.96 111.98 147.94 111.51 147.14 L 110.99 146.26 C 110.52 145.46 109.49 145.20 108.70 145.67 C 107.91 146.14 107.64 147.16 108.11 147.96 Z M 108.64 148.85 L 109.17 149.73 C 109.65 150.52 110.67 150.78 111.46 150.30 C 112.25 149.83 112.51 148.80 112.03 148.01 L 111.51 147.13 C 111.03 146.34 110.01 146.09 109.22 146.56 C 108.43 147.04 108.17 148.06 108.64 148.85 Z M 109.18 149.74 L 109.75 150.68 C 110.23 151.47 111.26 151.72 112.05 151.24 C 112.83 150.76 113.08 149.73 112.60 148.95 L 112.03 148.00 C 111.55 147.21 110.52 146.97 109.73 147.45 C 108.95 147.93 108.70 148.95 109.18 149.74 Z M 109.75 150.69 L 110.29 151.56 C 110.77 152.34 111.79 152.59 112.58 152.11 C 113.37 151.63 113.62 150.60 113.14 149.82 L 112.60 148.95 C 112.12 148.16 111.09 147.91 110.31 148.39 C 109.52 148.87 109.27 149.90 109.75 150.69 Z M 110.28 151.54 L 110.73 152.30 C 111.20 153.10 112.23 153.36 113.02 152.88 C 113.81 152.41 114.07 151.39 113.60 150.60 L 113.15 149.83 C 112.67 149.04 111.65 148.78 110.86 149.25 C 110.06 149.73 109.80 150.75 110.28 151.54 Z M 110.71 152.27 L 111.14 153.03 C 111.59 153.84 112.61 154.12 113.41 153.67 C 114.22 153.22 114.50 152.20 114.05 151.40 L 113.62 150.63 C 113.17 149.83 112.15 149.54 111.35 149.99 C 110.54 150.45 110.26 151.46 110.71 152.27 Z M 111.14 153.03 L 111.61 153.88 C 112.06 154.68 113.07 154.97 113.88 154.52 C 114.68 154.07 114.97 153.06 114.53 152.25 L 114.05 151.40 C 113.61 150.60 112.59 150.31 111.78 150.76 C 110.98 151.21 110.69 152.22 111.14 153.03 Z M 111.63 153.91 L 112.18 154.85 C 112.65 155.64 113.67 155.91 114.46 155.44 C 115.26 154.98 115.52 153.95 115.06 153.16 L 114.51 152.22 C 114.04 151.42 113.02 151.16 112.22 151.62 C 111.43 152.09 111.16 153.11 111.63 153.91 Z M 112.19 154.87 L 112.71 155.73 C 113.19 156.52 114.22 156.77 115.01 156.29 C 115.79 155.81 116.05 154.79 115.57 154.00 L 115.05 153.14 C 114.57 152.35 113.54 152.10 112.75 152.58 C 111.96 153.06 111.71 154.08 112.19 154.87 Z M 112.72 155.74 L 113.27 156.64 C 113.75 157.43 114.78 157.68 115.57 157.20 C 116.35 156.72 116.60 155.69 116.12 154.90 L 115.56 153.99 C 115.08 153.21 114.06 152.96 113.27 153.44 C 112.48 153.92 112.24 154.95 112.72 155.74 Z M 113.27 156.64 L 113.80 157.51 C 114.28 158.30 115.31 158.55 116.09 158.07 C 116.88 157.59 117.13 156.56 116.65 155.78 L 116.12 154.91 C 115.64 154.12 114.62 153.87 113.83 154.35 C 113.04 154.83 112.79 155.85 113.27 156.64 Z M 113.79 157.49 L 114.36 158.45 C 114.82 159.25 115.85 159.51 116.64 159.05 C 117.44 158.58 117.70 157.56 117.23 156.76 L 116.66 155.80 C 116.20 155.00 115.17 154.74 114.38 155.20 C 113.58 155.67 113.32 156.70 113.79 157.49 Z M 114.33 158.42 L 114.82 159.30 C 115.27 160.11 116.28 160.40 117.09 159.95 C 117.90 159.51 118.19 158.49 117.74 157.69 L 117.25 156.80 C 116.81 155.99 115.79 155.70 114.99 156.15 C 114.18 156.59 113.89 157.61 114.33 158.42 Z M 114.82 159.29 L 115.21 160.01 C 115.65 160.82 116.67 161.12 117.47 160.68 C 118.28 160.24 118.58 159.23 118.14 158.42 L 117.75 157.69 C 117.31 156.88 116.29 156.59 115.48 157.03 C 114.67 157.47 114.38 158.48 114.82 159.29 Z M 115.23 160.05 L 115.73 160.91 C 116.19 161.71 117.21 161.99 118.01 161.52 C 118.81 161.06 119.08 160.04 118.62 159.24 L 118.12 158.38 C 117.66 157.58 116.64 157.31 115.84 157.77 C 115.04 158.23 114.77 159.25 115.23 160.05 Z M 115.71 160.88 L 116.16 161.70 C 116.61 162.51 117.62 162.80 118.43 162.35 C 119.24 161.91 119.53 160.89 119.08 160.09 L 118.64 159.27 C 118.19 158.46 117.18 158.17 116.37 158.62 C 115.56 159.06 115.27 160.08 115.71 160.88 Z M 116.15 161.68 L 116.62 162.56 C 117.06 163.37 118.07 163.67 118.88 163.24 C 119.69 162.80 120.00 161.79 119.56 160.98 L 119.09 160.10 C 118.66 159.29 117.65 158.99 116.83 159.42 C 116.02 159.86 115.72 160.87 116.15 161.68 Z M 116.64 162.59 L 117.15 163.49 C 117.61 164.29 118.62 164.57 119.43 164.11 C 120.23 163.66 120.51 162.64 120.05 161.84 L 119.54 160.94 C 119.09 160.14 118.07 159.86 117.27 160.32 C 116.47 160.77 116.19 161.79 116.64 162.59 Z M 117.17 163.52 L 117.68 164.38 C 118.16 165.18 119.18 165.44 119.97 164.96 C 120.76 164.49 121.02 163.47 120.55 162.67 L 120.04 161.81 C 119.56 161.02 118.54 160.76 117.75 161.23 C 116.95 161.70 116.70 162.73 117.17 163.52 Z M 117.69 164.40 L 118.23 165.29 C 118.71 166.07 119.74 166.32 120.53 165.84 C 121.32 165.36 121.56 164.33 121.08 163.54 L 120.54 162.66 C 120.06 161.87 119.03 161.62 118.25 162.10 C 117.46 162.59 117.21 163.61 117.69 164.40 Z M 118.24 165.30 L 118.80 166.19 C 119.28 166.97 120.31 167.21 121.10 166.73 C 121.88 166.24 122.12 165.21 121.63 164.43 L 121.08 163.53 C 120.59 162.75 119.56 162.51 118.78 163.00 C 117.99 163.48 117.75 164.51 118.24 165.30 Z M 118.81 166.21 L 119.34 167.04 C 119.84 167.82 120.87 168.05 121.65 167.55 C 122.42 167.06 122.65 166.02 122.16 165.25 L 121.62 164.41 C 121.12 163.63 120.09 163.41 119.32 163.90 C 118.54 164.40 118.31 165.43 118.81 166.21 Z M 119.36 167.07 L 119.88 167.86 C 120.39 168.63 121.43 168.83 122.20 168.32 C 122.96 167.81 123.17 166.78 122.66 166.01 L 122.14 165.22 C 121.63 164.45 120.59 164.25 119.82 164.76 C 119.06 165.27 118.85 166.30 119.36 167.07 Z M 119.90 167.89 L 120.44 168.66 C 120.96 169.41 122.00 169.60 122.76 169.07 C 123.52 168.54 123.70 167.50 123.18 166.75 L 122.64 165.98 C 122.12 165.22 121.08 165.04 120.32 165.56 C 119.56 166.09 119.38 167.13 119.90 167.89 Z M 120.45 168.68 L 121.05 169.50 C 121.59 170.25 122.63 170.42 123.38 169.88 C 124.12 169.34 124.29 168.30 123.76 167.55 L 123.16 166.73 C 122.62 165.98 121.58 165.81 120.83 166.35 C 120.08 166.88 119.91 167.93 120.45 168.68 Z M 121.05 169.51 L 121.64 170.31 C 122.18 171.06 123.23 171.22 123.97 170.68 C 124.72 170.13 124.88 169.09 124.34 168.34 L 123.75 167.54 C 123.21 166.80 122.16 166.63 121.42 167.18 C 120.67 167.72 120.51 168.77 121.05 169.51 Z M 121.64 170.31 L 122.20 171.08 C 122.74 171.83 123.78 171.99 124.53 171.45 C 125.27 170.91 125.44 169.86 124.90 169.12 L 124.34 168.35 C 123.80 167.60 122.75 167.44 122.01 167.98 C 121.26 168.52 121.10 169.57 121.64 170.31 Z M 122.19 171.06 L 122.78 171.90 C 123.31 172.65 124.35 172.83 125.11 172.30 C 125.86 171.76 126.04 170.72 125.50 169.97 L 124.91 169.13 C 124.37 168.38 123.33 168.20 122.58 168.74 C 121.83 169.27 121.65 170.31 122.19 171.06 Z M 122.76 171.88 L 123.37 172.77 C 123.89 173.53 124.93 173.73 125.69 173.21 C 126.45 172.69 126.65 171.65 126.13 170.89 L 125.52 169.99 C 125.00 169.23 123.96 169.04 123.20 169.56 C 122.44 170.07 122.24 171.11 122.76 171.88 Z M 123.35 172.74 L 123.94 173.64 C 124.44 174.42 125.47 174.64 126.25 174.14 C 127.02 173.63 127.24 172.60 126.74 171.83 L 126.15 170.92 C 125.65 170.15 124.62 169.93 123.84 170.43 C 123.07 170.93 122.85 171.96 123.35 172.74 Z M 123.92 173.62 L 124.48 174.52 C 124.97 175.30 126.00 175.54 126.78 175.05 C 127.56 174.56 127.80 173.53 127.31 172.75 L 126.75 171.85 C 126.26 171.07 125.23 170.83 124.45 171.32 C 123.67 171.81 123.43 172.84 123.92 173.62 Z M 124.47 174.50 L 124.99 175.34 C 125.47 176.12 126.50 176.37 127.28 175.89 C 128.07 175.40 128.31 174.38 127.83 173.59 L 127.32 172.76 C 126.84 171.97 125.81 171.73 125.02 172.21 C 124.24 172.69 123.99 173.72 124.47 174.50 Z M 124.99 175.34 L 125.50 176.17 C 125.98 176.95 127.01 177.20 127.79 176.72 C 128.58 176.23 128.82 175.21 128.34 174.42 L 127.83 173.59 C 127.35 172.80 126.32 172.56 125.53 173.04 C 124.75 173.52 124.50 174.55 124.99 175.34 Z M 125.51 176.18 L 126.07 177.08 C 126.56 177.86 127.59 178.10 128.37 177.61 C 129.15 177.12 129.39 176.09 128.90 175.31 L 128.33 174.41 C 127.84 173.63 126.81 173.39 126.03 173.88 C 125.25 174.37 125.01 175.40 125.51 176.18 Z M 126.07 177.08 L 126.50 177.78 C 126.99 178.57 128.02 178.81 128.80 178.32 C 129.59 177.84 129.83 176.81 129.34 176.03 L 128.90 175.32 C 128.42 174.53 127.39 174.29 126.61 174.78 C 125.82 175.26 125.58 176.29 126.07 177.08 Z M 126.49 177.75 L 126.96 178.56 C 127.43 179.35 128.45 179.61 129.24 179.15 C 130.04 178.68 130.30 177.65 129.84 176.86 L 129.36 176.06 C 128.89 175.26 127.87 175.00 127.08 175.47 C 126.28 175.93 126.02 176.96 126.49 177.75 Z M 126.97 178.57 L 127.51 179.46 C 127.98 180.25 129.01 180.50 129.80 180.03 C 130.59 179.55 130.84 178.52 130.36 177.73 L 129.83 176.84 C 129.35 176.06 128.32 175.80 127.53 176.28 C 126.74 176.76 126.49 177.78 126.97 178.57 Z M 127.52 179.49 L 128.04 180.30 C 128.53 181.08 129.56 181.31 130.34 180.82 C 131.12 180.33 131.35 179.29 130.86 178.52 L 130.35 177.71 C 129.85 176.93 128.82 176.69 128.04 177.19 C 127.26 177.68 127.03 178.71 127.52 179.49 Z M 128.05 180.33 L 128.63 181.21 C 129.14 181.98 130.17 182.19 130.94 181.68 C 131.71 181.17 131.93 180.14 131.42 179.37 L 130.84 178.49 C 130.33 177.72 129.30 177.51 128.53 178.01 C 127.76 178.52 127.55 179.56 128.05 180.33 Z M 128.65 181.23 L 129.24 182.09 C 129.76 182.85 130.80 183.04 131.56 182.52 C 132.32 181.99 132.51 180.95 131.99 180.19 L 131.40 179.34 C 130.88 178.58 129.84 178.39 129.08 178.91 C 128.32 179.43 128.13 180.47 128.65 181.23 Z M 129.26 182.12 L 129.85 182.93 C 130.40 183.68 131.44 183.84 132.19 183.30 C 132.93 182.76 133.09 181.71 132.55 180.97 L 131.96 180.16 C 131.42 179.41 130.38 179.25 129.63 179.79 C 128.89 180.33 128.72 181.38 129.26 182.12 Z M 129.89 182.98 L 130.50 183.76 C 131.07 184.49 132.12 184.62 132.85 184.05 C 133.57 183.48 133.70 182.43 133.13 181.71 L 132.52 180.92 C 131.95 180.20 130.90 180.07 130.17 180.63 C 129.45 181.20 129.32 182.25 129.89 182.98 Z M 130.55 183.82 L 131.20 184.59 C 131.80 185.29 132.85 185.38 133.56 184.78 C 134.26 184.18 134.34 183.13 133.75 182.43 L 133.09 181.65 C 132.49 180.95 131.44 180.87 130.73 181.47 C 130.03 182.06 129.95 183.12 130.55 183.82 Z M 131.26 184.65 L 131.95 185.39 C 132.59 186.06 133.64 186.09 134.31 185.46 C 134.99 184.83 135.02 183.77 134.39 183.10 L 133.69 182.36 C 133.06 181.69 132.00 181.66 131.33 182.29 C 130.66 182.92 130.63 183.98 131.26 184.65 Z M 132.02 185.46 L 132.74 186.14 C 133.41 186.77 134.47 186.74 135.10 186.07 C 135.73 185.40 135.70 184.34 135.03 183.71 L 134.32 183.03 C 133.64 182.40 132.59 182.43 131.96 183.10 C 131.32 183.77 131.35 184.83 132.02 185.46 Z M 132.84 186.22 L 133.62 186.85 C 134.33 187.43 135.39 187.32 135.97 186.61 C 136.55 185.89 136.44 184.84 135.72 184.26 L 134.94 183.63 C 134.22 183.04 133.17 183.16 132.59 183.87 C 132.01 184.59 132.12 185.64 132.84 186.22 Z M 133.73 186.94 L 134.56 187.50 C 135.32 188.01 136.36 187.81 136.88 187.05 C 137.40 186.28 137.19 185.24 136.43 184.73 L 135.60 184.17 C 134.84 183.65 133.80 183.86 133.28 184.62 C 132.77 185.39 132.97 186.43 133.73 186.94 Z M 134.68 187.57 L 135.53 188.05 C 136.34 188.50 137.36 188.22 137.81 187.41 C 138.26 186.60 137.97 185.58 137.17 185.13 L 136.31 184.65 C 135.50 184.20 134.48 184.49 134.03 185.30 C 133.58 186.10 133.87 187.12 134.68 187.57 Z M 135.64 188.11 L 136.53 188.53 C 137.37 188.92 138.37 188.56 138.76 187.72 C 139.15 186.88 138.79 185.89 137.95 185.49 L 137.06 185.08 C 136.22 184.68 135.23 185.04 134.84 185.88 C 134.44 186.72 134.80 187.72 135.64 188.11 Z M 136.63 188.57 L 137.56 188.94 C 138.42 189.28 139.40 188.86 139.74 188.00 C 140.08 187.14 139.65 186.16 138.79 185.82 L 137.86 185.45 C 137.00 185.11 136.03 185.53 135.69 186.39 C 135.35 187.25 135.77 188.23 136.63 188.57 Z M 137.64 188.97 L 138.58 189.28 C 139.46 189.58 140.41 189.10 140.70 188.23 C 141.00 187.35 140.52 186.40 139.65 186.10 L 138.71 185.79 C 137.83 185.50 136.88 185.97 136.59 186.85 C 136.29 187.72 136.77 188.67 137.64 188.97 Z M 138.66 189.31 L 139.58 189.57 C 140.47 189.82 141.40 189.30 141.65 188.40 C 141.90 187.51 141.38 186.59 140.49 186.34 L 139.56 186.08 C 138.67 185.83 137.75 186.35 137.50 187.24 C 137.25 188.13 137.77 189.06 138.66 189.31 Z M 139.67 189.59 L 140.67 189.81 C 141.57 190.01 142.47 189.44 142.67 188.53 C 142.87 187.62 142.30 186.73 141.39 186.53 L 140.39 186.31 C 139.49 186.11 138.59 186.68 138.39 187.59 C 138.19 188.50 138.77 189.39 139.67 189.59 Z M 140.76 189.83 L 141.76 189.99 C 142.68 190.14 143.54 189.52 143.69 188.60 C 143.84 187.69 143.22 186.82 142.30 186.67 L 141.30 186.51 C 140.38 186.36 139.52 186.98 139.37 187.90 C 139.22 188.82 139.84 189.68 140.76 189.83 Z M 141.83 190.00 L 142.80 190.12 C 143.73 190.23 144.56 189.57 144.67 188.65 C 144.79 187.73 144.13 186.89 143.21 186.78 L 142.23 186.66 C 141.31 186.55 140.47 187.21 140.36 188.13 C 140.25 189.05 140.91 189.89 141.83 190.00 Z M 142.85 190.12 L 143.86 190.22 C 144.79 190.31 145.61 189.63 145.69 188.70 C 145.78 187.78 145.10 186.96 144.18 186.87 L 143.16 186.78 C 142.24 186.69 141.42 187.37 141.33 188.29 C 141.24 189.22 141.92 190.04 142.85 190.12 Z M 143.89 190.22 L 144.91 190.30 C 145.84 190.38 146.65 189.68 146.72 188.76 C 146.80 187.83 146.10 187.02 145.18 186.95 L 144.15 186.87 C 143.22 186.80 142.41 187.49 142.34 188.41 C 142.27 189.34 142.96 190.15 143.89 190.22 Z M 144.93 190.30 L 146.01 190.38 C 146.93 190.44 147.74 189.74 147.80 188.82 C 147.87 187.89 147.17 187.09 146.24 187.02 L 145.16 186.95 C 144.24 186.88 143.43 187.58 143.37 188.51 C 143.30 189.44 144.00 190.24 144.93 190.30 Z M 146.02 190.38 L 147.06 190.44 C 147.98 190.50 148.78 189.80 148.84 188.87 C 148.90 187.94 148.19 187.14 147.26 187.08 L 146.23 187.02 C 145.30 186.96 144.50 187.67 144.44 188.60 C 144.39 189.53 145.09 190.32 146.02 190.38 Z M 147.07 190.45 L 148.02 190.49 C 148.95 190.54 149.74 189.83 149.79 188.90 C 149.83 187.97 149.12 187.18 148.19 187.13 L 147.24 187.08 C 146.32 187.04 145.53 187.75 145.48 188.68 C 145.43 189.61 146.14 190.40 147.07 190.45 Z M 148.05 190.50 L 149.07 190.53 C 150.00 190.56 150.78 189.84 150.81 188.91 C 150.85 187.98 150.12 187.20 149.19 187.17 L 148.16 187.13 C 147.23 187.10 146.46 187.82 146.42 188.75 C 146.39 189.68 147.12 190.46 148.05 190.50 Z M 149.11 190.53 L 150.09 190.55 C 151.02 190.56 151.79 189.82 151.80 188.89 C 151.82 187.96 151.07 187.19 150.14 187.18 L 149.15 187.17 C 148.22 187.15 147.46 187.90 147.45 188.83 C 147.43 189.76 148.18 190.52 149.11 190.53 Z M 150.12 190.55 L 151.04 190.55 C 151.97 190.55 152.73 189.80 152.73 188.87 C 152.73 187.94 151.98 187.18 151.05 187.18 L 150.12 187.18 C 149.19 187.18 148.44 187.93 148.43 188.86 C 148.43 189.79 149.19 190.55 150.12 190.55 Z M 151.06 190.55 L 152.05 190.54 C 152.98 190.53 153.73 189.77 153.73 188.84 C 153.72 187.91 152.96 187.17 152.03 187.17 L 151.03 187.18 C 150.10 187.19 149.35 187.95 149.36 188.88 C 149.37 189.81 150.13 190.56 151.06 190.55 Z M 152.10 190.54 L 153.08 190.51 C 154.01 190.48 154.73 189.70 154.70 188.77 C 154.67 187.84 153.89 187.11 152.96 187.14 L 151.99 187.17 C 151.06 187.20 150.33 187.98 150.36 188.91 C 150.39 189.84 151.17 190.57 152.10 190.54 Z M 153.16 190.50 L 154.13 190.42 C 155.06 190.35 155.75 189.53 155.67 188.60 C 155.59 187.68 154.78 186.99 153.85 187.06 L 152.88 187.15 C 151.95 187.22 151.26 188.04 151.34 188.96 C 151.42 189.89 152.23 190.58 153.16 190.50 Z M 154.25 190.41 L 155.28 190.25 C 156.20 190.10 156.83 189.24 156.68 188.32 C 156.54 187.40 155.68 186.77 154.76 186.92 L 153.73 187.08 C 152.81 187.22 152.18 188.09 152.33 189.00 C 152.47 189.92 153.33 190.55 154.25 190.41 Z M 155.38 190.23 L 156.37 190.01 C 157.28 189.81 157.85 188.91 157.65 188.00 C 157.44 187.09 156.55 186.52 155.64 186.72 L 154.65 186.94 C 153.74 187.14 153.17 188.04 153.37 188.95 C 153.57 189.86 154.47 190.43 155.38 190.23 Z M 156.42 190.00 L 157.40 189.75 C 158.30 189.51 158.84 188.60 158.61 187.69 C 158.38 186.79 157.46 186.25 156.56 186.48 L 155.58 186.73 C 154.68 186.96 154.14 187.88 154.37 188.78 C 154.60 189.68 155.52 190.23 156.42 190.00 Z M 157.42 189.74 L 158.44 189.46 C 159.33 189.21 159.86 188.29 159.61 187.39 C 159.37 186.49 158.44 185.97 157.54 186.21 L 156.53 186.49 C 155.63 186.74 155.11 187.66 155.35 188.56 C 155.60 189.46 156.53 189.98 157.42 189.74 Z M 158.46 189.45 L 159.39 189.19 C 160.28 188.93 160.80 188.00 160.54 187.10 C 160.28 186.21 159.35 185.69 158.45 185.95 L 157.52 186.22 C 156.63 186.47 156.11 187.41 156.37 188.30 C 156.63 189.20 157.56 189.71 158.46 189.45 Z M 159.41 189.18 L 160.35 188.89 C 161.24 188.62 161.75 187.68 161.48 186.79 C 161.21 185.90 160.27 185.40 159.38 185.67 L 158.43 185.96 C 157.54 186.22 157.04 187.16 157.31 188.06 C 157.58 188.95 158.52 189.45 159.41 189.18 Z M 160.37 188.89 L 161.31 188.59 C 162.20 188.31 162.69 187.37 162.42 186.48 C 162.14 185.59 161.19 185.10 160.30 185.38 L 159.36 185.67 C 158.47 185.95 157.98 186.90 158.26 187.79 C 158.54 188.67 159.48 189.17 160.37 188.89 Z M 161.33 188.59 L 162.27 188.28 C 163.15 188.00 163.63 187.05 163.35 186.16 C 163.06 185.28 162.11 184.79 161.23 185.08 L 160.29 185.38 C 159.40 185.67 158.92 186.62 159.21 187.51 C 159.49 188.39 160.44 188.87 161.33 188.59 Z M 162.31 188.27 L 163.26 187.93 C 164.14 187.62 164.60 186.66 164.29 185.78 C 163.98 184.91 163.02 184.45 162.14 184.76 L 161.19 185.09 C 160.31 185.40 159.85 186.37 160.16 187.24 C 160.47 188.12 161.43 188.58 162.31 188.27 Z M 163.32 187.91 L 164.27 187.54 C 165.13 187.20 165.56 186.22 165.21 185.35 C 164.87 184.49 163.90 184.06 163.03 184.40 L 162.08 184.78 C 161.22 185.12 160.79 186.10 161.14 186.96 C 161.48 187.83 162.45 188.25 163.32 187.91 Z M 164.30 187.52 L 165.21 187.14 C 166.07 186.78 166.47 185.79 166.11 184.93 C 165.75 184.08 164.76 183.67 163.91 184.04 L 162.99 184.42 C 162.14 184.78 161.74 185.77 162.10 186.63 C 162.46 187.48 163.45 187.88 164.30 187.52 Z M 165.25 187.12 L 166.15 186.72 C 167.00 186.34 167.38 185.34 167.00 184.49 C 166.62 183.64 165.62 183.26 164.77 183.65 L 163.87 184.05 C 163.02 184.43 162.64 185.43 163.02 186.28 C 163.40 187.12 164.40 187.50 165.25 187.12 Z M 166.22 186.69 L 167.11 186.24 C 167.94 185.82 168.27 184.81 167.86 183.98 C 167.44 183.15 166.42 182.81 165.59 183.23 L 164.71 183.68 C 163.87 184.10 163.54 185.11 163.96 185.94 C 164.38 186.77 165.39 187.10 166.22 186.69 Z M 167.17 186.21 L 168.05 185.71 C 168.87 185.26 169.16 184.24 168.71 183.42 C 168.26 182.61 167.23 182.32 166.42 182.77 L 165.53 183.26 C 164.72 183.71 164.43 184.74 164.88 185.55 C 165.33 186.37 166.36 186.66 167.17 186.21 Z M 168.10 185.69 L 168.97 185.17 C 169.77 184.69 170.03 183.65 169.55 182.86 C 169.07 182.06 168.04 181.80 167.24 182.28 L 166.37 182.80 C 165.57 183.28 165.31 184.31 165.79 185.11 C 166.27 185.91 167.30 186.16 168.10 185.69 Z M 168.94 185.18 L 169.80 184.69 C 170.61 184.22 170.88 183.19 170.42 182.39 C 169.96 181.58 168.93 181.30 168.12 181.77 L 167.26 182.26 C 166.46 182.73 166.18 183.76 166.65 184.56 C 167.11 185.37 168.14 185.65 168.94 185.18 Z M 169.56 184.80 L 170.52 184.44 C 171.39 184.10 171.83 183.13 171.49 182.26 C 171.16 181.39 170.18 180.95 169.31 181.29 L 168.36 181.65 C 167.49 181.99 167.05 182.96 167.39 183.83 C 167.72 184.70 168.70 185.14 169.56 184.80 Z M 169.50 184.50 L 170.35 184.72 C 171.26 184.95 172.18 184.40 172.41 183.50 C 172.64 182.60 172.10 181.68 171.19 181.44 L 170.34 181.22 C 169.43 180.99 168.51 181.54 168.28 182.44 C 168.05 183.35 168.59 184.27 169.50 184.50 Z M 169.33 183.97 L 169.87 184.84 C 170.36 185.64 171.40 185.88 172.20 185.39 C 172.99 184.90 173.24 183.86 172.75 183.06 L 172.21 182.19 C 171.72 181.40 170.68 181.15 169.88 181.64 C 169.09 182.13 168.84 183.17 169.33 183.97 Z M 169.63 184.19 L 169.77 185.16 C 169.90 186.09 170.76 186.73 171.69 186.60 C 172.62 186.47 173.26 185.60 173.13 184.68 L 172.99 183.71 C 172.85 182.78 171.99 182.14 171.06 182.27 C 170.14 182.41 169.49 183.27 169.63 184.19 Z M 169.75 184.94 L 169.76 185.98 C 169.78 186.91 170.55 187.66 171.48 187.65 C 172.42 187.64 173.17 186.87 173.16 185.93 L 173.15 184.90 C 173.13 183.96 172.36 183.21 171.43 183.22 C 170.49 183.23 169.74 184.00 169.75 184.94 Z M 169.76 185.95 L 169.76 186.96 C 169.76 187.89 170.52 188.66 171.46 188.66 C 172.40 188.66 173.16 187.89 173.16 186.96 L 173.16 185.95 C 173.16 185.01 172.40 184.25 171.46 184.25 C 170.52 184.25 169.76 185.01 169.76 185.95 Z M 169.76 186.96 L 169.76 187.92 C 169.76 188.86 170.52 189.62 171.46 189.62 C 172.40 189.62 173.16 188.86 173.16 187.92 L 173.16 186.96 C 173.16 186.02 172.40 185.26 171.46 185.26 C 170.52 185.26 169.76 186.02 169.76 186.96 Z M 169.76 187.95 L 169.77 188.93 C 169.79 189.87 170.56 190.62 171.50 190.61 C 172.44 190.59 173.19 189.82 173.17 188.88 L 173.16 187.90 C 173.15 186.96 172.38 186.21 171.44 186.22 C 170.50 186.24 169.75 187.01 169.76 187.95 Z M 169.78 188.99 L 169.82 190.01 C 169.87 190.94 170.66 191.67 171.60 191.63 C 172.54 191.58 173.27 190.78 173.22 189.85 L 173.17 188.83 C 173.13 187.89 172.33 187.16 171.39 187.21 C 170.46 187.25 169.73 188.05 169.78 188.99 Z M 169.83 190.06 L 169.90 191.06 C 169.97 192.00 170.79 192.70 171.73 192.63 C 172.66 192.56 173.37 191.74 173.29 190.80 L 173.22 189.80 C 173.15 188.86 172.33 188.16 171.39 188.23 C 170.46 188.30 169.76 189.12 169.83 190.06 Z M 169.90 191.08 L 169.99 192.08 C 170.07 193.02 170.89 193.71 171.83 193.63 C 172.76 193.55 173.46 192.73 173.38 191.79 L 173.29 190.79 C 173.21 189.85 172.39 189.16 171.45 189.24 C 170.52 189.32 169.82 190.14 169.90 191.08 Z M 169.99 192.08 L 170.07 193.05 C 170.15 193.98 170.98 194.67 171.91 194.59 C 172.85 194.51 173.54 193.69 173.46 192.75 L 173.38 191.79 C 173.30 190.85 172.47 190.16 171.54 190.24 C 170.60 190.32 169.91 191.15 169.99 192.08 Z M 170.08 193.07 L 170.18 194.09 C 170.28 195.02 171.11 195.70 172.05 195.60 C 172.98 195.51 173.66 194.67 173.56 193.74 L 173.46 192.72 C 173.36 191.79 172.53 191.11 171.59 191.21 C 170.66 191.30 169.98 192.14 170.08 193.07 Z M 170.19 194.13 L 170.31 195.13 C 170.43 196.06 171.29 196.72 172.22 196.60 C 173.15 196.48 173.81 195.63 173.69 194.69 L 173.56 193.69 C 173.44 192.76 172.59 192.10 171.65 192.22 C 170.72 192.34 170.06 193.20 170.19 194.13 Z M 170.32 195.16 L 170.47 196.17 C 170.60 197.10 171.46 197.75 172.39 197.61 C 173.32 197.48 173.97 196.61 173.83 195.68 L 173.68 194.67 C 173.55 193.74 172.69 193.09 171.76 193.23 C 170.83 193.36 170.18 194.23 170.32 195.16 Z M 170.47 196.19 L 170.62 197.17 C 170.76 198.10 171.63 198.74 172.56 198.59 C 173.49 198.45 174.13 197.58 173.98 196.65 L 173.83 195.67 C 173.69 194.74 172.82 194.10 171.89 194.25 C 170.96 194.39 170.33 195.26 170.47 196.19 Z M 170.62 197.18 L 170.78 198.19 C 170.93 199.12 171.80 199.75 172.73 199.60 C 173.65 199.46 174.29 198.59 174.14 197.66 L 173.98 196.65 C 173.83 195.72 172.96 195.08 172.04 195.23 C 171.11 195.38 170.47 196.25 170.62 197.18 Z M 170.78 198.19 L 170.93 199.14 C 171.08 200.07 171.96 200.70 172.88 200.55 C 173.81 200.40 174.44 199.53 174.29 198.60 L 174.14 197.65 C 173.99 196.73 173.12 196.09 172.19 196.24 C 171.26 196.39 170.63 197.27 170.78 198.19 Z M 170.93 199.14 L 171.09 200.10 C 171.24 201.03 172.11 201.66 173.04 201.52 C 173.96 201.37 174.60 200.49 174.45 199.57 L 174.29 198.61 C 174.14 197.68 173.27 197.05 172.34 197.19 C 171.42 197.34 170.79 198.22 170.93 199.14 Z M 171.09 200.10 L 171.24 201.10 C 171.39 202.03 172.26 202.66 173.19 202.52 C 174.11 202.37 174.75 201.51 174.60 200.58 L 174.45 199.57 C 174.30 198.65 173.43 198.01 172.51 198.15 C 171.58 198.30 170.94 199.17 171.09 200.10 Z M 171.24 201.09 L 171.39 202.08 C 171.52 203.01 172.39 203.66 173.32 203.52 C 174.25 203.38 174.89 202.52 174.75 201.59 L 174.61 200.59 C 174.47 199.66 173.61 199.02 172.68 199.16 C 171.75 199.29 171.10 200.16 171.24 201.09 Z M 171.39 202.07 L 171.53 203.06 C 171.66 203.99 172.52 204.64 173.45 204.51 C 174.38 204.38 175.03 203.51 174.89 202.58 L 174.75 201.60 C 174.62 200.67 173.76 200.02 172.83 200.15 C 171.90 200.28 171.26 201.14 171.39 202.07 Z M 171.53 203.06 L 171.67 204.05 C 171.80 204.98 172.66 205.63 173.59 205.50 C 174.52 205.36 175.17 204.50 175.04 203.57 L 174.89 202.58 C 174.76 201.65 173.90 201.01 172.97 201.14 C 172.04 201.27 171.39 202.13 171.53 203.06 Z M 171.67 204.06 L 171.82 205.04 C 171.96 205.97 172.82 206.61 173.75 206.47 C 174.68 206.33 175.32 205.46 175.18 204.53 L 175.03 203.56 C 174.89 202.63 174.03 201.99 173.10 202.13 C 172.17 202.27 171.53 203.14 171.67 204.06 Z M 171.82 205.04 L 171.97 206.04 C 172.11 206.97 172.98 207.61 173.91 207.47 C 174.84 207.33 175.47 206.46 175.33 205.53 L 175.18 204.53 C 175.04 203.60 174.17 202.96 173.24 203.11 C 172.31 203.25 171.68 204.11 171.82 205.04 Z M 171.97 206.04 L 172.12 207.03 C 172.26 207.96 173.13 208.60 174.05 208.46 C 174.98 208.32 175.62 207.46 175.48 206.53 L 175.33 205.53 C 175.19 204.60 174.33 203.96 173.40 204.10 C 172.47 204.24 171.83 205.11 171.97 206.04 Z M 172.12 207.03 L 172.27 208.03 C 172.41 208.95 173.27 209.60 174.20 209.46 C 175.13 209.32 175.77 208.45 175.63 207.52 L 175.48 206.53 C 175.35 205.60 174.48 204.96 173.55 205.10 C 172.62 205.24 171.98 206.10 172.12 207.03 Z M 172.27 208.03 L 172.42 209.02 C 172.56 209.95 173.42 210.59 174.35 210.45 C 175.28 210.31 175.92 209.44 175.78 208.51 L 175.63 207.52 C 175.49 206.59 174.63 205.95 173.70 206.09 C 172.77 206.23 172.13 207.10 172.27 208.03 Z M 172.42 209.02 L 172.57 210.02 C 172.71 210.95 173.58 211.59 174.51 211.45 C 175.44 211.31 176.07 210.44 175.93 209.51 L 175.78 208.51 C 175.64 207.58 174.77 206.94 173.84 207.08 C 172.91 207.22 172.28 208.09 172.42 209.02 Z M 172.57 210.02 L 172.71 211.00 C 172.85 211.93 173.72 212.57 174.65 212.43 C 175.58 212.29 176.22 211.43 176.08 210.50 L 175.93 209.51 C 175.79 208.59 174.93 207.94 174.00 208.08 C 173.07 208.22 172.43 209.09 172.57 210.02 Z M 172.71 210.98 L 172.85 211.96 C 172.98 212.89 173.84 213.54 174.77 213.41 C 175.70 213.28 176.35 212.42 176.22 211.49 L 176.08 210.51 C 175.95 209.58 175.09 208.93 174.16 209.06 C 173.23 209.19 172.58 210.05 172.71 210.98 Z M 172.85 211.95 L 172.98 212.94 C 173.10 213.87 173.96 214.53 174.89 214.40 C 175.82 214.28 176.47 213.42 176.35 212.49 L 176.22 211.51 C 176.10 210.57 175.24 209.92 174.31 210.04 C 173.38 210.17 172.72 211.02 172.85 211.95 Z M 172.98 212.94 L 173.11 213.94 C 173.24 214.87 174.10 215.53 175.03 215.40 C 175.96 215.27 176.61 214.42 176.48 213.49 L 176.35 212.49 C 176.22 211.56 175.37 210.91 174.44 211.03 C 173.50 211.16 172.85 212.01 172.98 212.94 Z M 173.12 213.96 L 173.26 214.97 C 173.39 215.90 174.26 216.54 175.19 216.41 C 176.12 216.27 176.76 215.41 176.63 214.48 L 176.48 213.47 C 176.35 212.54 175.49 211.90 174.56 212.03 C 173.63 212.17 172.98 213.03 173.12 213.96 Z M 173.26 214.97 L 173.40 215.95 C 173.54 216.88 174.40 217.52 175.33 217.39 C 176.26 217.26 176.90 216.39 176.77 215.46 L 176.63 214.48 C 176.49 213.55 175.63 212.91 174.70 213.04 C 173.77 213.18 173.13 214.04 173.26 214.97 Z M 173.40 215.93 L 173.54 216.95 C 173.66 217.88 174.51 218.53 175.45 218.41 C 176.38 218.29 177.03 217.43 176.91 216.50 L 176.77 215.48 C 176.65 214.55 175.79 213.90 174.86 214.02 C 173.93 214.14 173.28 215.00 173.40 215.93 Z M 173.53 216.92 L 173.64 217.89 C 173.75 218.83 174.60 219.50 175.53 219.39 C 176.46 219.28 177.13 218.44 177.02 217.50 L 176.91 216.53 C 176.80 215.60 175.96 214.93 175.03 215.03 C 174.09 215.14 173.42 215.99 173.53 216.92 Z M 173.64 217.86 L 173.74 218.84 C 173.83 219.78 174.66 220.46 175.59 220.37 C 176.53 220.28 177.21 219.45 177.12 218.51 L 177.03 217.53 C 176.94 216.60 176.10 215.92 175.17 216.01 C 174.23 216.10 173.55 216.93 173.64 217.86 Z M 173.73 218.82 L 173.82 219.81 C 173.90 220.75 174.72 221.44 175.66 221.36 C 176.59 221.28 177.29 220.46 177.21 219.53 L 177.12 218.53 C 177.04 217.60 176.22 216.90 175.29 216.98 C 174.35 217.06 173.65 217.89 173.73 218.82 Z M 173.82 219.81 L 173.90 220.80 C 173.98 221.74 174.80 222.43 175.74 222.35 C 176.67 222.28 177.37 221.46 177.29 220.52 L 177.21 219.53 C 177.13 218.59 176.31 217.90 175.37 217.97 C 174.44 218.05 173.74 218.87 173.82 219.81 Z M 173.90 220.80 L 173.98 221.80 C 174.06 222.74 174.88 223.43 175.82 223.35 C 176.75 223.28 177.45 222.46 177.37 221.52 L 177.29 220.52 C 177.21 219.58 176.39 218.89 175.46 218.96 C 174.52 219.04 173.82 219.86 173.90 220.80 Z M 173.98 221.79 L 174.06 222.78 C 174.13 223.72 174.95 224.41 175.89 224.34 C 176.83 224.27 177.53 223.45 177.45 222.51 L 177.37 221.53 C 177.30 220.59 176.48 219.89 175.54 219.96 C 174.61 220.04 173.91 220.86 173.98 221.79 Z M 174.06 222.78 L 174.14 223.78 C 174.21 224.72 175.03 225.42 175.96 225.35 C 176.90 225.27 177.60 224.46 177.53 223.52 L 177.45 222.51 C 177.38 221.58 176.56 220.88 175.63 220.95 C 174.69 221.02 173.99 221.84 174.06 222.78 Z M 174.14 223.78 L 174.21 224.79 C 174.28 225.72 175.10 226.43 176.04 226.36 C 176.97 226.29 177.67 225.47 177.60 224.53 L 177.53 223.52 C 177.46 222.59 176.64 221.88 175.71 221.95 C 174.77 222.02 174.07 222.84 174.14 223.78 Z M 174.21 224.78 L 174.28 225.78 C 174.35 226.71 175.16 227.42 176.09 227.35 C 177.03 227.29 177.74 226.48 177.67 225.54 L 177.61 224.54 C 177.54 223.61 176.73 222.90 175.79 222.96 C 174.85 223.03 174.15 223.84 174.21 224.78 Z M 174.28 225.75 L 174.34 226.77 C 174.39 227.71 175.19 228.43 176.13 228.38 C 177.07 228.32 177.78 227.52 177.73 226.58 L 177.68 225.56 C 177.62 224.63 176.82 223.91 175.88 223.96 C 174.95 224.01 174.23 224.82 174.28 225.75 Z M 174.34 226.75 L 174.38 227.72 C 174.42 228.66 175.22 229.39 176.15 229.35 C 177.09 229.31 177.82 228.51 177.78 227.57 L 177.73 226.60 C 177.69 225.66 176.90 224.94 175.96 224.98 C 175.02 225.02 174.29 225.82 174.34 226.75 Z M 174.38 227.72 L 174.42 228.72 C 174.46 229.66 175.25 230.39 176.19 230.35 C 177.13 230.31 177.86 229.52 177.82 228.58 L 177.78 227.58 C 177.74 226.64 176.95 225.91 176.01 225.95 C 175.07 225.99 174.34 226.78 174.38 227.72 Z M 174.42 228.70 L 174.45 229.67 C 174.47 230.60 175.25 231.34 176.19 231.32 C 177.13 231.29 177.87 230.51 177.84 229.57 L 177.82 228.60 C 177.79 227.67 177.01 226.93 176.07 226.95 C 175.13 226.98 174.39 227.76 174.42 228.70 Z M 174.45 229.63 L 174.45 230.58 C 174.46 231.52 175.23 232.28 176.17 232.27 C 177.10 232.26 177.86 231.50 177.85 230.56 L 177.84 229.61 C 177.84 228.67 177.07 227.91 176.13 227.92 C 175.19 227.93 174.44 228.69 174.45 229.63 Z M 174.45 230.57 L 174.45 231.63 C 174.45 232.57 175.22 233.33 176.15 233.33 C 177.09 233.33 177.85 232.57 177.85 231.63 L 177.85 230.57 C 177.85 229.63 177.09 228.87 176.15 228.87 C 175.21 228.87 174.45 229.63 174.45 230.57 Z M 174.45 231.63 L 174.45 232.66 C 174.45 233.60 175.22 234.36 176.15 234.36 C 177.09 234.36 177.85 233.60 177.85 232.66 L 177.85 231.63 C 177.85 230.69 177.09 229.93 176.15 229.93 C 175.22 229.93 174.45 230.69 174.45 231.63 Z M 174.45 232.66 L 174.45 233.66 C 174.45 234.60 175.22 235.36 176.15 235.36 C 177.09 235.36 177.85 234.60 177.85 233.66 L 177.85 232.66 C 177.85 231.72 177.09 230.96 176.15 230.96 C 175.22 230.96 174.45 231.72 174.45 232.66 Z M 174.45 233.66 L 174.45 234.71 C 174.45 235.65 175.22 236.41 176.15 236.41 C 177.09 236.41 177.85 235.65 177.85 234.71 L 177.85 233.66 C 177.85 232.72 177.09 231.96 176.15 231.96 C 175.22 231.96 174.45 232.72 174.45 233.66 Z M 174.46 234.71 L 174.46 235.64 C 174.46 236.58 175.22 237.34 176.15 237.34 C 177.09 237.34 177.85 236.58 177.85 235.64 L 177.85 234.71 C 177.85 233.77 177.09 233.01 176.15 233.01 C 175.22 233.01 174.46 233.77 174.46 234.71 Z M 174.46 235.64 L 174.45 236.63 C 174.45 237.56 175.20 238.33 176.14 238.33 C 177.08 238.34 177.84 237.58 177.85 236.64 L 177.85 235.65 C 177.85 234.71 177.10 233.95 176.16 233.95 C 175.22 233.94 174.46 234.70 174.46 235.64 Z M 174.45 236.59 L 174.43 237.61 C 174.40 238.54 175.14 239.32 176.07 239.35 C 177.01 239.38 177.79 238.64 177.81 237.70 L 177.84 236.68 C 177.87 235.75 177.13 234.97 176.20 234.94 C 175.26 234.91 174.48 235.65 174.45 236.59 Z M 174.43 237.49 L 174.34 238.50 C 174.25 239.43 174.93 240.26 175.86 240.34 C 176.79 240.43 177.62 239.75 177.71 238.82 L 177.80 237.81 C 177.89 236.88 177.21 236.06 176.28 235.97 C 175.35 235.88 174.52 236.56 174.43 237.49 Z M 174.39 238.24 L 174.11 239.34 C 173.87 240.24 174.42 241.16 175.32 241.40 C 176.22 241.63 177.14 241.08 177.38 240.18 L 177.66 239.08 C 177.89 238.18 177.35 237.26 176.45 237.02 C 175.54 236.79 174.62 237.33 174.39 238.24 Z M 174.09 239.69 L 174.06 240.18 C 174.02 241.10 174.73 241.87 175.64 241.91 C 176.56 241.95 177.33 241.24 177.37 240.33 L 177.40 239.83 C 177.44 238.92 176.73 238.15 175.81 238.11 C 174.90 238.06 174.13 238.77 174.09 239.69 Z M 176.76 241.38 L 177.51 240.68 C 178.13 240.11 178.16 239.14 177.58 238.52 C 177.01 237.90 176.04 237.86 175.42 238.44 L 174.68 239.14 C 174.06 239.71 174.02 240.68 174.60 241.30 C 175.17 241.92 176.14 241.95 176.76 241.38 Z"
      fill="black"
      fill-rule="nonzero" /></svg>