<svg xmlns="http://www.w3.org/2000/svg" width="300" height="300" viewBox="0 0 300 300">
<path d="M 119.85 134.85 L 119.46 135.83 C 119.15 136.60 119.53 137.48 120.31 137.79 C 121.08 138.10 121.96 137.72 122.27 136.95 L 122.66 135.97 C 122.97 135.20 122.59 134.32 121.82 134.01 C 121.04 133.70 120.16 134.08 119.85 134.85 Z M 119.40 135.89 L 119.09 136.82 C 118.81 137.63 119.25 138.51 120.06 138.78 C 120.87 139.05 121.75 138.62 122.02 137.81 L 122.34 136.88 C 122.61 136.07 122.17 135.19 121.36 134.92 C 120.55 134.65 119.67 135.08 119.40 135.89 Z M 119.01 137.02 L 118.83 137.97 C 118.67 138.83 119.23 139.65 120.08 139.81 C 120.94 139.98 121.76 139.41 121.92 138.56 L 122.10 137.61 C 122.27 136.75 121.70 135.93 120.85 135.77 C 119.99 135.60 119.17 136.17 119.01 137.02 Z M 118.79 138.21 L 118.75 139.19 C 118.72 140.07 119.40 140.81 120.28 140.84 C 121.15 140.87 121.89 140.19 121.93 139.31 L 121.96 138.33 C 122.00 137.45 121.31 136.71 120.44 136.68 C 119.56 136.65 118.82 137.33 118.79 138.21 Z M 118.74 139.25 L 118.74 140.17 C 118.74 141.05 119.46 141.77 120.34 141.77 C 121.22 141.77 121.93 141.05 121.93 140.17 L 121.93 139.25 C 121.93 138.37 121.22 137.66 120.34 137.66 C 119.46 137.66 118.74 138.37 118.74 139.25 Z M 118.74 140.17 L 118.74 141.18 C 118.74 142.06 119.45 142.78 120.34 142.78 C 121.22 142.78 121.94 142.06 121.94 141.18 L 121.94 140.17 C 121.94 139.29 121.22 138.57 120.34 138.57 C 119.45 138.57 118.74 139.29 118.74 140.17 Z M 118.73 141.18 L 118.73 142.23 C 118.73 143.11 119.45 143.83 120.34 143.83 C 121.23 143.83 121.94 143.11 121.94 142.23 L 121.94 141.18 C 121.94 140.29 121.23 139.57 120.34 139.57 C 119.45 139.57 118.73 140.29 118.73 141.18 Z M 118.73 142.23 L 118.73 143.15 C 118.73 144.04 119.45 144.76 120.34 144.76 C 121.23 144.76 121.95 144.04 121.95 143.15 L 121.95 142.23 C 121.95 141.34 121.23 140.62 120.34 140.62 C 119.45 140.62 118.73 141.34 118.73 142.23 Z M 118.73 143.15 L 118.73 144.15 C 118.73 145.04 119.45 145.77 120.34 145.77 C 121.23 145.77 121.95 145.04 121.95 144.15 L 121.95 143.15 C 121.95 142.26 121.23 141.54 120.34 141.54 C 119.45 141.54 118.73 142.26 118.73 143.15 Z M 118.72 144.15 L 118.72 145.25 C 118.72 146.14 119.45 146.86 120.34 146.86 C 121.23 146.86 121.95 146.14 121.95 145.25 L 121.95 144.15 C 121.95 143.26 121.23 142.54 120.34 142.54 C 119.45 142.54 118.72 143.26 118.72 144.15 Z M 118.72 145.25 L 118.72 146.19 C 118.72 147.09 119.44 147.81 120.34 147.81 C 121.23 147.81 121.96 147.09 121.96 146.19 L 121.96 145.25 C 121.96 144.35 121.23 143.63 120.34 143.63 C 119.44 143.63 118.72 144.35 118.72 145.25 Z M 118.72 146.19 L 118.72 147.16 C 118.72 148.05 119.44 148.78 120.34 148.78 C 121.24 148.78 121.96 148.05 121.96 147.15 L 121.96 146.19 C 121.96 145.29 121.23 144.57 120.34 144.57 C 119.44 144.57 118.71 145.30 118.72 146.19 Z M 118.71 147.16 L 118.71 148.17 C 118.72 149.07 119.45 149.80 120.35 149.80 C 121.25 149.79 121.97 149.06 121.97 148.16 L 121.97 147.15 C 121.97 146.25 121.23 145.53 120.34 145.53 C 119.44 145.53 118.71 146.26 118.71 147.16 Z M 118.71 148.18 L 118.71 149.23 C 118.72 150.13 119.45 150.86 120.35 150.85 C 121.26 150.85 121.98 150.12 121.98 149.21 L 121.98 148.16 C 121.97 147.26 121.24 146.53 120.33 146.54 C 119.43 146.54 118.71 147.27 118.71 148.18 Z M 118.71 149.23 L 118.72 150.26 C 118.72 151.16 119.46 151.89 120.37 151.88 C 121.27 151.87 122.00 151.14 121.99 150.23 L 121.98 149.21 C 121.98 148.30 121.24 147.58 120.33 147.58 C 119.43 147.59 118.70 148.33 118.71 149.23 Z M 118.71 150.26 L 118.72 151.23 C 118.73 152.14 119.48 152.87 120.38 152.86 C 121.29 152.85 122.02 152.10 122.01 151.20 L 122.00 150.22 C 121.99 149.32 121.24 148.59 120.34 148.60 C 119.43 148.61 118.70 149.35 118.71 150.26 Z M 118.72 151.24 L 118.73 152.23 C 118.75 153.14 119.50 153.87 120.41 153.85 C 121.32 153.84 122.04 153.09 122.03 152.18 L 122.01 151.19 C 122.00 150.28 121.25 149.55 120.34 149.57 C 119.43 149.58 118.70 150.33 118.72 151.24 Z M 118.73 152.24 L 118.75 153.25 C 118.77 154.17 119.53 154.89 120.44 154.87 C 121.35 154.85 122.07 154.10 122.05 153.18 L 122.03 152.17 C 122.01 151.26 121.26 150.54 120.35 150.56 C 119.43 150.58 118.71 151.33 118.73 152.24 Z M 118.75 153.26 L 118.77 154.29 C 118.80 155.20 119.56 155.92 120.48 155.90 C 121.39 155.87 122.11 155.11 122.09 154.20 L 122.06 153.17 C 122.03 152.26 121.27 151.54 120.36 151.56 C 119.44 151.59 118.72 152.35 118.75 153.26 Z M 118.77 154.30 L 118.81 155.31 C 118.84 156.23 119.61 156.95 120.53 156.92 C 121.44 156.88 122.16 156.11 122.13 155.20 L 122.09 154.18 C 122.06 153.27 121.29 152.55 120.37 152.58 C 119.46 152.62 118.74 153.39 118.77 154.30 Z M 118.80 155.33 L 118.85 156.31 C 118.89 157.23 119.66 157.94 120.58 157.90 C 121.50 157.86 122.21 157.09 122.17 156.17 L 122.13 155.18 C 122.09 154.26 121.31 153.55 120.40 153.59 C 119.48 153.63 118.76 154.41 118.80 155.33 Z M 118.84 156.32 L 118.89 157.31 C 118.94 158.23 119.72 158.94 120.64 158.90 C 121.56 158.85 122.27 158.07 122.23 157.15 L 122.18 156.16 C 122.13 155.24 121.35 154.53 120.43 154.57 C 119.51 154.62 118.80 155.40 118.84 156.32 Z M 118.89 157.32 L 118.94 158.32 C 118.99 159.24 119.78 159.95 120.71 159.90 C 121.63 159.85 122.33 159.06 122.28 158.14 L 122.23 157.14 C 122.18 156.22 121.39 155.51 120.47 155.56 C 119.54 155.61 118.84 156.40 118.89 157.32 Z M 118.94 158.33 L 119.00 159.34 C 119.05 160.26 119.85 160.97 120.77 160.91 C 121.70 160.86 122.40 160.06 122.35 159.14 L 122.29 158.13 C 122.23 157.21 121.44 156.50 120.51 156.56 C 119.59 156.61 118.89 157.40 118.94 158.33 Z M 119.00 159.34 L 119.06 160.36 C 119.12 161.29 119.91 161.99 120.84 161.93 C 121.77 161.88 122.47 161.08 122.41 160.15 L 122.35 159.14 C 122.29 158.21 121.50 157.50 120.57 157.56 C 119.64 157.62 118.94 158.42 119.00 159.34 Z M 119.06 160.36 L 119.12 161.37 C 119.18 162.29 119.98 163.00 120.91 162.94 C 121.84 162.88 122.54 162.08 122.48 161.15 L 122.42 160.15 C 122.36 159.22 121.56 158.52 120.63 158.58 C 119.70 158.64 119.00 159.44 119.06 160.36 Z M 119.12 161.37 L 119.18 162.37 C 119.24 163.30 120.05 164.01 120.97 163.95 C 121.90 163.89 122.61 163.09 122.55 162.16 L 122.48 161.15 C 122.42 160.22 121.62 159.52 120.69 159.58 C 119.76 159.64 119.06 160.44 119.12 161.37 Z M 119.18 162.37 L 119.25 163.38 C 119.31 164.31 120.11 165.01 121.04 164.95 C 121.97 164.89 122.67 164.09 122.61 163.16 L 122.55 162.16 C 122.49 161.23 121.69 160.52 120.76 160.58 C 119.83 160.64 119.12 161.44 119.18 162.37 Z M 119.25 163.38 L 119.31 164.38 C 119.37 165.31 120.17 166.01 121.10 165.95 C 122.03 165.90 122.74 165.09 122.68 164.16 L 122.61 163.16 C 122.56 162.23 121.75 161.53 120.82 161.59 C 119.89 161.64 119.19 162.45 119.25 163.38 Z M 119.31 164.37 L 119.37 165.36 C 119.42 166.29 120.22 167.00 121.15 166.94 C 122.09 166.89 122.80 166.09 122.74 165.16 L 122.68 164.17 C 122.62 163.24 121.82 162.53 120.89 162.58 C 119.96 162.64 119.25 163.44 119.31 164.37 Z M 119.36 165.35 L 119.42 166.35 C 119.47 167.28 120.27 168.00 121.20 167.94 C 122.14 167.89 122.85 167.09 122.80 166.16 L 122.74 165.16 C 122.69 164.23 121.89 163.52 120.96 163.57 C 120.02 163.62 119.31 164.42 119.36 165.35 Z M 119.42 166.34 L 119.47 167.35 C 119.52 168.28 120.32 169.00 121.25 168.95 C 122.18 168.90 122.90 168.10 122.85 167.17 L 122.80 166.17 C 122.75 165.23 121.95 164.52 121.02 164.56 C 120.09 164.61 119.37 165.41 119.42 166.34 Z M 119.47 167.34 L 119.52 168.34 C 119.57 169.27 120.36 169.99 121.29 169.94 C 122.23 169.90 122.95 169.10 122.90 168.17 L 122.85 167.18 C 122.81 166.24 122.01 165.52 121.08 165.57 C 120.15 165.61 119.43 166.41 119.47 167.34 Z M 119.52 168.33 L 119.57 169.32 C 119.61 170.26 120.40 170.98 121.33 170.94 C 122.27 170.89 122.99 170.10 122.95 169.17 L 122.90 168.18 C 122.86 167.24 122.07 166.52 121.13 166.56 C 120.20 166.61 119.48 167.40 119.52 168.33 Z M 119.57 169.32 L 119.61 170.31 C 119.65 171.25 120.44 171.97 121.37 171.93 C 122.31 171.89 123.03 171.10 122.99 170.16 L 122.95 169.17 C 122.90 168.24 122.11 167.51 121.18 167.55 C 120.25 167.60 119.52 168.39 119.57 169.32 Z M 119.61 170.31 L 119.65 171.31 C 119.69 172.24 120.48 172.96 121.42 172.92 C 122.35 172.88 123.07 172.09 123.03 171.16 L 122.99 170.16 C 122.95 169.23 122.16 168.51 121.23 168.55 C 120.29 168.59 119.57 169.38 119.61 170.31 Z M 119.65 171.31 L 119.69 172.28 C 119.73 173.22 120.52 173.94 121.46 173.90 C 122.39 173.86 123.12 173.07 123.08 172.14 L 123.03 171.16 C 122.99 170.22 122.20 169.50 121.27 169.54 C 120.34 169.58 119.61 170.37 119.65 171.31 Z M 119.69 172.28 L 119.74 173.27 C 119.78 174.21 120.57 174.93 121.50 174.89 C 122.44 174.85 123.16 174.06 123.12 173.13 L 123.08 172.14 C 123.04 171.20 122.25 170.48 121.31 170.52 C 120.38 170.56 119.65 171.35 119.69 172.28 Z M 119.73 173.27 L 119.78 174.27 C 119.82 175.21 120.61 175.93 121.54 175.89 C 122.48 175.85 123.21 175.06 123.17 174.13 L 123.12 173.13 C 123.08 172.19 122.29 171.47 121.36 171.51 C 120.42 171.55 119.69 172.34 119.73 173.27 Z M 119.78 174.27 L 119.82 175.28 C 119.86 176.22 120.65 176.94 121.59 176.91 C 122.52 176.87 123.25 176.07 123.21 175.14 L 123.17 174.13 C 123.13 173.19 122.34 172.47 121.40 172.50 C 120.46 172.54 119.74 173.34 119.78 174.27 Z M 119.82 175.28 L 119.86 176.30 C 119.90 177.24 120.69 177.96 121.63 177.93 C 122.56 177.89 123.29 177.10 123.25 176.16 L 123.21 175.14 C 123.17 174.20 122.38 173.47 121.44 173.51 C 120.51 173.55 119.78 174.34 119.82 175.28 Z M 119.86 176.30 L 119.90 177.30 C 119.94 178.24 120.73 178.96 121.67 178.93 C 122.60 178.89 123.33 178.10 123.29 177.16 L 123.25 176.16 C 123.22 175.22 122.42 174.49 121.49 174.53 C 120.55 174.57 119.82 175.36 119.86 176.30 Z M 119.90 177.30 L 119.94 178.29 C 119.98 179.23 120.77 179.96 121.70 179.93 C 122.64 179.89 123.37 179.10 123.34 178.16 L 123.30 177.16 C 123.26 176.22 122.47 175.49 121.53 175.53 C 120.59 175.57 119.86 176.36 119.90 177.30 Z M 119.94 178.29 L 119.98 179.29 C 120.01 180.23 120.80 180.96 121.74 180.93 C 122.68 180.89 123.41 180.10 123.38 179.16 L 123.34 178.16 C 123.30 177.22 122.51 176.49 121.57 176.53 C 120.63 176.56 119.90 177.35 119.94 178.29 Z M 119.97 179.29 L 120.01 180.29 C 120.05 181.23 120.84 181.97 121.78 181.93 C 122.72 181.90 123.45 181.11 123.41 180.17 L 123.38 179.16 C 123.34 178.22 122.55 177.49 121.61 177.53 C 120.67 177.56 119.94 178.35 119.97 179.29 Z M 120.01 180.29 L 120.05 181.29 C 120.08 182.23 120.87 182.97 121.81 182.93 C 122.75 182.90 123.49 182.11 123.45 181.17 L 123.42 180.17 C 123.38 179.23 122.59 178.49 121.65 178.53 C 120.71 178.56 119.98 179.35 120.01 180.29 Z M 120.05 181.29 L 120.08 182.29 C 120.11 183.23 120.90 183.97 121.84 183.94 C 122.78 183.91 123.52 183.12 123.49 182.18 L 123.45 181.17 C 123.42 180.23 122.63 179.50 121.69 179.53 C 120.75 179.56 120.01 180.35 120.05 181.29 Z M 120.08 182.29 L 120.12 183.32 C 120.15 184.26 120.93 185.00 121.88 184.96 C 122.82 184.93 123.55 184.15 123.52 183.20 L 123.49 182.18 C 123.46 181.24 122.67 180.50 121.73 180.53 C 120.79 180.56 120.05 181.35 120.08 182.29 Z M 120.11 183.31 L 120.15 184.33 C 120.18 185.27 120.96 186.01 121.90 185.98 C 122.85 185.95 123.58 185.17 123.55 184.22 L 123.52 183.21 C 123.49 182.27 122.71 181.53 121.77 181.56 C 120.82 181.59 120.09 182.37 120.11 183.31 Z M 120.15 184.33 L 120.18 185.33 C 120.20 186.27 120.99 187.01 121.93 186.99 C 122.87 186.96 123.61 186.17 123.58 185.23 L 123.56 184.23 C 123.53 183.29 122.74 182.55 121.80 182.57 C 120.86 182.60 120.12 183.39 120.15 184.33 Z M 120.17 185.33 L 120.20 186.32 C 120.23 187.26 121.01 188.00 121.95 187.98 C 122.89 187.95 123.64 187.17 123.61 186.22 L 123.59 185.24 C 123.56 184.29 122.78 183.55 121.83 183.58 C 120.89 183.60 120.15 184.39 120.17 185.33 Z M 120.20 186.31 L 120.22 187.28 C 120.25 188.23 121.03 188.97 121.97 188.95 C 122.92 188.92 123.66 188.14 123.64 187.20 L 123.61 186.23 C 123.59 185.29 122.81 184.54 121.86 184.56 C 120.92 184.59 120.18 185.37 120.20 186.31 Z M 120.22 187.28 L 120.25 188.28 C 120.27 189.22 121.05 189.97 121.99 189.95 C 122.93 189.93 123.68 189.15 123.66 188.21 L 123.64 187.20 C 123.62 186.26 122.84 185.51 121.89 185.53 C 120.95 185.56 120.20 186.34 120.22 187.28 Z M 120.25 188.28 L 120.27 189.28 C 120.28 190.23 121.06 190.98 122.01 190.96 C 122.95 190.94 123.70 190.16 123.68 189.22 L 123.66 188.21 C 123.64 187.27 122.86 186.52 121.92 186.54 C 120.98 186.56 120.23 187.34 120.25 188.28 Z M 120.27 189.28 L 120.28 190.27 C 120.30 191.22 121.08 191.97 122.02 191.95 C 122.96 191.94 123.71 191.16 123.70 190.21 L 123.68 189.22 C 123.66 188.28 122.89 187.53 121.94 187.54 C 121.00 187.56 120.25 188.34 120.27 189.28 Z M 120.28 190.27 L 120.30 191.26 C 120.31 192.20 121.09 192.96 122.03 192.94 C 122.98 192.93 123.73 192.15 123.71 191.21 L 123.70 190.22 C 123.68 189.27 122.91 188.52 121.96 188.54 C 121.02 188.55 120.27 189.33 120.28 190.27 Z M 120.30 191.26 L 120.31 192.25 C 120.33 193.20 121.10 193.95 122.05 193.94 C 122.99 193.92 123.74 193.14 123.73 192.20 L 123.71 191.21 C 123.70 190.26 122.92 189.51 121.98 189.53 C 121.04 189.54 120.28 190.32 120.30 191.26 Z M 120.31 192.25 L 120.33 193.26 C 120.34 194.20 121.12 194.95 122.06 194.94 C 123.00 194.92 123.76 194.15 123.74 193.21 L 123.73 192.20 C 123.72 191.26 122.94 190.51 122.00 190.52 C 121.05 190.53 120.30 191.31 120.31 192.25 Z M 120.33 193.25 L 120.34 194.27 C 120.36 195.21 121.13 195.96 122.08 195.95 C 123.02 195.93 123.77 195.16 123.76 194.22 L 123.74 193.21 C 123.73 192.26 122.95 191.51 122.01 191.52 C 121.07 191.54 120.32 192.31 120.33 193.25 Z M 120.35 194.27 L 120.36 195.28 C 120.37 196.22 121.15 196.97 122.09 196.96 C 123.03 196.94 123.79 196.17 123.77 195.23 L 123.76 194.22 C 123.74 193.27 122.97 192.52 122.03 192.54 C 121.08 192.55 120.33 193.32 120.35 194.27 Z M 120.36 195.28 L 120.38 196.28 C 120.39 197.22 121.17 197.97 122.11 197.96 C 123.05 197.94 123.80 197.17 123.79 196.23 L 123.77 195.23 C 123.76 194.28 122.98 193.53 122.04 193.55 C 121.10 193.56 120.35 194.34 120.36 195.28 Z M 120.38 196.28 L 120.39 197.27 C 120.41 198.21 121.18 198.96 122.12 198.94 C 123.06 198.93 123.81 198.15 123.80 197.21 L 123.78 196.23 C 123.77 195.29 122.99 194.54 122.05 194.55 C 121.11 194.57 120.36 195.34 120.38 196.28 Z M 120.40 197.27 L 120.41 198.28 C 120.43 199.22 121.20 199.97 122.14 199.95 C 123.08 199.93 123.83 199.16 123.81 198.22 L 123.80 197.21 C 123.78 196.27 123.01 195.52 122.07 195.54 C 121.13 195.55 120.38 196.33 120.40 197.27 Z M 120.42 198.28 L 120.43 199.29 C 120.45 200.23 121.22 200.98 122.16 200.96 C 123.10 200.94 123.85 200.17 123.83 199.23 L 123.81 198.22 C 123.80 197.28 123.02 196.53 122.08 196.55 C 121.15 196.57 120.40 197.34 120.42 198.28 Z M 120.44 199.29 L 120.45 200.28 C 120.47 201.22 121.24 201.97 122.18 201.95 C 123.11 201.94 123.86 201.16 123.84 200.23 L 123.83 199.23 C 123.81 198.30 123.04 197.55 122.10 197.57 C 121.17 197.58 120.42 198.35 120.44 199.29 Z M 120.46 200.28 L 120.47 201.27 C 120.48 202.20 121.25 202.95 122.19 202.93 C 123.12 202.92 123.87 202.15 123.85 201.22 L 123.84 200.23 C 123.83 199.30 123.06 198.55 122.12 198.56 C 121.19 198.58 120.44 199.35 120.46 200.28 Z M 120.47 201.26 L 120.48 202.25 C 120.50 203.18 121.26 203.93 122.19 203.92 C 123.13 203.90 123.87 203.14 123.86 202.21 L 123.85 201.22 C 123.84 200.29 123.08 199.54 122.14 199.55 C 121.21 199.56 120.46 200.33 120.47 201.26 Z M 120.49 202.24 L 120.50 203.24 C 120.50 204.17 121.26 204.92 122.19 204.91 C 123.13 204.90 123.87 204.14 123.87 203.21 L 123.86 202.21 C 123.85 201.28 123.09 200.53 122.16 200.54 C 121.23 200.55 120.48 201.31 120.49 202.24 Z M 120.50 203.23 L 120.50 204.23 C 120.51 205.16 121.26 205.91 122.19 205.91 C 123.12 205.90 123.87 205.15 123.87 204.22 L 123.86 203.21 C 123.86 202.29 123.10 201.54 122.17 201.54 C 121.25 201.54 120.50 202.30 120.50 203.23 Z M 120.51 204.23 L 120.51 205.23 C 120.51 206.16 121.26 206.91 122.19 206.91 C 123.12 206.90 123.87 206.15 123.87 205.23 L 123.86 204.22 C 123.86 203.29 123.11 202.54 122.18 202.55 C 121.26 202.55 120.51 203.30 120.51 204.23 Z M 120.51 205.23 L 120.51 206.23 C 120.52 207.15 121.27 207.90 122.19 207.90 C 123.11 207.90 123.86 207.15 123.86 206.23 L 123.86 205.23 C 123.86 204.30 123.11 203.55 122.19 203.55 C 121.26 203.56 120.51 204.31 120.51 205.23 Z M 120.52 206.23 L 120.52 207.24 C 120.52 208.16 121.27 208.91 122.19 208.91 C 123.11 208.91 123.86 208.16 123.86 207.24 L 123.86 206.23 C 123.86 205.31 123.11 204.56 122.19 204.56 C 121.27 204.56 120.52 205.31 120.52 206.23 Z M 120.52 207.24 L 120.52 208.28 C 120.52 209.20 121.27 209.94 122.19 209.94 C 123.11 209.94 123.85 209.20 123.85 208.28 L 123.85 207.24 C 123.85 206.32 123.11 205.58 122.19 205.58 C 121.27 205.58 120.52 206.32 120.52 207.24 Z M 120.53 208.28 L 120.53 209.29 C 120.53 210.21 121.27 210.95 122.19 210.95 C 123.10 210.95 123.85 210.21 123.85 209.29 L 123.85 208.28 C 123.85 207.36 123.10 206.62 122.19 206.62 C 121.27 206.62 120.53 207.36 120.53 208.28 Z M 120.54 209.29 L 120.54 210.28 C 120.54 211.19 121.28 211.93 122.19 211.93 C 123.10 211.93 123.84 211.19 123.84 210.28 L 123.84 209.29 C 123.84 208.38 123.10 207.64 122.19 207.64 C 121.28 207.64 120.54 208.38 120.54 209.29 Z M 120.54 210.28 L 120.54 211.23 C 120.54 212.14 121.28 212.87 122.19 212.87 C 123.10 212.87 123.84 212.14 123.84 211.23 L 123.84 210.28 C 123.84 209.37 123.10 208.63 122.19 208.63 C 121.28 208.63 120.54 209.37 120.54 210.28 Z M 120.55 211.23 L 120.55 212.30 C 120.55 213.20 121.28 213.94 122.19 213.94 C 123.09 213.94 123.83 213.20 123.83 212.30 L 123.83 211.23 C 123.83 210.32 123.09 209.59 122.19 209.59 C 121.28 209.59 120.55 210.32 120.55 211.23 Z M 120.56 212.30 L 120.56 213.32 C 120.56 214.22 121.29 214.95 122.19 214.95 C 123.09 214.95 123.82 214.22 123.82 213.32 L 123.82 212.30 C 123.82 211.40 123.09 210.67 122.19 210.67 C 121.29 210.67 120.56 211.40 120.56 212.30 Z M 120.56 213.32 L 120.56 214.28 C 120.56 215.18 121.29 215.91 122.19 215.91 C 123.09 215.91 123.81 215.18 123.81 214.28 L 123.81 213.32 C 123.81 212.42 123.09 211.69 122.19 211.69 C 121.29 211.69 120.56 212.42 120.56 213.32 Z M 120.57 214.28 L 120.57 215.25 C 120.57 216.14 121.30 216.87 122.19 216.87 C 123.08 216.87 123.81 216.14 123.81 215.25 L 123.81 214.28 C 123.81 213.39 123.08 212.66 122.19 212.66 C 121.30 212.66 120.57 213.39 120.57 214.28 Z M 120.58 215.25 L 120.58 216.28 C 120.58 217.17 121.30 217.89 122.19 217.89 C 123.08 217.89 123.80 217.17 123.80 216.28 L 123.80 215.25 C 123.80 214.36 123.08 213.64 122.19 213.64 C 121.30 213.64 120.58 214.36 120.58 215.25 Z M 120.59 216.28 L 120.59 217.27 C 120.59 218.15 121.30 218.87 122.19 218.87 C 123.07 218.87 123.79 218.15 123.79 217.27 L 123.79 216.28 C 123.79 215.40 123.07 214.68 122.19 214.68 C 121.30 214.68 120.59 215.40 120.59 216.28 Z M 120.60 217.27 L 120.60 218.24 C 120.60 219.12 121.31 219.84 122.19 219.84 C 123.07 219.84 123.78 219.12 123.78 218.24 L 123.78 217.27 C 123.78 216.39 123.07 215.67 122.19 215.67 C 121.31 215.67 120.60 216.39 120.60 217.27 Z M 120.61 218.24 L 120.60 219.30 C 120.60 220.17 121.31 220.88 122.18 220.88 C 123.06 220.89 123.77 220.18 123.77 219.31 L 123.77 218.25 C 123.77 217.37 123.07 216.66 122.19 216.66 C 121.32 216.66 120.61 217.37 120.61 218.24 Z M 120.61 219.28 L 120.60 220.26 C 120.59 221.12 121.28 221.84 122.15 221.85 C 123.02 221.86 123.73 221.17 123.75 220.30 L 123.76 219.32 C 123.77 218.45 123.08 217.74 122.21 217.73 C 121.34 217.72 120.63 218.41 120.61 219.28 Z M 120.61 220.21 L 120.57 221.23 C 120.54 222.09 121.21 222.81 122.07 222.85 C 122.93 222.88 123.66 222.21 123.69 221.35 L 123.73 220.34 C 123.77 219.48 123.10 218.75 122.24 218.72 C 121.38 218.68 120.65 219.35 120.61 220.21 Z M 120.59 221.16 L 120.51 222.13 C 120.44 222.98 121.07 223.73 121.92 223.80 C 122.77 223.87 123.52 223.24 123.59 222.39 L 123.67 221.42 C 123.75 220.57 123.11 219.82 122.26 219.75 C 121.41 219.67 120.66 220.31 120.59 221.16 Z M 120.52 222.07 L 120.42 222.94 C 120.31 223.79 120.91 224.55 121.76 224.66 C 122.60 224.76 123.37 224.16 123.47 223.32 L 123.58 222.45 C 123.68 221.60 123.08 220.83 122.24 220.73 C 121.39 220.63 120.63 221.23 120.52 222.07 Z M 120.43 222.87 L 120.26 223.86 C 120.12 224.70 120.68 225.49 121.52 225.63 C 122.35 225.77 123.14 225.21 123.29 224.38 L 123.45 223.39 C 123.60 222.55 123.04 221.76 122.20 221.62 C 121.37 221.48 120.57 222.04 120.43 222.87 Z M 120.28 223.80 L 120.06 224.82 C 119.88 225.64 120.41 226.46 121.24 226.63 C 122.06 226.81 122.88 226.28 123.05 225.46 L 123.27 224.44 C 123.45 223.61 122.92 222.80 122.10 222.62 C 121.27 222.45 120.45 222.97 120.28 223.80 Z M 120.07 224.78 L 119.83 225.78 C 119.63 226.60 120.13 227.43 120.95 227.63 C 121.77 227.82 122.60 227.32 122.80 226.50 L 123.04 225.50 C 123.24 224.68 122.74 223.85 121.92 223.65 C 121.10 223.45 120.27 223.96 120.07 224.78 Z M 119.84 225.74 L 119.57 226.73 C 119.35 227.54 119.83 228.38 120.64 228.60 C 121.46 228.82 122.30 228.34 122.52 227.53 L 122.79 226.54 C 123.01 225.73 122.53 224.89 121.71 224.67 C 120.90 224.44 120.06 224.92 119.84 225.74 Z M 119.60 226.64 L 119.20 227.84 C 118.93 228.63 119.36 229.50 120.16 229.76 C 120.95 230.03 121.82 229.60 122.08 228.81 L 122.49 227.61 C 122.75 226.82 122.33 225.95 121.53 225.69 C 120.73 225.42 119.87 225.85 119.60 226.64 Z M 119.35 227.54 L 118.99 228.13 C 118.56 228.85 118.78 229.77 119.49 230.21 C 120.21 230.64 121.13 230.41 121.57 229.70 L 121.93 229.11 C 122.36 228.39 122.14 227.47 121.43 227.03 C 120.71 226.60 119.79 226.83 119.35 227.54 Z M 121.71 228.52 L 121.50 227.78 C 121.28 226.99 120.47 226.53 119.68 226.74 C 118.89 226.96 118.43 227.78 118.65 228.56 L 118.85 229.31 C 119.07 230.10 119.88 230.56 120.67 230.35 C 121.46 230.13 121.92 229.31 121.71 228.52 Z M 121.52 228.12 L 121.49 227.00 C 121.46 226.20 120.79 225.57 119.99 225.59 C 119.19 225.62 118.56 226.29 118.59 227.09 L 118.62 228.22 C 118.65 229.02 119.32 229.65 120.12 229.62 C 120.92 229.60 121.55 228.92 121.52 228.12 Z M 121.47 227.03 L 121.47 226.00 C 121.46 225.21 120.81 224.57 120.02 224.58 C 119.22 224.58 118.58 225.23 118.59 226.03 L 118.60 227.06 C 118.60 227.85 119.25 228.49 120.05 228.48 C 120.84 228.48 121.48 227.83 121.47 227.03 Z M 121.46 226.01 L 121.46 224.97 C 121.46 224.18 120.82 223.54 120.03 223.54 C 119.24 223.54 118.60 224.18 118.60 224.97 L 118.60 226.02 C 118.60 226.81 119.24 227.45 120.03 227.45 C 120.82 227.44 121.46 226.80 121.46 226.01 Z M 121.45 224.97 L 121.45 223.99 C 121.45 223.21 120.82 222.57 120.03 222.57 C 119.24 222.57 118.60 223.21 118.60 223.99 L 118.60 224.97 C 118.60 225.76 119.24 226.40 120.03 226.40 C 120.82 226.40 121.45 225.76 121.45 224.97 Z M 121.45 223.99 L 121.45 223.02 C 121.45 222.23 120.82 221.60 120.03 221.60 C 119.24 221.60 118.60 222.23 118.60 223.02 L 118.60 223.99 C 118.60 224.78 119.24 225.42 120.03 225.42 C 120.82 225.42 121.45 224.78 121.45 223.99 Z M 121.45 223.02 L 121.45 222.16 C 121.45 221.37 120.82 220.74 120.03 220.74 C 119.24 220.74 118.60 221.37 118.60 222.16 L 118.60 223.02 C 118.60 223.81 119.24 224.45 120.03 224.45 C 120.82 224.45 121.45 223.81 121.45 223.02 Z"
      fill="black"
      fill-rule="nonzero" /><path d="M 121.29 218.98 L 120.43 219.41 C 119.71 219.78 119.42 220.66 119.78 221.38 C 120.14 222.11 121.03 222.40 121.75 222.04 L 122.61 221.61 C 123.33 221.24 123.63 220.36 123.26 219.64 C 122.90 218.91 122.02 218.62 121.29 218.98 Z M 120.34 219.45 L 119.42 220.00 C 118.72 220.41 118.48 221.31 118.89 222.02 C 119.31 222.72 120.21 222.96 120.92 222.54 L 121.84 222.00 C 122.54 221.59 122.78 220.68 122.37 219.98 C 121.95 219.28 121.05 219.04 120.34 219.45 Z M 119.31 220.04 L 118.33 220.72 C 117.66 221.19 117.49 222.12 117.96 222.80 C 118.43 223.48 119.36 223.65 120.04 223.18 L 121.02 222.50 C 121.70 222.03 121.87 221.10 121.40 220.42 C 120.93 219.74 119.99 219.57 119.31 220.04 Z M 119.48 220.45 L 119.42 220.44 C 118.59 220.28 117.78 220.82 117.62 221.65 C 117.47 222.48 118.01 223.28 118.84 223.44 L 118.90 223.45 C 119.73 223.61 120.53 223.07 120.69 222.24 C 120.85 221.41 120.31 220.61 119.48 220.45 Z M 120.24 223.04 L 121.09 222.18 C 121.69 221.56 121.69 220.57 121.08 219.97 C 120.46 219.36 119.47 219.37 118.87 219.98 L 118.02 220.84 C 117.41 221.45 117.41 222.44 118.03 223.05 C 118.64 223.65 119.63 223.65 120.24 223.04 Z M 121.22 222.05 L 121.83 221.27 C 122.37 220.59 122.25 219.59 121.56 219.05 C 120.87 218.52 119.88 218.64 119.34 219.33 L 118.73 220.11 C 118.19 220.79 118.32 221.79 119.00 222.32 C 119.69 222.86 120.69 222.74 121.22 222.05 Z M 121.89 221.20 L 122.45 220.40 C 122.94 219.67 122.76 218.69 122.04 218.19 C 121.32 217.69 120.33 217.87 119.83 218.59 L 119.28 219.40 C 118.78 220.12 118.96 221.11 119.68 221.61 C 120.41 222.10 121.39 221.92 121.89 221.20 Z M 122.47 220.37 L 123.01 219.55 C 123.50 218.81 123.29 217.82 122.56 217.34 C 121.82 216.86 120.84 217.06 120.35 217.79 L 119.81 218.62 C 119.33 219.35 119.53 220.34 120.26 220.82 C 121.00 221.31 121.99 221.11 122.47 220.37 Z M 123.03 219.53 L 123.60 218.64 C 124.07 217.90 123.85 216.91 123.11 216.43 C 122.37 215.96 121.38 216.18 120.91 216.92 L 120.34 217.81 C 119.86 218.55 120.08 219.54 120.82 220.02 C 121.57 220.49 122.55 220.27 123.03 219.53 Z M 123.61 218.63 L 124.16 217.75 C 124.63 217.00 124.40 216.01 123.65 215.54 C 122.90 215.08 121.91 215.30 121.44 216.05 L 120.89 216.93 C 120.42 217.68 120.65 218.67 121.40 219.14 C 122.15 219.61 123.14 219.38 123.61 218.63 Z M 124.17 217.74 L 124.67 216.92 C 125.13 216.17 124.90 215.18 124.14 214.71 C 123.39 214.25 122.40 214.49 121.93 215.24 L 121.43 216.06 C 120.97 216.82 121.20 217.81 121.96 218.27 C 122.72 218.73 123.70 218.50 124.17 217.74 Z M 124.68 216.91 L 125.22 216.00 C 125.68 215.24 125.43 214.25 124.67 213.79 C 123.90 213.34 122.92 213.59 122.46 214.35 L 121.92 215.26 C 121.47 216.02 121.72 217.01 122.48 217.46 C 123.24 217.92 124.23 217.67 124.68 216.91 Z M 125.25 215.97 L 125.70 215.16 C 126.14 214.38 125.86 213.40 125.09 212.96 C 124.31 212.53 123.33 212.80 122.90 213.58 L 122.44 214.39 C 122.00 215.16 122.28 216.14 123.05 216.58 C 123.83 217.02 124.81 216.74 125.25 215.97 Z M 125.72 215.12 L 126.19 214.24 C 126.60 213.46 126.30 212.48 125.52 212.07 C 124.73 211.65 123.75 211.95 123.34 212.74 L 122.87 213.61 C 122.46 214.40 122.76 215.37 123.55 215.79 C 124.33 216.21 125.31 215.91 125.72 215.12 Z M 126.21 214.21 L 126.65 213.33 C 127.05 212.53 126.72 211.56 125.93 211.16 C 125.13 210.77 124.16 211.09 123.76 211.88 L 123.32 212.77 C 122.92 213.56 123.24 214.53 124.04 214.93 C 124.84 215.33 125.81 215.01 126.21 214.21 Z M 126.65 213.32 L 127.10 212.42 C 127.49 211.62 127.16 210.65 126.36 210.25 C 125.56 209.86 124.59 210.19 124.20 210.99 L 123.75 211.89 C 123.36 212.70 123.69 213.66 124.49 214.06 C 125.29 214.45 126.26 214.12 126.65 213.32 Z M 127.09 212.43 L 127.54 211.54 C 127.94 210.75 127.62 209.77 126.82 209.37 C 126.02 208.97 125.05 209.29 124.65 210.09 L 124.20 210.98 C 123.80 211.78 124.12 212.75 124.92 213.15 C 125.72 213.55 126.69 213.23 127.09 212.43 Z M 127.54 211.55 L 127.99 210.66 C 128.39 209.87 128.07 208.89 127.28 208.49 C 126.48 208.08 125.50 208.40 125.10 209.20 L 124.65 210.09 C 124.24 210.88 124.56 211.86 125.36 212.26 C 126.16 212.67 127.13 212.35 127.54 211.55 Z M 128.00 210.65 L 128.45 209.73 C 128.85 208.93 128.52 207.96 127.72 207.56 C 126.92 207.16 125.94 207.49 125.54 208.29 L 125.09 209.21 C 124.69 210.01 125.02 210.99 125.82 211.38 C 126.63 211.78 127.60 211.45 128.00 210.65 Z M 128.46 209.72 L 128.88 208.85 C 129.27 208.04 128.92 207.07 128.12 206.68 C 127.31 206.30 126.34 206.64 125.95 207.45 L 125.53 208.31 C 125.15 209.12 125.49 210.09 126.29 210.48 C 127.10 210.87 128.07 210.53 128.46 209.72 Z M 128.88 208.85 L 129.32 207.93 C 129.71 207.12 129.36 206.15 128.55 205.76 C 127.74 205.37 126.77 205.72 126.39 206.53 L 125.95 207.45 C 125.56 208.26 125.90 209.23 126.71 209.61 C 127.52 210.00 128.49 209.66 128.88 208.85 Z M 129.32 207.93 L 129.76 207.02 C 130.15 206.21 129.81 205.24 129.01 204.85 C 128.20 204.46 127.23 204.79 126.83 205.60 L 126.39 206.52 C 126.00 207.33 126.34 208.30 127.14 208.69 C 127.95 209.08 128.93 208.74 129.32 207.93 Z M 129.76 207.03 L 130.20 206.14 C 130.59 205.33 130.26 204.36 129.46 203.96 C 128.65 203.56 127.67 203.89 127.27 204.70 L 126.84 205.59 C 126.44 206.40 126.77 207.37 127.58 207.77 C 128.38 208.17 129.36 207.84 129.76 207.03 Z M 130.20 206.15 L 130.65 205.24 C 131.05 204.43 130.72 203.45 129.91 203.05 C 129.10 202.65 128.12 202.98 127.72 203.79 L 127.27 204.70 C 126.87 205.50 127.20 206.48 128.01 206.88 C 128.82 207.28 129.80 206.95 130.20 206.15 Z M 130.65 205.24 L 131.10 204.33 C 131.50 203.52 131.17 202.54 130.36 202.14 C 129.55 201.74 128.57 202.07 128.17 202.88 L 127.72 203.79 C 127.32 204.60 127.65 205.58 128.46 205.98 C 129.27 206.38 130.25 206.04 130.65 205.24 Z M 131.10 204.33 L 131.54 203.44 C 131.94 202.63 131.60 201.65 130.79 201.25 C 129.98 200.85 129.00 201.19 128.60 202.00 L 128.16 202.88 C 127.76 203.70 128.10 204.68 128.91 205.08 C 129.72 205.48 130.70 205.14 131.10 204.33 Z M 131.54 203.45 L 131.98 202.56 C 132.39 201.75 132.05 200.76 131.24 200.36 C 130.43 199.95 129.44 200.29 129.04 201.10 L 128.60 201.99 C 128.19 202.80 128.53 203.79 129.34 204.19 C 130.15 204.60 131.14 204.26 131.54 203.45 Z M 131.98 202.57 L 132.44 201.67 C 132.85 200.86 132.53 199.87 131.71 199.45 C 130.90 199.04 129.91 199.37 129.50 200.18 L 129.04 201.08 C 128.63 201.89 128.96 202.89 129.77 203.30 C 130.58 203.71 131.57 203.38 131.98 202.57 Z M 132.43 201.69 L 132.88 200.82 C 133.31 200.01 132.99 199.02 132.19 198.60 C 131.38 198.17 130.38 198.49 129.96 199.29 L 129.51 200.16 C 129.09 200.97 129.40 201.96 130.21 202.38 C 131.01 202.81 132.01 202.49 132.43 201.69 Z M 132.88 200.84 L 133.35 199.96 C 133.79 199.16 133.49 198.16 132.68 197.72 C 131.88 197.29 130.88 197.59 130.44 198.39 L 129.97 199.27 C 129.53 200.08 129.83 201.08 130.64 201.51 C 131.44 201.95 132.44 201.65 132.88 200.84 Z M 133.34 199.99 L 133.84 199.10 C 134.29 198.30 134.00 197.29 133.20 196.84 C 132.40 196.40 131.40 196.68 130.95 197.48 L 130.45 198.37 C 130.01 199.17 130.29 200.18 131.09 200.62 C 131.89 201.07 132.90 200.78 133.34 199.99 Z M 133.83 199.12 L 134.34 198.25 C 134.80 197.46 134.53 196.44 133.73 195.98 C 132.94 195.52 131.93 195.79 131.47 196.58 L 130.96 197.46 C 130.50 198.25 130.77 199.26 131.56 199.72 C 132.35 200.19 133.37 199.92 133.83 199.12 Z M 134.32 198.28 L 134.84 197.43 C 135.31 196.64 135.06 195.62 134.28 195.14 C 133.49 194.67 132.47 194.92 131.99 195.71 L 131.48 196.56 C 131.00 197.34 131.26 198.37 132.04 198.84 C 132.83 199.32 133.85 199.06 134.32 198.28 Z M 134.83 197.45 L 135.36 196.60 C 135.85 195.83 135.61 194.80 134.84 194.31 C 134.06 193.82 133.03 194.05 132.54 194.83 L 132.01 195.68 C 131.52 196.46 131.75 197.48 132.53 197.97 C 133.31 198.46 134.34 198.23 134.83 197.45 Z M 135.34 196.63 L 135.89 195.79 C 136.40 195.02 136.18 193.99 135.41 193.48 C 134.64 192.98 133.61 193.20 133.11 193.97 L 132.56 194.81 C 132.05 195.58 132.27 196.61 133.04 197.11 C 133.81 197.62 134.84 197.40 135.34 196.63 Z M 135.88 195.82 L 136.44 194.99 C 136.96 194.23 136.76 193.19 136.00 192.67 C 135.24 192.16 134.20 192.35 133.68 193.11 L 133.12 193.94 C 132.60 194.70 132.80 195.74 133.56 196.26 C 134.32 196.77 135.36 196.58 135.88 195.82 Z M 136.42 195.02 L 137.00 194.20 C 137.53 193.45 137.35 192.40 136.60 191.87 C 135.85 191.34 134.81 191.52 134.27 192.27 L 133.70 193.09 C 133.17 193.84 133.34 194.88 134.10 195.42 C 134.85 195.95 135.89 195.77 136.42 195.02 Z M 136.99 194.22 L 137.58 193.42 C 138.12 192.67 137.96 191.62 137.22 191.08 C 136.47 190.53 135.43 190.70 134.88 191.44 L 134.29 192.25 C 133.74 192.99 133.91 194.04 134.65 194.58 C 135.39 195.13 136.44 194.97 136.99 194.22 Z M 137.56 193.44 L 138.16 192.64 C 138.72 191.91 138.58 190.86 137.84 190.30 C 137.10 189.74 136.05 189.89 135.50 190.62 L 134.89 191.42 C 134.34 192.15 134.48 193.20 135.22 193.76 C 135.95 194.32 137.00 194.18 137.56 193.44 Z M 138.15 192.66 L 138.76 191.89 C 139.33 191.16 139.20 190.11 138.47 189.54 C 137.74 188.97 136.68 189.10 136.11 189.83 L 135.51 190.60 C 134.94 191.33 135.07 192.39 135.80 192.95 C 136.53 193.52 137.58 193.39 138.15 192.66 Z M 138.75 191.90 L 139.37 191.12 C 139.94 190.40 139.82 189.34 139.10 188.77 C 138.37 188.19 137.32 188.31 136.74 189.04 L 136.12 189.82 C 135.55 190.54 135.67 191.60 136.39 192.17 C 137.12 192.75 138.17 192.63 138.75 191.90 Z M 139.36 191.13 L 140.00 190.34 C 140.58 189.61 140.46 188.56 139.73 187.98 C 139.01 187.40 137.95 187.52 137.37 188.24 L 136.74 189.03 C 136.16 189.76 136.28 190.81 137.01 191.39 C 137.73 191.97 138.79 191.85 139.36 191.13 Z M 140.00 190.34 L 140.63 189.54 C 141.21 188.81 141.09 187.76 140.36 187.18 C 139.64 186.60 138.58 186.72 138.00 187.45 L 137.37 188.24 C 136.79 188.97 136.91 190.03 137.64 190.60 C 138.37 191.18 139.42 191.06 140.00 190.34 Z M 140.64 189.54 L 141.27 188.74 C 141.84 188.01 141.72 186.95 140.99 186.38 C 140.26 185.80 139.21 185.93 138.63 186.65 L 138.00 187.45 C 137.42 188.18 137.55 189.24 138.28 189.81 C 139.00 190.39 140.06 190.27 140.64 189.54 Z M 141.27 188.74 L 141.90 187.95 C 142.47 187.22 142.35 186.16 141.62 185.59 C 140.89 185.01 139.83 185.13 139.26 185.86 L 138.63 186.65 C 138.05 187.38 138.17 188.44 138.90 189.02 C 139.63 189.59 140.69 189.47 141.27 188.74 Z M 141.89 187.96 L 142.51 187.19 C 143.09 186.46 142.97 185.40 142.25 184.82 C 141.52 184.24 140.46 184.35 139.88 185.08 L 139.26 185.85 C 138.68 186.58 138.80 187.64 139.52 188.22 C 140.25 188.80 141.31 188.68 141.89 187.96 Z M 142.50 187.20 L 143.14 186.41 C 143.73 185.69 143.63 184.63 142.90 184.04 C 142.18 183.45 141.12 183.56 140.53 184.28 L 139.89 185.07 C 139.30 185.79 139.41 186.85 140.13 187.44 C 140.85 188.03 141.91 187.92 142.50 187.20 Z M 143.13 186.43 L 143.78 185.65 C 144.38 184.93 144.29 183.87 143.57 183.27 C 142.85 182.67 141.79 182.77 141.19 183.48 L 140.54 184.26 C 139.94 184.98 140.04 186.04 140.76 186.64 C 141.47 187.24 142.54 187.14 143.13 186.43 Z M 143.78 185.66 L 144.41 184.91 C 145.01 184.20 144.92 183.13 144.21 182.53 C 143.50 181.93 142.44 182.01 141.83 182.73 L 141.20 183.47 C 140.60 184.19 140.69 185.25 141.40 185.85 C 142.11 186.46 143.17 186.37 143.78 185.66 Z M 144.41 184.91 L 145.04 184.17 C 145.64 183.46 145.56 182.40 144.84 181.79 C 144.13 181.19 143.07 181.27 142.46 181.98 L 141.84 182.72 C 141.23 183.43 141.32 184.50 142.03 185.10 C 142.74 185.71 143.80 185.62 144.41 184.91 Z M 145.04 184.17 L 145.69 183.40 C 146.29 182.69 146.20 181.63 145.49 181.02 C 144.78 180.42 143.71 180.51 143.11 181.22 L 142.46 181.99 C 141.86 182.70 141.95 183.76 142.66 184.37 C 143.37 184.97 144.44 184.88 145.04 184.17 Z M 145.69 183.40 L 146.34 182.63 C 146.94 181.92 146.84 180.85 146.13 180.25 C 145.41 179.65 144.35 179.74 143.75 180.46 L 143.10 181.23 C 142.50 181.94 142.60 183.01 143.31 183.61 C 144.03 184.21 145.09 184.11 145.69 183.40 Z M 146.35 182.62 L 146.98 181.86 C 147.58 181.14 147.48 180.07 146.76 179.47 C 146.04 178.88 144.97 178.98 144.37 179.70 L 143.74 180.47 C 143.14 181.19 143.24 182.25 143.96 182.85 C 144.68 183.44 145.75 183.34 146.35 182.62 Z M 146.99 181.84 L 147.63 181.06 C 148.22 180.34 148.11 179.27 147.38 178.68 C 146.66 178.09 145.59 178.20 145.00 178.93 L 144.36 179.71 C 143.78 180.43 143.89 181.50 144.61 182.09 C 145.33 182.68 146.40 182.57 146.99 181.84 Z M 147.63 181.06 L 148.26 180.27 C 148.85 179.55 148.73 178.48 148.00 177.89 C 147.27 177.31 146.21 177.42 145.62 178.15 L 145.00 178.93 C 144.41 179.66 144.52 180.73 145.25 181.31 C 145.98 181.90 147.05 181.78 147.63 181.06 Z M 148.26 180.27 L 148.88 179.50 C 149.47 178.77 149.35 177.71 148.63 177.12 C 147.90 176.53 146.83 176.65 146.25 177.38 L 145.62 178.15 C 145.04 178.88 145.15 179.95 145.88 180.53 C 146.61 181.12 147.68 181.00 148.26 180.27 Z M 148.88 179.51 L 149.51 178.73 C 150.10 178.00 149.99 176.94 149.27 176.35 C 148.54 175.76 147.48 175.87 146.89 176.59 L 146.25 177.37 C 145.66 178.10 145.77 179.16 146.50 179.75 C 147.22 180.34 148.29 180.23 148.88 179.51 Z M 149.51 178.73 L 150.15 177.95 C 150.74 177.23 150.63 176.16 149.91 175.57 C 149.19 174.98 148.12 175.08 147.53 175.81 L 146.89 176.59 C 146.30 177.31 146.40 178.37 147.13 178.97 C 147.85 179.56 148.91 179.45 149.51 178.73 Z M 150.15 177.95 L 150.78 177.18 C 151.37 176.46 151.26 175.39 150.54 174.80 C 149.81 174.21 148.75 174.32 148.16 175.04 L 147.53 175.81 C 146.94 176.53 147.05 177.60 147.77 178.19 C 148.49 178.78 149.56 178.67 150.15 177.95 Z M 150.79 177.17 L 151.40 176.40 C 151.99 175.67 151.87 174.61 151.14 174.02 C 150.42 173.44 149.35 173.55 148.77 174.28 L 148.15 175.05 C 147.56 175.78 147.68 176.85 148.41 177.43 C 149.14 178.01 150.20 177.90 150.79 177.17 Z M 151.41 176.38 L 152.03 175.60 C 152.61 174.87 152.48 173.81 151.75 173.23 C 151.01 172.65 149.95 172.78 149.37 173.51 L 148.76 174.30 C 148.18 175.03 148.31 176.09 149.04 176.67 C 149.77 177.24 150.84 177.12 151.41 176.38 Z M 152.03 175.60 L 152.65 174.81 C 153.22 174.08 153.09 173.02 152.36 172.44 C 151.62 171.87 150.56 172.00 149.99 172.73 L 149.37 173.52 C 148.80 174.25 148.93 175.31 149.66 175.89 C 150.39 176.46 151.46 176.33 152.03 175.60 Z M 152.64 174.82 L 153.27 174.02 C 153.85 173.29 153.72 172.23 152.99 171.65 C 152.27 171.07 151.20 171.20 150.63 171.93 L 150.00 172.73 C 149.42 173.46 149.54 174.52 150.27 175.09 C 151.00 175.67 152.06 175.55 152.64 174.82 Z M 153.26 174.03 L 153.90 173.23 C 154.49 172.51 154.37 171.45 153.65 170.86 C 152.93 170.28 151.87 170.39 151.28 171.12 L 150.64 171.92 C 150.05 172.64 150.17 173.70 150.89 174.28 C 151.61 174.87 152.68 174.76 153.26 174.03 Z M 153.89 173.25 L 154.52 172.48 C 155.11 171.77 155.01 170.71 154.30 170.11 C 153.58 169.52 152.52 169.62 151.93 170.34 L 151.30 171.10 C 150.70 171.82 150.81 172.88 151.52 173.47 C 152.24 174.06 153.30 173.96 153.89 173.25 Z M 154.50 172.50 L 155.16 171.73 C 155.77 171.02 155.68 169.96 154.98 169.36 C 154.27 168.76 153.21 168.84 152.61 169.54 L 151.95 170.32 C 151.34 171.03 151.43 172.09 152.13 172.69 C 152.84 173.29 153.90 173.21 154.50 172.50 Z M 155.13 171.75 L 155.81 171.00 C 156.43 170.31 156.37 169.25 155.68 168.64 C 154.99 168.02 153.93 168.08 153.31 168.77 L 152.64 169.52 C 152.02 170.21 152.08 171.27 152.77 171.88 C 153.46 172.50 154.52 172.44 155.13 171.75 Z M 155.77 171.04 L 156.42 170.35 C 157.06 169.68 157.03 168.63 156.36 167.99 C 155.69 167.35 154.64 167.38 154.00 168.05 L 153.35 168.73 C 152.71 169.40 152.74 170.46 153.41 171.10 C 154.08 171.73 155.13 171.71 155.77 171.04 Z M 156.38 170.39 L 157.10 169.68 C 157.76 169.03 157.77 167.97 157.12 167.32 C 156.47 166.66 155.42 166.65 154.76 167.30 L 154.04 168.01 C 153.38 168.66 153.38 169.71 154.02 170.37 C 154.67 171.03 155.73 171.03 156.38 170.39 Z M 157.06 169.71 L 157.79 169.04 C 158.46 168.41 158.50 167.36 157.87 166.69 C 157.25 166.02 156.20 165.98 155.52 166.60 L 154.80 167.27 C 154.13 167.89 154.09 168.95 154.71 169.62 C 155.34 170.29 156.39 170.33 157.06 169.71 Z M 157.75 169.07 L 158.51 168.40 C 159.20 167.79 159.27 166.74 158.66 166.06 C 158.05 165.37 157.01 165.30 156.32 165.91 L 155.56 166.57 C 154.87 167.18 154.80 168.23 155.41 168.92 C 156.01 169.60 157.06 169.67 157.75 169.07 Z M 158.47 168.43 L 159.23 167.79 C 159.94 167.21 160.03 166.16 159.45 165.46 C 158.86 164.75 157.82 164.66 157.11 165.24 L 156.35 165.88 C 155.65 166.46 155.55 167.51 156.14 168.21 C 156.72 168.92 157.77 169.01 158.47 168.43 Z M 159.20 167.82 L 159.99 167.20 C 160.71 166.64 160.84 165.59 160.27 164.87 C 159.71 164.15 158.66 164.03 157.94 164.59 L 157.15 165.21 C 156.43 165.78 156.30 166.82 156.87 167.54 C 157.44 168.26 158.48 168.39 159.20 167.82 Z M 159.96 167.23 L 160.75 166.63 C 161.49 166.09 161.64 165.05 161.09 164.31 C 160.54 163.58 159.50 163.43 158.77 163.98 L 157.98 164.57 C 157.24 165.11 157.09 166.15 157.64 166.89 C 158.18 167.62 159.22 167.77 159.96 167.23 Z M 160.73 166.65 L 161.52 166.08 C 162.27 165.55 162.44 164.51 161.90 163.77 C 161.37 163.02 160.33 162.85 159.59 163.39 L 158.79 163.96 C 158.05 164.49 157.88 165.53 158.41 166.27 C 158.95 167.02 159.98 167.19 160.73 166.65 Z M 161.51 166.09 L 162.35 165.50 C 163.09 164.98 163.28 163.94 162.75 163.19 C 162.22 162.44 161.19 162.26 160.44 162.79 L 159.60 163.38 C 158.85 163.90 158.67 164.94 159.20 165.69 C 159.73 166.44 160.76 166.62 161.51 166.09 Z M 162.34 165.51 L 163.17 164.93 C 163.92 164.41 164.10 163.38 163.58 162.62 C 163.06 161.87 162.02 161.69 161.27 162.21 L 160.44 162.79 C 159.69 163.31 159.51 164.34 160.03 165.10 C 160.55 165.85 161.59 166.03 162.34 165.51 Z M 163.15 164.95 L 163.97 164.39 C 164.73 163.88 164.93 162.84 164.42 162.08 C 163.90 161.32 162.87 161.13 162.11 161.64 L 161.29 162.20 C 160.53 162.71 160.33 163.74 160.84 164.50 C 161.36 165.26 162.39 165.46 163.15 164.95 Z M 163.94 164.41 L 164.80 163.86 C 165.57 163.36 165.80 162.33 165.30 161.56 C 164.80 160.79 163.77 160.57 163.00 161.06 L 162.14 161.62 C 161.37 162.11 161.15 163.14 161.65 163.91 C 162.14 164.68 163.17 164.91 163.94 164.41 Z M 164.82 163.85 L 165.63 163.31 C 166.40 162.80 166.61 161.77 166.10 161.01 C 165.60 160.24 164.56 160.03 163.80 160.54 L 162.99 161.07 C 162.22 161.58 162.01 162.61 162.52 163.38 C 163.02 164.14 164.05 164.35 164.82 163.85 Z M 165.70 163.26 L 166.50 162.67 C 167.24 162.13 167.40 161.09 166.86 160.35 C 166.31 159.61 165.27 159.45 164.53 159.99 L 163.73 160.58 C 162.99 161.13 162.83 162.17 163.38 162.91 C 163.92 163.65 164.96 163.81 165.70 163.26 Z M 166.54 162.64 L 167.33 162.02 C 168.06 161.46 168.19 160.41 167.62 159.69 C 167.05 158.97 166.01 158.84 165.29 159.40 L 164.49 160.02 C 163.77 160.59 163.64 161.63 164.21 162.36 C 164.77 163.08 165.82 163.21 166.54 162.64 Z M 167.35 162.01 L 168.13 161.38 C 168.85 160.81 168.97 159.76 168.39 159.05 C 167.82 158.33 166.77 158.21 166.06 158.79 L 165.27 159.41 C 164.55 159.99 164.44 161.04 165.01 161.75 C 165.59 162.47 166.63 162.59 167.35 162.01 Z M 168.16 161.36 L 168.93 160.72 C 169.64 160.13 169.73 159.08 169.14 158.38 C 168.55 157.67 167.50 157.58 166.80 158.17 L 166.03 158.81 C 165.32 159.40 165.23 160.45 165.82 161.15 C 166.41 161.86 167.46 161.95 168.16 161.36 Z M 168.97 160.69 L 169.72 160.03 C 170.40 159.42 170.47 158.37 169.86 157.68 C 169.25 156.99 168.20 156.92 167.51 157.53 L 166.76 158.20 C 166.07 158.80 166.01 159.86 166.62 160.55 C 167.22 161.23 168.28 161.30 168.97 160.69 Z M 169.74 160.01 L 170.42 159.39 C 171.10 158.77 171.15 157.71 170.53 157.03 C 169.90 156.36 168.85 156.31 168.17 156.93 L 167.49 157.55 C 166.81 158.17 166.76 159.23 167.38 159.90 C 168.00 160.58 169.06 160.63 169.74 160.01 Z M 170.42 159.38 L 171.16 158.71 C 171.84 158.08 171.88 157.03 171.26 156.35 C 170.64 155.68 169.58 155.63 168.90 156.25 L 168.17 156.93 C 167.49 157.55 167.45 158.61 168.07 159.29 C 168.69 159.96 169.75 160.01 170.42 159.38 Z M 171.15 158.71 L 171.91 158.03 C 172.59 157.41 172.64 156.36 172.02 155.67 C 171.40 154.99 170.34 154.94 169.66 155.56 L 168.91 156.25 C 168.23 156.87 168.18 157.92 168.80 158.60 C 169.42 159.28 170.47 159.33 171.15 158.71 Z M 171.89 158.04 L 172.65 157.36 C 173.34 156.75 173.40 155.70 172.78 155.01 C 172.17 154.32 171.12 154.26 170.43 154.88 L 169.67 155.55 C 168.99 156.17 168.93 157.22 169.54 157.91 C 170.15 158.59 171.21 158.65 171.89 158.04 Z M 172.63 157.38 L 173.41 156.70 C 174.11 156.10 174.19 155.05 173.58 154.35 C 172.98 153.65 171.93 153.58 171.23 154.18 L 170.45 154.86 C 169.75 155.46 169.68 156.52 170.28 157.21 C 170.88 157.91 171.94 157.98 172.63 157.38 Z M 173.38 156.73 L 174.16 156.09 C 174.87 155.51 174.98 154.46 174.40 153.75 C 173.81 153.03 172.76 152.93 172.05 153.51 L 171.27 154.15 C 170.55 154.74 170.45 155.79 171.03 156.50 C 171.62 157.21 172.67 157.32 173.38 156.73 Z M 174.09 156.14 L 174.88 155.56 C 175.62 155.02 175.78 153.97 175.24 153.23 C 174.69 152.49 173.64 152.33 172.90 152.88 L 172.12 153.46 C 171.37 154.01 171.22 155.05 171.76 155.79 C 172.31 156.53 173.35 156.69 174.09 156.14 Z M 174.79 155.63 L 175.64 155.08 C 176.42 154.59 176.65 153.56 176.15 152.78 C 175.65 152.00 174.62 151.78 173.85 152.27 L 172.99 152.82 C 172.22 153.31 171.99 154.34 172.49 155.12 C 172.98 155.90 174.01 156.12 174.79 155.63 Z M 175.55 155.14 L 176.46 154.63 C 177.27 154.19 177.56 153.17 177.11 152.37 C 176.67 151.56 175.65 151.27 174.85 151.71 L 173.94 152.22 C 173.13 152.66 172.84 153.68 173.29 154.48 C 173.73 155.29 174.75 155.58 175.55 155.14 Z M 176.37 154.68 L 177.29 154.24 C 178.12 153.85 178.48 152.85 178.08 152.02 C 177.68 151.19 176.69 150.83 175.86 151.23 L 174.94 151.67 C 174.11 152.06 173.75 153.06 174.15 153.89 C 174.54 154.72 175.54 155.08 176.37 154.68 Z M 177.15 154.30 L 178.09 153.95 C 178.96 153.63 179.40 152.67 179.08 151.81 C 178.76 150.95 177.80 150.51 176.93 150.82 L 176.00 151.17 C 175.13 151.49 174.69 152.45 175.01 153.32 C 175.33 154.18 176.29 154.62 177.15 154.30 Z M 177.84 154.03 L 178.82 153.83 C 179.72 153.65 180.31 152.78 180.13 151.87 C 179.95 150.97 179.08 150.38 178.17 150.56 L 177.19 150.75 C 176.29 150.93 175.70 151.81 175.88 152.71 C 176.05 153.62 176.93 154.20 177.84 154.03 Z M 178.59 153.86 L 179.51 153.81 C 180.43 153.76 181.14 152.98 181.09 152.06 C 181.04 151.14 180.25 150.43 179.33 150.48 L 178.41 150.53 C 177.49 150.58 176.78 151.37 176.83 152.29 C 176.88 153.21 177.67 153.91 178.59 153.86 Z M 179.42 153.81 L 180.42 153.82 C 181.34 153.82 182.09 153.07 182.09 152.15 C 182.09 151.23 181.34 150.48 180.42 150.48 L 179.42 150.48 C 178.50 150.48 177.75 151.22 177.75 152.14 C 177.75 153.07 178.50 153.81 179.42 153.81 Z M 180.33 153.81 L 181.31 153.86 C 182.23 153.91 183.01 153.20 183.06 152.28 C 183.11 151.36 182.40 150.58 181.48 150.53 L 180.51 150.48 C 179.59 150.43 178.80 151.14 178.75 152.06 C 178.71 152.98 179.41 153.77 180.33 153.81 Z M 181.12 153.84 L 182.11 154.01 C 183.02 154.16 183.88 153.55 184.03 152.64 C 184.19 151.74 183.57 150.87 182.67 150.72 L 181.67 150.55 C 180.77 150.40 179.90 151.01 179.75 151.92 C 179.60 152.83 180.21 153.69 181.12 153.84 Z M 181.84 153.94 L 182.74 154.25 C 183.61 154.56 184.56 154.09 184.86 153.22 C 185.16 152.35 184.70 151.40 183.83 151.10 L 182.93 150.79 C 182.06 150.49 181.11 150.95 180.81 151.82 C 180.51 152.69 180.97 153.64 181.84 153.94 Z M 182.59 154.19 L 183.49 154.61 C 184.33 154.99 185.32 154.62 185.71 153.79 C 186.09 152.95 185.72 151.96 184.88 151.58 L 183.98 151.16 C 183.14 150.78 182.15 151.15 181.77 151.98 C 181.38 152.82 181.75 153.81 182.59 154.19 Z M 183.47 154.59 L 184.44 155.06 C 185.27 155.46 186.27 155.11 186.67 154.28 C 187.06 153.45 186.72 152.46 185.89 152.06 L 184.91 151.59 C 184.08 151.19 183.09 151.54 182.69 152.37 C 182.29 153.20 182.64 154.20 183.47 154.59 Z M 184.47 155.07 L 185.42 155.51 C 186.25 155.89 187.24 155.52 187.62 154.69 C 188.01 153.85 187.64 152.86 186.80 152.48 L 185.86 152.05 C 185.02 151.66 184.03 152.03 183.65 152.87 C 183.27 153.70 183.63 154.69 184.47 155.07 Z M 185.44 155.52 L 186.37 155.92 C 187.21 156.29 188.19 155.90 188.56 155.06 C 188.93 154.22 188.54 153.24 187.70 152.87 L 186.77 152.47 C 185.93 152.10 184.95 152.49 184.58 153.33 C 184.22 154.17 184.60 155.15 185.44 155.52 Z M 186.41 155.93 L 187.35 156.32 C 188.20 156.66 189.17 156.26 189.51 155.41 C 189.86 154.56 189.45 153.59 188.60 153.24 L 187.66 152.86 C 186.81 152.51 185.84 152.92 185.50 153.77 C 185.15 154.62 185.56 155.59 186.41 155.93 Z M 187.37 156.32 L 188.30 156.68 C 189.15 157.01 190.11 156.60 190.44 155.75 C 190.77 154.90 190.36 153.94 189.51 153.61 L 188.58 153.25 C 187.73 152.91 186.77 153.33 186.44 154.18 C 186.11 155.02 186.52 155.98 187.37 156.32 Z M 188.21 156.62 L 189.05 157.02 C 189.87 157.41 190.84 157.06 191.22 156.25 C 191.61 155.43 191.26 154.46 190.45 154.07 L 189.60 153.67 C 188.79 153.29 187.82 153.63 187.43 154.45 C 187.05 155.26 187.39 156.23 188.21 156.62 Z M 188.75 156.79 L 189.52 157.41 C 190.21 157.97 191.21 157.86 191.77 157.17 C 192.32 156.48 192.21 155.47 191.52 154.92 L 190.75 154.30 C 190.07 153.75 189.06 153.86 188.51 154.55 C 187.95 155.23 188.06 156.24 188.75 156.79 Z M 189.14 156.85 L 189.56 157.70 C 189.94 158.47 190.86 158.78 191.63 158.40 C 192.40 158.02 192.71 157.10 192.33 156.33 L 191.91 155.48 C 191.53 154.71 190.60 154.40 189.84 154.78 C 189.07 155.16 188.76 156.09 189.14 156.85 Z M 189.49 157.31 L 189.70 158.32 C 189.86 159.12 190.63 159.64 191.44 159.48 C 192.24 159.32 192.76 158.54 192.60 157.74 L 192.39 156.73 C 192.23 155.93 191.45 155.41 190.65 155.57 C 189.85 155.73 189.33 156.51 189.49 157.31 Z M 189.72 158.25 L 189.74 158.35 C 189.86 159.14 190.60 159.67 191.38 159.55 C 192.17 159.43 192.70 158.70 192.58 157.91 L 192.57 157.81 C 192.45 157.03 191.71 156.49 190.93 156.61 C 190.14 156.73 189.60 157.46 189.72 158.25 Z"
      fill="black"
      fill-rule="nonzero" /><path d="M 155.06 180.20 L 154.74 178.92 C 154.55 178.11 153.74 177.62 152.93 177.81 C 152.13 178.01 151.63 178.82 151.83 179.63 L 152.14 180.91 C 152.33 181.72 153.14 182.21 153.95 182.02 C 154.76 181.82 155.25 181.01 155.06 180.20 Z M 154.84 179.06 L 154.75 178.41 C 154.64 177.55 153.85 176.94 152.99 177.06 C 152.13 177.18 151.52 177.97 151.64 178.83 L 151.73 179.48 C 151.85 180.34 152.64 180.94 153.50 180.83 C 154.36 180.71 154.96 179.92 154.84 179.06 Z M 151.83 179.50 L 152.23 180.11 C 152.71 180.86 153.72 181.08 154.47 180.60 C 155.23 180.11 155.44 179.11 154.96 178.35 L 154.56 177.74 C 154.08 176.98 153.07 176.77 152.32 177.25 C 151.56 177.74 151.35 178.74 151.83 179.50 Z M 152.10 179.94 L 152.63 181.05 C 153.02 181.87 154.01 182.22 154.83 181.83 C 155.65 181.44 156.01 180.45 155.61 179.63 L 155.09 178.52 C 154.69 177.70 153.71 177.34 152.88 177.74 C 152.06 178.13 151.71 179.12 152.10 179.94 Z M 152.60 181.04 L 153.01 181.93 C 153.40 182.76 154.39 183.13 155.23 182.74 C 156.06 182.36 156.43 181.37 156.04 180.53 L 155.63 179.64 C 155.25 178.80 154.26 178.44 153.42 178.82 C 152.58 179.21 152.22 180.20 152.60 181.04 Z M 153.01 181.92 L 153.40 182.79 C 153.79 183.63 154.78 184.00 155.62 183.62 C 156.46 183.24 156.83 182.24 156.45 181.40 L 156.05 180.53 C 155.67 179.69 154.67 179.32 153.83 179.71 C 152.99 180.09 152.62 181.08 153.01 181.92 Z M 153.40 182.79 L 153.82 183.71 C 154.20 184.55 155.19 184.92 156.04 184.54 C 156.88 184.16 157.25 183.16 156.87 182.32 L 156.45 181.41 C 156.07 180.56 155.08 180.19 154.23 180.57 C 153.39 180.95 153.02 181.95 153.40 182.79 Z M 153.81 183.70 L 154.22 184.62 C 154.60 185.46 155.59 185.84 156.44 185.46 C 157.28 185.09 157.66 184.09 157.29 183.25 L 156.88 182.33 C 156.50 181.48 155.50 181.10 154.66 181.48 C 153.81 181.86 153.43 182.85 153.81 183.70 Z M 154.22 184.62 L 154.62 185.53 C 155.00 186.38 156.00 186.76 156.84 186.38 C 157.69 186.00 158.07 185.01 157.69 184.16 L 157.29 183.25 C 156.91 182.40 155.92 182.02 155.07 182.40 C 154.22 182.77 153.84 183.77 154.22 184.62 Z M 154.63 185.54 L 155.05 186.46 C 155.44 187.31 156.44 187.68 157.28 187.29 C 158.13 186.90 158.50 185.90 158.11 185.06 L 157.69 184.14 C 157.30 183.30 156.30 182.93 155.46 183.31 C 154.61 183.70 154.24 184.70 154.63 185.54 Z M 155.06 186.48 L 155.47 187.36 C 155.87 188.20 156.88 188.56 157.72 188.16 C 158.56 187.77 158.92 186.76 158.52 185.92 L 158.10 185.04 C 157.70 184.20 156.70 183.84 155.86 184.24 C 155.02 184.64 154.66 185.64 155.06 186.48 Z M 155.48 187.37 L 155.92 188.29 C 156.32 189.13 157.33 189.49 158.17 189.09 C 159.00 188.68 159.36 187.68 158.96 186.84 L 158.52 185.92 C 158.12 185.08 157.11 184.72 156.27 185.12 C 155.43 185.52 155.08 186.53 155.48 187.37 Z M 155.92 188.29 L 156.34 189.18 C 156.74 190.02 157.74 190.38 158.58 189.98 C 159.42 189.58 159.78 188.58 159.38 187.73 L 158.96 186.84 C 158.56 186.00 157.56 185.65 156.72 186.04 C 155.88 186.44 155.52 187.45 155.92 188.29 Z M 156.34 189.18 L 156.76 190.08 C 157.16 190.92 158.17 191.28 159.01 190.88 C 159.85 190.49 160.21 189.48 159.81 188.64 L 159.38 187.74 C 158.99 186.90 157.98 186.54 157.14 186.93 C 156.30 187.33 155.94 188.34 156.34 189.18 Z M 156.77 190.08 L 157.21 191.01 C 157.61 191.85 158.61 192.21 159.45 191.81 C 160.29 191.41 160.65 190.41 160.25 189.56 L 159.81 188.64 C 159.41 187.80 158.41 187.44 157.56 187.84 C 156.72 188.24 156.37 189.24 156.77 190.08 Z M 157.21 191.02 L 157.63 191.90 C 158.03 192.73 159.04 193.09 159.88 192.68 C 160.72 192.28 161.07 191.27 160.67 190.43 L 160.25 189.56 C 159.84 188.72 158.84 188.36 158.00 188.77 C 157.16 189.17 156.81 190.18 157.21 191.02 Z M 157.63 191.90 L 158.07 192.79 C 158.47 193.63 159.48 193.98 160.32 193.57 C 161.16 193.17 161.51 192.16 161.10 191.32 L 160.67 190.43 C 160.26 189.59 159.25 189.24 158.41 189.65 C 157.57 190.05 157.22 191.06 157.63 191.90 Z M 158.06 192.80 L 158.52 193.72 C 158.93 194.56 159.94 194.91 160.78 194.50 C 161.62 194.09 161.96 193.08 161.55 192.24 L 161.10 191.31 C 160.69 190.48 159.68 190.13 158.84 190.54 C 158.00 190.95 157.66 191.96 158.06 192.80 Z M 158.51 193.72 L 158.93 194.58 C 159.34 195.42 160.36 195.77 161.20 195.36 C 162.04 194.95 162.38 193.94 161.97 193.10 L 161.56 192.24 C 161.15 191.40 160.13 191.05 159.29 191.46 C 158.45 191.87 158.10 192.88 158.51 193.72 Z M 158.93 194.58 L 159.36 195.46 C 159.77 196.30 160.79 196.65 161.63 196.24 C 162.47 195.83 162.82 194.81 162.41 193.97 L 161.98 193.09 C 161.56 192.25 160.55 191.90 159.71 192.32 C 158.87 192.73 158.52 193.74 158.93 194.58 Z M 159.36 195.47 L 159.82 196.39 C 160.23 197.23 161.25 197.57 162.09 197.16 C 162.93 196.74 163.27 195.73 162.86 194.89 L 162.41 193.97 C 161.99 193.13 160.97 192.78 160.13 193.19 C 159.29 193.61 158.95 194.63 159.36 195.47 Z M 159.82 196.40 L 160.28 197.32 C 160.70 198.15 161.72 198.50 162.55 198.08 C 163.39 197.66 163.74 196.64 163.32 195.80 L 162.86 194.88 C 162.44 194.04 161.42 193.70 160.58 194.12 C 159.74 194.54 159.40 195.56 159.82 196.40 Z M 160.28 197.32 L 160.71 198.17 C 161.13 199.01 162.15 199.35 162.99 198.93 C 163.83 198.51 164.17 197.49 163.74 196.65 L 163.32 195.79 C 162.89 194.96 161.87 194.62 161.03 195.04 C 160.19 195.46 159.86 196.48 160.28 197.32 Z M 160.71 198.18 L 161.16 199.06 C 161.58 199.90 162.60 200.24 163.44 199.82 C 164.28 199.39 164.61 198.37 164.19 197.53 L 163.74 196.65 C 163.32 195.81 162.30 195.47 161.46 195.89 C 160.62 196.32 160.29 197.34 160.71 198.18 Z M 161.15 199.06 L 161.62 199.98 C 162.04 200.82 163.06 201.16 163.90 200.73 C 164.74 200.31 165.08 199.29 164.65 198.45 L 164.19 197.53 C 163.77 196.69 162.75 196.36 161.91 196.78 C 161.07 197.20 160.73 198.22 161.15 199.06 Z M 161.61 199.98 L 162.08 200.91 C 162.50 201.75 163.52 202.09 164.36 201.67 C 165.20 201.25 165.55 200.23 165.12 199.39 L 164.66 198.45 C 164.24 197.61 163.21 197.27 162.37 197.69 C 161.53 198.11 161.19 199.13 161.61 199.98 Z M 162.08 200.90 L 162.51 201.78 C 162.93 202.62 163.95 202.96 164.79 202.54 C 165.64 202.13 165.98 201.10 165.56 200.26 L 165.13 199.39 C 164.71 198.55 163.69 198.20 162.84 198.62 C 162.00 199.04 161.66 200.06 162.08 200.90 Z M 162.51 201.78 L 162.95 202.67 C 163.37 203.51 164.39 203.85 165.23 203.43 C 166.08 203.02 166.42 201.99 166.00 201.15 L 165.56 200.26 C 165.14 199.42 164.12 199.08 163.28 199.49 C 162.44 199.91 162.09 200.93 162.51 201.78 Z M 162.95 202.67 L 163.40 203.57 C 163.82 204.41 164.85 204.75 165.69 204.33 C 166.53 203.91 166.87 202.89 166.45 202.05 L 166.00 201.15 C 165.58 200.31 164.56 199.97 163.72 200.39 C 162.88 200.81 162.53 201.83 162.95 202.67 Z M 163.41 203.58 L 163.87 204.49 C 164.29 205.33 165.32 205.66 166.16 205.24 C 167.00 204.81 167.33 203.79 166.91 202.95 L 166.45 202.04 C 166.02 201.20 165.00 200.87 164.16 201.29 C 163.32 201.72 162.98 202.74 163.41 203.58 Z M 163.87 204.50 L 164.34 205.39 C 164.77 206.23 165.79 206.55 166.63 206.12 C 167.46 205.69 167.79 204.66 167.36 203.83 L 166.90 202.94 C 166.47 202.10 165.44 201.77 164.61 202.20 C 163.77 202.64 163.44 203.66 163.87 204.50 Z M 164.34 205.40 L 164.80 206.28 C 165.24 207.11 166.27 207.43 167.10 206.99 C 167.93 206.55 168.25 205.52 167.81 204.69 L 167.35 203.82 C 166.91 202.98 165.88 202.67 165.05 203.11 C 164.22 203.54 163.90 204.57 164.34 205.40 Z M 164.81 206.29 L 165.29 207.17 C 165.73 207.99 166.76 208.30 167.59 207.85 C 168.42 207.41 168.72 206.37 168.28 205.55 L 167.80 204.67 C 167.36 203.85 166.33 203.54 165.50 203.99 C 164.67 204.43 164.37 205.47 164.81 206.29 Z M 165.30 207.18 L 165.78 208.06 C 166.24 208.88 167.27 209.18 168.09 208.72 C 168.91 208.27 169.21 207.23 168.75 206.41 L 168.27 205.53 C 167.81 204.71 166.78 204.41 165.96 204.87 C 165.14 205.33 164.84 206.36 165.30 207.18 Z M 165.79 208.07 L 166.29 208.96 C 166.76 209.77 167.79 210.06 168.61 209.59 C 169.42 209.13 169.71 208.09 169.25 207.28 L 168.74 206.39 C 168.28 205.58 167.24 205.29 166.43 205.76 C 165.61 206.22 165.33 207.26 165.79 208.07 Z M 166.30 208.97 L 166.82 209.85 C 167.29 210.66 168.33 210.94 169.14 210.47 C 169.95 209.99 170.22 208.95 169.75 208.14 L 169.24 207.26 C 168.76 206.45 167.72 206.18 166.91 206.65 C 166.10 207.12 165.83 208.16 166.30 208.97 Z M 166.83 209.87 L 167.36 210.75 C 167.84 211.55 168.88 211.82 169.68 211.33 C 170.49 210.85 170.75 209.81 170.27 209.01 L 169.74 208.13 C 169.26 207.33 168.22 207.06 167.41 207.54 C 166.61 208.03 166.35 209.07 166.83 209.87 Z M 167.37 210.77 L 167.90 211.63 C 168.39 212.43 169.43 212.68 170.23 212.19 C 171.03 211.70 171.28 210.66 170.79 209.86 L 170.25 208.99 C 169.76 208.20 168.72 207.95 167.92 208.44 C 167.13 208.93 166.88 209.97 167.37 210.77 Z M 167.92 211.65 L 168.45 212.49 C 168.95 213.28 169.99 213.52 170.78 213.02 C 171.57 212.52 171.81 211.47 171.31 210.68 L 170.77 209.84 C 170.27 209.05 169.23 208.82 168.44 209.32 C 167.65 209.82 167.42 210.86 167.92 211.65 Z M 168.46 212.52 L 168.99 213.32 C 169.50 214.10 170.55 214.32 171.33 213.81 C 172.11 213.30 172.33 212.25 171.82 211.47 L 171.29 210.66 C 170.78 209.88 169.73 209.66 168.95 210.18 C 168.17 210.69 167.95 211.73 168.46 212.52 Z M 169.01 213.35 L 169.60 214.21 C 170.13 214.98 171.18 215.18 171.95 214.65 C 172.71 214.13 172.91 213.08 172.39 212.31 L 171.80 211.45 C 171.28 210.68 170.23 210.48 169.46 211.00 C 168.69 211.53 168.49 212.58 169.01 213.35 Z M 169.62 214.24 L 170.23 215.08 C 170.77 215.84 171.82 216.01 172.58 215.47 C 173.33 214.93 173.51 213.88 172.97 213.12 L 172.36 212.28 C 171.82 211.52 170.77 211.35 170.01 211.89 C 169.26 212.43 169.08 213.48 169.62 214.24 Z M 170.25 215.11 L 170.84 215.90 C 171.40 216.64 172.45 216.79 173.20 216.23 C 173.94 215.68 174.09 214.62 173.53 213.88 L 172.94 213.09 C 172.38 212.35 171.33 212.20 170.59 212.75 C 169.84 213.31 169.69 214.37 170.25 215.11 Z M 170.87 215.93 L 171.45 216.67 C 172.02 217.40 173.08 217.53 173.81 216.95 C 174.54 216.38 174.67 215.33 174.09 214.60 L 173.51 213.85 C 172.94 213.12 171.88 212.99 171.15 213.57 C 170.42 214.14 170.29 215.20 170.87 215.93 Z M 171.48 216.69 L 172.11 217.46 C 172.69 218.18 173.75 218.28 174.46 217.70 C 175.18 217.11 175.29 216.06 174.70 215.34 L 174.07 214.57 C 173.48 213.86 172.43 213.75 171.71 214.34 C 170.99 214.92 170.89 215.98 171.48 216.69 Z M 172.13 217.49 L 172.80 218.26 C 173.39 218.96 174.45 219.04 175.15 218.45 C 175.85 217.85 175.93 216.79 175.33 216.09 L 174.67 215.32 C 174.07 214.62 173.02 214.53 172.32 215.13 C 171.62 215.73 171.54 216.79 172.13 217.49 Z M 172.82 218.28 L 173.48 219.02 C 174.09 219.71 175.14 219.77 175.83 219.16 C 176.51 218.55 176.57 217.50 175.96 216.81 L 175.31 216.07 C 174.70 215.39 173.65 215.33 172.96 215.93 C 172.27 216.54 172.21 217.59 172.82 218.28 Z M 173.51 219.04 L 174.16 219.75 C 174.78 220.42 175.83 220.46 176.50 219.84 C 177.17 219.23 177.21 218.18 176.59 217.51 L 175.94 216.80 C 175.32 216.12 174.27 216.08 173.60 216.70 C 172.93 217.32 172.89 218.37 173.51 219.04 Z M 174.19 219.77 L 174.90 220.52 C 175.53 221.18 176.57 221.20 177.23 220.57 C 177.89 219.94 177.92 218.89 177.29 218.24 L 176.57 217.49 C 175.94 216.83 174.90 216.81 174.24 217.44 C 173.58 218.07 173.56 219.11 174.19 219.77 Z M 174.92 220.54 L 175.63 221.25 C 176.27 221.90 177.32 221.90 177.96 221.26 C 178.61 220.61 178.61 219.57 177.97 218.92 L 177.26 218.21 C 176.62 217.57 175.58 217.56 174.93 218.21 C 174.28 218.85 174.28 219.89 174.92 220.54 Z M 175.66 221.27 L 176.36 221.95 C 177.01 222.58 178.06 222.56 178.69 221.91 C 179.32 221.25 179.30 220.21 178.65 219.58 L 177.94 218.90 C 177.29 218.27 176.25 218.29 175.61 218.94 C 174.98 219.60 175.00 220.64 175.66 221.27 Z M 176.39 221.97 L 177.12 222.65 C 177.79 223.27 178.83 223.22 179.45 222.56 C 180.06 221.89 180.02 220.85 179.35 220.23 L 178.62 219.55 C 177.95 218.94 176.91 218.98 176.29 219.65 C 175.68 220.32 175.72 221.36 176.39 221.97 Z M 177.15 222.67 L 177.89 223.33 C 178.57 223.93 179.61 223.87 180.21 223.19 C 180.81 222.51 180.75 221.47 180.07 220.87 L 179.32 220.21 C 178.64 219.61 177.61 219.68 177.01 220.35 C 176.41 221.03 176.47 222.07 177.15 222.67 Z M 177.92 223.34 L 178.67 223.99 C 179.35 224.58 180.38 224.50 180.97 223.81 C 181.56 223.13 181.48 222.10 180.80 221.51 L 180.05 220.86 C 179.36 220.27 178.33 220.35 177.74 221.04 C 177.16 221.72 177.23 222.75 177.92 223.34 Z M 178.68 223.99 L 179.47 224.65 C 180.15 225.23 181.18 225.15 181.76 224.46 C 182.34 223.78 182.25 222.75 181.57 222.17 L 180.79 221.51 C 180.10 220.93 179.07 221.01 178.49 221.70 C 177.91 222.38 178.00 223.41 178.68 223.99 Z M 179.48 224.66 L 180.27 225.31 C 180.96 225.88 181.98 225.79 182.55 225.10 C 183.12 224.41 183.03 223.39 182.34 222.82 L 181.55 222.17 C 180.87 221.60 179.85 221.69 179.27 222.38 C 178.70 223.07 178.80 224.09 179.48 224.66 Z M 180.30 225.32 L 181.05 225.93 C 181.74 226.48 182.75 226.37 183.31 225.68 C 183.87 224.99 183.76 223.98 183.07 223.42 L 182.31 222.82 C 181.62 222.26 180.61 222.37 180.05 223.06 C 179.50 223.75 179.61 224.76 180.30 225.32 Z M 181.09 225.94 L 181.92 226.58 C 182.62 227.12 183.63 226.98 184.16 226.28 C 184.70 225.58 184.56 224.57 183.86 224.04 L 183.03 223.40 C 182.33 222.87 181.32 223.00 180.79 223.71 C 180.25 224.41 180.39 225.41 181.09 225.94 Z M 181.97 226.60 L 182.77 227.17 C 183.48 227.68 184.47 227.51 184.98 226.79 C 185.49 226.08 185.32 225.09 184.61 224.58 L 183.81 224.02 C 183.10 223.51 182.11 223.68 181.60 224.39 C 181.09 225.11 181.26 226.10 181.97 226.60 Z M 182.81 227.18 L 183.62 227.72 C 184.35 228.21 185.32 228.01 185.81 227.29 C 186.29 226.56 186.09 225.59 185.37 225.10 L 184.56 224.56 C 183.84 224.08 182.86 224.28 182.38 225.00 C 181.89 225.72 182.09 226.70 182.81 227.18 Z M 183.65 227.73 L 184.49 228.27 C 185.22 228.73 186.18 228.52 186.65 227.80 C 187.12 227.07 186.91 226.11 186.18 225.64 L 185.34 225.10 C 184.62 224.64 183.65 224.85 183.18 225.57 C 182.72 226.30 182.93 227.26 183.65 227.73 Z M 184.50 228.25 L 185.35 228.80 C 186.06 229.26 187.02 229.05 187.48 228.33 C 187.94 227.62 187.73 226.66 187.02 226.20 L 186.17 225.66 C 185.46 225.20 184.50 225.40 184.04 226.12 C 183.58 226.84 183.78 227.79 184.50 228.25 Z M 185.36 228.78 L 186.20 229.32 C 186.91 229.78 187.85 229.57 188.31 228.86 C 188.76 228.15 188.55 227.21 187.84 226.75 L 187.00 226.21 C 186.30 225.76 185.35 225.97 184.90 226.68 C 184.44 227.39 184.65 228.33 185.36 228.78 Z M 186.25 229.33 L 186.99 229.78 C 187.71 230.21 188.63 229.97 189.06 229.26 C 189.49 228.55 189.26 227.62 188.54 227.19 L 187.80 226.74 C 187.08 226.32 186.16 226.55 185.73 227.26 C 185.30 227.97 185.53 228.90 186.25 229.33 Z M 187.04 229.78 L 187.90 230.27 C 188.62 230.67 189.53 230.42 189.93 229.70 C 190.34 228.99 190.08 228.08 189.37 227.67 L 188.50 227.19 C 187.78 226.78 186.87 227.04 186.47 227.75 C 186.07 228.47 186.32 229.38 187.04 229.78 Z M 187.92 230.26 L 188.80 230.75 C 189.51 231.15 190.41 230.89 190.80 230.18 C 191.20 229.47 190.95 228.57 190.24 228.18 L 189.35 227.69 C 188.64 227.29 187.75 227.54 187.35 228.25 C 186.95 228.97 187.21 229.86 187.92 230.26 Z M 188.80 230.74 L 189.62 231.20 C 190.33 231.59 191.22 231.34 191.61 230.64 C 192.01 229.93 191.75 229.04 191.05 228.65 L 190.23 228.19 C 189.53 227.79 188.64 228.05 188.24 228.75 C 187.85 229.45 188.10 230.35 188.80 230.74 Z M 189.63 231.19 L 190.54 231.70 C 191.24 232.09 192.12 231.84 192.51 231.14 C 192.90 230.44 192.65 229.56 191.96 229.17 L 191.04 228.66 C 190.35 228.26 189.46 228.51 189.07 229.21 C 188.68 229.91 188.93 230.80 189.63 231.19 Z M 190.54 231.69 L 191.50 232.23 C 192.20 232.62 193.07 232.37 193.46 231.68 C 193.85 230.98 193.61 230.11 192.91 229.72 L 191.95 229.18 C 191.26 228.79 190.38 229.03 189.99 229.73 C 189.60 230.42 189.85 231.30 190.54 231.69 Z M 191.51 232.22 L 191.70 232.33 C 192.39 232.72 193.27 232.48 193.66 231.79 C 194.04 231.09 193.80 230.22 193.11 229.83 L 192.91 229.72 C 192.22 229.34 191.35 229.58 190.96 230.27 C 190.57 230.96 190.82 231.84 191.51 232.22 Z"
      fill="black"
      fill-rule="nonzero" /></svg>