<svg xmlns="http://www.w3.org/2000/svg" width="300" height="300" viewBox="0 0 300 300">
<path d="M 98.21 90.08 L 98.79 90.86 C 99.29 91.52 100.22 91.65 100.88 91.15 C 101.53 90.66 101.66 89.72 101.17 89.07 L 100.58 88.29 C 100.09 87.63 99.16 87.50 98.50 88.00 C 97.84 88.49 97.71 89.43 98.21 90.08 Z M 98.77 90.88 L 99.39 91.69 C 99.90 92.36 100.85 92.49 101.51 91.98 C 102.18 91.48 102.31 90.53 101.80 89.86 L 101.19 89.05 C 100.68 88.38 99.73 88.25 99.07 88.76 C 98.40 89.26 98.27 90.21 98.77 90.88 Z M 99.38 91.70 L 100.00 92.51 C 100.51 93.18 101.47 93.31 102.14 92.80 C 102.81 92.29 102.94 91.33 102.43 90.66 L 101.81 89.85 C 101.30 89.18 100.34 89.05 99.67 89.56 C 99.00 90.07 98.87 91.03 99.38 91.70 Z M 99.99 92.51 L 100.60 93.32 C 101.12 93.99 102.08 94.12 102.75 93.61 C 103.43 93.10 103.56 92.14 103.05 91.46 L 102.44 90.66 C 101.92 89.98 100.96 89.85 100.29 90.36 C 99.61 90.87 99.48 91.84 99.99 92.51 Z M 100.59 93.30 L 101.18 94.10 C 101.68 94.78 102.64 94.93 103.32 94.43 C 104.01 93.93 104.15 92.97 103.65 92.28 L 103.06 91.48 C 102.56 90.80 101.60 90.65 100.92 91.15 C 100.23 91.65 100.09 92.61 100.59 93.30 Z M 101.14 94.06 L 101.69 94.87 C 102.17 95.57 103.13 95.75 103.83 95.27 C 104.53 94.79 104.71 93.83 104.24 93.13 L 103.68 92.33 C 103.21 91.62 102.25 91.44 101.55 91.92 C 100.85 92.40 100.67 93.36 101.14 94.06 Z M 101.66 94.82 L 102.17 95.63 C 102.63 96.35 103.58 96.56 104.30 96.11 C 105.01 95.65 105.23 94.70 104.78 93.98 L 104.27 93.18 C 103.81 92.46 102.86 92.24 102.14 92.70 C 101.42 93.15 101.21 94.10 101.66 94.82 Z M 102.15 95.60 L 102.66 96.45 C 103.10 97.18 104.05 97.41 104.78 96.97 C 105.50 96.53 105.74 95.59 105.30 94.86 L 104.79 94.01 C 104.36 93.28 103.41 93.05 102.68 93.49 C 101.95 93.92 101.72 94.87 102.15 95.60 Z M 102.65 96.43 L 103.18 97.34 C 103.61 98.07 104.56 98.32 105.29 97.89 C 106.03 97.46 106.27 96.51 105.84 95.78 L 105.31 94.87 C 104.88 94.14 103.94 93.89 103.20 94.32 C 102.47 94.75 102.22 95.70 102.65 96.43 Z M 103.18 97.33 L 103.65 98.15 C 104.08 98.89 105.02 99.15 105.76 98.72 C 106.50 98.29 106.75 97.35 106.33 96.61 L 105.85 95.79 C 105.42 95.05 104.48 94.80 103.74 95.22 C 103.00 95.65 102.75 96.59 103.18 97.33 Z M 103.64 98.14 L 104.14 99.03 C 104.56 99.77 105.51 100.03 106.25 99.61 C 106.99 99.19 107.26 98.24 106.83 97.50 L 106.34 96.62 C 105.91 95.88 104.97 95.61 104.23 96.04 C 103.48 96.46 103.22 97.40 103.64 98.14 Z M 104.13 99.01 L 104.63 99.92 C 105.04 100.67 105.99 100.94 106.74 100.53 C 107.49 100.12 107.76 99.17 107.35 98.42 L 106.85 97.51 C 106.43 96.76 105.49 96.49 104.74 96.90 C 103.99 97.32 103.72 98.26 104.13 99.01 Z M 104.62 99.91 L 105.07 100.75 C 105.48 101.51 106.42 101.79 107.18 101.38 C 107.93 100.98 108.22 100.04 107.81 99.28 L 107.36 98.43 C 106.95 97.68 106.01 97.39 105.25 97.80 C 104.50 98.21 104.21 99.15 104.62 99.91 Z M 105.06 100.74 L 105.53 101.63 C 105.93 102.39 106.88 102.68 107.64 102.28 C 108.40 101.88 108.69 100.93 108.29 100.17 L 107.82 99.29 C 107.42 98.52 106.47 98.23 105.71 98.64 C 104.95 99.04 104.66 99.98 105.06 100.74 Z M 105.53 101.63 L 106.01 102.55 C 106.42 103.31 107.36 103.61 108.13 103.20 C 108.89 102.80 109.18 101.85 108.78 101.09 L 108.29 100.17 C 107.89 99.41 106.94 99.11 106.18 99.52 C 105.42 99.92 105.12 100.87 105.53 101.63 Z M 106.01 102.55 L 106.47 103.42 C 106.87 104.18 107.82 104.47 108.59 104.07 C 109.35 103.66 109.64 102.71 109.24 101.95 L 108.78 101.09 C 108.38 100.32 107.43 100.03 106.66 100.43 C 105.90 100.84 105.60 101.79 106.01 102.55 Z M 106.46 103.42 L 106.92 104.28 C 107.33 105.05 108.28 105.34 109.05 104.93 C 109.82 104.52 110.11 103.57 109.70 102.80 L 109.24 101.94 C 108.83 101.18 107.88 100.89 107.11 101.29 C 106.35 101.70 106.06 102.66 106.46 103.42 Z M 106.92 104.29 L 107.39 105.18 C 107.80 105.94 108.76 106.23 109.53 105.82 C 110.30 105.41 110.59 104.46 110.18 103.69 L 109.70 102.80 C 109.29 102.03 108.34 101.74 107.57 102.15 C 106.80 102.56 106.51 103.52 106.92 104.29 Z M 107.39 105.18 L 107.88 106.10 C 108.30 106.87 109.25 107.16 110.03 106.75 C 110.80 106.33 111.09 105.38 110.67 104.60 L 110.18 103.68 C 109.77 102.91 108.81 102.62 108.04 103.04 C 107.27 103.45 106.98 104.41 107.39 105.18 Z M 107.88 106.10 L 108.35 106.98 C 108.76 107.76 109.73 108.05 110.50 107.63 C 111.27 107.22 111.56 106.26 111.15 105.48 L 110.68 104.60 C 110.26 103.83 109.30 103.54 108.53 103.95 C 107.76 104.37 107.46 105.33 107.88 106.10 Z M 108.35 106.99 L 108.82 107.87 C 109.24 108.64 110.20 108.94 110.98 108.52 C 111.75 108.11 112.04 107.14 111.63 106.36 L 111.15 105.48 C 110.74 104.71 109.77 104.41 109.00 104.83 C 108.22 105.25 107.93 106.21 108.35 106.99 Z M 108.82 107.87 L 109.29 108.76 C 109.71 109.54 110.68 109.83 111.46 109.42 C 112.24 109.00 112.53 108.03 112.11 107.25 L 111.63 106.36 C 111.21 105.58 110.25 105.29 109.47 105.71 C 108.69 106.13 108.40 107.10 108.82 107.87 Z M 109.29 108.77 L 109.77 109.65 C 110.19 110.43 111.16 110.72 111.94 110.30 C 112.72 109.88 113.01 108.91 112.59 108.13 L 112.11 107.25 C 111.69 106.47 110.72 106.18 109.94 106.60 C 109.16 107.02 108.87 107.99 109.29 108.77 Z M 109.76 109.66 L 110.24 110.54 C 110.66 111.33 111.64 111.62 112.42 111.20 C 113.20 110.77 113.49 109.80 113.07 109.02 L 112.59 108.13 C 112.17 107.35 111.20 107.06 110.42 107.48 C 109.63 107.90 109.34 108.87 109.76 109.66 Z M 110.24 110.55 L 110.73 111.44 C 111.15 112.23 112.13 112.52 112.91 112.09 C 113.69 111.67 113.98 110.69 113.56 109.91 L 113.07 109.01 C 112.65 108.23 111.67 107.94 110.89 108.37 C 110.11 108.79 109.82 109.77 110.24 110.55 Z M 110.73 111.45 L 111.21 112.33 C 111.63 113.11 112.62 113.39 113.40 112.96 C 114.18 112.54 114.47 111.55 114.04 110.77 L 113.56 109.90 C 113.13 109.12 112.15 108.83 111.37 109.26 C 110.58 109.69 110.30 110.67 110.73 111.45 Z M 111.21 112.34 L 111.69 113.20 C 112.12 113.98 113.11 114.26 113.89 113.82 C 114.67 113.39 114.95 112.40 114.52 111.62 L 114.04 110.76 C 113.60 109.98 112.61 109.70 111.83 110.13 C 111.05 110.57 110.77 111.56 111.21 112.34 Z M 111.69 113.21 L 112.18 114.07 C 112.62 114.85 113.61 115.12 114.39 114.68 C 115.17 114.23 115.44 113.24 115.00 112.46 L 114.51 111.60 C 114.07 110.83 113.08 110.55 112.30 111.00 C 111.52 111.44 111.25 112.43 111.69 113.21 Z M 112.18 114.08 L 112.68 114.95 C 113.14 115.73 114.13 115.99 114.91 115.54 C 115.69 115.09 115.95 114.09 115.50 113.31 L 115.00 112.45 C 114.55 111.67 113.55 111.41 112.77 111.86 C 112.00 112.31 111.73 113.31 112.18 114.08 Z M 112.68 114.96 L 113.19 115.82 C 113.65 116.60 114.64 116.86 115.42 116.40 C 116.20 115.95 116.46 114.95 116.01 114.17 L 115.50 113.31 C 115.04 112.53 114.05 112.27 113.27 112.72 C 112.49 113.18 112.23 114.18 112.68 114.96 Z M 113.19 115.82 L 113.69 116.68 C 114.14 117.46 115.15 117.73 115.93 117.27 C 116.71 116.82 116.97 115.81 116.51 115.03 L 116.01 114.17 C 115.55 113.39 114.55 113.13 113.77 113.58 C 112.99 114.04 112.73 115.04 113.19 115.82 Z M 113.68 116.67 L 114.18 117.54 C 114.63 118.32 115.63 118.59 116.41 118.14 C 117.20 117.69 117.47 116.69 117.02 115.91 L 116.52 115.04 C 116.07 114.26 115.07 113.99 114.29 114.44 C 113.50 114.89 113.23 115.89 113.68 116.67 Z M 114.17 117.53 L 114.65 118.39 C 115.09 119.18 116.10 119.46 116.89 119.02 C 117.68 118.58 117.96 117.58 117.52 116.79 L 117.03 115.92 C 116.59 115.13 115.59 114.85 114.80 115.29 C 114.00 115.73 113.72 116.73 114.17 117.53 Z M 114.64 118.38 L 115.12 119.25 C 115.55 120.05 116.55 120.34 117.35 119.91 C 118.15 119.47 118.44 118.47 118.01 117.67 L 117.53 116.80 C 117.09 116.00 116.09 115.71 115.29 116.14 C 114.50 116.58 114.20 117.58 114.64 118.38 Z M 115.10 119.24 L 115.57 120.12 C 116.00 120.93 117.00 121.23 117.80 120.81 C 118.61 120.38 118.92 119.38 118.49 118.58 L 118.02 117.69 C 117.59 116.88 116.59 116.58 115.79 117.00 C 114.98 117.43 114.68 118.43 115.10 119.24 Z M 115.56 120.11 L 116.02 121.00 C 116.44 121.81 117.43 122.13 118.25 121.71 C 119.06 121.29 119.38 120.30 118.96 119.48 L 118.50 118.59 C 118.08 117.78 117.09 117.46 116.27 117.88 C 115.46 118.30 115.14 119.29 115.56 120.11 Z M 116.01 120.98 L 116.44 121.86 C 116.85 122.67 117.85 123.01 118.67 122.60 C 119.48 122.19 119.82 121.19 119.41 120.38 L 118.97 119.50 C 118.56 118.68 117.57 118.35 116.75 118.76 C 115.93 119.17 115.60 120.16 116.01 120.98 Z M 116.43 121.84 L 116.87 122.73 C 117.26 123.55 118.26 123.90 119.08 123.50 C 119.90 123.10 120.25 122.11 119.85 121.29 L 119.42 120.39 C 119.02 119.57 118.03 119.22 117.20 119.62 C 116.38 120.02 116.03 121.01 116.43 121.84 Z M 116.85 122.71 L 117.28 123.63 C 117.67 124.46 118.66 124.81 119.49 124.42 C 120.32 124.04 120.68 123.05 120.29 122.22 L 119.86 121.30 C 119.47 120.47 118.48 120.12 117.65 120.50 C 116.82 120.89 116.47 121.88 116.85 122.71 Z M 117.27 123.61 L 117.69 124.54 C 118.07 125.38 119.06 125.75 119.89 125.37 C 120.73 124.99 121.10 124.01 120.72 123.17 L 120.30 122.24 C 119.92 121.40 118.94 121.03 118.10 121.41 C 117.27 121.79 116.89 122.77 117.27 123.61 Z M 117.68 124.52 L 118.07 125.41 C 118.44 126.25 119.42 126.64 120.26 126.27 C 121.10 125.90 121.49 124.92 121.12 124.08 L 120.73 123.19 C 120.37 122.35 119.39 121.97 118.54 122.33 C 117.70 122.70 117.32 123.68 117.68 124.52 Z M 118.06 125.39 L 118.44 126.29 C 118.80 127.14 119.78 127.54 120.62 127.18 C 121.47 126.82 121.87 125.84 121.51 125.00 L 121.13 124.10 C 120.77 123.25 119.79 122.85 118.95 123.21 C 118.10 123.57 117.71 124.54 118.06 125.39 Z M 118.44 126.28 L 118.81 127.20 C 119.16 128.05 120.13 128.46 120.99 128.11 C 121.84 127.76 122.24 126.79 121.90 125.94 L 121.52 125.01 C 121.17 124.16 120.20 123.76 119.35 124.10 C 118.49 124.45 118.09 125.42 118.44 126.28 Z M 118.81 127.18 L 119.18 128.14 C 119.52 128.99 120.49 129.41 121.35 129.07 C 122.20 128.73 122.62 127.76 122.28 126.91 L 121.90 125.96 C 121.56 125.10 120.60 124.68 119.74 125.02 C 118.89 125.36 118.47 126.33 118.81 127.18 Z M 119.18 128.12 L 119.55 129.08 C 119.88 129.94 120.85 130.37 121.70 130.04 C 122.56 129.71 122.99 128.74 122.66 127.89 L 122.29 126.92 C 121.96 126.06 120.99 125.63 120.13 125.97 C 119.27 126.30 118.85 127.26 119.18 128.12 Z M 119.54 129.07 L 119.90 130.01 C 120.22 130.87 121.18 131.31 122.04 130.98 C 122.91 130.66 123.34 129.70 123.02 128.84 L 122.66 127.90 C 122.34 127.04 121.38 126.60 120.52 126.92 C 119.66 127.25 119.22 128.21 119.54 129.07 Z M 119.89 130.00 L 120.24 130.95 C 120.56 131.81 121.52 132.26 122.38 131.94 C 123.25 131.62 123.69 130.67 123.37 129.80 L 123.02 128.85 C 122.71 127.99 121.75 127.54 120.88 127.86 C 120.02 128.18 119.57 129.13 119.89 130.00 Z M 120.24 130.94 L 120.58 131.89 C 120.89 132.76 121.84 133.21 122.71 132.90 C 123.58 132.58 124.03 131.63 123.72 130.76 L 123.38 129.81 C 123.07 128.94 122.11 128.49 121.24 128.81 C 120.38 129.12 119.93 130.07 120.24 130.94 Z M 120.57 131.88 L 120.90 132.82 C 121.21 133.69 122.16 134.14 123.03 133.84 C 123.90 133.54 124.36 132.58 124.05 131.71 L 123.72 130.77 C 123.42 129.90 122.46 129.45 121.60 129.75 C 120.73 130.06 120.27 131.01 120.57 131.88 Z M 120.90 132.81 L 121.22 133.75 C 121.52 134.62 122.47 135.09 123.34 134.79 C 124.21 134.49 124.68 133.54 124.38 132.67 L 124.06 131.73 C 123.76 130.85 122.81 130.39 121.94 130.69 C 121.06 130.99 120.60 131.93 120.90 132.81 Z M 121.22 133.74 L 121.55 134.74 C 121.84 135.61 122.79 136.08 123.66 135.79 C 124.54 135.50 125.01 134.55 124.72 133.68 L 124.38 132.68 C 124.09 131.81 123.15 131.33 122.27 131.63 C 121.40 131.92 120.93 132.86 121.22 133.74 Z M 121.55 134.73 L 121.86 135.69 C 122.15 136.56 123.10 137.04 123.97 136.75 C 124.85 136.47 125.32 135.52 125.03 134.65 L 124.72 133.69 C 124.43 132.81 123.49 132.33 122.61 132.62 C 121.74 132.91 121.26 133.85 121.55 134.73 Z M 121.86 135.69 L 122.17 136.62 C 122.45 137.49 123.40 137.97 124.27 137.68 C 125.15 137.40 125.63 136.46 125.34 135.58 L 125.03 134.65 C 124.75 133.77 123.81 133.30 122.93 133.58 C 122.06 133.87 121.58 134.81 121.86 135.69 Z M 122.17 136.62 L 122.47 137.52 C 122.76 138.40 123.70 138.87 124.57 138.59 C 125.45 138.30 125.92 137.36 125.64 136.48 L 125.34 135.58 C 125.05 134.70 124.11 134.23 123.23 134.52 C 122.36 134.80 121.88 135.75 122.17 136.62 Z M 122.47 137.53 L 122.80 138.50 C 123.09 139.37 124.03 139.84 124.91 139.55 C 125.78 139.26 126.25 138.31 125.96 137.44 L 125.63 136.47 C 125.34 135.60 124.39 135.13 123.52 135.42 C 122.65 135.72 122.18 136.66 122.47 137.53 Z M 122.80 138.51 L 123.13 139.47 C 123.43 140.34 124.38 140.80 125.25 140.50 C 126.12 140.21 126.58 139.26 126.28 138.39 L 125.95 137.43 C 125.65 136.56 124.70 136.09 123.83 136.39 C 122.96 136.69 122.50 137.64 122.80 138.51 Z M 123.13 139.48 L 123.46 140.41 C 123.76 141.28 124.71 141.74 125.58 141.43 C 126.45 141.13 126.91 140.18 126.60 139.32 L 126.28 138.38 C 125.97 137.51 125.02 137.06 124.16 137.36 C 123.29 137.66 122.83 138.61 123.13 139.48 Z M 123.47 140.42 L 123.79 141.33 C 124.10 142.20 125.05 142.65 125.91 142.34 C 126.78 142.04 127.23 141.09 126.92 140.22 L 126.60 139.31 C 126.29 138.44 125.34 137.99 124.48 138.30 C 123.61 138.60 123.16 139.55 123.47 140.42 Z M 123.79 141.34 L 124.13 142.29 C 124.44 143.15 125.39 143.60 126.25 143.29 C 127.12 142.98 127.57 142.03 127.26 141.17 L 126.92 140.22 C 126.61 139.36 125.66 138.91 124.80 139.22 C 123.93 139.52 123.48 140.47 123.79 141.34 Z M 124.14 142.29 L 124.47 143.23 C 124.78 144.10 125.73 144.54 126.59 144.23 C 127.45 143.93 127.90 142.98 127.59 142.12 L 127.26 141.17 C 126.95 140.31 126.00 139.86 125.14 140.17 C 124.28 140.48 123.83 141.43 124.14 142.29 Z M 124.48 143.23 L 124.81 144.16 C 125.12 145.02 126.06 145.47 126.92 145.17 C 127.78 144.86 128.23 143.91 127.93 143.05 L 127.59 142.12 C 127.29 141.26 126.34 140.81 125.48 141.12 C 124.62 141.42 124.17 142.37 124.48 143.23 Z M 124.81 144.16 L 125.14 145.09 C 125.44 145.95 126.39 146.40 127.25 146.10 C 128.11 145.79 128.56 144.85 128.25 143.99 L 127.92 143.06 C 127.62 142.20 126.68 141.75 125.82 142.05 C 124.96 142.35 124.51 143.30 124.81 144.16 Z M 125.14 145.08 L 125.46 146.02 C 125.76 146.88 126.70 147.33 127.56 147.03 C 128.42 146.73 128.88 145.80 128.58 144.94 L 128.25 144.00 C 127.95 143.14 127.01 142.68 126.15 142.98 C 125.29 143.28 124.84 144.22 125.14 145.08 Z M 125.46 146.01 L 125.79 146.95 C 126.08 147.81 127.01 148.27 127.87 147.98 C 128.73 147.68 129.19 146.75 128.90 145.89 L 128.58 144.94 C 128.28 144.08 127.35 143.63 126.49 143.92 C 125.63 144.21 125.17 145.15 125.46 146.01 Z M 125.79 146.94 L 126.11 147.89 C 126.39 148.75 127.33 149.22 128.18 148.93 C 129.04 148.64 129.51 147.71 129.22 146.85 L 128.90 145.90 C 128.61 145.04 127.68 144.57 126.82 144.86 C 125.96 145.15 125.50 146.08 125.79 146.94 Z M 126.11 147.89 L 126.42 148.82 C 126.70 149.68 127.63 150.15 128.49 149.87 C 129.34 149.58 129.81 148.66 129.53 147.80 L 129.22 146.86 C 128.94 146.00 128.01 145.53 127.15 145.82 C 126.29 146.10 125.82 147.03 126.11 147.89 Z M 126.42 148.82 L 126.72 149.75 C 127.00 150.61 127.92 151.08 128.78 150.80 C 129.64 150.52 130.11 149.60 129.83 148.74 L 129.52 147.80 C 129.25 146.95 128.32 146.48 127.47 146.76 C 126.61 147.04 126.14 147.96 126.42 148.82 Z M 126.73 149.74 L 127.04 150.70 C 127.31 151.55 128.23 152.02 129.09 151.74 C 129.94 151.47 130.41 150.55 130.13 149.69 L 129.82 148.74 C 129.55 147.89 128.63 147.42 127.77 147.69 C 126.92 147.97 126.45 148.89 126.73 149.74 Z M 127.04 150.70 L 127.36 151.67 C 127.63 152.52 128.55 152.99 129.40 152.72 C 130.25 152.44 130.72 151.52 130.44 150.67 L 130.13 149.70 C 129.85 148.84 128.94 148.38 128.08 148.65 C 127.23 148.93 126.76 149.84 127.04 150.70 Z M 127.36 151.67 L 127.68 152.64 C 127.95 153.49 128.87 153.95 129.72 153.68 C 130.57 153.40 131.03 152.49 130.75 151.64 L 130.44 150.67 C 130.16 149.82 129.25 149.36 128.40 149.63 C 127.55 149.91 127.09 150.82 127.36 151.67 Z M 127.68 152.64 L 128.00 153.61 C 128.27 154.45 129.18 154.92 130.03 154.64 C 130.88 154.36 131.34 153.45 131.06 152.61 L 130.75 151.64 C 130.47 150.79 129.56 150.33 128.72 150.61 C 127.87 150.88 127.41 151.79 127.68 152.64 Z M 128.00 153.61 L 128.32 154.57 C 128.59 155.41 129.50 155.87 130.34 155.60 C 131.19 155.32 131.65 154.41 131.37 153.57 L 131.06 152.61 C 130.78 151.77 129.88 151.30 129.03 151.58 C 128.19 151.85 127.73 152.76 128.00 153.61 Z M 128.32 154.56 L 128.62 155.49 C 128.89 156.33 129.80 156.80 130.64 156.52 C 131.48 156.25 131.94 155.34 131.67 154.50 L 131.37 153.57 C 131.10 152.73 130.19 152.27 129.35 152.54 C 128.51 152.82 128.05 153.72 128.32 154.56 Z M 128.62 155.49 L 128.94 156.48 C 129.21 157.32 130.11 157.78 130.95 157.51 C 131.79 157.24 132.26 156.34 131.99 155.50 L 131.67 154.51 C 131.40 153.67 130.50 153.21 129.66 153.48 C 128.82 153.75 128.35 154.65 128.62 155.49 Z M 128.95 156.48 L 129.26 157.45 C 129.53 158.28 130.42 158.75 131.26 158.48 C 132.10 158.21 132.56 157.31 132.29 156.47 L 131.98 155.51 C 131.71 154.67 130.82 154.21 129.98 154.47 C 129.14 154.74 128.68 155.64 128.95 156.48 Z M 129.26 157.45 L 129.56 158.37 C 129.83 159.20 130.73 159.66 131.56 159.39 C 132.40 159.12 132.85 158.23 132.58 157.39 L 132.29 156.47 C 132.02 155.64 131.12 155.18 130.29 155.45 C 129.45 155.72 128.99 156.61 129.26 157.45 Z M 129.57 158.38 L 129.88 159.30 C 130.15 160.13 131.05 160.58 131.88 160.31 C 132.71 160.03 133.16 159.14 132.88 158.31 L 132.58 157.38 C 132.30 156.55 131.41 156.10 130.58 156.38 C 129.75 156.65 129.29 157.55 129.57 158.38 Z M 129.89 159.32 L 130.22 160.29 C 130.50 161.11 131.40 161.55 132.22 161.26 C 133.05 160.98 133.49 160.08 133.20 159.26 L 132.87 158.29 C 132.59 157.47 131.69 157.03 130.87 157.31 C 130.04 157.60 129.60 158.50 129.89 159.32 Z M 130.24 160.31 L 130.57 161.24 C 130.87 162.05 131.77 162.47 132.58 162.18 C 133.40 161.88 133.82 160.98 133.52 160.17 L 133.19 159.24 C 132.89 158.42 131.99 158.00 131.18 158.30 C 130.36 158.59 129.94 159.49 130.24 160.31 Z M 130.59 161.27 L 130.95 162.19 C 131.26 163.00 132.17 163.40 132.97 163.09 C 133.78 162.77 134.18 161.87 133.86 161.06 L 133.51 160.14 C 133.19 159.33 132.29 158.93 131.48 159.25 C 130.68 159.56 130.28 160.46 130.59 161.27 Z M 130.97 162.23 L 131.37 163.18 C 131.70 163.97 132.61 164.35 133.40 164.01 C 134.20 163.68 134.57 162.77 134.24 161.98 L 133.85 161.03 C 133.51 160.23 132.60 159.86 131.81 160.19 C 131.01 160.52 130.64 161.43 130.97 162.23 Z M 131.38 163.21 L 131.78 164.10 C 132.13 164.88 133.05 165.24 133.83 164.89 C 134.61 164.54 134.97 163.62 134.62 162.84 L 134.22 161.95 C 133.88 161.16 132.96 160.81 132.17 161.16 C 131.39 161.51 131.04 162.42 131.38 163.21 Z M 131.80 164.12 L 132.23 165.05 C 132.59 165.83 133.52 166.16 134.29 165.80 C 135.07 165.43 135.40 164.51 135.04 163.74 L 134.60 162.81 C 134.24 162.03 133.32 161.70 132.54 162.06 C 131.77 162.43 131.43 163.35 131.80 164.12 Z M 132.25 165.09 L 132.70 165.98 C 133.08 166.74 134.01 167.05 134.78 166.67 C 135.54 166.28 135.85 165.35 135.47 164.59 L 135.02 163.70 C 134.63 162.93 133.70 162.62 132.94 163.01 C 132.17 163.39 131.86 164.32 132.25 165.09 Z M 132.73 166.04 L 133.21 166.90 C 133.63 167.64 134.57 167.91 135.32 167.49 C 136.06 167.07 136.33 166.13 135.91 165.38 L 135.43 164.53 C 135.01 163.78 134.07 163.51 133.32 163.93 C 132.58 164.35 132.31 165.30 132.73 166.04 Z M 133.25 166.97 L 133.79 167.81 C 134.25 168.53 135.20 168.74 135.93 168.28 C 136.65 167.82 136.86 166.87 136.40 166.14 L 135.87 165.30 C 135.41 164.58 134.45 164.37 133.73 164.83 C 133.00 165.29 132.79 166.25 133.25 166.97 Z M 133.82 167.86 L 134.37 168.65 C 134.85 169.35 135.82 169.53 136.52 169.04 C 137.23 168.55 137.40 167.59 136.91 166.88 L 136.37 166.09 C 135.88 165.39 134.91 165.22 134.21 165.70 C 133.51 166.19 133.33 167.16 133.82 167.86 Z M 134.39 168.68 L 134.98 169.48 C 135.49 170.17 136.46 170.32 137.15 169.82 C 137.84 169.31 137.98 168.34 137.48 167.65 L 136.89 166.85 C 136.38 166.16 135.41 166.01 134.72 166.52 C 134.03 167.02 133.88 167.99 134.39 168.68 Z M 135.00 169.51 L 135.62 170.31 C 136.14 170.99 137.12 171.11 137.79 170.59 C 138.47 170.07 138.59 169.09 138.07 168.42 L 137.45 167.62 C 136.93 166.94 135.96 166.82 135.28 167.34 C 134.60 167.86 134.48 168.84 135.00 169.51 Z M 135.63 170.32 L 136.25 171.12 C 136.78 171.79 137.75 171.91 138.42 171.38 C 139.10 170.85 139.22 169.88 138.69 169.20 L 138.06 168.41 C 137.54 167.73 136.56 167.62 135.89 168.14 C 135.21 168.67 135.10 169.65 135.63 170.32 Z M 136.23 171.10 L 136.85 171.91 C 137.37 172.60 138.34 172.73 139.03 172.21 C 139.71 171.69 139.84 170.72 139.32 170.04 L 138.70 169.22 C 138.19 168.54 137.21 168.41 136.53 168.93 C 135.85 169.44 135.72 170.42 136.23 171.10 Z M 136.83 171.88 L 137.42 172.71 C 137.92 173.40 138.89 173.56 139.58 173.06 C 140.28 172.57 140.44 171.60 139.94 170.90 L 139.35 170.08 C 138.85 169.38 137.88 169.22 137.19 169.72 C 136.49 170.21 136.33 171.18 136.83 171.88 Z M 137.40 172.68 L 137.98 173.52 C 138.47 174.23 139.43 174.41 140.14 173.92 C 140.84 173.44 141.02 172.47 140.54 171.77 L 139.96 170.93 C 139.47 170.22 138.51 170.04 137.80 170.53 C 137.10 171.01 136.92 171.97 137.40 172.68 Z M 137.96 173.49 L 138.56 174.42 C 139.03 175.14 139.99 175.34 140.70 174.88 C 141.42 174.41 141.63 173.45 141.16 172.73 L 140.56 171.80 C 140.09 171.09 139.13 170.88 138.42 171.35 C 137.70 171.81 137.49 172.77 137.96 173.49 Z M 140.88 172.42 L 140.52 172.09 C 139.88 171.53 138.90 171.59 138.34 172.23 C 137.77 172.87 137.83 173.85 138.47 174.41 L 138.84 174.74 C 139.48 175.30 140.46 175.24 141.02 174.60 C 141.58 173.96 141.52 172.98 140.88 172.42 Z M 140.57 172.17 L 139.70 171.31 C 139.10 170.72 138.13 170.73 137.54 171.33 C 136.95 171.93 136.95 172.89 137.56 173.49 L 138.42 174.34 C 139.02 174.93 139.99 174.93 140.58 174.33 C 141.17 173.72 141.17 172.76 140.57 172.17 Z M 139.58 171.24 L 138.81 170.61 C 138.17 170.08 137.23 170.18 136.71 170.81 C 136.18 171.45 136.27 172.39 136.91 172.92 L 137.68 173.55 C 138.31 174.08 139.26 173.99 139.78 173.35 C 140.31 172.71 140.22 171.77 139.58 171.24 Z M 138.76 170.61 L 138.49 170.39 C 137.85 169.89 136.92 170.00 136.42 170.64 C 135.92 171.28 136.04 172.21 136.68 172.71 L 136.96 172.93 C 137.60 173.43 138.52 173.31 139.02 172.67 C 139.52 172.03 139.41 171.10 138.76 170.61 Z"
      fill="black"
      fill-rule="nonzero" /><path d="M 144.18 165.67 L 143.21 165.89 C 142.43 166.07 141.95 166.85 142.12 167.62 C 142.30 168.40 143.08 168.89 143.86 168.71 L 144.83 168.48 C 145.61 168.31 146.10 167.53 145.92 166.75 C 145.74 165.97 144.96 165.49 144.18 165.67 Z M 143.23 165.87 L 142.26 166.08 C 141.47 166.24 140.96 167.02 141.13 167.81 C 141.29 168.59 142.07 169.10 142.86 168.93 L 143.83 168.73 C 144.62 168.56 145.13 167.79 144.96 167.00 C 144.80 166.21 144.02 165.71 143.23 165.87 Z M 142.38 166.03 L 141.29 166.16 C 140.48 166.25 139.89 166.99 139.99 167.80 C 140.08 168.62 140.82 169.20 141.63 169.11 L 142.73 168.98 C 143.54 168.89 144.12 168.15 144.03 167.34 C 143.93 166.52 143.20 165.94 142.38 166.03 Z M 142.17 166.30 L 141.50 165.94 C 140.76 165.54 139.84 165.82 139.45 166.56 C 139.06 167.30 139.34 168.22 140.07 168.61 L 140.75 168.97 C 141.49 169.36 142.40 169.08 142.80 168.34 C 143.19 167.61 142.91 166.69 142.17 166.30 Z M 142.31 167.15 L 142.24 166.23 C 142.17 165.38 141.43 164.75 140.59 164.82 C 139.74 164.89 139.12 165.63 139.18 166.47 L 139.26 167.40 C 139.32 168.24 140.06 168.87 140.91 168.80 C 141.75 168.73 142.38 168.00 142.31 167.15 Z M 142.21 166.71 L 142.47 165.61 C 142.67 164.78 142.16 163.95 141.33 163.75 C 140.50 163.56 139.67 164.07 139.47 164.90 L 139.21 165.99 C 139.01 166.82 139.52 167.66 140.35 167.85 C 141.18 168.05 142.02 167.54 142.21 166.71 Z M 142.42 165.80 L 142.78 164.85 C 143.08 164.04 142.68 163.15 141.88 162.85 C 141.07 162.55 140.18 162.95 139.88 163.76 L 139.52 164.71 C 139.22 165.51 139.62 166.41 140.43 166.71 C 141.23 167.01 142.12 166.60 142.42 165.80 Z M 142.76 164.92 L 143.15 164.02 C 143.49 163.24 143.13 162.32 142.34 161.98 C 141.55 161.64 140.63 162.00 140.29 162.79 L 139.90 163.68 C 139.56 164.47 139.92 165.39 140.71 165.73 C 141.50 166.07 142.42 165.71 142.76 164.92 Z M 143.15 164.03 L 143.55 163.10 C 143.90 162.31 143.54 161.39 142.75 161.05 C 141.96 160.70 141.04 161.06 140.70 161.85 L 140.29 162.78 C 139.95 163.57 140.31 164.49 141.09 164.83 C 141.88 165.18 142.80 164.82 143.15 164.03 Z M 143.56 163.10 L 143.94 162.21 C 144.29 161.42 143.92 160.50 143.13 160.16 C 142.34 159.81 141.42 160.18 141.08 160.97 L 140.69 161.85 C 140.35 162.64 140.71 163.56 141.50 163.91 C 142.29 164.25 143.21 163.89 143.56 163.10 Z M 143.95 162.21 L 144.33 161.33 C 144.67 160.54 144.31 159.62 143.51 159.28 C 142.72 158.93 141.80 159.30 141.46 160.09 L 141.08 160.97 C 140.73 161.76 141.10 162.68 141.89 163.02 C 142.68 163.37 143.60 163.00 143.95 162.21 Z M 144.33 161.32 L 144.75 160.35 C 145.08 159.56 144.71 158.64 143.92 158.30 C 143.12 157.96 142.20 158.33 141.86 159.13 L 141.45 160.10 C 141.11 160.89 141.48 161.81 142.28 162.15 C 143.08 162.49 143.99 162.12 144.33 161.32 Z M 144.75 160.34 L 145.12 159.46 C 145.45 158.66 145.07 157.74 144.27 157.41 C 143.47 157.08 142.55 157.46 142.22 158.26 L 141.86 159.14 C 141.53 159.94 141.91 160.86 142.71 161.19 C 143.51 161.52 144.42 161.14 144.75 160.34 Z M 145.12 159.45 L 145.50 158.51 C 145.83 157.70 145.44 156.79 144.64 156.46 C 143.84 156.14 142.92 156.53 142.60 157.33 L 142.21 158.27 C 141.89 159.07 142.28 159.99 143.08 160.31 C 143.88 160.64 144.80 160.25 145.12 159.45 Z M 145.51 158.51 L 145.89 157.56 C 146.21 156.76 145.82 155.84 145.02 155.52 C 144.21 155.19 143.30 155.58 142.97 156.39 L 142.59 157.33 C 142.27 158.14 142.66 159.05 143.46 159.38 C 144.27 159.70 145.18 159.31 145.51 158.51 Z M 145.89 157.56 L 146.26 156.66 C 146.58 155.85 146.19 154.93 145.39 154.61 C 144.58 154.28 143.67 154.67 143.34 155.48 L 142.97 156.38 C 142.65 157.19 143.03 158.11 143.84 158.43 C 144.65 158.76 145.56 158.37 145.89 157.56 Z M 146.25 156.67 L 146.64 155.73 C 146.97 154.93 146.59 154.01 145.79 153.67 C 144.98 153.34 144.06 153.72 143.73 154.53 L 143.34 155.46 C 143.01 156.27 143.39 157.19 144.20 157.52 C 145.00 157.85 145.92 157.47 146.25 156.67 Z M 146.63 155.75 L 147.03 154.83 C 147.37 154.03 147.00 153.10 146.20 152.76 C 145.39 152.42 144.47 152.79 144.13 153.59 L 143.74 154.51 C 143.39 155.31 143.77 156.24 144.57 156.58 C 145.37 156.92 146.29 156.55 146.63 155.75 Z M 147.02 154.84 L 147.42 153.94 C 147.77 153.14 147.40 152.21 146.60 151.86 C 145.81 151.51 144.87 151.88 144.52 152.68 L 144.13 153.57 C 143.78 154.37 144.15 155.30 144.94 155.65 C 145.74 156.00 146.67 155.64 147.02 154.84 Z M 147.42 153.95 L 147.83 153.02 C 148.18 152.22 147.82 151.29 147.02 150.94 C 146.22 150.58 145.28 150.94 144.93 151.74 L 144.52 152.67 C 144.17 153.47 144.53 154.40 145.33 154.76 C 146.13 155.11 147.07 154.75 147.42 153.95 Z M 147.83 153.02 L 148.24 152.09 C 148.59 151.28 148.23 150.35 147.43 150.00 C 146.62 149.64 145.69 150.01 145.34 150.81 L 144.93 151.75 C 144.58 152.55 144.94 153.48 145.74 153.84 C 146.55 154.19 147.48 153.82 147.83 153.02 Z M 148.25 152.08 L 148.64 151.17 C 148.99 150.37 148.62 149.43 147.81 149.08 C 147.01 148.73 146.07 149.10 145.72 149.91 L 145.33 150.82 C 144.98 151.62 145.35 152.56 146.16 152.91 C 146.96 153.26 147.90 152.89 148.25 152.08 Z M 148.65 151.17 L 149.04 150.25 C 149.39 149.44 149.02 148.51 148.21 148.16 C 147.41 147.81 146.47 148.18 146.12 148.99 L 145.72 149.91 C 145.37 150.72 145.74 151.65 146.55 152.00 C 147.36 152.35 148.30 151.98 148.65 151.17 Z M 149.05 150.26 L 149.45 149.33 C 149.81 148.53 149.44 147.58 148.63 147.23 C 147.82 146.87 146.88 147.24 146.52 148.05 L 146.12 148.98 C 145.76 149.79 146.13 150.73 146.94 151.08 C 147.75 151.44 148.69 151.07 149.05 150.26 Z M 149.45 149.35 L 149.86 148.43 C 150.22 147.62 149.86 146.67 149.05 146.31 C 148.24 145.95 147.29 146.31 146.93 147.12 L 146.52 148.04 C 146.16 148.85 146.52 149.79 147.33 150.16 C 148.14 150.52 149.09 150.16 149.45 149.35 Z M 149.86 148.44 L 150.27 147.53 C 150.64 146.73 150.29 145.77 149.48 145.40 C 148.67 145.04 147.72 145.39 147.35 146.20 L 146.93 147.11 C 146.57 147.92 146.92 148.87 147.73 149.24 C 148.54 149.61 149.49 149.25 149.86 148.44 Z M 150.27 147.54 L 150.69 146.63 C 151.07 145.83 150.71 144.87 149.91 144.50 C 149.10 144.12 148.14 144.48 147.77 145.28 L 147.35 146.19 C 146.98 147.00 147.33 147.96 148.14 148.33 C 148.94 148.70 149.90 148.35 150.27 147.54 Z M 150.69 146.64 L 151.11 145.74 C 151.49 144.93 151.14 143.97 150.33 143.59 C 149.52 143.22 148.56 143.57 148.18 144.38 L 147.77 145.28 C 147.39 146.09 147.74 147.05 148.55 147.42 C 149.36 147.80 150.32 147.45 150.69 146.64 Z M 151.11 145.74 L 151.53 144.85 C 151.91 144.04 151.56 143.07 150.75 142.70 C 149.94 142.32 148.98 142.67 148.60 143.48 L 148.18 144.37 C 147.80 145.18 148.15 146.15 148.96 146.52 C 149.77 146.90 150.74 146.55 151.11 145.74 Z M 151.53 144.86 L 151.96 143.95 C 152.34 143.15 151.99 142.18 151.18 141.80 C 150.37 141.41 149.41 141.76 149.03 142.57 L 148.60 143.47 C 148.22 144.28 148.56 145.25 149.37 145.63 C 150.18 146.01 151.15 145.67 151.53 144.86 Z M 151.95 143.97 L 152.39 143.06 C 152.79 142.25 152.45 141.28 151.64 140.89 C 150.83 140.50 149.86 140.83 149.47 141.64 L 149.03 142.55 C 148.64 143.36 148.98 144.33 149.78 144.72 C 150.59 145.11 151.56 144.78 151.95 143.97 Z M 152.39 143.07 L 152.84 142.18 C 153.24 141.37 152.91 140.40 152.11 140.00 C 151.30 139.59 150.33 139.92 149.93 140.72 L 149.48 141.62 C 149.08 142.43 149.40 143.40 150.21 143.80 C 151.01 144.20 151.99 143.88 152.39 143.07 Z M 152.83 142.19 L 153.29 141.29 C 153.70 140.49 153.38 139.51 152.58 139.10 C 151.77 138.69 150.79 139.01 150.39 139.81 L 149.93 140.71 C 149.52 141.51 149.84 142.49 150.64 142.90 C 151.44 143.31 152.43 142.99 152.83 142.19 Z M 153.29 141.30 L 153.75 140.40 C 154.16 139.60 153.84 138.61 153.04 138.20 C 152.24 137.79 151.25 138.11 150.84 138.92 L 150.38 139.81 C 149.97 140.61 150.29 141.60 151.10 142.01 C 151.90 142.42 152.88 142.10 153.29 141.30 Z M 153.75 140.40 L 154.20 139.51 C 154.61 138.70 154.29 137.72 153.48 137.31 C 152.68 136.90 151.69 137.23 151.28 138.03 L 150.84 138.92 C 150.43 139.73 150.75 140.71 151.56 141.12 C 152.36 141.52 153.35 141.20 153.75 140.40 Z M 154.21 139.50 L 154.66 138.59 C 155.06 137.78 154.73 136.79 153.92 136.39 C 153.11 135.99 152.13 136.33 151.72 137.14 L 151.28 138.05 C 150.87 138.86 151.21 139.84 152.02 140.24 C 152.83 140.64 153.81 140.31 154.21 139.50 Z M 154.67 138.58 L 155.10 137.68 C 155.50 136.87 155.16 135.89 154.34 135.49 C 153.53 135.10 152.55 135.44 152.15 136.25 L 151.72 137.15 C 151.32 137.96 151.66 138.94 152.48 139.34 C 153.29 139.73 154.27 139.39 154.67 138.58 Z M 155.11 137.68 L 155.54 136.78 C 155.93 135.96 155.58 134.98 154.76 134.59 C 153.94 134.20 152.96 134.55 152.57 135.37 L 152.15 136.26 C 151.75 137.08 152.10 138.06 152.92 138.45 C 153.74 138.84 154.72 138.49 155.11 137.68 Z M 155.54 136.78 L 155.96 135.89 C 156.35 135.07 156.00 134.09 155.18 133.70 C 154.36 133.31 153.38 133.66 152.99 134.48 L 152.57 135.37 C 152.18 136.19 152.53 137.17 153.35 137.56 C 154.17 137.95 155.15 137.60 155.54 136.78 Z M 155.96 135.89 L 156.38 135.00 C 156.77 134.18 156.42 133.20 155.60 132.81 C 154.78 132.42 153.80 132.77 153.41 133.59 L 152.99 134.48 C 152.60 135.30 152.95 136.28 153.77 136.67 C 154.59 137.06 155.57 136.71 155.96 135.89 Z M 156.39 135.00 L 156.82 134.09 C 157.20 133.27 156.85 132.29 156.03 131.90 C 155.21 131.51 154.22 131.86 153.84 132.69 L 153.41 133.59 C 153.02 134.42 153.37 135.40 154.20 135.78 C 155.02 136.17 156.00 135.82 156.39 135.00 Z M 156.82 134.08 L 157.25 133.16 C 157.64 132.33 157.28 131.35 156.46 130.97 C 155.63 130.58 154.65 130.94 154.27 131.76 L 153.83 132.69 C 153.45 133.51 153.80 134.49 154.63 134.88 C 155.45 135.27 156.43 134.91 156.82 134.08 Z M 157.26 133.15 L 157.67 132.26 C 158.05 131.44 157.69 130.46 156.86 130.07 C 156.04 129.69 155.06 130.05 154.68 130.88 L 154.26 131.77 C 153.88 132.59 154.24 133.57 155.07 133.95 C 155.89 134.34 156.87 133.98 157.26 133.15 Z M 157.67 132.26 L 158.09 131.35 C 158.47 130.53 158.10 129.55 157.28 129.17 C 156.45 128.79 155.47 129.15 155.09 129.98 L 154.67 130.88 C 154.29 131.71 154.66 132.69 155.48 133.07 C 156.31 133.45 157.29 133.09 157.67 132.26 Z M 158.09 131.35 L 158.51 130.44 C 158.89 129.61 158.52 128.63 157.70 128.25 C 156.87 127.87 155.89 128.23 155.51 129.06 L 155.09 129.98 C 154.71 130.80 155.07 131.78 155.90 132.16 C 156.73 132.54 157.71 132.18 158.09 131.35 Z M 158.51 130.44 L 158.93 129.52 C 159.31 128.69 158.95 127.71 158.12 127.33 C 157.29 126.95 156.31 127.31 155.93 128.14 L 155.51 129.06 C 155.13 129.89 155.49 130.87 156.32 131.25 C 157.15 131.63 158.13 131.26 158.51 130.44 Z M 158.93 129.52 L 159.34 128.62 C 159.73 127.79 159.37 126.81 158.54 126.43 C 157.71 126.05 156.73 126.41 156.35 127.24 L 155.94 128.13 C 155.55 128.96 155.91 129.94 156.74 130.32 C 157.57 130.71 158.55 130.35 158.93 129.52 Z M 159.34 128.62 L 159.76 127.72 C 160.15 126.89 159.79 125.91 158.96 125.53 C 158.14 125.15 157.15 125.51 156.77 126.33 L 156.35 127.23 C 155.97 128.06 156.33 129.04 157.15 129.43 C 157.98 129.81 158.96 129.45 159.34 128.62 Z M 159.76 127.72 L 160.19 126.81 C 160.57 125.99 160.21 125.01 159.39 124.62 C 158.56 124.24 157.58 124.59 157.20 125.42 L 156.77 126.33 C 156.39 127.15 156.74 128.14 157.57 128.52 C 158.40 128.91 159.38 128.55 159.76 127.72 Z M 160.18 126.81 L 160.61 125.90 C 161.00 125.07 160.64 124.09 159.82 123.71 C 158.99 123.32 158.01 123.68 157.63 124.50 L 157.20 125.42 C 156.81 126.24 157.17 127.22 157.99 127.61 C 158.82 127.99 159.80 127.64 160.18 126.81 Z M 160.61 125.90 L 161.03 125.01 C 161.42 124.19 161.06 123.20 160.24 122.82 C 159.41 122.43 158.43 122.78 158.05 123.61 L 157.63 124.50 C 157.24 125.32 157.59 126.30 158.42 126.69 C 159.24 127.08 160.22 126.72 160.61 125.90 Z M 161.03 125.02 L 161.45 124.12 C 161.84 123.30 161.49 122.31 160.67 121.92 C 159.85 121.53 158.87 121.88 158.48 122.70 L 158.05 123.60 C 157.66 124.42 158.01 125.41 158.83 125.80 C 159.65 126.19 160.63 125.84 161.03 125.02 Z M 161.45 124.13 L 161.88 123.22 C 162.28 122.40 161.94 121.42 161.12 121.02 C 160.30 120.63 159.32 120.97 158.92 121.79 L 158.48 122.69 C 158.09 123.51 158.43 124.50 159.25 124.89 C 160.07 125.29 161.05 124.95 161.45 124.13 Z M 161.88 123.24 L 162.33 122.33 C 162.73 121.51 162.40 120.53 161.58 120.12 C 160.77 119.72 159.78 120.05 159.38 120.86 L 158.93 121.78 C 158.53 122.59 158.86 123.58 159.67 123.98 C 160.49 124.38 161.47 124.05 161.88 123.24 Z M 162.32 122.34 L 162.78 121.43 C 163.20 120.62 162.88 119.63 162.07 119.22 C 161.26 118.80 160.27 119.12 159.86 119.93 L 159.39 120.85 C 158.98 121.65 159.30 122.64 160.11 123.06 C 160.91 123.47 161.90 123.15 162.32 122.34 Z M 162.77 121.45 L 163.25 120.54 C 163.68 119.74 163.37 118.75 162.57 118.32 C 161.77 117.90 160.77 118.21 160.35 119.01 L 159.87 119.91 C 159.45 120.71 159.75 121.71 160.56 122.13 C 161.36 122.55 162.35 122.25 162.77 121.45 Z M 163.24 120.56 L 163.72 119.68 C 164.16 118.89 163.86 117.89 163.07 117.46 C 162.28 117.02 161.28 117.31 160.84 118.11 L 160.36 118.99 C 159.93 119.78 160.22 120.78 161.01 121.21 C 161.81 121.65 162.80 121.36 163.24 120.56 Z M 163.70 119.71 L 164.18 118.87 C 164.63 118.09 164.36 117.09 163.57 116.64 C 162.79 116.19 161.79 116.46 161.34 117.25 L 160.86 118.08 C 160.41 118.87 160.68 119.87 161.47 120.32 C 162.26 120.77 163.26 120.49 163.70 119.71 Z M 164.16 118.90 L 164.70 118.01 C 165.17 117.23 164.92 116.23 164.14 115.76 C 163.37 115.30 162.36 115.55 161.90 116.32 L 161.36 117.22 C 160.89 117.99 161.14 119.00 161.92 119.46 C 162.69 119.93 163.70 119.68 164.16 118.90 Z M 164.68 118.04 L 165.22 117.18 C 165.71 116.42 165.49 115.41 164.72 114.93 C 163.96 114.44 162.95 114.67 162.47 115.43 L 161.92 116.29 C 161.44 117.05 161.66 118.06 162.42 118.54 C 163.18 119.03 164.19 118.80 164.68 118.04 Z M 165.20 117.21 L 165.74 116.41 C 166.24 115.66 166.04 114.65 165.29 114.15 C 164.55 113.65 163.53 113.85 163.03 114.59 L 162.49 115.39 C 161.99 116.14 162.19 117.16 162.94 117.66 C 163.69 118.16 164.70 117.96 165.20 117.21 Z M 165.72 116.44 L 166.27 115.65 C 166.79 114.91 166.61 113.90 165.87 113.38 C 165.14 112.86 164.12 113.04 163.61 113.78 L 163.05 114.57 C 162.54 115.30 162.71 116.32 163.45 116.84 C 164.19 117.35 165.20 117.17 165.72 116.44 Z M 166.25 115.67 L 166.85 114.84 C 167.38 114.12 167.22 113.10 166.49 112.57 C 165.77 112.05 164.75 112.21 164.22 112.93 L 163.62 113.76 C 163.10 114.49 163.26 115.50 163.99 116.03 C 164.71 116.55 165.73 116.39 166.25 115.67 Z M 166.84 114.85 L 167.43 114.05 C 167.96 113.34 167.81 112.32 167.09 111.79 C 166.37 111.26 165.36 111.41 164.83 112.13 L 164.23 112.92 C 163.70 113.64 163.85 114.66 164.57 115.19 C 165.29 115.72 166.31 115.57 166.84 114.85 Z M 167.43 114.05 L 168.01 113.26 C 168.55 112.55 168.40 111.53 167.68 111.00 C 166.96 110.47 165.95 110.62 165.42 111.34 L 164.83 112.13 C 164.30 112.84 164.45 113.86 165.16 114.39 C 165.88 114.92 166.89 114.77 167.43 114.05 Z M 168.01 113.26 L 168.62 112.44 C 169.14 111.72 168.99 110.71 168.28 110.18 C 167.56 109.66 166.55 109.81 166.02 110.53 L 165.42 111.34 C 164.89 112.06 165.04 113.07 165.76 113.60 C 166.47 114.13 167.48 113.97 168.01 113.26 Z M 168.61 112.44 L 169.20 111.64 C 169.73 110.92 169.58 109.91 168.86 109.39 C 168.15 108.86 167.14 109.01 166.61 109.73 L 166.02 110.53 C 165.50 111.24 165.65 112.25 166.36 112.78 C 167.08 113.30 168.09 113.15 168.61 112.44 Z M 169.20 111.64 L 169.79 110.84 C 170.31 110.13 170.16 109.12 169.45 108.60 C 168.74 108.07 167.74 108.22 167.21 108.93 L 166.62 109.73 C 166.09 110.44 166.24 111.44 166.95 111.97 C 167.66 112.50 168.67 112.35 169.20 111.64 Z M 169.78 110.84 L 170.38 110.03 C 170.91 109.32 170.76 108.32 170.06 107.79 C 169.35 107.26 168.35 107.41 167.82 108.12 L 167.22 108.93 C 166.69 109.64 166.84 110.64 167.54 111.17 C 168.25 111.69 169.25 111.55 169.78 110.84 Z M 170.38 110.02 L 170.97 109.23 C 171.49 108.52 171.35 107.52 170.64 107.00 C 169.93 106.47 168.93 106.62 168.41 107.33 L 167.82 108.13 C 167.30 108.83 167.45 109.83 168.15 110.35 C 168.86 110.88 169.86 110.73 170.38 110.02 Z M 170.98 109.21 L 171.56 108.41 C 172.07 107.70 171.92 106.71 171.21 106.19 C 170.50 105.68 169.50 105.83 168.99 106.54 L 168.41 107.35 C 167.89 108.05 168.05 109.05 168.76 109.56 C 169.47 110.08 170.46 109.92 170.98 109.21 Z M 171.57 108.39 L 172.14 107.58 C 172.65 106.87 172.48 105.88 171.76 105.38 C 171.05 104.87 170.06 105.04 169.56 105.75 L 168.98 106.56 C 168.48 107.28 168.64 108.26 169.36 108.77 C 170.07 109.28 171.06 109.11 171.57 108.39 Z M 172.15 107.57 L 172.72 106.74 C 173.22 106.02 173.04 105.04 172.32 104.54 C 171.60 104.04 170.62 104.22 170.12 104.94 L 169.55 105.77 C 169.05 106.49 169.23 107.47 169.95 107.96 C 170.67 108.46 171.65 108.28 172.15 107.57 Z M 172.73 106.72 L 173.30 105.87 C 173.79 105.15 173.61 104.17 172.88 103.68 C 172.16 103.19 171.18 103.38 170.70 104.10 L 170.12 104.95 C 169.63 105.67 169.82 106.65 170.54 107.14 C 171.26 107.63 172.24 107.44 172.73 106.72 Z M 173.31 105.86 L 173.87 105.03 C 174.35 104.31 174.16 103.33 173.43 102.84 C 172.71 102.36 171.73 102.55 171.25 103.28 L 170.69 104.11 C 170.21 104.83 170.40 105.81 171.12 106.30 C 171.85 106.78 172.83 106.58 173.31 105.86 Z M 173.87 105.02 L 174.43 104.18 C 174.91 103.46 174.72 102.48 173.99 102.00 C 173.27 101.51 172.29 101.71 171.81 102.44 L 171.25 103.28 C 170.76 104.00 170.96 104.98 171.69 105.46 C 172.41 105.95 173.39 105.75 173.87 105.02 Z M 174.43 104.18 L 174.98 103.35 C 175.47 102.62 175.27 101.65 174.54 101.16 C 173.82 100.68 172.84 100.88 172.36 101.60 L 171.81 102.44 C 171.32 103.16 171.52 104.14 172.25 104.62 C 172.97 105.10 173.95 104.91 174.43 104.18 Z M 174.98 103.36 L 175.52 102.56 C 176.00 101.84 175.81 100.86 175.09 100.37 C 174.37 99.88 173.39 100.08 172.90 100.80 L 172.36 101.60 C 171.88 102.32 172.07 103.30 172.79 103.78 C 173.51 104.27 174.49 104.08 174.98 103.36 Z M 175.51 102.56 L 176.07 101.73 C 176.56 101.01 176.37 100.03 175.65 99.55 C 174.93 99.06 173.95 99.25 173.46 99.97 L 172.90 100.80 C 172.42 101.52 172.61 102.50 173.33 102.98 C 174.05 103.47 175.03 103.28 175.51 102.56 Z M 176.09 101.71 L 176.64 100.87 C 177.11 100.15 176.91 99.17 176.18 98.69 C 175.45 98.22 174.48 98.42 174.00 99.15 L 173.45 99.99 C 172.97 100.72 173.18 101.69 173.91 102.17 C 174.63 102.65 175.61 102.44 176.09 101.71 Z M 176.65 100.86 L 177.18 100.02 C 177.65 99.29 177.43 98.31 176.70 97.85 C 175.96 97.38 174.99 97.59 174.52 98.33 L 173.99 99.16 C 173.52 99.90 173.74 100.87 174.47 101.34 C 175.20 101.81 176.18 101.59 176.65 100.86 Z M 177.17 100.03 L 177.67 99.26 C 178.15 98.53 177.94 97.56 177.21 97.08 C 176.48 96.61 175.50 96.81 175.03 97.54 L 174.53 98.32 C 174.05 99.05 174.26 100.02 174.99 100.50 C 175.72 100.97 176.70 100.76 177.17 100.03 Z M 177.65 99.30 L 178.26 98.42 C 178.75 97.70 178.57 96.72 177.85 96.22 C 177.13 95.73 176.15 95.91 175.66 96.63 L 175.05 97.51 C 174.56 98.23 174.74 99.21 175.46 99.70 C 176.18 100.20 177.16 100.02 177.65 99.30 Z M 178.24 98.45 L 178.79 97.68 C 179.31 96.97 179.15 95.99 178.44 95.47 C 177.74 94.96 176.75 95.12 176.24 95.83 L 175.68 96.60 C 175.17 97.30 175.32 98.29 176.03 98.80 C 176.74 99.31 177.72 99.16 178.24 98.45 Z M 178.77 97.72 L 179.40 96.89 C 179.93 96.20 179.80 95.21 179.11 94.68 C 178.42 94.15 177.43 94.28 176.90 94.97 L 176.26 95.79 C 175.73 96.48 175.86 97.47 176.55 98.01 C 177.25 98.54 178.24 98.41 178.77 97.72 Z M 179.36 96.95 L 180.03 96.15 C 180.60 95.48 180.51 94.48 179.84 93.92 C 179.18 93.36 178.18 93.44 177.62 94.11 L 176.94 94.91 C 176.38 95.58 176.46 96.58 177.13 97.14 C 177.80 97.70 178.80 97.62 179.36 96.95 Z M 179.97 96.22 L 180.67 95.48 C 181.27 94.85 181.25 93.85 180.61 93.25 C 179.98 92.64 178.98 92.67 178.38 93.30 L 177.68 94.04 C 177.08 94.67 177.10 95.67 177.73 96.27 C 178.37 96.88 179.37 96.85 179.97 96.22 Z M 180.60 95.55 L 181.30 94.90 C 181.94 94.31 181.98 93.31 181.39 92.67 C 180.79 92.03 179.79 91.99 179.15 92.58 L 178.45 93.23 C 177.81 93.83 177.77 94.83 178.36 95.47 C 178.96 96.11 179.96 96.15 180.60 95.55 Z M 181.23 94.97 L 182.01 94.33 C 182.68 93.78 182.78 92.78 182.23 92.11 C 181.68 91.43 180.68 91.33 180.00 91.88 L 179.23 92.52 C 178.55 93.07 178.45 94.07 179.00 94.74 C 179.55 95.42 180.55 95.52 181.23 94.97 Z M 181.92 94.40 L 182.73 93.82 C 183.44 93.32 183.61 92.33 183.11 91.62 C 182.60 90.91 181.62 90.74 180.90 91.24 L 180.09 91.81 C 179.38 92.32 179.21 93.31 179.71 94.02 C 180.22 94.73 181.21 94.90 181.92 94.40 Z M 182.64 93.88 L 183.49 93.37 C 184.24 92.91 184.47 91.94 184.02 91.19 C 183.57 90.45 182.59 90.21 181.85 90.66 L 180.99 91.18 C 180.25 91.63 180.01 92.61 180.46 93.35 C 180.92 94.10 181.89 94.34 182.64 93.88 Z M 183.40 93.42 L 184.29 92.95 C 185.06 92.55 185.36 91.59 184.96 90.82 C 184.55 90.04 183.59 89.74 182.82 90.15 L 181.93 90.61 C 181.16 91.02 180.86 91.97 181.26 92.75 C 181.67 93.52 182.63 93.82 183.40 93.42 Z M 184.21 92.99 L 185.12 92.58 C 185.92 92.22 186.27 91.28 185.91 90.49 C 185.55 89.69 184.61 89.33 183.81 89.70 L 182.90 90.11 C 182.10 90.47 181.75 91.41 182.11 92.20 C 182.47 93.00 183.41 93.35 184.21 92.99 Z M 185.04 92.61 L 185.97 92.25 C 186.79 91.93 187.19 91.01 186.87 90.20 C 186.55 89.38 185.63 88.98 184.82 89.30 L 183.89 89.66 C 183.07 89.98 182.67 90.90 182.99 91.71 C 183.31 92.53 184.23 92.93 185.04 92.61 Z M 185.90 92.28 L 186.83 91.96 C 187.66 91.68 188.11 90.78 187.83 89.95 C 187.55 89.12 186.65 88.68 185.82 88.96 L 184.89 89.27 C 184.06 89.55 183.61 90.45 183.89 91.28 C 184.17 92.11 185.07 92.56 185.90 92.28 Z M 186.78 91.98 L 187.68 91.71 C 188.52 91.46 189.00 90.58 188.75 89.74 C 188.50 88.90 187.61 88.42 186.77 88.67 L 185.87 88.94 C 185.03 89.19 184.55 90.08 184.81 90.92 C 185.06 91.75 185.94 92.23 186.78 91.98 Z M 187.66 91.72 L 188.66 91.44 C 189.50 91.20 190.00 90.33 189.76 89.48 C 189.53 88.64 188.65 88.15 187.81 88.38 L 186.80 88.66 C 185.96 88.90 185.47 89.77 185.70 90.62 C 185.94 91.46 186.81 91.95 187.66 91.72 Z M 188.65 91.44 L 189.65 91.16 C 190.50 90.93 190.99 90.06 190.76 89.21 C 190.53 88.37 189.66 87.87 188.81 88.11 L 187.81 88.38 C 186.97 88.61 186.47 89.49 186.71 90.33 C 186.94 91.17 187.81 91.67 188.65 91.44 Z M 189.65 91.16 L 190.65 90.89 C 191.50 90.65 191.99 89.78 191.76 88.94 C 191.53 88.09 190.65 87.60 189.81 87.83 L 188.81 88.11 C 187.96 88.34 187.47 89.21 187.70 90.06 C 187.94 90.90 188.81 91.40 189.65 91.16 Z M 190.66 90.88 L 191.61 90.62 C 192.45 90.38 192.94 89.50 192.70 88.66 C 192.47 87.82 191.59 87.33 190.75 87.57 L 189.80 87.83 C 188.96 88.07 188.47 88.95 188.70 89.79 C 188.94 90.63 189.82 91.12 190.66 90.88 Z M 191.62 90.61 L 192.66 90.31 C 193.50 90.06 193.98 89.18 193.73 88.34 C 193.49 87.50 192.61 87.02 191.76 87.27 L 190.73 87.57 C 189.89 87.82 189.41 88.70 189.66 89.54 C 189.90 90.38 190.78 90.86 191.62 90.61 Z M 192.68 90.30 L 193.58 90.02 C 194.42 89.76 194.88 88.87 194.62 88.03 C 194.36 87.20 193.47 86.73 192.64 86.99 L 191.74 87.28 C 190.90 87.54 190.44 88.43 190.70 89.26 C 190.96 90.10 191.85 90.56 192.68 90.30 Z M 193.61 90.01 L 194.52 89.71 C 195.35 89.43 195.80 88.54 195.53 87.70 C 195.25 86.87 194.35 86.42 193.52 86.70 L 192.61 87.00 C 191.78 87.28 191.33 88.18 191.61 89.01 C 191.88 89.84 192.78 90.29 193.61 90.01 Z M 194.54 89.70 L 195.49 89.37 C 196.31 89.09 196.75 88.18 196.46 87.36 C 196.18 86.53 195.27 86.09 194.45 86.38 L 193.50 86.71 C 192.68 87.00 192.24 87.90 192.53 88.72 C 192.81 89.55 193.72 89.99 194.54 89.70 Z M 195.49 89.37 L 196.43 89.04 C 197.25 88.75 197.68 87.84 197.39 87.02 C 197.10 86.20 196.20 85.77 195.38 86.06 L 194.44 86.39 C 193.62 86.68 193.19 87.58 193.48 88.40 C 193.77 89.23 194.67 89.66 195.49 89.37 Z M 196.38 89.05 L 197.33 88.75 C 198.16 88.48 198.63 87.60 198.36 86.77 C 198.10 85.94 197.22 85.48 196.39 85.74 L 195.43 86.04 C 194.60 86.31 194.14 87.19 194.40 88.02 C 194.66 88.85 195.55 89.31 196.38 89.05 Z M 197.11 88.79 L 198.15 88.62 C 199.01 88.48 199.59 87.68 199.45 86.82 C 199.31 85.97 198.50 85.39 197.65 85.53 L 196.61 85.70 C 195.75 85.84 195.17 86.64 195.31 87.50 C 195.45 88.35 196.26 88.93 197.11 88.79 Z M 197.12 88.42 L 197.82 88.82 C 198.57 89.25 199.51 89.00 199.94 88.26 C 200.37 87.52 200.12 86.57 199.38 86.14 L 198.68 85.73 C 197.94 85.30 196.99 85.56 196.56 86.30 C 196.13 87.04 196.38 87.99 197.12 88.42 Z M 197.14 87.89 L 197.39 88.77 C 197.62 89.58 198.46 90.04 199.26 89.81 C 200.07 89.59 200.54 88.75 200.31 87.94 L 200.06 87.07 C 199.83 86.26 198.99 85.79 198.19 86.02 C 197.38 86.25 196.91 87.09 197.14 87.89 Z M 197.39 88.48 L 197.48 89.62 C 197.55 90.43 198.26 91.03 199.07 90.96 C 199.88 90.89 200.48 90.18 200.41 89.37 L 200.31 88.23 C 200.24 87.42 199.53 86.83 198.72 86.89 C 197.92 86.96 197.32 87.67 197.39 88.48 Z"
      fill="black"
      fill-rule="nonzero" /><path d="M 146.27 162.04 L 145.71 161.02 C 145.32 160.30 144.42 160.04 143.70 160.43 C 142.98 160.82 142.72 161.72 143.11 162.44 L 143.67 163.46 C 144.06 164.18 144.96 164.44 145.68 164.05 C 146.40 163.66 146.66 162.76 146.27 162.04 Z M 142.91 161.48 L 142.86 161.84 C 142.72 162.66 143.28 163.44 144.10 163.58 C 144.93 163.72 145.71 163.16 145.84 162.34 L 145.90 161.98 C 146.04 161.15 145.48 160.37 144.66 160.23 C 143.83 160.10 143.05 160.65 142.91 161.48 Z M 142.85 162.38 L 143.07 163.50 C 143.23 164.33 144.04 164.87 144.87 164.71 C 145.69 164.54 146.23 163.74 146.07 162.91 L 145.85 161.79 C 145.69 160.96 144.88 160.42 144.05 160.59 C 143.23 160.75 142.69 161.55 142.85 162.38 Z M 143.07 163.50 L 143.29 164.63 C 143.45 165.46 144.26 166.01 145.09 165.84 C 145.92 165.68 146.46 164.88 146.30 164.04 L 146.07 162.91 C 145.91 162.08 145.11 161.54 144.28 161.70 C 143.44 161.87 142.90 162.67 143.07 163.50 Z M 143.27 164.57 L 143.41 165.51 C 143.54 166.35 144.33 166.93 145.17 166.80 C 146.01 166.67 146.58 165.89 146.46 165.05 L 146.31 164.11 C 146.18 163.27 145.40 162.69 144.56 162.82 C 143.72 162.95 143.14 163.73 143.27 164.57 Z M 143.40 165.47 L 143.52 166.38 C 143.62 167.23 144.39 167.83 145.24 167.72 C 146.08 167.62 146.69 166.85 146.58 166.00 L 146.47 165.09 C 146.36 164.24 145.59 163.64 144.74 163.75 C 143.90 163.85 143.30 164.62 143.40 165.47 Z M 143.50 166.36 L 143.62 167.37 C 143.71 168.22 144.47 168.84 145.33 168.75 C 146.18 168.65 146.79 167.89 146.70 167.04 L 146.59 166.02 C 146.50 165.17 145.73 164.56 144.88 164.65 C 144.03 164.74 143.41 165.51 143.50 166.36 Z M 143.60 167.35 L 143.70 168.34 C 143.78 169.20 144.54 169.83 145.40 169.75 C 146.26 169.67 146.89 168.91 146.81 168.05 L 146.71 167.06 C 146.63 166.20 145.87 165.57 145.01 165.65 C 144.15 165.73 143.52 166.49 143.60 167.35 Z M 143.69 168.32 L 143.77 169.30 C 143.84 170.17 144.59 170.81 145.46 170.74 C 146.32 170.67 146.97 169.91 146.90 169.05 L 146.82 168.07 C 146.75 167.20 145.99 166.56 145.13 166.63 C 144.26 166.70 143.62 167.46 143.69 168.32 Z M 143.76 169.28 L 143.82 170.33 C 143.88 171.20 144.63 171.86 145.50 171.81 C 146.37 171.75 147.03 171.00 146.98 170.13 L 146.91 169.08 C 146.85 168.21 146.10 167.55 145.23 167.60 C 144.36 167.66 143.70 168.41 143.76 169.28 Z M 143.81 170.31 L 143.86 171.26 C 143.90 172.13 144.64 172.81 145.52 172.77 C 146.39 172.73 147.07 171.98 147.03 171.11 L 146.99 170.16 C 146.94 169.28 146.20 168.61 145.33 168.65 C 144.45 168.69 143.77 169.43 143.81 170.31 Z M 143.85 171.24 L 143.89 172.23 C 143.92 173.11 144.65 173.79 145.53 173.76 C 146.41 173.73 147.10 173.00 147.07 172.12 L 147.04 171.13 C 147.01 170.25 146.27 169.56 145.39 169.59 C 144.51 169.62 143.82 170.36 143.85 171.24 Z M 143.88 172.21 L 143.91 173.26 C 143.93 174.14 144.67 174.84 145.55 174.81 C 146.43 174.79 147.13 174.06 147.10 173.17 L 147.08 172.13 C 147.05 171.25 146.32 170.55 145.44 170.57 C 144.55 170.60 143.86 171.33 143.88 172.21 Z M 143.90 173.25 L 143.92 174.22 C 143.95 175.11 144.68 175.81 145.57 175.79 C 146.45 175.77 147.15 175.03 147.13 174.15 L 147.11 173.18 C 147.09 172.29 146.35 171.59 145.47 171.61 C 144.58 171.63 143.88 172.37 143.90 173.25 Z M 143.92 174.22 L 143.94 175.19 C 143.96 176.08 144.69 176.78 145.58 176.76 C 146.47 176.74 147.18 176.01 147.16 175.12 L 147.14 174.15 C 147.12 173.26 146.38 172.56 145.49 172.58 C 144.61 172.59 143.90 173.33 143.92 174.22 Z M 143.94 175.19 L 143.96 176.20 C 143.97 177.09 144.71 177.80 145.60 177.78 C 146.49 177.77 147.20 177.03 147.18 176.14 L 147.16 175.12 C 147.14 174.23 146.41 173.52 145.52 173.54 C 144.63 173.56 143.92 174.29 143.94 175.19 Z M 143.95 176.20 L 143.97 177.26 C 143.99 178.15 144.72 178.87 145.62 178.85 C 146.51 178.83 147.22 178.10 147.21 177.20 L 147.19 176.14 C 147.17 175.25 146.43 174.53 145.54 174.55 C 144.65 174.57 143.93 175.31 143.95 176.20 Z M 143.97 177.26 L 143.98 178.22 C 144.00 179.11 144.74 179.83 145.63 179.81 C 146.53 179.80 147.24 179.06 147.23 178.16 L 147.21 177.20 C 147.19 176.31 146.46 175.59 145.56 175.61 C 144.66 175.62 143.95 176.36 143.97 177.26 Z M 143.98 178.22 L 144.00 179.20 C 144.01 180.10 144.75 180.81 145.65 180.80 C 146.54 180.78 147.26 180.04 147.25 179.15 L 147.23 178.16 C 147.21 177.27 146.48 176.55 145.58 176.57 C 144.68 176.58 143.97 177.32 143.98 178.22 Z M 143.99 179.20 L 144.01 180.21 C 144.02 181.10 144.76 181.82 145.66 181.81 C 146.56 181.80 147.27 181.06 147.26 180.16 L 147.25 179.15 C 147.23 178.25 146.50 177.53 145.60 177.55 C 144.70 177.56 143.98 178.30 143.99 179.20 Z M 144.01 180.20 L 144.02 181.23 C 144.03 182.13 144.77 182.85 145.67 182.84 C 146.56 182.83 147.29 182.10 147.28 181.20 L 147.26 180.16 C 147.25 179.26 146.52 178.54 145.62 178.55 C 144.72 178.56 144.00 179.30 144.01 180.20 Z M 144.02 181.23 L 144.02 182.23 C 144.03 183.13 144.77 183.86 145.67 183.85 C 146.57 183.84 147.29 183.11 147.29 182.20 L 147.28 181.20 C 147.27 180.30 146.53 179.58 145.63 179.58 C 144.73 179.59 144.01 180.33 144.02 181.23 Z M 144.02 182.23 L 144.03 183.21 C 144.03 184.11 144.77 184.83 145.67 184.83 C 146.57 184.83 147.30 184.09 147.29 183.19 L 147.29 182.21 C 147.28 181.31 146.55 180.58 145.65 180.59 C 144.75 180.59 144.02 181.32 144.02 182.23 Z M 144.03 183.20 L 144.03 184.20 C 144.03 185.10 144.76 185.83 145.67 185.82 C 146.57 185.82 147.30 185.09 147.30 184.19 L 147.29 183.19 C 147.29 182.29 146.56 181.56 145.66 181.56 C 144.75 181.57 144.02 182.30 144.03 183.20 Z M 144.03 184.19 L 144.03 185.20 C 144.03 186.11 144.76 186.84 145.66 186.84 C 146.57 186.83 147.30 186.10 147.30 185.20 L 147.30 184.19 C 147.30 183.29 146.56 182.56 145.66 182.56 C 144.76 182.56 144.03 183.29 144.03 184.19 Z M 144.03 185.20 L 144.03 186.23 C 144.03 187.13 144.76 187.86 145.66 187.86 C 146.57 187.86 147.30 187.13 147.30 186.23 L 147.30 185.20 C 147.30 184.30 146.57 183.56 145.66 183.56 C 144.76 183.56 144.03 184.30 144.03 185.20 Z M 144.03 186.23 L 144.03 187.19 C 144.03 188.10 144.76 188.83 145.66 188.83 C 146.57 188.83 147.30 188.10 147.30 187.19 L 147.30 186.23 C 147.30 185.32 146.57 184.59 145.66 184.59 C 144.76 184.59 144.03 185.32 144.03 186.23 Z M 144.02 187.19 L 144.02 188.16 C 144.02 189.06 144.76 189.80 145.66 189.80 C 146.57 189.80 147.30 189.06 147.30 188.16 L 147.30 187.19 C 147.30 186.29 146.57 185.56 145.66 185.56 C 144.76 185.56 144.02 186.29 144.02 187.19 Z M 144.02 188.16 L 144.02 189.14 C 144.02 190.05 144.76 190.78 145.66 190.78 C 146.57 190.78 147.30 190.05 147.30 189.14 L 147.30 188.16 C 147.30 187.25 146.57 186.52 145.66 186.52 C 144.76 186.52 144.02 187.25 144.02 188.16 Z M 144.02 189.14 L 144.02 190.16 C 144.02 191.06 144.76 191.80 145.66 191.80 C 146.57 191.80 147.30 191.06 147.30 190.16 L 147.30 189.14 C 147.30 188.24 146.57 187.50 145.66 187.50 C 144.76 187.50 144.02 188.24 144.02 189.14 Z M 144.02 190.16 L 144.02 191.20 C 144.02 192.11 144.76 192.84 145.66 192.84 C 146.57 192.84 147.31 192.11 147.31 191.20 L 147.31 190.16 C 147.31 189.25 146.57 188.51 145.66 188.51 C 144.76 188.51 144.02 189.25 144.02 190.16 Z M 144.02 191.20 L 144.02 192.22 C 144.02 193.12 144.76 193.86 145.66 193.86 C 146.57 193.86 147.31 193.12 147.31 192.22 L 147.31 191.20 C 147.31 190.29 146.57 189.55 145.66 189.55 C 144.76 189.55 144.02 190.29 144.02 191.20 Z M 144.02 192.22 L 144.02 193.19 C 144.02 194.10 144.76 194.84 145.66 194.84 C 146.57 194.84 147.31 194.10 147.31 193.19 L 147.31 192.22 C 147.31 191.31 146.57 190.57 145.66 190.57 C 144.76 190.57 144.02 191.31 144.02 192.22 Z M 144.02 193.19 L 144.02 194.19 C 144.02 195.10 144.76 195.84 145.66 195.84 C 146.57 195.84 147.31 195.10 147.31 194.19 L 147.31 193.19 C 147.31 192.29 146.57 191.55 145.66 191.55 C 144.76 191.55 144.02 192.29 144.02 193.19 Z M 144.02 194.19 L 144.02 195.20 C 144.02 196.11 144.76 196.85 145.66 196.85 C 146.57 196.85 147.31 196.11 147.31 195.20 L 147.31 194.19 C 147.31 193.28 146.57 192.55 145.66 192.55 C 144.76 192.55 144.02 193.28 144.02 194.19 Z M 144.02 195.20 L 144.02 196.22 C 144.02 197.13 144.76 197.86 145.66 197.86 C 146.57 197.86 147.31 197.13 147.31 196.22 L 147.31 195.20 C 147.31 194.29 146.57 193.56 145.66 193.56 C 144.76 193.56 144.02 194.29 144.02 195.20 Z M 144.02 196.22 L 144.02 197.23 C 144.02 198.14 144.76 198.87 145.66 198.87 C 146.57 198.87 147.31 198.14 147.31 197.23 L 147.31 196.22 C 147.31 195.31 146.57 194.57 145.66 194.57 C 144.76 194.57 144.02 195.31 144.02 196.22 Z M 144.02 197.23 L 144.02 198.25 C 144.02 199.15 144.76 199.89 145.66 199.89 C 146.57 199.89 147.31 199.15 147.31 198.25 L 147.31 197.23 C 147.31 196.32 146.57 195.59 145.66 195.59 C 144.76 195.59 144.02 196.32 144.02 197.23 Z M 144.02 198.25 L 144.02 199.26 C 144.02 200.17 144.76 200.90 145.66 200.90 C 146.57 200.90 147.31 200.17 147.31 199.26 L 147.31 198.25 C 147.31 197.34 146.57 196.60 145.66 196.60 C 144.76 196.60 144.02 197.34 144.02 198.25 Z M 144.02 199.26 L 144.02 200.26 C 144.02 201.17 144.76 201.91 145.66 201.91 C 146.57 201.91 147.31 201.17 147.31 200.26 L 147.31 199.26 C 147.31 198.35 146.57 197.62 145.66 197.62 C 144.76 197.62 144.02 198.35 144.02 199.26 Z M 144.02 200.26 L 144.02 201.26 C 144.02 202.17 144.76 202.90 145.66 202.90 C 146.57 202.90 147.30 202.17 147.30 201.26 L 147.30 200.26 C 147.30 199.36 146.57 198.62 145.66 198.62 C 144.76 198.62 144.02 199.36 144.02 200.26 Z M 144.02 201.26 L 144.02 202.25 C 144.02 203.16 144.76 203.89 145.66 203.89 C 146.57 203.89 147.30 203.16 147.30 202.25 L 147.30 201.26 C 147.30 200.35 146.57 199.62 145.66 199.62 C 144.76 199.62 144.02 200.35 144.02 201.26 Z M 144.02 202.25 L 144.02 203.24 C 144.02 204.15 144.76 204.88 145.66 204.88 C 146.57 204.88 147.30 204.15 147.30 203.24 L 147.30 202.25 C 147.30 201.35 146.57 200.61 145.66 200.61 C 144.76 200.61 144.02 201.35 144.02 202.25 Z M 144.02 203.24 L 144.02 204.25 C 144.02 205.15 144.76 205.89 145.66 205.89 C 146.57 205.89 147.30 205.15 147.30 204.25 L 147.30 203.24 C 147.30 202.33 146.57 201.60 145.66 201.60 C 144.76 201.60 144.02 202.33 144.02 203.24 Z M 144.02 204.24 L 144.02 205.26 C 144.02 206.16 144.76 206.90 145.66 206.90 C 146.57 206.90 147.30 206.17 147.30 205.26 L 147.30 204.25 C 147.30 203.34 146.57 202.61 145.66 202.61 C 144.76 202.61 144.02 203.34 144.02 204.24 Z M 144.02 205.26 L 144.02 206.27 C 144.02 207.17 144.75 207.91 145.66 207.91 C 146.56 207.91 147.30 207.18 147.30 206.27 L 147.30 205.26 C 147.30 204.36 146.57 203.62 145.67 203.62 C 144.76 203.62 144.03 204.35 144.02 205.26 Z M 144.02 206.26 L 144.02 207.26 C 144.02 208.17 144.75 208.90 145.65 208.91 C 146.55 208.91 147.29 208.18 147.29 207.28 L 147.30 206.27 C 147.30 205.37 146.57 204.63 145.67 204.63 C 144.76 204.63 144.03 205.36 144.02 206.26 Z M 144.02 207.26 L 144.01 208.25 C 144.01 209.15 144.73 209.89 145.64 209.90 C 146.54 209.90 147.28 209.17 147.29 208.27 L 147.29 207.28 C 147.30 206.38 146.57 205.64 145.67 205.63 C 144.76 205.63 144.03 206.35 144.02 207.26 Z M 144.01 208.24 L 144.00 209.22 C 143.99 210.12 144.72 210.86 145.62 210.87 C 146.52 210.88 147.26 210.16 147.27 209.25 L 147.29 208.28 C 147.30 207.37 146.57 206.63 145.67 206.62 C 144.76 206.61 144.02 207.34 144.01 208.24 Z M 144.00 209.21 L 143.99 210.25 C 143.97 211.16 144.69 211.90 145.60 211.91 C 146.50 211.93 147.24 211.21 147.26 210.30 L 147.27 209.26 C 147.29 208.36 146.57 207.62 145.67 207.60 C 144.76 207.59 144.02 208.31 144.00 209.21 Z M 143.99 210.24 L 143.97 211.27 C 143.95 212.17 144.67 212.92 145.57 212.94 C 146.47 212.96 147.22 212.24 147.24 211.34 L 147.26 210.31 C 147.27 209.41 146.56 208.66 145.66 208.65 C 144.75 208.63 144.01 209.34 143.99 210.24 Z M 143.97 211.26 L 143.94 212.27 C 143.92 213.17 144.63 213.92 145.54 213.94 C 146.44 213.96 147.19 213.25 147.21 212.35 L 147.23 211.34 C 147.26 210.44 146.54 209.69 145.64 209.67 C 144.74 209.65 143.99 210.36 143.97 211.26 Z M 143.95 212.26 L 143.92 213.24 C 143.89 214.15 144.60 214.90 145.50 214.92 C 146.40 214.95 147.16 214.24 147.18 213.34 L 147.21 212.35 C 147.23 211.45 146.52 210.70 145.62 210.68 C 144.72 210.65 143.97 211.36 143.95 212.26 Z M 143.92 213.24 L 143.89 214.20 C 143.86 215.10 144.57 215.85 145.47 215.88 C 146.37 215.91 147.12 215.20 147.15 214.30 L 147.18 213.34 C 147.21 212.44 146.50 211.69 145.60 211.66 C 144.70 211.63 143.95 212.34 143.92 213.24 Z M 143.89 214.19 L 143.86 215.22 C 143.83 216.12 144.53 216.87 145.43 216.90 C 146.34 216.93 147.09 216.22 147.12 215.32 L 147.15 214.30 C 147.18 213.40 146.47 212.65 145.57 212.62 C 144.67 212.59 143.92 213.29 143.89 214.19 Z M 143.86 215.21 L 143.82 216.24 C 143.79 217.14 144.50 217.89 145.40 217.92 C 146.30 217.95 147.05 217.25 147.08 216.35 L 147.12 215.32 C 147.15 214.42 146.44 213.67 145.54 213.64 C 144.64 213.61 143.89 214.31 143.86 215.21 Z M 143.82 216.23 L 143.78 217.23 C 143.75 218.13 144.46 218.89 145.36 218.92 C 146.26 218.95 147.01 218.25 147.05 217.35 L 147.08 216.35 C 147.12 215.45 146.41 214.69 145.51 214.66 C 144.61 214.63 143.85 215.33 143.82 216.23 Z M 143.78 217.23 L 143.75 218.20 C 143.71 219.10 144.41 219.86 145.31 219.90 C 146.22 219.93 146.97 219.23 147.01 218.33 L 147.05 217.35 C 147.08 216.45 146.38 215.69 145.48 215.66 C 144.58 215.62 143.82 216.32 143.78 217.23 Z M 143.75 218.20 L 143.70 219.16 C 143.67 220.06 144.37 220.82 145.27 220.86 C 146.17 220.90 146.93 220.20 146.97 219.30 L 147.01 218.33 C 147.05 217.43 146.35 216.67 145.45 216.63 C 144.55 216.59 143.78 217.29 143.75 218.20 Z M 143.70 219.16 L 143.66 220.15 C 143.62 221.05 144.31 221.82 145.22 221.86 C 146.12 221.90 146.88 221.20 146.92 220.30 L 146.97 219.31 C 147.01 218.40 146.31 217.64 145.41 217.60 C 144.51 217.56 143.75 218.25 143.70 219.16 Z M 143.66 220.15 L 143.61 221.14 C 143.57 222.04 144.26 222.81 145.16 222.85 C 146.06 222.90 146.83 222.20 146.88 221.30 L 146.92 220.31 C 146.97 219.41 146.27 218.64 145.37 218.60 C 144.47 218.55 143.70 219.25 143.66 220.15 Z M 143.61 221.14 L 143.56 222.13 C 143.51 223.03 144.21 223.80 145.11 223.85 C 146.01 223.89 146.78 223.20 146.82 222.30 L 146.88 221.30 C 146.92 220.40 146.23 219.63 145.33 219.59 C 144.42 219.54 143.66 220.24 143.61 221.14 Z M 143.56 222.13 L 143.51 223.14 C 143.46 224.04 144.16 224.81 145.06 224.85 C 145.96 224.90 146.73 224.21 146.77 223.30 L 146.82 222.30 C 146.87 221.40 146.18 220.63 145.28 220.58 C 144.37 220.54 143.61 221.23 143.56 222.13 Z M 143.51 223.14 L 143.46 224.15 C 143.41 225.05 144.10 225.82 145.00 225.87 C 145.91 225.91 146.67 225.22 146.72 224.32 L 146.77 223.30 C 146.82 222.40 146.13 221.63 145.22 221.59 C 144.32 221.54 143.55 222.24 143.51 223.14 Z M 143.46 224.15 L 143.41 225.17 C 143.36 226.07 144.05 226.84 144.95 226.89 C 145.86 226.93 146.62 226.24 146.67 225.34 L 146.72 224.32 C 146.77 223.42 146.07 222.65 145.17 222.60 C 144.27 222.56 143.50 223.25 143.46 224.15 Z M 143.41 225.18 L 143.36 226.19 C 143.31 227.09 144.00 227.85 144.91 227.90 C 145.81 227.94 146.57 227.25 146.62 226.35 L 146.67 225.34 C 146.71 224.44 146.02 223.67 145.12 223.63 C 144.22 223.58 143.45 224.27 143.41 225.18 Z M 143.36 226.19 L 143.31 227.17 C 143.26 228.07 143.96 228.84 144.86 228.88 C 145.76 228.93 146.52 228.23 146.57 227.33 L 146.62 226.35 C 146.66 225.45 145.97 224.68 145.07 224.64 C 144.17 224.59 143.40 225.29 143.36 226.19 Z M 143.31 227.18 L 143.26 228.18 C 143.22 229.08 143.92 229.84 144.81 229.88 C 145.71 229.93 146.48 229.23 146.52 228.33 L 146.57 227.33 C 146.61 226.43 145.91 225.67 145.01 225.62 C 144.12 225.58 143.35 226.28 143.31 227.18 Z M 143.26 228.18 L 143.22 229.24 C 143.18 230.14 143.87 230.90 144.77 230.94 C 145.67 230.98 146.43 230.29 146.47 229.39 L 146.52 228.33 C 146.56 227.43 145.86 226.67 144.96 226.63 C 144.07 226.59 143.30 227.28 143.26 228.18 Z M 143.22 229.24 L 143.17 230.23 C 143.14 231.13 143.83 231.89 144.73 231.93 C 145.63 231.97 146.38 231.28 146.42 230.38 L 146.47 229.39 C 146.51 228.49 145.81 227.73 144.92 227.69 C 144.02 227.65 143.26 228.34 143.22 229.24 Z M 143.18 230.23 L 143.14 231.17 C 143.09 232.07 143.79 232.83 144.68 232.87 C 145.58 232.91 146.34 232.21 146.38 231.32 L 146.42 230.38 C 146.46 229.48 145.77 228.72 144.87 228.68 C 143.98 228.64 143.22 229.34 143.18 230.23 Z M 143.14 231.17 L 143.09 232.18 C 143.05 233.08 143.74 233.83 144.63 233.88 C 145.53 233.92 146.29 233.23 146.33 232.33 L 146.38 231.32 C 146.42 230.43 145.73 229.67 144.83 229.63 C 143.94 229.58 143.18 230.28 143.14 231.17 Z M 143.09 232.18 L 143.05 233.20 C 143.00 234.09 143.69 234.85 144.59 234.89 C 145.48 234.93 146.23 234.24 146.28 233.35 L 146.32 232.33 C 146.37 231.44 145.68 230.68 144.79 230.64 C 143.89 230.60 143.14 231.29 143.09 232.18 Z M 143.05 233.21 L 143.01 234.18 C 142.98 235.07 143.67 235.82 144.56 235.85 C 145.45 235.89 146.20 235.20 146.23 234.31 L 146.27 233.34 C 146.31 232.45 145.62 231.70 144.73 231.67 C 143.84 231.63 143.09 232.32 143.05 233.21 Z M 143.02 234.20 L 142.99 235.17 C 142.97 236.06 143.67 236.80 144.55 236.82 C 145.44 236.85 146.18 236.15 146.20 235.26 L 146.23 234.29 C 146.25 233.40 145.55 232.66 144.67 232.64 C 143.78 232.61 143.04 233.31 143.02 234.20 Z M 143.00 235.20 L 142.98 236.18 C 142.97 237.06 143.68 237.79 144.57 237.80 C 145.45 237.81 146.17 237.10 146.18 236.22 L 146.20 235.23 C 146.21 234.35 145.50 233.62 144.61 233.61 C 143.73 233.60 143.01 234.31 143.00 235.20 Z M 142.99 236.19 L 142.99 237.20 C 142.99 238.08 143.70 238.80 144.58 238.80 C 145.46 238.80 146.17 238.09 146.18 237.21 L 146.18 236.20 C 146.18 235.32 145.47 234.61 144.59 234.60 C 143.71 234.60 142.99 235.31 142.99 236.19 Z M 143.00 237.21 L 143.00 238.23 C 143.01 239.10 143.72 239.81 144.59 239.81 C 145.47 239.80 146.17 239.09 146.17 238.22 L 146.17 237.20 C 146.16 236.32 145.45 235.62 144.58 235.62 C 143.70 235.63 143.00 236.34 143.00 237.21 Z M 143.02 238.29 L 143.06 239.31 C 143.10 240.18 143.83 240.85 144.70 240.81 C 145.56 240.78 146.24 240.05 146.20 239.18 L 146.16 238.16 C 146.12 237.29 145.39 236.62 144.52 236.65 C 143.65 236.69 142.98 237.42 143.02 238.29 Z M 143.09 239.45 L 143.22 240.41 C 143.33 241.26 144.11 241.86 144.96 241.75 C 145.82 241.64 146.41 240.85 146.30 240.00 L 146.17 239.04 C 146.06 238.19 145.28 237.59 144.43 237.70 C 143.57 237.82 142.97 238.60 143.09 239.45 Z M 143.30 240.66 L 143.61 241.65 C 143.86 242.46 144.71 242.91 145.52 242.66 C 146.32 242.41 146.78 241.55 146.53 240.74 L 146.22 239.75 C 145.97 238.95 145.11 238.50 144.31 238.75 C 143.50 239.00 143.05 239.85 143.30 240.66 Z M 143.74 241.86 L 144.17 242.73 C 144.53 243.47 145.42 243.77 146.16 243.40 C 146.89 243.04 147.19 242.14 146.83 241.41 L 146.40 240.54 C 146.03 239.80 145.14 239.50 144.41 239.87 C 143.67 240.23 143.37 241.12 143.74 241.86 Z M 144.24 242.79 L 144.48 243.21 C 144.88 243.90 145.76 244.14 146.46 243.75 C 147.15 243.35 147.40 242.46 147.00 241.76 L 146.76 241.35 C 146.36 240.65 145.47 240.41 144.78 240.81 C 144.08 241.21 143.84 242.10 144.24 242.79 Z"
      fill="black"
      fill-rule="nonzero" /></svg>