<svg xmlns="http://www.w3.org/2000/svg" width="300" height="300" viewBox="0 0 300 300">
<path d="M 157.82 76.37 L 157.15 75.72 C 156.58 75.17 155.67 75.18 155.11 75.76 C 154.56 76.33 154.58 77.24 155.15 77.79 L 155.83 78.44 C 156.40 78.99 157.31 78.97 157.86 78.40 C 158.41 77.83 158.39 76.92 157.82 76.37 Z M 157.23 75.80 L 156.54 75.01 C 156.01 74.41 155.10 74.36 154.50 74.88 C 153.90 75.41 153.85 76.32 154.37 76.92 L 155.07 77.71 C 155.59 78.30 156.51 78.36 157.10 77.84 C 157.70 77.31 157.76 76.40 157.23 75.80 Z M 156.61 75.10 L 156.02 74.31 C 155.54 73.67 154.64 73.54 154.00 74.02 C 153.36 74.50 153.23 75.41 153.71 76.05 L 154.30 76.84 C 154.78 77.48 155.68 77.60 156.32 77.12 C 156.96 76.64 157.09 75.74 156.61 75.10 Z M 156.06 74.34 L 155.46 73.50 C 155.00 72.84 154.09 72.68 153.43 73.15 C 152.77 73.61 152.62 74.52 153.08 75.18 L 153.67 76.02 C 154.14 76.68 155.05 76.83 155.70 76.37 C 156.36 75.91 156.52 75.00 156.06 74.34 Z M 155.47 73.49 L 154.85 72.62 C 154.38 71.96 153.47 71.81 152.81 72.28 C 152.15 72.75 151.99 73.66 152.46 74.32 L 153.08 75.19 C 153.55 75.85 154.46 76.00 155.12 75.53 C 155.78 75.06 155.94 74.15 155.47 73.49 Z M 154.82 72.56 L 154.21 71.79 C 153.70 71.15 152.77 71.04 152.13 71.55 C 151.49 72.05 151.38 72.98 151.89 73.62 L 152.50 74.39 C 153.00 75.03 153.93 75.14 154.57 74.63 C 155.21 74.13 155.32 73.20 154.82 72.56 Z M 154.09 71.64 L 153.39 70.95 C 152.80 70.37 151.86 70.38 151.28 70.97 C 150.71 71.56 150.71 72.50 151.30 73.08 L 152.01 73.77 C 152.59 74.35 153.54 74.34 154.11 73.75 C 154.69 73.16 154.68 72.22 154.09 71.64 Z M 153.19 70.77 L 152.38 70.22 C 151.69 69.75 150.76 69.93 150.29 70.62 C 149.83 71.31 150.00 72.24 150.69 72.71 L 151.50 73.26 C 152.19 73.73 153.12 73.55 153.59 72.86 C 154.06 72.17 153.88 71.24 153.19 70.77 Z M 152.15 70.08 L 151.33 69.72 C 150.57 69.38 149.67 69.73 149.34 70.50 C 149.00 71.26 149.35 72.15 150.11 72.49 L 150.93 72.85 C 151.69 73.19 152.59 72.84 152.92 72.08 C 153.26 71.31 152.91 70.42 152.15 70.08 Z M 151.03 69.62 L 149.97 69.40 C 149.15 69.23 148.35 69.76 148.18 70.58 C 148.01 71.40 148.53 72.21 149.36 72.38 L 150.41 72.60 C 151.24 72.77 152.04 72.24 152.21 71.41 C 152.38 70.59 151.85 69.79 151.03 69.62 Z M 149.78 69.36 L 148.83 69.30 C 147.99 69.23 147.25 69.87 147.19 70.71 C 147.13 71.55 147.76 72.28 148.60 72.34 L 149.55 72.41 C 150.39 72.47 151.13 71.84 151.19 71.00 C 151.25 70.16 150.62 69.43 149.78 69.36 Z M 148.75 69.29 L 147.72 69.26 C 146.87 69.24 146.17 69.91 146.15 70.76 C 146.13 71.60 146.80 72.31 147.65 72.33 L 148.68 72.35 C 149.52 72.37 150.23 71.70 150.25 70.86 C 150.27 70.01 149.60 69.31 148.75 69.29 Z M 147.69 69.25 L 146.65 69.25 C 145.80 69.25 145.11 69.93 145.11 70.78 C 145.11 71.63 145.79 72.33 146.64 72.33 L 147.68 72.33 C 148.53 72.34 149.22 71.65 149.22 70.80 C 149.23 69.95 148.54 69.26 147.69 69.25 Z M 146.64 69.25 L 145.53 69.25 C 144.68 69.25 143.99 69.94 143.99 70.80 C 143.99 71.65 144.68 72.34 145.54 72.34 L 146.65 72.33 C 147.50 72.33 148.19 71.64 148.19 70.79 C 148.19 69.93 147.50 69.24 146.64 69.25 Z M 145.51 69.25 L 144.54 69.26 C 143.69 69.28 143.01 69.98 143.02 70.84 C 143.04 71.69 143.74 72.37 144.60 72.36 L 145.56 72.34 C 146.42 72.32 147.10 71.62 147.08 70.77 C 147.07 69.91 146.36 69.23 145.51 69.25 Z M 144.47 69.26 L 143.51 69.32 C 142.66 69.38 142.01 70.11 142.06 70.97 C 142.12 71.82 142.85 72.47 143.71 72.41 L 144.67 72.35 C 145.52 72.30 146.17 71.57 146.12 70.71 C 146.06 69.86 145.33 69.21 144.47 69.26 Z M 143.41 69.33 L 142.45 69.46 C 141.60 69.57 141.00 70.34 141.11 71.19 C 141.22 72.04 142.00 72.64 142.85 72.53 L 143.81 72.41 C 144.66 72.30 145.26 71.52 145.15 70.67 C 145.04 69.82 144.26 69.22 143.41 69.33 Z M 142.40 69.46 L 141.45 69.62 C 140.60 69.75 140.03 70.55 140.17 71.40 C 140.31 72.24 141.10 72.82 141.95 72.68 L 142.90 72.53 C 143.74 72.39 144.32 71.59 144.18 70.74 C 144.04 69.90 143.24 69.32 142.40 69.46 Z M 141.42 69.62 L 140.41 69.80 C 139.57 69.96 139.01 70.77 139.16 71.62 C 139.32 72.46 140.13 73.02 140.97 72.86 L 141.98 72.68 C 142.83 72.52 143.39 71.71 143.23 70.87 C 143.08 70.02 142.26 69.46 141.42 69.62 Z M 140.37 69.81 L 139.42 70.01 C 138.58 70.19 138.04 71.02 138.22 71.86 C 138.40 72.70 139.23 73.24 140.07 73.06 L 141.02 72.86 C 141.86 72.68 142.40 71.85 142.22 71.01 C 142.04 70.17 141.21 69.63 140.37 69.81 Z M 139.40 70.02 L 138.40 70.24 C 137.56 70.44 137.03 71.27 137.22 72.11 C 137.42 72.95 138.25 73.48 139.09 73.29 L 140.09 73.06 C 140.93 72.87 141.46 72.03 141.27 71.19 C 141.07 70.35 140.24 69.82 139.40 70.02 Z M 138.39 70.24 L 137.42 70.47 C 136.58 70.66 136.05 71.50 136.25 72.34 C 136.44 73.18 137.28 73.71 138.12 73.51 L 139.10 73.29 C 139.94 73.09 140.46 72.25 140.27 71.41 C 140.07 70.57 139.23 70.05 138.39 70.24 Z M 137.41 70.47 L 136.43 70.70 C 135.59 70.90 135.07 71.74 135.26 72.58 C 135.46 73.42 136.31 73.95 137.15 73.75 L 138.13 73.51 C 138.97 73.32 139.49 72.47 139.29 71.63 C 139.10 70.79 138.25 70.27 137.41 70.47 Z M 136.41 70.70 L 135.43 70.94 C 134.59 71.15 134.08 72.00 134.29 72.84 C 134.50 73.68 135.35 74.19 136.19 73.99 L 137.16 73.74 C 138.01 73.54 138.52 72.69 138.31 71.85 C 138.10 71.01 137.25 70.49 136.41 70.70 Z M 135.41 70.95 L 134.45 71.20 C 133.61 71.42 133.11 72.28 133.33 73.12 C 133.55 73.95 134.40 74.46 135.24 74.24 L 136.21 73.98 C 137.05 73.76 137.55 72.91 137.33 72.07 C 137.11 71.23 136.25 70.73 135.41 70.95 Z M 134.43 71.20 L 133.47 71.46 C 132.64 71.69 132.14 72.56 132.37 73.40 C 132.60 74.23 133.47 74.72 134.30 74.50 L 135.26 74.23 C 136.10 74.00 136.59 73.14 136.36 72.30 C 136.13 71.47 135.27 70.97 134.43 71.20 Z M 133.46 71.47 L 132.50 71.74 C 131.66 71.98 131.17 72.85 131.41 73.68 C 131.65 74.52 132.52 75.00 133.35 74.77 L 134.32 74.49 C 135.15 74.26 135.64 73.39 135.40 72.55 C 135.16 71.72 134.29 71.23 133.46 71.47 Z M 132.49 71.74 L 131.52 72.02 C 130.69 72.26 130.21 73.13 130.45 73.97 C 130.69 74.80 131.56 75.28 132.40 75.04 L 133.36 74.76 C 134.20 74.52 134.68 73.65 134.44 72.82 C 134.19 71.98 133.32 71.50 132.49 71.74 Z M 131.52 72.02 L 130.56 72.30 C 129.72 72.55 129.24 73.42 129.49 74.25 C 129.73 75.09 130.61 75.57 131.44 75.32 L 132.40 75.04 C 133.24 74.80 133.72 73.92 133.47 73.09 C 133.23 72.25 132.35 71.78 131.52 72.02 Z M 130.55 72.30 L 129.60 72.58 C 128.76 72.83 128.29 73.71 128.53 74.54 C 128.78 75.37 129.66 75.85 130.49 75.60 L 131.44 75.32 C 132.28 75.08 132.76 74.20 132.51 73.37 C 132.26 72.53 131.39 72.06 130.55 72.30 Z M 129.60 72.58 L 128.63 72.87 C 127.80 73.12 127.32 73.99 127.57 74.83 C 127.82 75.66 128.69 76.14 129.53 75.89 L 130.49 75.60 C 131.33 75.36 131.80 74.48 131.55 73.65 C 131.31 72.81 130.43 72.34 129.60 72.58 Z M 128.63 72.87 L 127.67 73.15 C 126.84 73.40 126.37 74.28 126.62 75.12 C 126.86 75.95 127.74 76.42 128.58 76.17 L 129.53 75.89 C 130.37 75.64 130.84 74.76 130.59 73.93 C 130.34 73.09 129.46 72.62 128.63 72.87 Z M 127.67 73.16 L 126.72 73.44 C 125.89 73.70 125.42 74.58 125.67 75.41 C 125.92 76.24 126.80 76.71 127.64 76.46 L 128.58 76.17 C 129.42 75.92 129.89 75.04 129.63 74.21 C 129.38 73.37 128.50 72.90 127.67 73.16 Z M 126.71 73.45 L 125.75 73.75 C 124.92 74.01 124.46 74.90 124.72 75.73 C 124.98 76.56 125.87 77.02 126.70 76.76 L 127.65 76.46 C 128.48 76.19 128.95 75.31 128.68 74.48 C 128.42 73.65 127.54 73.19 126.71 73.45 Z M 125.72 73.76 L 124.76 74.08 C 123.94 74.35 123.49 75.25 123.77 76.07 C 124.04 76.90 124.94 77.35 125.76 77.07 L 126.72 76.75 C 127.55 76.47 128.00 75.58 127.72 74.75 C 127.44 73.93 126.55 73.48 125.72 73.76 Z M 124.74 74.08 L 123.79 74.42 C 122.97 74.71 122.53 75.61 122.82 76.43 C 123.11 77.25 124.01 77.69 124.83 77.40 L 125.79 77.06 C 126.61 76.77 127.04 75.87 126.75 75.05 C 126.46 74.23 125.56 73.80 124.74 74.08 Z M 123.77 74.43 L 122.82 74.77 C 122.00 75.07 121.58 75.98 121.88 76.80 C 122.18 77.62 123.09 78.04 123.90 77.74 L 124.85 77.39 C 125.67 77.09 126.09 76.18 125.79 75.37 C 125.49 74.55 124.59 74.13 123.77 74.43 Z M 122.79 74.78 L 121.86 75.14 C 121.05 75.45 120.65 76.37 120.96 77.18 C 121.27 77.99 122.19 78.40 123.00 78.09 L 123.93 77.73 C 124.74 77.41 125.15 76.50 124.83 75.69 C 124.52 74.87 123.61 74.47 122.79 74.78 Z M 121.82 75.16 L 120.92 75.54 C 120.11 75.88 119.73 76.80 120.07 77.61 C 120.41 78.41 121.33 78.79 122.14 78.45 L 123.04 78.07 C 123.85 77.73 124.23 76.81 123.89 76.00 C 123.55 75.20 122.63 74.82 121.82 75.16 Z M 120.87 75.56 L 119.96 75.98 C 119.17 76.34 118.82 77.28 119.18 78.07 C 119.55 78.86 120.48 79.21 121.28 78.85 L 122.19 78.43 C 122.98 78.06 123.33 77.13 122.96 76.33 C 122.60 75.54 121.66 75.20 120.87 75.56 Z M 119.92 76.00 L 119.02 76.44 C 118.24 76.83 117.92 77.77 118.31 78.56 C 118.70 79.34 119.64 79.66 120.43 79.27 L 121.32 78.83 C 122.10 78.44 122.42 77.49 122.03 76.71 C 121.65 75.93 120.70 75.61 119.92 76.00 Z M 118.99 76.46 L 118.10 76.92 C 117.33 77.33 117.04 78.28 117.44 79.06 C 117.85 79.83 118.80 80.12 119.58 79.72 L 120.46 79.25 C 121.23 78.85 121.53 77.89 121.12 77.12 C 120.71 76.35 119.76 76.05 118.99 76.46 Z M 118.08 76.94 L 117.21 77.42 C 116.44 77.84 116.17 78.80 116.59 79.56 C 117.01 80.33 117.97 80.61 118.73 80.18 L 119.60 79.70 C 120.37 79.28 120.65 78.32 120.22 77.56 C 119.80 76.79 118.84 76.52 118.08 76.94 Z M 117.17 77.44 L 116.30 77.95 C 115.55 78.39 115.30 79.36 115.74 80.11 C 116.18 80.86 117.15 81.11 117.91 80.67 L 118.77 80.16 C 119.52 79.72 119.78 78.75 119.33 78.00 C 118.89 77.25 117.92 77.00 117.17 77.44 Z M 116.26 77.97 L 115.43 78.50 C 114.70 78.96 114.48 79.94 114.94 80.68 C 115.41 81.42 116.39 81.64 117.12 81.17 L 117.95 80.65 C 118.69 80.18 118.91 79.20 118.44 78.46 C 117.97 77.73 117.00 77.51 116.26 77.97 Z M 115.42 78.50 L 114.56 79.06 C 113.83 79.53 113.62 80.51 114.09 81.24 C 114.57 81.98 115.55 82.19 116.28 81.71 L 117.14 81.16 C 117.87 80.69 118.08 79.71 117.61 78.97 C 117.13 78.24 116.16 78.03 115.42 78.50 Z M 114.58 79.05 L 113.73 79.58 C 112.99 80.05 112.77 81.02 113.23 81.76 C 113.69 82.50 114.67 82.73 115.41 82.26 L 116.26 81.72 C 117.00 81.26 117.23 80.28 116.76 79.54 C 116.30 78.80 115.32 78.58 114.58 79.05 Z M 113.71 79.59 L 112.87 80.13 C 112.14 80.61 111.92 81.58 112.40 82.32 C 112.87 83.05 113.85 83.27 114.58 82.80 L 115.42 82.25 C 116.16 81.78 116.37 80.80 115.90 80.07 C 115.43 79.33 114.45 79.12 113.71 79.59 Z M 112.81 80.17 L 111.98 80.76 C 111.27 81.26 111.10 82.25 111.60 82.96 C 112.11 83.68 113.09 83.85 113.81 83.34 L 114.64 82.76 C 115.35 82.25 115.52 81.27 115.02 80.55 C 114.51 79.84 113.53 79.67 112.81 80.17 Z M 111.93 80.80 L 111.15 81.39 C 110.46 81.93 110.33 82.92 110.86 83.61 C 111.40 84.31 112.39 84.44 113.08 83.90 L 113.86 83.31 C 114.55 82.77 114.68 81.78 114.15 81.09 C 113.62 80.39 112.62 80.26 111.93 80.80 Z M 111.13 81.41 L 110.35 82.03 C 109.67 82.57 109.56 83.57 110.10 84.25 C 110.64 84.94 111.64 85.05 112.33 84.51 L 113.10 83.89 C 113.79 83.34 113.90 82.35 113.36 81.66 C 112.81 80.98 111.82 80.87 111.13 81.41 Z M 110.33 82.05 L 109.56 82.69 C 108.88 83.25 108.79 84.25 109.35 84.92 C 109.91 85.59 110.91 85.69 111.58 85.13 L 112.35 84.49 C 113.02 83.93 113.12 82.93 112.56 82.26 C 112.00 81.58 111.00 81.49 110.33 82.05 Z M 109.52 82.73 L 108.77 83.39 C 108.12 83.97 108.06 84.97 108.64 85.63 C 109.22 86.28 110.22 86.34 110.88 85.75 L 111.62 85.09 C 112.28 84.51 112.33 83.51 111.75 82.85 C 111.17 82.20 110.17 82.14 109.52 82.73 Z M 108.74 83.41 L 108.01 84.10 C 107.37 84.69 107.34 85.70 107.93 86.34 C 108.53 86.98 109.53 87.01 110.17 86.41 L 110.90 85.73 C 111.54 85.13 111.58 84.13 110.98 83.49 C 110.39 82.85 109.38 82.82 108.74 83.41 Z M 108.00 84.11 L 107.27 84.80 C 106.64 85.41 106.61 86.41 107.22 87.04 C 107.82 87.68 108.82 87.70 109.46 87.10 L 110.19 86.40 C 110.82 85.80 110.84 84.79 110.24 84.16 C 109.63 83.53 108.63 83.51 108.00 84.11 Z M 107.25 84.83 L 106.54 85.53 C 105.92 86.14 105.92 87.15 106.53 87.77 C 107.15 88.39 108.16 88.39 108.78 87.78 L 109.48 87.07 C 110.10 86.46 110.10 85.45 109.49 84.83 C 108.87 84.21 107.87 84.21 107.25 84.83 Z M 106.52 85.55 L 105.83 86.27 C 105.22 86.90 105.24 87.90 105.87 88.51 C 106.50 89.12 107.50 89.10 108.11 88.47 L 108.80 87.75 C 109.41 87.12 109.39 86.12 108.76 85.51 C 108.13 84.90 107.12 84.92 106.52 85.55 Z M 105.83 86.26 L 105.13 86.99 C 104.52 87.62 104.53 88.62 105.16 89.23 C 105.79 89.84 106.79 89.82 107.40 89.20 L 108.11 88.47 C 108.72 87.84 108.70 86.84 108.07 86.23 C 107.44 85.62 106.44 85.63 105.83 86.26 Z M 105.14 86.98 L 104.43 87.69 C 103.81 88.32 103.82 89.32 104.44 89.94 C 105.06 90.55 106.07 90.55 106.68 89.93 L 107.39 89.21 C 108.01 88.58 108.00 87.58 107.38 86.96 C 106.76 86.35 105.75 86.35 105.14 86.98 Z M 104.42 87.70 L 103.75 88.39 C 103.14 89.01 103.16 90.02 103.79 90.63 C 104.42 91.24 105.42 91.23 106.03 90.60 L 106.69 89.91 C 107.30 89.29 107.29 88.28 106.66 87.67 C 106.03 87.06 105.03 87.08 104.42 87.70 Z M 103.73 88.41 L 103.06 89.12 C 102.46 89.76 102.50 90.77 103.14 91.37 C 103.78 91.97 104.78 91.93 105.38 91.29 L 106.05 90.58 C 106.65 89.94 106.62 88.93 105.98 88.33 C 105.34 87.73 104.33 87.77 103.73 88.41 Z M 103.06 89.13 L 102.39 89.85 C 101.80 90.49 101.84 91.50 102.48 92.09 C 103.12 92.69 104.13 92.65 104.72 92.00 L 105.39 91.29 C 105.98 90.64 105.94 89.64 105.30 89.04 C 104.66 88.45 103.65 88.49 103.06 89.13 Z M 102.38 89.86 L 101.72 90.59 C 101.13 91.24 101.17 92.24 101.82 92.83 C 102.47 93.42 103.47 93.38 104.06 92.73 L 104.73 92.00 C 105.32 91.35 105.28 90.34 104.63 89.75 C 103.98 89.16 102.98 89.21 102.38 89.86 Z M 101.70 90.61 L 100.99 91.41 C 100.41 92.06 100.47 93.07 101.12 93.65 C 101.78 94.23 102.78 94.17 103.37 93.52 L 104.08 92.71 C 104.66 92.06 104.60 91.05 103.94 90.47 C 103.29 89.89 102.28 89.95 101.70 90.61 Z M 100.97 91.43 L 100.29 92.23 C 99.72 92.90 99.80 93.90 100.47 94.47 C 101.14 95.04 102.14 94.96 102.71 94.29 L 103.39 93.49 C 103.96 92.82 103.87 91.82 103.21 91.25 C 102.54 90.68 101.54 90.76 100.97 91.43 Z M 100.27 92.25 L 99.62 93.04 C 99.07 93.72 99.17 94.72 99.84 95.28 C 100.52 95.83 101.52 95.73 102.08 95.06 L 102.72 94.27 C 103.28 93.59 103.18 92.59 102.50 92.03 C 101.83 91.48 100.83 91.58 100.27 92.25 Z M 99.61 93.06 L 99.02 93.80 C 98.47 94.49 98.59 95.48 99.27 96.03 C 99.96 96.58 100.96 96.47 101.50 95.78 L 102.09 95.04 C 102.64 94.35 102.53 93.35 101.84 92.81 C 101.16 92.26 100.16 92.37 99.61 93.06 Z M 99.00 93.82 L 98.34 94.67 C 97.81 95.37 97.93 96.37 98.63 96.90 C 99.32 97.44 100.32 97.31 100.86 96.62 L 101.52 95.76 C 102.05 95.07 101.93 94.07 101.23 93.53 C 100.54 93.00 99.54 93.12 99.00 93.82 Z M 98.32 94.70 L 97.77 95.45 C 97.25 96.15 97.40 97.15 98.10 97.67 C 98.81 98.19 99.80 98.04 100.32 97.34 L 100.88 96.59 C 101.40 95.89 101.25 94.89 100.54 94.37 C 99.84 93.85 98.84 94.00 98.32 94.70 Z M 97.75 95.48 L 97.18 96.29 C 96.67 97.01 96.85 98.00 97.56 98.51 C 98.28 99.01 99.27 98.84 99.78 98.12 L 100.35 97.30 C 100.85 96.59 100.68 95.60 99.96 95.09 C 99.24 94.59 98.25 94.76 97.75 95.48 Z M 97.15 96.33 L 96.61 97.15 C 96.12 97.88 96.32 98.87 97.06 99.35 C 97.79 99.84 98.77 99.64 99.26 98.90 L 99.80 98.08 C 100.29 97.35 100.09 96.36 99.35 95.88 C 98.62 95.40 97.64 95.60 97.15 96.33 Z M 96.59 97.18 L 96.06 98.02 C 95.60 98.76 95.82 99.74 96.56 100.21 C 97.31 100.67 98.29 100.45 98.76 99.71 L 99.28 98.87 C 99.75 98.13 99.52 97.15 98.78 96.68 C 98.03 96.21 97.05 96.44 96.59 97.18 Z M 96.04 98.06 L 95.53 98.94 C 95.08 99.70 95.34 100.67 96.10 101.11 C 96.86 101.55 97.83 101.30 98.27 100.54 L 98.78 99.66 C 99.22 98.90 98.97 97.93 98.21 97.49 C 97.45 97.05 96.48 97.30 96.04 98.06 Z M 95.50 98.98 L 95.03 99.86 C 94.61 100.63 94.90 101.60 95.67 102.01 C 96.45 102.43 97.41 102.14 97.83 101.37 L 98.30 100.49 C 98.72 99.72 98.43 98.76 97.65 98.34 C 96.88 97.92 95.92 98.21 95.50 98.98 Z M 95.02 99.87 L 94.55 100.76 C 94.14 101.54 94.44 102.50 95.21 102.91 C 95.99 103.32 96.95 103.03 97.36 102.25 L 97.83 101.36 C 98.24 100.58 97.95 99.62 97.17 99.21 C 96.40 98.80 95.43 99.09 95.02 99.87 Z M 94.55 100.75 L 94.08 101.64 C 93.67 102.41 93.96 103.37 94.73 103.79 C 95.51 104.20 96.47 103.91 96.89 103.14 L 97.36 102.26 C 97.77 101.48 97.48 100.52 96.71 100.10 C 95.93 99.69 94.97 99.98 94.55 100.75 Z M 94.08 101.64 L 93.61 102.53 C 93.20 103.30 93.50 104.27 94.27 104.68 C 95.05 105.09 96.01 104.79 96.42 104.01 L 96.89 103.13 C 97.30 102.35 97.00 101.39 96.23 100.98 C 95.45 100.57 94.49 100.87 94.08 101.64 Z M 93.60 102.55 L 93.15 103.43 C 92.75 104.21 93.07 105.17 93.85 105.57 C 94.63 105.97 95.59 105.65 95.99 104.87 L 96.44 103.99 C 96.83 103.21 96.52 102.25 95.74 101.85 C 94.95 101.45 94.00 101.77 93.60 102.55 Z M 93.14 103.45 L 92.69 104.37 C 92.31 105.16 92.64 106.11 93.43 106.49 C 94.22 106.88 95.17 106.55 95.55 105.76 L 96.00 104.85 C 96.39 104.06 96.06 103.10 95.27 102.72 C 94.48 102.33 93.53 102.66 93.14 103.45 Z M 92.69 104.38 L 92.26 105.29 C 91.88 106.09 92.22 107.04 93.01 107.41 C 93.81 107.79 94.76 107.45 95.13 106.65 L 95.56 105.74 C 95.94 104.95 95.60 104.00 94.81 103.63 C 94.01 103.25 93.06 103.59 92.69 104.38 Z M 92.25 105.31 L 91.83 106.22 C 91.46 107.02 91.81 107.96 92.61 108.33 C 93.41 108.70 94.35 108.35 94.72 107.55 L 95.14 106.64 C 95.51 105.84 95.16 104.90 94.36 104.53 C 93.56 104.16 92.62 104.51 92.25 105.31 Z M 91.82 106.24 L 91.40 107.17 C 91.05 107.97 91.41 108.91 92.21 109.27 C 93.01 109.63 93.96 109.27 94.31 108.47 L 94.73 107.53 C 95.09 106.73 94.73 105.79 93.92 105.43 C 93.12 105.07 92.18 105.43 91.82 106.24 Z M 91.39 107.19 L 91.01 108.09 C 90.67 108.90 91.04 109.84 91.85 110.18 C 92.66 110.53 93.60 110.15 93.94 109.34 L 94.32 108.44 C 94.67 107.63 94.29 106.70 93.48 106.35 C 92.67 106.01 91.74 106.39 91.39 107.19 Z M 91.00 108.12 L 90.62 109.05 C 90.29 109.87 90.69 110.79 91.50 111.13 C 92.32 111.46 93.24 111.06 93.57 110.25 L 93.95 109.32 C 94.28 108.50 93.89 107.57 93.07 107.24 C 92.26 106.91 91.33 107.31 91.00 108.12 Z M 90.62 109.05 L 90.25 109.97 C 89.92 110.79 90.32 111.71 91.13 112.04 C 91.95 112.37 92.87 111.98 93.20 111.16 L 93.57 110.25 C 93.90 109.43 93.51 108.50 92.69 108.17 C 91.88 107.84 90.95 108.24 90.62 109.05 Z M 90.26 109.95 L 89.90 110.80 C 89.56 111.61 89.93 112.55 90.74 112.89 C 91.55 113.23 92.49 112.86 92.83 112.05 L 93.19 111.19 C 93.54 110.38 93.16 109.44 92.35 109.10 C 91.54 108.76 90.60 109.14 90.26 109.95 Z M 89.89 110.82 L 89.49 111.80 C 89.15 112.61 89.54 113.54 90.35 113.88 C 91.17 114.21 92.10 113.82 92.43 113.01 L 92.84 112.03 C 93.17 111.22 92.78 110.29 91.97 109.95 C 91.16 109.62 90.23 110.00 89.89 110.82 Z M 89.47 111.84 L 89.13 112.73 C 88.82 113.55 89.23 114.47 90.05 114.79 C 90.88 115.10 91.80 114.69 92.11 113.86 L 92.45 112.97 C 92.76 112.15 92.35 111.23 91.53 110.92 C 90.71 110.60 89.79 111.02 89.47 111.84 Z M 89.12 112.76 L 88.77 113.73 C 88.48 114.56 88.91 115.47 89.73 115.77 C 90.56 116.06 91.48 115.63 91.77 114.80 L 92.12 113.83 C 92.42 113.01 91.99 112.09 91.16 111.80 C 90.33 111.50 89.42 111.93 89.12 112.76 Z M 88.76 113.76 L 88.43 114.75 C 88.15 115.59 88.59 116.49 89.43 116.77 C 90.26 117.05 91.16 116.61 91.45 115.77 L 91.78 114.78 C 92.06 113.94 91.62 113.04 90.78 112.76 C 89.95 112.47 89.05 112.92 88.76 113.76 Z M 88.41 114.80 L 88.11 115.79 C 87.86 116.63 88.33 117.52 89.17 117.78 C 90.02 118.03 90.91 117.56 91.16 116.71 L 91.46 115.72 C 91.72 114.88 91.24 113.99 90.40 113.74 C 89.56 113.48 88.67 113.96 88.41 114.80 Z M 88.09 115.88 L 87.87 116.80 C 87.67 117.66 88.20 118.52 89.05 118.72 C 89.91 118.92 90.77 118.39 90.97 117.54 L 91.19 116.62 C 91.39 115.76 90.86 114.90 90.00 114.70 C 89.15 114.50 88.29 115.03 88.09 115.88 Z M 87.84 116.96 L 87.71 117.95 C 87.59 118.82 88.20 119.62 89.08 119.74 C 89.95 119.85 90.75 119.24 90.87 118.37 L 91.00 117.38 C 91.12 116.51 90.50 115.71 89.63 115.59 C 88.76 115.47 87.96 116.09 87.84 116.96 Z M 87.70 118.08 L 87.65 119.07 C 87.61 119.95 88.29 120.70 89.17 120.74 C 90.05 120.78 90.79 120.10 90.83 119.22 L 90.88 118.23 C 90.92 117.35 90.24 116.61 89.36 116.57 C 88.48 116.52 87.74 117.21 87.70 118.08 Z M 87.65 119.13 L 87.64 120.14 C 87.63 121.02 88.33 121.74 89.21 121.75 C 90.09 121.76 90.81 121.06 90.82 120.18 L 90.84 119.17 C 90.85 118.29 90.14 117.56 89.26 117.55 C 88.38 117.54 87.66 118.25 87.65 119.13 Z M 87.64 120.17 L 87.64 121.17 C 87.65 122.05 88.36 122.76 89.24 122.76 C 90.12 122.75 90.83 122.04 90.83 121.16 L 90.82 120.15 C 90.82 119.27 90.10 118.56 89.22 118.57 C 88.34 118.57 87.63 119.29 87.64 120.17 Z M 87.64 121.21 L 87.67 122.16 C 87.69 123.04 88.42 123.73 89.30 123.71 C 90.18 123.68 90.88 122.95 90.85 122.07 L 90.83 121.12 C 90.80 120.24 90.07 119.55 89.19 119.57 C 88.31 119.59 87.62 120.33 87.64 121.21 Z M 87.67 122.26 L 87.76 123.24 C 87.84 124.12 88.62 124.77 89.49 124.69 C 90.37 124.61 91.02 123.83 90.94 122.96 L 90.85 121.97 C 90.77 121.10 89.99 120.45 89.12 120.53 C 88.24 120.61 87.59 121.38 87.67 122.26 Z M 87.78 123.36 L 87.95 124.36 C 88.09 125.23 88.91 125.82 89.78 125.67 C 90.65 125.53 91.23 124.71 91.09 123.84 L 90.92 122.84 C 90.78 121.97 89.95 121.38 89.09 121.53 C 88.22 121.67 87.63 122.50 87.78 123.36 Z M 87.96 124.43 L 88.17 125.44 C 88.35 126.30 89.19 126.85 90.06 126.67 C 90.92 126.49 91.47 125.65 91.29 124.79 L 91.08 123.77 C 90.90 122.91 90.05 122.36 89.19 122.54 C 88.33 122.72 87.78 123.57 87.96 124.43 Z M 88.18 125.47 L 88.40 126.44 C 88.60 127.30 89.45 127.84 90.31 127.64 C 91.17 127.44 91.70 126.58 91.51 125.73 L 91.28 124.75 C 91.08 123.90 90.23 123.36 89.37 123.56 C 88.51 123.76 87.98 124.61 88.18 125.47 Z M 88.40 126.46 L 88.66 127.50 C 88.87 128.36 89.73 128.88 90.58 128.68 C 91.44 128.47 91.96 127.60 91.75 126.75 L 91.50 125.71 C 91.29 124.85 90.43 124.33 89.58 124.54 C 88.72 124.75 88.20 125.61 88.40 126.46 Z M 88.66 127.52 L 88.89 128.42 C 89.10 129.28 89.97 129.79 90.82 129.58 C 91.68 129.36 92.20 128.50 91.98 127.64 L 91.75 126.74 C 91.54 125.88 90.67 125.37 89.82 125.58 C 88.96 125.80 88.45 126.66 88.66 127.52 Z M 88.89 128.42 L 89.13 129.37 C 89.34 130.22 90.20 130.74 91.06 130.53 C 91.91 130.31 92.43 129.45 92.22 128.59 L 91.98 127.65 C 91.77 126.79 90.90 126.27 90.05 126.49 C 89.19 126.70 88.68 127.57 88.89 128.42 Z M 89.13 129.37 L 89.37 130.35 C 89.59 131.21 90.46 131.72 91.31 131.51 C 92.16 131.29 92.68 130.43 92.46 129.57 L 92.22 128.59 C 92.00 127.74 91.14 127.22 90.28 127.44 C 89.43 127.65 88.91 128.52 89.13 129.37 Z M 89.38 130.36 L 89.63 131.31 C 89.85 132.17 90.72 132.68 91.57 132.45 C 92.42 132.23 92.93 131.36 92.71 130.51 L 92.46 129.56 C 92.24 128.71 91.37 128.20 90.52 128.42 C 89.67 128.64 89.16 129.51 89.38 130.36 Z M 89.63 131.33 L 89.89 132.30 C 90.12 133.15 90.99 133.66 91.84 133.43 C 92.69 133.20 93.20 132.33 92.97 131.48 L 92.71 130.50 C 92.48 129.65 91.60 129.14 90.75 129.37 C 89.90 129.60 89.40 130.48 89.63 131.33 Z M 89.89 132.31 L 90.16 133.29 C 90.39 134.14 91.27 134.64 92.12 134.40 C 92.97 134.17 93.47 133.29 93.23 132.44 L 92.97 131.47 C 92.73 130.62 91.86 130.12 91.01 130.35 C 90.16 130.59 89.66 131.46 89.89 132.31 Z M 90.16 133.30 L 90.44 134.27 C 90.68 135.12 91.56 135.61 92.41 135.37 C 93.25 135.13 93.75 134.24 93.51 133.40 L 93.23 132.43 C 92.99 131.58 92.11 131.09 91.26 131.33 C 90.42 131.57 89.92 132.46 90.16 133.30 Z M 90.45 134.30 L 90.74 135.27 C 91.00 136.11 91.89 136.59 92.73 136.33 C 93.57 136.08 94.05 135.19 93.79 134.34 L 93.50 133.37 C 93.24 132.53 92.35 132.05 91.51 132.31 C 90.67 132.56 90.19 133.45 90.45 134.30 Z M 90.75 135.30 L 91.06 136.24 C 91.33 137.08 92.23 137.53 93.07 137.26 C 93.90 136.99 94.36 136.09 94.09 135.25 L 93.78 134.31 C 93.51 133.48 92.61 133.02 91.77 133.29 C 90.94 133.56 90.48 134.46 90.75 135.30 Z M 91.07 136.26 L 91.39 137.20 C 91.68 138.03 92.58 138.48 93.41 138.19 C 94.25 137.91 94.69 137.00 94.40 136.17 L 94.08 135.23 C 93.80 134.40 92.89 133.95 92.06 134.24 C 91.22 134.53 90.78 135.43 91.07 136.26 Z M 91.40 137.24 L 91.75 138.17 C 92.06 139.00 92.97 139.42 93.80 139.11 C 94.62 138.81 95.04 137.89 94.74 137.06 L 94.39 136.13 C 94.08 135.31 93.17 134.89 92.34 135.19 C 91.52 135.50 91.10 136.42 91.40 137.24 Z M 91.78 138.24 L 92.17 139.16 C 92.51 139.97 93.45 140.35 94.26 140.01 C 95.07 139.66 95.44 138.73 95.10 137.92 L 94.71 137.00 C 94.37 136.19 93.43 135.81 92.62 136.15 C 91.81 136.50 91.43 137.43 91.78 138.24 Z M 92.19 139.21 L 92.61 140.11 C 92.98 140.91 93.93 141.26 94.73 140.89 C 95.52 140.52 95.87 139.57 95.50 138.77 L 95.08 137.87 C 94.71 137.07 93.76 136.72 92.96 137.10 C 92.17 137.47 91.82 138.41 92.19 139.21 Z M 92.62 140.13 L 93.05 141.03 C 93.43 141.83 94.38 142.16 95.18 141.78 C 95.97 141.40 96.30 140.45 95.92 139.66 L 95.49 138.75 C 95.11 137.96 94.16 137.63 93.37 138.01 C 92.57 138.39 92.24 139.34 92.62 140.13 Z M 93.06 141.06 L 93.51 141.95 C 93.90 142.73 94.86 143.05 95.64 142.66 C 96.43 142.27 96.75 141.31 96.36 140.52 L 95.91 139.63 C 95.52 138.85 94.56 138.53 93.78 138.92 C 92.99 139.31 92.67 140.27 93.06 141.06 Z M 93.52 141.98 L 93.99 142.85 C 94.40 143.63 95.36 143.92 96.14 143.51 C 96.92 143.10 97.21 142.13 96.80 141.36 L 96.34 140.49 C 95.93 139.71 94.96 139.42 94.19 139.83 C 93.41 140.24 93.11 141.20 93.52 141.98 Z M 93.99 142.87 L 94.48 143.76 C 94.90 144.53 95.87 144.81 96.64 144.39 C 97.41 143.97 97.70 143.01 97.28 142.23 L 96.79 141.34 C 96.37 140.57 95.40 140.28 94.63 140.71 C 93.86 141.13 93.57 142.09 93.99 142.87 Z M 94.48 143.76 L 94.97 144.65 C 95.39 145.42 96.36 145.70 97.13 145.27 C 97.90 144.85 98.18 143.88 97.76 143.11 L 97.27 142.23 C 96.85 141.46 95.88 141.18 95.11 141.60 C 94.34 142.02 94.06 142.99 94.48 143.76 Z M 94.98 144.66 L 95.47 145.54 C 95.90 146.30 96.87 146.57 97.64 146.14 C 98.41 145.71 98.68 144.74 98.24 143.97 L 97.75 143.10 C 97.32 142.33 96.35 142.06 95.58 142.49 C 94.81 142.92 94.54 143.89 94.98 144.66 Z M 95.48 145.55 L 95.97 146.41 C 96.41 147.17 97.39 147.43 98.15 146.99 C 98.91 146.56 99.17 145.58 98.73 144.82 L 98.24 143.96 C 97.80 143.20 96.82 142.94 96.06 143.37 C 95.30 143.81 95.04 144.79 95.48 145.55 Z M 95.97 146.39 L 96.45 147.25 C 96.88 148.02 97.85 148.29 98.61 147.86 C 99.38 147.43 99.65 146.46 99.22 145.69 L 98.74 144.84 C 98.31 144.07 97.34 143.80 96.58 144.23 C 95.81 144.66 95.54 145.63 95.97 146.39 Z M 96.44 147.23 L 96.91 148.11 C 97.33 148.88 98.30 149.17 99.07 148.75 C 99.84 148.33 100.13 147.36 99.71 146.59 L 99.23 145.71 C 98.81 144.94 97.85 144.65 97.07 145.07 C 96.30 145.49 96.02 146.46 96.44 147.23 Z M 96.92 148.12 L 97.40 149.00 C 97.83 149.77 98.79 150.05 99.56 149.62 C 100.33 149.20 100.61 148.23 100.19 147.46 L 99.71 146.58 C 99.28 145.81 98.31 145.53 97.54 145.96 C 96.77 146.38 96.49 147.35 96.92 148.12 Z M 97.41 149.00 L 97.89 149.87 C 98.32 150.64 99.29 150.91 100.06 150.49 C 100.82 150.06 101.10 149.09 100.67 148.32 L 100.18 147.45 C 99.76 146.68 98.79 146.41 98.02 146.84 C 97.25 147.27 96.98 148.24 97.41 149.00 Z M 97.89 149.86 L 98.37 150.74 C 98.79 151.51 99.76 151.80 100.53 151.37 C 101.30 150.95 101.58 149.98 101.16 149.21 L 100.68 148.33 C 100.25 147.56 99.29 147.28 98.52 147.70 C 97.75 148.12 97.46 149.09 97.89 149.86 Z M 98.36 150.73 L 98.82 151.59 C 99.23 152.37 100.20 152.67 100.97 152.25 C 101.75 151.84 102.04 150.88 101.63 150.10 L 101.17 149.23 C 100.76 148.46 99.79 148.16 99.02 148.57 C 98.24 148.99 97.95 149.95 98.36 150.73 Z M 98.82 151.59 L 99.30 152.50 C 99.70 153.27 100.67 153.57 101.44 153.17 C 102.22 152.76 102.52 151.79 102.11 151.02 L 101.63 150.11 C 101.23 149.33 100.26 149.03 99.49 149.44 C 98.71 149.85 98.41 150.81 98.82 151.59 Z M 99.30 152.50 L 99.77 153.39 C 100.18 154.17 101.14 154.47 101.92 154.06 C 102.70 153.65 102.99 152.68 102.58 151.91 L 102.11 151.01 C 101.70 150.24 100.74 149.94 99.96 150.35 C 99.18 150.76 98.89 151.72 99.30 152.50 Z M 99.78 153.40 L 100.25 154.29 C 100.67 155.06 101.64 155.35 102.41 154.94 C 103.18 154.52 103.47 153.55 103.05 152.78 L 102.58 151.90 C 102.16 151.12 101.20 150.83 100.42 151.25 C 99.65 151.67 99.36 152.63 99.78 153.40 Z M 100.26 154.31 L 100.75 155.19 C 101.18 155.96 102.15 156.24 102.92 155.81 C 103.69 155.38 103.96 154.41 103.53 153.64 L 103.04 152.76 C 102.62 151.99 101.65 151.72 100.88 152.15 C 100.11 152.57 99.84 153.54 100.26 154.31 Z M 100.77 155.21 L 101.26 156.08 C 101.70 156.84 102.67 157.10 103.44 156.66 C 104.20 156.23 104.46 155.25 104.02 154.49 L 103.52 153.62 C 103.09 152.86 102.11 152.60 101.35 153.04 C 100.59 153.48 100.33 154.45 100.77 155.21 Z M 101.27 156.09 L 101.76 156.93 C 102.21 157.69 103.18 157.94 103.94 157.50 C 104.70 157.06 104.95 156.08 104.51 155.32 L 104.02 154.48 C 103.57 153.72 102.60 153.47 101.84 153.91 C 101.08 154.35 100.83 155.33 101.27 156.09 Z M 101.77 156.94 L 102.27 157.80 C 102.72 158.55 103.70 158.81 104.45 158.36 C 105.21 157.91 105.46 156.94 105.01 156.18 L 104.51 155.32 C 104.06 154.56 103.08 154.31 102.33 154.76 C 101.57 155.20 101.32 156.18 101.77 156.94 Z M 102.28 157.81 L 102.80 158.67 C 103.26 159.42 104.24 159.66 104.99 159.20 C 105.74 158.75 105.98 157.77 105.52 157.02 L 105.00 156.16 C 104.55 155.41 103.57 155.17 102.82 155.63 C 102.07 156.09 101.83 157.06 102.28 157.81 Z M 102.82 158.70 L 103.37 159.55 C 103.84 160.29 104.82 160.51 105.56 160.04 C 106.30 159.57 106.52 158.59 106.05 157.84 L 105.51 156.99 C 105.03 156.25 104.05 156.03 103.31 156.50 C 102.57 156.98 102.35 157.96 102.82 158.70 Z M 103.39 159.59 L 103.94 160.41 C 104.44 161.14 105.42 161.33 106.15 160.83 C 106.88 160.34 107.07 159.35 106.58 158.62 L 106.03 157.81 C 105.53 157.08 104.54 156.89 103.82 157.38 C 103.09 157.87 102.90 158.86 103.39 159.59 Z M 103.97 160.45 L 104.57 161.27 C 105.09 161.98 106.08 162.14 106.80 161.62 C 107.51 161.10 107.66 160.11 107.14 159.40 L 106.55 158.58 C 106.03 157.87 105.03 157.71 104.32 158.23 C 103.61 158.75 103.46 159.74 103.97 160.45 Z M 104.61 161.32 L 105.22 162.09 C 105.76 162.78 106.76 162.90 107.45 162.36 C 108.14 161.81 108.26 160.81 107.72 160.12 L 107.11 159.35 C 106.56 158.66 105.56 158.54 104.87 159.09 C 104.18 159.63 104.07 160.63 104.61 161.32 Z M 105.26 162.14 L 105.90 162.89 C 106.47 163.56 107.47 163.64 108.14 163.07 C 108.81 162.50 108.89 161.50 108.32 160.83 L 107.68 160.07 C 107.11 159.41 106.10 159.33 105.43 159.90 C 104.77 160.47 104.69 161.47 105.26 162.14 Z M 105.94 162.94 L 106.63 163.68 C 107.22 164.33 108.23 164.37 108.87 163.78 C 109.52 163.18 109.56 162.17 108.97 161.53 L 108.28 160.78 C 107.69 160.14 106.68 160.10 106.03 160.69 C 105.39 161.29 105.34 162.29 105.94 162.94 Z M 106.67 163.73 L 107.39 164.45 C 108.01 165.07 109.02 165.07 109.64 164.45 C 110.26 163.82 110.26 162.82 109.64 162.20 L 108.92 161.48 C 108.30 160.86 107.29 160.86 106.67 161.48 C 106.05 162.10 106.05 163.11 106.67 163.73 Z M 107.48 164.53 L 108.24 165.18 C 108.91 165.75 109.91 165.67 110.48 165.00 C 111.05 164.33 110.97 163.33 110.31 162.76 L 109.55 162.11 C 108.88 161.54 107.88 161.62 107.31 162.29 C 106.74 162.96 106.81 163.96 107.48 164.53 Z M 108.39 165.30 L 109.23 165.85 C 109.96 166.33 110.95 166.13 111.43 165.40 C 111.92 164.67 111.72 163.68 110.98 163.19 L 110.15 162.64 C 109.42 162.16 108.43 162.36 107.95 163.09 C 107.46 163.82 107.66 164.81 108.39 165.30 Z M 109.37 165.93 L 110.23 166.38 C 111.01 166.79 111.97 166.49 112.38 165.72 C 112.79 164.94 112.49 163.98 111.71 163.57 L 110.85 163.11 C 110.07 162.70 109.11 163.00 108.70 163.78 C 108.29 164.56 108.59 165.52 109.37 165.93 Z M 110.34 166.43 L 111.26 166.84 C 112.06 167.19 113.00 166.82 113.35 166.01 C 113.70 165.21 113.33 164.27 112.53 163.92 L 111.61 163.52 C 110.80 163.17 109.87 163.53 109.51 164.34 C 109.16 165.15 109.53 166.08 110.34 166.43 Z M 111.36 166.88 L 112.29 167.21 C 113.11 167.50 114.02 167.07 114.32 166.24 C 114.61 165.42 114.18 164.51 113.35 164.21 L 112.43 163.88 C 111.60 163.58 110.69 164.02 110.39 164.84 C 110.10 165.67 110.53 166.58 111.36 166.88 Z M 112.37 167.23 L 113.34 167.52 C 114.18 167.77 115.07 167.29 115.32 166.45 C 115.57 165.61 115.09 164.72 114.25 164.47 L 113.27 164.18 C 112.43 163.93 111.54 164.41 111.29 165.26 C 111.04 166.10 111.52 166.98 112.37 167.23 Z M 113.40 167.54 L 114.36 167.79 C 115.21 168.00 116.07 167.49 116.29 166.64 C 116.51 165.79 116.00 164.92 115.15 164.70 L 114.19 164.46 C 113.34 164.24 112.47 164.75 112.25 165.60 C 112.03 166.45 112.55 167.32 113.40 167.54 Z M 114.40 167.80 L 115.38 168.02 C 116.24 168.22 117.09 167.68 117.29 166.83 C 117.48 165.97 116.95 165.12 116.09 164.92 L 115.11 164.69 C 114.25 164.50 113.40 165.03 113.20 165.89 C 113.01 166.74 113.54 167.60 114.40 167.80 Z M 115.41 168.03 L 116.37 168.23 C 117.23 168.41 118.07 167.86 118.25 167.00 C 118.43 166.14 117.88 165.29 117.02 165.11 L 116.06 164.91 C 115.20 164.73 114.36 165.28 114.18 166.14 C 114.00 167.00 114.55 167.85 115.41 168.03 Z M 116.38 168.23 L 117.38 168.43 C 118.24 168.61 119.08 168.05 119.26 167.19 C 119.43 166.32 118.87 165.49 118.01 165.31 L 117.01 165.11 C 116.15 164.94 115.31 165.50 115.13 166.36 C 114.96 167.22 115.52 168.06 116.38 168.23 Z M 117.39 168.43 L 118.37 168.63 C 119.24 168.80 120.07 168.23 120.24 167.37 C 120.41 166.51 119.85 165.67 118.99 165.50 L 118.00 165.31 C 117.14 165.14 116.30 165.70 116.14 166.57 C 115.97 167.43 116.53 168.26 117.39 168.43 Z M 118.41 168.63 L 119.40 168.80 C 120.26 168.95 121.09 168.37 121.24 167.51 C 121.39 166.64 120.81 165.82 119.94 165.67 L 118.95 165.50 C 118.09 165.35 117.26 165.93 117.11 166.79 C 116.96 167.66 117.54 168.48 118.41 168.63 Z M 119.47 168.82 L 120.48 168.94 C 121.35 169.05 122.15 168.43 122.26 167.56 C 122.37 166.69 121.75 165.89 120.87 165.78 L 119.86 165.66 C 118.99 165.55 118.20 166.17 118.09 167.04 C 117.98 167.91 118.60 168.71 119.47 168.82 Z M 120.56 168.95 L 121.53 169.02 C 122.41 169.09 123.17 168.44 123.24 167.56 C 123.31 166.69 122.66 165.92 121.78 165.85 L 120.80 165.78 C 119.93 165.71 119.16 166.36 119.09 167.24 C 119.02 168.11 119.68 168.88 120.56 168.95 Z M 121.57 169.03 L 122.56 169.08 C 123.43 169.13 124.18 168.46 124.23 167.58 C 124.28 166.70 123.61 165.95 122.73 165.90 L 121.74 165.85 C 120.87 165.80 120.12 166.47 120.07 167.35 C 120.02 168.23 120.69 168.98 121.57 169.03 Z M 122.56 169.08 L 123.57 169.13 C 124.44 169.18 125.19 168.50 125.24 167.63 C 125.28 166.75 124.61 166.00 123.73 165.96 L 122.72 165.90 C 121.85 165.86 121.10 166.53 121.05 167.41 C 121.01 168.29 121.68 169.04 122.56 169.08 Z M 123.55 169.13 L 124.55 169.19 C 125.42 169.24 126.18 168.58 126.23 167.70 C 126.28 166.82 125.62 166.07 124.74 166.02 L 123.74 165.96 C 122.87 165.90 122.11 166.57 122.06 167.45 C 122.01 168.32 122.68 169.08 123.55 169.13 Z M 124.54 169.19 L 125.55 169.25 C 126.42 169.31 127.18 168.64 127.23 167.77 C 127.29 166.89 126.62 166.14 125.74 166.08 L 124.74 166.02 C 123.87 165.96 123.11 166.63 123.06 167.50 C 123.00 168.38 123.67 169.14 124.54 169.19 Z M 125.56 169.25 L 126.56 169.31 C 127.44 169.35 128.19 168.68 128.23 167.80 C 128.28 166.93 127.60 166.18 126.73 166.13 L 125.73 166.08 C 124.85 166.04 124.10 166.71 124.06 167.58 C 124.01 168.46 124.69 169.21 125.56 169.25 Z M 126.59 169.31 L 127.59 169.34 C 128.47 169.37 129.20 168.69 129.23 167.81 C 129.26 166.93 128.58 166.20 127.70 166.17 L 126.70 166.13 C 125.83 166.10 125.09 166.79 125.06 167.66 C 125.03 168.54 125.71 169.27 126.59 169.31 Z M 127.62 169.34 L 128.60 169.36 C 129.47 169.37 130.19 168.68 130.21 167.80 C 130.22 166.92 129.53 166.20 128.65 166.18 L 127.67 166.17 C 126.80 166.15 126.07 166.85 126.06 167.73 C 126.04 168.60 126.74 169.33 127.62 169.34 Z M 128.62 169.36 L 129.61 169.36 C 130.49 169.37 131.20 168.66 131.21 167.78 C 131.21 166.91 130.50 166.19 129.63 166.19 L 128.63 166.19 C 127.75 166.18 127.04 166.89 127.04 167.76 C 127.03 168.64 127.74 169.35 128.62 169.36 Z M 129.62 169.36 L 130.64 169.36 C 131.51 169.36 132.22 168.65 132.22 167.78 C 132.22 166.90 131.51 166.19 130.64 166.19 L 129.62 166.19 C 128.75 166.19 128.04 166.90 128.04 167.78 C 128.04 168.65 128.75 169.36 129.62 169.36 Z M 130.64 169.36 L 131.65 169.36 C 132.52 169.36 133.23 168.65 133.23 167.78 C 133.23 166.90 132.52 166.19 131.65 166.19 L 130.64 166.19 C 129.76 166.19 129.05 166.90 129.05 167.78 C 129.05 168.65 129.76 169.36 130.64 169.36 Z M 131.65 169.36 L 132.65 169.36 C 133.53 169.36 134.23 168.65 134.23 167.78 C 134.23 166.90 133.53 166.19 132.65 166.19 L 131.65 166.19 C 130.78 166.19 130.07 166.90 130.07 167.78 C 130.07 168.65 130.78 169.36 131.65 169.36 Z M 132.65 169.36 L 133.66 169.36 C 134.53 169.36 135.24 168.64 135.24 167.77 C 135.24 166.90 134.53 166.19 133.65 166.19 L 132.65 166.19 C 131.77 166.19 131.07 166.90 131.07 167.78 C 131.07 168.65 131.78 169.36 132.65 169.36 Z M 133.67 169.36 L 134.66 169.35 C 135.54 169.34 136.24 168.62 136.23 167.75 C 136.22 166.87 135.50 166.17 134.63 166.18 L 133.64 166.19 C 132.76 166.20 132.06 166.92 132.07 167.79 C 132.08 168.67 132.80 169.37 133.67 169.36 Z M 134.69 169.34 L 135.66 169.32 C 136.53 169.29 137.22 168.57 137.20 167.69 C 137.17 166.82 136.44 166.13 135.57 166.16 L 134.60 166.18 C 133.73 166.21 133.04 166.93 133.06 167.81 C 133.09 168.68 133.81 169.37 134.69 169.34 Z M 135.70 169.32 L 136.71 169.26 C 137.58 169.22 138.25 168.48 138.21 167.60 C 138.16 166.73 137.42 166.06 136.54 166.10 L 135.53 166.16 C 134.66 166.20 133.99 166.95 134.03 167.82 C 134.08 168.69 134.82 169.36 135.70 169.32 Z M 136.76 169.26 L 137.76 169.18 C 138.63 169.10 139.28 168.34 139.20 167.47 C 139.13 166.60 138.36 165.95 137.49 166.02 L 136.49 166.11 C 135.62 166.18 134.98 166.95 135.05 167.82 C 135.12 168.69 135.89 169.33 136.76 169.26 Z M 137.81 169.17 L 138.80 169.06 C 139.66 168.96 140.29 168.17 140.19 167.31 C 140.09 166.44 139.30 165.82 138.44 165.92 L 137.45 166.03 C 136.58 166.13 135.96 166.91 136.06 167.78 C 136.15 168.65 136.94 169.27 137.81 169.17 Z M 138.83 169.05 L 139.84 168.91 C 140.70 168.79 141.31 168.00 141.19 167.13 C 141.07 166.27 140.27 165.66 139.41 165.78 L 138.40 165.92 C 137.53 166.04 136.93 166.84 137.05 167.70 C 137.17 168.57 137.97 169.17 138.83 169.05 Z M 139.87 168.91 L 140.85 168.76 C 141.72 168.62 142.31 167.81 142.17 166.95 C 142.04 166.09 141.23 165.50 140.37 165.63 L 139.38 165.79 C 138.52 165.92 137.93 166.73 138.06 167.59 C 138.20 168.45 139.00 169.04 139.87 168.91 Z M 140.87 168.75 L 141.86 168.59 C 142.72 168.44 143.30 167.63 143.16 166.77 C 143.01 165.90 142.20 165.32 141.34 165.47 L 140.35 165.63 C 139.49 165.78 138.91 166.59 139.05 167.46 C 139.19 168.32 140.01 168.90 140.87 168.75 Z M 141.87 168.58 L 142.85 168.41 C 143.71 168.26 144.29 167.44 144.14 166.58 C 143.98 165.72 143.16 165.15 142.30 165.30 L 141.32 165.47 C 140.46 165.62 139.89 166.44 140.04 167.30 C 140.19 168.16 141.01 168.74 141.87 168.58 Z M 142.87 168.41 L 143.84 168.23 C 144.70 168.07 145.27 167.25 145.11 166.39 C 144.95 165.53 144.12 164.96 143.27 165.12 L 142.29 165.30 C 141.43 165.46 140.86 166.28 141.02 167.14 C 141.18 168.00 142.01 168.57 142.87 168.41 Z M 143.87 168.22 L 144.85 168.03 C 145.71 167.85 146.26 167.02 146.09 166.16 C 145.92 165.31 145.08 164.75 144.23 164.93 L 143.24 165.13 C 142.38 165.30 141.83 166.13 142.00 166.99 C 142.18 167.84 143.01 168.40 143.87 168.22 Z M 144.89 168.02 L 145.87 167.79 C 146.73 167.60 147.26 166.76 147.07 165.90 C 146.88 165.05 146.03 164.52 145.18 164.71 L 144.19 164.93 C 143.34 165.13 142.81 165.97 143.00 166.82 C 143.19 167.68 144.04 168.21 144.89 168.02 Z M 145.91 167.79 L 146.89 167.54 C 147.74 167.33 148.25 166.47 148.04 165.62 C 147.83 164.77 146.97 164.26 146.12 164.47 L 145.14 164.72 C 144.29 164.93 143.78 165.79 143.99 166.64 C 144.21 167.48 145.06 168.00 145.91 167.79 Z M 146.93 167.53 L 147.88 167.27 C 148.72 167.03 149.21 166.16 148.98 165.32 C 148.75 164.48 147.87 163.99 147.03 164.22 L 146.08 164.48 C 145.24 164.72 144.75 165.59 144.98 166.43 C 145.22 167.27 146.09 167.76 146.93 167.53 Z M 147.93 167.25 L 148.92 166.94 C 149.75 166.68 150.21 165.80 149.96 164.96 C 149.70 164.13 148.81 163.67 147.98 163.93 L 146.99 164.23 C 146.15 164.49 145.69 165.38 145.95 166.21 C 146.21 167.05 147.09 167.51 147.93 167.25 Z M 148.96 166.93 L 149.89 166.61 C 150.71 166.32 151.15 165.42 150.86 164.60 C 150.58 163.77 149.68 163.33 148.85 163.62 L 147.93 163.94 C 147.10 164.23 146.67 165.13 146.95 165.95 C 147.24 166.78 148.14 167.21 148.96 166.93 Z M 149.93 166.59 L 150.86 166.24 C 151.67 165.93 152.08 165.02 151.78 164.21 C 151.47 163.39 150.56 162.98 149.74 163.29 L 148.81 163.64 C 148.00 163.94 147.58 164.86 147.89 165.67 C 148.20 166.49 149.11 166.90 149.93 166.59 Z M 150.89 166.23 L 151.82 165.85 C 152.63 165.52 153.02 164.60 152.69 163.79 C 152.36 162.98 151.44 162.60 150.63 162.92 L 149.70 163.30 C 148.89 163.63 148.51 164.55 148.83 165.36 C 149.16 166.17 150.08 166.56 150.89 166.23 Z M 151.85 165.84 L 152.76 165.44 C 153.56 165.10 153.93 164.16 153.58 163.36 C 153.24 162.56 152.31 162.20 151.51 162.54 L 150.59 162.94 C 149.79 163.29 149.43 164.22 149.77 165.02 C 150.12 165.82 151.05 166.19 151.85 165.84 Z M 152.80 165.43 L 153.71 165.01 C 154.50 164.64 154.84 163.70 154.48 162.91 C 154.11 162.12 153.17 161.77 152.38 162.14 L 151.47 162.56 C 150.68 162.92 150.33 163.86 150.70 164.66 C 151.07 165.45 152.01 165.79 152.80 165.43 Z M 153.75 164.99 L 154.64 164.54 C 155.42 164.15 155.74 163.21 155.35 162.42 C 154.96 161.64 154.01 161.33 153.23 161.71 L 152.34 162.16 C 151.56 162.55 151.24 163.50 151.63 164.28 C 152.02 165.06 152.97 165.38 153.75 164.99 Z M 154.68 164.52 L 155.56 164.05 C 156.33 163.64 156.62 162.68 156.21 161.91 C 155.79 161.14 154.83 160.85 154.07 161.27 L 153.19 161.74 C 152.42 162.15 152.13 163.11 152.54 163.88 C 152.96 164.65 153.92 164.93 154.68 164.52 Z M 155.60 164.03 L 156.47 163.53 C 157.23 163.09 157.49 162.12 157.05 161.37 C 156.62 160.61 155.65 160.35 154.89 160.79 L 154.02 161.29 C 153.27 161.72 153.01 162.69 153.44 163.45 C 153.88 164.20 154.85 164.46 155.60 164.03 Z M 156.51 163.50 L 157.34 163.00 C 158.08 162.54 158.32 161.57 157.86 160.82 C 157.41 160.08 156.44 159.84 155.69 160.30 L 154.86 160.81 C 154.11 161.26 153.88 162.24 154.34 162.98 C 154.79 163.72 155.76 163.96 156.51 163.50 Z M 157.36 162.98 L 158.21 162.44 C 158.95 161.97 159.17 160.99 158.70 160.26 C 158.23 159.52 157.25 159.31 156.52 159.77 L 155.67 160.31 C 154.93 160.78 154.71 161.76 155.18 162.50 C 155.65 163.23 156.63 163.45 157.36 162.98 Z M 158.23 162.43 L 159.08 161.88 C 159.81 161.40 160.02 160.42 159.54 159.69 C 159.06 158.96 158.09 158.75 157.35 159.23 L 156.50 159.78 C 155.77 160.26 155.56 161.24 156.04 161.97 C 156.52 162.70 157.50 162.91 158.23 162.43 Z M 159.09 161.87 L 159.93 161.31 C 160.66 160.83 160.86 159.85 160.37 159.12 C 159.89 158.39 158.91 158.20 158.18 158.68 L 157.34 159.24 C 156.61 159.72 156.42 160.70 156.90 161.43 C 157.38 162.16 158.36 162.35 159.09 161.87 Z M 159.96 161.29 L 160.78 160.73 C 161.49 160.23 161.67 159.24 161.17 158.53 C 160.68 157.81 159.69 157.63 158.98 158.13 L 158.16 158.70 C 157.44 159.19 157.26 160.18 157.76 160.89 C 158.26 161.61 159.24 161.79 159.96 161.29 Z M 160.81 160.70 L 161.63 160.10 C 162.33 159.58 162.48 158.59 161.96 157.89 C 161.44 157.19 160.46 157.04 159.75 157.56 L 158.94 158.15 C 158.24 158.67 158.09 159.66 158.60 160.36 C 159.12 161.07 160.11 161.22 160.81 160.70 Z M 161.66 160.08 L 162.44 159.47 C 163.13 158.94 163.25 157.95 162.72 157.26 C 162.19 156.57 161.19 156.44 160.50 156.97 L 159.72 157.58 C 159.03 158.11 158.91 159.10 159.44 159.79 C 159.97 160.48 160.97 160.61 161.66 160.08 Z M 162.45 159.46 L 163.22 158.85 C 163.91 158.31 164.02 157.31 163.48 156.63 C 162.94 155.95 161.94 155.83 161.26 156.37 L 160.49 156.99 C 159.81 157.53 159.69 158.52 160.23 159.20 C 160.77 159.89 161.77 160.00 162.45 159.46 Z M 163.23 158.84 L 164.01 158.21 C 164.69 157.67 164.80 156.67 164.25 155.99 C 163.71 155.31 162.71 155.21 162.03 155.75 L 161.25 156.38 C 160.57 156.93 160.46 157.92 161.01 158.60 C 161.56 159.28 162.55 159.39 163.23 158.84 Z M 164.02 158.21 L 164.80 157.57 C 165.48 157.02 165.58 156.02 165.03 155.34 C 164.48 154.67 163.48 154.57 162.80 155.12 L 162.02 155.76 C 161.35 156.31 161.25 157.31 161.80 157.98 C 162.35 158.66 163.35 158.76 164.02 158.21 Z M 164.82 157.56 L 165.58 156.92 C 166.25 156.36 166.34 155.37 165.78 154.70 C 165.22 154.03 164.23 153.94 163.56 154.49 L 162.79 155.13 C 162.12 155.69 162.03 156.69 162.59 157.36 C 163.15 158.03 164.15 158.12 164.82 157.56 Z M 165.60 156.91 L 166.36 156.25 C 167.02 155.68 167.10 154.69 166.53 154.02 C 165.96 153.36 164.96 153.29 164.30 153.85 L 163.54 154.51 C 162.88 155.08 162.80 156.07 163.37 156.74 C 163.94 157.40 164.93 157.48 165.60 156.91 Z M 166.38 156.23 L 167.13 155.57 C 167.78 154.99 167.84 153.99 167.26 153.34 C 166.68 152.69 165.68 152.63 165.03 153.21 L 164.28 153.87 C 163.63 154.45 163.57 155.45 164.15 156.10 C 164.73 156.76 165.73 156.81 166.38 156.23 Z M 167.15 155.55 L 167.89 154.87 C 168.53 154.28 168.57 153.28 167.97 152.63 C 167.38 151.99 166.38 151.96 165.74 152.55 L 165.01 153.23 C 164.36 153.82 164.33 154.82 164.92 155.46 C 165.51 156.10 166.51 156.14 167.15 155.55 Z M 167.91 154.85 L 168.63 154.15 C 169.26 153.55 169.28 152.55 168.67 151.92 C 168.06 151.29 167.06 151.27 166.44 151.88 L 165.72 152.57 C 165.09 153.18 165.07 154.18 165.68 154.81 C 166.28 155.43 167.28 155.45 167.91 154.85 Z M 168.65 154.13 L 169.35 153.43 C 169.96 152.82 169.96 151.82 169.34 151.20 C 168.73 150.58 167.73 150.58 167.11 151.20 L 166.41 151.90 C 165.80 152.52 165.80 153.52 166.42 154.13 C 167.03 154.75 168.04 154.75 168.65 154.13 Z M 169.36 153.42 L 170.06 152.71 C 170.67 152.08 170.66 151.08 170.04 150.47 C 169.41 149.86 168.41 149.87 167.80 150.50 L 167.10 151.21 C 166.49 151.84 166.50 152.84 167.12 153.45 C 167.75 154.06 168.75 154.05 169.36 153.42 Z M 170.06 152.71 L 170.77 151.98 C 171.38 151.36 171.37 150.36 170.75 149.75 C 170.13 149.13 169.13 149.14 168.52 149.77 L 167.80 150.49 C 167.19 151.12 167.20 152.12 167.82 152.73 C 168.45 153.34 169.45 153.33 170.06 152.71 Z M 170.77 151.98 L 171.48 151.26 C 172.10 150.63 172.09 149.63 171.47 149.02 C 170.84 148.41 169.84 148.42 169.23 149.04 L 168.52 149.77 C 167.90 150.39 167.91 151.39 168.54 152.00 C 169.16 152.61 170.16 152.60 170.77 151.98 Z M 171.49 151.24 L 172.18 150.53 C 172.79 149.90 172.77 148.90 172.14 148.30 C 171.51 147.69 170.51 147.71 169.91 148.34 L 169.22 149.05 C 168.61 149.68 168.63 150.68 169.26 151.29 C 169.89 151.89 170.89 151.87 171.49 151.24 Z M 172.21 150.51 L 172.90 149.75 C 173.49 149.11 173.45 148.11 172.81 147.52 C 172.17 146.93 171.17 146.97 170.58 147.61 L 169.88 148.36 C 169.29 149.00 169.33 150.00 169.97 150.60 C 170.61 151.19 171.61 151.15 172.21 150.51 Z M 172.93 149.72 L 173.58 148.98 C 174.15 148.33 174.09 147.33 173.43 146.75 C 172.78 146.18 171.78 146.24 171.20 146.90 L 170.55 147.64 C 169.98 148.30 170.04 149.29 170.70 149.87 C 171.36 150.44 172.35 150.38 172.93 149.72 Z M 173.60 148.96 L 174.23 148.21 C 174.79 147.55 174.71 146.55 174.04 145.99 C 173.37 145.42 172.38 145.51 171.81 146.17 L 171.18 146.92 C 170.62 147.59 170.70 148.58 171.37 149.15 C 172.04 149.71 173.03 149.63 173.60 148.96 Z M 174.24 148.20 L 174.88 147.43 C 175.44 146.76 175.34 145.76 174.67 145.21 C 174.00 144.65 173.00 144.74 172.45 145.41 L 171.80 146.18 C 171.25 146.86 171.34 147.85 172.01 148.41 C 172.68 148.97 173.68 148.88 174.24 148.20 Z M 174.88 147.43 L 175.52 146.66 C 176.07 145.98 175.98 144.98 175.30 144.43 C 174.63 143.87 173.63 143.97 173.08 144.65 L 172.44 145.42 C 171.89 146.09 171.98 147.09 172.66 147.64 C 173.33 148.20 174.33 148.10 174.88 147.43 Z M 175.52 146.66 L 176.16 145.88 C 176.72 145.20 176.62 144.21 175.95 143.65 C 175.27 143.09 174.28 143.19 173.72 143.86 L 173.08 144.64 C 172.52 145.32 172.62 146.31 173.29 146.87 C 173.96 147.43 174.96 147.33 175.52 146.66 Z M 176.15 145.89 L 176.79 145.13 C 177.35 144.47 177.26 143.47 176.59 142.91 C 175.93 142.34 174.93 142.43 174.37 143.10 L 173.73 143.85 C 173.17 144.52 173.25 145.52 173.92 146.08 C 174.59 146.64 175.59 146.56 176.15 145.89 Z M 176.77 145.15 L 177.43 144.39 C 178.01 143.73 177.94 142.73 177.28 142.16 C 176.62 141.58 175.62 141.65 175.05 142.31 L 174.38 143.08 C 173.81 143.73 173.88 144.73 174.54 145.31 C 175.20 145.88 176.19 145.81 176.77 145.15 Z M 177.43 144.39 L 178.08 143.65 C 178.66 143.00 178.59 142.00 177.94 141.42 C 177.28 140.84 176.28 140.91 175.71 141.57 L 175.06 142.31 C 174.48 142.96 174.54 143.96 175.20 144.54 C 175.86 145.11 176.85 145.05 177.43 144.39 Z M 178.09 143.64 L 178.74 142.89 C 179.31 142.23 179.23 141.23 178.57 140.66 C 177.90 140.09 176.90 140.17 176.34 140.83 L 175.69 141.58 C 175.13 142.24 175.20 143.24 175.87 143.81 C 176.53 144.38 177.53 144.30 178.09 143.64 Z M 178.73 142.90 L 179.39 142.14 C 179.96 141.48 179.89 140.48 179.23 139.91 C 178.57 139.33 177.57 139.40 177.00 140.06 L 176.34 140.82 C 175.77 141.48 175.84 142.48 176.50 143.05 C 177.16 143.63 178.16 143.56 178.73 142.90 Z M 179.36 142.17 L 180.05 141.42 C 180.64 140.78 180.60 139.78 179.95 139.18 C 179.31 138.59 178.31 138.64 177.72 139.28 L 177.03 140.03 C 176.44 140.68 176.48 141.68 177.13 142.27 C 177.77 142.86 178.77 142.81 179.36 142.17 Z M 180.04 141.43 L 180.72 140.70 C 181.32 140.07 181.29 139.07 180.65 138.47 C 180.01 137.87 179.01 137.90 178.41 138.54 L 177.73 139.27 C 177.13 139.91 177.17 140.91 177.80 141.50 C 178.44 142.10 179.44 142.07 180.04 141.43 Z M 180.74 140.68 L 181.42 139.93 C 182.01 139.28 181.96 138.28 181.31 137.70 C 180.66 137.11 179.66 137.16 179.08 137.81 L 178.40 138.56 C 177.81 139.21 177.86 140.21 178.51 140.79 C 179.15 141.38 180.15 141.33 180.74 140.68 Z M 181.45 139.90 L 182.08 139.17 C 182.65 138.51 182.58 137.51 181.92 136.94 C 181.26 136.37 180.26 136.44 179.69 137.10 L 179.05 137.84 C 178.48 138.50 178.56 139.50 179.22 140.07 C 179.88 140.64 180.88 140.56 181.45 139.90 Z M 182.09 139.15 L 182.72 138.41 C 183.29 137.74 183.20 136.74 182.53 136.18 C 181.87 135.61 180.87 135.70 180.31 136.37 L 179.67 137.12 C 179.11 137.78 179.20 138.78 179.86 139.35 C 180.53 139.91 181.53 139.82 182.09 139.15 Z M 182.73 138.39 L 183.38 137.61 C 183.94 136.94 183.84 135.94 183.17 135.39 C 182.49 134.83 181.50 134.93 180.94 135.60 L 180.30 136.38 C 179.74 137.05 179.84 138.05 180.51 138.61 C 181.18 139.16 182.18 139.07 182.73 138.39 Z M 183.40 137.59 L 184.01 136.81 C 184.56 136.13 184.44 135.14 183.76 134.59 C 183.08 134.05 182.08 134.16 181.54 134.85 L 180.92 135.62 C 180.38 136.30 180.49 137.30 181.18 137.84 C 181.86 138.39 182.85 138.27 183.40 137.59 Z M 184.05 136.77 L 184.65 135.96 C 185.17 135.25 185.02 134.26 184.31 133.75 C 183.61 133.23 182.62 133.38 182.10 134.08 L 181.50 134.89 C 180.99 135.59 181.13 136.58 181.84 137.10 C 182.54 137.62 183.53 137.47 184.05 136.77 Z M 184.69 135.90 L 185.24 135.09 C 185.73 134.36 185.54 133.38 184.81 132.89 C 184.09 132.40 183.11 132.59 182.62 133.32 L 182.07 134.13 C 181.58 134.86 181.77 135.84 182.49 136.33 C 183.21 136.82 184.20 136.63 184.69 135.90 Z M 185.26 135.05 L 185.81 134.20 C 186.28 133.46 186.06 132.48 185.33 132.01 C 184.59 131.54 183.61 131.76 183.14 132.49 L 182.60 133.35 C 182.13 134.08 182.34 135.06 183.08 135.53 C 183.81 136.00 184.79 135.79 185.26 135.05 Z M 185.82 134.18 L 186.32 133.37 C 186.79 132.63 186.56 131.65 185.82 131.19 C 185.08 130.73 184.10 130.95 183.64 131.69 L 183.13 132.51 C 182.67 133.25 182.90 134.23 183.64 134.69 C 184.38 135.15 185.35 134.92 185.82 134.18 Z M 186.33 133.35 L 186.87 132.48 C 187.32 131.73 187.09 130.76 186.34 130.31 C 185.60 129.85 184.62 130.08 184.17 130.83 L 183.63 131.71 C 183.18 132.45 183.41 133.42 184.16 133.88 C 184.90 134.33 185.88 134.10 186.33 133.35 Z M 186.87 132.47 L 187.39 131.60 C 187.84 130.85 187.60 129.88 186.85 129.43 C 186.10 128.98 185.13 129.23 184.68 129.97 L 184.16 130.84 C 183.71 131.59 183.96 132.56 184.70 133.01 C 185.45 133.46 186.42 133.22 186.87 132.47 Z M 187.40 131.59 L 187.91 130.72 C 188.36 129.97 188.11 129.00 187.36 128.55 C 186.61 128.11 185.64 128.36 185.19 129.11 L 184.68 129.98 C 184.23 130.74 184.48 131.70 185.23 132.15 C 185.99 132.59 186.96 132.34 187.40 131.59 Z M 187.92 130.71 L 188.42 129.85 C 188.86 129.09 188.60 128.12 187.85 127.68 C 187.09 127.25 186.13 127.50 185.69 128.26 L 185.19 129.12 C 184.75 129.88 185.00 130.84 185.76 131.28 C 186.51 131.72 187.48 131.46 187.92 130.71 Z M 188.43 129.83 L 188.93 128.94 C 189.36 128.18 189.10 127.22 188.34 126.79 C 187.58 126.36 186.61 126.62 186.18 127.39 L 185.68 128.27 C 185.25 129.03 185.52 130.00 186.28 130.43 C 187.04 130.86 188.00 130.59 188.43 129.83 Z M 188.95 128.92 L 189.42 128.05 C 189.83 127.28 189.55 126.32 188.78 125.91 C 188.01 125.49 187.05 125.78 186.63 126.55 L 186.17 127.41 C 185.75 128.18 186.04 129.14 186.81 129.55 C 187.57 129.97 188.53 129.68 188.95 128.92 Z M 189.43 128.01 L 189.88 127.14 C 190.28 126.36 189.97 125.41 189.19 125.01 C 188.41 124.62 187.46 124.93 187.06 125.70 L 186.62 126.58 C 186.22 127.36 186.53 128.31 187.31 128.71 C 188.09 129.10 189.04 128.79 189.43 128.01 Z M 189.90 127.10 L 190.33 126.20 C 190.70 125.41 190.37 124.47 189.58 124.09 C 188.79 123.72 187.85 124.05 187.47 124.84 L 187.04 125.74 C 186.67 126.53 187.00 127.47 187.79 127.85 C 188.58 128.22 189.52 127.89 189.90 127.10 Z M 190.34 126.17 L 190.76 125.25 C 191.12 124.46 190.77 123.52 189.97 123.16 C 189.17 122.80 188.24 123.15 187.88 123.95 L 187.46 124.87 C 187.10 125.66 187.45 126.60 188.25 126.96 C 189.04 127.32 189.98 126.97 190.34 126.17 Z M 190.77 125.23 L 191.17 124.30 C 191.52 123.50 191.15 122.57 190.35 122.23 C 189.55 121.88 188.62 122.25 188.27 123.05 L 187.87 123.97 C 187.52 124.77 187.89 125.70 188.69 126.05 C 189.49 126.40 190.42 126.03 190.77 125.23 Z M 191.17 124.29 L 191.56 123.37 C 191.90 122.56 191.52 121.64 190.72 121.30 C 189.92 120.96 188.99 121.34 188.65 122.14 L 188.26 123.06 C 187.92 123.87 188.30 124.79 189.10 125.13 C 189.91 125.47 190.84 125.09 191.17 124.29 Z M 191.57 123.36 L 191.95 122.44 C 192.29 121.63 191.91 120.70 191.10 120.37 C 190.29 120.03 189.37 120.41 189.03 121.22 L 188.65 122.15 C 188.31 122.95 188.69 123.88 189.50 124.21 C 190.30 124.55 191.23 124.17 191.57 123.36 Z M 191.95 122.43 L 192.34 121.50 C 192.67 120.70 192.29 119.77 191.48 119.44 C 190.67 119.11 189.75 119.49 189.42 120.30 L 189.03 121.22 C 188.70 122.03 189.08 122.95 189.89 123.29 C 190.70 123.62 191.62 123.24 191.95 122.43 Z M 192.34 121.49 L 192.71 120.58 C 193.04 119.77 192.65 118.85 191.84 118.52 C 191.04 118.19 190.11 118.58 189.79 119.39 L 189.41 120.30 C 189.09 121.11 189.47 122.03 190.28 122.36 C 191.09 122.69 192.01 122.30 192.34 121.49 Z M 192.72 120.57 L 193.08 119.64 C 193.41 118.83 193.01 117.91 192.20 117.59 C 191.39 117.27 190.47 117.66 190.15 118.48 L 189.78 119.40 C 189.46 120.21 189.85 121.13 190.67 121.45 C 191.48 121.78 192.39 121.38 192.72 120.57 Z M 193.09 119.63 L 193.45 118.70 C 193.76 117.88 193.36 116.97 192.55 116.65 C 191.73 116.34 190.82 116.74 190.50 117.56 L 190.14 118.49 C 189.83 119.30 190.24 120.22 191.05 120.53 C 191.86 120.84 192.78 120.44 193.09 119.63 Z M 193.45 118.68 L 193.81 117.73 C 194.12 116.91 193.71 116.00 192.89 115.69 C 192.07 115.39 191.17 115.80 190.86 116.62 L 190.50 117.57 C 190.19 118.39 190.61 119.30 191.42 119.60 C 192.24 119.91 193.15 119.50 193.45 118.68 Z M 193.82 117.71 L 194.16 116.77 C 194.46 115.95 194.04 115.04 193.23 114.74 C 192.41 114.44 191.50 114.86 191.20 115.68 L 190.86 116.63 C 190.56 117.45 190.97 118.35 191.79 118.65 C 192.61 118.95 193.52 118.53 193.82 117.71 Z M 194.17 116.76 L 194.50 115.82 C 194.80 115.00 194.38 114.10 193.56 113.80 C 192.74 113.51 191.83 113.93 191.54 114.75 L 191.20 115.69 C 190.91 116.51 191.33 117.41 192.15 117.71 C 192.97 118.00 193.87 117.58 194.17 116.76 Z M 194.51 115.80 L 194.84 114.85 C 195.12 114.03 194.69 113.13 193.86 112.85 C 193.04 112.57 192.14 113.00 191.86 113.82 L 191.53 114.77 C 191.25 115.59 191.68 116.49 192.51 116.77 C 193.33 117.06 194.23 116.62 194.51 115.80 Z M 194.85 114.80 L 195.14 113.88 C 195.39 113.05 194.92 112.17 194.09 111.91 C 193.26 111.66 192.38 112.13 192.13 112.96 L 191.84 113.88 C 191.59 114.71 192.06 115.59 192.89 115.84 C 193.72 116.10 194.60 115.63 194.85 114.80 Z M 195.15 113.82 L 195.40 112.86 C 195.62 112.02 195.12 111.16 194.28 110.94 C 193.44 110.72 192.58 111.22 192.36 112.06 L 192.11 113.02 C 191.89 113.86 192.39 114.72 193.23 114.94 C 194.08 115.16 194.93 114.66 195.15 113.82 Z M 195.41 112.81 L 195.64 111.84 C 195.83 111.00 195.31 110.15 194.46 109.96 C 193.61 109.76 192.77 110.29 192.57 111.13 L 192.35 112.11 C 192.15 112.95 192.68 113.80 193.53 113.99 C 194.37 114.19 195.22 113.66 195.41 112.81 Z M 195.64 111.81 L 195.85 110.85 C 196.03 110.00 195.49 109.16 194.64 108.98 C 193.79 108.80 192.95 109.35 192.77 110.19 L 192.57 111.16 C 192.39 112.01 192.93 112.85 193.78 113.03 C 194.63 113.21 195.46 112.66 195.64 111.81 Z M 195.85 110.81 L 196.04 109.81 C 196.21 108.95 195.65 108.13 194.79 107.97 C 193.94 107.81 193.12 108.37 192.96 109.22 L 192.77 110.23 C 192.61 111.08 193.17 111.90 194.02 112.06 C 194.87 112.23 195.69 111.67 195.85 110.81 Z M 196.05 109.77 L 196.21 108.80 C 196.35 107.95 195.78 107.14 194.92 107.00 C 194.07 106.85 193.26 107.43 193.12 108.29 L 192.95 109.25 C 192.81 110.11 193.39 110.92 194.24 111.06 C 195.10 111.21 195.91 110.63 196.05 109.77 Z M 196.21 108.78 L 196.36 107.77 C 196.49 106.91 195.90 106.12 195.04 105.99 C 194.19 105.86 193.39 106.45 193.26 107.31 L 193.11 108.31 C 192.98 109.17 193.58 109.97 194.43 110.10 C 195.29 110.22 196.09 109.63 196.21 108.78 Z M 196.37 107.75 L 196.50 106.77 C 196.61 105.91 196.01 105.13 195.15 105.01 C 194.29 104.90 193.51 105.50 193.39 106.36 L 193.26 107.33 C 193.15 108.19 193.75 108.98 194.61 109.09 C 195.46 109.21 196.25 108.60 196.37 107.75 Z M 196.50 106.76 L 196.62 105.77 C 196.73 104.91 196.12 104.13 195.26 104.02 C 194.40 103.92 193.62 104.53 193.51 105.38 L 193.39 106.37 C 193.28 107.23 193.89 108.01 194.75 108.12 C 195.61 108.23 196.39 107.62 196.50 106.76 Z M 196.62 105.77 L 196.75 104.74 C 196.85 103.89 196.24 103.11 195.38 103.00 C 194.53 102.90 193.74 103.51 193.64 104.36 L 193.51 105.39 C 193.41 106.25 194.02 107.03 194.88 107.13 C 195.73 107.24 196.52 106.63 196.62 105.77 Z M 196.75 104.75 L 196.87 103.75 C 196.98 102.89 196.37 102.11 195.51 102.00 C 194.65 101.90 193.87 102.51 193.76 103.36 L 193.64 104.36 C 193.53 105.22 194.14 106.00 195.00 106.11 C 195.86 106.21 196.64 105.60 196.75 104.75 Z M 196.87 103.75 L 196.99 102.74 C 197.10 101.89 196.49 101.11 195.63 101.00 C 194.77 100.90 193.99 101.50 193.89 102.36 L 193.76 103.37 C 193.66 104.22 194.27 105.00 195.13 105.11 C 195.98 105.21 196.76 104.60 196.87 103.75 Z M 196.99 102.73 L 197.11 101.74 C 197.21 100.89 196.59 100.11 195.74 100.01 C 194.88 99.91 194.10 100.52 194.00 101.38 L 193.89 102.37 C 193.79 103.23 194.40 104.01 195.26 104.11 C 196.12 104.21 196.89 103.59 196.99 102.73 Z M 197.11 101.73 L 197.22 100.71 C 197.31 99.85 196.69 99.08 195.83 98.99 C 194.97 98.90 194.20 99.52 194.11 100.38 L 194.00 101.40 C 193.91 102.26 194.53 103.03 195.39 103.12 C 196.25 103.21 197.02 102.59 197.11 101.73 Z M 197.22 100.70 L 197.31 99.72 C 197.40 98.86 196.77 98.10 195.91 98.02 C 195.05 97.93 194.29 98.56 194.20 99.42 L 194.11 100.39 C 194.02 101.25 194.65 102.02 195.51 102.10 C 196.37 102.18 197.13 101.56 197.22 100.70 Z M 197.31 99.72 L 197.41 98.72 C 197.49 97.86 196.85 97.10 196.00 97.02 C 195.14 96.94 194.37 97.57 194.29 98.43 L 194.20 99.43 C 194.12 100.29 194.75 101.05 195.61 101.13 C 196.47 101.21 197.23 100.58 197.31 99.72 Z M 197.41 98.72 L 197.50 97.72 C 197.57 96.86 196.94 96.10 196.08 96.02 C 195.22 95.94 194.46 96.58 194.38 97.44 L 194.29 98.44 C 194.22 99.30 194.85 100.06 195.71 100.13 C 196.57 100.21 197.33 99.58 197.41 98.72 Z M 197.50 97.71 L 197.58 96.72 C 197.65 95.86 197.02 95.10 196.16 95.03 C 195.30 94.96 194.54 95.59 194.47 96.45 L 194.38 97.44 C 194.31 98.30 194.95 99.06 195.81 99.13 C 196.67 99.21 197.42 98.57 197.50 97.71 Z M 197.58 96.71 L 197.66 95.69 C 197.73 94.83 197.09 94.08 196.23 94.01 C 195.37 93.94 194.62 94.58 194.55 95.44 L 194.47 96.46 C 194.40 97.32 195.04 98.07 195.90 98.14 C 196.76 98.21 197.51 97.57 197.58 96.71 Z M 197.66 95.69 L 197.74 94.72 C 197.80 93.86 197.16 93.11 196.30 93.05 C 195.44 92.98 194.69 93.63 194.62 94.49 L 194.55 95.45 C 194.48 96.31 195.13 97.06 195.99 97.13 C 196.85 97.19 197.60 96.55 197.66 95.69 Z M 197.74 94.73 L 197.81 93.78 C 197.88 92.92 197.23 92.17 196.37 92.10 C 195.51 92.03 194.76 92.68 194.70 93.54 L 194.62 94.48 C 194.55 95.34 195.20 96.10 196.06 96.16 C 196.92 96.23 197.67 95.59 197.74 94.73 Z M 197.81 93.79 L 197.90 92.76 C 197.97 91.90 197.33 91.15 196.47 91.07 C 195.62 91.00 194.86 91.63 194.78 92.49 L 194.70 93.52 C 194.62 94.38 195.26 95.14 196.12 95.21 C 196.98 95.29 197.73 94.65 197.81 93.79 Z M 197.90 92.78 L 197.99 91.76 C 198.08 90.90 197.45 90.14 196.59 90.06 C 195.73 89.98 194.97 90.61 194.88 91.46 L 194.79 92.48 C 194.70 93.34 195.33 94.10 196.19 94.18 C 197.05 94.26 197.81 93.64 197.90 92.78 Z M 197.99 91.77 L 198.10 90.75 C 198.19 89.89 197.56 89.12 196.71 89.03 C 195.85 88.94 195.08 89.57 194.99 90.43 L 194.89 91.45 C 194.80 92.31 195.42 93.08 196.28 93.17 C 197.13 93.26 197.90 92.63 197.99 91.77 Z M 198.10 90.76 L 198.21 89.79 C 198.30 88.93 197.69 88.16 196.83 88.06 C 195.97 87.96 195.20 88.58 195.10 89.44 L 194.99 90.41 C 194.90 91.27 195.51 92.04 196.37 92.14 C 197.23 92.24 198.00 91.62 198.10 90.76 Z M 198.20 89.82 L 198.33 88.87 C 198.44 88.01 197.84 87.23 196.99 87.11 C 196.13 87.00 195.35 87.60 195.23 88.46 L 195.11 89.41 C 194.99 90.26 195.59 91.05 196.45 91.16 C 197.30 91.28 198.09 90.67 198.20 89.82 Z M 198.32 88.92 L 198.49 87.88 C 198.63 87.03 198.06 86.22 197.21 86.08 C 196.35 85.94 195.55 86.52 195.41 87.37 L 195.24 88.41 C 195.10 89.26 195.68 90.06 196.53 90.20 C 197.38 90.34 198.18 89.77 198.32 88.92 Z M 198.49 87.93 L 198.73 86.72 C 198.90 85.88 198.34 85.05 197.50 84.88 C 196.65 84.72 195.82 85.27 195.66 86.11 L 195.42 87.32 C 195.25 88.17 195.80 88.99 196.65 89.16 C 197.50 89.33 198.32 88.78 198.49 87.93 Z M 198.67 86.95 L 198.91 86.28 C 199.20 85.47 198.77 84.57 197.95 84.28 C 197.14 83.98 196.24 84.41 195.95 85.23 L 195.71 85.89 C 195.42 86.71 195.85 87.61 196.66 87.90 C 197.48 88.19 198.38 87.77 198.67 86.95 Z M 195.91 86.20 L 196.10 86.86 C 196.35 87.70 197.22 88.18 198.06 87.94 C 198.90 87.69 199.38 86.82 199.14 85.98 L 198.94 85.32 C 198.70 84.48 197.82 84.00 196.99 84.24 C 196.15 84.48 195.67 85.36 195.91 86.20 Z M 196.04 86.55 L 196.14 87.76 C 196.21 88.64 196.97 89.29 197.84 89.22 C 198.71 89.15 199.36 88.39 199.29 87.52 L 199.20 86.30 C 199.13 85.43 198.37 84.77 197.50 84.84 C 196.62 84.91 195.97 85.67 196.04 86.55 Z M 196.13 87.72 L 196.18 88.70 C 196.23 89.58 196.97 90.25 197.85 90.20 C 198.72 90.16 199.39 89.41 199.35 88.54 L 199.30 87.56 C 199.25 86.68 198.51 86.01 197.63 86.06 C 196.76 86.10 196.09 86.85 196.13 87.72 Z M 196.18 88.69 L 196.23 89.70 C 196.27 90.58 197.01 91.26 197.89 91.22 C 198.76 91.17 199.44 90.43 199.40 89.56 L 199.35 88.55 C 199.31 87.67 198.57 86.99 197.69 87.03 C 196.82 87.07 196.14 87.82 196.18 88.69 Z M 196.23 89.71 L 196.28 90.73 C 196.32 91.61 197.07 92.28 197.94 92.24 C 198.82 92.19 199.49 91.45 199.45 90.57 L 199.40 89.55 C 199.35 88.67 198.61 88.00 197.73 88.04 C 196.86 88.09 196.18 88.83 196.23 89.71 Z M 196.28 90.73 L 196.33 91.73 C 196.37 92.61 197.12 93.28 198.00 93.23 C 198.88 93.19 199.55 92.44 199.50 91.56 L 199.45 90.57 C 199.41 89.69 198.66 89.02 197.78 89.06 C 196.90 89.11 196.23 89.86 196.28 90.73 Z M 196.33 91.72 L 196.38 92.75 C 196.42 93.63 197.17 94.30 198.04 94.26 C 198.92 94.22 199.60 93.47 199.55 92.59 L 199.50 91.57 C 199.46 90.69 198.72 90.02 197.84 90.06 C 196.96 90.10 196.29 90.85 196.33 91.72 Z M 196.38 92.73 L 196.41 93.69 C 196.44 94.57 197.17 95.25 198.05 95.22 C 198.93 95.19 199.62 94.46 199.59 93.58 L 199.56 92.62 C 199.53 91.74 198.79 91.05 197.91 91.08 C 197.03 91.11 196.35 91.85 196.38 92.73 Z M 196.40 93.66 L 196.42 94.61 C 196.43 95.49 197.16 96.19 198.04 96.18 C 198.92 96.16 199.62 95.44 199.61 94.56 L 199.59 93.61 C 199.58 92.73 198.86 92.03 197.97 92.04 C 197.09 92.05 196.39 92.78 196.40 93.66 Z M 196.41 94.60 L 196.42 95.63 C 196.43 96.51 197.16 97.22 198.04 97.21 C 198.93 97.20 199.64 96.47 199.63 95.59 L 199.62 94.56 C 199.61 93.68 198.88 92.97 197.99 92.98 C 197.11 92.99 196.40 93.72 196.41 94.60 Z M 196.41 95.64 L 196.43 96.61 C 196.45 97.50 197.19 98.21 198.08 98.19 C 198.97 98.17 199.68 97.43 199.66 96.54 L 199.64 95.57 C 199.62 94.68 198.88 93.98 197.99 94.00 C 197.10 94.01 196.39 94.75 196.41 95.64 Z M 196.42 96.62 L 196.45 97.61 C 196.47 98.51 197.22 99.22 198.11 99.19 C 199.01 99.17 199.72 98.43 199.69 97.53 L 199.67 96.53 C 199.64 95.64 198.90 94.93 198.00 94.95 C 197.11 94.98 196.40 95.72 196.42 96.62 Z M 196.44 97.60 L 196.46 98.64 C 196.48 99.54 197.22 100.26 198.12 100.24 C 199.03 100.23 199.74 99.48 199.72 98.58 L 199.70 97.54 C 199.69 96.64 198.94 95.92 198.04 95.94 C 197.14 95.96 196.42 96.70 196.44 97.60 Z M 196.45 98.63 L 196.46 99.59 C 196.47 100.50 197.21 101.23 198.12 101.22 C 199.02 101.21 199.75 100.47 199.74 99.56 L 199.73 98.59 C 199.73 97.69 198.98 96.96 198.08 96.97 C 197.17 96.98 196.44 97.72 196.45 98.63 Z M 196.45 99.59 L 196.46 100.61 C 196.46 101.52 197.21 102.25 198.12 102.25 C 199.03 102.24 199.77 101.50 199.76 100.58 L 199.75 99.57 C 199.75 98.65 199.00 97.92 198.09 97.93 C 197.18 97.93 196.44 98.68 196.45 99.59 Z M 196.45 100.61 L 196.46 101.64 C 196.47 102.56 197.22 103.29 198.14 103.28 C 199.05 103.27 199.79 102.52 199.78 101.61 L 199.77 100.58 C 199.76 99.66 199.01 98.92 198.09 98.93 C 197.17 98.94 196.44 99.69 196.45 100.61 Z M 196.45 101.65 L 196.46 102.64 C 196.48 103.56 197.24 104.29 198.16 104.28 C 199.08 104.26 199.82 103.51 199.80 102.58 L 199.79 101.60 C 199.77 100.67 199.01 99.94 198.09 99.95 C 197.17 99.97 196.44 100.73 196.45 101.65 Z M 196.46 102.64 L 196.48 103.64 C 196.49 104.56 197.25 105.30 198.18 105.29 C 199.10 105.27 199.84 104.51 199.83 103.58 L 199.81 102.58 C 199.79 101.66 199.03 100.92 198.11 100.93 C 197.18 100.95 196.44 101.71 196.46 102.64 Z M 196.47 103.63 L 196.48 104.65 C 196.50 105.58 197.26 106.32 198.19 106.31 C 199.12 106.30 199.86 105.53 199.85 104.60 L 199.83 103.59 C 199.82 102.66 199.06 101.92 198.13 101.93 C 197.20 101.94 196.46 102.70 196.47 103.63 Z M 196.48 104.64 L 196.48 105.62 C 196.49 106.56 197.25 107.31 198.19 107.30 C 199.12 107.29 199.87 106.53 199.86 105.60 L 199.85 104.61 C 199.85 103.68 199.08 102.93 198.15 102.94 C 197.22 102.95 196.47 103.71 196.48 104.64 Z M 196.48 105.62 L 196.48 106.62 C 196.49 107.55 197.25 108.31 198.19 108.30 C 199.13 108.30 199.88 107.53 199.87 106.60 L 199.87 105.60 C 199.86 104.66 199.10 103.91 198.16 103.91 C 197.23 103.92 196.47 104.68 196.48 105.62 Z M 196.48 106.62 L 196.48 107.63 C 196.49 108.57 197.26 109.33 198.20 109.32 C 199.14 109.31 199.89 108.55 199.89 107.61 L 199.88 106.60 C 199.87 105.66 199.11 104.90 198.17 104.91 C 197.23 104.91 196.47 105.68 196.48 106.62 Z M 196.48 107.64 L 196.49 108.63 C 196.50 109.57 197.27 110.32 198.22 110.31 C 199.16 110.30 199.91 109.53 199.90 108.59 L 199.89 107.60 C 199.88 106.66 199.11 105.90 198.17 105.91 C 197.22 105.92 196.47 106.69 196.48 107.64 Z M 196.48 108.63 L 196.50 109.61 C 196.51 110.56 197.29 111.31 198.24 111.30 C 199.18 111.29 199.94 110.51 199.92 109.56 L 199.91 108.58 C 199.89 107.64 199.12 106.88 198.17 106.89 C 197.23 106.91 196.47 107.69 196.48 108.63 Z M 196.50 109.61 L 196.51 110.62 C 196.52 111.57 197.30 112.32 198.25 112.31 C 199.20 112.30 199.96 111.52 199.94 110.57 L 199.93 109.56 C 199.91 108.61 199.13 107.86 198.19 107.87 C 197.24 107.89 196.48 108.67 196.50 109.61 Z M 196.51 110.61 L 196.52 111.65 C 196.53 112.60 197.31 113.36 198.26 113.35 C 199.21 113.33 199.97 112.55 199.96 111.60 L 199.95 110.57 C 199.94 109.62 199.16 108.86 198.21 108.87 C 197.26 108.88 196.49 109.66 196.51 110.61 Z M 196.51 111.64 L 196.52 112.59 C 196.53 113.54 197.31 114.30 198.26 114.30 C 199.21 114.29 199.98 113.51 199.97 112.56 L 199.96 111.61 C 199.96 110.66 199.18 109.89 198.23 109.90 C 197.27 109.91 196.51 110.68 196.51 111.64 Z M 196.52 112.58 L 196.52 113.56 C 196.53 114.52 197.30 115.29 198.26 115.28 C 199.22 115.28 199.99 114.50 199.98 113.54 L 199.98 112.56 C 199.97 111.61 199.19 110.84 198.24 110.84 C 197.28 110.85 196.51 111.63 196.52 112.58 Z M 196.52 113.56 L 196.52 114.58 C 196.53 115.54 197.31 116.31 198.26 116.30 C 199.22 116.30 199.99 115.52 199.99 114.56 L 199.99 113.54 C 199.98 112.59 199.20 111.81 198.24 111.82 C 197.29 111.82 196.51 112.60 196.52 113.56 Z M 196.52 114.58 L 196.53 115.64 C 196.53 116.60 197.32 117.37 198.28 117.36 C 199.24 117.36 200.01 116.57 200.00 115.61 L 199.99 114.56 C 199.99 113.60 199.20 112.82 198.24 112.83 C 197.28 112.84 196.51 113.62 196.52 114.58 Z M 196.52 115.64 L 196.53 116.57 C 196.54 117.53 197.33 118.31 198.29 118.30 C 199.25 118.29 200.02 117.50 200.01 116.54 L 200.01 115.61 C 200.00 114.64 199.21 113.87 198.25 113.88 C 197.28 113.89 196.51 114.68 196.52 115.64 Z M 196.53 116.58 L 196.54 117.54 C 196.55 118.50 197.34 119.27 198.31 119.26 C 199.27 119.25 200.04 118.46 200.03 117.49 L 200.02 116.53 C 200.01 115.57 199.22 114.80 198.25 114.81 C 197.29 114.82 196.52 115.61 196.53 116.58 Z M 196.54 117.54 L 196.55 118.54 C 196.56 119.50 197.36 120.28 198.32 120.26 C 199.29 120.25 200.06 119.46 200.05 118.49 L 200.03 117.49 C 200.02 116.53 199.23 115.75 198.26 115.77 C 197.29 115.78 196.52 116.57 196.54 117.54 Z M 196.55 118.54 L 196.56 119.58 C 196.57 120.55 197.37 121.32 198.34 121.31 C 199.31 121.30 200.08 120.50 200.07 119.53 L 200.05 118.49 C 200.04 117.52 199.24 116.75 198.27 116.76 C 197.31 116.78 196.53 117.57 196.55 118.54 Z M 196.56 119.58 L 196.57 120.64 C 196.59 121.61 197.38 122.38 198.35 122.37 C 199.32 122.36 200.10 121.56 200.08 120.59 L 200.07 119.53 C 200.05 118.56 199.26 117.79 198.29 117.80 C 197.32 117.82 196.54 118.61 196.56 119.58 Z M 196.57 120.64 L 196.58 121.61 C 196.60 122.58 197.39 123.35 198.37 123.34 C 199.34 123.33 200.11 122.53 200.10 121.56 L 200.09 120.59 C 200.07 119.62 199.28 118.84 198.30 118.86 C 197.33 118.87 196.56 119.67 196.57 120.64 Z M 196.58 121.60 L 196.59 122.60 C 196.61 123.57 197.41 124.35 198.38 124.34 C 199.35 124.32 200.13 123.52 200.12 122.55 L 200.10 121.56 C 200.09 120.58 199.29 119.81 198.32 119.82 C 197.34 119.83 196.57 120.63 196.58 121.60 Z M 196.59 122.60 L 196.60 123.61 C 196.62 124.58 197.42 125.36 198.39 125.35 C 199.37 125.34 200.15 124.53 200.13 123.56 L 200.12 122.55 C 200.11 121.57 199.31 120.79 198.33 120.81 C 197.36 120.82 196.58 121.62 196.59 122.60 Z M 196.60 123.61 L 196.61 124.63 C 196.63 125.60 197.43 126.38 198.41 126.37 C 199.38 126.36 200.16 125.55 200.15 124.58 L 200.14 123.56 C 200.12 122.58 199.32 121.80 198.34 121.81 C 197.37 121.83 196.59 122.63 196.60 123.61 Z M 196.61 124.63 L 196.62 125.64 C 196.64 126.62 197.44 127.41 198.42 127.39 C 199.40 127.38 200.18 126.57 200.17 125.59 L 200.15 124.58 C 200.14 123.60 199.34 122.82 198.36 122.83 C 197.38 122.84 196.60 123.65 196.61 124.63 Z M 196.62 125.65 L 196.64 126.66 C 196.65 127.64 197.46 128.43 198.44 128.41 C 199.42 128.40 200.20 127.59 200.19 126.61 L 200.17 125.59 C 200.16 124.61 199.35 123.83 198.37 123.84 C 197.39 123.86 196.61 124.66 196.62 125.65 Z M 196.63 126.66 L 196.65 127.67 C 196.66 128.66 197.47 129.44 198.45 129.42 C 199.43 129.41 200.22 128.60 200.20 127.62 L 200.19 126.61 C 200.17 125.63 199.37 124.84 198.38 124.86 C 197.40 124.87 196.62 125.68 196.63 126.66 Z M 196.65 127.67 L 196.66 128.68 C 196.68 129.66 197.49 130.44 198.47 130.43 C 199.45 130.41 200.24 129.60 200.22 128.62 L 200.21 127.62 C 200.19 126.64 199.38 125.85 198.40 125.87 C 197.42 125.88 196.63 126.69 196.65 127.67 Z M 196.66 128.68 L 196.67 129.67 C 196.69 130.66 197.50 131.44 198.48 131.43 C 199.47 131.41 200.25 130.60 200.24 129.62 L 200.22 128.62 C 200.21 127.64 199.40 126.85 198.41 126.87 C 197.43 126.88 196.64 127.69 196.66 128.68 Z M 196.67 129.67 L 196.69 130.66 C 196.70 131.65 197.51 132.44 198.50 132.42 C 199.49 132.40 200.27 131.59 200.26 130.61 L 200.24 129.62 C 200.23 128.63 199.42 127.84 198.43 127.86 C 197.44 127.87 196.66 128.69 196.67 129.67 Z M 196.68 130.66 L 196.70 131.65 C 196.71 132.64 197.53 133.43 198.51 133.41 C 199.50 133.40 200.29 132.59 200.27 131.60 L 200.26 130.61 C 200.24 129.62 199.43 128.83 198.44 128.85 C 197.46 128.86 196.67 129.67 196.68 130.66 Z M 196.70 131.65 L 196.71 132.66 C 196.73 133.65 197.54 134.44 198.53 134.43 C 199.52 134.41 200.31 133.60 200.29 132.61 L 200.28 131.60 C 200.26 130.61 199.45 129.82 198.46 129.83 C 197.47 129.85 196.68 130.66 196.70 131.65 Z M 196.71 132.66 L 196.72 133.67 C 196.74 134.66 197.55 135.45 198.54 135.44 C 199.53 135.42 200.32 134.61 200.31 133.62 L 200.29 132.61 C 200.28 131.62 199.47 130.83 198.47 130.84 C 197.48 130.86 196.69 131.67 196.71 132.66 Z M 196.72 133.67 L 196.74 134.68 C 196.75 135.67 197.57 136.46 198.56 136.44 C 199.55 136.43 200.34 135.61 200.33 134.62 L 200.31 133.62 C 200.30 132.63 199.48 131.83 198.49 131.85 C 197.50 131.86 196.71 132.68 196.72 133.67 Z M 196.73 134.68 L 196.75 135.67 C 196.77 136.67 197.59 137.46 198.58 137.44 C 199.57 137.43 200.36 136.61 200.35 135.61 L 200.33 134.62 C 200.31 133.62 199.49 132.83 198.50 132.85 C 197.51 132.87 196.72 133.69 196.73 134.68 Z M 196.75 135.68 L 196.77 136.66 C 196.79 137.66 197.61 138.45 198.60 138.43 C 199.60 138.41 200.39 137.59 200.37 136.60 L 200.35 135.61 C 200.33 134.62 199.51 133.82 198.52 133.84 C 197.52 133.86 196.73 134.68 196.75 135.68 Z M 196.76 136.67 L 196.79 137.68 C 196.81 138.67 197.63 139.46 198.63 139.44 C 199.62 139.42 200.41 138.59 200.39 137.60 L 200.37 136.59 C 200.35 135.60 199.52 134.81 198.53 134.83 C 197.53 134.85 196.74 135.67 196.76 136.67 Z M 196.79 137.68 L 196.81 138.69 C 196.83 139.69 197.66 140.47 198.66 140.45 C 199.66 140.43 200.44 139.60 200.42 138.60 L 200.39 137.59 C 200.37 136.60 199.54 135.81 198.54 135.83 C 197.55 135.86 196.76 136.68 196.79 137.68 Z M 196.81 138.70 L 196.84 139.70 C 196.86 140.69 197.70 141.48 198.69 141.45 C 199.69 141.42 200.48 140.59 200.45 139.60 L 200.42 138.60 C 200.39 137.60 199.56 136.81 198.56 136.84 C 197.57 136.87 196.78 137.70 196.81 138.70 Z M 196.84 139.70 L 196.87 140.69 C 196.90 141.69 197.73 142.48 198.73 142.44 C 199.73 142.41 200.51 141.58 200.48 140.58 L 200.45 139.59 C 200.42 138.59 199.58 137.81 198.59 137.84 C 197.59 137.87 196.81 138.70 196.84 139.70 Z M 196.87 140.70 L 196.90 141.69 C 196.93 142.69 197.77 143.47 198.77 143.43 C 199.77 143.40 200.55 142.56 200.51 141.57 L 200.48 140.58 C 200.45 139.58 199.61 138.80 198.61 138.83 C 197.61 138.87 196.83 139.70 196.87 140.70 Z M 196.90 141.70 L 196.94 142.69 C 196.97 143.69 197.81 144.47 198.81 144.43 C 199.81 144.39 200.59 143.55 200.55 142.55 L 200.52 141.56 C 200.48 140.56 199.64 139.78 198.64 139.82 C 197.64 139.86 196.86 140.70 196.90 141.70 Z M 196.94 142.69 L 196.98 143.69 C 197.02 144.69 197.86 145.47 198.86 145.43 C 199.86 145.39 200.63 144.55 200.59 143.55 L 200.55 142.55 C 200.51 141.55 199.67 140.77 198.67 140.81 C 197.67 140.85 196.90 141.70 196.94 142.69 Z M 196.98 143.70 L 197.02 144.70 C 197.06 145.69 197.90 146.47 198.90 146.43 C 199.90 146.39 200.68 145.54 200.64 144.54 L 200.60 143.54 C 200.55 142.54 199.71 141.77 198.71 141.81 C 197.71 141.85 196.93 142.70 196.98 143.70 Z M 197.02 144.70 L 197.06 145.69 C 197.10 146.69 197.94 147.47 198.95 147.43 C 199.95 147.39 200.72 146.54 200.68 145.54 L 200.64 144.54 C 200.60 143.54 199.75 142.77 198.75 142.81 C 197.75 142.85 196.97 143.70 197.02 144.70 Z M 197.06 145.69 L 197.10 146.69 C 197.14 147.69 197.98 148.47 198.98 148.43 C 199.98 148.39 200.76 147.54 200.72 146.54 L 200.68 145.54 C 200.64 144.54 199.80 143.77 198.80 143.81 C 197.79 143.85 197.02 144.69 197.06 145.69 Z M 197.10 146.69 L 197.13 147.68 C 197.17 148.68 198.01 149.46 199.02 149.42 C 200.02 149.38 200.80 148.54 200.76 147.54 L 200.72 146.55 C 200.69 145.55 199.84 144.77 198.84 144.80 C 197.84 144.84 197.06 145.69 197.10 146.69 Z M 197.13 147.67 L 197.17 148.65 C 197.20 149.65 198.04 150.43 199.05 150.40 C 200.05 150.36 200.83 149.52 200.80 148.52 L 200.76 147.54 C 200.73 146.54 199.89 145.76 198.88 145.79 C 197.88 145.83 197.10 146.67 197.13 147.67 Z M 197.17 148.64 L 197.20 149.63 C 197.23 150.63 198.07 151.42 199.08 151.38 C 200.08 151.35 200.86 150.51 200.83 149.51 L 200.80 148.52 C 200.76 147.52 199.92 146.74 198.92 146.77 C 197.92 146.80 197.13 147.64 197.17 148.64 Z M 197.20 149.63 L 197.23 150.63 C 197.26 151.63 198.10 152.42 199.11 152.38 C 200.11 152.35 200.90 151.51 200.86 150.51 L 200.83 149.51 C 200.80 148.51 199.96 147.72 198.96 147.75 C 197.95 147.79 197.17 148.63 197.20 149.63 Z M 197.23 150.63 L 197.26 151.64 C 197.30 152.65 198.14 153.43 199.14 153.40 C 200.15 153.37 200.93 152.53 200.90 151.52 L 200.86 150.51 C 200.83 149.50 199.99 148.72 198.99 148.75 C 197.98 148.78 197.20 149.62 197.23 150.63 Z M 197.26 151.65 L 197.30 152.68 C 197.33 153.68 198.18 154.47 199.18 154.43 C 200.18 154.40 200.97 153.55 200.93 152.55 L 200.90 151.52 C 200.86 150.52 200.02 149.73 199.02 149.77 C 198.01 149.80 197.23 150.64 197.26 151.65 Z M 197.30 152.68 L 197.34 153.69 C 197.37 154.69 198.22 155.48 199.22 155.44 C 200.22 155.40 201.01 154.56 200.97 153.56 L 200.94 152.55 C 200.90 151.54 200.05 150.76 199.05 150.79 C 198.05 150.83 197.26 151.68 197.30 152.68 Z M 197.33 153.69 L 197.37 154.71 C 197.41 155.72 198.26 156.50 199.26 156.46 C 200.27 156.42 201.05 155.58 201.01 154.57 L 200.97 153.55 C 200.93 152.55 200.09 151.76 199.08 151.80 C 198.08 151.84 197.30 152.69 197.33 153.69 Z M 197.37 154.71 L 197.41 155.73 C 197.45 156.73 198.30 157.52 199.31 157.48 C 200.31 157.44 201.09 156.59 201.05 155.58 L 201.01 154.57 C 200.97 153.56 200.13 152.78 199.12 152.82 C 198.12 152.86 197.33 153.71 197.37 154.71 Z M 197.41 155.73 L 197.45 156.73 C 197.50 157.74 198.35 158.52 199.35 158.48 C 200.36 158.43 201.14 157.58 201.10 156.58 L 201.05 155.58 C 201.01 154.57 200.16 153.79 199.16 153.84 C 198.15 153.88 197.37 154.73 197.41 155.73 Z M 197.45 156.73 L 197.50 157.70 C 197.54 158.71 198.39 159.49 199.40 159.45 C 200.40 159.40 201.18 158.55 201.14 157.55 L 201.10 156.58 C 201.05 155.57 200.20 154.79 199.20 154.83 C 198.19 154.88 197.41 155.73 197.45 156.73 Z M 197.50 157.71 L 197.54 158.76 C 197.59 159.77 198.44 160.54 199.45 160.50 C 200.45 160.45 201.23 159.60 201.19 158.60 L 201.14 157.54 C 201.09 156.54 200.24 155.76 199.24 155.80 C 198.23 155.85 197.45 156.70 197.50 157.71 Z M 197.54 158.76 L 197.59 159.81 C 197.64 160.81 198.49 161.59 199.50 161.55 C 200.50 161.50 201.28 160.65 201.23 159.64 L 201.19 158.59 C 201.14 157.59 200.29 156.81 199.28 156.86 C 198.27 156.90 197.50 157.76 197.54 158.76 Z M 197.59 159.81 L 197.64 160.81 C 197.69 161.81 198.54 162.59 199.55 162.54 C 200.55 162.49 201.33 161.64 201.28 160.63 L 201.23 159.64 C 201.19 158.63 200.33 157.86 199.33 157.90 C 198.32 157.95 197.54 158.80 197.59 159.81 Z M 197.64 160.81 L 197.68 161.76 C 197.73 162.77 198.59 163.54 199.59 163.50 C 200.60 163.45 201.37 162.59 201.33 161.59 L 201.28 160.63 C 201.23 159.63 200.38 158.85 199.37 158.90 C 198.37 158.95 197.59 159.80 197.64 160.81 Z M 197.68 161.76 L 197.73 162.69 C 197.77 163.70 198.63 164.48 199.63 164.43 C 200.64 164.38 201.42 163.53 201.37 162.53 L 201.33 161.59 C 201.28 160.58 200.43 159.81 199.42 159.85 C 198.41 159.90 197.64 160.75 197.68 161.76 Z M 197.73 162.69 L 197.77 163.73 C 197.82 164.74 198.67 165.51 199.68 165.47 C 200.68 165.42 201.46 164.57 201.42 163.57 L 201.37 162.53 C 201.32 161.52 200.47 160.74 199.47 160.79 C 198.46 160.83 197.68 161.69 197.73 162.69 Z M 197.77 163.73 L 197.82 164.73 C 197.86 165.74 198.71 166.52 199.72 166.48 C 200.72 166.43 201.50 165.58 201.46 164.58 L 201.42 163.57 C 201.37 162.56 200.52 161.78 199.52 161.83 C 198.51 161.87 197.73 162.72 197.77 163.73 Z M 197.82 164.73 L 197.86 165.71 C 197.90 166.72 198.75 167.50 199.76 167.46 C 200.76 167.41 201.54 166.57 201.50 165.56 L 201.46 164.58 C 201.42 163.57 200.57 162.79 199.56 162.83 C 198.56 162.88 197.78 163.73 197.82 164.73 Z M 197.86 165.71 L 197.90 166.68 C 197.94 167.68 198.79 168.47 199.79 168.42 C 200.80 168.38 201.58 167.53 201.54 166.53 L 201.50 165.56 C 201.46 164.56 200.61 163.77 199.60 163.82 C 198.60 163.86 197.82 164.71 197.86 165.71 Z M 197.90 166.68 L 197.94 167.69 C 197.98 168.69 198.83 169.47 199.84 169.43 C 200.84 169.39 201.62 168.54 201.58 167.54 L 201.54 166.53 C 201.50 165.52 200.65 164.74 199.64 164.78 C 198.64 164.82 197.86 165.67 197.90 166.68 Z M 197.94 167.69 L 197.98 168.68 C 198.02 169.69 198.87 170.47 199.88 170.43 C 200.88 170.38 201.66 169.54 201.62 168.53 L 201.58 167.54 C 201.54 166.53 200.69 165.75 199.69 165.79 C 198.68 165.83 197.90 166.68 197.94 167.69 Z M 197.98 168.68 L 198.03 169.68 C 198.07 170.68 198.91 171.46 199.92 171.42 C 200.92 171.38 201.70 170.53 201.66 169.52 L 201.62 168.53 C 201.58 167.53 200.73 166.75 199.73 166.79 C 198.72 166.83 197.94 167.68 197.98 168.68 Z M 198.03 169.68 L 198.07 170.66 C 198.11 171.67 198.96 172.45 199.96 172.40 C 200.96 172.36 201.74 171.52 201.70 170.51 L 201.66 169.52 C 201.62 168.52 200.77 167.74 199.77 167.78 C 198.76 167.83 197.98 168.67 198.03 169.68 Z M 198.07 170.67 L 198.11 171.65 C 198.15 172.65 199.00 173.43 200.00 173.39 C 201.01 173.35 201.78 172.50 201.74 171.50 L 201.70 170.51 C 201.66 169.51 200.81 168.73 199.81 168.77 C 198.81 168.82 198.03 169.66 198.07 170.67 Z M 198.11 171.65 L 198.15 172.65 C 198.20 173.65 199.04 174.43 200.04 174.39 C 201.05 174.34 201.82 173.50 201.78 172.50 L 201.74 171.50 C 201.70 170.50 200.85 169.72 199.85 169.76 C 198.85 169.80 198.07 170.65 198.11 171.65 Z M 198.16 172.65 L 198.20 173.66 C 198.24 174.66 199.08 175.44 200.08 175.40 C 201.09 175.36 201.86 174.51 201.82 173.51 L 201.78 172.50 C 201.74 171.50 200.89 170.72 199.89 170.76 C 198.89 170.80 198.11 171.65 198.16 172.65 Z M 198.20 173.66 L 198.24 174.64 C 198.28 175.64 199.12 176.42 200.12 176.38 C 201.12 176.34 201.90 175.49 201.86 174.50 L 201.82 173.51 C 201.78 172.51 200.94 171.74 199.94 171.78 C 198.94 171.82 198.16 172.66 198.20 173.66 Z M 198.24 174.64 L 198.28 175.61 C 198.32 176.61 199.16 177.38 200.16 177.35 C 201.15 177.31 201.93 176.47 201.89 175.47 L 201.86 174.50 C 201.82 173.50 200.98 172.72 199.98 172.76 C 198.98 172.80 198.20 173.64 198.24 174.64 Z M 198.28 175.61 L 198.32 176.60 C 198.36 177.60 199.19 178.38 200.19 178.34 C 201.19 178.30 201.96 177.47 201.93 176.47 L 201.89 175.47 C 201.85 174.48 201.02 173.70 200.02 173.74 C 199.02 173.77 198.25 174.61 198.28 175.61 Z M 198.32 176.60 L 198.36 177.63 C 198.39 178.62 199.23 179.40 200.22 179.37 C 201.22 179.33 201.99 178.50 201.96 177.50 L 201.92 176.47 C 201.89 175.48 201.05 174.70 200.06 174.74 C 199.07 174.77 198.29 175.61 198.32 176.60 Z M 198.36 177.63 L 198.40 178.65 C 198.43 179.64 199.26 180.42 200.25 180.38 C 201.25 180.35 202.02 179.52 201.99 178.53 L 201.96 177.51 C 201.92 176.51 201.09 175.74 200.10 175.77 C 199.11 175.80 198.33 176.64 198.36 177.63 Z M 198.40 178.65 L 198.43 179.65 C 198.47 180.64 199.30 181.42 200.29 181.39 C 201.28 181.35 202.05 180.53 202.02 179.54 L 201.99 178.53 C 201.95 177.54 201.12 176.76 200.14 176.79 C 199.15 176.83 198.37 177.66 198.40 178.65 Z M 198.44 179.65 L 198.47 180.67 C 198.50 181.65 199.33 182.43 200.31 182.40 C 201.30 182.37 202.08 181.54 202.05 180.55 L 202.01 179.54 C 201.98 178.55 201.16 177.78 200.17 177.81 C 199.18 177.84 198.41 178.66 198.44 179.65 Z M 198.47 180.66 L 198.50 181.67 C 198.53 182.65 199.36 183.43 200.34 183.40 C 201.33 183.37 202.10 182.54 202.07 181.56 L 202.04 180.56 C 202.01 179.57 201.19 178.80 200.20 178.83 C 199.22 178.86 198.45 179.68 198.47 180.66 Z M 198.51 181.66 L 198.54 182.65 C 198.57 183.63 199.38 184.41 200.37 184.38 C 201.35 184.35 202.12 183.53 202.10 182.55 L 202.07 181.56 C 202.04 180.58 201.22 179.80 200.24 179.83 C 199.26 179.86 198.48 180.68 198.51 181.66 Z M 198.54 182.65 L 198.57 183.70 C 198.60 184.68 199.41 185.46 200.39 185.43 C 201.37 185.41 202.15 184.59 202.12 183.61 L 202.09 182.55 C 202.07 181.57 201.25 180.80 200.27 180.82 C 199.29 180.85 198.52 181.67 198.54 182.65 Z M 198.58 183.70 L 198.60 184.71 C 198.63 185.69 199.44 186.46 200.41 186.43 C 201.39 186.41 202.16 185.60 202.14 184.62 L 202.12 183.61 C 202.09 182.63 201.28 181.86 200.30 181.89 C 199.32 181.91 198.55 182.72 198.58 183.70 Z M 198.61 184.71 L 198.63 185.67 C 198.65 186.65 199.46 187.42 200.44 187.40 C 201.41 187.37 202.18 186.57 202.16 185.59 L 202.14 184.62 C 202.11 183.65 201.30 182.88 200.33 182.90 C 199.35 182.92 198.58 183.73 198.61 184.71 Z M 198.63 185.67 L 198.66 186.64 C 198.68 187.61 199.48 188.38 200.46 188.36 C 201.43 188.34 202.20 187.53 202.17 186.56 L 202.15 185.59 C 202.13 184.62 201.33 183.85 200.35 183.87 C 199.38 183.89 198.61 184.70 198.63 185.67 Z M 198.66 186.64 L 198.68 187.67 C 198.71 188.64 199.51 189.41 200.48 189.39 C 201.45 189.36 202.21 188.56 202.19 187.59 L 202.17 186.56 C 202.15 185.59 201.35 184.82 200.38 184.85 C 199.41 184.87 198.64 185.67 198.66 186.64 Z M 198.69 187.67 L 198.71 188.67 C 198.73 189.64 199.53 190.40 200.50 190.38 C 201.46 190.36 202.23 189.56 202.21 188.60 L 202.19 187.59 C 202.16 186.63 201.37 185.86 200.40 185.88 C 199.43 185.91 198.67 186.71 198.69 187.67 Z M 198.72 188.67 L 198.74 189.64 C 198.76 190.60 199.56 191.36 200.52 191.34 C 201.48 191.32 202.25 190.52 202.22 189.56 L 202.20 188.59 C 202.18 187.63 201.38 186.87 200.42 186.89 C 199.46 186.91 198.70 187.71 198.72 188.67 Z M 198.75 189.64 L 198.77 190.65 C 198.79 191.61 199.59 192.37 200.54 192.35 C 201.50 192.32 202.26 191.53 202.24 190.57 L 202.22 189.56 C 202.20 188.60 201.40 187.84 200.44 187.86 C 199.48 187.89 198.72 188.68 198.75 189.64 Z M 198.78 190.65 L 198.80 191.65 C 198.82 192.60 199.61 193.36 200.56 193.34 C 201.52 193.32 202.28 192.53 202.26 191.57 L 202.23 190.57 C 202.21 189.62 201.42 188.86 200.47 188.88 C 199.51 188.90 198.75 189.69 198.78 190.65 Z M 198.80 191.64 L 198.82 192.62 C 198.84 193.57 199.62 194.33 200.57 194.32 C 201.53 194.30 202.28 193.51 202.27 192.56 L 202.25 191.58 C 202.23 190.63 201.45 189.87 200.50 189.88 C 199.54 189.90 198.79 190.69 198.80 191.64 Z M 198.83 192.61 L 198.84 193.59 C 198.85 194.54 199.62 195.30 200.57 195.29 C 201.52 195.28 202.28 194.51 202.27 193.56 L 202.26 192.57 C 202.25 191.62 201.47 190.86 200.53 190.87 C 199.58 190.88 198.82 191.66 198.83 192.61 Z M 198.84 193.58 L 198.85 194.58 C 198.85 195.52 199.62 196.29 200.57 196.28 C 201.51 196.28 202.28 195.51 202.27 194.56 L 202.27 193.57 C 202.26 192.62 201.49 191.86 200.55 191.86 C 199.60 191.87 198.84 192.64 198.84 193.58 Z M 198.85 194.57 L 198.85 195.58 C 198.86 196.52 199.62 197.29 200.56 197.28 C 201.50 197.28 202.27 196.52 202.27 195.58 L 202.26 194.57 C 202.26 193.63 201.50 192.86 200.56 192.87 C 199.62 192.87 198.85 193.63 198.85 194.57 Z M 198.86 195.58 L 198.86 196.56 C 198.86 197.50 199.62 198.26 200.56 198.26 C 201.50 198.26 202.26 197.50 202.26 196.56 L 202.26 195.58 C 202.26 194.64 201.50 193.88 200.56 193.88 C 199.62 193.88 198.86 194.64 198.86 195.58 Z M 198.87 196.57 L 198.87 197.54 C 198.87 198.48 199.63 199.23 200.56 199.23 C 201.50 199.23 202.26 198.47 202.25 197.54 L 202.25 196.56 C 202.25 195.63 201.49 194.87 200.56 194.87 C 199.62 194.87 198.87 195.63 198.87 196.57 Z M 198.88 197.55 L 198.88 198.56 C 198.88 199.49 199.64 200.24 200.57 200.24 C 201.51 200.23 202.26 199.48 202.25 198.54 L 202.25 197.53 C 202.24 196.60 201.49 195.85 200.55 195.85 C 199.62 195.86 198.87 196.62 198.88 197.55 Z M 198.89 198.57 L 198.90 199.60 C 198.90 200.52 199.66 201.27 200.59 201.26 C 201.52 201.25 202.26 200.49 202.26 199.57 L 202.25 198.54 C 202.24 197.61 201.48 196.86 200.55 196.87 C 199.62 196.88 198.88 197.64 198.89 198.57 Z M 198.90 199.60 L 198.92 200.60 C 198.93 201.53 199.69 202.27 200.61 202.25 C 201.54 202.24 202.27 201.48 202.26 200.56 L 202.25 199.56 C 202.24 198.63 201.48 197.90 200.55 197.91 C 199.63 197.92 198.89 198.68 198.90 199.60 Z M 198.92 200.61 L 198.94 201.62 C 198.96 202.54 199.72 203.27 200.64 203.26 C 201.56 203.24 202.29 202.48 202.27 201.56 L 202.25 200.55 C 202.24 199.63 201.48 198.90 200.56 198.92 C 199.64 198.93 198.91 199.69 198.92 200.61 Z M 198.95 201.62 L 198.97 202.63 C 198.99 203.54 199.74 204.27 200.66 204.25 C 201.57 204.23 202.30 203.48 202.28 202.56 L 202.26 201.56 C 202.25 200.64 201.49 199.92 200.57 199.93 C 199.66 199.95 198.93 200.71 198.95 201.62 Z M 198.98 202.63 L 199.00 203.65 C 199.02 204.57 199.77 205.29 200.68 205.27 C 201.59 205.25 202.32 204.50 202.30 203.58 L 202.28 202.56 C 202.26 201.65 201.50 200.92 200.59 200.94 C 199.68 200.96 198.96 201.72 198.98 202.63 Z M 199.00 203.65 L 199.03 204.67 C 199.04 205.58 199.80 206.30 200.70 206.28 C 201.61 206.26 202.33 205.51 202.31 204.60 L 202.29 203.59 C 202.27 202.68 201.52 201.96 200.61 201.98 C 199.71 201.99 198.99 202.75 199.00 203.65 Z M 199.03 204.66 L 199.05 205.64 C 199.07 206.55 199.81 207.27 200.72 207.25 C 201.62 207.23 202.34 206.49 202.32 205.58 L 202.31 204.60 C 202.29 203.70 201.54 202.98 200.64 203.00 C 199.74 203.01 199.02 203.76 199.03 204.66 Z M 199.06 205.63 L 199.07 206.62 C 199.08 207.52 199.82 208.24 200.72 208.23 C 201.62 208.21 202.34 207.47 202.33 206.57 L 202.32 205.59 C 202.31 204.69 201.57 203.97 200.67 203.98 C 199.77 203.99 199.04 204.73 199.06 205.63 Z M 199.07 206.61 L 199.08 207.62 C 199.09 208.52 199.82 209.24 200.72 209.23 C 201.62 209.23 202.34 208.49 202.33 207.60 L 202.32 206.58 C 202.32 205.68 201.58 204.96 200.69 204.97 C 199.79 204.98 199.07 205.71 199.07 206.61 Z M 199.09 207.62 L 199.10 208.62 C 199.10 209.51 199.83 210.23 200.73 210.22 C 201.62 210.21 202.34 209.48 202.33 208.59 L 202.32 207.60 C 202.32 206.70 201.59 205.99 200.70 205.99 C 199.80 206.00 199.08 206.73 199.09 207.62 Z M 199.10 208.62 L 199.12 209.62 C 199.13 210.51 199.86 211.22 200.75 211.21 C 201.64 211.19 202.35 210.46 202.34 209.57 L 202.32 208.58 C 202.31 207.69 201.58 206.98 200.69 206.99 C 199.80 207.00 199.09 207.74 199.10 208.62 Z M 199.12 209.63 L 199.14 210.65 C 199.16 211.54 199.90 212.24 200.79 212.22 C 201.67 212.20 202.37 211.47 202.36 210.58 L 202.33 209.56 C 202.31 208.67 201.58 207.97 200.69 207.99 C 199.81 208.01 199.10 208.74 199.12 209.63 Z M 199.15 210.66 L 199.18 211.65 C 199.20 212.54 199.94 213.23 200.82 213.21 C 201.71 213.18 202.41 212.45 202.38 211.56 L 202.35 210.57 C 202.33 209.69 201.59 208.99 200.71 209.01 C 199.82 209.04 199.12 209.78 199.15 210.66 Z M 199.18 211.66 L 199.21 212.65 C 199.23 213.54 199.97 214.23 200.86 214.21 C 201.74 214.18 202.43 213.44 202.41 212.56 L 202.38 211.56 C 202.35 210.68 201.61 209.98 200.73 210.01 C 199.85 210.03 199.15 210.77 199.18 211.66 Z M 199.21 212.66 L 199.24 213.67 C 199.27 214.56 200.01 215.25 200.89 215.22 C 201.77 215.19 202.47 214.46 202.44 213.57 L 202.41 212.56 C 202.38 211.67 201.64 210.98 200.76 211.01 C 199.87 211.03 199.18 211.77 199.21 212.66 Z M 199.24 213.69 L 199.28 214.65 C 199.31 215.54 200.06 216.22 200.94 216.19 C 201.82 216.15 202.51 215.41 202.48 214.53 L 202.44 213.56 C 202.40 212.68 201.66 211.99 200.78 212.02 C 199.90 212.06 199.21 212.80 199.24 213.69 Z M 199.28 214.67 L 199.33 215.68 C 199.38 216.56 200.13 217.24 201.02 217.19 C 201.90 217.15 202.57 216.39 202.53 215.51 L 202.47 214.51 C 202.43 213.62 201.68 212.95 200.79 212.99 C 199.91 213.04 199.23 213.79 199.28 214.67 Z M 199.34 215.71 L 199.41 216.70 C 199.47 217.58 200.23 218.24 201.11 218.18 C 201.99 218.12 202.66 217.35 202.59 216.47 L 202.53 215.49 C 202.46 214.61 201.70 213.94 200.82 214.00 C 199.94 214.06 199.28 214.83 199.34 215.71 Z M 199.41 216.72 L 199.50 217.74 C 199.57 218.61 200.34 219.27 201.22 219.19 C 202.10 219.11 202.75 218.34 202.68 217.46 L 202.59 216.45 C 202.52 215.57 201.74 214.92 200.86 214.99 C 199.98 215.07 199.33 215.84 199.41 216.72 Z M 199.50 217.75 L 199.60 218.76 C 199.68 219.64 200.46 220.28 201.34 220.20 C 202.21 220.11 202.86 219.33 202.77 218.45 L 202.67 217.45 C 202.59 216.57 201.81 215.93 200.93 216.01 C 200.06 216.10 199.41 216.88 199.50 217.75 Z M 199.60 218.76 L 199.69 219.71 C 199.78 220.58 200.56 221.23 201.43 221.14 C 202.31 221.05 202.95 220.27 202.86 219.40 L 202.77 218.45 C 202.68 217.58 201.90 216.94 201.03 217.02 C 200.15 217.11 199.51 217.89 199.60 218.76 Z M 199.69 219.70 L 199.78 220.66 C 199.87 221.53 200.64 222.17 201.52 222.09 C 202.40 222.01 203.04 221.23 202.95 220.35 L 202.86 219.40 C 202.78 218.53 202.00 217.88 201.13 217.97 C 200.25 218.05 199.61 218.83 199.69 219.70 Z M 199.78 220.66 L 199.88 221.67 C 199.97 222.54 200.74 223.19 201.62 223.10 C 202.50 223.02 203.14 222.24 203.05 221.36 L 202.95 220.35 C 202.87 219.48 202.09 218.84 201.21 218.92 C 200.34 219.00 199.70 219.78 199.78 220.66 Z M 199.88 221.67 L 199.98 222.65 C 200.06 223.53 200.84 224.17 201.72 224.09 C 202.59 224.00 203.23 223.22 203.15 222.35 L 203.05 221.36 C 202.97 220.49 202.19 219.85 201.31 219.93 C 200.44 220.02 199.80 220.79 199.88 221.67 Z M 199.98 222.65 L 200.07 223.68 C 200.15 224.56 200.93 225.20 201.80 225.12 C 202.68 225.04 203.32 224.27 203.24 223.39 L 203.15 222.36 C 203.07 221.48 202.29 220.84 201.42 220.92 C 200.54 221.00 199.90 221.77 199.98 222.65 Z M 200.07 223.67 L 200.15 224.71 C 200.22 225.59 200.99 226.24 201.87 226.17 C 202.74 226.10 203.40 225.34 203.33 224.46 L 203.24 223.41 C 203.17 222.54 202.41 221.88 201.53 221.95 C 200.65 222.02 200.00 222.79 200.07 223.67 Z M 200.15 224.69 L 200.22 225.68 C 200.27 226.56 201.02 227.23 201.90 227.17 C 202.78 227.12 203.44 226.36 203.39 225.49 L 203.33 224.49 C 203.27 223.61 202.52 222.95 201.64 223.00 C 200.77 223.05 200.10 223.81 200.15 224.69 Z M 200.21 225.65 L 200.25 226.65 C 200.29 227.53 201.03 228.21 201.91 228.17 C 202.78 228.14 203.47 227.40 203.43 226.52 L 203.39 225.52 C 203.36 224.65 202.62 223.96 201.74 224.00 C 200.86 224.03 200.18 224.77 200.21 225.65 Z M 200.26 226.61 L 200.28 227.83 C 200.29 228.70 201.01 229.40 201.89 229.39 C 202.76 229.37 203.46 228.65 203.45 227.78 L 203.43 226.56 C 203.41 225.69 202.69 224.99 201.82 225.00 C 200.94 225.01 200.24 225.74 200.26 226.61 Z M 200.29 227.80 L 200.29 228.01 C 200.29 228.88 201.00 229.58 201.86 229.58 C 202.73 229.58 203.43 228.88 203.43 228.01 L 203.43 227.80 C 203.43 226.93 202.73 226.23 201.86 226.23 C 200.99 226.23 200.29 226.94 200.29 227.80 Z M 203.38 227.99 L 203.36 226.79 C 203.35 225.95 202.66 225.28 201.82 225.29 C 200.98 225.31 200.31 226.00 200.32 226.84 L 200.34 228.04 C 200.35 228.88 201.05 229.55 201.89 229.53 C 202.73 229.52 203.40 228.83 203.38 227.99 Z M 203.32 226.77 L 203.30 225.82 C 203.27 225.00 202.59 224.36 201.77 224.38 C 200.95 224.40 200.31 225.09 200.33 225.90 L 200.36 226.86 C 200.39 227.67 201.07 228.32 201.88 228.29 C 202.70 228.27 203.35 227.59 203.32 226.77 Z M 203.28 225.81 L 203.25 224.82 C 203.22 224.02 202.54 223.38 201.73 223.41 C 200.92 223.44 200.29 224.12 200.32 224.92 L 200.35 225.91 C 200.38 226.72 201.06 227.35 201.86 227.33 C 202.67 227.30 203.31 226.62 203.28 225.81 Z M 203.23 224.82 L 203.19 223.76 C 203.16 222.95 202.49 222.33 201.69 222.36 C 200.89 222.39 200.26 223.06 200.29 223.86 L 200.33 224.93 C 200.36 225.73 201.03 226.36 201.83 226.33 C 202.64 226.30 203.26 225.62 203.23 224.82 Z M 203.18 223.75 L 203.16 223.02 C 203.13 222.22 202.46 221.60 201.66 221.63 C 200.87 221.66 200.24 222.33 200.27 223.13 L 200.30 223.86 C 200.33 224.66 201.00 225.28 201.80 225.25 C 202.59 225.22 203.21 224.55 203.18 223.75 Z"
      fill="black"
      fill-rule="nonzero" /></svg>