<svg xmlns="http://www.w3.org/2000/svg" width="300" height="300" viewBox="0 0 300 300">
<path d="M 118.46 85.53 L 118.10 84.55 C 117.83 83.79 116.99 83.41 116.24 83.68 C 115.49 83.96 115.10 84.79 115.37 85.54 L 115.73 86.53 C 116.01 87.28 116.84 87.67 117.60 87.39 C 118.35 87.12 118.74 86.28 118.46 85.53 Z M 118.13 84.60 L 117.83 83.66 C 117.58 82.89 116.76 82.46 116.00 82.71 C 115.23 82.95 114.80 83.77 115.05 84.54 L 115.35 85.49 C 115.59 86.25 116.41 86.68 117.18 86.44 C 117.95 86.19 118.37 85.37 118.13 84.60 Z M 117.88 83.83 L 117.68 82.76 C 117.54 81.96 116.77 81.43 115.97 81.58 C 115.17 81.73 114.64 82.50 114.79 83.30 L 114.99 84.37 C 115.14 85.17 115.91 85.70 116.71 85.55 C 117.51 85.40 118.03 84.63 117.88 83.83 Z M 117.69 83.34 L 117.88 82.50 C 118.05 81.69 117.54 80.90 116.74 80.72 C 115.93 80.55 115.14 81.06 114.96 81.87 L 114.78 82.71 C 114.61 83.51 115.12 84.31 115.92 84.48 C 116.73 84.66 117.52 84.15 117.69 83.34 Z M 116.46 83.68 L 117.28 83.66 C 118.11 83.64 118.77 82.95 118.75 82.12 C 118.73 81.29 118.04 80.63 117.21 80.66 L 116.38 80.68 C 115.55 80.70 114.89 81.39 114.92 82.22 C 114.94 83.05 115.63 83.71 116.46 83.68 Z M 116.39 83.40 L 117.23 83.98 C 117.92 84.45 118.86 84.28 119.33 83.59 C 119.80 82.91 119.63 81.97 118.94 81.50 L 118.10 80.92 C 117.41 80.44 116.47 80.62 116.00 81.31 C 115.53 81.99 115.70 82.93 116.39 83.40 Z M 116.87 83.63 L 117.45 84.41 C 117.94 85.08 118.88 85.23 119.55 84.73 C 120.23 84.24 120.37 83.30 119.88 82.62 L 119.30 81.84 C 118.81 81.17 117.86 81.03 117.19 81.52 C 116.52 82.02 116.38 82.96 116.87 83.63 Z M 117.34 84.25 L 117.84 85.14 C 118.24 85.87 119.16 86.13 119.89 85.73 C 120.62 85.33 120.88 84.41 120.48 83.68 L 119.98 82.79 C 119.58 82.06 118.66 81.80 117.93 82.20 C 117.20 82.60 116.94 83.52 117.34 84.25 Z M 117.82 85.10 L 118.27 85.97 C 118.65 86.71 119.56 87.00 120.30 86.62 C 121.04 86.24 121.33 85.33 120.94 84.59 L 120.49 83.72 C 120.11 82.98 119.20 82.69 118.46 83.07 C 117.72 83.46 117.44 84.37 117.82 85.10 Z M 118.26 85.97 L 118.75 86.90 C 119.12 87.64 120.03 87.94 120.77 87.56 C 121.51 87.18 121.80 86.27 121.43 85.53 L 120.94 84.59 C 120.57 83.85 119.66 83.56 118.92 83.94 C 118.18 84.32 117.89 85.23 118.26 85.97 Z M 118.75 86.91 L 119.25 87.87 C 119.63 88.60 120.54 88.89 121.28 88.50 C 122.01 88.12 122.30 87.21 121.91 86.47 L 121.42 85.52 C 121.03 84.79 120.13 84.50 119.39 84.89 C 118.65 85.27 118.37 86.18 118.75 86.91 Z M 119.26 87.88 L 119.75 88.79 C 120.14 89.52 121.05 89.80 121.78 89.40 C 122.51 89.01 122.79 88.10 122.39 87.37 L 121.90 86.46 C 121.51 85.73 120.60 85.46 119.87 85.85 C 119.14 86.24 118.87 87.15 119.26 87.88 Z M 119.77 88.81 L 120.22 89.63 C 120.62 90.36 121.53 90.62 122.25 90.22 C 122.98 89.82 123.24 88.91 122.84 88.19 L 122.38 87.36 C 121.98 86.64 121.07 86.38 120.35 86.78 C 119.63 87.18 119.37 88.08 119.77 88.81 Z M 120.24 89.65 L 120.77 90.57 C 121.18 91.28 122.09 91.53 122.80 91.12 C 123.51 90.71 123.76 89.80 123.35 89.09 L 122.82 88.17 C 122.41 87.46 121.50 87.21 120.79 87.62 C 120.08 88.03 119.83 88.94 120.24 89.65 Z M 120.80 90.60 L 121.28 91.40 C 121.71 92.09 122.61 92.32 123.31 91.89 C 124.01 91.47 124.23 90.56 123.81 89.87 L 123.32 89.06 C 122.90 88.37 121.99 88.15 121.29 88.57 C 120.60 88.99 120.37 89.90 120.80 90.60 Z M 121.32 91.43 L 121.85 92.26 C 122.29 92.94 123.20 93.13 123.88 92.69 C 124.56 92.25 124.75 91.35 124.31 90.67 L 123.77 89.84 C 123.34 89.16 122.43 88.96 121.75 89.40 C 121.07 89.84 120.88 90.75 121.32 91.43 Z M 121.90 92.31 L 122.47 93.11 C 122.94 93.76 123.85 93.91 124.50 93.44 C 125.15 92.97 125.30 92.06 124.84 91.41 L 124.26 90.62 C 123.80 89.96 122.89 89.81 122.24 90.28 C 121.58 90.75 121.43 91.66 121.90 92.31 Z M 122.57 93.21 L 123.21 93.94 C 123.73 94.54 124.65 94.61 125.25 94.08 C 125.85 93.56 125.91 92.64 125.38 92.04 L 124.74 91.31 C 124.22 90.71 123.31 90.65 122.71 91.17 C 122.10 91.70 122.04 92.61 122.57 93.21 Z M 123.37 94.09 L 124.12 94.73 C 124.73 95.24 125.63 95.17 126.15 94.57 C 126.66 93.96 126.59 93.06 125.98 92.55 L 125.23 91.90 C 124.62 91.39 123.72 91.46 123.20 92.06 C 122.69 92.67 122.76 93.57 123.37 94.09 Z M 124.24 94.81 L 125.07 95.39 C 125.72 95.84 126.61 95.67 127.06 95.03 C 127.51 94.38 127.34 93.49 126.70 93.04 L 125.87 92.46 C 125.22 92.01 124.33 92.17 123.88 92.82 C 123.43 93.47 123.59 94.36 124.24 94.81 Z M 125.10 95.41 L 125.55 95.70 C 126.21 96.13 127.10 95.95 127.53 95.29 C 127.96 94.63 127.77 93.74 127.11 93.31 L 126.66 93.02 C 126.00 92.59 125.12 92.77 124.69 93.43 C 124.26 94.09 124.44 94.98 125.10 95.41 Z"
      fill="black"
      fill-rule="nonzero" /><path d="M 151.15 70.15 L 150.17 69.81 C 149.39 69.54 148.55 69.95 148.28 70.73 C 148.01 71.50 148.42 72.35 149.20 72.62 L 150.18 72.96 C 150.96 73.22 151.80 72.81 152.07 72.04 C 152.34 71.26 151.93 70.42 151.15 70.15 Z M 148.86 69.95 L 148.22 70.36 C 147.52 70.82 147.33 71.75 147.78 72.45 C 148.23 73.15 149.17 73.35 149.87 72.89 L 150.50 72.48 C 151.20 72.02 151.40 71.09 150.95 70.39 C 150.49 69.69 149.56 69.50 148.86 69.95 Z M 147.60 71.15 L 147.27 72.17 C 147.00 72.97 147.44 73.83 148.23 74.09 C 149.03 74.35 149.89 73.92 150.15 73.12 L 150.49 72.10 C 150.75 71.31 150.32 70.45 149.52 70.19 C 148.72 69.92 147.86 70.36 147.60 71.15 Z M 147.20 72.42 L 147.06 73.39 C 146.93 74.22 147.50 75.00 148.33 75.13 C 149.16 75.25 149.94 74.68 150.06 73.85 L 150.21 72.88 C 150.34 72.05 149.77 71.27 148.94 71.15 C 148.11 71.02 147.33 71.59 147.20 72.42 Z M 147.04 73.48 L 146.95 74.48 C 146.87 75.32 147.48 76.06 148.32 76.14 C 149.16 76.22 149.90 75.60 149.98 74.77 L 150.07 73.77 C 150.15 72.93 149.54 72.19 148.70 72.11 C 147.87 72.03 147.12 72.64 147.04 73.48 Z M 146.95 74.49 L 146.86 75.54 C 146.79 76.38 147.41 77.12 148.25 77.19 C 149.08 77.26 149.82 76.64 149.89 75.80 L 149.98 74.75 C 150.05 73.91 149.43 73.18 148.59 73.11 C 147.75 73.04 147.02 73.66 146.95 74.49 Z M 146.86 75.53 L 146.76 76.56 C 146.69 77.39 147.30 78.14 148.14 78.21 C 148.97 78.29 149.72 77.68 149.79 76.84 L 149.89 75.82 C 149.97 74.98 149.35 74.24 148.52 74.16 C 147.68 74.08 146.94 74.69 146.86 75.53 Z M 146.77 76.55 L 146.66 77.53 C 146.58 78.37 147.19 79.12 148.02 79.20 C 148.86 79.29 149.61 78.68 149.69 77.84 L 149.79 76.85 C 149.88 76.02 149.27 75.27 148.43 75.19 C 147.60 75.10 146.85 75.71 146.77 76.55 Z M 146.67 77.52 L 146.55 78.57 C 146.46 79.40 147.06 80.15 147.89 80.25 C 148.73 80.34 149.48 79.74 149.57 78.91 L 149.69 77.86 C 149.78 77.02 149.18 76.27 148.35 76.18 C 147.51 76.08 146.76 76.68 146.67 77.52 Z M 146.55 78.56 L 146.44 79.51 C 146.34 80.34 146.94 81.10 147.77 81.20 C 148.60 81.30 149.36 80.70 149.45 79.87 L 149.57 78.92 C 149.67 78.08 149.07 77.33 148.24 77.23 C 147.41 77.13 146.65 77.73 146.55 78.56 Z M 146.44 79.53 L 146.34 80.49 C 146.25 81.32 146.85 82.07 147.68 82.16 C 148.51 82.25 149.26 81.65 149.35 80.82 L 149.45 79.85 C 149.54 79.02 148.94 78.28 148.11 78.18 C 147.28 78.09 146.53 78.69 146.44 79.53 Z M 146.34 80.49 L 146.24 81.48 C 146.15 82.30 146.75 83.05 147.58 83.14 C 148.41 83.23 149.15 82.63 149.24 81.80 L 149.34 80.81 C 149.43 79.98 148.83 79.24 148.00 79.15 C 147.17 79.06 146.43 79.66 146.34 80.49 Z M 146.24 81.44 L 146.12 82.43 C 146.01 83.26 146.59 84.01 147.42 84.12 C 148.24 84.23 149.00 83.64 149.10 82.82 L 149.23 81.83 C 149.34 81.00 148.76 80.25 147.93 80.14 C 147.11 80.03 146.35 80.62 146.24 81.44 Z M 146.13 82.39 L 145.97 83.38 C 145.84 84.20 146.40 84.97 147.22 85.10 C 148.04 85.23 148.81 84.67 148.94 83.86 L 149.09 82.86 C 149.22 82.04 148.66 81.27 147.84 81.14 C 147.02 81.01 146.26 81.57 146.13 82.39 Z M 145.98 83.35 L 145.80 84.33 C 145.65 85.15 146.19 85.93 147.00 86.08 C 147.81 86.23 148.59 85.69 148.74 84.88 L 148.92 83.89 C 149.07 83.08 148.54 82.30 147.72 82.15 C 146.91 82.00 146.13 82.54 145.98 83.35 Z M 145.81 84.31 L 145.63 85.22 C 145.47 86.03 145.99 86.81 146.80 86.97 C 147.61 87.14 148.39 86.61 148.55 85.80 L 148.73 84.90 C 148.89 84.09 148.37 83.30 147.56 83.14 C 146.75 82.98 145.97 83.51 145.81 84.31 Z M 145.64 85.19 L 145.42 86.19 C 145.24 86.99 145.74 87.79 146.54 87.97 C 147.34 88.15 148.14 87.64 148.32 86.84 L 148.54 85.83 C 148.72 85.03 148.21 84.24 147.41 84.06 C 146.61 83.88 145.82 84.39 145.64 85.19 Z M 145.43 86.16 L 145.19 87.12 C 144.99 87.92 145.48 88.72 146.27 88.92 C 147.06 89.11 147.87 88.63 148.06 87.84 L 148.30 86.87 C 148.50 86.08 148.02 85.28 147.22 85.08 C 146.43 84.88 145.63 85.37 145.43 86.16 Z M 145.20 87.09 L 144.93 88.09 C 144.72 88.88 145.18 89.69 145.97 89.90 C 146.76 90.11 147.57 89.65 147.78 88.86 L 148.05 87.86 C 148.26 87.08 147.80 86.27 147.01 86.05 C 146.23 85.84 145.42 86.31 145.20 87.09 Z M 144.95 88.05 L 144.65 89.05 C 144.42 89.83 144.86 90.65 145.63 90.88 C 146.41 91.11 147.23 90.67 147.47 89.90 L 147.77 88.90 C 148.00 88.12 147.56 87.30 146.78 87.07 C 146.00 86.83 145.18 87.27 144.95 88.05 Z M 144.68 88.99 L 144.33 89.98 C 144.07 90.74 144.47 91.58 145.23 91.84 C 145.99 92.11 146.82 91.71 147.09 90.95 L 147.44 89.96 C 147.70 89.19 147.30 88.36 146.54 88.09 C 145.78 87.83 144.94 88.23 144.68 88.99 Z M 144.37 89.91 L 144.02 90.77 C 143.71 91.51 144.06 92.35 144.80 92.66 C 145.54 92.97 146.39 92.61 146.69 91.88 L 147.05 91.02 C 147.35 90.28 147.00 89.43 146.26 89.13 C 145.53 88.82 144.68 89.17 144.37 89.91 Z M 144.06 90.69 L 143.62 91.61 C 143.27 92.32 143.56 93.18 144.28 93.53 C 144.99 93.88 145.85 93.58 146.20 92.87 L 146.65 91.95 C 147.00 91.24 146.70 90.38 145.99 90.03 C 145.27 89.68 144.41 89.98 144.06 90.69 Z M 143.65 91.56 L 143.25 92.30 C 142.87 93.00 143.14 93.87 143.83 94.24 C 144.53 94.61 145.39 94.35 145.77 93.66 L 146.17 92.91 C 146.54 92.22 146.28 91.35 145.59 90.98 C 144.89 90.60 144.02 90.86 143.65 91.56 Z"
      fill="black"
      fill-rule="nonzero" /><path d="M 183.54 84.13 L 184.63 84.19 C 185.46 84.24 186.16 83.61 186.21 82.79 C 186.26 81.96 185.63 81.26 184.80 81.21 L 183.71 81.14 C 182.89 81.10 182.18 81.73 182.14 82.55 C 182.09 83.38 182.72 84.08 183.54 84.13 Z M 183.90 83.98 L 184.56 84.40 C 185.26 84.86 186.20 84.66 186.66 83.95 C 187.11 83.25 186.91 82.31 186.20 81.85 L 185.54 81.42 C 184.83 80.97 183.90 81.17 183.44 81.88 C 182.99 82.58 183.19 83.52 183.90 83.98 Z M 183.84 83.18 L 183.88 84.10 C 183.91 84.95 184.62 85.61 185.47 85.58 C 186.32 85.55 186.98 84.84 186.95 83.99 L 186.92 83.07 C 186.89 82.22 186.18 81.56 185.33 81.59 C 184.48 81.62 183.81 82.33 183.84 83.18 Z M 183.95 83.51 L 183.59 84.51 C 183.29 85.32 183.71 86.21 184.52 86.50 C 185.32 86.80 186.22 86.38 186.51 85.58 L 186.88 84.58 C 187.17 83.77 186.75 82.88 185.95 82.58 C 185.14 82.29 184.25 82.70 183.95 83.51 Z M 183.67 84.30 L 183.22 85.14 C 182.82 85.90 183.10 86.85 183.86 87.25 C 184.62 87.66 185.57 87.38 185.98 86.62 L 186.43 85.78 C 186.83 85.02 186.55 84.07 185.79 83.67 C 185.03 83.26 184.08 83.54 183.67 84.30 Z M 183.26 85.07 L 182.72 85.98 C 182.27 86.72 182.51 87.68 183.25 88.12 C 183.99 88.57 184.95 88.33 185.39 87.59 L 185.94 86.68 C 186.38 85.94 186.15 84.98 185.41 84.54 C 184.67 84.09 183.71 84.33 183.26 85.07 Z M 182.72 85.97 L 182.16 86.89 C 181.71 87.62 181.94 88.58 182.68 89.03 C 183.42 89.48 184.38 89.25 184.83 88.52 L 185.39 87.60 C 185.84 86.86 185.61 85.90 184.87 85.45 C 184.13 85.00 183.17 85.23 182.72 85.97 Z M 182.16 86.90 L 181.62 87.79 C 181.18 88.53 181.42 89.49 182.16 89.93 C 182.90 90.37 183.86 90.13 184.30 89.39 L 184.83 88.50 C 185.28 87.76 185.04 86.81 184.30 86.36 C 183.56 85.92 182.60 86.16 182.16 86.90 Z M 181.62 87.80 L 181.11 88.66 C 180.67 89.40 180.91 90.36 181.65 90.80 C 182.39 91.23 183.34 90.99 183.78 90.25 L 184.30 89.39 C 184.74 88.65 184.50 87.69 183.76 87.25 C 183.02 86.81 182.06 87.06 181.62 87.80 Z M 181.11 88.66 L 180.62 89.49 C 180.18 90.23 180.42 91.18 181.15 91.62 C 181.89 92.06 182.84 91.82 183.28 91.08 L 183.78 90.25 C 184.22 89.52 183.98 88.56 183.24 88.12 C 182.51 87.68 181.55 87.92 181.11 88.66 Z M 180.63 89.49 L 180.08 90.40 C 179.64 91.13 179.88 92.07 180.60 92.51 C 181.33 92.95 182.28 92.72 182.72 91.99 L 183.27 91.08 C 183.71 90.36 183.47 89.41 182.75 88.97 C 182.02 88.53 181.07 88.76 180.63 89.49 Z M 180.09 90.43 L 179.62 91.23 C 179.19 91.95 179.43 92.88 180.15 93.31 C 180.87 93.74 181.81 93.50 182.23 92.77 L 182.71 91.97 C 183.13 91.25 182.89 90.31 182.17 89.89 C 181.45 89.46 180.52 89.70 180.09 90.43 Z M 179.61 91.29 L 179.15 92.13 C 178.76 92.85 179.03 93.76 179.75 94.16 C 180.48 94.55 181.39 94.28 181.78 93.56 L 182.24 92.72 C 182.63 91.99 182.36 91.08 181.64 90.69 C 180.91 90.29 180.00 90.56 179.61 91.29 Z M 179.15 92.19 L 178.71 93.09 C 178.35 93.82 178.65 94.70 179.38 95.06 C 180.11 95.42 180.99 95.12 181.35 94.39 L 181.79 93.49 C 182.15 92.76 181.85 91.88 181.11 91.52 C 180.38 91.16 179.50 91.46 179.15 92.19 Z M 178.70 93.15 L 178.29 94.07 C 177.97 94.80 178.30 95.66 179.03 95.99 C 179.77 96.31 180.63 95.98 180.95 95.25 L 181.36 94.33 C 181.68 93.59 181.35 92.74 180.62 92.41 C 179.88 92.09 179.03 92.42 178.70 93.15 Z M 178.29 94.11 L 177.91 95.03 C 177.61 95.77 177.96 96.61 178.70 96.91 C 179.43 97.21 180.27 96.86 180.58 96.13 L 180.95 95.21 C 181.25 94.47 180.90 93.63 180.17 93.33 C 179.43 93.03 178.59 93.38 178.29 94.11 Z M 177.91 95.05 L 177.54 96.00 C 177.25 96.73 177.61 97.56 178.34 97.86 C 179.08 98.15 179.91 97.79 180.20 97.05 L 180.57 96.11 C 180.86 95.37 180.50 94.54 179.77 94.25 C 179.04 93.96 178.20 94.32 177.91 95.05 Z M 177.54 96.00 L 177.52 96.06 C 177.23 96.80 177.59 97.62 178.33 97.91 C 179.06 98.20 179.89 97.84 180.17 97.10 L 180.20 97.05 C 180.48 96.31 180.12 95.49 179.39 95.20 C 178.66 94.91 177.83 95.27 177.54 96.00 Z"
      fill="black"
      fill-rule="nonzero" /></svg>