<svg xmlns="http://www.w3.org/2000/svg" width="300" height="300" viewBox="0 0 300 300">
<path d="M 133.42 137.21 L 132.60 137.78 C 131.93 138.25 131.77 139.17 132.23 139.84 C 132.70 140.51 133.62 140.67 134.29 140.21 L 135.11 139.63 C 135.78 139.17 135.94 138.25 135.48 137.58 C 135.01 136.91 134.09 136.74 133.42 137.21 Z M 132.62 137.77 L 131.80 138.32 C 131.12 138.78 130.94 139.70 131.40 140.37 C 131.85 141.05 132.77 141.23 133.45 140.77 L 134.27 140.22 C 134.95 139.76 135.13 138.84 134.67 138.17 C 134.21 137.49 133.29 137.31 132.62 137.77 Z M 131.80 138.31 L 130.97 138.87 C 130.29 139.33 130.10 140.25 130.56 140.93 C 131.02 141.61 131.94 141.79 132.62 141.34 L 133.45 140.78 C 134.13 140.32 134.31 139.40 133.86 138.72 C 133.40 138.04 132.48 137.86 131.80 138.31 Z M 130.93 138.89 L 130.12 139.47 C 129.45 139.95 129.30 140.87 129.77 141.54 C 130.25 142.21 131.18 142.37 131.85 141.89 L 132.66 141.31 C 133.32 140.84 133.48 139.91 133.00 139.24 C 132.53 138.57 131.60 138.42 130.93 138.89 Z M 130.08 139.50 L 129.27 140.11 C 128.62 140.61 128.49 141.55 129.00 142.20 C 129.50 142.86 130.43 142.98 131.09 142.48 L 131.89 141.86 C 132.55 141.36 132.67 140.43 132.17 139.77 C 131.67 139.12 130.73 139.00 130.08 139.50 Z M 129.23 140.14 L 128.47 140.77 C 127.83 141.29 127.74 142.24 128.27 142.87 C 128.79 143.51 129.74 143.60 130.37 143.07 L 131.13 142.45 C 131.77 141.93 131.86 140.98 131.33 140.35 C 130.81 139.71 129.87 139.62 129.23 140.14 Z M 128.41 140.81 L 127.67 141.49 C 127.06 142.05 127.01 143.00 127.57 143.61 C 128.13 144.22 129.08 144.27 129.69 143.71 L 130.43 143.03 C 131.05 142.47 131.09 141.52 130.53 140.91 C 129.97 140.30 129.02 140.25 128.41 140.81 Z M 127.61 141.55 L 126.93 142.23 C 126.35 142.83 126.36 143.78 126.95 144.36 C 127.54 144.94 128.50 144.93 129.08 144.34 L 129.75 143.65 C 130.33 143.06 130.33 142.11 129.73 141.53 C 129.14 140.94 128.19 140.95 127.61 141.55 Z M 126.88 142.29 L 126.18 143.07 C 125.63 143.69 125.68 144.64 126.31 145.20 C 126.93 145.75 127.88 145.69 128.43 145.07 L 129.13 144.29 C 129.68 143.67 129.63 142.71 129.01 142.16 C 128.38 141.61 127.43 141.66 126.88 142.29 Z M 126.14 143.12 L 125.53 143.87 C 125.00 144.51 125.09 145.46 125.74 145.99 C 126.38 146.52 127.34 146.42 127.86 145.78 L 128.48 145.03 C 129.00 144.38 128.91 143.43 128.26 142.90 C 127.62 142.37 126.67 142.47 126.14 143.12 Z M 125.49 143.91 L 124.88 144.72 C 124.37 145.38 124.50 146.33 125.17 146.84 C 125.83 147.34 126.78 147.21 127.29 146.54 L 127.90 145.74 C 128.40 145.07 128.27 144.12 127.61 143.62 C 126.94 143.11 125.99 143.24 125.49 143.91 Z M 124.84 144.76 L 124.28 145.56 C 123.80 146.24 123.97 147.19 124.65 147.67 C 125.34 148.15 126.28 147.98 126.76 147.30 L 127.32 146.50 C 127.80 145.82 127.64 144.87 126.95 144.39 C 126.27 143.91 125.32 144.08 124.84 144.76 Z M 124.25 145.61 L 123.74 146.40 C 123.29 147.11 123.49 148.04 124.20 148.50 C 124.90 148.95 125.84 148.74 126.29 148.04 L 126.80 147.25 C 127.25 146.54 127.05 145.60 126.34 145.15 C 125.64 144.70 124.70 144.90 124.25 145.61 Z M 123.70 146.46 L 123.18 147.35 C 122.76 148.08 123.00 149.01 123.73 149.43 C 124.46 149.85 125.38 149.61 125.81 148.88 L 126.33 147.98 C 126.75 147.26 126.50 146.33 125.78 145.91 C 125.05 145.48 124.12 145.73 123.70 146.46 Z M 123.15 147.40 L 122.65 148.34 C 122.26 149.08 122.54 150.00 123.28 150.40 C 124.02 150.79 124.94 150.51 125.34 149.77 L 125.84 148.83 C 126.23 148.09 125.95 147.17 125.21 146.77 C 124.47 146.38 123.54 146.66 123.15 147.40 Z M 122.63 148.37 L 122.16 149.31 C 121.78 150.06 122.09 150.97 122.84 151.35 C 123.59 151.73 124.51 151.43 124.88 150.68 L 125.35 149.74 C 125.73 148.99 125.43 148.07 124.68 147.69 C 123.93 147.32 123.01 147.62 122.63 148.37 Z M 122.15 149.32 L 121.70 150.25 C 121.33 151.01 121.65 151.92 122.41 152.29 C 123.16 152.66 124.08 152.34 124.44 151.59 L 124.89 150.66 C 125.26 149.90 124.95 148.99 124.19 148.62 C 123.43 148.25 122.52 148.57 122.15 149.32 Z M 121.69 150.26 L 121.30 151.10 C 120.93 151.86 121.26 152.77 122.02 153.13 C 122.78 153.49 123.69 153.17 124.06 152.41 L 124.45 151.57 C 124.81 150.81 124.49 149.90 123.73 149.54 C 122.97 149.18 122.05 149.50 121.69 150.26 Z M 121.29 151.11 L 120.82 152.12 C 120.47 152.89 120.80 153.80 121.57 154.15 C 122.34 154.51 123.25 154.17 123.60 153.40 L 124.06 152.39 C 124.42 151.63 124.08 150.72 123.32 150.36 C 122.55 150.01 121.64 150.35 121.29 151.11 Z M 120.80 152.18 L 120.45 153.02 C 120.13 153.80 120.50 154.69 121.28 155.02 C 122.06 155.34 122.95 154.97 123.28 154.19 L 123.62 153.35 C 123.95 152.57 123.58 151.67 122.79 151.35 C 122.01 151.03 121.12 151.40 120.80 152.18 Z M 120.42 153.09 L 120.11 153.96 C 119.83 154.76 120.25 155.63 121.04 155.91 C 121.84 156.20 122.72 155.78 123.00 154.98 L 123.31 154.11 C 123.59 153.32 123.17 152.44 122.37 152.16 C 121.58 151.88 120.70 152.29 120.42 153.09 Z M 120.09 154.01 L 119.79 154.98 C 119.54 155.79 119.99 156.64 120.80 156.90 C 121.60 157.15 122.46 156.70 122.71 155.89 L 123.02 154.93 C 123.27 154.12 122.82 153.26 122.01 153.01 C 121.21 152.76 120.35 153.21 120.09 154.01 Z M 119.78 155.02 L 119.50 156.03 C 119.27 156.84 119.75 157.69 120.56 157.91 C 121.38 158.14 122.22 157.67 122.45 156.85 L 122.73 155.85 C 122.96 155.03 122.48 154.19 121.66 153.96 C 120.85 153.73 120.01 154.21 119.78 155.02 Z M 119.49 156.07 L 119.25 157.03 C 119.04 157.85 119.54 158.69 120.36 158.89 C 121.18 159.09 122.02 158.59 122.22 157.77 L 122.46 156.81 C 122.66 155.99 122.16 155.16 121.34 154.95 C 120.52 154.75 119.69 155.25 119.49 156.07 Z M 119.24 157.07 L 119.02 158.05 C 118.84 158.88 119.36 159.70 120.18 159.88 C 121.01 160.06 121.83 159.54 122.01 158.72 L 122.23 157.73 C 122.41 156.91 121.89 156.09 121.07 155.91 C 120.24 155.72 119.42 156.24 119.24 157.07 Z M 119.01 158.09 L 118.81 159.09 C 118.65 159.92 119.19 160.73 120.02 160.89 C 120.85 161.05 121.66 160.51 121.82 159.68 L 122.02 158.68 C 122.18 157.85 121.64 157.04 120.81 156.88 C 119.98 156.72 119.17 157.26 119.01 158.09 Z M 118.81 159.12 L 118.63 160.12 C 118.48 160.95 119.04 161.75 119.88 161.90 C 120.71 162.04 121.51 161.48 121.65 160.65 L 121.83 159.65 C 121.98 158.81 121.42 158.02 120.58 157.87 C 119.75 157.73 118.95 158.29 118.81 159.12 Z M 118.62 160.15 L 118.48 161.11 C 118.35 161.95 118.92 162.74 119.76 162.86 C 120.60 162.99 121.39 162.42 121.51 161.58 L 121.66 160.62 C 121.79 159.78 121.21 158.99 120.38 158.86 C 119.54 158.74 118.75 159.31 118.62 160.15 Z M 118.47 161.15 L 118.34 162.17 C 118.23 163.01 118.82 163.79 119.66 163.90 C 120.50 164.01 121.28 163.41 121.39 162.57 L 121.52 161.55 C 121.63 160.70 121.04 159.93 120.19 159.82 C 119.35 159.71 118.58 160.30 118.47 161.15 Z M 118.33 162.19 L 118.22 163.16 C 118.12 164.00 118.72 164.77 119.56 164.87 C 120.41 164.97 121.17 164.37 121.27 163.53 L 121.39 162.55 C 121.49 161.71 120.89 160.94 120.04 160.84 C 119.20 160.74 118.43 161.34 118.33 162.19 Z M 118.22 163.15 L 118.10 164.07 C 117.99 164.92 118.59 165.69 119.43 165.79 C 120.28 165.90 121.05 165.30 121.16 164.46 L 121.27 163.54 C 121.38 162.69 120.78 161.92 119.94 161.82 C 119.10 161.71 118.32 162.30 118.22 163.15 Z M 118.10 164.05 L 117.97 165.02 C 117.85 165.86 118.44 166.64 119.28 166.76 C 120.12 166.87 120.90 166.29 121.02 165.44 L 121.15 164.48 C 121.27 163.64 120.68 162.86 119.84 162.74 C 119.00 162.62 118.22 163.21 118.10 164.05 Z M 117.97 165.00 L 117.81 166.06 C 117.69 166.90 118.27 167.69 119.11 167.81 C 119.96 167.94 120.74 167.35 120.87 166.51 L 121.02 165.45 C 121.14 164.61 120.56 163.83 119.72 163.70 C 118.87 163.58 118.09 164.16 117.97 165.00 Z M 117.81 166.06 L 117.66 167.04 C 117.54 167.88 118.12 168.67 118.96 168.80 C 119.81 168.92 120.59 168.34 120.72 167.50 L 120.87 166.51 C 120.99 165.67 120.41 164.88 119.57 164.76 C 118.72 164.63 117.94 165.21 117.81 166.06 Z M 117.66 167.03 L 117.50 168.05 C 117.37 168.89 117.95 169.68 118.79 169.82 C 119.64 169.95 120.43 169.37 120.56 168.52 L 120.72 167.50 C 120.85 166.66 120.27 165.87 119.43 165.74 C 118.58 165.61 117.79 166.19 117.66 167.03 Z M 117.50 168.04 L 117.34 169.02 C 117.20 169.86 117.78 170.66 118.62 170.80 C 119.46 170.94 120.26 170.36 120.40 169.52 L 120.56 168.54 C 120.70 167.69 120.13 166.90 119.28 166.76 C 118.44 166.62 117.64 167.19 117.50 168.04 Z M 117.34 169.00 L 117.17 169.97 C 117.02 170.82 117.59 171.62 118.43 171.77 C 119.27 171.92 120.08 171.36 120.23 170.51 L 120.40 169.54 C 120.55 168.69 119.98 167.89 119.14 167.74 C 118.30 167.59 117.49 168.16 117.34 169.00 Z M 117.17 169.98 L 117.00 170.93 C 116.86 171.78 117.42 172.58 118.27 172.73 C 119.11 172.87 119.91 172.31 120.06 171.46 L 120.23 170.51 C 120.38 169.67 119.81 168.86 118.97 168.71 C 118.12 168.57 117.32 169.13 117.17 169.98 Z M 117.00 170.96 L 116.84 171.96 C 116.71 172.81 117.29 173.60 118.13 173.74 C 118.98 173.87 119.78 173.29 119.91 172.44 L 120.07 171.44 C 120.20 170.59 119.62 169.80 118.77 169.66 C 117.93 169.53 117.13 170.11 117.00 170.96 Z M 116.84 171.99 L 116.70 172.97 C 116.58 173.82 117.18 174.60 118.02 174.72 C 118.87 174.84 119.66 174.25 119.78 173.40 L 119.91 172.42 C 120.03 171.57 119.44 170.78 118.59 170.66 C 117.74 170.55 116.96 171.14 116.84 171.99 Z M 116.70 172.98 L 116.56 174.00 C 116.45 174.85 117.05 175.63 117.90 175.75 C 118.75 175.86 119.53 175.26 119.65 174.41 L 119.78 173.38 C 119.89 172.53 119.29 171.75 118.44 171.64 C 117.59 171.53 116.81 172.13 116.70 172.98 Z M 116.56 174.00 L 116.43 175.00 C 116.32 175.85 116.92 176.63 117.77 176.74 C 118.63 176.85 119.41 176.25 119.52 175.40 L 119.65 174.41 C 119.76 173.55 119.16 172.77 118.31 172.66 C 117.45 172.55 116.67 173.15 116.56 174.00 Z M 116.43 174.99 L 116.29 176.04 C 116.18 176.89 116.77 177.67 117.63 177.79 C 118.48 177.90 119.26 177.31 119.37 176.46 L 119.52 175.41 C 119.63 174.56 119.03 173.77 118.18 173.66 C 117.33 173.54 116.55 174.14 116.43 174.99 Z M 116.29 176.04 L 116.16 177.01 C 116.04 177.87 116.64 178.65 117.49 178.77 C 118.34 178.89 119.12 178.29 119.24 177.44 L 119.38 176.46 C 119.49 175.61 118.90 174.82 118.05 174.71 C 117.19 174.59 116.41 175.18 116.29 176.04 Z M 116.15 177.02 L 116.03 177.97 C 115.92 178.82 116.52 179.60 117.37 179.71 C 118.23 179.83 119.01 179.23 119.12 178.37 L 119.24 177.43 C 119.35 176.58 118.75 175.79 117.90 175.68 C 117.05 175.57 116.27 176.17 116.15 177.02 Z M 116.03 177.99 L 115.90 179.03 C 115.80 179.89 116.41 180.66 117.27 180.76 C 118.12 180.87 118.90 180.25 119.00 179.40 L 119.12 178.35 C 119.22 177.50 118.61 176.72 117.76 176.62 C 116.90 176.52 116.13 177.13 116.03 177.99 Z M 115.90 179.05 L 115.79 180.05 C 115.70 180.91 116.32 181.68 117.18 181.77 C 118.03 181.86 118.80 181.24 118.89 180.39 L 119.00 179.38 C 119.09 178.53 118.48 177.76 117.62 177.67 C 116.76 177.57 115.99 178.19 115.90 179.05 Z M 115.79 180.06 L 115.69 181.00 C 115.60 181.86 116.22 182.63 117.08 182.72 C 117.94 182.81 118.71 182.18 118.80 181.33 L 118.89 180.38 C 118.98 179.52 118.36 178.76 117.51 178.67 C 116.65 178.58 115.88 179.20 115.79 180.06 Z M 115.69 181.01 L 115.60 181.96 C 115.51 182.82 116.14 183.58 116.99 183.67 C 117.85 183.75 118.62 183.13 118.70 182.27 L 118.80 181.32 C 118.88 180.46 118.26 179.70 117.40 179.61 C 116.54 179.53 115.78 180.15 115.69 181.01 Z M 115.59 181.98 L 115.51 182.95 C 115.44 183.81 116.07 184.56 116.93 184.64 C 117.79 184.71 118.55 184.08 118.62 183.22 L 118.70 182.25 C 118.78 181.39 118.14 180.63 117.28 180.56 C 116.42 180.48 115.67 181.12 115.59 181.98 Z M 115.51 182.97 L 115.44 183.89 C 115.38 184.76 116.02 185.50 116.89 185.57 C 117.75 185.63 118.49 184.98 118.56 184.12 L 118.62 183.20 C 118.69 182.33 118.04 181.59 117.18 181.52 C 116.32 181.46 115.57 182.11 115.51 182.97 Z M 115.44 183.92 L 115.38 184.97 C 115.33 185.84 115.99 186.57 116.85 186.62 C 117.71 186.67 118.45 186.01 118.50 185.15 L 118.56 184.10 C 118.61 183.23 117.95 182.49 117.09 182.45 C 116.22 182.40 115.49 183.06 115.44 183.92 Z M 115.38 185.01 L 115.34 186.08 C 115.31 186.95 115.98 187.67 116.84 187.70 C 117.71 187.73 118.43 187.06 118.46 186.20 L 118.50 185.12 C 118.53 184.25 117.86 183.53 116.99 183.50 C 116.13 183.47 115.41 184.14 115.38 185.01 Z M 115.34 186.11 L 115.32 187.14 C 115.30 188.00 115.99 188.72 116.86 188.73 C 117.72 188.74 118.43 188.05 118.45 187.19 L 118.47 186.17 C 118.48 185.30 117.79 184.59 116.93 184.58 C 116.06 184.56 115.35 185.25 115.34 186.11 Z M 115.32 187.16 L 115.32 188.17 C 115.31 189.04 116.01 189.74 116.88 189.74 C 117.74 189.74 118.44 189.05 118.45 188.18 L 118.45 187.17 C 118.45 186.30 117.75 185.60 116.89 185.60 C 116.02 185.60 115.32 186.30 115.32 187.16 Z M 115.32 188.19 L 115.32 189.16 C 115.33 190.02 116.04 190.72 116.90 190.71 C 117.77 190.70 118.46 190.00 118.45 189.13 L 118.45 188.16 C 118.44 187.30 117.73 186.60 116.87 186.61 C 116.00 186.62 115.31 187.32 115.32 188.19 Z M 115.32 189.17 L 115.34 190.26 C 115.36 191.12 116.08 191.81 116.94 191.79 C 117.81 191.78 118.49 191.06 118.48 190.20 L 118.45 189.11 C 118.44 188.25 117.72 187.56 116.86 187.58 C 115.99 187.60 115.31 188.31 115.32 189.17 Z M 115.34 190.29 L 115.39 191.26 C 115.42 192.13 116.15 192.80 117.02 192.76 C 117.88 192.72 118.55 191.99 118.52 191.13 L 118.47 190.16 C 118.44 189.30 117.71 188.62 116.84 188.66 C 115.98 188.70 115.31 189.43 115.34 190.29 Z M 115.39 191.32 L 115.46 192.23 C 115.53 193.09 116.28 193.74 117.14 193.67 C 118.01 193.60 118.65 192.85 118.58 191.99 L 118.51 191.07 C 118.45 190.21 117.69 189.56 116.83 189.63 C 115.97 189.70 115.32 190.45 115.39 191.32 Z M 115.47 192.30 L 115.58 193.24 C 115.69 194.10 116.47 194.71 117.33 194.61 C 118.19 194.50 118.80 193.72 118.69 192.86 L 118.58 191.92 C 118.47 191.06 117.69 190.45 116.83 190.55 C 115.97 190.66 115.36 191.44 115.47 192.30 Z M 115.59 193.30 L 115.76 194.34 C 115.89 195.20 116.70 195.78 117.55 195.65 C 118.41 195.51 118.99 194.71 118.85 193.85 L 118.69 192.80 C 118.55 191.95 117.75 191.36 116.89 191.50 C 116.04 191.64 115.45 192.44 115.59 193.30 Z M 115.76 194.37 L 115.92 195.26 C 116.07 196.11 116.88 196.68 117.73 196.53 C 118.59 196.38 119.16 195.57 119.01 194.72 L 118.85 193.82 C 118.70 192.97 117.89 192.40 117.03 192.55 C 116.18 192.70 115.61 193.52 115.76 194.37 Z M 115.92 195.27 L 116.10 196.23 C 116.25 197.09 117.07 197.65 117.92 197.49 C 118.78 197.34 119.34 196.52 119.18 195.66 L 119.00 194.70 C 118.85 193.85 118.03 193.29 117.18 193.44 C 116.32 193.60 115.76 194.42 115.92 195.27 Z M 116.10 196.24 L 116.30 197.29 C 116.46 198.14 117.28 198.70 118.13 198.53 C 118.98 198.37 119.54 197.55 119.38 196.70 L 119.18 195.66 C 119.02 194.80 118.20 194.24 117.34 194.41 C 116.49 194.57 115.93 195.39 116.10 196.24 Z M 116.30 197.29 L 116.50 198.35 C 116.67 199.20 117.49 199.76 118.34 199.59 C 119.20 199.42 119.75 198.60 119.58 197.75 L 119.38 196.69 C 119.21 195.84 118.39 195.28 117.54 195.45 C 116.69 195.62 116.13 196.44 116.30 197.29 Z M 116.50 198.35 L 116.70 199.36 C 116.87 200.21 117.70 200.76 118.55 200.60 C 119.40 200.43 119.95 199.60 119.78 198.75 L 119.58 197.74 C 119.41 196.89 118.59 196.34 117.74 196.51 C 116.89 196.68 116.33 197.50 116.50 198.35 Z M 116.70 199.36 L 116.90 200.37 C 117.08 201.22 117.90 201.77 118.76 201.60 C 119.61 201.43 120.16 200.60 119.99 199.75 L 119.78 198.74 C 119.61 197.89 118.78 197.34 117.93 197.51 C 117.08 197.69 116.53 198.51 116.70 199.36 Z M 116.90 200.37 L 117.10 201.34 C 117.28 202.19 118.11 202.74 118.96 202.56 C 119.81 202.39 120.36 201.56 120.18 200.71 L 119.99 199.74 C 119.81 198.89 118.98 198.34 118.13 198.52 C 117.28 198.69 116.73 199.52 116.90 200.37 Z M 117.10 201.34 L 117.31 202.36 C 117.49 203.21 118.32 203.76 119.17 203.58 C 120.02 203.41 120.57 202.58 120.39 201.73 L 120.18 200.71 C 120.01 199.86 119.18 199.31 118.32 199.48 C 117.47 199.66 116.93 200.49 117.10 201.34 Z M 117.31 202.37 L 117.54 203.44 C 117.72 204.29 118.55 204.83 119.40 204.65 C 120.25 204.47 120.80 203.64 120.62 202.79 L 120.39 201.72 C 120.21 200.87 119.38 200.33 118.53 200.50 C 117.68 200.68 117.13 201.52 117.31 202.37 Z M 117.54 203.45 L 117.74 204.36 C 117.92 205.21 118.76 205.74 119.61 205.56 C 120.46 205.38 121.00 204.54 120.81 203.69 L 120.62 202.78 C 120.43 201.93 119.59 201.39 118.74 201.58 C 117.89 201.76 117.36 202.60 117.54 203.45 Z M 117.74 204.38 L 117.96 205.32 C 118.15 206.16 119.00 206.69 119.85 206.50 C 120.69 206.30 121.22 205.46 121.02 204.61 L 120.81 203.67 C 120.61 202.82 119.77 202.29 118.92 202.49 C 118.07 202.68 117.55 203.53 117.74 204.38 Z M 117.96 205.34 L 118.19 206.27 C 118.40 207.12 119.26 207.63 120.10 207.42 C 120.94 207.22 121.46 206.36 121.25 205.52 L 121.02 204.59 C 120.81 203.74 119.96 203.23 119.11 203.43 C 118.27 203.64 117.76 204.50 117.96 205.34 Z M 118.19 206.27 L 118.40 207.14 C 118.61 207.99 119.46 208.51 120.30 208.30 C 121.15 208.10 121.67 207.24 121.46 206.40 L 121.25 205.52 C 121.05 204.68 120.20 204.16 119.35 204.36 C 118.51 204.57 117.99 205.42 118.19 206.27 Z M 118.40 207.15 L 118.65 208.15 C 118.86 209.00 119.71 209.51 120.56 209.31 C 121.41 209.10 121.92 208.24 121.71 207.40 L 121.47 206.39 C 121.26 205.55 120.40 205.03 119.56 205.24 C 118.71 205.45 118.19 206.30 118.40 207.15 Z M 118.66 208.18 L 118.91 209.12 C 119.13 209.97 120.00 210.47 120.84 210.24 C 121.69 210.01 122.19 209.15 121.96 208.31 L 121.71 207.36 C 121.48 206.52 120.61 206.02 119.77 206.25 C 118.93 206.47 118.43 207.34 118.66 208.18 Z M 118.91 209.15 L 119.19 210.13 C 119.43 210.96 120.31 211.45 121.15 211.21 C 121.99 210.97 122.47 210.10 122.23 209.26 L 121.95 208.28 C 121.71 207.44 120.84 206.96 120.00 207.20 C 119.16 207.44 118.67 208.31 118.91 209.15 Z M 119.20 210.15 L 119.50 211.15 C 119.75 211.99 120.63 212.46 121.47 212.21 C 122.30 211.96 122.78 211.08 122.53 210.24 L 122.23 209.24 C 121.98 208.40 121.09 207.93 120.26 208.18 C 119.42 208.43 118.95 209.31 119.20 210.15 Z M 119.51 211.17 L 119.81 212.13 C 120.07 212.96 120.96 213.42 121.79 213.16 C 122.63 212.90 123.09 212.01 122.82 211.18 L 122.52 210.22 C 122.26 209.38 121.37 208.92 120.54 209.19 C 119.70 209.45 119.24 210.34 119.51 211.17 Z M 119.82 212.16 L 120.14 213.11 C 120.43 213.93 121.32 214.37 122.15 214.09 C 122.98 213.81 123.42 212.91 123.14 212.09 L 122.81 211.14 C 122.53 210.31 121.63 209.87 120.81 210.16 C 119.98 210.44 119.54 211.34 119.82 212.16 Z M 120.16 213.15 L 120.52 214.10 C 120.82 214.92 121.74 215.33 122.55 215.02 C 123.37 214.71 123.78 213.80 123.48 212.98 L 123.12 212.04 C 122.81 211.22 121.90 210.81 121.08 211.12 C 120.26 211.42 119.85 212.34 120.16 213.15 Z M 120.54 214.15 L 120.93 215.09 C 121.27 215.90 122.20 216.28 123.00 215.94 C 123.81 215.60 124.19 214.67 123.85 213.87 L 123.45 212.93 C 123.12 212.12 122.19 211.74 121.38 212.08 C 120.58 212.42 120.20 213.35 120.54 214.15 Z M 120.96 215.15 L 121.37 216.04 C 121.74 216.83 122.68 217.17 123.48 216.80 C 124.27 216.43 124.61 215.49 124.24 214.69 L 123.82 213.81 C 123.45 213.02 122.51 212.68 121.72 213.05 C 120.93 213.42 120.59 214.36 120.96 215.15 Z M 121.41 216.11 L 121.88 217.01 C 122.29 217.78 123.25 218.07 124.02 217.66 C 124.80 217.25 125.09 216.30 124.68 215.52 L 124.20 214.62 C 123.79 213.85 122.84 213.56 122.06 213.97 C 121.29 214.38 121.00 215.33 121.41 216.11 Z M 121.93 217.09 L 122.44 217.93 C 122.89 218.68 123.87 218.92 124.62 218.46 C 125.36 218.01 125.60 217.04 125.15 216.29 L 124.63 215.44 C 124.18 214.70 123.21 214.46 122.46 214.91 C 121.71 215.37 121.48 216.34 121.93 217.09 Z M 122.49 218.01 L 123.04 218.80 C 123.54 219.52 124.52 219.71 125.24 219.21 C 125.96 218.71 126.14 217.73 125.65 217.01 L 125.10 216.21 C 124.60 215.49 123.62 215.31 122.90 215.81 C 122.18 216.30 121.99 217.29 122.49 218.01 Z M 123.08 218.86 L 123.67 219.65 C 124.20 220.35 125.19 220.49 125.89 219.96 C 126.59 219.44 126.73 218.44 126.20 217.74 L 125.61 216.96 C 125.08 216.26 124.09 216.12 123.39 216.64 C 122.69 217.17 122.55 218.16 123.08 218.86 Z M 123.68 219.66 L 124.29 220.46 C 124.83 221.15 125.82 221.28 126.51 220.75 C 127.21 220.21 127.34 219.22 126.80 218.53 L 126.19 217.73 C 125.66 217.04 124.66 216.91 123.97 217.44 C 123.28 217.97 123.15 218.97 123.68 219.66 Z M 124.29 220.45 L 124.84 221.17 C 125.37 221.87 126.36 222.00 127.06 221.47 C 127.75 220.94 127.89 219.95 127.36 219.26 L 126.81 218.53 C 126.28 217.84 125.28 217.70 124.59 218.23 C 123.89 218.76 123.76 219.76 124.29 220.45 Z M 124.84 221.18 L 125.46 221.99 C 126.00 222.68 126.99 222.81 127.69 222.27 C 128.38 221.74 128.51 220.75 127.97 220.05 L 127.35 219.25 C 126.82 218.56 125.83 218.43 125.13 218.96 C 124.44 219.49 124.31 220.49 124.84 221.18 Z M 125.48 222.00 L 126.15 222.85 C 126.69 223.53 127.69 223.65 128.37 223.11 C 129.06 222.57 129.17 221.57 128.63 220.88 L 127.96 220.04 C 127.42 219.35 126.42 219.24 125.74 219.78 C 125.05 220.32 124.94 221.32 125.48 222.00 Z M 126.16 222.86 L 126.78 223.63 C 127.33 224.31 128.33 224.41 129.01 223.86 C 129.69 223.31 129.79 222.31 129.24 221.63 L 128.62 220.87 C 128.07 220.19 127.07 220.09 126.39 220.64 C 125.71 221.19 125.61 222.19 126.16 222.86 Z M 126.79 223.64 L 127.45 224.43 C 128.01 225.11 129.00 225.20 129.68 224.64 C 130.35 224.08 130.44 223.09 129.89 222.41 L 129.23 221.62 C 128.67 220.95 127.67 220.85 127.00 221.41 C 126.33 221.97 126.23 222.97 126.79 223.64 Z M 127.46 224.44 L 128.11 225.22 C 128.68 225.89 129.68 225.97 130.34 225.41 C 131.01 224.85 131.10 223.85 130.53 223.18 L 129.88 222.40 C 129.31 221.73 128.31 221.65 127.64 222.21 C 126.98 222.78 126.89 223.78 127.46 224.44 Z M 128.12 225.23 L 128.83 226.05 C 129.40 226.72 130.40 226.79 131.06 226.22 C 131.73 225.65 131.80 224.65 131.23 223.98 L 130.52 223.16 C 129.95 222.50 128.95 222.43 128.29 223.00 C 127.63 223.57 127.55 224.57 128.12 225.23 Z M 128.84 226.07 L 129.55 226.86 C 130.13 227.52 131.13 227.58 131.78 227.00 C 132.44 226.42 132.50 225.42 131.92 224.76 L 131.21 223.97 C 130.63 223.31 129.63 223.25 128.98 223.83 C 128.32 224.41 128.26 225.41 128.84 226.07 Z M 129.56 226.88 L 130.19 227.56 C 130.78 228.21 131.78 228.26 132.42 227.67 C 133.07 227.08 133.12 226.08 132.53 225.43 L 131.90 224.75 C 131.31 224.10 130.31 224.05 129.67 224.64 C 129.02 225.23 128.97 226.23 129.56 226.88 Z M 130.20 227.58 L 130.85 228.26 C 131.45 228.90 132.45 228.93 133.09 228.33 C 133.72 227.73 133.75 226.73 133.15 226.09 L 132.51 225.41 C 131.91 224.77 130.91 224.74 130.27 225.34 C 129.63 225.94 129.60 226.95 130.20 227.58 Z M 130.88 228.30 L 131.56 228.98 C 132.18 229.59 133.18 229.60 133.80 228.98 C 134.42 228.36 134.42 227.36 133.80 226.74 L 133.12 226.06 C 132.50 225.44 131.50 225.44 130.88 226.06 C 130.26 226.68 130.26 227.68 130.88 228.30 Z M 131.59 229.01 L 132.32 229.70 C 132.96 230.30 133.96 230.27 134.56 229.63 C 135.16 228.99 135.13 227.99 134.49 227.39 L 133.76 226.70 C 133.13 226.10 132.12 226.13 131.52 226.77 C 130.93 227.41 130.96 228.41 131.59 229.01 Z M 132.34 229.72 L 133.10 230.40 C 133.75 230.99 134.75 230.95 135.34 230.30 C 135.92 229.65 135.88 228.65 135.23 228.06 L 134.47 227.37 C 133.83 226.79 132.82 226.83 132.24 227.48 C 131.65 228.13 131.70 229.13 132.34 229.72 Z M 133.12 230.42 L 133.88 231.09 C 134.53 231.67 135.53 231.61 136.11 230.95 C 136.69 230.30 136.63 229.30 135.97 228.72 L 135.21 228.05 C 134.56 227.47 133.56 227.53 132.98 228.19 C 132.40 228.84 132.46 229.84 133.12 230.42 Z M 133.90 231.11 L 134.72 231.80 C 135.39 232.37 136.39 232.28 136.95 231.61 C 137.51 230.94 137.43 229.94 136.76 229.38 L 135.95 228.69 C 135.28 228.13 134.28 228.21 133.71 228.88 C 133.15 229.55 133.24 230.55 133.90 231.11 Z M 134.76 231.83 L 135.50 232.42 C 136.18 232.96 137.18 232.84 137.72 232.16 C 138.27 231.47 138.15 230.48 137.46 229.93 L 136.72 229.35 C 136.04 228.81 135.04 228.92 134.50 229.61 C 133.96 230.29 134.07 231.29 134.76 231.83 Z M 135.53 232.44 L 136.30 233.03 C 137.00 233.55 138.00 233.41 138.52 232.71 C 139.05 232.02 138.91 231.02 138.21 230.50 L 137.43 229.91 C 136.74 229.39 135.74 229.53 135.22 230.22 C 134.69 230.92 134.83 231.91 135.53 232.44 Z M 136.33 233.04 L 137.14 233.63 C 137.85 234.15 138.84 233.99 139.35 233.28 C 139.86 232.57 139.71 231.58 139.00 231.07 L 138.19 230.48 C 137.48 229.97 136.49 230.12 135.98 230.83 C 135.46 231.54 135.62 232.53 136.33 233.04 Z M 137.17 233.65 L 137.98 234.21 C 138.70 234.71 139.68 234.53 140.18 233.81 C 140.68 233.09 140.50 232.11 139.78 231.61 L 138.97 231.05 C 138.25 230.55 137.26 230.73 136.77 231.45 C 136.27 232.17 136.45 233.16 137.17 233.65 Z M 138.03 234.25 L 138.88 234.79 C 139.62 235.26 140.60 235.05 141.07 234.31 C 141.54 233.57 141.32 232.59 140.59 232.12 L 139.73 231.58 C 138.99 231.11 138.01 231.32 137.54 232.06 C 137.07 232.80 137.29 233.78 138.03 234.25 Z M 138.94 234.83 L 139.82 235.34 C 140.58 235.78 141.54 235.52 141.98 234.76 C 142.42 234.01 142.17 233.04 141.41 232.60 L 140.53 232.09 C 139.77 231.65 138.80 231.90 138.36 232.66 C 137.93 233.42 138.18 234.39 138.94 234.83 Z M 139.87 235.37 L 140.73 235.82 C 141.50 236.23 142.46 235.94 142.87 235.17 C 143.28 234.39 142.99 233.44 142.21 233.02 L 141.36 232.57 C 140.59 232.16 139.63 232.45 139.22 233.22 C 138.81 234.00 139.10 234.95 139.87 235.37 Z M 140.80 235.86 L 141.66 236.26 C 142.45 236.63 143.39 236.29 143.76 235.50 C 144.13 234.70 143.79 233.76 143.00 233.39 L 142.14 232.99 C 141.35 232.62 140.41 232.96 140.04 233.75 C 139.67 234.54 140.01 235.49 140.80 235.86 Z M 141.74 236.29 L 142.68 236.67 C 143.49 237.00 144.41 236.60 144.74 235.79 C 145.06 234.98 144.67 234.06 143.86 233.73 L 142.92 233.36 C 142.11 233.03 141.19 233.42 140.86 234.23 C 140.53 235.05 140.93 235.97 141.74 236.29 Z M 142.73 236.69 L 143.64 237.02 C 144.46 237.32 145.37 236.89 145.67 236.07 C 145.96 235.25 145.54 234.34 144.72 234.04 L 143.81 233.71 C 142.98 233.42 142.08 233.84 141.78 234.66 C 141.48 235.49 141.91 236.39 142.73 236.69 Z M 143.69 237.04 L 144.69 237.36 C 145.53 237.63 146.42 237.18 146.69 236.35 C 146.96 235.51 146.50 234.62 145.67 234.35 L 144.66 234.02 C 143.83 233.75 142.94 234.21 142.67 235.04 C 142.40 235.87 142.86 236.77 143.69 237.04 Z M 144.76 237.38 L 145.79 237.67 C 146.63 237.91 147.51 237.41 147.74 236.57 C 147.98 235.73 147.48 234.85 146.64 234.62 L 145.61 234.33 C 144.77 234.10 143.89 234.59 143.66 235.43 C 143.42 236.28 143.92 237.15 144.76 237.38 Z M 145.85 237.69 L 146.85 237.93 C 147.70 238.13 148.55 237.61 148.76 236.76 C 148.96 235.91 148.44 235.05 147.59 234.85 L 146.59 234.61 C 145.74 234.40 144.88 234.92 144.68 235.77 C 144.47 236.62 145.00 237.48 145.85 237.69 Z M 146.87 237.93 L 147.78 238.13 C 148.64 238.32 149.48 237.79 149.67 236.93 C 149.86 236.08 149.32 235.23 148.47 235.04 L 147.56 234.84 C 146.71 234.65 145.86 235.19 145.67 236.04 C 145.48 236.90 146.02 237.74 146.87 237.93 Z M 147.79 238.14 L 148.77 238.35 C 149.62 238.53 150.46 237.98 150.65 237.13 C 150.83 236.27 150.29 235.43 149.43 235.25 L 148.46 235.04 C 147.60 234.86 146.76 235.40 146.58 236.26 C 146.39 237.11 146.94 237.95 147.79 238.14 Z M 148.83 238.36 L 149.80 238.53 C 150.66 238.68 151.48 238.10 151.63 237.24 C 151.78 236.37 151.20 235.55 150.34 235.40 L 149.37 235.24 C 148.51 235.09 147.69 235.66 147.54 236.53 C 147.39 237.39 147.97 238.21 148.83 238.36 Z M 149.88 238.54 L 150.87 238.66 C 151.74 238.76 152.53 238.14 152.63 237.27 C 152.74 236.40 152.11 235.61 151.25 235.51 L 150.25 235.39 C 149.38 235.29 148.60 235.91 148.49 236.78 C 148.39 237.65 149.01 238.44 149.88 238.54 Z M 150.92 238.66 L 151.95 238.75 C 152.82 238.83 153.59 238.18 153.67 237.31 C 153.75 236.44 153.10 235.67 152.23 235.59 L 151.20 235.50 C 150.33 235.43 149.56 236.07 149.48 236.94 C 149.41 237.82 150.05 238.58 150.92 238.66 Z M 151.98 238.75 L 153.00 238.82 C 153.87 238.89 154.63 238.23 154.69 237.36 C 154.75 236.48 154.10 235.73 153.22 235.66 L 152.20 235.59 C 151.33 235.53 150.57 236.19 150.51 237.06 C 150.45 237.93 151.11 238.69 151.98 238.75 Z M 153.03 238.83 L 154.05 238.88 C 154.92 238.93 155.67 238.26 155.72 237.39 C 155.77 236.51 155.10 235.77 154.22 235.72 L 153.20 235.66 C 152.33 235.62 151.58 236.28 151.53 237.16 C 151.48 238.03 152.15 238.78 153.03 238.83 Z M 154.09 238.88 L 155.01 238.91 C 155.89 238.94 156.62 238.25 156.64 237.38 C 156.67 236.50 155.98 235.77 155.11 235.75 L 154.18 235.72 C 153.31 235.69 152.58 236.38 152.55 237.25 C 152.53 238.13 153.21 238.86 154.09 238.88 Z M 155.05 238.91 L 156.04 238.92 C 156.92 238.93 157.63 238.22 157.64 237.35 C 157.65 236.47 156.94 235.76 156.07 235.75 L 155.07 235.74 C 154.20 235.74 153.48 236.44 153.48 237.32 C 153.47 238.19 154.17 238.91 155.05 238.91 Z M 156.06 238.92 L 157.04 238.92 C 157.91 238.92 158.62 238.21 158.62 237.33 C 158.62 236.46 157.91 235.75 157.03 235.75 L 156.05 235.75 C 155.18 235.75 154.47 236.46 154.47 237.34 C 154.47 238.21 155.18 238.92 156.06 238.92 Z M 157.07 238.92 L 158.07 238.90 C 158.95 238.88 159.64 238.16 159.63 237.28 C 159.61 236.41 158.89 235.71 158.01 235.73 L 157.00 235.75 C 156.13 235.77 155.43 236.49 155.45 237.37 C 155.47 238.24 156.19 238.94 157.07 238.92 Z M 158.14 238.90 L 159.15 238.83 C 160.02 238.78 160.68 238.03 160.63 237.16 C 160.58 236.28 159.83 235.62 158.95 235.67 L 157.95 235.73 C 157.07 235.79 156.41 236.54 156.46 237.41 C 156.51 238.28 157.27 238.95 158.14 238.90 Z M 159.22 238.83 L 160.23 238.72 C 161.10 238.62 161.72 237.84 161.63 236.97 C 161.53 236.10 160.75 235.47 159.88 235.57 L 158.87 235.68 C 158.00 235.78 157.38 236.56 157.48 237.43 C 157.57 238.30 158.36 238.92 159.22 238.83 Z M 160.32 238.70 L 161.32 238.53 C 162.18 238.38 162.76 237.56 162.61 236.70 C 162.46 235.84 161.64 235.26 160.78 235.41 L 159.78 235.58 C 158.92 235.73 158.34 236.55 158.49 237.41 C 158.64 238.27 159.46 238.85 160.32 238.70 Z M 161.42 238.51 L 162.39 238.27 C 163.24 238.07 163.77 237.21 163.56 236.36 C 163.35 235.51 162.50 234.99 161.65 235.19 L 160.68 235.43 C 159.83 235.64 159.30 236.49 159.51 237.34 C 159.72 238.19 160.57 238.71 161.42 238.51 Z M 162.48 238.25 L 163.43 237.96 C 164.26 237.71 164.74 236.83 164.48 235.99 C 164.23 235.15 163.35 234.68 162.51 234.93 L 161.56 235.22 C 160.73 235.47 160.25 236.35 160.50 237.19 C 160.76 238.03 161.64 238.50 162.48 238.25 Z M 163.49 237.94 L 164.42 237.62 C 165.25 237.33 165.68 236.43 165.40 235.61 C 165.11 234.78 164.21 234.34 163.38 234.63 L 162.45 234.95 C 161.62 235.24 161.18 236.14 161.47 236.97 C 161.76 237.79 162.66 238.23 163.49 237.94 Z M 164.46 237.60 L 165.42 237.24 C 166.23 236.93 166.64 236.02 166.33 235.20 C 166.02 234.38 165.11 233.97 164.29 234.28 L 163.34 234.64 C 162.52 234.96 162.11 235.87 162.42 236.69 C 162.73 237.51 163.65 237.92 164.46 237.60 Z M 165.45 237.23 L 166.36 236.86 C 167.17 236.53 167.56 235.61 167.24 234.80 C 166.91 233.98 165.98 233.59 165.17 233.92 L 164.26 234.30 C 163.45 234.62 163.06 235.55 163.38 236.36 C 163.71 237.17 164.64 237.56 165.45 237.23 Z M 166.41 236.84 L 167.33 236.44 C 168.13 236.08 168.49 235.15 168.14 234.35 C 167.79 233.55 166.85 233.18 166.05 233.54 L 165.13 233.94 C 164.33 234.29 163.97 235.23 164.32 236.03 C 164.67 236.83 165.60 237.19 166.41 236.84 Z M 167.38 236.41 L 168.28 235.98 C 169.06 235.59 169.39 234.65 169.01 233.86 C 168.62 233.07 167.68 232.74 166.89 233.13 L 166.00 233.56 C 165.21 233.94 164.88 234.89 165.27 235.68 C 165.65 236.47 166.60 236.79 167.38 236.41 Z M 168.33 235.95 L 169.21 235.48 C 169.98 235.06 170.27 234.10 169.85 233.33 C 169.44 232.56 168.48 232.27 167.71 232.69 L 166.83 233.16 C 166.06 233.57 165.77 234.53 166.19 235.30 C 166.60 236.07 167.56 236.36 168.33 235.95 Z M 169.25 235.45 L 170.13 234.94 C 170.89 234.50 171.14 233.53 170.71 232.78 C 170.27 232.02 169.30 231.76 168.54 232.20 L 167.66 232.71 C 166.90 233.15 166.65 234.12 167.09 234.88 C 167.53 235.63 168.49 235.89 169.25 235.45 Z M 170.17 234.92 L 171.02 234.39 C 171.77 233.94 172.00 232.96 171.54 232.22 C 171.08 231.47 170.11 231.24 169.36 231.70 L 168.51 232.22 C 167.76 232.68 167.53 233.66 167.99 234.40 C 168.44 235.15 169.42 235.38 170.17 234.92 Z M 171.05 234.37 L 171.90 233.83 C 172.63 233.35 172.84 232.37 172.36 231.63 C 171.89 230.90 170.91 230.69 170.17 231.17 L 169.33 231.72 C 168.60 232.19 168.39 233.17 168.86 233.91 C 169.34 234.64 170.32 234.85 171.05 234.37 Z M 171.94 233.80 L 172.77 233.22 C 173.49 232.73 173.66 231.74 173.17 231.02 C 172.67 230.30 171.68 230.12 170.96 230.62 L 170.13 231.20 C 169.41 231.69 169.23 232.68 169.73 233.40 C 170.23 234.12 171.22 234.30 171.94 233.80 Z M 172.82 233.19 L 173.61 232.59 C 174.31 232.06 174.45 231.07 173.93 230.37 C 173.40 229.67 172.41 229.53 171.71 230.06 L 170.91 230.66 C 170.21 231.18 170.07 232.18 170.60 232.87 C 171.12 233.57 172.12 233.71 172.82 233.19 Z M 173.67 232.54 L 174.43 231.92 C 175.10 231.36 175.20 230.36 174.64 229.69 C 174.08 229.01 173.08 228.92 172.41 229.48 L 171.65 230.10 C 170.98 230.66 170.88 231.66 171.44 232.33 C 172.00 233.01 173.00 233.10 173.67 232.54 Z M 174.48 231.87 L 175.22 231.20 C 175.87 230.61 175.92 229.61 175.33 228.96 C 174.74 228.32 173.74 228.27 173.09 228.86 L 172.35 229.52 C 171.71 230.11 171.66 231.11 172.25 231.76 C 172.83 232.41 173.83 232.46 174.48 231.87 Z M 175.26 231.17 L 175.98 230.47 C 176.61 229.86 176.62 228.86 176.02 228.23 C 175.41 227.60 174.41 227.58 173.78 228.19 L 173.05 228.89 C 172.42 229.50 172.41 230.50 173.02 231.13 C 173.62 231.76 174.63 231.78 175.26 231.17 Z M 176.00 230.45 L 176.70 229.74 C 177.32 229.12 177.32 228.12 176.70 227.50 C 176.08 226.88 175.08 226.88 174.46 227.50 L 173.75 228.21 C 173.14 228.83 173.14 229.83 173.76 230.45 C 174.38 231.07 175.38 231.07 176.00 230.45 Z M 176.72 229.72 L 177.41 229.00 C 178.02 228.37 178.00 227.37 177.37 226.76 C 176.74 226.15 175.74 226.17 175.13 226.80 L 174.44 227.52 C 173.83 228.15 173.85 229.16 174.48 229.76 C 175.11 230.37 176.12 230.35 176.72 229.72 Z M 177.44 228.98 L 178.12 228.24 C 178.71 227.60 178.68 226.60 178.03 226.01 C 177.39 225.41 176.39 225.45 175.79 226.09 L 175.11 226.83 C 174.52 227.47 174.55 228.47 175.20 229.06 C 175.84 229.66 176.84 229.62 177.44 228.98 Z M 178.14 228.22 L 178.80 227.47 C 179.38 226.82 179.33 225.82 178.67 225.24 C 178.02 224.66 177.02 224.71 176.44 225.37 L 175.77 226.11 C 175.19 226.77 175.25 227.77 175.90 228.35 C 176.56 228.93 177.56 228.87 178.14 228.22 Z M 178.83 227.45 L 179.48 226.68 C 180.04 226.02 179.96 225.02 179.30 224.45 C 178.63 223.88 177.63 223.96 177.06 224.63 L 176.41 225.40 C 175.85 226.06 175.93 227.06 176.59 227.63 C 177.26 228.20 178.26 228.11 178.83 227.45 Z M 179.50 226.65 L 180.12 225.89 C 180.67 225.21 180.57 224.21 179.89 223.66 C 179.21 223.11 178.21 223.21 177.66 223.89 L 177.04 224.66 C 176.49 225.34 176.59 226.34 177.27 226.89 C 177.95 227.44 178.95 227.33 179.50 226.65 Z M 180.14 225.86 L 180.75 225.08 C 181.29 224.39 181.17 223.40 180.48 222.86 C 179.79 222.32 178.79 222.44 178.25 223.13 L 177.64 223.92 C 177.10 224.61 177.23 225.60 177.92 226.14 C 178.61 226.68 179.60 226.55 180.14 225.86 Z M 180.76 225.07 L 181.38 224.26 C 181.91 223.57 181.78 222.57 181.09 222.04 C 180.39 221.51 179.40 221.64 178.87 222.33 L 178.24 223.14 C 177.71 223.84 177.84 224.83 178.54 225.36 C 179.23 225.90 180.22 225.77 180.76 225.07 Z M 181.38 224.26 L 182.00 223.46 C 182.53 222.76 182.40 221.77 181.70 221.24 C 181.01 220.70 180.01 220.84 179.48 221.53 L 178.87 222.33 C 178.33 223.03 178.46 224.02 179.16 224.55 C 179.85 225.09 180.85 224.96 181.38 224.26 Z M 182.00 223.46 L 182.61 222.66 C 183.14 221.96 183.01 220.97 182.31 220.44 C 181.62 219.90 180.62 220.04 180.09 220.73 L 179.48 221.53 C 178.95 222.23 179.08 223.22 179.78 223.75 C 180.47 224.29 181.47 224.15 182.00 223.46 Z M 182.61 222.65 L 183.22 221.85 C 183.75 221.15 183.62 220.16 182.92 219.63 C 182.22 219.10 181.23 219.23 180.70 219.93 L 180.09 220.74 C 179.56 221.43 179.69 222.43 180.39 222.96 C 181.09 223.49 182.08 223.35 182.61 222.65 Z M 183.23 221.84 L 183.84 221.03 C 184.36 220.33 184.22 219.33 183.52 218.81 C 182.81 218.28 181.82 218.43 181.30 219.13 L 180.69 219.94 C 180.17 220.64 180.31 221.64 181.01 222.16 C 181.71 222.69 182.71 222.54 183.23 221.84 Z M 183.85 221.01 L 184.42 220.23 C 184.93 219.52 184.77 218.53 184.06 218.02 C 183.35 217.50 182.36 217.66 181.84 218.37 L 181.28 219.15 C 180.77 219.86 180.92 220.85 181.64 221.37 C 182.35 221.88 183.34 221.72 183.85 221.01 Z M 184.43 220.21 L 185.01 219.38 C 185.52 218.66 185.34 217.67 184.62 217.17 C 183.90 216.67 182.91 216.84 182.41 217.56 L 181.83 218.39 C 181.32 219.11 181.50 220.10 182.22 220.61 C 182.94 221.11 183.93 220.93 184.43 220.21 Z M 185.02 219.37 L 185.58 218.56 C 186.08 217.84 185.90 216.85 185.18 216.35 C 184.45 215.85 183.46 216.03 182.96 216.75 L 182.40 217.57 C 181.90 218.29 182.08 219.28 182.81 219.78 C 183.53 220.28 184.52 220.10 185.02 219.37 Z M 185.57 218.57 L 186.15 217.75 C 186.66 217.03 186.49 216.03 185.77 215.53 C 185.05 215.02 184.06 215.20 183.55 215.92 L 182.97 216.74 C 182.47 217.46 182.64 218.45 183.36 218.96 C 184.08 219.46 185.07 219.29 185.57 218.57 Z M 186.15 217.75 L 186.73 216.93 C 187.23 216.21 187.06 215.22 186.34 214.72 C 185.62 214.21 184.63 214.38 184.12 215.10 L 183.55 215.92 C 183.05 216.63 183.22 217.63 183.94 218.13 C 184.66 218.64 185.65 218.46 186.15 217.75 Z M 186.74 216.91 L 187.30 216.08 C 187.79 215.35 187.60 214.36 186.87 213.87 C 186.14 213.38 185.15 213.57 184.66 214.30 L 184.10 215.13 C 183.61 215.86 183.81 216.85 184.54 217.34 C 185.27 217.83 186.25 217.63 186.74 216.91 Z M 187.33 216.04 L 187.86 215.20 C 188.33 214.46 188.11 213.48 187.37 213.00 C 186.63 212.53 185.65 212.75 185.18 213.49 L 184.64 214.33 C 184.17 215.07 184.39 216.06 185.13 216.53 C 185.87 217.00 186.85 216.78 187.33 216.04 Z M 187.88 215.17 L 188.39 214.33 C 188.84 213.58 188.61 212.60 187.85 212.14 C 187.10 211.69 186.12 211.93 185.67 212.68 L 185.16 213.52 C 184.70 214.27 184.94 215.25 185.69 215.71 C 186.44 216.16 187.42 215.92 187.88 215.17 Z M 188.40 214.31 L 188.91 213.44 C 189.35 212.68 189.09 211.71 188.33 211.27 C 187.57 210.82 186.60 211.08 186.16 211.84 L 185.65 212.71 C 185.21 213.47 185.47 214.44 186.23 214.88 C 186.99 215.32 187.96 215.06 188.40 214.31 Z M 188.92 213.42 L 189.41 212.53 C 189.84 211.77 189.57 210.80 188.80 210.37 C 188.03 209.94 187.06 210.21 186.63 210.98 L 186.14 211.86 C 185.71 212.63 185.99 213.60 186.75 214.03 C 187.52 214.46 188.49 214.18 188.92 213.42 Z M 189.43 212.50 L 189.90 211.61 C 190.31 210.83 190.01 209.86 189.24 209.45 C 188.46 209.04 187.49 209.34 187.08 210.12 L 186.61 211.02 C 186.20 211.80 186.50 212.76 187.28 213.17 C 188.06 213.58 189.02 213.28 189.43 212.50 Z M 189.94 211.54 L 190.36 210.63 C 190.74 209.84 190.40 208.89 189.60 208.51 C 188.80 208.14 187.85 208.48 187.48 209.28 L 187.05 210.19 C 186.67 210.98 187.02 211.93 187.82 212.31 C 188.61 212.68 189.56 212.34 189.94 211.54 Z M 190.41 210.54 L 190.77 209.62 C 191.09 208.80 190.69 207.87 189.87 207.55 C 189.05 207.23 188.12 207.63 187.80 208.45 L 187.44 209.37 C 187.11 210.19 187.51 211.12 188.33 211.44 C 189.15 211.76 190.08 211.36 190.41 210.54 Z M 190.80 209.53 L 191.11 208.59 C 191.38 207.76 190.92 206.86 190.08 206.58 C 189.24 206.31 188.34 206.77 188.07 207.61 L 187.77 208.54 C 187.49 209.38 187.95 210.28 188.79 210.55 C 189.63 210.82 190.53 210.37 190.80 209.53 Z M 191.13 208.53 L 191.40 207.57 C 191.63 206.72 191.14 205.84 190.29 205.60 C 189.44 205.36 188.56 205.86 188.32 206.71 L 188.05 207.67 C 187.81 208.52 188.31 209.40 189.16 209.64 C 190.01 209.88 190.89 209.38 191.13 208.53 Z M 191.40 207.54 L 191.66 206.57 C 191.88 205.72 191.37 204.84 190.52 204.62 C 189.66 204.40 188.79 204.91 188.57 205.76 L 188.31 206.74 C 188.09 207.59 188.60 208.46 189.45 208.68 C 190.31 208.91 191.18 208.40 191.40 207.54 Z M 191.66 206.55 L 191.90 205.58 C 192.11 204.73 191.59 203.86 190.74 203.65 C 189.88 203.44 189.01 203.96 188.80 204.82 L 188.56 205.78 C 188.35 206.64 188.87 207.50 189.73 207.72 C 190.58 207.93 191.45 207.41 191.66 206.55 Z M 191.91 205.54 L 192.13 204.56 C 192.32 203.70 191.77 202.84 190.91 202.65 C 190.05 202.47 189.20 203.01 189.01 203.87 L 188.79 204.86 C 188.60 205.72 189.15 206.57 190.01 206.76 C 190.87 206.95 191.72 206.41 191.91 205.54 Z M 192.14 204.51 L 192.32 203.53 C 192.48 202.67 191.91 201.83 191.04 201.67 C 190.17 201.51 189.34 202.09 189.18 202.95 L 189.00 203.92 C 188.84 204.79 189.41 205.63 190.28 205.79 C 191.15 205.95 191.98 205.37 192.14 204.51 Z M 192.33 203.49 L 192.49 202.49 C 192.62 201.62 192.03 200.80 191.16 200.66 C 190.29 200.53 189.47 201.12 189.33 201.99 L 189.17 202.99 C 189.03 203.87 189.63 204.68 190.50 204.82 C 191.37 204.96 192.19 204.37 192.33 203.49 Z M 192.49 202.46 L 192.62 201.50 C 192.75 200.62 192.14 199.81 191.26 199.69 C 190.39 199.57 189.58 200.18 189.46 201.05 L 189.32 202.02 C 189.20 202.90 189.81 203.70 190.69 203.82 C 191.56 203.95 192.37 203.34 192.49 202.46 Z M 192.63 201.47 L 192.75 200.47 C 192.86 199.60 192.23 198.80 191.36 198.69 C 190.48 198.59 189.68 199.21 189.58 200.09 L 189.46 201.08 C 189.35 201.96 189.97 202.75 190.85 202.86 C 191.72 202.97 192.52 202.34 192.63 201.47 Z M 192.75 200.45 L 192.86 199.43 C 192.95 198.55 192.31 197.76 191.43 197.67 C 190.55 197.58 189.77 198.22 189.68 199.10 L 189.57 200.12 C 189.48 200.99 190.12 201.78 191.00 201.87 C 191.88 201.96 192.66 201.32 192.75 200.45 Z M 192.86 199.40 L 192.95 198.40 C 193.02 197.52 192.37 196.74 191.49 196.67 C 190.61 196.59 189.84 197.24 189.76 198.12 L 189.68 199.13 C 189.60 200.00 190.25 200.78 191.13 200.86 C 192.01 200.93 192.78 200.28 192.86 199.40 Z M 192.95 198.37 L 193.02 197.37 C 193.08 196.49 192.42 195.73 191.54 195.66 C 190.66 195.60 189.89 196.26 189.83 197.14 L 189.76 198.14 C 189.70 199.03 190.36 199.79 191.24 199.85 C 192.12 199.91 192.89 199.25 192.95 198.37 Z M 193.02 197.34 L 193.08 196.33 C 193.12 195.44 192.45 194.69 191.57 194.64 C 190.69 194.60 189.93 195.27 189.88 196.15 L 189.83 197.17 C 189.78 198.05 190.46 198.81 191.34 198.85 C 192.22 198.90 192.97 198.23 193.02 197.34 Z M 193.08 196.30 L 193.11 195.30 C 193.15 194.42 192.46 193.67 191.57 193.64 C 190.69 193.61 189.95 194.30 189.92 195.18 L 189.88 196.18 C 189.85 197.06 190.54 197.81 191.42 197.84 C 192.31 197.87 193.05 197.18 193.08 196.30 Z M 193.12 195.27 L 193.14 194.30 C 193.15 193.41 192.45 192.68 191.57 192.67 C 190.69 192.65 189.96 193.35 189.94 194.23 L 189.92 195.21 C 189.90 196.09 190.60 196.82 191.48 196.84 C 192.37 196.86 193.10 196.16 193.12 195.27 Z M 193.14 194.28 L 193.15 193.27 C 193.15 192.38 192.44 191.66 191.56 191.65 C 190.67 191.65 189.95 192.36 189.94 193.24 L 189.94 194.25 C 189.93 195.14 190.64 195.86 191.52 195.87 C 192.41 195.87 193.13 195.16 193.14 194.28 Z M 193.15 193.26 L 193.15 192.27 C 193.15 191.38 192.43 190.66 191.55 190.66 C 190.66 190.66 189.95 191.38 189.94 192.26 L 189.94 193.25 C 189.94 194.14 190.66 194.86 191.54 194.86 C 192.43 194.86 193.15 194.14 193.15 193.26 Z M 193.15 192.27 L 193.15 191.25 C 193.15 190.37 192.43 189.65 191.55 189.65 C 190.66 189.65 189.94 190.37 189.94 191.25 L 189.94 192.27 C 189.94 193.15 190.66 193.87 191.55 193.87 C 192.43 193.87 193.15 193.15 193.15 192.27 Z M 193.15 191.25 L 193.15 190.26 C 193.15 189.38 192.43 188.66 191.55 188.66 C 190.66 188.66 189.94 189.38 189.94 190.26 L 189.94 191.25 C 189.94 192.14 190.66 192.86 191.55 192.86 C 192.43 192.86 193.15 192.14 193.15 191.25 Z M 193.15 190.26 L 193.15 189.27 C 193.15 188.38 192.43 187.67 191.54 187.67 C 190.65 187.67 189.94 188.39 189.94 189.28 L 189.94 190.27 C 189.94 191.15 190.66 191.87 191.55 191.87 C 192.44 191.87 193.15 191.15 193.15 190.26 Z M 193.15 189.23 L 193.12 188.23 C 193.10 187.34 192.35 186.65 191.47 186.67 C 190.58 186.70 189.88 187.44 189.91 188.33 L 189.94 189.32 C 189.96 190.21 190.70 190.91 191.59 190.88 C 192.48 190.86 193.18 190.12 193.15 189.23 Z M 193.12 188.13 L 193.03 187.16 C 192.95 186.28 192.17 185.62 191.28 185.70 C 190.40 185.78 189.74 186.57 189.82 187.45 L 189.91 188.42 C 189.99 189.31 190.77 189.96 191.66 189.88 C 192.54 189.80 193.20 189.02 193.12 188.13 Z M 193.02 187.07 L 192.88 186.09 C 192.74 185.21 191.92 184.60 191.04 184.74 C 190.16 184.87 189.56 185.69 189.69 186.57 L 189.83 187.54 C 189.96 188.43 190.78 189.03 191.66 188.90 C 192.55 188.77 193.15 187.95 193.02 187.07 Z M 192.87 186.03 L 192.68 185.02 C 192.52 184.14 191.67 183.56 190.80 183.72 C 189.92 183.89 189.34 184.73 189.50 185.61 L 189.69 186.63 C 189.86 187.50 190.70 188.08 191.58 187.92 C 192.45 187.75 193.03 186.91 192.87 186.03 Z M 192.67 184.98 L 192.47 184.02 C 192.29 183.14 191.44 182.58 190.56 182.77 C 189.69 182.95 189.13 183.80 189.31 184.68 L 189.51 185.64 C 189.69 186.51 190.55 187.08 191.42 186.89 C 192.29 186.71 192.86 185.86 192.67 184.98 Z M 192.47 183.99 L 192.24 183.00 C 192.04 182.13 191.17 181.58 190.30 181.78 C 189.43 181.98 188.89 182.85 189.09 183.72 L 189.31 184.71 C 189.51 185.58 190.38 186.13 191.25 185.93 C 192.12 185.73 192.67 184.86 192.47 183.99 Z M 192.24 182.96 L 191.99 181.98 C 191.77 181.12 190.88 180.59 190.02 180.81 C 189.15 181.03 188.62 181.92 188.85 182.78 L 189.09 183.76 C 189.31 184.63 190.20 185.15 191.06 184.93 C 191.93 184.71 192.46 183.83 192.24 182.96 Z M 191.98 181.95 L 191.71 180.99 C 191.47 180.13 190.58 179.63 189.71 179.87 C 188.85 180.11 188.35 181.00 188.59 181.87 L 188.85 182.82 C 189.09 183.68 189.99 184.19 190.85 183.95 C 191.72 183.71 192.22 182.81 191.98 181.95 Z M 191.71 180.97 L 191.42 180.00 C 191.17 179.14 190.26 178.65 189.40 178.91 C 188.54 179.17 188.05 180.07 188.31 180.93 L 188.59 181.89 C 188.85 182.76 189.75 183.25 190.61 182.99 C 191.47 182.73 191.97 181.83 191.71 180.97 Z M 191.42 179.99 L 191.13 179.05 C 190.86 178.19 189.95 177.71 189.09 177.97 C 188.23 178.24 187.75 179.15 188.02 180.01 L 188.31 180.95 C 188.57 181.81 189.48 182.29 190.34 182.02 C 191.20 181.76 191.68 180.85 191.42 179.99 Z M 191.13 179.03 L 190.83 178.09 C 190.56 177.23 189.64 176.76 188.78 177.03 C 187.92 177.30 187.45 178.22 187.72 179.07 L 188.02 180.02 C 188.29 180.88 189.21 181.35 190.07 181.08 C 190.92 180.81 191.40 179.89 191.13 179.03 Z M 190.82 178.08 L 190.51 177.11 C 190.23 176.25 189.31 175.78 188.46 176.06 C 187.60 176.34 187.13 177.26 187.41 178.12 L 187.72 179.09 C 188.00 179.94 188.92 180.41 189.78 180.13 C 190.63 179.85 191.10 178.94 190.82 178.08 Z M 190.51 177.10 L 190.19 176.14 C 189.90 175.29 188.98 174.83 188.13 175.11 C 187.27 175.40 186.81 176.32 187.09 177.17 L 187.41 178.13 C 187.70 178.98 188.62 179.44 189.47 179.16 C 190.33 178.88 190.79 177.95 190.51 177.10 Z M 190.18 176.13 L 189.86 175.18 C 189.57 174.33 188.64 173.88 187.79 174.17 C 186.93 174.47 186.48 175.40 186.77 176.25 L 187.10 177.19 C 187.39 178.04 188.32 178.49 189.17 178.20 C 190.03 177.91 190.48 176.98 190.18 176.13 Z M 189.85 175.16 L 189.51 174.21 C 189.20 173.37 188.26 172.93 187.42 173.24 C 186.57 173.54 186.13 174.48 186.44 175.33 L 186.78 176.27 C 187.09 177.12 188.03 177.56 188.87 177.25 C 189.72 176.94 190.16 176.01 189.85 175.16 Z M 189.50 174.18 L 189.13 173.24 C 188.81 172.40 187.86 171.98 187.02 172.31 C 186.18 172.64 185.76 173.58 186.09 174.42 L 186.45 175.36 C 186.78 176.20 187.72 176.62 188.56 176.29 C 189.41 175.97 189.82 175.02 189.50 174.18 Z M 189.12 173.21 L 188.74 172.28 C 188.39 171.45 187.43 171.05 186.60 171.40 C 185.77 171.75 185.37 172.70 185.72 173.54 L 186.10 174.46 C 186.45 175.29 187.40 175.69 188.24 175.34 C 189.07 174.99 189.47 174.04 189.12 173.21 Z M 188.72 172.25 L 188.32 171.34 C 187.96 170.51 186.99 170.13 186.16 170.50 C 185.34 170.86 184.96 171.83 185.33 172.65 L 185.73 173.57 C 186.09 174.40 187.06 174.77 187.89 174.41 C 188.71 174.04 189.09 173.08 188.72 172.25 Z M 188.31 171.31 L 187.89 170.40 C 187.51 169.58 186.54 169.22 185.72 169.60 C 184.90 169.98 184.54 170.95 184.92 171.77 L 185.34 172.68 C 185.72 173.50 186.69 173.86 187.51 173.48 C 188.33 173.10 188.69 172.13 188.31 171.31 Z M 187.88 170.38 L 187.45 169.48 C 187.06 168.67 186.08 168.33 185.27 168.72 C 184.45 169.11 184.11 170.09 184.50 170.90 L 184.93 171.80 C 185.32 172.61 186.30 172.95 187.11 172.56 C 187.93 172.17 188.27 171.19 187.88 170.38 Z M 187.44 169.46 L 186.99 168.57 C 186.59 167.76 185.60 167.43 184.80 167.84 C 183.99 168.24 183.66 169.23 184.06 170.03 L 184.51 170.93 C 184.92 171.74 185.90 172.06 186.71 171.66 C 187.52 171.25 187.84 170.27 187.44 169.46 Z M 186.98 168.54 L 186.51 167.65 C 186.09 166.85 185.10 166.54 184.30 166.96 C 183.50 167.38 183.19 168.37 183.61 169.17 L 184.08 170.06 C 184.50 170.86 185.49 171.17 186.29 170.75 C 187.09 170.33 187.40 169.34 186.98 168.54 Z M 186.49 167.62 L 186.00 166.72 C 185.56 165.93 184.57 165.64 183.77 166.08 C 182.98 166.51 182.69 167.51 183.13 168.30 L 183.63 169.20 C 184.06 169.99 185.06 170.28 185.85 169.84 C 186.64 169.41 186.93 168.41 186.49 167.62 Z M 185.98 166.69 L 185.47 165.80 C 185.01 165.02 184.01 164.76 183.23 165.21 C 182.44 165.67 182.18 166.67 182.64 167.45 L 183.15 168.33 C 183.60 169.12 184.61 169.38 185.39 168.93 C 186.17 168.47 186.44 167.47 185.98 166.69 Z M 185.44 165.76 L 184.92 164.93 C 184.45 164.16 183.44 163.92 182.67 164.40 C 181.90 164.87 181.66 165.88 182.14 166.65 L 182.66 167.49 C 183.13 168.26 184.14 168.50 184.91 168.02 C 185.68 167.54 185.92 166.53 185.44 165.76 Z M 184.89 164.88 L 184.33 164.04 C 183.83 163.29 182.81 163.09 182.06 163.59 C 181.31 164.10 181.11 165.12 181.61 165.87 L 182.17 166.70 C 182.67 167.45 183.69 167.66 184.44 167.15 C 185.20 166.65 185.40 165.63 184.89 164.88 Z M 184.30 163.99 L 183.70 163.17 C 183.17 162.44 182.14 162.28 181.41 162.81 C 180.68 163.35 180.52 164.37 181.05 165.11 L 181.65 165.92 C 182.18 166.65 183.21 166.81 183.94 166.28 C 184.67 165.75 184.83 164.72 184.30 163.99 Z M 183.68 163.14 L 183.09 162.37 C 182.53 161.65 181.50 161.52 180.78 162.07 C 180.07 162.63 179.93 163.66 180.49 164.37 L 181.08 165.14 C 181.63 165.86 182.66 165.99 183.38 165.44 C 184.10 164.89 184.23 163.86 183.68 163.14 Z M 183.08 162.36 L 182.47 161.59 C 181.91 160.87 180.88 160.75 180.17 161.31 C 179.45 161.86 179.33 162.90 179.89 163.61 L 180.49 164.38 C 181.05 165.10 182.08 165.22 182.80 164.67 C 183.51 164.11 183.64 163.08 183.08 162.36 Z M 182.47 161.58 L 181.85 160.80 C 181.29 160.08 180.26 159.96 179.54 160.52 C 178.83 161.08 178.71 162.12 179.27 162.83 L 179.89 163.62 C 180.45 164.33 181.48 164.45 182.20 163.89 C 182.91 163.33 183.03 162.29 182.47 161.58 Z M 181.84 160.78 L 181.21 160.00 C 180.64 159.29 179.61 159.18 178.90 159.75 C 178.19 160.32 178.08 161.35 178.65 162.06 L 179.28 162.84 C 179.85 163.55 180.88 163.66 181.59 163.09 C 182.30 162.52 182.41 161.49 181.84 160.78 Z M 181.20 159.98 L 180.57 159.22 C 179.99 158.52 178.95 158.42 178.25 159.00 C 177.55 159.58 177.45 160.61 178.03 161.31 L 178.66 162.08 C 179.24 162.78 180.28 162.88 180.98 162.30 C 181.68 161.72 181.78 160.68 181.20 159.98 Z M 180.56 159.21 L 179.91 158.44 C 179.33 157.75 178.29 157.66 177.60 158.24 C 176.90 158.83 176.81 159.87 177.40 160.56 L 178.04 161.33 C 178.63 162.02 179.66 162.11 180.36 161.52 C 181.05 160.94 181.14 159.90 180.56 159.21 Z M 179.92 158.44 L 179.27 157.67 C 178.68 156.98 177.64 156.89 176.95 157.47 C 176.25 158.06 176.16 159.09 176.75 159.79 L 177.40 160.56 C 177.98 161.26 179.02 161.35 179.72 160.76 C 180.41 160.18 180.50 159.14 179.92 158.44 Z M 179.27 157.68 L 178.63 156.91 C 178.05 156.21 177.01 156.12 176.31 156.70 C 175.62 157.29 175.52 158.32 176.11 159.02 L 176.74 159.79 C 177.33 160.48 178.37 160.58 179.06 159.99 C 179.76 159.41 179.85 158.37 179.27 157.68 Z M 178.63 156.90 L 177.98 156.14 C 177.39 155.44 176.35 155.35 175.66 155.94 C 174.96 156.53 174.88 157.57 175.46 158.26 L 176.11 159.03 C 176.70 159.72 177.74 159.81 178.43 159.23 C 179.13 158.64 179.21 157.60 178.63 156.90 Z M 177.97 156.12 L 177.31 155.36 C 176.71 154.68 175.67 154.60 174.99 155.20 C 174.30 155.80 174.23 156.84 174.82 157.53 L 175.48 158.28 C 176.07 158.97 177.11 159.04 177.80 158.44 C 178.49 157.85 178.56 156.81 177.97 156.12 Z M 177.29 155.34 L 176.63 154.61 C 176.02 153.93 174.98 153.87 174.30 154.48 C 173.63 155.09 173.57 156.13 174.18 156.81 L 174.84 157.55 C 175.45 158.22 176.49 158.28 177.17 157.67 C 177.85 157.06 177.90 156.02 177.29 155.34 Z M 176.62 154.59 L 175.94 153.86 C 175.33 153.18 174.28 153.14 173.61 153.76 C 172.94 154.37 172.90 155.42 173.51 156.09 L 174.19 156.83 C 174.81 157.50 175.85 157.54 176.52 156.92 C 177.19 156.31 177.24 155.26 176.62 154.59 Z M 175.94 153.85 L 175.25 153.10 C 174.63 152.44 173.58 152.40 172.91 153.02 C 172.25 153.64 172.21 154.68 172.83 155.35 L 173.52 156.09 C 174.14 156.76 175.18 156.80 175.85 156.18 C 176.52 155.56 176.56 154.52 175.94 153.85 Z M 175.24 153.10 L 174.54 152.36 C 173.92 151.69 172.88 151.66 172.21 152.28 C 171.55 152.91 171.51 153.95 172.14 154.62 L 172.83 155.36 C 173.46 156.02 174.50 156.05 175.17 155.43 C 175.83 154.81 175.86 153.76 175.24 153.10 Z M 174.52 152.33 L 173.83 151.62 C 173.19 150.96 172.15 150.95 171.49 151.58 C 170.84 152.22 170.82 153.27 171.46 153.92 L 172.16 154.64 C 172.79 155.29 173.84 155.31 174.49 154.67 C 175.15 154.03 175.16 152.99 174.52 152.33 Z M 173.79 151.58 L 173.06 150.88 C 172.41 150.25 171.36 150.26 170.73 150.92 C 170.09 151.58 170.11 152.62 170.77 153.26 L 171.50 153.96 C 172.15 154.59 173.20 154.57 173.83 153.92 C 174.47 153.26 174.45 152.21 173.79 151.58 Z M 173.01 150.83 L 172.25 150.16 C 171.57 149.55 170.53 149.62 169.92 150.30 C 169.32 150.98 169.38 152.03 170.06 152.63 L 170.82 153.30 C 171.50 153.91 172.55 153.85 173.15 153.16 C 173.76 152.48 173.70 151.44 173.01 150.83 Z M 172.21 150.12 L 171.47 149.51 C 170.76 148.93 169.72 149.03 169.14 149.73 C 168.56 150.44 168.66 151.48 169.36 152.06 L 170.11 152.67 C 170.81 153.25 171.85 153.15 172.43 152.45 C 173.01 151.74 172.91 150.70 172.21 150.12 Z M 171.44 149.48 L 170.65 148.87 C 169.93 148.30 168.89 148.43 168.33 149.14 C 167.76 149.86 167.89 150.90 168.61 151.47 L 169.39 152.08 C 170.11 152.65 171.15 152.52 171.72 151.80 C 172.28 151.09 172.15 150.05 171.44 149.48 Z M 170.61 148.84 L 169.81 148.24 C 169.07 147.70 168.04 147.86 167.50 148.59 C 166.95 149.33 167.11 150.36 167.84 150.90 L 168.65 151.50 C 169.38 152.04 170.42 151.88 170.96 151.15 C 171.50 150.41 171.35 149.38 170.61 148.84 Z M 169.75 148.20 L 168.92 147.64 C 168.17 147.13 167.14 147.33 166.63 148.09 C 166.12 148.84 166.32 149.87 167.07 150.38 L 167.90 150.94 C 168.66 151.45 169.68 151.26 170.20 150.50 C 170.71 149.74 170.51 148.72 169.75 148.20 Z M 168.86 147.61 L 168.01 147.08 C 167.23 146.60 166.21 146.85 165.73 147.63 C 165.26 148.41 165.50 149.42 166.28 149.90 L 167.14 150.42 C 167.91 150.90 168.93 150.66 169.41 149.88 C 169.88 149.10 169.64 148.08 168.86 147.61 Z M 167.95 147.05 L 167.08 146.56 C 166.29 146.12 165.28 146.40 164.84 147.20 C 164.39 147.99 164.67 149.00 165.47 149.44 L 166.33 149.93 C 167.13 150.38 168.14 150.09 168.58 149.30 C 169.03 148.50 168.75 147.50 167.95 147.05 Z M 167.03 146.53 L 166.14 146.07 C 165.33 145.65 164.33 145.97 163.91 146.79 C 163.49 147.60 163.81 148.60 164.62 149.01 L 165.52 149.47 C 166.33 149.89 167.33 149.57 167.75 148.76 C 168.17 147.95 167.85 146.95 167.03 146.53 Z M 166.07 146.03 L 165.16 145.62 C 164.33 145.24 163.34 145.61 162.96 146.45 C 162.59 147.28 162.96 148.26 163.79 148.64 L 164.70 149.05 C 165.53 149.43 166.51 149.06 166.89 148.23 C 167.27 147.39 166.90 146.41 166.07 146.03 Z M 165.06 145.58 L 164.15 145.23 C 163.29 144.90 162.33 145.34 162.00 146.20 C 161.68 147.05 162.11 148.01 162.97 148.34 L 163.89 148.69 C 164.74 149.01 165.71 148.58 166.03 147.72 C 166.36 146.86 165.92 145.90 165.06 145.58 Z M 164.05 145.19 L 163.10 144.90 C 162.22 144.62 161.29 145.11 161.02 145.99 C 160.74 146.87 161.23 147.81 162.11 148.08 L 163.06 148.38 C 163.94 148.65 164.88 148.16 165.15 147.28 C 165.42 146.40 164.93 145.47 164.05 145.19 Z M 163.03 144.87 L 162.04 144.61 C 161.15 144.38 160.23 144.91 160.00 145.81 C 159.77 146.70 160.30 147.61 161.19 147.85 L 162.19 148.11 C 163.08 148.34 163.99 147.80 164.22 146.91 C 164.46 146.02 163.92 145.11 163.03 144.87 Z M 161.98 144.59 L 160.98 144.37 C 160.08 144.17 159.19 144.74 158.99 145.65 C 158.79 146.55 159.36 147.44 160.26 147.64 L 161.26 147.86 C 162.16 148.06 163.05 147.49 163.25 146.59 C 163.45 145.69 162.88 144.79 161.98 144.59 Z M 160.91 144.36 L 159.94 144.19 C 159.02 144.03 158.15 144.64 157.99 145.55 C 157.83 146.46 158.45 147.33 159.36 147.49 L 160.33 147.66 C 161.25 147.82 162.11 147.21 162.27 146.30 C 162.43 145.38 161.82 144.52 160.91 144.36 Z M 159.83 144.17 L 158.80 144.06 C 157.88 143.96 157.05 144.62 156.95 145.55 C 156.85 146.47 157.52 147.30 158.44 147.40 L 159.47 147.51 C 160.39 147.61 161.22 146.94 161.32 146.02 C 161.42 145.10 160.75 144.27 159.83 144.17 Z M 158.70 144.05 L 157.72 144.00 C 156.80 143.96 156.01 144.68 155.97 145.61 C 155.93 146.54 156.65 147.33 157.58 147.37 L 158.55 147.41 C 159.48 147.45 160.26 146.73 160.30 145.80 C 160.35 144.87 159.63 144.09 158.70 144.05 Z M 157.67 144.00 L 156.69 143.99 C 155.76 143.98 155.00 144.72 154.99 145.65 C 154.97 146.58 155.72 147.35 156.65 147.36 L 157.63 147.37 C 158.56 147.38 159.32 146.64 159.34 145.71 C 159.35 144.78 158.60 144.01 157.67 144.00 Z M 156.68 143.98 L 155.67 143.98 C 154.74 143.98 153.98 144.73 153.98 145.67 C 153.98 146.60 154.73 147.36 155.66 147.36 L 156.67 147.36 C 157.60 147.36 158.36 146.61 158.36 145.68 C 158.36 144.75 157.61 143.99 156.68 143.98 Z M 155.67 143.98 L 154.66 143.98 C 153.73 143.98 152.97 144.74 152.98 145.68 C 152.98 146.61 153.74 147.37 154.67 147.36 L 155.67 147.36 C 156.61 147.36 157.36 146.60 157.36 145.67 C 157.36 144.73 156.60 143.98 155.67 143.98 Z M 154.61 143.98 L 153.61 144.01 C 152.68 144.04 151.94 144.83 151.97 145.76 C 152.00 146.70 152.79 147.43 153.72 147.40 L 154.72 147.37 C 155.66 147.34 156.39 146.55 156.36 145.62 C 156.33 144.68 155.55 143.95 154.61 143.98 Z M 153.49 144.02 L 152.51 144.12 C 151.58 144.22 150.90 145.05 151.00 145.99 C 151.10 146.92 151.93 147.59 152.86 147.50 L 153.84 147.39 C 154.78 147.29 155.45 146.46 155.35 145.53 C 155.26 144.60 154.42 143.92 153.49 144.02 Z M 152.37 144.14 L 151.39 144.33 C 150.47 144.50 149.86 145.39 150.04 146.31 C 150.21 147.23 151.10 147.83 152.02 147.66 L 153.00 147.48 C 153.92 147.30 154.52 146.42 154.35 145.50 C 154.18 144.57 153.29 143.97 152.37 144.14 Z M 151.29 144.35 L 150.34 144.59 C 149.43 144.81 148.88 145.73 149.11 146.64 C 149.34 147.55 150.26 148.10 151.17 147.88 L 152.12 147.64 C 153.03 147.41 153.58 146.49 153.35 145.58 C 153.12 144.67 152.20 144.12 151.29 144.35 Z M 150.27 144.60 L 149.33 144.88 C 148.43 145.15 147.92 146.09 148.18 146.99 C 148.45 147.89 149.39 148.40 150.29 148.14 L 151.24 147.86 C 152.14 147.59 152.65 146.65 152.38 145.75 C 152.12 144.85 151.17 144.34 150.27 144.60 Z M 149.27 144.90 L 148.29 145.23 C 147.40 145.53 146.92 146.49 147.21 147.38 C 147.51 148.26 148.47 148.74 149.36 148.45 L 150.35 148.12 C 151.23 147.82 151.71 146.86 151.42 145.97 C 151.12 145.09 150.16 144.61 149.27 144.90 Z M 148.24 145.24 L 147.32 145.58 C 146.44 145.90 145.99 146.87 146.31 147.75 C 146.63 148.63 147.60 149.09 148.48 148.77 L 149.40 148.43 C 150.28 148.11 150.74 147.14 150.42 146.26 C 150.10 145.38 149.12 144.93 148.24 145.24 Z M 147.28 145.60 L 146.33 145.97 C 145.46 146.31 145.03 147.30 145.38 148.17 C 145.72 149.04 146.70 149.47 147.58 149.12 L 148.52 148.75 C 149.39 148.41 149.82 147.42 149.48 146.55 C 149.14 145.68 148.15 145.25 147.28 145.60 Z M 146.28 145.99 L 145.36 146.39 C 144.50 146.76 144.10 147.75 144.47 148.62 C 144.84 149.48 145.84 149.87 146.70 149.50 L 147.63 149.10 C 148.49 148.73 148.88 147.74 148.51 146.87 C 148.14 146.01 147.14 145.62 146.28 145.99 Z M 145.31 146.41 L 144.42 146.83 C 143.57 147.22 143.20 148.23 143.60 149.08 C 144.00 149.93 145.01 150.30 145.86 149.90 L 146.75 149.48 C 147.60 149.08 147.96 148.07 147.57 147.22 C 147.17 146.38 146.16 146.01 145.31 146.41 Z M 144.39 146.84 L 143.49 147.29 C 142.65 147.70 142.30 148.72 142.72 149.56 C 143.13 150.40 144.15 150.74 144.99 150.33 L 145.89 149.88 C 146.73 149.47 147.07 148.45 146.66 147.61 C 146.24 146.77 145.23 146.43 144.39 146.84 Z M 143.47 147.30 L 142.60 147.74 C 141.76 148.16 141.43 149.18 141.85 150.02 C 142.28 150.85 143.29 151.18 144.13 150.76 L 145.00 150.32 C 145.84 149.90 146.17 148.88 145.75 148.04 C 145.33 147.21 144.31 146.87 143.47 147.30 Z M 142.59 147.74 L 141.73 148.18 C 140.90 148.61 140.57 149.63 140.99 150.46 C 141.42 151.30 142.44 151.63 143.27 151.20 L 144.14 150.76 C 144.97 150.33 145.30 149.31 144.87 148.48 C 144.45 147.64 143.43 147.31 142.59 147.74 Z M 141.72 148.18 L 140.82 148.65 C 139.99 149.08 139.66 150.10 140.09 150.93 C 140.51 151.77 141.54 152.09 142.37 151.67 L 143.28 151.20 C 144.11 150.77 144.44 149.75 144.01 148.92 C 143.58 148.08 142.56 147.76 141.72 148.18 Z M 140.82 148.65 L 139.90 149.12 C 139.07 149.55 138.75 150.58 139.18 151.41 C 139.61 152.24 140.63 152.56 141.46 152.13 L 142.37 151.66 C 143.20 151.23 143.53 150.21 143.10 149.38 C 142.67 148.55 141.65 148.22 140.82 148.65 Z M 139.90 149.13 L 139.05 149.57 C 138.22 150.00 137.89 151.02 138.32 151.85 C 138.75 152.68 139.78 153.01 140.61 152.58 L 141.46 152.13 C 142.29 151.70 142.62 150.68 142.18 149.85 C 141.75 149.02 140.73 148.70 139.90 149.13 Z M 139.04 149.58 L 138.15 150.04 C 137.33 150.47 137.01 151.49 137.44 152.32 C 137.87 153.15 138.90 153.47 139.72 153.04 L 140.61 152.57 C 141.44 152.14 141.76 151.12 141.32 150.29 C 140.89 149.46 139.87 149.14 139.04 149.58 Z M 138.15 150.05 L 137.24 150.53 C 136.41 150.97 136.10 151.99 136.54 152.81 C 136.97 153.64 137.99 153.95 138.82 153.51 L 139.73 153.03 C 140.55 152.59 140.87 151.57 140.43 150.75 C 139.99 149.92 138.97 149.61 138.15 150.05 Z M 137.23 150.54 L 136.34 151.02 C 135.52 151.46 135.21 152.48 135.65 153.30 C 136.10 154.12 137.12 154.43 137.94 153.98 L 138.83 153.51 C 139.65 153.06 139.95 152.04 139.51 151.22 C 139.07 150.40 138.05 150.09 137.23 150.54 Z M 136.33 151.02 L 135.46 151.50 C 134.65 151.95 134.35 152.97 134.79 153.79 C 135.24 154.60 136.27 154.90 137.08 154.45 L 137.95 153.98 C 138.77 153.53 139.06 152.51 138.62 151.69 C 138.17 150.87 137.14 150.57 136.33 151.02 Z M 135.45 151.50 L 134.58 151.99 C 133.76 152.45 133.47 153.47 133.93 154.28 C 134.38 155.10 135.41 155.39 136.22 154.94 L 137.09 154.45 C 137.91 153.99 138.20 152.97 137.74 152.15 C 137.29 151.34 136.26 151.05 135.45 151.50 Z M 134.57 152.00 L 133.69 152.50 C 132.88 152.96 132.59 153.99 133.05 154.79 C 133.51 155.60 134.54 155.89 135.35 155.43 L 136.23 154.93 C 137.04 154.47 137.32 153.44 136.86 152.63 C 136.40 151.82 135.38 151.54 134.57 152.00 Z M 133.68 152.51 L 132.81 153.00 C 132.01 153.47 131.73 154.50 132.19 155.30 C 132.66 156.11 133.69 156.38 134.49 155.92 L 135.36 155.42 C 136.16 154.96 136.44 153.93 135.97 153.12 C 135.51 152.32 134.48 152.04 133.68 152.51 Z M 132.80 153.01 L 131.95 153.51 C 131.15 153.98 130.88 155.01 131.35 155.81 C 131.82 156.61 132.85 156.88 133.65 156.41 L 134.50 155.91 C 135.30 155.44 135.57 154.41 135.10 153.61 C 134.63 152.81 133.60 152.54 132.80 153.01 Z M 131.94 153.52 L 131.09 154.03 C 130.29 154.50 130.03 155.53 130.51 156.33 C 130.98 157.12 132.01 157.38 132.81 156.91 L 133.66 156.40 C 134.46 155.93 134.72 154.90 134.24 154.10 C 133.77 153.30 132.74 153.04 131.94 153.52 Z M 131.08 154.04 L 130.22 154.56 C 129.42 155.04 129.17 156.07 129.65 156.86 C 130.13 157.65 131.17 157.91 131.96 157.43 L 132.82 156.90 C 133.61 156.42 133.86 155.39 133.38 154.60 C 132.90 153.81 131.87 153.56 131.08 154.04 Z M 130.20 154.57 L 129.33 155.11 C 128.55 155.60 128.31 156.63 128.79 157.41 C 129.28 158.20 130.31 158.44 131.10 157.95 L 131.97 157.42 C 132.75 156.93 132.99 155.90 132.51 155.11 C 132.02 154.33 130.99 154.08 130.20 154.57 Z M 129.32 155.12 L 128.47 155.66 C 127.69 156.15 127.46 157.18 127.95 157.96 C 128.44 158.74 129.47 158.98 130.25 158.48 L 131.11 157.95 C 131.89 157.45 132.12 156.42 131.63 155.64 C 131.14 154.86 130.10 154.63 129.32 155.12 Z M 128.46 155.67 L 127.61 156.21 C 126.83 156.71 126.60 157.74 127.10 158.52 C 127.60 159.29 128.63 159.52 129.40 159.02 L 130.26 158.48 C 131.03 157.98 131.26 156.95 130.76 156.17 C 130.27 155.40 129.24 155.17 128.46 155.67 Z M 127.60 156.22 L 126.76 156.77 C 125.98 157.27 125.76 158.30 126.26 159.07 C 126.76 159.84 127.79 160.06 128.56 159.56 L 129.41 159.02 C 130.18 158.52 130.40 157.49 129.90 156.72 C 129.40 155.94 128.37 155.72 127.60 156.22 Z M 126.75 156.77 L 125.93 157.31 C 125.16 157.81 124.95 158.84 125.45 159.60 C 125.95 160.37 126.98 160.59 127.74 160.09 L 128.57 159.56 C 129.33 159.06 129.55 158.03 129.05 157.26 C 128.55 156.49 127.52 156.27 126.75 156.77 Z M 125.93 157.31 L 125.07 157.88 C 124.30 158.38 124.08 159.41 124.58 160.17 C 125.09 160.94 126.11 161.15 126.88 160.65 L 127.75 160.09 C 128.51 159.59 128.73 158.56 128.23 157.79 C 127.73 157.02 126.70 156.81 125.93 157.31 Z M 125.06 157.88 L 124.21 158.44 C 123.45 158.95 123.23 159.97 123.74 160.74 C 124.24 161.50 125.27 161.71 126.03 161.21 L 126.88 160.65 C 127.65 160.15 127.86 159.12 127.36 158.35 C 126.85 157.59 125.83 157.38 125.06 157.88 Z M 124.20 158.45 L 123.39 159.00 C 122.63 159.50 122.42 160.53 122.92 161.29 C 123.43 162.05 124.46 162.25 125.22 161.75 L 126.03 161.20 C 126.80 160.70 127.00 159.67 126.50 158.91 C 125.99 158.15 124.96 157.94 124.20 158.45 Z M 123.38 159.00 L 122.58 159.54 C 121.83 160.05 121.63 161.07 122.14 161.83 C 122.65 162.59 123.68 162.78 124.43 162.27 L 125.22 161.74 C 125.98 161.23 126.18 160.20 125.67 159.45 C 125.16 158.69 124.13 158.49 123.38 159.00 Z M 122.57 159.55 L 121.75 160.12 C 120.99 160.63 120.80 161.66 121.32 162.41 C 121.84 163.16 122.86 163.35 123.61 162.83 L 124.44 162.26 C 125.19 161.75 125.38 160.72 124.87 159.97 C 124.35 159.22 123.32 159.03 122.57 159.55 Z M 121.74 160.13 L 120.91 160.70 C 120.17 161.22 119.98 162.24 120.50 162.99 C 121.02 163.74 122.05 163.92 122.79 163.40 L 123.62 162.83 C 124.36 162.31 124.55 161.28 124.03 160.54 C 123.51 159.79 122.48 159.61 121.74 160.13 Z M 120.91 160.70 L 120.10 161.27 C 119.35 161.79 119.17 162.82 119.69 163.56 C 120.21 164.30 121.24 164.49 121.98 163.97 L 122.79 163.40 C 123.54 162.88 123.72 161.85 123.20 161.11 C 122.68 160.37 121.66 160.19 120.91 160.70 Z M 120.10 161.27 L 119.29 161.84 C 118.55 162.35 118.36 163.38 118.88 164.12 C 119.39 164.86 120.42 165.05 121.16 164.53 L 121.97 163.97 C 122.72 163.45 122.90 162.43 122.39 161.68 C 121.87 160.94 120.85 160.76 120.10 161.27 Z M 119.30 161.83 L 118.47 162.40 C 117.72 162.92 117.53 163.93 118.04 164.68 C 118.55 165.43 119.57 165.62 120.31 165.11 L 121.15 164.54 C 121.89 164.03 122.09 163.01 121.58 162.26 C 121.07 161.51 120.05 161.32 119.30 161.83 Z M 118.48 162.40 L 117.65 162.95 C 116.90 163.46 116.70 164.47 117.20 165.22 C 117.70 165.97 118.72 166.17 119.47 165.67 L 120.30 165.11 C 121.05 164.61 121.25 163.60 120.75 162.85 C 120.24 162.10 119.23 161.90 118.48 162.40 Z M 117.67 162.95 L 116.84 163.48 C 116.09 163.98 115.87 164.99 116.36 165.74 C 116.86 166.49 117.87 166.71 118.62 166.22 L 119.45 165.68 C 120.20 165.19 120.42 164.18 119.92 163.42 C 119.43 162.67 118.42 162.45 117.67 162.95 Z M 116.86 163.47 L 116.01 164.01 C 115.25 164.49 115.02 165.50 115.50 166.26 C 115.98 167.02 116.98 167.25 117.74 166.77 L 118.60 166.23 C 119.36 165.75 119.59 164.74 119.11 163.98 C 118.63 163.22 117.62 162.99 116.86 163.47 Z M 116.02 164.00 L 115.17 164.53 C 114.40 165.00 114.16 166.00 114.63 166.77 C 115.10 167.53 116.10 167.77 116.87 167.30 L 117.72 166.78 C 118.49 166.31 118.73 165.31 118.26 164.54 C 117.79 163.77 116.79 163.53 116.02 164.00 Z M 115.17 164.52 L 114.33 165.04 C 113.56 165.50 113.31 166.50 113.78 167.27 C 114.24 168.04 115.24 168.29 116.01 167.82 L 116.86 167.31 C 117.63 166.84 117.87 165.84 117.41 165.07 C 116.94 164.31 115.94 164.06 115.17 164.52 Z M 114.33 165.04 L 113.48 165.55 C 112.71 166.02 112.47 167.02 112.93 167.78 C 113.40 168.55 114.40 168.80 115.16 168.33 L 116.01 167.82 C 116.78 167.35 117.03 166.35 116.56 165.59 C 116.09 164.82 115.09 164.57 114.33 165.04 Z M 113.48 165.55 L 112.63 166.07 C 111.86 166.54 111.62 167.54 112.09 168.31 C 112.55 169.07 113.55 169.31 114.32 168.85 L 115.17 168.33 C 115.94 167.86 116.18 166.86 115.71 166.09 C 115.24 165.33 114.24 165.09 113.48 165.55 Z M 112.62 166.08 L 111.77 166.60 C 111.01 167.07 110.77 168.07 111.24 168.83 C 111.71 169.60 112.71 169.84 113.48 169.37 L 114.32 168.84 C 115.09 168.37 115.33 167.37 114.86 166.61 C 114.39 165.84 113.38 165.61 112.62 166.08 Z M 111.77 166.60 L 110.90 167.14 C 110.14 167.61 109.91 168.61 110.38 169.37 C 110.85 170.14 111.85 170.37 112.61 169.90 L 113.48 169.36 C 114.24 168.89 114.48 167.89 114.00 167.13 C 113.53 166.37 112.53 166.13 111.77 166.60 Z M 110.90 167.14 L 110.02 167.69 C 109.26 168.17 109.03 169.17 109.51 169.93 C 109.98 170.69 110.98 170.92 111.74 170.44 L 112.62 169.89 C 113.38 169.42 113.61 168.42 113.13 167.66 C 112.66 166.90 111.66 166.67 110.90 167.14 Z M 110.02 167.70 L 109.17 168.23 C 108.41 168.71 108.19 169.71 108.66 170.47 C 109.14 171.22 110.14 171.45 110.90 170.97 L 111.74 170.44 C 112.50 169.96 112.73 168.96 112.25 168.21 C 111.77 167.45 110.77 167.22 110.02 167.70 Z M 109.16 168.24 L 108.33 168.77 C 107.58 169.25 107.36 170.25 107.84 171.00 C 108.32 171.75 109.32 171.97 110.07 171.49 L 110.90 170.96 C 111.65 170.48 111.87 169.48 111.39 168.73 C 110.91 167.98 109.91 167.76 109.16 168.24 Z M 108.32 168.79 L 107.44 169.37 C 106.69 169.86 106.49 170.85 106.98 171.60 C 107.47 172.34 108.46 172.55 109.21 172.06 L 110.09 171.48 C 110.83 170.99 111.04 169.99 110.55 169.25 C 110.06 168.50 109.06 168.30 108.32 168.79 Z M 107.40 169.40 L 106.64 169.93 C 105.92 170.44 105.74 171.44 106.25 172.17 C 106.76 172.89 107.76 173.07 108.48 172.56 L 109.24 172.03 C 109.97 171.52 110.15 170.52 109.64 169.79 C 109.13 169.06 108.13 168.89 107.40 169.40 Z M 106.59 169.98 L 105.78 170.61 C 105.08 171.15 104.95 172.15 105.49 172.85 C 106.03 173.55 107.03 173.67 107.73 173.13 L 108.54 172.51 C 109.24 171.97 109.37 170.96 108.83 170.27 C 108.29 169.57 107.28 169.44 106.59 169.98 Z M 105.73 170.66 L 104.99 171.28 C 104.32 171.85 104.24 172.85 104.81 173.52 C 105.38 174.19 106.38 174.27 107.05 173.70 L 107.78 173.08 C 108.45 172.51 108.53 171.51 107.97 170.84 C 107.40 170.17 106.40 170.09 105.73 170.66 Z M 104.94 171.34 L 104.23 172.00 C 103.59 172.60 103.56 173.60 104.15 174.23 C 104.74 174.87 105.74 174.91 106.38 174.31 L 107.09 173.65 C 107.73 173.05 107.77 172.06 107.17 171.42 C 106.58 170.78 105.58 170.74 104.94 171.34 Z M 104.13 172.13 L 103.46 172.89 C 102.89 173.54 102.96 174.53 103.61 175.10 C 104.26 175.67 105.25 175.60 105.82 174.95 L 106.48 174.19 C 107.05 173.54 106.99 172.55 106.34 171.98 C 105.69 171.41 104.70 171.48 104.13 172.13 Z M 103.35 173.05 L 102.79 173.88 C 102.31 174.59 102.50 175.56 103.21 176.04 C 103.92 176.52 104.89 176.33 105.37 175.62 L 105.93 174.79 C 106.41 174.08 106.22 173.11 105.51 172.63 C 104.80 172.15 103.83 172.34 103.35 173.05 Z M 102.67 174.12 L 102.26 175.04 C 101.91 175.81 102.25 176.73 103.03 177.08 C 103.80 177.43 104.72 177.08 105.07 176.30 L 105.48 175.38 C 105.83 174.61 105.49 173.70 104.71 173.35 C 103.94 173.00 103.02 173.34 102.67 174.12 Z M 102.18 175.36 L 101.97 176.34 C 101.80 177.16 102.33 177.96 103.15 178.13 C 103.97 178.31 104.77 177.78 104.94 176.96 L 105.15 175.98 C 105.32 175.16 104.79 174.36 103.97 174.19 C 103.15 174.02 102.35 174.54 102.18 175.36 Z M 101.98 176.50 L 101.91 177.16 C 101.83 177.98 102.42 178.71 103.24 178.79 C 104.06 178.88 104.79 178.28 104.87 177.46 L 104.94 176.80 C 105.02 175.98 104.43 175.25 103.61 175.17 C 102.79 175.09 102.06 175.68 101.98 176.50 Z"
      fill="black"
      fill-rule="nonzero" /></svg>