<svg xmlns="http://www.w3.org/2000/svg" width="300" height="300" viewBox="0 0 300 300">
<path d="M 121.76 90.94 L 120.94 90.37 C 120.28 89.92 119.38 90.09 118.93 90.75 C 118.47 91.41 118.64 92.31 119.30 92.76 L 120.13 93.33 C 120.79 93.78 121.69 93.61 122.14 92.95 C 122.59 92.29 122.42 91.39 121.76 90.94 Z M 120.90 90.32 L 120.02 89.77 C 119.33 89.34 118.42 89.55 117.99 90.23 C 117.56 90.92 117.77 91.83 118.46 92.26 L 119.34 92.82 C 120.03 93.25 120.94 93.04 121.37 92.35 C 121.80 91.66 121.59 90.75 120.90 90.32 Z M 119.78 89.61 L 118.83 89.24 C 118.06 88.95 117.19 89.33 116.89 90.11 C 116.59 90.88 116.97 91.75 117.75 92.05 L 118.69 92.42 C 119.47 92.72 120.34 92.33 120.64 91.56 C 120.94 90.78 120.55 89.91 119.78 89.61 Z M 117.18 89.56 L 116.66 90.08 C 116.06 90.69 116.07 91.68 116.69 92.29 C 117.30 92.89 118.29 92.88 118.89 92.26 L 119.41 91.74 C 120.01 91.13 120.00 90.14 119.38 89.53 C 118.77 88.93 117.78 88.94 117.18 89.56 Z M 116.17 90.96 L 116.03 92.03 C 115.92 92.92 116.54 93.73 117.43 93.84 C 118.32 93.96 119.14 93.33 119.25 92.44 L 119.39 91.38 C 119.50 90.49 118.88 89.68 117.99 89.56 C 117.10 89.45 116.28 90.07 116.17 90.96 Z M 115.98 92.14 L 115.92 93.12 C 115.87 94.04 116.58 94.82 117.50 94.87 C 118.41 94.93 119.20 94.22 119.25 93.30 L 119.30 92.33 C 119.36 91.41 118.65 90.62 117.73 90.57 C 116.81 90.52 116.03 91.22 115.98 92.14 Z M 115.90 93.17 L 115.87 94.15 C 115.85 95.09 116.59 95.86 117.52 95.88 C 118.46 95.91 119.23 95.17 119.25 94.23 L 119.28 93.25 C 119.30 92.32 118.56 91.54 117.63 91.52 C 116.69 91.50 115.92 92.24 115.90 93.17 Z M 115.85 94.18 L 115.84 95.13 C 115.84 96.07 116.59 96.85 117.54 96.86 C 118.48 96.87 119.26 96.11 119.27 95.16 L 119.27 94.21 C 119.28 93.27 118.53 92.49 117.58 92.48 C 116.64 92.48 115.86 93.23 115.85 94.18 Z M 115.83 95.13 L 115.82 96.22 C 115.81 97.18 116.58 97.96 117.53 97.97 C 118.48 97.97 119.26 97.21 119.27 96.25 L 119.28 95.16 C 119.29 94.21 118.52 93.43 117.57 93.42 C 116.62 93.41 115.84 94.18 115.83 95.13 Z M 115.81 96.22 L 115.79 97.15 C 115.78 98.11 116.55 98.90 117.51 98.91 C 118.47 98.93 119.26 98.16 119.27 97.20 L 119.29 96.26 C 119.30 95.30 118.53 94.51 117.57 94.50 C 116.61 94.49 115.82 95.25 115.81 96.22 Z M 115.78 97.14 L 115.76 98.12 C 115.75 99.08 116.52 99.88 117.49 99.90 C 118.45 99.91 119.25 99.14 119.27 98.18 L 119.28 97.20 C 119.30 96.24 118.53 95.44 117.56 95.42 C 116.60 95.40 115.80 96.18 115.78 97.14 Z M 115.75 98.11 L 115.73 99.16 C 115.72 100.13 116.49 100.94 117.46 100.95 C 118.44 100.97 119.24 100.20 119.26 99.22 L 119.28 98.18 C 119.30 97.21 118.52 96.40 117.55 96.38 C 116.58 96.37 115.77 97.14 115.75 98.11 Z M 115.72 99.16 L 115.70 100.20 C 115.69 101.18 116.46 101.99 117.44 102.01 C 118.42 102.03 119.23 101.25 119.25 100.27 L 119.27 99.22 C 119.29 98.24 118.51 97.44 117.53 97.42 C 116.55 97.40 115.74 98.18 115.72 99.16 Z M 115.69 100.20 L 115.68 101.15 C 115.66 102.14 116.44 102.95 117.43 102.97 C 118.41 102.98 119.23 102.20 119.24 101.22 L 119.26 100.27 C 119.28 99.28 118.49 98.47 117.51 98.45 C 116.52 98.44 115.71 99.22 115.69 100.20 Z M 115.67 101.15 L 115.65 102.14 C 115.63 103.13 116.42 103.94 117.41 103.96 C 118.40 103.98 119.22 103.19 119.24 102.20 L 119.25 101.21 C 119.27 100.22 118.48 99.41 117.49 99.39 C 116.50 99.37 115.68 100.16 115.67 101.15 Z M 115.64 102.14 L 115.62 103.16 C 115.61 104.16 116.40 104.98 117.40 104.99 C 118.39 105.01 119.21 104.22 119.23 103.22 L 119.24 102.20 C 119.26 101.20 118.47 100.38 117.47 100.37 C 116.48 100.35 115.66 101.14 115.64 102.14 Z M 115.62 103.16 L 115.60 104.23 C 115.58 105.23 116.38 106.05 117.38 106.07 C 118.38 106.08 119.20 105.28 119.22 104.28 L 119.24 103.22 C 119.25 102.22 118.46 101.40 117.46 101.38 C 116.45 101.37 115.63 102.16 115.62 103.16 Z M 115.59 104.23 L 115.58 105.16 C 115.56 106.17 116.36 107.00 117.37 107.01 C 118.37 107.03 119.20 106.23 119.21 105.22 L 119.23 104.28 C 119.24 103.28 118.44 102.45 117.44 102.44 C 116.43 102.42 115.61 103.22 115.59 104.23 Z M 115.57 105.17 L 115.56 106.12 C 115.54 107.13 116.35 107.96 117.35 107.97 C 118.36 107.99 119.19 107.18 119.20 106.18 L 119.22 105.22 C 119.23 104.21 118.43 103.38 117.42 103.37 C 116.41 103.35 115.59 104.16 115.57 105.17 Z M 115.55 106.12 L 115.54 107.11 C 115.52 108.12 116.33 108.96 117.34 108.97 C 118.35 108.98 119.18 108.18 119.20 107.17 L 119.21 106.18 C 119.22 105.17 118.42 104.33 117.41 104.32 C 116.40 104.31 115.57 105.11 115.55 106.12 Z M 115.53 107.11 L 115.52 108.14 C 115.50 109.16 116.31 109.99 117.33 110.00 C 118.34 110.02 119.17 109.21 119.19 108.19 L 119.20 107.17 C 119.22 106.15 118.41 105.32 117.39 105.30 C 116.38 105.29 115.54 106.10 115.53 107.11 Z M 115.51 108.14 L 115.50 109.21 C 115.48 110.23 116.30 111.06 117.31 111.08 C 118.33 111.09 119.17 110.28 119.18 109.26 L 119.19 108.19 C 119.21 107.18 118.39 106.34 117.38 106.33 C 116.36 106.31 115.52 107.13 115.51 108.14 Z M 115.49 109.21 L 115.48 110.19 C 115.47 111.20 116.28 112.04 117.30 112.05 C 118.32 112.07 119.16 111.25 119.17 110.23 L 119.18 109.26 C 119.20 108.24 118.38 107.40 117.36 107.39 C 116.34 107.38 115.50 108.19 115.49 109.21 Z M 115.48 110.19 L 115.46 111.14 C 115.45 112.17 116.27 113.00 117.29 113.02 C 118.31 113.03 119.15 112.21 119.16 111.19 L 119.18 110.23 C 119.19 109.21 118.37 108.37 117.35 108.36 C 116.33 108.35 115.49 109.16 115.48 110.19 Z M 115.46 111.14 L 115.45 112.13 C 115.43 113.15 116.25 113.99 117.28 114.01 C 118.30 114.02 119.14 113.20 119.15 112.18 L 119.17 111.19 C 119.18 110.17 118.36 109.33 117.34 109.31 C 116.31 109.30 115.47 110.12 115.46 111.14 Z M 115.44 112.13 L 115.43 113.14 C 115.42 114.16 116.24 115.01 117.27 115.02 C 118.29 115.03 119.13 114.21 119.15 113.18 L 119.16 112.18 C 119.17 111.15 118.35 110.31 117.32 110.30 C 116.30 110.28 115.46 111.10 115.44 112.13 Z M 115.43 113.14 L 115.41 114.17 C 115.40 115.20 116.23 116.04 117.25 116.05 C 118.28 116.06 119.13 115.24 119.14 114.21 L 119.15 113.18 C 119.16 112.16 118.34 111.31 117.31 111.30 C 116.28 111.29 115.44 112.11 115.43 113.14 Z M 115.41 114.17 L 115.40 115.21 C 115.39 116.24 116.21 117.09 117.24 117.10 C 118.27 117.11 119.12 116.29 119.13 115.26 L 119.14 114.21 C 119.15 113.18 118.33 112.34 117.30 112.32 C 116.27 112.31 115.42 113.14 115.41 114.17 Z M 115.39 115.21 L 115.38 116.21 C 115.37 117.25 116.20 118.09 117.23 118.11 C 118.26 118.12 119.11 117.29 119.12 116.26 L 119.13 115.26 C 119.15 114.23 118.32 113.38 117.29 113.37 C 116.25 113.35 115.41 114.18 115.39 115.21 Z M 115.38 116.21 L 115.37 117.18 C 115.35 118.21 116.18 119.06 117.22 119.08 C 118.25 119.09 119.10 118.26 119.11 117.23 L 119.12 116.26 C 119.14 115.23 118.31 114.38 117.27 114.36 C 116.24 114.35 115.39 115.18 115.38 116.21 Z M 115.36 117.18 L 115.35 118.16 C 115.34 119.20 116.17 120.05 117.20 120.06 C 118.24 120.07 119.09 119.24 119.10 118.21 L 119.11 117.23 C 119.13 116.19 118.30 115.34 117.26 115.33 C 116.23 115.32 115.38 116.15 115.36 117.18 Z M 115.35 118.16 L 115.34 119.15 C 115.32 120.19 116.15 121.04 117.19 121.05 C 118.23 121.07 119.08 120.24 119.09 119.20 L 119.10 118.21 C 119.12 117.17 118.29 116.32 117.25 116.31 C 116.21 116.29 115.36 117.12 115.35 118.16 Z M 115.33 119.15 L 115.32 120.16 C 115.31 121.20 116.14 122.05 117.18 122.06 C 118.22 122.08 119.07 121.24 119.08 120.21 L 119.09 119.20 C 119.11 118.16 118.28 117.31 117.24 117.30 C 116.20 117.28 115.35 118.11 115.33 119.15 Z M 115.32 120.16 L 115.31 121.18 C 115.29 122.22 116.13 123.08 117.17 123.09 C 118.21 123.10 119.06 122.27 119.07 121.23 L 119.08 120.21 C 119.10 119.17 118.26 118.31 117.22 118.30 C 116.18 118.29 115.33 119.12 115.32 120.16 Z M 115.30 121.18 L 115.29 122.22 C 115.28 123.26 116.11 124.12 117.16 124.13 C 118.20 124.14 119.05 123.31 119.06 122.27 L 119.07 121.23 C 119.09 120.19 118.25 119.33 117.21 119.32 C 116.17 119.31 115.32 120.14 115.30 121.18 Z M 115.29 122.22 L 115.28 123.21 C 115.27 124.26 116.10 125.11 117.14 125.12 C 118.19 125.13 119.04 124.30 119.05 123.26 L 119.07 122.27 C 119.08 121.22 118.24 120.37 117.20 120.36 C 116.16 120.34 115.30 121.18 115.29 122.22 Z M 115.28 123.21 L 115.27 124.19 C 115.25 125.24 116.09 126.09 117.14 126.10 C 118.18 126.12 119.03 125.28 119.05 124.23 L 119.06 123.26 C 119.07 122.21 118.23 121.36 117.19 121.34 C 116.14 121.33 115.29 122.17 115.28 123.21 Z M 115.26 124.20 L 115.25 125.19 C 115.24 126.23 116.08 127.09 117.13 127.10 C 118.17 127.11 119.03 126.27 119.04 125.22 L 119.05 124.23 C 119.06 123.19 118.22 122.33 117.17 122.32 C 116.13 122.31 115.27 123.15 115.26 124.20 Z M 115.25 125.19 L 115.24 126.19 C 115.23 127.23 116.07 128.09 117.12 128.10 C 118.17 128.11 119.02 127.27 119.03 126.22 L 119.04 125.22 C 119.05 124.18 118.21 123.32 117.16 123.31 C 116.12 123.30 115.26 124.14 115.25 125.19 Z M 115.24 126.19 L 115.23 127.20 C 115.22 128.24 116.06 129.10 117.11 129.11 C 118.16 129.12 119.02 128.28 119.02 127.23 L 119.03 126.22 C 119.04 125.17 118.20 124.32 117.15 124.31 C 116.10 124.30 115.25 125.14 115.24 126.19 Z M 115.23 127.20 L 115.22 128.21 C 115.21 129.26 116.06 130.12 117.11 130.13 C 118.16 130.13 119.01 129.29 119.02 128.24 L 119.03 127.23 C 119.03 126.18 118.19 125.32 117.14 125.31 C 116.09 125.31 115.24 126.15 115.23 127.20 Z M 115.22 128.21 L 115.21 129.23 C 115.21 130.28 116.05 131.14 117.10 131.15 C 118.15 131.15 119.01 130.31 119.02 129.26 L 119.02 128.24 C 119.03 127.19 118.18 126.33 117.13 126.33 C 116.08 126.32 115.23 127.16 115.22 128.21 Z M 115.21 129.23 L 115.20 130.25 C 115.20 131.30 116.05 132.16 117.10 132.16 C 118.15 132.17 119.01 131.32 119.01 130.27 L 119.02 129.25 C 119.02 128.20 118.18 127.35 117.12 127.34 C 116.07 127.33 115.22 128.18 115.21 129.23 Z M 115.20 130.25 L 115.20 131.25 C 115.19 132.31 116.04 133.16 117.10 133.17 C 118.15 133.17 119.01 132.32 119.01 131.27 L 119.01 130.27 C 119.02 129.21 118.17 128.36 117.12 128.35 C 116.06 128.35 115.21 129.20 115.20 130.25 Z M 115.20 131.25 L 115.19 132.26 C 115.19 133.31 116.04 134.17 117.10 134.17 C 118.15 134.17 119.01 133.32 119.01 132.27 L 119.01 131.27 C 119.02 130.21 118.16 129.36 117.11 129.35 C 116.06 129.35 115.20 130.20 115.20 131.25 Z M 115.19 132.26 L 115.19 133.26 C 115.19 134.31 116.04 135.17 117.09 135.17 C 118.15 135.17 119.01 134.32 119.01 133.27 L 119.01 132.27 C 119.01 131.21 118.16 130.36 117.11 130.35 C 116.05 130.35 115.20 131.20 115.19 132.26 Z M 115.19 133.26 L 115.19 134.26 C 115.18 135.31 116.04 136.17 117.09 136.17 C 118.15 136.18 119.00 135.32 119.01 134.27 L 119.01 133.27 C 119.01 132.21 118.16 131.35 117.10 131.35 C 116.05 131.35 115.19 132.20 115.19 133.26 Z M 115.18 134.26 L 115.18 135.26 C 115.18 136.31 116.03 137.17 117.09 137.18 C 118.15 137.18 119.00 136.32 119.01 135.27 L 119.01 134.27 C 119.01 133.21 118.16 132.35 117.10 132.35 C 116.04 132.35 115.19 133.20 115.18 134.26 Z M 115.18 135.26 L 115.18 136.26 C 115.17 137.31 116.03 138.17 117.08 138.18 C 118.14 138.18 119.00 137.33 119.01 136.27 L 119.01 135.27 C 119.01 134.21 118.16 133.35 117.10 133.35 C 116.04 133.35 115.18 134.20 115.18 135.26 Z M 115.17 136.25 L 115.17 137.25 C 115.17 138.31 116.02 139.17 117.08 139.18 C 118.14 139.18 119.00 138.33 119.00 137.27 L 119.01 136.27 C 119.01 135.21 118.16 134.35 117.10 134.35 C 116.04 134.34 115.18 135.20 115.17 136.25 Z M 115.17 137.25 L 115.16 138.24 C 115.16 139.30 116.01 140.16 117.07 140.17 C 118.13 140.18 118.99 139.32 119.00 138.26 L 119.00 137.27 C 119.01 136.21 118.16 135.35 117.10 135.34 C 116.04 135.34 115.17 136.19 115.17 137.25 Z M 115.16 138.24 L 115.16 139.23 C 115.15 140.29 116.00 141.15 117.06 141.16 C 118.12 141.17 118.99 140.31 118.99 139.25 L 119.00 138.26 C 119.01 137.20 118.15 136.34 117.09 136.33 C 116.03 136.33 115.17 137.18 115.16 138.24 Z M 115.15 139.23 L 115.15 140.22 C 115.14 141.28 115.99 142.15 117.05 142.15 C 118.12 142.16 118.98 141.31 118.99 140.25 L 119.00 139.26 C 119.00 138.19 118.15 137.33 117.09 137.32 C 116.03 137.31 115.16 138.17 115.15 139.23 Z M 115.15 140.22 L 115.14 141.21 C 115.13 142.27 115.98 143.14 117.05 143.15 C 118.11 143.16 118.97 142.30 118.98 141.24 L 118.99 140.25 C 119.00 139.19 118.15 138.32 117.08 138.31 C 116.02 138.30 115.15 139.16 115.15 140.22 Z M 115.14 141.21 L 115.13 142.21 C 115.12 143.27 115.97 144.14 117.04 144.15 C 118.10 144.16 118.97 143.30 118.98 142.24 L 118.98 141.24 C 118.99 140.18 118.14 139.31 117.08 139.30 C 116.01 139.29 115.15 140.15 115.14 141.21 Z M 115.13 142.21 L 115.12 143.21 C 115.11 144.27 115.96 145.14 117.03 145.15 C 118.09 145.16 118.96 144.31 118.97 143.24 L 118.98 142.24 C 118.99 141.18 118.13 140.31 117.07 140.30 C 116.01 140.29 115.14 141.14 115.13 142.21 Z M 115.12 143.21 L 115.11 144.22 C 115.10 145.28 115.95 146.15 117.02 146.16 C 118.08 146.17 118.95 145.32 118.96 144.26 L 118.97 143.24 C 118.98 142.18 118.12 141.31 117.06 141.30 C 116.00 141.29 115.13 142.14 115.12 143.21 Z M 115.11 144.22 L 115.10 145.24 C 115.09 146.30 115.94 147.17 117.01 147.18 C 118.07 147.19 118.94 146.34 118.95 145.27 L 118.96 144.26 C 118.97 143.19 118.12 142.32 117.05 142.31 C 115.99 142.30 115.12 143.15 115.11 144.22 Z M 115.10 145.24 L 115.09 146.20 C 115.08 147.27 115.93 148.14 117.00 148.15 C 118.06 148.16 118.93 147.31 118.94 146.24 L 118.95 145.27 C 118.96 144.21 118.11 143.34 117.04 143.33 C 115.98 143.32 115.11 144.17 115.10 145.24 Z M 115.09 146.20 L 115.08 147.18 C 115.07 148.24 115.92 149.11 116.99 149.12 C 118.05 149.13 118.92 148.28 118.93 147.21 L 118.94 146.24 C 118.95 145.18 118.10 144.30 117.03 144.29 C 115.97 144.28 115.10 145.14 115.09 146.20 Z M 115.08 147.18 L 115.07 148.16 C 115.06 149.22 115.91 150.10 116.98 150.11 C 118.04 150.12 118.91 149.26 118.92 148.20 L 118.93 147.22 C 118.95 146.15 118.09 145.28 117.02 145.27 C 115.96 145.26 115.09 146.11 115.08 147.18 Z M 115.07 148.16 L 115.05 149.15 C 115.04 150.22 115.90 151.09 116.96 151.10 C 118.03 151.11 118.90 150.26 118.91 149.19 L 118.93 148.20 C 118.94 147.13 118.08 146.26 117.02 146.25 C 115.95 146.24 115.08 147.09 115.07 148.16 Z M 115.05 149.15 L 115.04 150.15 C 115.03 151.22 115.88 152.09 116.95 152.10 C 118.02 152.12 118.89 151.26 118.90 150.20 L 118.91 149.19 C 118.93 148.13 118.07 147.25 117.01 147.24 C 115.94 147.23 115.07 148.08 115.05 149.15 Z M 115.04 150.15 L 115.03 151.16 C 115.01 152.23 115.87 153.10 116.93 153.12 C 118.00 153.13 118.88 152.28 118.89 151.21 L 118.90 150.20 C 118.92 149.13 118.06 148.26 117.00 148.24 C 115.93 148.23 115.06 149.08 115.04 150.15 Z M 115.03 151.16 L 115.01 152.18 C 115.00 153.25 115.85 154.13 116.92 154.14 C 117.98 154.16 118.86 153.31 118.88 152.24 L 118.89 151.22 C 118.91 150.15 118.05 149.27 116.99 149.26 C 115.92 149.24 115.04 150.09 115.03 151.16 Z M 115.01 152.18 L 114.99 153.21 C 114.98 154.28 115.83 155.16 116.89 155.18 C 117.96 155.20 118.84 154.35 118.86 153.28 L 118.88 152.24 C 118.89 151.18 118.04 150.30 116.98 150.28 C 115.91 150.26 115.03 151.11 115.01 152.18 Z M 114.99 153.21 L 114.98 154.24 C 114.96 155.30 115.80 156.18 116.87 156.20 C 117.94 156.22 118.82 155.38 118.84 154.31 L 118.86 153.28 C 118.88 152.22 118.03 151.33 116.96 151.32 C 115.90 151.30 115.01 152.14 114.99 153.21 Z M 114.98 154.23 L 114.95 155.26 C 114.93 156.33 115.78 157.21 116.85 157.23 C 117.91 157.25 118.80 156.40 118.82 155.34 L 118.84 154.31 C 118.86 153.24 118.01 152.36 116.95 152.34 C 115.88 152.32 115.00 153.17 114.98 154.23 Z M 114.95 155.26 L 114.93 156.28 C 114.91 157.35 115.75 158.23 116.82 158.26 C 117.89 158.28 118.77 157.44 118.80 156.37 L 118.82 155.34 C 118.84 154.27 118.00 153.39 116.93 153.37 C 115.86 153.34 114.98 154.19 114.95 155.26 Z M 114.93 156.28 L 114.91 157.30 C 114.88 158.37 115.73 159.26 116.80 159.28 C 117.86 159.31 118.75 158.46 118.77 157.39 L 118.80 156.37 C 118.82 155.30 117.98 154.42 116.91 154.39 C 115.84 154.37 114.96 155.21 114.93 156.28 Z M 114.91 157.30 L 114.88 158.32 C 114.86 159.38 115.70 160.27 116.77 160.30 C 117.84 160.32 118.72 159.48 118.75 158.41 L 118.77 157.40 C 118.80 156.33 117.95 155.44 116.89 155.42 C 115.82 155.39 114.93 156.23 114.91 157.30 Z M 114.88 158.32 L 114.86 159.32 C 114.83 160.38 115.68 161.27 116.74 161.30 C 117.81 161.32 118.70 160.48 118.73 159.41 L 118.75 158.41 C 118.78 157.34 117.93 156.46 116.86 156.43 C 115.80 156.40 114.91 157.25 114.88 158.32 Z M 114.86 159.32 L 114.83 160.30 C 114.81 161.36 115.65 162.25 116.72 162.28 C 117.79 162.31 118.67 161.46 118.70 160.39 L 118.73 159.41 C 118.75 158.34 117.91 157.46 116.84 157.43 C 115.77 157.40 114.88 158.25 114.86 159.32 Z M 114.83 160.30 L 114.81 161.25 C 114.78 162.32 115.63 163.21 116.69 163.24 C 117.76 163.26 118.65 162.42 118.68 161.35 L 118.70 160.39 C 118.73 159.32 117.88 158.44 116.82 158.41 C 115.75 158.38 114.86 159.23 114.83 160.30 Z M 114.81 161.25 L 114.78 162.24 C 114.76 163.31 115.60 164.20 116.67 164.23 C 117.74 164.25 118.63 163.41 118.65 162.34 L 118.68 161.35 C 118.70 160.28 117.86 159.39 116.79 159.36 C 115.72 159.34 114.83 160.18 114.81 161.25 Z M 114.78 162.24 L 114.76 163.32 C 114.73 164.38 115.58 165.27 116.64 165.30 C 117.71 165.32 118.60 164.48 118.63 163.41 L 118.65 162.34 C 118.68 161.27 117.83 160.38 116.77 160.35 C 115.70 160.33 114.81 161.17 114.78 162.24 Z M 114.76 163.32 L 114.73 164.35 C 114.71 165.42 115.55 166.31 116.62 166.33 C 117.69 166.36 118.58 165.51 118.60 164.44 L 118.63 163.41 C 118.65 162.34 117.81 161.45 116.74 161.43 C 115.67 161.40 114.78 162.25 114.76 163.32 Z M 114.73 164.35 L 114.71 165.35 C 114.68 166.42 115.53 167.31 116.60 167.33 C 117.67 167.36 118.55 166.51 118.58 165.44 L 118.60 164.44 C 118.63 163.37 117.78 162.48 116.71 162.46 C 115.64 162.43 114.76 163.28 114.73 164.35 Z M 114.71 165.35 L 114.68 166.33 C 114.66 167.40 115.51 168.28 116.58 168.31 C 117.64 168.33 118.53 167.49 118.56 166.42 L 118.58 165.44 C 118.60 164.37 117.76 163.49 116.69 163.46 C 115.62 163.44 114.73 164.28 114.71 165.35 Z M 114.68 166.33 L 114.66 167.29 C 114.64 168.36 115.48 169.24 116.55 169.27 C 117.62 169.29 118.51 168.45 118.53 167.38 L 118.56 166.42 C 118.58 165.35 117.73 164.46 116.67 164.44 C 115.60 164.41 114.71 165.26 114.68 166.33 Z M 114.66 167.29 L 114.64 168.24 C 114.62 169.31 115.46 170.20 116.53 170.22 C 117.60 170.25 118.49 169.40 118.51 168.33 L 118.53 167.38 C 118.56 166.31 117.71 165.42 116.64 165.40 C 115.57 165.37 114.69 166.22 114.66 167.29 Z M 114.64 168.24 L 114.62 169.20 C 114.59 170.27 115.44 171.16 116.51 171.18 C 117.58 171.21 118.46 170.36 118.49 169.29 L 118.51 168.33 C 118.54 167.26 117.69 166.37 116.62 166.35 C 115.55 166.32 114.67 167.17 114.64 168.24 Z M 114.62 169.20 L 114.59 170.19 C 114.57 171.26 115.42 172.14 116.48 172.17 C 117.55 172.19 118.44 171.35 118.47 170.28 L 118.49 169.29 C 118.51 168.22 117.67 167.34 116.60 167.31 C 115.53 167.29 114.64 168.13 114.62 169.20 Z M 114.60 170.19 L 114.57 171.18 C 114.55 172.24 115.39 173.13 116.46 173.16 C 117.53 173.18 118.41 172.34 118.44 171.27 L 118.46 170.28 C 118.49 169.21 117.65 168.32 116.58 168.30 C 115.51 168.27 114.62 169.12 114.60 170.19 Z M 114.57 171.18 L 114.55 172.17 C 114.52 173.24 115.37 174.13 116.43 174.15 C 117.50 174.18 118.39 173.33 118.42 172.27 L 118.44 171.27 C 118.47 170.20 117.62 169.32 116.55 169.29 C 115.49 169.26 114.60 170.11 114.57 171.18 Z M 114.55 172.17 L 114.52 173.17 C 114.50 174.24 115.34 175.13 116.41 175.15 C 117.47 175.18 118.36 174.34 118.39 173.27 L 118.41 172.27 C 118.44 171.20 117.60 170.31 116.53 170.29 C 115.46 170.26 114.58 171.10 114.55 172.17 Z M 114.52 173.17 L 114.50 174.18 C 114.47 175.24 115.31 176.13 116.38 176.16 C 117.45 176.19 118.33 175.35 118.36 174.28 L 118.39 173.27 C 118.42 172.20 117.57 171.32 116.51 171.29 C 115.44 171.26 114.55 172.10 114.52 173.17 Z M 114.50 174.18 L 114.47 175.19 C 114.44 176.26 115.28 177.15 116.35 177.17 C 117.42 177.20 118.30 176.36 118.33 175.30 L 118.36 174.28 C 118.39 173.21 117.55 172.33 116.48 172.30 C 115.42 172.27 114.53 173.11 114.50 174.18 Z M 114.47 175.19 L 114.44 176.20 C 114.41 177.26 115.25 178.15 116.32 178.18 C 117.39 178.21 118.27 177.37 118.30 176.30 L 118.33 175.30 C 118.36 174.23 117.52 173.34 116.46 173.31 C 115.39 173.28 114.50 174.12 114.47 175.19 Z M 114.45 176.19 L 114.42 177.20 C 114.39 178.26 115.22 179.15 116.29 179.18 C 117.35 179.21 118.24 178.37 118.27 177.31 L 118.30 176.31 C 118.33 175.24 117.49 174.35 116.43 174.32 C 115.36 174.29 114.48 175.13 114.45 176.19 Z M 114.42 177.20 L 114.39 178.20 C 114.36 179.27 115.19 180.15 116.26 180.19 C 117.32 180.22 118.21 179.38 118.24 178.32 L 118.27 177.31 C 118.30 176.25 117.47 175.36 116.40 175.33 C 115.34 175.29 114.45 176.13 114.42 177.20 Z M 114.39 178.20 L 114.36 179.21 C 114.33 180.27 115.16 181.16 116.23 181.19 C 117.29 181.22 118.18 180.39 118.21 179.32 L 118.24 178.32 C 118.27 177.25 117.44 176.36 116.37 176.33 C 115.31 176.30 114.42 177.14 114.39 178.20 Z M 114.36 179.21 L 114.33 180.21 C 114.30 181.27 115.14 182.16 116.20 182.19 C 117.26 182.22 118.15 181.39 118.18 180.33 L 118.21 179.32 C 118.24 178.26 117.41 177.37 116.34 177.34 C 115.28 177.31 114.39 178.14 114.36 179.21 Z M 114.33 180.21 L 114.30 181.21 C 114.27 182.27 115.11 183.16 116.17 183.19 C 117.23 183.22 118.12 182.38 118.15 181.32 L 118.18 180.32 C 118.21 179.26 117.37 178.38 116.31 178.34 C 115.25 178.31 114.36 179.15 114.33 180.21 Z M 114.30 181.21 L 114.28 182.20 C 114.24 183.26 115.08 184.14 116.14 184.18 C 117.20 184.21 118.09 183.37 118.12 182.31 L 118.15 181.32 C 118.18 180.26 117.34 179.37 116.28 179.34 C 115.22 179.31 114.33 180.15 114.30 181.21 Z M 114.28 182.20 L 114.25 183.23 C 114.22 184.29 115.05 185.18 116.11 185.21 C 117.17 185.24 118.06 184.40 118.09 183.34 L 118.12 182.31 C 118.15 181.25 117.31 180.36 116.25 180.33 C 115.19 180.30 114.31 181.14 114.28 182.20 Z M 114.25 183.23 L 114.22 184.27 C 114.19 185.33 115.03 186.21 116.09 186.24 C 117.15 186.27 118.03 185.44 118.06 184.38 L 118.09 183.34 C 118.12 182.28 117.28 181.40 116.22 181.37 C 115.16 181.34 114.28 182.17 114.25 183.23 Z M 114.22 184.27 L 114.19 185.29 C 114.17 186.35 115.00 187.23 116.06 187.26 C 117.12 187.29 118.00 186.46 118.03 185.40 L 118.06 184.38 C 118.09 183.32 117.25 182.44 116.19 182.41 C 115.13 182.38 114.25 183.21 114.22 184.27 Z M 114.20 185.29 L 114.17 186.29 C 114.14 187.35 114.97 188.23 116.03 188.26 C 117.09 188.29 117.97 187.46 118.00 186.40 L 118.03 185.40 C 118.06 184.34 117.22 183.46 116.16 183.43 C 115.11 183.40 114.23 184.23 114.20 185.29 Z M 114.17 186.29 L 114.14 187.27 C 114.11 188.33 114.94 189.21 116.00 189.24 C 117.06 189.27 117.94 188.44 117.97 187.38 L 118.00 186.40 C 118.03 185.34 117.20 184.46 116.14 184.43 C 115.08 184.40 114.20 185.23 114.17 186.29 Z M 114.14 187.27 L 114.12 188.23 C 114.08 189.28 114.91 190.17 115.97 190.20 C 117.03 190.23 117.91 189.40 117.94 188.34 L 117.97 187.38 C 118.00 186.33 117.17 185.45 116.11 185.42 C 115.06 185.38 114.18 186.21 114.14 187.27 Z M 114.12 188.23 L 114.09 189.20 C 114.05 190.25 114.88 191.13 115.94 191.17 C 116.99 191.20 117.87 190.37 117.91 189.32 L 117.94 188.35 C 117.97 187.29 117.14 186.41 116.09 186.38 C 115.03 186.34 114.15 187.17 114.12 188.23 Z M 114.09 189.19 L 114.06 190.21 C 114.02 191.26 114.84 192.15 115.90 192.18 C 116.95 192.22 117.83 191.39 117.87 190.34 L 117.90 189.32 C 117.94 188.27 117.11 187.39 116.06 187.35 C 115.01 187.31 114.13 188.14 114.09 189.19 Z M 114.06 190.21 L 114.02 191.21 C 113.98 192.26 114.80 193.14 115.86 193.18 C 116.91 193.22 117.79 192.40 117.83 191.35 L 117.86 190.35 C 117.90 189.29 117.08 188.41 116.03 188.37 C 114.98 188.33 114.10 189.16 114.06 190.21 Z M 114.02 191.20 L 113.99 192.19 C 113.95 193.24 114.77 194.13 115.81 194.17 C 116.86 194.21 117.75 193.39 117.79 192.34 L 117.83 191.35 C 117.87 190.30 117.05 189.42 116.00 189.38 C 114.95 189.34 114.06 190.15 114.02 191.20 Z M 113.99 192.19 L 113.95 193.18 C 113.91 194.22 114.73 195.11 115.77 195.15 C 116.82 195.19 117.71 194.37 117.75 193.33 L 117.78 192.34 C 117.83 191.29 117.01 190.41 115.96 190.37 C 114.91 190.33 114.03 191.14 113.99 192.19 Z M 113.95 193.18 L 113.91 194.17 C 113.87 195.21 114.69 196.09 115.73 196.14 C 116.78 196.18 117.66 195.36 117.70 194.32 L 117.74 193.33 C 117.79 192.28 116.97 191.40 115.92 191.36 C 114.88 191.31 114.00 192.13 113.95 193.18 Z M 113.92 194.17 L 113.88 195.17 C 113.84 196.21 114.65 197.09 115.69 197.13 C 116.74 197.18 117.62 196.36 117.66 195.32 L 117.70 194.32 C 117.74 193.27 116.93 192.39 115.88 192.35 C 114.84 192.31 113.96 193.12 113.92 194.17 Z M 113.88 195.17 L 113.84 196.18 C 113.80 197.22 114.61 198.10 115.65 198.14 C 116.70 198.18 117.58 197.37 117.62 196.33 L 117.66 195.32 C 117.70 194.27 116.89 193.40 115.84 193.35 C 114.80 193.31 113.92 194.13 113.88 195.17 Z M 113.84 196.18 L 113.80 197.20 C 113.76 198.24 114.57 199.11 115.62 199.15 C 116.66 199.19 117.53 198.38 117.57 197.34 L 117.61 196.33 C 117.65 195.29 116.84 194.41 115.80 194.37 C 114.76 194.33 113.88 195.14 113.84 196.18 Z M 113.81 197.20 L 113.77 198.21 C 113.73 199.24 114.54 200.12 115.58 200.16 C 116.62 200.20 117.49 199.39 117.53 198.35 L 117.57 197.34 C 117.61 196.30 116.80 195.43 115.76 195.39 C 114.72 195.35 113.85 196.16 113.81 197.20 Z M 113.77 198.21 L 113.74 199.20 C 113.70 200.24 114.51 201.11 115.54 201.15 C 116.58 201.19 117.45 200.38 117.49 199.34 L 117.53 198.35 C 117.57 197.31 116.76 196.44 115.72 196.40 C 114.68 196.36 113.81 197.17 113.77 198.21 Z M 113.74 199.20 L 113.70 200.18 C 113.67 201.21 114.48 202.08 115.51 202.12 C 116.55 202.16 117.42 201.35 117.45 200.31 L 117.49 199.34 C 117.53 198.30 116.72 197.44 115.68 197.40 C 114.65 197.36 113.78 198.17 113.74 199.20 Z M 113.71 200.18 L 113.67 201.22 C 113.64 202.25 114.44 203.12 115.48 203.15 C 116.51 203.19 117.38 202.38 117.41 201.35 L 117.45 200.31 C 117.48 199.28 116.68 198.41 115.64 198.37 C 114.61 198.34 113.74 199.15 113.71 200.18 Z M 113.68 201.22 L 113.64 202.24 C 113.61 203.28 114.41 204.14 115.44 204.18 C 116.48 204.21 117.34 203.40 117.37 202.37 L 117.41 201.35 C 117.44 200.32 116.64 199.45 115.61 199.42 C 114.57 199.38 113.71 200.19 113.68 201.22 Z M 113.64 202.24 L 113.61 203.24 C 113.57 204.27 114.38 205.13 115.41 205.17 C 116.44 205.20 117.30 204.40 117.34 203.37 L 117.37 202.37 C 117.41 201.34 116.60 200.48 115.57 200.44 C 114.54 200.41 113.68 201.21 113.64 202.24 Z M 113.61 203.23 L 113.58 204.21 C 113.54 205.24 114.34 206.10 115.37 206.14 C 116.39 206.18 117.26 205.38 117.30 204.35 L 117.33 203.38 C 117.37 202.35 116.57 201.48 115.54 201.45 C 114.52 201.41 113.65 202.21 113.61 203.23 Z M 113.58 204.20 L 113.54 205.17 C 113.50 206.19 114.29 207.06 115.32 207.10 C 116.34 207.14 117.21 206.35 117.25 205.32 L 117.29 204.36 C 117.33 203.33 116.54 202.47 115.51 202.43 C 114.49 202.38 113.62 203.18 113.58 204.20 Z M 113.55 205.15 L 113.50 206.17 C 113.45 207.19 114.23 208.05 115.26 208.10 C 116.28 208.15 117.15 207.37 117.20 206.34 L 117.24 205.33 C 117.29 204.31 116.51 203.44 115.48 203.40 C 114.46 203.35 113.60 204.13 113.55 205.15 Z M 113.50 206.15 L 113.45 207.17 C 113.39 208.19 114.17 209.06 115.19 209.12 C 116.20 209.17 117.07 208.40 117.13 207.38 L 117.19 206.36 C 117.24 205.34 116.46 204.47 115.45 204.41 C 114.43 204.36 113.56 205.14 113.50 206.15 Z M 113.46 207.16 L 113.39 208.17 C 113.33 209.18 114.10 210.05 115.11 210.12 C 116.13 210.18 117.00 209.41 117.06 208.40 L 117.12 207.39 C 117.19 206.38 116.42 205.51 115.40 205.44 C 114.39 205.38 113.52 206.15 113.46 207.16 Z M 113.40 208.16 L 113.34 209.14 C 113.27 210.15 114.03 211.02 115.04 211.09 C 116.04 211.16 116.92 210.40 116.98 209.39 L 117.05 208.41 C 117.12 207.40 116.36 206.53 115.35 206.46 C 114.34 206.39 113.47 207.15 113.40 208.16 Z M 113.34 209.13 L 113.27 210.09 C 113.20 211.09 113.95 211.97 114.95 212.04 C 115.96 212.12 116.83 211.36 116.90 210.36 L 116.98 209.40 C 117.05 208.40 116.30 207.53 115.30 207.45 C 114.29 207.38 113.42 208.13 113.34 209.13 Z M 113.28 210.08 L 113.19 211.15 C 113.11 212.15 113.86 213.02 114.85 213.10 C 115.85 213.18 116.73 212.44 116.81 211.44 L 116.89 210.37 C 116.98 209.37 116.23 208.50 115.24 208.42 C 114.24 208.34 113.36 209.08 113.28 210.08 Z M 113.20 211.14 L 113.11 212.16 C 113.03 213.15 113.76 214.03 114.75 214.12 C 115.74 214.21 116.62 213.47 116.71 212.48 L 116.80 211.46 C 116.89 210.46 116.15 209.59 115.16 209.50 C 114.17 209.41 113.29 210.14 113.20 211.14 Z M 113.12 212.15 L 113.03 213.12 C 112.94 214.11 113.66 214.99 114.65 215.08 C 115.63 215.18 116.51 214.45 116.60 213.47 L 116.70 212.49 C 116.79 211.51 116.07 210.63 115.08 210.53 C 114.09 210.44 113.22 211.16 113.12 212.15 Z M 113.04 213.11 L 112.95 214.03 C 112.85 215.02 113.56 215.89 114.54 215.99 C 115.52 216.09 116.40 215.38 116.50 214.40 L 116.59 213.48 C 116.69 212.50 115.98 211.62 115.00 211.52 C 114.02 211.42 113.14 212.13 113.04 213.11 Z M 112.96 214.02 L 112.84 215.09 C 112.73 216.06 113.44 216.94 114.41 217.04 C 115.39 217.15 116.26 216.45 116.37 215.47 L 116.49 214.41 C 116.60 213.44 115.89 212.56 114.92 212.45 C 113.94 212.34 113.06 213.05 112.96 214.02 Z M 112.85 215.07 L 112.73 216.08 C 112.62 217.04 113.31 217.92 114.28 218.04 C 115.25 218.15 116.12 217.46 116.24 216.49 L 116.36 215.49 C 116.47 214.52 115.78 213.64 114.81 213.53 C 113.85 213.41 112.97 214.10 112.85 215.07 Z M 112.75 216.06 L 112.63 217.00 C 112.51 217.96 113.19 218.83 114.15 218.96 C 115.11 219.08 115.98 218.40 116.10 217.44 L 116.22 216.51 C 116.35 215.55 115.67 214.67 114.71 214.55 C 113.75 214.42 112.87 215.10 112.75 216.06 Z M 112.65 216.98 L 112.51 217.97 C 112.38 218.92 113.04 219.80 113.99 219.93 C 114.95 220.06 115.82 219.40 115.95 218.45 L 116.09 217.45 C 116.22 216.50 115.55 215.63 114.60 215.50 C 113.65 215.37 112.78 216.03 112.65 216.98 Z M 112.53 217.96 L 112.38 218.94 C 112.24 219.89 112.89 220.76 113.83 220.90 C 114.77 221.04 115.65 220.39 115.79 219.45 L 115.94 218.46 C 116.08 217.52 115.43 216.65 114.48 216.51 C 113.54 216.37 112.67 217.02 112.53 217.96 Z M 112.40 218.93 L 112.25 219.88 C 112.10 220.81 112.73 221.69 113.66 221.84 C 114.59 221.99 115.47 221.36 115.62 220.42 L 115.77 219.47 C 115.92 218.54 115.29 217.66 114.35 217.51 C 113.42 217.36 112.55 218.00 112.40 218.93 Z M 112.27 219.87 L 112.09 220.90 C 111.93 221.82 112.55 222.70 113.47 222.85 C 114.39 223.01 115.26 222.39 115.42 221.47 L 115.60 220.44 C 115.75 219.52 115.14 218.65 114.22 218.49 C 113.30 218.33 112.42 218.95 112.27 219.87 Z M 112.11 220.89 L 111.93 221.87 C 111.77 222.78 112.38 223.65 113.29 223.81 C 114.20 223.97 115.06 223.36 115.23 222.45 L 115.40 221.48 C 115.56 220.57 114.96 219.70 114.05 219.54 C 113.14 219.38 112.27 219.98 112.11 220.89 Z M 111.95 221.87 L 111.78 222.81 C 111.62 223.71 112.21 224.58 113.11 224.74 C 114.01 224.90 114.87 224.31 115.04 223.41 L 115.21 222.46 C 115.37 221.56 114.78 220.70 113.88 220.53 C 112.98 220.37 112.12 220.97 111.95 221.87 Z M 111.80 222.81 L 111.62 223.77 C 111.45 224.66 112.04 225.51 112.93 225.68 C 113.82 225.84 114.68 225.26 114.84 224.36 L 115.02 223.41 C 115.19 222.52 114.60 221.66 113.71 221.50 C 112.82 221.33 111.96 221.92 111.80 222.81 Z M 111.64 223.76 L 111.45 224.75 C 111.28 225.63 111.85 226.48 112.74 226.65 C 113.62 226.82 114.47 226.24 114.64 225.36 L 114.83 224.37 C 115.00 223.49 114.42 222.64 113.54 222.47 C 112.66 222.30 111.80 222.88 111.64 223.76 Z M 111.46 224.76 L 111.27 225.77 C 111.11 226.64 111.68 227.48 112.55 227.65 C 113.42 227.81 114.26 227.24 114.43 226.37 L 114.62 225.35 C 114.78 224.48 114.21 223.64 113.34 223.48 C 112.47 223.31 111.63 223.89 111.46 224.76 Z M 111.29 225.80 L 111.11 226.82 C 110.97 227.68 111.55 228.50 112.41 228.65 C 113.28 228.79 114.10 228.21 114.24 227.35 L 114.41 226.33 C 114.56 225.47 113.98 224.65 113.12 224.50 C 112.25 224.36 111.43 224.94 111.29 225.80 Z M 111.12 226.95 L 111.03 228.02 C 110.95 228.88 111.59 229.64 112.45 229.71 C 113.32 229.79 114.07 229.15 114.15 228.29 L 114.24 227.22 C 114.31 226.35 113.67 225.59 112.81 225.52 C 111.95 225.45 111.19 226.09 111.12 226.95 Z M 113.96 228.85 L 114.19 228.40 C 114.57 227.65 114.27 226.72 113.51 226.34 C 112.75 225.95 111.82 226.26 111.44 227.01 L 111.21 227.46 C 110.83 228.22 111.13 229.14 111.89 229.53 C 112.65 229.91 113.58 229.61 113.96 228.85 Z M 114.25 228.14 L 114.60 226.99 C 114.84 226.20 114.39 225.36 113.60 225.12 C 112.81 224.88 111.97 225.33 111.73 226.12 L 111.38 227.27 C 111.14 228.06 111.58 228.90 112.38 229.14 C 113.17 229.38 114.01 228.94 114.25 228.14 Z M 114.58 226.95 L 114.86 225.93 C 115.08 225.14 114.62 224.34 113.84 224.12 C 113.05 223.90 112.24 224.36 112.03 225.15 L 111.75 226.17 C 111.53 226.95 111.99 227.76 112.77 227.97 C 113.55 228.19 114.36 227.73 114.58 226.95 Z M 114.85 225.91 L 115.10 224.95 C 115.30 224.18 114.84 223.38 114.07 223.18 C 113.29 222.98 112.50 223.44 112.29 224.21 L 112.04 225.17 C 111.84 225.94 112.30 226.73 113.07 226.94 C 113.85 227.14 114.64 226.68 114.85 225.91 Z M 115.09 224.95 L 115.34 224.01 C 115.54 223.24 115.08 222.45 114.31 222.25 C 113.54 222.05 112.75 222.51 112.55 223.28 L 112.30 224.22 C 112.10 224.99 112.56 225.77 113.33 225.98 C 114.10 226.18 114.89 225.72 115.09 224.95 Z M 115.33 224.02 L 115.59 223.06 C 115.80 222.29 115.35 221.51 114.58 221.30 C 113.82 221.09 113.03 221.54 112.82 222.31 L 112.56 223.27 C 112.35 224.03 112.80 224.82 113.57 225.03 C 114.33 225.24 115.12 224.78 115.33 224.02 Z M 115.58 223.07 L 115.86 222.09 C 116.08 221.33 115.63 220.54 114.87 220.32 C 114.11 220.11 113.32 220.55 113.10 221.31 L 112.83 222.29 C 112.61 223.05 113.05 223.85 113.82 224.06 C 114.58 224.28 115.37 223.83 115.58 223.07 Z M 115.85 222.11 L 116.13 221.16 C 116.36 220.41 115.93 219.61 115.17 219.39 C 114.41 219.16 113.61 219.59 113.39 220.35 L 113.11 221.29 C 112.89 222.05 113.32 222.85 114.08 223.07 C 114.83 223.30 115.63 222.86 115.85 222.11 Z M 116.13 221.18 L 116.43 220.22 C 116.66 219.46 116.24 218.66 115.49 218.43 C 114.74 218.19 113.93 218.61 113.70 219.37 L 113.40 220.33 C 113.16 221.09 113.58 221.89 114.34 222.12 C 115.09 222.36 115.89 221.94 116.13 221.18 Z M 116.42 220.24 L 116.73 219.29 C 116.98 218.54 116.57 217.73 115.82 217.49 C 115.08 217.24 114.27 217.64 114.02 218.39 L 113.71 219.34 C 113.46 220.09 113.87 220.90 114.62 221.15 C 115.36 221.39 116.17 220.99 116.42 220.24 Z M 116.73 219.31 L 117.05 218.37 C 117.31 217.62 116.91 216.81 116.17 216.55 C 115.42 216.30 114.61 216.69 114.35 217.44 L 114.03 218.38 C 113.77 219.12 114.17 219.93 114.91 220.19 C 115.66 220.45 116.47 220.05 116.73 219.31 Z M 117.05 218.38 L 117.38 217.42 C 117.65 216.68 117.26 215.87 116.51 215.60 C 115.77 215.34 114.96 215.73 114.69 216.47 L 114.36 217.43 C 114.09 218.17 114.48 218.98 115.23 219.25 C 115.97 219.51 116.78 219.12 117.05 218.38 Z M 117.38 217.43 L 117.72 216.49 C 117.98 215.75 117.59 214.93 116.85 214.67 C 116.11 214.40 115.29 214.79 115.03 215.53 L 114.70 216.47 C 114.43 217.21 114.82 218.03 115.56 218.29 C 116.30 218.55 117.12 218.17 117.38 217.43 Z M 117.72 216.49 L 118.05 215.55 C 118.32 214.80 117.93 213.99 117.19 213.72 C 116.45 213.46 115.63 213.85 115.37 214.59 L 115.03 215.53 C 114.77 216.27 115.15 217.09 115.89 217.35 C 116.64 217.62 117.45 217.23 117.72 216.49 Z M 118.05 215.55 L 118.39 214.60 C 118.65 213.86 118.27 213.04 117.53 212.78 C 116.79 212.51 115.97 212.90 115.71 213.64 L 115.37 214.59 C 115.10 215.33 115.49 216.14 116.23 216.41 C 116.97 216.67 117.79 216.29 118.05 215.55 Z M 118.39 214.60 L 118.44 214.46 C 118.70 213.72 118.32 212.90 117.58 212.64 C 116.84 212.37 116.02 212.76 115.76 213.50 L 115.71 213.64 C 115.44 214.38 115.83 215.20 116.57 215.46 C 117.31 215.72 118.13 215.34 118.39 214.60 Z"
      fill="black"
      fill-rule="nonzero" /><path d="M 191.03 97.07 L 190.83 96.11 C 190.67 95.29 189.88 94.76 189.06 94.93 C 188.24 95.09 187.71 95.89 187.88 96.70 L 188.07 97.66 C 188.23 98.48 189.03 99.01 189.85 98.85 C 190.66 98.68 191.19 97.89 191.03 97.07 Z M 190.68 95.68 L 190.20 94.79 C 189.80 94.06 188.88 93.79 188.14 94.19 C 187.41 94.59 187.14 95.51 187.54 96.25 L 188.03 97.13 C 188.43 97.87 189.35 98.14 190.08 97.73 C 190.82 97.33 191.09 96.41 190.68 95.68 Z M 189.79 94.29 L 188.98 93.69 C 188.30 93.18 187.34 93.33 186.84 94.01 C 186.33 94.69 186.47 95.65 187.15 96.15 L 187.95 96.75 C 188.63 97.26 189.59 97.12 190.10 96.44 C 190.61 95.76 190.47 94.79 189.79 94.29 Z M 188.05 93.36 L 187.18 93.37 C 186.32 93.38 185.63 94.08 185.64 94.95 C 185.65 95.81 186.35 96.51 187.22 96.50 L 188.08 96.49 C 188.95 96.48 189.64 95.77 189.63 94.91 C 189.62 94.04 188.92 93.35 188.05 93.36 Z M 186.28 93.63 L 185.45 94.22 C 184.73 94.73 184.56 95.72 185.06 96.44 C 185.57 97.16 186.56 97.33 187.28 96.82 L 188.12 96.23 C 188.84 95.72 189.01 94.73 188.50 94.01 C 187.99 93.30 187.00 93.13 186.28 93.63 Z M 185.09 94.54 L 184.46 95.35 C 183.92 96.05 184.05 97.06 184.75 97.60 C 185.45 98.15 186.46 98.02 187.01 97.32 L 187.64 96.51 C 188.18 95.81 188.05 94.80 187.35 94.25 C 186.65 93.71 185.64 93.83 185.09 94.54 Z M 184.34 95.52 L 183.83 96.40 C 183.38 97.17 183.63 98.16 184.40 98.61 C 185.17 99.06 186.16 98.80 186.61 98.03 L 187.13 97.15 C 187.58 96.38 187.32 95.39 186.55 94.94 C 185.78 94.49 184.79 94.75 184.34 95.52 Z M 183.78 96.48 L 183.32 97.38 C 182.91 98.17 183.23 99.15 184.02 99.55 C 184.81 99.96 185.79 99.65 186.20 98.85 L 186.66 97.95 C 187.06 97.16 186.75 96.18 185.96 95.78 C 185.16 95.37 184.19 95.68 183.78 96.48 Z M 183.30 97.41 L 182.85 98.33 C 182.46 99.13 182.80 100.10 183.60 100.49 C 184.40 100.88 185.37 100.55 185.76 99.75 L 186.21 98.82 C 186.60 98.02 186.27 97.05 185.47 96.66 C 184.66 96.27 183.69 96.60 183.30 97.41 Z M 182.84 98.36 L 182.43 99.24 C 182.05 100.05 182.41 101.01 183.22 101.39 C 184.03 101.77 184.99 101.41 185.37 100.60 L 185.78 99.72 C 186.15 98.90 185.80 97.94 184.99 97.57 C 184.18 97.19 183.21 97.54 182.84 98.36 Z M 182.41 99.27 L 182.03 100.15 C 181.67 100.97 182.05 101.93 182.87 102.29 C 183.69 102.65 184.65 102.27 185.00 101.45 L 185.39 100.57 C 185.75 99.75 185.37 98.79 184.55 98.43 C 183.73 98.07 182.77 98.45 182.41 99.27 Z M 182.01 100.17 L 181.63 101.08 C 181.28 101.91 181.67 102.87 182.50 103.22 C 183.33 103.57 184.29 103.18 184.63 102.35 L 185.02 101.43 C 185.37 100.60 184.98 99.64 184.15 99.30 C 183.32 98.95 182.36 99.34 182.01 100.17 Z M 181.62 101.08 L 181.22 102.05 C 180.87 102.88 181.26 103.84 182.10 104.19 C 182.93 104.54 183.89 104.15 184.24 103.31 L 184.64 102.35 C 184.99 101.51 184.60 100.55 183.76 100.20 C 182.93 99.85 181.97 100.25 181.62 101.08 Z M 181.21 102.04 L 180.84 102.92 C 180.48 103.76 180.87 104.73 181.71 105.08 C 182.55 105.44 183.52 105.05 183.87 104.21 L 184.25 103.32 C 184.60 102.48 184.21 101.51 183.37 101.16 C 182.53 100.80 181.57 101.20 181.21 102.04 Z M 180.83 102.91 L 180.44 103.83 C 180.07 104.67 180.46 105.65 181.30 106.01 C 182.15 106.37 183.12 105.98 183.48 105.14 L 183.88 104.22 C 184.24 103.38 183.85 102.40 183.01 102.04 C 182.17 101.68 181.19 102.07 180.83 102.91 Z M 180.43 103.82 L 180.02 104.77 C 179.65 105.61 180.03 106.59 180.88 106.96 C 181.72 107.33 182.70 106.94 183.07 106.10 L 183.49 105.15 C 183.85 104.31 183.47 103.32 182.63 102.96 C 181.78 102.59 180.80 102.97 180.43 103.82 Z M 180.01 104.76 L 179.61 105.66 C 179.24 106.51 179.62 107.50 180.47 107.87 C 181.31 108.24 182.30 107.86 182.68 107.02 L 183.08 106.11 C 183.45 105.27 183.07 104.28 182.22 103.90 C 181.38 103.53 180.39 103.91 180.01 104.76 Z M 179.61 105.64 L 179.19 106.56 C 178.81 107.41 179.19 108.41 180.04 108.79 C 180.88 109.18 181.88 108.80 182.27 107.95 L 182.68 107.03 C 183.06 106.18 182.69 105.18 181.84 104.80 C 180.99 104.42 179.99 104.80 179.61 105.64 Z M 179.19 106.54 L 178.77 107.46 C 178.37 108.31 178.74 109.31 179.59 109.71 C 180.44 110.10 181.45 109.73 181.84 108.88 L 182.27 107.97 C 182.66 107.12 182.29 106.11 181.44 105.72 C 180.59 105.32 179.59 105.69 179.19 106.54 Z M 178.77 107.43 L 178.33 108.34 C 177.93 109.19 178.29 110.21 179.14 110.61 C 179.99 111.02 181.00 110.66 181.41 109.81 L 181.84 108.91 C 182.25 108.06 181.89 107.04 181.04 106.63 C 180.19 106.23 179.18 106.59 178.77 107.43 Z M 178.34 108.32 L 177.90 109.21 C 177.48 110.06 177.83 111.09 178.67 111.50 C 179.52 111.92 180.55 111.58 180.97 110.73 L 181.41 109.83 C 181.83 108.99 181.48 107.96 180.63 107.54 C 179.78 107.12 178.76 107.47 178.34 108.32 Z M 177.90 109.19 L 177.45 110.08 C 177.02 110.93 177.36 111.96 178.21 112.39 C 179.05 112.82 180.09 112.48 180.52 111.64 L 180.97 110.75 C 181.39 109.90 181.05 108.86 180.21 108.44 C 179.36 108.01 178.33 108.35 177.90 109.19 Z M 177.45 110.07 L 177.00 110.94 C 176.56 111.79 176.89 112.83 177.74 113.27 C 178.59 113.70 179.63 113.37 180.07 112.52 L 180.52 111.65 C 180.95 110.80 180.62 109.76 179.77 109.32 C 178.92 108.89 177.88 109.22 177.45 110.07 Z M 177.00 110.92 L 176.54 111.80 C 176.09 112.65 176.42 113.69 177.27 114.14 C 178.12 114.58 179.16 114.26 179.61 113.41 L 180.07 112.54 C 180.51 111.69 180.19 110.64 179.34 110.20 C 178.49 109.75 177.44 110.08 177.00 110.92 Z M 176.54 111.78 L 176.06 112.67 C 175.61 113.52 175.92 114.57 176.77 115.03 C 177.62 115.48 178.67 115.17 179.13 114.32 L 179.61 113.43 C 180.06 112.58 179.75 111.53 178.90 111.07 C 178.05 110.61 177.00 110.93 176.54 111.78 Z M 176.07 112.65 L 175.58 113.53 C 175.11 114.37 175.41 115.44 176.26 115.90 C 177.10 116.37 178.17 116.07 178.64 115.22 L 179.12 114.34 C 179.59 113.50 179.29 112.43 178.44 111.96 C 177.60 111.50 176.53 111.80 176.07 112.65 Z M 175.58 113.51 L 175.10 114.35 C 174.62 115.19 174.92 116.26 175.76 116.74 C 176.60 117.22 177.67 116.93 178.15 116.09 L 178.63 115.24 C 179.11 114.40 178.82 113.33 177.97 112.85 C 177.13 112.37 176.06 112.67 175.58 113.51 Z M 175.10 114.34 L 174.60 115.20 C 174.12 116.04 174.41 117.12 175.25 117.61 C 176.09 118.09 177.16 117.80 177.65 116.96 L 178.15 116.10 C 178.64 115.26 178.35 114.18 177.51 113.70 C 176.67 113.21 175.59 113.50 175.10 114.34 Z M 174.60 115.19 L 174.09 116.08 C 173.59 116.93 173.88 118.01 174.72 118.50 C 175.56 118.99 176.64 118.70 177.13 117.86 L 177.65 116.97 C 178.14 116.13 177.86 115.05 177.02 114.56 C 176.17 114.07 175.09 114.35 174.60 115.19 Z M 174.08 116.08 L 173.58 116.93 C 173.09 117.78 173.38 118.86 174.22 119.35 C 175.06 119.84 176.15 119.56 176.64 118.72 L 177.14 117.86 C 177.63 117.02 177.34 115.94 176.50 115.44 C 175.66 114.95 174.57 115.24 174.08 116.08 Z M 173.58 116.93 L 173.09 117.77 C 172.59 118.61 172.88 119.70 173.72 120.20 C 174.57 120.69 175.66 120.41 176.15 119.56 L 176.64 118.72 C 177.14 117.87 176.85 116.79 176.01 116.29 C 175.16 115.80 174.08 116.08 173.58 116.93 Z M 173.09 117.76 L 172.58 118.62 C 172.08 119.47 172.36 120.56 173.21 121.06 C 174.05 121.56 175.14 121.28 175.64 120.43 L 176.15 119.57 C 176.65 118.72 176.37 117.63 175.52 117.13 C 174.68 116.63 173.59 116.92 173.09 117.76 Z M 172.58 118.61 L 172.05 119.50 C 171.55 120.34 171.82 121.44 172.67 121.94 C 173.51 122.45 174.61 122.17 175.11 121.33 L 175.64 120.44 C 176.15 119.60 175.87 118.50 175.03 118.00 C 174.18 117.49 173.08 117.77 172.58 118.61 Z M 172.05 119.48 L 171.54 120.33 C 171.03 121.17 171.30 122.27 172.14 122.78 C 172.99 123.30 174.08 123.03 174.60 122.18 L 175.11 121.34 C 175.62 120.50 175.35 119.40 174.51 118.88 C 173.67 118.37 172.57 118.64 172.05 119.48 Z M 171.55 120.32 L 171.05 121.13 C 170.53 121.97 170.79 123.07 171.63 123.59 C 172.48 124.11 173.58 123.84 174.10 123.00 L 174.59 122.20 C 175.11 121.35 174.85 120.25 174.01 119.73 C 173.17 119.21 172.06 119.48 171.55 120.32 Z M 171.05 121.12 L 170.53 121.96 C 170.01 122.80 170.27 123.90 171.11 124.42 C 171.95 124.94 173.06 124.68 173.58 123.84 L 174.10 123.01 C 174.62 122.17 174.36 121.06 173.52 120.54 C 172.67 120.02 171.57 120.28 171.05 121.12 Z M 170.53 121.95 L 169.99 122.82 C 169.47 123.66 169.73 124.77 170.57 125.29 C 171.41 125.81 172.52 125.55 173.04 124.71 L 173.58 123.84 C 174.10 123.00 173.84 121.90 173.00 121.37 C 172.16 120.85 171.05 121.11 170.53 121.95 Z M 169.99 122.82 L 169.43 123.73 C 168.91 124.57 169.17 125.68 170.02 126.20 C 170.86 126.72 171.96 126.46 172.49 125.62 L 173.05 124.71 C 173.57 123.87 173.30 122.76 172.46 122.24 C 171.62 121.72 170.51 121.98 169.99 122.82 Z M 169.43 123.73 L 168.91 124.58 C 168.39 125.43 168.66 126.53 169.50 127.05 C 170.35 127.57 171.45 127.30 171.97 126.46 L 172.49 125.61 C 173.01 124.76 172.74 123.66 171.90 123.14 C 171.05 122.62 169.94 122.89 169.43 123.73 Z M 168.90 124.58 L 168.39 125.42 C 167.87 126.27 168.14 127.38 168.99 127.90 C 169.84 128.41 170.94 128.15 171.46 127.30 L 171.98 126.46 C 172.49 125.61 172.23 124.50 171.38 123.98 C 170.53 123.46 169.42 123.73 168.90 124.58 Z M 168.39 125.42 L 167.86 126.28 C 167.34 127.13 167.61 128.24 168.46 128.76 C 169.31 129.28 170.42 129.01 170.94 128.16 L 171.46 127.30 C 171.98 126.45 171.71 125.34 170.87 124.82 C 170.02 124.30 168.91 124.57 168.39 125.42 Z M 167.86 126.28 L 167.33 127.14 C 166.81 127.99 167.07 129.10 167.92 129.62 C 168.77 130.15 169.88 129.88 170.41 129.03 L 170.94 128.17 C 171.46 127.32 171.20 126.20 170.35 125.68 C 169.50 125.16 168.39 125.43 167.86 126.28 Z M 167.33 127.13 L 166.80 127.99 C 166.27 128.84 166.53 129.96 167.38 130.48 C 168.23 131.01 169.34 130.75 169.87 129.90 L 170.40 129.04 C 170.93 128.19 170.67 127.08 169.82 126.55 C 168.97 126.02 167.86 126.28 167.33 127.13 Z M 166.80 127.98 L 166.26 128.84 C 165.73 129.68 165.98 130.80 166.83 131.33 C 167.67 131.87 168.79 131.62 169.32 130.77 L 169.86 129.92 C 170.40 129.07 170.14 127.95 169.30 127.42 C 168.45 126.88 167.34 127.14 166.80 127.98 Z M 166.27 128.82 L 165.72 129.68 C 165.18 130.52 165.42 131.64 166.26 132.18 C 167.10 132.72 168.22 132.48 168.76 131.64 L 169.31 130.79 C 169.86 129.95 169.61 128.82 168.77 128.28 C 167.93 127.74 166.81 127.98 166.27 128.82 Z M 165.73 129.66 L 165.18 130.50 C 164.63 131.33 164.85 132.45 165.69 133.00 C 166.52 133.56 167.64 133.33 168.20 132.49 L 168.75 131.66 C 169.30 130.82 169.07 129.70 168.24 129.15 C 167.41 128.60 166.28 128.83 165.73 129.66 Z M 165.19 130.48 L 164.63 131.30 C 164.07 132.13 164.28 133.25 165.11 133.81 C 165.94 134.37 167.06 134.16 167.62 133.33 L 168.18 132.51 C 168.74 131.69 168.53 130.56 167.70 130.00 C 166.88 129.44 165.75 129.65 165.19 130.48 Z M 164.65 131.28 L 164.08 132.09 C 163.51 132.91 163.71 134.03 164.52 134.61 C 165.34 135.18 166.47 134.98 167.04 134.16 L 167.61 133.35 C 168.18 132.54 167.98 131.41 167.17 130.84 C 166.35 130.26 165.22 130.46 164.65 131.28 Z M 164.10 132.07 L 163.52 132.87 C 162.93 133.68 163.11 134.81 163.92 135.39 C 164.73 135.98 165.86 135.80 166.45 134.99 L 167.03 134.18 C 167.61 133.38 167.43 132.25 166.62 131.66 C 165.81 131.08 164.68 131.26 164.10 132.07 Z M 163.53 132.85 L 162.94 133.65 C 162.34 134.45 162.51 135.58 163.31 136.18 C 164.11 136.77 165.24 136.61 165.84 135.81 L 166.43 135.01 C 167.03 134.21 166.86 133.08 166.06 132.48 C 165.26 131.88 164.13 132.05 163.53 132.85 Z M 162.95 133.63 L 162.34 134.42 C 161.74 135.21 161.89 136.35 162.68 136.96 C 163.47 137.56 164.60 137.41 165.21 136.62 L 165.82 135.83 C 166.43 135.04 166.28 133.90 165.49 133.29 C 164.69 132.69 163.56 132.84 162.95 133.63 Z M 162.36 134.40 L 161.74 135.19 C 161.12 135.97 161.25 137.11 162.04 137.73 C 162.82 138.35 163.96 138.21 164.58 137.43 L 165.20 136.64 C 165.82 135.86 165.68 134.72 164.90 134.10 C 164.11 133.48 162.98 133.62 162.36 134.40 Z M 161.75 135.17 L 161.12 135.95 C 160.49 136.73 160.62 137.87 161.39 138.50 C 162.17 139.12 163.31 139.00 163.93 138.22 L 164.56 137.44 C 165.19 136.67 165.07 135.53 164.29 134.90 C 163.51 134.27 162.38 134.40 161.75 135.17 Z M 161.13 135.94 L 160.50 136.71 C 159.86 137.48 159.97 138.62 160.74 139.26 C 161.51 139.89 162.65 139.78 163.29 139.01 L 163.92 138.24 C 164.56 137.47 164.45 136.33 163.68 135.69 C 162.91 135.06 161.77 135.17 161.13 135.94 Z M 160.51 136.70 L 159.86 137.47 C 159.22 138.23 159.32 139.37 160.08 140.01 C 160.85 140.66 161.99 140.56 162.63 139.79 L 163.28 139.02 C 163.92 138.26 163.82 137.12 163.05 136.48 C 162.29 135.84 161.15 135.93 160.51 136.70 Z M 159.87 137.46 L 159.22 138.22 C 158.57 138.98 158.66 140.12 159.42 140.77 C 160.18 141.42 161.32 141.33 161.97 140.57 L 162.62 139.80 C 163.27 139.04 163.18 137.90 162.42 137.26 C 161.66 136.61 160.52 136.70 159.87 137.46 Z M 159.23 138.21 L 158.57 138.97 C 157.92 139.72 158.00 140.86 158.76 141.51 C 159.51 142.17 160.65 142.09 161.30 141.33 L 161.96 140.58 C 162.61 139.82 162.53 138.68 161.77 138.03 C 161.02 137.38 159.88 137.46 159.23 138.21 Z M 158.58 138.96 L 157.92 139.71 C 157.27 140.46 157.34 141.60 158.09 142.26 C 158.84 142.91 159.98 142.84 160.64 142.09 L 161.29 141.34 C 161.95 140.59 161.87 139.45 161.12 138.79 C 160.38 138.14 159.24 138.21 158.58 138.96 Z M 157.93 139.71 L 157.27 140.46 C 156.61 141.20 156.69 142.34 157.43 143.00 C 158.18 143.66 159.32 143.58 159.97 142.84 L 160.63 142.09 C 161.29 141.34 161.22 140.21 160.47 139.55 C 159.72 138.89 158.59 138.96 157.93 139.71 Z M 157.27 140.46 L 156.62 141.20 C 155.96 141.95 156.03 143.08 156.77 143.74 C 157.52 144.40 158.65 144.33 159.31 143.58 L 159.97 142.84 C 160.63 142.09 160.56 140.96 159.81 140.30 C 159.07 139.64 157.93 139.71 157.27 140.46 Z M 156.62 141.21 L 155.95 141.96 C 155.30 142.70 155.37 143.84 156.11 144.49 C 156.86 145.15 157.99 145.08 158.65 144.33 L 159.31 143.58 C 159.97 142.84 159.90 141.70 159.15 141.05 C 158.41 140.39 157.27 140.46 156.62 141.21 Z M 155.95 141.96 L 155.29 142.71 C 154.64 143.46 154.71 144.59 155.46 145.24 C 156.20 145.90 157.34 145.82 157.99 145.08 L 158.65 144.33 C 159.30 143.58 159.23 142.45 158.49 141.80 C 157.74 141.14 156.61 141.22 155.95 141.96 Z M 155.29 142.72 L 154.63 143.47 C 153.98 144.22 154.06 145.35 154.81 146.00 C 155.56 146.65 156.69 146.57 157.34 145.83 L 157.99 145.07 C 158.64 144.33 158.56 143.19 157.82 142.54 C 157.07 141.89 155.94 141.97 155.29 142.72 Z M 154.63 143.48 L 153.98 144.24 C 153.33 144.99 153.42 146.12 154.17 146.77 C 154.92 147.41 156.05 147.32 156.69 146.57 L 157.34 145.82 C 157.99 145.07 157.90 143.94 157.15 143.29 C 156.40 142.65 155.27 142.74 154.63 143.48 Z M 153.97 144.26 L 153.32 145.02 C 152.69 145.77 152.78 146.90 153.54 147.54 C 154.29 148.17 155.42 148.08 156.06 147.32 L 156.70 146.56 C 157.34 145.81 157.24 144.68 156.49 144.04 C 155.73 143.41 154.61 143.50 153.97 144.26 Z M 153.32 145.03 L 152.69 145.78 C 152.07 146.54 152.17 147.67 152.93 148.30 C 153.69 148.92 154.82 148.82 155.44 148.06 L 156.07 147.31 C 156.69 146.55 156.59 145.43 155.83 144.80 C 155.07 144.17 153.94 144.27 153.32 145.03 Z M 152.69 145.80 L 152.07 146.56 C 151.45 147.33 151.57 148.45 152.33 149.07 C 153.10 149.69 154.22 149.57 154.84 148.80 L 155.45 148.04 C 156.07 147.28 155.96 146.16 155.19 145.54 C 154.43 144.92 153.30 145.04 152.69 145.80 Z M 152.06 146.58 L 151.44 147.35 C 150.83 148.12 150.96 149.24 151.73 149.85 C 152.50 150.46 153.62 150.33 154.23 149.56 L 154.85 148.79 C 155.46 148.02 155.33 146.90 154.56 146.29 C 153.79 145.68 152.67 145.81 152.06 146.58 Z M 151.43 147.37 L 150.82 148.17 C 150.22 148.94 150.36 150.06 151.13 150.66 C 151.91 151.26 153.02 151.12 153.62 150.34 L 154.24 149.55 C 154.84 148.77 154.70 147.66 153.93 147.06 C 153.15 146.46 152.04 146.60 151.43 147.37 Z M 150.81 148.18 L 150.18 149.01 C 149.59 149.79 149.74 150.90 150.52 151.49 C 151.30 152.08 152.42 151.93 153.01 151.15 L 153.63 150.33 C 154.22 149.55 154.07 148.44 153.29 147.84 C 152.51 147.25 151.40 147.40 150.81 148.18 Z M 150.18 149.02 L 149.57 149.83 C 148.99 150.62 149.15 151.73 149.94 152.31 C 150.72 152.89 151.83 152.73 152.41 151.94 L 153.02 151.13 C 153.60 150.35 153.43 149.24 152.65 148.66 C 151.87 148.08 150.76 148.24 150.18 149.02 Z M 149.57 149.85 L 148.97 150.66 C 148.40 151.45 148.57 152.55 149.36 153.13 C 150.14 153.70 151.25 153.53 151.82 152.74 L 152.42 151.93 C 152.99 151.14 152.82 150.04 152.03 149.46 C 151.25 148.89 150.14 149.06 149.57 149.85 Z M 148.97 150.67 L 148.38 151.50 C 147.81 152.29 147.99 153.39 148.77 153.96 C 149.56 154.52 150.66 154.34 151.23 153.56 L 151.83 152.73 C 152.39 151.94 152.22 150.84 151.43 150.28 C 150.64 149.71 149.54 149.89 148.97 150.67 Z M 148.37 151.51 L 147.79 152.33 C 147.22 153.12 147.41 154.22 148.20 154.78 C 148.99 155.34 150.08 155.16 150.65 154.37 L 151.23 153.55 C 151.80 152.76 151.61 151.66 150.82 151.10 C 150.03 150.54 148.94 150.72 148.37 151.51 Z M 147.79 152.34 L 147.21 153.16 C 146.65 153.95 146.84 155.04 147.63 155.60 C 148.42 156.16 149.51 155.97 150.07 155.18 L 150.65 154.36 C 151.20 153.57 151.02 152.48 150.23 151.92 C 149.44 151.36 148.34 151.55 147.79 152.34 Z M 147.21 153.17 L 146.65 153.96 C 146.10 154.75 146.29 155.84 147.08 156.39 C 147.87 156.95 148.95 156.76 149.51 155.97 L 150.07 155.17 C 150.62 154.38 150.43 153.29 149.64 152.74 C 148.85 152.19 147.76 152.38 147.21 153.17 Z M 146.65 153.97 L 146.05 154.83 C 145.50 155.62 145.69 156.71 146.48 157.26 C 147.26 157.81 148.35 157.62 148.90 156.83 L 149.51 155.96 C 150.06 155.17 149.87 154.09 149.08 153.54 C 148.29 152.99 147.20 153.18 146.65 153.97 Z M 146.05 154.84 L 145.46 155.68 C 144.91 156.47 145.10 157.55 145.89 158.10 C 146.68 158.65 147.76 158.46 148.31 157.67 L 148.90 156.83 C 149.45 156.04 149.25 154.96 148.47 154.41 C 147.68 153.86 146.60 154.05 146.05 154.84 Z M 145.47 155.68 L 144.90 156.50 C 144.35 157.28 144.54 158.36 145.32 158.91 C 146.11 159.46 147.19 159.27 147.74 158.48 L 148.31 157.67 C 148.85 156.88 148.66 155.80 147.88 155.25 C 147.09 154.71 146.01 154.90 145.47 155.68 Z M 144.90 156.50 L 144.34 157.29 C 143.80 158.07 143.98 159.15 144.77 159.70 C 145.55 160.25 146.62 160.06 147.17 159.28 L 147.73 158.48 C 148.28 157.70 148.09 156.63 147.31 156.08 C 146.53 155.53 145.45 155.72 144.90 156.50 Z M 144.35 157.29 L 143.80 158.07 C 143.25 158.84 143.43 159.92 144.21 160.47 C 144.99 161.02 146.06 160.84 146.61 160.06 L 147.17 159.28 C 147.72 158.50 147.53 157.43 146.75 156.88 C 145.98 156.33 144.90 156.51 144.35 157.29 Z M 143.81 158.06 L 143.22 158.89 C 142.66 159.66 142.84 160.73 143.61 161.29 C 144.38 161.84 145.46 161.66 146.01 160.89 L 146.60 160.06 C 147.16 159.29 146.98 158.22 146.21 157.67 C 145.44 157.11 144.36 157.29 143.81 158.06 Z M 143.23 158.88 L 142.63 159.70 C 142.07 160.47 142.24 161.54 143.01 162.10 C 143.77 162.66 144.84 162.49 145.40 161.72 L 146.00 160.90 C 146.56 160.13 146.39 159.06 145.62 158.51 C 144.86 157.95 143.79 158.12 143.23 158.88 Z M 142.64 159.70 L 142.04 160.50 C 141.48 161.26 141.64 162.33 142.40 162.89 C 143.16 163.45 144.23 163.29 144.79 162.54 L 145.39 161.73 C 145.95 160.97 145.79 159.90 145.03 159.34 C 144.27 158.78 143.20 158.94 142.64 159.70 Z M 142.06 160.49 L 141.47 161.28 C 140.90 162.03 141.05 163.09 141.80 163.66 C 142.55 164.23 143.62 164.08 144.18 163.33 L 144.78 162.55 C 145.34 161.80 145.19 160.73 144.44 160.16 C 143.69 159.59 142.63 159.74 142.06 160.49 Z M 141.48 161.27 L 140.88 162.04 C 140.31 162.79 140.44 163.85 141.18 164.42 C 141.93 165.00 142.99 164.86 143.57 164.12 L 144.17 163.34 C 144.74 162.60 144.60 161.53 143.86 160.96 C 143.12 160.39 142.06 160.52 141.48 161.27 Z M 140.90 162.03 L 140.25 162.85 C 139.67 163.58 139.79 164.64 140.52 165.22 C 141.25 165.80 142.32 165.68 142.90 164.95 L 143.55 164.13 C 144.13 163.40 144.01 162.34 143.27 161.76 C 142.54 161.18 141.48 161.30 140.90 162.03 Z M 140.27 162.83 L 139.63 163.61 C 139.04 164.32 139.15 165.39 139.86 165.98 C 140.58 166.57 141.64 166.46 142.24 165.75 L 142.88 164.97 C 143.47 164.25 143.36 163.19 142.64 162.60 C 141.93 162.01 140.86 162.11 140.27 162.83 Z M 139.66 163.58 L 139.02 164.33 C 138.42 165.03 138.50 166.09 139.21 166.69 C 139.91 167.30 140.97 167.21 141.57 166.51 L 142.21 165.77 C 142.81 165.06 142.73 164.01 142.03 163.40 C 141.32 162.80 140.26 162.88 139.66 163.58 Z M 139.05 164.30 L 138.41 165.02 C 137.79 165.70 137.85 166.76 138.54 167.38 C 139.22 168.00 140.28 167.94 140.90 167.25 L 141.54 166.54 C 142.16 165.85 142.10 164.79 141.42 164.18 C 140.73 163.56 139.67 163.61 139.05 164.30 Z M 138.44 164.99 L 137.74 165.73 C 137.11 166.40 137.13 167.46 137.80 168.09 C 138.47 168.72 139.52 168.69 140.16 168.03 L 140.86 167.28 C 141.50 166.61 141.47 165.56 140.80 164.93 C 140.13 164.29 139.08 164.32 138.44 164.99 Z M 137.76 165.71 L 137.06 166.43 C 136.42 167.08 136.42 168.13 137.08 168.78 C 137.73 169.42 138.78 169.41 139.43 168.76 L 140.13 168.05 C 140.78 167.40 140.77 166.34 140.12 165.70 C 139.46 165.05 138.41 165.06 137.76 165.71 Z M 137.08 166.41 L 136.38 167.11 C 135.73 167.75 135.72 168.80 136.37 169.45 C 137.01 170.10 138.06 170.11 138.71 169.46 L 139.41 168.77 C 140.06 168.13 140.07 167.08 139.42 166.43 C 138.78 165.78 137.73 165.77 137.08 166.41 Z M 136.38 167.11 L 135.66 167.82 C 135.01 168.46 135.01 169.51 135.65 170.16 C 136.29 170.81 137.34 170.81 137.99 170.17 L 138.71 169.46 C 139.36 168.82 139.36 167.77 138.72 167.12 C 138.08 166.47 137.03 166.47 136.38 167.11 Z M 135.66 167.83 L 134.92 168.57 C 134.28 169.21 134.27 170.25 134.92 170.90 C 135.56 171.54 136.60 171.54 137.24 170.90 L 137.99 170.16 C 138.63 169.52 138.63 168.48 137.99 167.83 C 137.35 167.19 136.31 167.19 135.66 167.83 Z M 134.92 168.58 L 134.22 169.28 C 133.58 169.93 133.58 170.96 134.22 171.60 C 134.87 172.24 135.90 172.24 136.54 171.60 L 137.24 170.89 C 137.88 170.25 137.88 169.21 137.24 168.57 C 136.60 167.93 135.56 167.94 134.92 168.58 Z M 134.22 169.30 L 133.56 169.97 C 132.92 170.61 132.93 171.64 133.58 172.28 C 134.22 172.91 135.25 172.90 135.88 172.26 L 136.54 171.58 C 137.18 170.94 137.17 169.91 136.52 169.28 C 135.88 168.65 134.85 168.65 134.22 169.30 Z M 133.55 169.99 L 132.80 170.76 C 132.18 171.41 132.20 172.44 132.85 173.06 C 133.49 173.68 134.52 173.66 135.14 173.01 L 135.89 172.24 C 136.51 171.59 136.49 170.57 135.85 169.94 C 135.20 169.32 134.17 169.34 133.55 169.99 Z M 132.78 170.80 L 132.14 171.50 C 131.54 172.15 131.58 173.17 132.24 173.78 C 132.89 174.38 133.91 174.34 134.52 173.68 L 135.16 172.98 C 135.76 172.32 135.72 171.30 135.06 170.70 C 134.41 170.10 133.39 170.14 132.78 170.80 Z M 132.11 171.55 L 131.47 172.31 C 130.90 172.98 130.98 173.99 131.66 174.57 C 132.33 175.14 133.34 175.05 133.91 174.38 L 134.55 173.62 C 135.12 172.95 135.04 171.94 134.36 171.37 C 133.69 170.79 132.68 170.88 132.11 171.55 Z M 131.43 172.38 L 130.83 173.16 C 130.29 173.86 130.42 174.86 131.12 175.39 C 131.82 175.92 132.81 175.79 133.35 175.10 L 133.95 174.31 C 134.48 173.61 134.35 172.62 133.66 172.08 C 132.96 171.55 131.96 171.68 131.43 172.38 Z M 130.80 173.23 L 130.24 174.03 C 129.75 174.74 129.93 175.72 130.64 176.21 C 131.35 176.71 132.33 176.53 132.83 175.82 L 133.38 175.03 C 133.87 174.31 133.70 173.33 132.98 172.84 C 132.27 172.34 131.29 172.52 130.80 173.23 Z M 130.20 174.12 L 129.69 174.98 C 129.25 175.71 129.49 176.67 130.23 177.11 C 130.96 177.55 131.92 177.31 132.36 176.57 L 132.87 175.72 C 133.31 174.99 133.07 174.03 132.34 173.59 C 131.60 173.15 130.64 173.39 130.20 174.12 Z M 129.64 175.11 L 129.20 176.03 C 128.83 176.79 129.15 177.71 129.91 178.08 C 130.67 178.45 131.59 178.13 131.96 177.37 L 132.41 176.44 C 132.78 175.68 132.46 174.76 131.69 174.39 C 130.93 174.02 130.01 174.34 129.64 175.11 Z M 129.13 176.26 L 128.84 177.23 C 128.60 178.02 129.05 178.87 129.85 179.11 C 130.65 179.35 131.49 178.90 131.73 178.10 L 132.02 177.14 C 132.27 176.34 131.81 175.50 131.02 175.25 C 130.22 175.01 129.37 175.46 129.13 176.26 Z M 128.80 177.74 L 128.85 178.71 C 128.89 179.53 129.59 180.16 130.41 180.12 C 131.23 180.08 131.86 179.38 131.82 178.56 L 131.77 177.59 C 131.73 176.77 131.03 176.14 130.21 176.18 C 129.39 176.22 128.76 176.92 128.80 177.74 Z M 128.98 179.20 L 129.37 180.11 C 129.68 180.86 130.54 181.21 131.29 180.90 C 132.03 180.58 132.38 179.72 132.07 178.98 L 131.69 178.07 C 131.37 177.32 130.51 176.97 129.77 177.28 C 129.02 177.60 128.67 178.46 128.98 179.20 Z M 129.43 180.22 L 129.51 180.38 C 129.89 181.09 130.76 181.37 131.48 181.00 C 132.19 180.63 132.46 179.75 132.09 179.04 L 132.01 178.87 C 131.64 178.16 130.76 177.89 130.05 178.26 C 129.34 178.63 129.06 179.51 129.43 180.22 Z"
      fill="black"
      fill-rule="nonzero" /><path d="M 158.57 151.68 L 159.40 151.09 C 160.09 150.60 160.24 149.65 159.75 148.96 C 159.26 148.27 158.31 148.11 157.62 148.60 L 156.79 149.19 C 156.10 149.69 155.95 150.64 156.44 151.33 C 156.93 152.02 157.88 152.17 158.57 151.68 Z M 158.61 151.44 L 159.51 151.38 C 160.39 151.33 161.06 150.56 161.00 149.68 C 160.94 148.80 160.18 148.14 159.30 148.19 L 158.40 148.25 C 157.52 148.31 156.86 149.07 156.91 149.95 C 156.97 150.83 157.73 151.50 158.61 151.44 Z M 158.57 151.21 L 159.37 151.68 C 160.15 152.14 161.16 151.88 161.62 151.10 C 162.08 150.31 161.82 149.30 161.04 148.84 L 160.24 148.37 C 159.45 147.91 158.44 148.17 157.98 148.95 C 157.52 149.74 157.78 150.75 158.57 151.21 Z M 159.07 151.50 L 159.87 152.23 C 160.56 152.86 161.62 152.80 162.25 152.12 C 162.87 151.43 162.82 150.37 162.13 149.75 L 161.33 149.02 C 160.64 148.39 159.58 148.44 158.96 149.13 C 158.33 149.82 158.39 150.88 159.07 151.50 Z M 159.76 152.15 L 160.46 152.90 C 161.10 153.59 162.18 153.63 162.87 152.98 C 163.55 152.34 163.59 151.26 162.95 150.57 L 162.25 149.82 C 161.61 149.14 160.53 149.10 159.84 149.74 C 159.15 150.39 159.12 151.46 159.76 152.15 Z M 160.39 152.84 L 161.01 153.59 C 161.62 154.32 162.71 154.42 163.43 153.81 C 164.16 153.20 164.26 152.12 163.65 151.39 L 163.02 150.64 C 162.41 149.91 161.33 149.81 160.60 150.42 C 159.87 151.03 159.78 152.11 160.39 152.84 Z M 160.96 153.54 L 161.55 154.32 C 162.13 155.08 163.22 155.23 163.98 154.65 C 164.74 154.08 164.88 152.99 164.31 152.23 L 163.71 151.45 C 163.13 150.69 162.05 150.54 161.29 151.11 C 160.53 151.69 160.38 152.78 160.96 153.54 Z M 161.52 154.29 L 162.07 155.06 C 162.63 155.84 163.71 156.02 164.49 155.46 C 165.28 154.91 165.46 153.82 164.90 153.04 L 164.34 152.27 C 163.79 151.49 162.70 151.31 161.92 151.86 C 161.14 152.42 160.96 153.51 161.52 154.29 Z M 162.05 155.04 L 162.62 155.88 C 163.17 156.68 164.26 156.88 165.05 156.33 C 165.85 155.78 166.05 154.70 165.50 153.90 L 164.92 153.06 C 164.37 152.27 163.29 152.07 162.49 152.61 C 161.70 153.16 161.50 154.25 162.05 155.04 Z M 162.61 155.87 L 163.19 156.73 C 163.73 157.54 164.82 157.75 165.62 157.21 C 166.42 156.67 166.64 155.58 166.10 154.77 L 165.52 153.91 C 164.98 153.11 163.89 152.90 163.08 153.44 C 162.28 153.98 162.07 155.07 162.61 155.87 Z M 163.18 156.73 L 163.72 157.54 C 164.26 158.35 165.35 158.57 166.16 158.03 C 166.97 157.49 167.19 156.40 166.65 155.59 L 166.11 154.78 C 165.57 153.97 164.48 153.75 163.67 154.29 C 162.86 154.83 162.64 155.92 163.18 156.73 Z M 163.71 157.54 L 164.26 158.38 C 164.80 159.19 165.89 159.42 166.71 158.88 C 167.52 158.35 167.75 157.25 167.21 156.44 L 166.66 155.60 C 166.12 154.78 165.03 154.56 164.21 155.09 C 163.40 155.63 163.17 156.72 163.71 157.54 Z M 164.26 158.37 L 164.82 159.23 C 165.35 160.05 166.45 160.28 167.26 159.75 C 168.08 159.22 168.31 158.12 167.78 157.30 L 167.22 156.44 C 166.69 155.62 165.59 155.39 164.77 155.93 C 163.95 156.46 163.72 157.56 164.26 158.37 Z M 164.81 159.23 L 165.34 160.06 C 165.87 160.88 166.97 161.12 167.79 160.58 C 168.62 160.05 168.85 158.95 168.32 158.13 L 167.79 157.31 C 167.25 156.48 166.16 156.25 165.33 156.78 C 164.51 157.31 164.28 158.41 164.81 159.23 Z M 165.34 160.05 L 165.87 160.89 C 166.40 161.71 167.50 161.95 168.32 161.42 C 169.15 160.89 169.39 159.80 168.86 158.97 L 168.33 158.14 C 167.80 157.31 166.70 157.07 165.87 157.60 C 165.05 158.13 164.81 159.23 165.34 160.05 Z M 165.86 160.88 L 166.40 161.73 C 166.93 162.56 168.03 162.81 168.86 162.28 C 169.69 161.75 169.93 160.65 169.41 159.82 L 168.87 158.97 C 168.34 158.14 167.24 157.90 166.41 158.43 C 165.58 158.95 165.34 160.05 165.86 160.88 Z M 166.40 161.73 L 166.93 162.58 C 167.46 163.41 168.56 163.66 169.39 163.14 C 170.22 162.62 170.48 161.52 169.95 160.68 L 169.41 159.83 C 168.89 159.00 167.79 158.75 166.96 159.27 C 166.12 159.79 165.87 160.89 166.40 161.73 Z M 166.92 162.57 L 167.43 163.39 C 167.95 164.23 169.05 164.48 169.89 163.96 C 170.73 163.44 170.99 162.34 170.47 161.50 L 169.96 160.69 C 169.44 159.85 168.34 159.59 167.50 160.11 C 166.66 160.64 166.40 161.74 166.92 162.57 Z M 167.42 163.38 L 167.94 164.22 C 168.45 165.07 169.55 165.33 170.40 164.82 C 171.24 164.30 171.51 163.20 170.99 162.36 L 170.48 161.51 C 169.96 160.67 168.86 160.40 168.01 160.92 C 167.17 161.43 166.90 162.54 167.42 163.38 Z M 167.92 164.21 L 168.45 165.09 C 168.96 165.94 170.06 166.22 170.91 165.71 C 171.76 165.20 172.04 164.10 171.53 163.25 L 171.00 162.37 C 170.49 161.52 169.39 161.24 168.54 161.75 C 167.69 162.26 167.41 163.36 167.92 164.21 Z M 168.43 165.07 L 168.95 165.96 C 169.45 166.82 170.55 167.11 171.41 166.61 C 172.27 166.11 172.56 165.01 172.06 164.15 L 171.54 163.26 C 171.04 162.40 169.94 162.11 169.08 162.61 C 168.22 163.11 167.93 164.21 168.43 165.07 Z M 168.94 165.95 L 169.41 166.78 C 169.90 167.65 171.00 167.95 171.87 167.46 C 172.74 166.97 173.04 165.87 172.55 165.00 L 172.08 164.17 C 171.58 163.30 170.48 163.00 169.62 163.49 C 168.75 163.98 168.45 165.08 168.94 165.95 Z M 169.40 166.77 L 169.88 167.63 C 170.36 168.50 171.46 168.82 172.34 168.33 C 173.21 167.85 173.52 166.75 173.04 165.88 L 172.56 165.01 C 172.08 164.14 170.98 163.83 170.10 164.31 C 169.23 164.80 168.92 165.90 169.40 166.77 Z M 169.87 167.62 L 170.35 168.51 C 170.83 169.39 171.93 169.71 172.81 169.23 C 173.69 168.76 174.01 167.66 173.53 166.78 L 173.05 165.89 C 172.57 165.01 171.47 164.68 170.59 165.16 C 169.71 165.64 169.39 166.74 169.87 167.62 Z M 170.34 168.50 L 170.83 169.41 C 171.30 170.30 172.40 170.63 173.29 170.16 C 174.17 169.69 174.50 168.59 174.03 167.70 L 173.54 166.79 C 173.07 165.90 171.97 165.57 171.09 166.04 C 170.20 166.51 169.87 167.61 170.34 168.50 Z M 170.82 169.40 L 171.28 170.29 C 171.75 171.17 172.85 171.52 173.74 171.05 C 174.63 170.58 174.97 169.48 174.50 168.59 L 174.04 167.71 C 173.57 166.82 172.47 166.48 171.58 166.95 C 170.69 167.42 170.35 168.52 170.82 169.40 Z M 171.28 170.28 L 171.73 171.14 C 172.19 172.03 173.29 172.38 174.18 171.92 C 175.07 171.45 175.42 170.36 174.96 169.46 L 174.51 168.60 C 174.05 167.71 172.95 167.36 172.06 167.82 C 171.16 168.28 170.81 169.38 171.28 170.28 Z M 171.72 171.13 L 172.17 172.01 C 172.63 172.91 173.72 173.26 174.62 172.81 C 175.52 172.35 175.87 171.25 175.42 170.35 L 174.96 169.47 C 174.51 168.58 173.41 168.22 172.51 168.68 C 171.62 169.14 171.26 170.23 171.72 171.13 Z M 172.16 172.00 L 172.61 172.90 C 173.07 173.80 174.16 174.17 175.06 173.71 C 175.96 173.26 176.33 172.17 175.87 171.27 L 175.42 170.36 C 174.97 169.46 173.87 169.10 172.97 169.55 C 172.07 170.00 171.71 171.10 172.16 172.00 Z M 172.61 172.89 L 173.06 173.82 C 173.51 174.72 174.60 175.09 175.51 174.65 C 176.41 174.20 176.78 173.10 176.34 172.20 L 175.88 171.28 C 175.44 170.37 174.34 170.00 173.44 170.45 C 172.53 170.89 172.16 171.99 172.61 172.89 Z M 173.06 173.81 L 173.49 174.71 C 173.93 175.61 175.03 175.99 175.93 175.55 C 176.84 175.11 177.22 174.02 176.78 173.11 L 176.34 172.21 C 175.90 171.30 174.81 170.92 173.90 171.36 C 173.00 171.80 172.62 172.90 173.06 173.81 Z M 173.49 174.70 L 173.90 175.57 C 174.34 176.48 175.43 176.87 176.34 176.43 C 177.25 176.00 177.64 174.90 177.20 173.99 L 176.79 173.12 C 176.35 172.21 175.26 171.82 174.35 172.26 C 173.44 172.69 173.05 173.79 173.49 174.70 Z M 173.90 175.56 L 174.32 176.45 C 174.75 177.37 175.84 177.76 176.75 177.33 C 177.67 176.90 178.06 175.80 177.63 174.89 L 177.21 174.00 C 176.78 173.09 175.69 172.69 174.77 173.12 C 173.86 173.56 173.47 174.65 173.90 175.56 Z M 174.31 176.45 L 174.74 177.35 C 175.16 178.27 176.25 178.67 177.17 178.24 C 178.09 177.81 178.48 176.72 178.06 175.80 L 177.63 174.90 C 177.20 173.98 176.11 173.58 175.20 174.01 C 174.28 174.44 173.88 175.53 174.31 176.45 Z M 174.73 177.35 L 175.16 178.28 C 175.59 179.20 176.68 179.59 177.60 179.17 C 178.52 178.74 178.92 177.65 178.49 176.73 L 178.06 175.81 C 177.63 174.89 176.54 174.49 175.63 174.92 C 174.71 175.34 174.31 176.43 174.73 177.35 Z M 175.16 178.27 L 175.60 179.22 C 176.02 180.14 177.11 180.54 178.03 180.12 C 178.95 179.69 179.35 178.60 178.93 177.68 L 178.49 176.74 C 178.07 175.82 176.98 175.42 176.06 175.84 C 175.14 176.26 174.74 177.35 175.16 178.27 Z M 175.59 179.22 L 176.02 180.14 C 176.45 181.06 177.54 181.47 178.46 181.04 C 179.38 180.62 179.78 179.53 179.36 178.61 L 178.93 177.68 C 178.50 176.76 177.41 176.36 176.49 176.78 C 175.57 177.21 175.17 178.30 175.59 179.22 Z M 176.02 180.14 L 176.45 181.07 C 176.87 181.99 177.96 182.39 178.88 181.97 C 179.80 181.54 180.21 180.45 179.78 179.53 L 179.36 178.60 C 178.93 177.68 177.84 177.28 176.92 177.71 C 176.00 178.13 175.60 179.22 176.02 180.14 Z M 176.45 181.07 L 176.87 181.99 C 177.30 182.91 178.39 183.31 179.31 182.89 C 180.23 182.46 180.64 181.37 180.21 180.45 L 179.78 179.53 C 179.36 178.61 178.26 178.20 177.34 178.63 C 176.42 179.06 176.02 180.15 176.45 181.07 Z M 176.88 182.00 L 177.30 182.91 C 177.73 183.83 178.82 184.23 179.74 183.80 C 180.66 183.37 181.06 182.28 180.63 181.36 L 180.21 180.45 C 179.78 179.53 178.69 179.13 177.77 179.56 C 176.85 179.98 176.45 181.08 176.88 182.00 Z M 177.30 182.92 L 177.73 183.82 C 178.16 184.73 179.25 185.13 180.17 184.70 C 181.09 184.27 181.49 183.17 181.05 182.25 L 180.63 181.35 C 180.20 180.44 179.11 180.04 178.19 180.47 C 177.27 180.90 176.87 182.00 177.30 182.92 Z M 177.73 183.82 L 178.14 184.69 C 178.58 185.61 179.68 186.00 180.59 185.56 C 181.51 185.13 181.90 184.03 181.46 183.11 L 181.05 182.24 C 180.61 181.33 179.52 180.94 178.60 181.37 C 177.68 181.81 177.29 182.91 177.73 183.82 Z M 178.15 184.71 L 178.61 185.66 C 179.05 186.57 180.15 186.96 181.07 186.51 C 181.98 186.07 182.36 184.97 181.92 184.06 L 181.46 183.10 C 181.02 182.19 179.92 181.81 179.00 182.25 C 178.09 182.69 177.71 183.79 178.15 184.71 Z M 178.62 185.67 L 179.08 186.60 C 179.53 187.51 180.63 187.89 181.54 187.44 C 182.45 186.99 182.82 185.88 182.37 184.97 L 181.91 184.04 C 181.46 183.13 180.36 182.76 179.45 183.21 C 178.54 183.66 178.17 184.76 178.62 185.67 Z M 179.08 186.62 L 179.53 187.51 C 179.99 188.42 181.10 188.78 182.01 188.32 C 182.91 187.86 183.28 186.76 182.82 185.85 L 182.37 184.96 C 181.91 184.05 180.80 183.69 179.89 184.15 C 178.99 184.60 178.62 185.71 179.08 186.62 Z M 179.54 187.53 L 179.99 188.39 C 180.46 189.29 181.57 189.64 182.47 189.17 C 183.37 188.70 183.72 187.59 183.25 186.69 L 182.81 185.83 C 182.34 184.93 181.23 184.58 180.33 185.05 C 179.43 185.51 179.07 186.63 179.54 187.53 Z M 180.00 188.41 L 180.44 189.24 C 180.92 190.13 182.04 190.47 182.93 189.99 C 183.83 189.52 184.17 188.40 183.69 187.51 L 183.24 186.67 C 182.77 185.78 181.65 185.44 180.76 185.92 C 179.86 186.39 179.52 187.51 180.00 188.41 Z M 180.46 189.26 L 180.94 190.14 C 181.43 191.03 182.55 191.35 183.44 190.86 C 184.33 190.37 184.65 189.25 184.16 188.36 L 183.68 187.48 C 183.19 186.60 182.07 186.27 181.18 186.76 C 180.29 187.25 179.97 188.37 180.46 189.26 Z M 180.95 190.16 L 181.45 191.04 C 181.95 191.92 183.08 192.23 183.96 191.72 C 184.84 191.22 185.15 190.10 184.65 189.22 L 184.15 188.34 C 183.64 187.46 182.52 187.15 181.64 187.65 C 180.76 188.15 180.45 189.28 180.95 190.16 Z M 181.47 191.06 L 181.97 191.92 C 182.49 192.79 183.61 193.08 184.49 192.57 C 185.36 192.05 185.65 190.93 185.14 190.06 L 184.63 189.20 C 184.12 188.32 182.99 188.03 182.12 188.55 C 181.25 189.06 180.95 190.18 181.47 191.06 Z M 181.99 191.94 L 182.50 192.78 C 183.03 193.65 184.16 193.92 185.02 193.40 C 185.89 192.87 186.16 191.74 185.63 190.88 L 185.12 190.03 C 184.59 189.17 183.47 188.90 182.60 189.42 C 181.74 189.95 181.46 191.08 181.99 191.94 Z M 182.52 192.81 L 183.05 193.64 C 183.59 194.50 184.72 194.75 185.57 194.21 C 186.42 193.67 186.68 192.54 186.14 191.69 L 185.62 190.86 C 185.08 190.00 183.95 189.74 183.09 190.28 C 182.24 190.82 181.98 191.95 182.52 192.81 Z M 183.06 193.66 L 183.61 194.49 C 184.16 195.34 185.29 195.58 186.13 195.03 C 186.98 194.48 187.22 193.35 186.67 192.50 L 186.13 191.67 C 185.57 190.82 184.44 190.58 183.60 191.13 C 182.75 191.68 182.51 192.82 183.06 193.66 Z M 183.62 194.51 L 184.17 195.34 C 184.73 196.18 185.86 196.40 186.70 195.84 C 187.54 195.28 187.77 194.15 187.21 193.31 L 186.65 192.49 C 186.10 191.65 184.96 191.42 184.13 191.98 C 183.29 192.54 183.06 193.67 183.62 194.51 Z M 184.18 195.35 L 184.74 196.17 C 185.30 197.01 186.43 197.23 187.27 196.66 C 188.10 196.10 188.32 194.97 187.76 194.13 L 187.20 193.31 C 186.64 192.47 185.50 192.25 184.67 192.82 C 183.84 193.38 183.62 194.51 184.18 195.35 Z M 184.74 196.17 L 185.31 197.01 C 185.87 197.84 187.00 198.06 187.83 197.49 C 188.67 196.93 188.88 195.80 188.32 194.97 L 187.75 194.13 C 187.19 193.30 186.06 193.08 185.23 193.65 C 184.40 194.21 184.18 195.34 184.74 196.17 Z M 185.31 197.00 L 185.87 197.83 C 186.43 198.67 187.56 198.89 188.39 198.32 C 189.22 197.76 189.44 196.63 188.88 195.80 L 188.32 194.97 C 187.76 194.14 186.63 193.92 185.80 194.48 C 184.97 195.04 184.75 196.17 185.31 197.00 Z M 185.86 197.83 L 186.42 198.66 C 186.98 199.49 188.11 199.72 188.94 199.16 C 189.77 198.60 190.00 197.47 189.44 196.64 L 188.88 195.81 C 188.33 194.97 187.20 194.75 186.36 195.31 C 185.53 195.87 185.31 196.99 185.86 197.83 Z M 186.42 198.66 L 186.98 199.49 C 187.53 200.33 188.66 200.55 189.49 200.00 C 190.33 199.44 190.55 198.32 190.00 197.48 L 189.44 196.64 C 188.89 195.81 187.76 195.58 186.92 196.14 C 186.09 196.70 185.86 197.82 186.42 198.66 Z M 186.98 199.49 L 187.53 200.33 C 188.09 201.16 189.21 201.39 190.05 200.83 C 190.88 200.28 191.11 199.15 190.55 198.32 L 190.00 197.48 C 189.44 196.65 188.32 196.42 187.48 196.98 C 186.65 197.53 186.42 198.66 186.98 199.49 Z M 187.53 200.33 L 188.08 201.15 C 188.64 201.99 189.76 202.22 190.60 201.66 C 191.43 201.11 191.66 199.98 191.10 199.15 L 190.55 198.32 C 190.00 197.48 188.87 197.26 188.04 197.81 C 187.20 198.36 186.98 199.49 187.53 200.33 Z M 188.08 201.15 L 188.64 201.98 C 189.19 202.82 190.32 203.04 191.15 202.49 C 191.98 201.93 192.21 200.81 191.65 199.97 L 191.10 199.14 C 190.55 198.31 189.42 198.09 188.59 198.64 C 187.75 199.20 187.53 200.32 188.08 201.15 Z M 188.64 201.98 L 189.19 202.81 C 189.74 203.64 190.86 203.86 191.69 203.31 C 192.53 202.76 192.75 201.63 192.20 200.80 L 191.65 199.98 C 191.10 199.14 189.97 198.92 189.14 199.47 C 188.31 200.02 188.08 201.15 188.64 201.98 Z M 189.19 202.80 L 189.73 203.63 C 190.28 204.46 191.40 204.69 192.24 204.14 C 193.07 203.59 193.30 202.47 192.75 201.64 L 192.20 200.81 C 191.65 199.98 190.53 199.75 189.70 200.30 C 188.87 200.85 188.64 201.97 189.19 202.80 Z M 189.73 203.62 L 190.28 204.46 C 190.83 205.29 191.94 205.53 192.78 204.98 C 193.61 204.44 193.84 203.32 193.30 202.49 L 192.75 201.65 C 192.21 200.81 191.09 200.58 190.26 201.12 C 189.42 201.67 189.19 202.79 189.73 203.62 Z M 190.28 204.45 L 190.83 205.31 C 191.37 206.14 192.48 206.38 193.32 205.85 C 194.15 205.31 194.39 204.20 193.86 203.36 L 193.30 202.50 C 192.77 201.67 191.65 201.43 190.82 201.96 C 189.98 202.50 189.74 203.61 190.28 204.45 Z M 190.83 205.29 L 191.38 206.16 C 191.91 207.00 193.02 207.25 193.85 206.71 C 194.69 206.18 194.94 205.08 194.41 204.24 L 193.86 203.37 C 193.33 202.54 192.22 202.29 191.38 202.82 C 190.55 203.35 190.30 204.46 190.83 205.29 Z M 191.38 206.15 L 191.93 207.02 C 192.45 207.86 193.56 208.11 194.39 207.58 C 195.23 207.05 195.48 205.95 194.95 205.11 L 194.41 204.25 C 193.88 203.41 192.77 203.16 191.94 203.69 C 191.10 204.21 190.85 205.32 191.38 206.15 Z M 191.93 207.02 L 192.46 207.87 C 192.99 208.70 194.09 208.95 194.93 208.42 C 195.76 207.90 196.01 206.79 195.48 205.96 L 194.95 205.11 C 194.42 204.28 193.32 204.03 192.49 204.56 C 191.65 205.08 191.40 206.19 191.93 207.02 Z M 192.47 207.87 L 192.99 208.68 C 193.52 209.51 194.62 209.75 195.45 209.22 C 196.27 208.70 196.52 207.60 195.99 206.77 L 195.48 205.96 C 194.95 205.13 193.85 204.88 193.02 205.41 C 192.19 205.94 191.94 207.04 192.47 207.87 Z M 193.00 208.69 L 193.57 209.57 C 194.11 210.39 195.21 210.63 196.03 210.09 C 196.85 209.56 197.08 208.46 196.55 207.64 L 195.98 206.76 C 195.44 205.93 194.34 205.70 193.52 206.23 C 192.70 206.77 192.47 207.87 193.00 208.69 Z M 193.59 209.58 L 194.16 210.44 C 194.70 211.25 195.79 211.47 196.61 210.93 C 197.42 210.39 197.64 209.30 197.10 208.48 L 196.54 207.63 C 196.00 206.81 194.90 206.59 194.09 207.13 C 193.27 207.67 193.05 208.77 193.59 209.58 Z M 194.17 210.44 L 194.71 211.25 C 195.25 212.05 196.35 212.27 197.15 211.72 C 197.96 211.18 198.17 210.09 197.63 209.28 L 197.09 208.48 C 196.55 207.67 195.45 207.46 194.64 208.00 C 193.84 208.54 193.62 209.64 194.17 210.44 Z M 194.72 211.25 L 195.24 212.02 C 195.79 212.82 196.88 213.03 197.68 212.49 C 198.48 211.95 198.69 210.85 198.15 210.05 L 197.62 209.28 C 197.08 208.48 195.99 208.27 195.18 208.81 C 194.38 209.35 194.17 210.45 194.72 211.25 Z M 195.25 212.02 L 195.83 212.87 C 196.37 213.67 197.46 213.88 198.25 213.34 C 199.05 212.79 199.26 211.71 198.72 210.91 L 198.14 210.06 C 197.60 209.26 196.51 209.05 195.71 209.59 C 194.92 210.13 194.71 211.22 195.25 212.02 Z M 195.84 212.87 L 196.41 213.71 C 196.96 214.50 198.04 214.70 198.83 214.16 C 199.62 213.61 199.82 212.53 199.28 211.74 L 198.71 210.91 C 198.16 210.11 197.08 209.91 196.29 210.46 C 195.50 211.00 195.30 212.08 195.84 212.87 Z M 196.43 213.72 L 197.00 214.52 C 197.55 215.30 198.63 215.48 199.41 214.93 C 200.19 214.38 200.38 213.30 199.82 212.52 L 199.26 211.72 C 198.70 210.94 197.62 210.76 196.84 211.31 C 196.07 211.86 195.88 212.94 196.43 213.72 Z M 197.03 214.55 L 197.64 215.37 C 198.21 216.13 199.29 216.28 200.05 215.71 C 200.81 215.14 200.97 214.06 200.40 213.30 L 199.79 212.49 C 199.22 211.73 198.14 211.57 197.38 212.14 C 196.62 212.71 196.46 213.79 197.03 214.55 Z M 197.68 215.40 L 198.31 216.19 C 198.90 216.93 199.97 217.05 200.71 216.47 C 201.45 215.88 201.58 214.80 200.99 214.07 L 200.36 213.27 C 199.77 212.53 198.70 212.41 197.96 213.00 C 197.22 213.58 197.10 214.66 197.68 215.40 Z M 198.34 216.21 L 198.96 216.95 C 199.55 217.68 200.62 217.78 201.35 217.18 C 202.07 216.59 202.17 215.52 201.58 214.80 L 200.96 214.05 C 200.36 213.33 199.30 213.22 198.57 213.82 C 197.85 214.41 197.75 215.48 198.34 216.21 Z M 198.97 216.95 L 199.62 217.73 C 200.22 218.44 201.28 218.54 201.99 217.94 C 202.71 217.35 202.80 216.28 202.21 215.57 L 201.56 214.80 C 200.96 214.08 199.90 213.99 199.19 214.58 C 198.47 215.18 198.38 216.24 198.97 216.95 Z M 199.64 217.73 L 200.30 218.50 C 200.90 219.20 201.95 219.28 202.65 218.69 C 203.35 218.09 203.44 217.04 202.84 216.34 L 202.19 215.57 C 201.59 214.87 200.53 214.78 199.83 215.38 C 199.13 215.98 199.05 217.03 199.64 217.73 Z M 200.33 218.52 L 200.98 219.24 C 201.58 219.92 202.63 219.98 203.31 219.37 C 203.99 218.77 204.05 217.72 203.44 217.04 L 202.80 216.32 C 202.19 215.64 201.15 215.58 200.47 216.18 C 199.79 216.79 199.73 217.83 200.33 218.52 Z M 201.02 219.26 L 201.70 219.99 C 202.32 220.65 203.35 220.68 204.01 220.06 C 204.67 219.44 204.71 218.41 204.09 217.75 L 203.40 217.02 C 202.78 216.36 201.75 216.33 201.09 216.95 C 200.43 217.56 200.40 218.60 201.02 219.26 Z M 201.70 219.96 L 202.37 220.69 C 202.98 221.35 204.00 221.40 204.66 220.79 C 205.32 220.19 205.36 219.16 204.76 218.51 L 204.09 217.77 C 203.48 217.12 202.46 217.07 201.80 217.67 C 201.14 218.28 201.10 219.30 201.70 219.96 Z M 202.33 220.62 L 202.98 221.40 C 203.54 222.09 204.55 222.19 205.23 221.62 C 205.91 221.06 206.01 220.05 205.45 219.37 L 204.80 218.58 C 204.24 217.90 203.23 217.80 202.55 218.36 C 201.87 218.93 201.77 219.93 202.33 220.62 Z M 202.95 221.34 L 203.56 222.15 C 204.09 222.85 205.08 222.99 205.78 222.47 C 206.48 221.94 206.62 220.95 206.09 220.25 L 205.48 219.44 C 204.95 218.74 203.96 218.60 203.26 219.12 C 202.57 219.65 202.43 220.64 202.95 221.34 Z M 203.57 222.13 L 204.15 222.92 C 204.66 223.62 205.64 223.77 206.34 223.26 C 207.03 222.75 207.18 221.77 206.67 221.07 L 206.09 220.28 C 205.58 219.58 204.60 219.43 203.90 219.94 C 203.21 220.45 203.06 221.43 203.57 222.13 Z M 204.16 222.92 L 204.76 223.72 C 205.26 224.41 206.23 224.56 206.92 224.06 C 207.61 223.55 207.76 222.58 207.25 221.89 L 206.66 221.08 C 206.15 220.39 205.18 220.24 204.49 220.75 C 203.80 221.26 203.66 222.23 204.16 222.92 Z M 204.73 223.66 L 205.26 224.46 C 205.73 225.16 206.68 225.35 207.39 224.88 C 208.09 224.41 208.29 223.46 207.82 222.75 L 207.28 221.96 C 206.81 221.25 205.86 221.06 205.15 221.53 C 204.45 222.00 204.26 222.95 204.73 223.66 Z M 205.22 224.37 L 205.72 225.23 C 206.14 225.96 207.08 226.21 207.80 225.78 C 208.53 225.36 208.78 224.43 208.36 223.70 L 207.86 222.84 C 207.43 222.11 206.50 221.86 205.77 222.29 C 205.04 222.71 204.79 223.64 205.22 224.37 Z M 205.70 225.20 L 206.08 225.88 C 206.49 226.62 207.41 226.89 208.15 226.48 C 208.88 226.08 209.15 225.15 208.75 224.42 L 208.37 223.73 C 207.96 223.00 207.04 222.73 206.30 223.13 C 205.57 223.54 205.30 224.46 205.70 225.20 Z"
      fill="black"
      fill-rule="nonzero" /></svg>