<svg xmlns="http://www.w3.org/2000/svg" width="300" height="300" viewBox="0 0 300 300">
<path d="M 132.29 52.97 L 133.20 52.60 C 133.95 52.30 134.32 51.44 134.01 50.69 C 133.70 49.93 132.85 49.57 132.09 49.88 L 131.18 50.25 C 130.43 50.55 130.07 51.41 130.37 52.16 C 130.68 52.92 131.54 53.28 132.29 52.97 Z M 132.95 52.69 L 133.91 52.49 C 134.72 52.33 135.23 51.54 135.06 50.73 C 134.89 49.93 134.11 49.42 133.30 49.58 L 132.34 49.78 C 131.54 49.95 131.02 50.74 131.19 51.54 C 131.36 52.35 132.15 52.86 132.95 52.69 Z M 133.62 52.54 L 134.63 52.53 C 135.46 52.52 136.13 51.84 136.12 51.01 C 136.11 50.18 135.43 49.51 134.60 49.52 L 133.59 49.53 C 132.76 49.54 132.09 50.22 132.10 51.06 C 132.11 51.89 132.79 52.55 133.62 52.54 Z M 134.46 52.54 L 135.41 52.64 C 136.25 52.73 137.00 52.12 137.08 51.28 C 137.17 50.45 136.56 49.70 135.72 49.61 L 134.77 49.51 C 133.93 49.43 133.18 50.03 133.10 50.87 C 133.01 51.71 133.62 52.46 134.46 52.54 Z M 135.32 52.64 L 136.29 52.80 C 137.13 52.94 137.92 52.38 138.06 51.54 C 138.20 50.70 137.63 49.91 136.79 49.78 L 135.82 49.61 C 134.98 49.48 134.19 50.04 134.05 50.88 C 133.92 51.71 134.48 52.50 135.32 52.64 Z M 136.26 52.80 L 137.29 53.00 C 138.12 53.15 138.93 52.60 139.09 51.77 C 139.25 50.93 138.69 50.13 137.86 49.97 L 136.83 49.77 C 135.99 49.62 135.19 50.17 135.03 51.00 C 134.87 51.84 135.42 52.64 136.26 52.80 Z M 137.29 53.00 L 138.27 53.18 C 139.10 53.34 139.91 52.79 140.07 51.95 C 140.23 51.11 139.67 50.30 138.83 50.15 L 137.86 49.96 C 137.02 49.81 136.21 50.36 136.06 51.20 C 135.90 52.04 136.45 52.84 137.29 53.00 Z M 138.28 53.19 L 139.30 53.37 C 140.14 53.51 140.94 52.95 141.09 52.11 C 141.24 51.26 140.67 50.46 139.83 50.32 L 138.82 50.14 C 137.97 49.99 137.17 50.56 137.02 51.40 C 136.88 52.24 137.44 53.05 138.28 53.19 Z M 139.34 53.38 L 140.35 53.53 C 141.19 53.65 141.98 53.07 142.11 52.22 C 142.23 51.37 141.65 50.58 140.80 50.45 L 139.79 50.31 C 138.94 50.18 138.15 50.77 138.03 51.62 C 137.90 52.46 138.49 53.25 139.34 53.38 Z M 140.40 53.54 L 141.40 53.65 C 142.25 53.74 143.02 53.12 143.11 52.27 C 143.21 51.41 142.59 50.65 141.73 50.55 L 140.74 50.44 C 139.89 50.35 139.12 50.97 139.03 51.82 C 138.93 52.68 139.55 53.44 140.40 53.54 Z M 141.46 53.65 L 142.44 53.72 C 143.30 53.78 144.04 53.14 144.10 52.28 C 144.16 51.42 143.52 50.68 142.66 50.61 L 141.68 50.54 C 140.82 50.48 140.07 51.13 140.01 51.99 C 139.95 52.85 140.60 53.59 141.46 53.65 Z M 142.49 53.73 L 143.47 53.77 C 144.33 53.80 145.06 53.13 145.09 52.26 C 145.12 51.40 144.45 50.68 143.59 50.65 L 142.61 50.61 C 141.75 50.58 141.02 51.25 140.99 52.11 C 140.96 52.97 141.63 53.70 142.49 53.73 Z M 143.51 53.77 L 144.50 53.78 C 145.37 53.80 146.08 53.11 146.09 52.24 C 146.10 51.38 145.41 50.67 144.55 50.66 L 143.55 50.64 C 142.69 50.63 141.98 51.32 141.96 52.18 C 141.95 53.05 142.64 53.76 143.51 53.77 Z M 144.52 53.79 L 145.54 53.79 C 146.40 53.79 147.11 53.09 147.11 52.23 C 147.11 51.36 146.41 50.66 145.55 50.66 L 144.53 50.65 C 143.66 50.65 142.96 51.35 142.96 52.22 C 142.96 53.08 143.66 53.79 144.52 53.79 Z M 145.54 53.79 L 146.61 53.79 C 147.47 53.79 148.18 53.09 148.18 52.22 C 148.18 51.36 147.47 50.65 146.61 50.65 L 145.54 50.65 C 144.68 50.65 143.97 51.36 143.97 52.22 C 143.97 53.09 144.68 53.79 145.54 53.79 Z M 146.61 53.80 L 147.64 53.80 C 148.51 53.80 149.21 53.09 149.21 52.22 C 149.21 51.36 148.51 50.65 147.64 50.65 L 146.61 50.65 C 145.74 50.65 145.04 51.36 145.04 52.22 C 145.04 53.09 145.74 53.80 146.61 53.80 Z M 147.64 53.80 L 148.55 53.80 C 149.42 53.80 150.13 53.09 150.13 52.22 C 150.13 51.35 149.42 50.65 148.55 50.65 L 147.64 50.65 C 146.77 50.65 146.07 51.35 146.07 52.22 C 146.07 53.09 146.77 53.80 147.64 53.80 Z M 148.56 53.80 L 149.64 53.80 C 150.51 53.80 151.22 53.09 151.21 52.22 C 151.21 51.35 150.50 50.64 149.63 50.64 L 148.55 50.65 C 147.68 50.65 146.97 51.36 146.98 52.23 C 146.98 53.10 147.68 53.80 148.56 53.80 Z M 149.67 53.80 L 150.58 53.78 C 151.45 53.77 152.14 53.04 152.13 52.17 C 152.11 51.30 151.39 50.61 150.52 50.62 L 149.61 50.64 C 148.73 50.66 148.04 51.38 148.06 52.25 C 148.07 53.12 148.79 53.82 149.67 53.80 Z M 150.64 53.78 L 151.64 53.73 C 152.51 53.68 153.17 52.93 153.12 52.06 C 153.07 51.18 152.33 50.52 151.46 50.57 L 150.46 50.62 C 149.59 50.67 148.92 51.42 148.97 52.29 C 149.02 53.17 149.77 53.83 150.64 53.78 Z M 151.72 53.72 L 152.70 53.61 C 153.57 53.52 154.20 52.73 154.10 51.86 C 154.01 51.00 153.23 50.37 152.36 50.46 L 151.37 50.57 C 150.50 50.67 149.88 51.45 149.97 52.32 C 150.07 53.19 150.85 53.82 151.72 53.72 Z M 152.75 53.61 L 153.74 53.47 C 154.61 53.34 155.21 52.54 155.09 51.67 C 154.97 50.81 154.16 50.21 153.30 50.33 L 152.31 50.47 C 151.44 50.59 150.84 51.39 150.96 52.26 C 151.08 53.13 151.89 53.73 152.75 53.61 Z M 153.74 53.47 L 154.66 53.34 C 155.53 53.22 156.13 52.42 156.01 51.55 C 155.89 50.68 155.09 50.08 154.22 50.20 L 153.30 50.33 C 152.43 50.45 151.83 51.25 151.95 52.12 C 152.07 52.98 152.87 53.59 153.74 53.47 Z M 154.65 53.34 L 155.72 53.20 C 156.59 53.08 157.19 52.28 157.08 51.41 C 156.96 50.54 156.16 49.93 155.29 50.05 L 154.22 50.20 C 153.36 50.31 152.75 51.11 152.87 51.98 C 152.98 52.85 153.78 53.46 154.65 53.34 Z M 155.72 53.20 L 156.73 53.06 C 157.60 52.94 158.21 52.14 158.09 51.27 C 157.97 50.40 157.16 49.79 156.30 49.91 L 155.29 50.05 C 154.42 50.17 153.81 50.97 153.93 51.84 C 154.05 52.71 154.85 53.32 155.72 53.20 Z M 156.75 53.05 L 157.75 52.90 C 158.62 52.77 159.21 51.96 159.08 51.09 C 158.95 50.22 158.14 49.63 157.27 49.76 L 156.27 49.91 C 155.41 50.05 154.81 50.86 154.94 51.72 C 155.08 52.59 155.89 53.19 156.75 53.05 Z M 157.81 52.89 L 158.85 52.69 C 159.72 52.53 160.28 51.70 160.12 50.83 C 159.95 49.97 159.12 49.41 158.26 49.57 L 157.21 49.77 C 156.35 49.94 155.79 50.77 155.95 51.63 C 156.11 52.49 156.95 53.06 157.81 52.89 Z M 158.87 52.69 L 159.77 52.51 C 160.63 52.33 161.19 51.49 161.01 50.63 C 160.83 49.77 159.99 49.22 159.13 49.39 L 158.24 49.58 C 157.38 49.75 156.82 50.59 157.00 51.45 C 157.18 52.31 158.01 52.86 158.87 52.69 Z M 159.68 52.52 L 160.66 52.38 C 161.53 52.26 162.14 51.45 162.01 50.58 C 161.89 49.71 161.08 49.11 160.21 49.23 L 159.23 49.38 C 158.36 49.50 157.76 50.31 157.88 51.17 C 158.00 52.04 158.81 52.65 159.68 52.52 Z M 160.67 52.38 L 161.65 52.23 C 162.52 52.10 163.12 51.29 162.99 50.43 C 162.86 49.56 162.05 48.96 161.18 49.09 L 160.20 49.24 C 159.34 49.37 158.74 50.17 158.87 51.04 C 159.00 51.91 159.81 52.51 160.67 52.38 Z M 161.70 52.23 L 162.68 52.05 C 163.55 51.90 164.12 51.07 163.97 50.21 C 163.82 49.34 162.99 48.77 162.13 48.92 L 161.14 49.10 C 160.27 49.25 159.70 50.08 159.85 50.94 C 160.01 51.80 160.83 52.38 161.70 52.23 Z M 162.64 52.06 L 163.50 51.93 C 164.37 51.80 164.96 50.99 164.83 50.12 C 164.70 49.25 163.89 48.65 163.02 48.78 L 162.17 48.91 C 161.30 49.05 160.70 49.86 160.84 50.72 C 160.97 51.59 161.78 52.19 162.64 52.06 Z M 163.46 51.93 L 164.49 51.80 C 165.36 51.70 165.98 50.90 165.87 50.03 C 165.76 49.16 164.97 48.54 164.10 48.65 L 163.06 48.78 C 162.19 48.89 161.58 49.68 161.68 50.55 C 161.79 51.42 162.58 52.04 163.46 51.93 Z M 164.47 51.81 L 165.46 51.70 C 166.33 51.60 166.96 50.81 166.86 49.94 C 166.76 49.07 165.97 48.44 165.10 48.54 L 164.11 48.65 C 163.24 48.75 162.61 49.53 162.71 50.41 C 162.81 51.28 163.60 51.91 164.47 51.81 Z M 165.46 51.70 L 166.38 51.59 C 167.25 51.49 167.88 50.71 167.78 49.84 C 167.69 48.96 166.90 48.34 166.03 48.43 L 165.10 48.54 C 164.23 48.64 163.60 49.42 163.70 50.29 C 163.80 51.17 164.58 51.79 165.46 51.70 Z M 166.39 51.59 L 167.41 51.47 C 168.29 51.37 168.91 50.58 168.81 49.71 C 168.71 48.84 167.92 48.22 167.05 48.32 L 166.02 48.43 C 165.15 48.54 164.53 49.32 164.63 50.20 C 164.73 51.07 165.51 51.69 166.39 51.59 Z M 167.43 51.47 L 168.53 51.34 C 169.40 51.23 170.02 50.44 169.91 49.57 C 169.80 48.70 169.01 48.08 168.14 48.18 L 167.04 48.32 C 166.17 48.42 165.55 49.22 165.66 50.09 C 165.76 50.96 166.55 51.58 167.43 51.47 Z M 168.54 51.33 L 169.61 51.19 C 170.48 51.08 171.10 50.28 170.98 49.41 C 170.87 48.54 170.07 47.93 169.20 48.04 L 168.13 48.18 C 167.26 48.30 166.65 49.10 166.76 49.97 C 166.87 50.84 167.67 51.45 168.54 51.33 Z M 169.63 51.19 L 170.68 51.05 C 171.54 50.92 172.15 50.12 172.03 49.25 C 171.91 48.38 171.11 47.78 170.24 47.90 L 169.19 48.05 C 168.32 48.17 167.71 48.97 167.83 49.84 C 167.95 50.71 168.76 51.31 169.63 51.19 Z M 170.68 51.04 L 171.69 50.90 C 172.56 50.77 173.16 49.97 173.04 49.10 C 172.91 48.23 172.11 47.63 171.24 47.75 L 170.23 47.90 C 169.36 48.03 168.76 48.83 168.88 49.70 C 169.01 50.57 169.81 51.17 170.68 51.04 Z M 171.70 50.90 L 172.63 50.76 C 173.50 50.63 174.10 49.83 173.97 48.96 C 173.84 48.09 173.04 47.49 172.17 47.62 L 171.24 47.76 C 170.37 47.88 169.77 48.69 169.90 49.56 C 170.02 50.42 170.83 51.03 171.70 50.90 Z M 172.63 50.76 L 173.68 50.61 C 174.55 50.48 175.15 49.67 175.03 48.80 C 174.90 47.94 174.09 47.34 173.22 47.46 L 172.17 47.62 C 171.30 47.75 170.70 48.55 170.83 49.42 C 170.96 50.29 171.76 50.89 172.63 50.76 Z M 173.69 50.61 L 174.72 50.45 C 175.58 50.32 176.18 49.52 176.05 48.65 C 175.92 47.78 175.12 47.18 174.25 47.31 L 173.22 47.46 C 172.35 47.59 171.75 48.40 171.88 49.27 C 172.01 50.14 172.82 50.74 173.69 50.61 Z M 174.74 50.45 L 175.57 50.31 C 176.43 50.17 177.02 49.36 176.88 48.49 C 176.74 47.63 175.92 47.04 175.06 47.18 L 174.23 47.31 C 173.36 47.46 172.77 48.27 172.92 49.14 C 173.06 50.00 173.87 50.59 174.74 50.45 Z M 175.61 50.31 L 176.62 50.11 C 177.48 49.95 178.05 49.12 177.88 48.26 C 177.72 47.40 176.89 46.83 176.03 46.99 L 175.02 47.19 C 174.15 47.35 173.59 48.18 173.75 49.04 C 173.92 49.91 174.75 50.47 175.61 50.31 Z M 176.60 50.12 L 177.56 49.94 C 178.43 49.79 179.00 48.96 178.84 48.10 C 178.69 47.24 177.86 46.66 177.00 46.82 L 176.04 46.99 C 175.18 47.15 174.60 47.97 174.76 48.84 C 174.92 49.70 175.74 50.27 176.60 50.12 Z M 177.14 49.96 L 178.10 50.05 C 178.98 50.13 179.75 49.49 179.83 48.61 C 179.91 47.74 179.26 46.97 178.39 46.89 L 177.42 46.80 C 176.55 46.72 175.78 47.37 175.70 48.24 C 175.62 49.11 176.26 49.89 177.14 49.96 Z M 176.83 49.20 L 177.20 49.93 C 177.61 50.71 178.57 51.02 179.35 50.62 C 180.13 50.22 180.44 49.26 180.04 48.47 L 179.66 47.74 C 179.26 46.96 178.30 46.65 177.52 47.05 C 176.74 47.45 176.43 48.41 176.83 49.20 Z M 177.03 49.26 L 177.07 50.33 C 177.10 51.21 177.84 51.89 178.72 51.86 C 179.61 51.83 180.29 51.08 180.26 50.20 L 180.22 49.14 C 180.18 48.26 179.44 47.57 178.56 47.60 C 177.68 47.64 176.99 48.38 177.03 49.26 Z M 177.07 50.12 L 176.97 51.20 C 176.89 52.09 177.54 52.86 178.42 52.94 C 179.31 53.02 180.08 52.37 180.16 51.49 L 180.26 50.41 C 180.34 49.52 179.69 48.75 178.80 48.67 C 177.92 48.59 177.14 49.24 177.07 50.12 Z M 176.98 51.09 L 176.82 52.08 C 176.68 52.95 177.28 53.78 178.15 53.92 C 179.03 54.06 179.85 53.46 179.99 52.59 L 180.15 51.60 C 180.29 50.73 179.70 49.90 178.82 49.76 C 177.95 49.62 177.12 50.22 176.98 51.09 Z M 176.84 52.00 L 176.65 52.91 C 176.46 53.78 177.02 54.63 177.89 54.81 C 178.76 54.99 179.61 54.44 179.79 53.57 L 179.98 52.66 C 180.16 51.79 179.61 50.94 178.74 50.76 C 177.87 50.58 177.02 51.13 176.84 52.00 Z M 176.65 52.87 L 176.44 53.79 C 176.24 54.65 176.77 55.52 177.64 55.72 C 178.50 55.92 179.37 55.39 179.57 54.52 L 179.78 53.61 C 179.99 52.74 179.45 51.88 178.58 51.67 C 177.72 51.47 176.85 52.01 176.65 52.87 Z M 176.44 53.79 L 176.19 54.85 C 175.99 55.71 176.53 56.58 177.40 56.78 C 178.27 56.97 179.13 56.43 179.33 55.57 L 179.57 54.52 C 179.77 53.65 179.23 52.79 178.36 52.59 C 177.50 52.39 176.64 52.93 176.44 53.79 Z M 176.19 54.86 L 175.99 55.78 C 175.80 56.65 176.35 57.51 177.22 57.70 C 178.09 57.89 178.94 57.34 179.13 56.47 L 179.33 55.55 C 179.52 54.68 178.97 53.82 178.10 53.64 C 177.24 53.45 176.38 54.00 176.19 54.86 Z M 175.99 55.79 L 175.77 56.80 C 175.59 57.67 176.15 58.52 177.02 58.71 C 177.89 58.89 178.74 58.34 178.92 57.47 L 179.14 56.46 C 179.32 55.59 178.76 54.74 177.89 54.55 C 177.02 54.37 176.17 54.92 175.99 55.79 Z M 175.77 56.81 L 175.56 57.83 C 175.38 58.70 175.94 59.56 176.81 59.74 C 177.68 59.92 178.53 59.36 178.71 58.49 L 178.93 57.46 C 179.11 56.59 178.55 55.74 177.68 55.56 C 176.80 55.38 175.95 55.94 175.77 56.81 Z M 175.56 57.84 L 175.34 58.92 C 175.16 59.79 175.72 60.64 176.59 60.82 C 177.46 61.00 178.31 60.44 178.49 59.57 L 178.71 58.48 C 178.89 57.61 178.33 56.76 177.46 56.58 C 176.59 56.40 175.74 56.96 175.56 57.84 Z M 175.34 58.92 L 175.13 59.92 C 174.95 60.80 175.51 61.65 176.38 61.83 C 177.26 62.01 178.11 61.44 178.29 60.57 L 178.49 59.57 C 178.67 58.69 178.11 57.84 177.24 57.66 C 176.37 57.48 175.51 58.05 175.34 58.92 Z M 175.13 59.92 L 174.95 60.80 C 174.76 61.67 175.32 62.52 176.19 62.70 C 177.06 62.89 177.92 62.33 178.10 61.46 L 178.28 60.58 C 178.47 59.71 177.91 58.85 177.04 58.67 C 176.17 58.49 175.31 59.05 175.13 59.92 Z M 174.95 60.78 L 174.72 61.81 C 174.53 62.68 175.08 63.54 175.94 63.73 C 176.81 63.93 177.67 63.38 177.87 62.51 L 178.10 61.48 C 178.29 60.61 177.74 59.75 176.87 59.55 C 176.00 59.36 175.14 59.91 174.95 60.78 Z M 174.73 61.78 L 174.51 62.67 C 174.30 63.54 174.83 64.41 175.69 64.62 C 176.56 64.83 177.43 64.30 177.64 63.44 L 177.86 62.54 C 178.07 61.68 177.54 60.81 176.68 60.60 C 175.81 60.38 174.94 60.91 174.73 61.78 Z M 174.52 62.65 L 174.27 63.60 C 174.04 64.46 174.56 65.34 175.42 65.57 C 176.28 65.79 177.16 65.28 177.39 64.41 L 177.63 63.46 C 177.86 62.60 177.34 61.72 176.48 61.50 C 175.62 61.27 174.74 61.79 174.52 62.65 Z M 174.27 63.59 L 174.01 64.56 C 173.78 65.42 174.29 66.30 175.15 66.53 C 176.01 66.76 176.89 66.25 177.12 65.39 L 177.38 64.42 C 177.61 63.56 177.10 62.68 176.24 62.45 C 175.38 62.22 174.50 62.73 174.27 63.59 Z M 174.01 64.56 L 173.76 65.50 C 173.53 66.36 174.04 67.25 174.90 67.48 C 175.76 67.71 176.64 67.20 176.87 66.34 L 177.12 65.39 C 177.35 64.53 176.84 63.65 175.99 63.42 C 175.13 63.19 174.24 63.70 174.01 64.56 Z M 173.76 65.50 L 173.49 66.48 C 173.26 67.34 173.76 68.22 174.62 68.46 C 175.48 68.69 176.37 68.19 176.60 67.33 L 176.87 66.34 C 177.10 65.49 176.60 64.60 175.74 64.37 C 174.88 64.13 173.99 64.64 173.76 65.50 Z M 173.49 66.47 L 173.22 67.43 C 172.98 68.29 173.48 69.18 174.34 69.42 C 175.20 69.66 176.09 69.16 176.33 68.30 L 176.60 67.34 C 176.84 66.48 176.34 65.59 175.48 65.35 C 174.62 65.11 173.73 65.61 173.49 66.47 Z M 173.23 67.41 L 172.95 68.39 C 172.70 69.24 173.19 70.13 174.04 70.38 C 174.90 70.63 175.79 70.14 176.04 69.29 L 176.32 68.32 C 176.57 67.46 176.08 66.57 175.23 66.32 C 174.37 66.07 173.48 66.56 173.23 67.41 Z M 172.95 68.37 L 172.66 69.32 C 172.40 70.17 172.88 71.07 173.74 71.33 C 174.59 71.59 175.49 71.11 175.75 70.25 L 176.03 69.30 C 176.29 68.45 175.81 67.55 174.96 67.30 C 174.11 67.04 173.21 67.52 172.95 68.37 Z M 172.67 69.31 L 172.37 70.27 C 172.10 71.12 172.58 72.02 173.43 72.29 C 174.28 72.55 175.18 72.08 175.44 71.23 L 175.74 70.26 C 176.01 69.41 175.53 68.51 174.68 68.25 C 173.83 67.98 172.93 68.46 172.67 69.31 Z M 172.37 70.27 L 172.08 71.19 C 171.82 72.04 172.29 72.94 173.14 73.21 C 173.99 73.47 174.89 73.00 175.16 72.15 L 175.44 71.23 C 175.71 70.38 175.23 69.47 174.38 69.21 C 173.53 68.95 172.63 69.42 172.37 70.27 Z M 172.08 71.19 L 171.78 72.15 C 171.51 73.00 171.98 73.91 172.83 74.18 C 173.68 74.44 174.58 73.97 174.85 73.12 L 175.16 72.16 C 175.42 71.31 174.95 70.40 174.10 70.13 C 173.26 69.87 172.35 70.34 172.08 71.19 Z M 171.78 72.14 L 171.47 73.09 C 171.20 73.93 171.66 74.84 172.51 75.12 C 173.36 75.39 174.27 74.93 174.54 74.08 L 174.85 73.14 C 175.12 72.29 174.66 71.38 173.81 71.10 C 172.96 70.83 172.05 71.29 171.78 72.14 Z M 171.47 73.07 L 171.16 74.01 C 170.87 74.86 171.33 75.78 172.18 76.06 C 173.03 76.35 173.94 75.89 174.23 75.04 L 174.54 74.10 C 174.83 73.25 174.37 72.33 173.52 72.05 C 172.67 71.77 171.76 72.22 171.47 73.07 Z M 171.16 74.00 L 170.82 74.97 C 170.53 75.82 170.98 76.74 171.83 77.04 C 172.67 77.33 173.60 76.88 173.89 76.03 L 174.23 75.06 C 174.52 74.21 174.07 73.28 173.22 72.99 C 172.37 72.70 171.45 73.15 171.16 74.00 Z M 170.82 74.96 L 170.49 75.87 C 170.19 76.72 170.64 77.65 171.48 77.95 C 172.33 78.26 173.26 77.81 173.56 76.97 L 173.89 76.05 C 174.19 75.20 173.75 74.27 172.90 73.97 C 172.05 73.67 171.12 74.11 170.82 74.96 Z M 170.49 75.86 L 170.15 76.80 C 169.85 77.65 170.28 78.59 171.13 78.90 C 171.98 79.20 172.92 78.77 173.22 77.92 L 173.56 76.98 C 173.87 76.13 173.43 75.19 172.59 74.88 C 171.74 74.58 170.80 75.02 170.49 75.86 Z M 170.15 76.80 L 169.80 77.75 C 169.49 78.60 169.92 79.54 170.77 79.86 C 171.62 80.17 172.56 79.73 172.87 78.88 L 173.23 77.93 C 173.54 77.08 173.10 76.14 172.25 75.82 C 171.40 75.51 170.46 75.95 170.15 76.80 Z M 169.80 77.75 L 169.46 78.65 C 169.15 79.50 169.59 80.45 170.44 80.76 C 171.29 81.07 172.23 80.64 172.54 79.79 L 172.88 78.89 C 173.19 78.04 172.76 77.09 171.91 76.78 C 171.06 76.47 170.11 76.90 169.80 77.75 Z M 169.47 78.64 L 169.12 79.58 C 168.80 80.43 169.23 81.37 170.08 81.69 C 170.93 82.01 171.87 81.58 172.19 80.73 L 172.54 79.80 C 172.86 78.95 172.43 78.00 171.58 77.68 C 170.73 77.37 169.78 77.80 169.47 78.64 Z M 169.12 79.56 L 168.74 80.54 C 168.42 81.38 168.84 82.34 169.69 82.66 C 170.54 82.99 171.49 82.57 171.81 81.72 L 172.19 80.75 C 172.51 79.90 172.09 78.95 171.24 78.62 C 170.40 78.29 169.44 78.72 169.12 79.56 Z M 168.75 80.52 L 168.38 81.45 C 168.05 82.29 168.46 83.25 169.30 83.58 C 170.15 83.92 171.11 83.51 171.44 82.66 L 171.81 81.73 C 172.15 80.89 171.73 79.93 170.89 79.60 C 170.04 79.26 169.08 79.67 168.75 80.52 Z M 168.39 81.43 L 168.00 82.36 C 167.65 83.20 168.06 84.17 168.90 84.52 C 169.74 84.86 170.71 84.46 171.05 83.62 L 171.44 82.68 C 171.79 81.84 171.38 80.87 170.54 80.53 C 169.70 80.18 168.73 80.58 168.39 81.43 Z M 168.01 82.34 L 167.61 83.26 C 167.25 84.10 167.64 85.07 168.48 85.43 C 169.32 85.79 170.29 85.40 170.65 84.56 L 171.05 83.64 C 171.41 82.80 171.02 81.83 170.18 81.47 C 169.34 81.11 168.37 81.50 168.01 82.34 Z M 167.62 83.23 L 167.21 84.15 C 166.83 84.99 167.20 85.97 168.04 86.34 C 168.87 86.72 169.85 86.35 170.23 85.52 L 170.64 84.59 C 171.02 83.76 170.65 82.78 169.81 82.40 C 168.98 82.03 168.00 82.40 167.62 83.23 Z M 167.22 84.12 L 166.79 85.03 C 166.39 85.86 166.74 86.85 167.56 87.24 C 168.39 87.64 169.38 87.29 169.77 86.46 L 170.21 85.55 C 170.61 84.73 170.26 83.74 169.43 83.34 C 168.61 82.95 167.62 83.29 167.22 84.12 Z M 166.81 85.00 L 166.36 85.87 C 165.94 86.69 166.27 87.68 167.08 88.10 C 167.89 88.51 168.89 88.19 169.30 87.38 L 169.75 86.50 C 170.17 85.69 169.84 84.69 169.03 84.28 C 168.22 83.86 167.22 84.18 166.81 85.00 Z M 166.38 85.84 L 165.91 86.70 C 165.48 87.50 165.77 88.51 166.58 88.94 C 167.38 89.38 168.38 89.08 168.82 88.27 L 169.28 87.41 C 169.72 86.61 169.42 85.61 168.62 85.17 C 167.82 84.74 166.81 85.04 166.38 85.84 Z M 165.93 86.67 L 165.44 87.53 C 164.98 88.32 165.26 89.33 166.05 89.79 C 166.84 90.24 167.85 89.96 168.31 89.17 L 168.80 88.31 C 169.25 87.51 168.98 86.51 168.18 86.05 C 167.39 85.60 166.38 85.87 165.93 86.67 Z M 165.45 87.50 L 164.94 88.36 C 164.47 89.15 164.73 90.16 165.51 90.63 C 166.29 91.10 167.31 90.84 167.78 90.06 L 168.29 89.20 C 168.76 88.42 168.50 87.40 167.72 86.93 C 166.94 86.46 165.92 86.72 165.45 87.50 Z M 164.95 88.34 L 164.42 89.19 C 163.94 89.97 164.18 90.99 164.96 91.47 C 165.73 91.95 166.75 91.71 167.23 90.93 L 167.76 90.08 C 168.24 89.30 168.00 88.29 167.23 87.80 C 166.45 87.32 165.43 87.56 164.95 88.34 Z M 164.44 89.17 L 163.90 90.01 C 163.41 90.78 163.64 91.80 164.41 92.29 C 165.18 92.78 166.20 92.55 166.69 91.79 L 167.22 90.95 C 167.71 90.18 167.49 89.16 166.72 88.67 C 165.95 88.18 164.93 88.40 164.44 89.17 Z M 163.92 89.98 L 163.37 90.82 C 162.86 91.58 163.07 92.60 163.83 93.11 C 164.59 93.61 165.62 93.40 166.12 92.64 L 166.67 91.81 C 167.18 91.05 166.97 90.02 166.21 89.52 C 165.45 89.02 164.42 89.22 163.92 89.98 Z M 163.39 90.79 L 162.81 91.62 C 162.29 92.37 162.48 93.40 163.23 93.92 C 163.98 94.44 165.01 94.25 165.53 93.50 L 166.10 92.67 C 166.62 91.92 166.43 90.89 165.69 90.37 C 164.94 89.85 163.91 90.04 163.39 90.79 Z M 162.83 91.59 L 162.26 92.38 C 161.72 93.12 161.88 94.15 162.62 94.69 C 163.36 95.22 164.39 95.06 164.93 94.32 L 165.50 93.53 C 166.04 92.79 165.88 91.76 165.14 91.23 C 164.40 90.69 163.37 90.85 162.83 91.59 Z M 162.27 92.37 L 161.68 93.16 C 161.13 93.89 161.28 94.92 162.01 95.47 C 162.74 96.01 163.77 95.87 164.32 95.14 L 164.91 94.34 C 165.46 93.61 165.31 92.58 164.58 92.03 C 163.85 91.49 162.82 91.64 162.27 92.37 Z M 161.68 93.16 L 161.07 93.96 C 160.52 94.69 160.67 95.72 161.40 96.27 C 162.12 96.82 163.16 96.68 163.70 95.95 L 164.31 95.14 C 164.86 94.41 164.72 93.38 163.99 92.83 C 163.26 92.28 162.23 92.43 161.68 93.16 Z M 161.07 93.97 L 160.47 94.77 C 159.93 95.50 160.08 96.53 160.81 97.08 C 161.54 97.62 162.57 97.47 163.11 96.74 L 163.71 95.94 C 164.25 95.21 164.10 94.18 163.37 93.64 C 162.64 93.09 161.61 93.24 161.07 93.97 Z M 160.46 94.78 L 159.89 95.57 C 159.35 96.30 159.51 97.33 160.24 97.87 C 160.98 98.41 162.01 98.25 162.55 97.51 L 163.12 96.73 C 163.66 96.00 163.50 94.96 162.76 94.43 C 162.03 93.89 161.00 94.05 160.46 94.78 Z M 159.88 95.58 L 159.30 96.39 C 158.77 97.12 158.93 98.15 159.67 98.68 C 160.40 99.22 161.43 99.05 161.96 98.31 L 162.55 97.50 C 163.08 96.77 162.92 95.74 162.18 95.21 C 161.44 94.67 160.42 94.84 159.88 95.58 Z M 159.30 96.39 L 158.69 97.23 C 158.17 97.97 158.34 99.00 159.07 99.53 C 159.81 100.05 160.84 99.88 161.37 99.15 L 161.97 98.31 C 162.50 97.57 162.33 96.54 161.59 96.01 C 160.85 95.49 159.82 95.66 159.30 96.39 Z M 158.69 97.24 L 158.11 98.05 C 157.58 98.79 157.75 99.82 158.49 100.34 C 159.23 100.87 160.26 100.70 160.78 99.96 L 161.37 99.14 C 161.89 98.41 161.72 97.38 160.98 96.85 C 160.25 96.33 159.22 96.50 158.69 97.24 Z M 158.11 98.06 L 157.53 98.88 C 157.00 99.62 157.18 100.64 157.92 101.16 C 158.66 101.69 159.68 101.51 160.21 100.77 L 160.79 99.96 C 161.31 99.22 161.13 98.19 160.39 97.67 C 159.66 97.14 158.63 97.32 158.11 98.06 Z M 157.52 98.89 L 156.94 99.71 C 156.43 100.46 156.61 101.48 157.35 102.00 C 158.09 102.52 159.12 102.33 159.63 101.59 L 160.21 100.76 C 160.73 100.02 160.55 99.00 159.81 98.48 C 159.06 97.96 158.04 98.14 157.52 98.89 Z M 156.94 99.73 L 156.37 100.56 C 155.86 101.30 156.05 102.32 156.80 102.83 C 157.55 103.34 158.57 103.15 159.08 102.41 L 159.64 101.58 C 160.15 100.83 159.96 99.81 159.21 99.30 C 158.47 98.79 157.45 98.98 156.94 99.73 Z M 156.36 100.58 L 155.80 101.42 C 155.30 102.18 155.51 103.19 156.26 103.69 C 157.01 104.19 158.03 103.98 158.53 103.23 L 159.09 102.38 C 159.59 101.63 159.38 100.61 158.63 100.12 C 157.87 99.62 156.86 99.82 156.36 100.58 Z M 155.79 101.44 L 155.24 102.29 C 154.75 103.05 154.98 104.07 155.74 104.55 C 156.50 105.04 157.51 104.82 158.00 104.06 L 158.54 103.21 C 159.03 102.45 158.81 101.44 158.05 100.95 C 157.29 100.46 156.28 100.68 155.79 101.44 Z M 155.23 102.31 L 154.71 103.15 C 154.23 103.91 154.46 104.92 155.22 105.40 C 155.99 105.88 157.00 105.65 157.47 104.89 L 158.00 104.04 C 158.48 103.28 158.25 102.27 157.49 101.79 C 156.72 101.31 155.71 101.54 155.23 102.31 Z M 154.70 103.16 L 154.19 103.99 C 153.71 104.76 153.95 105.77 154.71 106.24 C 155.48 106.72 156.48 106.48 156.96 105.71 L 157.48 104.88 C 157.95 104.11 157.72 103.11 156.95 102.63 C 156.18 102.16 155.18 102.39 154.70 103.16 Z M 154.19 104.00 L 153.66 104.85 C 153.19 105.61 153.43 106.61 154.19 107.09 C 154.96 107.56 155.96 107.32 156.43 106.56 L 156.96 105.71 C 157.43 104.95 157.20 103.94 156.43 103.47 C 155.66 102.99 154.66 103.23 154.19 104.00 Z M 153.66 104.85 L 153.14 105.70 C 152.66 106.46 152.90 107.47 153.67 107.94 C 154.43 108.41 155.43 108.17 155.90 107.41 L 156.43 106.56 C 156.90 105.79 156.67 104.79 155.90 104.32 C 155.14 103.85 154.14 104.08 153.66 104.85 Z M 153.14 105.70 L 152.61 106.55 C 152.14 107.32 152.38 108.32 153.14 108.79 C 153.91 109.26 154.91 109.02 155.38 108.26 L 155.90 107.41 C 156.37 106.64 156.14 105.64 155.37 105.17 C 154.61 104.70 153.61 104.94 153.14 105.70 Z M 152.61 106.56 L 152.09 107.41 C 151.63 108.17 151.87 109.17 152.63 109.64 C 153.39 110.11 154.39 109.87 154.86 109.10 L 155.38 108.25 C 155.85 107.49 155.61 106.49 154.84 106.02 C 154.08 105.55 153.08 105.80 152.61 106.56 Z M 152.09 107.42 L 151.56 108.29 C 151.10 109.05 151.34 110.05 152.11 110.51 C 152.87 110.97 153.87 110.73 154.33 109.97 L 154.86 109.10 C 155.32 108.33 155.08 107.34 154.32 106.87 C 153.55 106.41 152.56 106.65 152.09 107.42 Z M 151.57 108.29 L 151.04 109.15 C 150.58 109.92 150.83 110.91 151.59 111.37 C 152.35 111.83 153.35 111.59 153.81 110.83 L 154.33 109.96 C 154.79 109.20 154.55 108.20 153.78 107.74 C 153.02 107.28 152.03 107.53 151.57 108.29 Z M 151.05 109.15 L 150.53 110.00 C 150.07 110.76 150.31 111.75 151.07 112.22 C 151.83 112.68 152.83 112.44 153.29 111.67 L 153.80 110.83 C 154.27 110.07 154.02 109.07 153.26 108.61 C 152.50 108.15 151.51 108.39 151.05 109.15 Z M 150.54 109.99 L 150.02 110.84 C 149.55 111.60 149.79 112.59 150.55 113.05 C 151.30 113.52 152.29 113.28 152.76 112.53 L 153.28 111.68 C 153.75 110.92 153.51 109.93 152.75 109.47 C 152.00 109.00 151.01 109.24 150.54 109.99 Z M 150.03 110.83 L 149.48 111.70 C 149.01 112.45 149.24 113.45 149.99 113.92 C 150.74 114.39 151.73 114.16 152.20 113.41 L 152.75 112.54 C 153.22 111.79 153.00 110.79 152.24 110.32 C 151.49 109.85 150.50 110.08 150.03 110.83 Z M 149.49 111.69 L 148.95 112.53 C 148.47 113.28 148.69 114.27 149.44 114.75 C 150.18 115.23 151.17 115.01 151.65 114.26 L 152.19 113.42 C 152.67 112.68 152.45 111.69 151.71 111.21 C 150.96 110.73 149.97 110.95 149.49 111.69 Z M 148.96 112.52 L 148.43 113.33 C 147.95 114.07 148.16 115.06 148.90 115.54 C 149.63 116.03 150.63 115.82 151.11 115.08 L 151.64 114.27 C 152.12 113.54 151.92 112.54 151.18 112.06 C 150.44 111.57 149.45 111.78 148.96 112.52 Z M 148.45 113.31 L 147.88 114.16 C 147.39 114.89 147.58 115.89 148.31 116.38 C 149.05 116.87 150.04 116.67 150.53 115.94 L 151.10 115.10 C 151.59 114.36 151.40 113.37 150.66 112.88 C 149.93 112.39 148.94 112.58 148.45 113.31 Z M 147.89 114.14 L 147.32 114.97 C 146.82 115.69 147.00 116.69 147.73 117.19 C 148.46 117.69 149.45 117.51 149.95 116.78 L 150.52 115.96 C 151.02 115.23 150.84 114.24 150.11 113.74 C 149.39 113.23 148.39 113.42 147.89 114.14 Z M 147.34 114.95 L 146.77 115.74 C 146.26 116.46 146.42 117.46 147.14 117.97 C 147.86 118.48 148.86 118.32 149.37 117.60 L 149.94 116.80 C 150.45 116.08 150.28 115.09 149.56 114.57 C 148.85 114.06 147.85 114.23 147.34 114.95 Z M 146.78 115.72 L 146.17 116.56 C 145.64 117.27 145.79 118.27 146.50 118.79 C 147.21 119.32 148.21 119.17 148.74 118.46 L 149.35 117.62 C 149.88 116.91 149.73 115.91 149.02 115.39 C 148.31 114.86 147.31 115.01 146.78 115.72 Z M 146.18 116.54 L 145.56 117.35 C 145.03 118.05 145.17 119.06 145.87 119.59 C 146.57 120.12 147.58 119.99 148.11 119.28 L 148.72 118.47 C 149.26 117.77 149.12 116.77 148.42 116.24 C 147.71 115.70 146.71 115.84 146.18 116.54 Z M 145.57 117.34 L 145.00 118.09 C 144.46 118.78 144.58 119.79 145.28 120.33 C 145.98 120.87 146.98 120.74 147.52 120.04 L 148.10 119.30 C 148.64 118.60 148.51 117.59 147.81 117.05 C 147.12 116.51 146.11 116.64 145.57 117.34 Z M 145.00 118.08 L 144.34 118.92 C 143.80 119.61 143.92 120.62 144.61 121.16 C 145.31 121.71 146.31 121.59 146.86 120.89 L 147.52 120.05 C 148.06 119.36 147.94 118.35 147.25 117.81 C 146.55 117.26 145.55 117.38 145.00 118.08 Z M 144.35 118.91 L 143.77 119.63 C 143.22 120.32 143.33 121.33 144.02 121.88 C 144.71 122.43 145.72 122.32 146.27 121.63 L 146.85 120.90 C 147.40 120.21 147.29 119.21 146.60 118.66 C 145.91 118.11 144.90 118.22 144.35 118.91 Z M 143.77 119.63 L 143.19 120.36 C 142.64 121.05 142.75 122.06 143.43 122.61 C 144.12 123.16 145.13 123.05 145.68 122.36 L 146.26 121.63 C 146.82 120.94 146.71 119.94 146.02 119.39 C 145.33 118.83 144.32 118.94 143.77 119.63 Z M 143.16 120.40 L 142.52 121.25 C 141.99 121.96 142.13 122.96 142.84 123.49 C 143.55 124.01 144.55 123.87 145.08 123.17 L 145.71 122.32 C 146.24 121.61 146.10 120.61 145.39 120.08 C 144.69 119.55 143.68 119.70 143.16 120.40 Z M 142.48 121.30 L 141.94 122.09 C 141.44 122.82 141.63 123.81 142.36 124.31 C 143.08 124.81 144.08 124.62 144.58 123.90 L 145.11 123.11 C 145.61 122.38 145.43 121.39 144.70 120.89 C 143.97 120.39 142.98 120.58 142.48 121.30 Z M 141.91 122.14 L 141.36 123.01 C 140.89 123.75 141.11 124.74 141.85 125.21 C 142.60 125.68 143.58 125.46 144.05 124.72 L 144.61 123.85 C 145.08 123.10 144.86 122.12 144.11 121.65 C 143.37 121.17 142.38 121.39 141.91 122.14 Z M 141.32 123.07 L 140.80 123.98 C 140.36 124.75 140.63 125.72 141.39 126.16 C 142.16 126.60 143.13 126.33 143.57 125.57 L 144.09 124.66 C 144.53 123.89 144.26 122.92 143.50 122.48 C 142.73 122.04 141.76 122.31 141.32 123.07 Z M 140.75 124.07 L 140.30 125.00 C 139.92 125.79 140.25 126.74 141.04 127.13 C 141.83 127.51 142.78 127.19 143.17 126.39 L 143.62 125.47 C 144.01 124.68 143.68 123.73 142.89 123.34 C 142.09 122.95 141.14 123.28 140.75 124.07 Z M 140.25 125.12 L 139.91 126.00 C 139.59 126.82 140.00 127.74 140.82 128.06 C 141.64 128.38 142.56 127.97 142.88 127.15 L 143.22 126.27 C 143.54 125.45 143.13 124.53 142.31 124.21 C 141.50 123.89 140.57 124.30 140.25 125.12 Z M 139.86 126.16 L 139.59 127.17 C 139.36 128.01 139.86 128.89 140.71 129.11 C 141.56 129.34 142.43 128.84 142.66 127.99 L 142.93 126.99 C 143.16 126.14 142.65 125.27 141.81 125.04 C 140.96 124.81 140.09 125.32 139.86 126.16 Z M 139.55 127.38 L 139.43 128.33 C 139.32 129.20 139.93 129.99 140.80 130.10 C 141.67 130.22 142.46 129.60 142.57 128.74 L 142.69 127.78 C 142.81 126.91 142.19 126.12 141.33 126.01 C 140.46 125.90 139.66 126.51 139.55 127.38 Z M 139.43 128.67 L 139.52 129.67 C 139.59 130.54 140.35 131.18 141.22 131.11 C 142.09 131.03 142.73 130.27 142.66 129.40 L 142.57 128.40 C 142.50 127.53 141.73 126.89 140.87 126.96 C 140.00 127.04 139.36 127.80 139.43 128.67 Z M 139.79 130.41 L 140.31 131.18 C 140.79 131.89 141.76 132.08 142.47 131.60 C 143.19 131.12 143.38 130.15 142.90 129.43 L 142.38 128.67 C 141.90 127.95 140.93 127.76 140.22 128.24 C 139.50 128.73 139.31 129.69 139.79 130.41 Z M 140.86 131.64 L 141.70 132.10 C 142.43 132.51 143.36 132.24 143.77 131.51 C 144.18 130.77 143.91 129.84 143.18 129.43 L 142.34 128.97 C 141.60 128.56 140.68 128.83 140.27 129.56 C 139.86 130.30 140.12 131.23 140.86 131.64 Z M 141.92 132.16 L 142.84 132.50 C 143.60 132.79 144.46 132.40 144.74 131.63 C 145.03 130.86 144.64 130.01 143.87 129.72 L 142.95 129.38 C 142.19 129.09 141.33 129.48 141.05 130.25 C 140.76 131.02 141.15 131.87 141.92 132.16 Z"
      fill="black"
      fill-rule="nonzero" /></svg>