<svg xmlns="http://www.w3.org/2000/svg" width="300" height="300" viewBox="0 0 300 300">
<path d="M 67.70 75.96 L 67.06 76.75 C 66.56 77.37 66.65 78.29 67.28 78.79 C 67.90 79.30 68.81 79.20 69.32 78.58 L 69.96 77.79 C 70.46 77.16 70.37 76.25 69.74 75.74 C 69.12 75.24 68.21 75.34 67.70 75.96 Z M 66.86 77.08 L 66.47 77.96 C 66.15 78.69 66.48 79.55 67.21 79.87 C 67.95 80.20 68.80 79.87 69.13 79.13 L 69.52 78.25 C 69.84 77.52 69.51 76.66 68.78 76.34 C 68.04 76.01 67.19 76.34 66.86 77.08 Z M 66.35 78.58 L 66.37 79.57 C 66.39 80.37 67.06 81.00 67.86 80.99 C 68.66 80.97 69.30 80.30 69.28 79.50 L 69.25 78.51 C 69.23 77.71 68.57 77.07 67.76 77.09 C 66.96 77.11 66.33 77.78 66.35 78.58 Z M 66.49 80.10 L 66.88 81.03 C 67.20 81.77 68.05 82.11 68.79 81.80 C 69.53 81.49 69.87 80.64 69.56 79.90 L 69.16 78.97 C 68.85 78.23 67.99 77.88 67.26 78.20 C 66.52 78.51 66.17 79.36 66.49 80.10 Z M 67.16 81.46 L 67.84 82.18 C 68.39 82.76 69.31 82.79 69.90 82.24 C 70.48 81.69 70.50 80.77 69.95 80.19 L 69.28 79.47 C 68.73 78.89 67.81 78.86 67.22 79.41 C 66.64 79.96 66.61 80.88 67.16 81.46 Z M 68.43 82.56 L 69.39 82.88 C 70.15 83.14 70.97 82.73 71.23 81.98 C 71.49 81.22 71.08 80.39 70.32 80.13 L 69.37 79.81 C 68.61 79.55 67.78 79.96 67.52 80.72 C 67.27 81.48 67.67 82.30 68.43 82.56 Z M 70.48 82.82 L 71.27 82.44 C 72.00 82.10 72.31 81.23 71.97 80.51 C 71.62 79.78 70.76 79.48 70.03 79.82 L 69.23 80.20 C 68.51 80.54 68.20 81.40 68.54 82.13 C 68.88 82.85 69.75 83.16 70.48 82.82 Z M 71.92 81.84 L 72.41 80.95 C 72.80 80.25 72.55 79.37 71.85 78.98 C 71.15 78.59 70.26 78.84 69.88 79.54 L 69.38 80.42 C 69.00 81.13 69.25 82.01 69.95 82.40 C 70.65 82.79 71.53 82.54 71.92 81.84 Z M 72.54 80.65 L 72.83 79.65 C 73.05 78.88 72.61 78.07 71.84 77.85 C 71.07 77.63 70.26 78.07 70.04 78.84 L 69.75 79.84 C 69.53 80.61 69.97 81.42 70.74 81.64 C 71.51 81.87 72.31 81.42 72.54 80.65 Z M 72.87 79.48 L 73.03 78.49 C 73.15 77.70 72.62 76.95 71.82 76.83 C 71.03 76.70 70.29 77.24 70.16 78.03 L 70.00 79.02 C 69.87 79.81 70.41 80.55 71.21 80.68 C 72.00 80.81 72.74 80.27 72.87 79.48 Z M 73.04 78.35 L 73.11 77.34 C 73.16 76.54 72.55 75.85 71.75 75.80 C 70.94 75.75 70.25 76.36 70.20 77.16 L 70.14 78.17 C 70.09 78.97 70.70 79.66 71.50 79.71 C 72.31 79.76 73.00 79.15 73.04 78.35 Z M 73.11 77.17 L 73.06 76.18 C 73.01 75.38 72.32 74.76 71.52 74.81 C 70.71 74.86 70.10 75.55 70.14 76.35 L 70.20 77.33 C 70.25 78.14 70.94 78.75 71.74 78.70 C 72.54 78.66 73.16 77.97 73.11 77.17 Z M 73.01 75.87 L 72.74 74.92 C 72.52 74.15 71.71 73.70 70.93 73.92 C 70.16 74.14 69.70 74.95 69.93 75.72 L 70.19 76.67 C 70.41 77.44 71.22 77.89 72.00 77.67 C 72.78 77.45 73.23 76.64 73.01 75.87 Z M 72.35 74.27 L 71.66 73.60 C 71.08 73.03 70.15 73.04 69.59 73.62 C 69.02 74.20 69.04 75.13 69.62 75.70 L 70.31 76.37 C 70.89 76.94 71.82 76.92 72.38 76.34 C 72.95 75.77 72.93 74.84 72.35 74.27 Z M 71.01 73.23 L 70.05 72.97 C 69.27 72.77 68.47 73.24 68.26 74.02 C 68.05 74.80 68.52 75.60 69.30 75.81 L 70.26 76.06 C 71.05 76.27 71.85 75.80 72.06 75.02 C 72.26 74.24 71.80 73.43 71.01 73.23 Z M 69.37 72.96 L 68.40 73.16 C 67.61 73.33 67.10 74.11 67.27 74.91 C 67.44 75.70 68.22 76.20 69.01 76.04 L 69.98 75.83 C 70.78 75.66 71.28 74.88 71.11 74.09 C 70.94 73.29 70.16 72.79 69.37 72.96 Z M 67.68 73.55 L 66.99 74.23 C 66.41 74.79 66.40 75.72 66.97 76.30 C 67.53 76.88 68.46 76.89 69.04 76.33 L 69.73 75.65 C 70.31 75.08 70.32 74.15 69.76 73.57 C 69.19 72.99 68.26 72.98 67.68 73.55 Z M 66.70 74.62 L 66.25 75.54 C 65.88 76.26 66.18 77.14 66.91 77.51 C 67.63 77.87 68.51 77.57 68.87 76.85 L 69.33 75.93 C 69.69 75.21 69.40 74.32 68.67 73.96 C 67.95 73.60 67.06 73.90 66.70 74.62 Z M 66.14 75.81 L 65.88 76.78 C 65.67 77.56 66.13 78.37 66.91 78.58 C 67.69 78.80 68.50 78.33 68.71 77.55 L 68.98 76.58 C 69.19 75.79 68.73 74.99 67.95 74.77 C 67.16 74.56 66.36 75.02 66.14 75.81 Z M 65.84 77.01 L 65.73 77.99 C 65.64 78.79 66.22 79.52 67.03 79.61 C 67.84 79.69 68.56 79.11 68.65 78.31 L 68.75 77.33 C 68.84 76.52 68.26 75.79 67.45 75.71 C 66.65 75.62 65.92 76.20 65.84 77.01 Z M 65.72 78.15 L 65.72 79.25 C 65.73 80.07 66.39 80.72 67.20 80.72 C 68.01 80.71 68.66 80.06 68.66 79.24 L 68.66 78.14 C 68.65 77.33 67.99 76.68 67.18 76.68 C 66.37 76.68 65.72 77.34 65.72 78.15 Z M 65.78 79.64 L 66.01 80.50 C 66.23 81.28 67.03 81.74 67.82 81.53 C 68.60 81.31 69.06 80.50 68.84 79.72 L 68.61 78.86 C 68.39 78.08 67.59 77.62 66.80 77.83 C 66.02 78.05 65.56 78.86 65.78 79.64 Z M 67.16 81.55 L 68.03 81.72 C 68.83 81.86 69.59 81.34 69.74 80.54 C 69.89 79.74 69.36 78.98 68.56 78.83 L 67.70 78.67 C 66.90 78.52 66.13 79.05 65.98 79.84 C 65.84 80.64 66.36 81.41 67.16 81.55 Z M 69.48 81.15 L 70.04 80.40 C 70.52 79.75 70.39 78.83 69.74 78.34 C 69.09 77.85 68.17 77.99 67.68 78.64 L 67.12 79.39 C 66.63 80.04 66.76 80.96 67.42 81.45 C 68.07 81.94 68.99 81.80 69.48 81.15 Z M 70.32 79.75 L 70.48 78.72 C 70.61 77.91 70.06 77.16 69.25 77.03 C 68.45 76.90 67.69 77.45 67.56 78.26 L 67.40 79.29 C 67.27 80.10 67.82 80.85 68.63 80.98 C 69.43 81.11 70.19 80.56 70.32 79.75 Z M 70.50 78.44 L 70.47 77.44 C 70.44 76.62 69.75 75.98 68.94 76.01 C 68.12 76.04 67.48 76.72 67.50 77.54 L 67.54 78.54 C 67.57 79.36 68.25 80.00 69.07 79.97 C 69.89 79.94 70.53 79.26 70.50 78.44 Z M 70.42 77.06 L 70.09 75.98 C 69.85 75.19 69.01 74.74 68.22 74.98 C 67.43 75.22 66.99 76.06 67.23 76.85 L 67.56 77.93 C 67.80 78.72 68.63 79.16 69.42 78.92 C 70.21 78.68 70.66 77.85 70.42 77.06 Z M 69.52 77.65 L 69.87 77.41 C 70.56 76.93 70.73 75.99 70.25 75.31 C 69.78 74.62 68.84 74.45 68.15 74.92 L 67.80 75.17 C 67.11 75.64 66.94 76.58 67.42 77.27 C 67.89 77.95 68.83 78.13 69.52 77.65 Z M 68.66 77.65 L 69.85 77.93 C 70.67 78.12 71.49 77.62 71.68 76.80 C 71.88 75.98 71.37 75.16 70.55 74.96 L 69.36 74.68 C 68.55 74.49 67.72 75.00 67.53 75.81 C 67.34 76.63 67.84 77.45 68.66 77.65 Z M 70.80 77.86 L 71.52 77.56 C 72.31 77.23 72.67 76.32 72.34 75.54 C 72.01 74.76 71.11 74.39 70.32 74.72 L 69.60 75.03 C 68.82 75.36 68.45 76.26 68.78 77.05 C 69.11 77.83 70.02 78.20 70.80 77.86 Z M 72.43 75.81 L 72.22 74.85 C 72.04 74.02 71.22 73.49 70.38 73.67 C 69.55 73.85 69.02 74.68 69.20 75.51 L 69.41 76.47 C 69.60 77.31 70.42 77.83 71.25 77.65 C 72.09 77.47 72.62 76.64 72.43 75.81 Z M 72.24 74.92 L 72.06 73.91 C 71.91 73.07 71.11 72.51 70.27 72.65 C 69.43 72.80 68.87 73.60 69.02 74.44 L 69.19 75.45 C 69.34 76.29 70.14 76.85 70.98 76.70 C 71.82 76.56 72.38 75.76 72.24 74.92 Z M 72.09 74.20 L 72.10 73.17 C 72.11 72.32 71.43 71.62 70.58 71.60 C 69.72 71.59 69.02 72.27 69.01 73.13 L 68.99 74.15 C 68.98 75.01 69.66 75.71 70.52 75.72 C 71.37 75.74 72.07 75.05 72.09 74.20 Z M 72.09 73.41 L 72.26 72.40 C 72.40 71.55 71.83 70.74 70.98 70.60 C 70.13 70.46 69.33 71.03 69.19 71.88 L 69.01 72.89 C 68.87 73.74 69.45 74.55 70.29 74.69 C 71.14 74.83 71.95 74.26 72.09 73.41 Z M 71.84 73.24 L 72.45 72.63 C 73.06 72.01 73.06 71.01 72.44 70.40 C 71.82 69.79 70.82 69.80 70.21 70.42 L 69.60 71.03 C 68.99 71.65 69.00 72.65 69.62 73.26 C 70.24 73.87 71.23 73.86 71.84 73.24 Z M 71.56 73.09 L 72.59 72.93 C 73.46 72.80 74.05 72.00 73.92 71.13 C 73.80 70.27 72.99 69.67 72.12 69.80 L 71.10 69.96 C 70.23 70.09 69.64 70.89 69.76 71.76 C 69.89 72.62 70.70 73.22 71.56 73.09 Z M 72.28 72.95 L 73.27 73.00 C 74.15 73.05 74.89 72.37 74.94 71.50 C 74.98 70.62 74.30 69.88 73.43 69.83 L 72.44 69.78 C 71.56 69.74 70.82 70.41 70.77 71.29 C 70.73 72.16 71.41 72.91 72.28 72.95 Z M 72.89 72.94 L 73.84 73.23 C 74.68 73.48 75.57 73.01 75.83 72.17 C 76.08 71.33 75.61 70.45 74.77 70.19 L 73.81 69.90 C 72.97 69.64 72.09 70.12 71.83 70.96 C 71.58 71.79 72.05 72.68 72.89 72.94 Z M 73.43 73.04 L 74.27 73.59 C 75.00 74.07 75.99 73.86 76.47 73.13 C 76.95 72.40 76.75 71.41 76.01 70.93 L 75.18 70.38 C 74.45 69.90 73.46 70.10 72.98 70.84 C 72.50 71.57 72.70 72.56 73.43 73.04 Z M 74.02 73.39 L 74.73 74.08 C 75.35 74.70 76.36 74.69 76.98 74.07 C 77.59 73.44 77.59 72.44 76.96 71.82 L 76.26 71.13 C 75.63 70.51 74.63 70.52 74.01 71.14 C 73.39 71.77 73.40 72.77 74.02 73.39 Z M 74.58 73.91 L 75.18 74.70 C 75.71 75.40 76.70 75.54 77.40 75.01 C 78.10 74.48 78.24 73.48 77.71 72.78 L 77.11 71.99 C 76.58 71.29 75.59 71.15 74.88 71.68 C 74.18 72.21 74.05 73.21 74.58 73.91 Z M 75.09 74.58 L 75.60 75.41 C 76.07 76.16 77.05 76.39 77.79 75.93 C 78.54 75.47 78.77 74.49 78.31 73.74 L 77.80 72.91 C 77.34 72.16 76.36 71.93 75.61 72.39 C 74.86 72.85 74.63 73.83 75.09 74.58 Z M 75.56 75.33 L 76.03 76.21 C 76.45 76.98 77.41 77.27 78.19 76.86 C 78.96 76.44 79.25 75.48 78.83 74.70 L 78.36 73.82 C 77.94 73.05 76.98 72.76 76.20 73.18 C 75.43 73.59 75.14 74.56 75.56 75.33 Z M 76.00 76.14 L 76.44 77.06 C 76.81 77.86 77.76 78.19 78.56 77.81 C 79.35 77.43 79.69 76.49 79.31 75.69 L 78.87 74.77 C 78.49 73.98 77.54 73.64 76.75 74.02 C 75.95 74.40 75.62 75.35 76.00 76.14 Z M 76.41 77.01 L 76.79 77.90 C 77.14 78.71 78.08 79.08 78.89 78.73 C 79.69 78.38 80.07 77.45 79.72 76.64 L 79.33 75.75 C 78.99 74.94 78.05 74.57 77.24 74.92 C 76.43 75.26 76.06 76.20 76.41 77.01 Z M 76.78 77.85 L 77.15 78.81 C 77.48 79.63 78.40 80.03 79.22 79.71 C 80.04 79.38 80.44 78.46 80.11 77.64 L 79.74 76.68 C 79.41 75.87 78.49 75.47 77.67 75.79 C 76.85 76.11 76.45 77.04 76.78 77.85 Z M 77.14 78.77 L 77.51 79.77 C 77.81 80.59 78.72 81.02 79.55 80.71 C 80.37 80.41 80.80 79.49 80.49 78.67 L 80.13 77.68 C 79.82 76.85 78.91 76.43 78.08 76.73 C 77.26 77.03 76.84 77.95 77.14 78.77 Z M 77.50 79.74 L 77.84 80.72 C 78.13 81.55 79.04 81.99 79.87 81.70 C 80.70 81.41 81.13 80.51 80.84 79.68 L 80.50 78.69 C 80.21 77.86 79.31 77.43 78.47 77.72 C 77.64 78.00 77.21 78.91 77.50 79.74 Z M 77.83 80.71 L 78.13 81.60 C 78.41 82.43 79.31 82.88 80.15 82.60 C 80.98 82.32 81.43 81.42 81.15 80.58 L 80.85 79.69 C 80.57 78.86 79.67 78.41 78.83 78.69 C 78.00 78.97 77.55 79.87 77.83 80.71 Z M 78.13 81.58 L 78.43 82.53 C 78.70 83.37 79.60 83.83 80.44 83.56 C 81.27 83.29 81.73 82.39 81.46 81.55 L 81.16 80.60 C 80.89 79.76 79.99 79.30 79.15 79.57 C 78.32 79.84 77.86 80.74 78.13 81.58 Z M 78.42 82.49 L 78.69 83.42 C 78.93 84.27 79.82 84.75 80.66 84.51 C 81.51 84.26 81.99 83.38 81.75 82.54 L 81.48 81.60 C 81.23 80.76 80.35 80.27 79.51 80.51 C 78.66 80.76 78.17 81.64 78.42 82.49 Z M 78.68 83.38 L 78.91 84.29 C 79.14 85.14 80.01 85.65 80.86 85.42 C 81.71 85.20 82.22 84.33 82.00 83.48 L 81.76 82.58 C 81.54 81.73 80.67 81.22 79.82 81.44 C 78.97 81.66 78.46 82.53 78.68 83.38 Z M 78.91 84.27 L 79.16 85.27 C 79.37 86.12 80.24 86.64 81.09 86.42 C 81.95 86.21 82.46 85.34 82.25 84.49 L 82.00 83.50 C 81.78 82.64 80.92 82.13 80.07 82.34 C 79.21 82.55 78.70 83.42 78.91 84.27 Z M 79.16 85.27 L 79.42 86.30 C 79.64 87.15 80.50 87.67 81.36 87.45 C 82.21 87.24 82.72 86.37 82.51 85.52 L 82.25 84.49 C 82.03 83.64 81.17 83.12 80.31 83.34 C 79.46 83.55 78.95 84.42 79.16 85.27 Z M 79.42 86.31 L 79.68 87.32 C 79.90 88.17 80.77 88.68 81.62 88.46 C 82.48 88.24 82.99 87.37 82.77 86.52 L 82.51 85.51 C 82.29 84.66 81.42 84.15 80.57 84.37 C 79.72 84.59 79.20 85.46 79.42 86.31 Z M 79.68 87.31 L 79.93 88.26 C 80.15 89.11 81.02 89.63 81.87 89.41 C 82.72 89.19 83.23 88.32 83.01 87.47 L 82.77 86.52 C 82.55 85.67 81.68 85.16 80.83 85.37 C 79.98 85.59 79.46 86.46 79.68 87.31 Z M 79.92 88.25 L 80.17 89.24 C 80.38 90.09 81.24 90.61 82.10 90.40 C 82.95 90.19 83.47 89.33 83.26 88.47 L 83.02 87.48 C 82.80 86.63 81.94 86.11 81.09 86.32 C 80.23 86.53 79.71 87.39 79.92 88.25 Z M 80.16 89.21 L 80.39 90.18 C 80.58 91.04 81.44 91.57 82.30 91.38 C 83.15 91.18 83.69 90.32 83.49 89.47 L 83.27 88.50 C 83.07 87.64 82.22 87.11 81.36 87.30 C 80.50 87.50 79.97 88.36 80.16 89.21 Z M 80.38 90.15 L 80.58 91.09 C 80.76 91.95 81.61 92.50 82.47 92.31 C 83.33 92.13 83.88 91.29 83.69 90.43 L 83.50 89.49 C 83.31 88.63 82.47 88.08 81.61 88.27 C 80.75 88.45 80.20 89.29 80.38 90.15 Z M 80.57 91.04 L 80.75 92.01 C 80.90 92.88 81.73 93.45 82.60 93.29 C 83.46 93.14 84.04 92.31 83.88 91.44 L 83.70 90.47 C 83.55 89.61 82.72 89.03 81.85 89.19 C 80.99 89.35 80.41 90.18 80.57 91.04 Z M 80.73 91.95 L 80.87 92.89 C 80.99 93.76 81.79 94.37 82.66 94.25 C 83.53 94.13 84.14 93.32 84.02 92.45 L 83.89 91.51 C 83.77 90.64 82.96 90.03 82.09 90.15 C 81.22 90.27 80.61 91.08 80.73 91.95 Z M 80.86 92.82 L 80.95 93.83 C 81.04 94.70 81.81 95.34 82.69 95.26 C 83.56 95.18 84.21 94.40 84.12 93.52 L 84.03 92.52 C 83.95 91.64 83.17 91.00 82.29 91.08 C 81.42 91.17 80.77 91.95 80.86 92.82 Z M 80.95 93.75 L 81.00 94.80 C 81.04 95.68 81.79 96.35 82.67 96.31 C 83.55 96.27 84.22 95.52 84.18 94.64 L 84.13 93.60 C 84.09 92.72 83.34 92.04 82.46 92.08 C 81.58 92.13 80.90 92.87 80.95 93.75 Z M 81.00 94.72 L 80.99 95.73 C 80.99 96.61 81.70 97.33 82.58 97.33 C 83.46 97.33 84.18 96.62 84.18 95.74 L 84.18 94.72 C 84.19 93.84 83.47 93.13 82.59 93.13 C 81.71 93.12 81.00 93.84 81.00 94.72 Z M 81.00 95.62 L 80.92 96.60 C 80.86 97.48 81.52 98.25 82.39 98.31 C 83.27 98.38 84.04 97.72 84.10 96.84 L 84.18 95.86 C 84.24 94.98 83.58 94.21 82.71 94.15 C 81.83 94.08 81.06 94.74 81.00 95.62 Z M 80.95 96.43 L 80.76 97.43 C 80.59 98.30 81.16 99.13 82.03 99.29 C 82.89 99.46 83.73 98.89 83.89 98.02 L 84.08 97.02 C 84.24 96.15 83.67 95.32 82.81 95.16 C 81.94 94.99 81.11 95.56 80.95 96.43 Z M 80.80 97.27 L 80.52 98.21 C 80.26 99.05 80.74 99.94 81.58 100.19 C 82.42 100.44 83.31 99.97 83.57 99.12 L 83.85 98.19 C 84.10 97.35 83.63 96.46 82.78 96.20 C 81.94 95.95 81.05 96.43 80.80 97.27 Z M 80.54 98.13 L 80.22 99.03 C 79.92 99.86 80.35 100.77 81.18 101.07 C 82.01 101.37 82.92 100.94 83.22 100.11 L 83.54 99.20 C 83.84 98.37 83.41 97.46 82.58 97.16 C 81.75 96.87 80.84 97.30 80.54 98.13 Z M 80.23 99.00 L 79.87 99.94 C 79.56 100.76 79.97 101.68 80.79 101.99 C 81.61 102.31 82.53 101.90 82.85 101.07 L 83.21 100.14 C 83.52 99.32 83.11 98.40 82.29 98.08 C 81.46 97.77 80.54 98.18 80.23 99.00 Z M 79.88 99.92 L 79.51 100.86 C 79.18 101.68 79.59 102.61 80.41 102.93 C 81.23 103.25 82.15 102.85 82.47 102.03 L 82.84 101.09 C 83.16 100.27 82.76 99.34 81.94 99.02 C 81.12 98.70 80.20 99.10 79.88 99.92 Z M 79.51 100.85 L 79.15 101.76 C 78.82 102.58 79.22 103.51 80.04 103.83 C 80.85 104.16 81.78 103.76 82.11 102.94 L 82.47 102.04 C 82.80 101.22 82.40 100.29 81.58 99.97 C 80.76 99.64 79.84 100.04 79.51 100.85 Z M 79.16 101.74 L 78.76 102.69 C 78.43 103.50 78.81 104.43 79.62 104.77 C 80.44 105.11 81.37 104.72 81.71 103.91 L 82.10 102.96 C 82.44 102.15 82.05 101.22 81.24 100.88 C 80.43 100.54 79.49 100.93 79.16 101.74 Z M 78.77 102.66 L 78.37 103.58 C 78.02 104.39 78.39 105.33 79.19 105.68 C 80.00 106.03 80.94 105.67 81.29 104.86 L 81.70 103.94 C 82.05 103.13 81.68 102.19 80.87 101.84 C 80.07 101.49 79.13 101.85 78.77 102.66 Z M 78.39 103.55 L 77.97 104.46 C 77.60 105.26 77.94 106.20 78.74 106.57 C 79.54 106.94 80.49 106.60 80.86 105.80 L 81.28 104.89 C 81.65 104.09 81.30 103.14 80.50 102.78 C 79.70 102.41 78.76 102.75 78.39 103.55 Z M 77.98 104.43 L 77.54 105.34 C 77.15 106.13 77.48 107.08 78.27 107.47 C 79.06 107.85 80.01 107.53 80.40 106.74 L 80.84 105.83 C 81.23 105.04 80.90 104.08 80.11 103.70 C 79.32 103.31 78.37 103.64 77.98 104.43 Z M 77.55 105.30 L 77.06 106.25 C 76.66 107.03 76.96 107.99 77.74 108.39 C 78.52 108.80 79.49 108.50 79.89 107.71 L 80.38 106.77 C 80.79 105.99 80.48 105.03 79.70 104.62 C 78.92 104.22 77.96 104.52 77.55 105.30 Z M 77.08 106.21 L 76.58 107.12 C 76.16 107.89 76.44 108.86 77.21 109.29 C 77.98 109.71 78.95 109.43 79.37 108.66 L 79.87 107.75 C 80.30 106.98 80.02 106.01 79.24 105.58 C 78.47 105.16 77.50 105.44 77.08 106.21 Z M 76.60 107.09 L 76.14 107.89 C 75.70 108.65 75.96 109.62 76.72 110.07 C 77.48 110.51 78.46 110.25 78.90 109.48 L 79.36 108.69 C 79.80 107.93 79.54 106.95 78.78 106.51 C 78.01 106.07 77.04 106.33 76.60 107.09 Z M 76.16 107.84 L 75.64 108.68 C 75.18 109.43 75.41 110.41 76.15 110.87 C 76.90 111.34 77.88 111.11 78.35 110.36 L 78.87 109.53 C 79.33 108.78 79.11 107.80 78.36 107.33 C 77.61 106.87 76.63 107.10 76.16 107.84 Z M 75.69 108.61 L 75.13 109.42 C 74.62 110.14 74.80 111.14 75.53 111.64 C 76.25 112.14 77.24 111.96 77.74 111.24 L 78.31 110.43 C 78.81 109.71 78.63 108.71 77.91 108.21 C 77.18 107.71 76.19 107.89 75.69 108.61 Z M 75.15 109.38 L 74.59 110.15 C 74.07 110.86 74.22 111.85 74.93 112.38 C 75.63 112.90 76.63 112.75 77.15 112.04 L 77.72 111.28 C 78.24 110.57 78.09 109.57 77.38 109.05 C 76.67 108.53 75.68 108.68 75.15 109.38 Z M 74.61 110.12 L 73.98 110.93 C 73.44 111.62 73.57 112.62 74.26 113.16 C 74.96 113.71 75.96 113.58 76.50 112.89 L 77.13 112.07 C 77.67 111.38 77.55 110.38 76.85 109.84 C 76.16 109.30 75.15 109.42 74.61 110.12 Z M 74.02 110.88 L 73.34 111.68 C 72.78 112.35 72.86 113.36 73.53 113.93 C 74.21 114.49 75.21 114.41 75.78 113.74 L 76.46 112.94 C 77.02 112.26 76.94 111.26 76.27 110.69 C 75.59 110.12 74.59 110.21 74.02 110.88 Z M 73.41 111.61 L 72.69 112.36 C 72.08 112.99 72.10 114.00 72.74 114.61 C 73.38 115.22 74.38 115.20 74.99 114.56 L 75.71 113.81 C 76.32 113.18 76.30 112.17 75.66 111.56 C 75.03 110.95 74.02 110.97 73.41 111.61 Z M 72.78 112.28 L 72.06 112.92 C 71.40 113.51 71.35 114.52 71.94 115.17 C 72.53 115.83 73.53 115.88 74.19 115.29 L 74.91 114.65 C 75.56 114.06 75.62 113.05 75.03 112.40 C 74.44 111.74 73.43 111.69 72.78 112.28 Z M 72.16 112.83 L 71.36 113.44 C 70.66 113.97 70.52 114.97 71.05 115.67 C 71.58 116.37 72.58 116.51 73.28 115.98 L 74.08 115.38 C 74.79 114.85 74.92 113.85 74.39 113.15 C 73.86 112.44 72.87 112.30 72.16 112.83 Z M 71.48 113.36 L 70.64 113.89 C 69.89 114.35 69.67 115.34 70.13 116.08 C 70.60 116.83 71.58 117.05 72.33 116.59 L 73.17 116.06 C 73.92 115.59 74.14 114.61 73.67 113.86 C 73.21 113.12 72.22 112.89 71.48 113.36 Z M 70.75 113.83 L 69.85 114.29 C 69.07 114.70 68.77 115.66 69.18 116.44 C 69.58 117.22 70.55 117.52 71.33 117.12 L 72.22 116.65 C 73.00 116.24 73.30 115.28 72.89 114.50 C 72.49 113.72 71.52 113.42 70.75 113.83 Z M 69.97 114.24 L 69.04 114.63 C 68.23 114.97 67.86 115.91 68.20 116.72 C 68.54 117.53 69.48 117.91 70.29 117.56 L 71.21 117.17 C 72.02 116.83 72.40 115.89 72.05 115.08 C 71.71 114.27 70.78 113.89 69.97 114.24 Z M 69.19 114.57 L 68.25 114.87 C 67.41 115.13 66.94 116.02 67.20 116.86 C 67.46 117.70 68.35 118.17 69.19 117.91 L 70.14 117.62 C 70.98 117.36 71.45 116.46 71.19 115.62 C 70.93 114.78 70.03 114.31 69.19 114.57 Z M 68.42 114.83 L 67.45 115.01 C 66.59 115.18 66.03 116.02 66.20 116.88 C 66.36 117.74 67.20 118.30 68.06 118.14 L 69.03 117.95 C 69.89 117.78 70.45 116.95 70.28 116.09 C 70.12 115.22 69.28 114.66 68.42 114.83 Z M 67.56 115.00 L 66.63 115.11 C 65.76 115.22 65.14 116.02 65.25 116.89 C 65.37 117.76 66.16 118.38 67.03 118.27 L 67.96 118.15 C 68.83 118.04 69.44 117.25 69.33 116.38 C 69.22 115.50 68.43 114.89 67.56 115.00 Z M 66.68 115.11 L 65.63 115.21 C 64.75 115.30 64.11 116.07 64.20 116.94 C 64.28 117.82 65.06 118.46 65.93 118.37 L 66.98 118.27 C 67.86 118.19 68.50 117.41 68.41 116.54 C 68.33 115.67 67.55 115.03 66.68 115.11 Z M 65.65 115.21 L 64.72 115.29 C 63.85 115.36 63.20 116.13 63.27 117.00 C 63.35 117.87 64.11 118.52 64.98 118.45 L 65.91 118.37 C 66.78 118.30 67.43 117.54 67.36 116.66 C 67.29 115.79 66.52 115.14 65.65 115.21 Z M 64.75 115.29 L 63.72 115.35 C 62.85 115.41 62.19 116.16 62.24 117.04 C 62.30 117.91 63.05 118.57 63.92 118.51 L 64.96 118.45 C 65.83 118.39 66.49 117.64 66.43 116.77 C 66.38 115.90 65.63 115.23 64.75 115.29 Z M 63.76 115.36 L 62.70 115.40 C 61.83 115.43 61.15 116.16 61.18 117.03 C 61.21 117.91 61.95 118.59 62.82 118.55 L 63.88 118.51 C 64.75 118.48 65.43 117.75 65.40 116.87 C 65.37 116.00 64.63 115.32 63.76 115.36 Z M 62.74 115.40 L 61.70 115.42 C 60.83 115.43 60.14 116.15 60.15 117.01 C 60.17 117.88 60.88 118.58 61.75 118.56 L 62.78 118.55 C 63.65 118.53 64.35 117.82 64.33 116.95 C 64.32 116.08 63.60 115.39 62.74 115.40 Z M 61.72 115.42 L 60.75 115.43 C 59.88 115.43 59.19 116.13 59.19 117.00 C 59.19 117.86 59.89 118.56 60.76 118.56 L 61.73 118.56 C 62.60 118.55 63.29 117.85 63.29 116.99 C 63.29 116.12 62.59 115.42 61.72 115.42 Z M 60.75 115.45 L 59.70 115.45 C 58.85 115.45 58.16 116.14 58.16 116.99 C 58.16 117.85 58.85 118.54 59.70 118.54 L 60.75 118.54 C 61.61 118.54 62.30 117.85 62.30 116.99 C 62.30 116.14 61.61 115.45 60.75 115.45 Z M 59.70 115.48 L 58.75 115.48 C 57.92 115.48 57.24 116.16 57.24 116.99 C 57.24 117.83 57.92 118.51 58.75 118.51 L 59.70 118.51 C 60.54 118.51 61.22 117.83 61.22 116.99 C 61.22 116.16 60.54 115.48 59.70 115.48 Z M 58.75 115.50 L 58.51 115.50 C 57.69 115.50 57.03 116.17 57.03 116.99 C 57.03 117.82 57.69 118.48 58.51 118.48 L 58.75 118.48 C 59.58 118.48 60.24 117.82 60.24 116.99 C 60.24 116.17 59.58 115.50 58.75 115.50 Z"
      fill="black"
      fill-rule="nonzero" /></svg>