<svg xmlns="http://www.w3.org/2000/svg" width="300" height="300" viewBox="0 0 300 300">
<path d="M 211.65 91.07 L 211.09 91.85 C 210.60 92.53 210.75 93.47 211.43 93.96 C 212.10 94.45 213.05 94.30 213.54 93.63 L 214.10 92.85 C 214.59 92.17 214.44 91.23 213.76 90.74 C 213.09 90.25 212.14 90.40 211.65 91.07 Z M 211.05 91.84 L 210.45 92.70 C 209.95 93.39 210.12 94.36 210.82 94.85 C 211.52 95.35 212.49 95.18 212.98 94.48 L 213.58 93.63 C 214.07 92.93 213.91 91.97 213.21 91.47 C 212.51 90.98 211.54 91.15 211.05 91.84 Z M 210.40 92.70 L 209.83 93.53 C 209.34 94.26 209.53 95.24 210.25 95.73 C 210.98 96.23 211.96 96.04 212.45 95.32 L 213.02 94.48 C 213.51 93.76 213.33 92.77 212.60 92.28 C 211.88 91.79 210.90 91.97 210.40 92.70 Z M 209.79 93.54 L 209.24 94.37 C 208.75 95.12 208.96 96.12 209.70 96.61 C 210.45 97.10 211.45 96.90 211.94 96.15 L 212.49 95.31 C 212.98 94.57 212.78 93.57 212.03 93.08 C 211.29 92.58 210.29 92.79 209.79 93.54 Z M 209.20 94.38 L 208.66 95.25 C 208.18 96.01 208.40 97.03 209.17 97.51 C 209.94 98.00 210.95 97.77 211.44 97.00 L 211.98 96.14 C 212.46 95.37 212.24 94.36 211.47 93.87 C 210.70 93.39 209.69 93.62 209.20 94.38 Z M 208.62 95.27 L 208.13 96.10 C 207.66 96.89 207.91 97.91 208.70 98.38 C 209.49 98.85 210.50 98.59 210.97 97.81 L 211.47 96.98 C 211.94 96.19 211.69 95.17 210.90 94.70 C 210.11 94.23 209.09 94.49 208.62 95.27 Z M 208.10 96.12 L 207.64 96.92 C 207.17 97.72 207.45 98.75 208.25 99.21 C 209.05 99.67 210.07 99.40 210.53 98.60 L 211.00 97.79 C 211.46 96.99 211.19 95.97 210.39 95.51 C 209.59 95.04 208.57 95.32 208.10 96.12 Z M 207.62 96.93 L 207.10 97.85 C 206.64 98.67 206.93 99.69 207.74 100.15 C 208.55 100.61 209.58 100.32 210.03 99.51 L 210.55 98.59 C 211.01 97.78 210.72 96.75 209.91 96.29 C 209.10 95.84 208.07 96.12 207.62 96.93 Z M 207.08 97.86 L 206.62 98.68 C 206.17 99.50 206.47 100.54 207.29 100.99 C 208.11 101.44 209.14 101.15 209.60 100.33 L 210.05 99.50 C 210.51 98.68 210.21 97.65 209.39 97.20 C 208.57 96.74 207.53 97.04 207.08 97.86 Z M 206.61 98.68 L 206.13 99.56 C 205.67 100.39 205.97 101.43 206.80 101.89 C 207.63 102.34 208.67 102.04 209.12 101.21 L 209.61 100.33 C 210.07 99.50 209.76 98.46 208.94 98.01 C 208.11 97.55 207.07 97.85 206.61 98.68 Z M 206.12 99.55 L 205.61 100.46 C 205.15 101.30 205.45 102.34 206.28 102.81 C 207.11 103.27 208.16 102.97 208.62 102.14 L 209.13 101.22 C 209.59 100.39 209.29 99.34 208.46 98.88 C 207.63 98.42 206.58 98.72 206.12 99.55 Z M 205.61 100.45 L 205.15 101.27 C 204.68 102.10 204.97 103.16 205.81 103.63 C 206.64 104.10 207.70 103.80 208.17 102.97 L 208.63 102.15 C 209.10 101.32 208.80 100.26 207.97 99.79 C 207.13 99.32 206.08 99.62 205.61 100.45 Z M 205.15 101.26 L 204.65 102.13 C 204.18 102.96 204.47 104.03 205.31 104.50 C 206.14 104.97 207.20 104.68 207.68 103.85 L 208.17 102.98 C 208.64 102.14 208.35 101.08 207.52 100.61 C 206.68 100.13 205.62 100.43 205.15 101.26 Z M 204.65 102.12 L 204.12 103.05 C 203.64 103.89 203.93 104.95 204.77 105.43 C 205.61 105.91 206.67 105.62 207.15 104.78 L 207.68 103.85 C 208.16 103.02 207.87 101.95 207.03 101.47 C 206.19 100.99 205.13 101.29 204.65 102.12 Z M 204.12 103.04 L 203.63 103.89 C 203.15 104.73 203.44 105.79 204.28 106.28 C 205.12 106.76 206.19 106.47 206.67 105.63 L 207.15 104.79 C 207.63 103.95 207.34 102.88 206.51 102.40 C 205.67 101.92 204.60 102.21 204.12 103.04 Z M 203.63 103.88 L 203.14 104.74 C 202.65 105.57 202.94 106.65 203.78 107.13 C 204.62 107.62 205.69 107.33 206.17 106.49 L 206.67 105.64 C 207.15 104.80 206.87 103.72 206.03 103.24 C 205.19 102.75 204.12 103.04 203.63 103.88 Z M 203.14 104.72 L 202.63 105.60 C 202.14 106.44 202.42 107.52 203.25 108.01 C 204.09 108.50 205.17 108.22 205.66 107.38 L 206.17 106.50 C 206.66 105.67 206.38 104.59 205.55 104.10 C 204.71 103.61 203.63 103.89 203.14 104.72 Z M 202.63 105.59 L 202.10 106.47 C 201.60 107.31 201.87 108.39 202.71 108.89 C 203.54 109.39 204.62 109.11 205.12 108.28 L 205.65 107.40 C 206.15 106.56 205.88 105.48 205.05 104.98 C 204.21 104.48 203.13 104.75 202.63 105.59 Z M 202.11 106.45 L 201.59 107.30 C 201.08 108.13 201.34 109.22 202.17 109.73 C 203.00 110.24 204.08 109.98 204.59 109.15 L 205.11 108.30 C 205.62 107.47 205.37 106.38 204.54 105.87 C 203.71 105.36 202.62 105.62 202.11 106.45 Z M 201.60 107.28 L 201.07 108.12 C 200.55 108.95 200.79 110.04 201.62 110.56 C 202.44 111.08 203.53 110.83 204.05 110.01 L 204.58 109.17 C 205.10 108.35 204.86 107.25 204.03 106.73 C 203.21 106.21 202.12 106.46 201.60 107.28 Z M 201.08 108.10 L 200.53 108.94 C 200.00 109.75 200.23 110.85 201.05 111.38 C 201.87 111.92 202.96 111.69 203.49 110.87 L 204.04 110.03 C 204.57 109.21 204.34 108.12 203.53 107.58 C 202.71 107.05 201.61 107.28 201.08 108.10 Z M 200.54 108.91 L 199.98 109.75 C 199.43 110.56 199.65 111.66 200.46 112.21 C 201.27 112.75 202.37 112.54 202.92 111.73 L 203.48 110.89 C 204.03 110.08 203.81 108.98 203.00 108.43 C 202.19 107.89 201.09 108.10 200.54 108.91 Z M 199.99 109.73 L 199.43 110.53 C 198.87 111.34 199.07 112.44 199.87 113.00 C 200.68 113.56 201.78 113.36 202.34 112.56 L 202.91 111.75 C 203.46 110.95 203.27 109.84 202.46 109.28 C 201.66 108.72 200.55 108.92 199.99 109.73 Z M 199.45 110.51 L 198.87 111.31 C 198.30 112.10 198.48 113.21 199.28 113.79 C 200.07 114.36 201.18 114.18 201.76 113.38 L 202.33 112.58 C 202.90 111.79 202.72 110.68 201.92 110.11 C 201.13 109.53 200.02 109.71 199.45 110.51 Z M 198.89 111.28 L 198.29 112.08 C 197.70 112.87 197.87 113.99 198.66 114.57 C 199.44 115.16 200.56 115.00 201.14 114.21 L 201.74 113.41 C 202.33 112.62 202.16 111.50 201.38 110.92 C 200.59 110.33 199.47 110.50 198.89 111.28 Z M 198.31 112.06 L 197.69 112.86 C 197.09 113.64 197.23 114.76 198.01 115.36 C 198.79 115.96 199.91 115.82 200.51 115.04 L 201.13 114.23 C 201.73 113.45 201.58 112.34 200.80 111.74 C 200.03 111.14 198.91 111.28 198.31 112.06 Z M 197.70 112.84 L 197.07 113.63 C 196.46 114.40 196.58 115.52 197.35 116.14 C 198.12 116.75 199.24 116.62 199.86 115.85 L 200.49 115.06 C 201.10 114.29 200.98 113.17 200.21 112.56 C 199.44 111.94 198.32 112.07 197.70 112.84 Z M 197.09 113.61 L 196.47 114.35 C 195.85 115.11 195.95 116.24 196.71 116.87 C 197.47 117.49 198.60 117.38 199.23 116.62 L 199.84 115.88 C 200.47 115.12 200.36 113.99 199.60 113.37 C 198.84 112.74 197.72 112.85 197.09 113.61 Z M 196.49 114.33 L 195.85 115.08 C 195.21 115.84 195.30 116.96 196.06 117.60 C 196.81 118.24 197.94 118.15 198.58 117.40 L 199.21 116.64 C 199.85 115.89 199.76 114.76 199.01 114.12 C 198.25 113.49 197.13 113.58 196.49 114.33 Z M 195.86 115.07 L 195.20 115.83 C 194.55 116.57 194.63 117.70 195.38 118.35 C 196.13 119.00 197.26 118.92 197.91 118.17 L 198.56 117.41 C 199.21 116.67 199.13 115.54 198.39 114.89 C 197.64 114.24 196.51 114.32 195.86 115.07 Z M 195.21 115.81 L 194.53 116.58 C 193.87 117.32 193.94 118.46 194.68 119.11 C 195.43 119.77 196.56 119.70 197.22 118.96 L 197.90 118.19 C 198.55 117.45 198.48 116.31 197.74 115.66 C 197.00 115.00 195.87 115.07 195.21 115.81 Z M 194.54 116.57 L 193.87 117.31 C 193.21 118.05 193.27 119.18 194.01 119.85 C 194.75 120.51 195.88 120.45 196.54 119.71 L 197.21 118.97 C 197.87 118.23 197.81 117.10 197.07 116.43 C 196.33 115.77 195.20 115.83 194.54 116.57 Z M 193.87 117.30 L 193.24 118.00 C 192.57 118.74 192.63 119.88 193.36 120.55 C 194.10 121.21 195.24 121.16 195.90 120.42 L 196.54 119.72 C 197.21 118.98 197.15 117.85 196.42 117.18 C 195.68 116.51 194.54 116.57 193.87 117.30 Z M 193.24 118.00 L 192.58 118.72 C 191.91 119.45 191.96 120.59 192.70 121.26 C 193.43 121.93 194.57 121.88 195.24 121.15 L 195.90 120.43 C 196.57 119.69 196.52 118.55 195.79 117.88 C 195.05 117.21 193.91 117.26 193.24 118.00 Z M 192.58 118.71 L 191.91 119.45 C 191.23 120.18 191.28 121.32 192.02 122.00 C 192.75 122.67 193.89 122.62 194.57 121.89 L 195.24 121.15 C 195.92 120.42 195.87 119.28 195.14 118.60 C 194.40 117.93 193.26 117.98 192.58 118.71 Z M 191.91 119.44 L 191.21 120.20 C 190.53 120.94 190.58 122.08 191.31 122.76 C 192.05 123.44 193.19 123.39 193.87 122.65 L 194.57 121.89 C 195.24 121.16 195.20 120.01 194.46 119.34 C 193.73 118.66 192.58 118.71 191.91 119.44 Z M 191.20 120.20 L 190.48 120.99 C 189.80 121.73 189.85 122.87 190.58 123.55 C 191.32 124.23 192.47 124.18 193.14 123.44 L 193.87 122.66 C 194.55 121.92 194.50 120.77 193.76 120.10 C 193.03 119.42 191.88 119.47 191.20 120.20 Z M 190.48 120.99 L 189.85 121.67 C 189.17 122.40 189.22 123.55 189.96 124.23 C 190.69 124.91 191.84 124.86 192.52 124.12 L 193.15 123.45 C 193.82 122.71 193.78 121.56 193.04 120.88 C 192.30 120.20 191.15 120.25 190.48 120.99 Z M 189.85 121.67 L 189.21 122.36 C 188.53 123.10 188.58 124.25 189.32 124.93 C 190.05 125.61 191.20 125.56 191.88 124.82 L 192.52 124.13 C 193.20 123.39 193.15 122.24 192.42 121.56 C 191.68 120.88 190.53 120.93 189.85 121.67 Z M 189.20 122.36 L 188.54 123.08 C 187.87 123.82 187.92 124.97 188.66 125.65 C 189.40 126.33 190.55 126.28 191.23 125.54 L 191.89 124.82 C 192.56 124.08 192.51 122.93 191.77 122.25 C 191.03 121.57 189.88 121.62 189.20 122.36 Z M 188.54 123.08 L 187.86 123.83 C 187.18 124.57 187.24 125.72 187.98 126.40 C 188.72 127.08 189.87 127.03 190.55 126.28 L 191.23 125.54 C 191.91 124.80 191.86 123.65 191.11 122.97 C 190.37 122.29 189.22 122.34 188.54 123.08 Z M 187.86 123.83 L 187.16 124.59 C 186.48 125.33 186.54 126.49 187.28 127.17 C 188.03 127.84 189.18 127.79 189.86 127.05 L 190.56 126.28 C 191.23 125.54 191.18 124.38 190.44 123.71 C 189.69 123.03 188.54 123.08 187.86 123.83 Z M 187.16 124.59 L 186.44 125.38 C 185.77 126.13 185.82 127.28 186.57 127.96 C 187.32 128.64 188.47 128.58 189.15 127.83 L 189.86 127.05 C 190.54 126.30 190.48 125.14 189.74 124.47 C 188.99 123.79 187.84 123.84 187.16 124.59 Z M 186.44 125.38 L 185.74 126.15 C 185.06 126.90 185.12 128.06 185.87 128.73 C 186.62 129.41 187.78 129.35 188.45 128.60 L 189.15 127.83 C 189.83 127.08 189.77 125.93 189.02 125.25 C 188.27 124.57 187.12 124.63 186.44 125.38 Z M 185.74 126.15 L 185.08 126.88 C 184.40 127.63 184.46 128.79 185.21 129.47 C 185.97 130.14 187.12 130.08 187.80 129.33 L 188.46 128.60 C 189.13 127.85 189.07 126.70 188.32 126.02 C 187.57 125.34 186.41 125.40 185.74 126.15 Z M 185.08 126.88 L 184.41 127.63 C 183.73 128.38 183.80 129.54 184.55 130.21 C 185.30 130.89 186.46 130.83 187.14 130.07 L 187.80 129.33 C 188.48 128.58 188.42 127.42 187.66 126.75 C 186.91 126.07 185.75 126.13 185.08 126.88 Z M 184.41 127.63 L 183.74 128.38 C 183.06 129.13 183.12 130.29 183.88 130.96 C 184.63 131.64 185.79 131.58 186.47 130.82 L 187.14 130.07 C 187.81 129.32 187.75 128.16 187.00 127.48 C 186.24 126.81 185.08 126.87 184.41 127.63 Z M 183.73 128.38 L 183.06 129.13 C 182.38 129.88 182.44 131.05 183.20 131.72 C 183.96 132.40 185.12 132.33 185.79 131.58 L 186.47 130.82 C 187.14 130.07 187.08 128.91 186.32 128.23 C 185.57 127.56 184.41 127.62 183.73 128.38 Z M 183.06 129.13 L 182.38 129.88 C 181.70 130.64 181.77 131.80 182.52 132.48 C 183.28 133.15 184.44 133.09 185.12 132.33 L 185.79 131.58 C 186.47 130.82 186.41 129.66 185.65 128.98 C 184.89 128.31 183.73 128.37 183.06 129.13 Z M 182.38 129.88 L 181.71 130.63 C 181.03 131.39 181.10 132.55 181.85 133.23 C 182.61 133.91 183.77 133.84 184.45 133.08 L 185.12 132.33 C 185.80 131.58 185.73 130.41 184.98 129.74 C 184.22 129.06 183.06 129.13 182.38 129.88 Z M 181.71 130.63 L 181.04 131.37 C 180.37 132.13 180.43 133.30 181.19 133.97 C 181.95 134.65 183.11 134.59 183.79 133.83 L 184.45 133.09 C 185.13 132.33 185.06 131.16 184.31 130.49 C 183.55 129.81 182.38 129.87 181.71 130.63 Z M 181.04 131.37 L 180.35 132.14 C 179.67 132.90 179.74 134.07 180.50 134.75 C 181.25 135.42 182.42 135.36 183.10 134.60 L 183.79 133.83 C 184.47 133.07 184.40 131.91 183.64 131.23 C 182.89 130.55 181.72 130.61 181.04 131.37 Z M 180.35 132.14 L 179.67 132.90 C 178.99 133.66 179.05 134.83 179.81 135.51 C 180.57 136.19 181.73 136.12 182.41 135.37 L 183.10 134.60 C 183.78 133.85 183.72 132.68 182.96 132.00 C 182.20 131.32 181.03 131.38 180.35 132.14 Z M 179.67 132.90 L 178.99 133.65 C 178.31 134.41 178.37 135.57 179.13 136.26 C 179.89 136.94 181.05 136.88 181.74 136.12 L 182.41 135.37 C 183.10 134.61 183.03 133.45 182.28 132.76 C 181.52 132.08 180.35 132.14 179.67 132.90 Z M 179.00 133.64 L 178.33 134.38 C 177.64 135.14 177.70 136.31 178.45 136.99 C 179.21 137.68 180.38 137.62 181.06 136.87 L 181.73 136.13 C 182.42 135.37 182.36 134.20 181.61 133.52 C 180.85 132.83 179.68 132.89 179.00 133.64 Z M 178.33 134.37 L 177.66 135.10 C 176.97 135.86 177.03 137.03 177.78 137.72 C 178.53 138.41 179.70 138.35 180.39 137.60 L 181.06 136.87 C 181.75 136.12 181.70 134.95 180.94 134.26 C 180.19 133.57 179.02 133.62 178.33 134.37 Z M 177.67 135.09 L 177.01 135.81 C 176.31 136.56 176.36 137.73 177.11 138.43 C 177.86 139.12 179.03 139.08 179.72 138.33 L 180.39 137.61 C 181.08 136.86 181.04 135.69 180.29 134.99 C 179.54 134.30 178.36 134.34 177.67 135.09 Z M 177.01 135.80 L 176.35 136.51 C 175.65 137.26 175.68 138.43 176.43 139.13 C 177.18 139.83 178.35 139.79 179.05 139.05 L 179.72 138.34 C 180.42 137.59 180.38 136.42 179.63 135.72 C 178.89 135.02 177.71 135.05 177.01 135.80 Z M 176.36 136.50 L 175.67 137.21 C 174.97 137.96 175.00 139.13 175.74 139.84 C 176.48 140.54 177.65 140.52 178.36 139.77 L 179.04 139.06 C 179.75 138.32 179.72 137.14 178.98 136.43 C 178.24 135.73 177.06 135.76 176.36 136.50 Z M 175.68 137.20 L 174.99 137.92 C 174.28 138.65 174.30 139.83 175.04 140.54 C 175.78 141.25 176.95 141.23 177.66 140.50 L 178.35 139.78 C 179.07 139.05 179.05 137.87 178.31 137.16 C 177.57 136.45 176.39 136.47 175.68 137.20 Z M 175.00 137.91 L 174.31 138.61 C 173.59 139.35 173.60 140.53 174.34 141.24 C 175.07 141.96 176.25 141.95 176.96 141.21 L 177.66 140.51 C 178.38 139.77 178.36 138.60 177.63 137.88 C 176.90 137.16 175.72 137.17 175.00 137.91 Z M 174.31 138.61 L 173.61 139.31 C 172.89 140.05 172.90 141.22 173.63 141.95 C 174.36 142.67 175.54 142.66 176.26 141.93 L 176.96 141.22 C 177.68 140.49 177.67 139.31 176.94 138.59 C 176.21 137.87 175.03 137.88 174.31 138.61 Z M 173.62 139.31 L 172.91 140.02 C 172.18 140.75 172.19 141.92 172.92 142.65 C 173.64 143.38 174.82 143.37 175.55 142.65 L 176.25 141.94 C 176.98 141.21 176.98 140.03 176.25 139.30 C 175.52 138.58 174.34 138.58 173.62 139.31 Z M 172.91 140.01 L 172.20 140.72 C 171.47 141.45 171.47 142.63 172.20 143.36 C 172.92 144.09 174.10 144.09 174.83 143.36 L 175.55 142.65 C 176.27 141.92 176.28 140.74 175.55 140.02 C 174.82 139.29 173.64 139.29 172.91 140.01 Z M 172.20 140.72 L 171.48 141.44 C 170.75 142.17 170.74 143.35 171.47 144.08 C 172.20 144.81 173.38 144.81 174.11 144.08 L 174.83 143.37 C 175.56 142.64 175.56 141.46 174.84 140.73 C 174.11 140.00 172.93 139.99 172.20 140.72 Z M 171.48 141.44 L 170.80 142.11 C 170.07 142.84 170.07 144.02 170.79 144.75 C 171.52 145.48 172.70 145.48 173.43 144.76 L 174.11 144.09 C 174.84 143.36 174.84 142.18 174.12 141.45 C 173.39 140.72 172.21 140.71 171.48 141.44 Z M 170.80 142.11 L 170.12 142.79 C 169.39 143.51 169.38 144.70 170.11 145.43 C 170.84 146.16 172.02 146.16 172.75 145.44 L 173.43 144.76 C 174.16 144.03 174.17 142.85 173.44 142.12 C 172.71 141.39 171.53 141.38 170.80 142.11 Z M 170.12 142.79 L 169.42 143.48 C 168.69 144.21 168.69 145.39 169.42 146.12 C 170.15 146.85 171.33 146.85 172.06 146.13 L 172.75 145.44 C 173.48 144.71 173.49 143.53 172.76 142.79 C 172.03 142.06 170.85 142.06 170.12 142.79 Z M 169.42 143.48 L 168.72 144.18 C 167.99 144.91 167.99 146.09 168.72 146.82 C 169.45 147.55 170.63 147.55 171.36 146.83 L 172.06 146.12 C 172.79 145.40 172.79 144.21 172.06 143.48 C 171.34 142.75 170.15 142.75 169.42 143.48 Z M 168.72 144.18 L 168.00 144.90 C 167.27 145.63 167.27 146.81 168.01 147.54 C 168.74 148.27 169.92 148.27 170.65 147.54 L 171.36 146.82 C 172.09 146.09 172.09 144.91 171.36 144.18 C 170.63 143.45 169.44 143.45 168.72 144.18 Z M 168.00 144.90 L 167.27 145.63 C 166.55 146.36 166.55 147.55 167.28 148.27 C 168.02 149.00 169.20 149.00 169.93 148.26 L 170.66 147.53 C 171.38 146.80 171.38 145.62 170.64 144.89 C 169.91 144.16 168.73 144.16 168.00 144.90 Z M 167.27 145.63 L 166.53 146.38 C 165.81 147.11 165.82 148.30 166.55 149.03 C 167.29 149.75 168.47 149.74 169.20 149.01 L 169.94 148.26 C 170.66 147.52 170.65 146.34 169.92 145.61 C 169.18 144.89 168.00 144.90 167.27 145.63 Z M 166.53 146.38 L 165.82 147.10 C 165.10 147.84 165.11 149.03 165.85 149.75 C 166.59 150.47 167.78 150.46 168.50 149.72 L 169.21 149.00 C 169.93 148.26 169.92 147.08 169.18 146.35 C 168.44 145.63 167.25 145.64 166.53 146.38 Z M 165.82 147.11 L 165.15 147.80 C 164.43 148.54 164.44 149.73 165.18 150.45 C 165.93 151.17 167.11 151.15 167.83 150.41 L 168.51 149.72 C 169.23 148.98 169.21 147.79 168.47 147.07 C 167.73 146.35 166.54 146.36 165.82 147.11 Z M 165.14 147.80 L 164.46 148.50 C 163.74 149.25 163.76 150.44 164.51 151.15 C 165.25 151.87 166.44 151.85 167.16 151.11 L 167.84 150.41 C 168.56 149.66 168.54 148.47 167.79 147.75 C 167.05 147.04 165.86 147.06 165.14 147.80 Z M 164.46 148.51 L 163.77 149.22 C 163.05 149.97 163.08 151.16 163.83 151.87 C 164.57 152.59 165.76 152.57 166.48 151.82 L 167.16 151.11 C 167.88 150.36 167.86 149.17 167.11 148.45 C 166.36 147.74 165.18 147.76 164.46 148.51 Z M 163.77 149.23 L 163.08 149.95 C 162.36 150.70 162.39 151.89 163.14 152.60 C 163.89 153.32 165.07 153.29 165.79 152.54 L 166.48 151.82 C 167.20 151.07 167.17 149.88 166.42 149.17 C 165.67 148.45 164.48 148.48 163.77 149.23 Z M 163.07 149.96 L 162.37 150.69 C 161.66 151.44 161.69 152.63 162.44 153.34 C 163.19 154.06 164.38 154.02 165.10 153.27 L 165.79 152.54 C 166.51 151.79 166.47 150.60 165.72 149.89 C 164.97 149.17 163.78 149.20 163.07 149.96 Z M 162.37 150.69 L 161.67 151.44 C 160.96 152.19 160.99 153.38 161.75 154.09 C 162.50 154.80 163.69 154.77 164.40 154.01 L 165.10 153.27 C 165.81 152.52 165.78 151.33 165.02 150.62 C 164.27 149.91 163.08 149.94 162.37 150.69 Z M 161.67 151.44 L 160.96 152.19 C 160.25 152.94 160.29 154.13 161.05 154.84 C 161.80 155.55 162.99 155.51 163.70 154.76 L 164.40 154.01 C 165.11 153.25 165.07 152.07 164.32 151.36 C 163.56 150.65 162.38 150.68 161.67 151.44 Z M 160.96 152.19 L 160.26 152.94 C 159.55 153.70 159.59 154.89 160.35 155.60 C 161.11 156.30 162.29 156.26 163.00 155.50 L 163.70 154.75 C 164.41 154.00 164.37 152.81 163.61 152.10 C 162.86 151.39 161.67 151.43 160.96 152.19 Z M 160.25 152.94 L 159.58 153.68 C 158.87 154.43 158.91 155.62 159.67 156.33 C 160.43 157.04 161.62 156.99 162.33 156.23 L 163.00 155.50 C 163.71 154.74 163.67 153.55 162.91 152.85 C 162.15 152.14 160.96 152.19 160.25 152.94 Z M 159.57 153.68 L 158.89 154.41 C 158.19 155.17 158.23 156.36 158.99 157.06 C 159.75 157.77 160.94 157.72 161.65 156.96 L 162.33 156.23 C 163.03 155.47 162.99 154.28 162.23 153.58 C 161.47 152.87 160.28 152.92 159.57 153.68 Z M 158.89 154.41 L 158.21 155.15 C 157.51 155.91 157.55 157.10 158.32 157.80 C 159.08 158.51 160.26 158.46 160.97 157.70 L 161.65 156.96 C 162.35 156.20 162.31 155.01 161.55 154.31 C 160.78 153.60 159.60 153.65 158.89 154.41 Z M 158.21 155.15 L 157.53 155.88 C 156.83 156.64 156.87 157.83 157.64 158.54 C 158.40 159.24 159.59 159.19 160.29 158.43 L 160.97 157.70 C 161.67 156.94 161.63 155.75 160.87 155.04 C 160.10 154.34 158.92 154.39 158.21 155.15 Z M 157.53 155.88 L 156.85 156.62 C 156.15 157.38 156.19 158.57 156.95 159.27 C 157.72 159.98 158.90 159.93 159.61 159.17 L 160.29 158.43 C 160.99 157.67 160.95 156.48 160.19 155.78 C 159.43 155.07 158.24 155.12 157.53 155.88 Z M 156.85 156.61 L 156.17 157.35 C 155.47 158.11 155.51 159.30 156.27 160.00 C 157.03 160.71 158.22 160.66 158.93 159.90 L 159.61 159.17 C 160.31 158.41 160.27 157.22 159.51 156.52 C 158.75 155.81 157.56 155.85 156.85 156.61 Z M 156.17 157.35 L 155.49 158.08 C 154.79 158.84 154.83 160.03 155.59 160.73 C 156.35 161.44 157.53 161.40 158.24 160.64 L 158.92 159.91 C 159.63 159.15 159.59 157.96 158.83 157.25 C 158.07 156.54 156.88 156.59 156.17 157.35 Z M 155.50 158.07 L 154.81 158.80 C 154.10 159.56 154.14 160.75 154.90 161.46 C 155.66 162.17 156.85 162.13 157.56 161.37 L 158.24 160.64 C 158.95 159.89 158.91 158.70 158.15 157.99 C 157.39 157.28 156.21 157.32 155.50 158.07 Z M 154.82 158.80 L 154.12 159.53 C 153.41 160.29 153.44 161.48 154.20 162.19 C 154.95 162.90 156.14 162.87 156.86 162.11 L 157.55 161.38 C 158.26 160.62 158.23 159.43 157.47 158.72 C 156.72 158.01 155.53 158.04 154.82 158.80 Z M 154.13 159.53 L 153.41 160.28 C 152.69 161.04 152.72 162.23 153.48 162.94 C 154.23 163.66 155.42 163.63 156.13 162.87 L 156.85 162.12 C 157.57 161.37 157.54 160.18 156.78 159.46 C 156.03 158.75 154.84 158.78 154.13 159.53 Z M 153.41 160.28 L 152.70 161.03 C 151.98 161.78 152.00 162.97 152.75 163.68 C 153.50 164.40 154.69 164.38 155.41 163.63 L 156.13 162.88 C 156.85 162.13 156.82 160.94 156.07 160.22 C 155.32 159.50 154.13 159.53 153.41 160.28 Z M 152.70 161.02 L 151.99 161.76 C 151.27 162.50 151.29 163.69 152.04 164.42 C 152.78 165.14 153.97 165.12 154.69 164.37 L 155.41 163.63 C 156.13 162.89 156.11 161.70 155.36 160.98 C 154.61 160.25 153.42 160.27 152.70 161.02 Z M 152.00 161.75 L 151.29 162.48 C 150.56 163.22 150.58 164.41 151.32 165.14 C 152.07 165.86 153.26 165.84 153.98 165.10 L 154.69 164.38 C 155.41 163.63 155.40 162.44 154.65 161.72 C 153.91 160.99 152.72 161.01 152.00 161.75 Z M 151.29 162.47 L 150.60 163.19 C 149.87 163.93 149.88 165.12 150.62 165.84 C 151.36 166.57 152.55 166.56 153.28 165.82 L 153.98 165.11 C 154.70 164.37 154.69 163.18 153.95 162.45 C 153.21 161.72 152.02 161.73 151.29 162.47 Z M 150.60 163.18 L 149.91 163.88 C 149.18 164.61 149.19 165.80 149.93 166.53 C 150.66 167.26 151.85 167.26 152.58 166.52 L 153.27 165.82 C 154.00 165.09 154.00 163.90 153.26 163.17 C 152.52 162.44 151.33 162.44 150.60 163.18 Z M 149.92 163.87 L 149.24 164.55 C 148.51 165.28 148.51 166.47 149.25 167.21 C 149.98 167.94 151.17 167.94 151.90 167.20 L 152.58 166.52 C 153.31 165.79 153.31 164.60 152.58 163.87 C 151.84 163.13 150.65 163.14 149.92 163.87 Z M 149.25 164.54 L 148.58 165.20 C 147.85 165.94 147.84 167.13 148.57 167.86 C 149.31 168.60 150.50 168.60 151.23 167.87 L 151.90 167.21 C 152.63 166.48 152.64 165.29 151.91 164.55 C 151.17 163.81 149.98 163.81 149.25 164.54 Z M 148.59 165.20 L 147.84 165.94 C 147.10 166.67 147.09 167.86 147.82 168.60 C 148.55 169.34 149.74 169.34 150.48 168.62 L 151.23 167.88 C 151.97 167.15 151.97 165.96 151.25 165.22 C 150.52 164.48 149.33 164.47 148.59 165.20 Z M 147.84 165.93 L 147.11 166.65 C 146.37 167.37 146.36 168.56 147.08 169.30 C 147.81 170.05 149.00 170.06 149.74 169.34 L 150.47 168.62 C 151.21 167.90 151.23 166.71 150.50 165.96 C 149.78 165.22 148.59 165.21 147.84 165.93 Z M 147.12 166.64 L 146.40 167.34 C 145.65 168.06 145.63 169.25 146.36 170.00 C 147.08 170.74 148.27 170.76 149.01 170.04 L 149.73 169.34 C 150.48 168.62 150.50 167.43 149.78 166.68 C 149.05 165.94 147.86 165.92 147.12 166.64 Z M 146.40 167.33 L 145.69 168.02 C 144.95 168.74 144.92 169.93 145.64 170.67 C 146.36 171.42 147.55 171.44 148.30 170.73 L 149.01 170.04 C 149.76 169.32 149.78 168.13 149.06 167.39 C 148.34 166.64 147.15 166.61 146.40 167.33 Z M 145.70 168.01 L 144.99 168.69 C 144.24 169.40 144.21 170.59 144.93 171.34 C 145.65 172.09 146.84 172.12 147.59 171.40 L 148.29 170.73 C 149.04 170.01 149.07 168.82 148.35 168.07 C 147.64 167.32 146.45 167.30 145.70 168.01 Z M 144.99 168.68 L 144.29 169.36 C 143.54 170.07 143.51 171.26 144.22 172.01 C 144.94 172.77 146.13 172.80 146.88 172.08 L 147.58 171.41 C 148.34 170.69 148.37 169.50 147.65 168.75 C 146.94 168.00 145.75 167.97 144.99 168.68 Z M 144.29 169.36 L 143.58 170.03 C 142.82 170.75 142.79 171.94 143.51 172.69 C 144.22 173.44 145.41 173.47 146.16 172.76 L 146.88 172.08 C 147.63 171.37 147.66 170.18 146.95 169.43 C 146.23 168.67 145.04 168.64 144.29 169.36 Z M 143.58 170.03 L 142.88 170.69 C 142.13 171.40 142.10 172.59 142.81 173.34 C 143.53 174.10 144.71 174.13 145.47 173.42 L 146.16 172.76 C 146.91 172.04 146.95 170.86 146.23 170.10 C 145.52 169.35 144.33 169.32 143.58 170.03 Z M 142.88 170.69 L 142.18 171.36 C 141.43 172.07 141.40 173.26 142.11 174.01 C 142.83 174.76 144.01 174.79 144.77 174.08 L 145.47 173.42 C 146.22 172.70 146.25 171.51 145.54 170.76 C 144.82 170.01 143.64 169.98 142.88 170.69 Z M 142.18 171.36 L 141.47 172.03 C 140.72 172.75 140.69 173.94 141.40 174.69 C 142.12 175.44 143.31 175.47 144.06 174.75 L 144.77 174.08 C 145.52 173.36 145.55 172.17 144.84 171.42 C 144.12 170.67 142.93 170.64 142.18 171.36 Z M 141.47 172.04 L 140.75 172.72 C 140.00 173.44 139.97 174.63 140.69 175.38 C 141.41 176.13 142.59 176.15 143.34 175.44 L 144.06 174.75 C 144.81 174.03 144.84 172.84 144.12 172.10 C 143.40 171.35 142.22 171.32 141.47 172.04 Z M 140.74 172.73 L 140.02 173.43 C 139.27 174.15 139.25 175.34 139.97 176.08 C 140.69 176.83 141.88 176.85 142.62 176.13 L 143.35 175.43 C 144.10 174.71 144.12 173.52 143.40 172.78 C 142.68 172.03 141.49 172.01 140.74 172.73 Z M 140.01 173.43 L 139.28 174.15 C 138.53 174.87 138.52 176.06 139.24 176.80 C 139.96 177.55 141.15 177.56 141.89 176.84 L 142.63 176.13 C 143.37 175.40 143.39 174.22 142.67 173.47 C 141.94 172.73 140.75 172.71 140.01 173.43 Z M 139.27 174.16 L 138.53 174.88 C 137.79 175.61 137.78 176.80 138.50 177.54 C 139.23 178.28 140.42 178.29 141.16 177.56 L 141.90 176.83 C 142.64 176.11 142.65 174.92 141.92 174.18 C 141.20 173.44 140.01 173.43 139.27 174.16 Z M 138.52 174.89 L 137.80 175.61 C 137.06 176.34 137.06 177.53 137.79 178.26 C 138.52 179.00 139.71 179.00 140.44 178.27 L 141.17 177.55 C 141.90 176.82 141.90 175.63 141.17 174.90 C 140.44 174.16 139.25 174.16 138.52 174.89 Z M 137.79 175.62 L 137.10 176.32 C 136.36 177.05 136.37 178.24 137.10 178.97 C 137.84 179.70 139.03 179.70 139.76 178.96 L 140.45 178.26 C 141.18 177.53 141.18 176.34 140.44 175.61 C 139.71 174.88 138.52 174.88 137.79 175.62 Z M 137.09 176.32 L 136.39 177.03 C 135.66 177.77 135.67 178.96 136.41 179.69 C 137.15 180.41 138.34 180.40 139.06 179.67 L 139.76 178.96 C 140.49 178.22 140.48 177.03 139.74 176.30 C 139.01 175.58 137.82 175.59 137.09 176.32 Z M 136.39 177.04 L 135.68 177.75 C 134.96 178.49 134.97 179.68 135.71 180.41 C 136.45 181.13 137.64 181.12 138.36 180.38 L 139.07 179.66 C 139.79 178.92 139.78 177.73 139.04 177.01 C 138.30 176.28 137.11 176.30 136.39 177.04 Z M 135.68 177.76 L 134.98 178.48 C 134.25 179.22 134.27 180.41 135.01 181.13 C 135.75 181.85 136.94 181.84 137.66 181.10 L 138.37 180.38 C 139.09 179.63 139.08 178.45 138.33 177.72 C 137.59 177.00 136.40 177.02 135.68 177.76 Z M 134.98 178.48 L 134.27 179.20 C 133.55 179.95 133.57 181.13 134.31 181.86 C 135.05 182.58 136.24 182.56 136.96 181.82 L 137.67 181.10 C 138.39 180.35 138.37 179.17 137.63 178.44 C 136.89 177.72 135.70 177.74 134.98 178.48 Z M 134.27 179.20 L 133.57 179.93 C 132.85 180.67 132.86 181.85 133.61 182.58 C 134.35 183.30 135.54 183.28 136.26 182.54 L 136.96 181.82 C 137.68 181.08 137.67 179.89 136.93 179.17 C 136.18 178.44 135.00 178.46 134.27 179.20 Z M 133.57 179.92 L 132.87 180.64 C 132.15 181.38 132.16 182.57 132.91 183.29 C 133.65 184.02 134.83 184.00 135.56 183.26 L 136.26 182.54 C 136.98 181.80 136.97 180.61 136.22 179.89 C 135.48 179.17 134.30 179.18 133.57 179.92 Z M 132.88 180.64 L 132.16 181.37 C 131.44 182.11 131.45 183.29 132.19 184.02 C 132.93 184.74 134.12 184.73 134.84 183.99 L 135.55 183.26 C 136.28 182.52 136.27 181.34 135.53 180.61 C 134.79 179.89 133.60 179.90 132.88 180.64 Z M 132.17 181.36 L 131.44 182.10 C 130.71 182.84 130.72 184.03 131.46 184.75 C 132.20 185.48 133.38 185.47 134.11 184.73 L 134.84 183.99 C 135.57 183.25 135.56 182.07 134.82 181.34 C 134.08 180.62 132.89 180.62 132.17 181.36 Z M 131.44 182.10 L 130.72 182.83 C 129.99 183.56 130.00 184.75 130.73 185.48 C 131.47 186.21 132.65 186.20 133.38 185.47 L 134.11 184.74 C 134.83 184.00 134.83 182.82 134.09 182.09 C 133.36 181.36 132.17 181.36 131.44 182.10 Z M 130.73 182.82 L 130.01 183.54 C 129.28 184.27 129.28 185.46 130.01 186.19 C 130.74 186.92 131.93 186.92 132.66 186.19 L 133.38 185.47 C 134.11 184.74 134.11 183.55 133.38 182.82 C 132.64 182.09 131.46 182.09 130.73 182.82 Z M 130.02 183.54 L 129.30 184.24 C 128.57 184.97 128.56 186.16 129.29 186.89 C 130.02 187.62 131.21 187.63 131.94 186.90 L 132.65 186.20 C 133.39 185.47 133.39 184.28 132.66 183.55 C 131.94 182.81 130.75 182.81 130.02 183.54 Z M 129.31 184.23 L 128.61 184.93 C 127.87 185.65 127.86 186.84 128.58 187.57 C 129.31 188.31 130.49 188.32 131.23 187.60 L 131.94 186.91 C 132.67 186.18 132.68 185.00 131.96 184.26 C 131.23 183.52 130.05 183.51 129.31 184.23 Z M 128.61 184.92 L 127.92 185.60 C 127.18 186.32 127.16 187.50 127.88 188.24 C 128.60 188.99 129.78 189.00 130.53 188.28 L 131.22 187.61 C 131.96 186.89 131.98 185.70 131.26 184.96 C 130.54 184.22 129.36 184.20 128.61 184.92 Z M 127.93 185.59 L 127.24 186.25 C 126.49 186.97 126.47 188.15 127.18 188.90 C 127.90 189.64 129.08 189.67 129.83 188.95 L 130.52 188.29 C 131.26 187.58 131.29 186.39 130.57 185.64 C 129.86 184.90 128.67 184.87 127.93 185.59 Z M 127.25 186.24 L 126.51 186.93 C 125.76 187.64 125.73 188.83 126.44 189.58 C 127.15 190.33 128.33 190.36 129.08 189.65 L 129.82 188.96 C 130.57 188.25 130.60 187.07 129.89 186.32 C 129.18 185.56 128.00 185.53 127.25 186.24 Z M 126.52 186.93 L 125.78 187.62 C 125.02 188.32 124.98 189.51 125.68 190.26 C 126.38 191.02 127.57 191.06 128.32 190.36 L 129.07 189.66 C 129.83 188.96 129.87 187.78 129.17 187.02 C 128.46 186.26 127.28 186.22 126.52 186.93 Z M 125.79 187.61 L 125.05 188.29 C 124.29 188.99 124.23 190.17 124.93 190.93 C 125.63 191.69 126.81 191.74 127.57 191.05 L 128.31 190.37 C 129.07 189.67 129.13 188.49 128.43 187.73 C 127.73 186.97 126.55 186.91 125.79 187.61 Z M 125.06 188.28 L 124.32 188.95 C 123.55 189.64 123.49 190.82 124.18 191.59 C 124.87 192.35 126.05 192.41 126.82 191.72 L 127.56 191.06 C 128.33 190.37 128.39 189.19 127.70 188.42 C 127.01 187.65 125.82 187.59 125.06 188.28 Z M 124.33 188.94 L 123.59 189.59 C 122.82 190.28 122.75 191.46 123.43 192.23 C 124.12 193.00 125.30 193.07 126.07 192.39 L 126.81 191.73 C 127.58 191.05 127.65 189.87 126.97 189.10 C 126.28 188.33 125.10 188.25 124.33 188.94 Z M 123.60 189.59 L 122.86 190.23 C 122.09 190.91 122.01 192.09 122.69 192.86 C 123.36 193.64 124.54 193.72 125.32 193.04 L 126.06 192.39 C 126.83 191.72 126.91 190.54 126.24 189.76 C 125.56 188.99 124.38 188.91 123.60 189.59 Z M 122.87 190.22 L 122.13 190.87 C 121.35 191.54 121.26 192.72 121.93 193.50 C 122.60 194.28 123.78 194.36 124.56 193.69 L 125.31 193.05 C 126.09 192.38 126.17 191.20 125.50 190.42 C 124.83 189.64 123.65 189.55 122.87 190.22 Z M 122.14 190.86 L 121.37 191.51 C 120.59 192.17 120.49 193.35 121.16 194.13 C 121.83 194.92 123.00 195.01 123.79 194.35 L 124.55 193.70 C 125.33 193.03 125.43 191.86 124.76 191.07 C 124.10 190.29 122.92 190.19 122.14 190.86 Z M 121.38 191.50 L 120.61 192.15 C 119.82 192.81 119.72 193.99 120.38 194.77 C 121.04 195.56 122.22 195.66 123.00 195.00 L 123.78 194.35 C 124.56 193.69 124.67 192.52 124.01 191.73 C 123.34 190.94 122.17 190.84 121.38 191.50 Z M 120.62 192.15 L 119.84 192.80 C 119.05 193.45 118.95 194.62 119.60 195.41 C 120.26 196.20 121.43 196.31 122.22 195.65 L 123.00 195.01 C 123.79 194.35 123.89 193.18 123.24 192.39 C 122.58 191.60 121.41 191.49 120.62 192.15 Z M 119.85 192.79 L 119.07 193.44 C 118.28 194.09 118.17 195.26 118.83 196.05 C 119.48 196.84 120.65 196.95 121.44 196.30 L 122.22 195.65 C 123.01 195.00 123.12 193.83 122.46 193.04 C 121.81 192.25 120.64 192.14 119.85 192.79 Z M 119.08 193.44 L 118.30 194.07 C 117.51 194.73 117.40 195.89 118.06 196.68 C 118.71 197.47 119.88 197.59 120.67 196.93 L 121.44 196.30 C 122.23 195.64 122.34 194.47 121.69 193.68 C 121.03 192.89 119.87 192.78 119.08 193.44 Z M 118.31 194.07 L 117.54 194.71 C 116.75 195.36 116.64 196.53 117.30 197.32 C 117.95 198.10 119.12 198.21 119.90 197.56 L 120.67 196.93 C 121.46 196.28 121.57 195.11 120.91 194.32 C 120.26 193.53 119.09 193.42 118.31 194.07 Z M 117.54 194.71 L 116.79 195.34 C 116.00 195.99 115.89 197.16 116.55 197.94 C 117.20 198.73 118.37 198.84 119.15 198.18 L 119.91 197.56 C 120.69 196.91 120.80 195.74 120.15 194.95 C 119.49 194.16 118.33 194.06 117.54 194.71 Z M 116.78 195.34 L 116.00 196.00 C 115.22 196.65 115.11 197.82 115.77 198.60 C 116.42 199.38 117.59 199.49 118.37 198.83 L 119.16 198.18 C 119.94 197.52 120.04 196.36 119.39 195.57 C 118.73 194.79 117.57 194.69 116.78 195.34 Z M 116.00 196.00 L 115.23 196.65 C 114.45 197.31 114.35 198.47 115.01 199.25 C 115.66 200.03 116.83 200.13 117.61 199.47 L 118.38 198.83 C 119.16 198.17 119.26 197.00 118.60 196.22 C 117.94 195.44 116.78 195.34 116.00 196.00 Z M 115.22 196.66 L 114.46 197.31 C 113.69 197.97 113.59 199.13 114.26 199.91 C 114.92 200.68 116.08 200.78 116.86 200.11 L 117.62 199.47 C 118.39 198.81 118.48 197.64 117.82 196.87 C 117.16 196.09 116.00 196.00 115.22 196.66 Z M 114.46 197.32 L 113.70 197.96 C 112.93 198.63 112.85 199.79 113.51 200.56 C 114.18 201.33 115.34 201.42 116.11 200.75 L 116.86 200.10 C 117.63 199.44 117.72 198.28 117.05 197.51 C 116.39 196.74 115.23 196.65 114.46 197.32 Z M 113.70 197.97 L 112.95 198.63 C 112.19 199.30 112.11 200.46 112.78 201.23 C 113.45 201.99 114.61 202.07 115.38 201.40 L 116.12 200.74 C 116.89 200.07 116.96 198.91 116.29 198.15 C 115.62 197.38 114.46 197.30 113.70 197.97 Z M 112.94 198.64 L 112.20 199.30 C 111.44 199.97 111.37 201.14 112.05 201.90 C 112.72 202.65 113.88 202.72 114.64 202.05 L 115.39 201.39 C 116.14 200.71 116.21 199.55 115.54 198.79 C 114.86 198.03 113.70 197.96 112.94 198.64 Z M 112.19 199.31 L 111.45 199.98 C 110.70 200.66 110.64 201.82 111.32 202.57 C 112.00 203.33 113.16 203.39 113.91 202.70 L 114.65 202.03 C 115.40 201.35 115.46 200.19 114.78 199.44 C 114.10 198.69 112.94 198.63 112.19 199.31 Z M 111.44 199.99 L 110.70 200.67 C 109.95 201.36 109.91 202.52 110.59 203.26 C 111.28 204.01 112.44 204.06 113.18 203.37 L 113.92 202.69 C 114.67 202.01 114.72 200.85 114.03 200.10 C 113.34 199.36 112.18 199.31 111.44 199.99 Z M 110.69 200.68 L 109.96 201.37 C 109.22 202.06 109.18 203.22 109.87 203.96 C 110.56 204.70 111.71 204.74 112.45 204.05 L 113.19 203.36 C 113.93 202.67 113.97 201.51 113.28 200.77 C 112.59 200.03 111.43 199.99 110.69 200.68 Z M 109.95 201.38 L 109.22 202.07 C 108.48 202.77 108.45 203.92 109.14 204.66 C 109.84 205.39 111.00 205.42 111.73 204.73 L 112.46 204.04 C 113.20 203.34 113.23 202.19 112.53 201.45 C 111.84 200.72 110.68 200.69 109.95 201.38 Z M 109.21 202.08 L 108.49 202.77 C 107.76 203.47 107.73 204.63 108.43 205.36 C 109.13 206.09 110.28 206.11 111.01 205.41 L 111.74 204.72 C 112.47 204.02 112.49 202.87 111.79 202.14 C 111.10 201.41 109.94 201.38 109.21 202.08 Z M 108.48 202.78 L 107.77 203.47 C 107.04 204.18 107.02 205.33 107.72 206.06 C 108.43 206.78 109.58 206.80 110.30 206.10 L 111.02 205.40 C 111.74 204.70 111.76 203.55 111.06 202.82 C 110.36 202.10 109.20 202.08 108.48 202.78 Z M 107.76 203.48 L 107.05 204.18 C 106.33 204.88 106.32 206.04 107.02 206.76 C 107.73 207.47 108.88 207.49 109.60 206.78 L 110.31 206.09 C 111.03 205.38 111.04 204.23 110.34 203.51 C 109.63 202.79 108.48 202.78 107.76 203.48 Z M 107.05 204.19 L 106.30 204.92 C 105.59 205.63 105.58 206.78 106.29 207.49 C 106.99 208.21 108.15 208.22 108.86 207.51 L 109.61 206.77 C 110.32 206.07 110.33 204.92 109.62 204.20 C 108.91 203.49 107.76 203.48 107.05 204.19 Z M 106.30 204.93 L 105.57 205.65 C 104.86 206.36 104.86 207.51 105.57 208.22 C 106.27 208.93 107.42 208.94 108.14 208.23 L 108.86 207.50 C 109.58 206.79 109.58 205.64 108.87 204.93 C 108.16 204.22 107.01 204.22 106.30 204.93 Z M 105.57 205.66 L 104.86 206.37 C 104.15 207.08 104.15 208.23 104.86 208.94 C 105.56 209.64 106.71 209.65 107.42 208.94 L 108.14 208.22 C 108.84 207.52 108.85 206.37 108.14 205.66 C 107.43 204.95 106.28 204.95 105.57 205.66 Z M 104.86 206.37 L 104.16 207.07 C 103.45 207.78 103.45 208.92 104.16 209.63 C 104.87 210.34 106.01 210.34 106.72 209.63 L 107.42 208.94 C 108.13 208.23 108.13 207.08 107.42 206.37 C 106.71 205.67 105.57 205.67 104.86 206.37 Z M 104.16 207.07 L 103.48 207.75 C 102.77 208.46 102.77 209.60 103.47 210.31 C 104.18 211.02 105.32 211.02 106.03 210.32 L 106.71 209.63 C 107.42 208.93 107.43 207.79 106.72 207.08 C 106.02 206.37 104.87 206.37 104.16 207.07 Z M 103.49 207.75 L 102.80 208.43 C 102.09 209.13 102.08 210.27 102.78 210.98 C 103.48 211.69 104.62 211.70 105.33 211.00 L 106.02 210.32 C 106.73 209.62 106.74 208.48 106.04 207.77 C 105.34 207.06 104.20 207.05 103.49 207.75 Z M 102.81 208.42 L 102.05 209.16 C 101.34 209.85 101.32 211.00 102.01 211.71 C 102.71 212.42 103.85 212.44 104.56 211.74 L 105.32 211.00 C 106.04 210.31 106.05 209.17 105.36 208.46 C 104.67 207.74 103.52 207.73 102.81 208.42 Z M 102.06 209.15 L 101.32 209.86 C 100.60 210.55 100.57 211.69 101.26 212.41 C 101.94 213.12 103.08 213.15 103.80 212.47 L 104.55 211.75 C 105.26 211.07 105.29 209.93 104.61 209.21 C 103.92 208.49 102.78 208.47 102.06 209.15 Z M 101.34 209.85 L 100.61 210.53 C 99.88 211.21 99.84 212.34 100.51 213.07 C 101.19 213.79 102.32 213.83 103.05 213.16 L 103.78 212.48 C 104.51 211.80 104.55 210.67 103.87 209.94 C 103.20 209.22 102.06 209.18 101.34 209.85 Z M 100.63 210.52 L 99.91 211.17 C 99.18 211.83 99.12 212.96 99.78 213.69 C 100.44 214.43 101.58 214.48 102.31 213.82 L 103.03 213.17 C 103.76 212.51 103.82 211.38 103.16 210.64 C 102.49 209.91 101.36 209.85 100.63 210.52 Z M 99.94 211.15 L 99.23 211.76 C 98.49 212.41 98.41 213.54 99.06 214.28 C 99.71 215.03 100.84 215.10 101.58 214.45 L 102.28 213.84 C 103.03 213.19 103.10 212.06 102.46 211.32 C 101.81 210.58 100.68 210.50 99.94 211.15 Z M 99.26 211.74 L 98.46 212.41 C 97.71 213.04 97.61 214.16 98.23 214.92 C 98.86 215.67 99.99 215.77 100.74 215.14 L 101.55 214.48 C 102.30 213.85 102.40 212.72 101.77 211.97 C 101.14 211.21 100.02 211.11 99.26 211.74 Z M 98.50 212.39 L 97.70 213.02 C 96.93 213.63 96.81 214.74 97.42 215.51 C 98.03 216.28 99.14 216.41 99.91 215.80 L 100.71 215.17 C 101.48 214.56 101.60 213.44 100.99 212.67 C 100.38 211.90 99.27 211.78 98.50 212.39 Z M 97.74 213.00 L 96.95 213.60 C 96.17 214.19 96.02 215.30 96.61 216.08 C 97.20 216.85 98.31 217.01 99.09 216.42 L 99.88 215.82 C 100.66 215.23 100.81 214.12 100.22 213.34 C 99.63 212.56 98.52 212.41 97.74 213.00 Z M 96.98 213.58 L 96.20 214.15 C 95.41 214.72 95.24 215.82 95.81 216.61 C 96.38 217.40 97.49 217.57 98.27 217.00 L 99.06 216.43 C 99.84 215.86 100.02 214.76 99.45 213.97 C 98.87 213.18 97.77 213.01 96.98 213.58 Z M 96.23 214.13 L 95.41 214.71 C 94.61 215.27 94.42 216.36 94.98 217.16 C 95.53 217.95 96.63 218.15 97.43 217.59 L 98.24 217.01 C 99.04 216.46 99.23 215.36 98.68 214.57 C 98.12 213.77 97.02 213.58 96.23 214.13 Z M 95.44 214.70 L 94.58 215.28 C 93.78 215.82 93.57 216.91 94.11 217.71 C 94.66 218.51 95.74 218.72 96.54 218.18 L 97.40 217.60 C 98.20 217.06 98.41 215.97 97.87 215.17 C 97.33 214.37 96.24 214.16 95.44 214.70 Z M 94.61 215.27 L 93.77 215.82 C 92.96 216.35 92.74 217.43 93.27 218.23 C 93.79 219.04 94.87 219.26 95.68 218.73 L 96.52 218.18 C 97.32 217.66 97.55 216.58 97.02 215.77 C 96.49 214.97 95.41 214.74 94.61 215.27 Z M 93.79 215.81 L 92.97 216.34 C 92.16 216.85 91.93 217.92 92.44 218.73 C 92.95 219.54 94.02 219.77 94.83 219.26 L 95.65 218.74 C 96.46 218.23 96.70 217.16 96.19 216.35 C 95.67 215.54 94.60 215.30 93.79 215.81 Z M 93.00 216.33 L 92.15 216.85 C 91.34 217.35 91.09 218.41 91.59 219.22 C 92.09 220.03 93.15 220.29 93.96 219.79 L 94.81 219.27 C 95.62 218.77 95.87 217.70 95.37 216.89 C 94.87 216.08 93.81 215.83 93.00 216.33 Z M 92.17 216.85 L 91.30 217.37 C 90.49 217.86 90.23 218.92 90.72 219.73 C 91.21 220.54 92.26 220.80 93.07 220.31 L 93.94 219.79 C 94.75 219.30 95.01 218.25 94.53 217.43 C 94.04 216.62 92.98 216.36 92.17 216.85 Z M 91.32 217.38 L 90.47 217.88 C 89.66 218.36 89.40 219.41 89.88 220.22 C 90.36 221.03 91.40 221.29 92.21 220.81 L 93.06 220.31 C 93.87 219.82 94.13 218.78 93.65 217.97 C 93.17 217.16 92.12 216.90 91.32 217.38 Z M 90.47 217.89 L 89.63 218.40 C 88.83 218.88 88.57 219.92 89.05 220.72 C 89.53 221.52 90.57 221.78 91.37 221.30 L 92.21 220.80 C 93.01 220.32 93.27 219.28 92.79 218.48 C 92.31 217.67 91.27 217.41 90.47 217.89 Z M 89.62 218.42 L 88.77 218.94 C 87.98 219.43 87.73 220.46 88.22 221.25 C 88.70 222.05 89.74 222.29 90.53 221.81 L 91.38 221.28 C 92.18 220.80 92.42 219.76 91.94 218.97 C 91.45 218.18 90.41 217.93 89.62 218.42 Z M 88.76 218.96 L 87.91 219.49 C 87.13 219.99 86.89 221.02 87.38 221.80 C 87.88 222.58 88.91 222.82 89.69 222.32 L 90.54 221.79 C 91.32 221.30 91.56 220.26 91.06 219.48 C 90.57 218.70 89.54 218.47 88.76 218.96 Z M 87.90 219.51 L 87.06 220.06 C 86.29 220.55 86.07 221.58 86.56 222.35 C 87.06 223.12 88.09 223.34 88.86 222.85 L 89.70 222.30 C 90.47 221.81 90.69 220.78 90.19 220.01 C 89.70 219.24 88.67 219.02 87.90 219.51 Z M 87.05 220.08 L 86.21 220.63 C 85.45 221.14 85.24 222.16 85.74 222.92 C 86.24 223.68 87.27 223.89 88.03 223.38 L 88.87 222.83 C 89.63 222.32 89.84 221.30 89.33 220.54 C 88.83 219.78 87.81 219.57 87.05 220.08 Z M 86.19 220.65 L 85.35 221.23 C 84.60 221.74 84.41 222.76 84.92 223.50 C 85.43 224.25 86.45 224.45 87.19 223.94 L 88.04 223.36 C 88.79 222.85 88.98 221.83 88.47 221.09 C 87.96 220.34 86.94 220.14 86.19 220.65 Z M 85.34 221.25 L 84.52 221.82 C 83.79 222.34 83.61 223.35 84.13 224.09 C 84.65 224.83 85.66 225.00 86.40 224.48 L 87.21 223.91 C 87.95 223.40 88.12 222.38 87.61 221.64 C 87.09 220.91 86.07 220.73 85.34 221.25 Z M 84.51 221.85 L 83.71 222.43 C 82.99 222.95 82.84 223.97 83.36 224.69 C 83.89 225.41 84.90 225.57 85.62 225.04 L 86.42 224.46 C 87.14 223.93 87.30 222.92 86.77 222.20 C 86.24 221.48 85.23 221.32 84.51 221.85 Z M 83.69 222.46 L 82.87 223.09 C 82.16 223.63 82.03 224.63 82.57 225.34 C 83.10 226.05 84.11 226.18 84.82 225.64 L 85.65 225.01 C 86.35 224.47 86.49 223.46 85.95 222.76 C 85.41 222.05 84.40 221.92 83.69 222.46 Z M 82.85 223.11 L 82.07 223.73 C 81.38 224.27 81.27 225.28 81.81 225.97 C 82.36 226.66 83.37 226.78 84.06 226.23 L 84.83 225.62 C 85.53 225.07 85.64 224.06 85.10 223.37 C 84.55 222.68 83.54 222.56 82.85 223.11 Z M 82.07 223.75 L 81.31 224.36 C 80.63 224.91 80.53 225.91 81.08 226.59 C 81.63 227.27 82.63 227.38 83.31 226.82 L 84.07 226.21 C 84.75 225.66 84.85 224.66 84.30 223.98 C 83.75 223.30 82.75 223.20 82.07 223.75 Z M 81.30 224.38 L 80.52 225.03 C 79.86 225.59 79.76 226.58 80.32 227.25 C 80.88 227.92 81.87 228.01 82.54 227.45 L 83.32 226.80 C 83.99 226.25 84.08 225.25 83.52 224.58 C 82.96 223.92 81.97 223.83 81.30 224.38 Z M 80.50 225.06 L 79.77 225.71 C 79.12 226.27 79.05 227.26 79.62 227.91 C 80.19 228.56 81.17 228.63 81.82 228.06 L 82.56 227.42 C 83.21 226.85 83.28 225.86 82.71 225.21 C 82.14 224.56 81.15 224.50 80.50 225.06 Z M 79.74 225.75 L 78.99 226.45 C 78.36 227.03 78.32 228.02 78.91 228.64 C 79.49 229.27 80.47 229.30 81.10 228.72 L 81.85 228.02 C 82.48 227.44 82.51 226.45 81.93 225.83 C 81.35 225.20 80.37 225.17 79.74 225.75 Z M 78.97 226.49 L 78.25 227.19 C 77.64 227.79 77.63 228.76 78.22 229.37 C 78.82 229.97 79.79 229.98 80.40 229.39 L 81.12 228.68 C 81.72 228.09 81.73 227.12 81.14 226.51 C 80.55 225.90 79.57 225.89 78.97 226.49 Z M 78.24 227.21 L 77.57 227.89 C 76.97 228.49 76.97 229.45 77.57 230.05 C 78.16 230.64 79.13 230.64 79.72 230.05 L 80.40 229.37 C 80.99 228.77 80.99 227.81 80.40 227.21 C 79.80 226.62 78.84 226.62 78.24 227.21 Z M 77.59 227.90 L 76.90 228.57 C 76.30 229.16 76.30 230.11 76.88 230.71 C 77.46 231.30 78.42 231.31 79.01 230.72 L 79.70 230.04 C 80.29 229.46 80.30 228.51 79.72 227.91 C 79.13 227.32 78.18 227.31 77.59 227.90 Z M 76.94 228.56 L 76.21 229.23 C 75.61 229.80 75.58 230.74 76.14 231.34 C 76.70 231.94 77.65 231.98 78.25 231.41 L 78.97 230.74 C 79.58 230.18 79.61 229.23 79.04 228.63 C 78.48 228.03 77.54 228.00 76.94 228.56 Z M 76.24 229.22 L 75.50 229.89 C 74.90 230.43 74.85 231.37 75.39 231.98 C 75.94 232.58 76.87 232.63 77.48 232.09 L 78.22 231.42 C 78.83 230.88 78.88 229.94 78.33 229.34 C 77.79 228.73 76.85 228.68 76.24 229.22 Z M 75.52 229.89 L 74.74 230.58 C 74.13 231.11 74.08 232.04 74.61 232.65 C 75.15 233.25 76.07 233.31 76.68 232.78 L 77.46 232.09 C 78.07 231.55 78.13 230.63 77.59 230.02 C 77.06 229.41 76.13 229.35 75.52 229.89 Z M 74.75 230.58 L 73.98 231.26 C 73.38 231.79 73.32 232.71 73.85 233.31 C 74.37 233.91 75.29 233.98 75.90 233.45 L 76.67 232.77 C 77.27 232.24 77.33 231.32 76.80 230.72 C 76.28 230.12 75.36 230.05 74.75 230.58 Z M 73.99 231.26 L 73.24 231.91 C 72.64 232.44 72.58 233.35 73.10 233.96 C 73.63 234.56 74.54 234.62 75.14 234.09 L 75.89 233.44 C 76.49 232.92 76.56 232.00 76.03 231.40 C 75.50 230.80 74.59 230.74 73.99 231.26 Z M 73.25 231.92 L 72.80 232.31 C 72.20 232.83 72.14 233.74 72.66 234.34 C 73.18 234.94 74.09 235.00 74.69 234.48 L 75.14 234.09 C 75.74 233.57 75.80 232.66 75.28 232.06 C 74.76 231.46 73.85 231.40 73.25 231.92 Z"
      fill="black"
      fill-rule="nonzero" /><path d="M 82.47 95.21 L 83.16 95.93 C 83.71 96.52 84.63 96.54 85.21 95.99 C 85.80 95.44 85.82 94.52 85.27 93.93 L 84.59 93.21 C 84.03 92.62 83.11 92.60 82.53 93.15 C 81.94 93.71 81.92 94.63 82.47 95.21 Z M 83.16 95.94 L 83.81 96.61 C 84.36 97.19 85.29 97.21 85.87 96.65 C 86.45 96.09 86.46 95.17 85.91 94.59 L 85.26 93.92 C 84.70 93.34 83.78 93.32 83.20 93.88 C 82.62 94.44 82.60 95.36 83.16 95.94 Z M 83.80 96.61 L 84.45 97.29 C 85.01 97.87 85.94 97.89 86.52 97.33 C 87.10 96.77 87.12 95.85 86.56 95.27 L 85.91 94.59 C 85.35 94.01 84.43 93.99 83.84 94.55 C 83.26 95.11 83.24 96.03 83.80 96.61 Z M 84.44 97.27 L 85.18 98.07 C 85.73 98.67 86.66 98.70 87.25 98.15 C 87.84 97.60 87.87 96.68 87.32 96.09 L 86.58 95.28 C 86.03 94.69 85.10 94.66 84.51 95.21 C 83.92 95.76 83.89 96.68 84.44 97.27 Z M 85.17 98.06 L 85.84 98.80 C 86.38 99.40 87.31 99.45 87.91 98.90 C 88.51 98.36 88.55 97.43 88.01 96.84 L 87.34 96.10 C 86.79 95.50 85.87 95.45 85.27 96.00 C 84.67 96.54 84.63 97.47 85.17 98.06 Z M 85.83 98.80 L 86.54 99.58 C 87.08 100.18 88.01 100.23 88.61 99.69 C 89.21 99.15 89.26 98.22 88.72 97.62 L 88.01 96.84 C 87.47 96.24 86.54 96.19 85.94 96.73 C 85.34 97.27 85.29 98.20 85.83 98.80 Z M 86.54 99.58 L 87.22 100.34 C 87.76 100.95 88.69 101.00 89.30 100.45 C 89.90 99.91 89.95 98.98 89.40 98.38 L 88.72 97.62 C 88.18 97.01 87.25 96.96 86.64 97.51 C 86.04 98.05 85.99 98.98 86.54 99.58 Z M 87.22 100.35 L 87.94 101.14 C 88.48 101.75 89.41 101.79 90.01 101.25 C 90.62 100.71 90.67 99.78 90.12 99.17 L 89.41 98.38 C 88.86 97.77 87.93 97.73 87.33 98.27 C 86.73 98.81 86.68 99.74 87.22 100.35 Z M 87.93 101.14 L 88.55 101.83 C 89.09 102.44 90.02 102.49 90.63 101.95 C 91.23 101.41 91.29 100.48 90.75 99.88 L 90.13 99.18 C 89.59 98.57 88.66 98.52 88.05 99.06 C 87.45 99.60 87.39 100.53 87.93 101.14 Z M 88.53 101.81 L 89.15 102.53 C 89.68 103.15 90.61 103.22 91.23 102.69 C 91.84 102.16 91.91 101.23 91.38 100.61 L 90.77 99.89 C 90.24 99.28 89.31 99.21 88.69 99.74 C 88.07 100.27 88.00 101.20 88.53 101.81 Z M 89.14 102.52 L 89.78 103.28 C 90.30 103.91 91.23 103.99 91.86 103.46 C 92.48 102.94 92.56 102.01 92.04 101.39 L 91.39 100.62 C 90.87 100.00 89.94 99.92 89.32 100.44 C 88.69 100.97 88.61 101.90 89.14 102.52 Z M 89.78 103.29 L 90.44 104.06 C 90.97 104.69 91.90 104.76 92.52 104.24 C 93.14 103.71 93.22 102.78 92.69 102.16 L 92.03 101.38 C 91.51 100.76 90.58 100.68 89.95 101.21 C 89.33 101.74 89.26 102.67 89.78 103.29 Z M 90.45 104.07 L 91.10 104.83 C 91.63 105.45 92.56 105.52 93.18 104.99 C 93.80 104.45 93.87 103.52 93.34 102.91 L 92.68 102.15 C 92.15 101.53 91.22 101.46 90.60 101.99 C 89.98 102.52 89.91 103.46 90.45 104.07 Z M 91.10 104.83 L 91.75 105.59 C 92.29 106.21 93.22 106.28 93.84 105.75 C 94.46 105.22 94.52 104.28 93.99 103.67 L 93.34 102.90 C 92.80 102.29 91.87 102.22 91.25 102.75 C 90.63 103.28 90.57 104.21 91.10 104.83 Z M 91.75 105.59 L 92.40 106.35 C 92.92 106.97 93.86 107.05 94.48 106.52 C 95.10 105.99 95.18 105.06 94.65 104.43 L 94.00 103.67 C 93.47 103.05 92.54 102.98 91.92 103.50 C 91.29 104.03 91.22 104.97 91.75 105.59 Z M 92.39 106.34 L 93.03 107.10 C 93.56 107.73 94.49 107.81 95.11 107.28 C 95.74 106.76 95.82 105.83 95.29 105.20 L 94.65 104.44 C 94.13 103.81 93.19 103.73 92.57 104.26 C 91.94 104.79 91.86 105.72 92.39 106.34 Z M 93.03 107.10 L 93.66 107.86 C 94.19 108.48 95.12 108.57 95.75 108.04 C 96.37 107.51 96.45 106.58 95.93 105.96 L 95.29 105.20 C 94.77 104.58 93.84 104.50 93.21 105.02 C 92.58 105.55 92.50 106.48 93.03 107.10 Z M 93.66 107.86 L 94.29 108.61 C 94.82 109.23 95.75 109.31 96.38 108.79 C 97.00 108.26 97.08 107.33 96.56 106.70 L 95.93 105.96 C 95.40 105.33 94.47 105.25 93.84 105.78 C 93.22 106.30 93.14 107.24 93.66 107.86 Z M 94.29 108.60 L 94.95 109.39 C 95.47 110.02 96.40 110.10 97.03 109.58 C 97.66 109.05 97.74 108.12 97.22 107.49 L 96.56 106.71 C 96.04 106.08 95.10 105.99 94.48 106.52 C 93.85 107.04 93.76 107.98 94.29 108.60 Z M 94.94 109.38 L 95.58 110.16 C 96.10 110.79 97.03 110.88 97.66 110.36 C 98.30 109.84 98.38 108.91 97.86 108.28 L 97.22 107.50 C 96.70 106.87 95.77 106.78 95.14 107.30 C 94.51 107.82 94.42 108.75 94.94 109.38 Z M 95.58 110.16 L 96.21 110.94 C 96.73 111.57 97.67 111.66 98.30 111.14 C 98.93 110.63 99.03 109.69 98.51 109.06 L 97.87 108.28 C 97.35 107.65 96.42 107.55 95.78 108.07 C 95.15 108.59 95.06 109.52 95.58 110.16 Z M 96.21 110.94 L 96.85 111.72 C 97.37 112.35 98.31 112.44 98.94 111.92 C 99.57 111.40 99.66 110.47 99.14 109.83 L 98.51 109.06 C 97.99 108.42 97.05 108.33 96.42 108.85 C 95.79 109.37 95.69 110.31 96.21 110.94 Z M 96.86 111.72 L 97.51 112.50 C 98.03 113.13 98.97 113.22 99.60 112.70 C 100.23 112.17 100.31 111.24 99.79 110.61 L 99.14 109.83 C 98.62 109.20 97.68 109.11 97.05 109.63 C 96.42 110.16 96.33 111.09 96.86 111.72 Z M 97.52 112.52 L 98.16 113.27 C 98.69 113.90 99.63 113.98 100.25 113.44 C 100.88 112.91 100.95 111.98 100.42 111.35 L 99.78 110.59 C 99.25 109.97 98.31 109.89 97.69 110.42 C 97.06 110.95 96.99 111.89 97.52 112.52 Z M 98.17 113.29 L 98.82 114.03 C 99.36 114.65 100.30 114.72 100.92 114.18 C 101.54 113.64 101.60 112.70 101.06 112.08 L 100.41 111.34 C 99.87 110.72 98.93 110.66 98.32 111.20 C 97.70 111.73 97.63 112.67 98.17 113.29 Z M 98.84 114.05 L 99.49 114.78 C 100.04 115.39 100.98 115.44 101.59 114.89 C 102.20 114.34 102.25 113.40 101.70 112.79 L 101.05 112.06 C 100.50 111.45 99.56 111.41 98.95 111.95 C 98.34 112.50 98.29 113.44 98.84 114.05 Z M 99.50 114.79 L 100.18 115.53 C 100.74 116.13 101.68 116.17 102.28 115.61 C 102.88 115.06 102.92 114.12 102.37 113.51 L 101.69 112.78 C 101.13 112.18 100.19 112.14 99.59 112.69 C 98.99 113.25 98.95 114.19 99.50 114.79 Z M 100.19 115.54 L 100.89 116.28 C 101.45 116.88 102.39 116.91 102.99 116.35 C 103.59 115.78 103.62 114.84 103.06 114.25 L 102.36 113.50 C 101.79 112.90 100.85 112.87 100.26 113.44 C 99.66 114.00 99.63 114.94 100.19 115.54 Z M 100.89 116.29 L 101.58 117.01 C 102.15 117.61 103.09 117.63 103.68 117.06 C 104.28 116.50 104.30 115.56 103.74 114.96 L 103.05 114.24 C 102.49 113.64 101.54 113.62 100.95 114.19 C 100.35 114.75 100.33 115.69 100.89 116.29 Z M 101.58 117.01 L 102.27 117.74 C 102.84 118.34 103.78 118.36 104.38 117.80 C 104.97 117.23 105.00 116.29 104.43 115.69 L 103.74 114.96 C 103.17 114.37 102.23 114.34 101.63 114.91 C 101.04 115.47 101.01 116.41 101.58 117.01 Z M 102.27 117.73 L 102.96 118.47 C 103.52 119.07 104.46 119.10 105.06 118.54 C 105.66 117.97 105.69 117.03 105.13 116.43 L 104.44 115.70 C 103.87 115.10 102.93 115.07 102.33 115.63 C 101.73 116.19 101.70 117.14 102.27 117.73 Z M 102.94 118.46 L 103.67 119.25 C 104.23 119.86 105.17 119.90 105.78 119.34 C 106.38 118.78 106.42 117.84 105.87 117.23 L 105.14 116.44 C 104.58 115.84 103.64 115.80 103.03 116.35 C 102.43 116.91 102.39 117.85 102.94 118.46 Z M 103.66 119.24 L 104.32 119.97 C 104.87 120.59 105.82 120.64 106.43 120.08 C 107.04 119.53 107.09 118.59 106.54 117.98 L 105.88 117.24 C 105.32 116.63 104.38 116.58 103.77 117.14 C 103.16 117.69 103.11 118.63 103.66 119.24 Z M 104.31 119.97 L 104.97 120.70 C 105.51 121.32 106.45 121.37 107.07 120.83 C 107.69 120.28 107.74 119.34 107.20 118.72 L 106.55 117.99 C 106.00 117.37 105.06 117.31 104.44 117.86 C 103.82 118.41 103.77 119.35 104.31 119.97 Z M 104.96 120.69 L 105.60 121.44 C 106.14 122.06 107.09 122.12 107.71 121.58 C 108.33 121.04 108.40 120.10 107.86 119.48 L 107.21 118.73 C 106.67 118.11 105.72 118.05 105.10 118.59 C 104.48 119.13 104.42 120.07 104.96 120.69 Z M 105.59 121.42 L 106.20 122.14 C 106.74 122.77 107.68 122.84 108.31 122.31 C 108.93 121.78 109.01 120.84 108.48 120.21 L 107.87 119.49 C 107.33 118.86 106.39 118.79 105.76 119.32 C 105.14 119.85 105.06 120.80 105.59 121.42 Z M 106.19 122.13 L 106.84 122.90 C 107.36 123.53 108.30 123.62 108.94 123.09 C 109.57 122.57 109.66 121.62 109.13 120.99 L 108.49 120.22 C 107.96 119.59 107.02 119.50 106.38 120.03 C 105.75 120.56 105.67 121.50 106.19 122.13 Z M 106.82 122.89 L 107.44 123.65 C 107.96 124.29 108.90 124.38 109.54 123.87 C 110.18 123.35 110.28 122.41 109.76 121.77 L 109.14 121.01 C 108.62 120.37 107.68 120.27 107.04 120.79 C 106.40 121.31 106.30 122.25 106.82 122.89 Z M 107.43 123.63 L 108.05 124.42 C 108.56 125.07 109.50 125.18 110.15 124.67 C 110.80 124.16 110.91 123.22 110.40 122.57 L 109.77 121.78 C 109.26 121.13 108.32 121.02 107.67 121.53 C 107.03 122.05 106.92 122.98 107.43 123.63 Z M 108.04 124.41 L 108.66 125.21 C 109.16 125.86 110.10 125.98 110.75 125.48 C 111.41 124.97 111.53 124.03 111.02 123.38 L 110.41 122.59 C 109.90 121.93 108.96 121.81 108.31 122.32 C 107.66 122.82 107.54 123.76 108.04 124.41 Z M 108.66 125.21 L 109.27 126.01 C 109.78 126.66 110.72 126.78 111.37 126.28 C 112.02 125.78 112.14 124.84 111.64 124.19 L 111.02 123.38 C 110.52 122.73 109.58 122.61 108.93 123.11 C 108.28 123.62 108.15 124.55 108.66 125.21 Z M 109.28 126.02 L 109.90 126.81 C 110.41 127.46 111.35 127.58 112.00 127.07 C 112.65 126.56 112.76 125.62 112.26 124.97 L 111.63 124.18 C 111.13 123.53 110.19 123.41 109.54 123.92 C 108.89 124.43 108.77 125.37 109.28 126.02 Z M 109.91 126.83 L 110.54 127.60 C 111.05 128.25 111.99 128.35 112.64 127.83 C 113.28 127.32 113.38 126.38 112.87 125.73 L 112.24 124.96 C 111.73 124.31 110.79 124.21 110.14 124.73 C 109.50 125.24 109.40 126.18 109.91 126.83 Z M 110.55 127.61 L 111.18 128.39 C 111.70 129.02 112.64 129.12 113.28 128.60 C 113.92 128.07 114.01 127.13 113.49 126.49 L 112.86 125.72 C 112.33 125.08 111.39 124.99 110.76 125.51 C 110.12 126.03 110.02 126.98 110.55 127.61 Z M 111.19 128.39 L 111.82 129.16 C 112.35 129.79 113.29 129.88 113.92 129.35 C 114.56 128.82 114.64 127.88 114.12 127.24 L 113.48 126.48 C 112.95 125.85 112.01 125.76 111.38 126.29 C 110.74 126.82 110.66 127.76 111.19 128.39 Z M 111.83 129.17 L 112.49 129.94 C 113.02 130.57 113.97 130.64 114.59 130.10 C 115.22 129.57 115.29 128.62 114.76 128.00 L 114.10 127.23 C 113.57 126.60 112.62 126.53 112.00 127.06 C 111.37 127.60 111.30 128.54 111.83 129.17 Z M 112.51 129.96 L 113.17 130.71 C 113.72 131.33 114.66 131.39 115.28 130.84 C 115.90 130.29 115.95 129.35 115.41 128.73 L 114.74 127.98 C 114.19 127.36 113.25 127.30 112.63 127.85 C 112.02 128.40 111.96 129.34 112.51 129.96 Z M 113.18 130.72 L 113.85 131.46 C 114.41 132.08 115.35 132.12 115.96 131.57 C 116.58 131.02 116.62 130.07 116.07 129.46 L 115.40 128.72 C 114.84 128.11 113.90 128.06 113.29 128.61 C 112.68 129.17 112.63 130.11 113.18 130.72 Z M 113.85 131.46 L 114.52 132.21 C 115.07 132.82 116.01 132.87 116.63 132.32 C 117.24 131.77 117.29 130.82 116.74 130.21 L 116.07 129.46 C 115.52 128.85 114.58 128.80 113.96 129.35 C 113.35 129.90 113.30 130.85 113.85 131.46 Z M 114.51 132.20 L 115.18 132.95 C 115.72 133.57 116.67 133.63 117.29 133.08 C 117.90 132.53 117.96 131.59 117.42 130.97 L 116.75 130.22 C 116.20 129.60 115.26 129.54 114.64 130.09 C 114.02 130.64 113.97 131.58 114.51 132.20 Z M 115.18 132.96 L 115.84 133.69 C 116.39 134.31 117.34 134.36 117.95 133.81 C 118.57 133.26 118.62 132.32 118.07 131.70 L 117.41 130.97 C 116.86 130.35 115.92 130.30 115.30 130.85 C 114.69 131.40 114.63 132.34 115.18 132.96 Z M 115.86 133.71 L 116.54 134.44 C 117.10 135.05 118.04 135.09 118.65 134.53 C 119.25 133.97 119.29 133.02 118.73 132.42 L 118.05 131.69 C 117.49 131.08 116.55 131.04 115.94 131.60 C 115.34 132.16 115.30 133.11 115.86 133.71 Z M 116.55 134.46 L 117.24 135.18 C 117.80 135.78 118.75 135.81 119.35 135.24 C 119.95 134.67 119.97 133.73 119.40 133.13 L 118.72 132.40 C 118.15 131.80 117.20 131.78 116.60 132.35 C 116.01 132.91 115.98 133.86 116.55 134.46 Z M 117.24 135.19 L 117.94 135.93 C 118.51 136.53 119.46 136.55 120.06 135.98 C 120.65 135.41 120.68 134.47 120.11 133.87 L 119.40 133.13 C 118.83 132.53 117.89 132.51 117.29 133.07 C 116.69 133.64 116.67 134.59 117.24 135.19 Z M 117.95 135.93 L 118.64 136.66 C 119.21 137.26 120.16 137.28 120.75 136.71 C 121.35 136.14 121.37 135.20 120.80 134.60 L 120.11 133.87 C 119.54 133.27 118.59 133.25 118.00 133.82 C 117.40 134.39 117.38 135.33 117.95 135.93 Z M 118.65 136.67 L 119.35 137.39 C 119.93 137.99 120.87 138.00 121.47 137.43 C 122.06 136.85 122.07 135.91 121.50 135.32 L 120.80 134.59 C 120.22 134.00 119.28 133.98 118.68 134.56 C 118.09 135.13 118.08 136.08 118.65 136.67 Z M 119.37 137.42 L 120.08 138.11 C 120.66 138.69 121.61 138.69 122.19 138.10 C 122.77 137.52 122.77 136.57 122.18 135.99 L 121.48 135.29 C 120.89 134.71 119.95 134.72 119.37 135.30 C 118.78 135.89 118.79 136.83 119.37 137.42 Z M 120.11 138.15 L 120.78 138.77 C 121.39 139.33 122.33 139.30 122.89 138.69 C 123.46 138.09 123.42 137.14 122.82 136.58 L 122.15 135.96 C 121.54 135.39 120.60 135.43 120.03 136.03 C 119.47 136.64 119.51 137.59 120.11 138.15 Z M 120.81 138.80 L 121.57 139.46 C 122.19 140.01 123.13 139.95 123.68 139.33 C 124.22 138.70 124.16 137.76 123.54 137.21 L 122.79 136.55 C 122.17 136.01 121.22 136.07 120.68 136.69 C 120.13 137.31 120.19 138.25 120.81 138.80 Z M 121.58 139.47 L 122.29 140.08 C 122.91 140.62 123.86 140.55 124.40 139.93 C 124.94 139.30 124.87 138.36 124.24 137.82 L 123.53 137.21 C 122.91 136.67 121.96 136.74 121.42 137.36 C 120.88 137.99 120.95 138.93 121.58 139.47 Z M 122.30 140.09 L 123.03 140.72 C 123.66 141.25 124.60 141.18 125.14 140.55 C 125.67 139.92 125.60 138.97 124.97 138.44 L 124.23 137.81 C 123.60 137.28 122.66 137.35 122.12 137.98 C 121.59 138.61 121.67 139.56 122.30 140.09 Z M 123.05 140.73 L 123.90 141.44 C 124.54 141.96 125.48 141.87 126.01 141.23 C 126.53 140.60 126.44 139.65 125.81 139.13 L 124.95 138.42 C 124.31 137.90 123.37 137.99 122.85 138.63 C 122.32 139.26 122.41 140.21 123.05 140.73 Z M 123.92 141.45 L 124.73 142.10 C 125.38 142.61 126.32 142.51 126.84 141.86 C 127.35 141.22 127.24 140.27 126.60 139.76 L 125.79 139.11 C 125.14 138.60 124.20 138.70 123.68 139.35 C 123.17 139.99 123.27 140.94 123.92 141.45 Z M 124.74 142.11 L 125.55 142.74 C 126.21 143.25 127.15 143.14 127.66 142.49 C 128.17 141.84 128.05 140.90 127.40 140.39 L 126.59 139.75 C 125.94 139.24 125.00 139.36 124.49 140.01 C 123.98 140.66 124.09 141.60 124.74 142.11 Z M 125.56 142.74 L 126.35 143.37 C 127.00 143.88 127.95 143.76 128.46 143.11 C 128.96 142.46 128.85 141.52 128.20 141.01 L 127.40 140.38 C 126.75 139.88 125.81 139.99 125.30 140.64 C 124.79 141.29 124.90 142.24 125.56 142.74 Z M 126.34 143.36 L 127.11 143.97 C 127.76 144.49 128.70 144.38 129.22 143.73 C 129.73 143.09 129.63 142.14 128.98 141.63 L 128.21 141.02 C 127.56 140.50 126.62 140.61 126.10 141.26 C 125.59 141.90 125.70 142.85 126.34 143.36 Z M 127.09 143.95 L 127.90 144.63 C 128.54 145.16 129.48 145.07 130.01 144.44 C 130.54 143.80 130.45 142.86 129.82 142.33 L 129.01 141.65 C 128.37 141.12 127.42 141.21 126.89 141.84 C 126.37 142.48 126.45 143.42 127.09 143.95 Z M 127.86 144.60 L 128.57 145.23 C 129.19 145.78 130.13 145.73 130.69 145.11 C 131.24 144.50 131.19 143.55 130.57 143.00 L 129.86 142.36 C 129.24 141.81 128.30 141.86 127.74 142.48 C 127.19 143.10 127.24 144.04 127.86 144.60 Z M 128.52 145.19 L 129.22 145.87 C 129.81 146.45 130.76 146.43 131.34 145.84 C 131.92 145.25 131.91 144.30 131.31 143.72 L 130.62 143.04 C 130.02 142.46 129.07 142.47 128.50 143.07 C 127.92 143.66 127.93 144.61 128.52 145.19 Z M 129.18 145.83 L 129.89 146.57 C 130.47 147.17 131.42 147.19 132.01 146.62 C 132.61 146.05 132.64 145.10 132.06 144.50 L 131.35 143.76 C 130.78 143.16 129.83 143.14 129.23 143.71 C 128.63 144.28 128.61 145.23 129.18 145.83 Z M 129.87 146.55 L 130.52 147.26 C 131.07 147.88 132.02 147.92 132.64 147.36 C 133.25 146.81 133.30 145.86 132.74 145.25 L 132.09 144.53 C 131.53 143.92 130.58 143.87 129.97 144.43 C 129.36 144.98 129.31 145.93 129.87 146.55 Z M 130.50 147.24 L 131.20 148.04 C 131.74 148.67 132.69 148.73 133.31 148.19 C 133.94 147.64 134.00 146.70 133.46 146.07 L 132.76 145.27 C 132.22 144.64 131.27 144.58 130.64 145.12 C 130.02 145.67 129.95 146.62 130.50 147.24 Z M 131.18 148.03 L 131.78 148.73 C 132.32 149.37 133.26 149.45 133.90 148.91 C 134.53 148.37 134.61 147.43 134.07 146.79 L 133.47 146.09 C 132.94 145.45 131.99 145.38 131.36 145.91 C 130.73 146.45 130.65 147.39 131.18 148.03 Z M 131.78 148.73 L 132.43 149.50 C 132.96 150.13 133.91 150.21 134.54 149.68 C 135.18 149.14 135.26 148.19 134.72 147.56 L 134.07 146.79 C 133.54 146.16 132.59 146.08 131.96 146.62 C 131.32 147.15 131.25 148.10 131.78 148.73 Z M 132.42 149.49 L 133.05 150.25 C 133.59 150.88 134.53 150.97 135.17 150.43 C 135.81 149.90 135.89 148.95 135.36 148.32 L 134.73 147.56 C 134.19 146.93 133.25 146.84 132.61 147.38 C 131.97 147.91 131.89 148.86 132.42 149.49 Z M 133.05 150.24 L 133.69 151.01 C 134.22 151.65 135.16 151.74 135.80 151.21 C 136.44 150.68 136.53 149.74 136.00 149.10 L 135.36 148.33 C 134.83 147.69 133.89 147.60 133.25 148.13 C 132.61 148.66 132.52 149.60 133.05 150.24 Z M 133.69 151.02 L 134.33 151.78 C 134.86 152.42 135.81 152.51 136.44 151.98 C 137.08 151.45 137.17 150.50 136.64 149.86 L 136.00 149.09 C 135.47 148.46 134.52 148.37 133.88 148.90 C 133.25 149.43 133.16 150.38 133.69 151.02 Z M 134.33 151.79 L 134.98 152.56 C 135.51 153.20 136.46 153.28 137.10 152.75 C 137.73 152.22 137.82 151.27 137.28 150.63 L 136.64 149.86 C 136.10 149.22 135.15 149.14 134.52 149.67 C 133.88 150.20 133.80 151.15 134.33 151.79 Z M 134.98 152.56 L 135.62 153.33 C 136.15 153.96 137.10 154.04 137.74 153.51 C 138.37 152.98 138.46 152.03 137.92 151.39 L 137.28 150.63 C 136.75 149.99 135.80 149.91 135.16 150.44 C 134.53 150.98 134.45 151.93 134.98 152.56 Z M 135.62 153.33 L 136.27 154.10 C 136.81 154.73 137.75 154.81 138.39 154.28 C 139.02 153.74 139.11 152.79 138.57 152.16 L 137.92 151.39 C 137.39 150.75 136.44 150.67 135.80 151.21 C 135.17 151.74 135.09 152.69 135.62 153.33 Z M 136.27 154.10 L 136.91 154.85 C 137.44 155.48 138.39 155.56 139.03 155.02 C 139.66 154.48 139.74 153.53 139.20 152.90 L 138.57 152.15 C 138.03 151.52 137.08 151.44 136.45 151.98 C 135.81 152.52 135.74 153.47 136.27 154.10 Z M 136.92 154.86 L 137.59 155.63 C 138.13 156.26 139.08 156.33 139.71 155.78 C 140.34 155.24 140.40 154.29 139.86 153.66 L 139.19 152.89 C 138.64 152.26 137.69 152.19 137.07 152.74 C 136.44 153.28 136.37 154.23 136.92 154.86 Z M 137.60 155.65 L 138.27 156.40 C 138.82 157.02 139.77 157.07 140.39 156.52 C 141.01 155.96 141.07 155.01 140.51 154.39 L 139.85 153.64 C 139.29 153.02 138.34 152.97 137.72 153.52 C 137.10 154.07 137.05 155.03 137.60 155.65 Z M 138.27 156.40 L 138.94 157.15 C 139.50 157.76 140.45 157.81 141.07 157.26 C 141.69 156.70 141.74 155.75 141.18 155.13 L 140.51 154.39 C 139.96 153.77 139.00 153.72 138.38 154.27 C 137.77 154.83 137.72 155.78 138.27 156.40 Z M 138.94 157.14 L 139.61 157.90 C 140.16 158.52 141.12 158.57 141.74 158.02 C 142.36 157.47 142.41 156.51 141.86 155.89 L 141.18 155.14 C 140.63 154.52 139.68 154.46 139.06 155.01 C 138.44 155.57 138.38 156.52 138.94 157.14 Z M 139.61 157.90 L 140.27 158.63 C 140.83 159.25 141.78 159.30 142.40 158.75 C 143.02 158.19 143.07 157.24 142.51 156.62 L 141.86 155.89 C 141.30 155.27 140.35 155.22 139.73 155.78 C 139.11 156.33 139.06 157.28 139.61 157.90 Z M 140.29 158.65 L 140.97 159.39 C 141.54 159.99 142.49 160.03 143.10 159.46 C 143.71 158.90 143.74 157.94 143.18 157.33 L 142.50 156.60 C 141.93 155.99 140.98 155.96 140.37 156.52 C 139.76 157.09 139.72 158.04 140.29 158.65 Z M 140.99 159.40 L 141.68 160.12 C 142.26 160.72 143.21 160.74 143.81 160.17 C 144.41 159.59 144.43 158.64 143.85 158.04 L 143.16 157.31 C 142.58 156.71 141.63 156.70 141.03 157.27 C 140.43 157.85 140.41 158.80 140.99 159.40 Z M 141.69 160.14 L 142.40 160.86 C 142.99 161.46 143.94 161.46 144.54 160.88 C 145.13 160.29 145.14 159.34 144.55 158.75 L 143.84 158.02 C 143.26 157.43 142.30 157.42 141.71 158.01 C 141.12 158.59 141.11 159.54 141.69 160.14 Z M 142.39 160.85 L 143.08 161.56 C 143.66 162.16 144.61 162.18 145.21 161.60 C 145.81 161.02 145.83 160.07 145.25 159.47 L 144.56 158.76 C 143.99 158.16 143.03 158.14 142.43 158.72 C 141.83 159.30 141.81 160.25 142.39 160.85 Z M 143.05 161.54 L 143.74 162.28 C 144.30 162.89 145.26 162.93 145.87 162.37 C 146.48 161.81 146.52 160.85 145.96 160.24 L 145.27 159.49 C 144.71 158.88 143.75 158.84 143.14 159.40 C 142.53 159.97 142.49 160.92 143.05 161.54 Z M 143.76 162.30 L 144.42 162.99 C 144.99 163.60 145.94 163.62 146.55 163.04 C 147.15 162.47 147.18 161.51 146.60 160.91 L 145.94 160.22 C 145.37 159.61 144.41 159.59 143.81 160.17 C 143.20 160.74 143.18 161.70 143.76 162.30 Z M 144.45 163.03 L 145.15 163.71 C 145.74 164.29 146.70 164.28 147.28 163.69 C 147.87 163.09 147.85 162.13 147.26 161.55 L 146.56 160.87 C 145.97 160.29 145.01 160.30 144.43 160.90 C 143.85 161.49 143.86 162.45 144.45 163.03 Z M 145.15 163.71 L 145.86 164.40 C 146.45 164.99 147.41 164.97 147.99 164.38 C 148.57 163.78 148.56 162.83 147.97 162.24 L 147.26 161.55 C 146.66 160.97 145.71 160.98 145.12 161.58 C 144.54 162.17 144.55 163.13 145.15 163.71 Z M 145.86 164.40 L 146.56 165.09 C 147.16 165.68 148.11 165.67 148.70 165.07 C 149.28 164.47 149.27 163.52 148.67 162.94 L 147.97 162.24 C 147.37 161.66 146.42 161.67 145.83 162.27 C 145.25 162.86 145.26 163.82 145.86 164.40 Z M 146.58 165.11 L 147.36 165.85 C 147.96 166.42 148.92 166.40 149.49 165.80 C 150.07 165.19 150.04 164.24 149.44 163.66 L 148.66 162.92 C 148.05 162.34 147.10 162.37 146.52 162.97 C 145.95 163.58 145.97 164.53 146.58 165.11 Z M 147.38 165.87 L 148.15 166.57 C 148.77 167.13 149.72 167.09 150.28 166.47 C 150.85 165.85 150.80 164.90 150.18 164.34 L 149.41 163.64 C 148.80 163.08 147.84 163.12 147.28 163.74 C 146.72 164.36 146.76 165.31 147.38 165.87 Z M 148.16 166.58 L 148.92 167.25 C 149.54 167.81 150.49 167.75 151.05 167.13 C 151.60 166.51 151.55 165.55 150.93 165.00 L 150.17 164.33 C 149.55 163.77 148.59 163.83 148.04 164.45 C 147.48 165.07 147.54 166.03 148.16 166.58 Z M 148.91 167.25 L 149.64 167.91 C 150.26 168.47 151.21 168.42 151.77 167.80 C 152.33 167.18 152.29 166.23 151.67 165.67 L 150.93 165.01 C 150.32 164.45 149.36 164.49 148.80 165.11 C 148.24 165.73 148.29 166.69 148.91 167.25 Z M 149.61 167.88 L 150.36 168.60 C 150.97 169.17 151.92 169.15 152.50 168.54 C 153.07 167.94 153.05 166.98 152.44 166.41 L 151.69 165.69 C 151.09 165.12 150.13 165.14 149.56 165.75 C 148.98 166.35 149.01 167.31 149.61 167.88 Z M 150.34 168.58 L 150.99 169.21 C 151.58 169.80 152.54 169.80 153.12 169.20 C 153.71 168.61 153.70 167.65 153.11 167.07 L 152.47 166.43 C 151.87 165.84 150.92 165.85 150.33 166.44 C 149.74 167.03 149.75 167.99 150.34 168.58 Z M 150.97 169.20 L 151.60 169.83 C 152.19 170.43 153.14 170.43 153.74 169.85 C 154.33 169.26 154.33 168.30 153.75 167.71 L 153.12 167.08 C 152.54 166.48 151.58 166.48 150.99 167.07 C 150.39 167.65 150.39 168.61 150.97 169.20 Z M 151.58 169.81 L 152.35 170.63 C 152.93 171.24 153.88 171.26 154.49 170.69 C 155.10 170.12 155.12 169.16 154.55 168.55 L 153.77 167.73 C 153.20 167.13 152.24 167.10 151.64 167.67 C 151.03 168.25 151.00 169.20 151.58 169.81 Z M 152.34 170.61 L 152.93 171.27 C 153.50 171.88 154.45 171.92 155.07 171.36 C 155.68 170.80 155.73 169.84 155.16 169.23 L 154.57 168.57 C 154.00 167.96 153.05 167.92 152.43 168.48 C 151.82 169.04 151.77 170.00 152.34 170.61 Z M 152.92 171.25 L 153.59 172.00 C 154.15 172.62 155.10 172.68 155.73 172.12 C 156.35 171.56 156.40 170.61 155.84 169.99 L 155.17 169.24 C 154.62 168.62 153.66 168.56 153.04 169.12 C 152.42 169.68 152.37 170.63 152.92 171.25 Z M 153.58 171.99 L 154.28 172.79 C 154.83 173.42 155.79 173.48 156.42 172.93 C 157.04 172.38 157.11 171.43 156.56 170.80 L 155.85 170.00 C 155.30 169.37 154.35 169.31 153.72 169.86 C 153.09 170.41 153.03 171.36 153.58 171.99 Z M 154.27 172.78 L 154.97 173.59 C 155.51 174.23 156.46 174.30 157.10 173.76 C 157.73 173.22 157.81 172.26 157.27 171.63 L 156.57 170.81 C 156.03 170.18 155.07 170.11 154.44 170.65 C 153.80 171.19 153.73 172.14 154.27 172.78 Z M 154.96 173.58 L 155.62 174.38 C 156.16 175.02 157.11 175.10 157.75 174.57 C 158.39 174.03 158.48 173.08 157.94 172.44 L 157.28 171.64 C 156.74 171.00 155.79 170.92 155.15 171.45 C 154.51 171.99 154.42 172.94 154.96 173.58 Z M 155.62 174.37 L 156.26 175.14 C 156.79 175.79 157.75 175.87 158.39 175.34 C 159.03 174.81 159.12 173.85 158.58 173.21 L 157.95 172.44 C 157.41 171.80 156.46 171.71 155.82 172.25 C 155.18 172.78 155.09 173.73 155.62 174.37 Z M 156.27 175.15 L 156.88 175.88 C 157.42 176.52 158.37 176.60 159.01 176.06 C 159.65 175.52 159.73 174.57 159.19 173.93 L 158.58 173.20 C 158.04 172.57 157.09 172.48 156.45 173.02 C 155.81 173.56 155.73 174.51 156.27 175.15 Z M 156.90 175.90 L 157.60 176.70 C 158.15 177.33 159.10 177.40 159.73 176.85 C 160.36 176.30 160.43 175.34 159.88 174.71 L 159.17 173.91 C 158.63 173.28 157.67 173.22 157.04 173.77 C 156.41 174.32 156.35 175.27 156.90 175.90 Z M 157.63 176.73 L 158.31 177.48 C 158.88 178.10 159.84 178.14 160.45 177.57 C 161.06 177.01 161.10 176.05 160.54 175.44 L 159.85 174.69 C 159.29 174.07 158.33 174.03 157.72 174.60 C 157.10 175.16 157.06 176.12 157.63 176.73 Z M 158.34 177.51 L 158.98 178.17 C 159.56 178.77 160.51 178.78 161.11 178.20 C 161.71 177.62 161.73 176.66 161.15 176.06 L 160.51 175.41 C 159.93 174.81 158.98 174.79 158.38 175.37 C 157.78 175.95 157.76 176.91 158.34 177.51 Z M 159.01 178.20 L 159.76 178.92 C 160.36 179.50 161.32 179.49 161.90 178.89 C 162.48 178.29 162.46 177.33 161.86 176.75 L 161.11 176.03 C 160.51 175.45 159.56 175.46 158.98 176.06 C 158.40 176.67 158.41 177.62 159.01 178.20 Z M 159.80 178.96 L 160.52 179.60 C 161.14 180.16 162.10 180.11 162.65 179.48 C 163.21 178.86 163.16 177.91 162.53 177.35 L 161.82 176.71 C 161.20 176.15 160.24 176.21 159.68 176.83 C 159.13 177.45 159.18 178.41 159.80 178.96 Z M 160.55 179.63 L 161.29 180.25 C 161.93 180.79 162.88 180.71 163.42 180.07 C 163.96 179.44 163.88 178.48 163.24 177.94 L 162.50 177.32 C 161.86 176.78 160.91 176.86 160.37 177.50 C 159.83 178.14 159.91 179.09 160.55 179.63 Z M 161.32 180.28 L 162.10 180.91 C 162.75 181.43 163.70 181.33 164.22 180.68 C 164.75 180.03 164.65 179.08 164.00 178.55 L 163.21 177.92 C 162.56 177.40 161.61 177.50 161.09 178.15 C 160.57 178.80 160.67 179.75 161.32 180.28 Z M 162.12 180.93 L 162.88 181.51 C 163.54 182.02 164.49 181.90 165.00 181.24 C 165.51 180.58 165.39 179.64 164.73 179.12 L 163.97 178.54 C 163.31 178.03 162.37 178.15 161.85 178.81 C 161.34 179.47 161.46 180.41 162.12 180.93 Z M 162.89 181.52 L 163.67 182.12 C 164.33 182.62 165.28 182.50 165.79 181.83 C 166.29 181.17 166.17 180.22 165.51 179.72 L 164.72 179.12 C 164.06 178.61 163.11 178.74 162.61 179.40 C 162.10 180.06 162.23 181.01 162.89 181.52 Z M 163.66 182.11 L 164.50 182.76 C 165.15 183.27 166.10 183.15 166.62 182.49 C 167.13 181.84 167.01 180.89 166.35 180.37 L 165.52 179.72 C 164.86 179.21 163.91 179.33 163.40 179.99 C 162.88 180.65 163.00 181.59 163.66 182.11 Z M 164.48 182.74 L 165.26 183.37 C 165.91 183.89 166.86 183.79 167.38 183.14 C 167.90 182.49 167.80 181.54 167.15 181.01 L 166.37 180.39 C 165.72 179.87 164.77 179.97 164.25 180.62 C 163.72 181.27 163.83 182.22 164.48 182.74 Z M 165.24 183.36 L 166.03 184.01 C 166.67 184.54 167.63 184.45 168.16 183.80 C 168.69 183.16 168.60 182.21 167.95 181.68 L 167.16 181.03 C 166.52 180.50 165.57 180.59 165.04 181.23 C 164.51 181.87 164.60 182.83 165.24 183.36 Z M 166.01 183.99 L 166.79 184.65 C 167.42 185.20 168.37 185.12 168.92 184.49 C 169.46 183.85 169.38 182.90 168.75 182.36 L 167.97 181.69 C 167.34 181.15 166.38 181.23 165.84 181.86 C 165.30 182.50 165.38 183.45 166.01 183.99 Z M 166.76 184.63 L 167.54 185.33 C 168.16 185.88 169.12 185.83 169.67 185.21 C 170.23 184.58 170.18 183.63 169.55 183.07 L 168.77 182.38 C 168.15 181.82 167.20 181.88 166.64 182.50 C 166.08 183.12 166.14 184.08 166.76 184.63 Z M 167.52 185.30 L 168.21 185.95 C 168.82 186.52 169.77 186.49 170.34 185.88 C 170.91 185.27 170.88 184.31 170.27 183.74 L 169.58 183.10 C 168.97 182.53 168.01 182.56 167.44 183.17 C 166.87 183.78 166.91 184.74 167.52 185.30 Z M 168.19 185.93 L 168.87 186.59 C 169.47 187.17 170.43 187.16 171.01 186.56 C 171.59 185.96 171.57 185.00 170.97 184.42 L 170.29 183.76 C 169.69 183.18 168.73 183.20 168.15 183.80 C 167.57 184.40 167.59 185.35 168.19 185.93 Z M 168.87 186.59 L 169.57 187.28 C 170.17 187.86 171.12 187.85 171.71 187.26 C 172.29 186.66 172.28 185.71 171.69 185.12 L 170.98 184.43 C 170.39 183.85 169.43 183.85 168.85 184.45 C 168.26 185.05 168.27 186.00 168.87 186.59 Z M 169.57 187.28 L 170.26 187.95 C 170.86 188.54 171.82 188.53 172.40 187.93 C 172.98 187.33 172.97 186.38 172.37 185.79 L 171.68 185.12 C 171.09 184.54 170.13 184.55 169.55 185.15 C 168.97 185.74 168.98 186.70 169.57 187.28 Z M 170.27 187.97 L 170.94 188.61 C 171.55 189.18 172.50 189.16 173.08 188.56 C 173.66 187.96 173.64 187.00 173.03 186.42 L 172.36 185.78 C 171.76 185.21 170.80 185.23 170.23 185.83 C 169.65 186.43 169.67 187.39 170.27 187.97 Z M 170.96 188.62 L 171.73 189.34 C 172.34 189.90 173.30 189.87 173.87 189.25 C 174.43 188.64 174.40 187.69 173.79 187.12 L 173.01 186.41 C 172.40 185.84 171.45 185.88 170.88 186.49 C 170.31 187.10 170.35 188.06 170.96 188.62 Z M 171.75 189.36 L 172.55 190.07 C 173.18 190.62 174.13 190.57 174.69 189.95 C 175.24 189.32 175.19 188.37 174.56 187.81 L 173.76 187.10 C 173.14 186.54 172.19 186.60 171.63 187.22 C 171.08 187.85 171.13 188.80 171.75 189.36 Z M 172.57 190.08 L 173.31 190.72 C 173.94 191.27 174.90 191.20 175.44 190.57 C 175.99 189.94 175.92 188.99 175.29 188.44 L 174.55 187.80 C 173.92 187.25 172.96 187.32 172.42 187.95 C 171.87 188.58 171.94 189.54 172.57 190.08 Z M 173.32 190.73 L 174.10 191.39 C 174.73 191.93 175.69 191.86 176.23 191.22 C 176.77 190.59 176.69 189.63 176.06 189.09 L 175.28 188.43 C 174.64 187.89 173.69 187.97 173.15 188.60 C 172.61 189.24 172.68 190.19 173.32 190.73 Z M 174.10 191.40 L 174.88 192.06 C 175.52 192.60 176.47 192.52 177.01 191.88 C 177.55 191.24 177.47 190.29 176.83 189.75 L 176.05 189.09 C 175.41 188.55 174.46 188.63 173.92 189.27 C 173.38 189.90 173.46 190.86 174.10 191.40 Z M 174.88 192.06 L 175.68 192.73 C 176.31 193.27 177.27 193.19 177.81 192.55 C 178.34 191.92 178.27 190.96 177.63 190.42 L 176.83 189.75 C 176.20 189.21 175.24 189.29 174.70 189.93 C 174.17 190.57 174.24 191.52 174.88 192.06 Z M 175.67 192.73 L 176.48 193.42 C 177.12 193.96 178.07 193.88 178.61 193.25 C 179.15 192.61 179.08 191.66 178.44 191.12 L 177.63 190.43 C 177.00 189.89 176.04 189.96 175.50 190.60 C 174.96 191.23 175.04 192.19 175.67 192.73 Z M 176.48 193.41 L 177.23 194.06 C 177.87 194.60 178.82 194.53 179.36 193.90 C 179.91 193.26 179.83 192.31 179.20 191.77 L 178.45 191.12 C 177.81 190.58 176.86 190.65 176.32 191.28 C 175.77 191.92 175.84 192.87 176.48 193.41 Z M 177.23 194.06 L 177.93 194.66 C 178.56 195.21 179.51 195.14 180.06 194.51 C 180.60 193.88 180.54 192.92 179.90 192.38 L 179.21 191.77 C 178.57 191.23 177.62 191.29 177.07 191.92 C 176.53 192.56 176.60 193.51 177.23 194.06 Z M 177.92 194.66 L 178.71 195.35 C 179.34 195.89 180.29 195.83 180.84 195.20 C 181.39 194.58 181.33 193.62 180.70 193.07 L 179.91 192.38 C 179.28 191.83 178.33 191.90 177.78 192.52 C 177.23 193.15 177.29 194.11 177.92 194.66 Z M 178.70 195.34 L 179.45 196.00 C 180.07 196.56 181.03 196.50 181.58 195.87 C 182.13 195.25 182.08 194.29 181.45 193.74 L 180.70 193.08 C 180.08 192.52 179.13 192.58 178.57 193.21 C 178.02 193.83 178.08 194.79 178.70 195.34 Z M 179.44 196.00 L 180.14 196.62 C 180.76 197.18 181.71 197.12 182.27 196.50 C 182.83 195.88 182.78 194.93 182.15 194.37 L 181.46 193.75 C 180.84 193.19 179.88 193.24 179.32 193.86 C 178.77 194.48 178.82 195.44 179.44 196.00 Z M 180.13 196.62 L 180.88 197.29 C 181.50 197.85 182.46 197.80 183.02 197.18 C 183.57 196.56 183.53 195.61 182.91 195.05 L 182.16 194.37 C 181.54 193.81 180.58 193.86 180.02 194.48 C 179.47 195.10 179.51 196.06 180.13 196.62 Z M 180.88 197.29 L 181.62 197.95 C 182.24 198.51 183.19 198.46 183.75 197.84 C 184.31 197.22 184.26 196.27 183.64 195.71 L 182.91 195.05 C 182.29 194.49 181.33 194.54 180.77 195.16 C 180.21 195.78 180.26 196.73 180.88 197.29 Z M 181.62 197.96 L 182.39 198.64 C 183.01 199.20 183.97 199.14 184.52 198.52 C 185.08 197.90 185.02 196.94 184.40 196.39 L 183.64 195.70 C 183.01 195.15 182.06 195.20 181.50 195.83 C 180.95 196.45 181.00 197.40 181.62 197.96 Z M 182.40 198.65 L 183.17 199.32 C 183.79 199.88 184.75 199.81 185.30 199.19 C 185.85 198.56 185.79 197.61 185.16 197.05 L 184.39 196.38 C 183.77 195.83 182.81 195.89 182.26 196.52 C 181.71 197.15 181.77 198.10 182.40 198.65 Z M 183.18 199.34 L 183.93 199.98 C 184.56 200.53 185.52 200.45 186.06 199.82 C 186.60 199.19 186.53 198.23 185.90 197.69 L 185.15 197.04 C 184.51 196.50 183.56 196.57 183.02 197.21 C 182.47 197.84 182.55 198.79 183.18 199.34 Z M 183.95 200.00 L 184.72 200.63 C 185.36 201.17 186.31 201.08 186.84 200.44 C 187.38 199.79 187.29 198.84 186.65 198.31 L 185.88 197.67 C 185.24 197.14 184.28 197.23 183.75 197.87 C 183.22 198.51 183.31 199.47 183.95 200.00 Z M 184.72 200.64 L 185.45 201.24 C 186.10 201.77 187.05 201.67 187.58 201.03 C 188.11 200.38 188.01 199.43 187.37 198.90 L 186.64 198.30 C 186.00 197.77 185.04 197.87 184.51 198.51 C 183.98 199.16 184.08 200.11 184.72 200.64 Z M 185.46 201.24 L 186.24 201.88 C 186.89 202.40 187.84 202.31 188.37 201.66 C 188.89 201.01 188.79 200.06 188.15 199.53 L 187.36 198.90 C 186.71 198.37 185.76 198.47 185.24 199.12 C 184.71 199.77 184.81 200.72 185.46 201.24 Z M 186.26 201.90 L 187.06 202.52 C 187.71 203.03 188.66 202.91 189.18 202.26 C 189.69 201.60 189.58 200.65 188.92 200.14 L 188.12 199.52 C 187.47 199.00 186.52 199.12 186.00 199.77 C 185.49 200.43 185.61 201.38 186.26 201.90 Z M 187.05 202.51 L 187.85 203.14 C 188.50 203.65 189.45 203.54 189.97 202.88 C 190.48 202.23 190.37 201.28 189.71 200.76 L 188.92 200.14 C 188.27 199.62 187.32 199.74 186.80 200.39 C 186.28 201.05 186.40 202.00 187.05 202.51 Z M 187.81 203.11 L 188.59 203.76 C 189.23 204.30 190.18 204.22 190.72 203.58 C 191.26 202.94 191.17 201.98 190.53 201.45 L 189.75 200.79 C 189.11 200.26 188.16 200.34 187.62 200.98 C 187.09 201.62 187.17 202.57 187.81 203.11 Z M 188.57 203.75 L 189.31 204.39 C 189.95 204.93 190.90 204.86 191.45 204.23 C 191.99 203.60 191.92 202.65 191.29 202.10 L 190.55 201.46 C 189.92 200.92 188.96 200.99 188.42 201.62 C 187.87 202.25 187.94 203.20 188.57 203.75 Z M 189.33 204.40 L 190.10 205.05 C 190.74 205.58 191.70 205.50 192.23 204.86 C 192.77 204.22 192.68 203.27 192.04 202.73 L 191.27 202.09 C 190.63 201.55 189.68 201.64 189.14 202.28 C 188.61 202.92 188.69 203.87 189.33 204.40 Z M 190.10 205.05 L 190.87 205.69 C 191.51 206.22 192.46 206.14 192.99 205.50 C 193.53 204.86 193.45 203.91 192.81 203.37 L 192.04 202.73 C 191.40 202.20 190.45 202.28 189.92 202.92 C 189.38 203.56 189.46 204.51 190.10 205.05 Z M 190.84 205.67 L 191.60 206.33 C 192.23 206.87 193.18 206.81 193.73 206.18 C 194.28 205.55 194.21 204.60 193.58 204.05 L 192.83 203.39 C 192.20 202.84 191.25 202.91 190.70 203.54 C 190.15 204.17 190.22 205.12 190.84 205.67 Z M 191.57 206.31 L 192.31 206.98 C 192.93 207.54 193.89 207.50 194.45 206.88 C 195.01 206.26 194.96 205.31 194.35 204.74 L 193.61 204.07 C 192.99 203.51 192.04 203.55 191.47 204.17 C 190.91 204.79 190.96 205.74 191.57 206.31 Z M 192.30 206.97 L 193.00 207.62 C 193.60 208.18 194.56 208.15 195.13 207.54 C 195.70 206.93 195.67 205.98 195.06 205.41 L 194.36 204.76 C 193.75 204.19 192.80 204.22 192.23 204.83 C 191.66 205.44 191.69 206.40 192.30 206.97 Z M 192.99 207.61 L 193.58 208.16 C 194.19 208.73 195.14 208.70 195.71 208.09 C 196.28 207.48 196.25 206.53 195.64 205.96 L 195.06 205.41 C 194.45 204.84 193.49 204.87 192.92 205.48 C 192.35 206.09 192.38 207.04 192.99 207.61 Z M 193.58 208.16 L 194.46 208.99 C 195.06 209.56 196.02 209.53 196.59 208.92 C 197.16 208.32 197.13 207.36 196.53 206.79 L 195.65 205.96 C 195.04 205.39 194.08 205.42 193.51 206.02 C 192.94 206.63 192.97 207.59 193.58 208.16 Z M 194.45 208.99 L 195.10 209.60 C 195.71 210.17 196.66 210.14 197.24 209.53 C 197.81 208.93 197.78 207.97 197.17 207.40 L 196.53 206.79 C 195.92 206.22 194.96 206.24 194.39 206.85 C 193.82 207.46 193.85 208.41 194.45 208.99 Z M 195.10 209.60 L 195.81 210.27 C 196.42 210.84 197.38 210.81 197.95 210.20 C 198.52 209.59 198.49 208.64 197.88 208.06 L 197.17 207.40 C 196.56 206.83 195.61 206.86 195.04 207.46 C 194.46 208.07 194.49 209.03 195.10 209.60 Z M 195.82 210.27 L 196.59 210.99 C 197.20 211.56 198.15 211.52 198.72 210.91 C 199.29 210.30 199.26 209.35 198.65 208.78 L 197.88 208.06 C 197.27 207.49 196.31 207.52 195.74 208.13 C 195.17 208.74 195.21 209.70 195.82 210.27 Z M 196.59 210.99 L 197.39 211.73 C 198.00 212.29 198.95 212.25 199.52 211.64 C 200.09 211.03 200.05 210.07 199.43 209.51 L 198.64 208.77 C 198.03 208.21 197.07 208.25 196.51 208.86 C 195.94 209.47 195.98 210.43 196.59 210.99 Z M 197.40 211.73 L 198.19 212.45 C 198.81 213.01 199.76 212.97 200.32 212.35 C 200.88 211.73 200.83 210.77 200.22 210.21 L 199.42 209.50 C 198.81 208.94 197.85 208.98 197.29 209.60 C 196.73 210.22 196.78 211.17 197.40 211.73 Z M 198.20 212.46 L 198.98 213.15 C 199.60 213.71 200.56 213.65 201.11 213.02 C 201.66 212.40 201.61 211.45 200.98 210.89 L 200.20 210.20 C 199.58 209.65 198.62 209.71 198.07 210.33 C 197.52 210.96 197.58 211.91 198.20 212.46 Z M 198.99 213.17 L 199.75 213.82 C 200.38 214.36 201.33 214.29 201.88 213.66 C 202.42 213.03 202.35 212.08 201.72 211.53 L 200.97 210.88 C 200.34 210.33 199.38 210.40 198.84 211.04 C 198.29 211.67 198.36 212.62 198.99 213.17 Z M 199.76 213.83 L 200.51 214.46 C 201.14 214.99 202.10 214.91 202.63 214.27 C 203.17 213.63 203.09 212.68 202.45 212.14 L 201.71 211.52 C 201.07 210.98 200.12 211.06 199.58 211.70 C 199.04 212.34 199.12 213.29 199.76 213.83 Z M 200.52 214.47 L 201.26 215.08 C 201.91 215.61 202.86 215.51 203.39 214.87 C 203.92 214.22 203.83 213.27 203.18 212.74 L 202.44 212.13 C 201.79 211.60 200.84 211.70 200.31 212.34 C 199.78 212.99 199.88 213.94 200.52 214.47 Z M 201.28 215.09 L 202.08 215.73 C 202.73 216.25 203.68 216.15 204.20 215.49 C 204.72 214.84 204.62 213.89 203.97 213.37 L 203.17 212.73 C 202.52 212.21 201.56 212.31 201.04 212.96 C 200.52 213.62 200.63 214.57 201.28 215.09 Z M 202.08 215.73 L 202.88 216.37 C 203.54 216.88 204.49 216.77 205.01 216.12 C 205.52 215.46 205.41 214.51 204.76 214.00 L 203.96 213.36 C 203.30 212.85 202.35 212.96 201.84 213.61 C 201.32 214.27 201.43 215.22 202.08 215.73 Z M 202.88 216.37 L 203.67 216.99 C 204.32 217.50 205.27 217.39 205.79 216.74 C 206.31 216.08 206.20 215.13 205.54 214.61 L 204.76 214.00 C 204.10 213.48 203.15 213.59 202.63 214.25 C 202.12 214.90 202.23 215.85 202.88 216.37 Z M 203.66 216.98 L 204.42 217.58 C 205.07 218.10 206.02 218.00 206.54 217.34 C 207.06 216.69 206.95 215.74 206.30 215.22 L 205.55 214.62 C 204.89 214.10 203.94 214.21 203.42 214.86 C 202.90 215.51 203.01 216.46 203.66 216.98 Z M 204.40 217.57 L 205.24 218.26 C 205.89 218.78 206.84 218.69 207.37 218.04 C 207.89 217.40 207.80 216.45 207.15 215.92 L 206.32 215.23 C 205.67 214.70 204.72 214.80 204.19 215.44 C 203.66 216.09 203.76 217.04 204.40 217.57 Z M 205.22 218.24 L 206.01 218.90 C 206.64 219.44 207.60 219.36 208.13 218.73 C 208.67 218.09 208.59 217.14 207.96 216.60 L 207.17 215.93 C 206.54 215.40 205.58 215.47 205.04 216.11 C 204.50 216.75 204.58 217.70 205.22 218.24 Z M 205.99 218.89 L 206.70 219.51 C 207.32 220.06 208.28 220.00 208.83 219.37 C 209.38 218.74 209.32 217.79 208.69 217.24 L 207.98 216.62 C 207.35 216.07 206.40 216.13 205.85 216.75 C 205.30 217.38 205.36 218.34 205.99 218.89 Z M 206.67 219.49 L 207.39 220.15 C 208.00 220.71 208.96 220.67 209.52 220.06 C 210.09 219.44 210.05 218.49 209.43 217.92 L 208.71 217.26 C 208.10 216.70 207.14 216.74 206.58 217.35 C 206.01 217.97 206.06 218.92 206.67 219.49 Z M 207.36 220.12 L 208.07 220.82 C 208.67 221.40 209.63 221.39 210.21 220.79 C 210.79 220.19 210.78 219.24 210.18 218.65 L 209.47 217.95 C 208.87 217.37 207.91 217.38 207.33 217.98 C 206.75 218.58 206.76 219.53 207.36 220.12 Z M 208.04 220.78 L 208.70 221.47 C 209.28 222.08 210.23 222.10 210.84 221.52 C 211.44 220.95 211.46 219.99 210.89 219.39 L 210.22 218.69 C 209.64 218.09 208.69 218.07 208.08 218.64 C 207.48 219.22 207.46 220.17 208.04 220.78 Z M 208.67 221.44 L 209.36 222.20 C 209.92 222.82 210.87 222.87 211.49 222.32 C 212.11 221.76 212.16 220.80 211.60 220.18 L 210.92 219.42 C 210.36 218.80 209.40 218.75 208.78 219.31 C 208.16 219.87 208.11 220.82 208.67 221.44 Z M 209.34 222.18 L 210.00 222.95 C 210.55 223.58 211.50 223.65 212.13 223.10 C 212.76 222.56 212.83 221.60 212.29 220.97 L 211.62 220.20 C 211.08 219.57 210.12 219.50 209.49 220.05 C 208.86 220.60 208.79 221.55 209.34 222.18 Z M 209.99 222.93 L 210.61 223.67 C 211.15 224.31 212.10 224.39 212.74 223.85 C 213.38 223.31 213.46 222.36 212.92 221.72 L 212.30 220.98 C 211.76 220.35 210.81 220.26 210.17 220.80 C 209.53 221.34 209.45 222.30 209.99 222.93 Z M 210.58 223.64 L 211.18 224.39 C 211.70 225.04 212.66 225.15 213.31 224.63 C 213.96 224.11 214.07 223.16 213.55 222.50 L 212.95 221.75 C 212.43 221.10 211.47 220.99 210.82 221.51 C 210.17 222.04 210.06 222.99 210.58 223.64 Z M 211.13 224.32 L 211.72 225.15 C 212.20 225.83 213.15 225.99 213.83 225.51 C 214.51 225.02 214.67 224.08 214.19 223.40 L 213.60 222.57 C 213.11 221.89 212.17 221.73 211.49 222.21 C 210.81 222.70 210.65 223.64 211.13 224.32 Z M 211.68 225.10 L 212.24 225.95 C 212.69 226.65 213.63 226.85 214.33 226.40 C 215.03 225.94 215.23 225.01 214.78 224.30 L 214.22 223.45 C 213.77 222.75 212.83 222.55 212.13 223.01 C 211.43 223.46 211.23 224.40 211.68 225.10 Z M 212.22 225.93 L 212.76 226.79 C 213.20 227.50 214.14 227.72 214.85 227.28 C 215.56 226.84 215.77 225.90 215.33 225.19 L 214.79 224.33 C 214.35 223.62 213.42 223.40 212.71 223.84 C 212.00 224.29 211.78 225.22 212.22 225.93 Z M 212.76 226.78 L 213.31 227.70 C 213.75 228.41 214.68 228.63 215.40 228.20 C 216.11 227.76 216.33 226.83 215.90 226.12 L 215.34 225.20 C 214.90 224.49 213.97 224.27 213.26 224.70 C 212.54 225.14 212.32 226.07 212.76 226.78 Z M 213.31 227.68 L 213.78 228.49 C 214.21 229.20 215.14 229.44 215.86 229.01 C 216.58 228.58 216.81 227.65 216.38 226.93 L 215.91 226.13 C 215.48 225.41 214.55 225.18 213.83 225.61 C 213.11 226.04 212.88 226.97 213.31 227.68 Z M 213.77 228.46 L 214.17 229.16 C 214.59 229.89 215.51 230.14 216.24 229.72 C 216.96 229.30 217.21 228.38 216.80 227.65 L 216.40 226.96 C 215.98 226.23 215.06 225.98 214.33 226.40 C 213.61 226.81 213.35 227.74 213.77 228.46 Z M 214.16 229.13 L 214.66 230.05 C 215.06 230.78 215.98 231.05 216.71 230.65 C 217.45 230.25 217.72 229.33 217.31 228.59 L 216.81 227.68 C 216.41 226.94 215.49 226.68 214.76 227.08 C 214.02 227.48 213.75 228.40 214.16 229.13 Z M 214.65 230.04 L 215.14 230.96 C 215.54 231.69 216.45 231.97 217.19 231.58 C 217.93 231.18 218.21 230.26 217.81 229.53 L 217.32 228.61 C 216.93 227.87 216.01 227.59 215.27 227.99 C 214.53 228.38 214.25 229.30 214.65 230.04 Z M 215.14 230.95 L 215.61 231.83 C 216.00 232.57 216.92 232.85 217.66 232.46 C 218.40 232.06 218.68 231.15 218.28 230.41 L 217.82 229.53 C 217.42 228.79 216.50 228.51 215.77 228.90 C 215.03 229.30 214.75 230.21 215.14 230.95 Z M 215.61 231.83 L 216.11 232.77 C 216.50 233.51 217.42 233.79 218.16 233.39 C 218.90 233.00 219.18 232.08 218.78 231.34 L 218.28 230.40 C 217.89 229.67 216.97 229.39 216.23 229.78 C 215.49 230.18 215.21 231.10 215.61 231.83 Z M 216.11 232.77 L 216.60 233.68 C 217.00 234.42 217.92 234.70 218.66 234.30 C 219.39 233.90 219.67 232.98 219.27 232.24 L 218.78 231.33 C 218.38 230.59 217.46 230.32 216.72 230.72 C 215.98 231.12 215.71 232.04 216.11 232.77 Z M 216.60 233.70 L 217.14 234.67 C 217.55 235.40 218.47 235.67 219.20 235.27 C 219.94 234.86 220.21 233.94 219.80 233.20 L 219.26 232.23 C 218.86 231.50 217.94 231.23 217.20 231.63 C 216.47 232.04 216.20 232.96 216.60 233.70 Z M 217.15 234.69 L 217.66 235.57 C 218.08 236.30 219.01 236.55 219.73 236.13 C 220.46 235.71 220.71 234.78 220.29 234.06 L 219.79 233.18 C 219.37 232.45 218.44 232.20 217.71 232.62 C 216.99 233.04 216.74 233.97 217.15 234.69 Z M 217.68 235.60 L 218.15 236.38 C 218.59 237.10 219.53 237.33 220.24 236.89 C 220.96 236.45 221.18 235.52 220.75 234.80 L 220.27 234.02 C 219.83 233.30 218.90 233.08 218.18 233.52 C 217.47 233.95 217.24 234.89 217.68 235.60 Z M 218.18 236.42 L 218.70 237.21 C 219.16 237.91 220.10 238.11 220.80 237.65 C 221.50 237.19 221.70 236.25 221.24 235.54 L 220.72 234.76 C 220.26 234.06 219.32 233.86 218.62 234.32 C 217.92 234.78 217.72 235.72 218.18 236.42 Z M 218.72 237.25 L 219.29 238.05 C 219.77 238.74 220.72 238.90 221.41 238.42 C 222.09 237.94 222.26 236.99 221.77 236.30 L 221.21 235.50 C 220.72 234.81 219.78 234.65 219.09 235.13 C 218.40 235.62 218.24 236.57 218.72 237.25 Z M 219.32 238.09 L 219.94 238.92 C 220.44 239.59 221.39 239.72 222.06 239.22 C 222.74 238.71 222.87 237.76 222.37 237.09 L 221.75 236.26 C 221.24 235.59 220.29 235.46 219.62 235.96 C 218.95 236.47 218.81 237.42 219.32 238.09 Z M 219.96 238.94 L 220.60 239.76 C 221.12 240.42 222.07 240.53 222.73 240.01 C 223.39 239.49 223.51 238.54 222.99 237.88 L 222.35 237.06 C 221.83 236.40 220.87 236.29 220.21 236.81 C 219.55 237.33 219.44 238.28 219.96 238.94 Z M 220.61 239.77 L 221.26 240.58 C 221.79 241.23 222.74 241.34 223.40 240.81 C 224.05 240.28 224.15 239.33 223.63 238.67 L 222.98 237.87 C 222.45 237.21 221.49 237.11 220.84 237.63 C 220.19 238.16 220.08 239.12 220.61 239.77 Z M 221.26 240.58 L 221.86 241.32 C 222.39 241.97 223.34 242.07 224.00 241.55 C 224.65 241.02 224.75 240.06 224.22 239.41 L 223.62 238.67 C 223.10 238.01 222.14 237.91 221.48 238.44 C 220.83 238.97 220.73 239.93 221.26 240.58 Z M 221.85 241.31 L 222.50 242.13 C 223.02 242.79 223.98 242.90 224.64 242.38 C 225.29 241.86 225.41 240.91 224.89 240.25 L 224.23 239.42 C 223.71 238.76 222.76 238.65 222.10 239.17 C 221.44 239.69 221.33 240.65 221.85 241.31 Z M 222.45 242.07 L 223.00 242.84 C 223.48 243.52 224.43 243.69 225.12 243.20 C 225.80 242.71 225.96 241.76 225.48 241.08 L 224.93 240.31 C 224.45 239.62 223.50 239.46 222.81 239.95 C 222.13 240.43 221.97 241.38 222.45 242.07 Z M 222.93 242.74 L 223.44 243.59 C 223.87 244.31 224.81 244.54 225.53 244.11 C 226.25 243.68 226.48 242.74 226.05 242.02 L 225.54 241.17 C 225.11 240.45 224.17 240.22 223.45 240.65 C 222.73 241.09 222.50 242.02 222.93 242.74 Z M 223.39 243.49 L 223.84 244.40 C 224.22 245.15 225.13 245.45 225.89 245.08 C 226.64 244.70 226.94 243.79 226.56 243.03 L 226.11 242.12 C 225.73 241.37 224.82 241.07 224.06 241.45 C 223.31 241.82 223.01 242.74 223.39 243.49 Z M 223.76 244.20 L 224.13 245.30 C 224.40 246.10 225.27 246.53 226.06 246.26 C 226.86 245.99 227.29 245.12 227.02 244.33 L 226.64 243.23 C 226.37 242.43 225.51 242.01 224.72 242.28 C 223.92 242.55 223.49 243.41 223.76 244.20 Z M 224.39 243.87 L 224.09 244.26 C 223.56 244.91 223.67 245.87 224.33 246.39 C 224.99 246.91 225.94 246.80 226.46 246.14 L 226.76 245.76 C 227.28 245.10 227.17 244.15 226.52 243.63 C 225.86 243.11 224.91 243.22 224.39 243.87 Z M 226.08 243.94 L 225.29 243.43 C 224.60 242.98 223.68 243.18 223.23 243.87 C 222.78 244.57 222.98 245.49 223.67 245.94 L 224.46 246.45 C 225.15 246.90 226.08 246.70 226.53 246.01 C 226.98 245.32 226.78 244.39 226.08 243.94 Z M 225.42 243.56 L 224.51 242.81 C 223.89 242.29 222.96 242.38 222.45 243.00 C 221.93 243.62 222.02 244.54 222.64 245.06 L 223.55 245.81 C 224.17 246.33 225.09 246.24 225.61 245.62 C 226.12 245.00 226.04 244.08 225.42 243.56 Z M 224.52 242.85 L 223.75 242.18 C 223.15 241.65 222.24 241.71 221.72 242.31 C 221.20 242.91 221.26 243.82 221.86 244.35 L 222.62 245.02 C 223.22 245.54 224.13 245.48 224.66 244.88 C 225.18 244.28 225.12 243.37 224.52 242.85 Z M 223.76 242.19 L 223.15 241.65 C 222.56 241.13 221.66 241.18 221.13 241.77 C 220.61 242.36 220.66 243.26 221.25 243.79 L 221.85 244.33 C 222.44 244.85 223.35 244.80 223.87 244.21 C 224.40 243.62 224.35 242.72 223.76 242.19 Z"
      fill="black"
      fill-rule="nonzero" /><path d="M 88.33 164.96 L 88.20 165.95 C 88.09 166.74 88.64 167.46 89.43 167.57 C 90.22 167.68 90.95 167.12 91.06 166.33 L 91.19 165.34 C 91.30 164.55 90.74 163.82 89.95 163.72 C 89.16 163.61 88.44 164.17 88.33 164.96 Z M 88.18 165.94 L 88.05 166.94 C 87.94 167.73 88.50 168.46 89.30 168.57 C 90.10 168.68 90.83 168.12 90.94 167.32 L 91.07 166.33 C 91.18 165.54 90.62 164.80 89.82 164.70 C 89.02 164.59 88.29 165.15 88.18 165.94 Z M 88.04 166.93 L 87.92 167.81 C 87.81 168.62 88.38 169.35 89.18 169.46 C 89.98 169.57 90.72 169.01 90.83 168.20 L 90.95 167.33 C 91.05 166.52 90.49 165.78 89.69 165.68 C 88.89 165.57 88.15 166.13 88.04 166.93 Z"
      fill="black"
      fill-rule="nonzero" /><path d="M 155.71 93.35 L 155.53 94.38 C 155.40 95.16 155.92 95.91 156.71 96.05 C 157.49 96.18 158.24 95.66 158.38 94.87 L 158.55 93.84 C 158.69 93.06 158.17 92.31 157.38 92.17 C 156.60 92.04 155.85 92.56 155.71 93.35 Z M 155.56 94.27 L 155.32 95.22 C 155.12 95.99 155.59 96.78 156.36 96.97 C 157.14 97.17 157.92 96.70 158.11 95.93 L 158.35 94.98 C 158.55 94.21 158.08 93.42 157.31 93.23 C 156.53 93.03 155.75 93.50 155.56 94.27 Z M 155.41 94.97 L 154.99 95.88 C 154.66 96.61 154.97 97.46 155.70 97.79 C 156.42 98.13 157.27 97.81 157.61 97.09 L 158.02 96.18 C 158.36 95.45 158.04 94.60 157.32 94.27 C 156.60 93.93 155.74 94.25 155.41 94.97 Z M 155.12 95.66 L 154.56 96.45 C 154.11 97.10 154.26 98.00 154.91 98.45 C 155.56 98.91 156.45 98.75 156.91 98.11 L 157.47 97.31 C 157.93 96.66 157.77 95.77 157.12 95.31 C 156.48 94.86 155.58 95.01 155.12 95.66 Z M 154.60 96.41 L 154.54 96.49 C 154.05 97.12 154.17 98.02 154.79 98.50 C 155.42 98.98 156.32 98.87 156.80 98.24 L 156.87 98.15 C 157.35 97.53 157.24 96.63 156.61 96.15 C 155.99 95.66 155.09 95.78 154.60 96.41 Z"
      fill="black"
      fill-rule="nonzero" /><path d="M 201.07 162.17 L 201.55 163.04 C 201.95 163.75 202.83 164.00 203.54 163.60 C 204.24 163.21 204.49 162.32 204.10 161.62 L 203.61 160.75 C 203.21 160.05 202.33 159.80 201.62 160.19 C 200.92 160.58 200.67 161.47 201.07 162.17 Z M 201.55 163.04 L 202.04 163.92 C 202.44 164.62 203.32 164.87 204.03 164.48 C 204.73 164.08 204.98 163.20 204.58 162.49 L 204.10 161.62 C 203.70 160.92 202.82 160.67 202.11 161.06 C 201.41 161.45 201.16 162.34 201.55 163.04 Z M 202.04 163.92 L 202.44 164.63 C 202.83 165.33 203.72 165.58 204.42 165.19 C 205.13 164.80 205.38 163.91 204.98 163.21 L 204.58 162.49 C 204.19 161.79 203.30 161.54 202.60 161.93 C 201.90 162.33 201.65 163.21 202.04 163.92 Z"
      fill="black"
      fill-rule="nonzero" /><path d="M 144.42 229.05 L 144.32 230.36 C 144.26 231.18 144.87 231.89 145.69 231.95 C 146.51 232.01 147.23 231.39 147.29 230.58 L 147.38 229.26 C 147.44 228.45 146.83 227.73 146.01 227.67 C 145.19 227.61 144.48 228.23 144.42 229.05 Z M 144.32 230.52 L 144.34 231.21 C 144.37 232.03 145.06 232.67 145.88 232.64 C 146.70 232.61 147.34 231.92 147.31 231.10 L 147.29 230.41 C 147.26 229.59 146.57 228.95 145.75 228.98 C 144.93 229.01 144.29 229.70 144.32 230.52 Z M 147.13 231.85 L 147.43 231.30 C 147.82 230.58 147.55 229.68 146.83 229.29 C 146.11 228.90 145.22 229.17 144.83 229.89 L 144.53 230.45 C 144.14 231.17 144.41 232.06 145.13 232.45 C 145.84 232.84 146.74 232.57 147.13 231.85 Z M 147.51 231.07 L 147.82 230.18 C 148.08 229.42 147.67 228.58 146.91 228.32 C 146.14 228.06 145.31 228.47 145.05 229.23 L 144.74 230.12 C 144.48 230.88 144.89 231.72 145.65 231.98 C 146.42 232.24 147.25 231.83 147.51 231.07 Z"
      fill="black"
      fill-rule="nonzero" /></svg>