<svg xmlns="http://www.w3.org/2000/svg" width="300" height="300" viewBox="0 0 300 300">
<path d="M 169.55 54.70 L 168.83 54.15 C 168.20 53.67 167.29 53.80 166.81 54.43 C 166.33 55.07 166.45 55.97 167.09 56.45 L 167.81 57.00 C 168.44 57.48 169.35 57.35 169.83 56.72 C 170.31 56.08 170.19 55.18 169.55 54.70 Z M 168.76 54.09 L 167.86 53.49 C 167.19 53.05 166.28 53.24 165.84 53.91 C 165.40 54.58 165.59 55.48 166.26 55.92 L 167.16 56.52 C 167.83 56.96 168.73 56.77 169.17 56.10 C 169.62 55.43 169.43 54.53 168.76 54.09 Z M 167.79 53.44 L 167.00 52.98 C 166.30 52.57 165.40 52.81 164.99 53.51 C 164.59 54.21 164.83 55.11 165.53 55.51 L 166.32 55.97 C 167.02 56.38 167.92 56.14 168.32 55.44 C 168.73 54.74 168.49 53.85 167.79 53.44 Z M 166.97 52.95 L 166.07 52.45 C 165.35 52.06 164.45 52.32 164.06 53.04 C 163.67 53.76 163.93 54.65 164.65 55.05 L 165.55 55.54 C 166.27 55.94 167.17 55.67 167.56 54.96 C 167.95 54.24 167.69 53.34 166.97 52.95 Z M 166.06 52.43 L 165.11 51.92 C 164.38 51.53 163.48 51.81 163.09 52.54 C 162.70 53.27 162.97 54.17 163.70 54.56 L 164.65 55.07 C 165.38 55.46 166.29 55.18 166.68 54.45 C 167.07 53.73 166.79 52.82 166.06 52.43 Z M 165.11 51.91 L 164.16 51.41 C 163.43 51.02 162.52 51.30 162.13 52.03 C 161.74 52.77 162.02 53.68 162.75 54.07 L 163.70 54.57 C 164.44 54.96 165.35 54.68 165.74 53.95 C 166.13 53.21 165.85 52.30 165.11 51.91 Z M 164.17 51.40 L 163.29 50.93 C 162.55 50.54 161.63 50.81 161.24 51.55 C 160.84 52.29 161.12 53.21 161.86 53.60 L 162.74 54.07 C 163.48 54.47 164.40 54.19 164.79 53.45 C 165.19 52.71 164.91 51.80 164.17 51.40 Z M 163.31 50.93 L 162.47 50.47 C 161.73 50.06 160.80 50.33 160.40 51.07 C 159.99 51.80 160.26 52.73 161.00 53.14 L 161.84 53.60 C 162.58 54.01 163.50 53.74 163.91 53.00 C 164.32 52.26 164.05 51.34 163.31 50.93 Z M 162.50 50.48 L 161.62 49.97 C 160.89 49.54 159.95 49.79 159.53 50.52 C 159.10 51.25 159.35 52.19 160.08 52.62 L 160.96 53.13 C 161.70 53.55 162.63 53.30 163.06 52.57 C 163.48 51.84 163.23 50.90 162.50 50.48 Z M 161.63 49.96 L 160.83 49.50 C 160.09 49.07 159.15 49.32 158.73 50.05 C 158.30 50.78 158.55 51.72 159.28 52.15 L 160.08 52.62 C 160.81 53.05 161.75 52.80 162.18 52.07 C 162.61 51.33 162.36 50.39 161.63 49.96 Z M 160.80 49.48 L 159.92 48.99 C 159.18 48.58 158.24 48.85 157.83 49.59 C 157.41 50.34 157.68 51.28 158.43 51.69 L 159.31 52.17 C 160.05 52.59 160.99 52.32 161.40 51.57 C 161.81 50.83 161.54 49.89 160.80 49.48 Z M 159.90 48.97 L 159.02 48.51 C 158.26 48.11 157.33 48.40 156.93 49.16 C 156.53 49.91 156.82 50.85 157.58 51.25 L 158.46 51.71 C 159.21 52.10 160.15 51.81 160.54 51.06 C 160.94 50.30 160.65 49.37 159.90 48.97 Z M 158.96 48.48 L 158.05 48.05 C 157.28 47.68 156.36 48.01 155.99 48.78 C 155.62 49.56 155.95 50.48 156.73 50.85 L 157.64 51.28 C 158.41 51.65 159.33 51.32 159.70 50.54 C 160.07 49.77 159.74 48.84 158.96 48.48 Z M 157.96 48.00 L 157.05 47.64 C 156.25 47.33 155.35 47.72 155.03 48.52 C 154.72 49.32 155.11 50.22 155.91 50.53 L 156.82 50.89 C 157.62 51.21 158.52 50.82 158.84 50.02 C 159.15 49.22 158.76 48.32 157.96 48.00 Z M 156.92 47.59 L 155.95 47.30 C 155.12 47.06 154.25 47.53 154.01 48.35 C 153.76 49.18 154.23 50.05 155.06 50.29 L 156.03 50.58 C 156.86 50.83 157.73 50.36 157.97 49.53 C 158.22 48.71 157.75 47.84 156.92 47.59 Z M 155.79 47.26 L 154.79 47.07 C 153.94 46.91 153.12 47.47 152.96 48.32 C 152.80 49.17 153.36 49.98 154.21 50.14 L 155.21 50.33 C 156.06 50.49 156.88 49.93 157.04 49.09 C 157.20 48.24 156.64 47.42 155.79 47.26 Z M 154.66 47.05 L 153.67 46.95 C 152.81 46.86 152.04 47.48 151.95 48.34 C 151.86 49.20 152.48 49.97 153.34 50.06 L 154.33 50.17 C 155.19 50.26 155.96 49.63 156.05 48.77 C 156.14 47.91 155.52 47.14 154.66 47.05 Z M 153.58 46.94 L 152.56 46.89 C 151.70 46.85 150.96 47.52 150.93 48.39 C 150.89 49.25 151.56 49.99 152.42 50.03 L 153.44 50.07 C 154.30 50.11 155.04 49.44 155.07 48.57 C 155.11 47.71 154.44 46.98 153.58 46.94 Z M 152.49 46.89 L 151.52 46.89 C 150.65 46.89 149.95 47.60 149.95 48.46 C 149.95 49.33 150.65 50.03 151.52 50.03 L 152.50 50.03 C 153.36 50.03 154.07 49.32 154.06 48.46 C 154.06 47.59 153.36 46.89 152.49 46.89 Z M 151.45 46.89 L 150.47 46.93 C 149.60 46.97 148.93 47.71 148.97 48.58 C 149.01 49.45 149.75 50.12 150.61 50.08 L 151.59 50.03 C 152.46 49.99 153.13 49.26 153.09 48.39 C 153.05 47.52 152.31 46.85 151.45 46.89 Z M 150.27 46.95 L 149.28 47.12 C 148.43 47.27 147.85 48.09 148.00 48.94 C 148.15 49.80 148.96 50.38 149.82 50.23 L 150.81 50.06 C 151.66 49.91 152.24 49.10 152.09 48.24 C 151.94 47.38 151.13 46.81 150.27 46.95 Z M 149.05 47.18 L 148.13 47.49 C 147.30 47.77 146.86 48.67 147.14 49.49 C 147.42 50.32 148.31 50.76 149.14 50.48 L 150.06 50.17 C 150.88 49.89 151.32 49.00 151.04 48.17 C 150.77 47.35 149.87 46.90 149.05 47.18 Z M 147.98 47.55 L 147.04 47.97 C 146.24 48.33 145.89 49.27 146.25 50.06 C 146.60 50.85 147.54 51.21 148.33 50.85 L 149.28 50.43 C 150.07 50.07 150.43 49.14 150.07 48.34 C 149.71 47.55 148.78 47.19 147.98 47.55 Z M 146.96 48.01 L 146.08 48.47 C 145.31 48.87 145.01 49.82 145.41 50.59 C 145.81 51.37 146.76 51.67 147.53 51.27 L 148.41 50.81 C 149.18 50.41 149.49 49.46 149.09 48.69 C 148.69 47.91 147.73 47.61 146.96 48.01 Z M 146.02 48.50 L 145.14 49.00 C 144.39 49.44 144.13 50.40 144.56 51.16 C 144.99 51.91 145.96 52.17 146.71 51.74 L 147.59 51.24 C 148.35 50.80 148.61 49.84 148.18 49.08 C 147.74 48.33 146.78 48.06 146.02 48.50 Z M 145.09 49.03 L 144.30 49.53 C 143.56 49.99 143.34 50.97 143.81 51.71 C 144.27 52.45 145.25 52.67 145.98 52.20 L 146.77 51.71 C 147.51 51.24 147.73 50.27 147.27 49.53 C 146.80 48.79 145.83 48.57 145.09 49.03 Z M 144.25 49.56 L 143.44 50.11 C 142.72 50.61 142.54 51.59 143.03 52.31 C 143.53 53.03 144.51 53.21 145.23 52.72 L 146.04 52.17 C 146.76 51.68 146.94 50.69 146.45 49.97 C 145.95 49.25 144.97 49.07 144.25 49.56 Z M 143.41 50.14 L 142.54 50.77 C 141.83 51.29 141.68 52.28 142.19 52.98 C 142.71 53.69 143.70 53.84 144.40 53.33 L 145.27 52.69 C 145.97 52.18 146.13 51.19 145.61 50.49 C 145.10 49.78 144.11 49.63 143.41 50.14 Z M 142.51 50.79 L 141.77 51.36 C 141.07 51.89 140.94 52.88 141.46 53.58 C 141.99 54.27 142.99 54.41 143.68 53.88 L 144.43 53.31 C 145.12 52.78 145.26 51.79 144.73 51.09 C 144.20 50.40 143.21 50.26 142.51 50.79 Z M 141.74 51.38 L 140.95 52.01 C 140.26 52.55 140.14 53.54 140.69 54.23 C 141.23 54.91 142.22 55.03 142.91 54.49 L 143.70 53.86 C 144.39 53.32 144.51 52.33 143.96 51.64 C 143.42 50.95 142.43 50.84 141.74 51.38 Z M 140.92 52.03 L 140.11 52.69 C 139.44 53.25 139.34 54.25 139.90 54.92 C 140.45 55.60 141.45 55.69 142.12 55.14 L 142.93 54.47 C 143.61 53.91 143.70 52.92 143.15 52.24 C 142.59 51.57 141.60 51.47 140.92 52.03 Z M 140.08 52.72 L 139.30 53.40 C 138.64 53.97 138.57 54.97 139.14 55.63 C 139.71 56.29 140.71 56.36 141.37 55.79 L 142.16 55.11 C 142.82 54.54 142.89 53.54 142.31 52.88 C 141.74 52.22 140.74 52.15 140.08 52.72 Z M 139.26 53.43 L 138.52 54.11 C 137.88 54.71 137.83 55.71 138.43 56.35 C 139.02 56.99 140.02 57.04 140.66 56.44 L 141.41 55.76 C 142.05 55.17 142.09 54.17 141.50 53.52 C 140.91 52.88 139.91 52.84 139.26 53.43 Z M 138.49 54.14 L 137.78 54.83 C 137.15 55.44 137.13 56.44 137.74 57.07 C 138.35 57.70 139.35 57.72 139.98 57.11 L 140.69 56.41 C 141.32 55.81 141.34 54.80 140.73 54.18 C 140.12 53.55 139.12 53.53 138.49 54.14 Z M 137.75 54.86 L 137.06 55.56 C 136.45 56.19 136.45 57.19 137.08 57.80 C 137.70 58.41 138.70 58.40 139.32 57.78 L 140.01 57.08 C 140.62 56.46 140.61 55.46 139.99 54.84 C 139.36 54.23 138.36 54.24 137.75 54.86 Z M 137.03 55.59 L 136.31 56.36 C 135.71 57.00 135.74 58.00 136.37 58.60 C 137.01 59.20 138.01 59.17 138.61 58.53 L 139.34 57.76 C 139.94 57.12 139.91 56.12 139.27 55.52 C 138.64 54.92 137.63 54.95 137.03 55.59 Z M 136.28 56.39 L 135.59 57.16 C 135.00 57.81 135.05 58.81 135.70 59.39 C 136.35 59.98 137.35 59.93 137.94 59.28 L 138.63 58.51 C 139.22 57.86 139.17 56.86 138.52 56.27 C 137.87 55.69 136.87 55.74 136.28 56.39 Z M 135.56 57.18 L 134.94 57.91 C 134.37 58.57 134.44 59.57 135.10 60.14 C 135.77 60.71 136.76 60.64 137.34 59.98 L 137.96 59.25 C 138.53 58.59 138.46 57.59 137.80 57.02 C 137.13 56.45 136.14 56.52 135.56 57.18 Z M 134.91 57.95 L 134.26 58.74 C 133.71 59.42 133.81 60.42 134.49 60.97 C 135.17 61.52 136.17 61.42 136.72 60.74 L 137.37 59.94 C 137.92 59.26 137.81 58.27 137.13 57.71 C 136.46 57.16 135.46 57.27 134.91 57.95 Z M 134.22 58.80 L 133.62 59.60 C 133.10 60.30 133.25 61.29 133.95 61.81 C 134.65 62.34 135.64 62.19 136.16 61.49 L 136.76 60.69 C 137.28 59.98 137.13 58.99 136.43 58.47 C 135.73 57.95 134.74 58.10 134.22 58.80 Z M 133.59 59.65 L 133.08 60.39 C 132.59 61.12 132.77 62.10 133.49 62.59 C 134.21 63.09 135.20 62.90 135.69 62.18 L 136.20 61.44 C 136.69 60.72 136.51 59.73 135.78 59.24 C 135.06 58.74 134.08 58.93 133.59 59.65 Z M 133.05 60.44 L 132.53 61.26 C 132.06 62.00 132.28 62.98 133.02 63.45 C 133.75 63.91 134.73 63.70 135.20 62.96 L 135.72 62.13 C 136.19 61.40 135.97 60.42 135.23 59.95 C 134.49 59.48 133.52 59.70 133.05 60.44 Z M 132.49 61.32 L 131.99 62.20 C 131.55 62.96 131.81 63.92 132.57 64.36 C 133.33 64.80 134.29 64.53 134.73 63.78 L 135.24 62.90 C 135.67 62.14 135.41 61.17 134.65 60.74 C 133.89 60.30 132.93 60.56 132.49 61.32 Z M 131.96 62.25 L 131.49 63.14 C 131.08 63.91 131.38 64.87 132.15 65.28 C 132.93 65.69 133.88 65.39 134.29 64.61 L 134.76 63.73 C 135.17 62.95 134.87 61.99 134.10 61.59 C 133.32 61.18 132.36 61.48 131.96 62.25 Z M 131.46 63.19 L 131.02 64.11 C 130.64 64.89 130.97 65.84 131.76 66.22 C 132.54 66.60 133.49 66.27 133.87 65.48 L 134.31 64.57 C 134.70 63.78 134.37 62.83 133.58 62.45 C 132.79 62.07 131.85 62.40 131.46 63.19 Z M 130.99 64.17 L 130.59 65.09 C 130.24 65.89 130.61 66.83 131.41 67.17 C 132.22 67.52 133.15 67.15 133.50 66.35 L 133.90 65.42 C 134.25 64.62 133.88 63.69 133.08 63.34 C 132.27 63.00 131.34 63.36 130.99 64.17 Z M 130.57 65.14 L 130.21 66.06 C 129.89 66.87 130.29 67.79 131.11 68.11 C 131.92 68.43 132.84 68.03 133.16 67.22 L 133.52 66.30 C 133.84 65.49 133.44 64.57 132.62 64.25 C 131.81 63.93 130.89 64.33 130.57 65.14 Z M 130.20 66.09 L 129.86 67.02 C 129.56 67.84 129.98 68.75 130.80 69.05 C 131.62 69.35 132.53 68.93 132.83 68.11 L 133.17 67.18 C 133.47 66.36 133.05 65.45 132.23 65.15 C 131.41 64.85 130.50 65.27 130.20 66.09 Z M 129.84 67.06 L 129.53 68.02 C 129.25 68.85 129.70 69.74 130.53 70.02 C 131.36 70.30 132.25 69.85 132.53 69.02 L 132.85 68.06 C 133.12 67.23 132.68 66.34 131.85 66.06 C 131.02 65.78 130.12 66.23 129.84 67.06 Z M 129.50 68.08 L 129.22 69.07 C 128.98 69.91 129.47 70.79 130.31 71.03 C 131.15 71.27 132.03 70.78 132.27 69.94 L 132.55 68.95 C 132.79 68.11 132.30 67.24 131.46 67.00 C 130.62 66.76 129.74 67.24 129.50 68.08 Z M 129.21 69.13 L 128.97 70.11 C 128.76 70.96 129.28 71.82 130.13 72.02 C 130.98 72.23 131.84 71.71 132.05 70.86 L 132.29 69.88 C 132.49 69.03 131.97 68.17 131.12 67.96 C 130.27 67.76 129.41 68.28 129.21 69.13 Z M 128.96 70.14 L 128.74 71.12 C 128.55 71.97 129.09 72.82 129.94 73.01 C 130.80 73.20 131.65 72.66 131.84 71.81 L 132.06 70.83 C 132.25 69.97 131.71 69.12 130.85 68.93 C 130.00 68.74 129.15 69.28 128.96 70.14 Z M 128.73 71.15 L 128.54 72.14 C 128.37 73.00 128.93 73.84 129.79 74.01 C 130.65 74.17 131.49 73.61 131.65 72.75 L 131.85 71.77 C 132.02 70.91 131.46 70.07 130.60 69.90 C 129.73 69.73 128.90 70.29 128.73 71.15 Z M 128.52 72.24 L 128.39 73.20 C 128.28 74.07 128.89 74.87 129.76 74.98 C 130.63 75.10 131.43 74.49 131.54 73.61 L 131.67 72.66 C 131.79 71.78 131.18 70.99 130.30 70.87 C 129.43 70.75 128.63 71.37 128.52 72.24 Z M 128.38 73.31 L 128.32 74.30 C 128.27 75.18 128.94 75.93 129.81 75.99 C 130.69 76.04 131.45 75.37 131.50 74.49 L 131.56 73.50 C 131.61 72.62 130.94 71.87 130.06 71.82 C 129.18 71.76 128.43 72.43 128.38 73.31 Z M 128.32 74.37 L 128.30 75.35 C 128.28 76.23 128.98 76.96 129.86 76.97 C 130.74 76.99 131.47 76.29 131.48 75.41 L 131.50 74.43 C 131.52 73.55 130.82 72.82 129.94 72.81 C 129.06 72.79 128.33 73.49 128.32 74.37 Z M 128.30 75.37 L 128.29 76.38 C 128.29 77.26 129.00 77.97 129.88 77.98 C 130.76 77.98 131.48 77.27 131.48 76.39 L 131.48 75.39 C 131.49 74.51 130.78 73.79 129.90 73.78 C 129.02 73.78 128.30 74.49 128.30 75.37 Z M 128.29 76.38 L 128.29 77.40 C 128.29 78.28 129.01 78.99 129.89 78.99 C 130.77 78.99 131.48 78.28 131.48 77.40 L 131.48 76.38 C 131.48 75.50 130.77 74.79 129.88 74.79 C 129.00 74.79 128.29 75.50 128.29 76.38 Z M 128.29 77.42 L 128.30 78.42 C 128.31 79.31 129.04 80.01 129.92 80.00 C 130.80 79.99 131.51 79.27 131.49 78.39 L 131.48 77.38 C 131.47 76.50 130.75 75.79 129.87 75.80 C 128.98 75.81 128.28 76.54 128.29 77.42 Z M 128.30 78.48 L 128.35 79.48 C 128.39 80.36 129.13 81.05 130.01 81.01 C 130.90 80.97 131.58 80.22 131.54 79.34 L 131.49 78.33 C 131.45 77.45 130.71 76.77 129.83 76.81 C 128.95 76.85 128.26 77.60 128.30 78.48 Z M 128.35 79.58 L 128.46 80.57 C 128.55 81.45 129.33 82.08 130.21 81.99 C 131.09 81.90 131.73 81.12 131.64 80.24 L 131.53 79.25 C 131.44 78.37 130.66 77.73 129.78 77.82 C 128.90 77.91 128.26 78.70 128.35 79.58 Z M 128.48 80.70 L 128.66 81.67 C 128.83 82.54 129.66 83.11 130.53 82.95 C 131.40 82.78 131.97 81.94 131.80 81.08 L 131.62 80.11 C 131.45 79.24 130.62 78.67 129.75 78.83 C 128.88 79.00 128.31 79.84 128.48 80.70 Z M 128.69 81.81 L 128.96 82.76 C 129.21 83.61 130.09 84.11 130.94 83.86 C 131.79 83.62 132.28 82.74 132.04 81.89 L 131.77 80.94 C 131.53 80.09 130.64 79.59 129.79 79.84 C 128.94 80.08 128.45 80.96 128.69 81.81 Z M 129.00 82.86 L 129.34 83.82 C 129.63 84.65 130.55 85.09 131.38 84.79 C 132.21 84.49 132.65 83.58 132.35 82.75 L 132.01 81.79 C 131.71 80.96 130.80 80.52 129.96 80.82 C 129.13 81.12 128.70 82.03 129.00 82.86 Z M 129.36 83.89 L 129.75 84.83 C 130.08 85.65 131.02 86.04 131.84 85.70 C 132.66 85.37 133.05 84.43 132.71 83.61 L 132.33 82.68 C 131.99 81.86 131.05 81.47 130.24 81.80 C 129.42 82.14 129.03 83.07 129.36 83.89 Z M 129.78 84.91 L 130.21 85.81 C 130.60 86.61 131.55 86.95 132.35 86.56 C 133.15 86.18 133.49 85.22 133.11 84.42 L 132.67 83.53 C 132.29 82.73 131.33 82.39 130.54 82.77 C 129.74 83.16 129.40 84.12 129.78 84.91 Z M 130.27 85.93 L 130.79 86.80 C 131.23 87.57 132.22 87.83 132.98 87.38 C 133.75 86.93 134.00 85.95 133.56 85.18 L 133.04 84.31 C 132.60 83.54 131.61 83.28 130.85 83.73 C 130.08 84.18 129.83 85.17 130.27 85.93 Z M 130.86 86.92 L 131.43 87.73 C 131.95 88.45 132.95 88.62 133.67 88.11 C 134.40 87.59 134.57 86.59 134.05 85.87 L 133.48 85.06 C 132.97 84.34 131.97 84.17 131.24 84.68 C 130.52 85.20 130.35 86.20 130.86 86.92 Z M 131.50 87.81 L 132.12 88.57 C 132.68 89.26 133.69 89.36 134.38 88.80 C 135.07 88.24 135.17 87.23 134.61 86.54 L 133.99 85.78 C 133.42 85.09 132.41 84.99 131.73 85.55 C 131.04 86.11 130.94 87.13 131.50 87.81 Z M 132.20 88.67 L 132.89 89.39 C 133.51 90.03 134.52 90.05 135.17 89.44 C 135.81 88.83 135.83 87.81 135.22 87.17 L 134.52 86.45 C 133.91 85.81 132.89 85.78 132.25 86.40 C 131.61 87.01 131.59 88.03 132.20 88.67 Z M 133.01 89.50 L 133.72 90.11 C 134.39 90.69 135.41 90.62 135.99 89.94 C 136.57 89.27 136.49 88.26 135.82 87.68 L 135.10 87.06 C 134.43 86.48 133.42 86.56 132.84 87.23 C 132.26 87.90 132.33 88.92 133.01 89.50 Z M 133.85 90.22 L 134.67 90.78 C 135.40 91.29 136.40 91.11 136.91 90.38 C 137.41 89.65 137.23 88.65 136.50 88.14 L 135.69 87.58 C 134.96 87.07 133.96 87.25 133.45 87.98 C 132.94 88.71 133.12 89.71 133.85 90.22 Z M 134.80 90.86 L 135.68 91.36 C 136.46 91.80 137.44 91.53 137.87 90.75 C 138.31 89.98 138.04 89.00 137.26 88.56 L 136.38 88.06 C 135.60 87.63 134.62 87.90 134.19 88.67 C 133.75 89.45 134.02 90.43 134.80 90.86 Z M 135.78 91.41 L 136.63 91.82 C 137.43 92.21 138.39 91.87 138.77 91.07 C 139.16 90.27 138.82 89.31 138.02 88.93 L 137.17 88.52 C 136.37 88.13 135.41 88.47 135.03 89.27 C 134.64 90.07 134.98 91.03 135.78 91.41 Z M 136.69 91.85 L 137.64 92.26 C 138.45 92.61 139.40 92.23 139.75 91.41 C 140.10 90.60 139.72 89.65 138.90 89.30 L 137.96 88.90 C 137.14 88.55 136.20 88.92 135.85 89.74 C 135.50 90.55 135.87 91.50 136.69 91.85 Z M 137.68 92.28 L 138.68 92.66 C 139.50 92.99 140.44 92.58 140.76 91.75 C 141.08 90.93 140.67 89.99 139.85 89.67 L 138.86 89.28 C 138.03 88.96 137.10 89.37 136.77 90.19 C 136.45 91.02 136.86 91.95 137.68 92.28 Z M 138.72 92.68 L 139.63 93.01 C 140.46 93.31 141.38 92.88 141.69 92.05 C 141.99 91.21 141.56 90.29 140.72 89.99 L 139.81 89.66 C 138.98 89.35 138.05 89.79 137.75 90.62 C 137.45 91.45 137.88 92.38 138.72 92.68 Z M 139.66 93.02 L 140.60 93.34 C 141.45 93.63 142.36 93.18 142.64 92.34 C 142.93 91.50 142.48 90.58 141.64 90.30 L 140.69 89.98 C 139.85 89.69 138.94 90.14 138.65 90.98 C 138.37 91.82 138.82 92.73 139.66 93.02 Z M 140.63 93.35 L 141.61 93.66 C 142.45 93.93 143.36 93.46 143.63 92.62 C 143.90 91.77 143.43 90.87 142.58 90.60 L 141.61 90.29 C 140.76 90.02 139.86 90.49 139.59 91.33 C 139.32 92.18 139.79 93.08 140.63 93.35 Z M 141.63 93.67 L 142.63 93.97 C 143.48 94.22 144.37 93.74 144.63 92.89 C 144.88 92.04 144.40 91.14 143.55 90.89 L 142.56 90.59 C 141.71 90.34 140.81 90.82 140.56 91.67 C 140.30 92.52 140.78 93.41 141.63 93.67 Z M 142.65 93.97 L 143.65 94.26 C 144.50 94.50 145.39 94.01 145.64 93.15 C 145.88 92.30 145.39 91.41 144.53 91.17 L 143.53 90.88 C 142.68 90.64 141.79 91.13 141.54 91.99 C 141.30 92.84 141.80 93.73 142.65 93.97 Z M 143.66 94.26 L 144.64 94.53 C 145.50 94.77 146.38 94.27 146.62 93.41 C 146.85 92.55 146.35 91.67 145.49 91.43 L 144.52 91.16 C 143.66 90.93 142.78 91.43 142.54 92.29 C 142.31 93.14 142.81 94.03 143.66 94.26 Z M 144.64 94.53 L 145.57 94.79 C 146.43 95.02 147.31 94.51 147.54 93.66 C 147.78 92.80 147.27 91.92 146.42 91.68 L 145.49 91.43 C 144.63 91.20 143.75 91.70 143.52 92.56 C 143.28 93.42 143.79 94.30 144.64 94.53 Z M 145.56 94.78 L 146.60 95.07 C 147.46 95.31 148.34 94.81 148.58 93.95 C 148.81 93.10 148.31 92.21 147.46 91.97 L 146.42 91.69 C 145.57 91.45 144.68 91.95 144.44 92.81 C 144.21 93.66 144.71 94.55 145.56 94.78 Z M 146.59 95.07 L 147.58 95.35 C 148.44 95.59 149.33 95.10 149.57 94.25 C 149.81 93.39 149.32 92.50 148.46 92.26 L 147.47 91.98 C 146.62 91.73 145.73 92.23 145.48 93.08 C 145.24 93.93 145.73 94.82 146.59 95.07 Z M 147.57 95.35 L 148.42 95.59 C 149.27 95.84 150.16 95.36 150.41 94.50 C 150.66 93.65 150.17 92.76 149.32 92.51 L 148.47 92.26 C 147.62 92.01 146.73 92.50 146.48 93.35 C 146.23 94.21 146.72 95.10 147.57 95.35 Z M 148.40 95.59 L 149.36 95.88 C 150.21 96.13 151.10 95.65 151.36 94.80 C 151.61 93.95 151.13 93.06 150.28 92.80 L 149.33 92.51 C 148.48 92.26 147.58 92.74 147.33 93.59 C 147.07 94.44 147.55 95.34 148.40 95.59 Z M 149.32 95.86 L 150.25 96.17 C 151.09 96.45 152.00 95.99 152.28 95.15 C 152.56 94.31 152.10 93.40 151.25 93.12 L 150.32 92.81 C 149.48 92.53 148.57 92.99 148.29 93.84 C 148.01 94.68 148.47 95.59 149.32 95.86 Z M 150.20 96.16 L 151.08 96.48 C 151.92 96.78 152.84 96.35 153.14 95.52 C 153.45 94.68 153.02 93.76 152.18 93.46 L 151.30 93.14 C 150.47 92.83 149.55 93.26 149.24 94.10 C 148.94 94.93 149.37 95.85 150.20 96.16 Z M 151.05 96.46 L 152.01 96.84 C 152.84 97.16 153.77 96.75 154.09 95.93 C 154.41 95.10 154.01 94.17 153.18 93.85 L 152.22 93.47 C 151.39 93.15 150.46 93.56 150.14 94.38 C 149.81 95.21 150.22 96.14 151.05 96.46 Z M 151.98 96.83 L 152.92 97.22 C 153.74 97.56 154.68 97.17 155.02 96.36 C 155.36 95.54 154.97 94.60 154.16 94.25 L 153.21 93.86 C 152.39 93.52 151.45 93.91 151.11 94.72 C 150.77 95.54 151.16 96.48 151.98 96.83 Z M 152.89 97.20 L 153.79 97.61 C 154.60 97.97 155.55 97.60 155.91 96.79 C 156.27 95.98 155.91 95.03 155.10 94.67 L 154.19 94.27 C 153.38 93.91 152.43 94.27 152.07 95.09 C 151.71 95.90 152.07 96.85 152.89 97.20 Z M 153.76 97.59 L 154.68 98.02 C 155.48 98.40 156.44 98.06 156.82 97.25 C 157.19 96.45 156.85 95.49 156.05 95.12 L 155.13 94.69 C 154.32 94.31 153.37 94.65 152.99 95.46 C 152.61 96.26 152.96 97.22 153.76 97.59 Z M 154.65 98.01 L 155.55 98.46 C 156.34 98.85 157.31 98.52 157.70 97.73 C 158.09 96.94 157.77 95.97 156.98 95.58 L 156.08 95.13 C 155.28 94.74 154.32 95.06 153.92 95.86 C 153.53 96.65 153.85 97.62 154.65 98.01 Z M 155.52 98.44 L 156.41 98.91 C 157.19 99.32 158.16 99.02 158.57 98.23 C 158.99 97.45 158.68 96.48 157.90 96.06 L 157.01 95.60 C 156.22 95.18 155.25 95.49 154.84 96.27 C 154.43 97.06 154.73 98.03 155.52 98.44 Z M 156.37 98.88 L 157.24 99.37 C 158.01 99.81 158.99 99.53 159.42 98.76 C 159.86 97.99 159.58 97.01 158.81 96.57 L 157.94 96.09 C 157.17 95.65 156.19 95.93 155.75 96.70 C 155.32 97.47 155.59 98.45 156.37 98.88 Z M 157.19 99.35 L 158.06 99.87 C 158.81 100.33 159.80 100.09 160.26 99.33 C 160.72 98.57 160.48 97.58 159.72 97.12 L 158.85 96.60 C 158.10 96.14 157.11 96.38 156.65 97.14 C 156.19 97.90 156.43 98.89 157.19 99.35 Z M 158.02 99.85 L 158.86 100.38 C 159.60 100.86 160.59 100.65 161.07 99.90 C 161.55 99.15 161.33 98.16 160.59 97.68 L 159.75 97.15 C 159.01 96.67 158.01 96.88 157.54 97.63 C 157.06 98.38 157.27 99.37 158.02 99.85 Z M 158.84 100.37 L 159.66 100.91 C 160.40 101.40 161.39 101.20 161.88 100.46 C 162.37 99.72 162.17 98.73 161.43 98.24 L 160.61 97.69 C 159.87 97.20 158.87 97.41 158.38 98.15 C 157.89 98.89 158.10 99.88 158.84 100.37 Z M 159.64 100.90 L 160.46 101.46 C 161.19 101.96 162.19 101.77 162.69 101.04 C 163.19 100.30 163.00 99.30 162.27 98.81 L 161.45 98.25 C 160.71 97.75 159.71 97.94 159.22 98.67 C 158.72 99.41 158.91 100.41 159.64 100.90 Z M 160.44 101.44 L 161.26 102.03 C 161.98 102.54 162.99 102.37 163.50 101.65 C 164.01 100.92 163.84 99.92 163.12 99.41 L 162.29 98.82 C 161.57 98.31 160.57 98.48 160.05 99.21 C 159.54 99.93 159.71 100.93 160.44 101.44 Z M 161.23 102.00 L 162.04 102.61 C 162.75 103.14 163.76 103.00 164.29 102.29 C 164.82 101.58 164.67 100.57 163.96 100.04 L 163.15 99.43 C 162.44 98.90 161.43 99.05 160.90 99.76 C 160.37 100.47 160.52 101.47 161.23 102.00 Z M 162.01 102.59 L 162.81 103.21 C 163.50 103.76 164.51 103.64 165.06 102.94 C 165.61 102.25 165.49 101.24 164.79 100.69 L 164.00 100.06 C 163.30 99.52 162.29 99.64 161.74 100.34 C 161.19 101.03 161.31 102.04 162.01 102.59 Z M 162.78 103.19 L 163.54 103.82 C 164.22 104.38 165.23 104.29 165.80 103.60 C 166.36 102.92 166.27 101.91 165.58 101.34 L 164.82 100.71 C 164.14 100.15 163.13 100.25 162.56 100.93 C 162.00 101.61 162.09 102.62 162.78 103.19 Z M 163.50 103.79 L 164.27 104.47 C 164.94 105.05 165.95 104.98 166.54 104.32 C 167.12 103.65 167.06 102.64 166.39 102.05 L 165.62 101.38 C 164.95 100.79 163.94 100.86 163.35 101.52 C 162.77 102.19 162.83 103.20 163.50 103.79 Z M 164.23 104.43 L 164.94 105.10 C 165.59 105.70 166.61 105.67 167.21 105.02 C 167.82 104.37 167.79 103.36 167.14 102.75 L 166.43 102.09 C 165.78 101.48 164.77 101.52 164.16 102.16 C 163.55 102.81 163.59 103.82 164.23 104.43 Z M 164.91 105.06 L 165.60 105.75 C 166.23 106.38 167.24 106.37 167.87 105.75 C 168.49 105.12 168.49 104.10 167.87 103.48 L 167.17 102.79 C 166.55 102.16 165.53 102.16 164.90 102.79 C 164.28 103.42 164.28 104.43 164.91 105.06 Z M 165.55 105.70 L 166.23 106.44 C 166.83 107.09 167.85 107.12 168.50 106.52 C 169.15 105.92 169.19 104.90 168.59 104.25 L 167.91 103.52 C 167.31 102.87 166.29 102.83 165.64 103.44 C 164.99 104.04 164.95 105.05 165.55 105.70 Z M 166.18 106.38 L 166.82 107.14 C 167.39 107.82 168.41 107.91 169.09 107.34 C 169.76 106.77 169.85 105.76 169.28 105.08 L 168.64 104.31 C 168.07 103.63 167.06 103.55 166.38 104.11 C 165.70 104.68 165.61 105.70 166.18 106.38 Z M 166.77 107.08 L 167.38 107.88 C 167.91 108.59 168.92 108.73 169.63 108.19 C 170.33 107.66 170.47 106.65 169.94 105.94 L 169.34 105.15 C 168.80 104.44 167.79 104.30 167.09 104.83 C 166.38 105.37 166.24 106.37 166.77 107.08 Z M 167.33 107.81 L 167.90 108.65 C 168.39 109.38 169.39 109.58 170.13 109.08 C 170.86 108.58 171.05 107.58 170.55 106.85 L 169.99 106.01 C 169.49 105.28 168.49 105.09 167.76 105.58 C 167.02 106.08 166.83 107.08 167.33 107.81 Z M 167.85 108.57 L 168.33 109.37 C 168.78 110.13 169.77 110.38 170.53 109.92 C 171.29 109.47 171.53 108.48 171.08 107.72 L 170.60 106.93 C 170.15 106.16 169.16 105.92 168.40 106.37 C 167.64 106.83 167.39 107.81 167.85 108.57 Z M 168.28 109.30 L 168.75 110.17 C 169.16 110.96 170.13 111.26 170.91 110.84 C 171.70 110.43 172.00 109.46 171.58 108.67 L 171.12 107.80 C 170.71 107.01 169.74 106.72 168.95 107.13 C 168.17 107.54 167.87 108.51 168.28 109.30 Z M 168.72 110.11 L 169.18 111.08 C 169.56 111.88 170.52 112.22 171.32 111.84 C 172.11 111.46 172.45 110.50 172.07 109.70 L 171.61 108.73 C 171.23 107.93 170.28 107.59 169.48 107.97 C 168.68 108.36 168.34 109.31 168.72 110.11 Z M 169.16 111.04 L 169.57 111.97 C 169.93 112.78 170.88 113.14 171.69 112.78 C 172.50 112.42 172.86 111.47 172.50 110.66 L 172.09 109.73 C 171.73 108.93 170.78 108.56 169.97 108.92 C 169.16 109.28 168.80 110.23 169.16 111.04 Z M 169.56 111.94 L 169.97 112.90 C 170.32 113.71 171.26 114.09 172.07 113.74 C 172.89 113.39 173.27 112.45 172.92 111.64 L 172.51 110.68 C 172.17 109.87 171.22 109.49 170.41 109.84 C 169.59 110.19 169.22 111.13 169.56 111.94 Z M 169.96 112.87 L 170.33 113.77 C 170.67 114.59 171.60 114.99 172.42 114.65 C 173.24 114.31 173.63 113.38 173.30 112.56 L 172.93 111.66 C 172.59 110.84 171.66 110.45 170.84 110.78 C 170.02 111.12 169.63 112.06 169.96 112.87 Z M 170.32 113.74 L 170.72 114.78 C 171.04 115.61 171.96 116.02 172.79 115.70 C 173.62 115.38 174.03 114.46 173.71 113.63 L 173.31 112.59 C 172.99 111.76 172.06 111.35 171.24 111.67 C 170.41 111.99 170.00 112.92 170.32 113.74 Z M 170.70 114.73 L 171.01 115.62 C 171.30 116.46 172.21 116.90 173.05 116.61 C 173.88 116.33 174.33 115.41 174.04 114.58 L 173.73 113.68 C 173.44 112.85 172.53 112.40 171.69 112.69 C 170.85 112.98 170.41 113.89 170.70 114.73 Z M 170.99 115.56 L 171.25 116.44 C 171.50 117.29 172.39 117.77 173.24 117.52 C 174.09 117.27 174.58 116.38 174.32 115.53 L 174.06 114.64 C 173.81 113.79 172.91 113.31 172.07 113.56 C 171.22 113.81 170.73 114.71 170.99 115.56 Z M 171.23 116.36 L 171.46 117.33 C 171.67 118.19 172.54 118.71 173.40 118.51 C 174.26 118.30 174.79 117.43 174.58 116.57 L 174.34 115.61 C 174.14 114.75 173.27 114.22 172.41 114.43 C 171.55 114.64 171.02 115.50 171.23 116.36 Z M 171.44 117.24 L 171.63 118.22 C 171.79 119.09 172.63 119.66 173.50 119.50 C 174.37 119.34 174.94 118.50 174.78 117.63 L 174.60 116.65 C 174.43 115.78 173.60 115.21 172.73 115.37 C 171.85 115.53 171.28 116.37 171.44 117.24 Z M 171.61 118.15 L 171.76 119.14 C 171.88 120.01 172.69 120.62 173.57 120.50 C 174.45 120.37 175.06 119.56 174.93 118.68 L 174.79 117.70 C 174.66 116.82 173.85 116.21 172.98 116.34 C 172.10 116.46 171.49 117.27 171.61 118.15 Z M 171.75 119.08 L 171.86 120.08 C 171.95 120.96 172.74 121.60 173.62 121.50 C 174.50 121.41 175.14 120.61 175.04 119.73 L 174.94 118.74 C 174.84 117.86 174.05 117.22 173.17 117.32 C 172.29 117.41 171.65 118.20 171.75 119.08 Z M 171.85 120.03 L 171.92 120.95 C 171.99 121.83 172.76 122.49 173.64 122.42 C 174.53 122.36 175.19 121.59 175.12 120.70 L 175.05 119.78 C 174.98 118.90 174.21 118.24 173.33 118.31 C 172.44 118.38 171.78 119.15 171.85 120.03 Z M 171.92 120.90 L 171.97 121.93 C 172.01 122.82 172.76 123.50 173.64 123.46 C 174.53 123.42 175.21 122.67 175.17 121.78 L 175.12 120.75 C 175.08 119.87 174.33 119.18 173.45 119.22 C 172.56 119.26 171.88 120.02 171.92 120.90 Z M 171.97 121.89 L 171.99 122.93 C 172.01 123.82 172.75 124.52 173.63 124.50 C 174.52 124.48 175.22 123.74 175.20 122.86 L 175.17 121.82 C 175.15 120.93 174.42 120.23 173.53 120.25 C 172.65 120.27 171.95 121.01 171.97 121.89 Z M 171.99 122.91 L 172.00 123.93 C 172.01 124.81 172.73 125.52 173.62 125.52 C 174.51 125.51 175.22 124.78 175.21 123.90 L 175.20 122.88 C 175.19 122.00 174.46 121.29 173.58 121.29 C 172.69 121.30 171.98 122.03 171.99 122.91 Z M 172.00 123.92 L 172.00 124.95 C 172.01 125.84 172.73 126.55 173.61 126.55 C 174.50 126.54 175.21 125.82 175.21 124.94 L 175.21 123.91 C 175.20 123.02 174.48 122.31 173.60 122.31 C 172.71 122.31 172.00 123.03 172.00 123.92 Z M 172.00 124.94 L 172.00 125.95 C 172.00 126.83 172.72 127.55 173.61 127.55 C 174.49 127.55 175.21 126.83 175.21 125.94 L 175.21 124.94 C 175.21 124.06 174.49 123.34 173.61 123.34 C 172.72 123.34 172.00 124.06 172.00 124.94 Z M 172.00 125.94 L 172.00 127.05 C 171.99 127.93 172.71 128.66 173.59 128.66 C 174.48 128.67 175.20 127.95 175.20 127.07 L 175.21 125.95 C 175.22 125.07 174.50 124.35 173.62 124.34 C 172.73 124.34 172.01 125.05 172.00 125.94 Z M 172.00 126.99 L 171.96 127.94 C 171.92 128.82 172.61 129.57 173.50 129.61 C 174.38 129.64 175.13 128.95 175.17 128.07 L 175.20 127.12 C 175.24 126.24 174.55 125.49 173.67 125.45 C 172.78 125.42 172.03 126.11 172.00 126.99 Z M 171.97 127.80 L 171.86 128.70 C 171.75 129.58 172.37 130.39 173.25 130.50 C 174.13 130.61 174.93 129.98 175.04 129.10 L 175.16 128.20 C 175.27 127.32 174.64 126.52 173.76 126.41 C 172.88 126.30 172.08 126.92 171.97 127.80 Z M 171.90 128.49 L 171.65 129.42 C 171.42 130.27 171.92 131.15 172.78 131.39 C 173.64 131.62 174.52 131.11 174.75 130.25 L 175.00 129.32 C 175.23 128.47 174.72 127.59 173.87 127.35 C 173.01 127.12 172.13 127.63 171.90 128.49 Z M 171.72 129.21 L 171.32 130.15 C 170.98 130.96 171.36 131.91 172.18 132.25 C 173.00 132.60 173.94 132.21 174.28 131.40 L 174.68 130.46 C 175.02 129.64 174.64 128.70 173.82 128.36 C 173.01 128.01 172.06 128.39 171.72 129.21 Z M 171.38 130.02 L 170.93 130.88 C 170.52 131.66 170.82 132.63 171.61 133.05 C 172.39 133.46 173.36 133.16 173.78 132.37 L 174.22 131.52 C 174.64 130.74 174.34 129.76 173.55 129.35 C 172.77 128.94 171.80 129.24 171.38 130.02 Z M 170.99 130.78 L 170.44 131.66 C 169.98 132.42 170.21 133.41 170.97 133.87 C 171.73 134.34 172.71 134.10 173.18 133.35 L 173.72 132.47 C 174.19 131.71 173.95 130.72 173.20 130.26 C 172.44 129.79 171.45 130.03 170.99 130.78 Z M 170.51 131.57 L 169.91 132.40 C 169.39 133.12 169.56 134.12 170.28 134.64 C 171.00 135.16 172.00 134.99 172.52 134.27 L 173.12 133.44 C 173.63 132.72 173.47 131.72 172.75 131.20 C 172.03 130.68 171.02 130.85 170.51 131.57 Z M 169.99 132.30 L 169.36 133.05 C 168.79 133.73 168.87 134.75 169.55 135.32 C 170.23 135.89 171.25 135.80 171.82 135.12 L 172.45 134.37 C 173.02 133.69 172.93 132.68 172.25 132.11 C 171.57 131.53 170.56 131.62 169.99 132.30 Z M 169.43 132.97 L 168.74 133.69 C 168.12 134.32 168.13 135.34 168.77 135.96 C 169.41 136.58 170.42 136.56 171.04 135.92 L 171.74 135.20 C 172.36 134.57 172.34 133.55 171.71 132.93 C 171.07 132.31 170.05 132.33 169.43 132.97 Z M 168.81 133.62 L 168.05 134.30 C 167.39 134.90 167.34 135.92 167.94 136.57 C 168.54 137.23 169.55 137.28 170.21 136.68 L 170.97 135.99 C 171.63 135.40 171.68 134.38 171.08 133.73 C 170.48 133.07 169.47 133.02 168.81 133.62 Z M 168.11 134.25 L 167.33 134.89 C 166.64 135.45 166.54 136.47 167.10 137.15 C 167.66 137.84 168.67 137.94 169.36 137.38 L 170.15 136.74 C 170.83 136.18 170.94 135.16 170.37 134.48 C 169.81 133.79 168.80 133.69 168.11 134.25 Z M 167.39 134.85 L 166.57 135.45 C 165.86 135.98 165.71 136.99 166.24 137.70 C 166.77 138.41 167.77 138.56 168.49 138.03 L 169.30 137.43 C 170.01 136.90 170.16 135.89 169.64 135.18 C 169.11 134.47 168.10 134.32 167.39 134.85 Z M 166.64 135.40 L 165.82 135.95 C 165.08 136.44 164.88 137.44 165.38 138.18 C 165.87 138.91 166.87 139.11 167.61 138.62 L 168.42 138.08 C 169.16 137.59 169.36 136.59 168.87 135.85 C 168.37 135.11 167.38 134.91 166.64 135.40 Z M 165.91 135.89 L 164.95 136.45 C 164.18 136.89 163.92 137.88 164.36 138.65 C 164.81 139.41 165.79 139.68 166.56 139.23 L 167.52 138.68 C 168.29 138.23 168.55 137.25 168.10 136.48 C 167.66 135.71 166.68 135.45 165.91 135.89 Z M 165.04 136.40 L 164.17 136.83 C 163.38 137.23 163.05 138.20 163.45 138.99 C 163.85 139.78 164.81 140.11 165.61 139.71 L 166.47 139.28 C 167.27 138.88 167.59 137.92 167.19 137.12 C 166.79 136.33 165.83 136.01 165.04 136.40 Z M 164.24 136.80 L 163.35 137.19 C 162.54 137.55 162.17 138.50 162.53 139.31 C 162.89 140.12 163.84 140.49 164.65 140.13 L 165.54 139.74 C 166.35 139.39 166.72 138.44 166.36 137.62 C 166.00 136.81 165.05 136.44 164.24 136.80 Z M 163.42 137.17 L 162.51 137.52 C 161.68 137.84 161.27 138.78 161.60 139.60 C 161.92 140.43 162.85 140.84 163.68 140.52 L 164.58 140.16 C 165.41 139.84 165.82 138.91 165.50 138.08 C 165.17 137.25 164.24 136.84 163.42 137.17 Z M 162.56 137.50 L 161.66 137.82 C 160.82 138.12 160.38 139.04 160.68 139.88 C 160.98 140.71 161.90 141.15 162.73 140.85 L 163.63 140.53 C 164.47 140.23 164.91 139.32 164.61 138.48 C 164.31 137.64 163.39 137.21 162.56 137.50 Z M 161.69 137.81 L 160.72 138.13 C 159.88 138.41 159.43 139.32 159.71 140.16 C 159.99 141.01 160.90 141.46 161.74 141.18 L 162.70 140.86 C 163.54 140.58 164.00 139.67 163.72 138.83 C 163.44 137.99 162.53 137.53 161.69 137.81 Z M 160.76 138.12 L 159.83 138.41 C 158.98 138.67 158.50 139.57 158.76 140.42 C 159.03 141.27 159.93 141.74 160.77 141.48 L 161.70 141.19 C 162.55 140.93 163.03 140.03 162.77 139.18 C 162.51 138.34 161.61 137.86 160.76 138.12 Z M 159.85 138.40 L 158.87 138.69 C 158.01 138.94 157.52 139.83 157.77 140.68 C 158.02 141.53 158.91 142.02 159.76 141.78 L 160.75 141.49 C 161.60 141.24 162.09 140.35 161.84 139.50 C 161.60 138.64 160.70 138.15 159.85 138.40 Z M 158.89 138.68 L 157.92 138.95 C 157.06 139.19 156.56 140.07 156.80 140.93 C 157.03 141.78 157.92 142.29 158.77 142.05 L 159.74 141.78 C 160.60 141.54 161.10 140.66 160.87 139.80 C 160.63 138.95 159.74 138.44 158.89 138.68 Z M 157.95 138.94 L 156.98 139.19 C 156.12 139.41 155.60 140.29 155.82 141.15 C 156.04 142.01 156.91 142.53 157.78 142.31 L 158.74 142.06 C 159.61 141.84 160.12 140.96 159.90 140.10 C 159.68 139.24 158.81 138.72 157.95 138.94 Z M 157.02 139.18 L 156.04 139.40 C 155.17 139.60 154.63 140.47 154.83 141.33 C 155.03 142.20 155.89 142.74 156.76 142.54 L 157.74 142.32 C 158.60 142.12 159.14 141.25 158.94 140.39 C 158.75 139.52 157.88 138.98 157.02 139.18 Z M 156.06 139.40 L 155.10 139.60 C 154.23 139.79 153.67 140.64 153.86 141.51 C 154.04 142.38 154.90 142.94 155.77 142.75 L 156.73 142.55 C 157.60 142.36 158.16 141.51 157.97 140.64 C 157.79 139.77 156.93 139.21 156.06 139.40 Z M 155.12 139.60 L 154.14 139.79 C 153.27 139.97 152.70 140.81 152.88 141.69 C 153.05 142.56 153.90 143.12 154.77 142.95 L 155.75 142.76 C 156.62 142.58 157.19 141.74 157.01 140.86 C 156.84 139.99 155.99 139.43 155.12 139.60 Z M 154.19 139.78 L 153.20 139.95 C 152.32 140.09 151.73 140.92 151.87 141.80 C 152.02 142.68 152.85 143.27 153.73 143.13 L 154.72 142.96 C 155.60 142.82 156.19 141.99 156.04 141.11 C 155.90 140.23 155.07 139.64 154.19 139.78 Z M 153.24 139.94 L 152.25 140.08 C 151.37 140.20 150.75 141.02 150.87 141.90 C 151.00 142.78 151.81 143.39 152.69 143.27 L 153.68 143.13 C 154.57 143.01 155.18 142.20 155.06 141.31 C 154.93 140.43 154.12 139.82 153.24 139.94 Z M 152.24 140.08 L 151.25 140.23 C 150.37 140.35 149.76 141.17 149.89 142.05 C 150.02 142.93 150.83 143.54 151.71 143.41 L 152.70 143.27 C 153.58 143.14 154.19 142.32 154.06 141.44 C 153.94 140.56 153.12 139.95 152.24 140.08 Z M 151.23 140.22 L 150.24 140.38 C 149.36 140.52 148.76 141.35 148.90 142.23 C 149.04 143.11 149.87 143.71 150.75 143.57 L 151.73 143.42 C 152.61 143.28 153.21 142.45 153.08 141.57 C 152.94 140.69 152.11 140.09 151.23 140.22 Z M 150.27 140.37 L 149.29 140.51 C 148.41 140.64 147.79 141.46 147.92 142.34 C 148.05 143.23 148.87 143.84 149.75 143.72 L 150.72 143.58 C 151.61 143.45 152.22 142.63 152.10 141.75 C 151.97 140.86 151.15 140.25 150.27 140.37 Z M 149.33 140.51 L 148.33 140.63 C 147.44 140.74 146.81 141.55 146.92 142.43 C 147.03 143.32 147.84 143.95 148.72 143.84 L 149.72 143.72 C 150.61 143.61 151.24 142.80 151.13 141.92 C 151.02 141.03 150.21 140.40 149.33 140.51 Z M 148.35 140.63 L 147.34 140.74 C 146.45 140.84 145.81 141.64 145.91 142.53 C 146.00 143.42 146.80 144.06 147.69 143.96 L 148.71 143.85 C 149.59 143.75 150.23 142.95 150.14 142.06 C 150.04 141.17 149.24 140.53 148.35 140.63 Z M 147.36 140.74 L 146.35 140.83 C 145.46 140.92 144.81 141.71 144.90 142.60 C 144.98 143.49 145.78 144.15 146.67 144.06 L 147.67 143.96 C 148.56 143.87 149.21 143.08 149.13 142.19 C 149.04 141.30 148.25 140.65 147.36 140.74 Z M 146.39 140.83 L 145.38 140.90 C 144.49 140.97 143.81 141.74 143.88 142.64 C 143.94 143.53 144.72 144.20 145.61 144.14 L 146.63 144.06 C 147.52 144.00 148.19 143.22 148.13 142.33 C 148.06 141.44 147.29 140.77 146.39 140.83 Z M 145.43 140.90 L 144.45 140.94 C 143.55 140.97 142.86 141.73 142.89 142.62 C 142.93 143.52 143.68 144.21 144.57 144.18 L 145.56 144.14 C 146.45 144.10 147.15 143.35 147.11 142.46 C 147.08 141.56 146.32 140.87 145.43 140.90 Z M 144.49 140.94 L 143.50 140.95 C 142.60 140.97 141.89 141.70 141.90 142.60 C 141.91 143.49 142.65 144.21 143.55 144.19 L 144.53 144.18 C 145.43 144.17 146.14 143.43 146.13 142.53 C 146.12 141.64 145.38 140.92 144.49 140.94 Z M 143.52 140.95 L 142.52 140.95 C 141.63 140.96 140.90 141.68 140.91 142.58 C 140.91 143.47 141.63 144.20 142.53 144.20 L 143.53 144.19 C 144.42 144.19 145.14 143.46 145.14 142.57 C 145.14 141.67 144.41 140.95 143.52 140.95 Z M 142.53 140.95 L 141.52 140.95 C 140.63 140.95 139.90 141.68 139.90 142.58 C 139.90 143.47 140.63 144.20 141.52 144.20 L 142.53 144.20 C 143.42 144.20 144.15 143.47 144.15 142.58 C 144.15 141.68 143.42 140.95 142.53 140.95 Z M 141.52 140.95 L 140.52 140.95 C 139.62 140.95 138.90 141.68 138.90 142.57 C 138.90 143.47 139.62 144.20 140.52 144.20 L 141.52 144.20 C 142.42 144.20 143.14 143.47 143.15 142.58 C 143.15 141.68 142.42 140.95 141.52 140.95 Z M 140.56 140.95 L 139.56 140.93 C 138.67 140.90 137.92 141.61 137.90 142.51 C 137.87 143.41 138.58 144.15 139.48 144.17 L 140.48 144.20 C 141.38 144.22 142.12 143.51 142.14 142.62 C 142.17 141.72 141.46 140.97 140.56 140.95 Z M 139.71 140.94 L 138.80 140.83 C 137.91 140.73 137.11 141.37 137.00 142.26 C 136.90 143.15 137.54 143.96 138.43 144.06 L 139.33 144.16 C 140.23 144.27 141.03 143.63 141.13 142.74 C 141.24 141.85 140.60 141.04 139.71 140.94 Z M 139.03 140.87 L 138.02 140.61 C 137.15 140.38 136.26 140.90 136.04 141.77 C 135.81 142.64 136.33 143.53 137.20 143.75 L 138.21 144.02 C 139.07 144.24 139.96 143.72 140.19 142.86 C 140.41 141.99 139.89 141.10 139.03 140.87 Z M 138.17 140.66 L 137.27 140.32 C 136.42 140.01 135.49 140.44 135.18 141.28 C 134.87 142.12 135.29 143.06 136.14 143.37 L 137.04 143.70 C 137.88 144.02 138.82 143.59 139.13 142.75 C 139.44 141.91 139.01 140.97 138.17 140.66 Z M 137.38 140.37 L 136.45 139.94 C 135.64 139.57 134.67 139.92 134.30 140.74 C 133.92 141.55 134.28 142.52 135.09 142.89 L 136.02 143.32 C 136.84 143.70 137.80 143.34 138.18 142.53 C 138.55 141.71 138.20 140.75 137.38 140.37 Z M 136.59 140.02 L 135.69 139.48 C 134.91 139.03 133.92 139.29 133.46 140.06 C 133.01 140.84 133.27 141.83 134.04 142.29 L 134.95 142.82 C 135.73 143.27 136.72 143.01 137.17 142.24 C 137.63 141.47 137.37 140.47 136.59 140.02 Z M 135.87 139.61 L 135.01 138.94 C 134.31 138.38 133.29 138.51 132.73 139.21 C 132.18 139.92 132.30 140.94 133.01 141.50 L 133.86 142.16 C 134.57 142.72 135.59 142.59 136.14 141.89 C 136.70 141.18 136.57 140.16 135.87 139.61 Z M 135.17 139.08 L 134.48 138.38 C 133.85 137.74 132.82 137.73 132.18 138.36 C 131.54 138.99 131.53 140.02 132.16 140.66 L 132.85 141.36 C 133.49 142.00 134.51 142.00 135.15 141.37 C 135.79 140.74 135.80 139.71 135.17 139.08 Z M 134.61 138.53 L 134.01 137.75 C 133.46 137.04 132.44 136.91 131.73 137.45 C 131.02 138.00 130.89 139.02 131.44 139.73 L 132.03 140.51 C 132.58 141.22 133.60 141.35 134.31 140.80 C 135.02 140.26 135.16 139.24 134.61 138.53 Z M 134.15 137.96 L 133.68 137.11 C 133.25 136.32 132.26 136.04 131.47 136.47 C 130.69 136.90 130.40 137.89 130.83 138.68 L 131.30 139.52 C 131.73 140.31 132.72 140.60 133.51 140.16 C 134.29 139.73 134.58 138.74 134.15 137.96 Z M 133.76 137.27 L 133.40 136.40 C 133.05 135.58 132.10 135.18 131.27 135.53 C 130.45 135.87 130.05 136.82 130.40 137.65 L 130.76 138.51 C 131.10 139.34 132.05 139.74 132.88 139.39 C 133.71 139.05 134.10 138.10 133.76 137.27 Z M 133.42 136.47 L 133.07 135.51 C 132.76 134.67 131.83 134.23 130.99 134.54 C 130.15 134.85 129.71 135.78 130.02 136.62 L 130.37 137.58 C 130.68 138.42 131.61 138.86 132.45 138.55 C 133.29 138.24 133.73 137.31 133.42 136.47 Z M 133.08 135.54 L 132.76 134.60 C 132.47 133.75 131.55 133.30 130.70 133.59 C 129.86 133.88 129.40 134.80 129.69 135.64 L 130.01 136.59 C 130.30 137.43 131.22 137.89 132.07 137.60 C 132.91 137.31 133.37 136.39 133.08 135.54 Z M 132.78 134.65 L 132.48 133.68 C 132.22 132.82 131.32 132.34 130.46 132.60 C 129.60 132.86 129.12 133.77 129.38 134.62 L 129.67 135.59 C 129.93 136.45 130.84 136.93 131.70 136.67 C 132.55 136.41 133.04 135.51 132.78 134.65 Z M 132.50 133.77 L 132.27 132.79 C 132.05 131.93 131.18 131.39 130.31 131.61 C 129.44 131.82 128.91 132.70 129.12 133.57 L 129.36 134.54 C 129.57 135.41 130.45 135.94 131.32 135.73 C 132.19 135.51 132.72 134.63 132.50 133.77 Z M 132.28 132.88 L 132.10 131.90 C 131.93 131.02 131.08 130.44 130.20 130.61 C 129.32 130.78 128.75 131.63 128.91 132.51 L 129.10 133.49 C 129.27 134.36 130.12 134.94 131.00 134.77 C 131.88 134.60 132.45 133.75 132.28 132.88 Z M 132.10 131.95 L 131.95 130.97 C 131.81 130.08 130.98 129.48 130.10 129.62 C 129.21 129.76 128.61 130.59 128.75 131.47 L 128.91 132.45 C 129.05 133.34 129.88 133.94 130.76 133.80 C 131.64 133.66 132.24 132.83 132.10 131.95 Z M 131.95 130.99 L 131.81 130.00 C 131.69 129.12 130.87 128.50 129.98 128.63 C 129.10 128.75 128.48 129.57 128.61 130.46 L 128.75 131.45 C 128.87 132.33 129.69 132.95 130.58 132.82 C 131.46 132.70 132.08 131.88 131.95 130.99 Z M 131.81 130.02 L 131.68 129.01 C 131.56 128.13 130.75 127.50 129.86 127.62 C 128.98 127.74 128.35 128.56 128.47 129.44 L 128.61 130.44 C 128.72 131.33 129.54 131.95 130.42 131.83 C 131.31 131.72 131.93 130.90 131.81 130.02 Z M 131.68 129.02 L 131.55 128.03 C 131.44 127.14 130.63 126.52 129.74 126.63 C 128.85 126.75 128.23 127.56 128.34 128.45 L 128.47 129.43 C 128.59 130.32 129.40 130.95 130.28 130.83 C 131.17 130.72 131.79 129.90 131.68 129.02 Z M 131.55 128.04 L 131.43 127.05 C 131.33 126.16 130.52 125.53 129.63 125.64 C 128.75 125.74 128.12 126.55 128.22 127.43 L 128.34 128.43 C 128.45 129.32 129.25 129.95 130.14 129.84 C 131.03 129.74 131.66 128.93 131.55 128.04 Z M 131.43 127.07 L 131.33 126.07 C 131.23 125.19 130.44 124.54 129.55 124.64 C 128.66 124.73 128.02 125.53 128.11 126.42 L 128.22 127.41 C 128.31 128.30 129.11 128.94 130.00 128.85 C 130.89 128.75 131.53 127.96 131.43 127.07 Z M 131.33 126.09 L 131.23 125.09 C 131.15 124.21 130.36 123.56 129.47 123.64 C 128.58 123.73 127.93 124.52 128.02 125.41 L 128.11 126.40 C 128.20 127.29 128.99 127.94 129.88 127.85 C 130.77 127.77 131.42 126.98 131.33 126.09 Z M 131.23 125.10 L 131.14 124.11 C 131.05 123.22 130.26 122.57 129.38 122.65 C 128.49 122.74 127.84 123.53 127.92 124.42 L 128.02 125.40 C 128.10 126.29 128.89 126.94 129.78 126.86 C 130.67 126.77 131.32 125.99 131.23 125.10 Z M 131.14 124.11 L 131.04 123.12 C 130.96 122.23 130.17 121.58 129.29 121.66 C 128.40 121.75 127.75 122.54 127.83 123.42 L 127.92 124.41 C 128.00 125.30 128.79 125.95 129.68 125.87 C 130.57 125.79 131.22 125.00 131.14 124.11 Z M 131.05 123.14 L 130.96 122.13 C 130.89 121.24 130.10 120.58 129.22 120.65 C 128.33 120.73 127.67 121.51 127.74 122.40 L 127.83 123.41 C 127.90 124.30 128.68 124.96 129.57 124.88 C 130.46 124.81 131.12 124.03 131.05 123.14 Z M 130.96 122.15 L 130.89 121.13 C 130.83 120.24 130.06 119.57 129.17 119.63 C 128.28 119.69 127.61 120.46 127.67 121.35 L 127.74 122.37 C 127.80 123.26 128.57 123.93 129.46 123.87 C 130.35 123.81 131.02 123.04 130.96 122.15 Z M 130.89 121.15 L 130.83 120.15 C 130.78 119.26 130.02 118.58 129.13 118.63 C 128.24 118.68 127.56 119.44 127.61 120.33 L 127.67 121.33 C 127.72 122.22 128.48 122.90 129.37 122.85 C 130.26 122.80 130.94 122.04 130.89 121.15 Z M 130.83 120.16 L 130.79 119.20 C 130.74 118.31 129.99 117.62 129.10 117.67 C 128.21 117.71 127.52 118.47 127.57 119.36 L 127.61 120.32 C 127.66 121.21 128.41 121.90 129.30 121.85 C 130.19 121.81 130.88 121.05 130.83 120.16 Z M 130.79 119.21 L 130.75 118.24 C 130.71 117.35 129.95 116.66 129.06 116.70 C 128.17 116.74 127.48 117.49 127.52 118.38 L 127.57 119.35 C 127.60 120.24 128.36 120.93 129.25 120.89 C 130.14 120.85 130.83 120.10 130.79 119.21 Z M 130.75 118.24 L 130.70 117.24 C 130.66 116.35 129.91 115.66 129.02 115.70 C 128.13 115.74 127.44 116.50 127.48 117.39 L 127.52 118.38 C 127.56 119.27 128.32 119.96 129.21 119.92 C 130.10 119.88 130.79 119.13 130.75 118.24 Z M 130.70 117.24 L 130.66 116.30 C 130.61 115.41 129.86 114.72 128.97 114.77 C 128.08 114.81 127.39 115.56 127.43 116.45 L 127.48 117.39 C 127.52 118.28 128.28 118.97 129.17 118.92 C 130.06 118.88 130.74 118.13 130.70 117.24 Z M 130.66 116.31 L 130.61 115.27 C 130.57 114.38 129.82 113.69 128.93 113.73 C 128.04 113.77 127.35 114.52 127.39 115.41 L 127.43 116.45 C 127.47 117.34 128.23 118.03 129.12 117.99 C 130.01 117.95 130.70 117.20 130.66 116.31 Z M 130.61 115.28 L 130.57 114.20 C 130.54 113.31 129.79 112.62 128.90 112.65 C 128.01 112.69 127.31 113.43 127.35 114.32 L 127.39 115.40 C 127.42 116.29 128.17 116.99 129.06 116.96 C 129.95 116.92 130.64 116.17 130.61 115.28 Z M 130.57 114.22 L 130.54 113.18 C 130.52 112.29 129.77 111.58 128.88 111.61 C 127.99 111.64 127.29 112.38 127.32 113.27 L 127.35 114.31 C 127.37 115.20 128.11 115.90 129.00 115.88 C 129.90 115.85 130.60 115.11 130.57 114.22 Z M 130.54 113.19 L 130.52 112.17 C 130.50 111.28 129.76 110.57 128.87 110.59 C 127.98 110.61 127.27 111.35 127.29 112.24 L 127.31 113.26 C 127.33 114.15 128.07 114.86 128.96 114.84 C 129.86 114.82 130.56 114.08 130.54 113.19 Z M 130.52 112.18 L 130.51 111.24 C 130.49 110.35 129.76 109.64 128.87 109.65 C 127.97 109.67 127.26 110.40 127.28 111.30 L 127.29 112.23 C 127.31 113.12 128.04 113.84 128.93 113.82 C 129.82 113.81 130.54 113.07 130.52 112.18 Z M 130.51 111.26 L 130.50 110.16 C 130.50 109.27 129.77 108.55 128.88 108.55 C 127.98 108.56 127.26 109.29 127.27 110.18 L 127.27 111.28 C 127.28 112.17 128.01 112.89 128.90 112.89 C 129.79 112.88 130.51 112.15 130.51 111.26 Z M 130.50 110.21 L 130.53 109.27 C 130.55 108.37 129.84 107.63 128.95 107.61 C 128.05 107.58 127.31 108.29 127.29 109.19 L 127.27 110.13 C 127.24 111.03 127.95 111.77 128.85 111.79 C 129.74 111.81 130.48 111.11 130.50 110.21 Z M 130.52 109.37 L 130.61 108.43 C 130.68 107.53 130.02 106.75 129.13 106.67 C 128.24 106.59 127.45 107.26 127.37 108.15 L 127.29 109.09 C 127.21 109.98 127.88 110.77 128.77 110.84 C 129.66 110.92 130.45 110.26 130.52 109.37 Z M 130.58 108.62 L 130.78 107.65 C 130.96 106.77 130.40 105.91 129.52 105.73 C 128.65 105.55 127.78 106.11 127.60 106.99 L 127.40 107.96 C 127.22 108.83 127.78 109.69 128.66 109.88 C 129.53 110.06 130.40 109.50 130.58 108.62 Z M 130.70 107.92 L 131.07 107.00 C 131.40 106.17 131.00 105.22 130.16 104.89 C 129.33 104.56 128.38 104.96 128.05 105.80 L 127.68 106.72 C 127.35 107.55 127.76 108.50 128.59 108.83 C 129.42 109.16 130.37 108.76 130.70 107.92 Z M 130.97 107.21 L 131.47 106.34 C 131.91 105.56 131.64 104.57 130.87 104.12 C 130.09 103.67 129.09 103.94 128.64 104.72 L 128.15 105.59 C 127.70 106.37 127.97 107.36 128.75 107.81 C 129.53 108.26 130.52 107.99 130.97 107.21 Z M 131.40 106.46 L 131.98 105.61 C 132.49 104.87 132.30 103.86 131.56 103.35 C 130.82 102.84 129.81 103.02 129.30 103.76 L 128.72 104.61 C 128.21 105.35 128.39 106.36 129.13 106.87 C 129.87 107.38 130.88 107.20 131.40 106.46 Z M 131.93 105.68 L 132.52 104.91 C 133.07 104.20 132.94 103.17 132.23 102.63 C 131.52 102.08 130.49 102.21 129.94 102.92 L 129.35 103.69 C 128.80 104.41 128.93 105.43 129.64 105.98 C 130.36 106.53 131.38 106.40 131.93 105.68 Z M 132.49 104.96 L 133.13 104.19 C 133.70 103.49 133.61 102.47 132.91 101.89 C 132.22 101.32 131.20 101.41 130.62 102.10 L 129.98 102.87 C 129.41 103.57 129.50 104.59 130.19 105.17 C 130.89 105.74 131.91 105.65 132.49 104.96 Z M 133.11 104.21 L 133.79 103.42 C 134.38 102.74 134.30 101.71 133.62 101.13 C 132.94 100.54 131.91 100.61 131.32 101.29 L 130.64 102.08 C 130.05 102.76 130.13 103.79 130.81 104.38 C 131.49 104.97 132.52 104.89 133.11 104.21 Z M 133.77 103.44 L 134.46 102.66 C 135.06 101.99 135.00 100.96 134.33 100.36 C 133.65 99.76 132.62 99.82 132.02 100.50 L 131.33 101.28 C 130.74 101.95 130.80 102.98 131.47 103.58 C 132.15 104.18 133.18 104.11 133.77 103.44 Z M 134.45 102.68 L 135.10 101.98 C 135.71 101.31 135.66 100.28 135.00 99.67 C 134.33 99.06 133.30 99.10 132.69 99.77 L 132.04 100.48 C 131.43 101.14 131.48 102.17 132.14 102.78 C 132.81 103.39 133.84 103.35 134.45 102.68 Z M 135.06 102.02 L 135.80 101.26 C 136.44 100.61 136.43 99.58 135.78 98.95 C 135.14 98.32 134.10 98.33 133.47 98.97 L 132.73 99.73 C 132.10 100.37 132.11 101.41 132.75 102.04 C 133.40 102.67 134.43 102.66 135.06 102.02 Z M 135.75 101.31 L 136.42 100.68 C 137.08 100.07 137.12 99.03 136.50 98.37 C 135.89 97.71 134.86 97.68 134.20 98.29 L 133.52 98.92 C 132.86 99.53 132.83 100.57 133.44 101.23 C 134.06 101.89 135.09 101.92 135.75 101.31 Z M 136.39 100.71 L 137.13 100.06 C 137.81 99.46 137.87 98.43 137.27 97.75 C 136.67 97.07 135.64 97.01 134.96 97.61 L 134.23 98.26 C 133.55 98.86 133.49 99.90 134.09 100.57 C 134.69 101.25 135.72 101.31 136.39 100.71 Z M 137.10 100.08 L 137.87 99.43 C 138.56 98.85 138.65 97.82 138.07 97.13 C 137.49 96.44 136.45 96.35 135.76 96.93 L 134.99 97.59 C 134.30 98.17 134.21 99.20 134.80 99.89 C 135.38 100.58 136.41 100.67 137.10 100.08 Z M 137.85 99.45 L 138.62 98.83 C 139.33 98.26 139.44 97.23 138.87 96.53 C 138.30 95.82 137.27 95.71 136.57 96.28 L 135.79 96.91 C 135.09 97.48 134.98 98.51 135.55 99.21 C 136.11 99.91 137.14 100.02 137.85 99.45 Z M 138.61 98.84 L 139.39 98.22 C 140.10 97.66 140.22 96.63 139.66 95.92 C 139.10 95.21 138.07 95.09 137.36 95.65 L 136.58 96.27 C 135.87 96.83 135.75 97.86 136.31 98.57 C 136.87 99.28 137.90 99.40 138.61 98.84 Z M 139.39 98.23 L 140.17 97.61 C 140.89 97.06 141.01 96.03 140.45 95.31 C 139.89 94.60 138.86 94.47 138.15 95.03 L 137.37 95.65 C 136.66 96.20 136.53 97.23 137.09 97.95 C 137.65 98.66 138.68 98.78 139.39 98.23 Z M 140.17 97.62 L 140.97 96.99 C 141.68 96.44 141.81 95.41 141.26 94.69 C 140.70 93.98 139.67 93.85 138.95 94.41 L 138.15 95.03 C 137.44 95.59 137.31 96.62 137.87 97.33 C 138.43 98.05 139.46 98.17 140.17 97.62 Z M 140.96 97.00 L 141.76 96.39 C 142.48 95.84 142.62 94.81 142.07 94.09 C 141.51 93.37 140.48 93.23 139.76 93.78 L 138.96 94.40 C 138.24 94.95 138.11 95.98 138.66 96.70 C 139.21 97.42 140.24 97.55 140.96 97.00 Z M 141.73 96.41 L 142.55 95.81 C 143.28 95.28 143.44 94.25 142.90 93.52 C 142.37 92.79 141.34 92.63 140.61 93.16 L 139.79 93.76 C 139.06 94.29 138.90 95.32 139.44 96.05 C 139.97 96.79 141.00 96.95 141.73 96.41 Z M 142.50 95.85 L 143.32 95.29 C 144.07 94.78 144.27 93.76 143.76 93.01 C 143.24 92.26 142.22 92.06 141.47 92.57 L 140.65 93.13 C 139.90 93.64 139.71 94.66 140.22 95.41 C 140.73 96.16 141.75 96.36 142.50 95.85 Z M 143.28 95.32 L 144.12 94.79 C 144.88 94.30 145.11 93.28 144.62 92.52 C 144.14 91.75 143.12 91.52 142.35 92.01 L 141.52 92.55 C 140.75 93.03 140.52 94.05 141.01 94.81 C 141.50 95.58 142.51 95.81 143.28 95.32 Z M 144.09 94.80 L 144.94 94.29 C 145.72 93.82 145.97 92.81 145.50 92.03 C 145.03 91.25 144.02 91.01 143.24 91.48 L 142.39 91.99 C 141.61 92.46 141.36 93.47 141.83 94.25 C 142.30 95.03 143.31 95.27 144.09 94.80 Z M 144.92 94.30 L 145.79 93.80 C 146.57 93.34 146.83 92.33 146.38 91.55 C 145.92 90.76 144.91 90.50 144.13 90.96 L 143.26 91.46 C 142.48 91.92 142.21 92.93 142.67 93.71 C 143.13 94.50 144.13 94.76 144.92 94.30 Z M 145.75 93.82 L 146.62 93.34 C 147.42 92.90 147.71 91.90 147.27 91.10 C 146.83 90.31 145.83 90.02 145.04 90.46 L 144.16 90.94 C 143.37 91.37 143.08 92.37 143.52 93.17 C 143.95 93.96 144.95 94.25 145.75 93.82 Z M 146.58 93.36 L 147.47 92.91 C 148.28 92.49 148.60 91.50 148.19 90.69 C 147.78 89.88 146.79 89.56 145.98 89.97 L 145.08 90.43 C 144.27 90.84 143.95 91.83 144.36 92.64 C 144.78 93.45 145.77 93.77 146.58 93.36 Z M 147.44 92.92 L 148.25 92.53 C 149.06 92.13 149.40 91.14 149.00 90.33 C 148.60 89.51 147.62 89.17 146.80 89.57 L 146.00 89.96 C 145.18 90.36 144.85 91.35 145.24 92.16 C 145.64 92.98 146.63 93.32 147.44 92.92 Z M 148.25 92.53 L 149.07 92.12 C 149.89 91.73 150.23 90.74 149.83 89.92 C 149.43 89.11 148.44 88.77 147.63 89.17 L 146.80 89.57 C 145.98 89.97 145.65 90.95 146.05 91.77 C 146.44 92.59 147.43 92.93 148.25 92.53 Z M 149.08 92.12 L 150.12 91.60 C 150.93 91.20 151.26 90.21 150.85 89.40 C 150.45 88.58 149.46 88.25 148.65 88.66 L 147.61 89.17 C 146.80 89.58 146.47 90.57 146.88 91.38 C 147.28 92.19 148.27 92.52 149.08 92.12 Z M 150.12 91.60 L 151.02 91.15 C 151.83 90.74 152.15 89.75 151.74 88.94 C 151.33 88.12 150.34 87.80 149.53 88.21 L 148.64 88.66 C 147.83 89.07 147.50 90.06 147.91 90.87 C 148.32 91.68 149.31 92.01 150.12 91.60 Z M 151.02 91.15 L 151.97 90.66 C 152.78 90.25 153.10 89.26 152.69 88.45 C 152.28 87.64 151.29 87.32 150.48 87.73 L 149.53 88.21 C 148.72 88.62 148.40 89.61 148.81 90.42 C 149.22 91.23 150.21 91.56 151.02 91.15 Z M 151.97 90.66 L 152.87 90.21 C 153.68 89.80 154.00 88.81 153.59 88.00 C 153.18 87.19 152.19 86.86 151.38 87.27 L 150.48 87.73 C 149.67 88.14 149.35 89.13 149.76 89.94 C 150.17 90.75 151.16 91.07 151.97 90.66 Z M 152.86 90.21 L 153.89 89.69 C 154.70 89.28 155.03 88.29 154.62 87.48 C 154.21 86.67 153.22 86.34 152.41 86.75 L 151.38 87.27 C 150.57 87.68 150.24 88.67 150.65 89.48 C 151.06 90.29 152.05 90.62 152.86 90.21 Z M 153.89 89.69 L 154.72 89.27 C 155.53 88.86 155.85 87.87 155.44 87.06 C 155.03 86.25 154.04 85.93 153.23 86.34 L 152.40 86.76 C 151.59 87.17 151.27 88.16 151.68 88.97 C 152.09 89.78 153.08 90.10 153.89 89.69 Z M 154.76 89.25 L 155.54 88.82 C 156.33 88.39 156.62 87.39 156.19 86.59 C 155.75 85.79 154.75 85.50 153.95 85.94 L 153.18 86.36 C 152.38 86.80 152.09 87.80 152.53 88.60 C 152.97 89.39 153.97 89.69 154.76 89.25 Z M 155.60 88.79 L 156.46 88.27 C 157.23 87.79 157.48 86.78 157.01 86.01 C 156.54 85.23 155.53 84.98 154.75 85.45 L 153.89 85.97 C 153.11 86.45 152.86 87.46 153.34 88.24 C 153.81 89.01 154.82 89.26 155.60 88.79 Z M 156.49 88.24 L 157.32 87.71 C 158.08 87.22 158.30 86.20 157.81 85.44 C 157.32 84.67 156.30 84.45 155.53 84.95 L 154.71 85.48 C 153.95 85.97 153.73 86.99 154.22 87.75 C 154.71 88.52 155.73 88.74 156.49 88.24 Z M 157.34 87.69 L 158.19 87.12 C 158.94 86.62 159.14 85.59 158.63 84.84 C 158.13 84.09 157.10 83.89 156.35 84.40 L 155.50 84.96 C 154.75 85.47 154.55 86.50 155.06 87.25 C 155.57 88.00 156.59 88.20 157.34 87.69 Z M 158.21 87.11 L 159.03 86.54 C 159.78 86.02 159.97 85.00 159.45 84.25 C 158.93 83.50 157.91 83.32 157.16 83.83 L 156.33 84.41 C 155.59 84.92 155.40 85.95 155.92 86.70 C 156.43 87.44 157.46 87.63 158.21 87.11 Z M 159.03 86.54 L 159.86 85.97 C 160.61 85.45 160.79 84.43 160.28 83.68 C 159.76 82.93 158.73 82.75 157.99 83.26 L 157.16 83.83 C 156.41 84.35 156.23 85.37 156.74 86.12 C 157.26 86.87 158.28 87.06 159.03 86.54 Z M 159.87 85.96 L 160.68 85.39 C 161.43 84.86 161.60 83.84 161.08 83.09 C 160.55 82.35 159.53 82.17 158.78 82.70 L 157.97 83.27 C 157.23 83.80 157.05 84.82 157.58 85.57 C 158.10 86.31 159.13 86.48 159.87 85.96 Z M 160.74 85.35 L 161.52 84.75 C 162.24 84.19 162.38 83.16 161.82 82.44 C 161.27 81.72 160.24 81.58 159.52 82.14 L 158.73 82.74 C 158.01 83.29 157.87 84.32 158.43 85.05 C 158.98 85.77 160.01 85.90 160.74 85.35 Z M 161.54 84.73 L 162.33 84.10 C 163.04 83.54 163.16 82.51 162.60 81.79 C 162.04 81.08 161.00 80.96 160.29 81.52 L 159.50 82.15 C 158.79 82.71 158.66 83.75 159.23 84.46 C 159.79 85.17 160.83 85.29 161.54 84.73 Z M 162.31 84.12 L 163.10 83.51 C 163.83 82.96 163.96 81.93 163.41 81.21 C 162.86 80.49 161.83 80.35 161.11 80.90 L 160.31 81.51 C 159.59 82.06 159.45 83.09 160.00 83.81 C 160.56 84.53 161.59 84.67 162.31 84.12 Z M 163.11 83.51 L 163.90 82.90 C 164.62 82.34 164.75 81.31 164.19 80.59 C 163.64 79.87 162.60 79.74 161.88 80.30 L 161.10 80.91 C 160.38 81.46 160.25 82.50 160.80 83.21 C 161.36 83.93 162.39 84.06 163.11 83.51 Z M 163.93 82.87 L 164.69 82.25 C 165.40 81.68 165.50 80.64 164.93 79.94 C 164.36 79.23 163.32 79.13 162.62 79.70 L 161.85 80.32 C 161.15 80.90 161.04 81.93 161.62 82.64 C 162.19 83.34 163.22 83.45 163.93 82.87 Z M 164.70 82.24 L 165.49 81.59 C 166.19 81.01 166.29 79.98 165.71 79.28 C 165.13 78.58 164.09 78.48 163.39 79.06 L 162.61 79.71 C 161.91 80.29 161.81 81.32 162.39 82.02 C 162.97 82.72 164.00 82.82 164.70 82.24 Z M 165.49 81.59 L 166.27 80.94 C 166.97 80.35 167.06 79.32 166.48 78.62 C 165.90 77.93 164.86 77.83 164.16 78.42 L 163.39 79.07 C 162.69 79.65 162.60 80.68 163.18 81.38 C 163.76 82.08 164.80 82.17 165.49 81.59 Z M 166.32 80.90 L 167.07 80.22 C 167.74 79.62 167.80 78.58 167.19 77.90 C 166.58 77.23 165.55 77.17 164.87 77.78 L 164.12 78.45 C 163.45 79.06 163.39 80.10 164.00 80.77 C 164.60 81.45 165.64 81.50 166.32 80.90 Z M 167.13 80.16 L 167.84 79.45 C 168.48 78.81 168.48 77.77 167.84 77.13 C 167.19 76.49 166.15 76.49 165.51 77.13 L 164.81 77.84 C 164.17 78.48 164.17 79.52 164.81 80.16 C 165.45 80.80 166.49 80.80 167.13 80.16 Z M 167.86 79.43 L 168.50 78.76 C 169.13 78.11 169.11 77.07 168.46 76.44 C 167.81 75.81 166.77 75.83 166.14 76.48 L 165.49 77.15 C 164.86 77.81 164.88 78.85 165.54 79.47 C 166.19 80.10 167.23 80.09 167.86 79.43 Z M 168.52 78.75 L 169.20 78.02 C 169.82 77.36 169.79 76.32 169.13 75.70 C 168.47 75.08 167.43 75.11 166.81 75.77 L 166.13 76.50 C 165.50 77.16 165.54 78.20 166.20 78.82 C 166.86 79.44 167.90 79.41 168.52 78.75 Z M 169.24 77.97 L 169.90 77.22 C 170.49 76.54 170.42 75.50 169.74 74.91 C 169.06 74.31 168.02 74.38 167.43 75.06 L 166.77 75.82 C 166.17 76.50 166.24 77.54 166.93 78.13 C 167.61 78.73 168.65 78.66 169.24 77.97 Z M 169.94 77.17 L 170.58 76.38 C 171.15 75.68 171.04 74.65 170.33 74.08 C 169.63 73.51 168.59 73.62 168.02 74.32 L 167.39 75.11 C 166.82 75.82 166.93 76.85 167.63 77.42 C 168.33 77.99 169.37 77.88 169.94 77.17 Z M 170.62 76.33 L 171.24 75.48 C 171.78 74.75 171.63 73.73 170.90 73.19 C 170.17 72.65 169.14 72.81 168.60 73.53 L 167.98 74.38 C 167.44 75.11 167.60 76.14 168.33 76.67 C 169.06 77.21 170.08 77.06 170.62 76.33 Z M 171.30 75.40 L 171.88 74.51 C 172.37 73.75 172.15 72.73 171.39 72.24 C 170.63 71.75 169.61 71.97 169.12 72.73 L 168.55 73.62 C 168.05 74.38 168.27 75.39 169.03 75.89 C 169.79 76.38 170.81 76.16 171.30 75.40 Z M 171.94 74.40 L 172.39 73.57 C 172.83 72.78 172.53 71.78 171.74 71.35 C 170.94 70.91 169.95 71.20 169.51 72.00 L 169.06 72.83 C 168.62 73.63 168.92 74.62 169.71 75.06 C 170.51 75.49 171.50 75.20 171.94 74.40 Z M 172.47 73.41 L 172.86 72.46 C 173.20 71.62 172.80 70.67 171.97 70.32 C 171.13 69.98 170.17 70.38 169.82 71.22 L 169.44 72.16 C 169.09 73.00 169.49 73.96 170.33 74.30 C 171.17 74.65 172.13 74.25 172.47 73.41 Z M 172.94 72.22 L 173.16 71.30 C 173.36 70.42 172.82 69.53 171.94 69.33 C 171.05 69.12 170.17 69.66 169.96 70.55 L 169.74 71.46 C 169.54 72.34 170.08 73.23 170.96 73.44 C 171.85 73.64 172.73 73.10 172.94 72.22 Z M 173.19 71.07 L 173.28 70.13 C 173.36 69.23 172.70 68.43 171.80 68.35 C 170.89 68.26 170.09 68.93 170.01 69.83 L 169.92 70.77 C 169.84 71.68 170.50 72.47 171.41 72.56 C 172.31 72.64 173.11 71.98 173.19 71.07 Z M 173.29 70.00 L 173.30 68.95 C 173.31 68.05 172.58 67.30 171.67 67.29 C 170.77 67.28 170.02 68.01 170.01 68.92 L 170.00 69.96 C 169.99 70.87 170.72 71.61 171.63 71.62 C 172.53 71.63 173.28 70.91 173.29 70.00 Z M 173.30 68.87 L 173.25 67.86 C 173.22 66.95 172.45 66.25 171.54 66.29 C 170.64 66.33 169.93 67.09 169.97 68.00 L 170.02 69.01 C 170.06 69.91 170.82 70.62 171.73 70.58 C 172.63 70.54 173.34 69.77 173.30 68.87 Z M 173.24 67.70 L 173.10 66.70 C 172.97 65.80 172.14 65.18 171.24 65.31 C 170.34 65.44 169.72 66.27 169.85 67.17 L 169.99 68.16 C 170.12 69.06 170.95 69.68 171.85 69.55 C 172.74 69.43 173.37 68.59 173.24 67.70 Z M 173.04 66.44 L 172.76 65.57 C 172.49 64.70 171.56 64.22 170.70 64.50 C 169.83 64.77 169.36 65.70 169.63 66.56 L 169.91 67.43 C 170.18 68.30 171.10 68.78 171.97 68.50 C 172.83 68.23 173.31 67.30 173.04 66.44 Z M 172.67 65.35 L 172.23 64.42 C 171.83 63.61 170.85 63.27 170.03 63.66 C 169.22 64.05 168.88 65.04 169.27 65.85 L 169.72 66.78 C 170.11 67.59 171.09 67.94 171.91 67.54 C 172.73 67.15 173.07 66.17 172.67 65.35 Z M 172.19 64.34 L 171.70 63.47 C 171.26 62.68 170.26 62.39 169.47 62.83 C 168.67 63.27 168.39 64.27 168.83 65.06 L 169.31 65.94 C 169.75 66.73 170.75 67.02 171.55 66.58 C 172.34 66.14 172.63 65.14 172.19 64.34 Z M 171.68 63.44 L 171.18 62.57 C 170.72 61.79 169.72 61.52 168.93 61.98 C 168.15 62.44 167.88 63.44 168.34 64.23 L 168.84 65.09 C 169.30 65.88 170.31 66.14 171.09 65.69 C 171.87 65.23 172.14 64.22 171.68 63.44 Z M 171.16 62.54 L 170.62 61.65 C 170.15 60.88 169.14 60.63 168.36 61.10 C 167.59 61.57 167.34 62.59 167.81 63.36 L 168.36 64.25 C 168.83 65.03 169.84 65.27 170.61 64.80 C 171.39 64.33 171.63 63.32 171.16 62.54 Z M 170.60 61.62 L 170.03 60.72 C 169.54 59.96 168.52 59.74 167.76 60.23 C 166.99 60.72 166.77 61.73 167.26 62.50 L 167.83 63.39 C 168.32 64.16 169.34 64.38 170.10 63.89 C 170.87 63.40 171.09 62.38 170.60 61.62 Z M 170.00 60.68 L 169.38 59.78 C 168.87 59.03 167.84 58.84 167.10 59.35 C 166.35 59.86 166.15 60.88 166.67 61.63 L 167.29 62.54 C 167.80 63.29 168.82 63.48 169.57 62.97 C 170.32 62.45 170.51 61.43 170.00 60.68 Z M 169.36 59.75 L 168.80 58.98 C 168.27 58.24 167.24 58.07 166.51 58.60 C 165.77 59.13 165.61 60.16 166.14 60.90 L 166.69 61.67 C 167.22 62.40 168.25 62.57 168.98 62.04 C 169.72 61.51 169.89 60.48 169.36 59.75 Z M 168.79 58.96 L 168.21 58.18 C 167.67 57.45 166.64 57.29 165.91 57.83 C 165.18 58.37 165.03 59.40 165.57 60.13 L 166.15 60.91 C 166.69 61.64 167.72 61.80 168.44 61.26 C 169.17 60.72 169.33 59.69 168.79 58.96 Z M 168.20 58.16 L 167.62 57.39 C 167.07 56.67 166.04 56.52 165.32 57.07 C 164.59 57.62 164.45 58.65 165.00 59.37 L 165.58 60.14 C 166.12 60.86 167.15 61.01 167.88 60.46 C 168.60 59.92 168.74 58.89 168.20 58.16 Z M 167.59 57.36 L 167.00 56.61 C 166.44 55.90 165.41 55.78 164.69 56.34 C 163.98 56.91 163.86 57.94 164.43 58.65 L 165.02 59.40 C 165.58 60.11 166.61 60.23 167.33 59.67 C 168.04 59.11 168.16 58.07 167.59 57.36 Z M 166.98 56.58 L 166.34 55.81 C 165.76 55.11 164.72 55.02 164.02 55.59 C 163.33 56.17 163.23 57.21 163.81 57.91 L 164.45 58.68 C 165.03 59.38 166.06 59.47 166.76 58.90 C 167.46 58.32 167.56 57.28 166.98 56.58 Z M 166.31 55.78 L 165.67 55.04 C 165.07 54.35 164.04 54.28 163.35 54.87 C 162.67 55.46 162.59 56.50 163.18 57.19 L 163.83 57.93 C 164.42 58.62 165.46 58.69 166.15 58.10 C 166.83 57.51 166.91 56.47 166.31 55.78 Z M 165.63 54.99 L 164.94 54.25 C 164.32 53.58 163.28 53.55 162.62 54.16 C 161.95 54.78 161.91 55.82 162.53 56.49 L 163.22 57.23 C 163.84 57.89 164.88 57.93 165.54 57.31 C 166.21 56.70 166.25 55.66 165.63 54.99 Z M 164.89 54.20 L 164.18 53.49 C 163.54 52.85 162.50 52.86 161.86 53.50 C 161.22 54.14 161.22 55.18 161.86 55.82 L 162.58 56.53 C 163.22 57.17 164.26 57.17 164.90 56.53 C 165.54 55.88 165.54 54.84 164.89 54.20 Z M 164.14 53.45 L 163.45 52.82 C 162.79 52.20 161.75 52.24 161.13 52.90 C 160.51 53.57 160.55 54.61 161.22 55.22 L 161.90 55.86 C 162.57 56.48 163.61 56.44 164.22 55.77 C 164.84 55.11 164.80 54.07 164.14 53.45 Z M 163.41 52.77 L 162.63 52.11 C 161.94 51.52 160.90 51.59 160.31 52.28 C 159.72 52.97 159.80 54.01 160.49 54.60 L 161.26 55.27 C 161.95 55.86 162.99 55.78 163.58 55.09 C 164.17 54.40 164.09 53.37 163.41 52.77 Z M 162.60 52.08 L 161.85 51.47 C 161.15 50.90 160.12 51.00 159.54 51.71 C 158.97 52.41 159.07 53.44 159.78 54.02 L 160.52 54.62 C 161.22 55.20 162.26 55.09 162.83 54.39 C 163.40 53.69 163.30 52.65 162.60 52.08 Z M 161.82 51.45 L 161.01 50.82 C 160.30 50.26 159.27 50.39 158.71 51.11 C 158.15 51.83 158.28 52.86 159.00 53.42 L 159.81 54.04 C 160.53 54.60 161.56 54.47 162.11 53.75 C 162.67 53.04 162.54 52.00 161.82 51.45 Z M 160.97 50.79 L 160.11 50.17 C 159.37 49.64 158.35 49.81 157.82 50.54 C 157.29 51.28 157.45 52.31 158.19 52.84 L 159.05 53.45 C 159.78 53.98 160.81 53.81 161.34 53.08 C 161.87 52.34 161.70 51.32 160.97 50.79 Z M 160.04 50.12 L 159.19 49.57 C 158.43 49.08 157.41 49.30 156.92 50.06 C 156.43 50.82 156.64 51.84 157.41 52.33 L 158.26 52.88 C 159.02 53.37 160.04 53.16 160.53 52.39 C 161.02 51.63 160.80 50.62 160.04 50.12 Z M 159.11 49.52 L 158.25 49.03 C 157.46 48.59 156.46 48.86 156.01 49.65 C 155.56 50.44 155.84 51.44 156.63 51.89 L 157.49 52.38 C 158.28 52.83 159.28 52.55 159.73 51.76 C 160.18 50.97 159.90 49.97 159.11 49.52 Z M 158.16 48.98 L 157.25 48.55 C 156.44 48.15 155.45 48.49 155.06 49.31 C 154.66 50.12 155.00 51.11 155.82 51.50 L 156.72 51.94 C 157.54 52.34 158.52 52.00 158.91 51.18 C 159.31 50.36 158.97 49.38 158.16 48.98 Z M 157.15 48.50 L 156.20 48.12 C 155.36 47.78 154.41 48.19 154.07 49.03 C 153.73 49.88 154.14 50.83 154.98 51.17 L 155.92 51.55 C 156.77 51.89 157.72 51.48 158.06 50.64 C 158.40 49.79 157.99 48.84 157.15 48.50 Z M 156.08 48.08 L 155.15 47.79 C 154.28 47.52 153.36 48.01 153.09 48.87 C 152.82 49.74 153.31 50.66 154.17 50.93 L 155.11 51.22 C 155.97 51.48 156.89 51.00 157.16 50.13 C 157.43 49.27 156.95 48.35 156.08 48.08 Z M 154.99 47.75 L 154.06 47.56 C 153.17 47.37 152.30 47.94 152.12 48.83 C 151.94 49.72 152.51 50.59 153.40 50.77 L 154.33 50.97 C 155.22 51.15 156.09 50.58 156.27 49.69 C 156.45 48.80 155.88 47.93 154.99 47.75 Z M 153.91 47.53 L 152.93 47.42 C 152.03 47.33 151.22 47.98 151.12 48.88 C 151.02 49.78 151.67 50.59 152.57 50.69 L 153.55 50.80 C 154.45 50.90 155.26 50.25 155.36 49.35 C 155.46 48.44 154.81 47.63 153.91 47.53 Z M 152.83 47.42 L 151.79 47.37 C 150.88 47.32 150.11 48.02 150.07 48.93 C 150.03 49.83 150.73 50.60 151.63 50.65 L 152.67 50.70 C 153.58 50.74 154.35 50.04 154.39 49.14 C 154.43 48.23 153.74 47.46 152.83 47.42 Z M 151.74 47.37 L 150.73 47.35 C 149.82 47.33 149.07 48.05 149.06 48.96 C 149.04 49.87 149.76 50.62 150.67 50.63 L 151.68 50.65 C 152.59 50.67 153.34 49.94 153.35 49.04 C 153.37 48.13 152.65 47.38 151.74 47.37 Z M 150.70 47.35 L 149.67 47.35 C 148.76 47.35 148.03 48.09 148.03 49.00 C 148.03 49.90 148.77 50.64 149.68 50.63 L 150.70 50.63 C 151.61 50.63 152.34 49.89 152.34 48.99 C 152.34 48.08 151.60 47.35 150.70 47.35 Z M 149.64 47.35 L 148.66 47.37 C 147.75 47.39 147.03 48.14 147.05 49.05 C 147.07 49.95 147.82 50.67 148.73 50.65 L 149.71 50.63 C 150.62 50.61 151.33 49.86 151.31 48.96 C 151.30 48.05 150.54 47.33 149.64 47.35 Z M 148.59 47.38 L 147.64 47.44 C 146.74 47.49 146.05 48.27 146.11 49.18 C 146.17 50.08 146.94 50.76 147.85 50.71 L 148.80 50.65 C 149.70 50.59 150.39 49.81 150.33 48.91 C 150.27 48.01 149.49 47.32 148.59 47.38 Z M 147.50 47.46 L 146.52 47.61 C 145.63 47.74 145.02 48.58 145.16 49.47 C 145.29 50.36 146.13 50.97 147.02 50.84 L 147.99 50.69 C 148.88 50.55 149.50 49.72 149.36 48.82 C 149.22 47.93 148.39 47.32 147.50 47.46 Z M 146.37 47.64 L 145.36 47.89 C 144.49 48.12 143.96 49.00 144.18 49.88 C 144.40 50.75 145.29 51.28 146.16 51.06 L 147.17 50.80 C 148.05 50.58 148.58 49.70 148.36 48.82 C 148.13 47.95 147.25 47.42 146.37 47.64 Z M 145.27 47.92 L 144.29 48.24 C 143.43 48.51 142.96 49.42 143.23 50.28 C 143.50 51.14 144.41 51.61 145.27 51.34 L 146.25 51.03 C 147.11 50.76 147.59 49.84 147.31 48.98 C 147.04 48.13 146.13 47.65 145.27 47.92 Z M 144.23 48.26 L 143.24 48.61 C 142.40 48.91 141.96 49.84 142.26 50.69 C 142.56 51.53 143.49 51.97 144.34 51.67 L 145.33 51.32 C 146.17 51.02 146.61 50.09 146.31 49.24 C 146.01 48.40 145.08 47.96 144.23 48.26 Z M 143.20 48.63 L 142.30 48.99 C 141.47 49.31 141.05 50.25 141.38 51.09 C 141.71 51.92 142.65 52.33 143.48 52.00 L 144.38 51.65 C 145.22 51.32 145.63 50.38 145.30 49.55 C 144.97 48.72 144.03 48.31 143.20 48.63 Z M 142.23 49.03 L 141.18 49.51 C 140.37 49.87 140.01 50.82 140.38 51.63 C 140.74 52.44 141.69 52.80 142.50 52.43 L 143.55 51.96 C 144.36 51.59 144.72 50.64 144.36 49.83 C 143.99 49.03 143.04 48.67 142.23 49.03 Z M 141.03 49.62 L 140.26 50.07 C 139.52 50.52 139.27 51.49 139.72 52.24 C 140.17 52.98 141.14 53.23 141.88 52.78 L 142.65 52.32 C 143.40 51.88 143.64 50.91 143.19 50.16 C 142.75 49.41 141.78 49.17 141.03 49.62 Z M 140.07 50.25 L 139.37 50.85 C 138.72 51.41 138.64 52.38 139.19 53.03 C 139.75 53.68 140.72 53.76 141.37 53.20 L 142.07 52.60 C 142.72 52.05 142.80 51.08 142.25 50.43 C 141.70 49.78 140.72 49.70 140.07 50.25 Z M 139.20 51.07 L 138.57 51.84 C 138.04 52.49 138.13 53.44 138.78 53.97 C 139.43 54.50 140.38 54.40 140.91 53.76 L 141.54 52.99 C 142.07 52.34 141.97 51.38 141.33 50.86 C 140.68 50.33 139.72 50.42 139.20 51.07 Z M 138.42 52.12 L 137.96 53.00 C 137.58 53.73 137.87 54.63 138.59 55.00 C 139.32 55.38 140.22 55.10 140.59 54.37 L 141.05 53.48 C 141.43 52.76 141.15 51.86 140.42 51.48 C 139.69 51.11 138.80 51.39 138.42 52.12 Z M 137.86 53.33 L 137.62 54.29 C 137.42 55.07 137.89 55.86 138.67 56.06 C 139.45 56.26 140.25 55.79 140.45 55.01 L 140.69 54.05 C 140.89 53.27 140.42 52.47 139.64 52.27 C 138.86 52.08 138.06 52.55 137.86 53.33 Z M 137.60 54.57 L 137.54 55.56 C 137.49 56.36 138.10 57.04 138.89 57.08 C 139.68 57.13 140.37 56.52 140.41 55.73 L 140.47 54.73 C 140.51 53.94 139.91 53.26 139.11 53.21 C 138.32 53.17 137.64 53.77 137.60 54.57 Z M 137.55 55.64 L 137.54 55.99 C 137.54 56.78 138.18 57.42 138.97 57.42 C 139.76 57.43 140.40 56.79 140.40 56.00 L 140.40 55.65 C 140.41 54.86 139.77 54.22 138.98 54.22 C 138.19 54.22 137.55 54.85 137.55 55.64 Z"
      fill="black"
      fill-rule="nonzero" /></svg>