<svg xmlns="http://www.w3.org/2000/svg" width="300" height="300" viewBox="0 0 300 300">
<path d="M 61.21 163.01 L 62.14 162.76 C 62.92 162.54 63.37 161.74 63.16 160.96 C 62.95 160.19 62.14 159.73 61.37 159.95 L 60.44 160.20 C 59.66 160.42 59.20 161.22 59.42 162.00 C 59.63 162.77 60.43 163.23 61.21 163.01 Z M 62.05 162.79 L 63.05 162.58 C 63.84 162.42 64.35 161.64 64.19 160.85 C 64.02 160.05 63.25 159.54 62.45 159.71 L 61.46 159.92 C 60.66 160.08 60.15 160.86 60.32 161.65 C 60.48 162.44 61.26 162.95 62.05 162.79 Z M 62.94 162.61 L 63.92 162.48 C 64.73 162.37 65.30 161.64 65.19 160.83 C 65.09 160.02 64.35 159.45 63.54 159.56 L 62.56 159.68 C 61.76 159.79 61.19 160.53 61.29 161.33 C 61.40 162.14 62.13 162.71 62.94 162.61 Z M 63.84 162.49 L 64.86 162.42 C 65.68 162.36 66.29 161.65 66.23 160.83 C 66.17 160.02 65.46 159.41 64.65 159.47 L 63.62 159.54 C 62.81 159.60 62.20 160.31 62.26 161.13 C 62.32 161.94 63.03 162.55 63.84 162.49 Z M 64.80 162.42 L 65.77 162.39 C 66.59 162.37 67.23 161.69 67.21 160.87 C 67.18 160.05 66.50 159.41 65.68 159.43 L 64.71 159.46 C 63.89 159.49 63.25 160.17 63.27 160.99 C 63.30 161.80 63.98 162.45 64.80 162.42 Z M 65.74 162.40 L 66.75 162.39 C 67.57 162.39 68.23 161.72 68.23 160.90 C 68.22 160.08 67.56 159.42 66.74 159.43 L 65.72 159.43 C 64.90 159.43 64.24 160.10 64.24 160.92 C 64.25 161.74 64.92 162.40 65.74 162.40 Z M 66.75 162.39 L 67.78 162.39 C 68.60 162.39 69.27 161.73 69.27 160.91 C 69.27 160.09 68.60 159.42 67.78 159.42 L 66.75 159.42 C 65.92 159.42 65.26 160.09 65.26 160.91 C 65.26 161.73 65.92 162.39 66.75 162.39 Z M 67.78 162.40 L 68.80 162.40 C 69.62 162.40 70.28 161.73 70.28 160.91 C 70.28 160.09 69.62 159.42 68.80 159.42 L 67.78 159.42 C 66.96 159.42 66.29 160.09 66.29 160.91 C 66.29 161.73 66.96 162.40 67.78 162.40 Z M 68.80 162.40 L 69.81 162.40 C 70.63 162.40 71.29 161.73 71.29 160.91 C 71.29 160.09 70.63 159.42 69.81 159.42 L 68.80 159.42 C 67.97 159.42 67.31 160.09 67.31 160.91 C 67.31 161.73 67.97 162.40 68.80 162.40 Z M 69.81 162.40 L 70.78 162.40 C 71.60 162.40 72.27 161.73 72.27 160.91 C 72.27 160.09 71.60 159.42 70.78 159.42 L 69.81 159.42 C 68.98 159.42 68.32 160.09 68.32 160.91 C 68.32 161.73 68.98 162.40 69.81 162.40 Z M 70.78 162.40 L 71.74 162.40 C 72.57 162.40 73.23 161.73 73.23 160.91 C 73.23 160.09 72.57 159.42 71.74 159.42 L 70.78 159.42 C 69.95 159.42 69.29 160.09 69.29 160.91 C 69.29 161.73 69.95 162.40 70.78 162.40 Z M 71.74 162.40 L 72.75 162.40 C 73.58 162.40 74.25 161.73 74.25 160.91 C 74.25 160.08 73.58 159.42 72.75 159.42 L 71.74 159.42 C 70.92 159.42 70.25 160.08 70.25 160.91 C 70.25 161.73 70.92 162.40 71.74 162.40 Z M 72.75 162.40 L 73.76 162.40 C 74.59 162.40 75.25 161.73 75.25 160.91 C 75.25 160.08 74.59 159.42 73.76 159.42 L 72.75 159.42 C 71.93 159.42 71.26 160.08 71.26 160.91 C 71.26 161.73 71.93 162.40 72.75 162.40 Z M 73.76 162.40 L 74.75 162.40 C 75.58 162.40 76.25 161.73 76.25 160.91 C 76.25 160.08 75.58 159.41 74.75 159.41 L 73.76 159.41 C 72.94 159.41 72.27 160.08 72.27 160.91 C 72.27 161.73 72.94 162.40 73.76 162.40 Z M 74.75 162.41 L 75.75 162.41 C 76.57 162.41 77.24 161.74 77.24 160.91 C 77.24 160.08 76.57 159.41 75.75 159.41 L 74.75 159.41 C 73.93 159.41 73.26 160.08 73.26 160.91 C 73.26 161.74 73.93 162.41 74.75 162.41 Z M 75.75 162.41 L 76.75 162.41 C 77.58 162.41 78.25 161.74 78.25 160.91 C 78.25 160.08 77.58 159.41 76.75 159.41 L 75.75 159.41 C 74.92 159.41 74.25 160.08 74.25 160.91 C 74.25 161.74 74.92 162.41 75.75 162.41 Z M 76.75 162.41 L 77.75 162.41 C 78.58 162.41 79.25 161.74 79.25 160.91 C 79.25 160.08 78.58 159.41 77.75 159.41 L 76.75 159.41 C 75.92 159.41 75.25 160.08 75.25 160.91 C 75.25 161.74 75.92 162.41 76.75 162.41 Z M 77.75 162.41 L 78.75 162.41 C 79.58 162.41 80.25 161.74 80.25 160.91 C 80.25 160.08 79.58 159.41 78.75 159.41 L 77.75 159.41 C 76.92 159.41 76.25 160.08 76.25 160.91 C 76.25 161.74 76.92 162.41 77.75 162.41 Z M 78.75 162.41 L 79.75 162.41 C 80.58 162.41 81.25 161.74 81.25 160.91 C 81.25 160.08 80.58 159.41 79.75 159.41 L 78.75 159.41 C 77.92 159.41 77.25 160.08 77.25 160.91 C 77.25 161.74 77.92 162.41 78.75 162.41 Z M 79.75 162.41 L 80.74 162.41 C 81.56 162.41 82.24 161.74 82.24 160.91 C 82.24 160.08 81.56 159.41 80.74 159.41 L 79.75 159.41 C 78.92 159.41 78.25 160.08 78.25 160.91 C 78.25 161.74 78.92 162.41 79.75 162.41 Z M 80.74 162.41 L 81.74 162.41 C 82.57 162.41 83.24 161.74 83.24 160.91 C 83.24 160.08 82.57 159.41 81.74 159.41 L 80.74 159.41 C 79.91 159.41 79.23 160.08 79.23 160.91 C 79.23 161.74 79.91 162.41 80.74 162.41 Z M 81.74 162.41 L 82.75 162.41 C 83.58 162.41 84.25 161.74 84.25 160.91 C 84.25 160.08 83.58 159.41 82.75 159.41 L 81.74 159.41 C 80.91 159.41 80.24 160.08 80.24 160.91 C 80.24 161.74 80.91 162.41 81.74 162.41 Z M 82.75 162.41 L 83.76 162.41 C 84.59 162.41 85.26 161.74 85.26 160.91 C 85.26 160.08 84.59 159.40 83.76 159.40 L 82.75 159.40 C 81.92 159.40 81.24 160.08 81.24 160.91 C 81.24 161.74 81.92 162.41 82.75 162.41 Z M 83.76 162.41 L 84.77 162.41 C 85.60 162.41 86.27 161.74 86.27 160.91 C 86.27 160.08 85.60 159.40 84.77 159.40 L 83.76 159.40 C 82.93 159.40 82.25 160.08 82.25 160.91 C 82.25 161.74 82.93 162.41 83.76 162.41 Z M 84.77 162.41 L 85.76 162.41 C 86.59 162.41 87.26 161.74 87.26 160.91 C 87.26 160.08 86.59 159.40 85.76 159.40 L 84.77 159.40 C 83.93 159.40 83.26 160.08 83.26 160.91 C 83.26 161.74 83.93 162.41 84.77 162.41 Z M 85.76 162.41 L 86.74 162.41 C 87.58 162.41 88.25 161.74 88.25 160.91 C 88.25 160.08 87.58 159.40 86.74 159.40 L 85.76 159.40 C 84.93 159.40 84.25 160.08 84.25 160.91 C 84.25 161.74 84.93 162.41 85.76 162.41 Z M 86.74 162.41 L 87.74 162.41 C 88.57 162.41 89.25 161.74 89.25 160.91 C 89.25 160.08 88.57 159.40 87.74 159.40 L 86.74 159.40 C 85.91 159.40 85.24 160.08 85.24 160.91 C 85.24 161.74 85.91 162.41 86.74 162.41 Z M 87.74 162.41 L 88.75 162.41 C 89.58 162.41 90.25 161.74 90.25 160.91 C 90.25 160.08 89.58 159.40 88.75 159.40 L 87.74 159.40 C 86.91 159.40 86.24 160.08 86.24 160.91 C 86.24 161.74 86.91 162.41 87.74 162.41 Z M 88.75 162.41 L 89.75 162.41 C 90.58 162.41 91.25 161.74 91.25 160.91 C 91.25 160.08 90.58 159.40 89.75 159.40 L 88.75 159.40 C 87.92 159.40 87.24 160.08 87.24 160.91 C 87.24 161.74 87.92 162.41 88.75 162.41 Z M 89.75 162.42 L 90.76 162.42 C 91.59 162.42 92.26 161.74 92.26 160.91 C 92.26 160.08 91.59 159.40 90.76 159.40 L 89.75 159.40 C 88.92 159.40 88.24 160.08 88.24 160.91 C 88.24 161.74 88.92 162.42 89.75 162.42 Z M 90.76 162.42 L 91.76 162.42 C 92.59 162.42 93.27 161.74 93.27 160.91 C 93.27 160.08 92.59 159.40 91.76 159.40 L 90.76 159.40 C 89.92 159.40 89.25 160.08 89.25 160.91 C 89.25 161.74 89.92 162.42 90.76 162.42 Z M 91.76 162.42 L 92.76 162.42 C 93.59 162.42 94.26 161.74 94.26 160.91 C 94.26 160.08 93.59 159.40 92.76 159.40 L 91.76 159.40 C 90.93 159.40 90.25 160.08 90.25 160.91 C 90.25 161.74 90.93 162.42 91.76 162.42 Z M 92.75 162.42 L 93.74 162.42 C 94.57 162.42 95.25 161.74 95.25 160.91 C 95.25 160.08 94.58 159.40 93.74 159.40 L 92.76 159.40 C 91.93 159.40 91.25 160.07 91.25 160.91 C 91.25 161.74 91.92 162.41 92.75 162.42 Z M 93.73 162.42 L 94.73 162.43 C 95.57 162.43 96.25 161.76 96.25 160.93 C 96.26 160.10 95.59 159.42 94.76 159.41 L 93.76 159.40 C 92.92 159.40 92.24 160.06 92.23 160.90 C 92.23 161.73 92.90 162.41 93.73 162.42 Z M 94.71 162.43 L 95.72 162.45 C 96.56 162.47 97.25 161.81 97.26 160.98 C 97.28 160.14 96.62 159.45 95.79 159.44 L 94.78 159.41 C 93.95 159.39 93.26 160.05 93.24 160.89 C 93.22 161.72 93.88 162.41 94.71 162.43 Z M 95.70 162.45 L 96.71 162.48 C 97.54 162.51 98.24 161.86 98.27 161.03 C 98.30 160.20 97.65 159.50 96.82 159.47 L 95.81 159.44 C 94.98 159.41 94.28 160.06 94.25 160.89 C 94.22 161.72 94.87 162.42 95.70 162.45 Z M 96.69 162.48 L 97.70 162.54 C 98.53 162.58 99.24 161.94 99.28 161.11 C 99.33 160.28 98.69 159.57 97.86 159.53 L 96.84 159.47 C 96.01 159.43 95.30 160.07 95.26 160.90 C 95.22 161.73 95.86 162.44 96.69 162.48 Z M 97.67 162.53 L 98.67 162.61 C 99.50 162.66 100.22 162.04 100.28 161.21 C 100.34 160.38 99.71 159.66 98.88 159.60 L 97.89 159.53 C 97.05 159.47 96.33 160.09 96.27 160.92 C 96.22 161.75 96.84 162.48 97.67 162.53 Z M 98.63 162.60 L 99.61 162.69 C 100.44 162.77 101.17 162.16 101.25 161.34 C 101.33 160.51 100.72 159.77 99.89 159.69 L 98.92 159.60 C 98.09 159.52 97.35 160.13 97.27 160.96 C 97.20 161.79 97.81 162.52 98.63 162.60 Z M 99.57 162.69 L 100.57 162.81 C 101.40 162.91 102.15 162.32 102.24 161.49 C 102.34 160.66 101.75 159.91 100.92 159.81 L 99.93 159.70 C 99.10 159.60 98.35 160.19 98.25 161.02 C 98.16 161.84 98.75 162.59 99.57 162.69 Z M 100.53 162.80 L 101.51 162.95 C 102.34 163.06 103.10 162.49 103.22 161.67 C 103.34 160.84 102.77 160.08 101.94 159.96 L 100.96 159.82 C 100.14 159.70 99.37 160.27 99.25 161.10 C 99.14 161.92 99.71 162.69 100.53 162.80 Z M 101.49 162.94 L 102.47 163.10 C 103.30 163.23 104.07 162.68 104.20 161.85 C 104.34 161.03 103.78 160.26 102.96 160.12 L 101.97 159.96 C 101.15 159.83 100.37 160.39 100.24 161.21 C 100.11 162.03 100.67 162.81 101.49 162.94 Z M 102.47 163.10 L 103.46 163.26 C 104.28 163.40 105.05 162.84 105.19 162.02 C 105.32 161.19 104.76 160.42 103.94 160.28 L 102.96 160.12 C 102.13 159.99 101.36 160.55 101.23 161.37 C 101.09 162.19 101.65 162.97 102.47 163.10 Z M 103.46 163.26 L 104.44 163.42 C 105.27 163.56 106.04 163.00 106.18 162.18 C 106.31 161.35 105.75 160.58 104.93 160.45 L 103.94 160.28 C 103.12 160.15 102.34 160.71 102.21 161.53 C 102.08 162.35 102.63 163.13 103.46 163.26 Z M 104.42 163.42 L 105.39 163.59 C 106.21 163.74 106.99 163.19 107.14 162.37 C 107.28 161.55 106.74 160.77 105.92 160.62 L 104.95 160.45 C 104.13 160.30 103.35 160.85 103.20 161.67 C 103.06 162.49 103.60 163.27 104.42 163.42 Z M 105.37 163.59 L 106.35 163.78 C 107.17 163.93 107.96 163.40 108.11 162.58 C 108.27 161.76 107.74 160.97 106.92 160.81 L 105.94 160.62 C 105.12 160.47 104.33 161.00 104.17 161.82 C 104.01 162.64 104.55 163.43 105.37 163.59 Z M 106.34 163.78 L 107.34 163.97 C 108.15 164.13 108.95 163.60 109.11 162.78 C 109.27 161.96 108.74 161.17 107.92 161.01 L 106.92 160.81 C 106.11 160.65 105.31 161.19 105.15 162.00 C 104.99 162.82 105.52 163.61 106.34 163.78 Z M 107.34 163.97 L 108.33 164.17 C 109.15 164.33 109.94 163.79 110.10 162.97 C 110.26 162.16 109.73 161.36 108.91 161.20 L 107.92 161.01 C 107.10 160.85 106.31 161.38 106.15 162.20 C 105.99 163.02 106.52 163.81 107.34 163.97 Z M 108.33 164.17 L 109.32 164.36 C 110.14 164.52 110.93 163.98 111.09 163.16 C 111.25 162.34 110.71 161.55 109.90 161.39 L 108.91 161.20 C 108.09 161.04 107.30 161.58 107.14 162.40 C 106.98 163.22 107.51 164.01 108.33 164.17 Z M 109.32 164.36 L 110.30 164.55 C 111.12 164.71 111.91 164.17 112.07 163.35 C 112.23 162.53 111.69 161.74 110.87 161.58 L 109.89 161.39 C 109.07 161.23 108.28 161.77 108.12 162.59 C 107.97 163.41 108.50 164.20 109.32 164.36 Z M 110.30 164.55 L 111.27 164.74 C 112.09 164.90 112.88 164.36 113.04 163.54 C 113.20 162.72 112.67 161.93 111.85 161.77 L 110.87 161.58 C 110.06 161.42 109.26 161.96 109.10 162.77 C 108.94 163.59 109.48 164.39 110.30 164.55 Z M 111.27 164.74 L 112.22 164.92 C 113.04 165.09 113.83 164.55 114.00 163.73 C 114.16 162.91 113.62 162.12 112.80 161.96 L 111.85 161.77 C 111.03 161.61 110.24 162.14 110.07 162.96 C 109.91 163.78 110.45 164.58 111.27 164.74 Z M 112.23 164.93 L 113.24 165.12 C 114.06 165.27 114.85 164.73 115.00 163.91 C 115.16 163.09 114.62 162.30 113.80 162.15 L 112.79 161.96 C 111.97 161.80 111.18 162.34 111.03 163.16 C 110.87 163.98 111.41 164.77 112.23 164.93 Z M 113.26 165.12 L 114.24 165.29 C 115.07 165.43 115.85 164.87 115.99 164.05 C 116.13 163.23 115.57 162.45 114.75 162.31 L 113.77 162.14 C 112.95 162.00 112.17 162.55 112.03 163.38 C 111.89 164.20 112.44 164.98 113.26 165.12 Z M 114.27 165.29 L 115.26 165.44 C 116.08 165.57 116.85 165.01 116.98 164.18 C 117.11 163.36 116.55 162.59 115.72 162.46 L 114.73 162.30 C 113.91 162.18 113.13 162.74 113.00 163.56 C 112.88 164.39 113.44 165.16 114.27 165.29 Z M 115.27 165.45 L 116.27 165.59 C 117.09 165.72 117.86 165.15 117.98 164.32 C 118.11 163.50 117.54 162.73 116.71 162.60 L 115.71 162.46 C 114.88 162.33 114.12 162.90 113.99 163.73 C 113.87 164.55 114.44 165.32 115.27 165.45 Z M 116.27 165.60 L 117.26 165.74 C 118.08 165.86 118.85 165.29 118.97 164.46 C 119.09 163.64 118.52 162.87 117.70 162.75 L 116.71 162.60 C 115.88 162.48 115.12 163.05 114.99 163.88 C 114.87 164.71 115.44 165.47 116.27 165.60 Z M 117.26 165.74 L 118.25 165.89 C 119.07 166.01 119.84 165.44 119.96 164.61 C 120.09 163.79 119.52 163.02 118.69 162.90 L 117.70 162.75 C 116.87 162.63 116.10 163.20 115.98 164.02 C 115.86 164.85 116.43 165.62 117.26 165.74 Z M 118.24 165.89 L 119.22 166.03 C 120.05 166.16 120.82 165.59 120.94 164.76 C 121.07 163.94 120.50 163.17 119.67 163.04 L 118.69 162.90 C 117.87 162.77 117.10 163.34 116.97 164.17 C 116.85 164.99 117.42 165.76 118.24 165.89 Z M 119.22 166.03 L 120.20 166.18 C 121.03 166.30 121.80 165.73 121.92 164.91 C 122.04 164.08 121.47 163.31 120.65 163.19 L 119.67 163.04 C 118.84 162.92 118.07 163.49 117.95 164.31 C 117.83 165.14 118.40 165.91 119.22 166.03 Z M 120.21 166.18 L 121.22 166.33 C 122.04 166.45 122.81 165.87 122.93 165.05 C 123.05 164.22 122.48 163.45 121.65 163.33 L 120.64 163.19 C 119.81 163.07 119.05 163.64 118.93 164.47 C 118.81 165.29 119.38 166.06 120.21 166.18 Z M 121.23 166.33 L 122.23 166.47 C 123.06 166.58 123.82 166.00 123.93 165.17 C 124.05 164.34 123.47 163.58 122.64 163.47 L 121.64 163.33 C 120.81 163.22 120.05 163.80 119.93 164.63 C 119.82 165.45 120.40 166.22 121.23 166.33 Z M 122.24 166.47 L 123.25 166.59 C 124.08 166.70 124.84 166.11 124.94 165.29 C 125.05 164.46 124.46 163.70 123.63 163.59 L 122.63 163.47 C 121.80 163.36 121.04 163.95 120.93 164.78 C 120.83 165.60 121.42 166.36 122.24 166.47 Z M 123.26 166.60 L 124.24 166.71 C 125.07 166.81 125.82 166.22 125.92 165.39 C 126.02 164.56 125.42 163.81 124.59 163.71 L 123.62 163.59 C 122.79 163.49 122.04 164.09 121.94 164.92 C 121.84 165.75 122.43 166.50 123.26 166.60 Z M 124.25 166.71 L 125.29 166.83 C 126.12 166.92 126.86 166.32 126.95 165.49 C 127.04 164.65 126.44 163.91 125.61 163.82 L 124.58 163.71 C 123.75 163.62 123.00 164.22 122.91 165.05 C 122.82 165.88 123.42 166.62 124.25 166.71 Z M 125.30 166.83 L 126.27 166.92 C 127.10 167.01 127.85 166.40 127.93 165.57 C 128.01 164.74 127.40 164.00 126.57 163.91 L 125.60 163.82 C 124.77 163.73 124.03 164.34 123.94 165.17 C 123.86 166.00 124.47 166.75 125.30 166.83 Z M 126.28 166.93 L 127.26 167.02 C 128.09 167.09 128.83 166.48 128.91 165.65 C 128.98 164.82 128.37 164.08 127.54 164.00 L 126.56 163.91 C 125.73 163.83 124.99 164.45 124.92 165.28 C 124.84 166.11 125.45 166.85 126.28 166.93 Z M 127.27 167.02 L 128.26 167.11 C 129.09 167.18 129.83 166.56 129.90 165.73 C 129.98 164.90 129.36 164.16 128.53 164.09 L 127.53 164.00 C 126.70 163.93 125.97 164.54 125.89 165.38 C 125.82 166.21 126.43 166.94 127.27 167.02 Z M 128.27 167.11 L 129.27 167.19 C 130.10 167.26 130.83 166.64 130.90 165.81 C 130.97 164.97 130.35 164.24 129.52 164.17 L 128.52 164.09 C 127.69 164.02 126.96 164.64 126.89 165.47 C 126.82 166.31 127.44 167.04 128.27 167.11 Z M 129.28 167.19 L 130.28 167.26 C 131.11 167.33 131.84 166.70 131.90 165.87 C 131.96 165.03 131.33 164.31 130.50 164.24 L 129.50 164.17 C 128.67 164.11 127.94 164.73 127.88 165.57 C 127.82 166.40 128.45 167.13 129.28 167.19 Z M 130.30 167.27 L 131.29 167.33 C 132.13 167.38 132.85 166.74 132.90 165.91 C 132.95 165.07 132.31 164.36 131.48 164.30 L 130.48 164.24 C 129.65 164.19 128.93 164.83 128.88 165.66 C 128.83 166.50 129.46 167.21 130.30 167.27 Z M 131.32 167.33 L 132.32 167.37 C 133.15 167.41 133.86 166.76 133.90 165.93 C 133.94 165.09 133.29 164.39 132.45 164.35 L 131.45 164.30 C 130.62 164.27 129.91 164.91 129.87 165.75 C 129.84 166.58 130.48 167.29 131.32 167.33 Z M 132.34 167.37 L 133.33 167.41 C 134.17 167.44 134.87 166.78 134.90 165.94 C 134.93 165.11 134.27 164.41 133.44 164.38 L 132.44 164.35 C 131.60 164.32 130.90 164.97 130.87 165.81 C 130.84 166.65 131.50 167.35 132.34 167.37 Z M 133.34 167.41 L 134.33 167.44 C 135.16 167.46 135.86 166.81 135.89 165.97 C 135.91 165.14 135.26 164.44 134.42 164.41 L 133.43 164.38 C 132.60 164.35 131.90 165.01 131.87 165.85 C 131.85 166.68 132.50 167.38 133.34 167.41 Z M 134.33 167.44 L 135.31 167.47 C 136.15 167.49 136.84 166.84 136.87 166.00 C 136.90 165.17 136.24 164.47 135.40 164.44 L 134.42 164.41 C 133.59 164.38 132.89 165.04 132.86 165.88 C 132.83 166.71 133.49 167.41 134.33 167.44 Z M 135.32 167.47 L 136.34 167.49 C 137.18 167.51 137.87 166.85 137.89 166.02 C 137.91 165.18 137.25 164.48 136.41 164.46 L 135.39 164.44 C 134.56 164.42 133.86 165.08 133.84 165.92 C 133.82 166.76 134.48 167.45 135.32 167.47 Z M 136.36 167.49 L 137.37 167.51 C 138.20 167.52 138.89 166.85 138.90 166.01 C 138.91 165.17 138.24 164.49 137.40 164.48 L 136.40 164.46 C 135.56 164.45 134.87 165.12 134.86 165.96 C 134.85 166.80 135.52 167.48 136.36 167.49 Z M 137.38 167.51 L 138.39 167.51 C 139.23 167.51 139.91 166.84 139.91 166.00 C 139.92 165.16 139.24 164.48 138.40 164.48 L 137.39 164.48 C 136.55 164.47 135.87 165.15 135.87 165.99 C 135.87 166.82 136.54 167.50 137.38 167.51 Z M 138.40 167.51 L 139.40 167.51 C 140.24 167.51 140.91 166.83 140.91 166.00 C 140.92 165.16 140.24 164.48 139.40 164.48 L 138.40 164.48 C 137.56 164.48 136.88 165.16 136.88 165.99 C 136.88 166.83 137.56 167.51 138.40 167.51 Z M 139.40 167.51 L 140.42 167.51 C 141.26 167.51 141.94 166.83 141.94 166.00 C 141.94 165.16 141.26 164.48 140.42 164.48 L 139.40 164.48 C 138.56 164.48 137.88 165.16 137.88 166.00 C 137.88 166.83 138.56 167.51 139.40 167.51 Z M 140.42 167.51 L 141.39 167.51 C 142.23 167.51 142.90 166.83 142.90 166.00 C 142.90 165.16 142.23 164.48 141.39 164.48 L 140.42 164.48 C 139.58 164.48 138.91 165.16 138.91 166.00 C 138.91 166.83 139.58 167.51 140.42 167.51 Z M 141.39 167.51 L 142.40 167.51 C 143.23 167.51 143.91 166.83 143.91 166.00 C 143.91 165.16 143.23 164.48 142.40 164.48 L 141.39 164.48 C 140.55 164.48 139.87 165.16 139.87 166.00 C 139.87 166.83 140.55 167.51 141.39 167.51 Z M 142.40 167.51 L 143.39 167.51 C 144.23 167.51 144.91 166.83 144.91 166.00 C 144.91 165.16 144.23 164.48 143.39 164.48 L 142.40 164.48 C 141.56 164.48 140.88 165.16 140.88 166.00 C 140.88 166.83 141.56 167.51 142.40 167.51 Z M 143.39 167.51 L 144.40 167.51 C 145.24 167.51 145.91 166.83 145.91 165.99 C 145.91 165.16 145.23 164.48 144.40 164.48 L 143.39 164.48 C 142.55 164.48 141.88 165.16 141.88 166.00 C 141.88 166.83 142.56 167.51 143.39 167.51 Z M 144.42 167.51 L 145.41 167.50 C 146.25 167.49 146.92 166.80 146.90 165.96 C 146.89 165.12 146.21 164.46 145.37 164.47 L 144.38 164.48 C 143.54 164.49 142.87 165.18 142.88 166.01 C 142.89 166.85 143.58 167.52 144.42 167.51 Z M 145.45 167.50 L 146.46 167.45 C 147.29 167.42 147.94 166.71 147.91 165.88 C 147.87 165.04 147.17 164.39 146.33 164.43 L 145.33 164.47 C 144.49 164.50 143.84 165.21 143.88 166.04 C 143.91 166.88 144.62 167.53 145.45 167.50 Z M 146.49 167.45 L 147.48 167.39 C 148.32 167.34 148.96 166.62 148.90 165.78 C 148.85 164.95 148.13 164.31 147.30 164.37 L 146.30 164.43 C 145.46 164.48 144.83 165.20 144.88 166.03 C 144.93 166.87 145.65 167.50 146.49 167.45 Z M 147.48 167.39 L 148.47 167.33 C 149.31 167.28 149.95 166.56 149.90 165.73 C 149.85 164.89 149.13 164.26 148.29 164.31 L 147.30 164.36 C 146.47 164.41 145.83 165.13 145.88 165.97 C 145.93 166.80 146.64 167.44 147.48 167.39 Z M 148.46 167.33 L 149.45 167.28 C 150.29 167.24 150.93 166.53 150.89 165.70 C 150.85 164.86 150.14 164.22 149.30 164.26 L 148.31 164.31 C 147.47 164.35 146.83 165.06 146.87 165.89 C 146.91 166.73 147.62 167.37 148.46 167.33 Z M 149.44 167.28 L 150.30 167.25 C 151.14 167.21 151.79 166.50 151.75 165.67 C 151.72 164.83 151.01 164.18 150.17 164.22 L 149.31 164.26 C 148.47 164.29 147.83 165.00 147.86 165.84 C 147.90 166.67 148.60 167.32 149.44 167.28 Z M 150.28 167.25 L 151.29 167.22 C 152.13 167.19 152.78 166.49 152.76 165.66 C 152.73 164.82 152.04 164.16 151.20 164.19 L 150.19 164.22 C 149.36 164.24 148.70 164.94 148.72 165.78 C 148.75 166.62 149.45 167.27 150.28 167.25 Z M 151.27 167.22 L 152.38 167.20 C 153.21 167.19 153.88 166.50 153.87 165.66 C 153.86 164.83 153.17 164.16 152.33 164.17 L 151.22 164.19 C 150.38 164.20 149.72 164.89 149.73 165.73 C 149.74 166.56 150.43 167.23 151.27 167.22 Z M 152.36 167.20 L 153.40 167.20 C 154.23 167.19 154.91 166.51 154.90 165.67 C 154.90 164.83 154.21 164.16 153.38 164.16 L 152.34 164.17 C 151.51 164.18 150.83 164.86 150.84 165.70 C 150.84 166.53 151.52 167.21 152.36 167.20 Z M 153.39 167.20 L 154.44 167.19 C 155.28 167.19 155.95 166.51 155.95 165.67 C 155.95 164.84 155.27 164.16 154.43 164.16 L 153.38 164.16 C 152.55 164.17 151.87 164.85 151.87 165.68 C 151.87 166.52 152.55 167.20 153.39 167.20 Z M 154.44 167.19 L 155.38 167.19 C 156.22 167.19 156.90 166.51 156.90 165.68 C 156.90 164.84 156.22 164.16 155.38 164.16 L 154.44 164.16 C 153.60 164.16 152.92 164.84 152.92 165.68 C 152.92 166.52 153.60 167.19 154.44 167.19 Z M 155.38 167.19 L 156.53 167.19 C 157.37 167.20 158.05 166.52 158.05 165.68 C 158.05 164.84 157.37 164.16 156.54 164.16 L 155.39 164.16 C 154.55 164.16 153.87 164.84 153.87 165.68 C 153.87 166.51 154.55 167.19 155.38 167.19 Z M 156.52 167.19 L 157.38 167.20 C 158.22 167.21 158.90 166.54 158.91 165.71 C 158.92 164.87 158.25 164.18 157.42 164.17 L 156.55 164.16 C 155.72 164.15 155.03 164.82 155.02 165.66 C 155.01 166.50 155.68 167.18 156.52 167.19 Z M 157.35 167.20 L 158.31 167.24 C 159.15 167.27 159.85 166.61 159.88 165.77 C 159.91 164.94 159.25 164.24 158.42 164.21 L 157.45 164.17 C 156.61 164.15 155.91 164.80 155.88 165.64 C 155.86 166.47 156.51 167.17 157.35 167.20 Z M 158.26 167.23 L 159.27 167.30 C 160.11 167.36 160.83 166.73 160.89 165.89 C 160.94 165.06 160.31 164.34 159.48 164.28 L 158.47 164.21 C 157.63 164.15 156.91 164.79 156.85 165.62 C 156.80 166.45 157.43 167.18 158.26 167.23 Z M 159.21 167.30 L 160.21 167.41 C 161.04 167.50 161.79 166.90 161.88 166.07 C 161.97 165.24 161.37 164.49 160.54 164.40 L 159.54 164.29 C 158.71 164.19 157.96 164.79 157.87 165.62 C 157.78 166.45 158.37 167.20 159.21 167.30 Z M 160.17 167.40 L 161.15 167.53 C 161.98 167.65 162.74 167.06 162.85 166.23 C 162.96 165.40 162.38 164.64 161.55 164.53 L 160.57 164.40 C 159.74 164.29 158.98 164.87 158.87 165.70 C 158.76 166.53 159.34 167.29 160.17 167.40 Z M 161.15 167.53 L 162.14 167.66 C 162.97 167.77 163.73 167.19 163.84 166.36 C 163.95 165.53 163.36 164.77 162.53 164.66 L 161.55 164.53 C 160.72 164.42 159.96 165.01 159.85 165.84 C 159.74 166.67 160.32 167.43 161.15 167.53 Z M 162.15 167.66 L 163.14 167.79 C 163.97 167.90 164.73 167.31 164.84 166.48 C 164.94 165.65 164.35 164.89 163.52 164.79 L 162.53 164.66 C 161.70 164.56 160.94 165.14 160.83 165.97 C 160.73 166.80 161.32 167.56 162.15 167.66 Z M 163.15 167.79 L 164.15 167.91 C 164.98 168.01 165.73 167.42 165.83 166.59 C 165.93 165.76 165.34 165.01 164.51 164.91 L 163.52 164.79 C 162.69 164.68 161.93 165.27 161.83 166.10 C 161.73 166.93 162.32 167.69 163.15 167.79 Z M 164.15 167.91 L 165.15 168.03 C 165.98 168.13 166.73 167.54 166.83 166.71 C 166.93 165.88 166.34 165.13 165.51 165.03 L 164.51 164.91 C 163.68 164.81 162.93 165.40 162.83 166.23 C 162.73 167.06 163.32 167.81 164.15 167.91 Z M 165.16 168.04 L 166.15 168.15 C 166.98 168.24 167.73 167.65 167.83 166.82 C 167.92 165.99 167.33 165.24 166.50 165.14 L 165.50 165.03 C 164.67 164.93 163.92 165.53 163.83 166.36 C 163.73 167.19 164.33 167.94 165.16 168.04 Z M 166.18 168.15 L 167.16 168.25 C 167.99 168.33 168.73 167.72 168.82 166.89 C 168.90 166.06 168.29 165.32 167.46 165.23 L 166.47 165.14 C 165.64 165.06 164.90 165.67 164.82 166.50 C 164.74 167.33 165.34 168.07 166.18 168.15 Z M 167.20 168.25 L 168.19 168.33 C 169.03 168.39 169.75 167.76 169.82 166.93 C 169.88 166.10 169.25 165.37 168.42 165.31 L 167.42 165.23 C 166.59 165.17 165.86 165.79 165.80 166.63 C 165.74 167.46 166.36 168.19 167.20 168.25 Z M 168.22 168.33 L 169.24 168.38 C 170.07 168.43 170.79 167.79 170.83 166.96 C 170.88 166.12 170.24 165.41 169.41 165.36 L 168.39 165.30 C 167.56 165.26 166.84 165.90 166.79 166.73 C 166.75 167.57 167.39 168.28 168.22 168.33 Z M 169.24 168.39 L 170.24 168.44 C 171.08 168.48 171.79 167.84 171.83 167.00 C 171.88 166.17 171.23 165.46 170.40 165.41 L 169.40 165.36 C 168.57 165.32 167.85 165.96 167.81 166.79 C 167.77 167.63 168.41 168.34 169.24 168.39 Z M 170.21 168.44 L 171.24 168.51 C 172.07 168.57 172.79 167.94 172.85 167.10 C 172.91 166.27 172.28 165.55 171.45 165.49 L 170.43 165.42 C 169.59 165.36 168.87 165.98 168.81 166.82 C 168.75 167.65 169.38 168.38 170.21 168.44 Z M 171.21 168.51 L 172.15 168.59 C 172.98 168.67 173.72 168.05 173.79 167.22 C 173.87 166.39 173.25 165.65 172.42 165.57 L 171.48 165.49 C 170.64 165.41 169.91 166.03 169.83 166.86 C 169.76 167.69 170.37 168.43 171.21 168.51 Z M 172.15 168.59 L 173.00 168.67 C 173.83 168.74 174.57 168.13 174.64 167.29 C 174.72 166.46 174.10 165.73 173.27 165.65 L 172.42 165.57 C 171.59 165.50 170.85 166.11 170.78 166.95 C 170.70 167.78 171.32 168.52 172.15 168.59 Z M 173.02 168.67 L 174.17 168.75 C 175.01 168.81 175.73 168.19 175.79 167.35 C 175.85 166.52 175.23 165.79 174.39 165.73 L 173.24 165.65 C 172.41 165.59 171.68 166.21 171.62 167.05 C 171.56 167.88 172.19 168.61 173.02 168.67 Z M 174.19 168.75 L 175.11 168.81 C 175.94 168.86 176.66 168.23 176.71 167.39 C 176.76 166.56 176.13 165.84 175.29 165.79 L 174.38 165.73 C 173.54 165.68 172.82 166.32 172.77 167.15 C 172.72 167.99 173.36 168.70 174.19 168.75 Z M 175.12 168.81 L 176.15 168.87 C 176.98 168.91 177.70 168.27 177.74 167.44 C 177.79 166.60 177.15 165.89 176.31 165.84 L 175.28 165.79 C 174.44 165.74 173.73 166.38 173.69 167.22 C 173.64 168.05 174.28 168.77 175.12 168.81 Z M 176.16 168.87 L 177.22 168.91 C 178.05 168.95 178.76 168.30 178.80 167.47 C 178.83 166.63 178.19 165.93 177.35 165.89 L 176.30 165.84 C 175.46 165.80 174.75 166.45 174.72 167.29 C 174.68 168.12 175.33 168.83 176.16 168.87 Z M 177.24 168.92 L 178.31 168.95 C 179.15 168.98 179.85 168.32 179.88 167.48 C 179.90 166.65 179.25 165.95 178.41 165.92 L 177.33 165.89 C 176.50 165.86 175.80 166.52 175.77 167.35 C 175.74 168.19 176.40 168.89 177.24 168.92 Z M 178.34 168.95 L 179.37 168.97 C 180.21 168.98 180.90 168.31 180.91 167.48 C 180.93 166.64 180.26 165.95 179.42 165.94 L 178.39 165.92 C 177.55 165.91 176.86 166.57 176.85 167.41 C 176.83 168.25 177.50 168.94 178.34 168.95 Z M 179.39 168.97 L 180.33 168.97 C 181.17 168.98 181.85 168.30 181.86 167.47 C 181.86 166.63 181.19 165.95 180.35 165.94 L 179.40 165.94 C 178.57 165.93 177.89 166.61 177.88 167.45 C 177.88 168.28 178.55 168.96 179.39 168.97 Z M 180.34 168.97 L 181.30 168.97 C 182.14 168.97 182.82 168.30 182.82 167.46 C 182.82 166.62 182.14 165.94 181.30 165.94 L 180.34 165.94 C 179.51 165.94 178.83 166.62 178.83 167.46 C 178.83 168.29 179.51 168.97 180.34 168.97 Z M 181.30 168.97 L 182.30 168.97 C 183.14 168.97 183.82 168.29 183.82 167.46 C 183.82 166.62 183.14 165.94 182.30 165.94 L 181.30 165.94 C 180.47 165.94 179.79 166.62 179.79 167.46 C 179.79 168.29 180.47 168.97 181.30 168.97 Z M 182.30 168.97 L 183.29 168.97 C 184.13 168.97 184.81 168.29 184.81 167.46 C 184.81 166.62 184.13 165.94 183.29 165.94 L 182.30 165.94 C 181.47 165.94 180.79 166.62 180.79 167.46 C 180.79 168.29 181.47 168.97 182.30 168.97 Z M 183.29 168.97 L 184.34 168.97 C 185.18 168.97 185.86 168.30 185.86 167.46 C 185.86 166.62 185.18 165.94 184.34 165.94 L 183.29 165.94 C 182.46 165.94 181.78 166.62 181.78 167.46 C 181.78 168.30 182.46 168.97 183.29 168.97 Z M 184.34 168.97 L 185.34 168.97 C 186.18 168.97 186.86 168.30 186.86 167.46 C 186.86 166.62 186.18 165.94 185.34 165.94 L 184.34 165.94 C 183.50 165.94 182.82 166.62 182.82 167.46 C 182.82 168.30 183.50 168.97 184.34 168.97 Z M 185.34 168.97 L 186.31 168.97 C 187.15 168.97 187.83 168.29 187.83 167.46 C 187.83 166.62 187.15 165.94 186.31 165.94 L 185.34 165.94 C 184.50 165.94 183.82 166.62 183.82 167.46 C 183.82 168.30 184.50 168.98 185.34 168.97 Z M 186.33 168.97 L 187.30 168.96 C 188.13 168.96 188.81 168.27 188.80 167.43 C 188.79 166.59 188.10 165.92 187.26 165.93 L 186.30 165.94 C 185.46 165.95 184.78 166.64 184.79 167.47 C 184.80 168.31 185.49 168.98 186.33 168.97 Z M 187.33 168.96 L 188.27 168.93 C 189.11 168.90 189.77 168.20 189.74 167.36 C 189.71 166.53 189.01 165.87 188.17 165.90 L 187.23 165.93 C 186.39 165.96 185.73 166.66 185.76 167.50 C 185.79 168.34 186.49 168.99 187.33 168.96 Z M 188.29 168.93 L 189.26 168.89 C 190.09 168.85 190.74 168.14 190.71 167.31 C 190.67 166.47 189.96 165.82 189.12 165.86 L 188.15 165.90 C 187.32 165.94 186.67 166.65 186.71 167.48 C 186.74 168.32 187.45 168.97 188.29 168.93 Z M 189.24 168.89 L 190.34 168.85 C 191.18 168.82 191.83 168.12 191.81 167.28 C 191.78 166.44 191.07 165.79 190.24 165.82 L 189.14 165.86 C 188.30 165.88 187.64 166.59 187.67 167.43 C 187.70 168.26 188.40 168.92 189.24 168.89 Z M 190.32 168.85 L 191.33 168.83 C 192.17 168.82 192.84 168.13 192.82 167.29 C 192.81 166.45 192.11 165.78 191.28 165.80 L 190.26 165.82 C 189.42 165.83 188.76 166.52 188.77 167.36 C 188.79 168.20 189.48 168.87 190.32 168.85 Z M 191.31 168.83 L 192.34 168.83 C 193.18 168.82 193.85 168.14 193.85 167.30 C 193.84 166.46 193.16 165.79 192.32 165.79 L 191.29 165.80 C 190.46 165.80 189.78 166.49 189.79 167.33 C 189.79 168.16 190.47 168.84 191.31 168.83 Z M 192.33 168.83 L 193.30 168.83 C 194.13 168.83 194.81 168.15 194.81 167.31 C 194.81 166.47 194.13 165.79 193.29 165.79 L 192.33 165.79 C 191.49 165.79 190.81 166.47 190.81 167.31 C 190.81 168.15 191.49 168.83 192.33 168.83 Z M 193.29 168.83 L 194.39 168.83 C 195.22 168.83 195.90 168.15 195.90 167.31 C 195.90 166.47 195.22 165.79 194.39 165.79 L 193.29 165.79 C 192.46 165.79 191.78 166.47 191.78 167.31 C 191.78 168.15 192.46 168.83 193.29 168.83 Z M 194.39 168.83 L 195.32 168.83 C 196.16 168.83 196.84 168.15 196.84 167.31 C 196.84 166.47 196.16 165.79 195.32 165.79 L 194.39 165.79 C 193.55 165.79 192.87 166.47 192.87 167.31 C 192.87 168.15 193.55 168.83 194.39 168.83 Z M 195.32 168.83 L 196.31 168.83 C 197.15 168.83 197.83 168.15 197.83 167.31 C 197.83 166.47 197.15 165.79 196.31 165.79 L 195.32 165.79 C 194.48 165.79 193.80 166.47 193.80 167.31 C 193.80 168.15 194.48 168.83 195.32 168.83 Z M 196.31 168.83 L 197.29 168.83 C 198.13 168.83 198.81 168.15 198.81 167.31 C 198.81 166.47 198.13 165.79 197.29 165.79 L 196.31 165.79 C 195.47 165.79 194.79 166.47 194.79 167.31 C 194.79 168.15 195.47 168.83 196.31 168.83 Z M 197.29 168.83 L 198.28 168.83 C 199.11 168.83 199.79 168.15 199.79 167.31 C 199.79 166.47 199.11 165.79 198.28 165.79 L 197.29 165.79 C 196.45 165.79 195.77 166.47 195.77 167.31 C 195.77 168.15 196.45 168.83 197.29 168.83 Z M 198.28 168.83 L 199.29 168.83 C 200.12 168.83 200.80 168.15 200.80 167.31 C 200.80 166.47 200.12 165.79 199.29 165.79 L 198.28 165.79 C 197.44 165.79 196.76 166.47 196.76 167.31 C 196.76 168.15 197.44 168.83 198.28 168.83 Z M 199.30 168.83 L 200.30 168.82 C 201.14 168.81 201.81 168.13 201.80 167.29 C 201.80 166.45 201.11 165.78 200.27 165.78 L 199.27 165.79 C 198.44 165.80 197.76 166.48 197.77 167.32 C 197.78 168.16 198.46 168.83 199.30 168.83 Z M 200.35 168.82 L 201.34 168.77 C 202.17 168.73 202.82 168.03 202.78 167.19 C 202.75 166.35 202.04 165.70 201.20 165.74 L 200.22 165.79 C 199.38 165.82 198.73 166.53 198.77 167.37 C 198.81 168.21 199.52 168.85 200.35 168.82 Z M 201.41 168.77 L 202.35 168.68 C 203.18 168.60 203.79 167.86 203.71 167.02 C 203.63 166.19 202.89 165.58 202.06 165.66 L 201.12 165.75 C 200.29 165.83 199.68 166.57 199.76 167.40 C 199.84 168.24 200.58 168.85 201.41 168.77 Z M 202.38 168.67 L 203.45 168.55 C 204.28 168.45 204.87 167.69 204.77 166.86 C 204.67 166.03 203.92 165.44 203.09 165.54 L 202.02 165.66 C 201.19 165.76 200.60 166.52 200.70 167.35 C 200.80 168.18 201.55 168.77 202.38 168.67 Z M 203.45 168.54 L 204.42 168.43 C 205.26 168.33 205.85 167.57 205.75 166.74 C 205.65 165.91 204.89 165.32 204.06 165.42 L 203.09 165.54 C 202.26 165.64 201.66 166.39 201.76 167.22 C 201.86 168.05 202.62 168.64 203.45 168.54 Z M 204.43 168.43 L 205.45 168.30 C 206.28 168.20 206.87 167.44 206.77 166.61 C 206.67 165.78 205.92 165.19 205.09 165.29 L 204.06 165.42 C 203.23 165.52 202.64 166.28 202.74 167.11 C 202.84 167.94 203.60 168.53 204.43 168.43 Z M 205.46 168.30 L 206.48 168.17 C 207.31 168.06 207.90 167.30 207.79 166.47 C 207.68 165.64 206.92 165.06 206.09 165.16 L 205.08 165.30 C 204.25 165.40 203.66 166.16 203.77 166.99 C 203.88 167.82 204.64 168.41 205.46 168.30 Z M 206.49 168.17 L 207.51 168.03 C 208.34 167.91 208.92 167.15 208.81 166.32 C 208.70 165.49 207.93 164.91 207.10 165.03 L 206.08 165.17 C 205.26 165.28 204.68 166.04 204.79 166.87 C 204.90 167.70 205.67 168.28 206.49 168.17 Z M 207.50 168.03 L 208.43 167.91 C 209.26 167.81 209.84 167.05 209.74 166.22 C 209.64 165.39 208.88 164.80 208.05 164.91 L 207.12 165.02 C 206.29 165.13 205.70 165.89 205.81 166.71 C 205.91 167.54 206.67 168.13 207.50 168.03 Z M 208.38 167.92 L 209.36 167.82 C 210.19 167.74 210.80 167.00 210.72 166.17 C 210.64 165.34 209.90 164.73 209.07 164.81 L 208.09 164.90 C 207.26 164.98 206.65 165.72 206.73 166.55 C 206.81 167.39 207.55 167.99 208.38 167.92 Z M 209.34 167.82 L 210.34 167.74 C 211.18 167.67 211.80 166.94 211.73 166.11 C 211.66 165.28 210.93 164.66 210.10 164.73 L 209.09 164.81 C 208.26 164.87 207.64 165.60 207.71 166.44 C 207.77 167.27 208.50 167.89 209.34 167.82 Z M 210.35 167.74 L 211.36 167.65 C 212.19 167.58 212.81 166.85 212.74 166.02 C 212.67 165.19 211.93 164.57 211.10 164.64 L 210.09 164.73 C 209.26 164.80 208.64 165.53 208.71 166.36 C 208.78 167.20 209.52 167.81 210.35 167.74 Z M 211.35 167.65 L 212.36 167.57 C 213.19 167.51 213.81 166.78 213.74 165.94 C 213.67 165.11 212.94 164.49 212.11 164.56 L 211.11 164.64 C 210.28 164.71 209.66 165.44 209.72 166.27 C 209.79 167.10 210.52 167.72 211.35 167.65 Z M 212.31 167.58 L 213.33 167.52 C 214.16 167.48 214.80 166.77 214.76 165.93 C 214.71 165.10 214.00 164.46 213.17 164.50 L 212.15 164.56 C 211.32 164.60 210.68 165.31 210.72 166.15 C 210.77 166.98 211.48 167.62 212.31 167.58 Z M 213.27 167.52 L 214.27 167.51 C 215.11 167.49 215.77 166.81 215.76 165.97 C 215.75 165.14 215.06 164.47 214.22 164.48 L 213.22 164.50 C 212.39 164.51 211.72 165.20 211.74 166.04 C 211.75 166.87 212.44 167.54 213.27 167.52 Z M 214.25 167.51 L 215.23 167.51 C 216.07 167.51 216.74 166.83 216.74 165.99 C 216.74 165.16 216.07 164.48 215.23 164.48 L 214.25 164.48 C 213.41 164.49 212.74 165.16 212.74 166.00 C 212.74 166.83 213.41 167.51 214.25 167.51 Z M 215.23 167.51 L 216.23 167.51 C 217.06 167.51 217.74 166.83 217.74 166.00 C 217.74 165.16 217.06 164.48 216.23 164.48 L 215.23 164.48 C 214.40 164.48 213.72 165.16 213.72 166.00 C 213.72 166.83 214.40 167.51 215.23 167.51 Z M 216.23 167.51 L 217.22 167.51 C 218.06 167.51 218.74 166.83 218.74 166.00 C 218.74 165.16 218.06 164.48 217.22 164.48 L 216.23 164.48 C 215.39 164.48 214.71 165.16 214.71 166.00 C 214.71 166.83 215.39 167.51 216.23 167.51 Z M 217.22 167.51 L 218.22 167.51 C 219.06 167.51 219.73 166.83 219.73 166.00 C 219.73 165.16 219.06 164.48 218.22 164.48 L 217.22 164.48 C 216.39 164.48 215.71 165.16 215.71 166.00 C 215.71 166.83 216.39 167.51 217.22 167.51 Z M 218.21 167.51 L 219.22 167.51 C 220.06 167.52 220.74 166.84 220.74 166.01 C 220.74 165.17 220.07 164.49 219.24 164.49 L 218.23 164.48 C 217.39 164.48 216.71 165.15 216.71 165.99 C 216.71 166.82 217.38 167.50 218.21 167.51 Z M 219.15 167.51 L 220.15 167.56 C 220.98 167.60 221.69 166.96 221.73 166.12 C 221.77 165.29 221.13 164.58 220.30 164.54 L 219.30 164.49 C 218.47 164.45 217.76 165.09 217.72 165.93 C 217.68 166.76 218.32 167.47 219.15 167.51 Z M 219.98 167.54 L 220.97 167.70 C 221.79 167.83 222.57 167.27 222.70 166.45 C 222.84 165.63 222.28 164.85 221.45 164.72 L 220.46 164.56 C 219.64 164.43 218.87 164.99 218.73 165.81 C 218.60 166.63 219.16 167.41 219.98 167.54 Z M 220.66 167.61 L 221.58 167.97 C 222.36 168.28 223.23 167.89 223.54 167.12 C 223.84 166.34 223.46 165.47 222.68 165.17 L 221.76 164.81 C 220.99 164.50 220.11 164.89 219.81 165.66 C 219.51 166.44 219.89 167.31 220.66 167.61 Z M 221.39 167.88 L 222.26 168.37 C 222.98 168.78 223.90 168.53 224.31 167.81 C 224.72 167.09 224.47 166.17 223.75 165.76 L 222.88 165.26 C 222.16 164.85 221.24 165.10 220.83 165.82 C 220.41 166.55 220.67 167.47 221.39 167.88 Z M 222.29 168.39 L 223.17 168.86 C 223.90 169.26 224.81 168.98 225.20 168.25 C 225.60 167.52 225.33 166.61 224.59 166.22 L 223.71 165.74 C 222.98 165.35 222.07 165.62 221.68 166.35 C 221.29 167.08 221.56 167.99 222.29 168.39 Z M 223.20 168.88 L 223.66 169.11 C 224.40 169.49 225.31 169.20 225.68 168.46 C 226.06 167.72 225.77 166.82 225.03 166.44 L 224.56 166.20 C 223.83 165.83 222.92 166.12 222.55 166.86 C 222.17 167.59 222.46 168.50 223.20 168.88 Z"
      fill="black"
      fill-rule="nonzero" /><path d="M 177.14 126.65 L 177.94 126.08 C 178.59 125.61 178.74 124.71 178.28 124.06 C 177.81 123.41 176.91 123.26 176.26 123.72 L 175.46 124.29 C 174.81 124.76 174.66 125.66 175.12 126.31 C 175.59 126.96 176.49 127.11 177.14 126.65 Z M 177.57 126.28 L 178.50 125.97 C 179.26 125.71 179.67 124.88 179.41 124.12 C 179.15 123.36 178.33 122.95 177.56 123.20 L 176.64 123.52 C 175.87 123.78 175.46 124.60 175.72 125.36 C 175.98 126.13 176.80 126.54 177.57 126.28 Z M 178.01 126.05 L 179.01 126.07 C 179.82 126.08 180.49 125.43 180.50 124.62 C 180.51 123.81 179.86 123.14 179.05 123.13 L 178.05 123.12 C 177.24 123.11 176.57 123.76 176.56 124.57 C 176.55 125.38 177.20 126.04 178.01 126.05 Z M 178.64 126.02 L 179.60 126.29 C 180.38 126.50 181.20 126.04 181.41 125.26 C 181.63 124.47 181.17 123.66 180.38 123.44 L 179.42 123.18 C 178.64 122.96 177.82 123.42 177.61 124.21 C 177.39 124.99 177.85 125.81 178.64 126.02 Z M 179.32 126.19 L 180.20 126.63 C 180.93 127.00 181.82 126.71 182.19 125.98 C 182.56 125.25 182.27 124.36 181.54 123.99 L 180.66 123.54 C 179.93 123.17 179.04 123.46 178.67 124.19 C 178.30 124.92 178.59 125.81 179.32 126.19 Z M 180.07 126.57 L 180.95 127.12 C 181.65 127.56 182.57 127.35 183.00 126.65 C 183.44 125.96 183.23 125.04 182.54 124.60 L 181.66 124.05 C 180.96 123.61 180.05 123.82 179.61 124.52 C 179.17 125.21 179.38 126.13 180.07 126.57 Z M 180.92 127.10 L 181.78 127.67 C 182.47 128.13 183.39 127.94 183.84 127.25 C 184.30 126.56 184.11 125.64 183.42 125.19 L 182.57 124.62 C 181.88 124.17 180.96 124.35 180.50 125.04 C 180.05 125.73 180.24 126.65 180.92 127.10 Z M 181.78 127.67 L 182.60 128.22 C 183.29 128.67 184.22 128.48 184.67 127.79 C 185.12 127.11 184.93 126.18 184.25 125.73 L 183.42 125.18 C 182.74 124.73 181.81 124.92 181.36 125.61 C 180.90 126.29 181.09 127.22 181.78 127.67 Z M 182.63 128.23 L 183.50 128.79 C 184.19 129.23 185.12 129.02 185.56 128.32 C 186.00 127.62 185.79 126.70 185.09 126.26 L 184.22 125.71 C 183.53 125.27 182.60 125.48 182.16 126.17 C 181.72 126.87 181.93 127.79 182.63 128.23 Z M 183.52 128.80 L 184.33 129.29 C 185.03 129.72 185.95 129.50 186.38 128.80 C 186.81 128.09 186.59 127.17 185.88 126.74 L 185.07 126.25 C 184.37 125.82 183.45 126.04 183.02 126.74 C 182.59 127.45 182.81 128.37 183.52 128.80 Z M 184.33 129.30 L 185.19 129.81 C 185.90 130.24 186.82 130.01 187.24 129.30 C 187.67 128.59 187.44 127.67 186.73 127.25 L 185.88 126.73 C 185.17 126.31 184.25 126.54 183.82 127.25 C 183.40 127.95 183.63 128.87 184.33 129.30 Z M 185.20 129.82 L 186.06 130.33 C 186.77 130.74 187.69 130.50 188.11 129.79 C 188.53 129.08 188.29 128.16 187.57 127.74 L 186.72 127.24 C 186.00 126.82 185.09 127.06 184.67 127.77 C 184.25 128.49 184.49 129.41 185.20 129.82 Z M 186.08 130.34 L 186.94 130.83 C 187.66 131.24 188.58 130.99 188.99 130.27 C 189.40 129.55 189.15 128.63 188.43 128.22 L 187.56 127.73 C 186.84 127.32 185.92 127.57 185.51 128.29 C 185.11 129.01 185.36 129.93 186.08 130.34 Z M 186.95 130.83 L 187.83 131.33 C 188.55 131.73 189.46 131.48 189.87 130.76 C 190.28 130.03 190.02 129.12 189.30 128.71 L 188.42 128.22 C 187.70 127.81 186.78 128.07 186.38 128.79 C 185.97 129.51 186.23 130.43 186.95 130.83 Z M 187.83 131.33 L 188.71 131.82 C 189.44 132.23 190.35 131.97 190.75 131.24 C 191.16 130.52 190.90 129.60 190.17 129.20 L 189.29 128.71 C 188.57 128.31 187.66 128.57 187.25 129.29 C 186.85 130.01 187.11 130.93 187.83 131.33 Z M 188.73 131.83 L 189.61 132.31 C 190.34 132.71 191.25 132.44 191.65 131.71 C 192.05 130.98 191.78 130.07 191.05 129.68 L 190.16 129.19 C 189.43 128.80 188.52 129.07 188.13 129.79 C 187.73 130.52 188.00 131.43 188.73 131.83 Z M 189.63 132.32 L 190.51 132.79 C 191.25 133.17 192.16 132.89 192.54 132.16 C 192.93 131.43 192.65 130.52 191.91 130.13 L 191.03 129.67 C 190.30 129.28 189.39 129.56 189.00 130.30 C 188.62 131.03 188.90 131.94 189.63 132.32 Z M 190.53 132.80 L 191.41 133.25 C 192.15 133.62 193.06 133.33 193.43 132.59 C 193.81 131.85 193.52 130.95 192.78 130.57 L 191.90 130.12 C 191.16 129.75 190.25 130.04 189.88 130.78 C 189.50 131.52 189.79 132.42 190.53 132.80 Z M 191.43 133.25 L 192.32 133.70 C 193.06 134.07 193.96 133.76 194.33 133.02 C 194.70 132.28 194.40 131.38 193.66 131.01 L 192.76 130.57 C 192.02 130.20 191.12 130.50 190.75 131.24 C 190.38 131.98 190.69 132.88 191.43 133.25 Z M 192.33 133.70 L 193.23 134.14 C 193.98 134.51 194.88 134.20 195.24 133.46 C 195.61 132.71 195.30 131.81 194.55 131.45 L 193.65 131.01 C 192.90 130.64 192.01 130.95 191.64 131.69 C 191.28 132.44 191.59 133.34 192.33 133.70 Z M 193.24 134.15 L 194.14 134.58 C 194.89 134.94 195.79 134.63 196.15 133.89 C 196.51 133.14 196.20 132.24 195.45 131.88 L 194.55 131.44 C 193.80 131.08 192.90 131.40 192.54 132.14 C 192.18 132.89 192.49 133.79 193.24 134.15 Z M 194.15 134.59 L 195.06 135.02 C 195.81 135.37 196.70 135.05 197.06 134.31 C 197.41 133.56 197.09 132.66 196.34 132.31 L 195.44 131.88 C 194.69 131.52 193.80 131.84 193.44 132.59 C 193.09 133.34 193.40 134.23 194.15 134.59 Z M 195.07 135.02 L 195.98 135.45 C 196.73 135.79 197.62 135.47 197.97 134.72 C 198.32 133.96 197.99 133.07 197.24 132.72 L 196.33 132.30 C 195.58 131.95 194.69 132.28 194.34 133.03 C 193.99 133.78 194.32 134.67 195.07 135.02 Z M 195.98 135.45 L 196.88 135.86 C 197.64 136.21 198.53 135.88 198.87 135.13 C 199.22 134.37 198.89 133.48 198.14 133.13 L 197.24 132.72 C 196.48 132.37 195.59 132.70 195.25 133.46 C 194.90 134.21 195.23 135.10 195.98 135.45 Z M 196.88 135.86 L 197.78 136.27 C 198.53 136.62 199.43 136.29 199.77 135.54 C 200.12 134.78 199.79 133.89 199.03 133.55 L 198.14 133.13 C 197.38 132.79 196.49 133.12 196.15 133.87 C 195.80 134.62 196.13 135.52 196.88 135.86 Z M 197.79 136.28 L 198.71 136.70 C 199.47 137.04 200.36 136.70 200.70 135.95 C 201.04 135.19 200.71 134.30 199.95 133.96 L 199.03 133.54 C 198.27 133.20 197.38 133.54 197.04 134.29 C 196.70 135.05 197.03 135.94 197.79 136.28 Z M 198.73 136.70 L 199.66 137.11 C 200.41 137.45 201.30 137.11 201.64 136.35 C 201.97 135.59 201.63 134.70 200.87 134.37 L 199.94 133.96 C 199.18 133.62 198.30 133.96 197.96 134.72 C 197.62 135.48 197.97 136.37 198.73 136.70 Z M 199.66 137.12 L 200.56 137.51 C 201.32 137.84 202.21 137.50 202.54 136.74 C 202.87 135.98 202.53 135.09 201.77 134.76 L 200.86 134.36 C 200.10 134.03 199.22 134.38 198.89 135.14 C 198.56 135.90 198.90 136.78 199.66 137.12 Z M 200.57 137.51 L 201.52 137.92 C 202.28 138.25 203.16 137.90 203.49 137.14 C 203.82 136.38 203.47 135.49 202.71 135.17 L 201.76 134.76 C 201.00 134.43 200.12 134.78 199.79 135.54 C 199.46 136.30 199.81 137.18 200.57 137.51 Z M 201.54 137.93 L 202.43 138.30 C 203.19 138.62 204.07 138.26 204.39 137.49 C 204.71 136.73 204.35 135.85 203.58 135.53 L 202.69 135.16 C 201.92 134.84 201.04 135.20 200.73 135.97 C 200.41 136.73 200.77 137.61 201.54 137.93 Z M 202.45 138.31 L 203.38 138.68 C 204.15 138.98 205.02 138.61 205.33 137.84 C 205.63 137.06 205.26 136.19 204.49 135.89 L 203.56 135.52 C 202.79 135.21 201.91 135.59 201.61 136.36 C 201.30 137.13 201.68 138.01 202.45 138.31 Z M 203.37 138.68 L 204.30 139.05 C 205.07 139.36 205.95 138.99 206.26 138.22 C 206.57 137.45 206.20 136.58 205.43 136.27 L 204.50 135.89 C 203.73 135.58 202.85 135.95 202.54 136.72 C 202.23 137.49 202.60 138.36 203.37 138.68 Z M 204.28 139.04 L 205.21 139.43 C 205.97 139.76 206.85 139.40 207.17 138.63 C 207.50 137.87 207.14 136.99 206.37 136.67 L 205.45 136.28 C 204.69 135.95 203.81 136.31 203.48 137.08 C 203.16 137.84 203.52 138.72 204.28 139.04 Z M 205.20 139.43 L 206.12 139.82 C 206.88 140.15 207.76 139.79 208.09 139.03 C 208.41 138.27 208.06 137.39 207.30 137.06 L 206.38 136.67 C 205.62 136.34 204.73 136.70 204.41 137.46 C 204.08 138.22 204.44 139.11 205.20 139.43 Z M 206.11 139.82 L 207.02 140.21 C 207.78 140.54 208.67 140.19 209.00 139.43 C 209.33 138.67 208.98 137.79 208.22 137.46 L 207.30 137.06 C 206.54 136.73 205.66 137.08 205.33 137.85 C 205.00 138.61 205.35 139.49 206.11 139.82 Z M 207.01 140.21 L 207.91 140.61 C 208.67 140.94 209.56 140.60 209.89 139.84 C 210.23 139.08 209.88 138.19 209.12 137.86 L 208.23 137.46 C 207.47 137.13 206.58 137.47 206.24 138.23 C 205.91 138.99 206.25 139.87 207.01 140.21 Z M 207.93 140.62 L 208.87 141.01 C 209.64 141.33 210.52 140.98 210.84 140.21 C 211.16 139.45 210.80 138.57 210.04 138.24 L 209.10 137.85 C 208.34 137.53 207.46 137.89 207.13 138.65 C 206.81 139.41 207.17 140.29 207.93 140.62 Z M 208.90 141.02 L 209.84 141.40 C 210.61 141.70 211.48 141.33 211.79 140.56 C 212.10 139.79 211.72 138.91 210.95 138.61 L 210.01 138.23 C 209.24 137.93 208.37 138.30 208.06 139.07 C 207.75 139.84 208.13 140.72 208.90 141.02 Z M 209.83 141.39 L 210.71 141.75 C 211.48 142.06 212.36 141.69 212.67 140.92 C 212.98 140.15 212.61 139.28 211.84 138.97 L 210.96 138.61 C 210.19 138.30 209.31 138.67 209.00 139.44 C 208.69 140.21 209.06 141.08 209.83 141.39 Z M 210.71 141.75 L 211.62 142.12 C 212.39 142.44 213.27 142.07 213.58 141.30 C 213.89 140.53 213.53 139.66 212.76 139.34 L 211.84 138.97 C 211.08 138.66 210.20 139.02 209.89 139.79 C 209.57 140.56 209.94 141.44 210.71 141.75 Z M 211.65 142.13 L 212.53 142.47 C 213.31 142.77 214.18 142.38 214.47 141.61 C 214.77 140.84 214.39 139.97 213.61 139.67 L 212.73 139.33 C 211.95 139.03 211.09 139.42 210.79 140.19 C 210.49 140.97 210.88 141.84 211.65 142.13 Z M 212.55 142.48 L 213.46 142.81 C 214.23 143.10 215.10 142.70 215.38 141.92 C 215.67 141.15 215.27 140.28 214.50 140.00 L 213.59 139.66 C 212.82 139.38 211.95 139.77 211.67 140.55 C 211.38 141.33 211.78 142.19 212.55 142.48 Z M 213.46 142.81 L 214.50 143.19 C 215.27 143.48 216.14 143.08 216.42 142.30 C 216.71 141.52 216.31 140.66 215.53 140.37 L 214.49 140.00 C 213.71 139.71 212.85 140.11 212.57 140.89 C 212.28 141.67 212.68 142.53 213.46 142.81 Z M 214.49 143.19 L 215.47 143.55 C 216.25 143.84 217.11 143.44 217.40 142.66 C 217.69 141.88 217.29 141.02 216.51 140.74 L 215.53 140.38 C 214.75 140.09 213.89 140.49 213.60 141.26 C 213.32 142.04 213.72 142.90 214.49 143.19 Z M 215.46 143.55 L 216.43 143.91 C 217.20 144.20 218.07 143.81 218.36 143.03 C 218.65 142.26 218.26 141.39 217.48 141.10 L 216.52 140.74 C 215.74 140.45 214.88 140.84 214.59 141.62 C 214.29 142.39 214.69 143.26 215.46 143.55 Z M 216.41 143.90 L 217.35 144.27 C 218.12 144.57 218.99 144.19 219.29 143.42 C 219.60 142.64 219.21 141.77 218.44 141.47 L 217.50 141.11 C 216.73 140.81 215.86 141.19 215.56 141.96 C 215.26 142.73 215.64 143.60 216.41 143.90 Z M 217.32 144.26 L 218.25 144.64 C 219.02 144.96 219.90 144.60 220.21 143.83 C 220.53 143.06 220.16 142.19 219.40 141.87 L 218.47 141.49 C 217.70 141.17 216.83 141.53 216.51 142.30 C 216.19 143.07 216.56 143.94 217.32 144.26 Z M 218.19 144.62 L 219.17 145.07 C 219.92 145.42 220.81 145.09 221.16 144.34 C 221.51 143.59 221.18 142.69 220.43 142.35 L 219.46 141.90 C 218.70 141.55 217.81 141.87 217.46 142.63 C 217.12 143.38 217.44 144.27 218.19 144.62 Z M 219.07 145.02 L 219.88 145.47 C 220.60 145.87 221.52 145.61 221.92 144.89 C 222.32 144.16 222.06 143.25 221.34 142.85 L 220.53 142.40 C 219.80 141.99 218.89 142.25 218.49 142.98 C 218.08 143.70 218.34 144.62 219.07 145.02 Z M 219.74 145.38 L 220.55 145.95 C 221.23 146.43 222.16 146.27 222.64 145.59 C 223.12 144.91 222.96 143.98 222.28 143.50 L 221.47 142.93 C 220.80 142.45 219.86 142.62 219.38 143.29 C 218.90 143.97 219.07 144.91 219.74 145.38 Z M 220.40 145.83 L 221.13 146.50 C 221.74 147.06 222.69 147.02 223.25 146.41 C 223.81 145.80 223.77 144.85 223.16 144.29 L 222.43 143.62 C 221.82 143.06 220.87 143.10 220.31 143.71 C 219.75 144.32 219.79 145.27 220.40 145.83 Z M 220.98 146.35 L 221.58 147.07 C 222.10 147.71 223.05 147.81 223.69 147.28 C 224.33 146.76 224.42 145.81 223.90 145.17 L 223.30 144.45 C 222.78 143.81 221.83 143.71 221.19 144.24 C 220.55 144.76 220.46 145.71 220.98 146.35 Z M 221.45 146.89 L 221.95 147.73 C 222.38 148.45 223.30 148.68 224.01 148.25 C 224.72 147.83 224.95 146.91 224.53 146.20 L 224.02 145.35 C 223.60 144.64 222.68 144.41 221.97 144.83 C 221.26 145.26 221.03 146.18 221.45 146.89 Z M 221.88 147.60 L 222.31 148.52 C 222.66 149.27 223.55 149.59 224.30 149.24 C 225.05 148.89 225.38 148.00 225.03 147.25 L 224.60 146.33 C 224.25 145.58 223.36 145.26 222.61 145.61 C 221.86 145.96 221.53 146.85 221.88 147.60 Z M 222.28 148.45 L 222.66 149.39 C 222.98 150.15 223.85 150.52 224.62 150.21 C 225.38 149.89 225.75 149.02 225.44 148.26 L 225.06 147.32 C 224.74 146.55 223.87 146.19 223.10 146.50 C 222.34 146.81 221.97 147.68 222.28 148.45 Z M 222.65 149.34 L 223.01 150.31 C 223.30 151.08 224.16 151.47 224.93 151.19 C 225.71 150.90 226.10 150.04 225.81 149.26 L 225.45 148.30 C 225.16 147.52 224.30 147.13 223.53 147.42 C 222.75 147.71 222.36 148.57 222.65 149.34 Z M 223.00 150.27 L 223.34 151.27 C 223.61 152.05 224.46 152.47 225.24 152.20 C 226.02 151.93 226.44 151.08 226.17 150.30 L 225.82 149.30 C 225.56 148.52 224.71 148.10 223.92 148.37 C 223.14 148.64 222.73 149.49 223.00 150.27 Z M 223.33 151.24 L 223.63 152.17 C 223.88 152.96 224.72 153.39 225.50 153.14 C 226.29 152.89 226.72 152.05 226.47 151.27 L 226.18 150.34 C 225.93 149.55 225.09 149.11 224.30 149.36 C 223.52 149.61 223.08 150.45 223.33 151.24 Z M 223.62 152.15 L 223.90 153.09 C 224.14 153.88 224.97 154.33 225.76 154.09 C 226.55 153.85 227.00 153.02 226.76 152.23 L 226.48 151.29 C 226.25 150.50 225.41 150.05 224.62 150.29 C 223.83 150.52 223.38 151.36 223.62 152.15 Z M 223.89 153.04 L 224.14 154.00 C 224.35 154.80 225.17 155.27 225.97 155.06 C 226.77 154.85 227.24 154.03 227.03 153.23 L 226.77 152.28 C 226.56 151.48 225.74 151.00 224.95 151.22 C 224.15 151.43 223.68 152.25 223.89 153.04 Z M 224.12 153.91 L 224.31 154.87 C 224.47 155.68 225.26 156.21 226.07 156.05 C 226.88 155.89 227.40 155.10 227.24 154.29 L 227.05 153.33 C 226.89 152.52 226.10 151.99 225.29 152.15 C 224.49 152.31 223.96 153.10 224.12 153.91 Z M 224.30 154.78 L 224.43 155.77 C 224.54 156.59 225.29 157.16 226.11 157.05 C 226.92 156.95 227.50 156.19 227.39 155.38 L 227.26 154.38 C 227.15 153.57 226.40 152.99 225.58 153.10 C 224.76 153.21 224.19 153.96 224.30 154.78 Z M 224.42 155.72 L 224.52 156.71 C 224.60 157.53 225.33 158.14 226.15 158.06 C 226.97 157.98 227.57 157.25 227.49 156.43 L 227.40 155.43 C 227.32 154.61 226.59 154.01 225.77 154.09 C 224.95 154.17 224.34 154.90 224.42 155.72 Z M 224.51 156.67 L 224.58 157.67 C 224.64 158.49 225.35 159.11 226.18 159.06 C 227.00 159.00 227.62 158.29 227.56 157.46 L 227.49 156.47 C 227.44 155.64 226.72 155.02 225.90 155.08 C 225.08 155.14 224.46 155.85 224.51 156.67 Z M 224.58 157.62 L 224.62 158.63 C 224.65 159.45 225.34 160.10 226.16 160.07 C 226.99 160.04 227.63 159.35 227.60 158.52 L 227.57 157.51 C 227.54 156.69 226.84 156.04 226.02 156.07 C 225.20 156.10 224.55 156.80 224.58 157.62 Z M 224.62 158.56 L 224.61 159.57 C 224.60 160.39 225.26 161.07 226.09 161.07 C 226.91 161.08 227.59 160.42 227.60 159.59 L 227.61 158.59 C 227.61 157.76 226.95 157.09 226.12 157.08 C 225.30 157.07 224.62 157.74 224.62 158.56 Z M 224.61 159.46 L 224.53 160.45 C 224.47 161.28 225.08 162.00 225.91 162.06 C 226.73 162.13 227.45 161.51 227.51 160.69 L 227.59 159.70 C 227.66 158.87 227.04 158.15 226.22 158.09 C 225.39 158.02 224.67 158.64 224.61 159.46 Z M 224.55 160.28 L 224.36 161.25 C 224.20 162.06 224.73 162.85 225.54 163.01 C 226.35 163.17 227.14 162.65 227.30 161.83 L 227.49 160.86 C 227.65 160.05 227.13 159.26 226.31 159.10 C 225.50 158.94 224.71 159.47 224.55 160.28 Z M 224.43 161.01 L 224.09 161.91 C 223.79 162.69 224.18 163.55 224.96 163.85 C 225.73 164.14 226.60 163.75 226.89 162.97 L 227.23 162.07 C 227.52 161.30 227.13 160.43 226.36 160.14 C 225.59 159.85 224.72 160.24 224.43 161.01 Z M 224.17 161.72 L 223.70 162.59 C 223.30 163.32 223.56 164.23 224.29 164.63 C 225.02 165.03 225.93 164.76 226.33 164.03 L 226.80 163.17 C 227.20 162.44 226.94 161.53 226.21 161.13 C 225.48 160.73 224.57 161.00 224.17 161.72 Z M 223.76 162.49 L 223.20 163.34 C 222.74 164.03 222.93 164.96 223.63 165.42 C 224.32 165.87 225.25 165.68 225.71 164.99 L 226.27 164.14 C 226.72 163.44 226.53 162.51 225.84 162.06 C 225.14 161.60 224.21 161.79 223.76 162.49 Z M 223.24 163.28 L 222.67 164.07 C 222.18 164.74 222.32 165.68 223.00 166.16 C 223.67 166.65 224.61 166.50 225.09 165.83 L 225.67 165.05 C 226.16 164.38 226.01 163.44 225.34 162.95 C 224.67 162.46 223.73 162.61 223.24 163.28 Z M 222.71 164.01 L 222.06 164.82 C 221.54 165.46 221.64 166.41 222.29 166.93 C 222.94 167.45 223.89 167.35 224.41 166.70 L 225.05 165.89 C 225.57 165.24 225.47 164.30 224.82 163.78 C 224.17 163.26 223.23 163.36 222.71 164.01 Z M 222.11 164.76 L 221.41 165.54 C 220.86 166.16 220.92 167.11 221.54 167.67 C 222.17 168.22 223.12 168.16 223.67 167.54 L 224.36 166.75 C 224.91 166.13 224.85 165.18 224.23 164.63 C 223.61 164.08 222.66 164.14 222.11 164.76 Z M 221.45 165.50 L 220.74 166.25 C 220.17 166.85 220.19 167.80 220.80 168.37 C 221.40 168.95 222.35 168.92 222.92 168.32 L 223.63 167.58 C 224.20 166.97 224.18 166.02 223.58 165.45 C 222.98 164.88 222.02 164.90 221.45 165.50 Z M 220.76 166.22 L 220.09 166.91 C 219.50 167.50 219.51 168.45 220.10 169.04 C 220.69 169.62 221.64 169.61 222.23 169.02 L 222.90 168.34 C 223.49 167.75 223.48 166.80 222.89 166.21 C 222.30 165.63 221.35 165.63 220.76 166.22 Z M 220.09 166.90 L 219.35 167.64 C 218.77 168.23 218.77 169.18 219.35 169.77 C 219.94 170.36 220.90 170.36 221.48 169.77 L 222.22 169.03 C 222.81 168.44 222.81 167.49 222.22 166.90 C 221.63 166.31 220.68 166.31 220.09 166.90 Z M 219.34 167.65 L 218.67 168.33 C 218.09 168.93 218.10 169.88 218.69 170.46 C 219.29 171.05 220.24 171.04 220.82 170.44 L 221.49 169.76 C 222.08 169.17 222.07 168.21 221.47 167.63 C 220.88 167.05 219.93 167.06 219.34 167.65 Z M 218.65 168.36 L 218.01 169.04 C 217.44 169.65 217.46 170.60 218.07 171.17 C 218.68 171.74 219.63 171.71 220.20 171.11 L 220.84 170.42 C 221.41 169.81 221.39 168.86 220.78 168.29 C 220.17 167.72 219.22 167.75 218.65 168.36 Z M 217.99 169.06 L 217.31 169.80 C 216.75 170.41 216.80 171.37 217.41 171.93 C 218.02 172.49 218.98 172.44 219.54 171.83 L 220.22 171.09 C 220.78 170.48 220.73 169.52 220.12 168.96 C 219.50 168.40 218.55 168.44 217.99 169.06 Z M 217.31 169.80 L 216.63 170.55 C 216.07 171.16 216.11 172.11 216.73 172.68 C 217.34 173.24 218.29 173.19 218.86 172.58 L 219.54 171.83 C 220.10 171.22 220.06 170.26 219.44 169.70 C 218.83 169.14 217.88 169.18 217.31 169.80 Z M 216.64 170.54 L 215.97 171.27 C 215.40 171.88 215.44 172.83 216.05 173.39 C 216.66 173.96 217.62 173.92 218.18 173.31 L 218.85 172.59 C 219.41 171.97 219.38 171.02 218.77 170.46 C 218.15 169.89 217.20 169.93 216.64 170.54 Z M 215.97 171.26 L 215.27 172.01 C 214.70 172.62 214.73 173.57 215.34 174.14 C 215.95 174.71 216.90 174.68 217.47 174.07 L 218.17 173.32 C 218.74 172.71 218.71 171.76 218.10 171.19 C 217.49 170.62 216.54 170.65 215.97 171.26 Z M 215.28 172.00 L 214.59 172.73 C 214.02 173.33 214.05 174.28 214.65 174.86 C 215.26 175.43 216.21 175.40 216.78 174.80 L 217.46 174.08 C 218.04 173.47 218.01 172.52 217.41 171.95 C 216.80 171.37 215.85 171.40 215.28 172.00 Z M 214.60 172.72 L 213.91 173.44 C 213.34 174.04 213.36 175.00 213.96 175.57 C 214.56 176.14 215.52 176.12 216.09 175.52 L 216.78 174.80 C 217.35 174.20 217.33 173.25 216.73 172.67 C 216.12 172.10 215.17 172.12 214.60 172.72 Z M 213.91 173.44 L 213.21 174.17 C 212.63 174.78 212.66 175.73 213.26 176.31 C 213.86 176.88 214.82 176.86 215.39 176.26 L 216.09 175.52 C 216.67 174.92 216.65 173.96 216.04 173.39 C 215.44 172.81 214.49 172.84 213.91 173.44 Z M 213.20 174.18 L 212.53 174.88 C 211.96 175.49 211.98 176.45 212.59 177.02 C 213.19 177.59 214.15 177.57 214.72 176.96 L 215.39 176.26 C 215.97 175.65 215.94 174.70 215.34 174.12 C 214.73 173.55 213.78 173.57 213.20 174.18 Z M 212.53 174.88 L 211.85 175.60 C 211.27 176.21 211.30 177.17 211.91 177.74 C 212.51 178.32 213.47 178.29 214.04 177.68 L 214.72 176.96 C 215.30 176.36 215.27 175.40 214.67 174.83 C 214.06 174.25 213.10 174.28 212.53 174.88 Z M 211.85 175.60 L 211.14 176.34 C 210.57 176.95 210.59 177.91 211.20 178.48 C 211.80 179.06 212.76 179.03 213.34 178.43 L 214.04 177.69 C 214.62 177.08 214.60 176.12 213.99 175.55 C 213.38 174.97 212.42 174.99 211.85 175.60 Z M 211.15 176.33 L 210.45 177.06 C 209.88 177.66 209.90 178.62 210.50 179.20 C 211.11 179.78 212.07 179.76 212.65 179.16 L 213.34 178.43 C 213.92 177.83 213.90 176.87 213.29 176.29 C 212.69 175.71 211.73 175.73 211.15 176.33 Z M 210.46 177.05 L 209.77 177.76 C 209.19 178.36 209.21 179.32 209.81 179.91 C 210.42 180.49 211.38 180.47 211.96 179.87 L 212.64 179.16 C 213.23 178.56 213.21 177.60 212.60 177.01 C 212.00 176.43 211.04 176.45 210.46 177.05 Z M 209.78 177.75 L 209.08 178.48 C 208.49 179.08 208.51 180.04 209.11 180.63 C 209.71 181.21 210.68 181.20 211.26 180.59 L 211.96 179.87 C 212.55 179.27 212.53 178.31 211.93 177.72 C 211.32 177.14 210.36 177.15 209.78 177.75 Z M 209.08 178.47 L 208.36 179.21 C 207.77 179.82 207.79 180.78 208.39 181.37 C 208.99 181.95 209.96 181.94 210.54 181.34 L 211.26 180.60 C 211.85 179.99 211.83 179.03 211.23 178.44 C 210.63 177.86 209.66 177.87 209.08 178.47 Z M 208.36 179.21 L 207.67 179.92 C 207.09 180.52 207.10 181.49 207.70 182.07 C 208.31 182.66 209.27 182.65 209.86 182.04 L 210.54 181.34 C 211.13 180.73 211.12 179.77 210.51 179.18 C 209.91 178.60 208.94 178.61 208.36 179.21 Z M 207.67 179.92 L 206.98 180.63 C 206.39 181.23 206.40 182.20 207.00 182.79 C 207.61 183.37 208.57 183.36 209.16 182.76 L 209.86 182.04 C 210.45 181.44 210.43 180.48 209.83 179.89 C 209.23 179.30 208.26 179.31 207.67 179.92 Z M 206.98 180.63 L 206.27 181.35 C 205.68 181.95 205.69 182.91 206.29 183.50 C 206.89 184.09 207.86 184.08 208.45 183.48 L 209.16 182.76 C 209.75 182.16 209.74 181.20 209.14 180.61 C 208.54 180.02 207.57 180.02 206.98 180.63 Z M 206.28 181.34 L 205.57 182.05 C 204.97 182.65 204.98 183.62 205.58 184.21 C 206.17 184.80 207.14 184.80 207.73 184.20 L 208.44 183.49 C 209.04 182.89 209.03 181.93 208.44 181.33 C 207.84 180.74 206.87 180.74 206.28 181.34 Z M 205.58 182.05 L 204.88 182.74 C 204.28 183.33 204.27 184.30 204.87 184.90 C 205.46 185.50 206.43 185.50 207.03 184.91 L 207.73 184.21 C 208.32 183.62 208.33 182.65 207.73 182.05 C 207.14 181.46 206.17 181.45 205.58 182.05 Z M 204.88 182.73 L 204.17 183.43 C 203.57 184.02 203.56 184.98 204.15 185.59 C 204.74 186.19 205.71 186.20 206.31 185.61 L 207.02 184.91 C 207.62 184.32 207.63 183.36 207.04 182.75 C 206.45 182.15 205.49 182.14 204.88 182.73 Z M 204.18 183.42 L 203.46 184.12 C 202.85 184.71 202.84 185.68 203.43 186.28 C 204.01 186.89 204.98 186.90 205.58 186.31 L 206.31 185.61 C 206.91 185.02 206.92 184.06 206.34 183.45 C 205.75 182.85 204.78 182.84 204.18 183.42 Z M 203.46 184.12 L 202.73 184.83 C 202.12 185.41 202.10 186.38 202.69 186.99 C 203.27 187.59 204.24 187.61 204.85 187.02 L 205.58 186.32 C 206.19 185.73 206.20 184.77 205.62 184.16 C 205.03 183.55 204.07 183.53 203.46 184.12 Z M 202.73 184.82 L 202.00 185.52 C 201.39 186.11 201.37 187.08 201.95 187.69 C 202.54 188.29 203.51 188.31 204.12 187.73 L 204.85 187.03 C 205.45 186.45 205.47 185.48 204.89 184.87 C 204.31 184.26 203.34 184.24 202.73 184.82 Z M 202.00 185.52 L 201.27 186.21 C 200.65 186.79 200.63 187.76 201.21 188.38 C 201.79 188.99 202.76 189.02 203.38 188.44 L 204.11 187.74 C 204.72 187.16 204.75 186.19 204.17 185.57 C 203.59 184.96 202.62 184.93 202.00 185.52 Z M 201.28 186.20 L 200.55 186.88 C 199.93 187.46 199.89 188.43 200.47 189.05 C 201.04 189.67 202.02 189.70 202.64 189.13 L 203.37 188.45 C 203.99 187.87 204.02 186.90 203.45 186.28 C 202.87 185.66 201.90 185.62 201.28 186.20 Z M 200.56 186.86 L 199.83 187.53 C 199.20 188.10 199.15 189.07 199.72 189.70 C 200.29 190.33 201.26 190.38 201.89 189.81 L 202.62 189.14 C 203.25 188.57 203.30 187.60 202.73 186.97 C 202.16 186.34 201.19 186.30 200.56 186.86 Z M 199.85 187.51 L 199.06 188.19 C 198.42 188.75 198.35 189.72 198.91 190.36 C 199.47 191.01 200.44 191.07 201.08 190.51 L 201.87 189.83 C 202.51 189.27 202.57 188.30 202.02 187.66 C 201.46 187.02 200.49 186.95 199.85 187.51 Z M 199.08 188.18 L 198.32 188.82 C 197.67 189.36 197.58 190.33 198.13 190.99 C 198.67 191.64 199.65 191.72 200.30 191.17 L 201.06 190.53 C 201.71 189.99 201.80 189.01 201.25 188.36 C 200.70 187.71 199.73 187.63 199.08 188.18 Z M 198.33 188.80 L 197.59 189.41 C 196.93 189.95 196.83 190.92 197.36 191.58 C 197.90 192.24 198.87 192.34 199.53 191.80 L 200.28 191.19 C 200.94 190.65 201.04 189.68 200.50 189.02 C 199.97 188.36 198.99 188.26 198.33 188.80 Z M 197.60 189.40 L 196.83 190.01 C 196.16 190.54 196.05 191.51 196.57 192.17 C 197.10 192.84 198.07 192.95 198.74 192.43 L 199.51 191.81 C 200.18 191.28 200.29 190.32 199.77 189.65 C 199.24 188.98 198.27 188.87 197.60 189.40 Z M 196.84 190.00 L 196.04 190.62 C 195.37 191.14 195.25 192.11 195.77 192.78 C 196.29 193.45 197.26 193.57 197.94 193.05 L 198.73 192.44 C 199.40 191.91 199.52 190.95 199.00 190.27 C 198.48 189.60 197.51 189.48 196.84 190.00 Z M 196.05 190.61 L 195.26 191.21 C 194.59 191.73 194.46 192.70 194.98 193.38 C 195.50 194.05 196.46 194.18 197.14 193.66 L 197.93 193.06 C 198.60 192.54 198.73 191.57 198.21 190.89 C 197.70 190.22 196.73 190.09 196.05 190.61 Z M 195.26 191.21 L 194.47 191.82 C 193.80 192.33 193.67 193.30 194.18 193.98 C 194.70 194.66 195.67 194.79 196.35 194.27 L 197.14 193.66 C 197.81 193.15 197.94 192.18 197.43 191.50 C 196.91 190.82 195.94 190.70 195.26 191.21 Z M 194.47 191.82 L 193.67 192.43 C 193.00 192.95 192.87 193.92 193.39 194.59 C 193.90 195.27 194.87 195.40 195.55 194.88 L 196.35 194.27 C 197.03 193.75 197.15 192.78 196.63 192.10 C 196.12 191.43 195.15 191.30 194.47 191.82 Z M 193.67 192.43 L 192.88 193.04 C 192.20 193.56 192.07 194.53 192.59 195.21 C 193.11 195.88 194.08 196.01 194.76 195.49 L 195.55 194.88 C 196.23 194.36 196.35 193.39 195.83 192.71 C 195.31 192.04 194.34 191.91 193.67 192.43 Z M 192.87 193.05 L 192.09 193.65 C 191.42 194.17 191.29 195.14 191.81 195.82 C 192.34 196.49 193.31 196.62 193.98 196.09 L 194.76 195.49 C 195.44 194.97 195.56 194.00 195.04 193.32 C 194.52 192.65 193.55 192.52 192.87 193.05 Z M 192.09 193.65 L 191.29 194.28 C 190.62 194.80 190.50 195.77 191.02 196.44 C 191.54 197.11 192.51 197.24 193.19 196.71 L 193.98 196.09 C 194.66 195.57 194.78 194.60 194.25 193.92 C 193.73 193.25 192.76 193.13 192.09 193.65 Z M 191.29 194.28 L 190.50 194.89 C 189.83 195.42 189.71 196.39 190.24 197.06 C 190.76 197.73 191.73 197.85 192.40 197.32 L 193.19 196.71 C 193.86 196.18 193.98 195.21 193.45 194.54 C 192.93 193.87 191.96 193.75 191.29 194.28 Z M 190.50 194.89 L 189.72 195.51 C 189.05 196.03 188.93 197.00 189.46 197.67 C 189.98 198.34 190.95 198.46 191.62 197.94 L 192.40 197.32 C 193.07 196.80 193.19 195.83 192.67 195.16 C 192.14 194.49 191.17 194.37 190.50 194.89 Z M 189.72 195.51 L 188.94 196.12 C 188.27 196.64 188.15 197.61 188.67 198.28 C 189.20 198.95 190.17 199.07 190.84 198.55 L 191.62 197.93 C 192.29 197.41 192.41 196.44 191.88 195.77 C 191.36 195.10 190.39 194.98 189.72 195.51 Z M 188.94 196.12 L 188.15 196.74 C 187.48 197.26 187.37 198.23 187.89 198.90 C 188.42 199.57 189.39 199.68 190.06 199.16 L 190.84 198.54 C 191.51 198.02 191.63 197.05 191.10 196.38 C 190.57 195.71 189.61 195.60 188.94 196.12 Z M 188.15 196.74 L 187.36 197.37 C 186.69 197.89 186.58 198.86 187.11 199.53 C 187.64 200.19 188.61 200.31 189.27 199.78 L 190.06 199.15 C 190.73 198.63 190.84 197.66 190.31 196.99 C 189.78 196.33 188.82 196.21 188.15 196.74 Z M 187.35 197.37 L 186.56 198.02 C 185.89 198.55 185.79 199.51 186.32 200.18 C 186.85 200.84 187.82 200.94 188.48 200.41 L 189.28 199.77 C 189.94 199.24 190.05 198.27 189.51 197.61 C 188.98 196.95 188.01 196.84 187.35 197.37 Z M 186.54 198.03 L 185.75 198.68 C 185.10 199.22 185.01 200.18 185.54 200.84 C 186.08 201.49 187.05 201.58 187.70 201.05 L 188.49 200.40 C 189.15 199.86 189.24 198.89 188.70 198.24 C 188.16 197.58 187.20 197.49 186.54 198.03 Z M 185.74 198.70 L 184.99 199.33 C 184.34 199.88 184.27 200.85 184.81 201.49 C 185.36 202.14 186.33 202.21 186.97 201.67 L 187.72 201.03 C 188.37 200.48 188.44 199.51 187.89 198.87 C 187.35 198.23 186.38 198.15 185.74 198.70 Z M 184.96 199.36 L 184.20 200.05 C 183.57 200.61 183.52 201.58 184.08 202.20 C 184.64 202.83 185.61 202.88 186.24 202.32 L 187.00 201.64 C 187.63 201.07 187.68 200.11 187.12 199.48 C 186.55 198.85 185.59 198.80 184.96 199.36 Z M 184.16 200.08 L 183.43 200.79 C 182.83 201.37 182.81 202.33 183.39 202.94 C 183.98 203.55 184.94 203.57 185.55 202.98 L 186.27 202.28 C 186.88 201.70 186.90 200.73 186.32 200.13 C 185.73 199.52 184.77 199.50 184.16 200.08 Z M 183.40 200.83 L 182.74 201.50 C 182.16 202.10 182.17 203.07 182.78 203.65 C 183.38 204.23 184.34 204.22 184.93 203.62 L 185.58 202.94 C 186.17 202.34 186.15 201.38 185.55 200.79 C 184.95 200.21 183.98 200.22 183.40 200.83 Z M 182.71 201.54 L 182.02 202.30 C 181.46 202.92 181.51 203.88 182.13 204.44 C 182.75 205.01 183.71 204.96 184.27 204.34 L 184.96 203.58 C 185.52 202.96 185.47 202.00 184.85 201.44 C 184.23 200.88 183.27 200.92 182.71 201.54 Z M 181.98 202.36 L 181.36 203.11 C 180.82 203.75 180.91 204.70 181.55 205.24 C 182.19 205.77 183.14 205.68 183.68 205.04 L 184.30 204.29 C 184.84 203.65 184.75 202.69 184.11 202.16 C 183.47 201.63 182.52 201.71 181.98 202.36 Z M 181.31 203.17 L 180.70 203.99 C 180.20 204.65 180.34 205.60 181.00 206.09 C 181.67 206.59 182.61 206.46 183.11 205.79 L 183.72 204.98 C 184.22 204.31 184.08 203.37 183.42 202.87 C 182.75 202.37 181.81 202.51 181.31 203.17 Z M 180.66 204.06 L 180.11 204.89 C 179.65 205.58 179.84 206.51 180.53 206.96 C 181.22 207.42 182.15 207.23 182.61 206.54 L 183.15 205.72 C 183.61 205.03 183.42 204.10 182.73 203.64 C 182.04 203.18 181.11 203.37 180.66 204.06 Z M 180.06 204.97 L 179.57 205.84 C 179.16 206.56 179.40 207.47 180.12 207.88 C 180.83 208.29 181.75 208.04 182.16 207.33 L 182.66 206.46 C 183.07 205.74 182.82 204.83 182.10 204.42 C 181.39 204.01 180.47 204.26 180.06 204.97 Z M 179.54 205.91 L 179.09 206.78 C 178.72 207.51 179.01 208.41 179.74 208.78 C 180.47 209.16 181.37 208.87 181.74 208.13 L 182.19 207.26 C 182.56 206.53 182.27 205.63 181.54 205.26 C 180.81 204.89 179.91 205.18 179.54 205.91 Z M 179.09 206.80 L 179.06 206.85 C 178.69 207.59 178.99 208.48 179.73 208.84 C 180.46 209.21 181.35 208.91 181.72 208.18 L 181.74 208.12 C 182.11 207.39 181.81 206.50 181.08 206.13 C 180.34 205.77 179.45 206.06 179.09 206.80 Z"
      fill="black"
      fill-rule="nonzero" /></svg>