<svg xmlns="http://www.w3.org/2000/svg" width="300" height="300" viewBox="0 0 300 300">
<path d="M 93.42 91.88 L 93.72 92.86 C 93.97 93.65 94.81 94.09 95.60 93.85 C 96.39 93.60 96.83 92.76 96.59 91.97 L 96.29 90.99 C 96.04 90.20 95.20 89.75 94.41 90.00 C 93.61 90.24 93.17 91.09 93.42 91.88 Z M 93.64 92.85 L 93.92 93.82 C 94.16 94.65 95.03 95.14 95.87 94.90 C 96.71 94.66 97.19 93.78 96.95 92.94 L 96.67 91.98 C 96.43 91.14 95.56 90.66 94.72 90.90 C 93.88 91.14 93.40 92.01 93.64 92.85 Z M 93.83 93.77 L 94.06 94.72 C 94.27 95.61 95.16 96.15 96.05 95.94 C 96.94 95.72 97.48 94.83 97.27 93.94 L 97.04 92.99 C 96.83 92.11 95.93 91.56 95.05 91.77 C 94.16 91.99 93.61 92.88 93.83 93.77 Z M 93.98 94.62 L 94.15 95.57 C 94.30 96.50 95.18 97.12 96.11 96.96 C 97.04 96.80 97.66 95.92 97.51 95.00 L 97.34 94.04 C 97.18 93.12 96.30 92.49 95.38 92.65 C 94.45 92.81 93.83 93.69 93.98 94.62 Z M 94.11 95.46 L 94.21 96.43 C 94.31 97.37 95.15 98.06 96.10 97.96 C 97.05 97.87 97.74 97.02 97.64 96.07 L 97.54 95.11 C 97.44 94.16 96.60 93.47 95.65 93.57 C 94.70 93.67 94.01 94.51 94.11 95.46 Z M 94.19 96.35 L 94.25 97.38 C 94.31 98.33 95.13 99.06 96.09 99.00 C 97.05 98.95 97.78 98.12 97.72 97.17 L 97.66 96.14 C 97.60 95.19 96.78 94.46 95.82 94.52 C 94.86 94.57 94.13 95.40 94.19 96.35 Z M 94.24 97.35 L 94.28 98.30 C 94.33 99.26 95.14 100.01 96.11 99.96 C 97.07 99.92 97.82 99.11 97.77 98.14 L 97.73 97.19 C 97.69 96.23 96.87 95.48 95.91 95.53 C 94.94 95.57 94.20 96.39 94.24 97.35 Z M 94.28 98.29 L 94.31 99.23 C 94.35 100.20 95.17 100.96 96.14 100.92 C 97.11 100.88 97.86 100.06 97.82 99.09 L 97.78 98.15 C 97.74 97.18 96.93 96.43 95.96 96.47 C 94.99 96.51 94.24 97.32 94.28 98.29 Z M 94.31 99.23 L 94.35 100.24 C 94.38 101.21 95.20 101.97 96.17 101.94 C 97.14 101.90 97.90 101.08 97.87 100.11 L 97.83 99.10 C 97.79 98.13 96.97 97.37 96.00 97.40 C 95.03 97.44 94.27 98.26 94.31 99.23 Z M 94.34 100.24 L 94.38 101.32 C 94.41 102.30 95.23 103.06 96.21 103.02 C 97.18 102.99 97.95 102.17 97.91 101.19 L 97.87 100.11 C 97.84 99.14 97.02 98.38 96.04 98.41 C 95.07 98.45 94.30 99.26 94.34 100.24 Z M 94.37 101.32 L 94.41 102.29 C 94.44 103.27 95.26 104.04 96.24 104.01 C 97.22 103.97 97.98 103.15 97.95 102.17 L 97.92 101.20 C 97.88 100.22 97.06 99.45 96.08 99.48 C 95.10 99.52 94.34 100.34 94.37 101.32 Z M 94.40 102.29 L 94.43 103.24 C 94.47 104.22 95.29 104.99 96.27 104.95 C 97.25 104.92 98.02 104.10 97.99 103.12 L 97.95 102.17 C 97.92 101.19 97.10 100.43 96.12 100.46 C 95.14 100.49 94.37 101.31 94.40 102.29 Z M 94.43 103.24 L 94.46 104.22 C 94.49 105.20 95.31 105.98 96.30 105.94 C 97.28 105.91 98.05 105.09 98.02 104.11 L 97.99 103.12 C 97.96 102.14 97.14 101.37 96.15 101.40 C 95.17 101.43 94.40 102.25 94.43 103.24 Z M 94.46 104.22 L 94.49 105.25 C 94.52 106.23 95.34 107.01 96.33 106.97 C 97.31 106.94 98.09 106.12 98.06 105.14 L 98.02 104.11 C 97.99 103.12 97.17 102.35 96.19 102.38 C 95.20 102.41 94.43 103.23 94.46 104.22 Z M 94.49 105.24 L 94.52 106.31 C 94.55 107.30 95.37 108.08 96.36 108.05 C 97.34 108.02 98.12 107.19 98.09 106.21 L 98.06 105.14 C 98.03 104.15 97.21 103.38 96.22 103.40 C 95.23 103.43 94.46 104.26 94.49 105.24 Z M 94.51 106.31 L 94.54 107.28 C 94.57 108.26 95.39 109.04 96.38 109.02 C 97.37 108.99 98.15 108.16 98.12 107.18 L 98.09 106.21 C 98.07 105.22 97.24 104.44 96.25 104.47 C 95.26 104.50 94.49 105.32 94.51 106.31 Z M 94.54 107.27 L 94.56 108.19 C 94.59 109.19 95.41 109.97 96.40 109.94 C 97.39 109.91 98.17 109.09 98.15 108.10 L 98.12 107.18 C 98.10 106.19 97.27 105.41 96.28 105.43 C 95.29 105.46 94.51 106.28 94.54 107.27 Z M 94.56 108.19 L 94.58 109.15 C 94.61 110.14 95.43 110.92 96.42 110.90 C 97.42 110.87 98.20 110.05 98.17 109.06 L 98.15 108.10 C 98.13 107.11 97.30 106.33 96.31 106.35 C 95.32 106.38 94.53 107.20 94.56 108.19 Z M 94.58 109.15 L 94.60 110.14 C 94.63 111.13 95.45 111.92 96.45 111.90 C 97.44 111.87 98.23 111.05 98.20 110.05 L 98.18 109.06 C 98.15 108.07 97.33 107.28 96.34 107.31 C 95.34 107.33 94.56 108.15 94.58 109.15 Z M 94.60 110.14 L 94.63 111.18 C 94.65 112.17 95.47 112.96 96.47 112.93 C 97.46 112.91 98.25 112.09 98.23 111.09 L 98.20 110.06 C 98.18 109.06 97.36 108.27 96.36 108.30 C 95.37 108.32 94.58 109.14 94.60 110.14 Z M 94.62 111.17 L 94.65 112.26 C 94.67 113.25 95.49 114.04 96.49 114.02 C 97.49 114.00 98.28 113.17 98.25 112.18 L 98.23 111.09 C 98.21 110.10 97.38 109.31 96.39 109.33 C 95.39 109.35 94.60 110.18 94.62 111.17 Z M 94.65 112.26 L 94.67 113.29 C 94.69 114.29 95.51 115.08 96.51 115.06 C 97.51 115.04 98.30 114.21 98.28 113.22 L 98.26 112.18 C 98.24 111.18 97.41 110.39 96.41 110.41 C 95.42 110.43 94.62 111.26 94.65 112.26 Z M 94.66 113.29 L 94.68 114.22 C 94.70 115.22 95.53 116.01 96.53 115.99 C 97.53 115.97 98.32 115.14 98.30 114.14 L 98.28 113.22 C 98.26 112.22 97.43 111.43 96.44 111.45 C 95.44 111.47 94.64 112.29 94.66 113.29 Z M 94.68 114.22 L 94.70 115.17 C 94.72 116.17 95.55 116.97 96.55 116.95 C 97.54 116.93 98.34 116.10 98.32 115.10 L 98.30 114.15 C 98.28 113.15 97.45 112.35 96.46 112.37 C 95.46 112.39 94.66 113.22 94.68 114.22 Z M 94.70 115.17 L 94.72 116.16 C 94.74 117.16 95.56 117.95 96.56 117.93 C 97.56 117.91 98.36 117.09 98.34 116.09 L 98.32 115.10 C 98.30 114.10 97.47 113.31 96.47 113.33 C 95.48 113.35 94.68 114.17 94.70 115.17 Z M 94.72 116.16 L 94.74 117.16 C 94.75 118.16 95.58 118.96 96.58 118.94 C 97.58 118.92 98.38 118.09 98.36 117.09 L 98.34 116.09 C 98.32 115.09 97.50 114.29 96.49 114.31 C 95.49 114.33 94.70 115.15 94.72 116.16 Z M 94.73 117.16 L 94.75 118.19 C 94.77 119.19 95.60 119.99 96.60 119.97 C 97.60 119.95 98.40 119.12 98.38 118.12 L 98.36 117.09 C 98.34 116.09 97.52 115.30 96.51 115.31 C 95.51 115.33 94.72 116.16 94.73 117.16 Z M 94.75 118.19 L 94.77 119.23 C 94.79 120.23 95.62 121.03 96.62 121.01 C 97.62 120.99 98.42 120.17 98.40 119.16 L 98.38 118.12 C 98.36 117.12 97.54 116.32 96.53 116.34 C 95.53 116.36 94.73 117.18 94.75 118.19 Z M 94.77 119.23 L 94.79 120.29 C 94.81 121.29 95.63 122.09 96.64 122.07 C 97.64 122.05 98.44 121.23 98.42 120.22 L 98.40 119.16 C 98.38 118.16 97.56 117.36 96.55 117.38 C 95.55 117.40 94.75 118.23 94.77 119.23 Z M 94.79 120.29 L 94.81 121.31 C 94.82 122.31 95.65 123.11 96.66 123.10 C 97.66 123.08 98.46 122.25 98.44 121.24 L 98.42 120.22 C 98.40 119.22 97.58 118.42 96.57 118.44 C 95.57 118.46 94.77 119.28 94.79 120.29 Z M 94.80 121.31 L 94.82 122.29 C 94.84 123.30 95.67 124.10 96.68 124.08 C 97.68 124.06 98.48 123.23 98.46 122.22 L 98.44 121.24 C 98.42 120.24 97.60 119.44 96.59 119.46 C 95.59 119.48 94.79 120.31 94.80 121.31 Z M 94.82 122.29 L 94.84 123.28 C 94.86 124.28 95.69 125.08 96.69 125.07 C 97.70 125.05 98.50 124.22 98.48 123.21 L 98.46 122.22 C 98.44 121.22 97.61 120.42 96.61 120.44 C 95.60 120.46 94.80 121.29 94.82 122.29 Z M 94.84 123.28 L 94.86 124.27 C 94.88 125.28 95.71 126.08 96.71 126.06 C 97.72 126.04 98.52 125.21 98.50 124.21 L 98.48 123.21 C 98.46 122.21 97.63 121.41 96.63 121.43 C 95.62 121.44 94.82 122.27 94.84 123.28 Z M 94.86 124.27 L 94.88 125.27 C 94.89 126.28 95.72 127.08 96.73 127.06 C 97.74 127.04 98.54 126.21 98.52 125.21 L 98.50 124.21 C 98.48 123.20 97.65 122.40 96.64 122.42 C 95.64 122.44 94.84 123.27 94.86 124.27 Z M 94.87 125.27 L 94.89 126.28 C 94.91 127.28 95.74 128.09 96.75 128.07 C 97.75 128.05 98.56 127.22 98.54 126.21 L 98.52 125.21 C 98.50 124.20 97.67 123.40 96.66 123.42 C 95.66 123.44 94.86 124.27 94.87 125.27 Z M 94.89 126.28 L 94.91 127.29 C 94.93 128.29 95.76 129.10 96.77 129.08 C 97.77 129.06 98.57 128.23 98.56 127.22 L 98.54 126.21 C 98.52 125.21 97.69 124.40 96.68 124.42 C 95.68 124.44 94.87 125.27 94.89 126.28 Z M 94.91 127.29 L 94.93 128.30 C 94.95 129.31 95.78 130.11 96.78 130.09 C 97.79 130.07 98.59 129.24 98.57 128.24 L 98.56 127.22 C 98.54 126.21 97.71 125.41 96.70 125.43 C 95.69 125.45 94.89 126.28 94.91 127.29 Z M 94.93 128.30 L 94.94 129.32 C 94.96 130.32 95.79 131.13 96.80 131.11 C 97.81 131.09 98.61 130.26 98.59 129.25 L 98.58 128.24 C 98.56 127.23 97.73 126.43 96.72 126.44 C 95.71 126.46 94.91 127.29 94.93 128.30 Z M 94.94 129.32 L 94.96 130.31 C 94.98 131.31 95.81 132.12 96.82 132.10 C 97.83 132.08 98.63 131.25 98.61 130.24 L 98.59 129.25 C 98.58 128.24 97.75 127.44 96.74 127.46 C 95.73 127.48 94.93 128.31 94.94 129.32 Z M 94.96 130.31 L 94.98 131.29 C 95.00 132.30 95.83 133.10 96.84 133.08 C 97.84 133.07 98.65 132.23 98.63 131.23 L 98.61 130.24 C 98.59 129.23 97.76 128.43 96.75 128.45 C 95.75 128.47 94.94 129.30 94.96 130.31 Z M 94.98 131.29 L 94.99 132.28 C 95.01 133.29 95.84 134.09 96.85 134.07 C 97.86 134.05 98.66 133.22 98.65 132.21 L 98.63 131.23 C 98.61 130.22 97.78 129.41 96.77 129.43 C 95.76 129.45 94.96 130.28 94.98 131.29 Z M 94.99 132.28 L 95.01 133.27 C 95.03 134.28 95.86 135.08 96.87 135.06 C 97.88 135.05 98.68 134.21 98.67 133.21 L 98.65 132.21 C 98.63 131.20 97.80 130.40 96.79 130.42 C 95.78 130.44 94.98 131.27 94.99 132.28 Z M 95.01 133.27 L 95.03 134.27 C 95.05 135.28 95.88 136.08 96.89 136.06 C 97.90 136.04 98.70 135.21 98.68 134.20 L 98.67 133.20 C 98.65 132.20 97.82 131.39 96.81 131.41 C 95.80 131.43 94.99 132.26 95.01 133.27 Z M 95.03 134.27 L 95.05 135.27 C 95.06 136.28 95.90 137.08 96.91 137.06 C 97.92 137.05 98.72 136.21 98.70 135.20 L 98.68 134.20 C 98.67 133.19 97.83 132.39 96.82 132.41 C 95.81 132.42 95.01 133.26 95.03 134.27 Z M 95.04 135.27 L 95.06 136.28 C 95.08 137.29 95.92 138.09 96.93 138.07 C 97.94 138.05 98.74 137.22 98.72 136.21 L 98.70 135.20 C 98.68 134.19 97.85 133.39 96.84 133.41 C 95.83 133.43 95.03 134.26 95.04 135.27 Z M 95.06 136.28 L 95.08 137.29 C 95.10 138.30 95.94 139.11 96.95 139.09 C 97.96 139.07 98.76 138.23 98.74 137.22 L 98.72 136.21 C 98.70 135.20 97.87 134.39 96.86 134.41 C 95.85 134.43 95.04 135.27 95.06 136.28 Z M 95.08 137.29 L 95.10 138.32 C 95.12 139.33 95.96 140.13 96.97 140.11 C 97.98 140.09 98.78 139.25 98.76 138.24 L 98.74 137.22 C 98.72 136.21 97.89 135.41 96.88 135.43 C 95.86 135.45 95.06 136.28 95.08 137.29 Z M 95.10 138.32 L 95.12 139.30 C 95.14 140.31 95.98 141.11 96.99 141.09 C 98.00 141.07 98.81 140.23 98.78 139.22 L 98.76 138.24 C 98.74 137.23 97.91 136.43 96.89 136.45 C 95.88 136.47 95.08 137.31 95.10 138.32 Z M 95.12 139.30 L 95.14 140.27 C 95.17 141.29 96.00 142.09 97.01 142.07 C 98.03 142.04 98.83 141.21 98.81 140.20 L 98.79 139.22 C 98.76 138.21 97.93 137.41 96.91 137.43 C 95.90 137.45 95.10 138.29 95.12 139.30 Z M 95.14 140.28 L 95.16 141.26 C 95.19 142.27 96.03 143.07 97.04 143.05 C 98.05 143.02 98.85 142.19 98.83 141.17 L 98.81 140.19 C 98.78 139.18 97.95 138.38 96.93 138.40 C 95.92 138.43 95.12 139.26 95.14 140.28 Z M 95.16 141.26 L 95.19 142.25 C 95.21 143.26 96.05 144.06 97.06 144.04 C 98.07 144.01 98.88 143.17 98.85 142.16 L 98.83 141.17 C 98.81 140.16 97.97 139.36 96.95 139.38 C 95.94 139.41 95.14 140.25 95.16 141.26 Z M 95.19 142.25 L 95.21 143.24 C 95.23 144.26 96.08 145.06 97.09 145.03 C 98.10 145.01 98.90 144.17 98.88 143.16 L 98.85 142.16 C 98.83 141.15 97.99 140.35 96.98 140.37 C 95.96 140.39 95.16 141.24 95.19 142.25 Z M 95.21 143.24 L 95.23 144.25 C 95.26 145.26 96.10 146.06 97.11 146.04 C 98.13 146.01 98.93 145.17 98.90 144.16 L 98.88 143.15 C 98.85 142.14 98.01 141.34 97.00 141.37 C 95.99 141.39 95.19 142.23 95.21 143.24 Z M 95.23 144.25 L 95.26 145.26 C 95.29 146.27 96.13 147.07 97.14 147.05 C 98.15 147.02 98.95 146.18 98.93 145.17 L 98.90 144.16 C 98.88 143.14 98.03 142.34 97.02 142.37 C 96.01 142.39 95.21 143.24 95.23 144.25 Z M 95.26 145.26 L 95.29 146.28 C 95.31 147.29 96.16 148.09 97.17 148.06 C 98.18 148.04 98.98 147.20 98.96 146.18 L 98.93 145.16 C 98.90 144.15 98.06 143.35 97.05 143.38 C 96.03 143.40 95.23 144.25 95.26 145.26 Z M 95.29 146.28 L 95.31 147.30 C 95.34 148.32 96.18 149.12 97.20 149.09 C 98.21 149.06 99.01 148.22 98.98 147.21 L 98.96 146.18 C 98.93 145.17 98.09 144.37 97.07 144.39 C 96.06 144.42 95.26 145.27 95.29 146.28 Z M 95.31 147.31 L 95.34 148.33 C 95.37 149.35 96.21 150.15 97.23 150.12 C 98.24 150.09 99.04 149.25 99.01 148.23 L 98.98 147.21 C 98.96 146.19 98.11 145.39 97.10 145.42 C 96.08 145.45 95.28 146.29 95.31 147.31 Z M 95.34 148.33 L 95.37 149.33 C 95.40 150.35 96.24 151.15 97.25 151.12 C 98.27 151.09 99.07 150.24 99.04 149.23 L 99.01 148.23 C 98.98 147.22 98.14 146.42 97.13 146.45 C 96.11 146.48 95.31 147.32 95.34 148.33 Z M 95.37 149.33 L 95.40 150.34 C 95.42 151.35 96.27 152.15 97.28 152.12 C 98.30 152.09 99.10 151.25 99.07 150.23 L 99.04 149.23 C 99.01 148.22 98.17 147.42 97.15 147.44 C 96.14 147.47 95.34 148.32 95.37 149.33 Z M 95.40 150.34 L 95.42 151.34 C 95.45 152.36 96.30 153.16 97.31 153.13 C 98.33 153.10 99.13 152.25 99.10 151.24 L 99.07 150.23 C 99.04 149.22 98.19 148.42 97.18 148.45 C 96.17 148.48 95.37 149.32 95.40 150.34 Z M 95.42 151.34 L 95.45 152.35 C 95.48 153.37 96.33 154.16 97.34 154.14 C 98.36 154.11 99.16 153.26 99.13 152.25 L 99.10 151.24 C 99.07 150.22 98.22 149.42 97.21 149.45 C 96.19 149.48 95.39 150.33 95.42 151.34 Z M 95.45 152.35 L 95.48 153.36 C 95.51 154.37 96.36 155.17 97.37 155.14 C 98.39 155.11 99.19 154.27 99.16 153.25 L 99.13 152.25 C 99.10 151.23 98.25 150.43 97.24 150.46 C 96.22 150.49 95.42 151.34 95.45 152.35 Z M 95.48 153.36 L 95.51 154.36 C 95.54 155.38 96.39 156.18 97.40 156.15 C 98.42 156.12 99.21 155.27 99.19 154.26 L 99.16 153.25 C 99.13 152.24 98.28 151.44 97.27 151.47 C 96.25 151.50 95.45 152.34 95.48 153.36 Z M 95.51 154.36 L 95.54 155.37 C 95.57 156.38 96.41 157.18 97.43 157.15 C 98.44 157.12 99.24 156.28 99.21 155.26 L 99.19 154.26 C 99.16 153.24 98.31 152.44 97.29 152.47 C 96.28 152.50 95.48 153.35 95.51 154.36 Z M 95.54 155.37 L 95.57 156.36 C 95.59 157.38 96.44 158.18 97.46 158.15 C 98.47 158.12 99.27 157.27 99.24 156.26 L 99.21 155.26 C 99.19 154.25 98.34 153.45 97.32 153.47 C 96.31 153.50 95.51 154.35 95.54 155.37 Z M 95.56 156.36 L 95.59 157.35 C 95.62 158.37 96.47 159.17 97.48 159.14 C 98.50 159.11 99.30 158.26 99.27 157.25 L 99.24 156.26 C 99.22 155.24 98.37 154.44 97.35 154.47 C 96.34 154.50 95.54 155.34 95.56 156.36 Z M 95.59 157.35 L 95.62 158.33 C 95.65 159.35 96.49 160.15 97.51 160.12 C 98.53 160.09 99.33 159.25 99.30 158.23 L 99.27 157.25 C 99.24 156.23 98.40 155.43 97.38 155.46 C 96.37 155.49 95.56 156.33 95.59 157.35 Z M 95.62 158.33 L 95.65 159.35 C 95.67 160.36 96.52 161.16 97.54 161.14 C 98.55 161.11 99.35 160.26 99.33 159.25 L 99.30 158.23 C 99.27 157.22 98.43 156.41 97.41 156.44 C 96.39 156.47 95.59 157.31 95.62 158.33 Z M 95.65 159.34 L 95.67 160.35 C 95.70 161.37 96.54 162.17 97.56 162.14 C 98.58 162.12 99.38 161.27 99.35 160.25 L 99.33 159.25 C 99.30 158.23 98.45 157.43 97.44 157.46 C 96.42 157.48 95.62 158.33 95.65 159.34 Z M 95.67 160.35 L 95.70 161.35 C 95.72 162.36 96.57 163.17 97.59 163.14 C 98.60 163.11 99.41 162.27 99.38 161.25 L 99.35 160.25 C 99.33 159.24 98.48 158.43 97.47 158.46 C 96.45 158.49 95.65 159.33 95.67 160.35 Z M 95.70 161.35 L 95.72 162.34 C 95.75 163.36 96.59 164.16 97.61 164.13 C 98.63 164.11 99.43 163.26 99.40 162.25 L 99.38 161.25 C 99.35 160.24 98.51 159.43 97.49 159.46 C 96.48 159.48 95.67 160.33 95.70 161.35 Z M 95.72 162.34 L 95.75 163.33 C 95.77 164.35 96.62 165.15 97.63 165.13 C 98.65 165.10 99.45 164.26 99.43 163.24 L 99.40 162.25 C 99.38 161.23 98.53 160.43 97.52 160.45 C 96.50 160.48 95.70 161.32 95.72 162.34 Z M 95.75 163.33 L 95.77 164.32 C 95.80 165.34 96.64 166.14 97.66 166.12 C 98.67 166.09 99.48 165.25 99.45 164.23 L 99.43 163.24 C 99.40 162.22 98.56 161.42 97.54 161.44 C 96.53 161.47 95.72 162.31 95.75 163.33 Z M 95.77 164.32 L 95.79 165.31 C 95.82 166.33 96.66 167.14 97.68 167.11 C 98.70 167.09 99.50 166.24 99.48 165.22 L 99.45 164.23 C 99.43 163.21 98.58 162.41 97.57 162.43 C 96.55 162.46 95.75 163.30 95.77 164.32 Z M 95.79 165.31 L 95.82 166.31 C 95.84 167.33 96.69 168.13 97.70 168.11 C 98.72 168.08 99.53 167.24 99.50 166.22 L 99.48 165.22 C 99.45 164.21 98.61 163.40 97.59 163.43 C 96.57 163.45 95.77 164.30 95.79 165.31 Z M 95.82 166.31 L 95.84 167.32 C 95.87 168.33 96.71 169.14 97.73 169.11 C 98.75 169.09 99.55 168.25 99.53 167.23 L 99.50 166.22 C 99.48 165.21 98.63 164.40 97.62 164.42 C 96.60 164.45 95.79 165.29 95.82 166.31 Z M 95.84 167.31 L 95.87 168.32 C 95.89 169.34 96.73 170.14 97.75 170.12 C 98.77 170.09 99.57 169.25 99.55 168.23 L 99.53 167.23 C 99.50 166.21 98.66 165.40 97.64 165.43 C 96.62 165.45 95.82 166.30 95.84 167.31 Z M 95.87 168.32 L 95.89 169.32 C 95.91 170.34 96.76 171.14 97.77 171.12 C 98.79 171.10 99.60 170.25 99.57 169.23 L 99.55 168.23 C 99.53 167.21 98.68 166.41 97.66 166.43 C 96.65 166.46 95.84 167.30 95.87 168.32 Z M 95.89 169.32 L 95.91 170.33 C 95.94 171.35 96.78 172.15 97.80 172.13 C 98.82 172.11 99.62 171.26 99.60 170.24 L 99.57 169.23 C 99.55 168.22 98.71 167.41 97.69 167.43 C 96.67 167.46 95.86 168.30 95.89 169.32 Z M 95.91 170.33 L 95.94 171.34 C 95.96 172.36 96.80 173.16 97.82 173.14 C 98.84 173.12 99.64 172.27 99.62 171.26 L 99.60 170.24 C 99.57 169.23 98.73 168.42 97.71 168.44 C 96.69 168.47 95.89 169.31 95.91 170.33 Z M 95.94 171.34 L 95.96 172.35 C 95.98 173.37 96.83 174.18 97.84 174.15 C 98.86 174.13 99.67 173.29 99.64 172.27 L 99.62 171.26 C 99.60 170.24 98.75 169.43 97.74 169.45 C 96.72 169.48 95.91 170.32 95.94 171.34 Z M 95.96 172.35 L 95.98 173.36 C 96.00 174.38 96.85 175.19 97.87 175.16 C 98.88 175.14 99.69 174.30 99.67 173.28 L 99.64 172.27 C 99.62 171.25 98.78 170.44 97.76 170.47 C 96.74 170.49 95.94 171.33 95.96 172.35 Z M 95.98 173.36 L 96.00 174.37 C 96.03 175.38 96.87 176.19 97.89 176.17 C 98.91 176.15 99.71 175.30 99.69 174.28 L 99.67 173.28 C 99.65 172.26 98.80 171.45 97.78 171.48 C 96.77 171.50 95.96 172.34 95.98 173.36 Z M 96.00 174.36 L 96.03 175.36 C 96.05 176.38 96.89 177.19 97.91 177.17 C 98.93 177.14 99.73 176.30 99.71 175.28 L 99.69 174.28 C 99.67 173.27 98.82 172.46 97.81 172.48 C 96.79 172.50 95.98 173.35 96.00 174.36 Z M 96.03 175.36 L 96.05 176.35 C 96.07 177.37 96.91 178.17 97.93 178.15 C 98.95 178.13 99.76 177.29 99.73 176.27 L 99.71 175.28 C 99.69 174.26 98.85 173.46 97.83 173.48 C 96.81 173.50 96.00 174.34 96.03 175.36 Z M 96.05 176.35 L 96.07 177.32 C 96.09 178.34 96.93 179.15 97.95 179.13 C 98.97 179.11 99.78 178.26 99.75 177.24 L 99.73 176.27 C 99.71 175.25 98.87 174.44 97.85 174.47 C 96.83 174.49 96.02 175.33 96.05 176.35 Z M 96.07 177.32 L 96.09 178.37 C 96.11 179.39 96.95 180.20 97.97 180.18 C 98.99 180.16 99.80 179.31 99.78 178.29 L 99.75 177.25 C 99.73 176.23 98.89 175.42 97.87 175.44 C 96.85 175.46 96.05 176.30 96.07 177.32 Z M 96.09 178.37 L 96.11 179.43 C 96.13 180.45 96.97 181.26 97.99 181.24 C 99.01 181.21 99.82 180.37 99.80 179.35 L 99.78 178.30 C 99.76 177.28 98.91 176.47 97.90 176.49 C 96.88 176.51 96.07 177.35 96.09 178.37 Z M 96.11 179.43 L 96.13 180.47 C 96.15 181.48 96.99 182.29 98.01 182.27 C 99.03 182.25 99.84 181.41 99.82 180.39 L 99.80 179.36 C 99.78 178.34 98.94 177.53 97.92 177.55 C 96.90 177.57 96.09 178.41 96.11 179.43 Z M 96.13 180.46 L 96.15 181.48 C 96.17 182.50 97.01 183.31 98.03 183.29 C 99.04 183.27 99.85 182.43 99.84 181.41 L 99.82 180.40 C 99.80 179.38 98.96 178.57 97.94 178.59 C 96.92 178.61 96.11 179.45 96.13 180.46 Z M 96.15 181.48 L 96.17 182.48 C 96.19 183.50 97.03 184.31 98.04 184.29 C 99.06 184.28 99.87 183.43 99.85 182.42 L 99.84 181.42 C 99.82 180.40 98.98 179.59 97.96 179.61 C 96.94 179.62 96.13 180.47 96.15 181.48 Z M 96.17 182.48 L 96.18 183.47 C 96.20 184.48 97.04 185.29 98.06 185.28 C 99.08 185.26 99.89 184.42 99.87 183.40 L 99.85 182.42 C 99.84 181.40 98.99 180.59 97.98 180.61 C 96.96 180.62 96.15 181.47 96.17 182.48 Z M 96.18 183.47 L 96.20 184.43 C 96.22 185.45 97.06 186.26 98.08 186.24 C 99.10 186.22 99.91 185.38 99.89 184.36 L 99.87 183.40 C 99.85 182.38 99.01 181.57 97.99 181.59 C 96.98 181.61 96.17 182.45 96.18 183.47 Z M 96.20 184.43 L 96.22 185.37 C 96.24 186.39 97.08 187.20 98.10 187.18 C 99.12 187.16 99.93 186.32 99.91 185.30 L 99.89 184.36 C 99.87 183.34 99.03 182.53 98.01 182.55 C 96.99 182.57 96.18 183.41 96.20 184.43 Z M 96.22 185.37 L 96.24 186.31 C 96.26 187.33 97.10 188.14 98.12 188.12 C 99.14 188.10 99.95 187.26 99.93 186.24 L 99.91 185.30 C 99.89 184.28 99.05 183.48 98.03 183.49 C 97.01 183.51 96.20 184.36 96.22 185.37 Z M 96.24 186.31 L 96.26 187.36 C 96.28 188.38 97.12 189.19 98.14 189.17 C 99.16 189.15 99.97 188.30 99.95 187.29 L 99.93 186.24 C 99.91 185.22 99.06 184.41 98.05 184.43 C 97.03 184.45 96.22 185.30 96.24 186.31 Z M 96.26 187.36 L 96.28 188.38 C 96.30 189.40 97.14 190.21 98.16 190.19 C 99.18 190.17 99.99 189.33 99.97 188.31 L 99.95 187.28 C 99.92 186.27 99.08 185.46 98.07 185.48 C 97.05 185.50 96.24 186.34 96.26 187.36 Z M 96.28 188.38 L 96.30 189.39 C 96.32 190.41 97.16 191.22 98.18 191.20 C 99.20 191.18 100.01 190.33 99.99 189.32 L 99.96 188.31 C 99.94 187.29 99.10 186.49 98.09 186.51 C 97.07 186.53 96.26 187.37 96.28 188.38 Z M 96.30 189.39 L 96.32 190.39 C 96.34 191.40 97.18 192.21 98.20 192.19 C 99.22 192.17 100.02 191.33 100.00 190.31 L 99.98 189.32 C 99.96 188.30 99.12 187.49 98.11 187.52 C 97.09 187.54 96.28 188.38 96.30 189.39 Z M 96.33 190.39 L 96.34 191.37 C 96.36 192.39 97.20 193.19 98.22 193.17 C 99.23 193.15 100.04 192.31 100.02 191.30 L 100.00 190.31 C 99.98 189.30 99.14 188.49 98.13 188.51 C 97.11 188.53 96.31 189.37 96.33 190.39 Z M 96.35 191.37 L 96.36 192.35 C 96.38 193.36 97.22 194.17 98.24 194.15 C 99.25 194.13 100.06 193.29 100.04 192.28 L 100.02 191.30 C 100.00 190.28 99.16 189.48 98.15 189.50 C 97.13 189.52 96.33 190.35 96.35 191.37 Z M 96.37 192.34 L 96.38 193.32 C 96.40 194.33 97.24 195.14 98.25 195.12 C 99.27 195.10 100.07 194.27 100.06 193.25 L 100.04 192.28 C 100.02 191.26 99.18 190.46 98.17 190.47 C 97.16 190.49 96.35 191.33 96.37 192.34 Z M 96.38 193.31 L 96.40 194.30 C 96.42 195.31 97.25 196.12 98.26 196.11 C 99.28 196.09 100.09 195.26 100.07 194.24 L 100.05 193.25 C 100.04 192.24 99.20 191.43 98.19 191.45 C 97.18 191.46 96.37 192.30 96.38 193.31 Z M 96.40 194.30 L 96.42 195.30 C 96.43 196.31 97.26 197.12 98.28 197.10 C 99.29 197.09 100.10 196.26 100.08 195.24 L 100.07 194.24 C 100.05 193.23 99.22 192.42 98.21 192.44 C 97.20 192.45 96.39 193.28 96.40 194.30 Z M 96.42 195.29 L 96.43 196.30 C 96.44 197.31 97.27 198.12 98.29 198.10 C 99.30 198.09 100.11 197.26 100.09 196.25 L 100.08 195.25 C 100.07 194.23 99.24 193.42 98.22 193.44 C 97.21 193.45 96.40 194.28 96.42 195.29 Z M 96.43 196.29 L 96.44 197.29 C 96.46 198.30 97.29 199.11 98.30 199.10 C 99.31 199.09 100.12 198.26 100.11 197.25 L 100.09 196.25 C 100.08 195.24 99.25 194.43 98.24 194.44 C 97.23 194.45 96.42 195.28 96.43 196.29 Z M 96.45 197.29 L 96.46 198.29 C 96.47 199.30 97.30 200.11 98.31 200.10 C 99.32 200.09 100.13 199.26 100.12 198.25 L 100.10 197.25 C 100.09 196.24 99.26 195.43 98.25 195.44 C 97.24 195.45 96.43 196.28 96.45 197.29 Z M 96.46 198.29 L 96.47 199.29 C 96.48 200.30 97.31 201.11 98.32 201.10 C 99.33 201.09 100.14 200.26 100.12 199.25 L 100.11 198.25 C 100.10 197.24 99.28 196.43 98.27 196.44 C 97.26 196.45 96.45 197.28 96.46 198.29 Z M 96.47 199.29 L 96.48 200.29 C 96.49 201.30 97.32 202.11 98.33 202.10 C 99.33 202.09 100.14 201.26 100.13 200.25 L 100.12 199.25 C 100.11 198.24 99.29 197.43 98.28 197.44 C 97.27 197.46 96.46 198.28 96.47 199.29 Z M 96.48 200.29 L 96.49 201.30 C 96.50 202.30 97.33 203.11 98.34 203.10 C 99.34 203.09 100.15 202.27 100.14 201.26 L 100.13 200.25 C 100.12 199.24 99.30 198.44 98.29 198.45 C 97.28 198.46 96.47 199.28 96.48 200.29 Z M 96.49 201.30 L 96.50 202.32 C 96.51 203.33 97.34 204.14 98.35 204.13 C 99.35 204.12 100.16 203.29 100.15 202.28 L 100.14 201.26 C 100.13 200.25 99.31 199.44 98.30 199.45 C 97.29 199.46 96.48 200.29 96.49 201.30 Z M 96.51 202.32 L 96.52 203.34 C 96.53 204.35 97.35 205.16 98.36 205.15 C 99.36 205.14 100.17 204.31 100.16 203.31 L 100.15 202.28 C 100.14 201.28 99.31 200.47 98.31 200.48 C 97.30 200.49 96.50 201.32 96.51 202.32 Z M 96.52 203.34 L 96.53 204.36 C 96.54 205.36 97.36 206.17 98.37 206.16 C 99.37 206.15 100.18 205.33 100.17 204.32 L 100.16 203.31 C 100.15 202.30 99.32 201.50 98.32 201.51 C 97.32 201.52 96.51 202.34 96.52 203.34 Z M 96.53 204.36 L 96.54 205.36 C 96.55 206.37 97.37 207.17 98.38 207.16 C 99.38 207.15 100.19 206.33 100.17 205.33 L 100.16 204.32 C 100.15 203.32 99.33 202.51 98.33 202.52 C 97.33 202.53 96.52 203.36 96.53 204.36 Z M 96.54 205.36 L 96.56 206.35 C 96.57 207.36 97.39 208.16 98.39 208.15 C 99.39 208.14 100.19 207.32 100.18 206.32 L 100.17 205.33 C 100.16 204.32 99.34 203.52 98.34 203.53 C 97.34 203.54 96.53 204.36 96.54 205.36 Z M 96.56 206.36 L 96.57 207.33 C 96.58 208.33 97.40 209.13 98.40 209.12 C 99.40 209.11 100.20 208.29 100.19 207.29 L 100.18 206.32 C 100.17 205.32 99.35 204.51 98.35 204.52 C 97.35 204.53 96.55 205.35 96.56 206.36 Z M 96.57 207.33 L 96.58 208.30 C 96.59 209.30 97.41 210.10 98.41 210.09 C 99.41 210.08 100.21 209.26 100.20 208.26 L 100.19 207.29 C 100.18 206.29 99.36 205.49 98.36 205.50 C 97.36 205.51 96.56 206.33 96.57 207.33 Z M 96.58 208.30 L 96.60 209.37 C 96.61 210.37 97.42 211.17 98.42 211.16 C 99.42 211.15 100.22 210.33 100.21 209.33 L 100.20 208.26 C 100.19 207.26 99.37 206.46 98.37 206.47 C 97.37 206.48 96.57 207.30 96.58 208.30 Z M 96.60 209.37 L 96.61 210.42 C 96.62 211.41 97.44 212.21 98.44 212.20 C 99.43 212.19 100.23 211.37 100.22 210.37 L 100.21 209.33 C 100.19 208.33 99.38 207.54 98.38 207.55 C 97.38 207.56 96.59 208.38 96.60 209.37 Z M 96.61 210.42 L 96.63 211.43 C 96.64 212.43 97.46 213.22 98.45 213.21 C 99.45 213.20 100.24 212.38 100.23 211.39 L 100.22 210.37 C 100.20 209.38 99.39 208.58 98.39 208.59 C 97.40 208.61 96.60 209.42 96.61 210.42 Z M 96.63 211.44 L 96.64 212.42 C 96.66 213.41 97.48 214.21 98.47 214.19 C 99.46 214.18 100.26 213.36 100.24 212.37 L 100.23 211.38 C 100.21 210.39 99.39 209.60 98.40 209.61 C 97.41 209.63 96.61 210.44 96.63 211.44 Z M 96.65 212.42 L 96.66 213.38 C 96.68 214.37 97.50 215.16 98.49 215.15 C 99.48 215.13 100.27 214.31 100.25 213.32 L 100.24 212.36 C 100.22 211.37 99.40 210.58 98.41 210.60 C 97.42 210.61 96.63 211.43 96.65 212.42 Z M 96.67 213.38 L 96.68 214.31 C 96.70 215.30 97.52 216.09 98.51 216.07 C 99.50 216.05 100.29 215.23 100.27 214.24 L 100.25 213.31 C 100.23 212.32 99.41 211.54 98.42 211.56 C 97.43 211.58 96.65 212.39 96.67 213.38 Z M 96.69 214.32 L 96.71 215.42 C 96.73 216.41 97.55 217.19 98.54 217.17 C 99.53 217.15 100.31 216.33 100.29 215.34 L 100.26 214.24 C 100.24 213.25 99.42 212.47 98.44 212.49 C 97.45 212.51 96.66 213.33 96.69 214.32 Z M 96.72 215.43 L 96.74 216.49 C 96.77 217.48 97.59 218.26 98.57 218.23 C 99.56 218.21 100.34 217.39 100.31 216.40 L 100.28 215.33 C 100.26 214.35 99.44 213.57 98.45 213.60 C 97.47 213.62 96.69 214.44 96.72 215.43 Z M 96.75 216.50 L 96.78 217.51 C 96.81 218.49 97.62 219.27 98.61 219.24 C 99.59 219.21 100.36 218.39 100.34 217.41 L 100.31 216.40 C 100.28 215.42 99.46 214.64 98.48 214.67 C 97.50 214.70 96.72 215.52 96.75 216.50 Z M 96.78 217.51 L 96.81 218.45 C 96.84 219.43 97.66 220.20 98.64 220.18 C 99.62 220.15 100.39 219.33 100.36 218.35 L 100.33 217.41 C 100.30 216.43 99.48 215.66 98.50 215.69 C 97.53 215.71 96.75 216.53 96.78 217.51 Z M 96.82 218.45 L 96.84 219.32 C 96.87 220.30 97.69 221.07 98.66 221.04 C 99.64 221.01 100.41 220.19 100.38 219.22 L 100.35 218.35 C 100.32 217.37 99.51 216.60 98.53 216.63 C 97.56 216.66 96.79 217.48 96.82 218.45 Z M 96.85 219.32 L 96.88 220.44 C 96.91 221.42 97.72 222.18 98.69 222.16 C 99.67 222.13 100.43 221.32 100.41 220.34 L 100.37 219.22 C 100.35 218.25 99.53 217.48 98.56 217.51 C 97.59 217.53 96.82 218.35 96.85 219.32 Z M 96.88 220.44 L 96.91 221.44 C 96.94 222.41 97.75 223.18 98.72 223.15 C 99.69 223.12 100.46 222.31 100.43 221.34 L 100.40 220.34 C 100.37 219.37 99.56 218.61 98.59 218.63 C 97.62 218.66 96.86 219.47 96.88 220.44 Z M 96.92 221.45 L 96.95 222.37 C 96.98 223.33 97.79 224.09 98.75 224.06 C 99.72 224.03 100.48 223.22 100.45 222.26 L 100.42 221.34 C 100.39 220.37 99.58 219.61 98.62 219.64 C 97.65 219.67 96.89 220.48 96.92 221.45 Z M 96.95 222.38 L 96.99 223.35 C 97.03 224.32 97.84 225.07 98.80 225.03 C 99.77 224.99 100.52 224.18 100.48 223.22 L 100.45 222.24 C 100.41 221.28 99.60 220.53 98.63 220.56 C 97.67 220.60 96.92 221.41 96.95 222.38 Z M 97.00 223.37 L 97.05 224.38 C 97.09 225.34 97.91 226.08 98.87 226.04 C 99.83 225.99 100.57 225.17 100.52 224.21 L 100.48 223.20 C 100.43 222.24 99.61 221.50 98.65 221.55 C 97.69 221.59 96.95 222.41 97.00 223.37 Z M 97.05 224.40 L 97.11 225.38 C 97.17 226.34 97.99 227.06 98.95 227.01 C 99.90 226.95 100.63 226.13 100.57 225.17 L 100.52 224.19 C 100.46 223.24 99.64 222.51 98.68 222.57 C 97.73 222.62 97.00 223.44 97.05 224.40 Z M 97.12 225.40 L 97.20 226.42 C 97.27 227.37 98.10 228.08 99.05 228.01 C 100.00 227.94 100.71 227.12 100.64 226.17 L 100.56 225.15 C 100.49 224.20 99.67 223.49 98.72 223.56 C 97.77 223.63 97.05 224.45 97.12 225.40 Z M 97.21 226.44 L 97.30 227.44 C 97.38 228.38 98.21 229.08 99.15 229.00 C 100.10 228.92 100.80 228.09 100.71 227.14 L 100.63 226.15 C 100.54 225.20 99.71 224.50 98.77 224.59 C 97.83 224.67 97.13 225.50 97.21 226.44 Z M 97.31 227.46 L 97.41 228.43 C 97.50 229.36 98.33 230.05 99.26 229.96 C 100.20 229.86 100.88 229.03 100.79 228.10 L 100.70 227.13 C 100.61 226.19 99.78 225.51 98.84 225.60 C 97.91 225.69 97.22 226.52 97.31 227.46 Z M 97.43 228.43 L 97.53 229.47 C 97.63 230.39 98.45 231.06 99.38 230.97 C 100.30 230.87 100.97 230.05 100.88 229.12 L 100.77 228.09 C 100.68 227.17 99.85 226.49 98.93 226.59 C 98.00 226.68 97.33 227.51 97.43 228.43 Z M 97.55 229.48 L 97.66 230.43 C 97.76 231.34 98.58 232.00 99.49 231.90 C 100.40 231.80 101.06 230.98 100.96 230.07 L 100.86 229.11 C 100.76 228.20 99.94 227.54 99.02 227.64 C 98.11 227.74 97.45 228.56 97.55 229.48 Z M 97.68 230.44 L 97.81 231.47 C 97.92 232.37 98.73 233.01 99.63 232.90 C 100.53 232.79 101.17 231.97 101.06 231.08 L 100.94 230.05 C 100.83 229.15 100.01 228.51 99.11 228.62 C 98.22 228.73 97.58 229.55 97.68 230.44 Z M 97.84 231.50 L 97.98 232.45 C 98.10 233.34 98.92 233.95 99.80 233.82 C 100.68 233.69 101.29 232.87 101.17 231.99 L 101.03 231.04 C 100.90 230.16 100.08 229.55 99.20 229.68 C 98.32 229.80 97.71 230.62 97.84 231.50 Z M 98.02 232.55 L 98.22 233.52 C 98.40 234.37 99.24 234.92 100.10 234.75 C 100.95 234.57 101.50 233.73 101.32 232.87 L 101.12 231.90 C 100.94 231.04 100.11 230.49 99.25 230.67 C 98.39 230.85 97.84 231.69 98.02 232.55 Z M 98.33 233.76 L 98.71 234.73 C 99.02 235.53 99.92 235.93 100.71 235.62 C 101.51 235.31 101.90 234.41 101.60 233.61 L 101.21 232.64 C 100.91 231.84 100.01 231.44 99.21 231.75 C 98.42 232.06 98.02 232.96 98.33 233.76 Z M 99.03 235.15 L 99.66 235.88 C 100.20 236.50 101.14 236.57 101.76 236.03 C 102.39 235.49 102.45 234.55 101.91 233.93 L 101.28 233.20 C 100.74 232.58 99.80 232.51 99.18 233.05 C 98.56 233.59 98.49 234.53 99.03 235.15 Z M 101.01 236.34 L 101.83 236.21 C 102.62 236.09 103.16 235.35 103.04 234.56 C 102.92 233.77 102.18 233.23 101.39 233.35 L 100.57 233.48 C 99.78 233.60 99.24 234.34 99.36 235.12 C 99.48 235.91 100.22 236.46 101.01 236.34 Z M 102.45 235.94 L 103.07 235.49 C 103.72 235.02 103.86 234.13 103.40 233.49 C 102.93 232.85 102.04 232.70 101.40 233.17 L 100.77 233.62 C 100.13 234.08 99.99 234.98 100.45 235.62 C 100.91 236.26 101.81 236.40 102.45 235.94 Z"
      fill="black"
      fill-rule="nonzero" /><path d="M 129.57 98.24 L 129.91 99.20 C 130.17 99.98 131.02 100.38 131.79 100.11 C 132.56 99.85 132.97 99.00 132.70 98.23 L 132.36 97.26 C 132.09 96.49 131.25 96.08 130.48 96.35 C 129.71 96.62 129.30 97.46 129.57 98.24 Z M 129.86 99.24 L 130.19 100.17 C 130.48 100.97 131.36 101.38 132.16 101.09 C 132.96 100.80 133.37 99.92 133.09 99.12 L 132.75 98.19 C 132.46 97.40 131.58 96.98 130.78 97.27 C 129.98 97.56 129.57 98.44 129.86 99.24 Z M 130.17 100.22 L 130.52 101.13 C 130.84 101.94 131.76 102.34 132.57 102.02 C 133.38 101.70 133.78 100.79 133.46 99.97 L 133.11 99.07 C 132.79 98.26 131.87 97.86 131.06 98.18 C 130.25 98.50 129.85 99.41 130.17 100.22 Z M 130.52 101.17 L 130.90 102.08 C 131.25 102.89 132.18 103.28 132.99 102.93 C 133.81 102.59 134.19 101.66 133.85 100.85 L 133.47 99.93 C 133.12 99.12 132.19 98.74 131.38 99.08 C 130.56 99.42 130.18 100.36 130.52 101.17 Z M 130.90 102.09 L 131.27 102.98 C 131.62 103.79 132.56 104.17 133.38 103.83 C 134.19 103.48 134.58 102.54 134.23 101.72 L 133.85 100.84 C 133.51 100.02 132.57 99.64 131.75 99.99 C 130.93 100.33 130.55 101.27 130.90 102.09 Z M 131.26 102.97 L 131.64 103.87 C 131.98 104.69 132.93 105.08 133.75 104.73 C 134.57 104.39 134.96 103.44 134.61 102.62 L 134.24 101.72 C 133.89 100.90 132.95 100.52 132.13 100.86 C 131.31 101.21 130.92 102.15 131.26 102.97 Z M 131.63 103.87 L 132.04 104.85 C 132.39 105.68 133.33 106.07 134.16 105.73 C 134.99 105.39 135.38 104.44 135.03 103.61 L 134.62 102.62 C 134.28 101.80 133.33 101.40 132.51 101.75 C 131.68 102.09 131.29 103.04 131.63 103.87 Z M 132.04 104.85 L 132.41 105.75 C 132.75 106.58 133.70 106.98 134.53 106.64 C 135.36 106.29 135.76 105.34 135.41 104.51 L 135.04 103.61 C 134.70 102.78 133.75 102.39 132.92 102.73 C 132.09 103.07 131.69 104.02 132.04 104.85 Z M 132.40 105.76 L 132.78 106.67 C 133.13 107.50 134.08 107.90 134.91 107.56 C 135.74 107.21 136.14 106.26 135.80 105.43 L 135.42 104.51 C 135.07 103.68 134.12 103.28 133.29 103.63 C 132.46 103.97 132.06 104.92 132.40 105.76 Z M 132.78 106.68 L 133.17 107.63 C 133.52 108.46 134.48 108.85 135.31 108.51 C 136.14 108.16 136.54 107.21 136.19 106.37 L 135.80 105.42 C 135.45 104.59 134.50 104.19 133.66 104.54 C 132.83 104.89 132.43 105.84 132.78 106.68 Z M 133.17 107.63 L 133.56 108.56 C 133.91 109.40 134.87 109.79 135.71 109.44 C 136.54 109.09 136.93 108.13 136.58 107.30 L 136.19 106.36 C 135.84 105.53 134.88 105.14 134.05 105.49 C 133.21 105.84 132.82 106.80 133.17 107.63 Z M 133.56 108.57 L 133.94 109.47 C 134.30 110.30 135.26 110.69 136.10 110.34 C 136.93 109.98 137.32 109.01 136.97 108.18 L 136.59 107.29 C 136.23 106.45 135.27 106.06 134.43 106.42 C 133.60 106.77 133.21 107.74 133.56 108.57 Z M 133.94 109.47 L 134.33 110.39 C 134.69 111.23 135.66 111.61 136.49 111.26 C 137.33 110.90 137.72 109.93 137.36 109.09 L 136.97 108.17 C 136.61 107.34 135.64 106.95 134.80 107.31 C 133.97 107.66 133.58 108.63 133.94 109.47 Z M 134.32 110.39 L 134.73 111.34 C 135.09 112.18 136.06 112.57 136.90 112.21 C 137.74 111.85 138.13 110.88 137.77 110.04 L 137.37 109.09 C 137.01 108.25 136.04 107.86 135.19 108.22 C 134.35 108.58 133.96 109.55 134.32 110.39 Z M 134.72 111.34 L 135.11 112.24 C 135.46 113.08 136.44 113.47 137.29 113.12 C 138.13 112.76 138.52 111.78 138.16 110.94 L 137.78 110.04 C 137.42 109.19 136.45 108.80 135.60 109.16 C 134.76 109.52 134.36 110.49 134.72 111.34 Z M 135.10 112.24 L 135.47 113.12 C 135.83 113.97 136.81 114.37 137.66 114.01 C 138.51 113.65 138.90 112.67 138.54 111.83 L 138.17 110.94 C 137.81 110.09 136.83 109.69 135.99 110.05 C 135.14 110.41 134.74 111.39 135.10 112.24 Z M 135.47 113.12 L 135.85 114.04 C 136.21 114.89 137.19 115.29 138.04 114.94 C 138.89 114.58 139.29 113.60 138.94 112.75 L 138.55 111.83 C 138.20 110.98 137.22 110.58 136.36 110.93 C 135.51 111.29 135.11 112.27 135.47 113.12 Z M 135.84 114.04 L 136.24 114.99 C 136.59 115.85 137.57 116.26 138.43 115.90 C 139.29 115.55 139.69 114.57 139.34 113.71 L 138.94 112.76 C 138.59 111.90 137.61 111.49 136.75 111.85 C 135.90 112.20 135.49 113.18 135.84 114.04 Z M 136.23 114.99 L 136.62 115.93 C 136.97 116.79 137.95 117.21 138.81 116.86 C 139.67 116.51 140.08 115.53 139.73 114.67 L 139.35 113.72 C 139.00 112.86 138.02 112.44 137.16 112.79 C 136.30 113.15 135.88 114.13 136.23 114.99 Z M 136.61 115.93 L 136.96 116.81 C 137.31 117.67 138.29 118.09 139.16 117.74 C 140.02 117.40 140.44 116.42 140.09 115.55 L 139.74 114.67 C 139.39 113.81 138.41 113.39 137.55 113.73 C 136.68 114.08 136.26 115.06 136.61 115.93 Z M 136.95 116.80 L 137.31 117.70 C 137.65 118.57 138.63 119.00 139.50 118.66 C 140.37 118.32 140.80 117.34 140.46 116.47 L 140.10 115.56 C 139.76 114.69 138.78 114.26 137.91 114.60 C 137.04 114.95 136.61 115.93 136.95 116.80 Z M 137.30 117.69 L 137.66 118.63 C 138.00 119.51 138.98 119.94 139.85 119.61 C 140.72 119.27 141.16 118.29 140.83 117.42 L 140.47 116.48 C 140.13 115.61 139.15 115.17 138.28 115.50 C 137.40 115.84 136.97 116.82 137.30 117.69 Z M 137.65 118.62 L 138.02 119.59 C 138.34 120.47 139.32 120.92 140.20 120.59 C 141.08 120.27 141.53 119.29 141.20 118.41 L 140.84 117.43 C 140.51 116.56 139.53 116.11 138.65 116.43 C 137.77 116.76 137.33 117.74 137.65 118.62 Z M 138.01 119.58 L 138.36 120.56 C 138.68 121.44 139.65 121.90 140.53 121.58 C 141.42 121.26 141.88 120.29 141.56 119.40 L 141.21 118.42 C 140.89 117.54 139.92 117.08 139.03 117.40 C 138.15 117.72 137.69 118.69 138.01 119.58 Z M 138.35 120.54 L 138.66 121.44 C 138.97 122.33 139.94 122.80 140.83 122.49 C 141.72 122.18 142.19 121.21 141.88 120.32 L 141.57 119.42 C 141.26 118.53 140.29 118.06 139.40 118.37 C 138.51 118.68 138.04 119.65 138.35 120.54 Z M 138.65 121.43 L 138.96 122.35 C 139.27 123.25 140.24 123.73 141.13 123.42 C 142.03 123.12 142.51 122.15 142.20 121.25 L 141.89 120.33 C 141.59 119.43 140.62 118.95 139.72 119.26 C 138.83 119.56 138.35 120.53 138.65 121.43 Z M 138.96 122.34 L 139.27 123.29 C 139.57 124.19 140.54 124.68 141.44 124.38 C 142.34 124.08 142.82 123.11 142.53 122.21 L 142.21 121.26 C 141.92 120.36 140.94 119.87 140.04 120.17 C 139.15 120.47 138.66 121.44 138.96 122.34 Z M 139.26 123.28 L 139.58 124.25 C 139.87 125.15 140.84 125.65 141.74 125.35 C 142.65 125.06 143.14 124.09 142.85 123.18 L 142.53 122.22 C 142.24 121.31 141.27 120.82 140.37 121.11 C 139.46 121.41 138.97 122.38 139.26 123.28 Z M 139.57 124.24 L 139.89 125.23 C 140.18 126.14 141.15 126.64 142.06 126.35 C 142.96 126.06 143.46 125.08 143.17 124.18 L 142.86 123.19 C 142.56 122.28 141.59 121.78 140.69 122.07 C 139.78 122.36 139.28 123.34 139.57 124.24 Z M 139.88 125.23 L 140.19 126.20 C 140.48 127.12 141.45 127.62 142.36 127.33 C 143.27 127.04 143.78 126.07 143.49 125.16 L 143.18 124.18 C 142.89 123.27 141.92 122.77 141.01 123.05 C 140.10 123.34 139.59 124.32 139.88 125.23 Z M 140.19 126.20 L 140.48 127.13 C 140.76 128.04 141.74 128.55 142.65 128.26 C 143.56 127.98 144.07 127.00 143.78 126.09 L 143.49 125.16 C 143.21 124.25 142.23 123.74 141.32 124.03 C 140.41 124.32 139.90 125.29 140.19 126.20 Z M 140.47 127.13 L 140.77 128.07 C 141.05 128.99 142.03 129.50 142.94 129.21 C 143.86 128.92 144.37 127.95 144.08 127.03 L 143.79 126.09 C 143.50 125.18 142.53 124.67 141.61 124.95 C 140.70 125.24 140.19 126.21 140.47 127.13 Z M 140.76 128.07 L 141.06 129.02 C 141.35 129.94 142.32 130.45 143.24 130.16 C 144.15 129.88 144.67 128.91 144.38 127.99 L 144.09 127.04 C 143.80 126.12 142.83 125.61 141.91 125.89 C 140.99 126.18 140.48 127.15 140.76 128.07 Z M 141.06 129.02 L 141.35 129.98 C 141.64 130.90 142.61 131.41 143.53 131.13 C 144.45 130.85 144.97 129.87 144.68 128.95 L 144.39 127.99 C 144.10 127.07 143.13 126.56 142.21 126.84 C 141.29 127.12 140.77 128.10 141.06 129.02 Z M 141.35 129.98 L 141.65 130.95 C 141.93 131.87 142.91 132.39 143.83 132.10 C 144.75 131.82 145.27 130.84 144.99 129.92 L 144.69 128.95 C 144.40 128.03 143.43 127.51 142.50 127.80 C 141.58 128.08 141.07 129.06 141.35 129.98 Z M 141.65 130.95 L 141.95 131.93 C 142.23 132.85 143.21 133.37 144.13 133.09 C 145.06 132.80 145.57 131.83 145.29 130.90 L 144.99 129.92 C 144.71 129.00 143.73 128.48 142.80 128.77 C 141.88 129.05 141.36 130.03 141.65 130.95 Z M 141.94 131.93 L 142.25 132.91 C 142.53 133.84 143.51 134.36 144.43 134.07 C 145.36 133.79 145.88 132.81 145.59 131.88 L 145.29 130.90 C 145.01 129.98 144.03 129.46 143.11 129.74 C 142.18 130.03 141.66 131.01 141.94 131.93 Z M 142.24 132.91 L 142.54 133.89 C 142.83 134.82 143.81 135.34 144.74 135.06 C 145.66 134.77 146.18 133.79 145.90 132.87 L 145.60 131.88 C 145.31 130.96 144.33 130.44 143.41 130.72 C 142.48 131.00 141.96 131.99 142.24 132.91 Z M 142.54 133.90 L 142.84 134.87 C 143.12 135.80 144.11 136.32 145.04 136.04 C 145.97 135.75 146.49 134.77 146.20 133.84 L 145.90 132.86 C 145.62 131.94 144.63 131.41 143.71 131.70 C 142.78 131.98 142.25 132.97 142.54 133.90 Z M 142.84 134.88 L 143.13 135.84 C 143.42 136.77 144.40 137.30 145.34 137.01 C 146.27 136.72 146.79 135.74 146.50 134.81 L 146.21 133.84 C 145.92 132.91 144.93 132.39 144.00 132.67 C 143.07 132.96 142.55 133.94 142.84 134.88 Z M 143.13 135.84 L 143.42 136.79 C 143.71 137.73 144.70 138.25 145.63 137.96 C 146.56 137.67 147.09 136.69 146.80 135.75 L 146.51 134.80 C 146.22 133.87 145.23 133.35 144.30 133.64 C 143.37 133.92 142.84 134.91 143.13 135.84 Z M 143.42 136.80 L 143.71 137.72 C 143.99 138.66 144.99 139.18 145.92 138.89 C 146.85 138.60 147.38 137.61 147.09 136.67 L 146.80 135.75 C 146.51 134.82 145.52 134.29 144.59 134.58 C 143.65 134.87 143.13 135.86 143.42 136.80 Z M 143.70 137.73 L 143.99 138.66 C 144.29 139.60 145.28 140.12 146.22 139.83 C 147.15 139.53 147.67 138.54 147.38 137.60 L 147.09 136.67 C 146.80 135.73 145.80 135.21 144.87 135.50 C 143.93 135.80 143.41 136.79 143.70 137.73 Z M 143.99 138.66 L 144.31 139.67 C 144.60 140.60 145.60 141.12 146.53 140.83 C 147.47 140.54 147.99 139.54 147.70 138.60 L 147.38 137.60 C 147.09 136.66 146.09 136.14 145.16 136.44 C 144.22 136.73 143.70 137.73 143.99 138.66 Z M 144.31 139.67 L 144.61 140.64 C 144.91 141.57 145.91 142.09 146.84 141.80 C 147.78 141.50 148.30 140.50 148.00 139.57 L 147.70 138.60 C 147.40 137.67 146.40 137.15 145.47 137.44 C 144.53 137.74 144.01 138.73 144.31 139.67 Z M 144.61 140.64 L 144.91 141.58 C 145.20 142.51 146.20 143.04 147.14 142.74 C 148.07 142.45 148.59 141.45 148.30 140.51 L 148.00 139.57 C 147.71 138.63 146.71 138.11 145.77 138.41 C 144.84 138.70 144.32 139.70 144.61 140.64 Z M 144.91 141.58 L 145.20 142.50 C 145.49 143.44 146.49 143.96 147.42 143.67 C 148.36 143.38 148.89 142.38 148.59 141.44 L 148.30 140.51 C 148.01 139.57 147.01 139.05 146.07 139.35 C 145.13 139.64 144.61 140.64 144.91 141.58 Z M 145.19 142.50 L 145.48 143.42 C 145.77 144.36 146.77 144.88 147.70 144.59 C 148.64 144.30 149.17 143.31 148.88 142.37 L 148.59 141.44 C 148.30 140.50 147.31 139.98 146.37 140.27 C 145.43 140.56 144.90 141.56 145.19 142.50 Z M 145.47 143.41 L 145.76 144.34 C 146.04 145.28 147.04 145.82 147.98 145.53 C 148.92 145.24 149.45 144.25 149.17 143.31 L 148.88 142.37 C 148.60 141.43 147.60 140.90 146.66 141.19 C 145.72 141.47 145.19 142.47 145.47 143.41 Z M 145.75 144.34 L 146.03 145.28 C 146.32 146.22 147.31 146.76 148.26 146.48 C 149.20 146.19 149.74 145.20 149.45 144.26 L 149.17 143.31 C 148.89 142.37 147.89 141.83 146.95 142.11 C 146.01 142.40 145.47 143.39 145.75 144.34 Z M 146.03 145.27 L 146.31 146.22 C 146.59 147.17 147.58 147.71 148.53 147.43 C 149.47 147.15 150.02 146.16 149.74 145.22 L 149.46 144.26 C 149.18 143.32 148.19 142.78 147.24 143.05 C 146.29 143.33 145.75 144.32 146.03 145.27 Z M 146.31 146.22 L 146.59 147.18 C 146.86 148.13 147.85 148.67 148.80 148.40 C 149.75 148.13 150.29 147.13 150.02 146.19 L 149.74 145.22 C 149.47 144.27 148.48 143.73 147.53 144.00 C 146.58 144.28 146.03 145.27 146.31 146.22 Z M 146.58 147.17 L 146.86 148.15 C 147.13 149.10 148.12 149.65 149.07 149.38 C 150.02 149.11 150.57 148.12 150.30 147.17 L 150.02 146.19 C 149.75 145.24 148.76 144.69 147.81 144.96 C 146.86 145.23 146.31 146.22 146.58 147.17 Z M 146.86 148.14 L 147.13 149.12 C 147.40 150.08 148.39 150.63 149.34 150.36 C 150.29 150.09 150.85 149.11 150.58 148.15 L 150.31 147.17 C 150.04 146.22 149.05 145.67 148.10 145.93 C 147.14 146.20 146.59 147.19 146.86 148.14 Z M 147.13 149.12 L 147.39 150.07 C 147.66 151.02 148.65 151.58 149.60 151.31 C 150.55 151.05 151.11 150.06 150.85 149.11 L 150.58 148.16 C 150.32 147.21 149.33 146.65 148.38 146.91 C 147.42 147.18 146.87 148.16 147.13 149.12 Z M 147.39 150.06 L 147.65 151.02 C 147.91 151.97 148.90 152.53 149.86 152.27 C 150.81 152.01 151.37 151.02 151.11 150.07 L 150.85 149.11 C 150.59 148.16 149.60 147.59 148.65 147.86 C 147.69 148.12 147.13 149.11 147.39 150.06 Z M 147.65 151.01 L 147.91 151.98 C 148.17 152.94 149.16 153.50 150.11 153.24 C 151.07 152.98 151.64 152.00 151.38 151.04 L 151.11 150.07 C 150.86 149.12 149.87 148.55 148.91 148.81 C 147.96 149.07 147.39 150.06 147.65 151.01 Z M 147.91 151.97 L 148.17 152.95 C 148.43 153.90 149.41 154.47 150.37 154.22 C 151.33 153.96 151.90 152.97 151.64 152.02 L 151.38 151.04 C 151.12 150.09 150.14 149.52 149.18 149.77 C 148.22 150.03 147.65 151.02 147.91 151.97 Z M 148.17 152.94 L 148.43 153.92 C 148.68 154.88 149.66 155.45 150.62 155.20 C 151.58 154.94 152.16 153.96 151.90 153.00 L 151.64 152.02 C 151.39 151.06 150.40 150.49 149.44 150.74 C 148.48 151.00 147.91 151.98 148.17 152.94 Z M 148.42 153.91 L 148.68 154.90 C 148.93 155.86 149.92 156.43 150.88 156.18 C 151.84 155.93 152.41 154.95 152.16 153.98 L 151.90 153.00 C 151.65 152.04 150.67 151.47 149.71 151.72 C 148.75 151.97 148.17 152.95 148.42 153.91 Z M 148.68 154.89 L 148.94 155.88 C 149.19 156.84 150.17 157.42 151.13 157.17 C 152.09 156.92 152.67 155.94 152.42 154.97 L 152.16 153.99 C 151.91 153.03 150.93 152.45 149.97 152.70 C 149.01 152.95 148.43 153.93 148.68 154.89 Z M 148.94 155.88 L 149.19 156.86 C 149.44 157.82 150.42 158.40 151.38 158.15 C 152.34 157.90 152.92 156.92 152.67 155.96 L 152.42 154.98 C 152.17 154.01 151.19 153.44 150.23 153.68 C 149.27 153.93 148.69 154.91 148.94 155.88 Z M 149.19 156.86 L 149.44 157.83 C 149.69 158.80 150.67 159.37 151.63 159.13 C 152.59 158.88 153.17 157.90 152.93 156.93 L 152.67 155.96 C 152.43 155.00 151.44 154.42 150.48 154.67 C 149.52 154.92 148.94 155.90 149.19 156.86 Z M 149.44 157.84 L 149.69 158.80 C 149.94 159.76 150.92 160.34 151.88 160.09 C 152.85 159.84 153.42 158.86 153.17 157.90 L 152.92 156.93 C 152.68 155.97 151.69 155.39 150.73 155.64 C 149.77 155.89 149.19 156.87 149.44 157.84 Z M 149.69 158.80 L 149.94 159.75 C 150.19 160.71 151.17 161.29 152.13 161.04 C 153.10 160.78 153.67 159.80 153.42 158.84 L 153.17 157.89 C 152.92 156.93 151.94 156.35 150.98 156.61 C 150.02 156.86 149.44 157.84 149.69 158.80 Z M 149.94 159.75 L 150.20 160.72 C 150.45 161.68 151.44 162.26 152.40 162.00 C 153.36 161.75 153.93 160.76 153.68 159.80 L 153.42 158.83 C 153.17 157.87 152.18 157.30 151.22 157.55 C 150.26 157.81 149.68 158.79 149.94 159.75 Z M 150.20 160.73 L 150.46 161.72 C 150.72 162.68 151.71 163.25 152.67 162.99 C 153.63 162.73 154.20 161.74 153.94 160.78 L 153.67 159.79 C 153.41 158.83 152.43 158.26 151.47 158.52 C 150.51 158.78 149.94 159.77 150.20 160.73 Z M 150.47 161.73 L 150.73 162.70 C 151.00 163.66 151.99 164.22 152.95 163.95 C 153.91 163.69 154.47 162.70 154.20 161.74 L 153.94 160.77 C 153.67 159.81 152.68 159.25 151.72 159.52 C 150.77 159.78 150.20 160.77 150.47 161.73 Z M 150.74 162.71 L 151.01 163.66 C 151.28 164.62 152.27 165.17 153.23 164.90 C 154.19 164.63 154.74 163.64 154.47 162.68 L 154.20 161.73 C 153.93 160.77 152.94 160.22 151.98 160.49 C 151.02 160.76 150.47 161.75 150.74 162.71 Z M 151.01 163.67 L 151.28 164.62 C 151.56 165.57 152.56 166.12 153.52 165.84 C 154.47 165.56 155.02 164.57 154.74 163.61 L 154.47 162.67 C 154.19 161.71 153.19 161.17 152.24 161.44 C 151.28 161.72 150.73 162.72 151.01 163.67 Z M 151.29 164.63 L 151.57 165.57 C 151.86 166.53 152.86 167.07 153.81 166.78 C 154.76 166.50 155.30 165.49 155.02 164.54 L 154.74 163.60 C 154.45 162.65 153.45 162.10 152.50 162.39 C 151.54 162.67 151.00 163.68 151.29 164.63 Z M 151.58 165.59 L 151.88 166.58 C 152.17 167.53 153.18 168.06 154.13 167.77 C 155.08 167.47 155.61 166.47 155.32 165.52 L 155.01 164.53 C 154.72 163.58 153.72 163.05 152.77 163.34 C 151.82 163.63 151.28 164.64 151.58 165.59 Z M 151.89 166.59 L 152.19 167.57 C 152.49 168.51 153.50 169.04 154.45 168.74 C 155.40 168.44 155.92 167.43 155.62 166.49 L 155.32 165.51 C 155.02 164.56 154.01 164.03 153.06 164.33 C 152.11 164.63 151.59 165.64 151.89 166.59 Z M 152.20 167.57 L 152.50 168.53 C 152.81 169.48 153.82 170.00 154.76 169.70 C 155.71 169.39 156.23 168.38 155.93 167.44 L 155.62 166.48 C 155.32 165.53 154.31 165.01 153.36 165.31 C 152.42 165.62 151.89 166.63 152.20 167.57 Z M 152.51 168.54 L 152.81 169.47 C 153.11 170.41 154.12 170.93 155.07 170.62 C 156.01 170.32 156.53 169.30 156.23 168.36 L 155.92 167.43 C 155.62 166.49 154.61 165.97 153.66 166.27 C 152.72 166.58 152.20 167.59 152.51 168.54 Z M 152.81 169.47 L 153.10 170.38 C 153.41 171.32 154.42 171.84 155.37 171.53 C 156.31 171.23 156.83 170.22 156.52 169.27 L 156.22 168.36 C 155.92 167.42 154.91 166.90 153.96 167.20 C 153.02 167.51 152.50 168.52 152.81 169.47 Z M 153.10 170.38 L 153.42 171.36 C 153.73 172.30 154.74 172.82 155.68 172.52 C 156.62 172.21 157.14 171.20 156.84 170.26 L 156.52 169.28 C 156.22 168.33 155.20 167.81 154.26 168.12 C 153.32 168.42 152.80 169.43 153.10 170.38 Z M 153.42 171.36 L 153.72 172.30 C 154.03 173.25 155.04 173.77 155.98 173.46 C 156.92 173.16 157.44 172.15 157.14 171.21 L 156.84 170.26 C 156.53 169.32 155.53 168.80 154.58 169.10 C 153.64 169.40 153.12 170.41 153.42 171.36 Z M 153.72 172.30 L 154.02 173.23 C 154.32 174.17 155.32 174.70 156.27 174.40 C 157.21 174.10 157.73 173.09 157.43 172.15 L 157.14 171.22 C 156.84 170.27 155.83 169.75 154.89 170.05 C 153.95 170.35 153.43 171.35 153.72 172.30 Z M 154.02 173.22 L 154.31 174.16 C 154.61 175.11 155.61 175.63 156.55 175.34 C 157.50 175.04 158.02 174.04 157.73 173.10 L 157.44 172.16 C 157.14 171.21 156.14 170.69 155.19 170.98 C 154.25 171.28 153.73 172.28 154.02 173.22 Z M 154.31 174.15 L 154.60 175.08 C 154.89 176.02 155.89 176.55 156.83 176.26 C 157.77 175.97 158.30 174.97 158.01 174.03 L 157.73 173.10 C 157.44 172.16 156.44 171.63 155.50 171.92 C 154.55 172.21 154.02 173.21 154.31 174.15 Z M 154.60 175.08 L 154.88 176.02 C 155.17 176.96 156.17 177.49 157.11 177.21 C 158.06 176.92 158.59 175.92 158.30 174.98 L 158.01 174.03 C 157.73 173.09 156.73 172.56 155.78 172.85 C 154.84 173.13 154.31 174.13 154.60 175.08 Z M 154.89 176.02 L 155.18 176.98 C 155.47 177.92 156.46 178.45 157.40 178.16 C 158.35 177.88 158.88 176.88 158.59 175.94 L 158.30 174.98 C 158.01 174.04 157.02 173.50 156.07 173.79 C 155.13 174.08 154.60 175.07 154.89 176.02 Z M 155.18 176.98 L 155.48 177.96 C 155.77 178.90 156.76 179.43 157.71 179.14 C 158.65 178.85 159.18 177.85 158.89 176.91 L 158.59 175.94 C 158.30 175.00 157.30 174.47 156.36 174.75 C 155.42 175.04 154.89 176.04 155.18 176.98 Z M 155.48 177.96 L 155.79 178.94 C 156.08 179.87 157.07 180.40 158.01 180.11 C 158.95 179.82 159.48 178.82 159.19 177.88 L 158.88 176.91 C 158.59 175.97 157.60 175.44 156.66 175.73 C 155.72 176.03 155.19 177.02 155.48 177.96 Z M 155.79 178.94 L 156.09 179.90 C 156.39 180.83 157.38 181.35 158.32 181.06 C 159.26 180.76 159.78 179.76 159.48 178.83 L 159.18 177.87 C 158.89 176.94 157.89 176.42 156.95 176.71 C 156.02 177.01 155.50 178.01 155.79 178.94 Z M 156.10 179.90 L 156.40 180.86 C 156.70 181.79 157.70 182.30 158.63 182.01 C 159.56 181.71 160.08 180.71 159.78 179.78 L 159.48 178.82 C 159.18 177.89 158.18 177.38 157.25 177.67 C 156.31 177.97 155.80 178.97 156.10 179.90 Z M 156.41 180.86 L 156.72 181.82 C 157.02 182.75 158.01 183.26 158.94 182.95 C 159.87 182.65 160.38 181.66 160.08 180.73 L 159.77 179.77 C 159.47 178.84 158.48 178.33 157.55 178.63 C 156.62 178.94 156.11 179.93 156.41 180.86 Z M 156.72 181.82 L 157.03 182.77 C 157.33 183.69 158.33 184.20 159.26 183.90 C 160.18 183.60 160.69 182.60 160.39 181.67 L 160.08 180.72 C 159.78 179.80 158.78 179.29 157.85 179.59 C 156.93 179.90 156.42 180.89 156.72 181.82 Z M 157.04 182.77 L 157.36 183.74 C 157.66 184.66 158.66 185.16 159.58 184.86 C 160.50 184.56 161.00 183.56 160.70 182.64 L 160.38 181.67 C 160.08 180.75 159.08 180.24 158.16 180.55 C 157.24 180.85 156.73 181.85 157.04 182.77 Z M 157.36 183.74 L 157.69 184.72 C 158.00 185.64 158.99 186.13 159.91 185.83 C 160.83 185.52 161.32 184.53 161.02 183.61 L 160.69 182.63 C 160.39 181.71 159.39 181.22 158.47 181.52 C 157.55 181.83 157.06 182.82 157.36 183.74 Z M 157.70 184.73 L 158.02 185.68 C 158.33 186.59 159.33 187.08 160.24 186.77 C 161.16 186.46 161.64 185.47 161.33 184.55 L 161.01 183.60 C 160.70 182.68 159.70 182.20 158.79 182.51 C 157.88 182.82 157.39 183.81 157.70 184.73 Z M 158.03 185.69 L 158.36 186.62 C 158.68 187.53 159.67 188.01 160.58 187.69 C 161.49 187.37 161.96 186.38 161.65 185.47 L 161.32 184.54 C 161.01 183.63 160.01 183.15 159.10 183.47 C 158.19 183.79 157.72 184.78 158.03 185.69 Z M 158.37 186.63 L 158.70 187.54 C 159.03 188.45 160.02 188.91 160.92 188.59 C 161.83 188.26 162.29 187.26 161.96 186.36 L 161.63 185.45 C 161.31 184.55 160.31 184.08 159.41 184.41 C 158.51 184.74 158.04 185.73 158.37 186.63 Z M 158.71 187.57 L 159.08 188.53 C 159.42 189.43 160.42 189.88 161.31 189.54 C 162.20 189.20 162.65 188.20 162.32 187.31 L 161.95 186.34 C 161.61 185.45 160.61 185.00 159.72 185.34 C 158.83 185.67 158.38 186.67 158.71 187.57 Z M 159.10 188.56 L 159.47 189.49 C 159.82 190.37 160.82 190.80 161.70 190.45 C 162.59 190.10 163.02 189.10 162.67 188.22 L 162.30 187.29 C 161.95 186.40 160.95 185.97 160.06 186.32 C 159.18 186.67 158.75 187.67 159.10 188.56 Z M 159.48 189.51 L 159.86 190.42 C 160.22 191.29 161.23 191.71 162.10 191.34 C 162.98 190.98 163.39 189.98 163.03 189.10 L 162.65 188.20 C 162.29 187.32 161.29 186.91 160.41 187.27 C 159.54 187.63 159.12 188.63 159.48 189.51 Z M 159.88 190.44 L 160.26 191.34 C 160.64 192.20 161.64 192.60 162.51 192.23 C 163.37 191.85 163.77 190.85 163.40 189.98 L 163.01 189.08 C 162.64 188.22 161.63 187.82 160.77 188.19 C 159.90 188.57 159.50 189.57 159.88 190.44 Z M 160.28 191.35 L 160.70 192.30 C 161.09 193.16 162.09 193.54 162.95 193.16 C 163.80 192.78 164.19 191.77 163.81 190.92 L 163.38 189.97 C 163.00 189.11 162.00 188.73 161.14 189.11 C 160.28 189.49 159.90 190.50 160.28 191.35 Z M 160.72 192.31 L 161.14 193.23 C 161.53 194.08 162.53 194.46 163.38 194.07 C 164.23 193.68 164.60 192.68 164.22 191.83 L 163.79 190.90 C 163.40 190.06 162.40 189.68 161.55 190.07 C 160.70 190.46 160.33 191.46 160.72 192.31 Z M 161.15 193.24 L 161.56 194.13 C 161.95 194.97 162.95 195.34 163.79 194.95 C 164.64 194.56 165.01 193.56 164.61 192.71 L 164.20 191.82 C 163.81 190.98 162.81 190.61 161.97 191.00 C 161.13 191.39 160.76 192.39 161.15 193.24 Z M 161.57 194.12 L 161.98 195.02 C 162.37 195.86 163.37 196.22 164.21 195.83 C 165.05 195.45 165.41 194.45 165.02 193.61 L 164.61 192.72 C 164.22 191.88 163.22 191.51 162.38 191.90 C 161.55 192.29 161.18 193.28 161.57 194.12 Z M 161.99 195.01 L 162.41 195.93 C 162.79 196.76 163.78 197.13 164.61 196.75 C 165.45 196.37 165.82 195.38 165.44 194.54 L 165.02 193.62 C 164.64 192.79 163.65 192.42 162.81 192.80 C 161.97 193.18 161.61 194.17 161.99 195.01 Z M 162.40 195.90 L 162.80 196.80 C 163.17 197.64 164.15 198.02 164.99 197.65 C 165.82 197.28 166.20 196.30 165.83 195.46 L 165.44 194.57 C 165.07 193.73 164.09 193.35 163.25 193.72 C 162.42 194.09 162.04 195.07 162.40 195.90 Z M 162.79 196.77 L 163.17 197.67 C 163.52 198.51 164.49 198.91 165.33 198.55 C 166.17 198.20 166.57 197.24 166.22 196.40 L 165.84 195.49 C 165.49 194.65 164.52 194.26 163.68 194.61 C 162.84 194.96 162.44 195.93 162.79 196.77 Z M 163.16 197.63 L 163.52 198.55 C 163.86 199.39 164.81 199.81 165.65 199.48 C 166.50 199.14 166.91 198.19 166.58 197.35 L 166.22 196.43 C 165.89 195.59 164.94 195.17 164.09 195.50 C 163.25 195.83 162.83 196.79 163.16 197.63 Z M 163.52 198.52 L 163.87 199.46 C 164.18 200.31 165.12 200.74 165.97 200.42 C 166.82 200.11 167.25 199.17 166.94 198.32 L 166.59 197.38 C 166.27 196.53 165.33 196.10 164.48 196.41 C 163.64 196.73 163.21 197.67 163.52 198.52 Z M 163.87 199.43 L 164.20 200.39 C 164.50 201.24 165.43 201.69 166.28 201.39 C 167.12 201.09 167.57 200.16 167.28 199.32 L 166.94 198.35 C 166.64 197.50 165.71 197.06 164.87 197.35 C 164.02 197.65 163.57 198.58 163.87 199.43 Z M 164.20 200.36 L 164.51 201.30 C 164.79 202.15 165.71 202.61 166.56 202.33 C 167.41 202.05 167.87 201.13 167.59 200.28 L 167.28 199.34 C 167.00 198.49 166.08 198.03 165.23 198.31 C 164.38 198.60 163.92 199.51 164.20 200.36 Z M 164.51 201.28 L 164.81 202.23 C 165.08 203.08 165.99 203.55 166.84 203.28 C 167.69 203.01 168.16 202.10 167.89 201.26 L 167.59 200.30 C 167.32 199.46 166.41 198.99 165.56 199.25 C 164.71 199.52 164.24 200.43 164.51 201.28 Z M 164.82 202.21 L 165.11 203.18 C 165.37 204.02 166.27 204.50 167.12 204.24 C 167.96 203.98 168.44 203.08 168.18 202.23 L 167.88 201.27 C 167.62 200.42 166.73 199.95 165.88 200.21 C 165.03 200.47 164.56 201.37 164.82 202.21 Z M 165.12 203.17 L 165.41 204.13 C 165.67 204.98 166.56 205.46 167.40 205.20 C 168.24 204.95 168.72 204.06 168.47 203.21 L 168.17 202.24 C 167.92 201.40 167.03 200.92 166.19 201.18 C 165.34 201.43 164.86 202.32 165.12 203.17 Z M 165.42 204.13 L 165.71 205.09 C 165.96 205.93 166.84 206.41 167.68 206.16 C 168.52 205.91 169.00 205.03 168.75 204.19 L 168.46 203.22 C 168.21 202.38 167.32 201.90 166.48 202.15 C 165.64 202.40 165.17 203.29 165.42 204.13 Z M 165.71 205.09 L 166.00 206.05 C 166.24 206.88 167.12 207.36 167.96 207.12 C 168.79 206.87 169.27 205.99 169.02 205.15 L 168.74 204.19 C 168.50 203.36 167.62 202.88 166.78 203.13 C 165.94 203.37 165.47 204.25 165.71 205.09 Z M 166.00 206.04 L 166.28 206.99 C 166.52 207.83 167.39 208.30 168.23 208.06 C 169.06 207.82 169.54 206.95 169.30 206.12 L 169.02 205.16 C 168.78 204.33 167.91 203.85 167.07 204.09 C 166.24 204.33 165.76 205.21 166.00 206.04 Z M 166.28 206.98 L 166.56 207.96 C 166.80 208.79 167.67 209.27 168.50 209.04 C 169.33 208.80 169.81 207.93 169.57 207.10 L 169.29 206.12 C 169.05 205.29 168.19 204.81 167.36 205.05 C 166.53 205.29 166.05 206.15 166.28 206.98 Z M 166.57 207.96 L 166.84 208.91 C 167.07 209.74 167.93 210.22 168.76 209.99 C 169.59 209.75 170.07 208.89 169.83 208.07 L 169.56 207.11 C 169.33 206.28 168.47 205.80 167.64 206.04 C 166.82 206.27 166.34 207.13 166.57 207.96 Z M 166.85 208.91 L 167.11 209.85 C 167.34 210.67 168.20 211.15 169.02 210.92 C 169.84 210.69 170.32 209.84 170.09 209.02 L 169.83 208.07 C 169.60 207.25 168.74 206.77 167.92 207.00 C 167.10 207.23 166.62 208.08 166.85 208.91 Z M 167.12 209.85 L 167.40 210.87 C 167.63 211.69 168.48 212.17 169.30 211.94 C 170.12 211.71 170.60 210.86 170.37 210.04 L 170.09 209.02 C 169.86 208.20 169.01 207.72 168.19 207.95 C 167.37 208.18 166.89 209.03 167.12 209.85 Z M 167.41 210.87 L 167.68 211.85 C 167.91 212.67 168.76 213.14 169.58 212.91 C 170.40 212.68 170.88 211.83 170.65 211.01 L 170.37 210.04 C 170.14 209.22 169.29 208.74 168.47 208.97 C 167.65 209.20 167.18 210.05 167.41 210.87 Z M 167.68 211.85 L 167.94 212.75 C 168.17 213.57 169.02 214.05 169.84 213.81 C 170.66 213.58 171.13 212.73 170.90 211.91 L 170.64 211.01 C 170.41 210.19 169.56 209.72 168.74 209.95 C 167.92 210.18 167.45 211.03 167.68 211.85 Z M 167.94 212.76 L 168.25 213.80 C 168.49 214.62 169.34 215.08 170.15 214.84 C 170.97 214.61 171.44 213.75 171.20 212.94 L 170.90 211.90 C 170.66 211.09 169.80 210.62 168.99 210.86 C 168.17 211.10 167.71 211.95 167.94 212.76 Z M 168.25 213.82 L 168.52 214.69 C 168.77 215.50 169.63 215.96 170.44 215.71 C 171.25 215.46 171.71 214.60 171.46 213.79 L 171.19 212.92 C 170.94 212.11 170.08 211.65 169.27 211.90 C 168.46 212.15 168.00 213.01 168.25 213.82 Z M 168.54 214.73 L 168.82 215.57 C 169.09 216.38 169.97 216.81 170.77 216.53 C 171.57 216.26 172.00 215.39 171.73 214.58 L 171.45 213.74 C 171.17 212.94 170.30 212.51 169.50 212.78 C 168.69 213.06 168.26 213.93 168.54 214.73 Z M 168.85 215.65 L 169.26 216.67 C 169.58 217.46 170.48 217.84 171.26 217.52 C 172.05 217.20 172.43 216.30 172.11 215.52 L 171.70 214.50 C 171.38 213.71 170.48 213.34 169.70 213.65 C 168.91 213.97 168.53 214.87 168.85 215.65 Z M 169.29 216.73 L 169.69 217.61 C 170.04 218.38 170.95 218.72 171.72 218.37 C 172.49 218.02 172.84 217.11 172.49 216.34 L 172.09 215.46 C 171.74 214.69 170.83 214.35 170.05 214.70 C 169.28 215.05 168.94 215.96 169.29 216.73 Z M 169.70 217.63 L 170.15 218.58 C 170.51 219.34 171.43 219.67 172.19 219.30 C 172.96 218.94 173.28 218.03 172.92 217.26 L 172.47 216.32 C 172.11 215.55 171.20 215.23 170.43 215.59 C 169.66 215.95 169.34 216.87 169.70 217.63 Z M 170.16 218.59 L 170.60 219.50 C 170.97 220.26 171.89 220.58 172.65 220.21 C 173.41 219.83 173.73 218.92 173.36 218.16 L 172.91 217.25 C 172.54 216.49 171.62 216.17 170.86 216.54 C 170.10 216.91 169.79 217.83 170.16 218.59 Z M 170.61 219.52 L 171.11 220.50 C 171.49 221.26 172.41 221.56 173.16 221.18 C 173.92 220.80 174.22 219.88 173.84 219.12 L 173.35 218.14 C 172.97 217.38 172.05 217.08 171.29 217.46 C 170.53 217.84 170.23 218.76 170.61 219.52 Z M 171.14 220.56 L 171.60 221.38 C 172.01 222.12 172.94 222.38 173.68 221.97 C 174.42 221.56 174.68 220.63 174.27 219.89 L 173.81 219.07 C 173.40 218.33 172.46 218.07 171.73 218.48 C 170.99 218.89 170.73 219.82 171.14 220.56 Z M 171.69 221.51 L 172.30 222.39 C 172.79 223.08 173.74 223.25 174.43 222.76 C 175.12 222.28 175.28 221.33 174.80 220.64 L 174.18 219.76 C 173.70 219.07 172.75 218.90 172.06 219.39 C 171.37 219.87 171.20 220.82 171.69 221.51 Z M 172.67 222.75 L 173.35 223.24 C 174.03 223.73 174.98 223.57 175.47 222.89 C 175.96 222.21 175.80 221.26 175.12 220.77 L 174.44 220.28 C 173.76 219.79 172.81 219.95 172.32 220.63 C 171.83 221.31 171.98 222.26 172.67 222.75 Z M 175.49 222.86 L 175.95 222.18 C 176.43 221.49 176.25 220.54 175.56 220.07 C 174.87 219.59 173.92 219.77 173.45 220.46 L 172.98 221.14 C 172.50 221.83 172.68 222.78 173.37 223.26 C 174.06 223.73 175.01 223.55 175.49 222.86 Z M 176.19 221.66 L 176.42 220.61 C 176.61 219.79 176.09 218.97 175.27 218.78 C 174.45 218.60 173.63 219.12 173.45 219.94 L 173.21 220.99 C 173.03 221.81 173.54 222.62 174.36 222.81 C 175.19 222.99 176.00 222.48 176.19 221.66 Z M 176.44 220.53 L 176.61 219.54 C 176.75 218.71 176.19 217.92 175.36 217.77 C 174.53 217.63 173.74 218.19 173.60 219.02 L 173.43 220.02 C 173.29 220.85 173.85 221.64 174.68 221.78 C 175.51 221.92 176.30 221.36 176.44 220.53 Z M 176.62 219.51 L 176.76 218.55 C 176.89 217.71 176.31 216.93 175.48 216.81 C 174.64 216.68 173.86 217.26 173.74 218.09 L 173.59 219.05 C 173.47 219.89 174.04 220.67 174.88 220.79 C 175.71 220.92 176.49 220.34 176.62 219.51 Z M 176.77 218.55 L 176.91 217.55 C 177.04 216.71 176.46 215.93 175.62 215.81 C 174.78 215.68 174.00 216.26 173.88 217.10 L 173.73 218.10 C 173.61 218.93 174.19 219.71 175.02 219.84 C 175.86 219.96 176.64 219.38 176.77 218.55 Z M 176.91 217.56 L 177.07 216.61 C 177.20 215.77 176.63 214.99 175.79 214.85 C 174.95 214.72 174.16 215.29 174.03 216.13 L 173.88 217.08 C 173.75 217.92 174.32 218.71 175.16 218.84 C 176.00 218.97 176.78 218.40 176.91 217.56 Z M 177.06 216.63 L 177.22 215.73 C 177.36 214.89 176.80 214.10 175.96 213.95 C 175.13 213.81 174.33 214.37 174.19 215.21 L 174.03 216.11 C 173.89 216.95 174.45 217.74 175.29 217.89 C 176.12 218.03 176.92 217.47 177.06 216.63 Z M 177.22 215.75 L 177.41 214.71 C 177.57 213.87 177.02 213.07 176.18 212.91 C 175.34 212.75 174.54 213.30 174.38 214.14 L 174.19 215.19 C 174.03 216.02 174.58 216.83 175.42 216.99 C 176.26 217.14 177.06 216.59 177.22 215.75 Z M 177.41 214.73 L 177.63 213.67 C 177.79 212.83 177.25 212.02 176.41 211.85 C 175.58 211.68 174.76 212.22 174.60 213.06 L 174.38 214.12 C 174.22 214.96 174.76 215.77 175.60 215.94 C 176.43 216.11 177.25 215.57 177.41 214.73 Z M 177.63 213.68 L 177.84 212.67 C 178.01 211.83 177.47 211.01 176.63 210.84 C 175.80 210.66 174.98 211.20 174.81 212.04 L 174.60 213.05 C 174.42 213.89 174.96 214.71 175.80 214.88 C 176.63 215.05 177.45 214.51 177.63 213.68 Z M 177.84 212.67 L 178.05 211.65 C 178.23 210.81 177.69 209.99 176.86 209.81 C 176.02 209.63 175.20 210.17 175.02 211.01 L 174.80 212.03 C 174.63 212.87 175.16 213.69 176.00 213.87 C 176.84 214.04 177.66 213.51 177.84 212.67 Z M 178.05 211.65 L 178.26 210.69 C 178.43 209.85 177.90 209.03 177.06 208.85 C 176.22 208.67 175.40 209.21 175.22 210.04 L 175.02 211.01 C 174.84 211.84 175.38 212.67 176.22 212.84 C 177.05 213.02 177.88 212.49 178.05 211.65 Z M 178.26 210.68 L 178.48 209.63 C 178.66 208.79 178.12 207.97 177.28 207.79 C 176.44 207.61 175.62 208.15 175.44 208.99 L 175.22 210.05 C 175.04 210.89 175.58 211.71 176.42 211.89 C 177.26 212.06 178.08 211.52 178.26 210.68 Z M 178.48 209.62 L 178.68 208.65 C 178.86 207.81 178.32 206.99 177.48 206.81 C 176.64 206.64 175.81 207.18 175.64 208.02 L 175.44 208.99 C 175.27 209.84 175.81 210.66 176.65 210.83 C 177.49 211.01 178.31 210.46 178.48 209.62 Z M 178.69 208.65 L 178.86 207.80 C 179.04 206.96 178.50 206.13 177.66 205.96 C 176.82 205.78 175.99 206.32 175.82 207.16 L 175.64 208.02 C 175.46 208.86 176.00 209.68 176.84 209.86 C 177.69 210.03 178.51 209.50 178.69 208.65 Z M 178.86 207.81 L 179.07 206.85 C 179.26 206.01 178.72 205.18 177.88 205.00 C 177.04 204.81 176.21 205.35 176.03 206.19 L 175.82 207.15 C 175.64 207.99 176.17 208.82 177.01 209.00 C 177.85 209.18 178.68 208.65 178.86 207.81 Z M 179.07 206.86 L 179.30 205.87 C 179.49 205.03 178.96 204.20 178.12 204.01 C 177.28 203.82 176.45 204.34 176.26 205.18 L 176.03 206.17 C 175.84 207.01 176.37 207.85 177.21 208.04 C 178.04 208.23 178.88 207.70 179.07 206.86 Z M 179.29 205.89 L 179.53 204.91 C 179.73 204.07 179.21 203.23 178.37 203.03 C 177.54 202.83 176.69 203.35 176.49 204.19 L 176.26 205.16 C 176.06 206.00 176.58 206.84 177.41 207.04 C 178.25 207.24 179.09 206.73 179.29 205.89 Z M 179.53 204.92 L 179.76 203.95 C 179.97 203.12 179.46 202.27 178.62 202.07 C 177.78 201.86 176.94 202.37 176.73 203.21 L 176.49 204.18 C 176.29 205.01 176.80 205.86 177.64 206.06 C 178.48 206.27 179.32 205.76 179.53 204.92 Z M 179.77 203.95 L 180.00 202.98 C 180.20 202.14 179.68 201.30 178.84 201.10 C 178.00 200.90 177.16 201.41 176.96 202.25 L 176.73 203.22 C 176.53 204.06 177.04 204.90 177.88 205.10 C 178.72 205.30 179.57 204.79 179.77 203.95 Z M 180.01 202.97 L 180.23 202.00 C 180.43 201.16 179.90 200.32 179.06 200.12 C 178.22 199.92 177.37 200.45 177.18 201.29 L 176.95 202.26 C 176.75 203.11 177.28 203.95 178.12 204.15 C 178.97 204.34 179.81 203.82 180.01 202.97 Z M 180.24 202.01 L 180.47 201.02 C 180.67 200.18 180.15 199.33 179.30 199.13 C 178.45 198.93 177.60 199.45 177.40 200.30 L 177.17 201.28 C 176.97 202.13 177.49 202.98 178.34 203.18 C 179.19 203.38 180.04 202.86 180.24 202.01 Z M 180.48 201.04 L 180.72 200.08 C 180.93 199.23 180.41 198.37 179.56 198.16 C 178.71 197.95 177.85 198.46 177.64 199.31 L 177.40 200.28 C 177.19 201.13 177.70 201.99 178.55 202.20 C 179.40 202.41 180.27 201.89 180.48 201.04 Z M 180.72 200.10 L 180.98 199.13 C 181.20 198.28 180.69 197.41 179.83 197.18 C 178.98 196.96 178.11 197.47 177.88 198.32 L 177.63 199.29 C 177.41 200.15 177.92 201.02 178.77 201.24 C 179.63 201.47 180.50 200.96 180.72 200.10 Z M 180.98 199.15 L 181.24 198.18 C 181.48 197.33 180.97 196.44 180.11 196.21 C 179.26 195.98 178.37 196.48 178.14 197.34 L 177.88 198.31 C 177.65 199.16 178.15 200.05 179.01 200.28 C 179.87 200.51 180.75 200.01 180.98 199.15 Z M 181.25 198.20 L 181.52 197.23 C 181.76 196.37 181.26 195.48 180.39 195.24 C 179.53 195.00 178.64 195.50 178.40 196.37 L 178.13 197.33 C 177.89 198.19 178.40 199.08 179.26 199.32 C 180.12 199.56 181.01 199.06 181.25 198.20 Z M 181.53 197.24 L 181.80 196.27 C 182.05 195.41 181.54 194.51 180.68 194.26 C 179.81 194.02 178.91 194.52 178.66 195.39 L 178.39 196.36 C 178.15 197.23 178.65 198.13 179.52 198.37 C 180.39 198.61 181.29 198.11 181.53 197.24 Z M 181.81 196.28 L 182.08 195.34 C 182.32 194.47 181.81 193.56 180.94 193.31 C 180.07 193.07 179.16 193.58 178.92 194.45 L 178.65 195.39 C 178.41 196.26 178.91 197.17 179.79 197.41 C 180.66 197.66 181.57 197.15 181.81 196.28 Z M 182.09 195.34 L 182.36 194.38 C 182.61 193.50 182.10 192.59 181.22 192.34 C 180.34 192.09 179.43 192.61 179.18 193.48 L 178.91 194.45 C 178.66 195.32 179.17 196.24 180.05 196.49 C 180.93 196.73 181.84 196.22 182.09 195.34 Z M 182.37 194.39 L 182.65 193.41 C 182.90 192.53 182.38 191.61 181.50 191.36 C 180.62 191.10 179.70 191.62 179.45 192.50 L 179.17 193.48 C 178.92 194.36 179.43 195.28 180.31 195.53 C 181.20 195.78 182.12 195.27 182.37 194.39 Z M 182.65 193.42 L 182.93 192.46 C 183.19 191.57 182.68 190.65 181.79 190.39 C 180.90 190.13 179.97 190.64 179.72 191.53 L 179.44 192.49 C 179.18 193.38 179.69 194.31 180.58 194.56 C 181.47 194.82 182.40 194.31 182.65 193.42 Z M 182.94 192.48 L 183.23 191.51 C 183.49 190.62 182.99 189.68 182.10 189.42 C 181.21 189.15 180.27 189.65 180.00 190.54 L 179.71 191.51 C 179.44 192.40 179.95 193.34 180.84 193.61 C 181.73 193.88 182.67 193.37 182.94 192.48 Z M 183.23 191.54 L 183.53 190.58 C 183.81 189.69 183.32 188.74 182.43 188.46 C 181.54 188.17 180.58 188.67 180.30 189.56 L 180.00 190.52 C 179.72 191.41 180.21 192.36 181.10 192.64 C 181.99 192.93 182.95 192.43 183.23 191.54 Z M 183.53 190.61 L 183.85 189.67 C 184.14 188.78 183.66 187.81 182.77 187.51 C 181.88 187.22 180.91 187.70 180.61 188.59 L 180.30 189.53 C 180.00 190.43 180.49 191.39 181.38 191.69 C 182.27 191.99 183.24 191.50 183.53 190.61 Z M 183.85 189.68 L 184.17 188.73 C 184.47 187.84 183.99 186.86 183.10 186.56 C 182.20 186.26 181.23 186.74 180.93 187.64 L 180.61 188.58 C 180.30 189.48 180.79 190.45 181.68 190.75 C 182.58 191.06 183.55 190.57 183.85 189.68 Z M 184.18 188.72 L 184.49 187.80 C 184.79 186.89 184.30 185.92 183.39 185.62 C 182.49 185.32 181.52 185.82 181.22 186.72 L 180.91 187.65 C 180.62 188.55 181.11 189.52 182.01 189.82 C 182.91 190.12 183.89 189.63 184.18 188.72 Z M 184.50 187.78 L 184.80 186.85 C 185.09 185.94 184.58 184.97 183.67 184.68 C 182.76 184.39 181.79 184.90 181.50 185.81 L 181.21 186.73 C 180.92 187.64 181.42 188.62 182.33 188.91 C 183.24 189.20 184.21 188.69 184.50 187.78 Z M 184.81 186.84 L 185.11 185.87 C 185.39 184.95 184.88 183.98 183.97 183.70 C 183.05 183.41 182.08 183.93 181.79 184.84 L 181.49 185.82 C 181.21 186.73 181.72 187.70 182.63 187.99 C 183.55 188.27 184.52 187.76 184.81 186.84 Z M 185.12 185.87 L 185.42 184.89 C 185.70 183.97 185.18 183.00 184.26 182.72 C 183.34 182.43 182.36 182.95 182.08 183.87 L 181.78 184.85 C 181.50 185.77 182.02 186.74 182.94 187.02 C 183.86 187.31 184.84 186.79 185.12 185.87 Z M 185.43 184.89 L 185.71 183.97 C 185.99 183.04 185.46 182.07 184.54 181.78 C 183.61 181.50 182.63 182.03 182.35 182.95 L 182.07 183.88 C 181.79 184.80 182.31 185.78 183.24 186.06 C 184.17 186.34 185.15 185.82 185.43 184.89 Z M 185.72 183.97 L 186.00 183.01 C 186.28 182.08 185.75 181.10 184.82 180.82 C 183.89 180.54 182.91 181.06 182.63 182.00 L 182.34 182.96 C 182.06 183.89 182.59 184.87 183.52 185.15 C 184.45 185.43 185.44 184.90 185.72 183.97 Z M 186.01 183.01 L 186.31 182.01 C 186.59 181.07 186.05 180.09 185.12 179.81 C 184.18 179.53 183.19 180.07 182.91 181.00 L 182.62 182.00 C 182.34 182.94 182.87 183.92 183.81 184.20 C 184.75 184.48 185.73 183.95 186.01 183.01 Z M 186.32 182.01 L 186.60 181.06 C 186.87 180.12 186.33 179.13 185.39 178.85 C 184.45 178.57 183.46 179.11 183.18 180.06 L 182.90 181.01 C 182.63 181.95 183.17 182.94 184.11 183.22 C 185.05 183.49 186.04 182.95 186.32 182.01 Z M 186.60 181.06 L 186.88 180.12 C 187.15 179.17 186.61 178.18 185.66 177.90 C 184.72 177.63 183.72 178.17 183.45 179.12 L 183.18 180.06 C 182.90 181.01 183.44 182.00 184.39 182.27 C 185.34 182.55 186.33 182.00 186.60 181.06 Z M 186.89 180.12 L 187.16 179.15 C 187.44 178.20 186.89 177.21 185.94 176.93 C 184.99 176.66 183.99 177.21 183.72 178.16 L 183.44 179.12 C 183.17 180.07 183.71 181.07 184.67 181.34 C 185.62 181.62 186.61 181.07 186.89 180.12 Z M 187.17 179.15 L 187.45 178.16 C 187.73 177.21 187.18 176.21 186.22 175.94 C 185.27 175.67 184.27 176.22 184.00 177.17 L 183.71 178.16 C 183.44 179.11 183.99 180.11 184.95 180.38 C 185.90 180.66 186.90 180.11 187.17 179.15 Z M 187.46 178.16 L 187.73 177.20 C 188.01 176.25 187.45 175.25 186.50 174.97 C 185.54 174.70 184.54 175.25 184.26 176.21 L 183.99 177.17 C 183.72 178.13 184.27 179.13 185.23 179.40 C 186.19 179.68 187.19 179.12 187.46 178.16 Z M 187.74 177.20 L 188.01 176.27 C 188.28 175.31 187.72 174.31 186.76 174.03 C 185.80 173.76 184.80 174.32 184.52 175.28 L 184.26 176.21 C 183.99 177.17 184.54 178.17 185.50 178.45 C 186.47 178.72 187.47 178.16 187.74 177.20 Z M 188.01 176.27 L 188.28 175.31 C 188.55 174.35 187.99 173.35 187.03 173.07 C 186.07 172.80 185.06 173.36 184.79 174.32 L 184.52 175.28 C 184.25 176.24 184.81 177.25 185.77 177.52 C 186.73 177.79 187.74 177.23 188.01 176.27 Z M 188.29 175.31 L 188.56 174.34 C 188.83 173.37 188.27 172.37 187.31 172.09 C 186.34 171.82 185.34 172.38 185.06 173.35 L 184.79 174.33 C 184.51 175.29 185.08 176.30 186.04 176.57 C 187.01 176.84 188.01 176.28 188.29 175.31 Z M 188.57 174.34 L 188.85 173.33 C 189.12 172.37 188.56 171.36 187.59 171.09 C 186.62 170.81 185.61 171.38 185.34 172.35 L 185.06 173.35 C 184.79 174.32 185.35 175.32 186.32 175.60 C 187.29 175.87 188.29 175.30 188.57 174.34 Z M 188.85 173.33 L 189.12 172.37 C 189.40 171.40 188.83 170.39 187.86 170.12 C 186.89 169.85 185.88 170.41 185.61 171.38 L 185.34 172.35 C 185.06 173.32 185.63 174.33 186.60 174.60 C 187.57 174.87 188.58 174.31 188.85 173.33 Z M 189.13 172.37 L 189.40 171.40 C 189.67 170.43 189.10 169.42 188.13 169.14 C 187.16 168.87 186.15 169.44 185.88 170.41 L 185.60 171.38 C 185.33 172.35 185.90 173.36 186.87 173.64 C 187.84 173.91 188.85 173.34 189.13 172.37 Z M 189.40 171.40 L 189.67 170.43 C 189.95 169.45 189.38 168.44 188.41 168.17 C 187.43 167.89 186.42 168.46 186.15 169.43 L 185.87 170.41 C 185.60 171.38 186.17 172.39 187.14 172.67 C 188.11 172.94 189.13 172.37 189.40 171.40 Z M 189.68 170.43 L 189.95 169.47 C 190.22 168.49 189.66 167.48 188.68 167.20 C 187.71 166.93 186.70 167.49 186.42 168.47 L 186.15 169.43 C 185.87 170.41 186.44 171.42 187.41 171.70 C 188.39 171.97 189.40 171.41 189.68 170.43 Z M 189.95 169.47 L 190.22 168.53 C 190.50 167.55 189.94 166.54 188.96 166.26 C 187.98 165.98 186.97 166.54 186.69 167.52 L 186.42 168.46 C 186.14 169.44 186.70 170.45 187.68 170.73 C 188.65 171.01 189.67 170.45 189.95 169.47 Z M 190.22 168.54 L 190.51 167.56 C 190.79 166.58 190.23 165.56 189.25 165.28 C 188.28 164.99 187.26 165.56 186.97 166.53 L 186.69 167.51 C 186.41 168.49 186.97 169.51 187.94 169.79 C 188.92 170.07 189.94 169.51 190.22 168.54 Z M 190.51 167.56 L 190.79 166.60 C 191.07 165.63 190.51 164.60 189.53 164.32 C 188.56 164.03 187.54 164.59 187.25 165.57 L 186.97 166.53 C 186.69 167.50 187.25 168.53 188.22 168.81 C 189.20 169.10 190.22 168.54 190.51 167.56 Z M 190.79 166.60 L 191.06 165.65 C 191.35 164.67 190.79 163.65 189.81 163.37 C 188.83 163.08 187.81 163.65 187.52 164.62 L 187.25 165.57 C 186.96 166.55 187.53 167.57 188.50 167.86 C 189.48 168.14 190.50 167.58 190.79 166.60 Z M 191.07 165.65 L 191.34 164.69 C 191.62 163.71 191.05 162.69 190.07 162.41 C 189.09 162.13 188.07 162.70 187.79 163.68 L 187.52 164.63 C 187.24 165.61 187.81 166.63 188.79 166.91 C 189.77 167.19 190.79 166.63 191.07 165.65 Z M 191.35 164.68 L 191.61 163.74 C 191.88 162.76 191.31 161.74 190.33 161.47 C 189.34 161.19 188.32 161.77 188.05 162.75 L 187.79 163.69 C 187.51 164.67 188.09 165.69 189.07 165.96 C 190.05 166.24 191.07 165.66 191.35 164.68 Z M 191.61 163.73 L 191.87 162.80 C 192.13 161.81 191.55 160.80 190.57 160.53 C 189.58 160.26 188.56 160.84 188.30 161.83 L 188.04 162.76 C 187.78 163.75 188.36 164.76 189.34 165.03 C 190.33 165.30 191.35 164.71 191.61 163.73 Z M 191.87 162.79 L 192.12 161.83 C 192.38 160.84 191.79 159.83 190.81 159.57 C 189.82 159.31 188.80 159.90 188.54 160.89 L 188.29 161.84 C 188.03 162.83 188.62 163.84 189.61 164.10 C 190.60 164.37 191.61 163.78 191.87 162.79 Z M 192.13 161.82 L 192.38 160.84 C 192.63 159.85 192.04 158.84 191.05 158.58 C 190.05 158.33 189.05 158.93 188.79 159.92 L 188.54 160.90 C 188.28 161.89 188.88 162.90 189.87 163.15 C 190.86 163.41 191.87 162.81 192.13 161.82 Z M 192.38 160.83 L 192.64 159.82 C 192.88 158.83 192.28 157.82 191.29 157.57 C 190.29 157.32 189.29 157.93 189.04 158.92 L 188.79 159.93 C 188.54 160.92 189.14 161.93 190.14 162.18 C 191.13 162.43 192.14 161.82 192.38 160.83 Z M 192.64 159.81 L 192.88 158.84 C 193.12 157.85 192.51 156.84 191.51 156.60 C 190.51 156.36 189.51 156.97 189.27 157.97 L 189.03 158.93 C 188.79 159.93 189.40 160.93 190.40 161.18 C 191.39 161.42 192.40 160.81 192.64 159.81 Z M 192.88 158.83 L 193.10 157.89 C 193.34 156.89 192.72 155.89 191.72 155.65 C 190.73 155.42 189.73 156.04 189.49 157.03 L 189.27 157.98 C 189.03 158.97 189.65 159.97 190.64 160.21 C 191.64 160.45 192.64 159.83 192.88 158.83 Z M 193.11 157.88 L 193.33 156.92 C 193.56 155.92 192.94 154.92 191.94 154.69 C 190.94 154.46 189.94 155.08 189.71 156.08 L 189.49 157.04 C 189.25 158.04 189.88 159.04 190.88 159.27 C 191.88 159.50 192.87 158.88 193.11 157.88 Z M 193.33 156.91 L 193.55 155.92 C 193.78 154.92 193.15 153.93 192.15 153.70 C 191.15 153.48 190.15 154.11 189.93 155.11 L 189.71 156.09 C 189.48 157.09 190.11 158.08 191.11 158.31 C 192.11 158.54 193.10 157.91 193.33 156.91 Z M 193.55 155.91 L 193.78 154.91 C 194.00 153.91 193.36 152.92 192.36 152.70 C 191.36 152.48 190.37 153.11 190.15 154.11 L 189.93 155.12 C 189.70 156.12 190.34 157.11 191.34 157.33 C 192.34 157.55 193.33 156.92 193.55 155.91 Z M 193.78 154.90 L 193.99 153.89 C 194.21 152.89 193.57 151.90 192.57 151.68 C 191.56 151.47 190.57 152.11 190.36 153.11 L 190.14 154.12 C 189.93 155.13 190.57 156.12 191.57 156.33 C 192.57 156.55 193.56 155.91 193.78 154.90 Z M 194.00 153.88 L 194.20 152.91 C 194.41 151.91 193.76 150.92 192.76 150.71 C 191.75 150.50 190.77 151.15 190.56 152.15 L 190.36 153.12 C 190.15 154.13 190.79 155.11 191.80 155.32 C 192.80 155.53 193.79 154.89 194.00 153.88 Z M 194.20 152.91 L 194.40 151.93 C 194.61 150.93 193.96 149.94 192.95 149.74 C 191.95 149.53 190.96 150.18 190.76 151.18 L 190.56 152.16 C 190.35 153.17 191.00 154.15 192.00 154.36 C 193.01 154.56 193.99 153.92 194.20 152.91 Z M 194.40 151.93 L 194.60 150.95 C 194.81 149.94 194.16 148.96 193.15 148.75 C 192.14 148.55 191.16 149.20 190.96 150.20 L 190.76 151.19 C 190.55 152.19 191.20 153.18 192.21 153.38 C 193.22 153.59 194.20 152.94 194.40 151.93 Z M 194.60 150.94 L 194.80 149.96 C 195.01 148.95 194.36 147.97 193.35 147.76 C 192.34 147.56 191.36 148.21 191.16 149.22 L 190.96 150.20 C 190.75 151.21 191.40 152.19 192.41 152.40 C 193.42 152.60 194.40 151.95 194.60 150.94 Z M 194.80 149.96 L 195.00 148.98 C 195.21 147.97 194.56 146.98 193.55 146.78 C 192.54 146.57 191.56 147.22 191.36 148.23 L 191.16 149.22 C 190.95 150.22 191.60 151.21 192.61 151.41 C 193.61 151.62 194.60 150.97 194.80 149.96 Z M 195.00 148.98 L 195.21 148.00 C 195.41 146.99 194.77 146.01 193.76 145.80 C 192.75 145.59 191.77 146.24 191.56 147.25 L 191.36 148.23 C 191.15 149.23 191.80 150.22 192.80 150.43 C 193.81 150.63 194.80 149.99 195.00 148.98 Z M 195.20 148.01 L 195.41 147.03 C 195.62 146.03 194.98 145.04 193.97 144.83 C 192.96 144.62 191.98 145.26 191.77 146.27 L 191.56 147.24 C 191.35 148.25 191.99 149.23 193.00 149.44 C 194.01 149.66 194.99 149.01 195.20 148.01 Z M 195.41 147.04 L 195.61 146.07 C 195.83 145.06 195.19 144.08 194.18 143.86 C 193.18 143.65 192.19 144.29 191.97 145.29 L 191.77 146.26 C 191.55 147.27 192.20 148.26 193.20 148.47 C 194.20 148.68 195.19 148.04 195.41 147.04 Z M 195.61 146.07 L 195.82 145.10 C 196.03 144.10 195.40 143.11 194.39 142.89 C 193.39 142.68 192.40 143.32 192.19 144.32 L 191.98 145.29 C 191.76 146.29 192.40 147.28 193.40 147.50 C 194.41 147.71 195.39 147.07 195.61 146.07 Z M 195.82 145.10 L 196.03 144.12 C 196.24 143.12 195.61 142.13 194.61 141.92 C 193.60 141.70 192.61 142.34 192.40 143.34 L 192.19 144.32 C 191.97 145.32 192.61 146.31 193.61 146.52 C 194.61 146.74 195.60 146.10 195.82 145.10 Z M 196.03 144.12 L 196.24 143.14 C 196.46 142.14 195.82 141.15 194.82 140.93 C 193.82 140.72 192.83 141.35 192.61 142.35 L 192.40 143.34 C 192.18 144.34 192.82 145.33 193.82 145.55 C 194.82 145.76 195.81 145.13 196.03 144.12 Z M 196.24 143.14 L 196.45 142.15 C 196.67 141.15 196.03 140.16 195.03 139.95 C 194.03 139.73 193.04 140.37 192.83 141.37 L 192.61 142.35 C 192.40 143.35 193.03 144.34 194.04 144.56 C 195.04 144.77 196.02 144.14 196.24 143.14 Z M 196.45 142.15 L 196.66 141.17 C 196.88 140.17 196.24 139.19 195.24 138.97 C 194.24 138.76 193.25 139.39 193.04 140.39 L 192.83 141.37 C 192.61 142.37 193.25 143.36 194.25 143.57 C 195.25 143.79 196.24 143.15 196.45 142.15 Z M 196.66 141.17 L 196.87 140.19 C 197.09 139.19 196.45 138.20 195.45 137.99 C 194.45 137.77 193.46 138.41 193.25 139.41 L 193.04 140.39 C 192.82 141.40 193.46 142.38 194.46 142.59 C 195.46 142.81 196.45 142.17 196.66 141.17 Z M 196.87 140.19 L 197.08 139.20 C 197.30 138.20 196.66 137.22 195.66 137.00 C 194.66 136.79 193.67 137.43 193.46 138.43 L 193.25 139.41 C 193.04 140.41 193.67 141.40 194.67 141.61 C 195.67 141.82 196.66 141.19 196.87 140.19 Z M 197.08 139.20 L 197.29 138.22 C 197.51 137.22 196.87 136.23 195.87 136.02 C 194.87 135.81 193.88 136.44 193.67 137.44 L 193.46 138.43 C 193.25 139.43 193.89 140.41 194.89 140.62 C 195.89 140.84 196.87 140.20 197.08 139.20 Z M 197.29 138.21 L 197.50 137.24 C 197.71 136.24 197.07 135.26 196.07 135.04 C 195.07 134.83 194.09 135.47 193.88 136.47 L 193.67 137.45 C 193.46 138.45 194.10 139.43 195.10 139.64 C 196.10 139.85 197.08 139.22 197.29 138.21 Z M 197.50 137.24 L 197.70 136.27 C 197.92 135.27 197.28 134.28 196.28 134.07 C 195.28 133.86 194.29 134.50 194.08 135.50 L 193.88 136.47 C 193.67 137.47 194.31 138.45 195.31 138.67 C 196.31 138.88 197.29 138.24 197.50 137.24 Z M 197.70 136.26 L 197.91 135.28 C 198.12 134.28 197.48 133.30 196.48 133.09 C 195.48 132.88 194.50 133.52 194.29 134.52 L 194.08 135.50 C 193.87 136.50 194.51 137.48 195.51 137.69 C 196.51 137.90 197.49 137.26 197.70 136.26 Z M 197.91 135.28 L 198.11 134.30 C 198.32 133.31 197.68 132.33 196.68 132.12 C 195.68 131.91 194.70 132.55 194.49 133.55 L 194.29 134.52 C 194.08 135.52 194.72 136.50 195.72 136.71 C 196.72 136.92 197.70 136.28 197.91 135.28 Z M 198.11 134.30 L 198.31 133.33 C 198.52 132.33 197.88 131.35 196.88 131.15 C 195.88 130.94 194.90 131.58 194.70 132.58 L 194.50 133.55 C 194.29 134.55 194.93 135.53 195.93 135.74 C 196.93 135.94 197.91 135.30 198.11 134.30 Z M 198.31 133.33 L 198.51 132.35 C 198.71 131.35 198.07 130.38 197.07 130.18 C 196.07 129.97 195.10 130.62 194.89 131.62 L 194.70 132.59 C 194.49 133.59 195.14 134.56 196.14 134.77 C 197.13 134.97 198.11 134.32 198.31 133.33 Z M 198.51 132.35 L 198.71 131.36 C 198.91 130.36 198.26 129.39 197.26 129.19 C 196.26 128.99 195.29 129.64 195.09 130.64 L 194.89 131.62 C 194.69 132.62 195.34 133.59 196.34 133.79 C 197.34 133.99 198.31 133.34 198.51 132.35 Z M 198.71 131.36 L 198.90 130.37 C 199.10 129.38 198.45 128.41 197.45 128.21 C 196.45 128.02 195.48 128.67 195.28 129.66 L 195.09 130.64 C 194.90 131.64 195.55 132.61 196.54 132.81 C 197.54 133.00 198.51 132.35 198.71 131.36 Z M 198.90 130.37 L 199.09 129.40 C 199.28 128.40 198.63 127.44 197.63 127.25 C 196.63 127.05 195.66 127.71 195.47 128.71 L 195.28 129.67 C 195.09 130.67 195.75 131.63 196.74 131.83 C 197.74 132.02 198.71 131.37 198.90 130.37 Z M 199.08 129.40 L 199.27 128.42 C 199.46 127.42 198.81 126.46 197.81 126.27 C 196.81 126.08 195.85 126.73 195.66 127.73 L 195.47 128.71 C 195.28 129.71 195.94 130.67 196.93 130.86 C 197.93 131.05 198.89 130.40 199.08 129.40 Z M 199.27 128.42 L 199.46 127.43 C 199.64 126.43 198.99 125.47 197.99 125.28 C 196.99 125.10 196.03 125.75 195.85 126.75 L 195.66 127.74 C 195.47 128.73 196.13 129.69 197.12 129.88 C 198.12 130.07 199.08 129.41 199.27 128.42 Z M 199.45 127.43 L 199.64 126.43 C 199.83 125.44 199.17 124.48 198.18 124.29 C 197.18 124.11 196.22 124.76 196.03 125.76 L 195.85 126.75 C 195.66 127.75 196.32 128.70 197.31 128.89 C 198.31 129.08 199.27 128.42 199.45 127.43 Z M 199.64 126.43 L 199.82 125.44 C 200.01 124.45 199.36 123.49 198.36 123.30 C 197.37 123.12 196.41 123.77 196.22 124.77 L 196.04 125.76 C 195.85 126.75 196.51 127.71 197.50 127.90 C 198.49 128.08 199.45 127.43 199.64 126.43 Z M 199.82 125.44 L 200.01 124.45 C 200.20 123.45 199.54 122.50 198.55 122.31 C 197.56 122.12 196.60 122.78 196.41 123.77 L 196.23 124.76 C 196.04 125.76 196.69 126.71 197.69 126.90 C 198.68 127.09 199.63 126.43 199.82 125.44 Z M 200.01 124.45 L 200.20 123.44 C 200.38 122.45 199.73 121.49 198.74 121.31 C 197.75 121.12 196.79 121.77 196.61 122.76 L 196.42 123.77 C 196.23 124.76 196.88 125.72 197.87 125.90 C 198.86 126.09 199.82 125.44 200.01 124.45 Z M 200.19 123.44 L 200.38 122.44 C 200.57 121.45 199.93 120.50 198.94 120.31 C 197.95 120.12 196.99 120.77 196.80 121.76 L 196.61 122.76 C 196.42 123.75 197.07 124.70 198.06 124.89 C 199.05 125.08 200.00 124.43 200.19 123.44 Z M 200.38 122.45 L 200.57 121.46 C 200.76 120.47 200.12 119.52 199.13 119.33 C 198.15 119.13 197.19 119.78 197.00 120.76 L 196.81 121.75 C 196.61 122.74 197.26 123.70 198.25 123.89 C 199.23 124.08 200.19 123.43 200.38 122.45 Z M 200.57 121.47 L 200.76 120.49 C 200.96 119.51 200.32 118.55 199.33 118.35 C 198.35 118.16 197.39 118.80 197.20 119.78 L 197.00 120.76 C 196.81 121.74 197.45 122.70 198.43 122.89 C 199.42 123.09 200.37 122.45 200.57 121.47 Z M 200.76 120.50 L 200.95 119.54 C 201.15 118.56 200.52 117.60 199.53 117.40 C 198.55 117.20 197.60 117.83 197.40 118.82 L 197.20 119.78 C 197.00 120.76 197.64 121.72 198.62 121.91 C 199.60 122.11 200.56 121.48 200.76 120.50 Z M 200.95 119.55 L 201.15 118.59 C 201.35 117.61 200.72 116.65 199.74 116.45 C 198.76 116.25 197.80 116.87 197.60 117.85 L 197.40 118.81 C 197.20 119.79 197.83 120.75 198.80 120.95 C 199.78 121.15 200.74 120.52 200.95 119.55 Z M 201.14 118.60 L 201.36 117.59 C 201.57 116.62 200.94 115.66 199.97 115.45 C 198.99 115.24 198.03 115.86 197.82 116.84 L 197.61 117.84 C 197.40 118.82 198.02 119.78 198.99 119.99 C 199.97 120.20 200.93 119.58 201.14 118.60 Z M 201.35 117.60 L 201.57 116.61 C 201.78 115.64 201.17 114.68 200.20 114.46 C 199.22 114.25 198.26 114.86 198.05 115.84 L 197.83 116.83 C 197.61 117.80 198.23 118.76 199.20 118.98 C 200.17 119.19 201.14 118.58 201.35 117.60 Z M 201.56 116.62 L 201.78 115.65 C 202.00 114.68 201.39 113.71 200.42 113.50 C 199.45 113.28 198.49 113.89 198.27 114.86 L 198.05 115.83 C 197.83 116.80 198.44 117.76 199.41 117.98 C 200.38 118.20 201.34 117.59 201.56 116.62 Z M 201.78 115.65 L 202.00 114.69 C 202.22 113.73 201.62 112.76 200.65 112.54 C 199.68 112.32 198.72 112.92 198.50 113.89 L 198.28 114.85 C 198.05 115.82 198.66 116.78 199.62 117.00 C 200.59 117.22 201.56 116.62 201.78 115.65 Z M 201.99 114.70 L 202.22 113.74 C 202.44 112.78 201.84 111.82 200.88 111.59 C 199.91 111.37 198.95 111.97 198.72 112.93 L 198.50 113.88 C 198.28 114.85 198.88 115.81 199.84 116.04 C 200.81 116.26 201.77 115.66 201.99 114.70 Z M 202.21 113.75 L 202.43 112.79 C 202.66 111.83 202.06 110.87 201.10 110.64 C 200.14 110.42 199.18 111.01 198.95 111.97 L 198.73 112.93 C 198.50 113.89 199.10 114.85 200.06 115.08 C 201.02 115.31 201.99 114.71 202.21 113.75 Z M 202.43 112.79 L 202.66 111.83 C 202.88 110.87 202.29 109.91 201.33 109.69 C 200.37 109.46 199.41 110.06 199.18 111.01 L 198.96 111.97 C 198.73 112.93 199.33 113.89 200.28 114.12 C 201.24 114.35 202.20 113.75 202.43 112.79 Z M 202.65 111.83 L 202.88 110.87 C 203.10 109.91 202.51 108.95 201.55 108.73 C 200.60 108.50 199.64 109.10 199.41 110.05 L 199.19 111.02 C 198.96 111.97 199.55 112.93 200.51 113.16 C 201.47 113.38 202.43 112.79 202.65 111.83 Z M 202.87 110.87 L 203.10 109.90 C 203.33 108.94 202.73 107.98 201.78 107.76 C 200.82 107.54 199.87 108.13 199.64 109.08 L 199.42 110.05 C 199.19 111.01 199.78 111.97 200.74 112.19 C 201.69 112.41 202.65 111.82 202.87 110.87 Z M 203.10 109.89 L 203.33 108.91 C 203.55 107.95 202.96 107.00 202.01 106.78 C 201.05 106.56 200.10 107.15 199.88 108.10 L 199.65 109.09 C 199.42 110.04 200.02 110.99 200.97 111.21 C 201.92 111.44 202.88 110.85 203.10 109.89 Z M 203.33 108.90 L 203.56 107.91 C 203.78 106.95 203.18 106.00 202.23 105.78 C 201.28 105.56 200.33 106.16 200.11 107.11 L 199.88 108.11 C 199.66 109.06 200.25 110.01 201.20 110.23 C 202.16 110.45 203.11 109.86 203.33 108.90 Z M 203.55 107.90 L 203.78 106.91 C 204.00 105.96 203.41 105.01 202.46 104.80 C 201.51 104.58 200.56 105.17 200.34 106.12 L 200.12 107.11 C 199.90 108.06 200.49 109.01 201.44 109.22 C 202.39 109.44 203.33 108.85 203.55 107.90 Z M 203.78 106.91 L 204.00 105.91 C 204.22 104.96 203.63 104.02 202.68 103.80 C 201.73 103.59 200.79 104.18 200.58 105.12 L 200.35 106.12 C 200.13 107.07 200.72 108.01 201.67 108.23 C 202.62 108.44 203.56 107.85 203.78 106.91 Z M 204.00 105.90 L 204.22 104.91 C 204.44 103.97 203.85 103.03 202.90 102.81 C 201.96 102.60 201.02 103.19 200.81 104.13 L 200.58 105.13 C 200.37 106.07 200.96 107.01 201.90 107.23 C 202.85 107.44 203.78 106.85 204.00 105.90 Z M 204.22 104.91 L 204.44 103.93 C 204.65 102.99 204.06 102.06 203.12 101.84 C 202.18 101.63 201.25 102.22 201.03 103.16 L 200.81 104.14 C 200.60 105.08 201.19 106.01 202.13 106.23 C 203.07 106.44 204.01 105.85 204.22 104.91 Z M 204.44 103.93 L 204.65 102.99 C 204.86 102.05 204.27 101.12 203.34 100.90 C 202.40 100.69 201.47 101.28 201.25 102.22 L 201.04 103.16 C 200.83 104.10 201.41 105.03 202.35 105.25 C 203.29 105.46 204.22 104.87 204.44 103.93 Z M 204.65 102.99 L 204.87 101.98 C 205.09 101.04 204.50 100.11 203.57 99.90 C 202.63 99.69 201.70 100.27 201.49 101.21 L 201.26 102.22 C 201.05 103.15 201.63 104.08 202.57 104.30 C 203.50 104.51 204.43 103.92 204.65 102.99 Z M 204.87 101.98 L 205.11 100.94 C 205.32 100.01 204.74 99.08 203.81 98.86 C 202.87 98.65 201.94 99.23 201.73 100.16 L 201.49 101.21 C 201.28 102.14 201.86 103.07 202.79 103.28 C 203.73 103.50 204.66 102.91 204.87 101.98 Z M 205.10 100.94 L 205.33 99.96 C 205.55 99.03 204.97 98.10 204.04 97.89 C 203.11 97.67 202.18 98.25 201.96 99.18 L 201.74 100.16 C 201.52 101.09 202.10 102.02 203.03 102.24 C 203.96 102.45 204.89 101.87 205.10 100.94 Z M 205.33 99.97 L 205.55 99.04 C 205.76 98.11 205.19 97.18 204.26 96.96 C 203.34 96.74 202.41 97.32 202.19 98.25 L 201.97 99.17 C 201.75 100.10 202.32 101.03 203.25 101.25 C 204.18 101.47 205.11 100.89 205.33 99.97 Z M 205.54 99.05 L 205.75 98.16 C 205.98 97.24 205.41 96.31 204.48 96.08 C 203.56 95.86 202.63 96.43 202.41 97.35 L 202.19 98.24 C 201.97 99.16 202.54 100.09 203.46 100.32 C 204.39 100.54 205.32 99.97 205.54 99.05 Z M 205.75 98.17 L 206.01 97.13 C 206.23 96.21 205.67 95.28 204.75 95.05 C 203.83 94.82 202.90 95.38 202.67 96.30 L 202.41 97.34 C 202.19 98.26 202.75 99.19 203.67 99.42 C 204.59 99.65 205.52 99.09 205.75 98.17 Z M 205.99 97.14 L 206.25 96.15 C 206.49 95.24 205.94 94.30 205.02 94.07 C 204.11 93.83 203.18 94.38 202.94 95.29 L 202.68 96.29 C 202.45 97.20 203.00 98.13 203.91 98.37 C 204.83 98.61 205.76 98.06 205.99 97.14 Z M 206.24 96.17 L 206.49 95.24 C 206.74 94.33 206.20 93.40 205.29 93.15 C 204.38 92.91 203.45 93.44 203.20 94.35 L 202.95 95.28 C 202.71 96.18 203.24 97.12 204.15 97.36 C 205.06 97.61 205.99 97.07 206.24 96.17 Z M 206.48 95.26 L 206.74 94.34 C 206.99 93.44 206.47 92.51 205.57 92.25 C 204.68 91.99 203.74 92.51 203.48 93.41 L 203.22 94.33 C 202.96 95.23 203.48 96.17 204.38 96.42 C 205.28 96.68 206.22 96.16 206.48 95.26 Z M 206.72 94.38 L 207.02 93.41 C 207.29 92.52 206.80 91.58 205.91 91.30 C 205.02 91.03 204.07 91.52 203.80 92.41 L 203.50 93.38 C 203.23 94.27 203.72 95.21 204.61 95.49 C 205.50 95.76 206.44 95.26 206.72 94.38 Z M 206.99 93.46 L 207.31 92.54 C 207.61 91.67 207.15 90.71 206.28 90.41 C 205.41 90.10 204.45 90.57 204.15 91.44 L 203.83 92.36 C 203.52 93.23 203.99 94.19 204.86 94.49 C 205.73 94.80 206.69 94.33 206.99 93.46 Z M 207.27 92.60 L 207.64 91.68 C 207.98 90.82 207.56 89.86 206.71 89.52 C 205.85 89.18 204.89 89.60 204.55 90.45 L 204.18 91.38 C 203.85 92.23 204.26 93.20 205.12 93.53 C 205.97 93.87 206.94 93.45 207.27 92.60 Z M 207.60 91.74 L 208.02 90.80 C 208.39 89.98 208.02 89.00 207.19 88.63 C 206.36 88.26 205.39 88.63 205.02 89.45 L 204.60 90.39 C 204.22 91.22 204.59 92.19 205.42 92.56 C 206.25 92.94 207.22 92.57 207.60 91.74 Z M 207.96 90.87 L 208.42 89.98 C 208.83 89.19 208.52 88.21 207.72 87.80 C 206.93 87.38 205.95 87.70 205.54 88.49 L 205.08 89.38 C 204.66 90.18 204.97 91.16 205.77 91.57 C 206.57 91.98 207.55 91.67 207.96 90.87 Z M 208.33 90.09 L 208.93 89.15 C 209.40 88.40 209.17 87.41 208.43 86.94 C 207.68 86.47 206.69 86.69 206.22 87.44 L 205.62 88.38 C 205.15 89.13 205.38 90.12 206.12 90.59 C 206.87 91.06 207.86 90.84 208.33 90.09 Z M 208.70 89.41 L 209.42 88.67 C 210.04 88.05 210.03 87.05 209.41 86.43 C 208.78 85.82 207.78 85.83 207.17 86.45 L 206.44 87.19 C 205.83 87.81 205.84 88.81 206.46 89.43 C 207.08 90.04 208.09 90.03 208.70 89.41 Z M 207.61 88.97 L 208.05 89.18 C 208.83 89.56 209.76 89.24 210.14 88.46 C 210.52 87.68 210.20 86.75 209.42 86.37 L 208.98 86.16 C 208.20 85.78 207.27 86.10 206.89 86.88 C 206.51 87.65 206.83 88.59 207.61 88.97 Z M 207.23 88.03 L 207.40 89.03 C 207.54 89.86 208.33 90.42 209.16 90.28 C 210.00 90.14 210.56 89.35 210.42 88.52 L 210.25 87.52 C 210.10 86.69 209.31 86.13 208.48 86.27 C 207.65 86.41 207.09 87.20 207.23 88.03 Z M 207.41 88.87 L 207.46 89.60 C 207.51 90.43 208.22 91.05 209.05 91.00 C 209.87 90.95 210.50 90.24 210.45 89.41 L 210.40 88.68 C 210.35 87.85 209.64 87.23 208.81 87.28 C 207.99 87.33 207.36 88.04 207.41 88.87 Z"
      fill="black"
      fill-rule="nonzero" /></svg>