<svg xmlns="http://www.w3.org/2000/svg" width="300" height="300" viewBox="0 0 300 300">
<path d="M 90.31 93.60 L 90.31 94.56 C 90.31 95.37 90.97 96.03 91.77 96.03 C 92.58 96.03 93.23 95.37 93.23 94.56 L 93.23 93.60 C 93.23 92.79 92.58 92.13 91.77 92.13 C 90.97 92.13 90.31 92.79 90.31 93.60 Z M 90.29 94.56 L 90.29 95.58 C 90.29 96.40 90.96 97.06 91.77 97.06 C 92.59 97.06 93.25 96.40 93.25 95.58 L 93.25 94.56 C 93.25 93.75 92.59 93.09 91.77 93.09 C 90.96 93.09 90.29 93.75 90.29 94.56 Z M 90.27 95.59 L 90.27 96.60 C 90.28 97.43 90.95 98.10 91.78 98.09 C 92.62 98.09 93.29 97.41 93.28 96.58 L 93.28 95.57 C 93.27 94.74 92.60 94.07 91.77 94.08 C 90.93 94.08 90.26 94.76 90.27 95.59 Z M 90.25 96.62 L 90.27 97.62 C 90.28 98.46 90.98 99.14 91.83 99.12 C 92.67 99.10 93.35 98.40 93.33 97.56 L 93.31 96.56 C 93.29 95.71 92.59 95.04 91.75 95.06 C 90.90 95.08 90.23 95.77 90.25 96.62 Z M 90.25 97.65 L 90.29 98.64 C 90.32 99.50 91.05 100.16 91.90 100.13 C 92.76 100.09 93.42 99.37 93.39 98.51 L 93.35 97.53 C 93.31 96.67 92.59 96.00 91.73 96.04 C 90.88 96.07 90.21 96.80 90.25 97.65 Z M 90.27 98.67 L 90.33 99.63 C 90.38 100.49 91.12 101.15 91.98 101.10 C 92.84 101.06 93.50 100.32 93.46 99.45 L 93.40 98.49 C 93.35 97.63 92.61 96.97 91.75 97.01 C 90.89 97.06 90.23 97.80 90.27 98.67 Z M 90.32 99.64 L 90.38 100.63 C 90.43 101.50 91.18 102.16 92.05 102.11 C 92.92 102.06 93.58 101.31 93.53 100.44 L 93.47 99.44 C 93.41 98.57 92.66 97.91 91.79 97.96 C 90.92 98.02 90.26 98.77 90.32 99.64 Z M 90.37 100.63 L 90.43 101.66 C 90.49 102.53 91.24 103.20 92.11 103.14 C 92.99 103.09 93.66 102.34 93.60 101.46 L 93.54 100.44 C 93.48 99.56 92.73 98.90 91.86 98.95 C 90.98 99.00 90.31 99.76 90.37 100.63 Z M 90.42 101.65 L 90.48 102.61 C 90.53 103.49 91.29 104.17 92.17 104.11 C 93.05 104.06 93.72 103.30 93.67 102.42 L 93.61 101.46 C 93.56 100.58 92.80 99.91 91.92 99.97 C 91.04 100.02 90.37 100.77 90.42 101.65 Z M 90.47 102.62 L 90.53 103.64 C 90.59 104.53 91.35 105.20 92.23 105.15 C 93.12 105.10 93.79 104.34 93.74 103.45 L 93.68 102.42 C 93.62 101.54 92.86 100.86 91.98 100.92 C 91.09 100.97 90.42 101.73 90.47 102.62 Z M 90.53 103.65 L 90.59 104.66 C 90.65 105.55 91.41 106.22 92.30 106.17 C 93.19 106.11 93.86 105.35 93.81 104.46 L 93.74 103.45 C 93.69 102.56 92.92 101.88 92.04 101.94 C 91.15 101.99 90.47 102.76 90.53 103.65 Z M 90.58 104.66 L 90.65 105.64 C 90.70 106.53 91.47 107.21 92.37 107.15 C 93.26 107.09 93.94 106.32 93.88 105.43 L 93.81 104.45 C 93.76 103.56 92.99 102.88 92.09 102.94 C 91.20 103.00 90.53 103.77 90.58 104.66 Z M 90.64 105.64 L 90.71 106.66 C 90.77 107.55 91.54 108.23 92.44 108.17 C 93.33 108.11 94.01 107.34 93.95 106.44 L 93.88 105.43 C 93.82 104.53 93.05 103.86 92.15 103.92 C 91.26 103.97 90.58 104.75 90.64 105.64 Z M 90.70 106.66 L 90.77 107.68 C 90.83 108.58 91.61 109.26 92.51 109.20 C 93.41 109.14 94.09 108.36 94.03 107.46 L 93.96 106.44 C 93.90 105.54 93.12 104.86 92.22 104.92 C 91.32 104.98 90.64 105.76 90.70 106.66 Z M 90.76 107.68 L 90.83 108.67 C 90.89 109.57 91.67 110.26 92.57 110.19 C 93.47 110.13 94.16 109.35 94.10 108.45 L 94.03 107.46 C 93.97 106.56 93.19 105.88 92.29 105.94 C 91.39 106.00 90.70 106.78 90.76 107.68 Z M 90.82 108.67 L 90.89 109.67 C 90.95 110.58 91.73 111.26 92.64 111.20 C 93.55 111.14 94.23 110.36 94.17 109.45 L 94.10 108.45 C 94.04 107.55 93.26 106.86 92.35 106.92 C 91.45 106.98 90.76 107.77 90.82 108.67 Z M 90.89 109.67 L 90.95 110.68 C 91.01 111.59 91.80 112.27 92.71 112.21 C 93.62 112.15 94.30 111.37 94.24 110.46 L 94.18 109.45 C 94.11 108.54 93.33 107.86 92.42 107.92 C 91.51 107.98 90.82 108.76 90.89 109.67 Z M 90.95 110.68 L 91.01 111.66 C 91.07 112.57 91.86 113.26 92.77 113.20 C 93.69 113.14 94.38 112.35 94.31 111.44 L 94.25 110.46 C 94.19 109.54 93.40 108.86 92.49 108.92 C 91.58 108.98 90.89 109.77 90.95 110.68 Z M 91.01 111.66 L 91.07 112.63 C 91.13 113.55 91.92 114.24 92.84 114.18 C 93.76 114.12 94.45 113.33 94.39 112.41 L 94.32 111.43 C 94.26 110.52 93.47 109.83 92.55 109.89 C 91.64 109.95 90.94 110.74 91.01 111.66 Z M 91.06 112.64 L 91.13 113.64 C 91.19 114.56 91.99 115.25 92.91 115.19 C 93.83 115.13 94.52 114.33 94.46 113.41 L 94.39 112.41 C 94.33 111.49 93.54 110.80 92.62 110.86 C 91.70 110.92 91.00 111.72 91.06 112.64 Z M 91.12 113.64 L 91.19 114.67 C 91.26 115.60 92.06 116.29 92.98 116.23 C 93.90 116.17 94.60 115.37 94.54 114.44 L 94.47 113.41 C 94.41 112.49 93.61 111.79 92.68 111.85 C 91.76 111.91 91.06 112.71 91.12 113.64 Z M 91.19 114.67 L 91.25 115.63 C 91.32 116.56 92.12 117.26 93.05 117.20 C 93.98 117.13 94.68 116.33 94.61 115.40 L 94.55 114.44 C 94.48 113.51 93.68 112.81 92.75 112.88 C 91.82 112.94 91.12 113.74 91.19 114.67 Z M 91.24 115.63 L 91.31 116.63 C 91.37 117.56 92.18 118.27 93.12 118.20 C 94.05 118.14 94.76 117.33 94.69 116.39 L 94.63 115.40 C 94.56 114.47 93.75 113.76 92.82 113.83 C 91.88 113.89 91.18 114.70 91.24 115.63 Z M 91.30 116.63 L 91.37 117.64 C 91.44 118.58 92.25 119.29 93.19 119.22 C 94.13 119.16 94.84 118.34 94.78 117.40 L 94.70 116.39 C 94.64 115.45 93.82 114.74 92.88 114.81 C 91.94 114.87 91.23 115.69 91.30 116.63 Z M 91.36 117.64 L 91.43 118.67 C 91.50 119.62 92.32 120.33 93.27 120.26 C 94.21 120.20 94.93 119.37 94.86 118.43 L 94.79 117.40 C 94.72 116.45 93.90 115.74 92.95 115.81 C 92.01 115.87 91.29 116.70 91.36 117.64 Z M 91.42 118.67 L 91.49 119.64 C 91.56 120.60 92.39 121.31 93.34 121.24 C 94.29 121.18 95.00 120.35 94.94 119.40 L 94.87 118.43 C 94.80 117.48 93.97 116.76 93.02 116.83 C 92.07 116.89 91.36 117.72 91.42 118.67 Z M 91.49 119.64 L 91.56 120.62 C 91.62 121.57 92.45 122.29 93.40 122.23 C 94.36 122.16 95.07 121.33 95.01 120.38 L 94.94 119.40 C 94.88 118.45 94.05 117.73 93.10 117.80 C 92.14 117.86 91.42 118.69 91.49 119.64 Z M 91.55 120.61 L 91.62 121.61 C 91.68 122.57 92.50 123.29 93.46 123.23 C 94.42 123.17 95.14 122.34 95.08 121.38 L 95.01 120.39 C 94.95 119.43 94.13 118.71 93.17 118.77 C 92.21 118.83 91.49 119.66 91.55 120.61 Z M 91.61 121.60 L 91.67 122.62 C 91.73 123.58 92.55 124.31 93.51 124.26 C 94.47 124.20 95.20 123.38 95.14 122.42 L 95.08 121.39 C 95.03 120.44 94.20 119.70 93.24 119.76 C 92.29 119.82 91.55 120.64 91.61 121.60 Z M 91.67 122.61 L 91.72 123.60 C 91.77 124.56 92.59 125.30 93.55 125.25 C 94.51 125.20 95.25 124.38 95.20 123.42 L 95.15 122.43 C 95.10 121.47 94.28 120.73 93.32 120.78 C 92.36 120.83 91.62 121.65 91.67 122.61 Z M 91.71 123.59 L 91.75 124.54 C 91.80 125.51 92.61 126.25 93.58 126.21 C 94.54 126.17 95.29 125.35 95.25 124.39 L 95.20 123.43 C 95.16 122.47 94.34 121.72 93.38 121.76 C 92.42 121.81 91.67 122.62 91.71 123.59 Z M 91.75 124.54 L 91.79 125.52 C 91.83 126.49 92.64 127.24 93.61 127.20 C 94.57 127.16 95.33 126.35 95.29 125.38 L 95.25 124.40 C 95.21 123.43 94.40 122.68 93.43 122.72 C 92.47 122.76 91.71 123.57 91.75 124.54 Z M 91.79 125.52 L 91.82 126.53 C 91.86 127.50 92.67 128.25 93.64 128.22 C 94.61 128.18 95.36 127.37 95.33 126.40 L 95.29 125.39 C 95.25 124.42 94.44 123.67 93.48 123.70 C 92.51 123.74 91.75 124.55 91.79 125.52 Z M 91.82 126.53 L 91.86 127.57 C 91.89 128.54 92.71 129.29 93.67 129.26 C 94.64 129.23 95.40 128.41 95.37 127.44 L 95.33 126.40 C 95.30 125.43 94.48 124.68 93.51 124.71 C 92.55 124.75 91.79 125.56 91.82 126.53 Z M 91.86 127.57 L 91.89 128.59 C 91.93 129.56 92.74 130.31 93.71 130.28 C 94.68 130.24 95.44 129.43 95.41 128.46 L 95.37 127.44 C 95.33 126.47 94.52 125.71 93.55 125.75 C 92.58 125.78 91.82 126.60 91.86 127.57 Z M 91.89 128.59 L 91.93 129.57 C 91.96 130.54 92.78 131.30 93.75 131.26 C 94.72 131.23 95.48 130.41 95.44 129.44 L 95.41 128.46 C 95.37 127.49 94.56 126.73 93.59 126.76 C 92.61 126.80 91.86 127.62 91.89 128.59 Z M 91.92 129.57 L 91.96 130.57 C 92.00 131.54 92.81 132.30 93.78 132.26 C 94.76 132.23 95.52 131.41 95.48 130.44 L 95.45 129.44 C 95.41 128.47 94.59 127.71 93.62 127.74 C 92.65 127.78 91.89 128.60 91.92 129.57 Z M 91.96 130.56 L 91.99 131.57 C 92.03 132.55 92.84 133.31 93.82 133.27 C 94.79 133.24 95.55 132.42 95.52 131.45 L 95.48 130.44 C 95.45 129.47 94.63 128.71 93.66 128.74 C 92.69 128.77 91.92 129.59 91.96 130.56 Z M 91.99 131.57 L 92.02 132.58 C 92.05 133.55 92.87 134.32 93.85 134.29 C 94.82 134.26 95.59 133.44 95.55 132.46 L 95.52 131.45 C 95.49 130.48 94.67 129.71 93.70 129.74 C 92.72 129.78 91.96 130.59 91.99 131.57 Z M 92.02 132.57 L 92.05 133.58 C 92.08 134.56 92.89 135.33 93.87 135.30 C 94.85 135.27 95.61 134.46 95.59 133.48 L 95.56 132.47 C 95.53 131.49 94.71 130.73 93.74 130.75 C 92.76 130.78 91.99 131.60 92.02 132.57 Z M 92.05 133.58 L 92.07 134.59 C 92.10 135.56 92.91 136.34 93.89 136.31 C 94.86 136.29 95.64 135.48 95.61 134.50 L 95.59 133.49 C 95.56 132.51 94.75 131.74 93.77 131.76 C 92.80 131.79 92.02 132.60 92.05 133.58 Z M 92.07 134.58 L 92.09 135.58 C 92.11 136.56 92.92 137.34 93.90 137.32 C 94.88 137.30 95.66 136.49 95.64 135.51 L 95.62 134.51 C 95.60 133.53 94.79 132.75 93.81 132.77 C 92.83 132.79 92.05 133.60 92.07 134.58 Z M 92.09 135.58 L 92.11 136.58 C 92.12 137.56 92.93 138.34 93.91 138.32 C 94.89 138.31 95.67 137.50 95.66 136.52 L 95.64 135.52 C 95.62 134.54 94.81 133.75 93.83 133.77 C 92.85 133.79 92.07 134.60 92.09 135.58 Z M 92.10 136.58 L 92.12 137.57 C 92.13 138.56 92.94 139.34 93.93 139.32 C 94.91 139.31 95.69 138.50 95.68 137.52 L 95.66 136.52 C 95.64 135.54 94.84 134.75 93.85 134.77 C 92.87 134.79 92.09 135.59 92.10 136.58 Z M 92.12 137.57 L 92.13 138.57 C 92.15 139.55 92.96 140.33 93.94 140.32 C 94.92 140.31 95.71 139.50 95.69 138.51 L 95.68 137.52 C 95.66 136.54 94.85 135.75 93.87 135.76 C 92.89 135.78 92.10 136.59 92.12 137.57 Z M 92.13 138.57 L 92.14 139.55 C 92.16 140.53 92.97 141.32 93.95 141.30 C 94.94 141.29 95.72 140.48 95.71 139.49 L 95.69 138.51 C 95.68 137.53 94.87 136.74 93.89 136.76 C 92.90 136.77 92.11 137.58 92.13 138.57 Z M 92.14 139.55 L 92.16 140.51 C 92.17 141.50 92.98 142.29 93.97 142.27 C 94.95 142.26 95.74 141.45 95.73 140.46 L 95.71 139.49 C 95.70 138.51 94.88 137.72 93.90 137.74 C 92.91 137.75 92.13 138.56 92.14 139.55 Z M 92.16 140.51 L 92.17 141.49 C 92.19 142.48 93.00 143.26 93.98 143.25 C 94.97 143.23 95.76 142.42 95.74 141.44 L 95.73 140.46 C 95.71 139.47 94.90 138.69 93.91 138.70 C 92.93 138.72 92.14 139.53 92.16 140.51 Z M 92.17 141.49 L 92.19 142.48 C 92.20 143.47 93.01 144.25 94.00 144.24 C 94.98 144.22 95.77 143.41 95.76 142.43 L 95.74 141.44 C 95.73 140.45 94.92 139.66 93.93 139.68 C 92.94 139.69 92.16 140.50 92.17 141.49 Z M 92.18 142.48 L 92.20 143.49 C 92.21 144.48 93.03 145.27 94.01 145.25 C 95.00 145.24 95.79 144.43 95.77 143.44 L 95.76 142.43 C 95.74 141.44 94.93 140.65 93.94 140.67 C 92.96 140.68 92.17 141.49 92.18 142.48 Z M 92.20 143.49 L 92.21 144.53 C 92.23 145.52 93.04 146.31 94.03 146.30 C 95.01 146.28 95.80 145.47 95.79 144.48 L 95.77 143.44 C 95.76 142.45 94.95 141.66 93.96 141.68 C 92.97 141.69 92.18 142.50 92.20 143.49 Z M 92.21 144.53 L 92.23 145.52 C 92.24 146.51 93.05 147.30 94.04 147.29 C 95.02 147.28 95.81 146.47 95.80 145.48 L 95.79 144.49 C 95.78 143.50 94.96 142.71 93.98 142.72 C 92.99 142.73 92.20 143.55 92.21 144.53 Z M 92.22 145.52 L 92.24 146.50 C 92.25 147.49 93.06 148.28 94.05 148.26 C 95.04 148.25 95.83 147.44 95.81 146.45 L 95.80 145.48 C 95.79 144.49 94.98 143.70 93.99 143.71 C 93.00 143.72 92.21 144.54 92.22 145.52 Z M 92.24 146.50 L 92.25 147.49 C 92.26 148.48 93.07 149.27 94.06 149.26 C 95.05 149.25 95.84 148.44 95.83 147.45 L 95.82 146.46 C 95.80 145.47 94.99 144.67 94.01 144.69 C 93.02 144.70 92.22 145.51 92.24 146.50 Z M 92.25 147.49 L 92.26 148.50 C 92.27 149.49 93.08 150.28 94.07 150.27 C 95.05 150.26 95.85 149.45 95.84 148.46 L 95.83 147.45 C 95.82 146.46 95.01 145.67 94.02 145.68 C 93.03 145.69 92.24 146.50 92.25 147.49 Z M 92.26 148.50 L 92.26 149.51 C 92.27 150.50 93.08 151.30 94.07 151.29 C 95.06 151.28 95.86 150.47 95.85 149.48 L 95.84 148.46 C 95.83 147.47 95.02 146.68 94.03 146.69 C 93.04 146.70 92.25 147.51 92.26 148.50 Z M 92.26 149.51 L 92.27 150.53 C 92.28 151.52 93.09 152.32 94.08 152.31 C 95.07 152.30 95.86 151.49 95.86 150.50 L 95.85 149.48 C 95.84 148.49 95.03 147.70 94.04 147.71 C 93.05 147.71 92.26 148.52 92.26 149.51 Z M 92.27 150.53 L 92.28 151.55 C 92.28 152.54 93.09 153.34 94.08 153.33 C 95.07 153.32 95.87 152.52 95.86 151.52 L 95.86 150.51 C 95.85 149.52 95.04 148.72 94.05 148.73 C 93.06 148.73 92.26 149.54 92.27 150.53 Z M 92.28 151.54 L 92.28 152.56 C 92.29 153.55 93.09 154.35 94.08 154.34 C 95.07 154.34 95.87 153.53 95.87 152.54 L 95.86 151.53 C 95.86 150.54 95.05 149.74 94.06 149.74 C 93.07 149.75 92.27 150.55 92.28 151.54 Z M 92.28 152.56 L 92.28 153.56 C 92.29 154.55 93.09 155.35 94.08 155.35 C 95.07 155.35 95.87 154.54 95.87 153.55 L 95.87 152.54 C 95.87 151.55 95.06 150.75 94.07 150.76 C 93.08 150.76 92.28 151.57 92.28 152.56 Z M 92.28 153.56 L 92.29 154.56 C 92.29 155.55 93.09 156.35 94.08 156.35 C 95.07 156.35 95.88 155.54 95.87 154.55 L 95.87 153.55 C 95.87 152.56 95.07 151.76 94.07 151.76 C 93.08 151.77 92.28 152.57 92.28 153.56 Z M 92.29 154.56 L 92.29 155.56 C 92.29 156.55 93.09 157.35 94.08 157.35 C 95.07 157.35 95.88 156.54 95.87 155.55 L 95.87 154.56 C 95.87 153.57 95.07 152.76 94.08 152.76 C 93.09 152.77 92.29 153.57 92.29 154.56 Z M 92.29 155.55 L 92.29 156.55 C 92.29 157.54 93.09 158.34 94.08 158.34 C 95.07 158.34 95.88 157.54 95.88 156.55 L 95.87 155.55 C 95.87 154.56 95.07 153.76 94.08 153.76 C 93.09 153.76 92.29 154.56 92.29 155.55 Z M 92.29 156.55 L 92.29 157.54 C 92.29 158.53 93.09 159.33 94.08 159.33 C 95.07 159.33 95.88 158.53 95.88 157.54 L 95.88 156.55 C 95.87 155.56 95.07 154.75 94.08 154.75 C 93.09 154.75 92.29 155.56 92.29 156.55 Z M 92.29 157.54 L 92.29 158.54 C 92.29 159.53 93.09 160.33 94.08 160.33 C 95.07 160.33 95.87 159.53 95.87 158.54 L 95.87 157.54 C 95.87 156.55 95.07 155.74 94.08 155.74 C 93.09 155.74 92.29 156.55 92.29 157.54 Z M 92.29 158.54 L 92.29 159.54 C 92.29 160.53 93.09 161.34 94.08 161.34 C 95.07 161.34 95.87 160.53 95.87 159.54 L 95.87 158.54 C 95.87 157.55 95.07 156.74 94.08 156.74 C 93.09 156.74 92.29 157.55 92.29 158.54 Z M 92.29 159.54 L 92.29 160.55 C 92.29 161.54 93.09 162.34 94.08 162.34 C 95.07 162.34 95.87 161.54 95.87 160.55 L 95.87 159.54 C 95.87 158.55 95.07 157.75 94.08 157.75 C 93.09 157.75 92.29 158.55 92.29 159.54 Z M 92.29 160.55 L 92.29 161.55 C 92.29 162.54 93.09 163.34 94.08 163.34 C 95.07 163.34 95.87 162.54 95.87 161.55 L 95.87 160.55 C 95.87 159.56 95.07 158.75 94.08 158.75 C 93.09 158.75 92.29 159.56 92.29 160.55 Z M 92.29 161.55 L 92.29 162.55 C 92.29 163.53 93.09 164.34 94.08 164.34 C 95.07 164.34 95.87 163.53 95.87 162.55 L 95.87 161.55 C 95.87 160.56 95.07 159.76 94.08 159.76 C 93.09 159.76 92.29 160.56 92.29 161.55 Z M 92.29 162.55 L 92.29 163.54 C 92.29 164.53 93.09 165.33 94.08 165.33 C 95.07 165.33 95.87 164.53 95.87 163.54 L 95.87 162.55 C 95.87 161.56 95.07 160.75 94.08 160.75 C 93.09 160.75 92.29 161.56 92.29 162.55 Z M 92.29 163.54 L 92.29 164.53 C 92.29 165.52 93.09 166.32 94.08 166.32 C 95.07 166.32 95.87 165.52 95.87 164.53 L 95.87 163.54 C 95.87 162.55 95.07 161.75 94.08 161.75 C 93.09 161.75 92.29 162.55 92.29 163.54 Z M 92.29 164.53 L 92.29 165.51 C 92.29 166.50 93.09 167.30 94.08 167.30 C 95.07 167.30 95.87 166.50 95.87 165.51 L 95.87 164.53 C 95.87 163.54 95.07 162.74 94.08 162.74 C 93.09 162.74 92.29 163.54 92.29 164.53 Z M 92.29 165.51 L 92.29 166.50 C 92.29 167.48 93.09 168.29 94.08 168.29 C 95.07 168.29 95.87 167.48 95.87 166.50 L 95.87 165.51 C 95.87 164.52 95.07 163.72 94.08 163.72 C 93.09 163.72 92.29 164.52 92.29 165.51 Z M 92.29 166.50 L 92.29 167.49 C 92.29 168.47 93.09 169.27 94.08 169.27 C 95.07 169.27 95.87 168.47 95.87 167.49 L 95.87 166.50 C 95.87 165.51 95.07 164.71 94.08 164.71 C 93.09 164.71 92.29 165.51 92.29 166.50 Z M 92.29 167.49 L 92.29 168.49 C 92.29 169.47 93.09 170.27 94.08 170.27 C 95.07 170.27 95.87 169.47 95.87 168.49 L 95.87 167.49 C 95.87 166.50 95.07 165.70 94.08 165.70 C 93.09 165.70 92.29 166.50 92.29 167.49 Z M 92.30 168.49 L 92.30 169.50 C 92.30 170.49 93.10 171.29 94.08 171.29 C 95.07 171.29 95.87 170.49 95.87 169.50 L 95.87 168.49 C 95.87 167.50 95.07 166.70 94.08 166.70 C 93.10 166.70 92.30 167.50 92.30 168.49 Z M 92.30 169.50 L 92.30 170.53 C 92.30 171.52 93.10 172.32 94.08 172.32 C 95.07 172.32 95.87 171.52 95.87 170.53 L 95.87 169.50 C 95.87 168.51 95.07 167.72 94.08 167.72 C 93.10 167.72 92.30 168.51 92.30 169.50 Z M 92.30 170.53 L 92.30 171.49 C 92.30 172.47 93.10 173.27 94.08 173.27 C 95.07 173.27 95.87 172.47 95.87 171.49 L 95.87 170.53 C 95.87 169.55 95.07 168.75 94.08 168.75 C 93.10 168.75 92.30 169.55 92.30 170.53 Z M 92.30 171.49 L 92.30 172.46 C 92.30 173.45 93.10 174.25 94.08 174.25 C 95.07 174.25 95.86 173.45 95.86 172.46 L 95.86 171.49 C 95.86 170.50 95.07 169.71 94.08 169.71 C 93.10 169.71 92.30 170.50 92.30 171.49 Z M 92.30 172.46 L 92.30 173.45 C 92.30 174.44 93.10 175.23 94.08 175.23 C 95.07 175.23 95.86 174.44 95.86 173.45 L 95.86 172.46 C 95.86 171.48 95.07 170.68 94.08 170.68 C 93.10 170.68 92.30 171.48 92.30 172.46 Z M 92.30 173.45 L 92.30 174.46 C 92.30 175.44 93.10 176.24 94.08 176.24 C 95.07 176.24 95.86 175.44 95.86 174.46 L 95.86 173.45 C 95.86 172.47 95.07 171.67 94.08 171.67 C 93.10 171.67 92.30 172.47 92.30 173.45 Z M 92.30 174.46 L 92.30 175.47 C 92.30 176.45 93.10 177.25 94.08 177.25 C 95.06 177.25 95.86 176.45 95.86 175.47 L 95.86 174.46 C 95.86 173.47 95.06 172.68 94.08 172.68 C 93.10 172.68 92.30 173.47 92.30 174.46 Z M 92.30 175.47 L 92.30 176.50 C 92.30 177.48 93.10 178.28 94.08 178.28 C 95.06 178.28 95.86 177.48 95.86 176.50 L 95.86 175.47 C 95.86 174.49 95.06 173.69 94.08 173.69 C 93.10 173.69 92.30 174.49 92.30 175.47 Z M 92.30 176.50 L 92.30 177.53 C 92.30 178.51 93.10 179.31 94.08 179.31 C 95.06 179.31 95.86 178.51 95.86 177.53 L 95.86 176.50 C 95.86 175.52 95.06 174.72 94.08 174.72 C 93.10 174.72 92.30 175.52 92.30 176.50 Z M 92.31 177.53 L 92.31 178.52 C 92.31 179.50 93.10 180.30 94.08 180.30 C 95.06 180.30 95.86 179.50 95.86 178.52 L 95.86 177.53 C 95.86 176.55 95.06 175.76 94.08 175.76 C 93.10 175.76 92.31 176.55 92.31 177.53 Z M 92.31 178.52 L 92.31 179.51 C 92.31 180.49 93.10 181.29 94.08 181.29 C 95.06 181.29 95.86 180.49 95.86 179.51 L 95.86 178.52 C 95.86 177.54 95.06 176.74 94.08 176.74 C 93.10 176.74 92.31 177.54 92.31 178.52 Z M 92.31 179.51 L 92.31 180.51 C 92.31 181.49 93.10 182.28 94.08 182.28 C 95.06 182.28 95.86 181.49 95.86 180.51 L 95.86 179.51 C 95.86 178.53 95.06 177.74 94.08 177.74 C 93.10 177.74 92.31 178.53 92.31 179.51 Z M 92.31 180.51 L 92.31 181.51 C 92.31 182.49 93.10 183.28 94.08 183.28 C 95.06 183.28 95.85 182.49 95.85 181.51 L 95.85 180.51 C 95.85 179.53 95.06 178.74 94.08 178.74 C 93.10 178.74 92.31 179.53 92.31 180.51 Z M 92.31 181.51 L 92.31 182.51 C 92.31 183.49 93.10 184.28 94.08 184.28 C 95.06 184.28 95.85 183.49 95.85 182.51 L 95.85 181.51 C 95.85 180.53 95.06 179.74 94.08 179.74 C 93.10 179.74 92.31 180.53 92.31 181.51 Z M 92.31 182.51 L 92.31 183.52 C 92.31 184.50 93.10 185.29 94.08 185.29 C 95.06 185.29 95.85 184.50 95.85 183.52 L 95.85 182.51 C 95.85 181.54 95.06 180.75 94.08 180.75 C 93.10 180.75 92.31 181.54 92.31 182.51 Z M 92.31 183.52 L 92.31 184.53 C 92.31 185.50 93.11 186.30 94.08 186.30 C 95.06 186.30 95.85 185.50 95.85 184.53 L 95.85 183.52 C 95.85 182.54 95.06 181.75 94.08 181.75 C 93.11 181.75 92.31 182.54 92.31 183.52 Z M 92.32 184.53 L 92.32 185.56 C 92.32 186.53 93.11 187.32 94.08 187.32 C 95.06 187.32 95.85 186.53 95.85 185.56 L 95.85 184.53 C 95.85 183.55 95.06 182.76 94.08 182.76 C 93.11 182.76 92.32 183.55 92.32 184.53 Z M 92.32 185.56 L 92.32 186.59 C 92.32 187.57 93.11 188.36 94.08 188.36 C 95.06 188.36 95.85 187.57 95.85 186.59 L 95.85 185.56 C 95.85 184.58 95.06 183.79 94.08 183.79 C 93.11 183.79 92.32 184.58 92.32 185.56 Z M 92.32 186.59 L 92.32 187.62 C 92.32 188.59 93.11 189.38 94.08 189.38 C 95.05 189.38 95.84 188.59 95.84 187.62 L 95.84 186.59 C 95.84 185.62 95.05 184.83 94.08 184.83 C 93.11 184.83 92.32 185.62 92.32 186.59 Z M 92.32 187.62 L 92.32 188.64 C 92.32 189.61 93.11 190.40 94.08 190.40 C 95.05 190.40 95.84 189.61 95.84 188.64 L 95.84 187.62 C 95.84 186.65 95.05 185.86 94.08 185.86 C 93.11 185.86 92.32 186.65 92.32 187.62 Z M 92.32 188.64 L 92.32 189.64 C 92.32 190.61 93.11 191.40 94.08 191.40 C 95.05 191.40 95.84 190.61 95.84 189.64 L 95.84 188.64 C 95.84 187.67 95.05 186.88 94.08 186.88 C 93.11 186.88 92.32 187.67 92.32 188.64 Z M 92.33 189.64 L 92.33 190.62 C 92.33 191.59 93.11 192.38 94.08 192.38 C 95.05 192.38 95.84 191.59 95.84 190.62 L 95.84 189.64 C 95.84 188.67 95.05 187.88 94.08 187.88 C 93.11 187.88 92.33 188.67 92.33 189.64 Z M 92.33 190.62 L 92.33 191.57 C 92.33 192.54 93.11 193.33 94.08 193.33 C 95.05 193.33 95.84 192.54 95.84 191.57 L 95.84 190.62 C 95.84 189.65 95.05 188.87 94.08 188.87 C 93.11 188.87 92.33 189.65 92.33 190.62 Z M 92.33 191.57 L 92.33 192.56 C 92.33 193.53 93.11 194.31 94.08 194.31 C 95.05 194.31 95.83 193.53 95.83 192.56 L 95.83 191.57 C 95.83 190.61 95.05 189.82 94.08 189.82 C 93.11 189.82 92.33 190.61 92.33 191.57 Z M 92.33 192.56 L 92.33 193.60 C 92.33 194.56 93.11 195.35 94.08 195.35 C 95.05 195.35 95.83 194.56 95.83 193.60 L 95.83 192.56 C 95.83 191.59 95.05 190.81 94.08 190.81 C 93.11 190.81 92.33 191.59 92.33 192.56 Z M 92.33 193.60 L 92.33 194.60 C 92.33 195.57 93.12 196.35 94.08 196.35 C 95.05 196.35 95.83 195.57 95.83 194.60 L 95.83 193.60 C 95.83 192.63 95.05 191.85 94.08 191.85 C 93.12 191.85 92.33 192.63 92.33 193.60 Z M 92.34 194.60 L 92.34 195.59 C 92.34 196.55 93.12 197.34 94.08 197.34 C 95.05 197.34 95.83 196.55 95.83 195.59 L 95.83 194.60 C 95.83 193.64 95.05 192.86 94.08 192.86 C 93.12 192.86 92.34 193.64 92.34 194.60 Z M 92.34 195.59 L 92.34 196.57 C 92.34 197.53 93.12 198.31 94.08 198.31 C 95.05 198.31 95.83 197.53 95.83 196.57 L 95.83 195.59 C 95.83 194.63 95.05 193.84 94.08 193.84 C 93.12 193.84 92.34 194.63 92.34 195.59 Z M 92.34 196.57 L 92.34 197.54 C 92.34 198.51 93.12 199.29 94.08 199.29 C 95.04 199.29 95.82 198.51 95.82 197.54 L 95.82 196.57 C 95.82 195.60 95.04 194.82 94.08 194.82 C 93.12 194.82 92.34 195.60 92.34 196.57 Z M 92.34 197.54 L 92.34 198.53 C 92.34 199.49 93.12 200.27 94.08 200.27 C 95.04 200.27 95.82 199.49 95.82 198.53 L 95.82 197.54 C 95.82 196.58 95.04 195.80 94.08 195.80 C 93.12 195.80 92.34 196.58 92.34 197.54 Z M 92.34 198.53 L 92.34 199.50 C 92.34 200.46 93.12 201.24 94.08 201.24 C 95.04 201.24 95.82 200.46 95.82 199.50 L 95.82 198.53 C 95.82 197.57 95.04 196.79 94.08 196.79 C 93.12 196.79 92.34 197.57 92.34 198.53 Z M 92.35 199.50 L 92.35 200.50 C 92.35 201.45 93.12 202.23 94.08 202.23 C 95.04 202.23 95.82 201.45 95.82 200.50 L 95.82 199.50 C 95.82 198.55 95.04 197.77 94.08 197.77 C 93.12 197.77 92.35 198.55 92.35 199.50 Z M 92.35 200.50 L 92.35 201.50 C 92.35 202.46 93.12 203.23 94.08 203.23 C 95.04 203.23 95.82 202.46 95.82 201.50 L 95.82 200.50 C 95.82 199.54 95.04 198.76 94.08 198.76 C 93.12 198.76 92.35 199.54 92.35 200.50 Z M 92.35 201.50 L 92.35 202.51 C 92.35 203.46 93.13 204.24 94.08 204.24 C 95.04 204.24 95.81 203.46 95.81 202.51 L 95.81 201.50 C 95.81 200.54 95.04 199.77 94.08 199.77 C 93.13 199.77 92.35 200.54 92.35 201.50 Z M 92.35 202.51 L 92.35 203.52 C 92.35 204.47 93.13 205.25 94.08 205.25 C 95.04 205.25 95.81 204.47 95.81 203.52 L 95.81 202.51 C 95.81 201.55 95.04 200.78 94.08 200.78 C 93.13 200.78 92.35 201.55 92.35 202.51 Z M 92.35 203.52 L 92.35 204.53 C 92.35 205.49 93.13 206.26 94.08 206.26 C 95.04 206.26 95.81 205.49 95.81 204.53 L 95.81 203.52 C 95.81 202.57 95.04 201.79 94.08 201.79 C 93.13 201.79 92.35 202.57 92.35 203.52 Z M 92.36 204.53 L 92.36 205.57 C 92.36 206.52 93.13 207.29 94.08 207.29 C 95.03 207.29 95.81 206.52 95.81 205.57 L 95.81 204.53 C 95.81 203.58 95.03 202.81 94.08 202.81 C 93.13 202.81 92.36 203.58 92.36 204.53 Z M 92.36 205.57 L 92.36 206.60 C 92.36 207.55 93.13 208.32 94.08 208.32 C 95.03 208.32 95.81 207.55 95.81 206.60 L 95.81 205.57 C 95.81 204.61 95.03 203.84 94.08 203.84 C 93.13 203.84 92.36 204.61 92.36 205.57 Z M 92.36 206.60 L 92.36 207.61 C 92.36 208.57 93.13 209.34 94.08 209.34 C 95.04 209.34 95.81 208.57 95.81 207.61 L 95.81 206.60 C 95.81 205.64 95.04 204.87 94.08 204.87 C 93.13 204.87 92.36 205.64 92.36 206.60 Z M 92.36 207.61 L 92.36 208.62 C 92.36 209.57 93.13 210.34 94.08 210.34 C 95.04 210.34 95.81 209.57 95.81 208.62 L 95.81 207.61 C 95.81 206.66 95.04 205.89 94.08 205.89 C 93.13 205.89 92.36 206.66 92.36 207.61 Z M 92.35 208.62 L 92.35 209.60 C 92.35 210.55 93.13 211.32 94.08 211.32 C 95.04 211.32 95.81 210.55 95.81 209.60 L 95.81 208.62 C 95.81 207.66 95.04 206.89 94.08 206.89 C 93.13 206.89 92.35 207.66 92.35 208.62 Z M 92.35 209.60 L 92.35 210.55 C 92.35 211.50 93.13 212.28 94.08 212.28 C 95.04 212.28 95.81 211.50 95.81 210.55 L 95.81 209.60 C 95.81 208.64 95.04 207.87 94.08 207.87 C 93.13 207.87 92.35 208.64 92.35 209.60 Z M 92.35 210.55 L 92.35 211.60 C 92.35 212.55 93.13 213.32 94.08 213.32 C 95.04 213.32 95.81 212.55 95.81 211.60 L 95.81 210.55 C 95.81 209.60 95.04 208.82 94.08 208.82 C 93.13 208.82 92.35 209.60 92.35 210.55 Z M 92.36 211.60 L 92.36 212.65 C 92.36 213.60 93.13 214.37 94.08 214.37 C 95.03 214.37 95.81 213.60 95.81 212.65 L 95.81 211.60 C 95.81 210.64 95.03 209.87 94.08 209.87 C 93.13 209.87 92.36 210.64 92.36 211.60 Z M 92.36 212.65 L 92.36 213.66 C 92.36 214.61 93.13 215.38 94.08 215.38 C 95.03 215.38 95.81 214.61 95.81 213.66 L 95.81 212.65 C 95.81 211.69 95.03 210.92 94.08 210.92 C 93.13 210.92 92.36 211.69 92.36 212.65 Z M 92.36 213.66 L 92.36 214.63 C 92.36 215.58 93.13 216.35 94.08 216.35 C 95.03 216.35 95.80 215.58 95.80 214.63 L 95.80 213.66 C 95.80 212.70 95.03 211.93 94.08 211.93 C 93.13 211.93 92.36 212.70 92.36 213.66 Z M 92.36 214.63 L 92.36 215.57 C 92.36 216.52 93.13 217.29 94.08 217.29 C 95.03 217.29 95.80 216.52 95.80 215.57 L 95.80 214.63 C 95.80 213.68 95.03 212.91 94.08 212.91 C 93.13 212.91 92.36 213.68 92.36 214.63 Z M 92.36 215.57 L 92.36 216.55 C 92.36 217.50 93.13 218.27 94.08 218.27 C 95.03 218.27 95.80 217.50 95.80 216.55 L 95.80 215.57 C 95.80 214.62 95.03 213.85 94.08 213.85 C 93.13 213.85 92.36 214.62 92.36 215.57 Z M 92.36 216.55 L 92.36 217.57 C 92.36 218.52 93.13 219.29 94.08 219.29 C 95.03 219.29 95.80 218.52 95.80 217.57 L 95.80 216.55 C 95.80 215.60 95.03 214.84 94.08 214.84 C 93.13 214.84 92.36 215.60 92.36 216.55 Z M 92.36 217.57 L 92.36 218.56 C 92.36 219.51 93.13 220.28 94.08 220.28 C 95.03 220.28 95.80 219.51 95.80 218.56 L 95.80 217.57 C 95.80 216.62 95.03 215.85 94.08 215.85 C 93.13 215.85 92.36 216.62 92.36 217.57 Z M 92.37 218.56 L 92.37 219.55 C 92.37 220.49 93.13 221.26 94.08 221.26 C 95.03 221.26 95.80 220.49 95.80 219.55 L 95.80 218.56 C 95.80 217.62 95.03 216.85 94.08 216.85 C 93.13 216.85 92.37 217.62 92.37 218.56 Z M 92.37 219.55 L 92.37 220.53 C 92.37 221.48 93.14 222.25 94.08 222.25 C 95.03 222.25 95.80 221.48 95.80 220.53 L 95.80 219.55 C 95.80 218.60 95.03 217.83 94.08 217.83 C 93.14 217.83 92.37 218.60 92.37 219.55 Z M 92.37 220.53 L 92.37 221.55 C 92.37 222.50 93.14 223.26 94.08 223.26 C 95.03 223.26 95.79 222.50 95.79 221.55 L 95.79 220.53 C 95.79 219.59 95.03 218.82 94.08 218.82 C 93.14 218.82 92.37 219.59 92.37 220.53 Z M 92.37 221.55 L 92.37 222.57 C 92.37 223.52 93.14 224.28 94.08 224.28 C 95.03 224.28 95.79 223.52 95.79 222.57 L 95.79 221.55 C 95.79 220.61 95.03 219.85 94.08 219.85 C 93.14 219.85 92.37 220.61 92.37 221.55 Z M 92.38 222.57 L 92.38 223.58 C 92.38 224.52 93.14 225.28 94.08 225.28 C 95.02 225.28 95.79 224.52 95.79 223.58 L 95.79 222.57 C 95.79 221.63 95.02 220.87 94.08 220.87 C 93.14 220.87 92.38 221.63 92.38 222.57 Z M 92.38 223.58 L 92.38 224.55 C 92.38 225.49 93.14 226.26 94.08 226.26 C 95.02 226.26 95.78 225.49 95.78 224.55 L 95.78 223.58 C 95.78 222.64 95.02 221.88 94.08 221.88 C 93.14 221.88 92.38 222.64 92.38 223.58 Z M 92.38 224.55 L 92.38 225.58 C 92.38 226.52 93.14 227.28 94.08 227.28 C 95.02 227.28 95.78 226.52 95.78 225.58 L 95.78 224.55 C 95.78 223.62 95.02 222.85 94.08 222.86 C 93.14 222.86 92.38 223.62 92.38 224.55 Z M 92.39 225.58 L 92.39 226.61 C 92.39 227.55 93.15 228.30 94.09 228.30 C 95.03 228.30 95.78 227.54 95.78 226.60 L 95.78 225.57 C 95.77 224.64 95.01 223.88 94.08 223.88 C 93.14 223.89 92.38 224.65 92.39 225.58 Z M 92.39 226.62 L 92.40 227.60 C 92.41 228.54 93.18 229.29 94.11 229.28 C 95.04 229.27 95.79 228.51 95.78 227.57 L 95.78 226.59 C 95.77 225.66 95.00 224.91 94.07 224.92 C 93.13 224.92 92.38 225.69 92.39 226.62 Z M 92.41 227.62 L 92.43 228.58 C 92.45 229.51 93.22 230.25 94.15 230.23 C 95.08 230.21 95.82 229.44 95.80 228.50 L 95.78 227.55 C 95.76 226.62 94.99 225.88 94.06 225.90 C 93.13 225.92 92.39 226.69 92.41 227.62 Z M 92.43 228.60 L 92.47 229.63 C 92.51 230.56 93.29 231.28 94.22 231.24 C 95.15 231.21 95.87 230.43 95.83 229.50 L 95.80 228.48 C 95.76 227.55 94.98 226.82 94.05 226.86 C 93.12 226.90 92.40 227.68 92.43 228.60 Z M 92.48 229.66 L 92.54 230.67 C 92.59 231.60 93.38 232.30 94.31 232.25 C 95.23 232.20 95.94 231.41 95.89 230.48 L 95.83 229.47 C 95.78 228.54 94.98 227.84 94.06 227.89 C 93.13 227.94 92.43 228.73 92.48 229.66 Z M 92.54 230.70 L 92.62 231.68 C 92.69 232.60 93.49 233.29 94.41 233.22 C 95.33 233.15 96.02 232.35 95.95 231.43 L 95.88 230.45 C 95.81 229.53 95.01 228.84 94.08 228.91 C 93.16 228.98 92.47 229.78 92.54 230.70 Z M 92.63 231.71 L 92.72 232.72 C 92.81 233.64 93.62 234.31 94.54 234.22 C 95.46 234.13 96.13 233.32 96.04 232.40 L 95.94 231.40 C 95.86 230.48 95.04 229.81 94.13 229.90 C 93.21 229.98 92.54 230.80 92.63 231.71 Z M 92.73 232.76 L 92.85 233.78 C 92.96 234.69 93.79 235.34 94.70 235.23 C 95.61 235.13 96.26 234.30 96.15 233.39 L 96.03 232.36 C 95.92 231.45 95.10 230.80 94.18 230.91 C 93.27 231.02 92.62 231.84 92.73 232.76 Z M 92.86 233.82 L 93.00 234.78 C 93.13 235.68 93.97 236.31 94.87 236.18 C 95.78 236.05 96.41 235.21 96.28 234.31 L 96.14 233.35 C 96.01 232.44 95.17 231.81 94.27 231.94 C 93.36 232.07 92.73 232.91 92.86 233.82 Z M 93.01 234.82 L 93.18 235.82 C 93.34 236.72 94.19 237.33 95.09 237.17 C 95.98 237.02 96.59 236.17 96.44 235.27 L 96.27 234.26 C 96.11 233.37 95.26 232.76 94.36 232.91 C 93.47 233.07 92.86 233.92 93.01 234.82 Z M 93.20 235.87 L 93.41 236.87 C 93.59 237.75 94.45 238.33 95.34 238.15 C 96.22 237.97 96.80 237.10 96.62 236.22 L 96.42 235.22 C 96.24 234.34 95.37 233.76 94.49 233.94 C 93.60 234.12 93.03 234.99 93.20 235.87 Z M 93.43 236.94 L 93.66 237.86 C 93.88 238.73 94.77 239.26 95.64 239.04 C 96.51 238.82 97.04 237.94 96.82 237.07 L 96.59 236.15 C 96.37 235.28 95.49 234.75 94.62 234.96 C 93.75 235.18 93.22 236.07 93.43 236.94 Z M 93.72 237.99 L 94.04 238.92 C 94.33 239.76 95.25 240.21 96.09 239.92 C 96.93 239.63 97.38 238.71 97.09 237.87 L 96.76 236.93 C 96.47 236.09 95.56 235.65 94.72 235.94 C 93.87 236.23 93.43 237.15 93.72 237.99 Z M 94.15 239.12 L 94.59 239.98 C 94.98 240.76 95.94 241.07 96.73 240.68 C 97.51 240.28 97.82 239.32 97.42 238.54 L 96.98 237.68 C 96.58 236.89 95.63 236.58 94.84 236.98 C 94.06 237.38 93.75 238.34 94.15 239.12 Z M 94.68 240.10 L 95.22 240.95 C 95.68 241.68 96.65 241.89 97.39 241.43 C 98.12 240.96 98.33 239.99 97.87 239.26 L 97.33 238.41 C 96.86 237.68 95.89 237.47 95.16 237.93 C 94.43 238.40 94.21 239.37 94.68 240.10 Z M 95.26 240.97 L 95.57 241.43 C 96.05 242.14 97.01 242.32 97.72 241.84 C 98.43 241.36 98.61 240.40 98.13 239.69 L 97.83 239.23 C 97.35 238.53 96.38 238.34 95.67 238.82 C 94.96 239.30 94.78 240.27 95.26 240.97 Z"
      fill="black"
      fill-rule="nonzero" /><path d="M 140.51 94.58 L 140.09 95.51 C 139.74 96.27 140.08 97.17 140.84 97.52 C 141.60 97.86 142.50 97.53 142.84 96.76 L 143.27 95.83 C 143.61 95.07 143.28 94.17 142.52 93.83 C 141.76 93.48 140.86 93.82 140.51 94.58 Z M 139.85 96.06 L 139.80 96.97 C 139.76 97.86 140.45 98.62 141.35 98.66 C 142.24 98.70 143.00 98.01 143.04 97.12 L 143.08 96.21 C 143.13 95.32 142.44 94.56 141.54 94.52 C 140.65 94.48 139.89 95.17 139.85 96.06 Z M 139.87 97.66 L 140.24 98.60 C 140.58 99.45 141.56 99.87 142.42 99.53 C 143.27 99.19 143.69 98.21 143.35 97.35 L 142.98 96.42 C 142.63 95.56 141.66 95.15 140.80 95.49 C 139.94 95.83 139.53 96.81 139.87 97.66 Z M 140.27 98.71 L 140.69 99.58 C 141.10 100.42 142.11 100.77 142.96 100.37 C 143.80 99.96 144.15 98.94 143.74 98.10 L 143.32 97.24 C 142.91 96.40 141.90 96.04 141.06 96.45 C 140.21 96.86 139.86 97.87 140.27 98.71 Z M 140.67 99.58 L 141.11 100.49 C 141.51 101.34 142.53 101.70 143.38 101.29 C 144.23 100.89 144.60 99.87 144.19 99.02 L 143.76 98.11 C 143.35 97.26 142.33 96.90 141.48 97.30 C 140.63 97.71 140.27 98.73 140.67 99.58 Z M 141.10 100.50 L 141.55 101.43 C 141.96 102.28 142.99 102.64 143.84 102.23 C 144.70 101.82 145.06 100.79 144.65 99.94 L 144.20 99.01 C 143.79 98.15 142.76 97.79 141.90 98.20 C 141.05 98.61 140.69 99.64 141.10 100.50 Z M 141.55 101.44 L 141.96 102.30 C 142.38 103.15 143.42 103.51 144.28 103.09 C 145.13 102.67 145.49 101.63 145.07 100.77 L 144.65 99.92 C 144.23 99.07 143.19 98.71 142.34 99.13 C 141.48 99.55 141.12 100.59 141.55 101.44 Z M 141.96 102.31 L 142.42 103.23 C 142.85 104.08 143.89 104.43 144.75 104.00 C 145.61 103.57 145.95 102.53 145.52 101.67 L 145.07 100.76 C 144.64 99.90 143.60 99.55 142.74 99.98 C 141.88 100.41 141.53 101.45 141.96 102.31 Z M 142.42 103.24 L 142.89 104.17 C 143.33 105.03 144.38 105.37 145.23 104.93 C 146.09 104.50 146.43 103.45 146.00 102.59 L 145.52 101.66 C 145.09 100.80 144.04 100.46 143.18 100.90 C 142.32 101.33 141.98 102.38 142.42 103.24 Z M 142.89 104.18 L 143.32 105.02 C 143.77 105.88 144.82 106.21 145.68 105.77 C 146.54 105.33 146.87 104.27 146.43 103.42 L 146.00 102.58 C 145.56 101.72 144.50 101.38 143.64 101.83 C 142.79 102.27 142.45 103.32 142.89 104.18 Z M 143.32 105.02 L 143.78 105.90 C 144.22 106.76 145.28 107.10 146.14 106.65 C 147.00 106.21 147.34 105.15 146.89 104.29 L 146.43 103.41 C 145.99 102.55 144.93 102.21 144.07 102.66 C 143.21 103.11 142.87 104.16 143.32 105.02 Z M 143.77 105.91 L 144.25 106.83 C 144.70 107.69 145.76 108.03 146.62 107.58 C 147.49 107.13 147.82 106.07 147.37 105.21 L 146.89 104.29 C 146.45 103.42 145.38 103.09 144.52 103.54 C 143.66 103.98 143.32 105.05 143.77 105.91 Z M 144.25 106.83 L 144.72 107.75 C 145.17 108.61 146.23 108.95 147.10 108.50 C 147.96 108.05 148.30 106.99 147.85 106.12 L 147.38 105.21 C 146.93 104.34 145.87 104.01 145.00 104.45 C 144.14 104.90 143.80 105.97 144.25 106.83 Z M 144.71 107.75 L 145.16 108.62 C 145.61 109.49 146.68 109.83 147.55 109.38 C 148.42 108.93 148.76 107.86 148.31 106.99 L 147.86 106.12 C 147.41 105.25 146.34 104.91 145.47 105.36 C 144.60 105.81 144.26 106.88 144.71 107.75 Z M 145.16 108.63 L 145.62 109.52 C 146.07 110.39 147.15 110.73 148.02 110.27 C 148.90 109.82 149.23 108.74 148.78 107.87 L 148.32 106.98 C 147.86 106.11 146.79 105.77 145.91 106.22 C 145.04 106.68 144.70 107.75 145.16 108.63 Z M 145.61 109.53 L 146.09 110.43 C 146.55 111.30 147.63 111.64 148.51 111.18 C 149.38 110.72 149.72 109.63 149.26 108.76 L 148.78 107.86 C 148.32 106.98 147.24 106.65 146.36 107.11 C 145.49 107.57 145.15 108.65 145.61 109.53 Z M 146.09 110.44 L 146.57 111.34 C 147.04 112.22 148.13 112.55 149.01 112.08 C 149.88 111.61 150.21 110.52 149.74 109.64 L 149.26 108.74 C 148.79 107.86 147.70 107.54 146.82 108.01 C 145.95 108.48 145.62 109.57 146.09 110.44 Z M 146.57 111.36 L 147.04 112.22 C 147.52 113.10 148.62 113.42 149.50 112.94 C 150.37 112.45 150.69 111.36 150.21 110.48 L 149.74 109.62 C 149.26 108.74 148.16 108.43 147.28 108.91 C 146.41 109.39 146.09 110.49 146.57 111.36 Z M 147.04 112.24 L 147.52 113.10 C 148.01 113.97 149.12 114.28 150.00 113.79 C 150.87 113.30 151.18 112.20 150.69 111.32 L 150.21 110.46 C 149.72 109.59 148.62 109.28 147.74 109.77 C 146.87 110.26 146.55 111.36 147.04 112.24 Z M 147.52 113.11 L 148.01 113.97 C 148.51 114.85 149.62 115.16 150.50 114.66 C 151.37 114.17 151.68 113.05 151.19 112.18 L 150.69 111.31 C 150.20 110.43 149.09 110.13 148.21 110.62 C 147.33 111.12 147.03 112.23 147.52 113.11 Z M 148.01 113.98 L 148.51 114.86 C 149.01 115.74 150.13 116.05 151.01 115.55 C 151.89 115.05 152.19 113.93 151.69 113.05 L 151.19 112.17 C 150.69 111.29 149.57 110.98 148.69 111.48 C 147.82 111.98 147.51 113.10 148.01 113.98 Z M 148.50 114.87 L 149.00 115.73 C 149.50 116.61 150.62 116.92 151.50 116.42 C 152.38 115.92 152.69 114.80 152.19 113.92 L 151.70 113.05 C 151.20 112.17 150.08 111.86 149.19 112.36 C 148.31 112.86 148.00 113.98 148.50 114.87 Z M 148.99 115.73 L 149.45 116.55 C 149.95 117.43 151.08 117.75 151.96 117.25 C 152.85 116.75 153.16 115.62 152.66 114.74 L 152.20 113.92 C 151.70 113.03 150.57 112.72 149.69 113.22 C 148.80 113.72 148.49 114.84 148.99 115.73 Z M 149.44 116.54 L 149.92 117.39 C 150.42 118.28 151.54 118.60 152.43 118.10 C 153.32 117.61 153.64 116.48 153.14 115.59 L 152.67 114.74 C 152.17 113.85 151.04 113.53 150.15 114.03 C 149.27 114.53 148.95 115.65 149.44 116.54 Z M 149.91 117.39 L 150.40 118.27 C 150.89 119.16 152.02 119.49 152.91 118.99 C 153.81 118.50 154.13 117.37 153.64 116.48 L 153.15 115.60 C 152.66 114.70 151.53 114.38 150.64 114.87 C 149.74 115.37 149.42 116.49 149.91 117.39 Z M 150.39 118.26 L 150.89 119.17 C 151.38 120.07 152.50 120.41 153.40 119.92 C 154.30 119.43 154.63 118.30 154.14 117.40 L 153.65 116.49 C 153.16 115.59 152.03 115.26 151.13 115.75 C 150.23 116.23 149.90 117.36 150.39 118.26 Z M 150.88 119.17 L 151.37 120.10 C 151.86 121.00 152.98 121.34 153.89 120.86 C 154.79 120.37 155.14 119.25 154.65 118.34 L 154.15 117.41 C 153.67 116.51 152.54 116.17 151.64 116.65 C 150.73 117.13 150.39 118.26 150.88 119.17 Z M 151.37 120.09 L 151.80 120.92 C 152.28 121.83 153.41 122.17 154.32 121.70 C 155.22 121.22 155.57 120.09 155.10 119.18 L 154.66 118.35 C 154.18 117.44 153.06 117.09 152.15 117.57 C 151.24 118.05 150.89 119.18 151.37 120.09 Z M 151.80 120.91 L 152.24 121.76 C 152.71 122.68 153.84 123.03 154.75 122.56 C 155.66 122.08 156.02 120.96 155.55 120.05 L 155.10 119.19 C 154.63 118.28 153.50 117.92 152.59 118.40 C 151.68 118.87 151.32 119.99 151.80 120.91 Z M 152.23 121.76 L 152.69 122.64 C 153.16 123.55 154.28 123.92 155.20 123.45 C 156.11 122.98 156.47 121.85 156.00 120.93 L 155.55 120.05 C 155.08 119.14 153.96 118.78 153.04 119.25 C 152.13 119.72 151.76 120.84 152.23 121.76 Z M 152.68 122.63 L 153.14 123.54 C 153.61 124.46 154.73 124.82 155.65 124.35 C 156.57 123.89 156.94 122.76 156.47 121.84 L 156.01 120.94 C 155.54 120.02 154.42 119.65 153.50 120.12 C 152.58 120.59 152.21 121.71 152.68 122.63 Z M 153.14 123.53 L 153.60 124.46 C 154.07 125.38 155.19 125.75 156.11 125.28 C 157.03 124.82 157.41 123.70 156.94 122.77 L 156.47 121.85 C 156.01 120.93 154.88 120.56 153.96 121.02 C 153.04 121.49 152.67 122.61 153.14 123.53 Z M 153.60 124.45 L 154.07 125.40 C 154.54 126.33 155.66 126.70 156.59 126.24 C 157.51 125.77 157.88 124.65 157.42 123.72 L 156.94 122.78 C 156.48 121.85 155.36 121.48 154.43 121.94 C 153.51 122.41 153.14 123.53 153.60 124.45 Z M 154.07 125.40 L 154.51 126.28 C 154.97 127.20 156.10 127.58 157.02 127.11 C 157.95 126.65 158.32 125.53 157.86 124.60 L 157.42 123.73 C 156.96 122.80 155.83 122.43 154.91 122.89 C 153.98 123.35 153.61 124.47 154.07 125.40 Z M 154.51 126.28 L 154.94 127.15 C 155.41 128.08 156.53 128.45 157.46 127.99 C 158.38 127.53 158.76 126.40 158.30 125.48 L 157.86 124.60 C 157.40 123.68 156.27 123.30 155.35 123.76 C 154.42 124.22 154.04 125.35 154.51 126.28 Z M 154.94 127.15 L 155.39 128.04 C 155.85 128.97 156.98 129.34 157.90 128.88 C 158.83 128.42 159.20 127.29 158.74 126.36 L 158.30 125.48 C 157.84 124.55 156.71 124.17 155.78 124.64 C 154.86 125.10 154.48 126.23 154.94 127.15 Z M 155.39 128.04 L 155.83 128.94 C 156.30 129.87 157.43 130.24 158.35 129.78 C 159.28 129.31 159.66 128.18 159.19 127.26 L 158.74 126.36 C 158.28 125.43 157.15 125.06 156.22 125.52 C 155.30 125.99 154.92 127.12 155.39 128.04 Z M 155.84 128.94 L 156.29 129.85 C 156.76 130.77 157.89 131.15 158.81 130.68 C 159.74 130.21 160.11 129.08 159.65 128.15 L 159.19 127.25 C 158.72 126.33 157.59 125.95 156.67 126.42 C 155.74 126.89 155.37 128.02 155.84 128.94 Z M 156.29 129.85 L 156.75 130.76 C 157.22 131.69 158.36 132.06 159.28 131.58 C 160.21 131.11 160.58 129.98 160.11 129.06 L 159.64 128.15 C 159.17 127.22 158.04 126.85 157.12 127.32 C 156.19 127.80 155.82 128.93 156.29 129.85 Z M 156.76 130.77 L 157.22 131.68 C 157.70 132.60 158.83 132.97 159.76 132.49 C 160.68 132.02 161.05 130.88 160.57 129.96 L 160.10 129.05 C 159.63 128.12 158.49 127.76 157.57 128.23 C 156.65 128.71 156.28 129.84 156.76 130.77 Z M 157.23 131.69 L 157.68 132.57 C 158.16 133.49 159.30 133.85 160.22 133.37 C 161.15 132.89 161.51 131.75 161.03 130.83 L 160.57 129.95 C 160.09 129.03 158.95 128.67 158.03 129.15 C 157.11 129.63 156.75 130.77 157.23 131.69 Z M 157.69 132.58 L 158.15 133.45 C 158.63 134.37 159.77 134.73 160.69 134.24 C 161.61 133.76 161.97 132.62 161.48 131.70 L 161.02 130.82 C 160.54 129.90 159.40 129.55 158.48 130.03 C 157.56 130.52 157.20 131.66 157.69 132.58 Z M 158.15 133.46 L 158.62 134.34 C 159.11 135.26 160.25 135.60 161.17 135.12 C 162.09 134.63 162.43 133.49 161.95 132.57 L 161.48 131.69 C 160.99 130.77 159.85 130.42 158.93 130.91 C 158.01 131.40 157.66 132.54 158.15 133.46 Z M 158.62 134.34 L 159.09 135.22 C 159.59 136.14 160.73 136.48 161.65 135.99 C 162.56 135.50 162.91 134.35 162.42 133.44 L 161.94 132.56 C 161.45 131.64 160.31 131.30 159.39 131.79 C 158.47 132.28 158.13 133.43 158.62 134.34 Z M 159.10 135.23 L 159.57 136.11 C 160.07 137.03 161.22 137.37 162.13 136.87 C 163.05 136.37 163.39 135.23 162.89 134.31 L 162.41 133.43 C 161.92 132.51 160.77 132.18 159.86 132.67 C 158.94 133.17 158.60 134.31 159.10 135.23 Z M 159.58 136.12 L 160.06 137.00 C 160.56 137.92 161.71 138.25 162.62 137.75 C 163.54 137.25 163.87 136.10 163.37 135.19 L 162.89 134.31 C 162.39 133.39 161.24 133.06 160.33 133.56 C 159.41 134.06 159.08 135.20 159.58 136.12 Z M 160.06 137.01 L 160.55 137.89 C 161.06 138.81 162.20 139.14 163.12 138.64 C 164.03 138.13 164.36 136.98 163.86 136.07 L 163.37 135.18 C 162.87 134.27 161.72 133.94 160.80 134.44 C 159.89 134.95 159.56 136.09 160.06 137.01 Z M 160.55 137.90 L 161.05 138.78 C 161.55 139.70 162.70 140.02 163.61 139.52 C 164.53 139.01 164.85 137.86 164.35 136.95 L 163.86 136.07 C 163.35 135.15 162.20 134.83 161.29 135.33 C 160.38 135.84 160.05 136.99 160.55 137.90 Z M 161.05 138.79 L 161.54 139.67 C 162.05 140.58 163.20 140.90 164.11 140.40 C 165.02 139.89 165.35 138.74 164.84 137.83 L 164.35 136.95 C 163.84 136.03 162.69 135.71 161.78 136.22 C 160.86 136.73 160.54 137.88 161.05 138.79 Z M 161.54 139.67 L 162.03 140.55 C 162.54 141.46 163.69 141.79 164.60 141.28 C 165.51 140.77 165.84 139.62 165.33 138.70 L 164.84 137.82 C 164.33 136.91 163.18 136.59 162.26 137.10 C 161.35 137.61 161.03 138.76 161.54 139.67 Z M 162.03 140.55 L 162.52 141.43 C 163.03 142.34 164.18 142.67 165.10 142.16 C 166.01 141.65 166.33 140.50 165.82 139.58 L 165.33 138.70 C 164.82 137.79 163.67 137.47 162.76 137.98 C 161.85 138.49 161.52 139.64 162.03 140.55 Z M 162.52 141.43 L 163.01 142.31 C 163.52 143.22 164.67 143.55 165.58 143.04 C 166.50 142.53 166.82 141.38 166.31 140.46 L 165.83 139.59 C 165.32 138.67 164.16 138.35 163.25 138.85 C 162.34 139.36 162.01 140.52 162.52 141.43 Z M 163.01 142.30 L 163.49 143.18 C 164.00 144.09 165.15 144.42 166.06 143.91 C 166.98 143.41 167.31 142.26 166.80 141.34 L 166.32 140.47 C 165.81 139.55 164.66 139.22 163.74 139.73 C 162.83 140.24 162.50 141.39 163.01 142.30 Z M 163.48 143.17 L 163.96 144.04 C 164.46 144.95 165.62 145.29 166.53 144.79 C 167.45 144.28 167.79 143.13 167.28 142.21 L 166.81 141.35 C 166.30 140.43 165.15 140.09 164.23 140.60 C 163.32 141.10 162.98 142.25 163.48 143.17 Z M 163.95 144.03 L 164.42 144.89 C 164.92 145.81 166.07 146.16 166.99 145.66 C 167.91 145.16 168.25 144.01 167.76 143.09 L 167.29 142.22 C 166.79 141.30 165.64 140.96 164.72 141.46 C 163.80 141.96 163.46 143.11 163.95 144.03 Z M 164.42 144.88 L 164.90 145.78 C 165.39 146.71 166.54 147.06 167.46 146.56 C 168.39 146.07 168.74 144.92 168.24 144.00 L 167.76 143.10 C 167.27 142.17 166.12 141.82 165.20 142.32 C 164.27 142.81 163.92 143.96 164.42 144.88 Z M 164.89 145.77 L 165.36 146.66 C 165.84 147.59 166.99 147.95 167.92 147.46 C 168.85 146.98 169.20 145.83 168.72 144.90 L 168.25 144.01 C 167.76 143.08 166.62 142.72 165.69 143.21 C 164.76 143.70 164.40 144.84 164.89 145.77 Z M 165.35 146.65 L 165.81 147.54 C 166.29 148.47 167.43 148.84 168.36 148.36 C 169.29 147.88 169.66 146.73 169.18 145.80 L 168.72 144.91 C 168.24 143.98 167.10 143.61 166.17 144.09 C 165.24 144.57 164.87 145.72 165.35 146.65 Z M 165.80 147.52 L 166.25 148.41 C 166.72 149.35 167.86 149.72 168.80 149.25 C 169.73 148.78 170.11 147.63 169.63 146.70 L 169.19 145.81 C 168.71 144.88 167.57 144.50 166.64 144.97 C 165.70 145.45 165.33 146.59 165.80 147.52 Z M 166.24 148.40 L 166.68 149.29 C 167.15 150.22 168.28 150.61 169.22 150.14 C 170.16 149.68 170.55 148.54 170.08 147.60 L 169.64 146.71 C 169.18 145.77 168.04 145.39 167.10 145.85 C 166.16 146.32 165.77 147.46 166.24 148.40 Z M 166.67 149.27 L 167.11 150.16 C 167.57 151.11 168.70 151.50 169.64 151.04 C 170.59 150.58 170.98 149.45 170.52 148.50 L 170.09 147.61 C 169.63 146.67 168.49 146.28 167.55 146.73 C 166.61 147.19 166.21 148.33 166.67 149.27 Z M 167.10 150.15 L 167.53 151.05 C 167.98 152.00 169.11 152.40 170.06 151.95 C 171.01 151.50 171.41 150.36 170.96 149.42 L 170.53 148.52 C 170.08 147.57 168.94 147.17 168.00 147.62 C 167.05 148.07 166.65 149.21 167.10 150.15 Z M 167.52 151.04 L 167.94 151.94 C 168.39 152.89 169.52 153.30 170.47 152.85 C 171.42 152.41 171.83 151.28 171.38 150.33 L 170.96 149.43 C 170.52 148.48 169.39 148.07 168.44 148.51 C 167.49 148.96 167.08 150.09 167.52 151.04 Z M 167.94 151.93 L 168.36 152.83 C 168.79 153.79 169.92 154.20 170.88 153.76 C 171.83 153.32 172.25 152.20 171.81 151.24 L 171.39 150.34 C 170.95 149.38 169.82 148.97 168.87 149.41 C 167.92 149.84 167.50 150.97 167.94 151.93 Z M 168.35 152.82 L 168.77 153.73 C 169.20 154.69 170.32 155.11 171.28 154.68 C 172.23 154.25 172.66 153.12 172.22 152.17 L 171.81 151.25 C 171.38 150.30 170.25 149.87 169.30 150.31 C 168.34 150.74 167.92 151.87 168.35 152.82 Z M 168.76 153.73 L 169.17 154.64 C 169.60 155.60 170.72 156.03 171.68 155.60 C 172.64 155.17 173.07 154.05 172.64 153.09 L 172.23 152.17 C 171.80 151.22 170.68 150.79 169.72 151.22 C 168.76 151.65 168.33 152.77 168.76 153.73 Z M 169.17 154.63 L 169.58 155.55 C 170.00 156.51 171.12 156.95 172.08 156.52 C 173.04 156.10 173.47 154.98 173.05 154.02 L 172.64 153.10 C 172.22 152.14 171.10 151.71 170.14 152.13 C 169.18 152.55 168.74 153.68 169.17 154.63 Z M 169.57 155.55 L 169.97 156.46 C 170.40 157.43 171.51 157.86 172.47 157.44 C 173.44 157.02 173.87 155.90 173.45 154.94 L 173.05 154.02 C 172.63 153.06 171.51 152.63 170.55 153.05 C 169.59 153.47 169.15 154.59 169.57 155.55 Z M 169.97 156.46 L 170.37 157.38 C 170.79 158.34 171.91 158.78 172.87 158.36 C 173.83 157.94 174.27 156.83 173.85 155.86 L 173.45 154.95 C 173.04 153.99 171.92 153.55 170.96 153.96 C 170.00 154.38 169.56 155.50 169.97 156.46 Z M 170.37 157.37 L 170.78 158.32 C 171.19 159.28 172.31 159.72 173.27 159.31 C 174.23 158.89 174.68 157.78 174.26 156.82 L 173.85 155.87 C 173.44 154.91 172.32 154.46 171.36 154.88 C 170.40 155.29 169.95 156.41 170.37 157.37 Z M 170.78 158.31 L 171.18 159.25 C 171.59 160.22 172.71 160.66 173.67 160.25 C 174.63 159.84 175.08 158.72 174.67 157.76 L 174.26 156.82 C 173.85 155.86 172.73 155.41 171.77 155.82 C 170.81 156.24 170.36 157.35 170.78 158.31 Z M 171.18 159.25 L 171.58 160.18 C 171.99 161.15 173.10 161.59 174.07 161.18 C 175.03 160.77 175.48 159.66 175.06 158.69 L 174.67 157.76 C 174.25 156.80 173.14 156.35 172.18 156.76 C 171.21 157.18 170.77 158.29 171.18 159.25 Z M 171.58 160.18 L 171.97 161.11 C 172.38 162.07 173.50 162.52 174.46 162.10 C 175.42 161.69 175.87 160.58 175.46 159.62 L 175.06 158.69 C 174.65 157.73 173.54 157.28 172.58 157.70 C 171.61 158.11 171.17 159.22 171.58 160.18 Z M 171.97 161.11 L 172.36 162.02 C 172.78 162.98 173.89 163.42 174.85 163.01 C 175.81 162.60 176.26 161.49 175.85 160.52 L 175.46 159.61 C 175.04 158.65 173.93 158.21 172.97 158.62 C 172.01 159.03 171.56 160.15 171.97 161.11 Z M 172.37 162.02 L 172.75 162.92 C 173.17 163.88 174.28 164.32 175.24 163.91 C 176.20 163.49 176.65 162.38 176.23 161.42 L 175.84 160.52 C 175.43 159.56 174.32 159.12 173.35 159.53 C 172.39 159.95 171.95 161.06 172.37 162.02 Z M 172.76 162.92 L 173.14 163.81 C 173.56 164.77 174.68 165.21 175.63 164.79 C 176.59 164.37 177.03 163.26 176.62 162.30 L 176.23 161.41 C 175.81 160.45 174.69 160.01 173.74 160.43 C 172.78 160.85 172.34 161.96 172.76 162.92 Z M 173.15 163.82 L 173.56 164.76 C 173.98 165.72 175.10 166.15 176.06 165.73 C 177.01 165.31 177.45 164.19 177.03 163.23 L 176.61 162.29 C 176.19 161.34 175.07 160.90 174.12 161.32 C 173.16 161.74 172.73 162.86 173.15 163.82 Z M 173.57 164.76 L 173.98 165.69 C 174.40 166.64 175.52 167.07 176.47 166.65 C 177.43 166.22 177.86 165.11 177.43 164.15 L 177.02 163.23 C 176.60 162.27 175.48 161.84 174.52 162.27 C 173.57 162.69 173.14 163.81 173.57 164.76 Z M 173.98 165.69 L 174.39 166.60 C 174.82 167.56 175.93 167.98 176.89 167.56 C 177.84 167.13 178.26 166.01 177.84 165.06 L 177.43 164.15 C 177.00 163.20 175.88 162.77 174.93 163.20 C 173.98 163.62 173.55 164.74 173.98 165.69 Z M 174.39 166.61 L 174.80 167.51 C 175.23 168.46 176.34 168.88 177.30 168.45 C 178.25 168.03 178.67 166.91 178.24 165.96 L 177.83 165.06 C 177.41 164.11 176.29 163.68 175.34 164.11 C 174.39 164.54 173.96 165.66 174.39 166.61 Z M 174.80 167.51 L 175.21 168.41 C 175.64 169.36 176.75 169.78 177.70 169.35 C 178.65 168.92 179.07 167.80 178.64 166.85 L 178.24 165.96 C 177.81 165.01 176.69 164.59 175.74 165.02 C 174.79 165.44 174.37 166.56 174.80 167.51 Z M 175.21 168.41 L 175.61 169.30 C 176.04 170.25 177.16 170.67 178.11 170.25 C 179.05 169.82 179.48 168.70 179.05 167.75 L 178.64 166.86 C 178.21 165.91 177.10 165.49 176.15 165.91 C 175.20 166.34 174.78 167.46 175.21 168.41 Z M 175.61 169.30 L 176.01 170.19 C 176.44 171.14 177.55 171.56 178.50 171.13 C 179.45 170.70 179.87 169.59 179.45 168.64 L 179.05 167.75 C 178.62 166.81 177.50 166.38 176.56 166.81 C 175.61 167.24 175.19 168.35 175.61 169.30 Z M 176.01 170.18 L 176.41 171.08 C 176.84 172.02 177.95 172.45 178.90 172.02 C 179.85 171.60 180.27 170.49 179.85 169.54 L 179.45 168.65 C 179.02 167.70 177.91 167.27 176.96 167.70 C 176.01 168.12 175.59 169.24 176.01 170.18 Z M 176.41 171.07 L 176.81 171.97 C 177.24 172.92 178.35 173.35 179.29 172.92 C 180.24 172.50 180.67 171.39 180.25 170.44 L 179.85 169.54 C 179.42 168.59 178.31 168.17 177.37 168.59 C 176.42 169.01 175.99 170.12 176.41 171.07 Z M 176.81 171.96 L 177.22 172.88 C 177.63 173.83 178.74 174.26 179.69 173.84 C 180.64 173.42 181.07 172.31 180.65 171.36 L 180.25 170.45 C 179.83 169.50 178.72 169.07 177.77 169.49 C 176.82 169.91 176.39 171.02 176.81 171.96 Z M 177.21 172.87 L 177.62 173.80 C 178.03 174.75 179.14 175.18 180.09 174.77 C 181.04 174.35 181.47 173.25 181.06 172.30 L 180.65 171.37 C 180.24 170.42 179.13 169.99 178.18 170.40 C 177.23 170.82 176.80 171.92 177.21 172.87 Z M 177.62 173.79 L 178.03 174.74 C 178.44 175.69 179.54 176.12 180.49 175.71 C 181.44 175.30 181.88 174.20 181.47 173.25 L 181.06 172.31 C 180.65 171.36 179.55 170.92 178.60 171.33 C 177.65 171.74 177.21 172.84 177.62 173.79 Z M 178.02 174.73 L 178.42 175.66 C 178.83 176.62 179.93 177.06 180.88 176.65 C 181.83 176.25 182.27 175.15 181.87 174.20 L 181.47 173.26 C 181.06 172.31 179.96 171.87 179.01 172.27 C 178.06 172.68 177.62 173.78 178.02 174.73 Z M 178.42 175.66 L 178.81 176.58 C 179.21 177.53 180.31 177.98 181.26 177.58 C 182.21 177.18 182.66 176.08 182.26 175.13 L 181.87 174.21 C 181.47 173.25 180.37 172.81 179.42 173.21 C 178.47 173.61 178.02 174.70 178.42 175.66 Z M 178.81 176.58 L 179.20 177.51 C 179.60 178.46 180.69 178.91 181.64 178.52 C 182.60 178.12 183.05 177.03 182.65 176.07 L 182.26 175.14 C 181.86 174.19 180.77 173.74 179.82 174.13 C 178.86 174.53 178.41 175.62 178.81 176.58 Z M 179.20 177.51 L 179.59 178.44 C 179.99 179.40 181.08 179.85 182.03 179.45 C 182.98 179.06 183.43 177.97 183.04 177.01 L 182.65 176.08 C 182.25 175.13 181.16 174.67 180.21 175.07 C 179.26 175.46 178.81 176.56 179.20 177.51 Z M 179.59 178.44 L 179.98 179.37 C 180.37 180.33 181.46 180.78 182.41 180.38 C 183.36 179.99 183.82 178.90 183.42 177.95 L 183.04 177.02 C 182.64 176.07 181.55 175.61 180.60 176.01 C 179.65 176.40 179.20 177.49 179.59 178.44 Z M 179.98 179.37 L 180.36 180.30 C 180.76 181.24 181.85 181.70 182.79 181.30 C 183.74 180.91 184.19 179.82 183.80 178.87 L 183.42 177.95 C 183.03 177.00 181.94 176.55 180.99 176.94 C 180.04 177.34 179.59 178.43 179.98 179.37 Z M 180.37 180.30 L 180.74 181.20 C 181.14 182.15 182.22 182.59 183.17 182.20 C 184.12 181.80 184.57 180.72 184.17 179.77 L 183.80 178.87 C 183.40 177.92 182.31 177.47 181.37 177.87 C 180.42 178.26 179.97 179.35 180.37 180.30 Z M 180.75 181.20 L 181.15 182.17 C 181.55 183.11 182.64 183.56 183.58 183.16 C 184.53 182.76 184.97 181.67 184.58 180.73 L 184.17 179.76 C 183.77 178.82 182.68 178.37 181.74 178.77 C 180.79 179.17 180.35 180.26 180.75 181.20 Z M 181.16 182.18 L 181.57 183.14 C 181.97 184.09 183.06 184.52 184.00 184.12 C 184.95 183.72 185.38 182.63 184.98 181.69 L 184.57 180.72 C 184.17 179.78 183.08 179.34 182.14 179.74 C 181.19 180.15 180.76 181.24 181.16 182.18 Z M 181.58 183.16 L 181.98 184.09 C 182.39 185.03 183.48 185.45 184.42 185.05 C 185.36 184.64 185.79 183.55 185.38 182.61 L 184.97 181.67 C 184.57 180.74 183.47 180.31 182.54 180.72 C 181.60 181.13 181.17 182.22 181.58 183.16 Z M 181.99 184.10 L 182.40 185.00 C 182.81 185.94 183.91 186.36 184.84 185.94 C 185.77 185.52 186.19 184.43 185.77 183.49 L 185.37 182.59 C 184.95 181.66 183.86 181.24 182.93 181.66 C 181.99 182.08 181.58 183.17 181.99 184.10 Z M 182.41 185.03 L 182.81 185.90 C 183.24 186.82 184.34 187.23 185.27 186.80 C 186.19 186.37 186.60 185.27 186.17 184.34 L 185.76 183.47 C 185.33 182.55 184.24 182.14 183.31 182.57 C 182.38 183.00 181.98 184.10 182.41 185.03 Z M 182.83 185.92 L 183.23 186.77 C 183.67 187.69 184.78 188.07 185.70 187.63 C 186.62 187.19 187.00 186.08 186.56 185.17 L 186.15 184.32 C 185.71 183.40 184.61 183.02 183.69 183.46 C 182.77 183.90 182.38 185.00 182.83 185.92 Z M 183.25 186.80 L 183.71 187.71 C 184.17 188.62 185.28 188.99 186.19 188.53 C 187.10 188.07 187.46 186.96 187.01 186.05 L 186.54 185.14 C 186.08 184.23 184.97 183.86 184.07 184.32 C 183.16 184.78 182.79 185.89 183.25 186.80 Z M 183.73 187.75 L 184.21 188.65 C 184.69 189.55 185.80 189.90 186.70 189.42 C 187.60 188.94 187.94 187.83 187.47 186.93 L 186.99 186.02 C 186.51 185.12 185.40 184.78 184.50 185.26 C 183.60 185.73 183.26 186.85 183.73 187.75 Z M 184.23 188.69 L 184.72 189.56 C 185.21 190.45 186.33 190.77 187.22 190.28 C 188.11 189.78 188.43 188.67 187.94 187.78 L 187.45 186.90 C 186.95 186.01 185.83 185.69 184.95 186.19 C 184.06 186.68 183.74 187.80 184.23 188.69 Z M 184.74 189.59 L 185.24 190.44 C 185.74 191.32 186.87 191.62 187.74 191.11 C 188.62 190.60 188.92 189.47 188.41 188.60 L 187.92 187.75 C 187.41 186.87 186.28 186.57 185.41 187.08 C 184.53 187.59 184.23 188.72 184.74 189.59 Z M 185.25 190.47 L 185.75 191.29 C 186.28 192.16 187.40 192.43 188.27 191.91 C 189.14 191.39 189.41 190.26 188.89 189.39 L 188.39 188.57 C 187.86 187.71 186.74 187.43 185.87 187.95 C 185.01 188.48 184.73 189.60 185.25 190.47 Z M 185.77 191.32 L 186.31 192.17 C 186.85 193.02 187.98 193.28 188.83 192.74 C 189.69 192.20 189.94 191.07 189.40 190.22 L 188.87 189.37 C 188.33 188.51 187.20 188.26 186.34 188.80 C 185.49 189.33 185.23 190.46 185.77 191.32 Z M 186.33 192.19 L 186.88 193.04 C 187.43 193.89 188.57 194.12 189.41 193.57 C 190.25 193.02 190.49 191.89 189.94 191.05 L 189.39 190.20 C 188.83 189.35 187.70 189.11 186.86 189.66 C 186.01 190.22 185.78 191.35 186.33 192.19 Z M 186.90 193.06 L 187.45 193.89 C 188.01 194.72 189.14 194.95 189.98 194.39 C 190.81 193.83 191.04 192.70 190.48 191.87 L 189.93 191.03 C 189.37 190.20 188.24 189.97 187.40 190.53 C 186.57 191.09 186.34 192.22 186.90 193.06 Z M 187.46 193.89 L 188.01 194.71 C 188.57 195.54 189.70 195.76 190.53 195.20 C 191.36 194.64 191.58 193.51 191.02 192.68 L 190.48 191.86 C 189.92 191.03 188.79 190.81 187.95 191.37 C 187.12 191.93 186.90 193.06 187.46 193.89 Z M 188.01 194.70 L 188.55 195.51 C 189.11 196.34 190.23 196.57 191.07 196.01 C 191.90 195.46 192.12 194.33 191.57 193.50 L 191.02 192.69 C 190.47 191.85 189.34 191.63 188.51 192.19 C 187.68 192.74 187.45 193.87 188.01 194.70 Z M 188.55 195.50 L 189.10 196.34 C 189.64 197.17 190.76 197.40 191.60 196.86 C 192.44 196.31 192.67 195.19 192.12 194.35 L 191.57 193.51 C 191.02 192.68 189.90 192.44 189.07 192.99 C 188.23 193.54 188.00 194.66 188.55 195.50 Z M 189.09 196.32 L 189.63 197.16 C 190.16 198.00 191.28 198.24 192.12 197.71 C 192.96 197.17 193.20 196.05 192.67 195.21 L 192.13 194.37 C 191.59 193.53 190.48 193.29 189.64 193.82 C 188.80 194.36 188.55 195.48 189.09 196.32 Z M 189.62 197.14 L 190.15 197.98 C 190.67 198.83 191.78 199.09 192.63 198.56 C 193.47 198.04 193.73 196.93 193.20 196.08 L 192.68 195.23 C 192.15 194.39 191.04 194.13 190.20 194.66 C 189.35 195.18 189.09 196.29 189.62 197.14 Z M 190.14 197.96 L 190.65 198.82 C 191.17 199.66 192.27 199.94 193.12 199.42 C 193.97 198.91 194.24 197.81 193.73 196.96 L 193.21 196.10 C 192.70 195.26 191.60 194.98 190.75 195.50 C 189.90 196.01 189.63 197.11 190.14 197.96 Z M 190.64 198.79 L 191.15 199.65 C 191.64 200.50 192.74 200.79 193.59 200.29 C 194.45 199.79 194.74 198.69 194.24 197.84 L 193.74 196.98 C 193.24 196.13 192.14 195.84 191.29 196.34 C 190.43 196.84 190.15 197.94 190.64 198.79 Z M 191.14 199.62 L 191.62 200.48 C 192.11 201.34 193.20 201.64 194.06 201.16 C 194.92 200.67 195.22 199.58 194.73 198.72 L 194.25 197.86 C 193.76 197.01 192.67 196.70 191.81 197.19 C 190.95 197.68 190.65 198.77 191.14 199.62 Z M 191.62 200.46 L 192.10 201.34 C 192.57 202.20 193.66 202.51 194.52 202.04 C 195.38 201.56 195.69 200.48 195.22 199.62 L 194.74 198.74 C 194.26 197.88 193.18 197.57 192.32 198.04 C 191.46 198.52 191.14 199.60 191.62 200.46 Z M 192.09 201.32 L 192.57 202.21 C 193.04 203.07 194.12 203.39 194.98 202.93 C 195.84 202.46 196.17 201.38 195.70 200.52 L 195.22 199.63 C 194.76 198.77 193.68 198.44 192.81 198.91 C 191.95 199.38 191.63 200.46 192.09 201.32 Z M 192.57 202.19 L 193.05 203.09 C 193.51 203.96 194.58 204.29 195.44 203.83 C 196.31 203.37 196.64 202.29 196.18 201.43 L 195.70 200.53 C 195.24 199.66 194.17 199.33 193.30 199.79 C 192.44 200.25 192.11 201.33 192.57 202.19 Z M 193.05 203.08 L 193.52 203.99 C 193.98 204.85 195.05 205.18 195.91 204.73 C 196.77 204.27 197.11 203.21 196.65 202.34 L 196.18 201.44 C 195.72 200.57 194.65 200.24 193.79 200.69 C 192.93 201.15 192.59 202.22 193.05 203.08 Z M 193.53 203.98 L 194.00 204.88 C 194.45 205.74 195.51 206.08 196.37 205.63 C 197.23 205.18 197.57 204.12 197.12 203.26 L 196.65 202.35 C 196.20 201.49 195.14 201.15 194.27 201.60 C 193.41 202.05 193.08 203.11 193.53 203.98 Z M 194.00 204.87 L 194.47 205.77 C 194.91 206.63 195.97 206.97 196.83 206.52 C 197.69 206.08 198.02 205.02 197.58 204.16 L 197.11 203.27 C 196.67 202.41 195.61 202.07 194.76 202.51 C 193.90 202.96 193.56 204.02 194.00 204.87 Z M 194.47 205.76 L 194.92 206.64 C 195.36 207.49 196.41 207.83 197.27 207.39 C 198.12 206.95 198.46 205.90 198.02 205.05 L 197.57 204.17 C 197.13 203.31 196.08 202.98 195.23 203.42 C 194.37 203.86 194.03 204.91 194.47 205.76 Z M 194.93 206.63 L 195.38 207.52 C 195.82 208.37 196.86 208.71 197.71 208.27 C 198.57 207.84 198.90 206.79 198.47 205.94 L 198.02 205.05 C 197.58 204.20 196.54 203.86 195.68 204.30 C 194.83 204.73 194.49 205.78 194.93 206.63 Z M 195.39 207.51 L 195.87 208.45 C 196.30 209.30 197.33 209.64 198.18 209.20 C 199.03 208.77 199.37 207.74 198.94 206.89 L 198.46 205.95 C 198.03 205.10 196.99 204.76 196.14 205.19 C 195.30 205.62 194.96 206.66 195.39 207.51 Z M 195.87 208.44 L 196.33 209.34 C 196.76 210.18 197.79 210.52 198.63 210.09 C 199.47 209.66 199.81 208.63 199.38 207.78 L 198.93 206.89 C 198.50 206.05 197.47 205.71 196.63 206.14 C 195.78 206.57 195.45 207.60 195.87 208.44 Z M 196.34 209.33 L 196.77 210.19 C 197.20 211.02 198.23 211.36 199.07 210.93 C 199.90 210.50 200.24 209.48 199.81 208.64 L 199.37 207.78 C 198.94 206.95 197.92 206.61 197.08 207.04 C 196.24 207.47 195.91 208.50 196.34 209.33 Z M 196.79 210.19 L 197.24 211.06 C 197.67 211.89 198.69 212.22 199.52 211.79 C 200.35 211.36 200.67 210.34 200.24 209.50 L 199.79 208.63 C 199.36 207.80 198.34 207.48 197.51 207.91 C 196.68 208.34 196.36 209.36 196.79 210.19 Z M 197.26 211.07 L 197.74 211.98 C 198.17 212.80 199.19 213.11 200.01 212.68 C 200.83 212.24 201.14 211.23 200.71 210.41 L 200.23 209.50 C 199.79 208.68 198.77 208.36 197.95 208.80 C 197.13 209.23 196.82 210.25 197.26 211.07 Z M 197.76 212.00 L 198.24 212.87 C 198.68 213.67 199.69 213.97 200.50 213.53 C 201.31 213.08 201.61 212.07 201.16 211.26 L 200.69 210.39 C 200.24 209.58 199.23 209.29 198.42 209.73 C 197.61 210.17 197.32 211.19 197.76 212.00 Z M 198.26 212.89 L 198.74 213.72 C 199.19 214.51 200.21 214.78 201.00 214.33 C 201.79 213.87 202.07 212.86 201.61 212.07 L 201.14 211.24 C 200.68 210.45 199.67 210.17 198.88 210.63 C 198.08 211.08 197.81 212.10 198.26 212.89 Z M 198.77 213.75 L 199.32 214.64 C 199.79 215.41 200.80 215.66 201.57 215.19 C 202.35 214.71 202.59 213.70 202.12 212.93 L 201.58 212.04 C 201.11 211.26 200.10 211.02 199.32 211.49 C 198.55 211.96 198.30 212.97 198.77 213.75 Z M 199.35 214.66 L 199.89 215.50 C 200.38 216.26 201.38 216.48 202.14 215.99 C 202.90 215.50 203.11 214.50 202.63 213.74 L 202.09 212.90 C 201.60 212.15 200.59 211.93 199.84 212.41 C 199.08 212.90 198.86 213.91 199.35 214.66 Z M 199.92 215.52 L 200.46 216.32 C 200.95 217.06 201.95 217.25 202.69 216.76 C 203.43 216.26 203.63 215.26 203.13 214.52 L 202.60 213.72 C 202.10 212.98 201.10 212.79 200.36 213.28 C 199.62 213.78 199.42 214.78 199.92 215.52 Z M 200.48 216.33 L 201.06 217.17 C 201.56 217.90 202.56 218.08 203.29 217.58 C 204.01 217.08 204.19 216.08 203.69 215.35 L 203.11 214.51 C 202.61 213.78 201.61 213.60 200.89 214.10 C 200.16 214.61 199.98 215.60 200.48 216.33 Z M 201.08 217.17 L 201.65 217.98 C 202.15 218.70 203.14 218.88 203.85 218.38 C 204.57 217.87 204.75 216.89 204.25 216.17 L 203.68 215.35 C 203.17 214.64 202.19 214.46 201.47 214.96 C 200.75 215.47 200.58 216.45 201.08 217.17 Z M 201.65 217.97 L 202.21 218.77 C 202.71 219.49 203.68 219.67 204.40 219.17 C 205.11 218.68 205.29 217.70 204.79 216.99 L 204.24 216.18 C 203.74 215.47 202.76 215.29 202.05 215.78 C 201.34 216.28 201.16 217.26 201.65 217.97 Z M 202.21 218.75 L 202.76 219.57 C 203.25 220.28 204.21 220.47 204.93 219.99 C 205.64 219.51 205.83 218.54 205.35 217.83 L 204.79 217.01 C 204.31 216.30 203.35 216.11 202.63 216.59 C 201.92 217.07 201.73 218.04 202.21 218.75 Z M 202.76 219.54 L 203.31 220.38 C 203.77 221.10 204.73 221.30 205.44 220.84 C 206.16 220.37 206.36 219.42 205.90 218.71 L 205.35 217.86 C 204.89 217.15 203.93 216.94 203.22 217.41 C 202.50 217.87 202.30 218.82 202.76 219.54 Z M 203.30 220.35 L 203.84 221.21 C 204.28 221.92 205.22 222.14 205.94 221.70 C 206.66 221.25 206.88 220.31 206.43 219.60 L 205.90 218.74 C 205.46 218.02 204.52 217.80 203.80 218.25 C 203.08 218.69 202.86 219.63 203.30 220.35 Z M 203.83 221.18 L 204.35 222.05 C 204.78 222.76 205.71 223.00 206.43 222.57 C 207.15 222.14 207.38 221.21 206.95 220.49 L 206.43 219.62 C 206.00 218.91 205.07 218.67 204.36 219.10 C 203.64 219.53 203.40 220.46 203.83 221.18 Z M 204.35 222.02 L 204.85 222.88 C 205.27 223.60 206.19 223.84 206.91 223.42 C 207.62 223.01 207.87 222.09 207.45 221.37 L 206.95 220.51 C 206.54 219.80 205.62 219.55 204.90 219.97 C 204.18 220.39 203.94 221.31 204.35 222.02 Z M 204.85 222.86 L 205.36 223.76 C 205.77 224.47 206.68 224.72 207.39 224.32 C 208.11 223.91 208.36 223.00 207.96 222.28 L 207.45 221.39 C 207.04 220.67 206.13 220.42 205.42 220.83 C 204.70 221.23 204.45 222.14 204.85 222.86 Z M 205.36 223.73 L 205.83 224.59 C 206.22 225.31 207.12 225.58 207.84 225.18 C 208.56 224.79 208.83 223.89 208.43 223.17 L 207.96 222.31 C 207.57 221.59 206.66 221.32 205.94 221.72 C 205.23 222.11 204.96 223.01 205.36 223.73 Z M 205.82 224.57 L 206.28 225.45 C 206.66 226.17 207.56 226.45 208.28 226.07 C 209.00 225.69 209.28 224.79 208.90 224.07 L 208.44 223.19 C 208.06 222.47 207.16 222.19 206.44 222.57 C 205.72 222.95 205.44 223.85 205.82 224.57 Z M 206.27 225.42 L 206.73 226.32 C 207.10 227.04 207.98 227.34 208.71 226.97 C 209.44 226.60 209.73 225.71 209.36 224.99 L 208.91 224.09 C 208.54 223.36 207.65 223.07 206.92 223.44 C 206.20 223.81 205.91 224.70 206.27 225.42 Z M 206.72 226.30 L 207.17 227.20 C 207.52 227.93 208.41 228.23 209.14 227.87 C 209.86 227.51 210.16 226.63 209.81 225.90 L 209.36 225.00 C 209.00 224.27 208.12 223.97 207.39 224.33 C 206.66 224.69 206.36 225.57 206.72 226.30 Z M 207.17 227.19 L 207.61 228.11 C 207.97 228.84 208.84 229.14 209.57 228.79 C 210.30 228.43 210.61 227.56 210.25 226.83 L 209.81 225.91 C 209.45 225.18 208.57 224.88 207.84 225.23 C 207.12 225.58 206.81 226.46 207.17 227.19 Z M 207.62 228.11 L 208.05 228.99 C 208.41 229.72 209.28 230.02 210.01 229.66 C 210.73 229.30 211.03 228.43 210.68 227.70 L 210.24 226.82 C 209.89 226.10 209.01 225.80 208.29 226.15 C 207.56 226.51 207.26 227.39 207.62 228.11 Z M 208.06 229.01 L 208.54 229.94 C 208.90 230.65 209.78 230.94 210.50 230.57 C 211.22 230.20 211.50 229.32 211.14 228.61 L 210.66 227.68 C 210.30 226.96 209.42 226.68 208.70 227.05 C 207.98 227.41 207.70 228.29 208.06 229.01 Z M 208.55 229.95 L 209.00 230.80 C 209.38 231.51 210.26 231.78 210.97 231.41 C 211.68 231.03 211.95 230.15 211.57 229.44 L 211.12 228.59 C 210.74 227.88 209.86 227.61 209.15 227.98 C 208.44 228.36 208.17 229.24 208.55 229.95 Z M 209.02 230.83 L 209.49 231.68 C 209.88 232.39 210.77 232.64 211.47 232.25 C 212.17 231.86 212.42 230.97 212.03 230.27 L 211.56 229.41 C 211.17 228.71 210.28 228.46 209.58 228.85 C 208.88 229.24 208.63 230.13 209.02 230.83 Z M 209.55 231.77 L 210.13 232.65 C 210.56 233.32 211.46 233.51 212.13 233.07 C 212.80 232.63 212.99 231.74 212.55 231.07 L 211.98 230.19 C 211.54 229.52 210.64 229.33 209.97 229.77 C 209.30 230.20 209.11 231.10 209.55 231.77 Z M 210.27 232.83 L 211.00 233.63 C 211.53 234.22 212.45 234.26 213.04 233.73 C 213.63 233.19 213.67 232.28 213.13 231.69 L 212.41 230.89 C 211.87 230.30 210.96 230.25 210.37 230.79 C 209.78 231.33 209.73 232.24 210.27 232.83 Z M 212.75 233.92 L 213.21 233.67 C 213.91 233.30 214.17 232.42 213.79 231.73 C 213.41 231.03 212.54 230.77 211.84 231.15 L 211.38 231.40 C 210.68 231.77 210.42 232.65 210.80 233.34 C 211.18 234.04 212.05 234.30 212.75 233.92 Z M 213.94 232.60 L 214.07 231.66 C 214.18 230.87 213.63 230.15 212.84 230.05 C 212.06 229.94 211.34 230.49 211.24 231.27 L 211.11 232.22 C 211.00 233.00 211.55 233.72 212.33 233.83 C 213.11 233.93 213.84 233.39 213.94 232.60 Z"
      fill="black"
      fill-rule="nonzero" /><path d="M 214.43 108.08 L 213.96 107.18 C 213.58 106.45 212.69 106.16 211.95 106.54 C 211.22 106.92 210.94 107.82 211.32 108.55 L 211.79 109.46 C 212.17 110.19 213.07 110.47 213.80 110.09 C 214.53 109.71 214.81 108.81 214.43 108.08 Z M 213.64 106.71 L 212.92 106.09 C 212.28 105.54 211.32 105.61 210.77 106.25 C 210.22 106.89 210.29 107.85 210.93 108.40 L 211.65 109.02 C 212.28 109.57 213.24 109.50 213.79 108.86 C 214.34 108.22 214.27 107.26 213.64 106.71 Z M 211.98 105.66 L 211.02 105.63 C 210.14 105.59 209.41 106.28 209.37 107.15 C 209.34 108.03 210.02 108.76 210.90 108.79 L 211.87 108.83 C 212.74 108.86 213.48 108.18 213.51 107.31 C 213.54 106.43 212.86 105.70 211.98 105.66 Z M 209.96 105.90 L 209.21 106.47 C 208.49 107.02 208.35 108.05 208.90 108.78 C 209.46 109.50 210.49 109.64 211.21 109.09 L 211.95 108.52 C 212.68 107.97 212.82 106.93 212.27 106.21 C 211.71 105.49 210.68 105.35 209.96 105.90 Z M 208.83 106.82 L 208.23 107.67 C 207.70 108.44 207.89 109.49 208.66 110.02 C 209.42 110.55 210.47 110.36 211.00 109.59 L 211.60 108.74 C 212.13 107.97 211.94 106.92 211.17 106.39 C 210.41 105.86 209.36 106.05 208.83 106.82 Z M 208.13 107.79 L 207.62 108.69 C 207.15 109.52 207.44 110.56 208.26 111.03 C 209.09 111.50 210.14 111.20 210.60 110.38 L 211.11 109.48 C 211.58 108.65 211.29 107.61 210.46 107.14 C 209.64 106.67 208.59 106.96 208.13 107.79 Z M 207.58 108.73 L 207.12 109.60 C 206.67 110.45 206.99 111.49 207.84 111.94 C 208.69 112.39 209.73 112.06 210.18 111.22 L 210.64 110.34 C 211.09 109.50 210.76 108.45 209.92 108.00 C 209.07 107.56 208.02 107.88 207.58 108.73 Z M 207.09 109.61 L 206.65 110.47 C 206.22 111.33 206.56 112.38 207.42 112.82 C 208.27 113.26 209.33 112.92 209.77 112.06 L 210.20 111.20 C 210.64 110.34 210.30 109.29 209.44 108.85 C 208.58 108.41 207.53 108.75 207.09 109.61 Z M 206.64 110.48 L 206.20 111.35 C 205.77 112.22 206.12 113.28 206.99 113.71 C 207.86 114.15 208.91 113.79 209.35 112.92 L 209.78 112.05 C 210.22 111.18 209.87 110.13 209.00 109.69 C 208.13 109.26 207.07 109.61 206.64 110.48 Z M 206.18 111.37 L 205.72 112.33 C 205.29 113.21 205.66 114.27 206.55 114.69 C 207.43 115.12 208.49 114.74 208.91 113.86 L 209.37 112.90 C 209.80 112.02 209.42 110.96 208.54 110.54 C 207.66 110.12 206.60 110.49 206.18 111.37 Z M 205.70 112.35 L 205.31 113.18 C 204.90 114.07 205.29 115.13 206.19 115.54 C 207.08 115.95 208.14 115.56 208.55 114.67 L 208.93 113.84 C 209.34 112.95 208.95 111.89 208.06 111.48 C 207.17 111.07 206.11 111.46 205.70 112.35 Z M 205.30 113.20 L 204.89 114.10 C 204.49 115.01 204.90 116.07 205.80 116.47 C 206.71 116.87 207.76 116.46 208.16 115.56 L 208.57 114.65 C 208.97 113.75 208.56 112.69 207.66 112.29 C 206.76 111.89 205.70 112.29 205.30 113.20 Z M 204.88 114.12 L 204.45 115.11 C 204.06 116.02 204.47 117.08 205.39 117.48 C 206.30 117.87 207.36 117.45 207.75 116.54 L 208.18 115.55 C 208.57 114.63 208.15 113.58 207.24 113.18 C 206.33 112.79 205.27 113.21 204.88 114.12 Z M 204.44 115.12 L 204.07 115.98 C 203.68 116.90 204.11 117.96 205.03 118.35 C 205.95 118.74 207.01 118.31 207.40 117.39 L 207.76 116.53 C 208.15 115.61 207.72 114.55 206.80 114.16 C 205.89 113.77 204.82 114.20 204.44 115.12 Z M 204.06 115.99 L 203.69 116.89 C 203.30 117.82 203.75 118.88 204.67 119.26 C 205.60 119.64 206.66 119.20 207.05 118.27 L 207.42 117.38 C 207.80 116.45 207.36 115.39 206.43 115.01 C 205.50 114.62 204.44 115.07 204.06 115.99 Z M 203.67 116.91 L 203.29 117.86 C 202.92 118.80 203.38 119.86 204.32 120.23 C 205.25 120.61 206.32 120.15 206.69 119.21 L 207.06 118.26 C 207.44 117.32 206.98 116.26 206.04 115.88 C 205.10 115.51 204.04 115.97 203.67 116.91 Z M 203.27 117.89 L 202.89 118.89 C 202.53 119.84 203.01 120.90 203.96 121.26 C 204.91 121.62 205.97 121.14 206.33 120.19 L 206.71 119.18 C 207.07 118.23 206.59 117.17 205.64 116.82 C 204.69 116.46 203.63 116.94 203.27 117.89 Z M 202.87 118.92 L 202.56 119.80 C 202.21 120.76 202.71 121.82 203.67 122.16 C 204.63 122.50 205.69 122.00 206.03 121.04 L 206.35 120.16 C 206.69 119.20 206.19 118.15 205.23 117.80 C 204.27 117.46 203.21 117.96 202.87 118.92 Z M 202.54 119.82 L 202.23 120.73 C 201.90 121.70 202.42 122.75 203.39 123.08 C 204.35 123.41 205.40 122.90 205.74 121.93 L 206.05 121.02 C 206.38 120.06 205.86 119.00 204.89 118.67 C 203.93 118.34 202.87 118.86 202.54 119.82 Z M 202.22 120.75 L 201.91 121.69 C 201.59 122.67 202.11 123.72 203.09 124.04 C 204.06 124.36 205.11 123.83 205.43 122.86 L 205.75 121.91 C 206.07 120.94 205.54 119.89 204.57 119.57 C 203.59 119.25 202.55 119.77 202.22 120.75 Z M 201.90 121.70 L 201.58 122.69 C 201.26 123.67 201.80 124.72 202.78 125.04 C 203.75 125.35 204.80 124.82 205.12 123.84 L 205.44 122.85 C 205.76 121.87 205.22 120.82 204.24 120.51 C 203.27 120.19 202.22 120.73 201.90 121.70 Z M 201.57 122.70 L 201.25 123.71 C 200.93 124.70 201.48 125.75 202.46 126.06 C 203.44 126.37 204.49 125.83 204.80 124.85 L 205.13 123.83 C 205.44 122.85 204.90 121.80 203.92 121.49 C 202.94 121.18 201.89 121.72 201.57 122.70 Z M 201.24 123.72 L 200.96 124.61 C 200.65 125.60 201.19 126.65 202.17 126.96 C 203.16 127.27 204.21 126.73 204.52 125.75 L 204.81 124.85 C 205.12 123.87 204.58 122.81 203.59 122.50 C 202.61 122.19 201.56 122.73 201.24 123.72 Z M 200.96 124.61 L 200.66 125.54 C 200.35 126.52 200.90 127.58 201.88 127.89 C 202.87 128.20 203.92 127.66 204.23 126.67 L 204.53 125.74 C 204.84 124.76 204.29 123.71 203.31 123.39 C 202.32 123.08 201.27 123.63 200.96 124.61 Z M 200.66 125.54 L 200.36 126.49 C 200.05 127.48 200.59 128.53 201.58 128.84 C 202.57 129.16 203.62 128.61 203.93 127.62 L 204.24 126.67 C 204.55 125.68 204.00 124.63 203.01 124.32 C 202.03 124.00 200.97 124.55 200.66 125.54 Z M 200.36 126.49 L 200.05 127.46 C 199.74 128.45 200.29 129.51 201.27 129.82 C 202.26 130.13 203.32 129.58 203.63 128.59 L 203.94 127.62 C 204.25 126.63 203.70 125.58 202.71 125.27 C 201.72 124.95 200.67 125.50 200.36 126.49 Z M 200.05 127.46 L 199.73 128.46 C 199.42 129.45 199.97 130.50 200.96 130.81 C 201.95 131.13 203.01 130.58 203.32 129.59 L 203.63 128.59 C 203.95 127.60 203.40 126.55 202.41 126.24 C 201.42 125.92 200.36 126.47 200.05 127.46 Z M 199.73 128.45 L 199.42 129.44 C 199.11 130.43 199.66 131.49 200.65 131.80 C 201.64 132.11 202.70 131.56 203.01 130.57 L 203.32 129.59 C 203.63 128.60 203.08 127.54 202.09 127.23 C 201.10 126.91 200.04 127.46 199.73 128.45 Z M 199.42 129.44 L 199.12 130.37 C 198.81 131.36 199.36 132.42 200.35 132.74 C 201.34 133.05 202.40 132.50 202.72 131.51 L 203.01 130.57 C 203.33 129.58 202.78 128.52 201.78 128.21 C 200.79 127.89 199.73 128.44 199.42 129.44 Z M 199.12 130.37 L 198.82 131.31 C 198.51 132.31 199.06 133.37 200.05 133.68 C 201.04 134.00 202.10 133.45 202.42 132.45 L 202.72 131.51 C 203.03 130.52 202.49 129.46 201.49 129.14 C 200.50 128.82 199.44 129.37 199.12 130.37 Z M 198.82 131.31 L 198.52 132.26 C 198.20 133.25 198.75 134.32 199.74 134.63 C 200.73 134.95 201.80 134.40 202.12 133.41 L 202.42 132.46 C 202.74 131.46 202.19 130.40 201.20 130.08 C 200.20 129.77 199.14 130.31 198.82 131.31 Z M 198.52 132.25 L 198.21 133.21 C 197.89 134.21 198.43 135.27 199.43 135.59 C 200.42 135.91 201.49 135.37 201.81 134.37 L 202.12 133.42 C 202.44 132.42 201.89 131.36 200.90 131.03 C 199.90 130.71 198.84 131.26 198.52 132.25 Z M 198.21 133.20 L 197.89 134.17 C 197.57 135.16 198.11 136.23 199.10 136.56 C 200.10 136.88 201.17 136.34 201.49 135.34 L 201.81 134.38 C 202.13 133.39 201.59 132.32 200.59 131.99 C 199.60 131.67 198.53 132.21 198.21 133.20 Z M 197.89 134.16 L 197.57 135.13 C 197.24 136.12 197.78 137.19 198.78 137.52 C 199.77 137.85 200.84 137.31 201.17 136.32 L 201.49 135.35 C 201.82 134.36 201.28 133.29 200.29 132.96 C 199.30 132.63 198.22 133.17 197.89 134.16 Z M 197.57 135.12 L 197.26 136.04 C 196.93 137.04 197.46 138.11 198.46 138.45 C 199.45 138.78 200.52 138.25 200.86 137.25 L 201.17 136.33 C 201.51 135.33 200.97 134.26 199.98 133.92 C 198.98 133.59 197.91 134.12 197.57 135.12 Z M 197.26 136.03 L 196.95 136.96 C 196.61 137.96 197.14 139.04 198.13 139.38 C 199.12 139.71 200.20 139.18 200.54 138.19 L 200.86 137.26 C 201.20 136.27 200.67 135.19 199.67 134.85 C 198.68 134.51 197.60 135.04 197.26 136.03 Z M 196.95 136.96 L 196.62 137.89 C 196.28 138.88 196.81 139.97 197.80 140.31 C 198.79 140.65 199.87 140.13 200.22 139.13 L 200.54 138.20 C 200.88 137.21 200.36 136.12 199.36 135.78 C 198.37 135.44 197.29 135.96 196.95 136.96 Z M 196.62 137.89 L 196.29 138.83 C 195.95 139.82 196.47 140.91 197.46 141.25 C 198.46 141.60 199.54 141.08 199.89 140.08 L 200.22 139.14 C 200.56 138.15 200.04 137.06 199.05 136.72 C 198.06 136.37 196.97 136.89 196.62 137.89 Z M 196.29 138.82 L 195.96 139.77 C 195.61 140.77 196.13 141.85 197.12 142.20 C 198.11 142.55 199.20 142.03 199.55 141.04 L 199.89 140.09 C 200.24 139.10 199.72 138.01 198.72 137.66 C 197.73 137.31 196.64 137.83 196.29 138.82 Z M 195.96 139.77 L 195.62 140.73 C 195.26 141.72 195.78 142.81 196.78 143.17 C 197.77 143.52 198.86 143.00 199.21 142.01 L 199.55 141.05 C 199.91 140.05 199.39 138.96 198.39 138.61 C 197.40 138.26 196.31 138.78 195.96 139.77 Z M 195.62 140.73 L 195.28 141.67 C 194.93 142.66 195.44 143.75 196.44 144.11 C 197.43 144.46 198.52 143.94 198.88 142.95 L 199.21 142.01 C 199.57 141.02 199.05 139.93 198.06 139.57 C 197.06 139.22 195.97 139.74 195.62 140.73 Z M 195.28 141.67 L 194.96 142.56 C 194.61 143.55 195.12 144.64 196.11 145.00 C 197.11 145.36 198.20 144.84 198.56 143.85 L 198.88 142.95 C 199.23 141.96 198.72 140.87 197.72 140.51 C 196.73 140.16 195.64 140.67 195.28 141.67 Z M 194.96 142.56 L 194.64 143.46 C 194.28 144.46 194.80 145.55 195.79 145.91 C 196.78 146.26 197.87 145.75 198.23 144.75 L 198.56 143.85 C 198.91 142.85 198.40 141.76 197.40 141.40 C 196.41 141.05 195.32 141.56 194.96 142.56 Z M 194.64 143.46 L 194.30 144.39 C 193.95 145.38 194.46 146.47 195.46 146.83 C 196.45 147.19 197.54 146.67 197.90 145.68 L 198.23 144.75 C 198.59 143.76 198.07 142.67 197.08 142.31 C 196.09 141.95 194.99 142.47 194.64 143.46 Z M 194.30 144.39 L 193.97 145.33 C 193.61 146.32 194.12 147.41 195.12 147.77 C 196.11 148.13 197.21 147.61 197.56 146.62 L 197.90 145.68 C 198.26 144.68 197.74 143.59 196.75 143.23 C 195.75 142.88 194.66 143.39 194.30 144.39 Z M 193.96 145.33 L 193.62 146.29 C 193.26 147.28 193.78 148.38 194.77 148.73 C 195.77 149.09 196.86 148.57 197.22 147.58 L 197.56 146.62 C 197.92 145.62 197.40 144.53 196.41 144.17 C 195.41 143.82 194.32 144.33 193.96 145.33 Z M 193.62 146.29 L 193.27 147.27 C 192.91 148.27 193.43 149.36 194.42 149.72 C 195.42 150.07 196.51 149.56 196.87 148.56 L 197.22 147.58 C 197.58 146.58 197.06 145.49 196.06 145.13 C 195.07 144.78 193.97 145.30 193.62 146.29 Z M 193.27 147.28 L 192.91 148.28 C 192.55 149.28 193.07 150.37 194.07 150.72 C 195.06 151.08 196.16 150.56 196.51 149.56 L 196.87 148.56 C 197.22 147.56 196.70 146.47 195.71 146.11 C 194.71 145.76 193.62 146.28 193.27 147.28 Z M 192.91 148.28 L 192.58 149.21 C 192.23 150.20 192.75 151.30 193.74 151.65 C 194.74 152.00 195.83 151.48 196.19 150.48 L 196.51 149.56 C 196.87 148.56 196.35 147.47 195.35 147.12 C 194.35 146.76 193.26 147.29 192.91 148.28 Z M 192.58 149.21 L 192.25 150.14 C 191.89 151.14 192.41 152.24 193.41 152.59 C 194.41 152.94 195.50 152.42 195.86 151.42 L 196.19 150.48 C 196.54 149.49 196.02 148.39 195.02 148.04 C 194.03 147.69 192.93 148.21 192.58 149.21 Z M 192.25 150.14 L 191.91 151.09 C 191.55 152.09 192.08 153.18 193.07 153.54 C 194.07 153.89 195.16 153.37 195.52 152.37 L 195.86 151.42 C 196.21 150.43 195.69 149.33 194.69 148.98 C 193.69 148.63 192.60 149.15 192.25 150.14 Z M 191.91 151.09 L 191.57 152.04 C 191.21 153.04 191.73 154.14 192.73 154.49 C 193.73 154.85 194.82 154.33 195.18 153.33 L 195.52 152.38 C 195.87 151.38 195.35 150.28 194.36 149.93 C 193.36 149.57 192.26 150.09 191.91 151.09 Z M 191.57 152.04 L 191.23 152.99 C 190.87 153.99 191.38 155.09 192.38 155.44 C 193.38 155.80 194.47 155.29 194.83 154.29 L 195.18 153.34 C 195.54 152.34 195.02 151.24 194.02 150.88 C 193.03 150.53 191.93 151.04 191.57 152.04 Z M 191.23 152.98 L 190.88 153.93 C 190.52 154.93 191.03 156.03 192.03 156.39 C 193.02 156.75 194.12 156.24 194.49 155.25 L 194.83 154.30 C 195.19 153.30 194.68 152.20 193.69 151.84 C 192.69 151.48 191.59 151.99 191.23 152.98 Z M 190.88 153.92 L 190.54 154.86 C 190.17 155.85 190.68 156.96 191.67 157.33 C 192.66 157.69 193.77 157.19 194.14 156.19 L 194.48 155.26 C 194.85 154.26 194.34 153.16 193.35 152.79 C 192.36 152.42 191.25 152.93 190.88 153.92 Z M 190.54 154.85 L 190.19 155.77 C 189.82 156.76 190.32 157.87 191.31 158.24 C 192.30 158.62 193.41 158.12 193.78 157.13 L 194.13 156.21 C 194.51 155.21 194.01 154.11 193.01 153.73 C 192.02 153.36 190.92 153.86 190.54 154.85 Z M 190.20 155.76 L 189.82 156.73 C 189.44 157.72 189.93 158.83 190.92 159.21 C 191.91 159.59 193.02 159.10 193.40 158.11 L 193.78 157.14 C 194.16 156.15 193.67 155.04 192.68 154.66 C 191.69 154.28 190.58 154.77 190.20 155.76 Z M 189.83 156.71 L 189.45 157.67 C 189.06 158.66 189.54 159.78 190.52 160.17 C 191.51 160.56 192.63 160.08 193.02 159.09 L 193.40 158.13 C 193.79 157.14 193.31 156.03 192.32 155.64 C 191.34 155.25 190.22 155.73 189.83 156.71 Z M 189.45 157.66 L 189.07 158.60 C 188.67 159.58 189.14 160.70 190.12 161.10 C 191.11 161.50 192.23 161.03 192.63 160.05 L 193.01 159.11 C 193.41 158.12 192.94 157.00 191.96 156.60 C 190.97 156.20 189.85 156.68 189.45 157.66 Z M 189.08 158.58 L 188.69 159.50 C 188.28 160.48 188.74 161.60 189.72 162.01 C 190.70 162.42 191.83 161.96 192.23 160.98 L 192.62 160.06 C 193.03 159.08 192.57 157.96 191.59 157.55 C 190.61 157.14 189.49 157.60 189.08 158.58 Z M 188.70 159.49 L 188.31 160.39 C 187.89 161.36 188.34 162.49 189.32 162.91 C 190.29 163.33 191.42 162.88 191.84 161.91 L 192.23 161.00 C 192.65 160.03 192.20 158.90 191.22 158.48 C 190.25 158.06 189.12 158.51 188.70 159.49 Z M 188.32 160.37 L 187.92 161.27 C 187.50 162.24 187.94 163.37 188.91 163.80 C 189.88 164.23 191.01 163.79 191.44 162.82 L 191.83 161.92 C 192.26 160.95 191.82 159.82 190.85 159.39 C 189.88 158.96 188.75 159.40 188.32 160.37 Z M 187.93 161.25 L 187.53 162.13 C 187.10 163.10 187.52 164.24 188.49 164.67 C 189.46 165.11 190.59 164.68 191.03 163.71 L 191.43 162.83 C 191.87 161.87 191.44 160.73 190.47 160.29 C 189.51 159.85 188.37 160.28 187.93 161.25 Z M 187.54 162.12 L 187.13 163.00 C 186.68 163.96 187.10 165.10 188.06 165.55 C 189.03 166.00 190.17 165.58 190.61 164.61 L 191.02 163.73 C 191.47 162.77 191.05 161.63 190.09 161.18 C 189.13 160.74 187.99 161.15 187.54 162.12 Z M 187.14 162.98 L 186.71 163.88 C 186.26 164.84 186.67 165.98 187.62 166.44 C 188.58 166.89 189.73 166.48 190.18 165.52 L 190.61 164.63 C 191.06 163.67 190.65 162.53 189.69 162.07 C 188.74 161.62 187.59 162.03 187.14 162.98 Z M 186.72 163.87 L 186.29 164.76 C 185.83 165.71 186.23 166.86 187.18 167.32 C 188.14 167.78 189.29 167.38 189.75 166.43 L 190.18 165.54 C 190.64 164.58 190.24 163.43 189.28 162.97 C 188.33 162.51 187.18 162.91 186.72 163.87 Z M 186.29 164.75 L 185.86 165.64 C 185.39 166.60 185.78 167.75 186.74 168.21 C 187.69 168.68 188.84 168.28 189.31 167.33 L 189.74 166.44 C 190.21 165.48 189.81 164.33 188.86 163.87 C 187.91 163.40 186.76 163.80 186.29 164.75 Z M 185.86 165.64 L 185.42 166.53 C 184.95 167.48 185.34 168.63 186.29 169.10 C 187.24 169.57 188.39 169.18 188.86 168.23 L 189.30 167.33 C 189.77 166.38 189.38 165.23 188.43 164.76 C 187.48 164.29 186.33 164.69 185.86 165.64 Z M 185.42 166.53 L 184.97 167.43 C 184.50 168.38 184.89 169.53 185.84 170.00 C 186.80 170.47 187.95 170.08 188.42 169.13 L 188.86 168.23 C 189.33 167.28 188.94 166.13 187.99 165.66 C 187.04 165.19 185.89 165.58 185.42 166.53 Z M 184.97 167.43 L 184.53 168.34 C 184.06 169.29 184.45 170.44 185.40 170.91 C 186.35 171.38 187.50 170.99 187.97 170.04 L 188.42 169.13 C 188.89 168.18 188.50 167.03 187.55 166.56 C 186.59 166.09 185.44 166.48 184.97 167.43 Z M 184.52 168.34 L 184.08 169.25 C 183.61 170.20 184.00 171.36 184.96 171.82 C 185.91 172.29 187.06 171.90 187.53 170.94 L 187.97 170.03 C 188.44 169.08 188.05 167.93 187.09 167.46 C 186.14 166.99 184.99 167.39 184.52 168.34 Z M 184.07 169.26 L 183.65 170.14 C 183.19 171.09 183.58 172.24 184.54 172.70 C 185.49 173.16 186.64 172.77 187.10 171.81 L 187.53 170.94 C 187.99 169.98 187.59 168.83 186.64 168.37 C 185.69 167.91 184.54 168.31 184.07 169.26 Z M 183.65 170.14 L 183.22 171.03 C 182.76 171.98 183.16 173.13 184.12 173.59 C 185.07 174.05 186.22 173.65 186.68 172.69 L 187.11 171.81 C 187.57 170.85 187.16 169.70 186.21 169.24 C 185.25 168.78 184.11 169.19 183.65 170.14 Z M 183.22 171.03 L 182.79 171.93 C 182.33 172.89 182.74 174.03 183.70 174.49 C 184.65 174.94 185.80 174.54 186.25 173.58 L 186.68 172.69 C 187.14 171.73 186.73 170.58 185.78 170.13 C 184.82 169.67 183.67 170.08 183.22 171.03 Z M 182.79 171.93 L 182.36 172.84 C 181.91 173.80 182.32 174.94 183.27 175.39 C 184.23 175.85 185.37 175.44 185.83 174.48 L 186.26 173.58 C 186.71 172.62 186.30 171.47 185.34 171.02 C 184.39 170.57 183.24 170.98 182.79 171.93 Z M 182.36 172.84 L 181.93 173.75 C 181.48 174.71 181.89 175.85 182.85 176.30 C 183.81 176.76 184.95 176.34 185.40 175.39 L 185.83 174.47 C 186.28 173.52 185.87 172.37 184.91 171.92 C 183.95 171.47 182.81 171.88 182.36 172.84 Z M 181.93 173.76 L 181.50 174.68 C 181.05 175.64 181.47 176.78 182.43 177.22 C 183.39 177.67 184.53 177.26 184.97 176.30 L 185.40 175.38 C 185.85 174.42 185.44 173.28 184.48 172.83 C 183.52 172.39 182.38 172.80 181.93 173.76 Z M 181.50 174.68 L 181.07 175.61 C 180.62 176.57 181.04 177.70 182.00 178.15 C 182.96 178.60 184.10 178.18 184.55 177.22 L 184.98 176.30 C 185.42 175.34 185.00 174.20 184.04 173.75 C 183.08 173.30 181.95 173.72 181.50 174.68 Z M 181.07 175.61 L 180.64 176.53 C 180.20 177.49 180.62 178.63 181.58 179.08 C 182.54 179.52 183.68 179.10 184.12 178.14 L 184.55 177.22 C 184.99 176.26 184.57 175.12 183.61 174.67 C 182.65 174.23 181.51 174.65 181.07 175.61 Z M 180.64 176.54 L 180.22 177.45 C 179.78 178.41 180.20 179.55 181.16 179.99 C 182.12 180.44 183.26 180.02 183.70 179.06 L 184.12 178.14 C 184.56 177.18 184.14 176.04 183.18 175.60 C 182.22 175.15 181.08 175.58 180.64 176.54 Z M 180.22 177.46 L 179.80 178.38 C 179.36 179.34 179.78 180.47 180.74 180.91 C 181.70 181.35 182.84 180.93 183.28 179.97 L 183.70 179.05 C 184.14 178.09 183.72 176.96 182.76 176.52 C 181.80 176.07 180.66 176.50 180.22 177.46 Z M 179.80 178.38 L 179.38 179.30 C 178.94 180.26 179.36 181.39 180.32 181.83 C 181.28 182.27 182.41 181.85 182.85 180.89 L 183.28 179.97 C 183.72 179.01 183.29 177.88 182.33 177.44 C 181.37 176.99 180.24 177.42 179.80 178.38 Z M 179.38 179.30 L 178.96 180.21 C 178.52 181.17 178.94 182.31 179.90 182.75 C 180.86 183.19 181.99 182.76 182.43 181.80 L 182.85 180.89 C 183.29 179.93 182.87 178.79 181.91 178.35 C 180.95 177.91 179.82 178.34 179.38 179.30 Z M 178.96 180.21 L 178.54 181.12 C 178.10 182.08 178.52 183.21 179.48 183.65 C 180.44 184.09 181.57 183.67 182.02 182.71 L 182.43 181.81 C 182.87 180.85 182.45 179.71 181.49 179.27 C 180.53 178.83 179.40 179.25 178.96 180.21 Z M 178.54 181.12 L 178.13 182.02 C 177.69 182.97 178.11 184.11 179.06 184.55 C 180.02 184.99 181.16 184.57 181.60 183.62 L 182.01 182.72 C 182.46 181.76 182.04 180.62 181.08 180.18 C 180.12 179.74 178.98 180.16 178.54 181.12 Z M 178.13 182.01 L 177.72 182.90 C 177.28 183.86 177.69 184.99 178.65 185.44 C 179.61 185.88 180.74 185.47 181.18 184.51 L 181.60 183.62 C 182.04 182.66 181.62 181.53 180.67 181.08 C 179.71 180.64 178.57 181.06 178.13 182.01 Z M 177.72 182.90 L 177.30 183.81 C 176.85 184.76 177.26 185.90 178.22 186.35 C 179.17 186.79 180.31 186.38 180.76 185.42 L 181.18 184.51 C 181.63 183.56 181.21 182.42 180.26 181.97 C 179.30 181.53 178.17 181.94 177.72 182.90 Z M 177.30 183.80 L 176.87 184.73 C 176.42 185.68 176.83 186.82 177.78 187.27 C 178.73 187.72 179.87 187.31 180.32 186.35 L 180.75 185.43 C 181.20 184.47 180.79 183.34 179.84 182.89 C 178.89 182.44 177.75 182.85 177.30 183.80 Z M 176.87 184.72 L 176.44 185.64 C 175.99 186.59 176.39 187.72 177.34 188.17 C 178.29 188.63 179.43 188.22 179.88 187.27 L 180.31 186.36 C 180.76 185.41 180.36 184.27 179.41 183.82 C 178.46 183.37 177.32 183.77 176.87 184.72 Z M 176.44 185.63 L 176.01 186.53 C 175.56 187.48 175.96 188.62 176.91 189.07 C 177.85 189.52 178.99 189.12 179.45 188.18 L 179.88 187.27 C 180.33 186.33 179.93 185.19 178.98 184.73 C 178.03 184.28 176.90 184.68 176.44 185.63 Z M 176.01 186.53 L 175.58 187.42 C 175.13 188.36 175.52 189.50 176.47 189.96 C 177.42 190.42 178.55 190.02 179.01 189.07 L 179.44 188.18 C 179.90 187.23 179.50 186.10 178.56 185.64 C 177.61 185.18 176.47 185.58 176.01 186.53 Z M 175.59 187.41 L 175.16 188.30 C 174.70 189.24 175.09 190.38 176.03 190.84 C 176.98 191.30 178.11 190.91 178.57 189.97 L 179.01 189.08 C 179.47 188.13 179.07 187.00 178.13 186.54 C 177.19 186.08 176.05 186.47 175.59 187.41 Z M 175.16 188.29 L 174.73 189.18 C 174.26 190.12 174.65 191.26 175.59 191.72 C 176.53 192.18 177.67 191.80 178.14 190.85 L 178.57 189.97 C 179.03 189.03 178.64 187.89 177.70 187.43 C 176.76 186.96 175.62 187.35 175.16 188.29 Z M 174.73 189.17 L 174.29 190.06 C 173.82 191.00 174.21 192.14 175.15 192.61 C 176.08 193.07 177.22 192.69 177.69 191.75 L 178.13 190.86 C 178.60 189.92 178.21 188.78 177.27 188.32 C 176.33 187.85 175.20 188.23 174.73 189.17 Z M 174.29 190.06 L 173.84 190.97 C 173.37 191.91 173.75 193.05 174.68 193.52 C 175.62 193.98 176.76 193.61 177.23 192.67 L 177.68 191.76 C 178.15 190.82 177.77 189.68 176.84 189.21 C 175.90 188.74 174.76 189.12 174.29 190.06 Z M 173.84 190.97 L 173.38 191.88 C 172.91 192.81 173.29 193.95 174.22 194.42 C 175.16 194.89 176.29 194.52 176.76 193.58 L 177.22 192.67 C 177.69 191.74 177.32 190.60 176.38 190.13 C 175.45 189.66 174.31 190.04 173.84 190.97 Z M 173.39 191.88 L 172.93 192.78 C 172.46 193.72 172.83 194.85 173.76 195.32 C 174.69 195.80 175.83 195.42 176.30 194.49 L 176.76 193.58 C 177.23 192.65 176.86 191.52 175.93 191.04 C 174.99 190.57 173.86 190.95 173.39 191.88 Z M 172.93 192.78 L 172.48 193.68 C 172.00 194.61 172.38 195.75 173.31 196.22 C 174.24 196.69 175.37 196.32 175.85 195.39 L 176.30 194.49 C 176.77 193.56 176.40 192.42 175.47 191.95 C 174.54 191.48 173.40 191.85 172.93 192.78 Z M 172.48 193.68 L 172.03 194.56 C 171.56 195.49 171.93 196.63 172.86 197.10 C 173.79 197.57 174.92 197.20 175.40 196.27 L 175.84 195.39 C 176.31 194.46 175.94 193.32 175.01 192.85 C 174.09 192.38 172.95 192.75 172.48 193.68 Z M 172.03 194.57 L 171.59 195.44 C 171.12 196.37 171.49 197.50 172.42 197.97 C 173.35 198.44 174.48 198.07 174.95 197.14 L 175.39 196.27 C 175.86 195.34 175.49 194.21 174.56 193.74 C 173.64 193.27 172.50 193.64 172.03 194.57 Z M 171.59 195.44 L 171.15 196.32 C 170.68 197.24 171.06 198.38 171.98 198.84 C 172.91 199.31 174.04 198.94 174.51 198.01 L 174.95 197.14 C 175.42 196.21 175.05 195.08 174.12 194.61 C 173.19 194.14 172.06 194.51 171.59 195.44 Z M 171.15 196.32 L 170.69 197.25 C 170.22 198.18 170.60 199.31 171.52 199.77 C 172.45 200.24 173.58 199.86 174.05 198.93 L 174.51 198.00 C 174.98 197.08 174.60 195.95 173.67 195.48 C 172.74 195.02 171.62 195.39 171.15 196.32 Z M 170.69 197.26 L 170.23 198.17 C 169.77 199.09 170.15 200.22 171.08 200.68 C 172.01 201.14 173.13 200.76 173.59 199.83 L 174.05 198.93 C 174.51 198.00 174.13 196.87 173.20 196.41 C 172.27 195.95 171.15 196.33 170.69 197.26 Z M 170.23 198.17 L 169.79 199.07 C 169.34 200.00 169.72 201.12 170.65 201.58 C 171.58 202.03 172.70 201.65 173.15 200.72 L 173.60 199.83 C 174.05 198.90 173.67 197.78 172.74 197.32 C 171.81 196.86 170.69 197.25 170.23 198.17 Z M 169.79 199.08 L 169.36 199.96 C 168.91 200.89 169.30 202.01 170.23 202.46 C 171.16 202.91 172.27 202.53 172.73 201.60 L 173.16 200.71 C 173.61 199.78 173.22 198.66 172.29 198.21 C 171.36 197.76 170.24 198.15 169.79 199.08 Z M 169.36 199.97 L 168.94 200.86 C 168.49 201.79 168.88 202.90 169.81 203.35 C 170.74 203.79 171.86 203.40 172.30 202.47 L 172.73 201.59 C 173.17 200.66 172.78 199.54 171.85 199.10 C 170.92 198.65 169.81 199.04 169.36 199.97 Z M 168.94 200.87 L 168.52 201.75 C 168.08 202.68 168.48 203.79 169.41 204.23 C 170.34 204.67 171.45 204.27 171.89 203.34 L 172.31 202.46 C 172.75 201.53 172.35 200.42 171.42 199.98 C 170.49 199.54 169.37 199.94 168.94 200.87 Z M 168.52 201.76 L 168.09 202.67 C 167.66 203.61 168.06 204.71 168.99 205.15 C 169.93 205.58 171.03 205.18 171.47 204.24 L 171.89 203.33 C 172.33 202.40 171.92 201.29 170.99 200.86 C 170.06 200.42 168.95 200.83 168.52 201.76 Z M 168.09 202.68 L 167.67 203.60 C 167.24 204.53 167.65 205.64 168.58 206.07 C 169.51 206.50 170.62 206.09 171.05 205.16 L 171.47 204.24 C 171.90 203.30 171.49 202.20 170.56 201.77 C 169.62 201.34 168.52 201.75 168.09 202.68 Z M 167.67 203.60 L 167.25 204.52 C 166.82 205.45 167.23 206.56 168.16 206.98 C 169.09 207.41 170.20 207.00 170.62 206.07 L 171.04 205.15 C 171.47 204.22 171.06 203.12 170.13 202.69 C 169.20 202.26 168.10 202.67 167.67 203.60 Z M 167.25 204.52 L 166.83 205.43 C 166.40 206.36 166.81 207.46 167.74 207.89 C 168.67 208.32 169.77 207.91 170.20 206.98 L 170.62 206.07 C 171.05 205.14 170.64 204.04 169.71 203.61 C 168.78 203.18 167.68 203.59 167.25 204.52 Z M 166.84 205.42 L 166.42 206.32 C 165.98 207.25 166.39 208.35 167.31 208.79 C 168.24 209.22 169.34 208.82 169.78 207.89 L 170.20 206.99 C 170.63 206.06 170.23 204.96 169.30 204.53 C 168.37 204.09 167.27 204.50 166.84 205.42 Z M 166.42 206.31 L 166.00 207.19 C 165.56 208.12 165.96 209.22 166.88 209.66 C 167.80 210.10 168.91 209.71 169.35 208.79 L 169.77 207.90 C 170.21 206.98 169.82 205.87 168.89 205.43 C 167.97 204.99 166.86 205.39 166.42 206.31 Z M 166.02 207.18 L 165.55 208.12 C 165.11 209.04 165.49 210.14 166.40 210.59 C 167.32 211.04 168.43 210.66 168.88 209.74 L 169.34 208.80 C 169.79 207.89 169.41 206.78 168.49 206.33 C 167.57 205.88 166.46 206.26 166.02 207.18 Z M 165.57 208.10 L 165.10 209.03 C 164.64 209.94 165.00 211.05 165.91 211.51 C 166.82 211.97 167.93 211.61 168.39 210.70 L 168.86 209.76 C 169.32 208.85 168.96 207.74 168.05 207.28 C 167.14 206.82 166.03 207.19 165.57 208.10 Z M 165.11 209.01 L 164.64 209.91 C 164.17 210.81 164.52 211.92 165.42 212.40 C 166.32 212.87 167.44 212.52 167.91 211.62 L 168.38 210.72 C 168.85 209.81 168.50 208.70 167.60 208.23 C 166.70 207.76 165.58 208.11 165.11 209.01 Z M 164.66 209.89 L 164.19 210.75 C 163.70 211.65 164.03 212.76 164.93 213.25 C 165.82 213.73 166.94 213.40 167.42 212.51 L 167.89 211.64 C 168.38 210.75 168.04 209.63 167.15 209.15 C 166.26 208.66 165.14 208.99 164.66 209.89 Z M 164.20 210.73 L 163.74 211.56 C 163.24 212.44 163.55 213.56 164.44 214.06 C 165.32 214.56 166.44 214.25 166.94 213.36 L 167.40 212.53 C 167.90 211.65 167.59 210.53 166.70 210.03 C 165.82 209.53 164.70 209.85 164.20 210.73 Z M 163.76 211.53 L 163.26 212.38 C 162.75 213.25 163.04 214.37 163.91 214.89 C 164.79 215.40 165.91 215.11 166.42 214.23 L 166.92 213.39 C 167.43 212.52 167.14 211.39 166.26 210.88 C 165.39 210.37 164.27 210.66 163.76 211.53 Z M 163.28 212.35 L 162.72 213.26 C 162.20 214.12 162.47 215.24 163.33 215.77 C 164.19 216.30 165.31 216.03 165.84 215.17 L 166.40 214.26 C 166.93 213.40 166.66 212.28 165.80 211.75 C 164.94 211.22 163.81 211.49 163.28 212.35 Z M 162.75 213.23 L 162.20 214.08 C 161.65 214.93 161.90 216.06 162.75 216.60 C 163.60 217.15 164.72 216.90 165.27 216.05 L 165.82 215.20 C 166.36 214.35 166.12 213.22 165.27 212.68 C 164.42 212.13 163.29 212.38 162.75 213.23 Z M 162.22 214.06 L 161.68 214.87 C 161.12 215.70 161.35 216.83 162.18 217.39 C 163.02 217.95 164.15 217.72 164.71 216.89 L 165.25 216.08 C 165.81 215.24 165.58 214.11 164.75 213.56 C 163.91 213.00 162.78 213.22 162.22 214.06 Z M 161.70 214.85 L 161.17 215.61 C 160.60 216.44 160.81 217.57 161.63 218.14 C 162.46 218.71 163.59 218.50 164.16 217.67 L 164.69 216.91 C 165.26 216.08 165.05 214.95 164.23 214.38 C 163.40 213.81 162.27 214.02 161.70 214.85 Z M 161.19 215.60 L 160.60 216.43 C 160.02 217.24 160.22 218.37 161.03 218.95 C 161.85 219.53 162.98 219.34 163.55 218.52 L 164.14 217.69 C 164.72 216.87 164.53 215.74 163.71 215.17 C 162.89 214.59 161.76 214.78 161.19 215.60 Z M 160.61 216.42 L 160.02 217.24 C 159.44 218.05 159.62 219.18 160.43 219.76 C 161.24 220.34 162.37 220.16 162.95 219.35 L 163.54 218.53 C 164.12 217.72 163.94 216.59 163.13 216.01 C 162.32 215.43 161.19 215.61 160.61 216.42 Z M 160.03 217.24 L 159.45 218.04 C 158.87 218.85 159.05 219.97 159.86 220.55 C 160.66 221.13 161.79 220.95 162.37 220.15 L 162.94 219.35 C 163.53 218.54 163.34 217.42 162.54 216.84 C 161.73 216.26 160.61 216.44 160.03 217.24 Z M 159.45 218.05 L 158.89 218.84 C 158.31 219.65 158.50 220.77 159.30 221.34 C 160.11 221.92 161.23 221.73 161.80 220.92 L 162.37 220.13 C 162.94 219.33 162.76 218.21 161.95 217.64 C 161.15 217.06 160.03 217.25 159.45 218.05 Z M 158.88 218.86 L 158.29 219.72 C 157.73 220.52 157.93 221.64 158.73 222.20 C 159.54 222.76 160.65 222.56 161.22 221.75 L 161.81 220.90 C 162.37 220.09 162.17 218.98 161.36 218.42 C 160.56 217.86 159.44 218.06 158.88 218.86 Z M 158.28 219.74 L 157.71 220.59 C 157.16 221.41 157.38 222.51 158.19 223.05 C 159.00 223.60 160.11 223.39 160.65 222.57 L 161.22 221.73 C 161.77 220.91 161.56 219.81 160.74 219.26 C 159.93 218.72 158.83 218.93 158.28 219.74 Z M 157.70 220.63 L 157.17 221.45 C 156.64 222.27 156.87 223.36 157.69 223.89 C 158.51 224.42 159.60 224.18 160.13 223.36 L 160.66 222.54 C 161.19 221.72 160.96 220.63 160.14 220.10 C 159.32 219.57 158.23 219.81 157.70 220.63 Z M 157.15 221.49 L 156.63 222.34 C 156.13 223.17 156.39 224.25 157.22 224.76 C 158.04 225.26 159.12 225.00 159.63 224.17 L 160.15 223.32 C 160.65 222.49 160.39 221.41 159.57 220.91 C 158.74 220.40 157.66 220.66 157.15 221.49 Z M 156.61 222.40 L 156.10 223.30 C 155.63 224.14 155.92 225.20 156.76 225.68 C 157.60 226.15 158.66 225.86 159.14 225.02 L 159.65 224.12 C 160.13 223.28 159.83 222.21 158.99 221.74 C 158.15 221.26 157.09 221.56 156.61 222.40 Z M 156.08 223.35 L 155.63 224.21 C 155.19 225.06 155.52 226.11 156.37 226.55 C 157.22 226.99 158.27 226.67 158.71 225.82 L 159.16 224.96 C 159.60 224.11 159.27 223.06 158.42 222.62 C 157.57 222.18 156.53 222.50 156.08 223.35 Z M 155.62 224.26 L 155.19 225.15 C 154.78 226.00 155.14 227.03 155.99 227.45 C 156.85 227.86 157.88 227.51 158.30 226.65 L 158.73 225.76 C 159.14 224.91 158.78 223.88 157.92 223.46 C 157.07 223.05 156.04 223.40 155.62 224.26 Z M 155.19 225.20 L 154.77 226.12 C 154.38 226.98 154.77 227.99 155.63 228.38 C 156.49 228.77 157.50 228.38 157.89 227.52 L 158.31 226.60 C 158.69 225.74 158.31 224.72 157.45 224.34 C 156.59 223.95 155.57 224.33 155.19 225.20 Z M 154.77 226.16 L 154.39 227.06 C 154.03 227.92 154.44 228.91 155.30 229.28 C 156.16 229.64 157.16 229.23 157.52 228.37 L 157.89 227.48 C 158.25 226.61 157.85 225.62 156.99 225.26 C 156.12 224.90 155.13 225.30 154.77 226.16 Z M 154.40 227.10 L 154.01 228.07 C 153.67 228.93 154.10 229.91 154.96 230.25 C 155.82 230.59 156.79 230.16 157.13 229.30 L 157.52 228.33 C 157.85 227.46 157.43 226.49 156.57 226.15 C 155.71 225.81 154.73 226.24 154.40 227.10 Z M 154.02 228.10 L 153.68 229.01 C 153.36 229.86 153.79 230.82 154.64 231.14 C 155.50 231.47 156.45 231.03 156.78 230.18 L 157.12 229.27 C 157.44 228.42 157.01 227.46 156.16 227.14 C 155.30 226.82 154.35 227.25 154.02 228.10 Z M 153.70 229.02 L 153.36 229.94 C 153.04 230.78 153.47 231.72 154.31 232.04 C 155.15 232.36 156.09 231.93 156.41 231.09 L 156.76 230.17 C 157.07 229.33 156.65 228.39 155.80 228.07 C 154.96 227.75 154.02 228.18 153.70 229.02 Z M 153.37 229.98 L 153.04 230.92 C 152.74 231.75 153.18 232.67 154.02 232.96 C 154.85 233.26 155.77 232.82 156.06 231.99 L 156.40 231.05 C 156.69 230.21 156.25 229.30 155.42 229.00 C 154.58 228.71 153.67 229.14 153.37 229.98 Z M 153.05 230.99 L 152.77 231.91 C 152.51 232.74 152.97 233.62 153.80 233.88 C 154.63 234.13 155.50 233.67 155.76 232.84 L 156.05 231.92 C 156.31 231.09 155.84 230.21 155.02 229.95 C 154.19 229.70 153.31 230.16 153.05 230.99 Z M 152.80 231.96 L 152.52 232.94 C 152.29 233.75 152.75 234.59 153.56 234.83 C 154.37 235.06 155.21 234.59 155.45 233.78 L 155.73 232.80 C 155.96 231.99 155.49 231.15 154.68 230.91 C 153.87 230.68 153.03 231.15 152.80 231.96 Z M 152.54 232.96 L 152.47 233.22 C 152.25 234.02 152.71 234.84 153.50 235.07 C 154.30 235.29 155.12 234.83 155.35 234.03 L 155.42 233.77 C 155.64 232.97 155.18 232.15 154.39 231.92 C 153.59 231.70 152.77 232.16 152.54 232.96 Z"
      fill="black"
      fill-rule="nonzero" /></svg>