<svg xmlns="http://www.w3.org/2000/svg" width="300" height="300" viewBox="0 0 300 300">
<path d="M 149.02 72.95 L 149.03 72.02 C 149.03 71.22 148.38 70.58 147.59 70.58 C 146.80 70.58 146.15 71.22 146.15 72.02 L 146.15 72.95 C 146.15 73.74 146.79 74.39 147.59 74.39 C 148.38 74.39 149.02 73.75 149.02 72.95 Z M 148.99 72.35 L 149.24 71.28 C 149.42 70.51 148.94 69.73 148.17 69.55 C 147.39 69.37 146.62 69.85 146.44 70.62 L 146.19 71.69 C 146.00 72.46 146.48 73.24 147.26 73.42 C 148.03 73.60 148.81 73.12 148.99 72.35 Z M 149.13 71.60 L 149.65 70.58 C 150.01 69.86 149.73 68.99 149.01 68.63 C 148.30 68.27 147.42 68.55 147.06 69.27 L 146.54 70.30 C 146.18 71.01 146.47 71.89 147.19 72.25 C 147.90 72.61 148.77 72.32 149.13 71.60 Z M 149.18 71.13 L 149.63 70.83 C 150.29 70.37 150.47 69.46 150.01 68.80 C 149.56 68.13 148.65 67.96 147.98 68.41 L 147.53 68.71 C 146.87 69.17 146.69 70.08 147.15 70.75 C 147.60 71.41 148.51 71.59 149.18 71.13 Z M 147.34 69.76 L 147.44 70.84 C 147.52 71.65 148.23 72.24 149.04 72.17 C 149.85 72.09 150.45 71.37 150.37 70.56 L 150.27 69.48 C 150.19 68.67 149.47 68.08 148.67 68.15 C 147.86 68.23 147.26 68.95 147.34 69.76 Z M 147.43 70.70 L 147.43 71.73 C 147.43 72.55 148.09 73.21 148.90 73.21 C 149.72 73.21 150.38 72.55 150.38 71.74 L 150.38 70.70 C 150.38 69.89 149.72 69.22 148.91 69.22 C 148.09 69.22 147.43 69.88 147.43 70.70 Z M 147.42 71.72 L 147.41 72.70 C 147.40 73.52 148.06 74.19 148.87 74.20 C 149.69 74.21 150.36 73.56 150.37 72.74 L 150.38 71.75 C 150.39 70.94 149.74 70.27 148.92 70.26 C 148.10 70.25 147.43 70.90 147.42 71.72 Z M 147.41 72.66 L 147.37 73.68 C 147.34 74.50 147.98 75.19 148.79 75.22 C 149.61 75.25 150.30 74.61 150.33 73.80 L 150.37 72.78 C 150.40 71.96 149.76 71.27 148.95 71.24 C 148.13 71.21 147.44 71.85 147.41 72.66 Z M 147.37 73.64 L 147.31 74.60 C 147.26 75.42 147.87 76.12 148.69 76.18 C 149.51 76.23 150.21 75.61 150.26 74.80 L 150.33 73.84 C 150.38 73.02 149.77 72.32 148.95 72.26 C 148.13 72.21 147.43 72.83 147.37 73.64 Z M 147.31 74.59 L 147.24 75.58 C 147.18 76.39 147.79 77.10 148.61 77.16 C 149.42 77.22 150.13 76.61 150.19 75.79 L 150.26 74.81 C 150.32 73.99 149.71 73.28 148.90 73.22 C 148.08 73.16 147.37 73.77 147.31 74.59 Z M 147.24 75.60 L 147.18 76.60 C 147.13 77.41 147.75 78.11 148.57 78.16 C 149.39 78.21 150.09 77.59 150.14 76.77 L 150.19 75.77 C 150.24 74.95 149.62 74.25 148.80 74.21 C 147.98 74.16 147.28 74.78 147.24 75.60 Z M 147.18 76.63 L 147.14 77.62 C 147.11 78.44 147.75 79.13 148.57 79.16 C 149.38 79.19 150.07 78.55 150.10 77.73 L 150.14 76.74 C 150.17 75.92 149.53 75.23 148.71 75.20 C 147.89 75.17 147.21 75.81 147.18 76.63 Z M 147.14 77.65 L 147.12 78.67 C 147.10 79.49 147.75 80.16 148.57 80.18 C 149.39 80.19 150.07 79.54 150.08 78.72 L 150.10 77.71 C 150.12 76.89 149.47 76.21 148.65 76.20 C 147.83 76.18 147.15 76.83 147.14 77.65 Z M 147.12 78.69 L 147.11 79.68 C 147.11 80.50 147.77 81.17 148.59 81.18 C 149.40 81.18 150.07 80.52 150.08 79.70 L 150.08 78.71 C 150.09 77.89 149.43 77.22 148.61 77.21 C 147.79 77.21 147.12 77.87 147.12 78.69 Z M 147.11 79.69 L 147.11 80.71 C 147.11 81.53 147.77 82.19 148.59 82.19 C 149.41 82.19 150.08 81.53 150.08 80.71 L 150.08 79.69 C 150.08 78.87 149.41 78.21 148.60 78.21 C 147.78 78.21 147.11 78.87 147.11 79.69 Z M 147.11 80.71 L 147.11 81.71 C 147.11 82.53 147.77 83.19 148.59 83.19 C 149.41 83.19 150.08 82.53 150.08 81.71 L 150.08 80.71 C 150.08 79.89 149.41 79.23 148.59 79.23 C 147.77 79.23 147.11 79.89 147.11 80.71 Z M 147.11 81.71 L 147.11 82.71 C 147.11 83.53 147.77 84.19 148.59 84.19 C 149.41 84.19 150.08 83.53 150.08 82.71 L 150.08 81.71 C 150.08 80.89 149.41 80.22 148.59 80.22 C 147.77 80.22 147.11 80.89 147.11 81.71 Z M 147.11 82.71 L 147.11 83.70 C 147.11 84.52 147.77 85.18 148.59 85.18 C 149.41 85.18 150.08 84.52 150.08 83.70 L 150.08 82.71 C 150.08 81.89 149.41 81.22 148.59 81.22 C 147.77 81.22 147.11 81.89 147.11 82.71 Z M 147.11 83.70 L 147.11 84.70 C 147.11 85.52 147.77 86.18 148.59 86.18 C 149.41 86.18 150.08 85.52 150.08 84.70 L 150.08 83.70 C 150.08 82.88 149.41 82.22 148.59 82.22 C 147.77 82.22 147.11 82.88 147.11 83.70 Z M 147.11 84.70 L 147.11 85.71 C 147.11 86.53 147.77 87.19 148.59 87.19 C 149.41 87.19 150.08 86.53 150.08 85.71 L 150.08 84.70 C 150.08 83.88 149.41 83.21 148.59 83.21 C 147.77 83.21 147.11 83.88 147.11 84.70 Z M 147.11 85.71 L 147.11 86.71 C 147.11 87.53 147.77 88.19 148.59 88.19 C 149.41 88.19 150.08 87.53 150.08 86.71 L 150.08 85.71 C 150.08 84.89 149.41 84.22 148.59 84.22 C 147.77 84.22 147.11 84.89 147.11 85.71 Z M 147.11 86.71 L 147.11 87.71 C 147.11 88.53 147.77 89.19 148.59 89.19 C 149.41 89.19 150.08 88.53 150.08 87.71 L 150.08 86.71 C 150.08 85.89 149.41 85.22 148.59 85.22 C 147.77 85.22 147.11 85.89 147.11 86.71 Z M 147.11 87.71 L 147.11 88.71 C 147.11 89.53 147.77 90.19 148.59 90.19 C 149.41 90.19 150.08 89.53 150.08 88.71 L 150.08 87.71 C 150.08 86.89 149.41 86.23 148.59 86.23 C 147.77 86.23 147.11 86.89 147.11 87.71 Z M 147.11 88.72 L 147.12 89.71 C 147.12 90.53 147.79 91.19 148.61 91.19 C 149.43 91.18 150.09 90.52 150.08 89.70 L 150.08 88.70 C 150.07 87.88 149.41 87.22 148.59 87.22 C 147.77 87.23 147.11 87.90 147.11 88.72 Z M 147.12 89.73 L 147.13 90.74 C 147.15 91.56 147.83 92.21 148.65 92.19 C 149.47 92.18 150.12 91.50 150.10 90.68 L 150.08 89.67 C 150.07 88.85 149.39 88.20 148.57 88.22 C 147.75 88.23 147.10 88.91 147.12 89.73 Z M 147.14 90.77 L 147.17 91.73 C 147.21 92.55 147.90 93.19 148.72 93.16 C 149.54 93.13 150.17 92.44 150.14 91.62 L 150.10 90.65 C 150.07 89.83 149.38 89.19 148.56 89.22 C 147.74 89.26 147.10 89.95 147.14 90.77 Z M 147.17 91.77 L 147.24 92.77 C 147.29 93.59 147.99 94.21 148.81 94.16 C 149.63 94.11 150.25 93.40 150.20 92.59 L 150.14 91.58 C 150.09 90.77 149.38 90.14 148.57 90.19 C 147.75 90.24 147.12 90.95 147.17 91.77 Z M 147.24 92.81 L 147.33 93.82 C 147.40 94.64 148.12 95.25 148.94 95.18 C 149.75 95.11 150.36 94.39 150.29 93.57 L 150.20 92.55 C 150.13 91.73 149.41 91.13 148.59 91.20 C 147.77 91.27 147.17 91.99 147.24 92.81 Z M 147.33 93.86 L 147.43 94.84 C 147.52 95.66 148.26 96.25 149.07 96.17 C 149.89 96.08 150.48 95.34 150.39 94.53 L 150.29 93.54 C 150.20 92.72 149.47 92.13 148.65 92.22 C 147.83 92.30 147.24 93.04 147.33 93.86 Z M 147.43 94.86 L 147.55 95.87 C 147.65 96.69 148.40 97.27 149.22 97.17 C 150.03 97.07 150.62 96.33 150.52 95.51 L 150.40 94.51 C 150.30 93.69 149.55 93.10 148.73 93.20 C 147.92 93.30 147.33 94.05 147.43 94.86 Z M 147.55 95.88 L 147.68 96.88 C 147.78 97.70 148.53 98.27 149.35 98.17 C 150.17 98.06 150.75 97.31 150.65 96.49 L 150.52 95.50 C 150.41 94.68 149.66 94.10 148.84 94.20 C 148.02 94.31 147.45 95.06 147.55 95.88 Z M 147.68 96.88 L 147.81 97.87 C 147.92 98.69 148.67 99.27 149.49 99.16 C 150.31 99.05 150.89 98.30 150.78 97.48 L 150.65 96.49 C 150.54 95.67 149.79 95.09 148.97 95.20 C 148.15 95.31 147.57 96.06 147.68 96.88 Z M 147.81 97.88 L 147.94 98.86 C 148.05 99.69 148.81 100.26 149.63 100.15 C 150.46 100.04 151.03 99.28 150.92 98.46 L 150.78 97.47 C 150.67 96.65 149.91 96.07 149.09 96.18 C 148.27 96.30 147.69 97.05 147.81 97.88 Z M 147.94 98.87 L 148.08 99.85 C 148.19 100.68 148.96 101.25 149.78 101.14 C 150.60 101.02 151.18 100.26 151.06 99.43 L 150.92 98.45 C 150.80 97.63 150.04 97.05 149.22 97.17 C 148.39 97.29 147.82 98.05 147.94 98.87 Z M 148.07 99.86 L 148.22 100.83 C 148.34 101.66 149.10 102.23 149.93 102.11 C 150.75 101.99 151.32 101.22 151.20 100.40 L 151.06 99.43 C 150.94 98.60 150.18 98.03 149.35 98.15 C 148.53 98.27 147.95 99.04 148.07 99.86 Z M 148.21 100.84 L 148.36 101.83 C 148.48 102.66 149.25 103.23 150.08 103.11 C 150.90 102.99 151.47 102.22 151.35 101.39 L 151.21 100.40 C 151.08 99.57 150.32 99.00 149.49 99.12 C 148.66 99.24 148.09 100.01 148.21 100.84 Z M 148.36 101.83 L 148.50 102.84 C 148.63 103.67 149.40 104.24 150.22 104.12 C 151.05 104.00 151.62 103.23 151.50 102.40 L 151.36 101.39 C 151.23 100.56 150.46 99.99 149.64 100.11 C 148.81 100.23 148.24 101.00 148.36 101.83 Z M 148.50 102.83 L 148.64 103.81 C 148.76 104.64 149.53 105.22 150.36 105.10 C 151.19 104.98 151.77 104.21 151.65 103.38 L 151.51 102.40 C 151.39 101.57 150.62 101.00 149.79 101.12 C 148.96 101.24 148.38 102.00 148.50 102.83 Z M 148.64 103.80 L 148.78 104.80 C 148.89 105.63 149.66 106.21 150.49 106.09 C 151.32 105.98 151.90 105.21 151.79 104.38 L 151.65 103.38 C 151.53 102.55 150.77 101.97 149.93 102.09 C 149.10 102.21 148.52 102.97 148.64 103.80 Z M 148.77 104.79 L 148.91 105.79 C 149.02 106.63 149.78 107.21 150.62 107.10 C 151.45 106.99 152.04 106.22 151.93 105.39 L 151.79 104.39 C 151.68 103.55 150.92 102.97 150.08 103.08 C 149.25 103.19 148.66 103.95 148.77 104.79 Z M 148.91 105.78 L 149.03 106.78 C 149.13 107.61 149.90 108.20 150.73 108.10 C 151.56 108.00 152.16 107.23 152.05 106.40 L 151.93 105.40 C 151.82 104.57 151.06 103.98 150.23 104.08 C 149.39 104.19 148.80 104.95 148.91 105.78 Z M 149.03 106.77 L 149.15 107.76 C 149.25 108.60 150.00 109.20 150.84 109.10 C 151.68 109.00 152.27 108.24 152.17 107.40 L 152.05 106.41 C 151.95 105.57 151.20 104.98 150.36 105.08 C 149.53 105.18 148.93 105.93 149.03 106.77 Z M 149.15 107.76 L 149.26 108.75 C 149.36 109.59 150.11 110.19 150.95 110.09 C 151.79 109.99 152.39 109.24 152.29 108.40 L 152.17 107.41 C 152.08 106.57 151.32 105.97 150.48 106.07 C 149.65 106.17 149.05 106.92 149.15 107.76 Z M 149.26 108.75 L 149.38 109.74 C 149.47 110.58 150.23 111.18 151.07 111.08 C 151.90 110.98 152.50 110.22 152.40 109.39 L 152.29 108.40 C 152.19 107.56 151.44 106.97 150.60 107.06 C 149.76 107.16 149.16 107.92 149.26 108.75 Z M 149.38 109.74 L 149.49 110.73 C 149.59 111.56 150.35 112.16 151.18 112.07 C 152.02 111.97 152.62 111.21 152.52 110.37 L 152.40 109.39 C 152.31 108.55 151.55 107.95 150.71 108.05 C 149.88 108.15 149.28 108.91 149.38 109.74 Z M 149.49 110.73 L 149.61 111.72 C 149.70 112.55 150.46 113.15 151.30 113.06 C 152.13 112.96 152.73 112.20 152.63 111.37 L 152.52 110.38 C 152.42 109.54 151.67 108.94 150.83 109.04 C 149.99 109.13 149.39 109.89 149.49 110.73 Z M 149.61 111.72 L 149.72 112.72 C 149.82 113.56 150.57 114.16 151.41 114.07 C 152.25 113.97 152.85 113.21 152.75 112.38 L 152.64 111.37 C 152.54 110.53 151.78 109.93 150.95 110.03 C 150.11 110.12 149.51 110.88 149.61 111.72 Z M 149.72 112.72 L 149.83 113.74 C 149.93 114.58 150.68 115.18 151.52 115.09 C 152.36 115.00 152.96 114.24 152.86 113.40 L 152.75 112.38 C 152.66 111.54 151.90 110.94 151.07 111.03 C 150.23 111.13 149.63 111.88 149.72 112.72 Z M 149.83 113.74 L 149.94 114.75 C 150.03 115.58 150.78 116.19 151.62 116.10 C 152.46 116.01 153.06 115.26 152.97 114.42 L 152.87 113.41 C 152.78 112.57 152.02 111.97 151.19 112.06 C 150.35 112.15 149.74 112.90 149.83 113.74 Z M 149.94 114.74 L 150.04 115.70 C 150.13 116.54 150.88 117.15 151.71 117.06 C 152.55 116.97 153.16 116.22 153.07 115.38 L 152.98 114.42 C 152.89 113.59 152.14 112.98 151.30 113.06 C 150.46 113.15 149.85 113.90 149.94 114.74 Z M 150.04 115.69 L 150.14 116.74 C 150.22 117.57 150.97 118.19 151.81 118.11 C 152.64 118.03 153.26 117.28 153.18 116.44 L 153.08 115.39 C 152.99 114.56 152.25 113.94 151.41 114.02 C 150.57 114.10 149.96 114.85 150.04 115.69 Z M 150.14 116.72 L 150.23 117.71 C 150.30 118.55 151.04 119.17 151.88 119.09 C 152.72 119.02 153.34 118.28 153.26 117.44 L 153.18 116.45 C 153.10 115.62 152.36 115.00 151.52 115.07 C 150.69 115.14 150.07 115.88 150.14 116.72 Z M 150.23 117.69 L 150.30 118.64 C 150.37 119.48 151.10 120.10 151.94 120.04 C 152.78 119.97 153.41 119.23 153.34 118.40 L 153.27 117.45 C 153.20 116.61 152.46 115.99 151.62 116.05 C 150.79 116.12 150.16 116.86 150.23 117.69 Z M 150.30 118.63 L 150.37 119.62 C 150.43 120.46 151.16 121.09 152.00 121.03 C 152.84 120.97 153.47 120.24 153.41 119.40 L 153.34 118.41 C 153.28 117.57 152.55 116.94 151.71 117.00 C 150.87 117.06 150.24 117.79 150.30 118.63 Z M 150.37 119.61 L 150.44 120.61 C 150.49 121.45 151.22 122.08 152.06 122.03 C 152.90 121.97 153.53 121.25 153.48 120.41 L 153.41 119.41 C 153.36 118.57 152.63 117.93 151.79 117.99 C 150.95 118.04 150.32 118.77 150.37 119.61 Z M 150.44 120.60 L 150.50 121.59 C 150.55 122.43 151.27 123.07 152.11 123.02 C 152.95 122.97 153.59 122.24 153.54 121.40 L 153.48 120.42 C 153.43 119.58 152.71 118.93 151.87 118.99 C 151.02 119.04 150.38 119.76 150.44 120.60 Z M 150.50 121.58 L 150.55 122.57 C 150.60 123.42 151.31 124.06 152.16 124.01 C 153.00 123.97 153.64 123.25 153.59 122.41 L 153.54 121.41 C 153.49 120.57 152.78 119.93 151.93 119.97 C 151.09 120.02 150.45 120.74 150.50 121.58 Z M 150.55 122.56 L 150.60 123.58 C 150.64 124.42 151.35 125.07 152.19 125.03 C 153.03 124.99 153.68 124.28 153.64 123.44 L 153.59 122.42 C 153.56 121.58 152.84 120.93 152.00 120.97 C 151.16 121.01 150.51 121.72 150.55 122.56 Z M 150.60 123.56 L 150.63 124.54 C 150.66 125.38 151.37 126.04 152.21 126.01 C 153.05 125.98 153.71 125.27 153.68 124.43 L 153.64 123.45 C 153.61 122.61 152.91 121.95 152.06 121.98 C 151.22 122.01 150.56 122.72 150.60 123.56 Z M 150.63 124.53 L 150.66 125.53 C 150.68 126.38 151.39 127.04 152.23 127.01 C 153.07 126.99 153.73 126.29 153.71 125.44 L 153.68 124.44 C 153.66 123.60 152.95 122.94 152.11 122.96 C 151.27 122.99 150.60 123.69 150.63 124.53 Z M 150.66 125.53 L 150.68 126.54 C 150.71 127.38 151.41 128.05 152.25 128.02 C 153.09 128.00 153.76 127.30 153.74 126.46 L 153.71 125.45 C 153.69 124.60 152.99 123.94 152.14 123.96 C 151.30 123.98 150.64 124.68 150.66 125.53 Z M 150.68 126.54 L 150.71 127.50 C 150.73 128.35 151.43 129.01 152.27 128.99 C 153.12 128.97 153.78 128.27 153.76 127.43 L 153.74 126.46 C 153.72 125.61 153.02 124.95 152.17 124.97 C 151.33 124.99 150.66 125.69 150.68 126.54 Z M 150.71 127.50 L 150.73 128.51 C 150.75 129.35 151.45 130.02 152.30 130.00 C 153.14 129.98 153.81 129.27 153.79 128.43 L 153.76 127.43 C 153.74 126.58 153.04 125.92 152.20 125.94 C 151.35 125.96 150.69 126.66 150.71 127.50 Z M 150.73 128.51 L 150.76 129.54 C 150.78 130.38 151.48 131.05 152.32 131.03 C 153.17 131.01 153.84 130.31 153.81 129.46 L 153.79 128.43 C 153.77 127.59 153.07 126.92 152.22 126.94 C 151.38 126.96 150.71 127.66 150.73 128.51 Z M 150.76 129.54 L 150.78 130.54 C 150.80 131.38 151.51 132.05 152.35 132.03 C 153.19 132.01 153.86 131.31 153.84 130.47 L 153.81 129.46 C 153.79 128.62 153.09 127.95 152.25 127.97 C 151.40 128.00 150.74 128.70 150.76 129.54 Z M 150.78 130.54 L 150.81 131.55 C 150.83 132.39 151.52 133.06 152.37 133.04 C 153.21 133.02 153.88 132.32 153.86 131.48 L 153.84 130.47 C 153.82 129.63 153.12 128.96 152.28 128.98 C 151.43 128.99 150.76 129.69 150.78 130.54 Z M 150.81 131.54 L 150.82 132.54 C 150.84 133.38 151.54 134.05 152.38 134.04 C 153.22 134.02 153.89 133.32 153.88 132.48 L 153.86 131.49 C 153.85 130.64 153.15 129.97 152.31 129.99 C 151.46 130.00 150.79 130.70 150.81 131.54 Z M 150.82 132.52 L 150.84 133.57 C 150.84 134.41 151.54 135.09 152.38 135.08 C 153.22 135.07 153.90 134.38 153.89 133.53 L 153.88 132.49 C 153.87 131.65 153.18 130.97 152.34 130.98 C 151.49 130.99 150.82 131.68 150.82 132.52 Z M 150.84 133.56 L 150.84 134.56 C 150.84 135.40 151.53 136.08 152.37 136.08 C 153.22 136.08 153.90 135.39 153.89 134.55 L 153.89 133.54 C 153.89 132.70 153.20 132.02 152.36 132.02 C 151.51 132.03 150.83 132.71 150.84 133.56 Z M 150.84 134.55 L 150.84 135.51 C 150.84 136.35 151.53 137.04 152.37 137.04 C 153.21 137.04 153.90 136.35 153.89 135.51 L 153.89 134.55 C 153.89 133.71 153.21 133.03 152.37 133.03 C 151.52 133.03 150.84 133.71 150.84 134.55 Z M 150.84 135.51 L 150.84 136.53 C 150.84 137.37 151.53 138.06 152.37 138.06 C 153.21 138.06 153.89 137.37 153.89 136.53 L 153.89 135.51 C 153.89 134.67 153.21 133.99 152.37 133.99 C 151.53 133.99 150.84 134.67 150.84 135.51 Z M 150.84 136.53 L 150.84 137.53 C 150.84 138.37 151.53 139.05 152.37 139.05 C 153.21 139.05 153.89 138.37 153.89 137.53 L 153.89 136.53 C 153.89 135.69 153.21 135.01 152.37 135.01 C 151.53 135.01 150.84 135.69 150.84 136.53 Z M 150.84 137.53 L 150.84 138.52 C 150.84 139.36 151.53 140.04 152.37 140.04 C 153.21 140.04 153.89 139.36 153.89 138.52 L 153.89 137.53 C 153.89 136.69 153.21 136.00 152.37 136.00 C 151.53 136.00 150.84 136.69 150.84 137.53 Z M 150.85 138.52 L 150.85 139.53 C 150.85 140.37 151.53 141.05 152.37 141.05 C 153.21 141.05 153.89 140.37 153.89 139.53 L 153.89 138.52 C 153.89 137.68 153.21 137.00 152.37 137.00 C 151.53 137.00 150.85 137.68 150.85 138.52 Z M 150.85 139.53 L 150.85 140.51 C 150.85 141.35 151.53 142.03 152.37 142.03 C 153.20 142.03 153.88 141.35 153.88 140.51 L 153.88 139.53 C 153.88 138.70 153.20 138.02 152.37 138.02 C 151.53 138.02 150.85 138.70 150.85 139.53 Z M 150.86 140.51 L 150.86 141.53 C 150.86 142.36 151.53 143.04 152.37 143.04 C 153.20 143.04 153.88 142.36 153.88 141.53 L 153.88 140.51 C 153.88 139.68 153.20 139.00 152.37 139.00 C 151.53 139.00 150.86 139.68 150.86 140.51 Z M 150.86 141.53 L 150.86 142.52 C 150.86 143.35 151.54 144.02 152.37 144.02 C 153.20 144.02 153.88 143.35 153.88 142.52 L 153.88 141.53 C 153.88 140.70 153.20 140.02 152.37 140.02 C 151.54 140.02 150.86 140.70 150.86 141.53 Z M 150.86 142.52 L 150.86 143.49 C 150.86 144.32 151.54 145.00 152.37 145.00 C 153.20 145.00 153.87 144.32 153.87 143.49 L 153.87 142.52 C 153.87 141.69 153.20 141.01 152.37 141.01 C 151.54 141.01 150.86 141.69 150.86 142.52 Z M 150.87 143.49 L 150.87 144.49 C 150.87 145.32 151.54 145.99 152.37 145.99 C 153.20 145.99 153.87 145.32 153.87 144.49 L 153.87 143.49 C 153.87 142.66 153.20 141.99 152.37 141.99 C 151.54 141.99 150.87 142.66 150.87 143.49 Z M 150.87 144.49 L 150.87 145.50 C 150.87 146.32 151.54 146.99 152.37 146.99 C 153.20 146.99 153.87 146.32 153.87 145.50 L 153.87 144.49 C 153.87 143.66 153.20 142.99 152.37 142.99 C 151.54 142.99 150.87 143.66 150.87 144.49 Z M 150.87 145.50 L 150.87 146.50 C 150.87 147.33 151.54 148.00 152.37 148.00 C 153.20 148.00 153.87 147.33 153.87 146.50 L 153.87 145.50 C 153.87 144.67 153.20 144.00 152.37 144.00 C 151.54 144.00 150.87 144.67 150.87 145.50 Z M 150.87 146.50 L 150.87 147.51 C 150.87 148.33 151.54 149.00 152.37 149.00 C 153.19 149.00 153.87 148.33 153.87 147.51 L 153.87 146.50 C 153.87 145.68 153.19 145.01 152.37 145.01 C 151.54 145.01 150.87 145.68 150.87 146.50 Z M 150.87 147.51 L 150.87 148.51 C 150.87 149.34 151.54 150.01 152.37 150.01 C 153.19 150.01 153.87 149.34 153.87 148.51 L 153.87 147.51 C 153.87 146.68 153.19 146.01 152.37 146.01 C 151.54 146.01 150.87 146.68 150.87 147.51 Z M 150.87 148.51 L 150.87 149.50 C 150.87 150.33 151.54 151.00 152.37 151.00 C 153.19 151.00 153.87 150.33 153.87 149.50 L 153.87 148.51 C 153.87 147.68 153.19 147.01 152.37 147.01 C 151.54 147.01 150.87 147.68 150.87 148.51 Z M 150.87 149.50 L 150.87 150.48 C 150.87 151.31 151.54 151.98 152.37 151.98 C 153.19 151.98 153.87 151.31 153.87 150.48 L 153.87 149.50 C 153.87 148.68 153.19 148.01 152.37 148.01 C 151.54 148.01 150.87 148.68 150.87 149.50 Z M 150.87 150.48 L 150.87 151.49 C 150.87 152.31 151.54 152.98 152.37 152.98 C 153.20 152.98 153.87 152.31 153.87 151.49 L 153.87 150.48 C 153.87 149.65 153.20 148.98 152.37 148.98 C 151.54 148.98 150.87 149.65 150.87 150.48 Z M 150.87 151.49 L 150.87 152.49 C 150.87 153.32 151.54 153.99 152.37 153.99 C 153.20 153.99 153.87 153.32 153.87 152.49 L 153.87 151.49 C 153.87 150.66 153.20 149.99 152.37 149.99 C 151.54 149.99 150.87 150.66 150.87 151.49 Z M 150.87 152.49 L 150.87 153.49 C 150.87 154.32 151.54 154.99 152.37 154.99 C 153.20 154.99 153.87 154.32 153.87 153.49 L 153.87 152.49 C 153.87 151.67 153.20 151.00 152.37 151.00 C 151.54 151.00 150.87 151.67 150.87 152.49 Z M 150.87 153.49 L 150.87 154.50 C 150.87 155.33 151.54 156.00 152.37 156.00 C 153.20 156.00 153.87 155.33 153.87 154.50 L 153.87 153.49 C 153.87 152.66 153.20 151.99 152.37 151.99 C 151.54 151.99 150.87 152.66 150.87 153.49 Z M 150.87 154.50 L 150.87 155.50 C 150.87 156.33 151.54 157.00 152.37 157.00 C 153.20 157.00 153.87 156.33 153.87 155.50 L 153.87 154.50 C 153.87 153.68 153.20 153.01 152.37 153.01 C 151.54 153.01 150.87 153.68 150.87 154.50 Z M 150.87 155.50 L 150.87 156.50 C 150.87 157.33 151.54 158.00 152.37 158.00 C 153.20 158.00 153.87 157.33 153.87 156.50 L 153.87 155.50 C 153.87 154.67 153.20 154.00 152.37 154.00 C 151.54 154.00 150.87 154.67 150.87 155.50 Z M 150.87 156.50 L 150.87 157.50 C 150.87 158.33 151.54 159.00 152.37 159.00 C 153.20 159.00 153.87 158.33 153.87 157.50 L 153.87 156.50 C 153.87 155.67 153.20 155.00 152.37 155.00 C 151.54 155.00 150.87 155.67 150.87 156.50 Z M 150.87 157.50 L 150.87 158.49 C 150.87 159.32 151.54 159.99 152.37 159.99 C 153.20 159.99 153.87 159.32 153.87 158.49 L 153.87 157.50 C 153.87 156.67 153.20 156.00 152.37 156.00 C 151.54 156.00 150.87 156.67 150.87 157.50 Z M 150.87 158.49 L 150.87 159.50 C 150.87 160.32 151.54 160.99 152.37 160.99 C 153.20 160.99 153.87 160.32 153.87 159.50 L 153.87 158.49 C 153.87 157.66 153.20 156.99 152.37 156.99 C 151.54 156.99 150.87 157.66 150.87 158.49 Z M 150.87 159.50 L 150.87 160.52 C 150.87 161.35 151.54 162.02 152.37 162.02 C 153.20 162.02 153.87 161.35 153.87 160.52 L 153.87 159.50 C 153.87 158.67 153.20 158.00 152.37 158.00 C 151.54 158.00 150.87 158.67 150.87 159.50 Z M 150.87 160.52 L 150.87 161.54 C 150.87 162.37 151.54 163.04 152.37 163.04 C 153.20 163.04 153.87 162.37 153.87 161.54 L 153.87 160.52 C 153.87 159.70 153.20 159.02 152.37 159.02 C 151.54 159.02 150.87 159.70 150.87 160.52 Z M 150.87 161.54 L 150.87 162.51 C 150.87 163.34 151.54 164.01 152.37 164.01 C 153.20 164.01 153.87 163.34 153.87 162.51 L 153.87 161.54 C 153.87 160.72 153.20 160.05 152.37 160.05 C 151.54 160.05 150.87 160.72 150.87 161.54 Z M 150.87 162.52 L 150.87 163.56 C 150.87 164.39 151.54 165.06 152.37 165.06 C 153.20 165.06 153.87 164.39 153.87 163.56 L 153.87 162.51 C 153.87 161.69 153.19 161.02 152.37 161.02 C 151.54 161.02 150.87 161.69 150.87 162.52 Z M 150.87 163.57 L 150.88 164.54 C 150.88 165.37 151.56 166.03 152.39 166.03 C 153.21 166.02 153.88 165.35 153.87 164.52 L 153.87 163.55 C 153.86 162.73 153.19 162.06 152.36 162.07 C 151.53 162.07 150.87 162.75 150.87 163.57 Z M 150.88 164.56 L 150.90 165.55 C 150.92 166.38 151.60 167.03 152.43 167.02 C 153.26 167.00 153.91 166.31 153.90 165.49 L 153.87 164.50 C 153.86 163.67 153.17 163.01 152.34 163.03 C 151.52 163.05 150.86 163.74 150.88 164.56 Z M 150.90 165.57 L 150.94 166.56 C 150.97 167.39 151.66 168.04 152.49 168.01 C 153.31 167.98 153.96 167.28 153.93 166.46 L 153.89 165.47 C 153.87 164.64 153.17 163.99 152.34 164.02 C 151.52 164.05 150.87 164.74 150.90 165.57 Z M 150.94 166.57 L 150.97 167.56 C 151.01 168.38 151.70 169.03 152.53 169.00 C 153.35 168.96 154.00 168.27 153.97 167.44 L 153.93 166.45 C 153.90 165.63 153.20 164.98 152.38 165.01 C 151.55 165.04 150.90 165.74 150.94 166.57 Z M 150.97 167.54 L 151.00 168.55 C 151.03 169.37 151.72 170.02 152.55 170.00 C 153.37 169.97 154.02 169.28 154.00 168.46 L 153.97 167.45 C 153.94 166.63 153.25 165.98 152.43 166.00 C 151.60 166.03 150.95 166.72 150.97 167.54 Z M 151.00 168.52 L 151.02 169.50 C 151.03 170.33 151.71 170.99 152.53 170.98 C 153.36 170.97 154.02 170.29 154.01 169.46 L 154.00 168.48 C 153.99 167.65 153.31 166.99 152.48 167.00 C 151.65 167.01 150.99 167.69 151.00 168.52 Z M 151.02 169.48 L 151.02 170.50 C 151.02 171.33 151.69 171.99 152.52 171.99 C 153.35 171.99 154.02 171.32 154.01 170.49 L 154.01 169.48 C 154.01 168.65 153.34 167.98 152.51 167.98 C 151.68 167.98 151.01 168.66 151.02 169.48 Z M 151.02 170.50 L 151.02 171.46 C 151.02 172.29 151.69 172.96 152.52 172.96 C 153.34 172.96 154.01 172.29 154.01 171.46 L 154.01 170.50 C 154.01 169.67 153.34 169.00 152.52 169.00 C 151.69 169.00 151.02 169.67 151.02 170.50 Z M 151.02 171.46 L 151.02 172.47 C 151.02 173.30 151.69 173.97 152.52 173.97 C 153.34 173.97 154.01 173.30 154.01 172.47 L 154.01 171.46 C 154.01 170.63 153.34 169.96 152.52 169.96 C 151.69 169.96 151.02 170.63 151.02 171.46 Z M 151.02 172.47 L 151.02 173.48 C 151.02 174.31 151.69 174.98 152.52 174.98 C 153.34 174.98 154.01 174.31 154.01 173.48 L 154.01 172.47 C 154.01 171.64 153.34 170.97 152.52 170.97 C 151.69 170.97 151.02 171.64 151.02 172.47 Z M 151.02 173.48 L 151.02 174.49 C 151.02 175.31 151.69 175.99 152.52 175.99 C 153.34 175.99 154.01 175.31 154.01 174.49 L 154.01 173.48 C 154.01 172.66 153.34 171.99 152.52 171.99 C 151.69 171.99 151.02 172.66 151.02 173.48 Z M 151.02 174.49 L 151.02 175.50 C 151.02 176.33 151.69 177.00 152.52 177.00 C 153.34 177.00 154.01 176.33 154.01 175.50 L 154.01 174.49 C 154.01 173.66 153.34 172.99 152.52 172.99 C 151.69 172.99 151.02 173.66 151.02 174.49 Z M 151.02 175.50 L 151.02 176.51 C 151.02 177.33 151.69 178.00 152.52 178.00 C 153.34 178.00 154.01 177.33 154.01 176.51 L 154.01 175.50 C 154.01 174.67 153.34 174.00 152.52 174.00 C 151.69 174.00 151.02 174.67 151.02 175.50 Z M 151.02 176.51 L 151.02 177.50 C 151.02 178.33 151.69 179.00 152.52 179.00 C 153.34 179.00 154.01 178.33 154.01 177.50 L 154.01 176.51 C 154.01 175.68 153.34 175.01 152.52 175.01 C 151.69 175.01 151.02 175.68 151.02 176.51 Z M 151.02 177.50 L 151.02 178.50 C 151.02 179.32 151.69 179.99 152.52 179.99 C 153.34 179.99 154.01 179.32 154.01 178.50 L 154.01 177.50 C 154.01 176.67 153.34 176.00 152.52 176.00 C 151.69 176.00 151.02 176.67 151.02 177.50 Z M 151.02 178.50 L 151.02 179.49 C 151.02 180.32 151.69 180.99 152.52 180.99 C 153.34 180.99 154.01 180.32 154.01 179.49 L 154.01 178.50 C 154.01 177.67 153.34 177.00 152.52 177.00 C 151.69 177.00 151.02 177.67 151.02 178.50 Z M 151.02 179.49 L 151.02 180.50 C 151.02 181.32 151.69 181.99 152.52 181.99 C 153.34 181.99 154.01 181.32 154.01 180.50 L 154.01 179.49 C 154.01 178.66 153.34 177.99 152.52 177.99 C 151.69 177.99 151.02 178.66 151.02 179.49 Z M 151.02 180.50 L 151.02 181.50 C 151.02 182.33 151.69 183.00 152.52 183.00 C 153.34 183.00 154.01 182.33 154.01 181.50 L 154.01 180.50 C 154.01 179.67 153.34 179.00 152.52 179.00 C 151.69 179.00 151.02 179.67 151.02 180.50 Z M 151.02 181.50 L 151.02 182.51 C 151.02 183.34 151.69 184.01 152.52 184.01 C 153.34 184.01 154.01 183.34 154.01 182.51 L 154.01 181.50 C 154.01 180.68 153.34 180.01 152.52 180.01 C 151.69 180.01 151.02 180.68 151.02 181.50 Z M 151.02 182.51 L 151.02 183.50 C 151.02 184.33 151.69 185.00 152.52 185.00 C 153.34 185.00 154.01 184.33 154.01 183.50 L 154.01 182.51 C 154.01 181.68 153.34 181.01 152.52 181.01 C 151.69 181.01 151.02 181.68 151.02 182.51 Z M 151.02 183.50 L 151.02 184.53 C 151.02 185.35 151.69 186.02 152.52 186.02 C 153.34 186.02 154.01 185.35 154.01 184.53 L 154.01 183.50 C 154.01 182.68 153.34 182.01 152.52 182.01 C 151.69 182.01 151.02 182.68 151.02 183.50 Z M 151.02 184.53 L 151.02 185.53 C 151.02 186.35 151.69 187.02 152.52 187.02 C 153.34 187.02 154.01 186.35 154.01 185.53 L 154.01 184.53 C 154.01 183.70 153.34 183.03 152.52 183.03 C 151.69 183.03 151.02 183.70 151.02 184.53 Z M 151.02 185.53 L 151.02 186.51 C 151.02 187.34 151.69 188.01 152.52 188.01 C 153.34 188.01 154.01 187.34 154.01 186.51 L 154.01 185.53 C 154.01 184.70 153.34 184.03 152.52 184.03 C 151.69 184.03 151.02 184.70 151.02 185.53 Z M 151.02 186.51 L 151.02 187.51 C 151.02 188.33 151.69 189.00 152.52 189.00 C 153.34 189.00 154.01 188.33 154.01 187.51 L 154.01 186.51 C 154.01 185.68 153.34 185.01 152.52 185.01 C 151.69 185.01 151.02 185.68 151.02 186.51 Z M 151.02 187.51 L 151.02 188.50 C 151.02 189.33 151.69 190.00 152.52 190.00 C 153.34 190.00 154.01 189.33 154.01 188.50 L 154.01 187.51 C 154.01 186.68 153.34 186.01 152.52 186.01 C 151.69 186.01 151.02 186.68 151.02 187.51 Z M 151.02 188.50 L 151.02 189.53 C 151.02 190.36 151.69 191.03 152.52 191.03 C 153.34 191.03 154.01 190.36 154.01 189.53 L 154.01 188.50 C 154.01 187.67 153.34 187.00 152.52 187.00 C 151.69 187.00 151.02 187.67 151.02 188.50 Z M 151.02 189.53 L 151.02 190.53 C 151.02 191.36 151.69 192.03 152.52 192.03 C 153.34 192.03 154.01 191.36 154.01 190.53 L 154.01 189.53 C 154.01 188.70 153.34 188.03 152.52 188.03 C 151.69 188.03 151.02 188.70 151.02 189.53 Z M 151.02 190.53 L 151.02 191.55 C 151.02 192.38 151.69 193.05 152.52 193.05 C 153.34 193.05 154.01 192.38 154.01 191.55 L 154.01 190.53 C 154.01 189.71 153.34 189.04 152.52 189.04 C 151.69 189.04 151.02 189.71 151.02 190.53 Z M 151.02 191.55 L 151.02 192.53 C 151.02 193.36 151.69 194.03 152.52 194.03 C 153.34 194.03 154.01 193.36 154.01 192.53 L 154.01 191.55 C 154.01 190.73 153.34 190.06 152.52 190.06 C 151.69 190.06 151.02 190.73 151.02 191.55 Z M 151.02 192.53 L 151.02 193.51 C 151.02 194.33 151.69 195.00 152.52 195.00 C 153.34 195.00 154.01 194.33 154.01 193.51 L 154.01 192.53 C 154.01 191.70 153.34 191.03 152.52 191.03 C 151.69 191.03 151.02 191.70 151.02 192.53 Z M 151.02 193.51 L 151.02 194.50 C 151.02 195.33 151.69 196.00 152.52 196.00 C 153.34 196.00 154.01 195.33 154.01 194.50 L 154.01 193.51 C 154.01 192.68 153.34 192.01 152.52 192.01 C 151.69 192.01 151.02 192.68 151.02 193.51 Z M 151.02 194.50 L 151.02 195.49 C 151.02 196.32 151.69 196.99 152.52 196.99 C 153.34 196.99 154.01 196.32 154.01 195.49 L 154.01 194.50 C 154.01 193.68 153.34 193.01 152.52 193.01 C 151.69 193.01 151.02 193.68 151.02 194.50 Z M 151.02 195.49 L 151.02 196.49 C 151.02 197.32 151.69 197.99 152.52 197.99 C 153.34 197.99 154.01 197.32 154.01 196.49 L 154.01 195.49 C 154.01 194.67 153.34 194.00 152.52 194.00 C 151.69 194.00 151.02 194.67 151.02 195.49 Z M 151.02 196.49 L 151.02 197.48 C 151.02 198.30 151.69 198.97 152.52 198.97 C 153.34 198.97 154.01 198.30 154.01 197.48 L 154.01 196.49 C 154.01 195.66 153.34 194.99 152.52 194.99 C 151.69 194.99 151.02 195.66 151.02 196.49 Z M 151.02 197.48 L 151.02 198.49 C 151.02 199.32 151.69 199.99 152.52 199.99 C 153.34 199.99 154.01 199.32 154.01 198.49 L 154.01 197.48 C 154.01 196.65 153.34 195.98 152.52 195.98 C 151.69 195.98 151.02 196.65 151.02 197.48 Z M 151.02 198.48 L 151.01 199.49 C 151.01 200.32 151.68 200.99 152.50 201.00 C 153.33 201.00 154.00 200.33 154.01 199.51 L 154.01 198.50 C 154.02 197.67 153.35 197.00 152.52 196.99 C 151.70 196.99 151.02 197.66 151.02 198.48 Z M 151.02 199.47 L 151.00 200.49 C 150.98 201.32 151.64 202.00 152.47 202.01 C 153.30 202.02 153.98 201.37 153.99 200.54 L 154.01 199.52 C 154.02 198.70 153.36 198.02 152.54 198.00 C 151.71 197.99 151.03 198.65 151.02 199.47 Z M 151.00 200.47 L 150.97 201.47 C 150.95 202.30 151.60 202.98 152.43 203.01 C 153.25 203.03 153.94 202.38 153.96 201.55 L 153.99 200.56 C 154.01 199.73 153.36 199.04 152.54 199.02 C 151.71 199.00 151.02 199.65 151.00 200.47 Z M 150.97 201.48 L 150.95 202.47 C 150.94 203.30 151.59 203.98 152.42 204.00 C 153.24 204.01 153.93 203.36 153.94 202.53 L 153.96 201.54 C 153.98 200.72 153.32 200.03 152.50 200.02 C 151.67 200.00 150.99 200.66 150.97 201.48 Z M 150.95 202.49 L 150.94 203.49 C 150.93 204.31 151.60 204.99 152.42 205.00 C 153.25 205.01 153.92 204.34 153.93 203.52 L 153.94 202.52 C 153.95 201.69 153.29 201.02 152.46 201.01 C 151.64 201.00 150.96 201.66 150.95 202.49 Z M 150.94 203.47 L 150.92 204.48 C 150.91 205.30 151.56 205.98 152.39 206.00 C 153.21 206.02 153.90 205.36 153.91 204.53 L 153.93 203.53 C 153.95 202.71 153.29 202.02 152.47 202.01 C 151.64 201.99 150.96 202.65 150.94 203.47 Z M 150.92 204.46 L 150.89 205.46 C 150.87 206.29 151.52 206.98 152.35 207.00 C 153.17 207.02 153.86 206.37 153.88 205.55 L 153.91 204.55 C 153.94 203.72 153.28 203.03 152.46 203.01 C 151.63 202.99 150.95 203.64 150.92 204.46 Z M 150.89 205.48 L 150.88 206.49 C 150.86 207.31 151.52 207.99 152.34 208.01 C 153.17 208.02 153.85 207.37 153.87 206.54 L 153.88 205.53 C 153.90 204.71 153.24 204.02 152.42 204.01 C 151.59 204.00 150.91 204.65 150.89 205.48 Z M 150.88 206.49 L 150.86 207.49 C 150.85 208.31 151.51 208.99 152.34 209.00 C 153.16 209.01 153.84 208.35 153.85 207.53 L 153.87 206.53 C 153.88 205.71 153.22 205.03 152.39 205.02 C 151.57 205.01 150.89 205.67 150.88 206.49 Z M 150.86 207.46 L 150.83 208.45 C 150.81 209.28 151.45 209.97 152.28 210.00 C 153.10 210.02 153.79 209.37 153.82 208.55 L 153.85 207.56 C 153.88 206.73 153.23 206.04 152.41 206.01 C 151.58 205.99 150.89 206.63 150.86 207.46 Z M 150.83 208.43 L 150.79 209.43 C 150.75 210.25 151.39 210.95 152.21 210.99 C 153.04 211.03 153.74 210.39 153.77 209.57 L 153.82 208.57 C 153.86 207.74 153.22 207.04 152.40 207.01 C 151.57 206.97 150.87 207.61 150.83 208.43 Z M 150.79 209.43 L 150.74 210.39 C 150.71 211.21 151.35 211.91 152.17 211.95 C 153.00 211.98 153.69 211.35 153.73 210.52 L 153.77 209.56 C 153.81 208.74 153.17 208.04 152.35 208.00 C 151.52 207.97 150.82 208.61 150.79 209.43 Z M 150.74 210.38 L 150.69 211.42 C 150.65 212.24 151.29 212.94 152.11 212.98 C 152.94 213.02 153.64 212.39 153.68 211.56 L 153.73 210.53 C 153.77 209.70 153.14 209.00 152.31 208.96 C 151.49 208.92 150.78 209.56 150.74 210.38 Z M 150.69 211.40 L 150.64 212.39 C 150.59 213.21 151.22 213.92 152.05 213.96 C 152.87 214.01 153.58 213.38 153.62 212.56 L 153.68 211.58 C 153.73 210.75 153.10 210.04 152.27 210.00 C 151.45 209.95 150.74 210.58 150.69 211.40 Z M 150.64 212.38 L 150.57 213.40 C 150.52 214.22 151.15 214.93 151.97 214.98 C 152.80 215.04 153.51 214.41 153.56 213.59 L 153.62 212.57 C 153.68 211.74 153.05 211.03 152.23 210.98 C 151.40 210.93 150.69 211.55 150.64 212.38 Z M 150.57 213.39 L 150.51 214.38 C 150.45 215.21 151.07 215.92 151.90 215.98 C 152.72 216.03 153.43 215.41 153.49 214.59 L 153.56 213.59 C 153.61 212.77 152.99 212.05 152.17 212.00 C 151.34 211.94 150.63 212.56 150.57 213.39 Z M 150.51 214.39 L 150.44 215.38 C 150.39 216.21 151.02 216.92 151.84 216.97 C 152.66 217.02 153.38 216.40 153.43 215.57 L 153.49 214.58 C 153.54 213.76 152.92 213.04 152.09 212.99 C 151.27 212.94 150.56 213.57 150.51 214.39 Z M 150.44 215.40 L 150.39 216.36 C 150.35 217.19 150.99 217.89 151.81 217.93 C 152.64 217.97 153.34 217.34 153.38 216.51 L 153.43 215.55 C 153.47 214.73 152.83 214.03 152.01 213.99 C 151.18 213.94 150.48 214.58 150.44 215.40 Z M 150.39 216.38 L 150.36 217.34 C 150.33 218.17 150.97 218.86 151.79 218.89 C 152.62 218.93 153.31 218.28 153.35 217.46 L 153.38 216.50 C 153.41 215.67 152.77 214.98 151.94 214.94 C 151.12 214.91 150.42 215.56 150.39 216.38 Z M 150.36 217.35 L 150.32 218.41 C 150.29 219.24 150.94 219.93 151.76 219.96 C 152.59 219.99 153.28 219.34 153.31 218.52 L 153.35 217.45 C 153.37 216.63 152.73 215.93 151.90 215.90 C 151.08 215.88 150.39 216.52 150.36 217.35 Z M 150.32 218.41 L 150.28 219.38 C 150.25 220.20 150.90 220.89 151.72 220.92 C 152.55 220.95 153.24 220.31 153.27 219.48 L 153.31 218.52 C 153.34 217.69 152.69 217.00 151.87 216.97 C 151.04 216.94 150.35 217.59 150.32 218.41 Z M 150.28 219.38 L 150.25 220.37 C 150.22 221.20 150.86 221.89 151.69 221.92 C 152.52 221.95 153.21 221.30 153.24 220.48 L 153.27 219.48 C 153.30 218.66 152.66 217.97 151.83 217.94 C 151.01 217.91 150.31 218.55 150.28 219.38 Z M 150.25 220.38 L 150.22 221.41 C 150.19 222.24 150.84 222.93 151.67 222.95 C 152.49 222.98 153.18 222.33 153.21 221.50 L 153.24 220.47 C 153.26 219.65 152.61 218.96 151.79 218.93 C 150.96 218.91 150.27 219.55 150.25 220.38 Z M 150.22 221.43 L 150.19 222.48 C 150.18 223.31 150.83 223.99 151.66 224.01 C 152.48 224.03 153.17 223.37 153.18 222.54 L 153.21 221.49 C 153.22 220.67 152.57 219.98 151.74 219.96 C 150.92 219.95 150.23 220.60 150.22 221.43 Z M 150.19 222.50 L 150.18 223.54 C 150.17 224.37 150.83 225.05 151.66 225.06 C 152.49 225.07 153.16 224.40 153.17 223.58 L 153.18 222.53 C 153.19 221.70 152.53 221.03 151.71 221.02 C 150.88 221.01 150.20 221.67 150.19 222.50 Z M 150.18 223.55 L 150.18 224.55 C 150.17 225.38 150.84 226.05 151.67 226.05 C 152.49 226.06 153.16 225.39 153.17 224.56 L 153.17 223.57 C 153.18 222.74 152.51 222.07 151.68 222.07 C 150.86 222.06 150.19 222.73 150.18 223.55 Z M 150.18 224.56 L 150.18 225.50 C 150.18 226.32 150.85 226.99 151.67 226.99 C 152.50 226.99 153.17 226.33 153.17 225.50 L 153.17 224.56 C 153.17 223.73 152.50 223.06 151.67 223.06 C 150.85 223.06 150.18 223.73 150.18 224.56 Z M 150.18 225.50 L 150.18 226.59 C 150.18 227.42 150.85 228.09 151.67 228.09 C 152.50 228.09 153.17 227.42 153.17 226.59 L 153.17 225.50 C 153.17 224.67 152.50 224.00 151.67 224.00 C 150.85 224.00 150.18 224.67 150.18 225.50 Z M 150.18 226.59 L 150.18 227.53 C 150.18 228.36 150.85 229.03 151.67 229.03 C 152.50 229.03 153.17 228.36 153.17 227.53 L 153.17 226.59 C 153.17 225.77 152.50 225.10 151.67 225.10 C 150.85 225.10 150.18 225.77 150.18 226.59 Z M 150.18 227.54 L 150.18 228.50 C 150.18 229.33 150.85 229.99 151.68 229.99 C 152.50 229.99 153.17 229.32 153.17 228.50 L 153.17 227.53 C 153.16 226.71 152.49 226.04 151.67 226.04 C 150.85 226.04 150.18 226.71 150.18 227.54 Z M 150.18 228.54 L 150.21 229.53 C 150.23 230.35 150.92 231.00 151.75 230.98 C 152.57 230.95 153.22 230.27 153.19 229.44 L 153.17 228.46 C 153.14 227.63 152.46 226.99 151.63 227.01 C 150.81 227.03 150.16 227.72 150.18 228.54 Z M 150.22 229.62 L 150.30 230.60 C 150.38 231.42 151.10 232.03 151.92 231.96 C 152.74 231.89 153.35 231.16 153.27 230.34 L 153.19 229.35 C 153.12 228.53 152.39 227.93 151.57 228.00 C 150.75 228.07 150.14 228.79 150.22 229.62 Z M 150.31 230.65 L 150.43 231.65 C 150.52 232.46 151.26 233.05 152.08 232.96 C 152.90 232.86 153.48 232.12 153.39 231.30 L 153.27 230.30 C 153.17 229.48 152.43 228.90 151.62 228.99 C 150.80 229.09 150.21 229.83 150.31 230.65 Z M 150.42 231.60 L 150.51 232.63 C 150.58 233.45 151.31 234.05 152.13 233.98 C 152.95 233.91 153.55 233.18 153.48 232.36 L 153.39 231.34 C 153.32 230.52 152.60 229.92 151.78 229.99 C 150.95 230.06 150.35 230.78 150.42 231.60 Z M 150.51 232.56 L 150.55 233.55 C 150.59 234.37 151.28 235.01 152.10 234.97 C 152.93 234.94 153.56 234.24 153.53 233.42 L 153.49 232.43 C 153.45 231.61 152.75 230.97 151.93 231.01 C 151.11 231.04 150.47 231.74 150.51 232.56 Z M 150.55 233.51 L 150.57 234.51 C 150.58 235.33 151.26 235.99 152.08 235.98 C 152.90 235.96 153.56 235.28 153.54 234.46 L 153.53 233.46 C 153.52 232.64 152.84 231.98 152.02 231.99 C 151.19 232.01 150.54 232.68 150.55 233.51 Z M 150.57 234.49 L 150.57 235.47 C 150.57 236.29 151.24 236.96 152.06 236.96 C 152.88 236.95 153.55 236.29 153.55 235.46 L 153.54 234.48 C 153.54 233.66 152.87 233.00 152.05 233.00 C 151.23 233.00 150.57 233.67 150.57 234.49 Z M 150.57 235.47 L 150.57 236.47 C 150.57 237.29 151.24 237.95 152.06 237.95 C 152.88 237.95 153.54 237.29 153.54 236.47 L 153.54 235.47 C 153.54 234.65 152.88 233.98 152.06 233.98 C 151.24 233.98 150.57 234.65 150.57 235.47 Z M 150.57 236.47 L 150.57 237.02 C 150.57 237.84 151.24 238.50 152.06 238.50 C 152.88 238.50 153.54 237.84 153.54 237.02 L 153.54 236.47 C 153.54 235.65 152.88 234.98 152.06 234.98 C 151.24 234.98 150.57 235.65 150.57 236.47 Z"
      fill="black"
      fill-rule="nonzero" /><path d="M 109.30 188.89 L 108.61 188.16 C 108.07 187.57 107.15 187.54 106.57 188.09 C 105.98 188.63 105.95 189.55 106.50 190.13 L 107.19 190.87 C 107.73 191.45 108.65 191.49 109.23 190.94 C 109.82 190.39 109.85 189.48 109.30 188.89 Z M 108.61 188.14 L 107.89 187.38 C 107.34 186.80 106.41 186.78 105.83 187.34 C 105.25 187.89 105.23 188.82 105.78 189.40 L 106.50 190.15 C 107.06 190.73 107.98 190.75 108.56 190.20 C 109.15 189.64 109.17 188.72 108.61 188.14 Z M 108.00 187.48 L 107.39 186.70 C 106.89 186.06 105.96 185.94 105.32 186.45 C 104.67 186.95 104.56 187.88 105.06 188.52 L 105.67 189.30 C 106.18 189.95 107.11 190.06 107.75 189.56 C 108.39 189.05 108.51 188.12 108.00 187.48 Z M 106.20 189.11 L 106.85 189.13 C 107.68 189.14 108.36 188.48 108.38 187.65 C 108.39 186.82 107.73 186.14 106.91 186.12 L 106.26 186.11 C 105.43 186.10 104.74 186.75 104.73 187.58 C 104.71 188.41 105.37 189.10 106.20 189.11 Z M 106.36 189.04 L 107.46 189.44 C 108.24 189.73 109.11 189.32 109.39 188.53 C 109.68 187.75 109.27 186.88 108.49 186.60 L 107.39 186.20 C 106.61 185.92 105.74 186.33 105.46 187.11 C 105.17 187.90 105.58 188.76 106.36 189.04 Z M 107.32 189.39 L 108.16 189.79 C 108.91 190.15 109.82 189.84 110.18 189.08 C 110.54 188.33 110.23 187.42 109.47 187.06 L 108.63 186.66 C 107.87 186.29 106.97 186.61 106.61 187.37 C 106.25 188.12 106.56 189.02 107.32 189.39 Z M 108.08 189.75 L 109.04 190.28 C 109.77 190.69 110.69 190.42 111.10 189.69 C 111.50 188.96 111.24 188.03 110.51 187.63 L 109.55 187.10 C 108.82 186.69 107.89 186.96 107.49 187.69 C 107.08 188.42 107.35 189.35 108.08 189.75 Z M 109.00 190.27 L 109.82 190.74 C 110.55 191.17 111.48 190.92 111.90 190.20 C 112.32 189.47 112.08 188.54 111.35 188.12 L 110.54 187.64 C 109.81 187.22 108.88 187.46 108.46 188.19 C 108.04 188.91 108.28 189.84 109.00 190.27 Z M 109.80 190.73 L 110.68 191.26 C 111.40 191.70 112.33 191.47 112.77 190.75 C 113.20 190.03 112.97 189.10 112.25 188.66 L 111.38 188.13 C 110.66 187.69 109.72 187.92 109.29 188.64 C 108.85 189.36 109.08 190.30 109.80 190.73 Z M 110.65 191.25 L 111.52 191.80 C 112.23 192.25 113.17 192.04 113.62 191.33 C 114.07 190.62 113.86 189.68 113.15 189.23 L 112.28 188.68 C 111.57 188.23 110.63 188.44 110.18 189.15 C 109.73 189.86 109.94 190.80 110.65 191.25 Z M 111.48 191.78 L 112.34 192.36 C 113.04 192.83 113.99 192.65 114.46 191.95 C 114.93 191.25 114.75 190.30 114.05 189.83 L 113.19 189.25 C 112.49 188.78 111.54 188.96 111.07 189.66 C 110.60 190.36 110.78 191.31 111.48 191.78 Z M 112.30 192.33 L 113.10 192.91 C 113.78 193.41 114.73 193.26 115.23 192.58 C 115.73 191.90 115.58 190.94 114.90 190.45 L 114.10 189.86 C 113.41 189.37 112.46 189.52 111.96 190.20 C 111.47 190.88 111.62 191.83 112.30 192.33 Z M 113.06 192.88 L 113.82 193.48 C 114.49 194.00 115.45 193.88 115.97 193.22 C 116.49 192.55 116.37 191.59 115.70 191.07 L 114.94 190.47 C 114.27 189.96 113.31 190.07 112.79 190.74 C 112.27 191.41 112.39 192.37 113.06 192.88 Z M 113.79 193.46 L 114.60 194.13 C 115.25 194.67 116.22 194.57 116.76 193.92 C 117.29 193.27 117.20 192.31 116.55 191.77 L 115.73 191.10 C 115.08 190.56 114.12 190.65 113.58 191.30 C 113.04 191.96 113.14 192.92 113.79 193.46 Z M 114.57 194.10 L 115.33 194.77 C 115.97 195.32 116.94 195.26 117.49 194.62 C 118.05 193.98 117.98 193.02 117.34 192.46 L 116.58 191.80 C 115.94 191.24 114.98 191.31 114.42 191.94 C 113.87 192.58 113.93 193.55 114.57 194.10 Z M 115.29 194.73 L 116.01 195.41 C 116.63 195.98 117.59 195.96 118.17 195.34 C 118.75 194.72 118.72 193.76 118.11 193.18 L 117.39 192.50 C 116.77 191.92 115.80 191.95 115.22 192.56 C 114.65 193.18 114.67 194.15 115.29 194.73 Z M 115.94 195.34 L 116.63 196.07 C 117.21 196.69 118.18 196.72 118.79 196.14 C 119.41 195.56 119.44 194.59 118.86 193.97 L 118.18 193.24 C 117.60 192.63 116.63 192.60 116.01 193.17 C 115.39 193.75 115.36 194.72 115.94 195.34 Z M 116.59 196.03 L 117.20 196.73 C 117.75 197.37 118.72 197.44 119.36 196.88 C 120.00 196.33 120.07 195.36 119.51 194.72 L 118.90 194.02 C 118.35 193.38 117.38 193.31 116.74 193.86 C 116.10 194.42 116.03 195.39 116.59 196.03 Z M 117.17 196.70 L 117.82 197.48 C 118.35 198.13 119.32 198.22 119.97 197.68 C 120.62 197.14 120.72 196.18 120.18 195.52 L 119.53 194.75 C 119.00 194.10 118.03 194.01 117.38 194.54 C 116.73 195.08 116.63 196.05 117.17 196.70 Z M 117.77 197.42 L 118.36 198.21 C 118.87 198.89 119.83 199.02 120.50 198.52 C 121.18 198.01 121.32 197.05 120.81 196.37 L 120.22 195.58 C 119.72 194.91 118.76 194.77 118.08 195.27 C 117.40 195.78 117.26 196.74 117.77 197.42 Z M 118.32 198.15 L 118.88 198.98 C 119.35 199.68 120.30 199.87 121.01 199.39 C 121.71 198.92 121.89 197.97 121.42 197.26 L 120.86 196.43 C 120.38 195.73 119.43 195.55 118.73 196.02 C 118.03 196.49 117.84 197.45 118.32 198.15 Z M 118.84 198.93 L 119.36 199.76 C 119.80 200.48 120.75 200.71 121.47 200.26 C 122.19 199.82 122.41 198.88 121.97 198.16 L 121.45 197.32 C 121.01 196.60 120.06 196.37 119.34 196.82 C 118.62 197.26 118.40 198.21 118.84 198.93 Z M 119.34 199.73 L 119.85 200.61 C 120.27 201.34 121.21 201.59 121.95 201.16 C 122.68 200.74 122.93 199.80 122.50 199.07 L 121.99 198.19 C 121.56 197.46 120.63 197.21 119.89 197.63 C 119.16 198.06 118.91 199.00 119.34 199.73 Z M 119.83 200.58 L 120.32 201.46 C 120.73 202.20 121.66 202.47 122.40 202.06 C 123.15 201.65 123.41 200.72 123.00 199.98 L 122.52 199.10 C 122.11 198.36 121.17 198.09 120.43 198.50 C 119.69 198.91 119.42 199.84 119.83 200.58 Z M 120.30 201.41 L 120.75 202.32 C 121.14 203.07 122.06 203.37 122.82 202.99 C 123.57 202.61 123.87 201.68 123.49 200.93 L 123.03 200.03 C 122.65 199.27 121.72 198.97 120.97 199.35 C 120.21 199.74 119.91 200.66 120.30 201.41 Z M 120.73 202.26 L 121.14 203.17 C 121.49 203.94 122.40 204.28 123.17 203.93 C 123.94 203.58 124.28 202.67 123.93 201.90 L 123.52 200.99 C 123.17 200.22 122.26 199.88 121.49 200.23 C 120.72 200.58 120.38 201.49 120.73 202.26 Z M 121.13 203.14 L 121.51 204.05 C 121.85 204.82 122.75 205.19 123.53 204.85 C 124.31 204.52 124.67 203.62 124.33 202.84 L 123.95 201.93 C 123.61 201.15 122.71 200.79 121.93 201.12 C 121.15 201.46 120.79 202.36 121.13 203.14 Z M 121.51 204.03 L 121.89 204.96 C 122.22 205.74 123.12 206.11 123.90 205.78 C 124.68 205.46 125.05 204.56 124.72 203.78 L 124.34 202.85 C 124.02 202.07 123.12 201.70 122.34 202.03 C 121.55 202.35 121.18 203.25 121.51 204.03 Z M 121.88 204.94 L 122.26 205.87 C 122.57 206.65 123.46 207.04 124.25 206.72 C 125.04 206.41 125.42 205.51 125.11 204.73 L 124.73 203.80 C 124.42 203.01 123.53 202.63 122.74 202.94 C 121.95 203.26 121.57 204.15 121.88 204.94 Z M 122.25 205.84 L 122.60 206.77 C 122.90 207.57 123.78 207.97 124.58 207.67 C 125.37 207.37 125.77 206.48 125.47 205.69 L 125.12 204.75 C 124.82 203.96 123.93 203.56 123.14 203.86 C 122.34 204.16 121.95 205.05 122.25 205.84 Z M 122.59 206.74 L 122.92 207.69 C 123.20 208.49 124.08 208.91 124.88 208.62 C 125.68 208.34 126.10 207.46 125.82 206.67 L 125.48 205.72 C 125.20 204.92 124.32 204.50 123.52 204.78 C 122.72 205.06 122.30 205.94 122.59 206.74 Z M 122.91 207.66 L 123.23 208.61 C 123.50 209.42 124.37 209.85 125.17 209.59 C 125.98 209.32 126.41 208.45 126.14 207.64 L 125.82 206.69 C 125.56 205.89 124.69 205.45 123.88 205.72 C 123.08 205.99 122.64 206.86 122.91 207.66 Z M 123.23 208.61 L 123.54 209.55 C 123.81 210.36 124.67 210.80 125.48 210.53 C 126.29 210.26 126.72 209.40 126.46 208.59 L 126.14 207.65 C 125.88 206.84 125.01 206.40 124.20 206.67 C 123.40 206.94 122.96 207.81 123.23 208.61 Z M 123.54 209.57 L 123.86 210.51 C 124.13 211.31 125.01 211.74 125.81 211.47 C 126.61 211.20 127.04 210.32 126.77 209.52 L 126.45 208.58 C 126.18 207.78 125.31 207.35 124.50 207.62 C 123.70 207.89 123.27 208.76 123.54 209.57 Z M 123.86 210.51 L 124.18 211.43 C 124.46 212.23 125.33 212.66 126.13 212.38 C 126.94 212.11 127.36 211.23 127.09 210.43 L 126.77 209.51 C 126.49 208.71 125.62 208.28 124.82 208.56 C 124.01 208.84 123.59 209.71 123.86 210.51 Z M 124.18 211.43 L 124.50 212.35 C 124.77 213.16 125.65 213.58 126.45 213.30 C 127.25 213.03 127.68 212.15 127.40 211.35 L 127.09 210.43 C 126.81 209.63 125.93 209.20 125.13 209.48 C 124.33 209.76 123.90 210.63 124.18 211.43 Z M 124.49 212.35 L 124.83 213.34 C 125.11 214.14 125.98 214.57 126.78 214.30 C 127.59 214.03 128.02 213.15 127.74 212.35 L 127.41 211.36 C 127.13 210.55 126.26 210.12 125.45 210.40 C 124.65 210.67 124.22 211.54 124.49 212.35 Z M 124.83 213.34 L 125.15 214.28 C 125.42 215.08 126.29 215.51 127.10 215.24 C 127.90 214.97 128.33 214.10 128.06 213.29 L 127.75 212.35 C 127.47 211.55 126.60 211.12 125.80 211.39 C 124.99 211.66 124.56 212.53 124.83 213.34 Z M 125.15 214.29 L 125.49 215.25 C 125.76 216.05 126.64 216.48 127.44 216.20 C 128.25 215.92 128.67 215.05 128.39 214.24 L 128.06 213.28 C 127.78 212.48 126.90 212.05 126.10 212.33 C 125.30 212.61 124.87 213.48 125.15 214.29 Z M 125.50 215.28 L 125.84 216.20 C 126.13 217.00 127.02 217.41 127.81 217.11 C 128.61 216.82 129.02 215.93 128.72 215.14 L 128.38 214.22 C 128.09 213.42 127.20 213.01 126.41 213.30 C 125.61 213.60 125.20 214.48 125.50 215.28 Z M 125.85 216.25 L 126.22 217.14 C 126.54 217.93 127.43 218.31 128.22 217.99 C 129.01 217.67 129.39 216.77 129.07 215.98 L 128.71 215.09 C 128.39 214.30 127.49 213.92 126.70 214.24 C 125.91 214.56 125.53 215.46 125.85 216.25 Z M 126.24 217.19 L 126.66 218.13 C 127.01 218.91 127.92 219.25 128.70 218.90 C 129.47 218.56 129.82 217.64 129.47 216.87 L 129.05 215.93 C 128.70 215.15 127.79 214.81 127.01 215.16 C 126.23 215.50 125.89 216.42 126.24 217.19 Z M 126.68 218.17 L 127.12 219.07 C 127.49 219.83 128.41 220.15 129.17 219.78 C 129.94 219.41 130.26 218.49 129.89 217.72 L 129.45 216.83 C 129.08 216.06 128.16 215.74 127.39 216.12 C 126.63 216.49 126.31 217.41 126.68 218.17 Z M 127.13 219.09 L 127.59 220.00 C 127.97 220.76 128.90 221.06 129.66 220.68 C 130.42 220.29 130.72 219.36 130.33 218.61 L 129.87 217.70 C 129.49 216.94 128.56 216.64 127.80 217.02 C 127.05 217.41 126.74 218.33 127.13 219.09 Z M 127.59 220.01 L 128.06 220.92 C 128.45 221.68 129.38 221.97 130.14 221.58 C 130.89 221.19 131.19 220.26 130.80 219.50 L 130.33 218.59 C 129.94 217.84 129.01 217.54 128.25 217.93 C 127.50 218.33 127.20 219.25 127.59 220.01 Z M 128.06 220.92 L 128.55 221.86 C 128.95 222.62 129.88 222.91 130.63 222.52 C 131.39 222.13 131.68 221.19 131.29 220.44 L 130.80 219.50 C 130.40 218.75 129.47 218.45 128.72 218.85 C 127.96 219.24 127.67 220.17 128.06 220.92 Z M 128.55 221.86 L 129.05 222.81 C 129.44 223.57 130.37 223.86 131.12 223.47 C 131.88 223.08 132.17 222.15 131.78 221.40 L 131.29 220.44 C 130.90 219.69 129.97 219.39 129.21 219.78 C 128.46 220.17 128.16 221.10 128.55 221.86 Z M 129.04 222.80 L 129.45 223.62 C 129.84 224.38 130.76 224.68 131.52 224.30 C 132.28 223.91 132.59 222.99 132.20 222.23 L 131.79 221.41 C 131.40 220.65 130.48 220.35 129.72 220.73 C 128.96 221.11 128.66 222.04 129.04 222.80 Z M 129.44 223.59 L 129.88 224.50 C 130.24 225.27 131.16 225.60 131.93 225.23 C 132.70 224.86 133.02 223.94 132.65 223.17 L 132.22 222.26 C 131.85 221.49 130.93 221.16 130.16 221.53 C 129.39 221.90 129.07 222.82 129.44 223.59 Z M 129.87 224.48 L 130.25 225.33 C 130.61 226.10 131.52 226.44 132.30 226.08 C 133.07 225.73 133.41 224.81 133.05 224.04 L 132.66 223.20 C 132.31 222.42 131.39 222.08 130.62 222.44 C 129.85 222.79 129.51 223.71 129.87 224.48 Z M 130.27 225.35 L 130.69 226.23 C 131.06 226.99 131.98 227.31 132.75 226.94 C 133.51 226.57 133.83 225.65 133.46 224.88 L 133.04 224.01 C 132.67 223.25 131.75 222.93 130.98 223.30 C 130.22 223.67 129.90 224.59 130.27 225.35 Z M 130.69 226.23 L 131.14 227.15 C 131.51 227.91 132.43 228.23 133.20 227.85 C 133.96 227.48 134.28 226.56 133.91 225.79 L 133.46 224.88 C 133.08 224.11 132.16 223.80 131.40 224.17 C 130.63 224.54 130.32 225.47 130.69 226.23 Z M 131.13 227.13 L 131.57 228.05 C 131.94 228.81 132.86 229.14 133.62 228.77 C 134.39 228.41 134.71 227.49 134.35 226.72 L 133.91 225.81 C 133.55 225.04 132.63 224.71 131.86 225.08 C 131.09 225.45 130.77 226.37 131.13 227.13 Z M 131.57 228.04 L 132.01 228.96 C 132.37 229.73 133.29 230.06 134.06 229.69 C 134.82 229.33 135.15 228.41 134.79 227.64 L 134.35 226.72 C 133.98 225.95 133.07 225.63 132.30 225.99 C 131.53 226.36 131.20 227.27 131.57 228.04 Z M 132.01 228.96 L 132.43 229.85 C 132.79 230.62 133.71 230.95 134.48 230.58 C 135.25 230.22 135.57 229.30 135.21 228.53 L 134.79 227.64 C 134.42 226.87 133.50 226.55 132.73 226.91 C 131.97 227.28 131.64 228.20 132.01 228.96 Z M 132.43 229.86 L 132.86 230.75 C 133.23 231.52 134.15 231.84 134.91 231.47 C 135.68 231.10 136.00 230.19 135.63 229.42 L 135.21 228.53 C 134.84 227.76 133.92 227.44 133.15 227.80 C 132.39 228.17 132.06 229.09 132.43 229.86 Z M 132.88 230.79 L 133.33 231.68 C 133.72 232.43 134.65 232.73 135.40 232.35 C 136.16 231.96 136.46 231.03 136.07 230.28 L 135.62 229.38 C 135.23 228.63 134.30 228.33 133.55 228.72 C 132.79 229.10 132.49 230.03 132.88 230.79 Z M 133.36 231.72 L 133.84 232.59 C 134.25 233.34 135.18 233.61 135.93 233.20 C 136.67 232.79 136.94 231.85 136.53 231.11 L 136.05 230.23 C 135.64 229.49 134.70 229.22 133.96 229.63 C 133.22 230.04 132.95 230.97 133.36 231.72 Z M 133.83 232.58 L 134.31 233.46 C 134.71 234.21 135.64 234.49 136.39 234.09 C 137.14 233.69 137.42 232.76 137.01 232.01 L 136.54 231.12 C 136.14 230.37 135.20 230.09 134.46 230.50 C 133.71 230.90 133.43 231.83 133.83 232.58 Z M 134.29 233.44 L 134.75 234.33 C 135.14 235.08 136.07 235.38 136.82 234.99 C 137.58 234.60 137.87 233.68 137.48 232.92 L 137.03 232.03 C 136.64 231.28 135.71 230.98 134.96 231.37 C 134.20 231.76 133.91 232.69 134.29 233.44 Z M 134.76 234.33 L 135.18 235.15 C 135.57 235.90 136.50 236.20 137.25 235.81 C 138.01 235.41 138.30 234.49 137.91 233.73 L 137.48 232.92 C 137.09 232.16 136.16 231.87 135.41 232.26 C 134.66 232.65 134.36 233.58 134.76 234.33 Z M 135.19 235.17 L 135.70 236.11 C 136.10 236.86 137.03 237.14 137.78 236.74 C 138.52 236.33 138.80 235.40 138.40 234.66 L 137.90 233.72 C 137.50 232.97 136.56 232.69 135.82 233.09 C 135.07 233.49 134.79 234.42 135.19 235.17 Z M 135.71 236.12 L 136.15 236.92 C 136.56 237.66 137.49 237.93 138.23 237.52 C 138.97 237.11 139.24 236.18 138.83 235.44 L 138.39 234.64 C 137.98 233.90 137.05 233.63 136.31 234.04 C 135.56 234.45 135.30 235.38 135.71 236.12 Z M 136.16 236.94 L 136.66 237.82 C 137.08 238.56 138.02 238.82 138.76 238.39 C 139.49 237.97 139.75 237.04 139.33 236.30 L 138.82 235.42 C 138.40 234.68 137.46 234.43 136.73 234.85 C 135.99 235.27 135.74 236.21 136.16 236.94 Z M 136.68 237.85 L 137.24 238.79 C 137.67 239.51 138.62 239.75 139.34 239.31 C 140.07 238.88 140.31 237.93 139.87 237.21 L 139.31 236.27 C 138.87 235.55 137.93 235.31 137.20 235.75 C 136.48 236.18 136.24 237.13 136.68 237.85 Z M 137.26 238.81 L 137.82 239.71 C 138.27 240.42 139.22 240.64 139.93 240.19 C 140.65 239.73 140.87 238.79 140.41 238.07 L 139.85 237.18 C 139.40 236.46 138.45 236.25 137.74 236.70 C 137.02 237.15 136.80 238.10 137.26 238.81 Z M 137.82 239.72 L 138.37 240.57 C 138.83 241.28 139.78 241.49 140.49 241.03 C 141.21 240.58 141.41 239.63 140.96 238.91 L 140.41 238.06 C 139.95 237.35 139.00 237.14 138.29 237.60 C 137.57 238.05 137.37 239.00 137.82 239.72 Z M 138.36 240.56 L 138.87 241.36 C 139.32 242.08 140.26 242.29 140.98 241.84 C 141.70 241.39 141.92 240.45 141.47 239.73 L 140.96 238.93 C 140.51 238.21 139.57 237.99 138.85 238.44 C 138.13 238.89 137.91 239.84 138.36 240.56 Z M 138.83 241.31 L 139.37 242.24 C 139.79 242.98 140.73 243.24 141.46 242.82 C 142.20 242.40 142.46 241.46 142.04 240.72 L 141.50 239.78 C 141.08 239.05 140.14 238.79 139.41 239.21 C 138.67 239.63 138.41 240.57 138.83 241.31 Z M 139.32 242.15 L 139.71 242.96 C 140.08 243.72 140.99 244.04 141.76 243.67 C 142.52 243.31 142.84 242.39 142.47 241.63 L 142.09 240.82 C 141.72 240.06 140.80 239.73 140.04 240.10 C 139.27 240.47 138.95 241.38 139.32 242.15 Z M 139.66 242.84 L 140.02 243.77 C 140.32 244.56 141.21 244.96 142.00 244.65 C 142.79 244.35 143.19 243.46 142.88 242.67 L 142.52 241.74 C 142.22 240.95 141.33 240.56 140.54 240.86 C 139.75 241.17 139.36 242.05 139.66 242.84 Z M 139.98 243.65 L 140.26 244.61 C 140.50 245.43 141.35 245.89 142.16 245.65 C 142.98 245.42 143.44 244.57 143.20 243.75 L 142.92 242.79 C 142.68 241.98 141.83 241.51 141.02 241.75 C 140.21 241.99 139.74 242.84 139.98 243.65 Z M 140.24 244.52 L 140.46 245.50 C 140.64 246.33 141.46 246.85 142.29 246.66 C 143.12 246.48 143.63 245.66 143.45 244.83 L 143.23 243.85 C 143.04 243.02 142.22 242.50 141.39 242.69 C 140.57 242.87 140.05 243.70 140.24 244.52 Z M 140.45 245.44 L 140.62 246.42 C 140.77 247.25 141.57 247.80 142.40 247.66 C 143.23 247.51 143.79 246.71 143.64 245.88 L 143.46 244.90 C 143.31 244.06 142.52 243.51 141.68 243.66 C 140.85 243.81 140.30 244.60 140.45 245.44 Z M 140.61 246.37 L 140.76 247.36 C 140.88 248.19 141.66 248.77 142.50 248.65 C 143.33 248.52 143.91 247.75 143.79 246.91 L 143.64 245.92 C 143.52 245.09 142.74 244.51 141.91 244.63 C 141.07 244.76 140.49 245.53 140.61 246.37 Z M 140.76 247.35 L 140.91 248.35 C 141.03 249.18 141.81 249.76 142.64 249.64 C 143.48 249.51 144.06 248.74 143.93 247.90 L 143.79 246.91 C 143.66 246.07 142.89 245.50 142.05 245.62 C 141.22 245.74 140.64 246.52 140.76 247.35 Z M 140.93 248.45 L 141.15 249.46 C 141.33 250.28 142.14 250.81 142.96 250.63 C 143.79 250.45 144.31 249.64 144.13 248.81 L 143.91 247.80 C 143.73 246.98 142.92 246.45 142.10 246.63 C 141.27 246.81 140.75 247.62 140.93 248.45 Z M 141.31 249.88 L 141.78 250.72 C 142.19 251.46 143.12 251.72 143.85 251.31 C 144.59 250.90 144.85 249.97 144.44 249.23 L 143.97 248.39 C 143.56 247.66 142.63 247.40 141.90 247.81 C 141.16 248.22 140.90 249.14 141.31 249.88 Z M 142.90 251.48 L 143.77 251.60 C 144.60 251.72 145.36 251.14 145.48 250.31 C 145.59 249.47 145.01 248.71 144.18 248.59 L 143.32 248.47 C 142.49 248.36 141.72 248.94 141.60 249.77 C 141.49 250.60 142.07 251.37 142.90 251.48 Z M 144.76 251.40 L 145.61 250.88 C 146.32 250.45 146.55 249.52 146.12 248.80 C 145.68 248.08 144.75 247.85 144.03 248.29 L 143.19 248.80 C 142.47 249.23 142.24 250.17 142.67 250.88 C 143.11 251.60 144.04 251.83 144.76 251.40 Z M 145.99 250.55 L 146.59 249.82 C 147.12 249.17 147.03 248.21 146.38 247.68 C 145.73 247.15 144.78 247.24 144.25 247.89 L 143.65 248.62 C 143.11 249.27 143.21 250.23 143.85 250.76 C 144.50 251.29 145.46 251.20 145.99 250.55 Z M 146.68 249.70 L 147.29 248.79 C 147.76 248.10 147.58 247.15 146.88 246.68 C 146.19 246.21 145.24 246.40 144.77 247.09 L 144.16 248.01 C 143.69 248.70 143.87 249.65 144.57 250.12 C 145.27 250.59 146.21 250.40 146.68 249.70 Z M 147.30 248.79 L 147.83 247.99 C 148.30 247.29 148.11 246.34 147.41 245.88 C 146.71 245.41 145.77 245.60 145.30 246.30 L 144.77 247.10 C 144.30 247.80 144.49 248.74 145.19 249.21 C 145.89 249.68 146.83 249.49 147.30 248.79 Z M 147.83 248.00 L 148.40 247.15 C 148.87 246.45 148.69 245.50 147.99 245.03 C 147.30 244.56 146.35 244.74 145.88 245.44 L 145.31 246.29 C 144.83 246.99 145.02 247.93 145.71 248.40 C 146.41 248.87 147.36 248.69 147.83 248.00 Z M 148.39 247.16 L 148.99 246.30 C 149.47 245.61 149.30 244.66 148.61 244.18 C 147.91 243.70 146.97 243.87 146.49 244.57 L 145.89 245.43 C 145.41 246.12 145.58 247.06 146.27 247.54 C 146.96 248.02 147.91 247.85 148.39 247.16 Z M 148.98 246.32 L 149.60 245.45 C 150.09 244.76 149.93 243.81 149.25 243.32 C 148.57 242.83 147.61 242.99 147.12 243.67 L 146.50 244.55 C 146.01 245.23 146.17 246.18 146.85 246.67 C 147.54 247.16 148.49 247.00 148.98 246.32 Z M 149.59 245.46 L 150.18 244.66 C 150.67 243.98 150.53 243.03 149.85 242.53 C 149.17 242.04 148.22 242.18 147.72 242.86 L 147.13 243.66 C 146.64 244.34 146.78 245.29 147.46 245.79 C 148.14 246.29 149.09 246.14 149.59 245.46 Z M 150.17 244.67 L 150.74 243.89 C 151.25 243.22 151.10 242.26 150.43 241.76 C 149.75 241.26 148.80 241.41 148.30 242.08 L 147.72 242.86 C 147.22 243.53 147.36 244.49 148.04 244.99 C 148.72 245.49 149.67 245.34 150.17 244.67 Z M 150.75 243.90 L 151.35 243.09 C 151.85 242.41 151.71 241.45 151.03 240.95 C 150.35 240.45 149.40 240.59 148.89 241.27 L 148.29 242.08 C 147.79 242.76 147.93 243.71 148.61 244.22 C 149.29 244.72 150.24 244.58 150.75 243.90 Z M 151.35 243.10 L 151.91 242.35 C 152.42 241.67 152.28 240.71 151.60 240.20 C 150.92 239.69 149.96 239.83 149.45 240.51 L 148.89 241.26 C 148.38 241.94 148.52 242.90 149.20 243.41 C 149.88 243.91 150.84 243.78 151.35 243.10 Z M 151.91 242.36 L 152.50 241.58 C 153.01 240.90 152.87 239.93 152.19 239.42 C 151.51 238.91 150.55 239.05 150.03 239.73 L 149.45 240.50 C 148.94 241.18 149.07 242.15 149.75 242.66 C 150.43 243.17 151.40 243.04 151.91 242.36 Z M 152.51 241.57 L 153.12 240.75 C 153.63 240.06 153.49 239.09 152.80 238.58 C 152.11 238.07 151.14 238.22 150.63 238.90 L 150.02 239.73 C 149.51 240.42 149.66 241.39 150.35 241.90 C 151.03 242.41 152.00 242.26 152.51 241.57 Z M 153.14 240.73 L 153.70 239.96 C 154.20 239.26 154.04 238.29 153.34 237.79 C 152.64 237.28 151.67 237.45 151.17 238.14 L 150.61 238.92 C 150.11 239.62 150.27 240.59 150.97 241.09 C 151.67 241.59 152.64 241.43 153.14 240.73 Z M 153.71 239.95 L 154.30 239.10 C 154.80 238.39 154.62 237.42 153.92 236.92 C 153.21 236.43 152.23 236.60 151.74 237.31 L 151.15 238.16 C 150.65 238.87 150.83 239.84 151.54 240.33 C 152.25 240.83 153.22 240.65 153.71 239.95 Z M 154.32 239.09 L 154.87 238.28 C 155.35 237.57 155.17 236.59 154.45 236.10 C 153.74 235.61 152.76 235.80 152.27 236.52 L 151.72 237.32 C 151.24 238.04 151.42 239.01 152.14 239.50 C 152.85 239.99 153.83 239.80 154.32 239.09 Z M 154.88 238.28 L 155.41 237.48 C 155.90 236.75 155.70 235.78 154.98 235.29 C 154.26 234.81 153.28 235.00 152.80 235.72 L 152.26 236.52 C 151.78 237.24 151.97 238.22 152.69 238.71 C 153.42 239.19 154.39 239.00 154.88 238.28 Z M 155.42 237.47 L 156.00 236.61 C 156.48 235.88 156.28 234.90 155.55 234.42 C 154.83 233.94 153.85 234.14 153.37 234.86 L 152.79 235.73 C 152.31 236.45 152.51 237.43 153.23 237.91 C 153.96 238.40 154.94 238.20 155.42 237.47 Z M 156.00 236.61 L 156.56 235.76 C 157.04 235.03 156.84 234.05 156.11 233.57 C 155.38 233.09 154.40 233.29 153.92 234.02 L 153.36 234.86 C 152.88 235.59 153.08 236.57 153.81 237.05 C 154.54 237.53 155.52 237.33 156.00 236.61 Z M 156.56 235.76 L 157.09 234.97 C 157.57 234.24 157.37 233.25 156.64 232.77 C 155.91 232.29 154.93 232.49 154.45 233.22 L 153.92 234.01 C 153.44 234.74 153.64 235.73 154.36 236.21 C 155.09 236.69 156.08 236.49 156.56 235.76 Z M 157.09 234.97 L 157.64 234.14 C 158.13 233.41 157.94 232.42 157.21 231.94 C 156.48 231.45 155.50 231.65 155.01 232.37 L 154.45 233.21 C 153.96 233.94 154.16 234.92 154.89 235.41 C 155.61 235.90 156.60 235.70 157.09 234.97 Z M 157.64 234.15 L 158.23 233.28 C 158.72 232.55 158.53 231.57 157.81 231.08 C 157.08 230.58 156.09 230.77 155.60 231.50 L 155.01 232.36 C 154.52 233.09 154.71 234.08 155.44 234.57 C 156.16 235.06 157.15 234.87 157.64 234.15 Z M 158.22 233.29 L 158.79 232.47 C 159.29 231.74 159.11 230.76 158.39 230.26 C 157.67 229.76 156.68 229.94 156.18 230.66 L 155.61 231.49 C 155.11 232.21 155.29 233.20 156.01 233.70 C 156.73 234.19 157.72 234.01 158.22 233.29 Z M 158.79 232.48 L 159.34 231.69 C 159.85 230.97 159.68 229.98 158.96 229.47 C 158.24 228.97 157.25 229.14 156.75 229.86 L 156.19 230.65 C 155.68 231.36 155.85 232.35 156.57 232.86 C 157.29 233.37 158.28 233.20 158.79 232.48 Z M 159.34 231.70 L 159.91 230.89 C 160.43 230.18 160.26 229.18 159.55 228.67 C 158.83 228.16 157.84 228.33 157.33 229.04 L 156.75 229.85 C 156.24 230.56 156.40 231.55 157.12 232.07 C 157.83 232.58 158.83 232.41 159.34 231.70 Z M 159.91 230.90 L 160.51 230.07 C 161.02 229.36 160.87 228.37 160.15 227.85 C 159.44 227.34 158.45 227.49 157.93 228.21 L 157.33 229.03 C 156.82 229.74 156.98 230.74 157.69 231.26 C 158.40 231.77 159.40 231.61 159.91 230.90 Z M 160.51 230.08 L 161.12 229.23 C 161.64 228.52 161.49 227.53 160.78 227.01 C 160.07 226.49 159.07 226.64 158.55 227.35 L 157.93 228.20 C 157.41 228.91 157.57 229.91 158.28 230.43 C 158.99 230.95 159.99 230.79 160.51 230.08 Z M 161.12 229.24 L 161.69 228.46 C 162.21 227.75 162.06 226.76 161.35 226.23 C 160.64 225.71 159.64 225.86 159.12 226.57 L 158.55 227.35 C 158.03 228.06 158.18 229.06 158.89 229.58 C 159.60 230.10 160.60 229.95 161.12 229.24 Z M 161.69 228.47 L 162.28 227.68 C 162.80 226.97 162.65 225.97 161.94 225.44 C 161.23 224.92 160.23 225.07 159.71 225.78 L 159.12 226.57 C 158.60 227.28 158.75 228.28 159.46 228.80 C 160.17 229.33 161.17 229.18 161.69 228.47 Z M 162.27 227.69 L 162.87 226.88 C 163.40 226.18 163.26 225.17 162.55 224.64 C 161.84 224.12 160.84 224.26 160.31 224.97 L 159.71 225.77 C 159.18 226.48 159.33 227.48 160.03 228.01 C 160.74 228.54 161.74 228.39 162.27 227.69 Z M 162.87 226.89 L 163.48 226.08 C 164.02 225.37 163.88 224.37 163.18 223.84 C 162.47 223.30 161.47 223.44 160.93 224.15 L 160.32 224.96 C 159.78 225.66 159.92 226.67 160.63 227.20 C 161.33 227.73 162.34 227.60 162.87 226.89 Z M 163.48 226.09 L 164.11 225.27 C 164.65 224.57 164.52 223.56 163.81 223.02 C 163.11 222.48 162.11 222.62 161.57 223.32 L 160.94 224.14 C 160.40 224.84 160.53 225.84 161.23 226.38 C 161.93 226.92 162.94 226.79 163.48 226.09 Z M 164.10 225.28 L 164.71 224.50 C 165.26 223.80 165.14 222.79 164.44 222.25 C 163.74 221.70 162.73 221.83 162.19 222.52 L 161.57 223.31 C 161.03 224.00 161.15 225.01 161.85 225.56 C 162.55 226.10 163.55 225.98 164.10 225.28 Z M 164.71 224.51 L 165.33 223.73 C 165.88 223.04 165.76 222.03 165.07 221.47 C 164.38 220.92 163.37 221.04 162.81 221.73 L 162.19 222.51 C 161.64 223.21 161.76 224.22 162.45 224.77 C 163.14 225.32 164.15 225.21 164.71 224.51 Z M 165.32 223.74 L 165.95 222.96 C 166.51 222.27 166.40 221.26 165.71 220.70 C 165.02 220.15 164.01 220.25 163.45 220.94 L 162.82 221.72 C 162.26 222.41 162.37 223.42 163.06 223.98 C 163.75 224.54 164.76 224.43 165.32 223.74 Z M 165.94 222.97 L 166.58 222.20 C 167.14 221.51 167.04 220.50 166.36 219.94 C 165.67 219.37 164.66 219.47 164.09 220.16 L 163.46 220.93 C 162.89 221.62 162.99 222.63 163.68 223.20 C 164.37 223.76 165.38 223.66 165.94 222.97 Z M 166.57 222.21 L 167.22 221.44 C 167.78 220.75 167.69 219.74 167.01 219.17 C 166.33 218.60 165.31 218.69 164.75 219.38 L 164.10 220.15 C 163.53 220.83 163.62 221.84 164.31 222.41 C 164.99 222.98 166.00 222.89 166.57 222.21 Z M 167.21 221.45 L 167.86 220.68 C 168.43 220.00 168.35 218.99 167.67 218.41 C 166.99 217.84 165.98 217.92 165.40 218.60 L 164.75 219.37 C 164.18 220.04 164.26 221.06 164.94 221.63 C 165.62 222.21 166.63 222.13 167.21 221.45 Z M 167.85 220.69 L 168.51 219.93 C 169.09 219.26 169.01 218.24 168.34 217.66 C 167.66 217.08 166.64 217.15 166.06 217.83 L 165.41 218.59 C 164.83 219.26 164.91 220.28 165.58 220.86 C 166.25 221.44 167.27 221.36 167.85 220.69 Z M 168.50 219.94 L 169.16 219.18 C 169.74 218.51 169.67 217.49 169.00 216.91 C 168.33 216.32 167.32 216.39 166.73 217.06 L 166.07 217.82 C 165.49 218.49 165.56 219.51 166.23 220.09 C 166.90 220.68 167.91 220.61 168.50 219.94 Z M 169.15 219.19 L 169.81 218.44 C 170.40 217.77 170.34 216.76 169.67 216.17 C 169.01 215.58 167.99 215.64 167.40 216.31 L 166.74 217.06 C 166.15 217.72 166.21 218.74 166.88 219.33 C 167.54 219.92 168.56 219.86 169.15 219.19 Z M 169.81 218.45 L 170.47 217.71 C 171.07 217.04 171.01 216.02 170.34 215.43 C 169.68 214.84 168.66 214.89 168.07 215.56 L 167.40 216.30 C 166.81 216.96 166.87 217.98 167.53 218.58 C 168.20 219.17 169.22 219.11 169.81 218.45 Z M 170.47 217.71 L 171.13 216.97 C 171.73 216.31 171.68 215.29 171.02 214.70 C 170.35 214.10 169.33 214.15 168.74 214.81 L 168.07 215.55 C 167.48 216.21 167.53 217.23 168.19 217.83 C 168.85 218.43 169.87 218.37 170.47 217.71 Z M 171.13 216.98 L 171.80 216.24 C 172.40 215.59 172.35 214.56 171.69 213.97 C 171.03 213.37 170.01 213.41 169.41 214.07 L 168.74 214.81 C 168.14 215.47 168.19 216.49 168.85 217.09 C 169.51 217.69 170.53 217.64 171.13 216.98 Z M 171.79 216.25 L 172.46 215.52 C 173.07 214.86 173.02 213.84 172.36 213.23 C 171.70 212.63 170.68 212.68 170.08 213.34 L 169.41 214.07 C 168.81 214.73 168.86 215.75 169.51 216.35 C 170.17 216.95 171.19 216.91 171.79 216.25 Z M 172.46 215.52 L 173.14 214.78 C 173.74 214.13 173.70 213.10 173.04 212.50 C 172.38 211.90 171.36 211.94 170.76 212.60 L 170.08 213.33 C 169.48 213.99 169.52 215.01 170.18 215.62 C 170.84 216.22 171.86 216.18 172.46 215.52 Z M 173.14 214.78 L 173.82 214.04 C 174.42 213.39 174.38 212.36 173.72 211.76 C 173.06 211.16 172.04 211.20 171.43 211.86 L 170.76 212.60 C 170.15 213.26 170.20 214.28 170.85 214.88 C 171.51 215.49 172.53 215.44 173.14 214.78 Z M 173.82 214.04 L 174.50 213.30 C 175.11 212.64 175.06 211.61 174.40 211.01 C 173.74 210.41 172.72 210.45 172.12 211.11 L 171.43 211.86 C 170.83 212.52 170.88 213.54 171.53 214.14 C 172.19 214.75 173.22 214.70 173.82 214.04 Z M 174.51 213.29 L 175.19 212.54 C 175.79 211.88 175.75 210.86 175.09 210.25 C 174.42 209.65 173.40 209.70 172.80 210.36 L 172.11 211.12 C 171.51 211.78 171.56 212.80 172.22 213.40 C 172.88 214.00 173.90 213.95 174.51 213.29 Z M 175.19 212.54 L 175.88 211.78 C 176.48 211.12 176.43 210.09 175.77 209.49 C 175.11 208.89 174.09 208.94 173.49 209.61 L 172.80 210.36 C 172.20 211.02 172.25 212.05 172.91 212.65 C 173.57 213.25 174.59 213.20 175.19 212.54 Z M 175.88 211.78 L 176.57 211.03 C 177.17 210.36 177.11 209.34 176.45 208.74 C 175.79 208.14 174.76 208.19 174.16 208.85 L 173.48 209.61 C 172.88 210.27 172.93 211.29 173.60 211.89 C 174.26 212.49 175.28 212.44 175.88 211.78 Z M 176.57 211.02 L 177.24 210.28 C 177.84 209.62 177.78 208.60 177.12 208.00 C 176.46 207.40 175.43 207.45 174.83 208.11 L 174.16 208.85 C 173.56 209.52 173.62 210.54 174.28 211.14 C 174.94 211.74 175.97 211.69 176.57 211.02 Z M 177.24 210.29 L 177.89 209.57 C 178.49 208.90 178.43 207.88 177.77 207.28 C 177.11 206.68 176.08 206.73 175.48 207.39 L 174.83 208.11 C 174.23 208.78 174.28 209.80 174.95 210.40 C 175.61 211.00 176.64 210.95 177.24 210.29 Z M 177.89 209.57 L 178.57 208.81 C 179.17 208.14 179.12 207.12 178.46 206.52 C 177.79 205.92 176.77 205.97 176.17 206.63 L 175.48 207.39 C 174.88 208.06 174.93 209.08 175.60 209.68 C 176.26 210.28 177.28 210.23 177.89 209.57 Z M 178.57 208.81 L 179.27 208.04 C 179.87 207.38 179.82 206.35 179.16 205.75 C 178.49 205.15 177.47 205.20 176.87 205.86 L 176.17 206.63 C 175.57 207.30 175.62 208.32 176.28 208.92 C 176.95 209.52 177.97 209.47 178.57 208.81 Z M 179.27 208.04 L 179.94 207.30 C 180.54 206.64 180.49 205.61 179.83 205.01 C 179.16 204.41 178.13 204.46 177.53 205.12 L 176.86 205.86 C 176.26 206.53 176.31 207.55 176.98 208.15 C 177.64 208.76 178.67 208.70 179.27 208.04 Z M 179.94 207.30 L 180.59 206.58 C 181.19 205.92 181.14 204.89 180.47 204.29 C 179.80 203.69 178.78 203.74 178.18 204.41 L 177.53 205.12 C 176.93 205.79 176.98 206.82 177.65 207.42 C 178.32 208.02 179.34 207.97 179.94 207.30 Z M 180.59 206.58 L 181.23 205.87 C 181.83 205.20 181.77 204.17 181.10 203.57 C 180.43 202.98 179.41 203.03 178.81 203.70 L 178.17 204.41 C 177.57 205.08 177.63 206.11 178.30 206.70 C 178.97 207.30 179.99 207.25 180.59 206.58 Z M 181.23 205.87 L 181.91 205.11 C 182.51 204.43 182.45 203.41 181.78 202.81 C 181.11 202.21 180.08 202.27 179.48 202.94 L 178.80 203.70 C 178.21 204.37 178.27 205.40 178.94 206.00 C 179.61 206.60 180.64 206.54 181.23 205.87 Z M 181.91 205.10 L 182.58 204.35 C 183.18 203.68 183.11 202.65 182.44 202.06 C 181.77 201.46 180.74 201.52 180.15 202.19 L 179.48 202.95 C 178.88 203.62 178.94 204.64 179.62 205.24 C 180.29 205.84 181.32 205.78 181.91 205.10 Z M 182.58 204.35 L 183.24 203.61 C 183.84 202.94 183.78 201.91 183.11 201.31 C 182.44 200.72 181.41 200.78 180.81 201.45 L 180.15 202.19 C 179.55 202.86 179.61 203.89 180.28 204.49 C 180.95 205.08 181.98 205.02 182.58 204.35 Z M 183.23 203.62 L 183.89 202.89 C 184.49 202.22 184.44 201.19 183.77 200.59 C 183.10 199.99 182.07 200.04 181.47 200.71 L 180.82 201.44 C 180.22 202.11 180.27 203.14 180.94 203.74 C 181.61 204.34 182.63 204.28 183.23 203.62 Z M 183.88 202.90 L 184.57 202.14 C 185.18 201.48 185.13 200.45 184.47 199.84 C 183.81 199.24 182.78 199.28 182.17 199.94 L 181.48 200.70 C 180.88 201.36 180.92 202.39 181.58 203.00 C 182.25 203.60 183.28 203.56 183.88 202.90 Z M 184.56 202.15 L 185.25 201.41 C 185.87 200.76 185.83 199.73 185.18 199.11 C 184.52 198.50 183.49 198.53 182.88 199.19 L 182.19 199.93 C 181.57 200.59 181.61 201.62 182.26 202.23 C 182.92 202.84 183.95 202.81 184.56 202.15 Z M 185.24 201.43 L 185.93 200.71 C 186.55 200.07 186.53 199.04 185.88 198.41 C 185.23 197.79 184.20 197.81 183.58 198.46 L 182.89 199.17 C 182.27 199.82 182.29 200.85 182.94 201.47 C 183.59 202.10 184.62 202.08 185.24 201.43 Z M 185.91 200.73 L 186.59 200.05 C 187.22 199.41 187.22 198.38 186.58 197.75 C 185.95 197.11 184.92 197.12 184.28 197.75 L 183.60 198.44 C 182.97 199.08 182.97 200.11 183.61 200.74 C 184.24 201.37 185.27 201.37 185.91 200.73 Z M 186.57 200.07 L 187.32 199.35 C 187.96 198.72 187.98 197.69 187.36 197.05 C 186.74 196.40 185.71 196.38 185.06 197.00 L 184.31 197.73 C 183.66 198.35 183.64 199.38 184.26 200.03 C 184.89 200.68 185.92 200.70 186.57 200.07 Z M 187.29 199.37 L 188.04 198.68 C 188.70 198.07 188.74 197.04 188.13 196.38 C 187.51 195.72 186.49 195.68 185.83 196.29 L 185.08 196.98 C 184.42 197.59 184.38 198.62 184.99 199.28 C 185.60 199.94 186.63 199.98 187.29 199.37 Z M 188.01 198.70 L 188.74 198.05 C 189.41 197.46 189.47 196.43 188.87 195.76 C 188.27 195.09 187.25 195.03 186.58 195.63 L 185.85 196.27 C 185.18 196.87 185.12 197.90 185.72 198.57 C 186.31 199.24 187.34 199.30 188.01 198.70 Z M 188.72 198.07 L 189.47 197.42 C 190.15 196.84 190.23 195.81 189.65 195.13 C 189.06 194.45 188.03 194.37 187.35 194.96 L 186.60 195.61 C 185.92 196.19 185.84 197.22 186.42 197.90 C 187.01 198.58 188.04 198.66 188.72 198.07 Z M 189.45 197.44 L 190.24 196.79 C 190.93 196.22 191.02 195.19 190.45 194.50 C 189.87 193.81 188.85 193.71 188.16 194.29 L 187.37 194.94 C 186.68 195.51 186.59 196.54 187.16 197.23 C 187.73 197.92 188.76 198.02 189.45 197.44 Z M 190.22 196.81 L 190.98 196.19 C 191.68 195.63 191.79 194.61 191.23 193.91 C 190.66 193.21 189.64 193.09 188.94 193.66 L 188.17 194.27 C 187.47 194.84 187.36 195.86 187.93 196.56 C 188.49 197.26 189.52 197.37 190.22 196.81 Z M 190.96 196.21 L 191.74 195.60 C 192.44 195.05 192.57 194.02 192.01 193.31 C 191.46 192.61 190.43 192.48 189.73 193.04 L 188.95 193.65 C 188.24 194.20 188.12 195.22 188.68 195.93 C 189.23 196.64 190.26 196.76 190.96 196.21 Z M 191.72 195.61 L 192.52 195.00 C 193.23 194.45 193.37 193.43 192.82 192.71 C 192.27 192.00 191.24 191.87 190.53 192.42 L 189.74 193.03 C 189.02 193.58 188.89 194.60 189.44 195.31 C 189.99 196.03 191.01 196.16 191.72 195.61 Z M 192.51 195.01 L 193.30 194.40 C 194.02 193.86 194.16 192.83 193.61 192.12 C 193.07 191.40 192.04 191.26 191.33 191.81 L 190.54 192.41 C 189.82 192.96 189.68 193.98 190.23 194.70 C 190.77 195.41 191.80 195.55 192.51 195.01 Z M 193.30 194.41 L 193.61 194.17 C 194.33 193.63 194.47 192.60 193.93 191.88 C 193.38 191.17 192.36 191.02 191.64 191.57 L 191.33 191.81 C 190.61 192.35 190.47 193.37 191.02 194.09 C 191.56 194.81 192.58 194.95 193.30 194.41 Z"
      fill="black"
      fill-rule="nonzero" /></svg>