<svg xmlns="http://www.w3.org/2000/svg" width="300" height="300" viewBox="0 0 300 300">
<path d="M 101.53 137.53 L 100.41 137.60 C 99.57 137.65 98.94 138.37 98.99 139.20 C 99.04 140.04 99.76 140.67 100.60 140.62 L 101.73 140.55 C 102.56 140.49 103.19 139.77 103.14 138.94 C 103.09 138.11 102.37 137.47 101.53 137.53 Z M 100.25 137.60 L 99.28 137.76 C 98.45 137.89 97.88 138.68 98.02 139.52 C 98.16 140.35 98.94 140.91 99.78 140.78 L 100.75 140.62 C 101.58 140.48 102.15 139.69 102.01 138.86 C 101.87 138.03 101.09 137.46 100.25 137.60 Z M 98.78 137.91 L 98.06 138.31 C 97.31 138.72 97.04 139.66 97.45 140.41 C 97.87 141.16 98.81 141.43 99.56 141.02 L 100.28 140.62 C 101.03 140.21 101.30 139.27 100.89 138.52 C 100.48 137.77 99.53 137.50 98.78 137.91 Z M 97.34 139.10 L 97.01 139.95 C 96.70 140.77 97.11 141.68 97.92 141.99 C 98.74 142.30 99.65 141.89 99.96 141.08 L 100.28 140.23 C 100.60 139.41 100.19 138.50 99.37 138.19 C 98.56 137.88 97.65 138.29 97.34 139.10 Z M 96.88 140.43 L 96.83 141.49 C 96.78 142.38 97.46 143.13 98.35 143.18 C 99.24 143.22 99.99 142.54 100.04 141.65 L 100.09 140.60 C 100.14 139.71 99.45 138.95 98.57 138.91 C 97.68 138.86 96.92 139.54 96.88 140.43 Z M 96.80 141.58 L 96.80 142.56 C 96.81 143.46 97.54 144.19 98.44 144.18 C 99.34 144.18 100.07 143.45 100.07 142.55 L 100.06 141.56 C 100.06 140.66 99.33 139.93 98.43 139.94 C 97.52 139.94 96.80 140.67 96.80 141.58 Z M 96.78 142.60 L 96.82 143.65 C 96.84 144.56 97.61 145.28 98.52 145.25 C 99.43 145.22 100.15 144.46 100.12 143.55 L 100.09 142.50 C 100.06 141.59 99.30 140.87 98.38 140.90 C 97.47 140.93 96.75 141.69 96.78 142.60 Z M 96.80 143.69 L 96.86 144.72 C 96.91 145.64 97.70 146.34 98.62 146.29 C 99.55 146.24 100.25 145.45 100.20 144.53 L 100.14 143.50 C 100.08 142.58 99.29 141.88 98.37 141.93 C 97.45 141.98 96.75 142.77 96.80 143.69 Z M 96.85 144.77 L 96.94 145.74 C 97.02 146.67 97.83 147.35 98.76 147.27 C 99.68 147.19 100.37 146.38 100.29 145.45 L 100.20 144.48 C 100.12 143.55 99.31 142.87 98.38 142.95 C 97.46 143.03 96.77 143.84 96.85 144.77 Z M 96.94 145.79 L 97.05 146.77 C 97.15 147.69 97.98 148.36 98.91 148.26 C 99.83 148.15 100.50 147.32 100.40 146.39 L 100.29 145.41 C 100.19 144.49 99.35 143.82 98.43 143.92 C 97.50 144.03 96.83 144.86 96.94 145.79 Z M 97.04 146.80 L 97.17 147.78 C 97.29 148.71 98.14 149.36 99.06 149.25 C 99.99 149.13 100.65 148.28 100.53 147.35 L 100.40 146.37 C 100.28 145.44 99.43 144.78 98.51 144.90 C 97.58 145.02 96.93 145.87 97.04 146.80 Z M 97.16 147.80 L 97.29 148.72 C 97.42 149.65 98.27 150.30 99.20 150.18 C 100.13 150.05 100.79 149.19 100.66 148.26 L 100.53 147.34 C 100.41 146.41 99.55 145.76 98.62 145.88 C 97.69 146.01 97.04 146.87 97.16 147.80 Z M 97.28 148.73 L 97.42 149.72 C 97.55 150.65 98.42 151.30 99.35 151.17 C 100.28 151.04 100.94 150.18 100.80 149.24 L 100.67 148.25 C 100.54 147.32 99.67 146.67 98.74 146.80 C 97.80 146.93 97.15 147.79 97.28 148.73 Z M 97.41 149.72 L 97.56 150.77 C 97.69 151.70 98.56 152.36 99.50 152.23 C 100.44 152.09 101.09 151.23 100.96 150.29 L 100.81 149.24 C 100.68 148.30 99.81 147.65 98.87 147.78 C 97.94 147.91 97.28 148.78 97.41 149.72 Z M 97.55 150.76 L 97.69 151.77 C 97.82 152.71 98.69 153.37 99.64 153.24 C 100.58 153.11 101.24 152.24 101.11 151.29 L 100.97 150.29 C 100.84 149.35 99.97 148.69 99.02 148.82 C 98.08 148.95 97.42 149.82 97.55 150.76 Z M 97.69 151.77 L 97.82 152.72 C 97.95 153.67 98.82 154.33 99.76 154.20 C 100.71 154.07 101.37 153.20 101.25 152.25 L 101.11 151.30 C 100.99 150.35 100.11 149.69 99.17 149.82 C 98.22 149.95 97.56 150.82 97.69 151.77 Z M 97.81 152.72 L 97.94 153.71 C 98.07 154.66 98.94 155.33 99.89 155.20 C 100.85 155.07 101.51 154.20 101.39 153.24 L 101.25 152.26 C 101.12 151.31 100.25 150.64 99.30 150.77 C 98.35 150.89 97.68 151.77 97.81 152.72 Z M 97.93 153.70 L 98.07 154.72 C 98.20 155.67 99.07 156.35 100.03 156.22 C 100.98 156.09 101.65 155.22 101.53 154.26 L 101.39 153.25 C 101.27 152.29 100.39 151.62 99.43 151.75 C 98.48 151.87 97.81 152.75 97.93 153.70 Z M 98.06 154.72 L 98.20 155.75 C 98.32 156.71 99.20 157.39 100.16 157.26 C 101.12 157.14 101.79 156.26 101.67 155.30 L 101.53 154.26 C 101.41 153.31 100.53 152.63 99.57 152.75 C 98.61 152.88 97.94 153.76 98.06 154.72 Z M 98.19 155.75 L 98.32 156.72 C 98.44 157.69 99.32 158.37 100.28 158.24 C 101.24 158.12 101.92 157.24 101.80 156.27 L 101.68 155.30 C 101.55 154.34 100.67 153.66 99.71 153.79 C 98.75 153.91 98.07 154.79 98.19 155.75 Z M 98.31 156.72 L 98.44 157.71 C 98.56 158.67 99.44 159.35 100.40 159.23 C 101.37 159.11 102.05 158.23 101.93 157.26 L 101.81 156.28 C 101.68 155.31 100.80 154.63 99.84 154.75 C 98.87 154.87 98.19 155.76 98.31 156.72 Z M 98.43 157.70 L 98.55 158.70 C 98.67 159.67 99.56 160.35 100.52 160.23 C 101.49 160.11 102.18 159.23 102.06 158.26 L 101.94 157.27 C 101.82 156.30 100.93 155.61 99.97 155.73 C 99.00 155.85 98.31 156.73 98.43 157.70 Z M 98.55 158.69 L 98.67 159.70 C 98.79 160.67 99.67 161.36 100.64 161.24 C 101.61 161.12 102.30 160.24 102.19 159.27 L 102.06 158.27 C 101.95 157.30 101.06 156.60 100.09 156.72 C 99.12 156.84 98.43 157.72 98.55 158.69 Z M 98.67 159.69 L 98.78 160.69 C 98.90 161.67 99.78 162.36 100.75 162.25 C 101.73 162.14 102.42 161.25 102.31 160.28 L 102.19 159.28 C 102.08 158.30 101.19 157.61 100.22 157.72 C 99.25 157.84 98.55 158.72 98.67 159.69 Z M 98.78 160.69 L 98.89 161.65 C 99.00 162.63 99.88 163.33 100.86 163.22 C 101.83 163.11 102.53 162.22 102.42 161.25 L 102.31 160.29 C 102.20 159.31 101.32 158.61 100.35 158.72 C 99.37 158.83 98.67 159.71 98.78 160.69 Z M 98.88 161.64 L 98.99 162.61 C 99.10 163.59 99.98 164.30 100.96 164.19 C 101.94 164.09 102.64 163.21 102.54 162.23 L 102.43 161.25 C 102.32 160.28 101.44 159.57 100.46 159.68 C 99.48 159.78 98.77 160.66 98.88 161.64 Z M 98.98 162.61 L 99.09 163.59 C 99.19 164.58 100.07 165.29 101.05 165.19 C 102.03 165.08 102.75 164.20 102.64 163.22 L 102.54 162.23 C 102.44 161.25 101.56 160.54 100.58 160.64 C 99.59 160.74 98.88 161.62 98.98 162.61 Z M 99.08 163.58 L 99.18 164.60 C 99.28 165.58 100.16 166.30 101.14 166.20 C 102.13 166.11 102.85 165.23 102.75 164.24 L 102.65 163.23 C 102.55 162.25 101.67 161.53 100.69 161.62 C 99.70 161.72 98.98 162.60 99.08 163.58 Z M 99.17 164.59 L 99.27 165.63 C 99.36 166.62 100.24 167.34 101.23 167.25 C 102.22 167.16 102.95 166.28 102.85 165.29 L 102.76 164.25 C 102.66 163.26 101.79 162.54 100.80 162.63 C 99.81 162.72 99.08 163.60 99.17 164.59 Z M 99.27 165.62 L 99.35 166.58 C 99.44 167.57 100.31 168.31 101.31 168.22 C 102.30 168.13 103.03 167.26 102.94 166.26 L 102.86 165.30 C 102.77 164.31 101.90 163.58 100.90 163.66 C 99.91 163.75 99.18 164.63 99.27 165.62 Z M 99.35 166.57 L 99.43 167.55 C 99.51 168.54 100.38 169.28 101.38 169.20 C 102.37 169.12 103.11 168.24 103.03 167.25 L 102.95 166.27 C 102.86 165.28 101.99 164.54 101.00 164.62 C 100.00 164.70 99.26 165.58 99.35 166.57 Z M 99.42 167.54 L 99.50 168.54 C 99.58 169.54 100.45 170.28 101.45 170.20 C 102.45 170.12 103.19 169.25 103.11 168.25 L 103.03 167.26 C 102.96 166.26 102.08 165.52 101.09 165.60 C 100.09 165.67 99.35 166.55 99.42 167.54 Z M 99.50 168.53 L 99.57 169.54 C 99.65 170.54 100.52 171.29 101.52 171.22 C 102.52 171.14 103.27 170.27 103.19 169.27 L 103.12 168.26 C 103.04 167.26 102.17 166.51 101.17 166.59 C 100.17 166.66 99.42 167.53 99.50 168.53 Z M 99.57 169.53 L 99.64 170.55 C 99.71 171.56 100.58 172.31 101.58 172.24 C 102.58 172.17 103.34 171.30 103.27 170.30 L 103.20 169.28 C 103.13 168.28 102.26 167.52 101.25 167.59 C 100.25 167.66 99.50 168.53 99.57 169.53 Z M 99.64 170.55 L 99.70 171.57 C 99.77 172.57 100.64 173.33 101.64 173.26 C 102.65 173.20 103.41 172.33 103.34 171.33 L 103.27 170.31 C 103.21 169.30 102.34 168.54 101.33 168.61 C 100.33 168.67 99.57 169.54 99.64 170.55 Z M 99.70 171.56 L 99.76 172.55 C 99.82 173.55 100.69 174.32 101.70 174.26 C 102.70 174.19 103.47 173.33 103.40 172.32 L 103.34 171.33 C 103.28 170.33 102.41 169.56 101.41 169.62 C 100.40 169.69 99.64 170.55 99.70 171.56 Z M 99.76 172.54 L 99.82 173.53 C 99.88 174.54 100.74 175.31 101.75 175.25 C 102.75 175.19 103.52 174.33 103.46 173.32 L 103.41 172.33 C 103.35 171.32 102.48 170.55 101.48 170.61 C 100.47 170.67 99.70 171.53 99.76 172.54 Z M 99.81 173.52 L 99.87 174.51 C 99.92 175.52 100.78 176.30 101.79 176.24 C 102.80 176.19 103.57 175.33 103.52 174.32 L 103.47 173.33 C 103.41 172.32 102.55 171.54 101.54 171.60 C 100.53 171.65 99.76 172.51 99.81 173.52 Z M 99.87 174.51 L 99.91 175.51 C 99.96 176.52 100.82 177.29 101.83 177.24 C 102.84 177.19 103.62 176.34 103.57 175.33 L 103.52 174.33 C 103.47 173.32 102.61 172.54 101.60 172.59 C 100.59 172.64 99.82 173.50 99.87 174.51 Z M 99.91 175.50 L 99.96 176.50 C 100.00 177.52 100.86 178.30 101.87 178.25 C 102.88 178.21 103.66 177.35 103.62 176.34 L 103.57 175.33 C 103.53 174.32 102.67 173.54 101.66 173.59 C 100.65 173.63 99.87 174.49 99.91 175.50 Z M 99.96 176.50 L 100.00 177.51 C 100.04 178.52 100.89 179.31 101.90 179.27 C 102.92 179.23 103.70 178.38 103.66 177.36 L 103.62 176.35 C 103.58 175.34 102.73 174.55 101.71 174.59 C 100.70 174.63 99.91 175.48 99.96 176.50 Z M 99.99 177.50 L 100.03 178.50 C 100.07 179.51 100.92 180.30 101.93 180.27 C 102.94 180.23 103.74 179.38 103.70 178.36 L 103.66 177.37 C 103.63 176.36 102.78 175.57 101.76 175.60 C 100.75 175.64 99.96 176.49 99.99 177.50 Z M 100.03 178.49 L 100.06 179.49 C 100.09 180.51 100.94 181.30 101.96 181.27 C 102.97 181.24 103.77 180.39 103.73 179.37 L 103.70 178.37 C 103.67 177.36 102.82 176.56 101.81 176.59 C 100.79 176.63 100.00 177.48 100.03 178.49 Z M 100.06 179.49 L 100.09 180.49 C 100.12 181.51 100.97 182.31 101.98 182.28 C 103.00 182.24 103.80 181.40 103.77 180.38 L 103.74 179.38 C 103.71 178.36 102.86 177.56 101.84 177.59 C 100.83 177.62 100.03 178.47 100.06 179.49 Z M 100.09 180.49 L 100.12 181.49 C 100.14 182.51 100.99 183.31 102.01 183.28 C 103.02 183.25 103.82 182.41 103.80 181.39 L 103.77 180.39 C 103.74 179.37 102.89 178.57 101.88 178.60 C 100.86 178.62 100.06 179.47 100.09 180.49 Z M 100.11 181.49 L 100.14 182.49 C 100.17 183.51 101.01 184.31 102.03 184.29 C 103.05 184.26 103.85 183.41 103.82 182.40 L 103.80 181.39 C 103.77 180.38 102.93 179.57 101.91 179.60 C 100.89 179.63 100.09 180.47 100.11 181.49 Z M 100.14 182.49 L 100.16 183.48 C 100.19 184.50 101.04 185.31 102.05 185.28 C 103.07 185.26 103.88 184.41 103.85 183.39 L 103.83 182.40 C 103.80 181.38 102.95 180.57 101.94 180.60 C 100.92 180.63 100.11 181.47 100.14 182.49 Z M 100.16 183.48 L 100.19 184.50 C 100.21 185.52 101.06 186.32 102.08 186.30 C 103.10 186.27 103.90 185.42 103.88 184.41 L 103.85 183.39 C 103.83 182.37 102.98 181.57 101.96 181.59 C 100.94 181.62 100.14 182.47 100.16 183.48 Z M 100.19 184.50 L 100.21 185.51 C 100.24 186.53 101.08 187.33 102.10 187.31 C 103.12 187.28 103.93 186.44 103.90 185.42 L 103.88 184.41 C 103.85 183.39 103.01 182.58 101.99 182.61 C 100.97 182.63 100.16 183.48 100.19 184.50 Z M 100.21 185.51 L 100.24 186.51 C 100.26 187.53 101.11 188.33 102.12 188.31 C 103.14 188.28 103.95 187.44 103.92 186.42 L 103.90 185.42 C 103.88 184.40 103.03 183.60 102.02 183.62 C 101.00 183.64 100.19 184.49 100.21 185.51 Z M 100.24 186.50 L 100.26 187.50 C 100.28 188.52 101.12 189.32 102.14 189.30 C 103.16 189.28 103.97 188.44 103.95 187.42 L 103.92 186.43 C 103.90 185.41 103.06 184.60 102.04 184.62 C 101.02 184.64 100.22 185.49 100.24 186.50 Z M 100.26 187.49 L 100.28 188.48 C 100.30 189.50 101.14 190.31 102.15 190.29 C 103.17 190.27 103.98 189.43 103.96 188.42 L 103.94 187.43 C 103.93 186.41 103.09 185.60 102.07 185.62 C 101.05 185.64 100.24 186.48 100.26 187.49 Z M 100.28 188.48 L 100.29 189.46 C 100.31 190.48 101.15 191.29 102.16 191.28 C 103.18 191.26 103.99 190.43 103.98 189.41 L 103.96 188.42 C 103.95 187.40 103.11 186.59 102.09 186.61 C 101.08 186.62 100.26 187.46 100.28 188.48 Z M 100.29 189.46 L 100.31 190.45 C 100.32 191.46 101.15 192.28 102.17 192.27 C 103.18 192.25 104.00 191.42 103.99 190.40 L 103.98 189.42 C 103.97 188.40 103.13 187.58 102.11 187.60 C 101.10 187.61 100.28 188.44 100.29 189.46 Z M 100.31 190.44 L 100.31 191.43 C 100.32 192.44 101.15 193.26 102.17 193.25 C 103.19 193.25 104.00 192.42 104.00 191.40 L 103.99 190.41 C 103.98 189.39 103.15 188.58 102.13 188.58 C 101.12 188.59 100.30 189.42 100.31 190.44 Z M 100.31 191.42 L 100.32 192.42 C 100.32 193.43 101.15 194.25 102.17 194.25 C 103.18 194.24 104.00 193.41 104.00 192.40 L 103.99 191.41 C 103.99 190.39 103.16 189.57 102.15 189.57 C 101.13 189.58 100.31 190.41 100.31 191.42 Z M 100.32 192.41 L 100.32 193.41 C 100.32 194.43 101.15 195.25 102.17 195.25 C 103.18 195.24 104.00 194.42 104.00 193.40 L 104.00 192.40 C 104.00 191.39 103.17 190.56 102.15 190.57 C 101.14 190.57 100.32 191.40 100.32 192.41 Z M 100.32 193.41 L 100.32 194.41 C 100.32 195.43 101.15 196.25 102.16 196.25 C 103.18 196.25 104.00 195.43 104.00 194.41 L 104.00 193.40 C 104.00 192.39 103.18 191.57 102.16 191.57 C 101.14 191.57 100.32 192.39 100.32 193.41 Z M 100.32 194.41 L 100.32 195.43 C 100.32 196.45 101.15 197.27 102.16 197.27 C 103.18 197.27 104.00 196.44 104.00 195.43 L 104.00 194.41 C 104.00 193.40 103.18 192.57 102.16 192.57 C 101.15 192.57 100.32 193.40 100.32 194.41 Z M 100.32 195.43 L 100.32 196.40 C 100.32 197.41 101.15 198.24 102.16 198.24 C 103.18 198.24 104.00 197.41 104.00 196.40 L 104.00 195.43 C 104.00 194.41 103.18 193.59 102.16 193.59 C 101.15 193.59 100.32 194.41 100.32 195.43 Z M 100.32 196.40 L 100.32 197.36 C 100.32 198.38 101.15 199.20 102.16 199.20 C 103.18 199.20 104.00 198.38 104.00 197.36 L 104.00 196.40 C 104.00 195.38 103.18 194.56 102.16 194.56 C 101.15 194.56 100.32 195.38 100.32 196.40 Z M 100.33 197.36 L 100.33 198.34 C 100.33 199.36 101.15 200.18 102.16 200.18 C 103.18 200.18 104.00 199.36 104.00 198.34 L 104.00 197.36 C 104.00 196.35 103.18 195.52 102.16 195.52 C 101.15 195.52 100.33 196.35 100.33 197.36 Z M 100.33 198.34 L 100.33 199.34 C 100.33 200.35 101.15 201.17 102.16 201.17 C 103.18 201.17 104.00 200.35 104.00 199.34 L 104.00 198.34 C 104.00 197.33 103.18 196.50 102.16 196.50 C 101.15 196.50 100.33 197.33 100.33 198.34 Z M 100.33 199.34 L 100.33 200.35 C 100.33 201.37 101.15 202.19 102.16 202.19 C 103.18 202.19 104.00 201.37 104.00 200.35 L 104.00 199.34 C 104.00 198.32 103.18 197.50 102.16 197.50 C 101.15 197.50 100.33 198.32 100.33 199.34 Z M 100.33 200.35 L 100.33 201.39 C 100.33 202.41 101.15 203.23 102.16 203.23 C 103.18 203.23 104.00 202.41 104.00 201.39 L 104.00 200.35 C 104.00 199.34 103.18 198.52 102.16 198.52 C 101.15 198.52 100.33 199.34 100.33 200.35 Z M 100.33 201.39 L 100.33 202.43 C 100.33 203.45 101.15 204.27 102.16 204.27 C 103.18 204.27 104.00 203.45 104.00 202.43 L 104.00 201.39 C 104.00 200.38 103.18 199.56 102.16 199.56 C 101.15 199.56 100.33 200.38 100.33 201.39 Z M 100.33 202.43 L 100.33 203.44 C 100.33 204.45 101.15 205.27 102.16 205.27 C 103.18 205.27 104.00 204.45 104.00 203.44 L 104.00 202.43 C 104.00 201.42 103.18 200.60 102.16 200.60 C 101.15 200.60 100.33 201.42 100.33 202.43 Z M 100.33 203.44 L 100.33 204.45 C 100.33 205.46 101.15 206.29 102.16 206.29 C 103.17 206.29 104.00 205.47 104.00 204.45 L 104.00 203.44 C 104.00 202.43 103.18 201.60 102.16 201.60 C 101.15 201.60 100.33 202.42 100.33 203.44 Z M 100.33 204.45 L 100.33 205.47 C 100.33 206.48 101.14 207.30 102.16 207.31 C 103.17 207.31 103.99 206.49 103.99 205.48 L 104.00 204.46 C 104.00 203.44 103.18 202.62 102.17 202.62 C 101.15 202.62 100.33 203.44 100.33 204.45 Z M 100.33 205.47 L 100.32 206.48 C 100.32 207.49 101.14 208.32 102.15 208.32 C 103.16 208.32 103.99 207.50 103.99 206.49 L 103.99 205.48 C 104.00 204.47 103.18 203.64 102.17 203.64 C 101.15 203.64 100.33 204.45 100.33 205.47 Z M 100.33 206.48 L 100.32 207.48 C 100.32 208.49 101.13 209.32 102.14 209.32 C 103.16 209.33 103.98 208.51 103.98 207.50 L 103.99 206.50 C 103.99 205.48 103.18 204.66 102.17 204.65 C 101.15 204.65 100.33 205.47 100.33 206.48 Z M 100.32 207.47 L 100.31 208.45 C 100.31 209.46 101.12 210.29 102.13 210.30 C 103.14 210.31 103.97 209.49 103.98 208.48 L 103.98 207.50 C 103.99 206.49 103.18 205.66 102.17 205.66 C 101.15 205.65 100.33 206.46 100.32 207.47 Z M 100.31 208.45 L 100.30 209.44 C 100.29 210.46 101.10 211.28 102.12 211.29 C 103.13 211.31 103.95 210.49 103.97 209.48 L 103.98 208.49 C 103.99 207.48 103.18 206.65 102.16 206.64 C 101.15 206.63 100.33 207.44 100.31 208.45 Z M 100.31 209.44 L 100.29 210.51 C 100.27 211.52 101.08 212.35 102.09 212.37 C 103.10 212.38 103.93 211.58 103.95 210.57 L 103.96 209.49 C 103.98 208.48 103.17 207.65 102.16 207.64 C 101.15 207.62 100.32 208.43 100.31 209.44 Z M 100.29 210.50 L 100.27 211.54 C 100.25 212.54 101.05 213.38 102.06 213.40 C 103.07 213.42 103.90 212.62 103.93 211.61 L 103.95 210.58 C 103.97 209.57 103.16 208.73 102.16 208.71 C 101.15 208.69 100.31 209.49 100.29 210.50 Z M 100.27 211.52 L 100.25 212.52 C 100.22 213.53 101.02 214.37 102.02 214.39 C 103.03 214.42 103.87 213.62 103.90 212.62 L 103.92 211.62 C 103.95 210.61 103.15 209.77 102.15 209.75 C 101.14 209.72 100.30 210.52 100.27 211.52 Z M 100.25 212.51 L 100.22 213.48 C 100.18 214.48 100.97 215.32 101.98 215.36 C 102.99 215.39 103.83 214.60 103.86 213.59 L 103.89 212.63 C 103.93 211.62 103.14 210.78 102.13 210.75 C 101.12 210.71 100.28 211.50 100.25 212.51 Z M 100.22 213.46 L 100.18 214.40 C 100.14 215.41 100.92 216.26 101.93 216.30 C 102.94 216.34 103.78 215.56 103.82 214.55 L 103.86 213.61 C 103.90 212.60 103.12 211.75 102.11 211.71 C 101.11 211.67 100.26 212.46 100.22 213.46 Z M 100.18 214.39 L 100.14 215.35 C 100.09 216.36 100.87 217.21 101.87 217.26 C 102.87 217.30 103.73 216.53 103.78 215.53 L 103.82 214.56 C 103.87 213.56 103.09 212.71 102.09 212.66 C 101.09 212.61 100.23 213.39 100.18 214.39 Z M 100.14 215.34 L 100.09 216.35 C 100.03 217.35 100.80 218.21 101.80 218.26 C 102.80 218.32 103.66 217.55 103.72 216.55 L 103.77 215.54 C 103.83 214.54 103.06 213.68 102.06 213.62 C 101.06 213.57 100.20 214.33 100.14 215.34 Z M 100.09 216.34 L 100.03 217.34 C 99.96 218.34 100.73 219.20 101.73 219.26 C 102.73 219.32 103.59 218.56 103.65 217.56 L 103.71 216.56 C 103.78 215.56 103.01 214.70 102.01 214.64 C 101.01 214.57 100.15 215.34 100.09 216.34 Z M 100.03 217.33 L 99.96 218.32 C 99.90 219.32 100.66 220.18 101.66 220.25 C 102.66 220.32 103.52 219.56 103.58 218.56 L 103.65 217.57 C 103.71 216.57 102.96 215.70 101.96 215.64 C 100.96 215.57 100.09 216.33 100.03 217.33 Z M 99.97 218.32 L 99.90 219.31 C 99.83 220.31 100.59 221.17 101.59 221.24 C 102.58 221.30 103.45 220.55 103.52 219.55 L 103.58 218.56 C 103.65 217.56 102.89 216.70 101.90 216.63 C 100.90 216.57 100.03 217.32 99.97 218.32 Z M 99.90 219.31 L 99.84 220.30 C 99.77 221.30 100.52 222.16 101.52 222.23 C 102.52 222.29 103.38 221.54 103.45 220.54 L 103.51 219.55 C 103.58 218.55 102.83 217.69 101.83 217.62 C 100.83 217.56 99.97 218.31 99.90 219.31 Z M 99.84 220.31 L 99.77 221.30 C 99.71 222.29 100.47 223.15 101.46 223.22 C 102.46 223.28 103.32 222.53 103.38 221.53 L 103.45 220.54 C 103.51 219.54 102.75 218.68 101.76 218.62 C 100.76 218.55 99.90 219.31 99.84 220.31 Z M 99.78 221.30 L 99.72 222.30 C 99.65 223.29 100.41 224.15 101.41 224.21 C 102.40 224.27 103.26 223.52 103.32 222.52 L 103.38 221.53 C 103.44 220.53 102.68 219.67 101.69 219.61 C 100.69 219.55 99.84 220.31 99.78 221.30 Z M 99.72 222.30 L 99.66 223.30 C 99.60 224.30 100.36 225.15 101.35 225.21 C 102.34 225.27 103.19 224.51 103.25 223.52 L 103.31 222.52 C 103.37 221.53 102.62 220.67 101.62 220.61 C 100.63 220.55 99.78 221.31 99.72 222.30 Z M 99.66 223.31 L 99.60 224.31 C 99.54 225.30 100.30 226.15 101.29 226.21 C 102.28 226.26 103.13 225.51 103.19 224.52 L 103.25 223.52 C 103.31 222.52 102.55 221.67 101.56 221.62 C 100.57 221.56 99.72 222.31 99.66 223.31 Z M 99.61 224.31 L 99.55 225.31 C 99.49 226.30 100.25 227.15 101.23 227.20 C 102.22 227.26 103.07 226.51 103.13 225.52 L 103.19 224.52 C 103.25 223.53 102.49 222.68 101.50 222.62 C 100.51 222.56 99.66 223.32 99.61 224.31 Z M 99.55 225.31 L 99.49 226.32 C 99.43 227.31 100.19 228.16 101.18 228.22 C 102.16 228.27 103.01 227.52 103.07 226.53 L 103.13 225.52 C 103.19 224.53 102.43 223.68 101.44 223.62 C 100.46 223.57 99.61 224.32 99.55 225.31 Z M 99.49 226.32 L 99.44 227.34 C 99.38 228.33 100.13 229.17 101.12 229.23 C 102.10 229.29 102.95 228.53 103.01 227.55 L 103.07 226.53 C 103.12 225.54 102.37 224.70 101.38 224.64 C 100.40 224.58 99.55 225.34 99.49 226.32 Z M 99.44 227.35 L 99.38 228.35 C 99.33 229.34 100.08 230.18 101.06 230.24 C 102.05 230.29 102.89 229.54 102.95 228.56 L 103.00 227.55 C 103.06 226.56 102.31 225.72 101.32 225.66 C 100.34 225.61 99.49 226.36 99.44 227.35 Z M 99.39 228.36 L 99.33 229.35 C 99.28 230.34 100.03 231.18 101.01 231.23 C 102.00 231.28 102.84 230.53 102.89 229.55 L 102.94 228.55 C 103.00 227.57 102.24 226.73 101.26 226.68 C 100.28 226.62 99.44 227.38 99.39 228.36 Z M 99.34 229.36 L 99.29 230.34 C 99.24 231.32 99.99 232.15 100.97 232.20 C 101.95 232.25 102.79 231.50 102.84 230.52 L 102.89 229.54 C 102.94 228.56 102.18 227.72 101.20 227.67 C 100.22 227.62 99.39 228.38 99.34 229.36 Z M 99.29 230.34 L 99.24 231.35 C 99.20 232.33 99.95 233.16 100.93 233.20 C 101.91 233.25 102.74 232.49 102.79 231.51 L 102.83 230.51 C 102.88 229.53 102.12 228.70 101.14 228.65 C 100.16 228.61 99.33 229.37 99.29 230.34 Z M 99.25 231.36 L 99.20 232.40 C 99.16 233.37 99.92 234.20 100.90 234.24 C 101.88 234.28 102.70 233.52 102.74 232.54 L 102.78 231.50 C 102.82 230.53 102.07 229.70 101.09 229.66 C 100.11 229.62 99.29 230.38 99.25 231.36 Z M 99.21 232.40 L 99.17 233.41 C 99.13 234.39 99.90 235.21 100.87 235.24 C 101.85 235.28 102.67 234.52 102.70 233.54 L 102.74 232.53 C 102.77 231.56 102.01 230.74 101.04 230.70 C 100.06 230.67 99.24 231.43 99.21 232.40 Z M 99.17 233.42 L 99.14 234.40 C 99.11 235.38 99.87 236.19 100.85 236.22 C 101.82 236.25 102.64 235.49 102.67 234.52 L 102.70 233.54 C 102.73 232.56 101.97 231.75 100.99 231.72 C 100.02 231.68 99.20 232.45 99.17 233.42 Z M 99.14 234.41 L 99.12 235.36 C 99.09 236.33 99.85 237.15 100.82 237.17 C 101.80 237.20 102.61 236.44 102.64 235.46 L 102.66 234.51 C 102.69 233.54 101.93 232.73 100.95 232.70 C 99.98 232.67 99.17 233.44 99.14 234.41 Z M 99.12 235.37 L 99.09 236.40 C 99.07 237.37 99.83 238.18 100.80 238.20 C 101.77 238.23 102.58 237.46 102.60 236.49 L 102.63 235.46 C 102.66 234.49 101.89 233.68 100.92 233.66 C 99.95 233.63 99.15 234.40 99.12 235.37 Z M 99.10 236.41 L 99.08 237.44 C 99.05 238.40 99.82 239.20 100.79 239.22 C 101.75 239.25 102.55 238.48 102.58 237.51 L 102.60 236.49 C 102.62 235.52 101.85 234.72 100.89 234.70 C 99.92 234.68 99.12 235.44 99.10 236.41 Z M 99.08 237.45 L 99.07 238.44 C 99.05 239.40 99.82 240.19 100.78 240.21 C 101.74 240.23 102.54 239.46 102.55 238.50 L 102.57 237.50 C 102.58 236.54 101.82 235.75 100.85 235.73 C 99.89 235.72 99.10 236.48 99.08 237.45 Z M 99.07 238.45 L 99.07 239.41 C 99.06 240.37 99.83 241.15 100.79 241.16 C 101.75 241.16 102.53 240.39 102.54 239.43 L 102.55 238.48 C 102.55 237.52 101.78 236.74 100.82 236.73 C 99.86 236.72 99.08 237.49 99.07 238.45 Z M 99.08 239.43 L 99.09 240.66 C 99.09 241.61 99.87 242.38 100.82 242.37 C 101.77 242.36 102.54 241.59 102.53 240.64 L 102.52 239.41 C 102.52 238.46 101.74 237.69 100.79 237.70 C 99.84 237.70 99.07 238.48 99.08 239.43 Z M 99.12 240.73 L 99.17 241.83 C 99.22 242.76 100.01 243.48 100.95 243.44 C 101.88 243.39 102.60 242.60 102.56 241.66 L 102.50 240.56 C 102.46 239.63 101.66 238.91 100.73 238.96 C 99.79 239.00 99.07 239.80 99.12 240.73 Z M 99.25 242.11 L 99.38 242.72 C 99.59 243.61 100.48 244.17 101.37 243.97 C 102.27 243.76 102.82 242.87 102.62 241.98 L 102.48 241.38 C 102.28 240.48 101.39 239.92 100.49 240.13 C 99.60 240.33 99.04 241.22 99.25 242.11 Z M 102.17 243.42 L 102.57 242.99 C 103.16 242.35 103.11 241.34 102.47 240.75 C 101.82 240.15 100.82 240.20 100.22 240.84 L 99.83 241.27 C 99.24 241.92 99.28 242.93 99.93 243.52 C 100.57 244.11 101.58 244.07 102.17 243.42 Z M 102.84 242.32 L 103.17 241.15 C 103.39 240.35 102.93 239.52 102.13 239.30 C 101.33 239.07 100.50 239.54 100.28 240.34 L 99.95 241.51 C 99.72 242.31 100.19 243.14 100.99 243.36 C 101.79 243.59 102.62 243.12 102.84 242.32 Z M 103.16 240.99 L 103.33 240.03 C 103.47 239.23 102.94 238.47 102.15 238.33 C 101.35 238.19 100.60 238.72 100.46 239.52 L 100.29 240.49 C 100.15 241.28 100.68 242.04 101.47 242.18 C 102.26 242.32 103.02 241.79 103.16 240.99 Z M 103.33 239.96 L 103.46 238.93 C 103.56 238.13 103.00 237.41 102.21 237.31 C 101.42 237.21 100.69 237.77 100.59 238.56 L 100.46 239.59 C 100.36 240.38 100.92 241.10 101.71 241.21 C 102.50 241.31 103.23 240.75 103.33 239.96 Z M 103.45 238.87 L 103.55 237.85 C 103.62 237.06 103.04 236.36 102.25 236.29 C 101.46 236.22 100.77 236.80 100.69 237.59 L 100.60 238.61 C 100.53 239.40 101.11 240.10 101.90 240.17 C 102.68 240.24 103.38 239.66 103.45 238.87 Z M 103.55 237.80 L 103.61 236.81 C 103.65 236.02 103.05 235.34 102.27 235.30 C 101.48 235.25 100.80 235.85 100.76 236.64 L 100.70 237.63 C 100.65 238.42 101.25 239.10 102.04 239.14 C 102.82 239.19 103.50 238.59 103.55 237.80 Z M 103.61 236.77 L 103.64 235.79 C 103.66 235.00 103.05 234.34 102.26 234.31 C 101.47 234.29 100.81 234.91 100.79 235.69 L 100.75 236.68 C 100.73 237.46 101.35 238.12 102.13 238.15 C 102.92 238.17 103.58 237.56 103.61 236.77 Z M 103.64 235.76 L 103.65 234.77 C 103.66 233.98 103.04 233.33 102.25 233.32 C 101.46 233.31 100.81 233.94 100.80 234.72 L 100.79 235.72 C 100.78 236.51 101.40 237.15 102.19 237.17 C 102.98 237.18 103.63 236.55 103.64 235.76 Z M 103.65 234.75 L 103.66 233.79 C 103.66 233.00 103.03 232.36 102.24 232.35 C 101.46 232.35 100.81 232.98 100.81 233.77 L 100.80 234.73 C 100.80 235.52 101.43 236.16 102.22 236.17 C 103.00 236.18 103.65 235.54 103.65 234.75 Z M 103.66 233.78 L 103.66 232.77 C 103.66 231.98 103.03 231.34 102.24 231.34 C 101.45 231.34 100.81 231.98 100.81 232.76 L 100.81 233.77 C 100.81 234.56 101.44 235.20 102.23 235.20 C 103.02 235.20 103.66 234.57 103.66 233.78 Z M 103.66 232.77 L 103.66 231.74 C 103.66 230.95 103.02 230.31 102.24 230.31 C 101.45 230.31 100.81 230.95 100.81 231.73 L 100.81 232.77 C 100.81 233.55 101.45 234.19 102.24 234.19 C 103.02 234.19 103.66 233.56 103.66 232.77 Z M 103.66 231.74 L 103.66 231.55 C 103.66 230.76 103.02 230.12 102.24 230.12 C 101.45 230.12 100.81 230.76 100.81 231.55 L 100.81 231.74 C 100.81 232.52 101.45 233.16 102.24 233.16 C 103.02 233.16 103.66 232.52 103.66 231.74 Z"
      fill="black"
      fill-rule="nonzero" /><path d="M 92.81 94.12 L 92.02 94.76 C 91.38 95.29 91.28 96.25 91.81 96.90 C 92.35 97.55 93.30 97.64 93.95 97.11 L 94.74 96.46 C 95.38 95.93 95.48 94.97 94.94 94.33 C 94.41 93.68 93.45 93.59 92.81 94.12 Z M 92.02 94.76 L 91.27 95.38 C 90.62 95.91 90.52 96.87 91.05 97.52 C 91.58 98.17 92.54 98.27 93.19 97.73 L 93.95 97.11 C 94.60 96.58 94.70 95.62 94.16 94.97 C 93.63 94.32 92.67 94.22 92.02 94.76 Z M 91.24 95.38 L 90.49 96.01 C 89.84 96.56 89.76 97.53 90.31 98.18 C 90.85 98.83 91.83 98.91 92.48 98.36 L 93.22 97.73 C 93.87 97.18 93.95 96.21 93.41 95.56 C 92.86 94.91 91.89 94.83 91.24 95.38 Z M 90.40 96.07 L 89.61 96.83 C 88.99 97.43 88.97 98.42 89.57 99.04 C 90.17 99.66 91.16 99.67 91.78 99.07 L 92.57 98.31 C 93.19 97.71 93.20 96.72 92.60 96.10 C 92.00 95.48 91.02 95.47 90.40 96.07 Z M 89.29 97.25 L 88.88 98.07 C 88.49 98.84 88.80 99.78 89.57 100.17 C 90.35 100.56 91.29 100.25 91.68 99.48 L 92.09 98.66 C 92.48 97.88 92.17 96.94 91.39 96.55 C 90.62 96.17 89.68 96.48 89.29 97.25 Z M 89.20 99.90 L 89.74 100.42 C 90.36 101.01 91.35 100.99 91.95 100.37 C 92.54 99.74 92.52 98.76 91.90 98.16 L 91.36 97.65 C 90.73 97.05 89.75 97.07 89.15 97.69 C 88.56 98.32 88.58 99.30 89.20 99.90 Z M 90.38 100.77 L 91.44 101.09 C 92.26 101.33 93.12 100.87 93.36 100.05 C 93.61 99.23 93.14 98.37 92.32 98.12 L 91.26 97.81 C 90.44 97.56 89.58 98.03 89.34 98.85 C 89.09 99.67 89.56 100.53 90.38 100.77 Z M 91.61 101.10 L 92.68 101.30 C 93.50 101.45 94.29 100.90 94.45 100.08 C 94.60 99.26 94.05 98.47 93.23 98.31 L 92.16 98.11 C 91.33 97.96 90.54 98.51 90.39 99.33 C 90.24 100.15 90.78 100.95 91.61 101.10 Z M 92.76 101.26 L 93.72 101.39 C 94.52 101.50 95.26 100.94 95.37 100.14 C 95.48 99.33 94.92 98.59 94.12 98.48 L 93.16 98.35 C 92.35 98.24 91.61 98.80 91.50 99.60 C 91.39 100.41 91.95 101.15 92.76 101.26 Z M 93.74 101.36 L 94.06 101.40 C 94.84 101.49 95.56 100.93 95.65 100.15 C 95.75 99.36 95.19 98.65 94.40 98.55 L 94.09 98.51 C 93.30 98.42 92.59 98.98 92.49 99.76 C 92.40 100.55 92.96 101.26 93.74 101.36 Z"
      fill="black"
      fill-rule="nonzero" /><path d="M 154.13 145.65 L 153.10 145.71 C 152.25 145.76 151.60 146.50 151.65 147.35 C 151.70 148.20 152.43 148.85 153.28 148.80 L 154.31 148.74 C 155.16 148.69 155.81 147.96 155.76 147.10 C 155.71 146.25 154.98 145.60 154.13 145.65 Z M 152.92 145.70 L 151.96 145.87 C 151.10 146.02 150.52 146.84 150.67 147.70 C 150.83 148.56 151.64 149.13 152.50 148.98 L 153.47 148.81 C 154.32 148.66 154.90 147.84 154.75 146.98 C 154.60 146.12 153.78 145.55 152.92 145.70 Z M 151.52 145.99 L 150.60 146.44 C 149.80 146.83 149.48 147.79 149.87 148.59 C 150.26 149.38 151.22 149.71 152.01 149.32 L 152.94 148.86 C 153.73 148.47 154.06 147.51 153.67 146.72 C 153.28 145.92 152.32 145.60 151.52 145.99 Z M 149.96 146.98 L 149.45 147.75 C 148.95 148.49 149.15 149.49 149.89 149.99 C 150.64 150.49 151.64 150.29 152.14 149.55 L 152.65 148.78 C 153.15 148.04 152.95 147.03 152.21 146.54 C 151.46 146.04 150.46 146.24 149.96 146.98 Z M 149.17 148.46 L 149.05 149.46 C 148.95 150.36 149.59 151.17 150.49 151.28 C 151.39 151.38 152.20 150.73 152.31 149.84 L 152.42 148.83 C 152.52 147.93 151.88 147.12 150.98 147.02 C 150.08 146.92 149.27 147.56 149.17 148.46 Z M 149.02 149.63 L 149.01 150.59 C 149.00 151.50 149.73 152.25 150.65 152.27 C 151.56 152.28 152.31 151.55 152.32 150.63 L 152.33 149.67 C 152.34 148.76 151.61 148.01 150.70 148.00 C 149.79 147.98 149.04 148.72 149.02 149.63 Z M 149.00 150.61 L 149.00 151.60 C 149.00 152.52 149.75 153.27 150.67 153.27 C 151.58 153.27 152.33 152.53 152.33 151.61 L 152.33 150.61 C 152.33 149.69 151.59 148.95 150.67 148.95 C 149.75 148.95 149.00 149.69 149.00 150.61 Z M 148.99 151.62 L 149.00 152.58 C 149.01 153.51 149.77 154.25 150.69 154.24 C 151.62 154.23 152.36 153.48 152.35 152.55 L 152.34 151.59 C 152.33 150.66 151.58 149.92 150.65 149.93 C 149.73 149.94 148.98 150.70 148.99 151.62 Z M 148.99 152.63 L 149.03 153.69 C 149.06 154.62 149.84 155.35 150.77 155.32 C 151.70 155.29 152.43 154.51 152.40 153.57 L 152.36 152.51 C 152.33 151.58 151.55 150.85 150.62 150.88 C 149.69 150.91 148.96 151.70 148.99 152.63 Z M 149.02 153.74 L 149.08 154.69 C 149.14 155.62 149.95 156.33 150.88 156.27 C 151.81 156.21 152.52 155.40 152.46 154.47 L 152.40 153.53 C 152.34 152.59 151.54 151.88 150.60 151.94 C 149.67 152.00 148.96 152.81 149.02 153.74 Z M 149.08 154.73 L 149.17 155.74 C 149.25 156.68 150.07 157.37 151.01 157.29 C 151.94 157.21 152.64 156.38 152.55 155.45 L 152.47 154.43 C 152.38 153.50 151.56 152.80 150.63 152.89 C 149.69 152.97 149.00 153.79 149.08 154.73 Z M 149.17 155.78 L 149.28 156.81 C 149.38 157.74 150.22 158.42 151.16 158.32 C 152.09 158.22 152.77 157.38 152.67 156.44 L 152.56 155.41 C 152.45 154.48 151.61 153.80 150.68 153.90 C 149.74 154.00 149.07 154.84 149.17 155.78 Z M 149.28 156.84 L 149.40 157.80 C 149.52 158.74 150.37 159.40 151.31 159.29 C 152.24 159.17 152.91 158.31 152.79 157.38 L 152.67 156.41 C 152.55 155.47 151.70 154.81 150.76 154.93 C 149.82 155.05 149.16 155.90 149.28 156.84 Z M 149.40 157.82 L 149.53 158.82 C 149.66 159.76 150.53 160.41 151.46 160.28 C 152.40 160.16 153.06 159.29 152.93 158.35 L 152.79 157.36 C 152.66 156.42 151.80 155.77 150.86 155.89 C 149.92 156.02 149.27 156.89 149.40 157.82 Z M 149.53 158.83 L 149.68 159.85 C 149.82 160.79 150.69 161.44 151.62 161.31 C 152.56 161.17 153.21 160.30 153.08 159.36 L 152.93 158.34 C 152.79 157.40 151.92 156.75 150.99 156.89 C 150.05 157.02 149.40 157.89 149.53 158.83 Z M 149.68 159.86 L 149.82 160.82 C 149.95 161.76 150.83 162.41 151.77 162.27 C 152.71 162.13 153.36 161.26 153.22 160.32 L 153.08 159.36 C 152.94 158.42 152.07 157.77 151.13 157.91 C 150.19 158.04 149.54 158.92 149.68 159.86 Z M 149.81 160.82 L 149.95 161.80 C 150.09 162.74 150.97 163.40 151.92 163.26 C 152.86 163.12 153.51 162.24 153.37 161.29 L 153.23 160.31 C 153.09 159.37 152.21 158.72 151.27 158.86 C 150.32 159.00 149.67 159.87 149.81 160.82 Z M 149.95 161.80 L 150.10 162.81 C 150.24 163.76 151.12 164.41 152.07 164.27 C 153.01 164.13 153.67 163.25 153.53 162.30 L 153.38 161.29 C 153.24 160.35 152.36 159.69 151.41 159.83 C 150.46 159.97 149.81 160.85 149.95 161.80 Z M 150.09 162.81 L 150.23 163.79 C 150.37 164.74 151.25 165.40 152.21 165.27 C 153.16 165.13 153.82 164.24 153.68 163.29 L 153.54 162.31 C 153.40 161.35 152.51 160.69 151.56 160.83 C 150.61 160.97 149.95 161.85 150.09 162.81 Z M 150.23 163.79 L 150.36 164.74 C 150.50 165.69 151.38 166.36 152.33 166.23 C 153.29 166.09 153.96 165.21 153.82 164.25 L 153.69 163.30 C 153.55 162.34 152.67 161.68 151.71 161.81 C 150.76 161.95 150.09 162.83 150.23 163.79 Z M 150.35 164.73 L 150.49 165.71 C 150.62 166.67 151.50 167.35 152.46 167.22 C 153.42 167.09 154.09 166.20 153.96 165.25 L 153.83 164.26 C 153.70 163.30 152.81 162.63 151.86 162.76 C 150.90 162.89 150.22 163.77 150.35 164.73 Z M 150.48 165.70 L 150.61 166.72 C 150.73 167.69 151.61 168.37 152.57 168.25 C 153.54 168.12 154.22 167.24 154.10 166.28 L 153.97 165.26 C 153.84 164.30 152.96 163.61 152.00 163.74 C 151.04 163.86 150.36 164.74 150.48 165.70 Z M 150.60 166.71 L 150.72 167.71 C 150.83 168.68 151.71 169.37 152.68 169.26 C 153.64 169.14 154.34 168.27 154.22 167.30 L 154.10 166.30 C 153.99 165.33 153.11 164.64 152.15 164.75 C 151.18 164.87 150.49 165.74 150.60 166.71 Z M 150.71 167.70 L 150.82 168.65 C 150.92 169.62 151.80 170.32 152.77 170.21 C 153.74 170.11 154.44 169.23 154.33 168.26 L 154.23 167.31 C 154.12 166.34 153.25 165.64 152.28 165.75 C 151.31 165.86 150.61 166.73 150.71 167.70 Z M 150.81 168.64 L 150.91 169.62 C 151.01 170.59 151.88 171.30 152.86 171.20 C 153.83 171.10 154.54 170.23 154.44 169.26 L 154.34 168.27 C 154.24 167.30 153.37 166.59 152.39 166.69 C 151.42 166.79 150.71 167.66 150.81 168.64 Z M 150.91 169.61 L 151.01 170.62 C 151.10 171.60 151.97 172.31 152.95 172.22 C 153.92 172.12 154.64 171.26 154.54 170.28 L 154.44 169.27 C 154.35 168.29 153.48 167.58 152.50 167.67 C 151.53 167.77 150.81 168.63 150.91 169.61 Z M 151.00 170.62 L 151.10 171.66 C 151.19 172.64 152.06 173.36 153.04 173.27 C 154.02 173.18 154.74 172.31 154.64 171.33 L 154.55 170.29 C 154.46 169.31 153.59 168.59 152.61 168.68 C 151.63 168.77 150.91 169.64 151.00 170.62 Z M 151.10 171.66 L 151.19 172.63 C 151.28 173.61 152.14 174.33 153.12 174.24 C 154.10 174.15 154.83 173.29 154.74 172.31 L 154.65 171.33 C 154.56 170.35 153.69 169.63 152.71 169.72 C 151.73 169.81 151.01 170.68 151.10 171.66 Z M 151.18 172.62 L 151.27 173.58 C 151.35 174.56 152.22 175.29 153.20 175.20 C 154.19 175.11 154.91 174.25 154.83 173.27 L 154.74 172.31 C 154.65 171.33 153.79 170.60 152.80 170.69 C 151.82 170.78 151.10 171.64 151.18 172.62 Z M 151.26 173.57 L 151.35 174.56 C 151.43 175.54 152.30 176.27 153.28 176.19 C 154.27 176.10 155.00 175.24 154.91 174.25 L 154.83 173.27 C 154.74 172.29 153.88 171.56 152.89 171.64 C 151.91 171.72 151.18 172.59 151.26 173.57 Z M 151.34 174.55 L 151.43 175.56 C 151.51 176.54 152.37 177.28 153.36 177.20 C 154.34 177.12 155.08 176.25 155.00 175.27 L 154.92 174.26 C 154.83 173.27 153.97 172.54 152.98 172.62 C 152.00 172.70 151.26 173.56 151.34 174.55 Z M 151.42 175.55 L 151.50 176.59 C 151.58 177.58 152.44 178.32 153.43 178.24 C 154.42 178.16 155.16 177.30 155.08 176.31 L 155.00 175.27 C 154.92 174.28 154.06 173.55 153.07 173.62 C 152.09 173.70 151.35 174.56 151.42 175.55 Z M 151.50 176.58 L 151.58 177.62 C 151.65 178.61 152.51 179.35 153.50 179.28 C 154.49 179.21 155.23 178.35 155.16 177.36 L 155.09 176.32 C 155.01 175.33 154.15 174.59 153.16 174.66 C 152.17 174.73 151.43 175.59 151.50 176.58 Z M 151.58 177.61 L 151.64 178.61 C 151.71 179.60 152.57 180.34 153.56 180.28 C 154.55 180.21 155.30 179.35 155.23 178.36 L 155.16 177.36 C 155.09 176.37 154.24 175.63 153.24 175.69 C 152.25 175.76 151.51 176.62 151.58 177.61 Z M 151.64 178.60 L 151.71 179.61 C 151.78 180.60 152.63 181.35 153.62 181.29 C 154.62 181.22 155.37 180.36 155.30 179.37 L 155.23 178.36 C 155.17 177.37 154.31 176.62 153.32 176.69 C 152.33 176.75 151.58 177.61 151.64 178.60 Z M 151.71 179.61 L 151.77 180.62 C 151.84 181.61 152.69 182.36 153.69 182.30 C 154.68 182.24 155.43 181.38 155.37 180.39 L 155.30 179.38 C 155.24 178.38 154.38 177.63 153.39 177.69 C 152.40 177.76 151.65 178.61 151.71 179.61 Z M 151.77 180.62 L 151.84 181.62 C 151.90 182.62 152.75 183.37 153.75 183.31 C 154.74 183.25 155.49 182.39 155.43 181.40 L 155.37 180.39 C 155.31 179.40 154.45 178.64 153.46 178.71 C 152.47 178.77 151.71 179.62 151.77 180.62 Z M 151.83 181.62 L 151.89 182.61 C 151.96 183.61 152.81 184.36 153.80 184.30 C 154.80 184.24 155.55 183.38 155.49 182.39 L 155.43 181.40 C 155.37 180.41 154.52 179.65 153.52 179.71 C 152.53 179.77 151.77 180.63 151.83 181.62 Z M 151.89 182.61 L 151.95 183.61 C 152.01 184.61 152.87 185.37 153.86 185.31 C 154.86 185.25 155.62 184.39 155.55 183.40 L 155.49 182.39 C 155.43 181.40 154.58 180.64 153.58 180.70 C 152.59 180.76 151.83 181.62 151.89 182.61 Z M 151.95 183.61 L 152.02 184.66 C 152.08 185.65 152.93 186.41 153.93 186.35 C 154.92 186.29 155.68 185.43 155.62 184.44 L 155.56 183.40 C 155.50 182.40 154.64 181.64 153.65 181.70 C 152.65 181.76 151.89 182.62 151.95 183.61 Z M 152.02 184.66 L 152.08 185.67 C 152.14 186.66 152.99 187.42 153.99 187.36 C 154.98 187.30 155.74 186.45 155.68 185.45 L 155.62 184.44 C 155.56 183.45 154.71 182.69 153.71 182.75 C 152.71 182.81 151.96 183.66 152.02 184.66 Z M 152.07 185.67 L 152.13 186.65 C 152.19 187.65 153.05 188.41 154.04 188.35 C 155.04 188.29 155.80 187.44 155.74 186.44 L 155.68 185.45 C 155.62 184.46 154.77 183.70 153.77 183.76 C 152.78 183.82 152.02 184.67 152.07 185.67 Z M 152.13 186.65 L 152.19 187.62 C 152.24 188.61 153.10 189.38 154.09 189.32 C 155.09 189.26 155.85 188.41 155.80 187.41 L 155.74 186.44 C 155.68 185.45 154.83 184.69 153.83 184.74 C 152.84 184.80 152.07 185.65 152.13 186.65 Z M 152.19 187.61 L 152.24 188.57 C 152.29 189.57 153.15 190.33 154.14 190.28 C 155.14 190.22 155.90 189.37 155.85 188.37 L 155.80 187.42 C 155.74 186.42 154.89 185.66 153.89 185.71 C 152.89 185.76 152.13 186.62 152.19 187.61 Z M 152.24 188.57 L 152.29 189.56 C 152.34 190.56 153.19 191.32 154.19 191.27 C 155.19 191.22 155.95 190.37 155.90 189.37 L 155.85 188.38 C 155.80 187.38 154.95 186.61 153.95 186.67 C 152.95 186.72 152.19 187.57 152.24 188.57 Z M 152.29 189.55 L 152.34 190.54 C 152.39 191.54 153.24 192.31 154.24 192.26 C 155.23 192.21 156.00 191.36 155.95 190.36 L 155.90 189.37 C 155.85 188.38 155.00 187.61 154.01 187.66 C 153.01 187.71 152.24 188.56 152.29 189.55 Z M 152.34 190.54 L 152.39 191.54 C 152.43 192.53 153.28 193.30 154.28 193.26 C 155.28 193.21 156.05 192.36 156.00 191.36 L 155.95 190.37 C 155.90 189.37 155.06 188.60 154.06 188.65 C 153.06 188.70 152.29 189.54 152.34 190.54 Z M 152.39 191.53 L 152.43 192.53 C 152.48 193.53 153.32 194.30 154.32 194.26 C 155.32 194.21 156.09 193.37 156.05 192.37 L 156.00 191.36 C 155.95 190.37 155.11 189.59 154.11 189.64 C 153.11 189.69 152.34 190.53 152.39 191.53 Z M 152.43 192.53 L 152.48 193.55 C 152.52 194.54 153.37 195.32 154.37 195.27 C 155.36 195.23 156.14 194.38 156.09 193.38 L 156.05 192.37 C 156.00 191.37 155.16 190.60 154.16 190.64 C 153.16 190.69 152.39 191.53 152.43 192.53 Z M 152.48 193.54 L 152.52 194.51 C 152.56 195.51 153.41 196.28 154.40 196.24 C 155.40 196.20 156.18 195.35 156.13 194.36 L 156.09 193.39 C 156.05 192.39 155.20 191.61 154.21 191.66 C 153.21 191.70 152.43 192.54 152.48 193.54 Z M 152.52 194.51 L 152.56 195.49 C 152.60 196.48 153.45 197.26 154.44 197.22 C 155.44 197.17 156.21 196.33 156.17 195.34 L 156.13 194.36 C 156.09 193.36 155.25 192.59 154.25 192.63 C 153.25 192.67 152.48 193.51 152.52 194.51 Z M 152.56 195.48 L 152.60 196.48 C 152.64 197.47 153.48 198.25 154.48 198.21 C 155.48 198.17 156.25 197.33 156.21 196.33 L 156.17 195.34 C 156.13 194.34 155.29 193.57 154.30 193.61 C 153.30 193.65 152.52 194.49 152.56 195.48 Z M 152.61 196.47 L 152.65 197.48 C 152.68 198.48 153.52 199.25 154.51 199.21 C 155.51 199.18 156.28 198.34 156.25 197.34 L 156.21 196.34 C 156.17 195.34 155.33 194.57 154.34 194.60 C 153.34 194.64 152.57 195.48 152.61 196.47 Z M 152.65 197.48 L 152.68 198.50 C 152.72 199.50 153.55 200.27 154.55 200.24 C 155.54 200.20 156.32 199.37 156.28 198.37 L 156.24 197.35 C 156.21 196.35 155.37 195.58 154.38 195.61 C 153.39 195.65 152.61 196.48 152.65 197.48 Z M 152.69 198.50 L 152.72 199.51 C 152.75 200.50 153.59 201.28 154.58 201.25 C 155.57 201.21 156.35 200.38 156.31 199.39 L 156.28 198.38 C 156.25 197.39 155.41 196.61 154.42 196.64 C 153.43 196.68 152.65 197.51 152.69 198.50 Z M 152.72 199.51 L 152.75 200.49 C 152.78 201.48 153.61 202.26 154.60 202.23 C 155.60 202.20 156.37 201.37 156.34 200.38 L 156.31 199.40 C 156.28 198.40 155.45 197.63 154.46 197.66 C 153.47 197.69 152.69 198.52 152.72 199.51 Z M 152.76 200.49 L 152.78 201.48 C 152.81 202.47 153.64 203.25 154.63 203.22 C 155.62 203.19 156.40 202.36 156.37 201.37 L 156.34 200.38 C 156.31 199.39 155.49 198.61 154.50 198.64 C 153.51 198.67 152.73 199.50 152.76 200.49 Z M 152.79 201.48 L 152.81 202.48 C 152.84 203.47 153.66 204.25 154.65 204.22 C 155.64 204.19 156.42 203.37 156.40 202.38 L 156.37 201.38 C 156.34 200.39 155.52 199.61 154.53 199.64 C 153.54 199.66 152.76 200.49 152.79 201.48 Z M 152.81 202.47 L 152.84 203.48 C 152.86 204.47 153.68 205.25 154.67 205.23 C 155.66 205.20 156.44 204.38 156.42 203.39 L 156.39 202.39 C 156.37 201.40 155.55 200.62 154.56 200.64 C 153.57 200.66 152.79 201.49 152.81 202.47 Z M 152.84 203.48 L 152.86 204.49 C 152.89 205.48 153.70 206.26 154.69 206.24 C 155.68 206.22 156.46 205.40 156.44 204.41 L 156.42 203.40 C 156.39 202.41 155.58 201.63 154.59 201.65 C 153.60 201.67 152.82 202.49 152.84 203.48 Z M 152.87 204.49 L 152.89 205.50 C 152.91 206.48 153.72 207.27 154.71 207.25 C 155.69 207.23 156.48 206.41 156.46 205.43 L 156.44 204.42 C 156.42 203.43 155.60 202.65 154.62 202.67 C 153.63 202.69 152.85 203.50 152.87 204.49 Z M 152.89 205.49 L 152.91 206.49 C 152.92 207.48 153.73 208.26 154.72 208.24 C 155.71 208.23 156.49 207.41 156.47 206.43 L 156.46 205.43 C 156.44 204.44 155.63 203.66 154.64 203.68 C 153.66 203.69 152.87 204.51 152.89 205.49 Z M 152.91 206.49 L 152.92 207.49 C 152.94 208.47 153.75 209.26 154.73 209.24 C 155.71 209.23 156.50 208.42 156.49 207.43 L 156.47 206.43 C 156.46 205.45 155.65 204.66 154.66 204.68 C 153.68 204.69 152.89 205.50 152.91 206.49 Z M 152.92 207.48 L 152.94 208.48 C 152.95 209.47 153.76 210.25 154.74 210.24 C 155.72 210.23 156.51 209.42 156.50 208.44 L 156.48 207.44 C 156.47 206.45 155.66 205.67 154.68 205.68 C 153.70 205.69 152.91 206.50 152.92 207.48 Z M 152.94 208.48 L 152.95 209.48 C 152.96 210.46 153.76 211.25 154.75 211.24 C 155.73 211.23 156.51 210.42 156.50 209.44 L 156.49 208.44 C 156.48 207.46 155.68 206.67 154.70 206.68 C 153.72 206.69 152.93 207.50 152.94 208.48 Z M 152.95 209.48 L 152.96 210.48 C 152.97 211.46 153.77 212.24 154.75 212.24 C 155.73 212.23 156.52 211.43 156.51 210.45 L 156.50 209.45 C 156.49 208.47 155.69 207.68 154.71 207.68 C 153.73 207.69 152.94 208.49 152.95 209.48 Z M 152.96 210.47 L 152.97 211.49 C 152.97 212.47 153.77 213.26 154.75 213.25 C 155.73 213.25 156.52 212.45 156.52 211.47 L 156.51 210.45 C 156.50 209.47 155.70 208.68 154.72 208.69 C 153.74 208.69 152.96 209.49 152.96 210.47 Z M 152.97 211.49 L 152.98 212.53 C 152.98 213.50 153.78 214.29 154.75 214.29 C 155.73 214.29 156.52 213.49 156.52 212.51 L 156.51 211.47 C 156.51 210.49 155.71 209.71 154.73 209.71 C 153.76 209.71 152.97 210.51 152.97 211.49 Z M 152.98 212.52 L 152.98 213.55 C 152.98 214.53 153.78 215.32 154.75 215.31 C 155.73 215.31 156.52 214.52 156.52 213.54 L 156.51 212.51 C 156.51 211.54 155.72 210.75 154.74 210.75 C 153.76 210.75 152.98 211.55 152.98 212.52 Z M 152.98 213.55 L 152.99 214.56 C 152.99 215.53 153.78 216.32 154.75 216.32 C 155.73 216.32 156.52 215.53 156.52 214.55 L 156.51 213.54 C 156.51 212.57 155.72 211.78 154.75 211.78 C 153.77 211.78 152.98 212.57 152.98 213.55 Z M 152.99 214.55 L 152.99 215.54 C 152.99 216.51 153.78 217.30 154.75 217.30 C 155.73 217.30 156.51 216.51 156.51 215.53 L 156.51 214.55 C 156.51 213.58 155.72 212.79 154.75 212.79 C 153.78 212.79 152.99 213.58 152.99 214.55 Z M 152.99 215.54 L 152.99 216.48 C 152.99 217.45 153.78 218.24 154.75 218.24 C 155.72 218.24 156.51 217.45 156.51 216.48 L 156.51 215.53 C 156.51 214.56 155.72 213.78 154.75 213.78 C 153.78 213.78 152.99 214.56 152.99 215.54 Z M 152.99 216.48 L 152.99 217.51 C 152.99 218.48 153.78 219.27 154.75 219.27 C 155.72 219.27 156.51 218.48 156.51 217.51 L 156.51 216.48 C 156.51 215.51 155.72 214.73 154.75 214.73 C 153.78 214.73 152.99 215.51 152.99 216.48 Z M 153.00 217.51 L 153.00 218.54 C 153.00 219.51 153.78 220.30 154.75 220.30 C 155.72 220.30 156.51 219.51 156.51 218.54 L 156.51 217.51 C 156.51 216.54 155.72 215.76 154.75 215.76 C 153.78 215.76 153.00 216.54 153.00 217.51 Z M 153.00 218.54 L 153.00 219.54 C 153.00 220.50 153.78 221.29 154.75 221.29 C 155.72 221.29 156.50 220.50 156.50 219.54 L 156.50 218.54 C 156.50 217.58 155.72 216.79 154.75 216.79 C 153.78 216.79 153.00 217.58 153.00 218.54 Z M 153.00 219.54 L 153.00 220.51 C 153.00 221.47 153.79 222.25 154.75 222.25 C 155.72 222.25 156.50 221.47 156.50 220.51 L 156.50 219.54 C 156.50 218.57 155.72 217.79 154.75 217.79 C 153.79 217.79 153.00 218.57 153.00 219.54 Z M 153.01 220.51 L 153.01 221.46 C 153.01 222.43 153.79 223.21 154.75 223.21 C 155.72 223.21 156.50 222.43 156.50 221.46 L 156.50 220.51 C 156.50 219.54 155.72 218.76 154.75 218.76 C 153.79 218.76 153.01 219.54 153.01 220.51 Z M 153.01 221.46 L 153.01 222.45 C 153.01 223.42 153.79 224.20 154.75 224.20 C 155.71 224.20 156.49 223.42 156.49 222.45 L 156.49 221.46 C 156.49 220.50 155.71 219.72 154.75 219.72 C 153.79 219.72 153.01 220.50 153.01 221.46 Z M 153.01 222.45 L 153.01 223.45 C 153.01 224.41 153.79 225.19 154.75 225.19 C 155.71 225.19 156.49 224.41 156.49 223.45 L 156.49 222.45 C 156.49 221.49 155.71 220.71 154.75 220.71 C 153.79 220.71 153.01 221.49 153.01 222.45 Z M 153.01 223.45 L 153.01 224.45 C 153.01 225.41 153.79 226.19 154.75 226.19 C 155.71 226.19 156.49 225.41 156.49 224.45 L 156.49 223.45 C 156.49 222.49 155.71 221.71 154.75 221.71 C 153.79 221.71 153.01 222.49 153.01 223.45 Z M 153.01 224.45 L 153.01 225.46 C 153.01 226.42 153.79 227.19 154.75 227.19 C 155.71 227.19 156.49 226.42 156.49 225.46 L 156.49 224.45 C 156.49 223.49 155.71 222.71 154.75 222.71 C 153.79 222.71 153.01 223.49 153.01 224.45 Z M 153.01 225.46 L 153.01 226.46 C 153.01 227.42 153.79 228.20 154.75 228.20 C 155.71 228.20 156.49 227.42 156.49 226.46 L 156.49 225.46 C 156.49 224.50 155.71 223.72 154.75 223.72 C 153.79 223.72 153.01 224.50 153.01 225.46 Z M 153.02 226.46 L 153.02 227.48 C 153.02 228.44 153.79 229.22 154.75 229.22 C 155.71 229.22 156.49 228.44 156.49 227.48 L 156.49 226.46 C 156.49 225.51 155.71 224.73 154.75 224.73 C 153.79 224.73 153.02 225.51 153.02 226.46 Z M 153.02 227.48 L 153.02 228.50 C 153.02 229.45 153.79 230.23 154.75 230.23 C 155.71 230.23 156.48 229.45 156.48 228.50 L 156.48 227.48 C 156.48 226.53 155.71 225.75 154.75 225.75 C 153.79 225.75 153.02 226.53 153.02 227.48 Z M 153.02 228.50 L 153.02 229.50 C 153.02 230.45 153.80 231.22 154.75 231.22 C 155.71 231.22 156.48 230.45 156.48 229.50 L 156.48 228.50 C 156.48 227.54 155.71 226.77 154.75 226.77 C 153.80 226.77 153.02 227.54 153.02 228.50 Z M 153.03 229.50 L 153.03 230.47 C 153.03 231.43 153.80 232.20 154.75 232.20 C 155.70 232.20 156.48 231.43 156.48 230.47 L 156.48 229.50 C 156.48 228.54 155.70 227.77 154.75 227.77 C 153.80 227.77 153.03 228.54 153.03 229.50 Z M 153.03 230.47 L 153.03 231.51 C 153.03 232.46 153.80 233.23 154.75 233.23 C 155.70 233.23 156.47 232.46 156.47 231.51 L 156.47 230.47 C 156.47 229.52 155.70 228.75 154.75 228.75 C 153.80 228.75 153.03 229.52 153.03 230.47 Z M 153.03 231.50 L 153.03 232.55 C 153.03 233.49 153.80 234.26 154.75 234.27 C 155.70 234.27 156.47 233.50 156.47 232.55 L 156.47 231.51 C 156.47 230.56 155.70 229.79 154.75 229.79 C 153.81 229.79 153.04 230.56 153.03 231.50 Z M 153.04 232.54 L 153.03 233.54 C 153.03 234.48 153.79 235.25 154.74 235.26 C 155.68 235.26 156.45 234.50 156.46 233.55 L 156.46 232.56 C 156.47 231.61 155.70 230.84 154.76 230.84 C 153.81 230.83 153.04 231.59 153.04 232.54 Z M 153.04 233.53 L 153.03 234.48 C 153.02 235.42 153.77 236.19 154.71 236.20 C 155.66 236.21 156.43 235.46 156.44 234.52 L 156.45 233.57 C 156.46 232.62 155.71 231.85 154.76 231.84 C 153.82 231.83 153.05 232.58 153.04 233.53 Z M 153.03 234.46 L 153.01 235.48 C 152.99 236.42 153.74 237.19 154.67 237.21 C 155.61 237.23 156.39 236.49 156.41 235.55 L 156.43 234.53 C 156.45 233.59 155.71 232.82 154.77 232.80 C 153.83 232.78 153.05 233.52 153.03 234.46 Z M 153.02 235.46 L 152.99 236.49 C 152.95 237.43 153.69 238.21 154.62 238.24 C 155.55 238.27 156.33 237.54 156.37 236.61 L 156.40 235.57 C 156.43 234.64 155.70 233.86 154.77 233.83 C 153.84 233.79 153.05 234.52 153.02 235.46 Z M 153.00 236.48 L 152.95 237.44 C 152.91 238.37 153.63 239.15 154.56 239.20 C 155.49 239.24 156.27 238.52 156.31 237.59 L 156.36 236.62 C 156.40 235.70 155.68 234.91 154.75 234.87 C 153.82 234.83 153.04 235.55 153.00 236.48 Z M 152.97 237.43 L 152.91 238.41 C 152.87 239.33 153.57 240.12 154.49 240.16 C 155.42 240.21 156.20 239.50 156.25 238.58 L 156.30 237.60 C 156.35 236.68 155.64 235.90 154.72 235.85 C 153.80 235.80 153.01 236.51 152.97 237.43 Z M 152.93 238.41 L 152.87 239.47 C 152.82 240.38 153.52 241.16 154.43 241.21 C 155.34 241.26 156.12 240.56 156.18 239.65 L 156.23 238.59 C 156.28 237.68 155.59 236.90 154.67 236.84 C 153.76 236.79 152.98 237.49 152.93 238.41 Z M 152.89 239.47 L 152.84 240.41 C 152.80 241.31 153.49 242.08 154.39 242.13 C 155.30 242.17 156.07 241.48 156.11 240.57 L 156.16 239.64 C 156.20 238.74 155.51 237.97 154.61 237.92 C 153.70 237.88 152.93 238.57 152.89 239.47 Z M 152.88 240.46 L 152.86 241.63 C 152.84 242.52 153.55 243.24 154.43 243.26 C 155.31 243.27 156.04 242.57 156.05 241.69 L 156.07 240.52 C 156.09 239.64 155.39 238.91 154.50 238.90 C 153.62 238.88 152.90 239.58 152.88 240.46 Z M 155.85 242.30 L 155.95 242.08 C 156.30 241.31 155.96 240.40 155.19 240.05 C 154.42 239.70 153.51 240.04 153.16 240.81 L 153.06 241.02 C 152.71 241.79 153.05 242.70 153.82 243.06 C 154.59 243.41 155.50 243.07 155.85 242.30 Z M 156.02 241.65 L 156.16 240.67 C 156.27 239.86 155.71 239.11 154.90 238.99 C 154.09 238.88 153.34 239.45 153.22 240.26 L 153.09 241.24 C 152.97 242.05 153.54 242.80 154.35 242.91 C 155.16 243.03 155.91 242.46 156.02 241.65 Z M 156.12 240.64 L 156.26 239.59 C 156.36 238.80 155.80 238.08 155.01 237.98 C 154.22 237.88 153.49 238.44 153.39 239.23 L 153.26 240.28 C 153.16 241.07 153.72 241.79 154.51 241.89 C 155.30 241.99 156.02 241.43 156.12 240.64 Z"
      fill="black"
      fill-rule="nonzero" /><path d="M 145.96 93.86 L 145.58 94.82 C 145.26 95.64 145.66 96.56 146.48 96.88 C 147.29 97.20 148.22 96.80 148.54 95.99 L 148.92 95.03 C 149.24 94.21 148.84 93.29 148.02 92.96 C 147.21 92.64 146.28 93.04 145.96 93.86 Z M 145.57 94.81 L 145.21 95.72 C 144.88 96.54 145.28 97.47 146.10 97.80 C 146.92 98.13 147.85 97.73 148.18 96.91 L 148.55 96.00 C 148.88 95.18 148.48 94.24 147.66 93.91 C 146.83 93.58 145.90 93.98 145.57 94.81 Z M 145.20 95.71 L 144.81 96.66 C 144.48 97.49 144.88 98.43 145.70 98.77 C 146.53 99.10 147.47 98.70 147.80 97.88 L 148.19 96.92 C 148.53 96.10 148.13 95.15 147.30 94.82 C 146.48 94.48 145.53 94.88 145.20 95.71 Z M 144.77 96.75 L 144.46 97.65 C 144.18 98.50 144.63 99.42 145.47 99.71 C 146.32 100.00 147.24 99.55 147.53 98.70 L 147.84 97.79 C 148.13 96.95 147.68 96.03 146.83 95.74 C 145.98 95.45 145.06 95.90 144.77 96.75 Z M 144.40 97.89 L 144.22 98.88 C 144.06 99.76 144.65 100.60 145.53 100.76 C 146.42 100.92 147.26 100.33 147.42 99.45 L 147.60 98.46 C 147.76 97.58 147.17 96.74 146.29 96.58 C 145.40 96.42 144.56 97.01 144.40 97.89 Z M 144.20 99.13 L 144.18 100.12 C 144.16 101.02 144.87 101.76 145.76 101.78 C 146.66 101.80 147.40 101.09 147.42 100.20 L 147.45 99.20 C 147.47 98.30 146.75 97.56 145.86 97.54 C 144.96 97.52 144.22 98.23 144.20 99.13 Z M 144.20 100.42 L 144.36 101.40 C 144.50 102.29 145.33 102.89 146.21 102.75 C 147.10 102.60 147.70 101.77 147.56 100.89 L 147.40 99.90 C 147.26 99.02 146.43 98.42 145.54 98.56 C 144.66 98.70 144.06 99.53 144.20 100.42 Z M 144.53 101.88 L 144.97 102.74 C 145.37 103.53 146.34 103.85 147.13 103.45 C 147.92 103.04 148.24 102.07 147.83 101.28 L 147.39 100.41 C 146.99 99.62 146.02 99.31 145.23 99.71 C 144.44 100.12 144.12 101.08 144.53 101.88 Z M 145.22 103.07 L 145.89 103.82 C 146.47 104.47 147.47 104.52 148.12 103.94 C 148.77 103.36 148.83 102.36 148.25 101.71 L 147.58 100.96 C 147.00 100.31 146.00 100.25 145.35 100.83 C 144.69 101.42 144.64 102.42 145.22 103.07 Z M 146.07 103.95 L 146.82 104.58 C 147.47 105.13 148.45 105.05 149.01 104.39 C 149.56 103.74 149.47 102.76 148.82 102.21 L 148.07 101.57 C 147.41 101.02 146.43 101.10 145.88 101.76 C 145.33 102.42 145.41 103.40 146.07 103.95 Z M 146.99 104.67 L 147.79 105.19 C 148.50 105.65 149.44 105.45 149.90 104.75 C 150.36 104.05 150.16 103.10 149.46 102.64 L 148.65 102.12 C 147.95 101.66 147.00 101.86 146.54 102.56 C 146.08 103.27 146.28 104.21 146.99 104.67 Z M 147.97 105.26 L 148.82 105.68 C 149.56 106.04 150.45 105.74 150.82 105.00 C 151.18 104.26 150.88 103.36 150.13 103.00 L 149.28 102.58 C 148.54 102.21 147.65 102.52 147.28 103.26 C 146.92 104.00 147.22 104.90 147.97 105.26 Z M 148.99 105.72 L 150.01 106.09 C 150.77 106.36 151.61 105.96 151.89 105.19 C 152.16 104.43 151.76 103.59 150.99 103.32 L 149.97 102.95 C 149.20 102.68 148.36 103.08 148.09 103.85 C 147.82 104.61 148.22 105.45 148.99 105.72 Z M 150.12 106.10 L 151.01 106.35 C 151.79 106.56 152.59 106.10 152.80 105.33 C 153.01 104.55 152.55 103.75 151.78 103.54 L 150.88 103.30 C 150.11 103.09 149.31 103.54 149.10 104.32 C 148.89 105.09 149.34 105.89 150.12 106.10 Z M 151.06 106.35 L 152.06 106.58 C 152.83 106.77 153.61 106.29 153.79 105.51 C 153.97 104.73 153.49 103.96 152.72 103.77 L 151.73 103.54 C 150.95 103.36 150.17 103.84 149.99 104.61 C 149.81 105.39 150.29 106.17 151.06 106.35 Z M 152.08 106.58 L 153.12 106.81 C 153.90 106.98 154.66 106.49 154.83 105.71 C 155.00 104.94 154.51 104.18 153.74 104.01 L 152.69 103.78 C 151.92 103.61 151.16 104.10 150.99 104.87 C 150.82 105.64 151.31 106.41 152.08 106.58 Z M 153.13 106.80 L 153.30 106.84 C 154.07 107.00 154.83 106.51 154.99 105.74 C 155.16 104.97 154.67 104.21 153.90 104.05 L 153.73 104.01 C 152.96 103.85 152.20 104.34 152.04 105.11 C 151.87 105.88 152.36 106.64 153.13 106.80 Z"
      fill="black"
      fill-rule="nonzero" /><path d="M 206.43 147.49 L 205.30 147.47 C 204.47 147.46 203.80 148.12 203.79 148.94 C 203.78 149.76 204.44 150.44 205.26 150.45 L 206.39 150.46 C 207.21 150.47 207.88 149.82 207.89 149.00 C 207.90 148.17 207.25 147.50 206.43 147.49 Z M 205.09 147.47 L 204.16 147.59 C 203.33 147.69 202.75 148.44 202.85 149.27 C 202.96 150.09 203.71 150.67 204.53 150.57 L 205.46 150.45 C 206.29 150.35 206.87 149.60 206.77 148.77 C 206.66 147.95 205.91 147.37 205.09 147.47 Z M 203.36 147.92 L 202.69 148.48 C 202.05 149.03 201.97 149.99 202.52 150.63 C 203.06 151.27 204.03 151.35 204.67 150.80 L 205.33 150.24 C 205.97 149.69 206.05 148.73 205.51 148.09 C 204.96 147.45 204.00 147.37 203.36 147.92 Z M 202.16 149.39 L 201.99 150.36 C 201.85 151.20 202.42 152.00 203.26 152.14 C 204.10 152.28 204.90 151.72 205.04 150.87 L 205.21 149.90 C 205.35 149.06 204.78 148.26 203.94 148.12 C 203.09 147.98 202.30 148.55 202.16 149.39 Z M 201.95 150.58 L 201.93 151.55 C 201.91 152.42 202.59 153.14 203.45 153.16 C 204.32 153.18 205.03 152.50 205.06 151.63 L 205.08 150.66 C 205.10 149.79 204.42 149.08 203.56 149.05 C 202.69 149.03 201.97 149.71 201.95 150.58 Z M 201.91 151.59 L 201.91 152.56 C 201.91 153.43 202.62 154.14 203.49 154.14 C 204.36 154.14 205.07 153.44 205.07 152.57 L 205.07 151.60 C 205.07 150.72 204.36 150.02 203.49 150.02 C 202.62 150.02 201.92 150.72 201.91 151.59 Z M 201.90 152.56 L 201.90 153.56 C 201.90 154.43 202.61 155.14 203.49 155.14 C 204.37 155.14 205.08 154.43 205.08 153.56 L 205.08 152.56 C 205.08 151.69 204.37 150.98 203.49 150.98 C 202.61 150.98 201.90 151.69 201.90 152.56 Z M 201.90 153.56 L 201.90 154.59 C 201.90 155.47 202.61 156.19 203.49 156.19 C 204.37 156.19 205.09 155.47 205.09 154.59 L 205.09 153.56 C 205.09 152.68 204.37 151.96 203.49 151.96 C 202.61 151.96 201.90 152.68 201.90 153.56 Z M 201.89 154.59 L 201.89 155.56 C 201.89 156.44 202.61 157.16 203.49 157.16 C 204.37 157.16 205.09 156.44 205.09 155.56 L 205.09 154.59 C 205.09 153.71 204.37 152.99 203.49 152.99 C 202.61 152.99 201.89 153.71 201.89 154.59 Z M 201.89 155.56 L 201.89 156.59 C 201.89 157.48 202.60 158.20 203.49 158.20 C 204.38 158.20 205.10 157.48 205.10 156.59 L 205.10 155.56 C 205.10 154.67 204.38 153.95 203.49 153.95 C 202.60 153.95 201.89 154.67 201.89 155.56 Z M 201.88 156.59 L 201.88 157.61 C 201.88 158.50 202.60 159.22 203.49 159.22 C 204.38 159.22 205.10 158.50 205.10 157.61 L 205.10 156.59 C 205.10 155.70 204.38 154.98 203.49 154.98 C 202.60 154.98 201.88 155.70 201.88 156.59 Z M 201.88 157.61 L 201.88 158.59 C 201.88 159.48 202.60 160.20 203.49 160.20 C 204.39 160.20 205.11 159.48 205.11 158.59 L 205.10 157.60 C 205.10 156.71 204.38 155.99 203.49 155.99 C 202.60 155.99 201.88 156.72 201.88 157.61 Z M 201.88 158.60 L 201.88 159.61 C 201.88 160.50 202.61 161.22 203.50 161.22 C 204.40 161.21 205.12 160.49 205.11 159.59 L 205.11 158.58 C 205.11 157.69 204.38 156.97 203.48 156.97 C 202.59 156.98 201.87 157.70 201.88 158.60 Z M 201.88 159.62 L 201.89 160.63 C 201.89 161.52 202.63 162.24 203.52 162.23 C 204.42 162.22 205.14 161.49 205.13 160.60 L 205.12 159.59 C 205.11 158.69 204.38 157.97 203.48 157.98 C 202.59 157.99 201.87 158.72 201.88 159.62 Z M 201.88 160.64 L 201.90 161.60 C 201.91 162.50 202.65 163.21 203.55 163.20 C 204.45 163.18 205.16 162.44 205.15 161.55 L 205.13 160.59 C 205.12 159.69 204.38 158.97 203.48 158.99 C 202.58 159.00 201.87 159.74 201.88 160.64 Z M 201.89 161.61 L 201.92 162.61 C 201.94 163.51 202.68 164.22 203.58 164.20 C 204.48 164.18 205.20 163.43 205.17 162.53 L 205.15 161.53 C 205.13 160.63 204.38 159.92 203.48 159.94 C 202.58 159.96 201.87 160.71 201.89 161.61 Z M 201.91 162.62 L 201.95 163.66 C 201.97 164.56 202.73 165.27 203.63 165.24 C 204.53 165.21 205.24 164.45 205.21 163.55 L 205.18 162.51 C 205.15 161.61 204.39 160.91 203.49 160.93 C 202.59 160.96 201.88 161.72 201.91 162.62 Z M 201.94 163.67 L 201.98 164.64 C 202.02 165.55 202.78 166.25 203.69 166.21 C 204.59 166.17 205.29 165.41 205.26 164.51 L 205.22 163.54 C 205.18 162.63 204.42 161.93 203.51 161.97 C 202.61 162.00 201.90 162.77 201.94 163.67 Z M 201.98 164.65 L 202.02 165.61 C 202.07 166.52 202.84 167.22 203.74 167.17 C 204.65 167.13 205.35 166.36 205.31 165.45 L 205.26 164.50 C 205.22 163.59 204.45 162.89 203.54 162.93 C 202.63 162.98 201.93 163.75 201.98 164.65 Z M 202.02 165.62 L 202.07 166.62 C 202.12 167.53 202.90 168.22 203.80 168.18 C 204.71 168.13 205.41 167.35 205.36 166.45 L 205.31 165.45 C 205.26 164.54 204.49 163.84 203.58 163.89 C 202.67 163.94 201.97 164.71 202.02 165.62 Z M 202.07 166.62 L 202.13 167.67 C 202.18 168.58 202.96 169.27 203.87 169.22 C 204.78 169.17 205.48 168.39 205.42 167.48 L 205.37 166.44 C 205.32 165.53 204.54 164.83 203.63 164.88 C 202.71 164.93 202.02 165.71 202.07 166.62 Z M 202.12 167.67 L 202.18 168.69 C 202.23 169.60 203.01 170.30 203.93 170.24 C 204.84 170.19 205.54 169.41 205.49 168.50 L 205.43 167.48 C 205.38 166.57 204.59 165.87 203.68 165.92 C 202.77 165.97 202.07 166.76 202.12 167.67 Z M 202.18 168.69 L 202.23 169.63 C 202.28 170.55 203.07 171.25 203.98 171.20 C 204.90 171.15 205.60 170.36 205.54 169.45 L 205.49 168.50 C 205.44 167.58 204.65 166.88 203.74 166.93 C 202.82 166.99 202.12 167.77 202.18 168.69 Z M 202.23 169.63 L 202.28 170.61 C 202.33 171.53 203.12 172.23 204.03 172.18 C 204.95 172.13 205.65 171.35 205.60 170.43 L 205.55 169.45 C 205.50 168.53 204.71 167.83 203.80 167.88 C 202.88 167.93 202.18 168.72 202.23 169.63 Z M 202.28 170.61 L 202.33 171.62 C 202.38 172.54 203.16 173.24 204.08 173.20 C 205.00 173.15 205.71 172.36 205.66 171.44 L 205.61 170.43 C 205.56 169.52 204.77 168.81 203.85 168.86 C 202.94 168.91 202.23 169.69 202.28 170.61 Z M 202.33 171.61 L 202.38 172.65 C 202.42 173.57 203.20 174.28 204.13 174.24 C 205.05 174.20 205.76 173.41 205.71 172.49 L 205.66 171.45 C 205.62 170.53 204.83 169.82 203.91 169.86 C 202.99 169.91 202.28 170.69 202.33 171.61 Z M 202.37 172.64 L 202.42 173.67 C 202.46 174.59 203.24 175.31 204.16 175.27 C 205.08 175.23 205.80 174.45 205.76 173.52 L 205.72 172.50 C 205.68 171.58 204.90 170.86 203.97 170.90 C 203.05 170.94 202.33 171.72 202.37 172.64 Z M 202.41 173.66 L 202.45 174.62 C 202.49 175.54 203.26 176.26 204.19 176.23 C 205.11 176.19 205.84 175.42 205.80 174.49 L 205.76 173.53 C 205.73 172.61 204.95 171.89 204.02 171.92 C 203.10 171.96 202.38 172.74 202.41 173.66 Z M 202.45 174.61 L 202.48 175.59 C 202.51 176.52 203.29 177.24 204.22 177.21 C 205.14 177.18 205.87 176.40 205.84 175.48 L 205.80 174.50 C 205.77 173.57 204.99 172.84 204.07 172.88 C 203.14 172.91 202.42 173.69 202.45 174.61 Z M 202.48 175.59 L 202.51 176.59 C 202.54 177.52 203.32 178.24 204.25 178.21 C 205.18 178.18 205.90 177.41 205.87 176.48 L 205.84 175.48 C 205.81 174.55 205.03 173.82 204.11 173.85 C 203.18 173.88 202.45 174.66 202.48 175.59 Z M 202.51 176.59 L 202.54 177.60 C 202.57 178.53 203.35 179.27 204.28 179.24 C 205.21 179.21 205.94 178.43 205.91 177.50 L 205.88 176.48 C 205.85 175.55 205.07 174.82 204.14 174.85 C 203.21 174.88 202.48 175.66 202.51 176.59 Z M 202.54 177.60 L 202.57 178.64 C 202.60 179.57 203.38 180.31 204.31 180.28 C 205.24 180.25 205.97 179.47 205.94 178.54 L 205.91 177.50 C 205.88 176.57 205.10 175.84 204.17 175.86 C 203.24 175.89 202.51 176.67 202.54 177.60 Z M 202.57 178.64 L 202.60 179.67 C 202.63 180.60 203.41 181.33 204.34 181.30 C 205.28 181.27 206.01 180.49 205.98 179.56 L 205.95 178.54 C 205.92 177.60 205.14 176.87 204.20 176.90 C 203.27 176.93 202.54 177.71 202.57 178.64 Z M 202.60 179.67 L 202.63 180.68 C 202.66 181.61 203.44 182.35 204.38 182.32 C 205.31 182.29 206.04 181.50 206.01 180.57 L 205.98 179.56 C 205.95 178.62 205.17 177.89 204.23 177.92 C 203.30 177.95 202.57 178.73 202.60 179.67 Z M 202.63 180.68 L 202.66 181.70 C 202.70 182.63 203.48 183.36 204.41 183.33 C 205.35 183.30 206.08 182.52 206.05 181.58 L 206.01 180.57 C 205.98 179.63 205.20 178.90 204.26 178.93 C 203.33 178.97 202.60 179.75 202.63 180.68 Z M 202.66 181.70 L 202.70 182.71 C 202.73 183.65 203.52 184.38 204.45 184.34 C 205.39 184.31 206.12 183.53 206.08 182.59 L 206.05 181.58 C 206.02 180.65 205.23 179.92 204.30 179.95 C 203.36 179.98 202.63 180.77 202.66 181.70 Z M 202.70 182.71 L 202.73 183.71 C 202.77 184.65 203.55 185.38 204.49 185.34 C 205.43 185.31 206.16 184.52 206.12 183.59 L 206.09 182.59 C 206.05 181.65 205.27 180.92 204.33 180.96 C 203.39 180.99 202.66 181.78 202.70 182.71 Z M 202.73 183.72 L 202.77 184.69 C 202.81 185.63 203.59 186.36 204.53 186.32 C 205.47 186.29 206.20 185.50 206.16 184.56 L 206.12 183.59 C 206.09 182.65 205.30 181.92 204.36 181.96 C 203.43 181.99 202.70 182.78 202.73 183.72 Z M 202.77 184.70 L 202.81 185.70 C 202.85 186.64 203.64 187.37 204.57 187.33 C 205.51 187.30 206.24 186.51 206.20 185.57 L 206.16 184.56 C 206.12 183.63 205.33 182.90 204.40 182.93 C 203.46 182.97 202.73 183.76 202.77 184.70 Z M 202.81 185.71 L 202.85 186.74 C 202.89 187.68 203.68 188.41 204.62 188.37 C 205.56 188.33 206.28 187.54 206.25 186.60 L 206.20 185.57 C 206.16 184.63 205.37 183.90 204.44 183.94 C 203.50 183.98 202.77 184.77 202.81 185.71 Z M 202.85 186.74 L 202.89 187.75 C 202.93 188.69 203.72 189.42 204.66 189.38 C 205.60 189.34 206.33 188.54 206.29 187.61 L 206.25 186.60 C 206.21 185.66 205.42 184.93 204.48 184.97 C 203.54 185.01 202.81 185.81 202.85 186.74 Z M 202.89 187.75 L 202.93 188.73 C 202.97 189.67 203.76 190.40 204.70 190.36 C 205.64 190.32 206.37 189.53 206.33 188.59 L 206.29 187.61 C 206.25 186.67 205.46 185.94 204.52 185.98 C 203.58 186.02 202.85 186.81 202.89 187.75 Z M 202.93 188.73 L 202.97 189.70 C 203.01 190.64 203.80 191.37 204.74 191.34 C 205.68 191.30 206.41 190.50 206.37 189.56 L 206.33 188.59 C 206.30 187.65 205.50 186.92 204.56 186.96 C 203.62 187.00 202.89 187.79 202.93 188.73 Z M 202.97 189.70 L 203.00 190.67 C 203.04 191.61 203.83 192.34 204.77 192.30 C 205.71 192.27 206.45 191.48 206.41 190.54 L 206.38 189.57 C 206.34 188.63 205.55 187.89 204.61 187.93 C 203.66 187.97 202.93 188.76 202.97 189.70 Z M 203.00 190.66 L 203.04 191.64 C 203.07 192.59 203.86 193.32 204.80 193.29 C 205.74 193.26 206.48 192.47 206.45 191.52 L 206.41 190.54 C 206.38 189.60 205.59 188.86 204.65 188.90 C 203.71 188.93 202.97 189.72 203.00 190.66 Z M 203.04 191.64 L 203.07 192.63 C 203.10 193.57 203.89 194.31 204.83 194.28 C 205.77 194.25 206.51 193.46 206.48 192.52 L 206.45 191.53 C 206.42 190.59 205.63 189.85 204.69 189.88 C 203.74 189.91 203.01 190.70 203.04 191.64 Z M 203.07 192.62 L 203.10 193.62 C 203.13 194.56 203.91 195.30 204.86 195.27 C 205.80 195.25 206.54 194.46 206.51 193.52 L 206.48 192.52 C 206.45 191.58 205.67 190.84 204.72 190.86 C 203.78 190.89 203.04 191.68 203.07 192.62 Z M 203.10 193.62 L 203.13 194.62 C 203.16 195.57 203.94 196.31 204.88 196.28 C 205.83 196.25 206.57 195.47 206.54 194.52 L 206.51 193.52 C 206.48 192.57 205.70 191.83 204.76 191.86 C 203.81 191.89 203.07 192.67 203.10 193.62 Z M 203.13 194.62 L 203.16 195.64 C 203.18 196.59 203.97 197.33 204.91 197.30 C 205.86 197.27 206.60 196.49 206.57 195.54 L 206.54 194.53 C 206.52 193.58 205.73 192.84 204.79 192.87 C 203.84 192.89 203.10 193.68 203.13 194.62 Z M 203.16 195.64 L 203.19 196.63 C 203.21 197.57 204.00 198.31 204.94 198.28 C 205.88 198.26 206.62 197.47 206.60 196.53 L 206.57 195.55 C 206.54 194.60 205.76 193.86 204.82 193.89 C 203.87 193.91 203.13 194.70 203.16 195.64 Z M 203.19 196.62 L 203.22 197.61 C 203.24 198.55 204.03 199.29 204.97 199.26 C 205.91 199.24 206.65 198.45 206.62 197.51 L 206.59 196.53 C 206.57 195.59 205.78 194.85 204.84 194.87 C 203.90 194.90 203.16 195.68 203.19 196.62 Z M 203.22 197.61 L 203.25 198.60 C 203.27 199.54 204.05 200.28 204.99 200.25 C 205.93 200.23 206.67 199.45 206.64 198.51 L 206.62 197.51 C 206.59 196.58 205.81 195.84 204.87 195.86 C 203.94 195.89 203.20 196.67 203.22 197.61 Z M 203.25 198.60 L 203.28 199.60 C 203.30 200.54 204.08 201.28 205.02 201.26 C 205.95 201.23 206.69 200.45 206.67 199.52 L 206.64 198.51 C 206.62 197.58 205.84 196.84 204.90 196.86 C 203.97 196.88 203.23 197.66 203.25 198.60 Z M 203.28 199.60 L 203.31 200.62 C 203.33 201.55 204.10 202.29 205.04 202.27 C 205.97 202.25 206.71 201.47 206.69 200.54 L 206.66 199.52 C 206.64 198.59 205.87 197.85 204.93 197.87 C 204.00 197.89 203.26 198.67 203.28 199.60 Z M 203.31 200.61 L 203.33 201.63 C 203.35 202.57 204.12 203.30 205.05 203.28 C 205.99 203.26 206.72 202.49 206.70 201.56 L 206.68 200.54 C 206.66 199.61 205.89 198.87 204.96 198.89 C 204.03 198.91 203.29 199.68 203.31 200.61 Z M 203.33 201.63 L 203.35 202.63 C 203.37 203.56 204.14 204.30 205.07 204.28 C 206.00 204.27 206.74 203.50 206.72 202.57 L 206.70 201.57 C 206.68 200.64 205.92 199.90 204.99 199.91 C 204.06 199.93 203.32 200.70 203.33 201.63 Z M 203.36 202.63 L 203.37 203.63 C 203.39 204.56 204.15 205.30 205.08 205.29 C 206.01 205.27 206.75 204.50 206.73 203.58 L 206.72 202.57 C 206.70 201.64 205.94 200.90 205.01 200.92 C 204.08 200.93 203.34 201.70 203.36 202.63 Z M 203.38 203.63 L 203.39 204.63 C 203.40 205.56 204.17 206.30 205.09 206.29 C 206.02 206.27 206.76 205.51 206.75 204.58 L 206.73 203.58 C 206.72 202.65 205.96 201.91 205.03 201.93 C 204.10 201.94 203.36 202.70 203.38 203.63 Z M 203.39 204.63 L 203.41 205.63 C 203.42 206.56 204.18 207.30 205.11 207.29 C 206.03 207.27 206.77 206.51 206.76 205.59 L 206.74 204.59 C 206.73 203.66 205.97 202.92 205.05 202.93 C 204.12 202.95 203.38 203.71 203.39 204.63 Z M 203.41 205.63 L 203.42 206.63 C 203.43 207.55 204.19 208.29 205.12 208.28 C 206.04 208.27 206.78 207.51 206.77 206.58 L 206.76 205.59 C 206.74 204.66 205.98 203.93 205.06 203.94 C 204.14 203.95 203.40 204.71 203.41 205.63 Z M 203.43 206.63 L 203.44 207.63 C 203.45 208.55 204.21 209.29 205.13 209.28 C 206.05 209.26 206.79 208.51 206.78 207.58 L 206.77 206.58 C 206.75 205.66 206.00 204.92 205.07 204.94 C 204.15 204.95 203.41 205.71 203.43 206.63 Z M 203.44 207.63 L 203.45 208.65 C 203.47 209.57 204.22 210.31 205.14 210.29 C 206.06 210.28 206.80 209.53 206.79 208.60 L 206.78 207.58 C 206.76 206.66 206.01 205.93 205.09 205.94 C 204.17 205.95 203.43 206.71 203.44 207.63 Z M 203.46 208.65 L 203.47 209.66 C 203.48 210.58 204.24 211.31 205.16 211.30 C 206.08 211.29 206.81 210.53 206.80 209.61 L 206.78 208.60 C 206.77 207.69 206.02 206.95 205.10 206.96 C 204.18 206.97 203.45 207.73 203.46 208.65 Z M 203.47 209.66 L 203.49 210.66 C 203.50 211.57 204.25 212.31 205.17 212.29 C 206.09 212.28 206.82 211.53 206.81 210.61 L 206.79 209.61 C 206.78 208.70 206.03 207.96 205.11 207.97 C 204.20 207.99 203.46 208.74 203.47 209.66 Z M 203.49 210.66 L 203.50 211.64 C 203.52 212.56 204.27 213.29 205.18 213.28 C 206.10 213.27 206.83 212.52 206.82 211.60 L 206.80 210.61 C 206.79 209.70 206.04 208.96 205.13 208.98 C 204.21 208.99 203.48 209.74 203.49 210.66 Z M 203.51 211.64 L 203.52 212.63 C 203.53 213.54 204.28 214.27 205.20 214.26 C 206.11 214.24 206.84 213.49 206.83 212.58 L 206.81 211.60 C 206.80 210.69 206.05 209.96 205.14 209.97 C 204.23 209.98 203.50 210.73 203.51 211.64 Z M 203.52 212.63 L 203.54 213.66 C 203.55 214.57 204.30 215.30 205.21 215.29 C 206.12 215.28 206.85 214.53 206.84 213.61 L 206.83 212.58 C 206.81 211.67 206.06 210.94 205.15 210.95 C 204.24 210.96 203.51 211.71 203.52 212.63 Z M 203.54 213.66 L 203.55 214.70 C 203.57 215.61 204.32 216.34 205.23 216.33 C 206.14 216.32 206.87 215.57 206.85 214.66 L 206.84 213.61 C 206.83 212.70 206.08 211.97 205.17 211.99 C 204.25 212.00 203.53 212.75 203.54 213.66 Z M 203.55 214.70 L 203.57 215.72 C 203.58 216.63 204.33 217.36 205.24 217.35 C 206.15 217.33 206.88 216.58 206.87 215.67 L 206.85 214.65 C 206.84 213.74 206.09 213.02 205.18 213.03 C 204.27 213.04 203.54 213.79 203.55 214.70 Z M 203.57 215.72 L 203.58 216.71 C 203.60 217.62 204.35 218.35 205.26 218.33 C 206.17 218.32 206.90 217.57 206.88 216.66 L 206.87 215.67 C 206.85 214.76 206.10 214.03 205.19 214.05 C 204.28 214.06 203.56 214.81 203.57 215.72 Z M 203.58 216.71 L 203.60 217.66 C 203.61 218.57 204.36 219.29 205.28 219.28 C 206.19 219.26 206.91 218.51 206.90 217.60 L 206.88 216.66 C 206.87 215.75 206.12 215.02 205.21 215.04 C 204.30 215.05 203.57 215.80 203.58 216.71 Z M 203.60 217.66 L 203.62 218.68 C 203.63 219.59 204.39 220.31 205.30 220.29 C 206.21 220.28 206.93 219.53 206.91 218.62 L 206.90 217.60 C 206.88 216.69 206.13 215.97 205.22 215.98 C 204.31 216.00 203.58 216.75 203.60 217.66 Z M 203.62 218.68 L 203.64 219.71 C 203.66 220.62 204.41 221.34 205.32 221.32 C 206.23 221.31 206.95 220.55 206.93 219.64 L 206.91 218.61 C 206.90 217.70 206.14 216.98 205.23 217.00 C 204.33 217.02 203.60 217.77 203.62 218.68 Z M 203.64 219.71 L 203.66 220.70 C 203.68 221.60 204.43 222.33 205.34 222.31 C 206.25 222.29 206.97 221.54 206.95 220.63 L 206.93 219.64 C 206.91 218.73 206.16 218.01 205.25 218.03 C 204.34 218.05 203.62 218.80 203.64 219.71 Z M 203.66 220.70 L 203.68 221.66 C 203.70 222.56 204.45 223.28 205.36 223.27 C 206.27 223.25 206.99 222.50 206.97 221.59 L 206.95 220.63 C 206.93 219.72 206.18 219.00 205.27 219.02 C 204.36 219.04 203.64 219.79 203.66 220.70 Z M 203.69 221.66 L 203.70 222.62 C 203.72 223.53 204.47 224.25 205.38 224.23 C 206.29 224.21 207.01 223.46 206.99 222.56 L 206.97 221.59 C 206.95 220.68 206.20 219.96 205.29 219.98 C 204.39 220.00 203.67 220.75 203.69 221.66 Z M 203.71 222.62 L 203.73 223.62 C 203.74 224.52 204.49 225.24 205.40 225.23 C 206.30 225.21 207.02 224.46 207.01 223.56 L 206.99 222.56 C 206.97 221.65 206.22 220.93 205.32 220.95 C 204.41 220.97 203.69 221.72 203.71 222.62 Z M 203.73 223.61 L 203.74 224.61 C 203.76 225.52 204.50 226.24 205.41 226.22 C 206.31 226.21 207.04 225.46 207.02 224.56 L 207.00 223.56 C 206.99 222.65 206.24 221.93 205.34 221.95 C 204.43 221.96 203.71 222.71 203.73 223.61 Z M 203.75 224.61 L 203.76 225.61 C 203.77 226.52 204.51 227.24 205.42 227.23 C 206.32 227.21 207.04 226.47 207.03 225.57 L 207.02 224.56 C 207.01 223.66 206.26 222.94 205.36 222.95 C 204.46 222.96 203.73 223.71 203.75 224.61 Z M 203.76 225.61 L 203.77 226.62 C 203.78 227.52 204.52 228.24 205.42 228.23 C 206.32 228.23 207.05 227.49 207.04 226.58 L 207.03 225.58 C 207.02 224.67 206.28 223.95 205.38 223.96 C 204.48 223.97 203.75 224.70 203.76 225.61 Z M 203.77 226.61 L 203.78 227.62 C 203.79 228.52 204.52 229.25 205.42 229.25 C 206.32 229.24 207.05 228.50 207.04 227.60 L 207.04 226.59 C 207.03 225.69 206.30 224.96 205.40 224.97 C 204.49 224.97 203.77 225.71 203.77 226.61 Z M 203.78 227.62 L 203.79 228.63 C 203.79 229.53 204.52 230.25 205.42 230.25 C 206.32 230.24 207.05 229.51 207.05 228.61 L 207.04 227.61 C 207.04 226.71 206.30 225.98 205.40 225.99 C 204.50 225.99 203.78 226.72 203.78 227.62 Z M 203.79 228.63 L 203.80 229.62 C 203.80 230.52 204.53 231.24 205.43 231.24 C 206.33 231.23 207.05 230.50 207.05 229.60 L 207.04 228.61 C 207.04 227.71 206.31 226.99 205.41 226.99 C 204.51 227.00 203.79 227.73 203.79 228.63 Z M 203.80 229.63 L 203.81 230.63 C 203.82 231.53 204.55 232.25 205.45 232.24 C 206.34 232.23 207.06 231.50 207.05 230.60 L 207.04 229.60 C 207.04 228.70 206.30 227.98 205.41 227.99 C 204.51 228.00 203.79 228.73 203.80 229.63 Z M 203.81 230.64 L 203.83 231.68 C 203.84 232.58 204.57 233.29 205.47 233.28 C 206.36 233.26 207.07 232.53 207.06 231.64 L 207.05 230.60 C 207.04 229.70 206.30 228.99 205.41 229.00 C 204.52 229.01 203.80 229.75 203.81 230.64 Z M 203.84 231.69 L 203.85 232.69 C 203.87 233.58 204.60 234.29 205.49 234.27 C 206.38 234.26 207.09 233.52 207.07 232.63 L 207.06 231.63 C 207.04 230.74 206.31 230.03 205.42 230.05 C 204.53 230.07 203.82 230.80 203.84 231.69 Z M 203.86 232.70 L 203.88 233.65 C 203.90 234.54 204.63 235.24 205.52 235.22 C 206.40 235.20 207.11 234.47 207.09 233.58 L 207.07 232.63 C 207.05 231.74 206.32 231.04 205.43 231.06 C 204.54 231.08 203.84 231.81 203.86 232.70 Z M 203.89 233.66 L 203.91 234.65 C 203.93 235.53 204.67 236.23 205.55 236.21 C 206.43 236.19 207.13 235.45 207.10 234.57 L 207.08 233.58 C 207.06 232.70 206.33 232.00 205.44 232.02 C 204.56 232.04 203.86 232.77 203.89 233.66 Z M 203.92 234.69 L 203.97 235.68 C 204.01 236.55 204.76 237.23 205.63 237.18 C 206.51 237.14 207.19 236.40 207.14 235.52 L 207.09 234.53 C 207.05 233.66 206.31 232.98 205.43 233.02 C 204.55 233.07 203.88 233.81 203.92 234.69 Z M 203.98 235.76 L 204.09 236.74 C 204.18 237.61 204.96 238.24 205.82 238.15 C 206.69 238.06 207.32 237.28 207.23 236.41 L 207.13 235.43 C 207.04 234.56 206.26 233.94 205.39 234.03 C 204.52 234.12 203.89 234.89 203.98 235.76 Z M 204.12 236.86 L 204.30 237.82 C 204.45 238.67 205.27 239.23 206.12 239.08 C 206.96 238.92 207.53 238.11 207.37 237.26 L 207.20 236.30 C 207.04 235.45 206.23 234.89 205.38 235.04 C 204.53 235.20 203.97 236.01 204.12 236.86 Z M 204.35 237.91 L 204.58 238.86 C 204.79 239.68 205.62 240.18 206.44 239.98 C 207.26 239.77 207.76 238.94 207.56 238.12 L 207.32 237.17 C 207.12 236.35 206.29 235.85 205.46 236.05 C 204.64 236.26 204.14 237.09 204.35 237.91 Z M 204.63 238.91 L 204.92 239.88 C 205.14 240.68 205.98 241.14 206.77 240.91 C 207.56 240.68 208.02 239.85 207.79 239.05 L 207.51 238.07 C 207.28 237.28 206.45 236.82 205.66 237.05 C 204.86 237.28 204.40 238.11 204.63 238.91 Z M 204.96 239.90 L 205.25 240.84 C 205.48 241.61 206.30 242.04 207.07 241.81 C 207.85 241.57 208.28 240.75 208.04 239.98 L 207.75 239.04 C 207.51 238.27 206.69 237.83 205.92 238.07 C 205.15 238.31 204.72 239.13 204.96 239.90 Z"
      fill="black"
      fill-rule="nonzero" /><path d="M 194.29 92.83 L 194.16 93.82 C 194.04 94.69 194.64 95.49 195.52 95.61 C 196.39 95.73 197.19 95.12 197.31 94.25 L 197.44 93.26 C 197.56 92.39 196.96 91.59 196.09 91.47 C 195.21 91.35 194.41 91.96 194.29 92.83 Z M 194.09 93.90 L 194.01 94.88 C 193.93 95.78 194.61 96.58 195.51 96.66 C 196.42 96.73 197.22 96.06 197.29 95.15 L 197.37 94.17 C 197.45 93.26 196.78 92.47 195.87 92.39 C 194.96 92.32 194.16 92.99 194.09 93.90 Z M 193.99 94.99 L 193.97 95.98 C 193.96 96.90 194.70 97.66 195.62 97.67 C 196.54 97.68 197.29 96.95 197.30 96.03 L 197.32 95.03 C 197.33 94.11 196.59 93.36 195.67 93.35 C 194.75 93.34 194.00 94.07 193.99 94.99 Z M 193.99 96.04 L 194.01 97.02 C 194.03 97.94 194.78 98.66 195.70 98.64 C 196.61 98.62 197.33 97.86 197.31 96.95 L 197.29 95.97 C 197.27 95.05 196.51 94.33 195.60 94.35 C 194.69 94.37 193.96 95.13 193.99 96.04 Z M 194.03 97.08 L 194.08 98.09 C 194.13 98.99 194.90 99.68 195.80 99.63 C 196.71 99.59 197.40 98.81 197.35 97.91 L 197.29 96.90 C 197.25 96.00 196.47 95.30 195.57 95.35 C 194.67 95.40 193.98 96.17 194.03 97.08 Z M 194.10 98.16 L 194.20 99.13 C 194.29 100.02 195.09 100.66 195.98 100.57 C 196.86 100.48 197.51 99.69 197.42 98.80 L 197.33 97.84 C 197.24 96.95 196.44 96.30 195.55 96.39 C 194.66 96.48 194.01 97.27 194.10 98.16 Z M 194.23 99.20 L 194.37 100.14 C 194.50 101.02 195.32 101.62 196.19 101.49 C 197.06 101.36 197.67 100.54 197.54 99.67 L 197.39 98.73 C 197.26 97.85 196.45 97.25 195.58 97.38 C 194.70 97.51 194.10 98.33 194.23 99.20 Z M 194.40 100.20 L 194.60 101.27 C 194.76 102.13 195.59 102.70 196.44 102.54 C 197.30 102.38 197.87 101.55 197.71 100.69 L 197.51 99.62 C 197.35 98.76 196.52 98.19 195.66 98.35 C 194.81 98.51 194.24 99.34 194.40 100.20 Z M 194.63 101.30 L 194.83 102.25 C 195.01 103.09 195.83 103.63 196.67 103.45 C 197.52 103.27 198.06 102.44 197.88 101.60 L 197.68 100.66 C 197.50 99.82 196.68 99.28 195.83 99.46 C 194.99 99.63 194.45 100.46 194.63 101.30 Z M 194.86 102.27 L 195.09 103.26 C 195.28 104.09 196.11 104.60 196.93 104.41 C 197.76 104.21 198.27 103.39 198.08 102.56 L 197.85 101.57 C 197.66 100.75 196.83 100.23 196.00 100.43 C 195.18 100.62 194.66 101.45 194.86 102.27 Z M 195.12 103.30 L 195.39 104.30 C 195.60 105.10 196.43 105.59 197.24 105.37 C 198.05 105.15 198.53 104.32 198.31 103.52 L 198.05 102.52 C 197.83 101.71 197.00 101.23 196.19 101.45 C 195.39 101.66 194.91 102.49 195.12 103.30 Z M 195.42 104.35 L 195.73 105.34 C 195.98 106.12 196.82 106.56 197.60 106.32 C 198.39 106.07 198.83 105.23 198.58 104.45 L 198.27 103.46 C 198.03 102.67 197.19 102.24 196.40 102.48 C 195.62 102.73 195.18 103.57 195.42 104.35 Z M 195.78 105.40 L 196.13 106.36 C 196.41 107.12 197.25 107.51 198.02 107.23 C 198.78 106.95 199.17 106.10 198.89 105.34 L 198.54 104.39 C 198.26 103.62 197.41 103.23 196.65 103.51 C 195.89 103.79 195.50 104.64 195.78 105.40 Z M 196.16 106.40 L 196.53 107.31 C 196.84 108.05 197.68 108.40 198.43 108.10 C 199.17 107.80 199.53 106.95 199.22 106.21 L 198.85 105.30 C 198.55 104.56 197.70 104.20 196.96 104.50 C 196.22 104.81 195.86 105.65 196.16 106.40 Z M 196.56 107.32 L 196.86 108.02 C 197.17 108.75 198.01 109.09 198.74 108.78 C 199.47 108.46 199.81 107.62 199.50 106.89 L 199.20 106.19 C 198.89 105.47 198.04 105.13 197.32 105.44 C 196.59 105.75 196.25 106.59 196.56 107.32 Z"
      fill="black"
      fill-rule="nonzero" /></svg>