<svg xmlns="http://www.w3.org/2000/svg" width="300" height="300" viewBox="0 0 300 300">
<path d="M 58.77 115.53 L 59.20 114.67 C 59.58 113.94 59.29 113.04 58.55 112.66 C 57.82 112.29 56.92 112.58 56.54 113.31 L 56.10 114.17 C 55.73 114.91 56.02 115.81 56.76 116.19 C 57.49 116.56 58.39 116.27 58.77 115.53 Z M 59.12 114.87 L 59.69 114.05 C 60.17 113.36 60.00 112.41 59.31 111.93 C 58.62 111.45 57.67 111.62 57.19 112.31 L 56.62 113.12 C 56.14 113.81 56.31 114.76 57.00 115.24 C 57.69 115.73 58.64 115.56 59.12 114.87 Z M 59.57 114.23 L 60.21 113.54 C 60.79 112.91 60.76 111.94 60.14 111.36 C 59.51 110.78 58.54 110.81 57.96 111.44 L 57.31 112.13 C 56.73 112.75 56.77 113.73 57.39 114.31 C 58.01 114.89 58.99 114.85 59.57 114.23 Z M 60.16 113.60 L 60.94 112.85 C 61.56 112.26 61.58 111.28 60.99 110.66 C 60.40 110.04 59.42 110.02 58.80 110.61 L 58.01 111.37 C 57.40 111.96 57.38 112.94 57.97 113.56 C 58.56 114.18 59.54 114.20 60.16 113.60 Z M 60.93 112.87 L 61.64 112.20 C 62.27 111.62 62.30 110.63 61.71 110.01 C 61.13 109.38 60.14 109.35 59.52 109.94 L 58.81 110.60 C 58.18 111.18 58.15 112.17 58.74 112.79 C 59.32 113.42 60.31 113.45 60.93 112.87 Z M 61.64 112.21 L 62.39 111.52 C 63.01 110.93 63.05 109.94 62.46 109.31 C 61.88 108.68 60.89 108.65 60.26 109.24 L 59.52 109.93 C 58.89 110.52 58.85 111.50 59.44 112.13 C 60.02 112.76 61.01 112.80 61.64 112.21 Z M 62.39 111.52 L 63.15 110.82 C 63.78 110.23 63.81 109.24 63.23 108.61 C 62.64 107.98 61.65 107.94 61.02 108.53 L 60.26 109.23 C 59.63 109.82 59.59 110.81 60.18 111.44 C 60.76 112.07 61.75 112.11 62.39 111.52 Z M 63.15 110.82 L 63.93 110.09 C 64.57 109.51 64.60 108.52 64.02 107.88 C 63.43 107.25 62.44 107.21 61.81 107.80 L 61.02 108.52 C 60.39 109.11 60.35 110.10 60.94 110.73 C 61.52 111.37 62.51 111.41 63.15 110.82 Z M 63.93 110.10 L 64.64 109.44 C 65.28 108.85 65.32 107.86 64.73 107.23 C 64.14 106.59 63.15 106.55 62.51 107.14 L 61.80 107.79 C 61.17 108.38 61.13 109.37 61.72 110.01 C 62.31 110.64 63.30 110.68 63.93 110.10 Z M 64.65 109.44 L 65.39 108.75 C 66.02 108.16 66.06 107.17 65.47 106.53 C 64.88 105.90 63.89 105.86 63.25 106.45 L 62.51 107.14 C 61.87 107.73 61.84 108.72 62.43 109.36 C 63.02 109.99 64.01 110.03 64.65 109.44 Z M 65.40 108.74 L 66.09 108.09 C 66.72 107.49 66.75 106.49 66.15 105.87 C 65.55 105.24 64.56 105.21 63.93 105.81 L 63.24 106.46 C 62.61 107.06 62.58 108.05 63.18 108.68 C 63.78 109.31 64.77 109.34 65.40 108.74 Z M 66.11 108.07 L 66.80 107.39 C 67.42 106.79 67.43 105.79 66.82 105.17 C 66.21 104.55 65.21 104.54 64.59 105.15 L 63.91 105.82 C 63.29 106.43 63.28 107.43 63.89 108.05 C 64.50 108.67 65.49 108.68 66.11 108.07 Z M 66.80 107.40 L 67.53 106.68 C 68.15 106.07 68.15 105.07 67.54 104.45 C 66.93 103.83 65.94 103.82 65.32 104.43 L 64.59 105.15 C 63.97 105.76 63.96 106.76 64.57 107.38 C 65.18 108.00 66.18 108.01 66.80 107.40 Z M 67.51 106.70 L 68.24 106.00 C 68.87 105.40 68.89 104.40 68.28 103.77 C 67.68 103.14 66.68 103.12 66.05 103.72 L 65.33 104.42 C 64.70 105.02 64.68 106.02 65.28 106.65 C 65.89 107.28 66.88 107.30 67.51 106.70 Z M 68.24 106.00 L 68.97 105.30 C 69.60 104.70 69.61 103.70 69.01 103.07 C 68.40 102.44 67.40 102.42 66.77 103.03 L 66.05 103.72 C 65.42 104.33 65.40 105.33 66.01 105.96 C 66.61 106.59 67.61 106.61 68.24 106.00 Z M 68.98 105.29 L 69.69 104.59 C 70.31 103.98 70.32 102.98 69.71 102.36 C 69.09 101.73 68.09 101.73 67.47 102.34 L 66.76 103.04 C 66.14 103.65 66.13 104.65 66.74 105.27 C 67.36 105.90 68.36 105.90 68.98 105.29 Z M 69.70 104.59 L 70.40 103.89 C 71.02 103.27 71.02 102.27 70.40 101.65 C 69.78 101.03 68.78 101.03 68.16 101.65 L 67.46 102.34 C 66.84 102.96 66.84 103.96 67.46 104.58 C 68.08 105.20 69.08 105.20 69.70 104.59 Z M 70.40 103.89 L 71.11 103.18 C 71.73 102.56 71.73 101.56 71.11 100.94 C 70.49 100.32 69.49 100.32 68.87 100.94 L 68.16 101.65 C 67.54 102.27 67.54 103.27 68.16 103.89 C 68.78 104.51 69.78 104.51 70.40 103.89 Z M 71.11 103.18 L 71.82 102.47 C 72.44 101.85 72.44 100.85 71.82 100.23 C 71.20 99.61 70.20 99.61 69.58 100.23 L 68.87 100.94 C 68.25 101.55 68.25 102.56 68.87 103.18 C 69.49 103.80 70.49 103.80 71.11 103.18 Z M 71.81 102.48 L 72.53 101.78 C 73.15 101.16 73.16 100.16 72.54 99.54 C 71.93 98.91 70.93 98.90 70.30 99.52 L 69.59 100.22 C 68.97 100.83 68.96 101.83 69.57 102.46 C 70.18 103.08 71.19 103.09 71.81 102.48 Z M 72.51 101.79 L 73.23 101.10 C 73.87 100.49 73.89 99.49 73.28 98.86 C 72.68 98.22 71.67 98.20 71.04 98.81 L 70.32 99.50 C 69.68 100.11 69.66 101.11 70.27 101.74 C 70.87 102.38 71.88 102.40 72.51 101.79 Z M 73.22 101.11 L 73.95 100.43 C 74.58 99.83 74.62 98.83 74.01 98.19 C 73.41 97.55 72.41 97.52 71.77 98.12 L 71.05 98.80 C 70.41 99.40 70.38 100.40 70.98 101.04 C 71.58 101.68 72.59 101.71 73.22 101.11 Z M 73.94 100.44 L 74.67 99.76 C 75.32 99.17 75.35 98.16 74.76 97.52 C 74.16 96.87 73.16 96.84 72.51 97.43 L 71.78 98.11 C 71.13 98.71 71.10 99.71 71.69 100.36 C 72.29 101.00 73.29 101.04 73.94 100.44 Z M 74.66 99.77 L 75.36 99.14 C 76.01 98.55 76.05 97.55 75.46 96.90 C 74.87 96.25 73.87 96.20 73.22 96.79 L 72.52 97.42 C 71.87 98.01 71.83 99.02 72.42 99.67 C 73.01 100.31 74.01 100.36 74.66 99.77 Z M 75.34 99.16 L 76.11 98.48 C 76.77 97.90 76.83 96.90 76.25 96.24 C 75.67 95.58 74.67 95.51 74.01 96.09 L 73.24 96.77 C 72.58 97.35 72.51 98.35 73.09 99.01 C 73.67 99.67 74.68 99.74 75.34 99.16 Z M 76.09 98.50 L 76.84 97.86 C 77.51 97.30 77.59 96.29 77.02 95.62 C 76.46 94.95 75.45 94.87 74.78 95.44 L 74.03 96.07 C 73.36 96.64 73.28 97.64 73.85 98.31 C 74.41 98.98 75.42 99.07 76.09 98.50 Z M 76.82 97.88 L 77.60 97.25 C 78.28 96.69 78.38 95.69 77.82 95.01 C 77.27 94.32 76.26 94.22 75.58 94.78 L 74.80 95.42 C 74.12 95.97 74.02 96.98 74.58 97.66 C 75.13 98.34 76.14 98.44 76.82 97.88 Z M 77.57 97.27 L 78.40 96.62 C 79.09 96.08 79.21 95.08 78.67 94.39 C 78.13 93.69 77.13 93.57 76.44 94.11 L 75.61 94.76 C 74.92 95.30 74.79 96.30 75.33 96.99 C 75.88 97.69 76.88 97.81 77.57 97.27 Z M 78.36 96.65 L 79.16 96.06 C 79.87 95.54 80.02 94.54 79.50 93.83 C 78.98 93.12 77.98 92.97 77.27 93.49 L 76.47 94.08 C 75.76 94.61 75.61 95.60 76.13 96.31 C 76.65 97.02 77.65 97.18 78.36 96.65 Z M 79.13 96.09 L 79.95 95.52 C 80.67 95.02 80.85 94.03 80.35 93.30 C 79.85 92.58 78.85 92.40 78.13 92.90 L 77.31 93.47 C 76.58 93.97 76.40 94.96 76.90 95.69 C 77.41 96.41 78.40 96.59 79.13 96.09 Z M 79.91 95.55 L 80.76 95.00 C 81.50 94.52 81.70 93.52 81.22 92.78 C 80.74 92.04 79.75 91.84 79.01 92.32 L 78.16 92.87 C 77.42 93.36 77.21 94.35 77.70 95.09 C 78.18 95.83 79.17 96.03 79.91 95.55 Z M 80.72 95.02 L 81.58 94.49 C 82.34 94.03 82.57 93.04 82.11 92.29 C 81.64 91.53 80.66 91.30 79.90 91.76 L 79.04 92.30 C 78.29 92.76 78.05 93.75 78.52 94.50 C 78.98 95.25 79.97 95.49 80.72 95.02 Z M 81.55 94.51 L 82.42 94.01 C 83.18 93.56 83.44 92.58 83.00 91.82 C 82.55 91.05 81.57 90.79 80.81 91.24 L 79.94 91.74 C 79.17 92.19 78.91 93.17 79.36 93.93 C 79.80 94.70 80.78 94.96 81.55 94.51 Z M 82.38 94.03 L 83.25 93.56 C 84.03 93.14 84.32 92.16 83.90 91.38 C 83.47 90.60 82.50 90.32 81.72 90.74 L 80.85 91.21 C 80.07 91.64 79.78 92.61 80.20 93.39 C 80.62 94.17 81.60 94.46 82.38 94.03 Z M 83.20 93.59 L 84.11 93.13 C 84.90 92.74 85.23 91.77 84.83 90.98 C 84.44 90.19 83.47 89.86 82.68 90.26 L 81.77 90.71 C 80.98 91.11 80.65 92.07 81.05 92.87 C 81.44 93.66 82.41 93.98 83.20 93.59 Z M 84.06 93.16 L 84.95 92.76 C 85.76 92.39 86.12 91.44 85.75 90.63 C 85.39 89.82 84.43 89.46 83.62 89.83 L 82.73 90.23 C 81.92 90.60 81.56 91.55 81.93 92.36 C 82.30 93.17 83.25 93.53 84.06 93.16 Z M 84.91 92.78 L 85.76 92.42 C 86.58 92.08 86.97 91.14 86.63 90.32 C 86.29 89.50 85.35 89.11 84.53 89.45 L 83.67 89.80 C 82.85 90.14 82.46 91.09 82.80 91.91 C 83.14 92.73 84.08 93.12 84.91 92.78 Z M 85.72 92.44 L 86.60 92.11 C 87.43 91.79 87.85 90.85 87.53 90.02 C 87.21 89.19 86.28 88.77 85.45 89.09 L 84.57 89.43 C 83.73 89.75 83.32 90.68 83.64 91.51 C 83.95 92.35 84.89 92.76 85.72 92.44 Z M 86.57 92.12 L 87.57 91.76 C 88.41 91.46 88.85 90.53 88.55 89.69 C 88.25 88.85 87.32 88.42 86.48 88.72 L 85.48 89.08 C 84.64 89.38 84.20 90.30 84.50 91.14 C 84.80 91.98 85.73 92.42 86.57 92.12 Z M 87.55 91.77 L 88.52 91.44 C 89.37 91.15 89.82 90.23 89.53 89.38 C 89.24 88.54 88.32 88.09 87.47 88.38 L 86.50 88.71 C 85.66 89.00 85.21 89.92 85.50 90.76 C 85.79 91.61 86.71 92.06 87.55 91.77 Z M 88.51 91.44 L 89.47 91.12 C 90.32 90.83 90.78 89.91 90.49 89.07 C 90.21 88.22 89.29 87.76 88.44 88.05 L 87.48 88.37 C 86.63 88.66 86.18 89.58 86.46 90.42 C 86.75 91.27 87.66 91.73 88.51 91.44 Z M 89.47 91.12 L 90.45 90.79 C 91.30 90.51 91.76 89.59 91.48 88.74 C 91.19 87.89 90.27 87.43 89.43 87.72 L 88.44 88.05 C 87.59 88.33 87.14 89.25 87.42 90.10 C 87.70 90.95 88.62 91.40 89.47 91.12 Z M 90.45 90.79 L 91.40 90.48 C 92.25 90.19 92.71 89.27 92.42 88.42 C 92.14 87.57 91.22 87.12 90.37 87.40 L 89.42 87.72 C 88.57 88.00 88.12 88.92 88.40 89.77 C 88.68 90.62 89.60 91.08 90.45 90.79 Z M 91.40 90.48 L 92.44 90.13 C 93.29 89.84 93.74 88.92 93.45 88.07 C 93.16 87.22 92.24 86.76 91.39 87.05 L 90.36 87.40 C 89.51 87.69 89.05 88.61 89.34 89.46 C 89.63 90.31 90.55 90.77 91.40 90.48 Z M 92.45 90.12 L 93.40 89.79 C 94.24 89.50 94.69 88.57 94.39 87.72 C 94.10 86.87 93.17 86.43 92.32 86.72 L 91.38 87.05 C 90.53 87.35 90.08 88.28 90.38 89.13 C 90.68 89.97 91.60 90.42 92.45 90.12 Z M 93.42 89.79 L 94.28 89.47 C 95.13 89.16 95.56 88.23 95.25 87.38 C 94.94 86.54 94.01 86.10 93.16 86.41 L 92.30 86.73 C 91.45 87.04 91.02 87.97 91.33 88.82 C 91.64 89.66 92.57 90.10 93.42 89.79 Z M 94.31 89.46 L 95.28 89.09 C 96.12 88.76 96.54 87.82 96.21 86.98 C 95.89 86.14 94.94 85.72 94.10 86.05 L 93.13 86.42 C 92.29 86.75 91.88 87.69 92.20 88.53 C 92.53 89.37 93.47 89.79 94.31 89.46 Z M 95.31 89.08 L 96.24 88.70 C 97.08 88.35 97.48 87.40 97.14 86.56 C 96.79 85.73 95.84 85.33 95.01 85.67 L 94.07 86.06 C 93.24 86.40 92.84 87.35 93.18 88.19 C 93.52 89.02 94.47 89.42 95.31 89.08 Z M 96.28 88.68 L 97.15 88.30 C 97.98 87.94 98.36 86.98 98.00 86.15 C 97.63 85.32 96.67 84.94 95.84 85.30 L 94.97 85.68 C 94.14 86.05 93.76 87.01 94.13 87.84 C 94.49 88.67 95.45 89.04 96.28 88.68 Z M 97.20 88.28 L 98.08 87.86 C 98.90 87.47 99.24 86.49 98.85 85.68 C 98.46 84.86 97.48 84.52 96.67 84.91 L 95.79 85.33 C 94.97 85.72 94.63 86.70 95.02 87.51 C 95.41 88.33 96.39 88.67 97.20 88.28 Z M 98.13 87.84 L 98.98 87.39 C 99.79 86.97 100.10 85.98 99.68 85.18 C 99.26 84.38 98.26 84.07 97.46 84.49 L 96.61 84.93 C 95.81 85.35 95.50 86.34 95.92 87.15 C 96.34 87.95 97.33 88.26 98.13 87.84 Z M 99.01 87.38 L 99.87 86.91 C 100.67 86.47 100.96 85.47 100.52 84.68 C 100.08 83.88 99.08 83.59 98.29 84.03 L 97.43 84.50 C 96.64 84.94 96.35 85.94 96.78 86.73 C 97.22 87.53 98.22 87.82 99.01 87.38 Z M 99.90 86.89 L 100.83 86.36 C 101.62 85.90 101.88 84.89 101.43 84.11 C 100.97 83.32 99.97 83.05 99.18 83.51 L 98.25 84.05 C 97.47 84.50 97.20 85.51 97.66 86.29 C 98.11 87.08 99.12 87.35 99.90 86.89 Z M 100.86 86.34 L 101.70 85.83 C 102.48 85.35 102.72 84.34 102.25 83.56 C 101.78 82.79 100.76 82.54 99.98 83.01 L 99.15 83.53 C 98.37 84.00 98.12 85.01 98.60 85.79 C 99.07 86.57 100.09 86.81 100.86 86.34 Z M 101.72 85.82 L 102.57 85.29 C 103.34 84.81 103.58 83.79 103.09 83.01 C 102.61 82.24 101.59 82.01 100.82 82.49 L 99.97 83.02 C 99.19 83.50 98.96 84.52 99.44 85.30 C 99.93 86.07 100.94 86.30 101.72 85.82 Z M 102.57 85.30 L 103.43 84.76 C 104.21 84.28 104.45 83.26 103.96 82.48 C 103.48 81.71 102.46 81.47 101.69 81.95 L 100.82 82.48 C 100.05 82.96 99.81 83.98 100.29 84.76 C 100.77 85.54 101.79 85.78 102.57 85.30 Z M 103.41 84.77 L 104.27 84.25 C 105.06 83.78 105.31 82.76 104.84 81.98 C 104.37 81.20 103.35 80.94 102.57 81.42 L 101.70 81.94 C 100.92 82.41 100.67 83.43 101.14 84.21 C 101.61 84.99 102.63 85.25 103.41 84.77 Z M 104.26 84.27 L 105.12 83.76 C 105.91 83.30 106.18 82.28 105.72 81.49 C 105.25 80.70 104.24 80.44 103.45 80.90 L 102.58 81.40 C 101.79 81.86 101.53 82.88 101.99 83.67 C 102.45 84.46 103.47 84.73 104.26 84.27 Z M 105.10 83.78 L 105.94 83.30 C 106.74 82.85 107.02 81.84 106.57 81.04 C 106.12 80.24 105.11 79.96 104.31 80.41 L 103.47 80.88 C 102.67 81.33 102.39 82.35 102.84 83.15 C 103.29 83.94 104.30 84.23 105.10 83.78 Z M 105.92 83.32 L 106.75 82.86 C 107.56 82.43 107.86 81.42 107.42 80.61 C 106.98 79.81 105.98 79.51 105.17 79.94 L 104.33 80.39 C 103.53 80.83 103.23 81.84 103.66 82.65 C 104.10 83.45 105.11 83.75 105.92 83.32 Z M 106.72 82.88 L 107.63 82.41 C 108.45 81.99 108.77 80.99 108.35 80.17 C 107.92 79.35 106.92 79.03 106.11 79.46 L 105.20 79.93 C 104.38 80.35 104.06 81.35 104.48 82.17 C 104.91 82.98 105.91 83.30 106.72 82.88 Z M 107.61 82.42 L 108.55 81.95 C 109.38 81.55 109.71 80.55 109.30 79.72 C 108.89 78.90 107.89 78.57 107.07 78.97 L 106.13 79.44 C 105.31 79.85 104.97 80.85 105.38 81.67 C 105.79 82.50 106.79 82.83 107.61 82.42 Z M 108.54 81.96 L 109.48 81.51 C 110.31 81.11 110.65 80.11 110.25 79.28 C 109.85 78.45 108.85 78.11 108.03 78.51 L 107.09 78.97 C 106.26 79.37 105.91 80.36 106.31 81.19 C 106.71 82.02 107.71 82.36 108.54 81.96 Z M 109.47 81.52 L 110.40 81.07 C 111.23 80.68 111.58 79.68 111.19 78.85 C 110.79 78.02 109.80 77.67 108.96 78.06 L 108.04 78.50 C 107.20 78.90 106.85 79.89 107.25 80.72 C 107.64 81.56 108.64 81.91 109.47 81.52 Z M 110.39 81.08 L 111.26 80.68 C 112.09 80.29 112.45 79.29 112.06 78.46 C 111.67 77.62 110.68 77.26 109.84 77.65 L 108.97 78.05 C 108.14 78.44 107.78 79.44 108.17 80.27 C 108.56 81.11 109.55 81.47 110.39 81.08 Z M 111.24 80.69 L 112.26 80.22 C 113.11 79.85 113.48 78.85 113.10 78.01 C 112.72 77.17 111.73 76.80 110.89 77.17 L 109.86 77.64 C 109.02 78.02 108.65 79.01 109.02 79.85 C 109.40 80.69 110.39 81.07 111.24 80.69 Z M 112.22 80.25 L 113.01 79.92 C 113.86 79.56 114.26 78.58 113.91 77.72 C 113.55 76.87 112.57 76.47 111.71 76.83 L 110.93 77.15 C 110.08 77.51 109.67 78.49 110.03 79.35 C 110.39 80.20 111.37 80.60 112.22 80.25 Z M 112.95 79.94 L 113.89 79.59 C 114.76 79.26 115.19 78.29 114.87 77.42 C 114.54 76.56 113.57 76.12 112.70 76.45 L 111.77 76.80 C 110.90 77.13 110.46 78.10 110.79 78.97 C 111.12 79.83 112.09 80.27 112.95 79.94 Z M 113.83 79.61 L 114.77 79.29 C 115.65 79.00 116.12 78.05 115.82 77.17 C 115.53 76.29 114.57 75.82 113.69 76.11 L 112.76 76.43 C 111.88 76.72 111.41 77.68 111.71 78.55 C 112.00 79.43 112.95 79.90 113.83 79.61 Z M 114.74 79.30 L 115.69 79.00 C 116.58 78.72 117.07 77.78 116.79 76.89 C 116.51 76.01 115.56 75.52 114.68 75.80 L 113.72 76.10 C 112.84 76.38 112.35 77.32 112.63 78.21 C 112.91 79.09 113.85 79.58 114.74 79.30 Z M 115.71 79.00 L 116.66 78.69 C 117.54 78.40 118.03 77.45 117.74 76.57 C 117.45 75.68 116.50 75.20 115.62 75.49 L 114.66 75.80 C 113.78 76.09 113.30 77.04 113.59 77.92 C 113.88 78.81 114.82 79.29 115.71 79.00 Z M 116.67 78.69 L 117.62 78.37 C 118.50 78.08 118.98 77.13 118.69 76.25 C 118.40 75.37 117.45 74.89 116.57 75.18 L 115.61 75.49 C 114.73 75.78 114.25 76.73 114.54 77.61 C 114.83 78.50 115.78 78.98 116.67 78.69 Z M 117.59 78.38 L 118.55 78.09 C 119.44 77.81 119.93 76.87 119.66 75.98 C 119.38 75.09 118.44 74.60 117.55 74.87 L 116.59 75.17 C 115.71 75.44 115.21 76.39 115.49 77.28 C 115.76 78.16 116.70 78.66 117.59 78.38 Z M 118.53 78.09 L 119.42 77.83 C 120.31 77.56 120.82 76.63 120.56 75.73 C 120.29 74.84 119.36 74.33 118.46 74.60 L 117.57 74.86 C 116.68 75.13 116.17 76.07 116.43 76.96 C 116.70 77.85 117.64 78.36 118.53 78.09 Z M 119.41 77.84 L 120.35 77.57 C 121.24 77.31 121.76 76.38 121.51 75.48 C 121.25 74.58 120.32 74.06 119.42 74.32 L 118.48 74.59 C 117.58 74.85 117.06 75.78 117.32 76.68 C 117.58 77.57 118.51 78.09 119.41 77.84 Z M 120.33 77.58 L 121.28 77.32 C 122.19 77.07 122.72 76.14 122.47 75.23 C 122.22 74.33 121.28 73.80 120.38 74.05 L 119.43 74.31 C 118.53 74.56 118.00 75.49 118.25 76.40 C 118.50 77.30 119.43 77.83 120.33 77.58 Z M 121.27 77.33 L 122.18 77.08 C 123.09 76.84 123.63 75.91 123.39 75.00 C 123.15 74.10 122.22 73.56 121.31 73.80 L 120.40 74.04 C 119.49 74.28 118.95 75.21 119.19 76.12 C 119.43 77.03 120.36 77.57 121.27 77.33 Z M 122.16 77.09 L 123.20 76.83 C 124.12 76.60 124.67 75.67 124.44 74.76 C 124.21 73.85 123.28 73.29 122.37 73.52 L 121.33 73.79 C 120.41 74.02 119.86 74.95 120.09 75.86 C 120.33 76.77 121.25 77.32 122.16 77.09 Z M 123.18 76.84 L 124.23 76.59 C 125.15 76.37 125.72 75.45 125.50 74.53 C 125.28 73.61 124.36 73.05 123.44 73.26 L 122.39 73.51 C 121.47 73.73 120.90 74.65 121.12 75.57 C 121.34 76.49 122.26 77.06 123.18 76.84 Z M 124.21 76.60 L 125.21 76.37 C 126.13 76.17 126.71 75.25 126.50 74.33 C 126.30 73.41 125.38 72.83 124.46 73.03 L 123.47 73.26 C 122.54 73.46 121.96 74.38 122.17 75.30 C 122.37 76.22 123.29 76.80 124.21 76.60 Z M 125.18 76.38 L 126.18 76.17 C 127.11 75.98 127.70 75.07 127.51 74.14 C 127.32 73.22 126.41 72.62 125.48 72.82 L 124.48 73.03 C 123.56 73.22 122.96 74.13 123.16 75.06 C 123.35 75.98 124.26 76.58 125.18 76.38 Z M 126.16 76.18 L 127.12 75.99 C 128.05 75.81 128.66 74.91 128.48 73.98 C 128.30 73.05 127.40 72.44 126.47 72.62 L 125.50 72.81 C 124.57 72.99 123.97 73.89 124.15 74.82 C 124.33 75.75 125.23 76.36 126.16 76.18 Z M 127.09 76.00 L 128.15 75.81 C 129.08 75.65 129.71 74.76 129.54 73.83 C 129.38 72.89 128.49 72.27 127.55 72.43 L 126.50 72.62 C 125.56 72.78 124.94 73.67 125.10 74.60 C 125.27 75.54 126.16 76.16 127.09 76.00 Z M 128.10 75.82 L 129.11 75.67 C 130.05 75.53 130.70 74.66 130.56 73.72 C 130.42 72.78 129.55 72.13 128.61 72.27 L 127.60 72.42 C 126.66 72.56 126.01 73.44 126.15 74.37 C 126.29 75.31 127.16 75.96 128.10 75.82 Z M 129.06 75.68 L 129.97 75.58 C 130.91 75.47 131.59 74.61 131.48 73.67 C 131.37 72.72 130.51 72.04 129.57 72.16 L 128.66 72.26 C 127.71 72.37 127.04 73.23 127.15 74.17 C 127.26 75.12 128.11 75.79 129.06 75.68 Z M 129.91 75.58 L 130.86 75.51 C 131.81 75.43 132.52 74.60 132.44 73.65 C 132.36 72.70 131.53 71.99 130.58 72.07 L 129.63 72.15 C 128.68 72.22 127.97 73.06 128.05 74.01 C 128.13 74.95 128.96 75.66 129.91 75.58 Z M 130.80 75.51 L 131.78 75.47 C 132.73 75.43 133.47 74.62 133.42 73.67 C 133.38 72.72 132.57 71.98 131.62 72.02 L 130.64 72.06 C 129.69 72.11 128.95 72.91 129.00 73.87 C 129.04 74.82 129.84 75.56 130.80 75.51 Z M 131.73 75.47 L 132.75 75.45 C 133.71 75.44 134.47 74.65 134.45 73.69 C 134.43 72.74 133.64 71.98 132.69 72.00 L 131.67 72.02 C 130.71 72.03 129.95 72.82 129.97 73.78 C 129.99 74.73 130.78 75.49 131.73 75.47 Z M 132.73 75.46 L 133.73 75.45 C 134.69 75.44 135.46 74.66 135.45 73.70 C 135.44 72.75 134.66 71.98 133.70 71.99 L 132.71 71.99 C 131.75 72.00 130.98 72.78 130.99 73.74 C 131.00 74.70 131.78 75.46 132.73 75.46 Z M 133.72 75.45 L 134.75 75.45 C 135.71 75.45 136.48 74.67 136.48 73.71 C 136.48 72.75 135.70 71.98 134.74 71.98 L 133.71 71.98 C 132.76 71.98 131.98 72.76 131.98 73.72 C 131.99 74.68 132.76 75.45 133.72 75.45 Z M 134.74 75.45 L 135.76 75.45 C 136.72 75.45 137.50 74.67 137.50 73.71 C 137.50 72.75 136.72 71.98 135.76 71.98 L 134.74 71.98 C 133.78 71.98 133.00 72.76 133.01 73.72 C 133.01 74.68 133.78 75.45 134.74 75.45 Z M 135.76 75.45 L 136.79 75.45 C 137.75 75.45 138.53 74.68 138.53 73.71 C 138.53 72.75 137.75 71.98 136.79 71.98 L 135.76 71.98 C 134.80 71.98 134.02 72.75 134.02 73.71 C 134.02 74.68 134.80 75.45 135.76 75.45 Z M 136.79 75.46 L 137.75 75.46 C 138.71 75.46 139.49 74.68 139.49 73.71 C 139.49 72.75 138.71 71.97 137.75 71.97 L 136.79 71.97 C 135.83 71.97 135.05 72.75 135.05 73.71 C 135.05 74.68 135.83 75.46 136.79 75.46 Z M 137.75 75.46 L 138.73 75.46 C 139.70 75.46 140.48 74.68 140.48 73.71 C 140.48 72.75 139.70 71.97 138.73 71.97 L 137.75 71.97 C 136.79 71.97 136.01 72.75 136.01 73.71 C 136.01 74.68 136.79 75.46 137.75 75.46 Z M 138.73 75.46 L 139.73 75.46 C 140.70 75.46 141.48 74.68 141.48 73.71 C 141.48 72.75 140.70 71.97 139.73 71.97 L 138.73 71.97 C 137.77 71.97 136.99 72.75 136.99 73.71 C 136.99 74.68 137.77 75.46 138.73 75.46 Z M 139.73 75.46 L 140.73 75.46 C 141.70 75.46 142.48 74.68 142.48 73.71 C 142.48 72.75 141.70 71.97 140.73 71.97 L 139.73 71.97 C 138.77 71.97 137.99 72.75 137.99 73.71 C 137.99 74.68 138.77 75.46 139.73 75.46 Z M 140.73 75.46 L 141.72 75.46 C 142.69 75.47 143.47 74.69 143.47 73.72 C 143.48 72.76 142.70 71.97 141.73 71.97 L 140.74 71.97 C 139.77 71.97 138.99 72.75 138.99 73.71 C 138.99 74.67 139.77 75.46 140.73 75.46 Z M 141.70 75.46 L 142.71 75.48 C 143.67 75.49 144.47 74.72 144.48 73.76 C 144.49 72.79 143.72 72.00 142.76 71.98 L 141.75 71.97 C 140.79 71.96 139.99 72.73 139.98 73.69 C 139.97 74.66 140.74 75.45 141.70 75.46 Z M 142.68 75.48 L 143.68 75.51 C 144.65 75.54 145.46 74.79 145.49 73.82 C 145.52 72.85 144.76 72.05 143.80 72.01 L 142.79 71.98 C 141.82 71.95 141.01 72.71 140.98 73.67 C 140.95 74.64 141.71 75.45 142.68 75.48 Z M 143.66 75.52 L 144.66 75.57 C 145.63 75.61 146.45 74.87 146.50 73.90 C 146.55 72.93 145.80 72.11 144.83 72.06 L 143.83 72.01 C 142.86 71.96 142.04 72.71 141.99 73.68 C 141.94 74.65 142.69 75.47 143.66 75.52 Z M 144.64 75.57 L 145.63 75.63 C 146.60 75.68 147.43 74.94 147.49 73.97 C 147.54 73.00 146.80 72.17 145.83 72.11 L 144.85 72.06 C 143.88 72.00 143.04 72.74 142.99 73.71 C 142.93 74.68 143.67 75.51 144.64 75.57 Z M 145.61 75.63 L 146.56 75.69 C 147.53 75.76 148.37 75.02 148.43 74.05 C 148.50 73.08 147.77 72.24 146.80 72.18 L 145.85 72.11 C 144.88 72.04 144.04 72.78 143.97 73.75 C 143.90 74.72 144.64 75.56 145.61 75.63 Z M 146.49 75.69 L 147.49 75.79 C 148.46 75.89 149.33 75.19 149.43 74.22 C 149.53 73.25 148.82 72.38 147.86 72.28 L 146.86 72.18 C 145.89 72.08 145.02 72.78 144.92 73.75 C 144.82 74.72 145.53 75.59 146.49 75.69 Z M 147.41 75.78 L 148.44 75.94 C 149.40 76.09 150.30 75.43 150.45 74.46 C 150.60 73.50 149.93 72.60 148.97 72.45 L 147.94 72.29 C 146.98 72.15 146.08 72.81 145.93 73.77 C 145.78 74.73 146.44 75.63 147.41 75.78 Z M 148.37 75.93 L 149.37 76.12 C 150.33 76.31 151.26 75.69 151.45 74.73 C 151.63 73.77 151.01 72.85 150.05 72.66 L 149.04 72.46 C 148.09 72.28 147.16 72.90 146.97 73.86 C 146.78 74.81 147.41 75.74 148.37 75.93 Z M 149.33 76.12 L 150.32 76.34 C 151.27 76.55 152.22 75.95 152.43 75.00 C 152.65 74.05 152.05 73.10 151.09 72.89 L 150.10 72.67 C 149.15 72.45 148.20 73.05 147.99 74.01 C 147.78 74.96 148.37 75.90 149.33 76.12 Z M 150.28 76.33 L 151.27 76.58 C 152.21 76.82 153.18 76.24 153.41 75.30 C 153.65 74.35 153.08 73.39 152.13 73.15 L 151.14 72.90 C 150.19 72.66 149.23 73.24 148.99 74.18 C 148.75 75.13 149.33 76.09 150.28 76.33 Z M 151.21 76.57 L 152.20 76.85 C 153.14 77.12 154.12 76.58 154.39 75.64 C 154.66 74.70 154.12 73.72 153.18 73.45 L 152.19 73.16 C 151.25 72.90 150.27 73.44 150.00 74.38 C 149.73 75.32 150.27 76.30 151.21 76.57 Z M 152.16 76.84 L 153.02 77.11 C 153.95 77.40 154.95 76.88 155.24 75.95 C 155.53 75.02 155.01 74.02 154.08 73.73 L 153.22 73.46 C 152.29 73.17 151.30 73.69 151.00 74.62 C 150.71 75.55 151.23 76.54 152.16 76.84 Z M 153.01 77.11 L 153.83 77.37 C 154.76 77.67 155.75 77.16 156.05 76.23 C 156.35 75.29 155.84 74.30 154.91 74.00 L 154.09 73.73 C 153.16 73.43 152.17 73.95 151.87 74.88 C 151.57 75.81 152.08 76.81 153.01 77.11 Z M 153.81 77.36 L 154.79 77.69 C 155.72 78.00 156.72 77.50 157.03 76.57 C 157.34 75.64 156.84 74.64 155.91 74.33 L 154.93 74.00 C 154.00 73.69 153.00 74.19 152.69 75.12 C 152.38 76.05 152.88 77.05 153.81 77.36 Z M 154.77 77.69 L 155.75 78.02 C 156.67 78.34 157.68 77.85 158.00 76.93 C 158.32 76.00 157.83 74.99 156.91 74.67 L 155.93 74.34 C 155.01 74.02 154.00 74.51 153.68 75.43 C 153.36 76.36 153.85 77.37 154.77 77.69 Z M 155.74 78.02 L 156.65 78.34 C 157.57 78.66 158.58 78.17 158.91 77.25 C 159.23 76.32 158.74 75.31 157.82 74.99 L 156.91 74.67 C 155.99 74.35 154.97 74.84 154.65 75.76 C 154.33 76.69 154.82 77.70 155.74 78.02 Z M 156.66 78.34 L 157.64 78.68 C 158.57 79.00 159.57 78.50 159.89 77.58 C 160.21 76.65 159.71 75.64 158.79 75.32 L 157.81 74.99 C 156.88 74.67 155.87 75.16 155.55 76.09 C 155.24 77.02 155.73 78.03 156.66 78.34 Z M 157.66 78.69 L 158.67 79.02 C 159.60 79.32 160.60 78.82 160.91 77.88 C 161.21 76.95 160.71 75.95 159.77 75.64 L 158.77 75.31 C 157.83 75.01 156.83 75.52 156.53 76.45 C 156.22 77.38 156.73 78.38 157.66 78.69 Z M 158.70 79.03 L 159.70 79.34 C 160.64 79.62 161.63 79.09 161.92 78.15 C 162.21 77.22 161.68 76.22 160.74 75.94 L 159.74 75.63 C 158.80 75.35 157.81 75.88 157.52 76.81 C 157.24 77.75 157.77 78.74 158.70 79.03 Z M 159.74 79.35 L 160.72 79.62 C 161.67 79.88 162.65 79.33 162.91 78.39 C 163.17 77.44 162.62 76.46 161.67 76.20 L 160.70 75.92 C 159.75 75.66 158.77 76.21 158.51 77.16 C 158.25 78.10 158.80 79.08 159.74 79.35 Z M 160.75 79.63 L 161.71 79.88 C 162.66 80.12 163.63 79.55 163.88 78.60 C 164.12 77.65 163.55 76.68 162.60 76.43 L 161.64 76.19 C 160.69 75.94 159.72 76.51 159.47 77.47 C 159.23 78.42 159.80 79.39 160.75 79.63 Z M 161.74 79.89 L 162.69 80.12 C 163.65 80.35 164.61 79.76 164.84 78.80 C 165.07 77.84 164.48 76.88 163.53 76.65 L 162.57 76.42 C 161.62 76.19 160.65 76.78 160.42 77.74 C 160.19 78.69 160.78 79.66 161.74 79.89 Z M 162.71 80.12 L 163.71 80.35 C 164.67 80.57 165.63 79.97 165.85 79.01 C 166.07 78.05 165.47 77.10 164.51 76.88 L 163.51 76.65 C 162.55 76.43 161.59 77.02 161.37 77.98 C 161.15 78.94 161.75 79.90 162.71 80.12 Z M 163.72 80.36 L 164.74 80.59 C 165.70 80.80 166.66 80.20 166.87 79.24 C 167.09 78.27 166.49 77.32 165.52 77.10 L 164.50 76.87 C 163.54 76.66 162.59 77.26 162.37 78.22 C 162.15 79.18 162.76 80.14 163.72 80.36 Z M 164.74 80.59 L 165.72 80.81 C 166.68 81.02 167.64 80.42 167.86 79.46 C 168.07 78.49 167.47 77.54 166.50 77.32 L 165.52 77.10 C 164.56 76.89 163.61 77.49 163.39 78.45 C 163.17 79.42 163.78 80.37 164.74 80.59 Z M 165.71 80.81 L 166.62 81.01 C 167.58 81.23 168.54 80.63 168.76 79.67 C 168.98 78.71 168.38 77.75 167.42 77.53 L 166.51 77.32 C 165.55 77.10 164.59 77.70 164.37 78.67 C 164.15 79.63 164.75 80.59 165.71 80.81 Z M 166.60 81.01 L 167.65 81.26 C 168.61 81.50 169.58 80.90 169.81 79.94 C 170.04 78.98 169.45 78.02 168.49 77.79 L 167.44 77.53 C 166.48 77.30 165.51 77.89 165.28 78.85 C 165.05 79.81 165.64 80.78 166.60 81.01 Z M 167.63 81.26 L 168.57 81.50 C 169.53 81.74 170.51 81.16 170.75 80.20 C 170.99 79.24 170.41 78.27 169.45 78.03 L 168.51 77.79 C 167.55 77.55 166.58 78.13 166.33 79.09 C 166.09 80.05 166.67 81.02 167.63 81.26 Z M 168.58 81.50 L 169.48 81.73 C 170.44 81.97 171.42 81.39 171.66 80.43 C 171.90 79.47 171.32 78.49 170.36 78.25 L 169.45 78.03 C 168.49 77.78 167.52 78.37 167.27 79.33 C 167.03 80.29 167.62 81.26 168.58 81.50 Z M 169.50 81.73 L 170.49 81.97 C 171.46 82.20 172.42 81.61 172.65 80.65 C 172.89 79.69 172.29 78.72 171.33 78.49 L 170.34 78.25 C 169.38 78.02 168.41 78.61 168.18 79.57 C 167.95 80.53 168.54 81.50 169.50 81.73 Z M 170.50 81.97 L 171.46 82.20 C 172.42 82.42 173.39 81.83 173.61 80.86 C 173.84 79.90 173.24 78.94 172.28 78.71 L 171.32 78.48 C 170.36 78.26 169.40 78.86 169.17 79.82 C 168.94 80.78 169.54 81.75 170.50 81.97 Z M 171.45 82.20 L 172.34 82.41 C 173.30 82.64 174.27 82.04 174.50 81.08 C 174.73 80.11 174.13 79.15 173.17 78.92 L 172.28 78.71 C 171.32 78.48 170.35 79.08 170.12 80.04 C 169.90 81.00 170.49 81.97 171.45 82.20 Z M 172.34 82.41 L 173.30 82.64 C 174.27 82.86 175.23 82.27 175.46 81.30 C 175.69 80.34 175.09 79.37 174.13 79.15 L 173.17 78.92 C 172.20 78.69 171.24 79.29 171.01 80.25 C 170.78 81.21 171.38 82.18 172.34 82.41 Z M 173.31 82.64 L 174.34 82.88 C 175.31 83.10 176.27 82.50 176.50 81.54 C 176.72 80.57 176.12 79.61 175.16 79.38 L 174.12 79.14 C 173.16 78.92 172.19 79.52 171.97 80.49 C 171.74 81.45 172.34 82.41 173.31 82.64 Z M 174.35 82.88 L 175.34 83.11 C 176.31 83.33 177.27 82.72 177.49 81.76 C 177.71 80.79 177.11 79.83 176.14 79.61 L 175.15 79.38 C 174.18 79.16 173.22 79.77 173.00 80.73 C 172.78 81.70 173.39 82.66 174.35 82.88 Z M 175.35 83.11 L 176.37 83.34 C 177.34 83.55 178.30 82.94 178.51 81.97 C 178.73 81.00 178.12 80.04 177.15 79.83 L 176.13 79.60 C 175.16 79.39 174.20 80.00 173.99 80.97 C 173.77 81.94 174.38 82.90 175.35 83.11 Z M 176.39 83.34 L 177.35 83.55 C 178.32 83.75 179.28 83.13 179.48 82.16 C 179.69 81.19 179.07 80.23 178.09 80.03 L 177.13 79.82 C 176.16 79.62 175.21 80.24 175.00 81.21 C 174.80 82.18 175.42 83.14 176.39 83.34 Z M 177.39 83.55 L 178.48 83.76 C 179.45 83.95 180.40 83.31 180.58 82.33 C 180.77 81.36 180.13 80.41 179.15 80.23 L 178.06 80.02 C 177.08 79.83 176.14 80.47 175.96 81.45 C 175.77 82.43 176.41 83.37 177.39 83.55 Z M 178.53 83.77 L 179.43 83.92 C 180.41 84.08 181.34 83.41 181.50 82.43 C 181.66 81.45 180.99 80.53 180.01 80.37 L 179.11 80.22 C 178.12 80.06 177.20 80.72 177.04 81.70 C 176.88 82.69 177.54 83.61 178.53 83.77 Z M 179.46 83.92 L 180.39 84.06 C 181.37 84.20 182.29 83.52 182.43 82.54 C 182.58 81.56 181.90 80.64 180.91 80.50 L 179.98 80.36 C 179.00 80.22 178.09 80.90 177.94 81.88 C 177.80 82.86 178.48 83.78 179.46 83.92 Z M 180.40 84.06 L 181.39 84.20 C 182.37 84.35 183.28 83.66 183.43 82.68 C 183.57 81.70 182.88 80.78 181.90 80.64 L 180.91 80.50 C 179.92 80.36 179.01 81.04 178.87 82.02 C 178.73 83.01 179.41 83.92 180.40 84.06 Z M 181.37 84.20 L 182.38 84.36 C 183.36 84.50 184.28 83.83 184.43 82.84 C 184.58 81.86 183.90 80.94 182.92 80.79 L 181.91 80.64 C 180.93 80.49 180.01 81.17 179.86 82.15 C 179.71 83.14 180.39 84.05 181.37 84.20 Z M 182.35 84.35 L 183.35 84.52 C 184.33 84.68 185.26 84.02 185.42 83.04 C 185.58 82.05 184.92 81.13 183.94 80.96 L 182.94 80.80 C 181.96 80.63 181.03 81.30 180.87 82.28 C 180.71 83.26 181.37 84.19 182.35 84.35 Z M 183.31 84.51 L 184.26 84.69 C 185.24 84.88 186.18 84.23 186.37 83.25 C 186.55 82.27 185.91 81.33 184.93 81.15 L 183.98 80.97 C 183.00 80.78 182.05 81.43 181.87 82.41 C 181.69 83.39 182.33 84.33 183.31 84.51 Z M 184.21 84.69 L 185.09 84.88 C 186.06 85.09 187.03 84.47 187.24 83.49 C 187.45 82.52 186.83 81.55 185.85 81.34 L 184.97 81.15 C 184.00 80.94 183.04 81.56 182.83 82.54 C 182.61 83.51 183.23 84.47 184.21 84.69 Z M 185.05 84.87 L 186.08 85.12 C 187.05 85.35 188.03 84.75 188.26 83.77 C 188.49 82.80 187.89 81.83 186.92 81.59 L 185.89 81.35 C 184.92 81.12 183.94 81.72 183.71 82.69 C 183.48 83.66 184.08 84.64 185.05 84.87 Z M 186.06 85.11 L 187.07 85.36 C 188.04 85.61 189.02 85.02 189.26 84.04 C 189.51 83.07 188.92 82.09 187.94 81.85 L 186.94 81.60 C 185.97 81.35 184.98 81.94 184.74 82.92 C 184.50 83.89 185.09 84.87 186.06 85.11 Z M 187.06 85.36 L 188.07 85.62 C 189.04 85.87 190.02 85.28 190.27 84.31 C 190.52 83.34 189.93 82.35 188.96 82.10 L 187.95 81.85 C 186.98 81.60 185.99 82.19 185.75 83.16 C 185.50 84.13 186.09 85.12 187.06 85.36 Z M 188.06 85.62 L 189.06 85.88 C 190.03 86.13 191.02 85.55 191.27 84.58 C 191.53 83.61 190.94 82.62 189.97 82.37 L 188.97 82.11 C 188.00 81.85 187.01 82.44 186.76 83.41 C 186.51 84.38 187.09 85.37 188.06 85.62 Z M 189.05 85.87 L 190.02 86.13 C 190.98 86.39 191.98 85.82 192.24 84.85 C 192.50 83.88 191.92 82.89 190.96 82.63 L 189.99 82.37 C 189.02 82.11 188.03 82.69 187.77 83.65 C 187.51 84.62 188.08 85.62 189.05 85.87 Z M 189.99 86.13 L 191.06 86.43 C 192.02 86.70 193.03 86.14 193.30 85.18 C 193.57 84.21 193.01 83.21 192.05 82.94 L 190.98 82.64 C 190.02 82.36 189.01 82.92 188.74 83.89 C 188.47 84.85 189.03 85.86 189.99 86.13 Z M 191.05 86.43 L 191.88 86.67 C 192.84 86.95 193.85 86.39 194.13 85.43 C 194.40 84.47 193.85 83.46 192.89 83.18 L 192.06 82.94 C 191.10 82.66 190.09 83.22 189.81 84.18 C 189.53 85.14 190.09 86.15 191.05 86.43 Z M 191.90 86.68 L 192.79 86.92 C 193.76 87.19 194.76 86.62 195.03 85.65 C 195.29 84.68 194.72 83.68 193.76 83.42 L 192.86 83.17 C 191.90 82.91 190.90 83.48 190.63 84.44 C 190.37 85.41 190.94 86.41 191.90 86.68 Z M 192.79 86.92 L 193.79 87.20 C 194.75 87.47 195.76 86.91 196.03 85.94 C 196.30 84.97 195.73 83.97 194.76 83.70 L 193.76 83.42 C 192.80 83.15 191.79 83.71 191.52 84.68 C 191.25 85.65 191.82 86.65 192.79 86.92 Z M 193.75 87.19 L 194.71 87.48 C 195.67 87.77 196.68 87.23 196.98 86.27 C 197.27 85.31 196.73 84.29 195.77 84.00 L 194.80 83.71 C 193.84 83.42 192.83 83.96 192.53 84.92 C 192.24 85.88 192.78 86.90 193.75 87.19 Z M 194.68 87.47 L 195.65 87.79 C 196.61 88.10 197.63 87.57 197.94 86.62 C 198.25 85.66 197.73 84.63 196.77 84.33 L 195.80 84.01 C 194.84 83.70 193.81 84.23 193.51 85.18 C 193.20 86.14 193.72 87.16 194.68 87.47 Z M 195.63 87.78 L 196.61 88.11 C 197.56 88.43 198.59 87.92 198.91 86.97 C 199.24 86.02 198.72 84.99 197.77 84.66 L 196.79 84.33 C 195.84 84.01 194.81 84.52 194.49 85.47 C 194.17 86.43 194.68 87.46 195.63 87.78 Z M 196.59 88.11 L 197.52 88.43 C 198.47 88.76 199.51 88.26 199.84 87.31 C 200.17 86.36 199.67 85.32 198.72 84.99 L 197.79 84.67 C 196.84 84.34 195.80 84.84 195.47 85.79 C 195.14 86.74 195.64 87.78 196.59 88.11 Z M 197.54 88.44 L 198.44 88.74 C 199.39 89.06 200.42 88.55 200.75 87.60 C 201.07 86.64 200.55 85.61 199.60 85.29 L 198.70 84.99 C 197.75 84.66 196.72 85.18 196.40 86.13 C 196.07 87.08 196.59 88.12 197.54 88.44 Z M 198.44 88.74 L 199.38 89.06 C 200.34 89.38 201.37 88.86 201.69 87.91 C 202.01 86.95 201.50 85.92 200.54 85.60 L 199.60 85.28 C 198.64 84.96 197.61 85.48 197.29 86.44 C 196.97 87.39 197.48 88.43 198.44 88.74 Z M 199.34 89.05 L 200.26 89.38 C 201.21 89.73 202.26 89.24 202.61 88.30 C 202.95 87.35 202.47 86.30 201.52 85.95 L 200.59 85.62 C 199.64 85.27 198.59 85.76 198.25 86.70 C 197.90 87.65 198.39 88.70 199.34 89.05 Z M 200.21 89.36 L 201.13 89.74 C 202.07 90.12 203.13 89.66 203.51 88.73 C 203.89 87.79 203.44 86.73 202.50 86.35 L 201.57 85.97 C 200.64 85.60 199.57 86.05 199.20 86.99 C 198.82 87.92 199.27 88.99 200.21 89.36 Z M 201.09 89.72 L 202.03 90.13 C 202.96 90.53 204.04 90.11 204.44 89.18 C 204.84 88.25 204.42 87.18 203.49 86.78 L 202.55 86.37 C 201.62 85.96 200.54 86.39 200.14 87.32 C 199.74 88.24 200.16 89.32 201.09 89.72 Z M 202.00 90.12 L 202.91 90.54 C 203.83 90.96 204.92 90.55 205.34 89.63 C 205.76 88.72 205.36 87.63 204.44 87.21 L 203.52 86.79 C 202.61 86.37 201.52 86.77 201.10 87.69 C 200.67 88.61 201.08 89.70 202.00 90.12 Z M 202.88 90.52 L 203.78 90.96 C 204.70 91.40 205.79 91.01 206.23 90.10 C 206.67 89.19 206.29 88.09 205.37 87.65 L 204.47 87.22 C 203.55 86.78 202.46 87.16 202.02 88.08 C 201.58 88.99 201.96 90.09 202.88 90.52 Z M 203.76 90.95 L 204.70 91.42 C 205.60 91.87 206.71 91.51 207.16 90.60 C 207.62 89.69 207.25 88.59 206.34 88.13 L 205.40 87.66 C 204.49 87.21 203.39 87.58 202.94 88.48 C 202.48 89.39 202.85 90.49 203.76 90.95 Z M 204.69 91.42 L 205.56 91.86 C 206.47 92.32 207.57 91.96 208.03 91.05 C 208.49 90.15 208.13 89.04 207.23 88.58 L 206.35 88.14 C 205.45 87.68 204.34 88.04 203.88 88.95 C 203.42 89.85 203.78 90.96 204.69 91.42 Z M 205.58 91.87 L 206.48 92.31 C 207.39 92.76 208.49 92.38 208.94 91.47 C 209.38 90.56 209.01 89.46 208.10 89.01 L 207.21 88.57 C 206.30 88.13 205.20 88.50 204.75 89.41 C 204.30 90.32 204.67 91.42 205.58 91.87 Z M 206.50 92.32 L 207.37 92.74 C 208.29 93.18 209.39 92.79 209.82 91.87 C 210.26 90.96 209.87 89.86 208.96 89.42 L 208.08 89.00 C 207.16 88.57 206.07 88.95 205.63 89.87 C 205.19 90.79 205.58 91.88 206.50 92.32 Z M 207.37 92.74 L 208.21 93.14 C 209.12 93.58 210.22 93.20 210.66 92.29 C 211.11 91.37 210.72 90.27 209.81 89.83 L 208.96 89.42 C 208.05 88.98 206.95 89.37 206.51 90.28 C 206.07 91.20 206.45 92.30 207.37 92.74 Z M 208.24 93.16 L 209.19 93.59 C 210.11 94.02 211.21 93.61 211.63 92.69 C 212.05 91.77 211.65 90.67 210.72 90.25 L 209.77 89.82 C 208.85 89.39 207.76 89.80 207.34 90.72 C 206.91 91.64 207.32 92.74 208.24 93.16 Z M 209.25 93.62 L 210.12 93.98 C 211.06 94.37 212.13 93.92 212.52 92.99 C 212.91 92.05 212.47 90.97 211.53 90.58 L 210.66 90.22 C 209.72 89.83 208.65 90.28 208.26 91.22 C 207.87 92.16 208.31 93.23 209.25 93.62 Z M 210.15 93.99 L 211.09 94.36 C 212.03 94.73 213.10 94.27 213.47 93.32 C 213.84 92.38 213.38 91.31 212.43 90.94 L 211.50 90.57 C 210.55 90.20 209.48 90.66 209.11 91.61 C 208.74 92.55 209.20 93.62 210.15 93.99 Z M 211.09 94.36 L 212.09 94.75 C 213.04 95.12 214.10 94.65 214.47 93.71 C 214.84 92.76 214.37 91.69 213.43 91.32 L 212.43 90.94 C 211.48 90.57 210.42 91.04 210.05 91.98 C 209.68 92.93 210.15 94.00 211.09 94.36 Z M 212.08 94.75 L 213.03 95.13 C 213.97 95.50 215.04 95.04 215.42 94.10 C 215.79 93.15 215.33 92.08 214.39 91.71 L 213.44 91.33 C 212.49 90.95 211.42 91.42 211.05 92.36 C 210.67 93.30 211.14 94.37 212.08 94.75 Z M 213.01 95.12 L 213.95 95.50 C 214.89 95.89 215.96 95.44 216.35 94.50 C 216.74 93.56 216.29 92.49 215.35 92.10 L 214.41 91.72 C 213.47 91.33 212.40 91.78 212.01 92.72 C 211.62 93.66 212.07 94.73 213.01 95.12 Z M 213.91 95.49 L 214.83 95.89 C 215.76 96.30 216.85 95.88 217.26 94.95 C 217.66 94.02 217.24 92.93 216.31 92.52 L 215.39 92.12 C 214.45 91.71 213.37 92.13 212.96 93.06 C 212.55 94.00 212.98 95.08 213.91 95.49 Z M 214.77 95.86 L 215.72 96.33 C 216.63 96.77 217.73 96.39 218.18 95.47 C 218.62 94.56 218.24 93.46 217.33 93.01 L 216.38 92.55 C 215.46 92.11 214.36 92.49 213.92 93.40 C 213.47 94.32 213.85 95.42 214.77 95.86 Z M 215.63 96.28 L 216.42 96.71 C 217.31 97.21 218.43 96.89 218.92 96.00 C 219.41 95.11 219.09 93.99 218.20 93.50 L 217.42 93.06 C 216.53 92.57 215.41 92.89 214.91 93.78 C 214.42 94.67 214.74 95.79 215.63 96.28 Z M 216.31 96.65 L 217.15 97.19 C 218.00 97.74 219.14 97.49 219.69 96.64 C 220.24 95.78 219.99 94.64 219.14 94.09 L 218.30 93.56 C 217.45 93.01 216.31 93.26 215.76 94.11 C 215.21 94.97 215.46 96.10 216.31 96.65 Z M 217.07 97.14 L 217.87 97.71 C 218.70 98.30 219.85 98.11 220.44 97.29 C 221.03 96.46 220.84 95.31 220.02 94.72 L 219.22 94.15 C 218.39 93.55 217.24 93.74 216.65 94.57 C 216.06 95.40 216.25 96.55 217.07 97.14 Z M 217.84 97.69 L 218.62 98.27 C 219.43 98.88 220.59 98.71 221.20 97.89 C 221.80 97.08 221.64 95.92 220.82 95.31 L 220.05 94.74 C 219.23 94.13 218.08 94.30 217.47 95.12 C 216.86 95.93 217.03 97.09 217.84 97.69 Z M 218.59 98.25 L 219.42 98.90 C 220.23 99.52 221.39 99.38 222.01 98.57 C 222.64 97.77 222.49 96.61 221.68 95.98 L 220.85 95.33 C 220.04 94.71 218.88 94.85 218.26 95.66 C 217.63 96.47 217.78 97.63 218.59 98.25 Z M 219.39 98.88 L 220.19 99.52 C 220.98 100.17 222.14 100.04 222.79 99.25 C 223.43 98.46 223.31 97.29 222.51 96.65 L 221.72 96.00 C 220.92 95.36 219.76 95.48 219.12 96.28 C 218.47 97.07 218.59 98.23 219.39 98.88 Z M 220.17 99.51 L 220.94 100.14 C 221.72 100.80 222.89 100.69 223.54 99.90 C 224.19 99.11 224.08 97.95 223.29 97.30 L 222.53 96.66 C 221.74 96.01 220.58 96.12 219.93 96.91 C 219.27 97.69 219.38 98.86 220.17 99.51 Z M 220.93 100.14 L 221.73 100.80 C 222.52 101.46 223.68 101.35 224.33 100.56 C 224.99 99.77 224.88 98.61 224.09 97.96 L 223.30 97.30 C 222.51 96.64 221.34 96.75 220.69 97.54 C 220.04 98.33 220.15 99.49 220.93 100.14 Z M 221.73 100.80 L 222.46 101.41 C 223.24 102.07 224.41 101.96 225.06 101.18 C 225.72 100.39 225.61 99.23 224.83 98.57 L 224.10 97.96 C 223.31 97.31 222.15 97.41 221.49 98.19 C 220.84 98.98 220.94 100.15 221.73 100.80 Z M 222.44 101.39 L 223.19 102.04 C 223.96 102.71 225.13 102.63 225.80 101.85 C 226.47 101.08 226.38 99.91 225.61 99.24 L 224.85 98.59 C 224.08 97.92 222.91 98.01 222.24 98.78 C 221.58 99.56 221.66 100.72 222.44 101.39 Z M 223.16 102.02 L 223.90 102.68 C 224.66 103.36 225.83 103.30 226.51 102.54 C 227.19 101.78 227.13 100.61 226.37 99.93 L 225.64 99.27 C 224.88 98.58 223.71 98.65 223.02 99.41 C 222.34 100.17 222.40 101.34 223.16 102.02 Z M 223.85 102.64 L 224.56 103.32 C 225.30 104.03 226.47 104.01 227.18 103.27 C 227.89 102.54 227.87 101.37 227.13 100.66 L 226.42 99.97 C 225.68 99.26 224.51 99.28 223.80 100.02 C 223.09 100.75 223.11 101.93 223.85 102.64 Z M 224.47 103.23 L 225.10 103.93 C 225.79 104.69 226.96 104.74 227.72 104.06 C 228.48 103.37 228.53 102.20 227.85 101.44 L 227.22 100.74 C 226.53 99.99 225.36 99.93 224.60 100.62 C 223.84 101.30 223.78 102.47 224.47 103.23 Z M 225.01 103.82 L 225.62 104.61 C 226.25 105.42 227.42 105.56 228.23 104.93 C 229.03 104.30 229.18 103.14 228.55 102.33 L 227.94 101.54 C 227.31 100.74 226.14 100.59 225.34 101.22 C 224.53 101.85 224.38 103.02 225.01 103.82 Z M 225.56 104.52 L 226.17 105.40 C 226.75 106.25 227.90 106.46 228.75 105.88 C 229.59 105.30 229.80 104.15 229.22 103.30 L 228.61 102.42 C 228.03 101.57 226.88 101.36 226.04 101.94 C 225.19 102.52 224.98 103.67 225.56 104.52 Z M 226.13 105.35 L 226.69 106.23 C 227.24 107.09 228.39 107.34 229.25 106.79 C 230.12 106.24 230.37 105.09 229.82 104.23 L 229.26 103.35 C 228.71 102.49 227.56 102.24 226.70 102.79 C 225.83 103.34 225.58 104.49 226.13 105.35 Z M 226.68 106.21 L 227.21 107.06 C 227.75 107.93 228.89 108.19 229.76 107.65 C 230.63 107.11 230.90 105.96 230.36 105.09 L 229.83 104.25 C 229.29 103.38 228.14 103.11 227.27 103.65 C 226.40 104.20 226.14 105.34 226.68 106.21 Z M 227.21 107.06 L 227.75 107.93 C 228.30 108.80 229.44 109.06 230.31 108.52 C 231.18 107.98 231.44 106.83 230.90 105.96 L 230.35 105.09 C 229.81 104.22 228.67 103.96 227.80 104.50 C 226.93 105.05 226.67 106.19 227.21 107.06 Z M 227.76 107.94 L 228.27 108.74 C 228.82 109.61 229.97 109.86 230.83 109.31 C 231.70 108.76 231.95 107.61 231.40 106.75 L 230.89 105.95 C 230.34 105.08 229.19 104.83 228.33 105.38 C 227.47 105.93 227.21 107.08 227.76 107.94 Z M 228.28 108.75 L 228.79 109.54 C 229.34 110.40 230.49 110.65 231.35 110.10 C 232.21 109.54 232.46 108.39 231.91 107.53 L 231.40 106.74 C 230.84 105.88 229.69 105.63 228.83 106.19 C 227.97 106.74 227.72 107.89 228.28 108.75 Z M 228.80 109.56 L 229.37 110.41 C 229.93 111.27 231.08 111.50 231.94 110.93 C 232.79 110.36 233.02 109.21 232.46 108.36 L 231.89 107.51 C 231.33 106.66 230.18 106.43 229.32 106.99 C 228.47 107.56 228.24 108.71 228.80 109.56 Z M 229.40 110.46 L 230.00 111.31 C 230.59 112.15 231.75 112.35 232.59 111.75 C 233.42 111.16 233.62 110.01 233.03 109.17 L 232.43 108.32 C 231.83 107.48 230.68 107.28 229.84 107.87 C 229.00 108.46 228.81 109.62 229.40 110.46 Z M 230.05 111.38 L 230.67 112.18 C 231.30 112.99 232.47 113.13 233.28 112.50 C 234.08 111.88 234.23 110.71 233.60 109.90 L 232.98 109.10 C 232.35 108.29 231.19 108.15 230.38 108.78 C 229.57 109.40 229.42 110.57 230.05 111.38 Z M 230.74 112.26 L 231.39 113.00 C 232.06 113.77 233.23 113.85 234.00 113.17 C 234.78 112.50 234.85 111.33 234.18 110.56 L 233.53 109.82 C 232.86 109.05 231.69 108.97 230.92 109.64 C 230.14 110.32 230.07 111.49 230.74 112.26 Z M 231.48 113.10 L 232.21 113.81 C 232.94 114.53 234.11 114.52 234.83 113.79 C 235.55 113.06 235.54 111.88 234.81 111.17 L 234.08 110.46 C 233.35 109.74 232.18 109.75 231.46 110.48 C 230.74 111.21 230.75 112.38 231.48 113.10 Z M 232.33 113.93 L 233.10 114.55 C 233.90 115.20 235.06 115.08 235.71 114.29 C 236.36 113.49 236.24 112.33 235.45 111.68 L 234.68 111.05 C 233.89 110.41 232.72 110.52 232.07 111.32 C 231.42 112.11 231.54 113.28 232.33 113.93 Z M 233.25 114.66 L 234.09 115.21 C 234.94 115.78 236.09 115.54 236.66 114.69 C 237.22 113.83 236.99 112.68 236.13 112.12 L 235.30 111.57 C 234.44 111.00 233.29 111.24 232.73 112.09 C 232.16 112.95 232.40 114.10 233.25 114.66 Z M 234.20 115.28 L 235.07 115.77 C 235.96 116.28 237.09 115.96 237.60 115.07 C 238.10 114.18 237.78 113.05 236.89 112.54 L 236.02 112.05 C 235.13 111.55 234.00 111.86 233.49 112.76 C 232.99 113.65 233.31 114.78 234.20 115.28 Z M 235.08 115.78 L 235.96 116.27 C 236.86 116.76 237.99 116.44 238.48 115.54 C 238.98 114.64 238.65 113.52 237.76 113.02 L 236.88 112.54 C 235.98 112.04 234.85 112.36 234.36 113.26 C 233.86 114.16 234.19 115.28 235.08 115.78 Z M 235.89 116.22 L 236.73 116.74 C 237.60 117.28 238.75 117.01 239.28 116.14 C 239.82 115.27 239.55 114.13 238.68 113.59 L 237.83 113.07 C 236.96 112.53 235.82 112.80 235.28 113.67 C 234.74 114.54 235.01 115.68 235.89 116.22 Z M 236.59 116.64 L 237.39 117.25 C 238.20 117.87 239.37 117.72 239.99 116.90 C 240.61 116.09 240.45 114.93 239.63 114.31 L 238.83 113.69 C 238.02 113.07 236.85 113.23 236.23 114.05 C 235.61 114.86 235.77 116.02 236.59 116.64 Z M 237.18 117.06 L 237.87 117.78 C 238.58 118.51 239.75 118.54 240.48 117.83 C 241.22 117.12 241.24 115.95 240.53 115.21 L 239.84 114.50 C 239.14 113.76 237.97 113.74 237.23 114.45 C 236.49 115.16 236.47 116.33 237.18 117.06 Z M 237.61 117.40 L 238.09 118.23 C 238.59 119.11 239.71 119.42 240.58 118.92 C 241.46 118.42 241.76 117.30 241.26 116.42 L 240.79 115.59 C 240.29 114.71 239.17 114.41 238.29 114.91 C 237.42 115.41 237.11 116.53 237.61 117.40 Z M 237.94 117.76 L 238.18 118.74 C 238.42 119.69 239.39 120.28 240.35 120.04 C 241.31 119.81 241.89 118.84 241.65 117.88 L 241.41 116.90 C 241.17 115.94 240.20 115.36 239.25 115.59 C 238.29 115.83 237.70 116.80 237.94 117.76 Z M 238.21 118.47 L 238.29 119.37 C 238.39 120.31 239.22 121.00 240.17 120.91 C 241.11 120.82 241.81 119.98 241.71 119.04 L 241.63 118.14 C 241.54 117.20 240.70 116.51 239.75 116.60 C 238.81 116.69 238.12 117.53 238.21 118.47 Z M 238.38 119.25 L 238.40 120.32 C 238.43 121.22 239.18 121.93 240.08 121.90 C 240.98 121.88 241.69 121.13 241.66 120.23 L 241.63 119.16 C 241.61 118.26 240.86 117.55 239.96 117.57 C 239.06 117.60 238.35 118.35 238.38 119.25 Z M 238.47 120.26 L 238.47 121.27 C 238.46 122.13 239.16 122.83 240.02 122.84 C 240.88 122.84 241.58 122.15 241.59 121.29 L 241.59 120.28 C 241.60 119.42 240.91 118.72 240.04 118.71 C 239.18 118.71 238.48 119.40 238.47 120.26 Z M 238.52 121.23 L 238.49 122.25 C 238.46 123.09 239.11 123.78 239.95 123.81 C 240.78 123.83 241.48 123.18 241.51 122.34 L 241.54 121.33 C 241.56 120.49 240.91 119.79 240.07 119.77 C 239.24 119.74 238.54 120.40 238.52 121.23 Z M 238.53 122.21 L 238.47 123.22 C 238.42 124.03 239.04 124.73 239.85 124.77 C 240.66 124.82 241.35 124.21 241.40 123.40 L 241.46 122.39 C 241.51 121.58 240.89 120.88 240.08 120.83 C 239.28 120.78 238.58 121.40 238.53 122.21 Z M 238.50 123.17 L 238.40 124.20 C 238.32 124.99 238.90 125.70 239.69 125.78 C 240.48 125.86 241.18 125.28 241.26 124.49 L 241.37 123.45 C 241.45 122.66 240.87 121.96 240.08 121.88 C 239.29 121.80 238.58 122.37 238.50 123.17 Z M 238.41 124.15 L 238.28 125.13 C 238.17 125.91 238.72 126.64 239.50 126.74 C 240.29 126.85 241.01 126.30 241.12 125.52 L 241.25 124.54 C 241.36 123.76 240.81 123.03 240.02 122.93 C 239.24 122.82 238.52 123.37 238.41 124.15 Z M 238.29 125.11 L 238.18 125.81 C 238.06 126.59 238.60 127.31 239.37 127.43 C 240.15 127.55 240.88 127.02 241.00 126.24 L 241.11 125.54 C 241.23 124.76 240.69 124.03 239.91 123.91 C 239.13 123.79 238.41 124.33 238.29 125.11 Z"
      fill="black"
      fill-rule="nonzero" /></svg>