<svg xmlns="http://www.w3.org/2000/svg" width="300" height="300" viewBox="0 0 300 300">
<path d="M 106.97 88.92 L 107.36 89.88 C 107.68 90.67 108.58 91.05 109.37 90.73 C 110.16 90.41 110.54 89.51 110.21 88.72 L 109.82 87.76 C 109.50 86.97 108.60 86.59 107.81 86.91 C 107.02 87.23 106.64 88.13 106.97 88.92 Z M 107.25 89.85 L 107.58 90.78 C 107.89 91.63 108.83 92.07 109.68 91.77 C 110.53 91.46 110.97 90.52 110.66 89.67 L 110.32 88.74 C 110.02 87.89 109.08 87.45 108.23 87.76 C 107.38 88.07 106.94 89.00 107.25 89.85 Z M 107.47 90.65 L 107.71 91.57 C 107.95 92.48 108.88 93.03 109.79 92.79 C 110.69 92.56 111.24 91.63 111.01 90.72 L 110.77 89.80 C 110.53 88.89 109.60 88.34 108.69 88.58 C 107.78 88.81 107.24 89.74 107.47 90.65 Z M 107.65 91.41 L 107.81 92.38 C 107.95 93.32 108.84 93.97 109.78 93.82 C 110.72 93.67 111.36 92.79 111.22 91.85 L 111.06 90.88 C 110.92 89.94 110.03 89.29 109.09 89.44 C 108.15 89.59 107.51 90.47 107.65 91.41 Z M 107.79 92.33 L 107.91 93.27 C 108.02 94.22 108.89 94.90 109.84 94.78 C 110.79 94.66 111.47 93.79 111.35 92.84 L 111.23 91.90 C 111.11 90.95 110.25 90.27 109.30 90.39 C 108.35 90.51 107.67 91.38 107.79 92.33 Z M 107.90 93.26 L 108.01 94.17 C 108.12 95.13 108.99 95.81 109.95 95.69 C 110.90 95.58 111.58 94.71 111.47 93.75 L 111.36 92.85 C 111.24 91.89 110.38 91.21 109.42 91.32 C 108.46 91.44 107.78 92.31 107.90 93.26 Z M 108.00 94.16 L 108.12 95.21 C 108.22 96.17 109.09 96.86 110.05 96.75 C 111.01 96.65 111.70 95.78 111.59 94.82 L 111.48 93.77 C 111.37 92.81 110.50 92.12 109.54 92.22 C 108.58 92.33 107.89 93.20 108.00 94.16 Z M 108.11 95.19 L 108.22 96.26 C 108.31 97.22 109.17 97.93 110.14 97.83 C 111.10 97.73 111.81 96.87 111.71 95.91 L 111.60 94.84 C 111.50 93.88 110.64 93.17 109.68 93.27 C 108.71 93.37 108.01 94.23 108.11 95.19 Z M 108.21 96.24 L 108.29 97.15 C 108.38 98.11 109.24 98.83 110.20 98.74 C 111.17 98.65 111.88 97.80 111.80 96.83 L 111.71 95.93 C 111.63 94.96 110.77 94.24 109.80 94.33 C 108.84 94.42 108.12 95.28 108.21 96.24 Z M 108.29 97.13 L 108.37 98.11 C 108.45 99.08 109.30 99.80 110.27 99.72 C 111.24 99.64 111.96 98.78 111.88 97.81 L 111.80 96.84 C 111.72 95.87 110.87 95.15 109.90 95.23 C 108.93 95.31 108.21 96.16 108.29 97.13 Z M 108.36 98.09 L 108.44 99.13 C 108.52 100.10 109.37 100.83 110.34 100.75 C 111.31 100.68 112.04 99.83 111.97 98.86 L 111.89 97.82 C 111.81 96.85 110.96 96.12 109.99 96.20 C 109.02 96.27 108.29 97.12 108.36 98.09 Z M 108.44 99.12 L 108.52 100.20 C 108.58 101.18 109.43 101.91 110.41 101.85 C 111.38 101.78 112.12 100.93 112.05 99.96 L 111.97 98.87 C 111.90 97.89 111.05 97.16 110.08 97.23 C 109.10 97.30 108.37 98.14 108.44 99.12 Z M 108.51 100.20 L 108.58 101.19 C 108.64 102.17 109.48 102.91 110.46 102.84 C 111.44 102.78 112.18 101.94 112.12 100.96 L 112.05 99.96 C 111.99 98.99 111.14 98.25 110.17 98.31 C 109.19 98.38 108.45 99.22 108.51 100.20 Z M 108.57 101.18 L 108.63 102.14 C 108.69 103.12 109.53 103.86 110.51 103.80 C 111.49 103.74 112.24 102.90 112.18 101.92 L 112.12 100.97 C 112.06 99.99 111.22 99.24 110.24 99.30 C 109.26 99.36 108.51 100.21 108.57 101.18 Z M 108.63 102.13 L 108.69 103.12 C 108.74 104.10 109.58 104.85 110.56 104.79 C 111.54 104.73 112.29 103.89 112.24 102.91 L 112.18 101.93 C 112.12 100.95 111.28 100.20 110.30 100.26 C 109.32 100.31 108.57 101.15 108.63 102.13 Z M 108.68 103.11 L 108.74 104.12 C 108.79 105.10 109.63 105.85 110.62 105.80 C 111.60 105.75 112.35 104.91 112.29 103.93 L 112.24 102.92 C 112.18 101.94 111.34 101.18 110.36 101.24 C 109.38 101.29 108.63 102.13 108.68 103.11 Z M 108.74 104.12 L 108.79 105.15 C 108.84 106.13 109.68 106.89 110.67 106.83 C 111.65 106.78 112.40 105.94 112.35 104.96 L 112.30 103.93 C 112.24 102.95 111.41 102.19 110.42 102.24 C 109.44 102.30 108.69 103.14 108.74 104.12 Z M 108.79 105.15 L 108.84 106.20 C 108.90 107.18 109.73 107.94 110.72 107.89 C 111.70 107.84 112.46 107.00 112.41 106.02 L 112.35 104.96 C 112.30 103.98 111.46 103.22 110.48 103.27 C 109.50 103.32 108.74 104.16 108.79 105.15 Z M 108.84 106.20 L 108.89 107.16 C 108.94 108.14 109.78 108.90 110.77 108.85 C 111.75 108.80 112.51 107.96 112.46 106.97 L 112.41 106.02 C 112.36 105.03 111.52 104.27 110.54 104.32 C 109.55 104.37 108.79 105.21 108.84 106.20 Z M 108.89 107.15 L 108.94 108.12 C 108.99 109.11 109.83 109.87 110.81 109.82 C 111.80 109.77 112.56 108.93 112.51 107.94 L 112.46 106.98 C 112.41 105.99 111.57 105.23 110.59 105.28 C 109.60 105.33 108.84 106.17 108.89 107.15 Z M 108.94 108.12 L 108.98 109.10 C 109.03 110.09 109.87 110.85 110.86 110.80 C 111.84 110.76 112.61 109.92 112.56 108.93 L 112.51 107.95 C 112.46 106.96 111.62 106.20 110.64 106.24 C 109.65 106.29 108.89 107.13 108.94 108.12 Z M 108.98 109.10 L 109.03 110.10 C 109.07 111.09 109.91 111.85 110.90 111.81 C 111.89 111.76 112.65 110.92 112.61 109.93 L 112.56 108.93 C 112.51 107.94 111.68 107.18 110.69 107.23 C 109.70 107.27 108.93 108.11 108.98 109.10 Z M 109.03 110.10 L 109.07 111.12 C 109.11 112.11 109.95 112.87 110.94 112.83 C 111.93 112.79 112.70 111.95 112.65 110.96 L 112.61 109.94 C 112.56 108.95 111.73 108.18 110.74 108.23 C 109.75 108.27 108.98 109.11 109.03 110.10 Z M 109.07 111.11 L 109.11 112.15 C 109.15 113.14 109.99 113.91 110.98 113.87 C 111.97 113.83 112.74 112.99 112.70 112.00 L 112.66 110.96 C 112.61 109.97 111.78 109.20 110.79 109.24 C 109.80 109.29 109.03 110.12 109.07 111.11 Z M 109.11 112.15 L 109.15 113.15 C 109.19 114.14 110.03 114.91 111.02 114.87 C 112.01 114.83 112.78 113.99 112.74 113.00 L 112.70 112.01 C 112.66 111.01 111.83 110.24 110.83 110.28 C 109.84 110.32 109.07 111.16 109.11 112.15 Z M 109.15 113.14 L 109.18 114.09 C 109.22 115.09 110.06 115.86 111.05 115.82 C 112.04 115.79 112.82 114.95 112.78 113.96 L 112.75 113.01 C 112.71 112.01 111.87 111.24 110.88 111.27 C 109.89 111.31 109.11 112.15 109.15 113.14 Z M 109.18 114.09 L 109.21 115.06 C 109.25 116.05 110.09 116.83 111.08 116.79 C 112.08 116.76 112.85 115.92 112.82 114.93 L 112.78 113.96 C 112.75 112.97 111.91 112.19 110.92 112.22 C 109.92 112.26 109.15 113.09 109.18 114.09 Z M 109.21 115.05 L 109.24 116.04 C 109.28 117.03 110.11 117.82 111.11 117.78 C 112.11 117.75 112.89 116.92 112.85 115.92 L 112.82 114.93 C 112.79 113.94 111.95 113.15 110.96 113.19 C 109.96 113.22 109.18 114.05 109.21 115.05 Z M 109.24 116.03 L 109.27 117.04 C 109.30 118.04 110.13 118.82 111.13 118.79 C 112.13 118.76 112.92 117.93 112.89 116.93 L 112.86 115.92 C 112.83 114.93 111.99 114.14 110.99 114.17 C 110.00 114.20 109.21 115.03 109.24 116.03 Z M 109.27 117.03 L 109.30 118.06 C 109.32 119.06 110.16 119.85 111.16 119.82 C 112.16 119.79 112.95 118.96 112.92 117.96 L 112.89 116.93 C 112.86 115.93 112.03 115.14 111.03 115.17 C 110.03 115.20 109.24 116.03 109.27 117.03 Z M 109.29 118.05 L 109.32 119.09 C 109.34 120.10 110.17 120.89 111.18 120.87 C 112.18 120.84 112.97 120.01 112.95 119.01 L 112.92 117.96 C 112.90 116.96 112.07 116.17 111.06 116.19 C 110.06 116.22 109.27 117.05 109.29 118.05 Z M 109.31 119.09 L 109.34 120.13 C 109.36 121.13 110.19 121.93 111.19 121.91 C 112.20 121.89 112.99 121.06 112.97 120.05 L 112.95 119.01 C 112.93 118.01 112.10 117.21 111.09 117.23 C 110.09 117.25 109.29 118.08 109.31 119.09 Z M 109.33 120.12 L 109.35 121.09 C 109.37 122.09 110.20 122.89 111.20 122.87 C 112.21 122.86 113.01 122.03 112.99 121.02 L 112.97 120.06 C 112.96 119.05 112.13 118.25 111.12 118.27 C 110.12 118.29 109.32 119.12 109.33 120.12 Z M 109.35 121.08 L 109.36 122.06 C 109.38 123.07 110.21 123.87 111.21 123.85 C 112.22 123.84 113.02 123.01 113.01 122.00 L 112.99 121.03 C 112.98 120.02 112.15 119.22 111.14 119.23 C 110.14 119.25 109.33 120.08 109.35 121.08 Z M 109.36 122.06 L 109.37 123.05 C 109.39 124.06 110.22 124.86 111.22 124.85 C 112.23 124.83 113.04 124.01 113.02 123.00 L 113.01 122.01 C 113.00 121.00 112.17 120.19 111.16 120.21 C 110.15 120.22 109.35 121.05 109.36 122.06 Z M 109.37 123.04 L 109.38 124.05 C 109.40 125.06 110.22 125.86 111.23 125.85 C 112.24 125.84 113.05 125.01 113.04 124.00 L 113.03 123.00 C 113.01 121.99 112.19 121.18 111.18 121.20 C 110.17 121.21 109.36 122.04 109.37 123.04 Z M 109.38 124.04 L 109.39 125.05 C 109.40 126.06 110.23 126.87 111.24 126.86 C 112.25 126.85 113.06 126.03 113.05 125.01 L 113.04 124.00 C 113.03 122.99 112.20 122.18 111.19 122.19 C 110.18 122.21 109.37 123.03 109.38 124.04 Z M 109.39 125.05 L 109.40 126.07 C 109.41 127.08 110.24 127.89 111.25 127.88 C 112.26 127.87 113.07 127.05 113.06 126.03 L 113.05 125.02 C 113.04 124.00 112.22 123.19 111.20 123.20 C 110.19 123.21 109.38 124.04 109.39 125.05 Z M 109.40 126.07 L 109.41 127.09 C 109.42 128.10 110.25 128.92 111.26 128.91 C 112.27 128.90 113.09 128.07 113.08 127.06 L 113.07 126.03 C 113.06 125.02 112.23 124.21 111.22 124.22 C 110.20 124.23 109.39 125.06 109.40 126.07 Z M 109.41 127.09 L 109.41 128.12 C 109.42 129.13 110.25 129.94 111.27 129.94 C 112.28 129.93 113.10 129.10 113.09 128.08 L 113.08 127.06 C 113.07 126.04 112.24 125.23 111.23 125.24 C 110.21 125.25 109.40 126.08 109.41 127.09 Z M 109.41 128.12 L 109.42 129.11 C 109.43 130.13 110.26 130.94 111.28 130.93 C 112.29 130.93 113.11 130.10 113.10 129.08 L 113.09 128.08 C 113.08 127.07 112.25 126.25 111.23 126.26 C 110.22 126.27 109.40 127.10 109.41 128.12 Z M 109.42 129.11 L 109.43 130.11 C 109.44 131.13 110.27 131.94 111.28 131.93 C 112.30 131.93 113.12 131.09 113.11 130.08 L 113.10 129.08 C 113.09 128.06 112.26 127.25 111.24 127.26 C 110.23 127.26 109.41 128.10 109.42 129.11 Z M 109.43 130.11 L 109.43 131.11 C 109.44 132.12 110.27 132.94 111.29 132.93 C 112.31 132.93 113.13 132.09 113.12 131.08 L 113.11 130.08 C 113.10 129.06 112.27 128.24 111.25 128.25 C 110.23 128.26 109.42 129.09 109.43 130.11 Z M 109.43 131.11 L 109.44 132.11 C 109.45 133.12 110.28 133.94 111.30 133.94 C 112.32 133.93 113.14 133.09 113.13 132.08 L 113.12 131.08 C 113.11 130.06 112.28 129.24 111.26 129.25 C 110.24 129.25 109.42 130.09 109.43 131.11 Z M 109.44 132.10 L 109.44 133.10 C 109.45 134.12 110.29 134.95 111.31 134.94 C 112.33 134.93 113.15 134.10 113.14 133.08 L 113.13 132.08 C 113.12 131.06 112.29 130.24 111.27 130.24 C 110.25 130.25 109.43 131.08 109.44 132.10 Z M 109.44 133.10 L 109.45 134.10 C 109.46 135.13 110.29 135.95 111.31 135.94 C 112.33 135.93 113.16 135.10 113.15 134.08 L 113.14 133.08 C 113.13 132.06 112.30 131.23 111.28 131.24 C 110.26 131.25 109.44 132.08 109.44 133.10 Z M 109.45 134.10 L 109.45 135.11 C 109.46 136.13 110.29 136.95 111.32 136.95 C 112.34 136.94 113.16 136.11 113.16 135.08 L 113.15 134.08 C 113.14 133.06 112.31 132.23 111.29 132.24 C 110.26 132.25 109.44 133.08 109.45 134.10 Z M 109.45 135.10 L 109.46 136.11 C 109.46 137.13 110.30 137.96 111.32 137.95 C 112.34 137.95 113.17 137.11 113.16 136.09 L 113.16 135.08 C 113.15 134.06 112.32 133.24 111.30 133.24 C 110.27 133.25 109.45 134.08 109.45 135.10 Z M 109.45 136.11 L 109.46 137.11 C 109.46 138.14 110.30 138.97 111.32 138.96 C 112.35 138.96 113.17 138.12 113.17 137.10 L 113.17 136.09 C 113.16 135.06 112.33 134.24 111.30 134.24 C 110.28 134.25 109.45 135.08 109.45 136.11 Z M 109.46 137.11 L 109.46 138.13 C 109.46 139.15 110.30 139.98 111.32 139.98 C 112.35 139.97 113.18 139.14 113.18 138.11 L 113.17 137.10 C 113.17 136.07 112.33 135.25 111.31 135.25 C 110.28 135.25 109.45 136.09 109.46 137.11 Z M 109.46 138.13 L 109.46 139.14 C 109.46 140.16 110.30 140.99 111.33 140.99 C 112.35 140.99 113.18 140.16 113.18 139.13 L 113.18 138.12 C 113.17 137.09 112.34 136.26 111.31 136.26 C 110.29 136.26 109.46 137.10 109.46 138.13 Z M 109.46 139.14 L 109.46 140.15 C 109.46 141.17 110.30 142.01 111.33 142.00 C 112.35 142.00 113.18 141.17 113.18 140.14 L 113.18 139.13 C 113.18 138.10 112.34 137.27 111.32 137.27 C 110.29 137.28 109.46 138.11 109.46 139.14 Z M 109.46 140.15 L 109.46 141.15 C 109.46 142.18 110.30 143.01 111.33 143.01 C 112.35 143.01 113.19 142.17 113.19 141.15 L 113.18 140.14 C 113.18 139.11 112.35 138.28 111.32 138.28 C 110.29 138.28 109.46 139.12 109.46 140.15 Z M 109.46 141.15 L 109.46 142.15 C 109.46 143.18 110.30 144.01 111.33 144.01 C 112.35 144.01 113.19 143.18 113.19 142.15 L 113.19 141.15 C 113.19 140.12 112.35 139.28 111.32 139.29 C 110.29 139.29 109.46 140.12 109.46 141.15 Z M 109.46 142.15 L 109.46 143.14 C 109.46 144.17 110.30 145.01 111.33 145.00 C 112.36 145.00 113.19 144.17 113.19 143.14 L 113.19 142.15 C 113.19 141.12 112.35 140.28 111.32 140.28 C 110.29 140.28 109.46 141.12 109.46 142.15 Z M 109.46 143.14 L 109.46 144.12 C 109.46 145.15 110.29 145.99 111.33 145.99 C 112.36 145.99 113.19 145.15 113.19 144.12 L 113.19 143.14 C 113.19 142.11 112.36 141.27 111.32 141.27 C 110.29 141.27 109.46 142.11 109.46 143.14 Z M 109.46 144.12 L 109.46 145.10 C 109.46 146.13 110.29 146.97 111.32 146.97 C 112.36 146.97 113.19 146.13 113.19 145.10 L 113.19 144.12 C 113.19 143.09 112.36 142.26 111.32 142.26 C 110.29 142.26 109.46 143.09 109.46 144.12 Z M 109.46 145.10 L 109.46 146.11 C 109.46 147.15 110.29 147.98 111.32 147.98 C 112.36 147.98 113.19 147.15 113.19 146.11 L 113.19 145.10 C 113.19 144.07 112.36 143.23 111.32 143.23 C 110.29 143.23 109.46 144.07 109.46 145.10 Z M 109.46 146.11 L 109.46 147.12 C 109.46 148.15 110.29 148.98 111.32 148.99 C 112.36 148.99 113.19 148.15 113.19 147.12 L 113.19 146.11 C 113.19 145.08 112.36 144.24 111.33 144.24 C 110.29 144.24 109.46 145.08 109.46 146.11 Z M 109.45 147.11 L 109.45 148.11 C 109.45 149.14 110.29 149.98 111.32 149.98 C 112.36 149.98 113.19 149.15 113.19 148.11 L 113.19 147.12 C 113.20 146.08 112.36 145.25 111.33 145.25 C 110.29 145.25 109.46 146.08 109.45 147.11 Z M 109.45 148.11 L 109.45 149.10 C 109.45 150.14 110.29 150.97 111.32 150.97 C 112.35 150.98 113.19 150.14 113.19 149.11 L 113.20 148.11 C 113.20 147.08 112.36 146.24 111.33 146.24 C 110.29 146.24 109.45 147.08 109.45 148.11 Z M 109.45 149.10 L 109.45 150.09 C 109.45 151.13 110.29 151.97 111.32 151.97 C 112.35 151.97 113.19 151.13 113.19 150.10 L 113.19 149.11 C 113.20 148.07 112.36 147.23 111.33 147.23 C 110.29 147.23 109.45 148.07 109.45 149.10 Z M 109.45 150.09 L 109.45 151.09 C 109.44 152.12 110.28 152.96 111.32 152.96 C 112.35 152.97 113.19 152.13 113.19 151.10 L 113.19 150.10 C 113.20 149.07 112.36 148.23 111.33 148.22 C 110.29 148.22 109.45 149.06 109.45 150.09 Z M 109.45 151.09 L 109.44 152.09 C 109.44 153.12 110.28 153.96 111.31 153.97 C 112.34 153.97 113.19 153.13 113.19 152.10 L 113.19 151.10 C 113.20 150.06 112.36 149.22 111.33 149.22 C 110.29 149.21 109.45 150.05 109.45 151.09 Z M 109.44 152.08 L 109.44 153.09 C 109.43 154.12 110.27 154.97 111.30 154.97 C 112.34 154.98 113.18 154.14 113.19 153.11 L 113.19 152.10 C 113.19 151.06 112.36 150.22 111.32 150.22 C 110.29 150.21 109.45 151.05 109.44 152.08 Z M 109.44 153.09 L 109.43 154.08 C 109.43 155.12 110.26 155.96 111.30 155.97 C 112.33 155.97 113.18 155.14 113.18 154.10 L 113.19 153.11 C 113.19 152.07 112.36 151.23 111.32 151.22 C 110.29 151.22 109.44 152.05 109.44 153.09 Z M 109.43 154.08 L 109.42 155.08 C 109.42 156.11 110.25 156.96 111.29 156.97 C 112.32 156.97 113.17 156.14 113.18 155.10 L 113.18 154.10 C 113.19 153.07 112.35 152.22 111.32 152.22 C 110.28 152.21 109.44 153.04 109.43 154.08 Z M 109.42 155.08 L 109.42 156.08 C 109.41 157.12 110.24 157.96 111.28 157.97 C 112.31 157.98 113.16 157.15 113.17 156.11 L 113.18 155.11 C 113.18 154.07 112.35 153.22 111.32 153.22 C 110.28 153.21 109.43 154.04 109.42 155.08 Z M 109.42 156.08 L 109.41 157.09 C 109.40 158.12 110.23 158.97 111.26 158.98 C 112.30 158.99 113.15 158.16 113.16 157.12 L 113.17 156.12 C 113.18 155.08 112.35 154.23 111.31 154.22 C 110.27 154.21 109.43 155.04 109.42 156.08 Z M 109.41 157.08 L 109.39 158.09 C 109.38 159.13 110.21 159.98 111.25 159.99 C 112.29 160.00 113.14 159.17 113.15 158.13 L 113.16 157.13 C 113.17 156.09 112.34 155.24 111.30 155.23 C 110.27 155.22 109.42 156.05 109.41 157.08 Z M 109.39 158.09 L 109.38 159.09 C 109.37 160.13 110.20 160.98 111.23 160.99 C 112.27 161.01 113.12 160.18 113.14 159.14 L 113.15 158.14 C 113.16 157.10 112.33 156.25 111.30 156.23 C 110.26 156.22 109.41 157.05 109.39 158.09 Z M 109.38 159.09 L 109.36 160.08 C 109.35 161.12 110.18 161.97 111.21 161.99 C 112.25 162.01 113.10 161.18 113.12 160.14 L 113.14 159.14 C 113.15 158.11 112.32 157.25 111.29 157.24 C 110.25 157.22 109.40 158.05 109.38 159.09 Z M 109.36 160.08 L 109.35 161.07 C 109.33 162.10 110.15 162.96 111.19 162.98 C 112.23 163.00 113.08 162.17 113.10 161.13 L 113.12 160.15 C 113.14 159.11 112.31 158.25 111.28 158.23 C 110.24 158.22 109.38 159.04 109.36 160.08 Z M 109.35 161.06 L 109.32 162.07 C 109.30 163.11 110.13 163.97 111.17 163.99 C 112.20 164.01 113.06 163.19 113.08 162.15 L 113.10 161.14 C 113.13 160.10 112.30 159.24 111.26 159.22 C 110.23 159.20 109.37 160.02 109.35 161.06 Z M 109.32 162.07 L 109.30 163.07 C 109.28 164.11 110.10 164.97 111.14 165.00 C 112.18 165.02 113.04 164.20 113.06 163.16 L 113.08 162.16 C 113.11 161.12 112.29 160.26 111.25 160.23 C 110.21 160.21 109.35 161.03 109.32 162.07 Z M 109.30 163.07 L 109.28 164.07 C 109.25 165.10 110.07 165.97 111.11 165.99 C 112.15 166.02 113.01 165.20 113.04 164.16 L 113.06 163.16 C 113.09 162.13 112.27 161.26 111.23 161.24 C 110.19 161.21 109.33 162.03 109.30 163.07 Z M 109.28 164.06 L 109.25 165.06 C 109.22 166.09 110.04 166.96 111.08 166.99 C 112.12 167.01 112.98 166.19 113.01 165.16 L 113.04 164.16 C 113.06 163.13 112.24 162.26 111.21 162.23 C 110.17 162.21 109.30 163.02 109.28 164.06 Z M 109.25 165.05 L 109.22 166.04 C 109.19 167.08 110.01 167.95 111.05 167.98 C 112.09 168.01 112.95 167.19 112.98 166.15 L 113.01 165.16 C 113.04 164.12 112.22 163.25 111.18 163.23 C 110.14 163.20 109.28 164.01 109.25 165.05 Z M 109.22 166.04 L 109.19 167.04 C 109.16 168.08 109.98 168.94 111.02 168.97 C 112.06 169.00 112.92 168.18 112.95 167.15 L 112.98 166.15 C 113.01 165.11 112.19 164.25 111.16 164.22 C 110.12 164.19 109.25 165.00 109.22 166.04 Z M 109.19 167.04 L 109.16 168.04 C 109.13 169.07 109.95 169.94 110.99 169.97 C 112.03 170.00 112.90 169.18 112.93 168.14 L 112.95 167.15 C 112.98 166.11 112.17 165.24 111.13 165.21 C 110.09 165.18 109.22 166.00 109.19 167.04 Z M 109.16 168.04 L 109.13 169.04 C 109.10 170.08 109.92 170.95 110.96 170.98 C 112.00 171.01 112.87 170.19 112.90 169.15 L 112.93 168.14 C 112.96 167.11 112.14 166.24 111.10 166.21 C 110.06 166.18 109.19 167.00 109.16 168.04 Z M 109.13 169.04 L 109.11 170.00 C 109.08 171.04 109.89 171.91 110.93 171.94 C 111.97 171.97 112.84 171.15 112.87 170.11 L 112.90 169.15 C 112.93 168.11 112.11 167.24 111.07 167.21 C 110.03 167.18 109.16 168.00 109.13 169.04 Z M 109.11 170.00 L 109.08 170.98 C 109.05 172.02 109.87 172.88 110.91 172.91 C 111.95 172.94 112.81 172.12 112.84 171.08 L 112.87 170.11 C 112.90 169.07 112.08 168.21 111.04 168.18 C 110.00 168.15 109.14 168.97 109.11 170.00 Z M 109.08 170.98 L 109.05 171.96 C 109.02 173.00 109.84 173.87 110.88 173.90 C 111.92 173.93 112.79 173.11 112.81 172.07 L 112.84 171.08 C 112.87 170.04 112.05 169.18 111.01 169.15 C 109.97 169.12 109.11 169.94 109.08 170.98 Z M 109.05 171.96 L 109.02 172.96 C 109.00 174.00 109.82 174.86 110.85 174.89 C 111.89 174.92 112.76 174.10 112.79 173.06 L 112.81 172.07 C 112.84 171.03 112.02 170.16 110.98 170.13 C 109.95 170.11 109.08 170.92 109.05 171.96 Z M 109.02 172.96 L 109.00 173.96 C 108.97 175.00 109.79 175.87 110.83 175.89 C 111.87 175.92 112.73 175.10 112.76 174.06 L 112.79 173.06 C 112.82 172.02 112.00 171.16 110.96 171.13 C 109.92 171.10 109.05 171.92 109.02 172.96 Z M 109.00 173.96 L 108.97 174.98 C 108.94 176.01 109.76 176.88 110.80 176.91 C 111.84 176.93 112.70 176.12 112.73 175.08 L 112.76 174.06 C 112.79 173.02 111.97 172.16 110.93 172.13 C 109.89 172.10 109.03 172.92 109.00 173.96 Z M 108.97 174.98 L 108.94 176.00 C 108.92 177.04 109.74 177.90 110.77 177.93 C 111.81 177.96 112.68 177.14 112.71 176.10 L 112.73 175.08 C 112.76 174.04 111.94 173.17 110.90 173.15 C 109.86 173.12 109.00 173.94 108.97 174.98 Z M 108.94 176.00 L 108.92 177.03 C 108.89 178.07 109.71 178.94 110.75 178.96 C 111.79 178.99 112.65 178.17 112.68 177.13 L 112.70 176.10 C 112.73 175.06 111.91 174.20 110.87 174.17 C 109.84 174.14 108.97 174.96 108.94 176.00 Z M 108.92 177.03 L 108.89 178.03 C 108.86 179.07 109.68 179.93 110.72 179.96 C 111.76 179.99 112.62 179.17 112.65 178.13 L 112.68 177.13 C 112.70 176.09 111.89 175.23 110.85 175.20 C 109.81 175.18 108.94 175.99 108.92 177.03 Z M 108.89 178.03 L 108.87 179.02 C 108.84 180.05 109.66 180.92 110.69 180.94 C 111.73 180.97 112.60 180.15 112.62 179.11 L 112.65 178.13 C 112.68 177.09 111.86 176.23 110.82 176.20 C 109.78 176.17 108.92 176.99 108.89 178.03 Z M 108.87 179.02 L 108.84 180.01 C 108.81 181.05 109.63 181.91 110.67 181.94 C 111.71 181.96 112.57 181.15 112.60 180.11 L 112.62 179.11 C 112.65 178.08 111.83 177.21 110.79 177.19 C 109.76 177.16 108.89 177.98 108.87 179.02 Z M 108.84 180.01 L 108.81 181.01 C 108.79 182.04 109.61 182.91 110.64 182.93 C 111.68 182.96 112.54 182.14 112.57 181.11 L 112.60 180.11 C 112.62 179.07 111.80 178.21 110.77 178.18 C 109.73 178.15 108.87 178.97 108.84 180.01 Z M 108.82 181.01 L 108.79 182.01 C 108.76 183.05 109.58 183.91 110.62 183.94 C 111.65 183.96 112.51 183.15 112.54 182.11 L 112.57 181.11 C 112.60 180.07 111.78 179.21 110.74 179.18 C 109.71 179.15 108.84 179.97 108.82 181.01 Z M 108.79 182.01 L 108.76 183.02 C 108.74 184.05 109.55 184.91 110.59 184.94 C 111.63 184.97 112.49 184.15 112.51 183.12 L 112.54 182.11 C 112.57 181.07 111.75 180.21 110.72 180.18 C 109.68 180.16 108.82 180.97 108.79 182.01 Z M 108.76 183.02 L 108.74 184.02 C 108.71 185.06 109.53 185.92 110.56 185.95 C 111.60 185.97 112.46 185.16 112.49 184.12 L 112.51 183.12 C 112.54 182.08 111.72 181.22 110.69 181.19 C 109.65 181.16 108.79 181.98 108.76 183.02 Z M 108.74 184.02 L 108.71 185.03 C 108.69 186.07 109.50 186.93 110.54 186.95 C 111.57 186.98 112.43 186.17 112.46 185.13 L 112.49 184.12 C 112.51 183.09 111.70 182.23 110.66 182.20 C 109.63 182.17 108.77 182.99 108.74 184.02 Z M 108.71 185.03 L 108.69 186.04 C 108.66 187.07 109.48 187.93 110.51 187.96 C 111.54 187.99 112.40 187.17 112.43 186.14 L 112.46 185.13 C 112.49 184.10 111.67 183.24 110.64 183.21 C 109.60 183.18 108.74 184.00 108.71 185.03 Z M 108.69 186.04 L 108.66 187.06 C 108.63 188.10 109.45 188.95 110.48 188.98 C 111.52 189.01 112.38 188.19 112.40 187.16 L 112.43 186.14 C 112.46 185.11 111.64 184.25 110.61 184.22 C 109.58 184.19 108.72 185.01 108.69 186.04 Z M 108.66 187.06 L 108.64 188.08 C 108.61 189.12 109.42 189.97 110.46 190.00 C 111.49 190.03 112.35 189.22 112.37 188.18 L 112.40 187.16 C 112.43 186.13 111.61 185.27 110.58 185.24 C 109.55 185.22 108.69 186.03 108.66 187.06 Z M 108.64 188.08 L 108.61 189.10 C 108.58 190.13 109.40 190.99 110.43 191.02 C 111.46 191.05 112.32 190.23 112.34 189.20 L 112.37 188.18 C 112.40 187.15 111.59 186.29 110.55 186.27 C 109.52 186.24 108.67 187.05 108.64 188.08 Z M 108.61 189.10 L 108.59 190.11 C 108.56 191.14 109.37 192.00 110.40 192.03 C 111.43 192.05 112.29 191.24 112.32 190.21 L 112.34 189.20 C 112.37 188.17 111.56 187.31 110.53 187.29 C 109.50 187.26 108.64 188.07 108.61 189.10 Z M 108.59 190.11 L 108.56 191.12 C 108.53 192.15 109.34 193.00 110.37 193.03 C 111.40 193.06 112.26 192.25 112.29 191.22 L 112.31 190.21 C 112.34 189.18 111.53 188.33 110.50 188.30 C 109.47 188.27 108.62 189.08 108.59 190.11 Z M 108.56 191.12 L 108.54 192.11 C 108.51 193.14 109.32 193.99 110.35 194.02 C 111.37 194.05 112.23 193.24 112.26 192.21 L 112.28 191.22 C 112.31 190.19 111.50 189.33 110.47 189.31 C 109.45 189.28 108.59 190.09 108.56 191.12 Z M 108.54 192.11 L 108.51 193.10 C 108.48 194.12 109.29 194.98 110.32 195.01 C 111.35 195.03 112.20 194.22 112.23 193.20 L 112.26 192.21 C 112.28 191.19 111.47 190.33 110.45 190.30 C 109.42 190.28 108.57 191.08 108.54 192.11 Z M 108.51 193.10 L 108.49 194.07 C 108.46 195.09 109.27 195.95 110.29 195.98 C 111.32 196.00 112.17 195.20 112.20 194.17 L 112.23 193.20 C 112.25 192.17 111.45 191.32 110.42 191.29 C 109.40 191.26 108.54 192.07 108.51 193.10 Z M 108.49 194.07 L 108.46 195.04 C 108.43 196.06 109.24 196.92 110.27 196.95 C 111.29 196.97 112.14 196.17 112.17 195.14 L 112.20 194.17 C 112.23 193.15 111.42 192.29 110.39 192.27 C 109.37 192.24 108.52 193.04 108.49 194.07 Z M 108.46 195.04 L 108.44 196.06 C 108.41 197.08 109.21 197.93 110.24 197.96 C 111.26 197.99 112.11 197.18 112.14 196.16 L 112.17 195.14 C 112.20 194.12 111.39 193.27 110.37 193.24 C 109.34 193.21 108.49 194.02 108.46 195.04 Z M 108.44 196.06 L 108.41 197.06 C 108.38 198.08 109.19 198.93 110.21 198.96 C 111.23 198.99 112.08 198.19 112.11 197.16 L 112.14 196.16 C 112.17 195.14 111.36 194.29 110.34 194.26 C 109.32 194.23 108.47 195.03 108.44 196.06 Z M 108.41 197.06 L 108.39 198.06 C 108.36 199.08 109.16 199.93 110.18 199.96 C 111.20 199.98 112.05 199.18 112.08 198.16 L 112.11 197.16 C 112.14 196.14 111.33 195.29 110.31 195.26 C 109.29 195.24 108.44 196.04 108.41 197.06 Z M 108.39 198.06 L 108.36 199.05 C 108.33 200.07 109.14 200.92 110.16 200.95 C 111.18 200.97 112.02 200.17 112.05 199.15 L 112.08 198.16 C 112.11 197.14 111.30 196.29 110.28 196.26 C 109.26 196.23 108.41 197.04 108.39 198.06 Z M 108.36 199.05 L 108.34 200.04 C 108.31 201.06 109.11 201.91 110.13 201.93 C 111.15 201.96 112.00 201.16 112.02 200.14 L 112.05 199.15 C 112.08 198.13 111.27 197.28 110.26 197.26 C 109.24 197.23 108.39 198.03 108.36 199.05 Z M 108.34 200.04 L 108.31 201.03 C 108.29 202.05 109.09 202.90 110.11 202.92 C 111.12 202.95 111.97 202.15 112.00 201.13 L 112.02 200.14 C 112.05 199.12 111.24 198.27 110.23 198.25 C 109.21 198.22 108.36 199.02 108.34 200.04 Z M 108.31 201.03 L 108.29 202.03 C 108.26 203.05 109.07 203.89 110.08 203.92 C 111.10 203.94 111.94 203.14 111.97 202.12 L 111.99 201.13 C 112.02 200.11 111.22 199.27 110.20 199.24 C 109.18 199.22 108.34 200.02 108.31 201.03 Z M 108.29 202.03 L 108.27 203.04 C 108.24 204.05 109.05 204.90 110.06 204.92 C 111.08 204.95 111.92 204.14 111.94 203.13 L 111.97 202.12 C 111.99 201.11 111.19 200.26 110.17 200.24 C 109.16 200.22 108.32 201.02 108.29 202.03 Z M 108.27 203.04 L 108.25 204.04 C 108.22 205.05 109.03 205.89 110.04 205.91 C 111.05 205.94 111.89 205.13 111.92 204.12 L 111.94 203.13 C 111.96 202.11 111.16 201.27 110.15 201.25 C 109.13 201.23 108.29 202.03 108.27 203.04 Z M 108.25 204.04 L 108.23 205.04 C 108.21 206.05 109.01 206.89 110.02 206.91 C 111.03 206.94 111.87 206.13 111.89 205.12 L 111.92 204.12 C 111.94 203.11 111.13 202.27 110.12 202.25 C 109.11 202.22 108.27 203.03 108.25 204.04 Z M 108.23 205.04 L 108.21 206.05 C 108.19 207.06 108.99 207.90 110.00 207.92 C 111.01 207.94 111.85 207.14 111.87 206.13 L 111.89 205.12 C 111.91 204.11 111.11 203.27 110.10 203.25 C 109.09 203.23 108.25 204.03 108.23 205.04 Z M 108.21 206.05 L 108.19 207.07 C 108.17 208.07 108.97 208.91 109.98 208.93 C 110.99 208.95 111.83 208.15 111.85 207.14 L 111.87 206.13 C 111.89 205.12 111.09 204.28 110.08 204.26 C 109.07 204.24 108.23 205.05 108.21 206.05 Z M 108.19 207.07 L 108.18 208.08 C 108.16 209.08 108.96 209.92 109.97 209.94 C 110.98 209.95 111.81 209.15 111.83 208.14 L 111.85 207.13 C 111.86 206.13 111.06 205.29 110.05 205.28 C 109.05 205.26 108.21 206.06 108.19 207.07 Z M 108.18 208.08 L 108.16 209.08 C 108.14 210.09 108.94 210.92 109.95 210.94 C 110.96 210.95 111.79 210.15 111.81 209.14 L 111.82 208.14 C 111.84 207.13 111.04 206.30 110.03 206.29 C 109.03 206.27 108.20 207.07 108.18 208.08 Z M 108.16 209.08 L 108.15 210.08 C 108.13 211.08 108.93 211.91 109.94 211.93 C 110.94 211.94 111.77 211.14 111.79 210.14 L 111.80 209.14 C 111.82 208.14 111.02 207.31 110.01 207.29 C 109.01 207.28 108.18 208.08 108.16 209.08 Z M 108.15 210.08 L 108.13 211.06 C 108.12 212.07 108.92 212.89 109.92 212.91 C 110.93 212.92 111.75 212.12 111.77 211.12 L 111.79 210.14 C 111.80 209.13 111.00 208.30 110.00 208.29 C 108.99 208.27 108.16 209.07 108.15 210.08 Z M 108.14 211.06 L 108.12 212.09 C 108.11 213.09 108.91 213.91 109.91 213.93 C 110.91 213.94 111.74 213.14 111.75 212.14 L 111.77 211.12 C 111.78 210.11 110.98 209.29 109.98 209.27 C 108.98 209.26 108.15 210.06 108.14 211.06 Z M 108.12 212.09 L 108.11 213.11 C 108.10 214.11 108.90 214.93 109.90 214.95 C 110.90 214.96 111.72 214.16 111.74 213.16 L 111.75 212.14 C 111.76 211.13 110.96 210.31 109.96 210.30 C 108.96 210.28 108.14 211.09 108.12 212.09 Z M 108.11 213.11 L 108.10 214.12 C 108.09 215.12 108.89 215.94 109.89 215.95 C 110.89 215.97 111.71 215.16 111.72 214.17 L 111.73 213.16 C 111.75 212.16 110.95 211.34 109.95 211.32 C 108.95 211.31 108.13 212.11 108.11 213.11 Z M 108.10 214.12 L 108.09 215.12 C 108.08 216.12 108.88 216.94 109.88 216.95 C 110.88 216.96 111.70 216.16 111.71 215.16 L 111.72 214.16 C 111.73 213.16 110.93 212.35 109.93 212.34 C 108.93 212.33 108.11 213.13 108.10 214.12 Z M 108.10 215.12 L 108.09 216.11 C 108.08 217.11 108.88 217.93 109.87 217.94 C 110.87 217.95 111.69 217.14 111.70 216.15 L 111.71 215.16 C 111.71 214.16 110.91 213.35 109.92 213.34 C 108.92 213.33 108.11 214.13 108.10 215.12 Z M 108.09 216.12 L 108.08 217.10 C 108.07 218.10 108.87 218.91 109.87 218.92 C 110.86 218.93 111.68 218.13 111.69 217.13 L 111.69 216.15 C 111.70 215.15 110.90 214.34 109.91 214.33 C 108.91 214.32 108.10 215.12 108.09 216.12 Z M 108.08 217.10 L 108.08 218.09 C 108.07 219.08 108.87 219.89 109.86 219.90 C 110.86 219.90 111.67 219.10 111.68 218.11 L 111.68 217.13 C 111.69 216.13 110.89 215.32 109.90 215.32 C 108.90 215.31 108.09 216.11 108.08 217.10 Z M 108.08 218.09 L 108.08 219.07 C 108.07 220.06 108.87 220.87 109.86 220.88 C 110.85 220.88 111.66 220.08 111.67 219.09 L 111.67 218.11 C 111.68 217.12 110.88 216.31 109.89 216.30 C 108.90 216.30 108.09 217.10 108.08 218.09 Z M 108.08 219.07 L 108.07 220.06 C 108.07 221.05 108.87 221.86 109.86 221.86 C 110.85 221.86 111.66 221.07 111.66 220.08 L 111.66 219.09 C 111.67 218.10 110.87 217.29 109.88 217.29 C 108.89 217.28 108.08 218.08 108.08 219.07 Z M 108.08 220.06 L 108.08 221.05 C 108.07 222.04 108.87 222.84 109.86 222.85 C 110.85 222.85 111.65 222.05 111.65 221.06 L 111.66 220.07 C 111.66 219.08 110.86 218.28 109.87 218.28 C 108.88 218.28 108.08 219.07 108.08 220.06 Z M 108.08 221.05 L 108.08 222.05 C 108.07 223.03 108.87 223.83 109.86 223.84 C 110.84 223.84 111.65 223.04 111.65 222.05 L 111.65 221.06 C 111.65 220.07 110.85 219.27 109.87 219.27 C 108.88 219.27 108.08 220.07 108.08 221.05 Z M 108.08 222.05 L 108.08 223.05 C 108.08 224.03 108.87 224.83 109.86 224.83 C 110.84 224.83 111.64 224.04 111.64 223.05 L 111.64 222.05 C 111.65 221.07 110.85 220.27 109.86 220.27 C 108.88 220.27 108.08 221.06 108.08 222.05 Z M 108.08 223.05 L 108.08 224.05 C 108.08 225.03 108.88 225.83 109.86 225.83 C 110.84 225.83 111.64 225.04 111.64 224.05 L 111.64 223.05 C 111.64 222.07 110.84 221.27 109.86 221.27 C 108.88 221.27 108.08 222.07 108.08 223.05 Z M 108.08 224.05 L 108.08 225.06 C 108.08 226.04 108.88 226.83 109.86 226.83 C 110.84 226.83 111.63 226.04 111.64 225.06 L 111.64 224.05 C 111.64 223.07 110.84 222.28 109.86 222.28 C 108.88 222.28 108.09 223.07 108.08 224.05 Z M 108.09 225.06 L 108.09 226.07 C 108.09 227.05 108.88 227.84 109.86 227.84 C 110.84 227.84 111.63 227.05 111.63 226.07 L 111.63 225.06 C 111.63 224.08 110.84 223.29 109.86 223.29 C 108.88 223.29 108.09 224.08 108.09 225.06 Z M 108.09 226.07 L 108.09 227.08 C 108.09 228.06 108.88 228.85 109.86 228.85 C 110.84 228.85 111.63 228.06 111.63 227.08 L 111.63 226.07 C 111.63 225.09 110.84 224.30 109.86 224.30 C 108.88 224.30 108.09 225.09 108.09 226.07 Z M 108.09 227.08 L 108.09 228.09 C 108.09 229.06 108.88 229.85 109.86 229.85 C 110.83 229.85 111.62 229.06 111.62 228.09 L 111.62 227.08 C 111.62 226.11 110.83 225.32 109.86 225.32 C 108.88 225.32 108.09 226.11 108.09 227.08 Z M 108.10 228.09 L 108.10 229.09 C 108.10 230.06 108.89 230.85 109.86 230.85 C 110.83 230.85 111.62 230.06 111.62 229.09 L 111.62 228.09 C 111.62 227.11 110.83 226.32 109.86 226.32 C 108.89 226.32 108.10 227.11 108.10 228.09 Z M 108.10 229.09 L 108.10 230.10 C 108.10 231.07 108.89 231.86 109.86 231.86 C 110.83 231.86 111.62 231.07 111.62 230.10 L 111.62 229.09 C 111.62 228.12 110.83 227.33 109.86 227.33 C 108.89 227.33 108.10 228.12 108.10 229.09 Z M 108.11 230.10 L 108.11 231.10 C 108.11 232.07 108.89 232.86 109.86 232.86 C 110.83 232.86 111.61 232.07 111.61 231.10 L 111.61 230.10 C 111.61 229.13 110.83 228.34 109.86 228.34 C 108.89 228.34 108.11 229.13 108.11 230.10 Z M 108.11 231.10 L 108.11 232.10 C 108.11 233.07 108.89 233.85 109.86 233.85 C 110.83 233.85 111.61 233.07 111.61 232.10 L 111.61 231.10 C 111.61 230.14 110.83 229.35 109.86 229.35 C 108.89 229.35 108.11 230.14 108.11 231.10 Z M 108.11 232.10 L 108.11 233.10 C 108.11 234.07 108.89 234.85 109.86 234.85 C 110.82 234.85 111.61 234.07 111.61 233.10 L 111.61 232.10 C 111.61 231.14 110.82 230.36 109.86 230.36 C 108.89 230.36 108.11 231.14 108.11 232.10 Z M 108.12 233.10 L 108.12 234.09 C 108.12 235.05 108.90 235.83 109.86 235.83 C 110.82 235.83 111.60 235.05 111.60 234.09 L 111.60 233.10 C 111.60 232.14 110.82 231.36 109.86 231.36 C 108.90 231.36 108.12 232.14 108.12 233.10 Z M 108.12 234.09 L 108.12 235.12 C 108.12 236.08 108.90 236.86 109.86 236.86 C 110.82 236.86 111.60 236.08 111.60 235.12 L 111.60 234.09 C 111.60 233.13 110.82 232.35 109.86 232.35 C 108.90 232.35 108.12 233.13 108.12 234.09 Z M 108.12 235.12 L 108.12 236.19 C 108.12 237.15 108.90 237.93 109.86 237.93 C 110.82 237.93 111.60 237.15 111.60 236.19 L 111.60 235.12 C 111.60 234.16 110.82 233.38 109.86 233.38 C 108.90 233.38 108.12 234.16 108.12 235.12 Z M 108.12 236.19 L 108.12 237.24 C 108.12 238.20 108.90 238.97 109.86 238.97 C 110.82 238.97 111.60 238.20 111.60 237.24 L 111.60 236.19 C 111.60 235.23 110.82 234.45 109.86 234.45 C 108.90 234.45 108.12 235.23 108.12 236.19 Z M 108.13 237.24 L 108.13 238.26 C 108.13 239.22 108.90 240.00 109.86 240.00 C 110.82 240.00 111.59 239.22 111.59 238.26 L 111.59 237.24 C 111.59 236.28 110.82 235.50 109.86 235.50 C 108.90 235.50 108.13 236.28 108.13 237.24 Z M 108.13 238.26 L 108.13 239.26 C 108.13 240.22 108.90 240.99 109.86 240.99 C 110.82 240.99 111.59 240.22 111.59 239.26 L 111.59 238.26 C 111.59 237.31 110.82 236.53 109.86 236.53 C 108.90 236.53 108.13 237.31 108.13 238.26 Z M 108.13 239.26 L 108.13 240.23 C 108.13 241.18 108.90 241.96 109.86 241.96 C 110.82 241.96 111.59 241.18 111.59 240.23 L 111.59 239.26 C 111.59 238.31 110.82 237.53 109.86 237.53 C 108.90 237.53 108.13 238.31 108.13 239.26 Z M 108.13 240.23 L 108.13 241.15 C 108.13 242.11 108.90 242.88 109.86 242.88 C 110.81 242.88 111.59 242.11 111.59 241.15 L 111.59 240.23 C 111.59 239.27 110.81 238.50 109.86 238.50 C 108.90 238.50 108.13 239.27 108.13 240.23 Z M 108.13 241.15 L 108.13 242.12 C 108.13 243.08 108.91 243.85 109.86 243.85 C 110.81 243.85 111.59 243.08 111.59 242.12 L 111.59 241.15 C 111.59 240.20 110.81 239.42 109.86 239.42 C 108.91 239.42 108.13 240.20 108.13 241.15 Z M 108.13 242.12 L 108.13 243.19 C 108.13 244.14 108.91 244.92 109.86 244.92 C 110.81 244.92 111.59 244.14 111.59 243.19 L 111.59 242.12 C 111.59 241.17 110.81 240.40 109.86 240.40 C 108.91 240.40 108.13 241.17 108.13 242.12 Z M 108.14 243.19 L 108.13 244.20 C 108.13 245.15 108.91 245.93 109.86 245.93 C 110.81 245.93 111.58 245.16 111.58 244.20 L 111.58 243.19 C 111.58 242.24 110.81 241.47 109.86 241.47 C 108.91 241.46 108.14 242.24 108.14 243.19 Z M 108.14 244.20 L 108.13 245.18 C 108.13 246.13 108.90 246.90 109.85 246.90 C 110.80 246.90 111.58 246.13 111.58 245.18 L 111.58 244.21 C 111.58 243.26 110.81 242.48 109.86 242.48 C 108.91 242.48 108.14 243.25 108.14 244.20 Z M 108.14 245.17 L 108.13 246.13 C 108.13 247.08 108.90 247.85 109.85 247.86 C 110.80 247.86 111.57 247.09 111.57 246.14 L 111.58 245.19 C 111.58 244.24 110.81 243.46 109.86 243.46 C 108.91 243.46 108.14 244.22 108.14 245.17 Z M 108.14 246.13 L 108.13 247.08 C 108.13 248.03 108.89 248.80 109.84 248.81 C 110.79 248.81 111.56 248.05 111.57 247.10 L 111.57 246.15 C 111.58 245.20 110.81 244.42 109.86 244.42 C 108.91 244.41 108.14 245.18 108.14 246.13 Z M 108.13 247.08 L 108.12 248.05 C 108.12 249.00 108.88 249.77 109.83 249.78 C 110.78 249.79 111.55 249.03 111.56 248.08 L 111.56 247.10 C 111.57 246.16 110.81 245.38 109.86 245.37 C 108.91 245.37 108.14 246.13 108.13 247.08 Z M 108.13 248.05 L 108.12 249.04 C 108.11 249.99 108.86 250.76 109.81 250.77 C 110.76 250.78 111.53 250.02 111.54 249.08 L 111.56 248.08 C 111.57 247.14 110.81 246.36 109.86 246.35 C 108.91 246.34 108.14 247.10 108.13 248.05 Z M 108.12 249.03 L 108.10 250.03 C 108.09 250.98 108.84 251.76 109.79 251.77 C 110.73 251.78 111.51 251.03 111.53 250.08 L 111.54 249.08 C 111.56 248.14 110.80 247.36 109.86 247.34 C 108.91 247.33 108.13 248.09 108.12 249.03 Z M 108.10 250.02 L 108.08 251.03 C 108.06 251.97 108.81 252.76 109.76 252.78 C 110.70 252.79 111.49 252.04 111.50 251.10 L 111.53 250.09 C 111.54 249.15 110.79 248.37 109.85 248.35 C 108.90 248.33 108.12 249.08 108.10 250.02 Z M 108.09 251.02 L 108.06 252.03 C 108.03 252.97 108.78 253.76 109.72 253.78 C 110.67 253.81 111.45 253.06 111.48 252.12 L 111.50 251.11 C 111.53 250.17 110.78 249.38 109.84 249.36 C 108.90 249.33 108.11 250.08 108.09 251.02 Z M 108.06 252.02 L 108.03 253.03 C 107.99 253.98 108.73 254.77 109.68 254.80 C 110.62 254.83 111.41 254.09 111.44 253.15 L 111.47 252.13 C 111.51 251.19 110.77 250.40 109.83 250.37 C 108.88 250.34 108.09 251.07 108.06 252.02 Z M 108.03 253.02 L 107.99 254.05 C 107.95 254.99 108.68 255.79 109.62 255.82 C 110.56 255.86 111.36 255.13 111.39 254.19 L 111.44 253.16 C 111.48 252.22 110.74 251.43 109.80 251.39 C 108.86 251.35 108.07 252.08 108.03 253.02 Z M 107.99 254.04 L 107.94 255.06 C 107.89 256.00 108.62 256.80 109.56 256.84 C 110.50 256.89 111.30 256.16 111.34 255.22 L 111.39 254.20 C 111.44 253.26 110.71 252.46 109.77 252.42 C 108.83 252.37 108.03 253.10 107.99 254.04 Z M 107.94 255.05 L 107.89 256.05 C 107.84 256.99 108.56 257.79 109.50 257.84 C 110.44 257.89 111.24 257.17 111.29 256.23 L 111.34 255.23 C 111.39 254.29 110.67 253.49 109.73 253.44 C 108.79 253.39 107.99 254.11 107.94 255.05 Z M 107.89 256.04 L 107.83 257.02 C 107.78 257.96 108.50 258.76 109.43 258.82 C 110.37 258.87 111.18 258.16 111.23 257.22 L 111.29 256.24 C 111.34 255.30 110.62 254.50 109.69 254.44 C 108.75 254.39 107.94 255.10 107.89 256.04 Z M 107.84 257.02 L 107.78 257.97 C 107.72 258.91 108.43 259.71 109.37 259.77 C 110.31 259.83 111.11 259.12 111.17 258.18 L 111.23 257.22 C 111.28 256.29 110.57 255.48 109.64 255.42 C 108.70 255.37 107.89 256.08 107.84 257.02 Z M 107.78 257.97 L 107.71 259.06 C 107.65 260.00 108.36 260.80 109.30 260.86 C 110.23 260.92 111.04 260.21 111.10 259.28 L 111.17 258.18 C 111.23 257.25 110.52 256.44 109.58 256.38 C 108.65 256.32 107.84 257.03 107.78 257.97 Z M 107.72 259.06 L 107.65 260.10 C 107.58 261.03 108.29 261.84 109.22 261.90 C 110.16 261.96 110.96 261.26 111.02 260.32 L 111.09 259.28 C 111.16 258.35 110.45 257.54 109.52 257.48 C 108.58 257.42 107.78 258.12 107.72 259.06 Z M 107.65 260.09 L 107.58 261.08 C 107.52 262.01 108.22 262.82 109.15 262.88 C 110.08 262.95 110.89 262.25 110.95 261.31 L 111.02 260.33 C 111.09 259.40 110.38 258.59 109.45 258.53 C 108.52 258.46 107.71 259.16 107.65 260.09 Z M 107.58 261.07 L 107.52 262.00 C 107.45 262.92 108.14 263.73 109.07 263.80 C 110.00 263.87 110.81 263.17 110.88 262.24 L 110.95 261.32 C 111.02 260.39 110.32 259.58 109.39 259.52 C 108.46 259.45 107.65 260.14 107.58 261.07 Z M 107.52 261.99 L 107.44 263.00 C 107.37 263.93 108.06 264.74 108.98 264.81 C 109.91 264.88 110.72 264.19 110.79 263.27 L 110.87 262.25 C 110.95 261.33 110.26 260.52 109.33 260.44 C 108.40 260.37 107.59 261.06 107.52 261.99 Z M 107.45 262.99 L 107.36 264.04 C 107.28 264.96 107.96 265.77 108.89 265.85 C 109.81 265.93 110.62 265.24 110.70 264.32 L 110.79 263.27 C 110.87 262.35 110.18 261.54 109.26 261.46 C 108.34 261.38 107.52 262.07 107.45 262.99 Z M 107.36 264.03 L 107.28 264.99 C 107.20 265.91 107.88 266.72 108.80 266.80 C 109.72 266.88 110.53 266.20 110.61 265.28 L 110.69 264.32 C 110.77 263.40 110.09 262.59 109.17 262.51 C 108.25 262.43 107.44 263.11 107.36 264.03 Z M 107.29 265.00 L 107.21 265.93 C 107.14 266.85 107.82 267.65 108.74 267.72 C 109.65 267.80 110.46 267.12 110.53 266.20 L 110.61 265.27 C 110.68 264.35 110.00 263.55 109.08 263.47 C 108.16 263.40 107.36 264.08 107.29 265.00 Z M 107.21 265.96 L 107.15 266.97 C 107.09 267.89 107.78 268.68 108.70 268.74 C 109.61 268.80 110.40 268.10 110.46 267.19 L 110.53 266.17 C 110.59 265.26 109.89 264.47 108.98 264.41 C 108.06 264.35 107.27 265.04 107.21 265.96 Z M 107.15 267.03 L 107.12 268.02 C 107.10 268.93 107.82 269.69 108.73 269.72 C 109.65 269.74 110.41 269.02 110.43 268.11 L 110.46 267.13 C 110.48 266.21 109.76 265.45 108.85 265.43 C 107.94 265.40 107.18 266.12 107.15 267.03 Z M 107.14 268.11 L 107.17 269.09 C 107.20 269.99 107.95 270.70 108.85 270.68 C 109.75 270.65 110.47 269.90 110.44 269.00 L 110.41 268.02 C 110.39 267.11 109.64 266.40 108.73 266.43 C 107.83 266.45 107.12 267.20 107.14 268.11 Z M 107.22 269.17 L 107.30 270.17 C 107.37 271.04 108.14 271.69 109.01 271.62 C 109.89 271.55 110.54 270.79 110.47 269.91 L 110.39 268.92 C 110.32 268.04 109.55 267.39 108.68 267.46 C 107.80 267.53 107.15 268.29 107.22 269.17 Z M 107.36 270.20 L 107.47 271.20 C 107.56 272.04 108.32 272.65 109.16 272.56 C 110.00 272.47 110.61 271.71 110.52 270.87 L 110.41 269.87 C 110.32 269.03 109.56 268.42 108.72 268.52 C 107.88 268.61 107.27 269.36 107.36 270.20 Z M 107.51 271.21 L 107.53 271.40 C 107.62 272.22 108.37 272.81 109.19 272.71 C 110.01 272.62 110.60 271.88 110.50 271.05 L 110.48 270.87 C 110.39 270.04 109.64 269.45 108.82 269.55 C 108.00 269.64 107.41 270.39 107.51 271.21 Z"
      fill="black"
      fill-rule="nonzero" /><path d="M 113.37 87.71 L 112.60 87.03 C 111.99 86.50 111.07 86.56 110.54 87.17 C 110.01 87.78 110.07 88.70 110.68 89.23 L 111.44 89.90 C 112.05 90.43 112.97 90.37 113.50 89.77 C 114.03 89.16 113.97 88.24 113.37 87.71 Z M 112.62 87.05 L 111.89 86.38 C 111.29 85.83 110.36 85.88 109.82 86.48 C 109.27 87.08 109.32 88.00 109.92 88.55 L 110.65 89.22 C 111.25 89.76 112.18 89.72 112.72 89.12 C 113.27 88.52 113.22 87.59 112.62 87.05 Z M 111.94 86.42 L 111.21 85.69 C 110.63 85.12 109.70 85.12 109.13 85.70 C 108.55 86.27 108.56 87.21 109.13 87.78 L 109.86 88.51 C 110.44 89.08 111.37 89.08 111.95 88.50 C 112.52 87.93 112.52 86.99 111.94 86.42 Z M 111.32 85.81 L 110.70 85.04 C 110.19 84.40 109.26 84.30 108.62 84.81 C 107.98 85.33 107.88 86.26 108.40 86.89 L 109.02 87.67 C 109.53 88.30 110.46 88.40 111.10 87.89 C 111.74 87.38 111.84 86.44 111.32 85.81 Z M 110.90 85.34 L 110.48 84.43 C 110.14 83.69 109.25 83.36 108.51 83.71 C 107.76 84.05 107.43 84.94 107.78 85.68 L 108.20 86.59 C 108.54 87.34 109.43 87.66 110.18 87.32 C 110.92 86.97 111.25 86.09 110.90 85.34 Z M 110.61 85.30 L 110.76 84.39 C 110.89 83.58 110.34 82.81 109.52 82.67 C 108.71 82.54 107.94 83.09 107.81 83.91 L 107.66 84.81 C 107.52 85.63 108.07 86.40 108.89 86.53 C 109.70 86.67 110.47 86.12 110.61 85.30 Z M 110.15 85.38 L 110.83 84.89 C 111.51 84.41 111.67 83.48 111.20 82.80 C 110.72 82.12 109.78 81.96 109.10 82.44 L 108.41 82.92 C 107.74 83.40 107.57 84.34 108.05 85.02 C 108.53 85.69 109.47 85.86 110.15 85.38 Z M 110.42 85.10 L 111.46 84.78 C 112.25 84.53 112.69 83.68 112.44 82.88 C 112.19 82.09 111.34 81.65 110.55 81.90 L 109.51 82.23 C 108.72 82.48 108.28 83.33 108.53 84.12 C 108.78 84.92 109.63 85.36 110.42 85.10 Z M 111.29 84.83 L 112.36 84.62 C 113.18 84.47 113.72 83.67 113.56 82.85 C 113.40 82.02 112.61 81.48 111.79 81.64 L 110.72 81.85 C 109.89 82.00 109.35 82.80 109.51 83.62 C 109.67 84.45 110.46 84.99 111.29 84.83 Z M 112.28 84.64 L 113.30 84.50 C 114.13 84.39 114.72 83.62 114.60 82.79 C 114.49 81.95 113.72 81.37 112.89 81.48 L 111.86 81.62 C 111.03 81.74 110.45 82.50 110.56 83.34 C 110.67 84.17 111.44 84.76 112.28 84.64 Z M 113.26 84.52 L 114.21 84.41 C 115.05 84.32 115.66 83.56 115.56 82.72 C 115.47 81.88 114.72 81.28 113.88 81.37 L 112.93 81.47 C 112.09 81.56 111.48 82.32 111.57 83.16 C 111.66 84.00 112.42 84.61 113.26 84.52 Z M 114.19 84.42 L 115.24 84.32 C 116.09 84.24 116.71 83.49 116.63 82.64 C 116.55 81.80 115.80 81.18 114.95 81.26 L 113.90 81.36 C 113.05 81.44 112.43 82.19 112.51 83.04 C 112.59 83.88 113.34 84.50 114.19 84.42 Z M 115.19 84.33 L 116.10 84.27 C 116.95 84.22 117.60 83.50 117.55 82.65 C 117.50 81.80 116.77 81.15 115.92 81.20 L 115.01 81.25 C 114.16 81.30 113.51 82.03 113.56 82.88 C 113.61 83.73 114.34 84.38 115.19 84.33 Z M 116.03 84.28 L 117.03 84.27 C 117.88 84.26 118.57 83.56 118.56 82.70 C 118.54 81.85 117.84 81.17 116.99 81.18 L 115.99 81.19 C 115.14 81.20 114.46 81.90 114.47 82.76 C 114.48 83.61 115.18 84.29 116.03 84.28 Z M 117.01 84.27 L 118.01 84.27 C 118.86 84.27 119.56 83.58 119.56 82.72 C 119.56 81.87 118.86 81.17 118.01 81.17 L 117.01 81.17 C 116.16 81.17 115.46 81.87 115.46 82.72 C 115.46 83.58 116.16 84.27 117.01 84.27 Z M 118.01 84.27 L 119.02 84.27 C 119.87 84.27 120.57 83.58 120.57 82.72 C 120.57 81.87 119.87 81.17 119.02 81.17 L 118.01 81.17 C 117.15 81.17 116.46 81.87 116.46 82.72 C 116.46 83.58 117.15 84.27 118.01 84.27 Z M 119.02 84.28 L 120.01 84.28 C 120.87 84.28 121.57 83.58 121.57 82.72 C 121.57 81.86 120.87 81.17 120.01 81.17 L 119.02 81.17 C 118.16 81.17 117.46 81.86 117.46 82.72 C 117.46 83.58 118.16 84.28 119.02 84.28 Z M 120.01 84.28 L 121.00 84.28 C 121.86 84.28 122.56 83.58 122.56 82.72 C 122.56 81.86 121.86 81.17 121.00 81.17 L 120.01 81.17 C 119.15 81.17 118.46 81.86 118.46 82.72 C 118.46 83.58 119.15 84.28 120.01 84.28 Z M 121.00 84.28 L 122.00 84.28 C 122.86 84.28 123.56 83.58 123.56 82.72 C 123.56 81.86 122.86 81.16 122.00 81.16 L 121.00 81.16 C 120.14 81.16 119.44 81.86 119.44 82.72 C 119.44 83.58 120.14 84.28 121.00 84.28 Z M 122.00 84.28 L 123.01 84.28 C 123.87 84.28 124.57 83.58 124.57 82.72 C 124.57 81.86 123.87 81.16 123.01 81.16 L 122.00 81.16 C 121.14 81.16 120.44 81.86 120.44 82.72 C 120.44 83.58 121.14 84.28 122.00 84.28 Z M 123.00 84.28 L 124.00 84.29 C 124.87 84.29 125.57 83.60 125.58 82.74 C 125.58 81.88 124.89 81.17 124.02 81.17 L 123.02 81.16 C 122.15 81.16 121.45 81.85 121.45 82.71 C 121.44 83.57 122.13 84.28 123.00 84.28 Z M 123.98 84.29 L 124.98 84.31 C 125.85 84.33 126.56 83.65 126.58 82.79 C 126.60 81.93 125.92 81.21 125.06 81.19 L 124.05 81.17 C 123.19 81.15 122.47 81.83 122.45 82.69 C 122.43 83.56 123.12 84.27 123.98 84.29 Z M 124.94 84.31 L 125.93 84.37 C 126.79 84.41 127.53 83.75 127.57 82.89 C 127.62 82.03 126.96 81.29 126.10 81.25 L 125.10 81.19 C 124.24 81.15 123.51 81.81 123.46 82.67 C 123.41 83.53 124.07 84.26 124.94 84.31 Z M 125.86 84.36 L 126.84 84.46 C 127.70 84.54 128.46 83.91 128.55 83.05 C 128.63 82.20 128.00 81.43 127.15 81.35 L 126.17 81.25 C 125.31 81.17 124.54 81.79 124.46 82.65 C 124.37 83.51 125.00 84.28 125.86 84.36 Z M 126.77 84.45 L 127.77 84.59 C 128.62 84.71 129.41 84.11 129.53 83.26 C 129.65 82.41 129.06 81.62 128.20 81.49 L 127.21 81.35 C 126.36 81.23 125.57 81.83 125.45 82.68 C 125.33 83.54 125.92 84.33 126.77 84.45 Z M 127.71 84.58 L 128.70 84.75 C 129.55 84.90 130.36 84.33 130.51 83.48 C 130.66 82.63 130.09 81.83 129.24 81.68 L 128.25 81.50 C 127.40 81.35 126.59 81.92 126.45 82.77 C 126.30 83.62 126.86 84.43 127.71 84.58 Z M 128.66 84.75 L 129.64 84.94 C 130.49 85.11 131.31 84.56 131.48 83.72 C 131.65 82.87 131.10 82.05 130.25 81.88 L 129.28 81.68 C 128.43 81.51 127.61 82.06 127.44 82.91 C 127.27 83.75 127.82 84.58 128.66 84.75 Z M 129.62 84.94 L 130.61 85.15 C 131.45 85.33 132.28 84.80 132.46 83.96 C 132.65 83.11 132.11 82.28 131.27 82.10 L 130.28 81.88 C 129.43 81.70 128.60 82.24 128.42 83.08 C 128.24 83.92 128.77 84.75 129.62 84.94 Z M 130.60 85.15 L 131.55 85.36 C 132.40 85.55 133.23 85.02 133.42 84.18 C 133.60 83.33 133.07 82.50 132.23 82.31 L 131.27 82.10 C 130.43 81.91 129.60 82.44 129.41 83.29 C 129.22 84.13 129.76 84.96 130.60 85.15 Z M 131.57 85.36 L 132.56 85.58 C 133.41 85.75 134.23 85.22 134.41 84.37 C 134.59 83.53 134.05 82.70 133.21 82.52 L 132.22 82.31 C 131.37 82.13 130.54 82.67 130.36 83.51 C 130.19 84.36 130.72 85.19 131.57 85.36 Z M 132.59 85.58 L 133.55 85.77 C 134.40 85.93 135.21 85.37 135.38 84.52 C 135.54 83.68 134.98 82.86 134.14 82.70 L 133.18 82.51 C 132.33 82.35 131.51 82.91 131.35 83.75 C 131.19 84.60 131.75 85.42 132.59 85.58 Z M 133.58 85.77 L 134.55 85.94 C 135.40 86.09 136.21 85.51 136.36 84.66 C 136.50 83.81 135.93 83.00 135.08 82.86 L 134.11 82.69 C 133.26 82.54 132.45 83.12 132.30 83.97 C 132.15 84.82 132.73 85.63 133.58 85.77 Z M 134.57 85.94 L 135.60 86.11 C 136.46 86.24 137.26 85.66 137.40 84.81 C 137.53 83.95 136.95 83.15 136.09 83.02 L 135.06 82.85 C 134.21 82.72 133.41 83.30 133.27 84.15 C 133.13 85.01 133.72 85.81 134.57 85.94 Z M 135.62 86.11 L 136.59 86.26 C 137.45 86.39 138.25 85.80 138.37 84.94 C 138.50 84.09 137.91 83.29 137.06 83.16 L 136.08 83.01 C 135.23 82.88 134.43 83.47 134.30 84.33 C 134.17 85.19 134.76 85.98 135.62 86.11 Z M 136.60 86.26 L 137.60 86.41 C 138.46 86.53 139.25 85.94 139.38 85.08 C 139.50 84.22 138.91 83.43 138.05 83.30 L 137.05 83.16 C 136.19 83.03 135.40 83.63 135.27 84.48 C 135.15 85.34 135.74 86.14 136.60 86.26 Z M 137.60 86.41 L 138.60 86.55 C 139.46 86.67 140.26 86.07 140.38 85.21 C 140.50 84.35 139.90 83.56 139.04 83.44 L 138.04 83.30 C 137.18 83.18 136.39 83.78 136.27 84.64 C 136.15 85.50 136.75 86.29 137.60 86.41 Z M 138.61 86.55 L 139.61 86.69 C 140.47 86.81 141.27 86.20 141.38 85.34 C 141.50 84.48 140.90 83.69 140.04 83.57 L 139.03 83.44 C 138.17 83.32 137.38 83.92 137.26 84.78 C 137.15 85.64 137.75 86.44 138.61 86.55 Z M 139.62 86.69 L 140.61 86.82 C 141.47 86.93 142.26 86.32 142.37 85.46 C 142.48 84.60 141.88 83.81 141.02 83.70 L 140.03 83.57 C 139.17 83.46 138.38 84.07 138.27 84.93 C 138.15 85.79 138.76 86.58 139.62 86.69 Z M 140.62 86.82 L 141.61 86.94 C 142.47 87.05 143.25 86.43 143.36 85.57 C 143.46 84.71 142.85 83.93 141.99 83.82 L 141.00 83.70 C 140.14 83.60 139.36 84.21 139.25 85.07 C 139.15 85.93 139.76 86.71 140.62 86.82 Z M 141.62 86.94 L 142.60 87.05 C 143.46 87.15 144.24 86.53 144.34 85.67 C 144.44 84.81 143.82 84.03 142.96 83.93 L 141.97 83.82 C 141.11 83.72 140.34 84.34 140.24 85.20 C 140.14 86.07 140.76 86.84 141.62 86.94 Z M 142.62 87.05 L 143.61 87.16 C 144.47 87.24 145.25 86.62 145.33 85.75 C 145.42 84.89 144.79 84.12 143.93 84.03 L 142.94 83.93 C 142.08 83.84 141.30 84.47 141.22 85.33 C 141.13 86.20 141.76 86.97 142.62 87.05 Z M 143.63 87.16 L 144.64 87.25 C 145.50 87.32 146.27 86.68 146.34 85.82 C 146.42 84.96 145.78 84.19 144.91 84.12 L 143.91 84.03 C 143.05 83.95 142.28 84.59 142.21 85.46 C 142.13 86.32 142.77 87.08 143.63 87.16 Z M 144.67 87.25 L 145.66 87.32 C 146.53 87.38 147.28 86.73 147.34 85.86 C 147.40 85.00 146.75 84.25 145.89 84.19 L 144.89 84.12 C 144.02 84.06 143.27 84.71 143.21 85.57 C 143.15 86.44 143.80 87.19 144.67 87.25 Z M 145.69 87.32 L 146.69 87.37 C 147.55 87.42 148.29 86.76 148.34 85.90 C 148.39 85.03 147.73 84.29 146.86 84.24 L 145.86 84.19 C 145.00 84.14 144.26 84.80 144.21 85.67 C 144.16 86.53 144.82 87.27 145.69 87.32 Z M 146.70 87.37 L 147.71 87.42 C 148.57 87.45 149.30 86.79 149.34 85.92 C 149.38 85.06 148.71 84.33 147.84 84.29 L 146.84 84.25 C 145.98 84.21 145.25 84.88 145.21 85.74 C 145.17 86.60 145.84 87.33 146.70 87.37 Z M 147.72 87.41 L 148.72 87.45 C 149.58 87.48 150.30 86.81 150.33 85.95 C 150.37 85.08 149.69 84.36 148.83 84.33 L 147.83 84.29 C 146.97 84.26 146.25 84.93 146.21 85.80 C 146.18 86.66 146.86 87.38 147.72 87.41 Z M 148.73 87.45 L 149.72 87.48 C 150.59 87.50 151.30 86.83 151.33 85.97 C 151.36 85.10 150.68 84.39 149.82 84.36 L 148.82 84.33 C 147.96 84.31 147.24 84.98 147.22 85.84 C 147.19 86.70 147.87 87.42 148.73 87.45 Z M 149.74 87.48 L 150.74 87.50 C 151.60 87.52 152.31 86.84 152.33 85.98 C 152.35 85.12 151.67 84.40 150.81 84.38 L 149.81 84.36 C 148.95 84.34 148.23 85.02 148.21 85.88 C 148.20 86.74 148.88 87.46 149.74 87.48 Z M 150.75 87.50 L 151.74 87.51 C 152.60 87.52 153.31 86.84 153.32 85.98 C 153.33 85.12 152.64 84.41 151.79 84.40 L 150.79 84.39 C 149.93 84.37 149.23 85.06 149.22 85.92 C 149.20 86.78 149.89 87.48 150.75 87.50 Z M 151.75 87.51 L 152.73 87.52 C 153.59 87.52 154.29 86.83 154.30 85.97 C 154.30 85.12 153.61 84.42 152.75 84.41 L 151.77 84.40 C 150.92 84.40 150.22 85.09 150.21 85.94 C 150.20 86.80 150.89 87.50 151.75 87.51 Z M 152.74 87.51 L 153.74 87.52 C 154.60 87.52 155.29 86.82 155.30 85.97 C 155.30 85.11 154.61 84.42 153.75 84.41 L 152.75 84.41 C 151.89 84.41 151.20 85.10 151.19 85.96 C 151.19 86.81 151.88 87.51 152.74 87.51 Z M 153.75 87.51 L 154.77 87.51 C 155.63 87.51 156.32 86.82 156.32 85.97 C 156.32 85.11 155.63 84.42 154.77 84.42 L 153.75 84.42 C 152.89 84.42 152.20 85.11 152.20 85.96 C 152.20 86.82 152.89 87.51 153.75 87.51 Z M 154.77 87.51 L 155.78 87.51 C 156.63 87.51 157.32 86.82 157.32 85.97 C 157.32 85.11 156.63 84.42 155.78 84.42 L 154.77 84.42 C 153.92 84.42 153.23 85.11 153.23 85.97 C 153.23 86.82 153.92 87.51 154.77 87.51 Z M 155.78 87.51 L 156.79 87.51 C 157.64 87.51 158.33 86.82 158.33 85.97 C 158.33 85.11 157.64 84.42 156.79 84.42 L 155.78 84.42 C 154.92 84.42 154.23 85.11 154.23 85.97 C 154.23 86.82 154.92 87.51 155.78 87.51 Z M 156.79 87.51 L 157.79 87.51 C 158.64 87.51 159.33 86.82 159.33 85.97 C 159.33 85.11 158.64 84.43 157.79 84.43 L 156.79 84.43 C 155.94 84.43 155.25 85.11 155.25 85.97 C 155.25 86.82 155.94 87.51 156.79 87.51 Z M 157.79 87.50 L 158.80 87.50 C 159.65 87.50 160.34 86.81 160.34 85.97 C 160.34 85.12 159.65 84.43 158.80 84.43 L 157.79 84.43 C 156.94 84.43 156.25 85.12 156.25 85.97 C 156.25 86.81 156.94 87.50 157.79 87.50 Z M 158.80 87.50 L 159.81 87.50 C 160.66 87.50 161.34 86.81 161.34 85.97 C 161.34 85.12 160.66 84.43 159.81 84.43 L 158.80 84.43 C 157.95 84.43 157.26 85.12 157.26 85.97 C 157.26 86.81 157.95 87.50 158.80 87.50 Z M 159.81 87.50 L 160.79 87.50 C 161.64 87.50 162.32 86.81 162.32 85.97 C 162.32 85.12 161.64 84.43 160.79 84.43 L 159.81 84.43 C 158.96 84.43 158.27 85.12 158.27 85.97 C 158.27 86.81 158.96 87.50 159.81 87.50 Z M 160.79 87.50 L 161.77 87.50 C 162.62 87.50 163.30 86.81 163.30 85.97 C 163.30 85.12 162.62 84.43 161.77 84.43 L 160.79 84.43 C 159.94 84.43 159.26 85.12 159.26 85.97 C 159.26 86.81 159.94 87.50 160.79 87.50 Z M 161.77 87.50 L 162.77 87.49 C 163.62 87.49 164.30 86.81 164.30 85.96 C 164.30 85.12 163.61 84.43 162.77 84.43 L 161.77 84.43 C 160.93 84.44 160.24 85.12 160.24 85.97 C 160.24 86.81 160.93 87.50 161.77 87.50 Z M 162.78 87.49 L 163.78 87.49 C 164.62 87.48 165.31 86.80 165.30 85.95 C 165.30 85.11 164.61 84.43 163.76 84.43 L 162.76 84.43 C 161.92 84.44 161.24 85.13 161.24 85.97 C 161.24 86.82 161.93 87.50 162.78 87.49 Z M 163.79 87.49 L 164.80 87.48 C 165.64 87.47 166.32 86.77 166.31 85.93 C 166.30 85.09 165.61 84.41 164.76 84.42 L 163.75 84.43 C 162.91 84.44 162.23 85.13 162.24 85.98 C 162.25 86.82 162.95 87.50 163.79 87.49 Z M 164.81 87.48 L 165.82 87.46 C 166.67 87.44 167.34 86.74 167.32 85.90 C 167.30 85.05 166.61 84.38 165.76 84.40 L 164.75 84.42 C 163.91 84.44 163.23 85.13 163.25 85.98 C 163.27 86.82 163.97 87.49 164.81 87.48 Z M 165.84 87.45 L 166.84 87.43 C 167.68 87.40 168.34 86.70 168.32 85.86 C 168.30 85.01 167.59 84.35 166.75 84.37 L 165.75 84.40 C 164.91 84.42 164.24 85.13 164.27 85.97 C 164.29 86.81 164.99 87.48 165.84 87.45 Z M 166.85 87.43 L 167.83 87.39 C 168.68 87.36 169.34 86.65 169.31 85.81 C 169.28 84.97 168.57 84.31 167.73 84.34 L 166.74 84.37 C 165.89 84.40 165.24 85.11 165.27 85.95 C 165.30 86.80 166.00 87.46 166.85 87.43 Z M 167.85 87.39 L 168.87 87.34 C 169.71 87.31 170.37 86.60 170.33 85.75 C 170.29 84.91 169.58 84.26 168.74 84.29 L 167.71 84.34 C 166.87 84.38 166.22 85.09 166.26 85.93 C 166.29 86.77 167.00 87.43 167.85 87.39 Z M 168.88 87.34 L 169.87 87.30 C 170.71 87.26 171.36 86.54 171.32 85.70 C 171.28 84.86 170.57 84.21 169.73 84.25 L 168.73 84.30 C 167.89 84.33 167.24 85.05 167.28 85.89 C 167.32 86.73 168.03 87.38 168.88 87.34 Z M 169.86 87.30 L 170.84 87.25 C 171.68 87.22 172.34 86.51 172.30 85.66 C 172.26 84.82 171.55 84.17 170.71 84.21 L 169.73 84.25 C 168.89 84.29 168.24 85.00 168.27 85.84 C 168.31 86.68 169.02 87.33 169.86 87.30 Z M 170.83 87.25 L 171.83 87.22 C 172.67 87.19 173.33 86.48 173.30 85.64 C 173.27 84.80 172.56 84.14 171.72 84.17 L 170.72 84.21 C 169.88 84.24 169.22 84.95 169.25 85.79 C 169.28 86.63 169.99 87.29 170.83 87.25 Z M 171.82 87.22 L 172.82 87.18 C 173.66 87.16 174.32 86.46 174.29 85.61 C 174.27 84.77 173.56 84.11 172.72 84.14 L 171.73 84.17 C 170.89 84.20 170.23 84.90 170.25 85.74 C 170.28 86.58 170.98 87.24 171.82 87.22 Z M 172.81 87.18 L 173.83 87.16 C 174.67 87.13 175.34 86.43 175.31 85.59 C 175.29 84.75 174.59 84.09 173.75 84.11 L 172.73 84.14 C 171.89 84.16 171.22 84.86 171.25 85.70 C 171.27 86.54 171.97 87.21 172.81 87.18 Z M 173.83 87.16 L 174.85 87.13 C 175.69 87.11 176.36 86.41 176.34 85.57 C 176.31 84.73 175.62 84.06 174.77 84.09 L 173.75 84.11 C 172.91 84.13 172.25 84.83 172.27 85.67 C 172.29 86.51 172.99 87.18 173.83 87.16 Z M 174.86 87.13 L 175.81 87.10 C 176.65 87.08 177.31 86.38 177.29 85.54 C 177.27 84.70 176.57 84.04 175.73 84.06 L 174.77 84.09 C 173.93 84.11 173.27 84.81 173.29 85.65 C 173.32 86.49 174.02 87.15 174.86 87.13 Z M 175.82 87.10 L 176.89 87.06 C 177.73 87.03 178.39 86.33 178.36 85.49 C 178.33 84.65 177.63 83.99 176.79 84.02 L 175.72 84.06 C 174.88 84.09 174.22 84.79 174.25 85.63 C 174.28 86.47 174.98 87.13 175.82 87.10 Z M 176.89 87.06 L 177.82 87.03 C 178.66 87.01 179.32 86.30 179.29 85.47 C 179.26 84.63 178.56 83.97 177.72 83.99 L 176.79 84.02 C 175.95 84.05 175.29 84.75 175.32 85.59 C 175.35 86.43 176.05 87.09 176.89 87.06 Z M 177.79 87.03 L 178.81 87.02 C 179.65 87.01 180.32 86.32 180.31 85.48 C 180.30 84.64 179.61 83.97 178.77 83.98 L 177.75 83.99 C 176.91 84.00 176.24 84.69 176.25 85.53 C 176.26 86.37 176.95 87.04 177.79 87.03 Z M 178.79 87.02 L 179.75 87.02 C 180.58 87.02 181.26 86.34 181.26 85.50 C 181.26 84.66 180.58 83.98 179.74 83.98 L 178.79 83.98 C 177.95 83.98 177.27 84.66 177.27 85.50 C 177.27 86.34 177.95 87.02 178.79 87.02 Z M 179.74 87.02 L 180.72 87.02 C 181.56 87.02 182.24 86.34 182.24 85.50 C 182.24 84.66 181.56 83.98 180.72 83.98 L 179.74 83.98 C 178.90 83.98 178.22 84.66 178.22 85.50 C 178.22 86.34 178.90 87.02 179.74 87.02 Z M 180.72 87.02 L 181.73 87.02 C 182.57 87.02 183.25 86.34 183.25 85.50 C 183.25 84.66 182.57 83.98 181.73 83.98 L 180.72 83.98 C 179.88 83.98 179.20 84.66 179.20 85.50 C 179.20 86.34 179.88 87.02 180.72 87.02 Z M 181.73 87.02 L 182.74 87.02 C 183.58 87.02 184.26 86.34 184.26 85.50 C 184.26 84.66 183.58 83.98 182.74 83.98 L 181.73 83.98 C 180.89 83.98 180.21 84.66 180.21 85.50 C 180.21 86.34 180.89 87.02 181.73 87.02 Z M 182.74 87.02 L 183.77 87.02 C 184.61 87.02 185.29 86.34 185.29 85.50 C 185.29 84.66 184.61 83.98 183.78 83.98 L 182.74 83.98 C 181.91 83.98 181.23 84.66 181.23 85.50 C 181.23 86.34 181.91 87.02 182.74 87.02 Z M 183.76 87.02 L 184.76 87.03 C 185.60 87.03 186.29 86.36 186.29 85.52 C 186.30 84.68 185.63 84.00 184.79 83.99 L 183.79 83.98 C 182.95 83.97 182.26 84.65 182.26 85.49 C 182.25 86.32 182.92 87.01 183.76 87.02 Z M 184.72 87.02 L 185.71 87.06 C 186.55 87.09 187.26 86.44 187.29 85.60 C 187.32 84.76 186.67 84.06 185.83 84.03 L 184.83 83.99 C 183.99 83.96 183.29 84.61 183.26 85.45 C 183.23 86.29 183.88 86.99 184.72 87.02 Z M 185.64 87.06 L 186.67 87.15 C 187.51 87.22 188.24 86.60 188.32 85.77 C 188.39 84.93 187.77 84.20 186.94 84.12 L 185.90 84.03 C 185.07 83.96 184.33 84.58 184.26 85.41 C 184.19 86.25 184.80 86.98 185.64 87.06 Z M 186.54 87.13 L 187.49 87.30 C 188.31 87.44 189.10 86.89 189.25 86.07 C 189.39 85.24 188.84 84.45 188.01 84.31 L 187.07 84.14 C 186.24 83.99 185.45 84.55 185.31 85.37 C 185.16 86.20 185.71 86.98 186.54 87.13 Z M 187.24 87.23 L 188.20 87.58 C 188.98 87.86 189.85 87.45 190.14 86.66 C 190.42 85.87 190.01 85.00 189.23 84.72 L 188.27 84.37 C 187.48 84.09 186.61 84.50 186.32 85.29 C 186.04 86.08 186.45 86.95 187.24 87.23 Z M 187.92 87.44 L 188.74 87.95 C 189.46 88.38 190.39 88.16 190.83 87.44 C 191.27 86.73 191.04 85.79 190.32 85.35 L 189.50 84.85 C 188.79 84.42 187.85 84.64 187.41 85.36 C 186.98 86.07 187.20 87.01 187.92 87.44 Z M 188.57 87.83 L 189.35 88.46 C 190.00 88.99 190.96 88.89 191.49 88.24 C 192.02 87.59 191.92 86.63 191.27 86.10 L 190.49 85.47 C 189.84 84.94 188.89 85.04 188.36 85.69 C 187.83 86.34 187.92 87.30 188.57 87.83 Z M 189.21 88.33 L 189.91 89.05 C 190.49 89.66 191.45 89.68 192.05 89.09 C 192.66 88.51 192.68 87.55 192.09 86.95 L 191.40 86.23 C 190.82 85.62 189.86 85.61 189.26 86.19 C 188.65 86.77 188.63 87.73 189.21 88.33 Z M 189.79 88.92 L 190.40 89.72 C 190.91 90.38 191.87 90.51 192.53 90.00 C 193.20 89.49 193.32 88.54 192.81 87.87 L 192.21 87.08 C 191.69 86.41 190.74 86.28 190.08 86.79 C 189.41 87.30 189.28 88.26 189.79 88.92 Z M 190.33 89.62 L 190.87 90.46 C 191.33 91.16 192.27 91.37 192.97 90.91 C 193.68 90.46 193.88 89.52 193.43 88.81 L 192.88 87.97 C 192.43 87.26 191.49 87.06 190.78 87.52 C 190.08 87.97 189.88 88.91 190.33 89.62 Z M 190.85 90.43 L 191.37 91.29 C 191.81 92.01 192.75 92.23 193.46 91.80 C 194.18 91.36 194.41 90.42 193.98 89.71 L 193.45 88.84 C 193.01 88.13 192.08 87.90 191.36 88.33 C 190.64 88.77 190.41 89.71 190.85 90.43 Z M 191.39 91.32 L 191.93 92.17 C 192.39 92.88 193.33 93.09 194.04 92.64 C 194.75 92.18 194.96 91.24 194.51 90.53 L 193.96 89.68 C 193.51 88.97 192.56 88.76 191.85 89.21 C 191.14 89.66 190.93 90.61 191.39 91.32 Z M 191.93 92.18 L 192.47 93.01 C 192.92 93.72 193.87 93.93 194.58 93.47 C 195.30 93.02 195.50 92.07 195.04 91.35 L 194.51 90.52 C 194.05 89.81 193.10 89.60 192.39 90.06 C 191.68 90.52 191.47 91.47 191.93 92.18 Z M 192.42 92.95 L 192.89 93.76 C 193.31 94.50 194.25 94.75 194.99 94.33 C 195.73 93.90 195.98 92.96 195.55 92.23 L 195.09 91.42 C 194.66 90.68 193.72 90.43 192.99 90.85 C 192.25 91.28 192.00 92.22 192.42 92.95 Z M 192.83 93.66 L 193.28 94.60 C 193.65 95.36 194.57 95.69 195.33 95.32 C 196.10 94.95 196.43 94.03 196.06 93.26 L 195.61 92.33 C 195.24 91.56 194.32 91.24 193.56 91.60 C 192.79 91.97 192.46 92.89 192.83 93.66 Z M 193.23 94.51 L 193.61 95.43 C 193.93 96.23 194.83 96.61 195.62 96.29 C 196.41 95.97 196.80 95.07 196.48 94.28 L 196.10 93.35 C 195.79 92.56 194.88 92.18 194.09 92.49 C 193.30 92.81 192.91 93.71 193.23 94.51 Z M 193.57 95.37 L 193.92 96.34 C 194.20 97.16 195.09 97.58 195.90 97.30 C 196.71 97.01 197.14 96.12 196.85 95.31 L 196.51 94.34 C 196.23 93.53 195.34 93.10 194.52 93.39 C 193.71 93.67 193.29 94.56 193.57 95.37 Z M 193.88 96.28 L 194.18 97.25 C 194.43 98.08 195.30 98.55 196.13 98.30 C 196.96 98.05 197.43 97.17 197.18 96.34 L 196.89 95.37 C 196.64 94.55 195.76 94.08 194.93 94.33 C 194.10 94.58 193.63 95.45 193.88 96.28 Z M 194.14 97.16 L 194.37 98.13 C 194.57 98.97 195.42 99.50 196.27 99.30 C 197.12 99.10 197.64 98.25 197.44 97.40 L 197.21 96.43 C 197.01 95.58 196.16 95.06 195.31 95.26 C 194.46 95.46 193.94 96.31 194.14 97.16 Z M 194.34 98.05 L 194.52 99.02 C 194.67 99.88 195.50 100.46 196.37 100.30 C 197.23 100.14 197.81 99.31 197.65 98.45 L 197.47 97.48 C 197.31 96.61 196.49 96.04 195.62 96.20 C 194.76 96.35 194.18 97.18 194.34 98.05 Z M 194.50 98.98 L 194.64 99.89 C 194.78 100.77 195.59 101.37 196.47 101.23 C 197.34 101.10 197.94 100.28 197.81 99.40 L 197.67 98.49 C 197.53 97.62 196.71 97.02 195.84 97.15 C 194.96 97.29 194.36 98.11 194.50 98.98 Z M 194.63 99.86 L 194.76 100.86 C 194.88 101.74 195.69 102.36 196.57 102.25 C 197.45 102.13 198.07 101.32 197.96 100.44 L 197.82 99.43 C 197.70 98.55 196.89 97.93 196.01 98.05 C 195.13 98.17 194.51 98.98 194.63 99.86 Z M 194.74 100.82 L 194.86 101.87 C 194.96 102.76 195.76 103.40 196.65 103.30 C 197.54 103.21 198.18 102.41 198.08 101.52 L 197.97 100.47 C 197.87 99.58 197.07 98.94 196.18 99.04 C 195.29 99.13 194.65 99.93 194.74 100.82 Z M 194.85 101.83 L 194.93 102.78 C 195.01 103.68 195.80 104.34 196.70 104.26 C 197.59 104.18 198.26 103.39 198.18 102.49 L 198.10 101.55 C 198.02 100.65 197.23 99.99 196.33 100.07 C 195.43 100.15 194.77 100.94 194.85 101.83 Z M 194.92 102.76 L 194.99 103.76 C 195.06 104.66 195.84 105.34 196.74 105.27 C 197.65 105.21 198.33 104.42 198.26 103.52 L 198.19 102.52 C 198.12 101.62 197.34 100.94 196.44 101.00 C 195.53 101.07 194.85 101.85 194.92 102.76 Z M 194.98 103.74 L 195.05 104.79 C 195.10 105.70 195.88 106.39 196.79 106.33 C 197.69 106.28 198.39 105.50 198.33 104.59 L 198.27 103.54 C 198.22 102.63 197.44 101.94 196.53 101.99 C 195.62 102.05 194.93 102.83 194.98 103.74 Z M 195.04 104.77 L 195.09 105.75 C 195.13 106.66 195.91 107.36 196.82 107.32 C 197.73 107.27 198.43 106.50 198.39 105.58 L 198.34 104.61 C 198.29 103.70 197.52 102.99 196.61 103.04 C 195.69 103.08 194.99 103.86 195.04 104.77 Z M 195.08 105.74 L 195.12 106.72 C 195.16 107.64 195.93 108.35 196.85 108.31 C 197.77 108.27 198.48 107.50 198.44 106.58 L 198.40 105.60 C 198.36 104.68 197.58 103.97 196.67 104.01 C 195.75 104.05 195.04 104.82 195.08 105.74 Z M 195.11 106.71 L 195.15 107.73 C 195.19 108.65 195.96 109.36 196.88 109.33 C 197.80 109.30 198.52 108.52 198.48 107.60 L 198.44 106.59 C 198.41 105.67 197.64 104.95 196.72 104.99 C 195.80 105.02 195.08 105.79 195.11 106.71 Z M 195.15 107.72 L 195.18 108.75 C 195.21 109.67 195.98 110.40 196.90 110.37 C 197.83 110.34 198.55 109.57 198.52 108.64 L 198.49 107.61 C 198.46 106.69 197.69 105.96 196.76 105.99 C 195.84 106.02 195.12 106.80 195.15 107.72 Z M 195.17 108.74 L 195.20 109.70 C 195.23 110.63 196.00 111.36 196.92 111.33 C 197.85 111.31 198.58 110.54 198.55 109.61 L 198.53 108.65 C 198.50 107.73 197.73 107.00 196.80 107.02 C 195.88 107.05 195.15 107.82 195.17 108.74 Z M 195.20 109.70 L 195.22 110.67 C 195.24 111.60 196.01 112.34 196.94 112.31 C 197.86 112.29 198.60 111.52 198.58 110.60 L 198.55 109.62 C 198.53 108.69 197.76 107.96 196.84 107.98 C 195.91 108.00 195.18 108.77 195.20 109.70 Z M 195.22 110.67 L 195.24 111.67 C 195.25 112.60 196.02 113.34 196.95 113.32 C 197.88 113.31 198.62 112.54 198.60 111.61 L 198.58 110.61 C 198.56 109.68 197.80 108.94 196.87 108.95 C 195.94 108.97 195.20 109.74 195.22 110.67 Z M 195.23 111.66 L 195.25 112.70 C 195.26 113.63 196.02 114.38 196.95 114.36 C 197.88 114.35 198.63 113.59 198.62 112.66 L 198.60 111.62 C 198.59 110.69 197.82 109.94 196.89 109.96 C 195.96 109.97 195.22 110.73 195.23 111.66 Z M 195.24 112.70 L 195.25 113.69 C 195.26 114.62 196.02 115.37 196.95 115.36 C 197.89 115.35 198.64 114.59 198.63 113.66 L 198.62 112.67 C 198.61 111.73 197.85 110.98 196.92 110.99 C 195.98 111.00 195.23 111.76 195.24 112.70 Z M 195.25 113.68 L 195.25 114.67 C 195.26 115.60 196.02 116.35 196.95 116.35 C 197.89 116.35 198.64 115.58 198.64 114.65 L 198.63 113.66 C 198.63 112.73 197.87 111.97 196.93 111.98 C 196.00 111.98 195.24 112.75 195.25 113.68 Z M 195.25 114.66 L 195.25 115.67 C 195.25 116.61 196.01 117.36 196.95 117.36 C 197.89 117.36 198.65 116.60 198.64 115.66 L 198.64 114.65 C 198.64 113.72 197.88 112.96 196.94 112.96 C 196.00 112.96 195.25 113.72 195.25 114.66 Z M 195.25 115.66 L 195.25 116.68 C 195.25 117.62 196.01 118.38 196.95 118.38 C 197.89 118.38 198.65 117.62 198.65 116.68 L 198.65 115.66 C 198.65 114.72 197.89 113.96 196.95 113.96 C 196.01 113.96 195.24 114.72 195.25 115.66 Z M 195.24 116.68 L 195.24 117.70 C 195.24 118.64 196.01 119.40 196.95 119.40 C 197.89 119.40 198.66 118.64 198.66 117.70 L 198.66 116.68 C 198.66 115.74 197.89 114.97 196.95 114.97 C 196.01 114.97 195.24 115.74 195.24 116.68 Z M 195.24 117.70 L 195.24 118.68 C 195.24 119.63 196.00 120.39 196.95 120.39 C 197.89 120.39 198.66 119.63 198.66 118.68 L 198.66 117.70 C 198.66 116.75 197.89 115.99 196.95 115.99 C 196.00 115.99 195.24 116.75 195.24 117.70 Z M 195.23 118.68 L 195.23 119.66 C 195.23 120.61 196.00 121.38 196.95 121.38 C 197.89 121.38 198.66 120.61 198.66 119.67 L 198.66 118.68 C 198.66 117.74 197.90 116.97 196.95 116.97 C 196.00 116.97 195.23 117.73 195.23 118.68 Z M 195.23 119.66 L 195.23 120.65 C 195.23 121.60 195.99 122.37 196.94 122.38 C 197.89 122.38 198.66 121.61 198.66 120.66 L 198.67 119.67 C 198.67 118.72 197.90 117.95 196.95 117.95 C 196.00 117.94 195.23 118.71 195.23 119.66 Z M 195.22 120.65 L 195.22 121.66 C 195.21 122.61 195.98 123.38 196.93 123.39 C 197.88 123.39 198.66 122.62 198.66 121.67 L 198.67 120.66 C 198.67 119.71 197.90 118.94 196.95 118.94 C 196.00 118.93 195.23 119.70 195.22 120.65 Z M 195.22 121.65 L 195.21 122.68 C 195.20 123.64 195.97 124.42 196.92 124.42 C 197.87 124.43 198.65 123.66 198.66 122.71 L 198.67 121.68 C 198.67 120.73 197.91 119.95 196.95 119.94 C 196.00 119.93 195.22 120.70 195.22 121.65 Z M 195.20 122.68 L 195.19 123.63 C 195.18 124.59 195.95 125.37 196.91 125.38 C 197.86 125.39 198.64 124.62 198.65 123.67 L 198.66 122.71 C 198.67 121.76 197.91 120.98 196.95 120.97 C 196.00 120.96 195.21 121.72 195.20 122.68 Z M 195.19 123.63 L 195.18 124.60 C 195.16 125.56 195.93 126.35 196.88 126.36 C 197.84 126.37 198.63 125.61 198.64 124.65 L 198.66 123.68 C 198.67 122.72 197.91 121.93 196.95 121.92 C 195.99 121.90 195.21 122.67 195.19 123.63 Z M 195.17 124.59 L 195.16 125.59 C 195.14 126.55 195.90 127.34 196.86 127.36 C 197.81 127.38 198.61 126.62 198.63 125.66 L 198.65 124.66 C 198.66 123.70 197.90 122.91 196.94 122.89 C 195.99 122.87 195.19 123.64 195.17 124.59 Z M 195.15 125.58 L 195.13 126.60 C 195.10 127.56 195.86 128.36 196.82 128.38 C 197.78 128.41 198.58 127.65 198.60 126.69 L 198.63 125.67 C 198.65 124.71 197.90 123.91 196.94 123.89 C 195.98 123.86 195.18 124.62 195.15 125.58 Z M 195.12 126.58 L 195.09 127.62 C 195.06 128.58 195.81 129.38 196.77 129.42 C 197.73 129.45 198.54 128.70 198.57 127.73 L 198.60 126.70 C 198.64 125.74 197.88 124.93 196.92 124.90 C 195.96 124.87 195.16 125.62 195.12 126.58 Z M 195.09 127.60 L 195.04 128.62 C 195.00 129.58 195.75 130.39 196.72 130.43 C 197.68 130.47 198.49 129.73 198.53 128.76 L 198.57 127.75 C 198.61 126.79 197.86 125.97 196.90 125.93 C 195.94 125.89 195.13 126.64 195.09 127.60 Z M 195.04 128.61 L 194.99 129.60 C 194.95 130.57 195.69 131.39 196.65 131.43 C 197.62 131.48 198.44 130.74 198.48 129.77 L 198.53 128.78 C 198.58 127.81 197.84 126.99 196.87 126.95 C 195.91 126.90 195.09 127.64 195.04 128.61 Z M 194.99 129.59 L 194.94 130.59 C 194.88 131.56 195.62 132.39 196.59 132.44 C 197.55 132.49 198.38 131.75 198.43 130.79 L 198.49 129.79 C 198.54 128.82 197.80 127.99 196.84 127.94 C 195.87 127.89 195.04 128.63 194.99 129.59 Z M 194.93 130.59 L 194.87 131.59 C 194.81 132.56 195.55 133.39 196.52 133.45 C 197.48 133.50 198.32 132.77 198.37 131.80 L 198.43 130.80 C 198.49 129.83 197.76 129.00 196.79 128.94 C 195.82 128.88 194.99 129.62 194.93 130.59 Z M 194.87 131.58 L 194.81 132.58 C 194.75 133.55 195.48 134.39 196.45 134.45 C 197.42 134.51 198.25 133.78 198.31 132.81 L 198.38 131.81 C 198.44 130.84 197.70 130.00 196.73 129.94 C 195.77 129.88 194.93 130.62 194.87 131.58 Z M 194.80 132.58 L 194.74 133.57 C 194.67 134.54 195.41 135.38 196.38 135.44 C 197.35 135.51 198.18 134.78 198.25 133.81 L 198.31 132.81 C 198.38 131.84 197.64 131.00 196.68 130.94 C 195.71 130.88 194.87 131.61 194.80 132.58 Z M 194.74 133.57 L 194.67 134.59 C 194.60 135.56 195.34 136.40 196.31 136.46 C 197.28 136.53 198.12 135.79 198.18 134.82 L 198.25 133.81 C 198.32 132.84 197.58 132.00 196.61 131.93 C 195.64 131.87 194.80 132.60 194.74 133.57 Z M 194.67 134.58 L 194.60 135.60 C 194.53 136.57 195.26 137.41 196.24 137.48 C 197.21 137.54 198.05 136.81 198.12 135.84 L 198.19 134.82 C 198.25 133.85 197.52 133.01 196.55 132.94 C 195.57 132.88 194.73 133.61 194.67 134.58 Z M 194.59 135.59 L 194.52 136.60 C 194.46 137.57 195.19 138.41 196.17 138.48 C 197.14 138.55 197.98 137.81 198.05 136.84 L 198.12 135.84 C 198.19 134.86 197.45 134.02 196.48 133.95 C 195.50 133.89 194.66 134.62 194.59 135.59 Z M 194.52 136.60 L 194.45 137.59 C 194.39 138.56 195.12 139.41 196.10 139.48 C 197.07 139.54 197.92 138.81 197.98 137.83 L 198.05 136.84 C 198.12 135.87 197.39 135.02 196.41 134.95 C 195.44 134.89 194.59 135.62 194.52 136.60 Z M 194.45 137.59 L 194.38 138.57 C 194.31 139.55 195.05 140.39 196.03 140.46 C 197.00 140.53 197.85 139.79 197.92 138.82 L 197.99 137.83 C 198.06 136.86 197.32 136.01 196.34 135.94 C 195.37 135.87 194.52 136.61 194.45 137.59 Z M 194.38 138.57 L 194.31 139.55 C 194.24 140.52 194.98 141.37 195.96 141.44 C 196.93 141.51 197.78 140.77 197.85 139.80 L 197.92 138.82 C 197.99 137.84 197.25 136.99 196.27 136.92 C 195.30 136.85 194.45 137.59 194.38 138.57 Z M 194.31 139.55 L 194.24 140.53 C 194.17 141.51 194.91 142.36 195.88 142.43 C 196.86 142.50 197.71 141.76 197.78 140.78 L 197.85 139.80 C 197.92 138.82 197.19 137.97 196.21 137.90 C 195.23 137.83 194.38 138.57 194.31 139.55 Z M 194.24 140.53 L 194.17 141.51 C 194.10 142.49 194.84 143.34 195.81 143.41 C 196.79 143.48 197.64 142.74 197.71 141.77 L 197.78 140.78 C 197.85 139.80 197.12 138.95 196.14 138.88 C 195.16 138.81 194.31 139.55 194.24 140.53 Z M 194.17 141.51 L 194.10 142.50 C 194.03 143.48 194.77 144.33 195.74 144.40 C 196.72 144.47 197.57 143.73 197.64 142.75 L 197.71 141.76 C 197.78 140.79 197.05 139.94 196.07 139.87 C 195.09 139.80 194.24 140.53 194.17 141.51 Z M 194.10 142.50 L 194.03 143.51 C 193.96 144.49 194.70 145.34 195.68 145.40 C 196.66 145.47 197.51 144.73 197.57 143.75 L 197.64 142.75 C 197.71 141.77 196.97 140.92 195.99 140.85 C 195.01 140.79 194.16 141.52 194.10 142.50 Z M 194.03 143.51 L 193.96 144.53 C 193.89 145.51 194.63 146.36 195.61 146.42 C 196.59 146.49 197.44 145.75 197.51 144.77 L 197.58 143.75 C 197.64 142.77 196.90 141.92 195.92 141.85 C 194.94 141.79 194.09 142.53 194.03 143.51 Z M 193.95 144.53 L 193.89 145.53 C 193.82 146.51 194.56 147.36 195.54 147.43 C 196.52 147.49 197.37 146.75 197.44 145.77 L 197.51 144.77 C 197.57 143.79 196.83 142.94 195.85 142.87 C 194.87 142.81 194.02 143.55 193.95 144.53 Z M 193.88 145.53 L 193.82 146.54 C 193.75 147.52 194.50 148.37 195.48 148.43 C 196.46 148.49 197.31 147.75 197.38 146.77 L 197.44 145.77 C 197.51 144.79 196.76 143.94 195.78 143.87 C 194.80 143.81 193.95 144.55 193.88 145.53 Z M 193.82 146.54 L 193.75 147.55 C 193.69 148.53 194.44 149.38 195.42 149.44 C 196.40 149.50 197.25 148.76 197.31 147.77 L 197.38 146.77 C 197.44 145.78 196.69 144.93 195.71 144.87 C 194.73 144.81 193.88 145.56 193.82 146.54 Z M 193.75 147.55 L 193.69 148.56 C 193.63 149.54 194.38 150.39 195.36 150.45 C 196.35 150.51 197.19 149.76 197.25 148.78 L 197.31 147.77 C 197.38 146.79 196.63 145.94 195.64 145.88 C 194.66 145.82 193.81 146.57 193.75 147.55 Z M 193.69 148.56 L 193.63 149.56 C 193.57 150.55 194.32 151.40 195.31 151.45 C 196.29 151.51 197.14 150.76 197.20 149.78 L 197.25 148.77 C 197.31 147.79 196.56 146.94 195.58 146.89 C 194.59 146.83 193.75 147.58 193.69 148.56 Z M 193.63 149.57 L 193.57 150.55 C 193.52 151.54 194.27 152.38 195.26 152.44 C 196.24 152.49 197.09 151.74 197.14 150.75 L 197.20 149.77 C 197.25 148.78 196.50 147.94 195.51 147.88 C 194.53 147.83 193.68 148.58 193.63 149.57 Z M 193.57 150.56 L 193.52 151.59 C 193.46 152.58 194.22 153.42 195.21 153.47 C 196.19 153.53 197.04 152.77 197.09 151.78 L 197.14 150.75 C 197.20 149.76 196.44 148.92 195.45 148.87 C 194.46 148.81 193.62 149.57 193.57 150.56 Z M 193.52 151.60 L 193.46 152.62 C 193.42 153.61 194.18 154.45 195.16 154.49 C 196.15 154.54 196.99 153.78 197.04 152.80 L 197.09 151.78 C 197.14 150.79 196.38 149.95 195.39 149.90 C 194.40 149.85 193.56 150.61 193.52 151.60 Z M 193.47 152.62 L 193.42 153.62 C 193.37 154.61 194.13 155.45 195.12 155.49 C 196.11 155.54 196.95 154.78 196.99 153.79 L 197.04 152.79 C 197.08 151.80 196.32 150.97 195.34 150.92 C 194.35 150.87 193.51 151.64 193.47 152.62 Z M 193.42 153.63 L 193.37 154.61 C 193.33 155.59 194.09 156.43 195.08 156.47 C 196.07 156.52 196.90 155.76 196.95 154.77 L 196.99 153.79 C 197.04 152.80 196.27 151.96 195.29 151.92 C 194.30 151.88 193.46 152.64 193.42 153.63 Z M 193.37 154.61 L 193.33 155.58 C 193.29 156.57 194.05 157.40 195.04 157.44 C 196.02 157.49 196.86 156.72 196.90 155.74 L 196.95 154.77 C 196.99 153.78 196.23 152.95 195.24 152.90 C 194.25 152.86 193.42 153.62 193.37 154.61 Z M 193.33 155.58 L 193.29 156.58 C 193.24 157.56 194.01 158.40 194.99 158.44 C 195.98 158.48 196.81 157.72 196.86 156.74 L 196.90 155.74 C 196.95 154.75 196.18 153.92 195.20 153.87 C 194.21 153.83 193.38 154.59 193.33 155.58 Z M 193.29 156.57 L 193.24 157.59 C 193.20 158.58 193.96 159.42 194.95 159.46 C 195.93 159.50 196.77 158.74 196.81 157.76 L 196.86 156.74 C 196.90 155.75 196.14 154.92 195.15 154.87 C 194.17 154.83 193.33 155.59 193.29 156.57 Z M 193.24 157.60 L 193.20 158.61 C 193.15 159.59 193.92 160.42 194.90 160.47 C 195.89 160.51 196.72 159.75 196.77 158.77 L 196.81 157.76 C 196.85 156.77 196.09 155.94 195.11 155.89 C 194.12 155.85 193.29 156.61 193.24 157.60 Z M 193.20 158.61 L 193.15 159.60 C 193.11 160.59 193.87 161.42 194.86 161.46 C 195.84 161.51 196.68 160.74 196.72 159.76 L 196.76 158.76 C 196.81 157.78 196.04 156.95 195.06 156.90 C 194.07 156.86 193.24 157.62 193.20 158.61 Z M 193.15 159.60 L 193.11 160.58 C 193.07 161.57 193.84 162.40 194.82 162.44 C 195.80 162.48 196.64 161.72 196.68 160.73 L 196.72 159.76 C 196.76 158.77 196.00 157.94 195.01 157.90 C 194.03 157.86 193.20 158.62 193.15 159.60 Z M 193.11 160.59 L 193.07 161.60 C 193.03 162.58 193.80 163.41 194.78 163.45 C 195.77 163.49 196.60 162.73 196.64 161.74 L 196.68 160.73 C 196.72 159.74 195.95 158.91 194.97 158.88 C 193.98 158.84 193.15 159.60 193.11 160.59 Z M 193.07 161.60 L 193.04 162.64 C 193.00 163.62 193.77 164.45 194.75 164.49 C 195.73 164.52 196.56 163.76 196.60 162.77 L 196.64 161.74 C 196.67 160.75 195.91 159.93 194.92 159.89 C 193.94 159.85 193.11 160.62 193.07 161.60 Z M 193.04 162.65 L 193.00 163.65 C 192.97 164.63 193.74 165.46 194.72 165.49 C 195.70 165.52 196.53 164.76 196.56 163.77 L 196.60 162.77 C 196.63 161.78 195.86 160.96 194.88 160.93 C 193.89 160.89 193.07 161.66 193.04 162.65 Z M 193.00 163.66 L 192.97 164.63 C 192.94 165.61 193.71 166.43 194.70 166.46 C 195.68 166.49 196.50 165.72 196.53 164.74 L 196.56 163.77 C 196.59 162.79 195.82 161.96 194.84 161.93 C 193.86 161.90 193.03 162.67 193.00 163.66 Z M 192.98 164.64 L 192.95 165.59 C 192.92 166.57 193.69 167.39 194.67 167.41 C 195.66 167.44 196.47 166.67 196.50 165.69 L 196.53 164.74 C 196.56 163.76 195.78 162.94 194.80 162.91 C 193.82 162.88 193.00 163.66 192.98 164.64 Z M 192.95 165.59 L 192.92 166.63 C 192.90 167.61 193.67 168.43 194.65 168.45 C 195.63 168.47 196.45 167.70 196.47 166.72 L 196.50 165.68 C 196.52 164.70 195.75 163.89 194.77 163.86 C 193.79 163.84 192.97 164.61 192.95 165.59 Z M 192.92 166.63 L 192.90 167.64 C 192.88 168.62 193.66 169.43 194.64 169.45 C 195.62 169.48 196.43 168.70 196.45 167.72 L 196.47 166.71 C 196.49 165.73 195.72 164.92 194.74 164.90 C 193.76 164.88 192.95 165.66 192.92 166.63 Z M 192.90 167.64 L 192.88 168.63 C 192.86 169.60 193.64 170.42 194.62 170.44 C 195.60 170.46 196.41 169.68 196.43 168.70 L 196.45 167.72 C 196.47 166.74 195.69 165.93 194.71 165.91 C 193.73 165.89 192.92 166.66 192.90 167.64 Z M 192.88 168.63 L 192.86 169.59 C 192.84 170.57 193.62 171.38 194.60 171.40 C 195.58 171.43 196.39 170.65 196.41 169.67 L 196.43 168.70 C 196.45 167.72 195.67 166.91 194.69 166.89 C 193.71 166.87 192.90 167.65 192.88 168.63 Z M 192.86 169.59 L 192.84 170.57 C 192.82 171.55 193.60 172.36 194.57 172.38 C 195.55 172.40 196.36 171.63 196.38 170.65 L 196.41 169.67 C 196.43 168.69 195.65 167.88 194.67 167.86 C 193.70 167.84 192.89 168.61 192.86 169.59 Z M 192.84 170.57 L 192.82 171.56 C 192.80 172.54 193.57 173.35 194.55 173.37 C 195.53 173.39 196.34 172.62 196.36 171.64 L 196.38 170.65 C 196.40 169.68 195.63 168.87 194.65 168.84 C 193.68 168.82 192.87 169.60 192.84 170.57 Z M 192.82 171.56 L 192.80 172.57 C 192.78 173.54 193.55 174.35 194.53 174.37 C 195.51 174.39 196.31 173.62 196.34 172.65 L 196.36 171.64 C 196.38 170.66 195.61 169.85 194.63 169.83 C 193.65 169.81 192.85 170.58 192.82 171.56 Z M 192.80 172.57 L 192.78 173.59 C 192.76 174.57 193.54 175.37 194.51 175.39 C 195.49 175.41 196.29 174.64 196.31 173.66 L 196.33 172.64 C 196.35 171.67 195.58 170.86 194.61 170.84 C 193.63 170.82 192.82 171.60 192.80 172.57 Z M 192.79 173.59 L 192.77 174.59 C 192.75 175.57 193.52 176.37 194.50 176.39 C 195.47 176.41 196.27 175.63 196.29 174.66 L 196.31 173.66 C 196.33 172.69 195.55 171.88 194.58 171.86 C 193.61 171.85 192.80 172.62 192.79 173.59 Z M 192.77 174.60 L 192.75 175.61 C 192.74 176.58 193.51 177.38 194.48 177.40 C 195.46 177.41 196.26 176.64 196.27 175.67 L 196.29 174.65 C 196.31 173.68 195.53 172.88 194.56 172.87 C 193.59 172.85 192.79 173.62 192.77 174.60 Z M 192.76 175.61 L 192.74 176.62 C 192.73 177.59 193.50 178.39 194.47 178.40 C 195.44 178.41 196.24 177.64 196.26 176.67 L 196.27 175.66 C 196.28 174.69 195.51 173.89 194.54 173.88 C 193.57 173.87 192.77 174.64 192.76 175.61 Z M 192.75 176.63 L 192.73 177.62 C 192.72 178.59 193.50 179.38 194.47 179.39 C 195.44 179.40 196.23 178.63 196.24 177.66 L 196.25 176.66 C 196.26 175.70 195.49 174.90 194.52 174.89 C 193.55 174.88 192.76 175.66 192.75 176.63 Z M 192.74 177.63 L 192.73 178.65 C 192.73 179.62 193.50 180.41 194.47 180.42 C 195.44 180.42 196.22 179.64 196.23 178.68 L 196.24 177.65 C 196.24 176.68 195.47 175.90 194.50 175.89 C 193.53 175.88 192.75 176.66 192.74 177.63 Z M 192.74 178.66 L 192.73 179.66 C 192.73 180.62 193.51 181.41 194.47 181.41 C 195.44 181.41 196.22 180.63 196.22 179.67 L 196.23 178.67 C 196.23 177.71 195.45 176.92 194.49 176.92 C 193.52 176.92 192.74 177.70 192.74 178.66 Z M 192.74 179.66 L 192.74 180.64 C 192.73 181.61 193.51 182.39 194.48 182.39 C 195.44 182.39 196.22 181.61 196.22 180.65 L 196.22 179.67 C 196.22 178.70 195.44 177.92 194.48 177.92 C 193.52 177.92 192.74 178.70 192.74 179.66 Z M 192.74 180.65 L 192.74 181.63 C 192.74 182.59 193.52 183.37 194.48 183.37 C 195.44 183.37 196.21 182.59 196.21 181.63 L 196.21 180.65 C 196.21 179.69 195.44 178.91 194.48 178.91 C 193.52 178.91 192.74 179.69 192.74 180.65 Z M 192.74 181.63 L 192.74 182.64 C 192.74 183.60 193.52 184.37 194.48 184.37 C 195.43 184.37 196.21 183.60 196.21 182.64 L 196.21 181.63 C 196.21 180.68 195.43 179.90 194.48 179.90 C 193.52 179.90 192.74 180.68 192.74 181.63 Z M 192.75 182.64 L 192.75 183.65 C 192.75 184.60 193.52 185.38 194.48 185.38 C 195.43 185.38 196.20 184.60 196.20 183.65 L 196.20 182.64 C 196.20 181.69 195.43 180.91 194.48 180.91 C 193.52 180.91 192.75 181.69 192.75 182.64 Z M 192.75 183.65 L 192.75 184.64 C 192.75 185.59 193.53 186.37 194.48 186.37 C 195.43 186.37 196.20 185.59 196.20 184.64 L 196.20 183.65 C 196.20 182.70 195.43 181.92 194.48 181.92 C 193.53 181.92 192.75 182.70 192.75 183.65 Z M 192.76 184.64 L 192.76 185.66 C 192.76 186.61 193.53 187.38 194.48 187.38 C 195.43 187.38 196.19 186.61 196.19 185.66 L 196.19 184.64 C 196.19 183.69 195.43 182.92 194.48 182.92 C 193.53 182.92 192.76 183.69 192.76 184.64 Z M 192.76 185.66 L 192.76 186.68 C 192.76 187.63 193.53 188.40 194.47 188.40 C 195.42 188.40 196.19 187.63 196.19 186.69 L 196.19 185.66 C 196.19 184.72 195.42 183.95 194.48 183.95 C 193.53 183.95 192.77 184.71 192.76 185.66 Z M 192.77 186.68 L 192.77 187.67 C 192.76 188.61 193.52 189.38 194.47 189.38 C 195.41 189.39 196.17 188.63 196.18 187.68 L 196.18 186.69 C 196.19 185.75 195.42 184.98 194.48 184.98 C 193.54 184.98 192.77 185.74 192.77 186.68 Z M 192.77 187.66 L 192.76 188.62 C 192.76 189.56 193.51 190.33 194.45 190.34 C 195.39 190.35 196.16 189.59 196.16 188.65 L 196.17 187.69 C 196.18 186.75 195.43 185.98 194.49 185.98 C 193.55 185.97 192.78 186.72 192.77 187.66 Z M 192.77 188.61 L 192.75 189.66 C 192.74 190.59 193.48 191.36 194.42 191.38 C 195.35 191.39 196.12 190.65 196.14 189.71 L 196.16 188.66 C 196.17 187.73 195.43 186.96 194.49 186.95 C 193.56 186.93 192.79 187.68 192.77 188.61 Z M 192.77 189.64 L 192.74 190.64 C 192.71 191.57 193.45 192.34 194.38 192.36 C 195.31 192.39 196.08 191.65 196.10 190.73 L 196.13 189.73 C 196.15 188.80 195.42 188.03 194.49 188.00 C 193.56 187.98 192.79 188.71 192.77 189.64 Z M 192.75 190.62 L 192.71 191.57 C 192.68 192.49 193.40 193.27 194.32 193.31 C 195.25 193.34 196.02 192.62 196.06 191.70 L 196.09 190.74 C 196.13 189.82 195.41 189.04 194.48 189.01 C 193.56 188.98 192.78 189.70 192.75 190.62 Z M 192.72 191.55 L 192.67 192.56 C 192.63 193.48 193.34 194.26 194.25 194.30 C 195.17 194.35 195.95 193.64 196.00 192.72 L 196.05 191.72 C 196.09 190.80 195.38 190.02 194.47 189.97 C 193.55 189.93 192.77 190.63 192.72 191.55 Z M 192.68 192.55 L 192.63 193.54 C 192.58 194.45 193.29 195.23 194.20 195.28 C 195.11 195.33 195.89 194.63 195.94 193.72 L 195.99 192.73 C 196.04 191.82 195.33 191.04 194.42 190.99 C 193.51 190.94 192.73 191.64 192.68 192.55 Z M 192.64 193.55 L 192.60 194.56 C 192.56 195.47 193.26 196.24 194.16 196.28 C 195.07 196.32 195.84 195.62 195.88 194.71 L 195.93 193.70 C 195.97 192.80 195.27 192.03 194.36 191.99 C 193.45 191.95 192.68 192.65 192.64 193.55 Z M 192.61 194.58 L 192.57 195.60 C 192.54 196.50 193.24 197.26 194.14 197.29 C 195.04 197.32 195.80 196.62 195.83 195.72 L 195.87 194.69 C 195.90 193.79 195.20 193.03 194.30 193.00 C 193.40 192.97 192.64 193.67 192.61 194.58 Z M 192.58 195.60 L 192.54 196.58 C 192.51 197.48 193.21 198.23 194.11 198.27 C 195.00 198.30 195.76 197.60 195.79 196.70 L 195.82 195.72 C 195.86 194.82 195.16 194.07 194.26 194.03 C 193.37 194.00 192.61 194.70 192.58 195.60 Z M 192.55 196.57 L 192.50 197.58 C 192.46 198.47 193.15 199.23 194.04 199.27 C 194.93 199.31 195.68 198.63 195.73 197.74 L 195.78 196.72 C 195.82 195.83 195.13 195.08 194.24 195.03 C 193.35 194.99 192.60 195.68 192.55 196.57 Z M 192.52 197.56 L 192.45 198.53 C 192.40 199.42 193.07 200.18 193.95 200.24 C 194.83 200.29 195.60 199.62 195.65 198.74 L 195.72 197.76 C 195.77 196.88 195.10 196.11 194.22 196.06 C 193.33 196.00 192.57 196.67 192.52 197.56 Z M 192.46 198.53 L 192.40 199.49 C 192.34 200.37 193.00 201.13 193.88 201.19 C 194.75 201.25 195.51 200.59 195.58 199.71 L 195.64 198.75 C 195.70 197.87 195.04 197.11 194.16 197.05 C 193.29 196.99 192.52 197.65 192.46 198.53 Z M 192.40 199.49 L 192.33 200.48 C 192.27 201.36 192.93 202.11 193.81 202.18 C 194.68 202.24 195.44 201.58 195.50 200.70 L 195.57 199.71 C 195.63 198.84 194.97 198.08 194.10 198.02 C 193.22 197.96 192.47 198.62 192.40 199.49 Z M 192.34 200.47 L 192.26 201.50 C 192.20 202.37 192.85 203.12 193.72 203.19 C 194.59 203.26 195.35 202.60 195.42 201.73 L 195.49 200.71 C 195.56 199.84 194.91 199.08 194.04 199.02 C 193.16 198.95 192.41 199.60 192.34 200.47 Z M 192.27 201.48 L 192.18 202.47 C 192.11 203.33 192.76 204.10 193.63 204.17 C 194.50 204.24 195.26 203.60 195.33 202.73 L 195.41 201.74 C 195.48 200.88 194.84 200.11 193.97 200.04 C 193.10 199.97 192.34 200.61 192.27 201.48 Z M 192.19 202.45 L 192.09 203.45 C 192.01 204.32 192.65 205.09 193.52 205.17 C 194.39 205.25 195.16 204.61 195.24 203.74 L 195.33 202.74 C 195.41 201.88 194.77 201.11 193.90 201.03 C 193.04 200.94 192.27 201.58 192.19 202.45 Z M 192.09 203.44 L 191.99 204.44 C 191.90 205.31 192.53 206.08 193.40 206.17 C 194.26 206.26 195.04 205.63 195.13 204.77 L 195.23 203.76 C 195.32 202.89 194.70 202.12 193.83 202.03 C 192.96 201.94 192.18 202.57 192.09 203.44 Z M 191.99 204.43 L 191.88 205.43 C 191.78 206.29 192.40 207.07 193.27 207.17 C 194.13 207.27 194.92 206.65 195.02 205.78 L 195.13 204.78 C 195.23 203.92 194.61 203.13 193.74 203.04 C 192.87 202.94 192.09 203.56 191.99 204.43 Z M 191.88 205.41 L 191.76 206.40 C 191.66 207.27 192.27 208.05 193.14 208.16 C 194.00 208.26 194.79 207.64 194.89 206.78 L 195.01 205.79 C 195.12 204.93 194.50 204.14 193.64 204.04 C 192.77 203.93 191.98 204.55 191.88 205.41 Z M 191.76 206.39 L 191.64 207.39 C 191.53 208.26 192.14 209.05 193.01 209.15 C 193.87 209.26 194.66 208.65 194.77 207.78 L 194.89 206.79 C 195.00 205.92 194.39 205.13 193.52 205.02 C 192.66 204.91 191.87 205.53 191.76 206.39 Z M 191.64 207.39 L 191.51 208.37 C 191.40 209.24 192.01 210.03 192.88 210.14 C 193.74 210.25 194.53 209.64 194.64 208.77 L 194.77 207.79 C 194.88 206.92 194.27 206.13 193.40 206.02 C 192.54 205.91 191.75 206.52 191.64 207.39 Z M 191.51 208.38 L 191.39 209.34 C 191.28 210.21 191.89 210.99 192.76 211.10 C 193.62 211.21 194.41 210.60 194.52 209.74 L 194.64 208.77 C 194.75 207.91 194.14 207.12 193.27 207.01 C 192.41 206.90 191.62 207.51 191.51 208.38 Z M 191.39 209.33 L 191.26 210.30 C 191.15 211.16 191.76 211.95 192.62 212.07 C 193.49 212.18 194.28 211.57 194.39 210.71 L 194.52 209.74 C 194.63 208.88 194.03 208.09 193.16 207.97 C 192.30 207.86 191.50 208.47 191.39 209.33 Z M 191.27 210.26 L 191.11 211.29 C 190.98 212.15 191.57 212.96 192.43 213.09 C 193.30 213.22 194.10 212.63 194.23 211.77 L 194.39 210.74 C 194.52 209.88 193.93 209.07 193.07 208.94 C 192.20 208.81 191.40 209.40 191.27 210.26 Z M 191.12 211.25 L 190.94 212.25 C 190.78 213.11 191.35 213.93 192.21 214.09 C 193.07 214.24 193.89 213.67 194.04 212.82 L 194.22 211.81 C 194.38 210.95 193.81 210.13 192.95 209.98 C 192.09 209.82 191.27 210.39 191.12 211.25 Z M 190.94 212.22 L 190.74 213.22 C 190.56 214.08 191.11 214.91 191.97 215.09 C 192.82 215.26 193.65 214.71 193.83 213.86 L 194.04 212.85 C 194.21 212.00 193.66 211.16 192.81 210.99 C 191.95 210.81 191.12 211.36 190.94 212.22 Z M 190.74 213.19 L 190.53 214.14 C 190.33 214.99 190.86 215.84 191.71 216.03 C 192.56 216.23 193.41 215.70 193.60 214.85 L 193.82 213.89 C 194.02 213.04 193.49 212.20 192.64 212.00 C 191.79 211.81 190.94 212.34 190.74 213.19 Z M 190.54 214.09 L 190.26 215.14 C 190.04 215.98 190.54 216.85 191.39 217.07 C 192.23 217.29 193.09 216.79 193.31 215.94 L 193.59 214.90 C 193.81 214.05 193.31 213.19 192.47 212.97 C 191.62 212.75 190.76 213.25 190.54 214.09 Z M 190.30 215.02 L 189.98 215.92 C 189.69 216.75 190.12 217.65 190.95 217.94 C 191.77 218.22 192.67 217.79 192.96 216.97 L 193.28 216.07 C 193.57 215.24 193.13 214.34 192.31 214.05 C 191.49 213.76 190.59 214.20 190.30 215.02 Z M 190.08 215.69 L 189.63 216.52 C 189.22 217.28 189.50 218.24 190.26 218.66 C 191.03 219.08 191.99 218.80 192.41 218.03 L 192.86 217.20 C 193.27 216.44 192.99 215.48 192.23 215.06 C 191.46 214.64 190.50 214.92 190.08 215.69 Z M 189.94 216.11 L 189.23 216.77 C 188.59 217.37 188.55 218.37 189.15 219.01 C 189.74 219.65 190.74 219.69 191.38 219.09 L 192.09 218.43 C 192.74 217.84 192.77 216.84 192.18 216.20 C 191.59 215.56 190.58 215.52 189.94 216.11 Z M 189.78 216.44 L 188.86 216.77 C 188.03 217.06 187.60 217.97 187.89 218.79 C 188.19 219.62 189.09 220.05 189.92 219.75 L 190.84 219.43 C 191.66 219.14 192.09 218.23 191.80 217.40 C 191.51 216.58 190.60 216.15 189.78 216.44 Z M 189.26 216.68 L 188.24 216.76 C 187.36 216.84 186.71 217.60 186.79 218.48 C 186.86 219.35 187.63 220.00 188.50 219.93 L 189.52 219.84 C 190.39 219.77 191.04 219.00 190.97 218.13 C 190.90 217.26 190.13 216.61 189.26 216.68 Z M 188.53 216.76 L 187.52 216.66 C 186.65 216.57 185.87 217.20 185.77 218.08 C 185.68 218.95 186.32 219.73 187.19 219.82 L 188.21 219.93 C 189.08 220.02 189.86 219.38 189.95 218.51 C 190.04 217.64 189.41 216.85 188.53 216.76 Z M 187.81 216.71 L 186.88 216.44 C 186.03 216.18 185.15 216.66 184.90 217.50 C 184.64 218.35 185.12 219.23 185.96 219.49 L 186.90 219.77 C 187.74 220.02 188.63 219.54 188.88 218.70 C 189.13 217.85 188.65 216.97 187.81 216.71 Z M 187.07 216.50 L 186.14 216.09 C 185.34 215.73 184.40 216.10 184.04 216.90 C 183.68 217.70 184.04 218.65 184.85 219.00 L 185.77 219.42 C 186.58 219.77 187.52 219.41 187.88 218.61 C 188.23 217.80 187.87 216.86 187.07 216.50 Z M 186.20 216.12 L 185.29 215.67 C 184.50 215.28 183.54 215.60 183.15 216.39 C 182.76 217.18 183.08 218.14 183.87 218.53 L 184.79 218.98 C 185.58 219.37 186.53 219.04 186.92 218.25 C 187.31 217.46 186.99 216.51 186.20 216.12 Z M 185.30 215.67 L 184.39 215.21 C 183.60 214.82 182.64 215.14 182.24 215.92 C 181.85 216.71 182.16 217.67 182.95 218.07 L 183.86 218.53 C 184.65 218.92 185.61 218.60 186.01 217.81 C 186.40 217.02 186.09 216.06 185.30 215.67 Z M 184.37 215.20 L 183.46 214.76 C 182.67 214.37 181.71 214.70 181.32 215.50 C 180.93 216.29 181.26 217.25 182.06 217.63 L 182.97 218.08 C 183.76 218.47 184.72 218.14 185.11 217.34 C 185.49 216.55 185.16 215.59 184.37 215.20 Z M 183.43 214.74 L 182.54 214.33 C 181.73 213.96 180.78 214.31 180.41 215.12 C 180.04 215.92 180.39 216.87 181.20 217.24 L 182.09 217.65 C 182.89 218.02 183.84 217.67 184.21 216.87 C 184.58 216.06 184.23 215.11 183.43 214.74 Z M 182.52 214.33 L 181.65 213.93 C 180.84 213.57 179.89 213.93 179.53 214.73 C 179.17 215.54 179.53 216.49 180.33 216.85 L 181.21 217.25 C 182.01 217.61 182.96 217.25 183.33 216.44 C 183.69 215.64 183.33 214.69 182.52 214.33 Z M 181.66 213.94 L 180.74 213.51 C 179.94 213.14 178.99 213.50 178.62 214.30 C 178.25 215.10 178.60 216.06 179.40 216.43 L 180.32 216.85 C 181.13 217.22 182.08 216.86 182.45 216.06 C 182.82 215.26 182.46 214.31 181.66 213.94 Z M 180.76 213.52 L 179.85 213.09 C 179.05 212.72 178.09 213.06 177.72 213.86 C 177.34 214.66 177.68 215.62 178.48 215.99 L 179.39 216.42 C 180.19 216.80 181.15 216.45 181.52 215.65 C 181.90 214.85 181.56 213.90 180.76 213.52 Z M 179.84 213.09 L 178.94 212.67 C 178.14 212.30 177.19 212.64 176.81 213.45 C 176.44 214.25 176.79 215.20 177.59 215.58 L 178.49 216.00 C 179.29 216.37 180.25 216.02 180.62 215.22 C 180.99 214.42 180.65 213.46 179.84 213.09 Z M 178.90 212.65 L 178.00 212.26 C 177.19 211.91 176.24 212.28 175.89 213.10 C 175.54 213.91 175.92 214.85 176.73 215.20 L 177.63 215.59 C 178.44 215.95 179.39 215.57 179.74 214.76 C 180.09 213.95 179.72 213.00 178.90 212.65 Z M 177.97 212.25 L 177.04 211.87 C 176.22 211.53 175.28 211.92 174.95 212.74 C 174.61 213.56 175.00 214.50 175.82 214.83 L 176.76 215.22 C 177.58 215.55 178.51 215.16 178.85 214.34 C 179.18 213.52 178.79 212.59 177.97 212.25 Z M 177.04 211.87 L 176.12 211.49 C 175.30 211.15 174.36 211.54 174.02 212.36 C 173.69 213.18 174.08 214.11 174.90 214.45 L 175.82 214.83 C 176.64 215.17 177.58 214.78 177.91 213.96 C 178.25 213.14 177.86 212.21 177.04 211.87 Z M 176.12 211.49 L 175.20 211.11 C 174.38 210.77 173.44 211.15 173.10 211.97 C 172.76 212.79 173.15 213.72 173.97 214.06 L 174.89 214.45 C 175.71 214.79 176.64 214.40 176.98 213.59 C 177.32 212.77 176.94 211.83 176.12 211.49 Z M 175.19 211.11 L 174.26 210.73 C 173.44 210.39 172.51 210.79 172.18 211.60 C 171.84 212.42 172.23 213.35 173.05 213.69 L 173.98 214.07 C 174.80 214.40 175.73 214.01 176.06 213.19 C 176.40 212.37 176.00 211.44 175.19 211.11 Z M 174.25 210.72 L 173.33 210.36 C 172.51 210.03 171.58 210.43 171.25 211.25 C 170.92 212.07 171.32 213.00 172.14 213.32 L 173.06 213.69 C 173.88 214.02 174.81 213.62 175.14 212.80 C 175.47 211.98 175.07 211.05 174.25 210.72 Z M 173.32 210.36 L 172.38 209.98 C 171.56 209.66 170.63 210.06 170.31 210.88 C 169.98 211.70 170.38 212.62 171.20 212.95 L 172.14 213.32 C 172.96 213.65 173.89 213.25 174.22 212.43 C 174.54 211.61 174.14 210.68 173.32 210.36 Z M 172.38 209.99 L 171.49 209.63 C 170.67 209.30 169.74 209.70 169.41 210.52 C 169.09 211.33 169.49 212.26 170.30 212.59 L 171.20 212.95 C 172.02 213.27 172.95 212.87 173.27 212.06 C 173.60 211.24 173.20 210.31 172.38 209.99 Z M 171.48 209.63 L 170.54 209.25 C 169.72 208.93 168.80 209.33 168.47 210.14 C 168.15 210.96 168.55 211.88 169.36 212.21 L 170.31 212.58 C 171.12 212.91 172.05 212.51 172.37 211.69 C 172.70 210.88 172.30 209.95 171.48 209.63 Z M 170.53 209.26 L 169.59 208.89 C 168.77 208.57 167.85 208.97 167.53 209.78 C 167.21 210.60 167.61 211.52 168.43 211.84 L 169.37 212.21 C 170.19 212.53 171.11 212.13 171.43 211.31 C 171.75 210.49 171.35 209.57 170.53 209.26 Z M 169.57 208.89 L 168.64 208.53 C 167.82 208.21 166.91 208.62 166.59 209.44 C 166.28 210.25 166.69 211.16 167.50 211.48 L 168.44 211.84 C 169.26 212.15 170.17 211.74 170.48 210.93 C 170.80 210.11 170.39 209.20 169.57 208.89 Z M 168.62 208.53 L 167.68 208.17 C 166.86 207.87 165.95 208.28 165.65 209.10 C 165.35 209.91 165.76 210.82 166.57 211.12 L 167.52 211.48 C 168.33 211.78 169.24 211.37 169.55 210.55 C 169.85 209.74 169.44 208.83 168.62 208.53 Z M 167.66 208.17 L 166.70 207.83 C 165.89 207.54 164.99 207.96 164.70 208.77 C 164.40 209.59 164.82 210.49 165.64 210.78 L 166.59 211.13 C 167.41 211.42 168.31 211.00 168.60 210.18 C 168.90 209.37 168.47 208.47 167.66 208.17 Z M 166.69 207.83 L 165.75 207.50 C 164.94 207.21 164.05 207.64 163.76 208.46 C 163.47 209.27 163.90 210.16 164.71 210.45 L 165.65 210.78 C 166.47 211.06 167.36 210.64 167.65 209.82 C 167.93 209.01 167.50 208.12 166.69 207.83 Z M 165.75 207.51 L 164.82 207.18 C 164.01 206.89 163.12 207.32 162.83 208.13 C 162.55 208.94 162.97 209.83 163.78 210.11 L 164.72 210.44 C 165.53 210.73 166.41 210.30 166.70 209.49 C 166.98 208.68 166.56 207.79 165.75 207.51 Z M 164.82 207.19 L 163.89 206.85 C 163.08 206.57 162.20 206.98 161.91 207.79 C 161.62 208.59 162.04 209.48 162.84 209.77 L 163.78 210.10 C 164.58 210.39 165.47 209.97 165.76 209.17 C 166.05 208.36 165.63 207.48 164.82 207.19 Z M 163.89 206.86 L 162.95 206.52 C 162.15 206.23 161.27 206.64 160.98 207.44 C 160.69 208.24 161.10 209.12 161.90 209.41 L 162.84 209.76 C 163.64 210.05 164.52 209.64 164.81 208.84 C 165.10 208.04 164.69 207.16 163.89 206.86 Z M 162.95 206.53 L 162.00 206.18 C 161.21 205.89 160.33 206.30 160.04 207.09 C 159.75 207.88 160.16 208.76 160.95 209.06 L 161.90 209.40 C 162.69 209.69 163.57 209.29 163.86 208.49 C 164.15 207.70 163.74 206.82 162.95 206.53 Z M 162.00 206.19 L 161.05 205.84 C 160.26 205.55 159.39 205.96 159.10 206.75 C 158.81 207.53 159.22 208.41 160.00 208.70 L 160.95 209.04 C 161.74 209.33 162.61 208.93 162.90 208.14 C 163.19 207.36 162.79 206.48 162.00 206.19 Z M 161.05 205.86 L 160.12 205.51 C 159.34 205.23 158.47 205.63 158.18 206.41 C 157.90 207.19 158.30 208.05 159.08 208.34 L 160.01 208.68 C 160.79 208.97 161.65 208.57 161.94 207.79 C 162.23 207.01 161.83 206.14 161.05 205.86 Z M 160.11 205.53 L 159.16 205.18 C 158.39 204.89 157.53 205.29 157.25 206.06 C 156.96 206.84 157.36 207.70 158.13 207.98 L 159.08 208.33 C 159.86 208.62 160.71 208.22 161.00 207.44 C 161.28 206.67 160.89 205.81 160.11 205.53 Z M 159.17 205.19 L 158.23 204.84 C 157.46 204.55 156.61 204.94 156.32 205.71 C 156.04 206.48 156.43 207.33 157.19 207.62 L 158.13 207.97 C 158.90 208.25 159.75 207.86 160.04 207.10 C 160.32 206.33 159.93 205.48 159.17 205.19 Z M 158.24 204.86 L 157.33 204.50 C 156.57 204.21 155.72 204.58 155.42 205.34 C 155.13 206.10 155.51 206.95 156.26 207.24 L 157.18 207.60 C 157.94 207.89 158.79 207.52 159.08 206.76 C 159.38 206.00 159.00 205.15 158.24 204.86 Z M 157.35 204.52 L 156.42 204.14 C 155.67 203.84 154.82 204.20 154.52 204.94 C 154.21 205.69 154.57 206.54 155.32 206.85 L 156.24 207.22 C 156.99 207.53 157.84 207.17 158.15 206.42 C 158.45 205.68 158.09 204.83 157.35 204.52 Z M 156.43 204.16 L 155.51 203.78 C 154.77 203.47 153.92 203.81 153.61 204.55 C 153.31 205.29 153.65 206.14 154.39 206.45 L 155.31 206.83 C 156.05 207.14 156.90 206.79 157.20 206.05 C 157.51 205.32 157.16 204.47 156.43 204.16 Z M 155.50 203.78 L 154.55 203.38 C 153.82 203.08 152.97 203.42 152.67 204.15 C 152.36 204.88 152.70 205.73 153.43 206.03 L 154.39 206.44 C 155.12 206.74 155.97 206.40 156.27 205.67 C 156.58 204.93 156.24 204.09 155.50 203.78 Z M 154.55 203.39 L 153.63 203.00 C 152.91 202.69 152.07 203.03 151.76 203.76 C 151.45 204.49 151.79 205.33 152.51 205.64 L 153.43 206.03 C 154.16 206.33 155.00 206.00 155.31 205.27 C 155.62 204.54 155.28 203.70 154.55 203.39 Z M 153.65 203.01 L 152.73 202.60 C 152.01 202.28 151.16 202.61 150.84 203.33 C 150.52 204.05 150.85 204.89 151.57 205.21 L 152.49 205.62 C 153.21 205.94 154.06 205.62 154.38 204.90 C 154.70 204.18 154.37 203.34 153.65 203.01 Z M 152.75 202.62 L 151.88 202.21 C 151.17 201.87 150.32 202.18 149.98 202.89 C 149.65 203.60 149.96 204.45 150.67 204.79 L 151.54 205.20 C 152.25 205.53 153.10 205.22 153.44 204.51 C 153.77 203.80 153.47 202.95 152.75 202.62 Z M 151.89 202.21 L 151.74 202.14 C 151.03 201.80 150.18 202.10 149.84 202.81 C 149.50 203.52 149.80 204.37 150.51 204.71 L 150.66 204.78 C 151.37 205.12 152.22 204.82 152.56 204.11 C 152.90 203.40 152.60 202.55 151.89 202.21 Z"
      fill="black"
      fill-rule="nonzero" /></svg>