<svg xmlns="http://www.w3.org/2000/svg" width="300" height="300" viewBox="0 0 300 300">
<path d="M 158.15 87.48 L 157.32 86.96 C 156.62 86.53 155.71 86.74 155.27 87.44 C 154.84 88.14 155.06 89.05 155.75 89.49 L 156.59 90.00 C 157.28 90.44 158.20 90.22 158.63 89.53 C 159.07 88.83 158.85 87.91 158.15 87.48 Z M 157.28 86.92 L 156.38 86.41 C 155.66 86.00 154.74 86.25 154.33 86.97 C 153.93 87.69 154.18 88.61 154.90 89.02 L 155.80 89.53 C 156.52 89.94 157.43 89.68 157.84 88.96 C 158.25 88.24 158.00 87.33 157.28 86.92 Z M 156.25 86.33 L 155.17 85.85 C 154.41 85.51 153.51 85.85 153.17 86.62 C 152.83 87.39 153.18 88.28 153.94 88.62 L 155.02 89.10 C 155.79 89.44 156.69 89.09 157.02 88.33 C 157.36 87.56 157.02 86.67 156.25 86.33 Z M 153.27 86.37 L 153.10 86.62 C 152.62 87.33 152.81 88.30 153.52 88.78 C 154.23 89.26 155.19 89.07 155.67 88.36 L 155.84 88.10 C 156.32 87.40 156.14 86.43 155.43 85.95 C 154.72 85.47 153.75 85.66 153.27 86.37 Z M 153.10 88.44 L 153.81 89.41 C 154.34 90.12 155.34 90.27 156.05 89.75 C 156.76 89.22 156.91 88.22 156.39 87.51 L 155.67 86.54 C 155.15 85.83 154.14 85.68 153.43 86.20 C 152.72 86.73 152.57 87.73 153.10 88.44 Z M 153.76 89.39 L 154.31 90.18 C 154.82 90.92 155.84 91.11 156.58 90.59 C 157.32 90.08 157.51 89.06 156.99 88.32 L 156.44 87.53 C 155.93 86.79 154.91 86.60 154.17 87.12 C 153.43 87.63 153.24 88.65 153.76 89.39 Z M 154.26 90.11 L 154.79 90.98 C 155.27 91.75 156.28 91.99 157.05 91.52 C 157.82 91.05 158.06 90.04 157.58 89.27 L 157.05 88.39 C 156.57 87.62 155.56 87.38 154.79 87.86 C 154.02 88.33 153.78 89.34 154.26 90.11 Z M 154.76 90.94 L 155.23 91.76 C 155.68 92.55 156.68 92.82 157.47 92.37 C 158.26 91.93 158.53 90.92 158.08 90.13 L 157.62 89.31 C 157.17 88.52 156.17 88.25 155.38 88.70 C 154.59 89.15 154.31 90.15 154.76 90.94 Z M 155.20 91.71 L 155.66 92.60 C 156.09 93.41 157.08 93.72 157.89 93.30 C 158.69 92.87 159.00 91.88 158.58 91.07 L 158.11 90.18 C 157.69 89.38 156.70 89.07 155.89 89.49 C 155.08 89.91 154.77 90.91 155.20 91.71 Z M 155.63 92.54 L 156.09 93.51 C 156.48 94.33 157.46 94.68 158.28 94.29 C 159.11 93.90 159.46 92.92 159.07 92.09 L 158.62 91.13 C 158.23 90.31 157.24 89.95 156.42 90.34 C 155.59 90.74 155.24 91.72 155.63 92.54 Z M 156.05 93.45 L 156.46 94.40 C 156.82 95.24 157.79 95.63 158.63 95.27 C 159.47 94.91 159.86 93.94 159.51 93.10 L 159.10 92.15 C 158.74 91.31 157.77 90.92 156.93 91.28 C 156.09 91.63 155.70 92.60 156.05 93.45 Z M 156.44 94.35 L 156.80 95.29 C 157.14 96.15 158.10 96.57 158.95 96.23 C 159.81 95.90 160.23 94.94 159.89 94.08 L 159.53 93.14 C 159.19 92.29 158.23 91.87 157.38 92.20 C 156.52 92.54 156.10 93.50 156.44 94.35 Z M 156.79 95.26 L 157.13 96.19 C 157.44 97.05 158.40 97.49 159.26 97.18 C 160.12 96.86 160.57 95.91 160.25 95.05 L 159.91 94.12 C 159.60 93.26 158.64 92.81 157.78 93.13 C 156.92 93.44 156.47 94.40 156.79 95.26 Z M 157.11 96.15 L 157.43 97.11 C 157.73 97.98 158.67 98.45 159.54 98.16 C 160.42 97.87 160.88 96.92 160.59 96.05 L 160.27 95.09 C 159.97 94.21 159.03 93.75 158.16 94.04 C 157.29 94.33 156.82 95.28 157.11 96.15 Z M 157.41 97.06 L 157.68 97.96 C 157.94 98.85 158.87 99.35 159.76 99.09 C 160.64 98.83 161.14 97.90 160.88 97.02 L 160.61 96.11 C 160.35 95.23 159.42 94.72 158.54 94.98 C 157.66 95.24 157.15 96.17 157.41 97.06 Z M 157.67 97.91 L 157.91 98.85 C 158.14 99.74 159.05 100.27 159.95 100.04 C 160.84 99.81 161.37 98.90 161.14 98.00 L 160.90 97.07 C 160.67 96.18 159.75 95.64 158.86 95.88 C 157.97 96.11 157.43 97.02 157.67 97.91 Z M 157.90 98.81 L 158.13 99.80 C 158.35 100.70 159.25 101.26 160.14 101.04 C 161.04 100.83 161.60 99.93 161.39 99.03 L 161.15 98.04 C 160.94 97.14 160.04 96.59 159.14 96.80 C 158.24 97.01 157.69 97.91 157.90 98.81 Z M 158.13 99.78 L 158.34 100.74 C 158.54 101.64 159.44 102.21 160.34 102.01 C 161.24 101.81 161.81 100.91 161.61 100.01 L 161.39 99.05 C 161.19 98.15 160.30 97.58 159.39 97.78 C 158.49 97.99 157.93 98.88 158.13 99.78 Z M 158.34 100.72 L 158.54 101.69 C 158.74 102.60 159.63 103.18 160.53 102.98 C 161.44 102.79 162.01 101.90 161.82 101.00 L 161.61 100.03 C 161.42 99.12 160.53 98.54 159.62 98.74 C 158.72 98.93 158.14 99.82 158.34 100.72 Z M 158.54 101.68 L 158.74 102.69 C 158.93 103.60 159.81 104.19 160.72 104.01 C 161.62 103.82 162.21 102.94 162.03 102.03 L 161.82 101.01 C 161.64 100.11 160.76 99.52 159.85 99.70 C 158.94 99.89 158.36 100.77 158.54 101.68 Z M 158.74 102.67 L 158.92 103.64 C 159.09 104.55 159.97 105.15 160.88 104.98 C 161.79 104.81 162.39 103.93 162.22 103.02 L 162.03 102.05 C 161.86 101.14 160.99 100.55 160.08 100.72 C 159.17 100.89 158.57 101.76 158.74 102.67 Z M 158.92 103.62 L 159.09 104.61 C 159.25 105.53 160.12 106.14 161.03 105.98 C 161.95 105.82 162.56 104.95 162.39 104.03 L 162.22 103.04 C 162.06 102.13 161.19 101.52 160.28 101.68 C 159.37 101.84 158.76 102.71 158.92 103.62 Z M 159.09 104.59 L 159.25 105.59 C 159.40 106.51 160.26 107.13 161.17 106.98 C 162.09 106.83 162.71 105.97 162.56 105.05 L 162.40 104.06 C 162.25 103.14 161.39 102.52 160.47 102.67 C 159.56 102.82 158.94 103.68 159.09 104.59 Z M 159.24 105.57 L 159.39 106.56 C 159.53 107.48 160.38 108.11 161.30 107.98 C 162.21 107.84 162.85 106.99 162.71 106.07 L 162.57 105.08 C 162.43 104.16 161.58 103.53 160.66 103.66 C 159.74 103.80 159.11 104.65 159.24 105.57 Z M 159.39 106.54 L 159.52 107.53 C 159.64 108.45 160.49 109.09 161.41 108.97 C 162.33 108.85 162.97 108.00 162.85 107.08 L 162.72 106.09 C 162.59 105.17 161.75 104.53 160.83 104.65 C 159.91 104.78 159.26 105.62 159.39 106.54 Z M 159.52 107.51 L 159.64 108.50 C 159.75 109.42 160.59 110.08 161.51 109.96 C 162.43 109.85 163.09 109.01 162.97 108.09 L 162.85 107.10 C 162.74 106.18 161.90 105.52 160.98 105.64 C 160.06 105.75 159.40 106.59 159.52 107.51 Z M 159.63 108.48 L 159.75 109.48 C 159.85 110.40 160.69 111.07 161.61 110.96 C 162.53 110.86 163.20 110.02 163.09 109.10 L 162.98 108.10 C 162.87 107.18 162.04 106.52 161.12 106.62 C 160.19 106.73 159.53 107.56 159.63 108.48 Z M 159.74 109.46 L 159.85 110.46 C 159.94 111.39 160.77 112.06 161.70 111.96 C 162.62 111.87 163.29 111.04 163.20 110.11 L 163.10 109.12 C 163.00 108.19 162.17 107.52 161.24 107.61 C 160.32 107.71 159.65 108.54 159.74 109.46 Z M 159.84 110.44 L 159.94 111.44 C 160.02 112.37 160.85 113.05 161.77 112.96 C 162.70 112.87 163.38 112.05 163.30 111.12 L 163.20 110.13 C 163.11 109.20 162.29 108.52 161.36 108.61 C 160.44 108.69 159.76 109.52 159.84 110.44 Z M 159.93 111.42 L 160.02 112.42 C 160.10 113.35 160.91 114.04 161.84 113.96 C 162.77 113.88 163.46 113.06 163.38 112.13 L 163.30 111.14 C 163.22 110.21 162.40 109.52 161.47 109.60 C 160.54 109.67 159.85 110.49 159.93 111.42 Z M 160.01 112.40 L 160.09 113.40 C 160.16 114.33 160.97 115.03 161.90 114.96 C 162.84 114.89 163.53 114.07 163.46 113.14 L 163.39 112.15 C 163.32 111.21 162.51 110.52 161.57 110.59 C 160.64 110.66 159.94 111.47 160.01 112.40 Z M 160.08 113.38 L 160.15 114.38 C 160.21 115.31 161.02 116.02 161.96 115.96 C 162.89 115.90 163.60 115.09 163.53 114.15 L 163.47 113.16 C 163.40 112.22 162.60 111.52 161.66 111.58 C 160.73 111.64 160.02 112.45 160.08 113.38 Z M 160.15 114.37 L 160.21 115.36 C 160.26 116.30 161.07 117.01 162.00 116.96 C 162.94 116.90 163.65 116.10 163.60 115.16 L 163.54 114.17 C 163.48 113.23 162.68 112.52 161.74 112.57 C 160.81 112.63 160.09 113.43 160.15 114.37 Z M 160.20 115.35 L 160.25 116.35 C 160.30 117.29 161.10 118.01 162.04 117.96 C 162.98 117.92 163.70 117.12 163.65 116.18 L 163.60 115.18 C 163.55 114.24 162.75 113.52 161.82 113.56 C 160.88 113.61 160.16 114.41 160.20 115.35 Z M 160.25 116.33 L 160.29 117.32 C 160.33 118.26 161.12 118.99 162.06 118.95 C 163.00 118.92 163.73 118.12 163.70 117.18 L 163.66 116.20 C 163.62 115.26 162.82 114.52 161.88 114.56 C 160.94 114.60 160.21 115.39 160.25 116.33 Z M 160.28 117.31 L 160.32 118.28 C 160.35 119.23 161.13 119.97 162.08 119.94 C 163.02 119.91 163.76 119.12 163.73 118.17 L 163.70 117.20 C 163.67 116.25 162.88 115.51 161.94 115.54 C 160.99 115.57 160.25 116.36 160.28 117.31 Z M 160.31 118.27 L 160.34 119.28 C 160.36 120.23 161.15 120.98 162.09 120.95 C 163.04 120.93 163.79 120.14 163.76 119.19 L 163.74 118.18 C 163.71 117.24 162.92 116.49 161.98 116.52 C 161.03 116.54 160.29 117.33 160.31 118.27 Z M 160.33 119.28 L 160.35 120.29 C 160.38 121.24 161.16 121.99 162.11 121.97 C 163.06 121.95 163.81 121.16 163.79 120.21 L 163.77 119.20 C 163.75 118.25 162.96 117.50 162.01 117.52 C 161.06 117.54 160.31 118.33 160.33 119.28 Z M 160.35 120.29 L 160.37 121.28 C 160.39 122.24 161.18 122.99 162.13 122.97 C 163.08 122.95 163.84 122.16 163.82 121.21 L 163.80 120.21 C 163.78 119.26 162.99 118.51 162.04 118.53 C 161.09 118.55 160.33 119.34 160.35 120.29 Z M 160.37 121.28 L 160.38 122.29 C 160.40 123.25 161.19 124.00 162.14 123.99 C 163.10 123.97 163.86 123.18 163.84 122.23 L 163.82 121.22 C 163.80 120.26 163.02 119.50 162.06 119.52 C 161.11 119.54 160.35 120.32 160.37 121.28 Z M 160.38 122.28 L 160.39 123.29 C 160.41 124.25 161.19 125.01 162.15 125.00 C 163.11 124.99 163.87 124.20 163.86 123.24 L 163.84 122.24 C 163.83 121.28 163.05 120.52 162.09 120.53 C 161.13 120.54 160.37 121.33 160.38 122.28 Z M 160.39 123.28 L 160.40 124.29 C 160.41 125.25 161.19 126.02 162.15 126.01 C 163.10 126.00 163.88 125.22 163.87 124.26 L 163.86 123.25 C 163.85 122.29 163.07 121.52 162.11 121.53 C 161.15 121.54 160.38 122.32 160.39 123.28 Z M 160.39 124.28 L 160.40 125.27 C 160.40 126.24 161.18 127.01 162.14 127.01 C 163.10 127.00 163.88 126.22 163.87 125.26 L 163.87 124.27 C 163.87 123.31 163.09 122.53 162.13 122.54 C 161.17 122.54 160.39 123.32 160.39 124.28 Z M 160.39 125.27 L 160.40 126.26 C 160.40 127.23 161.18 128.01 162.14 128.01 C 163.10 128.00 163.88 127.22 163.88 126.26 L 163.88 125.27 C 163.88 124.31 163.10 123.53 162.14 123.53 C 161.17 123.53 160.39 124.31 160.39 125.27 Z M 160.39 126.26 L 160.39 127.25 C 160.39 128.21 161.17 129.00 162.14 129.00 C 163.10 129.00 163.88 128.21 163.88 127.25 L 163.88 126.26 C 163.88 125.30 163.10 124.52 162.14 124.52 C 161.17 124.52 160.39 125.30 160.39 126.26 Z M 160.39 127.25 L 160.39 128.25 C 160.39 129.21 161.17 130.00 162.14 130.00 C 163.10 130.00 163.88 129.21 163.88 128.25 L 163.88 127.25 C 163.88 126.29 163.10 125.51 162.14 125.51 C 161.17 125.51 160.39 126.29 160.39 127.25 Z M 160.39 128.25 L 160.39 129.26 C 160.39 130.22 161.17 131.01 162.14 131.01 C 163.10 131.01 163.88 130.22 163.88 129.26 L 163.88 128.25 C 163.88 127.29 163.10 126.50 162.14 126.50 C 161.17 126.50 160.39 127.29 160.39 128.25 Z M 160.39 129.26 L 160.39 130.27 C 160.39 131.23 161.17 132.01 162.14 132.01 C 163.10 132.01 163.89 131.23 163.89 130.27 L 163.89 129.26 C 163.89 128.29 163.10 127.51 162.14 127.51 C 161.17 127.51 160.39 128.29 160.39 129.26 Z M 160.39 130.26 L 160.39 131.27 C 160.39 132.23 161.17 133.02 162.13 133.02 C 163.10 133.02 163.88 132.24 163.89 131.27 L 163.89 130.27 C 163.89 129.30 163.10 128.52 162.14 128.52 C 161.17 128.52 160.39 129.30 160.39 130.26 Z M 160.39 131.26 L 160.38 132.26 C 160.38 133.23 161.16 134.02 162.13 134.02 C 163.09 134.02 163.88 133.24 163.88 132.28 L 163.89 131.28 C 163.89 130.31 163.11 129.52 162.14 129.52 C 161.18 129.52 160.39 130.30 160.39 131.26 Z M 160.38 132.25 L 160.37 133.25 C 160.36 134.22 161.14 135.01 162.11 135.02 C 163.08 135.03 163.87 134.25 163.87 133.28 L 163.88 132.28 C 163.89 131.32 163.11 130.53 162.15 130.52 C 161.18 130.51 160.39 131.29 160.38 132.25 Z M 160.37 133.24 L 160.36 134.25 C 160.34 135.22 161.11 136.02 162.08 136.03 C 163.05 136.05 163.84 135.28 163.86 134.31 L 163.88 133.29 C 163.89 132.33 163.12 131.53 162.15 131.51 C 161.18 131.50 160.39 132.27 160.37 133.24 Z M 160.36 134.24 L 160.33 135.24 C 160.31 136.21 161.07 137.01 162.04 137.03 C 163.00 137.06 163.81 136.29 163.83 135.33 L 163.86 134.32 C 163.88 133.36 163.12 132.55 162.15 132.53 C 161.18 132.50 160.38 133.27 160.36 134.24 Z M 160.33 135.22 L 160.29 136.20 C 160.26 137.17 161.01 137.98 161.98 138.02 C 162.94 138.06 163.76 137.30 163.80 136.33 L 163.83 135.35 C 163.87 134.38 163.12 133.57 162.15 133.53 C 161.18 133.49 160.37 134.25 160.33 135.22 Z M 160.29 136.17 L 160.24 137.17 C 160.19 138.14 160.93 138.97 161.90 139.02 C 162.86 139.07 163.69 138.33 163.74 137.36 L 163.79 136.36 C 163.85 135.39 163.11 134.57 162.14 134.52 C 161.17 134.47 160.35 135.21 160.29 136.17 Z M 160.24 137.15 L 160.18 138.15 C 160.11 139.11 160.84 139.95 161.81 140.01 C 162.78 140.07 163.61 139.34 163.67 138.38 L 163.74 137.38 C 163.80 136.42 163.07 135.58 162.11 135.52 C 161.14 135.45 160.31 136.19 160.24 137.15 Z M 160.18 138.13 L 160.10 139.13 C 160.03 140.09 160.76 140.93 161.73 141.00 C 162.69 141.07 163.53 140.35 163.60 139.38 L 163.67 138.39 C 163.74 137.42 163.02 136.58 162.05 136.51 C 161.09 136.44 160.25 137.17 160.18 138.13 Z M 160.10 139.13 L 160.03 140.15 C 159.96 141.11 160.69 141.95 161.65 142.02 C 162.62 142.09 163.46 141.36 163.53 140.40 L 163.60 139.38 C 163.67 138.42 162.95 137.58 161.98 137.51 C 161.01 137.44 160.17 138.16 160.10 139.13 Z M 160.03 140.15 L 159.96 141.17 C 159.89 142.13 160.61 142.97 161.58 143.04 C 162.55 143.11 163.39 142.38 163.46 141.42 L 163.53 140.40 C 163.60 139.43 162.87 138.59 161.91 138.52 C 160.94 138.45 160.10 139.18 160.03 140.15 Z M 159.96 141.16 L 159.88 142.14 C 159.81 143.11 160.54 143.95 161.50 144.02 C 162.47 144.10 163.31 143.37 163.38 142.40 L 163.46 141.42 C 163.53 140.45 162.80 139.61 161.84 139.54 C 160.87 139.47 160.03 140.19 159.96 141.16 Z M 159.88 142.13 L 159.80 143.13 C 159.72 144.10 160.44 144.95 161.41 145.03 C 162.38 145.10 163.22 144.38 163.30 143.42 L 163.38 142.42 C 163.46 141.45 162.74 140.60 161.78 140.52 C 160.81 140.45 159.96 141.17 159.88 142.13 Z M 159.80 143.13 L 159.72 144.12 C 159.64 145.08 160.35 145.93 161.32 146.02 C 162.28 146.10 163.13 145.39 163.21 144.42 L 163.30 143.43 C 163.38 142.46 162.67 141.61 161.70 141.53 C 160.74 141.45 159.89 142.16 159.80 143.13 Z M 159.72 144.13 L 159.64 145.10 C 159.56 146.06 160.28 146.91 161.24 146.99 C 162.21 147.07 163.06 146.35 163.13 145.38 L 163.21 144.41 C 163.29 143.45 162.57 142.60 161.61 142.52 C 160.64 142.44 159.80 143.16 159.72 144.13 Z M 159.64 145.12 L 159.57 146.09 C 159.50 147.06 160.23 147.90 161.20 147.96 C 162.16 148.03 163.00 147.30 163.07 146.33 L 163.14 145.36 C 163.20 144.39 162.47 143.56 161.51 143.49 C 160.54 143.42 159.71 144.15 159.64 145.12 Z M 159.57 146.10 L 159.51 147.10 C 159.45 148.07 160.18 148.90 161.15 148.97 C 162.11 149.03 162.95 148.29 163.01 147.33 L 163.07 146.32 C 163.13 145.36 162.40 144.53 161.43 144.46 C 160.46 144.40 159.63 145.14 159.57 146.10 Z M 159.51 147.10 L 159.44 148.11 C 159.37 149.08 160.10 149.91 161.07 149.98 C 162.04 150.04 162.87 149.31 162.94 148.34 L 163.01 147.33 C 163.07 146.37 162.34 145.53 161.37 145.47 C 160.41 145.40 159.57 146.13 159.51 147.10 Z M 159.44 148.10 L 159.37 149.08 C 159.29 150.05 160.02 150.89 160.99 150.96 C 161.95 151.03 162.79 150.31 162.86 149.34 L 162.94 148.36 C 163.01 147.39 162.28 146.55 161.32 146.48 C 160.35 146.41 159.51 147.13 159.44 148.10 Z M 159.37 149.08 L 159.29 150.08 C 159.22 151.05 159.95 151.89 160.91 151.96 C 161.88 152.03 162.72 151.31 162.79 150.34 L 162.86 149.34 C 162.94 148.38 162.21 147.53 161.25 147.46 C 160.28 147.39 159.44 148.12 159.37 149.08 Z M 159.29 150.10 L 159.22 151.10 C 159.16 152.06 159.89 152.90 160.86 152.96 C 161.82 153.03 162.66 152.30 162.72 151.33 L 162.79 150.33 C 162.86 149.36 162.12 148.53 161.16 148.46 C 160.19 148.40 159.36 149.13 159.29 150.10 Z M 159.22 151.11 L 159.17 152.10 C 159.11 153.07 159.85 153.90 160.82 153.95 C 161.78 154.01 162.61 153.27 162.67 152.30 L 162.72 151.32 C 162.78 150.35 162.04 149.52 161.07 149.47 C 160.11 149.41 159.28 150.15 159.22 151.11 Z M 159.17 152.11 L 159.11 153.12 C 159.06 154.08 159.81 154.91 160.77 154.96 C 161.74 155.01 162.56 154.27 162.61 153.30 L 162.67 152.29 C 162.72 151.33 161.97 150.50 161.01 150.45 C 160.04 150.40 159.22 151.15 159.17 152.11 Z M 159.11 153.12 L 159.06 154.12 C 159.02 155.08 159.76 155.91 160.73 155.96 C 161.69 156.00 162.51 155.26 162.56 154.29 L 162.61 153.30 C 162.66 152.33 161.92 151.51 160.95 151.46 C 159.99 151.41 159.16 152.15 159.11 153.12 Z M 159.07 154.12 L 159.02 155.09 C 158.97 156.06 159.71 156.88 160.67 156.93 C 161.64 156.98 162.46 156.24 162.51 155.27 L 162.56 154.30 C 162.61 153.33 161.87 152.51 160.90 152.46 C 159.94 152.41 159.12 153.15 159.07 154.12 Z M 159.02 155.09 L 158.96 156.09 C 158.91 157.06 159.65 157.88 160.62 157.93 C 161.58 157.98 162.41 157.24 162.46 156.28 L 162.51 155.27 C 162.56 154.31 161.82 153.49 160.86 153.43 C 159.89 153.38 159.07 154.12 159.02 155.09 Z M 158.96 156.09 L 158.91 157.12 C 158.85 158.08 159.59 158.91 160.56 158.96 C 161.52 159.02 162.35 158.28 162.40 157.31 L 162.46 156.28 C 162.51 155.32 161.77 154.49 160.81 154.44 C 159.84 154.38 159.02 155.12 158.96 156.09 Z M 158.91 157.11 L 158.85 158.13 C 158.79 159.09 159.53 159.92 160.49 159.98 C 161.46 160.03 162.28 159.30 162.34 158.33 L 162.40 157.32 C 162.45 156.35 161.72 155.53 160.75 155.47 C 159.79 155.42 158.96 156.15 158.91 157.11 Z M 158.85 158.13 L 158.79 159.14 C 158.73 160.10 159.47 160.93 160.43 160.99 C 161.39 161.05 162.22 160.31 162.28 159.35 L 162.34 158.34 C 162.39 157.37 161.66 156.55 160.70 156.49 C 159.74 156.43 158.91 157.16 158.85 158.13 Z M 158.79 159.14 L 158.73 160.12 C 158.67 161.08 159.41 161.91 160.37 161.97 C 161.33 162.02 162.16 161.29 162.21 160.33 L 162.27 159.35 C 162.33 158.39 161.60 157.56 160.64 157.51 C 159.68 157.45 158.85 158.18 158.79 159.14 Z M 158.73 160.12 L 158.67 161.16 C 158.61 162.12 159.34 162.95 160.30 163.01 C 161.26 163.07 162.09 162.34 162.15 161.38 L 162.21 160.33 C 162.27 159.37 161.54 158.54 160.58 158.49 C 159.62 158.43 158.79 159.16 158.73 160.12 Z M 158.67 161.16 L 158.61 162.16 C 158.54 163.11 159.27 163.94 160.23 164.01 C 161.19 164.07 162.02 163.34 162.08 162.39 L 162.15 161.38 C 162.21 160.43 161.48 159.60 160.52 159.53 C 159.57 159.47 158.74 160.20 158.67 161.16 Z M 158.61 162.13 L 158.54 163.07 C 158.46 164.03 159.18 164.87 160.13 164.94 C 161.09 165.02 161.93 164.30 162.00 163.34 L 162.08 162.41 C 162.15 161.45 161.44 160.61 160.48 160.54 C 159.52 160.46 158.69 161.18 158.61 162.13 Z M 158.54 163.04 L 158.44 164.05 C 158.35 165.01 159.05 165.85 160.00 165.95 C 160.96 166.04 161.80 165.34 161.90 164.39 L 162.00 163.38 C 162.09 162.42 161.39 161.57 160.44 161.48 C 159.48 161.39 158.64 162.08 158.54 163.04 Z M 158.45 164.03 L 158.34 165.02 C 158.23 165.97 158.92 166.82 159.87 166.93 C 160.82 167.04 161.68 166.35 161.78 165.40 L 161.89 164.41 C 162.00 163.46 161.31 162.60 160.36 162.50 C 159.41 162.39 158.55 163.08 158.45 164.03 Z M 158.34 165.02 L 158.23 166.00 C 158.13 166.95 158.81 167.81 159.76 167.91 C 160.71 168.02 161.56 167.33 161.67 166.38 L 161.78 165.40 C 161.89 164.45 161.20 163.59 160.25 163.49 C 159.30 163.38 158.45 164.07 158.34 165.02 Z M 158.24 166.00 L 158.13 167.00 C 158.02 167.94 158.70 168.80 159.65 168.90 C 160.59 169.01 161.45 168.32 161.55 167.38 L 161.66 166.38 C 161.77 165.44 161.09 164.58 160.14 164.48 C 159.20 164.37 158.34 165.05 158.24 166.00 Z M 158.13 166.97 L 158.01 167.96 C 157.89 168.90 158.56 169.76 159.50 169.88 C 160.44 169.99 161.30 169.33 161.42 168.38 L 161.54 167.40 C 161.66 166.46 160.99 165.60 160.05 165.48 C 159.11 165.36 158.25 166.03 158.13 166.97 Z M 158.02 167.92 L 157.88 168.90 C 157.74 169.83 158.38 170.70 159.32 170.84 C 160.25 170.98 161.13 170.34 161.26 169.40 L 161.41 168.42 C 161.55 167.49 160.90 166.62 159.97 166.48 C 159.03 166.34 158.16 166.98 158.02 167.92 Z M 157.89 168.87 L 157.72 169.86 C 157.56 170.79 158.19 171.67 159.12 171.83 C 160.05 171.98 160.93 171.35 161.09 170.42 L 161.25 169.43 C 161.41 168.50 160.78 167.62 159.85 167.46 C 158.92 167.31 158.04 167.94 157.89 168.87 Z M 157.73 169.84 L 157.56 170.80 C 157.39 171.73 158.01 172.61 158.94 172.77 C 159.86 172.94 160.75 172.32 160.91 171.39 L 161.08 170.44 C 161.25 169.51 160.63 168.63 159.70 168.46 C 158.77 168.30 157.89 168.92 157.73 169.84 Z M 157.56 170.79 L 157.38 171.77 C 157.21 172.69 157.83 173.58 158.75 173.75 C 159.68 173.92 160.57 173.30 160.73 172.38 L 160.91 171.40 C 161.08 170.47 160.47 169.59 159.54 169.42 C 158.61 169.25 157.73 169.87 157.56 170.79 Z M 157.38 171.77 L 157.19 172.79 C 157.03 173.72 157.64 174.60 158.57 174.77 C 159.49 174.94 160.38 174.33 160.55 173.40 L 160.73 172.38 C 160.90 171.45 160.29 170.56 159.36 170.39 C 158.44 170.23 157.55 170.84 157.38 171.77 Z M 157.20 172.79 L 157.02 173.77 C 156.85 174.70 157.47 175.58 158.39 175.75 C 159.32 175.92 160.20 175.30 160.37 174.38 L 160.55 173.40 C 160.71 172.47 160.10 171.59 159.17 171.42 C 158.25 171.25 157.36 171.87 157.20 172.79 Z M 157.02 173.78 L 156.84 174.77 C 156.68 175.70 157.29 176.58 158.22 176.75 C 159.14 176.91 160.02 176.30 160.19 175.37 L 160.37 174.37 C 160.53 173.45 159.92 172.57 158.99 172.40 C 158.07 172.23 157.19 172.85 157.02 173.78 Z M 156.84 174.77 L 156.67 175.76 C 156.50 176.69 157.12 177.57 158.04 177.73 C 158.96 177.90 159.85 177.28 160.01 176.36 L 160.19 175.37 C 160.35 174.45 159.74 173.57 158.82 173.40 C 157.89 173.23 157.01 173.85 156.84 174.77 Z M 156.67 175.76 L 156.49 176.75 C 156.32 177.68 156.94 178.56 157.86 178.73 C 158.78 178.89 159.67 178.28 159.83 177.36 L 160.01 176.36 C 160.18 175.44 159.56 174.56 158.64 174.39 C 157.72 174.22 156.83 174.84 156.67 175.76 Z M 156.49 176.75 L 156.31 177.72 C 156.14 178.64 156.76 179.53 157.68 179.70 C 158.60 179.86 159.48 179.25 159.65 178.33 L 159.83 177.36 C 160.00 176.44 159.39 175.55 158.46 175.39 C 157.54 175.22 156.66 175.83 156.49 176.75 Z M 156.31 177.71 L 156.13 178.68 C 155.96 179.60 156.57 180.49 157.49 180.66 C 158.41 180.83 159.30 180.23 159.47 179.31 L 159.65 178.34 C 159.82 177.41 159.22 176.53 158.29 176.36 C 157.37 176.18 156.49 176.79 156.31 177.71 Z M 156.14 178.67 L 155.95 179.65 C 155.77 180.57 156.37 181.46 157.29 181.64 C 158.21 181.82 159.10 181.22 159.28 180.30 L 159.47 179.32 C 159.65 178.39 159.04 177.50 158.12 177.33 C 157.20 177.15 156.31 177.75 156.14 178.67 Z M 155.95 179.64 L 155.75 180.63 C 155.57 181.55 156.16 182.44 157.08 182.63 C 158.00 182.81 158.89 182.22 159.08 181.30 L 159.28 180.31 C 159.46 179.39 158.87 178.50 157.95 178.31 C 157.03 178.13 156.13 178.72 155.95 179.64 Z M 155.75 180.61 L 155.54 181.60 C 155.35 182.52 155.93 183.42 156.85 183.62 C 157.76 183.81 158.67 183.23 158.86 182.31 L 159.07 181.32 C 159.27 180.40 158.69 179.50 157.77 179.30 C 156.85 179.11 155.95 179.69 155.75 180.61 Z M 155.55 181.58 L 155.32 182.56 C 155.12 183.48 155.69 184.39 156.61 184.59 C 157.52 184.80 158.43 184.22 158.64 183.31 L 158.86 182.33 C 159.06 181.42 158.49 180.51 157.58 180.30 C 156.66 180.09 155.75 180.67 155.55 181.58 Z M 155.33 182.55 L 155.10 183.50 C 154.89 184.42 155.45 185.33 156.37 185.54 C 157.28 185.76 158.19 185.19 158.41 184.28 L 158.63 183.32 C 158.85 182.41 158.28 181.50 157.37 181.28 C 156.46 181.07 155.54 181.64 155.33 182.55 Z M 155.11 183.49 L 154.86 184.49 C 154.64 185.40 155.20 186.32 156.11 186.54 C 157.02 186.76 157.94 186.20 158.16 185.29 L 158.40 184.29 C 158.63 183.38 158.07 182.46 157.16 182.24 C 156.24 182.02 155.33 182.58 155.11 183.49 Z M 154.87 184.47 L 154.62 185.43 C 154.39 186.34 154.94 187.26 155.85 187.49 C 156.76 187.73 157.68 187.18 157.91 186.27 L 158.16 185.31 C 158.39 184.40 157.84 183.48 156.93 183.24 C 156.03 183.01 155.10 183.56 154.87 184.47 Z M 154.63 185.40 L 154.37 186.35 C 154.12 187.25 154.65 188.19 155.55 188.44 C 156.46 188.69 157.39 188.16 157.64 187.25 L 157.90 186.30 C 158.15 185.40 157.62 184.46 156.72 184.21 C 155.82 183.96 154.88 184.49 154.63 185.40 Z M 154.38 186.32 L 154.09 187.27 C 153.83 188.17 154.34 189.12 155.23 189.39 C 156.13 189.65 157.08 189.14 157.35 188.25 L 157.63 187.29 C 157.90 186.39 157.39 185.44 156.49 185.18 C 155.59 184.91 154.65 185.42 154.38 186.32 Z M 154.10 187.25 L 153.80 188.20 C 153.52 189.09 154.01 190.05 154.91 190.33 C 155.80 190.61 156.75 190.12 157.04 189.22 L 157.34 188.27 C 157.62 187.38 157.12 186.42 156.23 186.14 C 155.34 185.86 154.38 186.35 154.10 187.25 Z M 153.81 188.18 L 153.48 189.17 C 153.19 190.06 153.67 191.02 154.56 191.31 C 155.45 191.60 156.41 191.12 156.71 190.23 L 157.03 189.24 C 157.32 188.35 156.84 187.39 155.95 187.10 C 155.06 186.81 154.10 187.29 153.81 188.18 Z M 153.49 189.13 L 153.17 190.06 C 152.86 190.94 153.32 191.91 154.20 192.22 C 155.09 192.53 156.06 192.07 156.37 191.19 L 156.69 190.26 C 157.01 189.38 156.54 188.41 155.66 188.10 C 154.77 187.79 153.81 188.25 153.49 189.13 Z M 153.19 189.99 L 152.81 190.95 C 152.46 191.82 152.89 192.80 153.76 193.15 C 154.63 193.50 155.61 193.08 155.96 192.21 L 156.34 191.25 C 156.69 190.38 156.27 189.39 155.40 189.05 C 154.53 188.70 153.54 189.12 153.19 189.99 Z M 152.85 190.86 L 152.45 191.73 C 152.05 192.58 152.42 193.59 153.27 193.98 C 154.13 194.38 155.13 194.01 155.53 193.15 L 155.93 192.29 C 156.32 191.44 155.95 190.43 155.10 190.04 C 154.25 189.64 153.24 190.01 152.85 190.86 Z M 152.47 191.68 L 152.03 192.56 C 151.61 193.40 151.94 194.42 152.78 194.84 C 153.62 195.26 154.64 194.93 155.06 194.09 L 155.50 193.20 C 155.92 192.37 155.59 191.35 154.75 190.93 C 153.91 190.50 152.89 190.84 152.47 191.68 Z M 152.03 192.56 L 151.58 193.46 C 151.16 194.29 151.49 195.31 152.33 195.73 C 153.17 196.15 154.19 195.82 154.61 194.98 L 155.06 194.09 C 155.48 193.25 155.14 192.23 154.30 191.81 C 153.47 191.39 152.45 191.73 152.03 192.56 Z M 151.56 193.48 L 151.13 194.38 C 150.73 195.22 151.08 196.24 151.93 196.64 C 152.77 197.05 153.79 196.69 154.19 195.85 L 154.62 194.95 C 155.03 194.11 154.67 193.09 153.83 192.69 C 152.99 192.28 151.97 192.64 151.56 193.48 Z M 151.13 194.38 L 150.70 195.29 C 150.30 196.14 150.66 197.15 151.50 197.55 C 152.35 197.96 153.36 197.60 153.76 196.75 L 154.20 195.84 C 154.60 195.00 154.24 193.98 153.39 193.58 C 152.55 193.18 151.53 193.54 151.13 194.38 Z M 150.70 195.29 L 150.27 196.19 C 149.87 197.04 150.23 198.05 151.07 198.46 C 151.92 198.86 152.93 198.50 153.33 197.65 L 153.76 196.75 C 154.17 195.90 153.81 194.89 152.96 194.49 C 152.11 194.08 151.10 194.44 150.70 195.29 Z M 150.27 196.20 L 149.84 197.10 C 149.45 197.95 149.81 198.96 150.66 199.36 C 151.51 199.76 152.52 199.39 152.92 198.54 L 153.34 197.64 C 153.74 196.80 153.37 195.78 152.52 195.39 C 151.67 194.99 150.66 195.35 150.27 196.20 Z M 149.84 197.12 L 149.42 198.02 C 149.03 198.88 149.41 199.88 150.26 200.27 C 151.12 200.66 152.12 200.28 152.51 199.43 L 152.93 198.52 C 153.31 197.67 152.94 196.66 152.08 196.28 C 151.23 195.89 150.22 196.26 149.84 197.12 Z M 149.41 198.05 L 149.01 198.98 C 148.63 199.84 149.02 200.84 149.88 201.22 C 150.74 201.59 151.74 201.20 152.12 200.34 L 152.52 199.41 C 152.90 198.55 152.51 197.55 151.65 197.17 C 150.79 196.80 149.79 197.19 149.41 198.05 Z M 149.00 199.00 L 148.61 199.93 C 148.24 200.80 148.65 201.79 149.52 202.16 C 150.38 202.52 151.38 202.11 151.74 201.25 L 152.13 200.32 C 152.49 199.45 152.08 198.46 151.22 198.09 C 150.35 197.73 149.36 198.14 149.00 199.00 Z M 148.60 199.95 L 148.22 200.88 C 147.86 201.75 148.28 202.74 149.15 203.09 C 150.02 203.45 151.01 203.03 151.36 202.16 L 151.74 201.23 C 152.10 200.36 151.68 199.37 150.81 199.02 C 149.95 198.66 148.95 199.08 148.60 199.95 Z M 148.22 200.89 L 147.84 201.83 C 147.49 202.70 147.91 203.68 148.78 204.04 C 149.65 204.39 150.64 203.96 150.99 203.09 L 151.37 202.15 C 151.72 201.28 151.30 200.30 150.43 199.94 C 149.56 199.59 148.57 200.02 148.22 200.89 Z M 147.84 201.83 L 147.47 202.74 C 147.12 203.61 147.55 204.60 148.42 204.95 C 149.29 205.29 150.28 204.87 150.63 204.00 L 150.99 203.09 C 151.34 202.22 150.91 201.23 150.04 200.88 C 149.17 200.54 148.18 200.96 147.84 201.83 Z M 147.47 202.74 L 147.10 203.67 C 146.75 204.54 147.18 205.52 148.05 205.87 C 148.92 206.22 149.91 205.80 150.25 204.93 L 150.63 204.00 C 150.97 203.13 150.55 202.14 149.68 201.79 C 148.81 201.44 147.82 201.87 147.47 202.74 Z M 147.11 203.65 L 146.73 204.58 C 146.37 205.45 146.79 206.44 147.66 206.79 C 148.52 207.15 149.51 206.73 149.87 205.87 L 150.25 204.94 C 150.60 204.07 150.19 203.08 149.32 202.73 C 148.45 202.37 147.46 202.79 147.11 203.65 Z M 146.74 204.56 L 146.34 205.48 C 145.98 206.34 146.38 207.34 147.24 207.71 C 148.11 208.07 149.10 207.67 149.47 206.81 L 149.86 205.89 C 150.23 205.02 149.83 204.03 148.96 203.66 C 148.10 203.29 147.10 203.70 146.74 204.56 Z M 146.35 205.46 L 145.95 206.38 C 145.58 207.24 145.97 208.24 146.83 208.62 C 147.69 208.99 148.69 208.60 149.06 207.74 L 149.46 206.82 C 149.84 205.96 149.45 204.96 148.59 204.59 C 147.73 204.21 146.73 204.60 146.35 205.46 Z M 145.95 206.37 L 145.55 207.29 C 145.17 208.15 145.56 209.15 146.42 209.53 C 147.27 209.91 148.28 209.52 148.66 208.66 L 149.06 207.75 C 149.44 206.89 149.05 205.89 148.19 205.51 C 147.34 205.13 146.33 205.52 145.95 206.37 Z M 145.56 207.27 L 145.14 208.18 C 144.76 209.04 145.13 210.04 145.99 210.43 C 146.84 210.82 147.85 210.44 148.24 209.59 L 148.65 208.68 C 149.04 207.82 148.66 206.82 147.80 206.43 C 146.95 206.04 145.94 206.42 145.56 207.27 Z M 145.16 208.15 L 144.73 209.05 C 144.33 209.89 144.68 210.91 145.53 211.31 C 146.38 211.72 147.39 211.36 147.80 210.51 L 148.22 209.62 C 148.63 208.77 148.27 207.76 147.42 207.35 C 146.57 206.95 145.56 207.31 145.16 208.15 Z M 144.74 209.02 L 144.29 209.91 C 143.87 210.75 144.21 211.77 145.05 212.19 C 145.89 212.62 146.91 212.28 147.33 211.44 L 147.78 210.54 C 148.20 209.70 147.87 208.68 147.03 208.26 C 146.19 207.84 145.17 208.18 144.74 209.02 Z M 144.31 209.88 L 143.83 210.79 C 143.40 211.62 143.72 212.65 144.55 213.09 C 145.38 213.52 146.41 213.20 146.84 212.37 L 147.32 211.46 C 147.76 210.63 147.44 209.60 146.60 209.17 C 145.77 208.73 144.74 209.05 144.31 209.88 Z M 143.85 210.76 L 143.36 211.65 C 142.91 212.47 143.21 213.50 144.03 213.96 C 144.86 214.41 145.89 214.11 146.34 213.29 L 146.83 212.40 C 147.28 211.58 146.98 210.54 146.16 210.09 C 145.33 209.64 144.30 209.94 143.85 210.76 Z M 143.39 211.60 L 142.87 212.47 C 142.39 213.28 142.66 214.32 143.47 214.80 C 144.28 215.28 145.32 215.01 145.80 214.20 L 146.32 213.33 C 146.79 212.52 146.53 211.48 145.72 211.00 C 144.91 210.52 143.87 210.79 143.39 211.60 Z M 142.92 212.40 L 142.38 213.22 C 141.86 214.00 142.08 215.06 142.86 215.58 C 143.65 216.09 144.70 215.87 145.22 215.09 L 145.76 214.27 C 146.28 213.48 146.06 212.43 145.27 211.91 C 144.49 211.40 143.43 211.62 142.92 212.40 Z M 142.43 213.15 L 141.84 213.95 C 141.29 214.70 141.45 215.77 142.21 216.32 C 142.97 216.88 144.03 216.72 144.59 215.96 L 145.17 215.16 C 145.73 214.40 145.56 213.34 144.80 212.78 C 144.05 212.23 142.98 212.39 142.43 213.15 Z M 141.89 213.88 L 141.27 214.65 C 140.67 215.38 140.79 216.45 141.51 217.04 C 142.24 217.64 143.31 217.53 143.91 216.80 L 144.53 216.03 C 145.13 215.30 145.02 214.22 144.29 213.63 C 143.56 213.04 142.49 213.15 141.89 213.88 Z M 141.32 214.58 L 140.66 215.32 C 140.03 216.02 140.08 217.09 140.78 217.72 C 141.48 218.35 142.56 218.30 143.19 217.60 L 143.85 216.86 C 144.48 216.17 144.43 215.09 143.73 214.46 C 143.03 213.83 141.95 213.88 141.32 214.58 Z M 140.71 215.26 L 140.01 215.97 C 139.35 216.64 139.36 217.72 140.02 218.38 C 140.69 219.04 141.77 219.03 142.43 218.36 L 143.13 217.66 C 143.80 216.99 143.79 215.91 143.12 215.25 C 142.45 214.59 141.37 214.59 140.71 215.26 Z M 140.05 215.93 L 139.32 216.62 C 138.64 217.27 138.61 218.35 139.26 219.03 C 139.90 219.71 140.98 219.74 141.66 219.09 L 142.39 218.40 C 143.08 217.76 143.11 216.68 142.46 216.00 C 141.81 215.31 140.73 215.28 140.05 215.93 Z M 139.35 216.60 L 138.62 217.25 C 137.92 217.89 137.87 218.96 138.50 219.66 C 139.14 220.36 140.21 220.41 140.91 219.78 L 141.64 219.12 C 142.33 218.49 142.39 217.41 141.75 216.71 C 141.12 216.02 140.04 215.96 139.35 216.60 Z M 138.64 217.23 L 137.88 217.90 C 137.17 218.52 137.10 219.60 137.72 220.31 C 138.34 221.01 139.42 221.09 140.13 220.47 L 140.89 219.80 C 141.60 219.18 141.67 218.10 141.05 217.40 C 140.43 216.69 139.35 216.61 138.64 217.23 Z M 137.90 217.88 L 137.14 218.53 C 136.42 219.14 136.33 220.21 136.94 220.93 C 137.55 221.65 138.63 221.74 139.34 221.13 L 140.11 220.48 C 140.82 219.87 140.91 218.80 140.30 218.08 C 139.69 217.36 138.62 217.27 137.90 217.88 Z M 137.15 218.52 L 136.37 219.16 C 135.65 219.77 135.55 220.84 136.15 221.56 C 136.75 222.29 137.83 222.39 138.55 221.79 L 139.33 221.14 C 140.06 220.54 140.16 219.46 139.55 218.74 C 138.95 218.02 137.88 217.92 137.15 218.52 Z M 136.38 219.16 L 135.61 219.79 C 134.88 220.39 134.77 221.46 135.37 222.19 C 135.96 222.92 137.04 223.03 137.77 222.43 L 138.54 221.79 C 139.27 221.20 139.38 220.12 138.78 219.40 C 138.19 218.67 137.11 218.56 136.38 219.16 Z M 135.60 219.79 L 134.84 220.42 C 134.11 221.02 134.00 222.10 134.60 222.82 C 135.20 223.55 136.27 223.66 137.00 223.06 L 137.77 222.43 C 138.50 221.83 138.60 220.76 138.00 220.03 C 137.41 219.30 136.33 219.20 135.60 219.79 Z M 134.82 220.44 L 134.06 221.07 C 133.34 221.68 133.25 222.76 133.86 223.48 C 134.46 224.20 135.54 224.29 136.26 223.68 L 137.02 223.05 C 137.74 222.44 137.83 221.36 137.22 220.64 C 136.62 219.92 135.54 219.83 134.82 220.44 Z M 134.04 221.09 L 133.30 221.74 C 132.58 222.35 132.51 223.43 133.12 224.15 C 133.74 224.86 134.82 224.94 135.53 224.32 L 136.28 223.67 C 136.99 223.05 137.07 221.97 136.45 221.26 C 135.84 220.55 134.76 220.47 134.04 221.09 Z M 133.28 221.74 L 132.51 222.42 C 131.80 223.04 131.73 224.12 132.36 224.83 C 132.98 225.54 134.06 225.61 134.77 224.99 L 135.54 224.31 C 136.25 223.69 136.32 222.61 135.70 221.90 C 135.08 221.19 134.00 221.12 133.28 221.74 Z M 132.51 222.42 L 131.77 223.07 C 131.06 223.70 130.99 224.78 131.61 225.49 C 132.24 226.20 133.32 226.27 134.03 225.64 L 134.78 224.99 C 135.49 224.36 135.56 223.28 134.93 222.57 C 134.30 221.86 133.22 221.79 132.51 222.42 Z M 131.77 223.07 L 131.01 223.73 C 130.30 224.36 130.23 225.45 130.86 226.16 C 131.48 226.87 132.57 226.94 133.28 226.31 L 134.04 225.65 C 134.75 225.02 134.82 223.93 134.19 223.22 C 133.56 222.51 132.48 222.44 131.77 223.07 Z M 131.01 223.73 L 130.26 224.39 C 129.55 225.02 129.48 226.11 130.11 226.82 C 130.73 227.53 131.82 227.60 132.54 226.97 L 133.28 226.31 C 134.00 225.69 134.07 224.60 133.44 223.88 C 132.81 223.17 131.72 223.10 131.01 223.73 Z M 130.26 224.39 L 129.51 225.05 C 128.80 225.68 128.73 226.77 129.36 227.48 C 129.99 228.19 131.08 228.26 131.80 227.63 L 132.54 226.97 C 133.25 226.34 133.32 225.25 132.69 224.54 C 132.06 223.83 130.97 223.76 130.26 224.39 Z M 129.50 225.05 L 128.75 225.73 C 128.04 226.36 127.97 227.45 128.61 228.16 C 129.24 228.88 130.33 228.94 131.05 228.30 L 131.80 227.63 C 132.51 226.99 132.58 225.90 131.94 225.19 C 131.31 224.48 130.22 224.42 129.50 225.05 Z M 128.74 225.73 L 128.02 226.38 C 127.31 227.02 127.25 228.12 127.89 228.82 C 128.53 229.53 129.63 229.59 130.34 228.95 L 131.05 228.30 C 131.76 227.66 131.82 226.57 131.18 225.86 C 130.54 225.15 129.45 225.09 128.74 225.73 Z M 128.01 226.39 L 127.27 227.06 C 126.57 227.71 126.52 228.80 127.16 229.51 C 127.81 230.21 128.90 230.26 129.61 229.62 L 130.35 228.94 C 131.05 228.30 131.10 227.20 130.46 226.50 C 129.81 225.79 128.72 225.74 128.01 226.39 Z M 127.26 227.06 L 126.51 227.76 C 125.80 228.41 125.76 229.51 126.41 230.21 C 127.06 230.92 128.15 230.96 128.86 230.31 L 129.62 229.61 C 130.32 228.96 130.36 227.87 129.71 227.16 C 129.06 226.46 127.97 226.41 127.26 227.06 Z M 126.50 227.76 L 125.77 228.44 C 125.06 229.10 125.02 230.20 125.68 230.90 C 126.33 231.60 127.43 231.64 128.13 230.99 L 128.86 230.31 C 129.57 229.66 129.61 228.56 128.95 227.86 C 128.30 227.15 127.20 227.11 126.50 227.76 Z M 125.77 228.44 L 125.03 229.12 C 124.32 229.77 124.28 230.88 124.93 231.58 C 125.58 232.29 126.68 232.33 127.39 231.68 L 128.13 231.00 C 128.84 230.34 128.88 229.24 128.23 228.54 C 127.58 227.83 126.48 227.79 125.77 228.44 Z M 125.04 229.11 L 124.30 229.78 C 123.59 230.43 123.53 231.53 124.18 232.24 C 124.83 232.96 125.93 233.01 126.64 232.36 L 127.38 231.69 C 128.09 231.04 128.15 229.94 127.50 229.23 C 126.85 228.52 125.75 228.46 125.04 229.11 Z M 124.31 229.77 L 123.55 230.44 C 122.83 231.08 122.77 232.18 123.40 232.90 C 124.04 233.62 125.15 233.69 125.87 233.05 L 126.63 232.38 C 127.35 231.74 127.42 230.64 126.78 229.92 C 126.14 229.19 125.04 229.13 124.31 229.77 Z M 123.57 230.42 L 122.82 231.07 C 122.09 231.70 122.01 232.81 122.64 233.54 C 123.27 234.27 124.37 234.35 125.10 233.72 L 125.85 233.07 C 126.58 232.44 126.66 231.33 126.03 230.60 C 125.40 229.87 124.30 229.79 123.57 230.42 Z M 122.83 231.06 L 122.07 231.70 C 121.34 232.33 121.25 233.43 121.87 234.17 C 122.50 234.90 123.61 234.99 124.34 234.37 L 125.09 233.73 C 125.83 233.10 125.92 232.00 125.29 231.26 C 124.67 230.52 123.56 230.43 122.83 231.06 Z M 122.08 231.69 L 121.33 232.32 C 120.59 232.94 120.49 234.05 121.11 234.79 C 121.73 235.53 122.84 235.63 123.58 235.01 L 124.34 234.38 C 125.08 233.75 125.17 232.65 124.55 231.91 C 123.93 231.16 122.82 231.07 122.08 231.69 Z M 121.34 232.31 L 120.57 232.95 C 119.82 233.56 119.71 234.67 120.33 235.42 C 120.94 236.17 122.05 236.27 122.80 235.66 L 123.57 235.02 C 124.32 234.40 124.43 233.30 123.81 232.55 C 123.19 231.80 122.09 231.69 121.34 232.31 Z M 120.58 232.93 L 119.79 233.56 C 119.03 234.17 118.91 235.27 119.52 236.03 C 120.13 236.79 121.23 236.91 121.99 236.31 L 122.78 235.67 C 123.54 235.07 123.66 233.96 123.05 233.20 C 122.45 232.44 121.34 232.32 120.58 232.93 Z M 119.81 233.54 L 119.04 234.15 C 118.27 234.74 118.13 235.85 118.73 236.61 C 119.32 237.38 120.43 237.52 121.19 236.93 L 121.97 236.32 C 122.74 235.73 122.88 234.62 122.28 233.86 C 121.69 233.09 120.58 232.95 119.81 233.54 Z M 119.06 234.13 L 118.26 234.73 C 117.48 235.31 117.32 236.42 117.91 237.19 C 118.49 237.97 119.59 238.13 120.37 237.54 L 121.17 236.94 C 121.95 236.36 122.10 235.26 121.52 234.48 C 120.94 233.70 119.84 233.55 119.06 234.13 Z M 118.28 234.71 L 117.46 235.31 C 116.67 235.88 116.49 236.98 117.06 237.76 C 117.63 238.55 118.73 238.73 119.51 238.16 L 120.34 237.56 C 121.13 236.99 121.30 235.90 120.74 235.11 C 120.17 234.32 119.07 234.15 118.28 234.71 Z M 117.48 235.29 L 116.67 235.86 C 115.88 236.41 115.68 237.50 116.23 238.30 C 116.79 239.10 117.88 239.29 118.68 238.74 L 119.49 238.18 C 120.28 237.62 120.48 236.53 119.93 235.73 C 119.37 234.94 118.28 234.74 117.48 235.29 Z M 116.70 235.84 L 115.87 236.39 C 115.06 236.93 114.85 238.02 115.39 238.83 C 115.93 239.64 117.02 239.85 117.82 239.31 L 118.65 238.76 C 119.46 238.22 119.68 237.13 119.14 236.32 C 118.60 235.52 117.51 235.30 116.70 235.84 Z M 115.90 236.38 L 115.05 236.92 C 114.23 237.45 113.99 238.53 114.52 239.35 C 115.04 240.17 116.13 240.40 116.95 239.88 L 117.80 239.33 C 118.61 238.81 118.85 237.72 118.32 236.90 C 117.80 236.09 116.71 235.85 115.90 236.38 Z M 115.07 236.91 L 114.24 237.42 C 113.41 237.94 113.16 239.02 113.67 239.84 C 114.18 240.67 115.26 240.92 116.09 240.41 L 116.92 239.89 C 117.75 239.38 118.00 238.30 117.49 237.48 C 116.98 236.65 115.90 236.40 115.07 236.91 Z M 114.26 237.41 L 113.42 237.92 C 112.59 238.42 112.32 239.50 112.82 240.33 C 113.32 241.16 114.39 241.43 115.22 240.93 L 116.07 240.42 C 116.90 239.92 117.16 238.84 116.67 238.01 C 116.17 237.18 115.09 236.91 114.26 237.41 Z M 113.43 237.91 L 112.56 238.43 C 111.73 238.92 111.45 239.99 111.94 240.83 C 112.43 241.66 113.51 241.94 114.34 241.44 L 115.21 240.93 C 116.04 240.44 116.32 239.37 115.83 238.53 C 115.34 237.70 114.26 237.42 113.43 237.91 Z M 112.57 238.43 L 111.68 238.95 C 110.85 239.43 110.56 240.50 111.05 241.34 C 111.54 242.17 112.61 242.45 113.44 241.97 L 114.33 241.45 C 115.17 240.96 115.45 239.89 114.96 239.05 C 114.47 238.22 113.40 237.94 112.57 238.43 Z M 111.68 238.95 L 110.82 239.45 C 109.98 239.94 109.70 241.01 110.19 241.84 C 110.67 242.67 111.74 242.96 112.58 242.47 L 113.44 241.96 C 114.27 241.48 114.56 240.41 114.07 239.58 C 113.58 238.74 112.51 238.46 111.68 238.95 Z M 110.81 239.45 L 109.94 239.96 C 109.11 240.45 108.83 241.52 109.32 242.35 C 109.80 243.18 110.87 243.46 111.70 242.98 L 112.58 242.47 C 113.41 241.98 113.69 240.91 113.20 240.08 C 112.72 239.25 111.65 238.97 110.81 239.45 Z M 109.94 239.97 L 109.07 240.48 C 108.24 240.97 107.97 242.04 108.46 242.87 C 108.94 243.70 110.01 243.97 110.84 243.48 L 111.71 242.97 C 112.54 242.49 112.81 241.42 112.33 240.59 C 111.84 239.76 110.77 239.48 109.94 239.97 Z M 109.07 240.48 L 108.20 241.00 C 107.38 241.49 107.11 242.56 107.60 243.39 C 108.09 244.21 109.16 244.48 109.99 243.99 L 110.85 243.48 C 111.68 242.98 111.95 241.91 111.46 241.09 C 110.96 240.26 109.89 239.99 109.07 240.48 Z M 108.19 241.01 L 107.32 241.54 C 106.50 242.04 106.24 243.11 106.74 243.93 C 107.24 244.75 108.31 245.01 109.13 244.51 L 110.00 243.98 C 110.82 243.48 111.08 242.41 110.58 241.59 C 110.08 240.77 109.01 240.51 108.19 241.01 Z M 107.29 241.56 L 106.46 242.09 C 105.65 242.60 105.41 243.67 105.92 244.49 C 106.43 245.30 107.51 245.54 108.32 245.02 L 109.16 244.49 C 109.97 243.98 110.21 242.91 109.69 242.09 C 109.18 241.28 108.10 241.04 107.29 241.56 Z M 106.42 242.11 L 105.61 242.65 C 104.81 243.19 104.60 244.27 105.13 245.06 C 105.67 245.86 106.75 246.07 107.54 245.54 L 108.35 245.00 C 109.15 244.47 109.37 243.39 108.83 242.59 C 108.30 241.79 107.22 241.58 106.42 242.11 Z M 105.57 242.68 L 104.77 243.26 C 103.99 243.81 103.81 244.90 104.36 245.68 C 104.92 246.46 106.00 246.64 106.78 246.08 L 107.59 245.51 C 108.37 244.95 108.55 243.87 107.99 243.09 C 107.43 242.31 106.35 242.13 105.57 242.68 Z M 104.73 243.29 L 103.94 243.89 C 103.17 244.47 103.02 245.55 103.60 246.31 C 104.17 247.08 105.26 247.23 106.02 246.65 L 106.82 246.05 C 107.58 245.48 107.73 244.39 107.16 243.63 C 106.58 242.86 105.49 242.71 104.73 243.29 Z M 103.91 243.92 L 103.12 244.54 C 102.37 245.13 102.24 246.22 102.83 246.97 C 103.43 247.71 104.51 247.84 105.26 247.25 L 106.05 246.63 C 106.80 246.04 106.93 244.95 106.33 244.20 C 105.74 243.45 104.66 243.32 103.91 243.92 Z M 103.10 244.56 L 102.32 245.20 C 101.58 245.80 101.48 246.88 102.08 247.62 C 102.68 248.36 103.77 248.47 104.50 247.87 L 105.28 247.23 C 106.02 246.63 106.13 245.54 105.52 244.80 C 104.92 244.07 103.84 243.96 103.10 244.56 Z M 102.31 245.21 L 101.54 245.86 C 100.81 246.47 100.72 247.55 101.33 248.28 C 101.94 249.01 103.03 249.10 103.75 248.49 L 104.52 247.85 C 105.25 247.24 105.34 246.15 104.73 245.42 C 104.12 244.70 103.03 244.60 102.31 245.21 Z M 101.53 245.87 L 100.77 246.53 C 100.05 247.15 99.97 248.23 100.59 248.95 C 101.21 249.67 102.29 249.75 103.01 249.13 L 103.77 248.47 C 104.49 247.85 104.57 246.77 103.95 246.05 C 103.33 245.33 102.24 245.25 101.53 245.87 Z M 100.75 246.54 L 100.00 247.21 C 99.29 247.83 99.23 248.92 99.85 249.63 C 100.48 250.33 101.56 250.40 102.27 249.77 L 103.02 249.11 C 103.73 248.48 103.80 247.40 103.17 246.69 C 102.54 245.98 101.46 245.92 100.75 246.54 Z M 99.99 247.22 L 99.25 247.90 C 98.55 248.53 98.49 249.62 99.13 250.32 C 99.76 251.01 100.85 251.07 101.54 250.43 L 102.29 249.76 C 102.99 249.12 103.04 248.04 102.41 247.34 C 101.77 246.64 100.69 246.59 99.99 247.22 Z M 99.23 247.91 L 98.50 248.60 C 97.81 249.24 97.77 250.32 98.41 251.01 C 99.06 251.71 100.14 251.74 100.83 251.10 L 101.56 250.42 C 102.25 249.77 102.29 248.69 101.65 248.00 C 101.00 247.31 99.92 247.27 99.23 247.91 Z M 98.48 248.62 L 97.76 249.31 C 97.08 249.96 97.06 251.05 97.71 251.73 C 98.37 252.41 99.45 252.43 100.13 251.77 L 100.85 251.08 C 101.53 250.42 101.55 249.34 100.90 248.66 C 100.24 247.98 99.16 247.96 98.48 248.62 Z M 97.74 249.33 L 97.03 250.03 C 96.36 250.70 96.36 251.78 97.03 252.45 C 97.70 253.12 98.78 253.12 99.45 252.45 L 100.15 251.75 C 100.82 251.08 100.82 250.00 100.16 249.33 C 99.49 248.66 98.41 248.66 97.74 249.33 Z M 97.01 250.05 L 96.32 250.77 C 95.66 251.44 95.68 252.53 96.36 253.18 C 97.03 253.84 98.12 253.82 98.77 253.15 L 99.47 252.43 C 100.12 251.76 100.11 250.67 99.43 250.02 C 98.75 249.36 97.67 249.38 97.01 250.05 Z M 96.31 250.78 L 95.62 251.51 C 94.97 252.20 95.00 253.28 95.69 253.93 C 96.37 254.57 97.45 254.54 98.10 253.86 L 98.79 253.13 C 99.44 252.44 99.41 251.36 98.72 250.72 C 98.03 250.07 96.95 250.10 96.31 250.78 Z M 95.61 251.53 L 94.92 252.27 C 94.28 252.96 94.33 254.04 95.02 254.68 C 95.71 255.32 96.79 255.28 97.43 254.58 L 98.11 253.84 C 98.75 253.15 98.71 252.07 98.02 251.43 C 97.33 250.79 96.24 250.83 95.61 251.53 Z M 94.91 252.28 L 94.21 253.05 C 93.58 253.75 93.63 254.83 94.33 255.46 C 95.03 256.09 96.11 256.04 96.74 255.34 L 97.44 254.57 C 98.07 253.87 98.02 252.79 97.32 252.16 C 96.63 251.53 95.55 251.58 94.91 252.28 Z M 94.21 253.06 L 93.53 253.82 C 92.90 254.52 92.96 255.60 93.66 256.23 C 94.36 256.86 95.44 256.80 96.07 256.10 L 96.75 255.33 C 97.38 254.63 97.32 253.55 96.62 252.93 C 95.91 252.30 94.84 252.36 94.21 253.06 Z M 93.52 253.82 L 92.88 254.55 C 92.25 255.25 92.31 256.33 93.01 256.95 C 93.72 257.58 94.79 257.52 95.42 256.82 L 96.07 256.09 C 96.69 255.39 96.63 254.31 95.93 253.69 C 95.23 253.06 94.15 253.12 93.52 253.82 Z M 92.88 254.55 L 92.20 255.31 C 91.57 256.01 91.63 257.09 92.33 257.72 C 93.03 258.34 94.11 258.28 94.73 257.58 L 95.42 256.82 C 96.05 256.12 95.99 255.04 95.28 254.41 C 94.58 253.79 93.51 253.85 92.88 254.55 Z M 92.20 255.30 L 91.52 256.06 C 90.89 256.75 90.94 257.83 91.64 258.46 C 92.34 259.09 93.41 259.04 94.04 258.34 L 94.72 257.59 C 95.36 256.90 95.30 255.82 94.61 255.19 C 93.91 254.56 92.84 254.61 92.20 255.30 Z M 91.54 256.04 L 90.91 256.72 C 90.27 257.41 90.30 258.48 90.99 259.12 C 91.67 259.76 92.75 259.73 93.39 259.04 L 94.03 258.36 C 94.67 257.67 94.63 256.60 93.94 255.96 C 93.26 255.32 92.18 255.35 91.54 256.04 Z M 90.93 256.70 L 90.22 257.43 C 89.57 258.10 89.58 259.17 90.25 259.82 C 90.92 260.48 91.99 260.47 92.65 259.80 L 93.36 259.06 C 94.01 258.39 94.00 257.32 93.33 256.67 C 92.66 256.01 91.59 256.03 90.93 256.70 Z M 90.27 257.39 L 89.55 258.07 C 88.88 258.71 88.85 259.78 89.50 260.46 C 90.14 261.14 91.21 261.16 91.89 260.52 L 92.60 259.84 C 93.28 259.19 93.30 258.12 92.66 257.44 C 92.01 256.77 90.94 256.74 90.27 257.39 Z M 89.62 258.01 L 88.89 258.64 C 88.19 259.25 88.11 260.31 88.71 261.02 C 89.32 261.72 90.38 261.80 91.09 261.20 L 91.82 260.57 C 92.53 259.96 92.61 258.90 92.00 258.19 C 91.39 257.49 90.33 257.41 89.62 258.01 Z M 89.00 258.56 L 88.20 259.15 C 87.46 259.70 87.30 260.75 87.85 261.50 C 88.39 262.24 89.45 262.40 90.19 261.85 L 90.99 261.27 C 91.73 260.72 91.90 259.67 91.35 258.92 C 90.80 258.18 89.74 258.02 89.00 258.56 Z M 88.33 259.08 L 87.45 259.61 C 86.66 260.09 86.42 261.12 86.90 261.91 C 87.38 262.70 88.41 262.94 89.20 262.46 L 90.07 261.93 C 90.86 261.44 91.11 260.41 90.62 259.63 C 90.14 258.84 89.11 258.59 88.33 259.08 Z M 87.58 259.55 L 86.67 260.00 C 85.85 260.41 85.52 261.41 85.93 262.23 C 86.34 263.05 87.34 263.39 88.16 262.98 L 89.06 262.52 C 89.89 262.11 90.22 261.12 89.81 260.30 C 89.40 259.48 88.40 259.14 87.58 259.55 Z M 86.87 259.93 L 85.93 260.26 C 85.07 260.56 84.61 261.50 84.91 262.36 C 85.21 263.22 86.15 263.67 87.01 263.38 L 87.96 263.05 C 88.82 262.75 89.27 261.81 88.97 260.95 C 88.67 260.09 87.73 259.64 86.87 259.93 Z M 86.26 260.21 L 85.26 260.34 C 84.37 260.45 83.74 261.26 83.85 262.15 C 83.97 263.04 84.78 263.67 85.67 263.56 L 86.67 263.43 C 87.56 263.32 88.19 262.50 88.08 261.62 C 87.96 260.73 87.15 260.10 86.26 260.21 Z M 85.57 260.37 L 84.58 260.31 C 83.71 260.25 82.96 260.91 82.91 261.78 C 82.85 262.65 83.51 263.40 84.38 263.46 L 85.36 263.52 C 86.23 263.58 86.98 262.92 87.04 262.05 C 87.09 261.18 86.44 260.43 85.57 260.37 Z M 84.69 260.35 L 84.20 260.29 C 83.35 260.17 82.57 260.76 82.46 261.61 C 82.34 262.45 82.94 263.23 83.78 263.34 L 84.27 263.41 C 85.12 263.53 85.89 262.94 86.01 262.09 C 86.12 261.25 85.53 260.47 84.69 260.35 Z"
      fill="black"
      fill-rule="nonzero" /></svg>