<svg xmlns="http://www.w3.org/2000/svg" width="300" height="300" viewBox="0 0 300 300">
<path d="M 74.92 88.27 L 73.87 88.37 C 73.02 88.45 72.40 89.20 72.48 90.05 C 72.56 90.89 73.31 91.51 74.16 91.43 L 75.21 91.33 C 76.05 91.25 76.67 90.50 76.59 89.66 C 76.51 88.81 75.76 88.19 74.92 88.27 Z M 72.77 88.91 L 72.31 89.49 C 71.77 90.18 71.88 91.17 72.56 91.72 C 73.25 92.26 74.24 92.15 74.79 91.46 L 75.25 90.89 C 75.79 90.20 75.68 89.21 75.00 88.66 C 74.31 88.12 73.32 88.23 72.77 88.91 Z M 71.95 90.73 L 72.11 91.75 C 72.24 92.63 73.07 93.24 73.96 93.10 C 74.84 92.97 75.45 92.14 75.31 91.25 L 75.15 90.23 C 75.02 89.35 74.19 88.74 73.30 88.88 C 72.42 89.01 71.81 89.84 71.95 90.73 Z M 72.21 92.17 L 72.64 93.13 C 73.01 93.96 73.98 94.33 74.81 93.96 C 75.64 93.59 76.01 92.62 75.64 91.79 L 75.21 90.83 C 74.84 90.00 73.87 89.63 73.04 90.00 C 72.21 90.37 71.84 91.34 72.21 92.17 Z M 72.70 93.29 L 73.22 94.17 C 73.67 94.96 74.68 95.23 75.47 94.78 C 76.27 94.32 76.54 93.31 76.08 92.52 L 75.57 91.63 C 75.11 90.84 74.10 90.57 73.31 91.03 C 72.52 91.48 72.25 92.49 72.70 93.29 Z M 73.24 94.22 L 73.78 95.08 C 74.26 95.86 75.29 96.10 76.06 95.61 C 76.84 95.13 77.08 94.11 76.59 93.33 L 76.05 92.47 C 75.57 91.69 74.55 91.45 73.77 91.94 C 72.99 92.42 72.76 93.45 73.24 94.22 Z M 73.77 95.08 L 74.32 95.97 C 74.80 96.75 75.83 96.99 76.61 96.50 C 77.39 96.02 77.63 95.00 77.15 94.22 L 76.60 93.33 C 76.12 92.55 75.09 92.31 74.31 92.79 C 73.53 93.28 73.29 94.30 73.77 95.08 Z M 74.31 95.95 L 74.81 96.78 C 75.29 97.57 76.31 97.82 77.10 97.35 C 77.88 96.87 78.13 95.85 77.66 95.06 L 77.16 94.23 C 76.68 93.44 75.66 93.19 74.87 93.67 C 74.09 94.14 73.84 95.17 74.31 95.95 Z M 74.81 96.78 L 75.31 97.60 C 75.78 98.39 76.80 98.64 77.59 98.17 C 78.37 97.70 78.63 96.68 78.16 95.89 L 77.66 95.07 C 77.19 94.28 76.17 94.03 75.38 94.50 C 74.59 94.97 74.34 95.99 74.81 96.78 Z M 75.30 97.60 L 75.81 98.45 C 76.28 99.23 77.31 99.49 78.09 99.02 C 78.88 98.55 79.14 97.52 78.66 96.74 L 78.16 95.89 C 77.68 95.10 76.66 94.85 75.88 95.32 C 75.09 95.79 74.83 96.81 75.30 97.60 Z M 75.81 98.44 L 76.34 99.33 C 76.81 100.12 77.83 100.38 78.62 99.91 C 79.41 99.44 79.67 98.42 79.20 97.63 L 78.67 96.74 C 78.20 95.95 77.18 95.69 76.39 96.16 C 75.60 96.63 75.34 97.65 75.81 98.44 Z M 76.34 99.33 L 76.82 100.16 C 77.29 100.95 78.31 101.21 79.10 100.74 C 79.89 100.28 80.15 99.26 79.69 98.47 L 79.20 97.64 C 78.74 96.85 77.72 96.59 76.93 97.05 C 76.13 97.52 75.87 98.54 76.34 99.33 Z M 76.82 100.15 L 77.33 101.02 C 77.80 101.81 78.81 102.07 79.60 101.61 C 80.39 101.14 80.66 100.13 80.20 99.34 L 79.69 98.47 C 79.22 97.68 78.21 97.42 77.42 97.88 C 76.62 98.35 76.36 99.36 76.82 100.15 Z M 77.34 101.02 L 77.86 101.91 C 78.33 102.70 79.35 102.96 80.14 102.50 C 80.92 102.03 81.18 101.01 80.72 100.22 L 80.19 99.33 C 79.72 98.54 78.71 98.28 77.92 98.75 C 77.13 99.22 76.87 100.23 77.34 101.02 Z M 77.87 101.92 L 78.37 102.75 C 78.84 103.54 79.86 103.79 80.64 103.32 C 81.43 102.85 81.68 101.83 81.21 101.05 L 80.71 100.22 C 80.24 99.43 79.22 99.18 78.44 99.65 C 77.65 100.12 77.40 101.13 77.87 101.92 Z M 78.37 102.76 L 78.89 103.61 C 79.36 104.39 80.38 104.64 81.16 104.17 C 81.95 103.70 82.20 102.68 81.72 101.90 L 81.20 101.04 C 80.73 100.26 79.71 100.01 78.93 100.48 C 78.15 100.96 77.90 101.97 78.37 102.76 Z M 78.89 103.61 L 79.43 104.49 C 79.90 105.27 80.92 105.52 81.70 105.04 C 82.48 104.57 82.73 103.55 82.25 102.77 L 81.72 101.89 C 81.24 101.11 80.23 100.87 79.45 101.34 C 78.67 101.82 78.42 102.83 78.89 103.61 Z M 79.43 104.49 L 79.94 105.33 C 80.42 106.11 81.44 106.35 82.22 105.88 C 83.00 105.40 83.24 104.38 82.76 103.61 L 82.25 102.77 C 81.77 101.99 80.76 101.75 79.98 102.22 C 79.20 102.70 78.96 103.72 79.43 104.49 Z M 79.95 105.34 L 80.47 106.18 C 80.95 106.96 81.97 107.19 82.74 106.71 C 83.52 106.23 83.76 105.22 83.28 104.44 L 82.76 103.60 C 82.28 102.82 81.26 102.58 80.48 103.06 C 79.71 103.54 79.47 104.56 79.95 105.34 Z M 80.48 106.19 L 81.02 107.05 C 81.50 107.82 82.52 108.05 83.30 107.56 C 84.07 107.08 84.30 106.06 83.81 105.29 L 83.27 104.43 C 82.79 103.66 81.77 103.43 80.99 103.91 C 80.22 104.40 79.99 105.42 80.48 106.19 Z M 81.03 107.06 L 81.58 107.91 C 82.07 108.68 83.09 108.90 83.86 108.40 C 84.63 107.91 84.85 106.89 84.35 106.12 L 83.80 105.27 C 83.31 104.50 82.28 104.29 81.52 104.78 C 80.75 105.28 80.53 106.30 81.03 107.06 Z M 81.59 107.93 L 82.13 108.74 C 82.63 109.50 83.66 109.71 84.42 109.20 C 85.18 108.70 85.38 107.67 84.88 106.91 L 84.34 106.10 C 83.83 105.34 82.81 105.14 82.05 105.64 C 81.29 106.15 81.08 107.17 81.59 107.93 Z M 82.14 108.76 L 82.70 109.58 C 83.21 110.33 84.24 110.53 84.99 110.01 C 85.75 109.50 85.94 108.47 85.43 107.72 L 84.87 106.90 C 84.35 106.15 83.33 105.95 82.57 106.46 C 81.82 106.98 81.63 108.00 82.14 108.76 Z M 82.71 109.59 L 83.30 110.43 C 83.82 111.18 84.85 111.36 85.59 110.84 C 86.34 110.31 86.52 109.29 86.00 108.54 L 85.41 107.71 C 84.89 106.96 83.87 106.78 83.12 107.30 C 82.37 107.82 82.19 108.85 82.71 109.59 Z M 83.31 110.44 L 83.90 111.27 C 84.43 112.01 85.46 112.18 86.20 111.65 C 86.94 111.12 87.11 110.10 86.58 109.36 L 85.99 108.53 C 85.46 107.79 84.43 107.62 83.69 108.15 C 82.95 108.68 82.78 109.70 83.31 110.44 Z M 83.91 111.29 L 84.51 112.10 C 85.04 112.83 86.07 112.99 86.81 112.45 C 87.54 111.92 87.70 110.89 87.16 110.15 L 86.57 109.34 C 86.03 108.61 85.00 108.45 84.27 108.99 C 83.54 109.52 83.38 110.55 83.91 111.29 Z M 84.52 112.11 L 85.13 112.92 C 85.67 113.64 86.70 113.79 87.43 113.24 C 88.15 112.70 88.30 111.67 87.75 110.94 L 87.15 110.14 C 86.60 109.41 85.57 109.27 84.85 109.81 C 84.12 110.36 83.98 111.39 84.52 112.11 Z M 85.15 112.94 L 85.76 113.73 C 86.32 114.44 87.35 114.57 88.06 114.01 C 88.77 113.46 88.90 112.43 88.35 111.72 L 87.74 110.93 C 87.18 110.21 86.15 110.08 85.44 110.64 C 84.72 111.19 84.59 112.22 85.15 112.94 Z M 85.78 113.75 L 86.41 114.53 C 86.98 115.23 88.01 115.34 88.71 114.77 C 89.41 114.21 89.52 113.18 88.96 112.47 L 88.33 111.69 C 87.76 110.99 86.73 110.88 86.03 111.45 C 85.33 112.02 85.22 113.05 85.78 113.75 Z M 86.44 114.55 L 87.09 115.33 C 87.67 116.02 88.70 116.11 89.39 115.53 C 90.08 114.95 90.17 113.92 89.59 113.23 L 88.93 112.45 C 88.35 111.76 87.32 111.67 86.63 112.25 C 85.94 112.84 85.86 113.86 86.44 114.55 Z M 87.12 115.35 L 87.77 116.10 C 88.37 116.78 89.39 116.84 90.07 116.25 C 90.75 115.66 90.81 114.63 90.22 113.95 L 89.56 113.21 C 88.97 112.53 87.94 112.46 87.27 113.06 C 86.59 113.65 86.52 114.68 87.12 115.35 Z M 87.79 116.12 L 88.45 116.85 C 89.06 117.51 90.08 117.56 90.75 116.96 C 91.41 116.35 91.46 115.33 90.86 114.66 L 90.20 113.93 C 89.60 113.27 88.57 113.22 87.90 113.82 C 87.24 114.43 87.19 115.45 87.79 116.12 Z M 88.47 116.86 L 89.15 117.59 C 89.76 118.24 90.78 118.28 91.44 117.67 C 92.09 117.06 92.13 116.03 91.52 115.37 L 90.84 114.65 C 90.23 113.99 89.21 113.96 88.55 114.57 C 87.90 115.18 87.86 116.21 88.47 116.86 Z M 89.16 117.59 L 89.85 118.32 C 90.47 118.97 91.49 118.99 92.14 118.38 C 92.78 117.76 92.81 116.74 92.20 116.09 L 91.51 115.37 C 90.89 114.72 89.87 114.69 89.22 115.31 C 88.57 115.92 88.55 116.95 89.16 117.59 Z M 89.86 118.32 L 90.55 119.05 C 91.17 119.69 92.19 119.71 92.83 119.09 C 93.48 118.48 93.50 117.45 92.88 116.81 L 92.19 116.09 C 91.57 115.45 90.55 115.42 89.91 116.04 C 89.26 116.66 89.24 117.68 89.86 118.32 Z M 90.55 119.04 L 91.25 119.76 C 91.86 120.40 92.88 120.43 93.52 119.81 C 94.16 119.19 94.18 118.17 93.57 117.53 L 92.88 116.81 C 92.26 116.17 91.24 116.15 90.60 116.77 C 89.96 117.38 89.94 118.40 90.55 119.04 Z M 91.24 119.76 L 91.94 120.48 C 92.55 121.12 93.57 121.15 94.21 120.54 C 94.85 119.92 94.87 118.91 94.26 118.26 L 93.57 117.54 C 92.96 116.90 91.94 116.87 91.30 117.49 C 90.66 118.10 90.63 119.12 91.24 119.76 Z M 91.93 120.48 L 92.62 121.20 C 93.23 121.85 94.24 121.88 94.89 121.27 C 95.53 120.66 95.56 119.64 94.95 119.00 L 94.27 118.27 C 93.66 117.63 92.64 117.60 92.00 118.21 C 91.35 118.81 91.32 119.83 91.93 120.48 Z M 92.61 121.19 L 93.29 121.92 C 93.90 122.57 94.91 122.61 95.56 122.00 C 96.21 121.40 96.24 120.39 95.64 119.74 L 94.96 119.01 C 94.35 118.36 93.34 118.32 92.69 118.93 C 92.04 119.53 92.01 120.55 92.61 121.19 Z M 93.29 121.92 L 93.96 122.65 C 94.56 123.30 95.58 123.34 96.23 122.74 C 96.88 122.15 96.92 121.13 96.32 120.48 L 95.64 119.75 C 95.05 119.10 94.03 119.05 93.38 119.65 C 92.73 120.25 92.69 121.26 93.29 121.92 Z M 93.96 122.64 L 94.63 123.38 C 95.22 124.04 96.23 124.09 96.89 123.49 C 97.54 122.90 97.59 121.89 97.00 121.23 L 96.33 120.49 C 95.73 119.84 94.72 119.79 94.07 120.38 C 93.41 120.97 93.37 121.99 93.96 122.64 Z M 94.62 123.37 L 95.29 124.12 C 95.87 124.77 96.88 124.83 97.54 124.25 C 98.20 123.66 98.26 122.65 97.67 122.00 L 97.01 121.25 C 96.42 120.59 95.41 120.53 94.75 121.12 C 94.10 121.70 94.04 122.71 94.62 123.37 Z M 95.28 124.10 L 95.94 124.85 C 96.51 125.52 97.52 125.59 98.18 125.01 C 98.84 124.43 98.91 123.43 98.34 122.76 L 97.68 122.01 C 97.10 121.35 96.10 121.28 95.43 121.86 C 94.77 122.43 94.70 123.44 95.28 124.10 Z M 95.93 124.84 L 96.57 125.59 C 97.14 126.26 98.14 126.34 98.81 125.78 C 99.47 125.21 99.56 124.21 98.99 123.54 L 98.35 122.78 C 97.78 122.11 96.78 122.03 96.11 122.60 C 95.44 123.17 95.36 124.17 95.93 124.84 Z M 96.56 125.58 L 97.19 126.34 C 97.75 127.01 98.74 127.11 99.42 126.55 C 100.09 125.99 100.19 124.99 99.63 124.32 L 99.00 123.56 C 98.44 122.88 97.45 122.79 96.77 123.35 C 96.10 123.90 96.00 124.90 96.56 125.58 Z M 97.18 126.32 L 97.80 127.09 C 98.34 127.78 99.34 127.89 100.02 127.34 C 100.70 126.80 100.81 125.80 100.27 125.12 L 99.64 124.34 C 99.10 123.66 98.10 123.55 97.42 124.10 C 96.74 124.64 96.63 125.63 97.18 126.32 Z M 97.78 127.07 L 98.40 127.87 C 98.93 128.56 99.92 128.69 100.61 128.15 C 101.30 127.62 101.43 126.63 100.90 125.94 L 100.28 125.14 C 99.75 124.45 98.76 124.33 98.07 124.86 C 97.38 125.39 97.25 126.38 97.78 127.07 Z M 98.39 127.85 L 98.99 128.66 C 99.51 129.36 100.50 129.50 101.20 128.98 C 101.89 128.47 102.04 127.48 101.52 126.78 L 100.91 125.97 C 100.39 125.27 99.41 125.13 98.71 125.65 C 98.01 126.16 97.87 127.15 98.39 127.85 Z M 98.98 128.64 L 99.57 129.46 C 100.08 130.17 101.06 130.33 101.76 129.83 C 102.47 129.32 102.63 128.34 102.13 127.63 L 101.53 126.81 C 101.03 126.10 100.05 125.94 99.34 126.45 C 98.64 126.95 98.48 127.93 98.98 128.64 Z M 99.56 129.44 L 100.13 130.27 C 100.63 130.98 101.60 131.16 102.31 130.67 C 103.02 130.17 103.20 129.20 102.71 128.49 L 102.14 127.66 C 101.65 126.95 100.67 126.77 99.96 127.26 C 99.25 127.75 99.07 128.73 99.56 129.44 Z M 100.12 130.24 L 100.66 131.06 C 101.14 131.77 102.11 131.97 102.83 131.49 C 103.55 131.01 103.74 130.05 103.26 129.33 L 102.72 128.51 C 102.25 127.80 101.28 127.60 100.56 128.08 C 99.84 128.55 99.64 129.52 100.12 130.24 Z M 100.65 131.02 L 101.20 131.90 C 101.66 132.63 102.63 132.85 103.35 132.39 C 104.08 131.93 104.30 130.97 103.84 130.24 L 103.28 129.36 C 102.82 128.63 101.86 128.41 101.13 128.87 C 100.40 129.33 100.19 130.30 100.65 131.02 Z M 101.18 131.87 L 101.70 132.73 C 102.14 133.47 103.10 133.71 103.83 133.27 C 104.57 132.83 104.81 131.88 104.37 131.14 L 103.85 130.27 C 103.41 129.54 102.46 129.30 101.72 129.74 C 100.99 130.18 100.74 131.13 101.18 131.87 Z M 101.68 132.70 L 102.16 133.54 C 102.58 134.29 103.52 134.55 104.27 134.13 C 105.02 133.71 105.28 132.77 104.86 132.02 L 104.39 131.18 C 103.97 130.43 103.02 130.16 102.28 130.58 C 101.53 131.00 101.26 131.95 101.68 132.70 Z M 102.14 133.50 L 102.60 134.37 C 103.00 135.13 103.93 135.42 104.69 135.02 C 105.45 134.62 105.74 133.69 105.34 132.93 L 104.88 132.06 C 104.48 131.30 103.54 131.01 102.79 131.41 C 102.03 131.81 101.74 132.74 102.14 133.50 Z M 102.58 134.34 L 103.03 135.24 C 103.41 136.00 104.34 136.32 105.10 135.94 C 105.86 135.56 106.18 134.64 105.80 133.87 L 105.35 132.97 C 104.97 132.20 104.05 131.89 103.28 132.27 C 102.52 132.65 102.21 133.57 102.58 134.34 Z M 103.02 135.21 L 103.44 136.11 C 103.80 136.88 104.71 137.21 105.48 136.85 C 106.26 136.49 106.59 135.58 106.23 134.81 L 105.81 133.91 C 105.45 133.13 104.54 132.80 103.77 133.16 C 102.99 133.52 102.66 134.43 103.02 135.21 Z M 103.43 136.07 L 103.83 136.99 C 104.17 137.77 105.08 138.12 105.86 137.78 C 106.63 137.44 106.99 136.53 106.64 135.75 L 106.24 134.84 C 105.90 134.06 104.99 133.71 104.22 134.05 C 103.44 134.39 103.09 135.30 103.43 136.07 Z M 103.82 136.96 L 104.21 137.89 C 104.53 138.68 105.43 139.05 106.21 138.72 C 107.00 138.40 107.37 137.50 107.04 136.72 L 106.65 135.78 C 106.33 135.00 105.43 134.63 104.65 134.95 C 103.87 135.28 103.50 136.18 103.82 136.96 Z M 104.20 137.86 L 104.56 138.78 C 104.87 139.57 105.75 139.96 106.54 139.65 C 107.33 139.35 107.72 138.46 107.41 137.67 L 107.05 136.75 C 106.74 135.96 105.86 135.57 105.07 135.88 C 104.28 136.19 103.89 137.08 104.20 137.86 Z M 104.55 138.75 L 104.89 139.69 C 105.18 140.49 106.06 140.89 106.85 140.60 C 107.65 140.31 108.05 139.44 107.76 138.64 L 107.42 137.70 C 107.13 136.91 106.25 136.50 105.46 136.79 C 104.67 137.08 104.26 137.96 104.55 138.75 Z M 104.88 139.65 L 105.19 140.60 C 105.46 141.40 106.32 141.84 107.12 141.57 C 107.92 141.31 108.36 140.44 108.09 139.64 L 107.78 138.69 C 107.51 137.89 106.65 137.45 105.85 137.72 C 105.05 137.98 104.61 138.85 104.88 139.65 Z M 105.17 140.54 L 105.44 141.48 C 105.67 142.29 106.51 142.77 107.32 142.54 C 108.13 142.31 108.61 141.47 108.38 140.66 L 108.11 139.71 C 107.89 138.90 107.04 138.43 106.23 138.65 C 105.42 138.88 104.95 139.72 105.17 140.54 Z M 105.42 141.39 L 105.63 142.35 C 105.81 143.17 106.62 143.69 107.44 143.51 C 108.26 143.34 108.79 142.52 108.61 141.70 L 108.40 140.75 C 108.22 139.92 107.41 139.40 106.59 139.58 C 105.76 139.76 105.24 140.57 105.42 141.39 Z M 105.61 142.26 L 105.76 143.24 C 105.89 144.07 106.67 144.64 107.50 144.51 C 108.33 144.38 108.90 143.61 108.77 142.78 L 108.62 141.80 C 108.50 140.96 107.72 140.39 106.89 140.52 C 106.06 140.65 105.48 141.42 105.61 142.26 Z M 105.75 143.15 L 105.85 144.16 C 105.93 145.00 106.68 145.61 107.51 145.53 C 108.35 145.45 108.96 144.71 108.88 143.87 L 108.78 142.86 C 108.70 142.02 107.96 141.41 107.12 141.49 C 106.28 141.57 105.67 142.32 105.75 143.15 Z M 105.85 144.10 L 105.90 145.08 C 105.95 145.92 106.67 146.56 107.51 146.51 C 108.35 146.46 108.99 145.74 108.94 144.91 L 108.88 143.93 C 108.83 143.09 108.12 142.45 107.28 142.50 C 106.44 142.55 105.80 143.27 105.85 144.10 Z M 105.90 145.04 L 105.94 146.06 C 105.97 146.89 106.67 147.55 107.51 147.52 C 108.35 147.49 109.00 146.79 108.97 145.95 L 108.94 144.94 C 108.91 144.10 108.21 143.44 107.37 143.47 C 106.53 143.50 105.87 144.21 105.90 145.04 Z M 105.94 146.04 L 105.96 146.85 C 105.98 147.69 106.68 148.35 107.52 148.33 C 108.35 148.31 109.02 147.61 108.99 146.78 L 108.97 145.96 C 108.95 145.13 108.26 144.46 107.42 144.49 C 106.58 144.51 105.92 145.20 105.94 146.04 Z"
      fill="black"
      fill-rule="nonzero" /><path d="M 75.16 215.23 L 74.08 215.32 C 73.19 215.40 72.53 216.19 72.61 217.08 C 72.69 217.97 73.47 218.63 74.37 218.55 L 75.44 218.46 C 76.33 218.38 76.99 217.59 76.91 216.70 C 76.83 215.81 76.05 215.15 75.16 215.23 Z M 74.09 215.32 L 73.07 215.40 C 72.18 215.47 71.52 216.26 71.59 217.15 C 71.66 218.04 72.44 218.71 73.34 218.63 L 74.35 218.55 C 75.25 218.48 75.91 217.70 75.84 216.81 C 75.77 215.91 74.99 215.25 74.09 215.32 Z M 73.10 215.40 L 72.20 215.46 C 71.30 215.51 70.62 216.28 70.68 217.18 C 70.74 218.07 71.51 218.75 72.40 218.69 L 73.31 218.64 C 74.20 218.58 74.88 217.81 74.82 216.92 C 74.77 216.02 74.00 215.34 73.10 215.40 Z M 72.36 215.45 L 71.21 215.40 C 70.31 215.37 69.56 216.06 69.52 216.96 C 69.48 217.86 70.18 218.62 71.08 218.66 L 72.23 218.70 C 73.13 218.74 73.89 218.04 73.93 217.14 C 73.96 216.24 73.26 215.48 72.36 215.45 Z M 72.39 215.95 L 71.93 215.43 C 71.34 214.74 70.30 214.67 69.61 215.27 C 68.93 215.87 68.86 216.91 69.45 217.59 L 69.91 218.11 C 70.51 218.80 71.55 218.87 72.23 218.27 C 72.92 217.67 72.99 216.63 72.39 215.95 Z M 72.33 216.81 L 72.50 215.89 C 72.67 214.99 72.07 214.12 71.17 213.95 C 70.26 213.78 69.40 214.38 69.23 215.29 L 69.06 216.21 C 68.89 217.11 69.49 217.98 70.39 218.15 C 71.29 218.31 72.16 217.72 72.33 216.81 Z M 72.41 216.26 L 72.86 215.23 C 73.23 214.38 72.84 213.39 71.99 213.02 C 71.13 212.64 70.14 213.03 69.77 213.89 L 69.32 214.92 C 68.95 215.77 69.34 216.76 70.19 217.13 C 71.05 217.51 72.04 217.12 72.41 216.26 Z M 72.78 215.42 L 73.28 214.56 C 73.76 213.76 73.49 212.71 72.68 212.24 C 71.87 211.76 70.83 212.03 70.35 212.84 L 69.85 213.70 C 69.37 214.51 69.64 215.55 70.45 216.02 C 71.26 216.50 72.30 216.23 72.78 215.42 Z M 73.22 214.68 L 73.79 213.86 C 74.32 213.09 74.14 212.03 73.36 211.49 C 72.59 210.95 71.53 211.14 70.99 211.91 L 70.42 212.73 C 69.88 213.50 70.07 214.56 70.84 215.10 C 71.62 215.64 72.68 215.45 73.22 214.68 Z M 73.77 213.90 L 74.32 213.15 C 74.87 212.38 74.71 211.31 73.94 210.76 C 73.18 210.20 72.11 210.37 71.55 211.13 L 71.01 211.88 C 70.45 212.64 70.62 213.71 71.38 214.27 C 72.14 214.83 73.21 214.66 73.77 213.90 Z M 74.32 213.15 L 74.91 212.34 C 75.47 211.57 75.31 210.50 74.54 209.94 C 73.78 209.38 72.71 209.55 72.15 210.31 L 71.55 211.12 C 70.99 211.89 71.16 212.96 71.92 213.52 C 72.68 214.08 73.76 213.91 74.32 213.15 Z M 74.92 212.33 L 75.53 211.49 C 76.09 210.73 75.92 209.65 75.15 209.10 C 74.39 208.54 73.31 208.71 72.76 209.47 L 72.14 210.31 C 71.59 211.08 71.76 212.15 72.52 212.71 C 73.29 213.27 74.36 213.10 74.92 212.33 Z M 75.53 211.48 L 76.09 210.71 C 76.65 209.94 76.47 208.87 75.71 208.31 C 74.94 207.76 73.87 207.94 73.31 208.70 L 72.75 209.48 C 72.20 210.25 72.37 211.32 73.14 211.87 C 73.91 212.43 74.98 212.25 75.53 211.48 Z M 76.10 210.70 L 76.68 209.87 C 77.23 209.10 77.05 208.03 76.28 207.49 C 75.51 206.94 74.45 207.12 73.90 207.89 L 73.31 208.71 C 72.76 209.48 72.94 210.55 73.71 211.10 C 74.48 211.64 75.55 211.46 76.10 210.70 Z M 76.69 209.86 L 77.29 209.00 C 77.83 208.23 77.65 207.17 76.88 206.63 C 76.11 206.09 75.04 206.27 74.50 207.04 L 73.90 207.90 C 73.36 208.67 73.54 209.73 74.31 210.27 C 75.08 210.81 76.14 210.63 76.69 209.86 Z M 77.29 209.00 L 77.84 208.20 C 78.38 207.43 78.19 206.37 77.42 205.83 C 76.65 205.29 75.59 205.48 75.05 206.25 L 74.50 207.05 C 73.96 207.82 74.15 208.88 74.92 209.42 C 75.69 209.95 76.75 209.77 77.29 209.00 Z M 77.84 208.20 L 78.41 207.39 C 78.95 206.62 78.76 205.56 77.99 205.02 C 77.22 204.48 76.16 204.67 75.62 205.44 L 75.05 206.25 C 74.52 207.02 74.71 208.09 75.48 208.62 C 76.25 209.16 77.31 208.97 77.84 208.20 Z M 78.41 207.39 L 78.99 206.56 C 79.54 205.79 79.35 204.73 78.58 204.19 C 77.82 203.65 76.76 203.83 76.22 204.60 L 75.63 205.44 C 75.09 206.20 75.27 207.26 76.04 207.80 C 76.81 208.34 77.87 208.16 78.41 207.39 Z M 78.99 206.57 L 79.57 205.75 C 80.12 204.99 79.94 203.93 79.18 203.38 C 78.42 202.83 77.36 203.01 76.81 203.77 L 76.22 204.59 C 75.68 205.35 75.85 206.42 76.62 206.96 C 77.38 207.51 78.44 207.33 78.99 206.57 Z M 79.56 205.76 L 80.14 204.97 C 80.69 204.21 80.52 203.15 79.77 202.60 C 79.01 202.05 77.95 202.22 77.39 202.97 L 76.82 203.76 C 76.27 204.52 76.43 205.58 77.19 206.13 C 77.95 206.69 79.01 206.52 79.56 205.76 Z M 80.13 204.98 L 80.72 204.18 C 81.28 203.42 81.12 202.36 80.37 201.81 C 79.61 201.25 78.55 201.41 78.00 202.16 L 77.40 202.97 C 76.85 203.72 77.01 204.78 77.76 205.34 C 78.51 205.89 79.57 205.73 80.13 204.98 Z M 80.72 204.18 L 81.33 203.36 C 81.89 202.61 81.73 201.55 80.98 200.99 C 80.23 200.43 79.17 200.59 78.61 201.34 L 78.00 202.16 C 77.44 202.91 77.60 203.97 78.35 204.53 C 79.10 205.09 80.16 204.93 80.72 204.18 Z M 81.32 203.37 L 81.93 202.56 C 82.49 201.81 82.34 200.75 81.59 200.19 C 80.84 199.63 79.78 199.78 79.22 200.53 L 78.61 201.34 C 78.05 202.09 78.21 203.15 78.95 203.71 C 79.70 204.27 80.76 204.11 81.32 203.37 Z M 81.92 202.56 L 82.51 201.77 C 83.08 201.03 82.93 199.97 82.18 199.41 C 81.44 198.85 80.38 199.00 79.82 199.74 L 79.23 200.53 C 78.67 201.27 78.81 202.33 79.56 202.89 C 80.30 203.45 81.36 203.30 81.92 202.56 Z M 82.50 201.78 L 83.11 200.98 C 83.67 200.24 83.53 199.19 82.79 198.62 C 82.05 198.06 81.00 198.20 80.44 198.94 L 79.83 199.74 C 79.27 200.47 79.41 201.53 80.15 202.09 C 80.89 202.66 81.94 202.51 82.50 201.78 Z M 83.10 200.99 L 83.72 200.19 C 84.29 199.46 84.15 198.41 83.42 197.84 C 82.69 197.27 81.64 197.40 81.07 198.13 L 80.45 198.93 C 79.88 199.66 80.01 200.72 80.74 201.29 C 81.48 201.85 82.53 201.72 83.10 200.99 Z M 83.70 200.21 L 84.33 199.41 C 84.91 198.69 84.79 197.64 84.07 197.06 C 83.35 196.49 82.29 196.60 81.72 197.33 L 81.08 198.12 C 80.51 198.84 80.63 199.90 81.35 200.47 C 82.07 201.05 83.13 200.93 83.70 200.21 Z M 84.31 199.43 L 84.94 198.66 C 85.53 197.95 85.43 196.90 84.71 196.31 C 84.00 195.73 82.95 195.83 82.37 196.54 L 81.74 197.31 C 81.15 198.02 81.26 199.07 81.97 199.66 C 82.68 200.24 83.73 200.14 84.31 199.43 Z M 84.92 198.68 L 85.57 197.91 C 86.16 197.21 86.08 196.17 85.37 195.57 C 84.67 194.98 83.63 195.07 83.03 195.77 L 82.39 196.53 C 81.79 197.23 81.88 198.28 82.58 198.87 C 83.28 199.46 84.33 199.38 84.92 198.68 Z M 85.55 197.93 L 86.21 197.18 C 86.81 196.49 86.74 195.44 86.05 194.84 C 85.37 194.24 84.32 194.31 83.72 195.00 L 83.06 195.75 C 82.45 196.44 82.52 197.48 83.21 198.09 C 83.90 198.69 84.94 198.62 85.55 197.93 Z M 86.18 197.20 L 86.86 196.45 C 87.47 195.78 87.42 194.73 86.75 194.12 C 86.07 193.51 85.03 193.56 84.42 194.23 L 83.74 194.98 C 83.13 195.65 83.18 196.70 83.85 197.31 C 84.53 197.92 85.57 197.87 86.18 197.20 Z M 86.83 196.47 L 87.51 195.75 C 88.14 195.09 88.11 194.05 87.45 193.43 C 86.78 192.81 85.74 192.83 85.12 193.50 L 84.44 194.21 C 83.82 194.87 83.85 195.92 84.51 196.54 C 85.17 197.16 86.21 197.13 86.83 196.47 Z M 87.49 195.77 L 88.17 195.07 C 88.81 194.42 88.80 193.39 88.15 192.75 C 87.50 192.12 86.46 192.13 85.83 192.78 L 85.14 193.48 C 84.51 194.13 84.52 195.16 85.17 195.80 C 85.82 196.43 86.85 196.42 87.49 195.77 Z M 88.15 195.08 L 88.86 194.38 C 89.50 193.75 89.50 192.72 88.87 192.08 C 88.23 191.44 87.20 191.43 86.56 192.07 L 85.85 192.76 C 85.21 193.40 85.21 194.43 85.84 195.07 C 86.48 195.71 87.51 195.72 88.15 195.08 Z M 88.84 194.39 L 89.56 193.69 C 90.21 193.07 90.23 192.04 89.60 191.39 C 88.98 190.75 87.95 190.73 87.30 191.35 L 86.58 192.06 C 85.93 192.68 85.91 193.71 86.54 194.36 C 87.16 195.00 88.19 195.02 88.84 194.39 Z M 89.55 193.70 L 90.30 192.99 C 90.94 192.37 90.97 191.35 90.36 190.70 C 89.74 190.05 88.71 190.02 88.07 190.64 L 87.32 191.35 C 86.67 191.96 86.64 192.99 87.26 193.64 C 87.87 194.29 88.90 194.31 89.55 193.70 Z M 90.28 192.99 L 91.01 192.31 C 91.66 191.70 91.69 190.68 91.08 190.03 C 90.48 189.38 89.45 189.35 88.80 189.95 L 88.08 190.63 C 87.43 191.24 87.39 192.27 88.00 192.92 C 88.61 193.57 89.63 193.60 90.28 192.99 Z M 91.00 192.31 L 91.74 191.63 C 92.39 191.02 92.43 190.01 91.83 189.35 C 91.22 188.70 90.21 188.66 89.56 189.27 L 88.82 189.95 C 88.16 190.56 88.13 191.57 88.73 192.22 C 89.33 192.87 90.35 192.91 91.00 192.31 Z M 91.73 191.63 L 92.47 190.94 C 93.13 190.35 93.17 189.33 92.57 188.68 C 91.98 188.03 90.96 187.99 90.31 188.58 L 89.57 189.27 C 88.92 189.86 88.87 190.88 89.47 191.53 C 90.06 192.18 91.08 192.22 91.73 191.63 Z M 92.46 190.94 L 93.20 190.27 C 93.86 189.68 93.91 188.67 93.32 188.02 C 92.72 187.37 91.72 187.32 91.06 187.91 L 90.32 188.58 C 89.67 189.17 89.62 190.18 90.21 190.83 C 90.80 191.49 91.81 191.54 92.46 190.94 Z M 93.19 190.27 L 93.93 189.61 C 94.58 189.03 94.64 188.02 94.05 187.37 C 93.47 186.72 92.47 186.66 91.81 187.25 L 91.08 187.91 C 90.42 188.49 90.37 189.50 90.95 190.15 C 91.54 190.80 92.54 190.86 93.19 190.27 Z M 93.92 189.61 L 94.69 188.93 C 95.35 188.35 95.41 187.35 94.83 186.70 C 94.25 186.04 93.25 185.98 92.59 186.56 L 91.82 187.25 C 91.17 187.83 91.11 188.83 91.69 189.48 C 92.27 190.13 93.27 190.19 93.92 189.61 Z M 94.68 188.93 L 95.44 188.27 C 96.09 187.70 96.16 186.70 95.58 186.04 C 95.01 185.39 94.01 185.32 93.36 185.90 L 92.60 186.56 C 91.95 187.14 91.88 188.13 92.46 188.79 C 93.03 189.44 94.03 189.51 94.68 188.93 Z M 95.43 188.27 L 96.18 187.62 C 96.83 187.05 96.90 186.06 96.33 185.40 C 95.76 184.75 94.76 184.68 94.11 185.25 L 93.36 185.90 C 92.71 186.47 92.64 187.46 93.21 188.12 C 93.78 188.78 94.78 188.84 95.43 188.27 Z M 96.17 187.62 L 96.91 186.98 C 97.57 186.41 97.64 185.42 97.07 184.77 C 96.50 184.11 95.51 184.04 94.85 184.61 L 94.11 185.25 C 93.46 185.82 93.39 186.81 93.96 187.47 C 94.52 188.12 95.52 188.19 96.17 187.62 Z M 96.91 186.98 L 97.65 186.34 C 98.31 185.77 98.38 184.78 97.81 184.12 C 97.25 183.47 96.26 183.40 95.60 183.96 L 94.86 184.61 C 94.20 185.18 94.13 186.17 94.70 186.82 C 95.26 187.48 96.25 187.55 96.91 186.98 Z M 97.65 186.34 L 98.40 185.69 C 99.06 185.12 99.13 184.13 98.56 183.47 C 98.00 182.82 97.01 182.75 96.35 183.32 L 95.60 183.97 C 94.95 184.53 94.87 185.52 95.44 186.18 C 96.01 186.83 97.00 186.90 97.65 186.34 Z M 98.41 185.68 L 99.16 185.03 C 99.81 184.46 99.88 183.47 99.31 182.81 C 98.74 182.16 97.75 182.09 97.10 182.66 L 96.35 183.32 C 95.69 183.89 95.63 184.88 96.19 185.53 C 96.76 186.18 97.76 186.25 98.41 185.68 Z M 99.17 185.02 L 99.92 184.36 C 100.57 183.79 100.64 182.79 100.06 182.14 C 99.49 181.49 98.50 181.43 97.85 182.00 L 97.09 182.67 C 96.44 183.24 96.38 184.23 96.95 184.88 C 97.52 185.53 98.52 185.60 99.17 185.02 Z M 99.93 184.35 L 100.68 183.68 C 101.33 183.10 101.39 182.11 100.81 181.46 C 100.23 180.82 99.24 180.76 98.59 181.34 L 97.84 182.01 C 97.19 182.59 97.14 183.58 97.71 184.23 C 98.29 184.87 99.28 184.93 99.93 184.35 Z M 100.70 183.67 L 101.43 183.00 C 102.08 182.42 102.13 181.43 101.54 180.78 C 100.96 180.14 99.96 180.09 99.32 180.67 L 98.58 181.34 C 97.94 181.93 97.89 182.92 98.47 183.57 C 99.06 184.21 100.05 184.26 100.70 183.67 Z M 101.45 183.00 L 102.18 182.32 C 102.82 181.73 102.86 180.73 102.27 180.09 C 101.68 179.45 100.68 179.41 100.04 180.00 L 99.31 180.68 C 98.67 181.27 98.63 182.27 99.22 182.91 C 99.81 183.55 100.81 183.59 101.45 183.00 Z M 102.20 182.31 L 102.93 181.63 C 103.56 181.03 103.60 180.03 103.00 179.39 C 102.40 178.75 101.40 178.72 100.76 179.32 L 100.03 180.01 C 99.39 180.61 99.36 181.61 99.96 182.24 C 100.56 182.88 101.56 182.91 102.20 182.31 Z M 102.94 181.62 L 103.67 180.93 C 104.30 180.32 104.32 179.31 103.71 178.68 C 103.10 178.05 102.10 178.03 101.47 178.63 L 100.74 179.33 C 100.11 179.93 100.09 180.94 100.70 181.57 C 101.30 182.21 102.31 182.23 102.94 181.62 Z M 103.68 180.92 L 104.40 180.22 C 105.03 179.60 105.04 178.59 104.42 177.96 C 103.80 177.34 102.80 177.32 102.17 177.94 L 101.45 178.64 C 100.82 179.26 100.81 180.27 101.43 180.89 C 102.04 181.52 103.05 181.53 103.68 180.92 Z M 104.41 180.21 L 105.12 179.50 C 105.74 178.88 105.75 177.87 105.12 177.24 C 104.50 176.62 103.49 176.62 102.86 177.24 L 102.15 177.95 C 101.53 178.57 101.53 179.58 102.15 180.21 C 102.78 180.83 103.79 180.83 104.41 180.21 Z M 105.13 179.49 L 105.83 178.78 C 106.45 178.15 106.45 177.14 105.82 176.52 C 105.19 175.90 104.18 175.90 103.56 176.53 L 102.85 177.24 C 102.23 177.87 102.24 178.89 102.87 179.51 C 103.50 180.13 104.51 180.12 105.13 179.49 Z M 105.84 178.78 L 106.54 178.07 C 107.16 177.43 107.15 176.42 106.51 175.80 C 105.88 175.18 104.86 175.19 104.24 175.82 L 103.55 176.54 C 102.93 177.17 102.94 178.19 103.57 178.81 C 104.21 179.43 105.22 179.41 105.84 178.78 Z M 106.54 178.07 L 107.24 177.35 C 107.86 176.72 107.84 175.70 107.21 175.08 C 106.57 174.46 105.55 174.47 104.93 175.11 L 104.24 175.82 C 103.62 176.46 103.63 177.48 104.27 178.10 C 104.91 178.72 105.93 178.70 106.54 178.07 Z"
      fill="black"
      fill-rule="nonzero" /></svg>