<svg xmlns="http://www.w3.org/2000/svg" width="300" height="300" viewBox="0 0 300 300">
<path d="M 79.92 87.52 L 78.71 87.19 C 77.90 86.98 77.07 87.45 76.86 88.26 C 76.64 89.06 77.12 89.89 77.93 90.11 L 79.14 90.43 C 79.95 90.65 80.77 90.17 80.99 89.37 C 81.21 88.56 80.73 87.73 79.92 87.52 Z M 79.84 88.21 L 79.79 88.02 C 79.55 87.17 78.67 86.69 77.82 86.93 C 76.98 87.17 76.49 88.05 76.73 88.90 L 76.79 89.09 C 77.03 89.93 77.91 90.42 78.76 90.18 C 79.60 89.94 80.09 89.05 79.84 88.21 Z M 78.31 90.10 L 79.47 90.07 C 80.38 90.04 81.09 89.28 81.06 88.37 C 81.04 87.47 80.28 86.75 79.37 86.78 L 78.21 86.82 C 77.30 86.84 76.59 87.60 76.62 88.51 C 76.65 89.42 77.40 90.13 78.31 90.10 Z M 79.42 90.09 L 80.50 90.09 C 81.42 90.09 82.17 89.34 82.17 88.42 C 82.17 87.50 81.42 86.76 80.50 86.76 L 79.42 86.76 C 78.50 86.76 77.75 87.50 77.75 88.42 C 77.75 89.34 78.50 90.09 79.42 90.09 Z M 80.50 90.10 L 81.46 90.10 C 82.39 90.10 83.14 89.35 83.14 88.42 C 83.14 87.50 82.39 86.74 81.46 86.74 L 80.50 86.74 C 79.57 86.74 78.82 87.50 78.82 88.42 C 78.82 89.35 79.57 90.10 80.50 90.10 Z M 81.46 90.11 L 82.41 90.11 C 83.34 90.11 84.10 89.36 84.10 88.43 C 84.10 87.50 83.35 86.74 82.41 86.74 L 81.47 86.74 C 80.54 86.74 79.78 87.49 79.78 88.42 C 79.78 89.35 80.53 90.11 81.46 90.11 Z M 82.39 90.12 L 83.45 90.13 C 84.38 90.14 85.15 89.39 85.16 88.46 C 85.17 87.52 84.42 86.76 83.49 86.74 L 82.43 86.73 C 81.50 86.72 80.73 87.47 80.72 88.41 C 80.71 89.34 81.46 90.11 82.39 90.12 Z M 83.43 90.14 L 84.37 90.16 C 85.31 90.18 86.09 89.44 86.11 88.50 C 86.13 87.57 85.39 86.79 84.45 86.76 L 83.51 86.74 C 82.57 86.72 81.79 87.46 81.77 88.40 C 81.75 89.33 82.49 90.11 83.43 90.14 Z M 84.35 90.17 L 85.37 90.20 C 86.31 90.23 87.10 89.50 87.13 88.56 C 87.17 87.62 86.43 86.83 85.49 86.79 L 84.47 86.76 C 83.53 86.72 82.74 87.46 82.71 88.40 C 82.68 89.34 83.41 90.13 84.35 90.17 Z M 85.36 90.21 L 86.37 90.25 C 87.31 90.29 88.11 89.56 88.15 88.61 C 88.19 87.67 87.46 86.87 86.52 86.83 L 85.50 86.79 C 84.56 86.75 83.76 87.48 83.72 88.42 C 83.68 89.37 84.41 90.17 85.36 90.21 Z M 86.36 90.26 L 87.34 90.31 C 88.29 90.35 89.09 89.62 89.14 88.68 C 89.19 87.73 88.46 86.92 87.51 86.87 L 86.53 86.82 C 85.58 86.77 84.77 87.50 84.73 88.45 C 84.68 89.40 85.41 90.21 86.36 90.26 Z M 87.32 90.31 L 88.34 90.38 C 89.29 90.44 90.11 89.71 90.17 88.76 C 90.23 87.81 89.50 86.99 88.55 86.93 L 87.53 86.87 C 86.58 86.81 85.76 87.53 85.70 88.48 C 85.64 89.43 86.37 90.25 87.32 90.31 Z M 88.31 90.38 L 89.30 90.46 C 90.26 90.54 91.09 89.82 91.17 88.86 C 91.24 87.91 90.53 87.07 89.57 87.00 L 88.58 86.92 C 87.62 86.85 86.79 87.56 86.71 88.52 C 86.64 89.48 87.35 90.31 88.31 90.38 Z M 89.28 90.47 L 90.25 90.56 C 91.21 90.65 92.06 89.94 92.15 88.98 C 92.24 88.02 91.53 87.17 90.57 87.08 L 89.59 86.99 C 88.63 86.90 87.78 87.61 87.70 88.57 C 87.61 89.53 88.32 90.38 89.28 90.47 Z M 90.24 90.57 L 91.25 90.67 C 92.21 90.76 93.08 90.06 93.17 89.09 C 93.27 88.13 92.56 87.26 91.59 87.17 L 90.58 87.07 C 89.62 86.97 88.76 87.68 88.66 88.65 C 88.57 89.61 89.27 90.47 90.24 90.57 Z M 91.24 90.68 L 92.25 90.78 C 93.22 90.88 94.09 90.18 94.19 89.20 C 94.29 88.23 93.59 87.36 92.61 87.26 L 91.60 87.16 C 90.63 87.06 89.76 87.77 89.66 88.74 C 89.56 89.71 90.27 90.58 91.24 90.68 Z M 92.25 90.79 L 93.23 90.90 C 94.21 91.00 95.08 90.29 95.18 89.31 C 95.29 88.33 94.58 87.46 93.60 87.36 L 92.62 87.25 C 91.64 87.15 90.77 87.86 90.66 88.84 C 90.56 89.81 91.27 90.69 92.25 90.79 Z M 93.22 90.91 L 94.22 91.01 C 95.21 91.12 96.09 90.41 96.20 89.42 C 96.30 88.44 95.59 87.56 94.61 87.45 L 93.61 87.35 C 92.62 87.24 91.74 87.95 91.63 88.93 C 91.53 89.92 92.24 90.80 93.22 90.91 Z M 94.22 91.02 L 95.23 91.14 C 96.21 91.25 97.11 90.53 97.22 89.55 C 97.33 88.56 96.61 87.67 95.63 87.56 L 94.62 87.44 C 93.63 87.33 92.74 88.04 92.63 89.03 C 92.52 90.02 93.23 90.91 94.22 91.02 Z M 95.21 91.14 L 96.20 91.26 C 97.20 91.38 98.10 90.67 98.21 89.67 C 98.33 88.68 97.62 87.78 96.62 87.66 L 95.64 87.55 C 94.64 87.43 93.74 88.14 93.63 89.14 C 93.51 90.13 94.22 91.03 95.21 91.14 Z M 96.19 91.27 L 97.18 91.39 C 98.17 91.51 99.08 90.80 99.20 89.80 C 99.33 88.81 98.62 87.90 97.62 87.78 L 96.64 87.66 C 95.64 87.53 94.73 88.24 94.61 89.24 C 94.49 90.24 95.20 91.14 96.19 91.27 Z M 97.17 91.39 L 98.16 91.52 C 99.16 91.65 100.08 90.94 100.20 89.94 C 100.33 88.94 99.63 88.03 98.62 87.90 L 97.63 87.77 C 96.63 87.64 95.72 88.35 95.59 89.35 C 95.46 90.35 96.17 91.27 97.17 91.39 Z M 98.15 91.53 L 99.15 91.66 C 100.15 91.79 101.07 91.09 101.21 90.09 C 101.34 89.08 100.64 88.16 99.63 88.03 L 98.63 87.89 C 97.63 87.76 96.71 88.46 96.57 89.47 C 96.44 90.47 97.15 91.39 98.15 91.53 Z M 99.14 91.67 L 100.10 91.80 C 101.11 91.94 102.04 91.23 102.18 90.23 C 102.32 89.22 101.61 88.29 100.61 88.15 L 99.64 88.02 C 98.63 87.88 97.70 88.59 97.57 89.59 C 97.43 90.60 98.13 91.53 99.14 91.67 Z M 100.10 91.81 L 101.09 91.94 C 102.10 92.08 103.03 91.38 103.17 90.37 C 103.31 89.36 102.61 88.42 101.59 88.28 L 100.61 88.14 C 99.60 88.00 98.66 88.71 98.52 89.72 C 98.38 90.73 99.09 91.67 100.10 91.81 Z M 101.09 91.95 L 102.09 92.09 C 103.11 92.23 104.04 91.52 104.18 90.51 C 104.32 89.49 103.62 88.55 102.60 88.41 L 101.59 88.27 C 100.58 88.13 99.64 88.84 99.50 89.86 C 99.36 90.87 100.07 91.81 101.09 91.95 Z M 102.10 92.10 L 103.10 92.23 C 104.12 92.37 105.06 91.66 105.19 90.64 C 105.33 89.62 104.62 88.68 103.60 88.54 L 102.60 88.41 C 101.58 88.27 100.64 88.98 100.50 90.00 C 100.36 91.02 101.08 91.96 102.10 92.10 Z M 103.10 92.24 L 104.07 92.37 C 105.09 92.50 106.03 91.78 106.17 90.76 C 106.30 89.74 105.58 88.80 104.56 88.66 L 103.59 88.53 C 102.57 88.40 101.63 89.12 101.50 90.14 C 101.36 91.17 102.08 92.11 103.10 92.24 Z M 104.07 92.38 L 105.06 92.50 C 106.08 92.64 107.03 91.91 107.16 90.89 C 107.29 89.86 106.57 88.92 105.54 88.78 L 104.56 88.66 C 103.53 88.52 102.59 89.25 102.45 90.27 C 102.32 91.30 103.04 92.24 104.07 92.38 Z M 105.06 92.51 L 106.06 92.64 C 107.09 92.78 108.04 92.05 108.17 91.02 C 108.30 89.99 107.58 89.04 106.55 88.91 L 105.54 88.78 C 104.51 88.64 103.57 89.37 103.43 90.40 C 103.30 91.43 104.03 92.38 105.06 92.51 Z M 106.06 92.65 L 107.08 92.78 C 108.11 92.92 109.06 92.19 109.19 91.15 C 109.33 90.12 108.60 89.17 107.57 89.04 L 106.55 88.90 C 105.52 88.77 104.57 89.50 104.43 90.53 C 104.30 91.56 105.03 92.51 106.06 92.65 Z M 107.07 92.79 L 108.05 92.91 C 109.08 93.05 110.03 92.32 110.17 91.29 C 110.31 90.25 109.58 89.30 108.54 89.16 L 107.57 89.03 C 106.53 88.89 105.58 89.62 105.45 90.66 C 105.31 91.70 106.04 92.65 107.07 92.79 Z M 108.04 92.92 L 109.03 93.05 C 110.07 93.19 111.02 92.46 111.16 91.42 C 111.30 90.38 110.57 89.42 109.53 89.29 L 108.54 89.16 C 107.50 89.02 106.55 89.75 106.41 90.79 C 106.27 91.83 107.00 92.78 108.04 92.92 Z M 109.03 93.06 L 110.03 93.19 C 111.07 93.32 112.03 92.59 112.17 91.55 C 112.30 90.51 111.57 89.55 110.53 89.41 L 109.53 89.28 C 108.49 89.14 107.53 89.88 107.39 90.92 C 107.25 91.96 107.99 92.92 109.03 93.06 Z M 110.03 93.19 L 111.04 93.32 C 112.08 93.46 113.04 92.72 113.18 91.68 C 113.31 90.63 112.58 89.67 111.53 89.54 L 110.52 89.41 C 109.48 89.27 108.52 90.01 108.38 91.05 C 108.25 92.10 108.99 93.06 110.03 93.19 Z M 111.04 93.33 L 112.03 93.45 C 113.08 93.59 114.04 92.85 114.17 91.80 C 114.30 90.75 113.56 89.79 112.51 89.66 L 111.53 89.53 C 110.48 89.40 109.52 90.14 109.38 91.19 C 109.25 92.24 109.99 93.20 111.04 93.33 Z M 112.03 93.46 L 113.01 93.58 C 114.06 93.71 115.02 92.97 115.15 91.91 C 115.28 90.86 114.53 89.90 113.48 89.77 L 112.51 89.65 C 111.46 89.52 110.50 90.27 110.36 91.32 C 110.23 92.37 110.98 93.33 112.03 93.46 Z M 113.01 93.59 L 113.99 93.71 C 115.05 93.84 116.01 93.09 116.14 92.03 C 116.27 90.98 115.52 90.02 114.47 89.89 L 113.48 89.76 C 112.42 89.63 111.46 90.38 111.33 91.44 C 111.20 92.50 111.95 93.46 113.01 93.59 Z M 113.99 93.72 L 114.99 93.84 C 116.05 93.97 117.02 93.22 117.15 92.16 C 117.28 91.10 116.53 90.13 115.47 90.00 L 114.47 89.88 C 113.41 89.75 112.44 90.50 112.31 91.56 C 112.18 92.62 112.93 93.59 113.99 93.72 Z M 114.99 93.85 L 116.00 93.98 C 117.07 94.11 118.04 93.36 118.17 92.29 C 118.31 91.23 117.55 90.26 116.49 90.13 L 115.47 90.00 C 114.41 89.86 113.44 90.62 113.30 91.68 C 113.17 92.74 113.92 93.71 114.99 93.85 Z M 116.00 93.98 L 117.00 94.11 C 118.06 94.25 119.04 93.49 119.18 92.43 C 119.31 91.36 118.56 90.39 117.49 90.25 L 116.49 90.12 C 115.43 89.98 114.45 90.74 114.32 91.80 C 114.18 92.87 114.93 93.84 116.00 93.98 Z M 116.99 94.11 L 118.00 94.24 C 119.07 94.38 120.04 93.63 120.18 92.56 C 120.32 91.49 119.57 90.51 118.50 90.37 L 117.50 90.24 C 116.43 90.11 115.45 90.86 115.31 91.93 C 115.17 93.00 115.93 93.98 116.99 94.11 Z M 118.00 94.25 L 119.00 94.38 C 120.07 94.52 121.05 93.76 121.19 92.69 C 121.33 91.62 120.57 90.64 119.50 90.50 L 118.50 90.37 C 117.43 90.23 116.45 90.99 116.31 92.06 C 116.17 93.13 116.93 94.11 118.00 94.25 Z M 119.01 94.38 L 120.00 94.51 C 121.08 94.64 122.06 93.88 122.19 92.81 C 122.33 91.73 121.56 90.75 120.49 90.62 L 119.50 90.49 C 118.42 90.36 117.44 91.12 117.31 92.20 C 117.17 93.27 117.93 94.25 119.01 94.38 Z M 120.01 94.51 L 120.99 94.63 C 122.06 94.76 123.04 93.99 123.17 92.91 C 123.30 91.83 122.53 90.86 121.45 90.73 L 120.48 90.61 C 119.40 90.48 118.42 91.25 118.30 92.33 C 118.17 93.41 118.94 94.39 120.01 94.51 Z M 121.00 94.64 L 122.03 94.75 C 123.12 94.87 124.09 94.09 124.21 93.01 C 124.33 91.93 123.55 90.96 122.47 90.84 L 121.44 90.72 C 120.35 90.60 119.38 91.38 119.26 92.46 C 119.14 93.54 119.92 94.52 121.00 94.64 Z M 122.05 94.76 L 123.06 94.86 C 124.14 94.97 125.11 94.18 125.22 93.10 C 125.34 92.01 124.55 91.05 123.46 90.93 L 122.45 90.83 C 121.37 90.72 120.40 91.51 120.29 92.59 C 120.18 93.68 120.97 94.64 122.05 94.76 Z M 123.07 94.86 L 124.06 94.96 C 125.14 95.07 126.11 94.27 126.21 93.19 C 126.32 92.10 125.53 91.13 124.44 91.03 L 123.45 90.93 C 122.37 90.82 121.40 91.62 121.30 92.70 C 121.19 93.79 121.98 94.76 123.07 94.86 Z M 124.06 94.96 L 125.02 95.06 C 126.11 95.16 127.08 94.37 127.19 93.28 C 127.29 92.19 126.49 91.22 125.40 91.12 L 124.44 91.02 C 123.35 90.92 122.38 91.71 122.28 92.80 C 122.17 93.89 122.97 94.86 124.06 94.96 Z M 125.02 95.06 L 125.99 95.16 C 127.08 95.26 128.05 94.47 128.16 93.38 C 128.27 92.29 127.47 91.32 126.38 91.21 L 125.41 91.11 C 124.32 91.01 123.35 91.80 123.24 92.89 C 123.13 93.98 123.93 94.95 125.02 95.06 Z M 125.99 95.16 L 126.98 95.26 C 128.07 95.37 129.04 94.58 129.15 93.48 C 129.26 92.39 128.47 91.42 127.38 91.31 L 126.39 91.21 C 125.30 91.10 124.32 91.89 124.21 92.98 C 124.10 94.07 124.89 95.05 125.99 95.16 Z M 126.98 95.26 L 127.97 95.36 C 129.06 95.47 130.04 94.67 130.15 93.58 C 130.25 92.49 129.46 91.52 128.37 91.41 L 127.37 91.31 C 126.28 91.20 125.31 91.99 125.20 93.09 C 125.09 94.18 125.89 95.15 126.98 95.26 Z M 127.98 95.36 L 128.98 95.46 C 130.07 95.56 131.04 94.76 131.14 93.66 C 131.25 92.57 130.44 91.60 129.35 91.50 L 128.35 91.40 C 127.26 91.30 126.29 92.10 126.19 93.20 C 126.09 94.29 126.89 95.26 127.98 95.36 Z M 129.00 95.46 L 130.00 95.54 C 131.10 95.63 132.06 94.82 132.15 93.73 C 132.24 92.63 131.43 91.67 130.33 91.58 L 129.33 91.49 C 128.23 91.40 127.27 92.22 127.18 93.31 C 127.09 94.41 127.90 95.37 129.00 95.46 Z M 130.03 95.55 L 131.00 95.61 C 132.10 95.69 133.05 94.86 133.12 93.77 C 133.20 92.67 132.37 91.72 131.28 91.64 L 130.31 91.57 C 129.21 91.50 128.26 92.32 128.18 93.42 C 128.10 94.52 128.93 95.47 130.03 95.55 Z M 131.02 95.62 L 132.01 95.67 C 133.11 95.74 134.05 94.90 134.11 93.80 C 134.18 92.70 133.34 91.76 132.24 91.70 L 131.25 91.64 C 130.16 91.58 129.21 92.41 129.15 93.51 C 129.09 94.61 129.93 95.55 131.02 95.62 Z M 132.03 95.68 L 133.03 95.72 C 134.13 95.77 135.06 94.93 135.12 93.83 C 135.17 92.73 134.32 91.79 133.22 91.74 L 132.22 91.69 C 131.12 91.64 130.19 92.49 130.13 93.59 C 130.08 94.69 130.93 95.62 132.03 95.68 Z M 133.05 95.72 L 134.07 95.76 C 135.17 95.81 136.10 94.95 136.14 93.85 C 136.18 92.75 135.32 91.82 134.22 91.78 L 133.20 91.74 C 132.10 91.70 131.18 92.56 131.14 93.66 C 131.09 94.76 131.95 95.68 133.05 95.72 Z M 134.09 95.76 L 135.08 95.80 C 136.19 95.83 137.11 94.97 137.14 93.86 C 137.17 92.76 136.31 91.84 135.21 91.81 L 134.21 91.78 C 133.11 91.74 132.19 92.61 132.16 93.71 C 132.12 94.81 132.99 95.73 134.09 95.76 Z M 135.10 95.80 L 136.08 95.82 C 137.18 95.85 138.10 94.98 138.12 93.88 C 138.15 92.78 137.28 91.86 136.18 91.83 L 135.20 91.81 C 134.10 91.78 133.18 92.65 133.15 93.75 C 133.13 94.85 134.00 95.77 135.10 95.80 Z M 136.09 95.82 L 137.09 95.84 C 138.19 95.86 139.10 94.99 139.12 93.89 C 139.15 92.79 138.27 91.88 137.17 91.85 L 136.17 91.83 C 135.07 91.81 134.16 92.69 134.14 93.79 C 134.12 94.89 134.99 95.80 136.09 95.82 Z M 137.10 95.84 L 138.11 95.86 C 139.21 95.87 140.12 95.00 140.13 93.89 C 140.15 92.79 139.27 91.89 138.17 91.87 L 137.16 91.85 C 136.06 91.84 135.15 92.72 135.14 93.82 C 135.12 94.92 136.00 95.82 137.10 95.84 Z M 138.12 95.86 L 139.13 95.87 C 140.24 95.88 141.14 95.00 141.15 93.90 C 141.16 92.80 140.28 91.89 139.18 91.88 L 138.16 91.87 C 137.06 91.86 136.16 92.74 136.15 93.84 C 136.13 94.94 137.02 95.85 138.12 95.86 Z M 139.14 95.87 L 140.13 95.88 C 141.23 95.89 142.13 95.00 142.14 93.90 C 142.15 92.80 141.26 91.90 140.16 91.89 L 139.17 91.88 C 138.07 91.87 137.17 92.76 137.16 93.86 C 137.15 94.96 138.04 95.86 139.14 95.87 Z M 140.14 95.88 L 141.12 95.88 C 142.22 95.89 143.11 95.00 143.12 93.90 C 143.13 92.80 142.24 91.90 141.14 91.89 L 140.16 91.89 C 139.05 91.88 138.16 92.77 138.15 93.87 C 138.15 94.97 139.03 95.87 140.14 95.88 Z M 141.12 95.88 L 142.11 95.88 C 143.21 95.89 144.11 95.00 144.11 93.90 C 144.11 92.80 143.22 91.90 142.12 91.90 L 141.13 91.90 C 140.03 91.89 139.14 92.78 139.14 93.88 C 139.13 94.98 140.02 95.88 141.12 95.88 Z M 142.12 95.88 L 143.12 95.88 C 144.22 95.88 145.11 94.99 145.12 93.89 C 145.12 92.79 144.23 91.90 143.13 91.90 L 142.12 91.90 C 141.02 91.90 140.13 92.79 140.13 93.89 C 140.13 94.99 141.02 95.88 142.12 95.88 Z M 143.12 95.88 L 144.15 95.88 C 145.25 95.88 146.14 94.99 146.14 93.89 C 146.14 92.79 145.25 91.90 144.15 91.90 L 143.12 91.90 C 142.03 91.90 141.13 92.79 141.13 93.89 C 141.13 94.99 142.02 95.88 143.12 95.88 Z M 144.15 95.88 L 145.16 95.88 C 146.26 95.88 147.15 94.99 147.15 93.89 C 147.15 92.79 146.26 91.90 145.16 91.90 L 144.15 91.90 C 143.05 91.90 142.16 92.79 142.16 93.89 C 142.16 94.99 143.05 95.88 144.15 95.88 Z M 145.16 95.88 L 146.17 95.88 C 147.27 95.88 148.16 94.99 148.15 93.89 C 148.15 92.79 147.26 91.90 146.17 91.90 L 145.16 91.91 C 144.06 91.91 143.17 92.80 143.17 93.89 C 143.17 94.99 144.06 95.88 145.16 95.88 Z M 146.17 95.88 L 147.19 95.87 C 148.28 95.87 149.17 94.98 149.17 93.88 C 149.16 92.79 148.27 91.90 147.18 91.90 L 146.16 91.91 C 145.07 91.91 144.18 92.80 144.18 93.90 C 144.19 94.99 145.08 95.88 146.17 95.88 Z M 147.19 95.87 L 148.20 95.87 C 149.29 95.86 150.18 94.97 150.17 93.87 C 150.17 92.78 149.28 91.90 148.18 91.90 L 147.17 91.91 C 146.08 91.91 145.19 92.80 145.20 93.90 C 145.20 94.99 146.10 95.88 147.19 95.87 Z M 148.21 95.86 L 149.20 95.86 C 150.29 95.85 151.17 94.95 151.16 93.86 C 151.15 92.77 150.26 91.89 149.17 91.90 L 148.17 91.90 C 147.08 91.91 146.20 92.81 146.21 93.90 C 146.22 94.99 147.11 95.87 148.21 95.86 Z M 149.21 95.85 L 150.20 95.84 C 151.29 95.83 152.17 94.93 152.15 93.84 C 152.14 92.74 151.24 91.87 150.15 91.88 L 149.16 91.90 C 148.06 91.91 147.19 92.81 147.20 93.90 C 147.22 94.99 148.12 95.87 149.21 95.85 Z M 150.21 95.84 L 151.24 95.82 C 152.33 95.80 153.20 94.89 153.18 93.80 C 153.15 92.71 152.25 91.84 151.16 91.87 L 150.14 91.89 C 149.04 91.91 148.18 92.81 148.20 93.90 C 148.22 94.99 149.12 95.86 150.21 95.84 Z M 151.26 95.82 L 152.26 95.79 C 153.35 95.75 154.21 94.85 154.17 93.76 C 154.14 92.66 153.23 91.81 152.14 91.84 L 151.14 91.87 C 150.05 91.90 149.19 92.81 149.23 93.90 C 149.26 94.99 150.17 95.85 151.26 95.82 Z M 152.28 95.78 L 153.27 95.74 C 154.36 95.70 155.20 94.78 155.16 93.69 C 155.11 92.60 154.19 91.76 153.11 91.80 L 152.12 91.84 C 151.03 91.89 150.19 92.81 150.23 93.89 C 150.27 94.98 151.19 95.83 152.28 95.78 Z M 153.29 95.74 L 154.28 95.69 C 155.36 95.63 156.20 94.70 156.14 93.61 C 156.08 92.52 155.15 91.69 154.06 91.75 L 153.08 91.80 C 151.99 91.86 151.16 92.79 151.22 93.88 C 151.28 94.97 152.21 95.80 153.29 95.74 Z M 154.30 95.68 L 155.28 95.62 C 156.37 95.54 157.19 94.60 157.11 93.51 C 157.03 92.43 156.09 91.61 155.01 91.69 L 154.03 91.75 C 152.95 91.83 152.13 92.77 152.20 93.86 C 152.28 94.94 153.22 95.76 154.30 95.68 Z M 155.31 95.61 L 156.28 95.53 C 157.36 95.44 158.17 94.49 158.08 93.40 C 157.98 92.32 157.03 91.52 155.95 91.61 L 154.98 91.69 C 153.90 91.78 153.10 92.73 153.19 93.82 C 153.28 94.90 154.23 95.70 155.31 95.61 Z M 156.31 95.52 L 157.29 95.43 C 158.37 95.32 159.16 94.36 159.06 93.29 C 158.95 92.21 157.99 91.42 156.91 91.52 L 155.93 91.62 C 154.85 91.72 154.06 92.68 154.17 93.76 C 154.27 94.84 155.23 95.63 156.31 95.52 Z M 157.31 95.42 L 158.31 95.31 C 159.38 95.20 160.16 94.24 160.05 93.16 C 159.93 92.09 158.97 91.31 157.90 91.42 L 156.90 91.53 C 155.82 91.64 155.04 92.60 155.16 93.68 C 155.27 94.75 156.23 95.53 157.31 95.42 Z M 158.32 95.31 L 159.33 95.19 C 160.41 95.07 161.18 94.11 161.06 93.03 C 160.93 91.96 159.97 91.19 158.90 91.31 L 157.88 91.43 C 156.81 91.55 156.04 92.52 156.16 93.59 C 156.28 94.66 157.25 95.43 158.32 95.31 Z M 159.34 95.19 L 160.35 95.07 C 161.42 94.94 162.18 93.98 162.06 92.91 C 161.93 91.84 160.96 91.07 159.90 91.20 L 158.89 91.32 C 157.82 91.44 157.05 92.41 157.18 93.48 C 157.31 94.55 158.27 95.31 159.34 95.19 Z M 160.36 95.06 L 161.33 94.95 C 162.40 94.82 163.16 93.85 163.03 92.78 C 162.90 91.72 161.93 90.96 160.87 91.09 L 159.89 91.21 C 158.82 91.33 158.07 92.30 158.19 93.37 C 158.32 94.43 159.29 95.19 160.36 95.06 Z M 161.34 94.94 L 162.33 94.82 C 163.39 94.69 164.14 93.72 164.01 92.66 C 163.88 91.60 162.91 90.84 161.85 90.97 L 160.86 91.09 C 159.80 91.23 159.05 92.19 159.18 93.25 C 159.31 94.32 160.28 95.07 161.34 94.94 Z M 162.33 94.81 L 163.33 94.68 C 164.39 94.55 165.13 93.58 165.00 92.53 C 164.87 91.47 163.90 90.72 162.84 90.85 L 161.85 90.98 C 160.79 91.11 160.04 92.08 160.17 93.14 C 160.31 94.20 161.27 94.94 162.33 94.81 Z M 163.33 94.68 L 164.33 94.55 C 165.39 94.41 166.13 93.44 165.99 92.39 C 165.86 91.34 164.89 90.59 163.84 90.73 L 162.84 90.86 C 161.78 91.00 161.04 91.96 161.18 93.02 C 161.31 94.07 162.28 94.81 163.33 94.68 Z M 164.34 94.54 L 165.34 94.41 C 166.39 94.26 167.13 93.30 166.99 92.25 C 166.85 91.20 165.89 90.46 164.84 90.60 L 163.83 90.74 C 162.78 90.88 162.04 91.84 162.18 92.89 C 162.32 93.94 163.29 94.68 164.34 94.54 Z M 165.35 94.40 L 166.35 94.26 C 167.39 94.12 168.12 93.15 167.98 92.11 C 167.84 91.06 166.87 90.33 165.83 90.47 L 164.83 90.61 C 163.78 90.75 163.05 91.72 163.19 92.76 C 163.34 93.81 164.30 94.54 165.35 94.40 Z M 166.35 94.26 L 167.35 94.12 C 168.39 93.97 169.12 93.00 168.97 91.96 C 168.82 90.92 167.86 90.19 166.81 90.34 L 165.82 90.48 C 164.78 90.63 164.05 91.59 164.20 92.63 C 164.34 93.68 165.31 94.40 166.35 94.26 Z M 167.35 94.11 L 168.34 93.97 C 169.38 93.82 170.11 92.85 169.96 91.81 C 169.81 90.77 168.84 90.05 167.80 90.20 L 166.81 90.34 C 165.77 90.49 165.05 91.46 165.20 92.50 C 165.35 93.54 166.31 94.26 167.35 94.11 Z M 168.35 93.96 L 169.34 93.81 C 170.37 93.66 171.09 92.70 170.94 91.66 C 170.78 90.62 169.82 89.91 168.78 90.06 L 167.80 90.21 C 166.76 90.36 166.04 91.32 166.20 92.36 C 166.35 93.40 167.31 94.11 168.35 93.96 Z M 169.34 93.81 L 170.33 93.66 C 171.36 93.50 172.07 92.54 171.91 91.51 C 171.76 90.47 170.79 89.76 169.76 89.92 L 168.78 90.07 C 167.75 90.22 167.03 91.19 167.19 92.22 C 167.35 93.25 168.31 93.96 169.34 93.81 Z M 170.33 93.65 L 171.32 93.50 C 172.35 93.34 173.05 92.38 172.89 91.35 C 172.73 90.32 171.77 89.61 170.74 89.77 L 169.76 89.92 C 168.73 90.08 168.02 91.05 168.18 92.08 C 168.34 93.11 169.30 93.81 170.33 93.65 Z M 171.32 93.49 L 172.31 93.34 C 173.33 93.18 174.03 92.21 173.87 91.19 C 173.71 90.16 172.75 89.46 171.72 89.62 L 170.74 89.78 C 169.71 89.94 169.01 90.90 169.17 91.93 C 169.33 92.95 170.30 93.66 171.32 93.49 Z M 172.31 93.33 L 173.29 93.17 C 174.32 93.01 175.01 92.05 174.85 91.03 C 174.68 90.01 173.72 89.31 172.70 89.47 L 171.72 89.63 C 170.70 89.79 170.00 90.75 170.16 91.78 C 170.33 92.80 171.29 93.49 172.31 93.33 Z M 173.29 93.17 L 174.28 93.01 C 175.30 92.85 175.99 91.89 175.83 90.87 C 175.66 89.85 174.70 89.16 173.69 89.32 L 172.70 89.48 C 171.68 89.64 170.99 90.60 171.15 91.62 C 171.32 92.64 172.28 93.33 173.29 93.17 Z M 174.28 93.00 L 175.27 92.85 C 176.28 92.68 176.97 91.73 176.81 90.71 C 176.65 89.69 175.69 89.00 174.67 89.17 L 173.69 89.33 C 172.67 89.49 171.98 90.45 172.14 91.46 C 172.31 92.48 173.26 93.17 174.28 93.00 Z M 175.26 92.84 L 176.26 92.68 C 177.27 92.52 177.96 91.57 177.80 90.55 C 177.64 89.54 176.69 88.85 175.67 89.01 L 174.68 89.17 C 173.66 89.33 172.98 90.29 173.14 91.30 C 173.30 92.31 174.25 93.00 175.26 92.84 Z M 176.26 92.67 L 177.27 92.51 C 178.27 92.35 178.96 91.41 178.80 90.40 C 178.64 89.39 177.69 88.70 176.69 88.86 L 175.68 89.02 C 174.67 89.18 173.98 90.13 174.14 91.14 C 174.30 92.15 175.25 92.83 176.26 92.67 Z M 177.26 92.51 L 178.27 92.35 C 179.28 92.19 179.96 91.25 179.80 90.24 C 179.65 89.23 178.70 88.55 177.69 88.71 L 176.69 88.86 C 175.68 89.02 174.99 89.97 175.15 90.97 C 175.31 91.98 176.26 92.67 177.26 92.51 Z M 178.27 92.34 L 179.27 92.19 C 180.27 92.03 180.95 91.09 180.80 90.08 C 180.64 89.08 179.69 88.39 178.69 88.55 L 177.69 88.71 C 176.69 88.87 176.01 89.81 176.16 90.82 C 176.32 91.82 177.27 92.50 178.27 92.34 Z M 179.27 92.18 L 180.25 92.02 C 181.25 91.87 181.93 90.93 181.77 89.93 C 181.61 88.93 180.67 88.24 179.67 88.40 L 178.69 88.56 C 177.69 88.72 177.01 89.66 177.17 90.66 C 177.33 91.66 178.27 92.34 179.27 92.18 Z M 180.25 92.02 L 181.20 91.86 C 182.19 91.70 182.87 90.77 182.71 89.77 C 182.55 88.77 181.61 88.09 180.61 88.26 L 179.66 88.41 C 178.67 88.57 177.99 89.51 178.15 90.51 C 178.31 91.50 179.25 92.18 180.25 92.02 Z M 181.20 91.86 L 182.23 91.69 C 183.23 91.52 183.90 90.59 183.73 89.59 C 183.57 88.60 182.63 87.93 181.64 88.09 L 180.61 88.26 C 179.62 88.43 178.95 89.36 179.11 90.36 C 179.27 91.35 180.21 92.02 181.20 91.86 Z M 182.24 91.68 L 183.24 91.51 C 184.23 91.34 184.89 90.41 184.73 89.42 C 184.56 88.43 183.63 87.77 182.64 87.93 L 181.64 88.10 C 180.65 88.27 179.98 89.20 180.15 90.19 C 180.32 91.18 181.25 91.84 182.24 91.68 Z M 183.24 91.50 L 184.22 91.34 C 185.20 91.17 185.86 90.23 185.69 89.25 C 185.52 88.27 184.59 87.61 183.61 87.78 L 182.64 87.94 C 181.65 88.11 180.99 89.04 181.16 90.03 C 181.33 91.01 182.26 91.67 183.24 91.50 Z M 184.22 91.33 L 185.18 91.16 C 186.15 90.99 186.81 90.06 186.64 89.09 C 186.47 88.11 185.54 87.45 184.57 87.62 L 183.61 87.78 C 182.63 87.95 181.97 88.88 182.14 89.86 C 182.31 90.84 183.24 91.50 184.22 91.33 Z M 185.17 91.15 L 186.14 90.99 C 187.11 90.82 187.77 89.89 187.60 88.92 C 187.43 87.95 186.50 87.29 185.53 87.46 L 184.57 87.63 C 183.59 87.80 182.94 88.72 183.11 89.69 C 183.27 90.67 184.20 91.32 185.17 91.15 Z M 186.14 90.98 L 187.14 90.81 C 188.10 90.64 188.76 89.72 188.59 88.75 C 188.42 87.78 187.50 87.13 186.53 87.30 L 185.53 87.47 C 184.56 87.64 183.91 88.56 184.08 89.53 C 184.25 90.50 185.17 91.15 186.14 90.98 Z M 187.13 90.80 L 188.13 90.63 C 189.09 90.46 189.74 89.55 189.57 88.58 C 189.41 87.62 188.49 86.97 187.53 87.13 L 186.53 87.31 C 185.57 87.47 184.92 88.39 185.09 89.35 C 185.25 90.32 186.17 90.97 187.13 90.80 Z M 188.13 90.62 L 189.11 90.45 C 190.07 90.29 190.71 89.37 190.55 88.41 C 190.38 87.45 189.47 86.81 188.51 86.97 L 187.53 87.14 C 186.57 87.31 185.92 88.22 186.09 89.18 C 186.25 90.14 187.17 90.79 188.13 90.62 Z M 189.11 90.44 L 190.08 90.28 C 191.03 90.11 191.67 89.20 191.51 88.25 C 191.34 87.29 190.44 86.65 189.48 86.82 L 188.51 86.98 C 187.56 87.15 186.92 88.06 187.08 89.01 C 187.24 89.97 188.15 90.61 189.11 90.44 Z M 190.08 90.27 L 191.10 90.09 C 192.05 89.93 192.69 89.02 192.52 88.07 C 192.36 87.12 191.45 86.48 190.50 86.65 L 189.48 86.82 C 188.53 86.99 187.89 87.89 188.06 88.84 C 188.22 89.79 189.12 90.43 190.08 90.27 Z M 191.09 90.08 L 192.10 89.91 C 193.05 89.75 193.68 88.85 193.52 87.90 C 193.36 86.95 192.46 86.32 191.51 86.48 L 190.50 86.66 C 189.56 86.82 188.92 87.72 189.09 88.67 C 189.25 89.61 190.15 90.25 191.09 90.08 Z M 192.10 89.90 L 193.08 89.73 C 194.02 89.57 194.65 88.68 194.49 87.74 C 194.33 86.79 193.43 86.16 192.49 86.32 L 191.51 86.49 C 190.57 86.65 189.94 87.54 190.10 88.49 C 190.26 89.43 191.16 90.06 192.10 89.90 Z M 193.07 89.73 L 194.01 89.57 C 194.95 89.41 195.58 88.52 195.43 87.59 C 195.27 86.65 194.38 86.01 193.44 86.17 L 192.50 86.33 C 191.56 86.49 190.93 87.38 191.09 88.31 C 191.24 89.25 192.13 89.88 193.07 89.73 Z M 194.00 89.56 L 195.03 89.39 C 195.97 89.24 196.60 88.36 196.45 87.43 C 196.29 86.49 195.41 85.86 194.48 86.01 L 193.45 86.18 C 192.52 86.33 191.89 87.21 192.04 88.15 C 192.19 89.08 193.07 89.71 194.00 89.56 Z M 195.03 89.38 L 196.04 89.22 C 196.97 89.07 197.60 88.20 197.45 87.27 C 197.30 86.34 196.43 85.71 195.50 85.86 L 194.49 86.02 C 193.56 86.17 192.93 87.04 193.08 87.97 C 193.22 88.90 194.10 89.53 195.03 89.38 Z M 196.04 89.21 L 197.00 89.05 C 197.92 88.90 198.55 88.03 198.40 87.11 C 198.25 86.19 197.38 85.56 196.46 85.71 L 195.50 85.87 C 194.57 86.02 193.95 86.89 194.10 87.81 C 194.25 88.73 195.12 89.36 196.04 89.21 Z M 197.01 89.04 L 197.97 88.88 C 198.89 88.72 199.50 87.85 199.35 86.93 C 199.19 86.02 198.32 85.41 197.40 85.56 L 196.44 85.73 C 195.53 85.88 194.91 86.75 195.07 87.67 C 195.23 88.58 196.10 89.20 197.01 89.04 Z M 197.99 88.86 L 199.01 88.68 C 199.92 88.51 200.52 87.64 200.35 86.73 C 200.19 85.83 199.32 85.23 198.41 85.39 L 197.39 85.58 C 196.48 85.74 195.88 86.61 196.05 87.52 C 196.21 88.42 197.08 89.03 197.99 88.86 Z M 199.00 88.66 L 199.96 88.49 C 200.86 88.33 201.46 87.47 201.30 86.57 C 201.14 85.67 200.27 85.07 199.37 85.23 L 198.42 85.40 C 197.52 85.57 196.92 86.43 197.08 87.33 C 197.24 88.23 198.10 88.83 199.00 88.66 Z M 199.93 88.48 L 200.90 88.33 C 201.79 88.18 202.40 87.34 202.26 86.44 C 202.11 85.54 201.27 84.93 200.37 85.08 L 199.40 85.24 C 198.51 85.38 197.90 86.23 198.05 87.12 C 198.19 88.02 199.04 88.63 199.93 88.48 Z M 200.85 88.32 L 201.85 88.18 C 202.74 88.06 203.37 87.24 203.25 86.35 C 203.13 85.46 202.31 84.83 201.42 84.95 L 200.42 85.09 C 199.53 85.21 198.90 86.03 199.02 86.92 C 199.14 87.81 199.96 88.44 200.85 88.32 Z M 201.81 88.17 L 202.78 88.07 C 203.67 87.97 204.31 87.17 204.21 86.29 C 204.11 85.40 203.32 84.76 202.43 84.86 L 201.46 84.97 C 200.57 85.06 199.93 85.86 200.03 86.74 C 200.13 87.63 200.92 88.27 201.81 88.17 Z M 202.71 88.06 L 203.85 87.98 C 204.73 87.93 205.40 87.17 205.34 86.28 C 205.28 85.40 204.52 84.74 203.64 84.79 L 202.50 84.87 C 201.62 84.93 200.95 85.69 201.01 86.57 C 201.07 87.45 201.83 88.11 202.71 88.06 Z M 203.45 87.94 L 204.31 88.10 C 205.17 88.27 205.99 87.70 206.15 86.84 C 206.32 85.98 205.75 85.15 204.89 84.99 L 204.04 84.83 C 203.18 84.67 202.35 85.24 202.19 86.10 C 202.03 86.96 202.60 87.78 203.45 87.94 Z M 203.13 87.05 L 203.39 87.82 C 203.67 88.63 204.55 89.06 205.37 88.78 C 206.18 88.50 206.61 87.62 206.33 86.81 L 206.07 86.04 C 205.79 85.23 204.91 84.80 204.09 85.08 C 203.28 85.36 202.85 86.24 203.13 87.05 Z M 203.45 86.79 L 203.08 87.78 C 202.79 88.56 203.19 89.43 203.97 89.72 C 204.76 90.00 205.62 89.60 205.91 88.82 L 206.28 87.84 C 206.56 87.05 206.17 86.19 205.38 85.90 C 204.60 85.61 203.73 86.01 203.45 86.79 Z M 203.28 87.48 L 202.73 88.29 C 202.28 88.96 202.46 89.88 203.14 90.33 C 203.81 90.78 204.73 90.60 205.18 89.93 L 205.72 89.12 C 206.17 88.44 205.99 87.53 205.31 87.08 C 204.64 86.63 203.73 86.81 203.28 87.48 Z M 202.85 88.18 L 202.19 88.98 C 201.67 89.59 201.75 90.49 202.36 91.01 C 202.97 91.52 203.88 91.44 204.39 90.83 L 205.06 90.03 C 205.57 89.43 205.49 88.52 204.88 88.00 C 204.27 87.49 203.36 87.57 202.85 88.18 Z M 202.24 88.94 L 201.57 89.66 C 201.04 90.24 201.08 91.14 201.66 91.68 C 202.24 92.21 203.15 92.17 203.68 91.59 L 204.34 90.87 C 204.87 90.29 204.83 89.38 204.25 88.85 C 203.67 88.32 202.77 88.36 202.24 88.94 Z M 201.59 89.64 L 200.88 90.39 C 200.34 90.96 200.36 91.86 200.93 92.40 C 201.51 92.95 202.41 92.92 202.95 92.35 L 203.66 91.61 C 204.20 91.04 204.18 90.13 203.61 89.59 C 203.04 89.05 202.14 89.07 201.59 89.64 Z M 200.89 90.38 L 200.69 90.60 C 200.14 91.16 200.16 92.07 200.73 92.61 C 201.30 93.16 202.20 93.14 202.74 92.57 L 202.95 92.36 C 203.49 91.79 203.47 90.89 202.90 90.34 C 202.34 89.80 201.43 89.82 200.89 90.38 Z"
      fill="black"
      fill-rule="nonzero" /><path d="M 83.41 85.95 L 82.75 86.69 C 82.19 87.31 82.25 88.27 82.87 88.82 C 83.49 89.38 84.45 89.33 85.01 88.70 L 85.66 87.97 C 86.22 87.35 86.17 86.39 85.54 85.83 C 84.92 85.28 83.96 85.33 83.41 85.95 Z M 82.54 86.89 L 82.02 87.75 C 81.58 88.49 81.81 89.45 82.55 89.89 C 83.29 90.34 84.25 90.10 84.69 89.36 L 85.21 88.50 C 85.66 87.77 85.42 86.81 84.69 86.36 C 83.95 85.91 82.99 86.15 82.54 86.89 Z M 81.82 88.13 L 81.56 89.06 C 81.32 89.91 81.82 90.79 82.67 91.03 C 83.52 91.27 84.40 90.77 84.64 89.92 L 84.90 88.99 C 85.13 88.14 84.64 87.26 83.79 87.02 C 82.94 86.78 82.06 87.28 81.82 88.13 Z M 81.48 89.31 L 81.37 90.32 C 81.27 91.21 81.91 92.02 82.80 92.12 C 83.69 92.22 84.49 91.58 84.59 90.69 L 84.71 89.67 C 84.81 88.78 84.17 87.98 83.28 87.88 C 82.39 87.78 81.59 88.42 81.48 89.31 Z M 81.34 90.43 L 81.30 91.43 C 81.25 92.34 81.96 93.11 82.86 93.15 C 83.77 93.19 84.54 92.48 84.58 91.58 L 84.62 90.58 C 84.66 89.67 83.96 88.90 83.05 88.86 C 82.15 88.82 81.38 89.53 81.34 90.43 Z M 81.28 91.48 L 81.27 92.46 C 81.25 93.38 81.99 94.13 82.90 94.14 C 83.81 94.16 84.57 93.43 84.58 92.51 L 84.59 91.53 C 84.61 90.61 83.87 89.86 82.96 89.85 C 82.05 89.84 81.29 90.57 81.28 91.48 Z M 81.26 92.49 L 81.26 93.47 C 81.26 94.39 82.00 95.14 82.92 95.14 C 83.84 95.14 84.59 94.39 84.59 93.47 L 84.59 92.49 C 84.59 91.57 83.84 90.82 82.92 90.82 C 82.01 90.82 81.26 91.57 81.26 92.49 Z M 81.25 93.47 L 81.25 94.39 C 81.25 95.31 82.00 96.06 82.92 96.06 C 83.85 96.06 84.60 95.31 84.60 94.39 L 84.60 93.47 C 84.60 92.55 83.85 91.80 82.92 91.80 C 82.00 91.80 81.25 92.55 81.25 93.47 Z M 81.24 94.39 L 81.24 95.42 C 81.24 96.34 81.99 97.10 82.92 97.10 C 83.85 97.10 84.60 96.34 84.60 95.42 L 84.60 94.39 C 84.60 93.46 83.85 92.71 82.92 92.71 C 81.99 92.71 81.24 93.46 81.24 94.39 Z M 81.23 95.42 L 81.23 96.48 C 81.23 97.41 81.99 98.16 82.92 98.16 C 83.85 98.16 84.61 97.41 84.61 96.48 L 84.61 95.42 C 84.61 94.48 83.85 93.73 82.92 93.73 C 81.99 93.73 81.23 94.48 81.23 95.42 Z M 81.23 96.48 L 81.23 97.42 C 81.23 98.36 81.99 99.11 82.93 99.11 C 83.86 99.11 84.62 98.35 84.62 97.42 L 84.62 96.47 C 84.61 95.54 83.86 94.78 82.92 94.78 C 81.98 94.78 81.23 95.54 81.23 96.48 Z M 81.22 97.43 L 81.23 98.43 C 81.23 99.37 82.00 100.13 82.94 100.12 C 83.88 100.12 84.64 99.35 84.63 98.41 L 84.62 97.41 C 84.62 96.47 83.85 95.71 82.91 95.72 C 81.97 95.72 81.22 96.49 81.22 97.43 Z M 81.22 98.44 L 81.24 99.49 C 81.25 100.43 82.02 101.18 82.97 101.17 C 83.91 101.16 84.66 100.38 84.65 99.44 L 84.64 98.40 C 84.62 97.45 83.85 96.70 82.91 96.71 C 81.96 96.73 81.21 97.50 81.22 98.44 Z M 81.23 99.51 L 81.26 100.54 C 81.28 101.48 82.06 102.23 83.01 102.21 C 83.95 102.19 84.70 101.40 84.68 100.46 L 84.66 99.42 C 84.63 98.48 83.85 97.73 82.90 97.75 C 81.96 97.78 81.21 98.56 81.23 99.51 Z M 81.25 100.56 L 81.28 101.53 C 81.32 102.48 82.11 103.22 83.06 103.19 C 84.01 103.15 84.75 102.36 84.72 101.41 L 84.68 100.44 C 84.65 99.49 83.86 98.75 82.91 98.78 C 81.96 98.81 81.22 99.61 81.25 100.56 Z M 81.28 101.54 L 81.32 102.53 C 81.37 103.48 82.17 104.22 83.12 104.18 C 84.07 104.13 84.80 103.33 84.76 102.38 L 84.72 101.39 C 84.68 100.44 83.88 99.71 82.93 99.75 C 81.98 99.79 81.24 100.59 81.28 101.54 Z M 81.32 102.54 L 81.37 103.55 C 81.42 104.50 82.23 105.24 83.18 105.19 C 84.13 105.14 84.87 104.33 84.82 103.38 L 84.77 102.37 C 84.72 101.42 83.91 100.69 82.96 100.73 C 82.01 100.78 81.27 101.59 81.32 102.54 Z M 81.37 103.56 L 81.42 104.59 C 81.48 105.55 82.29 106.28 83.25 106.23 C 84.20 106.17 84.93 105.36 84.88 104.40 L 84.82 103.37 C 84.77 102.42 83.95 101.69 83.00 101.74 C 82.05 101.79 81.32 102.61 81.37 103.56 Z M 81.42 104.60 L 81.48 105.57 C 81.53 106.53 82.35 107.26 83.31 107.20 C 84.26 107.15 84.99 106.33 84.94 105.37 L 84.88 104.40 C 84.83 103.44 84.01 102.71 83.05 102.77 C 82.10 102.82 81.37 103.64 81.42 104.60 Z M 81.48 105.58 L 81.53 106.56 C 81.59 107.51 82.41 108.24 83.37 108.19 C 84.32 108.13 85.05 107.31 85.00 106.35 L 84.94 105.37 C 84.88 104.41 84.06 103.68 83.10 103.74 C 82.15 103.80 81.42 104.62 81.48 105.58 Z M 81.53 106.56 L 81.59 107.56 C 81.65 108.52 82.47 109.25 83.43 109.19 C 84.39 109.13 85.12 108.31 85.06 107.35 L 85.00 106.35 C 84.94 105.39 84.12 104.66 83.16 104.72 C 82.20 104.78 81.47 105.60 81.53 106.56 Z M 81.59 107.56 L 81.65 108.58 C 81.71 109.53 82.54 110.26 83.49 110.21 C 84.45 110.15 85.18 109.32 85.12 108.36 L 85.06 107.35 C 85.00 106.39 84.18 105.66 83.22 105.72 C 82.26 105.78 81.53 106.60 81.59 107.56 Z M 81.65 108.58 L 81.71 109.60 C 81.77 110.56 82.60 111.29 83.56 111.23 C 84.52 111.17 85.25 110.35 85.19 109.39 L 85.12 108.36 C 85.07 107.40 84.24 106.68 83.28 106.73 C 82.32 106.79 81.59 107.62 81.65 108.58 Z M 81.71 109.60 L 81.77 110.61 C 81.83 111.57 82.66 112.30 83.62 112.25 C 84.58 112.19 85.31 111.36 85.25 110.40 L 85.19 109.39 C 85.13 108.43 84.31 107.70 83.34 107.76 C 82.38 107.81 81.65 108.64 81.71 109.60 Z M 81.77 110.61 L 81.83 111.62 C 81.89 112.59 82.72 113.32 83.68 113.26 C 84.64 113.20 85.38 112.37 85.32 111.41 L 85.26 110.40 C 85.20 109.44 84.37 108.70 83.41 108.76 C 82.44 108.82 81.71 109.65 81.77 110.61 Z M 81.82 111.62 L 81.89 112.63 C 81.95 113.59 82.78 114.33 83.74 114.27 C 84.71 114.21 85.45 113.38 85.39 112.41 L 85.32 111.41 C 85.26 110.44 84.43 109.71 83.47 109.77 C 82.50 109.83 81.77 110.66 81.82 111.62 Z M 81.88 112.63 L 81.94 113.62 C 82.00 114.59 82.84 115.33 83.81 115.27 C 84.78 115.21 85.51 114.37 85.45 113.41 L 85.39 112.41 C 85.33 111.44 84.50 110.71 83.53 110.77 C 82.56 110.83 81.82 111.66 81.88 112.63 Z M 81.94 113.63 L 82.00 114.60 C 82.06 115.57 82.90 116.31 83.87 116.25 C 84.84 116.19 85.58 115.35 85.52 114.38 L 85.46 113.40 C 85.40 112.43 84.56 111.69 83.59 111.75 C 82.61 111.82 81.88 112.65 81.94 113.63 Z M 81.99 114.60 L 82.06 115.62 C 82.12 116.59 82.96 117.33 83.94 117.27 C 84.91 117.20 85.65 116.36 85.59 115.39 L 85.52 114.38 C 85.46 113.40 84.62 112.66 83.65 112.73 C 82.67 112.79 81.93 113.63 81.99 114.60 Z M 82.06 115.62 L 82.12 116.62 C 82.18 117.59 83.03 118.33 84.00 118.27 C 84.98 118.21 85.72 117.36 85.66 116.39 L 85.59 115.39 C 85.53 114.41 84.69 113.67 83.71 113.73 C 82.73 113.80 81.99 114.64 82.06 115.62 Z M 82.12 116.61 L 82.18 117.60 C 82.24 118.58 83.09 119.33 84.07 119.27 C 85.05 119.20 85.79 118.36 85.73 117.38 L 85.66 116.39 C 85.60 115.41 84.76 114.66 83.78 114.73 C 82.80 114.79 82.05 115.64 82.12 116.61 Z M 82.17 117.60 L 82.23 118.59 C 82.30 119.57 83.14 120.32 84.12 120.26 C 85.11 120.20 85.85 119.35 85.79 118.37 L 85.73 117.38 C 85.67 116.40 84.83 115.65 83.84 115.71 C 82.86 115.77 82.11 116.62 82.17 117.60 Z M 82.23 118.58 L 82.29 119.57 C 82.34 120.56 83.19 121.31 84.17 121.25 C 85.16 121.20 85.91 120.35 85.85 119.37 L 85.80 118.38 C 85.74 117.39 84.90 116.64 83.91 116.70 C 82.93 116.75 82.17 117.60 82.23 118.58 Z M 82.28 119.56 L 82.33 120.53 C 82.39 121.51 83.23 122.27 84.22 122.22 C 85.21 122.17 85.96 121.32 85.91 120.34 L 85.86 119.37 C 85.81 118.39 84.96 117.63 83.98 117.68 C 82.99 117.73 82.23 118.58 82.28 119.56 Z M 82.33 120.52 L 82.38 121.50 C 82.43 122.49 83.27 123.25 84.26 123.20 C 85.25 123.15 86.01 122.31 85.96 121.32 L 85.92 120.34 C 85.87 119.35 85.02 118.59 84.03 118.64 C 83.04 118.69 82.28 119.53 82.33 120.52 Z M 82.37 121.49 L 82.42 122.49 C 82.47 123.49 83.31 124.25 84.30 124.21 C 85.30 124.16 86.06 123.32 86.02 122.33 L 85.97 121.33 C 85.92 120.33 85.08 119.57 84.09 119.61 C 83.09 119.66 82.33 120.50 82.37 121.49 Z M 82.42 122.49 L 82.46 123.51 C 82.51 124.51 83.35 125.28 84.34 125.24 C 85.34 125.19 86.11 124.35 86.07 123.35 L 86.02 122.33 C 85.98 121.33 85.13 120.56 84.14 120.61 C 83.14 120.65 82.37 121.50 82.42 122.49 Z M 82.46 123.51 L 82.50 124.54 C 82.55 125.54 83.39 126.31 84.39 126.27 C 85.39 126.23 86.16 125.38 86.12 124.38 L 86.07 123.35 C 86.03 122.36 85.18 121.58 84.18 121.63 C 83.19 121.67 82.41 122.52 82.46 123.51 Z M 82.50 124.54 L 82.54 125.51 C 82.58 126.51 83.43 127.28 84.43 127.24 C 85.43 127.20 86.20 126.35 86.16 125.35 L 86.12 124.39 C 86.08 123.39 85.23 122.61 84.23 122.65 C 83.23 122.70 82.46 123.54 82.50 124.54 Z M 82.54 125.51 L 82.58 126.49 C 82.62 127.50 83.47 128.27 84.47 128.23 C 85.47 128.19 86.25 127.34 86.21 126.34 L 86.16 125.35 C 86.12 124.35 85.28 123.57 84.27 123.62 C 83.27 123.66 82.49 124.51 82.54 125.51 Z M 82.57 126.49 L 82.62 127.50 C 82.66 128.50 83.51 129.28 84.51 129.24 C 85.51 129.20 86.29 128.35 86.25 127.34 L 86.21 126.34 C 86.17 125.34 85.32 124.56 84.32 124.60 C 83.31 124.64 82.53 125.49 82.57 126.49 Z M 82.61 127.49 L 82.65 128.51 C 82.70 129.52 83.55 130.30 84.55 130.26 C 85.56 130.21 86.34 129.36 86.30 128.36 L 86.26 127.34 C 86.21 126.34 85.37 125.56 84.36 125.60 C 83.35 125.64 82.57 126.49 82.61 127.49 Z M 82.65 128.51 L 82.69 129.53 C 82.73 130.54 83.58 131.32 84.59 131.28 C 85.60 131.24 86.38 130.39 86.34 129.38 L 86.30 128.36 C 86.26 127.35 85.41 126.57 84.40 126.61 C 83.39 126.65 82.61 127.50 82.65 128.51 Z M 82.69 129.53 L 82.73 130.54 C 82.77 131.55 83.62 132.34 84.63 132.30 C 85.64 132.26 86.43 131.41 86.39 130.40 L 86.35 129.38 C 86.31 128.37 85.45 127.59 84.44 127.63 C 83.43 127.67 82.65 128.52 82.69 129.53 Z M 82.73 130.54 L 82.77 131.55 C 82.81 132.56 83.66 133.35 84.67 133.31 C 85.68 133.27 86.47 132.42 86.43 131.41 L 86.39 130.40 C 86.35 129.39 85.50 128.60 84.49 128.64 C 83.47 128.68 82.69 129.53 82.73 130.54 Z M 82.76 131.55 L 82.80 132.56 C 82.84 133.57 83.70 134.36 84.71 134.32 C 85.72 134.28 86.51 133.43 86.47 132.41 L 86.43 131.41 C 86.39 130.39 85.54 129.60 84.53 129.64 C 83.51 129.68 82.72 130.54 82.76 131.55 Z M 82.80 132.56 L 82.84 133.56 C 82.88 134.57 83.74 135.36 84.75 135.32 C 85.77 135.28 86.56 134.43 86.52 133.41 L 86.48 132.41 C 86.44 131.40 85.58 130.61 84.57 130.65 C 83.55 130.69 82.76 131.54 82.80 132.56 Z M 82.84 133.56 L 82.88 134.55 C 82.92 135.57 83.78 136.36 84.79 136.32 C 85.81 136.28 86.60 135.42 86.56 134.41 L 86.52 133.41 C 86.48 132.39 85.62 131.60 84.60 131.64 C 83.59 131.69 82.80 132.54 82.84 133.56 Z M 82.87 134.56 L 82.91 135.54 C 82.96 136.56 83.82 137.35 84.83 137.31 C 85.85 137.27 86.65 136.41 86.60 135.39 L 86.56 134.40 C 86.52 133.39 85.66 132.59 84.64 132.64 C 83.62 132.68 82.83 133.54 82.87 134.56 Z M 82.91 135.54 L 82.95 136.55 C 83.00 137.57 83.86 138.36 84.88 138.32 C 85.90 138.27 86.69 137.41 86.65 136.39 L 86.61 135.39 C 86.56 134.37 85.70 133.57 84.68 133.62 C 83.66 133.66 82.87 134.52 82.91 135.54 Z M 82.95 136.55 L 83.00 137.55 C 83.04 138.57 83.90 139.36 84.92 139.32 C 85.94 139.27 86.73 138.41 86.69 137.39 L 86.65 136.39 C 86.60 135.37 85.74 134.58 84.72 134.62 C 83.70 134.67 82.91 135.53 82.95 136.55 Z M 83.00 137.55 L 83.04 138.54 C 83.08 139.56 83.95 140.35 84.97 140.31 C 85.99 140.27 86.78 139.40 86.73 138.38 L 86.69 137.39 C 86.65 136.37 85.78 135.58 84.76 135.62 C 83.74 135.67 82.95 136.53 83.00 137.55 Z M 83.04 138.54 L 83.08 139.54 C 83.13 140.56 83.99 141.35 85.01 141.30 C 86.03 141.26 86.82 140.40 86.78 139.38 L 86.73 138.38 C 86.69 137.36 85.83 136.57 84.81 136.61 C 83.79 136.66 82.99 137.52 83.04 138.54 Z M 83.08 139.54 L 83.12 140.54 C 83.17 141.56 84.03 142.35 85.05 142.30 C 86.07 142.26 86.87 141.40 86.82 140.37 L 86.78 139.38 C 86.73 138.35 85.87 137.56 84.85 137.61 C 83.83 137.65 83.04 138.52 83.08 139.54 Z M 83.12 140.53 L 83.17 141.54 C 83.21 142.56 84.07 143.36 85.10 143.31 C 86.12 143.27 86.91 142.40 86.87 141.38 L 86.82 140.38 C 86.78 139.35 85.92 138.56 84.89 138.61 C 83.87 138.65 83.08 139.51 83.12 140.53 Z M 83.16 141.54 L 83.21 142.55 C 83.25 143.57 84.11 144.37 85.14 144.33 C 86.16 144.28 86.95 143.42 86.91 142.40 L 86.87 141.38 C 86.82 140.36 85.96 139.57 84.94 139.61 C 83.92 139.65 83.12 140.52 83.16 141.54 Z M 83.21 142.55 L 83.25 143.56 C 83.29 144.59 84.15 145.38 85.17 145.34 C 86.20 145.30 86.99 144.44 86.95 143.41 L 86.91 142.40 C 86.87 141.38 86.01 140.58 84.98 140.62 C 83.96 140.66 83.16 141.53 83.21 142.55 Z M 83.25 143.56 L 83.28 144.57 C 83.32 145.59 84.19 146.39 85.21 146.35 C 86.23 146.31 87.03 145.45 86.99 144.42 L 86.95 143.42 C 86.91 142.39 86.05 141.59 85.03 141.63 C 84.00 141.67 83.21 142.54 83.25 143.56 Z M 83.28 144.56 L 83.32 145.55 C 83.35 146.58 84.21 147.38 85.24 147.34 C 86.26 147.30 87.07 146.44 87.03 145.42 L 86.99 144.43 C 86.96 143.40 86.10 142.60 85.07 142.64 C 84.05 142.68 83.25 143.54 83.28 144.56 Z M 83.32 145.54 L 83.35 146.51 C 83.38 147.54 84.24 148.34 85.26 148.31 C 86.29 148.28 87.09 147.42 87.06 146.40 L 87.03 145.43 C 87.00 144.40 86.14 143.60 85.11 143.63 C 84.09 143.66 83.28 144.52 83.32 145.54 Z M 83.35 146.51 L 83.37 147.52 C 83.40 148.55 84.26 149.36 85.28 149.33 C 86.31 149.30 87.12 148.45 87.09 147.42 L 87.06 146.40 C 87.03 145.38 86.18 144.57 85.15 144.60 C 84.13 144.62 83.32 145.48 83.35 146.51 Z M 83.37 147.51 L 83.40 148.51 C 83.42 149.53 84.27 150.35 85.30 150.32 C 86.32 150.30 87.14 149.45 87.11 148.42 L 87.09 147.43 C 87.07 146.40 86.22 145.59 85.19 145.61 C 84.16 145.64 83.35 146.49 83.37 147.51 Z M 83.40 148.50 L 83.41 149.49 C 83.43 150.51 84.28 151.33 85.31 151.31 C 86.33 151.29 87.15 150.44 87.13 149.41 L 87.11 148.43 C 87.09 147.40 86.25 146.59 85.22 146.61 C 84.19 146.63 83.38 147.47 83.40 148.50 Z M 83.41 149.48 L 83.43 150.47 C 83.45 151.50 84.29 152.32 85.32 152.30 C 86.35 152.28 87.16 151.44 87.15 150.41 L 87.13 149.42 C 87.12 148.39 86.27 147.57 85.24 147.59 C 84.22 147.61 83.40 148.45 83.41 149.48 Z M 83.43 150.47 L 83.45 151.48 C 83.46 152.51 84.30 153.33 85.33 153.31 C 86.36 153.30 87.18 152.45 87.16 151.42 L 87.15 150.41 C 87.13 149.39 86.29 148.57 85.26 148.58 C 84.24 148.60 83.42 149.44 83.43 150.47 Z M 83.44 151.48 L 83.46 152.45 C 83.47 153.48 84.32 154.30 85.34 154.29 C 86.37 154.27 87.19 153.43 87.18 152.40 L 87.16 151.43 C 87.15 150.40 86.30 149.58 85.28 149.59 C 84.25 149.61 83.43 150.45 83.44 151.48 Z M 83.46 152.45 L 83.47 153.45 C 83.49 154.48 84.33 155.30 85.36 155.28 C 86.38 155.27 87.20 154.42 87.19 153.40 L 87.18 152.40 C 87.16 151.38 86.32 150.55 85.29 150.57 C 84.27 150.58 83.44 151.43 83.46 152.45 Z M 83.47 153.45 L 83.49 154.46 C 83.50 155.48 84.34 156.30 85.37 156.29 C 86.40 156.28 87.22 155.43 87.20 154.41 L 87.19 153.40 C 87.18 152.37 86.33 151.55 85.31 151.56 C 84.28 151.58 83.46 152.42 83.47 153.45 Z M 83.49 154.46 L 83.50 155.47 C 83.51 156.50 84.36 157.32 85.38 157.30 C 86.41 157.29 87.23 156.45 87.22 155.42 L 87.20 154.41 C 87.19 153.38 86.35 152.56 85.32 152.57 C 84.29 152.59 83.47 153.43 83.49 154.46 Z M 83.50 155.47 L 83.51 156.48 C 83.53 157.50 84.37 158.33 85.40 158.31 C 86.42 158.30 87.25 157.45 87.23 156.43 L 87.22 155.42 C 87.20 154.39 86.36 153.57 85.33 153.58 C 84.31 153.60 83.49 154.44 83.50 155.47 Z M 83.51 156.48 L 83.53 157.50 C 83.54 158.53 84.38 159.35 85.41 159.33 C 86.44 159.32 87.26 158.47 87.25 157.45 L 87.23 156.43 C 87.22 155.40 86.37 154.58 85.35 154.59 C 84.32 154.61 83.50 155.45 83.51 156.48 Z M 83.53 157.50 L 83.54 158.52 C 83.56 159.55 84.40 160.37 85.43 160.36 C 86.45 160.34 87.27 159.50 87.26 158.47 L 87.25 157.45 C 87.23 156.42 86.39 155.60 85.36 155.61 C 84.33 155.63 83.51 156.47 83.53 157.50 Z M 83.54 158.52 L 83.56 159.53 C 83.57 160.56 84.41 161.38 85.44 161.36 C 86.46 161.35 87.29 160.51 87.27 159.48 L 87.26 158.47 C 87.25 157.45 86.40 156.63 85.38 156.64 C 84.35 156.65 83.53 157.50 83.54 158.52 Z M 83.56 159.53 L 83.57 160.52 C 83.58 161.54 84.42 162.37 85.45 162.35 C 86.47 162.34 87.30 161.50 87.28 160.47 L 87.27 159.48 C 87.26 158.46 86.42 157.63 85.39 157.65 C 84.37 157.66 83.54 158.50 83.56 159.53 Z M 83.57 160.52 L 83.58 161.49 C 83.59 162.52 84.43 163.34 85.45 163.33 C 86.48 163.32 87.30 162.48 87.29 161.45 L 87.28 160.48 C 87.27 159.45 86.43 158.63 85.41 158.64 C 84.38 158.65 83.56 159.49 83.57 160.52 Z M 83.58 161.49 L 83.59 162.48 C 83.59 163.51 84.43 164.33 85.46 164.32 C 86.48 164.32 87.31 163.48 87.30 162.45 L 87.29 161.46 C 87.28 160.43 86.45 159.61 85.42 159.62 C 84.40 159.62 83.57 160.46 83.58 161.49 Z M 83.59 162.48 L 83.59 163.51 C 83.60 164.53 84.43 165.36 85.46 165.35 C 86.48 165.35 87.31 164.51 87.30 163.49 L 87.30 162.46 C 87.29 161.43 86.46 160.61 85.43 160.61 C 84.41 160.62 83.58 161.45 83.59 162.48 Z M 83.59 163.50 L 83.60 164.51 C 83.60 165.54 84.43 166.37 85.46 166.36 C 86.48 166.36 87.31 165.53 87.31 164.50 L 87.30 163.49 C 87.30 162.47 86.47 161.64 85.44 161.64 C 84.42 161.65 83.59 162.48 83.59 163.50 Z M 83.60 164.51 L 83.60 165.50 C 83.60 166.53 84.43 167.36 85.45 167.35 C 86.48 167.35 87.31 166.52 87.31 165.50 L 87.31 164.51 C 87.30 163.48 86.47 162.65 85.45 162.65 C 84.42 162.66 83.60 163.49 83.60 164.51 Z M 83.60 165.50 L 83.60 166.47 C 83.60 167.49 84.43 168.32 85.45 168.32 C 86.48 168.32 87.31 167.49 87.31 166.47 L 87.31 165.50 C 87.31 164.48 86.48 163.65 85.45 163.65 C 84.43 163.65 83.60 164.48 83.60 165.50 Z M 83.60 166.47 L 83.60 167.45 C 83.60 168.47 84.43 169.30 85.45 169.30 C 86.48 169.30 87.30 168.47 87.30 167.45 L 87.30 166.47 C 87.30 165.45 86.48 164.62 85.45 164.62 C 84.43 164.62 83.60 165.45 83.60 166.47 Z M 83.60 167.45 L 83.60 168.43 C 83.60 169.45 84.43 170.28 85.45 170.28 C 86.47 170.28 87.30 169.45 87.30 168.43 L 87.30 167.45 C 87.30 166.42 86.47 165.60 85.45 165.60 C 84.43 165.60 83.60 166.42 83.60 167.45 Z M 83.61 168.43 L 83.61 169.41 C 83.61 170.43 84.43 171.26 85.45 171.26 C 86.47 171.26 87.30 170.43 87.30 169.41 L 87.30 168.43 C 87.30 167.41 86.47 166.58 85.45 166.58 C 84.43 166.58 83.61 167.41 83.61 168.43 Z M 83.61 169.41 L 83.61 170.41 C 83.61 171.43 84.43 172.26 85.45 172.26 C 86.47 172.26 87.30 171.43 87.30 170.41 L 87.30 169.41 C 87.30 168.39 86.47 167.57 85.45 167.57 C 84.43 167.57 83.61 168.39 83.61 169.41 Z M 83.61 170.41 L 83.61 171.45 C 83.61 172.47 84.44 173.29 85.45 173.29 C 86.47 173.29 87.29 172.47 87.29 171.45 L 87.29 170.41 C 87.29 169.40 86.47 168.57 85.45 168.57 C 84.44 168.57 83.61 169.40 83.61 170.41 Z M 83.62 171.45 L 83.62 172.43 C 83.62 173.45 84.44 174.27 85.45 174.27 C 86.47 174.27 87.29 173.45 87.29 172.43 L 87.29 171.45 C 87.29 170.43 86.47 169.61 85.45 169.61 C 84.44 169.61 83.62 170.43 83.62 171.45 Z M 83.62 172.43 L 83.62 173.44 C 83.62 174.46 84.44 175.28 85.45 175.28 C 86.47 175.28 87.29 174.46 87.29 173.44 L 87.29 172.43 C 87.29 171.42 86.47 170.60 85.45 170.60 C 84.44 170.60 83.62 171.42 83.62 172.43 Z M 83.62 173.44 L 83.62 174.46 C 83.62 175.47 84.44 176.29 85.45 176.29 C 86.46 176.29 87.28 175.47 87.28 174.46 L 87.28 173.44 C 87.28 172.43 86.46 171.61 85.45 171.61 C 84.44 171.61 83.62 172.43 83.62 173.44 Z M 83.63 174.46 L 83.63 175.47 C 83.63 176.48 84.44 177.30 85.45 177.30 C 86.46 177.30 87.28 176.48 87.28 175.47 L 87.28 174.46 C 87.28 173.45 86.46 172.64 85.45 172.64 C 84.44 172.64 83.63 173.45 83.63 174.46 Z M 83.63 175.47 L 83.63 176.46 C 83.63 177.46 84.45 178.28 85.45 178.28 C 86.46 178.28 87.27 177.46 87.27 176.46 L 87.27 175.47 C 87.27 174.46 86.46 173.65 85.45 173.65 C 84.45 173.65 83.63 174.46 83.63 175.47 Z M 83.64 176.46 L 83.64 177.49 C 83.63 178.50 84.45 179.31 85.45 179.31 C 86.46 179.31 87.27 178.50 87.27 177.49 L 87.27 176.46 C 87.27 175.45 86.46 174.64 85.45 174.64 C 84.45 174.64 83.64 175.45 83.64 176.46 Z M 83.64 177.49 L 83.64 178.49 C 83.63 179.49 84.45 180.30 85.45 180.31 C 86.45 180.31 87.26 179.50 87.26 178.50 L 87.27 177.50 C 87.27 176.50 86.46 175.68 85.46 175.68 C 84.45 175.68 83.64 176.49 83.64 177.49 Z M 83.64 178.48 L 83.64 179.46 C 83.63 180.46 84.44 181.28 85.43 181.28 C 86.43 181.29 87.25 180.48 87.25 179.48 L 87.26 178.50 C 87.27 177.50 86.46 176.69 85.46 176.68 C 84.46 176.68 83.65 177.48 83.64 178.48 Z M 83.64 179.45 L 83.63 180.44 C 83.62 181.43 84.42 182.25 85.42 182.26 C 86.41 182.27 87.23 181.47 87.24 180.47 L 87.25 179.49 C 87.26 178.50 86.46 177.68 85.46 177.67 C 84.47 177.66 83.65 178.46 83.64 179.45 Z M 83.63 180.42 L 83.62 181.42 C 83.60 182.41 84.39 183.23 85.39 183.25 C 86.38 183.26 87.20 182.47 87.22 181.48 L 87.24 180.49 C 87.25 179.49 86.46 178.67 85.46 178.65 C 84.47 178.64 83.65 179.43 83.63 180.42 Z M 83.62 181.41 L 83.60 182.41 C 83.57 183.40 84.36 184.23 85.35 184.25 C 86.34 184.27 87.17 183.49 87.19 182.49 L 87.21 181.49 C 87.24 180.50 86.45 179.67 85.46 179.65 C 84.47 179.63 83.64 180.41 83.62 181.41 Z M 83.60 182.40 L 83.57 183.41 C 83.54 184.40 84.32 185.23 85.31 185.25 C 86.30 185.28 87.13 184.50 87.16 183.52 L 87.19 182.50 C 87.21 181.52 86.44 180.69 85.45 180.66 C 84.46 180.63 83.63 181.41 83.60 182.40 Z M 83.58 183.40 L 83.54 184.40 C 83.51 185.39 84.28 186.22 85.27 186.25 C 86.25 186.29 87.08 185.52 87.12 184.53 L 87.15 183.53 C 87.19 182.54 86.41 181.71 85.43 181.68 C 84.44 181.64 83.61 182.41 83.58 183.40 Z M 83.55 184.39 L 83.51 185.38 C 83.47 186.36 84.23 187.19 85.22 187.23 C 86.20 187.27 87.03 186.51 87.07 185.52 L 87.11 184.54 C 87.15 183.55 86.39 182.72 85.40 182.68 C 84.42 182.64 83.59 183.41 83.55 184.39 Z M 83.51 185.37 L 83.46 186.42 C 83.42 187.40 84.18 188.23 85.16 188.28 C 86.14 188.32 86.97 187.57 87.02 186.58 L 87.07 185.53 C 87.11 184.55 86.35 183.72 85.37 183.67 C 84.39 183.63 83.56 184.39 83.51 185.37 Z M 83.47 186.41 L 83.42 187.43 C 83.37 188.41 84.12 189.24 85.10 189.29 C 86.08 189.34 86.91 188.59 86.96 187.61 L 87.01 186.59 C 87.06 185.61 86.31 184.78 85.33 184.73 C 84.35 184.68 83.52 185.44 83.47 186.41 Z M 83.43 187.43 L 83.37 188.41 C 83.32 189.38 84.07 190.21 85.05 190.26 C 86.02 190.32 86.85 189.57 86.90 188.59 L 86.95 187.61 C 87.00 186.64 86.26 185.81 85.28 185.75 C 84.31 185.70 83.48 186.45 83.43 187.43 Z M 83.38 188.41 L 83.33 189.36 C 83.28 190.33 84.03 191.16 85.00 191.21 C 85.97 191.26 86.80 190.51 86.85 189.54 L 86.90 188.59 C 86.95 187.62 86.20 186.79 85.23 186.74 C 84.26 186.69 83.43 187.44 83.38 188.41 Z M 83.34 189.37 L 83.29 190.40 C 83.24 191.37 83.99 192.19 84.95 192.23 C 85.92 192.28 86.74 191.54 86.79 190.57 L 86.84 189.54 C 86.89 188.57 86.14 187.75 85.17 187.70 C 84.21 187.65 83.38 188.40 83.34 189.37 Z M 83.29 190.40 L 83.25 191.42 C 83.21 192.38 83.95 193.20 84.91 193.24 C 85.88 193.28 86.69 192.54 86.74 191.58 L 86.78 190.56 C 86.83 189.60 86.08 188.78 85.12 188.74 C 84.15 188.70 83.34 189.44 83.29 190.40 Z M 83.26 191.42 L 83.21 192.40 C 83.17 193.36 83.91 194.17 84.87 194.21 C 85.83 194.26 86.64 193.51 86.69 192.55 L 86.73 191.57 C 86.77 190.61 86.03 189.80 85.07 189.76 C 84.11 189.72 83.30 190.46 83.26 191.42 Z M 83.22 192.40 L 83.18 193.36 C 83.13 194.32 83.87 195.13 84.83 195.17 C 85.78 195.21 86.59 194.47 86.64 193.52 L 86.68 192.55 C 86.72 191.60 85.98 190.79 85.03 190.75 C 84.07 190.70 83.26 191.44 83.22 192.40 Z M 83.18 193.36 L 83.14 194.35 C 83.09 195.30 83.83 196.11 84.78 196.15 C 85.73 196.20 86.54 195.46 86.58 194.51 L 86.63 193.52 C 86.67 192.57 85.94 191.76 84.99 191.72 C 84.04 191.67 83.23 192.41 83.18 193.36 Z M 83.15 194.35 L 83.10 195.34 C 83.05 196.28 83.79 197.09 84.73 197.13 C 85.68 197.18 86.48 196.45 86.53 195.50 L 86.57 194.51 C 86.62 193.57 85.89 192.76 84.94 192.72 C 83.99 192.67 83.19 193.40 83.15 194.35 Z M 83.11 195.34 L 83.06 196.35 C 83.02 197.30 83.75 198.09 84.69 198.14 C 85.63 198.18 86.43 197.45 86.47 196.51 L 86.52 195.50 C 86.56 194.55 85.83 193.75 84.89 193.71 C 83.95 193.67 83.15 194.40 83.11 195.34 Z M 83.07 196.36 L 83.02 197.36 C 82.98 198.30 83.71 199.09 84.65 199.13 C 85.59 199.17 86.38 198.45 86.42 197.51 L 86.47 196.50 C 86.51 195.56 85.78 194.77 84.84 194.73 C 83.90 194.69 83.11 195.42 83.07 196.36 Z M 83.03 197.37 L 82.99 198.38 C 82.95 199.32 83.68 200.11 84.62 200.14 C 85.55 200.18 86.34 199.45 86.38 198.52 L 86.42 197.50 C 86.45 196.57 85.73 195.78 84.79 195.74 C 83.86 195.70 83.07 196.43 83.03 197.37 Z M 83.00 198.39 L 82.96 199.39 C 82.93 200.32 83.65 201.11 84.59 201.14 C 85.52 201.18 86.30 200.45 86.33 199.52 L 86.37 198.51 C 86.40 197.58 85.68 196.80 84.75 196.76 C 83.81 196.73 83.03 197.46 83.00 198.39 Z M 82.97 199.40 L 82.93 200.39 C 82.90 201.32 83.63 202.10 84.56 202.13 C 85.49 202.16 86.26 201.43 86.29 200.51 L 86.33 199.51 C 86.36 198.58 85.63 197.81 84.70 197.78 C 83.78 197.75 83.00 198.47 82.97 199.40 Z M 82.94 200.40 L 82.91 201.43 C 82.89 202.35 83.61 203.12 84.54 203.15 C 85.46 203.18 86.23 202.45 86.26 201.53 L 86.29 200.50 C 86.31 199.57 85.59 198.80 84.66 198.78 C 83.74 198.75 82.97 199.48 82.94 200.40 Z M 82.92 201.44 L 82.90 202.43 C 82.88 203.35 83.60 204.11 84.52 204.13 C 85.44 204.15 86.21 203.42 86.23 202.50 L 86.25 201.52 C 86.27 200.60 85.54 199.84 84.62 199.81 C 83.70 199.79 82.94 200.52 82.92 201.44 Z M 82.90 202.44 L 82.89 203.41 C 82.87 204.32 83.61 205.08 84.52 205.09 C 85.44 205.11 86.19 204.38 86.21 203.46 L 86.22 202.49 C 86.23 201.57 85.50 200.82 84.59 200.80 C 83.67 200.79 82.92 201.52 82.90 202.44 Z M 82.90 203.42 L 82.89 204.43 C 82.88 205.35 83.61 206.09 84.53 206.10 C 85.44 206.11 86.18 205.37 86.19 204.46 L 86.20 203.45 C 86.20 202.54 85.47 201.79 84.56 201.78 C 83.65 201.78 82.90 202.51 82.90 203.42 Z M 82.90 204.44 L 82.89 205.45 C 82.89 206.36 83.62 207.09 84.53 207.10 C 85.44 207.10 86.17 206.37 86.18 205.46 L 86.18 204.45 C 86.18 203.55 85.45 202.81 84.54 202.81 C 83.64 202.80 82.90 203.54 82.90 204.44 Z M 82.90 205.45 L 82.90 206.43 C 82.90 207.33 83.63 208.07 84.53 208.07 C 85.44 208.07 86.17 207.34 86.17 206.43 L 86.17 205.46 C 86.17 204.55 85.44 203.82 84.54 203.82 C 83.63 203.82 82.90 204.55 82.90 205.45 Z M 82.91 206.43 L 82.91 207.48 C 82.91 208.38 83.64 209.11 84.54 209.11 C 85.43 209.11 86.16 208.38 86.16 207.48 L 86.16 206.43 C 86.16 205.54 85.43 204.81 84.54 204.81 C 83.64 204.81 82.91 205.54 82.91 206.43 Z M 82.91 207.48 L 82.91 208.47 C 82.91 209.37 83.64 210.09 84.54 210.09 C 85.43 210.09 86.16 209.37 86.16 208.47 L 86.16 207.48 C 86.16 206.59 85.43 205.86 84.54 205.86 C 83.64 205.86 82.91 206.59 82.91 207.48 Z M 82.92 208.47 L 82.92 209.46 C 82.92 210.35 83.64 211.07 84.54 211.07 C 85.43 211.07 86.15 210.35 86.15 209.46 L 86.15 208.47 C 86.15 207.58 85.43 206.86 84.54 206.86 C 83.64 206.86 82.92 207.58 82.92 208.47 Z M 82.92 209.46 L 82.92 210.49 C 82.92 211.38 83.64 212.10 84.54 212.10 C 85.43 212.10 86.15 211.38 86.15 210.49 L 86.15 209.46 C 86.15 208.57 85.43 207.84 84.54 207.84 C 83.64 207.84 82.92 208.57 82.92 209.46 Z M 82.92 210.49 L 82.92 211.43 C 82.92 212.32 83.64 213.05 84.54 213.05 C 85.43 213.05 86.15 212.32 86.15 211.43 L 86.15 210.49 C 86.15 209.60 85.43 208.88 84.54 208.88 C 83.64 208.88 82.92 209.60 82.92 210.49 Z M 82.92 211.43 L 82.92 212.48 C 82.92 213.37 83.64 214.09 84.54 214.09 C 85.43 214.09 86.15 213.37 86.15 212.48 L 86.15 211.43 C 86.15 210.54 85.43 209.82 84.54 209.82 C 83.64 209.82 82.92 210.54 82.92 211.43 Z M 82.92 212.48 L 82.92 213.43 C 82.92 214.32 83.64 215.05 84.54 215.05 C 85.43 215.05 86.15 214.32 86.15 213.43 L 86.15 212.48 C 86.15 211.58 85.43 210.86 84.53 210.86 C 83.64 210.86 82.92 211.58 82.92 212.48 Z M 82.92 213.47 L 82.94 214.45 C 82.96 215.35 83.70 216.05 84.59 216.03 C 85.48 216.02 86.19 215.28 86.17 214.39 L 86.15 213.40 C 86.13 212.51 85.39 211.80 84.50 211.82 C 83.61 211.84 82.90 212.57 82.92 213.47 Z M 82.95 214.59 L 83.05 215.56 C 83.14 216.45 83.94 217.10 84.82 217.00 C 85.71 216.91 86.35 216.12 86.26 215.23 L 86.16 214.25 C 86.07 213.37 85.28 212.72 84.39 212.81 C 83.50 212.91 82.86 213.70 82.95 214.59 Z M 83.08 215.72 L 83.27 216.70 C 83.45 217.57 84.30 218.14 85.17 217.96 C 86.05 217.78 86.61 216.93 86.43 216.06 L 86.24 215.08 C 86.06 214.21 85.21 213.64 84.34 213.82 C 83.47 213.99 82.90 214.84 83.08 215.72 Z M 83.31 216.82 L 83.59 217.82 C 83.84 218.68 84.73 219.17 85.59 218.93 C 86.44 218.68 86.93 217.79 86.69 216.93 L 86.40 215.94 C 86.16 215.08 85.26 214.59 84.41 214.83 C 83.56 215.08 83.06 215.97 83.31 216.82 Z M 83.61 217.87 L 83.92 218.84 C 84.20 219.68 85.11 220.15 85.95 219.87 C 86.79 219.60 87.26 218.69 86.98 217.85 L 86.67 216.88 C 86.40 216.04 85.49 215.58 84.64 215.85 C 83.80 216.12 83.34 217.03 83.61 217.87 Z M 83.90 218.77 L 84.15 219.68 C 84.39 220.53 85.27 221.04 86.12 220.80 C 86.98 220.57 87.49 219.69 87.25 218.83 L 87.00 217.92 C 86.77 217.06 85.89 216.56 85.03 216.79 C 84.18 217.03 83.67 217.91 83.90 218.77 Z M 84.11 219.48 L 84.25 220.44 C 84.38 221.31 85.19 221.92 86.07 221.80 C 86.95 221.67 87.56 220.85 87.43 219.98 L 87.29 219.02 C 87.16 218.15 86.35 217.54 85.47 217.67 C 84.59 217.79 83.99 218.61 84.11 219.48 Z M 84.24 220.29 L 84.29 221.29 C 84.33 222.17 85.09 222.85 85.97 222.81 C 86.86 222.76 87.54 222.01 87.49 221.12 L 87.44 220.12 C 87.40 219.24 86.64 218.56 85.76 218.60 C 84.87 218.65 84.19 219.40 84.24 220.29 Z M 84.29 221.22 L 84.30 222.21 C 84.31 223.10 85.03 223.81 85.92 223.80 C 86.81 223.79 87.52 223.06 87.51 222.17 L 87.50 221.19 C 87.49 220.30 86.76 219.59 85.87 219.60 C 84.99 219.61 84.28 220.34 84.29 221.22 Z M 84.30 222.17 L 84.28 223.22 C 84.27 224.11 84.98 224.84 85.86 224.85 C 86.75 224.87 87.48 224.16 87.49 223.27 L 87.51 222.22 C 87.52 221.33 86.81 220.60 85.93 220.59 C 85.04 220.57 84.31 221.28 84.30 222.17 Z M 84.28 223.19 L 84.24 224.18 C 84.21 225.07 84.90 225.82 85.78 225.85 C 86.67 225.89 87.42 225.20 87.45 224.31 L 87.49 223.31 C 87.53 222.43 86.84 221.68 85.95 221.64 C 85.06 221.61 84.32 222.30 84.28 223.19 Z M 84.25 224.15 L 84.19 225.11 C 84.13 226.00 84.80 226.76 85.69 226.81 C 86.57 226.87 87.33 226.20 87.39 225.31 L 87.45 224.35 C 87.50 223.46 86.83 222.70 85.95 222.65 C 85.06 222.59 84.30 223.26 84.25 224.15 Z M 84.19 225.09 L 84.11 226.10 C 84.04 226.98 84.70 227.75 85.58 227.82 C 86.46 227.89 87.24 227.23 87.31 226.35 L 87.39 225.34 C 87.45 224.45 86.80 223.68 85.91 223.61 C 85.03 223.54 84.26 224.20 84.19 225.09 Z M 84.11 226.09 L 84.02 227.10 C 83.95 227.98 84.60 228.76 85.48 228.84 C 86.36 228.91 87.14 228.26 87.21 227.38 L 87.30 226.36 C 87.38 225.48 86.73 224.71 85.85 224.63 C 84.97 224.55 84.19 225.20 84.11 226.09 Z M 84.02 227.10 L 83.94 228.10 C 83.86 228.98 84.51 229.75 85.39 229.83 C 86.27 229.91 87.04 229.26 87.12 228.38 L 87.21 227.38 C 87.29 226.50 86.64 225.73 85.76 225.65 C 84.88 225.57 84.10 226.22 84.02 227.10 Z M 83.94 228.10 L 83.85 229.12 C 83.77 230.00 84.42 230.77 85.30 230.85 C 86.18 230.93 86.95 230.28 87.03 229.40 L 87.12 228.38 C 87.20 227.50 86.55 226.72 85.67 226.65 C 84.79 226.57 84.01 227.22 83.94 228.10 Z M 83.85 229.13 L 83.76 230.12 C 83.69 231.00 84.34 231.77 85.22 231.85 C 86.10 231.92 86.87 231.27 86.95 230.39 L 87.03 229.39 C 87.10 228.51 86.45 227.74 85.57 227.67 C 84.69 227.59 83.92 228.25 83.85 229.13 Z M 83.76 230.14 L 83.69 231.21 C 83.62 232.09 84.28 232.85 85.16 232.92 C 86.04 232.98 86.81 232.32 86.87 231.44 L 86.95 230.37 C 87.01 229.49 86.35 228.73 85.47 228.66 C 84.59 228.60 83.83 229.26 83.76 230.14 Z M 83.69 231.23 L 83.63 232.24 C 83.57 233.12 84.25 233.88 85.12 233.93 C 86.00 233.98 86.76 233.31 86.81 232.43 L 86.87 231.42 C 86.92 230.54 86.25 229.79 85.37 229.73 C 84.49 229.68 83.74 230.35 83.69 231.23 Z M 83.63 232.27 L 83.59 233.21 C 83.55 234.08 84.23 234.83 85.11 234.87 C 85.99 234.90 86.73 234.22 86.77 233.34 L 86.81 232.41 C 86.85 231.53 86.17 230.78 85.29 230.75 C 84.41 230.71 83.66 231.39 83.63 232.27 Z M 83.59 233.23 L 83.56 234.25 C 83.54 235.13 84.24 235.86 85.11 235.88 C 85.99 235.90 86.72 235.21 86.74 234.33 L 86.77 233.31 C 86.79 232.44 86.09 231.71 85.22 231.69 C 84.34 231.66 83.61 232.36 83.59 233.23 Z M 83.57 234.28 L 83.56 235.28 C 83.55 236.16 84.25 236.87 85.13 236.88 C 86.00 236.89 86.72 236.19 86.72 235.31 L 86.73 234.31 C 86.74 233.43 86.04 232.72 85.17 232.71 C 84.29 232.70 83.58 233.40 83.57 234.28 Z M 83.57 235.30 L 83.57 236.25 C 83.57 237.12 84.27 237.83 85.14 237.83 C 86.01 237.83 86.71 237.13 86.71 236.26 L 86.72 235.30 C 86.72 234.43 86.01 233.73 85.14 233.73 C 84.28 233.73 83.57 234.43 83.57 235.30 Z M 83.57 236.26 L 83.58 237.28 C 83.58 238.15 84.29 238.85 85.15 238.85 C 86.02 238.84 86.72 238.14 86.72 237.27 L 86.71 236.25 C 86.71 235.38 86.00 234.68 85.13 234.69 C 84.27 234.69 83.57 235.40 83.57 236.26 Z M 83.58 237.32 L 83.60 238.29 C 83.63 239.16 84.35 239.84 85.21 239.82 C 86.08 239.80 86.76 239.08 86.74 238.21 L 86.71 237.24 C 86.69 236.37 85.97 235.69 85.11 235.71 C 84.24 235.73 83.56 236.45 83.58 237.32 Z M 83.62 238.45 L 83.75 239.50 C 83.86 240.36 84.65 240.97 85.51 240.86 C 86.37 240.75 86.97 239.96 86.86 239.10 L 86.73 238.05 C 86.62 237.19 85.83 236.58 84.97 236.69 C 84.11 236.80 83.50 237.59 83.62 238.45 Z M 84.02 240.20 L 84.49 240.88 C 84.99 241.59 85.97 241.76 86.69 241.26 C 87.40 240.76 87.57 239.78 87.07 239.07 L 86.60 238.40 C 86.10 237.68 85.11 237.51 84.40 238.01 C 83.69 238.51 83.52 239.49 84.02 240.20 Z M 85.42 241.52 L 86.26 241.72 C 87.12 241.93 87.97 241.40 88.17 240.54 C 88.38 239.69 87.85 238.83 86.99 238.63 L 86.15 238.43 C 85.29 238.23 84.43 238.76 84.23 239.61 C 84.03 240.47 84.56 241.32 85.42 241.52 Z M 86.73 241.79 L 87.91 241.71 C 88.80 241.66 89.47 240.89 89.42 240.00 C 89.36 239.11 88.59 238.43 87.70 238.49 L 86.52 238.56 C 85.63 238.62 84.96 239.39 85.01 240.28 C 85.07 241.17 85.84 241.85 86.73 241.79 Z M 88.05 241.72 L 89.04 241.57 C 89.94 241.43 90.55 240.60 90.41 239.70 C 90.28 238.81 89.44 238.19 88.55 238.33 L 87.56 238.48 C 86.66 238.61 86.05 239.45 86.18 240.35 C 86.32 241.24 87.16 241.86 88.05 241.72 Z M 89.09 241.58 L 90.12 241.40 C 91.02 241.23 91.62 240.37 91.46 239.46 C 91.29 238.56 90.43 237.96 89.52 238.13 L 88.50 238.31 C 87.59 238.48 86.99 239.34 87.16 240.25 C 87.32 241.15 88.19 241.75 89.09 241.58 Z M 90.14 241.41 L 91.10 241.23 C 92.01 241.05 92.61 240.17 92.43 239.26 C 92.26 238.35 91.37 237.75 90.46 237.92 L 89.50 238.11 C 88.59 238.29 87.99 239.17 88.17 240.08 C 88.35 240.99 89.23 241.59 90.14 241.41 Z M 91.09 241.25 L 92.17 241.05 C 93.09 240.87 93.70 239.99 93.52 239.06 C 93.35 238.14 92.46 237.53 91.54 237.71 L 90.47 237.91 C 89.55 238.08 88.94 238.97 89.11 239.89 C 89.28 240.81 90.17 241.42 91.09 241.25 Z M 92.16 241.06 L 93.07 240.89 C 94.00 240.72 94.62 239.84 94.45 238.91 C 94.28 237.98 93.39 237.36 92.46 237.53 L 91.55 237.69 C 90.62 237.86 90.01 238.75 90.17 239.68 C 90.34 240.61 91.23 241.22 92.16 241.06 Z M 93.08 240.90 L 93.99 240.73 C 94.92 240.55 95.53 239.66 95.36 238.72 C 95.18 237.79 94.29 237.18 93.35 237.35 L 92.45 237.52 C 91.52 237.70 90.90 238.60 91.08 239.53 C 91.25 240.46 92.15 241.07 93.08 240.90 Z M 93.99 240.74 L 94.98 240.55 C 95.91 240.38 96.53 239.47 96.35 238.53 C 96.18 237.60 95.27 236.98 94.33 237.16 L 93.35 237.34 C 92.41 237.52 91.80 238.42 91.97 239.36 C 92.15 240.30 93.05 240.92 93.99 240.74 Z M 94.95 240.57 L 95.99 240.39 C 96.94 240.22 97.57 239.32 97.41 238.38 C 97.25 237.43 96.35 236.80 95.40 236.96 L 94.36 237.14 C 93.41 237.31 92.78 238.21 92.94 239.15 C 93.11 240.10 94.01 240.73 94.95 240.57 Z M 95.96 240.40 L 96.99 240.24 C 97.95 240.09 98.60 239.20 98.45 238.25 C 98.30 237.29 97.41 236.64 96.46 236.79 L 95.43 236.95 C 94.48 237.09 93.82 237.99 93.97 238.94 C 94.12 239.90 95.01 240.55 95.96 240.40 Z M 96.98 240.25 L 97.93 240.11 C 98.89 239.97 99.56 239.08 99.42 238.12 C 99.28 237.16 98.39 236.50 97.43 236.64 L 96.47 236.78 C 95.51 236.92 94.85 237.81 94.99 238.77 C 95.13 239.73 96.02 240.39 96.98 240.25 Z M 97.94 240.12 L 98.97 239.97 C 99.93 239.83 100.59 238.93 100.45 237.97 C 100.31 237.01 99.42 236.34 98.46 236.48 L 97.43 236.63 C 96.46 236.77 95.80 237.67 95.94 238.63 C 96.08 239.59 96.97 240.26 97.94 240.12 Z M 98.96 239.97 L 99.89 239.84 C 100.86 239.70 101.53 238.80 101.39 237.84 C 101.25 236.87 100.35 236.20 99.39 236.34 L 98.46 236.48 C 97.49 236.62 96.82 237.51 96.96 238.48 C 97.10 239.44 98.00 240.11 98.96 239.97 Z M 99.87 239.85 L 100.85 239.72 C 101.82 239.59 102.50 238.70 102.37 237.73 C 102.24 236.76 101.35 236.08 100.38 236.21 L 99.41 236.34 C 98.44 236.46 97.76 237.35 97.89 238.32 C 98.01 239.29 98.90 239.97 99.87 239.85 Z M 100.81 239.72 L 101.81 239.61 C 102.78 239.51 103.48 238.63 103.38 237.66 C 103.27 236.68 102.39 235.98 101.42 236.09 L 100.42 236.20 C 99.45 236.31 98.75 237.18 98.85 238.16 C 98.96 239.13 99.84 239.83 100.81 239.72 Z M 101.78 239.62 L 102.75 239.53 C 103.73 239.44 104.45 238.58 104.36 237.60 C 104.27 236.62 103.41 235.90 102.43 235.99 L 101.45 236.08 C 100.47 236.17 99.75 237.04 99.84 238.01 C 99.93 238.99 100.80 239.71 101.78 239.62 Z M 102.75 239.54 L 103.76 239.44 C 104.74 239.35 105.46 238.49 105.37 237.51 C 105.28 236.53 104.42 235.81 103.44 235.90 L 102.43 235.99 C 101.45 236.08 100.73 236.94 100.82 237.92 C 100.91 238.90 101.77 239.62 102.75 239.54 Z M 103.76 239.45 L 104.75 239.36 C 105.73 239.27 106.46 238.40 106.37 237.42 C 106.28 236.44 105.41 235.71 104.43 235.80 L 103.44 235.89 C 102.46 235.98 101.73 236.85 101.82 237.83 C 101.91 238.81 102.78 239.54 103.76 239.45 Z M 104.73 239.36 L 105.75 239.28 C 106.73 239.21 107.47 238.35 107.39 237.36 C 107.31 236.38 106.46 235.64 105.47 235.72 L 104.45 235.80 C 103.47 235.87 102.73 236.73 102.81 237.72 C 102.89 238.70 103.75 239.44 104.73 239.36 Z M 105.70 239.29 L 106.69 239.24 C 107.68 239.19 108.44 238.34 108.38 237.35 C 108.33 236.37 107.49 235.61 106.50 235.66 L 105.52 235.71 C 104.53 235.76 103.77 236.61 103.82 237.59 C 103.87 238.58 104.71 239.34 105.70 239.29 Z M 106.65 239.25 L 107.66 239.22 C 108.65 239.19 109.44 238.36 109.41 237.36 C 109.38 236.37 108.54 235.58 107.55 235.61 L 106.54 235.64 C 105.54 235.67 104.76 236.51 104.79 237.50 C 104.82 238.50 105.65 239.28 106.65 239.25 Z M 107.63 239.23 L 108.60 239.22 C 109.61 239.21 110.41 238.38 110.39 237.38 C 110.38 236.38 109.56 235.58 108.55 235.59 L 107.58 235.60 C 106.57 235.62 105.77 236.44 105.79 237.44 C 105.80 238.45 106.63 239.25 107.63 239.23 Z M 108.59 239.23 L 109.59 239.23 C 110.59 239.22 111.41 238.40 111.40 237.39 C 111.40 236.38 110.58 235.57 109.57 235.57 L 108.57 235.58 C 107.56 235.58 106.75 236.40 106.75 237.41 C 106.76 238.42 107.58 239.23 108.59 239.23 Z M 109.58 239.24 L 110.60 239.23 C 111.62 239.23 112.44 238.41 112.44 237.40 C 112.44 236.39 111.61 235.56 110.60 235.56 L 109.58 235.56 C 108.56 235.57 107.74 236.39 107.74 237.40 C 107.74 238.41 108.56 239.24 109.58 239.24 Z M 110.60 239.25 L 111.57 239.25 C 112.59 239.25 113.41 238.42 113.41 237.40 C 113.41 236.38 112.59 235.55 111.57 235.55 L 110.60 235.55 C 109.58 235.55 108.76 236.38 108.76 237.40 C 108.76 238.42 109.58 239.25 110.60 239.25 Z M 111.57 239.26 L 112.58 239.26 C 113.60 239.26 114.43 238.42 114.43 237.40 C 114.43 236.37 113.60 235.54 112.58 235.54 L 111.57 235.54 C 110.54 235.54 109.71 236.37 109.71 237.40 C 109.71 238.42 110.54 239.26 111.57 239.26 Z M 112.58 239.27 L 113.60 239.27 C 114.63 239.27 115.47 238.43 115.47 237.40 C 115.47 236.37 114.63 235.53 113.60 235.53 L 112.58 235.53 C 111.54 235.53 110.71 236.37 110.71 237.40 C 110.71 238.43 111.54 239.27 112.58 239.27 Z M 113.60 239.28 L 114.57 239.28 C 115.61 239.28 116.45 238.44 116.45 237.40 C 116.45 236.36 115.61 235.52 114.57 235.52 L 113.60 235.52 C 112.56 235.52 111.72 236.36 111.72 237.40 C 111.72 238.44 112.56 239.28 113.60 239.28 Z M 114.57 239.28 L 115.58 239.28 C 116.62 239.28 117.46 238.44 117.46 237.40 C 117.46 236.36 116.62 235.52 115.58 235.52 L 114.57 235.52 C 113.53 235.52 112.69 236.36 112.69 237.40 C 112.69 238.44 113.53 239.28 114.57 239.28 Z M 115.58 239.29 L 116.61 239.29 C 117.65 239.29 118.50 238.44 118.50 237.40 C 118.50 236.35 117.65 235.51 116.61 235.51 L 115.58 235.51 C 114.53 235.51 113.69 236.35 113.69 237.40 C 113.69 238.44 114.53 239.29 115.58 239.29 Z M 116.61 239.30 L 117.57 239.30 C 118.62 239.30 119.47 238.45 119.47 237.40 C 119.48 236.35 118.63 235.50 117.58 235.50 L 116.61 235.50 C 115.56 235.50 114.71 236.35 114.71 237.40 C 114.71 238.45 115.56 239.30 116.61 239.30 Z M 117.56 239.31 L 118.55 239.31 C 119.60 239.32 120.46 238.47 120.47 237.42 C 120.48 236.37 119.63 235.51 118.58 235.50 L 117.59 235.49 C 116.54 235.49 115.68 236.33 115.67 237.39 C 115.66 238.44 116.51 239.30 117.56 239.31 Z M 118.52 239.32 L 119.54 239.34 C 120.60 239.36 121.47 238.52 121.49 237.47 C 121.51 236.41 120.67 235.54 119.62 235.52 L 118.60 235.50 C 117.54 235.47 116.67 236.31 116.65 237.37 C 116.63 238.43 117.47 239.30 118.52 239.32 Z M 119.51 239.35 L 120.53 239.39 C 121.59 239.43 122.48 238.60 122.52 237.54 C 122.56 236.48 121.73 235.59 120.67 235.55 L 119.65 235.51 C 118.59 235.47 117.70 236.30 117.66 237.36 C 117.62 238.41 118.45 239.31 119.51 239.35 Z M 120.49 239.39 L 121.48 239.45 C 122.54 239.51 123.45 238.70 123.51 237.63 C 123.57 236.57 122.76 235.66 121.70 235.60 L 120.71 235.54 C 119.65 235.48 118.74 236.30 118.68 237.36 C 118.62 238.42 119.43 239.33 120.49 239.39 Z M 121.45 239.45 L 122.45 239.53 C 123.52 239.61 124.44 238.81 124.52 237.74 C 124.60 236.68 123.80 235.75 122.74 235.67 L 121.73 235.60 C 120.67 235.52 119.74 236.32 119.66 237.38 C 119.58 238.44 120.38 239.37 121.45 239.45 Z M 122.42 239.53 L 123.43 239.62 C 124.49 239.72 125.43 238.93 125.53 237.87 C 125.63 236.80 124.84 235.86 123.78 235.76 L 122.77 235.67 C 121.71 235.57 120.76 236.36 120.67 237.42 C 120.57 238.49 121.35 239.43 122.42 239.53 Z M 123.39 239.62 L 124.39 239.73 C 125.46 239.85 126.42 239.07 126.53 238.01 C 126.65 236.94 125.88 235.98 124.81 235.87 L 123.81 235.76 C 122.74 235.64 121.78 236.42 121.67 237.48 C 121.55 238.55 122.33 239.51 123.39 239.62 Z M 124.36 239.73 L 125.36 239.86 C 126.43 239.99 127.40 239.23 127.53 238.16 C 127.66 237.09 126.90 236.12 125.84 235.99 L 124.84 235.86 C 123.77 235.73 122.80 236.49 122.67 237.56 C 122.54 238.63 123.30 239.60 124.36 239.73 Z M 125.33 239.86 L 126.32 239.99 C 127.39 240.14 128.37 239.39 128.52 238.32 C 128.66 237.25 127.91 236.26 126.85 236.12 L 125.86 235.98 C 124.79 235.84 123.81 236.59 123.66 237.66 C 123.52 238.73 124.27 239.71 125.33 239.86 Z M 126.30 239.99 L 127.29 240.14 C 128.36 240.29 129.35 239.55 129.51 238.48 C 129.66 237.41 128.92 236.41 127.85 236.26 L 126.86 236.12 C 125.79 235.96 124.80 236.70 124.64 237.77 C 124.49 238.84 125.23 239.84 126.30 239.99 Z M 127.28 240.14 L 128.25 240.29 C 129.32 240.45 130.32 239.71 130.48 238.64 C 130.64 237.56 129.90 236.56 128.83 236.40 L 127.86 236.25 C 126.79 236.09 125.79 236.83 125.62 237.91 C 125.46 238.98 126.20 239.98 127.28 240.14 Z M 128.24 240.29 L 129.21 240.44 C 130.29 240.60 131.29 239.86 131.46 238.79 C 131.62 237.71 130.88 236.71 129.81 236.54 L 128.84 236.40 C 127.76 236.23 126.76 236.97 126.59 238.05 C 126.43 239.12 127.17 240.13 128.24 240.29 Z M 129.21 240.44 L 130.20 240.60 C 131.28 240.76 132.29 240.02 132.45 238.94 C 132.62 237.86 131.88 236.86 130.80 236.69 L 129.81 236.54 C 128.73 236.37 127.72 237.11 127.56 238.19 C 127.39 239.27 128.13 240.28 129.21 240.44 Z M 130.20 240.60 L 131.21 240.75 C 132.29 240.92 133.30 240.18 133.47 239.09 C 133.63 238.01 132.89 237.00 131.80 236.84 L 130.80 236.68 C 129.71 236.52 128.70 237.26 128.54 238.35 C 128.38 239.43 129.12 240.44 130.20 240.60 Z M 131.21 240.76 L 132.20 240.91 C 133.28 241.07 134.29 240.32 134.46 239.24 C 134.62 238.15 133.87 237.14 132.78 236.98 L 131.80 236.83 C 130.72 236.67 129.70 237.42 129.54 238.50 C 129.38 239.59 130.13 240.60 131.21 240.76 Z M 132.21 240.91 L 133.18 241.05 C 134.26 241.21 135.27 240.46 135.43 239.37 C 135.59 238.28 134.84 237.27 133.75 237.11 L 132.78 236.97 C 131.69 236.81 130.68 237.57 130.52 238.66 C 130.36 239.74 131.12 240.75 132.21 240.91 Z M 133.18 241.06 L 134.17 241.20 C 135.26 241.35 136.27 240.60 136.43 239.50 C 136.58 238.41 135.82 237.40 134.73 237.25 L 133.74 237.11 C 132.65 236.95 131.64 237.71 131.49 238.80 C 131.33 239.90 132.09 240.91 133.18 241.06 Z M 134.18 241.21 L 135.19 241.34 C 136.28 241.49 137.29 240.73 137.44 239.63 C 137.59 238.54 136.82 237.53 135.73 237.38 L 134.72 237.24 C 133.63 237.09 132.62 237.86 132.47 238.95 C 132.32 240.05 133.08 241.06 134.18 241.21 Z M 135.20 241.35 L 136.21 241.48 C 137.30 241.63 138.31 240.86 138.46 239.76 C 138.60 238.66 137.83 237.65 136.73 237.51 L 135.72 237.37 C 134.62 237.23 133.62 238.00 133.47 239.10 C 133.33 240.20 134.10 241.20 135.20 241.35 Z M 136.21 241.49 L 137.19 241.61 C 138.29 241.75 139.30 240.97 139.44 239.87 C 139.58 238.77 138.80 237.77 137.70 237.63 L 136.72 237.50 C 135.62 237.36 134.62 238.14 134.48 239.24 C 134.34 240.34 135.11 241.35 136.21 241.49 Z M 137.20 241.62 L 138.19 241.74 C 139.29 241.87 140.30 241.09 140.43 239.99 C 140.57 238.88 139.78 237.88 138.68 237.74 L 137.69 237.62 C 136.59 237.49 135.58 238.27 135.45 239.37 C 135.31 240.48 136.10 241.48 137.20 241.62 Z M 138.19 241.74 L 139.19 241.86 C 140.30 242.00 141.30 241.21 141.43 240.10 C 141.57 239.00 140.78 237.99 139.67 237.86 L 138.67 237.74 C 137.57 237.61 136.57 238.40 136.43 239.50 C 136.30 240.61 137.09 241.61 138.19 241.74 Z M 139.20 241.87 L 140.20 241.98 C 141.31 242.11 142.31 241.32 142.44 240.22 C 142.57 239.11 141.78 238.10 140.67 237.97 L 139.67 237.86 C 138.56 237.73 137.56 238.52 137.43 239.63 C 137.30 240.73 138.09 241.74 139.20 241.87 Z M 140.21 241.99 L 141.19 242.10 C 142.30 242.23 143.30 241.44 143.43 240.33 C 143.56 239.22 142.76 238.21 141.65 238.08 L 140.67 237.97 C 139.56 237.84 138.56 238.64 138.43 239.75 C 138.30 240.86 139.10 241.86 140.21 241.99 Z M 141.19 242.10 L 142.16 242.22 C 143.28 242.34 144.28 241.55 144.41 240.44 C 144.53 239.32 143.74 238.32 142.63 238.19 L 141.65 238.08 C 140.54 237.95 139.54 238.75 139.41 239.86 C 139.28 240.97 140.08 241.98 141.19 242.10 Z M 142.17 242.22 L 143.15 242.33 C 144.26 242.46 145.27 241.66 145.39 240.55 C 145.52 239.43 144.72 238.43 143.61 238.30 L 142.63 238.19 C 141.51 238.06 140.51 238.86 140.38 239.98 C 140.25 241.09 141.05 242.09 142.17 242.22 Z M 143.15 242.33 L 144.15 242.45 C 145.27 242.57 146.27 241.77 146.40 240.66 C 146.52 239.55 145.72 238.54 144.61 238.41 L 143.61 238.30 C 142.50 238.17 141.49 238.97 141.36 240.09 C 141.24 241.20 142.04 242.21 143.15 242.33 Z M 144.15 242.45 L 145.17 242.57 C 146.29 242.69 147.29 241.89 147.42 240.78 C 147.55 239.66 146.75 238.66 145.63 238.53 L 144.61 238.41 C 143.50 238.29 142.49 239.09 142.36 240.20 C 142.24 241.32 143.04 242.32 144.15 242.45 Z M 145.17 242.57 L 146.17 242.68 C 147.29 242.81 148.30 242.01 148.43 240.89 C 148.55 239.78 147.75 238.77 146.64 238.64 L 145.63 238.53 C 144.52 238.40 143.51 239.20 143.38 240.32 C 143.26 241.43 144.06 242.44 145.17 242.57 Z M 146.17 242.68 L 147.18 242.80 C 148.29 242.93 149.30 242.13 149.43 241.01 C 149.56 239.90 148.76 238.89 147.65 238.76 L 146.64 238.64 C 145.52 238.51 144.51 239.31 144.38 240.43 C 144.26 241.54 145.06 242.55 146.17 242.68 Z M 147.17 242.80 L 148.18 242.92 C 149.30 243.05 150.31 242.25 150.44 241.13 C 150.57 240.02 149.77 239.01 148.66 238.87 L 147.65 238.76 C 146.53 238.62 145.52 239.42 145.39 240.54 C 145.26 241.66 146.06 242.67 147.17 242.80 Z M 148.18 242.92 L 149.17 243.04 C 150.29 243.17 151.30 242.38 151.44 241.26 C 151.57 240.14 150.78 239.13 149.66 238.99 L 148.66 238.87 C 147.55 238.74 146.53 239.54 146.40 240.65 C 146.26 241.77 147.06 242.79 148.18 242.92 Z M 149.16 243.04 L 150.14 243.16 C 151.25 243.30 152.27 242.51 152.41 241.39 C 152.55 240.27 151.76 239.25 150.64 239.11 L 149.67 238.99 C 148.55 238.85 147.53 239.65 147.39 240.77 C 147.25 241.88 148.05 242.90 149.16 243.04 Z M 150.13 243.16 L 151.14 243.29 C 152.26 243.44 153.28 242.65 153.42 241.53 C 153.57 240.41 152.78 239.39 151.66 239.24 L 150.65 239.11 C 149.53 238.97 148.51 239.76 148.36 240.88 C 148.22 241.99 149.01 243.02 150.13 243.16 Z M 151.13 243.29 L 152.13 243.43 C 153.25 243.58 154.28 242.79 154.43 241.67 C 154.58 240.55 153.79 239.53 152.67 239.38 L 151.67 239.24 C 150.55 239.09 149.52 239.88 149.38 241.00 C 149.23 242.12 150.01 243.14 151.13 243.29 Z M 152.13 243.43 L 153.11 243.56 C 154.22 243.71 155.25 242.93 155.41 241.81 C 155.56 240.70 154.78 239.66 153.66 239.51 L 152.68 239.38 C 151.56 239.22 150.53 240.01 150.38 241.12 C 150.22 242.24 151.01 243.27 152.13 243.43 Z M 153.10 243.56 L 154.07 243.70 C 155.19 243.85 156.23 243.07 156.38 241.95 C 156.53 240.83 155.75 239.80 154.63 239.64 L 153.66 239.51 C 152.54 239.36 151.51 240.14 151.36 241.26 C 151.20 242.38 151.98 243.41 153.10 243.56 Z M 154.08 243.70 L 155.05 243.83 C 156.17 243.99 157.20 243.20 157.35 242.08 C 157.51 240.96 156.72 239.93 155.60 239.78 L 154.63 239.64 C 153.51 239.49 152.48 240.27 152.33 241.39 C 152.17 242.51 152.96 243.54 154.08 243.70 Z M 155.05 243.83 L 156.01 243.96 C 157.13 244.12 158.16 243.33 158.31 242.21 C 158.47 241.09 157.68 240.06 156.56 239.90 L 155.60 239.77 C 154.48 239.62 153.45 240.41 153.30 241.53 C 153.15 242.65 153.93 243.68 155.05 243.83 Z M 156.01 243.96 L 156.99 244.10 C 158.11 244.25 159.14 243.46 159.29 242.34 C 159.44 241.21 158.65 240.18 157.53 240.03 L 156.56 239.90 C 155.43 239.75 154.40 240.54 154.25 241.66 C 154.10 242.78 154.89 243.81 156.01 243.96 Z M 156.99 244.10 L 157.99 244.23 C 159.11 244.38 160.14 243.59 160.29 242.47 C 160.44 241.34 159.65 240.31 158.53 240.16 L 157.53 240.03 C 156.41 239.88 155.38 240.67 155.23 241.79 C 155.08 242.92 155.87 243.95 156.99 244.10 Z M 157.99 244.23 L 159.00 244.36 C 160.13 244.51 161.16 243.72 161.31 242.60 C 161.45 241.48 160.66 240.45 159.54 240.30 L 158.53 240.16 C 157.40 240.01 156.37 240.80 156.22 241.93 C 156.07 243.05 156.86 244.08 157.99 244.23 Z M 159.00 244.37 L 160.01 244.50 C 161.13 244.65 162.16 243.86 162.31 242.74 C 162.46 241.61 161.67 240.58 160.55 240.43 L 159.54 240.30 C 158.42 240.15 157.39 240.94 157.24 242.06 C 157.09 243.18 157.88 244.22 159.00 244.37 Z M 160.01 244.50 L 160.98 244.63 C 162.10 244.78 163.14 243.99 163.29 242.87 C 163.44 241.74 162.65 240.71 161.53 240.56 L 160.55 240.43 C 159.43 240.28 158.39 241.07 158.24 242.19 C 158.09 243.32 158.88 244.35 160.01 244.50 Z M 160.98 244.63 L 161.97 244.76 C 163.09 244.91 164.12 244.13 164.27 243.00 C 164.43 241.88 163.64 240.85 162.51 240.69 L 161.53 240.56 C 160.40 240.41 159.37 241.20 159.22 242.32 C 159.07 243.45 159.86 244.48 160.98 244.63 Z M 161.97 244.76 L 162.96 244.90 C 164.09 245.05 165.12 244.26 165.27 243.14 C 165.42 242.01 164.64 240.98 163.51 240.83 L 162.52 240.69 C 161.39 240.54 160.36 241.33 160.21 242.45 C 160.06 243.58 160.84 244.61 161.97 244.76 Z M 162.96 244.90 L 163.97 245.03 C 165.09 245.19 166.12 244.40 166.28 243.27 C 166.43 242.15 165.64 241.12 164.52 240.97 L 163.51 240.83 C 162.39 240.68 161.36 241.46 161.20 242.59 C 161.05 243.71 161.84 244.75 162.96 244.90 Z M 163.97 245.03 L 164.97 245.17 C 166.09 245.32 167.13 244.53 167.28 243.41 C 167.43 242.29 166.64 241.25 165.52 241.10 L 164.52 240.97 C 163.39 240.81 162.36 241.60 162.21 242.72 C 162.06 243.85 162.84 244.88 163.97 245.03 Z M 164.97 245.17 L 165.96 245.30 C 167.09 245.46 168.12 244.67 168.27 243.55 C 168.43 242.42 167.64 241.39 166.52 241.24 L 165.52 241.10 C 164.40 240.95 163.36 241.74 163.21 242.86 C 163.06 243.98 163.84 245.02 164.97 245.17 Z M 165.96 245.30 L 166.96 245.44 C 168.08 245.59 169.11 244.81 169.27 243.68 C 169.42 242.56 168.63 241.53 167.51 241.37 L 166.52 241.24 C 165.39 241.08 164.36 241.87 164.21 242.99 C 164.05 244.12 164.84 245.15 165.96 245.30 Z M 166.95 245.44 L 167.94 245.58 C 169.07 245.73 170.10 244.95 170.26 243.82 C 170.41 242.70 169.63 241.67 168.51 241.51 L 167.51 241.37 C 166.39 241.22 165.36 242.00 165.20 243.13 C 165.05 244.25 165.83 245.28 166.95 245.44 Z M 167.94 245.58 L 168.93 245.71 C 170.05 245.87 171.09 245.09 171.24 243.97 C 171.40 242.84 170.62 241.81 169.50 241.65 L 168.51 241.51 C 167.39 241.35 166.35 242.14 166.19 243.26 C 166.04 244.38 166.82 245.42 167.94 245.58 Z M 168.92 245.71 L 169.91 245.85 C 171.03 246.01 172.07 245.23 172.23 244.11 C 172.39 242.99 171.61 241.95 170.49 241.79 L 169.50 241.65 C 168.38 241.49 167.34 242.27 167.18 243.39 C 167.02 244.51 167.80 245.55 168.92 245.71 Z M 169.90 245.85 L 170.88 245.99 C 172.00 246.16 173.04 245.38 173.21 244.26 C 173.37 243.14 172.59 242.10 171.47 241.93 L 170.49 241.79 C 169.37 241.63 168.33 242.41 168.17 243.53 C 168.00 244.65 168.78 245.69 169.90 245.85 Z M 170.88 245.99 L 171.87 246.14 C 172.99 246.30 174.03 245.52 174.19 244.40 C 174.35 243.28 173.57 242.24 172.45 242.08 L 171.47 241.94 C 170.35 241.77 169.31 242.55 169.15 243.67 C 168.99 244.79 169.76 245.83 170.88 245.99 Z M 171.87 246.14 L 172.86 246.27 C 173.98 246.43 175.02 245.65 175.17 244.53 C 175.33 243.41 174.55 242.38 173.43 242.22 L 172.45 242.08 C 171.33 241.92 170.29 242.70 170.13 243.82 C 169.97 244.94 170.75 245.98 171.87 246.14 Z M 172.87 246.28 L 173.87 246.41 C 174.99 246.56 176.02 245.77 176.17 244.65 C 176.32 243.53 175.53 242.50 174.41 242.35 L 173.42 242.22 C 172.30 242.07 171.27 242.85 171.12 243.97 C 170.97 245.09 171.75 246.13 172.87 246.28 Z M 173.89 246.41 L 174.89 246.54 C 176.02 246.68 177.04 245.88 177.18 244.76 C 177.32 243.63 176.52 242.61 175.40 242.47 L 174.39 242.35 C 173.27 242.21 172.25 243.00 172.11 244.13 C 171.97 245.25 172.77 246.27 173.89 246.41 Z M 174.92 246.54 L 175.92 246.65 C 177.04 246.78 178.06 245.97 178.18 244.85 C 178.31 243.72 177.50 242.71 176.38 242.58 L 175.38 242.47 C 174.25 242.35 173.24 243.15 173.11 244.28 C 172.99 245.40 173.80 246.41 174.92 246.54 Z M 175.94 246.65 L 176.95 246.75 C 178.07 246.87 179.07 246.05 179.19 244.93 C 179.31 243.81 178.49 242.81 177.37 242.69 L 176.36 242.59 C 175.24 242.47 174.23 243.29 174.12 244.41 C 174.00 245.53 174.82 246.53 175.94 246.65 Z M 176.96 246.75 L 177.97 246.85 C 179.09 246.96 180.09 246.14 180.19 245.02 C 180.30 243.90 179.48 242.90 178.36 242.79 L 177.36 242.69 C 176.23 242.58 175.24 243.40 175.13 244.52 C 175.02 245.64 175.84 246.64 176.96 246.75 Z M 177.97 246.85 L 178.97 246.94 C 180.09 247.05 181.08 246.23 181.19 245.11 C 181.30 243.99 180.47 243.00 179.36 242.89 L 178.36 242.79 C 177.24 242.68 176.24 243.51 176.14 244.63 C 176.03 245.75 176.85 246.74 177.97 246.85 Z M 178.96 246.94 L 179.94 247.04 C 181.06 247.14 182.05 246.33 182.16 245.21 C 182.27 244.09 181.45 243.09 180.33 242.99 L 179.36 242.89 C 178.24 242.78 177.25 243.60 177.14 244.72 C 177.03 245.84 177.85 246.83 178.96 246.94 Z M 179.93 247.03 L 180.94 247.13 C 182.05 247.25 183.05 246.44 183.16 245.32 C 183.28 244.20 182.47 243.21 181.35 243.09 L 180.34 242.99 C 179.23 242.88 178.23 243.69 178.12 244.80 C 178.00 245.92 178.81 246.92 179.93 247.03 Z M 180.93 247.13 L 181.94 247.24 C 183.05 247.36 184.05 246.55 184.17 245.44 C 184.29 244.32 183.48 243.32 182.37 243.20 L 181.36 243.10 C 180.24 242.98 179.25 243.78 179.13 244.90 C 179.01 246.01 179.81 247.01 180.93 247.13 Z M 181.94 247.24 L 182.92 247.34 C 184.04 247.46 185.03 246.65 185.15 245.54 C 185.27 244.43 184.47 243.43 183.35 243.31 L 182.37 243.21 C 181.25 243.09 180.26 243.89 180.14 245.01 C 180.02 246.12 180.82 247.12 181.94 247.24 Z M 182.94 247.34 L 183.91 247.44 C 185.03 247.55 186.02 246.74 186.13 245.63 C 186.24 244.52 185.43 243.52 184.32 243.41 L 183.34 243.31 C 182.23 243.20 181.24 244.01 181.13 245.12 C 181.01 246.24 181.82 247.23 182.94 247.34 Z M 183.94 247.44 L 184.92 247.53 C 186.03 247.63 187.01 246.81 187.11 245.69 C 187.21 244.58 186.39 243.60 185.28 243.50 L 184.30 243.41 C 183.19 243.31 182.20 244.13 182.10 245.24 C 182.00 246.36 182.82 247.34 183.94 247.44 Z M 184.95 247.53 L 185.94 247.60 C 187.05 247.68 188.02 246.85 188.10 245.74 C 188.18 244.63 187.35 243.66 186.24 243.58 L 185.25 243.50 C 184.14 243.42 183.17 244.25 183.09 245.36 C 183.00 246.47 183.84 247.44 184.95 247.53 Z M 185.96 247.60 L 186.96 247.66 C 188.07 247.73 189.03 246.89 189.10 245.78 C 189.17 244.67 188.32 243.71 187.21 243.64 L 186.21 243.58 C 185.10 243.51 184.15 244.35 184.08 245.46 C 184.01 246.57 184.85 247.53 185.96 247.60 Z M 186.97 247.66 L 187.98 247.72 C 189.09 247.78 190.04 246.93 190.10 245.82 C 190.16 244.71 189.31 243.76 188.20 243.70 L 187.20 243.64 C 186.09 243.58 185.14 244.43 185.08 245.54 C 185.01 246.65 185.86 247.60 186.97 247.66 Z M 187.98 247.71 L 188.99 247.77 C 190.10 247.83 191.04 246.97 191.10 245.86 C 191.16 244.76 190.31 243.81 189.20 243.75 L 188.20 243.70 C 187.09 243.64 186.14 244.49 186.08 245.60 C 186.02 246.71 186.87 247.66 187.98 247.71 Z M 188.98 247.76 L 189.98 247.82 C 191.09 247.88 192.04 247.03 192.09 245.92 C 192.15 244.81 191.30 243.87 190.20 243.81 L 189.20 243.75 C 188.09 243.69 187.15 244.54 187.09 245.65 C 187.03 246.76 187.88 247.71 188.98 247.76 Z M 189.97 247.81 L 190.99 247.87 C 192.10 247.94 193.05 247.09 193.11 245.99 C 193.18 244.88 192.33 243.93 191.23 243.87 L 190.21 243.81 C 189.10 243.75 188.15 244.59 188.09 245.70 C 188.02 246.80 188.87 247.75 189.97 247.81 Z M 190.99 247.87 L 192.00 247.93 C 193.10 248.00 194.05 247.16 194.12 246.05 C 194.18 244.95 193.34 244.00 192.24 243.94 L 191.23 243.88 C 190.13 243.81 189.18 244.65 189.11 245.75 C 189.05 246.85 189.89 247.80 190.99 247.87 Z M 192.00 247.92 L 193.00 247.98 C 194.10 248.05 195.04 247.21 195.11 246.11 C 195.17 245.01 194.33 244.06 193.23 244.00 L 192.24 243.94 C 191.14 243.88 190.19 244.72 190.13 245.82 C 190.06 246.92 190.90 247.86 192.00 247.92 Z M 193.01 247.98 L 193.99 248.03 C 195.09 248.09 196.02 247.25 196.08 246.15 C 196.14 245.05 195.30 244.12 194.20 244.06 L 193.22 244.00 C 192.12 243.94 191.18 244.79 191.13 245.88 C 191.07 246.98 191.91 247.92 193.01 247.98 Z M 194.01 248.03 L 195.00 248.07 C 196.10 248.12 197.03 247.28 197.08 246.18 C 197.13 245.08 196.28 244.16 195.18 244.11 L 194.19 244.06 C 193.09 244.01 192.16 244.86 192.11 245.95 C 192.06 247.05 192.91 247.98 194.01 248.03 Z M 195.02 248.07 L 196.05 248.11 C 197.14 248.14 198.06 247.29 198.10 246.20 C 198.13 245.10 197.28 244.18 196.19 244.15 L 195.16 244.11 C 194.07 244.07 193.15 244.93 193.11 246.02 C 193.07 247.11 193.93 248.03 195.02 248.07 Z M 196.06 248.10 L 197.07 248.13 C 198.16 248.16 199.07 247.30 199.10 246.21 C 199.13 245.12 198.27 244.21 197.18 244.18 L 196.17 244.15 C 195.08 244.12 194.17 244.98 194.14 246.07 C 194.11 247.16 194.97 248.07 196.06 248.10 Z M 197.08 248.12 L 198.07 248.15 C 199.16 248.17 200.06 247.31 200.08 246.22 C 200.10 245.13 199.24 244.23 198.15 244.20 L 197.16 244.18 C 196.08 244.16 195.17 245.02 195.15 246.11 C 195.13 247.20 195.99 248.10 197.08 248.12 Z M 198.07 248.14 L 199.04 248.16 C 200.13 248.18 201.03 247.32 201.05 246.23 C 201.07 245.14 200.20 244.25 199.12 244.23 L 198.15 244.21 C 197.06 244.19 196.16 245.05 196.14 246.14 C 196.12 247.22 196.99 248.12 198.07 248.14 Z M 199.05 248.15 L 200.06 248.17 C 201.14 248.19 202.03 247.33 202.05 246.24 C 202.07 245.16 201.21 244.27 200.13 244.25 L 199.11 244.23 C 198.03 244.21 197.14 245.08 197.12 246.16 C 197.10 247.24 197.96 248.14 199.05 248.15 Z M 200.06 248.17 L 201.06 248.18 C 202.14 248.20 203.03 247.34 203.04 246.26 C 203.06 245.18 202.20 244.29 201.12 244.27 L 200.12 244.25 C 199.04 244.24 198.15 245.10 198.14 246.18 C 198.12 247.26 198.98 248.15 200.06 248.17 Z M 201.06 248.18 L 202.05 248.19 C 203.13 248.20 204.02 247.34 204.03 246.26 C 204.04 245.19 203.18 244.30 202.10 244.29 L 201.11 244.28 C 200.04 244.26 199.15 245.12 199.14 246.20 C 199.12 247.28 199.99 248.16 201.06 248.18 Z M 202.06 248.18 L 203.06 248.19 C 204.13 248.20 205.01 247.34 205.02 246.27 C 205.03 245.19 204.17 244.31 203.10 244.30 L 202.10 244.29 C 201.02 244.28 200.15 245.15 200.13 246.22 C 200.12 247.29 200.99 248.17 202.06 248.18 Z M 203.07 248.19 L 204.09 248.19 C 205.16 248.20 206.03 247.34 206.04 246.27 C 206.04 245.20 205.18 244.32 204.11 244.32 L 203.09 244.31 C 202.02 244.30 201.15 245.17 201.14 246.24 C 201.13 247.31 202.00 248.18 203.07 248.19 Z M 204.09 248.19 L 205.11 248.19 C 206.18 248.19 207.05 247.33 207.05 246.26 C 207.05 245.20 206.19 244.33 205.12 244.33 L 204.10 244.32 C 203.04 244.32 202.17 245.18 202.17 246.25 C 202.16 247.32 203.03 248.18 204.09 248.19 Z M 205.12 248.18 L 206.12 248.18 C 207.18 248.18 208.04 247.32 208.04 246.26 C 208.04 245.20 207.18 244.34 206.12 244.33 L 205.12 244.33 C 204.06 244.33 203.19 245.19 203.19 246.26 C 203.19 247.32 204.05 248.18 205.12 248.18 Z M 206.12 248.18 L 207.08 248.18 C 208.14 248.18 209.00 247.32 209.00 246.26 C 209.00 245.20 208.14 244.34 207.08 244.34 L 206.12 244.34 C 205.06 244.34 204.20 245.20 204.20 246.26 C 204.20 247.32 205.06 248.18 206.12 248.18 Z M 207.08 248.17 L 208.13 248.17 C 209.19 248.17 210.04 247.31 210.04 246.26 C 210.04 245.20 209.18 244.35 208.13 244.35 L 207.08 244.35 C 206.02 244.35 205.17 245.21 205.17 246.26 C 205.17 247.32 206.03 248.17 207.08 248.17 Z M 208.14 248.16 L 209.14 248.15 C 210.19 248.15 211.04 247.29 211.03 246.23 C 211.02 245.18 210.16 244.34 209.11 244.35 L 208.11 244.35 C 207.06 244.36 206.22 245.22 206.22 246.27 C 206.23 247.32 207.09 248.17 208.14 248.16 Z M 209.17 248.15 L 210.14 248.12 C 211.19 248.10 212.02 247.23 211.99 246.19 C 211.97 245.14 211.10 244.31 210.05 244.33 L 209.08 244.35 C 208.04 244.38 207.21 245.25 207.23 246.29 C 207.25 247.34 208.12 248.17 209.17 248.15 Z M 210.18 248.12 L 211.16 248.07 C 212.21 248.03 213.01 247.14 212.97 246.10 C 212.92 245.06 212.04 244.25 210.99 244.30 L 210.01 244.34 C 208.97 244.39 208.16 245.27 208.21 246.31 C 208.25 247.35 209.14 248.16 210.18 248.12 Z M 211.20 248.06 L 212.20 248.00 C 213.24 247.93 214.03 247.03 213.96 246.00 C 213.89 244.96 213.00 244.17 211.96 244.24 L 210.96 244.31 C 209.92 244.37 209.13 245.27 209.20 246.31 C 209.27 247.34 210.16 248.13 211.20 248.06 Z M 212.23 247.99 L 213.23 247.91 C 214.26 247.83 215.03 246.93 214.95 245.90 C 214.87 244.86 213.97 244.09 212.94 244.17 L 211.94 244.25 C 210.91 244.33 210.13 245.23 210.21 246.26 C 210.29 247.30 211.20 248.07 212.23 247.99 Z M 213.23 247.90 L 214.23 247.82 C 215.25 247.73 216.02 246.83 215.93 245.81 C 215.85 244.78 214.95 244.02 213.92 244.10 L 212.93 244.18 C 211.90 244.27 211.14 245.17 211.22 246.19 C 211.31 247.22 212.21 247.98 213.23 247.90 Z M 214.22 247.81 L 215.24 247.73 C 216.26 247.64 217.03 246.75 216.94 245.73 C 216.86 244.71 215.97 243.95 214.95 244.03 L 213.93 244.11 C 212.90 244.19 212.14 245.09 212.23 246.11 C 212.31 247.13 213.20 247.89 214.22 247.81 Z M 215.25 247.71 L 216.25 247.63 C 217.26 247.54 218.01 246.65 217.93 245.63 C 217.84 244.62 216.94 243.87 215.93 243.95 L 214.93 244.04 C 213.92 244.13 213.17 245.02 213.26 246.04 C 213.35 247.05 214.24 247.80 215.25 247.71 Z M 216.28 247.61 L 217.25 247.51 C 218.25 247.41 218.98 246.51 218.88 245.50 C 218.77 244.49 217.87 243.76 216.87 243.87 L 215.90 243.97 C 214.89 244.07 214.16 244.97 214.27 245.98 C 214.37 246.99 215.27 247.72 216.28 247.61 Z M 217.29 247.50 L 218.31 247.37 C 219.31 247.24 220.01 246.32 219.88 245.33 C 219.76 244.33 218.84 243.62 217.84 243.75 L 216.82 243.88 C 215.83 244.01 215.12 244.93 215.25 245.92 C 215.38 246.92 216.29 247.63 217.29 247.50 Z M 218.33 247.35 L 219.32 247.21 C 220.31 247.07 221.00 246.15 220.86 245.16 C 220.72 244.18 219.80 243.49 218.81 243.63 L 217.82 243.77 C 216.83 243.91 216.15 244.82 216.29 245.81 C 216.43 246.80 217.34 247.49 218.33 247.35 Z M 219.31 247.20 L 220.27 247.07 C 221.26 246.94 221.95 246.03 221.81 245.05 C 221.68 244.06 220.77 243.37 219.79 243.51 L 218.82 243.64 C 217.84 243.77 217.15 244.68 217.29 245.66 C 217.42 246.64 218.32 247.33 219.31 247.20 Z M 220.24 247.06 L 221.25 246.94 C 222.23 246.83 222.93 245.94 222.81 244.96 C 222.70 243.99 221.81 243.28 220.83 243.40 L 219.83 243.52 C 218.85 243.63 218.15 244.52 218.26 245.49 C 218.37 246.47 219.26 247.17 220.24 247.06 Z M 221.25 246.93 L 222.23 246.81 C 223.20 246.70 223.90 245.82 223.78 244.85 C 223.67 243.88 222.79 243.18 221.82 243.30 L 220.83 243.41 C 219.86 243.53 219.17 244.41 219.28 245.38 C 219.40 246.35 220.28 247.04 221.25 246.93 Z M 222.28 246.79 L 223.28 246.65 C 224.24 246.51 224.91 245.61 224.77 244.65 C 224.63 243.69 223.73 243.03 222.77 243.17 L 221.77 243.32 C 220.81 243.46 220.15 244.35 220.29 245.31 C 220.43 246.27 221.32 246.93 222.28 246.79 Z M 223.33 246.63 L 224.35 246.45 C 225.30 246.28 225.93 245.37 225.76 244.42 C 225.59 243.47 224.69 242.84 223.74 243.01 L 222.72 243.19 C 221.77 243.36 221.14 244.26 221.31 245.21 C 221.48 246.16 222.38 246.80 223.33 246.63 Z M 224.35 246.44 L 225.28 246.28 C 226.22 246.11 226.86 245.20 226.69 244.26 C 226.52 243.31 225.62 242.68 224.67 242.85 L 223.74 243.01 C 222.79 243.18 222.16 244.09 222.33 245.03 C 222.50 245.98 223.40 246.61 224.35 246.44 Z M 225.22 246.28 L 226.27 246.13 C 227.21 246.00 227.87 245.12 227.74 244.17 C 227.61 243.23 226.73 242.57 225.78 242.70 L 224.73 242.85 C 223.79 242.98 223.13 243.86 223.26 244.80 C 223.39 245.75 224.27 246.41 225.22 246.28 Z M 226.25 246.13 L 227.15 246.01 C 228.10 245.89 228.76 245.02 228.64 244.08 C 228.52 243.13 227.66 242.46 226.71 242.59 L 225.80 242.70 C 224.86 242.82 224.19 243.69 224.31 244.64 C 224.43 245.58 225.30 246.25 226.25 246.13 Z M 227.19 246.00 L 228.00 245.87 C 228.94 245.73 229.59 244.85 229.44 243.91 C 229.30 242.97 228.42 242.33 227.48 242.47 L 226.67 242.60 C 225.73 242.74 225.09 243.62 225.23 244.56 C 225.37 245.50 226.25 246.14 227.19 246.00 Z M 227.97 245.87 L 229.13 245.72 C 230.06 245.59 230.72 244.73 230.60 243.79 C 230.47 242.85 229.61 242.19 228.67 242.32 L 227.51 242.48 C 226.58 242.60 225.92 243.46 226.04 244.40 C 226.17 245.34 227.03 246.00 227.97 245.87 Z M 229.09 245.72 L 230.04 245.61 C 230.97 245.51 231.65 244.66 231.55 243.73 C 231.44 242.79 230.60 242.11 229.66 242.22 L 228.71 242.32 C 227.77 242.42 227.10 243.27 227.20 244.21 C 227.30 245.14 228.15 245.82 229.09 245.72 Z M 230.01 245.61 L 231.04 245.51 C 231.98 245.42 232.67 244.58 232.57 243.65 C 232.48 242.71 231.65 242.03 230.71 242.12 L 229.68 242.22 C 228.75 242.31 228.06 243.14 228.15 244.08 C 228.24 245.02 229.08 245.70 230.01 245.61 Z M 231.03 245.51 L 232.08 245.41 C 233.02 245.33 233.71 244.51 233.63 243.57 C 233.55 242.64 232.72 241.95 231.79 242.03 L 230.73 242.12 C 229.80 242.20 229.10 243.02 229.18 243.96 C 229.27 244.89 230.09 245.59 231.03 245.51 Z M 232.06 245.41 L 233.05 245.34 C 233.98 245.27 234.68 244.46 234.61 243.52 C 234.54 242.59 233.73 241.89 232.80 241.96 L 231.81 242.03 C 230.88 242.10 230.18 242.91 230.24 243.85 C 230.31 244.78 231.13 245.48 232.06 245.41 Z M 233.00 245.32 L 234.21 245.26 C 235.13 245.21 235.84 244.43 235.80 243.51 C 235.75 242.58 234.97 241.87 234.05 241.92 L 232.84 241.98 C 231.92 242.02 231.21 242.81 231.25 243.73 C 231.30 244.65 232.08 245.36 233.00 245.32 Z M 234.14 245.22 L 235.08 245.21 C 235.98 245.20 236.70 244.46 236.69 243.56 C 236.68 242.66 235.94 241.94 235.04 241.95 L 234.11 241.96 C 233.21 241.97 232.49 242.70 232.50 243.60 C 232.51 244.50 233.24 245.23 234.14 245.22 Z M 235.00 245.16 L 235.89 245.19 C 236.76 245.22 237.50 244.54 237.53 243.67 C 237.56 242.80 236.88 242.06 236.01 242.03 L 235.12 242.00 C 234.25 241.97 233.51 242.65 233.48 243.52 C 233.45 244.39 234.13 245.13 235.00 245.16 Z M 235.83 245.13 L 236.81 245.20 C 237.65 245.27 238.38 244.65 238.45 243.81 C 238.51 242.97 237.89 242.24 237.05 242.17 L 236.07 242.10 C 235.23 242.03 234.50 242.66 234.44 243.49 C 234.37 244.33 234.99 245.06 235.83 245.13 Z M 236.79 245.15 L 237.07 245.18 C 237.88 245.26 238.60 244.67 238.67 243.86 C 238.75 243.05 238.16 242.33 237.35 242.25 L 237.07 242.22 C 236.26 242.15 235.54 242.74 235.47 243.55 C 235.39 244.36 235.98 245.08 236.79 245.15 Z"
      fill="black"
      fill-rule="nonzero" /></svg>