<svg xmlns="http://www.w3.org/2000/svg" width="300" height="300" viewBox="0 0 300 300">
<path d="M 121.53 73.52 L 121.31 72.62 C 121.13 71.83 120.33 71.34 119.54 71.53 C 118.75 71.72 118.27 72.51 118.46 73.30 L 118.67 74.21 C 118.86 74.99 119.66 75.48 120.44 75.29 C 121.23 75.10 121.72 74.31 121.53 73.52 Z M 121.27 72.48 L 120.92 71.46 C 120.65 70.70 119.81 70.29 119.05 70.56 C 118.28 70.83 117.88 71.67 118.15 72.43 L 118.50 73.44 C 118.77 74.21 119.60 74.62 120.37 74.35 C 121.14 74.08 121.54 73.24 121.27 72.48 Z M 120.86 71.27 L 120.31 70.21 C 119.94 69.48 119.05 69.19 118.31 69.56 C 117.58 69.94 117.29 70.83 117.67 71.56 L 118.21 72.62 C 118.58 73.36 119.48 73.64 120.21 73.27 C 120.94 72.90 121.23 72.00 120.86 71.27 Z M 120.08 69.83 L 119.54 69.27 C 118.95 68.67 117.99 68.65 117.39 69.24 C 116.79 69.82 116.77 70.78 117.36 71.38 L 117.90 71.94 C 118.48 72.55 119.45 72.56 120.05 71.98 C 120.65 71.39 120.66 70.43 120.08 69.83 Z M 117.15 69.45 L 116.76 70.04 C 116.28 70.75 116.47 71.72 117.18 72.20 C 117.90 72.68 118.87 72.49 119.35 71.78 L 119.74 71.20 C 120.22 70.48 120.03 69.51 119.32 69.03 C 118.60 68.55 117.63 68.74 117.15 69.45 Z M 116.48 70.62 L 116.26 71.78 C 116.10 72.65 116.68 73.49 117.55 73.65 C 118.42 73.81 119.25 73.23 119.42 72.36 L 119.63 71.20 C 119.79 70.33 119.22 69.49 118.34 69.33 C 117.47 69.17 116.64 69.75 116.48 70.62 Z M 116.23 71.79 L 116.06 72.75 C 115.90 73.64 116.50 74.49 117.38 74.65 C 118.27 74.80 119.12 74.21 119.27 73.32 L 119.45 72.35 C 119.60 71.47 119.01 70.62 118.12 70.46 C 117.23 70.31 116.39 70.90 116.23 71.79 Z M 116.05 72.71 L 115.85 73.67 C 115.67 74.56 116.24 75.43 117.14 75.62 C 118.03 75.80 118.90 75.23 119.08 74.33 L 119.28 73.37 C 119.46 72.48 118.89 71.61 118.00 71.42 C 117.11 71.24 116.24 71.81 116.05 72.71 Z M 115.85 73.63 L 115.63 74.54 C 115.43 75.44 115.98 76.33 116.88 76.54 C 117.77 76.75 118.67 76.19 118.87 75.30 L 119.09 74.38 C 119.30 73.48 118.74 72.59 117.85 72.38 C 116.95 72.17 116.06 72.73 115.85 73.63 Z M 115.63 74.52 L 115.37 75.54 C 115.15 76.44 115.70 77.35 116.60 77.57 C 117.50 77.79 118.41 77.24 118.63 76.34 L 118.88 75.32 C 119.11 74.42 118.56 73.51 117.66 73.29 C 116.76 73.07 115.85 73.62 115.63 74.52 Z M 115.36 75.52 L 115.12 76.48 C 114.89 77.39 115.44 78.31 116.35 78.54 C 117.25 78.76 118.17 78.22 118.40 77.31 L 118.64 76.35 C 118.87 75.45 118.32 74.53 117.42 74.30 C 116.51 74.07 115.59 74.62 115.36 75.52 Z M 115.11 76.46 L 114.87 77.41 C 114.63 78.32 115.17 79.25 116.08 79.49 C 116.99 79.73 117.92 79.19 118.16 78.28 L 118.41 77.33 C 118.65 76.42 118.10 75.49 117.19 75.25 C 116.28 75.01 115.35 75.55 115.11 76.46 Z M 114.86 77.38 L 114.58 78.38 C 114.33 79.29 114.86 80.24 115.77 80.49 C 116.69 80.75 117.63 80.22 117.89 79.30 L 118.17 78.31 C 118.42 77.39 117.89 76.45 116.97 76.19 C 116.06 75.94 115.12 76.47 114.86 77.38 Z M 114.58 78.34 L 114.29 79.30 C 114.02 80.21 114.53 81.17 115.45 81.45 C 116.36 81.73 117.32 81.21 117.60 80.30 L 117.89 79.34 C 118.16 78.43 117.65 77.47 116.73 77.19 C 115.82 76.92 114.86 77.43 114.58 78.34 Z M 114.30 79.26 L 113.99 80.19 C 113.70 81.10 114.19 82.08 115.11 82.38 C 116.02 82.68 117.00 82.18 117.29 81.27 L 117.60 80.34 C 117.89 79.42 117.39 78.45 116.48 78.15 C 115.57 77.85 114.59 78.35 114.30 79.26 Z M 113.99 80.16 L 113.66 81.12 C 113.35 82.03 113.83 83.02 114.74 83.33 C 115.65 83.65 116.64 83.17 116.96 82.26 L 117.29 81.30 C 117.61 80.39 117.12 79.40 116.21 79.08 C 115.30 78.77 114.31 79.25 113.99 80.16 Z M 113.67 81.09 L 113.31 82.06 C 112.98 82.97 113.45 83.97 114.35 84.31 C 115.26 84.64 116.27 84.17 116.60 83.26 L 116.96 82.29 C 117.29 81.38 116.82 80.37 115.91 80.04 C 115.00 79.71 114.00 80.18 113.67 81.09 Z M 113.31 82.03 L 112.97 82.93 C 112.62 83.84 113.08 84.85 113.99 85.20 C 114.89 85.55 115.91 85.09 116.26 84.19 L 116.60 83.29 C 116.95 82.38 116.49 81.36 115.58 81.02 C 114.68 80.67 113.66 81.12 113.31 82.03 Z M 112.97 82.91 L 112.61 83.83 C 112.25 84.73 112.69 85.76 113.60 86.11 C 114.51 86.47 115.53 86.03 115.89 85.12 L 116.25 84.21 C 116.61 83.30 116.17 82.28 115.26 81.92 C 114.36 81.56 113.33 82.00 112.97 82.91 Z M 112.61 83.81 L 112.23 84.75 C 111.86 85.65 112.29 86.68 113.20 87.05 C 114.10 87.42 115.13 86.99 115.50 86.08 L 115.89 85.14 C 116.25 84.24 115.82 83.21 114.92 82.84 C 114.01 82.47 112.98 82.90 112.61 83.81 Z M 112.23 84.73 L 111.83 85.69 C 111.46 86.59 111.88 87.63 112.78 88.00 C 113.69 88.38 114.72 87.95 115.10 87.05 L 115.50 86.10 C 115.88 85.20 115.45 84.16 114.55 83.78 C 113.65 83.40 112.61 83.83 112.23 84.73 Z M 111.83 85.67 L 111.46 86.56 C 111.07 87.46 111.49 88.51 112.39 88.89 C 113.30 89.28 114.34 88.86 114.72 87.95 L 115.10 87.06 C 115.49 86.16 115.07 85.12 114.16 84.74 C 113.26 84.35 112.22 84.77 111.83 85.67 Z M 111.46 86.55 L 111.06 87.46 C 110.67 88.36 111.09 89.41 111.99 89.80 C 112.89 90.19 113.94 89.78 114.33 88.87 L 114.72 87.97 C 115.11 87.06 114.70 86.02 113.80 85.62 C 112.89 85.23 111.85 85.65 111.46 86.55 Z M 111.06 87.45 L 110.66 88.37 C 110.26 89.27 110.67 90.33 111.57 90.72 C 112.47 91.12 113.52 90.71 113.92 89.81 L 114.33 88.89 C 114.73 87.98 114.32 86.93 113.41 86.53 C 112.51 86.14 111.46 86.55 111.06 87.45 Z M 110.66 88.36 L 110.24 89.30 C 109.83 90.20 110.24 91.26 111.14 91.66 C 112.04 92.06 113.10 91.66 113.50 90.76 L 113.92 89.82 C 114.32 88.92 113.92 87.86 113.02 87.46 C 112.12 87.06 111.06 87.46 110.66 88.36 Z M 110.24 89.29 L 109.83 90.18 C 109.42 91.08 109.82 92.14 110.72 92.55 C 111.62 92.96 112.68 92.56 113.09 91.66 L 113.50 90.77 C 113.91 89.87 113.51 88.81 112.61 88.40 C 111.71 87.99 110.65 88.39 110.24 89.29 Z M 109.83 90.17 L 109.43 91.04 C 109.01 91.94 109.40 93.01 110.30 93.43 C 111.20 93.84 112.27 93.45 112.68 92.55 L 113.09 91.67 C 113.51 90.77 113.11 89.71 112.22 89.29 C 111.32 88.87 110.25 89.27 109.83 90.17 Z M 109.43 91.04 L 109.01 91.93 C 108.59 92.83 108.98 93.90 109.88 94.32 C 110.77 94.74 111.84 94.35 112.26 93.45 L 112.68 92.56 C 113.10 91.66 112.72 90.59 111.82 90.17 C 110.92 89.75 109.85 90.14 109.43 91.04 Z M 109.01 91.92 L 108.58 92.84 C 108.15 93.74 108.54 94.81 109.43 95.24 C 110.33 95.66 111.40 95.28 111.83 94.38 L 112.26 93.46 C 112.69 92.56 112.30 91.49 111.41 91.07 C 110.51 90.64 109.43 91.03 109.01 91.92 Z M 108.58 92.84 L 108.12 93.79 C 107.70 94.69 108.08 95.76 108.98 96.19 C 109.87 96.62 110.95 96.24 111.38 95.34 L 111.83 94.39 C 112.26 93.49 111.87 92.41 110.98 91.99 C 110.08 91.56 109.00 91.94 108.58 92.84 Z M 108.12 93.78 L 107.71 94.64 C 107.28 95.54 107.66 96.61 108.56 97.04 C 109.46 97.47 110.54 97.09 110.97 96.19 L 111.38 95.34 C 111.81 94.44 111.43 93.37 110.53 92.94 C 109.63 92.51 108.55 92.89 108.12 93.78 Z M 107.71 94.63 L 107.30 95.50 C 106.87 96.40 107.24 97.48 108.14 97.91 C 109.04 98.34 110.12 97.96 110.55 97.06 L 110.97 96.20 C 111.40 95.30 111.02 94.22 110.12 93.79 C 109.22 93.36 108.15 93.74 107.71 94.63 Z M 107.30 95.50 L 106.87 96.39 C 106.43 97.29 106.81 98.37 107.71 98.80 C 108.61 99.24 109.69 98.86 110.12 97.96 L 110.55 97.07 C 110.99 96.17 110.61 95.09 109.71 94.65 C 108.81 94.22 107.73 94.60 107.30 95.50 Z M 106.87 96.39 L 106.42 97.31 C 105.99 98.21 106.37 99.29 107.27 99.72 C 108.17 100.16 109.25 99.78 109.68 98.88 L 110.13 97.96 C 110.56 97.06 110.18 95.98 109.28 95.55 C 108.38 95.11 107.30 95.49 106.87 96.39 Z M 106.42 97.31 L 105.97 98.25 C 105.53 99.15 105.91 100.23 106.81 100.67 C 107.72 101.10 108.80 100.72 109.23 99.82 L 109.69 98.88 C 110.12 97.98 109.74 96.90 108.84 96.46 C 107.94 96.03 106.86 96.40 106.42 97.31 Z M 105.97 98.25 L 105.52 99.18 C 105.08 100.08 105.46 101.16 106.36 101.60 C 107.27 102.03 108.35 101.65 108.79 100.75 L 109.23 99.82 C 109.67 98.92 109.29 97.83 108.39 97.40 C 107.49 96.96 106.40 97.34 105.97 98.25 Z M 105.52 99.18 L 105.10 100.05 C 104.66 100.95 105.04 102.04 105.94 102.47 C 106.85 102.91 107.93 102.53 108.37 101.62 L 108.79 100.75 C 109.22 99.85 108.84 98.77 107.94 98.33 C 107.04 97.89 105.95 98.27 105.52 99.18 Z M 105.10 100.05 L 104.67 100.93 C 104.23 101.83 104.61 102.92 105.51 103.36 C 106.41 103.79 107.50 103.42 107.94 102.51 L 108.36 101.63 C 108.80 100.72 108.42 99.64 107.52 99.20 C 106.62 98.77 105.53 99.14 105.10 100.05 Z M 104.67 100.93 L 104.23 101.83 C 103.79 102.73 104.17 103.81 105.07 104.25 C 105.97 104.69 107.06 104.32 107.50 103.42 L 107.93 102.52 C 108.37 101.62 108.00 100.53 107.10 100.09 C 106.20 99.65 105.11 100.03 104.67 100.93 Z M 104.24 101.82 L 103.79 102.73 C 103.35 103.63 103.72 104.71 104.62 105.16 C 105.52 105.60 106.61 105.23 107.05 104.33 L 107.49 103.42 C 107.94 102.52 107.57 101.43 106.67 100.99 C 105.77 100.55 104.68 100.92 104.24 101.82 Z M 103.79 102.72 L 103.34 103.63 C 102.89 104.53 103.26 105.62 104.15 106.07 C 105.05 106.51 106.14 106.15 106.59 105.25 L 107.04 104.34 C 107.49 103.44 107.13 102.35 106.23 101.90 C 105.33 101.46 104.24 101.82 103.79 102.72 Z M 103.34 103.62 L 102.88 104.54 C 102.43 105.44 102.79 106.53 103.68 106.98 C 104.58 107.43 105.67 107.07 106.12 106.18 L 106.58 105.26 C 107.04 104.37 106.68 103.27 105.78 102.82 C 104.89 102.37 103.80 102.73 103.34 103.62 Z M 102.88 104.53 L 102.43 105.41 C 101.97 106.31 102.32 107.40 103.21 107.86 C 104.11 108.32 105.20 107.97 105.66 107.08 L 106.12 106.19 C 106.57 105.30 106.22 104.20 105.33 103.74 C 104.44 103.29 103.34 103.64 102.88 104.53 Z M 102.43 105.40 L 101.97 106.29 C 101.51 107.18 101.85 108.27 102.74 108.74 C 103.63 109.21 104.72 108.86 105.19 107.97 L 105.65 107.09 C 106.12 106.20 105.78 105.10 104.89 104.64 C 104.00 104.17 102.90 104.51 102.43 105.40 Z M 101.98 106.27 L 101.51 107.16 C 101.03 108.04 101.37 109.14 102.25 109.62 C 103.14 110.09 104.24 109.76 104.71 108.87 L 105.18 107.99 C 105.66 107.10 105.32 106.00 104.44 105.53 C 103.55 105.06 102.45 105.39 101.98 106.27 Z M 101.51 107.14 L 101.03 108.03 C 100.55 108.91 100.88 110.01 101.76 110.49 C 102.64 110.97 103.74 110.65 104.22 109.76 L 104.70 108.88 C 105.18 108.00 104.86 106.90 103.98 106.42 C 103.10 105.94 101.99 106.26 101.51 107.14 Z M 101.04 108.01 L 100.55 108.89 C 100.07 109.76 100.38 110.87 101.26 111.36 C 102.13 111.85 103.24 111.53 103.73 110.65 L 104.22 109.78 C 104.71 108.90 104.39 107.79 103.51 107.31 C 102.64 106.82 101.53 107.13 101.04 108.01 Z M 100.56 108.87 L 100.07 109.74 C 99.57 110.61 99.87 111.72 100.75 112.22 C 101.62 112.72 102.73 112.41 103.23 111.54 L 103.72 110.67 C 104.22 109.80 103.91 108.69 103.04 108.19 C 102.17 107.69 101.06 108.00 100.56 108.87 Z M 100.08 109.72 L 99.57 110.58 C 99.07 111.45 99.36 112.56 100.23 113.07 C 101.10 113.58 102.21 113.28 102.72 112.42 L 103.22 111.56 C 103.72 110.69 103.43 109.57 102.56 109.07 C 101.70 108.56 100.58 108.86 100.08 109.72 Z M 99.59 110.57 L 99.08 111.42 C 98.56 112.28 98.85 113.40 99.71 113.91 C 100.57 114.42 101.68 114.14 102.20 113.28 L 102.71 112.43 C 103.22 111.57 102.94 110.45 102.08 109.94 C 101.21 109.42 100.10 109.71 99.59 110.57 Z M 99.09 111.41 L 98.57 112.25 C 98.05 113.11 98.32 114.22 99.18 114.74 C 100.03 115.27 101.15 115.00 101.67 114.14 L 102.19 113.29 C 102.71 112.44 102.44 111.32 101.58 110.80 C 100.73 110.28 99.61 110.55 99.09 111.41 Z M 98.58 112.24 L 98.06 113.08 C 97.53 113.93 97.79 115.05 98.64 115.58 C 99.49 116.11 100.61 115.85 101.14 114.99 L 101.66 114.15 C 102.19 113.30 101.93 112.18 101.08 111.65 C 100.23 111.13 99.11 111.39 98.58 112.24 Z M 98.07 113.07 L 97.53 113.92 C 97.00 114.76 97.26 115.88 98.10 116.42 C 98.95 116.95 100.07 116.70 100.60 115.85 L 101.13 115.00 C 101.67 114.16 101.41 113.04 100.57 112.51 C 99.72 111.97 98.60 112.23 98.07 113.07 Z M 97.54 113.91 L 97.00 114.76 C 96.46 115.60 96.71 116.72 97.55 117.26 C 98.39 117.80 99.51 117.55 100.05 116.71 L 100.59 115.86 C 101.13 115.01 100.88 113.90 100.04 113.36 C 99.20 112.82 98.08 113.07 97.54 113.91 Z M 97.01 114.75 L 96.45 115.61 C 95.91 116.45 96.16 117.57 96.99 118.11 C 97.83 118.65 98.95 118.41 99.49 117.57 L 100.05 116.71 C 100.59 115.87 100.34 114.75 99.50 114.21 C 98.67 113.67 97.55 113.91 97.01 114.75 Z M 96.46 115.61 L 95.91 116.45 C 95.37 117.28 95.61 118.40 96.44 118.95 C 97.28 119.49 98.40 119.25 98.94 118.41 L 99.49 117.57 C 100.03 116.74 99.79 115.62 98.96 115.07 C 98.12 114.53 97.00 114.77 96.46 115.61 Z M 95.92 116.44 L 95.37 117.29 C 94.82 118.12 95.06 119.24 95.89 119.79 C 96.73 120.33 97.85 120.10 98.39 119.26 L 98.94 118.42 C 99.49 117.58 99.25 116.46 98.41 115.92 C 97.58 115.37 96.46 115.61 95.92 116.44 Z M 95.37 117.28 L 94.81 118.13 C 94.27 118.96 94.50 120.08 95.33 120.63 C 96.17 121.17 97.29 120.94 97.83 120.11 L 98.39 119.26 C 98.93 118.43 98.70 117.31 97.87 116.76 C 97.03 116.22 95.92 116.45 95.37 117.28 Z M 94.82 118.12 L 94.26 118.97 C 93.71 119.80 93.94 120.92 94.77 121.47 C 95.61 122.02 96.73 121.79 97.28 120.95 L 97.83 120.11 C 98.38 119.28 98.15 118.16 97.32 117.61 C 96.49 117.06 95.37 117.29 94.82 118.12 Z M 94.26 118.96 L 93.71 119.80 C 93.16 120.63 93.39 121.75 94.22 122.30 C 95.05 122.85 96.17 122.63 96.72 121.79 L 97.27 120.96 C 97.82 120.13 97.60 119.01 96.76 118.46 C 95.93 117.91 94.81 118.13 94.26 118.96 Z M 93.71 119.80 L 93.16 120.63 C 92.61 121.46 92.83 122.58 93.66 123.13 C 94.49 123.68 95.61 123.46 96.16 122.63 L 96.72 121.80 C 97.27 120.97 97.04 119.85 96.21 119.30 C 95.38 118.74 94.26 118.97 93.71 119.80 Z M 93.16 120.62 L 92.62 121.44 C 92.06 122.27 92.29 123.39 93.12 123.94 C 93.94 124.49 95.06 124.27 95.62 123.44 L 96.16 122.63 C 96.72 121.80 96.49 120.68 95.66 120.13 C 94.84 119.57 93.72 119.80 93.16 120.62 Z M 92.62 121.44 L 92.05 122.29 C 91.49 123.12 91.71 124.24 92.54 124.79 C 93.36 125.35 94.48 125.13 95.04 124.30 L 95.61 123.45 C 96.17 122.62 95.95 121.50 95.12 120.94 C 94.30 120.39 93.18 120.61 92.62 121.44 Z M 92.05 122.29 L 91.48 123.13 C 90.92 123.96 91.14 125.08 91.96 125.63 C 92.79 126.19 93.91 125.97 94.47 125.15 L 95.04 124.31 C 95.59 123.48 95.38 122.36 94.55 121.80 C 93.73 121.25 92.61 121.46 92.05 122.29 Z M 91.48 123.13 L 90.92 123.96 C 90.36 124.78 90.58 125.90 91.40 126.46 C 92.22 127.02 93.34 126.80 93.90 125.98 L 94.46 125.15 C 95.02 124.33 94.81 123.21 93.99 122.65 C 93.16 122.09 92.04 122.31 91.48 123.13 Z M 90.93 123.95 L 90.37 124.77 C 89.80 125.59 90.01 126.71 90.83 127.27 C 91.65 127.83 92.77 127.62 93.33 126.80 L 93.89 125.99 C 94.45 125.17 94.25 124.05 93.43 123.48 C 92.61 122.92 91.49 123.13 90.93 123.95 Z M 90.37 124.76 L 89.81 125.57 C 89.25 126.39 89.45 127.51 90.27 128.07 C 91.09 128.64 92.20 128.43 92.77 127.62 L 93.33 126.81 C 93.89 125.99 93.69 124.87 92.87 124.31 C 92.06 123.74 90.94 123.95 90.37 124.76 Z M 89.82 125.57 L 89.26 126.37 C 88.69 127.18 88.89 128.30 89.70 128.87 C 90.52 129.44 91.63 129.24 92.20 128.43 L 92.76 127.62 C 93.33 126.81 93.13 125.69 92.32 125.12 C 91.50 124.55 90.39 124.75 89.82 125.57 Z M 89.26 126.37 L 88.69 127.18 C 88.12 127.99 88.31 129.11 89.12 129.68 C 89.93 130.25 91.05 130.06 91.62 129.25 L 92.20 128.43 C 92.77 127.62 92.57 126.50 91.76 125.93 C 90.95 125.36 89.83 125.56 89.26 126.37 Z M 88.70 127.18 L 88.11 128.00 C 87.54 128.80 87.73 129.92 88.53 130.50 C 89.34 131.07 90.45 130.88 91.03 130.08 L 91.61 129.25 C 92.19 128.45 92.00 127.33 91.19 126.76 C 90.39 126.18 89.27 126.37 88.70 127.18 Z M 88.12 127.99 L 87.53 128.81 C 86.95 129.62 87.14 130.73 87.94 131.31 C 88.74 131.88 89.86 131.70 90.43 130.90 L 91.02 130.08 C 91.60 129.28 91.41 128.16 90.61 127.58 C 89.81 127.01 88.69 127.19 88.12 127.99 Z M 87.53 128.81 L 86.95 129.63 C 86.37 130.42 86.55 131.54 87.35 132.12 C 88.15 132.69 89.26 132.51 89.84 131.72 L 90.43 130.90 C 91.00 130.10 90.82 128.99 90.03 128.41 C 89.23 127.83 88.11 128.01 87.53 128.81 Z M 86.95 129.62 L 86.37 130.43 C 85.79 131.23 85.96 132.34 86.76 132.92 C 87.56 133.50 88.67 133.32 89.25 132.52 L 89.83 131.72 C 90.41 130.92 90.24 129.81 89.44 129.23 C 88.64 128.65 87.53 128.83 86.95 129.62 Z M 86.37 130.43 L 85.79 131.23 C 85.21 132.02 85.39 133.13 86.18 133.71 C 86.97 134.29 88.08 134.12 88.66 133.32 L 89.24 132.52 C 89.82 131.73 89.65 130.62 88.85 130.04 C 88.06 129.46 86.95 129.64 86.37 130.43 Z M 85.79 131.23 L 85.20 132.04 C 84.62 132.84 84.79 133.95 85.58 134.52 C 86.37 135.10 87.48 134.93 88.06 134.14 L 88.66 133.32 C 89.24 132.53 89.06 131.42 88.27 130.84 C 87.48 130.26 86.37 130.44 85.79 131.23 Z M 85.20 132.05 L 84.59 132.88 C 84.01 133.67 84.18 134.78 84.97 135.36 C 85.76 135.94 86.87 135.77 87.44 134.98 L 88.06 134.14 C 88.64 133.35 88.47 132.24 87.68 131.66 C 86.89 131.08 85.78 131.26 85.20 132.05 Z M 84.59 132.88 L 83.99 133.71 C 83.41 134.49 83.58 135.60 84.36 136.18 C 85.15 136.75 86.26 136.59 86.83 135.80 L 87.44 134.98 C 88.02 134.19 87.85 133.08 87.06 132.51 C 86.28 131.93 85.17 132.10 84.59 132.88 Z M 83.99 133.70 L 83.40 134.51 C 82.82 135.29 82.98 136.39 83.77 136.97 C 84.55 137.55 85.65 137.39 86.23 136.61 L 86.83 135.80 C 87.41 135.02 87.24 133.91 86.46 133.34 C 85.68 132.76 84.57 132.92 83.99 133.70 Z M 83.41 134.50 L 82.82 135.29 C 82.24 136.06 82.40 137.17 83.18 137.75 C 83.96 138.33 85.06 138.17 85.64 137.39 L 86.23 136.61 C 86.81 135.83 86.65 134.73 85.87 134.15 C 85.09 133.56 83.99 133.72 83.41 134.50 Z M 82.83 135.28 L 82.25 136.04 C 81.67 136.81 81.82 137.92 82.59 138.50 C 83.37 139.09 84.47 138.93 85.06 138.16 L 85.63 137.40 C 86.22 136.63 86.06 135.52 85.29 134.94 C 84.52 134.35 83.41 134.51 82.83 135.28 Z M 82.26 136.03 L 81.63 136.85 C 81.04 137.62 81.19 138.72 81.95 139.31 C 82.72 139.90 83.82 139.76 84.41 138.99 L 85.04 138.17 C 85.64 137.40 85.49 136.30 84.72 135.71 C 83.95 135.12 82.85 135.26 82.26 136.03 Z M 81.64 136.84 L 81.00 137.66 C 80.41 138.43 80.54 139.53 81.30 140.12 C 82.06 140.72 83.17 140.58 83.76 139.82 L 84.40 139.00 C 85.00 138.24 84.86 137.14 84.10 136.54 C 83.34 135.95 82.24 136.08 81.64 136.84 Z M 81.01 137.65 L 80.38 138.44 C 79.78 139.20 79.91 140.30 80.66 140.90 C 81.42 141.50 82.52 141.38 83.12 140.62 L 83.75 139.83 C 84.35 139.08 84.23 137.97 83.47 137.37 C 82.72 136.77 81.61 136.90 81.01 137.65 Z M 80.40 138.43 L 79.78 139.19 C 79.17 139.94 79.29 141.04 80.04 141.65 C 80.79 142.25 81.89 142.14 82.50 141.39 L 83.11 140.63 C 83.72 139.88 83.61 138.78 82.86 138.17 C 82.10 137.56 81.00 137.68 80.40 138.43 Z M 79.79 139.18 L 79.20 139.90 C 78.58 140.65 78.69 141.75 79.43 142.36 C 80.18 142.98 81.28 142.87 81.89 142.12 L 82.49 141.40 C 83.10 140.65 83.00 139.55 82.25 138.94 C 81.51 138.32 80.41 138.43 79.79 139.18 Z M 79.21 139.89 L 78.55 140.68 C 77.93 141.42 78.02 142.52 78.76 143.14 C 79.50 143.76 80.60 143.66 81.22 142.92 L 81.88 142.13 C 82.50 141.39 82.40 140.29 81.67 139.67 C 80.93 139.06 79.83 139.15 79.21 139.89 Z M 78.56 140.67 L 77.90 141.45 C 77.27 142.18 77.36 143.28 78.10 143.90 C 78.83 144.53 79.93 144.44 80.55 143.70 L 81.21 142.93 C 81.84 142.20 81.75 141.10 81.01 140.47 C 80.28 139.85 79.18 139.94 78.56 140.67 Z M 77.90 141.44 L 77.26 142.19 C 76.64 142.93 76.72 144.02 77.45 144.65 C 78.18 145.27 79.28 145.19 79.91 144.46 L 80.55 143.71 C 81.17 142.98 81.09 141.88 80.36 141.25 C 79.63 140.63 78.53 140.71 77.90 141.44 Z M 77.26 142.20 L 76.63 142.93 C 76.01 143.66 76.09 144.76 76.82 145.38 C 77.55 146.01 78.65 145.92 79.27 145.19 L 79.90 144.46 C 80.53 143.73 80.44 142.63 79.71 142.01 C 78.98 141.38 77.89 141.47 77.26 142.20 Z M 76.63 142.94 L 75.97 143.72 C 75.35 144.45 75.44 145.55 76.17 146.17 C 76.90 146.79 77.99 146.70 78.61 145.97 L 79.28 145.19 C 79.90 144.45 79.81 143.36 79.08 142.74 C 78.35 142.12 77.25 142.21 76.63 142.94 Z M 75.96 143.73 L 75.29 144.53 C 74.68 145.26 74.77 146.36 75.50 146.97 C 76.24 147.59 77.33 147.49 77.95 146.76 L 78.62 145.96 C 79.23 145.22 79.14 144.13 78.40 143.52 C 77.67 142.90 76.58 143.00 75.96 143.73 Z M 75.29 144.54 L 74.65 145.31 C 74.04 146.04 74.14 147.13 74.87 147.74 C 75.60 148.35 76.69 148.25 77.30 147.52 L 77.95 146.75 C 78.56 146.02 78.46 144.93 77.73 144.32 C 76.99 143.71 75.90 143.80 75.29 144.54 Z M 74.65 145.31 L 74.05 146.03 C 73.45 146.76 73.55 147.85 74.28 148.46 C 75.01 149.07 76.10 148.97 76.71 148.23 L 77.30 147.52 C 77.91 146.78 77.81 145.70 77.08 145.09 C 76.35 144.48 75.26 144.58 74.65 145.31 Z M 74.06 146.03 L 73.37 146.86 C 72.76 147.59 72.86 148.67 73.59 149.28 C 74.32 149.89 75.40 149.79 76.01 149.06 L 76.70 148.23 C 77.31 147.50 77.21 146.42 76.48 145.81 C 75.75 145.20 74.67 145.30 74.06 146.03 Z M 73.37 146.86 L 72.74 147.63 C 72.13 148.36 72.23 149.44 72.96 150.04 C 73.69 150.65 74.77 150.55 75.37 149.82 L 76.01 149.05 C 76.61 148.33 76.51 147.25 75.79 146.64 C 75.06 146.04 73.98 146.14 73.37 146.86 Z M 72.74 147.64 L 72.16 148.34 C 71.56 149.07 71.67 150.15 72.39 150.74 C 73.12 151.34 74.19 151.24 74.79 150.51 L 75.37 149.81 C 75.97 149.08 75.86 148.01 75.14 147.41 C 74.41 146.81 73.34 146.92 72.74 147.64 Z M 72.16 148.37 L 71.50 149.18 C 70.91 149.91 71.03 150.98 71.76 151.56 C 72.49 152.15 73.55 152.03 74.14 151.30 L 74.80 150.49 C 75.38 149.76 75.27 148.69 74.54 148.11 C 73.81 147.52 72.74 147.64 72.16 148.37 Z M 71.50 149.21 L 70.90 149.97 C 70.33 150.70 70.46 151.75 71.19 152.32 C 71.92 152.90 72.97 152.77 73.54 152.04 L 74.14 151.28 C 74.71 150.55 74.58 149.49 73.85 148.92 C 73.12 148.35 72.07 148.48 71.50 149.21 Z M 70.90 150.00 L 70.30 150.79 C 69.74 151.52 69.88 152.56 70.61 153.12 C 71.34 153.67 72.38 153.53 72.94 152.80 L 73.54 152.01 C 74.10 151.28 73.96 150.24 73.23 149.68 C 72.50 149.13 71.46 149.27 70.90 150.00 Z M 70.32 150.80 L 69.72 151.58 C 69.17 152.30 69.30 153.33 70.02 153.88 C 70.74 154.43 71.77 154.30 72.32 153.58 L 72.92 152.80 C 73.47 152.08 73.34 151.05 72.62 150.50 C 71.90 149.95 70.87 150.08 70.32 150.80 Z M 69.77 151.57 L 69.15 152.34 C 68.60 153.03 68.71 154.04 69.39 154.59 C 70.08 155.15 71.09 155.04 71.64 154.35 L 72.26 153.58 C 72.82 152.90 72.71 151.89 72.02 151.33 C 71.34 150.78 70.33 150.89 69.77 151.57 Z M 69.22 152.36 L 68.57 153.14 C 68.02 153.79 68.11 154.76 68.76 155.30 C 69.41 155.85 70.39 155.76 70.93 155.11 L 71.58 154.33 C 72.12 153.68 72.04 152.71 71.39 152.17 C 70.73 151.62 69.76 151.71 69.22 152.36 Z M 68.60 153.15 L 68.52 153.24 C 67.99 153.88 68.07 154.83 68.71 155.36 C 69.34 155.90 70.29 155.81 70.82 155.18 L 70.90 155.09 C 71.43 154.45 71.35 153.51 70.72 152.97 C 70.08 152.44 69.13 152.52 68.60 153.15 Z"
      fill="black"
      fill-rule="nonzero" /><path d="M 100.86 114.54 L 101.84 114.22 C 102.65 113.95 103.09 113.08 102.83 112.28 C 102.56 111.47 101.70 111.03 100.89 111.29 L 99.91 111.61 C 99.10 111.87 98.66 112.74 98.92 113.55 C 99.19 114.36 100.06 114.80 100.86 114.54 Z M 101.81 114.24 L 102.76 113.96 C 103.58 113.71 104.05 112.84 103.80 112.02 C 103.56 111.20 102.69 110.73 101.87 110.98 L 100.92 111.26 C 100.10 111.51 99.63 112.38 99.88 113.20 C 100.12 114.02 100.99 114.49 101.81 114.24 Z M 102.68 113.99 L 103.61 113.77 C 104.45 113.56 104.97 112.72 104.76 111.87 C 104.56 111.03 103.71 110.52 102.87 110.72 L 101.94 110.95 C 101.10 111.15 100.59 112.00 100.79 112.84 C 100.99 113.68 101.84 114.20 102.68 113.99 Z M 103.49 113.80 L 104.46 113.64 C 105.32 113.50 105.90 112.69 105.76 111.83 C 105.62 110.98 104.81 110.39 103.95 110.53 L 102.99 110.69 C 102.13 110.83 101.55 111.64 101.69 112.50 C 101.83 113.36 102.63 113.94 103.49 113.80 Z M 104.36 113.66 L 105.38 113.56 C 106.25 113.48 106.88 112.70 106.80 111.83 C 106.71 110.96 105.94 110.33 105.07 110.41 L 104.05 110.51 C 103.18 110.60 102.55 111.37 102.63 112.24 C 102.72 113.11 103.49 113.75 104.36 113.66 Z M 105.33 113.57 L 106.34 113.50 C 107.21 113.44 107.87 112.69 107.81 111.81 C 107.75 110.94 107.00 110.27 106.12 110.33 L 105.12 110.40 C 104.24 110.46 103.58 111.22 103.64 112.09 C 103.70 112.97 104.46 113.63 105.33 113.57 Z M 106.33 113.51 L 107.35 113.45 C 108.23 113.39 108.90 112.64 108.84 111.76 C 108.79 110.88 108.03 110.21 107.15 110.26 L 106.13 110.33 C 105.25 110.38 104.58 111.14 104.64 112.02 C 104.69 112.90 105.45 113.56 106.33 113.51 Z M 107.37 113.45 L 108.39 113.38 C 109.27 113.31 109.93 112.54 109.87 111.66 C 109.81 110.78 109.04 110.12 108.16 110.18 L 107.13 110.26 C 106.25 110.32 105.59 111.09 105.66 111.97 C 105.72 112.85 106.49 113.52 107.37 113.45 Z M 108.42 113.38 L 109.40 113.29 C 110.28 113.21 110.93 112.43 110.85 111.55 C 110.77 110.67 109.99 110.02 109.11 110.10 L 108.13 110.18 C 107.25 110.26 106.60 111.04 106.68 111.92 C 106.76 112.81 107.54 113.46 108.42 113.38 Z M 109.41 113.29 L 110.38 113.19 C 111.26 113.11 111.91 112.33 111.82 111.45 C 111.74 110.56 110.96 109.92 110.07 110.00 L 109.10 110.09 C 108.22 110.18 107.58 110.96 107.66 111.84 C 107.74 112.73 108.53 113.37 109.41 113.29 Z M 110.37 113.20 L 111.35 113.11 C 112.23 113.03 112.88 112.25 112.80 111.36 C 112.72 110.48 111.94 109.83 111.05 109.91 L 110.08 110.00 C 109.19 110.08 108.54 110.86 108.62 111.75 C 108.71 112.63 109.49 113.28 110.37 113.20 Z M 111.35 113.12 L 112.36 113.02 C 113.25 112.94 113.90 112.15 113.82 111.27 C 113.74 110.38 112.95 109.73 112.06 109.81 L 111.05 109.90 C 110.16 109.98 109.51 110.77 109.59 111.66 C 109.67 112.55 110.46 113.20 111.35 113.12 Z M 112.37 113.03 L 113.37 112.93 C 114.26 112.84 114.91 112.05 114.83 111.16 C 114.74 110.27 113.94 109.62 113.05 109.70 L 112.05 109.80 C 111.16 109.89 110.51 110.68 110.60 111.57 C 110.68 112.47 111.48 113.12 112.37 113.03 Z M 113.38 112.94 L 114.36 112.83 C 115.26 112.74 115.91 111.94 115.82 111.04 C 115.72 110.15 114.92 109.50 114.02 109.59 L 113.04 109.70 C 112.15 109.79 111.50 110.59 111.59 111.49 C 111.68 112.38 112.49 113.03 113.38 112.94 Z M 114.37 112.84 L 115.38 112.73 C 116.28 112.64 116.93 111.83 116.83 110.93 C 116.73 110.03 115.92 109.38 115.02 109.48 L 114.02 109.59 C 113.12 109.68 112.47 110.49 112.57 111.39 C 112.66 112.29 113.47 112.94 114.37 112.84 Z M 115.38 112.74 L 116.36 112.64 C 117.26 112.54 117.91 111.73 117.82 110.82 C 117.72 109.92 116.91 109.27 116.00 109.36 L 115.02 109.47 C 114.12 109.57 113.47 110.38 113.56 111.28 C 113.66 112.19 114.47 112.84 115.38 112.74 Z M 116.36 112.65 L 117.35 112.54 C 118.26 112.44 118.92 111.62 118.82 110.71 C 118.71 109.80 117.90 109.14 116.99 109.24 L 116.00 109.35 C 115.09 109.45 114.43 110.27 114.53 111.18 C 114.63 112.09 115.45 112.75 116.36 112.65 Z M 117.36 112.54 L 118.38 112.42 C 119.29 112.32 119.94 111.49 119.84 110.57 C 119.73 109.66 118.90 109.01 117.99 109.12 L 116.97 109.24 C 116.06 109.34 115.41 110.17 115.51 111.09 C 115.62 112.00 116.45 112.65 117.36 112.54 Z M 118.40 112.43 L 119.38 112.30 C 120.30 112.18 120.95 111.34 120.83 110.43 C 120.71 109.51 119.87 108.86 118.95 108.98 L 117.97 109.11 C 117.05 109.23 116.40 110.07 116.52 110.99 C 116.64 111.90 117.48 112.55 118.40 112.43 Z M 119.40 112.31 L 120.39 112.17 C 121.31 112.04 121.95 111.19 121.82 110.27 C 121.69 109.35 120.84 108.70 119.92 108.83 L 118.93 108.97 C 118.01 109.10 117.37 109.96 117.50 110.88 C 117.63 111.80 118.48 112.44 119.40 112.31 Z M 120.40 112.18 L 121.40 112.03 C 122.33 111.89 122.96 111.03 122.83 110.10 C 122.69 109.18 121.83 108.54 120.90 108.68 L 119.90 108.83 C 118.98 108.97 118.34 109.83 118.48 110.75 C 118.61 111.68 119.48 112.32 120.40 112.18 Z M 121.41 112.04 L 122.40 111.88 C 123.32 111.74 123.96 110.87 123.82 109.94 C 123.67 109.01 122.81 108.38 121.88 108.52 L 120.89 108.67 C 119.96 108.82 119.33 109.68 119.47 110.61 C 119.61 111.54 120.48 112.18 121.41 112.04 Z M 122.40 111.89 L 123.38 111.74 C 124.31 111.59 124.95 110.72 124.80 109.78 C 124.66 108.85 123.78 108.21 122.85 108.36 L 121.87 108.51 C 120.94 108.66 120.30 109.53 120.45 110.47 C 120.59 111.40 121.47 112.04 122.40 111.89 Z M 123.38 111.74 L 124.37 111.59 C 125.31 111.44 125.95 110.56 125.80 109.62 C 125.65 108.69 124.77 108.05 123.84 108.20 L 122.85 108.35 C 121.91 108.50 121.27 109.38 121.42 110.32 C 121.57 111.25 122.44 111.89 123.38 111.74 Z M 124.38 111.59 L 125.37 111.44 C 126.31 111.29 126.95 110.41 126.80 109.47 C 126.66 108.53 125.77 107.88 124.83 108.03 L 123.84 108.19 C 122.90 108.34 122.26 109.22 122.40 110.16 C 122.55 111.10 123.44 111.74 124.38 111.59 Z M 125.37 111.44 L 126.32 111.29 C 127.27 111.14 127.91 110.26 127.76 109.31 C 127.61 108.37 126.73 107.73 125.78 107.88 L 124.83 108.03 C 123.89 108.17 123.24 109.06 123.39 110.00 C 123.54 110.95 124.43 111.59 125.37 111.44 Z M 126.33 111.30 L 127.30 111.14 C 128.25 110.99 128.90 110.10 128.74 109.15 C 128.59 108.21 127.70 107.56 126.76 107.71 L 125.78 107.87 C 124.83 108.02 124.19 108.91 124.34 109.86 C 124.49 110.81 125.38 111.45 126.33 111.30 Z M 127.31 111.15 L 128.33 110.98 C 129.28 110.83 129.92 109.93 129.77 108.98 C 129.61 108.03 128.71 107.39 127.76 107.54 L 126.75 107.71 C 125.80 107.86 125.15 108.76 125.31 109.71 C 125.47 110.66 126.36 111.30 127.31 111.15 Z M 128.34 110.99 L 129.34 110.82 C 130.29 110.66 130.93 109.75 130.77 108.80 C 130.61 107.85 129.70 107.21 128.75 107.37 L 127.75 107.54 C 126.80 107.70 126.16 108.60 126.32 109.55 C 126.48 110.51 127.38 111.15 128.34 110.99 Z M 129.35 110.82 L 130.32 110.65 C 131.28 110.49 131.92 109.58 131.75 108.62 C 131.58 107.67 130.67 107.03 129.72 107.19 L 128.74 107.36 C 127.79 107.53 127.15 108.44 127.32 109.39 C 127.48 110.35 128.39 110.99 129.35 110.82 Z M 130.33 110.66 L 131.32 110.48 C 132.28 110.31 132.92 109.40 132.75 108.44 C 132.58 107.48 131.67 106.84 130.71 107.01 L 129.71 107.19 C 128.76 107.36 128.12 108.27 128.29 109.23 C 128.46 110.19 129.37 110.83 130.33 110.66 Z M 131.33 110.48 L 132.33 110.30 C 133.28 110.13 133.92 109.21 133.75 108.25 C 133.58 107.30 132.66 106.66 131.70 106.83 L 130.70 107.01 C 129.74 107.18 129.11 108.10 129.28 109.06 C 129.45 110.02 130.37 110.66 131.33 110.48 Z M 132.33 110.31 L 133.32 110.13 C 134.28 109.96 134.92 109.04 134.74 108.07 C 134.57 107.11 133.65 106.47 132.69 106.65 L 131.70 106.83 C 130.74 107.00 130.10 107.92 130.27 108.88 C 130.45 109.84 131.37 110.48 132.33 110.31 Z M 133.32 110.13 L 134.30 109.95 C 135.26 109.78 135.90 108.86 135.73 107.89 C 135.55 106.93 134.63 106.29 133.67 106.47 L 132.69 106.64 C 131.72 106.82 131.08 107.74 131.26 108.70 C 131.43 109.67 132.35 110.31 133.32 110.13 Z M 134.30 109.96 L 135.28 109.78 C 136.24 109.61 136.88 108.68 136.71 107.72 C 136.53 106.75 135.61 106.11 134.64 106.29 L 133.67 106.46 C 132.70 106.64 132.06 107.56 132.24 108.53 C 132.41 109.49 133.33 110.13 134.30 109.96 Z M 135.27 109.78 L 136.26 109.60 C 137.22 109.43 137.86 108.51 137.69 107.54 C 137.52 106.58 136.59 105.93 135.63 106.11 L 134.64 106.29 C 133.68 106.46 133.04 107.38 133.21 108.35 C 133.39 109.31 134.31 109.96 135.27 109.78 Z M 136.26 109.61 L 137.24 109.43 C 138.21 109.26 138.85 108.33 138.68 107.37 C 138.50 106.40 137.58 105.76 136.61 105.93 L 135.63 106.11 C 134.66 106.28 134.02 107.20 134.19 108.17 C 134.37 109.14 135.29 109.78 136.26 109.61 Z M 137.24 109.43 L 138.21 109.26 C 139.18 109.09 139.82 108.16 139.65 107.19 C 139.48 106.23 138.55 105.58 137.58 105.75 L 136.61 105.93 C 135.64 106.10 135.00 107.02 135.17 107.99 C 135.34 108.96 136.27 109.61 137.24 109.43 Z M 138.21 109.26 L 139.19 109.09 C 140.16 108.92 140.81 107.99 140.64 107.02 C 140.47 106.05 139.54 105.41 138.57 105.58 L 137.59 105.75 C 136.62 105.92 135.97 106.85 136.14 107.82 C 136.31 108.79 137.24 109.44 138.21 109.26 Z M 139.19 109.09 L 140.19 108.92 C 141.16 108.75 141.81 107.82 141.64 106.85 C 141.47 105.88 140.54 105.23 139.57 105.40 L 138.57 105.57 C 137.60 105.74 136.95 106.67 137.12 107.64 C 137.29 108.61 138.22 109.26 139.19 109.09 Z M 140.18 108.92 L 141.18 108.75 C 142.15 108.58 142.81 107.66 142.64 106.68 C 142.47 105.71 141.55 105.06 140.57 105.22 L 139.57 105.40 C 138.60 105.56 137.95 106.49 138.11 107.46 C 138.28 108.44 139.21 109.09 140.18 108.92 Z M 141.17 108.75 L 142.16 108.59 C 143.14 108.42 143.80 107.50 143.63 106.52 C 143.47 105.54 142.54 104.89 141.57 105.05 L 140.58 105.22 C 139.60 105.39 138.94 106.31 139.11 107.29 C 139.27 108.26 140.20 108.92 141.17 108.75 Z M 142.16 108.59 L 143.15 108.42 C 144.12 108.26 144.78 107.34 144.62 106.36 C 144.46 105.38 143.54 104.72 142.56 104.89 L 141.57 105.05 C 140.59 105.21 139.93 106.14 140.10 107.11 C 140.26 108.09 141.18 108.75 142.16 108.59 Z M 143.14 108.43 L 144.13 108.27 C 145.10 108.11 145.77 107.19 145.61 106.21 C 145.45 105.23 144.53 104.56 143.55 104.72 L 142.56 104.88 C 141.59 105.04 140.92 105.96 141.08 106.94 C 141.24 107.92 142.16 108.59 143.14 108.43 Z M 144.12 108.27 L 145.10 108.11 C 146.08 107.96 146.75 107.04 146.60 106.06 C 146.44 105.08 145.52 104.41 144.54 104.56 L 143.56 104.72 C 142.58 104.87 141.91 105.80 142.06 106.78 C 142.22 107.76 143.14 108.43 144.12 108.27 Z M 145.10 108.12 L 146.09 107.97 C 147.07 107.81 147.75 106.90 147.59 105.91 C 147.44 104.93 146.52 104.26 145.54 104.41 L 144.55 104.56 C 143.57 104.71 142.89 105.63 143.04 106.61 C 143.20 107.59 144.11 108.27 145.10 108.12 Z M 146.08 107.97 L 147.08 107.82 C 148.06 107.67 148.74 106.76 148.59 105.77 C 148.44 104.79 147.53 104.11 146.54 104.26 L 145.55 104.41 C 144.57 104.55 143.89 105.47 144.04 106.45 C 144.18 107.44 145.10 108.11 146.08 107.97 Z M 147.07 107.82 L 148.06 107.68 C 149.04 107.53 149.73 106.62 149.58 105.64 C 149.44 104.65 148.53 103.97 147.54 104.11 L 146.55 104.26 C 145.57 104.40 144.89 105.31 145.03 106.30 C 145.17 107.28 146.08 107.96 147.07 107.82 Z M 148.05 107.68 L 149.04 107.54 C 150.02 107.40 150.71 106.49 150.57 105.50 C 150.43 104.52 149.52 103.83 148.53 103.97 L 147.55 104.11 C 146.56 104.25 145.88 105.16 146.02 106.15 C 146.16 107.13 147.07 107.82 148.05 107.68 Z M 149.03 107.54 L 150.01 107.41 C 151.00 107.27 151.69 106.36 151.55 105.38 C 151.42 104.39 150.51 103.70 149.52 103.84 L 148.54 103.97 C 147.55 104.11 146.86 105.02 147.00 106.00 C 147.14 106.99 148.04 107.68 149.03 107.54 Z M 150.01 107.41 L 150.99 107.28 C 151.98 107.14 152.67 106.23 152.53 105.25 C 152.40 104.26 151.49 103.57 150.51 103.70 L 149.53 103.83 C 148.54 103.97 147.85 104.87 147.98 105.86 C 148.11 106.85 149.02 107.54 150.01 107.41 Z M 150.99 107.28 L 151.97 107.15 C 152.96 107.02 153.65 106.11 153.52 105.12 C 153.39 104.13 152.48 103.44 151.49 103.57 L 150.51 103.70 C 149.52 103.83 148.83 104.74 148.96 105.73 C 149.09 106.71 150.00 107.41 150.99 107.28 Z M 151.97 107.15 L 152.97 107.02 C 153.95 106.89 154.65 105.98 154.52 104.99 C 154.39 104.00 153.48 103.31 152.49 103.44 L 151.50 103.57 C 150.51 103.70 149.81 104.61 149.94 105.59 C 150.07 106.58 150.98 107.28 151.97 107.15 Z M 152.97 107.02 L 153.97 106.88 C 154.96 106.75 155.66 105.84 155.52 104.86 C 155.39 103.87 154.49 103.17 153.50 103.30 L 152.49 103.44 C 151.50 103.57 150.81 104.47 150.94 105.46 C 151.07 106.45 151.98 107.15 152.97 107.02 Z M 153.97 106.88 L 154.97 106.75 C 155.96 106.62 156.66 105.71 156.52 104.72 C 156.39 103.73 155.48 103.04 154.50 103.17 L 153.50 103.30 C 152.51 103.43 151.81 104.34 151.94 105.33 C 152.08 106.32 152.98 107.01 153.97 106.88 Z M 154.97 106.75 L 155.97 106.62 C 156.96 106.49 157.66 105.58 157.53 104.59 C 157.40 103.60 156.49 102.91 155.50 103.04 L 154.50 103.17 C 153.51 103.30 152.81 104.21 152.94 105.20 C 153.07 106.18 153.98 106.88 154.97 106.75 Z M 155.97 106.62 L 156.96 106.49 C 157.95 106.36 158.65 105.46 158.53 104.47 C 158.40 103.48 157.49 102.78 156.50 102.91 L 155.51 103.04 C 154.52 103.16 153.82 104.07 153.95 105.06 C 154.07 106.05 154.98 106.75 155.97 106.62 Z M 156.96 106.49 L 157.93 106.37 C 158.92 106.25 159.62 105.35 159.50 104.36 C 159.38 103.37 158.47 102.66 157.48 102.79 L 156.51 102.91 C 155.52 103.03 154.82 103.93 154.94 104.92 C 155.06 105.91 155.97 106.61 156.96 106.49 Z M 157.91 106.37 L 158.94 106.25 C 159.93 106.14 160.64 105.24 160.52 104.25 C 160.41 103.26 159.51 102.55 158.52 102.67 L 157.50 102.79 C 156.51 102.90 155.80 103.80 155.91 104.79 C 156.03 105.78 156.92 106.49 157.91 106.37 Z M 158.92 106.25 L 159.92 106.14 C 160.91 106.04 161.63 105.15 161.52 104.16 C 161.41 103.17 160.53 102.45 159.54 102.56 L 158.54 102.67 C 157.55 102.78 156.83 103.66 156.94 104.65 C 157.05 105.64 157.94 106.36 158.92 106.25 Z M 159.91 106.14 L 160.89 106.04 C 161.88 105.94 162.60 105.06 162.50 104.07 C 162.40 103.09 161.52 102.37 160.53 102.47 L 159.55 102.56 C 158.56 102.66 157.84 103.54 157.94 104.53 C 158.04 105.52 158.92 106.24 159.91 106.14 Z M 160.88 106.04 L 161.85 105.95 C 162.83 105.86 163.56 104.98 163.47 104.00 C 163.37 103.01 162.50 102.28 161.51 102.38 L 160.54 102.47 C 159.55 102.56 158.83 103.44 158.92 104.42 C 159.01 105.41 159.89 106.13 160.88 106.04 Z M 161.84 105.95 L 162.83 105.86 C 163.81 105.77 164.54 104.90 164.45 103.92 C 164.37 102.93 163.50 102.20 162.51 102.29 L 161.52 102.38 C 160.54 102.47 159.81 103.34 159.90 104.32 C 159.98 105.31 160.85 106.03 161.84 105.95 Z M 162.82 105.86 L 163.82 105.77 C 164.80 105.69 165.53 104.83 165.45 103.84 C 165.37 102.86 164.50 102.13 163.52 102.21 L 162.52 102.29 C 161.54 102.38 160.81 103.24 160.89 104.22 C 160.97 105.21 161.84 105.94 162.82 105.86 Z M 163.81 105.77 L 164.81 105.69 C 165.79 105.61 166.52 104.76 166.45 103.77 C 166.37 102.79 165.51 102.06 164.53 102.14 L 163.53 102.21 C 162.55 102.29 161.81 103.15 161.89 104.13 C 161.97 105.11 162.83 105.85 163.81 105.77 Z M 164.80 105.69 L 165.80 105.62 C 166.78 105.54 167.51 104.69 167.44 103.71 C 167.37 102.73 166.52 101.99 165.54 102.07 L 164.54 102.14 C 163.56 102.21 162.82 103.06 162.89 104.04 C 162.97 105.02 163.82 105.76 164.80 105.69 Z M 165.79 105.61 L 166.80 105.54 C 167.77 105.48 168.51 104.63 168.45 103.65 C 168.38 102.67 167.53 101.93 166.55 102.00 L 165.55 102.07 C 164.57 102.14 163.83 102.98 163.90 103.96 C 163.96 104.94 164.81 105.68 165.79 105.61 Z M 166.79 105.54 L 167.79 105.48 C 168.77 105.41 169.51 104.57 169.45 103.59 C 169.38 102.62 168.54 101.88 167.56 101.94 L 166.56 102.00 C 165.58 102.07 164.84 102.91 164.91 103.89 C 164.97 104.86 165.81 105.60 166.79 105.54 Z M 167.79 105.47 L 168.78 105.41 C 169.76 105.35 170.50 104.51 170.44 103.54 C 170.37 102.56 169.54 101.82 168.56 101.88 L 167.57 101.94 C 166.59 102.00 165.85 102.84 165.91 103.82 C 165.97 104.79 166.81 105.53 167.79 105.47 Z M 168.78 105.41 L 169.77 105.35 C 170.74 105.29 171.48 104.45 171.42 103.48 C 171.36 102.50 170.53 101.76 169.55 101.82 L 168.56 101.88 C 167.59 101.94 166.85 102.78 166.91 103.75 C 166.97 104.73 167.81 105.47 168.78 105.41 Z M 169.77 105.34 L 170.78 105.28 C 171.75 105.22 172.49 104.38 172.43 103.41 C 172.37 102.44 171.54 101.70 170.57 101.76 L 169.55 101.83 C 168.58 101.89 167.85 102.72 167.91 103.69 C 167.97 104.66 168.80 105.40 169.77 105.34 Z M 170.78 105.27 L 171.78 105.21 C 172.75 105.16 173.49 104.32 173.43 103.36 C 173.37 102.39 172.54 101.65 171.57 101.71 L 170.57 101.77 C 169.60 101.83 168.86 102.66 168.92 103.63 C 168.98 104.60 169.81 105.33 170.78 105.27 Z M 171.77 105.21 L 172.76 105.15 C 173.73 105.10 174.47 104.27 174.41 103.30 C 174.36 102.34 173.53 101.60 172.56 101.66 L 171.57 101.71 C 170.61 101.77 169.87 102.60 169.92 103.56 C 169.98 104.53 170.81 105.27 171.77 105.21 Z M 172.75 105.15 L 173.74 105.10 C 174.71 105.05 175.45 104.22 175.40 103.26 C 175.35 102.30 174.52 101.56 173.56 101.61 L 172.57 101.66 C 171.61 101.71 170.87 102.53 170.92 103.50 C 170.97 104.46 171.79 105.20 172.75 105.15 Z M 173.74 105.09 L 174.73 105.04 C 175.69 105.00 176.43 104.18 176.39 103.22 C 176.34 102.26 175.52 101.52 174.56 101.56 L 173.57 101.61 C 172.61 101.66 171.87 102.48 171.91 103.44 C 171.96 104.40 172.78 105.14 173.74 105.09 Z M 174.73 105.04 L 175.73 104.99 C 176.68 104.95 177.42 104.13 177.38 103.17 C 177.33 102.22 176.52 101.48 175.56 101.52 L 174.57 101.57 C 173.61 101.61 172.87 102.43 172.91 103.39 C 172.96 104.35 173.77 105.09 174.73 105.04 Z M 175.73 104.99 L 176.73 104.94 C 177.69 104.89 178.43 104.08 178.38 103.12 C 178.33 102.17 177.52 101.43 176.56 101.48 L 175.56 101.53 C 174.60 101.57 173.86 102.39 173.91 103.34 C 173.96 104.30 174.77 105.04 175.73 104.99 Z M 176.74 104.93 L 177.76 104.88 C 178.71 104.83 179.44 104.01 179.39 103.06 C 179.34 102.11 178.52 101.38 177.57 101.43 L 176.55 101.48 C 175.60 101.53 174.87 102.35 174.92 103.30 C 174.97 104.25 175.79 104.98 176.74 104.93 Z M 177.76 104.87 L 178.78 104.82 C 179.73 104.76 180.45 103.95 180.40 103.00 C 180.35 102.05 179.53 101.32 178.58 101.38 L 177.57 101.43 C 176.62 101.49 175.89 102.30 175.95 103.25 C 176.00 104.20 176.81 104.93 177.76 104.87 Z M 178.77 104.81 L 179.77 104.76 C 180.71 104.70 181.44 103.90 181.39 102.95 C 181.34 102.00 180.53 101.28 179.58 101.33 L 178.59 101.38 C 177.64 101.43 176.91 102.24 176.97 103.19 C 177.02 104.14 177.83 104.86 178.77 104.81 Z M 179.75 104.75 L 180.75 104.70 C 181.69 104.66 182.42 103.86 182.37 102.91 C 182.33 101.97 181.53 101.24 180.58 101.29 L 179.59 101.33 C 178.65 101.38 177.92 102.18 177.96 103.12 C 178.01 104.07 178.81 104.80 179.75 104.75 Z M 180.73 104.70 L 181.76 104.66 C 182.70 104.62 183.43 103.83 183.40 102.89 C 183.36 101.95 182.57 101.22 181.63 101.25 L 180.60 101.29 C 179.66 101.33 178.93 102.12 178.96 103.06 C 179.00 104.00 179.79 104.73 180.73 104.70 Z M 181.74 104.65 L 182.72 104.63 C 183.66 104.60 184.40 103.82 184.37 102.88 C 184.35 101.94 183.56 101.20 182.63 101.23 L 181.65 101.26 C 180.71 101.28 179.97 102.06 179.99 103.00 C 180.02 103.94 180.80 104.68 181.74 104.65 Z M 182.70 104.62 L 183.67 104.60 C 184.60 104.59 185.35 103.82 185.33 102.88 C 185.32 101.95 184.55 101.20 183.61 101.22 L 182.64 101.24 C 181.71 101.25 180.96 102.02 180.98 102.96 C 181.00 103.89 181.77 104.64 182.70 104.62 Z M 183.66 104.60 L 184.65 104.59 C 185.58 104.58 186.33 103.82 186.32 102.89 C 186.32 101.96 185.55 101.21 184.62 101.22 L 183.63 101.23 C 182.69 101.23 181.95 101.99 181.95 102.93 C 181.96 103.86 182.72 104.61 183.66 104.60 Z M 184.64 104.58 L 185.64 104.58 C 186.57 104.58 187.32 103.82 187.32 102.89 C 187.31 101.97 186.56 101.22 185.63 101.22 L 184.63 101.22 C 183.71 101.23 182.96 101.98 182.96 102.91 C 182.96 103.84 183.71 104.58 184.64 104.58 Z M 185.64 104.57 L 186.64 104.57 C 187.57 104.57 188.31 103.82 188.31 102.90 C 188.31 101.98 187.57 101.23 186.64 101.23 L 185.64 101.23 C 184.71 101.23 183.96 101.98 183.96 102.90 C 183.97 103.82 184.71 104.57 185.64 104.57 Z M 186.64 104.56 L 187.65 104.56 C 188.57 104.56 189.31 103.82 189.31 102.90 C 189.31 101.98 188.57 101.23 187.65 101.23 L 186.64 101.23 C 185.72 101.23 184.98 101.98 184.98 102.90 C 184.98 103.82 185.72 104.56 186.64 104.56 Z M 187.65 104.56 L 188.65 104.56 C 189.57 104.56 190.31 103.82 190.31 102.90 C 190.31 101.98 189.57 101.24 188.65 101.24 L 187.65 101.24 C 186.73 101.24 185.99 101.98 185.99 102.90 C 185.99 103.82 186.73 104.56 187.65 104.56 Z M 188.65 104.55 L 189.65 104.55 C 190.56 104.55 191.30 103.81 191.30 102.90 C 191.30 101.99 190.56 101.25 189.65 101.25 L 188.65 101.25 C 187.74 101.25 187.00 101.99 187.00 102.90 C 187.00 103.81 187.74 104.55 188.65 104.55 Z M 189.65 104.54 L 190.68 104.55 C 191.58 104.55 192.32 103.81 192.32 102.90 C 192.32 101.99 191.59 101.26 190.68 101.26 L 189.65 101.25 C 188.74 101.25 188.00 101.99 188.00 102.90 C 188.00 103.81 188.74 104.54 189.65 104.54 Z M 190.67 104.54 L 191.66 104.54 C 192.57 104.55 193.31 103.82 193.31 102.91 C 193.31 102.01 192.59 101.27 191.68 101.27 L 190.69 101.26 C 189.78 101.26 189.04 101.99 189.04 102.89 C 189.03 103.80 189.76 104.53 190.67 104.54 Z M 191.65 104.54 L 192.63 104.55 C 193.53 104.56 194.27 103.84 194.28 102.94 C 194.30 102.04 193.58 101.30 192.67 101.29 L 191.69 101.27 C 190.79 101.26 190.05 101.98 190.04 102.88 C 190.03 103.78 190.75 104.52 191.65 104.54 Z M 192.60 104.54 L 193.61 104.57 C 194.50 104.60 195.25 103.90 195.28 103.00 C 195.31 102.10 194.60 101.35 193.70 101.32 L 192.70 101.29 C 191.80 101.27 191.05 101.97 191.03 102.87 C 191.00 103.77 191.70 104.52 192.60 104.54 Z M 193.56 104.57 L 194.55 104.62 C 195.44 104.67 196.21 103.99 196.26 103.09 C 196.31 102.20 195.62 101.44 194.73 101.39 L 193.74 101.33 C 192.85 101.28 192.09 101.97 192.04 102.86 C 191.99 103.75 192.67 104.52 193.56 104.57 Z M 194.50 104.61 L 195.52 104.70 C 196.41 104.78 197.19 104.12 197.27 103.23 C 197.35 102.35 196.69 101.56 195.80 101.49 L 194.78 101.40 C 193.89 101.32 193.11 101.98 193.03 102.86 C 192.96 103.75 193.61 104.53 194.50 104.61 Z M 195.48 104.69 L 196.49 104.81 C 197.37 104.91 198.17 104.28 198.27 103.39 C 198.37 102.51 197.74 101.71 196.85 101.61 L 195.85 101.49 C 194.96 101.39 194.16 102.03 194.06 102.91 C 193.96 103.79 194.60 104.59 195.48 104.69 Z M 196.45 104.80 L 197.44 104.94 C 198.32 105.06 199.13 104.44 199.25 103.56 C 199.37 102.68 198.75 101.87 197.87 101.75 L 196.89 101.62 C 196.01 101.50 195.20 102.11 195.08 102.99 C 194.96 103.87 195.57 104.68 196.45 104.80 Z M 197.40 104.93 L 198.40 105.09 C 199.28 105.23 200.10 104.64 200.24 103.76 C 200.38 102.88 199.79 102.06 198.91 101.92 L 197.91 101.76 C 197.03 101.62 196.21 102.21 196.07 103.09 C 195.93 103.96 196.52 104.79 197.40 104.93 Z M 198.35 105.08 L 199.25 105.26 C 200.12 105.43 200.96 104.86 201.13 103.99 C 201.30 103.12 200.73 102.27 199.86 102.10 L 198.96 101.93 C 198.09 101.76 197.25 102.33 197.08 103.20 C 196.91 104.07 197.48 104.91 198.35 105.08 Z M 199.22 105.25 L 200.16 105.45 C 201.02 105.64 201.88 105.09 202.07 104.22 C 202.25 103.36 201.70 102.50 200.84 102.32 L 199.89 102.11 C 199.03 101.92 198.17 102.47 197.99 103.34 C 197.80 104.21 198.35 105.06 199.22 105.25 Z M 200.17 105.45 L 201.14 105.65 C 202.00 105.83 202.85 105.28 203.03 104.41 C 203.21 103.54 202.65 102.69 201.79 102.51 L 200.82 102.31 C 199.96 102.13 199.11 102.69 198.93 103.56 C 198.75 104.43 199.31 105.27 200.17 105.45 Z M 201.17 105.66 L 202.07 105.83 C 202.94 105.99 203.78 105.42 203.94 104.55 C 204.11 103.68 203.53 102.84 202.66 102.68 L 201.76 102.51 C 200.89 102.35 200.05 102.92 199.89 103.79 C 199.72 104.66 200.30 105.50 201.17 105.66 Z M 202.11 105.83 L 203.17 106.01 C 204.04 106.15 204.86 105.56 205.01 104.69 C 205.15 103.81 204.56 102.99 203.69 102.85 L 202.63 102.67 C 201.76 102.53 200.93 103.12 200.79 103.99 C 200.65 104.87 201.24 105.69 202.11 105.83 Z M 203.20 106.01 L 204.27 106.16 C 205.15 106.29 205.95 105.68 206.08 104.80 C 206.20 103.93 205.59 103.12 204.72 102.99 L 203.65 102.84 C 202.77 102.72 201.96 103.33 201.84 104.20 C 201.72 105.08 202.33 105.89 203.20 106.01 Z M 204.30 106.16 L 205.31 106.29 C 206.18 106.39 206.98 105.77 207.09 104.89 C 207.19 104.02 206.57 103.22 205.69 103.11 L 204.69 102.99 C 203.81 102.88 203.01 103.51 202.91 104.38 C 202.80 105.26 203.42 106.06 204.30 106.16 Z M 205.33 106.29 L 206.35 106.40 C 207.23 106.49 208.01 105.86 208.11 104.98 C 208.20 104.10 207.57 103.32 206.69 103.22 L 205.67 103.11 C 204.79 103.02 204.01 103.65 203.91 104.53 C 203.82 105.41 204.45 106.19 205.33 106.29 Z M 206.37 106.40 L 207.35 106.49 C 208.23 106.58 209.01 105.94 209.09 105.06 C 209.18 104.18 208.54 103.40 207.66 103.32 L 206.67 103.22 C 205.80 103.14 205.02 103.78 204.93 104.66 C 204.85 105.53 205.49 106.31 206.37 106.40 Z M 207.37 106.49 L 208.43 106.58 C 209.31 106.66 210.08 106.01 210.15 105.13 C 210.22 104.25 209.57 103.48 208.70 103.41 L 207.64 103.32 C 206.76 103.24 205.99 103.89 205.92 104.77 C 205.85 105.65 206.50 106.42 207.37 106.49 Z M 208.45 106.58 L 209.46 106.65 C 210.34 106.71 211.10 106.05 211.16 105.17 C 211.22 104.30 210.55 103.54 209.68 103.48 L 208.67 103.41 C 207.79 103.35 207.04 104.01 206.98 104.89 C 206.92 105.76 207.58 106.52 208.45 106.58 Z M 209.49 106.65 L 210.43 106.69 C 211.31 106.73 212.05 106.06 212.09 105.18 C 212.13 104.31 211.46 103.56 210.58 103.52 L 209.65 103.48 C 208.77 103.44 208.03 104.11 207.99 104.99 C 207.94 105.86 208.62 106.61 209.49 106.65 Z M 210.47 106.69 L 211.49 106.72 C 212.36 106.74 213.09 106.05 213.11 105.18 C 213.14 104.30 212.45 103.58 211.57 103.55 L 210.55 103.53 C 209.68 103.50 208.95 104.19 208.92 105.07 C 208.90 105.94 209.59 106.67 210.47 106.69 Z M 211.52 106.71 L 212.54 106.72 C 213.41 106.73 214.13 106.03 214.14 105.16 C 214.15 104.29 213.45 103.57 212.57 103.57 L 211.55 103.56 C 210.67 103.55 209.96 104.25 209.95 105.12 C 209.94 105.99 210.64 106.71 211.52 106.71 Z M 212.56 106.72 L 213.50 106.72 C 214.37 106.72 215.07 106.02 215.07 105.15 C 215.07 104.28 214.37 103.57 213.50 103.57 L 212.56 103.57 C 211.69 103.57 210.98 104.27 210.98 105.14 C 210.98 106.01 211.69 106.72 212.56 106.72 Z M 213.50 106.72 L 214.51 106.72 C 215.38 106.72 216.08 106.01 216.08 105.15 C 216.08 104.28 215.38 103.57 214.51 103.57 L 213.50 103.57 C 212.63 103.57 211.93 104.28 211.93 105.15 C 211.93 106.01 212.63 106.72 213.50 106.72 Z M 214.51 106.72 L 215.47 106.72 C 216.33 106.72 217.04 106.01 217.04 105.15 C 217.04 104.28 216.33 103.58 215.47 103.58 L 214.51 103.58 C 213.64 103.58 212.94 104.28 212.94 105.15 C 212.94 106.01 213.64 106.72 214.51 106.72 Z M 215.47 106.71 L 216.47 106.71 C 217.34 106.71 218.04 106.01 218.04 105.15 C 218.04 104.28 217.34 103.58 216.47 103.58 L 215.47 103.58 C 214.60 103.58 213.90 104.28 213.90 105.15 C 213.90 106.01 214.60 106.71 215.47 106.71 Z M 216.47 106.71 L 217.48 106.71 C 218.34 106.71 219.04 106.01 219.04 105.15 C 219.04 104.28 218.34 103.58 217.48 103.58 L 216.47 103.58 C 215.61 103.58 214.91 104.28 214.91 105.15 C 214.91 106.01 215.61 106.71 216.47 106.71 Z M 217.46 106.71 L 218.44 106.72 C 219.30 106.73 220.01 106.04 220.02 105.17 C 220.03 104.31 219.33 103.60 218.47 103.59 L 217.49 103.58 C 216.63 103.57 215.92 104.26 215.91 105.13 C 215.90 105.99 216.60 106.70 217.46 106.71 Z M 218.38 106.72 L 219.42 106.77 C 220.29 106.81 221.02 106.14 221.06 105.28 C 221.10 104.41 220.43 103.68 219.57 103.64 L 218.53 103.59 C 217.66 103.55 216.93 104.22 216.89 105.08 C 216.85 105.95 217.52 106.68 218.38 106.72 Z M 219.28 106.76 L 220.32 106.90 C 221.18 107.02 221.97 106.42 222.09 105.56 C 222.21 104.70 221.61 103.91 220.75 103.79 L 219.71 103.65 C 218.85 103.53 218.06 104.13 217.94 104.99 C 217.82 105.85 218.42 106.64 219.28 106.76 Z M 219.88 106.78 L 220.70 107.15 C 221.49 107.51 222.42 107.16 222.79 106.37 C 223.15 105.58 222.80 104.65 222.01 104.29 L 221.19 103.92 C 220.40 103.56 219.47 103.90 219.11 104.69 C 218.74 105.49 219.09 106.42 219.88 106.78 Z M 219.94 106.43 L 220.34 107.23 C 220.73 108.01 221.68 108.33 222.46 107.94 C 223.24 107.55 223.56 106.60 223.17 105.82 L 222.77 105.01 C 222.38 104.23 221.43 103.92 220.65 104.31 C 219.87 104.70 219.55 105.64 219.94 106.43 Z M 220.17 106.68 L 220.27 107.74 C 220.36 108.61 221.13 109.25 222.01 109.17 C 222.88 109.08 223.52 108.31 223.44 107.43 L 223.34 106.37 C 223.25 105.50 222.48 104.86 221.60 104.94 C 220.73 105.03 220.09 105.80 220.17 106.68 Z M 220.26 107.62 L 220.28 108.62 C 220.30 109.50 221.02 110.20 221.91 110.19 C 222.79 110.17 223.49 109.44 223.47 108.56 L 223.45 107.55 C 223.44 106.67 222.71 105.97 221.82 105.99 C 220.94 106.01 220.24 106.73 220.26 107.62 Z M 220.27 108.55 L 220.25 109.58 C 220.23 110.47 220.93 111.20 221.81 111.22 C 222.70 111.24 223.43 110.54 223.45 109.66 L 223.48 108.63 C 223.50 107.74 222.80 107.01 221.91 106.99 C 221.03 106.97 220.29 107.67 220.27 108.55 Z M 220.25 109.50 L 220.18 110.49 C 220.11 111.37 220.78 112.14 221.66 112.21 C 222.55 112.27 223.32 111.60 223.38 110.72 L 223.45 109.74 C 223.52 108.85 222.85 108.08 221.97 108.02 C 221.08 107.95 220.31 108.62 220.25 109.50 Z M 220.18 110.40 L 220.06 111.36 C 219.95 112.24 220.58 113.05 221.46 113.16 C 222.34 113.27 223.15 112.64 223.26 111.76 L 223.38 110.80 C 223.49 109.92 222.86 109.11 221.98 109.00 C 221.10 108.89 220.29 109.52 220.18 110.40 Z M 220.06 111.31 L 219.90 112.34 C 219.77 113.22 220.37 114.05 221.25 114.18 C 222.13 114.32 222.96 113.72 223.10 112.84 L 223.26 111.81 C 223.39 110.93 222.79 110.10 221.91 109.96 C 221.03 109.82 220.20 110.43 220.06 111.31 Z M 219.90 112.33 L 219.74 113.34 C 219.59 114.22 220.19 115.05 221.07 115.20 C 221.96 115.34 222.79 114.74 222.93 113.86 L 223.10 112.85 C 223.24 111.97 222.64 111.13 221.76 110.99 C 220.88 110.84 220.05 111.44 219.90 112.33 Z M 219.73 113.34 L 219.56 114.36 C 219.42 115.25 220.02 116.08 220.91 116.23 C 221.80 116.37 222.63 115.77 222.77 114.88 L 222.94 113.86 C 223.08 112.97 222.48 112.14 221.60 111.99 C 220.71 111.85 219.87 112.45 219.73 113.34 Z M 219.56 114.37 L 219.41 115.33 C 219.27 116.22 219.88 117.06 220.77 117.19 C 221.66 117.33 222.50 116.72 222.63 115.83 L 222.78 114.87 C 222.92 113.98 222.31 113.15 221.42 113.01 C 220.53 112.87 219.69 113.48 219.56 114.37 Z M 219.40 115.37 L 219.27 116.37 C 219.15 117.26 219.79 118.08 220.68 118.20 C 221.58 118.32 222.40 117.69 222.51 116.79 L 222.64 115.79 C 222.76 114.90 222.13 114.08 221.23 113.96 C 220.34 113.84 219.52 114.47 219.40 115.37 Z M 219.26 116.42 L 219.17 117.39 C 219.08 118.29 219.74 119.09 220.65 119.17 C 221.55 119.26 222.35 118.60 222.43 117.70 L 222.52 116.73 C 222.61 115.83 221.95 115.03 221.05 114.95 C 220.15 114.86 219.35 115.52 219.26 116.42 Z M 219.15 117.41 L 219.08 118.36 C 219.00 119.27 219.68 120.07 220.60 120.14 C 221.51 120.21 222.30 119.53 222.37 118.62 L 222.45 117.67 C 222.52 116.76 221.84 115.96 220.93 115.89 C 220.02 115.82 219.22 116.50 219.15 117.41 Z M 219.05 118.37 L 218.98 119.41 C 218.91 120.34 219.61 121.14 220.53 121.20 C 221.46 121.27 222.26 120.57 222.33 119.65 L 222.40 118.61 C 222.47 117.69 221.77 116.88 220.84 116.82 C 219.92 116.75 219.11 117.45 219.05 118.37 Z M 218.95 119.42 L 218.89 120.45 C 218.83 121.39 219.55 122.20 220.49 122.26 C 221.43 122.31 222.23 121.60 222.29 120.66 L 222.35 119.63 C 222.41 118.69 221.70 117.88 220.76 117.83 C 219.82 117.77 219.01 118.48 218.95 119.42 Z M 218.87 120.47 L 218.82 121.47 C 218.78 122.42 219.51 123.22 220.46 123.27 C 221.41 123.31 222.22 122.58 222.26 121.63 L 222.31 120.64 C 222.35 119.69 221.62 118.88 220.67 118.84 C 219.72 118.79 218.92 119.53 218.87 120.47 Z M 218.81 121.50 L 218.78 122.48 C 218.76 123.44 219.51 124.23 220.46 124.26 C 221.42 124.29 222.22 123.54 222.24 122.58 L 222.27 121.60 C 222.30 120.65 221.55 119.85 220.59 119.82 C 219.64 119.79 218.84 120.55 218.81 121.50 Z M 218.77 122.51 L 218.76 123.44 C 218.75 124.40 219.52 125.19 220.48 125.21 C 221.44 125.22 222.23 124.45 222.24 123.49 L 222.26 122.56 C 222.27 121.60 221.50 120.80 220.54 120.79 C 219.58 120.78 218.79 121.55 218.77 122.51 Z M 218.75 123.45 L 218.74 124.45 C 218.73 125.42 219.51 126.21 220.48 126.21 C 221.45 126.22 222.24 125.44 222.25 124.48 L 222.25 123.48 C 222.26 122.51 221.48 121.72 220.51 121.71 C 219.55 121.70 218.76 122.48 218.75 123.45 Z M 218.73 124.45 L 218.72 125.51 C 218.71 126.48 219.49 127.28 220.47 127.29 C 221.44 127.30 222.24 126.52 222.25 125.54 L 222.26 124.48 C 222.27 123.50 221.49 122.71 220.51 122.70 C 219.54 122.69 218.74 123.47 218.73 124.45 Z M 218.71 125.50 L 218.70 126.42 C 218.68 127.40 219.46 128.20 220.44 128.22 C 221.42 128.23 222.23 127.45 222.24 126.47 L 222.26 125.55 C 222.27 124.57 221.49 123.77 220.51 123.75 C 219.53 123.74 218.73 124.52 218.71 125.50 Z M 218.69 126.41 L 218.67 127.40 C 218.66 128.38 219.44 129.19 220.42 129.21 C 221.40 129.23 222.21 128.45 222.23 127.46 L 222.25 126.48 C 222.27 125.50 221.48 124.69 220.50 124.67 C 219.52 124.65 218.71 125.43 218.69 126.41 Z M 218.67 127.40 L 218.65 128.45 C 218.63 129.44 219.41 130.25 220.40 130.27 C 221.38 130.29 222.20 129.51 222.22 128.52 L 222.24 127.47 C 222.26 126.48 221.47 125.67 220.49 125.65 C 219.50 125.63 218.69 126.41 218.67 127.40 Z M 218.64 128.45 L 218.62 129.47 C 218.60 130.46 219.39 131.27 220.38 131.29 C 221.37 131.31 222.19 130.52 222.20 129.53 L 222.22 128.52 C 222.24 127.53 221.45 126.72 220.47 126.70 C 219.48 126.68 218.66 127.47 218.64 128.45 Z M 218.62 129.47 L 218.60 130.45 C 218.58 131.44 219.37 132.26 220.37 132.28 C 221.36 132.29 222.18 131.50 222.19 130.51 L 222.21 129.53 C 222.23 128.54 221.44 127.72 220.44 127.71 C 219.45 127.69 218.63 128.48 218.62 129.47 Z M 218.59 130.45 L 218.58 131.46 C 218.56 132.46 219.36 133.27 220.35 133.29 C 221.35 133.30 222.17 132.51 222.18 131.51 L 222.20 130.51 C 222.21 129.51 221.42 128.69 220.42 128.68 C 219.43 128.66 218.61 129.46 218.59 130.45 Z M 218.57 131.46 L 218.56 132.49 C 218.55 133.49 219.35 134.31 220.35 134.32 C 221.34 134.33 222.16 133.53 222.18 132.54 L 222.19 131.51 C 222.20 130.51 221.40 129.69 220.40 129.68 C 219.41 129.67 218.59 130.47 218.57 131.46 Z M 218.56 132.50 L 218.55 133.51 C 218.54 134.51 219.34 135.33 220.34 135.34 C 221.34 135.35 222.16 134.55 222.17 133.55 L 222.18 132.53 C 222.19 131.53 221.39 130.71 220.39 130.70 C 219.38 130.69 218.57 131.50 218.56 132.50 Z M 218.54 133.52 L 218.54 134.51 C 218.53 135.51 219.34 136.33 220.34 136.33 C 221.35 136.34 222.16 135.53 222.17 134.53 L 222.18 133.54 C 222.18 132.54 221.37 131.72 220.37 131.71 C 219.37 131.71 218.55 132.52 218.54 133.52 Z M 218.53 134.51 L 218.53 135.50 C 218.52 136.51 219.34 137.32 220.34 137.33 C 221.35 137.33 222.17 136.52 222.17 135.52 L 222.17 134.53 C 222.18 133.52 221.37 132.70 220.36 132.70 C 219.36 132.69 218.54 133.50 218.53 134.51 Z M 218.52 135.50 L 218.52 136.50 C 218.52 137.51 219.33 138.33 220.34 138.33 C 221.34 138.34 222.16 137.53 222.17 136.52 L 222.17 135.52 C 222.18 134.51 221.36 133.69 220.36 133.68 C 219.35 133.68 218.53 134.49 218.52 135.50 Z M 218.52 136.50 L 218.51 137.52 C 218.50 138.53 219.32 139.35 220.33 139.36 C 221.34 139.36 222.16 138.55 222.17 137.54 L 222.17 136.52 C 222.18 135.51 221.37 134.69 220.36 134.68 C 219.35 134.67 218.52 135.49 218.52 136.50 Z M 218.51 137.51 L 218.50 138.48 C 218.49 139.49 219.30 140.31 220.31 140.32 C 221.32 140.33 222.15 139.52 222.16 138.51 L 222.17 137.55 C 222.18 136.53 221.37 135.71 220.35 135.70 C 219.34 135.69 218.52 136.50 218.51 137.51 Z M 218.49 138.47 L 218.48 139.44 C 218.47 140.46 219.28 141.29 220.30 141.30 C 221.31 141.31 222.14 140.50 222.15 139.49 L 222.16 138.51 C 222.18 137.50 221.36 136.67 220.35 136.66 C 219.34 136.65 218.51 137.46 218.49 138.47 Z M 218.48 139.44 L 218.47 140.44 C 218.45 141.45 219.27 142.29 220.28 142.30 C 221.30 142.32 222.13 141.50 222.14 140.49 L 222.16 139.49 C 222.17 138.48 221.36 137.64 220.34 137.63 C 219.33 137.61 218.49 138.43 218.48 139.44 Z M 218.46 140.44 L 218.45 141.46 C 218.43 142.48 219.25 143.31 220.26 143.33 C 221.28 143.34 222.12 142.53 222.13 141.51 L 222.15 140.49 C 222.16 139.47 221.35 138.64 220.33 138.62 C 219.31 138.61 218.48 139.42 218.46 140.44 Z M 218.45 141.46 L 218.43 142.51 C 218.42 143.53 219.23 144.36 220.25 144.38 C 221.27 144.39 222.11 143.58 222.12 142.56 L 222.13 141.51 C 222.15 140.49 221.34 139.66 220.32 139.64 C 219.30 139.63 218.46 140.44 218.45 141.46 Z M 218.43 142.51 L 218.41 143.46 C 218.40 144.48 219.21 145.32 220.24 145.33 C 221.26 145.35 222.09 144.53 222.11 143.51 L 222.12 142.56 C 222.14 141.54 221.32 140.70 220.30 140.69 C 219.28 140.67 218.44 141.49 218.43 142.51 Z M 218.41 143.46 L 218.40 144.44 C 218.38 145.46 219.20 146.30 220.22 146.31 C 221.24 146.33 222.08 145.51 222.10 144.49 L 222.11 143.51 C 222.13 142.49 221.31 141.65 220.29 141.64 C 219.27 141.62 218.43 142.44 218.41 143.46 Z M 218.39 144.44 L 218.38 145.43 C 218.37 146.45 219.18 147.30 220.21 147.31 C 221.23 147.32 222.07 146.51 222.09 145.48 L 222.10 144.49 C 222.12 143.46 221.30 142.62 220.27 142.61 C 219.25 142.59 218.41 143.41 218.39 144.44 Z M 218.38 145.43 L 218.36 146.45 C 218.35 147.47 219.17 148.31 220.19 148.33 C 221.22 148.34 222.06 147.52 222.08 146.50 L 222.09 145.48 C 222.10 144.46 221.29 143.61 220.26 143.60 C 219.23 143.59 218.39 144.41 218.38 145.43 Z M 218.36 146.45 L 218.35 147.48 C 218.33 148.51 219.15 149.35 220.18 149.37 C 221.21 149.38 222.05 148.56 222.06 147.53 L 222.08 146.50 C 222.09 145.47 221.27 144.63 220.25 144.61 C 219.22 144.60 218.38 145.42 218.36 146.45 Z M 218.34 147.48 L 218.33 148.48 C 218.32 149.51 219.14 150.35 220.17 150.37 C 221.19 150.38 222.04 149.56 222.05 148.53 L 222.07 147.53 C 222.08 146.51 221.26 145.66 220.23 145.65 C 219.20 145.63 218.36 146.45 218.34 147.48 Z M 218.33 148.48 L 218.31 149.44 C 218.30 150.47 219.12 151.32 220.15 151.34 C 221.18 151.35 222.03 150.53 222.04 149.50 L 222.06 148.53 C 222.07 147.50 221.25 146.66 220.22 146.64 C 219.19 146.63 218.34 147.45 218.33 148.48 Z M 218.31 149.44 L 218.30 150.43 C 218.28 151.46 219.11 152.31 220.14 152.32 C 221.17 152.34 222.02 151.51 222.03 150.48 L 222.05 149.50 C 222.06 148.47 221.24 147.62 220.20 147.60 C 219.17 147.59 218.32 148.41 218.31 149.44 Z M 218.29 150.43 L 218.28 151.43 C 218.26 152.46 219.09 153.31 220.12 153.32 C 221.16 153.34 222.01 152.51 222.02 151.48 L 222.03 150.48 C 222.05 149.45 221.22 148.60 220.19 148.58 C 219.16 148.57 218.31 149.39 218.29 150.43 Z M 218.28 151.43 L 218.26 152.44 C 218.25 153.48 219.08 154.33 220.11 154.34 C 221.15 154.36 222.00 153.53 222.01 152.49 L 222.02 151.48 C 222.04 150.44 221.21 149.59 220.18 149.58 C 219.14 149.56 218.29 150.39 218.28 151.43 Z M 218.26 152.44 L 218.25 153.48 C 218.23 154.52 219.06 155.37 220.10 155.38 C 221.13 155.39 221.99 154.57 222.00 153.53 L 222.01 152.49 C 222.03 151.46 221.20 150.61 220.16 150.59 C 219.12 150.58 218.27 151.41 218.26 152.44 Z M 218.24 153.48 L 218.23 154.51 C 218.22 155.55 219.05 156.40 220.09 156.42 C 221.12 156.43 221.98 155.60 221.99 154.56 L 222.00 153.53 C 222.02 152.49 221.18 151.64 220.15 151.62 C 219.11 151.61 218.26 152.44 218.24 153.48 Z M 218.23 154.51 L 218.22 155.53 C 218.20 156.57 219.03 157.43 220.07 157.44 C 221.11 157.45 221.97 156.62 221.98 155.58 L 221.99 154.56 C 222.00 153.52 221.17 152.67 220.13 152.65 C 219.09 152.64 218.24 153.47 218.23 154.51 Z M 218.21 155.53 L 218.20 156.56 C 218.19 157.60 219.02 158.45 220.06 158.46 C 221.10 158.48 221.96 157.64 221.97 156.60 L 221.98 155.58 C 221.99 154.54 221.16 153.68 220.12 153.67 C 219.08 153.66 218.23 154.49 218.21 155.53 Z M 218.20 156.56 L 218.19 157.58 C 218.17 158.62 219.01 159.47 220.05 159.48 C 221.09 159.50 221.95 158.66 221.96 157.62 L 221.97 156.60 C 221.98 155.56 221.15 154.71 220.11 154.69 C 219.07 154.68 218.21 155.52 218.20 156.56 Z M 218.19 157.58 L 218.17 158.58 C 218.16 159.62 219.00 160.48 220.04 160.49 C 221.08 160.50 221.94 159.67 221.95 158.62 L 221.96 157.62 C 221.97 156.58 221.14 155.72 220.09 155.71 C 219.05 155.70 218.20 156.53 218.19 157.58 Z M 218.17 158.58 L 218.16 159.56 C 218.15 160.60 218.98 161.46 220.03 161.47 C 221.07 161.48 221.93 160.65 221.94 159.60 L 221.95 158.62 C 221.96 157.58 221.13 156.72 220.08 156.71 C 219.04 156.70 218.18 157.53 218.17 158.58 Z M 218.16 159.56 L 218.15 160.51 C 218.13 161.56 218.97 162.42 220.01 162.43 C 221.06 162.44 221.92 161.61 221.93 160.56 L 221.94 159.60 C 221.95 158.56 221.12 157.70 220.07 157.69 C 219.03 157.68 218.17 158.51 218.16 159.56 Z M 218.14 160.51 L 218.13 161.60 C 218.12 162.64 218.95 163.50 220.00 163.51 C 221.05 163.53 221.90 162.69 221.92 161.64 L 221.93 160.56 C 221.94 159.52 221.11 158.66 220.06 158.64 C 219.02 158.63 218.16 159.47 218.14 160.51 Z M 218.13 161.59 L 218.12 162.63 C 218.10 163.67 218.94 164.53 219.98 164.55 C 221.03 164.56 221.89 163.72 221.90 162.68 L 221.92 161.64 C 221.93 160.60 221.10 159.74 220.05 159.72 C 219.00 159.71 218.14 160.55 218.13 161.59 Z M 218.11 162.63 L 218.10 163.62 C 218.09 164.67 218.92 165.53 219.97 165.54 C 221.02 165.56 221.88 164.72 221.89 163.67 L 221.91 162.68 C 221.92 161.63 221.08 160.77 220.04 160.76 C 218.99 160.74 218.13 161.58 218.11 162.63 Z M 218.10 163.62 L 218.09 164.58 C 218.07 165.63 218.91 166.49 219.95 166.50 C 221.00 166.52 221.86 165.68 221.88 164.63 L 221.89 163.67 C 221.91 162.62 221.07 161.76 220.02 161.75 C 218.98 161.73 218.11 162.57 218.10 163.62 Z M 218.08 164.58 L 218.07 165.52 C 218.05 166.57 218.89 167.43 219.94 167.45 C 220.99 167.46 221.85 166.63 221.87 165.58 L 221.88 164.64 C 221.90 163.59 221.06 162.72 220.01 162.71 C 218.96 162.69 218.10 163.53 218.08 164.58 Z M 218.07 165.52 L 218.05 166.51 C 218.04 167.55 218.88 168.42 219.93 168.43 C 220.97 168.45 221.84 167.61 221.85 166.56 L 221.87 165.58 C 221.88 164.53 221.05 163.67 220.00 163.65 C 218.95 163.63 218.08 164.47 218.07 165.52 Z M 218.05 166.50 L 218.04 167.50 C 218.02 168.55 218.86 169.42 219.91 169.43 C 220.96 169.45 221.82 168.61 221.84 167.56 L 221.85 166.56 C 221.87 165.51 221.03 164.65 219.98 164.63 C 218.93 164.62 218.07 165.45 218.05 166.50 Z M 218.04 167.50 L 218.02 168.50 C 218.00 169.55 218.84 170.41 219.89 170.43 C 220.94 170.45 221.80 169.61 221.82 168.56 L 221.84 167.57 C 221.86 166.52 221.02 165.65 219.97 165.63 C 218.92 165.61 218.05 166.45 218.04 167.50 Z M 218.02 168.49 L 218.00 169.49 C 217.98 170.54 218.82 171.41 219.87 171.43 C 220.92 171.45 221.78 170.61 221.80 169.56 L 221.82 168.57 C 221.84 167.51 221.01 166.65 219.96 166.63 C 218.91 166.61 218.04 167.44 218.02 168.49 Z M 218.00 169.49 L 217.98 170.49 C 217.95 171.54 218.79 172.41 219.84 172.43 C 220.89 172.45 221.76 171.62 221.78 170.57 L 221.81 169.57 C 221.83 168.52 220.99 167.65 219.94 167.62 C 218.89 167.60 218.02 168.43 218.00 169.49 Z M 217.98 170.48 L 217.95 171.47 C 217.93 172.52 218.76 173.39 219.81 173.42 C 220.86 173.44 221.73 172.61 221.76 171.56 L 221.78 170.58 C 221.81 169.52 220.98 168.65 219.93 168.62 C 218.88 168.60 218.00 169.43 217.98 170.48 Z M 217.95 171.46 L 217.92 172.45 C 217.90 173.50 218.73 174.38 219.78 174.40 C 220.83 174.43 221.71 173.60 221.73 172.55 L 221.76 171.56 C 221.79 170.51 220.96 169.64 219.91 169.61 C 218.86 169.58 217.98 170.41 217.95 171.46 Z M 217.92 172.44 L 217.89 173.44 C 217.86 174.49 218.69 175.37 219.74 175.40 C 220.80 175.43 221.68 174.60 221.71 173.55 L 221.73 172.55 C 221.77 171.50 220.94 170.62 219.88 170.59 C 218.83 170.56 217.95 171.39 217.92 172.44 Z M 217.89 173.44 L 217.86 174.45 C 217.83 175.50 218.66 176.38 219.71 176.41 C 220.77 176.44 221.64 175.61 221.68 174.56 L 221.71 173.55 C 221.74 172.50 220.91 171.62 219.86 171.59 C 218.80 171.56 217.93 172.39 217.89 173.44 Z M 217.86 174.45 L 217.83 175.46 C 217.80 176.52 218.63 177.40 219.68 177.43 C 220.74 177.46 221.61 176.63 221.65 175.58 L 221.68 174.56 C 221.71 173.51 220.88 172.63 219.83 172.60 C 218.77 172.56 217.89 173.39 217.86 174.45 Z M 217.83 175.46 L 217.80 176.46 C 217.77 177.52 218.60 178.40 219.65 178.43 C 220.71 178.46 221.59 177.63 221.62 176.58 L 221.65 175.58 C 221.68 174.52 220.85 173.64 219.80 173.61 C 218.74 173.58 217.86 174.41 217.83 175.46 Z M 217.80 176.47 L 217.77 177.46 C 217.74 178.52 218.57 179.39 219.63 179.42 C 220.68 179.45 221.56 178.63 221.59 177.57 L 221.62 176.58 C 221.65 175.52 220.82 174.64 219.77 174.61 C 218.71 174.58 217.83 175.41 217.80 176.47 Z M 217.77 177.46 L 217.74 178.46 C 217.71 179.52 218.55 180.40 219.60 180.43 C 220.65 180.46 221.53 179.63 221.56 178.57 L 221.59 177.57 C 221.62 176.52 220.79 175.64 219.74 175.61 C 218.68 175.58 217.80 176.41 217.77 177.46 Z M 217.74 178.46 L 217.72 179.47 C 217.69 180.52 218.52 181.40 219.57 181.43 C 220.63 181.46 221.50 180.63 221.53 179.58 L 221.56 178.57 C 221.59 177.52 220.76 176.64 219.71 176.61 C 218.65 176.58 217.77 177.41 217.74 178.46 Z M 217.72 179.47 L 217.69 180.47 C 217.66 181.53 218.49 182.40 219.54 182.43 C 220.60 182.46 221.48 181.63 221.51 180.58 L 221.53 179.57 C 221.56 178.52 220.73 177.64 219.68 177.61 C 218.62 177.58 217.75 178.41 217.72 179.47 Z M 217.69 180.47 L 217.66 181.48 C 217.63 182.53 218.46 183.41 219.52 183.44 C 220.57 183.47 221.45 182.64 221.48 181.58 L 221.51 180.58 C 221.54 179.52 220.70 178.65 219.65 178.62 C 218.60 178.59 217.72 179.42 217.69 180.47 Z M 217.66 181.47 L 217.63 182.48 C 217.60 183.53 218.43 184.41 219.49 184.44 C 220.54 184.47 221.42 183.64 221.45 182.59 L 221.48 181.58 C 221.51 180.53 220.68 179.65 219.62 179.62 C 218.57 179.59 217.69 180.42 217.66 181.47 Z M 217.63 182.48 L 217.60 183.48 C 217.57 184.53 218.40 185.41 219.46 185.44 C 220.51 185.47 221.39 184.64 221.42 183.59 L 221.45 182.59 C 221.48 181.54 220.65 180.66 219.60 180.63 C 218.54 180.59 217.66 181.42 217.63 182.48 Z M 217.60 183.48 L 217.57 184.47 C 217.54 185.53 218.37 186.41 219.42 186.44 C 220.48 186.47 221.36 185.64 221.39 184.59 L 221.42 183.59 C 221.45 182.54 220.62 181.66 219.57 181.63 C 218.52 181.59 217.64 182.42 217.60 183.48 Z M 217.57 184.47 L 217.54 185.47 C 217.51 186.52 218.33 187.40 219.39 187.44 C 220.44 187.47 221.32 186.64 221.36 185.59 L 221.39 184.59 C 221.42 183.54 220.60 182.66 219.54 182.62 C 218.49 182.59 217.61 183.42 217.57 184.47 Z M 217.54 185.46 L 217.50 186.46 C 217.47 187.52 218.29 188.40 219.34 188.44 C 220.40 188.47 221.28 187.65 221.32 186.60 L 221.36 185.60 C 221.39 184.54 220.57 183.66 219.52 183.62 C 218.46 183.58 217.58 184.41 217.54 185.46 Z M 217.51 186.46 L 217.47 187.51 C 217.42 188.56 218.24 189.44 219.30 189.49 C 220.35 189.53 221.24 188.71 221.28 187.65 L 221.32 186.60 C 221.36 185.55 220.54 184.66 219.49 184.62 C 218.43 184.58 217.55 185.40 217.51 186.46 Z M 217.47 187.50 L 217.42 188.53 C 217.38 189.59 218.20 190.47 219.25 190.52 C 220.30 190.56 221.19 189.75 221.23 188.69 L 221.28 187.66 C 221.32 186.61 220.50 185.72 219.45 185.68 C 218.40 185.63 217.51 186.45 217.47 187.50 Z M 217.43 188.53 L 217.38 189.54 C 217.33 190.59 218.15 191.48 219.20 191.52 C 220.25 191.57 221.14 190.76 221.18 189.71 L 221.23 188.70 C 221.28 187.65 220.46 186.76 219.41 186.71 C 218.36 186.67 217.47 187.48 217.43 188.53 Z M 217.38 189.53 L 217.34 190.50 C 217.29 191.55 218.09 192.44 219.14 192.49 C 220.19 192.54 221.08 191.73 221.13 190.68 L 221.18 189.71 C 221.23 188.67 220.42 187.77 219.37 187.72 C 218.33 187.67 217.43 188.48 217.38 189.53 Z M 217.34 190.49 L 217.29 191.44 C 217.23 192.48 218.04 193.38 219.09 193.43 C 220.13 193.49 221.03 192.68 221.08 191.64 L 221.13 190.69 C 221.19 189.64 220.38 188.75 219.33 188.69 C 218.29 188.64 217.39 189.44 217.34 190.49 Z M 217.29 191.43 L 217.23 192.50 C 217.17 193.54 217.97 194.44 219.02 194.50 C 220.07 194.56 220.96 193.76 221.02 192.71 L 221.08 191.64 C 221.14 190.60 220.34 189.70 219.29 189.64 C 218.25 189.58 217.35 190.38 217.29 191.43 Z M 217.23 192.49 L 217.18 193.49 C 217.12 194.54 217.91 195.43 218.96 195.49 C 220.00 195.55 220.90 194.76 220.96 193.71 L 221.02 192.72 C 221.08 191.67 220.28 190.77 219.24 190.71 C 218.19 190.65 217.30 191.45 217.23 192.49 Z M 217.18 193.49 L 217.12 194.45 C 217.06 195.49 217.86 196.39 218.90 196.45 C 219.95 196.51 220.84 195.71 220.90 194.67 L 220.96 193.71 C 221.02 192.67 220.22 191.77 219.18 191.71 C 218.13 191.65 217.24 192.45 217.18 193.49 Z M 217.12 194.46 L 217.07 195.40 C 217.02 196.45 217.82 197.34 218.86 197.39 C 219.90 197.45 220.79 196.65 220.85 195.61 L 220.90 194.66 C 220.96 193.62 220.16 192.73 219.11 192.67 C 218.07 192.61 217.18 193.41 217.12 194.46 Z M 217.08 195.42 L 217.03 196.40 C 216.98 197.44 217.78 198.32 218.82 198.37 C 219.87 198.42 220.75 197.62 220.80 196.58 L 220.85 195.60 C 220.90 194.56 220.09 193.67 219.05 193.62 C 218.01 193.57 217.13 194.37 217.08 195.42 Z M 217.03 196.40 L 216.99 197.40 C 216.94 198.44 217.75 199.32 218.78 199.36 C 219.82 199.41 220.70 198.61 220.75 197.57 L 220.80 196.57 C 220.84 195.53 220.04 194.65 219.00 194.60 C 217.96 194.56 217.08 195.36 217.03 196.40 Z M 216.99 197.40 L 216.95 198.41 C 216.90 199.44 217.70 200.32 218.74 200.37 C 219.78 200.42 220.66 199.61 220.70 198.58 L 220.75 197.57 C 220.80 196.53 219.99 195.65 218.95 195.60 C 217.92 195.55 217.04 196.36 216.99 197.40 Z M 216.95 198.40 L 216.90 199.41 C 216.85 200.44 217.65 201.32 218.68 201.37 C 219.72 201.42 220.60 200.62 220.65 199.59 L 220.70 198.58 C 220.75 197.55 219.95 196.67 218.91 196.62 C 217.88 196.57 217.00 197.37 216.95 198.40 Z M 216.90 199.40 L 216.85 200.39 C 216.80 201.42 217.59 202.30 218.63 202.35 C 219.66 202.41 220.54 201.61 220.59 200.58 L 220.65 199.59 C 220.70 198.56 219.90 197.68 218.87 197.63 C 217.84 197.57 216.96 198.37 216.90 199.40 Z M 216.86 200.38 L 216.81 201.38 C 216.75 202.41 217.54 203.29 218.57 203.35 C 219.60 203.40 220.48 202.61 220.54 201.58 L 220.59 200.58 C 220.64 199.55 219.85 198.67 218.82 198.62 C 217.79 198.56 216.91 199.35 216.86 200.38 Z M 216.81 201.39 L 216.76 202.40 C 216.70 203.43 217.50 204.30 218.52 204.35 C 219.55 204.41 220.43 203.62 220.48 202.59 L 220.53 201.58 C 220.59 200.55 219.79 199.67 218.77 199.62 C 217.74 199.57 216.86 200.36 216.81 201.39 Z M 216.76 202.40 L 216.71 203.41 C 216.67 204.44 217.46 205.31 218.48 205.36 C 219.51 205.41 220.38 204.62 220.43 203.59 L 220.48 202.58 C 220.53 201.55 219.73 200.68 218.71 200.64 C 217.68 200.59 216.81 201.38 216.76 202.40 Z M 216.72 203.42 L 216.68 204.43 C 216.63 205.45 217.43 206.31 218.45 206.36 C 219.47 206.40 220.34 205.61 220.38 204.58 L 220.42 203.58 C 220.47 202.56 219.67 201.69 218.65 201.65 C 217.63 201.61 216.76 202.40 216.72 203.42 Z M 216.68 204.43 L 216.64 205.43 C 216.60 206.45 217.39 207.31 218.42 207.35 C 219.44 207.40 220.30 206.60 220.34 205.58 L 220.38 204.58 C 220.42 203.56 219.62 202.70 218.60 202.66 C 217.58 202.62 216.72 203.41 216.68 204.43 Z M 216.65 205.44 L 216.61 206.43 C 216.57 207.45 217.36 208.31 218.38 208.35 C 219.40 208.39 220.26 207.59 220.29 206.57 L 220.33 205.58 C 220.37 204.56 219.58 203.70 218.56 203.66 C 217.54 203.62 216.68 204.42 216.65 205.44 Z M 216.61 206.43 L 216.57 207.43 C 216.54 208.45 217.33 209.30 218.34 209.34 C 219.36 209.38 220.21 208.59 220.25 207.57 L 220.29 206.57 C 220.33 205.56 219.54 204.70 218.52 204.67 C 217.51 204.63 216.65 205.42 216.61 206.43 Z M 216.58 207.43 L 216.54 208.44 C 216.50 209.45 217.29 210.31 218.30 210.35 C 219.31 210.39 220.17 209.60 220.21 208.59 L 220.25 207.57 C 220.29 206.56 219.50 205.71 218.48 205.67 C 217.47 205.63 216.62 206.42 216.58 207.43 Z M 216.55 208.44 L 216.51 209.44 C 216.47 210.45 217.25 211.30 218.26 211.34 C 219.27 211.38 220.12 210.60 220.16 209.59 L 220.20 208.59 C 220.24 207.58 219.45 206.73 218.45 206.69 C 217.44 206.65 216.59 207.43 216.55 208.44 Z M 216.52 209.44 L 216.48 210.44 C 216.44 211.44 217.22 212.29 218.22 212.33 C 219.23 212.37 220.07 211.59 220.11 210.58 L 220.15 209.59 C 220.19 208.58 219.41 207.74 218.41 207.70 C 217.40 207.66 216.56 208.44 216.52 209.44 Z M 216.48 210.44 L 216.44 211.44 C 216.40 212.44 217.18 213.29 218.18 213.33 C 219.18 213.37 220.03 212.59 220.07 211.59 L 220.11 210.58 C 220.15 209.58 219.37 208.74 218.37 208.70 C 217.37 208.66 216.52 209.44 216.48 210.44 Z M 216.45 211.44 L 216.41 212.50 C 216.37 213.50 217.15 214.34 218.14 214.38 C 219.14 214.42 219.98 213.64 220.02 212.64 L 220.06 211.58 C 220.10 210.59 219.32 209.75 218.32 209.71 C 217.33 209.67 216.49 210.45 216.45 211.44 Z M 216.42 212.51 L 216.38 213.53 C 216.35 214.52 217.12 215.35 218.11 215.39 C 219.11 215.42 219.94 214.65 219.97 213.66 L 220.01 212.64 C 220.05 211.65 219.27 210.81 218.28 210.78 C 217.29 210.74 216.45 211.52 216.42 212.51 Z M 216.39 213.54 L 216.36 214.49 C 216.33 215.47 217.11 216.30 218.09 216.33 C 219.08 216.36 219.91 215.58 219.94 214.60 L 219.97 213.65 C 220.00 212.66 219.22 211.83 218.23 211.80 C 217.24 211.77 216.42 212.55 216.39 213.54 Z M 216.37 214.50 L 216.35 215.53 C 216.32 216.51 217.10 217.33 218.09 217.35 C 219.07 217.37 219.89 216.59 219.91 215.61 L 219.93 214.58 C 219.95 213.60 219.17 212.78 218.19 212.76 C 217.20 212.74 216.39 213.52 216.37 214.50 Z M 216.35 215.55 L 216.34 216.56 C 216.33 217.54 217.11 218.34 218.09 218.35 C 219.07 218.37 219.87 217.58 219.89 216.60 L 219.90 215.59 C 219.91 214.61 219.13 213.81 218.15 213.80 C 217.17 213.79 216.37 214.57 216.35 215.55 Z M 216.35 216.56 L 216.34 217.48 C 216.33 218.46 217.11 219.25 218.08 219.26 C 219.06 219.28 219.85 218.50 219.87 217.52 L 219.88 216.60 C 219.89 215.63 219.11 214.83 218.13 214.82 C 217.16 214.81 216.36 215.59 216.35 216.56 Z M 216.35 217.47 L 216.33 218.48 C 216.31 219.44 217.08 220.24 218.05 220.26 C 219.02 220.28 219.82 219.51 219.84 218.55 L 219.86 217.54 C 219.87 216.57 219.11 215.77 218.14 215.75 C 217.17 215.73 216.37 216.50 216.35 217.47 Z M 216.34 218.47 L 216.32 219.46 C 216.30 220.43 217.06 221.22 218.02 221.25 C 218.98 221.27 219.78 220.51 219.80 219.54 L 219.83 218.55 C 219.85 217.59 219.09 216.79 218.12 216.77 C 217.16 216.75 216.36 217.51 216.34 218.47 Z M 216.33 219.48 L 216.31 220.47 C 216.30 221.43 217.06 222.22 218.02 222.23 C 218.97 222.25 219.76 221.48 219.78 220.53 L 219.79 219.53 C 219.81 218.57 219.04 217.79 218.09 217.77 C 217.13 217.76 216.34 218.52 216.33 219.48 Z M 216.32 220.48 L 216.31 221.48 C 216.31 222.43 217.07 223.21 218.02 223.22 C 218.97 223.23 219.75 222.46 219.76 221.51 L 219.77 220.51 C 219.77 219.56 219.01 218.79 218.06 218.78 C 217.11 218.77 216.33 219.53 216.32 220.48 Z M 216.33 221.47 L 216.31 222.46 C 216.29 223.41 217.05 224.18 217.99 224.20 C 218.94 224.21 219.72 223.46 219.73 222.52 L 219.75 221.52 C 219.76 220.58 219.01 219.80 218.06 219.79 C 217.12 219.77 216.34 220.52 216.33 221.47 Z M 216.32 222.44 L 216.29 223.44 C 216.27 224.38 217.01 225.16 217.94 225.19 C 218.88 225.21 219.66 224.47 219.69 223.53 L 219.72 222.54 C 219.74 221.60 219.01 220.82 218.07 220.79 C 217.13 220.76 216.35 221.50 216.32 222.44 Z M 216.30 223.43 L 216.27 224.43 C 216.24 225.36 216.97 226.14 217.90 226.18 C 218.83 226.21 219.61 225.48 219.64 224.55 L 219.68 223.55 C 219.71 222.61 218.98 221.83 218.05 221.80 C 217.12 221.77 216.34 222.50 216.30 223.43 Z M 216.28 224.42 L 216.24 225.41 C 216.20 226.34 216.92 227.12 217.85 227.16 C 218.78 227.19 219.56 226.47 219.60 225.54 L 219.64 224.55 C 219.67 223.63 218.95 222.84 218.02 222.81 C 217.09 222.77 216.31 223.49 216.28 224.42 Z M 216.24 225.40 L 216.19 226.41 C 216.15 227.34 216.87 228.12 217.80 228.17 C 218.72 228.21 219.51 227.49 219.55 226.56 L 219.60 225.55 C 219.64 224.63 218.92 223.84 217.99 223.80 C 217.07 223.76 216.28 224.47 216.24 225.40 Z M 216.20 226.40 L 216.14 227.41 C 216.09 228.34 216.80 229.13 217.73 229.18 C 218.65 229.23 219.44 228.52 219.49 227.59 L 219.55 226.58 C 219.60 225.65 218.89 224.86 217.96 224.81 C 217.04 224.76 216.25 225.47 216.20 226.40 Z M 216.14 227.40 L 216.08 228.40 C 216.03 229.33 216.73 230.12 217.65 230.18 C 218.58 230.24 219.38 229.53 219.43 228.61 L 219.49 227.61 C 219.55 226.68 218.85 225.89 217.92 225.83 C 217.00 225.77 216.20 226.48 216.14 227.40 Z M 216.08 228.39 L 216.01 229.41 C 215.95 230.33 216.65 231.13 217.57 231.19 C 218.50 231.26 219.30 230.56 219.36 229.64 L 219.43 228.62 C 219.49 227.69 218.80 226.89 217.87 226.83 C 216.95 226.77 216.15 227.47 216.08 228.39 Z M 216.02 229.38 L 215.93 230.37 C 215.86 231.29 216.55 232.10 217.47 232.18 C 218.39 232.25 219.20 231.57 219.28 230.64 L 219.36 229.66 C 219.43 228.73 218.75 227.93 217.82 227.85 C 216.90 227.77 216.09 228.46 216.02 229.38 Z M 215.94 230.33 L 215.83 231.31 C 215.74 232.23 216.40 233.05 217.32 233.15 C 218.25 233.25 219.07 232.58 219.17 231.66 L 219.27 230.68 C 219.37 229.76 218.70 228.94 217.78 228.84 C 216.86 228.74 216.04 229.41 215.94 230.33 Z M 215.84 231.26 L 215.71 232.25 C 215.58 233.16 216.23 234.01 217.14 234.13 C 218.06 234.26 218.91 233.61 219.03 232.69 L 219.16 231.71 C 219.29 230.79 218.64 229.95 217.73 229.82 C 216.81 229.70 215.96 230.34 215.84 231.26 Z M 215.71 232.20 L 215.55 233.20 C 215.40 234.12 216.02 234.98 216.94 235.13 C 217.85 235.27 218.72 234.65 218.86 233.74 L 219.03 232.74 C 219.17 231.82 218.55 230.96 217.64 230.81 C 216.72 230.67 215.86 231.29 215.71 232.20 Z M 215.56 233.15 L 215.37 234.11 C 215.20 235.02 215.79 235.90 216.70 236.08 C 217.61 236.26 218.49 235.67 218.67 234.76 L 218.85 233.79 C 219.03 232.88 218.44 232.00 217.53 231.82 C 216.62 231.65 215.74 232.24 215.56 233.15 Z M 215.39 234.02 L 215.16 234.93 C 214.93 235.83 215.47 236.75 216.36 236.98 C 217.26 237.21 218.18 236.67 218.41 235.77 L 218.65 234.85 C 218.88 233.96 218.34 233.04 217.44 232.81 C 216.54 232.58 215.62 233.12 215.39 234.02 Z M 215.21 234.76 L 214.84 235.73 C 214.52 236.60 214.96 237.57 215.82 237.90 C 216.69 238.23 217.66 237.79 217.99 236.92 L 218.36 235.95 C 218.68 235.08 218.24 234.11 217.38 233.78 C 216.51 233.45 215.54 233.89 215.21 234.76 Z M 214.91 235.58 L 214.45 236.50 C 214.04 237.33 214.38 238.34 215.22 238.75 C 216.05 239.17 217.06 238.82 217.47 237.99 L 217.93 237.07 C 218.34 236.24 218.00 235.23 217.16 234.81 C 216.33 234.40 215.32 234.75 214.91 235.58 Z M 214.56 236.31 L 214.01 237.15 C 213.49 237.92 213.70 238.97 214.48 239.48 C 215.26 240.00 216.30 239.78 216.82 239.01 L 217.37 238.17 C 217.88 237.40 217.67 236.35 216.89 235.84 C 216.12 235.32 215.07 235.54 214.56 236.31 Z M 214.28 236.82 L 213.52 237.50 C 212.83 238.12 212.77 239.19 213.40 239.89 C 214.02 240.58 215.09 240.64 215.78 240.02 L 216.54 239.33 C 217.23 238.71 217.29 237.64 216.67 236.95 C 216.05 236.25 214.98 236.20 214.28 236.82 Z M 213.91 237.24 L 213.10 237.64 C 212.26 238.05 211.91 239.06 212.33 239.90 C 212.74 240.74 213.75 241.08 214.59 240.67 L 215.40 240.28 C 216.23 239.86 216.58 238.85 216.17 238.01 C 215.76 237.18 214.75 236.83 213.91 237.24 Z M 213.37 237.53 L 212.45 237.79 C 211.56 238.05 211.04 238.99 211.30 239.89 C 211.56 240.79 212.50 241.30 213.39 241.05 L 214.31 240.78 C 215.21 240.52 215.73 239.58 215.47 238.69 C 215.21 237.79 214.27 237.27 213.37 237.53 Z M 212.64 237.75 L 211.63 237.92 C 210.71 238.08 210.09 238.96 210.25 239.88 C 210.41 240.80 211.28 241.42 212.20 241.26 L 213.21 241.09 C 214.13 240.93 214.75 240.06 214.59 239.13 C 214.44 238.21 213.56 237.59 212.64 237.75 Z M 211.72 237.91 L 210.80 238.02 C 209.87 238.12 209.20 238.96 209.31 239.89 C 209.42 240.82 210.26 241.49 211.19 241.38 L 212.11 241.28 C 213.04 241.17 213.71 240.33 213.60 239.40 C 213.49 238.47 212.65 237.80 211.72 237.91 Z M 210.86 238.01 L 209.81 238.09 C 208.88 238.17 208.18 238.99 208.26 239.92 C 208.33 240.85 209.15 241.55 210.08 241.47 L 211.13 241.39 C 212.06 241.31 212.76 240.50 212.68 239.56 C 212.61 238.63 211.79 237.93 210.86 238.01 Z M 209.86 238.09 L 208.75 238.14 C 207.81 238.19 207.09 238.99 207.14 239.92 C 207.19 240.86 207.98 241.58 208.92 241.53 L 210.03 241.48 C 210.96 241.43 211.69 240.63 211.64 239.70 C 211.59 238.76 210.80 238.04 209.86 238.09 Z M 208.79 238.14 L 207.72 238.17 C 206.79 238.19 206.05 238.97 206.07 239.91 C 206.09 240.84 206.87 241.59 207.81 241.56 L 208.88 241.54 C 209.81 241.51 210.55 240.73 210.53 239.80 C 210.51 238.86 209.73 238.12 208.79 238.14 Z M 207.75 238.17 L 206.72 238.17 C 205.78 238.18 205.03 238.95 205.03 239.89 C 205.04 240.82 205.81 241.58 206.75 241.57 L 207.78 241.56 C 208.72 241.56 209.47 240.79 209.47 239.85 C 209.46 238.91 208.69 238.16 207.75 238.17 Z M 206.74 238.17 L 205.81 238.17 C 204.87 238.16 204.11 238.92 204.10 239.86 C 204.10 240.80 204.86 241.56 205.79 241.57 L 206.72 241.57 C 207.66 241.58 208.43 240.82 208.43 239.88 C 208.44 238.94 207.68 238.18 206.74 238.17 Z M 205.84 238.17 L 204.75 238.14 C 203.81 238.12 203.03 238.87 203.01 239.81 C 202.99 240.75 203.73 241.53 204.67 241.55 L 205.77 241.57 C 206.71 241.59 207.49 240.84 207.51 239.91 C 207.53 238.97 206.78 238.19 205.84 238.17 Z M 204.80 238.14 L 203.89 238.09 C 202.95 238.04 202.15 238.76 202.10 239.70 C 202.05 240.64 202.77 241.44 203.70 241.49 L 204.62 241.54 C 205.56 241.60 206.36 240.88 206.41 239.94 C 206.46 239.00 205.74 238.20 204.80 238.14 Z M 203.96 238.10 L 203.03 238.01 C 202.09 237.92 201.26 238.61 201.17 239.54 C 201.08 240.48 201.77 241.31 202.71 241.40 L 203.64 241.49 C 204.57 241.58 205.41 240.89 205.49 239.96 C 205.58 239.02 204.90 238.19 203.96 238.10 Z M 203.07 238.01 L 202.06 237.89 C 201.13 237.78 200.28 238.45 200.17 239.39 C 200.06 240.32 200.73 241.17 201.66 241.28 L 202.67 241.40 C 203.60 241.51 204.45 240.84 204.56 239.91 C 204.67 238.97 204.00 238.12 203.07 238.01 Z M 202.08 237.89 L 201.08 237.77 C 200.15 237.65 199.30 238.31 199.18 239.24 C 199.06 240.18 199.72 241.03 200.65 241.15 L 201.65 241.28 C 202.58 241.40 203.44 240.74 203.56 239.80 C 203.67 238.87 203.01 238.01 202.08 237.89 Z M 201.09 237.77 L 200.09 237.64 C 199.16 237.52 198.30 238.18 198.19 239.12 C 198.07 240.05 198.73 240.91 199.66 241.03 L 200.65 241.15 C 201.59 241.27 202.44 240.61 202.56 239.68 C 202.68 238.74 202.02 237.89 201.09 237.77 Z M 200.08 237.64 L 199.11 237.52 C 198.18 237.41 197.33 238.07 197.21 239.01 C 197.10 239.94 197.76 240.80 198.70 240.91 L 199.67 241.03 C 200.61 241.14 201.46 240.48 201.57 239.54 C 201.69 238.60 201.02 237.75 200.08 237.64 Z M 199.09 237.52 L 198.07 237.41 C 197.13 237.31 196.29 237.99 196.19 238.93 C 196.09 239.87 196.77 240.71 197.71 240.81 L 198.73 240.91 C 199.67 241.01 200.51 240.33 200.61 239.39 C 200.70 238.46 200.02 237.61 199.09 237.52 Z M 198.03 237.41 L 197.06 237.32 C 196.12 237.25 195.29 237.94 195.22 238.89 C 195.14 239.83 195.84 240.65 196.78 240.73 L 197.75 240.81 C 198.69 240.89 199.52 240.19 199.59 239.25 C 199.67 238.31 198.97 237.48 198.03 237.41 Z M 197.04 237.32 L 196.02 237.25 C 195.08 237.18 194.26 237.89 194.20 238.84 C 194.13 239.78 194.84 240.60 195.78 240.66 L 196.80 240.73 C 197.74 240.80 198.56 240.09 198.62 239.15 C 198.69 238.20 197.98 237.39 197.04 237.32 Z M 196.01 237.25 L 195.03 237.19 C 194.09 237.12 193.28 237.84 193.21 238.78 C 193.15 239.72 193.87 240.54 194.81 240.60 L 195.79 240.66 C 196.73 240.72 197.55 240.01 197.61 239.07 C 197.67 238.13 196.96 237.31 196.01 237.25 Z M 195.03 237.18 L 194.03 237.12 C 193.08 237.06 192.27 237.77 192.21 238.72 C 192.15 239.66 192.86 240.47 193.81 240.53 L 194.81 240.60 C 195.75 240.66 196.57 239.94 196.63 239.00 C 196.69 238.06 195.97 237.25 195.03 237.18 Z M 194.03 237.12 L 193.05 237.06 C 192.10 236.99 191.29 237.71 191.23 238.65 C 191.16 239.59 191.88 240.41 192.82 240.47 L 193.80 240.53 C 194.75 240.59 195.56 239.88 195.62 238.94 C 195.68 238.00 194.97 237.18 194.03 237.12 Z M 193.05 237.06 L 192.07 236.99 C 191.13 236.93 190.31 237.64 190.25 238.58 C 190.19 239.52 190.90 240.34 191.84 240.40 L 192.82 240.47 C 193.76 240.53 194.58 239.82 194.64 238.88 C 194.70 237.93 193.99 237.12 193.05 237.06 Z M 192.08 236.99 L 191.03 236.92 C 190.09 236.85 189.27 237.56 189.21 238.51 C 189.14 239.45 189.85 240.26 190.80 240.33 L 191.84 240.40 C 192.78 240.47 193.60 239.76 193.66 238.81 C 193.73 237.87 193.02 237.06 192.08 236.99 Z M 191.04 236.92 L 190.06 236.85 C 189.12 236.78 188.30 237.49 188.23 238.43 C 188.16 239.38 188.87 240.19 189.82 240.26 L 190.79 240.33 C 191.74 240.40 192.55 239.69 192.62 238.74 C 192.69 237.80 191.98 236.98 191.04 236.92 Z M 190.05 236.85 L 189.05 236.78 C 188.10 236.72 187.29 237.43 187.22 238.37 C 187.16 239.31 187.87 240.13 188.82 240.19 L 189.82 240.26 C 190.76 240.32 191.58 239.61 191.64 238.67 C 191.71 237.73 190.99 236.91 190.05 236.85 Z M 189.03 236.78 L 188.01 236.72 C 187.07 236.67 186.26 237.39 186.21 238.33 C 186.15 239.27 186.87 240.08 187.82 240.14 L 188.83 240.19 C 189.78 240.25 190.58 239.53 190.64 238.58 C 190.69 237.64 189.97 236.83 189.03 236.78 Z M 187.99 236.72 L 186.98 236.68 C 186.03 236.64 185.24 237.37 185.20 238.31 C 185.16 239.26 185.89 240.05 186.83 240.09 L 187.84 240.14 C 188.79 240.18 189.58 239.44 189.62 238.50 C 189.66 237.56 188.93 236.76 187.99 236.72 Z M 186.96 236.68 L 185.96 236.65 C 185.02 236.62 184.23 237.36 184.20 238.30 C 184.17 239.25 184.91 240.04 185.86 240.07 L 186.85 240.10 C 187.80 240.12 188.59 239.38 188.61 238.44 C 188.64 237.49 187.90 236.70 186.96 236.68 Z M 185.95 236.65 L 184.96 236.62 C 184.01 236.60 183.23 237.34 183.21 238.29 C 183.18 239.23 183.93 240.02 184.87 240.04 L 185.87 240.07 C 186.81 240.09 187.59 239.34 187.62 238.40 C 187.64 237.45 186.90 236.67 185.95 236.65 Z M 184.96 236.62 L 183.96 236.60 C 183.02 236.57 182.24 237.32 182.21 238.26 C 182.19 239.21 182.93 239.99 183.88 240.01 L 184.87 240.04 C 185.82 240.06 186.60 239.32 186.63 238.37 C 186.65 237.43 185.90 236.64 184.96 236.62 Z M 183.97 236.60 L 182.97 236.57 C 182.02 236.54 181.24 237.29 181.21 238.23 C 181.19 239.18 181.93 239.96 182.87 239.99 L 183.88 240.01 C 184.82 240.04 185.60 239.29 185.63 238.35 C 185.65 237.41 184.91 236.62 183.97 236.60 Z M 182.96 236.57 L 181.96 236.54 C 181.02 236.52 180.23 237.26 180.21 238.21 C 180.18 239.15 180.93 239.94 181.87 239.96 L 182.88 239.99 C 183.82 240.01 184.60 239.27 184.63 238.32 C 184.65 237.38 183.91 236.59 182.96 236.57 Z M 181.96 236.54 L 180.96 236.52 C 180.01 236.50 179.23 237.24 179.21 238.19 C 179.19 239.13 179.93 239.91 180.88 239.94 L 181.88 239.96 C 182.82 239.98 183.60 239.24 183.63 238.29 C 183.65 237.35 182.90 236.57 181.96 236.54 Z M 180.96 236.52 L 179.96 236.50 C 179.01 236.48 178.23 237.22 178.21 238.17 C 178.19 239.11 178.94 239.89 179.88 239.91 L 180.88 239.94 C 181.82 239.96 182.60 239.21 182.62 238.27 C 182.65 237.33 181.90 236.54 180.96 236.52 Z M 179.96 236.50 L 178.96 236.48 C 178.02 236.45 177.23 237.20 177.21 238.14 C 177.19 239.08 177.93 239.87 178.88 239.89 L 179.88 239.91 C 180.82 239.93 181.60 239.19 181.62 238.25 C 181.65 237.30 180.90 236.52 179.96 236.50 Z M 178.96 236.48 L 177.95 236.45 C 177.01 236.43 176.23 237.17 176.21 238.11 C 176.18 239.06 176.93 239.84 177.87 239.86 L 178.87 239.89 C 179.82 239.91 180.60 239.17 180.62 238.22 C 180.65 237.28 179.90 236.50 178.96 236.48 Z M 177.95 236.45 L 176.95 236.43 C 176.01 236.41 175.23 237.15 175.20 238.09 C 175.18 239.03 175.93 239.81 176.87 239.84 L 177.87 239.86 C 178.81 239.88 179.59 239.14 179.61 238.20 C 179.64 237.26 178.89 236.48 177.95 236.45 Z M 176.94 236.43 L 175.95 236.41 C 175.01 236.39 174.23 237.14 174.21 238.08 C 174.20 239.02 174.94 239.80 175.89 239.82 L 176.88 239.84 C 177.82 239.85 178.59 239.11 178.61 238.16 C 178.63 237.22 177.88 236.45 176.94 236.43 Z M 175.94 236.41 L 174.95 236.40 C 174.01 236.39 173.24 237.15 173.23 238.08 C 173.22 239.02 173.97 239.79 174.91 239.80 L 175.90 239.81 C 176.84 239.82 177.61 239.07 177.62 238.13 C 177.63 237.19 176.87 236.43 175.94 236.41 Z M 174.94 236.41 L 173.95 236.40 C 173.01 236.40 172.25 237.15 172.24 238.08 C 172.24 239.02 172.99 239.78 173.92 239.79 L 174.91 239.79 C 175.85 239.80 176.61 239.05 176.62 238.12 C 176.63 237.18 175.88 236.42 174.94 236.41 Z M 173.95 236.41 L 172.94 236.40 C 172.01 236.39 171.24 237.14 171.23 238.07 C 171.22 239.00 171.97 239.76 172.90 239.77 L 173.92 239.78 C 174.85 239.79 175.61 239.04 175.62 238.11 C 175.63 237.18 174.88 236.42 173.95 236.41 Z M 172.95 236.41 L 171.94 236.39 C 171.01 236.38 170.25 237.11 170.23 238.04 C 170.22 238.96 170.95 239.73 171.88 239.74 L 172.89 239.76 C 173.81 239.77 174.58 239.04 174.59 238.11 C 174.61 237.19 173.87 236.43 172.95 236.41 Z M 171.94 236.41 L 170.93 236.39 C 170.01 236.37 169.25 237.10 169.23 238.01 C 169.22 238.93 169.94 239.69 170.86 239.71 L 171.87 239.73 C 172.79 239.75 173.55 239.02 173.57 238.10 C 173.59 237.18 172.86 236.43 171.94 236.41 Z M 170.92 236.40 L 169.95 236.38 C 169.04 236.37 168.29 237.09 168.27 238.00 C 168.25 238.91 168.98 239.66 169.89 239.68 L 170.87 239.69 C 171.77 239.71 172.52 238.99 172.54 238.08 C 172.56 237.17 171.83 236.42 170.92 236.40 Z M 169.94 236.40 L 168.90 236.39 C 168.00 236.38 167.26 237.10 167.25 238.00 C 167.24 238.90 167.96 239.64 168.86 239.65 L 169.90 239.66 C 170.80 239.67 171.54 238.95 171.55 238.05 C 171.56 237.15 170.84 236.41 169.94 236.40 Z M 168.90 236.41 L 167.91 236.39 C 167.03 236.38 166.30 237.10 166.28 237.98 C 166.27 238.87 166.99 239.60 167.88 239.62 L 168.86 239.63 C 169.75 239.64 170.48 238.93 170.49 238.04 C 170.50 237.15 169.79 236.42 168.90 236.41 Z M 167.94 236.41 L 166.97 236.39 C 166.09 236.37 165.36 237.06 165.34 237.94 C 165.31 238.82 166.01 239.55 166.89 239.57 L 167.86 239.59 C 168.73 239.62 169.46 238.92 169.49 238.04 C 169.51 237.17 168.81 236.44 167.94 236.41 Z M 167.00 236.41 L 166.01 236.37 C 165.14 236.33 164.41 237.00 164.37 237.87 C 164.33 238.73 165.00 239.47 165.87 239.51 L 166.86 239.55 C 167.72 239.59 168.46 238.92 168.49 238.05 C 168.53 237.18 167.86 236.45 167.00 236.41 Z M 166.03 236.39 L 165.02 236.33 C 164.17 236.28 163.43 236.93 163.38 237.78 C 163.33 238.64 163.98 239.37 164.84 239.42 L 165.84 239.48 C 166.70 239.54 167.43 238.88 167.49 238.03 C 167.54 237.17 166.89 236.44 166.03 236.39 Z M 165.04 236.35 L 164.04 236.28 C 163.20 236.21 162.47 236.85 162.41 237.69 C 162.34 238.54 162.98 239.27 163.82 239.33 L 164.82 239.40 C 165.66 239.47 166.40 238.83 166.46 237.99 C 166.52 237.14 165.89 236.41 165.04 236.35 Z M 164.07 236.29 L 163.07 236.21 C 162.24 236.13 161.50 236.75 161.43 237.59 C 161.36 238.42 161.97 239.15 162.81 239.23 L 163.80 239.31 C 164.64 239.39 165.37 238.77 165.44 237.94 C 165.52 237.10 164.90 236.37 164.07 236.29 Z M 163.10 236.23 L 162.10 236.12 C 161.28 236.03 160.54 236.62 160.45 237.44 C 160.36 238.27 160.95 239.01 161.77 239.10 L 162.78 239.21 C 163.60 239.30 164.34 238.70 164.43 237.88 C 164.52 237.06 163.93 236.32 163.10 236.23 Z M 162.14 236.13 L 161.14 236.00 C 160.32 235.88 159.57 236.45 159.46 237.27 C 159.35 238.08 159.92 238.83 160.73 238.94 L 161.73 239.08 C 162.55 239.19 163.30 238.62 163.41 237.81 C 163.52 237.00 162.95 236.25 162.14 236.13 Z M 161.18 236.01 L 160.19 235.85 C 159.38 235.71 158.62 236.26 158.49 237.06 C 158.35 237.87 158.90 238.63 159.70 238.76 L 160.69 238.93 C 161.50 239.06 162.26 238.52 162.39 237.71 C 162.53 236.91 161.98 236.14 161.18 236.01 Z M 160.23 235.86 L 159.25 235.67 C 158.46 235.52 157.68 236.04 157.53 236.84 C 157.37 237.63 157.89 238.41 158.69 238.56 L 159.67 238.75 C 160.46 238.90 161.24 238.38 161.39 237.59 C 161.55 236.79 161.02 236.01 160.23 235.86 Z M 159.29 235.68 L 158.30 235.47 C 157.51 235.29 156.73 235.79 156.55 236.59 C 156.38 237.38 156.88 238.16 157.67 238.33 L 158.66 238.55 C 159.45 238.72 160.23 238.22 160.41 237.43 C 160.58 236.64 160.08 235.86 159.29 235.68 Z M 158.32 235.47 L 157.36 235.24 C 156.57 235.06 155.78 235.54 155.59 236.33 C 155.40 237.12 155.89 237.91 156.68 238.10 L 157.65 238.33 C 158.44 238.52 159.23 238.03 159.42 237.24 C 159.60 236.45 159.11 235.66 158.32 235.47 Z M 157.37 235.24 L 156.87 235.12 C 156.09 234.93 155.29 235.42 155.10 236.21 C 154.91 236.99 155.39 237.79 156.18 237.98 L 156.67 238.10 C 157.46 238.29 158.26 237.81 158.45 237.02 C 158.64 236.23 158.15 235.44 157.37 235.24 Z"
      fill="black"
      fill-rule="nonzero" /></svg>