<svg xmlns="http://www.w3.org/2000/svg" width="300" height="300" viewBox="0 0 300 300">
<path d="M 176.25 73.17 L 175.44 73.76 C 174.75 74.26 174.60 75.22 175.10 75.91 C 175.60 76.60 176.57 76.75 177.25 76.25 L 178.07 75.66 C 178.75 75.16 178.91 74.20 178.41 73.51 C 177.91 72.82 176.94 72.67 176.25 73.17 Z M 175.39 73.74 L 174.60 74.35 C 173.90 74.88 173.77 75.87 174.29 76.56 C 174.82 77.26 175.81 77.39 176.51 76.87 L 177.30 76.26 C 178.00 75.73 178.14 74.74 177.61 74.05 C 177.08 73.35 176.09 73.22 175.39 73.74 Z M 174.52 74.36 L 173.74 75.01 C 173.05 75.58 172.96 76.60 173.53 77.29 C 174.10 77.97 175.12 78.07 175.81 77.50 L 176.59 76.85 C 177.27 76.28 177.37 75.26 176.80 74.57 C 176.23 73.89 175.21 73.79 174.52 74.36 Z M 173.65 75.04 L 172.89 75.74 C 172.22 76.36 172.18 77.40 172.80 78.07 C 173.42 78.74 174.47 78.79 175.14 78.17 L 175.90 77.47 C 176.57 76.85 176.61 75.80 175.99 75.13 C 175.37 74.46 174.32 74.42 173.65 75.04 Z M 172.83 75.77 L 172.13 76.46 C 171.48 77.12 171.48 78.18 172.13 78.84 C 172.79 79.49 173.85 79.49 174.51 78.84 L 175.20 78.14 C 175.86 77.49 175.86 76.42 175.20 75.77 C 174.55 75.11 173.48 75.11 172.83 75.77 Z M 172.08 76.47 L 171.39 77.21 C 170.74 77.89 170.77 78.97 171.45 79.62 C 172.13 80.27 173.21 80.24 173.86 79.56 L 174.56 78.82 C 175.21 78.14 175.18 77.06 174.50 76.41 C 173.81 75.76 172.73 75.79 172.08 76.47 Z M 171.35 77.22 L 170.69 77.94 C 170.05 78.65 170.10 79.74 170.80 80.38 C 171.51 81.02 172.60 80.97 173.24 80.27 L 173.90 79.54 C 174.54 78.84 174.49 77.75 173.79 77.11 C 173.08 76.47 171.99 76.52 171.35 77.22 Z M 170.67 77.95 L 170.04 78.65 C 169.39 79.37 169.46 80.47 170.17 81.11 C 170.89 81.75 171.99 81.69 172.63 80.97 L 173.26 80.27 C 173.90 79.55 173.84 78.45 173.12 77.81 C 172.41 77.17 171.31 77.23 170.67 77.95 Z M 170.02 78.65 L 169.37 79.39 C 168.72 80.11 168.79 81.22 169.51 81.86 C 170.23 82.50 171.33 82.44 171.98 81.72 L 172.64 80.98 C 173.28 80.26 173.22 79.15 172.49 78.51 C 171.77 77.86 170.67 77.93 170.02 78.65 Z M 169.36 79.38 L 168.69 80.13 C 168.05 80.86 168.11 81.97 168.84 82.61 C 169.56 83.26 170.67 83.20 171.32 82.47 L 171.99 81.72 C 172.63 81.00 172.57 79.89 171.84 79.24 C 171.12 78.59 170.00 78.66 169.36 79.38 Z M 168.69 80.12 L 168.05 80.83 C 167.40 81.56 167.45 82.67 168.18 83.33 C 168.90 83.98 170.02 83.92 170.68 83.20 L 171.32 82.48 C 171.97 81.76 171.92 80.64 171.19 79.99 C 170.46 79.33 169.35 79.39 168.69 80.12 Z M 168.06 80.80 L 167.35 81.57 C 166.68 82.29 166.72 83.41 167.44 84.08 C 168.16 84.75 169.28 84.71 169.95 83.99 L 170.66 83.22 C 171.33 82.51 171.29 81.38 170.57 80.71 C 169.86 80.05 168.73 80.09 168.06 80.80 Z M 167.37 81.54 L 166.69 82.23 C 166.01 82.94 166.02 84.06 166.73 84.75 C 167.43 85.44 168.56 85.43 169.25 84.72 L 169.93 84.03 C 170.61 83.32 170.60 82.19 169.89 81.50 C 169.19 80.82 168.06 80.83 167.37 81.54 Z M 166.72 82.20 L 166.03 82.87 C 165.32 83.56 165.31 84.69 166.00 85.40 C 166.69 86.11 167.82 86.12 168.53 85.43 L 169.22 84.76 C 169.93 84.07 169.94 82.93 169.25 82.23 C 168.56 81.52 167.43 81.51 166.72 82.20 Z M 166.06 82.83 L 165.30 83.54 C 164.57 84.21 164.53 85.34 165.20 86.07 C 165.87 86.80 167.01 86.84 167.73 86.17 L 168.49 85.47 C 169.22 84.80 169.27 83.66 168.60 82.94 C 167.92 82.21 166.79 82.16 166.06 82.83 Z M 165.34 83.50 L 164.56 84.17 C 163.81 84.82 163.73 85.96 164.39 86.71 C 165.04 87.46 166.18 87.54 166.92 86.88 L 167.70 86.21 C 168.45 85.56 168.53 84.42 167.87 83.67 C 167.22 82.92 166.08 82.85 165.34 83.50 Z M 164.59 84.14 L 163.86 84.75 C 163.09 85.38 162.98 86.52 163.62 87.28 C 164.25 88.05 165.39 88.16 166.16 87.53 L 166.89 86.92 C 167.66 86.28 167.77 85.15 167.13 84.38 C 166.50 83.61 165.36 83.51 164.59 84.14 Z M 163.89 84.72 L 163.11 85.34 C 162.32 85.95 162.19 87.09 162.81 87.87 C 163.42 88.65 164.56 88.79 165.34 88.17 L 166.13 87.55 C 166.91 86.94 167.04 85.80 166.42 85.02 C 165.81 84.24 164.67 84.10 163.89 84.72 Z M 163.14 85.31 L 162.31 85.93 C 161.51 86.54 161.35 87.67 161.96 88.47 C 162.56 89.26 163.69 89.42 164.49 88.82 L 165.31 88.20 C 166.11 87.60 166.27 86.46 165.67 85.66 C 165.07 84.87 163.93 84.71 163.14 85.31 Z M 162.34 85.91 L 161.51 86.51 C 160.70 87.10 160.52 88.23 161.10 89.04 C 161.69 89.85 162.82 90.03 163.63 89.44 L 164.46 88.84 C 165.27 88.26 165.45 87.13 164.87 86.32 C 164.28 85.50 163.15 85.32 162.34 85.91 Z M 161.53 86.49 L 160.75 87.04 C 159.93 87.61 159.73 88.74 160.30 89.56 C 160.87 90.38 162.00 90.58 162.83 90.01 L 163.61 89.46 C 164.43 88.89 164.63 87.76 164.06 86.94 C 163.48 86.12 162.35 85.92 161.53 86.49 Z M 160.77 87.02 L 159.96 87.57 C 159.13 88.14 158.91 89.26 159.48 90.09 C 160.04 90.92 161.16 91.14 161.99 90.57 L 162.81 90.02 C 163.63 89.46 163.85 88.33 163.29 87.51 C 162.73 86.68 161.60 86.46 160.77 87.02 Z M 159.97 87.56 L 159.13 88.12 C 158.29 88.68 158.07 89.80 158.62 90.64 C 159.17 91.47 160.30 91.70 161.14 91.15 L 161.98 90.59 C 162.81 90.03 163.04 88.91 162.49 88.07 C 161.93 87.24 160.81 87.01 159.97 87.56 Z M 159.14 88.11 L 158.26 88.69 C 157.42 89.23 157.19 90.36 157.74 91.20 C 158.28 92.04 159.41 92.27 160.25 91.73 L 161.12 91.15 C 161.96 90.61 162.20 89.48 161.65 88.64 C 161.10 87.80 159.98 87.57 159.14 88.11 Z M 158.27 88.68 L 157.43 89.22 C 156.59 89.77 156.34 90.89 156.89 91.73 C 157.43 92.58 158.55 92.82 159.40 92.27 L 160.24 91.73 C 161.08 91.19 161.32 90.06 160.78 89.22 C 160.24 88.38 159.11 88.14 158.27 88.68 Z M 157.43 89.22 L 156.60 89.75 C 155.76 90.29 155.51 91.42 156.05 92.26 C 156.59 93.10 157.72 93.35 158.56 92.81 L 159.39 92.28 C 160.24 91.74 160.48 90.61 159.94 89.77 C 159.40 88.93 158.28 88.68 157.43 89.22 Z M 156.61 89.75 L 155.76 90.29 C 154.92 90.83 154.67 91.95 155.20 92.79 C 155.74 93.64 156.86 93.89 157.71 93.35 L 158.56 92.81 C 159.40 92.27 159.65 91.15 159.11 90.31 C 158.58 89.46 157.45 89.21 156.61 89.75 Z M 155.77 90.29 L 154.91 90.83 C 154.06 91.36 153.81 92.48 154.35 93.33 C 154.88 94.18 156.00 94.43 156.85 93.89 L 157.71 93.35 C 158.55 92.82 158.81 91.70 158.27 90.85 C 157.73 90.00 156.61 89.75 155.77 90.29 Z M 154.91 90.82 L 154.06 91.36 C 153.21 91.90 152.95 93.02 153.48 93.87 C 154.02 94.71 155.14 94.97 155.99 94.44 L 156.84 93.90 C 157.69 93.36 157.95 92.24 157.42 91.40 C 156.88 90.55 155.76 90.29 154.91 90.82 Z M 154.06 91.36 L 153.21 91.89 C 152.36 92.42 152.10 93.54 152.63 94.39 C 153.16 95.24 154.28 95.50 155.13 94.97 L 155.98 94.44 C 156.83 93.91 157.09 92.79 156.56 91.94 C 156.03 91.09 154.91 90.83 154.06 91.36 Z M 153.21 91.89 L 152.37 92.41 C 151.52 92.94 151.26 94.06 151.78 94.92 C 152.31 95.77 153.43 96.03 154.29 95.50 L 155.13 94.97 C 155.98 94.44 156.24 93.32 155.71 92.47 C 155.18 91.62 154.06 91.36 153.21 91.89 Z M 152.37 92.41 L 151.53 92.94 C 150.67 93.47 150.41 94.59 150.94 95.44 C 151.47 96.29 152.59 96.55 153.45 96.02 L 154.29 95.50 C 155.14 94.97 155.40 93.85 154.87 93.00 C 154.34 92.14 153.22 91.88 152.37 92.41 Z M 151.52 92.94 L 150.68 93.46 C 149.83 94.00 149.57 95.12 150.10 95.97 C 150.63 96.82 151.76 97.08 152.61 96.55 L 153.45 96.02 C 154.30 95.49 154.56 94.37 154.03 93.51 C 153.50 92.66 152.37 92.40 151.52 92.94 Z M 150.67 93.46 L 149.82 94.00 C 148.97 94.54 148.72 95.66 149.25 96.51 C 149.79 97.36 150.91 97.62 151.77 97.08 L 152.62 96.55 C 153.47 96.01 153.72 94.89 153.18 94.03 C 152.65 93.18 151.52 92.93 150.67 93.46 Z M 149.81 94.00 L 148.95 94.55 C 148.11 95.09 147.86 96.22 148.40 97.07 C 148.94 97.92 150.07 98.17 150.92 97.63 L 151.77 97.08 C 152.62 96.54 152.87 95.41 152.33 94.56 C 151.79 93.71 150.66 93.46 149.81 94.00 Z M 148.94 94.56 L 148.15 95.07 C 147.30 95.62 147.06 96.75 147.61 97.60 C 148.15 98.44 149.28 98.69 150.13 98.14 L 150.93 97.62 C 151.77 97.07 152.02 95.94 151.47 95.10 C 150.92 94.25 149.79 94.01 148.94 94.56 Z M 148.14 95.08 L 147.32 95.61 C 146.48 96.16 146.24 97.29 146.80 98.14 C 147.35 98.98 148.48 99.22 149.32 98.67 L 150.14 98.13 C 150.98 97.58 151.22 96.45 150.67 95.61 C 150.11 94.76 148.98 94.53 148.14 95.08 Z M 147.32 95.61 L 146.49 96.16 C 145.65 96.71 145.41 97.85 145.97 98.69 C 146.53 99.53 147.66 99.77 148.50 99.21 L 149.33 98.66 C 150.17 98.11 150.41 96.97 149.85 96.13 C 149.29 95.29 148.16 95.06 147.32 95.61 Z M 146.48 96.16 L 145.64 96.72 C 144.80 97.28 144.57 98.41 145.13 99.26 C 145.69 100.10 146.82 100.33 147.66 99.77 L 148.51 99.21 C 149.35 98.65 149.58 97.52 149.02 96.67 C 148.46 95.83 147.33 95.60 146.48 96.16 Z M 145.64 96.72 L 144.78 97.29 C 143.93 97.85 143.71 98.99 144.27 99.83 C 144.83 100.67 145.96 100.90 146.81 100.34 L 147.67 99.77 C 148.51 99.21 148.74 98.07 148.18 97.23 C 147.62 96.39 146.48 96.16 145.64 96.72 Z M 144.78 97.29 L 143.92 97.86 C 143.07 98.42 142.85 99.56 143.41 100.40 C 143.97 101.25 145.11 101.48 145.95 100.91 L 146.81 100.34 C 147.65 99.78 147.88 98.64 147.32 97.80 C 146.76 96.96 145.62 96.73 144.78 97.29 Z M 143.92 97.86 L 143.11 98.40 C 142.27 98.96 142.04 100.10 142.60 100.94 C 143.16 101.78 144.30 102.01 145.14 101.45 L 145.95 100.92 C 146.79 100.35 147.02 99.22 146.46 98.37 C 145.90 97.53 144.76 97.30 143.92 97.86 Z M 143.11 98.40 L 142.30 98.94 C 141.46 99.50 141.23 100.64 141.79 101.48 C 142.35 102.32 143.49 102.55 144.33 101.99 L 145.14 101.45 C 145.99 100.89 146.22 99.75 145.66 98.91 C 145.10 98.07 143.96 97.84 143.11 98.40 Z M 142.30 98.94 L 141.47 99.49 C 140.63 100.05 140.40 101.19 140.96 102.03 C 141.52 102.87 142.66 103.10 143.50 102.54 L 144.33 101.99 C 145.17 101.43 145.40 100.29 144.84 99.45 C 144.28 98.61 143.14 98.38 142.30 98.94 Z M 141.47 99.49 L 140.63 100.05 C 139.79 100.61 139.56 101.75 140.12 102.59 C 140.68 103.43 141.82 103.66 142.66 103.10 L 143.50 102.54 C 144.34 101.98 144.57 100.84 144.01 100.00 C 143.45 99.16 142.31 98.93 141.47 99.49 Z M 140.63 100.05 L 139.78 100.62 C 138.94 101.18 138.71 102.32 139.28 103.16 C 139.84 104.00 140.97 104.23 141.82 103.67 L 142.66 103.10 C 143.51 102.54 143.73 101.40 143.17 100.56 C 142.61 99.72 141.47 99.49 140.63 100.05 Z M 139.78 100.62 L 138.92 101.19 C 138.08 101.76 137.86 102.89 138.42 103.74 C 138.98 104.58 140.12 104.80 140.96 104.24 L 141.82 103.66 C 142.66 103.10 142.88 101.96 142.32 101.12 C 141.76 100.28 140.62 100.06 139.78 100.62 Z M 138.92 101.19 L 138.09 101.75 C 137.25 102.32 137.02 103.46 137.59 104.30 C 138.15 105.14 139.29 105.36 140.13 104.80 L 140.96 104.24 C 141.80 103.67 142.03 102.54 141.46 101.69 C 140.90 100.85 139.76 100.63 138.92 101.19 Z M 138.08 101.75 L 137.26 102.31 C 136.42 102.87 136.19 104.01 136.76 104.85 C 137.33 105.70 138.47 105.92 139.31 105.35 L 140.13 104.80 C 140.97 104.23 141.20 103.09 140.63 102.25 C 140.07 101.41 138.92 101.19 138.08 101.75 Z M 137.26 102.30 L 136.43 102.86 C 135.58 103.43 135.36 104.57 135.93 105.42 C 136.50 106.26 137.64 106.48 138.48 105.91 L 139.31 105.35 C 140.15 104.79 140.38 103.64 139.81 102.80 C 139.24 101.96 138.10 101.74 137.26 102.30 Z M 136.42 102.86 L 135.59 103.42 C 134.75 103.99 134.53 105.14 135.10 105.98 C 135.67 106.82 136.81 107.05 137.65 106.48 L 138.49 105.92 C 139.33 105.35 139.55 104.20 138.98 103.36 C 138.41 102.51 137.27 102.29 136.42 102.86 Z M 135.59 103.42 L 134.76 103.98 C 133.91 104.55 133.69 105.70 134.26 106.55 C 134.83 107.39 135.98 107.61 136.82 107.04 L 137.66 106.48 C 138.50 105.91 138.72 104.76 138.15 103.92 C 137.58 103.07 136.43 102.85 135.59 103.42 Z M 134.76 103.98 L 133.92 104.54 C 133.08 105.11 132.85 106.26 133.43 107.11 C 134.00 107.96 135.15 108.18 135.99 107.61 L 136.83 107.04 C 137.67 106.47 137.89 105.32 137.32 104.48 C 136.75 103.63 135.60 103.41 134.76 103.98 Z M 133.92 104.54 L 133.09 105.10 C 132.24 105.67 132.02 106.83 132.59 107.67 C 133.17 108.52 134.32 108.74 135.16 108.17 L 136.00 107.61 C 136.84 107.04 137.07 105.89 136.49 105.04 C 135.92 104.19 134.77 103.97 133.92 104.54 Z M 133.09 105.10 L 132.26 105.66 C 131.41 106.23 131.18 107.39 131.76 108.24 C 132.33 109.09 133.48 109.31 134.33 108.74 L 135.17 108.17 C 136.01 107.60 136.24 106.45 135.67 105.60 C 135.09 104.75 133.94 104.53 133.09 105.10 Z M 132.26 105.66 L 131.42 106.22 C 130.57 106.79 130.35 107.95 130.92 108.80 C 131.49 109.65 132.65 109.87 133.50 109.30 L 134.33 108.74 C 135.18 108.17 135.40 107.01 134.83 106.16 C 134.26 105.31 133.11 105.09 132.26 105.66 Z M 131.42 106.22 L 130.59 106.78 C 129.74 107.35 129.52 108.50 130.09 109.35 C 130.66 110.21 131.81 110.43 132.66 109.86 L 133.50 109.30 C 134.35 108.73 134.57 107.58 134.00 106.72 C 133.43 105.87 132.28 105.65 131.42 106.22 Z M 130.60 106.78 L 129.77 107.33 C 128.91 107.90 128.69 109.06 129.26 109.91 C 129.83 110.76 130.98 110.99 131.83 110.42 L 132.66 109.86 C 133.52 109.29 133.74 108.14 133.17 107.28 C 132.60 106.43 131.45 106.21 130.60 106.78 Z M 129.77 107.33 L 128.94 107.88 C 128.09 108.46 127.86 109.61 128.43 110.46 C 129.00 111.31 130.15 111.54 131.00 110.97 L 131.83 110.42 C 132.69 109.85 132.91 108.70 132.34 107.84 C 131.77 106.99 130.62 106.76 129.77 107.33 Z M 128.94 107.88 L 128.11 108.43 C 127.26 109.00 127.03 110.16 127.60 111.01 C 128.16 111.87 129.32 112.10 130.17 111.53 L 131.00 110.98 C 131.86 110.41 132.09 109.25 131.52 108.40 C 130.95 107.55 129.80 107.31 128.94 107.88 Z M 128.11 108.43 L 127.28 108.98 C 126.43 109.55 126.19 110.70 126.76 111.56 C 127.33 112.42 128.48 112.65 129.34 112.08 L 130.17 111.53 C 131.02 110.96 131.26 109.81 130.69 108.95 C 130.12 108.10 128.97 107.86 128.11 108.43 Z M 127.29 108.98 L 126.42 109.55 C 125.56 110.12 125.33 111.27 125.89 112.13 C 126.46 112.98 127.61 113.22 128.47 112.66 L 129.33 112.08 C 130.19 111.52 130.43 110.37 129.86 109.51 C 129.30 108.65 128.14 108.42 127.29 108.98 Z M 126.43 109.55 L 125.56 110.12 C 124.70 110.68 124.46 111.83 125.02 112.69 C 125.58 113.55 126.73 113.79 127.59 113.23 L 128.46 112.66 C 129.32 112.10 129.56 110.95 129.00 110.09 C 128.43 109.23 127.28 108.99 126.43 109.55 Z M 125.57 110.11 L 124.71 110.67 C 123.85 111.23 123.60 112.38 124.16 113.24 C 124.72 114.10 125.86 114.34 126.72 113.79 L 127.58 113.23 C 128.44 112.67 128.69 111.52 128.13 110.66 C 127.58 109.80 126.43 109.56 125.57 110.11 Z M 124.72 110.67 L 123.87 111.21 C 123.01 111.76 122.76 112.90 123.31 113.76 C 123.86 114.63 125.00 114.88 125.87 114.33 L 126.71 113.79 C 127.58 113.24 127.83 112.09 127.28 111.23 C 126.73 110.37 125.58 110.11 124.72 110.67 Z M 123.89 111.20 L 123.06 111.72 C 122.19 112.26 121.93 113.40 122.47 114.27 C 123.01 115.14 124.15 115.40 125.02 114.86 L 125.85 114.34 C 126.72 113.80 126.98 112.65 126.44 111.79 C 125.90 110.92 124.75 110.66 123.89 111.20 Z M 123.07 111.71 L 122.26 112.21 C 121.39 112.74 121.12 113.88 121.65 114.75 C 122.18 115.62 123.32 115.90 124.19 115.36 L 125.00 114.87 C 125.87 114.33 126.15 113.20 125.62 112.32 C 125.08 111.45 123.94 111.18 123.07 111.71 Z M 122.28 112.19 L 121.42 112.71 C 120.54 113.23 120.25 114.36 120.77 115.24 C 121.29 116.12 122.43 116.41 123.30 115.89 L 124.17 115.37 C 125.05 114.85 125.34 113.72 124.82 112.84 C 124.30 111.96 123.16 111.67 122.28 112.19 Z M 121.45 112.69 L 120.54 113.21 C 119.65 113.72 119.34 114.85 119.85 115.73 C 120.35 116.62 121.48 116.93 122.37 116.42 L 123.28 115.90 C 124.16 115.40 124.47 114.27 123.96 113.38 C 123.46 112.50 122.33 112.19 121.45 112.69 Z M 120.57 113.20 L 119.68 113.68 C 118.79 114.17 118.46 115.29 118.95 116.19 C 119.44 117.08 120.56 117.41 121.45 116.92 L 122.34 116.43 C 123.23 115.94 123.56 114.82 123.07 113.93 C 122.58 113.04 121.46 112.71 120.57 113.20 Z M 119.71 113.67 L 118.84 114.13 C 117.94 114.60 117.60 115.72 118.07 116.62 C 118.55 117.52 119.66 117.86 120.56 117.39 L 121.43 116.93 C 122.33 116.46 122.67 115.34 122.20 114.44 C 121.72 113.54 120.61 113.20 119.71 113.67 Z M 118.87 114.12 L 118.01 114.55 C 117.11 115.01 116.74 116.12 117.20 117.03 C 117.66 117.93 118.77 118.29 119.68 117.83 L 120.53 117.40 C 121.44 116.94 121.80 115.83 121.34 114.92 C 120.88 114.02 119.77 113.66 118.87 114.12 Z M 118.03 114.55 L 117.17 114.97 C 116.26 115.42 115.89 116.52 116.33 117.43 C 116.78 118.34 117.88 118.71 118.79 118.26 L 119.65 117.84 C 120.56 117.39 120.94 116.29 120.49 115.38 C 120.04 114.47 118.94 114.10 118.03 114.55 Z M 117.19 114.96 L 116.29 115.39 C 115.38 115.83 114.99 116.93 115.43 117.84 C 115.87 118.75 116.96 119.14 117.87 118.70 L 118.77 118.27 C 119.69 117.83 120.07 116.74 119.64 115.83 C 119.20 114.91 118.10 114.53 117.19 114.96 Z M 116.31 115.39 L 115.40 115.82 C 114.48 116.24 114.09 117.33 114.52 118.25 C 114.95 119.16 116.03 119.56 116.95 119.13 L 117.86 118.71 C 118.77 118.28 119.17 117.19 118.74 116.27 C 118.31 115.36 117.22 114.96 116.31 115.39 Z M 115.41 115.81 L 114.50 116.23 C 113.59 116.65 113.18 117.73 113.60 118.65 C 114.02 119.57 115.11 119.97 116.02 119.55 L 116.93 119.13 C 117.85 118.71 118.25 117.63 117.83 116.71 C 117.41 115.80 116.33 115.39 115.41 115.81 Z M 114.52 116.23 L 113.60 116.64 C 112.69 117.05 112.28 118.13 112.69 119.05 C 113.10 119.96 114.18 120.37 115.10 119.96 L 116.01 119.55 C 116.93 119.14 117.34 118.06 116.92 117.14 C 116.51 116.23 115.43 115.82 114.52 116.23 Z M 113.61 116.64 L 112.70 117.04 C 111.78 117.45 111.37 118.52 111.78 119.44 C 112.19 120.36 113.26 120.77 114.18 120.37 L 115.09 119.96 C 116.00 119.55 116.42 118.48 116.01 117.56 C 115.60 116.65 114.53 116.23 113.61 116.64 Z M 112.71 117.05 L 111.77 117.46 C 110.86 117.86 110.44 118.93 110.84 119.85 C 111.25 120.76 112.32 121.18 113.23 120.78 L 114.17 120.36 C 115.08 119.96 115.50 118.89 115.10 117.98 C 114.69 117.06 113.63 116.64 112.71 117.05 Z M 111.78 117.46 L 110.84 117.87 C 109.93 118.27 109.51 119.34 109.92 120.25 C 110.32 121.16 111.38 121.58 112.30 121.18 L 113.23 120.77 C 114.14 120.37 114.56 119.30 114.16 118.39 C 113.76 117.48 112.69 117.06 111.78 117.46 Z M 110.84 117.88 L 109.92 118.28 C 109.01 118.68 108.60 119.75 109.00 120.66 C 109.40 121.57 110.47 121.98 111.38 121.58 L 112.30 121.17 C 113.21 120.77 113.62 119.71 113.22 118.80 C 112.82 117.89 111.75 117.47 110.84 117.88 Z M 109.92 118.29 L 109.01 118.70 C 108.11 119.10 107.70 120.17 108.11 121.07 C 108.51 121.98 109.58 122.38 110.48 121.98 L 111.39 121.57 C 112.29 121.16 112.70 120.10 112.29 119.20 C 111.88 118.29 110.82 117.89 109.92 118.29 Z M 109.00 118.71 L 108.12 119.11 C 107.22 119.53 106.82 120.59 107.24 121.49 C 107.65 122.39 108.72 122.78 109.62 122.37 L 110.50 121.96 C 111.40 121.55 111.79 120.49 111.38 119.59 C 110.96 118.69 109.90 118.29 109.00 118.71 Z M 108.10 119.13 L 107.16 119.58 C 106.27 120.00 105.89 121.07 106.31 121.96 C 106.74 122.85 107.80 123.23 108.69 122.80 L 109.64 122.35 C 110.53 121.93 110.90 120.86 110.48 119.97 C 110.05 119.08 108.99 118.70 108.10 119.13 Z M 107.14 119.60 L 106.21 120.05 C 105.33 120.49 104.97 121.56 105.41 122.44 C 105.85 123.32 106.91 123.68 107.79 123.24 L 108.72 122.78 C 109.60 122.35 109.96 121.28 109.52 120.40 C 109.08 119.52 108.02 119.16 107.14 119.60 Z M 106.19 120.07 L 105.31 120.53 C 104.44 120.97 104.09 122.04 104.54 122.91 C 104.99 123.78 106.06 124.13 106.93 123.68 L 107.81 123.22 C 108.68 122.78 109.03 121.71 108.58 120.84 C 108.13 119.97 107.06 119.62 106.19 120.07 Z M 105.29 120.54 L 104.44 121.00 C 103.58 121.45 103.25 122.52 103.71 123.38 C 104.16 124.24 105.23 124.57 106.09 124.11 L 106.94 123.66 C 107.80 123.20 108.13 122.14 107.68 121.28 C 107.22 120.42 106.15 120.09 105.29 120.54 Z M 104.42 121.01 L 103.56 121.48 C 102.71 121.95 102.39 123.02 102.86 123.87 C 103.32 124.72 104.39 125.03 105.24 124.57 L 106.11 124.10 C 106.96 123.63 107.27 122.56 106.81 121.71 C 106.34 120.86 105.27 120.55 104.42 121.01 Z M 103.54 121.50 L 102.64 122.01 C 101.80 122.48 101.50 123.55 101.97 124.39 C 102.44 125.23 103.51 125.53 104.35 125.06 L 105.26 124.55 C 106.10 124.08 106.40 123.01 105.93 122.17 C 105.45 121.33 104.39 121.03 103.54 121.50 Z M 102.63 122.02 L 101.76 122.52 C 100.93 123.00 100.64 124.06 101.12 124.90 C 101.60 125.73 102.66 126.02 103.49 125.54 L 104.36 125.04 C 105.20 124.57 105.48 123.50 105.01 122.67 C 104.53 121.83 103.46 121.55 102.63 122.02 Z M 101.76 122.53 L 100.92 123.02 C 100.10 123.50 99.81 124.56 100.30 125.39 C 100.78 126.21 101.84 126.50 102.66 126.01 L 103.50 125.53 C 104.33 125.05 104.61 123.99 104.13 123.16 C 103.65 122.33 102.59 122.05 101.76 122.53 Z M 100.92 123.03 L 100.05 123.54 C 99.22 124.02 98.95 125.08 99.43 125.90 C 99.91 126.72 100.96 127.00 101.79 126.52 L 102.66 126.00 C 103.48 125.52 103.76 124.47 103.28 123.65 C 102.80 122.83 101.74 122.55 100.92 123.03 Z M 100.04 123.56 L 99.14 124.09 C 98.32 124.58 98.05 125.63 98.53 126.44 C 99.01 127.25 100.07 127.52 100.88 127.04 L 101.79 126.50 C 102.60 126.02 102.87 124.97 102.39 124.16 C 101.91 123.34 100.86 123.07 100.04 123.56 Z M 99.12 124.12 L 98.28 124.63 C 97.48 125.12 97.22 126.17 97.71 126.97 C 98.21 127.77 99.25 128.02 100.05 127.53 L 100.89 127.02 C 101.70 126.53 101.95 125.48 101.46 124.68 C 100.97 123.88 99.92 123.63 99.12 124.12 Z M 98.24 124.67 L 97.45 125.18 C 96.67 125.69 96.45 126.74 96.96 127.52 C 97.47 128.31 98.52 128.53 99.30 128.01 L 100.09 127.50 C 100.87 126.99 101.09 125.94 100.58 125.16 C 100.07 124.38 99.02 124.16 98.24 124.67 Z M 97.38 125.24 L 96.51 125.88 C 95.76 126.43 95.60 127.48 96.15 128.23 C 96.70 128.98 97.75 129.14 98.50 128.59 L 99.37 127.96 C 100.12 127.41 100.28 126.36 99.73 125.61 C 99.18 124.86 98.13 124.69 97.38 125.24 Z M 96.45 125.94 L 95.74 126.52 C 95.02 127.10 94.91 128.15 95.50 128.87 C 96.08 129.58 97.13 129.69 97.85 129.11 L 98.56 128.53 C 99.28 127.95 99.38 126.90 98.80 126.18 C 98.22 125.46 97.17 125.36 96.45 125.94 Z M 95.71 126.55 L 94.95 127.20 C 94.25 127.80 94.17 128.85 94.77 129.55 C 95.36 130.25 96.41 130.33 97.11 129.73 L 97.87 129.08 C 98.57 128.48 98.65 127.43 98.06 126.73 C 97.46 126.03 96.41 125.95 95.71 126.55 Z M 94.94 127.22 L 94.22 127.85 C 93.53 128.45 93.46 129.50 94.06 130.19 C 94.67 130.88 95.71 130.95 96.40 130.34 L 97.12 129.71 C 97.81 129.11 97.88 128.06 97.28 127.37 C 96.67 126.68 95.63 126.61 94.94 127.22 Z"
      fill="black"
      fill-rule="nonzero" /><path d="M 173.10 129.88 L 172.15 129.81 C 171.36 129.76 170.67 130.36 170.61 131.15 C 170.55 131.95 171.15 132.64 171.95 132.69 L 172.90 132.76 C 173.69 132.82 174.38 132.22 174.44 131.42 C 174.50 130.63 173.90 129.94 173.10 129.88 Z M 171.33 129.96 L 170.49 130.42 C 169.78 130.82 169.52 131.72 169.91 132.44 C 170.31 133.15 171.21 133.41 171.93 133.02 L 172.77 132.55 C 173.48 132.15 173.74 131.25 173.35 130.54 C 172.95 129.82 172.05 129.56 171.33 129.96 Z M 170.00 130.79 L 169.40 131.57 C 168.89 132.24 169.01 133.20 169.68 133.71 C 170.35 134.23 171.31 134.10 171.82 133.43 L 172.42 132.65 C 172.93 131.98 172.81 131.02 172.14 130.51 C 171.47 129.99 170.51 130.12 170.00 130.79 Z M 169.26 131.69 L 168.71 132.60 C 168.27 133.35 168.51 134.32 169.26 134.77 C 170.01 135.21 170.97 134.97 171.42 134.22 L 171.97 133.31 C 172.41 132.56 172.17 131.59 171.42 131.15 C 170.67 130.70 169.71 130.94 169.26 131.69 Z M 168.67 132.59 L 168.14 133.51 C 167.69 134.28 167.94 135.27 168.71 135.72 C 169.48 136.17 170.47 135.91 170.93 135.14 L 171.46 134.23 C 171.91 133.46 171.65 132.47 170.88 132.02 C 170.11 131.57 169.12 131.82 168.67 132.59 Z M 168.15 133.45 L 167.64 134.25 C 167.15 135.01 167.37 136.02 168.14 136.51 C 168.90 136.99 169.91 136.77 170.40 136.01 L 170.91 135.21 C 171.40 134.45 171.17 133.44 170.41 132.95 C 169.65 132.46 168.64 132.68 168.15 133.45 Z M 167.66 134.18 L 167.14 134.93 C 166.61 135.68 166.79 136.71 167.54 137.24 C 168.29 137.76 169.32 137.58 169.84 136.83 L 170.37 136.08 C 170.90 135.33 170.72 134.30 169.97 133.77 C 169.22 133.25 168.19 133.43 167.66 134.18 Z M 167.16 134.87 L 166.56 135.66 C 166.00 136.39 166.14 137.44 166.87 138.00 C 167.61 138.56 168.65 138.42 169.21 137.69 L 169.82 136.89 C 170.38 136.16 170.24 135.11 169.50 134.55 C 168.77 133.99 167.72 134.13 167.16 134.87 Z M 166.59 135.60 L 165.93 136.39 C 165.33 137.10 165.43 138.17 166.15 138.76 C 166.87 139.36 167.93 139.26 168.53 138.54 L 169.18 137.75 C 169.78 137.04 169.68 135.97 168.96 135.38 C 168.25 134.78 167.18 134.88 166.59 135.60 Z M 165.96 136.34 L 165.34 137.03 C 164.72 137.73 164.78 138.81 165.48 139.43 C 166.18 140.06 167.26 139.99 167.88 139.29 L 168.50 138.59 C 169.12 137.89 169.06 136.82 168.36 136.19 C 167.66 135.57 166.58 135.63 165.96 136.34 Z M 165.35 137.00 L 164.66 137.75 C 164.02 138.45 164.06 139.53 164.76 140.17 C 165.46 140.81 166.54 140.77 167.18 140.07 L 167.87 139.32 C 168.51 138.62 168.47 137.54 167.77 136.90 C 167.08 136.26 165.99 136.31 165.35 137.00 Z M 164.66 137.74 L 163.93 138.51 C 163.28 139.21 163.32 140.30 164.01 140.95 C 164.71 141.60 165.80 141.56 166.45 140.87 L 167.18 140.09 C 167.83 139.39 167.79 138.30 167.10 137.65 C 166.40 137.01 165.31 137.04 164.66 137.74 Z M 163.93 138.50 L 163.29 139.18 C 162.64 139.87 162.67 140.97 163.37 141.63 C 164.06 142.28 165.16 142.25 165.81 141.55 L 166.45 140.88 C 167.11 140.18 167.07 139.08 166.38 138.43 C 165.68 137.77 164.59 137.81 163.93 138.50 Z M 163.29 139.17 L 162.61 139.89 C 161.95 140.58 161.98 141.68 162.68 142.34 C 163.38 143.00 164.48 142.97 165.14 142.28 L 165.82 141.56 C 166.48 140.87 166.45 139.76 165.75 139.10 C 165.05 138.44 163.95 138.47 163.29 139.17 Z M 162.61 139.87 L 161.90 140.62 C 161.23 141.32 161.25 142.43 161.95 143.09 C 162.65 143.76 163.75 143.74 164.42 143.04 L 165.14 142.29 C 165.80 141.59 165.78 140.49 165.08 139.82 C 164.39 139.15 163.28 139.18 162.61 139.87 Z M 161.90 140.61 L 161.16 141.37 C 160.49 142.07 160.51 143.18 161.20 143.85 C 161.90 144.52 163.01 144.51 163.68 143.81 L 164.42 143.05 C 165.09 142.36 165.07 141.25 164.38 140.57 C 163.68 139.90 162.57 139.92 161.90 140.61 Z M 161.17 141.36 L 160.51 142.03 C 159.83 142.72 159.84 143.83 160.54 144.51 C 161.23 145.19 162.35 145.18 163.03 144.49 L 163.68 143.82 C 164.36 143.13 164.35 142.01 163.65 141.33 C 162.96 140.65 161.84 140.67 161.17 141.36 Z M 160.51 142.02 L 159.83 142.71 C 159.15 143.40 159.16 144.52 159.86 145.20 C 160.55 145.89 161.67 145.88 162.35 145.18 L 163.03 144.49 C 163.71 143.80 163.70 142.68 163.01 142.00 C 162.31 141.32 161.19 141.33 160.51 142.02 Z M 159.83 142.71 L 159.13 143.42 C 158.44 144.12 158.45 145.24 159.15 145.92 C 159.85 146.61 160.97 146.60 161.65 145.90 L 162.35 145.18 C 163.04 144.49 163.03 143.37 162.33 142.69 C 161.63 142.00 160.51 142.01 159.83 142.71 Z M 159.12 143.43 L 158.39 144.18 C 157.71 144.88 157.72 146.00 158.42 146.68 C 159.12 147.36 160.24 147.35 160.93 146.65 L 161.66 145.90 C 162.34 145.20 162.33 144.08 161.62 143.39 C 160.92 142.71 159.80 142.73 159.12 143.43 Z M 158.38 144.18 L 157.66 144.93 C 156.98 145.63 157.00 146.76 157.70 147.44 C 158.41 148.12 159.53 148.10 160.21 147.39 L 160.94 146.64 C 161.62 145.94 161.60 144.81 160.89 144.13 C 160.18 143.45 159.06 143.47 158.38 144.18 Z M 157.65 144.93 L 157.01 145.61 C 156.33 146.32 156.36 147.44 157.07 148.12 C 157.78 148.80 158.90 148.77 159.58 148.06 L 160.22 147.39 C 160.90 146.68 160.87 145.55 160.16 144.87 C 159.45 144.20 158.33 144.22 157.65 144.93 Z M 157.00 145.61 L 156.34 146.31 C 155.66 147.03 155.69 148.15 156.40 148.83 C 157.12 149.50 158.24 149.47 158.92 148.76 L 159.58 148.06 C 160.26 147.35 160.23 146.22 159.52 145.55 C 158.80 144.87 157.68 144.90 157.00 145.61 Z M 156.34 146.31 L 155.65 147.04 C 154.98 147.75 155.01 148.88 155.72 149.55 C 156.43 150.23 157.56 150.20 158.23 149.48 L 158.92 148.76 C 159.59 148.05 159.56 146.92 158.85 146.25 C 158.14 145.57 157.01 145.60 156.34 146.31 Z M 155.65 147.03 L 154.95 147.78 C 154.27 148.49 154.30 149.62 155.01 150.29 C 155.72 150.97 156.85 150.94 157.53 150.23 L 158.23 149.49 C 158.91 148.77 158.88 147.65 158.17 146.97 C 157.45 146.29 156.33 146.32 155.65 147.03 Z M 154.95 147.77 L 154.22 148.53 C 153.54 149.24 153.57 150.37 154.28 151.05 C 154.99 151.73 156.12 151.70 156.79 150.99 L 157.52 150.23 C 158.20 149.52 158.18 148.40 157.47 147.72 C 156.76 147.04 155.63 147.06 154.95 147.77 Z M 154.23 148.53 L 153.51 149.27 C 152.83 149.98 152.85 151.10 153.56 151.79 C 154.26 152.47 155.39 152.45 156.07 151.74 L 156.79 151.00 C 157.47 150.29 157.45 149.17 156.75 148.48 C 156.04 147.80 154.91 147.82 154.23 148.53 Z M 153.52 149.26 L 152.85 149.95 C 152.16 150.65 152.18 151.78 152.88 152.46 C 153.58 153.15 154.71 153.14 155.40 152.43 L 156.07 151.75 C 156.75 151.05 156.74 149.92 156.04 149.23 C 155.33 148.54 154.20 148.56 153.52 149.26 Z M 152.86 149.94 L 152.17 150.63 C 151.48 151.33 151.49 152.46 152.19 153.15 C 152.89 153.84 154.02 153.84 154.71 153.13 L 155.39 152.44 C 156.08 151.74 156.08 150.61 155.38 149.92 C 154.67 149.23 153.55 149.24 152.86 149.94 Z M 152.18 150.62 L 151.48 151.33 C 150.78 152.02 150.79 153.15 151.48 153.85 C 152.18 154.54 153.31 154.54 154.00 153.84 L 154.70 153.14 C 155.40 152.44 155.40 151.32 154.70 150.62 C 154.00 149.93 152.87 149.93 152.18 150.62 Z M 151.48 151.32 L 150.77 152.03 C 150.07 152.72 150.07 153.85 150.76 154.55 C 151.46 155.25 152.58 155.26 153.28 154.56 L 154.00 153.85 C 154.70 153.16 154.70 152.03 154.01 151.33 C 153.31 150.63 152.18 150.63 151.48 151.32 Z M 150.78 152.02 L 150.04 152.74 C 149.34 153.43 149.33 154.56 150.02 155.26 C 150.71 155.97 151.84 155.98 152.55 155.29 L 153.28 154.57 C 153.98 153.88 153.99 152.75 153.30 152.04 C 152.61 151.34 151.48 151.33 150.78 152.02 Z M 150.05 152.73 L 149.31 153.46 C 148.60 154.15 148.58 155.28 149.27 155.98 C 149.96 156.69 151.09 156.71 151.80 156.02 L 152.54 155.29 C 153.25 154.61 153.26 153.48 152.58 152.77 C 151.89 152.06 150.76 152.05 150.05 152.73 Z M 149.31 153.45 L 148.59 154.15 C 147.88 154.84 147.85 155.97 148.54 156.68 C 149.22 157.39 150.35 157.41 151.06 156.72 L 151.79 156.03 C 152.50 155.34 152.52 154.21 151.84 153.50 C 151.15 152.79 150.02 152.77 149.31 153.45 Z M 148.59 154.14 L 147.89 154.81 C 147.17 155.49 147.15 156.63 147.83 157.34 C 148.51 158.05 149.64 158.08 150.35 157.40 L 151.06 156.73 C 151.77 156.05 151.80 154.92 151.12 154.21 C 150.44 153.49 149.31 153.46 148.59 154.14 Z M 147.90 154.81 L 147.18 155.48 C 146.46 156.16 146.43 157.29 147.10 158.01 C 147.78 158.72 148.91 158.76 149.63 158.08 L 150.34 157.41 C 151.06 156.73 151.10 155.60 150.42 154.88 C 149.75 154.17 148.62 154.13 147.90 154.81 Z M 147.19 155.47 L 146.46 156.14 C 145.74 156.81 145.69 157.94 146.36 158.67 C 147.03 159.39 148.16 159.44 148.89 158.77 L 149.62 158.09 C 150.34 157.42 150.39 156.29 149.72 155.57 C 149.05 154.84 147.92 154.80 147.19 155.47 Z M 146.47 156.13 L 145.73 156.81 C 145.00 157.47 144.94 158.60 145.61 159.33 C 146.27 160.06 147.40 160.12 148.13 159.45 L 148.88 158.78 C 149.61 158.12 149.66 156.99 149.00 156.25 C 148.33 155.52 147.20 155.47 146.47 156.13 Z M 145.74 156.79 L 144.99 157.47 C 144.25 158.12 144.18 159.25 144.84 159.99 C 145.49 160.73 146.62 160.80 147.36 160.14 L 148.12 159.47 C 148.86 158.81 148.92 157.68 148.27 156.94 C 147.61 156.20 146.48 156.14 145.74 156.79 Z M 145.00 157.45 L 144.23 158.12 C 143.48 158.77 143.40 159.90 144.05 160.65 C 144.70 161.39 145.83 161.47 146.57 160.82 L 147.35 160.15 C 148.09 159.51 148.17 158.38 147.52 157.63 C 146.88 156.89 145.75 156.81 145.00 157.45 Z M 144.25 158.11 L 143.46 158.77 C 142.71 159.41 142.61 160.54 143.25 161.29 C 143.89 162.05 145.02 162.14 145.77 161.50 L 146.56 160.84 C 147.31 160.20 147.41 159.07 146.77 158.32 C 146.13 157.56 145.00 157.47 144.25 158.11 Z M 143.48 158.76 L 142.73 159.37 C 141.97 160.00 141.86 161.13 142.49 161.89 C 143.11 162.65 144.24 162.76 145.00 162.14 L 145.75 161.52 C 146.52 160.89 146.63 159.76 146.00 159.00 C 145.37 158.24 144.24 158.13 143.48 158.76 Z M 142.75 159.36 L 141.99 159.97 C 141.21 160.59 141.09 161.72 141.71 162.49 C 142.33 163.26 143.46 163.38 144.23 162.76 L 144.99 162.15 C 145.76 161.53 145.88 160.40 145.26 159.63 C 144.64 158.86 143.52 158.74 142.75 159.36 Z M 142.00 159.96 L 141.23 160.57 C 140.45 161.18 140.31 162.30 140.93 163.08 C 141.54 163.86 142.66 163.99 143.44 163.38 L 144.21 162.77 C 144.99 162.16 145.12 161.04 144.51 160.26 C 143.90 159.48 142.78 159.35 142.00 159.96 Z M 141.24 160.56 L 140.45 161.16 C 139.67 161.77 139.52 162.89 140.13 163.68 C 140.73 164.46 141.86 164.60 142.64 164.00 L 143.43 163.39 C 144.21 162.79 144.35 161.66 143.75 160.88 C 143.14 160.10 142.02 159.95 141.24 160.56 Z M 140.46 161.16 L 139.66 161.76 C 138.88 162.36 138.72 163.49 139.32 164.27 C 139.92 165.06 141.04 165.21 141.83 164.61 L 142.63 164.01 C 143.42 163.41 143.57 162.28 142.97 161.50 C 142.37 160.71 141.25 160.56 140.46 161.16 Z M 139.67 161.76 L 138.86 162.36 C 138.07 162.96 137.91 164.08 138.51 164.87 C 139.10 165.66 140.22 165.82 141.01 165.23 L 141.82 164.62 C 142.61 164.03 142.77 162.90 142.18 162.11 C 141.59 161.32 140.46 161.16 139.67 161.76 Z M 138.87 162.36 L 138.05 162.97 C 137.25 163.56 137.09 164.68 137.68 165.48 C 138.27 166.27 139.39 166.44 140.19 165.85 L 141.01 165.23 C 141.80 164.64 141.97 163.52 141.38 162.73 C 140.78 161.93 139.66 161.77 138.87 162.36 Z M 138.05 162.97 L 137.22 163.58 C 136.42 164.17 136.26 165.29 136.84 166.09 C 137.43 166.88 138.55 167.05 139.35 166.46 L 140.18 165.85 C 140.98 165.26 141.15 164.14 140.56 163.34 C 139.97 162.55 138.85 162.38 138.05 162.97 Z M 137.22 163.58 L 136.41 164.18 C 135.61 164.76 135.44 165.88 136.03 166.68 C 136.62 167.48 137.74 167.65 138.54 167.06 L 139.35 166.47 C 140.14 165.88 140.31 164.76 139.73 163.96 C 139.14 163.16 138.02 162.99 137.22 163.58 Z M 136.41 164.17 L 135.60 164.77 C 134.80 165.36 134.63 166.48 135.21 167.28 C 135.80 168.08 136.92 168.25 137.72 167.66 L 138.53 167.07 C 139.33 166.48 139.51 165.36 138.92 164.56 C 138.33 163.76 137.21 163.59 136.41 164.17 Z M 135.60 164.77 L 134.78 165.37 C 133.98 165.95 133.81 167.07 134.39 167.87 C 134.98 168.67 136.10 168.85 136.90 168.26 L 137.72 167.66 C 138.52 167.08 138.69 165.96 138.11 165.16 C 137.52 164.36 136.40 164.19 135.60 164.77 Z M 134.78 165.37 L 133.96 165.96 C 133.16 166.55 132.99 167.67 133.57 168.47 C 134.15 169.27 135.28 169.45 136.08 168.86 L 136.90 168.27 C 137.70 167.68 137.87 166.56 137.29 165.76 C 136.71 164.96 135.58 164.78 134.78 165.37 Z M 133.97 165.96 L 133.15 166.56 C 132.35 167.14 132.17 168.26 132.75 169.06 C 133.33 169.86 134.46 170.04 135.26 169.46 L 136.07 168.86 C 136.88 168.28 137.05 167.16 136.47 166.36 C 135.89 165.56 134.77 165.38 133.97 165.96 Z M 133.15 166.55 L 132.34 167.14 C 131.54 167.72 131.36 168.84 131.94 169.65 C 132.52 170.45 133.64 170.63 134.44 170.05 L 135.25 169.46 C 136.06 168.88 136.24 167.76 135.66 166.96 C 135.08 166.15 133.95 165.97 133.15 166.55 Z M 132.34 167.14 L 131.54 167.72 C 130.74 168.30 130.56 169.42 131.14 170.22 C 131.71 171.03 132.84 171.21 133.64 170.63 L 134.44 170.05 C 135.24 169.47 135.43 168.35 134.85 167.54 C 134.27 166.74 133.15 166.56 132.34 167.14 Z M 131.54 167.72 L 130.75 168.29 C 129.95 168.86 129.76 169.98 130.34 170.79 C 130.92 171.59 132.04 171.78 132.85 171.20 L 133.64 170.63 C 134.44 170.05 134.62 168.93 134.05 168.13 C 133.47 167.32 132.35 167.14 131.54 167.72 Z M 130.75 168.28 L 129.93 168.87 C 129.13 169.45 128.94 170.57 129.52 171.37 C 130.10 172.18 131.22 172.36 132.02 171.79 L 132.84 171.20 C 133.65 170.62 133.83 169.50 133.26 168.70 C 132.68 167.89 131.56 167.71 130.75 168.28 Z M 129.94 168.87 L 129.10 169.47 C 128.29 170.05 128.11 171.17 128.68 171.97 C 129.26 172.78 130.38 172.96 131.18 172.39 L 132.02 171.79 C 132.83 171.21 133.01 170.09 132.44 169.29 C 131.86 168.48 130.74 168.29 129.94 168.87 Z M 129.10 169.47 L 128.27 170.06 C 127.47 170.64 127.28 171.76 127.86 172.56 C 128.44 173.37 129.56 173.55 130.36 172.98 L 131.18 172.39 C 131.99 171.81 132.18 170.69 131.60 169.88 C 131.02 169.08 129.90 168.89 129.10 169.47 Z M 128.27 170.06 L 127.46 170.64 C 126.66 171.22 126.47 172.34 127.05 173.15 C 127.63 173.95 128.75 174.13 129.56 173.56 L 130.37 172.97 C 131.17 172.40 131.35 171.27 130.78 170.47 C 130.20 169.67 129.08 169.48 128.27 170.06 Z M 127.46 170.65 L 126.66 171.22 C 125.86 171.81 125.68 172.93 126.26 173.73 C 126.84 174.53 127.96 174.71 128.76 174.13 L 129.56 173.55 C 130.36 172.97 130.54 171.85 129.96 171.05 C 129.38 170.24 128.26 170.06 127.46 170.65 Z M 126.65 171.23 L 125.86 171.81 C 125.06 172.39 124.88 173.52 125.47 174.32 C 126.06 175.12 127.18 175.29 127.98 174.71 L 128.77 174.13 C 129.57 173.54 129.74 172.42 129.16 171.62 C 128.57 170.82 127.45 170.64 126.65 171.23 Z M 125.85 171.82 L 125.06 172.40 C 124.26 172.99 124.10 174.12 124.69 174.91 C 125.28 175.71 126.40 175.87 127.20 175.28 L 127.99 174.70 C 128.78 174.11 128.95 172.98 128.36 172.19 C 127.77 171.39 126.64 171.23 125.85 171.82 Z M 125.05 172.41 L 124.26 173.00 C 123.47 173.60 123.31 174.73 123.91 175.52 C 124.51 176.31 125.63 176.46 126.42 175.87 L 127.21 175.27 C 128.00 174.68 128.16 173.55 127.56 172.76 C 126.97 171.97 125.84 171.81 125.05 172.41 Z M 124.25 173.01 L 123.48 173.61 C 122.69 174.21 122.54 175.34 123.15 176.12 C 123.75 176.91 124.88 177.06 125.66 176.45 L 126.44 175.86 C 127.22 175.25 127.37 174.13 126.77 173.34 C 126.16 172.56 125.04 172.41 124.25 173.01 Z M 123.47 173.62 L 122.69 174.22 C 121.91 174.83 121.77 175.96 122.38 176.74 C 122.99 177.52 124.12 177.66 124.90 177.05 L 125.67 176.44 C 126.45 175.83 126.59 174.71 125.98 173.93 C 125.37 173.15 124.25 173.01 123.47 173.62 Z M 122.68 174.23 L 121.91 174.84 C 121.13 175.46 121.00 176.58 121.61 177.36 C 122.23 178.14 123.35 178.27 124.13 177.66 L 124.91 177.04 C 125.68 176.43 125.82 175.30 125.20 174.52 C 124.59 173.75 123.46 173.61 122.68 174.23 Z M 121.90 174.85 L 121.12 175.47 C 120.35 176.09 120.22 177.21 120.84 177.99 C 121.45 178.76 122.58 178.89 123.35 178.27 L 124.13 177.65 C 124.91 177.03 125.04 175.91 124.42 175.13 C 123.80 174.36 122.68 174.23 121.90 174.85 Z M 121.12 175.47 L 120.33 176.10 C 119.56 176.72 119.44 177.85 120.05 178.62 C 120.67 179.39 121.80 179.51 122.57 178.90 L 123.36 178.27 C 124.13 177.65 124.25 176.52 123.64 175.75 C 123.02 174.98 121.89 174.86 121.12 175.47 Z M 120.33 176.10 L 119.54 176.74 C 118.77 177.35 118.65 178.48 119.27 179.25 C 119.88 180.02 121.01 180.15 121.78 179.53 L 122.57 178.90 C 123.34 178.28 123.47 177.15 122.85 176.38 C 122.23 175.61 121.10 175.48 120.33 176.10 Z M 119.55 176.73 L 118.75 177.37 C 117.98 177.99 117.85 179.11 118.47 179.89 C 119.09 180.66 120.21 180.78 120.99 180.16 L 121.78 179.53 C 122.55 178.91 122.68 177.79 122.06 177.01 C 121.44 176.24 120.32 176.12 119.55 176.73 Z M 118.75 177.37 L 117.96 178.00 C 117.19 178.62 117.06 179.74 117.67 180.51 C 118.29 181.29 119.41 181.41 120.19 180.80 L 120.98 180.17 C 121.75 179.55 121.88 178.43 121.27 177.65 C 120.65 176.88 119.53 176.75 118.75 177.37 Z M 117.96 178.00 L 117.18 178.62 C 116.41 179.23 116.27 180.35 116.89 181.13 C 117.50 181.90 118.62 182.04 119.40 181.42 L 120.18 180.80 C 120.96 180.19 121.09 179.07 120.47 178.29 C 119.86 177.52 118.74 177.39 117.96 178.00 Z M 117.18 178.61 L 116.40 179.23 C 115.62 179.84 115.48 180.97 116.09 181.74 C 116.70 182.52 117.83 182.65 118.60 182.05 L 119.39 181.43 C 120.17 180.82 120.30 179.69 119.69 178.92 C 119.08 178.14 117.96 178.01 117.18 178.61 Z M 116.40 179.23 L 115.61 179.85 C 114.83 180.45 114.69 181.58 115.30 182.35 C 115.90 183.13 117.03 183.27 117.80 182.67 L 118.60 182.05 C 119.38 181.44 119.51 180.32 118.91 179.54 C 118.30 178.76 117.18 178.62 116.40 179.23 Z M 115.61 179.84 L 114.82 180.46 C 114.04 181.06 113.90 182.18 114.50 182.96 C 115.10 183.74 116.22 183.89 117.00 183.28 L 117.80 182.67 C 118.58 182.07 118.72 180.94 118.12 180.16 C 117.52 179.38 116.39 179.24 115.61 179.84 Z M 114.82 180.46 L 114.03 181.07 C 113.25 181.67 113.10 182.79 113.70 183.57 C 114.30 184.35 115.42 184.50 116.20 183.90 L 117.00 183.29 C 117.78 182.69 117.93 181.57 117.33 180.78 C 116.73 180.00 115.61 179.85 114.82 180.46 Z M 114.04 181.06 L 113.24 181.67 C 112.46 182.27 112.31 183.39 112.90 184.17 C 113.50 184.95 114.62 185.11 115.40 184.51 L 116.20 183.90 C 116.98 183.30 117.13 182.18 116.54 181.40 C 115.94 180.62 114.82 180.47 114.04 181.06 Z M 113.25 181.67 L 112.45 182.27 C 111.67 182.86 111.51 183.98 112.11 184.76 C 112.70 185.55 113.82 185.71 114.61 185.11 L 115.40 184.51 C 116.18 183.92 116.34 182.80 115.75 182.01 C 115.15 181.23 114.03 181.07 113.25 181.67 Z M 112.46 182.26 L 111.65 182.87 C 110.87 183.46 110.71 184.58 111.30 185.36 C 111.89 186.15 113.01 186.31 113.80 185.72 L 114.60 185.11 C 115.39 184.52 115.55 183.40 114.96 182.62 C 114.36 181.83 113.25 181.67 112.46 182.26 Z M 111.66 182.86 L 110.83 183.48 C 110.04 184.07 109.87 185.19 110.46 185.98 C 111.05 186.77 112.17 186.93 112.96 186.34 L 113.79 185.72 C 114.58 185.13 114.74 184.02 114.15 183.23 C 113.57 182.44 112.45 182.27 111.66 182.86 Z M 110.83 183.48 L 110.01 184.09 C 109.22 184.67 109.05 185.79 109.63 186.58 C 110.22 187.37 111.33 187.54 112.13 186.96 L 112.95 186.34 C 113.74 185.76 113.91 184.64 113.33 183.85 C 112.74 183.06 111.63 182.89 110.83 183.48 Z M 110.01 184.09 L 109.19 184.69 C 108.40 185.27 108.23 186.38 108.81 187.18 C 109.39 187.97 110.51 188.14 111.30 187.56 L 112.12 186.96 C 112.91 186.38 113.08 185.26 112.50 184.47 C 111.92 183.68 110.81 183.51 110.01 184.09 Z M 109.20 184.68 L 108.39 185.27 C 107.60 185.85 107.42 186.96 108.00 187.76 C 108.58 188.55 109.69 188.73 110.48 188.15 L 111.29 187.56 C 112.09 186.98 112.26 185.87 111.69 185.08 C 111.11 184.28 110.00 184.11 109.20 184.68 Z M 108.40 185.27 L 107.59 185.85 C 106.80 186.42 106.62 187.54 107.19 188.33 C 107.77 189.13 108.88 189.31 109.68 188.73 L 110.48 188.15 C 111.27 187.58 111.45 186.47 110.88 185.67 C 110.30 184.88 109.19 184.70 108.40 185.27 Z M 107.60 185.85 L 106.81 186.41 C 106.01 186.98 105.83 188.09 106.40 188.89 C 106.97 189.69 108.08 189.87 108.88 189.30 L 109.67 188.74 C 110.47 188.16 110.65 187.05 110.08 186.26 C 109.51 185.46 108.40 185.28 107.60 185.85 Z M 106.82 186.41 L 106.04 186.96 C 105.24 187.53 105.05 188.64 105.62 189.44 C 106.19 190.24 107.30 190.43 108.10 189.86 L 108.87 189.30 C 109.67 188.74 109.86 187.63 109.29 186.83 C 108.72 186.03 107.62 185.84 106.82 186.41 Z M 106.04 186.96 L 105.21 187.55 C 104.41 188.11 104.22 189.22 104.78 190.02 C 105.34 190.82 106.45 191.01 107.25 190.45 L 108.09 189.86 C 108.89 189.30 109.08 188.19 108.52 187.39 C 107.95 186.59 106.85 186.40 106.04 186.96 Z M 105.21 187.55 L 104.37 188.13 C 103.57 188.70 103.38 189.80 103.94 190.60 C 104.50 191.41 105.60 191.60 106.41 191.04 L 107.25 190.45 C 108.05 189.89 108.24 188.79 107.68 187.98 C 107.12 187.18 106.02 186.99 105.21 187.55 Z M 104.38 188.13 L 103.55 188.71 C 102.75 189.27 102.55 190.37 103.11 191.17 C 103.67 191.98 104.77 192.18 105.57 191.62 L 106.40 191.04 C 107.20 190.48 107.40 189.38 106.84 188.58 C 106.29 187.77 105.18 187.57 104.38 188.13 Z M 103.56 188.71 L 102.74 189.27 C 101.93 189.83 101.73 190.93 102.29 191.73 C 102.84 192.54 103.95 192.74 104.75 192.18 L 105.57 191.62 C 106.37 191.06 106.57 189.96 106.02 189.16 C 105.46 188.35 104.36 188.15 103.56 188.71 Z M 102.74 189.27 L 101.93 189.83 C 101.13 190.38 100.92 191.48 101.48 192.29 C 102.03 193.09 103.13 193.30 103.94 192.74 L 104.75 192.19 C 105.55 191.63 105.76 190.53 105.20 189.72 C 104.65 188.92 103.55 188.72 102.74 189.27 Z M 101.93 189.83 L 101.13 190.38 C 100.32 190.93 100.12 192.04 100.67 192.84 C 101.22 193.64 102.32 193.85 103.13 193.30 L 103.93 192.74 C 104.74 192.19 104.94 191.09 104.39 190.29 C 103.84 189.48 102.74 189.28 101.93 189.83 Z M 101.13 190.38 L 100.32 190.94 C 99.52 191.49 99.31 192.59 99.86 193.39 C 100.42 194.20 101.52 194.40 102.32 193.85 L 103.13 193.30 C 103.93 192.74 104.14 191.64 103.58 190.84 C 103.03 190.04 101.93 189.83 101.13 190.38 Z M 100.32 190.94 L 99.46 191.53 C 98.65 192.08 98.45 193.18 99.00 193.99 C 99.55 194.79 100.65 194.99 101.46 194.44 L 102.32 193.85 C 103.12 193.30 103.33 192.20 102.77 191.40 C 102.22 190.59 101.12 190.39 100.32 190.94 Z M 99.46 191.54 L 98.60 192.12 C 97.80 192.68 97.60 193.77 98.15 194.57 C 98.70 195.38 99.80 195.58 100.60 195.03 L 101.45 194.44 C 102.26 193.89 102.46 192.79 101.91 191.99 C 101.36 191.19 100.26 190.98 99.46 191.54 Z M 98.60 192.13 L 97.76 192.71 C 96.96 193.26 96.76 194.35 97.31 195.15 C 97.86 195.95 98.95 196.16 99.75 195.60 L 100.60 195.02 C 101.40 194.47 101.60 193.38 101.05 192.58 C 100.50 191.78 99.40 191.58 98.60 192.13 Z M 97.76 192.71 L 96.94 193.28 C 96.14 193.83 95.94 194.92 96.49 195.72 C 97.04 196.52 98.13 196.72 98.93 196.17 L 99.75 195.60 C 100.55 195.05 100.75 193.96 100.20 193.16 C 99.65 192.36 98.56 192.16 97.76 192.71 Z M 96.94 193.28 L 96.14 193.83 C 95.34 194.38 95.14 195.47 95.69 196.27 C 96.24 197.07 97.34 197.27 98.13 196.72 L 98.93 196.17 C 99.73 195.62 99.93 194.52 99.38 193.73 C 98.83 192.93 97.73 192.73 96.94 193.28 Z M 96.14 193.84 L 95.38 194.37 C 94.58 194.92 94.38 196.01 94.93 196.80 C 95.48 197.59 96.57 197.79 97.37 197.24 L 98.13 196.71 C 98.93 196.16 99.13 195.07 98.58 194.28 C 98.03 193.48 96.94 193.29 96.14 193.84 Z M 95.38 194.37 L 94.50 194.98 C 93.71 195.53 93.51 196.62 94.06 197.41 C 94.61 198.20 95.70 198.40 96.49 197.85 L 97.37 197.24 C 98.16 196.69 98.36 195.60 97.81 194.81 C 97.26 194.02 96.17 193.82 95.38 194.37 Z M 94.50 194.99 L 93.65 195.58 C 92.86 196.13 92.67 197.21 93.22 198.00 C 93.77 198.79 94.85 198.98 95.64 198.43 L 96.49 197.84 C 97.28 197.29 97.47 196.20 96.92 195.42 C 96.37 194.63 95.29 194.44 94.50 194.99 Z M 93.64 195.59 L 92.83 196.16 C 92.05 196.71 91.86 197.79 92.42 198.58 C 92.97 199.36 94.05 199.55 94.83 199.00 L 95.64 198.42 C 96.43 197.87 96.61 196.79 96.06 196.01 C 95.51 195.22 94.43 195.04 93.64 195.59 Z M 92.83 196.17 L 92.05 196.73 C 91.27 197.28 91.09 198.36 91.64 199.14 C 92.20 199.92 93.28 200.10 94.06 199.54 L 94.84 198.99 C 95.62 198.43 95.80 197.35 95.24 196.57 C 94.69 195.80 93.61 195.61 92.83 196.17 Z M 92.04 196.74 L 91.28 197.29 C 90.51 197.85 90.34 198.93 90.90 199.70 C 91.45 200.47 92.53 200.64 93.30 200.08 L 94.06 199.53 C 94.84 198.97 95.01 197.89 94.45 197.12 C 93.89 196.35 92.81 196.18 92.04 196.74 Z M 91.27 197.30 L 90.46 197.90 C 89.70 198.47 89.53 199.54 90.10 200.31 C 90.66 201.07 91.74 201.23 92.50 200.67 L 93.31 200.07 C 94.07 199.51 94.24 198.43 93.67 197.67 C 93.11 196.90 92.03 196.74 91.27 197.30 Z M 90.45 197.91 L 89.64 198.52 C 88.88 199.09 88.73 200.16 89.29 200.92 C 89.86 201.68 90.93 201.83 91.69 201.26 L 92.50 200.66 C 93.26 200.09 93.42 199.02 92.85 198.26 C 92.28 197.50 91.21 197.35 90.45 197.91 Z M 89.64 198.53 L 88.84 199.14 C 88.09 199.70 87.94 200.77 88.50 201.52 C 89.07 202.28 90.14 202.43 90.89 201.86 L 91.69 201.26 C 92.44 200.69 92.59 199.62 92.03 198.87 C 91.46 198.12 90.39 197.96 89.64 198.53 Z M 88.84 199.14 L 88.05 199.73 C 87.31 200.30 87.16 201.36 87.72 202.11 C 88.28 202.86 89.35 203.01 90.10 202.45 L 90.89 201.85 C 91.64 201.29 91.79 200.22 91.22 199.48 C 90.66 198.73 89.59 198.58 88.84 199.14 Z M 88.06 199.74 L 87.26 200.33 C 86.52 200.89 86.36 201.95 86.92 202.70 C 87.48 203.45 88.54 203.60 89.29 203.04 L 90.09 202.45 C 90.84 201.89 90.99 200.83 90.43 200.08 C 89.87 199.33 88.81 199.18 88.06 199.74 Z M 87.27 200.34 L 86.42 200.96 C 85.68 201.52 85.52 202.57 86.07 203.32 C 86.63 204.07 87.68 204.23 88.43 203.67 L 89.28 203.04 C 90.03 202.49 90.18 201.43 89.63 200.69 C 89.08 199.94 88.02 199.78 87.27 200.34 Z M 86.43 200.97 L 85.61 201.57 C 84.87 202.13 84.71 203.18 85.27 203.92 C 85.82 204.67 86.87 204.82 87.61 204.27 L 88.43 203.67 C 89.17 203.11 89.33 202.06 88.78 201.32 C 88.22 200.57 87.17 200.42 86.43 200.97 Z M 85.61 201.59 L 84.84 202.17 C 84.10 202.72 83.95 203.77 84.51 204.51 C 85.06 205.24 86.11 205.39 86.85 204.84 L 87.62 204.26 C 88.35 203.70 88.50 202.65 87.95 201.92 C 87.39 201.18 86.35 201.03 85.61 201.59 Z M 84.82 202.19 L 84.05 202.79 C 83.32 203.35 83.19 204.40 83.76 205.12 C 84.32 205.85 85.37 205.98 86.09 205.41 L 86.86 204.82 C 87.59 204.25 87.72 203.21 87.15 202.48 C 86.59 201.76 85.54 201.63 84.82 202.19 Z M 84.02 202.82 L 83.18 203.50 C 82.48 204.08 82.37 205.12 82.95 205.83 C 83.53 206.54 84.57 206.65 85.28 206.07 L 86.12 205.39 C 86.83 204.81 86.93 203.76 86.35 203.06 C 85.78 202.35 84.73 202.24 84.02 202.82 Z M 83.17 203.53 L 82.42 204.16 C 81.72 204.75 81.63 205.79 82.22 206.49 C 82.81 207.18 83.85 207.27 84.54 206.68 L 85.30 206.05 C 85.99 205.46 86.08 204.42 85.49 203.72 C 84.90 203.03 83.86 202.94 83.17 203.53 Z M 82.41 204.17 L 81.71 204.76 C 81.02 205.35 80.94 206.39 81.53 207.08 C 82.12 207.77 83.15 207.86 83.85 207.27 L 84.55 206.67 C 85.24 206.08 85.32 205.05 84.73 204.35 C 84.14 203.66 83.11 203.58 82.41 204.17 Z M 81.73 204.76 L 80.91 205.44 C 80.21 206.02 80.12 207.06 80.70 207.75 C 81.28 208.45 82.31 208.54 83.00 207.96 L 83.83 207.28 C 84.52 206.70 84.62 205.66 84.04 204.97 C 83.46 204.27 82.43 204.18 81.73 204.76 Z M 80.93 205.43 L 80.22 206.00 C 79.51 206.57 79.40 207.60 79.97 208.30 C 80.53 209.00 81.56 209.12 82.27 208.55 L 82.98 207.98 C 83.68 207.41 83.79 206.38 83.23 205.68 C 82.66 204.98 81.63 204.86 80.93 205.43 Z M 80.31 205.97 L 79.38 206.64 C 78.66 207.15 78.49 208.15 79.01 208.87 C 79.52 209.59 80.52 209.76 81.24 209.25 L 82.17 208.58 C 82.89 208.07 83.06 207.07 82.55 206.35 C 82.03 205.63 81.03 205.46 80.31 205.97 Z M 81.84 208.08 L 81.88 207.63 C 81.96 206.78 81.34 206.03 80.49 205.95 C 79.65 205.88 78.90 206.50 78.82 207.35 L 78.78 207.80 C 78.70 208.65 79.32 209.40 80.17 209.47 C 81.01 209.55 81.76 208.93 81.84 208.08 Z M 81.64 208.23 L 81.98 207.64 C 82.39 206.93 82.14 206.02 81.43 205.61 C 80.71 205.20 79.80 205.45 79.39 206.16 L 79.06 206.75 C 78.65 207.46 78.90 208.37 79.61 208.78 C 80.33 209.19 81.24 208.94 81.64 208.23 Z"
      fill="black"
      fill-rule="nonzero" /><path d="M 146.17 163.41 L 146.25 164.43 C 146.31 165.25 147.02 165.87 147.84 165.81 C 148.67 165.75 149.29 165.03 149.23 164.21 L 149.15 163.20 C 149.09 162.37 148.38 161.75 147.55 161.81 C 146.73 161.87 146.11 162.59 146.17 163.41 Z M 146.11 164.41 L 146.16 165.40 C 146.22 166.30 146.99 166.98 147.89 166.93 C 148.79 166.88 149.47 166.11 149.42 165.21 L 149.36 164.22 C 149.31 163.32 148.54 162.64 147.64 162.69 C 146.74 162.74 146.05 163.51 146.11 164.41 Z M 146.08 165.35 L 146.10 166.33 C 146.13 167.28 146.92 168.02 147.87 168.00 C 148.81 167.97 149.56 167.18 149.53 166.23 L 149.51 165.26 C 149.48 164.31 148.69 163.56 147.74 163.59 C 146.80 163.62 146.05 164.40 146.08 165.35 Z M 146.08 166.29 L 146.09 167.30 C 146.09 168.26 146.87 169.03 147.83 169.03 C 148.79 169.02 149.57 168.24 149.56 167.28 L 149.56 166.27 C 149.55 165.31 148.77 164.54 147.81 164.54 C 146.85 164.55 146.08 165.33 146.08 166.29 Z M 146.07 167.29 L 146.07 168.22 C 146.07 169.19 146.86 169.97 147.82 169.97 C 148.79 169.97 149.58 169.19 149.58 168.22 L 149.58 167.29 C 149.58 166.32 148.79 165.54 147.82 165.54 C 146.86 165.54 146.07 166.32 146.07 167.29 Z M 146.06 168.22 L 146.06 169.22 C 146.06 170.20 146.85 170.98 147.82 170.98 C 148.80 170.98 149.59 170.20 149.59 169.22 L 149.59 168.22 C 149.59 167.25 148.80 166.46 147.82 166.46 C 146.85 166.46 146.06 167.25 146.06 168.22 Z M 146.05 169.22 L 146.05 170.26 C 146.05 171.24 146.84 172.04 147.82 172.04 C 148.80 172.04 149.60 171.24 149.60 170.26 L 149.60 169.22 C 149.60 168.24 148.80 167.45 147.82 167.45 C 146.84 167.45 146.05 168.24 146.05 169.22 Z M 146.04 170.26 L 146.04 171.19 C 146.04 172.18 146.84 172.98 147.82 172.98 C 148.81 172.98 149.61 172.18 149.61 171.19 L 149.61 170.26 C 149.61 169.28 148.81 168.48 147.82 168.48 C 146.84 168.48 146.04 169.28 146.04 170.26 Z M 146.04 171.19 L 146.04 172.20 C 146.04 173.19 146.84 173.99 147.82 173.99 C 148.81 173.99 149.61 173.19 149.61 172.20 L 149.61 171.19 C 149.61 170.21 148.81 169.41 147.82 169.41 C 146.84 169.41 146.04 170.21 146.04 171.19 Z M 146.03 172.20 L 146.03 173.29 C 146.03 174.28 146.83 175.08 147.82 175.08 C 148.81 175.08 149.62 174.28 149.62 173.29 L 149.62 172.20 C 149.62 171.21 148.81 170.41 147.82 170.41 C 146.83 170.41 146.03 171.21 146.03 172.20 Z M 146.02 173.29 L 146.03 174.23 C 146.03 175.22 146.83 176.03 147.82 176.03 C 148.82 176.03 149.62 175.22 149.62 174.23 L 149.62 173.29 C 149.62 172.29 148.82 171.49 147.82 171.49 C 146.83 171.49 146.02 172.29 146.02 173.29 Z M 146.02 174.23 L 146.02 175.20 C 146.02 176.20 146.83 177.00 147.83 177.00 C 148.82 177.00 149.63 176.19 149.63 175.20 L 149.63 174.23 C 149.63 173.23 148.82 172.42 147.82 172.43 C 146.83 172.43 146.02 173.24 146.02 174.23 Z M 146.02 175.20 L 146.02 176.22 C 146.02 177.22 146.83 178.03 147.83 178.02 C 148.83 178.02 149.64 177.21 149.64 176.21 L 149.63 175.19 C 149.63 174.19 148.82 173.39 147.82 173.39 C 146.82 173.39 146.01 174.20 146.02 175.20 Z M 146.01 176.22 L 146.02 177.28 C 146.03 178.28 146.84 179.09 147.84 179.09 C 148.85 179.08 149.65 178.26 149.65 177.26 L 149.64 176.20 C 149.64 175.20 148.82 174.39 147.82 174.40 C 146.82 174.40 146.01 175.22 146.01 176.22 Z M 146.01 177.29 L 146.02 178.27 C 146.03 179.27 146.85 180.08 147.86 180.07 C 148.86 180.07 149.67 179.24 149.66 178.24 L 149.65 177.26 C 149.64 176.25 148.82 175.44 147.82 175.45 C 146.81 175.46 146.01 176.28 146.01 177.29 Z M 146.02 178.28 L 146.03 179.24 C 146.04 180.24 146.87 181.05 147.87 181.04 C 148.88 181.03 149.69 180.20 149.68 179.20 L 149.67 178.23 C 149.66 177.23 148.83 176.42 147.82 176.43 C 146.81 176.44 146.01 177.27 146.02 178.28 Z M 146.02 179.24 L 146.04 180.23 C 146.05 181.24 146.88 182.05 147.89 182.04 C 148.90 182.02 149.71 181.19 149.70 180.18 L 149.68 179.19 C 149.67 178.18 148.84 177.37 147.83 177.39 C 146.82 177.40 146.01 178.23 146.02 179.24 Z M 146.03 180.24 L 146.05 181.26 C 146.07 182.27 146.90 183.08 147.91 183.06 C 148.93 183.05 149.74 182.21 149.72 181.20 L 149.70 180.18 C 149.69 179.16 148.85 178.36 147.84 178.37 C 146.82 178.39 146.02 179.22 146.03 180.24 Z M 146.04 181.26 L 146.06 182.31 C 146.08 183.33 146.92 184.14 147.94 184.12 C 148.95 184.10 149.76 183.26 149.74 182.24 L 149.72 181.19 C 149.70 180.18 148.87 179.37 147.85 179.39 C 146.83 179.41 146.02 180.25 146.04 181.26 Z M 146.06 182.32 L 146.08 183.31 C 146.10 184.33 146.95 185.14 147.96 185.12 C 148.98 185.10 149.79 184.25 149.77 183.23 L 149.75 182.24 C 149.73 181.22 148.88 180.41 147.86 180.43 C 146.85 180.46 146.04 181.30 146.06 182.32 Z M 146.08 183.32 L 146.10 184.30 C 146.13 185.32 146.97 186.13 147.99 186.10 C 149.01 186.08 149.82 185.23 149.80 184.21 L 149.77 183.23 C 149.75 182.21 148.90 181.40 147.88 181.43 C 146.86 181.45 146.05 182.30 146.08 183.32 Z M 146.10 184.31 L 146.13 185.31 C 146.16 186.33 147.01 187.13 148.03 187.10 C 149.05 187.07 149.86 186.22 149.83 185.20 L 149.80 184.20 C 149.77 183.18 148.92 182.38 147.90 182.41 C 146.87 182.43 146.07 183.29 146.10 184.31 Z M 146.13 185.32 L 146.16 186.33 C 146.20 187.35 147.05 188.15 148.08 188.11 C 149.10 188.08 149.90 187.22 149.86 186.20 L 149.83 185.19 C 149.79 184.17 148.94 183.36 147.91 183.40 C 146.89 183.44 146.09 184.29 146.13 185.32 Z M 146.16 186.34 L 146.20 187.35 C 146.24 188.38 147.11 189.17 148.13 189.13 C 149.16 189.09 149.95 188.22 149.91 187.20 L 149.87 186.18 C 149.82 185.16 148.96 184.36 147.93 184.41 C 146.91 184.45 146.11 185.31 146.16 186.34 Z M 146.20 187.37 L 146.25 188.39 C 146.30 189.41 147.18 190.20 148.20 190.15 C 149.23 190.10 150.01 189.22 149.96 188.20 L 149.91 187.18 C 149.86 186.16 148.99 185.37 147.96 185.42 C 146.94 185.47 146.15 186.35 146.20 187.37 Z M 146.25 188.40 L 146.31 189.38 C 146.37 190.41 147.25 191.19 148.28 191.13 C 149.30 191.06 150.08 190.18 150.02 189.16 L 149.96 188.18 C 149.90 187.15 149.02 186.37 147.99 186.43 C 146.97 186.50 146.19 187.38 146.25 188.40 Z M 146.31 189.39 L 146.37 190.38 C 146.44 191.40 147.33 192.18 148.36 192.11 C 149.38 192.04 150.16 191.15 150.09 190.12 L 150.02 189.14 C 149.95 188.12 149.06 187.34 148.04 187.41 C 147.01 187.48 146.24 188.37 146.31 189.39 Z M 146.37 190.39 L 146.45 191.38 C 146.52 192.40 147.42 193.17 148.44 193.09 C 149.47 193.02 150.24 192.13 150.16 191.10 L 150.09 190.11 C 150.01 189.09 149.12 188.32 148.09 188.39 C 147.07 188.47 146.30 189.36 146.37 190.39 Z M 146.45 191.38 L 146.53 192.38 C 146.61 193.41 147.50 194.18 148.53 194.10 C 149.56 194.01 150.32 193.12 150.24 192.09 L 150.16 191.09 C 150.08 190.07 149.18 189.30 148.16 189.38 C 147.13 189.46 146.37 190.36 146.45 191.38 Z M 146.53 192.39 L 146.61 193.41 C 146.69 194.43 147.59 195.20 148.62 195.11 C 149.64 195.03 150.41 194.13 150.32 193.10 L 150.24 192.09 C 150.16 191.06 149.26 190.30 148.23 190.38 C 147.21 190.46 146.44 191.36 146.53 192.39 Z M 146.61 193.41 L 146.69 194.42 C 146.78 195.44 147.68 196.21 148.70 196.12 C 149.73 196.04 150.49 195.14 150.41 194.11 L 150.33 193.10 C 150.24 192.07 149.34 191.31 148.31 191.40 C 147.29 191.48 146.52 192.38 146.61 193.41 Z M 146.69 194.42 L 146.77 195.37 C 146.86 196.40 147.76 197.16 148.78 197.08 C 149.81 196.99 150.57 196.09 150.49 195.07 L 150.41 194.11 C 150.32 193.08 149.42 192.32 148.40 192.41 C 147.37 192.49 146.61 193.39 146.69 194.42 Z M 146.77 195.37 L 146.85 196.35 C 146.94 197.37 147.84 198.13 148.86 198.05 C 149.89 197.96 150.65 197.06 150.57 196.04 L 150.49 195.07 C 150.40 194.04 149.50 193.28 148.48 193.36 C 147.45 193.45 146.69 194.35 146.77 195.37 Z M 146.85 196.35 L 146.94 197.34 C 147.02 198.36 147.92 199.12 148.95 199.04 C 149.97 198.95 150.73 198.05 150.65 197.03 L 150.57 196.04 C 150.48 195.01 149.58 194.25 148.56 194.33 C 147.53 194.42 146.77 195.32 146.85 196.35 Z M 146.94 197.34 L 147.02 198.34 C 147.11 199.37 148.01 200.13 149.03 200.04 C 150.06 199.96 150.82 199.06 150.73 198.03 L 150.65 197.03 C 150.56 196.00 149.66 195.24 148.64 195.33 C 147.61 195.41 146.85 196.31 146.94 197.34 Z M 147.02 198.34 L 147.11 199.37 C 147.19 200.39 148.09 201.15 149.12 201.06 C 150.14 200.98 150.90 200.08 150.82 199.05 L 150.73 198.03 C 150.65 197.01 149.74 196.25 148.72 196.33 C 147.70 196.42 146.94 197.32 147.02 198.34 Z M 147.11 199.37 L 147.20 200.40 C 147.28 201.43 148.18 202.19 149.21 202.10 C 150.23 202.01 150.99 201.11 150.90 200.09 L 150.82 199.05 C 150.73 198.03 149.83 197.27 148.80 197.36 C 147.78 197.44 147.02 198.34 147.11 199.37 Z M 147.20 200.41 L 147.28 201.40 C 147.37 202.42 148.27 203.18 149.29 203.09 C 150.32 203.01 151.07 202.11 150.99 201.08 L 150.90 200.09 C 150.81 199.07 149.91 198.31 148.89 198.39 C 147.87 198.48 147.11 199.38 147.20 200.41 Z M 147.29 201.40 L 147.37 202.39 C 147.46 203.41 148.36 204.17 149.38 204.08 C 150.40 203.99 151.16 203.09 151.07 202.07 L 150.98 201.08 C 150.90 200.06 150.00 199.30 148.97 199.39 C 147.95 199.48 147.20 200.38 147.29 201.40 Z M 147.38 202.40 L 147.46 203.39 C 147.55 204.41 148.45 205.17 149.47 205.08 C 150.49 204.99 151.24 204.09 151.15 203.07 L 151.07 202.07 C 150.98 201.05 150.08 200.30 149.06 200.39 C 148.04 200.48 147.29 201.38 147.38 202.40 Z M 147.47 203.40 L 147.56 204.40 C 147.65 205.42 148.55 206.17 149.57 206.07 C 150.58 205.98 151.33 205.08 151.24 204.07 L 151.15 203.06 C 151.06 202.05 150.16 201.30 149.14 201.39 C 148.13 201.48 147.38 202.38 147.47 203.40 Z M 147.56 204.40 L 147.65 205.40 C 147.75 206.42 148.65 207.17 149.66 207.07 C 150.68 206.98 151.42 206.08 151.33 205.06 L 151.24 204.06 C 151.14 203.05 150.24 202.30 149.23 202.39 C 148.21 202.49 147.47 203.39 147.56 204.40 Z M 147.66 205.41 L 147.75 206.41 C 147.85 207.42 148.75 208.17 149.76 208.07 C 150.78 207.97 151.52 207.07 151.42 206.06 L 151.33 205.06 C 151.23 204.05 150.33 203.30 149.32 203.40 C 148.30 203.50 147.56 204.40 147.66 205.41 Z M 147.76 206.42 L 147.86 207.41 C 147.96 208.42 148.86 209.16 149.87 209.06 C 150.88 208.96 151.62 208.06 151.52 207.05 L 151.42 206.05 C 151.32 205.04 150.42 204.30 149.41 204.40 C 148.40 204.50 147.66 205.41 147.76 206.42 Z M 147.86 207.42 L 147.97 208.43 C 148.07 209.44 148.97 210.17 149.98 210.07 C 150.99 209.96 151.72 209.06 151.62 208.05 L 151.51 207.04 C 151.41 206.03 150.51 205.30 149.50 205.40 C 148.49 205.51 147.76 206.41 147.86 207.42 Z M 147.97 208.44 L 148.08 209.45 C 148.19 210.45 149.09 211.18 150.09 211.07 C 151.10 210.96 151.82 210.06 151.72 209.06 L 151.61 208.05 C 151.50 207.04 150.60 206.32 149.60 206.42 C 148.59 206.53 147.86 207.43 147.97 208.44 Z M 148.08 209.45 L 148.19 210.45 C 148.30 211.45 149.20 212.18 150.21 212.07 C 151.21 211.96 151.93 211.06 151.82 210.05 L 151.71 209.05 C 151.60 208.05 150.70 207.33 149.70 207.44 C 148.70 207.55 147.97 208.45 148.08 209.45 Z M 148.20 210.45 L 148.31 211.45 C 148.42 212.45 149.32 213.17 150.32 213.05 C 151.32 212.94 152.04 212.04 151.93 211.04 L 151.82 210.05 C 151.71 209.05 150.81 208.33 149.81 208.44 C 148.81 208.55 148.09 209.45 148.20 210.45 Z M 148.31 211.45 L 148.42 212.43 C 148.53 213.43 149.43 214.15 150.43 214.04 C 151.43 213.92 152.14 213.02 152.03 212.03 L 151.92 211.04 C 151.81 210.05 150.91 209.33 149.91 209.44 C 148.92 209.55 148.20 210.45 148.31 211.45 Z M 148.43 212.43 L 148.54 213.41 C 148.65 214.41 149.55 215.12 150.54 215.01 C 151.53 214.90 152.25 214.00 152.14 213.01 L 152.03 212.03 C 151.92 211.03 151.02 210.32 150.03 210.43 C 149.03 210.54 148.32 211.44 148.43 212.43 Z M 148.54 213.41 L 148.65 214.38 C 148.76 215.38 149.66 216.09 150.65 215.98 C 151.64 215.87 152.35 214.98 152.24 213.98 L 152.13 213.01 C 152.02 212.02 151.13 211.30 150.14 211.41 C 149.15 211.52 148.43 212.42 148.54 213.41 Z M 148.66 214.38 L 148.76 215.36 C 148.87 216.35 149.76 217.06 150.75 216.95 C 151.74 216.84 152.45 215.95 152.34 214.97 L 152.24 213.99 C 152.13 213.00 151.24 212.29 150.25 212.39 C 149.26 212.50 148.55 213.39 148.66 214.38 Z M 148.77 215.36 L 148.88 216.34 C 148.98 217.32 149.87 218.03 150.86 217.93 C 151.84 217.82 152.55 216.93 152.45 215.95 L 152.34 214.97 C 152.23 213.98 151.35 213.27 150.36 213.38 C 149.38 213.49 148.66 214.37 148.77 215.36 Z M 148.88 216.33 L 148.99 217.31 C 149.09 218.30 149.97 219.01 150.96 218.90 C 151.94 218.80 152.65 217.92 152.54 216.93 L 152.44 215.95 C 152.33 214.97 151.45 214.26 150.47 214.36 C 149.49 214.47 148.78 215.35 148.88 216.33 Z M 148.99 217.31 L 149.10 218.30 C 149.20 219.28 150.08 219.99 151.06 219.89 C 152.04 219.78 152.75 218.91 152.64 217.93 L 152.54 216.94 C 152.44 215.96 151.56 215.25 150.58 215.35 C 149.60 215.45 148.89 216.33 148.99 217.31 Z M 149.10 218.30 L 149.21 219.30 C 149.31 220.27 150.18 220.98 151.16 220.88 C 152.13 220.78 152.84 219.91 152.74 218.93 L 152.64 217.93 C 152.54 216.96 151.66 216.25 150.69 216.35 C 149.71 216.45 149.00 217.32 149.10 218.30 Z M 149.21 219.29 L 149.32 220.31 C 149.42 221.29 150.28 221.99 151.26 221.89 C 152.23 221.80 152.94 220.93 152.84 219.96 L 152.73 218.94 C 152.64 217.97 151.77 217.26 150.80 217.36 C 149.82 217.46 149.12 218.32 149.21 219.29 Z M 149.32 220.31 L 149.42 221.31 C 149.52 222.28 150.38 222.99 151.35 222.89 C 152.32 222.80 153.03 221.93 152.93 220.96 L 152.83 219.96 C 152.73 218.99 151.87 218.28 150.90 218.38 C 149.93 218.48 149.23 219.34 149.32 220.31 Z M 149.43 221.31 L 149.53 222.30 C 149.62 223.27 150.48 223.97 151.45 223.88 C 152.41 223.78 153.12 222.93 153.02 221.96 L 152.93 220.97 C 152.83 220.00 151.97 219.30 151.01 219.39 C 150.04 219.49 149.34 220.35 149.43 221.31 Z M 149.53 222.30 L 149.63 223.30 C 149.72 224.26 150.58 224.97 151.54 224.88 C 152.50 224.78 153.21 223.93 153.11 222.97 L 153.02 221.96 C 152.93 221.00 152.07 220.30 151.11 220.39 C 150.15 220.48 149.44 221.34 149.53 222.30 Z M 149.63 223.30 L 149.73 224.30 C 149.82 225.26 150.67 225.97 151.63 225.88 C 152.59 225.79 153.29 224.94 153.20 223.98 L 153.11 222.97 C 153.02 222.01 152.17 221.31 151.21 221.40 C 150.25 221.49 149.54 222.34 149.63 223.30 Z M 149.73 224.30 L 149.83 225.31 C 149.92 226.26 150.76 226.97 151.72 226.88 C 152.67 226.79 153.38 225.94 153.29 224.99 L 153.20 223.98 C 153.11 223.02 152.26 222.32 151.31 222.41 C 150.35 222.50 149.65 223.34 149.73 224.30 Z M 149.83 225.30 L 149.92 226.30 C 150.01 227.26 150.85 227.96 151.80 227.87 C 152.76 227.79 153.46 226.95 153.37 225.99 L 153.29 224.99 C 153.20 224.04 152.36 223.34 151.40 223.42 C 150.45 223.51 149.75 224.35 149.83 225.30 Z M 149.93 226.30 L 150.01 227.28 C 150.10 228.24 150.93 228.94 151.88 228.86 C 152.83 228.77 153.54 227.94 153.46 226.98 L 153.37 226.00 C 153.29 225.05 152.45 224.34 151.50 224.43 C 150.55 224.51 149.84 225.35 149.93 226.30 Z M 150.02 227.28 L 150.10 228.29 C 150.18 229.24 151.02 229.94 151.96 229.86 C 152.91 229.78 153.62 228.95 153.54 228.00 L 153.45 226.99 C 153.37 226.04 152.54 225.34 151.59 225.42 C 150.64 225.50 149.94 226.33 150.02 227.28 Z M 150.11 228.29 L 150.19 229.33 C 150.27 230.28 151.10 230.98 152.04 230.91 C 152.99 230.83 153.69 230.00 153.62 229.05 L 153.53 228.01 C 153.46 227.06 152.63 226.36 151.68 226.44 C 150.74 226.51 150.03 227.34 150.11 228.29 Z M 150.19 229.33 L 150.27 230.35 C 150.35 231.29 151.17 232.00 152.12 231.93 C 153.06 231.85 153.77 231.03 153.69 230.08 L 153.61 229.06 C 153.54 228.12 152.72 227.41 151.77 227.48 C 150.83 227.56 150.12 228.38 150.19 229.33 Z M 150.28 230.34 L 150.35 231.34 C 150.42 232.29 151.24 232.99 152.19 232.92 C 153.13 232.85 153.84 232.03 153.77 231.09 L 153.69 230.09 C 153.62 229.15 152.80 228.44 151.86 228.51 C 150.91 228.58 150.21 229.40 150.28 230.34 Z M 150.35 231.34 L 150.42 232.32 C 150.49 233.26 151.31 233.97 152.25 233.90 C 153.19 233.83 153.90 233.02 153.83 232.07 L 153.76 231.09 C 153.70 230.15 152.88 229.44 151.94 229.51 C 151.00 229.58 150.29 230.40 150.35 231.34 Z M 150.43 232.31 L 150.49 233.27 C 150.56 234.21 151.37 234.92 152.31 234.86 C 153.25 234.79 153.96 233.98 153.90 233.04 L 153.83 232.08 C 153.77 231.14 152.95 230.43 152.01 230.49 C 151.07 230.56 150.36 231.37 150.43 232.31 Z M 150.49 233.27 L 150.56 234.22 C 150.62 235.15 151.43 235.87 152.37 235.80 C 153.31 235.74 154.02 234.93 153.96 233.99 L 153.89 233.05 C 153.83 232.11 153.02 231.40 152.08 231.46 C 151.14 231.52 150.43 232.33 150.49 233.27 Z M 150.56 234.21 L 150.62 235.25 C 150.68 236.19 151.49 236.90 152.43 236.85 C 153.37 236.79 154.08 235.98 154.02 235.04 L 153.96 234.00 C 153.90 233.06 153.09 232.35 152.15 232.41 C 151.21 232.46 150.50 233.27 150.56 234.21 Z M 150.62 235.25 L 150.68 236.27 C 150.74 237.21 151.55 237.93 152.48 237.87 C 153.42 237.81 154.14 237.01 154.08 236.07 L 154.02 235.05 C 153.96 234.11 153.16 233.39 152.22 233.45 C 151.28 233.50 150.57 234.31 150.62 235.25 Z M 150.68 236.27 L 150.74 237.27 C 150.79 238.21 151.60 238.93 152.54 238.88 C 153.48 238.82 154.19 238.02 154.14 237.08 L 154.08 236.07 C 154.03 235.14 153.22 234.42 152.29 234.47 C 151.35 234.53 150.63 235.33 150.68 236.27 Z M 150.74 237.27 L 150.79 238.25 C 150.85 239.19 151.65 239.91 152.59 239.86 C 153.53 239.81 154.24 239.01 154.19 238.07 L 154.14 237.08 C 154.09 236.14 153.29 235.42 152.35 235.48 C 151.41 235.53 150.69 236.33 150.74 237.27 Z M 150.79 238.25 L 150.84 239.22 C 150.89 240.16 151.70 240.88 152.63 240.83 C 153.57 240.78 154.29 239.98 154.24 239.04 L 154.19 238.07 C 154.14 237.13 153.34 236.41 152.40 236.46 C 151.47 236.51 150.74 237.31 150.79 238.25 Z M 150.84 239.21 L 150.89 240.19 C 150.94 241.13 151.74 241.85 152.68 241.80 C 153.62 241.76 154.34 240.95 154.30 240.02 L 154.25 239.04 C 154.20 238.10 153.40 237.38 152.46 237.43 C 151.52 237.47 150.80 238.28 150.84 239.21 Z M 150.89 240.19 L 150.94 241.20 C 150.99 242.14 151.79 242.87 152.73 242.82 C 153.67 242.77 154.39 241.97 154.35 241.03 L 154.30 240.02 C 154.25 239.08 153.45 238.35 152.51 238.40 C 151.57 238.45 150.85 239.25 150.89 240.19 Z M 150.94 241.20 L 150.99 242.20 C 151.03 243.14 151.83 243.86 152.77 243.82 C 153.71 243.78 154.44 242.98 154.39 242.04 L 154.35 241.04 C 154.30 240.10 153.51 239.37 152.57 239.41 C 151.62 239.46 150.90 240.26 150.94 241.20 Z M 150.99 242.19 L 151.03 243.18 C 151.07 244.12 151.86 244.85 152.81 244.81 C 153.75 244.77 154.48 243.98 154.44 243.04 L 154.40 242.04 C 154.36 241.10 153.56 240.37 152.62 240.41 C 151.68 240.45 150.95 241.25 150.99 242.19 Z M 151.03 243.17 L 151.06 244.16 C 151.10 245.10 151.89 245.84 152.84 245.80 C 153.78 245.77 154.51 244.97 154.48 244.03 L 154.44 243.04 C 154.40 242.10 153.61 241.37 152.67 241.40 C 151.73 241.44 150.99 242.23 151.03 243.17 Z M 151.06 244.15 L 151.09 245.14 C 151.12 246.09 151.91 246.83 152.86 246.79 C 153.80 246.76 154.54 245.97 154.51 245.03 L 154.48 244.04 C 154.45 243.10 153.66 242.36 152.72 242.39 C 151.77 242.42 151.03 243.21 151.06 244.15 Z M 151.09 245.13 L 151.12 246.11 C 151.14 247.06 151.93 247.80 152.87 247.78 C 153.82 247.75 154.56 246.97 154.54 246.02 L 154.51 245.04 C 154.49 244.10 153.70 243.35 152.76 243.38 C 151.81 243.40 151.07 244.19 151.09 245.13 Z M 151.12 246.10 L 151.14 247.09 C 151.16 248.04 151.94 248.79 152.89 248.77 C 153.83 248.75 154.58 247.96 154.56 247.02 L 154.54 246.03 C 154.52 245.08 153.74 244.33 152.79 244.35 C 151.85 244.37 151.10 245.16 151.12 246.10 Z M 151.14 247.08 L 151.15 248.08 C 151.17 249.03 151.95 249.78 152.89 249.77 C 153.84 249.75 154.59 248.97 154.58 248.03 L 154.56 247.03 C 154.55 246.08 153.77 245.33 152.82 245.34 C 151.88 245.36 151.12 246.14 151.14 247.08 Z M 151.15 248.07 L 151.16 249.08 C 151.18 250.03 151.95 250.79 152.90 250.78 C 153.85 250.76 154.60 249.99 154.59 249.04 L 154.58 248.03 C 154.57 247.09 153.79 246.33 152.84 246.34 C 151.90 246.35 151.14 247.13 151.15 248.07 Z M 151.16 249.08 L 151.17 250.10 C 151.18 251.04 151.95 251.81 152.90 251.80 C 153.85 251.79 154.61 251.01 154.60 250.07 L 154.59 249.05 C 154.58 248.10 153.81 247.34 152.86 247.35 C 151.92 247.36 151.15 248.13 151.16 249.08 Z M 151.17 250.09 L 151.18 251.09 C 151.18 252.03 151.96 252.80 152.90 252.79 C 153.85 252.79 154.61 252.01 154.61 251.07 L 154.60 250.07 C 154.60 249.12 153.82 248.36 152.88 248.37 C 151.93 248.37 151.17 249.14 151.17 250.09 Z M 151.18 251.08 L 151.18 252.08 C 151.18 253.02 151.96 253.79 152.90 253.79 C 153.85 253.78 154.62 253.01 154.61 252.06 L 154.61 251.07 C 154.61 250.12 153.83 249.36 152.89 249.36 C 151.94 249.36 151.17 250.13 151.18 251.08 Z M 151.18 252.07 L 151.18 253.07 C 151.18 254.02 151.96 254.79 152.90 254.79 C 153.85 254.78 154.62 254.01 154.62 253.06 L 154.61 252.06 C 154.61 251.12 153.84 250.35 152.89 250.35 C 151.94 250.35 151.18 251.12 151.18 252.07 Z M 151.18 253.07 L 151.18 254.07 C 151.18 255.02 151.95 255.79 152.90 255.79 C 153.85 255.79 154.62 255.02 154.62 254.07 L 154.62 253.07 C 154.62 252.12 153.85 251.35 152.90 251.35 C 151.95 251.35 151.18 252.12 151.18 253.07 Z M 151.18 254.07 L 151.18 255.08 C 151.18 256.03 151.95 256.80 152.90 256.80 C 153.85 256.80 154.62 256.03 154.62 255.08 L 154.62 254.07 C 154.62 253.12 153.85 252.35 152.90 252.35 C 151.95 252.35 151.18 253.12 151.18 254.07 Z M 151.18 255.08 L 151.18 255.90 C 151.18 256.85 151.95 257.62 152.90 257.62 C 153.85 257.62 154.62 256.85 154.62 255.90 L 154.62 255.08 C 154.62 254.13 153.85 253.36 152.90 253.36 C 151.95 253.36 151.18 254.13 151.18 255.08 Z"
      fill="black"
      fill-rule="nonzero" /></svg>