<svg xmlns="http://www.w3.org/2000/svg" width="300" height="300" viewBox="0 0 300 300">
<path d="M 117.00 153.75 L 117.01 152.72 C 117.01 151.92 116.36 151.27 115.57 151.27 C 114.77 151.27 114.12 151.91 114.12 152.71 L 114.11 153.74 C 114.11 154.54 114.76 155.19 115.55 155.19 C 116.35 155.19 117.00 154.55 117.00 153.75 Z M 117.01 152.75 L 117.03 151.77 C 117.05 150.97 116.41 150.31 115.61 150.29 C 114.81 150.27 114.15 150.91 114.13 151.71 L 114.11 152.69 C 114.09 153.49 114.73 154.15 115.53 154.17 C 116.33 154.18 116.99 153.55 117.01 152.75 Z M 117.03 151.89 L 117.14 150.86 C 117.23 150.06 116.65 149.34 115.84 149.25 C 115.04 149.17 114.32 149.75 114.24 150.55 L 114.13 151.59 C 114.05 152.39 114.63 153.11 115.43 153.19 C 116.23 153.28 116.95 152.69 117.03 151.89 Z M 116.99 151.41 L 117.42 150.61 C 117.81 149.90 117.54 149.00 116.83 148.61 C 116.11 148.22 115.22 148.49 114.83 149.20 L 114.40 150.00 C 114.01 150.72 114.27 151.61 114.99 152.00 C 115.70 152.39 116.60 152.13 116.99 151.41 Z M 116.88 151.20 L 117.71 150.71 C 118.42 150.29 118.66 149.38 118.24 148.67 C 117.82 147.96 116.91 147.72 116.20 148.14 L 115.37 148.62 C 114.66 149.04 114.42 149.95 114.84 150.66 C 115.25 151.38 116.17 151.61 116.88 151.20 Z M 117.33 150.88 L 118.32 150.62 C 119.13 150.41 119.61 149.59 119.40 148.78 C 119.19 147.97 118.36 147.49 117.56 147.70 L 116.57 147.96 C 115.76 148.17 115.28 149.00 115.49 149.81 C 115.70 150.61 116.53 151.10 117.33 150.88 Z M 118.12 150.68 L 119.07 150.56 C 119.91 150.46 120.50 149.71 120.40 148.87 C 120.30 148.04 119.55 147.44 118.71 147.54 L 117.76 147.65 C 116.93 147.75 116.33 148.51 116.43 149.34 C 116.53 150.18 117.29 150.78 118.12 150.68 Z M 118.96 150.58 L 120.04 150.53 C 120.88 150.49 121.54 149.77 121.50 148.93 C 121.46 148.08 120.74 147.43 119.90 147.47 L 118.82 147.52 C 117.97 147.56 117.32 148.28 117.36 149.12 C 117.40 149.97 118.12 150.62 118.96 150.58 Z M 119.99 150.54 L 121.00 150.52 C 121.85 150.51 122.53 149.81 122.51 148.96 C 122.50 148.11 121.80 147.43 120.95 147.45 L 119.94 147.46 C 119.09 147.47 118.41 148.17 118.43 149.02 C 118.44 149.87 119.14 150.55 119.99 150.54 Z M 120.96 150.53 L 121.98 150.54 C 122.84 150.55 123.54 149.86 123.54 149.01 C 123.55 148.16 122.87 147.46 122.01 147.45 L 120.99 147.44 C 120.14 147.43 119.44 148.12 119.43 148.97 C 119.42 149.82 120.10 150.52 120.96 150.53 Z M 121.93 150.54 L 122.92 150.59 C 123.78 150.63 124.51 149.97 124.55 149.11 C 124.59 148.26 123.92 147.53 123.07 147.49 L 122.07 147.45 C 121.22 147.41 120.49 148.07 120.45 148.92 C 120.41 149.78 121.07 150.50 121.93 150.54 Z M 122.83 150.59 L 123.85 150.70 C 124.70 150.79 125.47 150.18 125.56 149.32 C 125.66 148.47 125.04 147.70 124.19 147.61 L 123.17 147.50 C 122.31 147.40 121.55 148.02 121.45 148.87 C 121.36 149.73 121.98 150.49 122.83 150.59 Z M 123.74 150.68 L 124.66 150.85 C 125.51 151.01 126.32 150.45 126.47 149.60 C 126.63 148.76 126.07 147.95 125.22 147.79 L 124.30 147.62 C 123.45 147.47 122.64 148.03 122.49 148.87 C 122.33 149.72 122.89 150.53 123.74 150.68 Z M 124.59 150.84 L 125.53 151.06 C 126.36 151.25 127.20 150.73 127.40 149.89 C 127.59 149.05 127.07 148.22 126.23 148.02 L 125.29 147.81 C 124.46 147.61 123.62 148.13 123.42 148.97 C 123.23 149.81 123.75 150.65 124.59 150.84 Z M 125.51 151.06 L 126.51 151.30 C 127.35 151.50 128.19 150.99 128.39 150.15 C 128.60 149.32 128.08 148.47 127.25 148.27 L 126.25 148.03 C 125.41 147.82 124.57 148.33 124.36 149.17 C 124.16 150.01 124.67 150.85 125.51 151.06 Z M 126.53 151.31 L 127.49 151.52 C 128.33 151.72 129.17 151.19 129.36 150.35 C 129.55 149.51 129.02 148.67 128.18 148.48 L 127.23 148.26 C 126.38 148.07 125.55 148.60 125.36 149.44 C 125.16 150.28 125.69 151.11 126.53 151.31 Z M 127.50 151.53 L 128.49 151.74 C 129.33 151.93 130.16 151.40 130.35 150.55 C 130.53 149.71 130.00 148.88 129.16 148.69 L 128.17 148.48 C 127.33 148.29 126.49 148.82 126.31 149.67 C 126.13 150.51 126.66 151.34 127.50 151.53 Z M 128.48 151.75 L 129.47 151.97 C 130.31 152.16 131.15 151.62 131.34 150.78 C 131.53 149.94 131.00 149.10 130.15 148.91 L 129.16 148.69 C 128.32 148.50 127.48 149.03 127.29 149.88 C 127.11 150.72 127.64 151.56 128.48 151.75 Z M 129.46 151.97 L 130.42 152.19 C 131.26 152.39 132.11 151.87 132.31 151.02 C 132.50 150.18 131.98 149.33 131.13 149.13 L 130.17 148.91 C 129.32 148.71 128.48 149.24 128.28 150.08 C 128.08 150.93 128.61 151.77 129.46 151.97 Z M 130.41 152.20 L 131.39 152.43 C 132.24 152.63 133.09 152.11 133.29 151.26 C 133.49 150.41 132.97 149.56 132.12 149.36 L 131.14 149.13 C 130.29 148.93 129.44 149.45 129.24 150.30 C 129.04 151.15 129.57 152.00 130.41 152.20 Z M 131.40 152.44 L 132.36 152.66 C 133.21 152.86 134.06 152.32 134.26 151.47 C 134.45 150.62 133.92 149.76 133.07 149.57 L 132.11 149.35 C 131.26 149.15 130.41 149.69 130.21 150.54 C 130.01 151.39 130.55 152.24 131.40 152.44 Z M 132.37 152.67 L 133.34 152.88 C 134.19 153.07 135.04 152.52 135.23 151.67 C 135.42 150.81 134.87 149.96 134.02 149.77 L 133.05 149.56 C 132.19 149.37 131.35 149.92 131.16 150.77 C 130.97 151.63 131.51 152.48 132.37 152.67 Z M 133.36 152.89 L 134.36 153.09 C 135.23 153.27 136.07 152.71 136.24 151.85 C 136.42 150.99 135.87 150.15 135.00 149.97 L 134.00 149.77 C 133.13 149.59 132.29 150.14 132.12 151.01 C 131.94 151.87 132.49 152.71 133.36 152.89 Z M 134.39 153.10 L 135.35 153.28 C 136.22 153.45 137.05 152.88 137.22 152.01 C 137.38 151.15 136.81 150.31 135.95 150.15 L 134.98 149.96 C 134.12 149.80 133.28 150.37 133.12 151.24 C 132.95 152.10 133.52 152.94 134.39 153.10 Z M 135.37 153.29 L 136.35 153.46 C 137.22 153.62 138.05 153.04 138.21 152.17 C 138.36 151.29 137.78 150.46 136.91 150.31 L 135.93 150.14 C 135.06 149.99 134.23 150.57 134.07 151.44 C 133.92 152.31 134.50 153.14 135.37 153.29 Z M 136.37 153.47 L 137.38 153.64 C 138.25 153.78 139.08 153.19 139.22 152.31 C 139.36 151.44 138.77 150.61 137.90 150.47 L 136.89 150.30 C 136.01 150.16 135.19 150.75 135.04 151.63 C 134.90 152.50 135.49 153.33 136.37 153.47 Z M 137.39 153.64 L 138.39 153.80 C 139.27 153.93 140.09 153.33 140.22 152.45 C 140.36 151.57 139.75 150.75 138.87 150.61 L 137.88 150.46 C 137.00 150.33 136.18 150.93 136.04 151.81 C 135.91 152.69 136.51 153.51 137.39 153.64 Z M 138.40 153.80 L 139.39 153.94 C 140.27 154.07 141.09 153.46 141.21 152.57 C 141.34 151.69 140.73 150.87 139.84 150.75 L 138.86 150.61 C 137.98 150.48 137.16 151.09 137.03 151.98 C 136.91 152.86 137.52 153.68 138.40 153.80 Z M 139.41 153.95 L 140.40 154.08 C 141.29 154.20 142.10 153.57 142.22 152.68 C 142.33 151.80 141.71 150.98 140.82 150.87 L 139.82 150.74 C 138.94 150.62 138.13 151.25 138.01 152.14 C 137.90 153.02 138.52 153.84 139.41 153.95 Z M 140.42 154.09 L 141.42 154.20 C 142.31 154.31 143.12 153.67 143.22 152.78 C 143.32 151.89 142.69 151.08 141.80 150.98 L 140.80 150.86 C 139.91 150.76 139.10 151.40 139.00 152.29 C 138.90 153.18 139.53 153.98 140.42 154.09 Z M 141.44 154.21 L 142.41 154.31 C 143.30 154.40 144.10 153.75 144.19 152.85 C 144.29 151.96 143.63 151.16 142.74 151.07 L 141.77 150.97 C 140.88 150.88 140.08 151.53 139.99 152.43 C 139.90 153.32 140.55 154.12 141.44 154.21 Z M 142.43 154.31 L 143.42 154.40 C 144.31 154.48 145.11 153.82 145.19 152.92 C 145.27 152.02 144.60 151.23 143.71 151.15 L 142.72 151.06 C 141.82 150.98 141.03 151.65 140.95 152.54 C 140.87 153.44 141.53 154.23 142.43 154.31 Z M 143.43 154.41 L 144.45 154.49 C 145.35 154.56 146.14 153.88 146.21 152.98 C 146.28 152.08 145.61 151.30 144.71 151.23 L 143.69 151.15 C 142.79 151.08 142.00 151.75 141.93 152.65 C 141.86 153.55 142.53 154.34 143.43 154.41 Z M 144.47 154.49 L 145.48 154.56 C 146.38 154.62 147.16 153.94 147.22 153.04 C 147.29 152.14 146.61 151.35 145.70 151.29 L 144.69 151.22 C 143.79 151.16 143.01 151.84 142.95 152.74 C 142.88 153.65 143.56 154.43 144.47 154.49 Z M 145.49 154.57 L 146.49 154.63 C 147.40 154.68 148.18 153.99 148.23 153.09 C 148.29 152.18 147.60 151.41 146.69 151.35 L 145.69 151.29 C 144.79 151.23 144.01 151.92 143.95 152.83 C 143.90 153.73 144.58 154.51 145.49 154.57 Z M 146.51 154.63 L 147.52 154.69 C 148.43 154.73 149.20 154.04 149.25 153.13 C 149.30 152.22 148.60 151.45 147.69 151.40 L 146.68 151.34 C 145.77 151.30 145.00 151.99 144.95 152.90 C 144.90 153.81 145.60 154.58 146.51 154.63 Z M 147.54 154.69 L 148.53 154.73 C 149.44 154.77 150.21 154.06 150.25 153.15 C 150.29 152.24 149.58 151.47 148.67 151.43 L 147.67 151.39 C 146.76 151.36 145.99 152.06 145.96 152.97 C 145.92 153.88 146.63 154.65 147.54 154.69 Z M 148.56 154.73 L 149.57 154.76 C 150.49 154.79 151.25 154.07 151.27 153.16 C 151.30 152.24 150.58 151.48 149.67 151.46 L 148.65 151.43 C 147.73 151.41 146.97 152.13 146.95 153.04 C 146.92 153.95 147.64 154.71 148.56 154.73 Z M 149.60 154.76 L 150.60 154.78 C 151.51 154.79 152.26 154.06 152.28 153.15 C 152.29 152.24 151.56 151.49 150.65 151.47 L 149.64 151.46 C 148.73 151.45 147.98 152.17 147.97 153.09 C 147.95 154.00 148.68 154.75 149.60 154.76 Z M 150.62 154.78 L 151.60 154.78 C 152.51 154.79 153.26 154.05 153.26 153.14 C 153.27 152.23 152.53 151.48 151.62 151.48 L 150.63 151.47 C 149.72 151.47 148.98 152.20 148.97 153.12 C 148.97 154.03 149.70 154.77 150.62 154.78 Z M 151.61 154.78 L 152.59 154.78 C 153.50 154.78 154.24 154.04 154.24 153.13 C 154.24 152.22 153.50 151.48 152.59 151.48 L 151.61 151.48 C 150.70 151.48 149.96 152.22 149.96 153.13 C 149.96 154.04 150.70 154.78 151.61 154.78 Z M 152.59 154.78 L 153.57 154.78 C 154.48 154.78 155.22 154.04 155.22 153.13 C 155.22 152.22 154.48 151.48 153.57 151.48 L 152.59 151.48 C 151.68 151.48 150.94 152.22 150.94 153.13 C 150.94 154.04 151.68 154.78 152.59 154.78 Z M 153.57 154.78 L 154.57 154.78 C 155.48 154.77 156.22 154.03 156.21 153.12 C 156.21 152.21 155.47 151.47 154.55 151.47 L 153.56 151.48 C 152.65 151.48 151.91 152.22 151.91 153.14 C 151.92 154.05 152.66 154.79 153.57 154.78 Z M 154.58 154.78 L 155.59 154.77 C 156.51 154.76 157.24 154.01 157.23 153.10 C 157.22 152.18 156.47 151.45 155.56 151.46 L 154.54 151.47 C 153.63 151.48 152.90 152.23 152.91 153.14 C 152.92 154.06 153.66 154.79 154.58 154.78 Z M 155.61 154.77 L 156.61 154.75 C 157.52 154.73 158.25 153.98 158.23 153.06 C 158.21 152.15 157.46 151.43 156.54 151.44 L 155.54 151.46 C 154.63 151.48 153.91 152.23 153.92 153.15 C 153.94 154.06 154.69 154.78 155.61 154.77 Z M 156.63 154.75 L 157.61 154.72 C 158.52 154.69 159.23 153.93 159.21 153.02 C 159.18 152.10 158.42 151.39 157.50 151.41 L 156.53 151.44 C 155.61 151.47 154.90 152.23 154.92 153.15 C 154.95 154.06 155.71 154.78 156.63 154.75 Z M 157.63 154.72 L 158.63 154.67 C 159.54 154.63 160.25 153.86 160.21 152.95 C 160.16 152.04 159.39 151.33 158.48 151.37 L 157.48 151.42 C 156.57 151.46 155.86 152.23 155.90 153.14 C 155.95 154.05 156.72 154.76 157.63 154.72 Z M 158.66 154.67 L 159.68 154.60 C 160.59 154.55 161.28 153.76 161.22 152.85 C 161.16 151.94 160.38 151.25 159.47 151.31 L 158.45 151.37 C 157.54 151.43 156.85 152.21 156.91 153.13 C 156.96 154.04 157.75 154.73 158.66 154.67 Z M 159.71 154.60 L 160.72 154.52 C 161.62 154.44 162.30 153.64 162.22 152.73 C 162.14 151.83 161.35 151.15 160.44 151.23 L 159.43 151.31 C 158.53 151.39 157.85 152.19 157.93 153.10 C 158.01 154.00 158.80 154.68 159.71 154.60 Z M 160.75 154.51 L 161.73 154.41 C 162.64 154.31 163.29 153.50 163.20 152.60 C 163.11 151.69 162.30 151.04 161.39 151.13 L 160.41 151.23 C 159.50 151.33 158.84 152.14 158.94 153.04 C 159.03 153.95 159.84 154.60 160.75 154.51 Z M 161.75 154.40 L 162.75 154.28 C 163.65 154.18 164.29 153.36 164.19 152.46 C 164.08 151.56 163.26 150.91 162.36 151.02 L 161.37 151.14 C 160.47 151.24 159.82 152.06 159.93 152.96 C 160.04 153.87 160.85 154.51 161.75 154.40 Z M 162.76 154.28 L 163.77 154.15 C 164.66 154.03 165.30 153.21 165.18 152.31 C 165.07 151.41 164.24 150.78 163.34 150.90 L 162.34 151.02 C 161.45 151.14 160.81 151.96 160.93 152.86 C 161.04 153.76 161.87 154.40 162.76 154.28 Z M 163.77 154.14 L 164.77 154.01 C 165.67 153.89 166.30 153.06 166.17 152.17 C 166.05 151.27 165.23 150.64 164.33 150.76 L 163.34 150.90 C 162.44 151.02 161.81 151.85 161.93 152.74 C 162.05 153.64 162.88 154.27 163.77 154.14 Z M 164.78 154.01 L 165.75 153.87 C 166.64 153.75 167.27 152.92 167.14 152.03 C 167.02 151.13 166.20 150.51 165.30 150.63 L 164.33 150.77 C 163.43 150.89 162.81 151.72 162.93 152.61 C 163.06 153.51 163.88 154.13 164.78 154.01 Z M 165.75 153.87 L 166.73 153.73 C 167.63 153.60 168.25 152.78 168.12 151.89 C 168.00 151.00 167.17 150.37 166.28 150.50 L 165.30 150.64 C 164.41 150.76 163.78 151.59 163.91 152.48 C 164.04 153.37 164.86 153.99 165.75 153.87 Z M 166.74 153.73 L 167.73 153.59 C 168.62 153.46 169.24 152.63 169.11 151.74 C 168.99 150.85 168.16 150.23 167.27 150.36 L 166.28 150.50 C 165.39 150.63 164.77 151.45 164.90 152.34 C 165.02 153.23 165.85 153.85 166.74 153.73 Z M 167.73 153.58 L 168.74 153.44 C 169.63 153.31 170.25 152.49 170.12 151.60 C 169.99 150.71 169.17 150.09 168.28 150.22 L 167.27 150.36 C 166.38 150.49 165.77 151.31 165.89 152.20 C 166.02 153.09 166.84 153.71 167.73 153.58 Z M 168.74 153.43 L 169.75 153.29 C 170.64 153.16 171.25 152.34 171.13 151.45 C 171.00 150.57 170.18 149.95 169.29 150.08 L 168.28 150.22 C 167.40 150.35 166.78 151.17 166.91 152.06 C 167.03 152.95 167.86 153.56 168.74 153.43 Z M 169.75 153.29 L 170.76 153.14 C 171.64 153.02 172.26 152.20 172.13 151.31 C 172.01 150.43 171.19 149.81 170.30 149.94 L 169.29 150.08 C 168.41 150.21 167.79 151.03 167.92 151.91 C 168.04 152.80 168.86 153.41 169.75 153.29 Z M 170.76 153.14 L 171.76 153.00 C 172.64 152.87 173.26 152.05 173.13 151.17 C 173.01 150.29 172.19 149.67 171.30 149.80 L 170.30 149.94 C 169.42 150.07 168.81 150.88 168.93 151.77 C 169.06 152.65 169.87 153.26 170.76 153.14 Z M 171.76 152.99 L 172.73 152.86 C 173.61 152.73 174.23 151.92 174.11 151.04 C 173.98 150.16 173.17 149.54 172.29 149.66 L 171.31 149.80 C 170.43 149.92 169.81 150.74 169.94 151.62 C 170.06 152.50 170.87 153.12 171.76 152.99 Z M 172.73 152.85 L 173.71 152.72 C 174.59 152.60 175.21 151.79 175.09 150.91 C 174.97 150.03 174.16 149.41 173.28 149.53 L 172.29 149.67 C 171.41 149.79 170.79 150.60 170.91 151.48 C 171.04 152.36 171.85 152.97 172.73 152.85 Z M 173.71 152.72 L 174.74 152.58 C 175.62 152.46 176.23 151.66 176.12 150.78 C 176.00 149.90 175.20 149.28 174.32 149.40 L 173.28 149.53 C 172.41 149.65 171.79 150.46 171.90 151.34 C 172.02 152.21 172.83 152.83 173.71 152.72 Z M 174.73 152.58 L 175.72 152.45 C 176.59 152.34 177.21 151.54 177.10 150.66 C 176.99 149.78 176.19 149.16 175.31 149.28 L 174.33 149.40 C 173.45 149.51 172.83 150.31 172.94 151.19 C 173.05 152.07 173.85 152.69 174.73 152.58 Z M 175.71 152.45 L 176.66 152.33 C 177.54 152.22 178.16 151.43 178.05 150.55 C 177.95 149.68 177.15 149.06 176.28 149.16 L 175.32 149.28 C 174.45 149.39 173.82 150.18 173.93 151.06 C 174.04 151.93 174.83 152.55 175.71 152.45 Z M 176.65 152.33 L 177.63 152.21 C 178.50 152.11 179.12 151.32 179.02 150.45 C 178.92 149.58 178.13 148.95 177.26 149.05 L 176.29 149.17 C 175.42 149.27 174.79 150.06 174.89 150.93 C 174.99 151.80 175.78 152.43 176.65 152.33 Z M 177.62 152.21 L 178.61 152.10 C 179.49 152.00 180.11 151.22 180.02 150.35 C 179.92 149.48 179.14 148.85 178.27 148.95 L 177.27 149.06 C 176.40 149.15 175.77 149.94 175.87 150.81 C 175.96 151.68 176.75 152.30 177.62 152.21 Z M 178.60 152.10 L 179.60 151.99 C 180.46 151.91 181.10 151.13 181.01 150.26 C 180.92 149.39 180.14 148.76 179.28 148.85 L 178.28 148.95 C 177.41 149.04 176.78 149.82 176.87 150.68 C 176.96 151.55 177.73 152.18 178.60 152.10 Z M 179.58 151.99 L 180.57 151.90 C 181.44 151.82 182.07 151.05 181.99 150.19 C 181.91 149.32 181.15 148.68 180.28 148.76 L 179.29 148.86 C 178.43 148.94 177.79 149.70 177.87 150.57 C 177.95 151.43 178.72 152.07 179.58 151.99 Z M 180.55 151.89 L 181.55 151.81 C 182.41 151.74 183.06 150.98 182.99 150.12 C 182.91 149.26 182.16 148.61 181.29 148.69 L 180.30 148.77 C 179.43 148.84 178.79 149.60 178.86 150.46 C 178.93 151.32 179.69 151.97 180.55 151.89 Z M 181.53 151.81 L 182.53 151.74 C 183.39 151.68 184.04 150.93 183.98 150.07 C 183.92 149.21 183.17 148.56 182.31 148.62 L 181.31 148.69 C 180.45 148.75 179.80 149.50 179.86 150.36 C 179.92 151.22 180.67 151.87 181.53 151.81 Z M 182.51 151.73 L 183.51 151.67 C 184.37 151.62 185.02 150.89 184.97 150.03 C 184.92 149.17 184.18 148.51 183.32 148.56 L 182.33 148.62 C 181.47 148.67 180.81 149.41 180.86 150.27 C 180.91 151.13 181.65 151.78 182.51 151.73 Z M 183.49 151.67 L 184.49 151.62 C 185.35 151.58 186.01 150.85 185.97 150.00 C 185.93 149.14 185.20 148.48 184.34 148.52 L 183.34 148.57 C 182.48 148.61 181.82 149.34 181.86 150.19 C 181.90 151.05 182.63 151.71 183.49 151.67 Z M 184.47 151.62 L 185.48 151.58 C 186.33 151.55 187.00 150.83 186.97 149.98 C 186.94 149.13 186.22 148.46 185.37 148.49 L 184.36 148.53 C 183.51 148.56 182.84 149.27 182.87 150.13 C 182.90 150.98 183.62 151.65 184.47 151.62 Z M 185.47 151.58 L 186.47 151.55 C 187.32 151.53 187.99 150.82 187.97 149.97 C 187.95 149.12 187.24 148.45 186.39 148.47 L 185.38 148.50 C 184.53 148.52 183.86 149.23 183.88 150.08 C 183.91 150.93 184.61 151.60 185.47 151.58 Z M 186.46 151.54 L 187.45 151.53 C 188.30 151.51 188.97 150.81 188.95 149.96 C 188.94 149.12 188.24 148.44 187.39 148.46 L 186.40 148.47 C 185.55 148.49 184.88 149.19 184.89 150.04 C 184.91 150.88 185.61 151.56 186.46 151.54 Z M 187.44 151.52 L 188.44 151.51 C 189.29 151.50 189.96 150.81 189.95 149.96 C 189.95 149.12 189.25 148.44 188.41 148.45 L 187.40 148.46 C 186.56 148.47 185.88 149.16 185.89 150.01 C 185.90 150.85 186.59 151.53 187.44 151.52 Z M 188.43 151.50 L 189.44 151.50 C 190.28 151.49 190.96 150.81 190.95 149.97 C 190.95 149.12 190.26 148.45 189.42 148.45 L 188.42 148.46 C 187.58 148.46 186.90 149.15 186.90 149.99 C 186.91 150.83 187.59 151.51 188.43 151.50 Z M 189.43 151.49 L 190.42 151.49 C 191.26 151.49 191.94 150.81 191.94 149.97 C 191.94 149.13 191.25 148.45 190.42 148.45 L 189.42 148.46 C 188.59 148.46 187.91 149.14 187.91 149.98 C 187.91 150.82 188.59 151.49 189.43 151.49 Z M 190.42 151.49 L 191.43 151.49 C 192.27 151.49 192.94 150.81 192.94 149.97 C 192.94 149.14 192.27 148.46 191.43 148.46 L 190.42 148.46 C 189.58 148.46 188.91 149.14 188.91 149.97 C 188.91 150.81 189.58 151.49 190.42 151.49 Z M 191.43 151.48 L 192.47 151.48 C 193.31 151.48 193.98 150.81 193.99 149.98 C 193.99 149.14 193.31 148.47 192.48 148.47 L 191.43 148.46 C 190.60 148.46 189.92 149.14 189.92 149.97 C 189.92 150.80 190.59 151.48 191.43 151.48 Z M 192.47 151.48 L 193.47 151.49 C 194.30 151.49 194.98 150.83 194.98 149.99 C 194.99 149.16 194.32 148.48 193.49 148.48 L 192.49 148.47 C 191.66 148.46 190.98 149.13 190.97 149.96 C 190.97 150.79 191.63 151.47 192.47 151.48 Z M 193.45 151.48 L 194.41 151.50 C 195.24 151.52 195.92 150.86 195.94 150.03 C 195.96 149.20 195.30 148.52 194.47 148.50 L 193.51 148.48 C 192.68 148.46 191.99 149.12 191.98 149.95 C 191.96 150.78 192.62 151.47 193.45 151.48 Z M 194.37 151.50 L 195.44 151.55 C 196.27 151.59 196.97 150.95 197.01 150.13 C 197.05 149.30 196.41 148.60 195.59 148.56 L 194.51 148.50 C 193.69 148.46 192.98 149.10 192.94 149.93 C 192.90 150.76 193.54 151.46 194.37 151.50 Z M 195.37 151.54 L 196.29 151.63 C 197.11 151.71 197.84 151.11 197.92 150.29 C 198.00 149.46 197.40 148.73 196.57 148.65 L 195.66 148.56 C 194.84 148.48 194.11 149.09 194.03 149.91 C 193.95 150.73 194.55 151.46 195.37 151.54 Z M 196.18 151.62 L 197.12 151.78 C 197.93 151.91 198.70 151.37 198.84 150.55 C 198.98 149.74 198.44 148.97 197.62 148.83 L 196.68 148.67 C 195.87 148.53 195.10 149.08 194.96 149.89 C 194.82 150.70 195.36 151.48 196.18 151.62 Z M 196.97 151.74 L 197.94 152.01 C 198.74 152.23 199.56 151.77 199.78 150.98 C 200.00 150.18 199.54 149.36 198.75 149.14 L 197.77 148.87 C 196.98 148.64 196.16 149.11 195.93 149.90 C 195.71 150.69 196.18 151.52 196.97 151.74 Z M 197.82 151.97 L 198.76 152.33 C 199.53 152.62 200.39 152.23 200.68 151.46 C 200.97 150.69 200.59 149.83 199.82 149.54 L 198.87 149.18 C 198.10 148.89 197.24 149.28 196.95 150.05 C 196.66 150.82 197.05 151.68 197.82 151.97 Z M 198.65 152.28 L 199.57 152.71 C 200.31 153.07 201.20 152.75 201.55 152.01 C 201.90 151.27 201.59 150.38 200.85 150.03 L 199.93 149.59 C 199.19 149.24 198.30 149.55 197.95 150.29 C 197.60 151.04 197.91 151.92 198.65 152.28 Z M 199.38 152.60 L 200.25 153.18 C 200.93 153.64 201.85 153.46 202.31 152.78 C 202.76 152.10 202.58 151.18 201.90 150.73 L 201.03 150.14 C 200.36 149.69 199.44 149.87 198.98 150.55 C 198.52 151.22 198.70 152.14 199.38 152.60 Z M 199.92 152.87 L 200.50 153.60 C 201.00 154.24 201.92 154.35 202.56 153.85 C 203.20 153.34 203.32 152.42 202.81 151.78 L 202.24 151.05 C 201.73 150.41 200.81 150.29 200.17 150.80 C 199.53 151.30 199.42 152.23 199.92 152.87 Z M 200.23 153.01 L 200.44 153.96 C 200.62 154.75 201.41 155.24 202.20 155.06 C 202.98 154.88 203.48 154.10 203.30 153.31 L 203.08 152.36 C 202.90 151.58 202.12 151.08 201.33 151.26 C 200.54 151.44 200.05 152.23 200.23 153.01 Z M 200.43 153.41 L 200.28 154.38 C 200.15 155.17 200.70 155.91 201.49 156.04 C 202.28 156.16 203.03 155.62 203.15 154.83 L 203.31 153.86 C 203.43 153.07 202.89 152.32 202.10 152.20 C 201.30 152.07 200.56 152.61 200.43 153.41 Z M 200.43 153.96 L 199.99 154.82 C 199.64 155.54 199.93 156.40 200.64 156.76 C 201.35 157.12 202.22 156.83 202.58 156.11 L 203.01 155.25 C 203.36 154.53 203.07 153.67 202.36 153.31 C 201.65 152.96 200.78 153.24 200.43 153.96 Z M 200.15 154.59 L 199.51 155.43 C 199.02 156.05 199.14 156.95 199.77 157.44 C 200.39 157.92 201.30 157.80 201.78 157.18 L 202.42 156.34 C 202.90 155.72 202.79 154.82 202.16 154.33 C 201.53 153.85 200.63 153.97 200.15 154.59 Z M 199.60 155.33 L 198.90 156.08 C 198.36 156.65 198.39 157.56 198.97 158.10 C 199.54 158.64 200.45 158.60 200.98 158.03 L 201.69 157.28 C 202.23 156.70 202.19 155.80 201.62 155.26 C 201.04 154.72 200.14 154.75 199.60 155.33 Z M 198.95 156.03 L 198.22 156.73 C 197.66 157.28 197.64 158.18 198.19 158.75 C 198.74 159.31 199.64 159.33 200.21 158.78 L 200.93 158.08 C 201.50 157.53 201.51 156.62 200.96 156.06 C 200.42 155.49 199.51 155.48 198.95 156.03 Z M 198.26 156.70 L 197.51 157.38 C 196.92 157.91 196.87 158.81 197.40 159.39 C 197.93 159.98 198.83 160.02 199.42 159.50 L 200.17 158.81 C 200.75 158.29 200.80 157.39 200.27 156.80 C 199.75 156.22 198.85 156.17 198.26 156.70 Z M 197.53 157.36 L 197.17 157.67 C 196.58 158.19 196.51 159.09 197.03 159.68 C 197.54 160.28 198.44 160.34 199.04 159.82 L 199.39 159.51 C 199.99 159.00 200.05 158.10 199.54 157.50 C 199.02 156.91 198.12 156.84 197.53 157.36 Z"
      fill="black"
      fill-rule="nonzero" /><path d="M 112.38 186.64 L 111.64 185.68 C 111.12 185.01 110.17 184.89 109.50 185.40 C 108.83 185.92 108.71 186.88 109.23 187.54 L 109.97 188.50 C 110.49 189.17 111.44 189.29 112.11 188.78 C 112.78 188.26 112.90 187.30 112.38 186.64 Z M 111.79 185.92 L 111.38 185.10 C 111.00 184.35 110.08 184.05 109.33 184.42 C 108.58 184.80 108.28 185.72 108.66 186.47 L 109.07 187.29 C 109.45 188.05 110.37 188.35 111.12 187.97 C 111.87 187.59 112.17 186.68 111.79 185.92 Z M 111.42 186.39 L 111.66 185.82 C 112.00 185.05 111.64 184.15 110.86 183.82 C 110.09 183.48 109.19 183.84 108.86 184.61 L 108.62 185.18 C 108.28 185.95 108.64 186.85 109.41 187.19 C 110.19 187.52 111.08 187.16 111.42 186.39 Z M 110.71 186.69 L 111.62 186.41 C 112.43 186.16 112.89 185.31 112.65 184.50 C 112.40 183.68 111.54 183.23 110.73 183.47 L 109.82 183.75 C 109.01 184.00 108.55 184.85 108.79 185.66 C 109.04 186.47 109.89 186.93 110.71 186.69 Z M 111.31 186.48 L 112.47 186.38 C 113.32 186.30 113.95 185.55 113.87 184.71 C 113.80 183.86 113.05 183.23 112.20 183.30 L 111.05 183.40 C 110.20 183.48 109.57 184.22 109.64 185.07 C 109.71 185.92 110.46 186.55 111.31 186.48 Z M 112.38 186.39 L 113.42 186.36 C 114.28 186.33 114.95 185.62 114.93 184.76 C 114.90 183.90 114.19 183.23 113.33 183.26 L 112.29 183.29 C 111.43 183.31 110.76 184.03 110.78 184.89 C 110.81 185.74 111.53 186.42 112.38 186.39 Z M 113.35 186.37 L 114.31 186.38 C 115.17 186.40 115.88 185.72 115.90 184.86 C 115.91 183.99 115.23 183.28 114.37 183.27 L 113.41 183.25 C 112.54 183.23 111.83 183.92 111.82 184.78 C 111.80 185.64 112.49 186.35 113.35 186.37 Z M 114.23 186.39 L 115.19 186.45 C 116.05 186.51 116.80 185.86 116.86 185.00 C 116.92 184.14 116.27 183.39 115.41 183.33 L 114.45 183.27 C 113.59 183.21 112.84 183.86 112.78 184.72 C 112.72 185.58 113.37 186.33 114.23 186.39 Z M 115.13 186.45 L 116.12 186.56 C 116.98 186.66 117.75 186.04 117.85 185.18 C 117.95 184.32 117.33 183.54 116.47 183.45 L 115.47 183.34 C 114.61 183.24 113.84 183.86 113.74 184.72 C 113.65 185.58 114.27 186.36 115.13 186.45 Z M 116.07 186.56 L 117.08 186.70 C 117.94 186.82 118.73 186.23 118.85 185.37 C 118.98 184.51 118.38 183.71 117.52 183.59 L 116.51 183.45 C 115.66 183.33 114.86 183.92 114.74 184.78 C 114.62 185.64 115.21 186.44 116.07 186.56 Z M 117.05 186.70 L 118.02 186.86 C 118.88 186.99 119.69 186.41 119.83 185.55 C 119.96 184.70 119.38 183.89 118.52 183.75 L 117.55 183.59 C 116.69 183.46 115.89 184.04 115.75 184.90 C 115.61 185.75 116.19 186.56 117.05 186.70 Z M 118.02 186.86 L 119.01 187.02 C 119.87 187.16 120.68 186.58 120.82 185.72 C 120.96 184.87 120.38 184.06 119.53 183.91 L 118.53 183.75 C 117.67 183.61 116.86 184.19 116.72 185.05 C 116.58 185.90 117.16 186.72 118.02 186.86 Z M 119.02 187.03 L 120.00 187.18 C 120.86 187.32 121.67 186.73 121.80 185.87 C 121.94 185.00 121.35 184.20 120.49 184.06 L 119.51 183.91 C 118.65 183.77 117.84 184.36 117.71 185.22 C 117.57 186.08 118.16 186.89 119.02 187.03 Z M 120.01 187.19 L 120.98 187.33 C 121.84 187.46 122.65 186.86 122.77 186.00 C 122.90 185.13 122.30 184.33 121.44 184.20 L 120.47 184.06 C 119.61 183.93 118.81 184.53 118.68 185.39 C 118.55 186.25 119.15 187.06 120.01 187.19 Z M 120.98 187.33 L 121.99 187.48 C 122.86 187.61 123.66 187.01 123.79 186.14 C 123.92 185.28 123.32 184.47 122.45 184.34 L 121.44 184.19 C 120.57 184.07 119.77 184.67 119.64 185.53 C 119.51 186.40 120.11 187.21 120.98 187.33 Z M 121.98 187.48 L 122.97 187.63 C 123.84 187.77 124.65 187.17 124.78 186.30 C 124.91 185.43 124.32 184.62 123.45 184.49 L 122.46 184.34 C 121.59 184.21 120.78 184.81 120.65 185.67 C 120.52 186.54 121.12 187.35 121.98 187.48 Z M 122.97 187.64 L 123.95 187.79 C 124.82 187.92 125.64 187.32 125.77 186.46 C 125.90 185.59 125.31 184.77 124.44 184.64 L 123.45 184.49 C 122.58 184.36 121.77 184.95 121.64 185.82 C 121.50 186.69 122.10 187.50 122.97 187.64 Z M 123.96 187.79 L 124.97 187.94 C 125.84 188.07 126.65 187.46 126.78 186.59 C 126.91 185.72 126.30 184.91 125.43 184.78 L 124.43 184.64 C 123.55 184.51 122.74 185.11 122.62 185.98 C 122.49 186.85 123.09 187.66 123.96 187.79 Z M 124.99 187.95 L 126.00 188.08 C 126.87 188.19 127.67 187.57 127.79 186.70 C 127.90 185.82 127.28 185.02 126.41 184.91 L 125.41 184.78 C 124.53 184.66 123.73 185.28 123.62 186.15 C 123.50 187.03 124.12 187.83 124.99 187.95 Z M 126.02 188.08 L 127.01 188.19 C 127.89 188.29 128.68 187.66 128.78 186.78 C 128.88 185.90 128.25 185.11 127.37 185.01 L 126.38 184.90 C 125.50 184.80 124.71 185.43 124.61 186.31 C 124.51 187.19 125.14 187.98 126.02 188.08 Z M 127.02 188.20 L 128.01 188.30 C 128.90 188.39 129.69 187.75 129.78 186.87 C 129.87 185.99 129.22 185.20 128.34 185.11 L 127.35 185.01 C 126.47 184.92 125.68 185.56 125.59 186.44 C 125.50 187.32 126.14 188.11 127.02 188.20 Z M 128.02 188.31 L 129.03 188.41 C 129.91 188.50 130.70 187.85 130.79 186.97 C 130.88 186.08 130.23 185.29 129.35 185.20 L 128.34 185.10 C 127.45 185.01 126.67 185.66 126.58 186.54 C 126.49 187.43 127.13 188.22 128.02 188.31 Z M 129.02 188.41 L 129.98 188.51 C 130.86 188.60 131.66 187.96 131.75 187.07 C 131.84 186.18 131.19 185.39 130.31 185.30 L 129.35 185.20 C 128.47 185.11 127.67 185.75 127.58 186.64 C 127.49 187.53 128.13 188.32 129.02 188.41 Z M 129.98 188.51 L 130.96 188.62 C 131.85 188.71 132.64 188.06 132.74 187.17 C 132.83 186.28 132.18 185.49 131.29 185.40 L 130.31 185.29 C 129.42 185.20 128.62 185.85 128.53 186.74 C 128.44 187.63 129.09 188.42 129.98 188.51 Z M 130.97 188.62 L 131.99 188.72 C 132.88 188.80 133.67 188.15 133.76 187.26 C 133.84 186.36 133.19 185.57 132.30 185.49 L 131.28 185.39 C 130.39 185.31 129.60 185.96 129.51 186.85 C 129.43 187.74 130.08 188.54 130.97 188.62 Z M 132.01 188.72 L 133.02 188.81 C 133.92 188.88 134.70 188.21 134.78 187.32 C 134.85 186.42 134.18 185.64 133.29 185.56 L 132.28 185.48 C 131.38 185.41 130.60 186.07 130.52 186.97 C 130.45 187.86 131.11 188.65 132.01 188.72 Z M 133.04 188.81 L 134.02 188.88 C 134.92 188.94 135.69 188.26 135.76 187.36 C 135.82 186.47 135.14 185.69 134.24 185.63 L 133.27 185.56 C 132.37 185.50 131.59 186.18 131.53 187.07 C 131.47 187.97 132.15 188.75 133.04 188.81 Z M 134.03 188.88 L 135.03 188.94 C 135.93 188.99 136.70 188.31 136.76 187.41 C 136.81 186.51 136.13 185.74 135.23 185.68 L 134.23 185.62 C 133.33 185.57 132.56 186.26 132.50 187.15 C 132.45 188.05 133.13 188.83 134.03 188.88 Z M 135.04 188.94 L 136.06 189.00 C 136.96 189.05 137.72 188.36 137.77 187.46 C 137.82 186.56 137.13 185.79 136.23 185.74 L 135.22 185.68 C 134.32 185.63 133.55 186.32 133.50 187.22 C 133.45 188.12 134.14 188.89 135.04 188.94 Z M 136.06 189.00 L 137.07 189.05 C 137.97 189.10 138.74 188.41 138.79 187.51 C 138.84 186.61 138.15 185.84 137.25 185.79 L 136.23 185.74 C 135.33 185.69 134.56 186.38 134.51 187.28 C 134.47 188.18 135.16 188.95 136.06 189.00 Z M 137.07 189.06 L 138.07 189.11 C 138.97 189.16 139.74 188.47 139.79 187.56 C 139.83 186.66 139.14 185.89 138.24 185.84 L 137.25 185.79 C 136.34 185.74 135.57 186.43 135.53 187.34 C 135.48 188.24 136.17 189.01 137.07 189.06 Z M 138.07 189.11 L 139.07 189.16 C 139.97 189.21 140.74 188.51 140.79 187.61 C 140.83 186.71 140.14 185.94 139.23 185.89 L 138.24 185.84 C 137.33 185.79 136.56 186.49 136.52 187.39 C 136.47 188.30 137.16 189.07 138.07 189.11 Z M 139.07 189.17 L 140.08 189.21 C 140.98 189.26 141.75 188.56 141.79 187.65 C 141.84 186.75 141.14 185.98 140.23 185.93 L 139.23 185.89 C 138.32 185.84 137.55 186.54 137.51 187.45 C 137.47 188.36 138.17 189.12 139.07 189.17 Z M 140.09 189.22 L 141.09 189.26 C 142.00 189.29 142.76 188.59 142.80 187.68 C 142.83 186.77 142.13 186.01 141.22 185.97 L 140.22 185.93 C 139.31 185.89 138.55 186.60 138.51 187.51 C 138.47 188.41 139.18 189.18 140.09 189.22 Z M 141.10 189.26 L 142.08 189.29 C 142.99 189.32 143.75 188.61 143.78 187.70 C 143.81 186.79 143.10 186.03 142.19 186.00 L 141.21 185.97 C 140.30 185.94 139.54 186.65 139.51 187.56 C 139.48 188.47 140.19 189.23 141.10 189.26 Z M 142.09 189.29 L 143.08 189.32 C 143.99 189.34 144.75 188.63 144.78 187.72 C 144.80 186.81 144.08 186.05 143.17 186.03 L 142.18 186.00 C 141.27 185.98 140.52 186.69 140.49 187.60 C 140.47 188.51 141.19 189.27 142.09 189.29 Z M 143.09 189.32 L 144.09 189.34 C 145.00 189.36 145.76 188.64 145.78 187.73 C 145.80 186.82 145.08 186.07 144.17 186.05 L 143.17 186.02 C 142.25 186.00 141.50 186.73 141.48 187.64 C 141.46 188.55 142.18 189.30 143.09 189.32 Z M 144.10 189.35 L 145.12 189.37 C 146.03 189.38 146.78 188.66 146.80 187.75 C 146.82 186.84 146.09 186.08 145.18 186.07 L 144.16 186.05 C 143.25 186.03 142.50 186.75 142.48 187.66 C 142.46 188.57 143.19 189.33 144.10 189.35 Z M 145.12 189.37 L 146.13 189.39 C 147.05 189.40 147.80 188.68 147.82 187.77 C 147.83 186.85 147.11 186.10 146.20 186.08 L 145.18 186.06 C 144.27 186.05 143.51 186.77 143.50 187.68 C 143.48 188.60 144.21 189.35 145.12 189.37 Z M 146.13 189.39 L 147.15 189.41 C 148.07 189.42 148.82 188.70 148.84 187.78 C 148.85 186.87 148.13 186.12 147.21 186.10 L 146.19 186.08 C 145.28 186.06 144.53 186.79 144.51 187.71 C 144.49 188.62 145.22 189.37 146.13 189.39 Z M 147.16 189.41 L 148.17 189.43 C 149.08 189.44 149.83 188.71 149.85 187.80 C 149.86 186.88 149.14 186.13 148.22 186.11 L 147.21 186.10 C 146.30 186.08 145.54 186.81 145.53 187.73 C 145.51 188.64 146.24 189.39 147.16 189.41 Z M 148.17 189.43 L 149.16 189.44 C 150.08 189.45 150.83 188.72 150.84 187.81 C 150.85 186.89 150.12 186.14 149.21 186.13 L 148.22 186.11 C 147.30 186.10 146.55 186.83 146.54 187.75 C 146.52 188.66 147.26 189.41 148.17 189.43 Z M 149.17 189.44 L 150.16 189.45 C 151.08 189.46 151.83 188.73 151.84 187.81 C 151.85 186.90 151.12 186.14 150.20 186.14 L 149.20 186.12 C 148.28 186.11 147.53 186.85 147.52 187.77 C 147.51 188.68 148.25 189.43 149.17 189.44 Z M 150.17 189.45 L 151.21 189.46 C 152.12 189.47 152.87 188.73 152.88 187.81 C 152.88 186.89 152.15 186.15 151.23 186.14 L 150.19 186.13 C 149.28 186.13 148.53 186.87 148.52 187.78 C 148.52 188.70 149.25 189.45 150.17 189.45 Z M 151.21 189.46 L 152.21 189.47 C 153.12 189.47 153.87 188.73 153.87 187.81 C 153.87 186.89 153.13 186.14 152.22 186.14 L 151.22 186.14 C 150.31 186.14 149.56 186.88 149.56 187.80 C 149.55 188.71 150.29 189.46 151.21 189.46 Z M 152.21 189.47 L 153.18 189.47 C 154.09 189.47 154.84 188.72 154.84 187.81 C 154.84 186.89 154.10 186.14 153.18 186.14 L 152.21 186.14 C 151.29 186.14 150.55 186.88 150.55 187.80 C 150.55 188.72 151.29 189.47 152.21 189.47 Z M 153.18 189.47 L 154.15 189.47 C 155.07 189.47 155.82 188.72 155.82 187.80 C 155.82 186.89 155.07 186.14 154.15 186.14 L 153.18 186.14 C 152.26 186.14 151.51 186.89 151.51 187.80 C 151.51 188.72 152.26 189.47 153.18 189.47 Z M 154.15 189.47 L 155.15 189.47 C 156.07 189.47 156.81 188.72 156.81 187.80 C 156.81 186.88 156.06 186.14 155.15 186.14 L 154.15 186.14 C 153.23 186.14 152.49 186.89 152.49 187.81 C 152.49 188.72 153.24 189.47 154.15 189.47 Z M 155.15 189.47 L 156.15 189.46 C 157.07 189.46 157.81 188.71 157.81 187.79 C 157.81 186.88 157.06 186.13 156.14 186.14 L 155.14 186.14 C 154.22 186.14 153.48 186.89 153.48 187.81 C 153.49 188.73 154.23 189.47 155.15 189.47 Z M 156.16 189.46 L 157.16 189.46 C 158.08 189.45 158.82 188.70 158.82 187.78 C 158.81 186.86 158.06 186.12 157.14 186.13 L 156.13 186.14 C 155.22 186.14 154.48 186.89 154.48 187.81 C 154.49 188.73 155.24 189.47 156.16 189.46 Z M 157.17 189.45 L 158.17 189.44 C 159.08 189.43 159.82 188.68 159.81 187.76 C 159.80 186.84 159.04 186.11 158.12 186.12 L 157.13 186.13 C 156.21 186.14 155.48 186.90 155.49 187.81 C 155.50 188.73 156.26 189.47 157.17 189.45 Z M 158.18 189.44 L 159.17 189.42 C 160.09 189.40 160.82 188.64 160.80 187.73 C 160.78 186.81 160.02 186.08 159.11 186.10 L 158.11 186.12 C 157.20 186.14 156.47 186.90 156.49 187.81 C 156.51 188.73 157.26 189.46 158.18 189.44 Z M 159.19 189.41 L 160.19 189.38 C 161.11 189.36 161.83 188.59 161.80 187.68 C 161.77 186.76 161.01 186.05 160.09 186.07 L 159.09 186.10 C 158.18 186.13 157.46 186.90 157.49 187.81 C 157.51 188.72 158.28 189.44 159.19 189.41 Z M 160.22 189.38 L 161.22 189.34 C 162.14 189.30 162.84 188.53 162.80 187.61 C 162.76 186.70 161.99 185.99 161.08 186.03 L 160.07 186.08 C 159.16 186.12 158.45 186.89 158.49 187.80 C 158.53 188.71 159.30 189.42 160.22 189.38 Z M 161.25 189.33 L 162.24 189.28 C 163.15 189.22 163.85 188.44 163.80 187.53 C 163.74 186.62 162.96 185.93 162.05 185.98 L 161.06 186.04 C 160.15 186.09 159.45 186.87 159.50 187.78 C 159.56 188.69 160.34 189.39 161.25 189.33 Z M 162.26 189.27 L 163.26 189.20 C 164.17 189.14 164.85 188.35 164.79 187.44 C 164.73 186.53 163.94 185.85 163.03 185.91 L 162.03 185.98 C 161.12 186.05 160.44 186.83 160.50 187.74 C 160.57 188.65 161.35 189.34 162.26 189.27 Z M 163.27 189.20 L 164.27 189.12 C 165.18 189.05 165.86 188.25 165.79 187.35 C 165.71 186.44 164.92 185.76 164.01 185.84 L 163.01 185.91 C 162.11 185.99 161.43 186.78 161.50 187.69 C 161.57 188.60 162.37 189.27 163.27 189.20 Z M 164.28 189.12 L 165.28 189.03 C 166.19 188.95 166.86 188.15 166.78 187.25 C 166.70 186.34 165.91 185.67 165.00 185.75 L 164.00 185.84 C 163.09 185.92 162.42 186.71 162.50 187.62 C 162.58 188.53 163.38 189.20 164.28 189.12 Z M 165.29 189.03 L 166.27 188.94 C 167.18 188.86 167.85 188.06 167.76 187.15 C 167.68 186.25 166.88 185.58 165.98 185.66 L 164.99 185.75 C 164.09 185.84 163.42 186.64 163.51 187.54 C 163.59 188.44 164.39 189.11 165.29 189.03 Z M 166.28 188.94 L 167.27 188.84 C 168.17 188.76 168.83 187.96 168.75 187.06 C 168.66 186.15 167.86 185.49 166.96 185.58 L 165.97 185.67 C 165.07 185.75 164.41 186.55 164.49 187.45 C 164.58 188.36 165.38 189.02 166.28 188.94 Z M 167.27 188.84 L 168.27 188.75 C 169.17 188.66 169.83 187.86 169.74 186.96 C 169.66 186.06 168.86 185.40 167.96 185.48 L 166.96 185.58 C 166.06 185.66 165.40 186.46 165.48 187.36 C 165.57 188.26 166.37 188.93 167.27 188.84 Z M 168.27 188.74 L 169.28 188.65 C 170.18 188.56 170.84 187.77 170.75 186.87 C 170.67 185.97 169.87 185.31 168.97 185.39 L 167.96 185.49 C 167.06 185.57 166.40 186.37 166.48 187.27 C 166.57 188.17 167.37 188.83 168.27 188.74 Z M 169.28 188.64 L 170.30 188.55 C 171.19 188.47 171.85 187.67 171.77 186.77 C 171.69 185.88 170.89 185.22 169.99 185.30 L 168.97 185.39 C 168.08 185.48 167.42 186.27 167.50 187.17 C 167.58 188.07 168.38 188.73 169.28 188.64 Z M 170.30 188.55 L 171.32 188.45 C 172.21 188.36 172.87 187.57 172.78 186.68 C 172.70 185.78 171.91 185.12 171.01 185.21 L 169.99 185.30 C 169.10 185.39 168.44 186.18 168.52 187.08 C 168.61 187.97 169.40 188.63 170.30 188.55 Z M 171.32 188.44 L 172.32 188.35 C 173.21 188.26 173.86 187.46 173.77 186.57 C 173.69 185.68 172.89 185.03 172.00 185.11 L 171.00 185.21 C 170.11 185.30 169.46 186.10 169.55 186.99 C 169.64 187.88 170.43 188.53 171.32 188.44 Z M 172.33 188.34 L 173.28 188.24 C 174.17 188.14 174.81 187.34 174.72 186.45 C 174.62 185.56 173.82 184.92 172.93 185.02 L 171.98 185.12 C 171.10 185.22 170.45 186.01 170.55 186.90 C 170.64 187.79 171.44 188.44 172.33 188.34 Z M 173.30 188.23 L 174.36 188.10 C 175.25 187.99 175.88 187.19 175.77 186.30 C 175.66 185.42 174.86 184.79 173.97 184.90 L 172.91 185.03 C 172.03 185.13 171.40 185.94 171.51 186.82 C 171.61 187.71 172.42 188.34 173.30 188.23 Z M 174.39 188.09 L 175.38 187.96 C 176.26 187.83 176.87 187.02 176.75 186.14 C 176.63 185.26 175.82 184.65 174.94 184.77 L 173.95 184.90 C 173.07 185.02 172.45 185.84 172.57 186.72 C 172.70 187.60 173.51 188.21 174.39 188.09 Z M 175.39 187.95 L 176.34 187.81 C 177.21 187.68 177.82 186.87 177.69 185.99 C 177.56 185.12 176.75 184.51 175.87 184.64 L 174.93 184.78 C 174.05 184.91 173.45 185.72 173.57 186.59 C 173.70 187.47 174.52 188.08 175.39 187.95 Z M 176.34 187.80 L 177.32 187.65 C 178.19 187.52 178.79 186.71 178.66 185.84 C 178.52 184.96 177.71 184.37 176.84 184.50 L 175.86 184.65 C 174.99 184.78 174.39 185.59 174.52 186.46 C 174.66 187.33 175.47 187.93 176.34 187.80 Z M 177.32 187.65 L 178.31 187.50 C 179.18 187.36 179.77 186.55 179.64 185.69 C 179.51 184.82 178.70 184.22 177.83 184.35 L 176.84 184.50 C 175.97 184.64 175.38 185.45 175.51 186.31 C 175.64 187.18 176.45 187.78 177.32 187.65 Z M 178.30 187.49 L 179.29 187.34 C 180.15 187.21 180.75 186.41 180.62 185.55 C 180.49 184.68 179.68 184.09 178.82 184.21 L 177.84 184.36 C 176.97 184.49 176.38 185.29 176.51 186.16 C 176.64 187.02 177.44 187.62 178.30 187.49 Z M 179.27 187.34 L 180.26 187.20 C 181.13 187.07 181.72 186.28 181.60 185.42 C 181.48 184.56 180.68 183.96 179.82 184.08 L 178.83 184.22 C 177.97 184.34 177.37 185.14 177.49 186.00 C 177.62 186.86 178.41 187.46 179.27 187.34 Z M 180.25 187.19 L 181.24 187.06 C 182.10 186.95 182.70 186.16 182.59 185.31 C 182.48 184.45 181.69 183.84 180.84 183.95 L 179.84 184.08 C 178.98 184.20 178.38 184.98 178.49 185.84 C 178.60 186.70 179.39 187.30 180.25 187.19 Z M 181.21 187.06 L 182.20 186.95 C 183.05 186.85 183.67 186.08 183.57 185.22 C 183.48 184.37 182.71 183.75 181.85 183.85 L 180.86 183.96 C 180.01 184.06 179.39 184.83 179.49 185.68 C 179.59 186.54 180.36 187.15 181.21 187.06 Z M 182.16 186.94 L 183.16 186.85 C 184.01 186.78 184.64 186.03 184.57 185.17 C 184.49 184.32 183.74 183.69 182.89 183.77 L 181.89 183.85 C 181.04 183.93 180.41 184.68 180.48 185.53 C 180.56 186.39 181.31 187.02 182.16 186.94 Z M 183.13 186.85 L 184.13 186.78 C 184.98 186.72 185.62 185.99 185.56 185.14 C 185.51 184.29 184.77 183.65 183.92 183.70 L 182.92 183.77 C 182.07 183.83 181.43 184.56 181.48 185.41 C 181.54 186.26 182.28 186.91 183.13 186.85 Z M 184.11 186.77 L 185.10 186.72 C 185.95 186.67 186.59 185.95 186.55 185.10 C 186.50 184.26 185.78 183.61 184.93 183.66 L 183.94 183.71 C 183.09 183.76 182.45 184.48 182.49 185.33 C 182.54 186.17 183.26 186.82 184.11 186.77 Z M 185.10 186.71 L 186.09 186.66 C 186.93 186.62 187.58 185.90 187.54 185.06 C 187.49 184.21 186.77 183.57 185.93 183.61 L 184.94 183.66 C 184.09 183.71 183.45 184.42 183.49 185.27 C 183.53 186.11 184.25 186.76 185.10 186.71 Z M 186.08 186.66 L 187.08 186.61 C 187.92 186.57 188.56 185.86 188.53 185.02 C 188.49 184.18 187.77 183.53 186.93 183.57 L 185.94 183.62 C 185.10 183.66 184.45 184.37 184.49 185.21 C 184.53 186.05 185.24 186.69 186.08 186.66 Z M 187.06 186.60 L 188.06 186.57 C 188.90 186.54 189.55 185.84 189.52 185.00 C 189.50 184.16 188.79 183.51 187.96 183.54 L 186.95 183.57 C 186.12 183.60 185.46 184.30 185.49 185.14 C 185.52 185.98 186.22 186.63 187.06 186.60 Z M 188.04 186.56 L 189.01 186.55 C 189.84 186.53 190.51 185.85 190.49 185.01 C 190.48 184.18 189.79 183.51 188.96 183.53 L 187.98 183.54 C 187.15 183.56 186.48 184.24 186.50 185.08 C 186.51 185.91 187.20 186.58 188.04 186.56 Z M 188.98 186.54 L 189.97 186.55 C 190.81 186.55 191.48 185.88 191.49 185.05 C 191.49 184.21 190.82 183.54 189.98 183.53 L 188.99 183.53 C 188.15 183.53 187.48 184.20 187.47 185.03 C 187.47 185.86 188.14 186.54 188.98 186.54 Z M 189.94 186.54 L 190.97 186.57 C 191.80 186.59 192.49 185.94 192.51 185.11 C 192.53 184.28 191.88 183.59 191.05 183.56 L 190.02 183.54 C 189.19 183.52 188.50 184.17 188.48 185.00 C 188.45 185.83 189.11 186.52 189.94 186.54 Z M 190.94 186.57 L 191.91 186.61 C 192.74 186.65 193.45 186.01 193.48 185.18 C 193.52 184.36 192.88 183.65 192.06 183.61 L 191.08 183.57 C 190.25 183.53 189.55 184.17 189.51 185.00 C 189.47 185.82 190.11 186.53 190.94 186.57 Z M 191.89 186.61 L 192.89 186.67 C 193.72 186.72 194.43 186.09 194.48 185.27 C 194.53 184.44 193.90 183.73 193.08 183.68 L 192.08 183.62 C 191.25 183.57 190.54 184.20 190.49 185.02 C 190.44 185.85 191.07 186.56 191.89 186.61 Z M 192.88 186.66 L 193.90 186.73 C 194.72 186.79 195.43 186.17 195.49 185.35 C 195.55 184.52 194.92 183.81 194.10 183.75 L 193.09 183.69 C 192.27 183.63 191.55 184.25 191.50 185.07 C 191.44 185.89 192.06 186.61 192.88 186.66 Z M 193.89 186.73 L 194.14 186.75 C 194.96 186.81 195.67 186.19 195.73 185.37 C 195.79 184.55 195.17 183.83 194.35 183.77 L 194.10 183.76 C 193.28 183.70 192.57 184.32 192.51 185.14 C 192.45 185.96 193.07 186.67 193.89 186.73 Z"
      fill="black"
      fill-rule="nonzero" /></svg>