<svg xmlns="http://www.w3.org/2000/svg" width="300" height="300" viewBox="0 0 300 300">
<path d="M 148.60 77.81 L 148.60 78.86 C 148.60 79.66 149.25 80.32 150.06 80.32 C 150.87 80.32 151.52 79.66 151.52 78.86 L 151.52 77.81 C 151.52 77.00 150.87 76.35 150.06 76.35 C 149.25 76.35 148.60 77.00 148.60 77.81 Z M 148.60 78.86 L 148.60 79.85 C 148.60 80.65 149.25 81.31 150.06 81.31 C 150.87 81.31 151.52 80.65 151.52 79.85 L 151.52 78.86 C 151.52 78.05 150.87 77.40 150.06 77.40 C 149.25 77.40 148.60 78.05 148.60 78.86 Z M 148.59 79.85 L 148.59 80.83 C 148.59 81.64 149.25 82.30 150.06 82.30 C 150.87 82.30 151.53 81.64 151.53 80.83 L 151.53 79.85 C 151.53 79.04 150.87 78.38 150.06 78.38 C 149.25 78.38 148.59 79.04 148.59 79.85 Z M 148.58 80.83 L 148.58 81.81 C 148.58 82.62 149.24 83.28 150.06 83.28 C 150.88 83.28 151.54 82.62 151.54 81.81 L 151.54 80.83 C 151.54 80.01 150.88 79.35 150.06 79.35 C 149.24 79.35 148.58 80.01 148.58 80.83 Z M 148.56 81.81 L 148.56 82.80 C 148.56 83.63 149.23 84.30 150.06 84.30 C 150.89 84.30 151.56 83.63 151.56 82.80 L 151.56 81.80 C 151.56 80.98 150.89 80.30 150.06 80.31 C 149.23 80.31 148.56 80.98 148.56 81.81 Z M 148.53 82.81 L 148.54 83.83 C 148.54 84.67 149.23 85.35 150.07 85.35 C 150.92 85.34 151.60 84.66 151.59 83.81 L 151.59 82.79 C 151.58 81.95 150.90 81.27 150.05 81.27 C 149.21 81.27 148.53 81.96 148.53 82.81 Z M 148.51 83.85 L 148.53 84.85 C 148.54 85.71 149.26 86.40 150.12 86.38 C 150.97 86.36 151.66 85.65 151.64 84.79 L 151.62 83.79 C 151.60 82.93 150.89 82.25 150.03 82.26 C 149.17 82.28 148.49 82.99 148.51 83.85 Z M 148.51 84.88 L 148.55 85.86 C 148.58 86.73 149.31 87.41 150.18 87.38 C 151.05 87.34 151.73 86.61 151.69 85.74 L 151.66 84.77 C 151.63 83.90 150.90 83.22 150.03 83.25 C 149.16 83.28 148.48 84.01 148.51 84.88 Z M 148.53 85.87 L 148.57 86.84 C 148.61 87.71 149.35 88.40 150.22 88.36 C 151.10 88.33 151.78 87.59 151.75 86.71 L 151.71 85.74 C 151.67 84.86 150.93 84.18 150.06 84.21 C 149.18 84.25 148.50 84.99 148.53 85.87 Z M 148.56 86.84 L 148.60 87.86 C 148.64 88.75 149.39 89.43 150.27 89.39 C 151.16 89.36 151.84 88.61 151.81 87.72 L 151.76 86.71 C 151.72 85.82 150.98 85.13 150.09 85.17 C 149.20 85.21 148.52 85.96 148.56 86.84 Z M 148.58 87.88 L 148.64 88.86 C 148.69 89.76 149.45 90.44 150.35 90.39 C 151.24 90.34 151.92 89.58 151.87 88.68 L 151.82 87.70 C 151.77 86.81 151.01 86.12 150.11 86.17 C 149.22 86.22 148.54 86.99 148.58 87.88 Z M 148.63 88.87 L 148.69 89.87 C 148.74 90.77 149.51 91.45 150.41 91.40 C 151.31 91.34 152.00 90.57 151.95 89.67 L 151.89 88.68 C 151.83 87.78 151.06 87.09 150.16 87.14 C 149.26 87.20 148.57 87.97 148.63 88.87 Z M 148.67 89.85 L 148.72 90.83 C 148.77 91.74 149.54 92.44 150.45 92.39 C 151.36 92.35 152.05 91.57 152.01 90.67 L 151.96 89.69 C 151.91 88.78 151.14 88.08 150.23 88.13 C 149.33 88.17 148.63 88.94 148.67 89.85 Z M 148.71 90.81 L 148.75 91.78 C 148.78 92.69 149.55 93.40 150.46 93.37 C 151.37 93.34 152.09 92.57 152.05 91.66 L 152.02 90.69 C 151.99 89.78 151.22 89.06 150.31 89.10 C 149.39 89.13 148.68 89.90 148.71 90.81 Z M 148.74 91.76 L 148.76 92.81 C 148.78 93.73 149.55 94.46 150.46 94.44 C 151.38 94.42 152.11 93.65 152.09 92.73 L 152.06 91.68 C 152.04 90.76 151.28 90.03 150.36 90.05 C 149.44 90.07 148.72 90.84 148.74 91.76 Z M 148.75 92.79 L 148.76 93.74 C 148.78 94.66 149.53 95.40 150.46 95.39 C 151.38 95.38 152.12 94.62 152.11 93.70 L 152.10 92.75 C 152.09 91.83 151.33 91.09 150.40 91.10 C 149.48 91.11 148.74 91.87 148.75 92.79 Z M 148.76 93.73 L 148.76 94.69 C 148.77 95.61 149.52 96.36 150.45 96.36 C 151.38 96.35 152.13 95.60 152.12 94.67 L 152.12 93.71 C 152.11 92.78 151.36 92.03 150.43 92.04 C 149.50 92.04 148.75 92.80 148.76 93.73 Z M 148.75 94.68 L 148.76 95.72 C 148.76 96.65 149.51 97.41 150.45 97.40 C 151.38 97.40 152.13 96.65 152.13 95.71 L 152.13 94.67 C 152.13 93.74 151.37 92.99 150.44 92.99 C 149.51 92.99 148.75 93.75 148.75 94.68 Z M 148.75 95.72 L 148.75 96.76 C 148.75 97.70 149.51 98.46 150.44 98.46 C 151.38 98.46 152.14 97.70 152.14 96.76 L 152.14 95.72 C 152.14 94.78 151.38 94.02 150.44 94.02 C 149.51 94.02 148.75 94.78 148.75 95.72 Z M 148.74 96.76 L 148.74 97.69 C 148.74 98.63 149.50 99.39 150.44 99.39 C 151.39 99.39 152.15 98.63 152.15 97.69 L 152.15 96.76 C 152.15 95.82 151.39 95.06 150.44 95.06 C 149.50 95.06 148.74 95.82 148.74 96.76 Z M 148.73 97.69 L 148.73 98.67 C 148.73 99.61 149.50 100.38 150.44 100.38 C 151.39 100.38 152.16 99.61 152.16 98.67 L 152.16 97.69 C 152.16 96.74 151.39 95.97 150.44 95.97 C 149.50 95.97 148.73 96.74 148.73 97.69 Z M 148.72 98.67 L 148.72 99.70 C 148.72 100.65 149.49 101.42 150.44 101.42 C 151.40 101.42 152.17 100.65 152.17 99.70 L 152.17 98.67 C 152.17 97.71 151.40 96.94 150.44 96.94 C 149.49 96.94 148.72 97.71 148.72 98.67 Z M 148.71 99.70 L 148.71 100.77 C 148.71 101.73 149.49 102.51 150.44 102.51 C 151.40 102.51 152.18 101.73 152.18 100.77 L 152.18 99.70 C 152.18 98.74 151.40 97.96 150.44 97.96 C 149.49 97.96 148.71 98.74 148.71 99.70 Z M 148.70 100.77 L 148.70 101.75 C 148.70 102.71 149.48 103.49 150.44 103.49 C 151.41 103.49 152.19 102.71 152.19 101.75 L 152.19 100.77 C 152.19 99.81 151.41 99.03 150.44 99.03 C 149.48 99.03 148.70 99.81 148.70 100.77 Z M 148.69 101.75 L 148.69 102.71 C 148.69 103.68 149.47 104.46 150.44 104.46 C 151.41 104.46 152.19 103.68 152.19 102.71 L 152.19 101.75 C 152.20 100.79 151.41 100.00 150.45 100.00 C 149.48 100.00 148.70 100.78 148.69 101.75 Z M 148.69 102.70 L 148.68 103.69 C 148.68 104.66 149.46 105.45 150.43 105.46 C 151.40 105.46 152.19 104.68 152.19 103.71 L 152.20 102.72 C 152.20 101.75 151.42 100.96 150.45 100.96 C 149.48 100.95 148.69 101.73 148.69 102.70 Z M 148.68 103.68 L 148.67 104.70 C 148.66 105.67 149.44 106.47 150.41 106.48 C 151.38 106.49 152.18 105.70 152.19 104.73 L 152.20 103.72 C 152.21 102.75 151.43 101.95 150.46 101.94 C 149.48 101.93 148.69 102.71 148.68 103.68 Z M 148.66 104.69 L 148.64 105.72 C 148.63 106.70 149.40 107.50 150.38 107.52 C 151.36 107.54 152.16 106.76 152.18 105.78 L 152.19 104.74 C 152.21 103.77 151.43 102.97 150.46 102.95 C 149.48 102.93 148.68 103.71 148.66 104.69 Z M 148.64 105.71 L 148.61 106.75 C 148.59 107.73 149.36 108.54 150.34 108.56 C 151.32 108.59 152.13 107.81 152.15 106.84 L 152.18 105.80 C 152.20 104.82 151.43 104.01 150.45 103.98 C 149.48 103.96 148.66 104.73 148.64 105.71 Z M 148.61 106.73 L 148.58 107.73 C 148.54 108.71 149.31 109.53 150.29 109.56 C 151.27 109.59 152.09 108.82 152.13 107.84 L 152.16 106.85 C 152.19 105.87 151.42 105.05 150.44 105.02 C 149.46 104.98 148.64 105.75 148.61 106.73 Z M 148.57 107.71 L 148.53 108.72 C 148.49 109.70 149.26 110.53 150.24 110.57 C 151.22 110.61 152.05 109.84 152.09 108.86 L 152.13 107.86 C 152.17 106.87 151.41 106.04 150.42 106.00 C 149.44 105.96 148.61 106.73 148.57 107.71 Z M 148.52 108.71 L 148.48 109.71 C 148.43 110.70 149.20 111.54 150.18 111.58 C 151.17 111.63 152.01 110.86 152.05 109.88 L 152.10 108.87 C 152.14 107.88 151.38 107.05 150.39 107.00 C 149.41 106.96 148.57 107.72 148.52 108.71 Z M 148.47 109.70 L 148.42 110.71 C 148.37 111.70 149.13 112.54 150.12 112.59 C 151.11 112.64 151.95 111.88 152.00 110.89 L 152.06 109.89 C 152.11 108.90 151.35 108.06 150.36 108.01 C 149.37 107.95 148.52 108.72 148.47 109.70 Z M 148.42 110.70 L 148.36 111.70 C 148.31 112.69 149.07 113.54 150.06 113.60 C 151.05 113.65 151.90 112.89 151.95 111.90 L 152.01 110.90 C 152.06 109.91 151.30 109.06 150.31 109.01 C 149.32 108.95 148.47 109.71 148.42 110.70 Z M 148.36 111.69 L 148.30 112.69 C 148.24 113.68 149.00 114.54 149.99 114.59 C 150.99 114.65 151.84 113.89 151.90 112.90 L 151.96 111.91 C 152.02 110.91 151.26 110.06 150.26 110.00 C 149.27 109.94 148.42 110.70 148.36 111.69 Z M 148.29 112.68 L 148.23 113.68 C 148.17 114.67 148.93 115.53 149.92 115.60 C 150.92 115.66 151.78 114.90 151.84 113.90 L 151.90 112.91 C 151.97 111.91 151.21 111.05 150.21 110.99 C 149.21 110.93 148.36 111.68 148.29 112.68 Z M 148.23 113.67 L 148.16 114.66 C 148.10 115.66 148.86 116.52 149.86 116.59 C 150.85 116.65 151.72 115.89 151.78 114.90 L 151.85 113.91 C 151.91 112.91 151.15 112.05 150.15 111.98 C 149.15 111.92 148.29 112.67 148.23 113.67 Z M 148.16 114.66 L 148.09 115.64 C 148.03 116.65 148.79 117.51 149.79 117.58 C 150.79 117.65 151.66 116.89 151.72 115.88 L 151.79 114.90 C 151.85 113.90 151.09 113.03 150.09 112.96 C 149.09 112.90 148.22 113.66 148.16 114.66 Z M 148.09 115.64 L 148.02 116.64 C 147.96 117.64 148.72 118.51 149.72 118.58 C 150.72 118.64 151.59 117.88 151.66 116.88 L 151.73 115.89 C 151.79 114.88 151.03 114.01 150.03 113.95 C 149.02 113.88 148.16 114.64 148.09 115.64 Z M 148.02 116.64 L 147.95 117.65 C 147.88 118.65 148.65 119.52 149.65 119.59 C 150.66 119.66 151.53 118.90 151.60 117.89 L 151.66 116.88 C 151.73 115.87 150.97 115.00 149.96 114.94 C 148.95 114.87 148.08 115.63 148.02 116.64 Z M 147.95 117.65 L 147.88 118.62 C 147.82 119.63 148.58 120.50 149.59 120.57 C 150.60 120.63 151.47 119.87 151.54 118.86 L 151.60 117.89 C 151.67 116.88 150.90 116.01 149.89 115.94 C 148.88 115.88 148.01 116.64 147.95 117.65 Z M 147.88 118.62 L 147.82 119.58 C 147.75 120.59 148.52 121.46 149.53 121.53 C 150.55 121.59 151.42 120.82 151.48 119.81 L 151.54 118.86 C 151.61 117.84 150.84 116.97 149.83 116.91 C 148.82 116.84 147.94 117.61 147.88 118.62 Z M 147.81 119.58 L 147.75 120.56 C 147.69 121.57 148.46 122.45 149.47 122.51 C 150.49 122.57 151.36 121.80 151.43 120.79 L 151.49 119.81 C 151.55 118.80 150.78 117.92 149.77 117.86 C 148.75 117.80 147.88 118.57 147.81 119.58 Z M 147.75 120.56 L 147.69 121.56 C 147.62 122.57 148.40 123.45 149.41 123.51 C 150.43 123.57 151.30 122.80 151.37 121.79 L 151.43 120.79 C 151.49 119.77 150.72 118.90 149.70 118.83 C 148.69 118.77 147.81 119.54 147.75 120.56 Z M 147.68 121.56 L 147.62 122.58 C 147.56 123.59 148.33 124.47 149.35 124.53 C 150.37 124.60 151.25 123.82 151.31 122.80 L 151.37 121.79 C 151.43 120.77 150.66 119.89 149.64 119.83 C 148.62 119.76 147.75 120.54 147.68 121.56 Z M 147.62 122.57 L 147.55 123.61 C 147.49 124.63 148.26 125.51 149.29 125.57 C 150.31 125.64 151.19 124.86 151.25 123.84 L 151.31 122.80 C 151.38 121.78 150.60 120.90 149.58 120.84 C 148.56 120.78 147.68 121.55 147.62 122.57 Z M 147.55 123.61 L 147.48 124.64 C 147.42 125.66 148.20 126.55 149.22 126.61 C 150.24 126.67 151.12 125.90 151.19 124.87 L 151.25 123.84 C 151.32 122.82 150.54 121.94 149.52 121.87 C 148.49 121.81 147.61 122.59 147.55 123.61 Z M 147.48 124.64 L 147.42 125.62 C 147.35 126.64 148.13 127.52 149.16 127.59 C 150.18 127.65 151.06 126.87 151.13 125.85 L 151.19 124.87 C 151.26 123.85 150.48 122.97 149.45 122.90 C 148.43 122.84 147.55 123.62 147.48 124.64 Z M 147.42 125.62 L 147.35 126.60 C 147.29 127.63 148.07 128.51 149.09 128.58 C 150.12 128.64 151.00 127.86 151.07 126.84 L 151.13 125.85 C 151.20 124.82 150.42 123.94 149.39 123.88 C 148.37 123.81 147.48 124.59 147.42 125.62 Z M 147.35 126.60 L 147.29 127.60 C 147.22 128.63 148.00 129.51 149.03 129.58 C 150.06 129.64 150.94 128.86 151.01 127.84 L 151.07 126.84 C 151.14 125.81 150.36 124.93 149.33 124.86 C 148.30 124.80 147.42 125.58 147.35 126.60 Z M 147.29 127.60 L 147.22 128.61 C 147.16 129.64 147.94 130.52 148.97 130.59 C 150.00 130.65 150.88 129.87 150.95 128.84 L 151.01 127.84 C 151.08 126.81 150.29 125.92 149.27 125.86 C 148.24 125.79 147.35 126.57 147.29 127.60 Z M 147.22 128.61 L 147.16 129.62 C 147.09 130.65 147.88 131.53 148.91 131.60 C 149.94 131.66 150.83 130.88 150.89 129.85 L 150.95 128.84 C 151.02 127.81 150.23 126.92 149.20 126.86 C 148.17 126.79 147.28 127.58 147.22 128.61 Z M 147.15 129.62 L 147.09 130.63 C 147.03 131.66 147.81 132.55 148.85 132.61 C 149.88 132.68 150.77 131.89 150.83 130.86 L 150.89 129.85 C 150.96 128.81 150.17 127.93 149.14 127.86 C 148.11 127.80 147.22 128.59 147.15 129.62 Z M 147.09 130.63 L 147.03 131.64 C 146.97 132.68 147.75 133.56 148.79 133.63 C 149.82 133.69 150.71 132.90 150.77 131.87 L 150.83 130.86 C 150.90 129.82 150.11 128.93 149.07 128.87 C 148.04 128.81 147.15 129.60 147.09 130.63 Z M 147.03 131.64 L 146.97 132.65 C 146.91 133.69 147.70 134.57 148.73 134.64 C 149.77 134.70 150.66 133.91 150.72 132.87 L 150.78 131.86 C 150.84 130.83 150.05 129.94 149.01 129.88 C 147.98 129.82 147.09 130.61 147.03 131.64 Z M 146.96 132.65 L 146.91 133.66 C 146.84 134.69 147.64 135.58 148.67 135.64 C 149.71 135.70 150.60 134.91 150.66 133.87 L 150.72 132.87 C 150.78 131.83 149.99 130.94 148.95 130.88 C 147.91 130.82 147.02 131.62 146.96 132.65 Z M 146.90 133.66 L 146.84 134.66 C 146.78 135.70 147.58 136.59 148.62 136.65 C 149.65 136.71 150.55 135.91 150.61 134.88 L 150.66 133.87 C 150.72 132.84 149.93 131.95 148.89 131.88 C 147.85 131.82 146.96 132.62 146.90 133.66 Z M 146.84 134.66 L 146.78 135.66 C 146.72 136.70 147.52 137.59 148.56 137.65 C 149.60 137.71 150.49 136.92 150.55 135.87 L 150.61 134.88 C 150.67 133.84 149.87 132.94 148.83 132.88 C 147.79 132.82 146.90 133.62 146.84 134.66 Z M 146.78 135.65 L 146.72 136.65 C 146.66 137.69 147.46 138.59 148.50 138.65 C 149.54 138.71 150.43 137.91 150.49 136.87 L 150.55 135.88 C 150.61 134.83 149.82 133.94 148.78 133.88 C 147.74 133.82 146.84 134.61 146.78 135.65 Z M 146.72 136.65 L 146.66 137.64 C 146.60 138.68 147.39 139.58 148.44 139.64 C 149.48 139.70 150.38 138.91 150.44 137.86 L 150.50 136.87 C 150.56 135.83 149.77 134.93 148.72 134.87 C 147.68 134.81 146.78 135.60 146.72 136.65 Z M 146.66 137.63 L 146.60 138.62 C 146.53 139.66 147.33 140.56 148.37 140.62 C 149.42 140.69 150.32 139.89 150.38 138.85 L 150.44 137.87 C 150.51 136.82 149.71 135.92 148.67 135.86 C 147.62 135.79 146.72 136.59 146.66 137.63 Z M 146.59 138.61 L 146.53 139.59 C 146.47 140.63 147.26 141.53 148.31 141.60 C 149.35 141.67 150.25 140.87 150.32 139.83 L 150.38 138.85 C 150.45 137.81 149.65 136.91 148.61 136.84 C 147.56 136.77 146.66 137.57 146.59 138.61 Z M 146.53 139.58 L 146.47 140.56 C 146.40 141.60 147.19 142.51 148.24 142.57 C 149.29 142.64 150.19 141.85 150.26 140.80 L 150.32 139.83 C 150.39 138.78 149.60 137.88 148.55 137.81 C 147.50 137.74 146.60 138.54 146.53 139.58 Z M 146.47 140.56 L 146.40 141.54 C 146.33 142.58 147.13 143.49 148.18 143.56 C 149.22 143.62 150.13 142.83 150.20 141.78 L 150.26 140.80 C 150.33 139.76 149.53 138.85 148.49 138.78 C 147.44 138.71 146.53 139.51 146.47 140.56 Z M 146.40 141.54 L 146.34 142.53 C 146.27 143.58 147.06 144.48 148.11 144.55 C 149.16 144.62 150.07 143.82 150.13 142.77 L 150.20 141.78 C 150.27 140.73 149.47 139.83 148.42 139.76 C 147.37 139.69 146.47 140.49 146.40 141.54 Z M 146.33 142.53 L 146.27 143.54 C 146.20 144.59 147.00 145.49 148.05 145.56 C 149.10 145.63 150.01 144.83 150.07 143.78 L 150.14 142.77 C 150.20 141.72 149.41 140.82 148.36 140.75 C 147.31 140.68 146.40 141.48 146.33 142.53 Z M 146.27 143.54 L 146.21 144.57 C 146.14 145.62 146.94 146.53 147.99 146.59 C 149.04 146.65 149.95 145.85 150.01 144.80 L 150.08 143.77 C 150.14 142.72 149.34 141.82 148.29 141.75 C 147.24 141.69 146.33 142.49 146.27 143.54 Z M 146.20 144.58 L 146.14 145.61 C 146.08 146.66 146.89 147.56 147.94 147.62 C 148.99 147.68 149.89 146.88 149.95 145.83 L 150.01 144.80 C 150.08 143.74 149.27 142.84 148.22 142.78 C 147.17 142.72 146.27 143.52 146.20 144.58 Z M 146.14 145.61 L 146.09 146.58 C 146.03 147.63 146.84 148.54 147.89 148.59 C 148.94 148.65 149.85 147.84 149.90 146.79 L 149.96 145.82 C 150.02 144.77 149.21 143.87 148.15 143.81 C 147.10 143.75 146.20 144.56 146.14 145.61 Z M 146.09 146.59 L 146.03 147.57 C 145.98 148.63 146.79 149.53 147.84 149.58 C 148.90 149.64 149.80 148.83 149.85 147.77 L 149.91 146.79 C 149.96 145.73 149.15 144.83 148.10 144.78 C 147.04 144.72 146.14 145.53 146.09 146.59 Z M 146.03 147.58 L 145.98 148.58 C 145.93 149.63 146.74 150.53 147.80 150.59 C 148.85 150.64 149.75 149.83 149.80 148.77 L 149.85 147.77 C 149.91 146.72 149.10 145.82 148.04 145.76 C 146.99 145.71 146.09 146.52 146.03 147.58 Z M 145.98 148.58 L 145.93 149.59 C 145.88 150.65 146.69 151.55 147.75 151.60 C 148.81 151.65 149.70 150.83 149.76 149.78 L 149.81 148.77 C 149.86 147.71 149.04 146.81 147.99 146.76 C 146.93 146.71 146.03 147.53 145.98 148.58 Z M 145.93 149.59 L 145.88 150.61 C 145.83 151.66 146.65 152.56 147.71 152.61 C 148.76 152.66 149.66 151.85 149.71 150.79 L 149.76 149.77 C 149.81 148.72 148.99 147.82 147.93 147.77 C 146.88 147.72 145.98 148.54 145.93 149.59 Z M 145.88 150.61 L 145.83 151.62 C 145.79 152.68 146.60 153.58 147.66 153.63 C 148.72 153.67 149.62 152.86 149.67 151.80 L 149.71 150.79 C 149.76 149.73 148.94 148.83 147.88 148.78 C 146.83 148.73 145.93 149.55 145.88 150.61 Z M 145.83 151.63 L 145.79 152.63 C 145.74 153.69 146.56 154.59 147.62 154.63 C 148.68 154.68 149.57 153.86 149.62 152.80 L 149.67 151.80 C 149.71 150.74 148.89 149.84 147.84 149.79 C 146.78 149.75 145.88 150.57 145.83 151.63 Z M 145.79 152.63 L 145.74 153.65 C 145.70 154.71 146.52 155.60 147.58 155.65 C 148.64 155.70 149.53 154.88 149.58 153.82 L 149.62 152.80 C 149.67 151.74 148.85 150.85 147.79 150.80 C 146.73 150.75 145.83 151.57 145.79 152.63 Z M 145.74 153.65 L 145.70 154.68 C 145.65 155.74 146.47 156.64 147.53 156.69 C 148.59 156.73 149.49 155.91 149.54 154.85 L 149.58 153.81 C 149.63 152.75 148.80 151.86 147.74 151.81 C 146.68 151.77 145.79 152.59 145.74 153.65 Z M 145.70 154.69 L 145.65 155.71 C 145.61 156.77 146.43 157.66 147.49 157.71 C 148.55 157.75 149.45 156.93 149.49 155.87 L 149.54 154.85 C 149.58 153.79 148.76 152.89 147.70 152.85 C 146.64 152.80 145.74 153.62 145.70 154.69 Z M 145.65 155.71 L 145.61 156.72 C 145.56 157.78 146.39 158.67 147.45 158.72 C 148.51 158.76 149.41 157.94 149.45 156.88 L 149.50 155.87 C 149.54 154.81 148.71 153.91 147.65 153.87 C 146.59 153.82 145.70 154.65 145.65 155.71 Z M 145.61 156.72 L 145.57 157.71 C 145.52 158.77 146.35 159.67 147.41 159.71 C 148.47 159.76 149.37 158.93 149.41 157.87 L 149.45 156.88 C 149.50 155.81 148.67 154.92 147.61 154.87 C 146.55 154.83 145.65 155.65 145.61 156.72 Z M 145.57 157.71 L 145.52 158.70 C 145.48 159.76 146.31 160.66 147.37 160.70 C 148.43 160.74 149.33 159.92 149.37 158.86 L 149.41 157.87 C 149.46 156.81 148.63 155.91 147.57 155.87 C 146.51 155.82 145.61 156.65 145.57 157.71 Z M 145.52 158.70 L 145.48 159.67 C 145.44 160.73 146.26 161.63 147.33 161.68 C 148.39 161.72 149.29 160.89 149.33 159.83 L 149.37 158.86 C 149.42 157.79 148.59 156.89 147.53 156.85 C 146.47 156.81 145.57 157.63 145.52 158.70 Z M 145.48 159.67 L 145.44 160.63 C 145.40 161.70 146.22 162.60 147.29 162.64 C 148.35 162.69 149.25 161.86 149.29 160.80 L 149.33 159.83 C 149.38 158.77 148.55 157.87 147.49 157.82 C 146.43 157.78 145.53 158.61 145.48 159.67 Z M 145.44 160.63 L 145.40 161.63 C 145.35 162.69 146.18 163.59 147.24 163.64 C 148.31 163.68 149.21 162.86 149.25 161.79 L 149.29 160.80 C 149.34 159.73 148.51 158.83 147.45 158.79 C 146.39 158.74 145.49 159.57 145.44 160.63 Z M 145.40 161.63 L 145.36 162.63 C 145.31 163.69 146.13 164.59 147.20 164.64 C 148.26 164.68 149.16 163.86 149.21 162.79 L 149.25 161.80 C 149.30 160.73 148.47 159.83 147.41 159.79 C 146.34 159.74 145.44 160.56 145.40 161.63 Z M 145.36 162.62 L 145.31 163.62 C 145.26 164.68 146.09 165.58 147.15 165.63 C 148.22 165.68 149.12 164.85 149.17 163.79 L 149.21 162.79 C 149.26 161.73 148.43 160.83 147.37 160.78 C 146.30 160.74 145.40 161.56 145.36 162.62 Z M 145.31 163.62 L 145.27 164.61 C 145.22 165.67 146.04 166.57 147.11 166.62 C 148.17 166.67 149.07 165.85 149.12 164.78 L 149.17 163.79 C 149.21 162.72 148.39 161.82 147.32 161.78 C 146.26 161.73 145.36 162.55 145.31 163.62 Z M 145.27 164.61 L 145.22 165.60 C 145.17 166.67 146.00 167.57 147.06 167.62 C 148.12 167.67 149.03 166.84 149.08 165.78 L 149.12 164.78 C 149.17 163.72 148.35 162.82 147.28 162.77 C 146.22 162.72 145.32 163.54 145.27 164.61 Z M 145.22 165.60 L 145.18 166.60 C 145.13 167.66 145.95 168.57 147.01 168.62 C 148.08 168.67 148.98 167.84 149.03 166.78 L 149.07 165.78 C 149.12 164.72 148.30 163.81 147.24 163.76 C 146.17 163.71 145.27 164.54 145.22 165.60 Z M 145.18 166.60 L 145.13 167.61 C 145.08 168.67 145.90 169.57 146.96 169.63 C 148.03 169.68 148.93 168.85 148.98 167.79 L 149.03 166.78 C 149.08 165.72 148.26 164.81 147.19 164.76 C 146.13 164.71 145.23 165.53 145.18 166.60 Z M 145.13 167.61 L 145.08 168.58 C 145.03 169.64 145.85 170.55 146.91 170.60 C 147.98 170.65 148.88 169.83 148.93 168.76 L 148.98 167.79 C 149.03 166.73 148.21 165.82 147.15 165.77 C 146.08 165.72 145.18 166.54 145.13 167.61 Z M 145.08 168.58 L 145.03 169.55 C 144.98 170.61 145.80 171.51 146.87 171.57 C 147.93 171.62 148.83 170.80 148.89 169.73 L 148.93 168.77 C 148.99 167.70 148.17 166.80 147.10 166.74 C 146.04 166.69 145.13 167.51 145.08 168.58 Z M 145.03 169.54 L 144.98 170.52 C 144.93 171.59 145.75 172.49 146.82 172.55 C 147.88 172.60 148.79 171.78 148.84 170.71 L 148.89 169.73 C 148.94 168.67 148.12 167.76 147.05 167.71 C 145.99 167.66 145.08 168.48 145.03 169.54 Z M 144.98 170.52 L 144.93 171.52 C 144.88 172.58 145.70 173.49 146.77 173.54 C 147.83 173.59 148.74 172.77 148.79 171.71 L 148.84 170.71 C 148.89 169.65 148.07 168.74 147.01 168.69 C 145.94 168.64 145.04 169.46 144.98 170.52 Z M 144.93 171.51 L 144.88 172.52 C 144.83 173.58 145.65 174.49 146.72 174.54 C 147.78 174.60 148.69 173.78 148.74 172.71 L 148.79 171.71 C 148.84 170.64 148.02 169.74 146.96 169.68 C 145.89 169.63 144.99 170.45 144.93 171.51 Z M 144.88 172.52 L 144.83 173.53 C 144.78 174.60 145.60 175.51 146.67 175.56 C 147.73 175.61 148.64 174.79 148.69 173.73 L 148.74 172.71 C 148.79 171.64 147.97 170.74 146.91 170.69 C 145.84 170.63 144.94 171.45 144.88 172.52 Z M 144.83 173.54 L 144.78 174.56 C 144.73 175.63 145.55 176.54 146.62 176.59 C 147.68 176.64 148.59 175.82 148.64 174.75 L 148.69 173.73 C 148.74 172.66 147.92 171.75 146.86 171.70 C 145.79 171.65 144.89 172.47 144.83 173.54 Z M 144.78 174.57 L 144.73 175.60 C 144.68 176.66 145.50 177.57 146.57 177.62 C 147.63 177.67 148.54 176.85 148.59 175.78 L 148.64 174.75 C 148.69 173.69 147.87 172.78 146.81 172.73 C 145.74 172.68 144.83 173.50 144.78 174.57 Z M 144.73 175.60 L 144.68 176.59 C 144.63 177.65 145.45 178.56 146.52 178.61 C 147.59 178.66 148.49 177.84 148.54 176.77 L 148.59 175.78 C 148.64 174.72 147.82 173.81 146.75 173.76 C 145.69 173.71 144.78 174.53 144.73 175.60 Z M 144.68 176.59 L 144.64 177.59 C 144.58 178.65 145.41 179.56 146.47 179.61 C 147.54 179.66 148.44 178.84 148.50 177.77 L 148.54 176.77 C 148.59 175.71 147.77 174.80 146.71 174.75 C 145.64 174.70 144.73 175.52 144.68 176.59 Z M 144.64 177.59 L 144.59 178.59 C 144.54 179.66 145.36 180.56 146.42 180.61 C 147.49 180.66 148.40 179.84 148.45 178.78 L 148.50 177.77 C 148.55 176.71 147.72 175.80 146.66 175.75 C 145.59 175.70 144.69 176.52 144.64 177.59 Z M 144.59 178.59 L 144.54 179.60 C 144.49 180.66 145.31 181.57 146.38 181.62 C 147.44 181.67 148.35 180.85 148.40 179.78 L 148.45 178.78 C 148.50 177.71 147.68 176.80 146.61 176.75 C 145.55 176.70 144.64 177.52 144.59 178.59 Z M 144.54 179.59 L 144.49 180.60 C 144.44 181.67 145.26 182.57 146.32 182.63 C 147.39 182.68 148.30 181.86 148.35 180.79 L 148.40 179.78 C 148.45 178.72 147.63 177.81 146.56 177.76 C 145.50 177.71 144.59 178.53 144.54 179.59 Z M 144.49 180.60 L 144.44 181.60 C 144.39 182.67 145.21 183.57 146.27 183.63 C 147.34 183.68 148.25 182.86 148.30 181.80 L 148.35 180.79 C 148.40 179.73 147.58 178.82 146.52 178.77 C 145.45 178.71 144.54 179.53 144.49 180.60 Z M 144.44 181.60 L 144.39 182.60 C 144.33 183.66 145.15 184.57 146.22 184.62 C 147.28 184.68 148.19 183.86 148.25 182.79 L 148.30 181.80 C 148.35 180.73 147.53 179.82 146.47 179.77 C 145.40 179.71 144.49 180.53 144.44 181.60 Z M 144.39 182.59 L 144.33 183.58 C 144.28 184.65 145.10 185.56 146.16 185.61 C 147.23 185.67 148.14 184.85 148.19 183.79 L 148.25 182.80 C 148.30 181.73 147.49 180.82 146.42 180.77 C 145.35 180.71 144.44 181.53 144.39 182.59 Z M 144.34 183.58 L 144.28 184.59 C 144.22 185.65 145.04 186.57 146.10 186.62 C 147.17 186.68 148.08 185.87 148.14 184.80 L 148.19 183.79 C 148.25 182.73 147.44 181.81 146.37 181.76 C 145.31 181.70 144.39 182.51 144.34 183.58 Z M 144.28 184.58 L 144.22 185.58 C 144.16 186.65 144.98 187.56 146.04 187.62 C 147.11 187.68 148.02 186.87 148.08 185.81 L 148.14 184.81 C 148.20 183.74 147.38 182.83 146.32 182.77 C 145.25 182.71 144.34 183.52 144.28 184.58 Z M 144.22 185.58 L 144.16 186.58 C 144.10 187.64 144.91 188.55 145.98 188.62 C 147.04 188.68 147.96 187.87 148.02 186.80 L 148.08 185.81 C 148.14 184.74 147.33 183.83 146.27 183.77 C 145.20 183.70 144.29 184.52 144.22 185.58 Z M 144.17 186.57 L 144.11 187.56 C 144.04 188.63 144.85 189.54 145.92 189.61 C 146.98 189.67 147.90 188.86 147.96 187.80 L 148.02 186.81 C 148.08 185.74 147.27 184.83 146.21 184.76 C 145.14 184.70 144.23 185.51 144.17 186.57 Z M 144.11 187.56 L 144.05 188.55 C 143.98 189.62 144.79 190.53 145.85 190.60 C 146.92 190.66 147.83 189.85 147.90 188.79 L 147.96 187.80 C 148.03 186.73 147.22 185.82 146.15 185.75 C 145.09 185.69 144.17 186.50 144.11 187.56 Z M 144.05 188.55 L 143.98 189.54 C 143.92 190.61 144.73 191.52 145.79 191.59 C 146.85 191.66 147.77 190.85 147.84 189.78 L 147.90 188.79 C 147.97 187.73 147.16 186.81 146.09 186.74 C 145.03 186.68 144.11 187.49 144.05 188.55 Z M 143.98 189.54 L 143.92 190.54 C 143.85 191.61 144.66 192.52 145.72 192.59 C 146.79 192.66 147.71 191.85 147.77 190.79 L 147.84 189.79 C 147.90 188.72 147.10 187.81 146.03 187.74 C 144.97 187.67 144.05 188.48 143.98 189.54 Z M 143.92 190.54 L 143.86 191.54 C 143.79 192.61 144.60 193.52 145.66 193.59 C 146.72 193.66 147.64 192.85 147.71 191.79 L 147.77 190.79 C 147.84 189.72 147.03 188.81 145.97 188.74 C 144.91 188.67 143.99 189.48 143.92 190.54 Z M 143.86 191.54 L 143.79 192.54 C 143.73 193.60 144.53 194.52 145.60 194.58 C 146.66 194.65 147.58 193.85 147.64 192.78 L 147.71 191.79 C 147.78 190.73 146.97 189.81 145.91 189.74 C 144.84 189.67 143.93 190.48 143.86 191.54 Z M 143.80 192.54 L 143.73 193.54 C 143.66 194.60 144.47 195.52 145.53 195.58 C 146.59 195.65 147.51 194.85 147.58 193.78 L 147.64 192.78 C 147.71 191.72 146.91 190.80 145.84 190.74 C 144.78 190.67 143.86 191.47 143.80 192.54 Z M 143.73 193.53 L 143.67 194.54 C 143.60 195.60 144.40 196.52 145.46 196.59 C 146.53 196.66 147.44 195.85 147.51 194.79 L 147.58 193.79 C 147.65 192.72 146.84 191.81 145.78 191.74 C 144.72 191.67 143.80 192.47 143.73 193.53 Z M 143.67 194.54 L 143.60 195.54 C 143.53 196.60 144.33 197.52 145.39 197.59 C 146.46 197.66 147.37 196.86 147.44 195.80 L 147.51 194.79 C 147.58 193.73 146.78 192.81 145.72 192.74 C 144.66 192.67 143.74 193.48 143.67 194.54 Z M 143.60 195.54 L 143.53 196.55 C 143.46 197.61 144.26 198.52 145.32 198.60 C 146.39 198.67 147.30 197.87 147.37 196.81 L 147.44 195.80 C 147.51 194.74 146.71 193.82 145.65 193.75 C 144.59 193.68 143.67 194.48 143.60 195.54 Z M 143.53 196.54 L 143.47 197.54 C 143.39 198.60 144.19 199.52 145.25 199.59 C 146.31 199.67 147.23 198.87 147.30 197.81 L 147.37 196.81 C 147.45 195.75 146.65 194.83 145.59 194.76 C 144.53 194.68 143.61 195.48 143.53 196.54 Z M 143.47 197.54 L 143.40 198.53 C 143.32 199.59 144.12 200.51 145.18 200.58 C 146.24 200.66 147.16 199.86 147.23 198.80 L 147.30 197.81 C 147.38 196.75 146.58 195.83 145.52 195.76 C 144.46 195.68 143.54 196.48 143.47 197.54 Z M 143.40 198.52 L 143.32 199.52 C 143.25 200.58 144.04 201.50 145.10 201.58 C 146.16 201.66 147.08 200.86 147.16 199.80 L 147.23 198.81 C 147.31 197.75 146.51 196.82 145.46 196.75 C 144.40 196.67 143.48 197.47 143.40 198.52 Z M 143.33 199.52 L 143.25 200.55 C 143.17 201.61 143.96 202.53 145.02 202.61 C 146.08 202.69 147.00 201.90 147.08 200.84 L 147.16 199.81 C 147.24 198.75 146.44 197.83 145.39 197.75 C 144.33 197.67 143.41 198.46 143.33 199.52 Z M 143.25 200.54 L 143.17 201.56 C 143.09 202.62 143.88 203.54 144.93 203.62 C 145.99 203.71 146.92 202.92 147.00 201.86 L 147.08 200.84 C 147.16 199.78 146.37 198.86 145.31 198.78 C 144.26 198.70 143.33 199.49 143.25 200.54 Z M 143.17 201.56 L 143.09 202.56 C 143.01 203.62 143.79 204.54 144.85 204.63 C 145.91 204.71 146.83 203.92 146.92 202.87 L 147.00 201.86 C 147.08 200.81 146.29 199.88 145.24 199.80 C 144.18 199.71 143.26 200.50 143.17 201.56 Z M 143.09 202.56 L 143.01 203.55 C 142.93 204.61 143.71 205.53 144.77 205.62 C 145.82 205.70 146.75 204.92 146.83 203.86 L 146.91 202.87 C 147.00 201.81 146.22 200.89 145.16 200.80 C 144.10 200.72 143.18 201.50 143.09 202.56 Z M 143.01 203.55 L 142.93 204.53 C 142.84 205.59 143.63 206.51 144.68 206.60 C 145.74 206.69 146.66 205.90 146.75 204.85 L 146.83 203.87 C 146.92 202.81 146.14 201.89 145.08 201.80 C 144.03 201.71 143.10 202.49 143.01 203.55 Z M 142.93 204.53 L 142.85 205.51 C 142.76 206.56 143.55 207.49 144.60 207.57 C 145.65 207.66 146.58 206.88 146.67 205.83 L 146.75 204.85 C 146.84 203.80 146.05 202.87 145.00 202.78 C 143.95 202.69 143.02 203.48 142.93 204.53 Z M 142.85 205.51 L 142.77 206.47 C 142.68 207.53 143.46 208.45 144.52 208.54 C 145.57 208.63 146.49 207.85 146.58 206.80 L 146.67 205.83 C 146.75 204.77 145.97 203.85 144.92 203.76 C 143.87 203.67 142.94 204.45 142.85 205.51 Z M 142.77 206.47 L 142.69 207.49 C 142.60 208.54 143.38 209.46 144.43 209.55 C 145.48 209.64 146.41 208.86 146.50 207.81 L 146.58 206.80 C 146.67 205.74 145.89 204.82 144.84 204.73 C 143.79 204.64 142.86 205.42 142.77 206.47 Z M 142.69 207.49 L 142.60 208.51 C 142.51 209.56 143.29 210.48 144.34 210.57 C 145.39 210.66 146.32 209.88 146.41 208.83 L 146.49 207.81 C 146.58 206.76 145.80 205.84 144.75 205.75 C 143.70 205.66 142.78 206.44 142.69 207.49 Z M 142.60 208.51 L 142.52 209.52 C 142.43 210.57 143.20 211.49 144.25 211.58 C 145.30 211.67 146.23 210.90 146.32 209.85 L 146.41 208.83 C 146.50 207.78 145.72 206.86 144.67 206.77 C 143.62 206.68 142.69 207.46 142.60 208.51 Z M 142.52 209.52 L 142.43 210.52 C 142.34 211.57 143.12 212.49 144.17 212.58 C 145.21 212.67 146.14 211.90 146.23 210.85 L 146.32 209.85 C 146.41 208.80 145.63 207.87 144.58 207.78 C 143.53 207.69 142.61 208.47 142.52 209.52 Z M 142.43 210.52 L 142.35 211.51 C 142.25 212.56 143.03 213.48 144.08 213.57 C 145.12 213.66 146.05 212.89 146.14 211.84 L 146.23 210.85 C 146.32 209.80 145.54 208.88 144.50 208.79 C 143.45 208.70 142.52 209.47 142.43 210.52 Z M 142.35 211.51 L 142.26 212.48 C 142.17 213.53 142.94 214.45 143.99 214.55 C 145.03 214.64 145.96 213.87 146.05 212.82 L 146.14 211.84 C 146.23 210.80 145.46 209.87 144.41 209.78 C 143.37 209.69 142.44 210.46 142.35 211.51 Z M 142.26 212.48 L 142.18 213.44 C 142.08 214.49 142.85 215.41 143.90 215.51 C 144.94 215.60 145.87 214.83 145.96 213.78 L 146.05 212.82 C 146.14 211.78 145.37 210.85 144.33 210.76 C 143.28 210.66 142.36 211.43 142.26 212.48 Z M 142.18 213.44 L 142.08 214.44 C 141.99 215.49 142.76 216.41 143.80 216.51 C 144.84 216.61 145.77 215.84 145.87 214.79 L 145.96 213.79 C 146.06 212.74 145.29 211.82 144.24 211.72 C 143.20 211.62 142.27 212.39 142.18 213.44 Z M 142.09 214.44 L 141.99 215.45 C 141.89 216.49 142.66 217.42 143.70 217.52 C 144.74 217.62 145.67 216.85 145.77 215.81 L 145.86 214.80 C 145.96 213.75 145.20 212.83 144.15 212.73 C 143.11 212.63 142.19 213.40 142.09 214.44 Z M 141.99 215.45 L 141.90 216.45 C 141.80 217.49 142.56 218.41 143.60 218.51 C 144.64 218.61 145.57 217.85 145.67 216.81 L 145.77 215.81 C 145.87 214.77 145.10 213.84 144.06 213.74 C 143.02 213.64 142.09 214.41 141.99 215.45 Z M 141.90 216.45 L 141.80 217.43 C 141.70 218.47 142.47 219.40 143.51 219.50 C 144.55 219.60 145.47 218.84 145.57 217.80 L 145.67 216.81 C 145.77 215.77 145.01 214.85 143.97 214.74 C 142.93 214.64 142.00 215.41 141.90 216.45 Z M 141.81 217.43 L 141.71 218.42 C 141.61 219.46 142.37 220.38 143.41 220.48 C 144.45 220.58 145.37 219.82 145.47 218.78 L 145.57 217.80 C 145.67 216.76 144.91 215.84 143.87 215.74 C 142.83 215.63 141.91 216.39 141.81 217.43 Z M 141.71 218.42 L 141.62 219.40 C 141.52 220.44 142.28 221.36 143.31 221.46 C 144.35 221.56 145.28 220.80 145.38 219.76 L 145.47 218.78 C 145.57 217.75 144.81 216.82 143.78 216.72 C 142.74 216.62 141.81 217.38 141.71 218.42 Z M 141.62 219.40 L 141.53 220.38 C 141.42 221.42 142.18 222.34 143.22 222.44 C 144.26 222.54 145.18 221.78 145.28 220.75 L 145.37 219.76 C 145.47 218.73 144.72 217.81 143.68 217.71 C 142.64 217.60 141.72 218.36 141.62 219.40 Z M 141.53 220.39 L 141.43 221.37 C 141.33 222.41 142.09 223.33 143.13 223.43 C 144.16 223.53 145.08 222.77 145.18 221.73 L 145.28 220.75 C 145.38 219.71 144.62 218.79 143.58 218.69 C 142.55 218.59 141.63 219.35 141.53 220.39 Z M 141.43 221.37 L 141.34 222.37 C 141.24 223.40 142.00 224.32 143.04 224.42 C 144.07 224.51 144.99 223.75 145.09 222.72 L 145.18 221.73 C 145.28 220.70 144.52 219.78 143.49 219.68 C 142.45 219.58 141.53 220.34 141.43 221.37 Z M 141.34 222.37 L 141.25 223.36 C 141.15 224.40 141.91 225.31 142.94 225.41 C 143.98 225.51 144.89 224.75 144.99 223.71 L 145.08 222.72 C 145.18 221.69 144.42 220.77 143.39 220.67 C 142.36 220.58 141.44 221.33 141.34 222.37 Z M 141.25 223.37 L 141.16 224.36 C 141.06 225.40 141.82 226.31 142.85 226.40 C 143.89 226.50 144.80 225.74 144.90 224.71 L 144.99 223.71 C 145.08 222.68 144.33 221.76 143.29 221.67 C 142.26 221.57 141.35 222.33 141.25 223.37 Z M 141.16 224.37 L 141.07 225.37 C 140.98 226.40 141.74 227.31 142.77 227.40 C 143.80 227.50 144.71 226.74 144.80 225.71 L 144.89 224.71 C 144.99 223.68 144.23 222.76 143.20 222.67 C 142.17 222.58 141.26 223.34 141.16 224.37 Z M 141.07 225.37 L 140.98 226.37 C 140.89 227.40 141.65 228.31 142.68 228.41 C 143.71 228.50 144.62 227.74 144.71 226.71 L 144.80 225.71 C 144.89 224.68 144.13 223.77 143.10 223.67 C 142.07 223.58 141.16 224.34 141.07 225.37 Z M 140.98 226.38 L 140.90 227.38 C 140.80 228.41 141.56 229.32 142.59 229.41 C 143.62 229.50 144.53 228.74 144.62 227.71 L 144.71 226.71 C 144.80 225.68 144.04 224.77 143.01 224.68 C 141.98 224.59 141.07 225.35 140.98 226.38 Z M 140.90 227.38 L 140.81 228.39 C 140.72 229.42 141.48 230.32 142.51 230.41 C 143.54 230.50 144.44 229.74 144.53 228.71 L 144.62 227.71 C 144.71 226.68 143.95 225.78 142.92 225.69 C 141.89 225.60 140.99 226.36 140.90 227.38 Z M 140.81 228.39 L 140.72 229.39 C 140.64 230.42 141.40 231.32 142.42 231.41 C 143.45 231.50 144.35 230.74 144.44 229.72 L 144.53 228.71 C 144.62 227.69 143.86 226.78 142.83 226.69 C 141.80 226.60 140.90 227.36 140.81 228.39 Z M 140.73 229.39 L 140.64 230.39 C 140.55 231.42 141.31 232.32 142.34 232.41 C 143.36 232.50 144.26 231.74 144.35 230.71 L 144.44 229.72 C 144.53 228.69 143.77 227.79 142.74 227.70 C 141.72 227.61 140.82 228.37 140.73 229.39 Z M 140.64 230.39 L 140.56 231.38 C 140.47 232.41 141.22 233.31 142.25 233.40 C 143.27 233.49 144.17 232.73 144.26 231.71 L 144.35 230.72 C 144.44 229.69 143.68 228.79 142.66 228.70 C 141.63 228.61 140.73 229.37 140.64 230.39 Z M 140.56 231.38 L 140.47 232.37 C 140.38 233.39 141.13 234.29 142.16 234.38 C 143.18 234.47 144.08 233.72 144.17 232.70 L 144.26 231.71 C 144.35 230.69 143.60 229.79 142.57 229.70 C 141.55 229.60 140.65 230.36 140.56 231.38 Z M 140.47 232.36 L 140.38 233.38 C 140.29 234.40 141.04 235.31 142.06 235.40 C 143.08 235.49 143.98 234.74 144.08 233.72 L 144.17 232.70 C 144.26 231.68 143.51 230.78 142.49 230.68 C 141.47 230.59 140.57 231.34 140.47 232.36 Z M 140.38 233.38 L 140.28 234.46 C 140.19 235.48 140.94 236.38 141.96 236.48 C 142.97 236.57 143.88 235.82 143.97 234.80 L 144.07 233.72 C 144.17 232.70 143.42 231.80 142.40 231.71 C 141.38 231.61 140.48 232.36 140.38 233.38 Z M 140.29 234.45 L 140.19 235.51 C 140.09 236.52 140.83 237.43 141.85 237.52 C 142.87 237.62 143.77 236.87 143.87 235.86 L 143.97 234.81 C 144.07 233.79 143.32 232.89 142.30 232.79 C 141.29 232.69 140.38 233.44 140.29 234.45 Z M 140.19 235.50 L 140.09 236.52 C 139.99 237.53 140.74 238.43 141.75 238.53 C 142.77 238.63 143.67 237.89 143.77 236.87 L 143.87 235.86 C 143.96 234.84 143.22 233.94 142.21 233.84 C 141.19 233.74 140.29 234.49 140.19 235.50 Z M 140.10 236.51 L 140.00 237.48 C 139.90 238.49 140.65 239.39 141.66 239.49 C 142.67 239.59 143.57 238.85 143.67 237.83 L 143.77 236.87 C 143.86 235.86 143.12 234.96 142.11 234.86 C 141.09 234.76 140.19 235.50 140.10 236.51 Z M 140.01 237.48 L 139.92 238.38 C 139.82 239.39 140.56 240.29 141.57 240.39 C 142.58 240.48 143.48 239.74 143.58 238.73 L 143.67 237.83 C 143.77 236.82 143.03 235.92 142.01 235.82 C 141.00 235.72 140.10 236.47 140.01 237.48 Z M 139.92 238.38 L 139.82 239.43 C 139.73 240.44 140.47 241.34 141.48 241.43 C 142.49 241.53 143.38 240.79 143.48 239.78 L 143.58 238.73 C 143.67 237.72 142.93 236.82 141.92 236.73 C 140.91 236.63 140.02 237.37 139.92 238.38 Z M 139.83 239.44 L 139.73 240.51 C 139.63 241.52 140.37 242.41 141.38 242.51 C 142.39 242.60 143.28 241.86 143.37 240.85 L 143.47 239.77 C 143.57 238.77 142.83 237.88 141.82 237.78 C 140.81 237.69 139.92 238.43 139.83 239.44 Z M 139.73 240.52 L 139.64 241.48 C 139.55 242.48 140.29 243.37 141.29 243.46 C 142.30 243.55 143.19 242.81 143.28 241.81 L 143.37 240.85 C 143.46 239.85 142.72 238.96 141.72 238.87 C 140.71 238.77 139.83 239.51 139.73 240.52 Z M 139.65 241.47 L 139.57 242.35 C 139.48 243.35 140.21 244.24 141.21 244.33 C 142.21 244.43 143.10 243.69 143.19 242.69 L 143.27 241.81 C 143.37 240.81 142.63 239.93 141.63 239.83 C 140.63 239.74 139.74 240.47 139.65 241.47 Z M 139.58 242.35 L 139.48 243.33 C 139.38 244.33 140.11 245.22 141.11 245.31 C 142.10 245.41 142.99 244.68 143.09 243.69 L 143.18 242.70 C 143.28 241.70 142.55 240.82 141.55 240.72 C 140.56 240.62 139.67 241.35 139.58 242.35 Z M 139.49 243.33 L 139.39 244.34 C 139.29 245.33 140.02 246.21 141.01 246.31 C 142.00 246.40 142.88 245.68 142.98 244.69 L 143.08 243.69 C 143.18 242.69 142.45 241.81 141.46 241.72 C 140.47 241.62 139.59 242.34 139.49 243.33 Z M 139.40 244.35 L 139.31 245.31 C 139.22 246.30 139.95 247.17 140.93 247.26 C 141.92 247.35 142.79 246.63 142.88 245.64 L 142.97 244.68 C 143.06 243.69 142.34 242.82 141.35 242.73 C 140.36 242.64 139.49 243.36 139.40 244.35 Z M 139.32 245.34 L 139.24 246.34 C 139.17 247.33 139.90 248.18 140.88 248.26 C 141.87 248.33 142.72 247.60 142.80 246.62 L 142.88 245.61 C 142.95 244.63 142.22 243.77 141.23 243.70 C 140.25 243.62 139.39 244.36 139.32 245.34 Z M 139.25 246.38 L 139.19 247.38 C 139.14 248.36 139.88 249.20 140.86 249.26 C 141.84 249.31 142.67 248.57 142.73 247.59 L 142.79 246.58 C 142.85 245.61 142.10 244.77 141.12 244.71 C 140.14 244.65 139.31 245.40 139.25 246.38 Z M 139.20 247.42 L 139.16 248.39 C 139.13 249.36 139.88 250.18 140.86 250.22 C 141.83 250.26 142.64 249.50 142.68 248.53 L 142.72 247.55 C 142.76 246.58 142.00 245.76 141.03 245.73 C 140.06 245.69 139.24 246.45 139.20 247.42 Z M 139.18 248.43 L 139.16 249.47 C 139.14 250.44 139.91 251.23 140.87 251.25 C 141.83 251.27 142.63 250.50 142.65 249.54 L 142.67 248.49 C 142.69 247.53 141.92 246.73 140.96 246.72 C 139.99 246.70 139.20 247.46 139.18 248.43 Z M 139.18 249.50 L 139.17 250.48 C 139.17 251.44 139.93 252.22 140.89 252.22 C 141.84 252.23 142.62 251.46 142.62 250.50 L 142.63 249.52 C 142.63 248.56 141.87 247.79 140.91 247.78 C 139.96 247.78 139.18 248.54 139.18 249.50 Z M 139.19 250.50 L 139.19 251.48 C 139.19 252.42 139.96 253.18 140.90 253.18 C 141.84 253.18 142.60 252.42 142.60 251.47 L 142.60 250.49 C 142.60 249.55 141.84 248.79 140.90 248.79 C 139.95 248.79 139.19 249.55 139.19 250.50 Z M 139.21 251.51 L 139.23 252.49 C 139.25 253.42 140.02 254.16 140.95 254.15 C 141.88 254.13 142.62 253.36 142.60 252.43 L 142.58 251.44 C 142.57 250.51 141.80 249.77 140.87 249.79 C 139.94 249.81 139.20 250.58 139.21 251.51 Z M 139.26 252.58 L 139.34 253.63 C 139.41 254.55 140.20 255.23 141.11 255.17 C 142.03 255.10 142.71 254.30 142.65 253.39 L 142.57 252.34 C 142.50 251.43 141.71 250.74 140.80 250.81 C 139.88 250.87 139.20 251.67 139.26 252.58 Z M 139.43 253.93 L 139.69 254.90 C 139.92 255.77 140.80 256.28 141.67 256.05 C 142.53 255.82 143.04 254.94 142.82 254.07 L 142.56 253.10 C 142.33 252.23 141.44 251.72 140.58 251.95 C 139.72 252.18 139.20 253.06 139.43 253.93 Z M 140.50 255.86 L 141.21 256.25 C 141.97 256.66 142.92 256.38 143.33 255.62 C 143.75 254.87 143.47 253.92 142.71 253.50 L 142.00 253.11 C 141.24 252.70 140.29 252.98 139.88 253.74 C 139.47 254.50 139.74 255.45 140.50 255.86 Z M 142.54 256.25 L 143.49 255.85 C 144.25 255.53 144.60 254.65 144.28 253.89 C 143.96 253.13 143.08 252.77 142.32 253.10 L 141.38 253.50 C 140.62 253.82 140.26 254.70 140.58 255.46 C 140.91 256.22 141.79 256.57 142.54 256.25 Z M 144.04 255.37 L 144.63 254.62 C 145.13 253.99 145.02 253.08 144.39 252.58 C 143.77 252.09 142.85 252.19 142.36 252.82 L 141.77 253.58 C 141.27 254.20 141.38 255.12 142.01 255.61 C 142.63 256.11 143.55 256.00 144.04 255.37 Z M 144.79 254.34 L 145.22 253.44 C 145.57 252.73 145.26 251.87 144.55 251.53 C 143.84 251.18 142.98 251.48 142.64 252.20 L 142.21 253.10 C 141.86 253.81 142.16 254.67 142.88 255.01 C 143.59 255.35 144.45 255.05 144.79 254.34 Z M 145.24 253.38 L 145.63 252.46 C 145.94 251.73 145.61 250.89 144.88 250.59 C 144.15 250.28 143.32 250.61 143.01 251.34 L 142.62 252.26 C 142.31 252.98 142.65 253.82 143.37 254.13 C 144.10 254.44 144.94 254.10 145.24 253.38 Z M 145.66 252.39 L 146.01 251.42 C 146.28 250.69 145.90 249.87 145.16 249.60 C 144.43 249.33 143.61 249.71 143.34 250.44 L 142.98 251.41 C 142.71 252.15 143.09 252.97 143.83 253.24 C 144.57 253.51 145.39 253.13 145.66 252.39 Z M 146.03 251.36 L 146.33 250.41 C 146.57 249.66 146.15 248.86 145.40 248.62 C 144.65 248.39 143.85 248.80 143.61 249.56 L 143.31 250.51 C 143.08 251.26 143.50 252.06 144.25 252.30 C 145.00 252.53 145.80 252.11 146.03 251.36 Z M 146.34 250.38 L 146.57 249.58 C 146.79 248.83 146.36 248.03 145.60 247.82 C 144.85 247.60 144.06 248.03 143.84 248.79 L 143.60 249.58 C 143.38 250.34 143.82 251.13 144.57 251.35 C 145.33 251.57 146.12 251.14 146.34 250.38 Z"
      fill="black"
      fill-rule="nonzero" /></svg>