<svg xmlns="http://www.w3.org/2000/svg" width="300" height="300" viewBox="0 0 300 300">
<path d="M 206.46 90.30 L 205.59 89.80 C 204.89 89.39 203.98 89.64 203.57 90.34 C 203.17 91.05 203.41 91.96 204.12 92.37 L 204.99 92.87 C 205.70 93.27 206.60 93.03 207.01 92.32 C 207.42 91.61 207.17 90.71 206.46 90.30 Z M 205.54 89.76 L 204.66 89.30 C 203.93 88.92 203.03 89.21 202.65 89.94 C 202.27 90.66 202.56 91.56 203.28 91.94 L 204.17 92.40 C 204.90 92.78 205.80 92.50 206.18 91.77 C 206.56 91.04 206.27 90.14 205.54 89.76 Z M 204.55 89.23 L 203.64 88.85 C 202.87 88.53 201.99 88.90 201.67 89.66 C 201.35 90.43 201.71 91.31 202.48 91.63 L 203.39 92.01 C 204.16 92.33 205.04 91.97 205.36 91.20 C 205.68 90.43 205.32 89.55 204.55 89.23 Z M 203.47 88.77 L 202.51 88.50 C 201.69 88.28 200.85 88.75 200.63 89.56 C 200.40 90.37 200.87 91.21 201.68 91.44 L 202.65 91.71 C 203.46 91.94 204.30 91.46 204.53 90.65 C 204.75 89.84 204.28 89.00 203.47 88.77 Z M 202.30 88.44 L 201.32 88.31 C 200.47 88.19 199.70 88.79 199.58 89.64 C 199.47 90.48 200.06 91.26 200.91 91.37 L 201.89 91.50 C 202.74 91.62 203.51 91.02 203.63 90.18 C 203.74 89.33 203.15 88.55 202.30 88.44 Z M 201.17 88.27 L 200.17 88.24 C 199.30 88.20 198.58 88.88 198.54 89.75 C 198.51 90.61 199.19 91.34 200.05 91.37 L 201.06 91.41 C 201.92 91.44 202.65 90.76 202.68 89.90 C 202.71 89.03 202.04 88.31 201.17 88.27 Z M 200.11 88.21 L 199.08 88.21 C 198.21 88.21 197.49 88.92 197.49 89.80 C 197.49 90.68 198.20 91.39 199.08 91.39 L 200.11 91.39 C 200.99 91.40 201.70 90.69 201.70 89.81 C 201.70 88.93 200.99 88.21 200.11 88.21 Z M 199.07 88.18 L 198.05 88.19 C 197.16 88.19 196.44 88.92 196.44 89.82 C 196.45 90.71 197.17 91.43 198.07 91.43 L 199.09 91.42 C 199.98 91.41 200.70 90.69 200.70 89.79 C 200.69 88.90 199.97 88.18 199.07 88.18 Z M 198.01 88.16 L 197.05 88.19 C 196.14 88.21 195.42 88.97 195.44 89.88 C 195.47 90.79 196.23 91.51 197.14 91.48 L 198.10 91.46 C 199.01 91.43 199.73 90.67 199.71 89.76 C 199.68 88.85 198.92 88.13 198.01 88.16 Z M 196.97 88.17 L 195.96 88.24 C 195.04 88.31 194.35 89.11 194.42 90.03 C 194.49 90.95 195.29 91.64 196.21 91.58 L 197.22 91.50 C 198.14 91.43 198.83 90.63 198.76 89.71 C 198.69 88.79 197.89 88.10 196.97 88.17 Z M 195.85 88.24 L 194.89 88.37 C 193.97 88.50 193.33 89.36 193.46 90.28 C 193.59 91.20 194.44 91.85 195.36 91.72 L 196.32 91.58 C 197.25 91.45 197.89 90.60 197.76 89.67 C 197.63 88.75 196.77 88.11 195.85 88.24 Z M 194.80 88.37 L 193.87 88.56 C 192.94 88.74 192.34 89.64 192.52 90.56 C 192.71 91.48 193.60 92.08 194.53 91.90 L 195.46 91.72 C 196.38 91.53 196.98 90.64 196.80 89.71 C 196.62 88.79 195.72 88.19 194.80 88.37 Z M 193.81 88.55 L 192.78 88.79 C 191.85 89.00 191.27 89.92 191.48 90.85 C 191.69 91.78 192.62 92.36 193.54 92.15 L 194.58 91.91 C 195.51 91.70 196.09 90.77 195.88 89.85 C 195.66 88.92 194.74 88.34 193.81 88.55 Z M 192.75 88.78 L 191.86 88.99 C 190.93 89.21 190.35 90.15 190.57 91.08 C 190.80 92.02 191.74 92.59 192.67 92.37 L 193.56 92.16 C 194.50 91.93 195.07 91.00 194.85 90.06 C 194.63 89.13 193.69 88.55 192.75 88.78 Z M 191.85 88.98 L 190.88 89.21 C 189.94 89.44 189.36 90.39 189.59 91.33 C 189.82 92.27 190.76 92.85 191.70 92.62 L 192.68 92.38 C 193.62 92.16 194.20 91.21 193.97 90.27 C 193.74 89.33 192.79 88.75 191.85 88.98 Z M 190.88 89.20 L 189.84 89.45 C 188.89 89.68 188.31 90.64 188.53 91.58 C 188.76 92.53 189.72 93.11 190.67 92.88 L 191.71 92.63 C 192.65 92.40 193.24 91.45 193.01 90.50 C 192.78 89.55 191.82 88.97 190.88 89.20 Z M 189.83 89.44 L 188.93 89.66 C 187.98 89.89 187.39 90.85 187.62 91.80 C 187.85 92.75 188.81 93.34 189.76 93.11 L 190.67 92.89 C 191.62 92.66 192.20 91.70 191.97 90.75 C 191.75 89.80 190.79 89.21 189.83 89.44 Z M 188.92 89.66 L 187.96 89.89 C 187.01 90.12 186.42 91.08 186.65 92.04 C 186.88 92.99 187.84 93.58 188.80 93.35 L 189.76 93.11 C 190.72 92.88 191.30 91.92 191.07 90.97 C 190.84 90.01 189.88 89.43 188.92 89.66 Z M 187.96 89.89 L 186.94 90.14 C 185.99 90.37 185.40 91.34 185.64 92.29 C 185.87 93.25 186.83 93.83 187.79 93.60 L 188.80 93.35 C 189.76 93.12 190.35 92.15 190.11 91.20 C 189.88 90.24 188.91 89.65 187.96 89.89 Z M 186.93 90.14 L 185.95 90.38 C 185.00 90.62 184.41 91.59 184.65 92.55 C 184.89 93.50 185.86 94.08 186.82 93.85 L 187.80 93.60 C 188.76 93.36 189.34 92.39 189.10 91.44 C 188.86 90.48 187.89 89.90 186.93 90.14 Z M 185.94 90.38 L 185.02 90.61 C 184.06 90.86 183.48 91.83 183.72 92.79 C 183.97 93.75 184.94 94.33 185.90 94.09 L 186.83 93.85 C 187.79 93.61 188.37 92.63 188.12 91.67 C 187.88 90.71 186.90 90.13 185.94 90.38 Z M 185.01 90.61 L 184.05 90.86 C 183.09 91.11 182.51 92.09 182.76 93.05 C 183.01 94.01 183.99 94.59 184.95 94.34 L 185.91 94.09 C 186.87 93.84 187.45 92.86 187.20 91.90 C 186.95 90.94 185.97 90.36 185.01 90.61 Z M 184.04 90.85 L 183.04 91.11 C 182.08 91.37 181.50 92.35 181.76 93.32 C 182.01 94.28 182.99 94.86 183.96 94.60 L 184.96 94.34 C 185.92 94.09 186.50 93.10 186.24 92.14 C 185.99 91.18 185.00 90.60 184.04 90.85 Z M 183.04 91.11 L 182.03 91.38 C 181.07 91.63 180.49 92.62 180.75 93.59 C 181.00 94.56 182.00 95.13 182.96 94.88 L 183.97 94.61 C 184.93 94.35 185.51 93.36 185.25 92.39 C 184.99 91.43 184.00 90.85 183.04 91.11 Z M 182.03 91.37 L 181.12 91.61 C 180.16 91.87 179.58 92.87 179.84 93.84 C 180.10 94.80 181.10 95.38 182.06 95.12 L 182.97 94.88 C 183.94 94.62 184.51 93.62 184.25 92.66 C 183.99 91.69 183.00 91.11 182.03 91.37 Z M 181.12 91.61 L 180.19 91.86 C 179.22 92.13 178.64 93.12 178.91 94.09 C 179.17 95.06 180.17 95.64 181.14 95.38 L 182.07 95.12 C 183.04 94.86 183.61 93.86 183.35 92.89 C 183.09 91.92 182.09 91.35 181.12 91.61 Z M 180.18 91.86 L 179.22 92.12 C 178.24 92.39 177.67 93.39 177.94 94.36 C 178.20 95.33 179.20 95.91 180.17 95.64 L 181.14 95.38 C 182.11 95.11 182.68 94.11 182.42 93.14 C 182.16 92.17 181.15 91.60 180.18 91.86 Z M 179.21 92.12 L 178.21 92.40 C 177.24 92.67 176.66 93.67 176.93 94.64 C 177.20 95.62 178.21 96.19 179.18 95.92 L 180.18 95.64 C 181.15 95.38 181.72 94.37 181.46 93.40 C 181.19 92.42 180.18 91.85 179.21 92.12 Z M 178.20 92.40 L 177.18 92.68 C 176.20 92.95 175.63 93.96 175.90 94.94 C 176.17 95.91 177.18 96.48 178.16 96.21 L 179.18 95.92 C 180.16 95.65 180.73 94.64 180.46 93.67 C 180.19 92.69 179.18 92.12 178.20 92.40 Z M 177.17 92.68 L 176.26 92.94 C 175.28 93.21 174.71 94.22 174.99 95.20 C 175.26 96.17 176.27 96.74 177.25 96.47 L 178.16 96.21 C 179.14 95.94 179.70 94.92 179.43 93.95 C 179.16 92.97 178.15 92.41 177.17 92.68 Z M 176.25 92.93 L 175.31 93.20 C 174.34 93.48 173.77 94.49 174.05 95.47 C 174.32 96.44 175.34 97.01 176.31 96.73 L 177.25 96.47 C 178.23 96.19 178.79 95.18 178.52 94.20 C 178.24 93.23 177.23 92.66 176.25 92.93 Z M 175.31 93.20 L 174.35 93.47 C 173.37 93.75 172.81 94.77 173.09 95.75 C 173.36 96.72 174.38 97.29 175.36 97.01 L 176.32 96.73 C 177.29 96.46 177.86 95.44 177.58 94.46 C 177.30 93.49 176.28 92.92 175.31 93.20 Z M 174.34 93.47 L 173.37 93.75 C 172.39 94.04 171.83 95.05 172.11 96.03 C 172.39 97.01 173.41 97.57 174.39 97.29 L 175.36 97.01 C 176.34 96.73 176.90 95.71 176.62 94.73 C 176.34 93.76 175.32 93.19 174.34 93.47 Z M 173.36 93.75 L 172.37 94.04 C 171.40 94.32 170.83 95.35 171.12 96.32 C 171.40 97.30 172.42 97.86 173.40 97.58 L 174.39 97.29 C 175.37 97.01 175.93 95.98 175.65 95.01 C 175.36 94.03 174.34 93.47 173.36 93.75 Z M 172.37 94.04 L 171.38 94.33 C 170.40 94.62 169.84 95.64 170.13 96.62 C 170.41 97.60 171.44 98.16 172.41 97.87 L 173.41 97.58 C 174.38 97.29 174.94 96.27 174.66 95.29 C 174.37 94.31 173.35 93.75 172.37 94.04 Z M 171.37 94.33 L 170.44 94.61 C 169.46 94.90 168.90 95.92 169.19 96.90 C 169.48 97.88 170.51 98.44 171.49 98.15 L 172.42 97.87 C 173.40 97.58 173.95 96.55 173.66 95.58 C 173.38 94.60 172.35 94.04 171.37 94.33 Z M 170.43 94.61 L 169.50 94.89 C 168.52 95.18 167.96 96.21 168.26 97.19 C 168.55 98.16 169.58 98.72 170.56 98.43 L 171.49 98.15 C 172.47 97.85 173.03 96.82 172.73 95.85 C 172.44 94.87 171.41 94.31 170.43 94.61 Z M 169.49 94.89 L 168.55 95.17 C 167.57 95.47 167.02 96.50 167.31 97.48 C 167.61 98.45 168.64 99.01 169.61 98.71 L 170.56 98.43 C 171.54 98.13 172.09 97.10 171.79 96.12 C 171.50 95.15 170.47 94.59 169.49 94.89 Z M 168.54 95.17 L 167.58 95.47 C 166.61 95.77 166.06 96.80 166.36 97.78 C 166.65 98.75 167.69 99.30 168.66 99.00 L 169.62 98.71 C 170.60 98.41 171.15 97.38 170.85 96.40 C 170.55 95.43 169.52 94.88 168.54 95.17 Z M 167.58 95.47 L 166.61 95.77 C 165.63 96.07 165.08 97.11 165.39 98.08 C 165.69 99.06 166.72 99.60 167.70 99.30 L 168.67 99.00 C 169.65 98.70 170.19 97.66 169.89 96.69 C 169.59 95.71 168.55 95.17 167.58 95.47 Z M 166.60 95.77 L 165.62 96.08 C 164.64 96.38 164.10 97.42 164.40 98.40 C 164.71 99.37 165.75 99.91 166.72 99.61 L 167.71 99.30 C 168.68 99.00 169.23 97.96 168.92 96.98 C 168.62 96.01 167.58 95.46 166.60 95.77 Z M 165.61 96.08 L 164.67 96.38 C 163.69 96.68 163.15 97.73 163.46 98.70 C 163.77 99.68 164.81 100.22 165.78 99.91 L 166.73 99.61 C 167.70 99.30 168.24 98.26 167.93 97.28 C 167.63 96.31 166.59 95.77 165.61 96.08 Z M 164.66 96.38 L 163.74 96.67 C 162.76 96.98 162.23 98.03 162.54 99.00 C 162.85 99.98 163.89 100.51 164.87 100.20 L 165.79 99.91 C 166.76 99.59 167.30 98.55 166.99 97.58 C 166.68 96.60 165.63 96.07 164.66 96.38 Z M 163.73 96.67 L 162.80 96.98 C 161.82 97.29 161.29 98.34 161.60 99.31 C 161.92 100.28 162.96 100.82 163.93 100.50 L 164.87 100.20 C 165.84 99.89 166.38 98.84 166.06 97.87 C 165.75 96.89 164.71 96.36 163.73 96.67 Z M 162.79 96.98 L 161.84 97.29 C 160.87 97.60 160.34 98.65 160.65 99.62 C 160.97 100.60 162.02 101.13 162.99 100.81 L 163.94 100.50 C 164.91 100.18 165.44 99.14 165.13 98.17 C 164.81 97.19 163.76 96.66 162.79 96.98 Z M 161.84 97.29 L 160.88 97.60 C 159.91 97.92 159.38 98.97 159.70 99.94 C 160.02 100.92 161.06 101.44 162.04 101.12 L 163.00 100.81 C 163.97 100.49 164.50 99.44 164.18 98.47 C 163.86 97.50 162.81 96.97 161.84 97.29 Z M 160.88 97.60 L 159.91 97.92 C 158.93 98.25 158.41 99.29 158.73 100.27 C 159.05 101.24 160.10 101.77 161.07 101.44 L 162.04 101.12 C 163.01 100.80 163.54 99.75 163.22 98.78 C 162.90 97.81 161.85 97.28 160.88 97.60 Z M 159.90 97.92 L 158.93 98.25 C 157.96 98.57 157.43 99.62 157.75 100.60 C 158.08 101.57 159.13 102.09 160.10 101.77 L 161.08 101.44 C 162.05 101.12 162.57 100.07 162.25 99.10 C 161.93 98.13 160.88 97.60 159.90 97.92 Z M 158.92 98.25 L 157.97 98.57 C 157.00 98.90 156.47 99.95 156.80 100.92 C 157.12 101.89 158.18 102.42 159.15 102.09 L 160.10 101.77 C 161.08 101.44 161.60 100.39 161.27 99.42 C 160.95 98.45 159.90 97.92 158.92 98.25 Z M 157.96 98.57 L 157.03 98.89 C 156.06 99.22 155.54 100.27 155.86 101.24 C 156.19 102.21 157.24 102.73 158.22 102.40 L 159.15 102.09 C 160.12 101.76 160.64 100.71 160.32 99.74 C 159.99 98.77 158.93 98.24 157.96 98.57 Z M 157.03 98.89 L 156.09 99.21 C 155.12 99.54 154.60 100.59 154.92 101.56 C 155.25 102.53 156.31 103.05 157.28 102.72 L 158.22 102.40 C 159.19 102.07 159.71 101.02 159.38 100.05 C 159.05 99.08 158.00 98.56 157.03 98.89 Z M 156.08 99.21 L 155.14 99.53 C 154.17 99.86 153.65 100.91 153.98 101.89 C 154.31 102.86 155.37 103.38 156.34 103.04 L 157.28 102.72 C 158.25 102.39 158.77 101.34 158.44 100.37 C 158.11 99.39 157.05 98.88 156.08 99.21 Z M 155.14 99.53 L 154.19 99.85 C 153.22 100.19 152.70 101.24 153.03 102.21 C 153.37 103.18 154.42 103.70 155.39 103.37 L 156.34 103.04 C 157.31 102.71 157.83 101.66 157.50 100.69 C 157.16 99.71 156.11 99.20 155.14 99.53 Z M 154.19 99.85 L 153.24 100.18 C 152.27 100.51 151.75 101.57 152.08 102.54 C 152.42 103.51 153.47 104.03 154.44 103.70 L 155.39 103.37 C 156.37 103.04 156.88 101.98 156.55 101.01 C 156.22 100.04 155.16 99.52 154.19 99.85 Z M 153.23 100.18 L 152.28 100.51 C 151.31 100.84 150.79 101.90 151.13 102.87 C 151.46 103.84 152.52 104.36 153.49 104.02 L 154.44 103.70 C 155.42 103.36 155.93 102.30 155.60 101.33 C 155.26 100.36 154.20 99.85 153.23 100.18 Z M 152.28 100.51 L 151.32 100.84 C 150.35 101.18 149.83 102.23 150.17 103.20 C 150.50 104.17 151.56 104.69 152.53 104.36 L 153.49 104.02 C 154.46 103.69 154.98 102.63 154.64 101.66 C 154.31 100.69 153.25 100.17 152.28 100.51 Z M 151.32 100.84 L 150.38 101.16 C 149.41 101.50 148.90 102.56 149.23 103.53 C 149.57 104.50 150.63 105.01 151.60 104.68 L 152.53 104.35 C 153.50 104.02 154.02 102.96 153.68 101.99 C 153.35 101.02 152.29 100.50 151.32 100.84 Z M 150.38 101.16 L 149.45 101.49 C 148.48 101.82 147.96 102.88 148.30 103.85 C 148.63 104.82 149.69 105.34 150.66 105.00 L 151.60 104.68 C 152.57 104.34 153.08 103.28 152.75 102.31 C 152.41 101.34 151.35 100.83 150.38 101.16 Z M 149.45 101.49 L 148.51 101.81 C 147.54 102.15 147.02 103.20 147.36 104.17 C 147.69 105.14 148.75 105.66 149.72 105.33 L 150.66 105.00 C 151.63 104.67 152.15 103.61 151.81 102.64 C 151.48 101.67 150.42 101.15 149.45 101.49 Z M 148.51 101.81 L 147.57 102.13 C 146.60 102.47 146.08 103.52 146.41 104.49 C 146.75 105.47 147.80 105.98 148.77 105.65 L 149.72 105.33 C 150.69 104.99 151.21 103.94 150.87 102.97 C 150.54 101.99 149.48 101.48 148.51 101.81 Z M 147.57 102.13 L 146.62 102.46 C 145.65 102.79 145.13 103.84 145.46 104.81 C 145.80 105.79 146.85 106.30 147.82 105.97 L 148.77 105.65 C 149.74 105.32 150.26 104.26 149.93 103.29 C 149.60 102.32 148.54 101.80 147.57 102.13 Z M 146.63 102.45 L 145.68 102.78 C 144.70 103.10 144.18 104.16 144.51 105.13 C 144.84 106.10 145.89 106.62 146.86 106.30 L 147.82 105.98 C 148.79 105.65 149.31 104.59 148.98 103.62 C 148.66 102.65 147.60 102.13 146.63 102.45 Z M 145.68 102.77 L 144.72 103.09 C 143.75 103.42 143.23 104.47 143.55 105.44 C 143.88 106.42 144.93 106.94 145.90 106.62 L 146.86 106.30 C 147.83 105.97 148.36 104.92 148.03 103.95 C 147.71 102.98 146.66 102.45 145.68 102.77 Z M 144.73 103.09 L 143.77 103.41 C 142.80 103.73 142.27 104.78 142.59 105.75 C 142.91 106.73 143.96 107.26 144.93 106.94 L 145.89 106.62 C 146.87 106.30 147.40 105.25 147.08 104.28 C 146.76 103.30 145.71 102.77 144.73 103.09 Z M 143.78 103.41 L 142.85 103.71 C 141.87 104.03 141.34 105.07 141.65 106.05 C 141.97 107.02 143.02 107.56 143.99 107.24 L 144.93 106.94 C 145.90 106.62 146.44 105.57 146.12 104.60 C 145.80 103.62 144.76 103.09 143.78 103.41 Z M 142.85 103.71 L 141.91 104.01 C 140.93 104.32 140.40 105.37 140.71 106.34 C 141.02 107.32 142.07 107.86 143.04 107.55 L 143.98 107.24 C 144.96 106.93 145.50 105.89 145.19 104.91 C 144.87 103.93 143.83 103.39 142.85 103.71 Z M 141.92 104.01 L 140.97 104.31 C 139.99 104.62 139.45 105.66 139.76 106.64 C 140.07 107.61 141.11 108.16 142.09 107.85 L 143.04 107.55 C 144.01 107.24 144.56 106.19 144.25 105.22 C 143.94 104.24 142.89 103.70 141.92 104.01 Z M 140.97 104.31 L 140.02 104.60 C 139.04 104.91 138.50 105.95 138.81 106.93 C 139.11 107.91 140.15 108.45 141.13 108.15 L 142.08 107.85 C 143.06 107.54 143.61 106.50 143.30 105.52 C 142.99 104.54 141.95 104.00 140.97 104.31 Z M 140.03 104.60 L 139.07 104.90 C 138.09 105.20 137.54 106.24 137.85 107.22 C 138.15 108.20 139.19 108.75 140.17 108.44 L 141.13 108.15 C 142.10 107.84 142.65 106.80 142.35 105.83 C 142.05 104.85 141.01 104.30 140.03 104.60 Z M 139.07 104.90 L 138.11 105.20 C 137.13 105.50 136.58 106.53 136.88 107.51 C 137.18 108.49 138.22 109.04 139.20 108.74 L 140.16 108.44 C 141.14 108.14 141.69 107.11 141.39 106.13 C 141.09 105.15 140.05 104.60 139.07 104.90 Z M 138.11 105.19 L 137.14 105.49 C 136.16 105.79 135.61 106.83 135.91 107.81 C 136.21 108.79 137.25 109.34 138.23 109.04 L 139.20 108.74 C 140.18 108.44 140.73 107.41 140.43 106.43 C 140.13 105.45 139.09 104.90 138.11 105.19 Z M 137.15 105.49 L 136.17 105.79 C 135.19 106.08 134.64 107.12 134.94 108.10 C 135.24 109.08 136.27 109.63 137.25 109.33 L 138.23 109.04 C 139.21 108.74 139.76 107.70 139.46 106.72 C 139.16 105.74 138.13 105.19 137.15 105.49 Z M 136.17 105.79 L 135.18 106.09 C 134.20 106.38 133.65 107.42 133.95 108.40 C 134.24 109.38 135.28 109.93 136.26 109.64 L 137.25 109.33 C 138.23 109.04 138.78 108.00 138.49 107.02 C 138.19 106.04 137.15 105.49 136.17 105.79 Z M 135.19 106.09 L 134.19 106.39 C 133.21 106.68 132.66 107.71 132.95 108.69 C 133.25 109.67 134.28 110.23 135.26 109.93 L 136.25 109.63 C 137.23 109.34 137.79 108.31 137.49 107.33 C 137.20 106.35 136.16 105.79 135.19 106.09 Z M 134.20 106.39 L 133.21 106.68 C 132.23 106.97 131.67 108.01 131.97 108.99 C 132.26 109.96 133.29 110.52 134.27 110.23 L 135.26 109.93 C 136.24 109.64 136.79 108.61 136.50 107.63 C 136.21 106.65 135.18 106.09 134.20 106.39 Z M 133.22 106.68 L 132.24 106.97 C 131.26 107.26 130.70 108.29 130.99 109.27 C 131.28 110.25 132.31 110.81 133.29 110.52 L 134.27 110.23 C 135.25 109.94 135.80 108.91 135.51 107.93 C 135.22 106.95 134.20 106.39 133.22 106.68 Z M 132.24 106.97 L 131.28 107.25 C 130.30 107.54 129.74 108.57 130.03 109.55 C 130.32 110.53 131.34 111.09 132.32 110.80 L 133.28 110.52 C 134.26 110.23 134.83 109.20 134.54 108.22 C 134.25 107.24 133.22 106.68 132.24 106.97 Z M 131.29 107.25 L 130.35 107.52 C 129.37 107.81 128.80 108.83 129.09 109.81 C 129.37 110.79 130.39 111.36 131.37 111.07 L 132.32 110.80 C 133.30 110.52 133.86 109.49 133.58 108.51 C 133.29 107.53 132.27 106.97 131.29 107.25 Z M 130.36 107.52 L 129.44 107.78 C 128.46 108.06 127.89 109.08 128.17 110.06 C 128.45 111.04 129.47 111.61 130.45 111.33 L 131.37 111.07 C 132.35 110.79 132.92 109.77 132.64 108.79 C 132.36 107.81 131.34 107.24 130.36 107.52 Z M 129.45 107.78 L 128.52 108.04 C 127.54 108.31 126.97 109.33 127.24 110.31 C 127.51 111.29 128.53 111.87 129.51 111.59 L 130.44 111.34 C 131.42 111.06 131.99 110.05 131.72 109.06 C 131.45 108.08 130.43 107.51 129.45 107.78 Z M 128.53 108.04 L 127.48 108.33 C 126.49 108.59 125.91 109.60 126.18 110.59 C 126.45 111.57 127.46 112.15 128.44 111.88 L 129.50 111.60 C 130.48 111.33 131.06 110.32 130.79 109.34 C 130.53 108.35 129.52 107.77 128.53 108.04 Z M 127.49 108.32 L 126.48 108.59 C 125.49 108.85 124.91 109.86 125.17 110.84 C 125.42 111.82 126.43 112.41 127.41 112.15 L 128.43 111.89 C 129.41 111.63 130.00 110.62 129.74 109.64 C 129.48 108.65 128.47 108.07 127.49 108.32 Z M 126.49 108.59 L 125.52 108.84 C 124.53 109.09 123.94 110.09 124.19 111.07 C 124.44 112.06 125.44 112.65 126.42 112.40 L 127.40 112.15 C 128.38 111.90 128.98 110.90 128.73 109.92 C 128.48 108.93 127.48 108.34 126.49 108.59 Z M 125.53 108.83 L 124.59 109.07 C 123.60 109.31 123.00 110.30 123.24 111.29 C 123.48 112.28 124.48 112.88 125.46 112.64 L 126.41 112.40 C 127.39 112.16 128.00 111.17 127.75 110.18 C 127.51 109.20 126.52 108.59 125.53 108.83 Z M 124.60 109.06 L 123.68 109.28 C 122.70 109.52 122.09 110.51 122.32 111.49 C 122.55 112.48 123.54 113.09 124.53 112.86 L 125.45 112.64 C 126.44 112.40 127.05 111.41 126.81 110.43 C 126.58 109.44 125.59 108.83 124.60 109.06 Z M 123.70 109.28 L 122.80 109.49 C 121.81 109.71 121.19 110.70 121.42 111.68 C 121.64 112.67 122.63 113.29 123.61 113.06 L 124.51 112.86 C 125.50 112.63 126.12 111.65 125.89 110.66 C 125.67 109.67 124.68 109.06 123.70 109.28 Z M 122.81 109.49 L 121.83 109.70 C 120.84 109.92 120.22 110.90 120.43 111.89 C 120.65 112.87 121.63 113.50 122.62 113.28 L 123.60 113.07 C 124.59 112.85 125.21 111.87 124.99 110.88 C 124.78 109.89 123.80 109.27 122.81 109.49 Z M 121.84 109.70 L 120.85 109.91 C 119.86 110.12 119.23 111.09 119.44 112.08 C 119.65 113.07 120.62 113.70 121.61 113.49 L 122.60 113.28 C 123.59 113.07 124.22 112.10 124.02 111.11 C 123.81 110.12 122.83 109.49 121.84 109.70 Z M 120.87 109.91 L 119.89 110.10 C 118.90 110.30 118.25 111.27 118.45 112.26 C 118.65 113.25 119.62 113.89 120.61 113.69 L 121.59 113.50 C 122.59 113.30 123.23 112.33 123.03 111.34 C 122.83 110.35 121.86 109.71 120.87 109.91 Z M 119.90 110.10 L 118.93 110.29 C 117.94 110.48 117.29 111.44 117.48 112.43 C 117.67 113.43 118.63 114.08 119.62 113.88 L 120.59 113.70 C 121.59 113.51 122.24 112.55 122.05 111.55 C 121.86 110.56 120.90 109.91 119.90 110.10 Z M 118.95 110.29 L 117.98 110.46 C 116.98 110.64 116.32 111.60 116.50 112.59 C 116.69 113.59 117.64 114.25 118.63 114.06 L 119.60 113.89 C 120.60 113.71 121.26 112.75 121.07 111.76 C 120.89 110.76 119.94 110.11 118.95 110.29 Z M 117.99 110.46 L 117.02 110.63 C 116.03 110.80 115.36 111.75 115.53 112.74 C 115.70 113.74 116.65 114.41 117.64 114.23 L 118.61 114.07 C 119.61 113.90 120.28 112.95 120.11 111.95 C 119.94 110.96 118.99 110.29 117.99 110.46 Z M 117.04 110.63 L 116.04 110.79 C 115.04 110.95 114.36 111.89 114.52 112.89 C 114.68 113.88 115.62 114.56 116.62 114.40 L 117.62 114.24 C 118.62 114.07 119.30 113.14 119.14 112.14 C 118.97 111.14 118.04 110.47 117.04 110.63 Z M 116.05 110.79 L 115.05 110.94 C 114.06 111.09 113.37 112.02 113.52 113.02 C 113.67 114.01 114.60 114.70 115.60 114.55 L 116.60 114.40 C 117.60 114.25 118.28 113.32 118.13 112.32 C 117.98 111.32 117.05 110.64 116.05 110.79 Z M 115.07 110.94 L 114.08 111.08 C 113.08 111.22 112.39 112.14 112.53 113.14 C 112.67 114.14 113.59 114.83 114.59 114.69 L 115.58 114.55 C 116.58 114.41 117.27 113.49 117.13 112.49 C 116.99 111.49 116.07 110.80 115.07 110.94 Z M 114.10 111.08 L 113.11 111.21 C 112.12 111.34 111.41 112.25 111.54 113.25 C 111.67 114.24 112.59 114.95 113.58 114.82 L 114.57 114.69 C 115.56 114.56 116.27 113.65 116.14 112.65 C 116.01 111.65 115.09 110.95 114.10 111.08 Z M 113.13 111.21 L 112.16 111.33 C 111.16 111.45 110.45 112.35 110.57 113.35 C 110.69 114.34 111.59 115.05 112.59 114.93 L 113.56 114.82 C 114.56 114.70 115.27 113.79 115.15 112.80 C 115.03 111.80 114.13 111.09 113.13 111.21 Z M 112.18 111.33 L 111.16 111.44 C 110.16 111.55 109.44 112.44 109.55 113.44 C 109.66 114.43 110.55 115.15 111.55 115.04 L 112.57 114.93 C 113.57 114.82 114.29 113.93 114.18 112.93 C 114.07 111.94 113.17 111.22 112.18 111.33 Z M 111.18 111.44 L 110.15 111.54 C 109.15 111.64 108.43 112.52 108.52 113.52 C 108.62 114.51 109.51 115.24 110.50 115.14 L 111.53 115.04 C 112.52 114.94 113.25 114.06 113.15 113.07 C 113.06 112.07 112.17 111.34 111.18 111.44 Z M 110.17 111.54 L 109.16 111.63 C 108.17 111.72 107.43 112.59 107.52 113.58 C 107.61 114.58 108.48 115.31 109.47 115.23 L 110.48 115.14 C 111.47 115.05 112.21 114.18 112.12 113.19 C 112.04 112.19 111.16 111.46 110.17 111.54 Z M 109.18 111.63 L 108.20 111.71 C 107.21 111.78 106.47 112.65 106.54 113.64 C 106.62 114.63 107.48 115.37 108.48 115.30 L 109.46 115.22 C 110.45 115.15 111.19 114.28 111.11 113.29 C 111.04 112.30 110.17 111.56 109.18 111.63 Z M 108.22 111.71 L 107.27 111.78 C 106.28 111.84 105.53 112.70 105.59 113.69 C 105.66 114.68 106.52 115.42 107.51 115.36 L 108.46 115.29 C 109.45 115.23 110.20 114.37 110.13 113.38 C 110.06 112.39 109.21 111.65 108.22 111.71 Z M 107.28 111.78 L 106.26 111.84 C 105.28 111.89 104.52 112.74 104.58 113.73 C 104.63 114.71 105.48 115.47 106.47 115.41 L 107.49 115.35 C 108.48 115.30 109.23 114.45 109.17 113.46 C 109.12 112.48 108.27 111.72 107.28 111.78 Z M 106.28 111.84 L 105.26 111.89 C 104.27 111.94 103.51 112.77 103.56 113.76 C 103.61 114.74 104.44 115.50 105.43 115.46 L 106.45 115.41 C 107.43 115.36 108.19 114.53 108.15 113.54 C 108.10 112.56 107.26 111.80 106.28 111.84 Z M 105.27 111.90 L 104.28 111.93 C 103.30 111.97 102.54 112.80 102.57 113.78 C 102.61 114.76 103.44 115.53 104.42 115.49 L 105.41 115.45 C 106.39 115.41 107.16 114.59 107.12 113.60 C 107.08 112.62 106.26 111.86 105.27 111.90 Z M 104.30 111.94 L 103.33 111.97 C 102.35 112.00 101.58 112.82 101.61 113.80 C 101.64 114.78 102.46 115.55 103.44 115.51 L 104.41 115.48 C 105.39 115.45 106.15 114.63 106.12 113.66 C 106.09 112.68 105.27 111.91 104.30 111.94 Z M 103.34 111.98 L 102.33 112.00 C 101.35 112.03 100.59 112.84 100.61 113.82 C 100.64 114.79 101.45 115.56 102.42 115.53 L 103.43 115.51 C 104.40 115.48 105.17 114.67 105.15 113.70 C 105.12 112.72 104.31 111.95 103.34 111.98 Z M 102.34 112.01 L 101.28 112.03 C 100.31 112.06 99.54 112.86 99.56 113.83 C 99.58 114.80 100.39 115.57 101.36 115.55 L 102.41 115.53 C 103.38 115.51 104.15 114.70 104.13 113.73 C 104.11 112.76 103.31 111.99 102.34 112.01 Z M 101.29 112.04 L 100.28 112.06 C 99.31 112.08 98.54 112.87 98.56 113.84 C 98.58 114.80 99.37 115.57 100.34 115.56 L 101.35 115.54 C 102.31 115.52 103.08 114.73 103.07 113.76 C 103.05 112.80 102.26 112.03 101.29 112.04 Z M 100.29 112.07 L 99.34 112.08 C 98.38 112.10 97.61 112.88 97.62 113.84 C 97.64 114.80 98.43 115.57 99.39 115.56 L 100.33 115.55 C 101.29 115.54 102.06 114.75 102.05 113.79 C 102.03 112.83 101.25 112.06 100.29 112.07 Z M 99.35 112.09 L 98.31 112.10 C 97.36 112.11 96.59 112.89 96.60 113.84 C 96.61 114.80 97.39 115.57 98.34 115.56 L 99.38 115.55 C 100.33 115.54 101.10 114.76 101.09 113.81 C 101.08 112.85 100.30 112.08 99.35 112.09 Z M 98.34 112.11 L 97.31 112.11 C 96.37 112.10 95.59 112.87 95.59 113.82 C 95.59 114.77 96.35 115.54 97.30 115.54 L 98.32 115.55 C 99.27 115.55 100.04 114.79 100.05 113.84 C 100.05 112.89 99.28 112.12 98.34 112.11 Z M 97.36 112.12 L 96.44 112.09 C 95.50 112.06 94.71 112.80 94.68 113.74 C 94.65 114.68 95.39 115.47 96.33 115.50 L 97.25 115.53 C 98.20 115.56 98.98 114.82 99.01 113.88 C 99.04 112.94 98.30 112.15 97.36 112.12 Z M 96.52 112.11 L 95.51 112.03 C 94.58 111.96 93.76 112.65 93.69 113.59 C 93.62 114.52 94.32 115.34 95.25 115.41 L 96.25 115.49 C 97.19 115.56 98.00 114.86 98.08 113.93 C 98.15 112.99 97.45 112.18 96.52 112.11 Z M 95.61 112.05 L 94.63 111.92 C 93.71 111.79 92.86 112.43 92.73 113.35 C 92.60 114.27 93.25 115.12 94.17 115.25 L 95.15 115.39 C 96.07 115.51 96.92 114.87 97.05 113.95 C 97.18 113.03 96.53 112.18 95.61 112.05 Z M 94.74 111.95 L 93.76 111.74 C 92.86 111.55 91.97 112.13 91.78 113.03 C 91.60 113.94 92.17 114.82 93.08 115.01 L 94.05 115.22 C 94.96 115.41 95.84 114.83 96.03 113.93 C 96.22 113.02 95.64 112.14 94.74 111.95 Z M 93.86 111.78 L 92.89 111.51 C 92.00 111.27 91.09 111.79 90.85 112.67 C 90.61 113.56 91.13 114.47 92.01 114.71 L 92.98 114.98 C 93.87 115.22 94.78 114.70 95.02 113.81 C 95.26 112.93 94.74 112.02 93.86 111.78 Z M 92.91 111.53 L 91.99 111.26 C 91.12 111.01 90.21 111.51 89.95 112.38 C 89.70 113.25 90.20 114.16 91.07 114.42 L 91.99 114.69 C 92.86 114.94 93.77 114.45 94.03 113.57 C 94.28 112.70 93.78 111.79 92.91 111.53 Z M 92.02 111.29 L 91.09 111.00 C 90.23 110.73 89.32 111.21 89.05 112.07 C 88.78 112.93 89.26 113.84 90.12 114.11 L 91.05 114.40 C 91.91 114.66 92.82 114.18 93.09 113.33 C 93.35 112.47 92.87 111.55 92.02 111.29 Z M 91.17 111.05 L 90.24 110.70 C 89.41 110.38 88.48 110.80 88.16 111.63 C 87.85 112.46 88.27 113.39 89.10 113.71 L 90.03 114.06 C 90.87 114.37 91.79 113.95 92.11 113.12 C 92.42 112.29 92.00 111.36 91.17 111.05 Z M 90.30 110.75 L 89.40 110.36 C 88.60 110.01 87.66 110.38 87.31 111.18 C 86.97 111.98 87.33 112.91 88.14 113.26 L 89.04 113.65 C 89.84 114.00 90.77 113.63 91.12 112.83 C 91.47 112.03 91.10 111.10 90.30 110.75 Z M 89.41 110.40 L 88.46 109.96 C 87.68 109.60 86.76 109.94 86.40 110.72 C 86.04 111.50 86.38 112.43 87.16 112.78 L 88.12 113.22 C 88.90 113.58 89.82 113.24 90.18 112.46 C 90.54 111.68 90.19 110.75 89.41 110.40 Z M 88.46 109.98 L 88.33 109.92 C 87.56 109.56 86.65 109.90 86.29 110.67 C 85.94 111.44 86.27 112.35 87.04 112.71 L 87.17 112.77 C 87.94 113.12 88.85 112.79 89.21 112.02 C 89.56 111.25 89.23 110.33 88.46 109.98 Z"
      fill="black"
      fill-rule="nonzero" /><path d="M 75.29 151.82 L 74.31 151.08 C 73.64 150.57 72.67 150.70 72.16 151.38 C 71.65 152.06 71.78 153.02 72.46 153.54 L 73.44 154.27 C 74.12 154.79 75.08 154.65 75.60 153.97 C 76.11 153.29 75.97 152.33 75.29 151.82 Z M 74.85 152.96 L 74.96 152.71 C 75.32 151.90 74.96 150.95 74.15 150.59 C 73.34 150.23 72.39 150.60 72.03 151.41 L 71.92 151.66 C 71.56 152.47 71.93 153.41 72.74 153.77 C 73.55 154.13 74.50 153.76 74.85 152.96 Z M 73.19 153.70 L 74.22 153.89 C 75.13 154.07 76.00 153.47 76.17 152.57 C 76.34 151.66 75.75 150.79 74.84 150.62 L 73.81 150.42 C 72.90 150.25 72.03 150.84 71.86 151.75 C 71.69 152.65 72.28 153.52 73.19 153.70 Z M 74.09 153.92 L 75.22 154.22 C 76.14 154.46 77.08 153.92 77.33 153.00 C 77.57 152.09 77.03 151.14 76.11 150.90 L 74.98 150.60 C 74.06 150.35 73.12 150.89 72.87 151.81 C 72.63 152.73 73.17 153.67 74.09 153.92 Z M 75.18 154.23 L 76.13 154.51 C 77.05 154.78 78.02 154.25 78.29 153.33 C 78.56 152.40 78.03 151.43 77.11 151.16 L 76.16 150.89 C 75.23 150.62 74.27 151.15 74.00 152.07 C 73.73 152.99 74.26 153.96 75.18 154.23 Z M 76.11 154.52 L 77.04 154.79 C 77.97 155.07 78.95 154.55 79.23 153.62 C 79.50 152.69 78.98 151.71 78.05 151.43 L 77.12 151.16 C 76.19 150.88 75.22 151.40 74.94 152.33 C 74.66 153.26 75.19 154.24 76.11 154.52 Z M 77.05 154.81 L 77.97 155.08 C 78.91 155.35 79.89 154.81 80.16 153.87 C 80.43 152.94 79.89 151.96 78.96 151.69 L 78.04 151.42 C 77.10 151.15 76.12 151.69 75.85 152.62 C 75.58 153.56 76.12 154.54 77.05 154.81 Z M 78.01 155.10 L 79.01 155.36 C 79.96 155.61 80.93 155.04 81.18 154.10 C 81.43 153.15 80.86 152.18 79.92 151.93 L 78.92 151.66 C 77.97 151.41 77.00 151.98 76.75 152.93 C 76.50 153.88 77.06 154.85 78.01 155.10 Z M 79.07 155.39 L 80.02 155.60 C 80.98 155.82 81.94 155.22 82.16 154.25 C 82.37 153.29 81.77 152.34 80.81 152.12 L 79.86 151.90 C 78.90 151.68 77.94 152.29 77.72 153.25 C 77.50 154.21 78.11 155.17 79.07 155.39 Z M 80.07 155.62 L 81.03 155.81 C 82.01 156.00 82.95 155.36 83.14 154.39 C 83.33 153.42 82.69 152.47 81.72 152.29 L 80.76 152.10 C 79.78 151.91 78.84 152.54 78.65 153.52 C 78.47 154.49 79.10 155.43 80.07 155.62 Z M 81.08 155.82 L 82.10 156.00 C 83.08 156.16 84.01 155.50 84.18 154.52 C 84.35 153.54 83.68 152.61 82.70 152.44 L 81.68 152.27 C 80.70 152.10 79.77 152.77 79.60 153.75 C 79.43 154.73 80.10 155.66 81.08 155.82 Z M 82.14 156.01 L 83.10 156.15 C 84.09 156.30 85.01 155.62 85.16 154.63 C 85.31 153.64 84.63 152.72 83.64 152.57 L 82.67 152.43 C 81.68 152.28 80.76 152.97 80.61 153.95 C 80.47 154.94 81.15 155.86 82.14 156.01 Z M 83.13 156.16 L 84.08 156.29 C 85.08 156.42 85.99 155.72 86.12 154.73 C 86.25 153.74 85.56 152.82 84.56 152.69 L 83.61 152.57 C 82.62 152.43 81.71 153.13 81.57 154.12 C 81.44 155.12 82.14 156.03 83.13 156.16 Z M 84.10 156.30 L 85.11 156.42 C 86.11 156.54 87.01 155.83 87.14 154.83 C 87.26 153.83 86.54 152.92 85.55 152.80 L 84.54 152.68 C 83.54 152.56 82.64 153.27 82.51 154.27 C 82.39 155.27 83.11 156.18 84.10 156.30 Z M 85.13 156.43 L 86.20 156.54 C 87.20 156.65 88.10 155.93 88.21 154.93 C 88.32 153.92 87.60 153.02 86.59 152.91 L 85.53 152.80 C 84.52 152.69 83.62 153.41 83.51 154.41 C 83.40 155.42 84.13 156.32 85.13 156.43 Z M 86.21 156.55 L 87.16 156.65 C 88.16 156.75 89.06 156.01 89.16 155.01 C 89.27 154.00 88.53 153.10 87.52 153.00 L 86.58 152.90 C 85.57 152.80 84.67 153.54 84.57 154.54 C 84.47 155.55 85.20 156.45 86.21 156.55 Z M 87.17 156.66 L 88.15 156.75 C 89.16 156.84 90.06 156.10 90.15 155.08 C 90.25 154.07 89.50 153.17 88.49 153.08 L 87.51 152.99 C 86.50 152.89 85.60 153.64 85.50 154.65 C 85.41 155.67 86.16 156.57 87.17 156.66 Z M 88.16 156.76 L 89.17 156.85 C 90.19 156.93 91.09 156.17 91.17 155.15 C 91.26 154.13 90.50 153.24 89.48 153.15 L 88.47 153.07 C 87.45 152.98 86.55 153.74 86.47 154.76 C 86.38 155.78 87.14 156.68 88.16 156.76 Z M 89.18 156.86 L 90.22 156.94 C 91.25 157.01 92.14 156.24 92.22 155.22 C 92.29 154.19 91.53 153.29 90.50 153.22 L 89.46 153.14 C 88.44 153.06 87.54 153.83 87.46 154.86 C 87.39 155.89 88.16 156.78 89.18 156.86 Z M 90.24 156.95 L 91.24 157.01 C 92.28 157.08 93.17 156.30 93.24 155.26 C 93.30 154.23 92.52 153.34 91.49 153.27 L 90.48 153.21 C 89.45 153.14 88.56 153.92 88.49 154.95 C 88.42 155.99 89.20 156.88 90.24 156.95 Z M 91.26 157.02 L 92.23 157.07 C 93.27 157.13 94.16 156.34 94.22 155.30 C 94.28 154.27 93.48 153.38 92.45 153.32 L 91.47 153.26 C 90.44 153.21 89.55 154.00 89.49 155.04 C 89.43 156.07 90.22 156.96 91.26 157.02 Z M 92.25 157.08 L 93.24 157.13 C 94.28 157.18 95.16 156.38 95.21 155.34 C 95.26 154.30 94.46 153.41 93.42 153.36 L 92.43 153.31 C 91.39 153.26 90.51 154.06 90.45 155.11 C 90.40 156.15 91.21 157.03 92.25 157.08 Z M 93.25 157.14 L 94.26 157.18 C 95.30 157.22 96.18 156.41 96.23 155.36 C 96.27 154.32 95.46 153.44 94.41 153.40 L 93.41 153.35 C 92.36 153.31 91.48 154.12 91.44 155.17 C 91.39 156.21 92.21 157.09 93.25 157.14 Z M 94.27 157.18 L 95.30 157.22 C 96.34 157.26 97.22 156.44 97.26 155.39 C 97.30 154.34 96.48 153.46 95.43 153.42 L 94.40 153.39 C 93.35 153.35 92.47 154.17 92.44 155.22 C 92.40 156.27 93.22 157.15 94.27 157.18 Z M 95.31 157.22 L 96.30 157.25 C 97.35 157.28 98.22 156.46 98.25 155.40 C 98.28 154.35 97.46 153.48 96.40 153.45 L 95.42 153.42 C 94.37 153.39 93.49 154.22 93.46 155.27 C 93.43 156.32 94.26 157.19 95.31 157.22 Z M 96.30 157.26 L 97.27 157.28 C 98.32 157.30 99.20 156.47 99.22 155.42 C 99.25 154.37 98.41 153.49 97.36 153.47 L 96.39 153.44 C 95.34 153.42 94.47 154.25 94.44 155.31 C 94.42 156.36 95.25 157.23 96.30 157.26 Z M 97.28 157.28 L 98.27 157.30 C 99.32 157.32 100.19 156.48 100.21 155.43 C 100.23 154.37 99.39 153.50 98.34 153.48 L 97.35 153.46 C 96.30 153.44 95.43 154.28 95.41 155.34 C 95.39 156.39 96.22 157.26 97.28 157.28 Z M 98.27 157.30 L 99.28 157.32 C 100.34 157.34 101.21 156.49 101.22 155.44 C 101.24 154.38 100.39 153.51 99.34 153.49 L 98.33 153.48 C 97.27 153.46 96.41 154.31 96.39 155.36 C 96.37 156.42 97.22 157.29 98.27 157.30 Z M 99.29 157.32 L 100.32 157.33 C 101.37 157.35 102.24 156.50 102.25 155.44 C 102.27 154.38 101.42 153.52 100.36 153.50 L 99.33 153.49 C 98.27 153.48 97.41 154.33 97.39 155.39 C 97.38 156.44 98.23 157.31 99.29 157.32 Z M 100.32 157.34 L 101.35 157.35 C 102.41 157.35 103.28 156.50 103.29 155.44 C 103.30 154.38 102.44 153.52 101.38 153.51 L 100.35 153.50 C 99.29 153.49 98.43 154.34 98.42 155.40 C 98.41 156.46 99.26 157.33 100.32 157.34 Z M 101.36 157.35 L 102.31 157.35 C 103.37 157.36 104.24 156.51 104.24 155.44 C 104.25 154.38 103.40 153.52 102.33 153.51 L 101.38 153.51 C 100.32 153.50 99.45 154.36 99.45 155.42 C 99.44 156.48 100.30 157.34 101.36 157.35 Z M 102.32 157.36 L 103.29 157.36 C 104.35 157.36 105.22 156.51 105.22 155.44 C 105.22 154.38 104.37 153.52 103.31 153.51 L 102.33 153.51 C 101.27 153.51 100.40 154.36 100.40 155.43 C 100.40 156.49 101.25 157.35 102.32 157.36 Z M 103.29 157.36 L 104.29 157.36 C 105.35 157.37 106.21 156.51 106.22 155.44 C 106.22 154.38 105.36 153.52 104.30 153.51 L 103.30 153.51 C 102.24 153.51 101.38 154.37 101.37 155.43 C 101.37 156.50 102.23 157.36 103.29 157.36 Z M 104.29 157.37 L 105.30 157.37 C 106.37 157.37 107.23 156.51 107.23 155.44 C 107.23 154.38 106.37 153.51 105.31 153.51 L 104.29 153.51 C 103.23 153.51 102.37 154.37 102.36 155.44 C 102.36 156.50 103.22 157.37 104.29 157.37 Z M 105.30 157.37 L 106.33 157.37 C 107.40 157.37 108.26 156.51 108.26 155.44 C 108.26 154.38 107.40 153.51 106.33 153.51 L 105.30 153.51 C 104.24 153.51 103.37 154.37 103.37 155.44 C 103.37 156.51 104.24 157.37 105.30 157.37 Z M 106.33 157.37 L 107.37 157.37 C 108.44 157.37 109.31 156.51 109.31 155.44 C 109.31 154.37 108.44 153.51 107.37 153.51 L 106.33 153.51 C 105.27 153.51 104.40 154.37 104.40 155.44 C 104.40 156.51 105.27 157.37 106.33 157.37 Z M 107.38 157.37 L 108.35 157.37 C 109.41 157.37 110.28 156.51 110.28 155.44 C 110.28 154.37 109.41 153.51 108.34 153.51 L 107.37 153.51 C 106.31 153.51 105.44 154.37 105.44 155.44 C 105.44 156.51 106.31 157.37 107.38 157.37 Z M 108.35 157.37 L 109.33 157.37 C 110.40 157.37 111.27 156.50 111.26 155.43 C 111.26 154.36 110.39 153.50 109.32 153.50 L 108.34 153.51 C 107.27 153.51 106.41 154.38 106.41 155.44 C 106.41 156.51 107.28 157.38 108.35 157.37 Z M 109.34 157.37 L 110.34 157.37 C 111.41 157.36 112.27 156.49 112.26 155.42 C 112.25 154.35 111.38 153.49 110.31 153.50 L 109.32 153.50 C 108.25 153.51 107.39 154.38 107.39 155.45 C 107.40 156.52 108.27 157.38 109.34 157.37 Z M 110.35 157.37 L 111.35 157.36 C 112.42 157.35 113.28 156.47 113.27 155.40 C 113.25 154.33 112.38 153.47 111.31 153.48 L 110.30 153.49 C 109.23 153.51 108.37 154.38 108.39 155.45 C 108.40 156.52 109.28 157.38 110.35 157.37 Z M 111.37 157.36 L 112.38 157.34 C 113.45 157.32 114.30 156.44 114.28 155.37 C 114.26 154.30 113.38 153.44 112.31 153.46 L 111.29 153.48 C 110.22 153.50 109.37 154.39 109.39 155.46 C 109.41 156.53 110.30 157.38 111.37 157.36 Z M 112.40 157.34 L 113.42 157.31 C 114.49 157.28 115.33 156.39 115.30 155.32 C 115.27 154.25 114.38 153.41 113.31 153.43 L 112.29 153.46 C 111.22 153.49 110.37 154.38 110.40 155.45 C 110.43 156.53 111.32 157.37 112.40 157.34 Z M 113.44 157.31 L 114.44 157.28 C 115.51 157.24 116.35 156.33 116.31 155.26 C 116.27 154.19 115.37 153.36 114.29 153.40 L 113.29 153.43 C 112.22 153.47 111.38 154.38 111.42 155.45 C 111.46 156.52 112.36 157.35 113.44 157.31 Z M 114.46 157.28 L 115.44 157.23 C 116.51 157.18 117.34 156.27 117.29 155.20 C 117.24 154.12 116.33 153.30 115.25 153.35 L 114.27 153.40 C 113.20 153.45 112.38 154.36 112.43 155.43 C 112.48 156.50 113.39 157.33 114.46 157.28 Z M 115.46 157.23 L 116.44 157.17 C 117.51 157.11 118.33 156.19 118.27 155.12 C 118.21 154.05 117.29 153.23 116.22 153.29 L 115.24 153.35 C 114.16 153.41 113.35 154.33 113.41 155.40 C 113.47 156.47 114.39 157.29 115.46 157.23 Z M 116.46 157.17 L 117.45 157.11 C 118.52 157.04 119.33 156.12 119.26 155.05 C 119.19 153.97 118.27 153.16 117.20 153.23 L 116.21 153.29 C 115.13 153.36 114.32 154.29 114.39 155.36 C 114.46 156.43 115.38 157.24 116.46 157.17 Z M 117.46 157.11 L 118.46 157.04 C 119.53 156.97 120.34 156.04 120.26 154.96 C 120.19 153.89 119.26 153.08 118.18 153.16 L 117.19 153.23 C 116.11 153.30 115.31 154.23 115.38 155.31 C 115.46 156.38 116.39 157.19 117.46 157.11 Z M 118.46 157.04 L 119.47 156.97 C 120.54 156.89 121.35 155.95 121.27 154.88 C 121.19 153.81 120.26 153.00 119.18 153.08 L 118.18 153.16 C 117.10 153.24 116.30 154.17 116.38 155.24 C 116.46 156.32 117.39 157.12 118.46 157.04 Z M 119.48 156.97 L 120.50 156.89 C 121.57 156.81 122.37 155.87 122.29 154.80 C 122.20 153.72 121.27 152.92 120.19 153.00 L 119.18 153.08 C 118.10 153.17 117.30 154.10 117.38 155.18 C 117.47 156.25 118.40 157.05 119.48 156.97 Z M 120.50 156.89 L 121.51 156.81 C 122.59 156.72 123.39 155.79 123.30 154.71 C 123.22 153.64 122.28 152.84 121.21 152.92 L 120.19 153.00 C 119.12 153.09 118.32 154.03 118.40 155.10 C 118.49 156.17 119.42 156.97 120.50 156.89 Z M 121.52 156.81 L 122.52 156.73 C 123.59 156.65 124.40 155.71 124.31 154.63 C 124.23 153.56 123.29 152.76 122.21 152.84 L 121.21 152.92 C 120.13 153.01 119.33 153.95 119.42 155.02 C 119.50 156.09 120.44 156.90 121.52 156.81 Z M 122.52 156.73 L 123.53 156.65 C 124.61 156.57 125.41 155.62 125.32 154.55 C 125.24 153.48 124.30 152.67 123.22 152.76 L 122.21 152.84 C 121.14 152.93 120.33 153.87 120.42 154.94 C 120.51 156.02 121.45 156.82 122.52 156.73 Z M 123.53 156.65 L 124.54 156.57 C 125.62 156.49 126.42 155.54 126.33 154.47 C 126.25 153.39 125.31 152.59 124.23 152.68 L 123.22 152.76 C 122.14 152.84 121.34 153.79 121.43 154.86 C 121.51 155.94 122.46 156.74 123.53 156.65 Z M 124.54 156.57 L 125.55 156.49 C 126.62 156.41 127.43 155.46 127.34 154.39 C 127.26 153.31 126.31 152.51 125.24 152.59 L 124.23 152.68 C 123.15 152.76 122.35 153.70 122.44 154.78 C 122.52 155.86 123.47 156.66 124.54 156.57 Z M 125.55 156.49 L 126.54 156.42 C 127.62 156.33 128.43 155.39 128.34 154.31 C 128.25 153.23 127.31 152.43 126.23 152.51 L 125.24 152.59 C 124.16 152.68 123.36 153.62 123.44 154.70 C 123.53 155.78 124.47 156.58 125.55 156.49 Z M 126.54 156.42 L 127.52 156.34 C 128.60 156.25 129.41 155.31 129.32 154.23 C 129.24 153.15 128.29 152.35 127.22 152.43 L 126.23 152.51 C 125.16 152.60 124.35 153.54 124.44 154.62 C 124.52 155.70 125.46 156.50 126.54 156.42 Z M 127.52 156.34 L 128.50 156.26 C 129.58 156.18 130.38 155.24 130.30 154.16 C 130.21 153.08 129.27 152.27 128.19 152.36 L 127.22 152.43 C 126.14 152.52 125.33 153.46 125.42 154.54 C 125.50 155.62 126.44 156.43 127.52 156.34 Z M 128.50 156.26 L 129.53 156.19 C 130.61 156.10 131.41 155.16 131.33 154.08 C 131.25 153.00 130.30 152.19 129.22 152.28 L 128.19 152.36 C 127.11 152.44 126.31 153.38 126.39 154.46 C 126.47 155.54 127.42 156.35 128.50 156.26 Z M 129.53 156.18 L 130.54 156.11 C 131.61 156.02 132.42 155.08 132.34 154.00 C 132.26 152.92 131.32 152.12 130.24 152.20 L 129.23 152.28 C 128.15 152.36 127.34 153.30 127.42 154.38 C 127.50 155.46 128.45 156.27 129.53 156.18 Z M 130.53 156.11 L 131.53 156.03 C 132.61 155.95 133.42 155.01 133.33 153.93 C 133.25 152.85 132.31 152.04 131.23 152.12 L 130.24 152.20 C 129.16 152.28 128.35 153.22 128.43 154.30 C 128.51 155.38 129.45 156.19 130.53 156.11 Z M 131.53 156.03 L 132.51 155.96 C 133.59 155.87 134.40 154.93 134.32 153.85 C 134.24 152.78 133.29 151.97 132.21 152.05 L 131.23 152.12 C 130.15 152.21 129.34 153.15 129.43 154.23 C 129.51 155.31 130.45 156.11 131.53 156.03 Z M 132.51 155.96 L 133.49 155.88 C 134.57 155.80 135.38 154.86 135.30 153.78 C 135.21 152.70 134.27 151.89 133.19 151.97 L 132.21 152.05 C 131.14 152.13 130.33 153.07 130.41 154.15 C 130.49 155.23 131.43 156.04 132.51 155.96 Z M 133.49 155.88 L 134.48 155.81 C 135.55 155.72 136.36 154.78 136.28 153.70 C 136.20 152.62 135.25 151.82 134.18 151.90 L 133.19 151.98 C 132.11 152.06 131.31 153.00 131.39 154.08 C 131.47 155.16 132.41 155.96 133.49 155.88 Z M 134.48 155.81 L 135.46 155.73 C 136.54 155.65 137.34 154.70 137.26 153.62 C 137.18 152.55 136.23 151.74 135.16 151.82 L 134.17 151.90 C 133.10 151.98 132.29 152.93 132.37 154.00 C 132.46 155.08 133.40 155.89 134.48 155.81 Z M 135.46 155.73 L 136.44 155.65 C 137.52 155.57 138.33 154.62 138.24 153.55 C 138.16 152.47 137.22 151.66 136.14 151.75 L 135.15 151.82 C 134.08 151.91 133.27 152.85 133.35 153.93 C 133.44 155.01 134.38 155.81 135.46 155.73 Z M 136.44 155.65 L 137.44 155.57 C 138.51 155.49 139.32 154.55 139.23 153.47 C 139.15 152.39 138.21 151.59 137.13 151.67 L 136.14 151.75 C 135.06 151.83 134.25 152.77 134.34 153.85 C 134.42 154.93 135.37 155.74 136.44 155.65 Z M 137.43 155.57 L 138.43 155.50 C 139.51 155.41 140.32 154.47 140.23 153.39 C 140.15 152.31 139.21 151.51 138.13 151.59 L 137.13 151.67 C 136.05 151.75 135.25 152.70 135.33 153.77 C 135.41 154.85 136.36 155.66 137.43 155.57 Z M 138.43 155.50 L 139.43 155.42 C 140.51 155.34 141.32 154.40 141.23 153.32 C 141.15 152.24 140.21 151.43 139.13 151.52 L 138.13 151.59 C 137.05 151.67 136.25 152.61 136.33 153.69 C 136.41 154.77 137.35 155.58 138.43 155.50 Z M 139.43 155.42 L 140.43 155.34 C 141.51 155.26 142.32 154.33 142.24 153.25 C 142.16 152.17 141.22 151.36 140.15 151.44 L 139.14 151.52 C 138.06 151.60 137.25 152.53 137.33 153.61 C 137.41 154.69 138.35 155.50 139.43 155.42 Z M 140.43 155.34 L 141.44 155.27 C 142.51 155.20 143.33 154.26 143.25 153.18 C 143.17 152.10 142.24 151.29 141.16 151.37 L 140.15 151.44 C 139.07 151.52 138.26 152.45 138.34 153.53 C 138.41 154.61 139.35 155.42 140.43 155.34 Z M 141.43 155.27 L 142.44 155.20 C 143.51 155.13 144.33 154.20 144.25 153.12 C 144.18 152.04 143.25 151.23 142.17 151.30 L 141.17 151.37 C 140.09 151.44 139.27 152.38 139.35 153.45 C 139.42 154.53 140.35 155.35 141.43 155.27 Z M 142.43 155.20 L 143.43 155.14 C 144.51 155.07 145.33 154.14 145.26 153.06 C 145.19 151.99 144.26 151.17 143.18 151.24 L 142.18 151.30 C 141.10 151.37 140.28 152.30 140.35 153.38 C 140.42 154.46 141.35 155.27 142.43 155.20 Z M 143.43 155.14 L 144.43 155.08 C 145.50 155.01 146.32 154.08 146.26 153.01 C 146.19 151.93 145.27 151.11 144.19 151.18 L 143.19 151.24 C 142.11 151.31 141.29 152.23 141.36 153.31 C 141.42 154.38 142.35 155.20 143.43 155.14 Z M 144.42 155.07 L 145.42 155.02 C 146.50 154.95 147.32 154.03 147.25 152.96 C 147.19 151.88 146.27 151.06 145.19 151.12 L 144.20 151.18 C 143.12 151.24 142.30 152.17 142.36 153.24 C 142.43 154.32 143.35 155.14 144.42 155.07 Z M 145.42 155.01 L 146.41 154.96 C 147.49 154.90 148.31 153.98 148.25 152.91 C 148.19 151.83 147.27 151.01 146.20 151.07 L 145.20 151.12 C 144.13 151.18 143.30 152.10 143.36 153.18 C 143.42 154.25 144.34 155.07 145.42 155.01 Z M 146.41 154.96 L 147.40 154.90 C 148.48 154.85 149.30 153.93 149.24 152.86 C 149.18 151.78 148.27 150.96 147.19 151.02 L 146.20 151.07 C 145.13 151.13 144.31 152.04 144.36 153.12 C 144.42 154.19 145.34 155.01 146.41 154.96 Z M 147.40 154.90 L 148.39 154.85 C 149.46 154.79 150.28 153.88 150.23 152.81 C 150.17 151.74 149.26 150.91 148.19 150.97 L 147.20 151.02 C 146.13 151.08 145.30 151.99 145.36 153.06 C 145.41 154.13 146.33 154.96 147.40 154.90 Z M 148.39 154.85 L 149.39 154.80 C 150.46 154.74 151.29 153.83 151.24 152.76 C 151.18 151.69 150.27 150.87 149.20 150.92 L 148.19 150.97 C 147.12 151.02 146.30 151.94 146.35 153.01 C 146.40 154.08 147.32 154.90 148.39 154.85 Z M 149.39 154.79 L 150.39 154.75 C 151.46 154.69 152.29 153.79 152.24 152.72 C 152.18 151.65 151.28 150.82 150.21 150.87 L 149.20 150.92 C 148.13 150.97 147.31 151.88 147.36 152.95 C 147.41 154.02 148.32 154.85 149.39 154.79 Z M 150.39 154.74 L 151.39 154.70 C 152.46 154.65 153.28 153.74 153.23 152.67 C 153.18 151.61 152.28 150.78 151.21 150.83 L 150.21 150.88 C 149.14 150.93 148.32 151.83 148.37 152.90 C 148.42 153.97 149.32 154.79 150.39 154.74 Z M 151.39 154.69 L 152.38 154.65 C 153.45 154.60 154.28 153.70 154.23 152.63 C 154.18 151.56 153.28 150.74 152.21 150.79 L 151.21 150.83 C 150.15 150.88 149.32 151.78 149.37 152.85 C 149.42 153.92 150.32 154.74 151.39 154.69 Z M 152.38 154.65 L 153.38 154.60 C 154.44 154.56 155.27 153.66 155.22 152.59 C 155.17 151.53 154.27 150.70 153.21 150.75 L 152.21 150.79 C 151.15 150.84 150.32 151.74 150.37 152.80 C 150.42 153.87 151.32 154.69 152.38 154.65 Z M 153.37 154.60 L 154.37 154.56 C 155.43 154.51 156.26 153.62 156.21 152.55 C 156.17 151.49 155.27 150.66 154.20 150.71 L 153.21 150.75 C 152.15 150.79 151.32 151.69 151.37 152.76 C 151.41 153.82 152.31 154.65 153.37 154.60 Z M 154.36 154.56 L 155.35 154.52 C 156.41 154.47 157.24 153.58 157.19 152.52 C 157.15 151.45 156.25 150.63 155.19 150.67 L 154.21 150.71 C 153.15 150.75 152.32 151.65 152.36 152.71 C 152.41 153.77 153.30 154.60 154.36 154.56 Z M 155.35 154.51 L 156.32 154.48 C 157.38 154.43 158.21 153.54 158.17 152.48 C 158.13 151.42 157.23 150.59 156.17 150.63 L 155.20 150.67 C 154.14 150.71 153.31 151.61 153.35 152.67 C 153.39 153.73 154.28 154.55 155.35 154.51 Z M 156.32 154.47 L 157.30 154.44 C 158.36 154.40 159.19 153.51 159.15 152.45 C 159.11 151.39 158.22 150.56 157.16 150.60 L 156.18 150.64 C 155.12 150.68 154.29 151.57 154.33 152.63 C 154.37 153.69 155.26 154.51 156.32 154.47 Z M 157.30 154.43 L 158.29 154.40 C 159.35 154.36 160.17 153.47 160.14 152.41 C 160.10 151.36 159.21 150.53 158.15 150.57 L 157.16 150.60 C 156.10 150.64 155.28 151.53 155.32 152.59 C 155.35 153.64 156.24 154.47 157.30 154.43 Z M 158.29 154.39 L 159.29 154.36 C 160.34 154.33 161.17 153.44 161.13 152.38 C 161.10 151.33 160.21 150.50 159.16 150.54 L 158.16 150.57 C 157.10 150.61 156.27 151.49 156.31 152.55 C 156.34 153.60 157.23 154.43 158.29 154.39 Z M 159.28 154.36 L 160.30 154.33 C 161.35 154.29 162.18 153.41 162.14 152.36 C 162.11 151.30 161.23 150.47 160.17 150.51 L 159.16 150.54 C 158.11 150.57 157.28 151.46 157.31 152.51 C 157.35 153.56 158.23 154.39 159.28 154.36 Z M 160.29 154.32 L 161.32 154.29 C 162.38 154.26 163.20 153.38 163.17 152.33 C 163.14 151.27 162.26 150.45 161.21 150.48 L 160.18 150.51 C 159.12 150.54 158.30 151.42 158.33 152.47 C 158.36 153.53 159.24 154.35 160.29 154.32 Z M 161.32 154.29 L 162.33 154.26 C 163.38 154.23 164.21 153.35 164.18 152.30 C 164.15 151.25 163.28 150.42 162.23 150.45 L 161.21 150.48 C 160.16 150.51 159.33 151.39 159.36 152.44 C 159.39 153.49 160.27 154.32 161.32 154.29 Z M 162.33 154.26 L 163.34 154.23 C 164.39 154.20 165.22 153.33 165.19 152.28 C 165.16 151.23 164.29 150.40 163.24 150.43 L 162.23 150.46 C 161.18 150.48 160.35 151.36 160.38 152.41 C 160.41 153.46 161.28 154.28 162.33 154.26 Z M 163.34 154.23 L 164.36 154.20 C 165.41 154.17 166.23 153.30 166.21 152.26 C 166.18 151.21 165.31 150.38 164.26 150.41 L 163.24 150.43 C 162.20 150.46 161.37 151.33 161.40 152.38 C 161.42 153.42 162.29 154.25 163.34 154.23 Z M 164.36 154.20 L 165.37 154.17 C 166.42 154.15 167.24 153.28 167.22 152.24 C 167.20 151.19 166.33 150.36 165.28 150.39 L 164.27 150.41 C 163.22 150.44 162.39 151.30 162.42 152.35 C 162.44 153.39 163.31 154.22 164.36 154.20 Z M 165.37 154.17 L 166.38 154.15 C 167.42 154.12 168.25 153.26 168.22 152.22 C 168.20 151.17 167.34 150.35 166.29 150.37 L 165.29 150.39 C 164.24 150.41 163.42 151.28 163.44 152.32 C 163.46 153.37 164.33 154.19 165.37 154.17 Z M 166.37 154.14 L 167.36 154.12 C 168.40 154.10 169.23 153.24 169.21 152.20 C 169.19 151.16 168.33 150.33 167.29 150.35 L 166.30 150.37 C 165.26 150.39 164.43 151.26 164.45 152.30 C 164.47 153.34 165.33 154.17 166.37 154.14 Z M 167.36 154.12 L 168.33 154.10 C 169.37 154.08 170.19 153.22 170.17 152.18 C 170.15 151.15 169.29 150.32 168.26 150.34 L 167.29 150.36 C 166.25 150.38 165.42 151.23 165.44 152.27 C 165.46 153.31 166.32 154.14 167.36 154.12 Z M 168.32 154.10 L 169.37 154.08 C 170.41 154.06 171.23 153.21 171.22 152.17 C 171.20 151.13 170.34 150.31 169.31 150.32 L 168.26 150.34 C 167.22 150.36 166.39 151.22 166.41 152.25 C 166.43 153.29 167.29 154.12 168.32 154.10 Z M 169.37 154.08 L 170.42 154.06 C 171.46 154.04 172.28 153.19 172.27 152.16 C 172.25 151.12 171.40 150.30 170.36 150.31 L 169.31 150.33 C 168.27 150.34 167.45 151.20 167.46 152.23 C 167.48 153.27 168.33 154.09 169.37 154.08 Z M 170.42 154.06 L 171.43 154.04 C 172.47 154.03 173.29 153.18 173.28 152.15 C 173.26 151.11 172.41 150.29 171.38 150.30 L 170.36 150.32 C 169.33 150.33 168.51 151.18 168.52 152.21 C 168.54 153.25 169.38 154.07 170.42 154.06 Z M 171.43 154.04 L 172.42 154.03 C 173.45 154.01 174.27 153.16 174.26 152.13 C 174.24 151.10 173.40 150.28 172.37 150.29 L 171.38 150.31 C 170.35 150.32 169.53 151.17 169.54 152.20 C 169.55 153.23 170.40 154.05 171.43 154.04 Z M 172.42 154.02 L 173.38 154.01 C 174.40 154.00 175.23 153.15 175.21 152.12 C 175.20 151.09 174.36 150.27 173.33 150.28 L 172.37 150.30 C 171.34 150.31 170.52 151.15 170.53 152.18 C 170.54 153.21 171.39 154.03 172.42 154.02 Z M 173.38 154.01 L 174.32 153.99 C 175.34 153.98 176.17 153.14 176.15 152.11 C 176.14 151.08 175.30 150.26 174.27 150.28 L 173.33 150.29 C 172.30 150.30 171.48 151.14 171.49 152.17 C 171.51 153.20 172.35 154.02 173.38 154.01 Z M 174.32 153.99 L 175.32 153.98 C 176.34 153.96 177.16 153.12 177.15 152.10 C 177.13 151.07 176.29 150.25 175.27 150.27 L 174.27 150.28 C 173.24 150.29 172.42 151.13 172.44 152.16 C 172.45 153.18 173.29 154.00 174.32 153.99 Z M 175.32 153.97 L 176.33 153.96 C 177.35 153.94 178.17 153.10 178.16 152.08 C 178.14 151.06 177.30 150.24 176.28 150.26 L 175.27 150.27 C 174.24 150.28 173.43 151.12 173.44 152.15 C 173.46 153.17 174.30 153.99 175.32 153.97 Z M 176.33 153.95 L 177.33 153.94 C 178.35 153.93 179.17 153.09 179.15 152.07 C 179.14 151.05 178.30 150.23 177.28 150.25 L 176.28 150.26 C 175.26 150.27 174.44 151.11 174.46 152.13 C 174.47 153.15 175.31 153.97 176.33 153.95 Z M 177.33 153.94 L 178.32 153.92 C 179.34 153.91 180.16 153.07 180.14 152.06 C 180.13 151.04 179.30 150.23 178.28 150.24 L 177.28 150.25 C 176.27 150.26 175.45 151.10 175.47 152.12 C 175.48 153.13 176.31 153.95 177.33 153.94 Z M 178.32 153.92 L 179.31 153.91 C 180.32 153.90 181.14 153.06 181.13 152.05 C 181.11 151.03 180.28 150.22 179.27 150.23 L 178.28 150.24 C 177.27 150.25 176.45 151.09 176.46 152.10 C 176.47 153.12 177.31 153.93 178.32 153.92 Z M 179.30 153.90 L 180.29 153.89 C 181.31 153.89 182.12 153.06 182.11 152.05 C 182.10 151.03 181.27 150.22 180.26 150.23 L 179.27 150.24 C 178.26 150.25 177.45 151.07 177.45 152.09 C 177.46 153.10 178.29 153.91 179.30 153.90 Z M 180.29 153.89 L 181.30 153.88 C 182.31 153.88 183.12 153.05 183.11 152.04 C 183.11 151.04 182.28 150.22 181.28 150.23 L 180.27 150.23 C 179.26 150.24 178.44 151.06 178.45 152.07 C 178.46 153.08 179.28 153.89 180.29 153.89 Z M 181.29 153.88 L 182.30 153.87 C 183.30 153.87 184.11 153.05 184.11 152.05 C 184.11 151.04 183.29 150.23 182.28 150.23 L 181.28 150.23 C 180.27 150.24 179.46 151.06 179.46 152.06 C 179.47 153.07 180.29 153.88 181.29 153.88 Z M 182.29 153.87 L 183.29 153.86 C 184.29 153.86 185.10 153.05 185.10 152.05 C 185.10 151.04 184.29 150.23 183.28 150.24 L 182.29 150.24 C 181.28 150.24 180.47 151.05 180.47 152.06 C 180.48 153.06 181.29 153.87 182.29 153.87 Z M 183.29 153.86 L 184.28 153.86 C 185.28 153.86 186.09 153.05 186.09 152.05 C 186.09 151.05 185.28 150.24 184.28 150.24 L 183.29 150.24 C 182.29 150.24 181.48 151.05 181.48 152.05 C 181.48 153.05 182.29 153.86 183.29 153.86 Z M 184.28 153.85 L 185.28 153.85 C 186.27 153.85 187.08 153.04 187.08 152.05 C 187.08 151.05 186.27 150.25 185.28 150.25 L 184.28 150.25 C 183.29 150.25 182.48 151.05 182.48 152.05 C 182.48 153.04 183.29 153.85 184.28 153.85 Z M 185.28 153.84 L 186.31 153.84 C 187.30 153.84 188.10 153.04 188.10 152.05 C 188.10 151.06 187.30 150.26 186.31 150.26 L 185.28 150.26 C 184.28 150.26 183.48 151.06 183.48 152.05 C 183.48 153.04 184.28 153.84 185.28 153.84 Z M 186.31 153.84 L 187.33 153.84 C 188.31 153.84 189.11 153.04 189.11 152.05 C 189.11 151.06 188.31 150.26 187.33 150.26 L 186.31 150.26 C 185.32 150.26 184.52 151.06 184.52 152.05 C 184.52 153.04 185.32 153.84 186.31 153.84 Z M 187.33 153.83 L 188.33 153.83 C 189.31 153.83 190.11 153.03 190.11 152.05 C 190.11 151.07 189.31 150.27 188.33 150.27 L 187.33 150.27 C 186.34 150.27 185.55 151.07 185.55 152.05 C 185.55 153.03 186.34 153.83 187.33 153.83 Z M 188.33 153.82 L 189.32 153.82 C 190.29 153.82 191.09 153.03 191.09 152.05 C 191.09 151.07 190.29 150.28 189.32 150.28 L 188.33 150.28 C 187.35 150.28 186.56 151.07 186.56 152.05 C 186.56 153.03 187.35 153.82 188.33 153.82 Z M 189.32 153.81 L 190.28 153.81 C 191.25 153.81 192.04 153.02 192.04 152.05 C 192.04 151.08 191.25 150.29 190.28 150.29 L 189.32 150.29 C 188.34 150.29 187.55 151.08 187.55 152.05 C 187.55 153.02 188.34 153.81 189.32 153.81 Z M 190.28 153.80 L 191.34 153.80 C 192.30 153.80 193.09 153.02 193.09 152.05 C 193.09 151.08 192.30 150.30 191.34 150.30 L 190.28 150.30 C 189.31 150.30 188.52 151.08 188.52 152.05 C 188.52 153.02 189.31 153.80 190.28 153.80 Z M 191.34 153.79 L 192.36 153.79 C 193.32 153.79 194.10 153.01 194.10 152.05 C 194.10 151.09 193.32 150.30 192.36 150.30 L 191.34 150.30 C 190.37 150.30 189.59 151.09 189.59 152.05 C 189.59 153.01 190.37 153.79 191.34 153.79 Z M 192.36 153.79 L 193.34 153.79 C 194.30 153.79 195.08 153.01 195.08 152.05 C 195.08 151.09 194.30 150.31 193.34 150.31 L 192.36 150.31 C 191.40 150.31 190.62 151.09 190.62 152.05 C 190.62 153.01 191.40 153.79 192.36 153.79 Z M 193.34 153.78 L 194.30 153.78 C 195.25 153.78 196.02 153.00 196.02 152.05 C 196.02 151.10 195.25 150.32 194.30 150.32 L 193.34 150.32 C 192.39 150.32 191.62 151.10 191.62 152.05 C 191.62 153.00 192.39 153.78 193.34 153.78 Z M 194.30 153.77 L 195.35 153.77 C 196.29 153.77 197.06 153.00 197.06 152.05 C 197.06 151.10 196.29 150.33 195.35 150.33 L 194.30 150.33 C 193.35 150.33 192.58 151.10 192.58 152.05 C 192.58 153.00 193.35 153.77 194.30 153.77 Z M 195.35 153.76 L 196.41 153.76 C 197.35 153.76 198.12 152.99 198.12 152.05 C 198.12 151.11 197.35 150.34 196.41 150.34 L 195.35 150.34 C 194.40 150.34 193.64 151.11 193.64 152.05 C 193.64 152.99 194.40 153.76 195.35 153.76 Z M 196.41 153.75 L 197.40 153.75 C 198.33 153.75 199.09 152.99 199.09 152.05 C 199.09 151.11 198.33 150.35 197.40 150.35 L 196.41 150.35 C 195.47 150.35 194.71 151.11 194.71 152.05 C 194.71 152.99 195.47 153.75 196.41 153.75 Z M 197.40 153.74 L 198.28 153.74 C 199.21 153.74 199.96 152.98 199.96 152.05 C 199.96 151.12 199.21 150.36 198.28 150.36 L 197.40 150.36 C 196.46 150.36 195.71 151.12 195.71 152.05 C 195.71 152.98 196.46 153.74 197.40 153.74 Z M 198.27 153.73 L 199.35 153.73 C 200.28 153.74 201.04 152.99 201.04 152.07 C 201.05 151.14 200.30 150.38 199.37 150.38 L 198.29 150.37 C 197.36 150.37 196.60 151.11 196.60 152.04 C 196.59 152.97 197.34 153.72 198.27 153.73 Z M 199.28 153.72 L 200.22 153.76 C 201.14 153.81 201.92 153.10 201.97 152.18 C 202.01 151.26 201.30 150.48 200.38 150.44 L 199.44 150.39 C 198.52 150.35 197.74 151.06 197.70 151.98 C 197.66 152.90 198.37 153.67 199.28 153.72 Z M 200.08 153.73 L 201.11 153.87 C 202.01 153.99 202.84 153.36 202.96 152.46 C 203.09 151.57 202.46 150.74 201.56 150.61 L 200.53 150.47 C 199.63 150.35 198.80 150.98 198.68 151.88 C 198.55 152.78 199.18 153.61 200.08 153.73 Z M 200.81 153.77 L 201.77 154.09 C 202.61 154.38 203.53 153.93 203.82 153.09 C 204.10 152.25 203.66 151.33 202.81 151.05 L 201.86 150.72 C 201.02 150.43 200.10 150.88 199.81 151.72 C 199.52 152.56 199.97 153.48 200.81 153.77 Z M 200.97 153.42 L 201.39 154.07 C 201.86 154.79 202.83 155.00 203.56 154.53 C 204.29 154.07 204.49 153.10 204.03 152.37 L 203.61 151.72 C 203.14 150.99 202.17 150.78 201.44 151.25 C 200.71 151.72 200.51 152.69 200.97 153.42 Z M 201.30 152.67 L 200.94 153.61 C 200.63 154.38 201.02 155.26 201.79 155.56 C 202.57 155.87 203.45 155.48 203.75 154.70 L 204.12 153.77 C 204.42 152.99 204.04 152.11 203.26 151.81 C 202.48 151.51 201.61 151.89 201.30 152.67 Z M 201.28 153.15 L 200.56 153.91 C 200.00 154.49 200.03 155.42 200.62 155.98 C 201.20 156.53 202.13 156.51 202.69 155.92 L 203.41 155.16 C 203.96 154.58 203.94 153.65 203.35 153.09 C 202.76 152.54 201.84 152.56 201.28 153.15 Z M 200.76 153.76 L 199.94 154.37 C 199.30 154.85 199.17 155.75 199.64 156.39 C 200.12 157.03 201.03 157.16 201.67 156.69 L 202.49 156.07 C 203.13 155.60 203.26 154.69 202.78 154.05 C 202.30 153.41 201.40 153.28 200.76 153.76 Z M 200.07 154.30 L 199.19 154.83 C 198.51 155.23 198.29 156.11 198.70 156.79 C 199.10 157.47 199.98 157.69 200.66 157.28 L 201.54 156.76 C 202.22 156.35 202.44 155.47 202.03 154.79 C 201.62 154.11 200.74 153.89 200.07 154.30 Z M 199.30 154.77 L 198.41 155.20 C 197.71 155.55 197.41 156.40 197.75 157.11 C 198.10 157.82 198.95 158.11 199.66 157.77 L 200.55 157.34 C 201.26 156.99 201.55 156.14 201.21 155.43 C 200.86 154.72 200.01 154.43 199.30 154.77 Z M 198.49 155.17 L 197.60 155.54 C 196.88 155.84 196.53 156.68 196.84 157.40 C 197.14 158.13 197.98 158.47 198.70 158.17 L 199.59 157.80 C 200.31 157.50 200.66 156.66 200.35 155.94 C 200.05 155.21 199.21 154.87 198.49 155.17 Z M 197.62 155.53 L 196.69 155.90 C 195.96 156.20 195.60 157.02 195.90 157.76 C 196.19 158.49 197.02 158.84 197.75 158.55 L 198.68 158.18 C 199.41 157.89 199.77 157.06 199.48 156.33 C 199.19 155.60 198.36 155.24 197.62 155.53 Z M 196.70 155.90 L 196.34 156.04 C 195.61 156.33 195.25 157.16 195.53 157.89 C 195.82 158.62 196.65 158.98 197.38 158.70 L 197.74 158.55 C 198.47 158.27 198.83 157.44 198.54 156.71 C 198.26 155.97 197.43 155.61 196.70 155.90 Z"
      fill="black"
      fill-rule="nonzero" /><path d="M 151.47 112.73 L 151.97 113.59 C 152.38 114.30 153.28 114.54 153.99 114.13 C 154.70 113.72 154.94 112.82 154.53 112.11 L 154.03 111.25 C 153.62 110.55 152.72 110.30 152.01 110.71 C 151.31 111.12 151.07 112.03 151.47 112.73 Z M 151.94 113.62 L 152.45 114.48 C 152.87 115.21 153.80 115.45 154.52 115.03 C 155.25 114.60 155.49 113.67 155.07 112.95 L 154.56 112.08 C 154.14 111.36 153.21 111.12 152.48 111.54 C 151.76 111.96 151.52 112.89 151.94 113.62 Z M 152.43 114.51 L 152.96 115.39 C 153.39 116.13 154.34 116.37 155.07 115.93 C 155.81 115.50 156.05 114.55 155.61 113.82 L 155.09 112.93 C 154.65 112.19 153.70 111.95 152.97 112.39 C 152.23 112.83 151.99 113.77 152.43 114.51 Z M 152.93 115.39 L 153.43 116.25 C 153.86 116.99 154.82 117.25 155.57 116.81 C 156.31 116.38 156.57 115.42 156.13 114.68 L 155.64 113.82 C 155.20 113.07 154.25 112.82 153.50 113.25 C 152.75 113.69 152.50 114.64 152.93 115.39 Z M 153.39 116.20 L 153.85 117.07 C 154.26 117.84 155.21 118.14 155.98 117.73 C 156.75 117.32 157.04 116.37 156.64 115.60 L 156.18 114.73 C 155.77 113.96 154.82 113.66 154.05 114.07 C 153.28 114.47 152.98 115.43 153.39 116.20 Z M 153.80 117.01 L 154.22 117.90 C 154.59 118.70 155.53 119.04 156.33 118.67 C 157.13 118.30 157.47 117.36 157.10 116.56 L 156.69 115.67 C 156.31 114.87 155.37 114.52 154.57 114.89 C 153.78 115.26 153.43 116.21 153.80 117.01 Z M 154.19 117.87 L 154.56 118.72 C 154.91 119.53 155.86 119.91 156.67 119.55 C 157.48 119.20 157.85 118.26 157.50 117.45 L 157.13 116.59 C 156.78 115.78 155.83 115.41 155.02 115.76 C 154.21 116.12 153.84 117.06 154.19 117.87 Z M 154.54 118.69 L 154.93 119.65 C 155.26 120.48 156.20 120.87 157.02 120.54 C 157.85 120.21 158.25 119.27 157.91 118.44 L 157.52 117.48 C 157.19 116.65 156.25 116.26 155.42 116.59 C 154.60 116.93 154.20 117.86 154.54 118.69 Z M 154.90 119.61 L 155.24 120.53 C 155.55 121.36 156.49 121.79 157.33 121.48 C 158.16 121.17 158.59 120.23 158.28 119.39 L 157.94 118.48 C 157.63 117.64 156.69 117.22 155.85 117.53 C 155.01 117.84 154.59 118.77 154.90 119.61 Z M 155.22 120.49 L 155.54 121.42 C 155.83 122.27 156.76 122.72 157.61 122.43 C 158.46 122.14 158.91 121.21 158.62 120.36 L 158.30 119.43 C 158.01 118.58 157.08 118.13 156.23 118.42 C 155.38 118.71 154.93 119.64 155.22 120.49 Z M 155.52 121.38 L 155.84 122.40 C 156.11 123.26 157.03 123.74 157.90 123.46 C 158.76 123.19 159.23 122.27 158.96 121.41 L 158.64 120.39 C 158.36 119.53 157.45 119.06 156.58 119.33 C 155.72 119.60 155.25 120.52 155.52 121.38 Z M 155.82 122.37 L 156.09 123.28 C 156.35 124.15 157.26 124.65 158.14 124.39 C 159.01 124.14 159.50 123.22 159.25 122.35 L 158.98 121.44 C 158.72 120.57 157.81 120.07 156.94 120.33 C 156.07 120.58 155.57 121.50 155.82 122.37 Z M 156.08 123.26 L 156.34 124.20 C 156.59 125.08 157.49 125.59 158.37 125.35 C 159.25 125.11 159.76 124.20 159.52 123.32 L 159.26 122.38 C 159.02 121.50 158.11 120.98 157.23 121.23 C 156.35 121.47 155.84 122.38 156.08 123.26 Z M 156.33 124.18 L 156.59 125.18 C 156.82 126.06 157.73 126.59 158.61 126.36 C 159.50 126.13 160.03 125.22 159.79 124.34 L 159.53 123.34 C 159.30 122.46 158.40 121.93 157.51 122.16 C 156.63 122.39 156.10 123.30 156.33 124.18 Z M 156.58 125.16 L 156.83 126.16 C 157.05 127.05 157.95 127.59 158.84 127.37 C 159.74 127.15 160.28 126.24 160.05 125.35 L 159.81 124.36 C 159.58 123.47 158.68 122.92 157.79 123.15 C 156.90 123.37 156.36 124.27 156.58 125.16 Z M 156.82 126.14 L 157.04 127.07 C 157.25 127.97 158.15 128.52 159.05 128.31 C 159.95 128.10 160.50 127.20 160.29 126.30 L 160.07 125.37 C 159.85 124.47 158.95 123.92 158.06 124.13 C 157.16 124.34 156.60 125.24 156.82 126.14 Z M 157.03 127.06 L 157.25 128.02 C 157.45 128.93 158.35 129.50 159.25 129.29 C 160.16 129.09 160.72 128.19 160.52 127.28 L 160.30 126.31 C 160.10 125.41 159.20 124.84 158.29 125.05 C 157.39 125.25 156.82 126.15 157.03 127.06 Z M 157.23 128.01 L 157.45 129.01 C 157.64 129.92 158.54 130.50 159.45 130.31 C 160.36 130.12 160.94 129.22 160.75 128.31 L 160.53 127.30 C 160.34 126.39 159.44 125.81 158.53 126.00 C 157.62 126.20 157.04 127.09 157.23 128.01 Z M 157.43 128.99 L 157.64 130.01 C 157.82 130.93 158.71 131.53 159.63 131.35 C 160.55 131.16 161.15 130.27 160.97 129.35 L 160.76 128.33 C 160.58 127.41 159.69 126.81 158.77 126.99 C 157.85 127.18 157.25 128.07 157.43 128.99 Z M 157.62 129.99 L 157.80 130.97 C 157.98 131.90 158.87 132.51 159.79 132.34 C 160.72 132.17 161.33 131.28 161.16 130.35 L 160.98 129.37 C 160.81 128.45 159.92 127.83 158.99 128.01 C 158.06 128.18 157.45 129.07 157.62 129.99 Z M 157.79 130.96 L 157.96 131.95 C 158.13 132.88 159.01 133.51 159.95 133.35 C 160.88 133.19 161.50 132.30 161.34 131.37 L 161.17 130.37 C 161.01 129.44 160.12 128.81 159.19 128.97 C 158.26 129.14 157.63 130.02 157.79 130.96 Z M 157.95 131.93 L 158.11 132.93 C 158.26 133.87 159.15 134.51 160.09 134.36 C 161.03 134.20 161.67 133.32 161.52 132.38 L 161.36 131.38 C 161.20 130.44 160.32 129.81 159.38 129.96 C 158.44 130.11 157.80 130.99 157.95 131.93 Z M 158.10 132.91 L 158.25 133.90 C 158.39 134.84 159.27 135.49 160.22 135.35 C 161.16 135.21 161.82 134.33 161.68 133.38 L 161.53 132.40 C 161.39 131.45 160.50 130.80 159.56 130.94 C 158.61 131.08 157.96 131.96 158.10 132.91 Z M 158.24 133.88 L 158.38 134.89 C 158.51 135.84 159.39 136.50 160.34 136.37 C 161.29 136.24 161.96 135.36 161.83 134.41 L 161.69 133.40 C 161.55 132.45 160.68 131.78 159.72 131.91 C 158.77 132.05 158.11 132.92 158.24 133.88 Z M 158.37 134.86 L 158.49 135.87 C 158.61 136.83 159.49 137.51 160.44 137.39 C 161.40 137.27 162.08 136.40 161.96 135.44 L 161.84 134.43 C 161.72 133.47 160.84 132.79 159.88 132.91 C 158.93 133.03 158.25 133.91 158.37 134.86 Z M 158.48 135.85 L 158.59 136.84 C 158.70 137.80 159.56 138.50 160.53 138.39 C 161.49 138.28 162.19 137.42 162.08 136.45 L 161.97 135.46 C 161.87 134.50 161.00 133.80 160.04 133.91 C 159.07 134.02 158.38 134.88 158.48 135.85 Z M 158.58 136.81 L 158.67 137.78 C 158.76 138.75 159.62 139.47 160.59 139.38 C 161.56 139.28 162.27 138.42 162.18 137.45 L 162.09 136.48 C 162.00 135.51 161.14 134.80 160.17 134.89 C 159.20 134.98 158.49 135.84 158.58 136.81 Z M 158.66 137.75 L 158.73 138.73 C 158.81 139.71 159.66 140.44 160.63 140.36 C 161.61 140.29 162.34 139.44 162.27 138.46 L 162.19 137.49 C 162.12 136.51 161.27 135.78 160.29 135.85 C 159.32 135.93 158.59 136.78 158.66 137.75 Z M 158.72 138.70 L 158.78 139.69 C 158.84 140.67 159.68 141.42 160.66 141.36 C 161.64 141.30 162.39 140.46 162.33 139.48 L 162.28 138.49 C 162.22 137.51 161.38 136.76 160.40 136.82 C 159.42 136.88 158.67 137.72 158.72 138.70 Z M 158.77 139.66 L 158.82 140.66 C 158.86 141.64 159.69 142.41 160.68 142.36 C 161.66 142.32 162.43 141.49 162.39 140.50 L 162.34 139.51 C 162.30 138.52 161.47 137.76 160.48 137.80 C 159.50 137.84 158.73 138.68 158.77 139.66 Z M 158.81 140.63 L 158.84 141.64 C 158.87 142.63 159.70 143.41 160.69 143.38 C 161.68 143.35 162.45 142.52 162.42 141.53 L 162.39 140.53 C 162.36 139.54 161.54 138.76 160.55 138.79 C 159.56 138.82 158.78 139.64 158.81 140.63 Z M 158.83 141.62 L 158.85 142.62 C 158.87 143.62 159.69 144.41 160.69 144.39 C 161.68 144.37 162.47 143.55 162.45 142.55 L 162.43 141.55 C 162.41 140.55 161.59 139.76 160.60 139.78 C 159.60 139.80 158.81 140.63 158.83 141.62 Z M 158.84 142.61 L 158.85 143.58 C 158.86 144.58 159.68 145.38 160.68 145.37 C 161.68 145.36 162.48 144.54 162.47 143.54 L 162.46 142.57 C 162.45 141.57 161.63 140.77 160.63 140.78 C 159.63 140.79 158.83 141.61 158.84 142.61 Z M 158.84 143.57 L 158.85 144.56 C 158.85 145.56 159.67 146.37 160.68 146.37 C 161.68 146.36 162.49 145.55 162.49 144.54 L 162.48 143.55 C 162.48 142.55 161.66 141.74 160.65 141.74 C 159.65 141.75 158.84 142.56 158.84 143.57 Z M 158.84 144.55 L 158.84 145.56 C 158.84 146.57 159.66 147.39 160.66 147.39 C 161.67 147.39 162.49 146.57 162.49 145.56 L 162.49 144.55 C 162.50 143.54 161.68 142.72 160.67 142.72 C 159.66 142.72 158.84 143.54 158.84 144.55 Z M 158.83 145.55 L 158.82 146.58 C 158.82 147.59 159.64 148.42 160.65 148.43 C 161.66 148.43 162.49 147.61 162.50 146.60 L 162.50 145.57 C 162.51 144.56 161.69 143.73 160.68 143.72 C 159.66 143.72 158.84 144.53 158.83 145.55 Z M 158.82 146.57 L 158.81 147.53 C 158.80 148.55 159.61 149.39 160.63 149.40 C 161.65 149.41 162.49 148.59 162.50 147.57 L 162.50 146.61 C 162.51 145.59 161.70 144.76 160.68 144.75 C 159.66 144.74 158.83 145.55 158.82 146.57 Z M 158.80 147.52 L 158.78 148.49 C 158.77 149.51 159.58 150.35 160.60 150.37 C 161.62 150.39 162.47 149.57 162.49 148.55 L 162.50 147.58 C 162.52 146.56 161.71 145.72 160.68 145.70 C 159.66 145.68 158.82 146.50 158.80 147.52 Z M 158.78 148.47 L 158.75 149.46 C 158.72 150.48 159.52 151.34 160.55 151.37 C 161.58 151.40 162.43 150.59 162.46 149.57 L 162.49 148.58 C 162.52 147.55 161.72 146.69 160.69 146.66 C 159.66 146.63 158.81 147.44 158.78 148.47 Z M 158.74 149.43 L 158.69 150.45 C 158.65 151.48 159.44 152.35 160.47 152.40 C 161.50 152.45 162.37 151.65 162.42 150.62 L 162.47 149.60 C 162.52 148.57 161.72 147.70 160.69 147.65 C 159.66 147.60 158.79 148.40 158.74 149.43 Z M 158.69 150.41 L 158.62 151.46 C 158.55 152.49 159.33 153.39 160.36 153.46 C 161.39 153.52 162.29 152.74 162.36 151.71 L 162.43 150.66 C 162.49 149.63 161.71 148.74 160.68 148.67 C 159.65 148.60 158.76 149.38 158.69 150.41 Z M 158.62 151.42 L 158.53 152.41 C 158.44 153.44 159.20 154.35 160.23 154.44 C 161.27 154.54 162.18 153.77 162.27 152.74 L 162.36 151.75 C 162.45 150.72 161.69 149.81 160.65 149.72 C 159.62 149.63 158.71 150.39 158.62 151.42 Z M 158.53 152.37 L 158.42 153.37 C 158.31 154.40 159.06 155.33 160.09 155.44 C 161.12 155.55 162.05 154.81 162.16 153.77 L 162.27 152.78 C 162.38 151.74 161.64 150.82 160.60 150.70 C 159.57 150.59 158.64 151.34 158.53 152.37 Z M 158.42 153.33 L 158.30 154.34 C 158.17 155.37 158.90 156.31 159.93 156.44 C 160.96 156.57 161.90 155.84 162.03 154.81 L 162.16 153.81 C 162.29 152.78 161.56 151.83 160.53 151.70 C 159.50 151.57 158.55 152.30 158.42 153.33 Z M 158.30 154.31 L 158.15 155.31 C 158.01 156.34 158.72 157.29 159.75 157.44 C 160.78 157.59 161.74 156.87 161.89 155.84 L 162.03 154.84 C 162.18 153.81 161.46 152.86 160.43 152.71 C 159.40 152.56 158.44 153.28 158.30 154.31 Z M 158.15 155.28 L 158.00 156.26 C 157.83 157.29 158.53 158.26 159.56 158.43 C 160.59 158.59 161.56 157.89 161.73 156.86 L 161.89 155.87 C 162.05 154.84 161.35 153.87 160.32 153.71 C 159.29 153.55 158.32 154.25 158.15 155.28 Z M 158.00 156.23 L 157.82 157.23 C 157.64 158.26 158.33 159.25 159.36 159.43 C 160.39 159.61 161.37 158.92 161.55 157.89 L 161.73 156.89 C 161.91 155.86 161.22 154.88 160.19 154.70 C 159.16 154.52 158.18 155.20 158.00 156.23 Z M 157.83 157.20 L 157.63 158.22 C 157.43 159.24 158.10 160.24 159.13 160.44 C 160.15 160.64 161.15 159.97 161.35 158.94 L 161.55 157.93 C 161.75 156.90 161.07 155.90 160.05 155.70 C 159.02 155.50 158.03 156.17 157.83 157.20 Z M 157.63 158.18 L 157.42 159.17 C 157.20 160.19 157.86 161.20 158.88 161.42 C 159.91 161.64 160.92 160.98 161.13 159.96 L 161.34 158.97 C 161.56 157.95 160.91 156.94 159.88 156.72 C 158.86 156.50 157.85 157.16 157.63 158.18 Z M 157.43 159.13 L 157.21 160.09 C 156.97 161.12 157.61 162.14 158.63 162.37 C 159.65 162.61 160.67 161.97 160.91 160.95 L 161.13 159.99 C 161.37 158.97 160.73 157.95 159.71 157.71 C 158.68 157.48 157.66 158.11 157.43 159.13 Z M 157.21 160.06 L 156.98 161.00 C 156.72 162.02 157.34 163.05 158.36 163.31 C 159.38 163.56 160.42 162.94 160.67 161.92 L 160.90 160.98 C 161.16 159.96 160.54 158.93 159.52 158.68 C 158.50 158.42 157.46 159.04 157.21 160.06 Z M 156.98 160.97 L 156.73 161.93 C 156.46 162.94 157.06 163.99 158.08 164.26 C 159.10 164.53 160.14 163.92 160.41 162.91 L 160.66 161.95 C 160.93 160.94 160.33 159.89 159.31 159.62 C 158.30 159.35 157.25 159.96 156.98 160.97 Z M 156.74 161.90 L 156.46 162.87 C 156.17 163.88 156.76 164.93 157.78 165.22 C 158.79 165.51 159.84 164.92 160.13 163.91 L 160.40 162.93 C 160.69 161.92 160.10 160.87 159.09 160.58 C 158.08 160.30 157.02 160.88 156.74 161.90 Z M 156.47 162.84 L 156.18 163.80 C 155.88 164.81 156.45 165.87 157.46 166.17 C 158.47 166.48 159.53 165.90 159.84 164.89 L 160.12 163.93 C 160.42 162.92 159.85 161.86 158.84 161.56 C 157.83 161.26 156.77 161.83 156.47 162.84 Z M 156.19 163.77 L 155.89 164.72 C 155.57 165.73 156.13 166.80 157.14 167.12 C 158.14 167.43 159.21 166.87 159.53 165.87 L 159.83 164.92 C 160.14 163.91 159.59 162.84 158.58 162.53 C 157.58 162.21 156.51 162.77 156.19 163.77 Z M 155.90 164.70 L 155.59 165.64 C 155.26 166.64 155.80 167.72 156.80 168.05 C 157.80 168.38 158.88 167.84 159.21 166.83 L 159.52 165.89 C 159.85 164.89 159.31 163.81 158.31 163.48 C 157.31 163.15 156.23 163.70 155.90 164.70 Z M 155.59 165.61 L 155.27 166.55 C 154.93 167.55 155.46 168.63 156.45 168.98 C 157.45 169.32 158.54 168.79 158.88 167.79 L 159.20 166.86 C 159.55 165.86 159.02 164.77 158.02 164.43 C 157.02 164.09 155.94 164.62 155.59 165.61 Z M 155.28 166.53 L 154.94 167.46 C 154.59 168.45 155.10 169.55 156.10 169.90 C 157.09 170.26 158.18 169.74 158.54 168.75 L 158.88 167.82 C 159.23 166.82 158.72 165.73 157.72 165.37 C 156.73 165.01 155.63 165.53 155.28 166.53 Z M 154.95 167.44 L 154.60 168.37 C 154.23 169.36 154.74 170.46 155.73 170.83 C 156.72 171.20 157.82 170.69 158.19 169.70 L 158.53 168.77 C 158.90 167.78 158.40 166.68 157.41 166.31 C 156.42 165.94 155.32 166.45 154.95 167.44 Z M 154.61 168.35 L 154.25 169.29 C 153.87 170.28 154.36 171.38 155.35 171.76 C 156.34 172.14 157.44 171.65 157.82 170.66 L 158.18 169.72 C 158.56 168.73 158.07 167.63 157.08 167.25 C 156.09 166.87 154.99 167.36 154.61 168.35 Z M 154.25 169.27 L 153.88 170.21 C 153.49 171.20 153.98 172.31 154.96 172.70 C 155.95 173.09 157.06 172.60 157.45 171.62 L 157.82 170.68 C 158.21 169.69 157.72 168.58 156.74 168.19 C 155.75 167.80 154.64 168.29 154.25 169.27 Z M 153.89 170.20 L 153.53 171.09 C 153.13 172.08 153.60 173.19 154.59 173.59 C 155.57 173.98 156.68 173.51 157.08 172.53 L 157.44 171.63 C 157.84 170.65 157.36 169.53 156.38 169.14 C 155.40 168.74 154.28 169.22 153.89 170.20 Z M 153.53 171.08 L 153.16 171.99 C 152.75 172.97 153.22 174.09 154.20 174.49 C 155.18 174.90 156.30 174.43 156.70 173.45 L 157.08 172.54 C 157.48 171.56 157.01 170.44 156.03 170.04 C 155.05 169.64 153.93 170.10 153.53 171.08 Z M 153.16 171.99 L 152.78 172.91 C 152.37 173.89 152.83 175.01 153.81 175.42 C 154.79 175.82 155.91 175.36 156.32 174.38 L 156.70 173.46 C 157.11 172.48 156.64 171.36 155.67 170.95 C 154.69 170.54 153.57 171.01 153.16 171.99 Z M 152.78 172.90 L 152.38 173.85 C 151.97 174.82 152.43 175.95 153.41 176.36 C 154.39 176.76 155.51 176.30 155.92 175.33 L 156.32 174.39 C 156.72 173.41 156.26 172.29 155.29 171.88 C 154.31 171.47 153.19 171.93 152.78 172.90 Z M 152.38 173.84 L 151.98 174.79 C 151.57 175.77 152.03 176.89 153.01 177.31 C 153.99 177.72 155.11 177.26 155.52 176.28 L 155.92 175.33 C 156.33 174.35 155.87 173.23 154.90 172.82 C 153.92 172.41 152.79 172.87 152.38 173.84 Z M 151.98 174.79 L 151.61 175.67 C 151.20 176.65 151.66 177.78 152.64 178.19 C 153.61 178.60 154.74 178.14 155.15 177.16 L 155.52 176.28 C 155.93 175.30 155.47 174.18 154.50 173.77 C 153.52 173.36 152.40 173.81 151.98 174.79 Z M 151.61 175.67 L 151.23 176.57 C 150.82 177.54 151.28 178.67 152.25 179.08 C 153.23 179.50 154.36 179.04 154.77 178.06 L 155.15 177.17 C 155.56 176.19 155.11 175.06 154.13 174.65 C 153.15 174.24 152.03 174.69 151.61 175.67 Z M 151.24 176.56 L 150.85 177.48 C 150.43 178.45 150.88 179.58 151.86 180.00 C 152.83 180.41 153.96 179.96 154.38 178.98 L 154.77 178.07 C 155.18 177.09 154.73 175.97 153.75 175.55 C 152.78 175.13 151.65 175.59 151.24 176.56 Z M 150.85 177.47 L 150.45 178.40 C 150.03 179.38 150.48 180.51 151.45 180.93 C 152.43 181.35 153.55 180.90 153.97 179.92 L 154.38 178.99 C 154.79 178.02 154.34 176.89 153.37 176.47 C 152.40 176.05 151.27 176.50 150.85 177.47 Z M 150.45 178.40 L 150.04 179.35 C 149.61 180.32 150.06 181.45 151.03 181.87 C 152.00 182.30 153.13 181.85 153.56 180.88 L 153.97 179.93 C 154.39 178.96 153.95 177.83 152.98 177.40 C 152.01 176.98 150.87 177.42 150.45 178.40 Z M 150.04 179.34 L 149.63 180.27 C 149.20 181.24 149.64 182.38 150.61 182.81 C 151.58 183.24 152.71 182.80 153.14 181.83 L 153.55 180.89 C 153.98 179.92 153.54 178.79 152.57 178.36 C 151.60 177.93 150.47 178.37 150.04 179.34 Z M 149.63 180.26 L 149.22 181.18 C 148.78 182.15 149.21 183.29 150.18 183.72 C 151.15 184.16 152.29 183.73 152.72 182.76 L 153.13 181.84 C 153.57 180.87 153.14 179.73 152.17 179.30 C 151.20 178.86 150.07 179.30 149.63 180.26 Z M 149.22 181.17 L 148.80 182.09 C 148.36 183.05 148.78 184.19 149.74 184.64 C 150.71 185.08 151.85 184.66 152.29 183.69 L 152.71 182.77 C 153.16 181.81 152.73 180.67 151.77 180.23 C 150.81 179.78 149.67 180.21 149.22 181.17 Z M 148.81 182.07 L 148.38 182.99 C 147.92 183.95 148.33 185.09 149.29 185.54 C 150.25 186.00 151.40 185.59 151.85 184.63 L 152.28 183.71 C 152.73 182.75 152.32 181.61 151.36 181.16 C 150.41 180.70 149.26 181.11 148.81 182.07 Z M 148.39 182.97 L 147.95 183.87 C 147.48 184.82 147.88 185.97 148.83 186.43 C 149.78 186.90 150.93 186.50 151.40 185.55 L 151.84 184.65 C 152.30 183.70 151.91 182.55 150.95 182.08 C 150.00 181.62 148.85 182.01 148.39 182.97 Z M 147.96 183.84 L 147.52 184.71 C 147.04 185.66 147.42 186.81 148.36 187.29 C 149.31 187.77 150.46 187.40 150.94 186.45 L 151.38 185.58 C 151.86 184.63 151.49 183.48 150.54 183.00 C 149.60 182.52 148.44 182.89 147.96 183.84 Z M 147.54 184.68 L 147.06 185.58 C 146.56 186.52 146.91 187.68 147.85 188.18 C 148.78 188.67 149.94 188.32 150.44 187.39 L 150.92 186.49 C 151.42 185.55 151.07 184.39 150.13 183.89 C 149.20 183.39 148.03 183.75 147.54 184.68 Z M 147.08 185.54 L 146.57 186.44 C 146.05 187.37 146.38 188.54 147.30 189.06 C 148.22 189.58 149.39 189.25 149.91 188.33 L 150.42 187.42 C 150.94 186.50 150.61 185.33 149.69 184.81 C 148.77 184.29 147.60 184.62 147.08 185.54 Z M 146.59 186.41 L 146.08 187.27 C 145.54 188.18 145.84 189.36 146.75 189.90 C 147.66 190.44 148.84 190.14 149.38 189.23 L 149.89 188.36 C 150.43 187.45 150.13 186.28 149.22 185.74 C 148.31 185.20 147.13 185.50 146.59 186.41 Z M 146.10 187.24 L 145.58 188.07 C 145.02 188.97 145.30 190.15 146.20 190.71 C 147.10 191.27 148.28 190.99 148.84 190.10 L 149.36 189.26 C 149.92 188.36 149.64 187.18 148.74 186.62 C 147.84 186.06 146.66 186.34 146.10 187.24 Z M 145.60 188.04 L 145.08 188.85 C 144.50 189.74 144.75 190.92 145.64 191.50 C 146.53 192.08 147.71 191.83 148.29 190.94 L 148.82 190.13 C 149.39 189.24 149.14 188.05 148.25 187.48 C 147.37 186.90 146.18 187.15 145.60 188.04 Z M 145.09 188.82 L 144.55 189.63 C 143.96 190.50 144.19 191.69 145.07 192.29 C 145.95 192.88 147.14 192.65 147.73 191.77 L 148.27 190.97 C 148.86 190.09 148.63 188.90 147.75 188.31 C 146.88 187.72 145.69 187.95 145.09 188.82 Z M 144.57 189.60 L 144.01 190.41 C 143.40 191.28 143.62 192.47 144.48 193.08 C 145.35 193.68 146.54 193.47 147.15 192.60 L 147.71 191.79 C 148.32 190.92 148.10 189.73 147.24 189.13 C 146.37 188.52 145.17 188.74 144.57 189.60 Z M 144.02 190.39 L 143.45 191.19 C 142.83 192.05 143.03 193.24 143.88 193.86 C 144.74 194.48 145.94 194.28 146.55 193.42 L 147.13 192.62 C 147.75 191.76 147.55 190.57 146.70 189.95 C 145.84 189.33 144.64 189.53 144.02 190.39 Z M 143.46 191.17 L 142.87 191.97 C 142.24 192.82 142.42 194.02 143.27 194.65 C 144.12 195.28 145.32 195.10 145.94 194.25 L 146.54 193.45 C 147.17 192.60 146.99 191.40 146.14 190.77 C 145.29 190.14 144.09 190.32 143.46 191.17 Z M 142.89 191.95 L 142.27 192.76 C 141.63 193.60 141.80 194.79 142.64 195.43 C 143.48 196.07 144.68 195.91 145.32 195.07 L 145.93 194.27 C 146.57 193.43 146.41 192.23 145.57 191.59 C 144.73 190.95 143.53 191.11 142.89 191.95 Z M 142.29 192.74 L 141.66 193.54 C 141.01 194.37 141.16 195.57 141.99 196.22 C 142.82 196.87 144.03 196.72 144.67 195.89 L 145.30 195.09 C 145.95 194.26 145.80 193.06 144.97 192.41 C 144.14 191.76 142.94 191.91 142.29 192.74 Z M 141.68 193.52 L 141.08 194.27 C 140.42 195.10 140.55 196.30 141.38 196.96 C 142.20 197.61 143.41 197.48 144.06 196.66 L 144.66 195.91 C 145.32 195.08 145.18 193.88 144.36 193.22 C 143.54 192.56 142.33 192.70 141.68 193.52 Z M 141.09 194.26 L 140.47 195.02 C 139.81 195.84 139.93 197.04 140.75 197.71 C 141.57 198.37 142.77 198.24 143.44 197.43 L 144.05 196.67 C 144.72 195.85 144.59 194.65 143.77 193.98 C 142.95 193.32 141.75 193.44 141.09 194.26 Z M 140.48 195.01 L 139.85 195.79 C 139.18 196.60 139.30 197.80 140.11 198.47 C 140.93 199.14 142.13 199.02 142.80 198.20 L 143.43 197.43 C 144.10 196.62 143.98 195.42 143.16 194.75 C 142.35 194.08 141.15 194.20 140.48 195.01 Z M 139.85 195.78 L 139.21 196.57 C 138.54 197.38 138.65 198.58 139.47 199.25 C 140.28 199.92 141.48 199.80 142.15 198.99 L 142.79 198.21 C 143.46 197.39 143.35 196.19 142.54 195.52 C 141.72 194.85 140.52 194.97 139.85 195.78 Z M 139.21 196.57 L 138.55 197.36 C 137.88 198.18 138.00 199.38 138.81 200.05 C 139.62 200.71 140.82 200.60 141.49 199.79 L 142.15 198.99 C 142.82 198.18 142.70 196.98 141.89 196.31 C 141.08 195.64 139.88 195.75 139.21 196.57 Z M 138.55 197.37 L 137.91 198.15 C 137.24 198.96 137.36 200.16 138.17 200.83 C 138.98 201.49 140.18 201.38 140.85 200.57 L 141.49 199.78 C 142.16 198.97 142.04 197.77 141.23 197.11 C 140.42 196.44 139.22 196.55 138.55 197.37 Z M 137.91 198.15 L 137.28 198.91 C 136.62 199.73 136.74 200.92 137.55 201.59 C 138.36 202.25 139.56 202.14 140.23 201.32 L 140.85 200.56 C 141.51 199.75 141.39 198.55 140.58 197.88 C 139.77 197.22 138.57 197.34 137.91 198.15 Z M 137.28 198.92 L 136.65 199.69 C 135.99 200.50 136.11 201.70 136.93 202.36 C 137.74 203.03 138.94 202.90 139.60 202.09 L 140.23 201.32 C 140.89 200.50 140.77 199.31 139.95 198.64 C 139.14 197.98 137.94 198.10 137.28 198.92 Z M 136.65 199.70 L 136.02 200.48 C 135.36 201.29 135.48 202.49 136.30 203.15 C 137.11 203.81 138.31 203.68 138.97 202.87 L 139.60 202.08 C 140.26 201.27 140.14 200.07 139.32 199.41 C 138.51 198.75 137.31 198.88 136.65 199.70 Z M 136.02 200.48 L 135.38 201.27 C 134.73 202.08 134.85 203.28 135.67 203.93 C 136.49 204.59 137.68 204.46 138.34 203.65 L 138.97 202.86 C 139.63 202.04 139.50 200.85 138.68 200.19 C 137.87 199.54 136.67 199.66 136.02 200.48 Z M 135.38 201.27 L 134.75 202.06 C 134.09 202.88 134.23 204.07 135.04 204.73 C 135.86 205.38 137.05 205.25 137.71 204.43 L 138.34 203.64 C 138.99 202.82 138.86 201.63 138.04 200.98 C 137.23 200.32 136.03 200.46 135.38 201.27 Z M 134.75 202.07 L 134.12 202.86 C 133.47 203.68 133.60 204.87 134.42 205.52 C 135.24 206.17 136.43 206.03 137.08 205.21 L 137.71 204.43 C 138.36 203.61 138.22 202.42 137.41 201.76 C 136.59 201.11 135.40 201.25 134.75 202.07 Z M 134.12 202.86 L 133.50 203.65 C 132.85 204.47 132.99 205.66 133.81 206.30 C 134.63 206.95 135.82 206.81 136.47 205.99 L 137.09 205.21 C 137.73 204.39 137.59 203.20 136.77 202.55 C 135.95 201.90 134.76 202.04 134.12 202.86 Z M 133.49 203.65 L 132.88 204.43 C 132.23 205.25 132.38 206.44 133.20 207.09 C 134.02 207.74 135.21 207.59 135.85 206.77 L 136.47 205.99 C 137.11 205.17 136.97 203.98 136.15 203.33 C 135.33 202.69 134.14 202.83 133.49 203.65 Z M 132.88 204.44 L 132.26 205.22 C 131.62 206.04 131.76 207.23 132.58 207.88 C 133.41 208.52 134.60 208.38 135.24 207.55 L 135.85 206.77 C 136.50 205.95 136.35 204.76 135.53 204.11 C 134.71 203.47 133.52 203.61 132.88 204.44 Z M 132.26 205.22 L 131.65 206.01 C 131.00 206.83 131.15 208.02 131.97 208.66 C 132.79 209.31 133.98 209.16 134.62 208.34 L 135.24 207.55 C 135.88 206.73 135.74 205.54 134.91 204.90 C 134.09 204.26 132.90 204.40 132.26 205.22 Z M 131.65 206.01 L 131.03 206.80 C 130.39 207.63 130.53 208.81 131.36 209.46 C 132.18 210.10 133.37 209.95 134.01 209.13 L 134.62 208.34 C 135.27 207.52 135.12 206.33 134.30 205.69 C 133.47 205.04 132.29 205.19 131.65 206.01 Z M 131.03 206.80 L 130.41 207.60 C 129.76 208.42 129.91 209.61 130.73 210.25 C 131.56 210.89 132.74 210.75 133.38 209.93 L 134.01 209.13 C 134.65 208.31 134.50 207.12 133.68 206.48 C 132.86 205.84 131.67 205.98 131.03 206.80 Z M 130.41 207.60 L 129.77 208.42 C 129.12 209.24 129.27 210.43 130.09 211.07 C 130.91 211.71 132.10 211.57 132.74 210.75 L 133.38 209.93 C 134.02 209.11 133.88 207.92 133.06 207.28 C 132.24 206.64 131.05 206.78 130.41 207.60 Z M 129.77 208.42 L 129.13 209.24 C 128.49 210.06 128.63 211.24 129.45 211.88 C 130.26 212.53 131.45 212.38 132.09 211.57 L 132.73 210.75 C 133.38 209.93 133.23 208.75 132.42 208.11 C 131.60 207.46 130.41 207.60 129.77 208.42 Z M 129.14 209.23 L 128.50 210.03 C 127.86 210.85 127.99 212.03 128.81 212.68 C 129.62 213.32 130.80 213.19 131.45 212.37 L 132.08 211.57 C 132.73 210.76 132.59 209.57 131.78 208.93 C 130.97 208.28 129.78 208.42 129.14 209.23 Z M 128.51 210.03 L 127.89 210.80 C 127.24 211.61 127.37 212.80 128.18 213.45 C 128.99 214.09 130.17 213.97 130.82 213.16 L 131.44 212.38 C 132.09 211.57 131.96 210.39 131.15 209.74 C 130.34 209.09 129.16 209.22 128.51 210.03 Z M 127.90 210.79 L 127.29 211.54 C 126.64 212.34 126.76 213.52 127.56 214.18 C 128.36 214.83 129.55 214.71 130.20 213.91 L 130.81 213.17 C 131.46 212.36 131.34 211.18 130.54 210.53 C 129.74 209.87 128.55 209.99 127.90 210.79 Z M 127.31 211.52 L 126.69 212.26 C 126.03 213.05 126.14 214.24 126.93 214.90 C 127.73 215.56 128.91 215.45 129.57 214.66 L 130.19 213.92 C 130.85 213.13 130.74 211.95 129.95 211.28 C 129.15 210.62 127.97 210.73 127.31 211.52 Z M 126.71 212.24 L 126.00 213.07 C 125.33 213.85 125.42 215.03 126.20 215.71 C 126.98 216.38 128.16 216.29 128.84 215.51 L 129.55 214.68 C 130.22 213.90 130.14 212.71 129.35 212.04 C 128.57 211.37 127.39 211.46 126.71 212.24 Z M 126.03 213.05 L 125.35 213.81 C 124.66 214.58 124.73 215.76 125.50 216.44 C 126.27 217.13 127.45 217.06 128.13 216.29 L 128.81 215.53 C 129.50 214.76 129.43 213.58 128.66 212.89 C 127.89 212.21 126.71 212.28 126.03 213.05 Z M 125.37 213.79 L 124.71 214.50 C 124.02 215.25 124.06 216.43 124.82 217.13 C 125.57 217.83 126.75 217.78 127.45 217.03 L 128.11 216.32 C 128.80 215.56 128.76 214.38 128.00 213.68 C 127.25 212.99 126.07 213.03 125.37 213.79 Z M 124.74 214.48 L 124.09 215.15 C 123.38 215.89 123.41 217.07 124.15 217.78 C 124.89 218.49 126.07 218.46 126.78 217.72 L 127.42 217.05 C 128.13 216.31 128.11 215.13 127.36 214.42 C 126.62 213.71 125.45 213.74 124.74 214.48 Z M 124.12 215.14 L 123.44 215.82 C 122.72 216.55 122.72 217.72 123.45 218.44 C 124.18 219.16 125.35 219.16 126.07 218.43 L 126.75 217.74 C 127.47 217.01 127.46 215.84 126.74 215.12 C 126.01 214.40 124.84 214.41 124.12 215.14 Z M 123.46 215.81 L 122.74 216.52 C 122.01 217.24 122.00 218.41 122.72 219.13 C 123.43 219.86 124.60 219.87 125.33 219.15 L 126.05 218.44 C 126.78 217.73 126.79 216.56 126.07 215.83 C 125.36 215.10 124.19 215.09 123.46 215.81 Z M 122.75 216.51 L 122.04 217.20 C 121.30 217.91 121.28 219.08 121.99 219.81 C 122.69 220.54 123.86 220.56 124.59 219.86 L 125.31 219.16 C 126.04 218.46 126.07 217.29 125.36 216.56 C 124.65 215.82 123.49 215.80 122.75 216.51 Z M 122.05 217.20 L 121.33 217.88 C 120.60 218.58 120.57 219.74 121.27 220.48 C 121.97 221.21 123.13 221.24 123.87 220.54 L 124.58 219.86 C 125.32 219.16 125.34 218.00 124.64 217.26 C 123.94 216.53 122.78 216.50 122.05 217.20 Z M 121.34 217.88 L 120.62 218.57 C 119.89 219.26 119.85 220.42 120.55 221.15 C 121.25 221.89 122.41 221.92 123.14 221.22 L 123.86 220.54 C 124.59 219.84 124.62 218.69 123.93 217.95 C 123.23 217.22 122.07 217.19 121.34 217.88 Z M 120.62 218.57 L 119.89 219.26 C 119.16 219.95 119.13 221.11 119.82 221.84 C 120.52 222.57 121.67 222.60 122.40 221.91 L 123.13 221.22 C 123.87 220.53 123.90 219.37 123.20 218.64 C 122.51 217.91 121.36 217.88 120.62 218.57 Z M 119.91 219.26 L 119.18 219.94 C 118.44 220.63 118.41 221.78 119.09 222.51 C 119.78 223.24 120.93 223.28 121.66 222.59 L 122.39 221.91 C 123.12 221.22 123.16 220.07 122.47 219.34 C 121.79 218.61 120.64 218.57 119.91 219.26 Z M 119.19 219.94 L 118.46 220.61 C 117.73 221.29 117.68 222.43 118.35 223.17 C 119.03 223.90 120.18 223.95 120.91 223.28 L 121.64 222.60 C 122.38 221.92 122.43 220.78 121.75 220.04 C 121.07 219.31 119.93 219.26 119.19 219.94 Z M 118.49 220.60 L 117.74 221.26 C 117.00 221.93 116.94 223.06 117.60 223.81 C 118.26 224.55 119.40 224.61 120.15 223.95 L 120.89 223.29 C 121.63 222.62 121.69 221.48 121.03 220.74 C 120.37 220.00 119.23 219.94 118.49 220.60 Z M 117.77 221.25 L 117.02 221.90 C 116.27 222.55 116.19 223.68 116.84 224.43 C 117.48 225.18 118.62 225.26 119.37 224.61 L 120.12 223.96 C 120.87 223.31 120.95 222.18 120.30 221.43 C 119.65 220.68 118.52 220.60 117.77 221.25 Z M 117.04 221.90 L 116.28 222.54 C 115.52 223.18 115.43 224.30 116.07 225.05 C 116.70 225.81 117.83 225.90 118.58 225.27 L 119.34 224.62 C 120.10 223.99 120.19 222.86 119.55 222.11 C 118.92 221.35 117.79 221.26 117.04 221.90 Z M 116.29 222.54 L 115.52 223.18 C 114.77 223.81 114.67 224.93 115.29 225.68 C 115.92 226.43 117.04 226.54 117.80 225.91 L 118.57 225.27 C 119.32 224.64 119.42 223.52 118.79 222.77 C 118.17 222.01 117.05 221.91 116.29 222.54 Z M 115.53 223.18 L 114.76 223.82 C 114.01 224.44 113.91 225.56 114.53 226.31 C 115.15 227.06 116.27 227.17 117.02 226.54 L 117.79 225.91 C 118.54 225.28 118.64 224.17 118.02 223.42 C 117.40 222.66 116.28 222.56 115.53 223.18 Z M 114.77 223.83 L 114.01 224.46 C 113.26 225.07 113.15 226.18 113.77 226.93 C 114.39 227.68 115.50 227.78 116.25 227.17 L 117.01 226.54 C 117.76 225.92 117.86 224.81 117.24 224.06 C 116.63 223.31 115.52 223.21 114.77 223.83 Z M 114.02 224.46 L 113.25 225.09 C 112.50 225.70 112.39 226.81 113.01 227.55 C 113.62 228.30 114.72 228.41 115.47 227.79 L 116.24 227.16 C 116.98 226.55 117.09 225.45 116.48 224.70 C 115.87 223.95 114.77 223.85 114.02 224.46 Z M 113.26 225.09 L 112.48 225.73 C 111.74 226.33 111.62 227.43 112.23 228.17 C 112.83 228.92 113.93 229.03 114.67 228.43 L 115.45 227.79 C 116.20 227.19 116.31 226.09 115.71 225.35 C 115.10 224.60 114.01 224.49 113.26 225.09 Z M 112.50 225.72 L 111.70 226.36 C 110.96 226.95 110.83 228.04 111.43 228.79 C 112.02 229.54 113.11 229.66 113.86 229.06 L 114.65 228.43 C 115.40 227.84 115.52 226.75 114.93 226.00 C 114.34 225.25 113.25 225.13 112.50 225.72 Z M 111.72 226.36 L 110.90 226.99 C 110.16 227.58 110.02 228.66 110.60 229.40 C 111.19 230.15 112.27 230.29 113.02 229.71 L 113.83 229.07 C 114.58 228.49 114.72 227.41 114.14 226.66 C 113.55 225.91 112.47 225.77 111.72 226.36 Z M 110.93 226.99 L 110.11 227.61 C 109.36 228.18 109.21 229.25 109.78 230.00 C 110.36 230.75 111.43 230.90 112.18 230.33 L 112.99 229.71 C 113.75 229.14 113.89 228.07 113.32 227.31 C 112.75 226.56 111.68 226.42 110.93 226.99 Z M 110.13 227.61 L 109.34 228.20 C 108.58 228.76 108.43 229.82 108.99 230.57 C 109.55 231.33 110.61 231.48 111.36 230.92 L 112.16 230.33 C 112.91 229.77 113.07 228.71 112.51 227.96 C 111.95 227.21 110.88 227.05 110.13 227.61 Z M 109.36 228.20 L 108.59 228.75 C 107.84 229.30 107.67 230.36 108.22 231.11 C 108.76 231.86 109.82 232.03 110.57 231.48 L 111.34 230.93 C 112.09 230.38 112.26 229.32 111.71 228.57 C 111.17 227.82 110.11 227.65 109.36 228.20 Z M 108.62 228.75 L 107.73 229.37 C 106.98 229.91 106.79 230.95 107.33 231.71 C 107.86 232.47 108.91 232.65 109.66 232.11 L 110.55 231.49 C 111.30 230.95 111.49 229.91 110.95 229.15 C 110.42 228.40 109.37 228.21 108.62 228.75 Z M 107.75 229.37 L 106.94 229.93 C 106.18 230.45 105.98 231.49 106.51 232.25 C 107.03 233.01 108.07 233.20 108.83 232.68 L 109.64 232.12 C 110.40 231.59 110.59 230.56 110.07 229.80 C 109.55 229.04 108.51 228.85 107.75 229.37 Z M 106.95 229.93 L 106.17 230.46 C 105.42 230.98 105.22 232.01 105.74 232.77 C 106.26 233.52 107.29 233.72 108.04 233.20 L 108.82 232.68 C 109.57 232.16 109.77 231.13 109.25 230.37 C 108.74 229.61 107.70 229.42 106.95 229.93 Z M 106.17 230.47 L 105.34 231.05 C 104.59 231.56 104.40 232.59 104.91 233.34 C 105.43 234.09 106.46 234.28 107.21 233.77 L 108.05 233.19 C 108.80 232.67 108.99 231.65 108.47 230.89 C 107.95 230.14 106.92 229.95 106.17 230.47 Z M 105.34 231.05 L 104.51 231.62 C 103.76 232.14 103.57 233.16 104.09 233.91 C 104.61 234.66 105.63 234.85 106.38 234.33 L 107.21 233.76 C 107.96 233.25 108.14 232.22 107.63 231.47 C 107.11 230.72 106.09 230.54 105.34 231.05 Z M 104.53 231.62 L 103.73 232.16 C 102.98 232.67 102.78 233.69 103.29 234.44 C 103.79 235.19 104.81 235.38 105.56 234.88 L 106.36 234.34 C 107.11 233.83 107.31 232.81 106.80 232.06 C 106.30 231.31 105.28 231.11 104.53 231.62 Z M 103.75 232.15 L 102.89 232.71 C 102.14 233.20 101.92 234.21 102.42 234.97 C 102.91 235.73 103.92 235.94 104.68 235.45 L 105.54 234.89 C 106.29 234.40 106.51 233.38 106.02 232.63 C 105.52 231.87 104.51 231.65 103.75 232.15 Z M 102.92 232.70 L 102.08 233.22 C 101.32 233.70 101.09 234.71 101.57 235.47 C 102.05 236.24 103.06 236.46 103.82 235.98 L 104.66 235.46 C 105.42 234.98 105.65 233.97 105.17 233.21 C 104.69 232.44 103.68 232.22 102.92 232.70 Z M 102.09 233.22 L 101.68 233.47 C 100.92 233.95 100.69 234.96 101.17 235.72 C 101.64 236.48 102.65 236.72 103.41 236.24 L 103.82 235.99 C 104.58 235.51 104.81 234.50 104.34 233.74 C 103.86 232.98 102.85 232.74 102.09 233.22 Z"
      fill="black"
      fill-rule="nonzero" /></svg>