<svg xmlns="http://www.w3.org/2000/svg" width="300" height="300" viewBox="0 0 300 300">
<path d="M 73.37 75.38 L 72.61 74.75 C 71.99 74.24 71.08 74.32 70.57 74.94 C 70.06 75.55 70.14 76.46 70.76 76.98 L 71.52 77.61 C 72.13 78.12 73.05 78.03 73.56 77.42 C 74.07 76.80 73.98 75.89 73.37 75.38 Z M 72.61 74.75 L 71.84 74.11 C 71.23 73.60 70.32 73.68 69.80 74.29 C 69.29 74.91 69.37 75.82 69.99 76.33 L 70.76 76.97 C 71.37 77.49 72.28 77.40 72.80 76.79 C 73.31 76.17 73.23 75.26 72.61 74.75 Z M 71.81 74.09 L 71.04 73.47 C 70.41 72.98 69.50 73.08 69.01 73.71 C 68.51 74.34 68.62 75.25 69.24 75.74 L 70.02 76.36 C 70.64 76.85 71.56 76.75 72.05 76.12 C 72.55 75.49 72.44 74.58 71.81 74.09 Z M 70.93 73.39 L 70.07 72.83 C 69.39 72.39 68.50 72.58 68.06 73.26 C 67.62 73.93 67.81 74.83 68.49 75.26 L 69.35 75.83 C 70.02 76.26 70.92 76.07 71.36 75.40 C 71.79 74.73 71.60 73.83 70.93 73.39 Z M 69.91 72.74 L 69.00 72.29 C 68.28 71.94 67.41 72.24 67.05 72.96 C 66.70 73.68 67.00 74.55 67.72 74.91 L 68.64 75.35 C 69.36 75.71 70.23 75.41 70.58 74.68 C 70.94 73.96 70.64 73.09 69.91 72.74 Z M 68.82 72.21 L 67.87 71.90 C 67.10 71.65 66.28 72.07 66.03 72.83 C 65.78 73.60 66.19 74.42 66.96 74.67 L 67.90 74.98 C 68.67 75.24 69.49 74.82 69.75 74.06 C 70.00 73.29 69.58 72.46 68.82 72.21 Z M 67.63 71.84 L 66.65 71.70 C 65.85 71.58 65.11 72.13 64.99 72.93 C 64.87 73.73 65.43 74.47 66.23 74.59 L 67.20 74.73 C 68.00 74.85 68.74 74.30 68.86 73.50 C 68.98 72.70 68.43 71.96 67.63 71.84 Z M 66.48 71.68 L 65.50 71.65 C 64.70 71.63 64.02 72.27 64.00 73.08 C 63.98 73.89 64.62 74.56 65.42 74.58 L 66.40 74.61 C 67.21 74.63 67.88 73.99 67.90 73.18 C 67.92 72.38 67.29 71.70 66.48 71.68 Z M 65.22 71.67 L 64.23 71.84 C 63.43 71.97 62.89 72.73 63.02 73.53 C 63.16 74.33 63.91 74.87 64.71 74.73 L 65.71 74.56 C 66.51 74.43 67.05 73.67 66.91 72.87 C 66.78 72.08 66.02 71.54 65.22 71.67 Z M 63.80 71.97 L 62.98 72.39 C 62.26 72.76 61.97 73.65 62.34 74.37 C 62.71 75.10 63.59 75.38 64.32 75.01 L 65.14 74.59 C 65.86 74.22 66.15 73.34 65.78 72.62 C 65.41 71.89 64.52 71.61 63.80 71.97 Z M 62.70 72.58 L 61.88 73.26 C 61.26 73.79 61.18 74.72 61.70 75.34 C 62.23 75.96 63.15 76.04 63.78 75.52 L 64.60 74.83 C 65.22 74.31 65.30 73.38 64.78 72.76 C 64.25 72.13 63.32 72.05 62.70 72.58 Z M 61.74 73.40 L 61.07 74.14 C 60.52 74.74 60.56 75.67 61.16 76.22 C 61.76 76.77 62.69 76.73 63.24 76.13 L 63.92 75.39 C 64.47 74.79 64.43 73.85 63.83 73.30 C 63.23 72.75 62.29 72.80 61.74 73.40 Z M 61.00 74.21 L 60.37 75.01 C 59.86 75.64 59.96 76.57 60.60 77.08 C 61.24 77.59 62.16 77.48 62.67 76.85 L 63.31 76.05 C 63.81 75.41 63.71 74.49 63.07 73.98 C 62.44 73.47 61.51 73.57 61.00 74.21 Z M 60.32 75.06 L 59.72 75.90 C 59.24 76.56 59.39 77.48 60.05 77.96 C 60.71 78.44 61.63 78.29 62.11 77.63 L 62.71 76.79 C 63.19 76.13 63.04 75.21 62.38 74.73 C 61.72 74.25 60.80 74.40 60.32 75.06 Z M 59.67 75.96 L 59.14 76.78 C 58.69 77.47 58.89 78.38 59.57 78.83 C 60.26 79.27 61.17 79.08 61.61 78.39 L 62.15 77.57 C 62.60 76.89 62.40 75.97 61.72 75.53 C 61.03 75.08 60.12 75.28 59.67 75.96 Z M 59.10 76.85 L 58.61 77.68 C 58.20 78.39 58.45 79.29 59.15 79.70 C 59.86 80.11 60.76 79.87 61.17 79.16 L 61.66 78.33 C 62.07 77.62 61.82 76.72 61.12 76.31 C 60.41 75.90 59.51 76.14 59.10 76.85 Z M 58.58 77.74 L 58.12 78.62 C 57.74 79.35 58.02 80.24 58.74 80.62 C 59.47 81.00 60.36 80.72 60.74 80.00 L 61.21 79.11 C 61.59 78.39 61.31 77.49 60.58 77.11 C 59.86 76.73 58.96 77.01 58.58 77.74 Z M 58.09 78.67 L 57.66 79.56 C 57.31 80.30 57.62 81.19 58.36 81.54 C 59.10 81.89 59.99 81.58 60.34 80.84 L 60.77 79.95 C 61.12 79.21 60.81 78.33 60.07 77.97 C 59.33 77.62 58.45 77.93 58.09 78.67 Z M 57.64 79.62 L 57.24 80.54 C 56.92 81.30 57.27 82.17 58.02 82.49 C 58.78 82.82 59.65 82.47 59.97 81.71 L 60.37 80.79 C 60.69 80.03 60.34 79.16 59.59 78.84 C 58.83 78.51 57.96 78.86 57.64 79.62 Z M 57.21 80.62 L 56.87 81.55 C 56.58 82.32 56.98 83.17 57.75 83.46 C 58.52 83.74 59.38 83.34 59.66 82.57 L 60.00 81.64 C 60.29 80.87 59.89 80.01 59.12 79.73 C 58.35 79.45 57.49 79.84 57.21 80.62 Z M 56.85 81.59 L 56.53 82.55 C 56.28 83.33 56.70 84.18 57.48 84.43 C 58.26 84.69 59.11 84.27 59.36 83.49 L 59.68 82.53 C 59.94 81.75 59.51 80.90 58.73 80.65 C 57.95 80.39 57.11 80.81 56.85 81.59 Z M 56.53 82.56 L 56.22 83.52 C 55.97 84.30 56.40 85.14 57.18 85.39 C 57.97 85.65 58.81 85.22 59.06 84.43 L 59.37 83.47 C 59.62 82.69 59.19 81.85 58.40 81.60 C 57.62 81.35 56.78 81.78 56.53 82.56 Z M 56.22 83.53 L 55.92 84.48 C 55.67 85.27 56.11 86.11 56.90 86.35 C 57.69 86.60 58.52 86.16 58.77 85.37 L 59.07 84.42 C 59.31 83.63 58.87 82.79 58.09 82.55 C 57.30 82.30 56.46 82.74 56.22 83.53 Z M 55.91 84.51 L 55.63 85.46 C 55.40 86.25 55.85 87.08 56.65 87.31 C 57.44 87.55 58.27 87.09 58.50 86.30 L 58.78 85.35 C 59.01 84.55 58.56 83.72 57.76 83.49 C 56.97 83.26 56.14 83.72 55.91 84.51 Z M 55.62 85.49 L 55.36 86.46 C 55.15 87.26 55.62 88.08 56.42 88.30 C 57.22 88.51 58.04 88.03 58.26 87.23 L 58.51 86.26 C 58.73 85.46 58.25 84.64 57.45 84.43 C 56.65 84.22 55.83 84.69 55.62 85.49 Z M 55.35 86.50 L 55.12 87.49 C 54.93 88.29 55.43 89.10 56.23 89.29 C 57.04 89.48 57.85 88.98 58.04 88.17 L 58.27 87.19 C 58.46 86.38 57.96 85.58 57.15 85.39 C 56.35 85.20 55.54 85.70 55.35 86.50 Z M 55.10 87.54 L 54.91 88.52 C 54.75 89.34 55.28 90.13 56.09 90.29 C 56.91 90.45 57.70 89.92 57.86 89.10 L 58.05 88.12 C 58.21 87.30 57.68 86.51 56.87 86.35 C 56.05 86.19 55.26 86.72 55.10 87.54 Z M 54.89 88.60 L 54.75 89.60 C 54.63 90.42 55.20 91.19 56.03 91.30 C 56.85 91.42 57.62 90.85 57.73 90.03 L 57.88 89.03 C 57.99 88.20 57.42 87.44 56.60 87.32 C 55.77 87.20 55.01 87.78 54.89 88.60 Z M 54.74 89.68 L 54.65 90.66 C 54.57 91.50 55.19 92.23 56.02 92.30 C 56.85 92.38 57.58 91.77 57.66 90.94 L 57.74 89.95 C 57.82 89.12 57.21 88.38 56.38 88.31 C 55.55 88.24 54.81 88.85 54.74 89.68 Z M 54.64 90.71 L 54.59 91.69 C 54.54 92.53 55.18 93.24 56.01 93.29 C 56.84 93.34 57.56 92.70 57.60 91.87 L 57.66 90.89 C 57.71 90.05 57.07 89.34 56.24 89.29 C 55.41 89.24 54.69 89.88 54.64 90.71 Z M 54.58 91.73 L 54.55 92.73 C 54.52 93.57 55.17 94.27 56.01 94.29 C 56.84 94.32 57.54 93.67 57.57 92.83 L 57.61 91.83 C 57.64 91.00 56.98 90.30 56.15 90.27 C 55.31 90.24 54.61 90.89 54.58 91.73 Z M 54.55 92.76 L 54.53 93.75 C 54.52 94.58 55.19 95.27 56.02 95.28 C 56.86 95.30 57.55 94.63 57.56 93.79 L 57.58 92.81 C 57.59 91.97 56.92 91.28 56.08 91.27 C 55.25 91.26 54.56 91.92 54.55 92.76 Z M 54.53 93.76 L 54.53 94.77 C 54.52 95.61 55.20 96.29 56.04 96.29 C 56.87 96.30 57.56 95.62 57.56 94.78 L 57.56 93.78 C 57.57 92.94 56.89 92.26 56.05 92.25 C 55.22 92.25 54.53 92.93 54.53 93.76 Z M 54.53 94.78 L 54.53 95.78 C 54.53 96.61 55.21 97.29 56.05 97.29 C 56.88 97.29 57.56 96.61 57.56 95.77 L 57.56 94.78 C 57.56 93.94 56.88 93.26 56.04 93.26 C 55.20 93.26 54.53 93.94 54.53 94.78 Z M 54.53 95.80 L 54.54 96.80 C 54.56 97.63 55.25 98.30 56.09 98.29 C 56.93 98.27 57.60 97.58 57.58 96.74 L 57.56 95.75 C 57.55 94.91 56.85 94.24 56.02 94.26 C 55.18 94.27 54.51 94.96 54.53 95.80 Z M 54.55 96.86 L 54.61 97.87 C 54.66 98.71 55.38 99.34 56.22 99.29 C 57.06 99.24 57.69 98.51 57.64 97.68 L 57.58 96.67 C 57.53 95.84 56.80 95.20 55.97 95.25 C 55.13 95.31 54.49 96.03 54.55 96.86 Z M 54.62 97.95 L 54.73 98.91 C 54.83 99.74 55.58 100.34 56.42 100.24 C 57.25 100.14 57.85 99.38 57.75 98.55 L 57.63 97.59 C 57.54 96.76 56.78 96.17 55.95 96.26 C 55.11 96.36 54.52 97.12 54.62 97.95 Z M 54.74 98.97 L 54.90 99.98 C 55.04 100.81 55.82 101.37 56.65 101.24 C 57.48 101.10 58.04 100.32 57.90 99.50 L 57.74 98.49 C 57.60 97.66 56.82 97.09 56.00 97.23 C 55.17 97.36 54.60 98.14 54.74 98.97 Z M 54.91 100.03 L 55.11 101.03 C 55.27 101.85 56.06 102.39 56.89 102.23 C 57.71 102.07 58.25 101.27 58.09 100.45 L 57.90 99.45 C 57.74 98.62 56.94 98.09 56.11 98.25 C 55.29 98.41 54.75 99.21 54.91 100.03 Z M 55.11 101.07 L 55.33 102.05 C 55.51 102.87 56.33 103.39 57.15 103.20 C 57.97 103.02 58.48 102.21 58.30 101.39 L 58.08 100.41 C 57.90 99.59 57.09 99.07 56.27 99.25 C 55.45 99.43 54.93 100.25 55.11 101.07 Z M 55.34 102.09 L 55.59 103.07 C 55.80 103.89 56.62 104.38 57.44 104.17 C 58.25 103.97 58.74 103.14 58.54 102.32 L 58.29 101.35 C 58.08 100.53 57.26 100.04 56.44 100.25 C 55.63 100.45 55.14 101.28 55.34 102.09 Z M 55.60 103.13 L 55.89 104.10 C 56.13 104.91 56.97 105.37 57.78 105.13 C 58.59 104.90 59.05 104.05 58.81 103.24 L 58.52 102.27 C 58.29 101.46 57.44 101.00 56.63 101.24 C 55.83 101.48 55.37 102.32 55.60 103.13 Z M 55.91 104.16 L 56.23 105.11 C 56.50 105.90 57.36 106.33 58.16 106.06 C 58.95 105.79 59.38 104.93 59.11 104.13 L 58.79 103.19 C 58.52 102.39 57.66 101.96 56.86 102.23 C 56.07 102.50 55.64 103.37 55.91 104.16 Z M 56.25 105.16 L 56.59 106.07 C 56.89 106.86 57.76 107.26 58.55 106.97 C 59.34 106.67 59.74 105.79 59.44 105.01 L 59.10 104.09 C 58.80 103.30 57.92 102.90 57.14 103.20 C 56.35 103.49 55.95 104.37 56.25 105.16 Z M 56.60 106.11 L 56.98 107.04 C 57.29 107.82 58.18 108.19 58.96 107.88 C 59.74 107.57 60.11 106.68 59.80 105.90 L 59.43 104.97 C 59.11 104.19 58.23 103.82 57.45 104.13 C 56.67 104.44 56.29 105.33 56.60 106.11 Z M 56.99 107.07 L 57.39 107.99 C 57.72 108.76 58.62 109.12 59.39 108.78 C 60.16 108.45 60.52 107.55 60.18 106.78 L 59.78 105.86 C 59.45 105.09 58.55 104.74 57.78 105.07 C 57.01 105.41 56.66 106.30 56.99 107.07 Z M 57.41 108.04 L 57.84 108.94 C 58.20 109.70 59.11 110.02 59.87 109.66 C 60.63 109.30 60.95 108.39 60.59 107.64 L 60.16 106.73 C 59.80 105.98 58.89 105.65 58.13 106.01 C 57.37 106.37 57.05 107.28 57.41 108.04 Z M 57.87 109.00 L 58.34 109.89 C 58.73 110.63 59.65 110.92 60.40 110.53 C 61.14 110.13 61.42 109.21 61.03 108.47 L 60.56 107.58 C 60.17 106.83 59.25 106.55 58.50 106.94 C 57.76 107.34 57.48 108.26 57.87 109.00 Z M 58.37 109.95 L 58.88 110.81 C 59.30 111.53 60.24 111.78 60.96 111.35 C 61.69 110.93 61.93 109.99 61.50 109.27 L 61.00 108.41 C 60.57 107.69 59.64 107.44 58.92 107.87 C 58.19 108.29 57.95 109.23 58.37 109.95 Z M 58.91 110.87 L 59.46 111.71 C 59.92 112.42 60.86 112.62 61.57 112.16 C 62.27 111.70 62.47 110.76 62.01 110.05 L 61.47 109.21 C 61.01 108.51 60.07 108.31 59.36 108.76 C 58.66 109.22 58.46 110.16 58.91 110.87 Z M 59.50 111.77 L 60.09 112.59 C 60.58 113.27 61.53 113.43 62.22 112.94 C 62.90 112.44 63.05 111.49 62.56 110.81 L 61.97 109.99 C 61.48 109.31 60.53 109.15 59.85 109.65 C 59.16 110.14 59.01 111.09 59.50 111.77 Z M 60.14 112.66 L 60.76 113.42 C 61.29 114.08 62.25 114.18 62.90 113.65 C 63.56 113.12 63.66 112.16 63.13 111.51 L 62.51 110.74 C 61.98 110.09 61.02 109.99 60.37 110.52 C 59.72 111.04 59.61 112.00 60.14 112.66 Z M 60.82 113.50 L 61.50 114.23 C 62.07 114.85 63.03 114.89 63.65 114.32 C 64.27 113.75 64.31 112.79 63.74 112.17 L 63.07 111.43 C 62.50 110.81 61.53 110.77 60.91 111.34 C 60.29 111.91 60.25 112.88 60.82 113.50 Z M 61.57 114.31 L 62.29 114.99 C 62.90 115.57 63.87 115.55 64.45 114.94 C 65.03 114.33 65.01 113.36 64.39 112.78 L 63.67 112.09 C 63.06 111.51 62.09 111.53 61.51 112.15 C 60.93 112.76 60.96 113.73 61.57 114.31 Z M 62.35 115.06 L 63.13 115.71 C 63.77 116.25 64.74 116.17 65.29 115.52 C 65.83 114.87 65.75 113.90 65.10 113.36 L 64.33 112.71 C 63.68 112.17 62.71 112.25 62.17 112.90 C 61.62 113.55 61.71 114.51 62.35 115.06 Z M 63.20 115.77 L 64.01 116.37 C 64.69 116.88 65.65 116.73 66.16 116.05 C 66.66 115.37 66.52 114.41 65.84 113.90 L 65.03 113.30 C 64.35 112.79 63.38 112.94 62.88 113.62 C 62.37 114.30 62.51 115.26 63.20 115.77 Z M 64.11 116.44 L 64.94 116.96 C 65.66 117.42 66.61 117.20 67.07 116.48 C 67.52 115.76 67.30 114.81 66.58 114.35 L 65.74 113.83 C 65.02 113.38 64.07 113.60 63.62 114.32 C 63.17 115.04 63.39 115.99 64.11 116.44 Z M 65.09 117.05 L 66.01 117.50 C 66.78 117.87 67.71 117.55 68.08 116.78 C 68.45 116.01 68.13 115.09 67.36 114.72 L 66.43 114.27 C 65.67 113.90 64.74 114.22 64.37 114.99 C 64.00 115.75 64.32 116.68 65.09 117.05 Z M 66.18 117.57 L 67.10 117.89 C 67.91 118.17 68.79 117.74 69.07 116.94 C 69.35 116.13 68.92 115.25 68.12 114.97 L 67.20 114.65 C 66.39 114.37 65.51 114.79 65.23 115.60 C 64.95 116.41 65.37 117.29 66.18 117.57 Z M 67.26 117.94 L 68.23 118.16 C 69.06 118.36 69.90 117.84 70.09 117.00 C 70.28 116.17 69.76 115.34 68.93 115.14 L 67.96 114.92 C 67.12 114.73 66.29 115.25 66.10 116.08 C 65.90 116.91 66.42 117.75 67.26 117.94 Z M 68.36 118.19 L 69.35 118.33 C 70.20 118.44 70.98 117.85 71.10 117.01 C 71.22 116.16 70.63 115.37 69.78 115.25 L 68.79 115.12 C 67.94 115.00 67.16 115.59 67.04 116.44 C 66.92 117.29 67.52 118.07 68.36 118.19 Z M 69.44 118.34 L 70.43 118.42 C 71.28 118.48 72.03 117.85 72.10 116.99 C 72.17 116.14 71.53 115.39 70.68 115.32 L 69.69 115.24 C 68.83 115.18 68.09 115.81 68.02 116.67 C 67.95 117.52 68.59 118.27 69.44 118.34 Z M 70.49 118.42 L 71.49 118.46 C 72.35 118.50 73.07 117.83 73.11 116.97 C 73.14 116.12 72.48 115.39 71.62 115.36 L 70.61 115.32 C 69.76 115.28 69.03 115.95 69.00 116.81 C 68.97 117.66 69.63 118.39 70.49 118.42 Z M 71.53 118.46 L 72.52 118.48 C 73.38 118.49 74.09 117.80 74.10 116.95 C 74.11 116.09 73.43 115.38 72.57 115.37 L 71.58 115.36 C 70.72 115.34 70.01 116.03 70.00 116.89 C 69.99 117.75 70.67 118.45 71.53 118.46 Z M 72.59 118.48 L 73.59 118.45 C 74.45 118.43 75.13 117.72 75.10 116.86 C 75.08 116.00 74.37 115.32 73.51 115.34 L 72.51 115.37 C 71.65 115.39 70.97 116.10 70.99 116.96 C 71.01 117.82 71.73 118.50 72.59 118.48 Z M 73.69 118.45 L 74.67 118.36 C 75.52 118.28 76.16 117.53 76.08 116.67 C 76.00 115.82 75.25 115.19 74.39 115.26 L 73.41 115.35 C 72.56 115.43 71.92 116.18 72.00 117.04 C 72.08 117.89 72.83 118.52 73.69 118.45 Z M 74.79 118.34 L 75.77 118.18 C 76.61 118.03 77.18 117.23 77.04 116.38 C 76.89 115.54 76.09 114.97 75.25 115.11 L 74.27 115.28 C 73.43 115.42 72.86 116.23 73.00 117.07 C 73.14 117.92 73.95 118.49 74.79 118.34 Z M 75.91 118.14 L 76.90 117.88 C 77.72 117.66 78.21 116.81 77.99 115.98 C 77.77 115.15 76.92 114.66 76.10 114.88 L 75.11 115.15 C 74.28 115.37 73.79 116.22 74.01 117.04 C 74.23 117.87 75.08 118.36 75.91 118.14 Z M 77.03 117.83 L 77.95 117.50 C 78.75 117.20 79.17 116.31 78.87 115.51 C 78.58 114.71 77.69 114.30 76.89 114.59 L 75.97 114.93 C 75.16 115.22 74.75 116.11 75.05 116.91 C 75.34 117.71 76.23 118.13 77.03 117.83 Z M 78.06 117.45 L 78.98 117.03 C 79.76 116.67 80.10 115.76 79.75 114.98 C 79.39 114.21 78.48 113.86 77.70 114.22 L 76.78 114.64 C 76.00 114.99 75.66 115.91 76.02 116.68 C 76.37 117.46 77.29 117.80 78.06 117.45 Z M 79.09 116.97 L 79.96 116.49 C 80.71 116.08 80.98 115.14 80.57 114.40 C 80.16 113.65 79.22 113.38 78.48 113.79 L 77.60 114.27 C 76.86 114.68 76.58 115.62 76.99 116.36 C 77.40 117.11 78.34 117.38 79.09 116.97 Z M 80.05 116.43 L 80.88 115.90 C 81.60 115.44 81.80 114.48 81.34 113.77 C 80.88 113.06 79.93 112.85 79.21 113.31 L 78.39 113.85 C 77.67 114.31 77.47 115.26 77.93 115.97 C 78.39 116.69 79.34 116.89 80.05 116.43 Z M 80.96 115.84 L 81.78 115.24 C 82.46 114.74 82.61 113.78 82.10 113.09 C 81.60 112.41 80.64 112.26 79.95 112.77 L 79.14 113.37 C 78.45 113.87 78.31 114.83 78.81 115.52 C 79.31 116.20 80.28 116.35 80.96 115.84 Z M 81.83 115.20 L 82.59 114.58 C 83.25 114.05 83.35 113.08 82.82 112.42 C 82.28 111.76 81.31 111.66 80.66 112.20 L 79.90 112.81 C 79.24 113.35 79.14 114.31 79.67 114.97 C 80.21 115.63 81.17 115.73 81.83 115.20 Z M 82.63 114.54 L 83.38 113.89 C 84.02 113.34 84.08 112.37 83.52 111.73 C 82.97 111.09 82.00 111.03 81.36 111.58 L 80.61 112.23 C 79.98 112.79 79.91 113.76 80.47 114.40 C 81.03 115.04 81.99 115.10 82.63 114.54 Z M 83.41 113.86 L 84.16 113.17 C 84.78 112.59 84.82 111.62 84.24 111.00 C 83.67 110.38 82.70 110.34 82.08 110.92 L 81.33 111.61 C 80.71 112.19 80.67 113.16 81.24 113.78 C 81.82 114.40 82.79 114.44 83.41 113.86 Z M 84.19 113.14 L 84.90 112.45 C 85.51 111.86 85.52 110.89 84.93 110.28 C 84.34 109.67 83.37 109.66 82.77 110.25 L 82.05 110.94 C 81.45 111.53 81.43 112.50 82.02 113.11 C 82.61 113.72 83.58 113.73 84.19 113.14 Z M 84.92 112.42 L 85.62 111.72 C 86.21 111.12 86.21 110.15 85.61 109.56 C 85.01 108.96 84.04 108.97 83.44 109.57 L 82.75 110.27 C 82.15 110.87 82.16 111.84 82.76 112.44 C 83.36 113.03 84.33 113.02 84.92 112.42 Z M 85.64 111.70 L 86.33 110.97 C 86.92 110.36 86.89 109.39 86.28 108.81 C 85.67 108.22 84.70 108.25 84.12 108.86 L 83.42 109.59 C 82.84 110.20 82.86 111.17 83.47 111.75 C 84.09 112.34 85.05 112.31 85.64 111.70 Z M 86.35 110.95 L 87.04 110.20 C 87.61 109.58 87.57 108.61 86.95 108.04 C 86.33 107.47 85.36 107.51 84.79 108.13 L 84.10 108.88 C 83.53 109.50 83.57 110.47 84.19 111.04 C 84.81 111.61 85.78 111.57 86.35 110.95 Z M 87.06 110.18 L 87.71 109.44 C 88.27 108.81 88.22 107.84 87.59 107.28 C 86.95 106.72 85.99 106.78 85.43 107.41 L 84.77 108.15 C 84.21 108.78 84.27 109.75 84.90 110.31 C 85.53 110.87 86.50 110.81 87.06 110.18 Z M 87.73 109.42 L 88.38 108.66 C 88.93 108.02 88.86 107.06 88.22 106.51 C 87.58 105.96 86.61 106.03 86.06 106.67 L 85.41 107.43 C 84.86 108.07 84.93 109.04 85.58 109.59 C 86.22 110.14 87.18 110.06 87.73 109.42 Z M 88.40 108.64 L 89.05 107.86 C 89.59 107.21 89.49 106.25 88.84 105.71 C 88.19 105.17 87.23 105.26 86.69 105.91 L 86.04 106.69 C 85.50 107.34 85.60 108.31 86.25 108.85 C 86.90 109.39 87.86 109.29 88.40 108.64 Z M 89.07 107.84 L 89.69 107.06 C 90.21 106.40 90.10 105.43 89.44 104.91 C 88.78 104.38 87.82 104.49 87.29 105.15 L 86.67 105.93 C 86.14 106.60 86.25 107.56 86.91 108.09 C 87.57 108.61 88.54 108.50 89.07 107.84 Z M 89.70 107.04 L 90.31 106.26 C 90.82 105.59 90.70 104.62 90.03 104.11 C 89.36 103.59 88.40 103.72 87.88 104.39 L 87.27 105.17 C 86.76 105.84 86.88 106.80 87.55 107.32 C 88.22 107.84 89.18 107.71 89.70 107.04 Z M 90.32 106.24 L 90.92 105.45 C 91.43 104.77 91.30 103.81 90.62 103.30 C 89.94 102.79 88.98 102.92 88.47 103.60 L 87.87 104.40 C 87.36 105.07 87.49 106.03 88.17 106.54 C 88.84 107.05 89.81 106.92 90.32 106.24 Z M 90.92 105.44 L 91.53 104.63 C 92.04 103.95 91.90 102.99 91.22 102.48 C 90.54 101.98 89.58 102.11 89.08 102.79 L 88.47 103.60 C 87.96 104.28 88.10 105.24 88.78 105.75 C 89.46 106.26 90.42 106.12 90.92 105.44 Z M 91.53 104.63 L 92.15 103.81 C 92.65 103.13 92.52 102.17 91.84 101.66 C 91.16 101.15 90.20 101.29 89.69 101.97 L 89.08 102.79 C 88.57 103.47 88.71 104.43 89.38 104.94 C 90.06 105.45 91.02 105.31 91.53 104.63 Z M 92.15 103.80 L 92.76 102.98 C 93.27 102.30 93.12 101.34 92.44 100.83 C 91.76 100.33 90.80 100.47 90.30 101.15 L 89.69 101.98 C 89.18 102.66 89.32 103.62 90.01 104.12 C 90.69 104.63 91.65 104.48 92.15 103.80 Z M 92.77 102.96 L 93.36 102.16 C 93.85 101.47 93.70 100.51 93.01 100.01 C 92.32 99.52 91.36 99.67 90.87 100.36 L 90.28 101.17 C 89.79 101.86 89.94 102.82 90.63 103.31 C 91.32 103.81 92.28 103.65 92.77 102.96 Z M 93.38 102.13 L 93.92 101.33 C 94.40 100.63 94.22 99.67 93.52 99.19 C 92.82 98.71 91.87 98.89 91.39 99.59 L 90.84 100.39 C 90.36 101.09 90.54 102.05 91.24 102.53 C 91.94 103.01 92.90 102.83 93.38 102.13 Z M 93.96 101.28 L 94.52 100.38 C 94.98 99.66 94.76 98.71 94.04 98.26 C 93.33 97.81 92.38 98.02 91.92 98.74 L 91.35 99.64 C 90.90 100.36 91.12 101.31 91.84 101.76 C 92.55 102.22 93.50 102.00 93.96 101.28 Z M 94.56 100.33 L 95.05 99.47 C 95.48 98.74 95.22 97.79 94.49 97.37 C 93.75 96.95 92.81 97.20 92.39 97.93 L 91.89 98.79 C 91.47 99.53 91.72 100.47 92.46 100.90 C 93.19 101.32 94.13 101.07 94.56 100.33 Z M 95.08 99.43 L 95.52 98.60 C 95.92 97.85 95.64 96.92 94.89 96.52 C 94.13 96.12 93.20 96.40 92.80 97.15 L 92.36 97.98 C 91.96 98.73 92.24 99.66 92.99 100.06 C 93.74 100.46 94.68 100.18 95.08 99.43 Z M 95.54 98.56 L 96.00 97.64 C 96.38 96.87 96.07 95.95 95.31 95.57 C 94.55 95.19 93.63 95.50 93.25 96.26 L 92.78 97.19 C 92.40 97.95 92.71 98.87 93.47 99.25 C 94.23 99.63 95.16 99.33 95.54 98.56 Z M 96.02 97.60 L 96.44 96.69 C 96.80 95.92 96.47 95.00 95.69 94.64 C 94.92 94.28 94.00 94.62 93.64 95.39 L 93.22 96.30 C 92.87 97.07 93.20 97.99 93.97 98.35 C 94.75 98.71 95.66 98.37 96.02 97.60 Z M 96.47 96.65 L 96.85 95.74 C 97.18 94.96 96.82 94.05 96.03 93.72 C 95.25 93.38 94.34 93.75 94.01 94.54 L 93.62 95.44 C 93.29 96.22 93.65 97.13 94.44 97.46 C 95.22 97.80 96.13 97.43 96.47 96.65 Z M 96.88 95.68 L 97.23 94.72 C 97.53 93.92 97.13 93.03 96.33 92.73 C 95.53 92.43 94.64 92.84 94.34 93.64 L 93.98 94.60 C 93.68 95.40 94.09 96.29 94.89 96.59 C 95.69 96.89 96.58 96.48 96.88 95.68 Z M 97.27 94.63 L 97.54 93.71 C 97.79 92.90 97.33 92.03 96.52 91.78 C 95.70 91.54 94.84 92.00 94.59 92.81 L 94.31 93.73 C 94.06 94.55 94.52 95.41 95.34 95.66 C 96.15 95.91 97.02 95.45 97.27 94.63 Z M 97.58 93.59 L 97.79 92.58 C 97.98 91.75 97.45 90.93 96.61 90.75 C 95.78 90.57 94.95 91.10 94.77 91.93 L 94.56 92.93 C 94.38 93.77 94.91 94.59 95.74 94.77 C 96.57 94.95 97.40 94.42 97.58 93.59 Z M 97.82 92.45 L 97.94 91.49 C 98.05 90.64 97.45 89.87 96.60 89.76 C 95.76 89.65 94.98 90.25 94.87 91.10 L 94.75 92.06 C 94.64 92.91 95.24 93.68 96.09 93.79 C 96.93 93.90 97.71 93.30 97.82 92.45 Z M 97.95 91.37 L 98.00 90.37 C 98.05 89.52 97.39 88.79 96.54 88.75 C 95.68 88.71 94.96 89.36 94.91 90.22 L 94.86 91.22 C 94.82 92.07 95.48 92.79 96.33 92.84 C 97.18 92.88 97.91 92.22 97.95 91.37 Z M 98.00 90.30 L 98.01 89.31 C 98.01 88.45 97.33 87.76 96.47 87.75 C 95.62 87.75 94.93 88.44 94.92 89.29 L 94.91 90.28 C 94.91 91.14 95.60 91.83 96.45 91.84 C 97.30 91.84 98.00 91.16 98.00 90.30 Z M 98.01 89.26 L 97.98 88.25 C 97.96 87.40 97.26 86.72 96.40 86.74 C 95.55 86.76 94.88 87.47 94.90 88.32 L 94.92 89.34 C 94.94 90.19 95.65 90.86 96.50 90.84 C 97.35 90.82 98.03 90.11 98.01 89.26 Z M 97.97 88.05 L 97.82 87.08 C 97.69 86.24 96.90 85.66 96.06 85.79 C 95.22 85.92 94.64 86.71 94.77 87.55 L 94.91 88.52 C 95.04 89.36 95.83 89.94 96.67 89.81 C 97.52 89.68 98.09 88.90 97.97 88.05 Z M 97.74 86.77 L 97.39 85.85 C 97.09 85.05 96.20 84.65 95.40 84.95 C 94.60 85.25 94.20 86.14 94.50 86.94 L 94.85 87.86 C 95.15 88.66 96.04 89.06 96.84 88.76 C 97.63 88.46 98.04 87.57 97.74 86.77 Z M 97.31 85.67 L 96.85 84.80 C 96.45 84.05 95.51 83.76 94.76 84.16 C 94.01 84.56 93.72 85.49 94.12 86.25 L 94.58 87.12 C 94.98 87.87 95.91 88.16 96.67 87.76 C 97.42 87.36 97.71 86.43 97.31 85.67 Z M 96.81 84.73 L 96.30 83.87 C 95.86 83.14 94.91 82.90 94.18 83.34 C 93.45 83.78 93.21 84.73 93.65 85.46 L 94.16 86.32 C 94.60 87.05 95.54 87.29 96.28 86.85 C 97.01 86.41 97.25 85.46 96.81 84.73 Z M 96.27 83.83 L 95.73 82.98 C 95.27 82.26 94.31 82.05 93.60 82.51 C 92.88 82.97 92.67 83.93 93.12 84.65 L 93.67 85.50 C 94.13 86.22 95.08 86.43 95.80 85.97 C 96.52 85.51 96.73 84.55 96.27 83.83 Z M 95.72 82.96 L 95.17 82.14 C 94.70 81.43 93.74 81.23 93.03 81.70 C 92.32 82.17 92.12 83.13 92.59 83.84 L 93.14 84.67 C 93.61 85.38 94.57 85.57 95.28 85.10 C 95.99 84.63 96.19 83.67 95.72 82.96 Z M 95.17 82.13 L 94.60 81.28 C 94.12 80.57 93.16 80.38 92.45 80.85 C 91.74 81.32 91.55 82.28 92.03 82.99 L 92.60 83.85 C 93.07 84.56 94.03 84.75 94.74 84.28 C 95.45 83.80 95.64 82.84 95.17 82.13 Z M 94.60 81.28 L 94.07 80.48 C 93.60 79.77 92.64 79.57 91.93 80.05 C 91.21 80.52 91.02 81.48 91.49 82.19 L 92.02 82.99 C 92.50 83.70 93.45 83.90 94.17 83.42 C 94.88 82.95 95.07 81.99 94.60 81.28 Z M 94.07 80.48 L 93.51 79.64 C 93.04 78.92 92.08 78.73 91.37 79.20 C 90.66 79.67 90.46 80.63 90.93 81.34 L 91.49 82.19 C 91.96 82.90 92.92 83.10 93.63 82.63 C 94.35 82.15 94.54 81.19 94.07 80.48 Z M 93.51 79.63 L 92.95 78.78 C 92.48 78.06 91.51 77.87 90.80 78.34 C 90.09 78.81 89.89 79.77 90.36 80.49 L 90.93 81.34 C 91.40 82.06 92.36 82.25 93.08 81.78 C 93.79 81.31 93.99 80.35 93.51 79.63 Z M 92.94 78.77 L 92.38 77.93 C 91.91 77.22 90.94 77.03 90.23 77.51 C 89.52 77.99 89.33 78.95 89.81 79.66 L 90.37 80.50 C 90.85 81.21 91.81 81.40 92.52 80.92 C 93.23 80.44 93.42 79.48 92.94 78.77 Z M 92.37 77.91 L 91.79 77.09 C 91.30 76.38 90.34 76.21 89.63 76.70 C 88.93 77.19 88.76 78.16 89.25 78.86 L 89.82 79.68 C 90.31 80.39 91.28 80.56 91.98 80.07 C 92.68 79.58 92.86 78.61 92.37 77.91 Z M 91.76 77.05 L 91.16 76.23 C 90.65 75.55 89.68 75.41 88.99 75.92 C 88.30 76.43 88.16 77.40 88.67 78.09 L 89.28 78.90 C 89.79 79.58 90.76 79.73 91.45 79.21 C 92.13 78.70 92.27 77.73 91.76 77.05 Z M 91.12 76.18 L 90.49 75.40 C 89.95 74.74 88.97 74.64 88.31 75.18 C 87.64 75.71 87.54 76.69 88.08 77.36 L 88.71 78.14 C 89.25 78.80 90.23 78.90 90.89 78.36 C 91.56 77.83 91.66 76.85 91.12 76.18 Z M 90.45 75.36 L 89.80 74.62 C 89.24 73.98 88.26 73.91 87.61 74.48 C 86.97 75.04 86.91 76.02 87.47 76.67 L 88.12 77.40 C 88.68 78.05 89.66 78.11 90.30 77.54 C 90.95 76.98 91.01 76.00 90.45 75.36 Z M 89.76 74.58 L 89.08 73.85 C 88.49 73.22 87.51 73.19 86.88 73.78 C 86.26 74.37 86.23 75.35 86.82 75.97 L 87.51 76.71 C 88.09 77.33 89.07 77.36 89.70 76.77 C 90.32 76.19 90.35 75.20 89.76 74.58 Z M 89.03 73.81 L 88.32 73.10 C 87.71 72.50 86.73 72.51 86.13 73.12 C 85.53 73.73 85.53 74.71 86.14 75.31 L 86.86 76.01 C 87.47 76.62 88.45 76.61 89.05 76.00 C 89.65 75.39 89.64 74.41 89.03 73.81 Z M 88.27 73.05 L 87.53 72.39 C 86.89 71.82 85.91 71.87 85.34 72.50 C 84.77 73.14 84.82 74.12 85.46 74.69 L 86.20 75.36 C 86.83 75.93 87.81 75.88 88.39 75.24 C 88.96 74.61 88.91 73.63 88.27 73.05 Z M 87.46 72.33 L 86.67 71.70 C 86.00 71.16 85.03 71.27 84.49 71.93 C 83.96 72.60 84.06 73.58 84.73 74.11 L 85.52 74.75 C 86.19 75.29 87.17 75.18 87.70 74.51 C 88.24 73.85 88.13 72.87 87.46 72.33 Z M 86.59 71.64 L 85.79 71.07 C 85.08 70.58 84.12 70.75 83.63 71.45 C 83.14 72.15 83.31 73.12 84.01 73.61 L 84.81 74.17 C 85.51 74.67 86.48 74.49 86.97 73.79 C 87.46 73.09 87.29 72.13 86.59 71.64 Z M 85.68 71.01 L 84.82 70.50 C 84.08 70.06 83.13 70.31 82.70 71.05 C 82.26 71.78 82.51 72.73 83.25 73.17 L 84.11 73.68 C 84.85 74.11 85.80 73.87 86.23 73.13 C 86.67 72.39 86.42 71.44 85.68 71.01 Z M 84.70 70.43 L 83.80 70.01 C 83.03 69.64 82.10 69.97 81.73 70.74 C 81.37 71.52 81.70 72.44 82.47 72.81 L 83.37 73.23 C 84.14 73.60 85.07 73.27 85.44 72.50 C 85.80 71.72 85.47 70.80 84.70 70.43 Z M 83.66 69.95 L 82.74 69.62 C 81.93 69.33 81.04 69.74 80.75 70.55 C 80.46 71.36 80.88 72.24 81.69 72.53 L 82.61 72.87 C 83.42 73.16 84.30 72.74 84.59 71.93 C 84.89 71.13 84.47 70.24 83.66 69.95 Z M 82.59 69.57 L 81.63 69.33 C 80.80 69.12 79.96 69.62 79.75 70.45 C 79.54 71.28 80.04 72.12 80.87 72.33 L 81.83 72.58 C 82.66 72.79 83.51 72.29 83.72 71.46 C 83.93 70.63 83.42 69.78 82.59 69.57 Z M 81.49 69.30 L 80.48 69.14 C 79.64 69.01 78.84 69.59 78.71 70.44 C 78.58 71.29 79.16 72.08 80.01 72.21 L 81.01 72.36 C 81.86 72.49 82.65 71.91 82.78 71.07 C 82.91 70.22 82.33 69.43 81.49 69.30 Z M 80.36 69.13 L 79.37 69.06 C 78.51 69.00 77.77 69.64 77.71 70.49 C 77.65 71.35 78.29 72.09 79.14 72.15 L 80.13 72.22 C 80.99 72.29 81.73 71.64 81.79 70.79 C 81.86 69.93 81.21 69.19 80.36 69.13 Z M 79.28 69.05 L 78.27 69.04 C 77.41 69.02 76.71 69.71 76.69 70.56 C 76.68 71.42 77.36 72.13 78.22 72.14 L 79.23 72.16 C 80.09 72.17 80.79 71.49 80.81 70.63 C 80.82 69.77 80.14 69.07 79.28 69.05 Z M 78.20 69.04 L 77.21 69.06 C 76.36 69.08 75.68 69.80 75.70 70.65 C 75.73 71.51 76.44 72.19 77.30 72.17 L 78.29 72.14 C 79.14 72.12 79.82 71.41 79.80 70.55 C 79.77 69.69 79.06 69.01 78.20 69.04 Z M 77.10 69.07 L 76.12 69.17 C 75.26 69.26 74.64 70.02 74.73 70.87 C 74.82 71.73 75.58 72.35 76.43 72.26 L 77.41 72.16 C 78.27 72.07 78.89 71.31 78.80 70.46 C 78.71 69.60 77.95 68.98 77.10 69.07 Z M 75.92 69.20 L 74.94 69.43 C 74.10 69.63 73.58 70.46 73.78 71.30 C 73.97 72.13 74.81 72.65 75.64 72.46 L 76.63 72.23 C 77.46 72.03 77.98 71.20 77.79 70.36 C 77.59 69.53 76.75 69.01 75.92 69.20 Z M 74.74 69.49 L 73.86 69.83 C 73.06 70.13 72.66 71.03 72.96 71.83 C 73.27 72.63 74.16 73.03 74.96 72.73 L 75.84 72.40 C 76.64 72.09 77.05 71.20 76.74 70.40 C 76.44 69.59 75.54 69.19 74.74 69.49 Z M 73.74 69.88 L 72.83 70.32 C 72.06 70.70 71.74 71.62 72.11 72.40 C 72.48 73.17 73.41 73.49 74.18 73.11 L 75.09 72.67 C 75.86 72.30 76.18 71.37 75.81 70.60 C 75.44 69.83 74.51 69.51 73.74 69.88 Z M 72.75 70.37 L 71.82 70.88 C 71.07 71.30 70.81 72.25 71.23 73.00 C 71.65 73.74 72.59 74.01 73.34 73.59 L 74.27 73.07 C 75.01 72.65 75.28 71.71 74.86 70.96 C 74.44 70.21 73.49 69.95 72.75 70.37 Z M 71.77 70.92 L 70.96 71.41 C 70.23 71.86 70.00 72.81 70.45 73.54 C 70.89 74.28 71.85 74.50 72.58 74.06 L 73.39 73.56 C 74.12 73.11 74.35 72.16 73.90 71.43 C 73.46 70.70 72.50 70.47 71.77 70.92 Z M 70.92 71.44 L 70.09 71.98 C 69.38 72.45 69.18 73.42 69.65 74.13 C 70.12 74.84 71.08 75.04 71.79 74.57 L 72.62 74.03 C 73.34 73.56 73.53 72.60 73.06 71.88 C 72.59 71.17 71.63 70.97 70.92 71.44 Z M 70.05 72.01 L 69.21 72.61 C 68.51 73.10 68.34 74.06 68.83 74.76 C 69.32 75.46 70.29 75.63 70.99 75.14 L 71.83 74.55 C 72.53 74.05 72.70 73.09 72.21 72.39 C 71.72 71.69 70.75 71.52 70.05 72.01 Z M 69.17 72.63 L 68.36 73.24 C 67.68 73.75 67.54 74.72 68.05 75.40 C 68.56 76.09 69.53 76.22 70.22 75.71 L 71.02 75.11 C 71.71 74.60 71.85 73.63 71.34 72.95 C 70.82 72.26 69.86 72.12 69.17 72.63 Z M 68.33 73.26 L 67.57 73.87 C 66.90 74.39 66.78 75.37 67.31 76.03 C 67.84 76.70 68.81 76.82 69.48 76.29 L 70.25 75.69 C 70.91 75.16 71.03 74.19 70.50 73.52 C 69.97 72.85 69.00 72.74 68.33 73.26 Z M 67.55 73.89 L 66.77 74.52 C 66.11 75.06 66.02 76.03 66.56 76.69 C 67.10 77.35 68.07 77.45 68.73 76.91 L 69.50 76.27 C 70.16 75.73 70.26 74.76 69.72 74.10 C 69.18 73.44 68.20 73.35 67.55 73.89 Z M 66.76 74.54 L 65.97 75.20 C 65.33 75.75 65.24 76.72 65.79 77.37 C 66.34 78.02 67.31 78.10 67.96 77.55 L 68.74 76.89 C 69.39 76.34 69.47 75.37 68.92 74.72 C 68.38 74.07 67.40 73.99 66.76 74.54 Z M 65.96 75.21 L 65.20 75.88 C 64.56 76.43 64.49 77.40 65.04 78.04 C 65.60 78.69 66.57 78.75 67.21 78.20 L 67.98 77.54 C 68.62 76.98 68.69 76.01 68.13 75.37 C 67.57 74.73 66.60 74.66 65.96 75.21 Z M 65.19 75.89 L 64.45 76.54 C 63.82 77.10 63.76 78.07 64.32 78.70 C 64.88 79.34 65.85 79.40 66.48 78.84 L 67.22 78.19 C 67.86 77.63 67.92 76.66 67.36 76.02 C 66.79 75.39 65.82 75.33 65.19 75.89 Z M 64.44 76.55 L 63.70 77.21 C 63.07 77.78 63.02 78.75 63.59 79.38 C 64.15 80.01 65.12 80.06 65.75 79.49 L 66.49 78.83 C 67.12 78.26 67.17 77.29 66.61 76.66 C 66.04 76.03 65.07 75.98 64.44 76.55 Z M 63.70 77.23 L 62.95 77.91 C 62.33 78.48 62.28 79.44 62.85 80.07 C 63.42 80.69 64.39 80.73 65.01 80.16 L 65.76 79.48 C 66.38 78.91 66.43 77.95 65.86 77.32 C 65.29 76.70 64.32 76.66 63.70 77.23 Z M 62.94 77.92 L 62.19 78.61 C 61.58 79.19 61.54 80.15 62.11 80.77 C 62.69 81.39 63.66 81.42 64.27 80.85 L 65.02 80.15 C 65.64 79.58 65.67 78.61 65.10 78.00 C 64.53 77.38 63.56 77.34 62.94 77.92 Z M 62.18 78.63 L 61.44 79.33 C 60.83 79.91 60.80 80.88 61.38 81.49 C 61.96 82.10 62.92 82.12 63.53 81.54 L 64.28 80.84 C 64.89 80.26 64.92 79.30 64.34 78.68 C 63.76 78.07 62.80 78.05 62.18 78.63 Z M 61.43 79.35 L 60.69 80.06 C 60.09 80.64 60.07 81.60 60.66 82.21 C 61.24 82.81 62.21 82.83 62.81 82.24 L 63.54 81.53 C 64.15 80.95 64.16 79.98 63.58 79.38 C 63.00 78.78 62.03 78.76 61.43 79.35 Z M 60.68 80.07 L 59.97 80.78 C 59.37 81.37 59.37 82.33 59.96 82.93 C 60.55 83.52 61.52 83.53 62.11 82.93 L 62.82 82.23 C 63.42 81.64 63.42 80.67 62.83 80.08 C 62.24 79.48 61.28 79.48 60.68 80.07 Z M 59.95 80.80 L 59.28 81.50 C 58.70 82.10 58.71 83.06 59.31 83.64 C 59.91 84.22 60.87 84.21 61.45 83.61 L 62.13 82.91 C 62.71 82.31 62.70 81.35 62.10 80.77 C 61.50 80.19 60.54 80.20 59.95 80.80 Z M 59.26 81.52 L 58.55 82.29 C 57.98 82.90 58.02 83.86 58.63 84.43 C 59.25 84.99 60.20 84.96 60.77 84.34 L 61.48 83.58 C 62.04 82.97 62.01 82.01 61.39 81.44 C 60.78 80.87 59.82 80.91 59.26 81.52 Z M 58.52 82.32 L 57.84 83.10 C 57.29 83.73 57.36 84.69 57.99 85.24 C 58.62 85.78 59.57 85.72 60.12 85.09 L 60.80 84.31 C 61.35 83.68 61.28 82.72 60.65 82.18 C 60.02 81.63 59.07 81.69 58.52 82.32 Z M 57.81 83.14 L 57.20 83.90 C 56.67 84.54 56.76 85.49 57.41 86.02 C 58.05 86.54 59.00 86.45 59.53 85.80 L 60.15 85.05 C 60.67 84.41 60.58 83.46 59.93 82.93 C 59.29 82.40 58.34 82.50 57.81 83.14 Z M 57.17 83.93 L 56.60 84.67 C 56.10 85.33 56.22 86.28 56.88 86.78 C 57.54 87.29 58.49 87.17 58.99 86.51 L 59.56 85.77 C 60.06 85.11 59.94 84.16 59.28 83.66 C 58.62 83.15 57.68 83.27 57.17 83.93 Z M 56.58 84.71 L 55.97 85.56 C 55.48 86.23 55.63 87.17 56.31 87.66 C 56.98 88.14 57.92 87.99 58.41 87.32 L 59.02 86.47 C 59.50 85.79 59.35 84.85 58.68 84.37 C 58.00 83.88 57.06 84.04 56.58 84.71 Z M 55.94 85.60 L 55.38 86.43 C 54.92 87.11 55.10 88.05 55.79 88.51 C 56.48 88.98 57.41 88.79 57.87 88.11 L 58.43 87.28 C 58.90 86.59 58.71 85.65 58.03 85.19 C 57.34 84.73 56.40 84.91 55.94 85.60 Z M 55.36 86.46 L 54.85 87.27 C 54.41 87.97 54.61 88.90 55.31 89.34 C 56.01 89.78 56.94 89.58 57.39 88.88 L 57.90 88.07 C 58.34 87.37 58.13 86.44 57.43 86.00 C 56.73 85.55 55.80 85.76 55.36 86.46 Z M 54.83 87.30 L 54.30 88.18 C 53.88 88.89 54.11 89.81 54.82 90.24 C 55.53 90.66 56.45 90.43 56.88 89.72 L 57.40 88.84 C 57.83 88.13 57.60 87.21 56.89 86.78 C 56.18 86.36 55.26 86.59 54.83 87.30 Z M 54.29 88.20 L 53.79 89.06 C 53.38 89.78 53.63 90.70 54.35 91.11 C 55.07 91.53 55.98 91.28 56.40 90.56 L 56.89 89.70 C 57.31 88.98 57.06 88.06 56.34 87.65 C 55.62 87.23 54.70 87.48 54.29 88.20 Z M 53.79 89.07 L 53.43 89.70 C 53.02 90.42 53.28 91.34 54.00 91.75 C 54.72 92.16 55.64 91.90 56.05 91.18 L 56.41 90.55 C 56.81 89.83 56.56 88.91 55.84 88.50 C 55.11 88.09 54.19 88.34 53.79 89.07 Z"
      fill="black"
      fill-rule="nonzero" /></svg>