<svg xmlns="http://www.w3.org/2000/svg" width="300" height="300" viewBox="0 0 300 300">
<path d="M 90.37 100.50 L 90.00 99.59 C 89.70 98.83 88.83 98.46 88.07 98.77 C 87.31 99.07 86.94 99.94 87.25 100.70 L 87.61 101.61 C 87.92 102.37 88.78 102.74 89.54 102.43 C 90.30 102.13 90.67 101.26 90.37 100.50 Z M 89.99 99.56 L 89.60 98.64 C 89.28 97.89 88.40 97.54 87.64 97.86 C 86.89 98.18 86.54 99.06 86.86 99.82 L 87.26 100.73 C 87.58 101.49 88.46 101.84 89.21 101.51 C 89.97 101.19 90.32 100.31 89.99 99.56 Z M 89.58 98.57 L 89.13 97.64 C 88.76 96.90 87.87 96.59 87.12 96.95 C 86.38 97.31 86.07 98.21 86.43 98.95 L 86.89 99.88 C 87.25 100.63 88.14 100.94 88.89 100.58 C 89.63 100.21 89.94 99.32 89.58 98.57 Z M 89.10 97.55 L 88.47 96.44 C 88.05 95.71 87.13 95.46 86.40 95.88 C 85.67 96.29 85.42 97.22 85.83 97.95 L 86.46 99.05 C 86.88 99.78 87.80 100.03 88.53 99.62 C 89.26 99.20 89.51 98.27 89.10 97.55 Z M 88.43 96.32 L 87.93 95.59 C 87.45 94.88 86.48 94.70 85.77 95.18 C 85.06 95.67 84.88 96.63 85.37 97.34 L 85.87 98.07 C 86.35 98.78 87.32 98.96 88.03 98.48 C 88.73 97.99 88.92 97.02 88.43 96.32 Z M 85.19 95.84 L 85.10 96.06 C 84.76 96.86 85.13 97.79 85.94 98.13 C 86.74 98.48 87.67 98.10 88.02 97.30 L 88.11 97.08 C 88.45 96.28 88.07 95.35 87.27 95.01 C 86.46 94.66 85.53 95.04 85.19 95.84 Z M 85.06 97.25 L 85.48 98.36 C 85.79 99.19 86.72 99.61 87.55 99.29 C 88.38 98.98 88.80 98.05 88.48 97.22 L 88.06 96.11 C 87.75 95.28 86.82 94.86 85.99 95.17 C 85.16 95.49 84.74 96.42 85.06 97.25 Z M 85.49 98.42 L 85.87 99.32 C 86.21 100.14 87.16 100.53 87.99 100.18 C 88.81 99.84 89.20 98.89 88.85 98.06 L 88.47 97.16 C 88.13 96.34 87.18 95.95 86.35 96.30 C 85.53 96.64 85.14 97.59 85.49 98.42 Z M 85.85 99.30 L 86.22 100.21 C 86.55 101.04 87.50 101.44 88.33 101.11 C 89.16 100.78 89.57 99.83 89.23 99.00 L 88.87 98.09 C 88.53 97.26 87.59 96.85 86.76 97.19 C 85.93 97.52 85.52 98.46 85.85 99.30 Z M 86.20 100.17 L 86.55 101.10 C 86.86 101.94 87.80 102.37 88.64 102.06 C 89.48 101.74 89.91 100.81 89.59 99.97 L 89.25 99.04 C 88.94 98.20 88.00 97.77 87.16 98.08 C 86.32 98.40 85.89 99.33 86.20 100.17 Z M 86.54 101.07 L 86.89 102.06 C 87.19 102.91 88.12 103.35 88.96 103.05 C 89.81 102.76 90.25 101.83 89.95 100.98 L 89.60 99.99 C 89.31 99.14 88.38 98.70 87.53 99.00 C 86.68 99.30 86.24 100.23 86.54 101.07 Z M 86.88 102.05 L 87.20 102.96 C 87.49 103.81 88.41 104.27 89.26 103.98 C 90.11 103.69 90.56 102.76 90.27 101.91 L 89.96 101.00 C 89.67 100.15 88.75 99.69 87.90 99.98 C 87.05 100.27 86.59 101.20 86.88 102.05 Z M 87.19 102.96 L 87.51 103.91 C 87.80 104.77 88.72 105.22 89.58 104.94 C 90.43 104.65 90.89 103.73 90.60 102.88 L 90.28 101.92 C 89.99 101.07 89.07 100.61 88.21 100.90 C 87.36 101.18 86.91 102.11 87.19 102.96 Z M 87.51 103.92 L 87.84 104.87 C 88.13 105.72 89.05 106.18 89.90 105.89 C 90.75 105.61 91.21 104.68 90.92 103.83 L 90.60 102.87 C 90.31 102.02 89.39 101.56 88.54 101.85 C 87.68 102.14 87.23 103.06 87.51 103.92 Z M 87.84 104.88 L 88.16 105.81 C 88.45 106.66 89.37 107.11 90.22 106.82 C 91.07 106.53 91.53 105.61 91.24 104.76 L 90.92 103.83 C 90.63 102.98 89.71 102.52 88.86 102.81 C 88.00 103.10 87.55 104.03 87.84 104.88 Z M 88.16 105.81 L 88.48 106.77 C 88.77 107.62 89.69 108.07 90.54 107.79 C 91.40 107.50 91.85 106.57 91.56 105.72 L 91.24 104.76 C 90.95 103.91 90.03 103.45 89.17 103.74 C 88.32 104.03 87.87 104.95 88.16 105.81 Z M 88.48 106.76 L 88.80 107.72 C 89.08 108.58 90.01 109.04 90.86 108.75 C 91.71 108.47 92.17 107.54 91.89 106.69 L 91.57 105.73 C 91.28 104.87 90.36 104.41 89.51 104.70 C 88.65 104.98 88.19 105.91 88.48 106.76 Z M 88.80 107.72 L 89.11 108.66 C 89.39 109.52 90.31 109.98 91.17 109.70 C 92.02 109.42 92.49 108.50 92.20 107.64 L 91.89 106.70 C 91.61 105.84 90.69 105.38 89.83 105.66 C 88.98 105.94 88.51 106.86 88.80 107.72 Z M 89.10 108.66 L 89.42 109.62 C 89.70 110.47 90.62 110.94 91.48 110.66 C 92.34 110.37 92.80 109.45 92.52 108.59 L 92.21 107.64 C 91.92 106.78 91.00 106.32 90.14 106.60 C 89.29 106.88 88.82 107.81 89.10 108.66 Z M 89.42 109.62 L 89.74 110.58 C 90.02 111.43 90.95 111.90 91.81 111.61 C 92.66 111.32 93.13 110.40 92.84 109.54 L 92.52 108.59 C 92.23 107.73 91.31 107.27 90.45 107.55 C 89.59 107.84 89.13 108.77 89.42 109.62 Z M 89.74 110.59 L 90.06 111.53 C 90.36 112.39 91.29 112.84 92.14 112.55 C 93.00 112.26 93.45 111.33 93.16 110.47 L 92.84 109.53 C 92.54 108.67 91.61 108.22 90.76 108.51 C 89.90 108.80 89.45 109.73 89.74 110.59 Z M 90.07 111.54 L 90.40 112.48 C 90.69 113.34 91.62 113.79 92.48 113.49 C 93.33 113.19 93.78 112.26 93.48 111.41 L 93.16 110.47 C 92.86 109.61 91.93 109.16 91.07 109.46 C 90.22 109.75 89.77 110.69 90.07 111.54 Z M 90.40 112.49 L 90.73 113.43 C 91.03 114.28 91.96 114.73 92.81 114.44 C 93.66 114.14 94.11 113.20 93.81 112.35 L 93.48 111.41 C 93.18 110.56 92.25 110.11 91.40 110.41 C 90.55 110.70 90.10 111.64 90.40 112.49 Z M 90.73 113.43 L 91.05 114.35 C 91.35 115.20 92.28 115.65 93.13 115.35 C 93.98 115.05 94.43 114.12 94.13 113.27 L 93.81 112.35 C 93.51 111.50 92.58 111.05 91.73 111.35 C 90.88 111.65 90.43 112.58 90.73 113.43 Z M 91.05 114.35 L 91.37 115.28 C 91.67 116.13 92.60 116.58 93.45 116.28 C 94.31 115.98 94.75 115.05 94.46 114.20 L 94.13 113.27 C 93.84 112.42 92.90 111.97 92.05 112.27 C 91.20 112.56 90.75 113.50 91.05 114.35 Z M 91.37 115.27 L 91.71 116.24 C 92.01 117.09 92.94 117.54 93.79 117.24 C 94.64 116.94 95.09 116.01 94.79 115.16 L 94.46 114.20 C 94.16 113.35 93.23 112.90 92.38 113.20 C 91.53 113.49 91.08 114.42 91.37 115.27 Z M 91.71 116.23 L 92.04 117.19 C 92.33 118.04 93.26 118.49 94.12 118.19 C 94.97 117.90 95.42 116.97 95.12 116.12 L 94.79 115.16 C 94.50 114.31 93.57 113.86 92.72 114.16 C 91.86 114.45 91.41 115.38 91.71 116.23 Z M 92.04 117.18 L 92.36 118.11 C 92.66 118.96 93.59 119.42 94.44 119.12 C 95.29 118.83 95.74 117.90 95.44 117.05 L 95.12 116.12 C 94.83 115.27 93.90 114.82 93.05 115.11 C 92.20 115.40 91.75 116.33 92.04 117.18 Z M 92.37 118.11 L 92.69 119.07 C 92.99 119.92 93.91 120.37 94.76 120.07 C 95.61 119.78 96.06 118.85 95.77 118.00 L 95.44 117.05 C 95.15 116.20 94.22 115.75 93.37 116.04 C 92.52 116.34 92.07 117.26 92.37 118.11 Z M 92.70 119.07 L 93.03 120.03 C 93.32 120.88 94.25 121.33 95.09 121.04 C 95.94 120.74 96.39 119.82 96.10 118.97 L 95.77 118.01 C 95.48 117.16 94.55 116.71 93.70 117.00 C 92.86 117.29 92.40 118.22 92.70 119.07 Z M 93.03 120.03 L 93.36 120.98 C 93.65 121.82 94.57 122.27 95.42 121.98 C 96.27 121.69 96.72 120.77 96.42 119.92 L 96.10 118.97 C 95.81 118.13 94.88 117.68 94.04 117.97 C 93.19 118.26 92.74 119.18 93.03 120.03 Z M 93.36 120.97 L 93.68 121.91 C 93.97 122.76 94.89 123.21 95.74 122.92 C 96.58 122.63 97.03 121.70 96.74 120.86 L 96.42 119.92 C 96.13 119.08 95.21 118.63 94.37 118.92 C 93.52 119.21 93.07 120.13 93.36 120.97 Z M 93.68 121.91 L 94.01 122.85 C 94.30 123.70 95.22 124.15 96.06 123.86 C 96.91 123.57 97.36 122.65 97.07 121.80 L 96.74 120.86 C 96.45 120.02 95.53 119.57 94.69 119.86 C 93.84 120.15 93.39 121.07 93.68 121.91 Z M 94.01 122.85 L 94.34 123.81 C 94.63 124.65 95.55 125.10 96.39 124.81 C 97.23 124.52 97.68 123.60 97.39 122.76 L 97.06 121.80 C 96.77 120.96 95.86 120.51 95.01 120.80 C 94.17 121.09 93.72 122.01 94.01 122.85 Z M 94.34 123.81 L 94.66 124.73 C 94.95 125.58 95.87 126.02 96.71 125.73 C 97.55 125.45 98.00 124.53 97.71 123.69 L 97.39 122.76 C 97.10 121.92 96.18 121.47 95.34 121.76 C 94.50 122.05 94.05 122.96 94.34 123.81 Z M 94.66 124.73 L 94.98 125.66 C 95.27 126.50 96.19 126.95 97.03 126.66 C 97.87 126.37 98.31 125.46 98.02 124.62 L 97.70 123.69 C 97.41 122.85 96.50 122.40 95.66 122.69 C 94.82 122.98 94.37 123.90 94.66 124.73 Z M 94.99 125.67 L 95.32 126.62 C 95.61 127.45 96.52 127.90 97.36 127.61 C 98.20 127.32 98.64 126.40 98.35 125.56 L 98.02 124.62 C 97.73 123.78 96.82 123.33 95.98 123.63 C 95.14 123.92 94.70 124.83 94.99 125.67 Z M 95.32 126.62 L 95.66 127.58 C 95.95 128.42 96.86 128.86 97.70 128.57 C 98.53 128.27 98.97 127.36 98.68 126.53 L 98.34 125.56 C 98.05 124.73 97.14 124.29 96.30 124.58 C 95.47 124.87 95.03 125.78 95.32 126.62 Z M 95.66 127.59 L 96.00 128.54 C 96.29 129.37 97.21 129.81 98.04 129.51 C 98.87 129.22 99.31 128.30 99.01 127.47 L 98.68 126.52 C 98.38 125.69 97.47 125.25 96.64 125.55 C 95.80 125.84 95.37 126.75 95.66 127.59 Z M 96.00 128.54 L 96.34 129.48 C 96.64 130.31 97.55 130.74 98.38 130.44 C 99.21 130.15 99.64 129.23 99.34 128.40 L 99.01 127.47 C 98.71 126.64 97.80 126.21 96.97 126.50 C 96.14 126.80 95.71 127.71 96.00 128.54 Z M 96.34 129.48 L 96.68 130.42 C 96.98 131.25 97.89 131.68 98.72 131.38 C 99.55 131.08 99.98 130.17 99.68 129.34 L 99.34 128.40 C 99.04 127.57 98.13 127.14 97.30 127.44 C 96.47 127.74 96.04 128.65 96.34 129.48 Z M 96.69 130.43 L 97.03 131.37 C 97.33 132.20 98.24 132.62 99.07 132.32 C 99.89 132.02 100.32 131.11 100.02 130.29 L 99.68 129.34 C 99.38 128.51 98.46 128.09 97.64 128.39 C 96.81 128.69 96.39 129.60 96.69 130.43 Z M 97.03 131.37 L 97.38 132.32 C 97.68 133.14 98.59 133.57 99.42 133.27 C 100.24 132.96 100.66 132.05 100.36 131.23 L 100.02 130.28 C 99.72 129.46 98.80 129.04 97.98 129.34 C 97.16 129.64 96.73 130.55 97.03 131.37 Z M 97.38 132.32 L 97.74 133.28 C 98.04 134.10 98.95 134.52 99.77 134.22 C 100.59 133.91 101.01 133.00 100.71 132.18 L 100.36 131.23 C 100.06 130.40 99.14 129.98 98.32 130.29 C 97.50 130.59 97.08 131.50 97.38 132.32 Z M 97.74 133.28 L 98.09 134.23 C 98.40 135.05 99.31 135.47 100.13 135.16 C 100.95 134.85 101.37 133.94 101.06 133.12 L 100.71 132.18 C 100.40 131.36 99.49 130.94 98.67 131.25 C 97.85 131.55 97.43 132.46 97.74 133.28 Z M 98.10 134.24 L 98.45 135.17 C 98.77 135.99 99.68 136.40 100.49 136.09 C 101.31 135.77 101.72 134.86 101.41 134.05 L 101.05 133.11 C 100.74 132.30 99.83 131.89 99.01 132.20 C 98.20 132.51 97.79 133.42 98.10 134.24 Z M 98.46 135.18 L 98.82 136.10 C 99.14 136.91 100.06 137.31 100.87 136.99 C 101.68 136.67 102.08 135.76 101.76 134.95 L 101.40 134.03 C 101.08 133.22 100.17 132.82 99.36 133.14 C 98.54 133.46 98.14 134.37 98.46 135.18 Z M 98.83 136.12 L 99.21 137.05 C 99.54 137.85 100.46 138.24 101.26 137.91 C 102.07 137.58 102.46 136.67 102.13 135.86 L 101.75 134.93 C 101.42 134.12 100.50 133.73 99.70 134.06 C 98.89 134.39 98.50 135.31 98.83 136.12 Z M 99.22 137.07 L 99.61 137.99 C 99.95 138.79 100.87 139.17 101.67 138.83 C 102.47 138.49 102.85 137.57 102.51 136.77 L 102.12 135.84 C 101.78 135.04 100.86 134.67 100.06 135.01 C 99.26 135.34 98.88 136.27 99.22 137.07 Z M 99.62 138.01 L 100.02 138.92 C 100.37 139.71 101.30 140.08 102.09 139.73 C 102.88 139.38 103.25 138.46 102.90 137.66 L 102.50 136.75 C 102.15 135.96 101.23 135.59 100.43 135.94 C 99.64 136.29 99.28 137.22 99.62 138.01 Z M 100.03 138.93 L 100.44 139.84 C 100.79 140.63 101.72 140.98 102.51 140.62 C 103.30 140.27 103.65 139.34 103.29 138.55 L 102.89 137.65 C 102.53 136.86 101.61 136.51 100.82 136.86 C 100.03 137.22 99.68 138.14 100.03 138.93 Z M 100.44 139.85 L 100.87 140.77 C 101.23 141.56 102.16 141.90 102.94 141.54 C 103.73 141.18 104.07 140.25 103.71 139.47 L 103.29 138.54 C 102.93 137.76 102.00 137.41 101.21 137.77 C 100.43 138.13 100.08 139.06 100.44 139.85 Z M 100.88 140.78 L 101.31 141.72 C 101.68 142.50 102.61 142.84 103.39 142.47 C 104.17 142.11 104.51 141.18 104.15 140.40 L 103.71 139.46 C 103.34 138.68 102.41 138.34 101.63 138.71 C 100.85 139.07 100.51 140.00 100.88 140.78 Z M 101.32 141.73 L 101.75 142.64 C 102.13 143.42 103.06 143.75 103.84 143.38 C 104.61 143.01 104.94 142.07 104.57 141.30 L 104.14 140.39 C 103.77 139.61 102.84 139.28 102.06 139.65 C 101.28 140.02 100.95 140.95 101.32 141.73 Z M 101.76 142.65 L 102.18 143.51 C 102.56 144.29 103.50 144.61 104.27 144.23 C 105.04 143.85 105.36 142.92 104.99 142.15 L 104.57 141.28 C 104.19 140.51 103.25 140.19 102.48 140.57 C 101.71 140.94 101.38 141.88 101.76 142.65 Z M 102.19 143.53 L 102.66 144.46 C 103.05 145.23 103.98 145.54 104.75 145.15 C 105.52 144.76 105.83 143.83 105.44 143.06 L 104.98 142.13 C 104.59 141.36 103.65 141.05 102.88 141.44 C 102.12 141.82 101.81 142.76 102.19 143.53 Z M 102.67 144.48 L 103.14 145.38 C 103.53 146.14 104.47 146.44 105.24 146.04 C 106.00 145.65 106.30 144.71 105.90 143.94 L 105.43 143.04 C 105.04 142.28 104.10 141.98 103.33 142.38 C 102.57 142.77 102.27 143.71 102.67 144.48 Z M 103.15 145.39 L 103.59 146.23 C 104.00 146.99 104.94 147.28 105.70 146.88 C 106.46 146.47 106.75 145.53 106.34 144.77 L 105.90 143.93 C 105.49 143.17 104.55 142.88 103.79 143.29 C 103.03 143.69 102.74 144.63 103.15 145.39 Z M 103.60 146.24 L 104.06 147.10 C 104.47 147.86 105.41 148.14 106.17 147.73 C 106.93 147.32 107.21 146.38 106.80 145.62 L 106.34 144.76 C 105.93 144.00 104.99 143.72 104.23 144.13 C 103.47 144.54 103.19 145.48 103.60 146.24 Z M 104.06 147.10 L 104.54 147.98 C 104.95 148.74 105.89 149.02 106.65 148.61 C 107.41 148.20 107.69 147.26 107.28 146.50 L 106.80 145.62 C 106.39 144.86 105.44 144.58 104.69 144.99 C 103.93 145.40 103.65 146.35 104.06 147.10 Z M 104.54 147.99 L 105.01 148.86 C 105.42 149.61 106.37 149.89 107.12 149.48 C 107.88 149.07 108.16 148.12 107.75 147.37 L 107.28 146.50 C 106.87 145.74 105.92 145.46 105.16 145.87 C 104.41 146.28 104.13 147.23 104.54 147.99 Z M 105.01 148.86 L 105.10 149.02 C 105.51 149.78 106.46 150.06 107.22 149.65 C 107.97 149.24 108.25 148.29 107.84 147.53 L 107.75 147.37 C 107.34 146.61 106.39 146.33 105.63 146.74 C 104.88 147.15 104.60 148.10 105.01 148.86 Z"
      fill="black"
      fill-rule="nonzero" /><path d="M 125.96 101.53 L 125.96 102.51 C 125.97 103.35 126.66 104.03 127.50 104.03 C 128.34 104.02 129.02 103.33 129.02 102.49 L 129.02 101.51 C 129.01 100.67 128.32 99.99 127.48 99.99 C 126.64 100.00 125.96 100.69 125.96 101.53 Z M 125.94 102.55 L 125.97 103.57 C 126.00 104.43 126.72 105.10 127.58 105.07 C 128.44 105.04 129.11 104.33 129.08 103.47 L 129.05 102.44 C 129.02 101.59 128.30 100.92 127.44 100.94 C 126.58 100.97 125.91 101.69 125.94 102.55 Z M 125.96 103.65 L 126.04 104.64 C 126.11 105.50 126.87 106.15 127.74 106.08 C 128.60 106.01 129.25 105.25 129.18 104.38 L 129.10 103.39 C 129.03 102.53 128.27 101.88 127.40 101.95 C 126.53 102.02 125.89 102.78 125.96 103.65 Z M 126.03 104.73 L 126.18 105.73 C 126.30 106.60 127.11 107.21 127.98 107.08 C 128.84 106.96 129.45 106.15 129.32 105.28 L 129.18 104.28 C 129.06 103.41 128.25 102.81 127.38 102.93 C 126.51 103.06 125.91 103.86 126.03 104.73 Z M 126.19 105.86 L 126.41 106.84 C 126.61 107.70 127.46 108.24 128.33 108.05 C 129.19 107.85 129.73 106.99 129.53 106.13 L 129.31 105.15 C 129.12 104.29 128.26 103.75 127.40 103.95 C 126.53 104.14 125.99 105.00 126.19 105.86 Z M 126.43 106.95 L 126.73 107.91 C 126.99 108.75 127.89 109.23 128.73 108.97 C 129.58 108.71 130.06 107.81 129.80 106.96 L 129.51 106.01 C 129.25 105.16 128.35 104.69 127.50 104.95 C 126.65 105.21 126.17 106.11 126.43 106.95 Z M 126.74 107.97 L 127.07 108.89 C 127.37 109.73 128.29 110.17 129.13 109.87 C 129.97 109.57 130.41 108.65 130.11 107.81 L 129.78 106.89 C 129.48 106.05 128.56 105.62 127.72 105.92 C 126.88 106.21 126.45 107.14 126.74 107.97 Z M 127.08 108.93 L 127.44 109.86 C 127.75 110.69 128.69 111.11 129.52 110.79 C 130.35 110.47 130.77 109.54 130.45 108.71 L 130.10 107.78 C 129.78 106.94 128.85 106.53 128.02 106.84 C 127.18 107.16 126.76 108.09 127.08 108.93 Z M 127.44 109.87 L 127.81 110.82 C 128.14 111.65 129.08 112.06 129.91 111.73 C 130.73 111.41 131.14 110.47 130.82 109.64 L 130.45 108.69 C 130.12 107.86 129.18 107.45 128.36 107.78 C 127.53 108.10 127.12 109.04 127.44 109.87 Z M 127.82 110.82 L 128.18 111.74 C 128.50 112.57 129.44 112.97 130.27 112.65 C 131.10 112.32 131.50 111.38 131.18 110.55 L 130.82 109.64 C 130.49 108.81 129.55 108.40 128.72 108.73 C 127.90 109.06 127.49 110.00 127.82 110.82 Z M 128.18 111.74 L 128.56 112.69 C 128.88 113.51 129.82 113.92 130.65 113.59 C 131.48 113.26 131.88 112.32 131.55 111.50 L 131.18 110.55 C 130.85 109.72 129.91 109.32 129.08 109.65 C 128.25 109.98 127.85 110.91 128.18 111.74 Z M 128.56 112.69 L 128.93 113.62 C 129.26 114.44 130.20 114.84 131.02 114.51 C 131.85 114.18 132.25 113.24 131.92 112.42 L 131.55 111.49 C 131.22 110.67 130.28 110.27 129.45 110.60 C 128.63 110.93 128.23 111.87 128.56 112.69 Z M 128.93 113.62 L 129.31 114.54 C 129.64 115.36 130.58 115.76 131.40 115.42 C 132.23 115.09 132.62 114.15 132.29 113.32 L 131.91 112.41 C 131.58 111.59 130.64 111.19 129.82 111.53 C 128.99 111.86 128.60 112.80 128.93 113.62 Z M 129.32 114.55 L 129.71 115.49 C 130.05 116.31 130.99 116.69 131.81 116.35 C 132.63 116.01 133.01 115.07 132.67 114.25 L 132.28 113.31 C 131.94 112.49 131.00 112.11 130.18 112.45 C 129.36 112.79 128.97 113.73 129.32 114.55 Z M 129.72 115.51 L 130.11 116.41 C 130.46 117.22 131.40 117.60 132.22 117.25 C 133.03 116.89 133.40 115.95 133.05 115.14 L 132.66 114.23 C 132.31 113.42 131.37 113.05 130.55 113.40 C 129.74 113.75 129.37 114.69 129.72 115.51 Z M 130.12 116.42 L 130.52 117.33 C 130.87 118.14 131.82 118.50 132.63 118.14 C 133.44 117.79 133.80 116.84 133.45 116.03 L 133.05 115.13 C 132.69 114.32 131.74 113.95 130.93 114.31 C 130.12 114.67 129.76 115.61 130.12 116.42 Z M 130.52 117.33 L 130.93 118.26 C 131.29 119.07 132.24 119.43 133.04 119.07 C 133.85 118.71 134.21 117.77 133.86 116.96 L 133.44 116.03 C 133.08 115.22 132.14 114.86 131.33 115.22 C 130.52 115.58 130.16 116.52 130.52 117.33 Z M 130.94 118.26 L 131.34 119.17 C 131.69 119.97 132.64 120.34 133.44 119.98 C 134.25 119.62 134.61 118.68 134.26 117.87 L 133.85 116.97 C 133.50 116.16 132.55 115.80 131.75 116.15 C 130.94 116.51 130.58 117.45 130.94 118.26 Z M 131.34 119.16 L 131.73 120.05 C 132.09 120.86 133.03 121.22 133.83 120.87 C 134.64 120.51 135.00 119.57 134.65 118.77 L 134.25 117.88 C 133.90 117.07 132.96 116.71 132.15 117.06 C 131.35 117.42 130.98 118.36 131.34 119.16 Z M 131.74 120.05 L 132.14 120.97 C 132.50 121.77 133.44 122.14 134.24 121.78 C 135.04 121.43 135.40 120.49 135.05 119.69 L 134.64 118.77 C 134.29 117.96 133.35 117.60 132.55 117.96 C 131.74 118.31 131.38 119.25 131.74 120.05 Z M 132.15 120.98 L 132.57 121.93 C 132.93 122.73 133.87 123.09 134.67 122.73 C 135.47 122.37 135.83 121.44 135.47 120.64 L 135.04 119.68 C 134.69 118.88 133.75 118.53 132.95 118.88 C 132.15 119.24 131.79 120.18 132.15 120.98 Z M 132.58 121.94 L 132.99 122.83 C 133.35 123.63 134.29 123.98 135.08 123.62 C 135.88 123.26 136.23 122.32 135.87 121.53 L 135.46 120.63 C 135.10 119.84 134.16 119.48 133.37 119.84 C 132.57 120.20 132.22 121.14 132.58 121.94 Z M 133.00 122.84 L 133.42 123.75 C 133.78 124.55 134.71 124.89 135.50 124.53 C 136.30 124.17 136.64 123.23 136.28 122.44 L 135.86 121.52 C 135.50 120.73 134.56 120.39 133.77 120.75 C 132.98 121.11 132.63 122.05 133.00 122.84 Z M 133.42 123.76 L 133.85 124.67 C 134.21 125.46 135.14 125.81 135.93 125.44 C 136.72 125.08 137.06 124.14 136.70 123.35 L 136.27 122.44 C 135.91 121.65 134.98 121.31 134.19 121.67 C 133.40 122.04 133.06 122.97 133.42 123.76 Z M 133.85 124.68 L 134.28 125.59 C 134.64 126.37 135.57 126.71 136.36 126.34 C 137.14 125.98 137.48 125.05 137.12 124.26 L 136.69 123.35 C 136.33 122.57 135.39 122.23 134.61 122.59 C 133.83 122.96 133.49 123.89 133.85 124.68 Z M 134.28 125.59 L 134.72 126.51 C 135.09 127.29 136.02 127.63 136.80 127.26 C 137.58 126.89 137.91 125.96 137.54 125.18 L 137.11 124.26 C 136.74 123.48 135.81 123.14 135.03 123.51 C 134.25 123.88 133.92 124.81 134.28 125.59 Z M 134.73 126.52 L 135.16 127.42 C 135.53 128.19 136.46 128.52 137.24 128.15 C 138.01 127.78 138.34 126.85 137.97 126.07 L 137.54 125.17 C 137.16 124.39 136.23 124.07 135.46 124.44 C 134.68 124.81 134.35 125.74 134.73 126.52 Z M 135.17 127.43 L 135.61 128.32 C 135.99 129.09 136.92 129.40 137.69 129.02 C 138.46 128.64 138.77 127.71 138.39 126.94 L 137.96 126.06 C 137.58 125.29 136.64 124.97 135.87 125.35 C 135.10 125.73 134.79 126.66 135.17 127.43 Z M 135.62 128.34 L 136.07 129.22 C 136.46 129.98 137.40 130.28 138.16 129.89 C 138.92 129.50 139.22 128.57 138.83 127.81 L 138.38 126.92 C 137.99 126.16 137.05 125.86 136.29 126.25 C 135.53 126.64 135.23 127.57 135.62 128.34 Z M 136.08 129.24 L 136.56 130.13 C 136.96 130.88 137.89 131.17 138.65 130.77 C 139.40 130.36 139.69 129.43 139.29 128.67 L 138.82 127.79 C 138.42 127.03 137.48 126.74 136.73 127.15 C 135.97 127.55 135.68 128.48 136.08 129.24 Z M 136.57 130.14 L 137.05 131.02 C 137.46 131.77 138.40 132.04 139.15 131.63 C 139.90 131.22 140.17 130.28 139.76 129.53 L 139.28 128.66 C 138.87 127.91 137.93 127.63 137.18 128.04 C 136.43 128.45 136.16 129.39 136.57 130.14 Z M 137.06 131.03 L 137.54 131.90 C 137.96 132.64 138.90 132.91 139.65 132.49 C 140.39 132.08 140.66 131.13 140.24 130.39 L 139.75 129.52 C 139.33 128.78 138.39 128.51 137.65 128.93 C 136.91 129.35 136.64 130.29 137.06 131.03 Z M 137.55 131.91 L 138.06 132.80 C 138.48 133.54 139.42 133.79 140.16 133.37 C 140.90 132.95 141.16 132.01 140.74 131.27 L 140.23 130.38 C 139.81 129.64 138.87 129.38 138.13 129.81 C 137.39 130.23 137.13 131.17 137.55 131.91 Z M 138.07 132.81 L 138.58 133.68 C 139.01 134.41 139.95 134.66 140.68 134.23 C 141.42 133.80 141.66 132.86 141.23 132.13 L 140.72 131.26 C 140.30 130.52 139.35 130.28 138.62 130.70 C 137.89 131.13 137.64 132.07 138.07 132.81 Z M 138.59 133.69 L 139.10 134.54 C 139.54 135.27 140.48 135.50 141.21 135.06 C 141.93 134.63 142.17 133.68 141.73 132.96 L 141.22 132.11 C 140.78 131.39 139.84 131.15 139.12 131.59 C 138.39 132.03 138.16 132.97 138.59 133.69 Z M 139.12 134.56 L 139.65 135.41 C 140.10 136.12 141.04 136.34 141.75 135.89 C 142.47 135.44 142.69 134.50 142.24 133.79 L 141.71 132.94 C 141.27 132.22 140.32 132.01 139.61 132.45 C 138.89 132.90 138.67 133.84 139.12 134.56 Z M 139.67 135.43 L 140.23 136.29 C 140.69 136.99 141.63 137.19 142.34 136.73 C 143.04 136.27 143.24 135.33 142.78 134.62 L 142.22 133.76 C 141.76 133.06 140.82 132.86 140.11 133.32 C 139.41 133.78 139.21 134.72 139.67 135.43 Z M 140.25 136.31 L 140.81 137.13 C 141.28 137.82 142.22 138.00 142.91 137.53 C 143.61 137.06 143.79 136.11 143.32 135.42 L 142.76 134.60 C 142.29 133.91 141.34 133.73 140.65 134.20 C 139.96 134.67 139.78 135.61 140.25 136.31 Z M 140.82 137.15 L 141.39 137.94 C 141.87 138.63 142.81 138.79 143.50 138.31 C 144.18 137.82 144.34 136.88 143.86 136.20 L 143.30 135.40 C 142.81 134.72 141.87 134.56 141.19 135.04 C 140.51 135.52 140.34 136.46 140.82 137.15 Z M 141.41 137.96 L 142.01 138.78 C 142.50 139.45 143.45 139.60 144.12 139.10 C 144.79 138.61 144.93 137.66 144.44 136.99 L 143.84 136.18 C 143.35 135.50 142.40 135.36 141.73 135.85 C 141.06 136.35 140.91 137.29 141.41 137.96 Z M 142.03 138.80 L 142.63 139.59 C 143.14 140.25 144.08 140.37 144.74 139.87 C 145.40 139.36 145.53 138.41 145.02 137.76 L 144.42 136.97 C 143.91 136.31 142.97 136.19 142.31 136.69 C 141.65 137.20 141.52 138.14 142.03 138.80 Z M 142.65 139.61 L 143.28 140.39 C 143.80 141.04 144.75 141.15 145.39 140.63 C 146.04 140.11 146.14 139.16 145.63 138.52 L 145.00 137.73 C 144.48 137.08 143.53 136.98 142.89 137.50 C 142.24 138.02 142.13 138.96 142.65 139.61 Z M 143.30 140.41 L 143.96 141.21 C 144.49 141.84 145.44 141.93 146.07 141.40 C 146.71 140.87 146.80 139.93 146.27 139.29 L 145.61 138.50 C 145.08 137.86 144.13 137.77 143.50 138.30 C 142.86 138.83 142.77 139.78 143.30 140.41 Z M 143.97 141.22 L 144.61 141.97 C 145.14 142.60 146.09 142.67 146.72 142.14 C 147.35 141.60 147.43 140.66 146.89 140.03 L 146.26 139.28 C 145.72 138.65 144.77 138.57 144.14 139.11 C 143.51 139.64 143.44 140.59 143.97 141.22 Z M 144.61 141.97 L 145.27 142.74 C 145.81 143.37 146.75 143.45 147.38 142.91 C 148.01 142.37 148.09 141.43 147.55 140.80 L 146.89 140.02 C 146.35 139.40 145.40 139.32 144.78 139.86 C 144.15 140.39 144.07 141.34 144.61 141.97 Z M 145.27 142.74 L 145.91 143.49 C 146.44 144.12 147.39 144.20 148.02 143.66 C 148.65 143.12 148.72 142.18 148.19 141.55 L 147.55 140.80 C 147.01 140.17 146.07 140.10 145.44 140.63 C 144.81 141.17 144.73 142.11 145.27 142.74 Z M 145.91 143.49 L 146.22 143.87 C 146.76 144.50 147.71 144.57 148.34 144.03 C 148.97 143.50 149.04 142.55 148.51 141.92 L 148.19 141.55 C 147.65 140.92 146.71 140.84 146.08 141.38 C 145.45 141.92 145.37 142.86 145.91 143.49 Z"
      fill="black"
      fill-rule="nonzero" /><path d="M 215.05 111.91 L 213.94 111.95 C 213.08 111.98 212.42 112.71 212.45 113.56 C 212.48 114.41 213.20 115.08 214.06 115.05 L 215.17 115.00 C 216.03 114.97 216.69 114.25 216.66 113.39 C 216.62 112.54 215.90 111.87 215.05 111.91 Z M 213.80 111.93 L 212.80 112.06 C 211.94 112.17 211.33 112.96 211.44 113.82 C 211.55 114.69 212.33 115.30 213.20 115.19 L 214.19 115.06 C 215.06 114.95 215.67 114.16 215.56 113.30 C 215.45 112.44 214.66 111.83 213.80 111.93 Z M 212.40 112.14 L 211.58 112.47 C 210.75 112.80 210.36 113.73 210.69 114.56 C 211.02 115.38 211.95 115.78 212.77 115.44 L 213.60 115.11 C 214.42 114.78 214.82 113.85 214.49 113.03 C 214.16 112.20 213.22 111.81 212.40 112.14 Z M 210.87 112.98 L 210.28 113.77 C 209.74 114.49 209.89 115.52 210.62 116.05 C 211.34 116.59 212.36 116.44 212.90 115.72 L 213.49 114.93 C 214.02 114.21 213.87 113.18 213.15 112.65 C 212.43 112.11 211.40 112.26 210.87 112.98 Z M 209.99 114.32 L 209.74 115.26 C 209.51 116.15 210.04 117.05 210.92 117.29 C 211.81 117.52 212.71 116.99 212.95 116.10 L 213.19 115.16 C 213.43 114.28 212.90 113.37 212.01 113.14 C 211.12 112.91 210.22 113.44 209.99 114.32 Z M 209.68 115.48 L 209.56 116.46 C 209.45 117.38 210.10 118.21 211.02 118.32 C 211.94 118.43 212.78 117.78 212.89 116.86 L 213.01 115.88 C 213.12 114.97 212.47 114.13 211.55 114.02 C 210.63 113.91 209.79 114.56 209.68 115.48 Z M 209.54 116.56 L 209.48 117.51 C 209.43 118.44 210.14 119.24 211.07 119.29 C 212.00 119.35 212.80 118.64 212.86 117.70 L 212.91 116.76 C 212.97 115.82 212.26 115.02 211.32 114.97 C 210.39 114.92 209.59 115.63 209.54 116.56 Z M 209.47 117.54 L 209.43 118.54 C 209.39 119.48 210.13 120.28 211.07 120.31 C 212.01 120.35 212.80 119.61 212.83 118.67 L 212.87 117.67 C 212.91 116.73 212.17 115.94 211.23 115.90 C 210.29 115.87 209.50 116.60 209.47 117.54 Z M 209.42 118.56 L 209.39 119.57 C 209.36 120.52 210.10 121.31 211.05 121.33 C 212.00 121.36 212.79 120.62 212.82 119.67 L 212.85 118.66 C 212.87 117.71 212.13 116.92 211.18 116.89 C 210.24 116.87 209.45 117.61 209.42 118.56 Z M 209.38 119.57 L 209.35 120.52 C 209.32 121.47 210.07 122.27 211.03 122.29 C 211.98 122.32 212.77 121.57 212.80 120.62 L 212.83 119.67 C 212.85 118.72 212.10 117.92 211.15 117.89 C 210.20 117.87 209.40 118.62 209.38 119.57 Z M 209.34 120.52 L 209.31 121.56 C 209.28 122.52 210.03 123.32 210.99 123.35 C 211.95 123.38 212.75 122.63 212.78 121.67 L 212.81 120.62 C 212.84 119.66 212.09 118.86 211.13 118.83 C 210.17 118.80 209.37 119.56 209.34 120.52 Z M 209.30 121.55 L 209.26 122.57 C 209.23 123.54 209.98 124.35 210.95 124.38 C 211.91 124.42 212.72 123.66 212.76 122.70 L 212.79 121.67 C 212.82 120.71 212.07 119.90 211.10 119.87 C 210.14 119.83 209.33 120.59 209.30 121.55 Z M 209.25 122.57 L 209.21 123.54 C 209.17 124.51 209.93 125.33 210.90 125.36 C 211.87 125.40 212.69 124.64 212.73 123.67 L 212.77 122.70 C 212.80 121.73 212.05 120.91 211.08 120.88 C 210.10 120.84 209.29 121.60 209.25 122.57 Z M 209.20 123.53 L 209.16 124.54 C 209.12 125.52 209.88 126.35 210.86 126.39 C 211.84 126.43 212.66 125.67 212.70 124.69 L 212.74 123.67 C 212.78 122.70 212.02 121.87 211.04 121.83 C 210.06 121.79 209.24 122.55 209.20 123.53 Z M 209.15 124.54 L 209.10 125.59 C 209.07 126.57 209.83 127.40 210.82 127.44 C 211.80 127.48 212.63 126.71 212.67 125.73 L 212.71 124.69 C 212.75 123.70 211.99 122.87 211.00 122.83 C 210.02 122.79 209.19 123.56 209.15 124.54 Z M 209.09 125.59 L 209.06 126.58 C 209.02 127.57 209.79 128.41 210.78 128.44 C 211.77 128.48 212.60 127.71 212.64 126.72 L 212.68 125.73 C 212.72 124.74 211.95 123.90 210.96 123.86 C 209.97 123.83 209.13 124.60 209.09 125.59 Z M 209.05 126.58 L 209.01 127.57 C 208.97 128.56 209.74 129.40 210.74 129.44 C 211.73 129.48 212.57 128.70 212.61 127.71 L 212.65 126.72 C 212.69 125.73 211.91 124.89 210.92 124.85 C 209.92 124.81 209.09 125.58 209.05 126.58 Z M 209.00 127.56 L 208.96 128.57 C 208.92 129.57 209.70 130.41 210.70 130.45 C 211.70 130.49 212.54 129.71 212.58 128.71 L 212.62 127.71 C 212.66 126.71 211.88 125.87 210.88 125.83 C 209.88 125.79 209.04 126.56 209.00 127.56 Z M 208.95 128.56 L 208.91 129.58 C 208.86 130.58 209.64 131.43 210.65 131.48 C 211.65 131.52 212.50 130.74 212.54 129.74 L 212.59 128.72 C 212.63 127.71 211.85 126.87 210.85 126.82 C 209.84 126.78 208.99 127.56 208.95 128.56 Z M 208.90 129.57 L 208.85 130.57 C 208.80 131.58 209.58 132.43 210.59 132.48 C 211.60 132.53 212.46 131.75 212.51 130.74 L 212.55 129.75 C 212.60 128.74 211.82 127.88 210.81 127.83 C 209.80 127.78 208.94 128.56 208.90 129.57 Z M 208.84 130.56 L 208.78 131.55 C 208.73 132.57 209.51 133.43 210.53 133.49 C 211.54 133.54 212.41 132.76 212.47 131.74 L 212.52 130.75 C 212.57 129.73 211.79 128.87 210.78 128.81 C 209.76 128.76 208.89 129.54 208.84 130.56 Z M 208.77 131.54 L 208.71 132.54 C 208.65 133.56 209.43 134.44 210.45 134.50 C 211.48 134.56 212.36 133.79 212.42 132.76 L 212.48 131.76 C 212.54 130.74 211.76 129.86 210.74 129.79 C 209.71 129.73 208.83 130.51 208.77 131.54 Z M 208.70 132.52 L 208.63 133.53 C 208.56 134.56 209.33 135.45 210.36 135.52 C 211.39 135.59 212.29 134.82 212.36 133.79 L 212.43 132.78 C 212.50 131.75 211.73 130.86 210.70 130.78 C 209.66 130.71 208.77 131.49 208.70 132.52 Z M 208.62 133.50 L 208.54 134.51 C 208.45 135.54 209.22 136.45 210.26 136.54 C 211.30 136.62 212.21 135.85 212.29 134.81 L 212.37 133.81 C 212.46 132.77 211.68 131.86 210.65 131.78 C 209.61 131.69 208.70 132.47 208.62 133.50 Z M 208.53 134.48 L 208.43 135.49 C 208.34 136.53 209.10 137.45 210.14 137.55 C 211.19 137.65 212.11 136.88 212.21 135.84 L 212.30 134.84 C 212.40 133.79 211.63 132.87 210.59 132.77 C 209.55 132.68 208.62 133.44 208.53 134.48 Z M 208.42 135.46 L 208.32 136.46 C 208.21 137.51 208.97 138.44 210.02 138.55 C 211.06 138.66 212.00 137.90 212.11 136.86 L 212.22 135.86 C 212.33 134.81 211.57 133.88 210.52 133.77 C 209.47 133.66 208.53 134.42 208.42 135.46 Z M 208.31 136.44 L 208.19 137.43 C 208.07 138.48 208.83 139.43 209.88 139.55 C 210.93 139.67 211.88 138.92 212.01 137.87 L 212.12 136.88 C 212.24 135.83 211.49 134.88 210.44 134.75 C 209.38 134.63 208.43 135.38 208.31 136.44 Z M 208.19 137.40 L 208.06 138.39 C 207.93 139.45 208.67 140.41 209.73 140.55 C 210.79 140.68 211.75 139.93 211.89 138.88 L 212.01 137.89 C 212.15 136.83 211.40 135.87 210.34 135.73 C 209.29 135.60 208.32 136.35 208.19 137.40 Z M 208.05 138.37 L 207.92 139.36 C 207.77 140.42 208.51 141.40 209.57 141.55 C 210.64 141.69 211.62 140.95 211.76 139.89 L 211.90 138.90 C 212.04 137.84 211.30 136.86 210.24 136.71 C 209.18 136.56 208.20 137.31 208.05 138.37 Z M 207.91 139.33 L 207.76 140.32 C 207.60 141.38 208.33 142.38 209.40 142.54 C 210.47 142.70 211.46 141.96 211.62 140.90 L 211.77 139.91 C 211.93 138.85 211.20 137.85 210.13 137.69 C 209.06 137.53 208.07 138.27 207.91 139.33 Z M 207.75 140.29 L 207.59 141.28 C 207.41 142.35 208.14 143.36 209.21 143.53 C 210.28 143.71 211.29 142.98 211.47 141.91 L 211.63 140.93 C 211.81 139.85 211.08 138.84 210.01 138.67 C 208.94 138.49 207.93 139.22 207.75 140.29 Z M 207.58 141.25 L 207.41 142.23 C 207.22 143.31 207.93 144.33 209.01 144.53 C 210.08 144.72 211.11 144.00 211.30 142.93 L 211.48 141.94 C 211.67 140.87 210.95 139.84 209.88 139.65 C 208.80 139.46 207.77 140.17 207.58 141.25 Z M 207.40 142.20 L 207.22 143.14 C 207.02 144.21 207.72 145.26 208.80 145.46 C 209.87 145.67 210.92 144.97 211.12 143.89 L 211.30 142.96 C 211.51 141.88 210.81 140.84 209.73 140.63 C 208.65 140.42 207.61 141.13 207.40 142.20 Z M 207.22 143.11 L 207.03 144.07 C 206.81 145.14 207.50 146.19 208.58 146.42 C 209.66 146.64 210.71 145.94 210.93 144.86 L 211.12 143.91 C 211.34 142.84 210.65 141.78 209.57 141.56 C 208.50 141.34 207.44 142.04 207.22 143.11 Z M 207.03 144.05 L 206.82 145.03 C 206.58 146.10 207.27 147.17 208.35 147.40 C 209.43 147.63 210.49 146.94 210.72 145.86 L 210.93 144.88 C 211.16 143.81 210.48 142.74 209.40 142.51 C 208.32 142.28 207.26 142.97 207.03 144.05 Z M 206.81 145.01 L 206.59 146.03 C 206.35 147.11 207.03 148.18 208.11 148.42 C 209.19 148.66 210.26 147.98 210.50 146.90 L 210.72 145.88 C 210.96 144.80 210.28 143.73 209.20 143.49 C 208.12 143.25 207.05 143.93 206.81 145.01 Z M 206.58 146.02 L 206.36 147.00 C 206.12 148.09 206.80 149.16 207.88 149.40 C 208.96 149.65 210.04 148.97 210.28 147.89 L 210.50 146.91 C 210.74 145.82 210.07 144.75 208.98 144.51 C 207.90 144.26 206.83 144.94 206.58 146.02 Z M 206.36 147.00 L 206.14 147.95 C 205.89 149.03 206.57 150.11 207.65 150.36 C 208.74 150.61 209.82 149.93 210.06 148.85 L 210.28 147.90 C 210.53 146.81 209.85 145.73 208.77 145.48 C 207.69 145.24 206.61 145.91 206.36 147.00 Z M 206.14 147.94 L 205.91 148.91 C 205.65 150.00 206.33 151.08 207.41 151.34 C 208.50 151.59 209.58 150.92 209.84 149.84 L 210.07 148.86 C 210.32 147.78 209.65 146.69 208.57 146.43 C 207.48 146.18 206.39 146.85 206.14 147.94 Z M 205.91 148.89 L 205.67 149.88 C 205.40 150.97 206.07 152.06 207.15 152.33 C 208.24 152.59 209.33 151.93 209.60 150.84 L 209.84 149.85 C 210.10 148.77 209.44 147.68 208.35 147.41 C 207.27 147.14 206.17 147.81 205.91 148.89 Z M 205.67 149.86 L 205.41 150.85 C 205.14 151.93 205.79 153.04 206.88 153.32 C 207.96 153.59 209.07 152.94 209.34 151.85 L 209.60 150.86 C 209.87 149.78 209.22 148.68 208.13 148.40 C 207.05 148.12 205.95 148.78 205.67 149.86 Z M 205.42 150.82 L 205.15 151.80 C 204.86 152.89 205.50 154.00 206.58 154.29 C 207.67 154.59 208.78 153.94 209.08 152.86 L 209.34 151.88 C 209.63 150.80 208.99 149.68 207.91 149.39 C 206.83 149.10 205.71 149.74 205.42 150.82 Z M 205.16 151.77 L 204.88 152.74 C 204.57 153.82 205.20 154.95 206.28 155.25 C 207.36 155.56 208.49 154.94 208.80 153.86 L 209.07 152.89 C 209.38 151.81 208.76 150.68 207.67 150.37 C 206.59 150.06 205.47 150.69 205.16 151.77 Z M 204.89 152.71 L 204.60 153.66 C 204.27 154.74 204.88 155.88 205.96 156.20 C 207.04 156.53 208.17 155.92 208.50 154.84 L 208.79 153.89 C 209.12 152.81 208.51 151.67 207.43 151.35 C 206.35 151.02 205.21 151.63 204.89 152.71 Z M 204.60 153.63 L 204.30 154.58 C 203.96 155.66 204.55 156.81 205.63 157.15 C 206.70 157.49 207.85 156.90 208.19 155.82 L 208.50 154.87 C 208.84 153.80 208.24 152.65 207.17 152.31 C 206.09 151.96 204.94 152.56 204.60 153.63 Z M 204.31 154.55 L 203.99 155.50 C 203.63 156.57 204.21 157.73 205.29 158.09 C 206.36 158.44 207.52 157.87 207.87 156.79 L 208.19 155.85 C 208.55 154.77 207.97 153.62 206.89 153.26 C 205.82 152.90 204.66 153.48 204.31 154.55 Z M 204.00 155.47 L 203.67 156.42 C 203.30 157.49 203.86 158.66 204.93 159.03 C 206.00 159.40 207.17 158.83 207.54 157.76 L 207.87 156.82 C 208.24 155.75 207.67 154.58 206.60 154.21 C 205.53 153.84 204.37 154.40 204.00 155.47 Z M 203.67 156.39 L 203.34 157.33 C 202.95 158.39 203.51 159.57 204.57 159.96 C 205.64 160.34 206.82 159.79 207.20 158.72 L 207.54 157.79 C 207.92 156.72 207.37 155.54 206.30 155.16 C 205.23 154.77 204.06 155.33 203.67 156.39 Z M 203.34 157.30 L 202.99 158.24 C 202.59 159.30 203.13 160.49 204.20 160.88 C 205.26 161.28 206.44 160.74 206.84 159.68 L 207.19 158.74 C 207.59 157.68 207.05 156.50 205.99 156.10 C 204.93 155.70 203.74 156.24 203.34 157.30 Z M 203.00 158.21 L 202.64 159.15 C 202.22 160.21 202.75 161.40 203.81 161.81 C 204.86 162.22 206.06 161.70 206.47 160.64 L 206.83 159.71 C 207.25 158.65 206.72 157.46 205.67 157.04 C 204.61 156.63 203.41 157.15 203.00 158.21 Z M 202.65 159.12 L 202.27 160.05 C 201.84 161.10 202.34 162.30 203.40 162.73 C 204.45 163.16 205.65 162.65 206.08 161.60 L 206.46 160.67 C 206.89 159.62 206.38 158.41 205.33 157.99 C 204.28 157.56 203.07 158.06 202.65 159.12 Z M 202.28 160.02 L 201.88 160.94 C 201.44 161.99 201.93 163.20 202.98 163.64 C 204.02 164.09 205.23 163.60 205.68 162.55 L 206.07 161.63 C 206.52 160.58 206.03 159.37 204.98 158.93 C 203.93 158.48 202.72 158.97 202.28 160.02 Z M 201.90 160.91 L 201.49 161.82 C 201.03 162.86 201.49 164.08 202.54 164.54 C 203.58 165.01 204.80 164.54 205.26 163.50 L 205.67 162.59 C 206.13 161.55 205.66 160.33 204.62 159.86 C 203.58 159.40 202.36 159.87 201.90 160.91 Z M 201.50 161.79 L 201.08 162.69 C 200.60 163.72 201.05 164.95 202.08 165.43 C 203.12 165.92 204.35 165.47 204.83 164.43 L 205.25 163.53 C 205.73 162.50 205.28 161.27 204.25 160.79 C 203.22 160.30 201.99 160.75 201.50 161.79 Z M 201.10 162.65 L 200.66 163.55 C 200.16 164.58 200.58 165.82 201.61 166.32 C 202.64 166.82 203.88 166.39 204.38 165.36 L 204.82 164.47 C 205.32 163.44 204.89 162.20 203.86 161.70 C 202.83 161.20 201.60 161.63 201.10 162.65 Z M 200.67 163.52 L 200.22 164.41 C 199.70 165.43 200.11 166.68 201.13 167.19 C 202.15 167.71 203.39 167.31 203.91 166.29 L 204.36 165.40 C 204.88 164.38 204.48 163.13 203.46 162.61 C 202.44 162.09 201.19 162.50 200.67 163.52 Z M 200.23 164.38 L 199.76 165.27 C 199.23 166.28 199.61 167.53 200.62 168.07 C 201.64 168.61 202.89 168.22 203.43 167.21 L 203.90 166.32 C 204.43 165.31 204.05 164.05 203.04 163.52 C 202.02 162.98 200.77 163.37 200.23 164.38 Z M 199.78 165.24 L 199.30 166.10 C 198.75 167.10 199.12 168.36 200.12 168.92 C 201.12 169.47 202.39 169.10 202.94 168.10 L 203.41 167.24 C 203.97 166.23 203.60 164.97 202.60 164.42 C 201.59 163.87 200.33 164.23 199.78 165.24 Z M 199.32 166.07 L 198.84 166.92 C 198.27 167.91 198.62 169.18 199.61 169.75 C 200.61 170.31 201.88 169.97 202.45 168.97 L 202.93 168.12 C 203.49 167.13 203.15 165.86 202.15 165.29 C 201.15 164.73 199.88 165.07 199.32 166.07 Z M 198.85 166.89 L 198.35 167.74 C 197.77 168.73 198.10 170.01 199.09 170.59 C 200.09 171.17 201.36 170.83 201.94 169.84 L 202.43 168.99 C 203.01 168.00 202.68 166.73 201.69 166.15 C 200.70 165.57 199.43 165.90 198.85 166.89 Z M 198.36 167.72 L 197.85 168.58 C 197.26 169.57 197.58 170.85 198.56 171.44 C 199.55 172.03 200.82 171.70 201.41 170.72 L 201.93 169.86 C 202.52 168.87 202.20 167.60 201.21 167.01 C 200.23 166.42 198.95 166.74 198.36 167.72 Z M 197.85 168.57 L 197.32 169.44 C 196.72 170.42 197.03 171.70 198.02 172.30 C 199.00 172.90 200.28 172.59 200.88 171.61 L 201.41 170.73 C 202.00 169.75 201.69 168.47 200.71 167.87 C 199.73 167.28 198.45 167.59 197.85 168.57 Z M 197.33 169.43 L 196.78 170.31 C 196.17 171.29 196.48 172.58 197.45 173.18 C 198.43 173.79 199.72 173.48 200.32 172.50 L 200.87 171.62 C 201.47 170.64 201.17 169.36 200.19 168.75 C 199.22 168.15 197.93 168.45 197.33 169.43 Z M 196.78 170.31 L 196.29 171.10 C 195.68 172.08 195.98 173.36 196.95 173.97 C 197.93 174.58 199.21 174.28 199.82 173.31 L 200.32 172.51 C 200.93 171.54 200.63 170.25 199.65 169.64 C 198.68 169.03 197.39 169.33 196.78 170.31 Z M 196.29 171.09 L 195.78 171.90 C 195.17 172.88 195.46 174.16 196.44 174.78 C 197.41 175.39 198.70 175.10 199.31 174.12 L 199.82 173.31 C 200.43 172.34 200.14 171.05 199.16 170.44 C 198.19 169.83 196.90 170.12 196.29 171.09 Z M 195.79 171.89 L 195.26 172.72 C 194.64 173.69 194.93 174.98 195.90 175.60 C 196.88 176.22 198.16 175.93 198.78 174.96 L 199.31 174.13 C 199.92 173.16 199.64 171.87 198.66 171.25 C 197.69 170.63 196.40 170.92 195.79 171.89 Z M 195.26 172.71 L 194.72 173.56 C 194.10 174.53 194.38 175.82 195.35 176.44 C 196.33 177.06 197.62 176.78 198.24 175.81 L 198.78 174.96 C 199.40 173.99 199.12 172.70 198.15 172.08 C 197.17 171.46 195.88 171.74 195.26 172.71 Z M 194.73 173.55 L 194.17 174.42 C 193.54 175.39 193.82 176.68 194.79 177.31 C 195.76 177.93 197.05 177.65 197.67 176.68 L 198.23 175.82 C 198.86 174.85 198.58 173.56 197.61 172.93 C 196.64 172.31 195.35 172.58 194.73 173.55 Z M 194.17 174.41 L 193.59 175.30 C 192.96 176.27 193.24 177.56 194.20 178.19 C 195.17 178.82 196.46 178.55 197.09 177.58 L 197.67 176.69 C 198.30 175.72 198.02 174.43 197.06 173.80 C 196.09 173.17 194.80 173.45 194.17 174.41 Z M 193.59 175.30 L 193.04 176.14 C 192.41 177.11 192.68 178.40 193.64 179.03 C 194.61 179.67 195.90 179.40 196.53 178.43 L 197.09 177.59 C 197.72 176.62 197.45 175.33 196.49 174.69 C 195.52 174.06 194.23 174.33 193.59 175.30 Z M 193.04 176.13 L 192.50 176.95 C 191.87 177.91 192.13 179.21 193.09 179.85 C 194.06 180.48 195.35 180.22 195.99 179.26 L 196.53 178.44 C 197.17 177.48 196.90 176.18 195.94 175.54 C 194.98 174.91 193.68 175.17 193.04 176.13 Z M 192.51 176.94 L 191.96 177.77 C 191.31 178.73 191.57 180.03 192.53 180.67 C 193.49 181.31 194.78 181.05 195.43 180.10 L 195.98 179.27 C 196.62 178.31 196.37 177.01 195.41 176.37 C 194.45 175.73 193.15 175.98 192.51 176.94 Z M 191.96 177.76 L 191.40 178.59 C 190.75 179.54 190.99 180.84 191.95 181.49 C 192.90 182.14 194.20 181.90 194.85 180.94 L 195.42 180.11 C 196.07 179.16 195.82 177.85 194.87 177.21 C 193.91 176.56 192.61 176.80 191.96 177.76 Z M 191.41 178.57 L 190.83 179.40 C 190.17 180.35 190.40 181.66 191.35 182.31 C 192.30 182.97 193.60 182.74 194.26 181.79 L 194.84 180.96 C 195.50 180.01 195.27 178.71 194.32 178.05 C 193.37 177.39 192.07 177.62 191.41 178.57 Z M 190.84 179.38 L 190.25 180.21 C 189.59 181.15 189.81 182.46 190.75 183.13 C 191.69 183.80 192.99 183.58 193.66 182.64 L 194.25 181.81 C 194.92 180.87 194.70 179.56 193.76 178.89 C 192.82 178.22 191.51 178.44 190.84 179.38 Z M 190.27 180.19 L 189.67 181.00 C 188.99 181.93 189.20 183.24 190.13 183.93 C 191.06 184.61 192.37 184.40 193.05 183.47 L 193.65 182.66 C 194.33 181.73 194.13 180.42 193.19 179.74 C 192.26 179.05 190.95 179.26 190.27 180.19 Z M 189.69 180.98 L 189.08 181.78 C 188.39 182.70 188.57 184.02 189.49 184.71 C 190.41 185.41 191.73 185.23 192.42 184.30 L 193.03 183.50 C 193.73 182.58 193.55 181.27 192.62 180.57 C 191.70 179.87 190.39 180.05 189.69 180.98 Z M 189.11 181.75 L 188.48 182.56 C 187.77 183.47 187.93 184.78 188.84 185.49 C 189.75 186.20 191.06 186.04 191.77 185.14 L 192.40 184.33 C 193.11 183.42 192.95 182.11 192.04 181.40 C 191.13 180.68 189.82 180.84 189.11 181.75 Z M 188.50 182.53 L 187.87 183.31 C 187.14 184.21 187.28 185.52 188.17 186.25 C 189.07 186.98 190.39 186.84 191.11 185.95 L 191.75 185.16 C 192.48 184.27 192.34 182.95 191.44 182.22 C 190.55 181.49 189.23 181.63 188.50 182.53 Z M 187.89 183.28 L 187.25 184.05 C 186.50 184.93 186.62 186.25 187.50 187.00 C 188.39 187.74 189.71 187.62 190.45 186.74 L 191.09 185.97 C 191.83 185.09 191.72 183.77 190.83 183.03 C 189.95 182.28 188.63 182.40 187.89 183.28 Z M 187.27 184.02 L 186.62 184.77 C 185.86 185.65 185.95 186.97 186.83 187.72 C 187.70 188.48 189.02 188.39 189.78 187.52 L 190.43 186.76 C 191.18 185.89 191.09 184.57 190.22 183.81 C 189.35 183.06 188.02 183.15 187.27 184.02 Z M 186.64 184.75 L 185.98 185.49 C 185.21 186.35 185.28 187.67 186.14 188.44 C 187.00 189.21 188.32 189.14 189.09 188.28 L 189.75 187.54 C 190.52 186.68 190.45 185.36 189.59 184.59 C 188.73 183.82 187.41 183.89 186.64 184.75 Z M 186.00 185.47 L 185.33 186.19 C 184.55 187.04 184.60 188.36 185.45 189.15 C 186.30 189.93 187.62 189.88 188.40 189.03 L 189.07 188.30 C 189.86 187.45 189.80 186.13 188.95 185.35 C 188.10 184.56 186.78 184.62 186.00 185.47 Z M 185.35 186.17 L 184.67 186.89 C 183.87 187.73 183.91 189.05 184.75 189.84 C 185.58 190.64 186.91 190.60 187.70 189.77 L 188.38 189.05 C 189.18 188.21 189.14 186.89 188.30 186.09 C 187.47 185.30 186.14 185.33 185.35 186.17 Z M 184.69 186.87 L 183.99 187.58 C 183.19 188.41 183.21 189.73 184.04 190.54 C 184.86 191.34 186.19 191.32 186.99 190.50 L 187.68 189.78 C 188.49 188.96 188.47 187.63 187.64 186.83 C 186.81 186.02 185.49 186.04 184.69 186.87 Z M 184.01 187.57 L 183.31 188.27 C 182.50 189.09 182.50 190.42 183.32 191.23 C 184.14 192.04 185.46 192.03 186.28 191.22 L 186.98 190.51 C 187.79 189.69 187.78 188.37 186.96 187.56 C 186.15 186.74 184.82 186.75 184.01 187.57 Z M 183.32 188.26 L 182.61 188.97 C 181.80 189.78 181.79 191.10 182.60 191.92 C 183.41 192.74 184.74 192.74 185.55 191.93 L 186.26 191.23 C 187.08 190.41 187.09 189.09 186.27 188.27 C 185.46 187.46 184.14 187.45 183.32 188.26 Z M 182.62 188.96 L 181.91 189.66 C 181.09 190.47 181.07 191.79 181.88 192.61 C 182.69 193.43 184.01 193.44 184.83 192.64 L 185.55 191.94 C 186.37 191.13 186.38 189.81 185.57 188.99 C 184.77 188.16 183.45 188.15 182.62 188.96 Z M 181.91 189.66 L 181.20 190.36 C 180.37 191.16 180.36 192.48 181.16 193.30 C 181.96 194.13 183.28 194.15 184.11 193.34 L 184.83 192.64 C 185.65 191.84 185.67 190.52 184.86 189.69 C 184.06 188.87 182.74 188.85 181.91 189.66 Z M 181.20 190.36 L 180.48 191.06 C 179.65 191.86 179.63 193.18 180.44 194.01 C 181.24 194.83 182.56 194.85 183.38 194.04 L 184.11 193.34 C 184.93 192.54 184.95 191.22 184.15 190.40 C 183.34 189.57 182.02 189.55 181.20 190.36 Z M 180.48 191.06 L 179.76 191.76 C 178.93 192.56 178.92 193.88 179.72 194.71 C 180.53 195.53 181.85 195.55 182.67 194.74 L 183.39 194.04 C 184.21 193.24 184.23 191.92 183.42 191.10 C 182.62 190.27 181.30 190.26 180.48 191.06 Z M 179.75 191.77 L 179.05 192.46 C 178.23 193.26 178.22 194.58 179.03 195.40 C 179.83 196.22 181.15 196.23 181.97 195.43 L 182.67 194.74 C 183.49 193.93 183.50 192.61 182.70 191.79 C 181.89 190.97 180.57 190.96 179.75 191.77 Z M 179.05 192.46 L 178.34 193.16 C 177.53 193.97 177.52 195.28 178.33 196.10 C 179.14 196.92 180.45 196.93 181.27 196.12 L 181.97 195.42 C 182.79 194.61 182.80 193.30 181.99 192.48 C 181.18 191.66 179.86 191.65 179.05 192.46 Z M 178.34 193.16 L 177.63 193.87 C 176.82 194.68 176.82 196.00 177.63 196.81 C 178.44 197.62 179.76 197.62 180.57 196.81 L 181.28 196.11 C 182.09 195.30 182.09 193.98 181.28 193.17 C 180.47 192.35 179.15 192.35 178.34 193.16 Z M 177.63 193.87 L 176.92 194.58 C 176.11 195.40 176.12 196.71 176.93 197.52 C 177.75 198.33 179.07 198.33 179.87 197.51 L 180.58 196.81 C 181.39 195.99 181.38 194.67 180.57 193.86 C 179.75 193.05 178.44 193.06 177.63 193.87 Z M 176.92 194.59 L 176.21 195.31 C 175.41 196.13 175.42 197.44 176.24 198.25 C 177.05 199.05 178.37 199.04 179.18 198.22 L 179.88 197.51 C 180.69 196.69 180.68 195.37 179.86 194.57 C 179.04 193.76 177.72 193.77 176.92 194.59 Z M 176.21 195.32 L 175.50 196.04 C 174.70 196.86 174.72 198.18 175.54 198.98 C 176.36 199.78 177.68 199.76 178.48 198.94 L 179.18 198.21 C 179.98 197.39 179.97 196.08 179.14 195.28 C 178.32 194.48 177.01 194.49 176.21 195.32 Z M 175.49 196.05 L 174.79 196.78 C 173.99 197.61 174.01 198.93 174.84 199.72 C 175.67 200.52 176.98 200.49 177.78 199.67 L 178.48 198.93 C 179.28 198.10 179.26 196.79 178.43 195.99 C 177.60 195.20 176.29 195.22 175.49 196.05 Z M 174.78 196.79 L 174.10 197.51 C 173.31 198.34 173.34 199.65 174.17 200.44 C 175.00 201.23 176.32 201.20 177.11 200.37 L 177.79 199.66 C 178.58 198.83 178.54 197.51 177.71 196.72 C 176.88 195.93 175.57 195.96 174.78 196.79 Z M 174.09 197.52 L 173.41 198.24 C 172.63 199.07 172.67 200.38 173.50 201.17 C 174.33 201.96 175.65 201.92 176.43 201.08 L 177.11 200.36 C 177.90 199.53 177.86 198.21 177.03 197.43 C 176.19 196.64 174.88 196.68 174.09 197.52 Z M 173.41 198.24 L 172.73 198.97 C 171.95 199.81 171.99 201.12 172.83 201.90 C 173.66 202.68 174.98 202.64 175.76 201.80 L 176.44 201.08 C 177.22 200.24 177.18 198.93 176.34 198.14 C 175.50 197.36 174.19 197.41 173.41 198.24 Z M 172.72 198.98 L 172.04 199.71 C 171.26 200.55 171.31 201.86 172.15 202.64 C 172.99 203.42 174.30 203.37 175.08 202.53 L 175.76 201.80 C 176.54 200.96 176.49 199.65 175.65 198.87 C 174.81 198.09 173.50 198.14 172.72 198.98 Z M 172.04 199.72 L 171.36 200.45 C 170.58 201.29 170.63 202.60 171.47 203.38 C 172.31 204.16 173.62 204.10 174.40 203.26 L 175.08 202.53 C 175.86 201.69 175.81 200.38 174.97 199.60 C 174.13 198.82 172.82 198.88 172.04 199.72 Z M 171.36 200.46 L 170.68 201.20 C 169.90 202.04 169.96 203.35 170.80 204.12 C 171.64 204.90 172.95 204.84 173.72 204.00 L 174.40 203.26 C 175.18 202.42 175.12 201.11 174.28 200.34 C 173.44 199.56 172.13 199.62 171.36 200.46 Z M 170.67 201.20 L 169.99 201.94 C 169.22 202.79 169.27 204.09 170.12 204.87 C 170.96 205.64 172.26 205.58 173.04 204.74 L 173.72 204.00 C 174.49 203.16 174.44 201.85 173.60 201.08 C 172.76 200.31 171.45 200.36 170.67 201.20 Z M 169.99 201.95 L 169.31 202.68 C 168.54 203.52 168.60 204.83 169.44 205.60 C 170.28 206.38 171.59 206.32 172.36 205.48 L 173.04 204.74 C 173.81 203.90 173.75 202.59 172.91 201.82 C 172.07 201.05 170.76 201.11 169.99 201.95 Z M 169.32 202.68 L 168.64 203.41 C 167.87 204.25 167.93 205.56 168.77 206.33 C 169.60 207.10 170.91 207.05 171.68 206.21 L 172.36 205.48 C 173.13 204.64 173.07 203.33 172.24 202.56 C 171.40 201.79 170.09 201.84 169.32 202.68 Z M 168.65 203.41 L 167.97 204.14 C 167.20 204.98 167.25 206.28 168.09 207.06 C 168.92 207.83 170.23 207.78 171.00 206.94 L 171.68 206.21 C 172.45 205.38 172.40 204.07 171.57 203.30 C 170.73 202.52 169.42 202.57 168.65 203.41 Z M 167.98 204.14 L 167.30 204.86 C 166.52 205.70 166.57 207.00 167.40 207.78 C 168.23 208.56 169.54 208.51 170.32 207.68 L 171.00 206.95 C 171.77 206.12 171.73 204.81 170.90 204.03 C 170.06 203.26 168.76 203.30 167.98 204.14 Z M 167.31 204.86 L 166.62 205.58 C 165.84 206.41 165.88 207.71 166.71 208.50 C 167.54 209.28 168.84 209.24 169.62 208.41 L 170.31 207.69 C 171.09 206.86 171.05 205.55 170.22 204.77 C 169.40 203.99 168.09 204.03 167.31 204.86 Z M 166.64 205.57 L 165.94 206.29 C 165.16 207.12 165.18 208.42 166.00 209.21 C 166.83 210.00 168.13 209.97 168.92 209.15 L 169.61 208.42 C 170.40 207.60 170.37 206.30 169.55 205.51 C 168.73 204.72 167.42 204.75 166.64 205.57 Z M 165.96 206.28 L 165.25 207.00 C 164.46 207.82 164.48 209.12 165.29 209.91 C 166.10 210.71 167.41 210.69 168.20 209.88 L 168.90 209.16 C 169.70 208.34 169.68 207.04 168.87 206.25 C 168.06 205.45 166.75 205.47 165.96 206.28 Z M 165.27 206.99 L 164.56 207.70 C 163.75 208.51 163.76 209.81 164.56 210.61 C 165.37 211.42 166.67 211.41 167.47 210.61 L 168.19 209.89 C 168.99 209.09 168.99 207.78 168.18 206.98 C 167.38 206.18 166.07 206.18 165.27 206.99 Z M 164.58 207.69 L 163.84 208.41 C 163.03 209.20 163.01 210.50 163.81 211.32 C 164.60 212.13 165.91 212.14 166.72 211.35 L 167.45 210.63 C 168.27 209.83 168.28 208.53 167.48 207.72 C 166.69 206.90 165.39 206.89 164.58 207.69 Z M 163.86 208.39 L 163.11 209.11 C 162.29 209.89 162.26 211.19 163.04 212.01 C 163.83 212.83 165.13 212.86 165.95 212.08 L 166.70 211.36 C 167.52 210.58 167.55 209.28 166.76 208.46 C 165.98 207.64 164.68 207.61 163.86 208.39 Z M 163.13 209.09 L 162.38 209.79 C 161.55 210.57 161.50 211.87 162.28 212.69 C 163.05 213.52 164.35 213.57 165.18 212.80 L 165.93 212.09 C 166.76 211.32 166.80 210.02 166.03 209.19 C 165.26 208.36 163.96 208.32 163.13 209.09 Z M 162.40 209.78 L 161.64 210.46 C 160.80 211.23 160.74 212.52 161.50 213.36 C 162.27 214.20 163.56 214.26 164.40 213.50 L 165.16 212.81 C 165.99 212.05 166.05 210.75 165.29 209.92 C 164.53 209.08 163.23 209.02 162.40 209.78 Z M 161.66 210.45 L 160.91 211.12 C 160.07 211.87 159.99 213.16 160.74 214.01 C 161.49 214.85 162.78 214.93 163.63 214.18 L 164.38 213.51 C 165.23 212.76 165.30 211.47 164.55 210.62 C 163.80 209.78 162.51 209.70 161.66 210.45 Z M 160.93 211.10 L 160.19 211.74 C 159.33 212.48 159.24 213.77 159.98 214.63 C 160.72 215.48 162.01 215.58 162.86 214.84 L 163.61 214.20 C 164.46 213.46 164.56 212.17 163.82 211.31 C 163.08 210.46 161.79 210.36 160.93 211.10 Z M 160.21 211.72 L 159.48 212.34 C 158.62 213.06 158.50 214.35 159.23 215.22 C 159.95 216.08 161.24 216.19 162.11 215.47 L 162.84 214.85 C 163.70 214.13 163.82 212.84 163.09 211.98 C 162.37 211.11 161.08 211.00 160.21 211.72 Z M 159.51 212.32 L 158.75 212.93 C 157.88 213.64 157.74 214.93 158.45 215.80 C 159.16 216.68 160.45 216.81 161.32 216.10 L 162.08 215.49 C 162.95 214.78 163.09 213.49 162.38 212.62 C 161.67 211.74 160.38 211.61 159.51 212.32 Z M 158.78 212.91 L 157.93 213.58 C 157.04 214.28 156.88 215.56 157.58 216.44 C 158.27 217.33 159.55 217.48 160.43 216.79 L 161.29 216.12 C 162.18 215.43 162.34 214.15 161.64 213.26 C 160.95 212.38 159.67 212.22 158.78 212.91 Z M 157.96 213.56 L 157.13 214.19 C 156.23 214.86 156.05 216.14 156.72 217.03 C 157.40 217.93 158.67 218.11 159.57 217.44 L 160.40 216.81 C 161.30 216.14 161.48 214.86 160.80 213.97 C 160.13 213.07 158.86 212.89 157.96 213.56 Z M 157.16 214.17 L 156.35 214.76 C 155.44 215.42 155.24 216.69 155.90 217.59 C 156.56 218.50 157.83 218.70 158.73 218.04 L 159.54 217.45 C 160.45 216.80 160.65 215.53 159.99 214.62 C 159.33 213.72 158.06 213.51 157.16 214.17 Z M 156.37 214.75 L 155.58 215.30 C 154.67 215.95 154.45 217.21 155.10 218.12 C 155.74 219.04 157.00 219.26 157.92 218.61 L 158.71 218.06 C 159.62 217.41 159.84 216.15 159.19 215.23 C 158.55 214.32 157.29 214.10 156.37 214.75 Z M 155.61 215.29 L 154.83 215.83 C 153.91 216.46 153.68 217.72 154.31 218.63 C 154.94 219.55 156.20 219.79 157.12 219.15 L 157.90 218.62 C 158.81 217.99 159.05 216.73 158.41 215.81 C 157.78 214.89 156.52 214.66 155.61 215.29 Z M 154.85 215.82 L 154.07 216.35 C 153.15 216.97 152.90 218.22 153.53 219.15 C 154.15 220.07 155.41 220.31 156.33 219.69 L 157.11 219.16 C 158.03 218.53 158.27 217.28 157.65 216.36 C 157.02 215.44 155.77 215.20 154.85 215.82 Z M 154.08 216.35 L 153.23 216.92 C 152.31 217.53 152.06 218.78 152.68 219.71 C 153.30 220.63 154.55 220.87 155.47 220.26 L 156.32 219.69 C 157.24 219.07 157.49 217.82 156.87 216.90 C 156.25 215.97 155.00 215.73 154.08 216.35 Z M 153.24 216.92 L 152.40 217.48 C 151.48 218.09 151.23 219.34 151.84 220.26 C 152.46 221.18 153.70 221.43 154.62 220.81 L 155.46 220.25 C 156.38 219.64 156.63 218.40 156.02 217.47 C 155.40 216.55 154.16 216.30 153.24 216.92 Z M 152.40 217.48 L 151.57 218.03 C 150.65 218.64 150.40 219.88 151.01 220.80 C 151.62 221.72 152.87 221.97 153.79 221.36 L 154.62 220.81 C 155.54 220.20 155.79 218.96 155.17 218.04 C 154.56 217.12 153.32 216.87 152.40 217.48 Z M 151.58 218.04 L 150.75 218.58 C 149.83 219.19 149.58 220.43 150.19 221.35 C 150.80 222.27 152.04 222.52 152.96 221.91 L 153.78 221.36 C 154.70 220.75 154.95 219.51 154.34 218.59 C 153.73 217.68 152.49 217.43 151.58 218.04 Z M 150.75 218.59 L 149.94 219.13 C 149.02 219.74 148.77 220.98 149.38 221.89 C 149.99 222.81 151.23 223.05 152.14 222.44 L 152.96 221.90 C 153.87 221.29 154.12 220.06 153.51 219.14 C 152.90 218.23 151.67 217.98 150.75 218.59 Z M 149.93 219.14 L 149.10 219.70 C 148.19 220.31 147.95 221.54 148.56 222.45 C 149.16 223.36 150.40 223.61 151.31 223.00 L 152.14 222.44 C 153.05 221.83 153.29 220.60 152.68 219.69 C 152.07 218.78 150.84 218.53 149.93 219.14 Z M 149.10 219.71 L 148.26 220.27 C 147.36 220.88 147.12 222.11 147.73 223.02 C 148.34 223.92 149.56 224.16 150.47 223.55 L 151.31 222.99 C 152.21 222.38 152.45 221.15 151.84 220.25 C 151.23 219.34 150.00 219.10 149.10 219.71 Z M 148.26 220.28 L 147.43 220.84 C 146.53 221.45 146.29 222.67 146.90 223.57 C 147.51 224.48 148.73 224.71 149.63 224.11 L 150.46 223.54 C 151.37 222.94 151.60 221.71 151.00 220.81 C 150.39 219.91 149.17 219.67 148.26 220.28 Z M 147.44 220.85 L 146.61 221.40 C 145.71 222.01 145.47 223.23 146.08 224.13 C 146.68 225.02 147.90 225.26 148.80 224.66 L 149.63 224.10 C 150.53 223.50 150.76 222.28 150.16 221.38 C 149.55 220.48 148.34 220.24 147.44 220.85 Z M 146.62 221.41 L 145.80 221.96 C 144.90 222.56 144.66 223.77 145.26 224.67 C 145.86 225.56 147.08 225.80 147.97 225.20 L 148.79 224.65 C 149.69 224.05 149.93 222.84 149.33 221.94 C 148.73 221.05 147.52 220.81 146.62 221.41 Z M 145.81 221.96 L 144.98 222.51 C 144.08 223.11 143.84 224.31 144.43 225.21 C 145.03 226.10 146.23 226.35 147.13 225.75 L 147.96 225.20 C 148.86 224.61 149.10 223.40 148.51 222.50 C 147.91 221.61 146.70 221.36 145.81 221.96 Z M 144.99 222.51 L 144.15 223.06 C 143.25 223.65 143.00 224.85 143.59 225.75 C 144.18 226.64 145.38 226.89 146.27 226.31 L 147.12 225.75 C 148.01 225.17 148.26 223.97 147.67 223.07 C 147.09 222.18 145.88 221.93 144.99 222.51 Z M 144.17 223.06 L 143.33 223.61 C 142.43 224.18 142.17 225.38 142.75 226.27 C 143.33 227.17 144.52 227.43 145.42 226.85 L 146.26 226.31 C 147.15 225.73 147.41 224.53 146.83 223.64 C 146.25 222.74 145.06 222.49 144.17 223.06 Z M 143.34 223.60 L 142.50 224.14 C 141.61 224.70 141.34 225.89 141.91 226.79 C 142.48 227.68 143.66 227.95 144.56 227.38 L 145.40 226.85 C 146.29 226.28 146.56 225.10 145.99 224.20 C 145.43 223.30 144.24 223.04 143.34 223.60 Z M 142.53 224.13 L 141.68 224.66 C 140.78 225.21 140.50 226.39 141.06 227.29 C 141.61 228.19 142.79 228.46 143.69 227.91 L 144.54 227.38 C 145.43 226.83 145.71 225.65 145.16 224.75 C 144.60 223.86 143.42 223.58 142.53 224.13 Z M 141.70 224.65 L 140.85 225.16 C 139.95 225.71 139.66 226.88 140.20 227.78 C 140.75 228.68 141.92 228.97 142.82 228.42 L 143.67 227.91 C 144.57 227.37 144.86 226.20 144.32 225.30 C 143.77 224.40 142.60 224.11 141.70 224.65 Z M 140.88 225.16 L 140.02 225.66 C 139.12 226.19 138.81 227.35 139.34 228.25 C 139.87 229.16 141.03 229.46 141.93 228.93 L 142.79 228.43 C 143.69 227.90 144.00 226.74 143.47 225.84 C 142.94 224.94 141.78 224.63 140.88 225.16 Z M 140.04 225.66 L 139.18 226.15 C 138.27 226.67 137.96 227.82 138.47 228.72 C 138.98 229.62 140.13 229.94 141.04 229.43 L 141.91 228.93 C 142.81 228.42 143.13 227.27 142.61 226.37 C 142.10 225.46 140.95 225.15 140.04 225.66 Z M 139.20 226.15 L 138.33 226.63 C 137.42 227.13 137.09 228.27 137.59 229.18 C 138.09 230.09 139.23 230.41 140.14 229.91 L 141.01 229.43 C 141.92 228.93 142.25 227.79 141.75 226.89 C 141.25 225.98 140.11 225.65 139.20 226.15 Z M 138.35 226.63 L 137.46 227.11 C 136.56 227.59 136.22 228.72 136.70 229.63 C 137.19 230.54 138.32 230.88 139.22 230.39 L 140.11 229.92 C 141.02 229.43 141.36 228.30 140.87 227.39 C 140.39 226.49 139.26 226.15 138.35 226.63 Z M 137.49 227.11 L 136.58 227.58 C 135.67 228.05 135.32 229.17 135.79 230.08 C 136.26 230.99 137.38 231.34 138.29 230.87 L 139.20 230.39 C 140.11 229.92 140.46 228.80 139.99 227.89 C 139.52 226.99 138.40 226.63 137.49 227.11 Z M 136.60 227.58 L 135.67 228.05 C 134.77 228.51 134.40 229.61 134.86 230.52 C 135.32 231.43 136.42 231.79 137.33 231.34 L 138.26 230.87 C 139.17 230.41 139.53 229.30 139.07 228.39 C 138.62 227.49 137.51 227.12 136.60 227.58 Z M 135.70 228.05 L 134.78 228.50 C 133.87 228.95 133.50 230.04 133.94 230.95 C 134.39 231.86 135.48 232.23 136.39 231.78 L 137.31 231.33 C 138.21 230.89 138.59 229.79 138.14 228.89 C 137.70 227.98 136.60 227.61 135.70 228.05 Z M 134.80 228.51 L 133.90 228.94 C 133.00 229.37 132.62 230.45 133.05 231.36 C 133.48 232.26 134.57 232.64 135.47 232.21 L 136.37 231.78 C 137.27 231.35 137.65 230.26 137.22 229.36 C 136.79 228.46 135.70 228.08 134.80 228.51 Z M 133.93 228.94 L 133.07 229.34 C 132.17 229.76 131.78 230.83 132.20 231.73 C 132.62 232.64 133.69 233.03 134.59 232.61 L 135.45 232.21 C 136.35 231.78 136.74 230.71 136.32 229.81 C 135.90 228.91 134.83 228.52 133.93 228.94 Z M 133.09 229.34 L 132.14 229.78 C 131.24 230.19 130.84 231.25 131.25 232.15 C 131.65 233.04 132.71 233.44 133.61 233.04 L 134.57 232.60 C 135.47 232.19 135.87 231.13 135.46 230.23 C 135.05 229.33 133.99 228.94 133.09 229.34 Z M 132.16 229.78 L 131.21 230.20 C 130.31 230.59 129.90 231.64 130.29 232.53 C 130.69 233.43 131.73 233.84 132.63 233.45 L 133.59 233.03 C 134.49 232.64 134.90 231.59 134.50 230.69 C 134.11 229.80 133.06 229.39 132.16 229.78 Z M 131.24 230.20 L 130.35 230.57 C 129.45 230.95 129.02 231.98 129.40 232.88 C 129.78 233.78 130.81 234.20 131.71 233.82 L 132.60 233.45 C 133.50 233.07 133.92 232.04 133.55 231.14 C 133.17 230.24 132.14 229.82 131.24 230.20 Z M 130.38 230.57 L 129.52 230.91 C 128.62 231.27 128.19 232.29 128.54 233.19 C 128.90 234.09 129.92 234.52 130.82 234.17 L 131.68 233.82 C 132.57 233.46 133.01 232.45 132.65 231.55 C 132.29 230.65 131.28 230.21 130.38 230.57 Z M 129.55 230.91 L 128.59 231.28 C 127.70 231.62 127.25 232.62 127.59 233.52 C 127.93 234.42 128.93 234.87 129.83 234.53 L 130.79 234.17 C 131.68 233.83 132.14 232.82 131.80 231.92 C 131.46 231.03 130.45 230.57 129.55 230.91 Z M 128.63 231.28 L 127.68 231.61 C 126.78 231.93 126.31 232.92 126.63 233.82 C 126.95 234.72 127.94 235.19 128.84 234.87 L 129.79 234.53 C 130.69 234.21 131.16 233.22 130.84 232.33 C 130.52 231.43 129.53 230.96 128.63 231.28 Z M 127.73 231.61 L 126.80 231.92 C 125.90 232.21 125.41 233.18 125.71 234.08 C 126.00 234.98 126.97 235.47 127.87 235.17 L 128.79 234.87 C 129.69 234.58 130.18 233.61 129.89 232.71 C 129.59 231.81 128.63 231.32 127.73 231.61 Z M 126.85 231.91 L 125.89 232.20 C 124.98 232.46 124.47 233.41 124.74 234.31 C 125.00 235.21 125.95 235.73 126.85 235.46 L 127.82 235.18 C 128.72 234.91 129.23 233.96 128.97 233.06 C 128.70 232.16 127.75 231.64 126.85 231.91 Z M 125.94 232.19 L 124.96 232.45 C 124.06 232.69 123.52 233.62 123.76 234.52 C 124.00 235.42 124.92 235.96 125.83 235.72 L 126.80 235.47 C 127.71 235.23 128.24 234.30 128.01 233.40 C 127.77 232.49 126.84 231.95 125.94 232.19 Z M 125.00 232.45 L 124.05 232.68 C 123.15 232.89 122.59 233.80 122.81 234.71 C 123.03 235.61 123.94 236.17 124.84 235.95 L 125.79 235.72 C 126.69 235.51 127.25 234.60 127.03 233.69 C 126.81 232.79 125.90 232.23 125.00 232.45 Z M 124.08 232.68 L 123.10 232.90 C 122.20 233.10 121.63 234.00 121.83 234.90 C 122.04 235.81 122.94 236.37 123.84 236.17 L 124.81 235.95 C 125.72 235.75 126.29 234.85 126.08 233.95 C 125.88 233.04 124.98 232.48 124.08 232.68 Z M 123.12 232.90 L 122.14 233.11 C 121.24 233.31 120.67 234.20 120.86 235.10 C 121.06 236.00 121.94 236.57 122.85 236.38 L 123.82 236.17 C 124.72 235.97 125.30 235.08 125.10 234.18 C 124.91 233.28 124.02 232.71 123.12 232.90 Z M 122.15 233.12 L 121.22 233.31 C 120.32 233.50 119.75 234.39 119.94 235.28 C 120.13 236.18 121.01 236.76 121.91 236.57 L 122.84 236.37 C 123.74 236.18 124.31 235.30 124.12 234.40 C 123.93 233.50 123.05 232.93 122.15 233.12 Z"
      fill="black"
      fill-rule="nonzero" /></svg>