<svg xmlns="http://www.w3.org/2000/svg" width="300" height="300" viewBox="0 0 300 300">
<path d="M 100.72 119.29 L 100.24 118.40 C 99.84 117.67 98.93 117.40 98.20 117.79 C 97.47 118.18 97.20 119.10 97.59 119.83 L 98.07 120.72 C 98.47 121.45 99.38 121.72 100.11 121.32 C 100.84 120.93 101.11 120.02 100.72 119.29 Z M 100.28 118.49 L 99.85 117.54 C 99.51 116.78 98.62 116.45 97.86 116.79 C 97.10 117.13 96.77 118.02 97.11 118.78 L 97.54 119.73 C 97.89 120.49 98.78 120.82 99.54 120.48 C 100.29 120.14 100.63 119.25 100.28 118.49 Z M 99.99 118.08 L 99.95 117.19 C 99.91 116.35 99.20 115.71 98.36 115.75 C 97.53 115.79 96.89 116.50 96.93 117.33 L 96.97 118.23 C 97.01 119.07 97.72 119.71 98.55 119.67 C 99.39 119.63 100.03 118.92 99.99 118.08 Z M 98.88 118.72 L 99.61 118.50 C 100.42 118.26 100.87 117.41 100.63 116.60 C 100.39 115.79 99.53 115.33 98.73 115.58 L 98.00 115.80 C 97.19 116.04 96.73 116.89 96.97 117.70 C 97.22 118.51 98.07 118.97 98.88 118.72 Z M 98.98 118.58 L 100.14 118.72 C 100.98 118.82 101.76 118.22 101.86 117.37 C 101.97 116.52 101.36 115.75 100.52 115.65 L 99.36 115.50 C 98.51 115.40 97.74 116.00 97.63 116.85 C 97.53 117.70 98.13 118.47 98.98 118.58 Z M 99.98 118.71 L 100.95 118.93 C 101.79 119.13 102.63 118.60 102.83 117.75 C 103.02 116.91 102.49 116.07 101.64 115.87 L 100.67 115.65 C 99.83 115.46 98.99 115.99 98.80 116.83 C 98.60 117.68 99.13 118.52 99.98 118.71 Z M 100.89 118.94 L 101.89 119.20 C 102.74 119.43 103.61 118.92 103.84 118.07 C 104.06 117.22 103.55 116.35 102.70 116.13 L 101.70 115.86 C 100.85 115.64 99.98 116.15 99.76 117.00 C 99.53 117.85 100.04 118.72 100.89 118.94 Z M 101.88 119.22 L 102.87 119.49 C 103.73 119.72 104.62 119.21 104.85 118.36 C 105.08 117.50 104.57 116.61 103.72 116.38 L 102.72 116.11 C 101.86 115.88 100.97 116.39 100.74 117.24 C 100.51 118.10 101.02 118.99 101.88 119.22 Z M 102.88 119.51 L 103.84 119.76 C 104.71 119.99 105.60 119.47 105.83 118.60 C 106.05 117.73 105.54 116.84 104.67 116.62 L 103.71 116.36 C 102.84 116.14 101.95 116.66 101.72 117.52 C 101.50 118.39 102.01 119.28 102.88 119.51 Z M 103.86 119.78 L 104.79 120.01 C 105.67 120.22 106.56 119.68 106.77 118.81 C 106.99 117.93 106.45 117.04 105.57 116.83 L 104.65 116.60 C 103.77 116.38 102.88 116.92 102.67 117.80 C 102.45 118.68 102.99 119.56 103.86 119.78 Z M 104.82 120.02 L 105.73 120.23 C 106.62 120.43 107.50 119.87 107.70 118.99 C 107.90 118.10 107.35 117.21 106.46 117.01 L 105.55 116.81 C 104.66 116.61 103.77 117.16 103.57 118.05 C 103.37 118.94 103.93 119.82 104.82 120.02 Z M 105.75 120.25 L 106.76 120.46 C 107.66 120.65 108.54 120.07 108.73 119.17 C 108.91 118.27 108.34 117.39 107.44 117.20 L 106.43 116.99 C 105.54 116.80 104.65 117.38 104.47 118.28 C 104.28 119.18 104.85 120.06 105.75 120.25 Z M 106.78 120.48 L 107.77 120.67 C 108.68 120.85 109.56 120.26 109.74 119.35 C 109.91 118.44 109.32 117.56 108.41 117.38 L 107.42 117.18 C 106.51 117.01 105.63 117.60 105.45 118.51 C 105.27 119.42 105.87 120.30 106.78 120.48 Z M 107.78 120.69 L 108.74 120.86 C 109.65 121.04 110.54 120.43 110.71 119.51 C 110.88 118.59 110.27 117.71 109.35 117.54 L 108.40 117.36 C 107.48 117.19 106.60 117.80 106.43 118.72 C 106.26 119.63 106.86 120.52 107.78 120.69 Z M 108.75 120.88 L 109.76 121.06 C 110.68 121.22 111.56 120.60 111.73 119.68 C 111.89 118.75 111.28 117.87 110.35 117.71 L 109.34 117.53 C 108.42 117.36 107.53 117.98 107.37 118.91 C 107.21 119.83 107.82 120.71 108.75 120.88 Z M 109.77 121.07 L 110.79 121.24 C 111.72 121.40 112.61 120.77 112.77 119.84 C 112.92 118.91 112.30 118.02 111.36 117.87 L 110.34 117.69 C 109.41 117.54 108.52 118.16 108.36 119.10 C 108.21 120.03 108.84 120.91 109.77 121.07 Z M 110.80 121.26 L 111.76 121.41 C 112.70 121.56 113.58 120.92 113.73 119.98 C 113.88 119.04 113.24 118.16 112.31 118.01 L 111.35 117.86 C 110.41 117.70 109.53 118.34 109.38 119.28 C 109.23 120.22 109.86 121.10 110.80 121.26 Z M 111.77 121.42 L 112.75 121.57 C 113.69 121.71 114.58 121.07 114.72 120.12 C 114.87 119.18 114.22 118.29 113.27 118.15 L 112.29 118.00 C 111.35 117.85 110.47 118.50 110.32 119.45 C 110.18 120.39 110.82 121.27 111.77 121.42 Z M 112.76 121.58 L 113.77 121.73 C 114.72 121.86 115.60 121.21 115.74 120.26 C 115.88 119.31 115.22 118.43 114.27 118.29 L 113.26 118.14 C 112.31 118.00 111.43 118.66 111.29 119.61 C 111.15 120.56 111.81 121.44 112.76 121.58 Z M 113.78 121.74 L 114.78 121.87 C 115.73 122.00 116.61 121.34 116.74 120.38 C 116.88 119.43 116.21 118.55 115.25 118.41 L 114.26 118.28 C 113.31 118.15 112.43 118.81 112.29 119.77 C 112.16 120.72 112.83 121.60 113.78 121.74 Z M 114.79 121.88 L 115.74 122.01 C 116.70 122.13 117.58 121.46 117.71 120.50 C 117.84 119.54 117.16 118.66 116.20 118.53 L 115.24 118.41 C 114.28 118.28 113.40 118.96 113.28 119.92 C 113.15 120.88 113.83 121.76 114.79 121.88 Z M 115.76 122.02 L 116.75 122.14 C 117.71 122.26 118.59 121.57 118.71 120.61 C 118.83 119.64 118.14 118.76 117.18 118.64 L 116.19 118.52 C 115.22 118.40 114.34 119.09 114.23 120.05 C 114.11 121.02 114.79 121.90 115.76 122.02 Z M 116.76 122.15 L 117.78 122.26 C 118.75 122.37 119.63 121.68 119.74 120.71 C 119.85 119.74 119.15 118.86 118.18 118.75 L 117.16 118.64 C 116.19 118.52 115.32 119.22 115.21 120.19 C 115.10 121.16 115.79 122.04 116.76 122.15 Z M 117.80 122.27 L 118.82 122.38 C 119.79 122.48 120.67 121.77 120.77 120.80 C 120.87 119.83 120.16 118.95 119.19 118.85 L 118.17 118.74 C 117.19 118.64 116.32 119.35 116.22 120.32 C 116.11 121.30 116.82 122.17 117.80 122.27 Z M 118.83 122.39 L 119.79 122.48 C 120.77 122.57 121.64 121.85 121.74 120.88 C 121.83 119.90 121.11 119.03 120.13 118.93 L 119.17 118.84 C 118.19 118.75 117.32 119.47 117.23 120.45 C 117.14 121.42 117.86 122.29 118.83 122.39 Z M 119.81 122.49 L 120.79 122.57 C 121.77 122.66 122.64 121.93 122.73 120.95 C 122.81 119.96 122.08 119.10 121.10 119.01 L 120.12 118.93 C 119.13 118.84 118.27 119.57 118.18 120.55 C 118.10 121.54 118.83 122.40 119.81 122.49 Z M 120.81 122.58 L 121.81 122.66 C 122.80 122.73 123.66 122.00 123.74 121.01 C 123.81 120.02 123.08 119.16 122.09 119.08 L 121.08 119.01 C 120.10 118.93 119.24 119.67 119.16 120.65 C 119.08 121.64 119.82 122.50 120.81 122.58 Z M 121.82 122.66 L 122.85 122.73 C 123.84 122.80 124.70 122.06 124.77 121.07 C 124.84 120.08 124.09 119.22 123.10 119.15 L 122.08 119.08 C 121.08 119.01 120.23 119.75 120.16 120.74 C 120.09 121.73 120.83 122.59 121.82 122.66 Z M 122.87 122.74 L 123.86 122.80 C 124.86 122.86 125.71 122.11 125.77 121.11 C 125.83 120.12 125.08 119.27 124.09 119.20 L 123.09 119.14 C 122.09 119.08 121.24 119.84 121.18 120.83 C 121.12 121.82 121.87 122.68 122.87 122.74 Z M 123.87 122.81 L 124.84 122.86 C 125.83 122.91 126.69 122.15 126.74 121.15 C 126.80 120.16 126.03 119.31 125.04 119.25 L 124.07 119.20 C 123.08 119.14 122.22 119.91 122.17 120.90 C 122.11 121.90 122.88 122.75 123.87 122.81 Z M 124.85 122.86 L 125.83 122.91 C 126.83 122.96 127.68 122.19 127.73 121.19 C 127.78 120.19 127.00 119.34 126.01 119.29 L 125.02 119.25 C 124.02 119.20 123.18 119.97 123.13 120.97 C 123.08 121.97 123.85 122.82 124.85 122.86 Z M 125.85 122.92 L 126.85 122.96 C 127.86 122.99 128.70 122.22 128.74 121.21 C 128.78 120.21 128.00 119.37 127.00 119.33 L 125.99 119.29 C 124.99 119.25 124.15 120.03 124.11 121.03 C 124.07 122.03 124.85 122.88 125.85 122.92 Z M 126.87 122.96 L 127.90 122.99 C 128.90 123.02 129.74 122.24 129.77 121.23 C 129.80 120.23 129.02 119.39 128.01 119.36 L 126.98 119.32 C 125.98 119.29 125.14 120.08 125.11 121.09 C 125.08 122.09 125.87 122.93 126.87 122.96 Z M 127.91 123.00 L 128.94 123.02 C 129.94 123.04 130.78 122.25 130.80 121.24 C 130.82 120.23 130.03 119.40 129.02 119.38 L 128.00 119.35 C 126.99 119.33 126.16 120.13 126.13 121.13 C 126.11 122.14 126.91 122.97 127.91 123.00 Z M 128.95 123.02 L 129.90 123.04 C 130.90 123.05 131.73 122.25 131.75 121.24 C 131.77 120.23 130.96 119.40 129.95 119.39 L 129.01 119.37 C 128.00 119.36 127.17 120.16 127.15 121.17 C 127.14 122.18 127.94 123.01 128.95 123.02 Z M 129.91 123.04 L 130.87 123.05 C 131.88 123.06 132.71 122.25 132.72 121.24 C 132.73 120.23 131.92 119.41 130.91 119.40 L 129.94 119.39 C 128.93 119.38 128.11 120.19 128.10 121.19 C 128.09 122.20 128.90 123.03 129.91 123.04 Z M 130.88 123.05 L 131.87 123.06 C 132.88 123.06 133.71 122.25 133.71 121.24 C 133.72 120.23 132.90 119.40 131.89 119.40 L 130.90 119.39 C 129.89 119.39 129.07 120.20 129.06 121.21 C 129.06 122.22 129.87 123.05 130.88 123.05 Z M 131.88 123.06 L 132.89 123.06 C 133.91 123.07 134.73 122.25 134.73 121.24 C 134.73 120.22 133.92 119.40 132.90 119.40 L 131.89 119.40 C 130.88 119.39 130.05 120.21 130.05 121.22 C 130.05 122.24 130.87 123.06 131.88 123.06 Z M 132.90 123.07 L 133.94 123.07 C 134.95 123.07 135.78 122.25 135.78 121.23 C 135.78 120.22 134.96 119.40 133.94 119.40 L 132.90 119.40 C 131.89 119.40 131.07 120.22 131.06 121.23 C 131.06 122.24 131.88 123.07 132.90 123.07 Z M 133.94 123.07 L 134.99 123.07 C 136.00 123.07 136.82 122.25 136.82 121.23 C 136.82 120.22 136.00 119.40 134.99 119.40 L 133.94 119.40 C 132.93 119.40 132.11 120.22 132.10 121.23 C 132.10 122.25 132.93 123.07 133.94 123.07 Z M 134.99 123.07 L 135.97 123.07 C 136.99 123.07 137.81 122.25 137.81 121.23 C 137.81 120.22 136.98 119.39 135.97 119.39 L 134.99 119.39 C 133.97 119.39 133.15 120.22 133.15 121.23 C 133.15 122.25 133.97 123.07 134.99 123.07 Z M 135.97 123.07 L 136.97 123.07 C 137.99 123.07 138.81 122.24 138.81 121.22 C 138.81 120.21 137.98 119.39 136.96 119.39 L 135.96 119.39 C 134.95 119.39 134.13 120.22 134.13 121.24 C 134.13 122.25 134.96 123.08 135.97 123.07 Z M 136.98 123.07 L 137.99 123.07 C 139.01 123.06 139.83 122.23 139.82 121.21 C 139.81 120.19 138.98 119.37 137.97 119.38 L 136.96 119.39 C 135.94 119.39 135.12 120.22 135.13 121.24 C 135.13 122.26 135.96 123.08 136.98 123.07 Z M 138.00 123.07 L 139.01 123.05 C 140.03 123.04 140.85 122.21 140.83 121.19 C 140.82 120.17 139.99 119.35 138.97 119.37 L 137.95 119.38 C 136.94 119.39 136.12 120.23 136.13 121.25 C 136.15 122.26 136.98 123.08 138.00 123.07 Z M 139.03 123.06 L 140.03 123.04 C 141.05 123.02 141.86 122.17 141.84 121.15 C 141.82 120.13 140.98 119.32 139.96 119.34 L 138.95 119.36 C 137.93 119.38 137.12 120.23 137.14 121.25 C 137.16 122.27 138.01 123.08 139.03 123.06 Z M 140.05 123.04 L 141.05 123.01 C 142.07 122.98 142.87 122.13 142.84 121.11 C 142.81 120.09 141.96 119.28 140.94 119.31 L 139.94 119.34 C 138.92 119.37 138.12 120.22 138.15 121.24 C 138.18 122.26 139.03 123.07 140.05 123.04 Z M 141.07 123.01 L 142.09 122.97 C 143.11 122.93 143.90 122.06 143.86 121.04 C 143.82 120.02 142.96 119.23 141.94 119.27 L 140.92 119.31 C 139.90 119.36 139.11 120.22 139.15 121.24 C 139.19 122.26 140.05 123.05 141.07 123.01 Z M 142.11 122.97 L 143.13 122.91 C 144.15 122.86 144.94 121.98 144.88 120.96 C 144.83 119.94 143.95 119.16 142.93 119.22 L 141.91 119.27 C 140.89 119.33 140.11 120.20 140.16 121.22 C 140.22 122.24 141.09 123.02 142.11 122.97 Z M 143.16 122.91 L 144.16 122.84 C 145.18 122.77 145.95 121.89 145.88 120.87 C 145.82 119.85 144.93 119.08 143.91 119.15 L 142.91 119.22 C 141.89 119.29 141.12 120.17 141.19 121.19 C 141.26 122.21 142.14 122.98 143.16 122.91 Z M 144.18 122.84 L 145.18 122.76 C 146.20 122.68 146.96 121.79 146.88 120.77 C 146.80 119.75 145.90 118.99 144.89 119.07 L 143.89 119.15 C 142.87 119.23 142.11 120.12 142.19 121.14 C 142.27 122.16 143.16 122.92 144.18 122.84 Z M 145.20 122.76 L 146.18 122.67 C 147.20 122.58 147.95 121.68 147.86 120.66 C 147.77 119.65 146.87 118.89 145.85 118.99 L 144.86 119.07 C 143.85 119.17 143.10 120.07 143.19 121.08 C 143.28 122.10 144.18 122.85 145.20 122.76 Z M 146.20 122.67 L 147.18 122.57 C 148.19 122.47 148.94 121.56 148.83 120.55 C 148.73 119.53 147.82 118.79 146.81 118.89 L 145.83 118.99 C 144.81 119.09 144.07 120.00 144.17 121.01 C 144.27 122.03 145.18 122.77 146.20 122.67 Z M 147.19 122.57 L 148.17 122.47 C 149.19 122.35 149.92 121.44 149.81 120.42 C 149.70 119.41 148.78 118.67 147.77 118.78 L 146.79 118.89 C 145.77 119.00 145.04 119.92 145.15 120.93 C 145.26 121.95 146.18 122.68 147.19 122.57 Z M 148.18 122.46 L 149.17 122.35 C 150.19 122.23 150.91 121.31 150.79 120.29 C 150.67 119.28 149.75 118.55 148.74 118.67 L 147.75 118.79 C 146.74 118.91 146.01 119.83 146.13 120.84 C 146.25 121.86 147.17 122.58 148.18 122.46 Z M 149.18 122.34 L 150.17 122.22 C 151.18 122.10 151.90 121.17 151.78 120.16 C 151.65 119.14 150.73 118.42 149.71 118.55 L 148.73 118.67 C 147.71 118.80 146.99 119.72 147.12 120.74 C 147.25 121.75 148.17 122.47 149.18 122.34 Z M 150.18 122.22 L 151.17 122.09 C 152.18 121.96 152.90 121.03 152.76 120.02 C 152.63 119.01 151.71 118.29 150.69 118.42 L 149.70 118.55 C 148.69 118.69 147.98 119.61 148.11 120.63 C 148.24 121.64 149.17 122.35 150.18 122.22 Z M 151.18 122.09 L 152.17 121.95 C 153.18 121.82 153.89 120.89 153.75 119.88 C 153.62 118.87 152.69 118.16 151.68 118.29 L 150.68 118.43 C 149.67 118.56 148.96 119.49 149.10 120.50 C 149.24 121.52 150.17 122.22 151.18 122.09 Z M 152.18 121.95 L 153.17 121.81 C 154.18 121.67 154.89 120.74 154.75 119.73 C 154.61 118.72 153.68 118.02 152.67 118.16 L 151.67 118.30 C 150.66 118.44 149.96 119.37 150.10 120.38 C 150.24 121.39 151.17 122.09 152.18 121.95 Z M 153.18 121.81 L 154.18 121.67 C 155.19 121.53 155.89 120.60 155.75 119.59 C 155.60 118.58 154.67 117.88 153.66 118.02 L 152.66 118.16 C 151.65 118.30 150.95 119.23 151.09 120.24 C 151.24 121.25 152.17 121.95 153.18 121.81 Z M 154.18 121.67 L 155.16 121.53 C 156.17 121.39 156.87 120.45 156.72 119.44 C 156.58 118.44 155.65 117.74 154.64 117.88 L 153.66 118.02 C 152.65 118.16 151.95 119.10 152.09 120.10 C 152.24 121.11 153.17 121.81 154.18 121.67 Z M 155.16 121.53 L 156.14 121.39 C 157.15 121.24 157.85 120.31 157.70 119.30 C 157.56 118.30 156.63 117.60 155.62 117.74 L 154.64 117.88 C 153.63 118.03 152.93 118.96 153.08 119.97 C 153.22 120.97 154.15 121.67 155.16 121.53 Z M 156.14 121.39 L 157.13 121.24 C 158.14 121.10 158.84 120.16 158.69 119.16 C 158.55 118.15 157.61 117.45 156.61 117.60 L 155.62 117.74 C 154.61 117.89 153.91 118.82 154.06 119.83 C 154.20 120.83 155.14 121.53 156.14 121.39 Z M 157.13 121.24 L 158.12 121.10 C 159.13 120.95 159.83 120.02 159.68 119.01 C 159.54 118.01 158.60 117.31 157.60 117.46 L 156.61 117.60 C 155.60 117.75 154.90 118.68 155.05 119.68 C 155.19 120.69 156.13 121.39 157.13 121.24 Z M 158.12 121.10 L 159.12 120.95 C 160.12 120.81 160.82 119.88 160.68 118.87 C 160.53 117.87 159.60 117.17 158.59 117.32 L 157.60 117.46 C 156.59 117.60 155.90 118.54 156.04 119.54 C 156.19 120.55 157.12 121.24 158.12 121.10 Z M 159.12 120.95 L 160.12 120.81 C 161.12 120.66 161.82 119.73 161.67 118.73 C 161.53 117.72 160.60 117.03 159.59 117.17 L 158.59 117.32 C 157.59 117.46 156.89 118.39 157.04 119.40 C 157.18 120.40 158.11 121.10 159.12 120.95 Z M 160.11 120.81 L 161.11 120.66 C 162.12 120.52 162.81 119.59 162.67 118.59 C 162.52 117.58 161.59 116.89 160.59 117.03 L 159.59 117.17 C 158.59 117.32 157.89 118.25 158.04 119.25 C 158.18 120.25 159.11 120.95 160.11 120.81 Z M 161.11 120.66 L 162.11 120.52 C 163.11 120.38 163.81 119.45 163.66 118.45 C 163.52 117.44 162.59 116.75 161.59 116.89 L 160.59 117.03 C 159.59 117.18 158.89 118.10 159.04 119.11 C 159.18 120.11 160.11 120.81 161.11 120.66 Z M 162.11 120.52 L 163.10 120.38 C 164.10 120.23 164.80 119.31 164.66 118.30 C 164.51 117.30 163.59 116.61 162.58 116.75 L 161.59 116.89 C 160.59 117.03 159.89 117.96 160.03 118.96 C 160.18 119.96 161.11 120.66 162.11 120.52 Z M 163.10 120.37 L 164.10 120.23 C 165.10 120.09 165.79 119.16 165.65 118.16 C 165.50 117.16 164.58 116.47 163.58 116.61 L 162.58 116.75 C 161.58 116.90 160.89 117.82 161.03 118.82 C 161.18 119.82 162.10 120.52 163.10 120.37 Z M 164.10 120.23 L 165.09 120.09 C 166.08 119.94 166.78 119.02 166.63 118.02 C 166.49 117.02 165.57 116.33 164.57 116.47 L 163.58 116.61 C 162.58 116.76 161.88 117.68 162.03 118.68 C 162.17 119.68 163.10 120.37 164.10 120.23 Z M 165.09 120.08 L 166.07 119.94 C 167.07 119.80 167.76 118.87 167.62 117.88 C 167.47 116.88 166.55 116.19 165.55 116.33 L 164.56 116.47 C 163.57 116.62 162.88 117.54 163.02 118.54 C 163.16 119.54 164.09 120.23 165.09 120.08 Z M 166.07 119.94 L 167.05 119.80 C 168.05 119.65 168.74 118.73 168.59 117.73 C 168.45 116.73 167.52 116.04 166.52 116.19 L 165.55 116.33 C 164.55 116.48 163.86 117.40 164.01 118.40 C 164.15 119.40 165.08 120.09 166.07 119.94 Z M 167.05 119.79 L 168.05 119.65 C 169.05 119.50 169.74 118.57 169.59 117.58 C 169.44 116.58 168.52 115.90 167.52 116.04 L 166.52 116.19 C 165.53 116.34 164.84 117.27 164.99 118.26 C 165.14 119.25 166.06 119.94 167.05 119.79 Z M 168.06 119.64 L 169.05 119.49 C 170.04 119.35 170.73 118.42 170.58 117.43 C 170.43 116.44 169.51 115.75 168.51 115.90 L 167.52 116.05 C 166.53 116.20 165.84 117.12 165.99 118.11 C 166.14 119.11 167.06 119.79 168.06 119.64 Z M 169.05 119.49 L 170.04 119.34 C 171.03 119.20 171.71 118.27 171.56 117.28 C 171.41 116.29 170.49 115.61 169.50 115.76 L 168.51 115.90 C 167.52 116.05 166.84 116.97 166.99 117.97 C 167.13 118.96 168.06 119.64 169.05 119.49 Z M 170.04 119.34 L 171.02 119.19 C 172.01 119.05 172.69 118.13 172.54 117.14 C 172.40 116.15 171.48 115.46 170.49 115.61 L 169.50 115.76 C 168.51 115.91 167.83 116.83 167.98 117.82 C 168.12 118.81 169.05 119.49 170.04 119.34 Z M 171.02 119.19 L 172.00 119.05 C 172.99 118.90 173.67 117.98 173.53 116.99 C 173.38 116.00 172.46 115.32 171.47 115.47 L 170.49 115.61 C 169.50 115.76 168.82 116.68 168.96 117.67 C 169.11 118.66 170.03 119.34 171.02 119.19 Z M 172.00 119.04 L 172.98 118.90 C 173.97 118.76 174.65 117.84 174.51 116.85 C 174.36 115.87 173.45 115.18 172.46 115.33 L 171.48 115.47 C 170.49 115.61 169.81 116.53 169.95 117.52 C 170.09 118.50 171.01 119.19 172.00 119.04 Z M 172.98 118.90 L 174.00 118.75 C 174.99 118.61 175.67 117.70 175.53 116.71 C 175.39 115.73 174.48 115.04 173.49 115.18 L 172.47 115.33 C 171.48 115.47 170.80 116.38 170.94 117.37 C 171.08 118.35 171.99 119.04 172.98 118.90 Z M 174.00 118.75 L 175.03 118.60 C 176.01 118.46 176.70 117.55 176.56 116.57 C 176.42 115.59 175.51 114.90 174.53 115.04 L 173.50 115.19 C 172.51 115.32 171.83 116.23 171.97 117.22 C 172.11 118.20 173.02 118.89 174.00 118.75 Z M 175.02 118.60 L 176.04 118.46 C 177.02 118.32 177.71 117.42 177.57 116.44 C 177.44 115.45 176.53 114.77 175.55 114.90 L 174.53 115.04 C 173.55 115.18 172.86 116.08 173.00 117.07 C 173.13 118.05 174.04 118.74 175.02 118.60 Z M 176.03 118.46 L 177.03 118.32 C 178.01 118.19 178.70 117.29 178.56 116.31 C 178.43 115.33 177.53 114.64 176.55 114.77 L 175.55 114.91 C 174.57 115.04 173.89 115.94 174.02 116.92 C 174.15 117.90 175.05 118.59 176.03 118.46 Z M 177.02 118.32 L 177.99 118.19 C 178.97 118.06 179.66 117.16 179.53 116.18 C 179.40 115.20 178.50 114.52 177.52 114.65 L 176.55 114.77 C 175.57 114.90 174.89 115.80 175.02 116.78 C 175.15 117.76 176.05 118.45 177.02 118.32 Z M 177.98 118.19 L 178.91 118.07 C 179.89 117.94 180.57 117.04 180.45 116.07 C 180.32 115.09 179.42 114.40 178.45 114.53 L 177.52 114.65 C 176.55 114.78 175.86 115.67 175.98 116.65 C 176.11 117.63 177.01 118.31 177.98 118.19 Z M 178.90 118.06 L 179.96 117.93 C 180.94 117.80 181.63 116.91 181.50 115.94 C 181.38 114.96 180.49 114.27 179.51 114.40 L 178.45 114.53 C 177.48 114.66 176.79 115.55 176.91 116.52 C 177.04 117.50 177.93 118.19 178.90 118.06 Z M 179.96 117.92 L 180.98 117.80 C 181.95 117.68 182.64 116.79 182.52 115.82 C 182.40 114.84 181.51 114.15 180.54 114.27 L 179.52 114.40 C 178.55 114.52 177.85 115.41 177.98 116.38 C 178.10 117.35 178.98 118.05 179.96 117.92 Z M 180.98 117.79 L 181.95 117.67 C 182.92 117.55 183.61 116.67 183.50 115.70 C 183.38 114.73 182.49 114.04 181.52 114.16 L 180.55 114.28 C 179.58 114.40 178.89 115.28 179.00 116.25 C 179.12 117.22 180.00 117.91 180.98 117.79 Z M 181.95 117.67 L 182.90 117.55 C 183.87 117.44 184.56 116.56 184.44 115.59 C 184.32 114.62 183.44 113.93 182.48 114.05 L 181.53 114.16 C 180.56 114.28 179.87 115.16 179.99 116.13 C 180.10 117.10 180.98 117.79 181.95 117.67 Z M 182.90 117.55 L 183.84 117.44 C 184.80 117.32 185.49 116.44 185.38 115.48 C 185.26 114.51 184.38 113.82 183.42 113.94 L 182.48 114.05 C 181.51 114.17 180.82 115.05 180.94 116.01 C 181.06 116.98 181.93 117.67 182.90 117.55 Z M 183.84 117.43 L 184.84 117.31 C 185.80 117.20 186.48 116.32 186.37 115.36 C 186.25 114.40 185.38 113.71 184.42 113.83 L 183.42 113.95 C 182.46 114.06 181.77 114.94 181.89 115.90 C 182.00 116.86 182.88 117.55 183.84 117.43 Z M 184.83 117.31 L 185.83 117.19 C 186.79 117.07 187.47 116.20 187.36 115.24 C 187.25 114.28 186.38 113.60 185.42 113.71 L 184.42 113.83 C 183.46 113.95 182.78 114.82 182.89 115.78 C 183.00 116.73 183.87 117.42 184.83 117.31 Z M 185.82 117.18 L 186.82 117.07 C 187.78 116.96 188.46 116.09 188.35 115.13 C 188.24 114.18 187.37 113.49 186.42 113.60 L 185.42 113.72 C 184.47 113.83 183.78 114.69 183.89 115.65 C 184.00 116.61 184.87 117.29 185.82 117.18 Z M 186.81 117.06 L 187.80 116.95 C 188.75 116.85 189.44 115.99 189.33 115.03 C 189.23 114.08 188.37 113.39 187.42 113.50 L 186.43 113.61 C 185.47 113.71 184.79 114.57 184.89 115.53 C 185.00 116.48 185.86 117.17 186.81 117.06 Z M 187.79 116.95 L 188.80 116.84 C 189.75 116.74 190.44 115.89 190.34 114.94 C 190.24 113.99 189.39 113.30 188.44 113.40 L 187.43 113.50 C 186.48 113.60 185.79 114.45 185.89 115.41 C 185.99 116.36 186.84 117.05 187.79 116.95 Z M 188.79 116.84 L 189.81 116.74 C 190.76 116.64 191.45 115.80 191.36 114.85 C 191.27 113.90 190.43 113.21 189.48 113.30 L 188.45 113.40 C 187.51 113.50 186.81 114.34 186.90 115.29 C 187.00 116.23 187.84 116.93 188.79 116.84 Z M 189.80 116.73 L 190.80 116.64 C 191.75 116.55 192.44 115.72 192.36 114.77 C 192.27 113.83 191.44 113.13 190.49 113.22 L 189.49 113.31 C 188.54 113.39 187.85 114.23 187.93 115.17 C 188.02 116.12 188.85 116.82 189.80 116.73 Z M 190.79 116.63 L 191.76 116.55 C 192.71 116.47 193.41 115.64 193.33 114.70 C 193.25 113.76 192.42 113.06 191.48 113.14 L 190.50 113.22 C 189.56 113.30 188.86 114.13 188.94 115.07 C 189.02 116.01 189.85 116.71 190.79 116.63 Z M 191.75 116.55 L 192.74 116.47 C 193.68 116.39 194.38 115.57 194.30 114.64 C 194.23 113.70 193.41 113.00 192.47 113.07 L 191.49 113.15 C 190.55 113.22 189.85 114.04 189.92 114.98 C 190.00 115.92 190.82 116.62 191.75 116.55 Z M 192.73 116.46 L 193.77 116.38 C 194.71 116.32 195.41 115.50 195.34 114.57 C 195.28 113.64 194.46 112.93 193.53 113.00 L 192.48 113.08 C 191.55 113.14 190.85 113.96 190.91 114.89 C 190.98 115.83 191.79 116.53 192.73 116.46 Z M 193.76 116.38 L 194.76 116.31 C 195.69 116.25 196.39 115.44 196.33 114.51 C 196.27 113.58 195.47 112.88 194.54 112.94 L 193.54 113.01 C 192.61 113.07 191.91 113.88 191.97 114.81 C 192.03 115.73 192.83 116.44 193.76 116.38 Z M 194.75 116.30 L 195.70 116.24 C 196.63 116.19 197.33 115.39 197.28 114.47 C 197.22 113.54 196.42 112.84 195.50 112.89 L 194.55 112.95 C 193.62 113.01 192.92 113.80 192.97 114.73 C 193.03 115.65 193.83 116.36 194.75 116.30 Z M 195.69 116.24 L 196.70 116.18 C 197.62 116.13 198.33 115.34 198.27 114.42 C 198.22 113.50 197.43 112.79 196.51 112.84 L 195.51 112.90 C 194.59 112.95 193.88 113.74 193.93 114.66 C 193.98 115.58 194.77 116.29 195.69 116.24 Z M 196.69 116.17 L 197.70 116.12 C 198.62 116.07 199.33 115.29 199.28 114.37 C 199.23 113.46 198.45 112.75 197.53 112.80 L 196.52 112.85 C 195.60 112.90 194.90 113.68 194.95 114.60 C 194.99 115.52 195.78 116.22 196.69 116.17 Z M 197.70 116.11 L 198.68 116.06 C 199.59 116.02 200.29 115.24 200.24 114.33 C 200.20 113.42 199.42 112.71 198.51 112.76 L 197.54 112.81 C 196.62 112.85 195.92 113.63 195.97 114.54 C 196.01 115.45 196.79 116.16 197.70 116.11 Z M 198.67 116.05 L 199.66 116.00 C 200.57 115.96 201.26 115.19 201.22 114.28 C 201.17 113.37 200.40 112.67 199.50 112.72 L 198.51 112.77 C 197.60 112.81 196.90 113.58 196.95 114.49 C 197.00 115.40 197.77 116.10 198.67 116.05 Z M 199.65 115.99 L 200.66 115.94 C 201.56 115.90 202.25 115.14 202.21 114.24 C 202.17 113.33 201.40 112.64 200.50 112.68 L 199.50 112.73 C 198.60 112.77 197.90 113.54 197.95 114.44 C 197.99 115.34 198.75 116.04 199.65 115.99 Z M 200.64 115.93 L 201.63 115.90 C 202.53 115.86 203.23 115.11 203.19 114.21 C 203.16 113.32 202.40 112.62 201.51 112.65 L 200.52 112.69 C 199.62 112.73 198.92 113.48 198.96 114.38 C 198.99 115.27 199.75 115.97 200.64 115.93 Z M 201.61 115.88 L 202.64 115.86 C 203.53 115.84 204.23 115.10 204.21 114.21 C 204.19 113.32 203.45 112.62 202.57 112.64 L 201.53 112.67 C 200.64 112.69 199.94 113.43 199.96 114.31 C 199.98 115.20 200.72 115.90 201.61 115.88 Z M 202.62 115.84 L 203.65 115.83 C 204.53 115.83 205.23 115.11 205.23 114.23 C 205.22 113.35 204.50 112.65 203.62 112.65 L 202.59 112.66 C 201.71 112.67 201.01 113.38 201.01 114.26 C 201.02 115.14 201.74 115.85 202.62 115.84 Z M 203.63 115.81 L 204.57 115.82 C 205.44 115.82 206.15 115.12 206.15 114.26 C 206.16 113.39 205.46 112.68 204.59 112.68 L 203.65 112.67 C 202.78 112.67 202.07 113.37 202.07 114.23 C 202.06 115.10 202.76 115.81 203.63 115.81 Z M 204.51 115.79 L 205.61 115.84 C 206.46 115.88 207.18 115.22 207.22 114.37 C 207.26 113.52 206.60 112.80 205.75 112.76 L 204.65 112.71 C 203.80 112.67 203.08 113.33 203.04 114.18 C 203.00 115.03 203.66 115.75 204.51 115.79 Z M 205.20 115.72 L 206.02 116.01 C 206.81 116.27 207.67 115.85 207.93 115.06 C 208.20 114.28 207.78 113.42 206.99 113.15 L 206.16 112.87 C 205.38 112.61 204.52 113.03 204.25 113.81 C 203.99 114.60 204.41 115.46 205.20 115.72 Z M 205.24 115.33 L 205.74 116.18 C 206.16 116.88 207.06 117.11 207.76 116.69 C 208.46 116.28 208.69 115.37 208.28 114.67 L 207.77 113.83 C 207.36 113.13 206.45 112.90 205.75 113.31 C 205.05 113.73 204.82 114.63 205.24 115.33 Z M 205.69 114.83 L 205.33 115.63 C 205.00 116.36 205.33 117.22 206.06 117.54 C 206.79 117.87 207.65 117.55 207.98 116.82 L 208.33 116.02 C 208.66 115.29 208.34 114.43 207.61 114.10 C 206.88 113.77 206.02 114.10 205.69 114.83 Z M 205.82 115.06 L 205.04 115.62 C 204.39 116.08 204.25 116.98 204.71 117.62 C 205.17 118.26 206.07 118.41 206.71 117.95 L 207.49 117.39 C 208.13 116.92 208.28 116.03 207.82 115.39 C 207.35 114.74 206.46 114.60 205.82 115.06 Z"
      fill="black"
      fill-rule="nonzero" /><path d="M 91.64 179.43 L 91.14 180.30 C 90.72 181.01 90.96 181.92 91.67 182.33 C 92.38 182.74 93.29 182.50 93.70 181.79 L 94.21 180.92 C 94.62 180.21 94.38 179.30 93.67 178.89 C 92.97 178.48 92.06 178.72 91.64 179.43 Z M 90.96 180.63 L 90.69 181.57 C 90.47 182.38 90.93 183.22 91.74 183.45 C 92.55 183.67 93.38 183.21 93.61 182.40 L 93.88 181.46 C 94.11 180.65 93.64 179.82 92.83 179.59 C 92.03 179.36 91.19 179.83 90.96 180.63 Z M 90.63 182.17 L 90.74 183.15 C 90.84 183.99 91.60 184.59 92.45 184.50 C 93.29 184.40 93.89 183.63 93.79 182.79 L 93.68 181.81 C 93.58 180.97 92.82 180.36 91.97 180.46 C 91.13 180.56 90.53 181.32 90.63 182.17 Z M 90.81 183.48 L 91.14 184.43 C 91.42 185.23 92.30 185.66 93.11 185.38 C 93.91 185.10 94.34 184.21 94.06 183.41 L 93.73 182.46 C 93.44 181.65 92.56 181.23 91.76 181.51 C 90.95 181.79 90.53 182.67 90.81 183.48 Z M 91.20 184.58 L 91.63 185.51 C 91.99 186.28 92.92 186.62 93.69 186.26 C 94.47 185.89 94.80 184.97 94.44 184.19 L 94.00 183.26 C 93.64 182.49 92.72 182.15 91.94 182.51 C 91.17 182.88 90.83 183.80 91.20 184.58 Z M 91.65 185.56 L 92.09 186.41 C 92.48 187.18 93.42 187.48 94.18 187.09 C 94.95 186.69 95.25 185.76 94.86 184.99 L 94.42 184.14 C 94.03 183.38 93.09 183.08 92.33 183.47 C 91.56 183.86 91.26 184.80 91.65 185.56 Z M 92.08 186.39 L 92.51 187.27 C 92.89 188.04 93.82 188.37 94.59 187.99 C 95.36 187.61 95.68 186.68 95.31 185.91 L 94.87 185.02 C 94.50 184.25 93.56 183.93 92.79 184.30 C 92.02 184.68 91.70 185.61 92.08 186.39 Z M 92.50 187.25 L 92.92 188.16 C 93.29 188.94 94.22 189.28 95.00 188.91 C 95.77 188.55 96.11 187.62 95.75 186.84 L 95.32 185.93 C 94.95 185.15 94.02 184.81 93.25 185.18 C 92.47 185.54 92.13 186.47 92.50 187.25 Z M 92.91 188.15 L 93.33 189.06 C 93.69 189.84 94.61 190.19 95.39 189.83 C 96.18 189.47 96.52 188.55 96.17 187.76 L 95.75 186.85 C 95.40 186.07 94.47 185.72 93.69 186.08 C 92.90 186.44 92.56 187.36 92.91 188.15 Z M 93.32 189.04 L 93.72 189.96 C 94.07 190.75 94.99 191.10 95.78 190.76 C 96.57 190.41 96.93 189.49 96.58 188.70 L 96.18 187.78 C 95.83 186.99 94.91 186.63 94.12 186.98 C 93.33 187.33 92.97 188.25 93.32 189.04 Z M 93.71 189.94 L 94.10 190.85 C 94.43 191.64 95.35 192.01 96.15 191.68 C 96.94 191.34 97.31 190.42 96.98 189.63 L 96.59 188.72 C 96.25 187.92 95.34 187.55 94.54 187.89 C 93.75 188.23 93.38 189.14 93.71 189.94 Z M 94.09 190.84 L 94.48 191.77 C 94.81 192.57 95.72 192.95 96.52 192.62 C 97.32 192.29 97.70 191.38 97.37 190.58 L 96.98 189.64 C 96.65 188.84 95.74 188.46 94.94 188.79 C 94.14 189.12 93.76 190.04 94.09 190.84 Z M 94.47 191.76 L 94.83 192.65 C 95.15 193.46 96.07 193.85 96.87 193.52 C 97.67 193.20 98.06 192.29 97.74 191.49 L 97.38 190.59 C 97.06 189.79 96.14 189.40 95.34 189.72 C 94.54 190.04 94.15 190.96 94.47 191.76 Z M 94.82 192.62 L 95.18 193.58 C 95.48 194.39 96.38 194.80 97.20 194.50 C 98.01 194.19 98.42 193.29 98.11 192.48 L 97.75 191.52 C 97.45 190.71 96.54 190.30 95.73 190.60 C 94.92 190.91 94.51 191.81 94.82 192.62 Z M 95.16 193.53 L 95.48 194.48 C 95.76 195.30 96.65 195.74 97.47 195.46 C 98.29 195.18 98.73 194.29 98.45 193.47 L 98.13 192.53 C 97.85 191.71 96.96 191.27 96.14 191.55 C 95.32 191.82 94.88 192.71 95.16 193.53 Z M 95.47 194.44 L 95.77 195.40 C 96.02 196.23 96.90 196.69 97.73 196.43 C 98.56 196.17 99.02 195.29 98.76 194.47 L 98.46 193.51 C 98.21 192.68 97.33 192.22 96.50 192.48 C 95.67 192.74 95.21 193.62 95.47 194.44 Z M 95.76 195.38 L 96.05 196.35 C 96.29 197.18 97.16 197.66 97.99 197.42 C 98.83 197.17 99.30 196.30 99.06 195.47 L 98.77 194.49 C 98.53 193.66 97.65 193.18 96.82 193.43 C 95.99 193.67 95.51 194.54 95.76 195.38 Z M 96.04 196.34 L 96.31 197.30 C 96.55 198.14 97.42 198.62 98.26 198.38 C 99.09 198.15 99.57 197.28 99.34 196.44 L 99.06 195.48 C 98.82 194.65 97.96 194.16 97.12 194.40 C 96.29 194.64 95.80 195.51 96.04 196.34 Z M 96.31 197.29 L 96.57 198.25 C 96.80 199.08 97.66 199.58 98.50 199.35 C 99.34 199.12 99.83 198.26 99.60 197.42 L 99.34 196.46 C 99.11 195.62 98.25 195.13 97.41 195.36 C 96.57 195.58 96.08 196.45 96.31 197.29 Z M 96.56 198.22 L 96.81 199.19 C 97.03 200.04 97.88 200.54 98.72 200.33 C 99.56 200.12 100.07 199.26 99.86 198.42 L 99.61 197.45 C 99.40 196.60 98.54 196.09 97.70 196.31 C 96.86 196.52 96.35 197.38 96.56 198.22 Z M 96.80 199.16 L 97.03 200.12 C 97.22 200.97 98.07 201.49 98.91 201.30 C 99.76 201.10 100.29 200.26 100.09 199.41 L 99.87 198.45 C 99.67 197.60 98.82 197.08 97.98 197.28 C 97.13 197.47 96.61 198.32 96.80 199.16 Z M 97.02 200.10 L 97.23 201.07 C 97.41 201.92 98.25 202.46 99.10 202.28 C 99.95 202.10 100.49 201.26 100.31 200.41 L 100.10 199.43 C 99.91 198.59 99.08 198.05 98.23 198.23 C 97.38 198.41 96.84 199.25 97.02 200.10 Z M 97.23 201.06 L 97.43 202.05 C 97.60 202.90 98.43 203.45 99.28 203.28 C 100.14 203.10 100.69 202.27 100.51 201.42 L 100.31 200.43 C 100.14 199.58 99.30 199.03 98.45 199.20 C 97.60 199.37 97.05 200.20 97.23 201.06 Z M 97.43 202.04 L 97.62 203.02 C 97.79 203.87 98.62 204.43 99.47 204.26 C 100.32 204.09 100.88 203.26 100.71 202.41 L 100.51 201.43 C 100.35 200.58 99.52 200.02 98.67 200.19 C 97.81 200.36 97.26 201.19 97.43 202.04 Z M 97.62 203.01 L 97.80 203.99 C 97.97 204.85 98.79 205.41 99.65 205.24 C 100.50 205.08 101.06 204.26 100.90 203.40 L 100.71 202.42 C 100.55 201.57 99.72 201.01 98.87 201.17 C 98.01 201.33 97.45 202.16 97.62 203.01 Z M 97.80 203.98 L 97.98 204.97 C 98.14 205.82 98.96 206.39 99.81 206.24 C 100.67 206.08 101.24 205.26 101.08 204.40 L 100.90 203.42 C 100.75 202.56 99.93 201.99 99.07 202.15 C 98.21 202.30 97.65 203.12 97.80 203.98 Z M 97.98 204.95 L 98.14 205.93 C 98.29 206.79 99.10 207.36 99.96 207.22 C 100.82 207.07 101.40 206.26 101.25 205.40 L 101.08 204.42 C 100.94 203.56 100.12 202.99 99.27 203.13 C 98.41 203.28 97.83 204.09 97.98 204.95 Z M 98.14 205.91 L 98.30 206.89 C 98.43 207.75 99.24 208.34 100.10 208.20 C 100.96 208.06 101.55 207.26 101.41 206.40 L 101.25 205.42 C 101.12 204.56 100.31 203.97 99.45 204.11 C 98.59 204.25 98.00 205.05 98.14 205.91 Z M 98.30 206.88 L 98.45 207.88 C 98.58 208.74 99.38 209.33 100.24 209.19 C 101.10 209.06 101.69 208.26 101.56 207.40 L 101.41 206.40 C 101.28 205.54 100.47 204.95 99.61 205.09 C 98.75 205.22 98.16 206.02 98.30 206.88 Z M 98.45 207.87 L 98.60 208.88 C 98.73 209.74 99.54 210.33 100.40 210.20 C 101.26 210.07 101.85 209.27 101.72 208.41 L 101.56 207.40 C 101.43 206.54 100.63 205.95 99.77 206.08 C 98.91 206.21 98.32 207.01 98.45 207.87 Z M 98.60 208.88 L 98.75 209.89 C 98.88 210.75 99.69 211.35 100.55 211.21 C 101.41 211.08 102.00 210.28 101.87 209.42 L 101.72 208.41 C 101.59 207.55 100.78 206.95 99.92 207.09 C 99.06 207.22 98.47 208.02 98.60 208.88 Z M 98.75 209.89 L 98.90 210.88 C 99.03 211.75 99.83 212.34 100.69 212.21 C 101.56 212.08 102.15 211.28 102.02 210.42 L 101.87 209.42 C 101.74 208.56 100.94 207.97 100.08 208.10 C 99.22 208.22 98.62 209.03 98.75 209.89 Z M 98.90 210.87 L 99.04 211.84 C 99.16 212.70 99.96 213.30 100.82 213.18 C 101.68 213.05 102.28 212.25 102.16 211.39 L 102.02 210.43 C 101.90 209.57 101.10 208.97 100.24 209.09 C 99.38 209.21 98.78 210.01 98.90 210.87 Z M 99.03 211.82 L 99.17 212.87 C 99.29 213.74 100.08 214.35 100.94 214.23 C 101.81 214.12 102.42 213.33 102.30 212.46 L 102.16 211.41 C 102.05 210.54 101.26 209.94 100.39 210.05 C 99.53 210.16 98.92 210.96 99.03 211.82 Z M 99.17 212.86 L 99.29 213.83 C 99.39 214.69 100.17 215.31 101.04 215.21 C 101.91 215.10 102.52 214.32 102.42 213.45 L 102.30 212.48 C 102.20 211.62 101.42 211.00 100.55 211.10 C 99.68 211.21 99.07 211.99 99.17 212.86 Z M 99.28 213.81 L 99.39 214.78 C 99.48 215.64 100.26 216.27 101.13 216.18 C 102.00 216.08 102.62 215.30 102.53 214.43 L 102.42 213.47 C 102.33 212.60 101.55 211.98 100.68 212.07 C 99.81 212.16 99.19 212.94 99.28 213.81 Z M 99.39 214.77 L 99.49 215.78 C 99.58 216.65 100.36 217.28 101.22 217.19 C 102.09 217.10 102.72 216.33 102.63 215.46 L 102.53 214.44 C 102.44 213.58 101.66 212.95 100.80 213.03 C 99.93 213.12 99.30 213.90 99.39 214.77 Z M 99.49 215.79 L 99.59 216.74 C 99.68 217.61 100.46 218.24 101.33 218.15 C 102.19 218.06 102.82 217.28 102.73 216.41 L 102.63 215.46 C 102.54 214.59 101.77 213.96 100.90 214.05 C 100.03 214.14 99.40 214.92 99.49 215.79 Z M 99.59 216.76 L 99.71 217.78 C 99.81 218.64 100.59 219.26 101.46 219.17 C 102.33 219.07 102.95 218.28 102.85 217.42 L 102.73 216.40 C 102.63 215.53 101.85 214.91 100.98 215.01 C 100.12 215.11 99.49 215.89 99.59 216.76 Z M 99.71 217.79 L 99.83 218.75 C 99.94 219.62 100.73 220.24 101.59 220.13 C 102.46 220.02 103.07 219.23 102.97 218.37 L 102.85 217.40 C 102.74 216.54 101.95 215.92 101.09 216.03 C 100.22 216.13 99.60 216.92 99.71 217.79 Z M 99.83 218.76 L 99.96 219.77 C 100.07 220.64 100.87 221.25 101.73 221.14 C 102.60 221.03 103.21 220.23 103.10 219.37 L 102.97 218.36 C 102.85 217.49 102.06 216.88 101.20 216.99 C 100.33 217.10 99.72 217.90 99.83 218.76 Z M 99.96 219.80 L 100.11 220.77 C 100.23 221.64 101.04 222.24 101.90 222.11 C 102.77 221.98 103.36 221.18 103.24 220.31 L 103.09 219.34 C 102.97 218.48 102.16 217.88 101.30 218.00 C 100.43 218.13 99.84 218.94 99.96 219.80 Z M 100.11 220.81 L 100.28 221.79 C 100.43 222.66 101.25 223.23 102.11 223.09 C 102.97 222.94 103.55 222.12 103.40 221.26 L 103.23 220.28 C 103.09 219.41 102.27 218.84 101.40 218.98 C 100.54 219.13 99.96 219.95 100.11 220.81 Z M 100.28 221.81 L 100.45 222.72 C 100.60 223.58 101.43 224.16 102.29 224.00 C 103.15 223.84 103.72 223.02 103.57 222.16 L 103.40 221.24 C 103.24 220.38 102.42 219.81 101.56 219.97 C 100.70 220.12 100.12 220.95 100.28 221.81 Z M 100.46 222.78 L 100.66 223.73 C 100.85 224.58 101.70 225.13 102.55 224.94 C 103.41 224.75 103.95 223.90 103.76 223.05 L 103.56 222.10 C 103.37 221.24 102.52 220.70 101.66 220.89 C 100.81 221.08 100.27 221.92 100.46 222.78 Z M 100.69 223.84 L 101.00 224.87 C 101.25 225.71 102.13 226.19 102.97 225.94 C 103.81 225.69 104.29 224.81 104.04 223.97 L 103.74 222.94 C 103.49 222.09 102.60 221.62 101.76 221.87 C 100.92 222.11 100.44 223.00 100.69 223.84 Z M 101.02 224.95 L 101.37 225.92 C 101.66 226.75 102.57 227.18 103.40 226.88 C 104.23 226.59 104.66 225.67 104.36 224.85 L 104.02 223.88 C 103.72 223.05 102.81 222.62 101.98 222.92 C 101.16 223.22 100.72 224.13 101.02 224.95 Z M 101.39 225.98 L 101.77 226.93 C 102.11 227.75 103.04 228.14 103.85 227.81 C 104.67 227.48 105.06 226.55 104.73 225.73 L 104.34 224.78 C 104.01 223.97 103.08 223.57 102.26 223.91 C 101.45 224.24 101.06 225.17 101.39 225.98 Z M 101.81 227.03 L 102.28 227.99 C 102.66 228.79 103.61 229.12 104.41 228.74 C 105.20 228.35 105.54 227.40 105.15 226.61 L 104.69 225.64 C 104.31 224.85 103.35 224.51 102.56 224.89 C 101.76 225.28 101.43 226.23 101.81 227.03 Z M 102.36 228.15 L 102.88 228.97 C 103.35 229.72 104.33 229.95 105.08 229.48 C 105.83 229.01 106.06 228.02 105.59 227.28 L 105.07 226.45 C 104.60 225.70 103.62 225.48 102.87 225.94 C 102.12 226.41 101.89 227.40 102.36 228.15 Z M 103.01 229.15 L 103.61 229.88 C 104.18 230.56 105.19 230.65 105.87 230.08 C 106.54 229.51 106.63 228.50 106.07 227.82 L 105.46 227.10 C 104.89 226.42 103.88 226.33 103.21 226.90 C 102.53 227.46 102.44 228.47 103.01 229.15 Z M 103.81 230.08 L 104.56 230.71 C 105.24 231.28 106.25 231.20 106.82 230.52 C 107.39 229.84 107.30 228.83 106.63 228.26 L 105.87 227.63 C 105.19 227.06 104.18 227.14 103.61 227.82 C 103.05 228.50 103.13 229.51 103.81 230.08 Z M 104.94 230.95 L 105.82 231.35 C 106.63 231.71 107.58 231.35 107.94 230.54 C 108.31 229.74 107.95 228.79 107.14 228.42 L 106.26 228.02 C 105.45 227.66 104.50 228.02 104.13 228.83 C 103.77 229.64 104.13 230.59 104.94 230.95 Z M 106.16 231.46 L 107.14 231.66 C 108.01 231.83 108.85 231.27 109.03 230.40 C 109.21 229.53 108.64 228.68 107.77 228.51 L 106.80 228.31 C 105.93 228.13 105.08 228.70 104.90 229.57 C 104.73 230.44 105.29 231.29 106.16 231.46 Z M 107.29 231.69 L 108.27 231.78 C 109.15 231.87 109.94 231.22 110.03 230.34 C 110.12 229.45 109.47 228.66 108.58 228.57 L 107.61 228.48 C 106.73 228.39 105.94 229.04 105.85 229.92 C 105.76 230.81 106.41 231.60 107.29 231.69 Z M 108.36 231.79 L 109.37 231.83 C 110.26 231.87 111.01 231.18 111.05 230.29 C 111.09 229.40 110.40 228.65 109.51 228.61 L 108.49 228.57 C 107.60 228.53 106.85 229.22 106.81 230.11 C 106.77 231.00 107.47 231.75 108.36 231.79 Z M 109.42 231.84 L 110.40 231.85 C 111.29 231.86 112.02 231.15 112.03 230.26 C 112.05 229.36 111.33 228.63 110.44 228.62 L 109.46 228.61 C 108.57 228.59 107.84 229.31 107.83 230.20 C 107.81 231.09 108.53 231.82 109.42 231.84 Z M 110.42 231.85 L 111.47 231.85 C 112.36 231.85 113.09 231.13 113.09 230.24 C 113.09 229.35 112.37 228.62 111.47 228.62 L 110.42 228.62 C 109.53 228.62 108.80 229.34 108.80 230.23 C 108.80 231.12 109.52 231.85 110.42 231.85 Z M 111.47 231.85 L 112.51 231.85 C 113.41 231.85 114.13 231.13 114.13 230.24 C 114.13 229.34 113.41 228.62 112.51 228.62 L 111.47 228.62 C 110.58 228.62 109.86 229.34 109.86 230.24 C 109.86 231.13 110.58 231.85 111.47 231.85 Z M 112.51 231.85 L 113.50 231.85 C 114.40 231.85 115.12 231.13 115.12 230.24 C 115.12 229.34 114.40 228.62 113.50 228.62 L 112.51 228.62 C 111.62 228.62 110.90 229.34 110.90 230.24 C 110.90 231.13 111.62 231.85 112.51 231.85 Z M 113.50 231.85 L 114.54 231.85 C 115.44 231.85 116.16 231.13 116.16 230.24 C 116.16 229.34 115.44 228.62 114.54 228.62 L 113.51 228.62 C 112.61 228.62 111.89 229.34 111.89 230.23 C 111.89 231.13 112.61 231.85 113.50 231.85 Z M 114.52 231.85 L 115.46 231.87 C 116.35 231.88 117.09 231.16 117.10 230.27 C 117.11 229.37 116.39 228.64 115.50 228.63 L 114.56 228.62 C 113.67 228.61 112.94 229.32 112.92 230.22 C 112.91 231.11 113.63 231.84 114.52 231.85 Z M 115.42 231.86 L 116.39 231.90 C 117.28 231.94 118.04 231.24 118.07 230.35 C 118.10 229.46 117.41 228.70 116.52 228.67 L 115.54 228.63 C 114.65 228.60 113.90 229.29 113.86 230.19 C 113.83 231.08 114.52 231.83 115.42 231.86 Z M 116.37 231.90 L 117.31 231.95 C 118.20 232.00 118.96 231.31 119.00 230.42 C 119.05 229.52 118.36 228.76 117.47 228.72 L 116.54 228.67 C 115.64 228.62 114.88 229.31 114.84 230.20 C 114.79 231.10 115.48 231.86 116.37 231.90 Z M 117.28 231.95 L 118.16 232.01 C 119.05 232.07 119.82 231.39 119.88 230.50 C 119.94 229.61 119.27 228.84 118.38 228.78 L 117.50 228.72 C 116.60 228.66 115.83 229.33 115.77 230.22 C 115.71 231.12 116.39 231.89 117.28 231.95 Z M 118.10 232.01 L 119.28 232.13 C 120.17 232.22 120.97 231.58 121.06 230.69 C 121.15 229.79 120.51 228.99 119.62 228.90 L 118.44 228.78 C 117.54 228.68 116.75 229.33 116.65 230.22 C 116.56 231.12 117.21 231.91 118.10 232.01 Z M 119.24 232.13 L 120.21 232.25 C 121.10 232.37 121.91 231.74 122.03 230.85 C 122.14 229.96 121.52 229.15 120.63 229.03 L 119.66 228.90 C 118.77 228.79 117.95 229.42 117.83 230.31 C 117.72 231.20 118.35 232.01 119.24 232.13 Z M 120.19 232.25 L 121.23 232.40 C 122.12 232.53 122.95 231.91 123.07 231.02 C 123.20 230.13 122.58 229.31 121.70 229.18 L 120.65 229.03 C 119.76 228.91 118.93 229.52 118.81 230.41 C 118.68 231.30 119.30 232.13 120.19 232.25 Z M 121.22 232.40 L 122.23 232.56 C 123.12 232.69 123.95 232.09 124.08 231.20 C 124.22 230.31 123.61 229.48 122.72 229.34 L 121.71 229.18 C 120.83 229.05 119.99 229.66 119.86 230.54 C 119.72 231.43 120.33 232.26 121.22 232.40 Z M 122.20 232.55 L 123.28 232.74 C 124.16 232.89 125.01 232.30 125.16 231.41 C 125.31 230.52 124.71 229.68 123.83 229.53 L 122.75 229.34 C 121.86 229.19 121.02 229.79 120.87 230.67 C 120.72 231.56 121.31 232.40 122.20 232.55 Z M 123.23 232.73 L 124.22 232.93 C 125.10 233.10 125.96 232.53 126.14 231.65 C 126.31 230.77 125.74 229.91 124.86 229.73 L 123.87 229.54 C 122.99 229.36 122.13 229.93 121.95 230.82 C 121.78 231.70 122.35 232.56 123.23 232.73 Z M 124.20 232.93 L 125.03 233.10 C 125.91 233.29 126.77 232.73 126.96 231.84 C 127.15 230.96 126.59 230.10 125.70 229.91 L 124.88 229.73 C 124.00 229.55 123.13 230.11 122.94 230.99 C 122.76 231.87 123.32 232.74 124.20 232.93 Z M 125.06 233.11 L 126.03 233.30 C 126.92 233.46 127.77 232.88 127.94 232.00 C 128.11 231.11 127.53 230.26 126.65 230.09 L 125.67 229.90 C 124.79 229.73 123.93 230.31 123.76 231.20 C 123.59 232.08 124.17 232.94 125.06 233.11 Z M 126.07 233.30 L 127.07 233.47 C 127.96 233.62 128.80 233.03 128.95 232.14 C 129.10 231.25 128.51 230.40 127.62 230.25 L 126.61 230.08 C 125.73 229.93 124.88 230.53 124.73 231.42 C 124.58 232.31 125.18 233.15 126.07 233.30 Z M 127.08 233.48 L 128.07 233.64 C 128.96 233.78 129.80 233.18 129.95 232.29 C 130.10 231.40 129.49 230.56 128.60 230.41 L 127.61 230.25 C 126.72 230.10 125.88 230.71 125.73 231.60 C 125.58 232.49 126.19 233.33 127.08 233.48 Z M 128.05 233.64 L 129.04 233.81 C 129.93 233.97 130.78 233.37 130.94 232.48 C 131.09 231.59 130.50 230.74 129.61 230.59 L 128.62 230.41 C 127.73 230.26 126.88 230.85 126.72 231.74 C 126.57 232.63 127.16 233.48 128.05 233.64 Z M 129.04 233.81 L 130.01 233.99 C 130.90 234.14 131.75 233.55 131.91 232.66 C 132.07 231.77 131.48 230.92 130.58 230.76 L 129.61 230.58 C 128.72 230.43 127.87 231.02 127.71 231.91 C 127.55 232.80 128.15 233.66 129.04 233.81 Z M 130.06 234.00 L 131.02 234.14 C 131.92 234.27 132.75 233.65 132.89 232.76 C 133.02 231.86 132.40 231.03 131.51 230.89 L 130.54 230.75 C 129.64 230.61 128.81 231.23 128.67 232.13 C 128.54 233.03 129.16 233.86 130.06 234.00 Z M 131.06 234.15 L 132.06 234.27 C 132.96 234.39 133.79 233.75 133.90 232.85 C 134.02 231.95 133.38 231.13 132.48 231.02 L 131.47 230.89 C 130.57 230.77 129.75 231.41 129.63 232.31 C 129.52 233.21 130.16 234.03 131.06 234.15 Z M 132.08 234.28 L 133.05 234.39 C 133.96 234.50 134.77 233.86 134.88 232.96 C 134.99 232.06 134.35 231.24 133.44 231.13 L 132.47 231.01 C 131.57 230.91 130.75 231.55 130.64 232.45 C 130.53 233.35 131.18 234.17 132.08 234.28 Z M 133.06 234.40 L 134.07 234.51 C 134.98 234.61 135.79 233.97 135.90 233.06 C 136.00 232.16 135.35 231.35 134.45 231.24 L 133.44 231.13 C 132.53 231.02 131.72 231.67 131.62 232.58 C 131.51 233.48 132.16 234.29 133.06 234.40 Z M 134.09 234.51 L 135.06 234.62 C 135.97 234.71 136.78 234.06 136.87 233.15 C 136.97 232.25 136.31 231.44 135.41 231.34 L 134.43 231.24 C 133.53 231.15 132.72 231.80 132.62 232.70 C 132.53 233.61 133.18 234.42 134.09 234.51 Z M 135.10 234.62 L 136.12 234.71 C 137.02 234.78 137.82 234.11 137.89 233.20 C 137.97 232.30 137.30 231.50 136.39 231.42 L 135.37 231.34 C 134.47 231.26 133.67 231.94 133.60 232.84 C 133.52 233.75 134.19 234.55 135.10 234.62 Z M 136.17 234.71 L 137.12 234.76 C 138.03 234.81 138.81 234.11 138.86 233.21 C 138.90 232.30 138.21 231.52 137.30 231.47 L 136.34 231.42 C 135.43 231.37 134.66 232.07 134.61 232.98 C 134.56 233.88 135.26 234.66 136.17 234.71 Z M 137.14 234.76 L 138.15 234.81 C 139.06 234.85 139.83 234.14 139.87 233.24 C 139.91 232.33 139.20 231.56 138.29 231.52 L 137.28 231.47 C 136.38 231.43 135.61 232.13 135.57 233.04 C 135.52 233.95 136.23 234.72 137.14 234.76 Z M 138.13 234.81 L 139.15 234.86 C 140.06 234.91 140.84 234.22 140.89 233.31 C 140.94 232.40 140.24 231.62 139.33 231.57 L 138.31 231.52 C 137.40 231.47 136.63 232.16 136.58 233.07 C 136.52 233.98 137.22 234.76 138.13 234.81 Z M 139.13 234.86 L 140.14 234.93 C 141.04 234.99 141.83 234.31 141.89 233.40 C 141.95 232.49 141.27 231.70 140.36 231.64 L 139.35 231.57 C 138.44 231.51 137.66 232.20 137.60 233.11 C 137.54 234.02 138.22 234.80 139.13 234.86 Z M 140.14 234.93 L 141.14 235.00 C 142.05 235.06 142.84 234.37 142.90 233.46 C 142.96 232.56 142.27 231.77 141.36 231.71 L 140.36 231.64 C 139.45 231.58 138.66 232.27 138.60 233.18 C 138.54 234.08 139.23 234.87 140.14 234.93 Z M 141.16 235.00 L 142.18 235.06 C 143.09 235.11 143.87 234.41 143.92 233.50 C 143.97 232.59 143.27 231.81 142.36 231.76 L 141.34 231.71 C 140.43 231.66 139.65 232.35 139.60 233.26 C 139.55 234.17 140.25 234.95 141.16 235.00 Z M 142.20 235.06 L 143.19 235.10 C 144.11 235.14 144.87 234.43 144.91 233.52 C 144.95 232.61 144.24 231.84 143.33 231.80 L 142.34 231.76 C 141.43 231.72 140.66 232.43 140.62 233.34 C 140.58 234.25 141.29 235.02 142.20 235.06 Z M 143.21 235.10 L 144.19 235.13 C 145.10 235.17 145.86 234.45 145.89 233.54 C 145.93 232.63 145.21 231.87 144.30 231.83 L 143.32 231.80 C 142.41 231.77 141.64 232.48 141.61 233.39 C 141.58 234.30 142.29 235.07 143.21 235.10 Z M 144.19 235.13 L 145.19 235.17 C 146.10 235.20 146.86 234.48 146.89 233.57 C 146.92 232.66 146.21 231.90 145.30 231.87 L 144.30 231.83 C 143.39 231.80 142.62 232.52 142.59 233.43 C 142.56 234.34 143.28 235.10 144.19 235.13 Z M 145.19 235.17 L 146.19 235.20 C 147.10 235.23 147.86 234.51 147.89 233.60 C 147.92 232.69 147.21 231.93 146.29 231.90 L 145.29 231.87 C 144.38 231.84 143.62 232.55 143.59 233.47 C 143.56 234.38 144.28 235.14 145.19 235.17 Z M 146.20 235.20 L 147.20 235.23 C 148.11 235.25 148.87 234.54 148.89 233.63 C 148.92 232.71 148.20 231.95 147.29 231.93 L 146.29 231.90 C 145.38 231.87 144.62 232.59 144.59 233.50 C 144.57 234.41 145.28 235.17 146.20 235.20 Z M 147.20 235.23 L 148.20 235.25 C 149.12 235.27 149.87 234.55 149.89 233.64 C 149.92 232.73 149.19 231.97 148.28 231.95 L 147.28 231.93 C 146.37 231.91 145.61 232.63 145.59 233.54 C 145.57 234.45 146.29 235.21 147.20 235.23 Z M 148.22 235.25 L 149.22 235.27 C 150.13 235.28 150.88 234.56 150.89 233.64 C 150.91 232.73 150.18 231.98 149.27 231.97 L 148.27 231.95 C 147.36 231.94 146.61 232.66 146.59 233.58 C 146.58 234.49 147.30 235.24 148.22 235.25 Z M 149.23 235.27 L 150.23 235.28 C 151.14 235.29 151.89 234.55 151.90 233.64 C 151.90 232.72 151.17 231.98 150.25 231.97 L 149.26 231.96 C 148.34 231.96 147.60 232.69 147.59 233.61 C 147.58 234.52 148.32 235.26 149.23 235.27 Z M 150.24 235.28 L 151.24 235.28 C 152.15 235.29 152.90 234.55 152.90 233.63 C 152.90 232.71 152.16 231.97 151.25 231.97 L 150.25 231.97 C 149.33 231.97 148.59 232.71 148.59 233.62 C 148.58 234.54 149.32 235.28 150.24 235.28 Z M 151.24 235.29 L 152.23 235.29 C 153.15 235.29 153.89 234.54 153.89 233.63 C 153.89 232.71 153.15 231.97 152.23 231.97 L 151.24 231.97 C 150.33 231.97 149.58 232.71 149.58 233.63 C 149.58 234.54 150.33 235.29 151.24 235.29 Z M 152.23 235.29 L 153.21 235.29 C 154.13 235.29 154.88 234.55 154.88 233.63 C 154.88 232.72 154.14 231.97 153.22 231.97 L 152.24 231.97 C 151.32 231.96 150.57 232.70 150.57 233.62 C 150.57 234.54 151.31 235.29 152.23 235.29 Z M 153.20 235.29 L 154.22 235.30 C 155.14 235.31 155.89 234.58 155.90 233.66 C 155.91 232.74 155.18 231.99 154.26 231.98 L 153.24 231.97 C 152.32 231.96 151.57 232.70 151.56 233.61 C 151.55 234.53 152.28 235.28 153.20 235.29 Z M 154.21 235.30 L 155.21 235.32 C 156.13 235.34 156.89 234.61 156.91 233.69 C 156.93 232.77 156.20 232.02 155.28 232.00 L 154.27 231.98 C 153.36 231.96 152.60 232.69 152.58 233.61 C 152.56 234.53 153.29 235.28 154.21 235.30 Z M 155.21 235.32 L 156.22 235.35 C 157.14 235.37 157.90 234.64 157.92 233.72 C 157.94 232.80 157.21 232.04 156.29 232.02 L 155.28 232.00 C 154.37 231.98 153.60 232.70 153.58 233.62 C 153.56 234.54 154.29 235.30 155.21 235.32 Z M 156.23 235.35 L 157.22 235.36 C 158.14 235.38 158.90 234.65 158.92 233.73 C 158.93 232.81 158.20 232.05 157.28 232.04 L 156.29 232.02 C 155.37 232.00 154.61 232.73 154.59 233.65 C 154.58 234.57 155.31 235.33 156.23 235.35 Z M 157.24 235.37 L 158.25 235.38 C 159.17 235.38 159.92 234.64 159.93 233.72 C 159.94 232.80 159.20 232.05 158.28 232.04 L 157.27 232.04 C 156.35 232.03 155.60 232.77 155.59 233.69 C 155.58 234.61 156.32 235.36 157.24 235.37 Z M 158.26 235.38 L 159.24 235.38 C 160.16 235.38 160.91 234.64 160.91 233.72 C 160.92 232.79 160.17 232.05 159.25 232.04 L 158.27 232.04 C 157.35 232.04 156.60 232.79 156.60 233.71 C 156.60 234.63 157.34 235.37 158.26 235.38 Z M 159.25 235.38 L 160.23 235.38 C 161.15 235.38 161.89 234.63 161.89 233.71 C 161.89 232.79 161.15 232.04 160.23 232.04 L 159.25 232.04 C 158.33 232.04 157.58 232.79 157.58 233.71 C 157.58 234.63 158.33 235.38 159.25 235.38 Z M 160.23 235.38 L 161.23 235.38 C 162.15 235.38 162.89 234.63 162.89 233.71 C 162.89 232.79 162.15 232.04 161.23 232.04 L 160.23 232.04 C 159.31 232.04 158.56 232.79 158.56 233.71 C 158.56 234.63 159.31 235.38 160.23 235.38 Z M 161.23 235.38 L 162.24 235.38 C 163.16 235.38 163.91 234.63 163.91 233.71 C 163.91 232.79 163.16 232.04 162.24 232.04 L 161.23 232.04 C 160.30 232.04 159.56 232.79 159.56 233.71 C 159.56 234.63 160.30 235.38 161.23 235.38 Z M 162.24 235.38 L 163.23 235.38 C 164.16 235.38 164.90 234.63 164.90 233.71 C 164.90 232.79 164.16 232.04 163.23 232.04 L 162.24 232.04 C 161.32 232.04 160.57 232.79 160.57 233.71 C 160.57 234.63 161.32 235.38 162.24 235.38 Z M 163.23 235.38 L 164.24 235.38 C 165.16 235.38 165.91 234.63 165.91 233.71 C 165.91 232.79 165.16 232.04 164.24 232.04 L 163.23 232.04 C 162.31 232.04 161.56 232.79 161.56 233.71 C 161.56 234.63 162.31 235.38 163.23 235.38 Z M 164.24 235.38 L 165.24 235.38 C 166.17 235.38 166.92 234.64 166.92 233.71 C 166.92 232.79 166.17 232.04 165.24 232.04 L 164.24 232.04 C 163.31 232.04 162.56 232.79 162.56 233.71 C 162.56 234.64 163.31 235.38 164.24 235.38 Z M 165.24 235.39 L 166.24 235.39 C 167.17 235.39 167.92 234.64 167.92 233.71 C 167.92 232.79 167.17 232.04 166.24 232.04 L 165.24 232.04 C 164.32 232.04 163.57 232.79 163.57 233.71 C 163.57 234.64 164.32 235.39 165.24 235.39 Z M 166.24 235.39 L 167.24 235.39 C 168.17 235.39 168.92 234.64 168.92 233.71 C 168.92 232.79 168.17 232.04 167.24 232.04 L 166.24 232.04 C 165.32 232.04 164.57 232.79 164.57 233.71 C 164.57 234.64 165.32 235.39 166.24 235.39 Z M 167.24 235.39 L 168.23 235.39 C 169.16 235.39 169.91 234.64 169.91 233.71 C 169.91 232.79 169.16 232.04 168.23 232.04 L 167.24 232.04 C 166.32 232.04 165.57 232.79 165.57 233.71 C 165.57 234.64 166.32 235.39 167.24 235.39 Z M 168.23 235.39 L 169.23 235.39 C 170.15 235.39 170.90 234.64 170.90 233.71 C 170.90 232.79 170.15 232.03 169.23 232.03 L 168.23 232.03 C 167.31 232.03 166.55 232.79 166.55 233.71 C 166.55 234.64 167.31 235.39 168.23 235.39 Z M 169.23 235.39 L 170.24 235.39 C 171.17 235.39 171.92 234.64 171.92 233.71 C 171.92 232.79 171.17 232.03 170.24 232.03 L 169.23 232.03 C 168.30 232.03 167.55 232.79 167.55 233.71 C 167.55 234.64 168.30 235.39 169.23 235.39 Z M 170.24 235.39 L 171.26 235.39 C 172.19 235.39 172.94 234.64 172.94 233.71 C 172.94 232.79 172.19 232.03 171.26 232.03 L 170.24 232.03 C 169.32 232.03 168.56 232.79 168.56 233.71 C 168.56 234.64 169.32 235.39 170.24 235.39 Z M 171.26 235.39 L 172.27 235.39 C 173.19 235.39 173.94 234.64 173.94 233.71 C 173.94 232.79 173.19 232.03 172.27 232.03 L 171.26 232.03 C 170.33 232.03 169.58 232.79 169.58 233.71 C 169.58 234.64 170.33 235.39 171.26 235.39 Z M 172.27 235.39 L 173.26 235.39 C 174.19 235.39 174.94 234.64 174.94 233.71 C 174.94 232.79 174.19 232.03 173.26 232.03 L 172.27 232.03 C 171.34 232.03 170.59 232.79 170.59 233.71 C 170.59 234.64 171.34 235.39 172.27 235.39 Z M 173.26 235.39 L 174.28 235.39 C 175.21 235.39 175.96 234.64 175.96 233.71 C 175.96 232.79 175.21 232.03 174.28 232.03 L 173.26 232.03 C 172.34 232.03 171.59 232.79 171.59 233.71 C 171.59 234.64 172.34 235.39 173.26 235.39 Z M 174.28 235.39 L 175.25 235.39 C 176.17 235.39 176.93 234.64 176.93 233.71 C 176.93 232.79 176.17 232.04 175.25 232.04 L 174.28 232.04 C 173.36 232.04 172.61 232.79 172.61 233.71 C 172.61 234.64 173.36 235.39 174.28 235.39 Z M 175.25 235.39 L 176.25 235.39 C 177.18 235.39 177.92 234.63 177.92 233.71 C 177.92 232.78 177.17 232.03 176.24 232.03 L 175.25 232.04 C 174.32 232.04 173.57 232.79 173.57 233.71 C 173.57 234.64 174.33 235.39 175.25 235.39 Z M 176.27 235.39 L 177.27 235.37 C 178.19 235.36 178.93 234.60 178.92 233.68 C 178.91 232.75 178.15 232.01 177.22 232.02 L 176.23 232.03 C 175.30 232.05 174.56 232.81 174.57 233.73 C 174.58 234.66 175.34 235.40 176.27 235.39 Z M 177.31 235.37 L 178.30 235.34 C 179.23 235.30 179.95 234.53 179.92 233.60 C 179.88 232.67 179.11 231.95 178.18 231.99 L 177.18 232.02 C 176.26 232.06 175.53 232.83 175.57 233.76 C 175.60 234.68 176.38 235.41 177.31 235.37 Z M 178.34 235.33 L 179.34 235.28 C 180.26 235.22 180.97 234.43 180.91 233.50 C 180.86 232.58 180.07 231.87 179.14 231.93 L 178.14 231.99 C 177.22 232.04 176.51 232.84 176.57 233.76 C 176.62 234.68 177.42 235.39 178.34 235.33 Z M 179.36 235.27 L 180.35 235.21 C 181.27 235.14 181.97 234.34 181.91 233.42 C 181.84 232.49 181.04 231.80 180.12 231.86 L 179.12 231.93 C 178.20 231.99 177.50 232.80 177.57 233.72 C 177.63 234.64 178.43 235.34 179.36 235.27 Z M 180.35 235.20 L 181.35 235.13 C 182.27 235.07 182.96 234.26 182.90 233.34 C 182.83 232.41 182.03 231.72 181.10 231.79 L 180.11 231.86 C 179.19 231.93 178.49 232.73 178.56 233.65 C 178.63 234.58 179.43 235.27 180.35 235.20 Z M 181.34 235.13 L 182.34 235.06 C 183.27 235.00 183.96 234.20 183.90 233.27 C 183.83 232.35 183.03 231.65 182.11 231.72 L 181.11 231.79 C 180.18 231.85 179.49 232.65 179.55 233.58 C 179.62 234.50 180.42 235.20 181.34 235.13 Z M 182.34 235.06 L 183.30 235.00 C 184.23 234.94 184.93 234.14 184.87 233.22 C 184.81 232.29 184.01 231.59 183.08 231.65 L 182.12 231.72 C 181.19 231.78 180.49 232.57 180.55 233.50 C 180.61 234.42 181.41 235.12 182.34 235.06 Z M 183.29 235.00 L 184.31 234.94 C 185.23 234.88 185.94 234.09 185.88 233.16 C 185.83 232.24 185.03 231.54 184.11 231.59 L 183.09 231.65 C 182.17 231.71 181.46 232.50 181.52 233.43 C 181.57 234.35 182.37 235.06 183.29 235.00 Z M 184.30 234.94 L 185.31 234.88 C 186.24 234.83 186.95 234.04 186.89 233.11 C 186.84 232.19 186.05 231.48 185.12 231.53 L 184.11 231.59 C 183.19 231.64 182.48 232.43 182.53 233.36 C 182.59 234.28 183.38 234.99 184.30 234.94 Z M 185.31 234.88 L 186.32 234.83 C 187.25 234.78 187.95 233.98 187.90 233.06 C 187.85 232.13 187.06 231.43 186.14 231.48 L 185.13 231.53 C 184.20 231.58 183.49 232.38 183.54 233.30 C 183.60 234.23 184.39 234.93 185.31 234.88 Z M 186.33 234.83 L 187.32 234.77 C 188.25 234.72 188.95 233.92 188.90 233.00 C 188.84 232.07 188.05 231.37 187.13 231.42 L 186.13 231.48 C 185.21 231.53 184.50 232.32 184.55 233.25 C 184.61 234.17 185.40 234.88 186.33 234.83 Z M 187.33 234.77 L 188.36 234.70 C 189.28 234.65 189.98 233.85 189.92 232.92 C 189.87 232.00 189.07 231.30 188.15 231.36 L 187.12 231.42 C 186.19 231.48 185.49 232.28 185.55 233.20 C 185.61 234.12 186.40 234.83 187.33 234.77 Z M 188.35 234.70 L 189.34 234.64 C 190.26 234.59 190.97 233.79 190.91 232.87 C 190.85 231.94 190.06 231.24 189.13 231.30 L 188.15 231.36 C 187.22 231.41 186.52 232.21 186.58 233.13 C 186.63 234.06 187.43 234.76 188.35 234.70 Z M 189.32 234.65 L 190.30 234.60 C 191.23 234.55 191.94 233.77 191.89 232.84 C 191.85 231.92 191.06 231.20 190.14 231.25 L 189.15 231.29 C 188.23 231.34 187.51 232.13 187.56 233.05 C 187.60 233.98 188.39 234.69 189.32 234.65 Z M 190.29 234.60 L 191.29 234.56 C 192.21 234.52 192.93 233.74 192.89 232.81 C 192.86 231.89 192.07 231.17 191.15 231.20 L 190.15 231.25 C 189.22 231.28 188.50 232.07 188.54 232.99 C 188.58 233.92 189.36 234.64 190.29 234.60 Z M 191.31 234.56 L 192.31 234.50 C 193.23 234.45 193.94 233.66 193.89 232.74 C 193.84 231.81 193.05 231.10 192.13 231.15 L 191.13 231.21 C 190.20 231.26 189.49 232.05 189.54 232.97 C 189.59 233.90 190.38 234.61 191.31 234.56 Z M 192.35 234.50 L 193.34 234.42 C 194.27 234.35 194.96 233.54 194.88 232.62 C 194.81 231.70 194.01 231.01 193.08 231.08 L 192.09 231.16 C 191.16 231.23 190.47 232.03 190.54 232.96 C 190.62 233.88 191.42 234.57 192.35 234.50 Z M 193.37 234.42 L 194.36 234.33 C 195.29 234.24 195.96 233.42 195.88 232.50 C 195.79 231.58 194.97 230.90 194.05 230.99 L 193.06 231.08 C 192.13 231.17 191.46 231.98 191.54 232.91 C 191.63 233.83 192.45 234.51 193.37 234.42 Z M 194.37 234.33 L 195.37 234.23 C 196.29 234.14 196.97 233.32 196.88 232.40 C 196.79 231.47 195.96 230.80 195.04 230.89 L 194.04 230.99 C 193.12 231.08 192.45 231.90 192.54 232.82 C 192.63 233.74 193.45 234.42 194.37 234.33 Z M 195.38 234.23 L 196.37 234.12 C 197.30 234.03 197.97 233.21 197.87 232.28 C 197.78 231.36 196.95 230.69 196.03 230.79 L 195.03 230.89 C 194.11 230.99 193.44 231.81 193.54 232.73 C 193.63 233.65 194.46 234.32 195.38 234.23 Z M 196.39 234.12 L 197.38 234.01 C 198.30 233.90 198.96 233.07 198.85 232.15 C 198.75 231.23 197.92 230.57 197.00 230.68 L 196.01 230.79 C 195.09 230.90 194.43 231.73 194.54 232.65 C 194.64 233.57 195.47 234.23 196.39 234.12 Z M 197.40 234.01 L 198.39 233.88 C 199.31 233.76 199.95 232.92 199.83 232.00 C 199.72 231.08 198.87 230.43 197.96 230.55 L 196.97 230.68 C 196.05 230.80 195.41 231.64 195.53 232.56 C 195.64 233.48 196.49 234.13 197.40 234.01 Z M 198.40 233.88 L 199.41 233.74 C 200.32 233.61 200.96 232.76 200.83 231.84 C 200.70 230.92 199.86 230.28 198.94 230.41 L 197.94 230.55 C 197.02 230.68 196.38 231.53 196.51 232.45 C 196.64 233.37 197.49 234.00 198.40 233.88 Z M 199.42 233.73 L 200.42 233.59 C 201.34 233.45 201.97 232.60 201.84 231.68 C 201.70 230.77 200.85 230.13 199.93 230.27 L 198.93 230.42 C 198.01 230.55 197.38 231.40 197.51 232.32 C 197.65 233.23 198.50 233.87 199.42 233.73 Z M 200.43 233.58 L 201.43 233.43 C 202.34 233.29 202.97 232.43 202.83 231.52 C 202.68 230.60 201.83 229.97 200.91 230.12 L 199.92 230.27 C 199.01 230.41 198.38 231.27 198.52 232.18 C 198.66 233.10 199.52 233.73 200.43 233.58 Z M 201.45 233.43 L 202.45 233.26 C 203.36 233.10 203.98 232.24 203.82 231.33 C 203.67 230.41 202.80 229.80 201.89 229.95 L 200.89 230.12 C 199.98 230.27 199.36 231.14 199.52 232.05 C 199.67 232.96 200.54 233.58 201.45 233.43 Z M 202.47 233.25 L 203.45 233.07 C 204.36 232.90 204.96 232.03 204.80 231.12 C 204.63 230.21 203.75 229.61 202.84 229.78 L 201.86 229.96 C 200.95 230.12 200.35 231.00 200.52 231.91 C 200.69 232.82 201.56 233.42 202.47 233.25 Z M 203.47 233.07 L 204.42 232.88 C 205.33 232.71 205.92 231.83 205.75 230.92 C 205.57 230.01 204.69 229.42 203.78 229.59 L 202.83 229.78 C 201.92 229.96 201.33 230.83 201.50 231.74 C 201.68 232.65 202.56 233.24 203.47 233.07 Z M 204.43 232.88 L 205.41 232.68 C 206.32 232.50 206.90 231.62 206.72 230.71 C 206.54 229.80 205.66 229.22 204.75 229.40 L 203.77 229.60 C 202.87 229.78 202.28 230.66 202.46 231.57 C 202.64 232.47 203.53 233.06 204.43 232.88 Z M 205.43 232.68 L 206.41 232.47 C 207.31 232.28 207.89 231.39 207.69 230.48 C 207.50 229.58 206.61 229.00 205.71 229.20 L 204.73 229.40 C 203.83 229.60 203.25 230.49 203.44 231.39 C 203.64 232.30 204.53 232.87 205.43 232.68 Z M 206.42 232.47 L 207.40 232.25 C 208.30 232.05 208.87 231.16 208.67 230.25 C 208.47 229.35 207.57 228.78 206.67 228.98 L 205.69 229.20 C 204.79 229.40 204.22 230.29 204.42 231.20 C 204.62 232.10 205.52 232.67 206.42 232.47 Z M 207.38 232.25 L 208.36 232.04 C 209.27 231.85 209.84 230.96 209.65 230.06 C 209.46 229.15 208.57 228.58 207.67 228.77 L 206.69 228.98 C 205.78 229.17 205.21 230.06 205.40 230.96 C 205.59 231.87 206.48 232.44 207.38 232.25 Z M 208.34 232.05 L 209.32 231.85 C 210.23 231.67 210.81 230.78 210.63 229.88 C 210.45 228.97 209.57 228.39 208.66 228.57 L 207.68 228.77 C 206.78 228.95 206.19 229.83 206.38 230.74 C 206.56 231.64 207.44 232.23 208.34 232.05 Z M 209.33 231.85 L 210.30 231.64 C 211.21 231.46 211.79 230.58 211.60 229.67 C 211.42 228.77 210.53 228.19 209.63 228.37 L 208.65 228.57 C 207.75 228.76 207.17 229.64 207.36 230.55 C 207.54 231.45 208.43 232.03 209.33 231.85 Z M 210.32 231.64 L 211.29 231.43 C 212.19 231.23 212.76 230.35 212.57 229.44 C 212.37 228.54 211.48 227.97 210.58 228.17 L 209.61 228.38 C 208.71 228.57 208.14 229.46 208.34 230.36 C 208.53 231.26 209.42 231.84 210.32 231.64 Z M 211.29 231.43 L 212.29 231.21 C 213.19 231.01 213.76 230.13 213.56 229.23 C 213.37 228.33 212.48 227.76 211.58 227.95 L 210.58 228.17 C 209.68 228.36 209.11 229.25 209.31 230.15 C 209.50 231.05 210.39 231.62 211.29 231.43 Z M 212.28 231.21 L 213.28 231.00 C 214.18 230.81 214.75 229.93 214.56 229.03 C 214.37 228.13 213.49 227.55 212.59 227.74 L 211.59 227.95 C 210.69 228.14 210.11 229.02 210.30 229.92 C 210.49 230.82 211.38 231.40 212.28 231.21 Z M 213.26 231.00 L 214.21 230.81 C 215.11 230.63 215.70 229.75 215.52 228.85 C 215.34 227.95 214.46 227.37 213.56 227.55 L 212.61 227.74 C 211.71 227.92 211.12 228.80 211.30 229.70 C 211.48 230.60 212.36 231.18 213.26 231.00 Z M 214.20 230.81 L 215.14 230.63 C 216.04 230.46 216.63 229.59 216.46 228.69 C 216.29 227.79 215.42 227.20 214.52 227.37 L 213.58 227.55 C 212.68 227.72 212.09 228.59 212.26 229.49 C 212.43 230.39 213.30 230.98 214.20 230.81 Z M 215.16 230.62 L 216.18 230.41 C 217.08 230.23 217.65 229.35 217.47 228.46 C 217.29 227.56 216.41 226.99 215.52 227.17 L 214.50 227.38 C 213.60 227.56 213.03 228.44 213.21 229.33 C 213.39 230.23 214.27 230.80 215.16 230.62 Z M 216.22 230.40 L 217.15 230.19 C 218.04 229.98 218.60 229.10 218.39 228.21 C 218.19 227.32 217.30 226.76 216.41 226.97 L 215.48 227.18 C 214.59 227.38 214.04 228.27 214.24 229.16 C 214.44 230.05 215.33 230.60 216.22 230.40 Z M 217.17 230.18 L 218.17 229.94 C 219.06 229.73 219.60 228.84 219.39 227.95 C 219.18 227.07 218.29 226.52 217.40 226.73 L 216.40 226.97 C 215.51 227.19 214.97 228.08 215.18 228.96 C 215.39 229.85 216.28 230.39 217.17 230.18 Z M 218.17 229.93 L 219.20 229.68 C 220.08 229.47 220.62 228.58 220.41 227.70 C 220.19 226.82 219.30 226.28 218.42 226.49 L 217.40 226.74 C 216.52 226.95 215.98 227.84 216.19 228.72 C 216.40 229.60 217.29 230.15 218.17 229.93 Z M 219.19 229.68 L 220.19 229.44 C 221.07 229.23 221.61 228.35 221.40 227.47 C 221.19 226.60 220.31 226.05 219.44 226.26 L 218.43 226.50 C 217.56 226.71 217.01 227.59 217.22 228.46 C 217.43 229.34 218.31 229.89 219.19 229.68 Z M 220.17 229.43 L 221.08 229.23 C 221.95 229.03 222.50 228.17 222.31 227.29 C 222.11 226.42 221.24 225.87 220.37 226.06 L 219.46 226.27 C 218.58 226.46 218.03 227.33 218.23 228.20 C 218.42 229.08 219.29 229.63 220.17 229.43 Z M 221.04 229.22 L 222.05 229.01 C 222.92 228.84 223.48 227.99 223.30 227.12 C 223.12 226.26 222.28 225.70 221.41 225.87 L 220.41 226.08 C 219.54 226.25 218.98 227.10 219.15 227.97 C 219.33 228.83 220.18 229.39 221.04 229.22 Z M 222.02 229.00 L 222.72 228.86 C 223.57 228.70 224.14 227.87 223.98 227.02 C 223.81 226.16 222.98 225.59 222.13 225.76 L 221.43 225.89 C 220.58 226.05 220.01 226.88 220.18 227.74 C 220.34 228.60 221.17 229.16 222.02 229.00 Z"
      fill="black"
      fill-rule="nonzero" /><path d="M 201.76 79.81 L 201.15 80.60 C 200.65 81.25 200.77 82.19 201.42 82.69 C 202.07 83.20 203.01 83.08 203.51 82.43 L 204.12 81.65 C 204.63 80.99 204.51 80.06 203.86 79.55 C 203.21 79.04 202.27 79.16 201.76 79.81 Z M 200.83 81.33 L 200.72 82.22 C 200.62 83.05 201.21 83.80 202.04 83.90 C 202.88 84.00 203.63 83.41 203.73 82.58 L 203.84 81.70 C 203.94 80.87 203.35 80.11 202.52 80.01 C 201.69 79.91 200.93 80.50 200.83 81.33 Z M 200.78 82.88 L 201.10 83.82 C 201.36 84.61 202.22 85.04 203.02 84.78 C 203.82 84.51 204.25 83.65 203.98 82.85 L 203.67 81.92 C 203.40 81.12 202.54 80.69 201.75 80.96 C 200.95 81.22 200.52 82.09 200.78 82.88 Z M 201.17 84.00 L 201.64 84.96 C 202.00 85.71 202.91 86.03 203.67 85.66 C 204.42 85.30 204.74 84.39 204.37 83.63 L 203.91 82.67 C 203.54 81.92 202.63 81.60 201.88 81.97 C 201.12 82.33 200.81 83.24 201.17 84.00 Z M 201.66 85.01 L 202.12 85.86 C 202.51 86.60 203.43 86.89 204.17 86.49 C 204.91 86.10 205.19 85.18 204.80 84.44 L 204.35 83.59 C 203.95 82.85 203.04 82.56 202.29 82.95 C 201.55 83.35 201.27 84.26 201.66 85.01 Z M 202.14 85.89 L 202.64 86.79 C 203.05 87.52 203.98 87.78 204.70 87.37 C 205.43 86.96 205.69 86.04 205.28 85.31 L 204.78 84.41 C 204.37 83.68 203.44 83.42 202.72 83.83 C 201.99 84.24 201.73 85.17 202.14 85.89 Z M 202.66 86.82 L 203.21 87.73 C 203.63 88.45 204.56 88.69 205.28 88.26 C 205.99 87.83 206.23 86.91 205.80 86.19 L 205.26 85.28 C 204.83 84.56 203.91 84.33 203.19 84.75 C 202.47 85.18 202.24 86.10 202.66 86.82 Z M 203.23 87.76 L 203.78 88.65 C 204.22 89.35 205.15 89.57 205.86 89.12 C 206.56 88.68 206.77 87.76 206.33 87.05 L 205.78 86.16 C 205.34 85.46 204.41 85.25 203.71 85.69 C 203.00 86.13 202.79 87.06 203.23 87.76 Z M 203.81 88.68 L 204.33 89.47 C 204.79 90.16 205.72 90.35 206.41 89.89 C 207.10 89.43 207.29 88.50 206.83 87.81 L 206.31 87.02 C 205.85 86.33 204.92 86.14 204.23 86.60 C 203.54 87.06 203.35 87.99 203.81 88.68 Z M 204.38 89.52 L 205.01 90.38 C 205.50 91.05 206.43 91.19 207.09 90.70 C 207.76 90.22 207.90 89.29 207.41 88.62 L 206.78 87.76 C 206.30 87.10 205.37 86.95 204.70 87.44 C 204.04 87.93 203.90 88.86 204.38 89.52 Z M 205.08 90.45 L 205.66 91.14 C 206.18 91.77 207.11 91.85 207.74 91.33 C 208.36 90.81 208.45 89.88 207.92 89.26 L 207.35 88.56 C 206.83 87.93 205.90 87.85 205.27 88.37 C 204.64 88.89 204.56 89.82 205.08 90.45 Z M 205.69 91.16 L 206.34 91.90 C 206.88 92.51 207.80 92.57 208.41 92.04 C 209.01 91.50 209.07 90.58 208.54 89.97 L 207.89 89.23 C 207.36 88.63 206.43 88.57 205.83 89.10 C 205.22 89.63 205.16 90.56 205.69 91.16 Z M 206.38 91.93 L 207.06 92.66 C 207.61 93.25 208.53 93.29 209.12 92.74 C 209.70 92.19 209.74 91.28 209.19 90.69 L 208.51 89.95 C 207.96 89.36 207.04 89.33 206.45 89.87 C 205.86 90.42 205.83 91.34 206.38 91.93 Z M 207.10 92.69 L 207.80 93.40 C 208.36 93.97 209.27 93.98 209.84 93.42 C 210.41 92.86 210.42 91.94 209.86 91.38 L 209.16 90.66 C 208.60 90.09 207.68 90.08 207.11 90.64 C 206.54 91.20 206.54 92.12 207.10 92.69 Z M 207.81 93.41 L 208.53 94.12 C 209.09 94.68 210.00 94.68 210.56 94.11 C 211.12 93.55 211.12 92.64 210.56 92.08 L 209.84 91.37 C 209.28 90.81 208.37 90.81 207.81 91.37 C 207.25 91.94 207.25 92.85 207.81 93.41 Z M 208.54 94.12 L 209.25 94.82 C 209.82 95.38 210.73 95.37 211.28 94.80 C 211.84 94.24 211.83 93.33 211.26 92.77 L 210.55 92.07 C 209.98 91.52 209.07 91.53 208.52 92.09 C 207.96 92.66 207.97 93.57 208.54 94.12 Z M 209.26 94.83 L 209.97 95.51 C 210.54 96.06 211.45 96.04 212.00 95.48 C 212.54 94.91 212.53 94.00 211.96 93.45 L 211.25 92.77 C 210.68 92.22 209.77 92.24 209.23 92.81 C 208.68 93.37 208.69 94.28 209.26 94.83 Z M 209.97 95.51 L 210.70 96.21 C 211.27 96.76 212.17 96.74 212.72 96.18 C 213.27 95.61 213.25 94.71 212.69 94.16 L 211.96 93.45 C 211.39 92.91 210.49 92.92 209.94 93.49 C 209.39 94.06 209.41 94.96 209.97 95.51 Z M 210.70 96.21 L 211.43 96.91 C 211.99 97.46 212.89 97.45 213.44 96.89 C 213.99 96.32 213.98 95.42 213.42 94.87 L 212.69 94.16 C 212.13 93.61 211.22 93.63 210.67 94.19 C 210.12 94.75 210.13 95.66 210.70 96.21 Z M 211.44 96.93 L 212.18 97.62 C 212.75 98.16 213.65 98.13 214.19 97.56 C 214.73 96.99 214.70 96.09 214.13 95.55 L 213.40 94.86 C 212.83 94.31 211.92 94.34 211.38 94.91 C 210.84 95.49 210.87 96.39 211.44 96.93 Z M 212.21 97.65 L 212.95 98.31 C 213.54 98.83 214.44 98.77 214.97 98.19 C 215.49 97.60 215.43 96.69 214.84 96.17 L 214.10 95.51 C 213.51 94.99 212.61 95.05 212.09 95.64 C 211.56 96.23 211.62 97.13 212.21 97.65 Z M 212.97 98.32 L 213.19 98.51 C 213.78 99.02 214.68 98.96 215.20 98.36 C 215.71 97.77 215.65 96.87 215.05 96.35 L 214.83 96.16 C 214.23 95.65 213.33 95.71 212.82 96.31 C 212.30 96.90 212.37 97.80 212.97 98.32 Z"
      fill="black"
      fill-rule="nonzero" /><path d="M 224.88 76.72 L 225.74 77.32 C 226.43 77.79 227.37 77.62 227.85 76.94 C 228.32 76.25 228.15 75.31 227.47 74.83 L 226.60 74.23 C 225.91 73.76 224.97 73.93 224.49 74.61 C 224.02 75.30 224.19 76.24 224.88 76.72 Z M 225.68 77.32 L 226.48 77.90 C 227.16 78.41 228.13 78.27 228.64 77.58 C 229.15 76.90 229.00 75.93 228.32 75.42 L 227.52 74.84 C 226.84 74.33 225.87 74.47 225.36 75.16 C 224.86 75.84 225.00 76.81 225.68 77.32 Z M 226.37 77.84 L 227.12 78.50 C 227.77 79.07 228.76 79.01 229.33 78.36 C 229.90 77.71 229.83 76.72 229.18 76.15 L 228.43 75.49 C 227.78 74.92 226.79 74.98 226.22 75.63 C 225.65 76.28 225.72 77.27 226.37 77.84 Z M 226.99 78.38 L 227.65 79.10 C 228.23 79.73 229.22 79.78 229.85 79.20 C 230.49 78.62 230.54 77.63 229.96 76.99 L 229.31 76.27 C 228.73 75.64 227.74 75.59 227.10 76.17 C 226.46 76.75 226.41 77.74 226.99 78.38 Z M 227.61 79.04 L 228.23 79.79 C 228.78 80.44 229.76 80.53 230.42 79.99 C 231.08 79.44 231.17 78.46 230.62 77.80 L 230.00 77.05 C 229.45 76.39 228.47 76.30 227.81 76.85 C 227.15 77.40 227.06 78.38 227.61 79.04 Z M 228.25 79.79 L 228.90 80.56 C 229.46 81.21 230.43 81.29 231.08 80.73 C 231.73 80.18 231.80 79.21 231.25 78.56 L 230.60 77.79 C 230.05 77.15 229.08 77.07 228.43 77.62 C 227.78 78.17 227.70 79.14 228.25 79.79 Z M 228.94 80.58 L 229.61 81.32 C 230.17 81.95 231.14 82.00 231.77 81.43 C 232.39 80.87 232.45 79.90 231.88 79.27 L 231.22 78.54 C 230.65 77.91 229.68 77.86 229.05 78.42 C 228.43 78.99 228.38 79.96 228.94 80.58 Z M 229.64 81.34 L 230.34 82.07 C 230.91 82.68 231.87 82.70 232.48 82.13 C 233.09 81.55 233.11 80.59 232.54 79.98 L 231.84 79.25 C 231.27 78.64 230.31 78.62 229.70 79.20 C 229.09 79.77 229.07 80.73 229.64 81.34 Z M 230.37 82.09 L 231.06 82.78 C 231.65 83.37 232.60 83.38 233.19 82.79 C 233.78 82.20 233.78 81.25 233.20 80.66 L 232.50 79.97 C 231.92 79.38 230.97 79.37 230.38 79.96 C 229.79 80.54 229.78 81.50 230.37 82.09 Z M 231.10 82.81 L 231.84 83.50 C 232.44 84.07 233.38 84.04 233.95 83.44 C 234.51 82.84 234.49 81.90 233.89 81.34 L 233.15 80.64 C 232.55 80.07 231.61 80.10 231.04 80.70 C 230.48 81.30 230.51 82.24 231.10 82.81 Z M 231.89 83.53 L 232.62 84.17 C 233.23 84.71 234.16 84.65 234.70 84.04 C 235.24 83.43 235.18 82.50 234.57 81.96 L 233.84 81.31 C 233.23 80.77 232.30 80.83 231.76 81.44 C 231.22 82.05 231.27 82.99 231.89 83.53 Z M 232.64 84.17 L 233.42 84.85 C 234.03 85.38 234.96 85.31 235.48 84.69 C 236.01 84.08 235.95 83.16 235.33 82.63 L 234.55 81.95 C 233.94 81.43 233.01 81.49 232.48 82.11 C 231.96 82.72 232.02 83.64 232.64 84.17 Z M 233.42 84.84 L 234.16 85.47 C 234.76 86.00 235.68 85.94 236.21 85.33 C 236.74 84.72 236.67 83.81 236.07 83.28 L 235.33 82.64 C 234.72 82.11 233.80 82.18 233.28 82.78 C 232.75 83.39 232.81 84.31 233.42 84.84 Z M 234.17 85.47 L 234.93 86.13 C 235.54 86.65 236.45 86.59 236.97 85.98 C 237.49 85.38 237.43 84.47 236.82 83.94 L 236.06 83.28 C 235.45 82.76 234.54 82.83 234.02 83.43 C 233.49 84.04 233.56 84.95 234.17 85.47 Z M 234.95 86.14 L 235.71 86.78 C 236.32 87.29 237.23 87.21 237.74 86.61 C 238.25 86.00 238.17 85.09 237.56 84.58 L 236.80 83.94 C 236.20 83.43 235.29 83.50 234.78 84.11 C 234.27 84.72 234.34 85.63 234.95 86.14 Z M 235.73 86.79 L 236.49 87.41 C 237.10 87.92 238.00 87.83 238.51 87.22 C 239.01 86.60 238.92 85.70 238.31 85.20 L 237.55 84.57 C 236.94 84.07 236.03 84.16 235.53 84.77 C 235.03 85.38 235.12 86.28 235.73 86.79 Z M 236.49 87.41 L 237.29 88.06 C 237.90 88.56 238.80 88.47 239.30 87.86 C 239.80 87.25 239.71 86.35 239.10 85.85 L 238.30 85.20 C 237.69 84.70 236.79 84.79 236.29 85.40 C 235.79 86.01 235.88 86.91 236.49 87.41 Z M 237.29 88.06 L 238.06 88.70 C 238.67 89.20 239.57 89.11 240.07 88.50 C 240.57 87.89 240.48 86.99 239.88 86.49 L 239.10 85.86 C 238.50 85.35 237.60 85.44 237.09 86.05 C 236.59 86.66 236.68 87.56 237.29 88.06 Z M 238.06 88.69 L 238.84 89.34 C 239.45 89.84 240.35 89.75 240.85 89.15 C 241.35 88.54 241.26 87.64 240.66 87.14 L 239.88 86.49 C 239.27 85.99 238.37 86.08 237.87 86.69 C 237.37 87.29 237.45 88.19 238.06 88.69 Z M 238.85 89.34 L 239.62 89.97 C 240.23 90.47 241.13 90.38 241.63 89.77 C 242.12 89.16 242.03 88.26 241.42 87.76 L 240.65 87.13 C 240.04 86.63 239.14 86.73 238.64 87.34 C 238.15 87.95 238.24 88.85 238.85 89.34 Z M 239.63 89.98 L 240.44 90.62 C 241.05 91.11 241.95 91.01 242.44 90.39 C 242.93 89.78 242.83 88.88 242.21 88.39 L 241.41 87.75 C 240.79 87.26 239.90 87.36 239.41 87.98 C 238.92 88.60 239.02 89.49 239.63 89.98 Z M 240.45 90.63 L 241.22 91.24 C 241.85 91.72 242.74 91.61 243.22 90.99 C 243.71 90.37 243.60 89.47 242.98 88.99 L 242.20 88.38 C 241.58 87.90 240.69 88.01 240.20 88.63 C 239.72 89.25 239.83 90.15 240.45 90.63 Z M 241.23 91.24 L 241.65 91.56 C 242.27 92.05 243.17 91.93 243.65 91.31 C 244.13 90.69 244.02 89.79 243.39 89.31 L 242.97 88.99 C 242.35 88.50 241.46 88.62 240.97 89.24 C 240.49 89.86 240.61 90.76 241.23 91.24 Z"
      fill="black"
      fill-rule="nonzero" /></svg>