<svg xmlns="http://www.w3.org/2000/svg" width="300" height="300" viewBox="0 0 300 300">
<path d="M 80.23 105.98 L 79.36 106.51 C 78.68 106.92 78.46 107.81 78.87 108.50 C 79.29 109.19 80.18 109.41 80.86 108.99 L 81.73 108.46 C 82.42 108.05 82.64 107.16 82.22 106.47 C 81.81 105.79 80.92 105.57 80.23 105.98 Z M 79.06 106.74 L 78.39 107.43 C 77.84 108.02 77.86 108.94 78.44 109.50 C 79.02 110.05 79.94 110.04 80.50 109.45 L 81.17 108.76 C 81.72 108.18 81.71 107.25 81.12 106.70 C 80.54 106.14 79.62 106.16 79.06 106.74 Z M 78.09 107.89 L 77.71 108.81 C 77.41 109.56 77.76 110.41 78.51 110.72 C 79.26 111.03 80.12 110.67 80.43 109.92 L 80.80 109.00 C 81.11 108.25 80.75 107.39 80.00 107.09 C 79.25 106.78 78.40 107.14 78.09 107.89 Z M 77.62 109.08 L 77.45 109.99 C 77.29 110.79 77.82 111.56 78.61 111.71 C 79.41 111.87 80.18 111.35 80.34 110.55 L 80.51 109.64 C 80.67 108.85 80.15 108.07 79.35 107.92 C 78.55 107.76 77.78 108.28 77.62 109.08 Z M 77.42 110.14 L 77.34 111.11 C 77.27 111.93 77.87 112.64 78.68 112.71 C 79.50 112.78 80.21 112.18 80.28 111.37 L 80.37 110.39 C 80.44 109.58 79.83 108.87 79.02 108.80 C 78.21 108.73 77.49 109.33 77.42 110.14 Z M 77.33 111.19 L 77.29 112.28 C 77.27 113.09 77.91 113.78 78.73 113.80 C 79.55 113.83 80.24 113.18 80.26 112.37 L 80.29 111.29 C 80.32 110.47 79.68 109.78 78.86 109.76 C 78.04 109.73 77.35 110.38 77.33 111.19 Z M 77.29 112.30 L 77.28 113.33 C 77.27 114.15 77.93 114.82 78.75 114.83 C 79.57 114.84 80.25 114.18 80.26 113.36 L 80.27 112.34 C 80.28 111.51 79.62 110.84 78.79 110.83 C 77.97 110.82 77.30 111.48 77.29 112.30 Z M 77.27 113.34 L 77.27 114.38 C 77.26 115.20 77.93 115.88 78.76 115.88 C 79.58 115.88 80.26 115.21 80.26 114.39 L 80.26 113.35 C 80.26 112.52 79.60 111.85 78.77 111.85 C 77.95 111.84 77.27 112.51 77.27 113.34 Z M 77.26 114.38 L 77.26 115.41 C 77.26 116.24 77.93 116.91 78.76 116.91 C 79.59 116.91 80.26 116.24 80.26 115.41 L 80.26 114.38 C 80.26 113.55 79.59 112.88 78.76 112.88 C 77.93 112.88 77.26 113.55 77.26 114.38 Z M 77.26 115.42 L 77.26 116.43 C 77.26 117.26 77.94 117.94 78.77 117.93 C 79.60 117.93 80.27 117.26 80.27 116.43 L 80.27 115.41 C 80.26 114.58 79.59 113.91 78.76 113.91 C 77.93 113.91 77.26 114.59 77.26 115.42 Z M 77.26 116.45 L 77.27 117.37 C 77.28 118.20 77.96 118.87 78.79 118.86 C 79.62 118.85 80.29 118.17 80.28 117.33 L 80.27 116.41 C 80.26 115.58 79.58 114.92 78.75 114.93 C 77.92 114.94 77.25 115.62 77.26 116.45 Z M 77.27 117.39 L 77.29 118.33 C 77.31 119.17 78.00 119.83 78.83 119.81 C 79.66 119.79 80.32 119.10 80.30 118.27 L 80.28 117.32 C 80.26 116.48 79.57 115.82 78.74 115.84 C 77.91 115.86 77.25 116.55 77.27 117.39 Z M 77.29 118.35 L 77.32 119.38 C 77.35 120.21 78.05 120.87 78.88 120.84 C 79.72 120.81 80.37 120.11 80.34 119.28 L 80.31 118.25 C 80.28 117.41 79.58 116.76 78.75 116.79 C 77.91 116.82 77.26 117.52 77.29 118.35 Z M 77.32 119.39 L 77.36 120.38 C 77.40 121.22 78.10 121.87 78.94 121.83 C 79.78 121.80 80.43 121.09 80.39 120.25 L 80.35 119.26 C 80.31 118.42 79.60 117.77 78.77 117.81 C 77.93 117.85 77.28 118.56 77.32 119.39 Z M 77.36 120.40 L 77.41 121.38 C 77.45 122.21 78.17 122.86 79.01 122.81 C 79.85 122.77 80.49 122.05 80.45 121.21 L 80.40 120.23 C 80.35 119.39 79.63 118.75 78.79 118.80 C 77.95 118.84 77.31 119.56 77.36 120.40 Z M 77.41 121.39 L 77.47 122.43 C 77.53 123.28 78.26 123.91 79.10 123.86 C 79.94 123.80 80.58 123.07 80.52 122.23 L 80.45 121.19 C 80.40 120.35 79.67 119.71 78.83 119.77 C 77.99 119.83 77.35 120.55 77.41 121.39 Z M 77.47 122.45 L 77.55 123.41 C 77.61 124.25 78.35 124.88 79.19 124.82 C 80.04 124.75 80.67 124.01 80.60 123.17 L 80.53 122.21 C 80.46 121.37 79.72 120.74 78.88 120.81 C 78.04 120.87 77.41 121.61 77.47 122.45 Z M 77.54 123.42 L 77.62 124.40 C 77.69 125.24 78.44 125.87 79.28 125.80 C 80.13 125.73 80.76 124.99 80.69 124.14 L 80.60 123.16 C 80.53 122.32 79.79 121.69 78.95 121.76 C 78.10 121.83 77.47 122.57 77.54 123.42 Z M 77.62 124.40 L 77.70 125.43 C 77.77 126.28 78.52 126.91 79.37 126.84 C 80.21 126.77 80.85 126.02 80.78 125.18 L 80.69 124.14 C 80.62 123.29 79.88 122.66 79.03 122.73 C 78.18 122.80 77.55 123.55 77.62 124.40 Z M 77.70 125.42 L 77.77 126.43 C 77.84 127.29 78.58 127.92 79.43 127.86 C 80.29 127.79 80.92 127.05 80.86 126.20 L 80.78 125.18 C 80.72 124.33 79.97 123.69 79.12 123.76 C 78.27 123.82 77.63 124.57 77.70 125.42 Z M 77.77 126.42 L 77.84 127.40 C 77.90 128.26 78.64 128.90 79.49 128.84 C 80.35 128.78 80.99 128.04 80.93 127.18 L 80.87 126.21 C 80.81 125.35 80.06 124.71 79.21 124.77 C 78.35 124.83 77.71 125.57 77.77 126.42 Z M 77.83 127.40 L 77.90 128.40 C 77.96 129.26 78.70 129.91 79.56 129.85 C 80.42 129.79 81.07 129.04 81.01 128.18 L 80.94 127.18 C 80.88 126.33 80.14 125.68 79.28 125.74 C 78.42 125.80 77.77 126.54 77.83 127.40 Z M 77.90 128.41 L 77.97 129.43 C 78.03 130.29 78.78 130.94 79.64 130.87 C 80.50 130.81 81.15 130.06 81.09 129.20 L 81.01 128.18 C 80.95 127.32 80.20 126.67 79.34 126.73 C 78.48 126.80 77.83 127.55 77.90 128.41 Z M 77.97 129.44 L 78.05 130.44 C 78.12 131.31 78.87 131.95 79.73 131.88 C 80.60 131.81 81.24 131.06 81.17 130.19 L 81.09 129.19 C 81.02 128.33 80.27 127.68 79.40 127.75 C 78.54 127.82 77.90 128.58 77.97 129.44 Z M 78.04 130.45 L 78.13 131.45 C 78.20 132.31 78.97 132.95 79.83 132.88 C 80.69 132.80 81.33 132.04 81.26 131.18 L 81.17 130.18 C 81.10 129.32 80.34 128.68 79.47 128.75 C 78.61 128.83 77.97 129.59 78.04 130.45 Z M 78.13 131.46 L 78.22 132.46 C 78.30 133.32 79.06 133.96 79.93 133.88 C 80.80 133.80 81.43 133.04 81.35 132.17 L 81.26 131.17 C 81.18 130.30 80.42 129.67 79.55 129.75 C 78.68 129.82 78.05 130.59 78.13 131.46 Z M 78.21 132.46 L 78.31 133.46 C 78.39 134.33 79.16 134.97 80.03 134.88 C 80.90 134.80 81.53 134.03 81.45 133.16 L 81.36 132.16 C 81.28 131.30 80.51 130.66 79.64 130.74 C 78.77 130.82 78.13 131.59 78.21 132.46 Z M 78.30 133.46 L 78.40 134.46 C 78.48 135.33 79.26 135.97 80.13 135.88 C 81.00 135.80 81.64 135.02 81.55 134.15 L 81.46 133.16 C 81.37 132.29 80.60 131.65 79.73 131.74 C 78.86 131.82 78.22 132.59 78.30 133.46 Z M 78.40 134.46 L 78.49 135.45 C 78.58 136.32 79.35 136.96 80.23 136.88 C 81.10 136.79 81.74 136.01 81.65 135.14 L 81.56 134.15 C 81.47 133.28 80.70 132.64 79.82 132.72 C 78.95 132.81 78.31 133.59 78.40 134.46 Z M 78.49 135.45 L 78.58 136.44 C 78.67 137.32 79.45 137.96 80.33 137.87 C 81.20 137.79 81.84 137.01 81.76 136.13 L 81.66 135.14 C 81.57 134.26 80.79 133.62 79.92 133.71 C 79.04 133.80 78.40 134.58 78.49 135.45 Z M 78.58 136.45 L 78.68 137.45 C 78.77 138.33 79.55 138.97 80.43 138.88 C 81.31 138.79 81.95 138.00 81.86 137.13 L 81.76 136.13 C 81.67 135.25 80.89 134.61 80.01 134.70 C 79.13 134.79 78.49 135.57 78.58 136.45 Z M 78.68 137.45 L 78.78 138.45 C 78.87 139.33 79.66 139.97 80.54 139.88 C 81.42 139.79 82.06 139.00 81.97 138.12 L 81.87 137.12 C 81.77 136.24 80.99 135.60 80.11 135.69 C 79.23 135.78 78.59 136.57 78.68 137.45 Z M 78.78 138.46 L 78.88 139.46 C 78.98 140.34 79.77 140.98 80.65 140.89 C 81.53 140.80 82.17 140.01 82.08 139.12 L 81.97 138.12 C 81.88 137.24 81.09 136.60 80.21 136.69 C 79.32 136.78 78.68 137.58 78.78 138.46 Z M 78.88 139.46 L 78.99 140.47 C 79.08 141.35 79.87 141.99 80.76 141.90 C 81.64 141.80 82.28 141.01 82.19 140.12 L 82.08 139.12 C 81.99 138.24 81.19 137.60 80.31 137.69 C 79.43 137.78 78.78 138.58 78.88 139.46 Z M 78.98 140.47 L 79.09 141.45 C 79.18 142.34 79.98 142.98 80.87 142.89 C 81.75 142.79 82.40 142.00 82.30 141.11 L 82.19 140.12 C 82.10 139.23 81.30 138.59 80.42 138.69 C 79.53 138.78 78.89 139.58 78.98 140.47 Z M 79.08 141.45 L 79.19 142.45 C 79.29 143.34 80.08 143.98 80.97 143.89 C 81.86 143.79 82.50 143.00 82.41 142.11 L 82.30 141.11 C 82.21 140.22 81.41 139.58 80.52 139.67 C 79.63 139.77 78.99 140.56 79.08 141.45 Z M 79.19 142.45 L 79.29 143.45 C 79.39 144.34 80.19 144.99 81.08 144.89 C 81.97 144.80 82.61 144.00 82.52 143.11 L 82.41 142.11 C 82.32 141.22 81.52 140.57 80.63 140.67 C 79.74 140.76 79.09 141.56 79.19 142.45 Z M 79.29 143.45 L 79.40 144.44 C 79.49 145.33 80.29 145.98 81.18 145.88 C 82.07 145.79 82.72 144.99 82.63 144.10 L 82.52 143.11 C 82.43 142.22 81.63 141.57 80.73 141.67 C 79.84 141.76 79.20 142.56 79.29 143.45 Z M 79.39 144.44 L 79.50 145.43 C 79.60 146.32 80.40 146.96 81.29 146.87 C 82.19 146.77 82.83 145.97 82.73 145.08 L 82.63 144.09 C 82.53 143.20 81.73 142.55 80.84 142.65 C 79.94 142.75 79.30 143.55 79.39 144.44 Z M 79.50 145.43 L 79.61 146.40 C 79.71 147.30 80.51 147.94 81.40 147.84 C 82.30 147.74 82.94 146.94 82.84 146.04 L 82.74 145.07 C 82.64 144.18 81.83 143.53 80.94 143.63 C 80.04 143.73 79.40 144.54 79.50 145.43 Z M 79.60 146.41 L 79.71 147.38 C 79.82 148.28 80.62 148.92 81.52 148.82 C 82.41 148.72 83.06 147.91 82.96 147.02 L 82.85 146.04 C 82.74 145.14 81.94 144.50 81.04 144.60 C 80.15 144.70 79.50 145.51 79.60 146.41 Z M 79.71 147.38 L 79.83 148.38 C 79.93 149.28 80.74 149.92 81.63 149.82 C 82.53 149.71 83.17 148.91 83.07 148.01 L 82.96 147.01 C 82.86 146.12 82.05 145.47 81.15 145.58 C 80.25 145.68 79.61 146.49 79.71 147.38 Z M 79.82 148.38 L 79.94 149.39 C 80.04 150.29 80.85 150.94 81.75 150.84 C 82.65 150.73 83.29 149.92 83.19 149.03 L 83.07 148.01 C 82.97 147.11 82.16 146.47 81.27 146.57 C 80.37 146.67 79.72 147.48 79.82 148.38 Z M 79.94 149.39 L 80.05 150.37 C 80.15 151.27 80.95 151.92 81.85 151.82 C 82.75 151.72 83.40 150.91 83.30 150.01 L 83.19 149.03 C 83.09 148.13 82.28 147.48 81.38 147.58 C 80.48 147.68 79.84 148.49 79.94 149.39 Z M 80.04 150.37 L 80.15 151.35 C 80.25 152.25 81.06 152.90 81.96 152.80 C 82.86 152.70 83.51 151.89 83.41 150.99 L 83.30 150.02 C 83.20 149.12 82.40 148.47 81.50 148.57 C 80.60 148.66 79.95 149.47 80.04 150.37 Z M 80.15 151.34 L 80.26 152.34 C 80.35 153.24 81.16 153.89 82.06 153.79 C 82.96 153.70 83.61 152.89 83.52 151.99 L 83.41 151.00 C 83.31 150.10 82.51 149.44 81.60 149.54 C 80.70 149.64 80.05 150.44 80.15 151.34 Z M 80.25 152.34 L 80.36 153.35 C 80.46 154.25 81.26 154.90 82.16 154.81 C 83.06 154.71 83.72 153.91 83.62 153.01 L 83.52 151.99 C 83.42 151.09 82.61 150.44 81.71 150.53 C 80.81 150.63 80.16 151.44 80.25 152.34 Z M 80.36 153.35 L 80.47 154.36 C 80.56 155.26 81.37 155.92 82.27 155.82 C 83.17 155.73 83.82 154.92 83.73 154.02 L 83.62 153.01 C 83.53 152.11 82.72 151.45 81.82 151.55 C 80.92 151.64 80.27 152.45 80.36 153.35 Z M 80.47 154.36 L 80.57 155.36 C 80.66 156.26 81.47 156.91 82.37 156.82 C 83.27 156.72 83.93 155.92 83.83 155.02 L 83.73 154.02 C 83.64 153.12 82.83 152.47 81.93 152.56 C 81.03 152.65 80.37 153.46 80.47 154.36 Z M 80.57 155.35 L 80.67 156.35 C 80.76 157.26 81.57 157.91 82.47 157.82 C 83.38 157.73 84.03 156.92 83.94 156.02 L 83.84 155.02 C 83.74 154.11 82.93 153.46 82.03 153.55 C 81.13 153.65 80.47 154.45 80.57 155.35 Z M 80.67 156.35 L 80.77 157.35 C 80.87 158.26 81.67 158.91 82.58 158.82 C 83.48 158.73 84.14 157.92 84.04 157.01 L 83.94 156.02 C 83.85 155.11 83.04 154.46 82.14 154.55 C 81.23 154.64 80.58 155.45 80.67 156.35 Z M 80.77 157.35 L 80.88 158.35 C 80.97 159.25 81.78 159.91 82.68 159.81 C 83.59 159.72 84.24 158.91 84.15 158.01 L 84.04 157.01 C 83.95 156.11 83.14 155.45 82.24 155.55 C 81.33 155.64 80.68 156.45 80.77 157.35 Z M 80.87 158.35 L 80.98 159.35 C 81.07 160.25 81.88 160.91 82.79 160.81 C 83.69 160.72 84.35 159.91 84.25 159.00 L 84.15 158.00 C 84.05 157.10 83.24 156.44 82.34 156.54 C 81.44 156.63 80.78 157.44 80.87 158.35 Z M 80.98 159.35 L 81.08 160.34 C 81.18 161.25 81.99 161.90 82.90 161.81 C 83.80 161.71 84.46 160.90 84.36 159.99 L 84.25 159.00 C 84.16 158.09 83.35 157.44 82.44 157.54 C 81.54 157.63 80.88 158.44 80.98 159.35 Z M 81.08 160.35 L 81.19 161.34 C 81.29 162.24 82.11 162.89 83.01 162.79 C 83.92 162.70 84.57 161.88 84.47 160.98 L 84.36 159.99 C 84.26 159.08 83.45 158.43 82.54 158.53 C 81.64 158.63 80.98 159.44 81.08 160.35 Z M 81.19 161.34 L 81.30 162.33 C 81.41 163.24 82.23 163.89 83.13 163.79 C 84.04 163.68 84.69 162.87 84.58 161.96 L 84.47 160.97 C 84.37 160.06 83.55 159.41 82.64 159.52 C 81.74 159.62 81.09 160.44 81.19 161.34 Z M 81.30 162.34 L 81.42 163.35 C 81.53 164.25 82.35 164.90 83.26 164.79 C 84.16 164.68 84.81 163.86 84.70 162.96 L 84.58 161.95 C 84.47 161.05 83.65 160.40 82.75 160.51 C 81.84 160.62 81.20 161.44 81.30 162.34 Z M 81.43 163.36 L 81.55 164.39 C 81.67 165.29 82.49 165.93 83.40 165.82 C 84.30 165.71 84.94 164.88 84.83 163.98 L 84.70 162.95 C 84.59 162.04 83.76 161.40 82.86 161.52 C 81.95 161.63 81.31 162.45 81.43 163.36 Z M 81.55 164.39 L 81.69 165.41 C 81.80 166.31 82.63 166.95 83.54 166.83 C 84.44 166.72 85.08 165.89 84.96 164.98 L 84.83 163.97 C 84.71 163.06 83.88 162.43 82.98 162.54 C 82.07 162.66 81.44 163.49 81.55 164.39 Z M 81.69 165.41 L 81.82 166.40 C 81.94 167.30 82.77 167.94 83.67 167.82 C 84.58 167.69 85.21 166.86 85.09 165.96 L 84.96 164.98 C 84.84 164.07 84.01 163.44 83.10 163.56 C 82.20 163.68 81.56 164.51 81.69 165.41 Z M 81.82 166.40 L 81.95 167.34 C 82.07 168.24 82.90 168.87 83.81 168.75 C 84.71 168.62 85.35 167.79 85.22 166.89 L 85.09 165.95 C 84.97 165.05 84.14 164.41 83.23 164.54 C 82.33 164.66 81.69 165.50 81.82 166.40 Z M 81.95 167.34 L 82.10 168.40 C 82.22 169.30 83.06 169.93 83.96 169.81 C 84.87 169.68 85.50 168.84 85.37 167.94 L 85.22 166.88 C 85.09 165.98 84.26 165.35 83.35 165.47 C 82.45 165.60 81.82 166.44 81.95 167.34 Z M 82.10 168.41 L 82.24 169.39 C 82.37 170.30 83.21 170.92 84.11 170.79 C 85.02 170.66 85.64 169.82 85.51 168.92 L 85.37 167.93 C 85.24 167.03 84.40 166.40 83.50 166.53 C 82.59 166.66 81.97 167.50 82.10 168.41 Z M 82.24 169.40 L 82.38 170.34 C 82.52 171.25 83.36 171.87 84.26 171.74 C 85.16 171.60 85.79 170.76 85.65 169.86 L 85.51 168.91 C 85.38 168.01 84.54 167.38 83.63 167.52 C 82.73 167.65 82.11 168.49 82.24 169.40 Z M 82.38 170.35 L 82.53 171.30 C 82.66 172.20 83.51 172.82 84.41 172.69 C 85.31 172.55 85.93 171.70 85.80 170.80 L 85.65 169.85 C 85.51 168.95 84.67 168.33 83.77 168.47 C 82.87 168.60 82.24 169.45 82.38 170.35 Z M 82.53 171.31 L 82.68 172.28 C 82.82 173.18 83.67 173.80 84.57 173.66 C 85.47 173.51 86.09 172.67 85.95 171.77 L 85.79 170.80 C 85.65 169.89 84.81 169.28 83.91 169.42 C 83.00 169.56 82.39 170.40 82.53 171.31 Z M 82.68 172.29 L 82.84 173.28 C 82.99 174.18 83.84 174.79 84.74 174.64 C 85.64 174.50 86.25 173.65 86.10 172.75 L 85.94 171.76 C 85.80 170.86 84.95 170.25 84.05 170.39 C 83.15 170.54 82.54 171.39 82.68 172.29 Z M 82.85 173.29 L 83.02 174.30 C 83.17 175.20 84.02 175.80 84.92 175.65 C 85.82 175.50 86.42 174.65 86.27 173.75 L 86.10 172.74 C 85.95 171.84 85.10 171.24 84.20 171.39 C 83.30 171.54 82.69 172.39 82.85 173.29 Z M 83.02 174.31 L 83.19 175.27 C 83.35 176.17 84.21 176.77 85.10 176.61 C 86.00 176.45 86.60 175.60 86.44 174.70 L 86.27 173.74 C 86.11 172.84 85.25 172.24 84.36 172.40 C 83.46 172.56 82.86 173.42 83.02 174.31 Z M 83.20 175.28 L 83.37 176.26 C 83.54 177.16 84.39 177.75 85.29 177.59 C 86.18 177.42 86.78 176.57 86.61 175.67 L 86.43 174.69 C 86.27 173.80 85.41 173.20 84.52 173.37 C 83.63 173.53 83.03 174.39 83.20 175.28 Z M 83.38 176.26 L 83.56 177.26 C 83.72 178.15 84.58 178.74 85.47 178.58 C 86.37 178.42 86.96 177.56 86.79 176.66 L 86.61 175.67 C 86.45 174.78 85.59 174.18 84.70 174.35 C 83.80 174.51 83.21 175.37 83.38 176.26 Z M 83.56 177.26 L 83.75 178.26 C 83.91 179.15 84.77 179.74 85.66 179.58 C 86.55 179.41 87.14 178.55 86.98 177.66 L 86.79 176.67 C 86.63 175.77 85.77 175.18 84.88 175.35 C 83.99 175.51 83.40 176.37 83.56 177.26 Z M 83.75 178.26 L 83.93 179.24 C 84.09 180.13 84.95 180.72 85.84 180.55 C 86.73 180.39 87.32 179.53 87.15 178.64 L 86.97 177.66 C 86.81 176.77 85.96 176.18 85.06 176.35 C 84.17 176.51 83.58 177.37 83.75 178.26 Z M 83.93 179.24 L 84.11 180.22 C 84.28 181.11 85.13 181.70 86.02 181.54 C 86.91 181.37 87.50 180.51 87.33 179.62 L 87.15 178.64 C 86.99 177.75 86.13 177.16 85.24 177.33 C 84.35 177.50 83.76 178.35 83.93 179.24 Z M 84.12 180.23 L 84.31 181.22 C 84.48 182.11 85.33 182.69 86.22 182.52 C 87.11 182.35 87.69 181.49 87.52 180.60 L 87.33 179.62 C 87.16 178.73 86.30 178.15 85.42 178.32 C 84.53 178.49 83.95 179.35 84.12 180.23 Z M 84.31 181.23 L 84.51 182.21 C 84.69 183.10 85.55 183.67 86.43 183.49 C 87.32 183.31 87.89 182.45 87.71 181.57 L 87.51 180.59 C 87.34 179.70 86.48 179.13 85.59 179.31 C 84.71 179.49 84.13 180.35 84.31 181.23 Z M 84.51 182.23 L 84.72 183.21 C 84.91 184.09 85.78 184.65 86.66 184.46 C 87.54 184.28 88.10 183.41 87.91 182.53 L 87.71 181.55 C 87.52 180.67 86.65 180.11 85.77 180.30 C 84.89 180.48 84.33 181.35 84.51 182.23 Z M 84.73 183.22 L 84.95 184.20 C 85.15 185.08 86.02 185.63 86.89 185.43 C 87.77 185.23 88.32 184.36 88.13 183.48 L 87.91 182.51 C 87.71 181.63 86.84 181.08 85.96 181.28 C 85.08 181.48 84.53 182.35 84.73 183.22 Z M 84.96 184.22 L 85.19 185.19 C 85.40 186.07 86.27 186.60 87.15 186.40 C 88.02 186.19 88.56 185.31 88.35 184.44 L 88.12 183.46 C 87.91 182.59 87.03 182.05 86.16 182.26 C 85.29 182.47 84.75 183.35 84.96 184.22 Z M 85.20 185.21 L 85.45 186.21 C 85.67 187.08 86.55 187.60 87.42 187.38 C 88.29 187.16 88.82 186.28 88.60 185.41 L 88.34 184.42 C 88.12 183.55 87.24 183.02 86.37 183.24 C 85.50 183.46 84.98 184.35 85.20 185.21 Z M 85.46 186.23 L 85.73 187.24 C 85.96 188.10 86.85 188.61 87.71 188.38 C 88.58 188.15 89.09 187.26 88.86 186.40 L 88.59 185.39 C 88.35 184.53 87.47 184.02 86.60 184.25 C 85.74 184.48 85.23 185.37 85.46 186.23 Z M 85.74 187.26 L 86.01 188.23 C 86.25 189.09 87.15 189.59 88.01 189.34 C 88.87 189.10 89.37 188.20 89.12 187.34 L 88.85 186.37 C 88.60 185.52 87.71 185.02 86.85 185.26 C 85.99 185.50 85.49 186.40 85.74 187.26 Z M 86.02 188.25 L 86.29 189.16 C 86.55 190.01 87.45 190.50 88.30 190.24 C 89.16 189.98 89.64 189.08 89.39 188.23 L 89.11 187.32 C 88.86 186.47 87.96 185.98 87.10 186.24 C 86.25 186.49 85.76 187.39 86.02 188.25 Z M 86.30 189.19 L 86.63 190.20 C 86.90 191.05 87.81 191.51 88.66 191.24 C 89.51 190.97 89.97 190.06 89.70 189.21 L 89.37 188.20 C 89.10 187.35 88.19 186.89 87.35 187.16 C 86.50 187.43 86.03 188.34 86.30 189.19 Z M 86.65 190.24 L 86.98 191.19 C 87.28 192.03 88.20 192.46 89.04 192.17 C 89.87 191.87 90.31 190.95 90.02 190.11 L 89.68 189.17 C 89.38 188.33 88.46 187.89 87.63 188.19 C 86.79 188.49 86.35 189.41 86.65 190.24 Z M 87.01 191.24 L 87.35 192.10 C 87.68 192.92 88.61 193.33 89.43 193.00 C 90.26 192.67 90.66 191.74 90.33 190.92 L 89.99 190.06 C 89.66 189.24 88.73 188.83 87.91 189.16 C 87.08 189.49 86.68 190.42 87.01 191.24 Z M 87.38 192.16 L 87.79 193.08 C 88.15 193.89 89.10 194.25 89.90 193.89 C 90.71 193.53 91.07 192.58 90.71 191.77 L 90.30 190.86 C 89.94 190.05 88.99 189.69 88.19 190.05 C 87.38 190.41 87.02 191.35 87.38 192.16 Z M 87.82 193.13 L 88.25 194.02 C 88.64 194.81 89.60 195.14 90.39 194.75 C 91.18 194.36 91.51 193.41 91.12 192.62 L 90.68 191.72 C 90.30 190.93 89.34 190.61 88.55 190.99 C 87.76 191.38 87.43 192.34 87.82 193.13 Z M 88.27 194.05 L 88.72 194.93 C 89.13 195.71 90.09 196.01 90.87 195.61 C 91.65 195.21 91.96 194.25 91.55 193.47 L 91.10 192.59 C 90.70 191.81 89.74 191.50 88.96 191.90 C 88.18 192.31 87.87 193.27 88.27 194.05 Z M 88.74 194.94 L 89.20 195.82 C 89.61 196.59 90.57 196.89 91.35 196.48 C 92.12 196.07 92.42 195.11 92.01 194.34 L 91.54 193.45 C 91.13 192.68 90.17 192.38 89.40 192.79 C 88.62 193.20 88.33 194.16 88.74 194.94 Z M 89.21 195.83 L 89.69 196.71 C 90.11 197.48 91.06 197.77 91.83 197.35 C 92.60 196.94 92.89 195.98 92.47 195.21 L 92.00 194.33 C 91.58 193.56 90.62 193.27 89.86 193.69 C 89.09 194.10 88.80 195.06 89.21 195.83 Z M 89.70 196.72 L 90.17 197.58 C 90.59 198.35 91.54 198.63 92.31 198.21 C 93.07 197.80 93.35 196.84 92.94 196.08 L 92.47 195.21 C 92.05 194.45 91.10 194.16 90.33 194.58 C 89.57 195.00 89.28 195.95 89.70 196.72 Z M 90.17 197.57 L 90.64 198.45 C 91.05 199.22 92.00 199.51 92.77 199.10 C 93.53 198.69 93.82 197.74 93.41 196.97 L 92.94 196.09 C 92.53 195.32 91.58 195.03 90.81 195.44 C 90.05 195.85 89.76 196.80 90.17 197.57 Z M 90.63 198.42 L 91.08 199.31 C 91.47 200.08 92.42 200.39 93.19 200.00 C 93.96 199.61 94.27 198.66 93.87 197.89 L 93.42 197.00 C 93.03 196.23 92.09 195.92 91.31 196.32 C 90.54 196.71 90.24 197.65 90.63 198.42 Z M 91.07 199.28 L 91.50 200.17 C 91.88 200.95 92.81 201.27 93.59 200.90 C 94.37 200.52 94.69 199.58 94.31 198.81 L 93.89 197.92 C 93.51 197.14 92.57 196.82 91.80 197.19 C 91.02 197.57 90.69 198.51 91.07 199.28 Z M 91.49 200.15 L 91.93 201.07 C 92.30 201.85 93.23 202.19 94.01 201.82 C 94.79 201.45 95.12 200.52 94.75 199.74 L 94.32 198.82 C 93.95 198.04 93.02 197.71 92.24 198.08 C 91.46 198.44 91.13 199.37 91.49 200.15 Z M 91.93 201.07 L 92.37 201.99 C 92.73 202.77 93.66 203.10 94.44 202.73 C 95.22 202.37 95.55 201.44 95.18 200.66 L 94.75 199.74 C 94.38 198.96 93.45 198.63 92.68 199.00 C 91.90 199.37 91.56 200.30 91.93 201.07 Z M 92.37 201.99 L 92.80 202.90 C 93.17 203.68 94.10 204.01 94.87 203.64 C 95.65 203.28 95.98 202.35 95.61 201.57 L 95.18 200.66 C 94.81 199.88 93.89 199.55 93.11 199.92 C 92.33 200.28 92.00 201.21 92.37 201.99 Z M 92.80 202.90 L 93.22 203.80 C 93.59 204.58 94.51 204.91 95.29 204.55 C 96.07 204.18 96.40 203.26 96.04 202.48 L 95.61 201.58 C 95.25 200.80 94.32 200.47 93.55 200.83 C 92.77 201.19 92.44 202.12 92.80 202.90 Z M 93.22 203.79 L 93.65 204.71 C 94.00 205.49 94.93 205.83 95.70 205.47 C 96.48 205.12 96.82 204.19 96.47 203.42 L 96.04 202.49 C 95.68 201.71 94.76 201.37 93.98 201.73 C 93.20 202.09 92.86 203.01 93.22 203.79 Z M 93.64 204.70 L 94.06 205.61 C 94.41 206.39 95.32 206.74 96.10 206.38 C 96.88 206.03 97.23 205.12 96.88 204.34 L 96.47 203.43 C 96.12 202.65 95.20 202.30 94.42 202.65 C 93.64 203.00 93.29 203.92 93.64 204.70 Z M 94.06 205.61 L 94.46 206.50 C 94.80 207.28 95.72 207.63 96.50 207.28 C 97.28 206.93 97.63 206.01 97.28 205.23 L 96.88 204.34 C 96.53 203.56 95.61 203.21 94.83 203.56 C 94.06 203.91 93.71 204.83 94.06 205.61 Z M 94.46 206.50 L 94.87 207.42 C 95.22 208.20 96.14 208.54 96.91 208.19 C 97.69 207.84 98.04 206.93 97.69 206.15 L 97.27 205.23 C 96.92 204.46 96.01 204.11 95.23 204.46 C 94.46 204.81 94.11 205.72 94.46 206.50 Z M 94.88 207.43 L 95.29 208.33 C 95.65 209.11 96.56 209.45 97.34 209.10 C 98.11 208.74 98.45 207.83 98.10 207.05 L 97.68 206.15 C 97.33 205.37 96.41 205.03 95.64 205.38 C 94.87 205.74 94.52 206.65 94.88 207.43 Z M 95.30 208.35 L 95.73 209.26 C 96.09 210.03 97.00 210.36 97.77 210.00 C 98.54 209.64 98.87 208.72 98.51 207.95 L 98.09 207.04 C 97.73 206.27 96.81 205.94 96.04 206.30 C 95.27 206.66 94.94 207.58 95.30 208.35 Z M 95.74 209.27 L 96.18 210.18 C 96.55 210.94 97.47 211.26 98.23 210.89 C 98.99 210.52 99.31 209.60 98.94 208.84 L 98.50 207.93 C 98.13 207.17 97.21 206.85 96.45 207.22 C 95.69 207.59 95.37 208.51 95.74 209.27 Z M 96.19 210.21 L 96.64 211.08 C 97.02 211.84 97.95 212.14 98.70 211.75 C 99.46 211.37 99.76 210.44 99.37 209.69 L 98.93 208.81 C 98.54 208.06 97.62 207.76 96.86 208.14 C 96.11 208.53 95.81 209.45 96.19 210.21 Z M 96.66 211.12 L 97.15 212.01 C 97.55 212.75 98.48 213.03 99.22 212.63 C 99.97 212.22 100.24 211.29 99.84 210.55 L 99.35 209.65 C 98.95 208.91 98.02 208.64 97.28 209.04 C 96.53 209.44 96.26 210.37 96.66 211.12 Z M 97.17 212.04 L 97.65 212.90 C 98.07 213.63 99.00 213.89 99.74 213.47 C 100.47 213.05 100.73 212.12 100.31 211.39 L 99.82 210.53 C 99.40 209.79 98.47 209.54 97.74 209.95 C 97.00 210.37 96.75 211.30 97.17 212.04 Z M 97.66 212.91 L 98.16 213.77 C 98.59 214.50 99.52 214.74 100.25 214.32 C 100.98 213.90 101.22 212.97 100.80 212.24 L 100.30 211.38 C 99.88 210.65 98.94 210.40 98.22 210.82 C 97.49 211.25 97.24 212.18 97.66 212.91 Z M 98.17 213.78 L 98.68 214.64 C 99.11 215.36 100.05 215.60 100.77 215.17 C 101.50 214.74 101.73 213.80 101.30 213.08 L 100.79 212.22 C 100.36 211.50 99.43 211.26 98.70 211.69 C 97.98 212.13 97.74 213.06 98.17 213.78 Z M 98.70 214.67 L 99.24 215.52 C 99.68 216.24 100.62 216.45 101.34 216.01 C 102.05 215.56 102.27 214.62 101.82 213.91 L 101.28 213.05 C 100.84 212.34 99.90 212.12 99.18 212.57 C 98.47 213.01 98.25 213.95 98.70 214.67 Z M 99.25 215.55 L 99.81 216.40 C 100.27 217.10 101.21 217.30 101.92 216.84 C 102.62 216.38 102.82 215.44 102.36 214.73 L 101.81 213.88 C 101.34 213.18 100.40 212.98 99.70 213.44 C 98.99 213.90 98.79 214.85 99.25 215.55 Z M 99.82 216.41 L 100.37 217.24 C 100.83 217.94 101.78 218.13 102.48 217.66 C 103.18 217.19 103.37 216.25 102.90 215.55 L 102.35 214.72 C 101.89 214.02 100.94 213.83 100.24 214.30 C 99.54 214.76 99.35 215.71 99.82 216.41 Z M 100.37 217.24 L 100.93 218.07 C 101.40 218.76 102.34 218.95 103.04 218.48 C 103.74 218.01 103.92 217.06 103.45 216.36 L 102.90 215.54 C 102.43 214.84 101.48 214.66 100.78 215.13 C 100.08 215.60 99.90 216.55 100.37 217.24 Z M 100.94 218.09 L 101.50 218.88 C 101.98 219.57 102.93 219.74 103.62 219.26 C 104.31 218.77 104.48 217.82 103.99 217.13 L 103.44 216.34 C 102.96 215.65 102.00 215.48 101.32 215.96 C 100.63 216.45 100.46 217.40 100.94 218.09 Z M 101.50 218.89 L 102.08 219.71 C 102.56 220.40 103.51 220.56 104.20 220.08 C 104.89 219.59 105.05 218.64 104.57 217.95 L 103.99 217.13 C 103.51 216.44 102.56 216.28 101.87 216.76 C 101.18 217.25 101.01 218.20 101.50 218.89 Z M 102.06 219.68 L 102.60 220.49 C 103.07 221.19 104.02 221.38 104.72 220.91 C 105.42 220.45 105.60 219.50 105.14 218.80 L 104.59 217.98 C 104.12 217.28 103.18 217.10 102.48 217.57 C 101.78 218.03 101.59 218.98 102.06 219.68 Z M 102.58 220.46 L 103.12 221.32 C 103.57 222.03 104.51 222.24 105.22 221.79 C 105.93 221.35 106.15 220.40 105.70 219.69 L 105.16 218.84 C 104.71 218.12 103.77 217.91 103.06 218.36 C 102.35 218.81 102.13 219.75 102.58 220.46 Z M 103.10 221.29 L 103.61 222.14 C 104.05 222.86 104.98 223.09 105.70 222.66 C 106.43 222.23 106.66 221.29 106.23 220.57 L 105.72 219.72 C 105.28 219.00 104.35 218.77 103.63 219.20 C 102.90 219.63 102.67 220.57 103.10 221.29 Z M 103.60 222.11 L 104.10 222.99 C 104.53 223.71 105.46 223.96 106.18 223.54 C 106.91 223.12 107.16 222.19 106.74 221.46 L 106.24 220.59 C 105.82 219.86 104.89 219.61 104.16 220.03 C 103.43 220.46 103.18 221.39 103.60 222.11 Z M 104.09 222.97 L 104.58 223.84 C 104.99 224.58 105.92 224.84 106.65 224.43 C 107.39 224.02 107.65 223.10 107.24 222.36 L 106.75 221.48 C 106.34 220.75 105.42 220.49 104.68 220.90 C 103.95 221.30 103.68 222.23 104.09 222.97 Z M 104.58 223.83 L 105.05 224.70 C 105.45 225.44 106.38 225.71 107.12 225.31 C 107.85 224.91 108.13 223.98 107.72 223.25 L 107.25 222.37 C 106.85 221.64 105.92 221.37 105.18 221.77 C 104.45 222.17 104.18 223.09 104.58 223.83 Z M 105.05 224.70 L 105.54 225.60 C 105.95 226.34 106.87 226.61 107.61 226.20 C 108.34 225.80 108.61 224.88 108.21 224.14 L 107.72 223.24 C 107.32 222.51 106.39 222.24 105.66 222.64 C 104.92 223.04 104.65 223.97 105.05 224.70 Z M 105.55 225.61 L 106.05 226.50 C 106.46 227.23 107.39 227.49 108.12 227.08 C 108.85 226.67 109.11 225.75 108.70 225.01 L 108.20 224.13 C 107.79 223.39 106.87 223.13 106.14 223.54 C 105.40 223.95 105.14 224.88 105.55 225.61 Z M 106.06 226.52 L 106.56 227.39 C 106.99 228.11 107.91 228.36 108.64 227.94 C 109.37 227.52 109.61 226.59 109.19 225.86 L 108.69 225.00 C 108.27 224.27 107.34 224.02 106.61 224.44 C 105.89 224.86 105.64 225.79 106.06 226.52 Z M 106.58 227.41 L 107.11 228.28 C 107.54 228.99 108.48 229.22 109.19 228.79 C 109.91 228.35 110.14 227.42 109.70 226.70 L 109.18 225.84 C 108.74 225.12 107.81 224.89 107.09 225.33 C 106.37 225.76 106.15 226.70 106.58 227.41 Z M 107.13 228.32 L 107.68 229.16 C 108.14 229.86 109.08 230.06 109.78 229.60 C 110.48 229.14 110.68 228.21 110.22 227.50 L 109.67 226.66 C 109.22 225.96 108.28 225.76 107.58 226.22 C 106.87 226.68 106.68 227.61 107.13 228.32 Z M 107.71 229.21 L 108.28 230.00 C 108.76 230.69 109.71 230.85 110.39 230.36 C 111.07 229.88 111.24 228.93 110.75 228.25 L 110.19 227.45 C 109.70 226.77 108.76 226.61 108.07 227.09 C 107.39 227.58 107.23 228.52 107.71 229.21 Z M 108.33 230.07 L 108.96 230.86 C 109.47 231.52 110.43 231.63 111.08 231.11 C 111.74 230.59 111.85 229.64 111.33 228.98 L 110.70 228.19 C 110.18 227.53 109.23 227.42 108.58 227.94 C 107.92 228.46 107.81 229.41 108.33 230.07 Z M 109.04 230.96 L 109.72 231.68 C 110.29 232.29 111.25 232.32 111.86 231.75 C 112.47 231.18 112.50 230.22 111.93 229.61 L 111.25 228.89 C 110.68 228.28 109.72 228.24 109.11 228.82 C 108.50 229.39 108.47 230.35 109.04 230.96 Z M 109.83 231.79 L 110.59 232.44 C 111.22 232.99 112.18 232.92 112.72 232.29 C 113.27 231.65 113.20 230.70 112.57 230.15 L 111.81 229.50 C 111.18 228.95 110.22 229.02 109.68 229.66 C 109.13 230.29 109.20 231.24 109.83 231.79 Z M 110.70 232.53 L 111.45 233.06 C 112.12 233.55 113.07 233.40 113.56 232.72 C 114.04 232.04 113.89 231.09 113.21 230.61 L 112.46 230.07 C 111.78 229.58 110.84 229.74 110.35 230.41 C 109.86 231.09 110.02 232.04 110.70 232.53 Z M 111.59 233.16 L 112.49 233.65 C 113.22 234.06 114.14 233.80 114.54 233.07 C 114.95 232.34 114.69 231.42 113.96 231.01 L 113.06 230.51 C 112.33 230.11 111.41 230.37 111.01 231.10 C 110.60 231.83 110.86 232.75 111.59 233.16 Z M 112.63 233.73 L 113.54 234.11 C 114.31 234.44 115.20 234.08 115.52 233.31 C 115.85 232.54 115.49 231.65 114.72 231.32 L 113.81 230.94 C 113.04 230.61 112.16 230.97 111.83 231.74 C 111.50 232.51 111.86 233.40 112.63 233.73 Z M 113.65 234.15 L 114.63 234.48 C 115.42 234.74 116.28 234.31 116.54 233.52 C 116.81 232.73 116.38 231.87 115.59 231.61 L 114.61 231.28 C 113.82 231.02 112.96 231.45 112.69 232.24 C 112.43 233.03 112.86 233.89 113.65 234.15 Z M 114.77 234.52 L 115.78 234.75 C 116.60 234.94 117.41 234.42 117.59 233.61 C 117.78 232.79 117.27 231.98 116.45 231.79 L 115.44 231.56 C 114.63 231.38 113.81 231.89 113.63 232.71 C 113.44 233.52 113.95 234.34 114.77 234.52 Z M 116.01 234.79 L 117.01 234.86 C 117.85 234.92 118.58 234.29 118.64 233.45 C 118.70 232.62 118.07 231.89 117.23 231.83 L 116.23 231.76 C 115.39 231.70 114.66 232.32 114.60 233.16 C 114.54 234.00 115.17 234.73 116.01 234.79 Z M 117.32 234.86 L 118.29 234.73 C 119.12 234.62 119.71 233.86 119.60 233.02 C 119.49 232.18 118.72 231.60 117.89 231.71 L 116.92 231.83 C 116.09 231.94 115.50 232.71 115.61 233.54 C 115.72 234.38 116.48 234.97 117.32 234.86 Z M 118.60 234.66 L 119.56 234.32 C 120.36 234.04 120.77 233.16 120.49 232.36 C 120.21 231.57 119.33 231.15 118.53 231.43 L 117.57 231.78 C 116.78 232.06 116.36 232.93 116.65 233.73 C 116.93 234.53 117.80 234.94 118.60 234.66 Z M 119.78 234.23 L 120.67 233.75 C 121.42 233.34 121.69 232.41 121.29 231.66 C 120.89 230.92 119.95 230.64 119.21 231.04 L 118.32 231.53 C 117.57 231.93 117.29 232.86 117.70 233.61 C 118.10 234.36 119.03 234.63 119.78 234.23 Z M 120.83 233.65 L 121.65 233.07 C 122.34 232.58 122.51 231.62 122.01 230.92 C 121.52 230.23 120.56 230.06 119.86 230.56 L 119.05 231.14 C 118.35 231.63 118.19 232.59 118.68 233.29 C 119.17 233.98 120.13 234.15 120.83 233.65 Z M 121.79 232.96 L 122.52 232.31 C 123.15 231.74 123.20 230.76 122.63 230.12 C 122.05 229.49 121.07 229.44 120.44 230.01 L 119.72 230.67 C 119.08 231.24 119.03 232.22 119.61 232.85 C 120.18 233.49 121.16 233.54 121.79 232.96 Z M 122.59 232.24 L 123.27 231.55 C 123.86 230.94 123.85 229.95 123.24 229.36 C 122.62 228.76 121.64 228.77 121.04 229.39 L 120.37 230.08 C 119.77 230.69 119.78 231.67 120.40 232.27 C 121.01 232.87 121.99 232.86 122.59 232.24 Z M 123.30 231.51 L 123.98 230.76 C 124.56 230.13 124.52 229.15 123.88 228.57 C 123.25 227.99 122.26 228.04 121.69 228.67 L 121.01 229.42 C 120.43 230.06 120.48 231.04 121.11 231.62 C 121.74 232.19 122.73 232.15 123.30 231.51 Z M 124.05 230.69 L 124.68 229.91 C 125.22 229.24 125.11 228.26 124.44 227.72 C 123.77 227.18 122.79 227.29 122.25 227.96 L 121.62 228.74 C 121.08 229.41 121.19 230.39 121.86 230.93 C 122.53 231.47 123.51 231.36 124.05 230.69 Z M 124.73 229.85 L 125.31 229.04 C 125.82 228.34 125.66 227.37 124.96 226.86 C 124.27 226.36 123.29 226.52 122.79 227.21 L 122.20 228.02 C 121.70 228.72 121.86 229.69 122.55 230.20 C 123.25 230.70 124.22 230.54 124.73 229.85 Z M 125.32 229.03 L 125.89 228.22 C 126.39 227.52 126.23 226.54 125.52 226.05 C 124.82 225.55 123.85 225.71 123.35 226.42 L 122.78 227.22 C 122.28 227.93 122.44 228.90 123.15 229.40 C 123.85 229.90 124.83 229.73 125.32 229.03 Z M 125.90 228.22 L 126.48 227.39 C 126.98 226.68 126.80 225.71 126.10 225.21 C 125.39 224.72 124.41 224.89 123.92 225.60 L 123.34 226.42 C 122.84 227.13 123.02 228.11 123.72 228.60 C 124.43 229.10 125.41 228.93 125.90 228.22 Z M 126.50 227.37 L 127.06 226.55 C 127.54 225.83 127.35 224.85 126.63 224.37 C 125.92 223.89 124.94 224.07 124.46 224.79 L 123.90 225.62 C 123.41 226.34 123.60 227.31 124.32 227.80 C 125.04 228.28 126.01 228.09 126.50 227.37 Z M 127.06 226.54 L 127.62 225.70 C 128.10 224.98 127.90 224.00 127.18 223.52 C 126.46 223.04 125.48 223.24 125.00 223.96 L 124.45 224.80 C 123.97 225.52 124.16 226.50 124.89 226.98 C 125.61 227.46 126.59 227.26 127.06 226.54 Z M 127.62 225.71 L 128.18 224.88 C 128.66 224.16 128.47 223.18 127.75 222.70 C 127.03 222.21 126.06 222.40 125.57 223.12 L 125.01 223.95 C 124.52 224.67 124.71 225.65 125.43 226.14 C 126.15 226.62 127.13 226.43 127.62 225.71 Z M 128.17 224.90 L 128.74 224.07 C 129.23 223.36 129.05 222.38 128.34 221.88 C 127.62 221.39 126.64 221.57 126.15 222.28 L 125.58 223.11 C 125.08 223.82 125.26 224.80 125.98 225.30 C 126.69 225.79 127.68 225.61 128.17 224.90 Z M 128.74 224.08 L 129.30 223.27 C 129.80 222.55 129.62 221.57 128.91 221.07 C 128.19 220.57 127.21 220.75 126.71 221.46 L 126.15 222.28 C 125.65 222.99 125.83 223.98 126.54 224.48 C 127.26 224.97 128.24 224.80 128.74 224.08 Z M 129.30 223.27 L 129.87 222.46 C 130.37 221.74 130.19 220.75 129.48 220.25 C 128.76 219.75 127.78 219.93 127.28 220.65 L 126.71 221.46 C 126.21 222.18 126.39 223.16 127.10 223.66 C 127.82 224.16 128.80 223.99 129.30 223.27 Z M 129.87 222.47 L 130.46 221.64 C 130.96 220.92 130.79 219.93 130.08 219.43 C 129.37 218.92 128.38 219.09 127.87 219.80 L 127.28 220.63 C 126.78 221.35 126.94 222.34 127.66 222.84 C 128.37 223.35 129.36 223.18 129.87 222.47 Z M 130.45 221.65 L 131.04 220.83 C 131.56 220.12 131.40 219.13 130.69 218.61 C 129.99 218.10 128.99 218.26 128.48 218.97 L 127.88 219.79 C 127.37 220.50 127.52 221.49 128.23 222.00 C 128.94 222.52 129.93 222.36 130.45 221.65 Z M 131.04 220.84 L 131.62 220.05 C 132.14 219.34 131.99 218.35 131.29 217.83 C 130.58 217.31 129.59 217.46 129.07 218.16 L 128.48 218.96 C 127.96 219.66 128.11 220.66 128.82 221.18 C 129.53 221.70 130.52 221.55 131.04 220.84 Z M 131.62 220.05 L 132.23 219.23 C 132.76 218.53 132.61 217.53 131.91 217.01 C 131.21 216.48 130.21 216.63 129.69 217.33 L 129.07 218.15 C 128.55 218.86 128.69 219.85 129.40 220.38 C 130.10 220.90 131.10 220.76 131.62 220.05 Z M 132.22 219.25 L 132.81 218.48 C 133.35 217.79 133.22 216.79 132.53 216.25 C 131.83 215.72 130.83 215.84 130.30 216.54 L 129.70 217.31 C 129.16 218.00 129.29 219.00 129.99 219.54 C 130.68 220.08 131.68 219.95 132.22 219.25 Z M 132.79 218.52 L 133.42 217.75 C 133.98 217.07 133.88 216.07 133.20 215.51 C 132.51 214.95 131.51 215.05 130.95 215.73 L 130.32 216.50 C 129.77 217.18 129.87 218.19 130.55 218.74 C 131.23 219.30 132.23 219.20 132.79 218.52 Z M 133.40 217.78 L 134.05 217.02 C 134.62 216.35 134.54 215.34 133.87 214.77 C 133.21 214.20 132.20 214.27 131.63 214.94 L 130.98 215.70 C 130.40 216.37 130.48 217.38 131.15 217.95 C 131.82 218.52 132.83 218.45 133.40 217.78 Z M 134.04 217.03 L 134.69 216.29 C 135.27 215.63 135.21 214.62 134.55 214.04 C 133.88 213.45 132.88 213.52 132.29 214.18 L 131.64 214.93 C 131.06 215.59 131.12 216.60 131.79 217.18 C 132.45 217.76 133.46 217.69 134.04 217.03 Z M 134.68 216.30 L 135.35 215.55 C 135.94 214.89 135.88 213.88 135.23 213.29 C 134.57 212.71 133.56 212.76 132.97 213.42 L 132.30 214.17 C 131.71 214.83 131.77 215.84 132.43 216.43 C 133.09 217.01 134.10 216.96 134.68 216.30 Z M 135.35 215.56 L 136.01 214.83 C 136.60 214.17 136.55 213.16 135.89 212.57 C 135.23 211.98 134.22 212.03 133.63 212.69 L 132.97 213.41 C 132.38 214.07 132.43 215.08 133.09 215.67 C 133.75 216.26 134.76 216.21 135.35 215.56 Z M 136.01 214.83 L 136.69 214.08 C 137.28 213.42 137.23 212.40 136.57 211.81 C 135.91 211.22 134.89 211.27 134.30 211.93 L 133.62 212.69 C 133.03 213.35 133.09 214.36 133.75 214.95 C 134.41 215.54 135.42 215.49 136.01 214.83 Z M 136.70 214.07 L 137.35 213.34 C 137.94 212.67 137.87 211.65 137.20 211.06 C 136.54 210.48 135.52 210.54 134.93 211.21 L 134.29 211.94 C 133.70 212.61 133.76 213.62 134.43 214.21 C 135.10 214.80 136.12 214.74 136.70 214.07 Z M 137.36 213.33 L 138.01 212.57 C 138.60 211.90 138.52 210.88 137.85 210.30 C 137.17 209.71 136.15 209.79 135.57 210.46 L 134.92 211.22 C 134.33 211.89 134.41 212.91 135.08 213.50 C 135.76 214.08 136.78 214.00 137.36 213.33 Z M 138.03 212.57 L 138.69 211.78 C 139.27 211.10 139.19 210.08 138.50 209.50 C 137.82 208.92 136.80 209.00 136.22 209.69 L 135.56 210.47 C 134.98 211.15 135.06 212.17 135.74 212.75 C 136.43 213.33 137.45 213.25 138.03 212.57 Z M 138.70 211.78 L 139.34 211.01 C 139.92 210.33 139.82 209.30 139.14 208.73 C 138.45 208.15 137.42 208.24 136.85 208.93 L 136.21 209.69 C 135.63 210.38 135.72 211.41 136.41 211.98 C 137.10 212.56 138.13 212.47 138.70 211.78 Z M 139.35 211.01 L 140.00 210.22 C 140.57 209.53 140.47 208.50 139.77 207.93 C 139.08 207.36 138.05 207.46 137.48 208.15 L 136.83 208.94 C 136.26 209.63 136.36 210.66 137.06 211.23 C 137.75 211.80 138.78 211.70 139.35 211.01 Z M 140.01 210.21 L 140.64 209.42 C 141.21 208.72 141.10 207.69 140.39 207.13 C 139.69 206.56 138.66 206.67 138.10 207.38 L 137.46 208.16 C 136.90 208.87 137.01 209.90 137.71 210.46 C 138.42 211.03 139.45 210.92 140.01 210.21 Z M 140.66 209.41 L 141.27 208.62 C 141.83 207.91 141.70 206.88 140.99 206.32 C 140.28 205.77 139.25 205.89 138.69 206.61 L 138.08 207.39 C 137.52 208.11 137.65 209.14 138.36 209.69 C 139.08 210.25 140.11 210.12 140.66 209.41 Z M 141.29 208.60 L 141.89 207.81 C 142.44 207.08 142.30 206.05 141.57 205.51 C 140.85 204.96 139.82 205.11 139.27 205.83 L 138.67 206.63 C 138.13 207.35 138.27 208.38 138.99 208.93 C 139.72 209.47 140.75 209.33 141.29 208.60 Z M 141.91 207.79 L 142.49 207.00 C 143.02 206.26 142.86 205.23 142.12 204.70 C 141.39 204.17 140.36 204.33 139.82 205.06 L 139.25 205.85 C 138.72 206.59 138.88 207.62 139.62 208.15 C 140.35 208.69 141.38 208.52 141.91 207.79 Z M 142.50 206.98 L 143.08 206.16 C 143.60 205.42 143.42 204.39 142.67 203.87 C 141.93 203.34 140.90 203.52 140.38 204.27 L 139.81 205.08 C 139.28 205.83 139.46 206.86 140.21 207.38 C 140.95 207.90 141.98 207.72 142.50 206.98 Z M 143.09 206.14 L 143.67 205.29 C 144.18 204.54 143.99 203.51 143.23 203.00 C 142.48 202.49 141.45 202.68 140.94 203.44 L 140.36 204.29 C 139.85 205.04 140.05 206.07 140.80 206.58 C 141.55 207.09 142.58 206.90 143.09 206.14 Z M 143.68 205.28 L 144.22 204.47 C 144.72 203.71 144.51 202.68 143.75 202.18 C 142.99 201.67 141.97 201.88 141.47 202.64 L 140.93 203.45 C 140.43 204.21 140.63 205.24 141.39 205.74 C 142.15 206.24 143.18 206.04 143.68 205.28 Z M 144.23 204.45 L 144.77 203.61 C 145.27 202.84 145.05 201.82 144.28 201.32 C 143.52 200.83 142.49 201.05 142.00 201.82 L 141.45 202.66 C 140.96 203.42 141.18 204.45 141.95 204.94 C 142.71 205.44 143.74 205.22 144.23 204.45 Z M 144.79 203.59 L 145.33 202.73 C 145.82 201.95 145.59 200.93 144.81 200.45 C 144.04 199.96 143.02 200.19 142.53 200.96 L 141.99 201.83 C 141.50 202.60 141.73 203.63 142.50 204.11 C 143.28 204.60 144.30 204.37 144.79 203.59 Z M 145.34 202.71 L 145.86 201.87 C 146.34 201.09 146.09 200.07 145.31 199.59 C 144.54 199.11 143.52 199.36 143.04 200.14 L 142.52 200.98 C 142.04 201.76 142.29 202.78 143.07 203.26 C 143.85 203.74 144.86 203.49 145.34 202.71 Z M 145.87 201.86 L 146.38 201.00 C 146.85 200.22 146.60 199.20 145.82 198.73 C 145.03 198.26 144.02 198.51 143.55 199.29 L 143.03 200.15 C 142.56 200.93 142.81 201.95 143.60 202.42 C 144.38 202.89 145.40 202.64 145.87 201.86 Z M 146.39 200.99 L 146.90 200.12 C 147.37 199.34 147.11 198.32 146.32 197.86 C 145.54 197.39 144.52 197.65 144.06 198.44 L 143.54 199.30 C 143.07 200.09 143.33 201.10 144.12 201.57 C 144.91 202.04 145.92 201.78 146.39 200.99 Z M 146.90 200.12 L 147.40 199.26 C 147.87 198.48 147.60 197.46 146.82 197.00 C 146.03 196.54 145.02 196.80 144.55 197.59 L 144.05 198.44 C 143.59 199.23 143.85 200.24 144.64 200.70 C 145.43 201.17 146.44 200.90 146.90 200.12 Z M 147.40 199.26 L 147.90 198.41 C 148.36 197.62 148.10 196.61 147.31 196.15 C 146.52 195.69 145.51 195.96 145.05 196.74 L 144.55 197.59 C 144.09 198.38 144.36 199.39 145.15 199.85 C 145.93 200.31 146.94 200.05 147.40 199.26 Z M 147.90 198.41 L 148.41 197.54 C 148.86 196.75 148.60 195.74 147.81 195.28 C 147.02 194.82 146.01 195.09 145.56 195.88 L 145.05 196.75 C 144.59 197.53 144.86 198.54 145.65 199.00 C 146.43 199.46 147.44 199.19 147.90 198.41 Z M 148.41 197.53 L 148.92 196.65 C 149.38 195.86 149.11 194.85 148.32 194.40 C 147.54 193.94 146.53 194.21 146.07 194.99 L 145.56 195.88 C 145.10 196.67 145.37 197.67 146.15 198.13 C 146.94 198.59 147.95 198.32 148.41 197.53 Z M 148.92 196.64 L 149.43 195.77 C 149.88 194.98 149.62 193.97 148.83 193.52 C 148.04 193.06 147.04 193.33 146.58 194.12 L 146.07 194.99 C 145.62 195.78 145.89 196.79 146.67 197.24 C 147.46 197.70 148.47 197.43 148.92 196.64 Z M 149.43 195.76 L 149.94 194.88 C 150.39 194.10 150.12 193.09 149.33 192.64 C 148.55 192.18 147.54 192.45 147.09 193.24 L 146.58 194.12 C 146.13 194.91 146.40 195.91 147.18 196.37 C 147.97 196.82 148.98 196.55 149.43 195.76 Z M 149.94 194.88 L 150.43 194.02 C 150.88 193.23 150.61 192.23 149.82 191.78 C 149.03 191.33 148.03 191.60 147.58 192.39 L 147.09 193.25 C 146.64 194.03 146.91 195.04 147.70 195.49 C 148.48 195.94 149.49 195.67 149.94 194.88 Z M 150.43 194.01 L 150.93 193.13 C 151.38 192.34 151.10 191.34 150.32 190.89 C 149.53 190.45 148.53 190.72 148.08 191.51 L 147.58 192.39 C 147.13 193.18 147.41 194.18 148.19 194.63 C 148.98 195.08 149.98 194.80 150.43 194.01 Z M 150.93 193.12 L 151.43 192.24 C 151.87 191.45 151.59 190.46 150.81 190.01 C 150.02 189.57 149.02 189.85 148.57 190.64 L 148.08 191.52 C 147.63 192.31 147.91 193.30 148.70 193.75 C 149.49 194.19 150.49 193.91 150.93 193.12 Z M 151.43 192.24 L 151.91 191.39 C 152.35 190.60 152.07 189.60 151.28 189.16 C 150.49 188.72 149.49 189.00 149.05 189.79 L 148.57 190.64 C 148.13 191.43 148.41 192.43 149.20 192.87 C 149.99 193.31 150.99 193.03 151.43 192.24 Z M 151.90 191.39 L 152.38 190.54 C 152.82 189.76 152.54 188.76 151.75 188.32 C 150.97 187.87 149.97 188.15 149.53 188.94 L 149.05 189.79 C 148.61 190.58 148.89 191.57 149.68 192.02 C 150.46 192.46 151.46 192.18 151.90 191.39 Z M 152.38 190.54 L 152.86 189.68 C 153.30 188.89 153.02 187.90 152.24 187.46 C 151.45 187.02 150.45 187.30 150.01 188.08 L 149.53 188.94 C 149.09 189.73 149.37 190.73 150.16 191.17 C 150.94 191.61 151.94 191.33 152.38 190.54 Z M 152.86 189.67 L 153.35 188.79 C 153.78 188.00 153.50 187.01 152.71 186.57 C 151.92 186.14 150.93 186.43 150.50 187.21 L 150.01 188.10 C 149.58 188.88 149.86 189.87 150.65 190.31 C 151.44 190.74 152.43 190.45 152.86 189.67 Z M 153.36 188.76 L 153.83 187.88 C 154.25 187.08 153.95 186.10 153.16 185.68 C 152.37 185.26 151.38 185.56 150.96 186.35 L 150.49 187.24 C 150.07 188.03 150.37 189.01 151.16 189.43 C 151.95 189.86 152.94 189.56 153.36 188.76 Z M 153.84 187.85 L 154.28 186.98 C 154.69 186.18 154.37 185.21 153.58 184.80 C 152.78 184.39 151.80 184.71 151.40 185.50 L 150.95 186.38 C 150.54 187.17 150.86 188.15 151.66 188.56 C 152.45 188.96 153.43 188.65 153.84 187.85 Z M 154.29 186.96 L 154.73 186.06 C 155.13 185.26 154.80 184.29 154.00 183.89 C 153.20 183.50 152.23 183.83 151.83 184.63 L 151.39 185.53 C 150.99 186.33 151.32 187.30 152.12 187.69 C 152.92 188.09 153.89 187.76 154.29 186.96 Z M 154.74 186.04 L 155.18 185.12 C 155.57 184.31 155.23 183.35 154.43 182.96 C 153.62 182.58 152.66 182.92 152.28 183.72 L 151.83 184.64 C 151.44 185.45 151.78 186.41 152.58 186.80 C 153.39 187.18 154.35 186.84 154.74 186.04 Z M 155.18 185.10 L 155.60 184.22 C 155.98 183.42 155.63 182.46 154.83 182.08 C 154.03 181.70 153.07 182.04 152.69 182.85 L 152.27 183.73 C 151.90 184.53 152.24 185.49 153.04 185.87 C 153.84 186.25 154.80 185.91 155.18 185.10 Z M 155.60 184.21 L 156.02 183.30 C 156.39 182.50 156.04 181.55 155.24 181.18 C 154.43 180.81 153.48 181.16 153.11 181.96 L 152.69 182.86 C 152.32 183.66 152.67 184.62 153.47 184.99 C 154.28 185.36 155.23 185.01 155.60 184.21 Z M 156.02 183.29 L 156.44 182.37 C 156.80 181.56 156.44 180.62 155.64 180.25 C 154.84 179.89 153.89 180.25 153.53 181.05 L 153.11 181.97 C 152.75 182.78 153.10 183.72 153.91 184.09 C 154.71 184.45 155.65 184.09 156.02 183.29 Z M 156.44 182.35 L 156.84 181.43 C 157.20 180.62 156.83 179.68 156.03 179.33 C 155.22 178.98 154.28 179.34 153.93 180.15 L 153.52 181.07 C 153.17 181.87 153.54 182.81 154.34 183.16 C 155.14 183.52 156.08 183.15 156.44 182.35 Z M 156.84 181.41 L 157.23 180.52 C 157.57 179.71 157.20 178.78 156.39 178.44 C 155.59 178.09 154.65 178.47 154.31 179.27 L 153.93 180.16 C 153.58 180.97 153.96 181.90 154.76 182.25 C 155.57 182.59 156.50 182.22 156.84 181.41 Z M 157.23 180.50 L 157.61 179.59 C 157.95 178.78 157.56 177.86 156.76 177.52 C 155.95 177.19 155.03 177.57 154.69 178.37 L 154.31 179.29 C 153.97 180.09 154.35 181.02 155.16 181.35 C 155.96 181.69 156.89 181.31 157.23 180.50 Z M 157.61 179.58 L 157.99 178.63 C 158.32 177.83 157.94 176.91 157.13 176.58 C 156.33 176.25 155.41 176.63 155.08 177.44 L 154.69 178.38 C 154.36 179.19 154.75 180.11 155.55 180.44 C 156.36 180.77 157.28 180.38 157.61 179.58 Z M 157.99 178.62 L 158.37 177.67 C 158.70 176.86 158.31 175.95 157.50 175.63 C 156.70 175.30 155.78 175.69 155.46 176.50 L 155.08 177.45 C 154.76 178.26 155.15 179.17 155.95 179.49 C 156.76 179.82 157.67 179.42 157.99 178.62 Z M 158.37 177.66 L 158.74 176.72 C 159.06 175.92 158.67 175.01 157.86 174.69 C 157.06 174.37 156.15 174.77 155.83 175.57 L 155.46 176.51 C 155.15 177.31 155.54 178.22 156.34 178.54 C 157.15 178.86 158.06 178.46 158.37 177.66 Z M 158.74 176.71 L 159.11 175.77 C 159.42 174.97 159.02 174.06 158.22 173.75 C 157.42 173.44 156.52 173.83 156.20 174.64 L 155.84 175.58 C 155.52 176.38 155.92 177.29 156.72 177.60 C 157.52 177.91 158.43 177.52 158.74 176.71 Z M 159.11 175.76 L 159.47 174.82 C 159.77 174.02 159.38 173.12 158.57 172.82 C 157.77 172.51 156.88 172.91 156.57 173.71 L 156.21 174.64 C 155.90 175.44 156.30 176.34 157.10 176.65 C 157.90 176.96 158.80 176.56 159.11 175.76 Z M 159.46 174.82 L 159.82 173.89 C 160.12 173.09 159.72 172.19 158.92 171.89 C 158.12 171.58 157.23 171.99 156.92 172.79 L 156.57 173.72 C 156.27 174.52 156.67 175.41 157.47 175.71 C 158.27 176.02 159.16 175.62 159.46 174.82 Z M 159.82 173.88 L 160.19 172.89 C 160.49 172.09 160.08 171.20 159.28 170.90 C 158.48 170.60 157.59 171.01 157.30 171.81 L 156.92 172.79 C 156.63 173.59 157.03 174.48 157.83 174.78 C 158.63 175.08 159.52 174.68 159.82 173.88 Z M 160.18 172.89 L 160.53 171.95 C 160.83 171.15 160.43 170.26 159.63 169.96 C 158.83 169.67 157.94 170.07 157.65 170.87 L 157.30 171.81 C 157.00 172.61 157.41 173.50 158.20 173.79 C 159.00 174.09 159.89 173.68 160.18 172.89 Z M 160.53 171.94 L 160.87 171.04 C 161.16 170.25 160.76 169.36 159.96 169.07 C 159.17 168.77 158.28 169.18 157.98 169.97 L 157.65 170.87 C 157.35 171.67 157.76 172.55 158.55 172.85 C 159.35 173.15 160.24 172.74 160.53 171.94 Z M 160.86 171.05 L 161.21 170.13 C 161.51 169.33 161.10 168.45 160.31 168.15 C 159.51 167.85 158.63 168.26 158.33 169.05 L 157.99 169.97 C 157.69 170.76 158.09 171.65 158.89 171.95 C 159.68 172.24 160.57 171.84 160.86 171.05 Z M 161.20 170.13 L 161.56 169.19 C 161.86 168.40 161.46 167.51 160.67 167.21 C 159.88 166.91 158.99 167.31 158.69 168.10 L 158.33 169.05 C 158.03 169.84 158.43 170.72 159.23 171.02 C 160.02 171.32 160.90 170.93 161.20 170.13 Z M 161.56 169.19 L 161.91 168.27 C 162.22 167.48 161.82 166.59 161.03 166.29 C 160.24 165.98 159.35 166.38 159.05 167.17 L 158.69 168.10 C 158.39 168.89 158.79 169.78 159.58 170.08 C 160.37 170.38 161.26 169.98 161.56 169.19 Z M 161.91 168.27 L 162.19 167.54 C 162.50 166.75 162.10 165.86 161.31 165.56 C 160.52 165.25 159.63 165.65 159.33 166.44 L 159.05 167.17 C 158.74 167.96 159.14 168.85 159.93 169.15 C 160.72 169.46 161.61 169.06 161.91 168.27 Z"
      fill="black"
      fill-rule="nonzero" /><path d="M 197.56 103.63 L 196.75 103.06 C 196.09 102.59 195.17 102.75 194.70 103.41 C 194.24 104.07 194.39 104.98 195.05 105.45 L 195.87 106.02 C 196.53 106.49 197.44 106.34 197.91 105.68 C 198.38 105.01 198.22 104.10 197.56 103.63 Z M 196.80 103.07 L 195.87 102.37 C 195.21 101.87 194.28 102.00 193.78 102.66 C 193.29 103.31 193.42 104.24 194.08 104.74 L 195.01 105.44 C 195.66 105.93 196.59 105.80 197.09 105.15 C 197.58 104.49 197.45 103.56 196.80 103.07 Z M 195.64 102.18 L 195.34 102.03 C 194.58 101.66 193.67 101.98 193.30 102.73 C 192.93 103.49 193.24 104.40 194.00 104.77 L 194.30 104.92 C 195.05 105.29 195.97 104.98 196.34 104.22 C 196.71 103.47 196.40 102.55 195.64 102.18 Z M 193.53 104.46 L 194.24 105.23 C 194.83 105.86 195.81 105.90 196.44 105.31 C 197.07 104.73 197.11 103.75 196.52 103.12 L 195.81 102.35 C 195.22 101.72 194.24 101.68 193.61 102.26 C 192.98 102.85 192.94 103.83 193.53 104.46 Z M 194.25 105.25 L 195.04 106.09 C 195.63 106.71 196.62 106.74 197.25 106.15 C 197.88 105.56 197.90 104.57 197.31 103.94 L 196.52 103.10 C 195.93 102.47 194.94 102.45 194.31 103.04 C 193.68 103.63 193.65 104.62 194.25 105.25 Z M 195.04 106.10 L 195.69 106.78 C 196.29 107.41 197.29 107.44 197.91 106.84 C 198.54 106.24 198.56 105.25 197.97 104.62 L 197.31 103.93 C 196.71 103.30 195.72 103.28 195.09 103.88 C 194.46 104.48 194.44 105.47 195.04 106.10 Z M 195.73 106.82 L 196.43 107.52 C 197.05 108.13 198.05 108.12 198.66 107.50 C 199.27 106.88 199.26 105.88 198.64 105.27 L 197.94 104.58 C 197.32 103.97 196.32 103.98 195.71 104.60 C 195.10 105.22 195.11 106.21 195.73 106.82 Z M 196.42 107.52 L 197.13 108.22 C 197.75 108.83 198.75 108.83 199.36 108.21 C 199.98 107.59 199.97 106.59 199.35 105.97 L 198.65 105.27 C 198.03 104.66 197.03 104.66 196.41 105.28 C 195.80 105.90 195.80 106.90 196.42 107.52 Z M 197.10 108.20 L 197.79 108.91 C 198.40 109.54 199.40 109.56 200.03 108.95 C 200.66 108.35 200.68 107.34 200.07 106.71 L 199.38 106.00 C 198.77 105.37 197.77 105.35 197.14 105.96 C 196.51 106.56 196.49 107.57 197.10 108.20 Z M 197.80 108.92 L 198.49 109.64 C 199.11 110.27 200.11 110.28 200.74 109.67 C 201.37 109.05 201.38 108.05 200.77 107.42 L 200.07 106.70 C 199.46 106.08 198.45 106.06 197.82 106.68 C 197.20 107.29 197.18 108.30 197.80 108.92 Z M 198.50 109.65 L 199.22 110.37 C 199.84 110.99 200.84 110.99 201.47 110.37 C 202.09 109.75 202.09 108.74 201.47 108.12 L 200.76 107.40 C 200.14 106.78 199.13 106.78 198.51 107.40 C 197.88 108.02 197.88 109.03 198.50 109.65 Z M 199.21 110.37 L 199.92 111.08 C 200.54 111.70 201.55 111.70 202.18 111.08 C 202.80 110.45 202.80 109.44 202.18 108.82 L 201.47 108.11 C 200.85 107.49 199.84 107.49 199.21 108.11 C 198.59 108.74 198.59 109.75 199.21 110.37 Z M 199.92 111.08 L 200.63 111.79 C 201.25 112.41 202.26 112.42 202.89 111.79 C 203.51 111.17 203.51 110.16 202.89 109.53 L 202.18 108.82 C 201.56 108.19 200.54 108.19 199.92 108.82 C 199.30 109.44 199.29 110.45 199.92 111.08 Z M 200.63 111.79 L 201.32 112.48 C 201.94 113.11 202.96 113.11 203.58 112.49 C 204.21 111.86 204.21 110.85 203.58 110.22 L 202.89 109.53 C 202.27 108.90 201.25 108.90 200.63 109.53 C 200.00 110.15 200.00 111.17 200.63 111.79 Z M 201.32 112.49 L 202.04 113.21 C 202.67 113.83 203.69 113.82 204.31 113.19 C 204.93 112.56 204.93 111.55 204.30 110.93 L 203.58 110.21 C 202.95 109.59 201.93 109.60 201.31 110.23 C 200.69 110.85 200.69 111.87 201.32 112.49 Z M 202.05 113.22 L 202.77 113.92 C 203.41 114.53 204.43 114.51 205.05 113.88 C 205.66 113.24 205.64 112.22 205.01 111.60 L 204.29 110.91 C 203.65 110.29 202.63 110.31 202.02 110.95 C 201.40 111.59 201.42 112.61 202.05 113.22 Z M 202.78 113.93 L 203.51 114.62 C 204.15 115.24 205.18 115.21 205.79 114.57 C 206.40 113.92 206.38 112.90 205.73 112.29 L 205.00 111.59 C 204.36 110.98 203.33 111.00 202.72 111.65 C 202.11 112.29 202.13 113.31 202.78 113.93 Z M 203.51 114.63 L 204.23 115.32 C 204.88 115.93 205.91 115.91 206.52 115.26 C 207.14 114.61 207.11 113.59 206.46 112.97 L 205.74 112.28 C 205.09 111.67 204.06 111.69 203.45 112.34 C 202.83 112.99 202.86 114.01 203.51 114.63 Z M 204.22 115.32 L 204.93 116.01 C 205.58 116.63 206.61 116.61 207.24 115.96 C 207.86 115.31 207.84 114.28 207.19 113.66 L 206.48 112.97 C 205.83 112.35 204.80 112.37 204.17 113.02 C 203.55 113.66 203.57 114.69 204.22 115.32 Z M 204.91 116.00 L 205.61 116.69 C 206.25 117.33 207.29 117.33 207.93 116.68 C 208.56 116.04 208.56 115.00 207.92 114.37 L 207.22 113.67 C 206.57 113.03 205.54 113.04 204.90 113.68 C 204.26 114.32 204.26 115.36 204.91 116.00 Z M 205.58 116.68 L 206.26 117.38 C 206.89 118.04 207.94 118.05 208.59 117.42 C 209.25 116.79 209.26 115.74 208.63 115.09 L 207.95 114.38 C 207.32 113.73 206.27 113.71 205.62 114.34 C 204.96 114.98 204.94 116.02 205.58 116.68 Z M 206.23 117.36 L 206.93 118.12 C 207.55 118.79 208.60 118.84 209.27 118.21 C 209.95 117.59 209.99 116.54 209.37 115.87 L 208.66 115.11 C 208.04 114.44 206.99 114.39 206.32 115.02 C 205.65 115.64 205.60 116.69 206.23 117.36 Z M 206.89 118.10 L 207.53 118.82 C 208.14 119.51 209.19 119.58 209.89 118.97 C 210.58 118.36 210.64 117.31 210.04 116.62 L 209.40 115.89 C 208.79 115.20 207.74 115.13 207.04 115.74 C 206.35 116.35 206.29 117.40 206.89 118.10 Z M 207.50 118.79 L 208.14 119.56 C 208.73 120.27 209.79 120.37 210.50 119.77 C 211.21 119.18 211.30 118.12 210.71 117.41 L 210.07 116.64 C 209.48 115.93 208.42 115.84 207.71 116.43 C 207.00 117.02 206.90 118.08 207.50 118.79 Z M 208.10 119.53 L 208.74 120.34 C 209.31 121.07 210.37 121.19 211.10 120.62 C 211.83 120.04 211.96 118.98 211.38 118.25 L 210.75 117.44 C 210.17 116.71 209.11 116.59 208.38 117.16 C 207.65 117.74 207.53 118.80 208.10 119.53 Z M 208.70 120.30 L 209.27 121.07 C 209.83 121.82 210.89 121.97 211.64 121.42 C 212.38 120.86 212.54 119.81 211.99 119.06 L 211.42 118.29 C 210.86 117.54 209.81 117.38 209.06 117.94 C 208.31 118.49 208.15 119.55 208.70 120.30 Z M 209.24 121.03 L 209.81 121.85 C 210.34 122.62 211.39 122.81 212.16 122.28 C 212.93 121.74 213.12 120.69 212.59 119.92 L 212.02 119.10 C 211.49 118.33 210.43 118.14 209.67 118.67 C 208.90 119.20 208.70 120.26 209.24 121.03 Z M 209.77 121.80 L 210.34 122.69 C 210.84 123.48 211.89 123.71 212.68 123.20 C 213.47 122.69 213.70 121.64 213.20 120.85 L 212.63 119.97 C 212.12 119.18 211.07 118.95 210.28 119.45 C 209.49 119.96 209.26 121.01 209.77 121.80 Z M 210.30 122.64 L 210.78 123.45 C 211.26 124.26 212.30 124.53 213.11 124.05 C 213.92 123.57 214.19 122.53 213.71 121.72 L 213.23 120.90 C 212.75 120.09 211.71 119.83 210.90 120.30 C 210.09 120.78 209.82 121.83 210.30 122.64 Z M 210.75 123.41 L 211.23 124.26 C 211.68 125.09 212.72 125.39 213.55 124.93 C 214.37 124.48 214.67 123.44 214.21 122.61 L 213.74 121.76 C 213.29 120.93 212.25 120.63 211.42 121.09 C 210.60 121.54 210.30 122.58 210.75 123.41 Z M 211.20 124.23 L 211.67 125.14 C 212.11 125.98 213.15 126.30 213.98 125.87 C 214.82 125.43 215.15 124.40 214.71 123.56 L 214.24 122.65 C 213.80 121.81 212.77 121.48 211.93 121.92 C 211.09 122.36 210.76 123.39 211.20 124.23 Z M 211.65 125.11 L 212.12 126.05 C 212.54 126.90 213.57 127.25 214.42 126.83 C 215.27 126.41 215.62 125.38 215.20 124.53 L 214.73 123.58 C 214.31 122.74 213.28 122.39 212.43 122.81 C 211.58 123.23 211.23 124.26 211.65 125.11 Z M 212.10 126.03 L 212.53 126.91 C 212.93 127.77 213.96 128.13 214.82 127.73 C 215.68 127.32 216.04 126.29 215.63 125.43 L 215.21 124.55 C 214.80 123.69 213.78 123.33 212.92 123.73 C 212.06 124.14 211.70 125.17 212.10 126.03 Z M 212.51 126.89 L 212.93 127.80 C 213.32 128.67 214.35 129.05 215.21 128.65 C 216.08 128.26 216.46 127.23 216.07 126.37 L 215.65 125.45 C 215.25 124.59 214.23 124.21 213.36 124.60 C 212.50 125.00 212.11 126.02 212.51 126.89 Z M 212.91 127.78 L 213.32 128.71 C 213.70 129.58 214.72 129.98 215.60 129.60 C 216.47 129.21 216.87 128.19 216.49 127.32 L 216.08 126.39 C 215.70 125.51 214.68 125.12 213.80 125.50 C 212.93 125.88 212.53 126.90 212.91 127.78 Z M 213.30 128.68 L 213.69 129.61 C 214.06 130.50 215.08 130.91 215.96 130.54 C 216.85 130.18 217.26 129.16 216.89 128.28 L 216.50 127.34 C 216.13 126.46 215.12 126.04 214.23 126.41 C 213.35 126.78 212.93 127.80 213.30 128.68 Z M 213.68 129.59 L 214.05 130.53 C 214.41 131.42 215.42 131.85 216.31 131.50 C 217.20 131.15 217.64 130.14 217.28 129.25 L 216.91 128.30 C 216.56 127.41 215.55 126.98 214.65 127.33 C 213.76 127.68 213.33 128.69 213.68 129.59 Z M 214.04 130.50 L 214.39 131.44 C 214.73 132.34 215.73 132.79 216.63 132.45 C 217.53 132.11 217.99 131.11 217.65 130.21 L 217.30 129.27 C 216.96 128.37 215.95 127.92 215.05 128.26 C 214.15 128.59 213.70 129.60 214.04 130.50 Z M 214.38 131.41 L 214.71 132.35 C 215.04 133.26 216.04 133.73 216.94 133.40 C 217.85 133.08 218.32 132.08 218.00 131.17 L 217.66 130.23 C 217.34 129.33 216.34 128.86 215.43 129.18 C 214.52 129.51 214.05 130.51 214.38 131.41 Z M 214.70 132.33 L 215.03 133.27 C 215.34 134.18 216.34 134.67 217.25 134.35 C 218.16 134.04 218.65 133.04 218.33 132.13 L 218.01 131.19 C 217.69 130.28 216.70 129.79 215.79 130.11 C 214.87 130.42 214.39 131.42 214.70 132.33 Z M 215.02 133.26 L 215.34 134.20 C 215.64 135.12 216.64 135.61 217.55 135.31 C 218.47 135.00 218.97 134.01 218.66 133.09 L 218.34 132.14 C 218.03 131.23 217.04 130.73 216.12 131.04 C 215.21 131.35 214.71 132.34 215.02 133.26 Z M 215.33 134.19 L 215.64 135.15 C 215.94 136.07 216.94 136.57 217.86 136.27 C 218.78 135.97 219.28 134.98 218.98 134.06 L 218.66 133.10 C 218.36 132.18 217.37 131.68 216.45 131.98 C 215.53 132.28 215.03 133.27 215.33 134.19 Z M 215.64 135.14 L 215.94 136.09 C 216.24 137.02 217.23 137.53 218.15 137.23 C 219.08 136.93 219.59 135.95 219.29 135.02 L 218.98 134.07 C 218.69 133.14 217.70 132.63 216.77 132.93 C 215.85 133.22 215.34 134.21 215.64 135.14 Z M 215.94 136.09 L 216.24 137.04 C 216.53 137.96 217.52 138.48 218.44 138.19 C 219.37 137.90 219.89 136.91 219.60 135.98 L 219.30 135.03 C 219.00 134.10 218.02 133.59 217.09 133.88 C 216.16 134.17 215.65 135.16 215.94 136.09 Z M 216.23 137.03 L 216.53 137.99 C 216.81 138.92 217.80 139.44 218.73 139.15 C 219.66 138.86 220.18 137.87 219.90 136.94 L 219.60 135.99 C 219.31 135.06 218.32 134.54 217.39 134.82 C 216.46 135.11 215.94 136.10 216.23 137.03 Z M 216.52 137.98 L 216.81 138.94 C 217.10 139.88 218.09 140.40 219.02 140.12 C 219.95 139.84 220.48 138.85 220.20 137.91 L 219.90 136.95 C 219.62 136.02 218.63 135.49 217.70 135.77 C 216.76 136.06 216.24 137.05 216.52 137.98 Z M 216.81 138.93 L 217.09 139.89 C 217.37 140.83 218.36 141.36 219.29 141.08 C 220.23 140.80 220.76 139.82 220.49 138.88 L 220.20 137.92 C 219.92 136.99 218.94 136.45 218.00 136.73 C 217.06 137.01 216.53 138.00 216.81 138.93 Z M 217.09 139.88 L 217.36 140.83 C 217.63 141.77 218.62 142.31 219.56 142.04 C 220.50 141.77 221.04 140.79 220.77 139.85 L 220.49 138.89 C 220.22 137.95 219.24 137.41 218.30 137.68 C 217.36 137.96 216.81 138.94 217.09 139.88 Z M 217.36 140.82 L 217.62 141.77 C 217.89 142.71 218.87 143.27 219.81 143.00 C 220.75 142.74 221.31 141.76 221.04 140.81 L 220.77 139.86 C 220.51 138.92 219.53 138.37 218.59 138.63 C 217.64 138.89 217.09 139.87 217.36 140.82 Z M 217.61 141.75 L 217.87 142.71 C 218.13 143.66 219.10 144.22 220.05 143.96 C 221.00 143.71 221.56 142.73 221.31 141.79 L 221.05 140.83 C 220.79 139.88 219.82 139.32 218.87 139.58 C 217.92 139.83 217.36 140.81 217.61 141.75 Z M 217.86 142.69 L 218.11 143.66 C 218.36 144.61 219.33 145.18 220.28 144.94 C 221.23 144.69 221.80 143.72 221.56 142.77 L 221.31 141.81 C 221.07 140.85 220.10 140.28 219.15 140.52 C 218.19 140.77 217.62 141.74 217.86 142.69 Z M 218.11 143.63 L 218.34 144.61 C 218.58 145.57 219.54 146.15 220.50 145.92 C 221.45 145.69 222.04 144.72 221.81 143.77 L 221.57 142.79 C 221.33 141.83 220.37 141.25 219.41 141.48 C 218.46 141.71 217.87 142.68 218.11 143.63 Z M 218.34 144.59 L 218.56 145.57 C 218.78 146.53 219.74 147.12 220.70 146.90 C 221.66 146.68 222.26 145.72 222.04 144.76 L 221.81 143.79 C 221.59 142.83 220.63 142.23 219.67 142.45 C 218.71 142.67 218.11 143.63 218.34 144.59 Z M 218.55 145.54 L 218.76 146.48 C 218.97 147.45 219.92 148.06 220.88 147.85 C 221.85 147.64 222.46 146.69 222.25 145.72 L 222.04 144.79 C 221.83 143.82 220.88 143.21 219.92 143.42 C 218.96 143.63 218.34 144.58 218.55 145.54 Z M 218.75 146.46 L 218.95 147.43 C 219.15 148.39 220.09 149.02 221.06 148.82 C 222.03 148.62 222.65 147.67 222.45 146.71 L 222.25 145.74 C 222.06 144.78 221.11 144.15 220.14 144.35 C 219.18 144.55 218.55 145.50 218.75 146.46 Z M 218.94 147.41 L 219.14 148.40 C 219.33 149.37 220.27 150.00 221.24 149.81 C 222.21 149.63 222.84 148.69 222.65 147.71 L 222.46 146.72 C 222.27 145.75 221.33 145.12 220.36 145.31 C 219.39 145.50 218.75 146.44 218.94 147.41 Z M 219.13 148.39 L 219.32 149.41 C 219.51 150.39 220.44 151.03 221.41 150.85 C 222.39 150.67 223.03 149.73 222.85 148.76 L 222.66 147.73 C 222.48 146.76 221.54 146.11 220.57 146.30 C 219.59 146.48 218.95 147.41 219.13 148.39 Z M 219.32 149.40 L 219.50 150.38 C 219.67 151.36 220.60 152.01 221.58 151.83 C 222.55 151.66 223.20 150.73 223.03 149.75 L 222.85 148.77 C 222.68 147.80 221.75 147.15 220.77 147.32 C 219.80 147.50 219.15 148.43 219.32 149.40 Z M 219.49 150.37 L 219.66 151.36 C 219.83 152.34 220.76 152.99 221.73 152.82 C 222.71 152.66 223.37 151.73 223.20 150.75 L 223.03 149.76 C 222.86 148.79 221.94 148.13 220.96 148.30 C 219.98 148.47 219.33 149.39 219.49 150.37 Z M 219.66 151.35 L 219.82 152.34 C 219.98 153.32 220.91 153.99 221.88 153.83 C 222.86 153.67 223.53 152.74 223.37 151.77 L 223.20 150.77 C 223.04 149.79 222.12 149.12 221.14 149.28 C 220.16 149.44 219.50 150.37 219.66 151.35 Z M 219.82 152.33 L 219.97 153.33 C 220.12 154.31 221.04 154.98 222.02 154.83 C 223.00 154.68 223.68 153.76 223.52 152.78 L 223.37 151.78 C 223.22 150.80 222.30 150.13 221.32 150.28 C 220.34 150.43 219.67 151.35 219.82 152.33 Z M 219.97 153.31 L 220.11 154.29 C 220.25 155.27 221.16 155.96 222.15 155.81 C 223.13 155.67 223.81 154.76 223.67 153.78 L 223.53 152.80 C 223.39 151.81 222.47 151.13 221.49 151.27 C 220.51 151.42 219.83 152.33 219.97 153.31 Z M 220.11 154.27 L 220.24 155.30 C 220.37 156.29 221.28 156.98 222.26 156.85 C 223.25 156.72 223.94 155.82 223.81 154.83 L 223.67 153.80 C 223.54 152.82 222.64 152.12 221.66 152.25 C 220.67 152.38 219.98 153.28 220.11 154.27 Z M 220.24 155.28 L 220.36 156.29 C 220.48 157.28 221.37 157.98 222.36 157.87 C 223.35 157.75 224.05 156.85 223.93 155.87 L 223.81 154.86 C 223.70 153.87 222.80 153.16 221.81 153.28 C 220.83 153.40 220.12 154.30 220.24 155.28 Z M 220.36 156.27 L 220.46 157.26 C 220.57 158.25 221.46 158.96 222.45 158.85 C 223.43 158.75 224.15 157.86 224.04 156.87 L 223.94 155.89 C 223.83 154.90 222.94 154.18 221.95 154.29 C 220.96 154.40 220.25 155.28 220.36 156.27 Z M 220.46 157.24 L 220.56 158.21 C 220.65 159.20 221.53 159.92 222.52 159.82 C 223.51 159.73 224.24 158.84 224.14 157.85 L 224.05 156.89 C 223.95 155.90 223.07 155.17 222.08 155.27 C 221.09 155.37 220.36 156.25 220.46 157.24 Z M 220.55 158.19 L 220.64 159.18 C 220.73 160.17 221.61 160.90 222.60 160.81 C 223.59 160.72 224.32 159.85 224.23 158.86 L 224.14 157.87 C 224.05 156.88 223.18 156.15 222.19 156.24 C 221.19 156.32 220.46 157.20 220.55 158.19 Z M 220.64 159.17 L 220.73 160.19 C 220.81 161.18 221.68 161.92 222.67 161.83 C 223.67 161.75 224.40 160.88 224.32 159.89 L 224.23 158.87 C 224.15 157.88 223.28 157.14 222.29 157.22 C 221.29 157.31 220.56 158.18 220.64 159.17 Z M 220.73 160.18 L 220.80 161.18 C 220.88 162.17 221.75 162.91 222.74 162.84 C 223.73 162.76 224.48 161.89 224.40 160.90 L 224.32 159.90 C 224.24 158.90 223.37 158.16 222.38 158.24 C 221.39 158.32 220.65 159.19 220.73 160.18 Z M 220.80 161.17 L 220.88 162.15 C 220.95 163.14 221.81 163.89 222.81 163.82 C 223.80 163.74 224.54 162.88 224.47 161.89 L 224.40 160.91 C 224.33 159.91 223.46 159.17 222.47 159.24 C 221.48 159.31 220.73 160.18 220.80 161.17 Z M 220.88 162.15 L 220.95 163.13 C 221.01 164.12 221.88 164.87 222.87 164.80 C 223.86 164.73 224.61 163.87 224.54 162.88 L 224.47 161.89 C 224.40 160.90 223.54 160.15 222.55 160.22 C 221.55 160.29 220.81 161.15 220.88 162.15 Z M 220.94 163.13 L 221.01 164.15 C 221.08 165.14 221.94 165.89 222.93 165.83 C 223.92 165.76 224.68 164.90 224.61 163.91 L 224.54 162.89 C 224.47 161.89 223.61 161.14 222.62 161.21 C 221.63 161.27 220.88 162.13 220.94 163.13 Z M 221.01 164.14 L 221.08 165.14 C 221.14 166.13 221.99 166.89 222.99 166.83 C 223.98 166.76 224.73 165.91 224.67 164.91 L 224.61 163.92 C 224.55 162.92 223.69 162.17 222.70 162.23 C 221.70 162.30 220.95 163.15 221.01 164.14 Z M 221.08 165.13 L 221.13 166.11 C 221.19 167.10 222.04 167.86 223.04 167.80 C 224.03 167.74 224.79 166.89 224.73 165.90 L 224.67 164.92 C 224.61 163.93 223.76 163.17 222.77 163.23 C 221.78 163.29 221.02 164.14 221.08 165.13 Z M 221.13 166.10 L 221.19 167.09 C 221.24 168.08 222.09 168.84 223.08 168.79 C 224.07 168.74 224.83 167.89 224.78 166.90 L 224.73 165.91 C 224.68 164.91 223.83 164.15 222.84 164.20 C 221.84 164.26 221.08 165.10 221.13 166.10 Z M 221.19 167.08 L 221.23 168.08 C 221.28 169.07 222.12 169.84 223.12 169.79 C 224.11 169.74 224.88 168.90 224.83 167.91 L 224.78 166.91 C 224.73 165.91 223.89 165.15 222.90 165.19 C 221.91 165.24 221.14 166.08 221.19 167.08 Z M 221.23 168.07 L 221.28 169.06 C 221.32 170.05 222.15 170.82 223.15 170.78 C 224.14 170.74 224.91 169.91 224.87 168.91 L 224.83 167.92 C 224.79 166.93 223.95 166.16 222.96 166.20 C 221.97 166.24 221.19 167.07 221.23 168.07 Z M 221.28 169.05 L 221.31 170.04 C 221.34 171.03 222.18 171.81 223.17 171.77 C 224.16 171.74 224.94 170.91 224.90 169.92 L 224.87 168.92 C 224.83 167.93 224.00 167.16 223.01 167.19 C 222.02 167.23 221.24 168.06 221.28 169.05 Z M 221.31 170.03 L 221.34 170.99 C 221.37 171.98 222.19 172.76 223.18 172.74 C 224.18 172.71 224.96 171.88 224.93 170.89 L 224.90 169.93 C 224.87 168.94 224.05 168.16 223.06 168.18 C 222.06 168.21 221.28 169.04 221.31 170.03 Z M 221.34 170.98 L 221.36 171.97 C 221.38 172.96 222.20 173.74 223.19 173.72 C 224.18 173.70 224.97 172.88 224.95 171.89 L 224.93 170.90 C 224.90 169.91 224.08 169.13 223.09 169.15 C 222.10 169.17 221.32 169.99 221.34 170.98 Z M 221.36 171.96 L 221.38 172.97 C 221.40 173.96 222.21 174.75 223.20 174.74 C 224.19 174.72 224.98 173.91 224.96 172.92 L 224.95 171.90 C 224.93 170.91 224.12 170.12 223.13 170.14 C 222.14 170.15 221.35 170.97 221.36 171.96 Z M 221.38 172.96 L 221.39 173.98 C 221.40 174.97 222.21 175.77 223.20 175.76 C 224.19 175.75 224.98 174.94 224.97 173.95 L 224.96 172.93 C 224.95 171.94 224.14 171.15 223.15 171.16 C 222.17 171.17 221.37 171.98 221.38 172.96 Z M 221.40 173.98 L 221.40 174.96 C 221.41 175.95 222.21 176.75 223.20 176.74 C 224.18 176.73 224.98 175.93 224.97 174.94 L 224.97 173.96 C 224.96 172.97 224.16 172.17 223.17 172.18 C 222.19 172.19 221.39 172.99 221.40 173.98 Z M 221.40 174.96 L 221.41 175.97 C 221.41 176.95 222.21 177.75 223.19 177.75 C 224.18 177.74 224.98 176.94 224.97 175.96 L 224.97 174.95 C 224.97 173.96 224.17 173.17 223.18 173.17 C 222.20 173.17 221.40 173.97 221.40 174.96 Z M 221.41 175.96 L 221.41 176.98 C 221.41 177.96 222.21 178.76 223.19 178.76 C 224.18 178.76 224.97 177.96 224.97 176.97 L 224.97 175.96 C 224.97 174.98 224.17 174.18 223.19 174.18 C 222.21 174.18 221.41 174.98 221.41 175.96 Z M 221.41 176.98 L 221.41 177.99 C 221.41 178.97 222.21 179.76 223.19 179.76 C 224.17 179.76 224.97 178.97 224.97 177.99 L 224.97 176.98 C 224.97 175.99 224.17 175.20 223.19 175.20 C 222.21 175.20 221.41 175.99 221.41 176.98 Z M 221.42 177.98 L 221.41 179.00 C 221.41 179.98 222.21 180.77 223.19 180.77 C 224.17 180.78 224.96 179.98 224.96 179.00 L 224.97 177.99 C 224.97 177.01 224.17 176.21 223.19 176.21 C 222.21 176.21 221.42 177.00 221.42 177.98 Z M 221.42 178.98 L 221.41 179.98 C 221.40 180.96 222.18 181.76 223.16 181.77 C 224.14 181.78 224.94 180.99 224.95 180.01 L 224.96 179.02 C 224.97 178.04 224.18 177.24 223.21 177.23 C 222.23 177.22 221.43 178.00 221.42 178.98 Z M 221.41 179.96 L 221.39 180.95 C 221.36 181.92 222.14 182.73 223.11 182.76 C 224.09 182.78 224.90 182.01 224.93 181.03 L 224.95 180.04 C 224.97 179.06 224.20 178.25 223.22 178.23 C 222.24 178.21 221.43 178.98 221.41 179.96 Z M 221.39 180.91 L 221.35 181.90 C 221.31 182.88 222.06 183.70 223.04 183.74 C 224.01 183.79 224.84 183.03 224.88 182.06 L 224.92 181.06 C 224.96 180.09 224.21 179.26 223.23 179.22 C 222.26 179.18 221.43 179.94 221.39 180.91 Z M 221.35 181.86 L 221.29 182.87 C 221.22 183.84 221.96 184.68 222.93 184.74 C 223.90 184.81 224.74 184.07 224.81 183.10 L 224.87 182.10 C 224.94 181.13 224.20 180.28 223.23 180.22 C 222.26 180.16 221.42 180.89 221.35 181.86 Z M 221.29 182.83 L 221.20 183.83 C 221.12 184.79 221.83 185.65 222.80 185.74 C 223.77 185.82 224.62 185.11 224.71 184.14 L 224.80 183.14 C 224.89 182.17 224.17 181.32 223.20 181.23 C 222.24 181.14 221.38 181.86 221.29 182.83 Z M 221.21 183.79 L 221.10 184.78 C 220.99 185.74 221.69 186.61 222.65 186.72 C 223.62 186.83 224.48 186.13 224.59 185.17 L 224.70 184.18 C 224.81 183.21 224.12 182.34 223.15 182.24 C 222.19 182.13 221.32 182.82 221.21 183.79 Z M 221.11 184.74 L 220.97 185.74 C 220.85 186.70 221.52 187.58 222.48 187.71 C 223.44 187.83 224.32 187.16 224.45 186.20 L 224.58 185.21 C 224.71 184.25 224.04 183.37 223.08 183.24 C 222.12 183.11 221.24 183.78 221.11 184.74 Z M 220.99 185.70 L 220.83 186.71 C 220.68 187.66 221.33 188.56 222.28 188.71 C 223.24 188.86 224.13 188.20 224.28 187.25 L 224.44 186.24 C 224.59 185.28 223.94 184.39 222.98 184.24 C 222.03 184.09 221.13 184.74 220.99 185.70 Z M 220.84 186.67 L 220.66 187.66 C 220.49 188.61 221.12 189.51 222.07 189.68 C 223.02 189.85 223.92 189.22 224.09 188.27 L 224.27 187.29 C 224.44 186.34 223.81 185.43 222.86 185.26 C 221.91 185.09 221.01 185.73 220.84 186.67 Z M 220.68 187.63 L 220.48 188.59 C 220.29 189.53 220.91 190.44 221.85 190.63 C 222.79 190.82 223.70 190.21 223.89 189.27 L 224.08 188.31 C 224.27 187.37 223.66 186.45 222.72 186.26 C 221.78 186.07 220.86 186.68 220.68 187.63 Z M 220.50 188.55 L 220.28 189.53 C 220.07 190.47 220.66 191.39 221.60 191.60 C 222.53 191.80 223.45 191.22 223.66 190.28 L 223.88 189.30 C 224.08 188.37 223.49 187.44 222.56 187.24 C 221.63 187.03 220.70 187.62 220.50 188.55 Z M 220.29 189.50 L 220.05 190.49 C 219.83 191.42 220.40 192.35 221.32 192.57 C 222.25 192.80 223.18 192.23 223.41 191.30 L 223.65 190.31 C 223.87 189.39 223.30 188.46 222.38 188.23 C 221.45 188.01 220.52 188.57 220.29 189.50 Z M 220.07 190.46 L 219.81 191.41 C 219.57 192.33 220.12 193.27 221.04 193.52 C 221.96 193.76 222.90 193.21 223.14 192.29 L 223.39 191.34 C 223.64 190.42 223.09 189.47 222.17 189.23 C 221.25 188.99 220.31 189.54 220.07 190.46 Z M 219.83 191.38 L 219.56 192.32 C 219.30 193.23 219.83 194.18 220.74 194.44 C 221.65 194.70 222.60 194.17 222.86 193.26 L 223.13 192.32 C 223.39 191.41 222.86 190.46 221.95 190.20 C 221.04 189.94 220.09 190.47 219.83 191.38 Z M 219.58 192.29 L 219.29 193.24 C 219.01 194.14 219.52 195.10 220.42 195.37 C 221.32 195.65 222.28 195.14 222.55 194.24 L 222.84 193.29 C 223.12 192.39 222.61 191.43 221.71 191.16 C 220.81 190.88 219.85 191.39 219.58 192.29 Z M 219.30 193.22 L 219.00 194.16 C 218.71 195.05 219.19 196.01 220.09 196.30 C 220.98 196.59 221.94 196.10 222.23 195.21 L 222.53 194.27 C 222.82 193.38 222.34 192.42 221.44 192.13 C 220.55 191.84 219.59 192.32 219.30 193.22 Z M 219.01 194.14 L 218.69 195.09 C 218.39 195.97 218.86 196.93 219.74 197.24 C 220.62 197.54 221.58 197.07 221.88 196.19 L 222.21 195.23 C 222.51 194.35 222.04 193.39 221.16 193.09 C 220.28 192.79 219.32 193.26 219.01 194.14 Z M 218.70 195.07 L 218.36 196.03 C 218.05 196.91 218.51 197.87 219.38 198.18 C 220.25 198.49 221.21 198.03 221.53 197.16 L 221.87 196.20 C 222.18 195.33 221.72 194.37 220.85 194.06 C 219.98 193.75 219.02 194.20 218.70 195.07 Z M 218.38 196.01 L 218.02 196.97 C 217.70 197.84 218.14 198.80 219.01 199.12 C 219.87 199.44 220.83 199.00 221.15 198.14 L 221.51 197.18 C 221.83 196.32 221.39 195.35 220.53 195.03 C 219.66 194.71 218.70 195.15 218.38 196.01 Z M 218.04 196.94 L 217.68 197.87 C 217.34 198.72 217.76 199.69 218.62 200.02 C 219.47 200.36 220.44 199.94 220.77 199.08 L 221.14 198.16 C 221.47 197.31 221.05 196.34 220.20 196.01 C 219.34 195.67 218.38 196.09 218.04 196.94 Z M 217.70 197.83 L 217.31 198.77 C 216.95 199.61 217.34 200.58 218.19 200.94 C 219.03 201.29 220.00 200.90 220.35 200.06 L 220.75 199.12 C 221.11 198.28 220.71 197.31 219.87 196.95 C 219.03 196.59 218.06 196.99 217.70 197.83 Z M 217.33 198.72 L 216.91 199.64 C 216.53 200.47 216.89 201.45 217.72 201.83 C 218.54 202.21 219.52 201.85 219.91 201.02 L 220.33 200.10 C 220.71 199.27 220.35 198.29 219.52 197.91 C 218.69 197.53 217.71 197.89 217.33 198.72 Z M 216.93 199.60 L 216.51 200.47 C 216.11 201.28 216.44 202.27 217.26 202.67 C 218.07 203.07 219.06 202.73 219.46 201.92 L 219.88 201.06 C 220.28 200.24 219.95 199.26 219.13 198.86 C 218.32 198.45 217.33 198.79 216.93 199.60 Z M 216.52 200.44 L 216.07 201.32 C 215.66 202.13 215.98 203.12 216.78 203.53 C 217.59 203.94 218.57 203.63 218.99 202.82 L 219.44 201.94 C 219.85 201.14 219.54 200.15 218.73 199.73 C 217.93 199.32 216.94 199.64 216.52 200.44 Z M 216.09 201.31 L 215.62 202.19 C 215.20 202.99 215.50 203.98 216.29 204.40 C 217.09 204.82 218.08 204.52 218.50 203.72 L 218.97 202.84 C 219.40 202.04 219.09 201.05 218.30 200.63 C 217.50 200.21 216.51 200.51 216.09 201.31 Z M 215.64 202.17 L 215.15 203.05 C 214.72 203.83 215.01 204.82 215.80 205.26 C 216.58 205.69 217.57 205.40 218.01 204.61 L 218.49 203.74 C 218.92 202.95 218.63 201.96 217.85 201.53 C 217.06 201.10 216.07 201.38 215.64 202.17 Z M 215.17 203.02 L 214.67 203.91 C 214.22 204.68 214.49 205.67 215.27 206.12 C 216.05 206.56 217.04 206.29 217.48 205.52 L 217.99 204.64 C 218.43 203.86 218.16 202.87 217.39 202.42 C 216.61 201.98 215.62 202.25 215.17 203.02 Z M 214.69 203.88 L 214.18 204.73 C 213.72 205.50 213.97 206.49 214.73 206.95 C 215.50 207.41 216.49 207.16 216.95 206.40 L 217.46 205.54 C 217.92 204.78 217.67 203.78 216.91 203.32 C 216.14 202.86 215.15 203.11 214.69 203.88 Z M 214.20 204.70 L 213.67 205.55 C 213.19 206.30 213.41 207.30 214.16 207.77 C 214.92 208.25 215.91 208.03 216.39 207.27 L 216.93 206.43 C 217.40 205.68 217.18 204.68 216.43 204.20 C 215.68 203.73 214.68 203.95 214.20 204.70 Z M 213.69 205.51 L 213.14 206.34 C 212.64 207.08 212.84 208.08 213.57 208.57 C 214.31 209.07 215.31 208.87 215.80 208.14 L 216.36 207.31 C 216.86 206.57 216.66 205.57 215.92 205.08 C 215.19 204.58 214.19 204.78 213.69 205.51 Z M 213.16 206.32 L 212.61 207.11 C 212.10 207.83 212.27 208.83 212.99 209.34 C 213.71 209.85 214.71 209.68 215.22 208.95 L 215.78 208.16 C 216.29 207.44 216.11 206.44 215.39 205.93 C 214.67 205.42 213.67 205.60 213.16 206.32 Z M 212.63 207.09 L 212.08 207.84 C 211.56 208.55 211.71 209.54 212.42 210.07 C 213.13 210.59 214.13 210.43 214.65 209.72 L 215.20 208.97 C 215.72 208.26 215.57 207.27 214.86 206.75 C 214.15 206.23 213.15 206.38 212.63 207.09 Z M 212.10 207.82 L 211.47 208.64 C 210.94 209.33 211.08 210.33 211.77 210.86 C 212.47 211.39 213.46 211.26 214.00 210.57 L 214.62 209.74 C 215.16 209.05 215.02 208.05 214.33 207.52 C 213.63 206.99 212.63 207.12 212.10 207.82 Z M 211.50 208.62 L 210.86 209.43 C 210.32 210.12 210.43 211.11 211.12 211.65 C 211.80 212.19 212.79 212.07 213.33 211.39 L 213.97 210.58 C 214.51 209.90 214.40 208.91 213.71 208.36 C 213.03 207.82 212.04 207.94 211.50 208.62 Z M 210.88 209.41 L 210.23 210.20 C 209.68 210.87 209.78 211.86 210.45 212.41 C 211.12 212.96 212.11 212.87 212.66 212.20 L 213.31 211.41 C 213.86 210.74 213.76 209.75 213.09 209.20 C 212.42 208.65 211.44 208.74 210.88 209.41 Z M 210.27 210.17 L 209.60 210.94 C 209.03 211.59 209.09 212.57 209.74 213.14 C 210.39 213.71 211.37 213.65 211.94 213.00 L 212.62 212.23 C 213.18 211.58 213.12 210.60 212.47 210.03 C 211.83 209.46 210.84 209.52 210.27 210.17 Z M 209.67 210.88 L 208.95 211.62 C 208.35 212.22 208.36 213.20 208.96 213.80 C 209.57 214.40 210.55 214.39 211.15 213.79 L 211.87 213.06 C 212.47 212.45 212.46 211.47 211.85 210.87 C 211.25 210.27 210.27 210.28 209.67 210.88 Z M 209.06 211.54 L 208.27 212.21 C 207.63 212.76 207.56 213.73 208.10 214.37 C 208.65 215.01 209.62 215.08 210.26 214.53 L 211.04 213.86 C 211.68 213.31 211.76 212.35 211.21 211.71 C 210.66 211.07 209.70 210.99 209.06 211.54 Z M 208.36 212.17 L 207.61 212.73 C 206.95 213.22 206.81 214.17 207.31 214.83 C 207.80 215.50 208.75 215.64 209.41 215.14 L 210.16 214.58 C 210.83 214.08 210.97 213.14 210.47 212.47 C 209.97 211.81 209.03 211.67 208.36 212.17 Z M 207.65 212.72 L 207.46 212.85 C 206.79 213.33 206.64 214.26 207.12 214.93 C 207.60 215.60 208.53 215.76 209.20 215.28 L 209.38 215.14 C 210.05 214.66 210.20 213.73 209.72 213.07 C 209.25 212.40 208.31 212.24 207.65 212.72 Z"
      fill="black"
      fill-rule="nonzero" /></svg>