<svg xmlns="http://www.w3.org/2000/svg" width="300" height="300" viewBox="0 0 300 300">
<path d="M 130.65 114.83 L 129.85 114.39 C 129.16 114.00 128.29 114.25 127.91 114.95 C 127.52 115.64 127.77 116.51 128.47 116.89 L 129.27 117.34 C 129.96 117.72 130.83 117.47 131.21 116.78 C 131.60 116.08 131.35 115.21 130.65 114.83 Z M 129.87 114.39 L 128.93 113.85 C 128.24 113.46 127.36 113.70 126.97 114.39 C 126.58 115.08 126.82 115.96 127.51 116.35 L 128.45 116.89 C 129.14 117.28 130.01 117.04 130.41 116.35 C 130.80 115.66 130.56 114.79 129.87 114.39 Z M 128.96 113.86 L 128.11 113.36 C 127.42 112.95 126.54 113.17 126.13 113.85 C 125.72 114.54 125.95 115.42 126.63 115.83 L 127.48 116.34 C 128.16 116.75 129.05 116.52 129.45 115.84 C 129.86 115.16 129.64 114.27 128.96 113.86 Z M 128.17 113.39 L 127.31 112.82 C 126.64 112.37 125.74 112.56 125.30 113.22 C 124.86 113.89 125.04 114.79 125.71 115.23 L 126.57 115.80 C 127.23 116.24 128.13 116.06 128.57 115.39 C 129.02 114.73 128.83 113.83 128.17 113.39 Z M 127.44 112.90 L 126.64 112.24 C 126.03 111.73 125.11 111.81 124.59 112.43 C 124.08 113.05 124.16 113.97 124.78 114.48 L 125.58 115.14 C 126.19 115.66 127.11 115.57 127.63 114.95 C 128.14 114.33 128.05 113.42 127.44 112.90 Z M 126.88 112.47 L 126.27 111.67 C 125.77 111.03 124.85 110.91 124.21 111.40 C 123.57 111.90 123.44 112.82 123.94 113.46 L 124.55 114.26 C 125.04 114.90 125.96 115.02 126.61 114.53 C 127.25 114.03 127.37 113.11 126.88 112.47 Z M 126.50 112.05 L 126.15 111.09 C 125.86 110.32 125.01 109.93 124.23 110.21 C 123.46 110.49 123.06 111.35 123.35 112.13 L 123.70 113.08 C 123.99 113.86 124.85 114.25 125.62 113.97 C 126.39 113.68 126.79 112.83 126.50 112.05 Z M 126.27 111.80 L 126.38 110.93 C 126.48 110.08 125.88 109.32 125.04 109.22 C 124.20 109.11 123.43 109.71 123.33 110.55 L 123.22 111.42 C 123.12 112.27 123.72 113.03 124.56 113.13 C 125.41 113.24 126.17 112.64 126.27 111.80 Z M 124.47 112.28 L 125.24 112.47 C 126.09 112.68 126.95 112.17 127.16 111.32 C 127.37 110.47 126.86 109.61 126.01 109.40 L 125.24 109.20 C 124.39 108.99 123.53 109.51 123.32 110.35 C 123.11 111.20 123.62 112.06 124.47 112.28 Z M 124.56 112.15 L 125.38 112.87 C 126.05 113.46 127.07 113.39 127.66 112.72 C 128.25 112.04 128.18 111.02 127.51 110.43 L 126.69 109.72 C 126.02 109.13 125.00 109.19 124.41 109.87 C 123.82 110.54 123.89 111.56 124.56 112.15 Z M 125.13 112.63 L 125.70 113.39 C 126.24 114.11 127.26 114.26 127.99 113.72 C 128.71 113.18 128.86 112.15 128.32 111.43 L 127.75 110.67 C 127.21 109.95 126.19 109.80 125.46 110.34 C 124.74 110.88 124.59 111.90 125.13 112.63 Z M 125.62 113.29 L 126.18 114.17 C 126.67 114.94 127.68 115.16 128.45 114.68 C 129.22 114.19 129.44 113.18 128.96 112.41 L 128.40 111.53 C 127.91 110.76 126.90 110.54 126.13 111.02 C 125.36 111.51 125.14 112.52 125.62 113.29 Z M 126.18 114.17 L 126.66 114.93 C 127.14 115.70 128.16 115.93 128.93 115.45 C 129.70 114.96 129.93 113.95 129.44 113.18 L 128.96 112.42 C 128.48 111.65 127.46 111.42 126.69 111.90 C 125.92 112.38 125.69 113.40 126.18 114.17 Z M 126.66 114.95 L 127.21 115.80 C 127.71 116.57 128.73 116.79 129.49 116.30 C 130.26 115.80 130.48 114.78 129.99 114.02 L 129.44 113.16 C 128.94 112.39 127.92 112.17 127.16 112.67 C 126.39 113.16 126.17 114.18 126.66 114.95 Z M 127.22 115.83 L 127.85 116.76 C 128.35 117.52 129.38 117.72 130.14 117.22 C 130.90 116.71 131.10 115.68 130.60 114.92 L 129.97 113.99 C 129.47 113.23 128.44 113.03 127.68 113.53 C 126.92 114.04 126.72 115.07 127.22 115.83 Z M 127.86 116.79 L 128.43 117.61 C 128.95 118.36 129.98 118.54 130.73 118.02 C 131.49 117.50 131.67 116.47 131.15 115.72 L 130.58 114.90 C 130.06 114.15 129.03 113.96 128.28 114.48 C 127.53 115.00 127.34 116.03 127.86 116.79 Z M 128.44 117.63 L 129.04 118.46 C 129.57 119.20 130.61 119.37 131.35 118.84 C 132.09 118.31 132.27 117.27 131.73 116.53 L 131.14 115.70 C 130.61 114.95 129.57 114.78 128.83 115.31 C 128.08 115.85 127.91 116.88 128.44 117.63 Z M 129.05 118.48 L 129.65 119.29 C 130.20 120.03 131.23 120.19 131.97 119.64 C 132.71 119.10 132.87 118.06 132.32 117.32 L 131.72 116.51 C 131.18 115.77 130.14 115.61 129.40 116.16 C 128.66 116.70 128.51 117.74 129.05 118.48 Z M 129.67 119.31 L 130.26 120.09 C 130.81 120.82 131.86 120.96 132.59 120.41 C 133.32 119.85 133.46 118.81 132.90 118.08 L 132.31 117.30 C 131.75 116.57 130.71 116.43 129.98 116.99 C 129.25 117.54 129.11 118.58 129.67 119.31 Z M 130.28 120.12 L 130.98 121.00 C 131.55 121.72 132.60 121.85 133.31 121.28 C 134.03 120.71 134.16 119.66 133.59 118.94 L 132.88 118.05 C 132.31 117.33 131.27 117.21 130.55 117.78 C 129.83 118.35 129.71 119.40 130.28 120.12 Z M 131.00 121.03 L 131.64 121.81 C 132.23 122.52 133.27 122.61 133.98 122.03 C 134.69 121.44 134.79 120.40 134.20 119.69 L 133.56 118.91 C 132.98 118.21 131.93 118.11 131.22 118.69 C 130.52 119.28 130.42 120.32 131.00 121.03 Z M 131.66 121.83 L 132.23 122.49 C 132.83 123.19 133.88 123.27 134.58 122.67 C 135.27 122.07 135.35 121.02 134.75 120.32 L 134.18 119.66 C 133.59 118.97 132.54 118.89 131.84 119.49 C 131.14 120.09 131.06 121.14 131.66 121.83 Z M 132.25 122.52 L 132.96 123.31 C 133.58 123.99 134.63 124.04 135.31 123.43 C 135.99 122.81 136.05 121.76 135.43 121.08 L 134.73 120.29 C 134.11 119.61 133.06 119.56 132.38 120.17 C 131.69 120.79 131.64 121.84 132.25 122.52 Z M 132.99 123.34 L 133.64 124.02 C 134.27 124.69 135.33 124.71 135.99 124.08 C 136.66 123.44 136.68 122.39 136.05 121.72 L 135.40 121.04 C 134.77 120.38 133.71 120.35 133.05 120.99 C 132.38 121.62 132.36 122.67 132.99 123.34 Z M 133.66 124.04 L 134.34 124.73 C 134.98 125.38 136.04 125.39 136.69 124.74 C 137.34 124.09 137.35 123.04 136.70 122.38 L 136.03 121.70 C 135.38 121.05 134.33 121.04 133.67 121.69 C 133.02 122.33 133.01 123.39 133.66 124.04 Z M 134.35 124.74 L 135.08 125.46 C 135.74 126.10 136.80 126.09 137.44 125.44 C 138.08 124.78 138.07 123.72 137.41 123.08 L 136.69 122.37 C 136.03 121.72 134.97 121.73 134.33 122.39 C 133.69 123.05 133.70 124.10 134.35 124.74 Z M 135.11 125.48 L 135.81 126.15 C 136.48 126.78 137.53 126.75 138.17 126.08 C 138.80 125.41 138.77 124.36 138.10 123.73 L 137.39 123.06 C 136.72 122.43 135.67 122.46 135.04 123.13 C 134.41 123.79 134.44 124.85 135.11 125.48 Z M 135.83 126.16 L 136.57 126.84 C 137.25 127.47 138.30 127.42 138.92 126.74 C 139.55 126.06 139.50 125.01 138.82 124.39 L 138.08 123.71 C 137.40 123.09 136.35 123.13 135.73 123.81 C 135.11 124.49 135.15 125.54 135.83 126.16 Z M 136.58 126.86 L 137.34 127.54 C 138.02 128.15 139.08 128.09 139.69 127.41 C 140.31 126.73 140.25 125.67 139.57 125.06 L 138.81 124.38 C 138.13 123.76 137.07 123.82 136.46 124.50 C 135.84 125.19 135.90 126.24 136.58 126.86 Z M 137.35 127.54 L 138.10 128.21 C 138.79 128.82 139.84 128.75 140.45 128.06 C 141.06 127.37 140.99 126.32 140.31 125.71 L 139.56 125.05 C 138.87 124.44 137.81 124.50 137.20 125.19 C 136.59 125.88 136.66 126.93 137.35 127.54 Z M 138.11 128.22 L 138.88 128.88 C 139.57 129.49 140.63 129.41 141.23 128.71 C 141.83 128.02 141.76 126.97 141.06 126.36 L 140.29 125.70 C 139.60 125.10 138.54 125.17 137.94 125.87 C 137.34 126.56 137.41 127.62 138.11 128.22 Z M 138.89 128.90 L 139.66 129.55 C 140.37 130.14 141.42 130.05 142.01 129.35 C 142.61 128.64 142.52 127.59 141.81 127.00 L 141.04 126.35 C 140.34 125.76 139.29 125.85 138.69 126.55 C 138.10 127.25 138.19 128.30 138.89 128.90 Z M 139.68 129.56 L 140.45 130.19 C 141.16 130.78 142.21 130.67 142.79 129.96 C 143.38 129.25 143.28 128.20 142.57 127.62 L 141.80 126.98 C 141.09 126.40 140.04 126.50 139.45 127.21 C 138.87 127.92 138.97 128.98 139.68 129.56 Z M 140.46 130.20 L 141.23 130.83 C 141.95 131.40 143.00 131.29 143.58 130.58 C 144.16 129.86 144.04 128.81 143.33 128.23 L 142.55 127.61 C 141.84 127.03 140.79 127.14 140.21 127.86 C 139.63 128.57 139.74 129.62 140.46 130.20 Z M 141.24 130.83 L 142.02 131.45 C 142.74 132.02 143.79 131.90 144.36 131.18 C 144.93 130.46 144.81 129.41 144.09 128.84 L 143.32 128.22 C 142.60 127.65 141.55 127.77 140.98 128.49 C 140.40 129.21 140.52 130.26 141.24 130.83 Z M 142.03 131.46 L 142.82 132.08 C 143.55 132.64 144.60 132.51 145.16 131.79 C 145.73 131.06 145.60 130.01 144.87 129.45 L 144.08 128.83 C 143.35 128.26 142.30 128.39 141.74 129.12 C 141.17 129.84 141.30 130.89 142.03 131.46 Z M 142.84 132.09 L 143.64 132.70 C 144.37 133.26 145.42 133.11 145.97 132.38 C 146.53 131.65 146.39 130.60 145.66 130.04 L 144.86 129.43 C 144.12 128.88 143.08 129.02 142.52 129.75 C 141.96 130.49 142.10 131.53 142.84 132.09 Z M 143.65 132.71 L 144.45 133.30 C 145.19 133.85 146.23 133.70 146.78 132.96 C 147.33 132.22 147.18 131.18 146.44 130.63 L 145.64 130.03 C 144.90 129.48 143.86 129.64 143.31 130.37 C 142.76 131.11 142.91 132.16 143.65 132.71 Z M 144.45 133.31 L 145.26 133.90 C 146.00 134.45 147.05 134.30 147.60 133.56 C 148.14 132.82 147.99 131.77 147.25 131.22 L 146.44 130.62 C 145.70 130.08 144.65 130.23 144.11 130.97 C 143.56 131.71 143.71 132.76 144.45 133.31 Z M 145.26 133.90 L 146.06 134.50 C 146.80 135.05 147.85 134.90 148.40 134.16 C 148.95 133.42 148.80 132.38 148.06 131.83 L 147.25 131.23 C 146.51 130.68 145.47 130.83 144.92 131.57 C 144.37 132.30 144.52 133.35 145.26 133.90 Z M 146.06 134.50 L 146.86 135.10 C 147.59 135.65 148.64 135.51 149.19 134.77 C 149.75 134.03 149.60 132.99 148.86 132.43 L 148.06 131.83 C 147.33 131.28 146.28 131.42 145.73 132.16 C 145.17 132.90 145.32 133.94 146.06 134.50 Z M 146.86 135.10 L 147.65 135.70 C 148.39 136.26 149.44 136.11 149.99 135.37 C 150.54 134.64 150.40 133.59 149.66 133.04 L 148.86 132.43 C 148.13 131.88 147.08 132.03 146.53 132.76 C 145.97 133.50 146.12 134.55 146.86 135.10 Z M 147.66 135.71 L 148.45 136.30 C 149.19 136.85 150.24 136.70 150.79 135.96 C 151.34 135.22 151.19 134.18 150.45 133.62 L 149.66 133.03 C 148.92 132.48 147.87 132.63 147.32 133.37 C 146.77 134.11 146.92 135.15 147.66 135.71 Z M 148.46 136.30 L 149.26 136.89 C 150.00 137.44 151.05 137.28 151.59 136.54 C 152.14 135.80 151.98 134.76 151.24 134.21 L 150.44 133.62 C 149.70 133.07 148.66 133.23 148.11 133.97 C 147.56 134.71 147.72 135.76 148.46 136.30 Z M 149.26 136.90 L 150.08 137.49 C 150.82 138.04 151.87 137.88 152.41 137.14 C 152.96 136.39 152.79 135.35 152.05 134.80 L 151.24 134.21 C 150.49 133.66 149.45 133.82 148.91 134.56 C 148.36 135.31 148.52 136.35 149.26 136.90 Z M 150.08 137.50 L 150.90 138.09 C 151.64 138.64 152.69 138.48 153.23 137.73 C 153.77 136.99 153.61 135.94 152.87 135.40 L 152.05 134.80 C 151.31 134.26 150.26 134.42 149.72 135.16 C 149.17 135.91 149.34 136.95 150.08 137.50 Z M 150.90 138.09 L 151.72 138.69 C 152.46 139.24 153.50 139.08 154.05 138.33 C 154.59 137.59 154.43 136.54 153.69 136.00 L 152.87 135.40 C 152.13 134.86 151.08 135.02 150.54 135.76 C 149.99 136.50 150.15 137.55 150.90 138.09 Z M 151.71 138.69 L 152.50 139.27 C 153.24 139.82 154.29 139.67 154.84 138.92 C 155.38 138.18 155.23 137.14 154.49 136.59 L 153.69 136.00 C 152.95 135.46 151.91 135.61 151.36 136.35 C 150.81 137.10 150.97 138.14 151.71 138.69 Z M 152.49 139.27 L 153.32 139.89 C 154.06 140.44 155.10 140.29 155.66 139.55 C 156.21 138.81 156.06 137.77 155.32 137.22 L 154.50 136.60 C 153.76 136.04 152.71 136.19 152.16 136.93 C 151.61 137.67 151.76 138.72 152.49 139.27 Z M 153.32 139.88 L 154.11 140.48 C 154.85 141.04 155.89 140.89 156.45 140.15 C 157.00 139.42 156.85 138.37 156.12 137.82 L 155.32 137.22 C 154.59 136.66 153.54 136.81 152.99 137.55 C 152.43 138.28 152.58 139.33 153.32 139.88 Z M 154.12 140.49 L 154.90 141.07 C 155.65 141.61 156.69 141.46 157.24 140.71 C 157.78 139.97 157.63 138.93 156.88 138.38 L 156.11 137.81 C 155.36 137.26 154.32 137.42 153.77 138.16 C 153.22 138.90 153.38 139.95 154.12 140.49 Z M 154.93 141.08 L 155.75 141.67 C 156.50 142.20 157.54 142.03 158.07 141.28 C 158.61 140.53 158.43 139.48 157.68 138.95 L 156.86 138.36 C 156.11 137.83 155.07 138.00 154.53 138.75 C 154.00 139.51 154.17 140.55 154.93 141.08 Z M 155.75 141.67 L 156.57 142.24 C 157.32 142.77 158.36 142.59 158.89 141.84 C 159.42 141.08 159.24 140.04 158.49 139.51 L 157.67 138.94 C 156.92 138.41 155.88 138.59 155.35 139.35 C 154.82 140.10 155.00 141.14 155.75 141.67 Z M 156.56 142.24 L 157.37 142.82 C 158.13 143.35 159.17 143.18 159.70 142.43 C 160.24 141.67 160.06 140.63 159.31 140.10 L 158.49 139.52 C 157.74 138.98 156.70 139.16 156.17 139.91 C 155.63 140.66 155.81 141.70 156.56 142.24 Z M 157.37 142.81 L 158.18 143.40 C 158.92 143.94 159.97 143.77 160.51 143.02 C 161.05 142.27 160.88 141.23 160.13 140.69 L 159.32 140.10 C 158.57 139.57 157.53 139.74 156.99 140.48 C 156.45 141.23 156.62 142.27 157.37 142.81 Z M 158.18 143.40 L 158.98 143.98 C 159.73 144.52 160.78 144.35 161.31 143.60 C 161.85 142.86 161.69 141.81 160.94 141.27 L 160.13 140.69 C 159.38 140.15 158.34 140.32 157.80 141.07 C 157.26 141.81 157.43 142.86 158.18 143.40 Z M 158.98 143.98 L 159.79 144.57 C 160.54 145.11 161.58 144.94 162.12 144.19 C 162.66 143.44 162.50 142.40 161.75 141.86 L 160.94 141.27 C 160.19 140.73 159.15 140.90 158.61 141.65 C 158.07 142.40 158.24 143.44 158.98 143.98 Z M 159.78 144.56 L 160.58 145.15 C 161.32 145.70 162.37 145.54 162.92 144.80 C 163.47 144.06 163.31 143.01 162.57 142.46 L 161.76 141.87 C 161.02 141.32 159.98 141.48 159.43 142.22 C 158.88 142.96 159.04 144.01 159.78 144.56 Z M 160.56 145.13 L 161.33 145.73 C 162.07 146.29 163.11 146.15 163.67 145.42 C 164.24 144.68 164.10 143.64 163.37 143.08 L 162.59 142.48 C 161.86 141.92 160.81 142.06 160.25 142.79 C 159.69 143.52 159.83 144.57 160.56 145.13 Z M 161.31 145.71 L 162.10 146.33 C 162.82 146.90 163.87 146.78 164.45 146.06 C 165.02 145.34 164.90 144.29 164.17 143.72 L 163.39 143.09 C 162.66 142.52 161.61 142.64 161.04 143.36 C 160.47 144.09 160.59 145.14 161.31 145.71 Z M 162.09 146.32 L 162.87 146.96 C 163.59 147.54 164.64 147.43 165.22 146.72 C 165.80 146.00 165.69 144.95 164.98 144.37 L 164.19 143.73 C 163.47 143.15 162.42 143.26 161.84 143.97 C 161.26 144.69 161.37 145.74 162.09 146.32 Z M 162.86 146.95 L 163.63 147.60 C 164.34 148.19 165.39 148.09 165.98 147.39 C 166.58 146.68 166.48 145.63 165.78 145.04 L 165.00 144.39 C 164.29 143.79 163.24 143.89 162.65 144.59 C 162.06 145.30 162.15 146.35 162.86 146.95 Z M 163.60 147.57 L 164.34 148.22 C 165.04 148.83 166.09 148.77 166.70 148.08 C 167.31 147.38 167.24 146.33 166.55 145.72 L 165.81 145.07 C 165.12 144.46 164.06 144.52 163.45 145.21 C 162.84 145.90 162.91 146.96 163.60 147.57 Z M 164.29 148.18 L 165.03 148.89 C 165.70 149.52 166.75 149.50 167.39 148.84 C 168.03 148.17 168.01 147.12 167.34 146.48 L 166.60 145.77 C 165.94 145.13 164.88 145.15 164.24 145.82 C 163.61 146.48 163.63 147.54 164.29 148.18 Z M 164.97 148.83 L 165.65 149.54 C 166.28 150.21 167.34 150.24 168.01 149.61 C 168.68 148.98 168.71 147.92 168.07 147.25 L 167.40 146.54 C 166.77 145.87 165.71 145.84 165.04 146.47 C 164.37 147.10 164.34 148.16 164.97 148.83 Z M 165.60 149.49 L 166.24 150.23 C 166.84 150.93 167.90 151.00 168.59 150.40 C 169.29 149.80 169.37 148.75 168.76 148.05 L 168.12 147.31 C 167.52 146.61 166.47 146.53 165.77 147.13 C 165.07 147.74 165.00 148.79 165.60 149.49 Z M 166.21 150.19 L 166.83 150.96 C 167.41 151.68 168.46 151.79 169.18 151.22 C 169.90 150.64 170.01 149.59 169.43 148.87 L 168.80 148.09 C 168.22 147.37 167.17 147.26 166.46 147.84 C 165.74 148.42 165.63 149.47 166.21 150.19 Z M 166.81 150.93 L 167.42 151.73 C 167.98 152.46 169.03 152.60 169.76 152.04 C 170.49 151.48 170.63 150.43 170.07 149.70 L 169.46 148.90 C 168.90 148.17 167.85 148.03 167.12 148.59 C 166.39 149.15 166.25 150.20 166.81 150.93 Z M 167.40 151.70 L 167.99 152.51 C 168.53 153.25 169.58 153.41 170.32 152.87 C 171.06 152.32 171.22 151.28 170.68 150.54 L 170.09 149.73 C 169.54 148.99 168.50 148.83 167.76 149.37 C 167.01 149.92 166.85 150.96 167.40 151.70 Z M 167.97 152.48 L 168.55 153.30 C 169.08 154.05 170.12 154.23 170.87 153.70 C 171.62 153.18 171.80 152.14 171.27 151.38 L 170.70 150.56 C 170.17 149.81 169.13 149.63 168.38 150.16 C 167.62 150.69 167.44 151.73 167.97 152.48 Z M 168.53 153.27 L 169.08 154.09 C 169.59 154.86 170.63 155.06 171.39 154.54 C 172.16 154.03 172.36 153.00 171.85 152.23 L 171.29 151.41 C 170.78 150.65 169.74 150.45 168.98 150.96 C 168.22 151.47 168.01 152.51 168.53 153.27 Z M 169.07 154.07 L 169.62 154.91 C 170.12 155.68 171.15 155.90 171.92 155.39 C 172.69 154.89 172.91 153.86 172.40 153.09 L 171.86 152.25 C 171.35 151.48 170.32 151.27 169.55 151.77 C 168.78 152.27 168.57 153.30 169.07 154.07 Z M 169.61 154.90 L 170.16 155.76 C 170.66 156.53 171.69 156.75 172.47 156.25 C 173.24 155.75 173.46 154.72 172.96 153.95 L 172.41 153.10 C 171.91 152.32 170.88 152.10 170.11 152.60 C 169.33 153.10 169.11 154.13 169.61 154.90 Z M 170.16 155.75 L 170.71 156.61 C 171.21 157.38 172.24 157.61 173.01 157.11 C 173.78 156.61 174.01 155.58 173.51 154.81 L 172.96 153.96 C 172.47 153.18 171.44 152.96 170.66 153.45 C 169.89 153.95 169.66 154.98 170.16 155.75 Z M 170.71 156.60 L 171.23 157.43 C 171.72 158.20 172.75 158.43 173.53 157.94 C 174.30 157.45 174.53 156.42 174.04 155.64 L 173.52 154.82 C 173.02 154.04 171.99 153.81 171.22 154.30 C 170.44 154.80 170.21 155.83 170.71 156.60 Z M 171.22 157.42 L 171.78 158.30 C 172.26 159.08 173.29 159.31 174.07 158.82 C 174.85 158.34 175.08 157.31 174.60 156.53 L 174.05 155.65 C 173.56 154.87 172.53 154.64 171.75 155.12 C 170.97 155.61 170.74 156.64 171.22 157.42 Z M 171.78 158.30 L 172.29 159.12 C 172.78 159.90 173.81 160.13 174.59 159.64 C 175.36 159.16 175.60 158.13 175.11 157.35 L 174.59 156.53 C 174.11 155.75 173.08 155.52 172.30 156.01 C 171.52 156.49 171.29 157.52 171.78 158.30 Z M 172.30 159.14 L 172.85 159.98 C 173.34 160.75 174.37 160.97 175.15 160.47 C 175.92 159.97 176.14 158.94 175.64 158.17 L 175.10 157.33 C 174.60 156.56 173.57 156.34 172.80 156.84 C 172.03 157.34 171.81 158.37 172.30 159.14 Z M 172.86 160.00 L 173.42 160.83 C 173.93 161.59 174.96 161.79 175.73 161.28 C 176.49 160.77 176.69 159.73 176.18 158.97 L 175.62 158.15 C 175.11 157.38 174.08 157.18 173.32 157.69 C 172.55 158.21 172.35 159.24 172.86 160.00 Z M 173.43 160.85 L 174.01 161.67 C 174.53 162.43 175.57 162.61 176.32 162.09 C 177.08 161.56 177.26 160.52 176.74 159.77 L 176.16 158.95 C 175.64 158.19 174.60 158.01 173.85 158.54 C 173.09 159.06 172.91 160.10 173.43 160.85 Z M 174.01 161.68 L 174.59 162.50 C 175.12 163.25 176.16 163.42 176.91 162.89 C 177.66 162.36 177.83 161.33 177.30 160.58 L 176.73 159.76 C 176.20 159.01 175.16 158.84 174.41 159.37 C 173.66 159.89 173.49 160.93 174.01 161.68 Z M 174.59 162.49 L 175.17 163.32 C 175.70 164.07 176.74 164.25 177.49 163.72 C 178.24 163.20 178.42 162.16 177.89 161.41 L 177.31 160.58 C 176.78 159.83 175.74 159.65 174.99 160.18 C 174.24 160.71 174.06 161.74 174.59 162.49 Z M 175.20 163.36 L 175.78 164.14 C 176.33 164.88 177.37 165.03 178.11 164.48 C 178.84 163.94 179.00 162.90 178.45 162.16 L 177.86 161.37 C 177.32 160.64 176.28 160.49 175.54 161.03 C 174.80 161.58 174.65 162.62 175.20 163.36 Z M 175.84 164.22 L 176.43 164.91 C 177.02 165.62 178.07 165.71 178.77 165.12 C 179.47 164.53 179.56 163.48 178.97 162.78 L 178.39 162.08 C 177.80 161.38 176.75 161.29 176.05 161.88 C 175.35 162.47 175.25 163.52 175.84 164.22 Z M 176.49 164.98 L 177.23 165.78 C 177.86 166.45 178.91 166.48 179.58 165.86 C 180.25 165.23 180.28 164.18 179.66 163.51 L 178.91 162.72 C 178.29 162.05 177.24 162.01 176.57 162.63 C 175.90 163.26 175.86 164.31 176.49 164.98 Z M 177.26 165.81 L 177.91 166.47 C 178.55 167.12 179.60 167.13 180.25 166.49 C 180.91 165.84 180.92 164.79 180.28 164.14 L 179.63 163.48 C 178.99 162.83 177.94 162.82 177.28 163.46 C 176.63 164.11 176.62 165.15 177.26 165.81 Z M 177.94 166.49 L 178.67 167.21 C 179.33 167.84 180.38 167.83 181.02 167.17 C 181.65 166.52 181.64 165.47 180.98 164.83 L 180.25 164.12 C 179.59 163.48 178.54 163.49 177.90 164.15 C 177.27 164.81 177.28 165.85 177.94 166.49 Z M 178.71 167.24 L 179.49 167.95 C 180.17 168.57 181.22 168.52 181.83 167.84 C 182.45 167.17 182.40 166.12 181.72 165.50 L 180.94 164.79 C 180.27 164.18 179.22 164.23 178.60 164.90 C 177.99 165.58 178.04 166.63 178.71 167.24 Z M 179.55 168.00 L 180.39 168.70 C 181.09 169.29 182.14 169.20 182.72 168.49 C 183.31 167.79 183.21 166.75 182.51 166.16 L 181.67 165.46 C 180.97 164.87 179.92 164.97 179.34 165.67 C 178.75 166.37 178.84 167.41 179.55 168.00 Z M 180.44 168.74 L 181.24 169.36 C 181.96 169.91 183.00 169.78 183.56 169.05 C 184.11 168.33 183.98 167.29 183.26 166.73 L 182.46 166.12 C 181.74 165.56 180.70 165.70 180.14 166.42 C 179.58 167.15 179.72 168.19 180.44 168.74 Z M 181.28 169.38 L 182.04 169.93 C 182.78 170.47 183.81 170.30 184.34 169.56 C 184.88 168.82 184.71 167.79 183.97 167.26 L 183.21 166.71 C 182.47 166.17 181.44 166.34 180.91 167.08 C 180.37 167.82 180.54 168.85 181.28 169.38 Z M 182.07 169.96 L 182.92 170.54 C 183.67 171.05 184.70 170.86 185.22 170.11 C 185.73 169.36 185.54 168.33 184.79 167.81 L 183.94 167.23 C 183.19 166.72 182.16 166.91 181.64 167.66 C 181.13 168.41 181.32 169.44 182.07 169.96 Z M 182.93 170.55 L 183.70 171.06 C 184.45 171.57 185.48 171.36 185.99 170.61 C 186.49 169.85 186.29 168.83 185.54 168.32 L 184.77 167.81 C 184.02 167.30 182.99 167.50 182.48 168.26 C 181.98 169.01 182.18 170.04 182.93 170.55 Z M 183.68 171.05 L 184.51 171.61 C 185.26 172.13 186.28 171.94 186.80 171.19 C 187.32 170.44 187.13 169.42 186.38 168.90 L 185.55 168.33 C 184.80 167.81 183.78 168.00 183.26 168.75 C 182.74 169.50 182.93 170.53 183.68 171.05 Z M 184.50 171.61 L 185.27 172.15 C 186.02 172.67 187.04 172.48 187.56 171.74 C 188.09 170.99 187.90 169.96 187.16 169.44 L 186.38 168.90 C 185.64 168.38 184.61 168.57 184.09 169.31 C 183.57 170.06 183.75 171.09 184.50 171.61 Z M 185.27 172.15 L 186.12 172.74 C 186.87 173.25 187.89 173.07 188.41 172.32 C 188.93 171.57 188.75 170.55 188.00 170.03 L 187.15 169.44 C 186.41 168.92 185.38 169.11 184.86 169.86 C 184.34 170.60 184.53 171.63 185.27 172.15 Z M 186.13 172.74 L 186.95 173.31 C 187.70 173.82 188.73 173.63 189.24 172.88 C 189.76 172.13 189.57 171.10 188.82 170.59 L 187.99 170.02 C 187.24 169.51 186.21 169.70 185.70 170.45 C 185.19 171.20 185.38 172.23 186.13 172.74 Z M 186.95 173.31 L 187.79 173.88 C 188.54 174.39 189.57 174.20 190.08 173.45 C 190.59 172.70 190.40 171.68 189.65 171.16 L 188.81 170.59 C 188.06 170.08 187.04 170.27 186.53 171.02 C 186.01 171.77 186.20 172.79 186.95 173.31 Z M 187.78 173.87 L 188.63 174.46 C 189.38 174.98 190.40 174.80 190.92 174.05 C 191.44 173.30 191.26 172.28 190.51 171.76 L 189.66 171.17 C 188.91 170.65 187.89 170.84 187.37 171.58 C 186.85 172.33 187.04 173.35 187.78 173.87 Z M 188.61 174.45 L 189.45 175.05 C 190.19 175.58 191.21 175.41 191.75 174.67 C 192.28 173.94 192.11 172.91 191.37 172.38 L 190.53 171.77 C 189.79 171.24 188.76 171.41 188.23 172.15 C 187.70 172.89 187.87 173.92 188.61 174.45 Z M 189.41 175.02 L 190.19 175.62 C 190.91 176.17 191.94 176.03 192.49 175.31 C 193.05 174.59 192.91 173.55 192.19 173.00 L 191.41 172.41 C 190.69 171.85 189.65 171.99 189.10 172.71 C 188.55 173.43 188.69 174.47 189.41 175.02 Z M 190.13 175.57 L 190.89 176.21 C 191.58 176.80 192.62 176.71 193.21 176.01 C 193.79 175.32 193.71 174.28 193.01 173.69 L 192.25 173.05 C 191.55 172.46 190.51 172.55 189.93 173.25 C 189.34 173.94 189.43 174.98 190.13 175.57 Z M 190.80 176.13 L 191.52 176.83 C 192.17 177.46 193.21 177.45 193.85 176.79 C 194.48 176.14 194.46 175.10 193.81 174.46 L 193.10 173.77 C 192.44 173.14 191.40 173.15 190.77 173.80 C 190.13 174.46 190.15 175.50 190.80 176.13 Z M 191.41 176.71 L 192.05 177.47 C 192.64 178.16 193.68 178.25 194.37 177.66 C 195.07 177.07 195.15 176.03 194.57 175.34 L 193.92 174.58 C 193.33 173.89 192.29 173.80 191.60 174.39 C 190.91 174.98 190.82 176.02 191.41 176.71 Z M 191.94 177.32 L 192.50 178.16 C 193.00 178.92 194.03 179.12 194.78 178.62 C 195.54 178.12 195.75 177.09 195.24 176.34 L 194.68 175.49 C 194.18 174.74 193.16 174.53 192.40 175.03 C 191.64 175.54 191.44 176.56 191.94 177.32 Z M 192.39 177.98 L 192.82 178.86 C 193.22 179.67 194.21 180.01 195.03 179.61 C 195.85 179.21 196.18 178.22 195.78 177.40 L 195.35 176.52 C 194.95 175.71 193.96 175.37 193.15 175.77 C 192.33 176.17 191.99 177.16 192.39 177.98 Z M 192.73 178.62 L 193.02 179.57 C 193.29 180.44 194.22 180.93 195.09 180.66 C 195.96 180.39 196.45 179.46 196.18 178.59 L 195.88 177.64 C 195.61 176.77 194.68 176.28 193.81 176.55 C 192.94 176.82 192.46 177.75 192.73 178.62 Z M 192.96 179.32 L 193.10 180.30 C 193.24 181.21 194.08 181.83 194.98 181.70 C 195.89 181.56 196.51 180.72 196.38 179.82 L 196.24 178.84 C 196.10 177.94 195.26 177.31 194.36 177.45 C 193.45 177.58 192.83 178.42 192.96 179.32 Z M 193.08 180.02 L 193.06 181.02 C 193.04 181.94 193.77 182.69 194.68 182.71 C 195.60 182.74 196.36 182.01 196.38 181.09 L 196.40 180.10 C 196.42 179.18 195.70 178.42 194.78 178.40 C 193.86 178.38 193.10 179.11 193.08 180.02 Z M 193.12 180.60 L 192.85 181.54 C 192.61 182.43 193.12 183.35 194.01 183.59 C 194.89 183.84 195.81 183.33 196.06 182.44 L 196.32 181.51 C 196.57 180.62 196.06 179.70 195.17 179.45 C 194.29 179.20 193.37 179.72 193.12 180.60 Z M 193.03 181.14 L 192.53 181.97 C 192.05 182.76 192.31 183.78 193.10 184.26 C 193.89 184.73 194.92 184.47 195.39 183.68 L 195.89 182.85 C 196.36 182.06 196.10 181.03 195.31 180.56 C 194.52 180.09 193.50 180.34 193.03 181.14 Z M 192.71 181.72 L 192.02 182.50 C 191.40 183.19 191.47 184.24 192.16 184.85 C 192.85 185.47 193.90 185.40 194.52 184.71 L 195.21 183.94 C 195.82 183.25 195.76 182.19 195.07 181.58 C 194.38 180.96 193.32 181.03 192.71 181.72 Z M 192.15 182.36 L 191.42 183.01 C 190.73 183.62 190.67 184.68 191.29 185.37 C 191.90 186.06 192.96 186.12 193.65 185.51 L 194.38 184.85 C 195.07 184.24 195.13 183.18 194.51 182.49 C 193.90 181.80 192.84 181.74 192.15 182.36 Z M 191.51 182.93 L 190.70 183.55 C 189.97 184.12 189.83 185.17 190.40 185.90 C 190.96 186.64 192.02 186.77 192.75 186.21 L 193.56 185.58 C 194.29 185.02 194.43 183.97 193.86 183.23 C 193.30 182.50 192.25 182.37 191.51 182.93 Z M 190.77 183.50 L 189.95 184.08 C 189.19 184.60 189.00 185.65 189.53 186.41 C 190.05 187.17 191.10 187.36 191.86 186.83 L 192.68 186.26 C 193.44 185.73 193.63 184.69 193.10 183.93 C 192.58 183.16 191.53 182.98 190.77 183.50 Z M 190.01 184.03 L 189.17 184.56 C 188.39 185.06 188.16 186.09 188.65 186.87 C 189.14 187.66 190.18 187.89 190.96 187.40 L 191.80 186.87 C 192.58 186.38 192.82 185.34 192.32 184.56 C 191.83 183.77 190.79 183.54 190.01 184.03 Z M 189.24 184.52 L 188.35 185.03 C 187.55 185.49 187.27 186.51 187.73 187.32 C 188.19 188.12 189.21 188.40 190.02 187.94 L 190.90 187.44 C 191.70 186.98 191.98 185.95 191.52 185.15 C 191.06 184.34 190.04 184.06 189.24 184.52 Z M 188.41 185.00 L 187.49 185.47 C 186.67 185.90 186.35 186.92 186.78 187.74 C 187.21 188.56 188.22 188.88 189.04 188.45 L 189.96 187.97 C 190.78 187.54 191.10 186.53 190.67 185.71 C 190.25 184.89 189.23 184.57 188.41 185.00 Z M 187.54 185.45 L 186.62 185.89 C 185.78 186.30 185.43 187.30 185.83 188.13 C 186.23 188.97 187.24 189.32 188.07 188.92 L 188.99 188.47 C 189.83 188.07 190.18 187.07 189.78 186.24 C 189.37 185.40 188.37 185.05 187.54 185.45 Z M 186.66 185.87 L 185.78 186.27 C 184.93 186.64 184.55 187.64 184.93 188.48 C 185.31 189.33 186.30 189.71 187.15 189.33 L 188.03 188.94 C 188.87 188.56 189.25 187.57 188.88 186.72 C 188.50 185.88 187.51 185.50 186.66 185.87 Z M 185.83 186.24 L 184.86 186.64 C 184.00 186.99 183.58 187.96 183.93 188.82 C 184.28 189.68 185.26 190.10 186.11 189.75 L 187.09 189.35 C 187.95 189.01 188.37 188.03 188.02 187.17 C 187.67 186.31 186.69 185.90 185.83 186.24 Z M 184.88 186.63 L 184.02 186.96 C 183.16 187.29 182.72 188.26 183.06 189.13 C 183.39 189.99 184.36 190.42 185.22 190.09 L 186.09 189.76 C 186.95 189.43 187.38 188.46 187.05 187.59 C 186.72 186.73 185.75 186.30 184.88 186.63 Z M 184.00 186.97 L 183.09 187.33 C 182.22 187.67 181.80 188.65 182.15 189.51 C 182.49 190.37 183.47 190.79 184.33 190.45 L 185.24 190.08 C 186.10 189.74 186.52 188.77 186.18 187.91 C 185.84 187.04 184.86 186.62 184.00 186.97 Z M 183.09 187.33 L 182.16 187.70 C 181.30 188.03 180.87 189.01 181.21 189.87 C 181.55 190.73 182.52 191.16 183.39 190.82 L 184.32 190.45 C 185.18 190.11 185.61 189.14 185.27 188.28 C 184.93 187.41 183.95 186.99 183.09 187.33 Z M 182.18 187.69 L 181.26 188.03 C 180.40 188.36 179.96 189.33 180.28 190.19 C 180.61 191.06 181.58 191.50 182.44 191.17 L 183.36 190.83 C 184.23 190.50 184.67 189.53 184.34 188.67 C 184.02 187.80 183.05 187.36 182.18 187.69 Z M 181.26 188.03 L 180.30 188.39 C 179.43 188.72 179.00 189.69 179.32 190.55 C 179.65 191.42 180.62 191.86 181.48 191.53 L 182.44 191.17 C 183.31 190.85 183.75 189.88 183.42 189.01 C 183.10 188.14 182.13 187.71 181.26 188.03 Z M 180.30 188.39 L 179.36 188.75 C 178.50 189.08 178.06 190.05 178.39 190.92 C 178.72 191.78 179.69 192.22 180.56 191.89 L 181.49 191.53 C 182.36 191.20 182.79 190.23 182.46 189.37 C 182.13 188.50 181.16 188.07 180.30 188.39 Z M 179.39 188.74 L 178.44 189.09 C 177.57 189.40 177.12 190.37 177.44 191.24 C 177.76 192.11 178.72 192.56 179.59 192.24 L 180.54 191.89 C 181.41 191.58 181.85 190.61 181.54 189.74 C 181.22 188.87 180.26 188.42 179.39 188.74 Z M 178.49 189.07 L 177.54 189.38 C 176.66 189.68 176.18 190.62 176.47 191.50 C 176.77 192.38 177.71 192.86 178.59 192.57 L 179.54 192.26 C 180.42 191.96 180.90 191.02 180.61 190.14 C 180.32 189.26 179.37 188.78 178.49 189.07 Z M 177.56 189.38 L 176.61 189.67 C 175.73 189.95 175.24 190.89 175.51 191.78 C 175.79 192.66 176.73 193.15 177.62 192.88 L 178.57 192.58 C 179.45 192.30 179.95 191.36 179.67 190.47 C 179.39 189.59 178.45 189.10 177.56 189.38 Z M 176.60 189.68 L 175.67 189.98 C 174.78 190.27 174.30 191.21 174.58 192.09 C 174.87 192.97 175.81 193.46 176.70 193.17 L 177.63 192.87 C 178.51 192.59 179.00 191.64 178.71 190.76 C 178.43 189.88 177.48 189.39 176.60 189.68 Z M 175.65 189.99 L 174.70 190.30 C 173.82 190.59 173.35 191.54 173.64 192.42 C 173.93 193.30 174.88 193.78 175.76 193.48 L 176.71 193.17 C 177.59 192.88 178.06 191.93 177.77 191.05 C 177.48 190.17 176.53 189.69 175.65 189.99 Z M 174.71 190.30 L 173.75 190.61 C 172.87 190.90 172.39 191.85 172.68 192.73 C 172.97 193.61 173.92 194.09 174.80 193.80 L 175.75 193.49 C 176.63 193.20 177.11 192.25 176.82 191.37 C 176.54 190.49 175.59 190.01 174.71 190.30 Z M 173.77 190.61 L 172.83 190.90 C 171.95 191.18 171.46 192.12 171.74 193.01 C 172.02 193.89 172.96 194.38 173.85 194.10 L 174.78 193.80 C 175.66 193.52 176.15 192.58 175.87 191.70 C 175.59 190.82 174.65 190.33 173.77 190.61 Z M 172.84 190.90 L 171.87 191.20 C 170.98 191.48 170.49 192.42 170.76 193.30 C 171.04 194.18 171.98 194.68 172.86 194.40 L 173.84 194.10 C 174.72 193.83 175.22 192.89 174.94 192.00 C 174.67 191.12 173.73 190.63 172.84 190.90 Z M 171.87 191.20 L 170.93 191.49 C 170.05 191.76 169.55 192.70 169.82 193.58 C 170.09 194.47 171.03 194.97 171.92 194.69 L 172.86 194.41 C 173.74 194.13 174.24 193.20 173.97 192.31 C 173.70 191.43 172.76 190.93 171.87 191.20 Z M 170.94 191.49 L 169.99 191.78 C 169.10 192.05 168.60 192.99 168.87 193.87 C 169.14 194.76 170.08 195.26 170.97 194.99 L 171.92 194.70 C 172.80 194.43 173.30 193.49 173.03 192.60 C 172.76 191.72 171.82 191.22 170.94 191.49 Z M 169.99 191.78 L 169.00 192.08 C 168.12 192.35 167.62 193.28 167.89 194.17 C 168.16 195.06 169.09 195.56 169.98 195.29 L 170.96 194.99 C 171.85 194.72 172.35 193.78 172.08 192.89 C 171.81 192.01 170.87 191.51 169.99 191.78 Z M 169.00 192.08 L 168.08 192.36 C 167.19 192.63 166.69 193.56 166.96 194.45 C 167.23 195.34 168.17 195.84 169.05 195.57 L 169.98 195.29 C 170.87 195.02 171.37 194.08 171.10 193.19 C 170.83 192.31 169.89 191.81 169.00 192.08 Z M 168.08 192.36 L 167.14 192.64 C 166.25 192.91 165.75 193.85 166.02 194.74 C 166.29 195.62 167.23 196.12 168.12 195.85 L 169.06 195.57 C 169.94 195.30 170.44 194.36 170.17 193.47 C 169.90 192.59 168.96 192.09 168.08 192.36 Z M 167.14 192.65 L 166.15 192.95 C 165.27 193.22 164.77 194.16 165.04 195.04 C 165.31 195.93 166.25 196.42 167.13 196.15 L 168.12 195.85 C 169.00 195.58 169.50 194.64 169.23 193.76 C 168.96 192.87 168.02 192.38 167.14 192.65 Z M 166.15 192.95 L 165.18 193.25 C 164.30 193.53 163.80 194.46 164.08 195.35 C 164.35 196.23 165.29 196.72 166.17 196.45 L 167.14 196.15 C 168.02 195.88 168.52 194.94 168.24 194.05 C 167.97 193.17 167.03 192.68 166.15 192.95 Z M 165.18 193.25 L 164.23 193.55 C 163.34 193.83 162.85 194.76 163.13 195.65 C 163.40 196.53 164.34 197.02 165.22 196.74 L 166.17 196.45 C 167.06 196.17 167.55 195.23 167.27 194.35 C 167.00 193.47 166.06 192.98 165.18 193.25 Z M 164.23 193.55 L 163.26 193.85 C 162.38 194.13 161.89 195.06 162.16 195.95 C 162.44 196.83 163.38 197.32 164.26 197.05 L 165.22 196.74 C 166.10 196.47 166.60 195.53 166.32 194.65 C 166.05 193.77 165.11 193.28 164.23 193.55 Z M 163.27 193.85 L 162.30 194.15 C 161.42 194.42 160.92 195.36 161.20 196.24 C 161.47 197.12 162.41 197.62 163.29 197.34 L 164.25 197.05 C 165.13 196.77 165.63 195.84 165.36 194.96 C 165.08 194.07 164.15 193.58 163.27 193.85 Z M 162.31 194.15 L 161.34 194.44 C 160.45 194.71 159.96 195.65 160.22 196.53 C 160.49 197.41 161.42 197.91 162.31 197.64 L 163.28 197.34 C 164.16 197.08 164.66 196.14 164.39 195.26 C 164.12 194.38 163.19 193.88 162.31 194.15 Z M 161.34 194.45 L 160.38 194.73 C 159.50 195.00 159.00 195.93 159.27 196.81 C 159.53 197.70 160.46 198.19 161.34 197.93 L 162.30 197.64 C 163.19 197.37 163.68 196.44 163.42 195.56 C 163.15 194.68 162.22 194.18 161.34 194.45 Z M 160.38 194.74 L 159.43 195.03 C 158.55 195.30 158.05 196.23 158.32 197.11 C 158.59 197.99 159.52 198.48 160.40 198.21 L 161.35 197.93 C 162.23 197.66 162.72 196.73 162.46 195.85 C 162.19 194.97 161.26 194.47 160.38 194.74 Z M 159.42 195.03 L 158.47 195.33 C 157.59 195.60 157.11 196.54 157.38 197.41 C 157.66 198.29 158.59 198.78 159.47 198.50 L 160.41 198.21 C 161.29 197.93 161.78 197.00 161.50 196.12 C 161.23 195.25 160.29 194.76 159.42 195.03 Z M 158.46 195.34 L 157.50 195.64 C 156.63 195.93 156.15 196.87 156.44 197.74 C 156.72 198.61 157.66 199.09 158.53 198.81 L 159.48 198.50 C 160.35 198.21 160.83 197.28 160.55 196.40 C 160.27 195.53 159.33 195.05 158.46 195.34 Z M 157.49 195.65 L 156.54 195.97 C 155.67 196.26 155.20 197.20 155.49 198.07 C 155.78 198.94 156.72 199.41 157.59 199.12 L 158.54 198.80 C 159.41 198.51 159.88 197.57 159.59 196.70 C 159.30 195.83 158.36 195.36 157.49 195.65 Z M 156.53 195.97 L 155.59 196.30 C 154.72 196.59 154.26 197.53 154.55 198.40 C 154.85 199.27 155.79 199.73 156.66 199.43 L 157.60 199.11 C 158.47 198.82 158.93 197.87 158.64 197.01 C 158.34 196.14 157.40 195.68 156.53 195.97 Z M 155.58 196.30 L 154.63 196.63 C 153.77 196.93 153.31 197.87 153.61 198.73 C 153.91 199.60 154.85 200.06 155.71 199.76 L 156.66 199.43 C 157.53 199.13 157.99 198.19 157.69 197.32 C 157.39 196.46 156.45 196.00 155.58 196.30 Z M 154.63 196.63 L 153.68 196.96 C 152.82 197.26 152.36 198.21 152.66 199.07 C 152.97 199.93 153.91 200.39 154.77 200.09 L 155.72 199.75 C 156.58 199.45 157.04 198.51 156.73 197.65 C 156.43 196.78 155.49 196.33 154.63 196.63 Z M 153.67 196.97 L 152.73 197.30 C 151.87 197.61 151.42 198.55 151.73 199.41 C 152.04 200.27 152.98 200.72 153.84 200.42 L 154.78 200.08 C 155.64 199.77 156.09 198.83 155.78 197.97 C 155.48 197.11 154.53 196.66 153.67 196.97 Z M 152.72 197.31 L 151.78 197.65 C 150.93 197.96 150.48 198.91 150.80 199.76 C 151.11 200.62 152.06 201.06 152.91 200.75 L 153.85 200.41 C 154.71 200.10 155.15 199.15 154.84 198.29 C 154.53 197.44 153.58 196.99 152.72 197.31 Z M 151.77 197.65 L 150.83 198.01 C 149.97 198.32 149.54 199.27 149.85 200.13 C 150.17 200.98 151.12 201.42 151.97 201.10 L 152.92 200.75 C 153.78 200.43 154.21 199.48 153.90 198.63 C 153.58 197.77 152.63 197.34 151.77 197.65 Z M 150.82 198.01 L 149.88 198.36 C 149.03 198.69 148.60 199.64 148.92 200.49 C 149.24 201.34 150.19 201.77 151.04 201.45 L 151.98 201.09 C 152.83 200.77 153.26 199.82 152.94 198.97 C 152.62 198.12 151.67 197.69 150.82 198.01 Z M 149.87 198.37 L 148.95 198.72 C 148.10 199.05 147.68 200.00 148.00 200.85 C 148.33 201.70 149.28 202.12 150.13 201.80 L 151.05 201.45 C 151.90 201.12 152.33 200.17 152.00 199.32 C 151.68 198.47 150.72 198.04 149.87 198.37 Z M 148.95 198.72 L 148.02 199.08 C 147.17 199.41 146.75 200.36 147.08 201.21 C 147.40 202.06 148.35 202.48 149.20 202.15 L 150.13 201.79 C 150.98 201.47 151.40 200.52 151.07 199.67 C 150.75 198.82 149.80 198.40 148.95 198.72 Z M 148.01 199.09 L 147.09 199.45 C 146.24 199.78 145.83 200.73 146.15 201.57 C 146.48 202.42 147.44 202.84 148.28 202.51 L 149.21 202.15 C 150.05 201.82 150.47 200.87 150.14 200.02 C 149.81 199.18 148.86 198.76 148.01 199.09 Z M 147.08 199.46 L 146.15 199.82 C 145.31 200.16 144.90 201.11 145.23 201.95 C 145.57 202.79 146.52 203.20 147.36 202.87 L 148.29 202.50 C 149.13 202.17 149.54 201.21 149.21 200.37 C 148.87 199.53 147.92 199.12 147.08 199.46 Z M 146.14 199.83 L 145.20 200.22 C 144.36 200.56 143.96 201.51 144.30 202.35 C 144.64 203.18 145.59 203.58 146.43 203.24 L 147.37 202.86 C 148.21 202.52 148.61 201.57 148.27 200.73 C 147.93 199.89 146.98 199.49 146.14 199.83 Z M 145.19 200.23 L 144.24 200.62 C 143.41 200.97 143.02 201.92 143.36 202.75 C 143.71 203.58 144.66 203.98 145.49 203.63 L 146.44 203.23 C 147.27 202.89 147.66 201.93 147.32 201.10 C 146.97 200.27 146.02 199.88 145.19 200.23 Z M 144.23 200.63 L 143.30 201.03 C 142.48 201.38 142.10 202.33 142.45 203.16 C 142.80 203.98 143.76 204.37 144.58 204.01 L 145.50 203.62 C 146.33 203.27 146.71 202.31 146.36 201.49 C 146.01 200.66 145.05 200.28 144.23 200.63 Z M 143.29 201.04 L 142.40 201.43 C 141.58 201.79 141.21 202.74 141.57 203.56 C 141.93 204.38 142.88 204.75 143.70 204.39 L 144.59 204.00 C 145.41 203.64 145.79 202.69 145.43 201.87 C 145.07 201.05 144.11 200.68 143.29 201.04 Z M 142.38 201.44 L 141.42 201.88 C 140.61 202.25 140.25 203.20 140.62 204.01 C 140.99 204.82 141.94 205.18 142.76 204.82 L 143.72 204.38 C 144.53 204.01 144.89 203.06 144.52 202.25 C 144.15 201.43 143.20 201.07 142.38 201.44 Z M 141.41 201.89 L 140.53 202.30 C 139.73 202.68 139.38 203.64 139.76 204.44 C 140.14 205.24 141.09 205.59 141.90 205.21 L 142.77 204.80 C 143.57 204.42 143.92 203.47 143.54 202.66 C 143.17 201.86 142.21 201.52 141.41 201.89 Z M 140.52 202.32 L 139.64 202.75 C 138.85 203.13 138.51 204.09 138.90 204.88 C 139.28 205.67 140.24 206.01 141.03 205.62 L 141.91 205.19 C 142.70 204.81 143.04 203.85 142.65 203.06 C 142.27 202.27 141.31 201.94 140.52 202.32 Z M 139.63 202.76 L 138.73 203.21 C 137.94 203.60 137.62 204.55 138.01 205.33 C 138.40 206.12 139.35 206.44 140.13 206.05 L 141.04 205.61 C 141.83 205.22 142.15 204.27 141.76 203.48 C 141.37 202.69 140.42 202.37 139.63 202.76 Z M 138.73 203.22 L 137.86 203.64 C 137.08 204.03 136.76 204.97 137.14 205.76 C 137.53 206.54 138.47 206.86 139.25 206.48 L 140.13 206.05 C 140.91 205.66 141.23 204.72 140.85 203.93 C 140.46 203.15 139.52 202.83 138.73 203.22 Z M 137.87 203.65 L 137.02 204.07 C 136.24 204.45 135.92 205.38 136.30 206.16 C 136.67 206.94 137.61 207.26 138.39 206.88 L 139.24 206.47 C 140.02 206.09 140.35 205.15 139.97 204.37 C 139.59 203.60 138.65 203.27 137.87 203.65 Z M 137.00 204.09 L 136.09 204.55 C 135.33 204.94 135.02 205.88 135.41 206.64 C 135.80 207.41 136.74 207.71 137.50 207.32 L 138.41 206.86 C 139.17 206.47 139.48 205.53 139.09 204.77 C 138.70 204.01 137.76 203.70 137.00 204.09 Z M 136.05 204.59 L 135.14 205.09 C 134.40 205.50 134.13 206.44 134.54 207.19 C 134.95 207.93 135.89 208.20 136.63 207.79 L 137.54 207.29 C 138.29 206.88 138.56 205.94 138.14 205.19 C 137.73 204.45 136.80 204.18 136.05 204.59 Z M 135.11 205.13 L 134.21 205.66 C 133.49 206.09 133.25 207.03 133.68 207.75 C 134.11 208.48 135.05 208.72 135.77 208.29 L 136.67 207.75 C 137.39 207.32 137.63 206.39 137.20 205.66 C 136.77 204.94 135.83 204.70 135.11 205.13 Z M 134.17 205.70 L 133.36 206.23 C 132.66 206.68 132.45 207.62 132.91 208.32 C 133.36 209.02 134.30 209.22 135.00 208.77 L 135.81 208.24 C 136.51 207.79 136.72 206.85 136.26 206.15 C 135.81 205.45 134.87 205.25 134.17 205.70 Z M 133.26 206.33 L 132.41 206.99 C 131.77 207.50 131.65 208.43 132.16 209.08 C 132.67 209.73 133.60 209.84 134.25 209.34 L 135.10 208.67 C 135.74 208.17 135.86 207.23 135.35 206.58 C 134.84 205.93 133.91 205.82 133.26 206.33 Z M 132.16 207.29 L 131.62 208.02 C 131.14 208.67 131.28 209.58 131.92 210.06 C 132.57 210.54 133.48 210.41 133.96 209.76 L 134.50 209.03 C 134.98 208.38 134.85 207.47 134.20 206.99 C 133.56 206.51 132.64 206.65 132.16 207.29 Z M 131.43 208.42 L 131.12 209.32 C 130.86 210.07 131.26 210.88 132.01 211.14 C 132.76 211.40 133.58 211.01 133.84 210.26 L 134.15 209.36 C 134.41 208.61 134.01 207.79 133.26 207.53 C 132.51 207.27 131.69 207.67 131.43 208.42 Z M 131.08 209.50 L 130.87 210.52 C 130.71 211.30 131.21 212.05 131.98 212.21 C 132.76 212.37 133.51 211.87 133.67 211.10 L 133.88 210.07 C 134.04 209.30 133.54 208.54 132.77 208.38 C 132.00 208.22 131.24 208.72 131.08 209.50 Z"
      fill="black"
      fill-rule="nonzero" /></svg>