<svg xmlns="http://www.w3.org/2000/svg" width="300" height="300" viewBox="0 0 300 300">
<path d="M 78.76 92.39 L 79.36 93.22 C 79.85 93.90 80.80 94.05 81.48 93.56 C 82.16 93.07 82.32 92.12 81.82 91.44 L 81.22 90.61 C 80.73 89.93 79.78 89.77 79.10 90.27 C 78.42 90.76 78.27 91.71 78.76 92.39 Z M 79.25 93.19 L 79.77 94.02 C 80.25 94.76 81.24 94.98 81.98 94.51 C 82.73 94.04 82.94 93.05 82.47 92.30 L 81.94 91.47 C 81.47 90.73 80.48 90.51 79.74 90.98 C 78.99 91.46 78.77 92.44 79.25 93.19 Z M 79.63 93.86 L 80.03 94.72 C 80.42 95.55 81.40 95.91 82.23 95.52 C 83.05 95.14 83.41 94.15 83.02 93.33 L 82.62 92.46 C 82.23 91.64 81.25 91.28 80.42 91.66 C 79.60 92.05 79.24 93.03 79.63 93.86 Z M 79.94 94.53 L 80.23 95.48 C 80.51 96.35 81.45 96.84 82.33 96.57 C 83.20 96.29 83.69 95.35 83.42 94.47 L 83.12 93.52 C 82.84 92.65 81.90 92.16 81.03 92.43 C 80.15 92.71 79.66 93.65 79.94 94.53 Z M 80.20 95.38 L 80.43 96.30 C 80.65 97.19 81.56 97.74 82.46 97.52 C 83.36 97.29 83.90 96.39 83.68 95.49 L 83.45 94.57 C 83.23 93.67 82.32 93.13 81.42 93.35 C 80.52 93.57 79.98 94.48 80.20 95.38 Z M 80.41 96.25 L 80.62 97.18 C 80.81 98.09 81.71 98.66 82.62 98.47 C 83.52 98.27 84.10 97.37 83.90 96.46 L 83.69 95.53 C 83.50 94.63 82.60 94.05 81.69 94.25 C 80.79 94.45 80.21 95.34 80.41 96.25 Z M 80.60 97.14 L 80.80 98.20 C 80.98 99.12 81.86 99.72 82.77 99.54 C 83.69 99.37 84.29 98.49 84.11 97.57 L 83.91 96.51 C 83.74 95.59 82.86 94.99 81.94 95.17 C 81.03 95.34 80.43 96.22 80.60 97.14 Z M 80.79 98.16 L 80.95 99.12 C 81.10 100.04 81.97 100.67 82.89 100.51 C 83.81 100.36 84.44 99.49 84.28 98.57 L 84.13 97.61 C 83.98 96.69 83.11 96.07 82.19 96.22 C 81.26 96.37 80.64 97.24 80.79 98.16 Z M 80.94 99.09 L 81.08 100.02 C 81.21 100.95 82.07 101.59 83.00 101.45 C 83.92 101.32 84.56 100.46 84.43 99.53 L 84.29 98.60 C 84.16 97.68 83.30 97.04 82.37 97.17 C 81.45 97.31 80.81 98.17 80.94 99.09 Z M 81.07 100.00 L 81.20 101.00 C 81.33 101.93 82.18 102.58 83.11 102.46 C 84.04 102.34 84.69 101.49 84.57 100.56 L 84.43 99.56 C 84.31 98.63 83.46 97.97 82.53 98.10 C 81.60 98.22 80.95 99.07 81.07 100.00 Z M 81.20 100.99 L 81.33 102.06 C 81.44 102.99 82.29 103.65 83.22 103.54 C 84.15 103.42 84.82 102.58 84.70 101.64 L 84.57 100.57 C 84.46 99.64 83.61 98.98 82.68 99.09 C 81.75 99.21 81.08 100.05 81.20 100.99 Z M 81.32 102.04 L 81.44 103.05 C 81.55 103.98 82.39 104.65 83.32 104.54 C 84.26 104.44 84.93 103.59 84.82 102.66 L 84.71 101.65 C 84.60 100.72 83.76 100.05 82.82 100.16 C 81.89 100.26 81.22 101.11 81.32 102.04 Z M 81.43 103.04 L 81.54 103.99 C 81.64 104.93 82.48 105.60 83.42 105.50 C 84.36 105.40 85.03 104.56 84.93 103.62 L 84.83 102.67 C 84.72 101.73 83.88 101.05 82.95 101.16 C 82.01 101.26 81.33 102.10 81.43 103.04 Z M 81.53 103.98 L 81.64 104.97 C 81.73 105.90 82.57 106.59 83.51 106.49 C 84.45 106.39 85.13 105.55 85.04 104.61 L 84.93 103.63 C 84.84 102.69 84.00 102.01 83.06 102.10 C 82.12 102.20 81.44 103.04 81.53 103.98 Z M 81.63 104.96 L 81.73 105.97 C 81.82 106.91 82.66 107.60 83.60 107.51 C 84.54 107.42 85.23 106.58 85.14 105.64 L 85.04 104.62 C 84.95 103.68 84.11 102.99 83.17 103.09 C 82.23 103.18 81.54 104.02 81.63 104.96 Z M 81.73 105.96 L 81.82 107.00 C 81.91 107.94 82.74 108.64 83.69 108.55 C 84.63 108.47 85.33 107.63 85.24 106.69 L 85.14 105.65 C 85.06 104.70 84.22 104.01 83.28 104.10 C 82.34 104.18 81.64 105.02 81.73 105.96 Z M 81.82 106.99 L 81.90 108.00 C 81.99 108.94 82.82 109.64 83.76 109.56 C 84.71 109.48 85.41 108.65 85.33 107.70 L 85.24 106.70 C 85.16 105.75 84.33 105.05 83.39 105.13 C 82.44 105.21 81.74 106.04 81.82 106.99 Z M 81.90 107.99 L 81.98 108.95 C 82.05 109.90 82.88 110.61 83.83 110.53 C 84.78 110.46 85.48 109.63 85.41 108.68 L 85.33 107.71 C 85.26 106.77 84.43 106.06 83.48 106.13 C 82.53 106.21 81.83 107.04 81.90 107.99 Z M 81.98 108.94 L 82.05 109.92 C 82.12 110.87 82.94 111.58 83.89 111.51 C 84.84 111.45 85.55 110.62 85.48 109.67 L 85.41 108.69 C 85.34 107.74 84.52 107.03 83.57 107.10 C 82.62 107.17 81.91 107.99 81.98 108.94 Z M 82.04 109.91 L 82.11 110.91 C 82.18 111.86 83.00 112.58 83.95 112.52 C 84.90 112.45 85.62 111.63 85.55 110.68 L 85.49 109.68 C 85.42 108.73 84.60 108.01 83.65 108.08 C 82.70 108.14 81.98 108.96 82.04 109.91 Z M 82.11 110.90 L 82.17 111.92 C 82.23 112.87 83.05 113.59 84.00 113.54 C 84.95 113.48 85.68 112.66 85.62 111.71 L 85.56 110.69 C 85.50 109.74 84.68 109.01 83.73 109.07 C 82.77 109.13 82.05 109.95 82.11 110.90 Z M 82.17 111.91 L 82.23 112.95 C 82.28 113.90 83.10 114.63 84.05 114.58 C 85.00 114.52 85.73 113.71 85.68 112.75 L 85.62 111.72 C 85.57 110.76 84.75 110.03 83.80 110.09 C 82.85 110.14 82.12 110.96 82.17 111.91 Z M 82.22 112.94 L 82.27 113.89 C 82.32 114.84 83.13 115.58 84.09 115.53 C 85.04 115.48 85.78 114.67 85.73 113.71 L 85.68 112.76 C 85.63 111.81 84.82 111.07 83.87 111.12 C 82.91 111.17 82.18 111.98 82.22 112.94 Z M 82.27 113.88 L 82.31 114.83 C 82.36 115.79 83.17 116.53 84.12 116.48 C 85.08 116.44 85.82 115.63 85.78 114.67 L 85.73 113.72 C 85.69 112.77 84.88 112.03 83.92 112.07 C 82.97 112.11 82.23 112.93 82.27 113.88 Z M 82.31 114.82 L 82.35 115.79 C 82.39 116.75 83.20 117.49 84.15 117.46 C 85.11 117.42 85.86 116.61 85.82 115.65 L 85.78 114.68 C 85.74 113.72 84.93 112.98 83.97 113.02 C 83.02 113.06 82.27 113.86 82.31 114.82 Z M 82.35 115.78 L 82.38 116.78 C 82.42 117.74 83.22 118.49 84.18 118.45 C 85.14 118.42 85.89 117.61 85.86 116.65 L 85.82 115.66 C 85.79 114.70 84.98 113.95 84.02 113.98 C 83.06 114.02 82.31 114.82 82.35 115.78 Z M 82.38 116.77 L 82.41 117.80 C 82.44 118.76 83.25 119.51 84.21 119.48 C 85.17 119.45 85.92 118.65 85.89 117.69 L 85.86 116.66 C 85.83 115.70 85.03 114.95 84.07 114.98 C 83.10 115.01 82.35 115.81 82.38 116.77 Z M 82.41 117.79 L 82.44 118.85 C 82.47 119.81 83.27 120.57 84.23 120.54 C 85.19 120.52 85.95 119.71 85.92 118.75 L 85.89 117.70 C 85.87 116.73 85.07 115.97 84.11 116.00 C 83.14 116.03 82.38 116.83 82.41 117.79 Z M 82.44 118.84 L 82.46 119.88 C 82.48 120.84 83.28 121.60 84.24 121.58 C 85.21 121.56 85.97 120.76 85.95 119.80 L 85.92 118.76 C 85.90 117.80 85.10 117.03 84.14 117.06 C 83.18 117.08 82.41 117.88 82.44 118.84 Z M 82.46 119.87 L 82.48 120.83 C 82.49 121.80 83.29 122.57 84.26 122.55 C 85.22 122.53 85.99 121.73 85.97 120.77 L 85.95 119.80 C 85.93 118.84 85.14 118.07 84.17 118.09 C 83.21 118.11 82.44 118.90 82.46 119.87 Z M 82.47 120.83 L 82.49 121.81 C 82.51 122.78 83.30 123.55 84.27 123.54 C 85.23 123.52 86.00 122.72 85.99 121.76 L 85.97 120.77 C 85.96 119.81 85.16 119.04 84.19 119.05 C 83.23 119.07 82.46 119.86 82.47 120.83 Z M 82.49 121.81 L 82.50 122.81 C 82.51 123.78 83.31 124.55 84.27 124.54 C 85.24 124.53 86.01 123.73 86.00 122.76 L 85.99 121.76 C 85.98 120.80 85.18 120.02 84.22 120.04 C 83.25 120.05 82.47 120.84 82.49 121.81 Z M 82.50 122.81 L 82.51 123.82 C 82.52 124.79 83.31 125.56 84.28 125.55 C 85.25 125.54 86.03 124.75 86.02 123.78 L 86.00 122.77 C 85.99 121.80 85.20 121.02 84.23 121.04 C 83.26 121.05 82.49 121.84 82.50 122.81 Z M 82.51 123.82 L 82.52 124.83 C 82.53 125.80 83.32 126.58 84.29 126.57 C 85.26 126.56 86.04 125.77 86.03 124.80 L 86.02 123.78 C 86.01 122.82 85.22 122.04 84.25 122.05 C 83.28 122.05 82.50 122.85 82.51 123.82 Z M 82.52 124.83 L 82.52 125.85 C 82.53 126.82 83.32 127.60 84.29 127.59 C 85.26 127.59 86.04 126.79 86.04 125.82 L 86.03 124.81 C 86.02 123.84 85.23 123.05 84.26 123.06 C 83.29 123.07 82.51 123.86 82.52 124.83 Z M 82.52 125.85 L 82.53 126.86 C 82.53 127.83 83.32 128.62 84.30 128.61 C 85.27 128.61 86.05 127.81 86.04 126.84 L 86.04 125.83 C 86.03 124.86 85.24 124.07 84.27 124.08 C 83.30 124.08 82.52 124.88 82.52 125.85 Z M 82.52 126.86 L 82.53 127.89 C 82.53 128.86 83.33 129.64 84.30 129.64 C 85.27 129.64 86.05 128.84 86.05 127.87 L 86.05 126.84 C 86.04 125.87 85.25 125.09 84.28 125.09 C 83.31 125.10 82.52 125.89 82.52 126.86 Z M 82.53 127.89 L 82.53 128.91 C 82.53 129.88 83.33 130.67 84.30 130.66 C 85.27 130.66 86.06 129.87 86.05 128.90 L 86.05 127.87 C 86.05 126.90 85.26 126.12 84.28 126.12 C 83.31 126.12 82.52 126.91 82.53 127.89 Z M 82.53 128.91 L 82.53 129.92 C 82.53 130.89 83.33 131.68 84.30 131.68 C 85.27 131.68 86.06 130.88 86.06 129.91 L 86.06 128.90 C 86.05 127.92 85.26 127.14 84.29 127.14 C 83.32 127.14 82.53 127.93 82.53 128.91 Z M 82.53 129.92 L 82.53 130.92 C 82.53 131.89 83.32 132.68 84.30 132.68 C 85.27 132.68 86.06 131.89 86.06 130.91 L 86.06 129.91 C 86.06 128.94 85.27 128.15 84.29 128.15 C 83.32 128.15 82.53 128.94 82.53 129.92 Z M 82.53 130.92 L 82.53 131.91 C 82.53 132.89 83.32 133.68 84.30 133.68 C 85.27 133.68 86.06 132.88 86.06 131.91 L 86.06 130.92 C 86.06 129.94 85.27 129.15 84.30 129.15 C 83.32 129.15 82.53 129.94 82.53 130.92 Z M 82.53 131.91 L 82.53 132.89 C 82.53 133.87 83.32 134.66 84.30 134.66 C 85.28 134.66 86.07 133.87 86.07 132.89 L 86.07 131.91 C 86.07 130.93 85.27 130.14 84.30 130.14 C 83.32 130.14 82.53 130.93 82.53 131.91 Z M 82.53 132.89 L 82.53 133.87 C 82.53 134.85 83.32 135.64 84.30 135.64 C 85.28 135.64 86.07 134.85 86.07 133.87 L 86.07 132.89 C 86.07 131.92 85.28 131.12 84.30 131.13 C 83.32 131.13 82.53 131.92 82.53 132.89 Z M 82.53 133.87 L 82.53 134.86 C 82.53 135.84 83.32 136.63 84.30 136.63 C 85.28 136.63 86.07 135.84 86.07 134.86 L 86.07 133.87 C 86.07 132.89 85.28 132.10 84.30 132.10 C 83.32 132.10 82.53 132.89 82.53 133.87 Z M 82.53 134.86 L 82.53 135.88 C 82.53 136.86 83.32 137.65 84.30 137.65 C 85.28 137.65 86.07 136.86 86.07 135.88 L 86.07 134.86 C 86.07 133.89 85.28 133.09 84.30 133.09 C 83.32 133.09 82.53 133.89 82.53 134.86 Z M 82.52 135.88 L 82.52 136.88 C 82.52 137.86 83.32 138.66 84.30 138.66 C 85.28 138.66 86.07 137.86 86.07 136.88 L 86.07 135.88 C 86.07 134.90 85.28 134.10 84.30 134.10 C 83.32 134.10 82.52 134.90 82.52 135.88 Z M 82.52 136.88 L 82.52 137.88 C 82.52 138.86 83.32 139.66 84.30 139.66 C 85.28 139.66 86.07 138.86 86.07 137.88 L 86.07 136.88 C 86.07 135.90 85.28 135.11 84.30 135.11 C 83.32 135.11 82.52 135.90 82.52 136.88 Z M 82.52 137.88 L 82.52 138.88 C 82.52 139.86 83.32 140.65 84.30 140.65 C 85.28 140.65 86.08 139.86 86.08 138.88 L 86.08 137.88 C 86.08 136.90 85.28 136.10 84.30 136.10 C 83.32 136.10 82.52 136.90 82.52 137.88 Z M 82.52 138.88 L 82.52 139.87 C 82.52 140.85 83.32 141.65 84.30 141.65 C 85.28 141.65 86.08 140.85 86.08 139.87 L 86.08 138.88 C 86.08 137.89 85.28 137.10 84.30 137.10 C 83.32 137.10 82.52 137.89 82.52 138.88 Z M 82.52 139.87 L 82.52 140.86 C 82.52 141.84 83.32 142.64 84.30 142.64 C 85.28 142.64 86.08 141.84 86.08 140.86 L 86.08 139.87 C 86.08 138.88 85.28 138.09 84.30 138.09 C 83.32 138.09 82.52 138.88 82.52 139.87 Z M 82.52 140.86 L 82.52 141.84 C 82.52 142.83 83.31 143.63 84.30 143.63 C 85.28 143.63 86.08 142.83 86.08 141.84 L 86.08 140.86 C 86.08 139.87 85.28 139.08 84.30 139.08 C 83.31 139.08 82.52 139.87 82.52 140.86 Z M 82.52 141.84 L 82.52 142.83 C 82.52 143.82 83.31 144.61 84.30 144.61 C 85.28 144.61 86.08 143.82 86.08 142.83 L 86.08 141.84 C 86.08 140.86 85.28 140.06 84.30 140.06 C 83.31 140.06 82.52 140.86 82.52 141.84 Z M 82.51 142.83 L 82.51 143.82 C 82.51 144.81 83.31 145.60 84.30 145.60 C 85.28 145.60 86.08 144.81 86.08 143.82 L 86.08 142.83 C 86.08 141.85 85.28 141.05 84.30 141.05 C 83.31 141.05 82.51 141.85 82.51 142.83 Z M 82.51 143.82 L 82.51 144.82 C 82.51 145.80 83.31 146.60 84.30 146.60 C 85.28 146.60 86.08 145.80 86.08 144.82 L 86.08 143.82 C 86.08 142.83 85.28 142.04 84.30 142.04 C 83.31 142.04 82.51 142.83 82.51 143.82 Z M 82.51 144.82 L 82.51 145.82 C 82.51 146.80 83.31 147.60 84.30 147.60 C 85.29 147.60 86.08 146.80 86.08 145.82 L 86.08 144.82 C 86.08 143.83 85.29 143.03 84.30 143.03 C 83.31 143.03 82.51 143.83 82.51 144.82 Z M 82.51 145.82 L 82.51 146.82 C 82.51 147.81 83.31 148.61 84.30 148.61 C 85.29 148.61 86.09 147.81 86.09 146.82 L 86.09 145.82 C 86.09 144.83 85.29 144.03 84.30 144.03 C 83.31 144.03 82.51 144.83 82.51 145.82 Z M 82.51 146.82 L 82.51 147.84 C 82.51 148.83 83.31 149.63 84.30 149.63 C 85.29 149.63 86.09 148.83 86.09 147.84 L 86.09 146.82 C 86.09 145.84 85.29 145.04 84.30 145.04 C 83.31 145.04 82.51 145.84 82.51 146.82 Z M 82.51 147.84 L 82.51 148.84 C 82.51 149.83 83.31 150.63 84.30 150.63 C 85.29 150.63 86.09 149.83 86.09 148.84 L 86.09 147.84 C 86.09 146.85 85.29 146.05 84.30 146.05 C 83.31 146.05 82.51 146.85 82.51 147.84 Z M 82.51 148.84 L 82.51 149.83 C 82.51 150.82 83.31 151.62 84.30 151.63 C 85.29 151.63 86.09 150.82 86.09 149.83 L 86.09 148.84 C 86.09 147.85 85.29 147.05 84.30 147.05 C 83.31 147.05 82.51 147.85 82.51 148.84 Z M 82.51 149.83 L 82.51 150.83 C 82.50 151.82 83.31 152.62 84.30 152.62 C 85.29 152.62 86.09 151.82 86.09 150.83 L 86.09 149.84 C 86.09 148.85 85.29 148.04 84.30 148.04 C 83.31 148.04 82.51 148.84 82.51 149.83 Z M 82.50 150.83 L 82.50 151.83 C 82.50 152.82 83.30 153.63 84.29 153.63 C 85.28 153.63 86.09 152.83 86.09 151.84 L 86.09 150.84 C 86.09 149.85 85.29 149.04 84.30 149.04 C 83.31 149.04 82.51 149.84 82.50 150.83 Z M 82.50 151.83 L 82.50 152.84 C 82.50 153.83 83.30 154.63 84.29 154.63 C 85.28 154.64 86.08 153.84 86.09 152.85 L 86.09 151.84 C 86.09 150.85 85.29 150.04 84.30 150.04 C 83.31 150.04 82.51 150.84 82.50 151.83 Z M 82.50 152.83 L 82.49 153.84 C 82.49 154.83 83.29 155.64 84.28 155.64 C 85.27 155.65 86.08 154.85 86.08 153.86 L 86.09 152.85 C 86.09 151.86 85.29 151.05 84.30 151.05 C 83.31 151.04 82.50 151.84 82.50 152.83 Z M 82.49 153.83 L 82.49 154.84 C 82.48 155.83 83.28 156.64 84.27 156.65 C 85.26 156.65 86.07 155.86 86.07 154.87 L 86.08 153.86 C 86.09 152.87 85.29 152.06 84.30 152.05 C 83.31 152.05 82.50 152.84 82.49 153.83 Z M 82.48 154.84 L 82.47 155.84 C 82.47 156.83 83.26 157.65 84.25 157.66 C 85.24 157.67 86.06 156.87 86.07 155.88 L 86.08 154.87 C 86.08 153.88 85.29 153.07 84.30 153.06 C 83.31 153.05 82.49 153.84 82.48 154.84 Z M 82.47 155.84 L 82.46 156.86 C 82.45 157.85 83.24 158.66 84.24 158.67 C 85.23 158.69 86.04 157.89 86.05 156.90 L 86.07 155.88 C 86.08 154.89 85.28 154.08 84.29 154.06 C 83.30 154.05 82.49 154.85 82.47 155.84 Z M 82.46 156.85 L 82.45 157.86 C 82.43 158.85 83.22 159.67 84.22 159.69 C 85.21 159.70 86.02 158.91 86.04 157.92 L 86.05 156.91 C 86.07 155.91 85.28 155.10 84.28 155.08 C 83.29 155.07 82.48 155.86 82.46 156.85 Z M 82.45 157.86 L 82.43 158.86 C 82.41 159.86 83.20 160.67 84.19 160.69 C 85.19 160.71 86.00 159.92 86.02 158.93 L 86.04 157.92 C 86.06 156.93 85.27 156.11 84.27 156.09 C 83.28 156.07 82.46 156.87 82.45 157.86 Z M 82.43 158.86 L 82.41 159.86 C 82.39 160.85 83.17 161.67 84.17 161.69 C 85.16 161.71 85.98 160.92 86.00 159.93 L 86.02 158.93 C 86.04 157.94 85.25 157.12 84.26 157.10 C 83.27 157.08 82.45 157.87 82.43 158.86 Z M 82.41 159.85 L 82.38 160.85 C 82.36 161.84 83.15 162.66 84.14 162.68 C 85.13 162.71 85.96 161.92 85.98 160.93 L 86.00 159.93 C 86.02 158.94 85.24 158.12 84.24 158.10 C 83.25 158.07 82.43 158.86 82.41 159.85 Z M 82.38 160.84 L 82.36 161.83 C 82.33 162.82 83.12 163.64 84.11 163.67 C 85.11 163.69 85.93 162.91 85.96 161.92 L 85.98 160.93 C 86.01 159.94 85.22 159.11 84.23 159.09 C 83.23 159.06 82.41 159.85 82.38 160.84 Z M 82.36 161.82 L 82.33 162.81 C 82.30 163.81 83.09 164.63 84.08 164.66 C 85.08 164.69 85.90 163.90 85.93 162.91 L 85.96 161.92 C 85.98 160.93 85.20 160.10 84.21 160.07 C 83.21 160.04 82.38 160.83 82.36 161.82 Z M 82.33 162.81 L 82.30 163.85 C 82.27 164.85 83.05 165.68 84.05 165.71 C 85.04 165.73 85.87 164.95 85.90 163.96 L 85.93 162.91 C 85.96 161.92 85.18 161.09 84.18 161.06 C 83.19 161.03 82.36 161.81 82.33 162.81 Z M 82.30 163.85 L 82.27 164.88 C 82.24 165.88 83.02 166.71 84.01 166.74 C 85.01 166.77 85.84 165.99 85.87 164.99 L 85.90 163.96 C 85.93 162.97 85.15 162.14 84.16 162.10 C 83.16 162.07 82.33 162.86 82.30 163.85 Z M 82.27 164.88 L 82.24 165.90 C 82.20 166.89 82.98 167.73 83.98 167.76 C 84.97 167.79 85.81 167.01 85.84 166.01 L 85.87 165.00 C 85.90 164.00 85.12 163.17 84.13 163.14 C 83.13 163.11 82.30 163.89 82.27 164.88 Z M 82.23 165.90 L 82.20 166.90 C 82.17 167.89 82.95 168.72 83.95 168.76 C 84.94 168.79 85.77 168.01 85.81 167.01 L 85.84 166.01 C 85.87 165.02 85.09 164.19 84.10 164.15 C 83.10 164.12 82.27 164.90 82.23 165.90 Z M 82.20 166.90 L 82.17 167.87 C 82.14 168.87 82.92 169.70 83.91 169.73 C 84.91 169.77 85.74 168.98 85.78 167.99 L 85.81 167.01 C 85.84 166.02 85.06 165.18 84.06 165.15 C 83.07 165.12 82.23 165.90 82.20 166.90 Z M 82.17 167.87 L 82.14 168.82 C 82.11 169.82 82.89 170.65 83.88 170.68 C 84.88 170.72 85.71 169.94 85.75 168.94 L 85.78 167.99 C 85.81 166.99 85.03 166.16 84.03 166.13 C 83.03 166.09 82.20 166.88 82.17 167.87 Z M 82.14 168.82 L 82.11 169.82 C 82.08 170.81 82.86 171.64 83.85 171.68 C 84.85 171.71 85.68 170.92 85.71 169.93 L 85.75 168.94 C 85.78 167.94 84.99 167.11 84.00 167.08 C 83.00 167.05 82.17 167.83 82.14 168.82 Z M 82.11 169.82 L 82.08 170.84 C 82.05 171.83 82.83 172.66 83.83 172.69 C 84.82 172.72 85.65 171.94 85.68 170.94 L 85.72 169.93 C 85.75 168.93 84.96 168.10 83.97 168.07 C 82.97 168.04 82.14 168.82 82.11 169.82 Z M 82.08 170.84 L 82.05 171.83 C 82.02 172.83 82.80 173.66 83.80 173.69 C 84.79 173.72 85.63 172.94 85.65 171.94 L 85.68 170.94 C 85.71 169.95 84.93 169.12 83.93 169.09 C 82.94 169.06 82.11 169.84 82.08 170.84 Z M 82.05 171.83 L 82.02 172.82 C 81.99 173.81 82.77 174.64 83.77 174.67 C 84.76 174.70 85.60 173.92 85.63 172.92 L 85.65 171.94 C 85.68 170.94 84.90 170.11 83.90 170.08 C 82.91 170.05 82.08 170.84 82.05 171.83 Z M 82.02 172.82 L 81.99 173.80 C 81.96 174.79 82.74 175.63 83.74 175.66 C 84.73 175.69 85.57 174.90 85.60 173.91 L 85.63 172.92 C 85.66 171.93 84.87 171.10 83.88 171.07 C 82.88 171.04 82.05 171.82 82.02 172.82 Z M 81.99 173.80 L 81.96 174.79 C 81.92 175.78 82.71 176.62 83.70 176.65 C 84.70 176.68 85.53 175.90 85.56 174.90 L 85.60 173.91 C 85.63 172.91 84.84 172.08 83.85 172.05 C 82.85 172.02 82.02 172.80 81.99 173.80 Z M 81.96 174.79 L 81.92 175.76 C 81.89 176.76 82.67 177.59 83.67 177.63 C 84.66 177.66 85.50 176.88 85.53 175.88 L 85.56 174.91 C 85.60 173.91 84.82 173.07 83.82 173.04 C 82.82 173.01 81.99 173.79 81.96 174.79 Z M 81.92 175.76 L 81.89 176.74 C 81.86 177.74 82.63 178.57 83.63 178.61 C 84.63 178.64 85.46 177.86 85.50 176.87 L 85.53 175.89 C 85.57 174.89 84.79 174.05 83.79 174.02 C 82.79 173.98 81.96 174.76 81.92 175.76 Z M 81.89 176.74 L 81.85 177.74 C 81.82 178.73 82.60 179.57 83.59 179.60 C 84.59 179.64 85.43 178.86 85.46 177.87 L 85.50 176.87 C 85.53 175.87 84.75 175.04 83.76 175.00 C 82.76 174.97 81.93 175.74 81.89 176.74 Z M 81.86 177.73 L 81.82 178.74 C 81.78 179.74 82.56 180.57 83.56 180.61 C 84.55 180.65 85.39 179.87 85.42 178.87 L 85.46 177.87 C 85.50 176.87 84.72 176.03 83.72 176.00 C 82.73 175.96 81.89 176.74 81.86 177.73 Z M 81.82 178.74 L 81.78 179.75 C 81.74 180.75 82.52 181.59 83.52 181.62 C 84.51 181.66 85.35 180.88 85.39 179.89 L 85.42 178.87 C 85.46 177.88 84.68 177.04 83.69 177.00 C 82.69 176.97 81.86 177.75 81.82 178.74 Z M 81.78 179.75 L 81.74 180.77 C 81.71 181.76 82.48 182.60 83.48 182.64 C 84.47 182.68 85.31 181.90 85.35 180.90 L 85.39 179.89 C 85.42 178.89 84.65 178.06 83.65 178.02 C 82.66 177.98 81.82 178.76 81.78 179.75 Z M 81.74 180.77 L 81.71 181.79 C 81.67 182.79 82.45 183.62 83.44 183.66 C 84.44 183.70 85.27 182.92 85.31 181.93 L 85.35 180.90 C 85.38 179.91 84.61 179.07 83.61 179.03 C 82.62 179.00 81.78 179.77 81.74 180.77 Z M 81.71 181.79 L 81.67 182.82 C 81.63 183.81 82.41 184.65 83.40 184.68 C 84.40 184.72 85.23 183.94 85.27 182.95 L 85.31 181.93 C 85.35 180.93 84.57 180.10 83.57 180.06 C 82.58 180.02 81.74 180.80 81.71 181.79 Z M 81.67 182.82 L 81.63 183.83 C 81.60 184.82 82.37 185.66 83.36 185.70 C 84.36 185.74 85.19 184.96 85.23 183.97 L 85.27 182.95 C 85.31 181.96 84.53 181.12 83.54 181.08 C 82.54 181.05 81.71 181.82 81.67 182.82 Z M 81.63 183.83 L 81.59 184.83 C 81.56 185.83 82.33 186.66 83.32 186.70 C 84.32 186.74 85.15 185.97 85.19 184.97 L 85.23 183.97 C 85.27 182.98 84.49 182.14 83.50 182.10 C 82.51 182.06 81.67 182.84 81.63 183.83 Z M 81.60 184.83 L 81.56 185.82 C 81.52 186.81 82.29 187.65 83.28 187.69 C 84.27 187.73 85.11 186.96 85.15 185.96 L 85.19 184.98 C 85.23 183.98 84.46 183.15 83.47 183.11 C 82.47 183.07 81.64 183.84 81.60 184.83 Z M 81.56 185.81 L 81.51 186.78 C 81.47 187.77 82.24 188.61 83.23 188.65 C 84.22 188.70 85.06 187.93 85.11 186.94 L 85.15 185.97 C 85.19 184.98 84.42 184.14 83.43 184.09 C 82.44 184.05 81.60 184.82 81.56 185.81 Z M 81.52 186.77 L 81.47 187.78 C 81.42 188.77 82.19 189.62 83.18 189.66 C 84.17 189.71 85.01 188.94 85.06 187.95 L 85.10 186.94 C 85.15 185.95 84.39 185.11 83.39 185.06 C 82.40 185.02 81.56 185.78 81.52 186.77 Z M 81.47 187.78 L 81.42 188.81 C 81.37 189.80 82.13 190.64 83.12 190.69 C 84.11 190.74 84.95 189.98 85.00 188.99 L 85.05 187.96 C 85.10 186.97 84.34 186.13 83.35 186.08 C 82.36 186.03 81.52 186.79 81.47 187.78 Z M 81.42 188.80 L 81.36 189.81 C 81.31 190.79 82.07 191.64 83.05 191.70 C 84.04 191.75 84.89 190.99 84.94 190.00 L 85.00 189.00 C 85.05 188.01 84.30 187.16 83.31 187.11 C 82.32 187.05 81.47 187.81 81.42 188.80 Z M 81.37 189.80 L 81.31 190.78 C 81.25 191.77 82.00 192.62 82.99 192.68 C 83.98 192.74 84.82 191.99 84.88 191.00 L 84.94 190.01 C 85.00 189.02 84.25 188.18 83.26 188.12 C 82.27 188.06 81.42 188.81 81.37 189.80 Z M 81.31 190.78 L 81.25 191.75 C 81.18 192.73 81.93 193.59 82.92 193.65 C 83.91 193.71 84.76 192.96 84.82 191.97 L 84.88 191.00 C 84.94 190.02 84.19 189.17 83.21 189.10 C 82.22 189.04 81.37 189.79 81.31 190.78 Z M 81.25 191.74 L 81.18 192.71 C 81.12 193.69 81.86 194.54 82.85 194.61 C 83.84 194.68 84.69 193.93 84.75 192.94 L 84.82 191.98 C 84.88 190.99 84.14 190.14 83.15 190.08 C 82.17 190.01 81.31 190.76 81.25 191.74 Z M 81.19 192.70 L 81.12 193.68 C 81.05 194.66 81.79 195.52 82.78 195.58 C 83.76 195.65 84.61 194.91 84.68 193.93 L 84.75 192.95 C 84.82 191.97 84.08 191.11 83.09 191.04 C 82.11 190.97 81.26 191.72 81.19 192.70 Z M 81.12 193.67 L 81.05 194.65 C 80.98 195.63 81.72 196.49 82.70 196.56 C 83.68 196.63 84.54 195.89 84.61 194.91 L 84.68 193.93 C 84.75 192.95 84.01 192.09 83.03 192.02 C 82.05 191.95 81.19 192.69 81.12 193.67 Z M 81.05 194.65 L 80.98 195.64 C 80.91 196.62 81.64 197.47 82.62 197.55 C 83.60 197.62 84.46 196.88 84.53 195.90 L 84.61 194.91 C 84.68 193.93 83.94 193.08 82.96 193.00 C 81.98 192.93 81.13 193.67 81.05 194.65 Z M 80.98 195.64 L 80.91 196.64 C 80.83 197.62 81.56 198.48 82.54 198.55 C 83.52 198.63 84.38 197.89 84.45 196.91 L 84.53 195.91 C 84.60 194.93 83.87 194.07 82.89 194.00 C 81.91 193.92 81.06 194.66 80.98 195.64 Z M 80.91 196.64 L 80.83 197.68 C 80.75 198.66 81.49 199.51 82.46 199.58 C 83.44 199.66 84.30 198.93 84.37 197.95 L 84.45 196.91 C 84.52 195.94 83.79 195.08 82.81 195.01 C 81.84 194.93 80.98 195.66 80.91 196.64 Z M 80.83 197.68 L 80.76 198.66 C 80.68 199.63 81.41 200.49 82.39 200.56 C 83.37 200.64 84.22 199.91 84.29 198.93 L 84.37 197.95 C 84.44 196.97 83.71 196.12 82.74 196.05 C 81.76 195.97 80.91 196.70 80.83 197.68 Z M 80.76 198.66 L 80.68 199.66 C 80.61 200.63 81.34 201.48 82.31 201.56 C 83.29 201.63 84.14 200.90 84.21 199.93 L 84.29 198.93 C 84.36 197.95 83.63 197.10 82.66 197.03 C 81.68 196.95 80.83 197.68 80.76 198.66 Z M 80.69 199.66 L 80.61 200.67 C 80.53 201.64 81.26 202.49 82.24 202.56 C 83.21 202.64 84.06 201.91 84.13 200.94 L 84.21 199.93 C 84.28 198.95 83.56 198.11 82.58 198.03 C 81.61 197.96 80.76 198.68 80.69 199.66 Z M 80.61 200.67 L 80.53 201.68 C 80.46 202.65 81.19 203.50 82.16 203.57 C 83.13 203.65 83.98 202.92 84.05 201.95 L 84.13 200.94 C 84.20 199.97 83.48 199.12 82.51 199.04 C 81.53 198.97 80.69 199.70 80.61 200.67 Z M 80.54 201.68 L 80.46 202.68 C 80.38 203.65 81.11 204.49 82.08 204.57 C 83.05 204.64 83.90 203.92 83.97 202.95 L 84.05 201.95 C 84.12 200.98 83.40 200.13 82.43 200.06 C 81.46 199.98 80.61 200.71 80.54 201.68 Z M 80.46 202.67 L 80.38 203.68 C 80.31 204.65 81.03 205.49 82.00 205.57 C 82.97 205.64 83.82 204.92 83.89 203.95 L 83.97 202.95 C 84.04 201.98 83.32 201.13 82.35 201.06 C 81.38 200.98 80.54 201.71 80.46 202.67 Z M 80.39 203.68 L 80.31 204.72 C 80.23 205.69 80.95 206.53 81.92 206.61 C 82.89 206.68 83.73 205.96 83.81 204.99 L 83.89 203.95 C 83.96 202.98 83.24 202.14 82.27 202.06 C 81.31 201.99 80.46 202.71 80.39 203.68 Z M 80.31 204.72 L 80.23 205.73 C 80.16 206.69 80.88 207.54 81.84 207.61 C 82.81 207.69 83.65 206.97 83.73 206.00 L 83.80 204.99 C 83.88 204.03 83.16 203.18 82.19 203.11 C 81.23 203.03 80.39 203.75 80.31 204.72 Z M 80.23 205.73 L 80.16 206.72 C 80.08 207.68 80.80 208.52 81.76 208.60 C 82.73 208.67 83.57 207.95 83.64 206.99 L 83.72 206.00 C 83.80 205.04 83.08 204.20 82.12 204.12 C 81.15 204.05 80.31 204.77 80.23 205.73 Z M 80.16 206.72 L 80.08 207.69 C 80.01 208.65 80.73 209.49 81.69 209.56 C 82.65 209.64 83.49 208.92 83.57 207.96 L 83.64 206.99 C 83.72 206.03 83.00 205.19 82.04 205.11 C 81.08 205.04 80.24 205.76 80.16 206.72 Z M 80.09 207.69 L 80.01 208.65 C 79.93 209.61 80.65 210.45 81.61 210.52 C 82.57 210.60 83.41 209.88 83.49 208.92 L 83.56 207.96 C 83.64 207.00 82.92 206.16 81.96 206.09 C 81.00 206.01 80.16 206.73 80.09 207.69 Z M 80.01 208.65 L 79.93 209.69 C 79.85 210.64 80.57 211.48 81.53 211.56 C 82.48 211.64 83.32 210.92 83.40 209.96 L 83.48 208.92 C 83.56 207.97 82.84 207.13 81.89 207.05 C 80.93 206.98 80.09 207.69 80.01 208.65 Z M 79.94 209.69 L 79.85 210.71 C 79.78 211.66 80.49 212.50 81.44 212.57 C 82.40 212.65 83.23 211.94 83.31 210.98 L 83.39 209.96 C 83.47 209.01 82.76 208.17 81.80 208.10 C 80.85 208.02 80.01 208.73 79.94 209.69 Z M 79.86 210.70 L 79.78 211.70 C 79.70 212.65 80.41 213.49 81.36 213.56 C 82.31 213.64 83.15 212.93 83.22 211.98 L 83.31 210.99 C 83.38 210.04 82.68 209.20 81.72 209.12 C 80.77 209.04 79.94 209.75 79.86 210.70 Z M 79.78 211.69 L 79.70 212.66 C 79.62 213.61 80.32 214.44 81.27 214.52 C 82.22 214.60 83.06 213.90 83.14 212.95 L 83.22 211.99 C 83.30 211.04 82.60 210.20 81.65 210.12 C 80.70 210.04 79.86 210.75 79.78 211.69 Z M 79.71 212.65 L 79.62 213.64 C 79.54 214.59 80.23 215.42 81.18 215.51 C 82.13 215.59 82.96 214.89 83.04 213.94 L 83.13 212.96 C 83.21 212.01 82.52 211.18 81.57 211.09 C 80.62 211.01 79.79 211.71 79.71 212.65 Z M 79.63 213.64 L 79.53 214.68 C 79.44 215.62 80.14 216.45 81.08 216.54 C 82.02 216.62 82.85 215.93 82.94 214.99 L 83.04 213.95 C 83.12 213.01 82.43 212.17 81.49 212.09 C 80.55 212.00 79.71 212.69 79.63 213.64 Z M 79.54 214.67 L 79.44 215.67 C 79.35 216.60 80.04 217.43 80.98 217.52 C 81.91 217.61 82.75 216.93 82.84 215.99 L 82.93 215.00 C 83.02 214.06 82.34 213.23 81.40 213.14 C 80.46 213.05 79.63 213.73 79.54 214.67 Z M 79.45 215.66 L 79.36 216.62 C 79.26 217.55 79.94 218.38 80.88 218.48 C 81.81 218.57 82.64 217.89 82.73 216.96 L 82.83 216.00 C 82.92 215.07 82.24 214.23 81.31 214.14 C 80.38 214.05 79.55 214.73 79.45 215.66 Z M 79.37 216.62 L 79.27 217.58 C 79.17 218.51 79.85 219.34 80.77 219.43 C 81.70 219.53 82.53 218.85 82.62 217.93 L 82.72 216.96 C 82.82 216.03 82.14 215.21 81.22 215.11 C 80.29 215.02 79.46 215.69 79.37 216.62 Z M 79.28 217.58 L 79.17 218.59 C 79.08 219.51 79.74 220.33 80.67 220.43 C 81.59 220.52 82.41 219.86 82.51 218.93 L 82.61 217.93 C 82.71 217.01 82.04 216.18 81.12 216.09 C 80.20 215.99 79.37 216.66 79.28 217.58 Z M 79.18 218.59 L 79.08 219.58 C 78.98 220.49 79.65 221.31 80.57 221.41 C 81.48 221.50 82.30 220.84 82.40 219.92 L 82.50 218.93 C 82.59 218.02 81.93 217.20 81.01 217.10 C 80.10 217.01 79.28 217.67 79.18 218.59 Z M 79.09 219.58 L 78.99 220.57 C 78.90 221.48 79.56 222.29 80.47 222.38 C 81.39 222.47 82.20 221.81 82.29 220.90 L 82.39 219.91 C 82.48 219.00 81.81 218.19 80.90 218.10 C 79.99 218.01 79.18 218.67 79.09 219.58 Z M 79.00 220.58 L 78.91 221.55 C 78.82 222.45 79.49 223.26 80.40 223.34 C 81.30 223.42 82.10 222.76 82.19 221.85 L 82.28 220.89 C 82.36 219.98 81.70 219.18 80.79 219.09 C 79.89 219.01 79.08 219.67 79.00 220.58 Z M 78.92 221.56 L 78.83 222.54 C 78.76 223.44 79.42 224.23 80.32 224.31 C 81.23 224.38 82.02 223.72 82.10 222.82 L 82.18 221.84 C 82.26 220.94 81.59 220.15 80.69 220.07 C 79.79 219.99 79.00 220.66 78.92 221.56 Z M 78.84 222.55 L 78.77 223.55 C 78.70 224.45 79.36 225.23 80.26 225.30 C 81.15 225.37 81.94 224.70 82.01 223.80 L 82.09 222.80 C 82.16 221.91 81.49 221.13 80.59 221.06 C 79.70 220.99 78.91 221.65 78.84 222.55 Z M 78.77 223.56 L 78.70 224.60 C 78.64 225.49 79.31 226.26 80.20 226.33 C 81.09 226.39 81.86 225.72 81.92 224.83 L 82.00 223.79 C 82.06 222.90 81.39 222.13 80.50 222.07 C 79.61 222.00 78.84 222.67 78.77 223.56 Z M 78.71 224.61 L 78.65 225.61 C 78.59 226.50 79.26 227.26 80.15 227.32 C 81.03 227.37 81.79 226.70 81.85 225.82 L 81.92 224.82 C 81.97 223.93 81.30 223.17 80.42 223.11 C 79.53 223.06 78.77 223.73 78.71 224.61 Z M 78.65 225.62 L 78.59 226.64 C 78.54 227.52 79.21 228.27 80.09 228.32 C 80.97 228.38 81.73 227.71 81.78 226.83 L 81.84 225.81 C 81.89 224.93 81.22 224.17 80.34 224.12 C 79.46 224.07 78.71 224.74 78.65 225.62 Z M 78.60 226.64 L 78.55 227.65 C 78.50 228.53 79.17 229.27 80.05 229.32 C 80.92 229.37 81.67 228.70 81.72 227.83 L 81.77 226.82 C 81.82 225.94 81.15 225.19 80.28 225.15 C 79.40 225.10 78.65 225.77 78.60 226.64 Z M 78.56 227.66 L 78.51 228.63 C 78.46 229.50 79.13 230.24 80.00 230.29 C 80.87 230.33 81.61 229.66 81.66 228.79 L 81.71 227.82 C 81.75 226.95 81.09 226.21 80.21 226.16 C 79.34 226.12 78.60 226.79 78.56 227.66 Z M 78.51 228.63 L 78.46 229.70 C 78.42 230.56 79.09 231.30 79.95 231.34 C 80.82 231.39 81.55 230.72 81.60 229.85 L 81.65 228.79 C 81.69 227.92 81.03 227.19 80.16 227.14 C 79.29 227.10 78.56 227.77 78.51 228.63 Z M 78.47 229.70 L 78.42 230.71 C 78.38 231.57 79.05 232.30 79.91 232.34 C 80.77 232.38 81.50 231.72 81.54 230.85 L 81.59 229.85 C 81.63 228.99 80.97 228.26 80.10 228.22 C 79.24 228.17 78.51 228.84 78.47 229.70 Z M 78.43 230.71 L 78.39 231.67 C 78.34 232.52 79.01 233.25 79.86 233.29 C 80.72 233.33 81.45 232.67 81.49 231.81 L 81.53 230.85 C 81.57 230.00 80.91 229.27 80.06 229.23 C 79.20 229.19 78.47 229.85 78.43 230.71 Z M 78.39 231.66 L 78.35 232.65 C 78.30 233.51 78.96 234.23 79.81 234.27 C 80.67 234.31 81.39 233.66 81.43 232.80 L 81.48 231.81 C 81.52 230.96 80.86 230.24 80.01 230.20 C 79.16 230.15 78.44 230.81 78.39 231.66 Z M 78.36 232.66 L 78.31 233.68 C 78.27 234.53 78.92 235.25 79.77 235.29 C 80.61 235.33 81.33 234.67 81.37 233.83 L 81.42 232.80 C 81.46 231.96 80.81 231.24 79.96 231.20 C 79.12 231.16 78.40 231.81 78.36 232.66 Z M 78.32 233.69 L 78.27 234.67 C 78.24 235.51 78.89 236.22 79.73 236.26 C 80.57 236.29 81.29 235.64 81.32 234.80 L 81.36 233.82 C 81.40 232.98 80.75 232.27 79.90 232.23 C 79.06 232.19 78.35 232.85 78.32 233.69 Z M 78.28 234.69 L 78.26 235.70 C 78.23 236.54 78.89 237.23 79.73 237.26 C 80.56 237.28 81.26 236.62 81.28 235.79 L 81.31 234.78 C 81.34 233.94 80.68 233.24 79.84 233.22 C 79.01 233.20 78.31 233.85 78.28 234.69 Z M 78.26 235.73 L 78.25 236.75 C 78.24 237.59 78.91 238.27 79.74 238.28 C 80.57 238.29 81.25 237.62 81.26 236.79 L 81.27 235.76 C 81.28 234.93 80.62 234.25 79.79 234.24 C 78.96 234.23 78.27 234.89 78.26 235.73 Z M 78.26 236.77 L 78.26 237.71 C 78.25 238.53 78.92 239.20 79.75 239.21 C 80.58 239.21 81.25 238.54 81.25 237.71 L 81.25 236.78 C 81.26 235.95 80.59 235.28 79.76 235.27 C 78.93 235.27 78.26 235.94 78.26 236.77 Z M 78.26 237.71 L 78.26 238.71 C 78.26 239.53 78.93 240.20 79.75 240.20 C 80.58 240.20 81.25 239.53 81.25 238.71 L 81.25 237.71 C 81.25 236.88 80.58 236.22 79.75 236.22 C 78.93 236.22 78.26 236.88 78.26 237.71 Z M 78.26 238.71 L 78.26 239.70 C 78.26 240.52 78.93 241.19 79.75 241.19 C 80.58 241.19 81.24 240.52 81.24 239.70 L 81.24 238.71 C 81.24 237.88 80.58 237.22 79.75 237.22 C 78.93 237.22 78.26 237.88 78.26 238.71 Z M 78.27 239.70 L 78.27 240.71 C 78.27 241.53 78.93 242.20 79.76 242.20 C 80.58 242.19 81.24 241.53 81.24 240.71 L 81.24 239.69 C 81.24 238.87 80.58 238.21 79.75 238.21 C 78.93 238.21 78.27 238.87 78.27 239.70 Z M 78.27 240.71 L 78.27 241.73 C 78.28 242.55 78.95 243.21 79.77 243.21 C 80.59 243.21 81.25 242.54 81.25 241.72 L 81.24 240.70 C 81.24 239.88 80.57 239.22 79.75 239.22 C 78.93 239.23 78.26 239.89 78.27 240.71 Z M 78.28 241.76 L 78.31 242.97 C 78.33 243.78 79.00 244.43 79.82 244.41 C 80.64 244.39 81.29 243.72 81.27 242.90 L 81.24 241.69 C 81.22 240.87 80.54 240.22 79.73 240.24 C 78.91 240.26 78.26 240.94 78.28 241.76 Z M 78.36 243.28 L 78.47 243.75 C 78.66 244.54 79.46 245.03 80.25 244.83 C 81.04 244.64 81.52 243.85 81.33 243.06 L 81.22 242.58 C 81.03 241.79 80.23 241.31 79.44 241.50 C 78.65 241.69 78.17 242.49 78.36 243.28 Z M 81.32 243.70 L 81.55 242.61 C 81.71 241.83 81.21 241.06 80.42 240.90 C 79.64 240.74 78.87 241.24 78.71 242.02 L 78.49 243.11 C 78.32 243.89 78.83 244.66 79.61 244.82 C 80.39 244.98 81.16 244.48 81.32 243.70 Z M 81.54 242.56 L 81.55 242.50 C 81.68 241.72 81.16 240.98 80.38 240.85 C 79.61 240.71 78.87 241.23 78.73 242.01 L 78.72 242.07 C 78.58 242.85 79.10 243.59 79.88 243.73 C 80.66 243.86 81.40 243.34 81.54 242.56 Z"
      fill="black"
      fill-rule="nonzero" /><path d="M 85.55 102.95 L 85.79 101.96 C 85.98 101.19 85.51 100.41 84.74 100.22 C 83.96 100.03 83.18 100.50 82.99 101.28 L 82.75 102.26 C 82.56 103.03 83.03 103.82 83.81 104.01 C 84.58 104.20 85.36 103.72 85.55 102.95 Z M 85.57 102.46 L 86.12 101.69 C 86.58 101.04 86.43 100.13 85.77 99.67 C 85.12 99.21 84.22 99.36 83.75 100.01 L 83.21 100.78 C 82.75 101.43 82.90 102.34 83.55 102.80 C 84.21 103.26 85.11 103.11 85.57 102.46 Z M 85.67 102.11 L 86.53 101.61 C 87.22 101.20 87.46 100.31 87.05 99.62 C 86.65 98.92 85.76 98.69 85.06 99.09 L 84.20 99.60 C 83.51 100.00 83.28 100.89 83.68 101.58 C 84.08 102.28 84.97 102.51 85.67 102.11 Z M 86.40 101.68 L 87.29 101.27 C 88.03 100.94 88.35 100.08 88.02 99.35 C 87.69 98.61 86.83 98.29 86.09 98.62 L 85.20 99.02 C 84.46 99.35 84.14 100.22 84.47 100.95 C 84.80 101.68 85.66 102.01 86.40 101.68 Z M 87.30 101.27 L 88.19 100.87 C 88.92 100.53 89.24 99.67 88.91 98.93 C 88.57 98.20 87.71 97.88 86.98 98.21 L 86.09 98.62 C 85.36 98.95 85.03 99.82 85.37 100.55 C 85.70 101.28 86.57 101.61 87.30 101.27 Z M 88.16 100.88 L 89.08 100.48 C 89.82 100.16 90.16 99.30 89.84 98.56 C 89.52 97.82 88.66 97.48 87.92 97.80 L 87.00 98.20 C 86.26 98.52 85.92 99.38 86.24 100.12 C 86.56 100.86 87.42 101.20 88.16 100.88 Z M 89.07 100.49 L 89.96 100.12 C 90.70 99.80 91.05 98.95 90.74 98.20 C 90.43 97.46 89.57 97.11 88.83 97.42 L 87.94 97.79 C 87.19 98.10 86.84 98.96 87.15 99.70 C 87.47 100.45 88.32 100.80 89.07 100.49 Z M 89.96 100.12 L 90.93 99.71 C 91.68 99.39 92.03 98.53 91.71 97.79 C 91.40 97.04 90.54 96.70 89.80 97.01 L 88.82 97.42 C 88.08 97.73 87.73 98.59 88.04 99.34 C 88.36 100.08 89.22 100.43 89.96 100.12 Z M 90.95 99.70 L 91.90 99.29 C 92.64 98.97 92.98 98.10 92.65 97.36 C 92.33 96.62 91.47 96.28 90.72 96.60 L 89.78 97.01 C 89.04 97.34 88.70 98.20 89.02 98.94 C 89.34 99.69 90.21 100.02 90.95 99.70 Z M 91.91 99.29 L 92.82 98.88 C 93.56 98.55 93.89 97.68 93.56 96.94 C 93.23 96.20 92.36 95.87 91.62 96.20 L 90.71 96.61 C 89.97 96.94 89.64 97.80 89.97 98.54 C 90.30 99.28 91.17 99.62 91.91 99.29 Z M 92.82 98.88 L 93.74 98.47 C 94.48 98.14 94.81 97.28 94.48 96.53 C 94.15 95.79 93.29 95.46 92.55 95.79 L 91.63 96.20 C 90.88 96.53 90.55 97.39 90.88 98.13 C 91.21 98.88 92.08 99.21 92.82 98.88 Z M 93.72 98.48 L 94.66 98.08 C 95.41 97.76 95.75 96.90 95.43 96.15 C 95.11 95.40 94.25 95.06 93.50 95.38 L 92.56 95.78 C 91.82 96.10 91.47 96.96 91.79 97.71 C 92.11 98.45 92.97 98.80 93.72 98.48 Z M 94.63 98.09 L 95.60 97.70 C 96.35 97.40 96.72 96.54 96.41 95.79 C 96.11 95.03 95.25 94.67 94.50 94.97 L 93.53 95.36 C 92.78 95.67 92.41 96.53 92.72 97.28 C 93.02 98.03 93.88 98.40 94.63 98.09 Z M 95.58 97.71 L 96.50 97.36 C 97.26 97.06 97.64 96.21 97.35 95.45 C 97.05 94.69 96.20 94.31 95.44 94.61 L 94.52 94.96 C 93.76 95.26 93.38 96.11 93.67 96.87 C 93.97 97.63 94.82 98.01 95.58 97.71 Z M 96.49 97.36 L 97.41 97.02 C 98.17 96.73 98.55 95.88 98.27 95.12 C 97.98 94.36 97.13 93.97 96.37 94.26 L 95.46 94.60 C 94.69 94.89 94.31 95.74 94.59 96.50 C 94.88 97.26 95.73 97.65 96.49 97.36 Z M 97.39 97.02 L 98.37 96.67 C 99.14 96.39 99.53 95.54 99.25 94.77 C 98.97 94.01 98.12 93.61 97.36 93.89 L 96.38 94.25 C 95.61 94.53 95.22 95.38 95.50 96.15 C 95.78 96.91 96.63 97.30 97.39 97.02 Z M 98.35 96.67 L 99.25 96.36 C 100.02 96.09 100.42 95.25 100.15 94.48 C 99.88 93.71 99.04 93.30 98.27 93.57 L 97.38 93.89 C 96.61 94.16 96.20 95.00 96.47 95.77 C 96.74 96.54 97.58 96.94 98.35 96.67 Z M 99.22 96.37 L 100.17 96.06 C 100.94 95.81 101.37 94.97 101.11 94.20 C 100.86 93.42 100.02 93.00 99.25 93.25 L 98.30 93.56 C 97.52 93.82 97.10 94.65 97.35 95.43 C 97.61 96.20 98.44 96.63 99.22 96.37 Z M 100.13 96.07 L 101.08 95.79 C 101.86 95.56 102.31 94.74 102.07 93.95 C 101.84 93.17 101.02 92.72 100.24 92.96 L 99.29 93.24 C 98.50 93.47 98.06 94.30 98.29 95.08 C 98.52 95.86 99.35 96.31 100.13 96.07 Z M 101.03 95.81 L 101.98 95.56 C 102.77 95.35 103.24 94.54 103.04 93.75 C 102.83 92.96 102.02 92.49 101.23 92.69 L 100.28 92.94 C 99.49 93.15 99.02 93.96 99.23 94.75 C 99.43 95.54 100.24 96.01 101.03 95.81 Z M 101.94 95.57 L 102.91 95.34 C 103.71 95.15 104.21 94.36 104.02 93.56 C 103.84 92.77 103.04 92.27 102.24 92.46 L 101.27 92.68 C 100.47 92.87 99.98 93.66 100.16 94.46 C 100.35 95.26 101.14 95.75 101.94 95.57 Z M 102.88 95.35 L 103.82 95.15 C 104.62 94.98 105.13 94.20 104.96 93.40 C 104.79 92.60 104.01 92.08 103.21 92.25 L 102.27 92.45 C 101.47 92.62 100.96 93.40 101.13 94.20 C 101.30 95.00 102.08 95.52 102.88 95.35 Z M 103.78 95.16 L 104.73 94.98 C 105.54 94.83 106.07 94.06 105.92 93.26 C 105.77 92.45 105.00 91.92 104.19 92.07 L 103.24 92.24 C 102.44 92.39 101.90 93.17 102.05 93.97 C 102.20 94.78 102.98 95.31 103.78 95.16 Z M 104.69 94.99 L 105.76 94.83 C 106.57 94.70 107.13 93.94 107.00 93.13 C 106.88 92.32 106.12 91.77 105.31 91.89 L 104.24 92.06 C 103.43 92.18 102.87 92.94 103.00 93.75 C 103.12 94.56 103.88 95.12 104.69 94.99 Z M 105.72 94.83 L 106.68 94.71 C 107.50 94.61 108.07 93.86 107.97 93.05 C 107.86 92.24 107.12 91.66 106.31 91.77 L 105.35 91.89 C 104.53 91.99 103.96 92.74 104.06 93.55 C 104.17 94.36 104.91 94.94 105.72 94.83 Z M 106.66 94.71 L 107.67 94.60 C 108.49 94.51 109.08 93.78 108.99 92.96 C 108.90 92.15 108.16 91.56 107.35 91.65 L 106.33 91.76 C 105.52 91.85 104.93 92.59 105.02 93.40 C 105.11 94.22 105.84 94.80 106.66 94.71 Z M 107.65 94.60 L 108.67 94.51 C 109.48 94.43 110.08 93.70 110.00 92.89 C 109.93 92.07 109.20 91.47 108.38 91.55 L 107.37 91.65 C 106.55 91.72 105.95 92.45 106.03 93.27 C 106.11 94.08 106.83 94.68 107.65 94.60 Z M 108.64 94.51 L 109.73 94.42 C 110.55 94.36 111.16 93.64 111.09 92.82 C 111.02 92.00 110.31 91.39 109.49 91.46 L 108.41 91.55 C 107.59 91.61 106.98 92.33 107.04 93.15 C 107.11 93.97 107.83 94.58 108.64 94.51 Z M 109.71 94.43 L 110.71 94.36 C 111.53 94.30 112.15 93.60 112.10 92.78 C 112.05 91.96 111.34 91.34 110.52 91.39 L 109.51 91.46 C 108.69 91.51 108.07 92.22 108.12 93.04 C 108.18 93.86 108.89 94.48 109.71 94.43 Z M 110.70 94.36 L 111.61 94.31 C 112.43 94.27 113.06 93.57 113.01 92.75 C 112.97 91.93 112.27 91.30 111.45 91.34 L 110.54 91.39 C 109.71 91.43 109.09 92.13 109.13 92.95 C 109.17 93.78 109.88 94.40 110.70 94.36 Z M 111.59 94.31 L 112.65 94.27 C 113.48 94.23 114.11 93.53 114.08 92.71 C 114.04 91.89 113.34 91.26 112.52 91.29 L 111.46 91.34 C 110.64 91.38 110.00 92.07 110.04 92.89 C 110.07 93.71 110.77 94.35 111.59 94.31 Z M 112.65 94.27 L 113.58 94.23 C 114.40 94.20 115.04 93.50 115.00 92.68 C 114.97 91.86 114.28 91.22 113.46 91.25 L 112.53 91.29 C 111.71 91.32 111.07 92.02 111.10 92.84 C 111.13 93.66 111.83 94.30 112.65 94.27 Z M 113.58 94.23 L 114.58 94.19 C 115.40 94.15 116.04 93.46 116.01 92.64 C 115.97 91.81 115.28 91.18 114.45 91.21 L 113.45 91.25 C 112.63 91.29 111.99 91.98 112.03 92.81 C 112.06 93.63 112.76 94.26 113.58 94.23 Z M 114.56 94.19 L 115.55 94.16 C 116.38 94.14 117.02 93.45 117.00 92.63 C 116.98 91.80 116.29 91.16 115.47 91.18 L 114.48 91.21 C 113.65 91.23 113.00 91.92 113.03 92.74 C 113.05 93.56 113.74 94.21 114.56 94.19 Z M 115.52 94.16 L 116.52 94.15 C 117.35 94.15 118.01 93.48 118.00 92.65 C 118.00 91.83 117.32 91.17 116.50 91.17 L 115.50 91.18 C 114.68 91.19 114.01 91.86 114.02 92.68 C 114.03 93.50 114.70 94.17 115.52 94.16 Z M 116.51 94.15 L 117.51 94.15 C 118.33 94.15 119.00 93.49 119.00 92.66 C 119.00 91.84 118.33 91.17 117.51 91.17 L 116.51 91.17 C 115.69 91.17 115.02 91.84 115.02 92.66 C 115.02 93.49 115.69 94.15 116.51 94.15 Z M 117.51 94.16 L 118.51 94.16 C 119.34 94.16 120.00 93.49 120.00 92.66 C 120.00 91.84 119.34 91.17 118.51 91.17 L 117.51 91.17 C 116.69 91.17 116.02 91.84 116.02 92.66 C 116.02 93.49 116.69 94.16 117.51 94.16 Z M 118.51 94.16 L 119.51 94.16 C 120.34 94.16 121.01 93.49 121.01 92.66 C 121.01 91.84 120.34 91.17 119.51 91.17 L 118.51 91.17 C 117.69 91.17 117.02 91.84 117.02 92.66 C 117.02 93.49 117.69 94.16 118.51 94.16 Z M 119.51 94.16 L 120.51 94.16 C 121.34 94.16 122.01 93.49 122.01 92.66 C 122.01 91.84 121.34 91.17 120.51 91.17 L 119.51 91.17 C 118.69 91.17 118.02 91.84 118.02 92.66 C 118.02 93.49 118.69 94.16 119.51 94.16 Z M 120.51 94.16 L 121.50 94.16 C 122.32 94.16 122.99 93.49 122.99 92.66 C 122.99 91.84 122.32 91.17 121.50 91.17 L 120.51 91.17 C 119.69 91.17 119.02 91.84 119.02 92.66 C 119.02 93.49 119.69 94.16 120.51 94.16 Z M 121.50 94.16 L 122.51 94.16 C 123.34 94.16 124.01 93.49 124.01 92.66 C 124.01 91.84 123.34 91.17 122.51 91.17 L 121.50 91.17 C 120.67 91.17 120.01 91.84 120.01 92.66 C 120.01 93.49 120.67 94.16 121.50 94.16 Z M 122.51 94.16 L 123.52 94.16 C 124.34 94.16 125.01 93.49 125.01 92.66 C 125.01 91.84 124.34 91.17 123.52 91.17 L 122.51 91.17 C 121.69 91.17 121.02 91.84 121.02 92.66 C 121.02 93.49 121.69 94.16 122.51 94.16 Z M 123.52 94.16 L 124.52 94.16 C 125.35 94.16 126.02 93.49 126.02 92.66 C 126.02 91.84 125.35 91.17 124.52 91.17 L 123.52 91.17 C 122.69 91.17 122.02 91.84 122.02 92.66 C 122.02 93.49 122.69 94.16 123.52 94.16 Z M 124.52 94.16 L 125.53 94.16 C 126.36 94.16 127.03 93.49 127.03 92.66 C 127.03 91.84 126.36 91.17 125.53 91.17 L 124.52 91.17 C 123.70 91.17 123.03 91.84 123.03 92.66 C 123.03 93.49 123.70 94.16 124.52 94.16 Z M 125.53 94.16 L 126.52 94.16 C 127.34 94.16 128.01 93.49 128.01 92.66 C 128.01 91.84 127.34 91.17 126.52 91.17 L 125.53 91.17 C 124.71 91.17 124.04 91.84 124.04 92.66 C 124.04 93.49 124.71 94.16 125.53 94.16 Z M 126.52 94.16 L 127.51 94.16 C 128.34 94.16 129.01 93.49 129.01 92.66 C 129.01 91.84 128.34 91.17 127.51 91.17 L 126.52 91.17 C 125.69 91.17 125.02 91.84 125.02 92.66 C 125.02 93.49 125.69 94.16 126.52 94.16 Z M 127.51 94.16 L 128.51 94.16 C 129.33 94.16 130.00 93.49 130.00 92.66 C 130.00 91.84 129.33 91.17 128.51 91.17 L 127.51 91.17 C 126.69 91.17 126.02 91.84 126.02 92.66 C 126.02 93.49 126.69 94.16 127.51 94.16 Z M 128.51 94.16 L 129.51 94.16 C 130.34 94.16 131.01 93.49 131.01 92.66 C 131.01 91.84 130.34 91.17 129.51 91.17 L 128.51 91.17 C 127.68 91.17 127.01 91.84 127.01 92.66 C 127.01 93.49 127.68 94.16 128.51 94.16 Z M 129.51 94.16 L 130.51 94.16 C 131.33 94.16 132.00 93.49 132.00 92.67 C 132.00 91.84 131.34 91.17 130.51 91.17 L 129.52 91.17 C 128.69 91.17 128.02 91.84 128.02 92.66 C 128.02 93.49 128.69 94.16 129.51 94.16 Z M 130.49 94.16 L 131.49 94.17 C 132.31 94.18 132.99 93.52 133.00 92.70 C 133.02 91.87 132.36 91.20 131.53 91.18 L 130.53 91.17 C 129.71 91.16 129.03 91.82 129.02 92.64 C 129.00 93.47 129.66 94.15 130.49 94.16 Z M 131.46 94.17 L 132.43 94.20 C 133.26 94.23 133.95 93.58 133.97 92.76 C 134.00 91.93 133.35 91.24 132.53 91.22 L 131.56 91.19 C 130.73 91.16 130.04 91.81 130.02 92.63 C 129.99 93.46 130.64 94.15 131.46 94.17 Z M 132.44 94.20 L 133.47 94.23 C 134.29 94.25 134.98 93.60 135.00 92.78 C 135.02 91.95 134.37 91.26 133.55 91.24 L 132.52 91.22 C 131.69 91.19 131.01 91.84 130.99 92.67 C 130.96 93.49 131.61 94.18 132.44 94.20 Z M 133.49 94.23 L 134.49 94.24 C 135.31 94.25 135.99 93.59 136.00 92.76 C 136.01 91.94 135.35 91.26 134.52 91.25 L 133.52 91.24 C 132.70 91.23 132.02 91.89 132.01 92.72 C 132.00 93.54 132.66 94.22 133.49 94.23 Z M 134.49 94.24 L 135.50 94.25 C 136.32 94.26 137.00 93.60 137.01 92.77 C 137.02 91.95 136.35 91.27 135.53 91.26 L 134.52 91.25 C 133.69 91.25 133.02 91.91 133.01 92.73 C 133.00 93.56 133.66 94.23 134.49 94.24 Z M 135.48 94.25 L 136.49 94.27 C 137.32 94.29 138.00 93.63 138.02 92.81 C 138.03 91.98 137.38 91.30 136.55 91.28 L 135.54 91.26 C 134.72 91.25 134.04 91.90 134.02 92.73 C 134.00 93.55 134.66 94.24 135.48 94.25 Z M 136.49 94.27 L 137.48 94.29 C 138.31 94.31 138.99 93.66 139.01 92.83 C 139.02 92.01 138.37 91.32 137.54 91.31 L 136.55 91.28 C 135.73 91.27 135.05 91.92 135.03 92.75 C 135.01 93.57 135.67 94.25 136.49 94.27 Z M 137.50 94.29 L 138.48 94.30 C 139.31 94.31 139.98 93.65 139.99 92.82 C 140.00 92.00 139.34 91.32 138.51 91.32 L 137.53 91.31 C 136.70 91.30 136.03 91.96 136.02 92.78 C 136.01 93.61 136.67 94.28 137.50 94.29 Z M 138.50 94.30 L 139.50 94.30 C 140.33 94.31 141.00 93.64 141.00 92.81 C 141.00 91.99 140.34 91.32 139.51 91.32 L 138.50 91.32 C 137.68 91.31 137.01 91.98 137.00 92.81 C 137.00 93.63 137.67 94.30 138.50 94.30 Z M 139.51 94.30 L 140.51 94.30 C 141.33 94.30 142.00 93.64 142.00 92.81 C 142.00 91.99 141.33 91.32 140.51 91.32 L 139.51 91.32 C 138.68 91.32 138.01 91.99 138.01 92.81 C 138.01 93.64 138.68 94.30 139.51 94.30 Z M 140.51 94.30 L 141.51 94.30 C 142.33 94.30 143.00 93.64 143.00 92.81 C 143.00 91.99 142.33 91.32 141.51 91.32 L 140.51 91.32 C 139.68 91.32 139.01 91.99 139.01 92.81 C 139.01 93.64 139.68 94.30 140.51 94.30 Z M 141.51 94.30 L 142.50 94.30 C 143.32 94.30 143.99 93.64 143.99 92.81 C 143.99 91.99 143.32 91.32 142.50 91.32 L 141.51 91.32 C 140.68 91.32 140.02 91.99 140.02 92.81 C 140.02 93.64 140.68 94.30 141.51 94.30 Z M 142.50 94.30 L 143.49 94.30 C 144.32 94.30 144.99 93.64 144.99 92.81 C 144.99 91.99 144.32 91.32 143.49 91.32 L 142.50 91.32 C 141.68 91.32 141.01 91.99 141.01 92.81 C 141.01 93.64 141.68 94.30 142.50 94.30 Z M 143.49 94.30 L 144.51 94.30 C 145.34 94.30 146.01 93.64 146.01 92.81 C 146.01 91.99 145.34 91.32 144.51 91.32 L 143.49 91.32 C 142.67 91.32 142.00 91.99 142.00 92.81 C 142.00 93.64 142.67 94.30 143.49 94.30 Z M 144.51 94.30 L 145.53 94.30 C 146.35 94.30 147.02 93.64 147.02 92.81 C 147.02 91.99 146.35 91.32 145.53 91.32 L 144.51 91.32 C 143.69 91.32 143.02 91.99 143.02 92.81 C 143.02 93.64 143.69 94.30 144.51 94.30 Z M 145.53 94.30 L 146.52 94.30 C 147.34 94.30 148.01 93.64 148.01 92.81 C 148.01 91.99 147.34 91.32 146.52 91.32 L 145.53 91.32 C 144.70 91.32 144.04 91.99 144.04 92.81 C 144.04 93.64 144.70 94.30 145.53 94.30 Z M 146.52 94.30 L 147.54 94.30 C 148.37 94.30 149.03 93.64 149.03 92.81 C 149.03 91.99 148.37 91.32 147.54 91.32 L 146.52 91.32 C 145.69 91.32 145.03 91.99 145.03 92.81 C 145.03 93.64 145.69 94.30 146.52 94.30 Z M 147.54 94.30 L 148.52 94.30 C 149.34 94.30 150.01 93.64 150.01 92.81 C 150.01 91.99 149.34 91.32 148.52 91.32 L 147.54 91.32 C 146.72 91.32 146.05 91.99 146.05 92.81 C 146.05 93.64 146.72 94.30 147.54 94.30 Z M 148.52 94.30 L 149.51 94.30 C 150.33 94.30 151.00 93.63 151.00 92.81 C 151.00 91.99 150.33 91.32 149.51 91.32 L 148.52 91.32 C 147.70 91.32 147.03 91.99 147.03 92.81 C 147.03 93.63 147.70 94.30 148.52 94.30 Z M 149.51 94.30 L 150.51 94.30 C 151.33 94.30 152.00 93.63 152.00 92.81 C 152.00 91.99 151.33 91.32 150.51 91.32 L 149.51 91.32 C 148.68 91.32 148.02 91.99 148.02 92.81 C 148.02 93.63 148.68 94.30 149.51 94.30 Z M 150.51 94.30 L 151.51 94.30 C 152.34 94.30 153.00 93.63 153.00 92.81 C 153.00 91.99 152.34 91.32 151.51 91.32 L 150.51 91.32 C 149.69 91.32 149.02 91.99 149.02 92.81 C 149.02 93.63 149.69 94.30 150.51 94.30 Z M 151.51 94.30 L 152.51 94.30 C 153.34 94.30 154.00 93.63 154.00 92.81 C 154.00 91.99 153.34 91.32 152.51 91.32 L 151.51 91.32 C 150.69 91.32 150.02 91.99 150.02 92.81 C 150.02 93.63 150.69 94.30 151.51 94.30 Z M 152.51 94.30 L 153.51 94.30 C 154.34 94.30 155.00 93.63 155.00 92.81 C 155.00 91.99 154.34 91.32 153.51 91.32 L 152.51 91.32 C 151.69 91.32 151.02 91.99 151.02 92.81 C 151.02 93.63 151.69 94.30 152.51 94.30 Z M 153.51 94.30 L 154.51 94.30 C 155.34 94.30 156.00 93.63 156.00 92.81 C 156.00 91.99 155.34 91.32 154.51 91.32 L 153.51 91.32 C 152.69 91.32 152.02 91.99 152.02 92.81 C 152.02 93.63 152.69 94.30 153.51 94.30 Z M 154.51 94.30 L 155.49 94.30 C 156.32 94.30 156.98 93.63 156.98 92.81 C 156.98 91.99 156.32 91.32 155.49 91.32 L 154.51 91.32 C 153.69 91.32 153.02 91.99 153.02 92.81 C 153.02 93.63 153.69 94.30 154.51 94.30 Z M 155.49 94.30 L 156.48 94.30 C 157.30 94.30 157.97 93.63 157.97 92.81 C 157.97 91.99 157.30 91.32 156.48 91.32 L 155.49 91.32 C 154.67 91.32 154.00 91.99 154.00 92.81 C 154.00 93.63 154.67 94.30 155.49 94.30 Z M 156.48 94.30 L 157.50 94.30 C 158.32 94.30 158.99 93.63 158.99 92.81 C 158.99 91.99 158.32 91.32 157.50 91.32 L 156.48 91.32 C 155.66 91.32 154.99 91.99 154.99 92.81 C 154.99 93.63 155.66 94.30 156.48 94.30 Z M 157.50 94.30 L 158.50 94.30 C 159.33 94.30 160.00 93.63 160.00 92.81 C 160.00 91.99 159.33 91.32 158.50 91.32 L 157.50 91.32 C 156.68 91.32 156.01 91.99 156.01 92.81 C 156.01 93.63 156.68 94.30 157.50 94.30 Z M 158.50 94.30 L 159.51 94.30 C 160.34 94.30 161.00 93.63 161.00 92.81 C 161.00 91.99 160.34 91.32 159.51 91.32 L 158.50 91.32 C 157.68 91.32 157.01 91.99 157.01 92.81 C 157.01 93.63 157.68 94.30 158.50 94.30 Z M 159.51 94.30 L 160.53 94.30 C 161.35 94.30 162.02 93.63 162.02 92.81 C 162.02 91.99 161.35 91.32 160.53 91.32 L 159.51 91.32 C 158.69 91.32 158.02 91.99 158.02 92.81 C 158.02 93.63 158.69 94.30 159.51 94.30 Z M 160.53 94.30 L 161.52 94.30 C 162.34 94.30 163.01 93.63 163.01 92.81 C 163.01 91.99 162.34 91.32 161.52 91.32 L 160.53 91.32 C 159.70 91.32 159.04 91.99 159.04 92.81 C 159.04 93.63 159.70 94.30 160.53 94.30 Z M 161.52 94.30 L 162.50 94.30 C 163.33 94.30 164.00 93.63 164.00 92.81 C 164.00 91.99 163.33 91.32 162.50 91.32 L 161.52 91.32 C 160.69 91.32 160.03 91.99 160.03 92.81 C 160.03 93.63 160.69 94.30 161.52 94.30 Z M 162.51 94.30 L 163.51 94.30 C 164.33 94.30 165.00 93.63 165.00 92.80 C 164.99 91.98 164.32 91.31 163.50 91.32 L 162.50 91.32 C 161.68 91.32 161.01 91.99 161.01 92.82 C 161.02 93.64 161.69 94.30 162.51 94.30 Z M 163.52 94.30 L 164.53 94.29 C 165.35 94.28 166.01 93.61 166.00 92.78 C 165.99 91.96 165.32 91.30 164.50 91.31 L 163.49 91.32 C 162.67 91.33 162.01 92.00 162.01 92.82 C 162.02 93.65 162.70 94.31 163.52 94.30 Z M 164.55 94.29 L 165.54 94.27 C 166.37 94.25 167.02 93.57 167.00 92.74 C 166.98 91.92 166.30 91.27 165.48 91.28 L 164.48 91.31 C 163.66 91.33 163.00 92.01 163.02 92.83 C 163.04 93.65 163.72 94.31 164.55 94.29 Z M 165.57 94.26 L 166.57 94.23 C 167.39 94.20 168.03 93.51 168.00 92.68 C 167.97 91.86 167.28 91.22 166.46 91.25 L 165.46 91.29 C 164.63 91.32 163.99 92.01 164.02 92.83 C 164.05 93.65 164.74 94.30 165.57 94.26 Z M 166.59 94.23 L 167.60 94.17 C 168.42 94.13 169.05 93.42 169.00 92.60 C 168.96 91.78 168.26 91.15 167.43 91.19 L 166.43 91.25 C 165.61 91.29 164.98 92.00 165.02 92.82 C 165.07 93.64 165.77 94.27 166.59 94.23 Z M 167.62 94.17 L 168.62 94.10 C 169.44 94.04 170.06 93.33 170.00 92.50 C 169.94 91.68 169.23 91.07 168.41 91.12 L 167.41 91.20 C 166.59 91.25 165.97 91.97 166.03 92.79 C 166.09 93.61 166.80 94.23 167.62 94.17 Z M 168.64 94.10 L 169.63 94.01 C 170.45 93.94 171.06 93.22 170.99 92.40 C 170.91 91.58 170.19 90.97 169.37 91.04 L 168.39 91.13 C 167.57 91.20 166.96 91.92 167.03 92.74 C 167.10 93.56 167.82 94.17 168.64 94.10 Z M 169.64 94.01 L 170.63 93.92 C 171.45 93.84 172.05 93.11 171.97 92.30 C 171.90 91.48 171.17 90.87 170.35 90.95 L 169.36 91.04 C 168.54 91.12 167.94 91.84 168.02 92.66 C 168.09 93.48 168.82 94.09 169.64 94.01 Z M 170.61 93.92 L 171.62 93.83 C 172.44 93.76 173.05 93.04 172.98 92.22 C 172.91 91.40 172.19 90.79 171.37 90.86 L 170.36 90.95 C 169.54 91.02 168.93 91.74 169.00 92.56 C 169.07 93.38 169.79 93.99 170.61 93.92 Z M 171.60 93.83 L 172.62 93.76 C 173.44 93.70 174.06 92.99 174.00 92.17 C 173.94 91.35 173.23 90.73 172.41 90.79 L 171.39 90.86 C 170.57 90.92 169.95 91.63 170.01 92.45 C 170.07 93.27 170.78 93.89 171.60 93.83 Z M 172.61 93.76 L 173.60 93.70 C 174.42 93.65 175.04 92.94 174.99 92.12 C 174.94 91.29 174.23 90.67 173.41 90.72 L 172.42 90.79 C 171.59 90.84 170.97 91.55 171.02 92.37 C 171.08 93.19 171.79 93.82 172.61 93.76 Z M 173.61 93.70 L 174.63 93.63 C 175.45 93.57 176.08 92.86 176.02 92.04 C 175.96 91.22 175.25 90.60 174.43 90.65 L 173.40 90.72 C 172.58 90.78 171.96 91.49 172.02 92.31 C 172.07 93.14 172.78 93.76 173.61 93.70 Z M 174.64 93.63 L 175.61 93.55 C 176.44 93.49 177.05 92.78 176.99 91.96 C 176.93 91.13 176.21 90.52 175.39 90.58 L 174.42 90.65 C 173.60 90.72 172.98 91.43 173.04 92.25 C 173.11 93.07 173.82 93.69 174.64 93.63 Z M 175.62 93.55 L 176.60 93.48 C 177.43 93.41 178.04 92.69 177.97 91.87 C 177.91 91.05 177.19 90.44 176.37 90.50 L 175.38 90.58 C 174.56 90.65 173.95 91.36 174.02 92.19 C 174.08 93.01 174.80 93.62 175.62 93.55 Z M 176.61 93.48 L 177.60 93.39 C 178.42 93.33 179.03 92.61 178.97 91.79 C 178.90 90.96 178.18 90.35 177.36 90.42 L 176.36 90.50 C 175.54 90.57 174.93 91.29 175.00 92.11 C 175.07 92.93 175.79 93.54 176.61 93.48 Z M 177.61 93.39 L 178.61 93.31 C 179.43 93.24 180.04 92.51 179.97 91.69 C 179.90 90.87 179.17 90.27 178.35 90.34 L 177.35 90.42 C 176.53 90.49 175.92 91.22 176.00 92.04 C 176.07 92.86 176.79 93.46 177.61 93.39 Z M 178.59 93.31 L 179.59 93.23 C 180.41 93.17 181.02 92.45 180.96 91.63 C 180.90 90.81 180.18 90.20 179.36 90.26 L 178.37 90.34 C 177.55 90.40 176.93 91.11 177.00 91.93 C 177.06 92.75 177.77 93.37 178.59 93.31 Z M 179.55 93.23 L 180.55 93.18 C 181.37 93.14 182.01 92.44 181.96 91.62 C 181.92 90.80 181.22 90.16 180.40 90.21 L 179.40 90.26 C 178.57 90.30 177.94 91.00 177.99 91.82 C 178.03 92.65 178.73 93.28 179.55 93.23 Z M 180.54 93.18 L 181.52 93.14 C 182.34 93.11 182.98 92.41 182.95 91.59 C 182.91 90.77 182.22 90.13 181.40 90.17 L 180.41 90.21 C 179.59 90.24 178.95 90.94 178.99 91.76 C 179.02 92.58 179.72 93.22 180.54 93.18 Z M 181.53 93.14 L 182.51 93.10 C 183.33 93.06 183.96 92.36 183.93 91.54 C 183.89 90.72 183.20 90.09 182.37 90.12 L 181.39 90.17 C 180.57 90.20 179.94 90.90 179.97 91.72 C 180.01 92.54 180.70 93.18 181.53 93.14 Z M 182.50 93.10 L 183.52 93.05 C 184.34 93.02 184.98 92.32 184.95 91.50 C 184.91 90.68 184.22 90.04 183.40 90.08 L 182.38 90.12 C 181.56 90.16 180.92 90.85 180.95 91.67 C 180.99 92.49 181.68 93.13 182.50 93.10 Z M 183.51 93.05 L 184.52 93.02 C 185.34 92.99 185.98 92.30 185.95 91.48 C 185.93 90.66 185.24 90.01 184.41 90.04 L 183.41 90.08 C 182.58 90.11 181.94 90.80 181.97 91.62 C 182.00 92.44 182.69 93.08 183.51 93.05 Z M 184.50 93.02 L 185.52 92.99 C 186.34 92.97 186.99 92.29 186.97 91.47 C 186.95 90.65 186.27 90.00 185.45 90.02 L 184.43 90.04 C 183.61 90.06 182.96 90.74 182.98 91.57 C 183.00 92.39 183.68 93.04 184.50 93.02 Z M 185.49 92.99 L 186.49 92.98 C 187.31 92.98 187.97 92.31 187.97 91.49 C 187.96 90.66 187.29 90.00 186.47 90.01 L 185.47 90.02 C 184.65 90.03 183.99 90.70 183.99 91.52 C 184.00 92.34 184.67 93.00 185.49 92.99 Z M 186.48 92.98 L 187.47 92.98 C 188.29 92.98 188.95 92.32 188.95 91.50 C 188.95 90.68 188.29 90.01 187.47 90.01 L 186.48 90.01 C 185.66 90.01 185.00 90.68 185.00 91.50 C 185.00 92.32 185.66 92.98 186.48 92.98 Z M 187.47 92.98 L 188.47 92.98 C 189.29 92.98 189.95 92.32 189.95 91.50 C 189.95 90.68 189.29 90.01 188.47 90.01 L 187.47 90.01 C 186.65 90.01 185.98 90.68 185.98 91.50 C 185.98 92.32 186.65 92.98 187.47 92.98 Z M 188.47 92.98 L 189.47 92.98 C 190.29 92.98 190.96 92.32 190.96 91.50 C 190.96 90.68 190.29 90.01 189.47 90.01 L 188.47 90.01 C 187.65 90.01 186.98 90.68 186.98 91.50 C 186.98 92.32 187.65 92.98 188.47 92.98 Z M 189.47 92.98 L 190.47 92.98 C 191.29 92.98 191.95 92.32 191.95 91.50 C 191.95 90.68 191.29 90.01 190.47 90.01 L 189.47 90.01 C 188.65 90.01 187.99 90.68 187.99 91.50 C 187.99 92.32 188.65 92.98 189.47 92.98 Z M 190.47 92.98 L 191.47 92.98 C 192.29 92.98 192.96 92.32 192.96 91.50 C 192.96 90.68 192.29 90.01 191.47 90.01 L 190.47 90.01 C 189.65 90.01 188.99 90.68 188.99 91.50 C 188.99 92.32 189.65 92.98 190.47 92.98 Z M 191.47 92.98 L 192.47 92.98 C 193.29 92.98 193.95 92.32 193.95 91.50 C 193.95 90.68 193.29 90.01 192.47 90.01 L 191.47 90.01 C 190.65 90.01 189.99 90.68 189.99 91.50 C 189.99 92.32 190.65 92.98 191.47 92.98 Z M 192.47 92.98 L 193.46 92.98 C 194.28 92.98 194.94 92.32 194.94 91.50 C 194.94 90.68 194.28 90.01 193.46 90.01 L 192.47 90.01 C 191.65 90.01 190.99 90.68 190.99 91.50 C 190.99 92.32 191.65 92.98 192.47 92.98 Z M 193.46 92.98 L 194.47 92.98 C 195.29 92.98 195.95 92.32 195.95 91.50 C 195.95 90.68 195.29 90.01 194.47 90.01 L 193.46 90.01 C 192.64 90.01 191.97 90.68 191.97 91.50 C 191.97 92.32 192.64 92.98 193.46 92.98 Z M 194.47 92.98 L 195.40 92.98 C 196.22 92.98 196.89 92.32 196.89 91.50 C 196.89 90.68 196.22 90.01 195.40 90.01 L 194.47 90.01 C 193.65 90.01 192.98 90.68 192.98 91.50 C 192.98 92.32 193.65 92.98 194.47 92.98 Z M 195.40 92.98 L 196.45 92.98 C 197.27 92.98 197.93 92.32 197.93 91.50 C 197.93 90.68 197.27 90.01 196.45 90.01 L 195.40 90.01 C 194.58 90.01 193.92 90.68 193.92 91.50 C 193.92 92.32 194.58 92.98 195.40 92.98 Z M 196.45 92.98 L 197.43 92.98 C 198.25 92.98 198.92 92.32 198.92 91.50 C 198.92 90.68 198.25 90.01 197.43 90.01 L 196.45 90.01 C 195.63 90.01 194.96 90.68 194.96 91.50 C 194.96 92.32 195.63 92.98 196.45 92.98 Z M 197.43 92.98 L 198.45 92.99 C 199.26 92.99 199.93 92.33 199.94 91.51 C 199.94 90.69 199.28 90.02 198.46 90.02 L 197.44 90.01 C 196.62 90.01 195.95 90.67 195.95 91.49 C 195.95 92.31 196.61 92.98 197.43 92.98 Z M 198.43 92.99 L 199.46 93.00 C 200.28 93.01 200.95 92.35 200.96 91.53 C 200.97 90.71 200.32 90.04 199.50 90.03 L 198.47 90.02 C 197.65 90.01 196.98 90.66 196.97 91.48 C 196.96 92.30 197.61 92.97 198.43 92.99 Z M 199.44 93.00 L 200.46 93.02 C 201.28 93.04 201.96 92.40 201.98 91.58 C 202.00 90.76 201.35 90.08 200.53 90.06 L 199.51 90.03 C 198.70 90.01 198.01 90.66 197.99 91.48 C 197.97 92.30 198.62 92.98 199.44 93.00 Z M 200.44 93.02 L 201.42 93.06 C 202.24 93.09 202.93 92.45 202.96 91.64 C 202.99 90.82 202.35 90.13 201.53 90.10 L 200.55 90.06 C 199.73 90.03 199.04 90.66 199.01 91.48 C 198.98 92.30 199.62 92.99 200.44 93.02 Z M 201.40 93.06 L 202.40 93.11 C 203.22 93.15 203.91 92.52 203.95 91.70 C 203.99 90.88 203.36 90.19 202.55 90.15 L 201.55 90.10 C 200.73 90.06 200.04 90.69 199.99 91.50 C 199.95 92.32 200.58 93.02 201.40 93.06 Z M 202.38 93.11 L 203.38 93.17 C 204.19 93.22 204.90 92.60 204.95 91.78 C 205.00 90.97 204.38 90.26 203.56 90.21 L 202.56 90.15 C 201.75 90.10 201.04 90.72 200.99 91.54 C 200.94 92.35 201.56 93.06 202.38 93.11 Z M 203.36 93.17 L 204.34 93.25 C 205.15 93.31 205.87 92.70 205.93 91.88 C 205.99 91.07 205.38 90.35 204.57 90.29 L 203.59 90.21 C 202.77 90.15 202.05 90.76 201.99 91.58 C 201.93 92.39 202.54 93.11 203.36 93.17 Z M 204.29 93.24 L 205.26 93.35 C 206.08 93.43 206.81 92.84 206.90 92.03 C 206.98 91.21 206.39 90.48 205.58 90.39 L 204.61 90.29 C 203.79 90.21 203.06 90.80 202.98 91.61 C 202.89 92.43 203.48 93.16 204.29 93.24 Z M 205.18 93.33 L 206.19 93.50 C 207.00 93.63 207.76 93.08 207.89 92.27 C 208.03 91.46 207.48 90.70 206.67 90.57 L 205.66 90.41 C 204.85 90.27 204.09 90.82 203.96 91.63 C 203.82 92.44 204.37 93.20 205.18 93.33 Z M 206.10 93.48 L 207.08 93.71 C 207.88 93.89 208.68 93.39 208.86 92.59 C 209.04 91.79 208.54 91.00 207.74 90.81 L 206.76 90.59 C 205.96 90.41 205.17 90.90 204.98 91.70 C 204.80 92.50 205.30 93.30 206.10 93.48 Z M 207.04 93.70 L 208.03 93.95 C 208.83 94.15 209.63 93.67 209.84 92.88 C 210.04 92.09 209.56 91.28 208.77 91.08 L 207.78 90.82 C 206.99 90.62 206.18 91.10 205.98 91.89 C 205.77 92.68 206.25 93.49 207.04 93.70 Z M 208.06 93.96 L 209.04 94.18 C 209.83 94.37 210.63 93.88 210.82 93.08 C 211.01 92.28 210.51 91.48 209.71 91.30 L 208.74 91.07 C 207.94 90.88 207.14 91.38 206.96 92.17 C 206.77 92.97 207.26 93.77 208.06 93.96 Z M 209.11 94.20 L 210.15 94.39 C 210.96 94.53 211.73 94.00 211.88 93.19 C 212.02 92.39 211.49 91.61 210.68 91.47 L 209.64 91.28 C 208.83 91.13 208.06 91.67 207.91 92.48 C 207.77 93.28 208.30 94.06 209.11 94.20 Z M 210.14 94.39 L 211.05 94.56 C 211.86 94.72 212.64 94.19 212.79 93.38 C 212.95 92.58 212.42 91.80 211.61 91.64 L 210.69 91.47 C 209.89 91.31 209.11 91.84 208.96 92.65 C 208.80 93.46 209.33 94.23 210.14 94.39 Z M 210.87 94.52 L 211.83 94.83 C 212.61 95.09 213.45 94.67 213.71 93.89 C 213.96 93.11 213.54 92.26 212.76 92.01 L 211.80 91.69 C 211.02 91.43 210.18 91.86 209.92 92.64 C 209.66 93.42 210.08 94.26 210.87 94.52 Z M 211.53 94.70 L 212.37 95.20 C 213.07 95.62 213.99 95.39 214.41 94.68 C 214.83 93.97 214.60 93.05 213.89 92.63 L 213.05 92.14 C 212.34 91.72 211.43 91.95 211.01 92.66 C 210.59 93.37 210.82 94.28 211.53 94.70 Z M 212.08 94.98 L 212.79 95.67 C 213.38 96.25 214.32 96.24 214.90 95.65 C 215.47 95.06 215.46 94.11 214.87 93.53 L 214.17 92.85 C 213.58 92.27 212.63 92.28 212.06 92.87 C 211.48 93.46 211.49 94.41 212.08 94.98 Z M 212.58 95.42 L 213.12 96.26 C 213.57 96.95 214.50 97.15 215.19 96.70 C 215.89 96.25 216.08 95.32 215.63 94.62 L 215.08 93.78 C 214.63 93.09 213.70 92.90 213.01 93.35 C 212.32 93.80 212.12 94.73 212.58 95.42 Z M 213.00 96.03 L 213.38 96.93 C 213.70 97.70 214.59 98.05 215.35 97.73 C 216.11 97.40 216.47 96.52 216.14 95.76 L 215.76 94.86 C 215.43 94.09 214.55 93.74 213.79 94.06 C 213.03 94.38 212.67 95.27 213.00 96.03 Z M 213.32 96.78 L 213.61 97.75 C 213.85 98.54 214.69 98.99 215.49 98.75 C 216.28 98.51 216.73 97.67 216.49 96.88 L 216.20 95.91 C 215.96 95.12 215.12 94.67 214.33 94.91 C 213.53 95.15 213.08 95.99 213.32 96.78 Z M 213.58 97.65 L 213.80 98.57 C 213.98 99.39 214.79 99.89 215.60 99.71 C 216.41 99.52 216.92 98.72 216.73 97.91 L 216.52 96.98 C 216.34 96.17 215.53 95.66 214.72 95.84 C 213.91 96.03 213.40 96.84 213.58 97.65 Z M 213.78 98.49 L 213.95 99.52 C 214.08 100.34 214.86 100.90 215.68 100.76 C 216.50 100.63 217.06 99.85 216.92 99.03 L 216.75 97.99 C 216.62 97.17 215.84 96.62 215.02 96.75 C 214.20 96.89 213.64 97.66 213.78 98.49 Z M 213.94 99.45 L 214.05 100.46 C 214.15 101.29 214.90 101.89 215.73 101.79 C 216.55 101.69 217.15 100.94 217.05 100.12 L 216.93 99.10 C 216.84 98.27 216.09 97.68 215.26 97.78 C 214.43 97.87 213.84 98.62 213.94 99.45 Z M 214.05 100.42 L 214.13 101.44 C 214.21 102.28 214.94 102.89 215.77 102.82 C 216.60 102.75 217.22 102.02 217.15 101.18 L 217.06 100.16 C 216.99 99.33 216.25 98.71 215.42 98.78 C 214.59 98.86 213.97 99.59 214.05 100.42 Z M 214.13 101.42 L 214.19 102.39 C 214.25 103.22 214.97 103.85 215.81 103.80 C 216.64 103.74 217.27 103.02 217.22 102.19 L 217.15 101.21 C 217.10 100.38 216.37 99.75 215.54 99.80 C 214.70 99.86 214.07 100.58 214.13 101.42 Z M 214.19 102.36 L 214.25 103.42 C 214.29 104.26 215.00 104.90 215.84 104.86 C 216.67 104.81 217.32 104.10 217.27 103.27 L 217.22 102.21 C 217.18 101.37 216.46 100.73 215.63 100.77 C 214.79 100.82 214.15 101.53 214.19 102.36 Z M 214.24 103.39 L 214.27 104.34 C 214.30 105.18 215.00 105.84 215.84 105.81 C 216.67 105.78 217.33 105.08 217.31 104.25 L 217.28 103.30 C 217.25 102.46 216.55 101.80 215.71 101.83 C 214.88 101.85 214.22 102.55 214.24 103.39 Z M 214.27 104.31 L 214.28 105.28 C 214.30 106.12 214.98 106.79 215.82 106.78 C 216.66 106.77 217.33 106.08 217.32 105.24 L 217.31 104.27 C 217.30 103.43 216.61 102.76 215.77 102.78 C 214.93 102.79 214.26 103.47 214.27 104.31 Z M 214.28 105.26 L 214.29 106.27 C 214.29 107.11 214.97 107.79 215.81 107.79 C 216.65 107.78 217.33 107.10 217.32 106.26 L 217.32 105.25 C 217.32 104.41 216.64 103.74 215.80 103.74 C 214.96 103.74 214.28 104.42 214.28 105.26 Z M 214.28 106.27 L 214.28 107.26 C 214.28 108.10 214.97 108.78 215.81 108.78 C 216.65 108.78 217.33 108.10 217.33 107.26 L 217.33 106.27 C 217.33 105.43 216.64 104.75 215.81 104.75 C 214.97 104.75 214.28 105.43 214.28 106.27 Z M 214.28 107.26 L 214.28 108.25 C 214.28 109.09 214.97 109.77 215.81 109.77 C 216.65 109.77 217.33 109.09 217.33 108.25 L 217.33 107.26 C 217.33 106.42 216.65 105.74 215.81 105.74 C 214.97 105.74 214.28 106.42 214.28 107.26 Z M 214.28 108.25 L 214.28 109.28 C 214.28 110.12 214.96 110.80 215.81 110.80 C 216.65 110.80 217.33 110.12 217.33 109.28 L 217.33 108.25 C 217.33 107.41 216.65 106.73 215.81 106.73 C 214.96 106.73 214.28 107.41 214.28 108.25 Z M 214.28 109.27 L 214.28 110.27 C 214.28 111.12 214.96 111.80 215.80 111.80 C 216.64 111.80 217.33 111.12 217.33 110.28 L 217.33 109.28 C 217.33 108.44 216.65 107.75 215.81 107.75 C 214.97 107.75 214.28 108.43 214.28 109.27 Z M 214.27 110.26 L 214.26 111.27 C 214.25 112.11 214.93 112.81 215.78 112.82 C 216.62 112.83 217.32 112.15 217.32 111.30 L 217.34 110.29 C 217.34 109.45 216.67 108.75 215.82 108.74 C 214.97 108.73 214.28 109.41 214.27 110.26 Z M 214.25 111.24 L 214.22 112.25 C 214.20 113.10 214.87 113.81 215.72 113.83 C 216.57 113.86 217.28 113.19 217.30 112.34 L 217.33 111.33 C 217.36 110.48 216.69 109.77 215.84 109.75 C 214.99 109.72 214.28 110.39 214.25 111.24 Z M 214.22 112.21 L 214.16 113.21 C 214.12 114.07 214.78 114.80 215.63 114.84 C 216.48 114.89 217.21 114.23 217.26 113.38 L 217.31 112.38 C 217.35 111.52 216.70 110.79 215.85 110.75 C 214.99 110.70 214.26 111.36 214.22 112.21 Z M 214.16 113.17 L 214.08 114.15 C 214.01 115.01 214.65 115.76 215.51 115.83 C 216.37 115.90 217.12 115.26 217.19 114.40 L 217.26 113.42 C 217.33 112.56 216.69 111.81 215.83 111.74 C 214.98 111.67 214.23 112.31 214.16 113.17 Z M 214.07 114.11 L 213.97 115.09 C 213.88 115.95 214.51 116.72 215.37 116.81 C 216.23 116.90 217.00 116.28 217.09 115.42 L 217.19 114.44 C 217.28 113.58 216.66 112.81 215.80 112.72 C 214.94 112.63 214.16 113.25 214.07 114.11 Z M 213.97 115.06 L 213.84 116.05 C 213.73 116.91 214.34 117.70 215.20 117.81 C 216.07 117.92 216.86 117.31 216.97 116.45 L 217.09 115.46 C 217.20 114.59 216.59 113.80 215.73 113.69 C 214.87 113.58 214.08 114.19 213.97 115.06 Z M 213.84 116.02 L 213.69 117.01 C 213.56 117.87 214.16 118.68 215.03 118.80 C 215.89 118.93 216.70 118.33 216.83 117.47 L 216.97 116.48 C 217.10 115.61 216.50 114.81 215.63 114.68 C 214.77 114.55 213.96 115.15 213.84 116.02 Z M 213.68 116.98 L 213.53 117.96 C 213.39 118.83 213.98 119.64 214.85 119.78 C 215.72 119.92 216.54 119.33 216.68 118.46 L 216.83 117.49 C 216.97 116.62 216.38 115.80 215.51 115.66 C 214.64 115.52 213.82 116.11 213.68 116.98 Z M 213.52 117.95 L 213.35 118.95 C 213.21 119.83 213.80 120.65 214.67 120.80 C 215.55 120.94 216.37 120.35 216.52 119.48 L 216.68 118.47 C 216.83 117.60 216.24 116.78 215.36 116.63 C 214.49 116.48 213.67 117.08 213.52 117.95 Z M 213.35 118.95 L 213.19 119.92 C 213.04 120.80 213.64 121.63 214.51 121.77 C 215.39 121.92 216.22 121.32 216.36 120.45 L 216.52 119.48 C 216.67 118.60 216.07 117.77 215.20 117.63 C 214.32 117.48 213.49 118.08 213.35 118.95 Z M 213.18 119.93 L 213.02 120.90 C 212.88 121.78 213.48 122.61 214.36 122.75 C 215.24 122.89 216.07 122.29 216.21 121.41 L 216.37 120.44 C 216.51 119.56 215.91 118.73 215.03 118.59 C 214.15 118.45 213.32 119.05 213.18 119.93 Z M 213.02 120.91 L 212.86 121.93 C 212.73 122.81 213.33 123.64 214.22 123.77 C 215.10 123.91 215.93 123.30 216.06 122.42 L 216.22 121.40 C 216.35 120.52 215.75 119.69 214.86 119.56 C 213.98 119.42 213.15 120.03 213.02 120.91 Z M 212.86 121.94 L 212.72 122.89 C 212.59 123.78 213.20 124.60 214.09 124.73 C 214.97 124.86 215.80 124.25 215.93 123.36 L 216.07 122.41 C 216.20 121.52 215.58 120.70 214.70 120.57 C 213.81 120.44 212.99 121.05 212.86 121.94 Z M 212.71 122.90 L 212.57 123.86 C 212.45 124.75 213.07 125.57 213.96 125.70 C 214.85 125.82 215.67 125.20 215.80 124.31 L 215.93 123.36 C 216.06 122.47 215.44 121.64 214.55 121.52 C 213.66 121.39 212.84 122.01 212.71 122.90 Z M 212.57 123.86 L 212.43 124.87 C 212.31 125.77 212.93 126.59 213.82 126.71 C 214.71 126.84 215.54 126.22 215.66 125.32 L 215.80 124.31 C 215.93 123.42 215.30 122.59 214.41 122.47 C 213.52 122.35 212.69 122.97 212.57 123.86 Z M 212.43 124.87 L 212.28 125.91 C 212.16 126.81 212.78 127.63 213.68 127.76 C 214.57 127.88 215.40 127.26 215.52 126.36 L 215.67 125.32 C 215.79 124.43 215.17 123.60 214.27 123.48 C 213.38 123.35 212.55 123.98 212.43 124.87 Z M 212.28 125.91 L 212.14 126.88 C 212.01 127.77 212.64 128.60 213.54 128.73 C 214.43 128.86 215.26 128.23 215.39 127.34 L 215.53 126.37 C 215.65 125.47 215.03 124.64 214.13 124.51 C 213.23 124.39 212.40 125.01 212.28 125.91 Z M 212.14 126.87 L 211.99 127.87 C 211.86 128.77 212.49 129.60 213.39 129.73 C 214.29 129.86 215.12 129.24 215.25 128.34 L 215.39 127.34 C 215.52 126.44 214.90 125.61 214.00 125.48 C 213.10 125.35 212.27 125.97 212.14 126.87 Z M 211.99 127.86 L 211.84 128.87 C 211.71 129.77 212.33 130.61 213.23 130.74 C 214.14 130.87 214.97 130.25 215.11 129.35 L 215.25 128.34 C 215.39 127.44 214.76 126.60 213.86 126.47 C 212.96 126.34 212.12 126.96 211.99 127.86 Z M 211.84 128.86 L 211.69 129.86 C 211.55 130.77 212.17 131.61 213.08 131.75 C 213.98 131.88 214.82 131.26 214.96 130.36 L 215.11 129.36 C 215.25 128.45 214.62 127.61 213.72 127.47 C 212.82 127.34 211.97 127.96 211.84 128.86 Z M 211.68 129.86 L 211.53 130.86 C 211.39 131.76 212.01 132.61 212.91 132.75 C 213.82 132.89 214.67 132.27 214.81 131.36 L 214.96 130.36 C 215.10 129.46 214.48 128.61 213.58 128.47 C 212.67 128.33 211.82 128.95 211.68 129.86 Z M 211.53 130.85 L 211.37 131.83 C 211.23 132.74 211.84 133.59 212.75 133.74 C 213.66 133.88 214.51 133.26 214.65 132.36 L 214.81 131.37 C 214.95 130.47 214.34 129.61 213.43 129.47 C 212.52 129.32 211.67 129.94 211.53 130.85 Z M 211.37 131.83 L 211.21 132.81 C 211.06 133.71 211.68 134.57 212.58 134.72 C 213.49 134.87 214.35 134.25 214.49 133.34 L 214.65 132.36 C 214.80 131.46 214.19 130.60 213.28 130.45 C 212.37 130.30 211.52 130.92 211.37 131.83 Z M 211.21 132.80 L 211.04 133.78 C 210.89 134.69 211.50 135.55 212.41 135.70 C 213.32 135.85 214.18 135.24 214.33 134.33 L 214.50 133.35 C 214.65 132.44 214.03 131.58 213.13 131.43 C 212.22 131.28 211.36 131.89 211.21 132.80 Z M 211.04 133.77 L 210.87 134.75 C 210.72 135.66 211.33 136.52 212.24 136.68 C 213.15 136.83 214.01 136.22 214.17 135.31 L 214.33 134.33 C 214.49 133.42 213.88 132.56 212.97 132.41 C 212.06 132.25 211.20 132.86 211.04 133.77 Z M 210.87 134.75 L 210.70 135.73 C 210.54 136.64 211.15 137.51 212.06 137.66 C 212.98 137.82 213.84 137.21 214.00 136.30 L 214.17 135.32 C 214.33 134.41 213.72 133.54 212.81 133.38 C 211.90 133.22 211.03 133.83 210.87 134.75 Z M 210.70 135.72 L 210.53 136.71 C 210.36 137.62 210.97 138.49 211.88 138.66 C 212.79 138.82 213.66 138.21 213.83 137.30 L 214.00 136.31 C 214.16 135.40 213.55 134.53 212.64 134.37 C 211.73 134.20 210.86 134.81 210.70 135.72 Z M 210.52 136.71 L 210.34 137.70 C 210.18 138.61 210.78 139.48 211.70 139.65 C 212.61 139.81 213.48 139.21 213.65 138.29 L 213.83 137.30 C 213.99 136.39 213.39 135.52 212.47 135.35 C 211.56 135.19 210.69 135.79 210.52 136.71 Z M 210.34 137.69 L 210.16 138.66 C 209.99 139.57 210.60 140.45 211.51 140.62 C 212.42 140.79 213.30 140.19 213.47 139.27 L 213.65 138.30 C 213.82 137.39 213.22 136.51 212.30 136.34 C 211.39 136.17 210.51 136.78 210.34 137.69 Z M 210.16 138.66 L 209.98 139.63 C 209.81 140.55 210.40 141.43 211.32 141.60 C 212.23 141.77 213.11 141.17 213.28 140.26 L 213.47 139.28 C 213.64 138.37 213.04 137.49 212.13 137.32 C 211.22 137.14 210.34 137.74 210.16 138.66 Z M 209.98 139.63 L 209.79 140.61 C 209.61 141.53 210.21 142.41 211.12 142.58 C 212.04 142.76 212.92 142.16 213.09 141.25 L 213.28 140.26 C 213.46 139.35 212.86 138.47 211.95 138.29 C 211.04 138.12 210.15 138.71 209.98 139.63 Z M 209.79 140.61 L 209.59 141.60 C 209.42 142.52 210.01 143.40 210.93 143.58 C 211.84 143.76 212.72 143.16 212.90 142.25 L 213.09 141.25 C 213.27 140.34 212.68 139.45 211.76 139.28 C 210.85 139.10 209.97 139.70 209.79 140.61 Z M 209.59 141.60 L 209.41 142.55 C 209.23 143.47 209.82 144.35 210.74 144.53 C 211.65 144.71 212.54 144.12 212.71 143.20 L 212.90 142.25 C 213.08 141.34 212.49 140.45 211.57 140.27 C 210.66 140.09 209.77 140.69 209.59 141.60 Z M 209.40 142.55 L 209.22 143.52 C 209.04 144.43 209.63 145.32 210.55 145.50 C 211.46 145.68 212.35 145.08 212.53 144.17 L 212.72 143.20 C 212.89 142.29 212.30 141.40 211.39 141.22 C 210.47 141.04 209.58 141.64 209.40 142.55 Z M 209.21 143.52 L 209.02 144.51 C 208.84 145.42 209.44 146.31 210.36 146.49 C 211.27 146.67 212.16 146.07 212.34 145.15 L 212.53 144.17 C 212.71 143.25 212.11 142.37 211.19 142.19 C 210.28 142.01 209.39 142.61 209.21 143.52 Z M 209.02 144.51 L 208.83 145.52 C 208.65 146.44 209.25 147.32 210.17 147.50 C 211.08 147.67 211.97 147.07 212.14 146.16 L 212.34 145.15 C 212.51 144.23 211.91 143.35 211.00 143.17 C 210.08 143.00 209.20 143.60 209.02 144.51 Z M 208.82 145.53 L 208.64 146.49 C 208.47 147.40 209.08 148.29 209.99 148.46 C 210.91 148.63 211.79 148.03 211.96 147.11 L 212.15 146.15 C 212.32 145.23 211.71 144.35 210.80 144.18 C 209.88 144.00 209.00 144.61 208.82 145.53 Z M 208.64 146.49 L 208.47 147.44 C 208.30 148.36 208.91 149.24 209.82 149.41 C 210.74 149.57 211.62 148.97 211.79 148.05 L 211.97 147.10 C 212.13 146.19 211.53 145.31 210.61 145.14 C 209.69 144.97 208.81 145.57 208.64 146.49 Z M 208.47 147.44 L 208.29 148.42 C 208.13 149.34 208.74 150.21 209.65 150.38 C 210.57 150.54 211.45 149.94 211.62 149.02 L 211.79 148.04 C 211.96 147.13 211.35 146.25 210.43 146.08 C 209.51 145.92 208.63 146.53 208.47 147.44 Z M 208.29 148.42 L 208.11 149.43 C 207.95 150.34 208.56 151.22 209.48 151.38 C 210.40 151.55 211.28 150.93 211.44 150.01 L 211.62 149.01 C 211.78 148.09 211.17 147.22 210.25 147.05 C 209.33 146.89 208.45 147.50 208.29 148.42 Z M 208.11 149.43 L 207.93 150.47 C 207.77 151.39 208.39 152.26 209.31 152.42 C 210.23 152.58 211.10 151.96 211.26 151.05 L 211.44 150.01 C 211.60 149.09 210.98 148.22 210.07 148.06 C 209.15 147.90 208.27 148.51 208.11 149.43 Z M 207.93 150.47 L 207.76 151.46 C 207.61 152.38 208.22 153.25 209.14 153.41 C 210.06 153.57 210.93 152.95 211.09 152.03 L 211.26 151.04 C 211.42 150.12 210.80 149.25 209.88 149.09 C 208.96 148.94 208.09 149.55 207.93 150.47 Z M 207.76 151.46 L 207.60 152.45 C 207.44 153.37 208.06 154.25 208.98 154.40 C 209.90 154.56 210.77 153.94 210.92 153.02 L 211.09 152.03 C 211.25 151.11 210.63 150.24 209.71 150.08 C 208.79 149.93 207.92 150.55 207.76 151.46 Z M 207.59 152.46 L 207.43 153.46 C 207.27 154.38 207.89 155.25 208.81 155.40 C 209.73 155.56 210.60 154.94 210.76 154.02 L 210.92 153.02 C 211.08 152.10 210.46 151.23 209.54 151.07 C 208.62 150.92 207.75 151.54 207.59 152.46 Z M 207.43 153.46 L 207.26 154.46 C 207.11 155.38 207.73 156.25 208.65 156.40 C 209.57 156.55 210.44 155.93 210.59 155.01 L 210.76 154.01 C 210.91 153.10 210.29 152.23 209.37 152.07 C 208.45 151.92 207.58 152.54 207.43 153.46 Z M 207.26 154.46 L 207.10 155.44 C 206.94 156.36 207.56 157.23 208.48 157.38 C 209.40 157.53 210.27 156.91 210.43 155.99 L 210.59 155.01 C 210.74 154.09 210.12 153.22 209.20 153.07 C 208.28 152.92 207.41 153.54 207.26 154.46 Z M 207.10 155.44 L 206.93 156.44 C 206.78 157.36 207.40 158.23 208.32 158.39 C 209.24 158.54 210.11 157.92 210.26 157.00 L 210.43 155.99 C 210.58 155.07 209.96 154.20 209.04 154.05 C 208.12 153.90 207.25 154.52 207.10 155.44 Z M 206.93 156.44 L 206.76 157.48 C 206.61 158.40 207.23 159.26 208.15 159.42 C 209.07 159.57 209.93 158.95 210.09 158.03 L 210.26 157.00 C 210.41 156.08 209.79 155.21 208.87 155.06 C 207.95 154.90 207.08 155.52 206.93 156.44 Z M 206.76 157.48 L 206.59 158.47 C 206.44 159.39 207.07 160.26 207.98 160.41 C 208.90 160.56 209.77 159.94 209.92 159.02 L 210.09 158.03 C 210.24 157.11 209.62 156.24 208.70 156.09 C 207.78 155.94 206.91 156.56 206.76 157.48 Z M 206.59 158.48 L 206.44 159.44 C 206.29 160.36 206.91 161.23 207.83 161.38 C 208.75 161.53 209.62 160.91 209.77 159.99 L 209.92 159.02 C 210.07 158.10 209.45 157.23 208.53 157.08 C 207.61 156.93 206.74 157.56 206.59 158.48 Z M 206.44 159.45 L 206.29 160.39 C 206.14 161.31 206.77 162.18 207.69 162.32 C 208.61 162.47 209.47 161.84 209.62 160.92 L 209.77 159.98 C 209.91 159.06 209.29 158.20 208.37 158.05 C 207.45 157.90 206.58 158.53 206.44 159.45 Z M 206.29 160.40 L 206.13 161.39 C 205.99 162.31 206.62 163.18 207.54 163.32 C 208.46 163.46 209.32 162.83 209.46 161.91 L 209.62 160.92 C 209.76 160.00 209.13 159.13 208.21 158.99 C 207.29 158.85 206.43 159.48 206.29 160.40 Z M 206.13 161.40 L 205.98 162.41 C 205.84 163.33 206.48 164.19 207.40 164.33 C 208.32 164.47 209.17 163.83 209.31 162.91 L 209.46 161.90 C 209.60 160.98 208.97 160.12 208.05 159.99 C 207.13 159.85 206.27 160.48 206.13 161.40 Z M 205.98 162.42 L 205.83 163.41 C 205.70 164.33 206.34 165.19 207.26 165.32 C 208.18 165.46 209.03 164.82 209.17 163.90 L 209.31 162.91 C 209.45 161.99 208.81 161.13 207.89 161.00 C 206.97 160.86 206.11 161.50 205.98 162.42 Z M 205.83 163.41 L 205.69 164.38 C 205.56 165.30 206.20 166.15 207.12 166.29 C 208.04 166.42 208.89 165.78 209.03 164.86 L 209.17 163.90 C 209.30 162.97 208.66 162.12 207.74 161.99 C 206.82 161.85 205.97 162.49 205.83 163.41 Z M 205.69 164.38 L 205.55 165.36 C 205.42 166.28 206.06 167.13 206.98 167.26 C 207.90 167.40 208.75 166.76 208.89 165.84 L 209.03 164.86 C 209.16 163.94 208.52 163.09 207.60 162.95 C 206.68 162.82 205.83 163.46 205.69 164.38 Z M 205.55 165.36 L 205.41 166.37 C 205.28 167.29 205.91 168.15 206.83 168.28 C 207.75 168.41 208.61 167.77 208.74 166.85 L 208.89 165.84 C 209.02 164.92 208.38 164.07 207.46 163.93 C 206.54 163.80 205.69 164.44 205.55 165.36 Z M 205.41 166.37 L 205.27 167.36 C 205.14 168.28 205.78 169.13 206.69 169.27 C 207.61 169.40 208.47 168.76 208.60 167.84 L 208.74 166.85 C 208.87 165.93 208.23 165.08 207.31 164.95 C 206.39 164.82 205.54 165.46 205.41 166.37 Z M 205.27 167.37 L 205.13 168.34 C 205.00 169.25 205.64 170.10 206.56 170.23 C 207.48 170.36 208.33 169.72 208.46 168.80 L 208.60 167.84 C 208.73 166.92 208.09 166.07 207.17 165.94 C 206.25 165.81 205.40 166.45 205.27 167.37 Z M 205.13 168.34 L 205.00 169.32 C 204.87 170.24 205.51 171.09 206.43 171.22 C 207.35 171.34 208.20 170.70 208.33 169.78 L 208.46 168.80 C 208.59 167.88 207.94 167.03 207.02 166.90 C 206.11 166.78 205.26 167.42 205.13 168.34 Z M 205.00 169.33 L 204.86 170.33 C 204.74 171.25 205.39 172.09 206.31 172.21 C 207.23 172.33 208.08 171.69 208.20 170.77 L 208.33 169.77 C 208.45 168.85 207.80 168.01 206.88 167.88 C 205.96 167.76 205.12 168.41 205.00 169.33 Z M 204.86 170.34 L 204.74 171.33 C 204.63 172.25 205.28 173.09 206.20 173.20 C 207.12 173.32 207.96 172.66 208.08 171.74 L 208.20 170.75 C 208.31 169.83 207.66 168.99 206.74 168.88 C 205.82 168.76 204.98 169.42 204.86 170.34 Z M 204.74 171.34 L 204.63 172.33 C 204.52 173.25 205.18 174.09 206.10 174.19 C 207.03 174.30 207.86 173.63 207.97 172.71 L 208.08 171.73 C 208.18 170.80 207.52 169.97 206.60 169.86 C 205.68 169.76 204.84 170.42 204.74 171.34 Z M 204.62 172.35 L 204.52 173.32 C 204.43 174.24 205.10 175.07 206.02 175.17 C 206.95 175.26 207.77 174.59 207.87 173.67 L 207.97 172.69 C 208.06 171.77 207.39 170.94 206.47 170.85 C 205.54 170.75 204.72 171.43 204.62 172.35 Z M 204.52 173.34 L 204.43 174.32 C 204.35 175.24 205.03 176.06 205.95 176.15 C 206.88 176.23 207.69 175.55 207.78 174.63 L 207.87 173.65 C 207.95 172.72 207.27 171.90 206.35 171.82 C 205.43 171.73 204.61 172.42 204.52 173.34 Z M 204.43 174.34 L 204.35 175.34 C 204.28 176.27 204.96 177.08 205.89 177.15 C 206.81 177.23 207.62 176.54 207.70 175.61 L 207.78 174.61 C 207.85 173.69 207.17 172.88 206.24 172.80 C 205.32 172.73 204.51 173.41 204.43 174.34 Z M 204.35 175.36 L 204.28 176.38 C 204.21 177.31 204.91 178.11 205.83 178.18 C 206.76 178.24 207.56 177.55 207.62 176.62 L 207.70 175.60 C 207.76 174.67 207.07 173.87 206.14 173.81 C 205.22 173.74 204.42 174.43 204.35 175.36 Z M 204.28 176.40 L 204.21 177.41 C 204.16 178.33 204.86 179.13 205.78 179.19 C 206.70 179.24 207.50 178.54 207.56 177.62 L 207.62 176.61 C 207.68 175.69 206.98 174.89 206.06 174.83 C 205.13 174.77 204.34 175.48 204.28 176.40 Z M 204.22 177.42 L 204.16 178.44 C 204.11 179.36 204.81 180.15 205.74 180.20 C 206.66 180.25 207.45 179.55 207.50 178.62 L 207.56 177.61 C 207.61 176.68 206.90 175.89 205.98 175.84 C 205.06 175.79 204.27 176.50 204.22 177.42 Z M 204.16 178.45 L 204.11 179.44 C 204.06 180.37 204.77 181.15 205.70 181.20 C 206.62 181.24 207.40 180.53 207.45 179.61 L 207.50 178.61 C 207.55 177.69 206.84 176.90 205.91 176.86 C 204.99 176.81 204.21 177.52 204.16 178.45 Z M 204.11 179.46 L 204.07 180.45 C 204.03 181.37 204.74 182.15 205.66 182.19 C 206.59 182.23 207.37 181.52 207.41 180.59 L 207.45 179.60 C 207.49 178.68 206.77 177.90 205.85 177.86 C 204.93 177.82 204.15 178.53 204.11 179.46 Z M 204.07 180.46 L 204.03 181.50 C 204.00 182.42 204.72 183.20 205.64 183.23 C 206.56 183.26 207.33 182.54 207.37 181.62 L 207.41 180.58 C 207.44 179.66 206.72 178.89 205.80 178.85 C 204.88 178.82 204.10 179.54 204.07 180.46 Z M 204.03 181.52 L 204.00 182.50 C 203.98 183.42 204.70 184.19 205.63 184.22 C 206.55 184.24 207.31 183.52 207.34 182.60 L 207.37 181.61 C 207.39 180.69 206.67 179.92 205.75 179.90 C 204.82 179.87 204.06 180.60 204.03 181.52 Z M 204.01 182.52 L 203.99 183.47 C 203.97 184.39 204.70 185.15 205.62 185.17 C 206.54 185.19 207.30 184.46 207.32 183.54 L 207.34 182.58 C 207.35 181.66 206.62 180.90 205.70 180.88 C 204.78 180.87 204.02 181.60 204.01 182.52 Z M 203.99 183.49 L 203.98 184.50 C 203.97 185.42 204.71 186.17 205.62 186.18 C 206.54 186.19 207.30 185.45 207.30 184.54 L 207.32 183.52 C 207.33 182.60 206.59 181.85 205.67 181.84 C 204.75 181.83 204.00 182.57 203.99 183.49 Z M 203.98 184.51 L 203.98 185.52 C 203.98 186.43 204.72 187.18 205.63 187.18 C 206.55 187.19 207.29 186.45 207.30 185.53 L 207.30 184.53 C 207.30 183.61 206.57 182.86 205.65 182.86 C 204.73 182.86 203.99 183.60 203.98 184.51 Z M 203.99 185.52 L 203.98 186.51 C 203.98 187.42 204.72 188.16 205.64 188.16 C 206.55 188.16 207.29 187.42 207.29 186.51 L 207.29 185.53 C 207.29 184.61 206.55 183.87 205.64 183.87 C 204.73 183.87 203.99 184.61 203.99 185.52 Z M 203.99 186.51 L 203.99 187.53 C 203.99 188.44 204.73 189.18 205.64 189.18 C 206.55 189.18 207.28 188.44 207.28 187.53 L 207.28 186.51 C 207.28 185.60 206.55 184.86 205.64 184.86 C 204.73 184.86 203.99 185.60 203.99 186.51 Z M 203.99 187.53 L 203.99 188.54 C 203.99 189.44 204.73 190.18 205.64 190.18 C 206.54 190.18 207.28 189.44 207.28 188.54 L 207.28 187.53 C 207.28 186.63 206.54 185.89 205.64 185.89 C 204.73 185.89 203.99 186.63 203.99 187.53 Z M 204.00 188.54 L 204.00 189.50 C 204.00 190.40 204.73 191.14 205.64 191.14 C 206.54 191.14 207.28 190.40 207.28 189.50 L 207.28 188.54 C 207.28 187.63 206.54 186.90 205.64 186.90 C 204.73 186.90 204.00 187.63 204.00 188.54 Z M 204.00 189.50 L 204.00 190.53 C 204.00 191.43 204.74 192.16 205.64 192.16 C 206.54 192.16 207.27 191.43 207.27 190.53 L 207.27 189.50 C 207.27 188.60 206.54 187.87 205.64 187.87 C 204.74 187.87 204.00 188.60 204.00 189.50 Z M 204.01 190.53 L 204.01 191.52 C 204.01 192.42 204.74 193.15 205.64 193.15 C 206.54 193.15 207.26 192.42 207.26 191.52 L 207.26 190.53 C 207.26 189.63 206.54 188.90 205.64 188.90 C 204.74 188.90 204.01 189.63 204.01 190.53 Z M 204.02 191.52 L 204.02 192.50 C 204.02 193.40 204.74 194.12 205.64 194.12 C 206.53 194.12 207.26 193.40 207.26 192.50 L 207.26 191.52 C 207.26 190.62 206.53 189.90 205.64 189.90 C 204.74 189.90 204.02 190.62 204.02 191.52 Z M 204.02 192.50 L 204.02 193.49 C 204.02 194.38 204.75 195.11 205.64 195.11 C 206.53 195.11 207.25 194.38 207.25 193.49 L 207.25 192.50 C 207.25 191.61 206.53 190.89 205.64 190.89 C 204.75 190.89 204.02 191.61 204.02 192.50 Z M 204.03 193.49 L 204.03 194.50 C 204.03 195.38 204.75 196.10 205.64 196.10 C 206.52 196.10 207.24 195.38 207.24 194.50 L 207.24 193.49 C 207.24 192.60 206.52 191.89 205.64 191.89 C 204.75 191.89 204.03 192.60 204.03 193.49 Z M 204.04 194.50 L 204.04 195.50 C 204.04 196.38 204.76 197.10 205.64 197.09 C 206.52 197.09 207.24 196.38 207.24 195.49 L 207.23 194.49 C 207.23 193.61 206.52 192.90 205.63 192.90 C 204.75 192.90 204.04 193.62 204.04 194.50 Z M 204.05 195.51 L 204.06 196.52 C 204.07 197.39 204.78 198.10 205.66 198.09 C 206.54 198.08 207.24 197.37 207.24 196.49 L 207.23 195.48 C 207.22 194.61 206.50 193.90 205.62 193.91 C 204.75 193.92 204.04 194.63 204.05 195.51 Z M 204.07 196.54 L 204.09 197.54 C 204.11 198.42 204.83 199.11 205.71 199.09 C 206.58 199.07 207.27 198.35 207.25 197.47 L 207.23 196.47 C 207.21 195.59 206.49 194.90 205.61 194.92 C 204.74 194.94 204.05 195.66 204.07 196.54 Z M 204.10 197.56 L 204.13 198.55 C 204.16 199.42 204.89 200.10 205.76 200.07 C 206.62 200.04 207.31 199.32 207.28 198.45 L 207.24 197.46 C 207.21 196.59 206.49 195.91 205.62 195.94 C 204.75 195.96 204.07 196.69 204.10 197.56 Z M 204.14 198.56 L 204.17 199.54 C 204.20 200.41 204.93 201.08 205.79 201.05 C 206.66 201.02 207.34 200.29 207.31 199.43 L 207.27 198.44 C 207.24 197.58 206.51 196.90 205.65 196.93 C 204.78 196.96 204.11 197.69 204.14 198.56 Z M 204.17 199.54 L 204.21 200.54 C 204.24 201.40 204.97 202.07 205.83 202.04 C 206.70 202.01 207.37 201.28 207.34 200.42 L 207.30 199.43 C 207.27 198.56 206.54 197.89 205.68 197.92 C 204.82 197.95 204.14 198.68 204.17 199.54 Z M 204.21 200.56 L 204.27 201.57 C 204.31 202.43 205.04 203.10 205.91 203.05 C 206.77 203.01 207.43 202.28 207.39 201.41 L 207.34 200.40 C 207.29 199.54 206.56 198.87 205.70 198.92 C 204.83 198.96 204.17 199.69 204.21 200.56 Z M 204.27 201.60 L 204.34 202.60 C 204.40 203.46 205.15 204.10 206.01 204.04 C 206.87 203.98 207.51 203.24 207.45 202.38 L 207.38 201.38 C 207.32 200.52 206.58 199.88 205.72 199.94 C 204.86 200.00 204.21 200.74 204.27 201.60 Z M 204.34 202.62 L 204.43 203.62 C 204.50 204.48 205.25 205.12 206.11 205.04 C 206.97 204.97 207.61 204.22 207.54 203.36 L 207.45 202.35 C 207.38 201.50 206.62 200.86 205.77 200.93 C 204.91 201.00 204.27 201.76 204.34 202.62 Z M 204.43 203.63 L 204.52 204.62 C 204.60 205.48 205.36 206.11 206.21 206.03 C 207.07 205.95 207.71 205.19 207.63 204.34 L 207.54 203.35 C 207.46 202.49 206.70 201.85 205.84 201.93 C 204.98 202.01 204.35 202.77 204.43 203.63 Z M 204.52 204.62 L 204.61 205.61 C 204.69 206.47 205.45 207.10 206.31 207.02 C 207.17 206.94 207.80 206.18 207.72 205.32 L 207.63 204.33 C 207.55 203.47 206.79 202.84 205.93 202.92 C 205.07 203.00 204.44 203.76 204.52 204.62 Z M 204.61 205.61 L 204.70 206.62 C 204.78 207.48 205.54 208.11 206.40 208.03 C 207.26 207.95 207.89 207.19 207.81 206.33 L 207.72 205.32 C 207.64 204.46 206.88 203.83 206.02 203.91 C 205.16 203.99 204.53 204.75 204.61 205.61 Z M 204.70 206.61 L 204.79 207.63 C 204.87 208.49 205.63 209.12 206.49 209.04 C 207.35 208.97 207.98 208.21 207.90 207.35 L 207.81 206.34 C 207.74 205.48 206.98 204.84 206.12 204.92 C 205.26 205.00 204.63 205.76 204.70 206.61 Z M 204.79 207.63 L 204.89 208.64 C 204.97 209.50 205.73 210.13 206.59 210.05 C 207.45 209.97 208.08 209.20 208.00 208.35 L 207.90 207.34 C 207.82 206.48 207.06 205.85 206.20 205.93 C 205.34 206.01 204.71 206.78 204.79 207.63 Z M 204.89 208.66 L 205.00 209.67 C 205.09 210.52 205.86 211.14 206.72 211.05 C 207.58 210.96 208.20 210.19 208.10 209.33 L 208.00 208.32 C 207.90 207.47 207.13 206.85 206.27 206.94 C 205.42 207.03 204.80 207.80 204.89 208.66 Z M 205.00 209.70 L 205.13 210.71 C 205.25 211.56 206.03 212.16 206.89 212.05 C 207.74 211.94 208.34 211.16 208.23 210.30 L 208.10 209.29 C 207.99 208.44 207.20 207.84 206.35 207.95 C 205.49 208.06 204.89 208.84 205.00 209.70 Z M 205.14 210.74 L 205.28 211.68 C 205.41 212.54 206.21 213.12 207.06 213.00 C 207.91 212.87 208.50 212.07 208.37 211.22 L 208.23 210.27 C 208.10 209.42 207.30 208.83 206.45 208.96 C 205.60 209.09 205.01 209.88 205.14 210.74 Z M 205.28 211.71 L 205.45 212.71 C 205.59 213.56 206.39 214.13 207.24 213.99 C 208.09 213.85 208.67 213.05 208.53 212.20 L 208.37 211.20 C 208.23 210.35 207.42 209.77 206.57 209.91 C 205.72 210.05 205.15 210.85 205.28 211.71 Z M 205.45 212.73 L 205.62 213.66 C 205.77 214.51 206.58 215.08 207.43 214.93 C 208.28 214.78 208.84 213.97 208.69 213.12 L 208.53 212.18 C 208.38 211.33 207.57 210.77 206.72 210.92 C 205.87 211.07 205.30 211.88 205.45 212.73 Z M 205.62 213.69 L 205.81 214.64 C 205.98 215.49 206.80 216.04 207.65 215.87 C 208.49 215.70 209.04 214.88 208.87 214.04 L 208.69 213.09 C 208.52 212.24 207.70 211.69 206.85 211.86 C 206.01 212.03 205.46 212.85 205.62 213.69 Z M 205.82 214.69 L 206.05 215.67 C 206.24 216.51 207.08 217.04 207.92 216.84 C 208.76 216.65 209.28 215.81 209.09 214.97 L 208.87 213.99 C 208.67 213.15 207.84 212.62 206.99 212.82 C 206.15 213.01 205.63 213.85 205.82 214.69 Z M 206.05 215.70 L 206.29 216.65 C 206.49 217.49 207.34 218.00 208.18 217.79 C 209.01 217.59 209.53 216.74 209.32 215.90 L 209.08 214.95 C 208.88 214.11 208.03 213.60 207.19 213.81 C 206.36 214.01 205.85 214.86 206.05 215.70 Z M 206.29 216.65 L 206.54 217.68 C 206.75 218.51 207.59 219.02 208.43 218.82 C 209.27 218.61 209.78 217.76 209.57 216.93 L 209.32 215.90 C 209.11 215.06 208.27 214.55 207.43 214.76 C 206.59 214.97 206.08 215.81 206.29 216.65 Z M 206.54 217.66 L 206.77 218.63 C 206.97 219.47 207.81 219.98 208.65 219.78 C 209.48 219.59 210.00 218.74 209.80 217.91 L 209.58 216.94 C 209.38 216.10 208.54 215.58 207.70 215.78 C 206.86 215.98 206.34 216.82 206.54 217.66 Z M 206.76 218.60 L 206.97 219.57 C 207.16 220.41 207.99 220.95 208.83 220.76 C 209.68 220.58 210.21 219.74 210.02 218.90 L 209.81 217.93 C 209.63 217.09 208.79 216.56 207.95 216.74 C 207.11 216.93 206.58 217.76 206.76 218.60 Z M 206.97 219.54 L 207.16 220.54 C 207.33 221.39 208.15 221.94 209.00 221.77 C 209.84 221.61 210.40 220.79 210.23 219.94 L 210.03 218.93 C 209.86 218.09 209.04 217.54 208.20 217.70 C 207.35 217.87 206.80 218.69 206.97 219.54 Z M 207.16 220.51 L 207.33 221.52 C 207.48 222.37 208.29 222.94 209.14 222.79 C 209.99 222.64 210.56 221.84 210.41 220.99 L 210.23 219.98 C 210.09 219.13 209.28 218.56 208.43 218.70 C 207.58 218.85 207.01 219.66 207.16 220.51 Z M 207.33 221.48 L 207.48 222.49 C 207.61 223.34 208.40 223.93 209.25 223.80 C 210.11 223.67 210.69 222.88 210.56 222.03 L 210.41 221.02 C 210.29 220.17 209.49 219.58 208.64 219.71 C 207.79 219.84 207.20 220.63 207.33 221.48 Z M 207.47 222.45 L 207.60 223.41 C 207.71 224.27 208.49 224.87 209.34 224.76 C 210.20 224.65 210.80 223.87 210.69 223.02 L 210.57 222.06 C 210.46 221.21 209.68 220.60 208.82 220.71 C 207.97 220.82 207.37 221.60 207.47 222.45 Z M 207.59 223.37 L 207.70 224.41 C 207.78 225.26 208.54 225.89 209.40 225.81 C 210.26 225.72 210.88 224.96 210.80 224.10 L 210.70 223.06 C 210.61 222.21 209.85 221.58 208.99 221.66 C 208.13 221.75 207.51 222.51 207.59 223.37 Z M 207.69 224.37 L 207.76 225.33 C 207.83 226.19 208.58 226.83 209.43 226.77 C 210.29 226.70 210.94 225.96 210.87 225.10 L 210.80 224.14 C 210.74 223.28 209.99 222.64 209.13 222.70 C 208.27 222.76 207.63 223.51 207.69 224.37 Z M 207.76 225.31 L 207.83 226.27 C 207.88 227.13 208.62 227.78 209.48 227.73 C 210.34 227.67 210.99 226.93 210.93 226.07 L 210.87 225.11 C 210.82 224.25 210.08 223.60 209.22 223.66 C 208.36 223.71 207.71 224.45 207.76 225.31 Z M 207.83 226.27 L 207.88 227.26 C 207.93 228.12 208.67 228.78 209.53 228.73 C 210.39 228.68 211.04 227.94 210.99 227.08 L 210.93 226.08 C 210.88 225.23 210.15 224.57 209.29 224.62 C 208.43 224.67 207.77 225.41 207.83 226.27 Z M 207.88 227.25 L 207.93 228.28 C 207.98 229.14 208.71 229.80 209.57 229.75 C 210.43 229.71 211.09 228.98 211.04 228.12 L 210.99 227.10 C 210.95 226.24 210.22 225.58 209.36 225.62 C 208.50 225.66 207.84 226.39 207.88 227.25 Z M 207.93 228.26 L 207.97 229.28 C 208.01 230.14 208.73 230.81 209.59 230.77 C 210.45 230.74 211.12 230.02 211.09 229.16 L 211.05 228.14 C 211.01 227.28 210.29 226.61 209.43 226.64 C 208.57 226.68 207.90 227.40 207.93 228.26 Z M 207.97 229.27 L 208.01 230.26 C 208.04 231.12 208.76 231.79 209.62 231.76 C 210.48 231.73 211.15 231.01 211.12 230.15 L 211.09 229.16 C 211.06 228.30 210.33 227.63 209.47 227.66 C 208.62 227.69 207.94 228.42 207.97 229.27 Z M 208.01 230.26 L 208.05 231.30 C 208.08 232.16 208.80 232.83 209.66 232.80 C 210.52 232.77 211.19 232.05 211.16 231.19 L 211.12 230.15 C 211.09 229.29 210.37 228.62 209.51 228.65 C 208.65 228.68 207.98 229.40 208.01 230.26 Z M 208.05 231.29 L 208.07 232.26 C 208.10 233.12 208.82 233.79 209.68 233.77 C 210.54 233.74 211.21 233.03 211.19 232.17 L 211.16 231.20 C 211.13 230.34 210.42 229.66 209.56 229.69 C 208.70 229.71 208.02 230.43 208.05 231.29 Z M 208.07 232.24 L 208.09 233.24 C 208.10 234.10 208.81 234.79 209.67 234.77 C 210.53 234.76 211.22 234.05 211.20 233.19 L 211.19 232.19 C 211.17 231.33 210.47 230.64 209.61 230.66 C 208.75 230.67 208.06 231.38 208.07 232.24 Z M 208.09 233.24 L 208.10 234.21 C 208.11 235.07 208.82 235.76 209.68 235.75 C 210.54 235.74 211.23 235.03 211.22 234.17 L 211.20 233.19 C 211.19 232.34 210.49 231.65 209.63 231.66 C 208.77 231.67 208.08 232.38 208.09 233.24 Z M 208.10 234.24 L 208.13 235.19 C 208.16 236.05 208.87 236.73 209.73 236.70 C 210.59 236.68 211.27 235.96 211.24 235.10 L 211.22 234.15 C 211.19 233.29 210.47 232.61 209.61 232.64 C 208.76 232.66 208.08 233.38 208.10 234.24 Z M 208.13 235.18 L 208.16 236.22 C 208.18 237.08 208.89 237.75 209.75 237.73 C 210.61 237.71 211.29 237.00 211.27 236.14 L 211.24 235.11 C 211.22 234.25 210.51 233.57 209.65 233.59 C 208.79 233.61 208.11 234.32 208.13 235.18 Z M 208.16 236.19 L 208.17 237.19 C 208.18 238.05 208.88 238.74 209.74 238.73 C 210.60 238.72 211.29 238.01 211.28 237.15 L 211.27 236.16 C 211.26 235.30 210.56 234.61 209.70 234.62 C 208.84 234.63 208.15 235.33 208.16 236.19 Z M 208.17 237.19 L 208.18 238.21 C 208.19 239.07 208.89 239.76 209.75 239.75 C 210.61 239.74 211.30 239.03 211.29 238.17 L 211.28 237.15 C 211.27 236.29 210.57 235.60 209.71 235.61 C 208.85 235.62 208.16 236.33 208.17 237.19 Z M 208.18 238.23 L 208.20 239.26 C 208.22 240.12 208.93 240.80 209.79 240.78 C 210.65 240.76 211.33 240.05 211.31 239.19 L 211.29 238.16 C 211.27 237.30 210.56 236.62 209.70 236.64 C 208.84 236.66 208.16 237.37 208.18 238.23 Z M 208.20 239.27 L 208.23 240.24 C 208.25 241.10 208.96 241.77 209.82 241.75 C 210.68 241.73 211.36 241.02 211.34 240.16 L 211.31 239.19 C 211.29 238.33 210.58 237.65 209.72 237.67 C 208.86 237.70 208.18 238.41 208.20 239.27 Z M 208.23 240.22 L 208.24 241.22 C 208.25 242.07 208.96 242.76 209.81 242.75 C 210.67 242.74 211.36 242.04 211.35 241.18 L 211.34 240.18 C 211.33 239.32 210.62 238.63 209.76 238.64 C 208.90 238.65 208.22 239.36 208.23 240.22 Z M 208.24 241.20 L 208.24 242.19 C 208.24 243.05 208.94 243.75 209.80 243.75 C 210.66 243.74 211.35 243.05 211.35 242.19 L 211.35 241.19 C 211.35 240.33 210.65 239.64 209.79 239.64 C 208.93 239.64 208.24 240.34 208.24 241.20 Z M 208.24 242.19 L 208.24 243.19 C 208.24 244.05 208.93 244.75 209.79 244.75 C 210.65 244.75 211.35 244.06 211.35 243.20 L 211.35 242.19 C 211.35 241.33 210.66 240.64 209.80 240.64 C 208.94 240.63 208.24 241.33 208.24 242.19 Z M 208.24 243.18 L 208.23 244.17 C 208.22 245.03 208.90 245.74 209.76 245.75 C 210.62 245.76 211.32 245.07 211.33 244.21 L 211.35 243.22 C 211.36 242.36 210.67 241.65 209.81 241.64 C 208.96 241.63 208.25 242.32 208.24 243.18 Z M 208.23 244.13 L 208.19 245.14 C 208.16 246.00 208.83 246.72 209.68 246.75 C 210.54 246.78 211.26 246.12 211.29 245.26 L 211.33 244.25 C 211.36 243.40 210.70 242.68 209.84 242.64 C 208.98 242.61 208.26 243.28 208.23 244.13 Z M 208.20 245.08 L 208.12 246.06 C 208.05 246.92 208.69 247.66 209.54 247.73 C 210.39 247.80 211.14 247.17 211.21 246.31 L 211.29 245.33 C 211.36 244.47 210.72 243.72 209.87 243.66 C 209.01 243.59 208.27 244.22 208.20 245.08 Z M 208.12 246.01 L 208.01 247.00 C 207.91 247.85 208.52 248.62 209.37 248.72 C 210.22 248.82 210.99 248.21 211.09 247.36 L 211.20 246.37 C 211.30 245.52 210.69 244.75 209.84 244.65 C 208.99 244.55 208.22 245.16 208.12 246.01 Z M 208.01 247.01 L 207.91 247.95 C 207.81 248.80 208.43 249.56 209.28 249.65 C 210.12 249.75 210.89 249.13 210.98 248.28 L 211.09 247.35 C 211.18 246.50 210.57 245.73 209.72 245.64 C 208.87 245.55 208.10 246.16 208.01 247.01 Z M 207.91 247.94 L 207.80 248.94 C 207.70 249.78 208.31 250.55 209.16 250.64 C 210.01 250.74 210.77 250.13 210.87 249.28 L 210.98 248.29 C 211.07 247.44 210.46 246.68 209.62 246.58 C 208.77 246.49 208.01 247.09 207.91 247.94 Z M 207.81 248.89 L 207.66 249.92 C 207.53 250.76 208.12 251.54 208.96 251.67 C 209.80 251.79 210.58 251.21 210.71 250.36 L 210.86 249.33 C 210.98 248.49 210.40 247.71 209.56 247.58 C 208.71 247.46 207.93 248.04 207.81 248.89 Z M 207.66 249.89 L 207.50 250.91 C 207.36 251.75 207.93 252.54 208.77 252.68 C 209.61 252.81 210.40 252.25 210.53 251.41 L 210.70 250.39 C 210.84 249.55 210.27 248.76 209.43 248.62 C 208.59 248.49 207.80 249.06 207.66 249.89 Z M 207.50 250.93 L 207.35 251.92 C 207.23 252.76 207.80 253.54 208.64 253.67 C 209.48 253.79 210.26 253.21 210.39 252.38 L 210.53 251.39 C 210.66 250.55 210.08 249.77 209.24 249.64 C 208.40 249.52 207.62 250.10 207.50 250.93 Z M 207.35 252.06 L 207.28 253.15 C 207.24 253.99 207.88 254.71 208.72 254.76 C 209.56 254.81 210.28 254.17 210.33 253.33 L 210.39 252.24 C 210.44 251.40 209.80 250.68 208.96 250.63 C 208.12 250.58 207.40 251.22 207.35 252.06 Z M 207.38 253.73 L 207.66 254.54 C 207.93 255.33 208.79 255.75 209.57 255.48 C 210.36 255.21 210.78 254.35 210.51 253.56 L 210.23 252.75 C 209.96 251.96 209.10 251.55 208.32 251.82 C 207.53 252.09 207.11 252.94 207.38 253.73 Z M 208.12 255.18 L 208.88 255.82 C 209.50 256.36 210.44 256.28 210.97 255.66 C 211.50 255.04 211.43 254.10 210.80 253.57 L 210.05 252.92 C 209.42 252.39 208.49 252.46 207.96 253.09 C 207.42 253.71 207.50 254.65 208.12 255.18 Z M 209.04 255.93 L 209.23 256.05 C 209.91 256.49 210.82 256.30 211.26 255.62 C 211.71 254.94 211.51 254.03 210.83 253.59 L 210.64 253.46 C 209.96 253.02 209.05 253.22 208.61 253.90 C 208.17 254.58 208.36 255.49 209.04 255.93 Z"
      fill="black"
      fill-rule="nonzero" /></svg>