<svg xmlns="http://www.w3.org/2000/svg" width="300" height="300" viewBox="0 0 300 300">
<path d="M 138.45 131.55 L 138.45 132.54 C 138.45 133.47 139.20 134.22 140.13 134.22 C 141.05 134.22 141.80 133.47 141.80 132.54 L 141.80 131.55 C 141.80 130.63 141.05 129.88 140.13 129.88 C 139.20 129.88 138.45 130.63 138.45 131.55 Z M 138.44 132.54 L 138.44 133.55 C 138.44 134.48 139.20 135.23 140.13 135.23 C 141.06 135.23 141.81 134.48 141.81 133.55 L 141.81 132.54 C 141.81 131.61 141.06 130.86 140.13 130.86 C 139.20 130.86 138.44 131.61 138.44 132.54 Z M 138.43 133.55 L 138.43 134.53 C 138.43 135.47 139.19 136.23 140.13 136.23 C 141.06 136.23 141.82 135.47 141.82 134.53 L 141.82 133.55 C 141.82 132.61 141.06 131.85 140.13 131.85 C 139.19 131.85 138.43 132.61 138.43 133.55 Z M 138.42 134.53 L 138.42 135.55 C 138.42 136.50 139.18 137.26 140.13 137.26 C 141.07 137.26 141.84 136.50 141.84 135.55 L 141.84 134.53 C 141.84 133.59 141.07 132.82 140.13 132.82 C 139.18 132.82 138.42 133.59 138.42 134.53 Z M 138.41 135.55 L 138.41 136.52 C 138.40 137.47 139.17 138.25 140.12 138.25 C 141.07 138.25 141.84 137.49 141.84 136.54 L 141.85 135.56 C 141.85 134.61 141.08 133.84 140.13 133.83 C 139.19 133.83 138.41 134.60 138.41 135.55 Z M 138.40 136.49 L 138.37 137.50 C 138.35 138.45 139.10 139.25 140.05 139.27 C 141.01 139.29 141.80 138.54 141.82 137.59 L 141.85 136.57 C 141.87 135.62 141.12 134.83 140.17 134.81 C 139.21 134.78 138.42 135.53 138.40 136.49 Z M 138.37 137.44 L 138.31 138.42 C 138.25 139.38 138.98 140.20 139.93 140.26 C 140.89 140.32 141.71 139.59 141.77 138.63 L 141.83 137.65 C 141.89 136.70 141.16 135.88 140.21 135.82 C 139.25 135.76 138.43 136.48 138.37 137.44 Z M 138.31 138.35 L 138.21 139.35 C 138.11 140.30 138.80 141.16 139.76 141.25 C 140.71 141.35 141.57 140.66 141.66 139.70 L 141.77 138.70 C 141.86 137.75 141.17 136.90 140.21 136.80 C 139.26 136.70 138.41 137.40 138.31 138.35 Z M 138.21 139.28 L 138.07 140.26 C 137.93 141.22 138.59 142.10 139.55 142.24 C 140.50 142.37 141.38 141.71 141.52 140.76 L 141.66 139.77 C 141.80 138.82 141.14 137.94 140.18 137.80 C 139.23 137.66 138.35 138.32 138.21 139.28 Z M 138.07 140.20 L 137.91 141.14 C 137.74 142.09 138.37 143.00 139.32 143.17 C 140.27 143.34 141.18 142.70 141.35 141.75 L 141.52 140.82 C 141.69 139.87 141.05 138.96 140.10 138.79 C 139.15 138.62 138.24 139.25 138.07 140.20 Z M 137.91 141.10 L 137.71 142.11 C 137.52 143.06 138.13 143.98 139.08 144.17 C 140.03 144.36 140.96 143.74 141.15 142.79 L 141.35 141.79 C 141.54 140.84 140.92 139.91 139.97 139.73 C 139.02 139.54 138.10 140.15 137.91 141.10 Z M 137.71 142.09 L 137.50 143.07 C 137.30 144.03 137.91 144.96 138.86 145.15 C 139.82 145.35 140.75 144.74 140.94 143.79 L 141.15 142.81 C 141.35 141.86 140.74 140.93 139.78 140.73 C 138.83 140.53 137.90 141.14 137.71 142.09 Z M 137.50 143.07 L 137.30 144.01 C 137.10 144.96 137.71 145.89 138.66 146.09 C 139.61 146.30 140.55 145.69 140.75 144.74 L 140.95 143.80 C 141.15 142.85 140.54 141.91 139.59 141.71 C 138.64 141.51 137.70 142.12 137.50 143.07 Z M 137.30 144.00 L 137.08 144.99 C 136.88 145.95 137.49 146.89 138.44 147.09 C 139.39 147.30 140.33 146.69 140.54 145.74 L 140.75 144.74 C 140.95 143.79 140.35 142.85 139.40 142.65 C 138.44 142.44 137.50 143.05 137.30 144.00 Z M 137.08 144.99 L 136.85 146.03 C 136.64 146.98 137.25 147.92 138.20 148.13 C 139.16 148.34 140.10 147.74 140.31 146.79 L 140.54 145.75 C 140.75 144.79 140.14 143.85 139.19 143.64 C 138.24 143.43 137.29 144.03 137.08 144.99 Z M 136.85 146.02 L 136.65 146.94 C 136.43 147.90 137.03 148.84 137.99 149.06 C 138.94 149.27 139.89 148.67 140.10 147.72 L 140.31 146.79 C 140.52 145.84 139.92 144.89 138.97 144.68 C 138.02 144.46 137.07 145.06 136.85 146.02 Z M 136.64 146.94 L 136.43 147.88 C 136.21 148.83 136.81 149.78 137.76 150.00 C 138.72 150.22 139.67 149.62 139.89 148.67 L 140.10 147.73 C 140.32 146.77 139.72 145.82 138.77 145.60 C 137.81 145.38 136.86 145.98 136.64 146.94 Z M 136.43 147.88 L 136.20 148.86 C 135.98 149.81 136.58 150.76 137.54 150.98 C 138.49 151.20 139.44 150.61 139.66 149.65 L 139.89 148.67 C 140.11 147.72 139.51 146.76 138.56 146.54 C 137.60 146.32 136.65 146.92 136.43 147.88 Z M 136.20 148.86 L 135.96 149.88 C 135.74 150.84 136.34 151.80 137.30 152.02 C 138.25 152.24 139.21 151.64 139.43 150.68 L 139.66 149.65 C 139.89 148.70 139.29 147.74 138.33 147.52 C 137.38 147.30 136.42 147.90 136.20 148.86 Z M 135.96 149.89 L 135.74 150.84 C 135.52 151.80 136.12 152.75 137.08 152.97 C 138.04 153.19 138.99 152.59 139.21 151.64 L 139.43 150.68 C 139.65 149.72 139.05 148.77 138.09 148.55 C 137.14 148.33 136.18 148.93 135.96 149.89 Z M 135.74 150.84 L 135.53 151.77 C 135.31 152.73 135.91 153.69 136.87 153.91 C 137.82 154.13 138.78 153.53 139.00 152.57 L 139.21 151.64 C 139.43 150.68 138.83 149.72 137.87 149.50 C 136.92 149.28 135.96 149.88 135.74 150.84 Z M 135.53 151.77 L 135.31 152.74 C 135.08 153.70 135.68 154.65 136.64 154.87 C 137.60 155.10 138.55 154.50 138.77 153.54 L 139.00 152.57 C 139.22 151.61 138.62 150.66 137.66 150.44 C 136.70 150.22 135.75 150.81 135.53 151.77 Z M 135.31 152.74 L 135.07 153.73 C 134.85 154.69 135.45 155.65 136.41 155.87 C 137.36 156.09 138.32 155.50 138.54 154.54 L 138.77 153.54 C 139.00 152.59 138.40 151.63 137.44 151.41 C 136.49 151.18 135.53 151.78 135.31 152.74 Z M 135.07 153.73 L 134.83 154.75 C 134.61 155.71 135.20 156.66 136.16 156.89 C 137.12 157.12 138.08 156.52 138.30 155.57 L 138.54 154.55 C 138.77 153.59 138.17 152.63 137.22 152.40 C 136.26 152.18 135.30 152.77 135.07 153.73 Z M 134.84 154.74 L 134.60 155.73 C 134.37 156.69 134.96 157.65 135.91 157.88 C 136.87 158.11 137.83 157.52 138.06 156.56 L 138.30 155.57 C 138.53 154.62 137.94 153.65 136.98 153.42 C 136.03 153.19 135.06 153.78 134.84 154.74 Z M 134.60 155.72 L 134.36 156.68 C 134.13 157.64 134.72 158.61 135.67 158.84 C 136.63 159.07 137.59 158.49 137.83 157.53 L 138.06 156.57 C 138.30 155.61 137.71 154.65 136.75 154.41 C 135.80 154.18 134.83 154.77 134.60 155.72 Z M 134.37 156.68 L 134.12 157.65 C 133.89 158.60 134.47 159.57 135.42 159.81 C 136.38 160.05 137.35 159.46 137.58 158.51 L 137.83 157.54 C 138.06 156.58 137.48 155.61 136.53 155.38 C 135.57 155.14 134.60 155.72 134.37 156.68 Z M 134.12 157.64 L 133.88 158.62 C 133.64 159.57 134.22 160.54 135.17 160.78 C 136.13 161.02 137.10 160.45 137.34 159.49 L 137.58 158.51 C 137.82 157.56 137.25 156.59 136.29 156.35 C 135.34 156.11 134.37 156.69 134.12 157.64 Z M 133.88 158.61 L 133.63 159.59 C 133.39 160.54 133.96 161.51 134.92 161.76 C 135.87 162.00 136.84 161.43 137.09 160.47 L 137.34 159.50 C 137.58 158.54 137.01 157.57 136.05 157.33 C 135.10 157.08 134.12 157.66 133.88 158.61 Z M 133.63 159.58 L 133.38 160.55 C 133.13 161.51 133.70 162.48 134.66 162.73 C 135.61 162.98 136.58 162.41 136.83 161.45 L 137.09 160.48 C 137.33 159.53 136.76 158.55 135.81 158.30 C 134.85 158.05 133.88 158.63 133.63 159.58 Z M 133.38 160.55 L 133.12 161.52 C 132.87 162.47 133.44 163.45 134.39 163.70 C 135.35 163.95 136.32 163.38 136.58 162.43 L 136.83 161.46 C 137.08 160.51 136.51 159.53 135.56 159.28 C 134.61 159.03 133.63 159.59 133.38 160.55 Z M 133.12 161.51 L 132.86 162.48 C 132.61 163.43 133.18 164.41 134.13 164.67 C 135.08 164.92 136.06 164.36 136.32 163.40 L 136.57 162.44 C 136.83 161.48 136.26 160.50 135.31 160.25 C 134.36 160.00 133.38 160.56 133.12 161.51 Z M 132.87 162.48 L 132.61 163.44 C 132.35 164.39 132.91 165.37 133.86 165.63 C 134.82 165.89 135.80 165.33 136.05 164.37 L 136.31 163.41 C 136.57 162.46 136.01 161.48 135.06 161.22 C 134.10 160.96 133.12 161.52 132.87 162.48 Z M 132.61 163.44 L 132.34 164.40 C 132.08 165.35 132.64 166.33 133.60 166.59 C 134.55 166.85 135.53 166.29 135.79 165.34 L 136.05 164.38 C 136.31 163.43 135.75 162.44 134.80 162.18 C 133.85 161.92 132.87 162.48 132.61 163.44 Z M 132.34 164.39 L 132.08 165.35 C 131.82 166.31 132.37 167.29 133.32 167.55 C 134.28 167.82 135.26 167.26 135.52 166.31 L 135.79 165.34 C 136.05 164.39 135.49 163.41 134.54 163.15 C 133.59 162.88 132.61 163.44 132.34 164.39 Z M 132.08 165.35 L 131.82 166.29 C 131.55 167.25 132.11 168.23 133.06 168.50 C 134.01 168.76 135.00 168.21 135.26 167.25 L 135.52 166.31 C 135.79 165.36 135.23 164.37 134.28 164.11 C 133.33 163.84 132.34 164.40 132.08 165.35 Z M 131.82 166.29 L 131.56 167.21 C 131.29 168.16 131.85 169.15 132.80 169.42 C 133.75 169.68 134.73 169.13 135.00 168.18 L 135.26 167.26 C 135.53 166.31 134.97 165.32 134.02 165.05 C 133.07 164.79 132.08 165.34 131.82 166.29 Z M 131.56 167.21 L 131.30 168.15 C 131.03 169.10 131.58 170.08 132.53 170.35 C 133.48 170.62 134.47 170.07 134.74 169.12 L 135.00 168.18 C 135.27 167.23 134.71 166.24 133.76 165.98 C 132.81 165.71 131.83 166.26 131.56 167.21 Z M 131.30 168.14 L 131.03 169.10 C 130.76 170.05 131.31 171.04 132.26 171.30 C 133.21 171.57 134.20 171.02 134.47 170.07 L 134.74 169.12 C 135.00 168.17 134.45 167.18 133.50 166.91 C 132.55 166.64 131.56 167.19 131.30 168.14 Z M 131.03 169.10 L 130.75 170.07 C 130.48 171.02 131.03 172.01 131.98 172.28 C 132.93 172.55 133.92 172.00 134.19 171.05 L 134.47 170.07 C 134.74 169.12 134.18 168.13 133.23 167.86 C 132.28 167.59 131.30 168.15 131.03 169.10 Z M 130.75 170.07 L 130.46 171.09 C 130.19 172.04 130.75 173.02 131.70 173.29 C 132.65 173.56 133.63 173.01 133.90 172.06 L 134.19 171.05 C 134.46 170.10 133.91 169.11 132.96 168.84 C 132.01 168.57 131.02 169.13 130.75 170.07 Z M 130.46 171.09 L 130.19 172.06 C 129.92 173.01 130.47 173.99 131.42 174.26 C 132.37 174.53 133.36 173.98 133.63 173.03 L 133.90 172.06 C 134.17 171.11 133.62 170.12 132.67 169.85 C 131.72 169.58 130.73 170.14 130.46 171.09 Z M 130.19 172.06 L 129.93 172.99 C 129.66 173.94 130.21 174.93 131.16 175.20 C 132.11 175.47 133.10 174.91 133.36 173.96 L 133.63 173.03 C 133.90 172.08 133.34 171.09 132.39 170.82 C 131.44 170.55 130.46 171.11 130.19 172.06 Z M 129.93 172.99 L 129.66 173.95 C 129.39 174.90 129.94 175.89 130.89 176.16 C 131.84 176.42 132.83 175.87 133.09 174.92 L 133.36 173.96 C 133.63 173.02 133.08 172.03 132.13 171.76 C 131.18 171.49 130.19 172.05 129.93 172.99 Z M 129.66 173.95 L 129.38 174.92 C 129.11 175.87 129.67 176.86 130.62 177.13 C 131.56 177.40 132.55 176.84 132.82 175.89 L 133.09 174.92 C 133.36 173.97 132.81 172.99 131.86 172.72 C 130.91 172.45 129.92 173.00 129.66 173.95 Z M 129.38 174.92 L 129.11 175.90 C 128.84 176.85 129.39 177.84 130.34 178.11 C 131.29 178.37 132.27 177.82 132.54 176.87 L 132.82 175.89 C 133.08 174.95 132.53 173.96 131.58 173.69 C 130.64 173.43 129.65 173.98 129.38 174.92 Z M 129.11 175.90 L 128.83 176.88 C 128.56 177.83 129.11 178.82 130.06 179.08 C 131.01 179.35 131.99 178.80 132.26 177.85 L 132.54 176.87 C 132.81 175.93 132.26 174.94 131.31 174.67 C 130.36 174.41 129.38 174.96 129.11 175.90 Z M 128.83 176.88 L 128.56 177.85 C 128.29 178.80 128.84 179.79 129.78 180.06 C 130.73 180.32 131.72 179.77 131.98 178.83 L 132.26 177.85 C 132.53 176.91 131.98 175.92 131.03 175.65 C 130.09 175.39 129.10 175.93 128.83 176.88 Z M 128.56 177.85 L 128.27 178.84 C 128.01 179.79 128.55 180.77 129.50 181.04 C 130.45 181.31 131.43 180.76 131.70 179.82 L 131.98 178.83 C 132.25 177.88 131.70 176.90 130.76 176.63 C 129.81 176.36 128.83 176.91 128.56 177.85 Z M 128.28 178.84 L 127.99 179.82 C 127.72 180.77 128.27 181.75 129.21 182.02 C 130.16 182.30 131.15 181.75 131.42 180.80 L 131.70 179.82 C 131.97 178.88 131.43 177.89 130.48 177.62 C 129.53 177.35 128.55 177.89 128.28 178.84 Z M 128.00 179.81 L 127.71 180.78 C 127.44 181.72 127.98 182.71 128.93 182.99 C 129.87 183.27 130.86 182.72 131.14 181.78 L 131.42 180.81 C 131.69 179.86 131.15 178.88 130.21 178.60 C 129.26 178.32 128.27 178.87 128.00 179.81 Z M 127.72 180.77 L 127.43 181.73 C 127.15 182.67 127.69 183.66 128.63 183.94 C 129.58 184.22 130.57 183.68 130.85 182.74 L 131.13 181.79 C 131.41 180.84 130.88 179.85 129.93 179.57 C 128.99 179.29 128.00 179.83 127.72 180.77 Z M 127.44 181.71 L 127.15 182.66 C 126.86 183.60 127.39 184.60 128.33 184.88 C 129.28 185.17 130.27 184.64 130.56 183.70 L 130.85 182.75 C 131.13 181.81 130.60 180.81 129.66 180.53 C 128.72 180.24 127.72 180.77 127.44 181.71 Z M 127.15 182.64 L 126.86 183.58 C 126.56 184.52 127.09 185.52 128.03 185.81 C 128.97 186.11 129.97 185.59 130.26 184.65 L 130.56 183.71 C 130.85 182.77 130.33 181.77 129.39 181.48 C 128.45 181.18 127.45 181.70 127.15 182.64 Z M 126.86 183.56 L 126.56 184.50 C 126.25 185.43 126.77 186.44 127.70 186.75 C 128.64 187.05 129.65 186.54 129.95 185.60 L 130.26 184.66 C 130.56 183.73 130.05 182.72 129.11 182.41 C 128.18 182.11 127.17 182.62 126.86 183.56 Z M 126.57 184.48 L 126.24 185.43 C 125.93 186.37 126.43 187.38 127.36 187.70 C 128.29 188.01 129.30 187.51 129.62 186.58 L 129.94 185.62 C 130.26 184.69 129.76 183.68 128.83 183.36 C 127.89 183.04 126.88 183.54 126.57 184.48 Z M 126.25 185.42 L 125.92 186.36 C 125.59 187.29 126.08 188.31 127.01 188.64 C 127.94 188.96 128.95 188.47 129.28 187.55 L 129.61 186.60 C 129.94 185.67 129.45 184.65 128.52 184.32 C 127.59 184.00 126.58 184.49 126.25 185.42 Z M 125.92 186.35 L 125.58 187.29 C 125.25 188.21 125.72 189.23 126.65 189.57 C 127.57 189.91 128.59 189.43 128.93 188.50 L 129.27 187.56 C 129.61 186.64 129.13 185.62 128.21 185.28 C 127.28 184.94 126.26 185.42 125.92 186.35 Z M 125.59 187.27 L 125.24 188.20 C 124.89 189.12 125.36 190.15 126.28 190.50 C 127.20 190.84 128.23 190.38 128.57 189.46 L 128.92 188.52 C 129.27 187.60 128.80 186.58 127.88 186.23 C 126.96 185.88 125.94 186.35 125.59 187.27 Z M 125.25 188.19 L 124.89 189.11 C 124.53 190.03 124.99 191.06 125.90 191.41 C 126.82 191.77 127.85 191.31 128.20 190.40 L 128.56 189.47 C 128.92 188.56 128.46 187.53 127.55 187.17 C 126.63 186.81 125.60 187.27 125.25 188.19 Z M 124.89 189.09 L 124.53 190.01 C 124.16 190.92 124.61 191.96 125.52 192.32 C 126.43 192.69 127.46 192.24 127.83 191.33 L 128.20 190.41 C 128.56 189.50 128.12 188.47 127.21 188.10 C 126.29 187.74 125.26 188.18 124.89 189.09 Z M 124.53 190.00 L 124.16 190.91 C 123.78 191.82 124.22 192.86 125.13 193.23 C 126.03 193.60 127.07 193.17 127.45 192.26 L 127.82 191.35 C 128.20 190.44 127.76 189.40 126.86 189.03 C 125.95 188.65 124.91 189.09 124.53 190.00 Z M 124.17 190.90 L 123.78 191.81 C 123.40 192.71 123.82 193.75 124.73 194.13 C 125.63 194.52 126.67 194.09 127.05 193.19 L 127.44 192.28 C 127.82 191.37 127.40 190.33 126.49 189.95 C 125.59 189.57 124.55 189.99 124.17 190.90 Z M 123.79 191.79 L 123.39 192.70 C 123.00 193.60 123.42 194.65 124.32 195.04 C 125.22 195.43 126.27 195.01 126.65 194.11 L 127.05 193.20 C 127.44 192.30 127.02 191.26 126.12 190.87 C 125.22 190.48 124.18 190.89 123.79 191.79 Z M 123.40 192.69 L 123.00 193.61 C 122.60 194.50 123.01 195.55 123.91 195.95 C 124.80 196.34 125.85 195.94 126.25 195.04 L 126.65 194.12 C 127.04 193.23 126.64 192.18 125.74 191.78 C 124.84 191.39 123.79 191.80 123.40 192.69 Z M 123.00 193.60 L 122.59 194.52 C 122.19 195.41 122.59 196.46 123.48 196.86 C 124.38 197.26 125.43 196.86 125.83 195.97 L 126.24 195.05 C 126.64 194.15 126.24 193.10 125.35 192.70 C 124.45 192.30 123.40 192.70 123.00 193.60 Z M 122.59 194.51 L 122.17 195.44 C 121.77 196.33 122.16 197.38 123.05 197.79 C 123.95 198.19 125.00 197.80 125.40 196.90 L 125.83 195.97 C 126.23 195.08 125.83 194.03 124.94 193.63 C 124.05 193.22 123.00 193.62 122.59 194.51 Z M 122.18 195.43 L 121.77 196.31 C 121.36 197.20 121.76 198.26 122.65 198.66 C 123.54 199.07 124.59 198.68 125.00 197.79 L 125.40 196.91 C 125.81 196.02 125.42 194.97 124.53 194.56 C 123.64 194.15 122.58 194.54 122.18 195.43 Z M 121.78 196.31 L 121.37 197.19 C 120.96 198.08 121.34 199.13 122.23 199.55 C 123.12 199.96 124.17 199.57 124.59 198.68 L 124.99 197.80 C 125.40 196.91 125.02 195.85 124.13 195.44 C 123.24 195.03 122.19 195.42 121.78 196.31 Z M 121.37 197.19 L 120.95 198.08 C 120.54 198.97 120.93 200.02 121.81 200.44 C 122.70 200.85 123.75 200.47 124.17 199.58 L 124.58 198.68 C 124.99 197.80 124.61 196.74 123.72 196.33 C 122.84 195.92 121.78 196.30 121.37 197.19 Z M 120.96 198.08 L 120.53 198.99 C 120.12 199.87 120.50 200.93 121.38 201.34 C 122.27 201.76 123.32 201.37 123.74 200.49 L 124.16 199.58 C 124.58 198.70 124.20 197.64 123.31 197.23 C 122.42 196.81 121.37 197.20 120.96 198.08 Z M 120.53 198.98 L 120.10 199.90 C 119.69 200.79 120.07 201.84 120.95 202.26 C 121.83 202.67 122.89 202.29 123.30 201.41 L 123.74 200.49 C 124.15 199.61 123.77 198.55 122.89 198.14 C 122.00 197.72 120.95 198.10 120.53 198.98 Z M 120.11 199.90 L 119.67 200.83 C 119.25 201.71 119.63 202.76 120.51 203.18 C 121.39 203.60 122.44 203.22 122.86 202.34 L 123.30 201.41 C 123.72 200.53 123.34 199.48 122.46 199.06 C 121.58 198.64 120.52 199.02 120.11 199.90 Z M 119.67 200.83 L 119.23 201.75 C 118.81 202.63 119.18 203.69 120.07 204.11 C 120.95 204.53 122.00 204.15 122.42 203.27 L 122.86 202.34 C 123.28 201.46 122.90 200.41 122.02 199.99 C 121.14 199.57 120.09 199.94 119.67 200.83 Z M 119.23 201.75 L 118.81 202.63 C 118.39 203.51 118.76 204.56 119.64 204.98 C 120.52 205.40 121.58 205.03 122.00 204.15 L 122.42 203.27 C 122.84 202.39 122.46 201.34 121.58 200.92 C 120.70 200.50 119.65 200.87 119.23 201.75 Z M 118.81 202.63 L 118.39 203.52 C 117.96 204.39 118.33 205.45 119.21 205.87 C 120.09 206.29 121.14 205.92 121.56 205.04 L 121.99 204.16 C 122.41 203.28 122.05 202.23 121.17 201.80 C 120.29 201.38 119.24 201.75 118.81 202.63 Z M 118.39 203.51 L 117.96 204.40 C 117.53 205.28 117.89 206.33 118.77 206.76 C 119.64 207.18 120.70 206.82 121.12 205.95 L 121.56 205.05 C 121.99 204.18 121.62 203.12 120.75 202.70 C 119.87 202.27 118.82 202.63 118.39 203.51 Z M 117.96 204.39 L 117.52 205.29 C 117.09 206.16 117.44 207.22 118.31 207.65 C 119.19 208.08 120.24 207.72 120.67 206.85 L 121.12 205.95 C 121.55 205.08 121.19 204.03 120.32 203.60 C 119.45 203.17 118.39 203.52 117.96 204.39 Z M 117.53 205.28 L 117.07 206.18 C 116.63 207.05 116.98 208.11 117.85 208.54 C 118.72 208.98 119.77 208.63 120.21 207.77 L 120.67 206.86 C 121.10 206.00 120.75 204.94 119.89 204.50 C 119.02 204.06 117.96 204.41 117.53 205.28 Z M 117.08 206.17 L 116.61 207.07 C 116.17 207.93 116.51 208.99 117.37 209.44 C 118.23 209.88 119.29 209.54 119.74 208.68 L 120.20 207.78 C 120.65 206.92 120.31 205.86 119.45 205.41 C 118.58 204.97 117.52 205.31 117.08 206.17 Z M 116.62 207.05 L 116.15 207.96 C 115.69 208.81 116.02 209.87 116.88 210.33 C 117.73 210.78 118.79 210.46 119.25 209.60 L 119.73 208.70 C 120.18 207.84 119.85 206.78 119.00 206.32 C 118.14 205.87 117.08 206.20 116.62 207.05 Z M 116.16 207.94 L 115.66 208.85 C 115.20 209.70 115.51 210.76 116.36 211.23 C 117.21 211.69 118.28 211.38 118.74 210.53 L 119.24 209.62 C 119.70 208.77 119.39 207.70 118.54 207.24 C 117.69 206.77 116.62 207.09 116.16 207.94 Z M 115.67 208.83 L 115.17 209.73 C 114.69 210.58 114.99 211.64 115.84 212.12 C 116.68 212.59 117.75 212.29 118.22 211.45 L 118.73 210.54 C 119.20 209.70 118.90 208.63 118.06 208.16 C 117.22 207.69 116.15 207.99 115.67 208.83 Z M 115.18 209.71 L 114.66 210.60 C 114.18 211.44 114.47 212.51 115.30 213.00 C 116.14 213.48 117.21 213.19 117.69 212.36 L 118.21 211.47 C 118.69 210.63 118.41 209.56 117.57 209.07 C 116.73 208.59 115.66 208.88 115.18 209.71 Z M 114.68 210.58 L 114.16 211.46 C 113.66 212.29 113.93 213.36 114.76 213.85 C 115.59 214.35 116.67 214.08 117.16 213.25 L 117.68 212.38 C 118.18 211.55 117.90 210.47 117.08 209.98 C 116.25 209.48 115.17 209.75 114.68 210.58 Z M 114.17 211.44 L 113.65 212.28 C 113.14 213.11 113.40 214.18 114.22 214.69 C 115.04 215.19 116.12 214.94 116.63 214.11 L 117.15 213.27 C 117.65 212.45 117.40 211.37 116.58 210.86 C 115.75 210.36 114.68 210.61 114.17 211.44 Z M 113.67 212.26 L 113.15 213.08 C 112.63 213.89 112.87 214.97 113.68 215.49 C 114.49 216.01 115.57 215.77 116.09 214.95 L 116.61 214.14 C 117.13 213.32 116.89 212.24 116.08 211.73 C 115.26 211.21 114.18 211.45 113.67 212.26 Z M 113.16 213.06 L 112.65 213.84 C 112.12 214.64 112.34 215.72 113.14 216.26 C 113.95 216.79 115.03 216.56 115.56 215.76 L 116.07 214.98 C 116.60 214.17 116.38 213.09 115.58 212.56 C 114.77 212.03 113.69 212.25 113.16 213.06 Z M 112.67 213.81 L 112.07 214.68 C 111.52 215.47 111.72 216.56 112.52 217.10 C 113.31 217.65 114.39 217.45 114.94 216.65 L 115.54 215.79 C 116.08 214.99 115.88 213.91 115.09 213.36 C 114.30 212.82 113.21 213.02 112.67 213.81 Z M 112.09 214.65 L 111.48 215.50 C 110.92 216.28 111.10 217.36 111.88 217.92 C 112.66 218.48 113.75 218.31 114.31 217.53 L 114.92 216.68 C 115.48 215.90 115.30 214.81 114.52 214.25 C 113.74 213.69 112.65 213.87 112.09 214.65 Z M 111.50 215.47 L 110.91 216.28 C 110.33 217.05 110.49 218.14 111.26 218.71 C 112.03 219.28 113.12 219.12 113.69 218.35 L 114.29 217.55 C 114.86 216.78 114.70 215.69 113.93 215.12 C 113.16 214.54 112.08 214.70 111.50 215.47 Z M 110.92 216.26 L 110.33 217.04 C 109.75 217.80 109.89 218.89 110.66 219.47 C 111.42 220.05 112.51 219.91 113.09 219.14 L 113.68 218.37 C 114.26 217.61 114.11 216.52 113.35 215.94 C 112.59 215.36 111.50 215.50 110.92 216.26 Z M 110.34 217.03 L 109.75 217.79 C 109.16 218.55 109.30 219.64 110.06 220.22 C 110.82 220.81 111.91 220.67 112.49 219.91 L 113.08 219.15 C 113.66 218.39 113.52 217.31 112.77 216.72 C 112.01 216.14 110.92 216.28 110.34 217.03 Z M 109.75 217.80 L 109.17 218.55 C 108.58 219.31 108.72 220.40 109.48 220.98 C 110.24 221.56 111.32 221.42 111.91 220.67 L 112.49 219.91 C 113.07 219.15 112.93 218.07 112.18 217.48 C 111.42 216.90 110.33 217.04 109.75 217.80 Z M 109.16 218.56 L 108.57 219.35 C 107.99 220.11 108.14 221.19 108.89 221.77 C 109.65 222.35 110.74 222.20 111.32 221.44 L 111.91 220.66 C 112.49 219.90 112.34 218.81 111.58 218.23 C 110.82 217.66 109.74 217.80 109.16 218.56 Z M 108.56 219.36 L 107.96 220.15 C 107.39 220.92 107.55 222.00 108.31 222.57 C 109.08 223.14 110.16 222.99 110.73 222.22 L 111.32 221.43 C 111.89 220.66 111.74 219.58 110.97 219.01 C 110.21 218.44 109.13 218.60 108.56 219.36 Z M 107.96 220.17 L 107.37 220.97 C 106.80 221.74 106.97 222.82 107.74 223.39 C 108.51 223.95 109.59 223.78 110.15 223.01 L 110.74 222.21 C 111.30 221.44 111.13 220.36 110.37 219.80 C 109.60 219.23 108.52 219.40 107.96 220.17 Z M 107.36 220.99 L 106.77 221.81 C 106.22 222.58 106.40 223.66 107.17 224.21 C 107.94 224.76 109.02 224.59 109.57 223.81 L 110.16 223.00 C 110.71 222.22 110.53 221.15 109.76 220.59 C 108.99 220.04 107.91 220.22 107.36 220.99 Z M 106.76 221.82 L 106.18 222.65 C 105.64 223.43 105.83 224.50 106.61 225.05 C 107.39 225.59 108.46 225.40 109.01 224.62 L 109.58 223.79 C 110.13 223.01 109.94 221.94 109.16 221.40 C 108.38 220.85 107.31 221.04 106.76 221.82 Z M 106.17 222.67 L 105.61 223.51 C 105.07 224.29 105.28 225.36 106.06 225.89 C 106.85 226.43 107.92 226.22 108.45 225.44 L 109.02 224.60 C 109.55 223.82 109.35 222.75 108.56 222.21 C 107.78 221.68 106.71 221.88 106.17 222.67 Z M 105.60 223.53 L 105.04 224.37 C 104.52 225.16 104.74 226.22 105.53 226.74 C 106.32 227.27 107.39 227.05 107.91 226.26 L 108.46 225.42 C 108.99 224.62 108.77 223.56 107.97 223.04 C 107.18 222.52 106.12 222.73 105.60 223.53 Z M 105.03 224.38 L 104.49 225.23 C 103.98 226.03 104.21 227.09 105.01 227.60 C 105.80 228.11 106.87 227.88 107.38 227.08 L 107.92 226.24 C 108.43 225.44 108.20 224.38 107.40 223.87 C 106.61 223.35 105.55 223.59 105.03 224.38 Z M 104.48 225.25 L 103.95 226.10 C 103.45 226.90 103.69 227.95 104.49 228.46 C 105.29 228.96 106.35 228.72 106.85 227.92 L 107.39 227.07 C 107.89 226.27 107.65 225.21 106.85 224.70 C 106.04 224.20 104.99 224.44 104.48 225.25 Z M 103.94 226.11 L 103.42 226.96 C 102.92 227.77 103.17 228.82 103.98 229.32 C 104.78 229.81 105.84 229.56 106.33 228.76 L 106.86 227.90 C 107.35 227.10 107.10 226.04 106.30 225.55 C 105.49 225.05 104.44 225.30 103.94 226.11 Z M 103.41 226.97 L 102.90 227.82 C 102.41 228.63 102.67 229.68 103.47 230.17 C 104.28 230.66 105.33 230.40 105.82 229.59 L 106.34 228.74 C 106.83 227.94 106.57 226.89 105.76 226.40 C 104.95 225.91 103.90 226.16 103.41 226.97 Z M 102.90 227.83 L 102.38 228.70 C 101.89 229.51 102.16 230.55 102.96 231.04 C 103.77 231.52 104.82 231.26 105.31 230.45 L 105.83 229.59 C 106.31 228.78 106.05 227.73 105.24 227.24 C 104.43 226.76 103.38 227.02 102.90 227.83 Z M 102.38 228.70 L 101.85 229.59 C 101.37 230.40 101.63 231.45 102.44 231.93 C 103.25 232.41 104.30 232.14 104.78 231.33 L 105.31 230.44 C 105.79 229.64 105.52 228.59 104.71 228.11 C 103.90 227.63 102.86 227.89 102.38 228.70 Z M 101.85 229.60 L 101.33 230.47 C 100.85 231.28 101.12 232.33 101.93 232.80 C 102.74 233.28 103.78 233.01 104.26 232.21 L 104.78 231.33 C 105.26 230.52 104.99 229.48 104.18 229.00 C 103.37 228.52 102.33 228.79 101.85 229.60 Z M 101.33 230.47 L 100.82 231.33 C 100.35 232.14 100.61 233.18 101.42 233.66 C 102.23 234.14 103.27 233.87 103.75 233.06 L 104.26 232.20 C 104.74 231.40 104.47 230.35 103.66 229.88 C 102.85 229.40 101.81 229.67 101.33 230.47 Z M 100.83 231.33 L 100.33 232.17 C 99.85 232.98 100.11 234.02 100.92 234.50 C 101.73 234.98 102.77 234.71 103.25 233.91 L 103.75 233.07 C 104.23 232.26 103.96 231.22 103.16 230.74 C 102.35 230.26 101.31 230.53 100.83 231.33 Z M 100.33 232.17 L 99.84 232.99 C 99.36 233.79 99.62 234.83 100.42 235.31 C 101.23 235.79 102.27 235.53 102.75 234.73 L 103.24 233.91 C 103.72 233.11 103.46 232.07 102.66 231.59 C 101.86 231.10 100.82 231.36 100.33 232.17 Z M 99.85 232.98 L 99.30 233.88 C 98.81 234.68 99.06 235.72 99.86 236.21 C 100.66 236.69 101.70 236.44 102.19 235.64 L 102.74 234.74 C 103.23 233.94 102.98 232.90 102.18 232.41 C 101.38 231.93 100.34 232.18 99.85 232.98 Z M 99.31 233.87 L 98.77 234.74 C 98.27 235.53 98.51 236.57 99.30 237.07 C 100.09 237.56 101.14 237.32 101.63 236.53 L 102.18 235.66 C 102.67 234.87 102.43 233.82 101.64 233.33 C 100.85 232.83 99.81 233.07 99.31 233.87 Z M 98.78 234.72 L 98.24 235.56 C 97.74 236.34 97.97 237.39 98.75 237.89 C 99.53 238.39 100.58 238.17 101.08 237.38 L 101.62 236.54 C 102.12 235.76 101.89 234.72 101.11 234.21 C 100.33 233.71 99.28 233.94 98.78 234.72 Z M 98.26 235.54 L 97.72 236.35 C 97.21 237.12 97.42 238.17 98.20 238.68 C 98.97 239.19 100.02 238.98 100.53 238.21 L 101.06 237.40 C 101.58 236.63 101.37 235.58 100.59 235.07 C 99.81 234.55 98.77 234.77 98.26 235.54 Z M 97.74 236.33 L 97.19 237.13 C 96.67 237.90 96.86 238.94 97.63 239.47 C 98.39 239.99 99.44 239.80 99.96 239.03 L 100.51 238.23 C 101.04 237.46 100.84 236.42 100.08 235.89 C 99.31 235.37 98.27 235.56 97.74 236.33 Z M 97.21 237.11 L 96.58 238.00 C 96.04 238.75 96.21 239.80 96.96 240.34 C 97.72 240.87 98.76 240.70 99.30 239.95 L 99.94 239.06 C 100.48 238.31 100.30 237.26 99.55 236.72 C 98.80 236.18 97.75 236.36 97.21 237.11 Z M 96.60 237.97 L 95.99 238.79 C 95.43 239.53 95.58 240.58 96.32 241.13 C 97.05 241.68 98.10 241.54 98.65 240.80 L 99.27 239.98 C 99.83 239.24 99.68 238.19 98.94 237.64 C 98.20 237.09 97.16 237.24 96.60 237.97 Z M 96.02 238.76 L 95.43 239.50 C 94.86 240.22 94.98 241.27 95.70 241.84 C 96.42 242.41 97.47 242.29 98.04 241.57 L 98.62 240.83 C 99.19 240.11 99.07 239.06 98.35 238.49 C 97.63 237.92 96.59 238.04 96.02 238.76 Z M 95.47 239.46 L 94.84 240.20 C 94.25 240.90 94.34 241.94 95.03 242.54 C 95.73 243.13 96.78 243.04 97.37 242.35 L 97.99 241.61 C 98.59 240.91 98.50 239.87 97.81 239.28 C 97.11 238.68 96.06 238.77 95.47 239.46 Z M 94.91 240.14 L 94.18 240.91 C 93.56 241.58 93.59 242.62 94.25 243.24 C 94.91 243.87 95.95 243.84 96.58 243.17 L 97.30 242.40 C 97.93 241.74 97.90 240.70 97.24 240.08 C 96.57 239.45 95.53 239.48 94.91 240.14 Z M 94.25 240.85 L 93.59 241.48 C 92.93 242.10 92.91 243.14 93.53 243.80 C 94.15 244.45 95.19 244.48 95.84 243.86 L 96.51 243.23 C 97.16 242.61 97.19 241.58 96.57 240.92 C 95.95 240.26 94.91 240.23 94.25 240.85 Z M 93.65 241.44 L 92.94 242.06 C 92.26 242.65 92.19 243.68 92.77 244.35 C 93.36 245.03 94.39 245.11 95.07 244.52 L 95.78 243.90 C 96.46 243.31 96.54 242.29 95.95 241.61 C 95.36 240.93 94.33 240.85 93.65 241.44 Z M 93.02 242.01 L 92.23 242.62 C 91.52 243.16 91.39 244.18 91.94 244.88 C 92.49 245.59 93.50 245.72 94.21 245.17 L 94.99 244.57 C 95.70 244.02 95.83 243.01 95.28 242.30 C 94.74 241.59 93.72 241.46 93.02 242.01 Z M 92.34 242.56 L 91.40 243.18 C 90.66 243.67 90.46 244.66 90.95 245.39 C 91.43 246.13 92.43 246.34 93.16 245.85 L 94.10 245.23 C 94.84 244.74 95.04 243.75 94.55 243.01 C 94.07 242.28 93.08 242.07 92.34 242.56 Z M 91.58 243.11 L 90.62 243.59 C 89.84 243.98 89.53 244.93 89.92 245.70 C 90.31 246.48 91.26 246.79 92.03 246.40 L 92.99 245.92 C 93.76 245.53 94.07 244.58 93.68 243.81 C 93.29 243.03 92.35 242.72 91.58 243.11 Z M 91.51 243.48 L 90.87 243.40 C 90.03 243.29 89.26 243.89 89.16 244.73 C 89.06 245.57 89.65 246.33 90.49 246.44 L 91.14 246.52 C 91.98 246.62 92.74 246.02 92.85 245.18 C 92.95 244.34 92.35 243.58 91.51 243.48 Z M 92.17 244.93 L 92.18 243.97 C 92.19 243.14 91.53 242.47 90.71 242.46 C 89.89 242.45 89.21 243.11 89.20 243.93 L 89.19 244.90 C 89.18 245.72 89.84 246.40 90.66 246.41 C 91.49 246.42 92.16 245.76 92.17 244.93 Z"
      fill="black"
      fill-rule="nonzero" /><path d="M 189.77 131.49 L 188.80 131.25 C 188.00 131.05 187.18 131.54 186.98 132.34 C 186.77 133.15 187.26 133.97 188.07 134.17 L 189.03 134.41 C 189.84 134.62 190.66 134.13 190.86 133.32 C 191.06 132.51 190.57 131.70 189.77 131.49 Z M 188.84 131.26 L 187.88 130.99 C 187.08 130.77 186.25 131.23 186.02 132.03 C 185.80 132.83 186.26 133.66 187.06 133.89 L 188.03 134.16 C 188.83 134.38 189.66 133.92 189.88 133.12 C 190.11 132.32 189.64 131.49 188.84 131.26 Z M 187.94 131.01 L 186.85 130.65 C 186.06 130.39 185.21 130.82 184.95 131.61 C 184.69 132.40 185.12 133.26 185.91 133.52 L 187.00 133.87 C 187.79 134.13 188.65 133.70 188.91 132.91 C 189.17 132.12 188.73 131.26 187.94 131.01 Z M 186.61 130.58 L 185.72 130.44 C 184.89 130.31 184.11 130.88 183.98 131.71 C 183.85 132.54 184.42 133.31 185.25 133.44 L 186.15 133.58 C 186.98 133.71 187.75 133.15 187.88 132.32 C 188.01 131.49 187.44 130.71 186.61 130.58 Z M 184.10 131.27 L 183.79 131.90 C 183.42 132.67 183.75 133.59 184.52 133.96 C 185.28 134.33 186.21 134.00 186.57 133.24 L 186.88 132.61 C 187.25 131.84 186.92 130.92 186.15 130.55 C 185.39 130.18 184.46 130.51 184.10 131.27 Z M 183.65 132.92 L 183.90 134.02 C 184.10 134.86 184.94 135.39 185.79 135.20 C 186.64 135.00 187.17 134.16 186.97 133.31 L 186.72 132.22 C 186.52 131.37 185.68 130.84 184.83 131.03 C 183.99 131.23 183.46 132.07 183.65 132.92 Z M 183.95 134.26 L 184.32 135.18 C 184.65 135.99 185.58 136.39 186.40 136.06 C 187.22 135.73 187.62 134.80 187.29 133.98 L 186.92 133.07 C 186.59 132.25 185.66 131.85 184.84 132.18 C 184.02 132.51 183.62 133.44 183.95 134.26 Z M 184.35 135.28 L 184.78 136.18 C 185.17 136.98 186.13 137.32 186.94 136.93 C 187.74 136.54 188.08 135.58 187.69 134.77 L 187.26 133.88 C 186.87 133.07 185.91 132.74 185.10 133.12 C 184.30 133.51 183.96 134.47 184.35 135.28 Z M 184.79 136.21 L 185.23 137.09 C 185.64 137.89 186.62 138.21 187.42 137.81 C 188.22 137.40 188.54 136.42 188.14 135.62 L 187.69 134.74 C 187.28 133.94 186.30 133.62 185.50 134.02 C 184.70 134.43 184.38 135.41 184.79 136.21 Z M 185.25 137.15 L 185.75 138.05 C 186.19 138.84 187.19 139.13 187.98 138.69 C 188.77 138.24 189.06 137.24 188.62 136.45 L 188.12 135.56 C 187.68 134.76 186.68 134.48 185.89 134.92 C 185.09 135.36 184.81 136.36 185.25 137.15 Z M 185.78 138.12 L 186.30 138.95 C 186.78 139.72 187.79 139.96 188.57 139.48 C 189.34 139.00 189.58 137.98 189.10 137.21 L 188.59 136.38 C 188.10 135.61 187.09 135.37 186.31 135.85 C 185.54 136.33 185.30 137.35 185.78 138.12 Z M 186.31 138.98 L 186.87 139.83 C 187.37 140.60 188.39 140.81 189.16 140.31 C 189.92 139.81 190.14 138.79 189.64 138.02 L 189.08 137.17 C 188.58 136.41 187.56 136.19 186.79 136.69 C 186.03 137.19 185.81 138.22 186.31 138.98 Z M 186.86 139.83 L 187.39 140.65 C 187.89 141.41 188.92 141.63 189.69 141.13 C 190.46 140.63 190.67 139.60 190.17 138.83 L 189.65 138.02 C 189.15 137.25 188.12 137.03 187.35 137.53 C 186.58 138.04 186.36 139.06 186.86 139.83 Z M 187.38 140.64 L 187.91 141.47 C 188.40 142.24 189.43 142.47 190.21 141.97 C 190.98 141.48 191.21 140.45 190.72 139.67 L 190.18 138.84 C 189.69 138.07 188.66 137.84 187.88 138.34 C 187.11 138.83 186.88 139.86 187.38 140.64 Z M 187.90 141.46 L 188.46 142.35 C 188.96 143.13 189.99 143.37 190.77 142.87 C 191.55 142.38 191.78 141.35 191.29 140.57 L 190.72 139.68 C 190.23 138.90 189.20 138.67 188.42 139.16 C 187.64 139.65 187.41 140.68 187.90 141.46 Z M 188.46 142.35 L 188.96 143.15 C 189.45 143.93 190.48 144.17 191.27 143.68 C 192.05 143.19 192.29 142.15 191.79 141.37 L 191.29 140.57 C 190.80 139.79 189.77 139.55 188.98 140.04 C 188.20 140.54 187.96 141.57 188.46 142.35 Z M 188.94 143.14 L 189.46 143.98 C 189.95 144.77 190.99 145.01 191.78 144.53 C 192.57 144.04 192.81 143.00 192.32 142.21 L 191.80 141.37 C 191.32 140.58 190.28 140.34 189.49 140.83 C 188.70 141.32 188.46 142.35 188.94 143.14 Z M 189.45 143.97 L 189.99 144.86 C 190.47 145.66 191.51 145.92 192.31 145.43 C 193.11 144.95 193.36 143.91 192.88 143.11 L 192.34 142.22 C 191.85 141.42 190.81 141.17 190.02 141.65 C 189.22 142.14 188.97 143.17 189.45 143.97 Z M 189.98 144.85 L 190.48 145.71 C 190.96 146.51 192.00 146.78 192.80 146.30 C 193.61 145.83 193.87 144.79 193.40 143.98 L 192.89 143.13 C 192.42 142.32 191.38 142.05 190.57 142.53 C 189.77 143.01 189.50 144.05 189.98 144.85 Z M 190.47 145.69 L 190.94 146.52 C 191.41 147.33 192.45 147.61 193.27 147.15 C 194.08 146.68 194.36 145.64 193.89 144.82 L 193.41 144.00 C 192.95 143.18 191.91 142.90 191.09 143.37 C 190.28 143.84 190.00 144.88 190.47 145.69 Z M 190.93 146.51 L 191.42 147.38 C 191.88 148.20 192.92 148.49 193.74 148.03 C 194.56 147.57 194.85 146.53 194.39 145.71 L 193.90 144.84 C 193.44 144.02 192.41 143.72 191.58 144.18 C 190.76 144.65 190.47 145.68 190.93 146.51 Z M 191.40 147.36 L 191.90 148.28 C 192.36 149.11 193.40 149.42 194.22 148.97 C 195.05 148.52 195.36 147.48 194.91 146.65 L 194.41 145.73 C 193.96 144.90 192.92 144.59 192.09 145.04 C 191.26 145.50 190.95 146.53 191.40 147.36 Z M 191.89 148.27 L 192.36 149.15 C 192.80 149.99 193.84 150.31 194.68 149.87 C 195.52 149.42 195.84 148.39 195.39 147.55 L 194.92 146.66 C 194.48 145.82 193.44 145.51 192.60 145.95 C 191.77 146.39 191.45 147.43 191.89 148.27 Z M 192.35 149.14 L 192.78 149.99 C 193.22 150.83 194.26 151.16 195.10 150.72 C 195.95 150.29 196.28 149.25 195.84 148.40 L 195.41 147.56 C 194.97 146.72 193.93 146.39 193.09 146.82 C 192.24 147.26 191.91 148.30 192.35 149.14 Z M 192.77 149.98 L 193.22 150.85 C 193.65 151.70 194.69 152.04 195.54 151.61 C 196.39 151.18 196.73 150.14 196.30 149.29 L 195.85 148.41 C 195.42 147.56 194.38 147.22 193.53 147.65 C 192.68 148.09 192.34 149.13 192.77 149.98 Z M 193.21 150.85 L 193.66 151.76 C 194.09 152.61 195.13 152.96 195.99 152.54 C 196.84 152.11 197.19 151.07 196.76 150.21 L 196.31 149.30 C 195.88 148.44 194.84 148.10 193.98 148.52 C 193.13 148.95 192.78 149.99 193.21 150.85 Z M 193.65 151.75 L 194.12 152.70 C 194.54 153.56 195.58 153.92 196.45 153.49 C 197.31 153.07 197.66 152.03 197.24 151.17 L 196.77 150.22 C 196.35 149.36 195.31 149.00 194.44 149.43 C 193.58 149.85 193.23 150.89 193.65 151.75 Z M 194.11 152.70 L 194.55 153.60 C 194.97 154.47 196.02 154.83 196.88 154.41 C 197.75 153.99 198.11 152.94 197.69 152.08 L 197.25 151.17 C 196.82 150.30 195.78 149.94 194.91 150.37 C 194.05 150.79 193.69 151.83 194.11 152.70 Z M 194.55 153.60 L 194.98 154.50 C 195.40 155.36 196.44 155.73 197.31 155.31 C 198.18 154.89 198.55 153.84 198.13 152.97 L 197.69 152.08 C 197.27 151.21 196.23 150.85 195.36 151.27 C 194.49 151.69 194.13 152.73 194.55 153.60 Z M 194.97 154.49 L 195.41 155.40 C 195.83 156.27 196.88 156.64 197.75 156.22 C 198.62 155.80 198.99 154.75 198.57 153.88 L 198.13 152.97 C 197.71 152.10 196.66 151.73 195.79 152.15 C 194.92 152.57 194.55 153.62 194.97 154.49 Z M 195.40 155.40 L 195.84 156.31 C 196.26 157.19 197.31 157.56 198.19 157.14 C 199.06 156.72 199.43 155.67 199.01 154.79 L 198.57 153.88 C 198.15 153.00 197.10 152.63 196.23 153.05 C 195.35 153.47 194.98 154.53 195.40 155.40 Z M 195.83 156.32 L 196.27 157.23 C 196.69 158.10 197.75 158.48 198.63 158.05 C 199.50 157.63 199.88 156.58 199.45 155.70 L 199.02 154.79 C 198.60 153.91 197.54 153.54 196.66 153.96 C 195.78 154.38 195.41 155.44 195.83 156.32 Z M 196.27 157.23 L 196.70 158.13 C 197.12 159.02 198.18 159.39 199.06 158.96 C 199.94 158.54 200.32 157.48 199.89 156.60 L 199.46 155.70 C 199.04 154.82 197.98 154.44 197.10 154.87 C 196.22 155.29 195.84 156.35 196.27 157.23 Z M 196.70 158.14 L 197.14 159.06 C 197.57 159.94 198.63 160.31 199.51 159.89 C 200.39 159.46 200.76 158.41 200.34 157.52 L 199.90 156.60 C 199.47 155.72 198.41 155.35 197.53 155.77 C 196.65 156.20 196.27 157.26 196.70 158.14 Z M 197.14 159.06 L 197.58 159.97 C 198.01 160.85 199.07 161.22 199.95 160.80 C 200.84 160.37 201.21 159.31 200.78 158.43 L 200.34 157.52 C 199.91 156.64 198.85 156.27 197.97 156.69 C 197.09 157.12 196.72 158.18 197.14 159.06 Z M 197.58 159.98 L 198.02 160.87 C 198.44 161.75 199.51 162.12 200.39 161.69 C 201.27 161.26 201.64 160.20 201.21 159.32 L 200.78 158.42 C 200.35 157.54 199.29 157.17 198.40 157.60 C 197.52 158.03 197.15 159.09 197.58 159.98 Z M 198.02 160.88 L 198.45 161.76 C 198.88 162.64 199.95 163.01 200.83 162.58 C 201.71 162.15 202.08 161.08 201.65 160.20 L 201.21 159.31 C 200.78 158.43 199.72 158.06 198.83 158.50 C 197.95 158.93 197.58 159.99 198.02 160.88 Z M 198.45 161.77 L 198.88 162.65 C 199.32 163.53 200.39 163.89 201.27 163.46 C 202.15 163.02 202.52 161.96 202.08 161.07 L 201.65 160.19 C 201.21 159.31 200.14 158.95 199.26 159.38 C 198.38 159.82 198.01 160.88 198.45 161.77 Z M 198.88 162.65 L 199.32 163.54 C 199.76 164.43 200.84 164.78 201.72 164.35 C 202.60 163.91 202.96 162.84 202.52 161.95 L 202.08 161.07 C 201.64 160.18 200.57 159.82 199.69 160.26 C 198.80 160.70 198.44 161.77 198.88 162.65 Z M 199.33 163.55 L 199.77 164.44 C 200.21 165.32 201.29 165.68 202.17 165.23 C 203.05 164.79 203.41 163.72 202.97 162.83 L 202.52 161.95 C 202.08 161.06 201.00 160.71 200.12 161.15 C 199.24 161.59 198.88 162.67 199.33 163.55 Z M 199.77 164.45 L 200.22 165.33 C 200.67 166.22 201.75 166.57 202.63 166.12 C 203.51 165.68 203.86 164.60 203.42 163.72 L 202.97 162.83 C 202.52 161.94 201.44 161.59 200.56 162.04 C 199.68 162.48 199.32 163.56 199.77 164.45 Z M 200.22 165.34 L 200.68 166.24 C 201.13 167.12 202.21 167.47 203.09 167.02 C 203.98 166.56 204.33 165.48 203.87 164.60 L 203.42 163.71 C 202.97 162.83 201.88 162.48 201.00 162.93 C 200.12 163.38 199.77 164.46 200.22 165.34 Z M 200.68 166.24 L 201.14 167.14 C 201.60 168.02 202.68 168.37 203.57 167.91 C 204.45 167.46 204.79 166.37 204.34 165.49 L 203.87 164.59 C 203.42 163.71 202.33 163.36 201.45 163.82 C 200.57 164.28 200.22 165.36 200.68 166.24 Z M 201.14 167.15 L 201.60 168.02 C 202.06 168.90 203.15 169.24 204.03 168.78 C 204.91 168.32 205.25 167.23 204.79 166.35 L 204.34 165.48 C 203.88 164.60 202.79 164.26 201.91 164.72 C 201.03 165.18 200.68 166.27 201.14 167.15 Z M 201.60 168.02 L 202.06 168.89 C 202.52 169.77 203.61 170.11 204.49 169.65 C 205.37 169.19 205.71 168.10 205.25 167.22 L 204.79 166.35 C 204.33 165.47 203.24 165.13 202.36 165.59 C 201.47 166.05 201.14 167.14 201.60 168.02 Z M 202.06 168.90 L 202.52 169.77 C 202.98 170.65 204.07 170.99 204.96 170.53 C 205.84 170.06 206.17 168.97 205.71 168.09 L 205.25 167.21 C 204.78 166.33 203.69 165.99 202.81 166.46 C 201.93 166.92 201.59 168.01 202.06 168.90 Z M 202.52 169.77 L 202.99 170.66 C 203.45 171.55 204.55 171.88 205.43 171.42 C 206.31 170.95 206.65 169.86 206.18 168.98 L 205.71 168.09 C 205.25 167.21 204.15 166.87 203.27 167.34 C 202.39 167.80 202.05 168.89 202.52 169.77 Z M 202.99 170.66 L 203.46 171.57 C 203.93 172.45 205.02 172.79 205.90 172.32 C 206.78 171.86 207.12 170.77 206.66 169.88 L 206.18 168.98 C 205.72 168.10 204.62 167.76 203.74 168.22 C 202.86 168.69 202.52 169.78 202.99 170.66 Z M 203.46 171.57 L 203.93 172.46 C 204.39 173.34 205.48 173.69 206.37 173.22 C 207.25 172.76 207.59 171.66 207.13 170.78 L 206.66 169.89 C 206.20 169.00 205.10 168.66 204.22 169.12 C 203.34 169.59 202.99 170.68 203.46 171.57 Z M 203.92 172.46 L 204.37 173.32 C 204.84 174.21 205.93 174.55 206.82 174.09 C 207.70 173.63 208.05 172.54 207.59 171.65 L 207.13 170.78 C 206.67 169.90 205.58 169.55 204.69 170.01 C 203.81 170.48 203.46 171.57 203.92 172.46 Z M 204.37 173.32 L 204.83 174.20 C 205.29 175.09 206.38 175.43 207.27 174.97 C 208.16 174.51 208.50 173.42 208.04 172.53 L 207.59 171.65 C 207.13 170.76 206.03 170.42 205.15 170.88 C 204.26 171.34 203.91 172.43 204.37 173.32 Z M 204.82 174.20 L 205.28 175.09 C 205.74 175.98 206.84 176.33 207.73 175.87 C 208.62 175.41 208.97 174.31 208.51 173.42 L 208.05 172.53 C 207.59 171.64 206.49 171.29 205.60 171.75 C 204.71 172.21 204.36 173.31 204.82 174.20 Z M 205.28 175.08 L 205.74 175.98 C 206.20 176.88 207.29 177.23 208.19 176.77 C 209.08 176.31 209.43 175.22 208.97 174.32 L 208.51 173.43 C 208.05 172.53 206.96 172.18 206.07 172.64 C 205.17 173.10 204.82 174.19 205.28 175.08 Z M 205.74 175.98 L 206.20 176.89 C 206.66 177.78 207.76 178.14 208.65 177.68 C 209.54 177.22 209.90 176.13 209.44 175.23 L 208.97 174.33 C 208.52 173.43 207.42 173.08 206.53 173.54 C 205.64 173.99 205.28 175.09 205.74 175.98 Z M 206.20 176.89 L 206.66 177.78 C 207.11 178.67 208.21 179.03 209.10 178.57 C 210.00 178.12 210.35 177.02 209.90 176.13 L 209.44 175.24 C 208.98 174.34 207.89 173.99 206.99 174.44 C 206.10 174.90 205.75 175.99 206.20 176.89 Z M 206.65 177.78 L 207.10 178.65 C 207.56 179.55 208.65 179.90 209.55 179.45 C 210.44 178.99 210.80 177.89 210.34 177.00 L 209.90 176.13 C 209.44 175.23 208.34 174.88 207.45 175.33 C 206.55 175.79 206.20 176.88 206.65 177.78 Z M 207.10 178.65 L 207.55 179.53 C 208.00 180.43 209.10 180.78 210.00 180.33 C 210.89 179.87 211.25 178.77 210.79 177.88 L 210.34 177.00 C 209.88 176.10 208.79 175.75 207.89 176.20 C 207.00 176.66 206.64 177.76 207.10 178.65 Z M 207.55 179.53 L 208.00 180.42 C 208.46 181.32 209.56 181.67 210.45 181.21 C 211.35 180.76 211.70 179.66 211.24 178.77 L 210.79 177.88 C 210.33 176.98 209.24 176.63 208.34 177.09 C 207.45 177.54 207.09 178.64 207.55 179.53 Z M 208.00 180.42 L 208.47 181.32 C 208.92 182.21 210.02 182.57 210.91 182.11 C 211.81 181.65 212.16 180.55 211.70 179.66 L 211.24 178.76 C 210.78 177.87 209.69 177.52 208.79 177.98 C 207.90 178.43 207.55 179.53 208.00 180.42 Z M 208.47 181.33 L 208.94 182.23 C 209.40 183.12 210.49 183.47 211.39 183.01 C 212.28 182.55 212.63 181.45 212.17 180.56 L 211.70 179.65 C 211.24 178.76 210.14 178.41 209.25 178.87 C 208.36 179.34 208.01 180.43 208.47 181.33 Z M 208.94 182.24 L 209.41 183.15 C 209.88 184.04 210.98 184.39 211.87 183.92 C 212.76 183.46 213.10 182.36 212.64 181.47 L 212.16 180.55 C 211.70 179.66 210.60 179.32 209.71 179.78 C 208.82 180.25 208.47 181.35 208.94 182.24 Z M 209.42 183.15 L 209.90 184.07 C 210.36 184.95 211.46 185.30 212.35 184.83 C 213.24 184.36 213.58 183.26 213.12 182.37 L 212.64 181.46 C 212.17 180.57 211.07 180.23 210.18 180.70 C 209.29 181.17 208.95 182.27 209.42 183.15 Z M 209.90 184.07 L 210.38 184.98 C 210.85 185.87 211.95 186.20 212.84 185.73 C 213.73 185.26 214.07 184.16 213.59 183.28 L 213.11 182.37 C 212.64 181.48 211.54 181.14 210.65 181.61 C 209.77 182.08 209.43 183.18 209.90 184.07 Z M 210.39 184.99 L 210.87 185.88 C 211.34 186.77 212.44 187.10 213.33 186.63 C 214.21 186.16 214.55 185.05 214.07 184.17 L 213.59 183.27 C 213.12 182.39 212.02 182.05 211.13 182.53 C 210.25 183.00 209.91 184.10 210.39 184.99 Z M 210.87 185.89 L 211.35 186.77 C 211.82 187.65 212.93 187.98 213.81 187.51 C 214.69 187.03 215.02 185.93 214.54 185.05 L 214.07 184.16 C 213.59 183.28 212.49 182.95 211.61 183.43 C 210.73 183.91 210.40 185.01 210.87 185.89 Z M 211.35 186.78 L 211.82 187.63 C 212.30 188.51 213.40 188.84 214.28 188.36 C 215.16 187.88 215.48 186.77 215.00 185.89 L 214.54 185.04 C 214.06 184.16 212.96 183.83 212.08 184.31 C 211.20 184.79 210.87 185.90 211.35 186.78 Z M 211.82 187.64 L 212.28 188.47 C 212.76 189.35 213.87 189.67 214.74 189.18 C 215.62 188.70 215.94 187.60 215.46 186.72 L 215.00 185.89 C 214.52 185.01 213.41 184.69 212.54 185.17 C 211.66 185.65 211.34 186.76 211.82 187.64 Z M 212.28 188.48 L 212.82 189.43 C 213.30 190.31 214.41 190.62 215.28 190.14 C 216.16 189.65 216.47 188.55 215.98 187.67 L 215.45 186.71 C 214.97 185.84 213.86 185.52 212.99 186.01 C 212.11 186.50 211.80 187.60 212.28 188.48 Z M 212.82 189.44 L 213.33 190.34 C 213.82 191.21 214.92 191.52 215.80 191.03 C 216.67 190.54 216.98 189.44 216.49 188.56 L 215.98 187.66 C 215.49 186.79 214.38 186.48 213.51 186.97 C 212.64 187.46 212.33 188.57 212.82 189.44 Z M 213.34 190.35 L 213.82 191.20 C 214.32 192.07 215.42 192.37 216.29 191.88 C 217.16 191.39 217.46 190.28 216.97 189.42 L 216.48 188.56 C 215.99 187.69 214.88 187.39 214.01 187.88 C 213.15 188.37 212.84 189.48 213.34 190.35 Z M 213.83 191.21 L 214.30 192.03 C 214.79 192.90 215.90 193.20 216.76 192.70 C 217.63 192.20 217.93 191.10 217.43 190.23 L 216.96 189.41 C 216.47 188.55 215.36 188.25 214.50 188.74 C 213.63 189.24 213.33 190.34 213.83 191.21 Z M 214.30 192.03 L 214.77 192.84 C 215.26 193.70 216.37 194.00 217.23 193.50 C 218.09 193.00 218.39 191.90 217.89 191.04 L 217.43 190.23 C 216.93 189.37 215.83 189.07 214.97 189.57 C 214.10 190.07 213.81 191.17 214.30 192.03 Z M 214.77 192.84 L 215.27 193.71 C 215.77 194.57 216.87 194.87 217.73 194.37 C 218.60 193.88 218.89 192.78 218.40 191.91 L 217.89 191.04 C 217.39 190.17 216.29 189.88 215.43 190.37 C 214.57 190.87 214.27 191.97 214.77 192.84 Z M 215.27 193.71 L 215.77 194.57 C 216.26 195.44 217.36 195.74 218.22 195.24 C 219.09 194.75 219.39 193.65 218.89 192.79 L 218.40 191.92 C 217.90 191.06 216.80 190.76 215.94 191.25 C 215.08 191.74 214.78 192.84 215.27 193.71 Z M 215.76 194.56 L 216.25 195.43 C 216.74 196.30 217.84 196.60 218.70 196.11 C 219.57 195.63 219.87 194.53 219.39 193.67 L 218.90 192.80 C 218.41 191.93 217.31 191.63 216.45 192.11 C 215.58 192.60 215.28 193.70 215.76 194.56 Z M 216.24 195.41 L 216.72 196.28 C 217.20 197.15 218.29 197.47 219.16 196.99 C 220.03 196.52 220.35 195.42 219.87 194.55 L 219.39 193.68 C 218.92 192.81 217.82 192.50 216.95 192.97 C 216.08 193.45 215.77 194.54 216.24 195.41 Z M 216.71 196.26 L 217.18 197.13 C 217.64 198.01 218.73 198.34 219.60 197.88 C 220.48 197.41 220.81 196.33 220.35 195.45 L 219.88 194.58 C 219.42 193.70 218.33 193.37 217.46 193.83 C 216.58 194.30 216.25 195.38 216.71 196.26 Z M 217.17 197.11 L 217.61 197.99 C 218.06 198.87 219.14 199.22 220.02 198.77 C 220.90 198.32 221.25 197.24 220.80 196.36 L 220.36 195.48 C 219.91 194.60 218.83 194.25 217.95 194.70 C 217.07 195.15 216.72 196.23 217.17 197.11 Z M 217.60 197.96 L 218.04 198.85 C 218.48 199.74 219.55 200.11 220.43 199.67 C 221.32 199.24 221.69 198.17 221.25 197.28 L 220.81 196.39 C 220.38 195.50 219.31 195.13 218.42 195.57 C 217.54 196.00 217.17 197.07 217.60 197.96 Z M 218.03 198.82 L 218.46 199.74 C 218.88 200.63 219.94 201.01 220.83 200.59 C 221.72 200.18 222.11 199.11 221.69 198.22 L 221.26 197.31 C 220.84 196.42 219.78 196.03 218.89 196.45 C 218.00 196.87 217.61 197.93 218.03 198.82 Z M 218.45 199.71 L 218.86 200.63 C 219.27 201.53 220.32 201.93 221.22 201.53 C 222.11 201.13 222.52 200.08 222.11 199.18 L 221.70 198.25 C 221.30 197.35 220.24 196.95 219.35 197.35 C 218.45 197.76 218.05 198.81 218.45 199.71 Z M 218.85 200.60 L 219.24 201.52 C 219.63 202.42 220.67 202.84 221.58 202.45 C 222.48 202.07 222.90 201.02 222.51 200.12 L 222.12 199.21 C 221.74 198.31 220.69 197.89 219.79 198.27 C 218.89 198.66 218.47 199.70 218.85 200.60 Z M 219.24 201.49 L 219.61 202.41 C 219.98 203.32 221.02 203.75 221.93 203.38 C 222.83 203.01 223.27 201.98 222.90 201.07 L 222.52 200.15 C 222.15 199.24 221.11 198.81 220.21 199.18 C 219.30 199.55 218.87 200.58 219.24 201.49 Z M 219.61 202.39 L 219.97 203.32 C 220.33 204.23 221.35 204.68 222.26 204.32 C 223.17 203.97 223.62 202.94 223.27 202.03 L 222.90 201.10 C 222.55 200.19 221.52 199.74 220.61 200.09 C 219.70 200.45 219.25 201.48 219.61 202.39 Z M 219.97 203.29 L 220.32 204.24 C 220.66 205.15 221.68 205.61 222.59 205.27 C 223.51 204.93 223.97 203.91 223.63 203.00 L 223.27 202.05 C 222.93 201.14 221.91 200.68 221.00 201.02 C 220.09 201.36 219.62 202.38 219.97 203.29 Z M 220.31 204.21 L 220.65 205.16 C 220.98 206.08 221.99 206.55 222.91 206.22 C 223.83 205.89 224.30 204.88 223.97 203.97 L 223.63 203.02 C 223.30 202.10 222.29 201.63 221.38 201.96 C 220.46 202.29 219.99 203.30 220.31 204.21 Z M 220.65 205.14 L 220.98 206.08 C 221.29 207.00 222.29 207.48 223.21 207.17 C 224.13 206.85 224.62 205.85 224.30 204.93 L 223.98 203.99 C 223.66 203.07 222.66 202.58 221.74 202.90 C 220.82 203.22 220.33 204.22 220.65 205.14 Z M 220.97 206.06 L 221.29 207.00 C 221.60 207.92 222.59 208.42 223.51 208.11 C 224.43 207.81 224.92 206.81 224.62 205.89 L 224.30 204.95 C 223.99 204.03 223.00 203.53 222.08 203.84 C 221.16 204.15 220.67 205.14 220.97 206.06 Z M 221.29 206.99 L 221.60 207.94 C 221.90 208.86 222.89 209.36 223.80 209.06 C 224.72 208.76 225.23 207.77 224.93 206.86 L 224.62 205.91 C 224.32 204.99 223.33 204.49 222.41 204.79 C 221.49 205.08 220.99 206.07 221.29 206.99 Z M 221.60 207.93 L 221.91 208.89 C 222.20 209.80 223.19 210.31 224.10 210.01 C 225.02 209.72 225.53 208.74 225.23 207.82 L 224.92 206.86 C 224.63 205.95 223.65 205.44 222.73 205.74 C 221.81 206.03 221.31 207.01 221.60 207.93 Z M 221.91 208.88 L 222.22 209.85 C 222.51 210.76 223.49 211.27 224.41 210.98 C 225.32 210.69 225.83 209.71 225.54 208.79 L 225.23 207.82 C 224.93 206.91 223.96 206.40 223.04 206.70 C 222.12 206.99 221.62 207.97 221.91 208.88 Z M 222.22 209.85 L 222.54 210.84 C 222.83 211.75 223.81 212.26 224.72 211.97 C 225.64 211.67 226.14 210.70 225.85 209.78 L 225.53 208.79 C 225.24 207.88 224.26 207.38 223.35 207.67 C 222.44 207.96 221.93 208.93 222.22 209.85 Z M 222.55 210.84 L 222.86 211.82 C 223.15 212.73 224.12 213.23 225.03 212.94 C 225.94 212.65 226.45 211.68 226.16 210.77 L 225.84 209.79 C 225.55 208.88 224.58 208.37 223.67 208.66 C 222.76 208.95 222.26 209.93 222.55 210.84 Z M 222.86 211.81 L 223.16 212.77 C 223.45 213.68 224.42 214.18 225.33 213.90 C 226.24 213.61 226.74 212.64 226.45 211.74 L 226.15 210.78 C 225.87 209.87 224.90 209.36 223.99 209.65 C 223.08 209.94 222.58 210.90 222.86 211.81 Z M 223.17 212.76 L 223.45 213.68 C 223.73 214.59 224.69 215.10 225.60 214.82 C 226.51 214.53 227.02 213.57 226.74 212.66 L 226.45 211.75 C 226.17 210.84 225.21 210.33 224.30 210.61 C 223.39 210.89 222.89 211.85 223.17 212.76 Z M 223.45 213.67 L 223.74 214.63 C 224.01 215.53 224.97 216.05 225.88 215.77 C 226.78 215.50 227.30 214.55 227.02 213.64 L 226.74 212.68 C 226.46 211.77 225.51 211.26 224.60 211.53 C 223.69 211.80 223.18 212.76 223.45 213.67 Z M 223.74 214.61 L 224.04 215.62 C 224.30 216.53 225.24 217.05 226.15 216.79 C 227.06 216.52 227.58 215.58 227.32 214.67 L 227.02 213.66 C 226.76 212.75 225.81 212.23 224.91 212.49 C 224.00 212.76 223.48 213.70 223.74 214.61 Z M 224.04 215.61 L 224.30 216.55 C 224.56 217.46 225.50 217.99 226.40 217.73 C 227.31 217.48 227.84 216.54 227.58 215.63 L 227.31 214.69 C 227.06 213.78 226.12 213.25 225.21 213.51 C 224.31 213.76 223.78 214.70 224.04 215.61 Z M 224.31 216.55 L 224.56 217.45 C 224.81 218.35 225.74 218.88 226.65 218.63 C 227.55 218.38 228.08 217.44 227.83 216.54 L 227.58 215.64 C 227.33 214.74 226.39 214.21 225.49 214.46 C 224.58 214.71 224.06 215.64 224.31 216.55 Z M 224.56 217.45 L 224.83 218.39 C 225.08 219.29 226.01 219.81 226.91 219.56 C 227.81 219.31 228.34 218.37 228.08 217.48 L 227.82 216.54 C 227.57 215.64 226.64 215.12 225.74 215.37 C 224.84 215.62 224.31 216.55 224.56 217.45 Z M 224.83 218.38 L 225.10 219.34 C 225.35 220.24 226.28 220.76 227.17 220.51 C 228.07 220.26 228.60 219.33 228.35 218.44 L 228.08 217.48 C 227.83 216.58 226.90 216.06 226.00 216.31 C 225.11 216.56 224.58 217.49 224.83 218.38 Z M 225.10 219.32 L 225.35 220.29 C 225.59 221.18 226.51 221.72 227.41 221.48 C 228.31 221.24 228.84 220.32 228.60 219.42 L 228.35 218.46 C 228.11 217.56 227.19 217.02 226.29 217.26 C 225.39 217.50 224.86 218.42 225.10 219.32 Z M 225.35 220.25 L 225.59 221.22 C 225.81 222.12 226.72 222.67 227.61 222.45 C 228.51 222.23 229.06 221.32 228.84 220.43 L 228.61 219.46 C 228.39 218.56 227.48 218.01 226.58 218.23 C 225.68 218.45 225.13 219.35 225.35 220.25 Z M 225.58 221.18 L 225.79 222.13 C 225.99 223.03 226.88 223.60 227.78 223.40 C 228.68 223.20 229.25 222.31 229.06 221.41 L 228.85 220.46 C 228.65 219.56 227.76 218.99 226.86 219.19 C 225.96 219.39 225.39 220.28 225.58 221.18 Z M 225.79 222.09 L 225.98 223.07 C 226.16 223.97 227.04 224.56 227.94 224.38 C 228.84 224.20 229.43 223.32 229.25 222.42 L 229.06 221.44 C 228.88 220.54 228.00 219.95 227.10 220.13 C 226.20 220.31 225.61 221.19 225.79 222.09 Z M 225.98 223.04 L 226.16 224.05 C 226.33 224.95 227.19 225.55 228.10 225.39 C 229.00 225.23 229.60 224.36 229.44 223.46 L 229.25 222.45 C 229.09 221.54 228.22 220.94 227.32 221.11 C 226.42 221.27 225.82 222.14 225.98 223.04 Z M 226.16 224.03 L 226.33 225.01 C 226.48 225.92 227.34 226.53 228.24 226.38 C 229.14 226.22 229.75 225.37 229.60 224.47 L 229.44 223.48 C 229.28 222.58 228.43 221.97 227.53 222.12 C 226.62 222.27 226.01 223.12 226.16 224.03 Z M 226.33 225.00 L 226.48 225.96 C 226.62 226.86 227.47 227.48 228.37 227.34 C 229.28 227.20 229.89 226.35 229.75 225.45 L 229.60 224.48 C 229.46 223.58 228.61 222.96 227.71 223.10 C 226.81 223.25 226.19 224.09 226.33 225.00 Z M 226.48 225.95 L 226.63 226.94 C 226.76 227.84 227.60 228.46 228.51 228.33 C 229.41 228.19 230.03 227.35 229.90 226.45 L 229.75 225.46 C 229.62 224.56 228.78 223.94 227.87 224.07 C 226.97 224.20 226.35 225.04 226.48 225.95 Z M 226.63 226.92 L 226.77 227.94 C 226.90 228.84 227.73 229.47 228.64 229.34 C 229.54 229.21 230.17 228.38 230.04 227.48 L 229.90 226.46 C 229.77 225.56 228.93 224.93 228.03 225.06 C 227.13 225.19 226.50 226.02 226.63 226.92 Z M 226.77 227.93 L 226.91 228.93 C 227.03 229.83 227.86 230.47 228.76 230.35 C 229.66 230.22 230.29 229.40 230.17 228.49 L 230.04 227.49 C 229.92 226.59 229.09 225.95 228.19 226.08 C 227.29 226.20 226.65 227.03 226.77 227.93 Z M 226.91 228.92 L 227.04 229.90 C 227.15 230.80 227.98 231.44 228.88 231.32 C 229.78 231.21 230.41 230.38 230.30 229.48 L 230.17 228.50 C 230.06 227.60 229.23 226.97 228.33 227.08 C 227.43 227.20 226.80 228.02 226.91 228.92 Z M 227.04 229.89 L 227.16 230.88 C 227.27 231.78 228.09 232.42 228.99 232.31 C 229.89 232.20 230.53 231.38 230.42 230.48 L 230.30 229.49 C 230.19 228.59 229.37 227.95 228.47 228.06 C 227.57 228.17 226.93 228.99 227.04 229.89 Z M 227.16 230.87 L 227.28 231.87 C 227.38 232.77 228.19 233.42 229.09 233.31 C 229.99 233.21 230.64 232.40 230.53 231.50 L 230.42 230.49 C 230.31 229.60 229.50 228.95 228.60 229.05 C 227.70 229.16 227.06 229.97 227.16 230.87 Z M 227.28 231.86 L 227.39 232.87 C 227.48 233.77 228.29 234.42 229.19 234.32 C 230.09 234.22 230.74 233.42 230.64 232.52 L 230.53 231.51 C 230.44 230.61 229.63 229.96 228.73 230.06 C 227.83 230.15 227.18 230.96 227.28 231.86 Z M 227.39 232.86 L 227.49 233.85 C 227.58 234.75 228.38 235.40 229.28 235.31 C 230.18 235.22 230.83 234.42 230.74 233.52 L 230.64 232.53 C 230.55 231.63 229.75 230.97 228.85 231.06 C 227.95 231.15 227.30 231.96 227.39 232.86 Z M 227.49 233.84 L 227.58 234.83 C 227.66 235.73 228.46 236.39 229.36 236.31 C 230.26 236.22 230.92 235.43 230.83 234.53 L 230.74 233.53 C 230.66 232.63 229.86 231.97 228.96 232.06 C 228.06 232.14 227.40 232.94 227.49 233.84 Z M 227.58 234.82 L 227.67 235.82 C 227.75 236.72 228.54 237.38 229.44 237.30 C 230.34 237.22 231.00 236.43 230.92 235.53 L 230.83 234.54 C 230.75 233.64 229.96 232.97 229.06 233.05 C 228.16 233.13 227.50 233.93 227.58 234.82 Z M 227.67 235.82 L 227.76 236.81 C 227.83 237.71 228.62 238.38 229.52 238.30 C 230.42 238.22 231.08 237.43 231.01 236.54 L 230.92 235.54 C 230.84 234.64 230.05 233.97 229.16 234.05 C 228.26 234.13 227.59 234.92 227.67 235.82 Z M 227.76 236.81 L 227.81 237.47 C 227.89 238.37 228.68 239.04 229.57 238.96 C 230.47 238.89 231.14 238.10 231.06 237.20 L 231.01 236.54 C 230.93 235.64 230.14 234.97 229.24 235.05 C 228.35 235.13 227.68 235.92 227.76 236.81 Z"
      fill="black"
      fill-rule="nonzero" /></svg>