<svg xmlns="http://www.w3.org/2000/svg" width="300" height="300" viewBox="0 0 300 300">
<path d="M 149.96 78.63 L 149.96 79.62 C 149.95 80.44 150.61 81.10 151.43 81.10 C 152.24 81.11 152.90 80.45 152.91 79.63 L 152.91 78.64 C 152.91 77.82 152.26 77.16 151.44 77.16 C 150.63 77.15 149.96 77.81 149.96 78.63 Z M 149.95 79.58 L 149.92 80.59 C 149.90 81.41 150.54 82.09 151.36 82.11 C 152.17 82.14 152.86 81.49 152.88 80.68 L 152.91 79.67 C 152.94 78.85 152.29 78.17 151.48 78.15 C 150.66 78.12 149.98 78.77 149.95 79.58 Z M 149.92 80.53 L 149.85 81.54 C 149.80 82.36 150.42 83.07 151.24 83.12 C 152.05 83.17 152.76 82.55 152.82 81.74 L 152.88 80.73 C 152.94 79.91 152.32 79.21 151.50 79.15 C 150.68 79.10 149.97 79.72 149.92 80.53 Z M 149.85 81.51 L 149.77 82.51 C 149.69 83.33 150.30 84.05 151.12 84.12 C 151.94 84.19 152.66 83.59 152.73 82.77 L 152.82 81.77 C 152.89 80.95 152.28 80.23 151.46 80.16 C 150.65 80.09 149.92 80.69 149.85 81.51 Z M 149.76 82.51 L 149.67 83.50 C 149.60 84.32 150.21 85.04 151.03 85.12 C 151.85 85.19 152.57 84.58 152.64 83.76 L 152.73 82.77 C 152.81 81.95 152.20 81.23 151.38 81.16 C 150.56 81.08 149.84 81.69 149.76 82.51 Z M 149.67 83.53 L 149.60 84.43 C 149.55 85.26 150.17 85.97 150.99 86.03 C 151.81 86.08 152.53 85.46 152.59 84.64 L 152.65 83.73 C 152.71 82.91 152.09 82.20 151.26 82.14 C 150.44 82.08 149.73 82.70 149.67 83.53 Z M 149.60 84.45 L 149.54 85.51 C 149.49 86.34 150.12 87.05 150.94 87.10 C 151.77 87.15 152.48 86.52 152.53 85.69 L 152.59 84.63 C 152.64 83.80 152.01 83.09 151.19 83.04 C 150.36 82.99 149.65 83.62 149.60 84.45 Z M 149.53 85.52 L 149.47 86.70 C 149.42 87.52 150.05 88.23 150.88 88.28 C 151.70 88.33 152.41 87.70 152.46 86.87 L 152.53 85.69 C 152.57 84.86 151.94 84.15 151.12 84.11 C 150.29 84.06 149.58 84.69 149.53 85.52 Z M 149.46 86.83 L 149.49 87.72 C 149.51 88.55 150.20 89.20 151.03 89.18 C 151.86 89.16 152.51 88.47 152.49 87.64 L 152.46 86.74 C 152.44 85.92 151.75 85.26 150.92 85.29 C 150.09 85.31 149.44 86.00 149.46 86.83 Z M 151.81 88.92 L 152.23 88.65 C 152.92 88.19 153.10 87.26 152.65 86.58 C 152.19 85.89 151.27 85.71 150.58 86.16 L 150.16 86.44 C 149.48 86.90 149.29 87.82 149.75 88.51 C 150.20 89.19 151.13 89.38 151.81 88.92 Z M 152.83 87.81 L 153.13 86.75 C 153.35 85.97 152.90 85.15 152.11 84.92 C 151.33 84.70 150.51 85.16 150.29 85.94 L 149.99 87.00 C 149.76 87.78 150.22 88.60 151.00 88.82 C 151.79 89.05 152.60 88.59 152.83 87.81 Z M 153.17 86.49 L 153.27 85.48 C 153.35 84.68 152.76 83.96 151.95 83.88 C 151.15 83.80 150.43 84.39 150.35 85.19 L 150.25 86.20 C 150.16 87.01 150.75 87.73 151.56 87.81 C 152.37 87.89 153.09 87.30 153.17 86.49 Z M 153.28 85.42 L 153.33 84.42 C 153.37 83.61 152.75 82.92 151.94 82.87 C 151.13 82.83 150.44 83.45 150.39 84.26 L 150.34 85.26 C 150.30 86.07 150.92 86.76 151.73 86.81 C 152.54 86.85 153.23 86.23 153.28 85.42 Z M 153.33 84.41 L 153.38 83.42 C 153.42 82.61 152.79 81.92 151.98 81.88 C 151.16 81.84 150.47 82.47 150.44 83.28 L 150.39 84.27 C 150.35 85.08 150.98 85.77 151.79 85.81 C 152.61 85.85 153.30 85.22 153.33 84.41 Z M 153.38 83.42 L 153.43 82.45 C 153.47 81.63 152.84 80.94 152.03 80.90 C 151.21 80.86 150.52 81.49 150.48 82.31 L 150.43 83.28 C 150.39 84.10 151.02 84.79 151.84 84.83 C 152.65 84.87 153.35 84.24 153.38 83.42 Z M 153.44 82.44 L 153.49 81.26 C 153.52 80.44 152.89 79.75 152.06 79.72 C 151.24 79.68 150.55 80.32 150.51 81.14 L 150.47 82.31 C 150.43 83.14 151.07 83.83 151.89 83.86 C 152.72 83.90 153.41 83.26 153.44 82.44 Z M 153.51 81.27 L 153.55 80.34 C 153.59 79.50 152.94 78.80 152.11 78.76 C 151.27 78.73 150.57 79.37 150.53 80.21 L 150.49 81.14 C 150.46 81.97 151.10 82.68 151.94 82.71 C 152.77 82.75 153.48 82.10 153.51 81.27 Z M 150.51 80.31 L 150.52 80.94 C 150.54 81.79 151.25 82.46 152.09 82.44 C 152.94 82.42 153.61 81.72 153.59 80.87 L 153.58 80.24 C 153.56 79.39 152.85 78.72 152.01 78.74 C 151.16 78.76 150.49 79.46 150.51 80.31 Z M 150.52 80.91 L 150.52 82.03 C 150.52 82.88 151.21 83.57 152.06 83.57 C 152.91 83.57 153.60 82.88 153.60 82.03 L 153.60 80.91 C 153.60 80.06 152.91 79.37 152.06 79.37 C 151.21 79.37 150.52 80.06 150.52 80.91 Z M 150.51 82.03 L 150.51 83.04 C 150.51 83.89 151.20 84.58 152.06 84.58 C 152.91 84.58 153.60 83.89 153.60 83.04 L 153.60 82.03 C 153.60 81.17 152.91 80.48 152.06 80.48 C 151.20 80.48 150.51 81.17 150.51 82.03 Z M 150.51 83.04 L 150.51 84.02 C 150.51 84.87 151.20 85.57 152.06 85.57 C 152.91 85.57 153.60 84.87 153.60 84.02 L 153.60 83.04 C 153.60 82.18 152.91 81.49 152.06 81.49 C 151.20 81.49 150.51 82.18 150.51 83.04 Z M 150.51 84.02 L 150.51 85.03 C 150.51 85.88 151.20 86.57 152.06 86.57 C 152.91 86.57 153.60 85.88 153.60 85.03 L 153.60 84.02 C 153.60 83.17 152.91 82.47 152.06 82.47 C 151.20 82.47 150.51 83.17 150.51 84.02 Z M 150.51 85.03 L 150.51 86.08 C 150.51 86.93 151.20 87.62 152.06 87.62 C 152.91 87.62 153.61 86.93 153.61 86.08 L 153.61 85.03 C 153.61 84.17 152.91 83.48 152.06 83.48 C 151.20 83.48 150.51 84.17 150.51 85.03 Z M 150.51 86.08 L 150.51 87.11 C 150.51 87.97 151.20 88.66 152.06 88.66 C 152.91 88.66 153.61 87.97 153.61 87.11 L 153.61 86.08 C 153.61 85.22 152.91 84.53 152.06 84.53 C 151.20 84.53 150.51 85.22 150.51 86.08 Z M 150.51 87.11 L 150.51 88.06 C 150.51 88.92 151.20 89.61 152.06 89.61 C 152.91 89.61 153.61 88.92 153.61 88.06 L 153.61 87.11 C 153.61 86.26 152.91 85.56 152.06 85.56 C 151.20 85.56 150.51 86.26 150.51 87.11 Z M 150.50 88.06 L 150.50 89.11 C 150.50 89.97 151.19 90.67 152.05 90.67 C 152.91 90.67 153.61 89.98 153.61 89.12 L 153.61 88.07 C 153.61 87.21 152.92 86.51 152.06 86.51 C 151.20 86.51 150.51 87.20 150.50 88.06 Z M 150.50 89.09 L 150.49 90.03 C 150.47 90.88 151.15 91.59 152.01 91.61 C 152.87 91.62 153.58 90.94 153.59 90.08 L 153.61 89.14 C 153.62 88.29 152.94 87.58 152.08 87.56 C 151.22 87.55 150.52 88.23 150.50 89.09 Z M 150.49 90.00 L 150.45 91.00 C 150.42 91.86 151.10 92.58 151.96 92.60 C 152.81 92.63 153.53 91.96 153.56 91.10 L 153.59 90.10 C 153.62 89.25 152.95 88.53 152.09 88.50 C 151.23 88.47 150.51 89.14 150.49 90.00 Z M 150.45 91.02 L 150.43 92.01 C 150.42 92.87 151.10 93.58 151.96 93.60 C 152.81 93.61 153.52 92.93 153.54 92.07 L 153.56 91.08 C 153.58 90.22 152.90 89.51 152.04 89.50 C 151.18 89.48 150.47 90.16 150.45 91.02 Z M 150.43 92.04 L 150.43 93.05 C 150.43 93.91 151.12 94.60 151.98 94.61 C 152.84 94.61 153.54 93.92 153.54 93.06 L 153.54 92.05 C 153.54 91.19 152.85 90.49 151.99 90.49 C 151.13 90.48 150.43 91.18 150.43 92.04 Z M 150.43 93.05 L 150.43 94.03 C 150.43 94.89 151.12 95.58 151.98 95.59 C 152.84 95.59 153.54 94.89 153.54 94.03 L 153.54 93.05 C 153.54 92.20 152.84 91.50 151.99 91.50 C 151.13 91.50 150.43 92.19 150.43 93.05 Z M 150.43 94.01 L 150.41 95.04 C 150.40 95.90 151.09 96.60 151.95 96.61 C 152.81 96.62 153.51 95.93 153.53 95.07 L 153.54 94.05 C 153.55 93.19 152.86 92.48 152.00 92.47 C 151.14 92.46 150.44 93.15 150.43 94.01 Z M 150.41 95.01 L 150.39 95.99 C 150.36 96.84 151.04 97.56 151.90 97.58 C 152.76 97.61 153.47 96.93 153.50 96.07 L 153.53 95.10 C 153.55 94.24 152.87 93.52 152.01 93.50 C 151.15 93.48 150.44 94.15 150.41 95.01 Z M 150.39 95.98 L 150.36 97.00 C 150.33 97.86 151.01 98.58 151.87 98.60 C 152.73 98.63 153.45 97.95 153.47 97.09 L 153.50 96.07 C 153.52 95.21 152.85 94.50 151.99 94.47 C 151.13 94.45 150.41 95.12 150.39 95.98 Z M 150.36 97.02 L 150.34 98.00 C 150.33 98.86 151.02 99.57 151.88 99.58 C 152.74 99.59 153.44 98.90 153.46 98.05 L 153.47 97.07 C 153.48 96.21 152.80 95.50 151.94 95.49 C 151.08 95.48 150.37 96.16 150.36 97.02 Z M 150.34 98.02 L 150.34 99.02 C 150.33 99.88 151.03 100.58 151.89 100.58 C 152.75 100.59 153.45 99.89 153.45 99.03 L 153.46 98.03 C 153.46 97.17 152.77 96.47 151.91 96.46 C 151.05 96.46 150.34 97.16 150.34 98.02 Z M 150.34 99.03 L 150.34 100.05 C 150.34 100.91 151.03 101.60 151.89 101.60 C 152.75 101.61 153.45 100.91 153.45 100.05 L 153.45 99.03 C 153.45 98.17 152.76 97.47 151.90 97.47 C 151.03 97.47 150.34 98.17 150.34 99.03 Z M 150.34 100.04 L 150.33 101.05 C 150.33 101.91 151.03 102.60 151.89 102.61 C 152.75 102.61 153.45 101.91 153.45 101.05 L 153.45 100.05 C 153.45 99.19 152.76 98.49 151.90 98.49 C 151.04 98.49 150.34 99.18 150.34 100.04 Z M 150.33 101.04 L 150.33 102.05 C 150.32 102.91 151.01 103.61 151.87 103.61 C 152.74 103.62 153.44 102.93 153.44 102.07 L 153.45 101.06 C 153.46 100.20 152.76 99.50 151.90 99.49 C 151.04 99.48 150.34 100.18 150.33 101.04 Z M 150.33 102.03 L 150.31 103.04 C 150.30 103.90 150.98 104.61 151.84 104.62 C 152.71 104.64 153.41 103.95 153.43 103.09 L 153.44 102.08 C 153.46 101.22 152.77 100.51 151.91 100.50 C 151.05 100.48 150.34 101.17 150.33 102.03 Z M 150.31 103.03 L 150.29 104.03 C 150.27 104.89 150.96 105.60 151.82 105.62 C 152.68 105.63 153.39 104.95 153.41 104.09 L 153.43 103.10 C 153.45 102.24 152.76 101.52 151.90 101.50 C 151.04 101.49 150.33 102.17 150.31 103.03 Z M 150.29 104.03 L 150.27 105.03 C 150.26 105.89 150.94 106.60 151.80 106.61 C 152.66 106.63 153.38 105.94 153.39 105.08 L 153.41 104.09 C 153.42 103.22 152.74 102.51 151.88 102.50 C 151.01 102.48 150.30 103.17 150.29 104.03 Z M 150.27 105.04 L 150.26 106.04 C 150.26 106.90 150.95 107.60 151.81 107.61 C 152.67 107.62 153.37 106.92 153.38 106.06 L 153.39 105.07 C 153.40 104.21 152.71 103.50 151.84 103.50 C 150.98 103.49 150.28 104.18 150.27 105.04 Z M 150.26 106.05 L 150.26 107.05 C 150.26 107.91 150.96 108.61 151.82 108.61 C 152.68 108.62 153.38 107.92 153.38 107.06 L 153.38 106.05 C 153.38 105.19 152.69 104.49 151.83 104.49 C 150.97 104.49 150.27 105.19 150.26 106.05 Z M 150.26 107.05 L 150.26 108.06 C 150.26 108.92 150.96 109.62 151.82 109.62 C 152.68 109.62 153.38 108.92 153.38 108.06 L 153.38 107.05 C 153.38 106.19 152.68 105.49 151.82 105.49 C 150.96 105.49 150.26 106.19 150.26 107.05 Z M 150.26 108.06 L 150.26 109.07 C 150.26 109.93 150.96 110.63 151.82 110.63 C 152.68 110.63 153.38 109.93 153.38 109.07 L 153.38 108.06 C 153.38 107.20 152.68 106.50 151.82 106.50 C 150.96 106.50 150.26 107.20 150.26 108.06 Z M 150.26 109.07 L 150.26 110.06 C 150.26 110.92 150.96 111.62 151.82 111.62 C 152.68 111.62 153.38 110.92 153.38 110.06 L 153.38 109.07 C 153.38 108.20 152.68 107.50 151.82 107.50 C 150.96 107.50 150.26 108.20 150.26 109.07 Z M 150.26 110.06 L 150.26 111.07 C 150.26 111.93 150.96 112.63 151.82 112.63 C 152.68 112.63 153.38 111.93 153.38 111.07 L 153.38 110.06 C 153.38 109.20 152.68 108.50 151.82 108.50 C 150.96 108.50 150.26 109.20 150.26 110.06 Z M 150.26 111.07 L 150.26 112.07 C 150.26 112.93 150.96 113.63 151.82 113.63 C 152.68 113.63 153.38 112.93 153.38 112.07 L 153.38 111.07 C 153.38 110.21 152.68 109.51 151.82 109.51 C 150.96 109.51 150.26 110.21 150.26 111.07 Z M 150.26 112.07 L 150.26 113.06 C 150.26 113.92 150.96 114.62 151.82 114.62 C 152.68 114.62 153.38 113.92 153.38 113.06 L 153.38 112.07 C 153.38 111.21 152.68 110.51 151.82 110.51 C 150.96 110.51 150.26 111.21 150.26 112.07 Z M 150.26 113.06 L 150.26 114.06 C 150.26 114.92 150.96 115.62 151.82 115.62 C 152.68 115.62 153.38 114.92 153.38 114.06 L 153.38 113.06 C 153.38 112.20 152.68 111.50 151.82 111.50 C 150.96 111.50 150.26 112.20 150.26 113.06 Z M 150.26 114.06 L 150.26 115.06 C 150.26 115.92 150.96 116.62 151.82 116.62 C 152.68 116.62 153.38 115.92 153.38 115.06 L 153.38 114.06 C 153.38 113.20 152.68 112.50 151.82 112.50 C 150.96 112.50 150.26 113.20 150.26 114.06 Z M 150.26 115.06 L 150.26 116.08 C 150.26 116.94 150.96 117.64 151.82 117.64 C 152.68 117.64 153.38 116.94 153.38 116.08 L 153.38 115.06 C 153.38 114.19 152.68 113.49 151.82 113.49 C 150.96 113.49 150.26 114.19 150.26 115.06 Z M 150.26 116.08 L 150.26 117.08 C 150.26 117.94 150.96 118.64 151.82 118.64 C 152.68 118.64 153.38 117.94 153.38 117.08 L 153.38 116.08 C 153.38 115.22 152.68 114.52 151.82 114.52 C 150.96 114.52 150.26 115.22 150.26 116.08 Z M 150.26 117.08 L 150.26 118.09 C 150.26 118.96 150.96 119.65 151.82 119.65 C 152.68 119.65 153.38 118.96 153.38 118.09 L 153.38 117.08 C 153.38 116.22 152.68 115.52 151.82 115.52 C 150.96 115.52 150.26 116.22 150.26 117.08 Z M 150.26 118.09 L 150.26 119.07 C 150.26 119.94 150.96 120.63 151.82 120.63 C 152.68 120.63 153.38 119.94 153.38 119.07 L 153.38 118.09 C 153.38 117.23 152.68 116.53 151.82 116.53 C 150.96 116.53 150.26 117.23 150.26 118.09 Z M 150.26 119.07 L 150.26 120.05 C 150.26 120.91 150.96 121.61 151.82 121.61 C 152.68 121.61 153.38 120.91 153.38 120.05 L 153.38 119.07 C 153.38 118.21 152.68 117.51 151.82 117.51 C 150.96 117.51 150.26 118.21 150.26 119.07 Z M 150.26 120.05 L 150.26 121.05 C 150.26 121.92 150.96 122.62 151.82 122.62 C 152.68 122.62 153.38 121.92 153.38 121.05 L 153.38 120.05 C 153.38 119.19 152.68 118.49 151.82 118.49 C 150.96 118.49 150.26 119.19 150.26 120.05 Z M 150.26 121.05 L 150.26 122.05 C 150.26 122.91 150.96 123.61 151.82 123.61 C 152.68 123.61 153.38 122.91 153.38 122.05 L 153.38 121.05 C 153.38 120.19 152.68 119.49 151.82 119.49 C 150.96 119.49 150.26 120.19 150.26 121.05 Z M 150.26 122.05 L 150.26 123.05 C 150.26 123.92 150.96 124.62 151.82 124.62 C 152.68 124.62 153.38 123.92 153.38 123.05 L 153.38 122.05 C 153.38 121.18 152.68 120.48 151.82 120.48 C 150.96 120.48 150.26 121.18 150.26 122.05 Z M 150.26 123.05 L 150.26 124.05 C 150.26 124.91 150.96 125.61 151.82 125.61 C 152.68 125.61 153.38 124.91 153.38 124.05 L 153.38 123.05 C 153.38 122.19 152.68 121.49 151.82 121.49 C 150.96 121.49 150.26 122.19 150.26 123.05 Z M 150.26 124.05 L 150.26 125.05 C 150.26 125.92 150.96 126.62 151.82 126.62 C 152.68 126.62 153.38 125.92 153.38 125.05 L 153.38 124.05 C 153.38 123.18 152.68 122.48 151.82 122.48 C 150.96 122.48 150.26 123.18 150.26 124.05 Z M 150.26 125.05 L 150.26 126.03 C 150.26 126.90 150.96 127.60 151.82 127.60 C 152.68 127.60 153.38 126.90 153.38 126.03 L 153.38 125.05 C 153.38 124.19 152.68 123.49 151.82 123.49 C 150.96 123.49 150.26 124.19 150.26 125.05 Z M 150.26 126.03 L 150.26 127.04 C 150.26 127.91 150.96 128.61 151.82 128.61 C 152.68 128.61 153.38 127.91 153.38 127.04 L 153.38 126.03 C 153.38 125.17 152.68 124.47 151.82 124.47 C 150.96 124.47 150.26 125.17 150.26 126.03 Z M 150.26 127.04 L 150.26 128.06 C 150.26 128.92 150.96 129.62 151.82 129.62 C 152.69 129.62 153.38 128.92 153.38 128.06 L 153.38 127.04 C 153.38 126.18 152.68 125.48 151.82 125.48 C 150.96 125.48 150.26 126.18 150.26 127.04 Z M 150.26 128.06 L 150.26 129.07 C 150.27 129.94 150.97 130.63 151.83 130.63 C 152.70 130.62 153.39 129.92 153.39 129.06 L 153.38 128.05 C 153.38 127.18 152.68 126.49 151.81 126.49 C 150.95 126.50 150.25 127.20 150.26 128.06 Z M 150.26 129.09 L 150.28 130.10 C 150.29 130.97 151.01 131.65 151.87 131.64 C 152.73 131.62 153.42 130.91 153.41 130.05 L 153.39 129.04 C 153.38 128.18 152.66 127.49 151.80 127.50 C 150.94 127.52 150.25 128.23 150.26 129.09 Z M 150.28 130.13 L 150.31 131.12 C 150.34 131.98 151.06 132.66 151.92 132.63 C 152.79 132.61 153.46 131.89 153.44 131.02 L 153.41 130.03 C 153.38 129.16 152.66 128.49 151.79 128.51 C 150.93 128.54 150.25 129.26 150.28 130.13 Z M 150.31 131.13 L 150.35 132.12 C 150.39 132.98 151.11 133.65 151.98 133.62 C 152.84 133.58 153.51 132.86 153.48 131.99 L 153.44 131.01 C 153.40 130.15 152.68 129.47 151.81 129.51 C 150.95 129.54 150.28 130.27 150.31 131.13 Z M 150.35 132.12 L 150.39 133.13 C 150.43 133.99 151.16 134.66 152.02 134.62 C 152.89 134.58 153.56 133.86 153.52 132.99 L 153.48 131.99 C 153.44 131.13 152.71 130.46 151.85 130.49 C 150.98 130.53 150.32 131.26 150.35 132.12 Z M 150.39 133.12 L 150.44 134.13 C 150.47 134.99 151.20 135.66 152.06 135.62 C 152.93 135.59 153.60 134.86 153.56 134.00 L 153.52 132.99 C 153.48 132.13 152.75 131.46 151.89 131.50 C 151.03 131.53 150.36 132.26 150.39 133.12 Z M 150.44 134.12 L 150.48 135.13 C 150.51 135.99 151.24 136.66 152.10 136.63 C 152.96 136.59 153.64 135.86 153.60 135.00 L 153.56 134.00 C 153.53 133.14 152.80 132.47 151.94 132.50 C 151.07 132.53 150.40 133.26 150.44 134.12 Z M 150.48 135.13 L 150.52 136.13 C 150.55 136.99 151.28 137.66 152.14 137.63 C 153.00 137.59 153.68 136.87 153.64 136.00 L 153.60 135.00 C 153.57 134.14 152.84 133.47 151.98 133.50 C 151.11 133.54 150.44 134.26 150.48 135.13 Z M 150.52 136.13 L 150.56 137.13 C 150.59 137.99 151.32 138.66 152.19 138.62 C 153.05 138.59 153.72 137.86 153.68 136.99 L 153.64 136.00 C 153.61 135.14 152.88 134.47 152.01 134.50 C 151.15 134.54 150.48 135.27 150.52 136.13 Z M 150.56 137.13 L 150.60 138.12 C 150.64 138.98 151.37 139.65 152.23 139.61 C 153.09 139.58 153.76 138.85 153.73 137.98 L 153.68 136.99 C 153.65 136.13 152.92 135.46 152.05 135.50 C 151.19 135.53 150.52 136.26 150.56 137.13 Z M 150.60 138.10 L 150.63 139.09 C 150.66 139.95 151.38 140.63 152.24 140.61 C 153.11 140.58 153.78 139.86 153.76 138.99 L 153.73 138.00 C 153.70 137.14 152.98 136.46 152.11 136.49 C 151.25 136.51 150.57 137.24 150.60 138.10 Z M 150.63 139.06 L 150.64 140.01 C 150.65 140.87 151.36 141.56 152.23 141.55 C 153.09 141.54 153.78 140.83 153.77 139.97 L 153.76 139.02 C 153.75 138.16 153.04 137.47 152.17 137.48 C 151.31 137.49 150.62 138.20 150.63 139.06 Z M 150.64 140.01 L 150.66 141.04 C 150.67 141.90 151.38 142.59 152.24 142.58 C 153.11 142.57 153.80 141.86 153.78 141.00 L 153.77 139.97 C 153.76 139.10 153.05 138.41 152.19 138.43 C 151.32 138.44 150.63 139.15 150.64 140.01 Z M 150.66 141.05 L 150.68 141.96 C 150.70 142.82 151.41 143.50 152.28 143.48 C 153.14 143.46 153.82 142.75 153.80 141.89 L 153.78 140.98 C 153.76 140.12 153.05 139.43 152.19 139.45 C 151.32 139.47 150.64 140.19 150.66 141.05 Z M 150.68 141.96 L 150.70 143.01 C 150.73 143.87 151.45 144.56 152.31 144.53 C 153.17 144.51 153.85 143.79 153.83 142.93 L 153.80 141.88 C 153.78 141.02 153.06 140.33 152.20 140.36 C 151.34 140.38 150.65 141.10 150.68 141.96 Z M 150.70 143.01 L 150.73 144.09 C 150.75 144.95 151.47 145.64 152.34 145.61 C 153.20 145.59 153.88 144.87 153.86 144.01 L 153.83 142.93 C 153.81 142.07 153.09 141.38 152.23 141.41 C 151.37 141.43 150.68 142.15 150.70 143.01 Z M 150.73 144.09 L 150.76 145.13 C 150.78 146.00 151.49 146.68 152.36 146.66 C 153.22 146.64 153.90 145.92 153.88 145.06 L 153.86 144.01 C 153.84 143.15 153.12 142.47 152.26 142.49 C 151.40 142.51 150.71 143.22 150.73 144.09 Z M 150.76 145.13 L 150.78 146.14 C 150.80 147.01 151.51 147.69 152.37 147.68 C 153.24 147.66 153.92 146.94 153.91 146.08 L 153.88 145.06 C 153.87 144.20 153.15 143.51 152.29 143.53 C 151.42 143.55 150.74 144.27 150.76 145.13 Z M 150.78 146.14 L 150.79 147.12 C 150.81 147.99 151.52 148.67 152.38 148.66 C 153.25 148.65 153.94 147.93 153.92 147.07 L 153.91 146.09 C 153.89 145.22 153.18 144.53 152.32 144.55 C 151.45 144.56 150.76 145.27 150.78 146.14 Z M 150.79 147.11 L 150.80 148.11 C 150.81 148.98 151.52 149.67 152.38 149.66 C 153.24 149.66 153.94 148.95 153.93 148.09 L 153.92 147.08 C 153.91 146.22 153.21 145.52 152.34 145.53 C 151.48 145.54 150.79 146.25 150.79 147.11 Z M 150.80 148.10 L 150.80 149.05 C 150.81 149.91 151.51 150.61 152.37 150.61 C 153.23 150.61 153.93 149.91 153.93 149.04 L 153.93 148.10 C 153.93 147.23 153.23 146.53 152.36 146.54 C 151.50 146.54 150.80 147.24 150.80 148.10 Z M 150.80 149.04 L 150.80 150.05 C 150.80 150.91 151.50 151.61 152.37 151.61 C 153.23 151.61 153.93 150.91 153.93 150.05 L 153.93 149.04 C 153.93 148.18 153.23 147.48 152.37 147.48 C 151.50 147.48 150.80 148.18 150.80 149.04 Z M 150.80 150.05 L 150.80 151.07 C 150.80 151.93 151.50 152.63 152.37 152.63 C 153.23 152.63 153.93 151.93 153.93 151.07 L 153.93 150.05 C 153.93 149.18 153.23 148.48 152.37 148.48 C 151.50 148.48 150.80 149.18 150.80 150.05 Z M 150.80 151.07 L 150.80 152.12 C 150.80 152.99 151.50 153.69 152.37 153.69 C 153.23 153.69 153.93 152.99 153.93 152.12 L 153.93 151.07 C 153.93 150.21 153.23 149.51 152.37 149.51 C 151.50 149.51 150.80 150.21 150.80 151.07 Z M 150.80 152.12 L 150.80 153.07 C 150.80 153.93 151.50 154.63 152.37 154.63 C 153.23 154.63 153.93 153.93 153.93 153.07 L 153.93 152.12 C 153.93 151.26 153.23 150.56 152.37 150.56 C 151.50 150.56 150.80 151.26 150.80 152.12 Z M 150.80 153.07 L 150.80 154.04 C 150.80 154.90 151.50 155.60 152.37 155.60 C 153.23 155.60 153.93 154.90 153.93 154.04 L 153.93 153.07 C 153.93 152.20 153.23 151.50 152.37 151.50 C 151.50 151.50 150.80 152.20 150.80 153.07 Z M 150.80 154.04 L 150.80 155.04 C 150.80 155.90 151.50 156.60 152.37 156.60 C 153.23 156.60 153.93 155.90 153.93 155.04 L 153.93 154.04 C 153.93 153.17 153.23 152.47 152.37 152.47 C 151.50 152.47 150.80 153.17 150.80 154.04 Z M 150.80 155.04 L 150.80 156.03 C 150.80 156.90 151.50 157.60 152.37 157.60 C 153.23 157.60 153.93 156.90 153.93 156.03 L 153.93 155.04 C 153.93 154.18 153.23 153.48 152.37 153.48 C 151.50 153.48 150.80 154.18 150.80 155.04 Z M 150.80 156.03 L 150.80 157.05 C 150.80 157.91 151.50 158.61 152.37 158.61 C 153.23 158.62 153.93 157.92 153.93 157.05 L 153.93 156.03 C 153.93 155.17 153.23 154.47 152.37 154.47 C 151.50 154.47 150.80 155.17 150.80 156.03 Z M 150.80 157.04 L 150.80 158.04 C 150.79 158.90 151.48 159.61 152.35 159.62 C 153.21 159.63 153.92 158.93 153.92 158.07 L 153.93 157.06 C 153.94 156.20 153.25 155.49 152.38 155.49 C 151.52 155.48 150.81 156.17 150.80 157.04 Z M 150.80 158.00 L 150.77 158.84 C 150.74 159.70 151.42 160.42 152.28 160.45 C 153.14 160.48 153.87 159.80 153.90 158.94 L 153.92 158.11 C 153.95 157.24 153.27 156.52 152.41 156.49 C 151.55 156.46 150.82 157.14 150.80 158.00 Z M 150.77 158.79 L 150.71 159.77 C 150.65 160.63 151.31 161.38 152.17 161.43 C 153.03 161.49 153.77 160.84 153.83 159.97 L 153.89 158.99 C 153.95 158.13 153.29 157.38 152.43 157.33 C 151.57 157.27 150.83 157.92 150.77 158.79 Z M 150.71 159.75 L 150.62 160.85 C 150.55 161.71 151.19 162.47 152.05 162.54 C 152.91 162.61 153.67 161.96 153.74 161.10 L 153.83 160.00 C 153.90 159.14 153.25 158.38 152.39 158.31 C 151.53 158.24 150.78 158.89 150.71 159.75 Z M 150.62 160.84 L 150.54 161.83 C 150.46 162.69 151.10 163.45 151.96 163.53 C 152.82 163.60 153.58 162.96 153.65 162.10 L 153.74 161.11 C 153.81 160.25 153.17 159.49 152.31 159.42 C 151.45 159.34 150.70 159.98 150.62 160.84 Z M 150.54 161.83 L 150.44 162.89 C 150.37 163.75 151.00 164.51 151.86 164.59 C 152.72 164.66 153.48 164.03 153.56 163.17 L 153.65 162.11 C 153.73 161.25 153.09 160.49 152.23 160.41 C 151.37 160.33 150.61 160.97 150.54 161.83 Z M 150.44 162.89 L 150.35 163.92 C 150.27 164.78 150.91 165.54 151.77 165.61 C 152.63 165.69 153.39 165.06 153.46 164.20 L 153.56 163.17 C 153.64 162.31 153.00 161.55 152.14 161.47 C 151.28 161.39 150.52 162.03 150.44 162.89 Z M 150.35 163.91 L 150.25 165.02 C 150.17 165.88 150.80 166.64 151.66 166.72 C 152.52 166.80 153.28 166.17 153.36 165.31 L 153.46 164.20 C 153.54 163.34 152.91 162.58 152.05 162.50 C 151.19 162.42 150.43 163.05 150.35 163.91 Z M 150.25 165.02 L 150.14 166.07 C 150.06 166.93 150.69 167.69 151.55 167.78 C 152.41 167.86 153.17 167.23 153.26 166.37 L 153.36 165.32 C 153.44 164.46 152.81 163.69 151.95 163.61 C 151.09 163.53 150.33 164.16 150.25 165.02 Z M 150.14 166.07 L 150.06 166.90 C 149.98 167.76 150.61 168.52 151.47 168.61 C 152.32 168.69 153.09 168.06 153.18 167.20 L 153.26 166.37 C 153.34 165.51 152.71 164.75 151.86 164.66 C 151.00 164.58 150.23 165.21 150.14 166.07 Z M 150.06 166.90 L 149.97 167.88 C 149.89 168.74 150.52 169.50 151.38 169.58 C 152.24 169.66 153.00 169.03 153.08 168.17 L 153.18 167.20 C 153.26 166.34 152.63 165.57 151.77 165.49 C 150.91 165.41 150.14 166.04 150.06 166.90 Z M 149.97 167.90 L 149.89 168.89 C 149.83 169.75 150.47 170.50 151.33 170.57 C 152.19 170.63 152.95 169.99 153.01 169.13 L 153.09 168.14 C 153.15 167.28 152.51 166.53 151.65 166.46 C 150.79 166.40 150.03 167.04 149.97 167.90 Z M 149.89 168.92 L 149.84 169.89 C 149.79 170.75 150.45 171.49 151.32 171.53 C 152.18 171.58 152.92 170.92 152.96 170.06 L 153.01 169.09 C 153.06 168.23 152.40 167.49 151.54 167.45 C 150.67 167.40 149.94 168.06 149.89 168.92 Z M 149.84 169.90 L 149.79 170.93 C 149.75 171.79 150.41 172.52 151.28 172.56 C 152.14 172.60 152.87 171.94 152.91 171.08 L 152.96 170.05 C 153.00 169.19 152.34 168.45 151.48 168.41 C 150.61 168.37 149.88 169.04 149.84 169.90 Z M 149.79 170.92 L 149.74 171.83 C 149.69 172.69 150.36 173.43 151.22 173.48 C 152.08 173.52 152.82 172.86 152.86 172.00 L 152.91 171.09 C 152.96 170.22 152.30 169.49 151.44 169.44 C 150.57 169.39 149.84 170.05 149.79 170.92 Z M 149.74 171.83 L 149.69 172.85 C 149.64 173.71 150.31 174.45 151.17 174.49 C 152.03 174.54 152.77 173.87 152.81 173.01 L 152.86 172.00 C 152.91 171.13 152.25 170.40 151.38 170.35 C 150.52 170.31 149.79 170.97 149.74 171.83 Z M 149.69 172.87 L 149.65 173.88 C 149.61 174.74 150.28 175.47 151.14 175.51 C 152.01 175.54 152.73 174.87 152.77 174.01 L 152.81 172.99 C 152.85 172.13 152.18 171.40 151.31 171.37 C 150.45 171.33 149.72 172.00 149.69 172.87 Z M 149.64 173.89 L 149.61 174.84 C 149.59 175.71 150.26 176.43 151.13 176.46 C 151.99 176.49 152.71 175.81 152.74 174.95 L 152.77 174.00 C 152.80 173.13 152.12 172.41 151.26 172.38 C 150.40 172.35 149.67 173.03 149.64 173.89 Z M 149.61 174.85 L 149.58 175.88 C 149.56 176.74 150.24 177.46 151.10 177.48 C 151.96 177.51 152.68 176.83 152.71 175.97 L 152.74 174.94 C 152.76 174.08 152.09 173.36 151.22 173.33 C 150.36 173.31 149.64 173.99 149.61 174.85 Z M 149.58 175.87 L 149.55 176.95 C 149.52 177.82 150.20 178.54 151.07 178.56 C 151.93 178.59 152.65 177.91 152.68 177.05 L 152.71 175.97 C 152.73 175.11 152.06 174.39 151.19 174.36 C 150.33 174.33 149.61 175.01 149.58 175.87 Z M 149.55 176.95 L 149.52 177.98 C 149.49 178.85 150.17 179.57 151.03 179.60 C 151.89 179.62 152.61 178.95 152.64 178.09 L 152.68 177.05 C 152.70 176.19 152.03 175.47 151.16 175.44 C 150.30 175.41 149.58 176.09 149.55 176.95 Z M 149.52 177.98 L 149.48 179.01 C 149.46 179.87 150.13 180.60 150.99 180.62 C 151.86 180.65 152.58 179.98 152.61 179.11 L 152.64 178.09 C 152.67 177.22 151.99 176.50 151.13 176.47 C 150.27 176.44 149.55 177.12 149.52 177.98 Z M 149.48 179.02 L 149.45 180.00 C 149.43 180.86 150.11 181.58 150.97 181.61 C 151.83 181.64 152.55 180.96 152.58 180.09 L 152.61 179.11 C 152.63 178.25 151.96 177.53 151.09 177.50 C 150.23 177.47 149.51 178.15 149.48 179.02 Z M 149.45 180.01 L 149.43 181.01 C 149.41 181.87 150.09 182.59 150.96 182.61 C 151.82 182.63 152.54 181.94 152.56 181.08 L 152.58 180.08 C 152.60 179.22 151.92 178.50 151.05 178.48 C 150.19 178.46 149.47 179.15 149.45 180.01 Z M 149.43 181.03 L 149.42 182.07 C 149.41 182.93 150.10 183.64 150.96 183.65 C 151.82 183.66 152.53 182.97 152.54 182.10 L 152.56 181.07 C 152.57 180.20 151.88 179.49 151.01 179.48 C 150.15 179.47 149.44 180.16 149.43 181.03 Z M 149.42 182.08 L 149.41 183.03 C 149.41 183.89 150.11 184.60 150.97 184.60 C 151.83 184.60 152.54 183.90 152.54 183.04 L 152.54 182.09 C 152.55 181.23 151.85 180.53 150.99 180.52 C 150.12 180.52 149.42 181.22 149.42 182.08 Z M 149.41 183.04 L 149.41 184.00 C 149.41 184.86 150.11 185.56 150.98 185.56 C 151.84 185.56 152.54 184.86 152.54 184.00 L 152.54 183.04 C 152.54 182.17 151.84 181.47 150.98 181.47 C 150.11 181.47 149.41 182.17 149.41 183.04 Z M 149.41 184.00 L 149.41 185.00 C 149.41 185.86 150.11 186.56 150.98 186.56 C 151.84 186.56 152.54 185.86 152.54 185.00 L 152.54 184.00 C 152.54 183.14 151.84 182.44 150.98 182.44 C 150.11 182.44 149.41 183.14 149.41 184.00 Z M 149.41 185.00 L 149.41 186.00 C 149.41 186.86 150.11 187.56 150.98 187.56 C 151.84 187.56 152.54 186.86 152.54 186.00 L 152.54 185.00 C 152.54 184.14 151.84 183.44 150.98 183.44 C 150.11 183.44 149.41 184.14 149.41 185.00 Z M 149.41 186.00 L 149.41 187.03 C 149.41 187.90 150.11 188.59 150.98 188.59 C 151.84 188.59 152.54 187.90 152.54 187.03 L 152.54 186.00 C 152.54 185.14 151.84 184.44 150.98 184.44 C 150.11 184.44 149.41 185.14 149.41 186.00 Z M 149.41 187.03 L 149.41 188.03 C 149.41 188.89 150.11 189.59 150.98 189.59 C 151.84 189.59 152.54 188.89 152.54 188.03 L 152.54 187.03 C 152.54 186.17 151.84 185.47 150.98 185.47 C 150.11 185.47 149.41 186.17 149.41 187.03 Z M 149.41 188.03 L 149.41 189.03 C 149.41 189.90 150.11 190.59 150.98 190.59 C 151.84 190.59 152.54 189.90 152.54 189.03 L 152.54 188.03 C 152.54 187.17 151.84 186.47 150.98 186.47 C 150.11 186.47 149.41 187.17 149.41 188.03 Z M 149.41 189.03 L 149.41 190.04 C 149.41 190.90 150.11 191.60 150.98 191.60 C 151.84 191.60 152.54 190.90 152.54 190.04 L 152.54 189.03 C 152.54 188.17 151.84 187.47 150.98 187.47 C 150.11 187.47 149.41 188.17 149.41 189.03 Z M 149.41 190.04 L 149.41 191.01 C 149.41 191.87 150.11 192.57 150.98 192.57 C 151.84 192.57 152.54 191.87 152.54 191.01 L 152.54 190.04 C 152.54 189.17 151.84 188.47 150.98 188.47 C 150.11 188.47 149.41 189.17 149.41 190.04 Z M 149.41 191.01 L 149.41 192.00 C 149.41 192.87 150.11 193.56 150.98 193.56 C 151.84 193.56 152.54 192.87 152.54 192.00 L 152.54 191.01 C 152.54 190.14 151.84 189.44 150.98 189.44 C 150.11 189.44 149.41 190.14 149.41 191.01 Z M 149.41 192.00 L 149.41 193.00 C 149.41 193.86 150.11 194.56 150.98 194.56 C 151.84 194.56 152.54 193.86 152.54 193.00 L 152.54 192.00 C 152.54 191.14 151.84 190.44 150.98 190.44 C 150.11 190.44 149.41 191.14 149.41 192.00 Z M 149.41 193.00 L 149.41 194.00 C 149.41 194.86 150.11 195.56 150.98 195.56 C 151.84 195.56 152.54 194.86 152.54 194.00 L 152.54 193.00 C 152.54 192.14 151.84 191.44 150.98 191.44 C 150.11 191.44 149.41 192.14 149.41 193.00 Z M 149.41 194.00 L 149.41 194.94 C 149.41 195.81 150.11 196.51 150.98 196.51 C 151.84 196.51 152.54 195.81 152.54 194.94 L 152.54 194.00 C 152.54 193.14 151.84 192.44 150.98 192.44 C 150.11 192.44 149.41 193.14 149.41 194.00 Z M 149.41 194.94 L 149.41 195.97 C 149.41 196.83 150.11 197.53 150.98 197.53 C 151.84 197.53 152.54 196.83 152.54 195.97 L 152.54 194.94 C 152.54 194.08 151.84 193.38 150.98 193.38 C 150.11 193.38 149.41 194.08 149.41 194.94 Z M 149.41 195.97 L 149.41 196.98 C 149.41 197.84 150.11 198.54 150.98 198.54 C 151.84 198.54 152.54 197.84 152.54 196.98 L 152.54 195.97 C 152.54 195.11 151.84 194.41 150.98 194.41 C 150.11 194.41 149.41 195.11 149.41 195.97 Z M 149.41 196.98 L 149.41 198.01 C 149.41 198.87 150.11 199.57 150.98 199.57 C 151.84 199.57 152.54 198.87 152.54 198.01 L 152.54 196.98 C 152.54 196.11 151.84 195.41 150.98 195.41 C 150.11 195.41 149.41 196.11 149.41 196.98 Z M 149.41 198.01 L 149.41 199.03 C 149.41 199.90 150.11 200.60 150.98 200.60 C 151.84 200.60 152.54 199.90 152.54 199.03 L 152.54 198.01 C 152.54 197.14 151.84 196.44 150.98 196.44 C 150.11 196.44 149.41 197.14 149.41 198.01 Z M 149.41 199.04 L 149.42 200.04 C 149.42 200.90 150.12 201.60 150.99 201.60 C 151.85 201.59 152.55 200.89 152.54 200.03 L 152.54 199.03 C 152.54 198.17 151.83 197.47 150.97 197.47 C 150.11 197.48 149.41 198.18 149.41 199.04 Z M 149.42 200.06 L 149.43 200.98 C 149.45 201.84 150.16 202.53 151.02 202.52 C 151.88 202.50 152.57 201.79 152.56 200.93 L 152.54 200.01 C 152.53 199.15 151.82 198.46 150.96 198.47 C 150.09 198.49 149.41 199.20 149.42 200.06 Z M 149.43 201.00 L 149.46 201.92 C 149.48 202.78 150.20 203.46 151.06 203.44 C 151.92 203.41 152.60 202.70 152.58 201.83 L 152.56 200.91 C 152.53 200.05 151.81 199.37 150.95 199.39 C 150.09 199.42 149.41 200.13 149.43 201.00 Z M 149.46 201.92 L 149.49 203.03 C 149.51 203.89 150.23 204.57 151.09 204.55 C 151.96 204.53 152.64 203.81 152.61 202.95 L 152.58 201.83 C 152.56 200.97 151.84 200.29 150.98 200.31 C 150.11 200.34 149.43 201.06 149.46 201.92 Z M 149.49 203.03 L 149.51 203.99 C 149.53 204.86 150.25 205.54 151.11 205.52 C 151.97 205.50 152.66 204.78 152.63 203.92 L 152.61 202.95 C 152.59 202.09 151.87 201.41 151.01 201.43 C 150.15 201.45 149.47 202.16 149.49 203.03 Z M 149.51 203.99 L 149.54 205.02 C 149.56 205.89 150.27 206.57 151.14 206.55 C 152.00 206.53 152.68 205.81 152.66 204.95 L 152.63 203.92 C 152.61 203.05 151.90 202.37 151.03 202.39 C 150.17 202.42 149.49 203.13 149.51 203.99 Z M 149.54 205.03 L 149.57 206.05 C 149.59 206.91 150.31 207.59 151.18 207.57 C 152.04 207.54 152.72 206.82 152.69 205.96 L 152.66 204.94 C 152.63 204.08 151.91 203.40 151.05 203.42 C 150.19 203.45 149.51 204.17 149.54 205.03 Z M 149.57 206.07 L 149.61 207.09 C 149.65 207.95 150.37 208.62 151.23 208.59 C 152.10 208.55 152.77 207.82 152.73 206.96 L 152.69 205.94 C 152.65 205.08 151.93 204.41 151.07 204.44 C 150.20 204.48 149.53 205.21 149.57 206.07 Z M 149.61 207.11 L 149.66 208.08 C 149.71 208.95 150.44 209.61 151.30 209.56 C 152.17 209.52 152.83 208.78 152.78 207.92 L 152.73 206.95 C 152.69 206.08 151.95 205.42 151.09 205.47 C 150.23 205.51 149.57 206.25 149.61 207.11 Z M 149.66 208.09 L 149.72 209.07 C 149.77 209.93 150.50 210.59 151.36 210.55 C 152.22 210.50 152.88 209.76 152.84 208.90 L 152.78 207.92 C 152.73 207.06 152.00 206.40 151.14 206.44 C 150.27 206.49 149.62 207.23 149.66 208.09 Z M 149.72 209.07 L 149.77 210.09 C 149.81 210.95 150.55 211.61 151.41 211.57 C 152.27 211.52 152.93 210.79 152.89 209.93 L 152.84 208.91 C 152.79 208.05 152.06 207.38 151.20 207.43 C 150.34 207.47 149.67 208.20 149.72 209.07 Z M 149.77 210.08 L 149.82 211.12 C 149.86 211.98 150.59 212.65 151.45 212.61 C 152.32 212.56 152.98 211.83 152.94 210.97 L 152.89 209.93 C 152.85 209.07 152.11 208.41 151.25 208.45 C 150.39 208.49 149.73 209.22 149.77 210.08 Z M 149.82 211.13 L 149.87 212.09 C 149.92 212.95 150.65 213.61 151.51 213.57 C 152.37 213.52 153.03 212.79 152.99 211.93 L 152.94 210.96 C 152.89 210.10 152.16 209.44 151.30 209.49 C 150.44 209.53 149.77 210.27 149.82 211.13 Z M 149.87 212.11 L 149.94 213.18 C 150.00 214.04 150.74 214.69 151.60 214.63 C 152.46 214.57 153.12 213.83 153.06 212.97 L 152.99 211.91 C 152.93 211.05 152.19 210.39 151.33 210.45 C 150.47 210.51 149.81 211.25 149.87 212.11 Z M 149.94 213.19 L 150.01 214.12 C 150.08 214.98 150.83 215.62 151.68 215.56 C 152.54 215.50 153.19 214.75 153.13 213.89 L 153.06 212.96 C 152.99 212.10 152.24 211.46 151.39 211.52 C 150.53 211.58 149.88 212.33 149.94 213.19 Z M 150.01 214.09 L 150.06 215.06 C 150.11 215.92 150.85 216.58 151.71 216.53 C 152.57 216.48 153.23 215.75 153.18 214.89 L 153.13 213.92 C 153.08 213.06 152.34 212.40 151.48 212.45 C 150.62 212.49 149.97 213.23 150.01 214.09 Z M 150.06 215.02 L 150.10 216.04 C 150.12 216.90 150.84 217.57 151.71 217.54 C 152.57 217.52 153.24 216.79 153.21 215.93 L 153.18 214.92 C 153.15 214.06 152.43 213.39 151.57 213.41 C 150.71 213.44 150.04 214.16 150.06 215.02 Z M 150.10 216.01 L 150.11 216.99 C 150.12 217.85 150.83 218.54 151.69 218.53 C 152.55 218.52 153.24 217.81 153.23 216.95 L 153.21 215.96 C 153.20 215.10 152.49 214.41 151.63 214.43 C 150.77 214.44 150.08 215.15 150.10 216.01 Z M 150.11 216.97 L 150.11 217.97 C 150.12 218.84 150.82 219.53 151.68 219.53 C 152.54 219.53 153.23 218.83 153.23 217.97 L 153.23 216.97 C 153.23 216.10 152.53 215.41 151.67 215.41 C 150.80 215.41 150.11 216.11 150.11 216.97 Z M 150.11 217.97 L 150.11 218.98 C 150.11 219.84 150.81 220.54 151.67 220.54 C 152.53 220.54 153.23 219.84 153.23 218.98 L 153.23 217.97 C 153.23 217.11 152.54 216.41 151.68 216.41 C 150.81 216.41 150.11 217.11 150.11 217.97 Z M 150.11 218.95 L 150.09 219.96 C 150.07 220.82 150.76 221.54 151.62 221.55 C 152.48 221.57 153.19 220.89 153.21 220.03 L 153.23 219.01 C 153.25 218.15 152.56 217.44 151.70 217.42 C 150.84 217.40 150.13 218.09 150.11 218.95 Z M 150.09 219.89 L 150.03 220.90 C 149.97 221.76 150.62 222.51 151.48 222.57 C 152.34 222.62 153.08 221.97 153.14 221.12 L 153.21 220.10 C 153.26 219.24 152.61 218.50 151.76 218.44 C 150.90 218.38 150.15 219.03 150.09 219.89 Z M 150.03 220.84 L 149.92 221.81 C 149.83 222.66 150.45 223.43 151.30 223.53 C 152.16 223.62 152.93 223.01 153.02 222.15 L 153.13 221.18 C 153.23 220.32 152.61 219.55 151.75 219.46 C 150.90 219.37 150.13 219.98 150.03 220.84 Z M 149.92 221.82 L 149.83 222.75 C 149.74 223.61 150.37 224.38 151.22 224.46 C 152.08 224.55 152.85 223.92 152.93 223.07 L 153.03 222.13 C 153.11 221.28 152.49 220.51 151.63 220.43 C 150.77 220.34 150.01 220.97 149.92 221.82 Z M 149.83 222.77 L 149.73 223.79 C 149.66 224.65 150.29 225.41 151.14 225.49 C 152.00 225.56 152.76 224.93 152.84 224.07 L 152.93 223.05 C 153.01 222.19 152.38 221.44 151.52 221.36 C 150.67 221.28 149.91 221.91 149.83 222.77 Z M 149.74 223.78 L 149.64 224.74 C 149.55 225.59 150.18 226.36 151.03 226.44 C 151.89 226.53 152.66 225.91 152.74 225.05 L 152.84 224.09 C 152.93 223.23 152.30 222.47 151.44 222.38 C 150.59 222.29 149.82 222.92 149.74 223.78 Z M 149.64 224.74 L 149.54 225.73 C 149.46 226.59 150.08 227.35 150.94 227.44 C 151.80 227.52 152.56 226.90 152.64 226.04 L 152.74 225.04 C 152.83 224.19 152.20 223.42 151.34 223.34 C 150.48 223.26 149.72 223.88 149.64 224.74 Z M 149.54 225.77 L 149.46 226.83 C 149.39 227.69 150.03 228.44 150.89 228.51 C 151.75 228.57 152.50 227.93 152.57 227.07 L 152.65 226.01 C 152.71 225.15 152.07 224.40 151.21 224.33 C 150.35 224.26 149.60 224.91 149.54 225.77 Z M 149.45 226.88 L 149.40 227.92 C 149.36 228.78 150.02 229.51 150.88 229.55 C 151.74 229.60 152.47 228.94 152.52 228.08 L 152.57 227.03 C 152.61 226.17 151.95 225.44 151.09 225.40 C 150.23 225.35 149.50 226.01 149.45 226.88 Z M 149.40 227.94 L 149.37 228.96 C 149.34 229.82 150.01 230.54 150.87 230.57 C 151.73 230.60 152.45 229.92 152.48 229.06 L 152.52 228.05 C 152.54 227.19 151.87 226.47 151.01 226.44 C 150.15 226.41 149.43 227.08 149.40 227.94 Z M 149.37 228.96 L 149.34 229.95 C 149.31 230.81 149.99 231.53 150.85 231.55 C 151.71 231.58 152.43 230.90 152.45 230.04 L 152.48 229.06 C 152.51 228.20 151.83 227.48 150.97 227.45 C 150.11 227.43 149.39 228.10 149.37 228.96 Z M 149.34 229.94 L 149.30 230.97 C 149.27 231.83 149.95 232.55 150.81 232.58 C 151.67 232.61 152.39 231.94 152.42 231.08 L 152.45 230.05 C 152.48 229.19 151.81 228.47 150.95 228.44 C 150.09 228.41 149.37 229.08 149.34 229.94 Z M 149.30 230.99 L 149.28 231.90 C 149.26 232.76 149.94 233.48 150.80 233.50 C 151.66 233.52 152.37 232.84 152.39 231.98 L 152.42 231.07 C 152.44 230.21 151.76 229.49 150.90 229.47 C 150.04 229.45 149.32 230.13 149.30 230.99 Z M 149.28 231.93 L 149.27 232.92 C 149.27 233.78 149.96 234.48 150.82 234.49 C 151.68 234.49 152.38 233.80 152.39 232.94 L 152.39 231.95 C 152.40 231.09 151.71 230.39 150.85 230.38 C 149.99 230.38 149.29 231.07 149.28 231.93 Z M 149.27 232.93 L 149.27 233.90 C 149.27 234.76 149.97 235.46 150.83 235.46 C 151.69 235.46 152.39 234.76 152.39 233.90 L 152.39 232.93 C 152.39 232.07 151.69 231.37 150.83 231.37 C 149.97 231.37 149.27 232.07 149.27 232.93 Z M 149.27 233.90 L 149.27 234.89 C 149.27 235.75 149.97 236.45 150.83 236.45 C 151.69 236.45 152.39 235.75 152.39 234.89 L 152.39 233.90 C 152.39 233.04 151.69 232.35 150.83 232.35 C 149.97 232.35 149.27 233.04 149.27 233.90 Z M 149.27 234.89 L 149.27 235.95 C 149.27 236.81 149.97 237.51 150.83 237.51 C 151.69 237.51 152.38 236.81 152.38 235.95 L 152.38 234.89 C 152.38 234.04 151.69 233.34 150.83 233.34 C 149.97 233.34 149.27 234.04 149.27 234.89 Z M 149.27 235.95 L 149.27 236.98 C 149.27 237.84 149.97 238.54 150.83 238.54 C 151.69 238.54 152.38 237.84 152.38 236.98 L 152.38 235.95 C 152.38 235.09 151.69 234.39 150.83 234.39 C 149.97 234.39 149.27 235.09 149.27 235.95 Z M 149.27 236.98 L 149.27 237.95 C 149.27 238.81 149.97 239.51 150.83 239.51 C 151.69 239.51 152.38 238.81 152.38 237.95 L 152.38 236.98 C 152.38 236.12 151.69 235.43 150.83 235.43 C 149.97 235.43 149.27 236.12 149.27 236.98 Z M 149.28 237.94 L 149.26 238.99 C 149.26 239.85 149.94 240.56 150.80 240.56 C 151.66 240.57 152.36 239.89 152.37 239.03 L 152.38 237.97 C 152.39 237.11 151.70 236.41 150.85 236.40 C 149.99 236.39 149.28 237.08 149.28 237.94 Z M 149.27 238.88 L 149.19 239.81 C 149.12 240.67 149.76 241.42 150.61 241.49 C 151.47 241.56 152.22 240.92 152.29 240.07 L 152.37 239.14 C 152.44 238.28 151.80 237.53 150.95 237.46 C 150.09 237.39 149.34 238.03 149.27 238.88 Z M 149.21 239.67 L 149.04 240.66 C 148.89 241.50 149.45 242.31 150.30 242.46 C 151.14 242.61 151.95 242.04 152.10 241.20 L 152.27 240.21 C 152.42 239.37 151.86 238.56 151.01 238.41 C 150.17 238.26 149.36 238.83 149.21 239.67 Z M 149.05 240.62 L 149.00 240.86 C 148.83 241.70 149.37 242.52 150.21 242.69 C 151.05 242.87 151.87 242.32 152.04 241.48 L 152.09 241.24 C 152.26 240.39 151.72 239.57 150.88 239.40 C 150.04 239.23 149.22 239.78 149.05 240.62 Z"
      fill="black"
      fill-rule="nonzero" /></svg>