<svg xmlns="http://www.w3.org/2000/svg" width="300" height="300" viewBox="0 0 300 300">
<path d="M 151.05 155.70 L 150.05 155.70 C 149.21 155.70 148.53 156.39 148.53 157.23 C 148.53 158.07 149.22 158.75 150.06 158.75 L 151.05 158.74 C 151.90 158.74 152.58 158.06 152.57 157.22 C 152.57 156.38 151.89 155.70 151.05 155.70 Z M 150.03 155.68 L 149.01 155.70 C 148.16 155.72 147.48 156.42 147.50 157.27 C 147.52 158.12 148.22 158.80 149.07 158.78 L 150.09 158.76 C 150.94 158.75 151.61 158.04 151.59 157.19 C 151.58 156.34 150.88 155.67 150.03 155.68 Z M 148.77 155.72 L 147.80 155.89 C 146.95 156.04 146.39 156.84 146.54 157.68 C 146.69 158.53 147.49 159.09 148.33 158.94 L 149.31 158.77 C 150.15 158.62 150.71 157.82 150.56 156.97 C 150.42 156.13 149.61 155.57 148.77 155.72 Z M 147.12 156.18 L 146.35 156.76 C 145.67 157.28 145.53 158.26 146.05 158.94 C 146.57 159.63 147.55 159.76 148.23 159.24 L 149.00 158.65 C 149.69 158.14 149.82 157.16 149.30 156.48 C 148.78 155.79 147.81 155.66 147.12 156.18 Z M 145.90 157.29 L 145.44 158.18 C 145.05 158.95 145.36 159.89 146.13 160.29 C 146.90 160.68 147.84 160.37 148.23 159.60 L 148.68 158.71 C 149.08 157.94 148.77 157.00 148.00 156.61 C 147.23 156.22 146.29 156.52 145.90 157.29 Z M 145.28 158.67 L 145.15 159.65 C 145.03 160.51 145.62 161.30 146.48 161.42 C 147.34 161.55 148.13 160.95 148.25 160.09 L 148.39 159.11 C 148.51 158.25 147.91 157.46 147.06 157.34 C 146.20 157.22 145.40 157.82 145.28 158.67 Z M 145.13 159.90 L 145.15 160.91 C 145.16 161.78 145.87 162.47 146.74 162.46 C 147.61 162.44 148.30 161.73 148.29 160.86 L 148.27 159.85 C 148.26 158.98 147.54 158.29 146.67 158.30 C 145.81 158.32 145.12 159.03 145.13 159.90 Z M 145.19 161.24 L 145.41 162.20 C 145.60 163.04 146.44 163.57 147.29 163.38 C 148.13 163.18 148.66 162.34 148.47 161.49 L 148.25 160.53 C 148.05 159.69 147.21 159.16 146.36 159.36 C 145.52 159.55 144.99 160.39 145.19 161.24 Z M 145.69 162.80 L 146.29 163.59 C 146.82 164.27 147.80 164.40 148.49 163.88 C 149.18 163.35 149.31 162.37 148.78 161.68 L 148.18 160.89 C 147.66 160.21 146.67 160.08 145.98 160.60 C 145.30 161.13 145.17 162.11 145.69 162.80 Z M 146.80 164.01 L 147.68 164.48 C 148.44 164.89 149.39 164.61 149.80 163.85 C 150.21 163.09 149.92 162.14 149.16 161.73 L 148.28 161.25 C 147.52 160.85 146.57 161.13 146.16 161.89 C 145.75 162.65 146.04 163.60 146.80 164.01 Z M 148.41 164.67 L 149.39 164.67 C 150.25 164.67 150.95 163.98 150.96 163.12 C 150.96 162.26 150.27 161.55 149.40 161.55 L 148.43 161.55 C 147.56 161.54 146.86 162.24 146.86 163.10 C 146.86 163.96 147.55 164.66 148.41 164.67 Z M 150.26 164.41 L 151.05 163.89 C 151.77 163.41 151.97 162.45 151.50 161.73 C 151.02 161.01 150.06 160.81 149.34 161.28 L 148.54 161.81 C 147.82 162.28 147.62 163.25 148.10 163.97 C 148.57 164.69 149.54 164.88 150.26 164.41 Z M 151.48 163.47 L 152.06 162.63 C 152.55 161.92 152.37 160.95 151.67 160.46 C 150.96 159.97 149.99 160.15 149.50 160.86 L 148.92 161.70 C 148.43 162.40 148.60 163.37 149.31 163.87 C 150.02 164.36 150.99 164.18 151.48 163.47 Z M 152.25 162.26 L 152.58 161.33 C 152.86 160.52 152.44 159.63 151.62 159.35 C 150.81 159.06 149.92 159.49 149.64 160.30 L 149.31 161.23 C 149.02 162.04 149.45 162.93 150.26 163.21 C 151.07 163.50 151.96 163.07 152.25 162.26 Z M 152.64 161.09 L 152.81 160.13 C 152.97 159.28 152.40 158.47 151.56 158.32 C 150.71 158.16 149.90 158.73 149.75 159.58 L 149.57 160.54 C 149.42 161.39 149.98 162.20 150.83 162.35 C 151.68 162.50 152.49 161.94 152.64 161.09 Z M 152.83 159.99 L 152.92 159.04 C 153.00 158.18 152.36 157.43 151.51 157.35 C 150.65 157.27 149.89 157.90 149.81 158.76 L 149.73 159.71 C 149.65 160.57 150.28 161.32 151.14 161.40 C 152.00 161.48 152.75 160.85 152.83 159.99 Z M 152.92 158.95 L 152.96 157.87 C 152.98 157.01 152.31 156.29 151.45 156.26 C 150.59 156.24 149.87 156.91 149.84 157.77 L 149.81 158.85 C 149.78 159.71 150.46 160.43 151.32 160.46 C 152.18 160.48 152.90 159.81 152.92 158.95 Z M 152.96 157.80 L 152.94 156.78 C 152.93 155.92 152.22 155.23 151.36 155.25 C 150.50 155.26 149.81 155.97 149.83 156.83 L 149.84 157.84 C 149.85 158.70 150.56 159.39 151.42 159.38 C 152.28 159.37 152.97 158.66 152.96 157.80 Z M 152.94 156.67 L 152.85 155.65 C 152.78 154.79 152.02 154.16 151.16 154.23 C 150.30 154.31 149.67 155.06 149.74 155.92 L 149.83 156.94 C 149.90 157.80 150.66 158.43 151.52 158.36 C 152.38 158.28 153.01 157.53 152.94 156.67 Z M 152.82 155.43 L 152.58 154.43 C 152.38 153.59 151.54 153.07 150.70 153.27 C 149.86 153.47 149.34 154.31 149.54 155.15 L 149.78 156.15 C 149.98 156.99 150.82 157.51 151.66 157.31 C 152.50 157.11 153.02 156.27 152.82 155.43 Z M 152.43 154.02 L 151.94 153.15 C 151.51 152.39 150.55 152.13 149.80 152.55 C 149.04 152.98 148.78 153.94 149.20 154.69 L 149.69 155.56 C 150.12 156.31 151.08 156.58 151.83 156.15 C 152.58 155.73 152.85 154.77 152.43 154.02 Z M 151.57 152.70 L 150.84 152.10 C 150.16 151.55 149.17 151.65 148.62 152.32 C 148.07 153.00 148.17 153.99 148.84 154.54 L 149.57 155.14 C 150.25 155.69 151.24 155.59 151.79 154.92 C 152.34 154.24 152.24 153.25 151.57 152.70 Z M 150.29 151.80 L 149.34 151.52 C 148.50 151.27 147.62 151.74 147.37 152.58 C 147.12 153.42 147.60 154.31 148.44 154.56 L 149.38 154.84 C 150.22 155.09 151.11 154.61 151.36 153.77 C 151.61 152.93 151.13 152.05 150.29 151.80 Z M 148.60 151.46 L 147.64 151.64 C 146.77 151.80 146.20 152.63 146.36 153.50 C 146.52 154.37 147.35 154.95 148.22 154.79 L 149.18 154.61 C 150.05 154.45 150.62 153.62 150.47 152.75 C 150.31 151.88 149.47 151.30 148.60 151.46 Z M 146.87 152.00 L 146.14 152.64 C 145.47 153.23 145.40 154.25 145.99 154.92 C 146.58 155.59 147.60 155.66 148.27 155.07 L 149.00 154.43 C 149.67 153.84 149.74 152.82 149.15 152.15 C 148.56 151.48 147.54 151.41 146.87 152.00 Z M 145.73 153.17 L 145.31 154.06 C 144.93 154.87 145.29 155.84 146.10 156.22 C 146.91 156.60 147.88 156.25 148.26 155.44 L 148.68 154.54 C 149.06 153.73 148.70 152.76 147.89 152.38 C 147.08 152.00 146.11 152.35 145.73 153.17 Z M 145.21 154.33 L 144.96 155.28 C 144.73 156.15 145.25 157.04 146.12 157.27 C 146.99 157.50 147.88 156.98 148.11 156.11 L 148.36 155.16 C 148.59 154.29 148.07 153.40 147.20 153.17 C 146.33 152.94 145.44 153.46 145.21 154.33 Z M 144.93 155.44 L 144.78 156.42 C 144.64 157.30 145.25 158.14 146.14 158.28 C 147.02 158.41 147.86 157.80 148.00 156.92 L 148.15 155.94 C 148.29 155.06 147.68 154.22 146.79 154.08 C 145.90 153.95 145.07 154.55 144.93 155.44 Z M 144.76 156.56 L 144.69 157.64 C 144.63 158.53 145.31 159.31 146.20 159.37 C 147.10 159.43 147.88 158.75 147.94 157.85 L 148.01 156.77 C 148.07 155.88 147.39 155.10 146.50 155.04 C 145.60 154.98 144.82 155.66 144.76 156.56 Z M 144.69 157.79 L 144.72 158.85 C 144.74 159.75 145.50 160.46 146.40 160.43 C 147.29 160.40 148.00 159.65 147.97 158.75 L 147.94 157.70 C 147.91 156.80 147.16 156.09 146.26 156.12 C 145.36 156.14 144.66 156.90 144.69 157.79 Z M 144.76 159.19 L 144.98 160.09 C 145.20 160.96 146.08 161.50 146.95 161.29 C 147.83 161.07 148.36 160.19 148.15 159.32 L 147.93 158.42 C 147.72 157.54 146.83 157.01 145.96 157.22 C 145.09 157.43 144.55 158.31 144.76 159.19 Z M 145.56 160.99 L 146.33 161.59 C 147.04 162.14 148.07 162.02 148.62 161.31 C 149.17 160.60 149.05 159.58 148.34 159.02 L 147.57 158.42 C 146.86 157.87 145.84 157.99 145.28 158.70 C 144.73 159.41 144.85 160.43 145.56 160.99 Z M 147.96 161.81 L 148.74 161.48 C 149.56 161.14 149.95 160.18 149.61 159.36 C 149.26 158.53 148.31 158.14 147.48 158.48 L 146.71 158.81 C 145.88 159.15 145.49 160.11 145.84 160.93 C 146.18 161.76 147.14 162.15 147.96 161.81 Z M 149.45 160.89 L 150.02 160.05 C 150.53 159.31 150.34 158.30 149.60 157.80 C 148.86 157.30 147.85 157.49 147.35 158.22 L 146.77 159.07 C 146.27 159.81 146.46 160.82 147.20 161.32 C 147.94 161.82 148.94 161.63 149.45 160.89 Z M 150.17 159.77 L 150.58 158.80 C 150.93 157.98 150.55 157.04 149.73 156.69 C 148.92 156.34 147.97 156.72 147.62 157.53 L 147.21 158.50 C 146.86 159.32 147.24 160.27 148.05 160.62 C 148.87 160.97 149.82 160.59 150.17 159.77 Z M 150.63 158.66 L 150.94 157.69 C 151.21 156.85 150.75 155.94 149.90 155.67 C 149.06 155.40 148.15 155.87 147.88 156.71 L 147.57 157.68 C 147.30 158.52 147.77 159.43 148.61 159.70 C 149.45 159.97 150.36 159.50 150.63 158.66 Z M 150.97 157.57 L 151.20 156.60 C 151.41 155.74 150.88 154.88 150.01 154.67 C 149.15 154.47 148.29 155.00 148.09 155.86 L 147.85 156.83 C 147.65 157.69 148.18 158.55 149.04 158.76 C 149.90 158.96 150.77 158.43 150.97 157.57 Z M 151.22 156.47 L 151.37 155.50 C 151.51 154.62 150.91 153.81 150.04 153.67 C 149.16 153.54 148.35 154.14 148.21 155.01 L 148.06 155.99 C 147.93 156.86 148.53 157.68 149.40 157.81 C 150.27 157.94 151.09 157.34 151.22 156.47 Z M 151.38 155.39 L 151.47 154.39 C 151.54 153.51 150.89 152.73 150.01 152.66 C 149.13 152.59 148.36 153.24 148.29 154.12 L 148.20 155.12 C 148.13 156.00 148.78 156.77 149.66 156.85 C 150.54 156.92 151.31 156.27 151.38 155.39 Z M 151.47 154.31 L 151.51 153.29 C 151.54 152.41 150.85 151.67 149.97 151.64 C 149.09 151.60 148.35 152.29 148.32 153.17 L 148.28 154.19 C 148.25 155.07 148.94 155.82 149.82 155.85 C 150.70 155.88 151.44 155.19 151.47 154.31 Z M 151.51 153.17 L 151.47 152.17 C 151.44 151.29 150.69 150.60 149.81 150.64 C 148.93 150.67 148.24 151.42 148.28 152.30 L 148.32 153.30 C 148.35 154.18 149.10 154.86 149.98 154.83 C 150.86 154.79 151.55 154.05 151.51 153.17 Z M 151.44 151.90 L 151.21 150.85 C 151.03 149.99 150.18 149.44 149.31 149.62 C 148.45 149.81 147.90 150.66 148.08 151.53 L 148.31 152.57 C 148.50 153.44 149.35 153.99 150.21 153.80 C 151.08 153.61 151.63 152.76 151.44 151.90 Z M 150.99 150.30 L 150.49 149.55 C 150.00 148.81 149.00 148.61 148.26 149.10 C 147.52 149.59 147.32 150.59 147.81 151.33 L 148.31 152.08 C 148.80 152.82 149.80 153.02 150.54 152.53 C 151.28 152.04 151.48 151.04 150.99 150.30 Z M 149.63 148.90 L 148.70 148.60 C 147.84 148.34 146.94 148.82 146.67 149.67 C 146.41 150.52 146.88 151.43 147.74 151.69 L 148.67 151.98 C 149.52 152.25 150.43 151.77 150.70 150.92 C 150.96 150.07 150.49 149.16 149.63 148.90 Z M 147.37 148.76 L 146.59 149.24 C 145.82 149.70 145.57 150.70 146.04 151.47 C 146.51 152.24 147.51 152.48 148.27 152.02 L 149.06 151.54 C 149.83 151.07 150.07 150.07 149.61 149.30 C 149.14 148.54 148.14 148.29 147.37 148.76 Z M 146.00 149.85 L 145.50 150.75 C 145.07 151.55 145.36 152.54 146.16 152.97 C 146.95 153.40 147.94 153.11 148.37 152.32 L 148.86 151.41 C 149.30 150.62 149.00 149.62 148.21 149.19 C 147.42 148.76 146.43 149.05 146.00 149.85 Z M 145.37 151.06 L 145.08 151.99 C 144.82 152.86 145.31 153.77 146.17 154.04 C 147.04 154.30 147.95 153.81 148.22 152.95 L 148.50 152.01 C 148.77 151.15 148.28 150.23 147.41 149.97 C 146.55 149.71 145.63 150.19 145.37 151.06 Z M 145.04 152.18 L 144.86 153.14 C 144.70 154.03 145.29 154.88 146.18 155.05 C 147.07 155.21 147.93 154.62 148.09 153.73 L 148.26 152.77 C 148.43 151.87 147.84 151.02 146.94 150.86 C 146.05 150.69 145.20 151.29 145.04 152.18 Z M 144.84 153.25 L 144.73 154.22 C 144.63 155.13 145.28 155.94 146.18 156.04 C 147.09 156.14 147.90 155.49 148.00 154.59 L 148.11 153.61 C 148.21 152.71 147.56 151.90 146.66 151.80 C 145.75 151.70 144.94 152.35 144.84 153.25 Z M 144.72 154.32 L 144.66 155.37 C 144.61 156.28 145.31 157.06 146.22 157.11 C 147.12 157.16 147.90 156.46 147.95 155.56 L 148.01 154.50 C 148.06 153.59 147.36 152.81 146.46 152.76 C 145.55 152.71 144.77 153.41 144.72 154.32 Z M 144.66 155.43 L 144.64 156.46 C 144.62 157.37 145.35 158.12 146.26 158.14 C 147.17 158.16 147.92 157.43 147.94 156.52 L 147.96 155.50 C 147.97 154.59 147.25 153.84 146.34 153.82 C 145.43 153.80 144.68 154.52 144.66 155.43 Z M 144.64 156.49 L 144.64 157.47 C 144.63 158.38 145.37 159.12 146.28 159.13 C 147.19 159.13 147.93 158.39 147.93 157.48 L 147.94 156.50 C 147.94 155.59 147.20 154.85 146.29 154.84 C 145.38 154.84 144.64 155.58 144.64 156.49 Z M 144.63 157.48 L 144.64 158.55 C 144.64 159.46 145.38 160.20 146.29 160.20 C 147.20 160.20 147.94 159.45 147.94 158.54 L 147.94 157.47 C 147.93 156.56 147.19 155.82 146.28 155.83 C 145.37 155.83 144.63 156.57 144.63 157.48 Z M 144.64 158.59 L 144.66 159.51 C 144.68 160.42 145.44 161.14 146.35 161.12 C 147.27 161.10 147.99 160.34 147.96 159.43 L 147.94 158.50 C 147.92 157.59 147.16 156.87 146.24 156.90 C 145.33 156.92 144.61 157.68 144.64 158.59 Z M 144.67 159.66 L 144.78 160.63 C 144.88 161.54 145.70 162.19 146.61 162.09 C 147.52 161.99 148.17 161.17 148.06 160.26 L 147.95 159.28 C 147.85 158.38 147.03 157.72 146.13 157.83 C 145.22 157.93 144.57 158.75 144.67 159.66 Z M 144.86 160.99 L 145.20 161.95 C 145.50 162.81 146.44 163.26 147.30 162.96 C 148.17 162.66 148.62 161.71 148.32 160.85 L 147.98 159.90 C 147.68 159.04 146.74 158.59 145.88 158.89 C 145.01 159.19 144.56 160.13 144.86 160.99 Z M 145.39 162.33 L 145.96 163.16 C 146.47 163.92 147.50 164.12 148.25 163.61 C 149.01 163.09 149.21 162.07 148.69 161.31 L 148.13 160.47 C 147.61 159.72 146.59 159.52 145.83 160.03 C 145.07 160.54 144.88 161.57 145.39 162.33 Z M 146.37 163.59 L 147.20 164.18 C 147.95 164.70 148.98 164.53 149.51 163.78 C 150.03 163.04 149.86 162.00 149.11 161.48 L 148.28 160.89 C 147.53 160.36 146.50 160.54 145.97 161.28 C 145.45 162.03 145.62 163.06 146.37 163.59 Z M 148.32 164.47 L 149.20 164.38 C 150.11 164.29 150.77 163.48 150.68 162.57 C 150.59 161.67 149.78 161.00 148.87 161.09 L 147.99 161.18 C 147.08 161.27 146.42 162.08 146.51 162.99 C 146.60 163.90 147.41 164.56 148.32 164.47 Z M 150.26 163.84 L 150.90 163.14 C 151.51 162.47 151.46 161.42 150.78 160.81 C 150.10 160.20 149.06 160.25 148.45 160.93 L 147.81 161.63 C 147.20 162.31 147.26 163.35 147.93 163.96 C 148.61 164.58 149.65 164.52 150.26 163.84 Z M 151.15 162.77 L 151.63 161.80 C 152.03 160.98 151.70 159.99 150.89 159.59 C 150.07 159.18 149.08 159.52 148.68 160.33 L 148.19 161.30 C 147.79 162.12 148.12 163.11 148.94 163.51 C 149.75 163.92 150.74 163.59 151.15 162.77 Z M 151.70 161.62 L 152.04 160.66 C 152.35 159.80 151.90 158.86 151.04 158.55 C 150.19 158.25 149.25 158.70 148.94 159.55 L 148.60 160.52 C 148.30 161.37 148.75 162.31 149.60 162.62 C 150.46 162.92 151.40 162.47 151.70 161.62 Z M 152.08 160.55 L 152.34 159.60 C 152.58 158.72 152.07 157.82 151.20 157.58 C 150.33 157.33 149.42 157.84 149.18 158.71 L 148.91 159.66 C 148.67 160.54 149.18 161.44 150.05 161.69 C 150.93 161.93 151.83 161.42 152.08 160.55 Z M 152.36 159.50 L 152.56 158.54 C 152.75 157.65 152.19 156.78 151.30 156.60 C 150.42 156.41 149.55 156.97 149.36 157.86 L 149.16 158.82 C 148.97 159.70 149.53 160.57 150.42 160.76 C 151.30 160.95 152.17 160.38 152.36 159.50 Z M 152.58 158.44 L 152.72 157.46 C 152.85 156.57 152.24 155.74 151.34 155.61 C 150.45 155.47 149.62 156.09 149.49 156.99 L 149.34 157.96 C 149.21 158.86 149.83 159.69 150.72 159.82 C 151.62 159.95 152.45 159.33 152.58 158.44 Z M 152.73 157.39 L 152.83 156.38 C 152.93 155.48 152.27 154.68 151.38 154.59 C 150.48 154.50 149.67 155.15 149.58 156.05 L 149.48 157.06 C 149.39 157.95 150.04 158.76 150.94 158.85 C 151.83 158.94 152.64 158.29 152.73 157.39 Z M 152.84 156.31 L 152.90 155.28 C 152.95 154.38 152.27 153.61 151.36 153.55 C 150.46 153.50 149.69 154.19 149.64 155.09 L 149.58 156.12 C 149.52 157.02 150.21 157.79 151.11 157.85 C 152.01 157.90 152.79 157.21 152.84 156.31 Z M 152.90 155.16 L 152.89 154.17 C 152.88 153.26 152.14 152.54 151.24 152.55 C 150.33 152.56 149.61 153.31 149.62 154.21 L 149.63 155.21 C 149.64 156.11 150.39 156.83 151.29 156.82 C 152.19 156.81 152.91 156.07 152.90 155.16 Z M 152.88 153.96 L 152.73 152.89 C 152.60 151.99 151.78 151.37 150.88 151.49 C 149.99 151.62 149.36 152.44 149.49 153.34 L 149.63 154.41 C 149.76 155.31 150.59 155.93 151.48 155.81 C 152.38 155.68 153.00 154.86 152.88 153.96 Z M 152.52 152.28 L 152.09 151.55 C 151.63 150.77 150.63 150.52 149.85 150.98 C 149.07 151.43 148.81 152.44 149.27 153.22 L 149.70 153.95 C 150.16 154.72 151.16 154.98 151.94 154.52 C 152.72 154.06 152.98 153.06 152.52 152.28 Z M 149.90 150.94 L 149.18 151.33 C 148.38 151.76 148.08 152.75 148.50 153.55 C 148.93 154.35 149.92 154.65 150.72 154.22 L 151.45 153.83 C 152.25 153.41 152.55 152.41 152.12 151.61 C 151.70 150.81 150.70 150.51 149.90 150.94 Z M 148.53 151.95 L 148.00 152.87 C 147.54 153.65 147.81 154.66 148.59 155.11 C 149.37 155.57 150.38 155.30 150.84 154.52 L 151.37 153.60 C 151.82 152.82 151.56 151.81 150.77 151.36 C 149.99 150.90 148.98 151.17 148.53 151.95 Z M 147.85 153.19 L 147.55 154.14 C 147.27 155.01 147.75 155.93 148.62 156.21 C 149.48 156.48 150.41 156.01 150.68 155.14 L 150.98 154.19 C 151.26 153.33 150.78 152.40 149.91 152.13 C 149.05 151.85 148.12 152.33 147.85 153.19 Z M 147.50 154.29 L 147.28 155.34 C 147.09 156.23 147.65 157.10 148.54 157.30 C 149.43 157.49 150.30 156.92 150.50 156.04 L 150.72 154.99 C 150.92 154.10 150.35 153.23 149.46 153.03 C 148.57 152.84 147.70 153.41 147.50 154.29 Z M 147.26 155.41 L 147.09 156.44 C 146.94 157.34 147.54 158.19 148.44 158.34 C 149.34 158.49 150.19 157.89 150.34 156.99 L 150.51 155.96 C 150.66 155.06 150.06 154.21 149.16 154.06 C 148.26 153.91 147.41 154.51 147.26 155.41 Z M 147.08 156.49 L 146.95 157.45 C 146.83 158.35 147.46 159.18 148.36 159.30 C 149.27 159.43 150.10 158.79 150.22 157.89 L 150.35 156.93 C 150.47 156.03 149.84 155.20 148.93 155.08 C 148.03 154.96 147.20 155.59 147.08 156.49 Z M 146.94 157.51 L 146.84 158.54 C 146.76 159.45 147.42 160.26 148.33 160.34 C 149.24 160.43 150.04 159.76 150.13 158.86 L 150.23 157.83 C 150.31 156.92 149.65 156.11 148.74 156.03 C 147.83 155.94 147.03 156.61 146.94 157.51 Z M 146.84 158.63 L 146.79 159.57 C 146.75 160.48 147.46 161.25 148.37 161.29 C 149.28 161.33 150.05 160.63 150.09 159.72 L 150.14 158.77 C 150.18 157.86 149.47 157.09 148.56 157.05 C 147.65 157.01 146.88 157.71 146.84 158.63 Z M 146.79 159.63 L 146.78 160.63 C 146.77 161.54 147.51 162.29 148.42 162.30 C 149.33 162.31 150.08 161.57 150.09 160.66 L 150.10 159.66 C 150.11 158.75 149.37 158.00 148.46 157.99 C 147.55 157.98 146.80 158.72 146.79 159.63 Z M 146.78 160.68 L 146.81 161.74 C 146.83 162.65 147.59 163.37 148.50 163.35 C 149.41 163.33 150.13 162.57 150.11 161.66 L 150.09 160.61 C 150.07 159.69 149.31 158.97 148.40 158.99 C 147.48 159.01 146.76 159.77 146.78 160.68 Z M 146.87 162.15 L 147.13 163.06 C 147.38 163.94 148.30 164.45 149.18 164.20 C 150.05 163.95 150.56 163.03 150.31 162.15 L 150.05 161.24 C 149.80 160.37 148.88 159.86 148.00 160.11 C 147.13 160.36 146.62 161.28 146.87 162.15 Z M 148.41 164.23 L 149.27 164.39 C 150.16 164.56 151.03 163.97 151.20 163.07 C 151.37 162.18 150.78 161.31 149.88 161.14 L 149.03 160.98 C 148.13 160.81 147.26 161.40 147.10 162.30 C 146.93 163.20 147.52 164.06 148.41 164.23 Z M 150.48 164.14 L 151.29 163.61 C 152.05 163.11 152.26 162.08 151.76 161.32 C 151.25 160.56 150.23 160.35 149.47 160.86 L 148.66 161.39 C 147.90 161.89 147.69 162.92 148.20 163.68 C 148.70 164.44 149.72 164.65 150.48 164.14 Z M 151.83 163.02 L 152.29 162.17 C 152.73 161.37 152.43 160.36 151.63 159.93 C 150.83 159.49 149.83 159.79 149.40 160.59 L 148.93 161.45 C 148.50 162.25 148.79 163.25 149.59 163.68 C 150.39 164.12 151.39 163.82 151.83 163.02 Z M 152.40 161.91 L 152.75 160.91 C 153.05 160.05 152.59 159.11 151.73 158.81 C 150.86 158.52 149.93 158.98 149.63 159.84 L 149.29 160.84 C 148.99 161.70 149.45 162.64 150.31 162.94 C 151.17 163.23 152.11 162.77 152.40 161.91 Z M 152.78 160.82 L 153.05 159.85 C 153.30 158.97 152.79 158.06 151.91 157.81 C 151.04 157.57 150.13 158.08 149.88 158.95 L 149.61 159.92 C 149.36 160.80 149.87 161.71 150.74 161.96 C 151.62 162.20 152.53 161.69 152.78 160.82 Z M 153.07 159.77 L 153.30 158.78 C 153.51 157.90 152.96 157.01 152.07 156.81 C 151.19 156.60 150.30 157.15 150.10 158.03 L 149.86 159.02 C 149.66 159.91 150.20 160.79 151.09 161.00 C 151.97 161.21 152.86 160.66 153.07 159.77 Z M 153.32 158.69 L 153.49 157.69 C 153.65 156.79 153.05 155.94 152.16 155.78 C 151.26 155.62 150.41 156.22 150.25 157.12 L 150.08 158.12 C 149.92 159.02 150.52 159.87 151.41 160.03 C 152.31 160.18 153.16 159.59 153.32 158.69 Z M 153.51 157.58 L 153.61 156.61 C 153.71 155.70 153.06 154.89 152.16 154.79 C 151.26 154.69 150.45 155.35 150.35 156.25 L 150.24 157.22 C 150.14 158.13 150.79 158.94 151.70 159.04 C 152.60 159.13 153.41 158.48 153.51 157.58 Z M 153.62 156.51 L 153.68 155.51 C 153.72 154.61 153.03 153.83 152.12 153.78 C 151.21 153.74 150.44 154.43 150.39 155.34 L 150.34 156.34 C 150.29 157.25 150.99 158.02 151.89 158.07 C 152.80 158.12 153.57 157.42 153.62 156.51 Z M 153.68 155.41 L 153.67 154.38 C 153.66 153.47 152.91 152.74 152.01 152.75 C 151.10 152.76 150.37 153.51 150.38 154.41 L 150.39 155.44 C 150.40 156.35 151.14 157.08 152.05 157.07 C 152.96 157.06 153.69 156.32 153.68 155.41 Z M 153.66 154.19 L 153.53 153.23 C 153.42 152.33 152.59 151.69 151.69 151.81 C 150.79 151.93 150.15 152.75 150.27 153.65 L 150.39 154.61 C 150.51 155.51 151.33 156.15 152.23 156.03 C 153.13 155.91 153.77 155.09 153.66 154.19 Z M 153.43 152.82 L 153.01 151.80 C 152.66 150.96 151.70 150.56 150.86 150.90 C 150.01 151.25 149.61 152.21 149.96 153.05 L 150.38 154.07 C 150.72 154.91 151.69 155.31 152.53 154.97 C 153.37 154.62 153.77 153.66 153.43 152.82 Z M 152.38 151.04 L 151.69 150.60 C 150.92 150.10 149.90 150.33 149.41 151.09 C 148.91 151.86 149.14 152.88 149.90 153.38 L 150.59 153.82 C 151.36 154.31 152.38 154.09 152.87 153.32 C 153.37 152.55 153.14 151.53 152.38 151.04 Z M 150.10 150.48 L 149.26 150.87 C 148.43 151.26 148.06 152.24 148.45 153.07 C 148.83 153.90 149.81 154.26 150.64 153.88 L 151.49 153.49 C 152.32 153.11 152.68 152.12 152.30 151.29 C 151.92 150.46 150.94 150.10 150.10 150.48 Z M 148.53 151.53 L 148.00 152.40 C 147.54 153.19 147.79 154.21 148.58 154.68 C 149.37 155.14 150.38 154.89 150.85 154.10 L 151.37 153.22 C 151.84 152.44 151.58 151.42 150.80 150.95 C 150.01 150.49 148.99 150.74 148.53 151.53 Z M 147.85 152.74 L 147.53 153.73 C 147.25 154.60 147.73 155.53 148.60 155.82 C 149.47 156.10 150.40 155.62 150.69 154.75 L 151.00 153.76 C 151.29 152.89 150.81 151.96 149.94 151.68 C 149.07 151.39 148.13 151.87 147.85 152.74 Z M 147.49 153.89 L 147.27 154.91 C 147.07 155.80 147.64 156.69 148.53 156.88 C 149.43 157.08 150.31 156.51 150.51 155.61 L 150.73 154.59 C 150.92 153.70 150.36 152.81 149.46 152.62 C 148.57 152.43 147.68 152.99 147.49 153.89 Z M 147.24 155.03 L 147.10 156.08 C 146.97 156.99 147.61 157.82 148.51 157.95 C 149.42 158.08 150.26 157.44 150.38 156.54 L 150.53 155.49 C 150.65 154.58 150.02 153.75 149.11 153.62 C 148.21 153.49 147.37 154.13 147.24 155.03 Z M 147.09 156.21 L 147.03 157.11 C 146.97 158.03 147.67 158.81 148.58 158.87 C 149.50 158.93 150.28 158.23 150.34 157.32 L 150.40 156.41 C 150.45 155.50 149.76 154.71 148.84 154.65 C 147.93 154.60 147.14 155.29 147.09 156.21 Z M 147.03 157.19 L 147.01 158.18 C 147.00 159.09 147.73 159.85 148.64 159.86 C 149.56 159.88 150.31 159.15 150.33 158.23 L 150.34 157.24 C 150.36 156.33 149.63 155.57 148.71 155.56 C 147.80 155.54 147.04 156.27 147.03 157.19 Z M 147.01 158.21 L 147.01 159.20 C 147.01 160.12 147.76 160.86 148.67 160.86 C 149.59 160.86 150.33 160.11 150.33 159.20 L 150.33 158.20 C 150.32 157.29 149.58 156.55 148.67 156.55 C 147.75 156.55 147.01 157.29 147.01 158.21 Z M 147.01 159.26 L 147.05 160.27 C 147.08 161.19 147.85 161.90 148.77 161.87 C 149.68 161.83 150.40 161.07 150.36 160.15 L 150.33 159.14 C 150.29 158.22 149.52 157.51 148.61 157.54 C 147.69 157.58 146.98 158.35 147.01 159.26 Z M 147.07 160.45 L 147.22 161.49 C 147.35 162.40 148.19 163.03 149.09 162.90 C 150.00 162.77 150.63 161.93 150.50 161.02 L 150.35 159.98 C 150.22 159.07 149.38 158.44 148.47 158.57 C 147.56 158.70 146.94 159.54 147.07 160.45 Z M 147.35 161.96 L 147.75 162.81 C 148.14 163.64 149.12 164.00 149.95 163.61 C 150.78 163.22 151.14 162.24 150.75 161.41 L 150.36 160.56 C 149.97 159.73 148.99 159.37 148.16 159.75 C 147.33 160.14 146.97 161.13 147.35 161.96 Z M 148.58 163.62 L 149.48 164.02 C 150.32 164.39 151.30 164.02 151.67 163.18 C 152.04 162.34 151.66 161.36 150.82 160.99 L 149.92 160.59 C 149.09 160.22 148.11 160.60 147.74 161.44 C 147.37 162.27 147.74 163.25 148.58 163.62 Z M 151.17 163.81 L 151.83 163.30 C 152.55 162.73 152.68 161.69 152.12 160.97 C 151.56 160.25 150.52 160.12 149.79 160.68 L 149.13 161.20 C 148.41 161.76 148.28 162.80 148.85 163.53 C 149.41 164.25 150.45 164.38 151.17 163.81 Z M 152.36 162.57 L 152.74 161.56 C 153.06 160.71 152.63 159.75 151.77 159.43 C 150.91 159.11 149.96 159.55 149.64 160.40 L 149.26 161.41 C 148.94 162.27 149.38 163.22 150.23 163.54 C 151.09 163.86 152.04 163.43 152.36 162.57 Z M 152.79 161.40 L 153.04 160.42 C 153.27 159.53 152.74 158.63 151.85 158.40 C 150.97 158.17 150.07 158.71 149.84 159.59 L 149.59 160.57 C 149.36 161.46 149.89 162.36 150.78 162.58 C 151.66 162.81 152.56 162.28 152.79 161.40 Z M 153.05 160.35 L 153.27 159.35 C 153.46 158.45 152.90 157.58 152.00 157.39 C 151.11 157.19 150.24 157.76 150.04 158.65 L 149.83 159.66 C 149.64 160.55 150.20 161.43 151.09 161.62 C 151.99 161.81 152.86 161.24 153.05 160.35 Z M 153.28 159.29 L 153.45 158.32 C 153.61 157.42 153.02 156.57 152.12 156.41 C 151.23 156.24 150.37 156.84 150.21 157.73 L 150.04 158.71 C 149.88 159.60 150.47 160.46 151.37 160.62 C 152.26 160.78 153.12 160.19 153.28 159.29 Z M 153.46 158.24 L 153.59 157.26 C 153.71 156.37 153.08 155.54 152.18 155.42 C 151.28 155.30 150.45 155.93 150.33 156.83 L 150.20 157.81 C 150.08 158.71 150.72 159.53 151.62 159.65 C 152.51 159.77 153.34 159.14 153.46 158.24 Z M 153.60 157.17 L 153.67 156.18 C 153.74 155.27 153.06 154.49 152.16 154.42 C 151.26 154.35 150.47 155.03 150.40 155.93 L 150.33 156.93 C 150.26 157.83 150.94 158.62 151.84 158.68 C 152.74 158.75 153.53 158.07 153.60 157.17 Z M 153.67 156.09 L 153.69 155.08 C 153.71 154.18 152.99 153.43 152.09 153.41 C 151.19 153.40 150.44 154.12 150.42 155.02 L 150.40 156.02 C 150.38 156.93 151.10 157.67 152.00 157.69 C 152.91 157.71 153.66 156.99 153.67 156.09 Z M 153.69 155.05 L 153.69 154.06 C 153.69 153.15 152.96 152.42 152.06 152.42 C 151.15 152.42 150.42 153.15 150.42 154.06 L 150.42 155.05 C 150.42 155.95 151.15 156.69 152.06 156.69 C 152.96 156.69 153.69 155.96 153.69 155.05 Z M 153.69 154.06 L 153.69 153.05 C 153.69 152.15 152.96 151.42 152.06 151.42 C 151.15 151.42 150.42 152.15 150.42 153.05 L 150.42 154.06 C 150.42 154.96 151.15 155.69 152.06 155.69 C 152.96 155.69 153.69 154.96 153.69 154.06 Z M 153.69 152.98 L 153.65 151.96 C 153.60 151.06 152.84 150.36 151.94 150.40 C 151.03 150.44 150.33 151.21 150.38 152.11 L 150.42 153.13 C 150.46 154.03 151.23 154.73 152.13 154.69 C 153.04 154.65 153.73 153.88 153.69 152.98 Z M 153.52 151.40 L 153.13 150.47 C 152.78 149.63 151.82 149.24 150.98 149.59 C 150.15 149.94 149.76 150.90 150.11 151.74 L 150.50 152.67 C 150.85 153.51 151.81 153.90 152.65 153.55 C 153.48 153.20 153.87 152.23 153.52 151.40 Z M 152.08 149.52 L 151.29 149.29 C 150.41 149.04 149.50 149.54 149.25 150.42 C 149.00 151.29 149.50 152.20 150.37 152.45 L 151.16 152.68 C 152.03 152.94 152.95 152.43 153.20 151.56 C 153.45 150.69 152.95 149.78 152.08 149.52 Z M 149.48 149.93 L 148.99 150.63 C 148.47 151.37 148.65 152.40 149.40 152.92 C 150.14 153.44 151.17 153.26 151.69 152.52 L 152.18 151.82 C 152.70 151.07 152.52 150.05 151.77 149.52 C 151.03 149.00 150.00 149.18 149.48 149.93 Z M 148.76 151.10 L 148.43 152.20 C 148.18 153.08 148.67 153.99 149.55 154.25 C 150.42 154.51 151.33 154.01 151.59 153.14 L 151.92 152.04 C 152.18 151.17 151.68 150.25 150.81 149.99 C 149.94 149.73 149.02 150.23 148.76 151.10 Z M 148.39 152.40 L 148.23 153.37 C 148.08 154.27 148.69 155.11 149.59 155.26 C 150.49 155.41 151.33 154.80 151.48 153.90 L 151.64 152.94 C 151.79 152.04 151.18 151.19 150.28 151.05 C 149.38 150.90 148.54 151.51 148.39 152.40 Z M 148.22 153.48 L 148.12 154.50 C 148.03 155.40 148.69 156.21 149.60 156.30 C 150.50 156.38 151.31 155.72 151.39 154.82 L 151.49 153.80 C 151.58 152.89 150.92 152.09 150.02 152.00 C 149.11 151.91 148.31 152.57 148.22 153.48 Z M 148.11 154.57 L 148.06 155.64 C 148.01 156.55 148.71 157.32 149.62 157.37 C 150.52 157.41 151.30 156.72 151.34 155.81 L 151.40 154.74 C 151.44 153.84 150.75 153.06 149.84 153.02 C 148.93 152.97 148.16 153.67 148.11 154.57 Z M 148.06 155.75 L 148.08 156.80 C 148.10 157.70 148.84 158.42 149.75 158.40 C 150.65 158.39 151.37 157.64 151.36 156.74 L 151.34 155.70 C 151.32 154.79 150.58 154.07 149.67 154.09 C 148.77 154.10 148.05 154.85 148.06 155.75 Z M 148.11 157.03 L 148.26 157.92 C 148.41 158.81 149.24 159.41 150.13 159.26 C 151.02 159.12 151.62 158.28 151.47 157.39 L 151.33 156.50 C 151.18 155.61 150.34 155.01 149.45 155.16 C 148.57 155.31 147.96 156.15 148.11 157.03 Z M 148.44 158.38 L 148.90 159.30 C 149.31 160.09 150.27 160.40 151.06 160.00 C 151.85 159.60 152.16 158.63 151.76 157.85 L 151.29 156.93 C 150.89 156.14 149.93 155.83 149.14 156.23 C 148.35 156.63 148.04 157.59 148.44 158.38 Z M 149.15 159.59 L 149.65 160.17 C 150.21 160.82 151.19 160.89 151.85 160.33 C 152.50 159.77 152.57 158.79 152.01 158.13 L 151.51 157.55 C 150.95 156.90 149.97 156.83 149.31 157.39 C 148.66 157.95 148.59 158.94 149.15 159.59 Z"
      fill="black"
      fill-rule="nonzero" /><path d="M 151.07 225.01 L 150.55 224.15 C 150.14 223.46 149.24 223.24 148.55 223.66 C 147.86 224.08 147.64 224.97 148.06 225.66 L 148.57 226.52 C 148.99 227.21 149.89 227.43 150.58 227.01 C 151.27 226.60 151.49 225.70 151.07 225.01 Z M 150.65 224.27 L 150.21 223.37 C 149.86 222.63 148.97 222.32 148.23 222.67 C 147.49 223.03 147.18 223.91 147.53 224.65 L 147.96 225.55 C 148.32 226.29 149.21 226.60 149.95 226.25 C 150.69 225.89 151.00 225.01 150.65 224.27 Z M 150.31 223.53 L 150.00 222.58 C 149.73 221.79 148.87 221.36 148.07 221.62 C 147.28 221.89 146.85 222.75 147.12 223.55 L 147.43 224.49 C 147.70 225.29 148.56 225.72 149.36 225.45 C 150.15 225.18 150.58 224.32 150.31 223.53 Z M 150.04 222.61 L 149.69 221.48 C 149.44 220.66 148.57 220.20 147.75 220.46 C 146.93 220.71 146.47 221.58 146.73 222.40 L 147.07 223.52 C 147.33 224.34 148.20 224.80 149.02 224.55 C 149.83 224.29 150.29 223.43 150.04 222.61 Z M 149.34 220.84 L 149.01 220.50 C 148.41 219.87 147.41 219.86 146.78 220.46 C 146.16 221.07 146.14 222.07 146.75 222.69 L 147.07 223.04 C 147.68 223.66 148.68 223.68 149.31 223.07 C 149.93 222.47 149.95 221.47 149.34 220.84 Z M 146.31 221.35 L 146.14 222.41 C 146.01 223.28 146.60 224.09 147.47 224.23 C 148.34 224.36 149.15 223.77 149.29 222.90 L 149.45 221.84 C 149.59 220.97 148.99 220.16 148.12 220.03 C 147.26 219.89 146.44 220.49 146.31 221.35 Z M 146.12 222.59 L 146.08 223.67 C 146.04 224.55 146.73 225.29 147.61 225.32 C 148.49 225.36 149.23 224.68 149.27 223.80 L 149.31 222.72 C 149.34 221.84 148.66 221.10 147.78 221.06 C 146.90 221.03 146.16 221.71 146.12 222.59 Z M 146.08 223.76 L 146.09 224.76 C 146.11 225.64 146.83 226.34 147.71 226.33 C 148.59 226.32 149.29 225.59 149.28 224.71 L 149.27 223.71 C 149.25 222.83 148.53 222.13 147.65 222.14 C 146.77 222.15 146.07 222.88 146.08 223.76 Z M 146.10 224.88 L 146.19 225.93 C 146.27 226.80 147.05 227.45 147.92 227.37 C 148.80 227.29 149.45 226.52 149.37 225.64 L 149.27 224.59 C 149.20 223.72 148.42 223.07 147.55 223.15 C 146.67 223.23 146.02 224.00 146.10 224.88 Z M 146.28 226.30 L 146.58 227.18 C 146.86 228.01 147.76 228.45 148.59 228.17 C 149.42 227.89 149.87 226.99 149.59 226.15 L 149.29 225.27 C 149.00 224.44 148.10 224.00 147.27 224.28 C 146.44 224.56 145.99 225.47 146.28 226.30 Z M 147.17 227.95 L 147.98 228.53 C 148.69 229.03 149.68 228.86 150.18 228.15 C 150.68 227.44 150.51 226.45 149.80 225.95 L 148.99 225.38 C 148.28 224.87 147.29 225.04 146.79 225.76 C 146.29 226.47 146.46 227.45 147.17 227.95 Z M 149.87 228.46 L 150.48 227.98 C 151.15 227.44 151.26 226.45 150.73 225.78 C 150.19 225.10 149.20 224.99 148.53 225.53 L 147.92 226.02 C 147.24 226.56 147.13 227.54 147.67 228.22 C 148.21 228.89 149.19 229.00 149.87 228.46 Z M 151.00 227.20 L 151.32 226.14 C 151.57 225.31 151.10 224.44 150.27 224.19 C 149.44 223.94 148.57 224.41 148.33 225.24 L 148.01 226.30 C 147.76 227.13 148.23 228.00 149.05 228.25 C 149.88 228.50 150.75 228.03 151.00 227.20 Z M 151.37 225.91 L 151.51 224.98 C 151.63 224.12 151.04 223.33 150.18 223.20 C 149.33 223.08 148.53 223.67 148.41 224.53 L 148.27 225.46 C 148.15 226.32 148.74 227.11 149.60 227.24 C 150.45 227.36 151.25 226.77 151.37 225.91 Z M 151.52 224.86 L 151.59 223.82 C 151.65 222.96 150.99 222.21 150.13 222.15 C 149.26 222.10 148.52 222.75 148.46 223.62 L 148.39 224.65 C 148.33 225.51 148.99 226.26 149.85 226.32 C 150.72 226.38 151.47 225.72 151.52 224.86 Z M 151.60 223.75 L 151.62 222.73 C 151.63 221.86 150.94 221.14 150.07 221.12 C 149.20 221.11 148.49 221.80 148.47 222.67 L 148.45 223.69 C 148.44 224.56 149.13 225.28 150.00 225.29 C 150.87 225.31 151.58 224.62 151.60 223.75 Z M 151.62 222.60 L 151.55 221.58 C 151.50 220.71 150.75 220.05 149.88 220.10 C 149.01 220.16 148.35 220.91 148.40 221.78 L 148.47 222.80 C 148.52 223.67 149.27 224.33 150.14 224.27 C 151.01 224.22 151.67 223.47 151.62 222.60 Z M 151.52 221.31 L 151.28 220.33 C 151.08 219.48 150.22 218.95 149.37 219.16 C 148.52 219.36 148.00 220.22 148.20 221.07 L 148.44 222.05 C 148.64 222.90 149.50 223.42 150.35 223.22 C 151.20 223.01 151.72 222.16 151.52 221.31 Z M 151.10 219.86 L 150.56 218.99 C 150.09 218.24 149.11 218.01 148.36 218.48 C 147.62 218.94 147.39 219.92 147.85 220.67 L 148.39 221.54 C 148.85 222.29 149.84 222.52 150.58 222.05 C 151.33 221.59 151.56 220.61 151.10 219.86 Z M 150.10 218.50 L 149.32 217.97 C 148.59 217.48 147.59 217.67 147.09 218.40 C 146.60 219.13 146.79 220.13 147.52 220.63 L 148.31 221.16 C 149.04 221.66 150.04 221.46 150.53 220.73 C 151.03 220.00 150.84 219.00 150.10 218.50 Z M 148.56 217.69 L 147.57 217.61 C 146.68 217.53 145.90 218.19 145.82 219.07 C 145.75 219.96 146.40 220.74 147.29 220.82 L 148.28 220.91 C 149.17 220.98 149.95 220.33 150.03 219.44 C 150.10 218.55 149.45 217.77 148.56 217.69 Z M 146.50 217.88 L 145.78 218.39 C 145.05 218.90 144.87 219.91 145.38 220.64 C 145.89 221.37 146.90 221.56 147.63 221.04 L 148.35 220.54 C 149.09 220.03 149.27 219.02 148.76 218.29 C 148.25 217.55 147.24 217.37 146.50 217.88 Z M 145.21 219.08 L 144.81 220.03 C 144.45 220.86 144.84 221.81 145.66 222.16 C 146.49 222.52 147.44 222.13 147.79 221.31 L 148.20 220.35 C 148.55 219.53 148.17 218.57 147.35 218.22 C 146.52 217.87 145.57 218.25 145.21 219.08 Z M 144.71 220.33 L 144.51 221.28 C 144.32 222.16 144.88 223.03 145.76 223.21 C 146.65 223.40 147.51 222.83 147.69 221.95 L 147.89 221.01 C 148.08 220.13 147.52 219.26 146.64 219.08 C 145.75 218.89 144.89 219.45 144.71 220.33 Z M 144.48 221.43 L 144.36 222.44 C 144.25 223.34 144.89 224.15 145.79 224.25 C 146.68 224.36 147.49 223.72 147.60 222.83 L 147.72 221.81 C 147.83 220.91 147.19 220.10 146.29 220.00 C 145.40 219.89 144.59 220.53 144.48 221.43 Z M 144.35 222.54 L 144.29 223.59 C 144.24 224.49 144.93 225.26 145.83 225.31 C 146.73 225.36 147.50 224.67 147.55 223.77 L 147.61 222.73 C 147.66 221.82 146.97 221.05 146.07 221.00 C 145.17 220.95 144.40 221.64 144.35 222.54 Z M 144.29 223.65 L 144.27 224.67 C 144.26 225.58 144.98 226.32 145.88 226.33 C 146.78 226.35 147.53 225.63 147.54 224.72 L 147.56 223.70 C 147.57 222.80 146.85 222.06 145.95 222.04 C 145.04 222.03 144.30 222.75 144.29 223.65 Z M 144.27 224.72 L 144.28 225.70 C 144.29 226.60 145.03 227.32 145.93 227.31 C 146.84 227.30 147.56 226.56 147.55 225.66 L 147.54 224.68 C 147.53 223.78 146.79 223.05 145.89 223.06 C 144.98 223.07 144.26 223.81 144.27 224.72 Z M 144.28 225.77 L 144.34 226.78 C 144.39 227.68 145.16 228.37 146.07 228.32 C 146.97 228.27 147.66 227.49 147.61 226.59 L 147.55 225.59 C 147.50 224.68 146.73 223.99 145.82 224.04 C 144.92 224.10 144.23 224.87 144.28 225.77 Z M 144.37 226.99 L 144.55 227.94 C 144.72 228.83 145.58 229.41 146.47 229.24 C 147.35 229.07 147.93 228.21 147.76 227.33 L 147.58 226.38 C 147.41 225.49 146.55 224.91 145.66 225.08 C 144.78 225.25 144.20 226.11 144.37 226.99 Z M 144.62 228.20 L 144.97 229.15 C 145.28 230.00 146.22 230.43 147.07 230.12 C 147.91 229.81 148.35 228.87 148.04 228.02 L 147.69 227.07 C 147.38 226.22 146.44 225.79 145.59 226.10 C 144.75 226.41 144.31 227.35 144.62 228.20 Z M 145.06 229.35 L 145.54 230.24 C 145.96 231.04 146.95 231.34 147.75 230.92 C 148.54 230.49 148.85 229.50 148.42 228.71 L 147.95 227.81 C 147.52 227.02 146.53 226.72 145.73 227.14 C 144.94 227.57 144.64 228.56 145.06 229.35 Z M 145.72 230.52 L 146.36 231.29 C 146.93 231.98 147.96 232.08 148.66 231.50 C 149.35 230.93 149.45 229.90 148.87 229.20 L 148.24 228.43 C 147.66 227.74 146.63 227.64 145.94 228.22 C 145.24 228.79 145.15 229.82 145.72 230.52 Z M 146.82 231.67 L 147.68 232.15 C 148.46 232.59 149.46 232.31 149.90 231.52 C 150.34 230.74 150.06 229.74 149.27 229.30 L 148.41 228.82 C 147.63 228.38 146.64 228.66 146.20 229.45 C 145.76 230.24 146.04 231.23 146.82 231.67 Z M 148.42 232.35 L 149.39 232.39 C 150.29 232.42 151.05 231.72 151.08 230.82 C 151.11 229.92 150.41 229.17 149.51 229.14 L 148.54 229.10 C 147.64 229.07 146.88 229.77 146.85 230.67 C 146.82 231.56 147.52 232.32 148.42 232.35 Z M 150.41 232.08 L 151.17 231.52 C 151.90 230.99 152.06 229.98 151.53 229.25 C 151.00 228.53 149.98 228.37 149.26 228.90 L 148.50 229.45 C 147.77 229.98 147.61 231.00 148.14 231.72 C 148.67 232.45 149.69 232.61 150.41 232.08 Z M 151.63 231.01 L 152.13 230.13 C 152.57 229.35 152.30 228.36 151.52 227.92 C 150.74 227.47 149.75 227.74 149.30 228.52 L 148.80 229.41 C 148.36 230.19 148.63 231.18 149.41 231.62 C 150.19 232.07 151.18 231.79 151.63 231.01 Z M 152.25 229.86 L 152.56 228.97 C 152.85 228.13 152.41 227.20 151.56 226.91 C 150.71 226.61 149.79 227.06 149.49 227.90 L 149.18 228.79 C 148.89 229.64 149.33 230.57 150.18 230.86 C 151.03 231.16 151.95 230.71 152.25 229.86 Z M 152.60 228.80 L 152.84 227.77 C 153.04 226.90 152.50 226.03 151.62 225.83 C 150.75 225.63 149.88 226.18 149.68 227.05 L 149.44 228.08 C 149.24 228.95 149.79 229.82 150.66 230.02 C 151.53 230.22 152.40 229.67 152.60 228.80 Z M 152.86 227.69 L 153.03 226.70 C 153.19 225.82 152.60 224.98 151.72 224.82 C 150.84 224.66 150.00 225.25 149.84 226.13 L 149.66 227.13 C 149.51 228.01 150.10 228.85 150.98 229.01 C 151.86 229.16 152.70 228.58 152.86 227.69 Z M 153.04 226.65 L 153.18 225.64 C 153.31 224.75 152.70 223.93 151.81 223.81 C 150.93 223.68 150.10 224.29 149.98 225.18 L 149.83 226.19 C 149.71 227.07 150.32 227.89 151.21 228.02 C 152.09 228.15 152.91 227.53 153.04 226.65 Z M 153.19 225.57 L 153.30 224.51 C 153.39 223.62 152.74 222.83 151.85 222.74 C 150.96 222.65 150.16 223.30 150.08 224.19 L 149.97 225.25 C 149.88 226.14 150.53 226.93 151.42 227.02 C 152.31 227.11 153.10 226.46 153.19 225.57 Z M 153.30 224.42 L 153.35 223.48 C 153.39 222.59 152.70 221.83 151.81 221.79 C 150.91 221.75 150.16 222.44 150.11 223.33 L 150.07 224.27 C 150.03 225.17 150.72 225.92 151.61 225.97 C 152.50 226.01 153.26 225.32 153.30 224.42 Z M 153.35 223.43 L 153.36 222.47 C 153.37 221.57 152.66 220.84 151.77 220.83 C 150.87 220.81 150.14 221.53 150.12 222.42 L 150.11 223.38 C 150.10 224.28 150.81 225.01 151.71 225.03 C 152.60 225.04 153.34 224.32 153.35 223.43 Z M 153.36 222.43 L 153.35 221.41 C 153.34 220.52 152.61 219.80 151.72 219.81 C 150.82 219.82 150.10 220.55 150.11 221.44 L 150.12 222.46 C 150.13 223.36 150.86 224.08 151.76 224.07 C 152.65 224.06 153.37 223.32 153.36 222.43 Z M 153.35 221.34 L 153.30 220.33 C 153.25 219.43 152.49 218.74 151.59 218.79 C 150.70 218.84 150.01 219.60 150.06 220.50 L 150.11 221.51 C 150.16 222.41 150.92 223.10 151.82 223.05 C 152.71 223.00 153.40 222.24 153.35 221.34 Z M 153.27 220.06 L 153.06 219.09 C 152.87 218.21 152.00 217.66 151.12 217.85 C 150.24 218.04 149.68 218.91 149.88 219.79 L 150.09 220.76 C 150.28 221.64 151.15 222.20 152.03 222.00 C 152.91 221.81 153.46 220.94 153.27 220.06 Z M 152.81 218.50 L 152.23 217.68 C 151.71 216.94 150.69 216.76 149.95 217.28 C 149.21 217.80 149.04 218.82 149.55 219.56 L 150.13 220.38 C 150.65 221.12 151.67 221.30 152.41 220.78 C 153.15 220.26 153.32 219.24 152.81 218.50 Z M 151.33 217.04 L 150.46 216.80 C 149.59 216.55 148.68 217.06 148.44 217.94 C 148.20 218.81 148.71 219.72 149.58 219.96 L 150.45 220.20 C 151.33 220.44 152.23 219.93 152.47 219.06 C 152.72 218.19 152.20 217.28 151.33 217.04 Z M 149.37 216.87 L 148.43 217.27 C 147.60 217.63 147.22 218.60 147.58 219.43 C 147.94 220.27 148.90 220.65 149.74 220.29 L 150.67 219.89 C 151.51 219.53 151.89 218.56 151.53 217.72 C 151.17 216.89 150.20 216.51 149.37 216.87 Z M 147.78 217.77 L 147.20 218.53 C 146.64 219.25 146.78 220.28 147.50 220.84 C 148.22 221.39 149.25 221.26 149.81 220.54 L 150.39 219.79 C 150.95 219.07 150.81 218.03 150.09 217.48 C 149.37 216.92 148.34 217.05 147.78 217.77 Z M 147.00 218.86 L 146.57 219.81 C 146.20 220.64 146.58 221.62 147.41 221.99 C 148.24 222.36 149.22 221.99 149.59 221.16 L 150.01 220.21 C 150.38 219.37 150.01 218.40 149.18 218.03 C 148.34 217.65 147.37 218.03 147.00 218.86 Z M 146.51 219.97 L 146.20 220.93 C 145.91 221.79 146.38 222.73 147.25 223.01 C 148.11 223.30 149.05 222.83 149.33 221.96 L 149.65 221.00 C 149.94 220.13 149.46 219.20 148.60 218.91 C 147.73 218.63 146.80 219.10 146.51 219.97 Z M 146.16 221.03 L 145.91 221.99 C 145.69 222.88 146.22 223.78 147.10 224.01 C 147.99 224.24 148.89 223.71 149.12 222.82 L 149.37 221.86 C 149.60 220.97 149.06 220.07 148.18 219.84 C 147.30 219.61 146.39 220.14 146.16 221.03 Z M 145.90 222.07 L 145.69 223.04 C 145.50 223.93 146.08 224.81 146.97 225.00 C 147.87 225.19 148.74 224.61 148.93 223.72 L 149.14 222.75 C 149.32 221.85 148.75 220.97 147.86 220.79 C 146.96 220.60 146.08 221.17 145.90 222.07 Z M 145.68 223.11 L 145.51 224.10 C 145.36 225.00 145.97 225.85 146.87 226.00 C 147.78 226.15 148.63 225.55 148.78 224.64 L 148.95 223.65 C 149.10 222.75 148.49 221.90 147.58 221.74 C 146.68 221.59 145.83 222.20 145.68 223.11 Z M 145.50 224.17 L 145.38 225.18 C 145.27 226.08 145.91 226.91 146.82 227.02 C 147.73 227.13 148.56 226.49 148.67 225.58 L 148.79 224.57 C 148.90 223.66 148.26 222.83 147.35 222.72 C 146.44 222.61 145.61 223.26 145.50 224.17 Z M 145.37 225.25 L 145.29 226.24 C 145.22 227.16 145.90 227.96 146.81 228.03 C 147.73 228.10 148.53 227.42 148.60 226.51 L 148.68 225.51 C 148.75 224.59 148.07 223.79 147.15 223.72 C 146.24 223.65 145.44 224.33 145.37 225.25 Z M 145.29 226.31 L 145.24 227.31 C 145.21 228.22 145.92 229.00 146.84 229.03 C 147.75 229.07 148.53 228.36 148.56 227.44 L 148.60 226.44 C 148.64 225.53 147.93 224.75 147.01 224.72 C 146.10 224.68 145.32 225.39 145.29 226.31 Z M 145.24 227.36 L 145.23 228.35 C 145.22 229.27 145.96 230.02 146.87 230.03 C 147.79 230.04 148.54 229.31 148.55 228.39 L 148.56 227.39 C 148.57 226.48 147.84 225.73 146.92 225.72 C 146.01 225.70 145.25 226.44 145.24 227.36 Z M 145.23 228.38 L 145.23 229.36 C 145.23 230.27 145.98 231.02 146.90 231.01 C 147.81 231.01 148.56 230.27 148.55 229.35 L 148.55 228.37 C 148.55 227.45 147.81 226.71 146.89 226.71 C 145.97 226.71 145.23 227.46 145.23 228.38 Z M 145.23 229.42 L 145.27 230.41 C 145.31 231.33 146.08 232.04 147.00 232.01 C 147.91 231.97 148.63 231.20 148.59 230.28 L 148.55 229.29 C 148.52 228.37 147.75 227.66 146.83 227.69 C 145.91 227.73 145.20 228.50 145.23 229.42 Z M 145.29 230.58 L 145.43 231.61 C 145.56 232.52 146.40 233.15 147.31 233.02 C 148.21 232.90 148.85 232.06 148.72 231.15 L 148.58 230.12 C 148.45 229.21 147.61 228.58 146.70 228.70 C 145.79 228.83 145.16 229.67 145.29 230.58 Z M 145.51 231.94 L 145.85 232.87 C 146.16 233.73 147.11 234.18 147.97 233.87 C 148.84 233.56 149.28 232.61 148.97 231.75 L 148.64 230.82 C 148.33 229.95 147.38 229.50 146.51 229.81 C 145.65 230.12 145.20 231.08 145.51 231.94 Z M 146.30 233.55 L 147.04 234.21 C 147.72 234.82 148.77 234.76 149.38 234.07 C 150.00 233.39 149.94 232.34 149.25 231.73 L 148.52 231.07 C 147.83 230.46 146.78 230.52 146.17 231.20 C 145.56 231.89 145.62 232.94 146.30 233.55 Z M 148.19 234.63 L 149.09 234.60 C 150.01 234.57 150.73 233.81 150.70 232.90 C 150.67 231.98 149.91 231.26 149.00 231.29 L 148.10 231.31 C 147.18 231.34 146.46 232.10 146.49 233.02 C 146.52 233.93 147.28 234.65 148.19 234.63 Z M 150.19 234.13 L 150.86 233.48 C 151.51 232.85 151.53 231.80 150.89 231.15 C 150.26 230.49 149.21 230.48 148.56 231.11 L 147.89 231.76 C 147.24 232.39 147.22 233.44 147.86 234.09 C 148.50 234.75 149.54 234.76 150.19 234.13 Z M 151.16 233.07 L 151.65 232.15 C 152.08 231.35 151.77 230.35 150.97 229.93 C 150.17 229.50 149.17 229.80 148.75 230.60 L 148.26 231.52 C 147.83 232.33 148.13 233.32 148.93 233.75 C 149.74 234.17 150.73 233.87 151.16 233.07 Z M 151.72 231.98 L 152.08 231.08 C 152.41 230.24 151.99 229.29 151.15 228.95 C 150.31 228.62 149.35 229.04 149.02 229.88 L 148.67 230.78 C 148.34 231.62 148.75 232.57 149.60 232.90 C 150.44 233.24 151.39 232.82 151.72 231.98 Z M 152.11 230.98 L 152.43 229.96 C 152.71 229.10 152.23 228.18 151.37 227.90 C 150.51 227.63 149.59 228.10 149.31 228.97 L 148.99 229.98 C 148.71 230.84 149.19 231.77 150.05 232.04 C 150.91 232.32 151.83 231.84 152.11 230.98 Z M 152.45 229.89 L 152.72 228.91 C 152.95 228.04 152.43 227.14 151.56 226.90 C 150.69 226.67 149.79 227.19 149.56 228.06 L 149.29 229.04 C 149.06 229.91 149.58 230.81 150.45 231.04 C 151.32 231.28 152.22 230.76 152.45 229.89 Z M 152.73 228.85 L 152.96 227.87 C 153.16 226.98 152.60 226.11 151.72 225.91 C 150.84 225.71 149.97 226.26 149.77 227.14 L 149.54 228.12 C 149.34 229.00 149.89 229.88 150.77 230.08 C 151.65 230.28 152.53 229.73 152.73 228.85 Z M 152.97 227.80 L 153.15 226.81 C 153.32 225.93 152.73 225.07 151.85 224.91 C 150.96 224.74 150.11 225.32 149.94 226.21 L 149.75 227.20 C 149.59 228.09 150.17 228.94 151.06 229.11 C 151.95 229.27 152.80 228.69 152.97 227.80 Z M 153.16 226.74 L 153.31 225.69 C 153.44 224.80 152.82 223.97 151.93 223.84 C 151.03 223.72 150.21 224.34 150.08 225.23 L 149.93 226.28 C 149.80 227.18 150.42 228.00 151.32 228.13 C 152.21 228.26 153.04 227.64 153.16 226.74 Z M 153.32 225.62 L 153.42 224.60 C 153.51 223.70 152.86 222.90 151.96 222.81 C 151.06 222.72 150.26 223.38 150.17 224.28 L 150.07 225.30 C 149.98 226.20 150.64 227.00 151.53 227.09 C 152.43 227.18 153.23 226.52 153.32 225.62 Z M 153.43 224.54 L 153.49 223.63 C 153.55 222.73 152.86 221.96 151.96 221.90 C 151.06 221.84 150.28 222.52 150.23 223.42 L 150.17 224.33 C 150.11 225.23 150.79 226.01 151.69 226.07 C 152.59 226.13 153.37 225.44 153.43 224.54 Z M 153.49 223.57 L 153.52 222.53 C 153.55 221.62 152.83 220.87 151.93 220.84 C 151.03 220.82 150.28 221.53 150.25 222.43 L 150.22 223.48 C 150.20 224.39 150.91 225.14 151.81 225.16 C 152.71 225.19 153.47 224.48 153.49 223.57 Z M 153.52 222.43 L 153.49 221.48 C 153.47 220.58 152.71 219.87 151.81 219.90 C 150.90 219.92 150.19 220.68 150.22 221.58 L 150.25 222.53 C 150.27 223.44 151.03 224.15 151.94 224.12 C 152.84 224.09 153.55 223.33 153.52 222.43 Z M 153.48 221.30 L 153.34 220.28 C 153.21 219.38 152.38 218.75 151.48 218.88 C 150.58 219.00 149.96 219.84 150.08 220.74 L 150.23 221.76 C 150.35 222.66 151.19 223.29 152.09 223.16 C 152.98 223.04 153.61 222.20 153.48 221.30 Z M 153.12 219.64 L 152.63 218.84 C 152.14 218.07 151.13 217.83 150.35 218.31 C 149.57 218.79 149.33 219.81 149.82 220.59 L 150.31 221.38 C 150.79 222.15 151.81 222.39 152.58 221.91 C 153.36 221.43 153.60 220.41 153.12 219.64 Z M 151.68 218.12 L 150.74 217.85 C 149.86 217.59 148.94 218.10 148.68 218.98 C 148.43 219.86 148.94 220.78 149.82 221.04 L 150.76 221.31 C 151.64 221.56 152.56 221.06 152.82 220.17 C 153.07 219.29 152.56 218.37 151.68 218.12 Z M 149.64 217.90 L 148.75 218.27 C 147.90 218.62 147.50 219.59 147.85 220.44 C 148.20 221.29 149.17 221.70 150.02 221.35 L 150.91 220.98 C 151.76 220.63 152.17 219.66 151.82 218.81 C 151.47 217.96 150.49 217.55 149.64 217.90 Z M 148.09 218.76 L 147.46 219.55 C 146.88 220.27 146.99 221.32 147.71 221.89 C 148.43 222.47 149.48 222.36 150.05 221.64 L 150.69 220.85 C 151.26 220.13 151.15 219.09 150.43 218.51 C 149.72 217.93 148.67 218.05 148.09 218.76 Z M 147.23 219.91 L 146.83 220.81 C 146.46 221.65 146.83 222.63 147.67 223.01 C 148.51 223.39 149.50 223.01 149.88 222.17 L 150.28 221.28 C 150.65 220.44 150.28 219.45 149.44 219.07 C 148.60 218.70 147.61 219.07 147.23 219.91 Z M 146.75 221.03 L 146.48 221.99 C 146.23 222.88 146.74 223.80 147.63 224.05 C 148.51 224.30 149.43 223.79 149.69 222.91 L 149.96 221.95 C 150.21 221.06 149.70 220.14 148.81 219.89 C 147.92 219.63 147.00 220.15 146.75 221.03 Z M 146.45 222.10 L 146.24 223.07 C 146.05 223.97 146.63 224.86 147.53 225.05 C 148.43 225.24 149.31 224.67 149.51 223.77 L 149.71 222.80 C 149.90 221.90 149.33 221.01 148.43 220.82 C 147.53 220.63 146.64 221.20 146.45 222.10 Z M 146.23 223.13 L 146.06 224.14 C 145.90 225.05 146.51 225.91 147.41 226.07 C 148.32 226.23 149.18 225.62 149.34 224.71 L 149.52 223.70 C 149.67 222.80 149.07 221.93 148.16 221.78 C 147.25 221.62 146.39 222.23 146.23 223.13 Z M 146.05 224.20 L 145.91 225.19 C 145.78 226.11 146.42 226.95 147.33 227.08 C 148.24 227.20 149.08 226.57 149.21 225.65 L 149.35 224.66 C 149.48 223.75 148.84 222.91 147.93 222.78 C 147.02 222.65 146.18 223.29 146.05 224.20 Z M 145.90 225.28 L 145.81 226.29 C 145.73 227.20 146.41 228.01 147.33 228.09 C 148.24 228.17 149.05 227.49 149.13 226.58 L 149.22 225.57 C 149.30 224.65 148.62 223.85 147.71 223.76 C 146.79 223.68 145.98 224.36 145.90 225.28 Z M 145.81 226.38 L 145.78 227.39 C 145.75 228.31 146.47 229.08 147.39 229.11 C 148.31 229.13 149.08 228.41 149.11 227.49 L 149.14 226.48 C 149.16 225.56 148.44 224.79 147.52 224.77 C 146.60 224.74 145.83 225.46 145.81 226.38 Z M 145.78 227.44 L 145.78 228.42 C 145.77 229.33 146.52 230.08 147.44 230.08 C 148.35 230.09 149.10 229.34 149.10 228.42 L 149.11 227.44 C 149.11 226.53 148.36 225.78 147.45 225.78 C 146.53 225.77 145.78 226.52 145.78 227.44 Z M 145.78 228.43 L 145.78 229.42 C 145.78 230.34 146.53 231.08 147.45 231.07 C 148.37 231.07 149.11 230.32 149.11 229.40 L 149.10 228.41 C 149.10 227.49 148.35 226.75 147.43 226.76 C 146.51 226.76 145.77 227.51 145.78 228.43 Z M 145.78 229.45 L 145.80 230.46 C 145.82 231.38 146.58 232.11 147.50 232.09 C 148.42 232.07 149.15 231.31 149.13 230.39 L 149.10 229.38 C 149.08 228.46 148.33 227.73 147.41 227.75 C 146.49 227.77 145.76 228.53 145.78 229.45 Z M 145.83 230.68 L 145.98 231.67 C 146.12 232.58 146.97 233.20 147.87 233.06 C 148.78 232.92 149.40 232.07 149.26 231.16 L 149.10 230.17 C 148.96 229.27 148.12 228.65 147.21 228.79 C 146.31 228.93 145.69 229.78 145.83 230.68 Z M 146.24 232.34 L 146.80 233.17 C 147.30 233.93 148.33 234.13 149.09 233.63 C 149.85 233.12 150.06 232.09 149.55 231.33 L 149.00 230.50 C 148.49 229.74 147.46 229.53 146.70 230.04 C 145.94 230.55 145.73 231.58 146.24 232.34 Z M 147.52 233.77 L 148.41 234.15 C 149.25 234.51 150.22 234.12 150.58 233.28 C 150.94 232.44 150.56 231.47 149.72 231.11 L 148.82 230.73 C 147.99 230.37 147.01 230.76 146.65 231.60 C 146.29 232.44 146.68 233.41 147.52 233.77 Z M 149.76 234.13 L 150.57 233.75 C 151.39 233.37 151.75 232.39 151.37 231.57 C 150.99 230.74 150.01 230.38 149.18 230.76 L 148.37 231.13 C 147.55 231.52 147.19 232.50 147.57 233.32 C 147.95 234.15 148.93 234.51 149.76 234.13 Z M 151.26 233.14 L 151.82 232.27 C 152.30 231.50 152.08 230.49 151.31 230.00 C 150.55 229.51 149.53 229.74 149.04 230.50 L 148.49 231.37 C 148.00 232.14 148.23 233.16 148.99 233.64 C 149.76 234.13 150.77 233.91 151.26 233.14 Z M 151.95 232.01 L 152.33 231.09 C 152.67 230.25 152.27 229.29 151.43 228.95 C 150.59 228.60 149.63 229.00 149.29 229.84 L 148.91 230.76 C 148.57 231.60 148.97 232.56 149.81 232.90 C 150.65 233.25 151.60 232.85 151.95 232.01 Z M 152.38 230.92 L 152.66 229.96 C 152.92 229.09 152.42 228.18 151.55 227.93 C 150.68 227.67 149.77 228.17 149.52 229.04 L 149.24 230.01 C 148.98 230.87 149.48 231.78 150.35 232.04 C 151.22 232.29 152.13 231.79 152.38 230.92 Z M 152.69 229.86 L 152.91 228.88 C 153.10 227.99 152.55 227.12 151.66 226.92 C 150.78 226.73 149.91 227.28 149.71 228.16 L 149.49 229.14 C 149.29 230.03 149.85 230.90 150.73 231.10 C 151.62 231.30 152.49 230.74 152.69 229.86 Z M 152.92 228.82 L 153.10 227.84 C 153.27 226.95 152.68 226.10 151.80 225.93 C 150.91 225.76 150.05 226.35 149.88 227.23 L 149.70 228.22 C 149.53 229.11 150.12 229.96 151.00 230.13 C 151.89 230.30 152.75 229.71 152.92 228.82 Z M 153.11 227.78 L 153.26 226.79 C 153.40 225.90 152.78 225.07 151.89 224.93 C 151.00 224.80 150.16 225.41 150.03 226.30 L 149.88 227.29 C 149.74 228.19 150.35 229.02 151.25 229.16 C 152.14 229.29 152.97 228.68 153.11 227.78 Z M 153.27 226.72 L 153.37 225.73 C 153.47 224.83 152.82 224.03 151.92 223.94 C 151.02 223.84 150.21 224.49 150.12 225.39 L 150.02 226.38 C 149.92 227.28 150.57 228.08 151.47 228.18 C 152.37 228.27 153.18 227.62 153.27 226.72 Z M 153.38 225.68 L 153.45 224.67 C 153.51 223.76 152.83 222.98 151.93 222.92 C 151.03 222.86 150.24 223.54 150.18 224.44 L 150.11 225.45 C 150.05 226.35 150.73 227.14 151.63 227.20 C 152.54 227.26 153.32 226.58 153.38 225.68 Z M 153.46 224.60 L 153.49 223.59 C 153.52 222.68 152.80 221.93 151.90 221.90 C 150.99 221.87 150.24 222.58 150.21 223.49 L 150.18 224.50 C 150.15 225.41 150.86 226.17 151.76 226.19 C 152.67 226.22 153.43 225.51 153.46 224.60 Z M 153.49 223.43 L 153.42 222.39 C 153.36 221.48 152.57 220.79 151.66 220.86 C 150.76 220.92 150.07 221.70 150.13 222.61 L 150.20 223.65 C 150.27 224.56 151.05 225.24 151.96 225.18 C 152.87 225.12 153.55 224.33 153.49 223.43 Z M 153.30 221.85 L 152.93 220.98 C 152.57 220.14 151.59 219.75 150.75 220.11 C 149.91 220.47 149.52 221.45 149.88 222.29 L 150.25 223.15 C 150.61 224.00 151.59 224.38 152.43 224.02 C 153.27 223.66 153.66 222.69 153.30 221.85 Z M 151.24 219.98 L 150.42 220.06 C 149.51 220.15 148.84 220.97 148.93 221.89 C 149.03 222.80 149.84 223.47 150.76 223.38 L 151.57 223.29 C 152.49 223.20 153.16 222.38 153.06 221.47 C 152.97 220.55 152.15 219.88 151.24 219.98 Z M 149.29 220.68 L 148.64 221.49 C 148.07 222.21 148.18 223.26 148.90 223.83 C 149.62 224.41 150.67 224.29 151.25 223.57 L 151.90 222.76 C 152.47 222.04 152.35 220.99 151.63 220.41 C 150.91 219.84 149.86 219.96 149.29 220.68 Z M 148.37 221.97 L 148.03 222.93 C 147.72 223.80 148.17 224.76 149.04 225.06 C 149.91 225.37 150.86 224.92 151.17 224.05 L 151.52 223.09 C 151.83 222.22 151.37 221.27 150.51 220.96 C 149.64 220.65 148.68 221.10 148.37 221.97 Z M 147.98 223.10 L 147.73 224.12 C 147.52 225.02 148.07 225.92 148.97 226.13 C 149.87 226.35 150.77 225.79 150.98 224.90 L 151.23 223.88 C 151.44 222.98 150.89 222.08 149.99 221.87 C 149.09 221.65 148.19 222.21 147.98 223.10 Z M 147.71 224.24 L 147.55 225.21 C 147.41 226.12 148.02 226.98 148.93 227.12 C 149.84 227.27 150.70 226.65 150.85 225.74 L 151.01 224.78 C 151.16 223.87 150.54 223.01 149.63 222.86 C 148.72 222.71 147.86 223.33 147.71 224.24 Z M 147.54 225.36 L 147.47 226.36 C 147.41 227.28 148.10 228.08 149.02 228.14 C 149.94 228.20 150.74 227.50 150.80 226.58 L 150.87 225.59 C 150.93 224.67 150.23 223.87 149.31 223.81 C 148.39 223.75 147.60 224.44 147.54 225.36 Z M 147.47 226.46 L 147.46 227.44 C 147.45 228.36 148.19 229.12 149.11 229.13 C 150.03 229.13 150.79 228.39 150.80 227.47 L 150.81 226.48 C 150.81 225.56 150.07 224.81 149.15 224.80 C 148.23 224.79 147.47 225.53 147.47 226.46 Z M 147.46 227.46 L 147.46 228.43 C 147.46 229.36 148.21 230.10 149.14 230.10 C 150.06 230.09 150.80 229.34 150.80 228.42 L 150.80 227.45 C 150.79 226.53 150.04 225.78 149.12 225.79 C 148.20 225.79 147.45 226.54 147.46 227.46 Z M 147.46 228.46 L 147.48 229.50 C 147.50 230.42 148.27 231.15 149.19 231.13 C 150.11 231.11 150.84 230.35 150.82 229.43 L 150.80 228.39 C 150.78 227.47 150.02 226.74 149.09 226.76 C 148.17 226.78 147.44 227.54 147.46 228.46 Z M 147.50 229.70 L 147.64 230.70 C 147.77 231.62 148.61 232.25 149.52 232.13 C 150.43 232.00 151.07 231.16 150.95 230.24 L 150.81 229.24 C 150.68 228.32 149.84 227.69 148.92 227.81 C 148.01 227.94 147.37 228.78 147.50 229.70 Z M 147.90 231.39 L 148.45 232.23 C 148.96 232.99 149.99 233.21 150.76 232.70 C 151.53 232.20 151.74 231.17 151.24 230.40 L 150.68 229.56 C 150.18 228.79 149.15 228.58 148.38 229.08 C 147.61 229.59 147.40 230.62 147.90 231.39 Z M 149.51 232.93 L 150.37 233.12 C 151.27 233.30 152.15 232.73 152.34 231.83 C 152.52 230.94 151.95 230.06 151.05 229.87 L 150.18 229.69 C 149.29 229.50 148.41 230.08 148.22 230.97 C 148.03 231.87 148.61 232.75 149.51 232.93 Z M 151.90 232.64 L 152.55 231.97 C 153.18 231.31 153.16 230.26 152.50 229.63 C 151.84 229.00 150.80 229.02 150.17 229.68 L 149.52 230.35 C 148.89 231.01 148.91 232.05 149.57 232.68 C 150.23 233.32 151.27 233.30 151.90 232.64 Z M 152.90 231.41 L 153.27 230.43 C 153.60 229.58 153.17 228.62 152.32 228.30 C 151.47 227.97 150.52 228.40 150.19 229.25 L 149.82 230.23 C 149.49 231.08 149.92 232.04 150.77 232.36 C 151.62 232.69 152.57 232.26 152.90 231.41 Z M 153.34 230.21 L 153.57 229.23 C 153.78 228.34 153.23 227.46 152.34 227.25 C 151.45 227.04 150.57 227.59 150.36 228.48 L 150.13 229.46 C 149.92 230.35 150.47 231.24 151.36 231.44 C 152.24 231.65 153.13 231.10 153.34 230.21 Z M 153.59 229.10 L 153.74 228.08 C 153.88 227.18 153.26 226.35 152.36 226.21 C 151.46 226.08 150.62 226.69 150.49 227.59 L 150.34 228.61 C 150.20 229.51 150.82 230.35 151.72 230.48 C 152.62 230.62 153.46 230.00 153.59 229.10 Z M 153.76 227.96 L 153.83 227.00 C 153.89 226.09 153.21 225.30 152.31 225.24 C 151.40 225.17 150.61 225.85 150.55 226.76 L 150.47 227.72 C 150.41 228.62 151.09 229.41 152.00 229.48 C 152.90 229.55 153.69 228.87 153.76 227.96 Z M 153.83 226.91 L 153.85 225.93 C 153.87 225.02 153.14 224.27 152.24 224.25 C 151.33 224.23 150.57 224.96 150.56 225.87 L 150.54 226.85 C 150.52 227.76 151.25 228.51 152.16 228.53 C 153.07 228.54 153.82 227.82 153.83 226.91 Z M 153.86 225.89 L 153.85 224.87 C 153.85 223.96 153.11 223.23 152.20 223.23 C 151.28 223.23 150.55 223.97 150.55 224.89 L 150.55 225.90 C 150.56 226.81 151.30 227.55 152.21 227.55 C 153.12 227.55 153.86 226.80 153.86 225.89 Z M 153.85 224.72 L 153.75 223.72 C 153.67 222.81 152.86 222.14 151.95 222.23 C 151.03 222.32 150.37 223.13 150.46 224.04 L 150.55 225.04 C 150.64 225.95 151.45 226.62 152.36 226.53 C 153.27 226.44 153.94 225.63 153.85 224.72 Z M 153.65 223.26 L 153.26 222.29 C 152.92 221.44 151.95 221.03 151.10 221.37 C 150.25 221.71 149.83 222.68 150.17 223.53 L 150.56 224.50 C 150.90 225.35 151.87 225.76 152.72 225.42 C 153.58 225.08 153.99 224.11 153.65 223.26 Z M 152.77 221.62 L 152.05 221.03 C 151.34 220.45 150.28 220.55 149.70 221.27 C 149.12 221.99 149.23 223.04 149.94 223.62 L 150.66 224.21 C 151.38 224.79 152.43 224.68 153.01 223.97 C 153.60 223.25 153.49 222.20 152.77 221.62 Z M 150.76 220.67 L 149.80 220.80 C 148.89 220.93 148.25 221.78 148.38 222.70 C 148.51 223.62 149.36 224.25 150.28 224.12 L 151.23 223.99 C 152.15 223.85 152.79 223.01 152.66 222.09 C 152.53 221.17 151.68 220.53 150.76 220.67 Z M 148.71 221.44 L 148.14 222.19 C 147.58 222.93 147.72 223.98 148.46 224.54 C 149.19 225.10 150.25 224.96 150.81 224.22 L 151.38 223.48 C 151.94 222.74 151.80 221.69 151.06 221.13 C 150.32 220.56 149.27 220.71 148.71 221.44 Z M 147.85 222.77 L 147.58 223.78 C 147.35 224.68 147.88 225.60 148.77 225.83 C 149.67 226.07 150.59 225.54 150.83 224.64 L 151.10 223.64 C 151.34 222.74 150.80 221.82 149.91 221.58 C 149.01 221.35 148.09 221.88 147.85 222.77 Z M 147.54 223.97 L 147.40 224.95 C 147.27 225.87 147.91 226.72 148.82 226.86 C 149.74 226.99 150.59 226.35 150.73 225.44 L 150.87 224.45 C 151.00 223.53 150.37 222.68 149.45 222.55 C 148.53 222.42 147.68 223.05 147.54 223.97 Z M 147.39 225.09 L 147.32 226.22 C 147.27 227.15 147.97 227.94 148.90 228.00 C 149.82 228.05 150.62 227.35 150.67 226.42 L 150.74 225.29 C 150.79 224.37 150.09 223.58 149.16 223.52 C 148.24 223.46 147.44 224.17 147.39 225.09 Z M 147.38 226.74 L 147.58 227.52 C 147.81 228.42 148.72 228.95 149.62 228.72 C 150.51 228.49 151.05 227.58 150.82 226.69 L 150.62 225.90 C 150.39 225.01 149.47 224.47 148.58 224.70 C 147.69 224.93 147.15 225.84 147.38 226.74 Z M 150.27 228.37 L 150.94 227.81 C 151.64 227.22 151.73 226.17 151.13 225.47 C 150.54 224.77 149.50 224.68 148.80 225.27 L 148.13 225.84 C 147.43 226.43 147.34 227.48 147.93 228.18 C 148.52 228.88 149.57 228.96 150.27 228.37 Z M 151.43 227.08 L 151.84 225.88 C 152.14 225.02 151.69 224.08 150.83 223.78 C 149.97 223.48 149.03 223.94 148.73 224.80 L 148.31 226.00 C 148.01 226.86 148.46 227.80 149.33 228.10 C 150.19 228.40 151.13 227.94 151.43 227.08 Z M 149.11 226.49 L 149.17 226.56 C 149.81 227.21 150.85 227.22 151.50 226.58 C 152.15 225.94 152.16 224.90 151.53 224.25 L 151.46 224.18 C 150.82 223.54 149.78 223.53 149.13 224.16 C 148.48 224.80 148.47 225.84 149.11 226.49 Z M 148.71 225.41 L 148.71 226.67 C 148.72 227.57 149.45 228.31 150.36 228.30 C 151.27 228.30 152.00 227.56 152.00 226.65 L 151.99 225.40 C 151.99 224.49 151.25 223.76 150.34 223.76 C 149.44 223.76 148.70 224.50 148.71 225.41 Z M 148.72 226.66 L 148.72 227.62 C 148.72 228.52 149.45 229.26 150.36 229.26 C 151.26 229.26 151.99 228.52 151.99 227.62 L 151.99 226.66 C 151.99 225.76 151.26 225.02 150.36 225.02 C 149.45 225.02 148.72 225.76 148.72 226.66 Z M 148.72 227.62 L 148.72 228.66 C 148.72 229.56 149.45 230.29 150.36 230.29 C 151.26 230.29 151.99 229.56 151.99 228.66 L 151.99 227.62 C 151.99 226.72 151.26 225.99 150.36 225.99 C 149.45 225.99 148.72 226.72 148.72 227.62 Z M 148.73 228.66 L 148.73 229.09 C 148.73 229.99 149.46 230.72 150.36 230.72 C 151.25 230.72 151.98 229.99 151.98 229.09 L 151.98 228.66 C 151.98 227.76 151.25 227.03 150.36 227.03 C 149.46 227.03 148.73 227.76 148.73 228.66 Z"
      fill="black"
      fill-rule="nonzero" /></svg>