<svg xmlns="http://www.w3.org/2000/svg" width="300" height="300" viewBox="0 0 300 300">
<path d="M 62.33 71.80 L 62.83 71.02 C 63.26 70.35 63.07 69.46 62.40 69.03 C 61.73 68.60 60.84 68.79 60.41 69.46 L 59.91 70.25 C 59.48 70.91 59.67 71.81 60.34 72.23 C 61.01 72.66 61.90 72.47 62.33 71.80 Z M 62.99 70.73 L 63.36 69.69 C 63.63 68.94 63.24 68.11 62.49 67.84 C 61.73 67.57 60.90 67.96 60.63 68.71 L 60.26 69.75 C 59.99 70.50 60.38 71.33 61.13 71.61 C 61.88 71.88 62.72 71.49 62.99 70.73 Z M 63.45 69.44 L 63.64 68.29 C 63.77 67.49 63.23 66.73 62.42 66.60 C 61.62 66.47 60.86 67.01 60.73 67.81 L 60.54 68.96 C 60.41 69.77 60.95 70.52 61.76 70.66 C 62.56 70.79 63.32 70.24 63.45 69.44 Z M 63.65 68.39 L 63.75 67.93 C 63.94 67.12 63.44 66.31 62.63 66.13 C 61.82 65.94 61.02 66.44 60.83 67.25 L 60.72 67.71 C 60.53 68.52 61.04 69.33 61.84 69.52 C 62.65 69.70 63.46 69.20 63.65 68.39 Z M 60.78 67.73 L 60.89 68.85 C 60.97 69.69 61.71 70.30 62.55 70.22 C 63.38 70.14 64.00 69.40 63.91 68.56 L 63.81 67.44 C 63.73 66.61 62.98 65.99 62.15 66.07 C 61.31 66.15 60.70 66.90 60.78 67.73 Z M 60.88 68.86 L 60.97 69.85 C 61.06 70.69 61.81 71.31 62.65 71.23 C 63.49 71.14 64.11 70.39 64.02 69.55 L 63.92 68.55 C 63.84 67.71 63.09 67.10 62.25 67.18 C 61.41 67.27 60.79 68.02 60.88 68.86 Z M 60.97 69.86 L 61.07 70.86 C 61.16 71.71 61.92 72.32 62.76 72.23 C 63.60 72.15 64.22 71.39 64.13 70.55 L 64.03 69.54 C 63.94 68.70 63.19 68.08 62.34 68.17 C 61.50 68.26 60.88 69.01 60.97 69.86 Z M 61.07 70.85 L 61.16 71.83 C 61.24 72.68 61.99 73.31 62.84 73.23 C 63.69 73.15 64.31 72.40 64.23 71.55 L 64.14 70.56 C 64.06 69.71 63.31 69.09 62.46 69.17 C 61.61 69.25 60.99 70.00 61.07 70.85 Z M 61.15 71.82 L 61.23 72.79 C 61.30 73.64 62.05 74.28 62.90 74.21 C 63.75 74.14 64.39 73.39 64.32 72.54 L 64.24 71.56 C 64.17 70.71 63.42 70.08 62.57 70.15 C 61.72 70.22 61.08 70.97 61.15 71.82 Z M 61.23 72.78 L 61.30 73.76 C 61.36 74.61 62.10 75.25 62.96 75.19 C 63.81 75.13 64.45 74.39 64.39 73.53 L 64.32 72.55 C 64.26 71.70 63.52 71.06 62.66 71.12 C 61.81 71.18 61.17 71.92 61.23 72.78 Z M 61.29 73.74 L 61.36 74.79 C 61.42 75.65 62.16 76.30 63.01 76.24 C 63.87 76.19 64.52 75.45 64.46 74.59 L 64.40 73.54 C 64.34 72.69 63.60 72.04 62.74 72.09 C 61.89 72.15 61.24 72.89 61.29 73.74 Z M 61.36 74.79 L 61.42 75.82 C 61.48 76.68 62.22 77.33 63.08 77.27 C 63.93 77.22 64.59 76.48 64.53 75.62 L 64.47 74.59 C 64.41 73.73 63.67 73.08 62.81 73.14 C 61.96 73.19 61.30 73.93 61.36 74.79 Z M 61.42 75.84 L 61.49 76.81 C 61.56 77.67 62.31 78.32 63.17 78.25 C 64.03 78.19 64.67 77.44 64.61 76.58 L 64.53 75.60 C 64.47 74.74 63.72 74.10 62.86 74.16 C 62.00 74.23 61.36 74.98 61.42 75.84 Z M 61.49 76.86 L 61.61 77.91 C 61.70 78.77 62.47 79.39 63.33 79.30 C 64.19 79.21 64.81 78.44 64.72 77.58 L 64.61 76.53 C 64.51 75.67 63.74 75.05 62.88 75.14 C 62.02 75.23 61.40 76.00 61.49 76.86 Z M 61.61 77.94 L 61.72 78.87 C 61.83 79.73 62.62 80.34 63.48 80.23 C 64.33 80.12 64.94 79.34 64.83 78.48 L 64.72 77.55 C 64.61 76.69 63.83 76.08 62.97 76.19 C 62.11 76.30 61.50 77.08 61.61 77.94 Z M 61.72 78.84 L 61.83 79.83 C 61.92 80.69 62.69 81.32 63.55 81.23 C 64.41 81.13 65.04 80.36 64.95 79.50 L 64.84 78.51 C 64.75 77.64 63.97 77.02 63.11 77.11 C 62.25 77.20 61.63 77.98 61.72 78.84 Z M 61.82 79.82 L 61.92 80.81 C 62.00 81.68 62.77 82.31 63.64 82.22 C 64.50 82.14 65.13 81.37 65.05 80.50 L 64.95 79.51 C 64.86 78.65 64.10 78.02 63.23 78.10 C 62.37 78.19 61.74 78.96 61.82 79.82 Z M 61.92 80.81 L 62.02 81.81 C 62.10 82.68 62.87 83.31 63.74 83.22 C 64.60 83.14 65.23 82.37 65.15 81.50 L 65.05 80.50 C 64.97 79.64 64.19 79.01 63.33 79.09 C 62.46 79.18 61.83 79.95 61.92 80.81 Z M 62.01 81.81 L 62.11 82.80 C 62.19 83.66 62.96 84.30 63.83 84.21 C 64.70 84.13 65.33 83.36 65.25 82.49 L 65.15 81.50 C 65.07 80.64 64.30 80.00 63.43 80.09 C 62.56 80.17 61.93 80.94 62.01 81.81 Z M 62.11 82.82 L 62.22 83.82 C 62.32 84.69 63.10 85.31 63.96 85.21 C 64.83 85.12 65.45 84.34 65.36 83.47 L 65.25 82.47 C 65.15 81.61 64.37 80.98 63.50 81.08 C 62.64 81.17 62.01 81.95 62.11 82.82 Z M 62.22 83.85 L 62.35 84.84 C 62.46 85.71 63.25 86.32 64.12 86.21 C 64.98 86.10 65.59 85.31 65.48 84.44 L 65.36 83.45 C 65.25 82.58 64.46 81.97 63.59 82.08 C 62.73 82.19 62.11 82.98 62.22 83.85 Z M 62.35 84.82 L 62.46 85.81 C 62.56 86.68 63.35 87.30 64.21 87.20 C 65.08 87.10 65.70 86.31 65.60 85.45 L 65.49 84.46 C 65.39 83.59 64.60 82.97 63.73 83.07 C 62.87 83.17 62.25 83.96 62.35 84.82 Z M 62.46 85.80 L 62.57 86.80 C 62.66 87.66 63.44 88.29 64.31 88.20 C 65.18 88.10 65.81 87.32 65.71 86.45 L 65.60 85.46 C 65.51 84.59 64.73 83.96 63.86 84.06 C 62.99 84.15 62.36 84.93 62.46 85.80 Z M 62.57 86.83 L 62.69 87.75 C 62.80 88.62 63.59 89.23 64.46 89.12 C 65.33 89.01 65.94 88.22 65.83 87.35 L 65.71 86.42 C 65.60 85.56 64.81 84.94 63.94 85.05 C 63.07 85.17 62.46 85.96 62.57 86.83 Z M 62.69 87.79 L 62.85 88.83 C 62.99 89.70 63.79 90.29 64.66 90.16 C 65.52 90.03 66.12 89.22 65.98 88.35 L 65.82 87.31 C 65.69 86.45 64.88 85.86 64.02 85.99 C 63.16 86.12 62.56 86.93 62.69 87.79 Z M 62.86 88.86 L 63.02 89.83 C 63.17 90.69 63.99 91.27 64.86 91.12 C 65.72 90.97 66.29 90.15 66.15 89.29 L 65.98 88.32 C 65.83 87.46 65.01 86.88 64.15 87.03 C 63.29 87.18 62.71 88.00 62.86 88.86 Z M 63.03 89.85 L 63.22 90.86 C 63.39 91.72 64.22 92.29 65.08 92.12 C 65.94 91.96 66.50 91.13 66.33 90.27 L 66.14 89.26 C 65.98 88.40 65.15 87.84 64.29 88.00 C 63.43 88.16 62.86 88.99 63.03 89.85 Z M 63.23 90.90 L 63.44 91.90 C 63.62 92.76 64.46 93.30 65.32 93.12 C 66.18 92.94 66.72 92.10 66.54 91.24 L 66.33 90.24 C 66.15 89.38 65.30 88.83 64.45 89.02 C 63.59 89.20 63.04 90.04 63.23 90.90 Z M 63.45 91.93 L 63.68 92.90 C 63.88 93.76 64.73 94.28 65.59 94.08 C 66.44 93.88 66.97 93.03 66.76 92.17 L 66.54 91.20 C 66.33 90.35 65.48 89.82 64.63 90.03 C 63.77 90.23 63.25 91.08 63.45 91.93 Z M 63.68 92.94 L 63.93 93.91 C 64.15 94.75 65.02 95.26 65.87 95.04 C 66.72 94.82 67.23 93.96 67.01 93.11 L 66.76 92.14 C 66.54 91.29 65.67 90.78 64.82 91.00 C 63.97 91.22 63.46 92.09 63.68 92.94 Z M 63.94 93.93 L 64.21 94.91 C 64.44 95.75 65.32 96.25 66.16 96.02 C 67.01 95.78 67.51 94.91 67.27 94.06 L 67.00 93.08 C 66.77 92.24 65.90 91.74 65.05 91.97 C 64.20 92.21 63.71 93.08 63.94 93.93 Z M 64.21 94.91 L 64.47 95.85 C 64.71 96.70 65.58 97.19 66.43 96.96 C 67.27 96.72 67.77 95.85 67.53 95.00 L 67.27 94.06 C 67.04 93.21 66.16 92.72 65.32 92.95 C 64.47 93.19 63.98 94.06 64.21 94.91 Z M 64.47 95.84 L 64.72 96.80 C 64.95 97.65 65.82 98.15 66.67 97.93 C 67.52 97.70 68.02 96.83 67.80 95.99 L 67.54 95.02 C 67.31 94.17 66.44 93.67 65.60 93.89 C 64.75 94.12 64.24 94.99 64.47 95.84 Z M 64.72 96.78 L 64.95 97.73 C 65.17 98.58 66.03 99.10 66.88 98.88 C 67.74 98.67 68.25 97.81 68.04 96.96 L 67.80 96.01 C 67.59 95.15 66.72 94.64 65.87 94.85 C 65.02 95.06 64.50 95.93 64.72 96.78 Z M 64.95 97.71 L 65.18 98.66 C 65.38 99.52 66.23 100.05 67.09 99.85 C 67.94 99.64 68.47 98.79 68.27 97.93 L 68.04 96.98 C 67.84 96.12 66.99 95.59 66.13 95.79 C 65.28 96.00 64.75 96.85 64.95 97.71 Z M 65.17 98.64 L 65.39 99.64 C 65.58 100.50 66.43 101.04 67.29 100.85 C 68.15 100.66 68.69 99.81 68.50 98.96 L 68.28 97.95 C 68.09 97.10 67.24 96.56 66.38 96.74 C 65.52 96.93 64.98 97.78 65.17 98.64 Z M 65.39 99.62 L 65.58 100.59 C 65.76 101.45 66.60 102.01 67.46 101.83 C 68.32 101.66 68.88 100.82 68.70 99.96 L 68.50 98.98 C 68.33 98.12 67.49 97.57 66.63 97.74 C 65.77 97.92 65.21 98.76 65.39 99.62 Z M 65.58 100.56 L 65.76 101.56 C 65.92 102.42 66.75 102.99 67.61 102.83 C 68.48 102.67 69.05 101.85 68.89 100.98 L 68.71 99.99 C 68.55 99.12 67.72 98.55 66.86 98.71 C 65.99 98.87 65.42 99.70 65.58 100.56 Z M 65.75 101.52 L 65.91 102.51 C 66.05 103.37 66.87 103.96 67.74 103.83 C 68.60 103.69 69.19 102.87 69.06 102.00 L 68.90 101.02 C 68.76 100.15 67.94 99.56 67.07 99.70 C 66.21 99.84 65.61 100.65 65.75 101.52 Z M 65.91 102.48 L 66.05 103.47 C 66.17 104.34 66.98 104.94 67.85 104.82 C 68.72 104.70 69.32 103.89 69.20 103.02 L 69.06 102.03 C 68.94 101.16 68.13 100.55 67.26 100.68 C 66.39 100.80 65.78 101.61 65.91 102.48 Z M 66.04 103.45 L 66.17 104.43 C 66.29 105.31 67.09 105.92 67.96 105.81 C 68.83 105.69 69.44 104.89 69.33 104.02 L 69.20 103.04 C 69.09 102.16 68.29 101.55 67.42 101.66 C 66.54 101.78 65.93 102.58 66.04 103.45 Z M 66.17 104.42 L 66.29 105.41 C 66.40 106.29 67.19 106.91 68.07 106.80 C 68.94 106.69 69.56 105.90 69.45 105.03 L 69.33 104.03 C 69.23 103.16 68.43 102.54 67.56 102.65 C 66.68 102.75 66.06 103.55 66.17 104.42 Z M 66.29 105.40 L 66.40 106.41 C 66.50 107.28 67.29 107.91 68.17 107.81 C 69.04 107.71 69.67 106.93 69.57 106.05 L 69.46 105.04 C 69.36 104.17 68.57 103.54 67.69 103.64 C 66.82 103.73 66.19 104.52 66.29 105.40 Z M 66.40 106.39 L 66.50 107.41 C 66.59 108.28 67.38 108.92 68.25 108.83 C 69.13 108.74 69.77 107.96 69.68 107.08 L 69.57 106.07 C 69.48 105.19 68.70 104.55 67.83 104.64 C 66.95 104.73 66.31 105.52 66.40 106.39 Z M 66.50 107.39 L 66.59 108.37 C 66.67 109.25 67.45 109.90 68.33 109.82 C 69.21 109.73 69.85 108.96 69.77 108.08 L 69.68 107.10 C 69.60 106.22 68.82 105.57 67.94 105.65 C 67.06 105.73 66.42 106.51 66.50 107.39 Z M 66.59 108.36 L 66.67 109.38 C 66.74 110.26 67.52 110.91 68.40 110.84 C 69.28 110.77 69.93 109.99 69.86 109.11 L 69.78 108.09 C 69.70 107.21 68.93 106.56 68.05 106.63 C 67.17 106.70 66.51 107.48 66.59 108.36 Z M 66.67 109.37 L 66.75 110.34 C 66.81 111.23 67.59 111.89 68.47 111.82 C 69.35 111.75 70.01 110.98 69.94 110.10 L 69.86 109.12 C 69.79 108.24 69.02 107.58 68.14 107.65 C 67.26 107.72 66.60 108.49 66.67 109.37 Z M 66.75 110.35 L 66.82 111.27 C 66.89 112.16 67.66 112.81 68.54 112.74 C 69.42 112.67 70.08 111.90 70.01 111.02 L 69.94 110.09 C 69.87 109.21 69.10 108.55 68.22 108.62 C 67.33 108.69 66.68 109.46 66.75 110.35 Z M 66.82 111.26 L 66.88 112.26 C 66.94 113.14 67.71 113.81 68.59 113.75 C 69.47 113.69 70.14 112.93 70.08 112.04 L 70.01 111.04 C 69.95 110.16 69.19 109.49 68.31 109.55 C 67.42 109.61 66.76 110.37 66.82 111.26 Z M 66.88 112.22 L 66.93 113.23 C 66.97 114.11 67.72 114.79 68.60 114.75 C 69.49 114.71 70.17 113.96 70.13 113.08 L 70.08 112.08 C 70.04 111.19 69.29 110.51 68.41 110.55 C 67.53 110.59 66.84 111.34 66.88 112.22 Z M 66.93 113.21 L 66.96 114.21 C 67.00 115.09 67.74 115.79 68.62 115.75 C 69.51 115.72 70.20 114.98 70.17 114.09 L 70.13 113.09 C 70.10 112.21 69.36 111.52 68.47 111.55 C 67.59 111.58 66.90 112.33 66.93 113.21 Z M 66.96 114.22 L 67.01 115.26 C 67.04 116.14 67.79 116.83 68.67 116.79 C 69.56 116.76 70.25 116.01 70.21 115.13 L 70.17 114.09 C 70.13 113.20 69.38 112.51 68.50 112.55 C 67.62 112.59 66.93 113.33 66.96 114.22 Z M 67.01 115.28 L 67.07 116.35 C 67.12 117.24 67.88 117.91 68.76 117.86 C 69.64 117.81 70.32 117.05 70.27 116.17 L 70.21 115.10 C 70.16 114.22 69.40 113.54 68.52 113.59 C 67.63 113.64 66.96 114.40 67.01 115.28 Z M 67.07 116.37 L 67.14 117.38 C 67.20 118.27 67.96 118.94 68.85 118.88 C 69.73 118.82 70.40 118.05 70.34 117.17 L 70.27 116.15 C 70.21 115.27 69.44 114.60 68.56 114.66 C 67.68 114.72 67.01 115.48 67.07 116.37 Z M 67.13 117.37 L 67.19 118.30 C 67.25 119.18 68.01 119.86 68.89 119.80 C 69.78 119.75 70.45 118.99 70.40 118.10 L 70.34 117.18 C 70.29 116.29 69.53 115.62 68.64 115.67 C 67.75 115.73 67.08 116.49 67.13 117.37 Z M 67.19 118.25 L 67.22 119.31 C 67.25 120.19 67.99 120.89 68.88 120.86 C 69.76 120.83 70.46 120.09 70.43 119.21 L 70.40 118.15 C 70.37 117.26 69.63 116.57 68.74 116.59 C 67.86 116.62 67.16 117.36 67.19 118.25 Z M 67.22 119.26 L 67.22 120.20 C 67.23 121.09 67.95 121.81 68.84 121.80 C 69.73 121.80 70.44 121.07 70.44 120.19 L 70.43 119.25 C 70.43 118.36 69.71 117.64 68.82 117.65 C 67.93 117.65 67.22 118.38 67.22 119.26 Z M 67.22 120.19 L 67.22 121.19 C 67.22 122.08 67.94 122.80 68.83 122.80 C 69.72 122.80 70.44 122.08 70.44 121.19 L 70.44 120.19 C 70.44 119.31 69.72 118.59 68.83 118.59 C 67.94 118.59 67.22 119.31 67.22 120.19 Z M 67.22 121.19 L 67.22 122.20 C 67.22 123.08 67.94 123.80 68.83 123.80 C 69.72 123.80 70.44 123.08 70.44 122.20 L 70.44 121.19 C 70.44 120.30 69.72 119.58 68.83 119.58 C 67.94 119.58 67.22 120.30 67.22 121.19 Z M 67.22 122.20 L 67.22 123.21 C 67.22 124.10 67.94 124.82 68.83 124.82 C 69.72 124.82 70.44 124.10 70.44 123.21 L 70.44 122.20 C 70.44 121.31 69.72 120.59 68.83 120.59 C 67.94 120.59 67.22 121.31 67.22 122.20 Z M 67.22 123.22 L 67.23 124.26 C 67.23 125.15 67.95 125.86 68.84 125.86 C 69.73 125.85 70.45 125.13 70.45 124.24 L 70.44 123.20 C 70.44 122.31 69.71 121.60 68.82 121.60 C 67.93 121.60 67.22 122.33 67.22 123.22 Z M 67.26 124.62 L 67.47 125.53 C 67.68 126.40 68.55 126.94 69.42 126.74 C 70.29 126.53 70.83 125.66 70.63 124.79 L 70.41 123.88 C 70.21 123.01 69.34 122.47 68.47 122.67 C 67.60 122.88 67.06 123.75 67.26 124.62 Z M 68.25 126.59 L 69.01 127.02 C 69.80 127.46 70.79 127.18 71.24 126.39 C 71.68 125.61 71.40 124.61 70.61 124.17 L 69.85 123.74 C 69.07 123.30 68.07 123.57 67.63 124.36 C 67.18 125.15 67.46 126.14 68.25 126.59 Z M 69.82 127.24 L 70.86 127.23 C 71.77 127.23 72.51 126.48 72.50 125.57 C 72.49 124.66 71.75 123.93 70.84 123.93 L 69.80 123.94 C 68.89 123.95 68.16 124.69 68.16 125.60 C 68.17 126.51 68.91 127.25 69.82 127.24 Z M 71.20 127.21 L 72.17 127.00 C 73.07 126.80 73.64 125.92 73.44 125.02 C 73.25 124.12 72.36 123.55 71.46 123.75 L 70.50 123.96 C 69.60 124.15 69.03 125.04 69.22 125.94 C 69.42 126.84 70.31 127.41 71.20 127.21 Z M 72.31 126.98 L 73.31 126.67 C 74.19 126.40 74.69 125.46 74.42 124.58 C 74.15 123.69 73.21 123.19 72.33 123.47 L 71.32 123.77 C 70.44 124.04 69.94 124.98 70.21 125.86 C 70.48 126.75 71.42 127.25 72.31 126.98 Z M 73.36 126.67 L 74.30 126.35 C 75.18 126.05 75.66 125.10 75.36 124.21 C 75.06 123.33 74.11 122.86 73.22 123.15 L 72.28 123.47 C 71.40 123.76 70.92 124.72 71.22 125.60 C 71.52 126.49 72.47 126.96 73.36 126.67 Z M 74.28 126.37 L 75.24 126.06 C 76.14 125.77 76.63 124.81 76.34 123.92 C 76.05 123.03 75.09 122.54 74.20 122.82 L 73.24 123.13 C 72.34 123.42 71.85 124.38 72.14 125.27 C 72.43 126.17 73.39 126.66 74.28 126.37 Z M 75.18 126.09 L 76.11 125.83 C 77.02 125.58 77.55 124.63 77.29 123.72 C 77.04 122.82 76.10 122.28 75.19 122.54 L 74.26 122.79 C 73.35 123.05 72.82 123.99 73.07 124.90 C 73.33 125.81 74.27 126.34 75.18 126.09 Z M 76.03 125.86 L 76.99 125.64 C 77.92 125.43 78.49 124.51 78.28 123.58 C 78.07 122.66 77.15 122.08 76.23 122.29 L 75.27 122.51 C 74.34 122.72 73.76 123.64 73.97 124.56 C 74.18 125.49 75.11 126.07 76.03 125.86 Z M 76.92 125.66 L 77.96 125.47 C 78.90 125.29 79.51 124.39 79.34 123.46 C 79.16 122.52 78.27 121.90 77.33 122.08 L 76.30 122.27 C 75.36 122.44 74.74 123.34 74.92 124.28 C 75.09 125.21 75.99 125.83 76.92 125.66 Z M 77.91 125.48 L 78.93 125.32 C 79.87 125.17 80.52 124.29 80.37 123.35 C 80.22 122.40 79.34 121.76 78.39 121.91 L 77.38 122.07 C 76.44 122.21 75.79 123.10 75.94 124.04 C 76.09 124.98 76.97 125.63 77.91 125.48 Z M 78.90 125.33 L 79.91 125.19 C 80.86 125.06 81.52 124.18 81.39 123.24 C 81.26 122.29 80.38 121.63 79.44 121.76 L 78.42 121.90 C 77.48 122.03 76.82 122.90 76.95 123.85 C 77.08 124.80 77.95 125.46 78.90 125.33 Z M 79.89 125.19 L 80.86 125.07 C 81.81 124.96 82.48 124.09 82.37 123.14 C 82.25 122.19 81.39 121.52 80.44 121.63 L 79.46 121.75 C 78.51 121.87 77.84 122.73 77.95 123.68 C 78.07 124.63 78.94 125.31 79.89 125.19 Z M 80.83 125.08 L 81.86 124.97 C 82.82 124.87 83.51 124.01 83.41 123.06 C 83.30 122.11 82.45 121.42 81.50 121.52 L 80.47 121.63 C 79.51 121.73 78.82 122.58 78.92 123.54 C 79.02 124.49 79.88 125.18 80.83 125.08 Z M 81.83 124.97 L 82.75 124.89 C 83.71 124.81 84.41 123.97 84.33 123.01 C 84.25 122.06 83.41 121.35 82.45 121.44 L 81.53 121.52 C 80.58 121.60 79.87 122.44 79.95 123.39 C 80.04 124.35 80.88 125.05 81.83 124.97 Z M 82.73 124.89 L 83.63 124.83 C 84.59 124.75 85.31 123.92 85.23 122.97 C 85.16 122.01 84.33 121.29 83.37 121.37 L 82.47 121.43 C 81.52 121.51 80.80 122.34 80.87 123.29 C 80.95 124.25 81.78 124.97 82.73 124.89 Z M 83.62 124.83 L 84.66 124.76 C 85.62 124.69 86.34 123.86 86.28 122.90 C 86.21 121.95 85.38 121.23 84.42 121.29 L 83.38 121.36 C 82.43 121.43 81.71 122.26 81.77 123.22 C 81.84 124.17 82.67 124.89 83.62 124.83 Z M 84.66 124.76 L 85.63 124.69 C 86.59 124.63 87.31 123.80 87.25 122.84 C 87.18 121.89 86.35 121.16 85.40 121.23 L 84.43 121.29 C 83.47 121.36 82.75 122.18 82.81 123.14 C 82.88 124.10 83.70 124.82 84.66 124.76 Z M 85.63 124.69 L 86.59 124.62 C 87.55 124.56 88.27 123.73 88.21 122.77 C 88.14 121.82 87.31 121.10 86.36 121.16 L 85.40 121.23 C 84.44 121.29 83.72 122.12 83.78 123.08 C 83.85 124.03 84.68 124.76 85.63 124.69 Z M 86.60 124.62 L 87.65 124.55 C 88.60 124.48 89.32 123.65 89.25 122.69 C 89.18 121.73 88.35 121.02 87.39 121.09 L 86.35 121.16 C 85.39 121.23 84.67 122.06 84.74 123.02 C 84.81 123.97 85.64 124.69 86.60 124.62 Z M 87.66 124.55 L 88.72 124.46 C 89.67 124.39 90.39 123.55 90.31 122.60 C 90.24 121.64 89.40 120.93 88.44 121.00 L 87.38 121.09 C 86.43 121.16 85.71 122.00 85.79 122.95 C 85.86 123.91 86.70 124.62 87.66 124.55 Z M 88.73 124.46 L 89.70 124.38 C 90.66 124.30 91.37 123.46 91.29 122.50 C 91.21 121.55 90.37 120.84 89.41 120.92 L 88.43 121.00 C 87.48 121.08 86.77 121.92 86.85 122.88 C 86.93 123.84 87.77 124.54 88.73 124.46 Z M 89.71 124.38 L 90.71 124.29 C 91.66 124.21 92.37 123.37 92.29 122.41 C 92.20 121.45 91.36 120.75 90.40 120.83 L 89.41 120.92 C 88.45 121.01 87.74 121.85 87.83 122.80 C 87.91 123.76 88.75 124.46 89.71 124.38 Z M 90.71 124.29 L 91.72 124.20 C 92.68 124.12 93.38 123.27 93.30 122.32 C 93.21 121.36 92.37 120.66 91.41 120.74 L 90.40 120.83 C 89.45 120.92 88.74 121.76 88.83 122.72 C 88.91 123.67 89.75 124.38 90.71 124.29 Z M 91.72 124.20 L 92.73 124.11 C 93.69 124.03 94.39 123.19 94.31 122.23 C 94.23 121.28 93.38 120.57 92.43 120.65 L 91.42 120.74 C 90.46 120.83 89.75 121.67 89.84 122.62 C 89.92 123.58 90.76 124.29 91.72 124.20 Z M 92.73 124.11 L 93.73 124.03 C 94.69 123.95 95.40 123.11 95.31 122.15 C 95.23 121.20 94.39 120.49 93.44 120.57 L 92.43 120.65 C 91.48 120.74 90.77 121.58 90.85 122.53 C 90.93 123.49 91.77 124.20 92.73 124.11 Z M 93.73 124.03 L 94.73 123.94 C 95.69 123.86 96.39 123.02 96.31 122.06 C 96.23 121.11 95.39 120.40 94.43 120.48 L 93.43 120.57 C 92.48 120.65 91.77 121.49 91.86 122.45 C 91.94 123.40 92.78 124.11 93.73 124.03 Z M 94.74 123.94 L 95.73 123.85 C 96.69 123.76 97.39 122.91 97.30 121.96 C 97.21 121.00 96.37 120.30 95.41 120.39 L 94.42 120.48 C 93.47 120.57 92.77 121.42 92.85 122.37 C 92.94 123.33 93.79 124.03 94.74 123.94 Z M 95.75 123.84 L 96.76 123.74 C 97.72 123.64 98.41 122.78 98.31 121.83 C 98.21 120.88 97.35 120.19 96.40 120.29 L 95.39 120.39 C 94.44 120.49 93.75 121.35 93.85 122.30 C 93.95 123.25 94.80 123.94 95.75 123.84 Z M 96.79 123.74 L 97.85 123.61 C 98.80 123.50 99.48 122.63 99.37 121.68 C 99.25 120.73 98.39 120.05 97.44 120.16 L 96.38 120.29 C 95.43 120.40 94.75 121.27 94.86 122.22 C 94.97 123.17 95.83 123.85 96.79 123.74 Z M 97.87 123.61 L 98.88 123.48 C 99.83 123.35 100.50 122.48 100.37 121.53 C 100.25 120.58 99.38 119.91 98.43 120.04 L 97.42 120.17 C 96.47 120.29 95.80 121.16 95.92 122.11 C 96.05 123.06 96.92 123.73 97.87 123.61 Z M 98.89 123.47 L 99.82 123.35 C 100.77 123.22 101.43 122.34 101.30 121.40 C 101.17 120.45 100.30 119.78 99.35 119.91 L 98.42 120.04 C 97.47 120.17 96.81 121.04 96.93 121.99 C 97.06 122.94 97.94 123.60 98.89 123.47 Z M 99.82 123.35 L 100.86 123.20 C 101.81 123.07 102.47 122.19 102.34 121.24 C 102.21 120.30 101.33 119.63 100.38 119.77 L 99.34 119.91 C 98.39 120.04 97.73 120.92 97.87 121.87 C 98.00 122.82 98.87 123.48 99.82 123.35 Z M 100.87 123.20 L 101.86 123.06 C 102.81 122.92 103.46 122.04 103.33 121.09 C 103.19 120.14 102.31 119.49 101.36 119.62 L 100.37 119.77 C 99.43 119.91 98.77 120.79 98.91 121.73 C 99.04 122.68 99.92 123.34 100.87 123.20 Z M 101.88 123.05 L 102.78 122.91 C 103.73 122.76 104.37 121.87 104.22 120.93 C 104.07 119.98 103.18 119.33 102.23 119.48 L 101.34 119.63 C 100.39 119.78 99.75 120.67 99.90 121.61 C 100.05 122.56 100.94 123.20 101.88 123.05 Z M 102.80 122.91 L 103.80 122.73 C 104.74 122.57 105.38 121.67 105.21 120.73 C 105.05 119.78 104.15 119.15 103.21 119.32 L 102.21 119.49 C 101.27 119.65 100.63 120.55 100.80 121.49 C 100.96 122.44 101.86 123.07 102.80 122.91 Z M 103.79 122.74 L 104.76 122.58 C 105.70 122.42 106.35 121.53 106.19 120.58 C 106.03 119.64 105.14 119.00 104.19 119.15 L 103.22 119.31 C 102.27 119.47 101.63 120.36 101.79 121.31 C 101.95 122.25 102.84 122.89 103.79 122.74 Z M 104.71 122.58 L 105.72 122.45 C 106.67 122.32 107.33 121.44 107.20 120.49 C 107.07 119.54 106.20 118.88 105.25 119.01 L 104.24 119.14 C 103.29 119.27 102.63 120.15 102.76 121.10 C 102.89 122.05 103.76 122.71 104.71 122.58 Z M 105.70 122.45 L 106.68 122.33 C 107.63 122.21 108.30 121.34 108.18 120.39 C 108.06 119.44 107.20 118.76 106.24 118.88 L 105.27 119.00 C 104.32 119.12 103.64 119.99 103.76 120.94 C 103.88 121.89 104.75 122.57 105.70 122.45 Z M 106.67 122.33 L 107.67 122.20 C 108.62 122.09 109.29 121.22 109.18 120.27 C 109.06 119.32 108.19 118.64 107.24 118.76 L 106.25 118.88 C 105.30 119.00 104.62 119.87 104.74 120.82 C 104.86 121.77 105.72 122.44 106.67 122.33 Z M 107.61 122.21 L 108.59 122.12 C 109.54 122.03 110.25 121.19 110.16 120.23 C 110.07 119.28 109.23 118.57 108.27 118.66 L 107.29 118.75 C 106.34 118.84 105.64 119.68 105.72 120.64 C 105.81 121.59 106.66 122.30 107.61 122.21 Z M 108.53 122.13 L 109.51 122.07 C 110.47 122.02 111.21 121.20 111.15 120.24 C 111.10 119.28 110.28 118.55 109.32 118.60 L 108.34 118.66 C 107.38 118.71 106.64 119.53 106.70 120.49 C 106.75 121.44 107.57 122.18 108.53 122.13 Z M 109.52 122.07 L 110.52 122.02 C 111.48 121.96 112.21 121.14 112.16 120.19 C 112.11 119.23 111.29 118.49 110.33 118.55 L 109.32 118.60 C 108.37 118.66 107.63 119.48 107.69 120.43 C 107.74 121.39 108.56 122.12 109.52 122.07 Z M 110.54 122.01 L 111.53 121.95 C 112.49 121.89 113.21 121.06 113.15 120.10 C 113.09 119.14 112.26 118.42 111.30 118.48 L 110.31 118.55 C 109.36 118.61 108.63 119.44 108.69 120.40 C 108.76 121.35 109.59 122.08 110.54 122.01 Z M 111.52 121.95 L 112.53 121.89 C 113.49 121.84 114.22 121.02 114.16 120.06 C 114.11 119.10 113.29 118.37 112.33 118.42 L 111.32 118.48 C 110.36 118.54 109.63 119.36 109.68 120.32 C 109.74 121.27 110.56 122.00 111.52 121.95 Z M 112.50 121.89 L 113.49 121.85 C 114.45 121.81 115.19 121.00 115.15 120.05 C 115.11 119.09 114.30 118.34 113.35 118.38 L 112.36 118.42 C 111.40 118.46 110.66 119.27 110.70 120.23 C 110.74 121.19 111.54 121.93 112.50 121.89 Z M 113.49 121.85 L 114.50 121.81 C 115.46 121.77 116.21 120.97 116.17 120.01 C 116.13 119.05 115.32 118.30 114.37 118.34 L 113.35 118.38 C 112.39 118.42 111.64 119.23 111.68 120.19 C 111.72 121.14 112.53 121.89 113.49 121.85 Z M 114.52 121.81 L 115.40 121.77 C 116.35 121.72 117.09 120.90 117.04 119.95 C 117.00 118.99 116.18 118.25 115.22 118.30 L 114.35 118.34 C 113.39 118.39 112.65 119.21 112.70 120.16 C 112.75 121.12 113.56 121.86 114.52 121.81 Z M 115.42 121.77 L 116.39 121.70 C 117.35 121.64 118.07 120.82 118.01 119.86 C 117.95 118.90 117.12 118.18 116.17 118.24 L 115.20 118.30 C 114.24 118.36 113.51 119.19 113.58 120.15 C 113.64 121.10 114.46 121.83 115.42 121.77 Z M 116.42 121.70 L 117.56 121.61 C 118.52 121.54 119.23 120.70 119.15 119.74 C 119.08 118.79 118.24 118.07 117.29 118.15 L 116.14 118.24 C 115.19 118.31 114.47 119.15 114.55 120.11 C 114.62 121.06 115.46 121.78 116.42 121.70 Z M 117.58 121.61 L 118.55 121.52 C 119.51 121.44 120.22 120.60 120.13 119.64 C 120.05 118.69 119.20 117.98 118.25 118.06 L 117.27 118.15 C 116.31 118.23 115.61 119.08 115.69 120.03 C 115.78 120.99 116.62 121.69 117.58 121.61 Z M 118.57 121.52 L 119.61 121.42 C 120.56 121.33 121.26 120.49 121.17 119.53 C 121.08 118.58 120.24 117.88 119.28 117.97 L 118.24 118.06 C 117.28 118.15 116.58 119.00 116.67 119.96 C 116.76 120.91 117.61 121.61 118.57 121.52 Z M 119.62 121.42 L 120.64 121.32 C 121.60 121.22 122.29 120.37 122.20 119.42 C 122.10 118.46 121.25 117.77 120.30 117.86 L 119.27 117.97 C 118.32 118.06 117.62 118.91 117.72 119.87 C 117.81 120.82 118.66 121.52 119.62 121.42 Z M 120.66 121.32 L 121.62 121.22 C 122.57 121.11 123.26 120.26 123.16 119.30 C 123.06 118.35 122.20 117.66 121.25 117.76 L 120.28 117.86 C 119.33 117.97 118.64 118.82 118.74 119.78 C 118.85 120.73 119.70 121.42 120.66 121.32 Z M 121.64 121.21 L 122.78 121.08 C 123.73 120.96 124.41 120.10 124.30 119.14 C 124.18 118.19 123.31 117.51 122.36 117.63 L 121.22 117.76 C 120.27 117.88 119.59 118.74 119.71 119.70 C 119.82 120.65 120.69 121.33 121.64 121.21 Z M 122.80 121.07 L 123.71 120.95 C 124.66 120.83 125.33 119.96 125.21 119.01 C 125.08 118.05 124.21 117.38 123.26 117.51 L 122.34 117.63 C 121.39 117.75 120.72 118.63 120.85 119.58 C 120.97 120.53 121.84 121.20 122.80 121.07 Z M 123.70 120.96 L 124.53 120.85 C 125.48 120.73 126.16 119.86 126.04 118.91 C 125.92 117.96 125.05 117.28 124.10 117.40 L 123.27 117.51 C 122.31 117.63 121.64 118.50 121.76 119.45 C 121.88 120.40 122.75 121.08 123.70 120.96 Z M 124.51 120.85 L 125.40 120.75 C 126.35 120.64 127.04 119.78 126.93 118.83 C 126.82 117.87 125.95 117.19 125.00 117.30 L 124.11 117.40 C 123.16 117.51 122.48 118.37 122.59 119.33 C 122.70 120.28 123.56 120.96 124.51 120.85 Z M 125.40 120.75 L 126.49 120.63 C 127.44 120.52 128.13 119.66 128.02 118.70 C 127.91 117.75 127.05 117.07 126.10 117.17 L 125.00 117.30 C 124.05 117.41 123.37 118.27 123.47 119.22 C 123.58 120.17 124.44 120.86 125.40 120.75 Z M 126.50 120.63 L 127.51 120.51 C 128.47 120.39 129.15 119.53 129.04 118.58 C 128.92 117.62 128.06 116.94 127.11 117.05 L 126.09 117.17 C 125.14 117.29 124.46 118.15 124.57 119.10 C 124.68 120.06 125.54 120.74 126.50 120.63 Z M 127.52 120.51 L 128.52 120.39 C 129.47 120.27 130.15 119.41 130.04 118.46 C 129.92 117.50 129.06 116.82 128.10 116.94 L 127.10 117.06 C 126.15 117.17 125.47 118.03 125.58 118.99 C 125.70 119.94 126.56 120.62 127.52 120.51 Z M 128.51 120.39 L 129.56 120.26 C 130.51 120.15 131.19 119.29 131.08 118.33 C 130.97 117.38 130.10 116.70 129.15 116.81 L 128.11 116.94 C 127.15 117.05 126.47 117.91 126.58 118.87 C 126.70 119.82 127.56 120.50 128.51 120.39 Z M 129.55 120.26 L 130.56 120.15 C 131.52 120.04 132.20 119.18 132.09 118.22 C 131.98 117.27 131.12 116.58 130.17 116.69 L 129.15 116.81 C 128.20 116.92 127.52 117.78 127.63 118.74 C 127.74 119.69 128.60 120.37 129.55 120.26 Z M 130.55 120.15 L 131.65 120.03 C 132.60 119.93 133.29 119.07 133.19 118.12 C 133.09 117.16 132.23 116.47 131.27 116.57 L 130.18 116.69 C 129.23 116.80 128.53 117.65 128.64 118.61 C 128.74 119.56 129.60 120.25 130.55 120.15 Z M 131.62 120.03 L 132.69 119.93 C 133.64 119.84 134.35 119.00 134.26 118.04 C 134.17 117.08 133.32 116.38 132.36 116.47 L 131.30 116.57 C 130.34 116.66 129.64 117.51 129.73 118.47 C 129.82 119.42 130.67 120.12 131.62 120.03 Z M 132.65 119.94 L 133.55 119.87 C 134.51 119.80 135.23 118.97 135.16 118.01 C 135.09 117.05 134.25 116.33 133.30 116.40 L 132.40 116.47 C 131.44 116.54 130.72 117.37 130.79 118.33 C 130.86 119.29 131.70 120.01 132.65 119.94 Z M 133.51 119.87 L 134.45 119.83 C 135.41 119.79 136.15 118.97 136.10 118.01 C 136.06 117.05 135.25 116.31 134.29 116.36 L 133.35 116.40 C 132.39 116.44 131.64 117.26 131.69 118.22 C 131.73 119.18 132.55 119.92 133.51 119.87 Z M 134.40 119.83 L 135.39 119.81 C 136.35 119.80 137.11 119.01 137.10 118.05 C 137.08 117.09 136.29 116.32 135.33 116.34 L 134.34 116.35 C 133.38 116.37 132.61 117.16 132.63 118.12 C 132.64 119.08 133.44 119.85 134.40 119.83 Z M 135.36 119.82 L 136.33 119.81 C 137.29 119.81 138.07 119.03 138.07 118.07 C 138.07 117.11 137.29 116.33 136.33 116.34 L 135.36 116.34 C 134.40 116.34 133.62 117.12 133.62 118.08 C 133.62 119.04 134.40 119.82 135.36 119.82 Z M 136.33 119.81 L 137.33 119.81 C 138.29 119.81 139.07 119.04 139.07 118.07 C 139.07 117.11 138.29 116.34 137.33 116.34 L 136.33 116.34 C 135.37 116.34 134.59 117.11 134.59 118.07 C 134.59 119.04 135.37 119.81 136.33 119.81 Z M 137.33 119.81 L 138.33 119.81 C 139.29 119.81 140.07 119.04 140.07 118.07 C 140.07 117.11 139.29 116.34 138.33 116.34 L 137.33 116.34 C 136.37 116.34 135.59 117.11 135.59 118.07 C 135.59 119.04 136.37 119.81 137.33 119.81 Z M 138.33 119.81 L 139.33 119.81 C 140.29 119.81 141.07 119.04 141.07 118.07 C 141.07 117.11 140.29 116.34 139.33 116.34 L 138.33 116.34 C 137.37 116.34 136.59 117.11 136.59 118.07 C 136.59 119.04 137.37 119.81 138.33 119.81 Z M 139.33 119.81 L 140.33 119.81 C 141.30 119.81 142.07 119.04 142.07 118.07 C 142.07 117.11 141.30 116.34 140.34 116.34 L 139.33 116.34 C 138.37 116.34 137.59 117.11 137.59 118.07 C 137.59 119.04 138.37 119.81 139.33 119.81 Z M 140.33 119.81 L 141.34 119.82 C 142.30 119.83 143.09 119.05 143.09 118.09 C 143.10 117.13 142.32 116.35 141.36 116.34 L 140.34 116.33 C 139.38 116.33 138.60 117.10 138.60 118.07 C 138.59 119.03 139.36 119.81 140.33 119.81 Z M 141.30 119.82 L 142.26 119.85 C 143.22 119.88 144.02 119.12 144.05 118.16 C 144.07 117.20 143.32 116.40 142.36 116.37 L 141.40 116.34 C 140.44 116.31 139.64 117.07 139.61 118.03 C 139.59 118.99 140.34 119.79 141.30 119.82 Z M 142.19 119.84 L 143.02 119.90 C 143.98 119.97 144.81 119.24 144.88 118.28 C 144.94 117.32 144.22 116.49 143.26 116.43 L 142.42 116.37 C 141.47 116.31 140.64 117.03 140.57 117.99 C 140.50 118.95 141.23 119.78 142.19 119.84 Z M 142.99 119.90 L 144.08 119.99 C 145.04 120.08 145.88 119.37 145.96 118.41 C 146.05 117.46 145.34 116.61 144.38 116.53 L 143.29 116.43 C 142.33 116.35 141.49 117.06 141.41 118.01 C 141.32 118.97 142.03 119.81 142.99 119.90 Z M 144.08 119.99 L 145.11 120.09 C 146.07 120.17 146.92 119.46 147.00 118.50 C 147.09 117.55 146.38 116.70 145.42 116.62 L 144.38 116.53 C 143.43 116.44 142.58 117.15 142.50 118.11 C 142.41 119.07 143.12 119.91 144.08 119.99 Z M 145.12 120.09 L 146.16 120.17 C 147.11 120.26 147.96 119.54 148.04 118.59 C 148.12 117.63 147.41 116.79 146.45 116.71 L 145.41 116.62 C 144.46 116.54 143.61 117.25 143.53 118.20 C 143.45 119.16 144.16 120.00 145.12 120.09 Z M 146.16 120.17 L 147.23 120.26 C 148.18 120.34 149.02 119.62 149.10 118.67 C 149.18 117.71 148.46 116.87 147.51 116.79 L 146.44 116.71 C 145.49 116.63 144.65 117.34 144.57 118.30 C 144.49 119.26 145.21 120.10 146.16 120.17 Z M 147.24 120.26 L 148.22 120.33 C 149.18 120.40 150.01 119.69 150.08 118.73 C 150.15 117.77 149.43 116.93 148.48 116.86 L 147.49 116.79 C 146.54 116.72 145.70 117.44 145.63 118.40 C 145.56 119.36 146.28 120.19 147.24 120.26 Z M 148.25 120.34 L 149.42 120.40 C 150.38 120.46 151.20 119.73 151.26 118.77 C 151.31 117.81 150.58 116.98 149.62 116.93 L 148.45 116.86 C 147.49 116.81 146.66 117.54 146.61 118.50 C 146.55 119.46 147.29 120.28 148.25 120.34 Z M 149.48 120.41 L 150.39 120.43 C 151.36 120.45 152.15 119.69 152.18 118.73 C 152.20 117.77 151.44 116.97 150.48 116.95 L 149.57 116.93 C 148.60 116.90 147.81 117.66 147.78 118.62 C 147.76 119.58 148.52 120.38 149.48 120.41 Z M 150.44 120.43 L 151.31 120.43 C 152.27 120.43 153.05 119.65 153.05 118.69 C 153.05 117.73 152.27 116.95 151.31 116.95 L 150.44 116.95 C 149.48 116.95 148.70 117.72 148.70 118.69 C 148.70 119.65 149.47 120.43 150.44 120.43 Z M 151.31 120.43 L 152.31 120.43 C 153.28 120.43 154.06 119.65 154.06 118.69 C 154.06 117.73 153.28 116.95 152.31 116.95 L 151.31 116.95 C 150.35 116.95 149.57 117.73 149.57 118.69 C 149.57 119.65 150.35 120.43 151.31 120.43 Z M 152.31 120.43 L 153.32 120.43 C 154.28 120.43 155.06 119.65 155.06 118.69 C 155.06 117.73 154.28 116.95 153.32 116.95 L 152.31 116.95 C 151.35 116.95 150.57 117.73 150.57 118.69 C 150.57 119.65 151.35 120.43 152.31 120.43 Z M 153.32 120.43 L 154.30 120.43 C 155.26 120.43 156.04 119.65 156.04 118.69 C 156.04 117.73 155.26 116.95 154.30 116.95 L 153.32 116.95 C 152.36 116.95 151.58 117.73 151.58 118.69 C 151.58 119.65 152.36 120.43 153.32 120.43 Z M 154.30 120.43 L 155.29 120.43 C 156.25 120.43 157.03 119.65 157.03 118.69 C 157.03 117.73 156.25 116.95 155.29 116.95 L 154.30 116.95 C 153.34 116.95 152.56 117.73 152.56 118.69 C 152.56 119.65 153.34 120.43 154.30 120.43 Z M 155.29 120.43 L 156.30 120.43 C 157.26 120.43 158.04 119.65 158.04 118.69 C 158.04 117.73 157.26 116.95 156.30 116.95 L 155.29 116.95 C 154.33 116.95 153.55 117.73 153.55 118.69 C 153.55 119.65 154.33 120.43 155.29 120.43 Z M 156.30 120.43 L 157.31 120.43 C 158.27 120.43 159.05 119.65 159.05 118.69 C 159.05 117.73 158.27 116.95 157.31 116.95 L 156.30 116.95 C 155.34 116.95 154.56 117.73 154.56 118.69 C 154.56 119.65 155.34 120.43 156.30 120.43 Z M 157.31 120.43 L 158.30 120.43 C 159.27 120.43 160.05 119.65 160.05 118.69 C 160.05 117.73 159.27 116.95 158.30 116.95 L 157.31 116.95 C 156.34 116.95 155.56 117.73 155.56 118.69 C 155.56 119.65 156.34 120.43 157.31 120.43 Z M 158.30 120.43 L 159.31 120.43 C 160.27 120.43 161.05 119.65 161.05 118.69 C 161.05 117.73 160.27 116.95 159.31 116.95 L 158.30 116.95 C 157.34 116.95 156.56 117.73 156.56 118.69 C 156.56 119.65 157.34 120.43 158.30 120.43 Z M 159.31 120.43 L 160.28 120.43 C 161.25 120.43 162.03 119.65 162.03 118.69 C 162.03 117.73 161.25 116.95 160.28 116.95 L 159.31 116.95 C 158.34 116.95 157.56 117.73 157.56 118.69 C 157.56 119.65 158.34 120.43 159.31 120.43 Z M 160.28 120.43 L 161.31 120.43 C 162.27 120.43 163.05 119.65 163.05 118.69 C 163.05 117.73 162.27 116.95 161.31 116.95 L 160.28 116.95 C 159.32 116.95 158.54 117.73 158.54 118.69 C 158.54 119.65 159.32 120.43 160.28 120.43 Z M 161.31 120.43 L 162.32 120.43 C 163.28 120.43 164.06 119.65 164.06 118.69 C 164.06 117.73 163.28 116.95 162.32 116.95 L 161.31 116.95 C 160.34 116.95 159.56 117.73 159.56 118.69 C 159.56 119.65 160.34 120.43 161.31 120.43 Z M 162.32 120.43 L 163.31 120.43 C 164.28 120.43 165.06 119.65 165.06 118.69 C 165.06 117.73 164.28 116.95 163.31 116.95 L 162.32 116.95 C 161.36 116.95 160.57 117.73 160.57 118.69 C 160.57 119.65 161.36 120.43 162.32 120.43 Z M 163.31 120.43 L 164.34 120.43 C 165.30 120.43 166.08 119.65 166.08 118.69 C 166.08 117.73 165.30 116.95 164.34 116.95 L 163.31 116.95 C 162.35 116.95 161.57 117.73 161.57 118.69 C 161.57 119.65 162.35 120.43 163.31 120.43 Z M 164.34 120.43 L 165.31 120.43 C 166.27 120.43 167.05 119.65 167.05 118.69 C 167.05 117.73 166.27 116.95 165.31 116.95 L 164.34 116.95 C 163.37 116.95 162.59 117.73 162.59 118.69 C 162.59 119.65 163.37 120.43 164.34 120.43 Z M 165.30 120.43 L 166.31 120.44 C 167.27 120.44 168.06 119.66 168.06 118.70 C 168.06 117.74 167.29 116.95 166.32 116.95 L 165.32 116.95 C 164.35 116.94 163.57 117.72 163.57 118.68 C 163.56 119.65 164.34 120.43 165.30 120.43 Z M 166.28 120.44 L 167.19 120.46 C 168.15 120.48 168.95 119.71 168.97 118.75 C 168.99 117.79 168.23 116.99 167.26 116.97 L 166.36 116.95 C 165.39 116.93 164.60 117.69 164.57 118.65 C 164.55 119.62 165.32 120.42 166.28 120.44 Z M 167.15 120.46 L 168.06 120.50 C 169.02 120.54 169.84 119.79 169.88 118.83 C 169.93 117.87 169.18 117.06 168.22 117.01 L 167.30 116.97 C 166.34 116.93 165.53 117.67 165.48 118.64 C 165.44 119.60 166.19 120.41 167.15 120.46 Z M 168.05 120.50 L 169.18 120.55 C 170.14 120.60 170.96 119.87 171.01 118.90 C 171.06 117.94 170.32 117.12 169.36 117.07 L 168.23 117.01 C 167.27 116.96 166.45 117.70 166.40 118.66 C 166.35 119.62 167.09 120.44 168.05 120.50 Z M 169.18 120.55 L 170.16 120.61 C 171.13 120.66 171.95 119.92 172.00 118.96 C 172.05 118.00 171.31 117.18 170.35 117.12 L 169.36 117.07 C 168.40 117.02 167.58 117.76 167.53 118.72 C 167.48 119.68 168.22 120.50 169.18 120.55 Z M 170.17 120.61 L 171.22 120.66 C 172.18 120.71 173.00 119.97 173.05 119.01 C 173.10 118.05 172.36 117.23 171.40 117.18 L 170.35 117.12 C 169.39 117.07 168.57 117.81 168.52 118.77 C 168.47 119.74 169.20 120.56 170.17 120.61 Z M 171.22 120.66 L 172.23 120.71 C 173.19 120.76 174.01 120.02 174.06 119.06 C 174.11 118.10 173.37 117.28 172.41 117.23 L 171.40 117.18 C 170.44 117.13 169.62 117.87 169.57 118.83 C 169.52 119.79 170.26 120.61 171.22 120.66 Z M 172.23 120.71 L 173.37 120.77 C 174.33 120.81 175.15 120.07 175.19 119.11 C 175.24 118.15 174.50 117.33 173.54 117.29 L 172.40 117.23 C 171.44 117.19 170.62 117.93 170.58 118.89 C 170.53 119.85 171.27 120.67 172.23 120.71 Z M 173.38 120.77 L 174.33 120.80 C 175.29 120.84 176.10 120.09 176.14 119.13 C 176.18 118.17 175.43 117.36 174.47 117.32 L 173.52 117.29 C 172.56 117.25 171.75 118.00 171.71 118.96 C 171.67 119.92 172.42 120.73 173.38 120.77 Z M 174.36 120.80 L 175.27 120.83 C 176.23 120.85 177.03 120.09 177.05 119.13 C 177.07 118.16 176.31 117.37 175.35 117.35 L 174.44 117.32 C 173.48 117.30 172.68 118.06 172.66 119.02 C 172.64 119.99 173.40 120.78 174.36 120.80 Z M 175.29 120.82 L 176.29 120.84 C 177.25 120.85 178.04 120.08 178.05 119.11 C 178.06 118.15 177.29 117.37 176.33 117.36 L 175.33 117.35 C 174.37 117.34 173.58 118.11 173.57 119.07 C 173.56 120.03 174.33 120.81 175.29 120.82 Z M 176.28 120.83 L 177.27 120.85 C 178.23 120.87 179.03 120.11 179.04 119.15 C 179.06 118.18 178.30 117.39 177.34 117.38 L 176.34 117.36 C 175.38 117.34 174.59 118.10 174.57 119.06 C 174.56 120.02 175.32 120.82 176.28 120.83 Z M 177.21 120.85 L 178.21 120.90 C 179.17 120.95 179.98 120.22 180.03 119.26 C 180.09 118.30 179.35 117.48 178.39 117.43 L 177.40 117.38 C 176.44 117.33 175.62 118.06 175.57 119.02 C 175.52 119.98 176.25 120.80 177.21 120.85 Z M 178.10 120.89 L 179.10 121.01 C 180.05 121.12 180.92 120.44 181.03 119.48 C 181.14 118.53 180.45 117.67 179.50 117.56 L 178.50 117.44 C 177.55 117.33 176.68 118.01 176.57 118.97 C 176.46 119.92 177.14 120.78 178.10 120.89 Z M 179.02 121.00 L 180.00 121.16 C 180.94 121.32 181.84 120.68 182.00 119.73 C 182.15 118.79 181.51 117.89 180.57 117.73 L 179.59 117.57 C 178.64 117.41 177.74 118.05 177.59 119.00 C 177.43 119.94 178.07 120.84 179.02 121.00 Z M 179.97 121.16 L 180.96 121.34 C 181.90 121.51 182.80 120.88 182.98 119.94 C 183.15 118.99 182.52 118.09 181.58 117.92 L 180.59 117.74 C 179.65 117.57 178.74 118.19 178.57 119.14 C 178.40 120.08 179.03 120.99 179.97 121.16 Z M 181.00 121.34 L 181.98 121.49 C 182.93 121.64 183.81 120.99 183.96 120.04 C 184.11 119.09 183.46 118.21 182.51 118.06 L 181.53 117.91 C 180.58 117.76 179.70 118.41 179.55 119.36 C 179.40 120.31 180.05 121.20 181.00 121.34 Z M 182.06 121.50 L 183.06 121.61 C 184.01 121.71 184.87 121.02 184.97 120.07 C 185.07 119.11 184.38 118.26 183.42 118.15 L 182.43 118.05 C 181.47 117.95 180.62 118.64 180.52 119.59 C 180.41 120.55 181.11 121.40 182.06 121.50 Z M 183.12 121.62 L 184.13 121.68 C 185.09 121.75 185.92 121.03 185.98 120.07 C 186.05 119.11 185.32 118.28 184.37 118.22 L 183.36 118.15 C 182.40 118.08 181.57 118.81 181.51 119.76 C 181.44 120.72 182.16 121.55 183.12 121.62 Z M 184.18 121.69 L 185.18 121.72 C 186.14 121.76 186.94 121.01 186.98 120.05 C 187.01 119.10 186.27 118.29 185.31 118.25 L 184.31 118.22 C 183.36 118.18 182.55 118.93 182.51 119.89 C 182.48 120.84 183.23 121.65 184.18 121.69 Z M 185.22 121.72 L 186.17 121.74 C 187.13 121.75 187.92 120.99 187.93 120.03 C 187.95 119.07 187.18 118.28 186.23 118.27 L 185.27 118.25 C 184.31 118.24 183.52 119.00 183.51 119.96 C 183.50 120.92 184.26 121.71 185.22 121.72 Z M 186.17 121.74 L 187.21 121.75 C 188.17 121.76 188.96 121.00 188.97 120.04 C 188.99 119.09 188.22 118.30 187.26 118.29 L 186.22 118.27 C 185.27 118.26 184.48 119.02 184.47 119.98 C 184.45 120.93 185.22 121.72 186.17 121.74 Z M 187.19 121.75 L 188.19 121.78 C 189.15 121.81 189.95 121.05 189.97 120.10 C 190.00 119.14 189.25 118.35 188.29 118.32 L 187.29 118.29 C 186.33 118.26 185.54 119.01 185.51 119.97 C 185.48 120.92 186.23 121.72 187.19 121.75 Z M 188.16 121.78 L 189.17 121.82 C 190.12 121.87 190.93 121.13 190.97 120.17 C 191.02 119.22 190.28 118.41 189.32 118.37 L 188.32 118.32 C 187.37 118.28 186.56 119.01 186.52 119.97 C 186.47 120.92 187.21 121.73 188.16 121.78 Z M 189.12 121.82 L 190.17 121.89 C 191.12 121.96 191.94 121.24 192.01 120.29 C 192.08 119.34 191.36 118.51 190.41 118.44 L 189.37 118.37 C 188.41 118.30 187.59 119.02 187.52 119.97 C 187.45 120.92 188.17 121.75 189.12 121.82 Z M 190.15 121.89 L 191.07 121.96 C 192.02 122.04 192.86 121.33 192.93 120.38 C 193.01 119.43 192.30 118.59 191.35 118.52 L 190.42 118.45 C 189.47 118.37 188.64 119.08 188.57 120.03 C 188.49 120.98 189.20 121.81 190.15 121.89 Z M 191.09 121.96 L 192.05 122.03 C 193.00 122.09 193.82 121.37 193.89 120.42 C 193.95 119.47 193.23 118.65 192.28 118.58 L 191.33 118.52 C 190.38 118.45 189.55 119.17 189.49 120.12 C 189.42 121.07 190.14 121.90 191.09 121.96 Z M 192.03 122.02 L 193.18 122.12 C 194.13 122.19 194.96 121.49 195.04 120.54 C 195.12 119.59 194.41 118.76 193.46 118.68 L 192.31 118.59 C 191.36 118.51 190.52 119.22 190.45 120.17 C 190.37 121.12 191.08 121.95 192.03 122.02 Z M 192.93 122.08 L 193.91 122.31 C 194.84 122.52 195.76 121.95 195.98 121.02 C 196.20 120.09 195.62 119.16 194.69 118.95 L 193.71 118.72 C 192.78 118.50 191.86 119.08 191.64 120.01 C 191.42 120.94 192.00 121.86 192.93 122.08 Z M 192.61 120.68 L 192.62 121.22 C 192.65 122.16 193.43 122.89 194.37 122.86 C 195.30 122.83 196.04 122.05 196.01 121.12 L 195.99 120.57 C 195.97 119.64 195.18 118.90 194.25 118.93 C 193.31 118.96 192.58 119.74 192.61 120.68 Z M 193.21 119.98 L 192.36 120.78 C 191.71 121.38 191.67 122.41 192.28 123.06 C 192.89 123.72 193.91 123.75 194.57 123.15 L 195.42 122.35 C 196.07 121.74 196.11 120.72 195.50 120.06 C 194.89 119.41 193.87 119.37 193.21 119.98 Z M 192.47 120.75 L 192.40 120.81 C 191.73 121.36 191.63 122.35 192.18 123.02 C 192.74 123.68 193.73 123.78 194.39 123.23 L 194.46 123.17 C 195.13 122.62 195.23 121.63 194.68 120.96 C 194.13 120.29 193.14 120.20 192.47 120.75 Z"
      fill="black"
      fill-rule="nonzero" /></svg>