<svg xmlns="http://www.w3.org/2000/svg" width="300" height="300" viewBox="0 0 300 300">
<path d="M 115.53 138.19 L 115.10 137.10 C 114.81 136.36 113.96 135.99 113.22 136.28 C 112.48 136.58 112.11 137.42 112.41 138.16 L 112.83 139.25 C 113.13 139.99 113.97 140.36 114.71 140.07 C 115.46 139.77 115.82 138.93 115.53 138.19 Z M 115.17 137.28 L 114.95 136.38 C 114.75 135.60 113.96 135.12 113.18 135.31 C 112.40 135.51 111.92 136.30 112.11 137.08 L 112.34 137.98 C 112.53 138.76 113.32 139.24 114.10 139.05 C 114.89 138.86 115.36 138.06 115.17 137.28 Z M 114.84 137.41 L 115.18 136.75 C 115.55 136.03 115.26 135.14 114.54 134.77 C 113.82 134.40 112.93 134.68 112.56 135.40 L 112.22 136.06 C 111.85 136.78 112.13 137.67 112.86 138.04 C 113.58 138.41 114.47 138.13 114.84 137.41 Z M 114.17 137.53 L 115.20 137.32 C 116.01 137.15 116.52 136.36 116.35 135.56 C 116.19 134.76 115.40 134.24 114.60 134.41 L 113.56 134.62 C 112.76 134.79 112.25 135.58 112.41 136.38 C 112.58 137.18 113.37 137.70 114.17 137.53 Z M 115.07 137.35 L 115.99 137.25 C 116.81 137.15 117.40 136.41 117.31 135.59 C 117.21 134.77 116.47 134.18 115.65 134.27 L 114.73 134.37 C 113.91 134.47 113.32 135.21 113.41 136.03 C 113.50 136.85 114.25 137.44 115.07 137.35 Z M 116.00 137.25 L 117.06 137.13 C 117.89 137.03 118.48 136.28 118.38 135.45 C 118.28 134.63 117.53 134.04 116.70 134.14 L 115.64 134.26 C 114.82 134.36 114.23 135.11 114.32 135.94 C 114.42 136.76 115.17 137.35 116.00 137.25 Z M 117.08 137.13 L 118.11 136.99 C 118.94 136.88 119.52 136.12 119.41 135.29 C 119.30 134.46 118.53 133.88 117.71 133.99 L 116.68 134.13 C 115.85 134.24 115.27 135.01 115.38 135.83 C 115.50 136.66 116.26 137.24 117.08 137.13 Z M 118.13 136.99 L 119.15 136.84 C 119.97 136.72 120.55 135.95 120.43 135.12 C 120.30 134.30 119.53 133.72 118.71 133.84 L 117.69 133.99 C 116.86 134.11 116.29 134.88 116.41 135.71 C 116.53 136.54 117.30 137.11 118.13 136.99 Z M 119.16 136.85 L 120.12 136.70 C 120.95 136.57 121.52 135.80 121.39 134.97 C 121.26 134.14 120.49 133.57 119.66 133.69 L 118.70 133.84 C 117.87 133.97 117.30 134.74 117.42 135.57 C 117.55 136.40 118.33 136.97 119.16 136.85 Z M 120.12 136.70 L 121.17 136.54 C 122.00 136.41 122.56 135.63 122.43 134.80 C 122.30 133.97 121.52 133.40 120.69 133.53 L 119.65 133.69 C 118.82 133.82 118.25 134.60 118.38 135.43 C 118.51 136.26 119.29 136.83 120.12 136.70 Z M 121.18 136.54 L 122.11 136.38 C 122.94 136.24 123.50 135.46 123.36 134.63 C 123.22 133.80 122.44 133.24 121.61 133.38 L 120.68 133.53 C 119.85 133.67 119.29 134.45 119.42 135.28 C 119.56 136.11 120.35 136.67 121.18 136.54 Z M 122.12 136.38 L 123.06 136.21 C 123.89 136.06 124.44 135.27 124.29 134.44 C 124.15 133.61 123.35 133.06 122.53 133.21 L 121.59 133.38 C 120.76 133.52 120.21 134.32 120.35 135.15 C 120.50 135.97 121.29 136.53 122.12 136.38 Z M 123.08 136.21 L 124.09 136.02 C 124.92 135.86 125.46 135.06 125.30 134.23 C 125.14 133.40 124.34 132.86 123.51 133.02 L 122.51 133.21 C 121.68 133.37 121.14 134.17 121.29 135.00 C 121.45 135.83 122.25 136.37 123.08 136.21 Z M 124.11 136.01 L 125.08 135.81 C 125.91 135.65 126.44 134.84 126.27 134.01 C 126.10 133.19 125.29 132.65 124.47 132.82 L 123.49 133.02 C 122.67 133.19 122.14 134.00 122.30 134.82 C 122.47 135.65 123.28 136.18 124.11 136.01 Z M 125.09 135.81 L 126.08 135.60 C 126.90 135.43 127.43 134.62 127.25 133.79 C 127.08 132.97 126.27 132.44 125.44 132.61 L 124.45 132.82 C 123.63 133.00 123.10 133.81 123.28 134.64 C 123.45 135.46 124.27 135.99 125.09 135.81 Z M 126.08 135.60 L 127.07 135.39 C 127.90 135.21 128.42 134.40 128.24 133.57 C 128.07 132.75 127.25 132.22 126.43 132.40 L 125.44 132.61 C 124.61 132.79 124.09 133.61 124.26 134.43 C 124.44 135.26 125.26 135.78 126.08 135.60 Z M 127.07 135.39 L 128.04 135.18 C 128.86 135.00 129.39 134.19 129.21 133.36 C 129.03 132.53 128.21 132.01 127.38 132.19 L 126.42 132.40 C 125.60 132.58 125.07 133.39 125.25 134.22 C 125.43 135.05 126.25 135.57 127.07 135.39 Z M 128.05 135.19 L 129.03 134.97 C 129.86 134.78 130.38 133.96 130.20 133.13 C 130.01 132.30 129.19 131.78 128.36 131.96 L 127.37 132.18 C 126.54 132.37 126.02 133.19 126.21 134.02 C 126.39 134.85 127.22 135.37 128.05 135.19 Z M 129.04 134.97 L 130.00 134.75 C 130.83 134.56 131.35 133.72 131.15 132.89 C 130.96 132.06 130.13 131.55 129.30 131.74 L 128.34 131.96 C 127.51 132.15 127.00 132.99 127.19 133.82 C 127.38 134.65 128.21 135.16 129.04 134.97 Z M 130.01 134.75 L 130.97 134.52 C 131.80 134.32 132.32 133.48 132.12 132.65 C 131.92 131.82 131.08 131.31 130.25 131.51 L 129.29 131.74 C 128.45 131.94 127.94 132.77 128.14 133.61 C 128.34 134.44 129.18 134.95 130.01 134.75 Z M 130.98 134.53 L 131.98 134.28 C 132.81 134.08 133.33 133.24 133.12 132.40 C 132.92 131.57 132.08 131.05 131.24 131.26 L 130.24 131.50 C 129.41 131.70 128.89 132.55 129.10 133.38 C 129.30 134.22 130.14 134.73 130.98 134.53 Z M 131.98 134.29 L 132.94 134.05 C 133.78 133.85 134.29 133.01 134.08 132.17 C 133.88 131.33 133.04 130.82 132.20 131.02 L 131.24 131.25 C 130.40 131.46 129.89 132.30 130.09 133.14 C 130.30 133.98 131.14 134.49 131.98 134.29 Z M 132.94 134.06 L 133.90 133.82 C 134.74 133.61 135.25 132.76 135.05 131.92 C 134.84 131.08 133.99 130.57 133.15 130.78 L 132.19 131.02 C 131.35 131.22 130.84 132.07 131.05 132.91 C 131.25 133.75 132.10 134.26 132.94 134.06 Z M 133.92 133.82 L 134.90 133.57 C 135.74 133.35 136.25 132.50 136.04 131.66 C 135.82 130.82 134.97 130.31 134.13 130.53 L 133.14 130.78 C 132.30 130.99 131.79 131.85 132.00 132.69 C 132.22 133.53 133.08 134.04 133.92 133.82 Z M 134.92 133.57 L 135.89 133.31 C 136.73 133.08 137.23 132.22 137.00 131.38 C 136.78 130.54 135.91 130.04 135.07 130.27 L 134.11 130.53 C 133.27 130.75 132.77 131.62 132.99 132.46 C 133.22 133.30 134.08 133.79 134.92 133.57 Z M 135.91 133.30 L 136.85 133.04 C 137.69 132.80 138.18 131.93 137.94 131.09 C 137.71 130.26 136.84 129.77 136.00 130.00 L 135.05 130.27 C 134.22 130.51 133.73 131.38 133.97 132.21 C 134.20 133.05 135.07 133.54 135.91 133.30 Z M 136.87 133.03 L 137.83 132.75 C 138.67 132.51 139.15 131.63 138.91 130.80 C 138.66 129.96 137.79 129.48 136.95 129.73 L 135.99 130.01 C 135.15 130.25 134.67 131.13 134.91 131.96 C 135.16 132.80 136.03 133.28 136.87 133.03 Z M 137.84 132.75 L 138.83 132.46 C 139.66 132.21 140.14 131.33 139.89 130.49 C 139.64 129.66 138.76 129.19 137.93 129.43 L 136.94 129.73 C 136.11 129.98 135.63 130.86 135.88 131.69 C 136.13 132.52 137.01 133.00 137.84 132.75 Z M 138.84 132.45 L 139.76 132.17 C 140.60 131.92 141.07 131.04 140.81 130.20 C 140.56 129.37 139.68 128.90 138.85 129.15 L 137.92 129.44 C 137.09 129.69 136.62 130.57 136.87 131.40 C 137.12 132.24 138.00 132.71 138.84 132.45 Z M 139.77 132.17 L 140.71 131.88 C 141.54 131.62 142.01 130.74 141.75 129.91 C 141.49 129.07 140.61 128.61 139.78 128.87 L 138.84 129.16 C 138.01 129.41 137.54 130.30 137.80 131.13 C 138.06 131.96 138.94 132.43 139.77 132.17 Z M 140.72 131.87 L 141.69 131.57 C 142.52 131.31 142.97 130.42 142.71 129.59 C 142.45 128.76 141.56 128.30 140.73 128.56 L 139.77 128.87 C 138.94 129.13 138.48 130.02 138.74 130.85 C 139.01 131.68 139.89 132.14 140.72 131.87 Z M 141.70 131.57 L 142.69 131.24 C 143.51 130.97 143.97 130.08 143.70 129.25 C 143.43 128.43 142.54 127.98 141.71 128.25 L 140.72 128.57 C 139.89 128.84 139.44 129.73 139.71 130.56 C 139.98 131.38 140.87 131.84 141.70 131.57 Z M 142.70 131.24 L 143.64 130.92 C 144.47 130.64 144.91 129.75 144.63 128.92 C 144.36 128.10 143.46 127.66 142.64 127.93 L 141.69 128.25 C 140.87 128.53 140.43 129.42 140.70 130.25 C 140.98 131.07 141.87 131.52 142.70 131.24 Z M 143.65 130.92 L 144.61 130.59 C 145.43 130.30 145.87 129.40 145.58 128.58 C 145.30 127.76 144.40 127.32 143.58 127.61 L 142.62 127.94 C 141.80 128.22 141.37 129.12 141.65 129.94 C 141.93 130.76 142.83 131.20 143.65 130.92 Z M 144.62 130.58 L 145.57 130.24 C 146.39 129.95 146.82 129.05 146.53 128.23 C 146.24 127.41 145.34 126.98 144.52 127.27 L 143.57 127.61 C 142.75 127.90 142.32 128.80 142.61 129.62 C 142.90 130.44 143.80 130.87 144.62 130.58 Z M 145.58 130.24 L 146.52 129.90 C 147.33 129.60 147.76 128.70 147.46 127.88 C 147.16 127.06 146.25 126.64 145.44 126.94 L 144.50 127.28 C 143.69 127.58 143.27 128.48 143.56 129.30 C 143.86 130.12 144.77 130.54 145.58 130.24 Z M 146.53 129.89 L 147.48 129.54 C 148.30 129.23 148.71 128.32 148.40 127.51 C 148.10 126.69 147.19 126.28 146.38 126.59 L 145.42 126.94 C 144.61 127.25 144.20 128.16 144.50 128.97 C 144.81 129.79 145.72 130.20 146.53 129.89 Z M 147.50 129.53 L 148.43 129.17 C 149.24 128.86 149.65 127.95 149.33 127.13 C 149.02 126.32 148.11 125.92 147.30 126.23 L 146.36 126.59 C 145.55 126.91 145.15 127.82 145.46 128.63 C 145.77 129.44 146.68 129.85 147.50 129.53 Z M 148.45 129.16 L 149.37 128.80 C 150.17 128.48 150.57 127.56 150.25 126.75 C 149.92 125.95 149.01 125.55 148.20 125.87 L 147.28 126.24 C 146.47 126.56 146.08 127.47 146.40 128.28 C 146.72 129.09 147.64 129.49 148.45 129.16 Z M 149.38 128.79 L 150.29 128.42 C 151.10 128.09 151.48 127.17 151.15 126.37 C 150.83 125.56 149.91 125.18 149.10 125.50 L 148.19 125.88 C 147.38 126.21 147.00 127.13 147.33 127.93 C 147.65 128.74 148.57 129.12 149.38 128.79 Z M 150.31 128.41 L 151.21 128.03 C 152.02 127.70 152.39 126.77 152.06 125.97 C 151.72 125.17 150.80 124.79 150.00 125.13 L 149.09 125.51 C 148.29 125.85 147.91 126.77 148.25 127.57 C 148.58 128.37 149.50 128.75 150.31 128.41 Z M 151.23 128.02 L 152.14 127.63 C 152.94 127.29 153.31 126.37 152.96 125.57 C 152.62 124.77 151.70 124.40 150.90 124.74 L 149.99 125.14 C 149.19 125.48 148.82 126.40 149.16 127.20 C 149.51 128.00 150.43 128.37 151.23 128.02 Z M 152.15 127.62 L 153.07 127.22 C 153.86 126.87 154.22 125.94 153.88 125.15 C 153.53 124.36 152.60 124.00 151.81 124.35 L 150.89 124.75 C 150.10 125.10 149.74 126.03 150.09 126.82 C 150.43 127.61 151.36 127.97 152.15 127.62 Z M 153.08 127.21 L 154.01 126.79 C 154.79 126.44 155.14 125.51 154.79 124.72 C 154.43 123.94 153.51 123.58 152.72 123.94 L 151.80 124.36 C 151.01 124.71 150.66 125.64 151.01 126.43 C 151.37 127.22 152.30 127.57 153.08 127.21 Z M 154.02 126.79 L 154.92 126.37 C 155.70 126.01 156.04 125.08 155.68 124.29 C 155.32 123.51 154.39 123.17 153.61 123.53 L 152.71 123.95 C 151.92 124.31 151.58 125.24 151.94 126.02 C 152.31 126.81 153.23 127.15 154.02 126.79 Z M 154.93 126.36 L 155.83 125.94 C 156.61 125.58 156.94 124.65 156.58 123.86 C 156.21 123.08 155.28 122.75 154.50 123.11 L 153.60 123.54 C 152.82 123.90 152.48 124.83 152.85 125.62 C 153.22 126.40 154.15 126.73 154.93 126.36 Z M 155.83 125.94 L 156.73 125.51 C 157.51 125.14 157.85 124.21 157.48 123.43 C 157.11 122.66 156.18 122.32 155.40 122.69 L 154.50 123.12 C 153.72 123.49 153.38 124.42 153.75 125.20 C 154.12 125.97 155.05 126.31 155.83 125.94 Z M 156.73 125.51 L 157.64 125.08 C 158.42 124.72 158.76 123.79 158.39 123.01 C 158.03 122.23 157.10 121.89 156.32 122.26 L 155.40 122.69 C 154.62 123.06 154.29 123.98 154.66 124.76 C 155.02 125.54 155.95 125.88 156.73 125.51 Z M 157.64 125.09 L 158.54 124.67 C 159.32 124.31 159.66 123.38 159.30 122.60 C 158.94 121.82 158.01 121.48 157.23 121.84 L 156.33 122.26 C 155.55 122.62 155.21 123.54 155.57 124.33 C 155.93 125.11 156.85 125.45 157.64 125.09 Z M 158.53 124.67 L 159.43 124.26 C 160.21 123.91 160.56 122.98 160.20 122.20 C 159.85 121.42 158.92 121.07 158.14 121.43 L 157.24 121.84 C 156.46 122.19 156.11 123.12 156.47 123.90 C 156.82 124.68 157.74 125.03 158.53 124.67 Z M 159.42 124.26 L 160.34 123.86 C 161.12 123.51 161.47 122.59 161.12 121.80 C 160.77 121.02 159.85 120.66 159.07 121.01 L 158.15 121.42 C 157.37 121.77 157.01 122.69 157.37 123.48 C 157.72 124.26 158.64 124.62 159.42 124.26 Z M 160.33 123.86 L 161.25 123.45 C 162.04 123.11 162.39 122.19 162.05 121.40 C 161.70 120.62 160.79 120.26 160.00 120.61 L 159.08 121.01 C 158.29 121.36 157.93 122.27 158.28 123.06 C 158.62 123.85 159.54 124.20 160.33 123.86 Z M 161.24 123.46 L 162.16 123.06 C 162.95 122.72 163.31 121.80 162.97 121.02 C 162.63 120.23 161.72 119.86 160.93 120.20 L 160.01 120.60 C 159.22 120.94 158.86 121.86 159.20 122.65 C 159.54 123.43 160.45 123.80 161.24 123.46 Z M 162.15 123.06 L 163.07 122.67 C 163.86 122.34 164.22 121.42 163.89 120.64 C 163.55 119.85 162.64 119.48 161.85 119.81 L 160.94 120.20 C 160.15 120.54 159.78 121.45 160.12 122.24 C 160.45 123.03 161.36 123.40 162.15 123.06 Z M 163.06 122.67 L 163.98 122.29 C 164.77 121.96 165.14 121.05 164.81 120.26 C 164.48 119.47 163.57 119.10 162.78 119.43 L 161.86 119.81 C 161.07 120.14 160.70 121.05 161.03 121.84 C 161.36 122.63 162.27 123.00 163.06 122.67 Z M 163.97 122.29 L 164.90 121.90 C 165.69 121.58 166.06 120.67 165.74 119.88 C 165.41 119.09 164.50 118.71 163.71 119.04 L 162.79 119.43 C 162.00 119.75 161.62 120.66 161.95 121.45 C 162.28 122.24 163.18 122.62 163.97 122.29 Z M 164.89 121.90 L 165.83 121.52 C 166.62 121.20 167.00 120.29 166.67 119.50 C 166.35 118.71 165.45 118.33 164.65 118.66 L 163.72 119.04 C 162.93 119.37 162.55 120.27 162.88 121.06 C 163.20 121.85 164.10 122.23 164.89 121.90 Z M 165.82 121.52 L 166.78 121.13 C 167.57 120.81 167.95 119.91 167.63 119.12 C 167.31 118.33 166.41 117.95 165.62 118.27 L 164.66 118.66 C 163.87 118.98 163.49 119.88 163.81 120.67 C 164.13 121.46 165.03 121.84 165.82 121.52 Z M 166.78 121.13 L 167.73 120.74 C 168.52 120.43 168.90 119.53 168.58 118.74 C 168.26 117.95 167.36 117.57 166.58 117.89 L 165.62 118.27 C 164.83 118.59 164.45 119.49 164.77 120.28 C 165.09 121.07 165.99 121.45 166.78 121.13 Z M 167.72 120.74 L 168.65 120.37 C 169.44 120.06 169.83 119.16 169.51 118.37 C 169.20 117.58 168.30 117.20 167.51 117.51 L 166.58 117.89 C 165.79 118.20 165.41 119.10 165.72 119.89 C 166.04 120.68 166.93 121.06 167.72 120.74 Z M 168.65 120.37 L 169.54 120.01 C 170.33 119.70 170.72 118.81 170.40 118.02 C 170.09 117.23 169.20 116.85 168.41 117.16 L 167.51 117.51 C 166.73 117.83 166.34 118.72 166.65 119.51 C 166.97 120.30 167.86 120.68 168.65 120.37 Z M 169.54 120.01 L 170.51 119.63 C 171.30 119.32 171.69 118.43 171.37 117.64 C 171.06 116.85 170.17 116.47 169.39 116.78 L 168.41 117.16 C 167.63 117.47 167.24 118.36 167.55 119.15 C 167.86 119.94 168.75 120.32 169.54 120.01 Z M 170.50 119.63 L 171.47 119.25 C 172.26 118.95 172.65 118.06 172.34 117.27 C 172.03 116.48 171.15 116.09 170.36 116.40 L 169.39 116.78 C 168.61 117.08 168.22 117.97 168.52 118.76 C 168.83 119.55 169.72 119.94 170.50 119.63 Z M 171.46 119.25 L 172.36 118.91 C 173.15 118.61 173.54 117.72 173.24 116.94 C 172.94 116.15 172.06 115.75 171.27 116.06 L 170.37 116.40 C 169.58 116.70 169.19 117.58 169.49 118.37 C 169.79 119.16 170.67 119.55 171.46 119.25 Z M 172.35 118.91 L 173.23 118.58 C 174.02 118.29 174.42 117.41 174.13 116.62 C 173.83 115.83 172.95 115.43 172.17 115.73 L 171.29 116.05 C 170.50 116.35 170.09 117.23 170.39 118.01 C 170.68 118.80 171.56 119.20 172.35 118.91 Z M 173.21 118.59 L 174.20 118.23 C 174.99 117.95 175.40 117.08 175.11 116.28 C 174.83 115.49 173.96 115.08 173.17 115.37 L 172.18 115.72 C 171.39 116.01 170.98 116.88 171.27 117.67 C 171.55 118.46 172.42 118.87 173.21 118.59 Z M 174.18 118.24 L 175.11 117.91 C 175.91 117.63 176.32 116.77 176.05 115.97 C 175.77 115.18 174.90 114.76 174.11 115.04 L 173.18 115.36 C 172.39 115.64 171.97 116.51 172.25 117.30 C 172.52 118.09 173.39 118.51 174.18 118.24 Z M 175.10 117.91 L 176.00 117.61 C 176.80 117.34 177.22 116.47 176.95 115.68 C 176.68 114.88 175.82 114.46 175.03 114.73 L 174.12 115.04 C 173.33 115.31 172.90 116.17 173.17 116.96 C 173.44 117.76 174.31 118.18 175.10 117.91 Z M 175.99 117.61 L 176.92 117.30 C 177.71 117.04 178.15 116.18 177.88 115.38 C 177.62 114.59 176.76 114.16 175.97 114.42 L 175.04 114.73 C 174.24 114.99 173.81 115.85 174.07 116.64 C 174.34 117.44 175.20 117.87 175.99 117.61 Z M 176.90 117.31 L 177.85 117.01 C 178.65 116.76 179.10 115.91 178.85 115.11 C 178.60 114.31 177.75 113.86 176.95 114.11 L 175.99 114.42 C 175.19 114.67 174.75 115.52 175.00 116.31 C 175.25 117.11 176.10 117.56 176.90 117.31 Z M 177.83 117.01 L 178.80 116.73 C 179.60 116.50 180.06 115.66 179.82 114.85 C 179.59 114.05 178.75 113.59 177.95 113.82 L 176.98 114.11 C 176.17 114.34 175.71 115.18 175.95 115.99 C 176.18 116.79 177.02 117.25 177.83 117.01 Z M 178.76 116.74 L 179.75 116.47 C 180.56 116.26 181.03 115.43 180.82 114.62 C 180.60 113.82 179.77 113.34 178.97 113.55 L 177.98 113.82 C 177.18 114.03 176.70 114.86 176.91 115.67 C 177.13 116.47 177.96 116.95 178.76 116.74 Z M 179.70 116.48 L 180.68 116.25 C 181.49 116.06 181.99 115.25 181.80 114.44 C 181.61 113.63 180.80 113.12 179.99 113.31 L 179.01 113.54 C 178.20 113.73 177.70 114.55 177.89 115.36 C 178.08 116.17 178.89 116.67 179.70 116.48 Z M 180.59 116.27 L 181.74 116.07 C 182.56 115.93 183.11 115.15 182.97 114.33 C 182.83 113.51 182.05 112.96 181.23 113.10 L 180.08 113.30 C 179.26 113.44 178.71 114.22 178.85 115.04 C 178.99 115.86 179.77 116.41 180.59 116.27 Z M 181.42 116.08 L 182.35 116.12 C 183.18 116.15 183.87 115.51 183.91 114.68 C 183.94 113.86 183.30 113.16 182.47 113.13 L 181.55 113.09 C 180.72 113.05 180.02 113.70 179.99 114.52 C 179.95 115.35 180.60 116.05 181.42 116.08 Z M 181.14 115.38 L 181.48 115.96 C 181.90 116.66 182.81 116.89 183.51 116.47 C 184.22 116.05 184.45 115.14 184.03 114.43 L 183.68 113.86 C 183.26 113.16 182.35 112.93 181.65 113.35 C 180.94 113.77 180.71 114.68 181.14 115.38 Z M 181.39 114.65 L 180.98 115.68 C 180.68 116.43 181.04 117.29 181.79 117.59 C 182.54 117.89 183.40 117.52 183.70 116.77 L 184.11 115.74 C 184.41 114.99 184.05 114.14 183.30 113.84 C 182.55 113.54 181.69 113.90 181.39 114.65 Z M 181.19 115.34 L 180.61 116.10 C 180.12 116.73 180.23 117.64 180.87 118.13 C 181.50 118.62 182.41 118.50 182.90 117.87 L 183.48 117.11 C 183.97 116.48 183.86 115.57 183.22 115.08 C 182.59 114.59 181.68 114.71 181.19 115.34 Z M 180.71 116.00 L 180.00 116.74 C 179.46 117.31 179.48 118.22 180.05 118.77 C 180.62 119.32 181.53 119.29 182.08 118.72 L 182.79 117.98 C 183.34 117.40 183.32 116.50 182.74 115.95 C 182.17 115.40 181.26 115.42 180.71 116.00 Z M 180.03 116.72 L 179.84 116.92 C 179.28 117.47 179.28 118.38 179.84 118.93 C 180.39 119.49 181.30 119.49 181.85 118.94 L 182.05 118.74 C 182.61 118.18 182.61 117.28 182.05 116.72 C 181.50 116.16 180.59 116.16 180.03 116.72 Z"
      fill="black"
      fill-rule="nonzero" /><path d="M 110.32 198.55 L 110.35 197.49 C 110.37 196.69 109.74 196.02 108.94 196.00 C 108.14 195.97 107.47 196.60 107.45 197.40 L 107.42 198.47 C 107.40 199.27 108.03 199.93 108.83 199.96 C 109.63 199.98 110.29 199.35 110.32 198.55 Z M 110.36 197.52 L 110.41 196.51 C 110.45 195.71 109.83 195.02 109.02 194.98 C 108.21 194.94 107.53 195.56 107.49 196.37 L 107.44 197.37 C 107.40 198.18 108.02 198.86 108.83 198.90 C 109.63 198.94 110.32 198.32 110.36 197.52 Z M 110.41 196.59 L 110.51 195.61 C 110.60 194.80 110.01 194.08 109.20 193.99 C 108.39 193.91 107.67 194.50 107.59 195.31 L 107.48 196.29 C 107.40 197.10 107.99 197.82 108.80 197.91 C 109.60 197.99 110.33 197.40 110.41 196.59 Z M 110.49 195.83 L 110.74 194.84 C 110.94 194.05 110.47 193.24 109.67 193.03 C 108.88 192.83 108.07 193.31 107.87 194.10 L 107.61 195.09 C 107.41 195.88 107.89 196.69 108.68 196.89 C 109.47 197.10 110.28 196.62 110.49 195.83 Z M 110.55 195.29 L 111.04 194.56 C 111.49 193.87 111.30 192.94 110.61 192.49 C 109.92 192.03 109.00 192.22 108.54 192.91 L 108.06 193.65 C 107.60 194.34 107.79 195.26 108.48 195.72 C 109.17 196.17 110.10 195.98 110.55 195.29 Z M 110.60 195.01 L 111.43 194.48 C 112.14 194.03 112.35 193.10 111.90 192.40 C 111.45 191.69 110.52 191.49 109.82 191.93 L 108.98 192.46 C 108.28 192.91 108.07 193.84 108.52 194.54 C 108.96 195.24 109.89 195.45 110.60 195.01 Z M 111.09 194.65 L 112.06 194.34 C 112.86 194.08 113.30 193.23 113.05 192.43 C 112.79 191.63 111.94 191.19 111.14 191.45 L 110.17 191.76 C 109.37 192.01 108.93 192.87 109.18 193.67 C 109.44 194.46 110.29 194.90 111.09 194.65 Z M 111.91 194.39 L 112.91 194.18 C 113.74 194.01 114.27 193.20 114.10 192.37 C 113.93 191.55 113.12 191.02 112.29 191.19 L 111.29 191.40 C 110.46 191.57 109.93 192.38 110.10 193.20 C 110.28 194.03 111.08 194.56 111.91 194.39 Z M 112.83 194.20 L 113.84 194.05 C 114.68 193.93 115.26 193.15 115.14 192.31 C 115.01 191.47 114.23 190.89 113.39 191.02 L 112.38 191.17 C 111.54 191.29 110.96 192.07 111.09 192.91 C 111.21 193.75 111.99 194.33 112.83 194.20 Z M 113.78 194.06 L 114.74 193.96 C 115.58 193.87 116.20 193.11 116.11 192.27 C 116.02 191.43 115.26 190.81 114.42 190.90 L 113.46 191.01 C 112.61 191.09 112.00 191.85 112.09 192.70 C 112.18 193.54 112.94 194.15 113.78 194.06 Z M 114.72 193.97 L 115.68 193.88 C 116.53 193.80 117.15 193.05 117.07 192.20 C 116.99 191.36 116.24 190.73 115.40 190.81 L 114.44 190.90 C 113.59 190.98 112.97 191.73 113.04 192.57 C 113.12 193.42 113.87 194.04 114.72 193.97 Z M 115.67 193.88 L 116.70 193.79 C 117.54 193.72 118.17 192.97 118.10 192.12 C 118.03 191.28 117.28 190.65 116.43 190.72 L 115.41 190.81 C 114.56 190.88 113.93 191.63 114.00 192.48 C 114.07 193.32 114.82 193.95 115.67 193.88 Z M 116.69 193.80 L 117.66 193.72 C 118.51 193.65 119.14 192.91 119.08 192.06 C 119.01 191.20 118.26 190.57 117.41 190.64 L 116.44 190.71 C 115.59 190.78 114.95 191.53 115.02 192.38 C 115.09 193.23 115.84 193.87 116.69 193.80 Z M 117.67 193.72 L 118.70 193.63 C 119.55 193.56 120.18 192.80 120.10 191.95 C 120.02 191.09 119.27 190.47 118.42 190.54 L 117.40 190.63 C 116.54 190.71 115.91 191.46 115.99 192.32 C 116.07 193.17 116.82 193.80 117.67 193.72 Z M 118.73 193.63 L 119.70 193.53 C 120.55 193.43 121.17 192.66 121.07 191.81 C 120.97 190.95 120.20 190.34 119.35 190.43 L 118.38 190.54 C 117.53 190.64 116.91 191.41 117.01 192.26 C 117.11 193.11 117.88 193.73 118.73 193.63 Z M 119.73 193.53 L 120.73 193.40 C 121.59 193.28 122.19 192.50 122.08 191.64 C 121.97 190.79 121.18 190.18 120.32 190.30 L 119.32 190.43 C 118.46 190.54 117.86 191.33 117.97 192.18 C 118.09 193.04 118.87 193.64 119.73 193.53 Z M 120.75 193.40 L 121.73 193.26 C 122.58 193.14 123.18 192.34 123.05 191.48 C 122.93 190.62 122.13 190.03 121.27 190.15 L 120.30 190.29 C 119.44 190.42 118.85 191.21 118.97 192.07 C 119.10 192.93 119.90 193.53 120.75 193.40 Z M 121.74 193.27 L 122.72 193.11 C 123.58 192.98 124.17 192.17 124.03 191.31 C 123.90 190.45 123.09 189.86 122.23 189.99 L 121.26 190.15 C 120.40 190.28 119.81 191.09 119.94 191.95 C 120.07 192.81 120.88 193.40 121.74 193.27 Z M 122.73 193.12 L 123.76 192.95 C 124.63 192.81 125.22 192.00 125.08 191.13 C 124.94 190.26 124.12 189.68 123.25 189.82 L 122.22 189.99 C 121.35 190.13 120.77 190.94 120.91 191.81 C 121.05 192.68 121.86 193.26 122.73 193.12 Z M 123.77 192.96 L 124.73 192.80 C 125.60 192.65 126.19 191.83 126.04 190.96 C 125.89 190.09 125.07 189.50 124.20 189.65 L 123.24 189.81 C 122.37 189.96 121.79 190.78 121.94 191.65 C 122.08 192.52 122.91 193.11 123.77 192.96 Z M 124.75 192.80 L 125.74 192.62 C 126.61 192.47 127.19 191.63 127.04 190.76 C 126.88 189.89 126.05 189.31 125.18 189.47 L 124.19 189.65 C 123.31 189.80 122.73 190.64 122.89 191.51 C 123.05 192.38 123.88 192.96 124.75 192.80 Z M 125.77 192.62 L 126.77 192.43 C 127.64 192.26 128.21 191.42 128.04 190.54 C 127.87 189.67 127.02 189.10 126.15 189.27 L 125.15 189.47 C 124.28 189.64 123.71 190.48 123.88 191.35 C 124.05 192.23 124.90 192.79 125.77 192.62 Z M 126.80 192.43 L 127.77 192.22 C 128.64 192.03 129.20 191.18 129.01 190.30 C 128.82 189.43 127.96 188.88 127.09 189.06 L 126.12 189.27 C 125.25 189.46 124.69 190.32 124.88 191.19 C 125.07 192.06 125.93 192.62 126.80 192.43 Z M 127.79 192.22 L 128.76 192.00 C 129.63 191.80 130.18 190.93 129.98 190.06 C 129.78 189.19 128.91 188.64 128.04 188.84 L 127.07 189.06 C 126.20 189.26 125.65 190.13 125.85 191.01 C 126.05 191.88 126.92 192.42 127.79 192.22 Z M 128.77 192.00 L 129.76 191.77 C 130.63 191.56 131.17 190.69 130.97 189.81 C 130.76 188.94 129.88 188.40 129.01 188.61 L 128.02 188.84 C 127.15 189.05 126.61 189.92 126.82 190.79 C 127.02 191.67 127.90 192.21 128.77 192.00 Z M 129.76 191.77 L 130.70 191.55 C 131.57 191.34 132.11 190.46 131.91 189.59 C 131.70 188.71 130.82 188.17 129.94 188.38 L 129.01 188.60 C 128.13 188.81 127.59 189.69 127.80 190.56 C 128.01 191.44 128.88 191.98 129.76 191.77 Z M 130.70 191.55 L 131.66 191.32 C 132.54 191.11 133.08 190.23 132.87 189.35 C 132.66 188.47 131.77 187.93 130.89 188.14 L 129.93 188.38 C 129.06 188.59 128.52 189.47 128.73 190.35 C 128.94 191.23 129.83 191.77 130.70 191.55 Z M 131.68 191.32 L 132.68 191.07 C 133.55 190.85 134.09 189.96 133.87 189.08 C 133.64 188.20 132.75 187.67 131.87 187.89 L 130.88 188.14 C 130.00 188.36 129.47 189.25 129.69 190.13 C 129.91 191.01 130.80 191.54 131.68 191.32 Z M 132.70 191.07 L 133.66 190.81 C 134.54 190.58 135.06 189.68 134.82 188.80 C 134.59 187.93 133.69 187.40 132.81 187.64 L 131.85 187.89 C 130.98 188.13 130.45 189.03 130.69 189.90 C 130.92 190.78 131.82 191.30 132.70 191.07 Z M 133.68 190.81 L 134.61 190.55 C 135.49 190.31 136.00 189.40 135.76 188.53 C 135.51 187.65 134.61 187.14 133.73 187.38 L 132.80 187.64 C 131.92 187.88 131.41 188.79 131.65 189.67 C 131.90 190.54 132.80 191.05 133.68 190.81 Z M 134.62 190.55 L 135.59 190.27 C 136.46 190.02 136.97 189.12 136.72 188.24 C 136.47 187.37 135.56 186.86 134.69 187.11 L 133.72 187.38 C 132.85 187.63 132.34 188.54 132.59 189.41 C 132.84 190.29 133.75 190.80 134.62 190.55 Z M 135.59 190.27 L 136.59 189.99 C 137.46 189.74 137.97 188.83 137.72 187.96 C 137.47 187.08 136.56 186.58 135.69 186.83 L 134.69 187.11 C 133.82 187.36 133.31 188.27 133.56 189.14 C 133.81 190.02 134.72 190.52 135.59 190.27 Z M 136.58 189.99 L 137.54 189.72 C 138.41 189.47 138.92 188.56 138.67 187.69 C 138.43 186.82 137.52 186.31 136.64 186.55 L 135.69 186.82 C 134.82 187.07 134.31 187.98 134.56 188.85 C 134.80 189.73 135.71 190.24 136.58 189.99 Z M 137.54 189.72 L 138.49 189.45 C 139.36 189.20 139.87 188.29 139.62 187.42 C 139.38 186.55 138.47 186.04 137.59 186.28 L 136.64 186.55 C 135.77 186.80 135.26 187.71 135.51 188.59 C 135.76 189.46 136.67 189.97 137.54 189.72 Z M 138.50 189.45 L 139.46 189.17 C 140.34 188.92 140.84 188.00 140.59 187.13 C 140.33 186.26 139.42 185.75 138.55 186.01 L 137.58 186.29 C 136.71 186.54 136.20 187.45 136.46 188.33 C 136.71 189.20 137.62 189.70 138.50 189.45 Z M 139.48 189.17 L 140.46 188.87 C 141.33 188.61 141.82 187.69 141.56 186.82 C 141.30 185.95 140.38 185.45 139.50 185.72 L 138.53 186.01 C 137.66 186.27 137.16 187.19 137.42 188.07 C 137.69 188.94 138.61 189.43 139.48 189.17 Z M 140.48 188.87 L 141.44 188.56 C 142.31 188.28 142.78 187.36 142.51 186.49 C 142.23 185.62 141.30 185.14 140.43 185.42 L 139.48 185.72 C 138.61 186.00 138.13 186.93 138.41 187.80 C 138.68 188.67 139.61 189.14 140.48 188.87 Z M 141.46 188.55 L 142.39 188.24 C 143.25 187.95 143.72 187.01 143.42 186.15 C 143.13 185.29 142.20 184.82 141.33 185.11 L 140.41 185.43 C 139.54 185.72 139.08 186.65 139.37 187.52 C 139.66 188.38 140.60 188.84 141.46 188.55 Z M 142.41 188.23 L 143.34 187.90 C 144.20 187.60 144.65 186.66 144.35 185.80 C 144.05 184.94 143.11 184.49 142.25 184.79 L 141.31 185.12 C 140.45 185.42 140.00 186.37 140.31 187.22 C 140.61 188.08 141.55 188.53 142.41 188.23 Z M 143.36 187.90 L 144.31 187.55 C 145.16 187.24 145.60 186.30 145.29 185.44 C 144.98 184.58 144.04 184.14 143.18 184.45 L 142.23 184.80 C 141.38 185.11 140.94 186.05 141.25 186.91 C 141.56 187.77 142.50 188.21 143.36 187.90 Z M 144.32 187.55 L 145.28 187.19 C 146.14 186.87 146.57 185.93 146.26 185.07 C 145.94 184.22 144.99 183.78 144.14 184.10 L 143.17 184.46 C 142.32 184.77 141.88 185.72 142.20 186.57 C 142.52 187.43 143.46 187.86 144.32 187.55 Z M 145.29 187.19 L 146.23 186.83 C 147.08 186.52 147.52 185.57 147.20 184.72 C 146.88 183.86 145.93 183.43 145.08 183.75 L 144.13 184.10 C 143.28 184.42 142.85 185.37 143.17 186.22 C 143.49 187.07 144.44 187.51 145.29 187.19 Z M 146.24 186.83 L 147.19 186.47 C 148.04 186.15 148.46 185.20 148.14 184.35 C 147.82 183.50 146.87 183.07 146.02 183.39 L 145.07 183.75 C 144.22 184.08 143.79 185.03 144.12 185.88 C 144.44 186.73 145.39 187.15 146.24 186.83 Z M 147.20 186.47 L 148.14 186.10 C 148.99 185.78 149.41 184.82 149.08 183.97 C 148.75 183.13 147.80 182.70 146.95 183.03 L 146.01 183.40 C 145.16 183.73 144.74 184.68 145.07 185.53 C 145.39 186.37 146.35 186.80 147.20 186.47 Z M 148.15 186.10 L 149.08 185.73 C 149.92 185.39 150.34 184.44 150.00 183.59 C 149.67 182.75 148.71 182.33 147.86 182.67 L 146.94 183.04 C 146.09 183.37 145.68 184.33 146.02 185.18 C 146.35 186.02 147.31 186.43 148.15 186.10 Z M 149.10 185.72 L 150.01 185.35 C 150.85 185.00 151.25 184.04 150.90 183.20 C 150.56 182.36 149.59 181.96 148.75 182.30 L 147.85 182.68 C 147.01 183.02 146.60 183.99 146.95 184.83 C 147.30 185.67 148.26 186.07 149.10 185.72 Z M 150.03 185.34 L 150.98 184.93 C 151.81 184.57 152.20 183.60 151.84 182.77 C 151.48 181.94 150.52 181.55 149.68 181.91 L 148.73 182.32 C 147.90 182.67 147.51 183.64 147.87 184.47 C 148.23 185.31 149.19 185.70 150.03 185.34 Z M 151.00 184.92 L 151.92 184.51 C 152.74 184.14 153.12 183.17 152.75 182.34 C 152.38 181.51 151.41 181.14 150.58 181.51 L 149.66 181.92 C 148.84 182.29 148.46 183.26 148.83 184.08 C 149.20 184.91 150.17 185.29 151.00 184.92 Z M 151.93 184.50 L 152.82 184.09 C 153.65 183.72 154.01 182.75 153.64 181.92 C 153.26 181.10 152.29 180.74 151.46 181.11 L 150.57 181.52 C 149.74 181.89 149.38 182.87 149.76 183.69 C 150.13 184.51 151.10 184.88 151.93 184.50 Z M 152.83 184.09 L 153.71 183.68 C 154.54 183.30 154.90 182.33 154.52 181.51 C 154.14 180.69 153.17 180.33 152.35 180.71 L 151.46 181.12 C 150.64 181.49 150.28 182.47 150.66 183.29 C 151.03 184.11 152.01 184.47 152.83 184.09 Z M 153.71 183.68 L 154.60 183.27 C 155.42 182.89 155.78 181.92 155.41 181.10 C 155.03 180.28 154.06 179.92 153.24 180.30 L 152.35 180.71 C 151.53 181.09 151.17 182.06 151.55 182.88 C 151.92 183.70 152.89 184.06 153.71 183.68 Z M 154.60 183.27 L 155.50 182.86 C 156.32 182.48 156.68 181.51 156.31 180.70 C 155.93 179.88 154.96 179.52 154.14 179.89 L 153.24 180.30 C 152.42 180.68 152.06 181.64 152.44 182.46 C 152.81 183.28 153.78 183.64 154.60 183.27 Z M 155.50 182.86 L 156.41 182.44 C 157.23 182.07 157.59 181.10 157.21 180.28 C 156.84 179.46 155.87 179.10 155.05 179.48 L 154.14 179.89 C 153.33 180.27 152.97 181.23 153.34 182.05 C 153.71 182.87 154.68 183.23 155.50 182.86 Z M 156.41 182.44 L 157.33 182.02 C 158.14 181.64 158.50 180.68 158.13 179.86 C 157.76 179.04 156.79 178.69 155.98 179.06 L 155.06 179.48 C 154.24 179.85 153.88 180.82 154.25 181.63 C 154.63 182.45 155.59 182.81 156.41 182.44 Z M 157.33 182.01 L 158.24 181.59 C 159.05 181.22 159.41 180.26 159.04 179.44 C 158.66 178.63 157.70 178.27 156.89 178.64 L 155.97 179.06 C 155.16 179.44 154.80 180.40 155.18 181.21 C 155.55 182.03 156.51 182.39 157.33 182.01 Z M 158.24 181.59 L 159.13 181.18 C 159.95 180.81 160.30 179.84 159.93 179.03 C 159.56 178.22 158.59 177.86 157.78 178.24 L 156.89 178.65 C 156.07 179.02 155.72 179.98 156.09 180.80 C 156.46 181.61 157.43 181.96 158.24 181.59 Z M 159.13 181.18 L 160.04 180.76 C 160.85 180.39 161.21 179.43 160.83 178.62 C 160.46 177.81 159.50 177.45 158.69 177.82 L 157.79 178.24 C 156.97 178.61 156.62 179.57 156.99 180.38 C 157.36 181.19 158.32 181.55 159.13 181.18 Z M 160.03 180.76 L 160.95 180.34 C 161.76 179.98 162.12 179.02 161.75 178.21 C 161.38 177.40 160.43 177.04 159.62 177.41 L 158.70 177.82 C 157.89 178.19 157.53 179.15 157.90 179.96 C 158.26 180.77 159.22 181.13 160.03 180.76 Z M 160.94 180.35 L 161.87 179.93 C 162.68 179.57 163.04 178.62 162.68 177.81 C 162.32 177.00 161.37 176.63 160.56 176.99 L 159.63 177.41 C 158.82 177.77 158.45 178.72 158.81 179.53 C 159.18 180.34 160.13 180.71 160.94 180.35 Z M 161.85 179.93 L 162.78 179.53 C 163.59 179.17 163.96 178.23 163.60 177.42 C 163.25 176.60 162.30 176.23 161.49 176.59 L 160.57 176.99 C 159.76 177.35 159.39 178.29 159.74 179.11 C 160.10 179.92 161.04 180.29 161.85 179.93 Z M 162.76 179.53 L 163.69 179.13 C 164.50 178.78 164.87 177.84 164.53 177.03 C 164.18 176.22 163.24 175.84 162.42 176.19 L 161.50 176.59 C 160.69 176.94 160.31 177.88 160.66 178.69 C 161.01 179.50 161.95 179.88 162.76 179.53 Z M 163.68 179.13 L 164.60 178.74 C 165.42 178.39 165.79 177.46 165.45 176.65 C 165.11 175.83 164.17 175.46 163.36 175.80 L 162.43 176.19 C 161.62 176.54 161.24 177.47 161.59 178.28 C 161.93 179.10 162.87 179.47 163.68 179.13 Z M 164.60 178.74 L 165.52 178.35 C 166.33 178.01 166.71 177.08 166.37 176.27 C 166.03 175.46 165.09 175.08 164.28 175.42 L 163.36 175.80 C 162.55 176.14 162.17 177.08 162.51 177.89 C 162.86 178.70 163.79 179.08 164.60 178.74 Z M 165.51 178.35 L 166.43 177.96 C 167.24 177.62 167.62 176.69 167.28 175.89 C 166.94 175.08 166.01 174.70 165.21 175.04 L 164.29 175.42 C 163.48 175.76 163.10 176.69 163.44 177.49 C 163.78 178.30 164.70 178.68 165.51 178.35 Z M 166.43 177.96 L 167.36 177.57 C 168.17 177.23 168.55 176.31 168.21 175.50 C 167.88 174.69 166.95 174.31 166.15 174.65 L 165.21 175.04 C 164.40 175.37 164.02 176.30 164.36 177.11 C 164.69 177.91 165.62 178.29 166.43 177.96 Z M 167.36 177.57 L 168.28 177.18 C 169.09 176.85 169.47 175.93 169.14 175.12 C 168.80 174.32 167.88 173.93 167.08 174.27 L 166.15 174.65 C 165.35 174.98 164.96 175.91 165.30 176.71 C 165.63 177.52 166.55 177.90 167.36 177.57 Z M 168.27 177.18 L 169.19 176.81 C 170.00 176.48 170.38 175.56 170.06 174.75 C 169.73 173.95 168.81 173.56 168.00 173.89 L 167.08 174.27 C 166.28 174.60 165.90 175.52 166.22 176.32 C 166.55 177.12 167.47 177.51 168.27 177.18 Z M 169.18 176.81 L 170.10 176.44 C 170.91 176.11 171.30 175.20 170.97 174.40 C 170.65 173.59 169.74 173.20 168.93 173.53 L 168.02 173.89 C 167.21 174.22 166.82 175.13 167.14 175.93 C 167.47 176.74 168.38 177.13 169.18 176.81 Z M 170.09 176.44 L 171.05 176.06 C 171.86 175.74 172.25 174.84 171.94 174.03 C 171.62 173.23 170.71 172.83 169.91 173.15 L 168.95 173.52 C 168.14 173.84 167.75 174.75 168.06 175.55 C 168.38 176.36 169.28 176.75 170.09 176.44 Z M 171.04 176.06 L 172.01 175.69 C 172.81 175.38 173.22 174.48 172.91 173.67 C 172.60 172.87 171.70 172.47 170.90 172.78 L 169.92 173.15 C 169.12 173.45 168.72 174.36 169.02 175.16 C 169.33 175.97 170.23 176.37 171.04 176.06 Z M 172.00 175.69 L 172.94 175.33 C 173.75 175.03 174.15 174.14 173.85 173.33 C 173.55 172.53 172.66 172.12 171.85 172.42 L 170.91 172.78 C 170.10 173.08 169.70 173.97 170.00 174.78 C 170.30 175.58 171.19 175.99 172.00 175.69 Z M 172.93 175.33 L 173.83 175.00 C 174.63 174.71 175.05 173.82 174.75 173.01 C 174.45 172.21 173.56 171.80 172.76 172.09 L 171.86 172.42 C 171.06 172.72 170.65 173.61 170.94 174.41 C 171.24 175.22 172.13 175.63 172.93 175.33 Z M 173.82 175.00 L 174.79 174.65 C 175.59 174.36 176.00 173.47 175.71 172.67 C 175.42 171.87 174.54 171.45 173.74 171.74 L 172.77 172.09 C 171.97 172.38 171.55 173.27 171.84 174.07 C 172.13 174.88 173.02 175.29 173.82 175.00 Z M 174.77 174.65 L 175.76 174.30 C 176.56 174.02 176.98 173.14 176.70 172.34 C 176.42 171.54 175.54 171.12 174.74 171.40 L 173.75 171.75 C 172.95 172.03 172.53 172.91 172.81 173.71 C 173.09 174.51 173.97 174.93 174.77 174.65 Z M 175.74 174.30 L 176.64 173.99 C 177.44 173.72 177.87 172.85 177.60 172.05 C 177.33 171.25 176.46 170.82 175.66 171.09 L 174.76 171.40 C 173.95 171.67 173.53 172.54 173.80 173.34 C 174.07 174.14 174.94 174.57 175.74 174.30 Z M 176.62 173.99 L 177.53 173.70 C 178.33 173.44 178.77 172.59 178.51 171.78 C 178.25 170.98 177.39 170.54 176.59 170.80 L 175.68 171.09 C 174.88 171.35 174.44 172.21 174.70 173.01 C 174.95 173.81 175.81 174.25 176.62 173.99 Z M 177.50 173.70 L 178.48 173.41 C 179.28 173.17 179.74 172.32 179.50 171.52 C 179.26 170.72 178.41 170.26 177.61 170.50 L 176.62 170.80 C 175.82 171.04 175.36 171.88 175.60 172.69 C 175.85 173.49 176.69 173.95 177.50 173.70 Z M 178.45 173.41 L 179.38 173.15 C 180.18 172.92 180.65 172.09 180.43 171.29 C 180.20 170.48 179.37 170.01 178.56 170.24 L 177.64 170.50 C 176.83 170.73 176.36 171.56 176.59 172.36 C 176.82 173.17 177.65 173.64 178.45 173.41 Z M 179.36 173.15 L 180.29 172.90 C 181.09 172.69 181.57 171.86 181.36 171.06 C 181.14 170.26 180.32 169.78 179.52 169.99 L 178.58 170.24 C 177.78 170.45 177.30 171.28 177.52 172.08 C 177.73 172.89 178.55 173.36 179.36 173.15 Z M 180.26 172.91 L 181.22 172.67 C 182.02 172.48 182.52 171.66 182.32 170.86 C 182.12 170.05 181.31 169.56 180.51 169.75 L 179.55 169.99 C 178.74 170.18 178.25 171.00 178.44 171.80 C 178.64 172.61 179.45 173.10 180.26 172.91 Z M 181.18 172.68 L 182.18 172.46 C 182.99 172.29 183.50 171.49 183.33 170.68 C 183.15 169.87 182.35 169.36 181.54 169.53 L 180.54 169.75 C 179.74 169.92 179.22 170.72 179.40 171.53 C 179.57 172.34 180.37 172.85 181.18 172.68 Z M 182.14 172.47 L 183.14 172.28 C 183.95 172.12 184.49 171.34 184.33 170.53 C 184.18 169.72 183.40 169.18 182.59 169.34 L 181.58 169.53 C 180.77 169.68 180.24 170.46 180.39 171.28 C 180.55 172.09 181.33 172.62 182.14 172.47 Z M 183.10 172.28 L 184.09 172.12 C 184.90 172.00 185.46 171.23 185.33 170.42 C 185.20 169.60 184.44 169.05 183.62 169.18 L 182.63 169.33 C 181.82 169.46 181.26 170.23 181.39 171.04 C 181.52 171.85 182.28 172.41 183.10 172.28 Z M 184.00 172.13 L 185.18 172.02 C 185.99 171.94 186.59 171.22 186.52 170.40 C 186.44 169.58 185.71 168.98 184.89 169.06 L 183.72 169.17 C 182.90 169.25 182.30 169.97 182.38 170.79 C 182.45 171.61 183.18 172.21 184.00 172.13 Z M 184.79 171.99 L 185.58 172.13 C 186.39 172.27 187.15 171.73 187.29 170.92 C 187.43 170.12 186.88 169.35 186.08 169.22 L 185.28 169.08 C 184.48 168.94 183.72 169.49 183.58 170.29 C 183.44 171.09 183.98 171.86 184.79 171.99 Z M 184.43 170.28 L 184.22 171.01 C 184.00 171.79 184.45 172.60 185.23 172.82 C 186.00 173.04 186.81 172.58 187.03 171.81 L 187.24 171.07 C 187.46 170.29 187.01 169.49 186.23 169.27 C 185.45 169.05 184.65 169.50 184.43 170.28 Z M 184.95 170.13 L 184.05 170.61 C 183.35 170.98 183.08 171.85 183.45 172.56 C 183.82 173.26 184.70 173.53 185.40 173.16 L 186.30 172.69 C 187.00 172.32 187.27 171.44 186.90 170.74 C 186.53 170.03 185.66 169.76 184.95 170.13 Z M 184.41 170.49 L 183.39 170.72 C 182.62 170.90 182.14 171.67 182.32 172.44 C 182.50 173.21 183.27 173.69 184.04 173.51 L 185.05 173.28 C 185.82 173.10 186.30 172.33 186.12 171.56 C 185.94 170.79 185.18 170.31 184.41 170.49 Z M 183.46 170.71 L 183.21 170.76 C 182.43 170.90 181.92 171.65 182.06 172.42 C 182.21 173.20 182.95 173.71 183.72 173.57 L 183.97 173.52 C 184.75 173.38 185.26 172.63 185.12 171.86 C 184.98 171.08 184.23 170.57 183.46 170.71 Z"
      fill="black"
      fill-rule="nonzero" /><path d="M 151.08 89.53 L 150.31 90.15 C 149.69 90.65 149.59 91.56 150.09 92.18 C 150.59 92.79 151.49 92.89 152.11 92.39 L 152.89 91.77 C 153.51 91.27 153.60 90.37 153.10 89.75 C 152.61 89.13 151.70 89.03 151.08 89.53 Z M 150.10 90.34 L 149.46 91.10 C 148.95 91.71 149.02 92.62 149.64 93.14 C 150.25 93.66 151.16 93.58 151.68 92.96 L 152.32 92.21 C 152.83 91.59 152.76 90.68 152.14 90.16 C 151.53 89.65 150.61 89.73 150.10 90.34 Z M 149.26 91.39 L 148.82 92.30 C 148.47 93.03 148.77 93.90 149.50 94.25 C 150.23 94.60 151.10 94.30 151.45 93.57 L 151.89 92.66 C 152.24 91.94 151.93 91.07 151.21 90.71 C 150.48 90.36 149.61 90.67 149.26 91.39 Z M 148.71 92.57 L 148.49 93.43 C 148.29 94.22 148.76 95.02 149.54 95.22 C 150.32 95.42 151.13 94.95 151.33 94.17 L 151.55 93.30 C 151.76 92.52 151.29 91.72 150.50 91.51 C 149.72 91.31 148.92 91.78 148.71 92.57 Z M 148.45 93.65 L 148.34 94.68 C 148.25 95.49 148.84 96.21 149.65 96.30 C 150.46 96.38 151.18 95.80 151.26 94.99 L 151.37 93.95 C 151.46 93.15 150.87 92.42 150.06 92.34 C 149.25 92.25 148.53 92.84 148.45 93.65 Z M 148.33 94.78 L 148.29 95.82 C 148.26 96.63 148.90 97.32 149.71 97.35 C 150.53 97.37 151.21 96.74 151.24 95.92 L 151.28 94.89 C 151.30 94.07 150.67 93.39 149.85 93.36 C 149.04 93.33 148.36 93.97 148.33 94.78 Z M 148.28 95.86 L 148.27 96.90 C 148.26 97.72 148.92 98.39 149.74 98.40 C 150.56 98.40 151.23 97.75 151.23 96.93 L 151.25 95.89 C 151.25 95.07 150.60 94.40 149.78 94.39 C 148.96 94.38 148.29 95.04 148.28 95.86 Z M 148.27 96.92 L 148.27 97.93 C 148.27 98.75 148.94 99.42 149.76 99.41 C 150.59 99.41 151.25 98.74 151.24 97.92 L 151.24 96.91 C 151.24 96.09 150.57 95.42 149.75 95.43 C 148.93 95.43 148.26 96.10 148.27 96.92 Z M 148.27 97.95 L 148.29 99.03 C 148.30 99.85 148.99 100.51 149.81 100.49 C 150.63 100.47 151.29 99.79 151.27 98.97 L 151.25 97.89 C 151.23 97.07 150.55 96.42 149.73 96.43 C 148.90 96.45 148.25 97.13 148.27 97.95 Z M 148.29 99.09 L 148.34 100.02 C 148.39 100.85 149.10 101.48 149.93 101.43 C 150.75 101.38 151.38 100.67 151.33 99.84 L 151.27 98.91 C 151.22 98.08 150.51 97.45 149.69 97.50 C 148.86 97.55 148.24 98.26 148.29 99.09 Z M 148.35 100.11 L 148.46 101.04 C 148.56 101.86 149.31 102.45 150.13 102.35 C 150.95 102.25 151.53 101.50 151.44 100.68 L 151.32 99.75 C 151.22 98.93 150.48 98.35 149.66 98.45 C 148.83 98.55 148.25 99.29 148.35 100.11 Z M 148.47 101.11 L 148.63 102.10 C 148.77 102.92 149.54 103.48 150.36 103.34 C 151.17 103.21 151.73 102.44 151.59 101.62 L 151.43 100.62 C 151.30 99.80 150.52 99.25 149.71 99.38 C 148.89 99.52 148.33 100.29 148.47 101.11 Z M 148.63 102.14 L 148.82 103.14 C 148.98 103.95 149.77 104.49 150.58 104.33 C 151.40 104.18 151.93 103.39 151.78 102.57 L 151.59 101.58 C 151.43 100.76 150.65 100.23 149.83 100.38 C 149.02 100.54 148.48 101.33 148.63 102.14 Z M 148.82 103.16 L 149.02 104.13 C 149.19 104.94 149.98 105.47 150.80 105.30 C 151.61 105.14 152.14 104.34 151.98 103.53 L 151.78 102.56 C 151.61 101.74 150.82 101.21 150.00 101.38 C 149.19 101.54 148.66 102.34 148.82 103.16 Z M 149.02 104.12 L 149.22 105.11 C 149.38 105.93 150.18 106.46 151.00 106.29 C 151.81 106.13 152.34 105.33 152.18 104.51 L 151.98 103.53 C 151.81 102.71 151.02 102.18 150.20 102.34 C 149.38 102.51 148.85 103.31 149.02 104.12 Z M 149.21 105.10 L 149.40 106.06 C 149.55 106.88 150.35 107.41 151.17 107.26 C 151.99 107.10 152.53 106.31 152.37 105.49 L 152.18 104.53 C 152.03 103.71 151.23 103.17 150.41 103.33 C 149.59 103.48 149.05 104.28 149.21 105.10 Z M 149.39 106.05 L 149.58 107.05 C 149.73 107.87 150.52 108.42 151.34 108.26 C 152.16 108.11 152.71 107.32 152.56 106.50 L 152.37 105.50 C 152.22 104.67 151.43 104.13 150.61 104.28 C 149.78 104.43 149.24 105.22 149.39 106.05 Z M 149.57 107.04 L 149.75 108.03 C 149.89 108.86 150.69 109.41 151.51 109.26 C 152.34 109.11 152.89 108.32 152.74 107.49 L 152.56 106.50 C 152.42 105.68 151.62 105.13 150.80 105.28 C 149.97 105.42 149.42 106.22 149.57 107.04 Z M 149.74 108.03 L 149.91 109.01 C 150.06 109.84 150.85 110.40 151.68 110.25 C 152.52 110.11 153.07 109.31 152.93 108.48 L 152.75 107.49 C 152.60 106.66 151.81 106.11 150.98 106.25 C 150.15 106.40 149.59 107.19 149.74 108.03 Z M 149.90 109.01 L 150.07 110.01 C 150.22 110.84 151.02 111.40 151.86 111.26 C 152.69 111.11 153.26 110.31 153.11 109.48 L 152.94 108.48 C 152.79 107.64 151.99 107.08 151.15 107.23 C 150.32 107.37 149.75 108.17 149.90 109.01 Z M 150.06 110.00 L 150.23 110.99 C 150.38 111.83 151.18 112.40 152.02 112.25 C 152.87 112.11 153.43 111.31 153.29 110.46 L 153.12 109.48 C 152.97 108.64 152.17 108.07 151.33 108.21 C 150.49 108.36 149.92 109.16 150.06 110.00 Z M 150.22 110.98 L 150.39 111.97 C 150.53 112.82 151.33 113.39 152.18 113.25 C 153.03 113.11 153.60 112.30 153.46 111.45 L 153.30 110.47 C 153.16 109.62 152.35 109.04 151.50 109.18 C 150.65 109.33 150.08 110.13 150.22 110.98 Z M 150.37 111.95 L 150.53 112.94 C 150.66 113.80 151.47 114.38 152.32 114.25 C 153.18 114.11 153.76 113.31 153.63 112.45 L 153.47 111.47 C 153.34 110.61 152.54 110.02 151.68 110.16 C 150.82 110.29 150.24 111.10 150.37 111.95 Z M 150.52 112.93 L 150.66 113.90 C 150.79 114.76 151.59 115.36 152.45 115.23 C 153.32 115.10 153.91 114.30 153.79 113.44 L 153.64 112.46 C 153.51 111.60 152.71 111.01 151.85 111.13 C 150.99 111.26 150.39 112.06 150.52 112.93 Z M 150.65 113.89 L 150.79 114.89 C 150.92 115.76 151.72 116.36 152.59 116.24 C 153.46 116.11 154.06 115.31 153.94 114.44 L 153.80 113.44 C 153.67 112.57 152.87 111.97 152.00 112.09 C 151.13 112.22 150.52 113.02 150.65 113.89 Z M 150.78 114.89 L 150.93 115.89 C 151.05 116.77 151.86 117.37 152.74 117.25 C 153.61 117.12 154.22 116.31 154.09 115.44 L 153.95 114.44 C 153.82 113.56 153.01 112.95 152.14 113.08 C 151.26 113.20 150.66 114.02 150.78 114.89 Z M 150.91 115.89 L 151.06 116.88 C 151.18 117.76 152.00 118.37 152.88 118.25 C 153.76 118.12 154.37 117.30 154.25 116.42 L 154.10 115.43 C 153.98 114.55 153.16 113.94 152.28 114.07 C 151.40 114.20 150.79 115.01 150.91 115.89 Z M 151.04 116.88 L 151.18 117.87 C 151.31 118.76 152.13 119.38 153.02 119.26 C 153.91 119.13 154.52 118.31 154.40 117.42 L 154.26 116.43 C 154.14 115.54 153.31 114.92 152.43 115.04 C 151.54 115.17 150.92 115.99 151.04 116.88 Z M 151.17 117.86 L 151.30 118.85 C 151.42 119.74 152.24 120.38 153.13 120.26 C 154.03 120.14 154.66 119.32 154.54 118.43 L 154.41 117.44 C 154.30 116.54 153.48 115.91 152.58 116.03 C 151.69 116.14 151.05 116.96 151.17 117.86 Z M 151.29 118.83 L 151.40 119.81 C 151.51 120.71 152.33 121.36 153.23 121.25 C 154.13 121.15 154.77 120.33 154.67 119.43 L 154.55 118.45 C 154.45 117.55 153.63 116.90 152.73 117.01 C 151.83 117.11 151.18 117.93 151.29 118.83 Z M 151.39 119.79 L 151.50 120.79 C 151.59 121.69 152.41 122.35 153.32 122.26 C 154.22 122.16 154.88 121.34 154.79 120.44 L 154.68 119.44 C 154.58 118.54 153.77 117.88 152.86 117.97 C 151.95 118.07 151.30 118.89 151.39 119.79 Z M 151.49 120.78 L 151.59 121.77 C 151.68 122.68 152.49 123.35 153.41 123.26 C 154.32 123.17 154.98 122.35 154.89 121.44 L 154.80 120.45 C 154.70 119.53 153.89 118.87 152.98 118.96 C 152.06 119.05 151.40 119.86 151.49 120.78 Z M 151.58 121.76 L 151.67 122.72 C 151.75 123.64 152.57 124.31 153.49 124.22 C 154.41 124.14 155.08 123.32 154.99 122.40 L 154.90 121.45 C 154.82 120.53 154.00 119.86 153.08 119.94 C 152.17 120.03 151.49 120.84 151.58 121.76 Z M 151.66 122.71 L 151.75 123.71 C 151.83 124.63 152.64 125.31 153.56 125.23 C 154.49 125.15 155.17 124.34 155.09 123.42 L 155.00 122.42 C 154.92 121.49 154.11 120.81 153.18 120.89 C 152.26 120.97 151.58 121.78 151.66 122.71 Z M 151.74 123.69 L 151.82 124.74 C 151.89 125.67 152.70 126.36 153.63 126.29 C 154.56 126.21 155.25 125.40 155.18 124.47 L 155.10 123.43 C 155.02 122.50 154.21 121.81 153.29 121.88 C 152.36 121.95 151.67 122.77 151.74 123.69 Z M 151.81 124.72 L 151.88 125.69 C 151.94 126.62 152.75 127.32 153.68 127.26 C 154.62 127.19 155.32 126.39 155.25 125.45 L 155.19 124.49 C 155.12 123.56 154.31 122.85 153.38 122.92 C 152.45 122.98 151.75 123.79 151.81 124.72 Z M 151.87 125.67 L 151.93 126.66 C 151.99 127.59 152.79 128.31 153.73 128.25 C 154.67 128.19 155.38 127.39 155.32 126.45 L 155.26 125.47 C 155.20 124.53 154.40 123.82 153.46 123.87 C 152.53 123.93 151.81 124.74 151.87 125.67 Z M 151.92 126.65 L 151.98 127.66 C 152.03 128.60 152.84 129.32 153.78 129.27 C 154.72 129.22 155.44 128.41 155.39 127.47 L 155.33 126.46 C 155.28 125.52 154.47 124.80 153.53 124.85 C 152.59 124.90 151.87 125.71 151.92 126.65 Z M 151.97 127.65 L 152.02 128.69 C 152.07 129.63 152.87 130.36 153.82 130.32 C 154.76 130.27 155.49 129.47 155.44 128.52 L 155.39 127.48 C 155.35 126.54 154.54 125.81 153.60 125.86 C 152.65 125.90 151.93 126.71 151.97 127.65 Z M 152.02 128.68 L 152.06 129.66 C 152.10 130.61 152.91 131.35 153.85 131.30 C 154.80 131.26 155.54 130.46 155.49 129.51 L 155.45 128.53 C 155.41 127.58 154.61 126.85 153.66 126.89 C 152.71 126.93 151.97 127.73 152.02 128.68 Z M 152.05 129.66 L 152.09 130.65 C 152.13 131.60 152.93 132.34 153.89 132.30 C 154.84 132.27 155.58 131.46 155.54 130.51 L 155.50 129.52 C 155.46 128.56 154.66 127.82 153.71 127.86 C 152.76 127.90 152.02 128.70 152.05 129.66 Z M 152.09 130.64 L 152.12 131.65 C 152.16 132.60 152.96 133.35 153.92 133.32 C 154.87 133.28 155.62 132.48 155.58 131.53 L 155.55 130.52 C 155.51 129.56 154.71 128.82 153.76 128.85 C 152.80 128.88 152.05 129.69 152.09 130.64 Z M 152.12 131.64 L 152.15 132.65 C 152.18 133.61 152.98 134.37 153.94 134.34 C 154.90 134.31 155.65 133.51 155.62 132.55 L 155.59 131.53 C 155.56 130.57 154.76 129.82 153.80 129.85 C 152.84 129.88 152.09 130.68 152.12 131.64 Z M 152.14 132.65 L 152.17 133.64 C 152.19 134.60 152.99 135.36 153.96 135.34 C 154.92 135.31 155.68 134.51 155.65 133.55 L 155.63 132.55 C 155.60 131.59 154.80 130.83 153.84 130.86 C 152.88 130.88 152.12 131.68 152.14 132.65 Z M 152.16 133.63 L 152.19 134.62 C 152.21 135.59 153.01 136.35 153.97 136.33 C 154.94 136.31 155.70 135.51 155.68 134.55 L 155.66 133.56 C 155.64 132.59 154.84 131.83 153.87 131.85 C 152.91 131.87 152.14 132.67 152.16 133.63 Z M 152.18 134.62 L 152.20 135.62 C 152.22 136.58 153.02 137.35 153.99 137.33 C 154.95 137.32 155.72 136.52 155.70 135.55 L 155.68 134.55 C 155.67 133.58 154.87 132.82 153.90 132.83 C 152.93 132.85 152.16 133.65 152.18 134.62 Z M 152.20 135.61 L 152.22 136.62 C 152.23 137.59 153.03 138.36 154.00 138.35 C 154.97 138.33 155.74 137.53 155.73 136.56 L 155.71 135.55 C 155.69 134.58 154.89 133.81 153.92 133.83 C 152.95 133.85 152.18 134.64 152.20 135.61 Z M 152.21 136.62 L 152.23 137.63 C 152.25 138.60 153.05 139.38 154.02 139.36 C 154.99 139.35 155.76 138.55 155.75 137.57 L 155.73 136.56 C 155.71 135.59 154.91 134.82 153.94 134.83 C 152.97 134.85 152.20 135.65 152.21 136.62 Z M 152.22 137.63 L 152.24 138.64 C 152.26 139.62 153.06 140.39 154.03 140.38 C 155.01 140.36 155.78 139.56 155.77 138.58 L 155.75 137.57 C 155.73 136.60 154.93 135.82 153.96 135.84 C 152.98 135.86 152.21 136.66 152.22 137.63 Z M 152.24 138.64 L 152.25 139.65 C 152.27 140.63 153.07 141.41 154.05 141.39 C 155.03 141.38 155.81 140.57 155.79 139.59 L 155.77 138.58 C 155.76 137.61 154.95 136.83 153.98 136.84 C 153.00 136.86 152.22 137.67 152.24 138.64 Z M 152.25 139.65 L 152.26 140.65 C 152.28 141.63 153.09 142.41 154.07 142.40 C 155.05 142.38 155.83 141.57 155.81 140.59 L 155.79 139.59 C 155.78 138.61 154.97 137.83 153.99 137.85 C 153.01 137.87 152.23 138.67 152.25 139.65 Z M 152.26 140.65 L 152.27 141.64 C 152.29 142.62 153.10 143.40 154.08 143.38 C 155.07 143.37 155.85 142.56 155.83 141.58 L 155.82 140.59 C 155.80 139.61 154.99 138.83 154.01 138.85 C 153.02 138.86 152.24 139.67 152.26 140.65 Z M 152.27 141.64 L 152.29 142.65 C 152.30 143.63 153.12 144.42 154.10 144.40 C 155.09 144.38 155.87 143.57 155.85 142.59 L 155.84 141.57 C 155.82 140.59 155.01 139.81 154.02 139.82 C 153.04 139.84 152.25 140.65 152.27 141.64 Z M 152.28 142.65 L 152.30 143.64 C 152.32 144.63 153.13 145.42 154.12 145.40 C 155.10 145.38 155.89 144.57 155.87 143.58 L 155.86 142.59 C 155.84 141.60 155.03 140.81 154.04 140.83 C 153.05 140.85 152.27 141.66 152.28 142.65 Z M 152.30 143.64 L 152.31 144.63 C 152.33 145.62 153.14 146.41 154.13 146.39 C 155.12 146.38 155.91 145.56 155.89 144.58 L 155.88 143.59 C 155.86 142.60 155.05 141.81 154.06 141.82 C 153.07 141.84 152.28 142.65 152.30 143.64 Z M 152.31 144.62 L 152.32 145.62 C 152.33 146.61 153.14 147.40 154.14 147.39 C 155.13 147.38 155.92 146.57 155.91 145.58 L 155.90 144.58 C 155.88 143.59 155.07 142.80 154.08 142.81 C 153.09 142.82 152.30 143.63 152.31 144.62 Z M 152.32 145.61 L 152.33 146.57 C 152.33 147.57 153.14 148.36 154.14 148.36 C 155.13 148.35 155.93 147.54 155.92 146.55 L 155.91 145.58 C 155.90 144.59 155.09 143.79 154.10 143.80 C 153.11 143.81 152.31 144.62 152.32 145.61 Z M 152.32 146.57 L 152.33 147.53 C 152.33 148.52 153.14 149.33 154.13 149.32 C 155.13 149.32 155.93 148.51 155.93 147.51 L 155.92 146.55 C 155.92 145.56 155.11 144.76 154.11 144.76 C 153.12 144.77 152.32 145.57 152.32 146.57 Z M 152.33 147.53 L 152.33 148.52 C 152.33 149.52 153.14 150.32 154.13 150.32 C 155.13 150.32 155.93 149.51 155.93 148.51 L 155.93 147.52 C 155.93 146.52 155.12 145.72 154.12 145.72 C 153.13 145.72 152.32 146.53 152.33 147.53 Z M 152.33 148.52 L 152.33 149.55 C 152.33 150.54 153.13 151.35 154.13 151.35 C 155.13 151.35 155.93 150.54 155.93 149.54 L 155.93 148.52 C 155.93 147.52 155.12 146.71 154.13 146.71 C 153.13 146.71 152.32 147.52 152.33 148.52 Z M 152.32 149.55 L 152.32 150.59 C 152.32 151.59 153.13 152.40 154.13 152.40 C 155.13 152.40 155.93 151.59 155.93 150.59 L 155.93 149.55 C 155.93 148.55 155.13 147.74 154.13 147.74 C 153.13 147.74 152.32 148.55 152.32 149.55 Z M 152.32 150.59 L 152.32 151.55 C 152.32 152.55 153.13 153.36 154.13 153.36 C 155.13 153.36 155.94 152.55 155.94 151.55 L 155.94 150.59 C 155.94 149.59 155.13 148.79 154.13 148.79 C 153.13 148.79 152.32 149.59 152.32 150.59 Z M 152.32 151.55 L 152.32 152.54 C 152.32 153.54 153.13 154.35 154.13 154.35 C 155.13 154.35 155.94 153.54 155.94 152.54 L 155.94 151.55 C 155.94 150.55 155.13 149.74 154.13 149.74 C 153.13 149.74 152.32 150.55 152.32 151.55 Z M 152.32 152.54 L 152.32 153.55 C 152.32 154.54 153.13 155.35 154.13 155.35 C 155.13 155.35 155.94 154.54 155.94 153.55 L 155.94 152.54 C 155.94 151.54 155.13 150.73 154.13 150.73 C 153.13 150.73 152.32 151.54 152.32 152.54 Z M 152.32 153.55 L 152.32 154.57 C 152.32 155.57 153.13 156.38 154.13 156.38 C 155.13 156.38 155.94 155.57 155.94 154.57 L 155.94 153.55 C 155.94 152.55 155.13 151.73 154.13 151.73 C 153.13 151.73 152.32 152.55 152.32 153.55 Z M 152.32 154.57 L 152.32 155.60 C 152.32 156.60 153.13 157.41 154.13 157.41 C 155.13 157.41 155.94 156.60 155.94 155.60 L 155.94 154.57 C 155.94 153.57 155.13 152.76 154.13 152.76 C 153.13 152.76 152.32 153.57 152.32 154.57 Z M 152.32 155.60 L 152.32 156.60 C 152.32 157.61 153.13 158.42 154.13 158.42 C 155.13 158.42 155.94 157.61 155.94 156.60 L 155.94 155.60 C 155.94 154.60 155.13 153.79 154.13 153.79 C 153.13 153.79 152.32 154.60 152.32 155.60 Z M 152.32 156.60 L 152.31 157.61 C 152.31 158.61 153.12 159.42 154.13 159.42 C 155.13 159.42 155.94 158.61 155.94 157.61 L 155.94 156.61 C 155.94 155.61 155.13 154.79 154.13 154.79 C 153.13 154.79 152.32 155.60 152.32 156.60 Z M 152.31 157.60 L 152.31 158.60 C 152.31 159.61 153.11 160.42 154.12 160.42 C 155.12 160.43 155.93 159.62 155.94 158.62 L 155.94 157.62 C 155.95 156.61 155.14 155.80 154.14 155.79 C 153.13 155.79 152.32 156.60 152.31 157.60 Z M 152.31 158.60 L 152.30 159.60 C 152.29 160.60 153.10 161.42 154.10 161.43 C 155.10 161.43 155.92 160.63 155.93 159.63 L 155.94 158.63 C 155.95 157.62 155.14 156.81 154.14 156.80 C 153.14 156.79 152.32 157.59 152.31 158.60 Z M 152.30 159.59 L 152.29 160.58 C 152.27 161.58 153.07 162.41 154.08 162.42 C 155.08 162.43 155.90 161.63 155.92 160.63 L 155.93 159.64 C 155.94 158.63 155.14 157.81 154.14 157.80 C 153.14 157.78 152.31 158.58 152.30 159.59 Z M 152.29 160.57 L 152.27 161.56 C 152.25 162.56 153.04 163.39 154.04 163.41 C 155.05 163.43 155.88 162.64 155.90 161.63 L 155.92 160.64 C 155.94 159.64 155.14 158.81 154.14 158.79 C 153.14 158.77 152.31 159.57 152.29 160.57 Z M 152.27 161.55 L 152.24 162.53 C 152.21 163.53 153.00 164.37 154.00 164.40 C 155.00 164.43 155.84 163.64 155.87 162.63 L 155.90 161.65 C 155.92 160.65 155.13 159.81 154.13 159.78 C 153.13 159.75 152.29 160.54 152.27 161.55 Z M 152.24 162.52 L 152.21 163.51 C 152.17 164.51 152.95 165.35 153.96 165.39 C 154.96 165.42 155.80 164.64 155.83 163.63 L 155.87 162.65 C 155.90 161.64 155.12 160.80 154.12 160.77 C 153.11 160.73 152.27 161.52 152.24 162.52 Z M 152.21 163.50 L 152.17 164.49 C 152.13 165.50 152.91 166.34 153.91 166.38 C 154.91 166.42 155.75 165.64 155.79 164.64 L 155.83 163.64 C 155.87 162.64 155.09 161.80 154.09 161.76 C 153.09 161.72 152.25 162.50 152.21 163.50 Z M 152.17 164.49 L 152.12 165.50 C 152.08 166.50 152.85 167.34 153.86 167.39 C 154.86 167.43 155.71 166.66 155.75 165.65 L 155.79 164.65 C 155.84 163.64 155.06 162.80 154.06 162.75 C 153.06 162.71 152.21 163.49 152.17 164.49 Z M 152.12 165.49 L 152.07 166.51 C 152.03 167.51 152.80 168.36 153.80 168.41 C 154.80 168.46 155.65 167.68 155.70 166.68 L 155.75 165.66 C 155.80 164.66 155.02 163.81 154.02 163.76 C 153.02 163.71 152.17 164.49 152.12 165.49 Z M 152.07 166.51 L 152.03 167.49 C 151.98 168.49 152.75 169.34 153.75 169.39 C 154.75 169.44 155.61 168.67 155.65 167.66 L 155.70 166.68 C 155.75 165.68 154.98 164.83 153.98 164.78 C 152.97 164.73 152.12 165.50 152.07 166.51 Z M 152.03 167.48 L 151.98 168.48 C 151.93 169.48 152.70 170.33 153.70 170.39 C 154.70 170.44 155.55 169.66 155.60 168.66 L 155.65 167.67 C 155.70 166.66 154.93 165.81 153.93 165.76 C 152.93 165.71 152.08 166.48 152.03 167.48 Z M 151.98 168.48 L 151.92 169.48 C 151.87 170.48 152.64 171.34 153.65 171.39 C 154.65 171.44 155.50 170.67 155.55 169.67 L 155.61 168.66 C 155.66 167.66 154.89 166.81 153.88 166.76 C 152.88 166.70 152.03 167.47 151.98 168.48 Z M 151.92 169.48 L 151.87 170.49 C 151.82 171.49 152.59 172.35 153.59 172.40 C 154.59 172.45 155.45 171.68 155.50 170.68 L 155.55 169.67 C 155.61 168.67 154.84 167.81 153.83 167.76 C 152.83 167.71 151.98 168.48 151.92 169.48 Z M 151.87 170.49 L 151.82 171.49 C 151.76 172.50 152.53 173.35 153.54 173.41 C 154.54 173.46 155.39 172.69 155.45 171.69 L 155.50 170.68 C 155.56 169.68 154.79 168.82 153.78 168.77 C 152.78 168.71 151.92 169.48 151.87 170.49 Z M 151.82 171.49 L 151.76 172.49 C 151.71 173.50 152.48 174.36 153.48 174.41 C 154.48 174.46 155.34 173.69 155.39 172.69 L 155.45 171.69 C 155.50 170.68 154.73 169.83 153.73 169.77 C 152.73 169.72 151.87 170.49 151.82 171.49 Z M 151.76 172.49 L 151.71 173.49 C 151.65 174.50 152.42 175.36 153.42 175.41 C 154.43 175.47 155.29 174.70 155.34 173.69 L 155.40 172.69 C 155.45 171.69 154.68 170.83 153.68 170.78 C 152.67 170.72 151.82 171.49 151.76 172.49 Z M 151.71 173.49 L 151.65 174.49 C 151.60 175.49 152.37 176.35 153.37 176.41 C 154.37 176.46 155.23 175.69 155.29 174.69 L 155.34 173.69 C 155.40 172.69 154.63 171.83 153.62 171.78 C 152.62 171.72 151.76 172.49 151.71 173.49 Z M 151.65 174.49 L 151.60 175.48 C 151.54 176.49 152.31 177.34 153.31 177.40 C 154.32 177.46 155.18 176.69 155.23 175.68 L 155.29 174.69 C 155.34 173.69 154.57 172.83 153.57 172.77 C 152.56 172.72 151.71 173.49 151.65 174.49 Z M 151.60 175.48 L 151.54 176.48 C 151.49 177.48 152.26 178.34 153.26 178.40 C 154.26 178.45 155.12 177.68 155.18 176.68 L 155.23 175.68 C 155.29 174.68 154.52 173.82 153.51 173.76 C 152.51 173.71 151.65 174.48 151.60 175.48 Z M 151.54 176.48 L 151.49 177.48 C 151.43 178.48 152.20 179.34 153.21 179.40 C 154.21 179.45 155.07 178.68 155.12 177.68 L 155.18 176.68 C 155.23 175.67 154.46 174.81 153.46 174.76 C 152.45 174.70 151.60 175.47 151.54 176.48 Z M 151.49 177.48 L 151.43 178.48 C 151.38 179.48 152.15 180.34 153.15 180.39 C 154.16 180.45 155.02 179.68 155.07 178.67 L 155.12 177.68 C 155.18 176.67 154.41 175.81 153.40 175.76 C 152.40 175.71 151.54 176.48 151.49 177.48 Z M 151.43 178.48 L 151.38 179.48 C 151.33 180.48 152.10 181.34 153.10 181.39 C 154.11 181.45 154.96 180.68 155.02 179.67 L 155.07 178.67 C 155.12 177.67 154.35 176.81 153.35 176.76 C 152.34 176.70 151.49 177.47 151.43 178.48 Z M 151.38 179.48 L 151.33 180.48 C 151.27 181.49 152.05 182.34 153.05 182.40 C 154.05 182.45 154.91 181.68 154.96 180.67 L 155.02 179.67 C 155.07 178.66 154.30 177.81 153.29 177.76 C 152.29 177.70 151.43 178.47 151.38 179.48 Z M 151.33 180.48 L 151.27 181.49 C 151.22 182.49 152.00 183.35 153.00 183.40 C 154.01 183.45 154.86 182.68 154.91 181.67 L 154.96 180.67 C 155.02 179.67 154.24 178.81 153.24 178.76 C 152.23 178.71 151.38 179.48 151.33 180.48 Z M 151.27 181.49 L 151.23 182.49 C 151.18 183.50 151.95 184.35 152.95 184.40 C 153.96 184.45 154.81 183.68 154.86 182.67 L 154.91 181.67 C 154.96 180.67 154.19 179.81 153.18 179.76 C 152.18 179.71 151.32 180.49 151.27 181.49 Z M 151.22 182.50 L 151.18 183.49 C 151.13 184.49 151.91 185.35 152.91 185.40 C 153.92 185.44 154.77 184.67 154.82 183.66 L 154.86 182.67 C 154.91 181.66 154.14 180.81 153.13 180.76 C 152.13 180.71 151.27 181.49 151.22 182.50 Z M 151.18 183.49 L 151.13 184.52 C 151.08 185.53 151.86 186.38 152.87 186.42 C 153.87 186.47 154.72 185.69 154.77 184.69 L 154.82 183.66 C 154.86 182.65 154.09 181.80 153.08 181.76 C 152.08 181.71 151.22 182.49 151.18 183.49 Z M 151.13 184.52 L 151.09 185.55 C 151.04 186.55 151.82 187.40 152.82 187.45 C 153.83 187.49 154.68 186.71 154.72 185.71 L 154.77 184.68 C 154.81 183.68 154.04 182.83 153.03 182.78 C 152.03 182.74 151.17 183.52 151.13 184.52 Z M 151.09 185.55 L 151.04 186.56 C 151.00 187.56 151.78 188.41 152.78 188.45 C 153.79 188.50 154.64 187.72 154.68 186.71 L 154.72 185.70 C 154.77 184.70 153.99 183.85 152.98 183.81 C 151.98 183.76 151.13 184.54 151.09 185.55 Z M 151.04 186.56 L 151.00 187.55 C 150.96 188.55 151.74 189.40 152.74 189.44 C 153.75 189.49 154.60 188.71 154.64 187.70 L 154.68 186.71 C 154.72 185.71 153.94 184.86 152.94 184.81 C 151.93 184.77 151.08 185.55 151.04 186.56 Z M 151.00 187.55 L 150.96 188.52 C 150.92 189.52 151.70 190.37 152.70 190.42 C 153.71 190.46 154.55 189.68 154.60 188.67 L 154.64 187.70 C 154.68 186.70 153.90 185.85 152.90 185.80 C 151.89 185.76 151.04 186.54 151.00 187.55 Z M 150.96 188.52 L 150.92 189.49 C 150.87 190.50 151.65 191.35 152.66 191.39 C 153.66 191.44 154.51 190.66 154.55 189.65 L 154.60 188.68 C 154.64 187.67 153.86 186.82 152.86 186.78 C 151.85 186.73 151.00 187.51 150.96 188.52 Z M 150.92 189.49 L 150.87 190.49 C 150.83 191.50 151.61 192.35 152.61 192.39 C 153.61 192.44 154.46 191.66 154.51 190.65 L 154.55 189.65 C 154.60 188.65 153.82 187.80 152.82 187.75 C 151.81 187.71 150.96 188.49 150.92 189.49 Z M 150.87 190.49 L 150.83 191.48 C 150.78 192.49 151.56 193.34 152.57 193.38 C 153.57 193.43 154.42 192.65 154.46 191.64 L 154.51 190.65 C 154.55 189.65 153.78 188.80 152.77 188.76 C 151.77 188.71 150.92 189.49 150.87 190.49 Z M 150.83 191.48 L 150.79 192.47 C 150.74 193.48 151.52 194.33 152.52 194.37 C 153.53 194.41 154.38 193.64 154.42 192.63 L 154.46 191.64 C 154.51 190.64 153.73 189.79 152.73 189.75 C 151.72 189.70 150.87 190.48 150.83 191.48 Z M 150.79 192.48 L 150.75 193.48 C 150.71 194.48 151.49 195.33 152.49 195.37 C 153.49 195.41 154.34 194.63 154.38 193.63 L 154.42 192.63 C 154.46 191.63 153.68 190.78 152.68 190.74 C 151.68 190.70 150.83 191.48 150.79 192.48 Z M 150.75 193.48 L 150.71 194.49 C 150.67 195.50 151.45 196.34 152.46 196.38 C 153.46 196.41 154.30 195.63 154.34 194.63 L 154.38 193.62 C 154.42 192.62 153.63 191.77 152.63 191.74 C 151.63 191.70 150.79 192.48 150.75 193.48 Z M 150.71 194.50 L 150.68 195.50 C 150.64 196.50 151.43 197.34 152.43 197.37 C 153.43 197.41 154.27 196.62 154.30 195.62 L 154.34 194.62 C 154.37 193.62 153.59 192.78 152.59 192.75 C 151.58 192.71 150.74 193.50 150.71 194.50 Z M 150.68 195.50 L 150.65 196.51 C 150.62 197.51 151.40 198.35 152.40 198.38 C 153.41 198.41 154.24 197.62 154.27 196.62 L 154.30 195.61 C 154.33 194.61 153.55 193.78 152.55 193.75 C 151.55 193.71 150.71 194.50 150.68 195.50 Z M 150.65 196.52 L 150.62 197.53 C 150.59 198.53 151.38 199.36 152.38 199.39 C 153.38 199.42 154.21 198.63 154.24 197.63 L 154.27 196.62 C 154.30 195.62 153.51 194.78 152.51 194.76 C 151.51 194.73 150.68 195.52 150.65 196.52 Z M 150.62 197.53 L 150.60 198.53 C 150.57 199.53 151.36 200.36 152.36 200.39 C 153.36 200.42 154.19 199.63 154.22 198.63 L 154.24 197.62 C 154.27 196.62 153.48 195.79 152.48 195.77 C 151.48 195.74 150.65 196.53 150.62 197.53 Z M 150.60 198.54 L 150.57 199.52 C 150.55 200.52 151.34 201.35 152.34 201.37 C 153.34 201.40 154.17 200.61 154.19 199.61 L 154.21 198.62 C 154.24 197.63 153.45 196.80 152.45 196.77 C 151.45 196.75 150.62 197.54 150.60 198.54 Z M 150.58 199.53 L 150.55 200.55 C 150.53 201.55 151.32 202.37 152.32 202.40 C 153.32 202.42 154.14 201.63 154.17 200.63 L 154.19 199.61 C 154.21 198.61 153.42 197.78 152.42 197.76 C 151.42 197.74 150.60 198.53 150.58 199.53 Z M 150.55 200.55 L 150.53 201.56 C 150.51 202.56 151.30 203.38 152.30 203.40 C 153.30 203.43 154.12 202.63 154.14 201.64 L 154.17 200.63 C 154.19 199.63 153.39 198.80 152.40 198.78 C 151.40 198.76 150.57 199.55 150.55 200.55 Z M 150.53 201.56 L 150.51 202.56 C 150.49 203.55 151.29 204.38 152.28 204.40 C 153.28 204.42 154.11 203.62 154.12 202.63 L 154.14 201.63 C 154.16 200.64 153.37 199.81 152.37 199.79 C 151.38 199.77 150.55 200.57 150.53 201.56 Z M 150.51 202.56 L 150.50 203.54 C 150.48 204.54 151.27 205.36 152.27 205.38 C 153.27 205.40 154.09 204.61 154.11 203.61 L 154.12 202.62 C 154.14 201.63 153.35 200.81 152.35 200.79 C 151.36 200.77 150.53 201.56 150.51 202.56 Z M 150.50 203.55 L 150.48 204.53 C 150.46 205.53 151.26 206.35 152.25 206.37 C 153.25 206.38 154.07 205.59 154.09 204.59 L 154.11 203.61 C 154.12 202.61 153.33 201.79 152.33 201.77 C 151.34 201.76 150.51 202.55 150.50 203.55 Z M 150.48 204.53 L 150.47 205.53 C 150.45 206.53 151.24 207.35 152.24 207.37 C 153.23 207.38 154.05 206.59 154.07 205.59 L 154.09 204.59 C 154.10 203.60 153.31 202.78 152.31 202.76 C 151.32 202.74 150.50 203.54 150.48 204.53 Z M 150.47 205.54 L 150.45 206.54 C 150.44 207.54 151.23 208.36 152.23 208.37 C 153.22 208.39 154.04 207.59 154.05 206.60 L 154.07 205.59 C 154.08 204.60 153.29 203.78 152.30 203.76 C 151.30 203.75 150.48 204.54 150.47 205.54 Z M 150.45 206.55 L 150.44 207.55 C 150.43 208.55 151.22 209.36 152.21 209.38 C 153.21 209.39 154.02 208.60 154.04 207.60 L 154.05 206.59 C 154.07 205.60 153.27 204.78 152.28 204.77 C 151.28 204.76 150.47 205.55 150.45 206.55 Z M 150.44 207.56 L 150.43 208.56 C 150.42 209.55 151.21 210.36 152.21 210.37 C 153.20 210.39 154.01 209.59 154.03 208.60 L 154.04 207.60 C 154.05 206.61 153.25 205.79 152.26 205.78 C 151.27 205.77 150.45 206.56 150.44 207.56 Z M 150.43 208.56 L 150.42 209.55 C 150.41 210.54 151.21 211.35 152.20 211.36 C 153.19 211.37 154.00 210.57 154.01 209.58 L 154.02 208.59 C 154.03 207.60 153.24 206.79 152.24 206.78 C 151.25 206.77 150.44 207.57 150.43 208.56 Z M 150.43 209.55 L 150.42 210.59 C 150.41 211.58 151.21 212.39 152.20 212.40 C 153.19 212.40 154.00 211.61 154.00 210.62 L 154.01 209.57 C 154.02 208.58 153.22 207.78 152.23 207.77 C 151.24 207.76 150.43 208.56 150.43 209.55 Z M 150.42 210.60 L 150.42 211.62 C 150.42 212.61 151.21 213.41 152.20 213.42 C 153.19 213.42 153.99 212.62 154.00 211.64 L 154.00 210.61 C 154.00 209.62 153.21 208.82 152.22 208.82 C 151.23 208.81 150.43 209.61 150.42 210.60 Z M 150.42 211.63 L 150.42 212.62 C 150.42 213.61 151.22 214.41 152.20 214.41 C 153.19 214.41 153.99 213.61 153.99 212.63 L 153.99 211.63 C 153.99 210.65 153.20 209.85 152.21 209.85 C 151.23 209.84 150.43 210.64 150.42 211.63 Z M 150.43 212.63 L 150.43 213.59 C 150.43 214.58 151.22 215.37 152.20 215.37 C 153.19 215.37 153.98 214.58 153.98 213.60 L 153.98 212.63 C 153.98 211.65 153.19 210.85 152.21 210.85 C 151.22 210.85 150.43 211.64 150.43 212.63 Z M 150.43 213.60 L 150.43 214.58 C 150.43 215.56 151.23 216.35 152.21 216.35 C 153.18 216.35 153.98 215.56 153.98 214.58 L 153.98 213.60 C 153.98 212.62 153.18 211.82 152.21 211.82 C 151.23 211.82 150.43 212.62 150.43 213.60 Z M 150.44 214.58 L 150.44 215.61 C 150.44 216.59 151.23 217.38 152.21 217.38 C 153.18 217.38 153.97 216.59 153.97 215.61 L 153.97 214.58 C 153.97 213.60 153.18 212.81 152.21 212.81 C 151.23 212.81 150.44 213.60 150.44 214.58 Z M 150.44 215.61 L 150.44 216.61 C 150.44 217.58 151.23 218.37 152.21 218.37 C 153.18 218.37 153.97 217.58 153.97 216.61 L 153.97 215.61 C 153.97 214.64 153.18 213.85 152.21 213.85 C 151.23 213.85 150.44 214.64 150.44 215.61 Z M 150.45 216.61 L 150.45 217.58 C 150.45 218.56 151.23 219.34 152.21 219.34 C 153.18 219.34 153.96 218.56 153.96 217.58 L 153.96 216.61 C 153.96 215.64 153.18 214.85 152.21 214.85 C 151.23 214.85 150.45 215.64 150.45 216.61 Z M 150.45 217.58 L 150.45 218.56 C 150.45 219.52 151.24 220.31 152.21 220.31 C 153.17 220.31 153.96 219.52 153.96 218.56 L 153.96 217.58 C 153.96 216.62 153.17 215.83 152.21 215.83 C 151.24 215.83 150.45 216.62 150.45 217.58 Z M 150.46 218.56 L 150.46 219.54 C 150.46 220.51 151.24 221.29 152.21 221.29 C 153.17 221.29 153.95 220.51 153.95 219.54 L 153.95 218.56 C 153.95 217.59 153.17 216.81 152.21 216.81 C 151.24 216.81 150.46 217.59 150.46 218.56 Z M 150.46 219.54 L 150.46 220.53 C 150.46 221.50 151.24 222.27 152.21 222.27 C 153.17 222.27 153.95 221.50 153.95 220.53 L 153.95 219.54 C 153.95 218.58 153.17 217.80 152.21 217.80 C 151.24 217.80 150.46 218.58 150.46 219.54 Z M 150.47 220.53 L 150.47 221.54 C 150.47 222.50 151.25 223.28 152.21 223.28 C 153.16 223.28 153.94 222.50 153.94 221.54 L 153.94 220.53 C 153.94 219.58 153.16 218.80 152.21 218.80 C 151.25 218.80 150.47 219.58 150.47 220.53 Z M 150.48 221.54 L 150.48 222.55 C 150.48 223.51 151.25 224.28 152.21 224.28 C 153.16 224.28 153.93 223.51 153.93 222.55 L 153.93 221.54 C 153.93 220.59 153.16 219.82 152.21 219.82 C 151.25 219.82 150.48 220.59 150.48 221.54 Z M 150.48 222.55 L 150.48 223.55 C 150.48 224.50 151.25 225.27 152.21 225.27 C 153.16 225.27 153.93 224.50 153.93 223.55 L 153.93 222.55 C 153.93 221.60 153.16 220.83 152.21 220.83 C 151.25 220.83 150.48 221.60 150.48 222.55 Z M 150.49 223.55 L 150.49 224.56 C 150.49 225.51 151.26 226.28 152.21 226.28 C 153.15 226.28 153.92 225.51 153.92 224.56 L 153.92 223.55 C 153.92 222.60 153.15 221.84 152.21 221.84 C 151.26 221.84 150.49 222.60 150.49 223.55 Z M 150.50 224.56 L 150.50 225.57 C 150.50 226.51 151.26 227.27 152.21 227.27 C 153.15 227.27 153.91 226.51 153.91 225.57 L 153.91 224.56 C 153.91 223.62 153.15 222.85 152.21 222.85 C 151.26 222.85 150.50 223.62 150.50 224.56 Z M 150.50 225.57 L 150.50 226.58 C 150.50 227.52 151.27 228.28 152.21 228.28 C 153.14 228.28 153.91 227.52 153.91 226.58 L 153.91 225.57 C 153.91 224.63 153.14 223.87 152.21 223.87 C 151.27 223.87 150.50 224.63 150.50 225.57 Z M 150.51 226.58 L 150.51 227.60 C 150.51 228.53 151.27 229.29 152.21 229.29 C 153.14 229.29 153.90 228.53 153.90 227.60 L 153.90 226.58 C 153.90 225.64 153.14 224.88 152.21 224.88 C 151.27 224.88 150.51 225.64 150.51 226.58 Z M 150.52 227.60 L 150.52 228.59 C 150.52 229.52 151.27 230.28 152.21 230.28 C 153.14 230.28 153.89 229.52 153.89 228.59 L 153.89 227.60 C 153.89 226.66 153.14 225.91 152.21 225.91 C 151.27 225.91 150.52 226.66 150.52 227.60 Z M 150.52 228.59 L 150.52 229.57 C 150.52 230.50 151.28 231.25 152.21 231.25 C 153.13 231.25 153.89 230.50 153.89 229.57 L 153.89 228.59 C 153.89 227.66 153.13 226.91 152.21 226.91 C 151.28 226.91 150.52 227.66 150.52 228.59 Z M 150.53 229.57 L 150.53 230.57 C 150.53 231.50 151.28 232.25 152.21 232.25 C 153.13 232.25 153.88 231.50 153.88 230.57 L 153.88 229.57 C 153.88 228.65 153.13 227.90 152.21 227.90 C 151.28 227.90 150.53 228.65 150.53 229.57 Z M 150.54 230.57 L 150.54 231.58 C 150.54 232.50 151.28 233.25 152.21 233.25 C 153.13 233.25 153.87 232.50 153.87 231.58 L 153.87 230.57 C 153.87 229.65 153.13 228.90 152.21 228.90 C 151.28 228.90 150.54 229.65 150.54 230.57 Z M 150.55 231.58 L 150.55 232.58 C 150.55 233.50 151.29 234.24 152.21 234.24 C 153.12 234.24 153.86 233.50 153.86 232.58 L 153.86 231.58 C 153.86 230.67 153.12 229.92 152.21 229.92 C 151.29 229.92 150.55 230.67 150.55 231.58 Z M 150.55 232.58 L 150.55 233.56 C 150.55 234.48 151.29 235.21 152.21 235.21 C 153.12 235.21 153.86 234.48 153.86 233.56 L 153.86 232.58 C 153.86 231.67 153.12 230.93 152.21 230.93 C 151.29 230.93 150.55 231.67 150.55 232.58 Z M 150.56 233.56 L 150.56 234.60 C 150.56 235.51 151.30 236.24 152.21 236.24 C 153.11 236.24 153.85 235.51 153.85 234.60 L 153.85 233.56 C 153.85 232.66 153.11 231.92 152.21 231.92 C 151.30 231.92 150.56 232.66 150.56 233.56 Z M 150.57 234.60 L 150.57 235.61 C 150.57 236.52 151.30 237.25 152.21 237.25 C 153.11 237.25 153.84 236.52 153.84 235.61 L 153.84 234.60 C 153.84 233.70 153.11 232.97 152.21 232.97 C 151.30 232.97 150.57 233.70 150.57 234.60 Z M 150.58 235.61 L 150.58 236.59 C 150.58 237.48 151.31 238.21 152.21 238.21 C 153.10 238.21 153.83 237.48 153.83 236.59 L 153.83 235.61 C 153.83 234.72 153.10 233.99 152.21 233.99 C 151.31 233.99 150.58 234.72 150.58 235.61 Z M 150.59 236.59 L 150.59 237.60 C 150.59 238.50 151.31 239.22 152.21 239.22 C 153.10 239.22 153.82 238.50 153.82 237.60 L 153.82 236.59 C 153.82 235.69 153.10 234.97 152.21 234.97 C 151.31 234.97 150.59 235.69 150.59 236.59 Z M 150.60 237.60 L 150.60 238.63 C 150.60 239.51 151.32 240.23 152.21 240.23 C 153.09 240.23 153.81 239.51 153.81 238.63 L 153.81 237.60 C 153.81 236.72 153.09 236.00 152.21 236.00 C 151.32 236.00 150.60 236.72 150.60 237.60 Z M 150.61 238.63 L 150.61 239.59 C 150.61 240.47 151.32 241.18 152.21 241.18 C 153.09 241.18 153.80 240.47 153.80 239.59 L 153.80 238.63 C 153.80 237.75 153.09 237.03 152.21 237.03 C 151.32 237.03 150.61 237.75 150.61 238.63 Z M 150.62 239.59 L 150.62 240.59 C 150.62 241.47 151.33 242.18 152.21 242.18 C 153.08 242.18 153.79 241.47 153.79 240.59 L 153.79 239.59 C 153.79 238.71 153.08 238.00 152.21 238.00 C 151.33 238.00 150.62 238.71 150.62 239.59 Z M 150.63 240.59 L 150.63 241.58 C 150.63 242.46 151.33 243.16 152.21 243.16 C 153.08 243.16 153.79 242.46 153.79 241.58 L 153.79 240.59 C 153.79 239.72 153.08 239.01 152.21 239.01 C 151.33 239.01 150.63 239.72 150.63 240.59 Z M 150.63 241.58 L 150.63 242.58 C 150.63 243.44 151.34 244.15 152.21 244.15 C 153.07 244.15 153.78 243.44 153.78 242.58 L 153.78 241.58 C 153.78 240.71 153.07 240.01 152.21 240.01 C 151.34 240.01 150.63 240.71 150.63 241.58 Z M 150.64 242.58 L 150.64 243.61 C 150.64 244.47 151.34 245.18 152.21 245.17 C 153.08 245.17 153.78 244.47 153.78 243.60 L 153.78 242.57 C 153.77 241.70 153.07 241.00 152.20 241.01 C 151.33 241.01 150.63 241.71 150.64 242.58 Z M 150.64 243.62 L 150.65 244.56 C 150.66 245.43 151.37 246.12 152.24 246.11 C 153.11 246.10 153.80 245.39 153.79 244.52 L 153.78 243.58 C 153.77 242.72 153.06 242.02 152.19 242.03 C 151.32 242.04 150.63 242.76 150.64 243.62 Z M 150.65 244.61 L 150.69 245.45 C 150.72 246.32 151.46 246.99 152.32 246.96 C 153.19 246.92 153.86 246.19 153.82 245.32 L 153.79 244.48 C 153.75 243.61 153.02 242.94 152.15 242.98 C 151.29 243.01 150.62 243.74 150.65 244.61 Z M 150.69 245.54 L 150.80 246.62 C 150.88 247.48 151.65 248.11 152.51 248.03 C 153.37 247.95 154.00 247.18 153.92 246.32 L 153.82 245.24 C 153.73 244.38 152.97 243.74 152.11 243.83 C 151.24 243.91 150.61 244.68 150.69 245.54 Z M 150.81 246.67 L 150.94 247.69 C 151.05 248.55 151.84 249.16 152.69 249.04 C 153.55 248.93 154.16 248.15 154.05 247.29 L 153.91 246.27 C 153.80 245.41 153.01 244.81 152.16 244.92 C 151.30 245.03 150.69 245.82 150.81 246.67 Z M 150.94 247.72 L 151.10 248.75 C 151.23 249.61 152.03 250.20 152.88 250.07 C 153.74 249.94 154.32 249.14 154.20 248.29 L 154.04 247.26 C 153.91 246.40 153.11 245.81 152.26 245.94 C 151.40 246.07 150.81 246.87 150.94 247.72 Z M 151.10 248.79 L 151.29 249.84 C 151.44 250.69 152.25 251.26 153.10 251.11 C 153.95 250.96 154.52 250.15 154.37 249.30 L 154.19 248.25 C 154.04 247.40 153.23 246.83 152.38 246.98 C 151.53 247.13 150.96 247.94 151.10 248.79 Z M 151.30 249.89 L 151.50 250.84 C 151.67 251.69 152.50 252.23 153.35 252.05 C 154.20 251.87 154.74 251.04 154.56 250.20 L 154.36 249.25 C 154.18 248.40 153.35 247.86 152.51 248.04 C 151.66 248.21 151.12 249.04 151.30 249.89 Z M 151.54 250.99 L 151.94 252.24 C 152.20 253.06 153.08 253.52 153.90 253.25 C 154.72 252.99 155.18 252.11 154.91 251.29 L 154.52 250.04 C 154.25 249.22 153.37 248.77 152.55 249.03 C 151.73 249.29 151.28 250.17 151.54 250.99 Z M 152.27 252.80 L 152.71 253.29 C 153.28 253.93 154.26 253.99 154.90 253.42 C 155.54 252.85 155.60 251.87 155.03 251.23 L 154.59 250.73 C 154.02 250.09 153.03 250.04 152.39 250.61 C 151.75 251.18 151.70 252.16 152.27 252.80 Z M 154.94 253.37 L 155.46 252.86 C 156.07 252.27 156.08 251.30 155.49 250.69 C 154.90 250.08 153.92 250.06 153.31 250.66 L 152.79 251.16 C 152.19 251.75 152.17 252.73 152.76 253.34 C 153.36 253.94 154.33 253.96 154.94 253.37 Z M 155.84 252.22 L 156.17 251.17 C 156.43 250.37 155.98 249.51 155.18 249.25 C 154.38 249.00 153.52 249.44 153.27 250.24 L 152.93 251.30 C 152.68 252.10 153.12 252.96 153.92 253.21 C 154.72 253.47 155.58 253.02 155.84 252.22 Z M 156.20 251.00 L 156.38 250.08 C 156.55 249.26 156.02 248.47 155.20 248.31 C 154.39 248.14 153.59 248.67 153.43 249.49 L 153.24 250.41 C 153.08 251.22 153.61 252.02 154.42 252.18 C 155.24 252.35 156.03 251.82 156.20 251.00 Z M 156.37 250.03 L 156.55 248.97 C 156.69 248.16 156.14 247.39 155.33 247.26 C 154.52 247.12 153.75 247.67 153.61 248.48 L 153.44 249.54 C 153.30 250.35 153.85 251.11 154.66 251.25 C 155.47 251.39 156.24 250.84 156.37 250.03 Z M 156.54 248.96 L 156.70 247.94 C 156.83 247.13 156.29 246.38 155.48 246.25 C 154.68 246.12 153.92 246.66 153.80 247.47 L 153.63 248.49 C 153.50 249.29 154.05 250.05 154.85 250.18 C 155.65 250.31 156.41 249.76 156.54 248.96 Z M 156.69 247.94 L 156.85 246.97 C 156.98 246.17 156.44 245.42 155.65 245.29 C 154.85 245.16 154.10 245.70 153.97 246.49 L 153.81 247.46 C 153.68 248.26 154.22 249.01 155.01 249.14 C 155.81 249.27 156.56 248.73 156.69 247.94 Z M 156.84 246.97 L 157.00 245.97 C 157.14 245.18 156.60 244.43 155.81 244.30 C 155.03 244.17 154.28 244.70 154.15 245.49 L 153.98 246.49 C 153.85 247.28 154.38 248.03 155.17 248.16 C 155.96 248.29 156.70 247.76 156.84 246.97 Z M 156.99 245.97 L 157.16 244.95 C 157.29 244.17 156.77 243.43 155.98 243.30 C 155.20 243.17 154.46 243.70 154.33 244.48 L 154.16 245.49 C 154.03 246.27 154.55 247.02 155.34 247.15 C 156.12 247.28 156.86 246.75 156.99 245.97 Z M 157.16 244.95 L 157.17 244.89 C 157.30 244.11 156.77 243.37 156.00 243.24 C 155.22 243.11 154.48 243.63 154.35 244.41 L 154.34 244.48 C 154.20 245.26 154.73 246.00 155.51 246.13 C 156.29 246.26 157.03 245.73 157.16 244.95 Z"
      fill="black"
      fill-rule="nonzero" /></svg>