<svg xmlns="http://www.w3.org/2000/svg" width="300" height="300" viewBox="0 0 300 300">
<path d="M 128.23 114.28 L 128.41 113.33 C 128.56 112.55 128.04 111.79 127.26 111.64 C 126.48 111.49 125.72 112.00 125.57 112.78 L 125.39 113.73 C 125.24 114.52 125.75 115.27 126.53 115.42 C 127.32 115.57 128.07 115.06 128.23 114.28 Z M 128.09 114.01 L 128.71 113.30 C 129.23 112.70 129.17 111.77 128.56 111.25 C 127.95 110.72 127.03 110.78 126.51 111.39 L 125.89 112.10 C 125.36 112.71 125.43 113.63 126.03 114.16 C 126.64 114.68 127.56 114.62 128.09 114.01 Z M 128.23 113.67 L 129.09 113.26 C 129.83 112.92 130.14 112.05 129.79 111.32 C 129.45 110.58 128.58 110.27 127.85 110.61 L 126.98 111.02 C 126.25 111.37 125.94 112.24 126.28 112.97 C 126.63 113.70 127.50 114.02 128.23 113.67 Z M 128.91 113.34 L 129.95 113.01 C 130.72 112.77 131.15 111.94 130.90 111.17 C 130.66 110.40 129.83 109.97 129.06 110.21 L 128.03 110.54 C 127.25 110.78 126.83 111.61 127.07 112.38 C 127.32 113.16 128.14 113.58 128.91 113.34 Z M 129.89 113.03 L 130.94 112.74 C 131.73 112.53 132.19 111.72 131.97 110.94 C 131.76 110.15 130.95 109.69 130.17 109.91 L 129.12 110.19 C 128.33 110.41 127.87 111.22 128.09 112.00 C 128.30 112.78 129.11 113.24 129.89 113.03 Z M 130.93 112.75 L 131.89 112.50 C 132.68 112.29 133.15 111.49 132.94 110.70 C 132.74 109.91 131.93 109.44 131.15 109.65 L 130.18 109.90 C 129.40 110.11 128.92 110.91 129.13 111.70 C 129.34 112.49 130.14 112.96 130.93 112.75 Z M 131.90 112.50 L 132.85 112.24 C 133.64 112.03 134.11 111.22 133.90 110.43 C 133.68 109.65 132.87 109.18 132.09 109.39 L 131.13 109.65 C 130.35 109.86 129.88 110.67 130.09 111.46 C 130.31 112.24 131.11 112.71 131.90 112.50 Z M 132.88 112.24 L 133.82 111.96 C 134.60 111.74 135.05 110.92 134.82 110.14 C 134.60 109.35 133.78 108.90 133.00 109.13 L 132.06 109.40 C 131.28 109.63 130.83 110.44 131.05 111.23 C 131.28 112.01 132.10 112.46 132.88 112.24 Z M 133.81 111.97 L 134.74 111.70 C 135.52 111.48 135.98 110.66 135.75 109.87 C 135.53 109.09 134.71 108.64 133.93 108.86 L 133.00 109.13 C 132.22 109.35 131.76 110.17 131.99 110.95 C 132.21 111.74 133.03 112.19 133.81 111.97 Z M 134.71 111.71 L 135.68 111.46 C 136.46 111.25 136.94 110.44 136.73 109.65 C 136.52 108.86 135.71 108.39 134.92 108.60 L 133.95 108.85 C 133.17 109.06 132.69 109.87 132.90 110.66 C 133.11 111.45 133.92 111.92 134.71 111.71 Z M 135.64 111.47 L 136.60 111.24 C 137.40 111.05 137.89 110.25 137.70 109.45 C 137.51 108.66 136.71 108.17 135.92 108.36 L 134.95 108.59 C 134.16 108.78 133.67 109.58 133.86 110.37 C 134.05 111.16 134.85 111.66 135.64 111.47 Z M 136.58 111.24 L 137.56 111.03 C 138.36 110.85 138.87 110.06 138.69 109.26 C 138.51 108.46 137.72 107.96 136.93 108.14 L 135.94 108.35 C 135.14 108.53 134.64 109.32 134.81 110.12 C 134.99 110.91 135.78 111.42 136.58 111.24 Z M 137.55 111.03 L 138.53 110.82 C 139.33 110.65 139.84 109.87 139.68 109.07 C 139.51 108.27 138.73 107.76 137.93 107.93 L 136.94 108.13 C 136.14 108.30 135.63 109.08 135.80 109.88 C 135.96 110.68 136.75 111.20 137.55 111.03 Z M 138.53 110.82 L 139.51 110.62 C 140.31 110.45 140.83 109.67 140.66 108.87 C 140.49 108.07 139.71 107.56 138.91 107.72 L 137.93 107.92 C 137.13 108.09 136.61 108.87 136.78 109.67 C 136.95 110.47 137.73 110.99 138.53 110.82 Z M 139.51 110.62 L 140.49 110.42 C 141.29 110.25 141.81 109.47 141.64 108.67 C 141.48 107.87 140.69 107.35 139.89 107.52 L 138.91 107.72 C 138.11 107.89 137.60 108.67 137.76 109.47 C 137.93 110.27 138.71 110.79 139.51 110.62 Z M 140.48 110.42 L 141.45 110.22 C 142.25 110.06 142.77 109.28 142.61 108.48 C 142.45 107.68 141.67 107.16 140.87 107.32 L 139.90 107.52 C 139.10 107.68 138.58 108.46 138.74 109.26 C 138.90 110.06 139.68 110.58 140.48 110.42 Z M 141.46 110.22 L 142.44 110.02 C 143.24 109.86 143.76 109.08 143.60 108.27 C 143.43 107.47 142.65 106.96 141.85 107.12 L 140.86 107.32 C 140.06 107.49 139.54 108.27 139.71 109.07 C 139.87 109.87 140.65 110.39 141.46 110.22 Z M 142.46 110.02 L 143.45 109.81 C 144.25 109.64 144.76 108.85 144.59 108.05 C 144.42 107.25 143.63 106.74 142.83 106.91 L 141.84 107.12 C 141.04 107.29 140.53 108.08 140.70 108.88 C 140.87 109.68 141.66 110.19 142.46 110.02 Z M 143.45 109.81 L 144.43 109.60 C 145.23 109.43 145.74 108.64 145.57 107.84 C 145.40 107.04 144.61 106.53 143.81 106.70 L 142.83 106.91 C 142.03 107.08 141.52 107.87 141.69 108.67 C 141.86 109.47 142.65 109.98 143.45 109.81 Z M 144.41 109.60 L 145.40 109.41 C 146.20 109.25 146.72 108.46 146.56 107.66 C 146.40 106.86 145.62 106.34 144.82 106.50 L 143.83 106.70 C 143.02 106.86 142.50 107.64 142.66 108.44 C 142.82 109.24 143.61 109.76 144.41 109.60 Z M 145.39 109.41 L 146.35 109.22 C 147.16 109.07 147.69 108.29 147.53 107.49 C 147.38 106.68 146.60 106.16 145.80 106.31 L 144.83 106.50 C 144.03 106.65 143.50 107.43 143.65 108.23 C 143.81 109.04 144.59 109.56 145.39 109.41 Z M 146.37 109.22 L 147.35 109.02 C 148.15 108.86 148.67 108.08 148.51 107.27 C 148.35 106.47 147.56 105.95 146.76 106.11 L 145.78 106.31 C 144.98 106.48 144.46 107.26 144.62 108.06 C 144.78 108.86 145.57 109.38 146.37 109.22 Z M 147.35 109.02 L 148.33 108.83 C 149.13 108.66 149.65 107.88 149.49 107.08 C 149.33 106.28 148.54 105.76 147.74 105.92 L 146.76 106.11 C 145.96 106.28 145.44 107.06 145.60 107.86 C 145.76 108.66 146.55 109.18 147.35 109.02 Z M 148.30 108.83 L 149.29 108.65 C 150.10 108.50 150.63 107.72 150.48 106.92 C 150.33 106.11 149.56 105.58 148.75 105.73 L 147.76 105.91 C 146.96 106.06 146.43 106.84 146.58 107.64 C 146.72 108.45 147.50 108.98 148.30 108.83 Z M 149.28 108.65 L 150.26 108.47 C 151.07 108.33 151.60 107.55 151.46 106.75 C 151.31 105.94 150.54 105.41 149.73 105.55 L 148.76 105.73 C 147.95 105.87 147.42 106.65 147.56 107.45 C 147.71 108.26 148.48 108.79 149.28 108.65 Z M 150.26 108.47 L 151.24 108.29 C 152.05 108.15 152.58 107.37 152.43 106.57 C 152.29 105.76 151.52 105.23 150.71 105.37 L 149.73 105.55 C 148.92 105.70 148.39 106.47 148.54 107.28 C 148.68 108.08 149.46 108.62 150.26 108.47 Z M 151.23 108.30 L 152.17 108.13 C 152.98 107.99 153.52 107.22 153.38 106.42 C 153.24 105.61 152.47 105.07 151.66 105.21 L 150.72 105.37 C 149.91 105.51 149.37 106.28 149.51 107.09 C 149.65 107.89 150.42 108.43 151.23 108.30 Z M 152.16 108.13 L 153.15 107.96 C 153.96 107.83 154.50 107.06 154.36 106.25 C 154.22 105.45 153.46 104.90 152.65 105.04 L 151.67 105.21 C 150.86 105.35 150.31 106.11 150.45 106.92 C 150.59 107.73 151.36 108.27 152.16 108.13 Z M 153.16 107.96 L 154.11 107.79 C 154.92 107.65 155.46 106.87 155.31 106.07 C 155.17 105.26 154.39 104.73 153.59 104.87 L 152.64 105.04 C 151.83 105.19 151.29 105.96 151.44 106.77 C 151.58 107.57 152.36 108.11 153.16 107.96 Z M 154.12 107.79 L 155.05 107.62 C 155.85 107.47 156.39 106.69 156.24 105.89 C 156.09 105.08 155.31 104.55 154.51 104.70 L 153.58 104.87 C 152.77 105.02 152.24 105.80 152.39 106.60 C 152.54 107.41 153.32 107.94 154.12 107.79 Z M 155.05 107.62 L 156.11 107.42 C 156.91 107.27 157.45 106.50 157.30 105.69 C 157.15 104.89 156.38 104.36 155.57 104.50 L 154.51 104.70 C 153.70 104.85 153.17 105.62 153.32 106.43 C 153.47 107.23 154.24 107.77 155.05 107.62 Z M 156.10 107.42 L 157.13 107.24 C 157.93 107.10 158.47 106.33 158.33 105.52 C 158.18 104.71 157.41 104.18 156.61 104.32 L 155.58 104.50 C 154.77 104.65 154.23 105.42 154.38 106.22 C 154.52 107.03 155.29 107.57 156.10 107.42 Z M 157.12 107.24 L 158.11 107.07 C 158.92 106.93 159.46 106.17 159.32 105.36 C 159.19 104.55 158.42 104.01 157.61 104.15 L 156.62 104.32 C 155.81 104.46 155.27 105.22 155.40 106.03 C 155.54 106.84 156.31 107.38 157.12 107.24 Z M 158.10 107.07 L 159.11 106.91 C 159.92 106.78 160.47 106.02 160.34 105.21 C 160.21 104.40 159.45 103.85 158.64 103.98 L 157.62 104.15 C 156.82 104.28 156.27 105.04 156.40 105.85 C 156.53 106.66 157.29 107.21 158.10 107.07 Z M 159.09 106.91 L 160.08 106.77 C 160.89 106.65 161.45 105.89 161.33 105.08 C 161.20 104.27 160.45 103.71 159.64 103.83 L 158.65 103.98 C 157.84 104.10 157.28 104.86 157.41 105.67 C 157.53 106.48 158.28 107.04 159.09 106.91 Z M 160.05 106.77 L 161.12 106.63 C 161.93 106.52 162.50 105.78 162.39 104.97 C 162.29 104.15 161.54 103.58 160.73 103.69 L 159.66 103.83 C 158.85 103.94 158.28 104.68 158.39 105.49 C 158.49 106.31 159.24 106.88 160.05 106.77 Z M 161.09 106.63 L 162.09 106.52 C 162.90 106.43 163.49 105.70 163.40 104.88 C 163.31 104.07 162.58 103.48 161.76 103.57 L 160.76 103.69 C 159.94 103.78 159.36 104.51 159.45 105.32 C 159.54 106.14 160.27 106.72 161.09 106.63 Z M 162.06 106.53 L 163.00 106.44 C 163.81 106.36 164.41 105.64 164.34 104.83 C 164.26 104.01 163.54 103.41 162.73 103.48 L 161.79 103.57 C 160.97 103.65 160.37 104.37 160.45 105.18 C 160.52 106.00 161.25 106.60 162.06 106.53 Z M 162.97 106.44 L 163.96 106.37 C 164.78 106.31 165.39 105.59 165.33 104.78 C 165.27 103.96 164.56 103.35 163.74 103.41 L 162.75 103.48 C 161.93 103.54 161.32 104.26 161.38 105.07 C 161.44 105.89 162.16 106.50 162.97 106.44 Z M 163.94 106.37 L 164.94 106.31 C 165.76 106.26 166.38 105.56 166.34 104.74 C 166.29 103.93 165.59 103.30 164.77 103.35 L 163.77 103.41 C 162.95 103.45 162.32 104.16 162.37 104.97 C 162.42 105.79 163.12 106.42 163.94 106.37 Z M 164.91 106.31 L 165.89 106.27 C 166.71 106.24 167.34 105.55 167.31 104.73 C 167.28 103.91 166.59 103.28 165.77 103.31 L 164.80 103.35 C 163.98 103.38 163.34 104.07 163.37 104.89 C 163.41 105.71 164.10 106.34 164.91 106.31 Z M 165.86 106.27 L 166.87 106.25 C 167.69 106.24 168.34 105.56 168.33 104.74 C 168.31 103.92 167.63 103.27 166.82 103.29 L 165.80 103.31 C 164.98 103.33 164.33 104.00 164.35 104.82 C 164.36 105.64 165.04 106.29 165.86 106.27 Z M 166.85 106.25 L 167.85 106.25 C 168.67 106.24 169.33 105.57 169.32 104.76 C 169.32 103.94 168.65 103.28 167.83 103.28 L 166.84 103.29 C 166.02 103.29 165.36 103.96 165.36 104.78 C 165.37 105.60 166.04 106.26 166.85 106.25 Z M 167.84 106.25 L 168.85 106.25 C 169.67 106.25 170.33 105.58 170.33 104.76 C 170.33 103.95 169.67 103.28 168.85 103.28 L 167.84 103.28 C 167.02 103.28 166.36 103.95 166.36 104.77 C 166.36 105.58 167.02 106.25 167.84 106.25 Z M 168.85 106.25 L 169.87 106.25 C 170.69 106.25 171.35 105.58 171.35 104.76 C 171.35 103.95 170.69 103.28 169.87 103.28 L 168.85 103.28 C 168.03 103.28 167.37 103.95 167.37 104.76 C 167.37 105.58 168.03 106.25 168.85 106.25 Z M 169.87 106.24 L 170.83 106.24 C 171.65 106.24 172.31 105.58 172.31 104.76 C 172.31 103.95 171.65 103.28 170.83 103.28 L 169.87 103.28 C 169.05 103.28 168.39 103.95 168.39 104.76 C 168.39 105.58 169.05 106.24 169.87 106.24 Z M 170.83 106.24 L 171.87 106.25 C 172.68 106.25 173.35 105.59 173.35 104.78 C 173.36 103.96 172.70 103.29 171.88 103.29 L 170.84 103.28 C 170.02 103.28 169.36 103.94 169.35 104.76 C 169.35 105.58 170.01 106.24 170.83 106.24 Z M 171.83 106.25 L 172.79 106.28 C 173.61 106.30 174.29 105.66 174.31 104.84 C 174.34 104.03 173.69 103.34 172.88 103.32 L 171.92 103.29 C 171.10 103.27 170.42 103.91 170.39 104.72 C 170.37 105.54 171.01 106.22 171.83 106.25 Z M 172.71 106.27 L 173.71 106.36 C 174.52 106.43 175.24 105.83 175.31 105.01 C 175.38 104.20 174.78 103.48 173.96 103.41 L 172.96 103.32 C 172.15 103.25 171.43 103.86 171.36 104.67 C 171.29 105.48 171.89 106.20 172.71 106.27 Z M 173.59 106.34 L 174.54 106.50 C 175.35 106.64 176.11 106.10 176.25 105.29 C 176.38 104.49 175.84 103.73 175.04 103.59 L 174.08 103.43 C 173.28 103.29 172.51 103.83 172.38 104.64 C 172.24 105.44 172.78 106.21 173.59 106.34 Z M 174.44 106.48 L 175.42 106.72 C 176.22 106.91 177.02 106.42 177.21 105.63 C 177.40 104.84 176.91 104.04 176.12 103.85 L 175.14 103.61 C 174.34 103.42 173.54 103.91 173.35 104.70 C 173.16 105.49 173.65 106.29 174.44 106.48 Z M 175.40 106.71 L 176.19 106.92 C 176.98 107.12 177.79 106.65 177.99 105.86 C 178.20 105.07 177.72 104.26 176.93 104.06 L 176.14 103.85 C 175.35 103.65 174.55 104.12 174.34 104.91 C 174.14 105.70 174.61 106.51 175.40 106.71 Z M 176.24 106.93 L 177.21 107.15 C 178.01 107.33 178.80 106.83 178.98 106.03 C 179.16 105.23 178.66 104.44 177.86 104.27 L 176.88 104.05 C 176.09 103.87 175.30 104.37 175.12 105.17 C 174.94 105.96 175.44 106.75 176.24 106.93 Z M 177.28 107.16 L 178.42 107.37 C 179.22 107.51 179.99 106.98 180.13 106.17 C 180.28 105.37 179.74 104.60 178.94 104.46 L 177.80 104.25 C 176.99 104.11 176.23 104.64 176.08 105.45 C 175.94 106.25 176.47 107.02 177.28 107.16 Z M 178.45 107.37 L 179.44 107.53 C 180.25 107.66 181.01 107.11 181.13 106.30 C 181.26 105.49 180.71 104.74 179.90 104.61 L 178.91 104.45 C 178.10 104.33 177.35 104.88 177.22 105.68 C 177.09 106.49 177.64 107.24 178.45 107.37 Z M 179.44 107.53 L 180.50 107.70 C 181.30 107.82 182.06 107.27 182.19 106.47 C 182.31 105.66 181.76 104.91 180.96 104.78 L 179.91 104.61 C 179.10 104.48 178.34 105.03 178.22 105.84 C 178.09 106.64 178.64 107.40 179.44 107.53 Z M 180.47 107.69 L 181.48 107.87 C 182.28 108.01 183.05 107.47 183.19 106.67 C 183.33 105.86 182.79 105.10 181.99 104.96 L 180.98 104.78 C 180.18 104.64 179.41 105.18 179.27 105.98 C 179.13 106.79 179.67 107.55 180.47 107.69 Z M 181.42 107.86 L 182.44 108.08 C 183.23 108.26 184.02 107.75 184.20 106.96 C 184.38 106.16 183.87 105.37 183.08 105.20 L 182.05 104.97 C 181.26 104.79 180.47 105.30 180.29 106.09 C 180.12 106.89 180.62 107.68 181.42 107.86 Z M 182.23 108.02 L 183.24 108.41 C 184.00 108.70 184.86 108.32 185.15 107.56 C 185.44 106.80 185.06 105.94 184.30 105.65 L 183.29 105.26 C 182.53 104.97 181.67 105.35 181.38 106.11 C 181.08 106.87 181.46 107.73 182.23 108.02 Z M 182.77 108.13 L 183.37 108.66 C 183.97 109.22 184.91 109.17 185.46 108.57 C 186.01 107.96 185.96 107.02 185.36 106.47 L 184.77 105.93 C 184.16 105.38 183.22 105.43 182.67 106.03 C 182.12 106.64 182.17 107.57 182.77 108.13 Z M 183.02 108.20 L 183.43 109.07 C 183.78 109.81 184.66 110.13 185.40 109.78 C 186.15 109.43 186.46 108.54 186.11 107.80 L 185.71 106.94 C 185.36 106.19 184.47 105.88 183.73 106.23 C 182.99 106.58 182.67 107.46 183.02 108.20 Z M 183.32 108.78 L 183.56 109.78 C 183.75 110.58 184.55 111.07 185.35 110.88 C 186.15 110.69 186.65 109.89 186.46 109.09 L 186.22 108.09 C 186.03 107.29 185.23 106.80 184.43 106.99 C 183.63 107.18 183.13 107.98 183.32 108.78 Z M 183.53 109.64 L 183.67 110.63 C 183.78 111.44 184.53 112.01 185.35 111.90 C 186.16 111.79 186.73 111.04 186.62 110.22 L 186.48 109.23 C 186.37 108.42 185.62 107.85 184.80 107.96 C 183.99 108.07 183.42 108.82 183.53 109.64 Z M 183.66 110.53 L 183.72 111.52 C 183.78 112.35 184.49 112.97 185.31 112.91 C 186.14 112.86 186.76 112.14 186.70 111.32 L 186.63 110.32 C 186.58 109.50 185.87 108.88 185.04 108.94 C 184.22 108.99 183.60 109.70 183.66 110.53 Z M 183.72 111.46 L 183.74 112.42 C 183.76 113.24 184.45 113.89 185.27 113.87 C 186.10 113.85 186.75 113.17 186.73 112.34 L 186.71 111.39 C 186.69 110.56 186.00 109.91 185.18 109.93 C 184.35 109.95 183.70 110.63 183.72 111.46 Z M 183.74 112.39 L 183.75 113.41 C 183.75 114.24 184.42 114.91 185.25 114.90 C 186.07 114.90 186.74 114.23 186.74 113.40 L 186.73 112.37 C 186.73 111.55 186.06 110.88 185.23 110.89 C 184.40 110.89 183.74 111.56 183.74 112.39 Z M 183.74 113.40 L 183.74 114.37 C 183.74 115.20 184.41 115.87 185.24 115.87 C 186.06 115.87 186.74 115.20 186.74 114.38 L 186.74 113.41 C 186.74 112.58 186.07 111.91 185.24 111.91 C 184.42 111.91 183.75 112.58 183.74 113.40 Z M 183.74 114.35 L 183.72 115.34 C 183.71 116.16 184.37 116.85 185.19 116.86 C 186.02 116.88 186.70 116.22 186.72 115.39 L 186.74 114.40 C 186.75 113.57 186.09 112.89 185.27 112.88 C 184.44 112.86 183.76 113.52 183.74 114.35 Z M 183.72 115.29 L 183.67 116.34 C 183.63 117.17 184.26 117.88 185.09 117.92 C 185.91 117.96 186.62 117.33 186.66 116.50 L 186.72 115.44 C 186.76 114.62 186.13 113.91 185.30 113.87 C 184.47 113.82 183.77 114.46 183.72 115.29 Z M 183.67 116.29 L 183.58 117.32 C 183.51 118.15 184.12 118.87 184.95 118.95 C 185.77 119.02 186.50 118.41 186.57 117.58 L 186.66 116.55 C 186.73 115.73 186.12 115.00 185.30 114.93 C 184.47 114.85 183.74 115.47 183.67 116.29 Z M 183.58 117.29 L 183.48 118.30 C 183.39 119.13 183.99 119.87 184.81 119.96 C 185.64 120.04 186.37 119.45 186.46 118.62 L 186.57 117.61 C 186.66 116.79 186.06 116.05 185.23 115.96 C 184.41 115.87 183.67 116.47 183.58 117.29 Z M 183.47 118.30 L 183.37 119.29 C 183.28 120.11 183.87 120.86 184.70 120.95 C 185.52 121.04 186.26 120.44 186.35 119.62 L 186.46 118.63 C 186.55 117.80 185.96 117.06 185.13 116.97 C 184.31 116.88 183.57 117.47 183.47 118.30 Z M 183.36 119.30 L 183.26 120.32 C 183.18 121.14 183.78 121.88 184.60 121.96 C 185.43 122.05 186.17 121.45 186.25 120.62 L 186.36 119.60 C 186.44 118.78 185.84 118.04 185.01 117.96 C 184.19 117.87 183.45 118.47 183.36 119.30 Z M 183.26 120.32 L 183.17 121.24 C 183.09 122.06 183.69 122.80 184.51 122.88 C 185.34 122.97 186.08 122.36 186.16 121.54 L 186.25 120.62 C 186.34 119.79 185.73 119.05 184.91 118.97 C 184.08 118.89 183.34 119.49 183.26 120.32 Z M 183.17 121.23 L 183.06 122.20 C 182.98 123.03 183.57 123.77 184.40 123.86 C 185.23 123.95 185.97 123.35 186.06 122.52 L 186.16 121.55 C 186.25 120.72 185.65 119.98 184.83 119.89 C 184.00 119.80 183.26 120.40 183.17 121.23 Z M 183.06 122.20 L 182.95 123.21 C 182.86 124.04 183.46 124.78 184.29 124.87 C 185.12 124.96 185.86 124.36 185.95 123.54 L 186.06 122.52 C 186.15 121.70 185.55 120.95 184.72 120.86 C 183.90 120.77 183.15 121.37 183.06 122.20 Z M 182.95 123.21 L 182.85 124.18 C 182.76 125.01 183.36 125.75 184.19 125.84 C 185.01 125.93 185.76 125.33 185.85 124.50 L 185.95 123.53 C 186.04 122.71 185.44 121.96 184.61 121.87 C 183.78 121.79 183.04 122.38 182.95 123.21 Z M 182.85 124.17 L 182.73 125.20 C 182.64 126.03 183.24 126.77 184.07 126.86 C 184.90 126.96 185.64 126.36 185.73 125.53 L 185.85 124.50 C 185.94 123.68 185.34 122.93 184.51 122.84 C 183.68 122.75 182.94 123.35 182.85 124.17 Z M 182.73 125.19 L 182.62 126.16 C 182.53 126.99 183.12 127.74 183.95 127.84 C 184.78 127.93 185.53 127.33 185.62 126.51 L 185.73 125.54 C 185.83 124.71 185.23 123.96 184.41 123.87 C 183.58 123.77 182.83 124.37 182.73 125.19 Z M 182.62 126.16 L 182.50 127.16 C 182.41 127.99 183.00 128.74 183.83 128.84 C 184.66 128.93 185.41 128.34 185.51 127.51 L 185.63 126.51 C 185.72 125.68 185.13 124.93 184.30 124.83 C 183.47 124.74 182.72 125.33 182.62 126.16 Z M 182.50 127.16 L 182.39 128.17 C 182.29 129.00 182.89 129.75 183.72 129.85 C 184.55 129.94 185.31 129.34 185.40 128.51 L 185.51 127.51 C 185.61 126.67 185.01 125.92 184.18 125.83 C 183.35 125.73 182.59 126.33 182.50 127.16 Z M 182.38 128.17 L 182.27 129.14 C 182.18 129.97 182.78 130.72 183.62 130.82 C 184.46 130.91 185.21 130.31 185.30 129.47 L 185.41 128.50 C 185.50 127.67 184.90 126.92 184.06 126.83 C 183.22 126.73 182.47 127.34 182.38 128.17 Z M 182.27 129.14 L 182.16 130.14 C 182.07 130.98 182.67 131.74 183.51 131.83 C 184.35 131.92 185.10 131.32 185.19 130.48 L 185.31 129.47 C 185.40 128.63 184.79 127.88 183.95 127.79 C 183.11 127.69 182.36 128.30 182.27 129.14 Z M 182.15 130.14 L 182.04 131.15 C 181.94 131.99 182.55 132.75 183.39 132.85 C 184.23 132.94 184.99 132.34 185.09 131.49 L 185.20 130.48 C 185.30 129.64 184.69 128.88 183.85 128.79 C 183.00 128.69 182.25 129.30 182.15 130.14 Z M 182.03 131.15 L 181.92 132.14 C 181.82 132.99 182.43 133.75 183.27 133.85 C 184.12 133.95 184.88 133.34 184.98 132.49 L 185.09 131.50 C 185.19 130.65 184.58 129.89 183.74 129.79 C 182.89 129.69 182.13 130.30 182.03 131.15 Z M 181.91 132.13 L 181.79 133.14 C 181.69 133.99 182.30 134.76 183.15 134.86 C 184.00 134.96 184.77 134.35 184.87 133.50 L 184.99 132.50 C 185.09 131.65 184.48 130.88 183.63 130.78 C 182.78 130.68 182.01 131.29 181.91 132.13 Z M 181.79 133.13 L 181.66 134.13 C 181.56 134.99 182.16 135.76 183.02 135.87 C 183.87 135.97 184.65 135.37 184.75 134.51 L 184.87 133.51 C 184.98 132.66 184.37 131.88 183.52 131.78 C 182.67 131.67 181.89 132.28 181.79 133.13 Z M 181.66 134.12 L 181.53 135.13 C 181.42 135.98 182.02 136.77 182.88 136.88 C 183.73 136.99 184.52 136.38 184.63 135.53 L 184.76 134.52 C 184.87 133.67 184.26 132.88 183.41 132.77 C 182.55 132.66 181.77 133.27 181.66 134.12 Z M 181.52 135.11 L 181.39 136.09 C 181.27 136.95 181.86 137.74 182.72 137.86 C 183.58 137.98 184.38 137.38 184.50 136.53 L 184.63 135.54 C 184.75 134.69 184.15 133.89 183.30 133.77 C 182.44 133.65 181.64 134.25 181.52 135.11 Z M 181.38 136.07 L 181.23 137.04 C 181.10 137.90 181.69 138.71 182.55 138.84 C 183.41 138.97 184.22 138.38 184.35 137.52 L 184.50 136.55 C 184.63 135.69 184.04 134.88 183.18 134.75 C 182.32 134.62 181.52 135.21 181.38 136.07 Z M 181.23 137.01 L 181.06 138.00 C 180.91 138.86 181.49 139.68 182.35 139.82 C 183.22 139.97 184.04 139.39 184.18 138.53 L 184.35 137.55 C 184.50 136.69 183.92 135.87 183.06 135.72 C 182.20 135.57 181.38 136.15 181.23 137.01 Z M 181.06 137.98 L 180.88 138.96 C 180.72 139.82 181.29 140.65 182.15 140.81 C 183.02 140.97 183.85 140.40 184.00 139.54 L 184.19 138.55 C 184.35 137.69 183.77 136.86 182.91 136.70 C 182.05 136.54 181.22 137.11 181.06 137.98 Z M 180.87 138.95 L 180.68 139.93 C 180.52 140.79 181.08 141.63 181.95 141.80 C 182.81 141.97 183.65 141.40 183.82 140.53 L 184.01 139.55 C 184.18 138.68 183.61 137.85 182.74 137.68 C 181.88 137.51 181.04 138.08 180.87 138.95 Z M 180.68 139.92 L 180.49 140.89 C 180.31 141.76 180.88 142.60 181.75 142.77 C 182.62 142.94 183.46 142.38 183.63 141.51 L 183.82 140.54 C 184.00 139.67 183.43 138.83 182.56 138.66 C 181.69 138.49 180.85 139.05 180.68 139.92 Z M 180.48 140.88 L 180.29 141.87 C 180.11 142.74 180.68 143.59 181.55 143.76 C 182.42 143.93 183.27 143.37 183.44 142.50 L 183.64 141.51 C 183.81 140.64 183.25 139.79 182.37 139.62 C 181.50 139.45 180.66 140.01 180.48 140.88 Z M 180.28 141.87 L 180.08 142.86 C 179.91 143.73 180.48 144.58 181.35 144.76 C 182.23 144.93 183.08 144.36 183.25 143.48 L 183.45 142.49 C 183.62 141.62 183.05 140.77 182.18 140.60 C 181.30 140.42 180.45 140.99 180.28 141.87 Z M 180.08 142.86 L 179.89 143.82 C 179.72 144.69 180.29 145.55 181.17 145.72 C 182.05 145.89 182.90 145.32 183.07 144.44 L 183.26 143.48 C 183.43 142.60 182.86 141.75 181.98 141.58 C 181.10 141.41 180.25 141.98 180.08 142.86 Z M 179.89 143.81 L 179.69 144.79 C 179.52 145.68 180.09 146.53 180.97 146.70 C 181.85 146.88 182.71 146.30 182.88 145.42 L 183.08 144.44 C 183.25 143.56 182.67 142.71 181.79 142.53 C 180.91 142.36 180.06 142.93 179.89 143.81 Z M 179.69 144.79 L 179.49 145.79 C 179.31 146.68 179.88 147.54 180.76 147.71 C 181.65 147.89 182.51 147.32 182.68 146.44 L 182.89 145.43 C 183.06 144.55 182.49 143.69 181.61 143.51 C 180.73 143.33 179.87 143.90 179.69 144.79 Z M 179.48 145.78 L 179.29 146.72 C 179.11 147.60 179.68 148.47 180.56 148.65 C 181.44 148.83 182.31 148.27 182.49 147.38 L 182.69 146.45 C 182.87 145.56 182.30 144.70 181.42 144.51 C 180.53 144.33 179.67 144.90 179.48 145.78 Z M 179.29 146.71 L 179.09 147.66 C 178.90 148.55 179.47 149.42 180.35 149.61 C 181.24 149.79 182.11 149.23 182.30 148.34 L 182.50 147.39 C 182.68 146.50 182.11 145.63 181.23 145.45 C 180.34 145.26 179.47 145.83 179.29 146.71 Z M 179.08 147.67 L 178.87 148.66 C 178.69 149.55 179.26 150.42 180.15 150.61 C 181.04 150.79 181.91 150.22 182.09 149.33 L 182.30 148.34 C 182.49 147.45 181.92 146.58 181.03 146.39 C 180.14 146.21 179.27 146.78 179.08 147.67 Z M 178.87 148.67 L 178.66 149.70 C 178.48 150.59 179.05 151.46 179.94 151.65 C 180.84 151.83 181.71 151.25 181.89 150.36 L 182.10 149.33 C 182.28 148.44 181.70 147.56 180.81 147.38 C 179.92 147.20 179.05 147.78 178.87 148.67 Z M 178.65 149.71 L 178.46 150.67 C 178.28 151.57 178.87 152.44 179.76 152.61 C 180.66 152.79 181.53 152.21 181.71 151.31 L 181.89 150.35 C 182.07 149.46 181.49 148.59 180.59 148.41 C 179.70 148.23 178.83 148.81 178.65 149.71 Z M 178.45 150.68 L 178.26 151.67 C 178.09 152.57 178.68 153.44 179.58 153.61 C 180.48 153.78 181.35 153.19 181.52 152.30 L 181.71 151.31 C 181.88 150.41 181.30 149.54 180.40 149.36 C 179.50 149.19 178.63 149.78 178.45 150.68 Z M 178.26 151.67 L 178.07 152.67 C 177.90 153.57 178.49 154.44 179.39 154.61 C 180.30 154.78 181.17 154.19 181.34 153.29 L 181.53 152.29 C 181.70 151.39 181.10 150.52 180.20 150.35 C 179.30 150.18 178.43 150.77 178.26 151.67 Z M 178.06 152.67 L 177.88 153.66 C 177.71 154.57 178.31 155.44 179.21 155.61 C 180.12 155.78 180.99 155.18 181.16 154.27 L 181.34 153.29 C 181.51 152.38 180.91 151.51 180.01 151.34 C 179.10 151.17 178.23 151.77 178.06 152.67 Z M 177.88 153.66 L 177.69 154.67 C 177.52 155.58 178.12 156.45 179.03 156.62 C 179.94 156.79 180.81 156.19 180.98 155.28 L 181.16 154.27 C 181.33 153.36 180.73 152.49 179.82 152.32 C 178.91 152.16 178.04 152.76 177.88 153.66 Z M 177.69 154.67 L 177.50 155.66 C 177.34 156.57 177.94 157.45 178.85 157.61 C 179.76 157.78 180.63 157.18 180.80 156.27 L 180.98 155.28 C 181.15 154.37 180.55 153.50 179.64 153.33 C 178.73 153.16 177.85 153.76 177.69 154.67 Z M 177.50 155.66 L 177.32 156.63 C 177.15 157.54 177.75 158.42 178.66 158.59 C 179.57 158.76 180.45 158.16 180.62 157.25 L 180.80 156.28 C 180.97 155.36 180.37 154.49 179.46 154.32 C 178.55 154.15 177.67 154.75 177.50 155.66 Z M 177.32 156.62 L 177.13 157.58 C 176.96 158.50 177.55 159.38 178.47 159.55 C 179.38 159.73 180.26 159.13 180.44 158.22 L 180.62 157.26 C 180.80 156.34 180.20 155.46 179.29 155.29 C 178.38 155.11 177.49 155.71 177.32 156.62 Z M 177.13 157.57 L 176.93 158.55 C 176.75 159.46 177.34 160.35 178.26 160.53 C 179.17 160.71 180.06 160.12 180.24 159.21 L 180.44 158.23 C 180.62 157.32 180.03 156.43 179.12 156.25 C 178.20 156.06 177.31 156.66 177.13 157.57 Z M 176.93 158.53 L 176.73 159.51 C 176.54 160.43 177.12 161.32 178.04 161.51 C 178.95 161.70 179.85 161.12 180.04 160.20 L 180.24 159.22 C 180.43 158.31 179.85 157.42 178.93 157.22 C 178.02 157.03 177.12 157.62 176.93 158.53 Z M 176.73 159.50 L 176.52 160.48 C 176.32 161.39 176.90 162.29 177.81 162.49 C 178.72 162.69 179.63 162.11 179.82 161.20 L 180.04 160.22 C 180.24 159.30 179.66 158.40 178.74 158.20 C 177.83 158.01 176.93 158.59 176.73 159.50 Z M 176.52 160.46 L 176.30 161.44 C 176.09 162.35 176.66 163.26 177.58 163.47 C 178.49 163.67 179.40 163.10 179.60 162.18 L 179.82 161.21 C 180.03 160.30 179.46 159.39 178.54 159.18 C 177.63 158.98 176.72 159.55 176.52 160.46 Z M 176.30 161.42 L 176.07 162.40 C 175.85 163.32 176.42 164.23 177.33 164.45 C 178.25 164.66 179.16 164.09 179.38 163.18 L 179.60 162.20 C 179.82 161.28 179.25 160.37 178.34 160.16 C 177.42 159.94 176.51 160.51 176.30 161.42 Z M 176.07 162.39 L 175.83 163.37 C 175.61 164.28 176.17 165.20 177.09 165.42 C 178.00 165.64 178.92 165.08 179.14 164.16 L 179.37 163.19 C 179.59 162.28 179.03 161.36 178.12 161.14 C 177.21 160.92 176.29 161.48 176.07 162.39 Z M 175.83 163.36 L 175.59 164.32 C 175.37 165.24 175.92 166.16 176.84 166.39 C 177.75 166.61 178.67 166.06 178.90 165.14 L 179.14 164.18 C 179.36 163.26 178.81 162.34 177.90 162.11 C 176.98 161.89 176.06 162.44 175.83 163.36 Z M 175.59 164.31 L 175.35 165.28 C 175.12 166.19 175.67 167.12 176.58 167.35 C 177.49 167.58 178.42 167.03 178.65 166.12 L 178.90 165.15 C 179.13 164.24 178.58 163.31 177.67 163.08 C 176.75 162.85 175.83 163.40 175.59 164.31 Z M 175.35 165.27 L 175.10 166.22 C 174.87 167.14 175.41 168.07 176.33 168.30 C 177.24 168.54 178.17 167.99 178.40 167.08 L 178.65 166.12 C 178.89 165.21 178.34 164.28 177.43 164.04 C 176.52 163.81 175.59 164.36 175.35 165.27 Z M 175.10 166.22 L 174.85 167.18 C 174.61 168.09 175.16 169.02 176.07 169.26 C 176.98 169.50 177.91 168.96 178.15 168.05 L 178.40 167.09 C 178.64 166.18 178.10 165.24 177.19 165.00 C 176.28 164.76 175.34 165.31 175.10 166.22 Z M 174.85 167.17 L 174.59 168.14 C 174.35 169.05 174.90 169.99 175.81 170.23 C 176.72 170.47 177.65 169.93 177.89 169.02 L 178.15 168.05 C 178.39 167.14 177.85 166.20 176.94 165.96 C 176.03 165.72 175.09 166.26 174.85 167.17 Z M 174.59 168.14 L 174.33 169.12 C 174.09 170.03 174.63 170.97 175.54 171.21 C 176.45 171.45 177.39 170.91 177.63 170.00 L 177.89 169.02 C 178.14 168.11 177.60 167.17 176.68 166.93 C 175.77 166.69 174.84 167.23 174.59 168.14 Z M 174.33 169.12 L 174.09 170.03 C 173.85 170.94 174.39 171.88 175.30 172.12 C 176.21 172.36 177.15 171.82 177.39 170.91 L 177.63 170.00 C 177.88 169.09 177.33 168.15 176.42 167.91 C 175.51 167.67 174.57 168.21 174.33 169.12 Z M 174.09 170.03 L 173.84 170.97 C 173.60 171.88 174.14 172.81 175.06 173.06 C 175.97 173.30 176.90 172.75 177.15 171.84 L 177.39 170.90 C 177.64 169.99 177.09 169.06 176.18 168.82 C 175.27 168.57 174.33 169.12 174.09 170.03 Z M 173.84 170.97 L 173.58 171.94 C 173.34 172.86 173.89 173.79 174.80 174.03 C 175.72 174.27 176.65 173.73 176.89 172.81 L 177.15 171.84 C 177.39 170.92 176.84 169.99 175.93 169.75 C 175.02 169.51 174.08 170.06 173.84 170.97 Z M 173.58 171.95 L 173.32 172.97 C 173.08 173.89 173.63 174.82 174.54 175.06 C 175.45 175.30 176.39 174.75 176.63 173.83 L 176.89 172.81 C 177.13 171.90 176.58 170.96 175.67 170.72 C 174.75 170.49 173.82 171.03 173.58 171.95 Z M 173.31 172.98 L 173.07 173.94 C 172.83 174.86 173.38 175.79 174.30 176.03 C 175.21 176.26 176.14 175.71 176.38 174.80 L 176.63 173.83 C 176.86 172.91 176.31 171.98 175.40 171.75 C 174.48 171.51 173.55 172.06 173.31 172.98 Z M 173.06 173.95 L 172.82 174.90 C 172.59 175.82 173.14 176.75 174.06 176.98 C 174.97 177.22 175.90 176.66 176.14 175.75 L 176.38 174.79 C 176.61 173.88 176.06 172.95 175.14 172.71 C 174.23 172.48 173.30 173.03 173.06 173.95 Z M 172.82 174.90 L 172.57 175.88 C 172.34 176.80 172.90 177.73 173.81 177.96 C 174.73 178.19 175.66 177.64 175.89 176.72 L 176.14 175.74 C 176.37 174.83 175.81 173.90 174.90 173.67 C 173.98 173.43 173.05 173.99 172.82 174.90 Z M 172.57 175.88 L 172.32 176.87 C 172.09 177.79 172.65 178.72 173.57 178.95 C 174.48 179.18 175.41 178.62 175.64 177.71 L 175.89 176.72 C 176.12 175.80 175.57 174.87 174.65 174.64 C 173.73 174.41 172.80 174.97 172.57 175.88 Z M 172.32 176.88 L 172.08 177.86 C 171.85 178.78 172.41 179.71 173.32 179.94 C 174.24 180.17 175.17 179.61 175.40 178.69 L 175.64 177.70 C 175.87 176.79 175.32 175.86 174.40 175.63 C 173.48 175.40 172.55 175.96 172.32 176.88 Z M 172.08 177.86 L 171.83 178.85 C 171.60 179.77 172.16 180.70 173.08 180.93 C 174.00 181.16 174.92 180.60 175.15 179.68 L 175.40 178.69 C 175.63 177.77 175.07 176.84 174.15 176.61 C 173.23 176.39 172.30 176.95 172.08 177.86 Z M 171.83 178.85 L 171.58 179.84 C 171.36 180.76 171.92 181.69 172.83 181.91 C 173.75 182.14 174.68 181.58 174.91 180.67 L 175.15 179.68 C 175.38 178.76 174.82 177.83 173.90 177.61 C 172.99 177.38 172.06 177.94 171.83 178.85 Z M 171.59 179.84 L 171.34 180.81 C 171.11 181.72 171.67 182.65 172.58 182.88 C 173.50 183.11 174.43 182.56 174.66 181.64 L 174.91 180.67 C 175.14 179.75 174.58 178.82 173.66 178.59 C 172.75 178.36 171.82 178.92 171.59 179.84 Z M 171.34 180.80 L 171.10 181.76 C 170.86 182.67 171.42 183.61 172.33 183.84 C 173.25 184.07 174.18 183.52 174.41 182.61 L 174.66 181.65 C 174.89 180.73 174.34 179.80 173.43 179.57 C 172.51 179.33 171.58 179.88 171.34 180.80 Z M 171.10 181.75 L 170.85 182.70 C 170.61 183.61 171.16 184.55 172.07 184.79 C 172.98 185.03 173.92 184.48 174.16 183.57 L 174.41 182.62 C 174.65 181.70 174.11 180.77 173.19 180.53 C 172.28 180.29 171.34 180.83 171.10 181.75 Z M 170.86 182.68 L 170.59 183.65 C 170.34 184.56 170.88 185.50 171.79 185.75 C 172.70 186.00 173.64 185.46 173.89 184.55 L 174.16 183.58 C 174.41 182.67 173.87 181.73 172.96 181.48 C 172.05 181.23 171.10 181.77 170.86 182.68 Z M 170.60 183.63 L 170.32 184.60 C 170.06 185.51 170.59 186.46 171.50 186.71 C 172.41 186.97 173.36 186.44 173.61 185.53 L 173.89 184.56 C 174.15 183.65 173.62 182.71 172.71 182.45 C 171.80 182.19 170.85 182.72 170.60 183.63 Z M 170.33 184.59 L 170.04 185.55 C 169.78 186.46 170.30 187.41 171.21 187.67 C 172.11 187.94 173.07 187.42 173.33 186.51 L 173.61 185.55 C 173.88 184.64 173.36 183.69 172.45 183.42 C 171.54 183.16 170.59 183.68 170.33 184.59 Z M 170.05 185.54 L 169.76 186.49 C 169.49 187.40 170.00 188.35 170.91 188.62 C 171.82 188.90 172.77 188.38 173.04 187.48 L 173.33 186.52 C 173.60 185.62 173.08 184.66 172.18 184.39 C 171.27 184.12 170.32 184.63 170.05 185.54 Z M 169.76 186.48 L 169.47 187.43 C 169.20 188.33 169.71 189.29 170.61 189.57 C 171.52 189.84 172.47 189.33 172.75 188.43 L 173.04 187.49 C 173.32 186.58 172.81 185.62 171.90 185.35 C 171.00 185.07 170.04 185.58 169.76 186.48 Z M 169.48 187.42 L 169.18 188.39 C 168.89 189.29 169.40 190.25 170.30 190.53 C 171.20 190.81 172.16 190.31 172.45 189.41 L 172.75 188.44 C 173.03 187.53 172.52 186.57 171.62 186.29 C 170.72 186.01 169.76 186.52 169.48 187.42 Z M 169.18 188.38 L 168.87 189.34 C 168.59 190.24 169.09 191.21 169.99 191.49 C 170.89 191.78 171.85 191.28 172.14 190.38 L 172.44 189.41 C 172.73 188.51 172.23 187.55 171.33 187.26 C 170.43 186.98 169.46 187.48 169.18 188.38 Z M 168.88 189.33 L 168.57 190.28 C 168.28 191.18 168.77 192.15 169.67 192.44 C 170.57 192.73 171.54 192.23 171.83 191.33 L 172.14 190.38 C 172.43 189.48 171.93 188.52 171.03 188.23 C 170.13 187.94 169.17 188.43 168.88 189.33 Z M 168.57 190.27 L 168.26 191.21 C 167.97 192.11 168.46 193.08 169.35 193.37 C 170.25 193.67 171.22 193.18 171.52 192.28 L 171.83 191.34 C 172.12 190.45 171.63 189.48 170.73 189.18 C 169.84 188.89 168.87 189.37 168.57 190.27 Z M 168.27 191.20 L 167.95 192.14 C 167.65 193.03 168.14 194.00 169.03 194.31 C 169.93 194.61 170.90 194.12 171.20 193.23 L 171.51 192.29 C 171.81 191.40 171.33 190.43 170.44 190.12 C 169.54 189.82 168.57 190.31 168.27 191.20 Z M 167.96 192.13 L 167.64 193.07 C 167.33 193.96 167.81 194.94 168.70 195.24 C 169.60 195.55 170.57 195.07 170.88 194.18 L 171.20 193.24 C 171.50 192.34 171.02 191.37 170.13 191.06 C 169.24 190.76 168.26 191.23 167.96 192.13 Z M 167.64 193.06 L 167.31 194.00 C 167.00 194.89 167.48 195.87 168.37 196.18 C 169.26 196.49 170.24 196.01 170.55 195.12 L 170.87 194.18 C 171.18 193.29 170.71 192.31 169.81 192.00 C 168.92 191.70 167.95 192.17 167.64 193.06 Z M 167.32 194.00 L 166.99 194.94 C 166.68 195.84 167.15 196.81 168.04 197.12 C 168.93 197.43 169.91 196.96 170.22 196.07 L 170.55 195.12 C 170.86 194.23 170.38 193.25 169.49 192.94 C 168.60 192.63 167.63 193.11 167.32 194.00 Z M 166.99 194.94 L 166.66 195.90 C 166.35 196.79 166.82 197.77 167.71 198.08 C 168.60 198.39 169.58 197.91 169.89 197.02 L 170.22 196.07 C 170.53 195.17 170.06 194.20 169.16 193.89 C 168.27 193.58 167.30 194.05 166.99 194.94 Z M 166.66 195.90 L 166.34 196.81 C 166.03 197.71 166.51 198.68 167.40 198.99 C 168.29 199.29 169.26 198.82 169.57 197.93 L 169.89 197.02 C 170.19 196.13 169.72 195.15 168.83 194.84 C 167.94 194.54 166.96 195.01 166.66 195.90 Z M 166.34 196.82 L 166.03 197.73 C 165.72 198.63 166.20 199.60 167.09 199.90 C 167.98 200.21 168.95 199.73 169.26 198.84 L 169.57 197.92 C 169.88 197.03 169.40 196.06 168.51 195.76 C 167.62 195.45 166.65 195.93 166.34 196.82 Z M 166.03 197.74 L 165.71 198.68 C 165.41 199.57 165.88 200.54 166.78 200.84 C 167.67 201.15 168.64 200.67 168.94 199.78 L 169.26 198.84 C 169.56 197.94 169.08 196.97 168.19 196.67 C 167.30 196.37 166.33 196.85 166.03 197.74 Z M 165.71 198.68 L 165.38 199.65 C 165.08 200.54 165.56 201.51 166.45 201.81 C 167.35 202.11 168.31 201.63 168.62 200.74 L 168.94 199.77 C 169.24 198.88 168.76 197.91 167.87 197.61 C 166.98 197.31 166.01 197.79 165.71 198.68 Z M 165.38 199.66 L 165.05 200.66 C 164.75 201.55 165.23 202.51 166.13 202.81 C 167.02 203.11 167.98 202.63 168.28 201.73 L 168.62 200.73 C 168.91 199.84 168.43 198.88 167.54 198.58 C 166.65 198.28 165.68 198.76 165.38 199.66 Z M 165.05 200.66 L 164.74 201.61 C 164.44 202.50 164.92 203.46 165.82 203.76 C 166.71 204.05 167.67 203.57 167.97 202.68 L 168.28 201.73 C 168.58 200.84 168.09 199.87 167.20 199.58 C 166.31 199.28 165.34 199.77 165.05 200.66 Z M 164.74 201.61 L 164.42 202.56 C 164.13 203.46 164.61 204.42 165.50 204.71 C 166.39 205.01 167.35 204.52 167.65 203.63 L 167.97 202.67 C 168.26 201.78 167.78 200.82 166.89 200.53 C 165.99 200.23 165.03 200.71 164.74 201.61 Z M 164.42 202.56 L 164.10 203.53 C 163.81 204.42 164.29 205.38 165.18 205.67 C 166.07 205.97 167.03 205.49 167.33 204.60 L 167.65 203.63 C 167.94 202.74 167.46 201.78 166.57 201.49 C 165.68 201.19 164.72 201.67 164.42 202.56 Z M 164.11 203.52 L 163.78 204.48 C 163.49 205.37 163.96 206.33 164.85 206.63 C 165.74 206.93 166.70 206.45 167.00 205.56 L 167.32 204.60 C 167.62 203.71 167.14 202.75 166.26 202.45 C 165.37 202.16 164.40 202.63 164.11 203.52 Z M 163.79 204.47 L 163.47 205.41 C 163.17 206.29 163.64 207.26 164.53 207.56 C 165.41 207.86 166.38 207.39 166.68 206.50 L 167.00 205.57 C 167.30 204.68 166.83 203.72 165.94 203.41 C 165.06 203.11 164.09 203.58 163.79 204.47 Z M 163.48 205.39 L 163.13 206.37 C 162.83 207.25 163.29 208.22 164.17 208.53 C 165.06 208.84 166.02 208.37 166.33 207.49 L 166.67 206.51 C 166.98 205.63 166.52 204.67 165.63 204.36 C 164.75 204.05 163.79 204.51 163.48 205.39 Z M 163.14 206.35 L 162.79 207.33 C 162.47 208.21 162.93 209.18 163.80 209.50 C 164.68 209.82 165.65 209.36 165.97 208.48 L 166.32 207.50 C 166.64 206.62 166.19 205.65 165.31 205.34 C 164.43 205.02 163.46 205.47 163.14 206.35 Z M 162.79 207.32 L 162.45 208.26 C 162.12 209.14 162.57 210.11 163.44 210.43 C 164.31 210.76 165.29 210.31 165.61 209.44 L 165.96 208.50 C 166.29 207.62 165.84 206.65 164.97 206.32 C 164.09 206.00 163.12 206.44 162.79 207.32 Z M 162.45 208.25 L 162.11 209.15 C 161.77 210.03 162.21 211.00 163.08 211.33 C 163.95 211.67 164.93 211.23 165.26 210.36 L 165.61 209.45 C 165.94 208.58 165.50 207.61 164.63 207.27 C 163.76 206.94 162.78 207.38 162.45 208.25 Z M 162.11 209.14 L 161.77 210.02 C 161.43 210.89 161.86 211.87 162.72 212.21 C 163.59 212.55 164.57 212.12 164.91 211.25 L 165.25 210.37 C 165.59 209.50 165.16 208.53 164.30 208.19 C 163.43 207.85 162.45 208.27 162.11 209.14 Z M 161.77 210.01 L 161.39 210.97 C 161.04 211.83 161.46 212.81 162.33 213.16 C 163.19 213.51 164.17 213.09 164.52 212.22 L 164.90 211.26 C 165.25 210.40 164.83 209.42 163.96 209.07 C 163.10 208.73 162.12 209.15 161.77 210.01 Z M 161.40 210.96 L 161.01 211.90 C 160.65 212.76 161.06 213.74 161.92 214.10 C 162.78 214.45 163.76 214.04 164.12 213.18 L 164.51 212.24 C 164.86 211.38 164.45 210.40 163.59 210.04 C 162.74 209.69 161.75 210.10 161.40 210.96 Z M 161.02 211.88 L 160.63 212.80 C 160.26 213.65 160.66 214.64 161.51 215.00 C 162.37 215.36 163.35 214.97 163.72 214.11 L 164.11 213.20 C 164.47 212.35 164.08 211.36 163.22 211.00 C 162.37 210.63 161.38 211.03 161.02 211.88 Z M 160.64 212.77 L 160.25 213.65 C 159.87 214.50 160.26 215.49 161.10 215.87 C 161.95 216.24 162.94 215.86 163.32 215.01 L 163.71 214.14 C 164.08 213.29 163.70 212.30 162.85 211.92 C 162.01 211.55 161.02 211.93 160.64 212.77 Z M 160.27 213.62 L 159.83 214.55 C 159.44 215.39 159.80 216.39 160.64 216.78 C 161.48 217.17 162.48 216.81 162.87 215.97 L 163.30 215.04 C 163.69 214.20 163.33 213.20 162.49 212.81 C 161.65 212.42 160.66 212.79 160.27 213.62 Z M 159.85 214.53 L 159.40 215.44 C 158.99 216.27 159.34 217.27 160.17 217.68 C 161.00 218.08 162.00 217.74 162.40 216.91 L 162.85 216.00 C 163.26 215.17 162.91 214.17 162.08 213.76 C 161.26 213.35 160.25 213.70 159.85 214.53 Z M 159.42 215.42 L 158.97 216.29 C 158.55 217.11 158.88 218.12 159.70 218.54 C 160.52 218.96 161.52 218.63 161.94 217.81 L 162.39 216.94 C 162.81 216.11 162.48 215.11 161.66 214.69 C 160.84 214.27 159.83 214.60 159.42 215.42 Z M 158.98 216.28 L 158.54 217.13 C 158.11 217.94 158.42 218.95 159.23 219.37 C 160.05 219.80 161.05 219.49 161.48 218.68 L 161.93 217.83 C 162.36 217.01 162.04 216.01 161.23 215.58 C 160.42 215.15 159.41 215.46 158.98 216.28 Z M 158.55 217.12 L 158.06 218.01 C 157.63 218.82 157.93 219.83 158.74 220.26 C 159.55 220.69 160.55 220.39 160.99 219.58 L 161.47 218.69 C 161.91 217.88 161.60 216.87 160.80 216.44 C 159.99 216.01 158.98 216.31 158.55 217.12 Z M 158.07 218.01 L 157.60 218.88 C 157.16 219.69 157.46 220.69 158.26 221.13 C 159.06 221.57 160.07 221.27 160.51 220.46 L 160.98 219.59 C 161.42 218.78 161.12 217.78 160.32 217.34 C 159.51 216.90 158.51 217.20 158.07 218.01 Z M 157.60 218.89 L 157.13 219.75 C 156.69 220.56 156.99 221.56 157.80 221.99 C 158.60 222.43 159.60 222.13 160.04 221.32 L 160.51 220.46 C 160.94 219.65 160.64 218.65 159.84 218.22 C 159.03 217.78 158.03 218.08 157.60 218.89 Z M 157.12 219.77 L 156.66 220.64 C 156.24 221.44 156.54 222.44 157.35 222.87 C 158.16 223.30 159.15 222.99 159.58 222.18 L 160.04 221.31 C 160.47 220.51 160.16 219.51 159.36 219.08 C 158.55 218.65 157.55 218.96 157.12 219.77 Z M 156.66 220.65 L 156.20 221.53 C 155.78 222.34 156.10 223.34 156.91 223.76 C 157.72 224.18 158.71 223.86 159.13 223.05 L 159.59 222.17 C 160.01 221.36 159.69 220.36 158.88 219.94 C 158.07 219.52 157.07 219.84 156.66 220.65 Z M 156.19 221.55 L 155.74 222.46 C 155.33 223.27 155.66 224.26 156.47 224.67 C 157.29 225.08 158.28 224.75 158.69 223.93 L 159.14 223.03 C 159.55 222.22 159.22 221.23 158.41 220.82 C 157.59 220.41 156.60 220.74 156.19 221.55 Z M 155.73 222.48 L 155.29 223.38 C 154.89 224.20 155.24 225.18 156.05 225.58 C 156.87 225.98 157.86 225.64 158.25 224.82 L 158.69 223.91 C 159.09 223.10 158.75 222.11 157.93 221.71 C 157.12 221.32 156.13 221.66 155.73 222.48 Z M 155.29 223.40 L 154.86 224.31 C 154.47 225.13 154.82 226.11 155.64 226.50 C 156.46 226.89 157.44 226.53 157.83 225.71 L 158.26 224.80 C 158.64 223.98 158.29 223.00 157.47 222.62 C 156.65 222.23 155.67 222.58 155.29 223.40 Z M 154.85 224.33 L 154.44 225.25 C 154.06 226.07 154.42 227.04 155.25 227.42 C 156.07 227.79 157.04 227.43 157.42 226.61 L 157.83 225.69 C 158.21 224.87 157.85 223.90 157.02 223.52 C 156.20 223.15 155.23 223.51 154.85 224.33 Z M 154.43 225.27 L 154.03 226.19 C 153.67 227.01 154.04 227.98 154.87 228.34 C 155.70 228.70 156.66 228.32 157.02 227.50 L 157.42 226.58 C 157.79 225.76 157.41 224.79 156.58 224.43 C 155.76 224.07 154.79 224.44 154.43 225.27 Z M 154.02 226.21 L 153.63 227.14 C 153.28 227.97 153.67 228.93 154.50 229.28 C 155.33 229.63 156.29 229.24 156.63 228.41 L 157.03 227.47 C 157.38 226.64 156.99 225.69 156.16 225.34 C 155.33 224.99 154.37 225.38 154.02 226.21 Z M 153.63 227.17 L 153.25 228.09 C 152.92 228.92 153.32 229.87 154.15 230.20 C 154.98 230.54 155.93 230.14 156.27 229.30 L 156.64 228.39 C 156.98 227.55 156.57 226.61 155.74 226.27 C 154.91 225.93 153.96 226.33 153.63 227.17 Z M 153.25 228.11 L 152.89 229.02 C 152.57 229.86 152.98 230.80 153.81 231.12 C 154.65 231.45 155.59 231.04 155.91 230.20 L 156.27 229.28 C 156.60 228.45 156.19 227.51 155.35 227.18 C 154.52 226.86 153.58 227.27 153.25 228.11 Z M 152.89 229.04 L 152.53 229.98 C 152.21 230.81 152.63 231.74 153.47 232.06 C 154.30 232.38 155.23 231.96 155.55 231.13 L 155.91 230.19 C 156.23 229.36 155.81 228.42 154.98 228.10 C 154.15 227.78 153.21 228.20 152.89 229.04 Z M 152.54 229.97 L 152.18 230.91 C 151.86 231.74 152.27 232.67 153.10 232.99 C 153.94 233.31 154.87 232.90 155.19 232.07 L 155.55 231.13 C 155.87 230.30 155.45 229.37 154.62 229.05 C 153.79 228.73 152.86 229.14 152.54 229.97 Z M 152.19 230.89 L 151.82 231.81 C 151.49 232.64 151.89 233.57 152.72 233.90 C 153.54 234.23 154.48 233.83 154.81 233.01 L 155.18 232.09 C 155.51 231.26 155.11 230.33 154.28 229.99 C 153.46 229.66 152.52 230.07 152.19 230.89 Z M 151.84 231.78 L 151.44 232.72 C 151.09 233.53 151.47 234.48 152.29 234.82 C 153.10 235.17 154.04 234.79 154.39 233.98 L 154.79 233.04 C 155.14 232.22 154.76 231.28 153.94 230.93 C 153.13 230.59 152.19 230.97 151.84 231.78 Z M 151.45 232.70 L 151.05 233.61 C 150.69 234.41 151.05 235.36 151.86 235.72 C 152.66 236.08 153.61 235.72 153.97 234.91 L 154.38 234.00 C 154.74 233.19 154.37 232.25 153.57 231.89 C 152.76 231.53 151.81 231.89 151.45 232.70 Z M 151.06 233.60 L 150.65 234.49 C 150.28 235.29 150.63 236.24 151.43 236.61 C 152.23 236.97 153.18 236.62 153.55 235.82 L 153.96 234.92 C 154.32 234.12 153.97 233.18 153.17 232.81 C 152.37 232.44 151.42 232.79 151.06 233.60 Z M 150.66 234.48 L 150.22 235.42 C 149.85 236.21 150.20 237.16 150.99 237.53 C 151.79 237.90 152.73 237.55 153.10 236.76 L 153.54 235.83 C 153.91 235.03 153.56 234.08 152.77 233.71 C 151.97 233.34 151.03 233.69 150.66 234.48 Z M 150.24 235.40 L 149.80 236.29 C 149.42 237.08 149.75 238.03 150.54 238.41 C 151.33 238.79 152.28 238.46 152.66 237.67 L 153.09 236.78 C 153.47 235.99 153.14 235.04 152.35 234.66 C 151.57 234.28 150.62 234.61 150.24 235.40 Z M 149.83 236.25 L 149.37 237.13 C 148.97 237.90 149.27 238.85 150.05 239.26 C 150.82 239.66 151.78 239.36 152.18 238.58 L 152.63 237.71 C 153.04 236.93 152.73 235.98 151.96 235.58 C 151.18 235.17 150.23 235.48 149.83 236.25 Z M 149.41 237.08 L 148.91 237.95 C 148.48 238.70 148.75 239.66 149.50 240.09 C 150.26 240.52 151.22 240.26 151.65 239.50 L 152.15 238.63 C 152.58 237.88 152.31 236.91 151.56 236.48 C 150.80 236.05 149.84 236.32 149.41 237.08 Z M 148.95 237.90 L 148.43 238.74 C 147.97 239.48 148.20 240.44 148.93 240.90 C 149.67 241.36 150.64 241.13 151.09 240.39 L 151.62 239.55 C 152.07 238.81 151.85 237.85 151.11 237.39 C 150.37 236.93 149.41 237.16 148.95 237.90 Z M 148.46 238.70 L 147.89 239.56 C 147.41 240.27 147.60 241.24 148.32 241.72 C 149.04 242.20 150.01 242.01 150.49 241.29 L 151.06 240.43 C 151.54 239.72 151.35 238.75 150.63 238.27 C 149.91 237.79 148.94 237.98 148.46 238.70 Z M 147.93 239.51 L 147.34 240.32 C 146.84 241.02 147.00 241.99 147.69 242.49 C 148.39 243.00 149.36 242.84 149.86 242.14 L 150.45 241.33 C 150.95 240.64 150.79 239.67 150.10 239.16 C 149.40 238.66 148.43 238.82 147.93 239.51 Z M 147.40 240.27 L 146.77 241.05 C 146.24 241.72 146.35 242.69 147.01 243.22 C 147.68 243.76 148.65 243.65 149.18 242.98 L 149.81 242.20 C 150.34 241.53 150.23 240.56 149.57 240.03 C 148.90 239.49 147.93 239.60 147.40 240.27 Z M 146.83 241.00 L 146.18 241.73 C 145.61 242.37 145.67 243.34 146.30 243.90 C 146.94 244.46 147.91 244.41 148.47 243.77 L 149.13 243.04 C 149.69 242.40 149.63 241.43 149.00 240.87 C 148.36 240.30 147.39 240.36 146.83 241.00 Z M 146.20 241.72 L 145.54 242.43 C 144.97 243.06 145.02 244.02 145.64 244.59 C 146.26 245.16 147.23 245.12 147.80 244.50 L 148.45 243.78 C 149.02 243.16 148.98 242.19 148.36 241.62 C 147.73 241.05 146.77 241.10 146.20 241.72 Z M 145.54 242.45 L 144.87 243.19 C 144.30 243.82 144.36 244.79 144.98 245.35 C 145.61 245.91 146.58 245.86 147.14 245.23 L 147.81 244.48 C 148.37 243.86 148.32 242.89 147.69 242.33 C 147.06 241.77 146.10 241.82 145.54 242.45 Z M 144.86 243.21 L 144.20 243.96 C 143.65 244.59 143.71 245.56 144.34 246.11 C 144.98 246.66 145.94 246.60 146.49 245.97 L 147.15 245.21 C 147.70 244.58 147.64 243.62 147.01 243.07 C 146.37 242.51 145.41 242.58 144.86 243.21 Z M 144.19 243.98 L 143.54 244.74 C 142.99 245.38 143.07 246.34 143.71 246.89 C 144.35 247.43 145.31 247.35 145.86 246.71 L 146.51 245.95 C 147.05 245.31 146.97 244.35 146.33 243.80 C 145.69 243.26 144.73 243.34 144.19 243.98 Z M 143.52 244.76 L 142.89 245.54 C 142.35 246.19 142.45 247.15 143.10 247.68 C 143.75 248.21 144.71 248.12 145.24 247.47 L 145.88 246.69 C 146.41 246.04 146.31 245.08 145.66 244.55 C 145.01 244.02 144.05 244.11 143.52 244.76 Z M 142.87 245.56 L 142.25 246.35 C 141.73 247.01 141.85 247.96 142.51 248.48 C 143.17 249.00 144.12 248.89 144.64 248.23 L 145.26 247.44 C 145.78 246.78 145.66 245.83 145.00 245.31 C 144.34 244.79 143.39 244.90 142.87 245.56 Z M 142.24 246.37 L 141.63 247.17 C 141.12 247.83 141.25 248.79 141.92 249.30 C 142.58 249.80 143.54 249.68 144.05 249.01 L 144.66 248.21 C 145.16 247.54 145.03 246.59 144.37 246.08 C 143.70 245.57 142.75 245.70 142.24 246.37 Z M 141.62 247.18 L 141.03 247.97 C 140.53 248.65 140.67 249.60 141.35 250.10 C 142.02 250.60 142.97 250.46 143.47 249.78 L 144.06 248.99 C 144.56 248.32 144.42 247.37 143.74 246.87 C 143.07 246.37 142.12 246.51 141.62 247.18 Z M 141.02 247.99 L 140.43 248.81 C 139.93 249.49 140.08 250.44 140.76 250.93 C 141.44 251.42 142.39 251.27 142.88 250.59 L 143.48 249.77 C 143.97 249.09 143.82 248.14 143.14 247.65 C 142.47 247.16 141.52 247.31 141.02 247.99 Z M 140.42 248.82 L 139.83 249.63 C 139.35 250.31 139.50 251.26 140.18 251.75 C 140.86 252.24 141.81 252.09 142.30 251.41 L 142.89 250.59 C 143.37 249.91 143.22 248.96 142.54 248.47 C 141.86 247.98 140.91 248.14 140.42 248.82 Z M 139.84 249.63 L 139.25 250.45 C 138.76 251.13 138.91 252.08 139.59 252.57 C 140.27 253.06 141.21 252.90 141.70 252.22 L 142.29 251.41 C 142.78 250.73 142.63 249.78 141.95 249.29 C 141.27 248.80 140.33 248.95 139.84 249.63 Z M 139.26 250.44 L 138.66 251.25 C 138.16 251.92 138.31 252.87 138.98 253.37 C 139.66 253.86 140.60 253.72 141.10 253.05 L 141.69 252.24 C 142.19 251.56 142.05 250.61 141.37 250.12 C 140.70 249.62 139.75 249.77 139.26 250.44 Z M 138.68 251.23 L 138.06 252.04 C 137.55 252.70 137.68 253.65 138.35 254.16 C 139.01 254.66 139.96 254.54 140.47 253.87 L 141.08 253.07 C 141.59 252.40 141.46 251.45 140.80 250.95 C 140.13 250.44 139.18 250.57 138.68 251.23 Z M 138.08 252.01 L 137.48 252.77 C 136.96 253.42 137.06 254.37 137.72 254.89 C 138.37 255.41 139.32 255.31 139.84 254.65 L 140.45 253.90 C 140.97 253.24 140.86 252.29 140.21 251.77 C 139.55 251.25 138.60 251.36 138.08 252.01 Z M 137.50 252.74 L 136.85 253.53 C 136.31 254.17 136.40 255.12 137.04 255.65 C 137.68 256.19 138.63 256.10 139.17 255.46 L 139.82 254.68 C 140.35 254.04 140.27 253.09 139.63 252.55 C 138.99 252.02 138.04 252.10 137.50 252.74 Z M 136.87 253.51 L 136.22 254.25 C 135.68 254.88 135.75 255.84 136.38 256.38 C 137.01 256.93 137.96 256.86 138.50 256.23 L 139.15 255.48 C 139.69 254.85 139.62 253.90 138.99 253.35 C 138.36 252.81 137.41 252.88 136.87 253.51 Z M 136.23 254.24 L 135.57 255.00 C 135.02 255.62 135.07 256.57 135.70 257.12 C 136.32 257.67 137.27 257.61 137.83 256.99 L 138.49 256.24 C 139.04 255.61 138.98 254.66 138.36 254.11 C 137.74 253.56 136.78 253.62 136.23 254.24 Z M 135.59 254.98 L 134.92 255.71 C 134.36 256.32 134.40 257.27 135.01 257.84 C 135.63 258.40 136.58 258.35 137.14 257.74 L 137.81 257.01 C 138.37 256.40 138.33 255.44 137.71 254.88 C 137.10 254.32 136.15 254.36 135.59 254.98 Z M 134.94 255.68 L 134.24 256.41 C 133.67 257.01 133.69 257.96 134.29 258.54 C 134.89 259.11 135.84 259.09 136.41 258.50 L 137.11 257.77 C 137.69 257.17 137.67 256.21 137.07 255.64 C 136.47 255.07 135.52 255.09 134.94 255.68 Z M 134.26 256.40 L 133.56 257.10 C 132.98 257.69 132.99 258.64 133.58 259.22 C 134.16 259.81 135.11 259.80 135.70 259.21 L 136.39 258.51 C 136.98 257.92 136.97 256.97 136.38 256.39 C 135.79 255.81 134.84 255.81 134.26 256.40 Z M 133.58 257.09 L 132.91 257.76 C 132.32 258.34 132.32 259.29 132.90 259.87 C 133.49 260.46 134.43 260.47 135.02 259.88 L 135.69 259.22 C 136.28 258.64 136.28 257.69 135.69 257.10 C 135.11 256.51 134.16 256.51 133.58 257.09 Z M 132.94 257.73 L 132.17 258.46 C 131.57 259.02 131.54 259.97 132.11 260.57 C 132.68 261.17 133.62 261.20 134.22 260.63 L 134.99 259.91 C 135.59 259.34 135.62 258.39 135.05 257.79 C 134.49 257.19 133.54 257.16 132.94 257.73 Z M 132.21 258.43 L 131.47 259.08 C 130.85 259.62 130.80 260.57 131.34 261.19 C 131.89 261.80 132.83 261.86 133.45 261.31 L 134.19 260.66 C 134.81 260.11 134.86 259.17 134.32 258.55 C 133.77 257.93 132.82 257.88 132.21 258.43 Z M 131.51 259.04 L 130.72 259.70 C 130.08 260.22 129.99 261.16 130.51 261.80 C 131.04 262.44 131.98 262.53 132.62 262.00 L 133.41 261.35 C 134.05 260.82 134.14 259.88 133.61 259.25 C 133.09 258.61 132.15 258.52 131.51 259.04 Z M 130.79 259.65 L 129.95 260.25 C 129.29 260.74 129.14 261.67 129.62 262.34 C 130.10 263.00 131.03 263.15 131.70 262.67 L 132.54 262.06 C 133.21 261.57 133.36 260.64 132.87 259.98 C 132.39 259.31 131.46 259.16 130.79 259.65 Z M 130.10 260.17 L 129.23 260.66 C 128.51 261.06 128.26 261.96 128.66 262.68 C 129.06 263.39 129.97 263.65 130.68 263.25 L 131.55 262.76 C 132.27 262.35 132.52 261.45 132.12 260.73 C 131.72 260.02 130.81 259.76 130.10 260.17 Z M 129.45 260.56 L 128.51 260.90 C 127.74 261.18 127.34 262.03 127.62 262.80 C 127.90 263.56 128.75 263.96 129.52 263.68 L 130.46 263.34 C 131.23 263.06 131.62 262.22 131.34 261.45 C 131.07 260.68 130.22 260.28 129.45 260.56 Z M 128.91 260.82 L 127.92 260.89 C 127.11 260.95 126.49 261.65 126.55 262.46 C 126.61 263.27 127.31 263.88 128.12 263.83 L 129.11 263.76 C 129.92 263.70 130.54 263.00 130.48 262.19 C 130.42 261.38 129.72 260.77 128.91 260.82 Z M 129.12 261.41 L 128.61 260.81 C 128.08 260.20 127.16 260.13 126.55 260.65 C 125.94 261.17 125.87 262.09 126.39 262.70 L 126.91 263.31 C 127.43 263.92 128.35 263.99 128.96 263.47 C 129.58 262.94 129.65 262.02 129.12 261.41 Z M 128.93 261.61 L 128.84 260.76 C 128.76 259.97 128.06 259.39 127.27 259.47 C 126.48 259.55 125.90 260.26 125.98 261.05 L 126.07 261.90 C 126.15 262.69 126.85 263.27 127.64 263.19 C 128.43 263.11 129.01 262.40 128.93 261.61 Z"
      fill="black"
      fill-rule="nonzero" /></svg>