<svg xmlns="http://www.w3.org/2000/svg" width="300" height="300" viewBox="0 0 300 300">
<path d="M 198.05 95.18 L 197.55 94.24 C 197.10 93.38 196.04 93.06 195.19 93.51 C 194.33 93.96 194.00 95.02 194.45 95.87 L 194.95 96.82 C 195.40 97.67 196.46 98.00 197.32 97.55 C 198.17 97.10 198.50 96.04 198.05 95.18 Z M 197.55 94.24 L 197.06 93.30 C 196.61 92.44 195.55 92.11 194.69 92.57 C 193.83 93.02 193.51 94.08 193.96 94.93 L 194.45 95.87 C 194.90 96.73 195.96 97.06 196.82 96.61 C 197.68 96.16 198.00 95.10 197.55 94.24 Z M 197.06 93.30 L 196.57 92.36 C 196.11 91.51 195.05 91.18 194.20 91.63 C 193.34 92.08 193.01 93.14 193.47 94.00 L 193.96 94.93 C 194.41 95.79 195.47 96.12 196.33 95.67 C 197.18 95.21 197.51 94.15 197.06 93.30 Z M 196.57 92.36 L 196.08 91.44 C 195.62 90.58 194.56 90.26 193.71 90.71 C 192.85 91.16 192.53 92.22 192.98 93.08 L 193.47 94.00 C 193.92 94.86 194.98 95.19 195.84 94.73 C 196.69 94.28 197.02 93.22 196.57 92.36 Z M 196.08 91.44 L 195.60 90.53 C 195.14 89.68 194.08 89.35 193.22 89.80 C 192.37 90.26 192.04 91.32 192.50 92.18 L 192.98 93.08 C 193.43 93.94 194.49 94.26 195.35 93.81 C 196.21 93.36 196.53 92.29 196.08 91.44 Z M 195.59 90.53 L 195.12 89.64 C 194.67 88.78 193.60 88.46 192.75 88.92 C 191.89 89.37 191.57 90.44 192.02 91.29 L 192.50 92.18 C 192.95 93.03 194.02 93.36 194.87 92.90 C 195.73 92.45 196.05 91.38 195.59 90.53 Z M 195.12 89.64 L 194.66 88.77 C 194.20 87.92 193.13 87.59 192.28 88.05 C 191.43 88.51 191.10 89.57 191.56 90.43 L 192.03 91.29 C 192.48 92.15 193.55 92.47 194.40 92.01 C 195.26 91.55 195.58 90.49 195.12 89.64 Z M 194.65 88.77 L 194.20 87.93 C 193.74 87.07 192.67 86.75 191.82 87.21 C 190.97 87.67 190.65 88.74 191.11 89.59 L 191.56 90.43 C 192.02 91.29 193.09 91.60 193.94 91.14 C 194.80 90.68 195.11 89.62 194.65 88.77 Z M 194.20 87.92 L 193.76 87.11 C 193.29 86.26 192.23 85.94 191.37 86.41 C 190.52 86.87 190.21 87.94 190.67 88.79 L 191.11 89.60 C 191.58 90.45 192.64 90.77 193.49 90.30 C 194.35 89.84 194.66 88.77 194.20 87.92 Z M 193.75 87.10 L 193.33 86.33 C 192.86 85.48 191.79 85.16 190.94 85.63 C 190.09 86.10 189.78 87.17 190.25 88.02 L 190.67 88.79 C 191.14 89.65 192.21 89.96 193.06 89.49 C 193.91 89.02 194.22 87.95 193.75 87.10 Z M 193.32 86.32 L 192.77 85.32 C 192.30 84.48 191.23 84.17 190.38 84.64 C 189.53 85.12 189.23 86.19 189.70 87.04 L 190.25 88.03 C 190.72 88.88 191.79 89.18 192.64 88.71 C 193.49 88.23 193.80 87.16 193.32 86.32 Z M 192.76 85.31 L 192.23 84.37 C 191.75 83.52 190.67 83.23 189.83 83.71 C 188.98 84.19 188.69 85.26 189.17 86.10 L 189.71 87.05 C 190.19 87.89 191.26 88.19 192.10 87.71 C 192.95 87.23 193.24 86.16 192.76 85.31 Z M 192.22 84.35 L 191.70 83.46 C 191.21 82.62 190.13 82.33 189.29 82.82 C 188.45 83.31 188.17 84.39 188.66 85.23 L 189.18 86.12 C 189.67 86.96 190.74 87.24 191.58 86.76 C 192.42 86.27 192.71 85.19 192.22 84.35 Z M 191.69 83.44 L 191.18 82.59 C 190.68 81.76 189.60 81.49 188.77 81.99 C 187.93 82.49 187.66 83.57 188.16 84.40 L 188.67 85.25 C 189.17 86.08 190.25 86.35 191.08 85.85 C 191.92 85.36 192.19 84.27 191.69 83.44 Z M 191.17 82.57 L 190.67 81.76 C 190.16 80.93 189.08 80.68 188.25 81.19 C 187.42 81.70 187.16 82.79 187.67 83.61 L 188.17 84.42 C 188.68 85.25 189.77 85.51 190.60 85.00 C 191.43 84.49 191.68 83.40 191.17 82.57 Z M 190.66 81.74 L 190.16 80.96 C 189.64 80.14 188.55 79.90 187.73 80.42 C 186.91 80.94 186.67 82.03 187.19 82.86 L 187.69 83.64 C 188.21 84.46 189.30 84.70 190.12 84.17 C 190.94 83.65 191.18 82.56 190.66 81.74 Z M 190.15 80.94 L 189.64 80.17 C 189.11 79.36 188.01 79.14 187.20 79.67 C 186.39 80.21 186.16 81.31 186.70 82.12 L 187.20 82.88 C 187.74 83.69 188.83 83.92 189.65 83.38 C 190.46 82.84 190.68 81.75 190.15 80.94 Z M 189.63 80.15 L 189.08 79.35 C 188.53 78.54 187.43 78.34 186.63 78.89 C 185.82 79.44 185.62 80.54 186.17 81.35 L 186.72 82.14 C 187.27 82.95 188.37 83.15 189.17 82.60 C 189.97 82.05 190.18 80.95 189.63 80.15 Z M 189.06 79.32 L 188.48 78.50 C 187.91 77.71 186.81 77.52 186.01 78.09 C 185.22 78.66 185.03 79.76 185.60 80.55 L 186.19 81.37 C 186.75 82.17 187.86 82.35 188.65 81.79 C 189.45 81.22 189.63 80.11 189.06 79.32 Z M 188.46 78.47 L 187.85 77.66 C 187.27 76.88 186.16 76.72 185.38 77.30 C 184.59 77.89 184.43 79.00 185.02 79.78 L 185.62 80.59 C 186.21 81.37 187.32 81.53 188.10 80.94 C 188.88 80.36 189.04 79.25 188.46 78.47 Z M 187.83 77.63 L 187.21 76.84 C 186.60 76.07 185.49 75.94 184.72 76.54 C 183.95 77.15 183.82 78.26 184.42 79.03 L 185.04 79.82 C 185.65 80.59 186.76 80.72 187.53 80.11 C 188.30 79.51 188.43 78.39 187.83 77.63 Z M 187.18 76.80 L 186.54 76.03 C 185.91 75.28 184.79 75.18 184.04 75.80 C 183.29 76.43 183.19 77.55 183.81 78.30 L 184.45 79.07 C 185.08 79.82 186.20 79.93 186.95 79.30 C 187.70 78.67 187.81 77.55 187.18 76.80 Z M 186.51 75.99 L 185.85 75.25 C 185.20 74.51 184.08 74.44 183.34 75.09 C 182.61 75.74 182.54 76.87 183.19 77.60 L 183.85 78.34 C 184.50 79.08 185.62 79.15 186.36 78.50 C 187.09 77.85 187.16 76.72 186.51 75.99 Z M 185.81 75.20 L 185.13 74.48 C 184.46 73.77 183.33 73.74 182.62 74.41 C 181.90 75.09 181.87 76.22 182.55 76.93 L 183.23 77.65 C 183.90 78.36 185.03 78.39 185.74 77.72 C 186.46 77.04 186.49 75.91 185.81 75.20 Z M 185.09 74.43 L 184.37 73.73 C 183.67 73.04 182.54 73.05 181.85 73.75 C 181.16 74.45 181.17 75.58 181.87 76.27 L 182.59 76.98 C 183.29 77.67 184.42 77.66 185.11 76.96 C 185.80 76.25 185.79 75.12 185.09 74.43 Z M 184.32 73.67 L 183.58 73.00 C 182.85 72.34 181.72 72.40 181.05 73.13 C 180.39 73.86 180.45 74.99 181.18 75.66 L 181.92 76.33 C 182.66 76.99 183.79 76.94 184.45 76.20 C 185.11 75.47 185.06 74.34 184.32 73.67 Z M 183.52 72.95 L 182.76 72.31 C 181.99 71.68 180.86 71.79 180.23 72.55 C 179.60 73.32 179.70 74.45 180.47 75.08 L 181.24 75.71 C 182.00 76.35 183.13 76.24 183.77 75.47 C 184.40 74.71 184.29 73.58 183.52 72.95 Z M 182.69 72.25 L 181.89 71.66 C 181.10 71.06 179.97 71.22 179.37 72.02 C 178.78 72.82 178.94 73.95 179.74 74.54 L 180.53 75.14 C 181.33 75.73 182.46 75.57 183.06 74.77 C 183.65 73.98 183.49 72.85 182.69 72.25 Z M 181.82 71.60 L 180.99 71.04 C 180.16 70.49 179.04 70.71 178.49 71.54 C 177.93 72.37 178.15 73.49 178.98 74.05 L 179.81 74.60 C 180.64 75.16 181.76 74.93 182.32 74.10 C 182.87 73.27 182.65 72.15 181.82 71.60 Z M 180.91 70.99 L 180.05 70.48 C 179.19 69.97 178.08 70.25 177.57 71.11 C 177.06 71.97 177.34 73.09 178.20 73.60 L 179.06 74.11 C 179.93 74.62 181.04 74.33 181.55 73.47 C 182.06 72.61 181.77 71.49 180.91 70.99 Z M 179.96 70.42 L 179.07 69.96 C 178.18 69.50 177.08 69.85 176.62 70.74 C 176.16 71.63 176.51 72.73 177.40 73.19 L 178.29 73.65 C 179.18 74.11 180.28 73.76 180.74 72.87 C 181.20 71.98 180.85 70.88 179.96 70.42 Z M 178.98 69.91 L 178.07 69.50 C 177.15 69.09 176.07 69.50 175.66 70.42 C 175.25 71.34 175.66 72.42 176.58 72.83 L 177.49 73.24 C 178.41 73.65 179.49 73.24 179.90 72.32 C 180.31 71.40 179.90 70.32 178.98 69.91 Z M 177.99 69.46 L 177.05 69.09 C 176.11 68.73 175.05 69.19 174.68 70.13 C 174.31 71.08 174.78 72.14 175.72 72.51 L 176.66 72.87 C 177.60 73.24 178.66 72.77 179.03 71.83 C 179.40 70.89 178.93 69.83 177.99 69.46 Z M 176.98 69.06 L 176.02 68.74 C 175.06 68.41 174.02 68.93 173.69 69.89 C 173.37 70.85 173.88 71.89 174.84 72.22 L 175.80 72.54 C 176.76 72.87 177.80 72.35 178.13 71.39 C 178.45 70.43 177.94 69.39 176.98 69.06 Z M 175.95 68.71 L 174.99 68.43 C 174.01 68.14 172.99 68.70 172.70 69.67 C 172.41 70.65 172.97 71.68 173.95 71.96 L 174.91 72.25 C 175.89 72.53 176.91 71.97 177.20 71.00 C 177.49 70.02 176.93 69.00 175.95 68.71 Z M 174.92 68.40 L 173.96 68.16 C 172.97 67.91 171.96 68.51 171.71 69.50 C 171.46 70.49 172.06 71.49 173.05 71.74 L 174.01 71.99 C 175.00 72.24 176.01 71.64 176.26 70.65 C 176.51 69.66 175.91 68.65 174.92 68.40 Z M 173.89 68.14 L 172.93 67.93 C 171.93 67.71 170.94 68.35 170.73 69.35 C 170.51 70.35 171.15 71.34 172.15 71.55 L 173.11 71.76 C 174.11 71.98 175.10 71.34 175.32 70.34 C 175.53 69.34 174.90 68.35 173.89 68.14 Z M 172.87 67.91 L 171.88 67.73 C 170.87 67.55 169.90 68.22 169.72 69.23 C 169.53 70.24 170.21 71.21 171.22 71.40 L 172.21 71.57 C 173.22 71.76 174.19 71.09 174.37 70.07 C 174.56 69.06 173.88 68.09 172.87 67.91 Z M 171.83 67.71 L 170.84 67.57 C 169.82 67.41 168.87 68.12 168.72 69.14 C 168.57 70.17 169.27 71.12 170.30 71.27 L 171.28 71.41 C 172.30 71.57 173.25 70.86 173.40 69.84 C 173.55 68.81 172.85 67.86 171.83 67.71 Z M 170.79 67.55 L 169.81 67.43 C 168.78 67.31 167.84 68.05 167.72 69.08 C 167.60 70.11 168.34 71.05 169.37 71.17 L 170.35 71.29 C 171.38 71.41 172.32 70.67 172.44 69.64 C 172.56 68.61 171.82 67.67 170.79 67.55 Z M 169.76 67.42 L 168.77 67.33 C 167.73 67.24 166.82 68.00 166.72 69.04 C 166.63 70.08 167.39 71.00 168.43 71.09 L 169.42 71.18 C 170.46 71.28 171.38 70.51 171.47 69.47 C 171.57 68.43 170.80 67.51 169.76 67.42 Z M 168.73 67.32 L 167.73 67.25 C 166.69 67.18 165.78 67.97 165.71 69.01 C 165.64 70.06 166.43 70.97 167.48 71.04 L 168.47 71.11 C 169.52 71.18 170.43 70.39 170.50 69.34 C 170.57 68.30 169.78 67.39 168.73 67.32 Z M 167.70 67.24 L 166.68 67.19 C 165.63 67.14 164.74 67.95 164.68 69.00 C 164.63 70.05 165.44 70.95 166.49 71.00 L 167.51 71.05 C 168.56 71.10 169.46 70.29 169.51 69.24 C 169.56 68.19 168.75 67.29 167.70 67.24 Z M 166.66 67.18 L 165.68 67.14 C 164.62 67.11 163.74 67.93 163.70 68.99 C 163.66 70.05 164.49 70.94 165.54 70.97 L 166.52 71.01 C 167.58 71.05 168.47 70.22 168.50 69.16 C 168.54 68.10 167.71 67.22 166.66 67.18 Z M 165.66 67.14 L 164.69 67.11 C 163.62 67.08 162.74 67.92 162.71 68.99 C 162.69 70.05 163.53 70.93 164.59 70.96 L 165.56 70.98 C 166.63 71.01 167.51 70.17 167.54 69.11 C 167.56 68.04 166.72 67.16 165.66 67.14 Z M 164.67 67.10 L 163.68 67.09 C 162.61 67.07 161.73 67.92 161.71 68.99 C 161.70 70.05 162.55 70.93 163.61 70.95 L 164.60 70.97 C 165.67 70.98 166.55 70.13 166.57 69.07 C 166.59 68.00 165.74 67.12 164.67 67.10 Z M 163.67 67.08 L 162.66 67.07 C 161.59 67.06 160.71 67.92 160.70 68.99 C 160.69 70.06 161.55 70.94 162.62 70.95 L 163.63 70.96 C 164.70 70.97 165.58 70.11 165.59 69.04 C 165.60 67.97 164.74 67.09 163.67 67.08 Z M 162.65 67.06 L 161.64 67.05 C 160.56 67.05 159.68 67.92 159.68 68.99 C 159.67 70.07 160.54 70.95 161.62 70.95 L 162.63 70.96 C 163.71 70.96 164.58 70.09 164.59 69.02 C 164.60 67.94 163.73 67.06 162.65 67.06 Z M 161.63 67.05 L 160.61 67.04 C 159.53 67.04 158.65 67.92 158.65 69.00 C 158.65 70.08 159.52 70.96 160.60 70.96 L 161.62 70.96 C 162.70 70.96 163.58 70.09 163.59 69.01 C 163.59 67.93 162.71 67.05 161.63 67.05 Z M 160.61 67.04 L 159.58 67.03 C 158.50 67.03 157.62 67.91 157.62 69.00 C 157.62 70.08 158.50 70.96 159.58 70.97 L 160.61 70.97 C 161.69 70.97 162.57 70.09 162.57 69.00 C 162.57 67.92 161.69 67.04 160.61 67.04 Z M 159.58 67.03 L 158.60 67.03 C 157.51 67.03 156.63 67.92 156.63 69.00 C 156.63 70.09 157.51 70.97 158.60 70.97 L 159.59 70.97 C 160.68 70.97 161.56 70.09 161.56 69.00 C 161.55 67.91 160.67 67.03 159.58 67.03 Z M 158.58 67.03 L 157.60 67.04 C 156.51 67.05 155.63 67.94 155.64 69.03 C 155.65 70.12 156.55 71.00 157.64 70.98 L 158.62 70.97 C 159.71 70.96 160.58 70.07 160.57 68.98 C 160.56 67.89 159.67 67.02 158.58 67.03 Z M 157.56 67.04 L 156.57 67.06 C 155.48 67.10 154.62 68.01 154.65 69.10 C 154.69 70.19 155.60 71.05 156.69 71.02 L 157.67 70.99 C 158.76 70.95 159.62 70.04 159.59 68.95 C 159.56 67.86 158.65 67.00 157.56 67.04 Z M 156.52 67.06 L 155.53 67.12 C 154.44 67.18 153.60 68.12 153.66 69.21 C 153.73 70.30 154.66 71.13 155.75 71.07 L 156.74 71.02 C 157.83 70.95 158.67 70.02 158.61 68.93 C 158.54 67.84 157.61 67.00 156.52 67.06 Z M 155.45 67.12 L 154.46 67.22 C 153.37 67.32 152.57 68.29 152.67 69.38 C 152.78 70.47 153.74 71.27 154.83 71.16 L 155.83 71.07 C 156.92 70.97 157.72 70.00 157.61 68.91 C 157.51 67.82 156.54 67.02 155.45 67.12 Z M 154.37 67.23 L 153.36 67.37 C 152.28 67.52 151.53 68.53 151.68 69.61 C 151.83 70.70 152.84 71.45 153.92 71.30 L 154.92 71.16 C 156.01 71.00 156.76 70.00 156.61 68.91 C 156.45 67.83 155.45 67.07 154.37 67.23 Z M 153.26 67.39 L 152.25 67.58 C 151.17 67.80 150.47 68.84 150.68 69.92 C 150.90 70.99 151.94 71.69 153.02 71.48 L 154.03 71.28 C 155.10 71.07 155.80 70.03 155.59 68.95 C 155.38 67.87 154.33 67.17 153.26 67.39 Z M 152.14 67.61 L 151.24 67.84 C 150.18 68.11 149.54 69.19 149.81 70.26 C 150.08 71.32 151.17 71.96 152.23 71.69 L 153.13 71.46 C 154.19 71.19 154.83 70.10 154.56 69.04 C 154.29 67.98 153.20 67.33 152.14 67.61 Z M 151.15 67.86 L 150.28 68.13 C 149.23 68.46 148.64 69.57 148.97 70.62 C 149.29 71.67 150.41 72.26 151.46 71.93 L 152.33 71.66 C 153.38 71.34 153.96 70.22 153.64 69.17 C 153.31 68.12 152.20 67.54 151.15 67.86 Z M 150.19 68.16 L 149.31 68.48 C 148.28 68.85 147.74 69.99 148.11 71.03 C 148.49 72.06 149.63 72.59 150.66 72.22 L 151.54 71.90 C 152.57 71.53 153.11 70.39 152.74 69.36 C 152.36 68.32 151.22 67.79 150.19 68.16 Z M 149.23 68.51 L 148.34 68.87 C 147.32 69.29 146.83 70.45 147.25 71.47 C 147.67 72.49 148.83 72.97 149.85 72.56 L 150.74 72.19 C 151.76 71.78 152.24 70.61 151.83 69.60 C 151.41 68.58 150.25 68.09 149.23 68.51 Z M 148.27 68.90 L 147.36 69.31 C 146.36 69.77 145.92 70.95 146.37 71.95 C 146.83 72.95 148.01 73.39 149.01 72.94 L 149.92 72.53 C 150.92 72.07 151.36 70.89 150.91 69.89 C 150.45 68.89 149.27 68.45 148.27 68.90 Z M 147.30 69.34 L 146.38 69.80 C 145.40 70.29 144.99 71.48 145.48 72.47 C 145.97 73.45 147.16 73.86 148.15 73.37 L 149.07 72.91 C 150.06 72.42 150.46 71.23 149.97 70.24 C 149.48 69.26 148.29 68.85 147.30 69.34 Z M 146.33 69.83 L 145.39 70.33 C 144.42 70.85 144.05 72.05 144.57 73.02 C 145.09 73.99 146.30 74.36 147.27 73.84 L 148.20 73.34 C 149.17 72.82 149.54 71.62 149.02 70.64 C 148.50 69.67 147.30 69.31 146.33 69.83 Z M 145.34 70.35 L 144.39 70.90 C 143.43 71.44 143.10 72.66 143.64 73.62 C 144.18 74.57 145.40 74.91 146.36 74.36 L 147.31 73.82 C 148.27 73.27 148.60 72.05 148.06 71.10 C 147.51 70.14 146.30 69.81 145.34 70.35 Z M 144.35 70.92 L 143.45 71.46 C 142.50 72.03 142.20 73.25 142.77 74.19 C 143.33 75.14 144.56 75.44 145.50 74.88 L 146.40 74.34 C 147.34 73.77 147.65 72.55 147.08 71.60 C 146.51 70.66 145.29 70.35 144.35 70.92 Z M 143.42 71.48 L 142.64 71.96 C 141.71 72.54 141.43 73.78 142.01 74.71 C 142.60 75.64 143.83 75.93 144.76 75.34 L 145.53 74.86 C 146.47 74.27 146.75 73.04 146.17 72.11 C 145.58 71.18 144.35 70.89 143.42 71.48 Z M 142.62 71.98 L 141.83 72.48 C 140.91 73.08 140.64 74.32 141.24 75.24 C 141.84 76.17 143.08 76.43 144.00 75.83 L 144.78 75.33 C 145.71 74.73 145.97 73.49 145.38 72.57 C 144.78 71.64 143.54 71.38 142.62 71.98 Z M 141.81 72.50 L 141.02 73.03 C 140.10 73.64 139.85 74.88 140.46 75.80 C 141.07 76.71 142.31 76.96 143.23 76.35 L 144.02 75.82 C 144.94 75.21 145.19 73.97 144.58 73.05 C 143.97 72.14 142.73 71.89 141.81 72.50 Z M 140.99 73.04 L 140.19 73.59 C 139.28 74.22 139.05 75.46 139.67 76.37 C 140.29 77.28 141.54 77.51 142.44 76.89 L 143.25 76.34 C 144.16 75.71 144.39 74.47 143.77 73.56 C 143.15 72.65 141.90 72.42 140.99 73.04 Z M 140.17 73.61 L 139.35 74.18 C 138.45 74.81 138.24 76.06 138.87 76.96 C 139.50 77.86 140.75 78.08 141.65 77.45 L 142.46 76.87 C 143.37 76.24 143.58 75.00 142.95 74.09 C 142.32 73.19 141.07 72.97 140.17 73.61 Z M 139.34 74.19 L 138.51 74.78 C 137.62 75.43 137.41 76.67 138.06 77.57 C 138.70 78.46 139.95 78.67 140.84 78.03 L 141.67 77.43 C 142.56 76.79 142.77 75.54 142.12 74.65 C 141.48 73.75 140.23 73.55 139.34 74.19 Z M 138.50 74.79 L 137.67 75.40 C 136.78 76.06 136.59 77.31 137.24 78.19 C 137.89 79.08 139.14 79.28 140.03 78.62 L 140.86 78.01 C 141.75 77.36 141.94 76.11 141.29 75.22 C 140.64 74.33 139.39 74.14 138.50 74.79 Z M 137.65 75.41 L 136.81 76.04 C 135.93 76.70 135.75 77.95 136.41 78.84 C 137.07 79.72 138.32 79.90 139.20 79.24 L 140.04 78.61 C 140.93 77.95 141.11 76.70 140.45 75.82 C 139.79 74.94 138.54 74.75 137.65 75.41 Z M 136.80 76.05 L 135.96 76.69 C 135.08 77.36 134.91 78.61 135.57 79.49 C 136.24 80.37 137.50 80.54 138.37 79.87 L 139.22 79.23 C 140.10 78.56 140.27 77.31 139.60 76.43 C 138.93 75.55 137.68 75.38 136.80 76.05 Z M 135.94 76.70 L 135.09 77.36 C 134.22 78.03 134.06 79.29 134.73 80.16 C 135.41 81.03 136.66 81.19 137.54 80.52 L 138.39 79.86 C 139.26 79.19 139.42 77.93 138.75 77.06 C 138.07 76.19 136.82 76.03 135.94 76.70 Z M 135.08 77.37 L 134.28 78.00 C 133.41 78.68 133.26 79.93 133.94 80.80 C 134.62 81.67 135.88 81.82 136.75 81.14 L 137.55 80.51 C 138.42 79.83 138.57 78.57 137.89 77.71 C 137.21 76.84 135.95 76.69 135.08 77.37 Z M 134.27 78.00 L 133.51 78.61 C 132.65 79.29 132.50 80.55 133.19 81.41 C 133.88 82.28 135.13 82.42 136.00 81.73 L 136.76 81.13 C 137.62 80.45 137.76 79.19 137.08 78.33 C 136.39 77.46 135.13 77.32 134.27 78.00 Z M 133.50 78.62 L 132.74 79.23 C 131.88 79.92 131.75 81.18 132.44 82.04 C 133.13 82.89 134.39 83.03 135.25 82.34 L 136.01 81.73 C 136.87 81.03 137.00 79.78 136.31 78.92 C 135.62 78.06 134.36 77.92 133.50 78.62 Z M 132.73 79.24 L 131.97 79.86 C 131.11 80.56 130.99 81.82 131.69 82.67 C 132.38 83.52 133.64 83.65 134.49 82.95 L 135.26 82.33 C 136.11 81.63 136.24 80.37 135.54 79.52 C 134.84 78.67 133.58 78.54 132.73 79.24 Z M 131.96 79.87 L 131.19 80.50 C 130.35 81.21 130.23 82.47 130.93 83.31 C 131.64 84.16 132.89 84.28 133.74 83.57 L 134.50 82.94 C 135.35 82.24 135.47 80.98 134.77 80.13 C 134.06 79.28 132.80 79.17 131.96 79.87 Z M 131.18 80.51 L 130.42 81.16 C 129.58 81.87 129.47 83.13 130.18 83.97 C 130.89 84.81 132.15 84.92 132.99 84.21 L 133.75 83.56 C 134.60 82.85 134.70 81.60 133.99 80.75 C 133.28 79.91 132.02 79.80 131.18 80.51 Z M 130.41 81.17 L 129.65 81.82 C 128.81 82.54 128.71 83.80 129.43 84.63 C 130.15 85.47 131.41 85.57 132.24 84.85 L 133.00 84.20 C 133.84 83.48 133.94 82.22 133.22 81.38 C 132.50 80.55 131.24 80.45 130.41 81.17 Z M 129.63 81.83 L 128.87 82.50 C 128.04 83.22 127.96 84.48 128.68 85.31 C 129.41 86.14 130.67 86.22 131.50 85.50 L 132.26 84.84 C 133.08 84.11 133.17 82.85 132.45 82.02 C 131.72 81.19 130.46 81.11 129.63 81.83 Z M 128.86 82.51 L 128.10 83.18 C 127.28 83.91 127.21 85.17 127.94 86.00 C 128.67 86.82 129.93 86.89 130.75 86.16 L 131.51 85.49 C 132.33 84.76 132.41 83.50 131.67 82.67 C 130.94 81.85 129.68 81.78 128.86 82.51 Z M 128.09 83.20 L 127.34 83.88 C 126.52 84.62 126.46 85.88 127.20 86.69 C 127.94 87.51 129.20 87.57 130.01 86.83 L 130.77 86.15 C 131.58 85.41 131.64 84.15 130.90 83.33 C 130.16 82.52 128.90 82.46 128.09 83.20 Z M 127.32 83.89 L 126.57 84.59 C 125.77 85.33 125.72 86.59 126.47 87.40 C 127.21 88.21 128.47 88.26 129.28 87.51 L 130.03 86.82 C 130.84 86.07 130.88 84.81 130.14 84.00 C 129.39 83.19 128.13 83.15 127.32 83.89 Z M 126.56 84.60 L 125.82 85.30 C 125.02 86.06 124.98 87.32 125.74 88.12 C 126.49 88.92 127.75 88.95 128.55 88.20 L 129.30 87.49 C 130.09 86.74 130.13 85.48 129.37 84.68 C 128.62 83.88 127.36 83.85 126.56 84.60 Z M 125.80 85.32 L 125.07 86.03 C 124.28 86.79 124.26 88.05 125.03 88.84 C 125.79 89.63 127.05 89.65 127.84 88.89 L 128.57 88.18 C 129.36 87.42 129.38 86.16 128.61 85.37 C 127.85 84.58 126.59 84.56 125.80 85.32 Z M 125.06 86.04 L 124.35 86.74 C 123.57 87.51 123.56 88.77 124.34 89.55 C 125.11 90.33 126.37 90.34 127.15 89.57 L 127.85 88.87 C 128.64 88.10 128.64 86.84 127.87 86.06 C 127.10 85.28 125.84 85.27 125.06 86.04 Z M 124.34 86.75 L 123.64 87.46 C 122.87 88.24 122.87 89.50 123.65 90.27 C 124.43 91.04 125.69 91.04 126.47 90.26 L 127.16 89.55 C 127.94 88.77 127.93 87.51 127.15 86.74 C 126.37 85.97 125.11 85.97 124.34 86.75 Z M 123.63 87.47 L 122.93 88.19 C 122.17 88.98 122.19 90.23 122.97 91.00 C 123.76 91.76 125.02 91.74 125.79 90.96 L 126.48 90.24 C 127.24 89.46 127.22 88.20 126.44 87.43 C 125.65 86.67 124.39 86.69 123.63 87.47 Z M 122.92 88.20 L 122.23 88.92 C 121.48 89.72 121.51 90.98 122.30 91.73 C 123.10 92.49 124.35 92.46 125.11 91.67 L 125.80 90.94 C 126.56 90.15 126.52 88.89 125.73 88.13 C 124.94 87.38 123.68 87.41 122.92 88.20 Z M 122.22 88.94 L 121.54 89.67 C 120.79 90.47 120.83 91.72 121.63 92.47 C 122.43 93.22 123.69 93.18 124.44 92.38 L 125.12 91.65 C 125.87 90.85 125.83 89.59 125.03 88.84 C 124.23 88.09 122.97 88.14 122.22 88.94 Z M 121.53 89.68 L 120.85 90.41 C 120.11 91.22 120.16 92.48 120.97 93.22 C 121.77 93.96 123.03 93.91 123.77 93.10 L 124.45 92.37 C 125.19 91.56 125.14 90.31 124.33 89.56 C 123.53 88.82 122.27 88.87 121.53 89.68 Z M 120.84 90.42 L 120.17 91.17 C 119.43 91.98 119.49 93.23 120.30 93.97 C 121.12 94.71 122.37 94.65 123.11 93.83 L 123.78 93.09 C 124.52 92.28 124.46 91.02 123.65 90.29 C 122.83 89.55 121.58 89.61 120.84 90.42 Z M 120.16 91.18 L 119.49 91.92 C 118.76 92.74 118.83 94.00 119.65 94.73 C 120.46 95.46 121.72 95.39 122.45 94.57 L 123.12 93.82 C 123.85 93.01 123.78 91.75 122.96 91.02 C 122.14 90.29 120.89 90.36 120.16 91.18 Z M 119.48 91.94 L 118.82 92.69 C 118.09 93.51 118.17 94.76 118.99 95.49 C 119.81 96.21 121.07 96.14 121.79 95.31 L 122.46 94.56 C 123.18 93.74 123.10 92.49 122.28 91.76 C 121.46 91.04 120.21 91.11 119.48 91.94 Z M 118.81 92.70 L 118.15 93.45 C 117.43 94.28 117.52 95.53 118.34 96.25 C 119.17 96.97 120.42 96.89 121.14 96.06 L 121.80 95.30 C 122.52 94.48 122.43 93.23 121.61 92.51 C 120.78 91.79 119.53 91.87 118.81 92.70 Z M 118.14 93.46 L 117.49 94.23 C 116.77 95.05 116.86 96.31 117.69 97.02 C 118.52 97.74 119.78 97.64 120.49 96.81 L 121.15 96.05 C 121.86 95.22 121.77 93.97 120.94 93.26 C 120.11 92.54 118.86 92.63 118.14 93.46 Z M 117.48 94.23 L 116.83 95.00 C 116.12 95.83 116.22 97.08 117.05 97.79 C 117.88 98.50 119.13 98.40 119.84 97.57 L 120.50 96.81 C 121.21 95.97 121.11 94.72 120.28 94.01 C 119.44 93.30 118.19 93.40 117.48 94.23 Z M 116.82 95.01 L 116.17 95.78 C 115.46 96.62 115.57 97.87 116.40 98.57 C 117.24 99.28 118.49 99.17 119.19 98.34 L 119.85 97.56 C 120.56 96.73 120.45 95.48 119.61 94.77 C 118.78 94.07 117.53 94.17 116.82 95.01 Z M 116.16 95.79 L 115.51 96.57 C 114.81 97.41 114.92 98.66 115.76 99.36 C 116.59 100.06 117.84 99.95 118.55 99.11 L 119.20 98.33 C 119.90 97.49 119.79 96.24 118.95 95.54 C 118.11 94.84 116.86 94.95 116.16 95.79 Z M 115.50 96.58 L 114.85 97.36 C 114.16 98.20 114.27 99.45 115.12 100.15 C 115.96 100.85 117.21 100.73 117.90 99.89 L 118.55 99.10 C 119.25 98.26 119.13 97.01 118.29 96.32 C 117.45 95.62 116.20 95.74 115.50 96.58 Z M 114.85 97.37 L 114.20 98.16 C 113.51 99.00 113.64 100.25 114.48 100.94 C 115.33 101.64 116.58 101.51 117.27 100.66 L 117.91 99.88 C 118.60 99.03 118.48 97.78 117.63 97.09 C 116.79 96.40 115.54 96.52 114.85 97.37 Z M 114.20 98.17 L 113.56 98.96 C 112.87 99.81 113.01 101.05 113.86 101.74 C 114.71 102.43 115.95 102.29 116.64 101.44 L 117.28 100.65 C 117.96 99.80 117.83 98.56 116.98 97.87 C 116.13 97.18 114.88 97.32 114.20 98.17 Z M 113.55 98.97 L 112.92 99.76 C 112.24 100.61 112.38 101.86 113.24 102.54 C 114.10 103.22 115.34 103.08 116.02 102.22 L 116.65 101.43 C 117.33 100.57 117.19 99.33 116.33 98.65 C 115.48 97.97 114.23 98.11 113.55 98.97 Z M 112.91 99.77 L 112.29 100.56 C 111.62 101.42 111.77 102.67 112.63 103.34 C 113.49 104.01 114.74 103.86 115.41 103.00 L 116.03 102.21 C 116.70 101.35 116.55 100.10 115.69 99.43 C 114.83 98.76 113.59 98.91 112.91 99.77 Z M 112.28 100.58 L 111.67 101.37 C 111.01 102.24 111.17 103.48 112.04 104.14 C 112.90 104.81 114.15 104.65 114.81 103.78 L 115.42 102.99 C 116.09 102.12 115.92 100.88 115.06 100.21 C 114.19 99.55 112.95 99.71 112.28 100.58 Z M 111.66 101.39 L 111.06 102.18 C 110.41 103.05 110.58 104.29 111.45 104.95 C 112.33 105.61 113.57 105.43 114.22 104.56 L 114.82 103.76 C 115.48 102.89 115.30 101.65 114.43 101.00 C 113.56 100.34 112.32 100.51 111.66 101.39 Z M 111.05 102.20 L 110.47 102.99 C 109.82 103.87 110.01 105.11 110.88 105.76 C 111.76 106.40 113.00 106.22 113.65 105.34 L 114.23 104.54 C 114.88 103.66 114.70 102.43 113.82 101.78 C 112.94 101.13 111.70 101.32 111.05 102.20 Z M 110.45 103.01 L 109.88 103.81 C 109.24 104.69 109.44 105.93 110.33 106.57 C 111.21 107.20 112.45 107.00 113.09 106.12 L 113.66 105.32 C 114.30 104.44 114.10 103.20 113.21 102.56 C 112.33 101.92 111.09 102.12 110.45 103.01 Z M 109.87 103.83 L 109.31 104.62 C 108.68 105.52 108.89 106.75 109.79 107.38 C 110.68 108.00 111.91 107.79 112.54 106.90 L 113.10 106.10 C 113.73 105.21 113.51 103.97 112.62 103.35 C 111.73 102.72 110.49 102.93 109.87 103.83 Z M 109.29 104.64 L 108.74 105.45 C 108.13 106.35 108.36 107.58 109.26 108.19 C 110.16 108.81 111.39 108.58 112.00 107.68 L 112.55 106.87 C 113.17 105.97 112.94 104.74 112.04 104.13 C 111.14 103.51 109.91 103.74 109.29 104.64 Z M 108.73 105.47 L 108.13 106.37 C 107.53 107.28 107.78 108.51 108.69 109.11 C 109.60 109.71 110.82 109.46 111.42 108.55 L 112.02 107.65 C 112.62 106.75 112.37 105.52 111.46 104.92 C 110.55 104.32 109.33 104.56 108.73 105.47 Z M 108.12 106.40 L 107.54 107.29 C 106.95 108.21 107.22 109.43 108.14 110.02 C 109.06 110.61 110.28 110.34 110.87 109.42 L 111.44 108.53 C 112.03 107.61 111.76 106.39 110.84 105.80 C 109.93 105.21 108.71 105.48 108.12 106.40 Z M 107.53 107.32 L 106.97 108.21 C 106.40 109.14 106.68 110.35 107.61 110.93 C 108.54 111.50 109.75 111.22 110.33 110.29 L 110.88 109.40 C 111.45 108.47 111.17 107.26 110.24 106.68 C 109.32 106.11 108.10 106.39 107.53 107.32 Z M 106.96 108.24 L 106.43 109.13 C 105.86 110.06 106.17 111.27 107.10 111.83 C 108.03 112.39 109.24 112.09 109.81 111.16 L 110.34 110.27 C 110.90 109.33 110.60 108.12 109.67 107.56 C 108.73 107.00 107.52 107.30 106.96 108.24 Z M 106.41 109.15 L 105.90 110.03 C 105.35 110.97 105.67 112.18 106.61 112.73 C 107.55 113.27 108.76 112.96 109.30 112.02 L 109.82 111.13 C 110.37 110.19 110.05 108.99 109.11 108.44 C 108.17 107.89 106.96 108.21 106.41 109.15 Z M 105.89 110.06 L 105.39 110.93 C 104.86 111.88 105.19 113.08 106.14 113.61 C 107.09 114.15 108.29 113.81 108.82 112.87 L 109.32 111.99 C 109.85 111.04 109.52 109.84 108.57 109.31 C 107.62 108.77 106.42 109.11 105.89 110.06 Z M 105.38 110.96 L 104.91 111.82 C 104.38 112.78 104.74 113.97 105.69 114.49 C 106.64 115.02 107.84 114.66 108.36 113.71 L 108.83 112.84 C 109.36 111.89 109.01 110.69 108.05 110.17 C 107.10 109.65 105.90 110.00 105.38 110.96 Z M 104.89 111.85 L 104.44 112.70 C 103.93 113.66 104.30 114.85 105.26 115.36 C 106.22 115.87 107.41 115.50 107.92 114.54 L 108.37 113.69 C 108.88 112.73 108.51 111.54 107.55 111.03 C 106.59 110.52 105.40 110.89 104.89 111.85 Z M 104.43 112.73 L 104.00 113.57 C 103.50 114.54 103.88 115.72 104.85 116.22 C 105.82 116.71 107.00 116.33 107.50 115.37 L 107.93 114.52 C 108.43 113.55 108.04 112.37 107.08 111.87 C 106.11 111.38 104.93 111.76 104.43 112.73 Z M 103.99 113.59 L 103.57 114.43 C 103.09 115.40 103.49 116.58 104.46 117.06 C 105.43 117.54 106.61 117.15 107.09 116.17 L 107.51 115.34 C 107.99 114.37 107.59 113.19 106.62 112.71 C 105.65 112.22 104.47 112.62 103.99 113.59 Z M 103.56 114.45 L 103.17 115.27 C 102.70 116.24 103.11 117.42 104.09 117.89 C 105.07 118.36 106.24 117.95 106.71 116.97 L 107.10 116.15 C 107.57 115.17 107.16 114.00 106.18 113.53 C 105.21 113.06 104.03 113.47 103.56 114.45 Z M 103.16 115.29 L 102.70 116.29 C 102.24 117.27 102.67 118.44 103.65 118.89 C 104.64 119.35 105.80 118.92 106.26 117.94 L 106.72 116.94 C 107.18 115.96 106.75 114.79 105.77 114.34 C 104.78 113.88 103.61 114.31 103.16 115.29 Z M 102.69 116.32 L 102.25 117.31 C 101.81 118.30 102.26 119.45 103.25 119.89 C 104.24 120.33 105.40 119.88 105.84 118.89 L 106.27 117.91 C 106.71 116.92 106.26 115.76 105.27 115.32 C 104.28 114.88 103.12 115.33 102.69 116.32 Z M 102.24 117.34 L 101.83 118.30 C 101.41 119.30 101.88 120.45 102.88 120.87 C 103.87 121.29 105.02 120.82 105.44 119.82 L 105.85 118.86 C 106.27 117.86 105.80 116.71 104.80 116.29 C 103.80 115.87 102.66 116.34 102.24 117.34 Z M 101.82 118.34 L 101.44 119.29 C 101.04 120.29 101.53 121.43 102.54 121.83 C 103.54 122.23 104.68 121.74 105.08 120.73 L 105.46 119.79 C 105.85 118.78 105.36 117.64 104.36 117.24 C 103.36 116.84 102.22 117.34 101.82 118.34 Z M 101.43 119.32 L 101.08 120.25 C 100.70 121.26 101.22 122.39 102.23 122.77 C 103.24 123.15 104.37 122.63 104.75 121.62 L 105.09 120.69 C 105.47 119.68 104.96 118.55 103.94 118.18 C 102.93 117.80 101.81 118.31 101.43 119.32 Z M 101.07 120.29 L 100.75 121.21 C 100.40 122.23 100.94 123.34 101.95 123.69 C 102.97 124.05 104.09 123.51 104.44 122.49 L 104.76 121.58 C 105.11 120.56 104.58 119.45 103.56 119.09 C 102.54 118.74 101.42 119.27 101.07 120.29 Z M 100.74 121.25 L 100.45 122.15 C 100.12 123.18 100.68 124.28 101.71 124.61 C 102.73 124.94 103.83 124.37 104.16 123.35 L 104.45 122.45 C 104.78 121.42 104.22 120.32 103.19 119.99 C 102.17 119.66 101.07 120.22 100.74 121.25 Z M 100.44 122.20 L 100.17 123.09 C 99.87 124.12 100.46 125.20 101.49 125.51 C 102.52 125.81 103.61 125.22 103.91 124.19 L 104.18 123.30 C 104.48 122.27 103.89 121.19 102.86 120.88 C 101.83 120.57 100.74 121.16 100.44 122.20 Z M 100.16 123.13 L 99.92 124.04 C 99.64 125.08 100.26 126.15 101.30 126.42 C 102.34 126.70 103.40 126.09 103.68 125.05 L 103.92 124.14 C 104.20 123.10 103.59 122.04 102.55 121.76 C 101.51 121.48 100.44 122.10 100.16 123.13 Z M 99.91 124.09 L 99.65 125.16 C 99.41 126.21 100.05 127.26 101.10 127.51 C 102.14 127.75 103.19 127.11 103.44 126.06 L 103.69 124.99 C 103.94 123.95 103.30 122.90 102.25 122.65 C 101.21 122.40 100.16 123.05 99.91 124.09 Z M 99.65 125.22 L 99.43 126.27 C 99.21 127.32 99.88 128.35 100.93 128.57 C 101.98 128.79 103.01 128.11 103.23 127.06 L 103.44 126.01 C 103.66 124.96 102.99 123.93 101.94 123.72 C 100.89 123.50 99.86 124.17 99.65 125.22 Z M 99.42 126.32 L 99.24 127.35 C 99.05 128.40 99.74 129.41 100.80 129.60 C 101.85 129.79 102.85 129.09 103.04 128.04 L 103.23 127.01 C 103.42 125.96 102.72 124.95 101.67 124.76 C 100.62 124.57 99.61 125.27 99.42 126.32 Z M 99.23 127.40 L 99.08 128.40 C 98.91 129.45 99.63 130.44 100.69 130.60 C 101.74 130.77 102.73 130.05 102.89 128.99 L 103.05 128.00 C 103.21 126.94 102.49 125.95 101.44 125.79 C 100.38 125.62 99.40 126.35 99.23 127.40 Z M 99.07 128.44 L 98.95 129.40 C 98.81 130.46 99.55 131.43 100.60 131.57 C 101.66 131.71 102.63 130.97 102.77 129.91 L 102.89 128.95 C 103.04 127.90 102.29 126.93 101.24 126.79 C 100.18 126.65 99.21 127.39 99.07 128.44 Z M 98.95 129.44 L 98.84 130.36 C 98.72 131.42 99.48 132.37 100.54 132.49 C 101.59 132.60 102.54 131.85 102.66 130.79 L 102.77 129.87 C 102.89 128.82 102.13 127.87 101.07 127.75 C 100.02 127.63 99.06 128.39 98.95 129.44 Z M 98.84 130.40 L 98.76 131.26 C 98.66 132.32 99.44 133.25 100.49 133.35 C 101.55 133.45 102.48 132.68 102.58 131.62 L 102.66 130.75 C 102.76 129.70 101.99 128.76 100.93 128.66 C 99.88 128.57 98.94 129.34 98.84 130.40 Z M 98.76 131.31 L 98.68 132.46 C 98.61 133.52 99.40 134.43 100.45 134.51 C 101.51 134.58 102.42 133.79 102.50 132.74 L 102.58 131.58 C 102.66 130.52 101.86 129.61 100.81 129.53 C 99.75 129.46 98.84 130.25 98.76 131.31 Z M 98.68 132.52 L 98.64 133.60 C 98.60 134.65 99.42 135.54 100.47 135.58 C 101.52 135.62 102.41 134.80 102.45 133.75 L 102.50 132.67 C 102.54 131.62 101.72 130.73 100.66 130.69 C 99.61 130.65 98.72 131.47 98.68 132.52 Z M 98.65 133.68 L 98.65 134.66 C 98.65 135.71 99.50 136.56 100.55 136.56 C 101.60 136.56 102.45 135.70 102.45 134.65 L 102.45 133.67 C 102.45 132.62 101.60 131.77 100.55 131.77 C 99.50 131.77 98.64 132.63 98.65 133.68 Z M 98.65 134.75 L 98.70 135.65 C 98.75 136.70 99.63 137.50 100.68 137.45 C 101.73 137.40 102.53 136.52 102.48 135.47 L 102.44 134.57 C 102.39 133.52 101.50 132.71 100.46 132.76 C 99.41 132.81 98.60 133.70 98.65 134.75 Z M 98.71 135.75 L 98.80 136.62 C 98.90 137.65 99.83 138.41 100.87 138.30 C 101.91 138.20 102.66 137.27 102.56 136.23 L 102.47 135.37 C 102.36 134.33 101.44 133.57 100.40 133.68 C 99.36 133.79 98.61 134.71 98.71 135.75 Z M 98.83 136.76 L 99.01 137.76 C 99.19 138.78 100.17 139.46 101.19 139.28 C 102.21 139.09 102.89 138.12 102.71 137.09 L 102.53 136.09 C 102.35 135.07 101.37 134.39 100.35 134.57 C 99.32 134.76 98.64 135.73 98.83 136.76 Z M 99.07 137.99 L 99.37 138.92 C 99.68 139.91 100.73 140.46 101.72 140.14 C 102.70 139.83 103.25 138.78 102.94 137.79 L 102.64 136.86 C 102.33 135.88 101.28 135.33 100.29 135.64 C 99.31 135.95 98.76 137.00 99.07 137.99 Z M 99.50 139.22 L 99.96 140.09 C 100.44 141.00 101.56 141.35 102.47 140.87 C 103.38 140.40 103.74 139.27 103.26 138.36 L 102.80 137.49 C 102.32 136.58 101.20 136.23 100.29 136.71 C 99.37 137.19 99.02 138.31 99.50 139.22 Z M 100.17 140.40 L 100.79 141.16 C 101.44 141.95 102.61 142.07 103.40 141.42 C 104.20 140.78 104.31 139.61 103.67 138.81 L 103.04 138.05 C 102.40 137.26 101.23 137.14 100.43 137.79 C 99.64 138.43 99.52 139.60 100.17 140.40 Z M 101.01 141.38 L 101.70 141.98 C 102.47 142.65 103.64 142.58 104.31 141.81 C 104.98 141.04 104.91 139.87 104.14 139.20 L 103.45 138.60 C 102.68 137.92 101.51 138.00 100.84 138.77 C 100.17 139.54 100.24 140.70 101.01 141.38 Z M 101.86 142.10 L 102.66 142.67 C 103.50 143.25 104.65 143.05 105.23 142.22 C 105.82 141.38 105.62 140.23 104.78 139.64 L 103.98 139.08 C 103.14 138.49 101.99 138.70 101.41 139.53 C 100.82 140.36 101.02 141.51 101.86 142.10 Z M 102.78 142.73 L 103.66 143.27 C 104.54 143.79 105.67 143.50 106.19 142.63 C 106.71 141.76 106.43 140.63 105.55 140.11 L 104.67 139.58 C 103.80 139.05 102.67 139.34 102.14 140.21 C 101.62 141.08 101.91 142.21 102.78 142.73 Z M 103.74 143.30 L 104.68 143.81 C 105.57 144.28 106.69 143.95 107.16 143.05 C 107.64 142.16 107.31 141.05 106.41 140.57 L 105.48 140.07 C 104.58 139.59 103.47 139.92 102.99 140.82 C 102.51 141.71 102.85 142.83 103.74 143.30 Z M 104.73 143.83 L 105.64 144.28 C 106.55 144.74 107.65 144.37 108.10 143.46 C 108.55 142.56 108.19 141.46 107.28 141.00 L 106.37 140.55 C 105.46 140.09 104.36 140.46 103.91 141.37 C 103.45 142.27 103.82 143.37 104.73 143.83 Z M 105.68 144.30 L 106.57 144.72 C 107.49 145.15 108.58 144.75 109.01 143.84 C 109.44 142.92 109.04 141.83 108.13 141.40 L 107.24 140.99 C 106.32 140.56 105.23 140.95 104.80 141.87 C 104.37 142.78 104.77 143.87 105.68 144.30 Z M 106.63 144.74 L 107.54 145.13 C 108.47 145.53 109.54 145.10 109.94 144.17 C 110.33 143.24 109.90 142.16 108.97 141.76 L 108.07 141.38 C 107.14 140.98 106.06 141.41 105.67 142.34 C 105.27 143.27 105.70 144.35 106.63 144.74 Z M 107.61 145.16 L 108.55 145.51 C 109.50 145.86 110.55 145.38 110.90 144.43 C 111.25 143.49 110.77 142.43 109.83 142.08 L 108.89 141.73 C 107.95 141.38 106.89 141.86 106.54 142.81 C 106.19 143.75 106.67 144.81 107.61 145.16 Z M 108.65 145.54 L 109.62 145.84 C 110.58 146.14 111.61 145.61 111.91 144.64 C 112.21 143.68 111.67 142.65 110.70 142.35 L 109.73 142.05 C 108.77 141.75 107.74 142.29 107.44 143.25 C 107.14 144.22 107.68 145.24 108.65 145.54 Z M 109.72 145.87 L 110.69 146.11 C 111.67 146.35 112.66 145.75 112.90 144.77 C 113.14 143.79 112.54 142.80 111.56 142.56 L 110.60 142.32 C 109.62 142.08 108.63 142.68 108.38 143.66 C 108.14 144.64 108.74 145.63 109.72 145.87 Z M 110.78 146.13 L 111.70 146.31 C 112.69 146.49 113.65 145.84 113.84 144.85 C 114.03 143.85 113.37 142.89 112.38 142.71 L 111.46 142.53 C 110.47 142.35 109.51 143.00 109.32 143.99 C 109.13 144.99 109.79 145.95 110.78 146.13 Z M 111.78 146.32 L 112.74 146.46 C 113.74 146.61 114.67 145.91 114.81 144.91 C 114.96 143.90 114.26 142.97 113.26 142.83 L 112.30 142.69 C 111.30 142.55 110.37 143.24 110.22 144.25 C 110.08 145.25 110.77 146.18 111.78 146.32 Z M 112.80 146.47 L 113.79 146.58 C 114.80 146.69 115.71 145.96 115.82 144.95 C 115.93 143.94 115.20 143.03 114.19 142.92 L 113.19 142.81 C 112.18 142.71 111.27 143.44 111.17 144.45 C 111.06 145.46 111.79 146.37 112.80 146.47 Z M 113.85 146.59 L 114.87 146.67 C 115.89 146.75 116.78 145.99 116.86 144.98 C 116.94 143.96 116.18 143.07 115.16 142.99 L 114.13 142.91 C 113.12 142.83 112.23 143.59 112.15 144.61 C 112.07 145.62 112.83 146.51 113.85 146.59 Z M 114.91 146.68 L 115.97 146.74 C 116.99 146.80 117.87 146.02 117.92 145.00 C 117.98 143.98 117.20 143.10 116.18 143.04 L 115.12 142.99 C 114.10 142.93 113.23 143.71 113.17 144.73 C 113.11 145.75 113.89 146.62 114.91 146.68 Z M 116.00 146.74 L 117.01 146.78 C 118.04 146.83 118.90 146.03 118.94 145.01 C 118.98 143.98 118.18 143.12 117.16 143.08 L 116.15 143.04 C 115.13 143.00 114.26 143.79 114.22 144.82 C 114.18 145.84 114.98 146.70 116.00 146.74 Z M 117.03 146.79 L 117.97 146.82 C 119.00 146.85 119.85 146.04 119.88 145.01 C 119.91 143.98 119.10 143.13 118.08 143.10 L 117.14 143.07 C 116.11 143.04 115.25 143.85 115.23 144.88 C 115.20 145.91 116.01 146.76 117.03 146.79 Z M 117.99 146.82 L 118.95 146.84 C 119.98 146.86 120.83 146.04 120.85 145.01 C 120.87 143.98 120.05 143.13 119.02 143.11 L 118.06 143.09 C 117.03 143.07 116.18 143.89 116.16 144.92 C 116.14 145.95 116.96 146.80 117.99 146.82 Z M 118.96 146.85 L 119.94 146.86 C 120.98 146.87 121.82 146.05 121.84 145.01 C 121.85 143.98 121.02 143.13 119.99 143.12 L 119.00 143.10 C 117.97 143.09 117.12 143.92 117.11 144.95 C 117.10 145.99 117.92 146.84 118.96 146.85 Z M 119.95 146.87 L 120.96 146.87 C 122.00 146.88 122.84 146.05 122.85 145.01 C 122.86 143.97 122.02 143.12 120.98 143.12 L 119.98 143.11 C 118.94 143.10 118.09 143.94 118.09 144.98 C 118.08 146.01 118.91 146.86 119.95 146.87 Z M 120.97 146.88 L 122.00 146.88 C 123.04 146.89 123.89 146.05 123.89 145.00 C 123.89 143.96 123.05 143.12 122.01 143.11 L 120.98 143.11 C 119.94 143.11 119.09 143.95 119.09 144.99 C 119.08 146.03 119.92 146.88 120.97 146.88 Z M 122.00 146.89 L 123.06 146.89 C 124.11 146.89 124.96 146.05 124.96 145.00 C 124.96 143.96 124.11 143.11 123.07 143.11 L 122.01 143.11 C 120.96 143.11 120.11 143.95 120.11 145.00 C 120.11 146.04 120.96 146.89 122.00 146.89 Z M 123.07 146.90 L 124.10 146.90 C 125.15 146.90 126.00 146.05 126.00 145.00 C 126.00 143.95 125.15 143.10 124.10 143.10 L 123.07 143.10 C 122.02 143.10 121.17 143.95 121.17 145.00 C 121.17 146.05 122.02 146.90 123.07 146.90 Z M 124.10 146.90 L 125.07 146.90 C 126.12 146.90 126.97 146.05 126.97 145.00 C 126.97 143.94 126.12 143.09 125.06 143.09 L 124.10 143.10 C 123.05 143.10 122.20 143.95 122.20 145.00 C 122.20 146.05 123.05 146.91 124.10 146.90 Z M 125.08 146.91 L 126.06 146.90 C 127.12 146.90 127.97 146.03 127.96 144.98 C 127.95 143.92 127.09 143.07 126.04 143.08 L 125.05 143.09 C 124.00 143.09 123.15 143.96 123.16 145.01 C 123.16 146.07 124.02 146.92 125.08 146.91 Z M 126.08 146.91 L 127.08 146.89 C 128.13 146.88 128.98 146.01 128.96 144.95 C 128.95 143.89 128.08 143.04 127.02 143.06 L 126.02 143.07 C 124.96 143.09 124.12 143.96 124.13 145.02 C 124.15 146.08 125.02 146.93 126.08 146.91 Z M 127.10 146.90 L 128.11 146.87 C 129.17 146.84 130.01 145.96 129.98 144.90 C 129.95 143.83 129.06 143.00 128.00 143.03 L 126.99 143.05 C 125.93 143.08 125.09 143.97 125.12 145.03 C 125.15 146.09 126.04 146.93 127.10 146.90 Z M 128.14 146.88 L 129.15 146.83 C 130.21 146.79 131.04 145.89 130.99 144.82 C 130.95 143.76 130.05 142.93 128.98 142.98 L 127.97 143.02 C 126.91 143.07 126.08 143.97 126.12 145.03 C 126.17 146.10 127.07 146.92 128.14 146.88 Z M 129.19 146.84 L 130.20 146.78 C 131.27 146.71 132.08 145.79 132.02 144.72 C 131.95 143.66 131.03 142.84 129.96 142.91 L 128.95 142.97 C 127.88 143.04 127.07 143.96 127.13 145.03 C 127.20 146.09 128.12 146.90 129.19 146.84 Z M 130.25 146.78 L 131.26 146.69 C 132.33 146.60 133.12 145.66 133.03 144.59 C 132.94 143.52 132.00 142.73 130.93 142.82 L 129.92 142.91 C 128.85 143.00 128.05 143.94 128.15 145.01 C 128.24 146.08 129.18 146.87 130.25 146.78 Z M 131.31 146.69 L 132.32 146.58 C 133.39 146.46 134.16 145.50 134.04 144.43 C 133.92 143.36 132.95 142.59 131.88 142.71 L 130.88 142.82 C 129.81 142.94 129.04 143.90 129.16 144.97 C 129.28 146.04 130.24 146.81 131.31 146.69 Z M 132.37 146.58 L 133.34 146.44 C 134.41 146.29 135.15 145.30 135.00 144.23 C 134.85 143.16 133.86 142.42 132.79 142.57 L 131.83 142.71 C 130.76 142.86 130.01 143.85 130.16 144.92 C 130.32 145.99 131.31 146.73 132.37 146.58 Z M 133.39 146.44 L 134.35 146.27 C 135.42 146.09 136.14 145.08 135.95 144.01 C 135.77 142.94 134.76 142.23 133.69 142.41 L 132.73 142.58 C 131.66 142.76 130.95 143.77 131.13 144.84 C 131.32 145.91 132.33 146.62 133.39 146.44 Z M 134.41 146.27 L 135.37 146.07 C 136.43 145.86 137.12 144.82 136.90 143.76 C 136.69 142.70 135.65 142.01 134.59 142.22 L 133.63 142.42 C 132.57 142.63 131.88 143.67 132.10 144.73 C 132.31 145.80 133.35 146.48 134.41 146.27 Z M 135.43 146.06 L 136.39 145.84 C 137.44 145.59 138.10 144.53 137.85 143.48 C 137.61 142.42 136.55 141.76 135.49 142.01 L 134.53 142.23 C 133.47 142.48 132.82 143.54 133.06 144.60 C 133.31 145.65 134.37 146.31 135.43 146.06 Z M 136.44 145.83 L 137.40 145.57 C 138.46 145.30 139.08 144.22 138.80 143.16 C 138.53 142.11 137.45 141.48 136.39 141.76 L 135.43 142.02 C 134.38 142.30 133.75 143.38 134.03 144.43 C 134.31 145.48 135.39 146.11 136.44 145.83 Z M 137.46 145.56 L 138.43 145.28 C 139.47 144.97 140.07 143.87 139.76 142.82 C 139.45 141.78 138.35 141.18 137.31 141.49 L 136.34 141.78 C 135.29 142.09 134.70 143.18 135.01 144.23 C 135.32 145.28 136.41 145.87 137.46 145.56 Z M 138.48 145.26 L 139.46 144.95 C 140.50 144.61 141.06 143.49 140.72 142.45 C 140.38 141.41 139.27 140.84 138.23 141.18 L 137.25 141.50 C 136.21 141.84 135.64 142.96 135.98 144.00 C 136.32 145.04 137.44 145.60 138.48 145.26 Z M 139.51 144.93 L 140.50 144.58 C 141.53 144.21 142.06 143.08 141.70 142.04 C 141.33 141.01 140.19 140.47 139.16 140.84 L 138.17 141.20 C 137.14 141.56 136.60 142.70 136.97 143.73 C 137.34 144.76 138.48 145.30 139.51 144.93 Z M 140.54 144.57 L 141.45 144.21 C 142.48 143.82 142.99 142.67 142.59 141.65 C 142.20 140.62 141.05 140.11 140.02 140.51 L 139.11 140.86 C 138.09 141.25 137.58 142.40 137.97 143.43 C 138.37 144.45 139.52 144.96 140.54 144.57 Z M 141.49 144.20 L 142.37 143.84 C 143.38 143.42 143.87 142.26 143.45 141.25 C 143.03 140.23 141.87 139.74 140.86 140.16 L 139.98 140.52 C 138.97 140.94 138.48 142.10 138.90 143.12 C 139.32 144.13 140.48 144.62 141.49 144.20 Z M 142.40 143.83 L 143.29 143.44 C 144.30 143.01 144.76 141.83 144.32 140.83 C 143.88 139.82 142.71 139.35 141.70 139.79 L 140.82 140.18 C 139.81 140.61 139.35 141.79 139.79 142.79 C 140.22 143.80 141.40 144.26 142.40 143.83 Z M 143.32 143.43 L 144.21 143.02 C 145.21 142.57 145.65 141.39 145.20 140.39 C 144.74 139.38 143.56 138.94 142.56 139.40 L 141.67 139.81 C 140.67 140.26 140.23 141.44 140.68 142.44 C 141.14 143.45 142.32 143.89 143.32 143.43 Z M 144.24 143.01 L 145.14 142.58 C 146.13 142.11 146.55 140.92 146.08 139.93 C 145.61 138.93 144.42 138.51 143.42 138.99 L 142.53 139.41 C 141.53 139.89 141.11 141.08 141.59 142.07 C 142.06 143.06 143.25 143.48 144.24 143.01 Z M 145.17 142.57 L 146.07 142.12 C 147.06 141.63 147.46 140.43 146.97 139.45 C 146.48 138.46 145.28 138.06 144.30 138.55 L 143.39 139.00 C 142.41 139.49 142.01 140.69 142.50 141.67 C 142.99 142.66 144.18 143.06 145.17 142.57 Z M 146.10 142.11 L 147.01 141.64 C 147.99 141.13 148.37 139.93 147.86 138.95 C 147.36 137.97 146.15 137.59 145.17 138.09 L 144.27 138.56 C 143.29 139.07 142.90 140.27 143.41 141.25 C 143.92 142.23 145.12 142.61 146.10 142.11 Z M 147.03 141.63 L 147.94 141.14 C 148.92 140.62 149.28 139.41 148.76 138.44 C 148.24 137.46 147.03 137.10 146.06 137.62 L 145.15 138.11 C 144.18 138.63 143.81 139.84 144.33 140.81 C 144.85 141.78 146.06 142.15 147.03 141.63 Z M 147.97 141.13 L 148.88 140.62 C 149.85 140.09 150.19 138.87 149.66 137.91 C 149.13 136.94 147.91 136.59 146.94 137.13 L 146.03 137.63 C 145.07 138.17 144.72 139.38 145.25 140.35 C 145.79 141.31 147.00 141.66 147.97 141.13 Z M 148.90 140.61 L 149.82 140.09 C 150.78 139.54 151.11 138.32 150.56 137.36 C 150.01 136.40 148.79 136.07 147.83 136.62 L 146.92 137.14 C 145.96 137.69 145.63 138.91 146.18 139.87 C 146.72 140.82 147.95 141.16 148.90 140.61 Z M 149.84 140.08 L 150.68 139.58 C 151.63 139.02 151.95 137.79 151.39 136.84 C 150.83 135.89 149.61 135.57 148.66 136.13 L 147.81 136.63 C 146.86 137.19 146.54 138.41 147.10 139.37 C 147.66 140.32 148.89 140.64 149.84 140.08 Z M 150.70 139.57 L 151.53 139.07 C 152.47 138.50 152.78 137.27 152.21 136.32 C 151.64 135.38 150.41 135.07 149.46 135.64 L 148.64 136.14 C 147.69 136.71 147.38 137.94 147.96 138.89 C 148.53 139.84 149.76 140.14 150.70 139.57 Z M 151.55 139.06 L 152.37 138.55 C 153.32 137.97 153.61 136.73 153.03 135.79 C 152.44 134.85 151.21 134.56 150.27 135.14 L 149.44 135.65 C 148.50 136.24 148.21 137.47 148.79 138.41 C 149.37 139.35 150.61 139.64 151.55 139.06 Z M 152.39 138.54 L 153.22 138.01 C 154.16 137.42 154.43 136.19 153.84 135.25 C 153.25 134.32 152.02 134.04 151.08 134.63 L 150.25 135.15 C 149.32 135.74 149.04 136.98 149.63 137.92 C 150.22 138.85 151.46 139.13 152.39 138.54 Z M 153.24 138.00 L 154.07 137.47 C 155.00 136.87 155.26 135.63 154.66 134.70 C 154.06 133.77 152.82 133.50 151.89 134.10 L 151.06 134.64 C 150.14 135.24 149.87 136.48 150.47 137.41 C 151.07 138.34 152.31 138.60 153.24 138.00 Z M 154.08 137.46 L 154.92 136.91 C 155.84 136.30 156.09 135.06 155.48 134.13 C 154.88 133.21 153.63 132.96 152.71 133.57 L 151.88 134.11 C 150.96 134.72 150.70 135.97 151.31 136.89 C 151.92 137.81 153.16 138.07 154.08 137.46 Z M 154.93 136.90 L 155.77 136.34 C 156.68 135.72 156.93 134.47 156.31 133.56 C 155.69 132.64 154.45 132.40 153.53 133.01 L 152.69 133.57 C 151.78 134.19 151.53 135.44 152.15 136.36 C 152.77 137.27 154.01 137.52 154.93 136.90 Z M 155.78 136.33 L 156.62 135.75 C 157.53 135.13 157.76 133.88 157.14 132.97 C 156.51 132.05 155.26 131.82 154.35 132.45 L 153.51 133.02 C 152.60 133.65 152.37 134.90 153.00 135.81 C 153.62 136.72 154.87 136.95 155.78 136.33 Z M 156.63 135.74 L 157.47 135.16 C 158.38 134.52 158.60 133.27 157.97 132.36 C 157.33 131.46 156.08 131.24 155.18 131.87 L 154.34 132.46 C 153.43 133.09 153.21 134.34 153.84 135.25 C 154.48 136.16 155.73 136.38 156.63 135.74 Z M 157.49 135.15 L 158.33 134.55 C 159.23 133.90 159.44 132.65 158.80 131.75 C 158.16 130.85 156.91 130.64 156.01 131.28 L 155.16 131.88 C 154.26 132.52 154.05 133.77 154.69 134.67 C 155.33 135.58 156.58 135.79 157.49 135.15 Z M 158.34 134.54 L 159.19 133.93 C 160.09 133.28 160.29 132.02 159.64 131.13 C 158.99 130.23 157.74 130.03 156.84 130.68 L 155.99 131.29 C 155.09 131.94 154.89 133.19 155.54 134.09 C 156.19 134.99 157.44 135.19 158.34 134.54 Z M 159.20 133.92 L 159.97 133.35 C 160.86 132.70 161.06 131.44 160.40 130.55 C 159.75 129.66 158.49 129.46 157.60 130.12 L 156.83 130.68 C 155.94 131.34 155.74 132.59 156.40 133.49 C 157.05 134.38 158.31 134.57 159.20 133.92 Z M 159.98 133.34 L 160.75 132.77 C 161.64 132.11 161.82 130.86 161.16 129.97 C 160.50 129.08 159.25 128.89 158.36 129.55 L 157.59 130.13 C 156.70 130.79 156.52 132.04 157.18 132.93 C 157.84 133.82 159.09 134.00 159.98 133.34 Z M 160.76 132.76 L 161.53 132.18 C 162.42 131.52 162.59 130.26 161.93 129.38 C 161.26 128.49 160.01 128.32 159.12 128.98 L 158.35 129.56 C 157.47 130.23 157.29 131.48 157.95 132.37 C 158.62 133.25 159.87 133.43 160.76 132.76 Z M 161.54 132.18 L 162.31 131.59 C 163.20 130.92 163.37 129.66 162.70 128.78 C 162.03 127.90 160.77 127.73 159.89 128.40 L 159.11 128.99 C 158.23 129.66 158.06 130.91 158.73 131.79 C 159.40 132.67 160.66 132.85 161.54 132.18 Z M 162.32 131.58 L 163.10 130.98 C 163.98 130.31 164.15 129.05 163.47 128.17 C 162.80 127.30 161.54 127.13 160.67 127.80 L 159.88 128.40 C 159.01 129.08 158.84 130.33 159.51 131.21 C 160.19 132.09 161.44 132.25 162.32 131.58 Z M 163.11 130.98 L 163.89 130.37 C 164.77 129.69 164.93 128.43 164.25 127.56 C 163.58 126.69 162.32 126.53 161.44 127.20 L 160.66 127.81 C 159.78 128.49 159.62 129.74 160.30 130.62 C 160.98 131.49 162.23 131.65 163.11 130.98 Z M 163.90 130.36 L 164.69 129.75 C 165.56 129.07 165.72 127.81 165.04 126.94 C 164.36 126.07 163.10 125.91 162.23 126.59 L 161.44 127.21 C 160.57 127.89 160.41 129.14 161.09 130.01 C 161.77 130.89 163.03 131.04 163.90 130.36 Z M 164.70 129.74 L 165.49 129.12 C 166.36 128.43 166.51 127.18 165.83 126.31 C 165.15 125.44 163.89 125.29 163.02 125.97 L 162.23 126.59 C 161.36 127.28 161.21 128.53 161.89 129.40 C 162.57 130.27 163.83 130.42 164.70 129.74 Z M 165.50 129.11 L 166.30 128.48 C 167.16 127.80 167.31 126.54 166.63 125.67 C 165.94 124.80 164.69 124.66 163.82 125.34 L 163.02 125.97 C 162.15 126.66 162.00 127.91 162.69 128.78 C 163.37 129.65 164.63 129.80 165.50 129.11 Z M 166.30 128.48 L 167.11 127.84 C 167.97 127.15 168.12 125.89 167.43 125.03 C 166.75 124.16 165.49 124.02 164.62 124.70 L 163.82 125.34 C 162.95 126.03 162.81 127.29 163.49 128.15 C 164.18 129.02 165.44 129.16 166.30 128.48 Z M 167.11 127.83 L 167.93 127.18 C 168.79 126.50 168.93 125.24 168.24 124.38 C 167.56 123.51 166.30 123.37 165.44 124.06 L 164.62 124.71 C 163.76 125.39 163.62 126.65 164.30 127.51 C 164.99 128.38 166.25 128.52 167.11 127.83 Z M 167.93 127.18 L 168.75 126.53 C 169.61 125.84 169.75 124.58 169.06 123.72 C 168.37 122.86 167.12 122.72 166.25 123.41 L 165.43 124.06 C 164.57 124.75 164.43 126.01 165.12 126.87 C 165.81 127.73 167.07 127.87 167.93 127.18 Z M 168.75 126.52 L 169.53 125.89 C 170.40 125.21 170.53 123.95 169.85 123.09 C 169.16 122.23 167.90 122.09 167.04 122.78 L 166.25 123.41 C 165.39 124.10 165.25 125.35 165.94 126.21 C 166.63 127.07 167.89 127.21 168.75 126.52 Z M 169.54 125.89 L 170.32 125.27 C 171.18 124.58 171.31 123.32 170.62 122.46 C 169.94 121.60 168.68 121.46 167.82 122.15 L 167.04 122.78 C 166.18 123.47 166.04 124.73 166.73 125.58 C 167.42 126.44 168.68 126.58 169.54 125.89 Z M 170.32 125.26 L 171.10 124.63 C 171.96 123.94 172.10 122.69 171.41 121.83 C 170.72 120.97 169.46 120.84 168.60 121.53 L 167.82 122.16 C 166.96 122.85 166.83 124.10 167.52 124.96 C 168.21 125.82 169.46 125.95 170.32 125.26 Z M 171.10 124.63 L 171.89 123.99 C 172.75 123.30 172.88 122.05 172.19 121.19 C 171.50 120.34 170.25 120.20 169.39 120.89 L 168.60 121.53 C 167.75 122.22 167.61 123.47 168.30 124.33 C 168.99 125.19 170.25 125.32 171.10 124.63 Z M 171.89 123.99 L 172.68 123.35 C 173.53 122.66 173.67 121.41 172.97 120.56 C 172.28 119.70 171.03 119.57 170.18 120.26 L 169.39 120.90 C 168.53 121.59 168.40 122.84 169.09 123.70 C 169.78 124.55 171.04 124.68 171.89 123.99 Z M 172.68 123.35 L 173.47 122.71 C 174.32 122.02 174.45 120.77 173.76 119.92 C 173.07 119.06 171.81 118.93 170.96 119.63 L 170.17 120.26 C 169.32 120.96 169.19 122.21 169.88 123.06 C 170.58 123.91 171.83 124.04 172.68 123.35 Z M 173.47 122.71 L 174.25 122.07 C 175.10 121.38 175.23 120.13 174.54 119.28 C 173.85 118.43 172.59 118.30 171.74 118.99 L 170.96 119.63 C 170.11 120.32 169.98 121.57 170.67 122.42 C 171.37 123.27 172.62 123.40 173.47 122.71 Z M 174.25 122.07 L 175.04 121.43 C 175.88 120.73 176.01 119.48 175.32 118.64 C 174.62 117.79 173.37 117.66 172.52 118.36 L 171.74 118.99 C 170.89 119.69 170.77 120.94 171.46 121.79 C 172.16 122.64 173.41 122.76 174.25 122.07 Z M 175.04 121.42 L 175.81 120.79 C 176.66 120.09 176.78 118.84 176.09 118.00 C 175.39 117.15 174.14 117.03 173.30 117.72 L 172.52 118.36 C 171.67 119.05 171.55 120.30 172.25 121.15 C 172.94 122.00 174.19 122.12 175.04 121.42 Z M 175.82 120.78 L 176.59 120.15 C 177.43 119.45 177.55 118.20 176.85 117.36 C 176.16 116.51 174.91 116.39 174.06 117.09 L 173.29 117.73 C 172.45 118.42 172.33 119.67 173.03 120.52 C 173.72 121.36 174.97 121.48 175.82 120.78 Z M 176.59 120.14 L 177.35 119.51 C 178.19 118.81 178.31 117.57 177.61 116.72 C 176.91 115.88 175.67 115.77 174.82 116.46 L 174.06 117.10 C 173.22 117.79 173.10 119.04 173.80 119.88 C 174.50 120.72 175.75 120.84 176.59 120.14 Z M 177.35 119.51 L 178.11 118.88 C 178.95 118.18 179.06 116.93 178.36 116.09 C 177.66 115.25 176.41 115.14 175.57 115.84 L 174.82 116.47 C 173.98 117.17 173.87 118.42 174.57 119.25 C 175.27 120.09 176.52 120.21 177.35 119.51 Z M 178.11 118.87 L 178.85 118.25 C 179.69 117.55 179.80 116.30 179.10 115.47 C 178.40 114.63 177.15 114.52 176.31 115.22 L 175.57 115.85 C 174.73 116.55 174.63 117.79 175.33 118.63 C 176.03 119.47 177.28 119.58 178.11 118.87 Z M 178.86 118.24 L 179.66 117.57 C 180.49 116.86 180.60 115.62 179.89 114.79 C 179.19 113.95 177.95 113.85 177.11 114.55 L 176.31 115.23 C 175.48 115.93 175.37 117.18 176.08 118.01 C 176.78 118.84 178.02 118.95 178.86 118.24 Z M 179.66 117.56 L 180.46 116.88 C 181.29 116.18 181.39 114.93 180.68 114.11 C 179.98 113.28 178.74 113.18 177.91 113.88 L 177.11 114.56 C 176.28 115.26 176.18 116.51 176.89 117.34 C 177.59 118.16 178.83 118.26 179.66 117.56 Z M 180.46 116.87 L 181.25 116.20 C 182.07 115.50 182.16 114.25 181.46 113.43 C 180.75 112.61 179.51 112.51 178.69 113.22 L 177.90 113.89 C 177.08 114.60 176.98 115.84 177.69 116.66 C 178.40 117.48 179.64 117.58 180.46 116.87 Z M 181.25 116.19 L 182.02 115.53 C 182.84 114.82 182.93 113.58 182.22 112.76 C 181.52 111.94 180.28 111.85 179.46 112.56 L 178.69 113.23 C 177.87 113.93 177.78 115.17 178.48 115.99 C 179.19 116.81 180.43 116.90 181.25 116.19 Z M 182.02 115.52 L 182.78 114.86 C 183.60 114.15 183.68 112.91 182.98 112.10 C 182.27 111.28 181.03 111.20 180.22 111.91 L 179.46 112.57 C 178.64 113.28 178.55 114.51 179.26 115.33 C 179.97 116.14 181.21 116.23 182.02 115.52 Z M 182.78 114.85 L 183.54 114.19 C 184.35 113.48 184.43 112.25 183.72 111.44 C 183.01 110.63 181.78 110.55 180.97 111.26 L 180.21 111.91 C 179.40 112.62 179.32 113.86 180.03 114.67 C 180.74 115.48 181.97 115.56 182.78 114.85 Z M 183.54 114.19 L 184.28 113.53 C 185.09 112.82 185.16 111.59 184.45 110.78 C 183.74 109.98 182.51 109.90 181.71 110.61 L 180.96 111.26 C 180.16 111.97 180.08 113.20 180.79 114.01 C 181.50 114.82 182.73 114.90 183.54 114.19 Z M 184.28 113.52 L 185.01 112.87 C 185.82 112.16 185.89 110.93 185.18 110.13 C 184.47 109.33 183.24 109.26 182.44 109.97 L 181.70 110.62 C 180.90 111.33 180.83 112.56 181.54 113.36 C 182.25 114.16 183.48 114.24 184.28 113.52 Z M 185.02 112.87 L 185.74 112.22 C 186.54 111.51 186.61 110.28 185.90 109.48 C 185.19 108.68 183.96 108.61 183.16 109.33 L 182.44 109.98 C 181.64 110.69 181.57 111.91 182.28 112.71 C 182.99 113.51 184.22 113.58 185.02 112.87 Z M 185.74 112.21 L 186.46 111.56 C 187.26 110.85 187.32 109.63 186.61 108.84 C 185.90 108.04 184.67 107.97 183.88 108.69 L 183.16 109.33 C 182.37 110.05 182.30 111.27 183.01 112.06 C 183.73 112.86 184.95 112.92 185.74 112.21 Z M 186.46 111.56 L 187.18 110.91 C 187.97 110.20 188.03 108.98 187.32 108.19 C 186.60 107.40 185.38 107.34 184.59 108.05 L 183.88 108.70 C 183.09 109.41 183.03 110.63 183.74 111.42 C 184.45 112.21 185.67 112.27 186.46 111.56 Z M 187.18 110.91 L 187.91 110.25 C 188.69 109.53 188.75 108.32 188.04 107.53 C 187.32 106.74 186.11 106.68 185.32 107.40 L 184.59 108.06 C 183.81 108.77 183.75 109.99 184.46 110.77 C 185.18 111.56 186.39 111.62 187.18 110.91 Z M 187.91 110.24 L 188.68 109.54 C 189.46 108.82 189.51 107.61 188.80 106.83 C 188.08 106.04 186.87 105.99 186.09 106.70 L 185.32 107.40 C 184.54 108.12 184.48 109.33 185.20 110.12 C 185.91 110.90 187.12 110.95 187.91 110.24 Z M 188.68 109.53 L 189.44 108.83 C 190.22 108.11 190.27 106.90 189.55 106.12 C 188.84 105.34 187.63 105.29 186.85 106.01 L 186.09 106.71 C 185.31 107.43 185.26 108.64 185.97 109.41 C 186.69 110.19 187.90 110.24 188.68 109.53 Z M 189.44 108.82 L 190.20 108.12 C 190.97 107.40 191.02 106.20 190.30 105.42 C 189.59 104.65 188.38 104.60 187.61 105.32 L 186.85 106.02 C 186.08 106.73 186.03 107.94 186.74 108.71 C 187.46 109.49 188.67 109.53 189.44 108.82 Z M 190.20 108.11 L 190.95 107.41 C 191.72 106.70 191.76 105.49 191.04 104.72 C 190.33 103.95 189.12 103.91 188.35 104.63 L 187.60 105.33 C 186.84 106.04 186.79 107.25 187.51 108.02 C 188.23 108.78 189.43 108.83 190.20 108.11 Z M 190.95 107.40 L 191.69 106.71 C 192.45 105.99 192.49 104.79 191.77 104.03 C 191.05 103.26 189.85 103.23 189.09 103.94 L 188.35 104.64 C 187.59 105.36 187.55 106.56 188.27 107.32 C 188.98 108.08 190.19 108.12 190.95 107.40 Z M 191.69 106.70 L 192.42 106.01 C 193.18 105.29 193.21 104.10 192.49 103.34 C 191.77 102.58 190.57 102.55 189.81 103.26 L 189.09 103.95 C 188.33 104.67 188.30 105.87 189.01 106.63 C 189.73 107.39 190.93 107.42 191.69 106.70 Z M 192.42 106.00 L 193.14 105.32 C 193.89 104.60 193.91 103.40 193.19 102.65 C 192.47 101.90 191.28 101.87 190.53 102.59 L 189.81 103.27 C 189.06 103.99 189.03 105.19 189.75 105.94 C 190.47 106.70 191.67 106.72 192.42 106.00 Z M 193.14 105.31 L 193.84 104.63 C 194.59 103.91 194.61 102.72 193.89 101.97 C 193.16 101.22 191.97 101.20 191.22 101.92 L 190.52 102.60 C 189.78 103.32 189.75 104.51 190.48 105.26 C 191.20 106.01 192.39 106.03 193.14 105.31 Z M 193.84 104.62 L 194.53 103.95 C 195.27 103.22 195.29 102.04 194.56 101.29 C 193.84 100.55 192.65 100.54 191.91 101.26 L 191.22 101.93 C 190.48 102.66 190.47 103.85 191.19 104.59 C 191.91 105.33 193.10 105.34 193.84 104.62 Z M 194.54 103.94 L 195.21 103.27 C 195.94 102.55 195.95 101.36 195.22 100.63 C 194.50 99.89 193.31 99.88 192.58 100.61 L 191.90 101.27 C 191.17 102.00 191.16 103.19 191.89 103.92 C 192.62 104.66 193.80 104.66 194.54 103.94 Z M 195.21 103.26 L 195.95 102.52 C 196.67 101.79 196.67 100.61 195.94 99.88 C 195.22 99.16 194.03 99.16 193.31 99.89 L 192.57 100.62 C 191.84 101.35 191.84 102.53 192.57 103.26 C 193.30 103.99 194.48 103.99 195.21 103.26 Z M 195.95 102.51 L 196.72 101.72 C 197.44 100.99 197.43 99.82 196.70 99.10 C 195.97 98.38 194.79 98.39 194.07 99.12 L 193.30 99.90 C 192.58 100.63 192.59 101.81 193.32 102.53 C 194.06 103.25 195.23 103.24 195.95 102.51 Z M 196.73 101.71 L 197.47 100.94 C 198.18 100.21 198.16 99.03 197.42 98.32 C 196.69 97.61 195.52 97.63 194.81 98.37 L 194.07 99.14 C 193.36 99.87 193.37 101.04 194.11 101.75 C 194.84 102.46 196.01 102.44 196.73 101.71 Z M 197.47 100.92 L 198.19 100.17 C 198.89 99.43 198.86 98.27 198.12 97.57 C 197.39 96.87 196.22 96.89 195.52 97.63 L 194.80 98.38 C 194.10 99.12 194.13 100.29 194.87 100.99 C 195.61 101.69 196.77 101.66 197.47 100.92 Z M 198.19 100.15 L 198.88 99.42 C 199.58 98.68 199.54 97.52 198.80 96.83 C 198.06 96.13 196.90 96.17 196.21 96.91 L 195.52 97.65 C 194.82 98.39 194.86 99.55 195.60 100.24 C 196.34 100.93 197.50 100.89 198.19 100.15 Z M 198.89 99.40 L 199.55 98.68 C 200.24 97.94 200.19 96.78 199.45 96.10 C 198.71 95.42 197.55 95.46 196.87 96.20 L 196.20 96.93 C 195.52 97.67 195.57 98.82 196.31 99.51 C 197.05 100.19 198.20 100.14 198.89 99.40 Z M 199.56 98.66 L 200.20 97.96 C 200.87 97.22 200.81 96.07 200.07 95.39 C 199.33 94.72 198.18 94.77 197.50 95.52 L 196.86 96.22 C 196.19 96.96 196.25 98.11 196.99 98.79 C 197.73 99.46 198.88 99.41 199.56 98.66 Z M 200.20 97.94 L 200.81 97.26 C 201.48 96.51 201.41 95.37 200.67 94.70 C 199.92 94.04 198.78 94.10 198.11 94.85 L 197.50 95.53 C 196.83 96.28 196.90 97.42 197.64 98.09 C 198.39 98.75 199.53 98.69 200.20 97.94 Z M 200.82 97.24 L 201.40 96.57 C 202.06 95.83 201.99 94.69 201.24 94.03 C 200.49 93.37 199.35 93.45 198.70 94.19 L 198.11 94.86 C 197.45 95.61 197.53 96.75 198.27 97.40 C 199.02 98.06 200.16 97.99 200.82 97.24 Z M 201.41 96.56 L 202.14 95.71 C 202.78 94.96 202.70 93.83 201.95 93.18 C 201.20 92.54 200.07 92.62 199.42 93.37 L 198.69 94.21 C 198.05 94.96 198.13 96.09 198.88 96.74 C 199.63 97.39 200.76 97.30 201.41 96.56 Z M 202.14 95.69 L 202.86 94.83 C 203.50 94.08 203.40 92.96 202.65 92.32 C 201.90 91.69 200.78 91.78 200.14 92.53 L 199.42 93.39 C 198.78 94.14 198.88 95.27 199.63 95.90 C 200.38 96.53 201.50 96.44 202.14 95.69 Z M 202.87 94.81 L 203.54 93.99 C 204.16 93.24 204.06 92.13 203.30 91.50 C 202.55 90.88 201.44 90.99 200.81 91.74 L 200.14 92.56 C 199.52 93.31 199.62 94.42 200.38 95.05 C 201.13 95.67 202.24 95.56 202.87 94.81 Z M 203.54 93.97 L 204.17 93.20 C 204.78 92.44 204.66 91.34 203.91 90.73 C 203.15 90.12 202.05 90.23 201.44 90.99 L 200.81 91.76 C 200.20 92.52 200.32 93.62 201.07 94.23 C 201.83 94.84 202.93 94.73 203.54 93.97 Z M 204.17 93.17 L 204.75 92.45 C 205.34 91.69 205.21 90.59 204.46 90.00 C 203.70 89.40 202.60 89.53 202.01 90.28 L 201.43 91.01 C 200.83 91.77 200.96 92.87 201.72 93.46 C 202.48 94.06 203.57 93.93 204.17 93.17 Z M 204.75 92.42 L 205.28 91.74 C 205.86 90.98 205.72 89.89 204.96 89.31 C 204.20 88.73 203.11 88.87 202.53 89.63 L 202.00 90.31 C 201.42 91.07 201.56 92.15 202.32 92.74 C 203.08 93.32 204.17 93.18 204.75 92.42 Z M 205.28 91.71 L 205.90 90.89 C 206.46 90.13 206.31 89.05 205.55 88.48 C 204.79 87.91 203.71 88.07 203.14 88.83 L 202.53 89.65 C 201.96 90.41 202.11 91.49 202.87 92.06 C 203.63 92.63 204.71 92.47 205.28 91.71 Z M 205.90 90.85 L 206.57 89.91 C 207.12 89.15 206.95 88.09 206.19 87.54 C 205.42 86.99 204.36 87.17 203.81 87.93 L 203.14 88.87 C 202.59 89.63 202.76 90.69 203.53 91.24 C 204.29 91.79 205.35 91.61 205.90 90.85 Z M 206.58 89.87 L 207.13 89.07 C 207.66 88.31 207.46 87.26 206.70 86.74 C 205.94 86.21 204.89 86.40 204.37 87.16 L 203.81 87.97 C 203.29 88.73 203.48 89.78 204.24 90.30 C 205.00 90.83 206.05 90.64 206.58 89.87 Z M 207.13 89.04 L 207.58 88.36 C 208.08 87.60 207.88 86.57 207.12 86.06 C 206.36 85.56 205.33 85.76 204.82 86.52 L 204.37 87.20 C 203.86 87.96 204.07 88.99 204.83 89.50 C 205.59 90.00 206.62 89.80 207.13 89.04 Z M 207.55 88.38 L 208.21 87.42 C 208.73 86.67 208.55 85.65 207.80 85.13 C 207.05 84.61 206.03 84.80 205.51 85.55 L 204.85 86.51 C 204.33 87.25 204.52 88.27 205.26 88.79 C 206.01 89.31 207.03 89.12 207.55 88.38 Z M 206.64 88.10 L 207.03 88.16 C 207.93 88.29 208.76 87.66 208.88 86.76 C 209.01 85.87 208.38 85.04 207.49 84.91 L 207.09 84.86 C 206.20 84.73 205.37 85.36 205.24 86.25 C 205.11 87.15 205.74 87.98 206.64 88.10 Z M 205.64 86.79 L 205.75 87.50 C 205.89 88.39 206.73 89.01 207.62 88.87 C 208.52 88.73 209.13 87.89 208.99 86.99 L 208.88 86.28 C 208.74 85.39 207.90 84.78 207.01 84.92 C 206.11 85.06 205.50 85.89 205.64 86.79 Z M 205.73 87.27 L 205.75 88.40 C 205.76 89.30 206.50 90.03 207.41 90.01 C 208.31 90.00 209.04 89.26 209.02 88.35 L 209.01 87.22 C 209.00 86.32 208.25 85.59 207.35 85.61 C 206.44 85.62 205.72 86.36 205.73 87.27 Z M 205.75 88.28 L 205.67 89.51 C 205.62 90.41 206.31 91.19 207.21 91.24 C 208.12 91.30 208.90 90.61 208.95 89.70 L 209.02 88.47 C 209.08 87.57 208.39 86.79 207.48 86.74 C 206.58 86.68 205.80 87.37 205.75 88.28 Z M 205.67 89.43 L 205.57 90.34 C 205.48 91.24 206.14 92.06 207.04 92.15 C 207.95 92.25 208.76 91.59 208.86 90.68 L 208.95 89.77 C 209.05 88.87 208.39 88.06 207.48 87.96 C 206.58 87.87 205.76 88.53 205.67 89.43 Z M 205.57 90.29 L 205.44 91.26 C 205.32 92.17 205.96 93.01 206.87 93.13 C 207.79 93.25 208.62 92.60 208.74 91.69 L 208.87 90.73 C 208.99 89.81 208.34 88.98 207.43 88.86 C 206.52 88.74 205.68 89.38 205.57 90.29 Z M 205.43 91.22 L 205.28 92.24 C 205.14 93.16 205.77 94.01 206.69 94.15 C 207.60 94.29 208.46 93.66 208.60 92.74 L 208.75 91.73 C 208.89 90.81 208.26 89.95 207.34 89.82 C 206.42 89.68 205.57 90.31 205.43 91.22 Z M 205.27 92.21 L 205.09 93.26 C 204.94 94.18 205.56 95.05 206.48 95.21 C 207.41 95.36 208.28 94.74 208.43 93.82 L 208.61 92.77 C 208.76 91.85 208.14 90.97 207.22 90.82 C 206.29 90.67 205.42 91.29 205.27 92.21 Z M 205.08 93.24 L 204.90 94.27 C 204.73 95.20 205.35 96.09 206.28 96.25 C 207.21 96.42 208.09 95.80 208.26 94.87 L 208.44 93.84 C 208.61 92.91 207.99 92.02 207.06 91.86 C 206.13 91.69 205.25 92.31 205.08 93.24 Z M 204.88 94.26 L 204.72 95.17 C 204.54 96.10 205.16 97.00 206.09 97.17 C 207.03 97.35 207.93 96.73 208.10 95.80 L 208.27 94.89 C 208.44 93.96 207.83 93.06 206.89 92.88 C 205.96 92.71 205.06 93.32 204.88 94.26 Z M 204.70 95.15 L 204.52 96.08 C 204.34 97.02 204.96 97.93 205.90 98.12 C 206.84 98.30 207.75 97.68 207.93 96.74 L 208.11 95.81 C 208.29 94.87 207.68 93.96 206.74 93.78 C 205.79 93.60 204.88 94.21 204.70 95.15 Z M 204.51 96.07 L 204.32 97.03 C 204.14 97.98 204.75 98.90 205.70 99.09 C 206.65 99.27 207.57 98.65 207.76 97.70 L 207.95 96.75 C 208.13 95.80 207.52 94.88 206.57 94.69 C 205.62 94.51 204.70 95.12 204.51 96.07 Z M 204.31 97.02 L 204.11 98.02 C 203.92 98.97 204.54 99.90 205.50 100.09 C 206.46 100.28 207.39 99.66 207.58 98.70 L 207.77 97.71 C 207.96 96.75 207.34 95.82 206.38 95.63 C 205.43 95.44 204.50 96.07 204.31 97.02 Z M 204.10 98.01 L 203.89 99.05 C 203.70 100.02 204.33 100.96 205.29 101.15 C 206.26 101.34 207.20 100.71 207.39 99.74 L 207.59 98.71 C 207.78 97.74 207.16 96.80 206.19 96.61 C 205.22 96.42 204.29 97.05 204.10 98.01 Z M 203.88 99.05 L 203.67 100.12 C 203.48 101.10 204.11 102.04 205.08 102.23 C 206.06 102.42 207.00 101.79 207.19 100.81 L 207.40 99.74 C 207.59 98.77 206.96 97.83 205.98 97.64 C 205.01 97.45 204.07 98.08 203.88 99.05 Z M 203.65 100.12 L 203.48 101.00 C 203.29 101.98 203.93 102.93 204.91 103.12 C 205.90 103.31 206.84 102.67 207.03 101.69 L 207.20 100.81 C 207.39 99.83 206.75 98.88 205.77 98.69 C 204.79 98.50 203.84 99.14 203.65 100.12 Z M 203.47 101.00 L 203.30 101.91 C 203.11 102.89 203.75 103.85 204.74 104.04 C 205.73 104.23 206.68 103.58 206.87 102.60 L 207.05 101.69 C 207.24 100.70 206.59 99.75 205.60 99.56 C 204.62 99.37 203.66 100.01 203.47 101.00 Z M 203.29 101.91 L 203.11 102.85 C 202.91 103.84 203.56 104.80 204.56 104.99 C 205.55 105.18 206.51 104.53 206.70 103.54 L 206.88 102.60 C 207.07 101.60 206.42 100.64 205.43 100.45 C 204.44 100.26 203.48 100.91 203.29 101.91 Z M 203.09 102.85 L 202.91 103.82 C 202.72 104.82 203.37 105.78 204.37 105.98 C 205.37 106.17 206.33 105.51 206.52 104.52 L 206.71 103.54 C 206.90 102.54 206.25 101.58 205.25 101.39 C 204.25 101.19 203.29 101.85 203.09 102.85 Z M 202.90 103.82 L 202.70 104.82 C 202.51 105.82 203.17 106.80 204.17 106.99 C 205.18 107.18 206.15 106.53 206.34 105.52 L 206.53 104.52 C 206.73 103.51 206.07 102.54 205.07 102.35 C 204.06 102.15 203.09 102.81 202.90 103.82 Z M 202.69 104.81 L 202.49 105.85 C 202.30 106.86 202.95 107.83 203.97 108.03 C 204.98 108.23 205.95 107.57 206.15 106.56 L 206.35 105.53 C 206.55 104.52 205.89 103.54 204.88 103.34 C 203.87 103.14 202.89 103.80 202.69 104.81 Z M 202.48 105.84 L 202.27 106.90 C 202.07 107.91 202.74 108.90 203.75 109.10 C 204.77 109.30 205.75 108.64 205.95 107.62 L 206.16 106.56 C 206.36 105.55 205.70 104.56 204.68 104.36 C 203.67 104.16 202.68 104.82 202.48 105.84 Z M 202.26 106.89 L 202.05 107.96 C 201.85 108.98 202.51 109.97 203.53 110.18 C 204.55 110.38 205.55 109.72 205.75 108.69 L 205.96 107.63 C 206.17 106.61 205.50 105.61 204.48 105.41 C 203.46 105.21 202.47 105.87 202.26 106.89 Z M 202.04 107.95 L 201.86 108.87 C 201.65 109.90 202.32 110.90 203.34 111.11 C 204.37 111.31 205.37 110.65 205.57 109.62 L 205.76 108.70 C 205.97 107.67 205.30 106.68 204.28 106.47 C 203.25 106.26 202.25 106.93 202.04 107.95 Z M 201.85 108.87 L 201.66 109.80 C 201.45 110.83 202.12 111.84 203.15 112.05 C 204.18 112.26 205.18 111.59 205.39 110.56 L 205.58 109.63 C 205.79 108.59 205.13 107.59 204.10 107.38 C 203.06 107.17 202.06 107.84 201.85 108.87 Z M 201.65 109.80 L 201.46 110.75 C 201.25 111.79 201.91 112.80 202.95 113.01 C 203.98 113.22 204.99 112.55 205.21 111.52 L 205.40 110.57 C 205.61 109.53 204.94 108.52 203.91 108.31 C 202.87 108.10 201.86 108.76 201.65 109.80 Z M 201.45 110.75 L 201.25 111.71 C 201.04 112.75 201.71 113.77 202.75 113.98 C 203.79 114.19 204.80 113.52 205.02 112.48 L 205.21 111.52 C 205.43 110.48 204.76 109.46 203.72 109.25 C 202.68 109.04 201.66 109.71 201.45 110.75 Z M 201.24 111.71 L 201.04 112.69 C 200.83 113.73 201.50 114.75 202.54 114.97 C 203.59 115.18 204.61 114.51 204.82 113.47 L 205.03 112.49 C 205.24 111.44 204.57 110.42 203.52 110.21 C 202.48 109.99 201.46 110.67 201.24 111.71 Z M 201.03 112.69 L 200.83 113.68 C 200.61 114.73 201.29 115.75 202.34 115.97 C 203.39 116.18 204.41 115.51 204.63 114.46 L 204.83 113.47 C 205.05 112.42 204.37 111.39 203.32 111.18 C 202.27 110.96 201.25 111.64 201.03 112.69 Z M 200.82 113.68 L 200.62 114.68 C 200.40 115.74 201.08 116.77 202.13 116.98 C 203.19 117.20 204.22 116.52 204.43 115.46 L 204.64 114.46 C 204.85 113.41 204.17 112.38 203.12 112.16 C 202.07 111.95 201.04 112.62 200.82 113.68 Z M 200.61 114.68 L 200.40 115.70 C 200.18 116.76 200.87 117.79 201.93 118.01 C 202.99 118.23 204.02 117.54 204.23 116.48 L 204.44 115.46 C 204.66 114.41 203.97 113.37 202.91 113.16 C 201.85 112.94 200.82 113.63 200.61 114.68 Z M 200.39 115.70 L 200.18 116.73 C 199.97 117.80 200.66 118.83 201.72 119.05 C 202.78 119.26 203.82 118.57 204.04 117.51 L 204.24 116.48 C 204.46 115.42 203.77 114.38 202.71 114.17 C 201.64 113.95 200.61 114.64 200.39 115.70 Z M 200.17 116.73 L 199.98 117.72 C 199.76 118.79 200.46 119.83 201.52 120.04 C 202.59 120.26 203.63 119.56 203.85 118.50 L 204.04 117.51 C 204.26 116.44 203.57 115.40 202.50 115.19 C 201.43 114.97 200.39 115.67 200.17 116.73 Z M 199.97 117.72 L 199.79 118.66 C 199.57 119.73 200.27 120.77 201.34 120.99 C 202.41 121.20 203.45 120.50 203.67 119.43 L 203.85 118.49 C 204.06 117.42 203.37 116.38 202.30 116.17 C 201.22 115.96 200.18 116.65 199.97 117.72 Z M 199.78 118.66 L 199.60 119.61 C 199.39 120.68 200.09 121.72 201.16 121.94 C 202.23 122.15 203.27 121.45 203.48 120.37 L 203.67 119.43 C 203.88 118.35 203.18 117.31 202.11 117.10 C 201.03 116.89 199.99 117.59 199.78 118.66 Z M 199.59 119.61 L 199.41 120.57 C 199.20 121.64 199.90 122.69 200.98 122.89 C 202.05 123.10 203.09 122.40 203.30 121.33 L 203.49 120.37 C 203.70 119.29 202.99 118.25 201.92 118.04 C 200.84 117.83 199.80 118.54 199.59 119.61 Z M 199.40 120.57 L 199.22 121.54 C 199.01 122.62 199.72 123.66 200.79 123.86 C 201.87 124.07 202.91 123.37 203.12 122.29 L 203.31 121.32 C 203.51 120.24 202.81 119.20 201.73 119.00 C 200.65 118.79 199.61 119.49 199.40 120.57 Z M 199.21 121.54 L 199.03 122.52 C 198.82 123.60 199.53 124.64 200.61 124.84 C 201.69 125.05 202.73 124.34 202.94 123.26 L 203.12 122.29 C 203.33 121.21 202.62 120.16 201.54 119.96 C 200.46 119.75 199.42 120.46 199.21 121.54 Z M 199.02 122.52 L 198.84 123.51 C 198.64 124.59 199.35 125.63 200.43 125.84 C 201.51 126.04 202.55 125.33 202.76 124.25 L 202.94 123.26 C 203.15 122.18 202.43 121.13 201.35 120.93 C 200.27 120.73 199.23 121.44 199.02 122.52 Z M 198.83 123.51 L 198.65 124.51 C 198.45 125.59 199.16 126.64 200.25 126.84 C 201.33 127.04 202.37 126.32 202.57 125.24 L 202.76 124.24 C 202.96 123.16 202.25 122.12 201.16 121.91 C 200.08 121.71 199.04 122.43 198.83 123.51 Z M 198.65 124.51 L 198.46 125.52 C 198.26 126.61 198.98 127.65 200.06 127.85 C 201.15 128.05 202.19 127.33 202.39 126.25 L 202.58 125.24 C 202.78 124.15 202.06 123.11 200.97 122.91 C 199.89 122.71 198.85 123.43 198.65 124.51 Z M 198.46 125.53 L 198.27 126.55 C 198.07 127.64 198.79 128.68 199.88 128.88 C 200.97 129.07 202.01 128.35 202.21 127.26 L 202.40 126.24 C 202.59 125.15 201.87 124.11 200.78 123.91 C 199.70 123.72 198.65 124.44 198.46 125.53 Z M 198.27 126.55 L 198.08 127.59 C 197.88 128.68 198.61 129.72 199.70 129.92 C 200.79 130.11 201.83 129.39 202.03 128.30 L 202.22 127.26 C 202.41 126.17 201.69 125.13 200.60 124.93 C 199.50 124.74 198.46 125.46 198.27 126.55 Z M 198.08 127.59 L 197.91 128.55 C 197.71 129.64 198.44 130.69 199.53 130.88 C 200.63 131.07 201.67 130.35 201.86 129.25 L 202.03 128.29 C 202.23 127.20 201.50 126.16 200.41 125.96 C 199.31 125.77 198.27 126.50 198.08 127.59 Z M 197.90 128.56 L 197.74 129.49 C 197.55 130.59 198.28 131.63 199.37 131.82 C 200.47 132.01 201.51 131.28 201.70 130.19 L 201.87 129.25 C 202.06 128.16 201.33 127.11 200.23 126.92 C 199.14 126.73 198.10 127.46 197.90 128.56 Z M 197.74 129.50 L 197.57 130.44 C 197.38 131.54 198.12 132.58 199.21 132.77 C 200.31 132.96 201.35 132.23 201.54 131.13 L 201.70 130.18 C 201.89 129.09 201.16 128.05 200.06 127.86 C 198.97 127.67 197.93 128.40 197.74 129.50 Z M 197.57 130.45 L 197.40 131.40 C 197.22 132.50 197.95 133.54 199.05 133.73 C 200.15 133.92 201.19 133.18 201.38 132.09 L 201.54 131.13 C 201.73 130.03 200.99 128.99 199.90 128.80 C 198.80 128.61 197.76 129.35 197.57 130.45 Z M 197.40 131.41 L 197.24 132.37 C 197.05 133.47 197.79 134.52 198.89 134.70 C 199.99 134.89 201.03 134.15 201.22 133.05 L 201.38 132.08 C 201.57 130.98 200.83 129.94 199.73 129.75 C 198.63 129.57 197.59 130.31 197.40 131.41 Z M 197.23 132.38 L 197.07 133.35 C 196.88 134.45 197.63 135.50 198.73 135.68 C 199.83 135.87 200.87 135.13 201.06 134.02 L 201.22 133.05 C 201.41 131.95 200.66 130.90 199.56 130.72 C 198.46 130.53 197.42 131.28 197.23 132.38 Z M 197.07 133.36 L 196.90 134.34 C 196.72 135.45 197.46 136.49 198.57 136.67 C 199.67 136.86 200.71 136.11 200.89 135.01 L 201.06 134.02 C 201.24 132.92 200.50 131.88 199.39 131.69 C 198.29 131.51 197.25 132.25 197.07 133.36 Z M 196.90 134.35 L 196.73 135.35 C 196.55 136.45 197.30 137.49 198.40 137.67 C 199.51 137.86 200.55 137.11 200.73 136.00 L 200.90 135.01 C 201.08 133.90 200.33 132.86 199.23 132.68 C 198.12 132.50 197.08 133.24 196.90 134.35 Z M 196.73 135.35 L 196.57 136.36 C 196.39 137.46 197.14 138.50 198.24 138.68 C 199.35 138.87 200.39 138.11 200.57 137.01 L 200.74 136.00 C 200.92 134.90 200.17 133.85 199.06 133.67 C 197.95 133.49 196.91 134.24 196.73 135.35 Z M 196.56 136.36 L 196.40 137.38 C 196.22 138.48 196.97 139.53 198.08 139.71 C 199.19 139.88 200.23 139.13 200.41 138.02 L 200.57 137.01 C 200.75 135.90 200.00 134.86 198.89 134.68 C 197.79 134.50 196.74 135.25 196.56 136.36 Z M 196.40 137.38 L 196.23 138.41 C 196.05 139.52 196.81 140.56 197.92 140.74 C 199.03 140.91 200.07 140.16 200.25 139.05 L 200.41 138.02 C 200.59 136.91 199.83 135.87 198.73 135.69 C 197.62 135.51 196.57 136.27 196.40 137.38 Z M 196.23 138.41 L 196.06 139.45 C 195.89 140.56 196.65 141.60 197.76 141.78 C 198.87 141.95 199.91 141.20 200.09 140.09 L 200.25 139.05 C 200.43 137.94 199.67 136.89 198.56 136.72 C 197.45 136.54 196.41 137.30 196.23 138.41 Z M 196.06 139.45 L 195.91 140.45 C 195.73 141.57 196.49 142.61 197.60 142.78 C 198.71 142.96 199.76 142.20 199.93 141.09 L 200.09 140.08 C 200.26 138.97 199.50 137.93 198.39 137.75 C 197.28 137.58 196.24 138.34 196.06 139.45 Z M 195.90 140.46 L 195.75 141.43 C 195.58 142.54 196.34 143.58 197.45 143.76 C 198.57 143.93 199.61 143.17 199.78 142.05 L 199.93 141.08 C 200.11 139.97 199.35 138.93 198.23 138.75 C 197.12 138.58 196.08 139.34 195.90 140.46 Z M 195.75 141.43 L 195.60 142.41 C 195.43 143.52 196.19 144.56 197.31 144.74 C 198.42 144.91 199.46 144.14 199.63 143.03 L 199.78 142.05 C 199.96 140.94 199.19 139.90 198.08 139.72 C 196.97 139.55 195.92 140.32 195.75 141.43 Z M 195.60 142.41 L 195.45 143.39 C 195.28 144.51 196.04 145.55 197.16 145.72 C 198.27 145.89 199.31 145.13 199.48 144.01 L 199.63 143.03 C 199.81 141.91 199.04 140.87 197.93 140.70 C 196.81 140.53 195.77 141.30 195.60 142.41 Z M 195.45 143.40 L 195.30 144.38 C 195.13 145.50 195.89 146.54 197.01 146.71 C 198.12 146.88 199.16 146.12 199.33 145.00 L 199.48 144.01 C 199.65 142.90 198.89 141.86 197.77 141.69 C 196.66 141.51 195.62 142.28 195.45 143.40 Z M 195.29 144.39 L 195.14 145.38 C 194.97 146.49 195.74 147.54 196.86 147.71 C 197.97 147.88 199.01 147.11 199.18 145.99 L 199.33 145.00 C 199.50 143.88 198.74 142.84 197.62 142.67 C 196.51 142.50 195.46 143.27 195.29 144.39 Z M 195.14 145.38 L 194.99 146.37 C 194.82 147.49 195.59 148.53 196.71 148.70 C 197.82 148.87 198.86 148.10 199.03 146.99 L 199.18 145.99 C 199.35 144.88 198.59 143.83 197.47 143.66 C 196.35 143.50 195.31 144.26 195.14 145.38 Z M 194.99 146.37 L 194.84 147.37 C 194.67 148.49 195.44 149.53 196.55 149.70 C 197.67 149.87 198.71 149.10 198.88 147.98 L 199.03 146.99 C 199.20 145.87 198.43 144.83 197.32 144.66 C 196.20 144.49 195.16 145.26 194.99 146.37 Z M 194.84 147.37 L 194.69 148.37 C 194.52 149.49 195.29 150.53 196.40 150.70 C 197.52 150.87 198.56 150.10 198.73 148.98 L 198.88 147.98 C 199.05 146.87 198.28 145.82 197.17 145.66 C 196.05 145.49 195.01 146.25 194.84 147.37 Z M 194.69 148.37 L 194.54 149.36 C 194.37 150.48 195.13 151.53 196.25 151.69 C 197.37 151.86 198.41 151.10 198.58 149.98 L 198.73 148.98 C 198.90 147.86 198.13 146.82 197.02 146.65 C 195.90 146.48 194.86 147.25 194.69 148.37 Z M 194.53 149.36 L 194.38 150.36 C 194.21 151.48 194.98 152.52 196.10 152.69 C 197.22 152.86 198.26 152.09 198.43 150.97 L 198.58 149.98 C 198.75 148.86 197.98 147.82 196.87 147.65 C 195.75 147.48 194.70 148.25 194.53 149.36 Z M 194.38 150.36 L 194.23 151.35 C 194.06 152.47 194.83 153.51 195.95 153.68 C 197.07 153.85 198.11 153.09 198.28 151.97 L 198.43 150.97 C 198.60 149.86 197.83 148.81 196.72 148.64 C 195.60 148.47 194.55 149.24 194.38 150.36 Z M 194.23 151.35 L 194.08 152.34 C 193.91 153.46 194.68 154.50 195.80 154.67 C 196.91 154.84 197.96 154.08 198.13 152.96 L 198.28 151.97 C 198.45 150.85 197.68 149.80 196.57 149.63 C 195.45 149.46 194.40 150.23 194.23 151.35 Z M 194.08 152.34 L 193.93 153.33 C 193.75 154.45 194.52 155.49 195.64 155.67 C 196.76 155.84 197.81 155.07 197.98 153.95 L 198.13 152.96 C 198.30 151.84 197.54 150.79 196.42 150.62 C 195.30 150.45 194.25 151.22 194.08 152.34 Z M 193.93 153.33 L 193.77 154.34 C 193.60 155.46 194.36 156.50 195.48 156.68 C 196.60 156.85 197.65 156.08 197.82 154.96 L 197.98 153.95 C 198.15 152.83 197.38 151.79 196.27 151.61 C 195.15 151.44 194.10 152.21 193.93 153.33 Z M 193.77 154.34 L 193.61 155.34 C 193.44 156.46 194.21 157.51 195.33 157.68 C 196.45 157.85 197.49 157.09 197.67 155.97 L 197.82 154.96 C 198.00 153.85 197.23 152.80 196.11 152.62 C 194.99 152.45 193.94 153.22 193.77 154.34 Z M 193.61 155.34 L 193.46 156.34 C 193.29 157.46 194.05 158.51 195.17 158.68 C 196.29 158.85 197.34 158.09 197.51 156.97 L 197.67 155.97 C 197.84 154.85 197.08 153.80 195.96 153.63 C 194.84 153.45 193.79 154.22 193.61 155.34 Z M 193.46 156.34 L 193.30 157.33 C 193.13 158.45 193.90 159.50 195.02 159.68 C 196.14 159.85 197.18 159.08 197.36 157.96 L 197.51 156.97 C 197.69 155.85 196.92 154.80 195.80 154.63 C 194.68 154.45 193.63 155.22 193.46 156.34 Z M 193.30 157.34 L 193.15 158.33 C 192.98 159.45 193.74 160.49 194.86 160.67 C 195.98 160.84 197.03 160.07 197.21 158.95 L 197.36 157.96 C 197.53 156.84 196.77 155.79 195.65 155.62 C 194.53 155.45 193.48 156.22 193.30 157.34 Z M 193.15 158.33 L 193.00 159.32 C 192.83 160.44 193.59 161.48 194.71 161.66 C 195.83 161.83 196.88 161.06 197.05 159.94 L 197.21 158.95 C 197.38 157.83 196.61 156.78 195.49 156.61 C 194.37 156.44 193.32 157.21 193.15 158.33 Z M 193.00 159.32 L 192.85 160.30 C 192.67 161.42 193.44 162.47 194.56 162.64 C 195.69 162.81 196.73 162.04 196.90 160.92 L 197.06 159.94 C 197.23 158.82 196.46 157.77 195.34 157.60 C 194.22 157.43 193.17 158.20 193.00 159.32 Z M 192.85 160.30 L 192.70 161.29 C 192.53 162.41 193.30 163.45 194.42 163.62 C 195.54 163.79 196.59 163.02 196.76 161.90 L 196.91 160.92 C 197.08 159.80 196.30 158.75 195.18 158.58 C 194.06 158.41 193.02 159.18 192.85 160.30 Z M 192.70 161.29 L 192.55 162.27 C 192.38 163.39 193.15 164.44 194.28 164.60 C 195.40 164.77 196.44 164.00 196.61 162.88 L 196.76 161.90 C 196.93 160.78 196.15 159.73 195.03 159.56 C 193.91 159.39 192.86 160.17 192.70 161.29 Z M 192.55 162.27 L 192.40 163.25 C 192.24 164.37 193.01 165.42 194.13 165.58 C 195.26 165.75 196.30 164.97 196.47 163.85 L 196.61 162.87 C 196.78 161.75 196.00 160.71 194.88 160.54 C 193.76 160.38 192.71 161.15 192.55 162.27 Z M 192.40 163.26 L 192.26 164.23 C 192.10 165.35 192.87 166.40 194.00 166.56 C 195.12 166.72 196.16 165.95 196.33 164.82 L 196.47 163.85 C 196.63 162.72 195.85 161.68 194.73 161.52 C 193.61 161.35 192.57 162.13 192.40 163.26 Z M 192.26 164.24 L 192.12 165.21 C 191.96 166.34 192.74 167.38 193.86 167.54 C 194.99 167.70 196.03 166.92 196.19 165.79 L 196.33 164.82 C 196.49 163.70 195.71 162.65 194.58 162.49 C 193.46 162.33 192.42 163.11 192.26 164.24 Z M 192.12 165.22 L 191.98 166.20 C 191.82 167.33 192.61 168.36 193.73 168.52 C 194.85 168.68 195.89 167.90 196.05 166.77 L 196.19 165.79 C 196.35 164.66 195.56 163.63 194.44 163.47 C 193.31 163.31 192.28 164.10 192.12 165.22 Z M 191.98 166.21 L 191.84 167.20 C 191.69 168.32 192.48 169.36 193.60 169.51 C 194.72 169.67 195.76 168.88 195.91 167.76 L 196.05 166.77 C 196.20 165.64 195.42 164.61 194.29 164.45 C 193.17 164.30 192.13 165.08 191.98 166.21 Z M 191.84 167.20 L 191.71 168.20 C 191.56 169.32 192.35 170.35 193.47 170.50 C 194.60 170.66 195.63 169.87 195.78 168.74 L 195.91 167.75 C 196.07 166.63 195.28 165.59 194.15 165.44 C 193.03 165.29 192.00 166.08 191.84 167.20 Z M 191.71 168.20 L 191.58 169.19 C 191.43 170.31 192.22 171.35 193.34 171.50 C 194.47 171.64 195.50 170.85 195.65 169.73 L 195.78 168.74 C 195.93 167.62 195.14 166.58 194.02 166.43 C 192.89 166.29 191.86 167.08 191.71 168.20 Z M 191.58 169.19 L 191.45 170.18 C 191.30 171.31 192.09 172.34 193.22 172.49 C 194.34 172.63 195.37 171.84 195.52 170.72 L 195.65 169.73 C 195.80 168.60 195.01 167.57 193.88 167.43 C 192.76 167.28 191.73 168.07 191.58 169.19 Z M 191.45 170.19 L 191.32 171.18 C 191.17 172.30 191.97 173.33 193.09 173.48 C 194.21 173.62 195.24 172.83 195.39 171.71 L 195.52 170.72 C 195.66 169.59 194.87 168.56 193.75 168.42 C 192.63 168.27 191.60 169.06 191.45 170.19 Z M 191.32 171.18 L 191.19 172.17 C 191.05 173.29 191.84 174.32 192.96 174.47 C 194.08 174.61 195.11 173.82 195.26 172.70 L 195.39 171.71 C 195.53 170.58 194.74 169.56 193.62 169.41 C 192.50 169.26 191.47 170.06 191.32 171.18 Z M 191.19 172.17 L 191.06 173.16 C 190.92 174.28 191.71 175.31 192.83 175.46 C 193.95 175.60 194.98 174.81 195.13 173.69 L 195.26 172.70 C 195.40 171.58 194.61 170.55 193.49 170.40 C 192.37 170.26 191.34 171.05 191.19 172.17 Z M 191.07 173.16 L 190.94 174.15 C 190.79 175.27 191.58 176.30 192.70 176.45 C 193.82 176.59 194.85 175.80 195.00 174.68 L 195.13 173.69 C 195.27 172.57 194.48 171.54 193.36 171.39 C 192.24 171.25 191.21 172.04 191.07 173.16 Z M 190.94 174.15 L 190.81 175.14 C 190.66 176.26 191.45 177.29 192.57 177.44 C 193.69 177.59 194.72 176.80 194.87 175.68 L 195.00 174.68 C 195.15 173.56 194.36 172.53 193.24 172.39 C 192.11 172.24 191.09 173.03 190.94 174.15 Z M 190.81 175.14 L 190.68 176.13 C 190.53 177.25 191.31 178.28 192.43 178.43 C 193.55 178.58 194.58 177.79 194.73 176.67 L 194.87 175.68 C 195.02 174.56 194.23 173.53 193.11 173.38 C 191.99 173.23 190.96 174.02 190.81 175.14 Z M 190.68 176.12 L 190.54 177.12 C 190.39 178.24 191.18 179.27 192.30 179.42 C 193.42 179.57 194.45 178.78 194.60 177.67 L 194.73 176.67 C 194.88 175.55 194.10 174.52 192.98 174.37 C 191.86 174.22 190.83 175.00 190.68 176.12 Z M 190.54 177.11 L 190.41 178.10 C 190.25 179.22 191.03 180.25 192.15 180.41 C 193.27 180.56 194.30 179.78 194.46 178.66 L 194.60 177.67 C 194.75 176.55 193.97 175.52 192.85 175.36 C 191.73 175.21 190.70 175.99 190.54 177.11 Z M 190.41 178.10 L 190.27 179.11 C 190.11 180.23 190.89 181.26 192.00 181.42 C 193.12 181.58 194.16 180.80 194.31 179.68 L 194.46 178.67 C 194.62 177.55 193.84 176.52 192.72 176.36 C 191.60 176.20 190.57 176.98 190.41 178.10 Z M 190.27 179.10 L 190.12 180.12 C 189.96 181.24 190.74 182.27 191.85 182.43 C 192.97 182.59 194.01 181.82 194.17 180.70 L 194.31 179.69 C 194.47 178.57 193.70 177.53 192.58 177.37 C 191.46 177.21 190.43 177.99 190.27 179.10 Z M 190.12 180.12 L 189.98 181.13 C 189.81 182.25 190.59 183.28 191.70 183.44 C 192.82 183.61 193.85 182.84 194.02 181.72 L 194.16 180.71 C 194.33 179.59 193.55 178.55 192.44 178.39 C 191.32 178.23 190.29 179.00 190.12 180.12 Z M 189.98 181.13 L 189.83 182.14 C 189.67 183.25 190.44 184.29 191.55 184.45 C 192.66 184.62 193.70 183.85 193.86 182.73 L 194.01 181.72 C 194.18 180.61 193.41 179.57 192.29 179.41 C 191.18 179.24 190.14 180.01 189.98 181.13 Z M 189.83 182.14 L 189.68 183.14 C 189.52 184.26 190.29 185.29 191.40 185.46 C 192.51 185.62 193.55 184.85 193.71 183.74 L 193.86 182.73 C 194.03 181.62 193.26 180.58 192.15 180.42 C 191.03 180.25 190.00 181.02 189.83 182.14 Z M 189.68 183.14 L 189.54 184.14 C 189.37 185.26 190.14 186.29 191.25 186.46 C 192.36 186.62 193.40 185.85 193.56 184.74 L 193.71 183.74 C 193.88 182.63 193.11 181.59 192.00 181.43 C 190.88 181.26 189.85 182.03 189.68 183.14 Z M 189.54 184.15 L 189.39 185.14 C 189.23 186.25 189.99 187.29 191.11 187.45 C 192.22 187.62 193.25 186.85 193.42 185.74 L 193.56 184.74 C 193.73 183.63 192.96 182.59 191.85 182.43 C 190.74 182.27 189.70 183.03 189.54 184.15 Z M 189.39 185.14 L 189.25 186.13 C 189.08 187.24 189.85 188.28 190.96 188.44 C 192.07 188.60 193.11 187.83 193.27 186.72 L 193.41 185.73 C 193.58 184.62 192.81 183.59 191.70 183.43 C 190.59 183.26 189.55 184.03 189.39 185.14 Z M 189.25 186.13 L 189.11 187.11 C 188.94 188.22 189.71 189.26 190.83 189.42 C 191.94 189.58 192.97 188.81 193.13 187.70 L 193.27 186.72 C 193.43 185.61 192.66 184.58 191.55 184.41 C 190.44 184.25 189.41 185.02 189.25 186.13 Z M 189.11 187.12 L 188.97 188.09 C 188.81 189.20 189.58 190.23 190.69 190.38 C 191.80 190.54 192.83 189.77 192.99 188.66 L 193.13 187.69 C 193.28 186.58 192.51 185.55 191.40 185.39 C 190.29 185.24 189.26 186.01 189.11 187.12 Z M 188.97 188.10 L 188.84 189.05 C 188.68 190.16 189.46 191.19 190.57 191.34 C 191.68 191.50 192.70 190.72 192.85 189.61 L 192.99 188.65 C 193.14 187.54 192.37 186.52 191.26 186.36 C 190.15 186.21 189.12 186.99 188.97 188.10 Z M 188.84 189.06 L 188.71 190.01 C 188.56 191.12 189.34 192.14 190.45 192.29 C 191.56 192.44 192.58 191.66 192.73 190.55 L 192.85 189.60 C 193.00 188.49 192.23 187.47 191.12 187.32 C 190.01 187.17 188.99 187.95 188.84 189.06 Z M 188.71 190.02 L 188.58 191.03 C 188.43 192.14 189.22 193.16 190.33 193.30 C 191.43 193.45 192.45 192.66 192.59 191.55 L 192.73 190.54 C 192.87 189.43 192.09 188.42 190.98 188.27 C 189.87 188.13 188.85 188.91 188.71 190.02 Z M 188.58 191.04 L 188.45 192.10 C 188.31 193.21 189.10 194.22 190.20 194.35 C 191.31 194.49 192.33 193.71 192.46 192.60 L 192.59 191.54 C 192.73 190.43 191.95 189.42 190.84 189.29 C 189.73 189.15 188.72 189.93 188.58 191.04 Z M 188.45 192.11 L 188.32 193.14 C 188.19 194.25 188.98 195.26 190.09 195.39 C 191.20 195.52 192.20 194.73 192.34 193.62 L 192.46 192.59 C 192.60 191.48 191.80 190.47 190.70 190.34 C 189.59 190.21 188.58 191.00 188.45 192.11 Z M 188.32 193.15 L 188.21 194.17 C 188.08 195.28 188.87 196.28 189.98 196.41 C 191.09 196.54 192.09 195.74 192.22 194.64 L 192.34 193.62 C 192.47 192.51 191.67 191.51 190.56 191.38 C 189.46 191.25 188.45 192.04 188.32 193.15 Z M 188.21 194.18 L 188.09 195.18 C 187.97 196.29 188.76 197.29 189.87 197.41 C 190.98 197.54 191.98 196.74 192.10 195.64 L 192.22 194.63 C 192.34 193.52 191.55 192.52 190.44 192.40 C 189.33 192.27 188.33 193.07 188.21 194.18 Z M 188.10 195.19 L 187.98 196.18 C 187.86 197.28 188.66 198.28 189.76 198.41 C 190.87 198.53 191.86 197.73 191.99 196.63 L 192.10 195.63 C 192.22 194.53 191.43 193.53 190.32 193.41 C 189.22 193.28 188.22 194.08 188.10 195.19 Z M 187.99 196.18 L 187.88 197.16 C 187.75 198.26 188.55 199.26 189.65 199.38 C 190.76 199.51 191.75 198.71 191.88 197.61 L 191.99 196.63 C 192.11 195.52 191.31 194.53 190.21 194.40 C 189.10 194.28 188.11 195.08 187.99 196.18 Z M 187.88 197.16 L 187.77 198.13 C 187.65 199.23 188.44 200.23 189.54 200.35 C 190.65 200.47 191.64 199.68 191.77 198.58 L 191.87 197.61 C 192.00 196.50 191.20 195.51 190.10 195.39 C 189.00 195.26 188.00 196.06 187.88 197.16 Z M 187.77 198.12 L 187.66 199.08 C 187.54 200.18 188.33 201.18 189.43 201.30 C 190.53 201.43 191.53 200.64 191.65 199.54 L 191.76 198.58 C 191.89 197.48 191.10 196.48 190.00 196.36 C 188.89 196.23 187.90 197.02 187.77 198.12 Z M 187.67 199.07 L 187.56 200.02 C 187.43 201.12 188.21 202.12 189.31 202.25 C 190.41 202.38 191.41 201.59 191.54 200.49 L 191.65 199.54 C 191.78 198.44 190.99 197.44 189.89 197.32 C 188.79 197.19 187.80 197.97 187.67 199.07 Z M 187.56 200.01 L 187.45 200.95 C 187.31 202.05 188.09 203.05 189.19 203.18 C 190.29 203.31 191.29 202.53 191.42 201.43 L 191.54 200.50 C 191.67 199.40 190.89 198.40 189.79 198.27 C 188.69 198.13 187.69 198.91 187.56 200.01 Z M 187.45 200.94 L 187.32 201.96 C 187.18 203.06 187.96 204.06 189.05 204.20 C 190.15 204.34 191.15 203.56 191.29 202.46 L 191.42 201.44 C 191.56 200.35 190.78 199.35 189.69 199.21 C 188.59 199.07 187.59 199.84 187.45 200.94 Z M 187.32 201.95 L 187.19 202.97 C 187.04 204.07 187.81 205.07 188.90 205.22 C 190.00 205.37 191.00 204.60 191.15 203.50 L 191.28 202.48 C 191.43 201.38 190.66 200.38 189.57 200.23 C 188.47 200.09 187.47 200.85 187.32 201.95 Z M 187.19 202.96 L 187.05 203.98 C 186.90 205.07 187.66 206.08 188.75 206.23 C 189.84 206.38 190.85 205.62 191.00 204.53 L 191.14 203.51 C 191.30 202.42 190.53 201.41 189.44 201.26 C 188.35 201.11 187.34 201.87 187.19 202.96 Z M 187.05 203.97 L 186.91 204.97 C 186.75 206.06 187.51 207.07 188.60 207.23 C 189.69 207.39 190.70 206.63 190.85 205.54 L 191.00 204.54 C 191.15 203.45 190.40 202.44 189.31 202.28 C 188.22 202.13 187.21 202.88 187.05 203.97 Z M 186.91 204.97 L 186.77 205.96 C 186.60 207.05 187.35 208.06 188.44 208.22 C 189.53 208.38 190.54 207.63 190.70 206.55 L 190.85 205.55 C 191.01 204.47 190.26 203.45 189.17 203.29 C 188.09 203.13 187.08 203.88 186.91 204.97 Z M 186.77 205.95 L 186.62 206.93 C 186.45 208.02 187.20 209.03 188.28 209.20 C 189.36 209.37 190.38 208.62 190.54 207.54 L 190.70 206.55 C 190.86 205.47 190.12 204.46 189.03 204.29 C 187.95 204.12 186.94 204.87 186.77 205.95 Z M 186.62 206.93 L 186.47 207.90 C 186.30 208.98 187.04 210.00 188.12 210.17 C 189.20 210.34 190.22 209.60 190.39 208.52 L 190.54 207.54 C 190.71 206.46 189.97 205.45 188.89 205.28 C 187.81 205.11 186.79 205.85 186.62 206.93 Z M 186.47 207.89 L 186.32 208.86 C 186.15 209.93 186.88 210.95 187.96 211.12 C 189.04 211.30 190.05 210.56 190.23 209.48 L 190.38 208.52 C 190.56 207.44 189.82 206.43 188.74 206.25 C 187.66 206.08 186.65 206.81 186.47 207.89 Z M 186.32 208.85 L 186.17 209.80 C 185.99 210.88 186.72 211.89 187.80 212.07 C 188.88 212.25 189.89 211.52 190.07 210.44 L 190.22 209.49 C 190.40 208.41 189.67 207.40 188.59 207.22 C 187.52 207.04 186.50 207.77 186.32 208.85 Z M 186.17 209.80 L 186.01 210.76 C 185.83 211.84 186.56 212.85 187.63 213.03 C 188.71 213.21 189.72 212.49 189.90 211.41 L 190.06 210.44 C 190.24 209.37 189.52 208.35 188.44 208.17 C 187.37 208.00 186.35 208.72 186.17 209.80 Z M 186.02 210.76 L 185.84 211.80 C 185.66 212.87 186.38 213.89 187.46 214.07 C 188.53 214.25 189.54 213.53 189.72 212.45 L 189.90 211.41 C 190.08 210.34 189.36 209.33 188.28 209.15 C 187.21 208.97 186.20 209.69 186.02 210.76 Z M 185.85 211.80 L 185.68 212.82 C 185.49 213.89 186.21 214.90 187.27 215.08 C 188.34 215.27 189.35 214.55 189.53 213.49 L 189.71 212.46 C 189.89 211.39 189.18 210.38 188.11 210.20 C 187.05 210.02 186.04 210.73 185.85 211.80 Z M 185.69 212.82 L 185.51 213.83 C 185.32 214.89 186.03 215.90 187.09 216.08 C 188.15 216.27 189.16 215.56 189.35 214.50 L 189.53 213.49 C 189.71 212.43 189.00 211.42 187.94 211.23 C 186.88 211.05 185.87 211.76 185.69 212.82 Z M 185.52 213.82 L 185.34 214.81 C 185.15 215.87 185.85 216.88 186.90 217.07 C 187.95 217.26 188.96 216.56 189.16 215.50 L 189.34 214.51 C 189.53 213.46 188.83 212.45 187.77 212.25 C 186.72 212.06 185.71 212.76 185.52 213.82 Z M 185.35 214.80 L 185.16 215.78 C 184.97 216.83 185.66 217.84 186.71 218.03 C 187.75 218.23 188.76 217.54 188.96 216.49 L 189.15 215.52 C 189.34 214.47 188.65 213.46 187.60 213.26 C 186.56 213.06 185.55 213.75 185.35 214.80 Z M 185.18 215.76 L 184.99 216.72 C 184.78 217.77 185.46 218.78 186.50 218.98 C 187.55 219.19 188.56 218.51 188.76 217.46 L 188.95 216.51 C 189.15 215.46 188.48 214.45 187.43 214.25 C 186.39 214.04 185.38 214.72 185.18 215.76 Z M 185.00 216.71 L 184.81 217.65 C 184.59 218.69 185.26 219.70 186.30 219.91 C 187.33 220.12 188.34 219.46 188.56 218.42 L 188.75 217.48 C 188.96 216.44 188.30 215.43 187.26 215.22 C 186.22 215.01 185.21 215.67 185.00 216.71 Z M 184.82 217.63 L 184.62 218.55 C 184.40 219.58 185.05 220.60 186.08 220.82 C 187.11 221.04 188.12 220.39 188.35 219.36 L 188.54 218.44 C 188.77 217.41 188.11 216.39 187.08 216.17 C 186.05 215.95 185.04 216.60 184.82 217.63 Z M 184.63 218.53 L 184.40 219.56 C 184.17 220.58 184.80 221.59 185.83 221.83 C 186.85 222.06 187.86 221.42 188.10 220.40 L 188.33 219.38 C 188.57 218.36 187.93 217.34 186.91 217.11 C 185.88 216.87 184.87 217.51 184.63 218.53 Z M 184.41 219.53 L 184.16 220.59 C 183.92 221.60 184.54 222.62 185.55 222.86 C 186.57 223.11 187.59 222.49 187.83 221.47 L 188.08 220.42 C 188.33 219.41 187.71 218.39 186.69 218.14 C 185.68 217.90 184.66 218.52 184.41 219.53 Z M 184.17 220.57 L 183.92 221.59 C 183.66 222.59 184.27 223.61 185.28 223.87 C 186.29 224.12 187.31 223.51 187.56 222.51 L 187.82 221.49 C 188.07 220.48 187.46 219.46 186.45 219.21 C 185.45 218.95 184.43 219.56 184.17 220.57 Z M 183.93 221.58 L 183.67 222.56 C 183.42 223.56 184.01 224.58 185.01 224.84 C 186.01 225.10 187.03 224.50 187.29 223.50 L 187.55 222.52 C 187.81 221.52 187.21 220.50 186.21 220.24 C 185.21 219.98 184.19 220.58 183.93 221.58 Z M 183.68 222.56 L 183.43 223.51 C 183.17 224.50 183.77 225.52 184.76 225.78 C 185.75 226.04 186.77 225.45 187.03 224.46 L 187.28 223.51 C 187.54 222.51 186.95 221.50 185.96 221.23 C 184.96 220.97 183.95 221.57 183.68 222.56 Z M 183.44 223.51 L 183.20 224.43 C 182.94 225.42 183.53 226.43 184.52 226.69 C 185.51 226.95 186.52 226.36 186.78 225.37 L 187.02 224.45 C 187.28 223.47 186.69 222.45 185.70 222.19 C 184.72 221.94 183.70 222.53 183.44 223.51 Z M 183.21 224.44 L 182.98 225.32 C 182.73 226.30 183.32 227.30 184.30 227.56 C 185.29 227.81 186.29 227.22 186.55 226.24 L 186.77 225.36 C 187.03 224.38 186.44 223.37 185.45 223.12 C 184.47 222.86 183.47 223.45 183.21 224.44 Z M 182.99 225.33 L 182.74 226.32 C 182.50 227.30 183.10 228.30 184.08 228.54 C 185.06 228.78 186.05 228.19 186.30 227.21 L 186.54 226.22 C 186.79 225.24 186.19 224.24 185.21 224.00 C 184.23 223.76 183.23 224.35 182.99 225.33 Z M 182.75 226.34 L 182.50 227.40 C 182.26 228.37 182.87 229.36 183.84 229.59 C 184.82 229.82 185.80 229.22 186.04 228.24 L 186.29 227.19 C 186.52 226.21 185.92 225.23 184.94 224.99 C 183.97 224.76 182.98 225.36 182.75 226.34 Z M 182.51 227.40 L 182.27 228.39 C 182.04 229.37 182.64 230.34 183.61 230.57 C 184.58 230.81 185.56 230.21 185.79 229.23 L 186.03 228.24 C 186.26 227.27 185.66 226.29 184.69 226.06 C 183.72 225.83 182.74 226.43 182.51 227.40 Z M 182.28 228.38 L 182.05 229.32 C 181.81 230.28 182.39 231.26 183.36 231.50 C 184.32 231.74 185.30 231.16 185.54 230.19 L 185.78 229.25 C 186.02 228.29 185.43 227.31 184.47 227.07 C 183.50 226.83 182.53 227.41 182.28 228.38 Z M 182.07 229.28 L 181.82 230.17 C 181.56 231.12 182.12 232.11 183.07 232.37 C 184.02 232.64 185.01 232.08 185.27 231.13 L 185.52 230.23 C 185.78 229.28 185.22 228.29 184.27 228.03 C 183.32 227.77 182.33 228.33 182.07 229.28 Z M 181.85 230.11 L 181.57 231.00 C 181.27 231.93 181.79 232.93 182.72 233.23 C 183.66 233.53 184.66 233.01 184.96 232.08 L 185.24 231.19 C 185.54 230.25 185.02 229.25 184.09 228.95 C 183.15 228.66 182.15 229.17 181.85 230.11 Z M 181.61 230.91 L 181.24 231.89 C 180.89 232.81 181.35 233.83 182.27 234.17 C 183.18 234.52 184.20 234.06 184.54 233.15 L 184.92 232.16 C 185.26 231.25 184.80 230.23 183.89 229.89 C 182.98 229.54 181.96 230.00 181.61 230.91 Z M 181.29 231.81 L 180.87 232.74 C 180.48 233.63 180.88 234.66 181.77 235.06 C 182.66 235.45 183.69 235.05 184.09 234.16 L 184.50 233.23 C 184.89 232.34 184.49 231.31 183.60 230.91 C 182.71 230.52 181.68 230.92 181.29 231.81 Z M 180.92 232.67 L 180.48 233.55 C 180.05 234.41 180.40 235.46 181.26 235.89 C 182.12 236.32 183.17 235.97 183.60 235.11 L 184.04 234.23 C 184.47 233.37 184.12 232.32 183.26 231.89 C 182.40 231.46 181.35 231.81 180.92 232.67 Z M 180.52 233.49 L 180.06 234.32 C 179.60 235.16 179.90 236.21 180.74 236.67 C 181.57 237.14 182.63 236.84 183.09 236.00 L 183.55 235.17 C 184.02 234.34 183.72 233.28 182.88 232.82 C 182.04 232.35 180.99 232.65 180.52 233.49 Z M 180.11 234.27 L 179.57 235.15 C 179.08 235.96 179.34 237.02 180.15 237.51 C 180.96 238.01 182.02 237.75 182.51 236.93 L 183.05 236.05 C 183.54 235.24 183.28 234.18 182.47 233.69 C 181.66 233.20 180.60 233.45 180.11 234.27 Z M 179.62 235.09 L 179.05 235.94 C 178.53 236.73 178.74 237.79 179.53 238.31 C 180.32 238.84 181.38 238.62 181.90 237.84 L 182.47 236.99 C 182.99 236.20 182.78 235.14 181.99 234.62 C 181.20 234.09 180.14 234.31 179.62 235.09 Z M 179.10 235.89 L 178.53 236.69 C 177.98 237.45 178.14 238.51 178.90 239.06 C 179.66 239.61 180.73 239.44 181.28 238.68 L 181.85 237.89 C 182.40 237.13 182.24 236.07 181.48 235.51 C 180.72 234.96 179.65 235.13 179.10 235.89 Z M 178.57 236.64 L 177.99 237.39 C 177.41 238.12 177.54 239.18 178.27 239.76 C 179.00 240.34 180.06 240.21 180.64 239.48 L 181.23 238.73 C 181.80 238.00 181.68 236.93 180.95 236.36 C 180.21 235.78 179.15 235.91 178.57 236.64 Z M 178.03 237.35 L 177.38 238.12 C 176.78 238.83 176.87 239.89 177.58 240.48 C 178.29 241.08 179.35 240.99 179.94 240.28 L 180.59 239.51 C 181.19 238.81 181.10 237.75 180.39 237.15 C 179.69 236.55 178.63 236.64 178.03 237.35 Z M 177.40 238.12 L 176.75 238.87 C 176.15 239.57 176.23 240.62 176.93 241.22 C 177.63 241.82 178.68 241.74 179.28 241.04 L 179.93 240.29 C 180.52 239.59 180.45 238.54 179.75 237.94 C 179.05 237.34 178.00 237.42 177.40 238.12 Z M 176.74 238.91 L 176.11 239.68 C 175.53 240.38 175.63 241.42 176.33 242.00 C 177.04 242.58 178.08 242.48 178.66 241.78 L 179.29 241.01 C 179.87 240.30 179.77 239.26 179.06 238.68 C 178.36 238.10 177.32 238.20 176.74 238.91 Z M 176.06 239.75 L 175.47 240.54 C 174.93 241.27 175.09 242.30 175.82 242.84 C 176.55 243.38 177.58 243.23 178.12 242.50 L 178.70 241.70 C 179.24 240.97 179.09 239.94 178.36 239.40 C 177.63 238.86 176.60 239.02 176.06 239.75 Z M 175.42 240.62 L 174.88 241.45 C 174.38 242.21 174.60 243.22 175.35 243.72 C 176.11 244.22 177.13 244.00 177.63 243.25 L 178.17 242.42 C 178.66 241.66 178.45 240.64 177.69 240.15 C 176.94 239.65 175.92 239.86 175.42 240.62 Z M 174.84 241.51 L 174.33 242.37 C 173.87 243.15 174.12 244.16 174.90 244.62 C 175.68 245.08 176.69 244.83 177.15 244.05 L 177.66 243.19 C 178.13 242.41 177.87 241.40 177.09 240.94 C 176.31 240.47 175.31 240.73 174.84 241.51 Z M 174.31 242.41 L 173.81 243.30 C 173.37 244.09 173.66 245.09 174.45 245.53 C 175.24 245.97 176.24 245.69 176.68 244.90 L 177.17 244.01 C 177.61 243.21 177.33 242.22 176.54 241.78 C 175.74 241.34 174.75 241.62 174.31 242.41 Z M 173.80 243.33 L 173.35 244.17 C 172.93 244.97 173.23 245.96 174.03 246.38 C 174.83 246.81 175.82 246.51 176.25 245.71 L 176.69 244.87 C 177.12 244.07 176.82 243.08 176.02 242.65 C 175.22 242.23 174.22 242.53 173.80 243.33 Z M 173.35 244.18 L 172.90 245.03 C 172.48 245.84 172.80 246.83 173.60 247.24 C 174.40 247.66 175.39 247.35 175.81 246.55 L 176.26 245.69 C 176.67 244.89 176.36 243.90 175.56 243.48 C 174.75 243.06 173.76 243.38 173.35 244.18 Z M 172.90 245.03 L 172.44 245.93 C 172.02 246.73 172.33 247.72 173.14 248.14 C 173.94 248.56 174.93 248.24 175.35 247.44 L 175.81 246.54 C 176.23 245.74 175.92 244.75 175.11 244.33 C 174.31 243.92 173.32 244.23 172.90 245.03 Z M 172.44 245.92 L 171.94 246.88 C 171.52 247.68 171.83 248.67 172.63 249.09 C 173.43 249.51 174.42 249.20 174.84 248.40 L 175.34 247.45 C 175.76 246.65 175.46 245.65 174.65 245.23 C 173.85 244.81 172.86 245.12 172.44 245.92 Z M 171.95 246.86 L 171.50 247.69 C 171.07 248.49 171.37 249.48 172.17 249.91 C 172.97 250.34 173.96 250.04 174.39 249.24 L 174.84 248.41 C 175.26 247.61 174.96 246.62 174.17 246.19 C 173.37 245.77 172.37 246.06 171.95 246.86 Z M 171.51 247.68 L 171.04 248.54 C 170.61 249.33 170.90 250.33 171.70 250.76 C 172.49 251.20 173.49 250.90 173.92 250.11 L 174.39 249.25 C 174.82 248.46 174.53 247.46 173.73 247.03 C 172.94 246.59 171.94 246.89 171.51 247.68 Z M 171.04 248.53 L 170.56 249.42 C 170.12 250.21 170.41 251.21 171.20 251.65 C 172.00 252.08 172.99 251.79 173.43 251.00 L 173.92 250.11 C 174.35 249.32 174.06 248.32 173.27 247.89 C 172.48 247.45 171.48 247.74 171.04 248.53 Z M 170.56 249.42 L 170.06 250.32 C 169.62 251.11 169.91 252.11 170.70 252.55 C 171.49 252.99 172.49 252.70 172.93 251.91 L 173.43 251.00 C 173.87 250.21 173.58 249.21 172.79 248.77 C 171.99 248.34 171.00 248.62 170.56 249.42 Z M 170.06 250.32 L 169.57 251.20 C 169.13 252.00 169.41 252.99 170.20 253.43 C 171.00 253.87 171.99 253.59 172.43 252.80 L 172.92 251.91 C 173.36 251.12 173.08 250.12 172.29 249.68 C 171.50 249.24 170.50 249.53 170.06 250.32 Z"
      fill="black"
      fill-rule="nonzero" /></svg>