<svg xmlns="http://www.w3.org/2000/svg" width="300" height="300" viewBox="0 0 300 300">
<path d="M 82.67 138.13 L 83.59 138.47 C 84.41 138.77 85.33 138.35 85.63 137.53 C 85.93 136.71 85.51 135.80 84.69 135.49 L 83.76 135.15 C 82.94 134.85 82.03 135.27 81.73 136.09 C 81.43 136.92 81.85 137.83 82.67 138.13 Z M 83.67 138.51 L 84.64 138.81 C 85.48 139.07 86.38 138.60 86.64 137.76 C 86.90 136.91 86.43 136.02 85.58 135.75 L 84.61 135.45 C 83.77 135.19 82.88 135.66 82.61 136.51 C 82.35 137.35 82.82 138.25 83.67 138.51 Z M 84.75 138.85 L 85.73 139.07 C 86.59 139.27 87.46 138.73 87.65 137.86 C 87.85 136.99 87.31 136.13 86.44 135.94 L 85.47 135.71 C 84.60 135.52 83.74 136.06 83.54 136.92 C 83.34 137.79 83.89 138.65 84.75 138.85 Z M 85.80 139.09 L 86.79 139.27 C 87.66 139.43 88.50 138.84 88.66 137.97 C 88.82 137.09 88.24 136.25 87.36 136.09 L 86.37 135.92 C 85.49 135.76 84.66 136.34 84.50 137.22 C 84.34 138.09 84.92 138.93 85.80 139.09 Z M 86.81 139.27 L 87.75 139.43 C 88.63 139.58 89.46 138.98 89.61 138.11 C 89.75 137.23 89.16 136.39 88.28 136.25 L 87.34 136.09 C 86.46 135.94 85.63 136.54 85.48 137.42 C 85.33 138.30 85.93 139.13 86.81 139.27 Z M 87.76 139.44 L 88.74 139.60 C 89.63 139.74 90.46 139.14 90.60 138.26 C 90.74 137.38 90.14 136.55 89.26 136.40 L 88.27 136.24 C 87.39 136.10 86.56 136.70 86.42 137.58 C 86.28 138.46 86.87 139.29 87.76 139.44 Z M 88.75 139.60 L 89.72 139.75 C 90.60 139.89 91.43 139.28 91.57 138.40 C 91.70 137.52 91.10 136.69 90.22 136.55 L 89.25 136.40 C 88.37 136.26 87.54 136.87 87.40 137.75 C 87.26 138.63 87.87 139.46 88.75 139.60 Z M 89.72 139.75 L 90.69 139.90 C 91.58 140.03 92.40 139.42 92.54 138.54 C 92.67 137.66 92.06 136.83 91.18 136.70 L 90.21 136.55 C 89.33 136.41 88.50 137.02 88.37 137.91 C 88.23 138.79 88.84 139.62 89.72 139.75 Z M 90.70 139.90 L 91.74 140.05 C 92.63 140.18 93.45 139.57 93.58 138.69 C 93.71 137.80 93.10 136.98 92.22 136.85 L 91.17 136.69 C 90.29 136.56 89.46 137.18 89.33 138.06 C 89.20 138.95 89.82 139.77 90.70 139.90 Z M 91.75 140.06 L 92.77 140.20 C 93.66 140.33 94.48 139.71 94.61 138.82 C 94.73 137.94 94.12 137.12 93.23 136.99 L 92.21 136.84 C 91.32 136.72 90.50 137.34 90.38 138.22 C 90.25 139.11 90.87 139.93 91.75 140.06 Z M 92.78 140.20 L 93.78 140.34 C 94.66 140.46 95.48 139.85 95.61 138.96 C 95.73 138.07 95.11 137.25 94.22 137.13 L 93.22 136.99 C 92.34 136.86 91.52 137.48 91.39 138.37 C 91.27 139.26 91.89 140.08 92.78 140.20 Z M 93.77 140.34 L 94.76 140.48 C 95.65 140.61 96.47 139.99 96.60 139.10 C 96.72 138.21 96.10 137.39 95.22 137.27 L 94.23 137.13 C 93.34 137.00 92.52 137.62 92.39 138.51 C 92.27 139.40 92.89 140.22 93.77 140.34 Z M 94.76 140.48 L 95.75 140.62 C 96.64 140.75 97.46 140.14 97.59 139.25 C 97.72 138.36 97.11 137.54 96.22 137.41 L 95.22 137.27 C 94.34 137.14 93.51 137.75 93.38 138.64 C 93.25 139.53 93.87 140.35 94.76 140.48 Z M 95.74 140.62 L 96.74 140.78 C 97.62 140.91 98.45 140.31 98.59 139.42 C 98.72 138.53 98.12 137.70 97.23 137.57 L 96.23 137.41 C 95.34 137.28 94.51 137.88 94.38 138.77 C 94.24 139.66 94.85 140.49 95.74 140.62 Z M 96.72 140.78 L 97.70 140.94 C 98.58 141.08 99.42 140.48 99.56 139.59 C 99.71 138.71 99.11 137.87 98.22 137.73 L 97.24 137.57 C 96.36 137.42 95.52 138.02 95.38 138.91 C 95.23 139.80 95.83 140.63 96.72 140.78 Z M 97.68 140.93 L 98.66 141.10 C 99.55 141.26 100.39 140.66 100.54 139.78 C 100.70 138.89 100.10 138.05 99.22 137.90 L 98.23 137.73 C 97.35 137.57 96.51 138.17 96.35 139.05 C 96.20 139.94 96.79 140.78 97.68 140.93 Z M 98.65 141.11 L 99.65 141.28 C 100.54 141.44 101.39 140.85 101.55 139.96 C 101.70 139.08 101.11 138.23 100.23 138.07 L 99.23 137.89 C 98.34 137.74 97.49 138.33 97.33 139.21 C 97.18 140.10 97.77 140.95 98.65 141.11 Z M 99.66 141.29 L 100.64 141.46 C 101.53 141.61 102.38 141.02 102.53 140.13 C 102.68 139.24 102.09 138.39 101.20 138.24 L 100.22 138.07 C 99.33 137.91 98.48 138.51 98.33 139.40 C 98.18 140.29 98.77 141.14 99.66 141.29 Z M 100.67 141.47 L 101.68 141.62 C 102.57 141.76 103.41 141.15 103.55 140.25 C 103.69 139.36 103.07 138.52 102.18 138.39 L 101.17 138.23 C 100.27 138.09 99.44 138.70 99.30 139.60 C 99.16 140.49 99.77 141.33 100.67 141.47 Z M 101.72 141.63 L 102.74 141.76 C 103.63 141.88 104.46 141.25 104.57 140.35 C 104.69 139.45 104.06 138.63 103.16 138.51 L 102.14 138.38 C 101.24 138.26 100.42 138.89 100.30 139.79 C 100.19 140.69 100.82 141.51 101.72 141.63 Z M 102.77 141.77 L 103.70 141.87 C 104.60 141.97 105.41 141.32 105.51 140.42 C 105.61 139.52 104.96 138.71 104.06 138.61 L 103.13 138.51 C 102.23 138.41 101.42 139.06 101.32 139.96 C 101.22 140.86 101.87 141.67 102.77 141.77 Z M 103.73 141.87 L 104.69 141.96 C 105.59 142.04 106.39 141.38 106.47 140.47 C 106.55 139.57 105.89 138.77 104.98 138.69 L 104.02 138.60 C 103.12 138.52 102.32 139.19 102.24 140.09 C 102.16 140.99 102.83 141.79 103.73 141.87 Z M 104.74 141.97 L 105.75 142.02 C 106.66 142.07 107.43 141.38 107.48 140.47 C 107.53 139.57 106.84 138.79 105.93 138.74 L 104.93 138.68 C 104.02 138.63 103.24 139.33 103.19 140.23 C 103.14 141.14 103.84 141.92 104.74 141.97 Z M 105.80 142.03 L 106.78 142.05 C 107.69 142.07 108.44 141.35 108.46 140.44 C 108.49 139.53 107.77 138.78 106.86 138.76 L 105.88 138.74 C 104.97 138.71 104.22 139.43 104.20 140.34 C 104.17 141.25 104.89 142.00 105.80 142.03 Z M 106.81 142.05 L 107.82 142.06 C 108.73 142.07 109.48 141.34 109.48 140.43 C 109.49 139.52 108.76 138.77 107.85 138.76 L 106.83 138.76 C 105.92 138.75 105.18 139.48 105.17 140.39 C 105.16 141.30 105.90 142.04 106.81 142.05 Z M 107.83 142.06 L 108.87 142.06 C 109.78 142.06 110.52 141.33 110.52 140.42 C 110.52 139.50 109.78 138.77 108.87 138.76 L 107.84 138.76 C 106.93 138.76 106.19 139.50 106.19 140.41 C 106.19 141.32 106.92 142.06 107.83 142.06 Z M 108.87 142.06 L 109.96 142.06 C 110.88 142.06 111.61 141.32 111.61 140.41 C 111.61 139.50 110.87 138.76 109.96 138.76 L 108.87 138.76 C 107.96 138.76 107.22 139.50 107.22 140.41 C 107.22 141.33 107.96 142.07 108.87 142.06 Z M 109.97 142.07 L 110.95 142.06 C 111.87 142.06 112.60 141.31 112.60 140.40 C 112.60 139.49 111.85 138.75 110.94 138.76 L 109.96 138.76 C 109.04 138.77 108.31 139.51 108.31 140.42 C 108.32 141.33 109.06 142.07 109.97 142.07 Z M 110.97 142.06 L 111.90 142.05 C 112.81 142.03 113.54 141.28 113.53 140.37 C 113.51 139.46 112.76 138.73 111.85 138.74 L 110.92 138.76 C 110.01 138.77 109.28 139.52 109.30 140.43 C 109.31 141.35 110.06 142.08 110.97 142.06 Z M 111.97 142.05 L 112.93 141.99 C 113.84 141.94 114.54 141.16 114.49 140.25 C 114.44 139.34 113.66 138.64 112.74 138.69 L 111.78 138.74 C 110.87 138.79 110.17 139.58 110.22 140.49 C 110.28 141.40 111.06 142.10 111.97 142.05 Z M 113.03 141.98 L 113.99 141.87 C 114.90 141.76 115.55 140.94 115.44 140.03 C 115.33 139.13 114.51 138.48 113.61 138.58 L 112.64 138.70 C 111.74 138.81 111.09 139.63 111.19 140.53 C 111.30 141.44 112.12 142.09 113.03 141.98 Z M 114.04 141.86 L 115.01 141.72 C 115.92 141.58 116.54 140.74 116.41 139.84 C 116.27 138.93 115.43 138.31 114.52 138.45 L 113.55 138.59 C 112.65 138.73 112.03 139.57 112.16 140.47 C 112.30 141.38 113.14 142.00 114.04 141.86 Z M 115.02 141.72 L 116.08 141.55 C 116.98 141.41 117.60 140.57 117.46 139.66 C 117.32 138.76 116.47 138.14 115.57 138.28 L 114.52 138.45 C 113.61 138.59 112.99 139.43 113.13 140.34 C 113.27 141.24 114.12 141.86 115.02 141.72 Z M 116.06 141.56 L 117.07 141.41 C 117.97 141.28 118.60 140.44 118.46 139.53 C 118.33 138.63 117.49 138.00 116.59 138.13 L 115.59 138.28 C 114.68 138.41 114.05 139.25 114.19 140.16 C 114.32 141.06 115.16 141.69 116.06 141.56 Z M 117.05 141.41 L 118.04 141.28 C 118.95 141.15 119.58 140.32 119.46 139.41 C 119.34 138.51 118.50 137.87 117.60 138.00 L 116.60 138.13 C 115.70 138.25 115.06 139.09 115.18 139.99 C 115.31 140.90 116.14 141.54 117.05 141.41 Z M 118.03 141.28 L 119.02 141.15 C 119.92 141.04 120.57 140.21 120.45 139.30 C 120.33 138.39 119.50 137.75 118.60 137.87 L 117.61 137.99 C 116.70 138.11 116.06 138.94 116.18 139.85 C 116.29 140.75 117.12 141.39 118.03 141.28 Z M 119.01 141.15 L 119.98 141.04 C 120.89 140.93 121.54 140.10 121.43 139.20 C 121.32 138.29 120.49 137.64 119.59 137.75 L 118.61 137.87 C 117.70 137.98 117.05 138.80 117.16 139.71 C 117.27 140.62 118.10 141.26 119.01 141.15 Z M 119.96 141.04 L 120.95 140.93 C 121.86 140.83 122.52 140.01 122.42 139.10 C 122.32 138.19 121.50 137.54 120.59 137.64 L 119.60 137.75 C 118.69 137.85 118.04 138.66 118.14 139.57 C 118.24 140.48 119.06 141.14 119.96 141.04 Z M 120.93 140.93 L 121.96 140.83 C 122.87 140.75 123.53 139.94 123.44 139.03 C 123.36 138.11 122.55 137.45 121.64 137.54 L 120.61 137.64 C 119.70 137.72 119.04 138.53 119.12 139.44 C 119.21 140.35 120.02 141.02 120.93 140.93 Z M 121.93 140.84 L 122.98 140.75 C 123.89 140.67 124.57 139.87 124.49 138.96 C 124.41 138.05 123.61 137.37 122.70 137.45 L 121.66 137.53 C 120.75 137.61 120.07 138.41 120.14 139.32 C 120.22 140.23 121.02 140.91 121.93 140.84 Z M 122.95 140.75 L 123.96 140.68 C 124.87 140.62 125.56 139.83 125.50 138.91 C 125.44 138.00 124.65 137.31 123.73 137.38 L 122.72 137.45 C 121.81 137.51 121.12 138.30 121.19 139.21 C 121.25 140.13 122.04 140.81 122.95 140.75 Z M 123.93 140.68 L 124.91 140.63 C 125.83 140.59 126.53 139.81 126.48 138.89 C 126.44 137.98 125.66 137.28 124.74 137.32 L 123.76 137.37 C 122.85 137.42 122.15 138.20 122.19 139.11 C 122.24 140.03 123.02 140.73 123.93 140.68 Z M 124.87 140.63 L 125.90 140.61 C 126.81 140.59 127.54 139.83 127.52 138.91 C 127.49 138.00 126.73 137.28 125.82 137.30 L 124.79 137.32 C 123.87 137.34 123.15 138.10 123.17 139.02 C 123.19 139.93 123.95 140.66 124.87 140.63 Z M 125.86 140.61 L 126.78 140.61 C 127.69 140.61 128.43 139.86 128.43 138.95 C 128.43 138.03 127.68 137.29 126.77 137.29 L 125.85 137.30 C 124.94 137.30 124.20 138.04 124.20 138.96 C 124.20 139.87 124.95 140.61 125.86 140.61 Z M 126.77 140.61 L 127.75 140.61 C 128.67 140.61 129.41 139.87 129.41 138.95 C 129.41 138.04 128.67 137.29 127.75 137.29 L 126.77 137.29 C 125.86 137.29 125.12 138.04 125.12 138.95 C 125.12 139.87 125.86 140.61 126.77 140.61 Z M 127.75 140.61 L 128.75 140.61 C 129.66 140.61 130.41 139.87 130.41 138.95 C 130.41 138.04 129.67 137.29 128.75 137.29 L 127.75 137.29 C 126.84 137.29 126.10 138.04 126.10 138.95 C 126.10 139.87 126.84 140.61 127.75 140.61 Z M 128.73 140.61 L 129.68 140.62 C 130.60 140.63 131.35 139.90 131.36 138.98 C 131.37 138.07 130.63 137.32 129.72 137.30 L 128.77 137.29 C 127.85 137.28 127.10 138.02 127.09 138.93 C 127.08 139.85 127.81 140.60 128.73 140.61 Z M 129.62 140.62 L 130.70 140.67 C 131.61 140.71 132.39 140.01 132.43 139.09 C 132.48 138.17 131.77 137.40 130.85 137.36 L 129.78 137.30 C 128.86 137.26 128.09 137.97 128.04 138.88 C 128.00 139.80 128.71 140.58 129.62 140.62 Z M 130.63 140.67 L 131.65 140.76 C 132.56 140.84 133.37 140.16 133.45 139.25 C 133.53 138.33 132.86 137.53 131.94 137.45 L 130.92 137.36 C 130.01 137.28 129.20 137.95 129.12 138.87 C 129.04 139.78 129.72 140.59 130.63 140.67 Z M 131.60 140.75 L 132.63 140.87 C 133.54 140.98 134.36 140.33 134.47 139.41 C 134.57 138.50 133.92 137.68 133.01 137.57 L 131.99 137.45 C 131.08 137.35 130.25 138.00 130.15 138.91 C 130.04 139.82 130.69 140.65 131.60 140.75 Z M 132.59 140.87 L 133.57 141.01 C 134.48 141.13 135.32 140.50 135.45 139.59 C 135.57 138.68 134.94 137.84 134.03 137.71 L 133.05 137.58 C 132.14 137.45 131.30 138.08 131.17 138.99 C 131.04 139.90 131.68 140.74 132.59 140.87 Z M 133.52 141.00 L 134.53 141.17 C 135.44 141.32 136.29 140.71 136.45 139.80 C 136.60 138.90 135.99 138.04 135.08 137.89 L 134.08 137.72 C 133.17 137.57 132.31 138.18 132.16 139.08 C 132.01 139.99 132.62 140.85 133.52 141.00 Z M 134.51 141.17 L 135.43 141.33 C 136.34 141.49 137.20 140.89 137.36 139.98 C 137.52 139.08 136.92 138.21 136.01 138.05 L 135.10 137.89 C 134.19 137.73 133.33 138.33 133.17 139.24 C 133.00 140.14 133.61 141.01 134.51 141.17 Z M 135.46 141.34 L 136.44 141.50 C 137.35 141.64 138.21 141.03 138.35 140.12 C 138.50 139.21 137.88 138.35 136.98 138.21 L 135.99 138.05 C 135.08 137.90 134.22 138.52 134.08 139.43 C 133.93 140.33 134.55 141.19 135.46 141.34 Z M 136.48 141.50 L 137.48 141.65 C 138.40 141.77 139.24 141.14 139.37 140.23 C 139.50 139.32 138.86 138.47 137.95 138.34 L 136.94 138.20 C 136.03 138.07 135.19 138.71 135.06 139.62 C 134.93 140.53 135.56 141.37 136.48 141.50 Z M 137.50 141.65 L 138.50 141.78 C 139.41 141.90 140.25 141.25 140.37 140.34 C 140.48 139.42 139.84 138.59 138.93 138.47 L 137.93 138.34 C 137.02 138.22 136.18 138.87 136.06 139.78 C 135.94 140.69 136.59 141.53 137.50 141.65 Z M 138.47 141.77 L 139.45 141.92 C 140.36 142.05 141.21 141.42 141.34 140.50 C 141.47 139.59 140.84 138.74 139.92 138.61 L 138.95 138.47 C 138.04 138.34 137.19 138.97 137.06 139.88 C 136.93 140.80 137.56 141.64 138.47 141.77 Z M 139.41 141.91 L 140.39 142.07 C 141.30 142.23 142.16 141.61 142.31 140.70 C 142.47 139.79 141.85 138.93 140.94 138.78 L 139.96 138.62 C 139.05 138.46 138.19 139.08 138.04 139.99 C 137.89 140.90 138.50 141.76 139.41 141.91 Z M 140.39 142.07 L 141.30 142.23 C 142.20 142.38 143.07 141.77 143.22 140.86 C 143.37 139.95 142.76 139.09 141.85 138.93 L 140.94 138.78 C 140.03 138.63 139.17 139.24 139.02 140.15 C 138.87 141.06 139.48 141.92 140.39 142.07 Z M 141.31 142.23 L 142.25 142.38 C 143.16 142.53 144.02 141.91 144.17 141.00 C 144.31 140.08 143.69 139.23 142.78 139.08 L 141.84 138.93 C 140.93 138.78 140.07 139.40 139.92 140.32 C 139.78 141.23 140.40 142.08 141.31 142.23 Z M 142.26 142.38 L 143.35 142.55 C 144.26 142.69 145.11 142.07 145.26 141.16 C 145.40 140.25 144.77 139.39 143.86 139.25 L 142.78 139.08 C 141.86 138.94 141.01 139.56 140.87 140.47 C 140.73 141.39 141.35 142.24 142.26 142.38 Z M 143.35 142.55 L 144.29 142.70 C 145.21 142.84 146.06 142.21 146.20 141.30 C 146.34 140.39 145.71 139.53 144.80 139.39 L 143.86 139.25 C 142.95 139.11 142.09 139.74 141.95 140.65 C 141.81 141.56 142.44 142.41 143.35 142.55 Z M 144.30 142.70 L 145.32 142.85 C 146.24 142.98 147.08 142.35 147.22 141.44 C 147.35 140.53 146.72 139.68 145.81 139.54 L 144.79 139.39 C 143.88 139.26 143.03 139.89 142.89 140.80 C 142.76 141.71 143.39 142.56 144.30 142.70 Z M 145.34 142.85 L 146.37 142.99 C 147.29 143.12 148.13 142.48 148.26 141.57 C 148.38 140.65 147.74 139.81 146.83 139.68 L 145.79 139.54 C 144.88 139.41 144.04 140.05 143.91 140.97 C 143.78 141.88 144.42 142.72 145.34 142.85 Z M 146.40 143.00 L 147.50 143.13 C 148.42 143.24 149.25 142.59 149.36 141.68 C 149.47 140.76 148.82 139.93 147.91 139.82 L 146.80 139.68 C 145.89 139.57 145.06 140.22 144.94 141.13 C 144.83 142.05 145.48 142.88 146.40 143.00 Z M 147.53 143.14 L 148.58 143.24 C 149.49 143.34 150.32 142.67 150.41 141.76 C 150.51 140.84 149.84 140.02 148.92 139.92 L 147.88 139.81 C 146.96 139.72 146.14 140.38 146.04 141.30 C 145.95 142.22 146.61 143.04 147.53 143.14 Z M 148.61 143.25 L 149.52 143.32 C 150.44 143.40 151.25 142.72 151.32 141.80 C 151.40 140.88 150.72 140.07 149.80 139.99 L 148.89 139.92 C 147.97 139.84 147.16 140.52 147.09 141.44 C 147.01 142.36 147.69 143.17 148.61 143.25 Z M 149.57 143.33 L 150.56 143.38 C 151.48 143.43 152.26 142.73 152.31 141.80 C 152.37 140.88 151.66 140.10 150.74 140.04 L 149.75 139.99 C 148.83 139.94 148.04 140.65 147.99 141.57 C 147.94 142.49 148.65 143.28 149.57 143.33 Z M 150.62 143.38 L 151.57 143.40 C 152.49 143.41 153.25 142.68 153.27 141.75 C 153.28 140.83 152.54 140.07 151.62 140.06 L 150.67 140.04 C 149.75 140.03 148.99 140.77 148.98 141.69 C 148.96 142.61 149.70 143.37 150.62 143.38 Z M 151.59 143.40 L 152.57 143.40 C 153.50 143.40 154.24 142.65 154.24 141.73 C 154.25 140.80 153.50 140.06 152.57 140.06 L 151.60 140.06 C 150.67 140.06 149.92 140.80 149.92 141.73 C 149.92 142.65 150.67 143.40 151.59 143.40 Z M 152.57 143.40 L 153.60 143.40 C 154.52 143.40 155.27 142.65 155.27 141.73 C 155.27 140.80 154.52 140.05 153.60 140.05 L 152.57 140.05 C 151.65 140.05 150.90 140.80 150.90 141.73 C 150.90 142.65 151.65 143.40 152.57 143.40 Z M 153.60 143.40 L 154.62 143.40 C 155.55 143.40 156.30 142.65 156.30 141.73 C 156.30 140.80 155.55 140.05 154.62 140.05 L 153.60 140.05 C 152.67 140.05 151.92 140.80 151.92 141.73 C 151.92 142.65 152.67 143.40 153.60 143.40 Z M 154.62 143.40 L 155.59 143.40 C 156.52 143.40 157.27 142.65 157.27 141.73 C 157.27 140.80 156.52 140.05 155.59 140.05 L 154.62 140.05 C 153.69 140.05 152.94 140.80 152.94 141.73 C 152.94 142.65 153.69 143.40 154.62 143.40 Z M 155.59 143.41 L 156.52 143.41 C 157.44 143.41 158.19 142.66 158.20 141.73 C 158.20 140.81 157.45 140.05 156.52 140.05 L 155.60 140.05 C 154.67 140.05 153.92 140.80 153.92 141.73 C 153.91 142.65 154.66 143.40 155.59 143.41 Z M 156.49 143.41 L 157.53 143.42 C 158.45 143.44 159.21 142.70 159.23 141.77 C 159.24 140.84 158.50 140.08 157.58 140.07 L 156.54 140.05 C 155.62 140.04 154.86 140.78 154.84 141.70 C 154.83 142.63 155.57 143.39 156.49 143.41 Z M 157.49 143.42 L 158.51 143.46 C 159.44 143.49 160.21 142.77 160.25 141.84 C 160.28 140.91 159.56 140.14 158.63 140.10 L 157.61 140.07 C 156.68 140.04 155.91 140.76 155.87 141.69 C 155.84 142.61 156.57 143.39 157.49 143.42 Z M 158.49 143.46 L 159.51 143.51 C 160.43 143.55 161.22 142.84 161.27 141.92 C 161.32 140.99 160.60 140.20 159.68 140.16 L 158.65 140.10 C 157.73 140.06 156.94 140.77 156.89 141.70 C 156.85 142.62 157.56 143.41 158.49 143.46 Z M 159.49 143.51 L 160.50 143.57 C 161.42 143.63 162.22 142.92 162.28 142.00 C 162.34 141.07 161.63 140.28 160.71 140.22 L 159.70 140.16 C 158.77 140.10 157.98 140.80 157.92 141.73 C 157.86 142.65 158.56 143.45 159.49 143.51 Z M 160.48 143.57 L 161.49 143.64 C 162.42 143.71 163.22 143.02 163.29 142.09 C 163.36 141.17 162.66 140.36 161.74 140.29 L 160.73 140.22 C 159.80 140.15 159.00 140.85 158.93 141.77 C 158.86 142.70 159.55 143.50 160.48 143.57 Z M 161.49 143.64 L 162.45 143.72 C 163.37 143.79 164.18 143.10 164.25 142.17 C 164.32 141.25 163.63 140.44 162.71 140.37 L 161.75 140.30 C 160.82 140.22 160.01 140.92 159.94 141.84 C 159.87 142.76 160.56 143.57 161.49 143.64 Z M 162.46 143.72 L 163.46 143.79 C 164.38 143.86 165.19 143.16 165.25 142.24 C 165.32 141.31 164.62 140.51 163.70 140.44 L 162.70 140.37 C 161.77 140.30 160.97 141.00 160.90 141.92 C 160.84 142.85 161.53 143.65 162.46 143.72 Z M 163.46 143.79 L 164.46 143.86 C 165.38 143.92 166.19 143.23 166.25 142.30 C 166.32 141.38 165.62 140.57 164.69 140.51 L 163.70 140.44 C 162.77 140.38 161.97 141.07 161.90 142.00 C 161.84 142.92 162.54 143.73 163.46 143.79 Z M 164.45 143.86 L 165.40 143.93 C 166.33 144.00 167.13 143.31 167.20 142.38 C 167.27 141.46 166.58 140.65 165.65 140.58 L 164.70 140.51 C 163.78 140.44 162.97 141.13 162.90 142.06 C 162.83 142.98 163.53 143.79 164.45 143.86 Z M 165.38 143.93 L 166.38 144.02 C 167.31 144.10 168.12 143.42 168.21 142.50 C 168.29 141.57 167.61 140.76 166.68 140.67 L 165.68 140.58 C 164.76 140.50 163.94 141.18 163.86 142.10 C 163.77 143.03 164.45 143.85 165.38 143.93 Z M 166.35 144.02 L 167.37 144.13 C 168.29 144.23 169.12 143.57 169.22 142.64 C 169.33 141.72 168.66 140.89 167.74 140.79 L 166.72 140.68 C 165.79 140.57 164.96 141.24 164.86 142.16 C 164.76 143.09 165.43 143.92 166.35 144.02 Z M 167.35 144.13 L 168.38 144.25 C 169.30 144.36 170.14 143.70 170.25 142.78 C 170.36 141.86 169.70 141.02 168.78 140.91 L 167.75 140.79 C 166.83 140.68 165.99 141.34 165.88 142.26 C 165.77 143.18 166.43 144.02 167.35 144.13 Z M 168.38 144.25 L 169.36 144.37 C 170.29 144.48 171.12 143.82 171.23 142.90 C 171.34 141.98 170.68 141.14 169.76 141.03 L 168.78 140.91 C 167.86 140.80 167.02 141.46 166.91 142.38 C 166.80 143.30 167.46 144.14 168.38 144.25 Z M 169.38 144.37 L 170.44 144.49 C 171.36 144.59 172.19 143.92 172.29 143.00 C 172.39 142.07 171.72 141.24 170.80 141.14 L 169.75 141.03 C 168.82 140.93 167.99 141.59 167.89 142.52 C 167.79 143.44 168.46 144.27 169.38 144.37 Z M 170.46 144.49 L 171.37 144.58 C 172.30 144.67 173.12 143.99 173.21 143.07 C 173.30 142.14 172.62 141.32 171.70 141.23 L 170.78 141.14 C 169.86 141.05 169.03 141.73 168.94 142.65 C 168.85 143.58 169.53 144.40 170.46 144.49 Z M 171.38 144.58 L 172.38 144.67 C 173.30 144.75 174.12 144.07 174.21 143.14 C 174.29 142.22 173.60 141.40 172.68 141.31 L 171.69 141.23 C 170.76 141.14 169.94 141.83 169.86 142.75 C 169.77 143.68 170.46 144.50 171.38 144.58 Z M 172.38 144.68 L 173.36 144.76 C 174.29 144.84 175.11 144.15 175.19 143.22 C 175.27 142.29 174.58 141.47 173.65 141.39 L 172.67 141.31 C 171.74 141.23 170.92 141.92 170.84 142.85 C 170.76 143.78 171.45 144.60 172.38 144.68 Z M 173.36 144.76 L 174.35 144.85 C 175.28 144.93 176.10 144.24 176.18 143.31 C 176.26 142.38 175.58 141.56 174.65 141.48 L 173.65 141.39 C 172.72 141.31 171.90 142.00 171.82 142.93 C 171.74 143.86 172.43 144.68 173.36 144.76 Z M 174.34 144.85 L 175.36 144.95 C 176.29 145.04 177.12 144.35 177.21 143.42 C 177.30 142.49 176.61 141.67 175.68 141.58 L 174.66 141.48 C 173.73 141.39 172.90 142.07 172.81 143.00 C 172.73 143.93 173.41 144.76 174.34 144.85 Z M 175.35 144.95 L 176.36 145.05 C 177.29 145.14 178.12 144.47 178.22 143.54 C 178.31 142.61 177.63 141.78 176.70 141.68 L 175.69 141.58 C 174.76 141.49 173.93 142.16 173.84 143.09 C 173.75 144.02 174.42 144.85 175.35 144.95 Z M 176.36 145.05 L 177.31 145.15 C 178.24 145.24 179.07 144.56 179.16 143.63 C 179.26 142.70 178.58 141.87 177.65 141.78 L 176.70 141.68 C 175.77 141.59 174.94 142.26 174.85 143.19 C 174.75 144.12 175.43 144.96 176.36 145.05 Z M 177.29 145.15 L 178.26 145.25 C 179.19 145.36 180.03 144.69 180.13 143.76 C 180.24 142.83 179.57 141.99 178.64 141.89 L 177.67 141.78 C 176.74 141.67 175.90 142.34 175.80 143.27 C 175.69 144.20 176.36 145.04 177.29 145.15 Z M 178.23 145.25 L 179.24 145.39 C 180.17 145.51 181.03 144.86 181.15 143.93 C 181.28 143.00 180.62 142.15 179.69 142.02 L 178.68 141.89 C 177.75 141.76 176.89 142.42 176.77 143.35 C 176.64 144.27 177.30 145.13 178.23 145.25 Z M 179.22 145.39 L 180.25 145.54 C 181.17 145.68 182.04 145.04 182.18 144.11 C 182.31 143.18 181.67 142.32 180.75 142.18 L 179.72 142.03 C 178.79 141.89 177.93 142.53 177.79 143.46 C 177.65 144.38 178.29 145.25 179.22 145.39 Z M 180.23 145.54 L 181.20 145.69 C 182.13 145.84 183.00 145.22 183.15 144.29 C 183.30 143.36 182.67 142.49 181.75 142.34 L 180.77 142.18 C 179.84 142.03 178.97 142.66 178.82 143.59 C 178.67 144.51 179.30 145.39 180.23 145.54 Z M 181.17 145.69 L 182.19 145.87 C 183.12 146.04 184.00 145.43 184.17 144.50 C 184.33 143.58 183.72 142.70 182.80 142.53 L 181.78 142.35 C 180.85 142.18 179.97 142.79 179.80 143.72 C 179.64 144.64 180.25 145.52 181.17 145.69 Z M 182.19 145.87 L 183.12 146.05 C 184.05 146.22 184.93 145.61 185.10 144.68 C 185.28 143.76 184.67 142.87 183.74 142.70 L 182.80 142.53 C 181.88 142.36 180.99 142.97 180.82 143.89 C 180.65 144.82 181.26 145.70 182.19 145.87 Z M 183.15 146.06 L 184.13 146.22 C 185.06 146.38 185.94 145.75 186.10 144.82 C 186.25 143.89 185.62 143.01 184.70 142.86 L 183.71 142.70 C 182.79 142.54 181.91 143.17 181.75 144.09 C 181.60 145.02 182.22 145.90 183.15 146.06 Z M 184.17 146.23 L 185.17 146.38 C 186.10 146.52 186.97 145.87 187.11 144.93 C 187.25 144.00 186.60 143.13 185.66 142.99 L 184.66 142.85 C 183.73 142.71 182.86 143.36 182.72 144.29 C 182.58 145.23 183.23 146.10 184.17 146.23 Z M 185.22 146.39 L 186.23 146.51 C 187.18 146.62 188.03 145.94 188.14 145.00 C 188.25 144.06 187.57 143.21 186.63 143.10 L 185.61 142.98 C 184.67 142.87 183.82 143.55 183.71 144.49 C 183.60 145.43 184.28 146.28 185.22 146.39 Z M 186.28 146.52 L 187.25 146.60 C 188.20 146.68 189.03 145.98 189.11 145.04 C 189.20 144.09 188.50 143.26 187.55 143.18 L 186.58 143.09 C 185.64 143.01 184.80 143.71 184.72 144.65 C 184.64 145.60 185.34 146.43 186.28 146.52 Z M 187.27 146.60 L 188.25 146.68 C 189.20 146.75 190.02 146.03 190.09 145.09 C 190.16 144.14 189.45 143.31 188.50 143.24 L 187.53 143.17 C 186.58 143.10 185.75 143.81 185.68 144.76 C 185.61 145.71 186.33 146.53 187.27 146.60 Z M 188.29 146.68 L 189.31 146.73 C 190.26 146.78 191.07 146.05 191.12 145.10 C 191.16 144.15 190.43 143.34 189.48 143.29 L 188.46 143.24 C 187.51 143.19 186.70 143.92 186.66 144.87 C 186.61 145.82 187.34 146.63 188.29 146.68 Z M 189.36 146.73 L 190.35 146.75 C 191.30 146.77 192.09 146.02 192.11 145.07 C 192.13 144.11 191.37 143.33 190.42 143.31 L 189.43 143.29 C 188.48 143.27 187.69 144.03 187.68 144.98 C 187.66 145.93 188.41 146.71 189.36 146.73 Z M 190.38 146.75 L 191.39 146.76 C 192.34 146.76 193.12 145.99 193.12 145.04 C 193.12 144.09 192.35 143.32 191.40 143.31 L 190.39 143.31 C 189.44 143.31 188.67 144.08 188.66 145.03 C 188.66 145.98 189.43 146.75 190.38 146.75 Z M 191.40 146.76 L 192.39 146.76 C 193.34 146.76 194.11 145.98 194.11 145.03 C 194.11 144.08 193.34 143.31 192.39 143.31 L 191.40 143.31 C 190.45 143.31 189.68 144.08 189.68 145.03 C 189.68 145.98 190.45 146.76 191.40 146.76 Z M 192.39 146.76 L 193.40 146.76 C 194.35 146.76 195.12 145.98 195.12 145.03 C 195.12 144.08 194.35 143.31 193.40 143.31 L 192.39 143.31 C 191.44 143.31 190.67 144.08 190.67 145.03 C 190.67 145.98 191.44 146.76 192.39 146.76 Z M 193.40 146.76 L 194.42 146.76 C 195.37 146.76 196.14 145.98 196.14 145.03 C 196.14 144.08 195.37 143.31 194.42 143.31 L 193.40 143.31 C 192.44 143.31 191.67 144.08 191.67 145.03 C 191.67 145.98 192.44 146.76 193.40 146.76 Z M 194.42 146.76 L 195.42 146.76 C 196.37 146.76 197.14 145.98 197.14 145.03 C 197.14 144.08 196.37 143.31 195.42 143.31 L 194.42 143.31 C 193.47 143.31 192.70 144.08 192.70 145.03 C 192.70 145.98 193.47 146.76 194.42 146.76 Z M 195.42 146.76 L 196.40 146.75 C 197.35 146.75 198.12 145.98 198.11 145.03 C 198.11 144.08 197.34 143.31 196.39 143.31 L 195.41 143.31 C 194.46 143.31 193.69 144.09 193.69 145.04 C 193.70 145.99 194.47 146.76 195.42 146.76 Z M 196.42 146.75 L 197.41 146.74 C 198.36 146.72 199.12 145.94 199.10 144.99 C 199.09 144.04 198.30 143.28 197.35 143.30 L 196.36 143.31 C 195.41 143.33 194.66 144.11 194.67 145.06 C 194.69 146.01 195.47 146.77 196.42 146.75 Z M 197.47 146.74 L 198.48 146.68 C 199.43 146.64 200.16 145.83 200.11 144.88 C 200.06 143.93 199.26 143.20 198.31 143.25 L 197.29 143.30 C 196.34 143.35 195.61 144.15 195.66 145.10 C 195.71 146.05 196.52 146.78 197.47 146.74 Z M 198.51 146.68 L 199.53 146.61 C 200.48 146.55 201.19 145.73 201.13 144.78 C 201.07 143.83 200.24 143.11 199.30 143.18 L 198.28 143.25 C 197.33 143.31 196.61 144.13 196.68 145.08 C 196.74 146.03 197.56 146.75 198.51 146.68 Z M 199.51 146.62 L 200.52 146.56 C 201.47 146.51 202.19 145.70 202.14 144.75 C 202.09 143.80 201.28 143.07 200.33 143.12 L 199.32 143.18 C 198.37 143.23 197.64 144.04 197.69 144.99 C 197.74 145.94 198.56 146.67 199.51 146.62 Z M 200.46 146.56 L 201.45 146.54 C 202.40 146.53 203.15 145.74 203.14 144.79 C 203.12 143.84 202.33 143.08 201.38 143.10 L 200.39 143.12 C 199.44 143.14 198.68 143.92 198.70 144.87 C 198.72 145.82 199.50 146.58 200.46 146.56 Z M 201.42 146.55 L 202.38 146.54 C 203.33 146.54 204.11 145.77 204.11 144.82 C 204.10 143.87 203.33 143.10 202.38 143.10 L 201.41 143.10 C 200.46 143.10 199.69 143.87 199.69 144.82 C 199.69 145.77 200.47 146.55 201.42 146.55 Z M 202.37 146.54 L 203.38 146.55 C 204.33 146.56 205.10 145.79 205.11 144.84 C 205.12 143.89 204.35 143.11 203.40 143.11 L 202.39 143.10 C 201.44 143.09 200.67 143.86 200.66 144.81 C 200.66 145.76 201.42 146.54 202.37 146.54 Z M 203.35 146.55 L 204.37 146.57 C 205.32 146.59 206.11 145.84 206.13 144.89 C 206.15 143.94 205.39 143.15 204.44 143.13 L 203.42 143.11 C 202.47 143.09 201.69 143.84 201.67 144.79 C 201.64 145.74 202.40 146.53 203.35 146.55 Z M 204.31 146.57 L 205.30 146.62 C 206.25 146.68 207.06 145.95 207.12 145.00 C 207.17 144.05 206.44 143.23 205.49 143.18 L 204.50 143.13 C 203.55 143.08 202.73 143.81 202.68 144.76 C 202.63 145.71 203.36 146.52 204.31 146.57 Z M 205.23 146.62 L 206.17 146.71 C 207.12 146.80 207.96 146.11 208.05 145.16 C 208.15 144.22 207.46 143.37 206.51 143.28 L 205.56 143.19 C 204.62 143.10 203.77 143.79 203.68 144.74 C 203.59 145.68 204.28 146.53 205.23 146.62 Z M 206.20 146.71 L 207.24 146.80 C 208.19 146.88 209.02 146.17 209.10 145.22 C 209.18 144.27 208.47 143.44 207.52 143.36 L 206.48 143.28 C 205.53 143.20 204.70 143.91 204.62 144.85 C 204.54 145.80 205.25 146.64 206.20 146.71 Z M 207.33 146.81 L 208.32 146.84 C 209.28 146.87 210.07 146.12 210.10 145.17 C 210.13 144.21 209.38 143.42 208.43 143.39 L 207.43 143.36 C 206.48 143.33 205.68 144.08 205.66 145.03 C 205.63 145.98 206.37 146.78 207.33 146.81 Z M 208.37 146.84 L 209.38 146.84 C 210.34 146.85 211.11 146.08 211.12 145.13 C 211.12 144.18 210.36 143.40 209.40 143.39 L 208.39 143.39 C 207.44 143.38 206.66 144.15 206.65 145.10 C 206.65 146.05 207.41 146.83 208.37 146.84 Z M 209.39 146.84 L 210.44 146.84 C 211.39 146.84 212.16 146.07 212.16 145.12 C 212.16 144.17 211.39 143.40 210.44 143.40 L 209.39 143.40 C 208.44 143.40 207.67 144.17 207.67 145.12 C 207.67 146.07 208.44 146.84 209.39 146.84 Z M 210.44 146.84 L 211.39 146.84 C 212.34 146.84 213.11 146.07 213.11 145.12 C 213.11 144.17 212.34 143.40 211.39 143.40 L 210.44 143.40 C 209.49 143.40 208.71 144.17 208.71 145.12 C 208.71 146.07 209.49 146.84 210.44 146.84 Z M 211.39 146.84 L 212.39 146.84 C 213.34 146.84 214.11 146.07 214.11 145.12 C 214.11 144.17 213.34 143.40 212.39 143.40 L 211.39 143.40 C 210.43 143.40 209.66 144.17 209.66 145.12 C 209.66 146.07 210.43 146.84 211.39 146.84 Z M 212.39 146.84 L 213.39 146.84 C 214.34 146.84 215.11 146.07 215.11 145.12 C 215.11 144.17 214.34 143.39 213.39 143.39 L 212.39 143.39 C 211.44 143.39 210.66 144.17 210.66 145.12 C 210.66 146.07 211.43 146.84 212.39 146.84 Z M 213.37 146.85 L 214.37 146.86 C 215.32 146.87 216.11 146.11 216.12 145.15 C 216.13 144.19 215.37 143.41 214.41 143.40 L 213.41 143.39 C 212.45 143.38 211.67 144.14 211.66 145.10 C 211.65 146.06 212.41 146.84 213.37 146.85 Z M 214.29 146.87 L 215.26 146.93 C 216.22 146.98 217.04 146.25 217.10 145.29 C 217.15 144.33 216.42 143.51 215.46 143.45 L 214.49 143.39 C 213.53 143.34 212.71 144.07 212.65 145.03 C 212.59 145.99 213.33 146.81 214.29 146.87 Z M 215.14 146.92 L 216.15 147.05 C 217.10 147.17 217.98 146.50 218.10 145.54 C 218.22 144.59 217.55 143.71 216.60 143.59 L 215.58 143.46 C 214.63 143.34 213.75 144.01 213.63 144.96 C 213.51 145.92 214.18 146.79 215.14 146.92 Z M 215.91 147.00 L 216.90 147.27 C 217.83 147.53 218.79 146.98 219.04 146.05 C 219.30 145.12 218.75 144.16 217.82 143.90 L 216.83 143.63 C 215.90 143.38 214.94 143.93 214.69 144.86 C 214.43 145.79 214.98 146.75 215.91 147.00 Z M 216.15 146.85 L 216.78 147.46 C 217.48 148.13 218.59 148.11 219.26 147.41 C 219.93 146.71 219.91 145.60 219.21 144.93 L 218.57 144.32 C 217.87 143.65 216.76 143.68 216.09 144.38 C 215.42 145.07 215.45 146.18 216.15 146.85 Z M 216.28 146.58 L 216.49 147.52 C 216.70 148.47 217.64 149.07 218.59 148.86 C 219.53 148.65 220.13 147.71 219.92 146.76 L 219.71 145.82 C 219.50 144.87 218.56 144.27 217.61 144.48 C 216.67 144.69 216.07 145.63 216.28 146.58 Z M 216.44 147.22 L 216.49 148.27 C 216.53 149.25 217.35 150.00 218.32 149.96 C 219.30 149.92 220.05 149.10 220.01 148.13 L 219.97 147.07 C 219.93 146.10 219.10 145.34 218.13 145.38 C 217.16 145.42 216.40 146.24 216.44 147.22 Z M 216.48 148.22 L 216.49 149.22 C 216.51 150.20 217.31 150.98 218.28 150.97 C 219.26 150.95 220.04 150.15 220.03 149.18 L 220.01 148.18 C 220.00 147.21 219.20 146.42 218.23 146.44 C 217.25 146.45 216.47 147.25 216.48 148.22 Z M 216.49 149.20 L 216.50 150.23 C 216.50 151.20 217.29 151.99 218.27 151.99 C 219.24 151.99 220.03 151.20 220.03 150.22 L 220.03 149.20 C 220.03 148.22 219.23 147.43 218.26 147.43 C 217.28 147.43 216.49 148.23 216.49 149.20 Z M 216.49 150.22 L 216.49 151.22 C 216.49 152.20 217.29 152.99 218.26 152.99 C 219.24 152.99 220.03 152.20 220.03 151.22 L 220.03 150.22 C 220.03 149.25 219.24 148.46 218.26 148.46 C 217.29 148.46 216.49 149.25 216.49 150.22 Z M 216.49 151.22 L 216.49 152.22 C 216.49 153.20 217.29 153.99 218.26 153.99 C 219.24 153.99 220.03 153.20 220.03 152.22 L 220.03 151.22 C 220.03 150.25 219.24 149.45 218.26 149.45 C 217.29 149.45 216.49 150.25 216.49 151.22 Z M 216.49 152.22 L 216.49 153.25 C 216.49 154.23 217.28 155.02 218.26 155.02 C 219.24 155.02 220.03 154.23 220.03 153.25 L 220.03 152.22 C 220.03 151.24 219.24 150.45 218.26 150.45 C 217.28 150.45 216.49 151.24 216.49 152.22 Z M 216.49 153.25 L 216.49 154.29 C 216.49 155.26 217.28 156.06 218.26 156.06 C 219.24 156.06 220.03 155.26 220.03 154.29 L 220.03 153.25 C 220.03 152.27 219.24 151.48 218.26 151.48 C 217.28 151.48 216.49 152.27 216.49 153.25 Z M 216.49 154.29 L 216.49 155.23 C 216.49 156.21 217.28 157.00 218.26 157.00 C 219.24 157.00 220.03 156.21 220.03 155.23 L 220.03 154.29 C 220.03 153.31 219.24 152.51 218.26 152.51 C 217.28 152.51 216.49 153.31 216.49 154.29 Z M 216.49 155.23 L 216.49 156.29 C 216.49 157.27 217.28 158.07 218.26 158.07 C 219.24 158.07 220.03 157.27 220.03 156.29 L 220.03 155.23 C 220.03 154.25 219.24 153.46 218.26 153.46 C 217.28 153.46 216.49 154.25 216.49 155.23 Z M 216.49 156.29 L 216.49 157.22 C 216.49 158.20 217.28 158.99 218.26 158.99 C 219.24 158.99 220.03 158.20 220.03 157.22 L 220.03 156.29 C 220.03 155.32 219.24 154.52 218.26 154.52 C 217.28 154.52 216.49 155.32 216.49 156.29 Z M 216.49 157.22 L 216.49 158.22 C 216.49 159.20 217.28 159.99 218.26 159.99 C 219.24 159.99 220.03 159.20 220.03 158.22 L 220.03 157.22 C 220.03 156.24 219.24 155.45 218.26 155.45 C 217.28 155.45 216.49 156.24 216.49 157.22 Z M 216.49 158.22 L 216.49 159.21 C 216.49 160.18 217.28 160.98 218.26 160.98 C 219.24 160.98 220.03 160.18 220.03 159.21 L 220.03 158.22 C 220.03 157.24 219.24 156.45 218.26 156.45 C 217.28 156.45 216.49 157.24 216.49 158.22 Z M 216.49 159.21 L 216.49 160.22 C 216.49 161.20 217.28 162.00 218.26 162.00 C 219.24 162.00 220.03 161.20 220.03 160.22 L 220.03 159.21 C 220.03 158.23 219.24 157.43 218.26 157.43 C 217.28 157.43 216.49 158.23 216.49 159.21 Z M 216.49 160.23 L 216.49 161.23 C 216.50 162.21 217.29 163.00 218.27 163.00 C 219.25 163.00 220.04 162.20 220.04 161.22 L 220.03 160.22 C 220.03 159.24 219.24 158.45 218.26 158.45 C 217.28 158.46 216.49 159.25 216.49 160.23 Z M 216.49 161.26 L 216.51 162.27 C 216.53 163.25 217.34 164.03 218.32 164.01 C 219.30 163.99 220.08 163.18 220.06 162.20 L 220.04 161.19 C 220.02 160.21 219.21 159.44 218.23 159.46 C 217.25 159.48 216.47 160.29 216.49 161.26 Z M 216.52 162.32 L 216.56 163.31 C 216.60 164.29 217.43 165.05 218.41 165.01 C 219.39 164.96 220.14 164.13 220.10 163.16 L 220.06 162.16 C 220.01 161.18 219.18 160.42 218.21 160.47 C 217.23 160.51 216.47 161.34 216.52 162.32 Z M 216.56 163.32 L 216.60 164.19 C 216.65 165.17 217.49 165.92 218.46 165.87 C 219.44 165.82 220.19 164.99 220.14 164.01 L 220.10 163.15 C 220.05 162.17 219.22 161.42 218.24 161.47 C 217.26 161.51 216.51 162.35 216.56 163.32 Z M 216.60 164.17 L 216.64 165.17 C 216.68 166.15 217.50 166.91 218.48 166.87 C 219.46 166.83 220.22 166.01 220.18 165.03 L 220.14 164.03 C 220.11 163.05 219.29 162.29 218.31 162.33 C 217.33 162.37 216.57 163.19 216.60 164.17 Z M 216.64 165.15 L 216.67 166.15 C 216.69 167.13 217.50 167.90 218.48 167.88 C 219.46 167.85 220.23 167.04 220.21 166.06 L 220.18 165.05 C 220.16 164.08 219.34 163.30 218.37 163.33 C 217.39 163.35 216.61 164.17 216.64 165.15 Z M 216.67 166.14 L 216.69 167.08 C 216.71 168.06 217.52 168.83 218.50 168.81 C 219.47 168.79 220.25 167.98 220.23 167.00 L 220.21 166.07 C 220.19 165.09 219.38 164.31 218.40 164.33 C 217.42 164.35 216.64 165.17 216.67 166.14 Z M 216.69 167.08 L 216.71 168.13 C 216.73 169.10 217.54 169.88 218.52 169.86 C 219.50 169.84 220.27 169.03 220.25 168.05 L 220.23 167.00 C 220.21 166.02 219.40 165.25 218.42 165.27 C 217.44 165.29 216.66 166.10 216.69 167.08 Z M 216.71 168.13 L 216.74 169.24 C 216.76 170.22 217.57 170.99 218.55 170.97 C 219.53 170.94 220.30 170.13 220.28 169.15 L 220.25 168.04 C 220.23 167.06 219.42 166.29 218.44 166.31 C 217.46 166.34 216.69 167.15 216.71 168.13 Z M 216.74 169.25 L 216.77 170.36 C 216.80 171.33 217.61 172.10 218.59 172.08 C 219.57 172.05 220.34 171.23 220.31 170.25 L 220.28 169.15 C 220.25 168.17 219.44 167.40 218.46 167.43 C 217.48 167.45 216.71 168.27 216.74 169.25 Z M 216.77 170.36 L 216.80 171.44 C 216.83 172.41 217.65 173.18 218.63 173.15 C 219.61 173.12 220.38 172.30 220.35 171.32 L 220.31 170.25 C 220.28 169.27 219.46 168.50 218.48 168.53 C 217.51 168.57 216.74 169.38 216.77 170.36 Z M 216.80 171.44 L 216.84 172.43 C 216.87 173.41 217.69 174.18 218.66 174.14 C 219.64 174.11 220.41 173.29 220.38 172.32 L 220.35 171.32 C 220.31 170.34 219.49 169.58 218.52 169.61 C 217.54 169.64 216.77 170.46 216.80 171.44 Z M 216.84 172.43 L 216.86 173.29 C 216.89 174.27 217.71 175.04 218.69 175.01 C 219.66 174.98 220.43 174.16 220.40 173.19 L 220.38 172.32 C 220.35 171.34 219.53 170.57 218.55 170.60 C 217.57 170.63 216.81 171.45 216.84 172.43 Z M 216.86 173.28 L 216.89 174.43 C 216.91 175.40 217.72 176.18 218.70 176.16 C 219.67 176.14 220.45 175.33 220.43 174.35 L 220.40 173.20 C 220.38 172.22 219.57 171.45 218.59 171.47 C 217.62 171.49 216.84 172.30 216.86 173.28 Z M 216.89 174.41 L 216.90 175.28 C 216.92 176.26 217.72 177.04 218.70 177.03 C 219.68 177.01 220.46 176.21 220.44 175.23 L 220.43 174.36 C 220.41 173.38 219.61 172.60 218.63 172.62 C 217.65 172.63 216.87 173.44 216.89 174.41 Z M 216.90 175.30 L 216.93 176.26 C 216.95 177.24 217.77 178.01 218.74 177.98 C 219.72 177.96 220.49 177.14 220.47 176.16 L 220.44 175.21 C 220.41 174.23 219.60 173.46 218.62 173.49 C 217.65 173.51 216.88 174.33 216.90 175.30 Z M 216.93 176.26 L 216.96 177.27 C 216.98 178.24 217.80 179.01 218.77 178.99 C 219.75 178.96 220.52 178.14 220.49 177.17 L 220.47 176.16 C 220.44 175.19 219.62 174.42 218.65 174.44 C 217.67 174.47 216.90 175.28 216.93 176.26 Z M 216.96 177.24 L 216.97 178.23 C 216.98 179.20 217.78 179.98 218.76 179.97 C 219.74 179.96 220.52 179.16 220.51 178.18 L 220.49 177.19 C 220.48 176.22 219.68 175.43 218.70 175.45 C 217.72 175.46 216.94 176.26 216.96 177.24 Z M 216.97 178.23 L 216.98 179.22 C 217.00 180.19 217.81 180.97 218.78 180.96 C 219.76 180.94 220.54 180.14 220.52 179.16 L 220.51 178.17 C 220.49 177.20 219.69 176.42 218.71 176.43 C 217.73 176.45 216.95 177.25 216.97 178.23 Z M 216.99 179.23 L 217.01 180.20 C 217.04 181.18 217.85 181.95 218.83 181.92 C 219.80 181.90 220.57 181.08 220.55 180.11 L 220.52 179.14 C 220.50 178.16 219.68 177.39 218.71 177.42 C 217.73 177.44 216.96 178.26 216.99 179.23 Z M 217.01 180.19 L 217.03 181.24 C 217.05 182.21 217.86 182.99 218.84 182.97 C 219.81 182.95 220.59 182.14 220.57 181.17 L 220.55 180.12 C 220.53 179.14 219.72 178.36 218.75 178.38 C 217.77 178.40 216.99 179.21 217.01 180.19 Z M 217.03 181.22 L 217.04 182.20 C 217.05 183.18 217.84 183.96 218.82 183.96 C 219.80 183.95 220.59 183.15 220.58 182.17 L 220.57 181.19 C 220.56 180.21 219.76 179.43 218.79 179.43 C 217.81 179.44 217.02 180.24 217.03 181.22 Z M 217.04 182.19 L 217.04 183.21 C 217.04 184.19 217.84 184.98 218.81 184.98 C 219.79 184.98 220.58 184.18 220.58 183.21 L 220.58 182.18 C 220.58 181.21 219.78 180.42 218.81 180.42 C 217.83 180.42 217.04 181.21 217.04 182.19 Z M 217.04 183.21 L 217.04 184.24 C 217.04 185.21 217.83 186.01 218.81 186.01 C 219.79 186.01 220.58 185.21 220.58 184.24 L 220.58 183.21 C 220.58 182.23 219.79 181.44 218.81 181.44 C 217.83 181.44 217.04 182.23 217.04 183.21 Z M 217.04 184.24 L 217.04 185.24 C 217.04 186.21 217.83 187.01 218.81 187.01 C 219.79 187.01 220.58 186.21 220.58 185.24 L 220.58 184.24 C 220.58 183.26 219.79 182.47 218.81 182.47 C 217.83 182.47 217.04 183.26 217.04 184.24 Z M 217.04 185.24 L 217.04 186.21 C 217.04 187.18 217.83 187.98 218.81 187.98 C 219.79 187.98 220.58 187.18 220.58 186.21 L 220.58 185.24 C 220.58 184.26 219.79 183.47 218.81 183.47 C 217.83 183.47 217.04 184.26 217.04 185.24 Z M 217.04 186.21 L 217.04 187.14 C 217.04 188.11 217.83 188.91 218.81 188.91 C 219.79 188.91 220.58 188.11 220.58 187.14 L 220.58 186.21 C 220.58 185.23 219.79 184.44 218.81 184.44 C 217.83 184.44 217.04 185.23 217.04 186.21 Z M 217.04 187.14 L 217.04 188.15 C 217.04 189.13 217.83 189.92 218.81 189.92 C 219.79 189.92 220.58 189.13 220.58 188.15 L 220.58 187.14 C 220.58 186.16 219.79 185.37 218.81 185.37 C 217.83 185.37 217.04 186.16 217.04 187.14 Z M 217.04 188.15 L 217.04 189.22 C 217.04 190.19 217.83 190.98 218.81 190.98 C 219.79 190.98 220.58 190.19 220.58 189.22 L 220.58 188.15 C 220.58 187.17 219.79 186.38 218.81 186.38 C 217.83 186.38 217.04 187.17 217.04 188.15 Z M 217.04 189.22 L 217.04 190.26 C 217.04 191.24 217.83 192.03 218.81 192.03 C 219.79 192.03 220.58 191.24 220.58 190.26 L 220.58 189.22 C 220.58 188.24 219.79 187.45 218.81 187.45 C 217.83 187.45 217.04 188.24 217.04 189.22 Z M 217.04 190.26 L 217.04 191.28 C 217.04 192.26 217.83 193.05 218.81 193.05 C 219.79 193.05 220.58 192.26 220.58 191.28 L 220.58 190.26 C 220.58 189.29 219.79 188.49 218.81 188.49 C 217.83 188.49 217.04 189.29 217.04 190.26 Z M 217.04 191.28 L 217.04 192.25 C 217.04 193.22 217.83 194.01 218.81 194.01 C 219.79 194.01 220.58 193.22 220.58 192.25 L 220.58 191.28 C 220.58 190.31 219.79 189.52 218.81 189.52 C 217.83 189.52 217.04 190.31 217.04 191.28 Z M 217.04 192.26 L 217.05 193.22 C 217.06 194.20 217.86 194.98 218.84 194.97 C 219.81 194.96 220.60 194.16 220.59 193.19 L 220.58 192.23 C 220.57 191.25 219.77 190.47 218.79 190.48 C 217.82 190.49 217.03 191.29 217.04 192.26 Z M 217.06 193.29 L 217.11 194.29 C 217.15 195.26 217.98 196.01 218.95 195.97 C 219.93 195.92 220.68 195.09 220.63 194.12 L 220.58 193.12 C 220.54 192.14 219.71 191.39 218.73 191.44 C 217.76 191.49 217.01 192.32 217.06 193.29 Z M 217.11 194.34 L 217.19 195.33 C 217.27 196.30 218.12 197.03 219.09 196.95 C 220.06 196.87 220.78 196.02 220.71 195.05 L 220.63 194.06 C 220.55 193.09 219.70 192.37 218.73 192.45 C 217.76 192.52 217.03 193.37 217.11 194.34 Z M 217.19 195.36 L 217.30 196.42 C 217.39 197.39 218.25 198.10 219.22 198.00 C 220.19 197.91 220.90 197.05 220.80 196.08 L 220.70 195.02 C 220.61 194.05 219.74 193.34 218.78 193.44 C 217.81 193.53 217.10 194.39 217.19 195.36 Z M 217.30 196.45 L 217.41 197.43 C 217.53 198.39 218.40 199.08 219.37 198.97 C 220.33 198.86 221.03 197.99 220.91 197.02 L 220.80 196.04 C 220.69 195.08 219.81 194.39 218.85 194.50 C 217.88 194.61 217.19 195.49 217.30 196.45 Z M 217.43 197.50 L 217.61 198.63 C 217.76 199.59 218.67 200.24 219.62 200.09 C 220.58 199.94 221.24 199.03 221.08 198.07 L 220.90 196.94 C 220.75 195.98 219.84 195.33 218.89 195.49 C 217.93 195.64 217.27 196.54 217.43 197.50 Z M 217.64 198.75 L 217.80 199.44 C 218.02 200.38 218.96 200.97 219.90 200.75 C 220.85 200.53 221.44 199.58 221.22 198.64 L 221.06 197.95 C 220.84 197.01 219.89 196.42 218.95 196.64 C 218.00 196.86 217.41 197.81 217.64 198.75 Z"
      fill="black"
      fill-rule="nonzero" /></svg>