<svg xmlns="http://www.w3.org/2000/svg" width="300" height="300" viewBox="0 0 300 300">
<path d="M 84.69 166.77 L 83.73 166.67 C 82.93 166.59 82.21 167.17 82.13 167.97 C 82.05 168.77 82.63 169.49 83.43 169.57 L 84.39 169.67 C 85.19 169.75 85.90 169.17 85.99 168.37 C 86.07 167.57 85.49 166.85 84.69 166.77 Z M 83.47 169.60 L 84.32 169.66 C 85.14 169.72 85.85 169.10 85.91 168.29 C 85.96 167.47 85.35 166.76 84.53 166.70 L 83.69 166.64 C 82.87 166.59 82.16 167.20 82.10 168.02 C 82.04 168.83 82.66 169.54 83.47 169.60 Z M 84.29 169.68 L 85.43 169.78 C 86.26 169.85 86.99 169.25 87.06 168.42 C 87.14 167.60 86.53 166.87 85.70 166.79 L 84.56 166.69 C 83.74 166.61 83.01 167.22 82.94 168.05 C 82.86 168.87 83.47 169.60 84.29 169.68 Z M 85.42 169.79 L 86.39 169.89 C 87.22 169.97 87.96 169.37 88.05 168.54 C 88.13 167.71 87.53 166.96 86.69 166.88 L 85.72 166.78 C 84.89 166.70 84.15 167.30 84.06 168.13 C 83.98 168.97 84.58 169.71 85.42 169.79 Z M 86.41 169.90 L 87.38 169.99 C 88.21 170.06 88.95 169.44 89.03 168.60 C 89.10 167.77 88.48 167.03 87.64 166.95 L 86.68 166.87 C 85.84 166.79 85.10 167.41 85.02 168.25 C 84.95 169.09 85.57 169.83 86.41 169.90 Z M 87.43 170.00 L 88.45 170.05 C 89.29 170.10 90.01 169.45 90.06 168.60 C 90.10 167.76 89.45 167.04 88.60 166.99 L 87.59 166.94 C 86.74 166.90 86.02 167.55 85.98 168.39 C 85.94 169.24 86.59 169.96 87.43 170.00 Z M 88.50 170.06 L 89.50 170.08 C 90.35 170.09 91.05 169.41 91.06 168.56 C 91.07 167.71 90.39 167.01 89.54 167.00 L 88.55 166.98 C 87.70 166.97 87.00 167.65 86.99 168.50 C 86.97 169.35 87.65 170.05 88.50 170.06 Z M 89.52 170.09 L 90.54 170.09 C 91.39 170.09 92.09 169.40 92.09 168.54 C 92.09 167.69 91.40 166.99 90.54 166.99 L 89.52 166.99 C 88.67 166.99 87.97 167.68 87.97 168.54 C 87.97 169.39 88.66 170.08 89.52 170.09 Z M 90.54 170.09 L 91.55 170.09 C 92.41 170.09 93.10 169.40 93.10 168.54 C 93.10 167.68 92.41 166.98 91.55 166.98 L 90.54 166.98 C 89.68 166.98 88.99 167.68 88.99 168.54 C 88.99 169.40 89.68 170.09 90.54 170.09 Z M 91.55 170.10 L 92.54 170.10 C 93.41 170.10 94.10 169.40 94.10 168.54 C 94.10 167.68 93.41 166.98 92.54 166.98 L 91.55 166.98 C 90.68 166.98 89.99 167.68 89.99 168.54 C 89.99 169.40 90.68 170.10 91.55 170.10 Z M 92.54 170.11 L 93.54 170.11 C 94.41 170.11 95.11 169.40 95.11 168.54 C 95.11 167.67 94.41 166.97 93.54 166.97 L 92.54 166.97 C 91.68 166.97 90.98 167.67 90.98 168.54 C 90.98 169.40 91.68 170.11 92.54 170.11 Z M 93.54 170.11 L 94.53 170.11 C 95.40 170.11 96.10 169.41 96.10 168.54 C 96.10 167.67 95.40 166.97 94.53 166.97 L 93.54 166.97 C 92.68 166.97 91.97 167.67 91.97 168.54 C 91.97 169.41 92.68 170.11 93.54 170.11 Z M 94.53 170.11 L 95.53 170.11 C 96.40 170.11 97.10 169.41 97.10 168.54 C 97.10 167.67 96.40 166.96 95.53 166.96 L 94.53 166.96 C 93.66 166.96 92.96 167.67 92.96 168.54 C 92.96 169.41 93.66 170.11 94.53 170.11 Z M 95.53 170.12 L 96.53 170.12 C 97.40 170.12 98.11 169.41 98.11 168.54 C 98.11 167.67 97.40 166.96 96.53 166.96 L 95.53 166.96 C 94.66 166.96 93.95 167.67 93.95 168.54 C 93.95 169.41 94.66 170.12 95.53 170.12 Z M 96.53 170.12 L 97.54 170.12 C 98.41 170.12 99.12 169.41 99.12 168.54 C 99.12 167.66 98.41 166.96 97.54 166.96 L 96.53 166.96 C 95.66 166.96 94.95 167.66 94.95 168.54 C 94.95 169.41 95.66 170.12 96.53 170.12 Z M 97.54 170.13 L 98.54 170.12 C 99.42 170.12 100.13 169.41 100.13 168.54 C 100.13 167.66 99.42 166.95 98.54 166.95 L 97.53 166.95 C 96.66 166.95 95.95 167.66 95.95 168.54 C 95.95 169.42 96.66 170.13 97.54 170.13 Z M 98.56 170.13 L 99.56 170.11 C 100.44 170.10 101.14 169.38 101.13 168.50 C 101.12 167.62 100.40 166.92 99.52 166.93 L 98.52 166.95 C 97.64 166.96 96.94 167.68 96.95 168.56 C 96.96 169.44 97.68 170.14 98.56 170.13 Z M 99.61 170.12 L 100.54 170.07 C 101.42 170.04 102.10 169.29 102.06 168.41 C 102.02 167.53 101.27 166.85 100.39 166.89 L 99.47 166.93 C 98.59 166.97 97.91 167.72 97.95 168.60 C 97.99 169.48 98.73 170.16 99.61 170.12 Z M 100.60 170.07 L 101.59 169.99 C 102.47 169.92 103.12 169.14 103.05 168.27 C 102.97 167.39 102.20 166.73 101.32 166.81 L 100.33 166.89 C 99.45 166.97 98.80 167.74 98.87 168.62 C 98.95 169.50 99.72 170.15 100.60 170.07 Z M 101.64 169.99 L 102.67 169.87 C 103.54 169.77 104.17 168.98 104.07 168.10 C 103.97 167.22 103.18 166.59 102.30 166.69 L 101.27 166.81 C 100.40 166.91 99.77 167.70 99.87 168.58 C 99.97 169.46 100.76 170.09 101.64 169.99 Z M 102.69 169.87 L 103.68 169.74 C 104.56 169.63 105.18 168.82 105.06 167.94 C 104.95 167.07 104.14 166.45 103.27 166.56 L 102.28 166.69 C 101.40 166.81 100.78 167.61 100.90 168.49 C 101.01 169.37 101.82 169.99 102.69 169.87 Z M 103.70 169.74 L 104.73 169.59 C 105.61 169.47 106.22 168.65 106.09 167.78 C 105.96 166.90 105.15 166.29 104.27 166.42 L 103.25 166.56 C 102.37 166.69 101.76 167.50 101.89 168.38 C 102.01 169.26 102.83 169.87 103.70 169.74 Z M 104.75 169.59 L 105.76 169.43 C 106.63 169.30 107.23 168.47 107.10 167.60 C 106.96 166.72 106.14 166.12 105.26 166.26 L 104.25 166.42 C 103.38 166.55 102.78 167.38 102.91 168.25 C 103.05 169.13 103.87 169.73 104.75 169.59 Z M 105.78 169.43 L 106.75 169.27 C 107.63 169.12 108.22 168.29 108.07 167.41 C 107.92 166.54 107.09 165.95 106.22 166.10 L 105.24 166.26 C 104.36 166.41 103.77 167.24 103.92 168.12 C 104.07 168.99 104.90 169.58 105.78 169.43 Z M 106.76 169.27 L 107.73 169.10 C 108.61 168.95 109.20 168.11 109.04 167.24 C 108.89 166.36 108.06 165.77 107.18 165.93 L 106.21 166.10 C 105.33 166.25 104.75 167.08 104.90 167.96 C 105.05 168.83 105.88 169.42 106.76 169.27 Z M 107.73 169.10 L 108.74 168.93 C 109.61 168.78 110.21 167.95 110.06 167.07 C 109.91 166.19 109.08 165.60 108.20 165.75 L 107.19 165.92 C 106.31 166.07 105.72 166.91 105.87 167.78 C 106.02 168.66 106.85 169.25 107.73 169.10 Z M 108.73 168.93 L 109.76 168.76 C 110.64 168.62 111.23 167.79 111.09 166.91 C 110.94 166.03 110.11 165.44 109.23 165.58 L 108.20 165.75 C 107.33 165.90 106.73 166.73 106.88 167.60 C 107.02 168.48 107.85 169.08 108.73 168.93 Z M 109.76 168.76 L 110.72 168.60 C 111.60 168.46 112.20 167.63 112.05 166.75 C 111.91 165.87 111.08 165.27 110.20 165.42 L 109.23 165.58 C 108.35 165.73 107.76 166.56 107.90 167.44 C 108.05 168.31 108.88 168.91 109.76 168.76 Z M 110.73 168.60 L 111.77 168.42 C 112.65 168.27 113.24 167.44 113.09 166.56 C 112.94 165.68 112.11 165.09 111.23 165.24 L 110.19 165.42 C 109.31 165.57 108.72 166.41 108.87 167.28 C 109.02 168.16 109.85 168.75 110.73 168.60 Z M 111.78 168.42 L 112.72 168.26 C 113.59 168.10 114.18 167.26 114.02 166.38 C 113.87 165.51 113.03 164.92 112.15 165.08 L 111.22 165.24 C 110.34 165.40 109.75 166.24 109.91 167.12 C 110.07 167.99 110.91 168.58 111.78 168.42 Z M 112.71 168.26 L 113.64 168.10 C 114.52 167.95 115.12 167.11 114.97 166.23 C 114.81 165.35 113.98 164.76 113.10 164.91 L 112.16 165.07 C 111.28 165.22 110.69 166.06 110.84 166.94 C 110.99 167.82 111.83 168.41 112.71 168.26 Z M 113.64 168.10 L 114.63 167.94 C 115.51 167.79 116.11 166.96 115.96 166.08 C 115.82 165.20 114.98 164.60 114.10 164.75 L 113.11 164.91 C 112.23 165.06 111.63 165.89 111.78 166.77 C 111.92 167.65 112.75 168.25 113.64 168.10 Z M 114.63 167.94 L 115.62 167.77 C 116.50 167.62 117.10 166.79 116.95 165.91 C 116.80 165.03 115.97 164.43 115.08 164.58 L 114.10 164.75 C 113.21 164.90 112.62 165.73 112.77 166.61 C 112.92 167.49 113.75 168.09 114.63 167.94 Z M 115.63 167.77 L 116.61 167.60 C 117.49 167.45 118.09 166.61 117.93 165.73 C 117.78 164.85 116.95 164.26 116.06 164.41 L 115.08 164.58 C 114.20 164.73 113.61 165.57 113.76 166.45 C 113.91 167.33 114.75 167.92 115.63 167.77 Z M 116.61 167.60 L 117.60 167.43 C 118.48 167.28 119.08 166.45 118.93 165.57 C 118.78 164.68 117.94 164.09 117.06 164.24 L 116.07 164.41 C 115.18 164.56 114.59 165.40 114.74 166.28 C 114.89 167.16 115.73 167.75 116.61 167.60 Z M 117.58 167.44 L 118.56 167.29 C 119.45 167.15 120.05 166.32 119.91 165.43 C 119.77 164.55 118.95 163.95 118.06 164.08 L 117.08 164.24 C 116.20 164.38 115.59 165.20 115.73 166.09 C 115.87 166.97 116.69 167.58 117.58 167.44 Z M 118.53 167.29 L 119.51 167.16 C 120.39 167.04 121.02 166.23 120.90 165.34 C 120.78 164.45 119.97 163.83 119.08 163.95 L 118.10 164.08 C 117.21 164.20 116.59 165.01 116.71 165.90 C 116.82 166.78 117.64 167.41 118.53 167.29 Z M 119.49 167.16 L 120.49 167.04 C 121.38 166.94 122.01 166.13 121.91 165.24 C 121.80 164.35 121.00 163.72 120.11 163.82 L 119.10 163.94 C 118.21 164.05 117.58 164.86 117.68 165.75 C 117.79 166.64 118.60 167.27 119.49 167.16 Z M 120.48 167.05 L 121.49 166.93 C 122.38 166.83 123.02 166.03 122.92 165.14 C 122.82 164.25 122.02 163.61 121.13 163.71 L 120.12 163.82 C 119.23 163.92 118.59 164.73 118.69 165.62 C 118.79 166.51 119.59 167.15 120.48 167.05 Z M 121.46 166.94 L 122.39 166.85 C 123.28 166.76 123.94 165.97 123.85 165.08 C 123.77 164.19 122.98 163.53 122.08 163.62 L 121.16 163.71 C 120.26 163.79 119.61 164.58 119.69 165.47 C 119.78 166.36 120.57 167.02 121.46 166.94 Z M 122.33 166.85 L 123.24 166.80 C 124.13 166.75 124.81 165.99 124.76 165.09 C 124.71 164.20 123.95 163.51 123.05 163.56 L 122.15 163.61 C 121.25 163.66 120.57 164.43 120.62 165.32 C 120.67 166.22 121.43 166.90 122.33 166.85 Z M 123.18 166.80 L 124.28 166.78 C 125.17 166.76 125.88 166.02 125.86 165.12 C 125.85 164.23 125.10 163.52 124.21 163.54 L 123.11 163.56 C 122.21 163.58 121.50 164.32 121.52 165.22 C 121.54 166.11 122.28 166.82 123.18 166.80 Z M 124.26 166.78 L 125.21 166.77 C 126.11 166.77 126.83 166.03 126.82 165.14 C 126.82 164.24 126.08 163.52 125.19 163.53 L 124.23 163.54 C 123.33 163.54 122.61 164.27 122.62 165.17 C 122.63 166.07 123.36 166.79 124.26 166.78 Z M 125.21 166.77 L 126.25 166.77 C 127.15 166.77 127.87 166.04 127.87 165.14 C 127.87 164.25 127.14 163.52 126.24 163.53 L 125.20 163.53 C 124.30 163.53 123.57 164.26 123.58 165.16 C 123.58 166.05 124.31 166.78 125.21 166.77 Z M 126.25 166.77 L 127.29 166.77 C 128.18 166.77 128.91 166.04 128.91 165.15 C 128.91 164.25 128.18 163.52 127.29 163.52 L 126.25 163.52 C 125.35 163.53 124.62 164.25 124.62 165.15 C 124.63 166.05 125.35 166.77 126.25 166.77 Z M 127.28 166.77 L 128.40 166.77 C 129.29 166.77 130.02 166.05 130.02 165.15 C 130.02 164.25 129.30 163.53 128.40 163.53 L 127.29 163.52 C 126.39 163.52 125.66 164.25 125.66 165.15 C 125.66 166.04 126.39 166.77 127.28 166.77 Z M 128.37 166.77 L 129.37 166.79 C 130.27 166.80 131.00 166.09 131.02 165.19 C 131.03 164.29 130.32 163.56 129.42 163.54 L 128.43 163.53 C 127.53 163.51 126.79 164.23 126.78 165.12 C 126.76 166.02 127.48 166.76 128.37 166.77 Z M 129.31 166.79 L 130.19 166.83 C 131.09 166.88 131.85 166.20 131.90 165.30 C 131.95 164.41 131.27 163.64 130.37 163.59 L 129.48 163.54 C 128.59 163.50 127.82 164.18 127.77 165.08 C 127.73 165.97 128.41 166.74 129.31 166.79 Z M 130.08 166.83 L 131.05 166.94 C 131.94 167.05 132.75 166.42 132.86 165.53 C 132.97 164.64 132.34 163.83 131.45 163.72 L 130.48 163.60 C 129.59 163.49 128.78 164.13 128.67 165.01 C 128.56 165.90 129.19 166.72 130.08 166.83 Z M 130.93 166.93 L 131.91 167.12 C 132.79 167.30 133.65 166.73 133.82 165.85 C 134.00 164.97 133.43 164.11 132.55 163.94 L 131.57 163.74 C 130.69 163.57 129.83 164.14 129.66 165.02 C 129.48 165.89 130.05 166.75 130.93 166.93 Z M 131.84 167.10 L 132.77 167.34 C 133.64 167.55 134.52 167.02 134.74 166.15 C 134.95 165.28 134.43 164.40 133.56 164.19 L 132.63 163.95 C 131.76 163.74 130.87 164.27 130.66 165.14 C 130.44 166.01 130.97 166.89 131.84 167.10 Z M 132.74 167.33 L 133.69 167.58 C 134.56 167.81 135.45 167.30 135.68 166.43 C 135.91 165.57 135.40 164.68 134.53 164.44 L 133.58 164.19 C 132.71 163.96 131.82 164.48 131.59 165.34 C 131.36 166.21 131.88 167.10 132.74 167.33 Z M 133.70 167.59 L 134.72 167.85 C 135.59 168.08 136.48 167.56 136.71 166.69 C 136.93 165.82 136.41 164.94 135.54 164.71 L 134.52 164.44 C 133.65 164.22 132.77 164.74 132.54 165.60 C 132.31 166.47 132.83 167.36 133.70 167.59 Z M 134.76 167.86 L 135.72 168.09 C 136.59 168.30 137.47 167.76 137.68 166.89 C 137.89 166.02 137.35 165.14 136.48 164.93 L 135.51 164.70 C 134.64 164.49 133.76 165.03 133.55 165.90 C 133.35 166.77 133.88 167.65 134.76 167.86 Z M 135.76 168.10 L 136.72 168.31 C 137.59 168.50 138.46 167.94 138.65 167.06 C 138.84 166.18 138.28 165.32 137.40 165.13 L 136.44 164.92 C 135.56 164.73 134.70 165.29 134.51 166.17 C 134.32 167.05 134.88 167.91 135.76 168.10 Z M 136.75 168.31 L 137.75 168.51 C 138.63 168.67 139.49 168.10 139.65 167.21 C 139.82 166.33 139.24 165.48 138.36 165.31 L 137.36 165.12 C 136.48 164.95 135.63 165.53 135.46 166.41 C 135.29 167.29 135.87 168.15 136.75 168.31 Z M 137.79 168.51 L 138.82 168.68 C 139.70 168.83 140.54 168.23 140.69 167.35 C 140.84 166.46 140.24 165.63 139.35 165.48 L 138.32 165.31 C 137.44 165.16 136.60 165.76 136.45 166.64 C 136.31 167.53 136.90 168.36 137.79 168.51 Z M 138.85 168.69 L 139.88 168.84 C 140.77 168.97 141.59 168.35 141.72 167.46 C 141.85 166.57 141.23 165.75 140.35 165.62 L 139.32 165.47 C 138.43 165.34 137.61 165.96 137.48 166.85 C 137.35 167.74 137.97 168.56 138.85 168.69 Z M 139.91 168.84 L 140.92 168.97 C 141.81 169.08 142.63 168.45 142.74 167.56 C 142.85 166.67 142.22 165.86 141.33 165.74 L 140.32 165.62 C 139.43 165.50 138.61 166.13 138.50 167.03 C 138.39 167.92 139.02 168.73 139.91 168.84 Z M 140.95 168.97 L 141.90 169.08 C 142.80 169.18 143.60 168.53 143.70 167.64 C 143.80 166.75 143.15 165.95 142.26 165.85 L 141.30 165.74 C 140.41 165.64 139.61 166.29 139.51 167.18 C 139.41 168.07 140.06 168.87 140.95 168.97 Z M 141.93 169.08 L 142.91 169.17 C 143.80 169.26 144.59 168.60 144.68 167.70 C 144.76 166.81 144.10 166.02 143.21 165.93 L 142.23 165.84 C 141.34 165.76 140.55 166.42 140.46 167.31 C 140.38 168.21 141.04 169.00 141.93 169.08 Z M 142.95 169.18 L 143.91 169.24 C 144.80 169.30 145.58 168.62 145.64 167.73 C 145.70 166.83 145.02 166.06 144.13 166.00 L 143.17 165.93 C 142.27 165.87 141.50 166.55 141.44 167.44 C 141.37 168.34 142.05 169.11 142.95 169.18 Z M 143.95 169.24 L 144.95 169.28 C 145.85 169.32 146.61 168.62 146.64 167.72 C 146.68 166.83 145.98 166.07 145.08 166.03 L 144.08 165.99 C 143.18 165.96 142.43 166.66 142.39 167.55 C 142.35 168.45 143.05 169.21 143.95 169.24 Z M 144.99 169.28 L 146.01 169.30 C 146.91 169.32 147.65 168.61 147.67 167.71 C 147.68 166.81 146.97 166.07 146.07 166.05 L 145.05 166.03 C 144.15 166.01 143.41 166.73 143.39 167.63 C 143.38 168.52 144.09 169.27 144.99 169.28 Z M 146.03 169.30 L 147.07 169.31 C 147.97 169.32 148.70 168.60 148.71 167.70 C 148.72 166.80 148.00 166.07 147.10 166.06 L 146.05 166.05 C 145.16 166.04 144.42 166.77 144.41 167.66 C 144.41 168.56 145.13 169.30 146.03 169.30 Z M 147.08 169.31 L 148.11 169.32 C 149.00 169.32 149.73 168.59 149.74 167.70 C 149.74 166.80 149.01 166.07 148.12 166.06 L 147.09 166.06 C 146.19 166.06 145.46 166.78 145.46 167.68 C 145.46 168.58 146.18 169.31 147.08 169.31 Z M 148.11 169.32 L 149.08 169.32 C 149.98 169.32 150.71 168.59 150.71 167.69 C 150.71 166.79 149.98 166.06 149.09 166.06 L 148.11 166.06 C 147.21 166.06 146.48 166.79 146.48 167.69 C 146.48 168.59 147.21 169.32 148.11 169.32 Z M 149.09 169.32 L 150.13 169.32 C 151.03 169.31 151.76 168.58 151.76 167.69 C 151.75 166.79 151.02 166.06 150.13 166.06 L 149.08 166.06 C 148.18 166.07 147.46 166.80 147.46 167.69 C 147.46 168.59 148.19 169.32 149.09 169.32 Z M 150.15 169.32 L 151.07 169.31 C 151.97 169.30 152.69 168.56 152.68 167.66 C 152.67 166.77 151.93 166.04 151.04 166.05 L 150.11 166.06 C 149.21 166.07 148.49 166.81 148.50 167.71 C 148.51 168.60 149.25 169.32 150.15 169.32 Z M 151.09 169.31 L 152.01 169.29 C 152.91 169.27 153.62 168.52 153.60 167.63 C 153.58 166.73 152.84 166.02 151.94 166.03 L 151.02 166.05 C 150.12 166.07 149.41 166.82 149.43 167.71 C 149.44 168.61 150.19 169.33 151.09 169.31 Z M 152.03 169.29 L 153.04 169.25 C 153.94 169.22 154.64 168.46 154.61 167.57 C 154.58 166.67 153.83 165.97 152.93 166.00 L 151.92 166.03 C 151.02 166.07 150.32 166.82 150.35 167.72 C 150.38 168.62 151.14 169.32 152.03 169.29 Z M 153.07 169.25 L 154.14 169.19 C 155.03 169.14 155.72 168.37 155.67 167.48 C 155.62 166.58 154.86 165.89 153.96 165.94 L 152.90 166.00 C 152.00 166.05 151.31 166.82 151.36 167.71 C 151.41 168.61 152.18 169.30 153.07 169.25 Z M 154.17 169.19 L 155.24 169.11 C 156.14 169.04 156.81 168.25 156.74 167.36 C 156.67 166.46 155.89 165.79 154.99 165.86 L 153.92 165.94 C 153.03 166.01 152.36 166.80 152.43 167.69 C 152.50 168.59 153.28 169.26 154.17 169.19 Z M 155.26 169.10 L 156.25 169.02 C 157.15 168.94 157.81 168.15 157.73 167.25 C 157.65 166.36 156.86 165.70 155.97 165.78 L 154.97 165.86 C 154.08 165.94 153.42 166.73 153.50 167.63 C 153.58 168.52 154.37 169.18 155.26 169.10 Z M 156.25 169.02 L 157.23 168.93 C 158.13 168.86 158.79 168.07 158.71 167.17 C 158.64 166.28 157.85 165.61 156.96 165.69 L 155.97 165.77 C 155.08 165.85 154.41 166.64 154.49 167.53 C 154.57 168.43 155.35 169.09 156.25 169.02 Z M 157.20 168.93 L 158.18 168.87 C 159.08 168.81 159.76 168.04 159.70 167.14 C 159.64 166.25 158.87 165.57 157.97 165.62 L 156.99 165.69 C 156.09 165.75 155.41 166.52 155.47 167.42 C 155.53 168.31 156.30 168.99 157.20 168.93 Z M 158.15 168.87 L 159.04 168.83 C 159.94 168.79 160.63 168.03 160.59 167.13 C 160.55 166.23 159.79 165.54 158.89 165.58 L 158.00 165.62 C 157.10 165.66 156.41 166.43 156.45 167.32 C 156.49 168.22 157.25 168.91 158.15 168.87 Z M 159.04 168.83 L 160.05 168.79 C 160.95 168.75 161.64 167.99 161.60 167.09 C 161.56 166.19 160.80 165.50 159.90 165.54 L 158.89 165.58 C 158.00 165.62 157.30 166.38 157.34 167.28 C 157.38 168.18 158.14 168.87 159.04 168.83 Z M 160.06 168.79 L 161.01 168.74 C 161.91 168.69 162.60 167.93 162.55 167.03 C 162.50 166.13 161.74 165.44 160.84 165.49 L 159.89 165.54 C 158.99 165.58 158.30 166.35 158.35 167.24 C 158.40 168.14 159.16 168.83 160.06 168.79 Z M 161.01 168.74 L 161.98 168.69 C 162.87 168.64 163.57 167.88 163.52 166.98 C 163.48 166.09 162.71 165.40 161.82 165.44 L 160.85 165.49 C 159.95 165.53 159.26 166.30 159.30 167.19 C 159.35 168.09 160.11 168.78 161.01 168.74 Z M 161.96 168.69 L 163.06 168.65 C 163.96 168.62 164.66 167.86 164.63 166.96 C 164.59 166.07 163.84 165.37 162.94 165.40 L 161.84 165.44 C 160.94 165.47 160.24 166.23 160.27 167.12 C 160.30 168.02 161.06 168.72 161.96 168.69 Z M 163.03 168.65 L 164.06 168.63 C 164.96 168.61 165.68 167.87 165.66 166.97 C 165.64 166.07 164.90 165.36 164.00 165.38 L 162.97 165.40 C 162.07 165.42 161.36 166.16 161.37 167.06 C 161.39 167.95 162.14 168.67 163.03 168.65 Z M 164.05 168.63 L 165.08 168.62 C 165.98 168.61 166.70 167.88 166.69 166.98 C 166.68 166.08 165.95 165.36 165.05 165.37 L 164.02 165.38 C 163.12 165.38 162.40 166.12 162.40 167.02 C 162.41 167.92 163.15 168.64 164.05 168.63 Z M 165.07 168.62 L 166.07 168.62 C 166.97 168.62 167.69 167.89 167.69 166.99 C 167.69 166.09 166.96 165.36 166.06 165.37 L 165.06 165.37 C 164.16 165.37 163.43 166.10 163.44 167.00 C 163.44 167.90 164.17 168.62 165.07 168.62 Z M 166.06 168.62 L 167.11 168.62 C 168.01 168.62 168.74 167.89 168.74 166.99 C 168.74 166.09 168.01 165.37 167.11 165.37 L 166.06 165.37 C 165.16 165.37 164.44 166.09 164.44 166.99 C 164.44 167.89 165.16 168.62 166.06 168.62 Z M 167.11 168.62 L 168.16 168.62 C 169.06 168.62 169.78 167.89 169.78 166.99 C 169.78 166.09 169.06 165.37 168.16 165.37 L 167.11 165.37 C 166.22 165.37 165.49 166.09 165.49 166.99 C 165.49 167.89 166.22 168.62 167.11 168.62 Z M 168.16 168.62 L 169.03 168.62 C 169.93 168.62 170.65 167.89 170.65 166.99 C 170.65 166.09 169.93 165.37 169.03 165.37 L 168.16 165.37 C 167.26 165.37 166.53 166.09 166.53 166.99 C 166.53 167.89 167.26 168.62 168.16 168.62 Z M 169.03 168.62 L 170.07 168.62 C 170.97 168.62 171.70 167.89 171.70 166.99 C 171.70 166.09 170.97 165.37 170.07 165.37 L 169.03 165.37 C 168.13 165.37 167.40 166.09 167.40 166.99 C 167.40 167.89 168.13 168.62 169.03 168.62 Z M 170.07 168.62 L 171.03 168.62 C 171.93 168.62 172.65 167.89 172.65 166.99 C 172.65 166.09 171.93 165.37 171.03 165.37 L 170.07 165.37 C 169.17 165.37 168.44 166.09 168.44 166.99 C 168.44 167.89 169.17 168.62 170.07 168.62 Z M 171.03 168.62 L 172.03 168.62 C 172.92 168.62 173.65 167.89 173.65 166.99 C 173.65 166.09 172.92 165.37 172.03 165.37 L 171.03 165.37 C 170.13 165.37 169.40 166.09 169.40 166.99 C 169.40 167.89 170.13 168.62 171.03 168.62 Z M 172.03 168.62 L 172.95 168.62 C 173.84 168.62 174.57 167.89 174.57 166.99 C 174.57 166.09 173.84 165.37 172.95 165.37 L 172.03 165.37 C 171.13 165.37 170.40 166.09 170.40 166.99 C 170.40 167.89 171.13 168.62 172.03 168.62 Z M 172.95 168.62 L 174.01 168.62 C 174.91 168.62 175.64 167.89 175.64 166.99 C 175.64 166.09 174.91 165.37 174.01 165.37 L 172.95 165.37 C 172.05 165.37 171.32 166.09 171.32 166.99 C 171.32 167.89 172.05 168.62 172.95 168.62 Z M 174.01 168.62 L 174.99 168.62 C 175.89 168.62 176.62 167.89 176.62 166.99 C 176.62 166.09 175.89 165.37 174.99 165.37 L 174.01 165.37 C 173.12 165.37 172.39 166.09 172.39 166.99 C 172.39 167.89 173.12 168.62 174.01 168.62 Z M 174.99 168.61 L 176.03 168.61 C 176.93 168.61 177.65 167.89 177.65 166.99 C 177.65 166.10 176.93 165.37 176.03 165.37 L 174.99 165.37 C 174.10 165.37 173.37 166.10 173.37 166.99 C 173.37 167.89 174.10 168.61 174.99 168.61 Z M 176.03 168.61 L 177.08 168.61 C 177.97 168.61 178.70 167.89 178.70 166.99 C 178.70 166.10 177.97 165.37 177.08 165.37 L 176.03 165.37 C 175.13 165.37 174.41 166.10 174.41 166.99 C 174.41 167.89 175.13 168.61 176.03 168.61 Z M 177.08 168.61 L 178.07 168.61 C 178.97 168.61 179.69 167.89 179.69 166.99 C 179.69 166.10 178.97 165.37 178.07 165.37 L 177.08 165.37 C 176.18 165.37 175.45 166.10 175.45 166.99 C 175.45 167.89 176.18 168.61 177.08 168.61 Z M 178.07 168.61 L 179.01 168.61 C 179.90 168.61 180.63 167.89 180.63 166.99 C 180.63 166.10 179.90 165.37 179.01 165.37 L 178.07 165.37 C 177.17 165.37 176.45 166.10 176.45 166.99 C 176.45 167.89 177.17 168.61 178.07 168.61 Z M 179.01 168.61 L 180.00 168.61 C 180.90 168.61 181.62 167.88 181.62 166.98 C 181.62 166.09 180.89 165.36 179.99 165.37 L 179.00 165.37 C 178.11 165.37 177.39 166.10 177.39 167.00 C 177.39 167.89 178.12 168.62 179.01 168.61 Z M 180.02 168.61 L 180.99 168.59 C 181.88 168.58 182.60 167.85 182.58 166.95 C 182.57 166.06 181.84 165.34 180.94 165.36 L 179.98 165.37 C 179.08 165.38 178.37 166.12 178.38 167.01 C 178.39 167.90 179.13 168.62 180.02 168.61 Z M 181.02 168.59 L 181.95 168.56 C 182.84 168.53 183.54 167.78 183.51 166.89 C 183.48 166.00 182.73 165.30 181.84 165.33 L 180.91 165.36 C 180.02 165.39 179.32 166.14 179.35 167.03 C 179.38 167.92 180.12 168.62 181.02 168.59 Z M 182.00 168.56 L 183.10 168.49 C 183.99 168.43 184.67 167.66 184.61 166.77 C 184.55 165.88 183.78 165.20 182.89 165.26 L 181.79 165.33 C 180.90 165.39 180.22 166.16 180.28 167.05 C 180.33 167.94 181.10 168.61 182.00 168.56 Z M 183.14 168.48 L 184.12 168.39 C 185.01 168.31 185.67 167.53 185.59 166.64 C 185.50 165.75 184.72 165.09 183.83 165.17 L 182.85 165.26 C 181.96 165.34 181.30 166.13 181.38 167.02 C 181.46 167.91 182.25 168.56 183.14 168.48 Z M 184.14 168.39 L 185.16 168.29 C 186.05 168.19 186.69 167.40 186.60 166.51 C 186.51 165.62 185.71 164.98 184.82 165.07 L 183.81 165.18 C 182.92 165.27 182.28 166.06 182.37 166.95 C 182.46 167.84 183.25 168.48 184.14 168.39 Z M 185.17 168.28 L 186.19 168.17 C 187.08 168.08 187.72 167.28 187.62 166.39 C 187.53 165.51 186.73 164.86 185.84 164.96 L 184.82 165.07 C 183.93 165.17 183.29 165.96 183.39 166.85 C 183.48 167.74 184.28 168.38 185.17 168.28 Z M 186.18 168.17 L 187.18 168.07 C 188.07 167.98 188.71 167.18 188.62 166.29 C 188.52 165.41 187.73 164.76 186.84 164.86 L 185.85 164.96 C 184.96 165.05 184.32 165.85 184.41 166.74 C 184.50 167.62 185.30 168.27 186.18 168.17 Z M 187.17 168.07 L 188.14 167.97 C 189.03 167.88 189.68 167.09 189.59 166.21 C 189.50 165.32 188.71 164.67 187.83 164.76 L 186.85 164.85 C 185.96 164.94 185.32 165.73 185.40 166.62 C 185.49 167.51 186.28 168.16 187.17 168.07 Z M 188.15 167.97 L 189.11 167.88 C 190.00 167.79 190.65 166.99 190.56 166.11 C 190.47 165.22 189.68 164.57 188.79 164.66 L 187.82 164.76 C 186.94 164.85 186.29 165.64 186.38 166.53 C 186.47 167.41 187.26 168.06 188.15 167.97 Z M 189.13 167.87 L 190.15 167.76 C 191.04 167.67 191.68 166.87 191.59 165.98 C 191.49 165.10 190.69 164.46 189.81 164.55 L 188.78 164.66 C 187.89 164.76 187.25 165.56 187.35 166.44 C 187.44 167.33 188.24 167.97 189.13 167.87 Z M 190.17 167.76 L 191.18 167.64 C 192.07 167.54 192.70 166.74 192.60 165.85 C 192.50 164.97 191.70 164.33 190.81 164.43 L 189.79 164.55 C 188.91 164.66 188.27 165.46 188.38 166.34 C 188.48 167.23 189.28 167.86 190.17 167.76 Z M 191.19 167.64 L 192.23 167.52 C 193.11 167.41 193.75 166.61 193.64 165.72 C 193.54 164.84 192.73 164.21 191.85 164.31 L 190.81 164.44 C 189.92 164.54 189.29 165.34 189.39 166.23 C 189.50 167.11 190.30 167.75 191.19 167.64 Z M 192.22 167.52 L 193.20 167.41 C 194.09 167.31 194.72 166.51 194.62 165.62 C 194.52 164.74 193.72 164.10 192.84 164.20 L 191.86 164.31 C 190.97 164.41 190.33 165.21 190.43 166.10 C 190.53 166.98 191.33 167.62 192.22 167.52 Z M 193.17 167.41 L 194.21 167.31 C 195.09 167.22 195.74 166.44 195.66 165.55 C 195.57 164.66 194.78 164.01 193.90 164.10 L 192.86 164.20 C 191.98 164.28 191.33 165.07 191.41 165.96 C 191.50 166.85 192.29 167.50 193.17 167.41 Z M 194.15 167.31 L 195.13 167.25 C 196.02 167.19 196.70 166.43 196.64 165.54 C 196.58 164.65 195.82 163.97 194.93 164.03 L 193.95 164.09 C 193.06 164.15 192.38 164.92 192.44 165.81 C 192.50 166.70 193.27 167.37 194.15 167.31 Z M 195.09 167.25 L 196.01 167.22 C 196.90 167.19 197.60 166.44 197.56 165.55 C 197.53 164.66 196.78 163.96 195.89 164.00 L 194.97 164.03 C 194.08 164.06 193.39 164.81 193.42 165.70 C 193.45 166.59 194.20 167.28 195.09 167.25 Z M 195.99 167.22 L 197.01 167.19 C 197.90 167.17 198.60 166.43 198.58 165.54 C 198.55 164.65 197.81 163.95 196.92 163.97 L 195.91 164.00 C 195.02 164.02 194.32 164.76 194.34 165.65 C 194.37 166.54 195.10 167.24 195.99 167.22 Z M 196.96 167.19 L 197.97 167.19 C 198.86 167.20 199.59 166.48 199.59 165.59 C 199.59 164.70 198.87 163.98 197.98 163.97 L 196.97 163.97 C 196.08 163.97 195.36 164.69 195.36 165.58 C 195.35 166.47 196.07 167.19 196.96 167.19 Z M 197.86 167.19 L 198.90 167.26 C 199.78 167.33 200.56 166.67 200.62 165.78 C 200.69 164.89 200.02 164.12 199.14 164.06 L 198.10 163.98 C 197.21 163.92 196.44 164.58 196.38 165.46 C 196.31 166.35 196.97 167.12 197.86 167.19 Z M 198.76 167.24 L 199.70 167.40 C 200.57 167.54 201.40 166.95 201.54 166.07 C 201.68 165.20 201.09 164.37 200.21 164.23 L 199.28 164.08 C 198.40 163.93 197.58 164.53 197.44 165.40 C 197.29 166.28 197.89 167.10 198.76 167.24 Z M 199.67 167.39 L 200.62 167.56 C 201.49 167.72 202.33 167.14 202.48 166.27 C 202.64 165.40 202.06 164.56 201.19 164.41 L 200.24 164.24 C 199.37 164.08 198.54 164.66 198.38 165.53 C 198.22 166.40 198.80 167.23 199.67 167.39 Z M 200.67 167.57 L 201.68 167.71 C 202.55 167.84 203.36 167.24 203.49 166.37 C 203.62 165.49 203.02 164.68 202.14 164.55 L 201.14 164.40 C 200.27 164.27 199.45 164.88 199.33 165.75 C 199.20 166.62 199.80 167.44 200.67 167.57 Z M 201.75 167.72 L 202.72 167.82 C 203.60 167.91 204.38 167.27 204.47 166.39 C 204.56 165.52 203.92 164.73 203.04 164.64 L 202.07 164.55 C 201.19 164.46 200.41 165.09 200.32 165.97 C 200.23 166.85 200.87 167.63 201.75 167.72 Z M 202.79 167.82 L 203.81 167.88 C 204.69 167.93 205.44 167.26 205.49 166.38 C 205.54 165.50 204.87 164.75 203.99 164.70 L 202.97 164.64 C 202.09 164.59 201.34 165.26 201.29 166.14 C 201.24 167.02 201.91 167.77 202.79 167.82 Z M 203.87 167.88 L 204.87 167.90 C 205.75 167.92 206.47 167.22 206.49 166.34 C 206.51 165.46 205.81 164.74 204.93 164.72 L 203.94 164.70 C 203.06 164.68 202.33 165.38 202.31 166.26 C 202.30 167.14 202.99 167.86 203.87 167.88 Z M 204.90 167.90 L 205.90 167.90 C 206.78 167.90 207.49 167.19 207.50 166.32 C 207.50 165.44 206.79 164.73 205.91 164.73 L 204.91 164.72 C 204.03 164.72 203.32 165.43 203.32 166.31 C 203.31 167.18 204.02 167.90 204.90 167.90 Z M 205.91 167.90 L 206.92 167.90 C 207.79 167.90 208.50 167.19 208.50 166.31 C 208.50 165.44 207.79 164.73 206.92 164.73 L 205.91 164.73 C 205.03 164.73 204.32 165.44 204.32 166.31 C 204.32 167.19 205.03 167.90 205.91 167.90 Z M 206.92 167.90 L 207.91 167.90 C 208.78 167.90 209.49 167.19 209.49 166.31 C 209.49 165.44 208.78 164.73 207.91 164.73 L 206.92 164.73 C 206.04 164.73 205.33 165.44 205.33 166.31 C 205.33 167.19 206.04 167.90 206.92 167.90 Z M 207.91 167.90 L 208.93 167.90 C 209.80 167.90 210.51 167.19 210.51 166.31 C 210.51 165.44 209.80 164.73 208.93 164.73 L 207.91 164.73 C 207.03 164.73 206.32 165.44 206.32 166.31 C 206.32 167.19 207.03 167.90 207.91 167.90 Z M 208.93 167.90 L 209.91 167.90 C 210.79 167.90 211.49 167.19 211.49 166.31 C 211.49 165.44 210.79 164.73 209.91 164.73 L 208.93 164.73 C 208.05 164.73 207.34 165.44 207.34 166.31 C 207.34 167.19 208.05 167.90 208.93 167.90 Z M 209.91 167.89 L 210.93 167.89 C 211.80 167.89 212.51 167.19 212.51 166.31 C 212.51 165.44 211.80 164.73 210.93 164.73 L 209.91 164.73 C 209.04 164.73 208.33 165.44 208.33 166.31 C 208.33 167.19 209.04 167.89 209.91 167.89 Z M 210.93 167.89 L 211.91 167.89 C 212.79 167.89 213.49 167.19 213.49 166.31 C 213.49 165.44 212.79 164.73 211.91 164.73 L 210.93 164.73 C 210.06 164.73 209.35 165.44 209.35 166.31 C 209.35 167.19 210.06 167.89 210.93 167.89 Z M 211.91 167.89 L 212.91 167.89 C 213.78 167.89 214.49 167.18 214.49 166.31 C 214.49 165.44 213.78 164.74 212.91 164.74 L 211.91 164.74 C 211.04 164.74 210.34 165.44 210.34 166.31 C 210.34 167.18 211.04 167.89 211.91 167.89 Z M 212.91 167.89 L 213.89 167.89 C 214.76 167.89 215.47 167.18 215.47 166.31 C 215.47 165.44 214.76 164.74 213.89 164.74 L 212.91 164.74 C 212.04 164.74 211.34 165.44 211.34 166.31 C 211.34 167.18 212.04 167.89 212.91 167.89 Z M 213.89 167.89 L 214.90 167.89 C 215.77 167.89 216.48 167.18 216.48 166.31 C 216.48 165.44 215.77 164.74 214.90 164.74 L 213.89 164.74 C 213.02 164.74 212.32 165.44 212.32 166.31 C 212.32 167.18 213.02 167.89 213.89 167.89 Z M 214.87 167.88 L 215.87 167.91 C 216.74 167.93 217.46 167.24 217.48 166.38 C 217.50 165.51 216.82 164.79 215.95 164.77 L 214.94 164.74 C 214.07 164.72 213.35 165.41 213.33 166.28 C 213.31 167.14 214.00 167.86 214.87 167.88 Z M 215.69 167.89 L 216.68 168.03 C 217.54 168.16 218.33 167.56 218.46 166.71 C 218.58 165.85 217.99 165.05 217.13 164.93 L 216.14 164.79 C 215.28 164.66 214.48 165.26 214.36 166.11 C 214.24 166.97 214.83 167.77 215.69 167.89 Z M 216.44 167.97 L 217.39 168.26 C 218.21 168.52 219.09 168.06 219.34 167.24 C 219.60 166.42 219.14 165.54 218.32 165.29 L 217.37 164.99 C 216.55 164.74 215.67 165.20 215.42 166.02 C 215.16 166.84 215.62 167.71 216.44 167.97 Z M 217.33 168.24 L 217.51 168.30 C 218.32 168.59 219.21 168.18 219.50 167.37 C 219.79 166.56 219.37 165.67 218.57 165.38 L 218.38 165.32 C 217.57 165.02 216.68 165.44 216.39 166.25 C 216.10 167.06 216.52 167.94 217.33 168.24 Z"
      fill="black"
      fill-rule="nonzero" /></svg>