<svg xmlns="http://www.w3.org/2000/svg" width="300" height="300" viewBox="0 0 300 300">
<path d="M 225.91 108.66 L 225.32 107.69 C 224.86 106.91 223.85 106.66 223.07 107.12 C 222.30 107.59 222.05 108.60 222.51 109.37 L 223.09 110.34 C 223.56 111.12 224.57 111.37 225.34 110.91 C 226.12 110.44 226.37 109.43 225.91 108.66 Z M 225.32 107.68 L 224.74 106.72 C 224.28 105.94 223.27 105.69 222.49 106.16 C 221.72 106.62 221.46 107.63 221.93 108.41 L 222.51 109.37 C 222.98 110.15 223.98 110.40 224.76 109.94 C 225.54 109.47 225.79 108.46 225.32 107.68 Z M 224.74 106.72 L 224.17 105.76 C 223.70 104.98 222.69 104.73 221.92 105.20 C 221.14 105.66 220.89 106.67 221.35 107.45 L 221.93 108.41 C 222.40 109.18 223.40 109.44 224.18 108.97 C 224.96 108.50 225.21 107.49 224.74 106.72 Z M 224.17 105.76 L 223.60 104.81 C 223.13 104.03 222.12 103.78 221.35 104.25 C 220.57 104.72 220.32 105.73 220.79 106.50 L 221.35 107.45 C 221.82 108.23 222.83 108.48 223.61 108.01 C 224.38 107.54 224.64 106.53 224.17 105.76 Z M 223.60 104.81 L 223.04 103.88 C 222.57 103.10 221.56 102.85 220.79 103.32 C 220.01 103.79 219.76 104.80 220.23 105.58 L 220.79 106.51 C 221.25 107.28 222.26 107.53 223.04 107.07 C 223.82 106.60 224.07 105.59 223.60 104.81 Z M 223.04 103.88 L 222.49 102.97 C 222.02 102.20 221.01 101.95 220.24 102.41 C 219.46 102.88 219.21 103.89 219.68 104.67 L 220.23 105.58 C 220.70 106.36 221.71 106.61 222.48 106.14 C 223.26 105.67 223.51 104.66 223.04 103.88 Z M 222.49 102.97 L 221.96 102.09 C 221.49 101.31 220.48 101.06 219.70 101.53 C 218.93 102.00 218.68 103.01 219.15 103.79 L 219.68 104.67 C 220.15 105.45 221.16 105.70 221.94 105.23 C 222.71 104.76 222.96 103.75 222.49 102.97 Z M 221.96 102.09 L 221.44 101.23 C 220.97 100.46 219.96 100.21 219.18 100.68 C 218.41 101.15 218.16 102.16 218.63 102.94 L 219.15 103.79 C 219.62 104.57 220.63 104.82 221.41 104.35 C 222.18 103.87 222.43 102.86 221.96 102.09 Z M 221.44 101.23 L 220.94 100.41 C 220.47 99.64 219.46 99.39 218.68 99.86 C 217.91 100.33 217.66 101.35 218.13 102.12 L 218.63 102.94 C 219.10 103.72 220.11 103.96 220.89 103.49 C 221.67 103.02 221.91 102.01 221.44 101.23 Z M 220.94 100.41 L 220.47 99.63 C 219.99 98.85 218.98 98.61 218.20 99.08 C 217.43 99.56 217.18 100.57 217.66 101.35 L 218.13 102.13 C 218.61 102.90 219.62 103.15 220.40 102.67 C 221.17 102.20 221.42 101.19 220.94 100.41 Z M 220.46 99.62 L 220.01 98.89 C 219.53 98.11 218.52 97.87 217.75 98.34 C 216.97 98.82 216.73 99.84 217.20 100.61 L 217.66 101.35 C 218.13 102.12 219.15 102.37 219.92 101.89 C 220.70 101.41 220.94 100.40 220.46 99.62 Z M 220.01 98.88 L 219.58 98.19 C 219.10 97.42 218.09 97.18 217.31 97.65 C 216.54 98.13 216.30 99.15 216.78 99.92 L 217.21 100.61 C 217.68 101.39 218.70 101.63 219.47 101.15 C 220.25 100.67 220.49 99.66 220.01 98.88 Z M 219.58 98.18 L 219.12 97.45 C 218.64 96.68 217.62 96.44 216.85 96.92 C 216.08 97.40 215.84 98.42 216.32 99.19 L 216.78 99.93 C 217.26 100.70 218.28 100.94 219.05 100.46 C 219.82 99.97 220.06 98.96 219.58 98.18 Z M 219.11 97.44 L 218.37 96.26 C 217.88 95.49 216.86 95.26 216.09 95.75 C 215.32 96.24 215.09 97.26 215.58 98.03 L 216.33 99.21 C 216.82 99.97 217.84 100.20 218.61 99.71 C 219.38 99.22 219.60 98.20 219.11 97.44 Z M 218.35 96.23 L 217.70 95.26 C 217.20 94.50 216.17 94.29 215.41 94.80 C 214.65 95.30 214.45 96.33 214.95 97.09 L 215.60 98.06 C 216.10 98.82 217.13 99.02 217.89 98.52 C 218.65 98.02 218.85 96.99 218.35 96.23 Z M 217.68 95.21 L 217.11 94.41 C 216.58 93.67 215.54 93.49 214.80 94.02 C 214.05 94.55 213.88 95.58 214.41 96.33 L 214.98 97.13 C 215.51 97.88 216.54 98.05 217.29 97.52 C 218.03 96.99 218.21 95.96 217.68 95.21 Z M 217.06 94.35 L 216.53 93.68 C 215.97 92.96 214.93 92.83 214.21 93.40 C 213.49 93.96 213.36 95.01 213.93 95.72 L 214.46 96.39 C 215.02 97.11 216.06 97.24 216.78 96.67 C 217.50 96.11 217.62 95.07 217.06 94.35 Z M 216.47 93.60 L 215.96 93.02 C 215.35 92.34 214.30 92.28 213.62 92.89 C 212.93 93.50 212.87 94.55 213.48 95.23 L 213.99 95.81 C 214.60 96.49 215.65 96.55 216.34 95.94 C 217.02 95.33 217.08 94.28 216.47 93.60 Z M 215.88 92.94 L 215.33 92.41 C 214.68 91.77 213.63 91.79 212.99 92.44 C 212.35 93.10 212.36 94.15 213.02 94.79 L 213.56 95.32 C 214.22 95.96 215.27 95.94 215.91 95.29 C 216.55 94.63 216.54 93.58 215.88 92.94 Z M 215.24 92.32 L 214.49 91.70 C 213.79 91.12 212.74 91.21 212.15 91.92 C 211.57 92.62 211.66 93.67 212.37 94.26 L 213.11 94.88 C 213.82 95.46 214.87 95.37 215.46 94.66 C 216.04 93.96 215.95 92.91 215.24 92.32 Z M 214.38 91.62 L 213.57 91.05 C 212.82 90.52 211.78 90.71 211.26 91.46 C 210.73 92.21 210.92 93.25 211.67 93.78 L 212.48 94.34 C 213.23 94.87 214.27 94.69 214.80 93.93 C 215.32 93.18 215.14 92.14 214.38 91.62 Z M 213.46 90.97 L 212.59 90.47 C 211.79 90.01 210.77 90.28 210.31 91.07 C 209.85 91.87 210.12 92.89 210.92 93.35 L 211.79 93.85 C 212.58 94.32 213.60 94.04 214.06 93.25 C 214.52 92.45 214.25 91.44 213.46 90.97 Z M 212.47 90.40 L 211.54 89.97 C 210.71 89.57 209.72 89.93 209.32 90.76 C 208.93 91.59 209.28 92.58 210.12 92.98 L 211.04 93.41 C 211.87 93.81 212.86 93.45 213.26 92.62 C 213.65 91.79 213.30 90.80 212.47 90.40 Z M 211.42 89.91 L 210.48 89.56 C 209.62 89.24 208.66 89.67 208.34 90.54 C 208.01 91.40 208.45 92.36 209.31 92.68 L 210.24 93.03 C 211.10 93.36 212.07 92.92 212.39 92.06 C 212.71 91.20 212.28 90.23 211.42 89.91 Z M 210.37 89.52 L 209.44 89.25 C 208.56 88.99 207.63 89.49 207.37 90.38 C 207.11 91.26 207.61 92.19 208.50 92.45 L 209.43 92.72 C 210.31 92.98 211.24 92.48 211.50 91.59 C 211.76 90.71 211.25 89.78 210.37 89.52 Z M 209.35 89.22 L 208.39 89.00 C 207.49 88.79 206.59 89.34 206.38 90.24 C 206.17 91.14 206.73 92.04 207.63 92.25 L 208.59 92.47 C 209.49 92.69 210.39 92.13 210.60 91.23 C 210.81 90.33 210.25 89.43 209.35 89.22 Z M 208.32 88.98 L 207.33 88.79 C 206.42 88.62 205.55 89.22 205.38 90.12 C 205.20 91.03 205.80 91.90 206.71 92.08 L 207.70 92.27 C 208.60 92.44 209.48 91.84 209.65 90.94 C 209.82 90.03 209.23 89.15 208.32 88.98 Z M 207.28 88.78 L 206.26 88.62 C 205.35 88.47 204.49 89.09 204.35 90.01 C 204.20 90.92 204.82 91.78 205.73 91.92 L 206.75 92.09 C 207.66 92.23 208.52 91.61 208.67 90.70 C 208.82 89.79 208.19 88.93 207.28 88.78 Z M 206.24 88.61 L 205.24 88.47 C 204.32 88.34 203.47 88.97 203.34 89.89 C 203.21 90.80 203.84 91.65 204.76 91.79 L 205.76 91.93 C 206.68 92.06 207.53 91.43 207.66 90.51 C 207.79 89.59 207.15 88.75 206.24 88.61 Z M 205.22 88.46 L 204.25 88.33 C 203.33 88.21 202.48 88.86 202.36 89.78 C 202.24 90.70 202.88 91.54 203.80 91.66 L 204.78 91.79 C 205.69 91.91 206.54 91.27 206.66 90.35 C 206.78 89.43 206.14 88.59 205.22 88.46 Z M 204.23 88.33 L 203.24 88.21 C 202.32 88.10 201.48 88.76 201.37 89.68 C 201.26 90.60 201.91 91.44 202.84 91.55 L 203.82 91.67 C 204.75 91.78 205.58 91.12 205.69 90.20 C 205.81 89.28 205.15 88.44 204.23 88.33 Z M 203.22 88.20 L 202.22 88.10 C 201.29 88.00 200.46 88.67 200.36 89.60 C 200.26 90.52 200.93 91.35 201.86 91.45 L 202.86 91.56 C 203.79 91.65 204.62 90.98 204.71 90.06 C 204.81 89.13 204.14 88.30 203.22 88.20 Z M 202.19 88.09 L 201.18 88.00 C 200.25 87.92 199.43 88.60 199.35 89.53 C 199.26 90.46 199.95 91.28 200.88 91.37 L 201.89 91.46 C 202.82 91.54 203.64 90.85 203.72 89.92 C 203.80 88.99 203.12 88.17 202.19 88.09 Z M 201.15 87.99 L 200.13 87.92 C 199.20 87.86 198.39 88.56 198.32 89.49 C 198.26 90.43 198.96 91.24 199.89 91.30 L 200.91 91.37 C 201.84 91.44 202.65 90.73 202.72 89.80 C 202.78 88.87 202.08 88.06 201.15 87.99 Z M 200.10 87.92 L 199.11 87.87 C 198.17 87.82 197.37 88.54 197.33 89.48 C 197.28 90.41 198.00 91.21 198.94 91.26 L 199.93 91.31 C 200.86 91.35 201.66 90.63 201.71 89.70 C 201.75 88.76 201.03 87.96 200.10 87.92 Z M 199.08 87.86 L 198.08 87.83 C 197.15 87.80 196.36 88.54 196.33 89.48 C 196.30 90.41 197.04 91.20 197.97 91.23 L 198.97 91.26 C 199.91 91.29 200.69 90.56 200.72 89.62 C 200.75 88.68 200.02 87.89 199.08 87.86 Z M 198.06 87.83 L 197.06 87.81 C 196.12 87.79 195.35 88.54 195.33 89.48 C 195.31 90.42 196.06 91.20 197.00 91.21 L 198.00 91.23 C 198.94 91.25 199.71 90.50 199.73 89.56 C 199.75 88.62 199.00 87.85 198.06 87.83 Z M 197.05 87.81 L 196.04 87.80 C 195.10 87.79 194.33 88.55 194.32 89.49 C 194.32 90.43 195.07 91.20 196.01 91.21 L 197.02 91.22 C 197.96 91.23 198.73 90.47 198.74 89.53 C 198.75 88.59 197.99 87.82 197.05 87.81 Z M 196.03 87.80 L 195.03 87.79 C 194.08 87.79 193.32 88.55 193.31 89.50 C 193.31 90.44 194.07 91.21 195.02 91.21 L 196.02 91.21 C 196.97 91.21 197.73 90.45 197.74 89.51 C 197.74 88.56 196.98 87.80 196.03 87.80 Z M 195.02 87.79 L 194.02 87.79 C 193.08 87.79 192.31 88.55 192.31 89.50 C 192.31 90.44 193.08 91.21 194.02 91.21 L 195.02 91.21 C 195.97 91.21 196.73 90.45 196.73 89.50 C 196.73 88.56 195.97 87.79 195.02 87.79 Z M 194.02 87.78 L 193.05 87.78 C 192.10 87.78 191.33 88.55 191.33 89.50 C 191.33 90.45 192.10 91.22 193.05 91.22 L 194.02 91.22 C 194.97 91.22 195.74 90.45 195.74 89.50 C 195.74 88.55 194.97 87.78 194.02 87.78 Z M 193.05 87.78 L 192.06 87.78 C 191.11 87.78 190.34 88.55 190.34 89.50 C 190.34 90.45 191.11 91.22 192.06 91.22 L 193.05 91.22 C 194.00 91.22 194.77 90.45 194.77 89.50 C 194.77 88.55 194.00 87.78 193.05 87.78 Z M 192.06 87.77 L 191.07 87.77 C 190.11 87.77 189.34 88.55 189.34 89.50 C 189.34 90.45 190.11 91.23 191.07 91.23 L 192.06 91.23 C 193.01 91.23 193.79 90.45 193.79 89.50 C 193.79 88.55 193.01 87.77 192.06 87.77 Z M 191.07 87.77 L 190.06 87.77 C 189.10 87.77 188.33 88.54 188.33 89.50 C 188.33 90.46 189.10 91.23 190.06 91.23 L 191.07 91.23 C 192.02 91.23 192.80 90.46 192.80 89.50 C 192.80 88.54 192.02 87.77 191.07 87.77 Z M 190.06 87.76 L 189.04 87.76 C 188.08 87.76 187.30 88.54 187.30 89.50 C 187.30 90.46 188.08 91.24 189.04 91.24 L 190.06 91.24 C 191.02 91.24 191.80 90.46 191.80 89.50 C 191.80 88.54 191.02 87.76 190.06 87.76 Z M 189.04 87.75 L 188.02 87.75 C 187.06 87.75 186.28 88.54 186.28 89.50 C 186.28 90.46 187.06 91.25 188.02 91.25 L 189.04 91.25 C 190.00 91.25 190.78 90.46 190.78 89.50 C 190.78 88.54 190.00 87.75 189.04 87.75 Z M 188.02 87.75 L 187.03 87.75 C 186.06 87.75 185.28 88.53 185.28 89.50 C 185.28 90.47 186.06 91.25 187.03 91.25 L 188.02 91.25 C 188.99 91.25 189.77 90.47 189.77 89.50 C 189.77 88.53 188.99 87.75 188.02 87.75 Z M 187.02 87.74 L 186.02 87.74 C 185.05 87.75 184.27 88.54 184.27 89.51 C 184.27 90.48 185.06 91.27 186.04 91.26 L 187.04 91.26 C 188.01 91.26 188.79 90.47 188.79 89.49 C 188.79 88.52 188.00 87.74 187.02 87.74 Z M 186.01 87.74 L 185.01 87.75 C 184.03 87.75 183.25 88.55 183.26 89.53 C 183.26 90.50 184.06 91.29 185.04 91.28 L 186.04 91.27 C 187.02 91.26 187.80 90.47 187.80 89.49 C 187.79 88.51 186.99 87.73 186.01 87.74 Z M 185.00 87.74 L 183.99 87.75 C 183.01 87.77 182.23 88.57 182.24 89.55 C 182.26 90.53 183.06 91.32 184.04 91.30 L 185.05 91.29 C 186.03 91.27 186.81 90.47 186.80 89.49 C 186.78 88.51 185.98 87.72 185.00 87.74 Z M 183.97 87.75 L 182.97 87.77 C 181.99 87.79 181.21 88.61 181.23 89.59 C 181.25 90.58 182.07 91.36 183.05 91.33 L 184.06 91.31 C 185.04 91.29 185.82 90.47 185.80 89.49 C 185.77 88.50 184.96 87.72 183.97 87.75 Z M 182.95 87.76 L 181.95 87.80 C 180.96 87.83 180.19 88.66 180.23 89.65 C 180.26 90.64 181.09 91.41 182.08 91.37 L 183.07 91.34 C 184.06 91.31 184.83 90.48 184.80 89.49 C 184.77 88.50 183.94 87.73 182.95 87.76 Z M 181.93 87.79 L 180.91 87.84 C 179.92 87.89 179.16 88.73 179.21 89.72 C 179.25 90.71 180.10 91.48 181.09 91.43 L 182.10 91.38 C 183.09 91.33 183.86 90.49 183.81 89.50 C 183.76 88.51 182.92 87.74 181.93 87.79 Z M 180.88 87.83 L 179.88 87.90 C 178.88 87.97 178.13 88.83 178.20 89.82 C 178.26 90.82 179.13 91.57 180.12 91.50 L 181.12 91.44 C 182.12 91.37 182.87 90.51 182.80 89.51 C 182.73 88.52 181.87 87.77 180.88 87.83 Z M 179.84 87.90 L 178.84 87.99 C 177.85 88.08 177.11 88.96 177.20 89.95 C 177.29 90.95 178.17 91.69 179.17 91.60 L 180.16 91.51 C 181.16 91.42 181.89 90.54 181.80 89.54 C 181.71 88.54 180.83 87.81 179.84 87.90 Z M 178.79 87.98 L 177.81 88.10 C 176.81 88.22 176.09 89.12 176.21 90.12 C 176.33 91.12 177.23 91.83 178.23 91.72 L 179.22 91.60 C 180.22 91.48 180.93 90.58 180.81 89.58 C 180.70 88.58 179.79 87.87 178.79 87.98 Z M 177.75 88.10 L 176.77 88.25 C 175.77 88.40 175.08 89.33 175.23 90.33 C 175.38 91.32 176.31 92.01 177.31 91.86 L 178.29 91.72 C 179.29 91.57 179.98 90.64 179.83 89.64 C 179.68 88.64 178.75 87.95 177.75 88.10 Z M 176.70 88.25 L 175.72 88.43 C 174.72 88.62 174.07 89.58 174.25 90.57 C 174.44 91.57 175.40 92.23 176.39 92.04 L 177.37 91.86 C 178.37 91.67 179.03 90.72 178.84 89.72 C 178.66 88.72 177.70 88.07 176.70 88.25 Z M 175.65 88.44 L 174.72 88.65 C 173.73 88.87 173.10 89.86 173.33 90.85 C 173.55 91.85 174.54 92.47 175.53 92.25 L 176.46 92.04 C 177.46 91.81 178.08 90.83 177.86 89.83 C 177.63 88.84 176.65 88.22 175.65 88.44 Z M 174.66 88.65 L 173.73 88.90 C 172.74 89.16 172.14 90.17 172.40 91.16 C 172.66 92.15 173.67 92.74 174.66 92.48 L 175.59 92.24 C 176.58 91.98 177.18 90.97 176.92 89.98 C 176.66 88.99 175.65 88.40 174.66 88.65 Z M 173.67 88.90 L 172.73 89.18 C 171.74 89.47 171.18 90.50 171.47 91.49 C 171.76 92.48 172.79 93.04 173.78 92.75 L 174.72 92.48 C 175.71 92.19 176.27 91.15 175.98 90.17 C 175.69 89.18 174.66 88.61 173.67 88.90 Z M 172.68 89.18 L 171.73 89.49 C 170.75 89.81 170.20 90.86 170.52 91.85 C 170.84 92.83 171.89 93.37 172.88 93.05 L 173.83 92.75 C 174.81 92.43 175.35 91.38 175.04 90.39 C 174.72 89.41 173.67 88.87 172.68 89.18 Z M 171.69 89.49 L 170.72 89.83 C 169.74 90.17 169.22 91.24 169.56 92.22 C 169.90 93.21 170.97 93.73 171.96 93.38 L 172.92 93.05 C 173.90 92.71 174.42 91.64 174.08 90.66 C 173.74 89.67 172.67 89.15 171.69 89.49 Z M 170.69 89.83 L 169.70 90.19 C 168.72 90.55 168.22 91.64 168.58 92.62 C 168.94 93.60 170.03 94.10 171.01 93.74 L 171.99 93.38 C 172.97 93.02 173.48 91.93 173.12 90.95 C 172.76 89.97 171.67 89.47 170.69 89.83 Z M 169.68 90.19 L 168.72 90.56 C 167.74 90.93 167.25 92.03 167.63 93.01 C 168.01 93.99 169.11 94.48 170.09 94.11 L 171.04 93.74 C 172.02 93.37 172.51 92.27 172.13 91.29 C 171.76 90.31 170.66 89.82 169.68 90.19 Z M 168.70 90.56 L 167.79 90.92 C 166.81 91.31 166.33 92.42 166.72 93.40 C 167.11 94.38 168.22 94.86 169.20 94.47 L 170.11 94.11 C 171.09 93.72 171.57 92.61 171.18 91.63 C 170.79 90.65 169.68 90.17 168.70 90.56 Z M 167.77 90.92 L 166.85 91.30 C 165.87 91.70 165.40 92.82 165.80 93.80 C 166.21 94.78 167.33 95.25 168.31 94.85 L 169.23 94.47 C 170.21 94.07 170.68 92.94 170.27 91.96 C 169.87 90.98 168.75 90.51 167.77 90.92 Z M 166.82 91.30 L 165.90 91.69 C 164.92 92.11 164.46 93.24 164.88 94.22 C 165.29 95.20 166.43 95.66 167.41 95.24 L 168.33 94.85 C 169.31 94.43 169.77 93.30 169.35 92.32 C 168.94 91.34 167.80 90.88 166.82 91.30 Z M 165.87 91.69 L 164.94 92.10 C 163.96 92.53 163.52 93.68 163.95 94.65 C 164.38 95.63 165.53 96.08 166.51 95.65 L 167.43 95.24 C 168.41 94.81 168.86 93.66 168.43 92.68 C 167.99 91.70 166.85 91.26 165.87 91.69 Z M 164.92 92.10 L 163.99 92.52 C 163.02 92.97 162.58 94.13 163.03 95.10 C 163.48 96.08 164.63 96.51 165.61 96.07 L 166.53 95.64 C 167.51 95.20 167.94 94.04 167.50 93.06 C 167.05 92.09 165.89 91.66 164.92 92.10 Z M 163.96 92.53 L 163.05 92.96 C 162.08 93.42 161.66 94.59 162.12 95.57 C 162.59 96.54 163.75 96.96 164.73 96.50 L 165.64 96.06 C 166.62 95.60 167.03 94.43 166.57 93.46 C 166.11 92.48 164.94 92.06 163.96 92.53 Z M 163.02 92.97 L 162.13 93.41 C 161.15 93.89 160.75 95.07 161.24 96.04 C 161.72 97.01 162.89 97.41 163.87 96.93 L 164.76 96.49 C 165.73 96.01 166.13 94.83 165.65 93.86 C 165.17 92.89 163.99 92.49 163.02 92.97 Z M 162.10 93.42 L 161.24 93.86 C 160.27 94.35 159.89 95.54 160.39 96.51 C 160.89 97.48 162.08 97.86 163.04 97.36 L 163.90 96.92 C 164.87 96.42 165.25 95.23 164.75 94.27 C 164.25 93.30 163.06 92.92 162.10 93.42 Z M 161.21 93.87 L 160.36 94.32 C 159.40 94.84 159.04 96.03 159.55 96.99 C 160.07 97.96 161.27 98.32 162.23 97.80 L 163.07 97.35 C 164.04 96.83 164.40 95.64 163.88 94.68 C 163.37 93.71 162.17 93.35 161.21 93.87 Z M 160.33 94.33 L 159.49 94.80 C 158.53 95.33 158.19 96.54 158.72 97.49 C 159.25 98.45 160.46 98.79 161.41 98.26 L 162.26 97.79 C 163.21 97.26 163.56 96.05 163.02 95.10 C 162.49 94.14 161.29 93.80 160.33 94.33 Z M 159.46 94.81 L 158.61 95.30 C 157.66 95.85 157.34 97.06 157.88 98.01 C 158.43 98.96 159.65 99.29 160.59 98.74 L 161.44 98.25 C 162.39 97.70 162.72 96.49 162.17 95.54 C 161.62 94.59 160.41 94.27 159.46 94.81 Z M 158.58 95.31 L 157.72 95.83 C 156.78 96.39 156.47 97.61 157.03 98.55 C 157.60 99.50 158.82 99.80 159.76 99.24 L 160.62 98.73 C 161.56 98.17 161.87 96.95 161.31 96.00 C 160.75 95.06 159.53 94.75 158.58 95.31 Z M 157.70 95.84 L 156.82 96.38 C 155.88 96.96 155.59 98.18 156.16 99.12 C 156.74 100.06 157.97 100.35 158.90 99.77 L 159.78 99.23 C 160.72 98.66 161.01 97.43 160.44 96.49 C 159.86 95.55 158.64 95.26 157.70 95.84 Z M 156.80 96.39 L 155.89 96.96 C 154.96 97.55 154.68 98.78 155.27 99.71 C 155.86 100.65 157.09 100.92 158.02 100.34 L 158.93 99.76 C 159.86 99.18 160.14 97.94 159.55 97.01 C 158.96 96.08 157.73 95.80 156.80 96.39 Z M 155.87 96.97 L 155.06 97.49 C 154.13 98.09 153.87 99.33 154.46 100.25 C 155.06 101.18 156.30 101.45 157.23 100.85 L 158.04 100.33 C 158.97 99.73 159.23 98.49 158.64 97.56 C 158.04 96.64 156.80 96.37 155.87 96.97 Z M 155.05 97.50 L 154.27 98.00 C 153.35 98.61 153.09 99.85 153.70 100.78 C 154.30 101.70 155.54 101.96 156.47 101.35 L 157.24 100.85 C 158.17 100.24 158.43 99.00 157.82 98.07 C 157.21 97.15 155.97 96.89 155.05 97.50 Z M 154.26 98.01 L 153.46 98.54 C 152.54 99.15 152.29 100.40 152.91 101.32 C 153.52 102.24 154.77 102.49 155.69 101.88 L 156.48 101.35 C 157.41 100.73 157.65 99.49 157.04 98.57 C 156.43 97.64 155.18 97.39 154.26 98.01 Z M 153.45 98.54 L 152.64 99.09 C 151.72 99.71 151.48 100.96 152.10 101.88 C 152.73 102.80 153.98 103.04 154.89 102.42 L 155.70 101.87 C 156.62 101.25 156.86 100.00 156.24 99.08 C 155.62 98.16 154.37 97.92 153.45 98.54 Z M 152.63 99.10 L 151.80 99.66 C 150.89 100.30 150.66 101.55 151.29 102.46 C 151.92 103.38 153.17 103.61 154.08 102.98 L 154.91 102.41 C 155.82 101.78 156.06 100.53 155.43 99.61 C 154.79 98.70 153.54 98.47 152.63 99.10 Z M 151.79 99.67 L 150.95 100.26 C 150.04 100.89 149.82 102.15 150.46 103.06 C 151.09 103.97 152.35 104.20 153.26 103.56 L 154.10 102.97 C 155.01 102.34 155.23 101.08 154.60 100.17 C 153.96 99.26 152.70 99.03 151.79 99.67 Z M 150.94 100.26 L 150.09 100.86 C 149.19 101.51 148.97 102.77 149.62 103.68 C 150.26 104.59 151.53 104.80 152.43 104.15 L 153.28 103.55 C 154.19 102.91 154.40 101.65 153.75 100.74 C 153.11 99.83 151.85 99.62 150.94 100.26 Z M 150.08 100.87 L 149.23 101.48 C 148.32 102.14 148.12 103.40 148.77 104.31 C 149.43 105.21 150.69 105.41 151.60 104.76 L 152.45 104.15 C 153.35 103.49 153.56 102.23 152.90 101.32 C 152.25 100.42 150.98 100.21 150.08 100.87 Z M 149.21 101.49 L 148.36 102.12 C 147.46 102.78 147.26 104.05 147.93 104.95 C 148.59 105.85 149.86 106.04 150.76 105.38 L 151.61 104.75 C 152.51 104.09 152.71 102.82 152.05 101.92 C 151.38 101.02 150.12 100.83 149.21 101.49 Z M 148.34 102.13 L 147.52 102.74 C 146.62 103.42 146.44 104.69 147.11 105.58 C 147.78 106.48 149.05 106.66 149.95 105.99 L 150.77 105.37 C 151.67 104.70 151.85 103.43 151.18 102.54 C 150.51 101.64 149.24 101.45 148.34 102.13 Z M 147.50 102.75 L 146.73 103.34 C 145.83 104.02 145.66 105.29 146.34 106.19 C 147.02 107.08 148.29 107.25 149.18 106.58 L 149.96 105.99 C 150.85 105.31 151.03 104.03 150.35 103.14 C 149.67 102.25 148.40 102.07 147.50 102.75 Z M 146.71 103.35 L 145.94 103.95 C 145.05 104.63 144.88 105.91 145.57 106.80 C 146.25 107.69 147.53 107.85 148.42 107.17 L 149.20 106.57 C 150.09 105.88 150.25 104.61 149.57 103.72 C 148.88 102.83 147.60 102.66 146.71 103.35 Z M 145.93 103.95 L 145.15 104.56 C 144.26 105.25 144.11 106.53 144.80 107.41 C 145.49 108.30 146.77 108.46 147.65 107.77 L 148.43 107.16 C 149.32 106.47 149.48 105.19 148.78 104.30 C 148.09 103.42 146.81 103.26 145.93 103.95 Z M 145.14 104.56 L 144.36 105.18 C 143.48 105.87 143.33 107.15 144.02 108.04 C 144.72 108.92 146.00 109.07 146.89 108.38 L 147.66 107.76 C 148.55 107.07 148.70 105.78 148.00 104.90 C 147.31 104.02 146.02 103.86 145.14 104.56 Z M 144.35 105.18 L 143.57 105.80 C 142.69 106.50 142.55 107.79 143.25 108.67 C 143.95 109.55 145.23 109.70 146.11 108.99 L 146.90 108.37 C 147.78 107.67 147.92 106.39 147.22 105.51 C 146.52 104.62 145.23 104.48 144.35 105.18 Z M 143.56 105.80 L 142.78 106.43 C 141.90 107.14 141.76 108.43 142.47 109.30 C 143.17 110.18 144.46 110.33 145.34 109.62 L 146.12 108.99 C 147.00 108.28 147.14 107.00 146.44 106.12 C 145.73 105.24 144.44 105.10 143.56 105.80 Z M 142.78 106.44 L 141.99 107.07 C 141.11 107.78 140.97 109.07 141.68 109.95 C 142.39 110.83 143.68 110.96 144.56 110.25 L 145.35 109.62 C 146.23 108.91 146.36 107.62 145.65 106.74 C 144.94 105.86 143.65 105.73 142.78 106.44 Z M 141.98 107.07 L 141.19 107.71 C 140.32 108.43 140.18 109.72 140.90 110.59 C 141.61 111.47 142.90 111.60 143.78 110.89 L 144.57 110.25 C 145.44 109.54 145.58 108.25 144.86 107.37 C 144.15 106.49 142.86 106.36 141.98 107.07 Z M 141.19 107.71 L 140.40 108.36 C 139.52 109.08 139.39 110.37 140.10 111.24 C 140.82 112.12 142.11 112.25 142.99 111.54 L 143.78 110.89 C 144.66 110.18 144.79 108.88 144.08 108.01 C 143.36 107.13 142.07 107.00 141.19 107.71 Z M 140.39 108.36 L 139.60 109.01 C 138.72 109.73 138.59 111.02 139.31 111.90 C 140.03 112.78 141.32 112.91 142.20 112.19 L 142.99 111.54 C 143.87 110.82 144.00 109.53 143.28 108.65 C 142.56 107.77 141.27 107.64 140.39 108.36 Z M 139.60 109.01 L 138.86 109.61 C 137.98 110.33 137.85 111.63 138.57 112.50 C 139.29 113.38 140.58 113.51 141.46 112.79 L 142.20 112.19 C 143.08 111.47 143.21 110.17 142.49 109.30 C 141.77 108.42 140.47 108.29 139.60 109.01 Z M 138.86 109.61 L 138.11 110.22 C 137.24 110.94 137.11 112.24 137.83 113.12 C 138.55 113.99 139.85 114.12 140.73 113.40 L 141.47 112.79 C 142.34 112.07 142.47 110.77 141.75 109.90 C 141.03 109.02 139.73 108.89 138.86 109.61 Z M 138.11 110.23 L 137.36 110.84 C 136.49 111.57 136.37 112.86 137.09 113.74 C 137.81 114.61 139.11 114.74 139.99 114.01 L 140.73 113.40 C 141.61 112.67 141.73 111.38 141.01 110.50 C 140.28 109.62 138.99 109.50 138.11 110.23 Z M 137.36 110.85 L 136.61 111.47 C 135.74 112.20 135.62 113.50 136.35 114.37 C 137.07 115.24 138.37 115.36 139.24 114.63 L 139.99 114.01 C 140.87 113.28 140.98 111.98 140.26 111.11 C 139.53 110.24 138.23 110.12 137.36 110.85 Z M 136.60 111.48 L 135.85 112.11 C 134.98 112.84 134.87 114.14 135.60 115.01 C 136.33 115.88 137.63 115.99 138.50 115.26 L 139.25 114.63 C 140.12 113.89 140.23 112.59 139.50 111.72 C 138.77 110.85 137.47 110.74 136.60 111.48 Z M 135.84 112.12 L 135.08 112.76 C 134.21 113.50 134.11 114.80 134.85 115.67 C 135.59 116.53 136.89 116.64 137.75 115.90 L 138.51 115.25 C 139.38 114.51 139.48 113.21 138.74 112.35 C 138.00 111.48 136.70 111.38 135.84 112.12 Z M 135.07 112.77 L 134.31 113.43 C 133.45 114.17 133.35 115.47 134.10 116.33 C 134.84 117.20 136.14 117.29 137.01 116.55 L 137.77 115.89 C 138.63 115.14 138.72 113.84 137.98 112.98 C 137.23 112.12 135.93 112.02 135.07 112.77 Z M 134.30 113.44 L 133.53 114.11 C 132.68 114.86 132.59 116.16 133.34 117.02 C 134.09 117.87 135.40 117.96 136.25 117.21 L 137.02 116.54 C 137.87 115.79 137.96 114.48 137.21 113.63 C 136.46 112.77 135.15 112.68 134.30 113.44 Z M 133.52 114.12 L 132.75 114.80 C 131.90 115.56 131.82 116.87 132.58 117.72 C 133.34 118.57 134.65 118.64 135.50 117.88 L 136.27 117.20 C 137.12 116.44 137.19 115.13 136.43 114.28 C 135.67 113.43 134.37 113.36 133.52 114.12 Z M 132.73 114.82 L 131.96 115.52 C 131.12 116.29 131.06 117.59 131.82 118.44 C 132.59 119.28 133.90 119.34 134.74 118.57 L 135.51 117.87 C 136.36 117.10 136.42 115.80 135.65 114.95 C 134.88 114.11 133.58 114.05 132.73 114.82 Z M 131.94 115.53 L 131.17 116.25 C 130.33 117.03 130.28 118.34 131.06 119.17 C 131.84 120.01 133.15 120.06 133.98 119.28 L 134.76 118.56 C 135.59 117.78 135.64 116.48 134.87 115.64 C 134.09 114.80 132.78 114.76 131.94 115.53 Z M 131.15 116.27 L 130.46 116.93 C 129.63 117.71 129.59 119.02 130.38 119.85 C 131.16 120.68 132.47 120.71 133.30 119.93 L 134.00 119.27 C 134.83 118.48 134.86 117.17 134.08 116.35 C 133.29 115.52 131.98 115.48 131.15 116.27 Z M 130.44 116.94 L 129.76 117.59 C 128.94 118.39 128.92 119.70 129.71 120.52 C 130.50 121.34 131.81 121.36 132.64 120.57 L 133.32 119.92 C 134.14 119.12 134.16 117.81 133.37 116.99 C 132.57 116.17 131.26 116.15 130.44 116.94 Z M 129.75 117.61 L 129.07 118.28 C 128.25 119.08 128.24 120.39 129.04 121.20 C 129.84 122.02 131.15 122.03 131.97 121.23 L 132.65 120.56 C 133.46 119.76 133.48 118.45 132.68 117.63 C 131.88 116.82 130.57 116.81 129.75 117.61 Z M 129.06 118.29 L 128.37 118.97 C 127.56 119.78 127.56 121.09 128.37 121.90 C 129.18 122.71 130.49 122.71 131.30 121.90 L 131.98 121.22 C 132.79 120.41 132.79 119.10 131.98 118.29 C 131.18 117.48 129.87 117.48 129.06 118.29 Z M 128.36 118.98 L 127.67 119.68 C 126.87 120.49 126.88 121.80 127.69 122.60 C 128.50 123.41 129.82 123.40 130.62 122.59 L 131.31 121.89 C 132.11 121.08 132.10 119.77 131.29 118.96 C 130.48 118.16 129.16 118.17 128.36 118.98 Z M 127.66 119.68 L 126.97 120.39 C 126.17 121.21 126.19 122.52 127.01 123.32 C 127.83 124.12 129.14 124.10 129.94 123.28 L 130.63 122.58 C 131.43 121.76 131.41 120.45 130.59 119.65 C 129.77 118.85 128.46 118.87 127.66 119.68 Z M 126.96 120.40 L 126.27 121.12 C 125.48 121.95 125.50 123.26 126.33 124.05 C 127.15 124.85 128.46 124.82 129.26 124.00 L 129.95 123.28 C 130.74 122.45 130.72 121.14 129.89 120.35 C 129.07 119.55 127.76 119.58 126.96 120.40 Z M 126.26 121.13 L 125.56 121.86 C 124.78 122.69 124.81 124.00 125.64 124.79 C 126.47 125.58 127.78 125.55 128.57 124.72 L 129.26 123.99 C 130.05 123.16 130.02 121.85 129.19 121.06 C 128.36 120.27 127.05 120.30 126.26 121.13 Z M 125.56 121.87 L 124.86 122.62 C 124.07 123.45 124.11 124.76 124.95 125.55 C 125.78 126.33 127.09 126.29 127.88 125.46 L 128.58 124.71 C 129.36 123.88 129.32 122.57 128.49 121.78 C 127.65 121.00 126.34 121.04 125.56 121.87 Z M 124.85 122.62 L 124.15 123.38 C 123.37 124.22 123.41 125.53 124.25 126.31 C 125.09 127.09 126.40 127.04 127.18 126.20 L 127.88 125.45 C 128.66 124.61 128.62 123.30 127.78 122.52 C 126.94 121.74 125.63 121.78 124.85 122.62 Z M 124.14 123.38 L 123.43 124.15 C 122.66 124.99 122.71 126.30 123.55 127.08 C 124.40 127.86 125.71 127.80 126.48 126.96 L 127.19 126.20 C 127.97 125.35 127.91 124.04 127.07 123.26 C 126.23 122.49 124.92 122.54 124.14 123.38 Z M 123.43 124.15 L 122.72 124.93 C 121.95 125.78 122.01 127.09 122.85 127.86 C 123.70 128.63 125.01 128.58 125.78 127.73 L 126.49 126.95 C 127.26 126.11 127.20 124.80 126.36 124.02 C 125.51 123.25 124.20 123.31 123.43 124.15 Z M 122.71 124.94 L 122.00 125.72 C 121.23 126.57 121.30 127.88 122.15 128.65 C 122.99 129.42 124.31 129.36 125.08 128.51 L 125.79 127.72 C 126.56 126.87 126.49 125.56 125.65 124.79 C 124.80 124.02 123.48 124.09 122.71 124.94 Z M 122.00 125.72 L 121.34 126.46 C 120.57 127.31 120.64 128.62 121.49 129.39 C 122.34 130.16 123.65 130.09 124.42 129.24 L 125.08 128.50 C 125.85 127.65 125.78 126.34 124.93 125.57 C 124.08 124.80 122.76 124.87 122.00 125.72 Z M 121.33 126.46 L 120.68 127.19 C 119.92 128.05 119.99 129.36 120.84 130.12 C 121.70 130.89 123.01 130.81 123.78 129.96 L 124.43 129.23 C 125.19 128.38 125.12 127.06 124.26 126.30 C 123.41 125.54 122.10 125.61 121.33 126.46 Z M 120.67 127.20 L 120.02 127.93 C 119.26 128.79 119.34 130.10 120.20 130.86 C 121.06 131.63 122.37 131.55 123.13 130.69 L 123.78 129.95 C 124.54 129.10 124.46 127.78 123.61 127.02 C 122.75 126.26 121.44 126.34 120.67 127.20 Z M 120.02 127.94 L 119.36 128.68 C 118.61 129.54 118.69 130.86 119.55 131.61 C 120.41 132.37 121.72 132.29 122.48 131.42 L 123.13 130.68 C 123.89 129.82 123.81 128.51 122.95 127.75 C 122.09 126.99 120.77 127.08 120.02 127.94 Z M 119.36 128.69 L 118.70 129.44 C 117.95 130.30 118.04 131.61 118.91 132.37 C 119.77 133.12 121.08 133.03 121.84 132.17 L 122.49 131.42 C 123.24 130.55 123.15 129.24 122.29 128.49 C 121.42 127.73 120.11 127.82 119.36 128.69 Z M 118.70 129.45 L 118.05 130.20 C 117.30 131.07 117.39 132.38 118.26 133.13 C 119.13 133.88 120.44 133.78 121.19 132.92 L 121.84 132.16 C 122.59 131.29 122.49 129.98 121.63 129.23 C 120.76 128.48 119.45 128.58 118.70 129.45 Z M 118.04 130.21 L 117.39 130.97 C 116.64 131.84 116.75 133.16 117.62 133.90 C 118.49 134.65 119.80 134.54 120.55 133.67 L 121.20 132.91 C 121.94 132.03 121.84 130.72 120.97 129.98 C 120.09 129.23 118.78 129.34 118.04 130.21 Z M 117.38 130.98 L 116.73 131.75 C 115.99 132.63 116.10 133.94 116.98 134.68 C 117.86 135.42 119.17 135.31 119.91 134.43 L 120.55 133.66 C 121.29 132.78 121.18 131.47 120.31 130.73 C 119.43 129.99 118.12 130.10 117.38 130.98 Z M 116.72 131.76 L 116.08 132.53 C 115.34 133.41 115.46 134.72 116.34 135.46 C 117.23 136.19 118.54 136.07 119.27 135.19 L 119.92 134.42 C 120.65 133.54 120.53 132.23 119.65 131.49 C 118.77 130.76 117.46 130.88 116.72 131.76 Z M 116.07 132.54 L 115.43 133.32 C 114.70 134.21 114.83 135.52 115.71 136.25 C 116.60 136.98 117.91 136.85 118.64 135.96 L 119.28 135.18 C 120.01 134.30 119.88 132.99 118.99 132.26 C 118.11 131.53 116.80 131.66 116.07 132.54 Z M 115.42 133.33 L 114.78 134.12 C 114.06 135.01 114.19 136.32 115.09 137.04 C 115.98 137.77 117.29 137.63 118.01 136.74 L 118.65 135.95 C 119.37 135.06 119.23 133.75 118.34 133.03 C 117.45 132.31 116.14 132.44 115.42 133.33 Z M 114.77 134.13 L 114.14 134.92 C 113.42 135.82 113.57 137.13 114.47 137.84 C 115.36 138.56 116.67 138.41 117.39 137.52 L 118.02 136.73 C 118.73 135.83 118.59 134.52 117.69 133.81 C 116.80 133.09 115.49 133.23 114.77 134.13 Z M 114.13 134.94 L 113.50 135.73 C 112.79 136.63 112.95 137.94 113.85 138.65 C 114.75 139.36 116.06 139.20 116.77 138.30 L 117.40 137.51 C 118.11 136.60 117.95 135.30 117.05 134.59 C 116.15 133.88 114.84 134.03 114.13 134.94 Z M 113.49 135.75 L 112.87 136.55 C 112.17 137.45 112.34 138.76 113.24 139.46 C 114.15 140.17 115.46 140.00 116.16 139.09 L 116.78 138.29 C 117.48 137.38 117.32 136.07 116.41 135.37 C 115.50 134.67 114.19 134.84 113.49 135.75 Z M 112.86 136.56 L 112.25 137.36 C 111.56 138.28 111.73 139.58 112.65 140.28 C 113.56 140.97 114.87 140.79 115.56 139.88 L 116.17 139.08 C 116.87 138.16 116.69 136.86 115.77 136.16 C 114.86 135.47 113.56 135.65 112.86 136.56 Z M 112.24 137.38 L 111.64 138.18 C 110.95 139.10 111.14 140.40 112.06 141.09 C 112.98 141.78 114.28 141.59 114.97 140.67 L 115.57 139.87 C 116.26 138.95 116.07 137.64 115.15 136.96 C 114.23 136.27 112.93 136.46 112.24 137.38 Z M 111.63 138.20 L 111.04 139.00 C 110.36 139.93 110.55 141.23 111.48 141.91 C 112.41 142.59 113.71 142.39 114.39 141.47 L 114.98 140.66 C 115.66 139.73 115.46 138.43 114.54 137.75 C 113.61 137.07 112.31 137.27 111.63 138.20 Z M 111.03 139.02 L 110.44 139.83 C 109.77 140.76 109.97 142.06 110.90 142.73 C 111.84 143.41 113.13 143.20 113.81 142.27 L 114.40 141.45 C 115.07 140.52 114.86 139.22 113.93 138.55 C 113.00 137.88 111.70 138.09 111.03 139.02 Z M 110.43 139.84 L 109.85 140.66 C 109.18 141.59 109.40 142.89 110.33 143.56 C 111.27 144.22 112.57 144.01 113.23 143.07 L 113.82 142.25 C 114.48 141.32 114.26 140.02 113.33 139.35 C 112.39 138.69 111.10 138.91 110.43 139.84 Z M 109.84 140.67 L 109.26 141.49 C 108.60 142.43 108.83 143.73 109.77 144.39 C 110.71 145.05 112.01 144.82 112.67 143.88 L 113.24 143.06 C 113.90 142.12 113.68 140.82 112.74 140.16 C 111.80 139.50 110.50 139.73 109.84 140.67 Z M 109.26 141.50 L 108.69 142.32 C 108.03 143.27 108.27 144.56 109.21 145.22 C 110.15 145.87 111.45 145.63 112.10 144.69 L 112.67 143.87 C 113.33 142.93 113.09 141.63 112.15 140.98 C 111.21 140.32 109.91 140.56 109.26 141.50 Z M 108.68 142.33 L 108.11 143.16 C 107.47 144.10 107.71 145.40 108.65 146.05 C 109.60 146.70 110.89 146.45 111.54 145.51 L 112.11 144.68 C 112.76 143.73 112.52 142.44 111.57 141.79 C 110.62 141.14 109.33 141.38 108.68 142.33 Z M 108.11 143.17 L 107.55 143.99 C 106.90 144.94 107.15 146.24 108.10 146.88 C 109.05 147.52 110.35 147.28 110.99 146.33 L 111.55 145.50 C 112.19 144.55 111.95 143.26 111.00 142.61 C 110.04 141.97 108.75 142.22 108.11 143.17 Z M 107.54 144.00 L 106.99 144.83 C 106.35 145.78 106.60 147.08 107.55 147.72 C 108.51 148.36 109.80 148.10 110.44 147.15 L 110.99 146.32 C 111.63 145.36 111.38 144.07 110.43 143.43 C 109.47 142.79 108.18 143.05 107.54 144.00 Z M 106.98 144.84 L 106.43 145.67 C 105.79 146.63 106.05 147.92 107.01 148.55 C 107.96 149.19 109.26 148.93 109.89 147.97 L 110.44 147.14 C 111.08 146.18 110.82 144.89 109.86 144.26 C 108.91 143.62 107.62 143.88 106.98 144.84 Z M 106.42 145.68 L 105.87 146.51 C 105.24 147.47 105.51 148.76 106.47 149.39 C 107.43 150.02 108.71 149.76 109.35 148.80 L 109.89 147.96 C 110.53 147.01 110.26 145.72 109.30 145.09 C 108.34 144.45 107.06 144.72 106.42 145.68 Z M 105.87 146.52 L 105.33 147.35 C 104.70 148.31 104.97 149.60 105.93 150.23 C 106.89 150.85 108.18 150.59 108.80 149.62 L 109.35 148.79 C 109.98 147.83 109.71 146.54 108.75 145.91 C 107.79 145.29 106.50 145.55 105.87 146.52 Z M 105.32 147.35 L 104.78 148.19 C 104.15 149.15 104.43 150.44 105.39 151.06 C 106.35 151.69 107.64 151.42 108.27 150.45 L 108.81 149.62 C 109.43 148.66 109.16 147.37 108.20 146.74 C 107.24 146.12 105.95 146.39 105.32 147.35 Z M 104.78 148.19 L 104.24 149.03 C 103.61 149.99 103.89 151.28 104.85 151.90 C 105.82 152.53 107.10 152.25 107.73 151.29 L 108.27 150.45 C 108.89 149.49 108.62 148.20 107.65 147.58 C 106.69 146.95 105.40 147.23 104.78 148.19 Z M 104.23 149.03 L 103.69 149.88 C 103.07 150.85 103.35 152.13 104.31 152.75 C 105.28 153.38 106.56 153.10 107.18 152.13 L 107.73 151.28 C 108.35 150.32 108.07 149.03 107.11 148.41 C 106.14 147.79 104.86 148.07 104.23 149.03 Z M 103.69 149.89 L 103.14 150.74 C 102.52 151.70 102.81 152.99 103.77 153.61 C 104.74 154.22 106.02 153.94 106.64 152.98 L 107.18 152.13 C 107.80 151.16 107.52 149.88 106.56 149.26 C 105.59 148.64 104.30 148.92 103.69 149.89 Z M 103.14 150.74 L 102.60 151.59 C 101.98 152.56 102.27 153.84 103.24 154.46 C 104.20 155.07 105.49 154.79 106.10 153.82 L 106.64 152.97 C 107.26 152.00 106.97 150.72 106.01 150.10 C 105.04 149.49 103.75 149.77 103.14 150.74 Z M 102.60 151.60 L 102.06 152.45 C 101.45 153.42 101.74 154.70 102.71 155.31 C 103.68 155.92 104.96 155.63 105.57 154.66 L 106.11 153.81 C 106.72 152.84 106.43 151.56 105.46 150.95 C 104.49 150.34 103.21 150.63 102.60 151.60 Z M 102.06 152.45 L 101.52 153.30 C 100.91 154.28 101.21 155.56 102.18 156.17 C 103.15 156.77 104.43 156.48 105.04 155.51 L 105.57 154.66 C 106.18 153.68 105.89 152.40 104.92 151.80 C 103.94 151.19 102.66 151.48 102.06 152.45 Z M 101.52 153.31 L 100.99 154.16 C 100.39 155.14 100.69 156.42 101.66 157.02 C 102.63 157.62 103.91 157.32 104.52 156.35 L 105.05 155.50 C 105.65 154.53 105.35 153.25 104.38 152.64 C 103.40 152.04 102.12 152.34 101.52 153.31 Z M 100.99 154.17 L 100.46 155.03 C 99.86 156.00 100.17 157.28 101.15 157.88 C 102.12 158.48 103.40 158.17 104.00 157.20 L 104.52 156.34 C 105.12 155.37 104.82 154.09 103.84 153.49 C 102.86 152.89 101.59 153.20 100.99 154.17 Z M 100.46 155.03 L 99.94 155.89 C 99.35 156.87 99.66 158.14 100.64 158.74 C 101.61 159.33 102.89 159.02 103.48 158.04 L 104.00 157.19 C 104.60 156.21 104.29 154.93 103.31 154.34 C 102.33 153.74 101.05 154.06 100.46 155.03 Z M 99.93 155.90 L 99.42 156.75 C 98.83 157.74 99.15 159.01 100.13 159.60 C 101.11 160.19 102.39 159.87 102.98 158.89 L 103.49 158.03 C 104.08 157.05 103.76 155.78 102.78 155.19 C 101.80 154.60 100.52 154.92 99.93 155.90 Z M 99.42 156.76 L 98.91 157.62 C 98.33 158.61 98.65 159.88 99.64 160.46 C 100.62 161.04 101.89 160.72 102.47 159.73 L 102.98 158.88 C 103.56 157.89 103.24 156.62 102.25 156.04 C 101.27 155.45 100.00 155.78 99.42 156.76 Z M 98.90 157.63 L 98.40 158.49 C 97.82 159.48 98.16 160.75 99.15 161.32 C 100.13 161.90 101.40 161.57 101.98 160.58 L 102.48 159.72 C 103.06 158.73 102.72 157.46 101.74 156.89 C 100.75 156.31 99.48 156.65 98.90 157.63 Z M 98.40 158.50 L 97.90 159.37 C 97.33 160.36 97.67 161.62 98.66 162.19 C 99.66 162.76 100.92 162.42 101.49 161.43 L 101.99 160.57 C 102.56 159.58 102.21 158.31 101.22 157.74 C 100.23 157.17 98.97 157.51 98.40 158.50 Z M 97.89 159.38 L 97.41 160.24 C 96.84 161.24 97.19 162.50 98.19 163.06 C 99.18 163.62 100.45 163.27 101.01 162.28 L 101.50 161.42 C 102.06 160.42 101.71 159.16 100.71 158.59 C 99.72 158.03 98.46 158.38 97.89 159.38 Z M 97.40 160.25 L 96.92 161.12 C 96.36 162.12 96.72 163.38 97.72 163.94 C 98.72 164.49 99.98 164.13 100.53 163.13 L 101.02 162.26 C 101.57 161.27 101.21 160.01 100.21 159.45 C 99.21 158.90 97.95 159.26 97.40 160.25 Z M 96.91 161.14 L 96.41 162.06 C 95.86 163.07 96.23 164.32 97.23 164.87 C 98.23 165.41 99.49 165.05 100.04 164.04 L 100.54 163.12 C 101.09 162.11 100.72 160.86 99.72 160.31 C 98.71 159.77 97.46 160.13 96.91 161.14 Z M 96.40 162.08 L 95.90 163.00 C 95.37 164.01 95.75 165.26 96.75 165.80 C 97.76 166.34 99.01 165.96 99.55 164.95 L 100.04 164.03 C 100.58 163.02 100.20 161.77 99.20 161.23 C 98.19 160.69 96.94 161.07 96.40 162.08 Z M 95.90 163.02 L 95.41 163.94 C 94.88 164.95 95.27 166.20 96.28 166.73 C 97.29 167.26 98.54 166.87 99.07 165.86 L 99.56 164.94 C 100.09 163.93 99.70 162.68 98.69 162.15 C 97.68 161.62 96.43 162.01 95.90 163.02 Z M 95.40 163.96 L 94.93 164.88 C 94.41 165.89 94.81 167.14 95.82 167.66 C 96.83 168.19 98.08 167.79 98.60 166.77 L 99.08 165.85 C 99.60 164.83 99.20 163.59 98.19 163.07 C 97.17 162.54 95.93 162.94 95.40 163.96 Z M 94.92 164.89 L 94.46 165.81 C 93.94 166.83 94.35 168.07 95.37 168.59 C 96.39 169.10 97.63 168.70 98.14 167.68 L 98.61 166.76 C 99.12 165.74 98.72 164.50 97.70 163.98 C 96.68 163.47 95.44 163.88 94.92 164.89 Z M 94.45 165.83 L 94.00 166.74 C 93.49 167.77 93.91 169.00 94.93 169.51 C 95.95 170.02 97.19 169.60 97.69 168.58 L 98.15 167.66 C 98.66 166.64 98.24 165.41 97.22 164.90 C 96.20 164.39 94.96 164.81 94.45 165.83 Z M 93.99 166.76 L 93.55 167.67 C 93.05 168.69 93.47 169.93 94.50 170.43 C 95.52 170.93 96.76 170.50 97.26 169.48 L 97.70 168.57 C 98.20 167.54 97.77 166.31 96.75 165.81 C 95.73 165.31 94.49 165.73 93.99 166.76 Z M 93.54 167.68 L 93.11 168.58 C 92.62 169.61 93.05 170.84 94.08 171.33 C 95.11 171.83 96.34 171.39 96.83 170.36 L 97.26 169.46 C 97.75 168.44 97.32 167.20 96.29 166.71 C 95.27 166.22 94.03 166.65 93.54 167.68 Z M 93.10 168.60 L 92.68 169.49 C 92.20 170.52 92.64 171.75 93.67 172.23 C 94.70 172.72 95.93 172.27 96.41 171.24 L 96.83 170.35 C 97.32 169.32 96.88 168.09 95.85 167.61 C 94.82 167.12 93.59 167.57 93.10 168.60 Z M 92.68 169.50 L 92.27 170.38 C 91.79 171.42 92.24 172.64 93.28 173.12 C 94.31 173.60 95.53 173.15 96.01 172.11 L 96.42 171.23 C 96.90 170.20 96.45 168.97 95.41 168.50 C 94.38 168.02 93.16 168.47 92.68 169.50 Z M 92.27 170.40 L 91.87 171.27 C 91.40 172.30 91.86 173.52 92.90 173.99 C 93.93 174.46 95.15 174.00 95.62 172.97 L 96.02 172.10 C 96.49 171.06 96.03 169.84 94.99 169.37 C 93.96 168.90 92.74 169.36 92.27 170.40 Z M 91.87 171.28 L 91.49 172.13 C 91.02 173.17 91.49 174.39 92.53 174.85 C 93.57 175.32 94.78 174.85 95.25 173.81 L 95.63 172.96 C 96.09 171.92 95.62 170.70 94.59 170.24 C 93.55 169.77 92.33 170.24 91.87 171.28 Z M 91.48 172.15 L 91.11 172.99 C 90.66 174.03 91.13 175.24 92.17 175.70 C 93.21 176.15 94.43 175.68 94.88 174.64 L 95.25 173.80 C 95.71 172.76 95.23 171.54 94.19 171.09 C 93.15 170.63 91.94 171.11 91.48 172.15 Z M 91.11 173.00 L 90.68 174.00 C 90.23 175.04 90.72 176.25 91.76 176.70 C 92.81 177.14 94.01 176.66 94.46 175.62 L 94.89 174.62 C 95.34 173.58 94.85 172.37 93.81 171.92 C 92.76 171.48 91.55 171.96 91.11 173.00 Z M 90.68 174.01 L 90.25 175.03 C 89.81 176.08 90.31 177.28 91.35 177.72 C 92.40 178.16 93.61 177.66 94.04 176.62 L 94.47 175.60 C 94.91 174.55 94.41 173.35 93.36 172.91 C 92.32 172.47 91.11 172.97 90.68 174.01 Z M 90.24 175.05 L 89.84 176.04 C 89.41 177.09 89.92 178.29 90.97 178.72 C 92.02 179.15 93.22 178.64 93.65 177.59 L 94.05 176.60 C 94.48 175.54 93.97 174.35 92.92 173.92 C 91.87 173.49 90.67 174.00 90.24 175.05 Z M 89.83 176.07 L 89.45 177.04 C 89.04 178.09 89.56 179.28 90.61 179.70 C 91.67 180.11 92.86 179.59 93.27 178.54 L 93.65 177.57 C 94.07 176.51 93.55 175.32 92.49 174.91 C 91.44 174.49 90.25 175.01 89.83 176.07 Z M 89.45 177.06 L 89.09 178.01 C 88.68 179.07 89.22 180.25 90.28 180.65 C 91.33 181.05 92.52 180.52 92.92 179.46 L 93.28 178.51 C 93.68 177.45 93.15 176.27 92.09 175.87 C 91.03 175.47 89.85 176.00 89.45 177.06 Z M 89.08 178.03 L 88.74 178.96 C 88.35 180.03 88.90 181.20 89.96 181.59 C 91.02 181.98 92.20 181.43 92.59 180.37 L 92.93 179.44 C 93.32 178.37 92.77 177.20 91.71 176.81 C 90.64 176.42 89.47 176.97 89.08 178.03 Z M 88.73 178.99 L 88.41 179.90 C 88.04 180.97 88.60 182.14 89.67 182.51 C 90.74 182.88 91.90 182.32 92.28 181.25 L 92.60 180.34 C 92.97 179.27 92.41 178.11 91.34 177.73 C 90.27 177.36 89.10 177.92 88.73 178.99 Z M 88.40 179.93 L 88.10 180.83 C 87.75 181.90 88.33 183.06 89.40 183.42 C 90.47 183.77 91.63 183.20 91.99 182.12 L 92.29 181.23 C 92.64 180.15 92.06 178.99 90.99 178.64 C 89.92 178.28 88.76 178.86 88.40 179.93 Z M 88.10 180.86 L 87.82 181.74 C 87.47 182.82 88.07 183.97 89.15 184.31 C 90.22 184.65 91.37 184.05 91.71 182.98 L 91.99 182.09 C 92.34 181.02 91.74 179.87 90.66 179.53 C 89.59 179.19 88.44 179.78 88.10 180.86 Z M 87.81 181.77 L 87.55 182.64 C 87.22 183.73 87.84 184.86 88.92 185.19 C 90.00 185.51 91.14 184.90 91.46 183.82 L 91.72 182.95 C 92.05 181.86 91.43 180.73 90.35 180.40 C 89.27 180.08 88.13 180.69 87.81 181.77 Z M 87.54 182.68 L 87.28 183.59 C 86.98 184.67 87.61 185.80 88.70 186.10 C 89.78 186.41 90.91 185.78 91.22 184.69 L 91.47 183.78 C 91.78 182.70 91.14 181.57 90.06 181.27 C 88.97 180.96 87.84 181.59 87.54 182.68 Z M 87.28 183.62 L 87.01 184.63 C 86.73 185.72 87.38 186.84 88.47 187.12 C 89.56 187.40 90.68 186.75 90.96 185.66 L 91.22 184.65 C 91.51 183.56 90.85 182.45 89.76 182.17 C 88.67 181.88 87.56 182.53 87.28 183.62 Z M 87.01 184.67 L 86.77 185.67 C 86.50 186.76 87.18 187.86 88.27 188.12 C 89.36 188.39 90.46 187.71 90.73 186.62 L 90.97 185.62 C 91.23 184.53 90.56 183.43 89.46 183.17 C 88.37 182.90 87.27 183.58 87.01 184.67 Z M 86.76 185.70 L 86.54 186.69 C 86.30 187.79 86.99 188.87 88.09 189.12 C 89.18 189.36 90.27 188.67 90.51 187.57 L 90.73 186.59 C 90.98 185.49 90.28 184.40 89.19 184.16 C 88.09 183.91 87.00 184.60 86.76 185.70 Z M 86.54 186.72 L 86.34 187.70 C 86.11 188.80 86.82 189.87 87.92 190.10 C 89.02 190.33 90.09 189.62 90.32 188.52 L 90.52 187.54 C 90.74 186.44 90.03 185.37 88.94 185.14 C 87.84 184.91 86.76 185.62 86.54 186.72 Z M 86.33 187.73 L 86.15 188.70 C 85.94 189.80 86.66 190.87 87.76 191.08 C 88.86 191.28 89.92 190.56 90.13 189.46 L 90.32 188.49 C 90.53 187.39 89.81 186.33 88.70 186.12 C 87.60 185.91 86.54 186.63 86.33 187.73 Z M 86.15 188.73 L 85.97 189.70 C 85.78 190.80 86.52 191.85 87.62 192.04 C 88.72 192.24 89.77 191.50 89.97 190.40 L 90.14 189.43 C 90.33 188.33 89.60 187.28 88.49 187.09 C 87.39 186.89 86.34 187.63 86.15 188.73 Z M 85.97 189.72 L 85.81 190.68 C 85.63 191.79 86.38 192.83 87.48 193.01 C 88.58 193.19 89.63 192.45 89.81 191.34 L 89.97 190.38 C 90.15 189.28 89.40 188.23 88.30 188.05 C 87.20 187.87 86.16 188.62 85.97 189.72 Z M 85.81 190.70 L 85.66 191.66 C 85.49 192.77 86.25 193.80 87.35 193.97 C 88.45 194.14 89.49 193.39 89.66 192.28 L 89.81 191.32 C 89.98 190.22 89.22 189.19 88.12 189.02 C 87.02 188.85 85.99 189.60 85.81 190.70 Z M 85.66 191.68 L 85.52 192.67 C 85.36 193.77 86.12 194.80 87.22 194.96 C 88.32 195.12 89.35 194.36 89.51 193.26 L 89.66 192.27 C 89.82 191.17 89.06 190.14 87.96 189.98 C 86.85 189.82 85.83 190.58 85.66 191.68 Z M 85.52 192.68 L 85.38 193.71 C 85.22 194.81 85.99 195.83 87.09 195.98 C 88.20 196.14 89.21 195.37 89.37 194.27 L 89.51 193.24 C 89.67 192.14 88.90 191.12 87.80 190.97 C 86.69 190.81 85.67 191.58 85.52 192.68 Z M 85.38 193.72 L 85.24 194.74 C 85.10 195.84 85.87 196.85 86.97 197.00 C 88.08 197.15 89.09 196.37 89.23 195.27 L 89.37 194.25 C 89.51 193.15 88.74 192.14 87.64 191.99 C 86.53 191.85 85.52 192.62 85.38 193.72 Z M 85.24 194.76 L 85.12 195.77 C 84.98 196.87 85.76 197.88 86.87 198.01 C 87.97 198.15 88.97 197.37 89.11 196.26 L 89.23 195.25 C 89.37 194.15 88.59 193.15 87.48 193.01 C 86.38 192.87 85.38 193.66 85.24 194.76 Z M 85.12 195.79 L 85.00 196.79 C 84.88 197.89 85.67 198.89 86.77 199.01 C 87.87 199.14 88.87 198.35 88.99 197.25 L 89.11 196.25 C 89.23 195.14 88.44 194.15 87.34 194.02 C 86.24 193.90 85.24 194.69 85.12 195.79 Z M 85.00 196.81 L 84.90 197.80 C 84.78 198.90 85.58 199.89 86.68 200.01 C 87.79 200.12 88.77 199.32 88.89 198.22 L 88.99 197.23 C 89.11 196.13 88.31 195.14 87.21 195.03 C 86.11 194.91 85.12 195.71 85.00 196.81 Z M 84.90 197.82 L 84.81 198.80 C 84.71 199.90 85.51 200.88 86.61 200.98 C 87.72 201.09 88.69 200.28 88.80 199.18 L 88.89 198.20 C 88.99 197.10 88.18 196.12 87.08 196.02 C 85.98 195.92 85.00 196.72 84.90 197.82 Z M 84.81 198.83 L 84.73 199.79 C 84.64 200.89 85.46 201.85 86.56 201.94 C 87.66 202.03 88.62 201.21 88.72 200.11 L 88.79 199.15 C 88.88 198.05 88.07 197.09 86.97 197.00 C 85.87 196.91 84.90 197.72 84.81 198.83 Z M 84.73 199.81 L 84.66 200.77 C 84.59 201.87 85.42 202.83 86.52 202.90 C 87.62 202.98 88.57 202.15 88.65 201.05 L 88.71 200.09 C 88.79 198.99 87.96 198.03 86.86 197.96 C 85.76 197.88 84.81 198.71 84.73 199.81 Z M 84.67 200.80 L 84.61 201.87 C 84.55 202.97 85.39 203.91 86.49 203.96 C 87.59 204.02 88.53 203.18 88.59 202.08 L 88.65 201.02 C 88.71 199.92 87.86 198.98 86.76 198.92 C 85.67 198.86 84.73 199.70 84.67 200.80 Z M 84.61 201.90 L 84.57 202.93 C 84.53 204.03 85.38 204.96 86.48 205.00 C 87.58 205.04 88.50 204.19 88.55 203.09 L 88.59 202.05 C 88.63 200.96 87.78 200.03 86.68 199.99 C 85.58 199.94 84.65 200.80 84.61 201.90 Z M 84.57 202.96 L 84.54 203.97 C 84.51 205.07 85.38 205.98 86.47 206.01 C 87.57 206.04 88.48 205.18 88.51 204.08 L 88.54 203.07 C 88.57 201.97 87.71 201.06 86.61 201.03 C 85.52 201.00 84.60 201.86 84.57 202.96 Z M 84.55 203.99 L 84.53 204.98 C 84.51 206.08 85.38 206.98 86.48 207.00 C 87.57 207.02 88.48 206.15 88.49 205.05 L 88.51 204.06 C 88.53 202.96 87.66 202.06 86.56 202.04 C 85.47 202.02 84.57 202.90 84.55 203.99 Z M 84.53 205.00 L 84.53 205.97 C 84.52 207.07 85.39 207.96 86.49 207.97 C 87.58 207.98 88.47 207.10 88.48 206.01 L 88.49 205.03 C 88.50 203.94 87.62 203.05 86.53 203.04 C 85.44 203.03 84.54 203.91 84.53 205.00 Z M 84.53 205.98 L 84.53 206.94 C 84.52 208.03 85.40 208.92 86.49 208.93 C 87.58 208.93 88.47 208.05 88.48 206.96 L 88.48 206.00 C 88.48 204.91 87.60 204.02 86.51 204.02 C 85.42 204.01 84.53 204.89 84.53 205.98 Z M 84.53 206.95 L 84.53 207.90 C 84.53 208.99 85.41 209.87 86.50 209.87 C 87.59 209.87 88.47 208.99 88.47 207.90 L 88.47 206.95 C 88.47 205.86 87.59 204.98 86.50 204.98 C 85.41 204.98 84.53 205.86 84.53 206.95 Z M 84.53 207.90 L 84.53 208.90 C 84.54 209.99 85.42 210.87 86.50 210.87 C 87.59 210.87 88.47 209.99 88.47 208.90 L 88.47 207.90 C 88.47 206.81 87.58 205.93 86.50 205.93 C 85.41 205.93 84.53 206.81 84.53 207.90 Z M 84.54 208.91 L 84.55 209.91 C 84.55 210.99 85.44 211.87 86.52 211.86 C 87.60 211.85 88.47 210.97 88.47 209.89 L 88.46 208.89 C 88.45 207.81 87.57 206.94 86.49 206.94 C 85.41 206.95 84.54 207.83 84.54 208.91 Z M 84.55 209.93 L 84.57 210.93 C 84.59 212.00 85.47 212.86 86.55 212.85 C 87.63 212.83 88.49 211.94 88.47 210.86 L 88.46 209.87 C 88.44 208.79 87.55 207.93 86.48 207.95 C 85.40 207.97 84.54 208.85 84.55 209.93 Z M 84.58 210.95 L 84.61 211.95 C 84.64 213.02 85.54 213.87 86.61 213.83 C 87.69 213.80 88.53 212.90 88.50 211.83 L 88.47 210.83 C 88.43 209.76 87.54 208.92 86.46 208.95 C 85.39 208.98 84.54 209.88 84.58 210.95 Z M 84.62 211.99 L 84.67 212.98 C 84.72 214.05 85.63 214.87 86.70 214.82 C 87.77 214.76 88.60 213.85 88.54 212.78 L 88.49 211.79 C 88.44 210.72 87.52 209.90 86.45 209.95 C 85.38 210.00 84.56 210.92 84.62 211.99 Z M 84.68 213.03 L 84.75 214.03 C 84.83 215.09 85.76 215.89 86.83 215.81 C 87.89 215.73 88.69 214.80 88.61 213.74 L 88.53 212.74 C 88.45 211.67 87.52 210.87 86.46 210.95 C 85.39 211.04 84.60 211.96 84.68 213.03 Z M 84.76 214.08 L 84.87 215.08 C 84.98 216.14 85.93 216.91 86.99 216.80 C 88.04 216.69 88.81 215.74 88.70 214.68 L 88.60 213.68 C 88.48 212.62 87.54 211.86 86.48 211.97 C 85.42 212.08 84.65 213.03 84.76 214.08 Z M 84.88 215.14 L 85.02 216.13 C 85.16 217.18 86.13 217.92 87.18 217.77 C 88.23 217.63 88.97 216.66 88.82 215.61 L 88.69 214.62 C 88.54 213.57 87.58 212.84 86.52 212.98 C 85.47 213.12 84.74 214.09 84.88 215.14 Z M 85.03 216.19 L 85.20 217.18 C 85.38 218.23 86.37 218.93 87.41 218.75 C 88.45 218.57 89.16 217.58 88.98 216.54 L 88.81 215.55 C 88.63 214.51 87.64 213.80 86.60 213.98 C 85.55 214.16 84.85 215.15 85.03 216.19 Z M 85.22 217.25 L 85.42 218.24 C 85.64 219.27 86.65 219.93 87.68 219.72 C 88.71 219.51 89.38 218.50 89.16 217.46 L 88.96 216.47 C 88.75 215.44 87.74 214.78 86.70 214.99 C 85.67 215.20 85.00 216.22 85.22 217.25 Z M 85.44 218.31 L 85.68 219.28 C 85.94 220.31 86.97 220.93 87.99 220.68 C 89.01 220.43 89.64 219.39 89.39 218.37 L 89.14 217.39 C 88.89 216.37 87.86 215.75 86.84 216.00 C 85.81 216.25 85.19 217.28 85.44 218.31 Z M 85.71 219.36 L 85.99 220.32 C 86.28 221.33 87.34 221.91 88.34 221.61 C 89.35 221.32 89.93 220.27 89.64 219.26 L 89.36 218.30 C 89.07 217.29 88.01 216.71 87.00 217.00 C 85.99 217.29 85.41 218.35 85.71 219.36 Z M 86.02 220.40 L 86.34 221.34 C 86.67 222.33 87.75 222.86 88.74 222.52 C 89.74 222.19 90.27 221.11 89.93 220.12 L 89.61 219.18 C 89.27 218.19 88.20 217.65 87.20 217.99 C 86.21 218.33 85.68 219.41 86.02 220.40 Z M 86.37 221.43 L 86.74 222.36 C 87.13 223.33 88.23 223.80 89.20 223.42 C 90.17 223.03 90.65 221.93 90.26 220.96 L 89.89 220.03 C 89.51 219.06 88.41 218.58 87.44 218.97 C 86.46 219.35 85.99 220.45 86.37 221.43 Z M 86.78 222.44 L 87.20 223.37 C 87.64 224.32 88.76 224.74 89.71 224.30 C 90.66 223.87 91.08 222.74 90.64 221.79 L 90.22 220.87 C 89.79 219.92 88.66 219.50 87.72 219.94 C 86.77 220.37 86.35 221.50 86.78 222.44 Z M 87.25 223.45 L 87.71 224.34 C 88.19 225.27 89.33 225.63 90.25 225.15 C 91.18 224.67 91.54 223.53 91.07 222.61 L 90.60 221.71 C 90.12 220.79 88.98 220.42 88.06 220.90 C 87.13 221.38 86.77 222.52 87.25 223.45 Z M 87.75 224.41 L 88.24 225.28 C 88.76 226.18 89.91 226.50 90.82 225.98 C 91.72 225.46 92.04 224.31 91.52 223.41 L 91.03 222.54 C 90.51 221.63 89.36 221.32 88.45 221.83 C 87.54 222.35 87.23 223.51 87.75 224.41 Z M 88.28 225.34 L 88.80 226.18 C 89.35 227.07 90.51 227.34 91.40 226.79 C 92.29 226.24 92.56 225.08 92.01 224.19 L 91.49 223.35 C 90.94 222.46 89.77 222.19 88.89 222.74 C 88.00 223.29 87.73 224.45 88.28 225.34 Z M 88.83 226.23 L 89.38 227.05 C 89.95 227.92 91.12 228.16 91.99 227.58 C 92.86 227.01 93.10 225.84 92.52 224.97 L 91.98 224.14 C 91.40 223.28 90.23 223.04 89.36 223.61 C 88.49 224.19 88.26 225.36 88.83 226.23 Z M 89.40 227.09 L 89.97 227.90 C 90.56 228.75 91.74 228.96 92.59 228.37 C 93.45 227.77 93.66 226.60 93.06 225.74 L 92.50 224.93 C 91.90 224.08 90.73 223.87 89.87 224.46 C 89.02 225.06 88.81 226.24 89.40 227.09 Z M 89.99 227.93 L 90.56 228.72 C 91.17 229.56 92.35 229.75 93.19 229.14 C 94.04 228.53 94.22 227.35 93.61 226.50 L 93.04 225.71 C 92.43 224.87 91.25 224.68 90.41 225.29 C 89.57 225.91 89.38 227.08 89.99 227.93 Z M 90.58 228.75 L 91.17 229.52 C 91.80 230.36 92.98 230.52 93.81 229.89 C 94.64 229.26 94.81 228.08 94.18 227.25 L 93.59 226.47 C 92.96 225.64 91.78 225.48 90.95 226.11 C 90.12 226.74 89.95 227.92 90.58 228.75 Z M 91.20 229.57 L 91.81 230.33 C 92.47 231.14 93.65 231.27 94.47 230.62 C 95.28 229.97 95.41 228.78 94.76 227.97 L 94.15 227.21 C 93.50 226.39 92.31 226.26 91.50 226.91 C 90.68 227.56 90.55 228.75 91.20 229.57 Z M 91.85 230.38 L 92.50 231.13 C 93.17 231.92 94.36 232.02 95.16 231.34 C 95.95 230.66 96.04 229.47 95.37 228.68 L 94.72 227.92 C 94.05 227.13 92.85 227.04 92.06 227.71 C 91.27 228.39 91.17 229.58 91.85 230.38 Z M 92.54 231.18 L 93.22 231.92 C 93.93 232.69 95.12 232.74 95.89 232.04 C 96.66 231.33 96.71 230.14 96.00 229.37 L 95.32 228.63 C 94.62 227.86 93.42 227.81 92.65 228.51 C 91.88 229.22 91.83 230.41 92.54 231.18 Z M 93.27 231.98 L 94.00 232.71 C 94.73 233.45 95.93 233.45 96.67 232.72 C 97.41 231.98 97.42 230.78 96.68 230.04 L 95.95 229.31 C 95.22 228.57 94.02 228.57 93.28 229.31 C 92.54 230.04 92.54 231.24 93.27 231.98 Z M 94.05 232.76 L 94.81 233.46 C 95.58 234.17 96.77 234.13 97.48 233.36 C 98.19 232.59 98.15 231.40 97.38 230.69 L 96.62 229.99 C 95.86 229.28 94.66 229.32 93.95 230.09 C 93.24 230.86 93.29 232.05 94.05 232.76 Z M 94.86 233.51 L 95.60 234.14 C 96.39 234.82 97.59 234.73 98.27 233.93 C 98.94 233.14 98.85 231.94 98.06 231.26 L 97.32 230.64 C 96.53 229.96 95.33 230.05 94.66 230.84 C 93.98 231.64 94.07 232.83 94.86 233.51 Z M 95.64 234.18 L 96.41 234.80 C 97.23 235.45 98.42 235.32 99.08 234.50 C 99.73 233.68 99.60 232.49 98.78 231.84 L 98.01 231.22 C 97.19 230.57 96.00 230.70 95.35 231.52 C 94.69 232.34 94.83 233.53 95.64 234.18 Z M 96.46 234.84 L 97.26 235.44 C 98.10 236.07 99.29 235.90 99.92 235.06 C 100.54 234.22 100.38 233.03 99.54 232.40 L 98.74 231.80 C 97.90 231.17 96.71 231.34 96.08 232.18 C 95.45 233.02 95.62 234.21 96.46 234.84 Z M 97.30 235.47 L 98.13 236.05 C 98.99 236.66 100.17 236.46 100.78 235.60 C 101.38 234.74 101.18 233.56 100.32 232.95 L 99.49 232.37 C 98.64 231.76 97.45 231.97 96.85 232.82 C 96.24 233.68 96.45 234.86 97.30 235.47 Z M 98.17 236.08 L 99.02 236.65 C 99.89 237.23 101.07 237.00 101.65 236.12 C 102.24 235.25 102.00 234.07 101.13 233.49 L 100.28 232.92 C 99.41 232.34 98.23 232.57 97.65 233.45 C 97.06 234.32 97.30 235.50 98.17 236.08 Z M 99.05 236.68 L 99.91 237.22 C 100.80 237.78 101.98 237.52 102.54 236.63 C 103.10 235.74 102.84 234.57 101.95 234.00 L 101.09 233.46 C 100.20 232.90 99.03 233.16 98.46 234.05 C 97.90 234.94 98.17 236.11 99.05 236.68 Z M 99.95 237.25 L 100.82 237.77 C 101.72 238.31 102.89 238.01 103.43 237.11 C 103.97 236.21 103.68 235.04 102.78 234.50 L 101.91 233.98 C 101.01 233.44 99.84 233.73 99.30 234.63 C 98.76 235.53 99.05 236.70 99.95 237.25 Z M 100.86 237.79 L 101.73 238.29 C 102.65 238.81 103.81 238.49 104.33 237.57 C 104.85 236.66 104.53 235.49 103.62 234.97 L 102.74 234.47 C 101.82 233.95 100.66 234.27 100.14 235.19 C 99.62 236.11 99.94 237.27 100.86 237.79 Z M 101.77 238.32 L 102.65 238.79 C 103.58 239.29 104.74 238.93 105.24 238.00 C 105.74 237.07 105.39 235.92 104.46 235.42 L 103.58 234.95 C 102.65 234.45 101.49 234.80 100.99 235.73 C 100.49 236.66 100.84 237.82 101.77 238.32 Z M 102.70 238.81 L 103.59 239.26 C 104.53 239.73 105.68 239.35 106.15 238.40 C 106.63 237.46 106.25 236.31 105.30 235.84 L 104.41 235.39 C 103.47 234.92 102.32 235.30 101.84 236.25 C 101.37 237.19 101.75 238.34 102.70 238.81 Z M 103.64 239.29 L 104.53 239.70 C 105.49 240.15 106.63 239.73 107.08 238.77 C 107.53 237.81 107.11 236.67 106.15 236.23 L 105.25 235.81 C 104.29 235.36 103.15 235.78 102.70 236.74 C 102.26 237.70 102.67 238.84 103.64 239.29 Z M 104.59 239.73 L 105.50 240.12 C 106.47 240.54 107.60 240.09 108.02 239.11 C 108.44 238.13 107.98 237.00 107.01 236.59 L 106.10 236.20 C 105.12 235.78 103.99 236.23 103.57 237.21 C 103.16 238.18 103.61 239.31 104.59 239.73 Z M 105.55 240.15 L 106.48 240.51 C 107.47 240.90 108.59 240.41 108.98 239.42 C 109.36 238.43 108.87 237.31 107.88 236.92 L 106.95 236.56 C 105.96 236.17 104.85 236.66 104.46 237.65 C 104.07 238.65 104.56 239.76 105.55 240.15 Z M 106.54 240.54 L 107.49 240.87 C 108.50 241.22 109.60 240.70 109.95 239.69 C 110.31 238.69 109.78 237.59 108.77 237.23 L 107.82 236.90 C 106.82 236.54 105.72 237.07 105.36 238.08 C 105.01 239.08 105.54 240.18 106.54 240.54 Z M 107.55 240.89 L 108.49 241.19 C 109.51 241.51 110.60 240.95 110.92 239.93 C 111.24 238.91 110.67 237.83 109.66 237.51 L 108.72 237.21 C 107.70 236.89 106.61 237.45 106.29 238.47 C 105.97 239.49 106.53 240.57 107.55 240.89 Z M 108.55 241.21 L 109.45 241.47 C 110.48 241.76 111.55 241.16 111.84 240.13 C 112.14 239.10 111.54 238.03 110.51 237.74 L 109.60 237.49 C 108.57 237.19 107.50 237.79 107.21 238.82 C 106.92 239.85 107.52 240.92 108.55 241.21 Z M 109.50 241.49 L 110.43 241.72 C 111.47 241.99 112.53 241.36 112.79 240.32 C 113.06 239.28 112.43 238.23 111.39 237.96 L 110.46 237.72 C 109.42 237.46 108.36 238.09 108.10 239.13 C 107.83 240.17 108.46 241.22 109.50 241.49 Z M 110.47 241.74 L 111.42 241.96 C 112.47 242.20 113.52 241.54 113.76 240.50 C 114.00 239.45 113.34 238.40 112.30 238.16 L 111.34 237.94 C 110.30 237.70 109.25 238.36 109.01 239.41 C 108.77 240.45 109.43 241.50 110.47 241.74 Z M 111.46 241.97 L 112.44 242.17 C 113.49 242.39 114.52 241.71 114.74 240.66 C 114.96 239.60 114.28 238.57 113.23 238.35 L 112.26 238.15 C 111.20 237.93 110.17 238.61 109.95 239.66 C 109.73 240.72 110.41 241.75 111.46 241.97 Z M 112.47 242.18 L 113.46 242.37 C 114.53 242.57 115.55 241.87 115.75 240.81 C 115.95 239.75 115.25 238.73 114.19 238.53 L 113.19 238.34 C 112.13 238.14 111.11 238.84 110.91 239.90 C 110.71 240.96 111.41 241.98 112.47 242.18 Z M 113.49 242.38 L 114.51 242.56 C 115.58 242.74 116.59 242.02 116.78 240.96 C 116.96 239.89 116.24 238.88 115.18 238.69 L 114.16 238.52 C 113.09 238.33 112.08 239.05 111.89 240.12 C 111.71 241.18 112.43 242.20 113.49 242.38 Z M 114.54 242.57 L 115.58 242.73 C 116.65 242.90 117.66 242.17 117.83 241.10 C 118.00 240.02 117.26 239.02 116.19 238.85 L 115.15 238.68 C 114.08 238.51 113.07 239.25 112.90 240.32 C 112.73 241.39 113.47 242.40 114.54 242.57 Z M 115.60 242.74 L 116.64 242.89 C 117.72 243.05 118.72 242.30 118.87 241.23 C 119.03 240.15 118.29 239.15 117.21 238.99 L 116.17 238.84 C 115.09 238.68 114.09 239.43 113.94 240.50 C 113.78 241.58 114.52 242.58 115.60 242.74 Z M 116.66 242.90 L 117.62 243.03 C 118.70 243.18 119.69 242.42 119.84 241.34 C 119.99 240.26 119.23 239.27 118.15 239.12 L 117.19 238.99 C 116.11 238.84 115.12 239.59 114.97 240.67 C 114.82 241.75 115.58 242.75 116.66 242.90 Z M 117.64 243.03 L 118.61 243.16 C 119.69 243.30 120.68 242.53 120.82 241.45 C 120.96 240.37 120.20 239.38 119.11 239.24 L 118.14 239.11 C 117.05 238.97 116.06 239.74 115.93 240.82 C 115.79 241.91 116.55 242.90 117.64 243.03 Z M 118.63 243.16 L 119.62 243.28 C 120.70 243.41 121.69 242.63 121.81 241.55 C 121.94 240.46 121.17 239.48 120.08 239.35 L 119.10 239.23 C 118.01 239.10 117.03 239.88 116.90 240.96 C 116.77 242.05 117.54 243.03 118.63 243.16 Z M 119.63 243.29 L 120.63 243.40 C 121.72 243.51 122.70 242.73 122.82 241.64 C 122.94 240.55 122.15 239.57 121.06 239.45 L 120.07 239.35 C 118.98 239.23 118.00 240.01 117.88 241.10 C 117.76 242.19 118.54 243.17 119.63 243.29 Z M 120.65 243.40 L 121.65 243.50 C 122.74 243.61 123.72 242.82 123.83 241.72 C 123.94 240.63 123.14 239.66 122.05 239.55 L 121.05 239.45 C 119.95 239.34 118.98 240.14 118.87 241.23 C 118.76 242.32 119.56 243.29 120.65 243.40 Z M 121.67 243.51 L 122.68 243.60 C 123.77 243.70 124.74 242.89 124.84 241.80 C 124.94 240.70 124.13 239.74 123.04 239.64 L 122.03 239.55 C 120.94 239.45 119.97 240.25 119.87 241.35 C 119.77 242.44 120.58 243.41 121.67 243.51 Z M 122.70 243.60 L 123.71 243.68 C 124.80 243.77 125.76 242.96 125.85 241.86 C 125.94 240.76 125.13 239.80 124.03 239.72 L 123.02 239.63 C 121.92 239.54 120.96 240.36 120.88 241.46 C 120.79 242.55 121.60 243.51 122.70 243.60 Z M 123.73 243.69 L 124.74 243.76 C 125.84 243.84 126.79 243.01 126.87 241.91 C 126.95 240.81 126.12 239.86 125.02 239.78 L 124.01 239.71 C 122.91 239.63 121.96 240.46 121.88 241.56 C 121.80 242.66 122.63 243.61 123.73 243.69 Z M 124.76 243.76 L 125.77 243.82 C 126.87 243.89 127.81 243.05 127.88 241.95 C 127.94 240.85 127.11 239.91 126.01 239.84 L 125.00 239.78 C 123.90 239.71 122.95 240.55 122.89 241.65 C 122.82 242.75 123.66 243.70 124.76 243.76 Z M 125.79 243.83 L 126.79 243.88 C 127.90 243.93 128.83 243.08 128.89 241.98 C 128.94 240.88 128.09 239.94 126.99 239.88 L 125.98 239.83 C 124.88 239.78 123.94 240.63 123.89 241.73 C 123.83 242.84 124.69 243.77 125.79 243.83 Z M 126.81 243.88 L 127.82 243.92 C 128.92 243.96 129.85 243.10 129.89 242.00 C 129.94 240.89 129.08 239.96 127.97 239.92 L 126.97 239.88 C 125.86 239.84 124.93 240.70 124.89 241.80 C 124.85 242.91 125.71 243.84 126.81 243.88 Z M 127.83 243.92 L 128.83 243.95 C 129.94 243.99 130.86 243.11 130.90 242.01 C 130.93 240.90 130.06 239.98 128.95 239.94 L 127.95 239.91 C 126.84 239.88 125.92 240.75 125.89 241.86 C 125.86 242.97 126.73 243.89 127.83 243.92 Z M 128.85 243.96 L 129.84 243.98 C 130.95 244.00 131.87 243.12 131.90 242.01 C 131.92 240.90 131.04 239.98 129.93 239.96 L 128.93 239.94 C 127.82 239.92 126.91 240.80 126.88 241.91 C 126.86 243.02 127.74 243.93 128.85 243.96 Z M 129.86 243.98 L 130.85 244.00 C 131.96 244.01 132.88 243.12 132.90 242.01 C 132.91 240.90 132.02 239.99 130.91 239.97 L 129.92 239.96 C 128.80 239.94 127.89 240.83 127.87 241.94 C 127.86 243.05 128.75 243.97 129.86 243.98 Z M 130.86 244.00 L 131.86 244.01 C 132.97 244.02 133.88 243.12 133.89 242.01 C 133.90 240.90 133.01 239.99 131.90 239.98 L 130.90 239.97 C 129.79 239.96 128.88 240.85 128.87 241.97 C 128.86 243.08 129.75 243.99 130.86 244.00 Z M 131.87 244.01 L 132.87 244.02 C 133.98 244.02 134.89 243.12 134.90 242.01 C 134.90 240.89 134.00 239.98 132.89 239.98 L 131.89 239.97 C 130.77 239.97 129.86 240.87 129.86 241.98 C 129.85 243.10 130.75 244.01 131.87 244.01 Z M 132.87 244.02 L 133.87 244.02 C 134.99 244.03 135.90 243.12 135.90 242.00 C 135.90 240.89 135.00 239.98 133.88 239.98 L 132.88 239.97 C 131.76 239.97 130.85 240.88 130.85 241.99 C 130.85 243.11 131.75 244.02 132.87 244.02 Z M 133.88 244.03 L 134.88 244.03 C 136.00 244.03 136.91 243.12 136.91 242.00 C 136.91 240.88 136.00 239.97 134.88 239.97 L 133.88 239.97 C 132.76 239.97 131.85 240.88 131.85 242.00 C 131.85 243.12 132.76 244.03 133.88 244.03 Z M 134.88 244.03 L 135.87 244.03 C 136.99 244.03 137.90 243.12 137.90 242.00 C 137.90 240.88 136.99 239.97 135.87 239.97 L 134.88 239.97 C 133.76 239.97 132.85 240.88 132.85 242.00 C 132.85 243.12 133.76 244.03 134.88 244.03 Z M 135.88 244.03 L 136.86 244.03 C 137.98 244.02 138.89 243.11 138.88 241.99 C 138.88 240.87 137.96 239.96 136.84 239.96 L 135.86 239.97 C 134.74 239.97 133.83 240.89 133.84 242.01 C 133.84 243.13 134.75 244.04 135.88 244.03 Z M 136.88 244.03 L 137.87 244.02 C 138.99 244.00 139.89 243.08 139.87 241.96 C 139.86 240.83 138.94 239.94 137.81 239.95 L 136.82 239.96 C 135.70 239.98 134.80 240.90 134.82 242.02 C 134.83 243.14 135.75 244.04 136.88 244.03 Z M 137.89 244.02 L 138.89 243.99 C 140.01 243.96 140.89 243.03 140.87 241.90 C 140.84 240.78 139.90 239.89 138.78 239.92 L 137.79 239.95 C 136.66 239.98 135.78 240.91 135.81 242.04 C 135.84 243.16 136.77 244.05 137.89 244.02 Z M 138.92 243.99 L 139.92 243.95 C 141.04 243.90 141.91 242.95 141.86 241.82 C 141.81 240.70 140.86 239.83 139.74 239.88 L 138.74 239.92 C 137.62 239.97 136.75 240.92 136.80 242.05 C 136.85 243.17 137.80 244.04 138.92 243.99 Z M 139.96 243.95 L 140.96 243.88 C 142.08 243.80 142.93 242.83 142.86 241.71 C 142.78 240.59 141.81 239.74 140.69 239.81 L 139.69 239.88 C 138.57 239.96 137.72 240.93 137.80 242.05 C 137.87 243.17 138.84 244.02 139.96 243.95 Z M 141.02 243.88 L 142.02 243.78 C 143.14 243.68 143.96 242.68 143.86 241.56 C 143.75 240.44 142.76 239.62 141.64 239.72 L 140.64 239.82 C 139.52 239.92 138.69 240.92 138.80 242.04 C 138.90 243.16 139.90 243.98 141.02 243.88 Z M 142.08 243.78 L 143.08 243.65 C 144.20 243.51 144.99 242.49 144.85 241.37 C 144.71 240.25 143.69 239.46 142.58 239.60 L 141.57 239.73 C 140.46 239.87 139.66 240.89 139.80 242.01 C 139.94 243.12 140.96 243.92 142.08 243.78 Z M 143.16 243.64 L 144.16 243.48 C 145.27 243.30 146.03 242.25 145.85 241.14 C 145.67 240.02 144.62 239.27 143.51 239.45 L 142.50 239.61 C 141.39 239.79 140.63 240.84 140.82 241.95 C 141.00 243.07 142.04 243.82 143.16 243.64 Z M 144.24 243.47 L 145.22 243.27 C 146.33 243.04 147.04 241.96 146.82 240.86 C 146.59 239.75 145.52 239.04 144.41 239.26 L 143.43 239.46 C 142.32 239.69 141.61 240.76 141.83 241.87 C 142.06 242.98 143.13 243.69 144.24 243.47 Z M 145.30 243.25 L 146.24 243.02 C 147.34 242.75 148.01 241.65 147.74 240.55 C 147.47 239.45 146.37 238.78 145.27 239.05 L 144.33 239.28 C 143.23 239.55 142.56 240.65 142.83 241.75 C 143.10 242.85 144.20 243.52 145.30 243.25 Z M 146.31 243.00 L 147.25 242.74 C 148.34 242.43 148.97 241.30 148.66 240.21 C 148.36 239.13 147.23 238.49 146.14 238.80 L 145.20 239.07 C 144.11 239.37 143.48 240.50 143.79 241.59 C 144.10 242.68 145.23 243.31 146.31 243.00 Z M 147.32 242.72 L 148.25 242.42 C 149.33 242.08 149.93 240.93 149.58 239.85 C 149.24 238.77 148.09 238.18 147.01 238.52 L 146.07 238.82 C 145.00 239.16 144.40 240.31 144.75 241.39 C 145.09 242.47 146.24 243.06 147.32 242.72 Z M 148.31 242.40 L 149.25 242.07 C 150.32 241.69 150.88 240.53 150.50 239.46 C 150.12 238.39 148.95 237.83 147.89 238.21 L 146.95 238.54 C 145.89 238.92 145.33 240.08 145.70 241.15 C 146.08 242.22 147.25 242.78 148.31 242.40 Z M 149.30 242.05 L 150.24 241.69 C 151.29 241.29 151.82 240.10 151.42 239.05 C 151.01 237.99 149.83 237.46 148.77 237.87 L 147.84 238.23 C 146.78 238.63 146.25 239.82 146.66 240.87 C 147.06 241.93 148.25 242.46 149.30 242.05 Z M 150.29 241.67 L 151.22 241.29 C 152.26 240.86 152.76 239.66 152.33 238.61 C 151.90 237.57 150.70 237.07 149.65 237.50 L 148.72 237.89 C 147.68 238.32 147.18 239.52 147.61 240.56 C 148.04 241.61 149.24 242.11 150.29 241.67 Z M 151.26 241.27 L 152.19 240.86 C 153.23 240.41 153.70 239.20 153.24 238.16 C 152.78 237.12 151.57 236.65 150.54 237.11 L 149.61 237.52 C 148.57 237.98 148.10 239.19 148.56 240.22 C 149.02 241.26 150.23 241.73 151.26 241.27 Z M 152.23 240.85 L 153.15 240.42 C 154.18 239.94 154.63 238.72 154.15 237.69 C 153.67 236.66 152.45 236.22 151.42 236.70 L 150.50 237.13 C 149.47 237.61 149.03 238.83 149.50 239.85 C 149.98 240.88 151.20 241.32 152.23 240.85 Z M 153.19 240.40 L 154.11 239.95 C 155.13 239.46 155.55 238.23 155.05 237.21 C 154.56 236.19 153.33 235.77 152.31 236.26 L 151.39 236.71 C 150.37 237.21 149.95 238.44 150.44 239.46 C 150.94 240.47 152.17 240.90 153.19 240.40 Z M 154.14 239.94 L 155.05 239.48 C 156.06 238.96 156.46 237.73 155.95 236.72 C 155.43 235.71 154.20 235.30 153.19 235.82 L 152.28 236.28 C 151.27 236.79 150.87 238.03 151.38 239.04 C 151.89 240.05 153.13 240.45 154.14 239.94 Z M 155.07 239.47 L 155.94 239.01 C 156.94 238.48 157.33 237.24 156.80 236.24 C 156.27 235.23 155.03 234.85 154.02 235.38 L 153.16 235.83 C 152.15 236.36 151.77 237.60 152.30 238.60 C 152.83 239.61 154.07 239.99 155.07 239.47 Z M 155.96 239.00 L 156.82 238.53 C 157.82 237.99 158.19 236.74 157.64 235.74 C 157.10 234.74 155.85 234.38 154.86 234.92 L 154.00 235.39 C 153.00 235.93 152.63 237.18 153.17 238.18 C 153.72 239.17 154.97 239.54 155.96 239.00 Z M 156.85 238.52 L 157.71 238.03 C 158.70 237.48 159.05 236.22 158.49 235.23 C 157.93 234.24 156.67 233.89 155.69 234.45 L 154.83 234.93 C 153.84 235.49 153.49 236.74 154.05 237.73 C 154.60 238.72 155.86 239.07 156.85 238.52 Z M 157.73 238.02 L 158.58 237.52 C 159.57 236.95 159.90 235.69 159.33 234.71 C 158.75 233.73 157.49 233.39 156.51 233.97 L 155.66 234.46 C 154.68 235.04 154.34 236.30 154.92 237.28 C 155.49 238.26 156.75 238.59 157.73 238.02 Z M 158.61 237.51 L 159.46 237.00 C 160.44 236.41 160.75 235.15 160.16 234.17 C 159.58 233.20 158.31 232.88 157.34 233.47 L 156.49 233.98 C 155.51 234.57 155.20 235.83 155.78 236.81 C 156.37 237.78 157.64 238.10 158.61 237.51 Z M 159.49 236.98 L 160.34 236.46 C 161.30 235.86 161.60 234.58 161.00 233.62 C 160.40 232.65 159.13 232.35 158.16 232.95 L 157.31 233.48 C 156.34 234.08 156.05 235.35 156.65 236.32 C 157.25 237.29 158.52 237.58 159.49 236.98 Z M 160.36 236.44 L 161.21 235.90 C 162.17 235.28 162.45 234.01 161.83 233.05 C 161.22 232.09 159.94 231.81 158.98 232.43 L 158.13 232.97 C 157.17 233.58 156.90 234.86 157.51 235.82 C 158.13 236.78 159.40 237.06 160.36 236.44 Z M 161.23 235.88 L 162.08 235.33 C 163.03 234.70 163.29 233.41 162.66 232.46 C 162.03 231.51 160.75 231.25 159.80 231.88 L 158.95 232.44 C 158.00 233.07 157.74 234.35 158.37 235.30 C 159.00 236.25 160.28 236.51 161.23 235.88 Z M 162.10 235.31 L 162.95 234.73 C 163.89 234.09 164.13 232.81 163.49 231.86 C 162.85 230.92 161.56 230.68 160.62 231.32 L 159.77 231.90 C 158.83 232.54 158.59 233.82 159.23 234.77 C 159.87 235.71 161.16 235.95 162.10 235.31 Z M 162.97 234.72 L 163.82 234.13 C 164.75 233.47 164.97 232.18 164.32 231.25 C 163.66 230.31 162.37 230.09 161.44 230.74 L 160.59 231.34 C 159.66 231.99 159.43 233.28 160.09 234.22 C 160.75 235.15 162.04 235.38 162.97 234.72 Z M 163.84 234.11 L 164.63 233.54 C 165.55 232.87 165.76 231.58 165.09 230.65 C 164.42 229.73 163.13 229.52 162.20 230.19 L 161.41 230.76 C 160.49 231.43 160.28 232.72 160.95 233.65 C 161.62 234.57 162.91 234.78 163.84 234.11 Z M 164.65 233.53 L 165.40 232.97 C 166.32 232.29 166.51 231.00 165.83 230.08 C 165.15 229.16 163.85 228.97 162.93 229.65 L 162.18 230.20 C 161.27 230.88 161.07 232.18 161.75 233.10 C 162.43 234.02 163.73 234.21 164.65 233.53 Z M 165.42 232.96 L 166.17 232.39 C 167.08 231.70 167.26 230.40 166.57 229.49 C 165.88 228.58 164.58 228.40 163.66 229.09 L 162.91 229.66 C 162.00 230.35 161.82 231.65 162.51 232.56 C 163.20 233.47 164.50 233.65 165.42 232.96 Z M 166.18 232.38 L 166.94 231.80 C 167.84 231.10 168.01 229.80 167.31 228.89 C 166.61 227.99 165.31 227.82 164.40 228.52 L 163.65 229.10 C 162.74 229.80 162.57 231.10 163.27 232.01 C 163.97 232.91 165.28 233.08 166.18 232.38 Z M 166.95 231.79 L 167.71 231.20 C 168.61 230.49 168.77 229.18 168.06 228.28 C 167.35 227.38 166.05 227.22 165.15 227.93 L 164.39 228.53 C 163.49 229.23 163.33 230.54 164.04 231.44 C 164.74 232.34 166.05 232.50 166.95 231.79 Z M 167.72 231.19 L 168.49 230.58 C 169.38 229.86 169.53 228.56 168.82 227.66 C 168.10 226.76 166.80 226.62 165.90 227.33 L 165.14 227.94 C 164.24 228.65 164.09 229.96 164.80 230.86 C 165.52 231.75 166.82 231.90 167.72 231.19 Z M 168.50 230.57 L 169.27 229.95 C 170.16 229.23 170.30 227.92 169.59 227.03 C 168.87 226.13 167.56 225.99 166.67 226.71 L 165.89 227.34 C 165.00 228.06 164.86 229.36 165.58 230.26 C 166.30 231.15 167.60 231.29 168.50 230.57 Z M 169.28 229.94 L 170.06 229.31 C 170.95 228.58 171.09 227.27 170.36 226.38 C 169.64 225.49 168.33 225.36 167.44 226.08 L 166.66 226.72 C 165.77 227.44 165.63 228.75 166.36 229.64 C 167.08 230.53 168.39 230.67 169.28 229.94 Z M 170.07 229.30 L 170.86 228.65 C 171.75 227.92 171.88 226.61 171.15 225.72 C 170.43 224.84 169.12 224.71 168.23 225.43 L 167.43 226.09 C 166.55 226.81 166.42 228.12 167.14 229.01 C 167.87 229.90 169.18 230.03 170.07 229.30 Z M 170.87 228.65 L 171.67 227.98 C 172.56 227.25 172.69 225.94 171.96 225.05 C 171.23 224.17 169.91 224.04 169.03 224.77 L 168.22 225.44 C 167.34 226.17 167.21 227.48 167.94 228.37 C 168.67 229.25 169.98 229.38 170.87 228.65 Z M 171.68 227.98 L 172.50 227.30 C 173.38 226.57 173.51 225.26 172.77 224.37 C 172.04 223.49 170.73 223.36 169.84 224.10 L 169.02 224.77 C 168.14 225.51 168.02 226.82 168.75 227.70 C 169.48 228.59 170.79 228.71 171.68 227.98 Z M 172.50 227.30 L 173.34 226.61 C 174.22 225.88 174.34 224.56 173.61 223.68 C 172.88 222.79 171.56 222.67 170.68 223.40 L 169.84 224.10 C 168.96 224.83 168.83 226.14 169.57 227.03 C 170.30 227.91 171.62 228.04 172.50 227.30 Z M 173.34 226.61 L 174.11 225.97 C 175.00 225.23 175.12 223.92 174.39 223.03 C 173.65 222.15 172.34 222.02 171.45 222.76 L 170.68 223.40 C 169.79 224.14 169.67 225.45 170.40 226.34 C 171.14 227.22 172.45 227.35 173.34 226.61 Z M 174.11 225.97 L 174.83 225.37 C 175.72 224.64 175.84 223.32 175.11 222.44 C 174.37 221.55 173.06 221.43 172.17 222.16 L 171.45 222.76 C 170.57 223.49 170.44 224.81 171.18 225.69 C 171.91 226.58 173.23 226.70 174.11 225.97 Z M 174.83 225.37 L 175.56 224.77 C 176.45 224.03 176.57 222.72 175.84 221.83 C 175.10 220.95 173.79 220.82 172.90 221.56 L 172.17 222.16 C 171.28 222.90 171.16 224.21 171.90 225.10 C 172.63 225.98 173.94 226.11 174.83 225.37 Z M 175.56 224.77 L 176.30 224.16 C 177.19 223.42 177.31 222.11 176.58 221.22 C 175.84 220.33 174.53 220.21 173.64 220.94 L 172.90 221.56 C 172.01 222.29 171.89 223.61 172.62 224.49 C 173.36 225.38 174.67 225.50 175.56 224.77 Z M 176.30 224.16 L 177.05 223.54 C 177.94 222.80 178.06 221.49 177.33 220.60 C 176.59 219.71 175.28 219.59 174.39 220.32 L 173.64 220.94 C 172.75 221.68 172.63 222.99 173.36 223.88 C 174.10 224.77 175.41 224.89 176.30 224.16 Z M 177.05 223.54 L 177.81 222.91 C 178.70 222.18 178.82 220.86 178.09 219.97 C 177.35 219.08 176.04 218.96 175.15 219.69 L 174.39 220.32 C 173.50 221.06 173.38 222.37 174.11 223.26 C 174.85 224.15 176.16 224.27 177.05 223.54 Z M 177.81 222.91 L 178.58 222.28 C 179.46 221.54 179.59 220.22 178.85 219.34 C 178.12 218.45 176.80 218.32 175.91 219.06 L 175.15 219.69 C 174.26 220.43 174.13 221.75 174.87 222.63 C 175.60 223.52 176.92 223.65 177.81 222.91 Z M 178.58 222.28 L 179.35 221.64 C 180.24 220.90 180.36 219.58 179.63 218.69 C 178.89 217.81 177.58 217.68 176.69 218.42 L 175.91 219.06 C 175.02 219.79 174.90 221.11 175.64 222.00 C 176.37 222.89 177.69 223.01 178.58 222.28 Z M 179.35 221.64 L 180.13 220.99 C 181.02 220.25 181.15 218.94 180.41 218.05 C 179.67 217.16 178.36 217.03 177.47 217.77 L 176.69 218.42 C 175.80 219.15 175.67 220.47 176.41 221.36 C 177.14 222.25 178.46 222.37 179.35 221.64 Z M 180.13 220.99 L 180.92 220.34 C 181.81 219.60 181.93 218.28 181.20 217.40 C 180.46 216.51 179.14 216.38 178.25 217.12 L 177.47 217.77 C 176.58 218.51 176.45 219.82 177.19 220.71 C 177.93 221.60 179.24 221.73 180.13 220.99 Z M 180.92 220.34 L 181.71 219.68 C 182.60 218.95 182.73 217.63 181.99 216.74 C 181.25 215.85 179.94 215.72 179.05 216.46 L 178.25 217.12 C 177.36 217.85 177.24 219.17 177.98 220.06 C 178.71 220.95 180.03 221.08 180.92 220.34 Z M 181.72 219.68 L 182.51 219.02 C 183.40 218.28 183.53 216.97 182.79 216.08 C 182.05 215.19 180.73 215.06 179.84 215.80 L 179.05 216.46 C 178.16 217.20 178.03 218.52 178.77 219.41 C 179.51 220.30 180.83 220.42 181.72 219.68 Z M 182.51 219.02 L 183.32 218.36 C 184.21 217.62 184.33 216.30 183.59 215.41 C 182.85 214.52 181.54 214.40 180.65 215.13 L 179.84 215.80 C 178.95 216.54 178.83 217.86 179.57 218.75 C 180.30 219.64 181.62 219.76 182.51 219.02 Z M 183.32 218.36 L 184.12 217.69 C 185.01 216.95 185.14 215.63 184.40 214.74 C 183.66 213.85 182.34 213.73 181.45 214.47 L 180.64 215.13 C 179.75 215.87 179.63 217.19 180.37 218.08 C 181.11 218.97 182.43 219.10 183.32 218.36 Z M 184.12 217.69 L 184.93 217.02 C 185.82 216.28 185.95 214.96 185.21 214.07 C 184.47 213.18 183.15 213.06 182.26 213.79 L 181.45 214.47 C 180.56 215.20 180.44 216.52 181.17 217.41 C 181.91 218.31 183.23 218.43 184.12 217.69 Z M 184.93 217.02 L 185.69 216.39 C 186.58 215.65 186.71 214.33 185.97 213.44 C 185.23 212.55 183.91 212.43 183.02 213.16 L 182.26 213.79 C 181.37 214.53 181.24 215.85 181.98 216.75 C 182.72 217.64 184.04 217.76 184.93 217.02 Z M 185.69 216.39 L 186.45 215.76 C 187.35 215.02 187.47 213.70 186.73 212.81 C 185.99 211.91 184.67 211.79 183.78 212.53 L 183.01 213.16 C 182.12 213.90 182.00 215.23 182.74 216.12 C 183.48 217.01 184.80 217.13 185.69 216.39 Z M 186.46 215.76 L 187.22 215.13 C 188.11 214.38 188.23 213.06 187.49 212.17 C 186.75 211.28 185.43 211.16 184.54 211.90 L 183.77 212.53 C 182.88 213.27 182.76 214.59 183.50 215.49 C 184.24 216.38 185.56 216.50 186.46 215.76 Z M 187.22 215.13 L 187.98 214.49 C 188.88 213.75 189.00 212.43 188.26 211.53 C 187.52 210.64 186.19 210.52 185.30 211.26 L 184.54 211.90 C 183.64 212.64 183.52 213.96 184.26 214.85 C 185.00 215.74 186.33 215.87 187.22 215.13 Z M 187.98 214.49 L 188.75 213.85 C 189.64 213.11 189.76 211.79 189.02 210.90 C 188.28 210.00 186.96 209.88 186.07 210.62 L 185.30 211.26 C 184.41 212.00 184.29 213.33 185.03 214.22 C 185.77 215.11 187.09 215.23 187.98 214.49 Z M 188.75 213.85 L 189.52 213.22 C 190.41 212.47 190.53 211.15 189.79 210.26 C 189.05 209.36 187.72 209.24 186.83 209.99 L 186.06 210.62 C 185.17 211.37 185.05 212.69 185.79 213.58 C 186.53 214.48 187.86 214.60 188.75 213.85 Z M 189.52 213.22 L 190.29 212.58 C 191.18 211.83 191.30 210.51 190.56 209.62 C 189.82 208.72 188.49 208.60 187.60 209.34 L 186.83 209.98 C 185.94 210.73 185.82 212.05 186.56 212.95 C 187.30 213.84 188.63 213.96 189.52 213.22 Z M 190.29 212.58 L 191.06 211.94 C 191.95 211.19 192.07 209.87 191.33 208.97 C 190.59 208.08 189.26 207.96 188.37 208.70 L 187.60 209.34 C 186.71 210.09 186.58 211.41 187.33 212.31 C 188.07 213.20 189.40 213.32 190.29 212.58 Z M 191.06 211.94 L 191.83 211.30 C 192.72 210.55 192.85 209.23 192.10 208.33 C 191.36 207.44 190.03 207.32 189.14 208.06 L 188.37 208.70 C 187.47 209.45 187.35 210.77 188.10 211.67 C 188.84 212.56 190.17 212.68 191.06 211.94 Z M 191.83 211.30 L 192.60 210.65 C 193.50 209.91 193.62 208.58 192.87 207.69 C 192.13 206.79 190.80 206.67 189.91 207.42 L 189.14 208.06 C 188.24 208.80 188.12 210.13 188.87 211.03 C 189.61 211.92 190.94 212.04 191.83 211.30 Z M 192.60 210.66 L 193.38 210.01 C 194.27 209.27 194.39 207.94 193.65 207.04 C 192.90 206.15 191.57 206.03 190.68 206.77 L 189.91 207.42 C 189.01 208.16 188.89 209.49 189.64 210.38 C 190.38 211.28 191.71 211.40 192.60 210.66 Z M 193.38 210.01 L 194.15 209.37 C 195.05 208.62 195.17 207.29 194.42 206.40 C 193.68 205.50 192.35 205.38 191.45 206.13 L 190.68 206.77 C 189.78 207.52 189.66 208.85 190.41 209.74 C 191.15 210.64 192.48 210.76 193.38 210.01 Z M 194.15 209.37 L 194.93 208.72 C 195.82 207.98 195.94 206.65 195.20 205.75 C 194.45 204.86 193.12 204.74 192.22 205.48 L 191.45 206.13 C 190.56 206.87 190.44 208.20 191.18 209.10 C 191.93 209.99 193.26 210.12 194.15 209.37 Z M 194.93 208.73 L 195.70 208.08 C 196.60 207.33 196.72 206.00 195.97 205.11 C 195.22 204.21 193.89 204.09 193.00 204.84 L 192.22 205.48 C 191.33 206.23 191.21 207.56 191.95 208.46 C 192.70 209.35 194.03 209.47 194.93 208.73 Z M 195.70 208.08 L 196.47 207.44 C 197.37 206.69 197.49 205.36 196.74 204.46 C 196.00 203.57 194.67 203.45 193.77 204.19 L 193.00 204.84 C 192.10 205.58 191.98 206.92 192.73 207.81 C 193.47 208.71 194.80 208.83 195.70 208.08 Z M 196.47 207.44 L 196.85 207.12 C 197.75 206.38 197.87 205.04 197.12 204.15 C 196.38 203.25 195.04 203.13 194.15 203.88 L 193.77 204.19 C 192.87 204.94 192.75 206.27 193.50 207.17 C 194.25 208.06 195.58 208.18 196.47 207.44 Z"
      fill="black"
      fill-rule="nonzero" /></svg>