<svg xmlns="http://www.w3.org/2000/svg" width="300" height="300" viewBox="0 0 300 300">
<path d="M 146.44 88.97 L 146.43 89.97 C 146.43 90.77 147.08 91.43 147.89 91.43 C 148.70 91.43 149.35 90.78 149.36 89.97 L 149.36 88.98 C 149.36 88.17 148.71 87.52 147.90 87.51 C 147.10 87.51 146.44 88.16 146.44 88.97 Z M 146.43 89.94 L 146.41 90.92 C 146.40 91.73 147.04 92.40 147.85 92.42 C 148.66 92.43 149.33 91.79 149.34 90.98 L 149.36 90.00 C 149.38 89.19 148.73 88.52 147.92 88.50 C 147.12 88.49 146.45 89.13 146.43 89.94 Z M 146.41 90.86 L 146.35 91.85 C 146.30 92.66 146.92 93.36 147.73 93.41 C 148.54 93.46 149.23 92.84 149.28 92.03 L 149.34 91.04 C 149.39 90.23 148.77 89.53 147.96 89.49 C 147.15 89.44 146.46 90.05 146.41 90.86 Z M 146.36 91.76 L 146.23 92.79 C 146.13 93.60 146.71 94.33 147.52 94.43 C 148.32 94.52 149.06 93.95 149.15 93.14 L 149.28 92.12 C 149.38 91.31 148.80 90.58 147.99 90.48 C 147.19 90.38 146.45 90.96 146.36 91.76 Z M 146.24 92.72 L 146.07 93.72 C 145.93 94.52 146.47 95.29 147.27 95.42 C 148.08 95.56 148.84 95.02 148.98 94.22 L 149.15 93.21 C 149.28 92.41 148.74 91.65 147.94 91.51 C 147.14 91.37 146.38 91.91 146.24 92.72 Z M 146.07 93.66 L 145.87 94.63 C 145.70 95.43 146.21 96.22 147.01 96.39 C 147.81 96.56 148.59 96.05 148.76 95.25 L 148.97 94.28 C 149.14 93.48 148.63 92.69 147.83 92.52 C 147.03 92.35 146.24 92.86 146.07 93.66 Z M 145.87 94.60 L 145.65 95.55 C 145.46 96.35 145.95 97.14 146.74 97.34 C 147.54 97.53 148.34 97.03 148.53 96.24 L 148.76 95.29 C 148.95 94.49 148.46 93.69 147.66 93.50 C 146.86 93.31 146.06 93.80 145.87 94.60 Z M 145.64 95.56 L 145.42 96.50 C 145.24 97.30 145.74 98.10 146.54 98.28 C 147.34 98.46 148.14 97.96 148.32 97.16 L 148.54 96.22 C 148.72 95.42 148.22 94.63 147.42 94.44 C 146.62 94.26 145.82 94.76 145.64 95.56 Z M 145.42 96.50 L 145.19 97.51 C 145.01 98.32 145.52 99.11 146.33 99.29 C 147.13 99.47 147.93 98.96 148.11 98.16 L 148.33 97.15 C 148.51 96.35 148.00 95.55 147.20 95.37 C 146.39 95.19 145.60 95.70 145.42 96.50 Z M 145.19 97.50 L 144.97 98.45 C 144.78 99.26 145.28 100.07 146.09 100.25 C 146.90 100.44 147.70 99.94 147.89 99.13 L 148.11 98.17 C 148.30 97.37 147.80 96.56 146.99 96.37 C 146.18 96.19 145.38 96.69 145.19 97.50 Z M 144.97 98.43 L 144.73 99.40 C 144.53 100.20 145.03 101.02 145.83 101.22 C 146.64 101.41 147.45 100.92 147.65 100.11 L 147.89 99.15 C 148.09 98.35 147.59 97.53 146.79 97.33 C 145.98 97.13 145.17 97.63 144.97 98.43 Z M 144.73 99.38 L 144.48 100.37 C 144.27 101.17 144.76 101.99 145.56 102.20 C 146.37 102.41 147.19 101.92 147.40 101.12 L 147.65 100.13 C 147.86 99.33 147.37 98.50 146.57 98.30 C 145.76 98.09 144.94 98.58 144.73 99.38 Z M 144.48 100.35 L 144.23 101.29 C 144.02 102.09 144.50 102.92 145.31 103.13 C 146.11 103.34 146.94 102.86 147.15 102.06 L 147.40 101.13 C 147.61 100.32 147.13 99.50 146.33 99.28 C 145.52 99.07 144.69 99.55 144.48 100.35 Z M 144.24 101.28 L 143.97 102.26 C 143.75 103.07 144.22 103.90 145.03 104.12 C 145.83 104.34 146.66 103.86 146.88 103.06 L 147.15 102.07 C 147.37 101.26 146.89 100.44 146.09 100.22 C 145.28 100.00 144.45 100.47 144.24 101.28 Z M 143.97 102.25 L 143.69 103.24 C 143.47 104.04 143.94 104.87 144.74 105.10 C 145.54 105.32 146.38 104.85 146.60 104.05 L 146.88 103.07 C 147.10 102.26 146.63 101.43 145.83 101.21 C 145.03 100.98 144.19 101.45 143.97 102.25 Z M 143.69 103.23 L 143.43 104.17 C 143.20 104.97 143.66 105.81 144.46 106.04 C 145.27 106.27 146.10 105.80 146.33 105.00 L 146.60 104.06 C 146.83 103.26 146.37 102.42 145.56 102.19 C 144.76 101.96 143.92 102.42 143.69 103.23 Z M 143.43 104.16 L 143.14 105.13 C 142.91 105.93 143.37 106.77 144.17 107.00 C 144.97 107.24 145.81 106.78 146.05 105.98 L 146.33 105.01 C 146.57 104.21 146.11 103.37 145.30 103.13 C 144.50 102.90 143.66 103.36 143.43 104.16 Z M 143.14 105.12 L 142.85 106.10 C 142.61 106.90 143.06 107.75 143.87 107.99 C 144.67 108.23 145.51 107.77 145.75 106.97 L 146.05 105.99 C 146.29 105.18 145.83 104.34 145.03 104.10 C 144.23 103.86 143.38 104.31 143.14 105.12 Z M 142.85 106.09 L 142.56 107.03 C 142.32 107.83 142.77 108.68 143.57 108.93 C 144.37 109.17 145.21 108.72 145.46 107.92 L 145.75 106.98 C 145.99 106.18 145.55 105.33 144.75 105.09 C 143.95 104.84 143.10 105.29 142.85 106.09 Z M 142.57 107.01 L 142.26 107.97 C 142.01 108.77 142.44 109.62 143.24 109.87 C 144.04 110.13 144.89 109.69 145.15 108.89 L 145.45 107.94 C 145.71 107.14 145.27 106.29 144.47 106.03 C 143.68 105.78 142.82 106.22 142.57 107.01 Z M 142.27 107.94 L 141.94 108.90 C 141.67 109.69 142.10 110.55 142.89 110.82 C 143.68 111.09 144.55 110.67 144.81 109.88 L 145.14 108.92 C 145.41 108.13 144.99 107.26 144.19 107.00 C 143.40 106.73 142.54 107.15 142.27 107.94 Z M 141.95 108.87 L 141.61 109.80 C 141.32 110.59 141.73 111.46 142.51 111.75 C 143.30 112.04 144.17 111.64 144.46 110.85 L 144.80 109.91 C 145.09 109.12 144.69 108.25 143.90 107.96 C 143.11 107.67 142.24 108.08 141.95 108.87 Z M 141.62 109.77 L 141.26 110.69 C 140.95 111.48 141.34 112.36 142.12 112.66 C 142.90 112.97 143.78 112.59 144.09 111.80 L 144.45 110.88 C 144.76 110.10 144.37 109.22 143.59 108.91 C 142.81 108.60 141.93 108.99 141.62 109.77 Z M 141.27 110.67 L 140.88 111.59 C 140.56 112.37 140.93 113.26 141.71 113.58 C 142.49 113.90 143.38 113.53 143.70 112.76 L 144.08 111.83 C 144.40 111.05 144.03 110.16 143.26 109.84 C 142.48 109.52 141.59 109.89 141.27 110.67 Z M 140.89 111.57 L 140.49 112.50 C 140.15 113.28 140.51 114.17 141.29 114.51 C 142.06 114.84 142.96 114.48 143.29 113.71 L 143.70 112.78 C 144.03 112.00 143.67 111.10 142.90 110.77 C 142.12 110.44 141.22 110.79 140.89 111.57 Z M 140.49 112.48 L 140.08 113.41 C 139.74 114.18 140.09 115.08 140.86 115.43 C 141.64 115.77 142.54 115.42 142.88 114.65 L 143.29 113.72 C 143.63 112.95 143.28 112.05 142.51 111.70 C 141.74 111.36 140.83 111.71 140.49 112.48 Z M 140.09 113.39 L 139.67 114.31 C 139.31 115.08 139.65 115.99 140.42 116.34 C 141.19 116.69 142.10 116.36 142.46 115.59 L 142.88 114.67 C 143.23 113.90 142.89 112.98 142.12 112.63 C 141.35 112.28 140.44 112.62 140.09 113.39 Z M 139.68 114.28 L 139.24 115.18 C 138.87 115.94 139.19 116.86 139.96 117.23 C 140.72 117.60 141.64 117.28 142.01 116.52 L 142.45 115.61 C 142.82 114.85 142.50 113.93 141.73 113.56 C 140.97 113.19 140.05 113.51 139.68 114.28 Z M 139.26 115.14 L 138.80 116.01 C 138.41 116.77 138.71 117.70 139.46 118.09 C 140.22 118.49 141.15 118.19 141.54 117.43 L 142.00 116.56 C 142.39 115.80 142.09 114.87 141.33 114.48 C 140.58 114.08 139.65 114.38 139.26 115.14 Z M 138.82 115.97 L 138.33 116.85 C 137.91 117.60 138.17 118.54 138.92 118.96 C 139.66 119.38 140.61 119.11 141.02 118.37 L 141.52 117.48 C 141.94 116.73 141.67 115.79 140.93 115.37 C 140.18 114.96 139.24 115.22 138.82 115.97 Z M 138.35 116.81 L 137.84 117.66 C 137.40 118.40 137.64 119.35 138.37 119.79 C 139.10 120.23 140.06 119.99 140.50 119.26 L 141.00 118.40 C 141.44 117.67 141.21 116.72 140.47 116.28 C 139.74 115.84 138.79 116.08 138.35 116.81 Z M 137.85 117.64 L 137.33 118.48 C 136.87 119.21 137.09 120.16 137.82 120.62 C 138.55 121.07 139.51 120.85 139.96 120.12 L 140.48 119.28 C 140.94 118.55 140.71 117.60 139.99 117.14 C 139.26 116.69 138.30 116.91 137.85 117.64 Z M 137.33 118.47 L 136.81 119.29 C 136.35 120.02 136.56 120.98 137.29 121.44 C 138.01 121.90 138.98 121.68 139.44 120.96 L 139.96 120.13 C 140.42 119.41 140.20 118.44 139.47 117.98 C 138.75 117.53 137.79 117.74 137.33 118.47 Z M 136.80 119.29 L 136.28 120.12 C 135.82 120.85 136.03 121.81 136.76 122.27 C 137.49 122.73 138.45 122.52 138.91 121.79 L 139.44 120.96 C 139.90 120.23 139.68 119.27 138.95 118.81 C 138.23 118.35 137.26 118.56 136.80 119.29 Z M 136.27 120.13 L 135.74 120.98 C 135.28 121.71 135.50 122.67 136.23 123.13 C 136.96 123.59 137.92 123.37 138.38 122.64 L 138.91 121.79 C 139.37 121.06 139.15 120.09 138.42 119.64 C 137.69 119.18 136.73 119.40 136.27 120.13 Z M 135.73 120.99 L 135.19 121.86 C 134.74 122.59 134.96 123.56 135.70 124.01 C 136.43 124.46 137.39 124.24 137.85 123.50 L 138.39 122.63 C 138.84 121.90 138.61 120.93 137.88 120.48 C 137.15 120.03 136.18 120.26 135.73 120.99 Z M 135.18 121.87 L 134.68 122.70 C 134.23 123.44 134.47 124.40 135.21 124.85 C 135.95 125.29 136.91 125.06 137.36 124.32 L 137.86 123.49 C 138.30 122.75 138.07 121.79 137.33 121.34 C 136.59 120.90 135.63 121.13 135.18 121.87 Z M 134.67 122.71 L 134.17 123.56 C 133.72 124.30 133.96 125.26 134.71 125.71 C 135.45 126.15 136.41 125.91 136.85 125.16 L 137.36 124.31 C 137.81 123.57 137.56 122.61 136.82 122.16 C 136.08 121.72 135.12 121.96 134.67 122.71 Z M 134.16 123.56 L 133.64 124.44 C 133.20 125.18 133.45 126.14 134.20 126.58 C 134.94 127.02 135.90 126.78 136.34 126.03 L 136.86 125.16 C 137.30 124.41 137.05 123.45 136.31 123.01 C 135.56 122.57 134.60 122.82 134.16 123.56 Z M 133.64 124.44 L 133.12 125.33 C 132.68 126.07 132.93 127.03 133.68 127.47 C 134.43 127.91 135.39 127.66 135.83 126.91 L 136.35 126.03 C 136.79 125.28 136.54 124.32 135.79 123.88 C 135.04 123.44 134.08 123.69 133.64 124.44 Z M 133.12 125.33 L 132.62 126.18 C 132.19 126.93 132.44 127.89 133.19 128.32 C 133.94 128.76 134.90 128.51 135.33 127.76 L 135.83 126.91 C 136.27 126.16 136.02 125.20 135.27 124.76 C 134.52 124.33 133.56 124.58 133.12 125.33 Z M 132.62 126.18 L 132.12 127.04 C 131.69 127.79 131.94 128.75 132.69 129.19 C 133.44 129.62 134.40 129.37 134.83 128.62 L 135.34 127.76 C 135.77 127.01 135.52 126.05 134.77 125.61 C 134.02 125.18 133.06 125.43 132.62 126.18 Z M 132.12 127.05 L 131.62 127.92 C 131.18 128.67 131.44 129.63 132.19 130.06 C 132.94 130.50 133.90 130.24 134.33 129.49 L 134.84 128.61 C 135.27 127.86 135.01 126.91 134.26 126.47 C 133.51 126.04 132.55 126.30 132.12 127.05 Z M 131.61 127.93 L 131.11 128.81 C 130.68 129.56 130.94 130.52 131.70 130.95 C 132.45 131.38 133.41 131.11 133.83 130.36 L 134.34 129.48 C 134.76 128.73 134.50 127.77 133.75 127.34 C 133.00 126.91 132.04 127.18 131.61 127.93 Z M 131.11 128.82 L 130.62 129.68 C 130.20 130.43 130.46 131.39 131.22 131.81 C 131.97 132.24 132.93 131.97 133.35 131.22 L 133.84 130.35 C 134.26 129.60 133.99 128.65 133.24 128.22 C 132.49 127.80 131.53 128.06 131.11 128.82 Z M 130.62 129.68 L 130.14 130.55 C 129.72 131.30 129.99 132.25 130.74 132.68 C 131.49 133.10 132.45 132.83 132.87 132.07 L 133.35 131.21 C 133.77 130.46 133.50 129.50 132.75 129.08 C 132.00 128.66 131.04 128.93 130.62 129.68 Z M 130.14 130.55 L 129.65 131.42 C 129.23 132.17 129.50 133.12 130.25 133.55 C 131.00 133.97 131.96 133.70 132.38 132.95 L 132.87 132.07 C 133.29 131.32 133.02 130.37 132.27 129.95 C 131.51 129.53 130.56 129.80 130.14 130.55 Z M 129.66 131.42 L 129.16 132.30 C 128.74 133.05 129.00 134.00 129.75 134.42 C 130.50 134.85 131.45 134.58 131.87 133.83 L 132.37 132.95 C 132.80 132.20 132.53 131.25 131.78 130.83 C 131.03 130.40 130.08 130.67 129.66 131.42 Z M 129.17 132.29 L 128.66 133.18 C 128.23 133.92 128.49 134.87 129.23 135.30 C 129.98 135.73 130.93 135.47 131.36 134.73 L 131.87 133.84 C 132.30 133.09 132.04 132.14 131.29 131.71 C 130.55 131.29 129.59 131.54 129.17 132.29 Z M 128.67 133.17 L 128.15 134.06 C 127.72 134.80 127.97 135.75 128.71 136.18 C 129.45 136.61 130.40 136.36 130.83 135.62 L 131.35 134.73 C 131.78 133.99 131.53 133.04 130.79 132.61 C 130.05 132.18 129.10 132.43 128.67 133.17 Z M 128.16 134.05 L 127.64 134.92 C 127.20 135.66 127.45 136.61 128.18 137.05 C 128.92 137.49 129.87 137.24 130.31 136.50 L 130.83 135.63 C 131.26 134.89 131.02 133.94 130.28 133.50 C 129.54 133.07 128.59 133.31 128.16 134.05 Z M 127.64 134.92 L 127.14 135.76 C 126.70 136.50 126.93 137.45 127.67 137.89 C 128.40 138.33 129.35 138.09 129.79 137.36 L 130.30 136.51 C 130.74 135.78 130.50 134.83 129.77 134.39 C 129.04 133.94 128.08 134.18 127.64 134.92 Z M 127.14 135.76 L 126.64 136.59 C 126.19 137.32 126.42 138.27 127.16 138.72 C 127.89 139.16 128.84 138.93 129.28 138.20 L 129.79 137.37 C 130.23 136.64 130.00 135.68 129.27 135.24 C 128.54 134.80 127.59 135.03 127.14 135.76 Z M 126.65 136.58 L 126.08 137.49 C 125.63 138.21 125.86 139.16 126.58 139.61 C 127.31 140.06 128.26 139.84 128.71 139.11 L 129.27 138.21 C 129.72 137.48 129.50 136.53 128.77 136.08 C 128.05 135.63 127.09 135.85 126.65 136.58 Z M 126.10 137.47 L 125.56 138.31 C 125.10 139.03 125.31 139.98 126.03 140.44 C 126.75 140.90 127.70 140.69 128.16 139.97 L 128.70 139.13 C 129.16 138.41 128.95 137.46 128.23 137.00 C 127.51 136.54 126.56 136.75 126.10 137.47 Z M 125.58 138.28 L 125.05 139.08 C 124.58 139.78 124.77 140.74 125.48 141.22 C 126.18 141.69 127.14 141.50 127.62 140.79 L 128.14 140.00 C 128.62 139.29 128.43 138.33 127.72 137.86 C 127.01 137.38 126.05 137.58 125.58 138.28 Z M 125.07 139.04 L 124.51 139.84 C 124.02 140.54 124.18 141.50 124.88 141.99 C 125.57 142.48 126.54 142.32 127.03 141.62 L 127.59 140.82 C 128.08 140.13 127.92 139.16 127.22 138.67 C 126.53 138.18 125.56 138.35 125.07 139.04 Z M 124.54 139.81 L 123.93 140.62 C 123.43 141.30 123.57 142.27 124.25 142.77 C 124.93 143.28 125.89 143.14 126.40 142.46 L 127.00 141.65 C 127.51 140.97 127.37 140.01 126.69 139.50 C 126.01 138.99 125.04 139.13 124.54 139.81 Z M 123.95 140.60 L 123.35 141.39 C 122.83 142.06 122.95 143.02 123.62 143.54 C 124.29 144.06 125.25 143.93 125.77 143.26 L 126.38 142.48 C 126.90 141.81 126.77 140.84 126.10 140.33 C 125.43 139.81 124.47 139.93 123.95 140.60 Z M 123.36 141.38 L 122.75 142.16 C 122.23 142.83 122.34 143.79 123.01 144.31 C 123.67 144.83 124.63 144.71 125.15 144.05 L 125.76 143.27 C 126.28 142.60 126.17 141.64 125.50 141.12 C 124.84 140.60 123.88 140.72 123.36 141.38 Z M 122.75 142.16 L 122.13 142.95 C 121.61 143.61 121.73 144.57 122.39 145.09 C 123.05 145.61 124.01 145.50 124.53 144.83 L 125.15 144.05 C 125.67 143.38 125.55 142.42 124.89 141.90 C 124.23 141.38 123.27 141.50 122.75 142.16 Z M 122.14 142.95 L 121.52 143.73 C 121.00 144.39 121.11 145.35 121.77 145.87 C 122.43 146.39 123.39 146.28 123.91 145.62 L 124.53 144.84 C 125.05 144.18 124.93 143.22 124.27 142.70 C 123.61 142.18 122.66 142.29 122.14 142.95 Z M 121.52 143.73 L 120.90 144.51 C 120.38 145.16 120.49 146.12 121.14 146.64 C 121.80 147.17 122.76 147.06 123.28 146.40 L 123.90 145.62 C 124.42 144.97 124.32 144.01 123.66 143.49 C 123.00 142.96 122.05 143.07 121.52 143.73 Z M 120.91 144.50 L 120.29 145.28 C 119.76 145.93 119.86 146.89 120.52 147.41 C 121.17 147.94 122.12 147.83 122.65 147.18 L 123.27 146.41 C 123.80 145.75 123.70 144.80 123.04 144.27 C 122.39 143.75 121.43 143.85 120.91 144.50 Z M 120.29 145.28 L 119.66 146.06 C 119.14 146.71 119.24 147.67 119.90 148.19 C 120.55 148.71 121.50 148.61 122.02 147.96 L 122.65 147.18 C 123.17 146.52 123.07 145.57 122.42 145.05 C 121.76 144.53 120.81 144.63 120.29 145.28 Z M 119.65 146.08 L 119.03 146.87 C 118.52 147.52 118.63 148.47 119.29 148.99 C 119.94 149.50 120.89 149.39 121.41 148.74 L 122.03 147.94 C 122.55 147.29 122.43 146.34 121.78 145.82 C 121.12 145.31 120.17 145.42 119.65 146.08 Z M 119.02 146.89 L 118.43 147.66 C 117.92 148.32 118.05 149.27 118.71 149.77 C 119.38 150.28 120.32 150.15 120.83 149.49 L 121.42 148.72 C 121.92 148.05 121.80 147.11 121.13 146.60 C 120.47 146.10 119.53 146.22 119.02 146.89 Z M 118.42 147.68 L 117.83 148.47 C 117.34 149.14 117.48 150.09 118.14 150.58 C 118.81 151.08 119.75 150.94 120.25 150.27 L 120.84 149.47 C 121.33 148.80 121.19 147.86 120.53 147.37 C 119.86 146.87 118.92 147.01 118.42 147.68 Z M 117.82 148.49 L 117.23 149.31 C 116.74 149.99 116.89 150.93 117.56 151.41 C 118.23 151.90 119.17 151.75 119.66 151.08 L 120.26 150.25 C 120.74 149.58 120.59 148.64 119.92 148.15 C 119.25 147.67 118.31 147.82 117.82 148.49 Z M 117.22 149.33 L 116.63 150.16 C 116.15 150.83 116.31 151.77 116.98 152.25 C 117.65 152.73 118.59 152.57 119.07 151.90 L 119.66 151.07 C 120.14 150.39 119.99 149.46 119.31 148.98 C 118.64 148.50 117.70 148.65 117.22 149.33 Z M 116.63 150.16 L 116.04 151.00 C 115.56 151.67 115.73 152.61 116.40 153.08 C 117.08 153.56 118.01 153.40 118.49 152.72 L 119.07 151.89 C 119.55 151.21 119.39 150.28 118.71 149.80 C 118.04 149.33 117.10 149.49 116.63 150.16 Z M 116.04 151.00 L 115.46 151.83 C 114.99 152.51 115.16 153.44 115.83 153.91 C 116.51 154.38 117.44 154.21 117.91 153.54 L 118.49 152.71 C 118.96 152.04 118.79 151.11 118.12 150.63 C 117.44 150.16 116.51 150.33 116.04 151.00 Z M 115.46 151.84 L 114.90 152.65 C 114.43 153.32 114.60 154.25 115.28 154.72 C 115.96 155.19 116.88 155.02 117.35 154.34 L 117.91 153.53 C 118.38 152.86 118.21 151.93 117.53 151.46 C 116.86 150.99 115.93 151.16 115.46 151.84 Z M 114.90 152.65 L 114.30 153.53 C 113.84 154.20 114.01 155.13 114.69 155.59 C 115.36 156.06 116.29 155.88 116.75 155.21 L 117.35 154.33 C 117.82 153.66 117.64 152.73 116.97 152.27 C 116.29 151.80 115.37 151.98 114.90 152.65 Z M 114.30 153.54 L 113.75 154.35 C 113.29 155.03 113.47 155.95 114.14 156.41 C 114.82 156.87 115.74 156.69 116.20 156.01 L 116.75 155.20 C 117.21 154.52 117.04 153.60 116.36 153.14 C 115.68 152.68 114.76 152.86 114.30 153.54 Z M 113.74 154.37 L 113.22 155.16 C 112.77 155.84 112.95 156.76 113.63 157.21 C 114.31 157.66 115.23 157.47 115.68 156.79 L 116.21 156.00 C 116.66 155.32 116.47 154.41 115.79 153.95 C 115.11 153.50 114.20 153.69 113.74 154.37 Z M 113.21 155.17 L 112.64 156.05 C 112.20 156.73 112.39 157.64 113.07 158.08 C 113.76 158.53 114.67 158.34 115.11 157.65 L 115.68 156.78 C 116.13 156.10 115.93 155.19 115.25 154.74 C 114.57 154.30 113.66 154.49 113.21 155.17 Z M 112.65 156.05 L 112.11 156.87 C 111.67 157.55 111.87 158.46 112.55 158.90 C 113.23 159.34 114.14 159.15 114.58 158.47 L 115.11 157.65 C 115.55 156.97 115.36 156.06 114.68 155.62 C 114.00 155.18 113.09 155.37 112.65 156.05 Z M 112.12 156.87 L 111.57 157.70 C 111.13 158.38 111.32 159.29 111.99 159.73 C 112.67 160.17 113.57 159.99 114.02 159.31 L 114.57 158.48 C 115.01 157.80 114.83 156.89 114.15 156.45 C 113.48 156.00 112.57 156.19 112.12 156.87 Z M 111.59 157.70 L 111.03 158.52 C 110.59 159.19 110.77 160.10 111.44 160.54 C 112.11 160.99 113.01 160.81 113.46 160.14 L 114.01 159.32 C 114.45 158.65 114.27 157.74 113.61 157.30 C 112.94 156.85 112.03 157.03 111.59 157.70 Z M 111.04 158.54 L 110.39 159.52 C 109.95 160.19 110.14 161.09 110.80 161.53 C 111.47 161.97 112.37 161.78 112.81 161.11 L 113.46 160.13 C 113.90 159.46 113.71 158.56 113.04 158.12 C 112.37 157.68 111.48 157.87 111.04 158.54 Z M 110.38 159.55 L 110.02 160.13 C 109.59 160.80 109.80 161.69 110.47 162.11 C 111.14 162.54 112.03 162.33 112.45 161.66 L 112.81 161.08 C 113.24 160.41 113.04 159.52 112.36 159.10 C 111.69 158.68 110.81 158.88 110.38 159.55 Z M 112.42 161.69 L 112.97 160.87 C 113.40 160.22 113.23 159.33 112.57 158.89 C 111.92 158.46 111.03 158.63 110.59 159.29 L 110.05 160.10 C 109.61 160.76 109.78 161.65 110.44 162.09 C 111.09 162.52 111.98 162.35 112.42 161.69 Z M 112.97 160.87 L 113.14 160.62 C 113.57 159.96 113.39 159.07 112.73 158.64 C 112.08 158.20 111.19 158.38 110.76 159.04 L 110.59 159.29 C 110.16 159.95 110.34 160.83 110.99 161.27 C 111.65 161.70 112.53 161.52 112.97 160.87 Z"
      fill="black"
      fill-rule="nonzero" /><path d="M 146.17 119.04 L 146.66 118.19 C 147.06 117.49 146.82 116.59 146.12 116.18 C 145.41 115.78 144.52 116.02 144.11 116.72 L 143.62 117.58 C 143.22 118.28 143.46 119.18 144.16 119.58 C 144.86 119.98 145.76 119.74 146.17 119.04 Z M 146.47 118.46 L 147.14 117.73 C 147.70 117.13 147.66 116.20 147.06 115.64 C 146.47 115.09 145.53 115.13 144.98 115.72 L 144.30 116.45 C 143.75 117.05 143.78 117.98 144.38 118.54 C 144.98 119.09 145.91 119.06 146.47 118.46 Z M 146.81 118.00 L 147.64 117.51 C 148.35 117.10 148.58 116.19 148.16 115.48 C 147.75 114.78 146.84 114.54 146.13 114.96 L 145.30 115.45 C 144.60 115.87 144.37 116.78 144.78 117.48 C 145.20 118.19 146.11 118.42 146.81 118.00 Z M 147.41 117.63 L 148.39 117.26 C 149.16 116.97 149.55 116.11 149.26 115.34 C 148.97 114.57 148.11 114.18 147.34 114.48 L 146.36 114.85 C 145.59 115.14 145.20 116.00 145.49 116.77 C 145.79 117.53 146.64 117.92 147.41 117.63 Z M 148.25 117.31 L 149.25 117.04 C 150.04 116.83 150.52 116.02 150.31 115.22 C 150.10 114.43 149.28 113.95 148.49 114.16 L 147.48 114.43 C 146.69 114.64 146.21 115.45 146.42 116.25 C 146.63 117.04 147.45 117.52 148.25 117.31 Z M 149.16 117.07 L 150.13 116.87 C 150.94 116.71 151.47 115.93 151.31 115.12 C 151.15 114.31 150.36 113.79 149.55 113.95 L 148.58 114.14 C 147.77 114.30 147.24 115.08 147.40 115.89 C 147.56 116.70 148.35 117.23 149.16 117.07 Z M 150.08 116.88 L 151.08 116.72 C 151.90 116.59 152.45 115.82 152.32 115.01 C 152.19 114.19 151.42 113.64 150.60 113.77 L 149.60 113.94 C 148.79 114.07 148.24 114.84 148.37 115.65 C 148.50 116.46 149.27 117.02 150.08 116.88 Z M 151.05 116.73 L 152.01 116.59 C 152.83 116.48 153.40 115.72 153.28 114.90 C 153.17 114.09 152.41 113.52 151.59 113.63 L 150.63 113.77 C 149.82 113.88 149.25 114.64 149.36 115.46 C 149.48 116.27 150.24 116.84 151.05 116.73 Z M 152.00 116.59 L 152.96 116.47 C 153.78 116.36 154.35 115.60 154.24 114.79 C 154.13 113.97 153.38 113.39 152.56 113.50 L 151.61 113.63 C 150.79 113.74 150.21 114.49 150.32 115.31 C 150.43 116.13 151.18 116.70 152.00 116.59 Z M 152.95 116.47 L 153.96 116.34 C 154.78 116.24 155.36 115.49 155.26 114.67 C 155.15 113.85 154.41 113.27 153.59 113.37 L 152.57 113.50 C 151.76 113.60 151.17 114.35 151.28 115.17 C 151.38 115.99 152.13 116.57 152.95 116.47 Z M 153.95 116.34 L 154.90 116.23 C 155.72 116.13 156.31 115.39 156.21 114.57 C 156.12 113.75 155.37 113.16 154.55 113.26 L 153.60 113.37 C 152.78 113.47 152.19 114.21 152.29 115.03 C 152.39 115.85 153.13 116.44 153.95 116.34 Z M 154.89 116.23 L 155.91 116.12 C 156.74 116.03 157.33 115.30 157.24 114.47 C 157.15 113.65 156.41 113.06 155.59 113.15 L 154.57 113.26 C 153.75 113.35 153.15 114.08 153.24 114.91 C 153.33 115.73 154.07 116.32 154.89 116.23 Z M 155.90 116.12 L 156.87 116.03 C 157.69 115.94 158.29 115.21 158.21 114.39 C 158.13 113.56 157.39 112.97 156.57 113.05 L 155.60 113.15 C 154.78 113.23 154.18 113.96 154.27 114.78 C 154.35 115.61 155.08 116.21 155.90 116.12 Z M 156.87 116.03 L 157.87 115.93 C 158.69 115.84 159.29 115.11 159.21 114.29 C 159.13 113.47 158.40 112.87 157.57 112.95 L 156.57 113.05 C 155.75 113.13 155.15 113.86 155.23 114.69 C 155.31 115.51 156.05 116.11 156.87 116.03 Z M 157.88 115.92 L 158.88 115.82 C 159.70 115.73 160.30 115.00 160.21 114.18 C 160.13 113.35 159.39 112.76 158.57 112.84 L 157.57 112.95 C 156.75 113.03 156.15 113.77 156.24 114.59 C 156.32 115.41 157.06 116.01 157.88 115.92 Z M 158.89 115.82 L 159.86 115.71 C 160.68 115.62 161.27 114.88 161.18 114.06 C 161.09 113.24 160.35 112.64 159.53 112.74 L 158.56 112.84 C 157.74 112.94 157.15 113.68 157.24 114.50 C 157.33 115.32 158.07 115.91 158.89 115.82 Z M 159.87 115.71 L 160.89 115.59 C 161.71 115.49 162.29 114.74 162.20 113.92 C 162.10 113.10 161.35 112.52 160.53 112.62 L 159.51 112.74 C 158.69 112.84 158.11 113.58 158.21 114.40 C 158.30 115.22 159.05 115.81 159.87 115.71 Z M 160.90 115.59 L 161.90 115.46 C 162.72 115.35 163.30 114.60 163.20 113.78 C 163.09 112.96 162.34 112.38 161.53 112.49 L 160.52 112.62 C 159.70 112.72 159.12 113.47 159.22 114.29 C 159.33 115.11 160.08 115.69 160.90 115.59 Z M 161.91 115.46 L 162.91 115.32 C 163.72 115.22 164.30 114.46 164.19 113.64 C 164.08 112.82 163.33 112.25 162.51 112.36 L 161.52 112.49 C 160.70 112.60 160.12 113.35 160.23 114.17 C 160.34 114.99 161.09 115.57 161.91 115.46 Z M 162.91 115.32 L 163.91 115.19 C 164.73 115.08 165.30 114.32 165.19 113.50 C 165.08 112.68 164.33 112.11 163.51 112.22 L 162.51 112.36 C 161.69 112.47 161.11 113.22 161.23 114.04 C 161.34 114.86 162.09 115.44 162.91 115.32 Z M 163.91 115.19 L 164.91 115.05 C 165.73 114.94 166.31 114.18 166.19 113.36 C 166.08 112.54 165.33 111.97 164.51 112.08 L 163.51 112.22 C 162.69 112.33 162.11 113.09 162.23 113.91 C 162.34 114.73 163.09 115.30 163.91 115.19 Z M 164.91 115.05 L 165.91 114.91 C 166.73 114.80 167.30 114.05 167.19 113.23 C 167.08 112.41 166.32 111.84 165.50 111.95 L 164.51 112.08 C 163.69 112.20 163.12 112.95 163.23 113.77 C 163.34 114.59 164.09 115.16 164.91 115.05 Z M 165.91 114.91 L 166.89 114.78 C 167.71 114.67 168.28 113.92 168.17 113.10 C 168.06 112.28 167.31 111.70 166.49 111.82 L 165.51 111.95 C 164.69 112.06 164.11 112.81 164.22 113.63 C 164.33 114.45 165.09 115.02 165.91 114.91 Z M 166.89 114.78 L 167.87 114.65 C 168.69 114.54 169.27 113.79 169.16 112.97 C 169.05 112.15 168.30 111.58 167.48 111.68 L 166.49 111.81 C 165.67 111.92 165.10 112.68 165.20 113.49 C 165.31 114.31 166.07 114.89 166.89 114.78 Z M 167.87 114.65 L 168.86 114.52 C 169.68 114.41 170.26 113.66 170.15 112.84 C 170.04 112.02 169.29 111.44 168.47 111.55 L 167.48 111.68 C 166.66 111.79 166.08 112.54 166.19 113.36 C 166.30 114.18 167.05 114.76 167.87 114.65 Z M 168.87 114.52 L 169.86 114.38 C 170.68 114.27 171.25 113.52 171.14 112.70 C 171.03 111.88 170.28 111.31 169.46 111.42 L 168.47 111.55 C 167.65 111.66 167.07 112.42 167.19 113.24 C 167.30 114.06 168.05 114.63 168.87 114.52 Z M 169.87 114.38 L 170.87 114.24 C 171.68 114.12 172.25 113.36 172.13 112.54 C 172.01 111.73 171.26 111.16 170.44 111.28 L 169.44 111.42 C 168.63 111.54 168.06 112.30 168.18 113.12 C 168.30 113.93 169.06 114.50 169.87 114.38 Z M 170.88 114.24 L 171.88 114.08 C 172.69 113.95 173.25 113.19 173.12 112.37 C 173.00 111.56 172.23 111.00 171.41 111.12 L 170.42 111.28 C 169.60 111.41 169.05 112.17 169.17 112.99 C 169.30 113.81 170.07 114.36 170.88 114.24 Z M 171.89 114.08 L 172.87 113.91 C 173.69 113.78 174.24 113.01 174.10 112.19 C 173.96 111.38 173.19 110.83 172.38 110.96 L 171.40 111.13 C 170.58 111.26 170.03 112.03 170.17 112.85 C 170.31 113.67 171.08 114.22 171.89 114.08 Z M 172.89 113.91 L 173.87 113.74 C 174.69 113.59 175.23 112.82 175.09 112.00 C 174.94 111.19 174.16 110.65 173.35 110.79 L 172.36 110.97 C 171.55 111.11 171.01 111.89 171.15 112.70 C 171.30 113.51 172.07 114.06 172.89 113.91 Z M 173.88 113.74 L 174.87 113.55 C 175.69 113.40 176.22 112.62 176.07 111.81 C 175.92 111.00 175.14 110.46 174.33 110.61 L 173.34 110.79 C 172.53 110.94 171.99 111.72 172.14 112.54 C 172.29 113.35 173.07 113.89 173.88 113.74 Z M 174.88 113.55 L 175.85 113.37 C 176.66 113.22 177.20 112.44 177.05 111.62 C 176.89 110.81 176.11 110.28 175.30 110.43 L 174.33 110.61 C 173.51 110.76 172.98 111.54 173.13 112.36 C 173.28 113.17 174.06 113.70 174.88 113.55 Z M 175.85 113.37 L 176.83 113.19 C 177.64 113.04 178.18 112.26 178.03 111.45 C 177.88 110.63 177.10 110.10 176.28 110.25 L 175.30 110.43 C 174.49 110.58 173.95 111.36 174.10 112.17 C 174.25 112.98 175.03 113.52 175.85 113.37 Z M 176.83 113.19 L 177.81 113.01 C 178.62 112.86 179.16 112.08 179.01 111.26 C 178.86 110.45 178.07 109.92 177.26 110.07 L 176.28 110.25 C 175.47 110.40 174.93 111.18 175.08 111.99 C 175.23 112.80 176.02 113.34 176.83 113.19 Z M 177.82 113.01 L 178.80 112.82 C 179.62 112.66 180.15 111.87 179.99 111.06 C 179.83 110.25 179.05 109.72 178.23 109.88 L 177.25 110.07 C 176.44 110.23 175.91 111.01 176.07 111.82 C 176.22 112.63 177.01 113.16 177.82 113.01 Z M 178.83 112.81 L 179.83 112.60 C 180.64 112.43 181.16 111.64 180.99 110.83 C 180.82 110.02 180.03 109.50 179.22 109.67 L 178.21 109.88 C 177.40 110.05 176.89 110.84 177.05 111.65 C 177.22 112.46 178.02 112.98 178.83 112.81 Z M 179.85 112.60 L 180.83 112.38 C 181.64 112.20 182.15 111.40 181.97 110.59 C 181.79 109.78 180.99 109.28 180.18 109.46 L 179.20 109.67 C 178.39 109.85 177.89 110.65 178.07 111.46 C 178.25 112.27 179.05 112.78 179.85 112.60 Z M 180.85 112.37 L 181.83 112.14 C 182.63 111.95 183.13 111.14 182.94 110.34 C 182.75 109.53 181.94 109.04 181.14 109.23 L 180.16 109.46 C 179.36 109.65 178.86 110.46 179.05 111.26 C 179.24 112.07 180.05 112.56 180.85 112.37 Z M 181.85 112.14 L 182.83 111.89 C 183.64 111.69 184.12 110.87 183.92 110.07 C 183.72 109.27 182.90 108.78 182.10 108.99 L 181.12 109.23 C 180.31 109.44 179.83 110.25 180.03 111.05 C 180.23 111.85 181.05 112.34 181.85 112.14 Z M 182.84 111.89 L 183.77 111.65 C 184.57 111.44 185.05 110.62 184.84 109.82 C 184.63 109.02 183.82 108.54 183.01 108.75 L 182.09 108.99 C 181.29 109.19 180.81 110.01 181.02 110.81 C 181.23 111.61 182.04 112.09 182.84 111.89 Z M 183.76 111.65 L 184.74 111.40 C 185.54 111.19 186.02 110.38 185.82 109.57 C 185.61 108.77 184.80 108.29 183.99 108.50 L 183.02 108.75 C 182.22 108.95 181.73 109.77 181.94 110.57 C 182.15 111.37 182.96 111.85 183.76 111.65 Z M 184.74 111.40 L 185.68 111.16 C 186.48 110.95 186.96 110.13 186.76 109.33 C 186.55 108.53 185.73 108.05 184.93 108.25 L 183.99 108.50 C 183.19 108.70 182.71 109.52 182.92 110.32 C 183.12 111.12 183.94 111.60 184.74 111.40 Z M 185.67 111.16 L 186.60 110.93 C 187.41 110.72 187.89 109.91 187.69 109.11 C 187.49 108.31 186.68 107.82 185.88 108.02 L 184.94 108.25 C 184.14 108.45 183.65 109.27 183.85 110.07 C 184.05 110.87 184.87 111.36 185.67 111.16 Z M 186.56 110.94 L 187.58 110.71 C 188.38 110.54 188.90 109.74 188.72 108.93 C 188.54 108.12 187.74 107.61 186.93 107.79 L 185.92 108.01 C 185.11 108.18 184.60 108.98 184.78 109.79 C 184.95 110.60 185.75 111.11 186.56 110.94 Z M 187.52 110.72 L 188.51 110.54 C 189.33 110.39 189.87 109.61 189.72 108.80 C 189.57 107.99 188.79 107.45 187.97 107.59 L 186.99 107.78 C 186.17 107.92 185.63 108.70 185.78 109.52 C 185.93 110.33 186.71 110.87 187.52 110.72 Z M 188.46 110.55 L 189.46 110.41 C 190.28 110.29 190.85 109.53 190.73 108.71 C 190.61 107.89 189.85 107.32 189.03 107.44 L 188.03 107.59 C 187.21 107.71 186.64 108.47 186.76 109.29 C 186.88 110.10 187.64 110.67 188.46 110.55 Z M 189.35 110.42 L 190.47 110.34 C 191.30 110.28 191.92 109.56 191.86 108.74 C 191.80 107.91 191.08 107.29 190.26 107.35 L 189.14 107.43 C 188.31 107.49 187.69 108.20 187.75 109.03 C 187.81 109.86 188.53 110.48 189.35 110.42 Z M 190.02 110.31 L 190.86 110.51 C 191.67 110.70 192.48 110.20 192.68 109.39 C 192.87 108.59 192.37 107.77 191.56 107.58 L 190.71 107.38 C 189.91 107.19 189.09 107.69 188.90 108.49 C 188.71 109.30 189.21 110.11 190.02 110.31 Z M 189.91 109.82 L 190.33 110.52 C 190.76 111.23 191.68 111.47 192.40 111.04 C 193.12 110.62 193.35 109.69 192.93 108.97 L 192.51 108.27 C 192.08 107.56 191.16 107.32 190.44 107.75 C 189.72 108.17 189.49 109.10 189.91 109.82 Z M 190.12 109.89 L 190.22 111.01 C 190.30 111.84 191.04 112.45 191.88 112.37 C 192.71 112.29 193.32 111.55 193.25 110.72 L 193.14 109.60 C 193.06 108.77 192.32 108.15 191.48 108.23 C 190.65 108.31 190.04 109.05 190.12 109.89 Z M 190.21 110.86 L 190.21 111.81 C 190.22 112.65 190.90 113.33 191.74 113.33 C 192.58 113.33 193.26 112.64 193.26 111.80 L 193.26 110.86 C 193.26 110.02 192.57 109.34 191.73 109.34 C 190.89 109.34 190.21 110.02 190.21 110.86 Z M 190.21 111.73 L 190.16 112.76 C 190.12 113.60 190.76 114.32 191.61 114.36 C 192.45 114.40 193.16 113.76 193.21 112.91 L 193.26 111.88 C 193.30 111.04 192.66 110.32 191.81 110.28 C 190.97 110.24 190.26 110.89 190.21 111.73 Z M 190.16 112.66 L 190.04 113.72 C 189.95 114.56 190.55 115.32 191.39 115.41 C 192.23 115.51 192.98 114.91 193.08 114.07 L 193.20 113.01 C 193.30 112.17 192.70 111.41 191.86 111.32 C 191.02 111.22 190.26 111.82 190.16 112.66 Z M 190.05 113.62 L 189.86 114.66 C 189.71 115.49 190.26 116.29 191.09 116.44 C 191.93 116.59 192.73 116.04 192.88 115.21 L 193.07 114.17 C 193.22 113.34 192.67 112.54 191.84 112.39 C 191.01 112.24 190.21 112.79 190.05 113.62 Z M 189.88 114.59 L 189.66 115.53 C 189.47 116.36 189.98 117.18 190.81 117.37 C 191.63 117.57 192.46 117.05 192.65 116.23 L 192.87 115.28 C 193.06 114.45 192.54 113.63 191.72 113.44 C 190.89 113.25 190.07 113.76 189.88 114.59 Z M 189.66 115.50 L 189.42 116.46 C 189.21 117.28 189.71 118.12 190.53 118.33 C 191.35 118.54 192.19 118.04 192.40 117.22 L 192.64 116.26 C 192.85 115.44 192.35 114.60 191.53 114.39 C 190.71 114.18 189.87 114.68 189.66 115.50 Z M 189.42 116.44 L 189.17 117.38 C 188.95 118.20 189.44 119.04 190.26 119.26 C 191.08 119.48 191.92 119.00 192.14 118.17 L 192.39 117.24 C 192.61 116.42 192.12 115.57 191.30 115.35 C 190.48 115.13 189.64 115.62 189.42 116.44 Z M 189.17 117.37 L 188.92 118.28 C 188.69 119.10 189.17 119.95 190.00 120.18 C 190.82 120.40 191.67 119.92 191.89 119.10 L 192.14 118.19 C 192.37 117.37 191.89 116.52 191.07 116.29 C 190.24 116.07 189.40 116.55 189.17 117.37 Z M 188.91 118.27 L 188.64 119.23 C 188.41 120.05 188.89 120.91 189.71 121.14 C 190.54 121.37 191.40 120.89 191.63 120.07 L 191.90 119.11 C 192.13 118.29 191.65 117.43 190.83 117.20 C 190.00 116.96 189.14 117.44 188.91 118.27 Z M 188.63 119.21 L 188.34 120.20 C 188.10 121.03 188.58 121.90 189.41 122.14 C 190.24 122.38 191.11 121.91 191.35 121.07 L 191.64 120.09 C 191.88 119.26 191.41 118.39 190.57 118.14 C 189.74 117.90 188.87 118.38 188.63 119.21 Z M 188.34 120.18 L 188.06 121.10 C 187.81 121.94 188.28 122.82 189.11 123.07 C 189.94 123.32 190.82 122.85 191.08 122.02 L 191.36 121.09 C 191.61 120.26 191.14 119.38 190.30 119.13 C 189.47 118.87 188.59 119.35 188.34 120.18 Z M 188.05 121.09 L 187.75 122.07 C 187.49 122.91 187.96 123.79 188.80 124.05 C 189.64 124.31 190.52 123.84 190.78 123.00 L 191.08 122.03 C 191.34 121.19 190.87 120.30 190.03 120.04 C 189.20 119.79 188.31 120.26 188.05 121.09 Z M 187.74 122.07 L 187.45 123.01 C 187.19 123.85 187.67 124.74 188.51 125.00 C 189.35 125.26 190.24 124.79 190.50 123.95 L 190.79 123.01 C 191.05 122.16 190.58 121.27 189.74 121.01 C 188.90 120.75 188.00 121.23 187.74 122.07 Z M 187.45 123.01 L 187.16 123.94 C 186.90 124.78 187.38 125.68 188.22 125.94 C 189.07 126.20 189.96 125.72 190.22 124.88 L 190.51 123.95 C 190.77 123.10 190.29 122.21 189.45 121.95 C 188.60 121.69 187.71 122.16 187.45 123.01 Z M 187.15 123.94 L 186.85 124.92 C 186.59 125.77 187.07 126.67 187.92 126.93 C 188.77 127.19 189.67 126.71 189.93 125.86 L 190.23 124.88 C 190.49 124.03 190.01 123.13 189.16 122.87 C 188.31 122.61 187.41 123.09 187.15 123.94 Z M 186.84 124.92 L 186.55 125.89 C 186.29 126.74 186.77 127.65 187.62 127.91 C 188.47 128.17 189.38 127.69 189.64 126.83 L 189.93 125.86 C 190.19 125.01 189.71 124.11 188.86 123.85 C 188.01 123.59 187.10 124.07 186.84 124.92 Z M 186.54 125.89 L 186.26 126.82 C 186.00 127.68 186.48 128.58 187.34 128.84 C 188.19 129.11 189.10 128.62 189.36 127.76 L 189.65 126.83 C 189.91 125.98 189.42 125.07 188.57 124.81 C 187.71 124.55 186.80 125.03 186.54 125.89 Z M 186.25 126.82 L 185.96 127.78 C 185.70 128.64 186.18 129.55 187.04 129.82 C 187.91 130.08 188.82 129.59 189.08 128.73 L 189.37 127.77 C 189.63 126.90 189.14 125.99 188.28 125.73 C 187.42 125.47 186.51 125.96 186.25 126.82 Z M 185.95 127.78 L 185.65 128.77 C 185.39 129.64 185.88 130.55 186.74 130.81 C 187.61 131.08 188.52 130.59 188.78 129.72 L 189.08 128.73 C 189.35 127.86 188.86 126.95 187.99 126.69 C 187.13 126.43 186.21 126.92 185.95 127.78 Z M 185.64 128.77 L 185.36 129.72 C 185.09 130.59 185.58 131.51 186.45 131.77 C 187.32 132.04 188.24 131.54 188.50 130.68 L 188.79 129.72 C 189.05 128.85 188.56 127.94 187.69 127.67 C 186.82 127.41 185.91 127.90 185.64 128.77 Z M 185.35 129.72 L 185.06 130.67 C 184.79 131.54 185.28 132.46 186.16 132.73 C 187.03 133.00 187.96 132.50 188.22 131.63 L 188.51 130.68 C 188.78 129.81 188.29 128.88 187.41 128.62 C 186.54 128.35 185.61 128.84 185.35 129.72 Z M 185.05 130.65 L 184.75 131.61 C 184.48 132.49 184.97 133.42 185.85 133.70 C 186.72 133.97 187.66 133.48 187.93 132.60 L 188.23 131.64 C 188.50 130.77 188.01 129.83 187.13 129.56 C 186.26 129.29 185.32 129.78 185.05 130.65 Z M 184.75 131.60 L 184.44 132.56 C 184.16 133.44 184.64 134.38 185.52 134.67 C 186.40 134.95 187.34 134.47 187.62 133.59 L 187.93 132.62 C 188.22 131.74 187.73 130.80 186.85 130.52 C 185.97 130.23 185.03 130.72 184.75 131.60 Z M 184.44 132.54 L 184.12 133.48 C 183.83 134.36 184.30 135.31 185.18 135.60 C 186.06 135.90 187.02 135.42 187.31 134.54 L 187.62 133.61 C 187.92 132.73 187.44 131.78 186.56 131.48 C 185.68 131.19 184.73 131.66 184.44 132.54 Z M 184.12 133.46 L 183.80 134.39 C 183.49 135.27 183.96 136.23 184.84 136.54 C 185.72 136.84 186.68 136.38 186.99 135.50 L 187.31 134.56 C 187.62 133.68 187.15 132.72 186.27 132.42 C 185.39 132.11 184.43 132.58 184.12 133.46 Z M 183.80 134.38 L 183.46 135.32 C 183.15 136.21 183.62 137.17 184.50 137.49 C 185.38 137.80 186.35 137.33 186.66 136.45 L 186.99 135.51 C 187.30 134.62 186.84 133.66 185.96 133.35 C 185.07 133.03 184.11 133.50 183.80 134.38 Z M 183.46 135.32 L 183.12 136.28 C 182.80 137.16 183.27 138.14 184.15 138.45 C 185.04 138.76 186.01 138.30 186.32 137.42 L 186.66 136.46 C 186.98 135.57 186.51 134.60 185.63 134.28 C 184.74 133.97 183.77 134.43 183.46 135.32 Z M 183.11 136.28 L 182.78 137.23 C 182.46 138.12 182.93 139.10 183.82 139.41 C 184.71 139.72 185.68 139.26 186.00 138.37 L 186.33 137.41 C 186.65 136.53 186.18 135.55 185.29 135.24 C 184.40 134.92 183.42 135.39 183.11 136.28 Z M 182.77 137.23 L 182.43 138.18 C 182.12 139.08 182.59 140.05 183.48 140.37 C 184.38 140.68 185.36 140.21 185.67 139.32 L 186.00 138.37 C 186.32 137.47 185.85 136.50 184.95 136.18 C 184.06 135.87 183.08 136.34 182.77 137.23 Z M 182.43 138.18 L 182.09 139.13 C 181.77 140.02 182.24 141.01 183.14 141.33 C 184.04 141.64 185.02 141.17 185.34 140.28 L 185.68 139.32 C 185.99 138.43 185.52 137.44 184.63 137.13 C 183.73 136.81 182.75 137.28 182.43 138.18 Z M 182.09 139.12 L 181.75 140.06 C 181.43 140.95 181.89 141.95 182.79 142.27 C 183.69 142.59 184.68 142.12 185.01 141.23 L 185.34 140.29 C 185.67 139.39 185.20 138.40 184.30 138.07 C 183.40 137.75 182.41 138.22 182.09 139.12 Z M 181.75 140.04 L 181.40 140.97 C 181.07 141.87 181.53 142.87 182.43 143.20 C 183.33 143.54 184.33 143.08 184.66 142.18 L 185.01 141.24 C 185.34 140.34 184.88 139.34 183.98 139.01 C 183.08 138.68 182.08 139.14 181.75 140.04 Z M 181.41 140.95 L 181.05 141.90 C 180.71 142.79 181.16 143.80 182.06 144.14 C 182.96 144.48 183.96 144.03 184.30 143.13 L 184.66 142.19 C 185.00 141.29 184.55 140.29 183.65 139.94 C 182.75 139.60 181.75 140.05 181.41 140.95 Z M 181.05 141.89 L 180.69 142.81 C 180.34 143.71 180.79 144.72 181.69 145.07 C 182.59 145.42 183.60 144.97 183.95 144.07 L 184.31 143.14 C 184.65 142.24 184.21 141.23 183.31 140.89 C 182.41 140.54 181.39 140.99 181.05 141.89 Z M 180.69 142.81 L 180.33 143.73 C 179.98 144.63 180.43 145.65 181.33 146.00 C 182.23 146.35 183.25 145.90 183.59 145.00 L 183.95 144.07 C 184.30 143.17 183.85 142.15 182.95 141.81 C 182.05 141.46 181.03 141.91 180.69 142.81 Z M 180.32 143.74 L 179.97 144.66 C 179.62 145.57 180.08 146.58 180.99 146.93 C 181.89 147.27 182.91 146.82 183.25 145.91 L 183.60 144.99 C 183.95 144.08 183.49 143.07 182.59 142.72 C 181.68 142.38 180.67 142.83 180.32 143.74 Z M 179.96 144.67 L 179.63 145.57 C 179.29 146.48 179.75 147.50 180.66 147.83 C 181.57 148.17 182.58 147.71 182.92 146.80 L 183.26 145.90 C 183.60 144.99 183.14 143.98 182.22 143.64 C 181.31 143.30 180.30 143.76 179.96 144.67 Z M 179.62 145.58 L 179.28 146.50 C 178.94 147.42 179.41 148.43 180.33 148.77 C 181.24 149.10 182.26 148.63 182.59 147.72 L 182.93 146.79 C 183.27 145.88 182.80 144.86 181.88 144.53 C 180.97 144.19 179.95 144.66 179.62 145.58 Z M 179.27 146.51 L 178.93 147.46 C 178.59 148.38 179.07 149.40 179.99 149.73 C 180.90 150.06 181.92 149.59 182.25 148.67 L 182.60 147.72 C 182.93 146.80 182.46 145.78 181.54 145.45 C 180.62 145.11 179.61 145.59 179.27 146.51 Z M 178.92 147.46 L 178.56 148.45 C 178.23 149.37 178.71 150.39 179.63 150.72 C 180.55 151.05 181.57 150.58 181.90 149.65 L 182.26 148.67 C 182.59 147.75 182.11 146.73 181.19 146.40 C 180.27 146.06 179.25 146.54 178.92 147.46 Z M 178.56 148.45 L 178.23 149.35 C 177.90 150.28 178.38 151.30 179.30 151.63 C 180.23 151.96 181.24 151.48 181.58 150.56 L 181.91 149.66 C 182.24 148.73 181.76 147.71 180.84 147.38 C 179.91 147.05 178.89 147.52 178.56 148.45 Z M 178.23 149.35 L 177.90 150.27 C 177.57 151.20 178.04 152.22 178.97 152.55 C 179.89 152.88 180.91 152.41 181.25 151.48 L 181.58 150.56 C 181.91 149.64 181.44 148.62 180.51 148.28 C 179.59 147.95 178.57 148.43 178.23 149.35 Z M 177.90 150.27 L 177.56 151.21 C 177.22 152.14 177.70 153.16 178.63 153.49 C 179.55 153.83 180.57 153.35 180.91 152.42 L 181.25 151.48 C 181.58 150.56 181.11 149.54 180.18 149.20 C 179.25 148.87 178.23 149.35 177.90 150.27 Z M 177.56 151.21 L 177.21 152.17 C 176.87 153.10 177.35 154.12 178.28 154.45 C 179.20 154.79 180.23 154.31 180.56 153.39 L 180.91 152.42 C 181.25 151.50 180.77 150.48 179.84 150.14 C 178.91 149.81 177.89 150.28 177.56 151.21 Z M 177.21 152.17 L 176.85 153.15 C 176.52 154.07 177.00 155.10 177.92 155.43 C 178.85 155.77 179.87 155.29 180.21 154.36 L 180.56 153.39 C 180.90 152.46 180.42 151.44 179.49 151.10 C 178.57 150.76 177.54 151.24 177.21 152.17 Z M 176.85 153.15 L 176.51 154.07 C 176.18 155.00 176.66 156.03 177.58 156.36 C 178.51 156.70 179.54 156.22 179.87 155.29 L 180.21 154.37 C 180.55 153.44 180.07 152.41 179.14 152.08 C 178.21 151.74 177.19 152.22 176.85 153.15 Z M 176.51 154.07 L 176.17 155.01 C 175.84 155.93 176.31 156.96 177.24 157.30 C 178.17 157.64 179.20 157.16 179.53 156.23 L 179.87 155.29 C 180.21 154.37 179.73 153.34 178.81 153.00 C 177.88 152.66 176.85 153.14 176.51 154.07 Z M 176.17 155.00 L 175.83 155.94 C 175.49 156.87 175.97 157.90 176.90 158.24 C 177.82 158.58 178.85 158.10 179.19 157.17 L 179.54 156.23 C 179.87 155.30 179.40 154.28 178.47 153.94 C 177.54 153.60 176.51 154.07 176.17 155.00 Z M 175.83 155.94 L 175.48 156.88 C 175.14 157.81 175.62 158.84 176.54 159.18 C 177.47 159.53 178.50 159.05 178.84 158.12 L 179.19 157.18 C 179.53 156.25 179.06 155.22 178.13 154.88 C 177.20 154.53 176.17 155.01 175.83 155.94 Z M 175.48 156.88 L 175.13 157.83 C 174.79 158.75 175.26 159.79 176.19 160.13 C 177.12 160.48 178.15 160.00 178.49 159.07 L 178.84 158.13 C 179.19 157.20 178.71 156.17 177.79 155.82 C 176.86 155.48 175.83 155.95 175.48 156.88 Z M 175.13 157.82 L 174.78 158.75 C 174.43 159.68 174.90 160.72 175.83 161.06 C 176.76 161.41 177.79 160.94 178.14 160.01 L 178.49 159.08 C 178.84 158.15 178.37 157.12 177.44 156.77 C 176.51 156.42 175.48 156.89 175.13 157.82 Z M 174.78 158.75 L 174.43 159.67 C 174.08 160.60 174.55 161.63 175.47 161.99 C 176.40 162.34 177.44 161.87 177.79 160.94 L 178.14 160.02 C 178.49 159.09 178.03 158.06 177.10 157.70 C 176.17 157.35 175.14 157.82 174.78 158.75 Z M 174.44 159.66 L 174.08 160.58 C 173.72 161.51 174.18 162.55 175.10 162.91 C 176.03 163.27 177.07 162.81 177.43 161.88 L 177.79 160.96 C 178.14 160.03 177.68 158.99 176.76 158.63 C 175.83 158.27 174.79 158.73 174.44 159.66 Z M 174.08 160.57 L 173.71 161.50 C 173.35 162.42 173.80 163.47 174.72 163.83 C 175.65 164.20 176.69 163.75 177.06 162.82 L 177.42 161.89 C 177.79 160.97 177.34 159.93 176.41 159.56 C 175.49 159.20 174.45 159.65 174.08 160.57 Z M 173.72 161.48 L 173.34 162.42 C 172.97 163.34 173.41 164.39 174.33 164.76 C 175.25 165.14 176.29 164.69 176.67 163.77 L 177.05 162.84 C 177.42 161.92 176.98 160.87 176.06 160.50 C 175.14 160.12 174.09 160.56 173.72 161.48 Z M 173.35 162.40 L 172.95 163.34 C 172.57 164.25 173.00 165.31 173.91 165.69 C 174.83 166.08 175.88 165.65 176.27 164.73 L 176.66 163.79 C 177.05 162.88 176.62 161.82 175.70 161.44 C 174.78 161.05 173.73 161.48 173.35 162.40 Z M 172.96 163.32 L 172.56 164.24 C 172.17 165.15 172.59 166.21 173.50 166.60 C 174.41 167.00 175.47 166.58 175.87 165.66 L 176.26 164.75 C 176.66 163.84 176.24 162.78 175.33 162.38 C 174.41 161.99 173.35 162.41 172.96 163.32 Z M 172.57 164.22 L 172.16 165.14 C 171.76 166.05 172.17 167.11 173.08 167.51 C 173.98 167.92 175.05 167.51 175.45 166.60 L 175.86 165.68 C 176.26 164.77 175.85 163.71 174.94 163.30 C 174.04 162.90 172.97 163.31 172.57 164.22 Z M 172.17 165.13 L 171.75 166.05 C 171.34 166.95 171.74 168.02 172.65 168.43 C 173.55 168.84 174.62 168.44 175.03 167.53 L 175.45 166.61 C 175.86 165.71 175.45 164.64 174.55 164.23 C 173.64 163.82 172.58 164.22 172.17 165.13 Z M 171.75 166.04 L 171.33 166.95 C 170.92 167.85 171.31 168.92 172.22 169.34 C 173.12 169.75 174.19 169.36 174.61 168.45 L 175.03 167.54 C 175.44 166.64 175.05 165.57 174.14 165.15 C 173.24 164.74 172.17 165.13 171.75 166.04 Z M 171.34 166.94 L 170.92 167.84 C 170.50 168.75 170.89 169.82 171.79 170.24 C 172.70 170.66 173.77 170.26 174.19 169.36 L 174.60 168.46 C 175.02 167.56 174.63 166.49 173.73 166.07 C 172.83 165.65 171.76 166.04 171.34 166.94 Z M 170.92 167.84 L 170.50 168.74 C 170.07 169.64 170.46 170.72 171.37 171.14 C 172.27 171.56 173.34 171.17 173.76 170.27 L 174.18 169.37 C 174.61 168.46 174.22 167.39 173.32 166.97 C 172.41 166.55 171.34 166.94 170.92 167.84 Z M 170.50 168.74 L 170.07 169.65 C 169.65 170.55 170.03 171.62 170.94 172.04 C 171.84 172.47 172.91 172.08 173.33 171.18 L 173.76 170.27 C 174.18 169.37 173.80 168.30 172.90 167.87 C 171.99 167.45 170.92 167.84 170.50 168.74 Z M 170.07 169.64 L 169.65 170.54 C 169.22 171.44 169.61 172.52 170.51 172.94 C 171.41 173.37 172.49 172.98 172.91 172.08 L 173.33 171.18 C 173.76 170.28 173.37 169.21 172.47 168.78 C 171.57 168.36 170.50 168.74 170.07 169.64 Z M 169.65 170.54 L 169.23 171.44 C 168.80 172.34 169.19 173.41 170.09 173.84 C 170.99 174.26 172.06 173.88 172.49 172.98 L 172.91 172.08 C 173.34 171.18 172.95 170.10 172.05 169.68 C 171.15 169.25 170.07 169.64 169.65 170.54 Z M 169.22 171.44 L 168.80 172.34 C 168.38 173.24 168.76 174.32 169.66 174.74 C 170.57 175.17 171.64 174.78 172.07 173.88 L 172.49 172.98 C 172.91 172.07 172.53 171.00 171.63 170.57 C 170.72 170.15 169.65 170.54 169.22 171.44 Z M 168.80 172.34 L 168.37 173.25 C 167.95 174.16 168.34 175.23 169.24 175.65 C 170.14 176.08 171.22 175.69 171.64 174.79 L 172.07 173.88 C 172.49 172.97 172.10 171.90 171.20 171.47 C 170.30 171.05 169.22 171.44 168.80 172.34 Z M 168.37 173.26 L 167.96 174.13 C 167.54 175.03 167.93 176.11 168.83 176.53 C 169.74 176.95 170.81 176.56 171.23 175.66 L 171.64 174.78 C 172.06 173.88 171.67 172.81 170.77 172.39 C 169.87 171.96 168.79 172.35 168.37 173.26 Z M 167.96 174.13 L 167.55 175.02 C 167.12 175.92 167.51 177.00 168.42 177.42 C 169.32 177.84 170.40 177.45 170.82 176.55 L 171.23 175.66 C 171.66 174.75 171.27 173.68 170.36 173.26 C 169.46 172.84 168.38 173.23 167.96 174.13 Z M 167.55 175.01 L 167.12 175.92 C 166.70 176.82 167.09 177.89 167.99 178.32 C 168.89 178.74 169.97 178.35 170.39 177.45 L 170.82 176.55 C 171.24 175.65 170.85 174.57 169.95 174.15 C 169.05 173.72 167.97 174.11 167.55 175.01 Z M 167.13 175.91 L 166.69 176.83 C 166.27 177.73 166.65 178.80 167.55 179.23 C 168.45 179.66 169.53 179.27 169.96 178.37 L 170.39 177.46 C 170.82 176.56 170.43 175.48 169.53 175.05 C 168.63 174.63 167.55 175.01 167.13 175.91 Z M 166.70 176.82 L 166.25 177.74 C 165.82 178.64 166.20 179.72 167.10 180.15 C 168.00 180.58 169.08 180.20 169.51 179.30 L 169.95 178.38 C 170.39 177.48 170.01 176.40 169.11 175.97 C 168.21 175.54 167.13 175.92 166.70 176.82 Z M 166.26 177.73 L 165.81 178.65 C 165.37 179.55 165.75 180.63 166.64 181.07 C 167.54 181.50 168.62 181.13 169.06 180.23 L 169.51 179.31 C 169.94 178.42 169.57 177.34 168.67 176.90 C 167.78 176.46 166.70 176.83 166.26 177.73 Z M 165.82 178.64 L 165.38 179.53 C 164.93 180.42 165.30 181.50 166.19 181.95 C 167.08 182.39 168.17 182.03 168.61 181.13 L 169.05 180.25 C 169.50 179.35 169.13 178.27 168.24 177.82 C 167.34 177.38 166.26 177.75 165.82 178.64 Z M 165.38 179.52 L 164.93 180.41 C 164.48 181.30 164.84 182.38 165.73 182.83 C 166.62 183.28 167.70 182.93 168.15 182.04 L 168.61 181.15 C 169.06 180.26 168.70 179.17 167.81 178.72 C 166.92 178.27 165.83 178.63 165.38 179.52 Z M 164.94 180.39 L 164.48 181.29 C 164.02 182.17 164.37 183.26 165.25 183.72 C 166.14 184.18 167.23 183.83 167.69 182.94 L 168.15 182.05 C 168.61 181.16 168.26 180.07 167.37 179.62 C 166.48 179.16 165.39 179.51 164.94 180.39 Z M 164.48 181.27 L 164.02 182.16 C 163.55 183.04 163.89 184.14 164.77 184.60 C 165.66 185.07 166.75 184.73 167.21 183.84 L 167.68 182.96 C 168.15 182.07 167.81 180.98 166.92 180.51 C 166.04 180.05 164.95 180.39 164.48 181.27 Z M 164.02 182.15 L 163.55 183.03 C 163.08 183.91 163.40 185.00 164.28 185.48 C 165.16 185.95 166.26 185.62 166.73 184.74 L 167.21 183.86 C 167.68 182.98 167.35 181.88 166.47 181.41 C 165.59 180.94 164.50 181.27 164.02 182.15 Z M 163.56 183.02 L 163.07 183.90 C 162.59 184.77 162.91 185.87 163.78 186.35 C 164.66 186.83 165.76 186.51 166.24 185.64 L 166.72 184.76 C 167.20 183.88 166.88 182.78 166.01 182.30 C 165.14 181.82 164.04 182.14 163.56 183.02 Z M 163.08 183.88 L 162.58 184.77 C 162.09 185.64 162.40 186.74 163.27 187.23 C 164.14 187.72 165.24 187.41 165.73 186.54 L 166.23 185.65 C 166.72 184.78 166.41 183.68 165.54 183.19 C 164.67 182.70 163.57 183.01 163.08 183.88 Z M 162.59 184.75 L 162.08 185.63 C 161.59 186.50 161.89 187.60 162.75 188.10 C 163.62 188.60 164.72 188.30 165.22 187.43 L 165.72 186.56 C 166.22 185.69 165.92 184.59 165.06 184.09 C 164.19 183.59 163.09 183.89 162.59 184.75 Z M 162.09 185.62 L 161.58 186.49 C 161.08 187.35 161.37 188.45 162.23 188.96 C 163.09 189.46 164.20 189.17 164.70 188.31 L 165.21 187.45 C 165.71 186.59 165.42 185.48 164.56 184.97 C 163.70 184.47 162.60 184.76 162.09 185.62 Z M 161.59 186.48 L 161.08 187.33 C 160.57 188.19 160.85 189.30 161.71 189.81 C 162.56 190.32 163.67 190.04 164.18 189.18 L 164.69 188.33 C 165.20 187.47 164.92 186.36 164.07 185.85 C 163.21 185.34 162.10 185.62 161.59 186.48 Z M 161.09 187.32 L 160.58 188.16 C 160.06 189.01 160.33 190.13 161.19 190.64 C 162.04 191.16 163.15 190.89 163.67 190.03 L 164.18 189.19 C 164.69 188.34 164.42 187.23 163.57 186.71 C 162.72 186.19 161.60 186.47 161.09 187.32 Z M 160.58 188.15 L 160.07 188.99 C 159.55 189.84 159.81 190.95 160.66 191.47 C 161.51 191.99 162.63 191.73 163.15 190.88 L 163.66 190.04 C 164.18 189.19 163.92 188.08 163.07 187.56 C 162.22 187.04 161.11 187.30 160.58 188.15 Z M 160.08 188.98 L 159.55 189.83 C 159.02 190.68 159.28 191.79 160.13 192.31 C 160.97 192.84 162.09 192.58 162.61 191.74 L 163.14 190.89 C 163.67 190.04 163.41 188.93 162.56 188.40 C 161.72 187.87 160.60 188.13 160.08 188.98 Z M 159.55 189.82 L 159.02 190.67 C 158.49 191.51 158.75 192.62 159.59 193.15 C 160.44 193.68 161.55 193.43 162.08 192.58 L 162.61 191.74 C 163.14 190.90 162.88 189.78 162.04 189.25 C 161.20 188.72 160.08 188.98 159.55 189.82 Z M 159.03 190.66 L 158.50 191.50 C 157.97 192.34 158.22 193.46 159.06 193.99 C 159.90 194.52 161.02 194.27 161.55 193.43 L 162.08 192.59 C 162.61 191.74 162.36 190.63 161.51 190.10 C 160.67 189.57 159.56 189.82 159.03 190.66 Z M 158.50 191.50 L 157.97 192.34 C 157.43 193.18 157.69 194.30 158.53 194.83 C 159.37 195.36 160.48 195.11 161.01 194.27 L 161.55 193.43 C 162.08 192.58 161.83 191.47 160.99 190.94 C 160.14 190.41 159.03 190.66 158.50 191.50 Z M 157.97 192.34 L 157.43 193.19 C 156.90 194.04 157.15 195.15 157.99 195.68 C 158.83 196.21 159.95 195.96 160.48 195.12 L 161.01 194.27 C 161.55 193.42 161.29 192.31 160.45 191.78 C 159.61 191.25 158.50 191.50 157.97 192.34 Z M 157.43 193.20 L 156.89 194.05 C 156.36 194.90 156.62 196.01 157.46 196.54 C 158.30 197.07 159.41 196.81 159.94 195.97 L 160.48 195.11 C 161.01 194.27 160.75 193.16 159.91 192.63 C 159.07 192.10 157.96 192.36 157.43 193.20 Z M 156.89 194.06 L 156.36 194.92 C 155.83 195.76 156.09 196.87 156.93 197.40 C 157.78 197.92 158.89 197.66 159.41 196.82 L 159.95 195.96 C 160.47 195.12 160.21 194.01 159.37 193.48 C 158.52 192.96 157.41 193.22 156.89 194.06 Z M 156.35 194.92 L 155.82 195.79 C 155.30 196.63 155.56 197.74 156.41 198.26 C 157.26 198.78 158.37 198.52 158.89 197.67 L 159.42 196.81 C 159.94 195.96 159.68 194.85 158.83 194.33 C 157.98 193.81 156.87 194.08 156.35 194.92 Z M 155.82 195.79 L 155.29 196.66 C 154.77 197.51 155.04 198.62 155.89 199.13 C 156.74 199.65 157.85 199.38 158.37 198.53 L 158.89 197.66 C 159.41 196.81 159.14 195.71 158.29 195.19 C 157.44 194.68 156.33 194.95 155.82 195.79 Z M 155.29 196.67 L 154.77 197.53 C 154.26 198.38 154.54 199.49 155.39 200.00 C 156.24 200.51 157.35 200.23 157.86 199.38 L 158.37 198.52 C 158.88 197.66 158.60 196.56 157.75 196.05 C 156.90 195.54 155.80 195.82 155.29 196.67 Z M 154.76 197.54 L 154.27 198.39 C 153.76 199.25 154.05 200.35 154.91 200.85 C 155.76 201.35 156.86 201.07 157.37 200.21 L 157.86 199.36 C 158.37 198.51 158.08 197.41 157.22 196.90 C 156.37 196.40 155.27 196.69 154.76 197.54 Z M 154.26 198.41 L 153.76 199.28 C 153.26 200.14 153.56 201.24 154.42 201.74 C 155.28 202.23 156.38 201.93 156.87 201.07 L 157.38 200.20 C 157.87 199.33 157.57 198.24 156.71 197.74 C 155.85 197.25 154.75 197.55 154.26 198.41 Z M 153.75 199.30 L 153.24 200.20 C 152.76 201.06 153.07 202.16 153.94 202.64 C 154.80 203.13 155.90 202.82 156.38 201.95 L 156.88 201.05 C 157.37 200.19 157.06 199.09 156.19 198.61 C 155.32 198.12 154.23 198.43 153.75 199.30 Z M 153.24 200.21 L 152.76 201.10 C 152.28 201.97 152.61 203.06 153.48 203.53 C 154.35 204.00 155.44 203.68 155.91 202.81 L 156.39 201.93 C 156.87 201.06 156.54 199.97 155.67 199.50 C 154.80 199.02 153.71 199.34 153.24 200.21 Z M 152.75 201.11 L 152.29 201.98 C 151.82 202.86 152.16 203.95 153.03 204.41 C 153.91 204.87 154.99 204.54 155.46 203.67 L 155.92 202.79 C 156.38 201.92 156.05 200.83 155.18 200.37 C 154.30 199.90 153.21 200.24 152.75 201.11 Z M 152.28 202.00 L 151.83 202.87 C 151.37 203.75 151.72 204.83 152.60 205.28 C 153.48 205.74 154.56 205.40 155.02 204.52 L 155.47 203.65 C 155.92 202.77 155.58 201.69 154.70 201.23 C 153.82 200.78 152.74 201.12 152.28 202.00 Z M 151.82 202.88 L 151.38 203.75 C 150.93 204.64 151.28 205.72 152.16 206.17 C 153.05 206.61 154.13 206.26 154.58 205.38 L 155.02 204.51 C 155.47 203.62 155.12 202.54 154.24 202.09 C 153.35 201.64 152.27 202.00 151.82 202.88 Z M 151.38 203.76 L 150.93 204.66 C 150.48 205.55 150.84 206.62 151.73 207.07 C 152.61 207.51 153.69 207.15 154.13 206.27 L 154.58 205.37 C 155.02 204.48 154.66 203.41 153.78 202.97 C 152.90 202.52 151.82 202.88 151.38 203.76 Z M 150.93 204.67 L 150.48 205.57 C 150.04 206.46 150.40 207.53 151.28 207.97 C 152.17 208.41 153.24 208.05 153.68 207.16 L 154.13 206.26 C 154.57 205.38 154.21 204.30 153.32 203.86 C 152.44 203.42 151.36 203.79 150.93 204.67 Z M 150.48 205.57 L 150.03 206.47 C 149.60 207.36 149.96 208.43 150.84 208.87 C 151.72 209.31 152.80 208.94 153.23 208.06 L 153.68 207.16 C 154.12 206.28 153.76 205.20 152.87 204.77 C 151.99 204.33 150.92 204.69 150.48 205.57 Z M 150.04 206.47 L 149.59 207.36 C 149.15 208.25 149.51 209.32 150.39 209.76 C 151.28 210.20 152.35 209.84 152.79 208.95 L 153.23 208.06 C 153.67 207.18 153.31 206.11 152.43 205.67 C 151.55 205.23 150.48 205.59 150.04 206.47 Z M 149.60 207.36 L 149.16 208.24 C 148.71 209.12 149.07 210.19 149.94 210.63 C 150.82 211.07 151.89 210.72 152.34 209.84 L 152.78 208.96 C 153.22 208.08 152.87 207.01 151.99 206.57 C 151.11 206.13 150.04 206.48 149.60 207.36 Z M 149.16 208.23 L 148.69 209.15 C 148.24 210.03 148.59 211.10 149.46 211.55 C 150.33 212.00 151.40 211.65 151.85 210.78 L 152.33 209.85 C 152.78 208.98 152.43 207.91 151.56 207.46 C 150.68 207.01 149.61 207.36 149.16 208.23 Z M 148.70 209.14 L 148.22 210.05 C 147.77 210.92 148.10 211.99 148.97 212.44 C 149.84 212.90 150.91 212.56 151.37 211.70 L 151.84 210.79 C 152.30 209.92 151.96 208.85 151.09 208.39 C 150.23 207.94 149.15 208.27 148.70 209.14 Z M 148.24 210.03 L 147.76 210.92 C 147.30 211.78 147.62 212.85 148.49 213.31 C 149.35 213.78 150.42 213.45 150.88 212.59 L 151.36 211.71 C 151.82 210.85 151.50 209.77 150.63 209.31 C 149.77 208.85 148.70 209.17 148.24 210.03 Z M 147.77 210.90 L 147.30 211.76 C 146.83 212.61 147.14 213.69 148.00 214.16 C 148.86 214.63 149.93 214.32 150.40 213.46 L 150.87 212.61 C 151.34 211.75 151.03 210.68 150.18 210.20 C 149.32 209.73 148.25 210.05 147.77 210.90 Z M 147.32 211.74 L 146.84 212.58 C 146.36 213.43 146.66 214.51 147.51 214.99 C 148.35 215.47 149.43 215.17 149.91 214.32 L 150.39 213.48 C 150.87 212.63 150.57 211.55 149.72 211.07 C 148.87 210.59 147.80 210.89 147.32 211.74 Z M 146.86 212.57 L 146.33 213.47 C 145.84 214.31 146.12 215.38 146.96 215.87 C 147.80 216.36 148.88 216.08 149.37 215.24 L 149.89 214.34 C 150.38 213.50 150.10 212.42 149.26 211.93 C 148.42 211.44 147.35 211.73 146.86 212.57 Z M 146.35 213.45 L 145.83 214.32 C 145.33 215.14 145.59 216.22 146.42 216.72 C 147.25 217.22 148.33 216.95 148.83 216.13 L 149.35 215.26 C 149.85 214.43 149.58 213.35 148.75 212.85 C 147.93 212.35 146.85 212.62 146.35 213.45 Z M 145.84 214.30 L 145.32 215.13 C 144.81 215.95 145.06 217.03 145.88 217.54 C 146.70 218.05 147.78 217.80 148.29 216.98 L 148.81 216.14 C 149.32 215.33 149.07 214.25 148.25 213.74 C 147.43 213.23 146.35 213.48 145.84 214.30 Z M 145.34 215.12 L 144.82 215.92 C 144.30 216.73 144.54 217.81 145.35 218.33 C 146.15 218.84 147.23 218.61 147.75 217.80 L 148.27 217.00 C 148.79 216.19 148.55 215.11 147.75 214.59 C 146.94 214.07 145.86 214.31 145.34 215.12 Z M 144.84 215.91 L 144.29 216.73 C 143.76 217.53 143.98 218.61 144.78 219.14 C 145.57 219.66 146.65 219.45 147.18 218.65 L 147.73 217.82 C 148.26 217.02 148.04 215.95 147.24 215.42 C 146.45 214.89 145.37 215.11 144.84 215.91 Z M 144.31 216.72 L 143.75 217.54 C 143.21 218.33 143.42 219.40 144.21 219.94 C 144.99 220.48 146.07 220.27 146.60 219.48 L 147.16 218.66 C 147.70 217.88 147.49 216.80 146.71 216.27 C 145.92 215.73 144.85 215.93 144.31 216.72 Z M 143.76 217.53 L 143.20 218.35 C 142.66 219.13 142.85 220.20 143.63 220.74 C 144.41 221.28 145.48 221.09 146.02 220.31 L 146.59 219.49 C 147.13 218.71 146.94 217.64 146.16 217.10 C 145.38 216.56 144.31 216.75 143.76 217.53 Z M 143.21 218.35 L 142.63 219.17 C 142.09 219.95 142.28 221.01 143.05 221.56 C 143.83 222.10 144.89 221.91 145.44 221.13 L 146.01 220.31 C 146.55 219.54 146.37 218.47 145.59 217.93 C 144.82 217.39 143.75 217.57 143.21 218.35 Z M 142.64 219.18 L 142.06 220.00 C 141.52 220.77 141.71 221.83 142.48 222.37 C 143.25 222.91 144.31 222.72 144.85 221.95 L 145.43 221.13 C 145.97 220.36 145.78 219.30 145.01 218.76 C 144.24 218.22 143.18 218.41 142.64 219.18 Z M 142.07 220.00 L 141.49 220.83 C 140.95 221.60 141.14 222.66 141.91 223.19 C 142.68 223.73 143.73 223.54 144.27 222.77 L 144.85 221.95 C 145.38 221.18 145.20 220.12 144.43 219.59 C 143.66 219.05 142.61 219.24 142.07 220.00 Z M 141.50 220.84 L 140.92 221.67 C 140.39 222.43 140.58 223.48 141.34 224.01 C 142.10 224.55 143.15 224.36 143.68 223.59 L 144.26 222.77 C 144.79 222.00 144.61 220.95 143.84 220.42 C 143.08 219.89 142.03 220.08 141.50 220.84 Z M 140.93 221.67 L 140.36 222.49 C 139.83 223.25 140.02 224.29 140.78 224.82 C 141.54 225.35 142.58 225.16 143.11 224.40 L 143.68 223.59 C 144.21 222.83 144.02 221.78 143.26 221.25 C 142.50 220.73 141.46 220.91 140.93 221.67 Z M 140.37 222.49 L 139.79 223.33 C 139.26 224.09 139.45 225.12 140.21 225.65 C 140.97 226.17 142.00 225.99 142.53 225.23 L 143.11 224.39 C 143.63 223.64 143.44 222.60 142.69 222.07 C 141.93 221.55 140.89 221.74 140.37 222.49 Z M 139.79 223.34 L 139.22 224.16 C 138.70 224.92 138.89 225.95 139.64 226.47 C 140.40 226.99 141.43 226.80 141.95 226.05 L 142.52 225.22 C 143.04 224.47 142.86 223.43 142.10 222.91 C 141.35 222.39 140.31 222.58 139.79 223.34 Z M 139.23 224.17 L 138.67 224.98 C 138.15 225.73 138.34 226.76 139.09 227.28 C 139.84 227.80 140.87 227.61 141.39 226.86 L 141.95 226.04 C 142.46 225.29 142.27 224.26 141.52 223.75 C 140.77 223.23 139.74 223.42 139.23 224.17 Z M 138.67 224.99 L 138.11 225.80 C 137.60 226.55 137.79 227.57 138.54 228.08 C 139.29 228.60 140.31 228.41 140.82 227.66 L 141.38 226.85 C 141.89 226.10 141.71 225.08 140.96 224.57 C 140.21 224.05 139.19 224.24 138.67 224.99 Z M 138.12 225.80 L 137.56 226.63 C 137.04 227.37 137.23 228.39 137.98 228.90 C 138.72 229.41 139.74 229.22 140.25 228.48 L 140.82 227.65 C 141.33 226.91 141.14 225.89 140.40 225.38 C 139.65 224.87 138.63 225.06 138.12 225.80 Z M 137.56 226.63 L 136.99 227.46 C 136.49 228.20 136.67 229.21 137.41 229.72 C 138.16 230.23 139.17 230.04 139.68 229.30 L 140.25 228.47 C 140.75 227.73 140.57 226.72 139.83 226.21 C 139.09 225.70 138.07 225.89 137.56 226.63 Z M 137.00 227.46 L 136.43 228.29 C 135.93 229.02 136.11 230.03 136.85 230.54 C 137.58 231.05 138.59 230.86 139.10 230.12 L 139.67 229.30 C 140.18 228.56 139.99 227.56 139.25 227.05 C 138.52 226.54 137.51 226.73 137.00 227.46 Z M 136.44 228.29 L 135.87 229.11 C 135.37 229.84 135.55 230.84 136.28 231.35 C 137.01 231.86 138.01 231.68 138.52 230.95 L 139.09 230.12 C 139.60 229.39 139.42 228.39 138.69 227.88 C 137.95 227.38 136.95 227.56 136.44 228.29 Z M 135.89 229.11 L 135.30 229.95 C 134.79 230.68 134.97 231.68 135.69 232.18 C 136.41 232.69 137.41 232.51 137.92 231.79 L 138.51 230.94 C 139.02 230.22 138.84 229.22 138.11 228.72 C 137.39 228.21 136.39 228.39 135.89 229.11 Z M 135.30 229.96 L 134.73 230.78 C 134.22 231.50 134.40 232.49 135.12 233.00 C 135.83 233.50 136.83 233.33 137.33 232.61 L 137.91 231.79 C 138.41 231.07 138.24 230.07 137.52 229.57 C 136.80 229.06 135.81 229.24 135.30 229.96 Z M 134.73 230.79 L 134.17 231.59 C 133.67 232.30 133.85 233.29 134.56 233.79 C 135.28 234.29 136.26 234.12 136.76 233.40 L 137.33 232.60 C 137.83 231.89 137.65 230.90 136.94 230.40 C 136.22 229.90 135.24 230.07 134.73 230.79 Z M 134.18 231.60 L 133.60 232.43 C 133.10 233.15 133.28 234.12 133.99 234.62 C 134.70 235.12 135.68 234.94 136.18 234.23 L 136.76 233.39 C 137.26 232.68 137.08 231.70 136.37 231.20 C 135.65 230.71 134.67 230.88 134.18 231.60 Z M 133.60 232.44 L 133.02 233.29 C 132.53 234.00 132.71 234.97 133.42 235.46 C 134.13 235.95 135.10 235.77 135.59 235.06 L 136.17 234.22 C 136.66 233.51 136.49 232.53 135.78 232.04 C 135.07 231.55 134.09 231.73 133.60 232.44 Z M 133.03 233.29 L 132.48 234.09 C 131.99 234.80 132.17 235.77 132.87 236.25 C 133.58 236.74 134.55 236.56 135.03 235.86 L 135.59 235.05 C 136.07 234.35 135.89 233.38 135.19 232.89 C 134.48 232.41 133.52 232.59 133.03 233.29 Z M 132.49 234.10 L 131.92 234.91 C 131.43 235.61 131.61 236.57 132.31 237.06 C 133.00 237.54 133.96 237.37 134.45 236.67 L 135.02 235.85 C 135.51 235.16 135.33 234.20 134.63 233.71 C 133.94 233.22 132.98 233.40 132.49 234.10 Z M 131.94 234.91 L 131.35 235.74 C 130.86 236.43 131.02 237.38 131.71 237.87 C 132.40 238.36 133.35 238.20 133.84 237.51 L 134.43 236.68 C 134.92 235.99 134.76 235.04 134.07 234.55 C 133.38 234.06 132.43 234.22 131.94 234.91 Z M 131.37 235.72 L 130.80 236.50 C 130.30 237.18 130.44 238.13 131.12 238.63 C 131.80 239.12 132.75 238.98 133.25 238.30 L 133.82 237.53 C 134.32 236.85 134.17 235.90 133.50 235.40 C 132.82 234.90 131.87 235.05 131.37 235.72 Z M 130.83 236.47 L 130.22 237.26 C 129.70 237.92 129.82 238.87 130.48 239.39 C 131.14 239.90 132.09 239.78 132.60 239.12 L 133.22 238.33 C 133.73 237.67 133.61 236.72 132.95 236.21 C 132.29 235.69 131.34 235.81 130.83 236.47 Z M 130.25 237.22 L 129.62 237.98 C 129.08 238.62 129.16 239.57 129.80 240.11 C 130.44 240.64 131.39 240.56 131.93 239.92 L 132.57 239.16 C 133.10 238.52 133.02 237.57 132.38 237.03 C 131.74 236.50 130.79 236.58 130.25 237.22 Z M 129.67 237.93 L 129.00 238.66 C 128.43 239.27 128.47 240.22 129.08 240.78 C 129.69 241.35 130.65 241.31 131.21 240.70 L 131.88 239.97 C 132.44 239.36 132.40 238.41 131.79 237.84 C 131.18 237.28 130.23 237.32 129.67 237.93 Z M 129.06 238.60 L 128.34 239.29 C 127.74 239.86 127.73 240.82 128.30 241.41 C 128.88 242.01 129.83 242.03 130.43 241.45 L 131.15 240.76 C 131.74 240.18 131.76 239.23 131.18 238.63 C 130.61 238.04 129.66 238.02 129.06 238.60 Z M 128.43 239.21 L 127.65 239.85 C 127.01 240.38 126.92 241.33 127.45 241.97 C 127.98 242.60 128.92 242.69 129.56 242.17 L 130.34 241.53 C 130.98 241.00 131.07 240.05 130.54 239.41 C 130.01 238.78 129.07 238.69 128.43 239.21 Z M 127.77 239.77 L 126.92 240.34 C 126.24 240.80 126.06 241.73 126.52 242.41 C 126.98 243.10 127.91 243.28 128.59 242.82 L 129.44 242.25 C 130.13 241.79 130.31 240.86 129.85 240.18 C 129.39 239.49 128.46 239.31 127.77 239.77 Z M 127.08 240.25 L 126.20 240.70 C 125.46 241.08 125.17 241.97 125.54 242.71 C 125.92 243.44 126.81 243.73 127.55 243.36 L 128.43 242.91 C 129.17 242.54 129.46 241.64 129.08 240.91 C 128.71 240.17 127.82 239.88 127.08 240.25 Z M 126.44 240.62 L 125.42 240.93 C 124.64 241.17 124.20 242.00 124.44 242.78 C 124.68 243.56 125.51 244.00 126.29 243.76 L 127.31 243.45 C 128.09 243.21 128.53 242.38 128.29 241.60 C 128.05 240.81 127.22 240.38 126.44 240.62 Z M 125.96 240.88 L 125.02 240.81 C 124.21 240.76 123.51 241.36 123.45 242.17 C 123.40 242.98 124.00 243.68 124.81 243.74 L 125.75 243.81 C 126.56 243.87 127.26 243.26 127.32 242.45 C 127.37 241.64 126.77 240.94 125.96 240.88 Z M 126.06 241.38 L 125.55 240.74 C 125.06 240.11 124.15 240.00 123.52 240.50 C 122.89 240.99 122.78 241.90 123.27 242.54 L 123.78 243.17 C 124.27 243.80 125.18 243.91 125.81 243.42 C 126.44 242.92 126.55 242.01 126.06 241.38 Z M 125.83 241.37 L 125.63 240.34 C 125.49 239.56 124.74 239.04 123.96 239.19 C 123.18 239.33 122.66 240.08 122.81 240.87 L 123.00 241.90 C 123.15 242.68 123.90 243.20 124.68 243.05 C 125.46 242.91 125.97 242.15 125.83 241.37 Z M 125.64 240.46 L 125.61 240.12 C 125.53 239.33 124.83 238.76 124.05 238.84 C 123.26 238.92 122.69 239.62 122.77 240.40 L 122.80 240.74 C 122.88 241.53 123.58 242.10 124.36 242.02 C 125.15 241.95 125.72 241.25 125.64 240.46 Z"
      fill="black"
      fill-rule="nonzero" /><path d="M 143.67 154.27 L 143.79 153.07 C 143.86 152.26 143.26 151.53 142.45 151.46 C 141.64 151.38 140.92 151.98 140.84 152.79 L 140.73 153.99 C 140.65 154.80 141.25 155.52 142.06 155.60 C 142.88 155.68 143.60 155.08 143.67 154.27 Z M 143.77 153.27 L 143.98 152.35 C 144.17 151.54 143.66 150.74 142.86 150.55 C 142.06 150.37 141.25 150.87 141.07 151.67 L 140.86 152.60 C 140.67 153.40 141.17 154.20 141.98 154.39 C 142.78 154.57 143.58 154.07 143.77 153.27 Z M 143.39 153.25 L 143.95 152.86 C 144.63 152.38 144.80 151.44 144.32 150.76 C 143.85 150.07 142.91 149.91 142.23 150.38 L 141.66 150.77 C 140.98 151.25 140.81 152.19 141.29 152.87 C 141.76 153.56 142.70 153.72 143.39 153.25 Z M 142.37 152.96 L 143.28 153.45 C 144.02 153.85 144.95 153.57 145.34 152.83 C 145.74 152.09 145.46 151.16 144.72 150.77 L 143.81 150.28 C 143.07 149.88 142.14 150.16 141.74 150.90 C 141.34 151.64 141.62 152.56 142.37 152.96 Z M 142.90 153.18 L 143.60 153.90 C 144.20 154.51 145.17 154.52 145.78 153.93 C 146.38 153.34 146.40 152.37 145.80 151.76 L 145.10 151.04 C 144.51 150.43 143.54 150.42 142.93 151.01 C 142.32 151.60 142.31 152.57 142.90 153.18 Z M 143.44 153.71 L 144.00 154.51 C 144.49 155.21 145.45 155.38 146.15 154.89 C 146.84 154.41 147.01 153.44 146.53 152.75 L 145.97 151.95 C 145.48 151.25 144.52 151.08 143.82 151.57 C 143.12 152.05 142.95 153.02 143.44 153.71 Z M 143.95 154.44 L 144.46 155.27 C 144.90 155.99 145.86 156.22 146.58 155.77 C 147.31 155.32 147.54 154.37 147.09 153.64 L 146.58 152.82 C 146.13 152.09 145.18 151.86 144.45 152.31 C 143.72 152.76 143.50 153.71 143.95 154.44 Z M 144.45 155.26 L 144.99 156.15 C 145.43 156.88 146.38 157.11 147.12 156.66 C 147.85 156.22 148.08 155.27 147.63 154.54 L 147.09 153.65 C 146.65 152.92 145.70 152.69 144.97 153.13 C 144.24 153.58 144.00 154.53 144.45 155.26 Z M 144.99 156.15 L 145.50 156.99 C 145.95 157.72 146.91 157.95 147.64 157.50 C 148.37 157.05 148.60 156.09 148.15 155.36 L 147.63 154.53 C 147.18 153.80 146.23 153.57 145.50 154.02 C 144.77 154.47 144.54 155.42 144.99 156.15 Z M 145.48 156.97 L 146.01 157.86 C 146.45 158.60 147.40 158.84 148.14 158.40 C 148.88 157.96 149.13 157.01 148.69 156.27 L 148.16 155.38 C 147.73 154.64 146.77 154.40 146.03 154.84 C 145.29 155.27 145.05 156.23 145.48 156.97 Z M 145.98 157.81 L 146.46 158.68 C 146.87 159.43 147.82 159.71 148.57 159.30 C 149.33 158.89 149.60 157.94 149.19 157.18 L 148.72 156.32 C 148.30 155.56 147.36 155.28 146.60 155.69 C 145.85 156.11 145.57 157.06 145.98 157.81 Z M 146.43 158.65 L 146.89 159.54 C 147.29 160.30 148.23 160.61 148.99 160.21 C 149.76 159.82 150.06 158.88 149.67 158.11 L 149.21 157.22 C 148.82 156.45 147.88 156.15 147.11 156.54 C 146.34 156.94 146.04 157.88 146.43 158.65 Z M 146.88 159.52 L 147.33 160.42 C 147.72 161.20 148.66 161.51 149.43 161.12 C 150.20 160.73 150.52 159.79 150.13 159.02 L 149.68 158.12 C 149.29 157.35 148.35 157.04 147.58 157.42 C 146.81 157.81 146.50 158.75 146.88 159.52 Z M 147.33 160.42 L 147.77 161.31 C 148.16 162.08 149.10 162.39 149.87 162.01 C 150.64 161.62 150.96 160.68 150.57 159.91 L 150.13 159.02 C 149.75 158.25 148.81 157.94 148.03 158.32 C 147.26 158.71 146.94 159.65 147.33 160.42 Z M 147.77 161.30 L 148.21 162.20 C 148.59 162.98 149.53 163.30 150.31 162.92 C 151.09 162.54 151.41 161.60 151.02 160.82 L 150.58 159.91 C 150.20 159.14 149.26 158.82 148.48 159.20 C 147.70 159.58 147.38 160.52 147.77 161.30 Z M 148.21 162.19 L 148.64 163.09 C 149.02 163.87 149.95 164.20 150.73 163.82 C 151.51 163.45 151.84 162.51 151.46 161.73 L 151.03 160.83 C 150.65 160.05 149.72 159.72 148.94 160.10 C 148.16 160.48 147.83 161.41 148.21 162.19 Z M 148.63 163.09 L 149.06 163.98 C 149.43 164.76 150.37 165.10 151.15 164.72 C 151.94 164.35 152.27 163.41 151.90 162.63 L 151.47 161.74 C 151.10 160.95 150.16 160.62 149.38 160.99 C 148.59 161.37 148.26 162.30 148.63 163.09 Z M 149.06 163.98 L 149.50 164.90 C 149.87 165.68 150.81 166.01 151.59 165.64 C 152.37 165.26 152.71 164.32 152.33 163.54 L 151.90 162.63 C 151.52 161.84 150.58 161.51 149.80 161.89 C 149.02 162.26 148.69 163.20 149.06 163.98 Z M 149.50 164.91 L 149.93 165.80 C 150.31 166.58 151.25 166.90 152.03 166.52 C 152.82 166.14 153.14 165.20 152.76 164.42 L 152.33 163.53 C 151.95 162.75 151.01 162.42 150.23 162.80 C 149.45 163.18 149.12 164.12 149.50 164.91 Z M 149.93 165.80 L 150.36 166.69 C 150.75 167.47 151.69 167.79 152.47 167.41 C 153.25 167.03 153.58 166.08 153.20 165.30 L 152.76 164.42 C 152.38 163.63 151.44 163.31 150.65 163.69 C 149.87 164.08 149.55 165.02 149.93 165.80 Z M 150.36 166.68 L 150.80 167.60 C 151.18 168.38 152.12 168.71 152.91 168.33 C 153.69 167.95 154.02 167.01 153.64 166.22 L 153.20 165.31 C 152.82 164.52 151.88 164.19 151.09 164.57 C 150.31 164.95 149.98 165.90 150.36 166.68 Z M 150.79 167.58 L 151.20 168.47 C 151.57 169.26 152.51 169.61 153.31 169.24 C 154.10 168.87 154.44 167.92 154.07 167.13 L 153.66 166.24 C 153.29 165.45 152.34 165.11 151.55 165.47 C 150.76 165.84 150.42 166.79 150.79 167.58 Z M 151.19 168.45 L 151.59 169.33 C 151.95 170.13 152.88 170.48 153.68 170.12 C 154.48 169.76 154.84 168.82 154.48 168.03 L 154.08 167.15 C 153.72 166.35 152.78 166.00 151.99 166.36 C 151.19 166.72 150.83 167.65 151.19 168.45 Z M 151.58 169.31 L 151.98 170.24 C 152.33 171.04 153.27 171.40 154.07 171.05 C 154.88 170.70 155.24 169.76 154.89 168.96 L 154.49 168.04 C 154.13 167.23 153.20 166.87 152.39 167.22 C 151.59 167.57 151.22 168.51 151.58 169.31 Z M 151.98 170.23 L 152.40 171.21 C 152.75 172.01 153.68 172.38 154.49 172.04 C 155.30 171.69 155.67 170.75 155.32 169.94 L 154.90 168.97 C 154.55 168.16 153.61 167.79 152.81 168.14 C 152.00 168.49 151.63 169.42 151.98 170.23 Z M 152.39 171.20 L 152.77 172.09 C 153.12 172.90 154.06 173.27 154.87 172.92 C 155.67 172.58 156.05 171.64 155.70 170.83 L 155.32 169.95 C 154.98 169.14 154.04 168.76 153.23 169.11 C 152.42 169.46 152.05 170.39 152.39 171.20 Z M 152.77 172.09 L 153.16 173.00 C 153.51 173.81 154.44 174.19 155.25 173.84 C 156.06 173.50 156.44 172.56 156.10 171.75 L 155.71 170.83 C 155.36 170.02 154.42 169.65 153.61 169.99 C 152.80 170.34 152.42 171.27 152.77 172.09 Z M 153.16 173.00 L 153.55 173.93 C 153.90 174.75 154.84 175.13 155.65 174.78 C 156.46 174.44 156.84 173.50 156.50 172.69 L 156.10 171.75 C 155.75 170.94 154.82 170.56 154.00 170.90 C 153.19 171.25 152.81 172.19 153.16 173.00 Z M 153.55 173.93 L 153.95 174.88 C 154.29 175.69 155.23 176.07 156.05 175.73 C 156.86 175.38 157.24 174.45 156.90 173.63 L 156.50 172.69 C 156.16 171.87 155.22 171.49 154.40 171.84 C 153.59 172.18 153.21 173.12 153.55 173.93 Z M 153.95 174.88 L 154.34 175.81 C 154.68 176.62 155.62 177.01 156.44 176.66 C 157.25 176.32 157.64 175.38 157.29 174.56 L 156.90 173.63 C 156.56 172.82 155.62 172.43 154.80 172.78 C 153.99 173.12 153.60 174.06 153.95 174.88 Z M 154.34 175.81 L 154.73 176.73 C 155.07 177.55 156.01 177.93 156.83 177.58 C 157.64 177.24 158.03 176.30 157.68 175.48 L 157.29 174.56 C 156.95 173.74 156.01 173.36 155.19 173.71 C 154.38 174.05 153.99 174.99 154.34 175.81 Z M 154.73 176.73 L 155.12 177.65 C 155.46 178.47 156.40 178.85 157.22 178.50 C 158.04 178.16 158.42 177.21 158.07 176.40 L 157.68 175.48 C 157.34 174.66 156.39 174.28 155.58 174.63 C 154.76 174.97 154.38 175.92 154.73 176.73 Z M 155.12 177.66 L 155.51 178.58 C 155.86 179.39 156.81 179.77 157.62 179.42 C 158.44 179.07 158.82 178.12 158.46 177.31 L 158.07 176.39 C 157.72 175.57 156.78 175.20 155.96 175.55 C 155.14 175.90 154.77 176.84 155.12 177.66 Z M 155.51 178.58 L 155.91 179.50 C 156.27 180.31 157.22 180.69 158.03 180.33 C 158.85 179.98 159.22 179.03 158.86 178.21 L 158.46 177.30 C 158.11 176.48 157.16 176.11 156.34 176.47 C 155.53 176.82 155.16 177.77 155.51 178.58 Z M 155.92 179.51 L 156.32 180.43 C 156.69 181.24 157.64 181.60 158.45 181.24 C 159.26 180.88 159.63 179.93 159.27 179.11 L 158.86 178.20 C 158.50 177.39 157.54 177.02 156.73 177.39 C 155.92 177.75 155.55 178.70 155.92 179.51 Z M 156.33 180.44 L 156.75 181.35 C 157.12 182.16 158.07 182.52 158.88 182.15 C 159.69 181.77 160.05 180.82 159.68 180.01 L 159.26 179.10 C 158.89 178.29 157.93 177.93 157.12 178.30 C 156.31 178.68 155.96 179.63 156.33 180.44 Z M 156.75 181.37 L 157.18 182.28 C 157.56 183.08 158.53 183.42 159.33 183.04 C 160.14 182.66 160.48 181.70 160.10 180.90 L 159.67 179.99 C 159.29 179.19 158.33 178.84 157.52 179.22 C 156.72 179.60 156.37 180.57 156.75 181.37 Z M 157.19 182.30 L 157.64 183.20 C 158.03 184.00 159.00 184.33 159.80 183.93 C 160.60 183.54 160.93 182.57 160.53 181.77 L 160.09 180.87 C 159.69 180.07 158.73 179.74 157.93 180.14 C 157.13 180.53 156.80 181.50 157.19 182.30 Z M 157.65 183.22 L 158.11 184.13 C 158.52 184.92 159.49 185.23 160.29 184.83 C 161.08 184.42 161.39 183.45 160.98 182.65 L 160.52 181.75 C 160.11 180.96 159.14 180.64 158.35 181.05 C 157.55 181.46 157.24 182.43 157.65 183.22 Z M 158.12 184.15 L 158.60 185.04 C 159.02 185.83 160.00 186.12 160.79 185.70 C 161.57 185.28 161.87 184.30 161.45 183.51 L 160.97 182.62 C 160.55 181.84 159.57 181.54 158.78 181.97 C 158.00 182.39 157.70 183.37 158.12 184.15 Z M 158.61 185.07 L 159.10 185.93 C 159.54 186.71 160.52 186.99 161.30 186.55 C 162.08 186.11 162.36 185.13 161.92 184.35 L 161.43 183.48 C 161.00 182.70 160.01 182.43 159.23 182.86 C 158.45 183.30 158.18 184.29 158.61 185.07 Z M 159.11 185.96 L 159.62 186.81 C 160.07 187.58 161.06 187.84 161.83 187.39 C 162.60 186.93 162.86 185.94 162.41 185.17 L 161.90 184.32 C 161.45 183.55 160.46 183.29 159.69 183.75 C 158.92 184.20 158.66 185.19 159.11 185.96 Z M 159.64 186.84 L 160.18 187.72 C 160.65 188.48 161.65 188.71 162.41 188.24 C 163.17 187.77 163.40 186.77 162.93 186.01 L 162.39 185.14 C 161.91 184.38 160.92 184.14 160.16 184.61 C 159.40 185.09 159.16 186.09 159.64 186.84 Z M 160.20 187.75 L 160.75 188.60 C 161.24 189.34 162.25 189.55 162.99 189.06 C 163.74 188.57 163.95 187.57 163.46 186.82 L 162.91 185.98 C 162.42 185.23 161.41 185.02 160.67 185.51 C 159.92 186.00 159.71 187.00 160.20 187.75 Z M 160.77 188.63 L 161.33 189.44 C 161.84 190.17 162.85 190.36 163.59 189.85 C 164.32 189.34 164.51 188.33 164.00 187.60 L 163.44 186.79 C 162.93 186.05 161.92 185.87 161.19 186.38 C 160.45 186.89 160.27 187.89 160.77 188.63 Z M 161.36 189.47 L 161.94 190.27 C 162.47 190.99 163.48 191.14 164.20 190.62 C 164.92 190.09 165.08 189.08 164.55 188.35 L 163.97 187.56 C 163.45 186.84 162.43 186.68 161.71 187.21 C 160.99 187.74 160.83 188.75 161.36 189.47 Z M 161.97 190.30 L 162.59 191.10 C 163.14 191.81 164.15 191.94 164.86 191.39 C 165.56 190.84 165.69 189.83 165.15 189.12 L 164.52 188.32 C 163.98 187.61 162.96 187.48 162.25 188.03 C 161.55 188.58 161.42 189.59 161.97 190.30 Z M 162.62 191.14 L 163.25 191.91 C 163.82 192.60 164.83 192.70 165.52 192.13 C 166.21 191.56 166.31 190.55 165.75 189.86 L 165.12 189.09 C 164.55 188.40 163.53 188.30 162.84 188.86 C 162.15 189.43 162.05 190.45 162.62 191.14 Z M 163.28 191.94 L 163.92 192.68 C 164.50 193.36 165.52 193.43 166.20 192.85 C 166.87 192.27 166.95 191.25 166.36 190.57 L 165.72 189.83 C 165.14 189.15 164.12 189.08 163.44 189.66 C 162.77 190.24 162.69 191.26 163.28 191.94 Z M 163.95 192.71 L 164.64 193.47 C 165.24 194.13 166.26 194.18 166.92 193.59 C 167.58 192.99 167.63 191.97 167.03 191.31 L 166.34 190.55 C 165.74 189.89 164.72 189.83 164.06 190.43 C 163.40 191.03 163.35 192.05 163.95 192.71 Z M 164.67 193.50 L 165.38 194.25 C 165.99 194.89 167.01 194.92 167.65 194.30 C 168.30 193.69 168.32 192.67 167.71 192.03 L 167.00 191.28 C 166.39 190.64 165.37 190.61 164.73 191.22 C 164.08 191.84 164.06 192.86 164.67 193.50 Z M 165.42 194.28 L 166.12 194.97 C 166.75 195.59 167.76 195.59 168.39 194.96 C 169.01 194.33 169.00 193.31 168.37 192.69 L 167.67 192.00 C 167.04 191.37 166.03 191.38 165.40 192.01 C 164.78 192.64 164.79 193.66 165.42 194.28 Z M 166.17 195.01 L 166.90 195.68 C 167.55 196.27 168.57 196.23 169.16 195.57 C 169.76 194.92 169.71 193.90 169.05 193.31 L 168.32 192.64 C 167.67 192.05 166.65 192.10 166.06 192.75 C 165.46 193.41 165.51 194.42 166.17 195.01 Z M 166.97 195.73 L 167.77 196.38 C 168.45 196.94 169.46 196.83 170.01 196.15 C 170.57 195.47 170.47 194.46 169.78 193.90 L 168.98 193.25 C 168.30 192.70 167.29 192.80 166.74 193.49 C 166.18 194.17 166.28 195.18 166.97 195.73 Z M 167.82 196.42 L 168.59 196.99 C 169.30 197.51 170.30 197.36 170.82 196.66 C 171.34 195.95 171.19 194.95 170.49 194.43 L 169.72 193.86 C 169.02 193.34 168.02 193.49 167.49 194.19 C 166.97 194.90 167.12 195.90 167.82 196.42 Z M 168.62 197.00 L 169.43 197.58 C 170.14 198.08 171.13 197.91 171.64 197.20 C 172.15 196.48 171.98 195.49 171.26 194.99 L 170.46 194.42 C 169.74 193.91 168.75 194.08 168.25 194.79 C 167.74 195.51 167.91 196.50 168.62 197.00 Z M 169.45 197.58 L 170.27 198.15 C 170.99 198.65 171.97 198.47 172.47 197.75 C 172.97 197.03 172.79 196.04 172.07 195.55 L 171.24 194.98 C 170.52 194.48 169.54 194.66 169.04 195.38 C 168.55 196.10 168.73 197.09 169.45 197.58 Z M 170.30 198.16 L 171.13 198.71 C 171.86 199.19 172.83 199.00 173.31 198.27 C 173.79 197.54 173.60 196.57 172.87 196.09 L 172.04 195.54 C 171.31 195.06 170.34 195.25 169.85 195.98 C 169.37 196.71 169.57 197.68 170.30 198.16 Z M 171.16 198.72 L 172.01 199.26 C 172.74 199.73 173.71 199.51 174.17 198.78 C 174.64 198.05 174.42 197.08 173.69 196.62 L 172.84 196.08 C 172.11 195.61 171.14 195.83 170.68 196.56 C 170.21 197.29 170.43 198.26 171.16 198.72 Z M 172.02 199.26 L 172.85 199.79 C 173.58 200.25 174.54 200.03 175.00 199.30 C 175.46 198.57 175.25 197.61 174.52 197.15 L 173.68 196.62 C 172.96 196.16 171.99 196.38 171.53 197.11 C 171.07 197.84 171.29 198.80 172.02 199.26 Z M 172.84 199.77 L 173.69 200.32 C 174.41 200.79 175.37 200.58 175.84 199.86 C 176.30 199.14 176.10 198.18 175.38 197.71 L 174.53 197.17 C 173.81 196.70 172.85 196.91 172.38 197.63 C 171.92 198.35 172.12 199.31 172.84 199.77 Z M 173.69 200.32 L 174.52 200.86 C 175.24 201.33 176.20 201.12 176.67 200.41 C 177.13 199.69 176.93 198.73 176.21 198.26 L 175.38 197.72 C 174.66 197.25 173.70 197.45 173.23 198.17 C 172.77 198.89 172.97 199.85 173.69 200.32 Z M 174.53 200.86 L 175.36 201.39 C 176.08 201.86 177.04 201.65 177.50 200.93 C 177.96 200.21 177.75 199.25 177.03 198.79 L 176.20 198.26 C 175.48 197.80 174.53 198.01 174.06 198.72 C 173.60 199.44 173.81 200.40 174.53 200.86 Z M 175.36 201.39 L 176.20 201.93 C 176.92 202.39 177.87 202.18 178.33 201.46 C 178.79 200.74 178.58 199.79 177.87 199.33 L 177.03 198.79 C 176.31 198.33 175.36 198.54 174.90 199.26 C 174.44 199.98 174.65 200.93 175.36 201.39 Z M 176.19 201.91 L 177.04 202.47 C 177.75 202.94 178.70 202.74 179.17 202.04 C 179.63 201.33 179.44 200.38 178.73 199.91 L 177.88 199.35 C 177.17 198.88 176.22 199.08 175.75 199.78 C 175.29 200.49 175.48 201.44 176.19 201.91 Z M 177.03 202.46 L 177.87 203.03 C 178.57 203.50 179.52 203.32 179.99 202.62 C 180.47 201.92 180.28 200.97 179.59 200.50 L 178.74 199.93 C 178.05 199.45 177.10 199.63 176.62 200.33 C 176.15 201.03 176.33 201.98 177.03 202.46 Z M 177.87 203.02 L 178.70 203.58 C 179.39 204.05 180.34 203.87 180.81 203.17 C 181.28 202.48 181.10 201.53 180.40 201.06 L 179.58 200.50 C 178.89 200.03 177.94 200.21 177.47 200.91 C 177.00 201.60 177.18 202.55 177.87 203.02 Z M 178.72 203.59 L 179.57 204.15 C 180.27 204.60 181.21 204.41 181.67 203.71 C 182.13 203.01 181.93 202.07 181.23 201.62 L 180.38 201.05 C 179.68 200.60 178.74 200.79 178.28 201.49 C 177.82 202.19 178.02 203.13 178.72 203.59 Z M 179.60 204.15 L 180.41 204.67 C 181.12 205.12 182.05 204.91 182.49 204.20 C 182.94 203.50 182.73 202.57 182.02 202.12 L 181.21 201.61 C 180.50 201.16 179.57 201.37 179.13 202.07 C 178.68 202.78 178.89 203.71 179.60 204.15 Z M 180.44 204.68 L 181.30 205.20 C 182.01 205.63 182.94 205.40 183.36 204.69 C 183.79 203.98 183.56 203.06 182.85 202.63 L 181.99 202.11 C 181.28 201.68 180.36 201.91 179.93 202.62 C 179.50 203.33 179.73 204.26 180.44 204.68 Z M 181.35 205.22 L 182.23 205.71 C 182.96 206.11 183.86 205.85 184.26 205.12 C 184.66 204.40 184.40 203.49 183.68 203.09 L 182.80 202.61 C 182.08 202.21 181.17 202.47 180.77 203.19 C 180.37 203.91 180.63 204.82 181.35 205.22 Z M 182.30 205.73 L 183.19 206.18 C 183.92 206.54 184.82 206.24 185.18 205.50 C 185.55 204.77 185.25 203.87 184.51 203.51 L 183.62 203.07 C 182.88 202.70 181.99 203.00 181.62 203.74 C 181.26 204.48 181.56 205.37 182.30 205.73 Z M 183.25 206.20 L 184.09 206.57 C 184.84 206.91 185.72 206.57 186.05 205.82 C 186.38 205.08 186.05 204.20 185.30 203.87 L 184.45 203.49 C 183.70 203.16 182.83 203.49 182.50 204.24 C 182.16 204.99 182.50 205.86 183.25 206.20 Z M 184.17 206.60 L 185.15 206.97 C 185.91 207.26 186.76 206.88 187.05 206.12 C 187.34 205.36 186.96 204.51 186.20 204.22 L 185.22 203.84 C 184.46 203.55 183.61 203.93 183.32 204.70 C 183.03 205.46 183.41 206.31 184.17 206.60 Z M 185.21 206.98 L 186.14 207.30 C 186.91 207.56 187.74 207.14 188.00 206.37 C 188.26 205.60 187.84 204.77 187.07 204.51 L 186.14 204.20 C 185.37 203.94 184.54 204.36 184.28 205.13 C 184.03 205.89 184.44 206.73 185.21 206.98 Z M 186.14 207.29 L 187.12 207.62 C 187.88 207.88 188.71 207.47 188.97 206.71 C 189.23 205.94 188.82 205.11 188.06 204.85 L 187.08 204.52 C 186.31 204.26 185.48 204.67 185.22 205.44 C 184.96 206.20 185.37 207.03 186.14 207.29 Z M 187.06 207.59 L 188.03 207.97 C 188.78 208.26 189.62 207.89 189.91 207.14 C 190.20 206.39 189.83 205.55 189.08 205.26 L 188.11 204.88 C 187.36 204.59 186.52 204.96 186.23 205.71 C 185.94 206.46 186.31 207.30 187.06 207.59 Z M 187.94 207.92 L 188.85 208.35 C 189.57 208.68 190.43 208.37 190.77 207.65 C 191.11 206.93 190.80 206.07 190.08 205.73 L 189.17 205.31 C 188.45 204.97 187.59 205.28 187.25 206.00 C 186.91 206.72 187.22 207.58 187.94 207.92 Z M 188.81 208.31 L 189.44 208.64 C 190.14 209.00 191.00 208.73 191.37 208.03 C 191.73 207.32 191.46 206.46 190.76 206.09 L 190.12 205.77 C 189.42 205.40 188.56 205.68 188.19 206.38 C 187.83 207.08 188.10 207.95 188.81 208.31 Z"
      fill="black"
      fill-rule="nonzero" /></svg>