<svg xmlns="http://www.w3.org/2000/svg" width="300" height="300" viewBox="0 0 300 300">
<path d="M 124.64 90.76 L 123.55 90.65 C 122.76 90.57 122.05 91.15 121.97 91.94 C 121.89 92.73 122.46 93.44 123.25 93.52 L 124.35 93.63 C 125.14 93.71 125.85 93.13 125.93 92.34 C 126.01 91.55 125.44 90.84 124.64 90.76 Z M 123.20 90.64 L 122.33 90.76 C 121.53 90.87 120.97 91.60 121.08 92.40 C 121.19 93.20 121.93 93.76 122.73 93.65 L 123.60 93.53 C 124.40 93.42 124.96 92.68 124.85 91.88 C 124.74 91.08 124.00 90.53 123.20 90.64 Z M 121.38 91.28 L 120.86 91.93 C 120.35 92.57 120.45 93.50 121.09 94.01 C 121.72 94.52 122.65 94.41 123.16 93.78 L 123.68 93.13 C 124.19 92.49 124.09 91.56 123.46 91.05 C 122.82 90.54 121.89 90.64 121.38 91.28 Z M 120.55 92.57 L 120.34 93.66 C 120.18 94.47 120.71 95.25 121.51 95.40 C 122.32 95.56 123.10 95.04 123.25 94.23 L 123.47 93.14 C 123.62 92.34 123.10 91.55 122.30 91.40 C 121.49 91.24 120.71 91.76 120.55 92.57 Z M 120.31 93.80 L 120.21 94.80 C 120.13 95.62 120.73 96.35 121.55 96.43 C 122.37 96.52 123.10 95.92 123.18 95.10 L 123.28 94.09 C 123.36 93.27 122.76 92.54 121.94 92.46 C 121.12 92.38 120.39 92.98 120.31 93.80 Z M 120.20 94.85 L 120.14 95.89 C 120.08 96.71 120.70 97.43 121.53 97.48 C 122.35 97.53 123.07 96.91 123.12 96.09 L 123.19 95.05 C 123.24 94.23 122.62 93.51 121.80 93.46 C 120.97 93.40 120.26 94.03 120.20 94.85 Z M 120.13 95.92 L 120.09 96.98 C 120.05 97.81 120.69 98.51 121.52 98.54 C 122.35 98.58 123.05 97.93 123.08 97.11 L 123.13 96.05 C 123.16 95.22 122.52 94.52 121.69 94.49 C 120.86 94.45 120.16 95.10 120.13 95.92 Z M 120.08 97.02 L 120.07 97.99 C 120.05 98.82 120.72 99.50 121.54 99.52 C 122.37 99.53 123.06 98.87 123.07 98.04 L 123.08 97.07 C 123.10 96.24 122.44 95.55 121.61 95.54 C 120.78 95.53 120.10 96.19 120.08 97.02 Z M 120.07 98.01 L 120.06 98.94 C 120.06 99.77 120.74 100.45 121.57 100.45 C 122.40 100.45 123.07 99.77 123.07 98.94 L 123.07 98.02 C 123.07 97.19 122.40 96.51 121.57 96.51 C 120.74 96.51 120.07 97.18 120.07 98.01 Z M 120.06 98.94 L 120.06 99.95 C 120.06 100.78 120.74 101.45 121.57 101.45 C 122.40 101.45 123.07 100.78 123.07 99.95 L 123.07 98.94 C 123.07 98.11 122.40 97.44 121.57 97.44 C 120.74 97.44 120.06 98.11 120.06 98.94 Z M 120.06 99.95 L 120.06 100.95 C 120.06 101.78 120.73 102.46 121.57 102.46 C 122.40 102.46 123.07 101.78 123.07 100.95 L 123.07 99.95 C 123.07 99.11 122.40 98.44 121.57 98.44 C 120.73 98.44 120.06 99.11 120.06 99.95 Z M 120.06 100.95 L 120.06 101.94 C 120.06 102.77 120.73 103.45 121.57 103.45 C 122.40 103.45 123.08 102.77 123.08 101.94 L 123.08 100.95 C 123.08 100.12 122.40 99.44 121.57 99.44 C 120.73 99.44 120.06 100.12 120.06 100.95 Z M 120.06 101.94 L 120.06 102.95 C 120.06 103.79 120.73 104.46 121.57 104.46 C 122.40 104.46 123.08 103.79 123.08 102.95 L 123.08 101.94 C 123.08 101.11 122.40 100.43 121.57 100.43 C 120.73 100.43 120.06 101.11 120.06 101.94 Z M 120.06 102.95 L 120.06 103.94 C 120.06 104.77 120.73 105.45 121.57 105.45 C 122.40 105.45 123.08 104.77 123.08 103.94 L 123.08 102.95 C 123.08 102.12 122.40 101.44 121.57 101.44 C 120.73 101.44 120.06 102.12 120.06 102.95 Z M 120.06 103.94 L 120.06 104.96 C 120.06 105.79 120.73 106.47 121.57 106.47 C 122.40 106.47 123.08 105.79 123.08 104.96 L 123.08 103.94 C 123.08 103.11 122.40 102.43 121.57 102.43 C 120.73 102.43 120.06 103.11 120.06 103.94 Z M 120.05 104.96 L 120.05 105.96 C 120.06 106.79 120.73 107.47 121.57 107.47 C 122.40 107.47 123.08 106.79 123.08 105.96 L 123.08 104.96 C 123.08 104.12 122.40 103.45 121.57 103.45 C 120.73 103.45 120.05 104.12 120.05 104.96 Z M 120.05 105.96 L 120.06 106.96 C 120.06 107.80 120.74 108.48 121.58 108.47 C 122.41 108.47 123.09 107.79 123.09 106.95 L 123.08 105.95 C 123.08 105.12 122.40 104.44 121.56 104.44 C 120.73 104.45 120.05 105.13 120.05 105.96 Z M 120.06 106.98 L 120.07 107.98 C 120.08 108.82 120.77 109.49 121.60 109.48 C 122.44 109.47 123.11 108.78 123.10 107.95 L 123.09 106.94 C 123.08 106.10 122.39 105.43 121.55 105.44 C 120.72 105.45 120.05 106.14 120.06 106.98 Z M 120.07 108.00 L 120.09 109.01 C 120.11 109.85 120.81 110.51 121.65 110.49 C 122.48 110.47 123.14 109.77 123.12 108.94 L 123.10 107.93 C 123.08 107.09 122.38 106.43 121.55 106.45 C 120.71 106.47 120.05 107.17 120.07 108.00 Z M 120.09 109.04 L 120.14 110.03 C 120.17 110.87 120.88 111.52 121.72 111.48 C 122.55 111.45 123.20 110.74 123.17 109.90 L 123.12 108.91 C 123.09 108.07 122.38 107.42 121.54 107.46 C 120.71 107.49 120.06 108.20 120.09 109.04 Z M 120.14 110.07 L 120.20 111.07 C 120.26 111.90 120.98 112.53 121.82 112.48 C 122.66 112.42 123.29 111.70 123.23 110.86 L 123.17 109.87 C 123.11 109.03 122.39 108.40 121.55 108.46 C 120.71 108.51 120.08 109.24 120.14 110.07 Z M 120.21 111.10 L 120.30 112.09 C 120.37 112.92 121.11 113.54 121.95 113.46 C 122.78 113.39 123.40 112.65 123.32 111.81 L 123.23 110.83 C 123.15 109.99 122.42 109.37 121.58 109.45 C 120.75 109.53 120.13 110.27 120.21 111.10 Z M 120.30 112.11 L 120.40 113.12 C 120.49 113.95 121.24 114.55 122.08 114.47 C 122.91 114.38 123.51 113.63 123.43 112.79 L 123.32 111.79 C 123.23 110.96 122.48 110.35 121.65 110.44 C 120.81 110.53 120.21 111.28 120.30 112.11 Z M 120.40 113.13 L 120.52 114.14 C 120.61 114.98 121.37 115.58 122.20 115.48 C 123.04 115.39 123.64 114.63 123.54 113.80 L 123.43 112.78 C 123.33 111.95 122.58 111.35 121.74 111.44 C 120.91 111.54 120.31 112.29 120.40 113.13 Z M 120.52 114.15 L 120.63 115.13 C 120.73 115.96 121.48 116.56 122.32 116.47 C 123.15 116.37 123.75 115.61 123.66 114.78 L 123.54 113.79 C 123.44 112.96 122.69 112.36 121.85 112.46 C 121.02 112.56 120.42 113.31 120.52 114.15 Z M 120.63 115.13 L 120.75 116.15 C 120.85 116.98 121.60 117.58 122.44 117.49 C 123.27 117.39 123.87 116.63 123.77 115.80 L 123.66 114.78 C 123.56 113.94 122.80 113.35 121.97 113.44 C 121.13 113.54 120.54 114.29 120.63 115.13 Z M 120.75 116.17 L 120.87 117.14 C 120.98 117.97 121.74 118.56 122.58 118.46 C 123.41 118.35 124.00 117.59 123.90 116.75 L 123.77 115.78 C 123.67 114.95 122.90 114.36 122.07 114.46 C 121.24 114.57 120.64 115.33 120.75 116.17 Z M 120.88 117.18 L 121.03 118.15 C 121.17 118.99 121.95 119.55 122.78 119.42 C 123.61 119.29 124.18 118.51 124.05 117.67 L 123.89 116.70 C 123.76 115.87 122.98 115.31 122.15 115.44 C 121.31 115.57 120.75 116.35 120.88 117.18 Z M 121.04 118.19 L 121.22 119.17 C 121.37 120.00 122.17 120.55 123.00 120.40 C 123.82 120.25 124.37 119.45 124.22 118.62 L 124.04 117.64 C 123.89 116.81 123.09 116.26 122.26 116.41 C 121.44 116.57 120.89 117.36 121.04 118.19 Z M 121.22 119.16 L 121.39 120.14 C 121.54 120.97 122.33 121.53 123.16 121.38 C 123.99 121.23 124.55 120.44 124.40 119.61 L 124.22 118.63 C 124.08 117.80 123.28 117.25 122.45 117.39 C 121.62 117.54 121.07 118.33 121.22 119.16 Z M 121.39 120.13 L 121.56 121.12 C 121.70 121.95 122.49 122.51 123.32 122.37 C 124.15 122.23 124.71 121.44 124.57 120.61 L 124.40 119.62 C 124.26 118.79 123.47 118.23 122.64 118.37 C 121.81 118.51 121.25 119.30 121.39 120.13 Z M 121.56 121.13 L 121.73 122.10 C 121.88 122.93 122.68 123.49 123.51 123.34 C 124.34 123.19 124.89 122.39 124.74 121.56 L 124.57 120.59 C 124.42 119.76 123.62 119.21 122.79 119.36 C 121.96 119.51 121.41 120.30 121.56 121.13 Z M 121.74 122.11 L 121.92 123.10 C 122.07 123.93 122.87 124.48 123.70 124.32 C 124.53 124.17 125.08 123.37 124.92 122.54 L 124.74 121.55 C 124.59 120.72 123.79 120.18 122.96 120.33 C 122.13 120.48 121.58 121.28 121.74 122.11 Z M 121.92 123.09 L 122.09 124.06 C 122.24 124.89 123.04 125.44 123.87 125.29 C 124.70 125.14 125.25 124.34 125.10 123.51 L 124.93 122.55 C 124.78 121.72 123.98 121.17 123.15 121.32 C 122.32 121.47 121.77 122.26 121.92 123.09 Z M 122.09 124.04 L 122.25 125.02 C 122.40 125.85 123.18 126.41 124.02 126.27 C 124.85 126.13 125.41 125.34 125.27 124.51 L 125.10 123.53 C 124.96 122.70 124.17 122.14 123.34 122.28 C 122.51 122.42 121.95 123.21 122.09 124.04 Z M 122.25 125.01 L 122.41 126.02 C 122.54 126.85 123.33 127.42 124.16 127.29 C 125.00 127.16 125.56 126.37 125.43 125.54 L 125.27 124.53 C 125.14 123.69 124.36 123.12 123.52 123.26 C 122.69 123.39 122.12 124.17 122.25 125.01 Z M 122.41 126.01 L 122.56 126.99 C 122.68 127.82 123.46 128.40 124.29 128.27 C 125.13 128.15 125.71 127.37 125.58 126.54 L 125.44 125.55 C 125.31 124.72 124.53 124.14 123.70 124.27 C 122.86 124.39 122.28 125.17 122.41 126.01 Z M 122.55 126.98 L 122.70 127.99 C 122.82 128.82 123.60 129.40 124.44 129.28 C 125.27 129.16 125.85 128.38 125.73 127.54 L 125.58 126.54 C 125.46 125.70 124.68 125.12 123.85 125.25 C 123.01 125.37 122.43 126.15 122.55 126.98 Z M 122.70 127.99 L 122.85 128.99 C 122.97 129.82 123.75 130.40 124.59 130.28 C 125.42 130.16 126.00 129.38 125.88 128.54 L 125.73 127.54 C 125.61 126.71 124.83 126.13 123.99 126.25 C 123.16 126.37 122.58 127.15 122.70 127.99 Z M 122.85 128.99 L 122.99 129.97 C 123.12 130.81 123.89 131.39 124.73 131.27 C 125.57 131.14 126.14 130.37 126.02 129.53 L 125.88 128.54 C 125.76 127.71 124.98 127.13 124.14 127.25 C 123.30 127.37 122.73 128.15 122.85 128.99 Z M 122.99 129.96 L 123.13 130.95 C 123.25 131.79 124.02 132.37 124.86 132.25 C 125.69 132.14 126.28 131.36 126.16 130.53 L 126.02 129.54 C 125.91 128.70 125.13 128.12 124.30 128.24 C 123.46 128.35 122.87 129.13 122.99 129.96 Z M 123.13 130.93 L 123.25 131.92 C 123.36 132.76 124.13 133.35 124.97 133.24 C 125.81 133.14 126.40 132.37 126.29 131.53 L 126.16 130.54 C 126.06 129.70 125.29 129.11 124.45 129.22 C 123.61 129.33 123.02 130.09 123.13 130.93 Z M 123.25 131.91 L 123.37 132.90 C 123.48 133.74 124.24 134.34 125.08 134.24 C 125.92 134.14 126.51 133.37 126.41 132.54 L 126.29 131.54 C 126.19 130.70 125.43 130.10 124.59 130.21 C 123.75 130.31 123.15 131.07 123.25 131.91 Z M 123.37 132.90 L 123.49 133.90 C 123.59 134.74 124.35 135.34 125.19 135.24 C 126.03 135.14 126.63 134.38 126.53 133.54 L 126.41 132.54 C 126.31 131.70 125.55 131.10 124.71 131.20 C 123.87 131.30 123.27 132.06 123.37 132.90 Z M 123.49 133.89 L 123.61 134.89 C 123.70 135.73 124.46 136.33 125.30 136.23 C 126.14 136.14 126.75 135.38 126.65 134.54 L 126.53 133.54 C 126.43 132.70 125.67 132.10 124.83 132.20 C 124.00 132.29 123.39 133.05 123.49 133.89 Z M 123.61 134.88 L 123.71 135.87 C 123.81 136.71 124.56 137.32 125.40 137.23 C 126.24 137.13 126.85 136.38 126.76 135.54 L 126.65 134.55 C 126.56 133.71 125.80 133.10 124.96 133.19 C 124.12 133.28 123.51 134.04 123.61 134.88 Z M 123.71 135.86 L 123.81 136.86 C 123.90 137.70 124.65 138.32 125.49 138.23 C 126.33 138.15 126.94 137.40 126.86 136.56 L 126.76 135.55 C 126.68 134.71 125.93 134.10 125.08 134.18 C 124.24 134.26 123.63 135.01 123.71 135.86 Z M 123.81 136.85 L 123.90 137.85 C 123.98 138.69 124.73 139.31 125.57 139.23 C 126.41 139.15 127.03 138.41 126.95 137.56 L 126.86 136.57 C 126.78 135.73 126.04 135.11 125.19 135.19 C 124.35 135.26 123.73 136.01 123.81 136.85 Z M 123.90 137.85 L 123.99 138.83 C 124.07 139.67 124.82 140.29 125.66 140.21 C 126.50 140.14 127.12 139.39 127.04 138.55 L 126.95 137.57 C 126.88 136.72 126.13 136.10 125.29 136.18 C 124.45 136.26 123.83 137.01 123.90 137.85 Z M 124.00 138.84 L 124.09 139.83 C 124.17 140.67 124.92 141.29 125.76 141.20 C 126.61 141.12 127.22 140.37 127.14 139.53 L 127.04 138.54 C 126.96 137.70 126.21 137.08 125.37 137.17 C 124.53 137.25 123.91 138.00 124.00 138.84 Z M 124.09 139.84 L 124.20 140.84 C 124.28 141.68 125.04 142.29 125.88 142.20 C 126.72 142.11 127.33 141.36 127.24 140.52 L 127.14 139.52 C 127.05 138.68 126.30 138.07 125.46 138.16 C 124.62 138.24 124.01 139.00 124.09 139.84 Z M 124.20 140.85 L 124.31 141.86 C 124.40 142.70 125.16 143.31 126.00 143.21 C 126.84 143.12 127.45 142.36 127.35 141.52 L 127.24 140.51 C 127.15 139.67 126.39 139.06 125.55 139.15 C 124.71 139.25 124.10 140.01 124.20 140.85 Z M 124.31 141.86 L 124.42 142.86 C 124.52 143.70 125.27 144.31 126.11 144.21 C 126.95 144.12 127.56 143.36 127.47 142.52 L 127.35 141.52 C 127.26 140.68 126.50 140.07 125.66 140.17 C 124.82 140.26 124.22 141.02 124.31 141.86 Z M 124.42 142.85 L 124.52 143.84 C 124.61 144.69 125.36 145.30 126.20 145.21 C 127.04 145.13 127.65 144.38 127.57 143.54 L 127.47 142.54 C 127.38 141.70 126.63 141.08 125.79 141.17 C 124.95 141.25 124.34 142.00 124.42 142.85 Z M 124.52 143.81 L 124.60 144.82 C 124.67 145.66 125.41 146.29 126.25 146.22 C 127.09 146.16 127.72 145.42 127.65 144.57 L 127.57 143.57 C 127.50 142.72 126.76 142.09 125.92 142.16 C 125.08 142.23 124.45 142.97 124.52 143.81 Z M 124.60 144.79 L 124.66 145.75 C 124.71 146.59 125.44 147.24 126.28 147.19 C 127.12 147.13 127.77 146.41 127.71 145.56 L 127.66 144.60 C 127.60 143.76 126.88 143.12 126.03 143.17 C 125.19 143.22 124.55 143.95 124.60 144.79 Z M 124.66 145.73 L 124.70 146.73 C 124.75 147.57 125.47 148.22 126.31 148.18 C 127.16 148.14 127.81 147.42 127.77 146.57 L 127.72 145.58 C 127.67 144.74 126.96 144.08 126.11 144.13 C 125.26 144.17 124.61 144.89 124.66 145.73 Z M 124.71 146.73 L 124.76 147.74 C 124.81 148.58 125.53 149.23 126.38 149.18 C 127.22 149.13 127.87 148.41 127.82 147.57 L 127.76 146.56 C 127.72 145.72 126.99 145.07 126.15 145.12 C 125.30 145.17 124.66 145.89 124.71 146.73 Z M 124.76 147.76 L 124.83 148.76 C 124.89 149.60 125.62 150.24 126.47 150.18 C 127.31 150.12 127.95 149.39 127.89 148.55 L 127.82 147.54 C 127.76 146.70 127.03 146.06 126.18 146.12 C 125.34 146.18 124.70 146.91 124.76 147.76 Z M 124.83 148.77 L 124.91 149.77 C 124.97 150.61 125.71 151.24 126.56 151.18 C 127.40 151.11 128.03 150.38 127.97 149.53 L 127.89 148.54 C 127.82 147.69 127.09 147.06 126.24 147.13 C 125.40 147.19 124.77 147.93 124.83 148.77 Z M 124.91 149.76 L 124.98 150.76 C 125.04 151.60 125.78 152.24 126.62 152.17 C 127.47 152.11 128.10 151.38 128.04 150.53 L 127.97 149.54 C 127.90 148.69 127.17 148.06 126.33 148.12 C 125.48 148.18 124.85 148.92 124.91 149.76 Z M 124.98 150.74 L 125.04 151.72 C 125.09 152.57 125.82 153.21 126.66 153.16 C 127.51 153.11 128.15 152.39 128.10 151.54 L 128.04 150.55 C 127.99 149.71 127.27 149.06 126.42 149.11 C 125.57 149.16 124.93 149.89 124.98 150.74 Z M 125.04 151.70 L 125.08 152.68 C 125.12 153.53 125.83 154.19 126.68 154.15 C 127.53 154.11 128.18 153.40 128.15 152.55 L 128.10 151.57 C 128.07 150.72 127.35 150.06 126.50 150.10 C 125.66 150.13 125.00 150.85 125.04 151.70 Z M 125.08 152.67 L 125.11 153.70 C 125.14 154.54 125.85 155.21 126.70 155.18 C 127.55 155.15 128.21 154.44 128.18 153.59 L 128.15 152.56 C 128.12 151.71 127.41 151.05 126.56 151.08 C 125.71 151.11 125.05 151.82 125.08 152.67 Z M 125.11 153.69 L 125.15 154.71 C 125.17 155.56 125.88 156.22 126.73 156.19 C 127.58 156.17 128.25 155.46 128.22 154.61 L 128.19 153.59 C 128.16 152.74 127.45 152.08 126.60 152.11 C 125.75 152.13 125.08 152.84 125.11 153.69 Z M 125.14 154.71 L 125.18 155.70 C 125.21 156.55 125.92 157.21 126.77 157.18 C 127.62 157.15 128.28 156.44 128.25 155.59 L 128.22 154.60 C 128.19 153.75 127.48 153.09 126.63 153.12 C 125.78 153.15 125.11 153.86 125.14 154.71 Z M 125.18 155.71 L 125.22 156.75 C 125.26 157.60 125.97 158.26 126.82 158.22 C 127.67 158.19 128.33 157.47 128.30 156.62 L 128.26 155.58 C 128.22 154.73 127.50 154.07 126.65 154.11 C 125.80 154.14 125.14 154.86 125.18 155.71 Z M 125.22 156.75 L 125.26 157.71 C 125.30 158.56 126.02 159.22 126.87 159.18 C 127.72 159.14 128.38 158.42 128.34 157.57 L 128.30 156.61 C 128.26 155.76 127.54 155.11 126.69 155.14 C 125.84 155.18 125.18 155.90 125.22 156.75 Z M 125.26 157.71 L 125.30 158.72 C 125.34 159.58 126.06 160.24 126.91 160.20 C 127.77 160.16 128.43 159.44 128.39 158.59 L 128.35 157.57 C 128.31 156.72 127.59 156.06 126.74 156.10 C 125.89 156.13 125.22 156.86 125.26 157.71 Z M 125.30 158.70 L 125.33 159.65 C 125.35 160.50 126.06 161.18 126.92 161.15 C 127.77 161.13 128.44 160.42 128.42 159.56 L 128.39 158.62 C 128.37 157.76 127.66 157.09 126.80 157.11 C 125.95 157.14 125.28 157.85 125.30 158.70 Z M 125.33 159.62 L 125.33 160.58 C 125.34 161.43 126.04 162.12 126.89 162.11 C 127.75 162.11 128.43 161.41 128.43 160.55 L 128.42 159.60 C 128.41 158.74 127.72 158.05 126.86 158.06 C 126.01 158.07 125.32 158.76 125.33 159.62 Z M 125.33 160.56 L 125.33 161.62 C 125.33 162.47 126.03 163.17 126.88 163.16 C 127.74 163.16 128.43 162.47 128.43 161.62 L 128.43 160.56 C 128.43 159.71 127.74 159.02 126.88 159.02 C 126.02 159.02 125.33 159.71 125.33 160.56 Z M 125.33 161.62 L 125.33 162.65 C 125.33 163.51 126.02 164.20 126.88 164.20 C 127.74 164.20 128.43 163.51 128.43 162.65 L 128.43 161.62 C 128.43 160.76 127.74 160.07 126.88 160.07 C 126.02 160.07 125.33 160.76 125.33 161.62 Z M 125.33 162.65 L 125.33 163.64 C 125.33 164.50 126.02 165.20 126.88 165.20 C 127.74 165.20 128.43 164.50 128.43 163.64 L 128.43 162.65 C 128.43 161.79 127.74 161.10 126.88 161.10 C 126.02 161.10 125.33 161.79 125.33 162.65 Z M 125.33 163.64 L 125.33 164.67 C 125.33 165.53 126.02 166.23 126.88 166.23 C 127.74 166.23 128.43 165.53 128.43 164.67 L 128.43 163.64 C 128.43 162.79 127.74 162.09 126.88 162.09 C 126.02 162.09 125.33 162.79 125.33 163.64 Z M 125.33 164.67 L 125.33 165.61 C 125.33 166.47 126.02 167.17 126.88 167.17 C 127.74 167.17 128.44 166.47 128.44 165.61 L 128.44 164.67 C 128.44 163.81 127.74 163.12 126.88 163.12 C 126.02 163.12 125.33 163.81 125.33 164.67 Z M 125.32 165.61 L 125.32 166.48 C 125.32 167.34 126.02 168.04 126.88 168.04 C 127.74 168.04 128.44 167.34 128.44 166.48 L 128.44 165.61 C 128.44 164.75 127.74 164.05 126.88 164.05 C 126.02 164.05 125.32 164.75 125.32 165.61 Z M 125.32 166.48 L 125.32 167.55 C 125.32 168.41 126.02 169.11 126.88 169.11 C 127.74 169.11 128.44 168.41 128.44 167.55 L 128.44 166.48 C 128.44 165.62 127.74 164.92 126.88 164.92 C 126.02 164.92 125.32 165.62 125.32 166.48 Z M 125.32 167.55 L 125.32 168.62 C 125.32 169.48 126.02 170.18 126.88 170.18 C 127.74 170.18 128.44 169.48 128.44 168.62 L 128.44 167.55 C 128.44 166.69 127.74 165.99 126.88 165.99 C 126.02 165.99 125.32 166.69 125.32 167.55 Z M 125.32 168.62 L 125.32 169.66 C 125.31 170.52 126.01 171.22 126.87 171.22 C 127.74 171.22 128.44 170.53 128.44 169.66 L 128.44 168.63 C 128.44 167.76 127.75 167.06 126.88 167.06 C 126.02 167.06 125.32 167.76 125.32 168.62 Z M 125.32 169.65 L 125.31 170.67 C 125.30 171.54 125.99 172.24 126.85 172.25 C 127.72 172.26 128.42 171.56 128.43 170.70 L 128.44 169.67 C 128.45 168.81 127.76 168.11 126.89 168.10 C 126.03 168.09 125.32 168.78 125.32 169.65 Z M 125.31 170.65 L 125.28 171.67 C 125.26 172.53 125.95 173.25 126.81 173.27 C 127.67 173.29 128.39 172.60 128.41 171.74 L 128.43 170.72 C 128.45 169.86 127.77 169.14 126.90 169.12 C 126.04 169.10 125.33 169.79 125.31 170.65 Z M 125.28 171.63 L 125.23 172.70 C 125.19 173.57 125.85 174.30 126.72 174.34 C 127.58 174.39 128.31 173.72 128.35 172.86 L 128.41 171.78 C 128.45 170.92 127.78 170.18 126.92 170.14 C 126.06 170.10 125.33 170.76 125.28 171.63 Z M 125.23 172.67 L 125.17 173.53 C 125.11 174.39 125.77 175.14 126.63 175.20 C 127.49 175.26 128.24 174.61 128.29 173.74 L 128.35 172.89 C 128.41 172.02 127.76 171.28 126.90 171.22 C 126.04 171.16 125.29 171.81 125.23 172.67 Z M 125.17 173.55 L 125.11 174.53 C 125.06 175.40 125.72 176.14 126.59 176.19 C 127.45 176.24 128.19 175.58 128.24 174.72 L 128.30 173.73 C 128.35 172.87 127.69 172.13 126.82 172.08 C 125.96 172.03 125.22 172.68 125.17 173.55 Z M 125.11 174.54 L 125.06 175.53 C 125.01 176.40 125.67 177.14 126.53 177.19 C 127.39 177.23 128.13 176.57 128.18 175.71 L 128.24 174.71 C 128.29 173.85 127.63 173.11 126.77 173.06 C 125.90 173.01 125.16 173.67 125.11 174.54 Z M 125.06 175.52 L 124.99 176.51 C 124.93 177.37 125.58 178.12 126.45 178.18 C 127.31 178.24 128.05 177.59 128.11 176.72 L 128.18 175.73 C 128.24 174.87 127.59 174.12 126.73 174.06 C 125.87 174.00 125.12 174.65 125.06 175.52 Z M 124.99 176.50 L 124.91 177.51 C 124.85 178.37 125.49 179.12 126.35 179.19 C 127.22 179.26 127.97 178.61 128.03 177.75 L 128.11 176.74 C 128.18 175.87 127.53 175.12 126.67 175.06 C 125.81 174.99 125.06 175.63 124.99 176.50 Z M 124.91 177.50 L 124.83 178.49 C 124.76 179.36 125.40 180.11 126.26 180.19 C 127.12 180.26 127.88 179.62 127.95 178.76 L 128.03 177.76 C 128.11 176.90 127.47 176.14 126.61 176.07 C 125.74 176.00 124.99 176.63 124.91 177.50 Z M 124.83 178.48 L 124.73 179.47 C 124.65 180.33 125.28 181.09 126.14 181.18 C 127.00 181.26 127.77 180.63 127.85 179.77 L 127.95 178.78 C 128.03 177.92 127.40 177.15 126.54 177.07 C 125.68 176.98 124.91 177.61 124.83 178.48 Z M 124.74 179.45 L 124.63 180.44 C 124.53 181.30 125.15 182.08 126.01 182.17 C 126.87 182.27 127.64 181.65 127.74 180.79 L 127.85 179.79 C 127.95 178.93 127.33 178.16 126.47 178.06 C 125.61 177.97 124.83 178.59 124.74 179.45 Z M 124.63 180.43 L 124.51 181.41 C 124.41 182.27 125.02 183.05 125.88 183.16 C 126.74 183.26 127.52 182.65 127.62 181.79 L 127.74 180.80 C 127.84 179.94 127.23 179.16 126.37 179.06 C 125.51 178.96 124.73 179.57 124.63 180.43 Z M 124.51 181.39 L 124.38 182.38 C 124.27 183.24 124.87 184.02 125.73 184.14 C 126.58 184.25 127.37 183.65 127.49 182.79 L 127.62 181.81 C 127.73 180.95 127.13 180.16 126.27 180.05 C 125.41 179.93 124.63 180.54 124.51 181.39 Z M 124.38 182.34 L 124.23 183.35 C 124.09 184.20 124.68 185.00 125.53 185.14 C 126.39 185.27 127.19 184.69 127.32 183.83 L 127.48 182.83 C 127.62 181.97 127.03 181.17 126.18 181.04 C 125.32 180.90 124.52 181.49 124.38 182.34 Z M 124.23 183.31 L 124.05 184.31 C 123.90 185.16 124.47 185.98 125.32 186.13 C 126.17 186.28 126.99 185.72 127.14 184.86 L 127.32 183.87 C 127.47 183.01 126.90 182.20 126.05 182.05 C 125.20 181.89 124.39 182.46 124.23 183.31 Z M 124.06 184.29 L 123.89 185.16 C 123.73 186.01 124.28 186.83 125.14 187.00 C 125.99 187.16 126.81 186.60 126.97 185.75 L 127.14 184.88 C 127.30 184.03 126.74 183.21 125.89 183.05 C 125.04 182.88 124.22 183.44 124.06 184.29 Z M 123.90 185.13 L 123.71 186.00 C 123.53 186.85 124.08 187.68 124.92 187.86 C 125.77 188.04 126.60 187.50 126.78 186.65 L 126.96 185.78 C 127.14 184.93 126.60 184.10 125.75 183.92 C 124.91 183.74 124.08 184.28 123.90 185.13 Z M 123.72 185.97 L 123.45 187.11 C 123.25 187.96 123.78 188.80 124.62 189.00 C 125.46 189.20 126.31 188.67 126.50 187.83 L 126.77 186.68 C 126.97 185.84 126.45 185.00 125.60 184.80 C 124.76 184.60 123.92 185.12 123.72 185.97 Z M 123.45 187.10 L 123.23 188.02 C 123.02 188.86 123.54 189.71 124.38 189.92 C 125.22 190.12 126.07 189.61 126.28 188.77 L 126.50 187.85 C 126.71 187.00 126.19 186.16 125.35 185.95 C 124.51 185.74 123.66 186.26 123.45 187.10 Z M 123.23 188.02 L 122.98 189.04 C 122.77 189.88 123.28 190.73 124.13 190.93 C 124.97 191.14 125.82 190.63 126.02 189.79 L 126.28 188.77 C 126.48 187.93 125.97 187.08 125.13 186.87 C 124.29 186.66 123.44 187.18 123.23 188.02 Z M 122.98 189.04 L 122.73 190.07 C 122.52 190.91 123.04 191.76 123.88 191.96 C 124.72 192.17 125.57 191.65 125.77 190.81 L 126.03 189.78 C 126.23 188.94 125.71 188.09 124.87 187.89 C 124.03 187.68 123.18 188.20 122.98 189.04 Z M 122.72 190.08 L 122.50 191.03 C 122.30 191.87 122.82 192.72 123.66 192.92 C 124.51 193.12 125.35 192.60 125.55 191.75 L 125.78 190.80 C 125.98 189.96 125.46 189.11 124.61 188.91 C 123.77 188.71 122.92 189.24 122.72 190.08 Z M 122.49 191.06 L 122.23 192.25 C 122.05 193.09 122.59 193.93 123.43 194.11 C 124.28 194.30 125.12 193.76 125.30 192.91 L 125.56 191.73 C 125.74 190.88 125.21 190.04 124.36 189.86 C 123.51 189.67 122.68 190.21 122.49 191.06 Z M 122.22 192.30 L 122.06 193.20 C 121.90 194.06 122.47 194.87 123.32 195.03 C 124.17 195.18 124.99 194.62 125.15 193.76 L 125.31 192.86 C 125.47 192.01 124.90 191.19 124.05 191.04 C 123.20 190.88 122.38 191.45 122.22 192.30 Z M 122.05 193.27 L 121.93 194.14 C 121.81 195.00 122.41 195.79 123.27 195.91 C 124.13 196.02 124.92 195.42 125.04 194.57 L 125.16 193.70 C 125.28 192.84 124.68 192.05 123.82 191.93 C 122.96 191.81 122.17 192.41 122.05 193.27 Z M 121.92 194.21 L 121.83 195.20 C 121.75 196.06 122.39 196.83 123.25 196.91 C 124.12 196.98 124.88 196.35 124.96 195.48 L 125.05 194.49 C 125.12 193.63 124.49 192.87 123.62 192.79 C 122.76 192.71 122.00 193.35 121.92 194.21 Z M 121.83 195.28 L 121.79 196.23 C 121.75 197.10 122.42 197.83 123.29 197.86 C 124.15 197.90 124.89 197.23 124.92 196.36 L 124.96 195.41 C 125.00 194.54 124.33 193.81 123.46 193.77 C 122.59 193.74 121.86 194.41 121.83 195.28 Z M 121.78 196.28 L 121.77 197.27 C 121.77 198.14 122.46 198.85 123.33 198.86 C 124.19 198.86 124.90 198.17 124.91 197.30 L 124.92 196.31 C 124.93 195.45 124.24 194.74 123.37 194.73 C 122.50 194.72 121.79 195.41 121.78 196.28 Z M 121.77 197.29 L 121.77 198.29 C 121.77 199.16 122.48 199.86 123.34 199.86 C 124.21 199.87 124.91 199.16 124.91 198.30 L 124.91 197.29 C 124.91 196.42 124.21 195.72 123.34 195.72 C 122.48 195.72 121.77 196.42 121.77 197.29 Z M 121.77 198.30 L 121.77 199.29 C 121.77 200.15 122.48 200.86 123.34 200.86 C 124.21 200.86 124.91 200.15 124.91 199.29 L 124.91 198.30 C 124.91 197.43 124.21 196.73 123.34 196.73 C 122.48 196.73 121.77 197.43 121.77 198.30 Z M 121.77 199.29 L 121.77 200.33 C 121.77 201.20 122.48 201.90 123.34 201.90 C 124.21 201.90 124.91 201.20 124.91 200.33 L 124.91 199.29 C 124.91 198.42 124.21 197.72 123.34 197.72 C 122.48 197.72 121.77 198.42 121.77 199.29 Z M 121.77 200.33 L 121.77 201.34 C 121.77 202.20 122.48 202.90 123.34 202.90 C 124.21 202.90 124.91 202.20 124.91 201.33 L 124.91 200.33 C 124.91 199.46 124.21 198.76 123.34 198.76 C 122.48 198.76 121.77 199.46 121.77 200.33 Z M 121.77 201.34 L 121.78 202.34 C 121.78 203.21 122.49 203.91 123.36 203.91 C 124.22 203.90 124.92 203.20 124.92 202.33 L 124.91 201.33 C 124.91 200.46 124.20 199.76 123.34 199.76 C 122.47 199.77 121.77 200.47 121.77 201.34 Z M 121.78 202.36 L 121.79 203.34 C 121.80 204.21 122.51 204.91 123.38 204.89 C 124.25 204.88 124.94 204.17 124.93 203.31 L 124.92 202.32 C 124.91 201.45 124.20 200.76 123.33 200.77 C 122.46 200.78 121.77 201.49 121.78 202.36 Z M 121.79 203.37 L 121.82 204.35 C 121.85 205.22 122.57 205.90 123.44 205.87 C 124.31 205.85 124.99 205.12 124.96 204.26 L 124.93 203.28 C 124.90 202.41 124.18 201.73 123.31 201.76 C 122.45 201.78 121.76 202.51 121.79 203.37 Z M 121.82 204.41 L 121.89 205.41 C 121.95 206.28 122.70 206.93 123.56 206.88 C 124.43 206.82 125.08 206.07 125.02 205.21 L 124.96 204.20 C 124.90 203.33 124.15 202.68 123.29 202.74 C 122.42 202.79 121.77 203.54 121.82 204.41 Z M 121.90 205.49 L 122.01 206.47 C 122.11 207.33 122.88 207.95 123.75 207.86 C 124.61 207.76 125.23 206.98 125.13 206.12 L 125.02 205.13 C 124.92 204.27 124.14 203.65 123.28 203.75 C 122.42 203.85 121.80 204.62 121.90 205.49 Z M 122.02 206.53 L 122.16 207.52 C 122.29 208.37 123.09 208.97 123.95 208.84 C 124.81 208.71 125.40 207.91 125.27 207.05 L 125.12 206.06 C 124.99 205.21 124.20 204.61 123.34 204.74 C 122.48 204.87 121.89 205.67 122.02 206.53 Z M 122.17 207.55 L 122.34 208.55 C 122.48 209.41 123.30 209.98 124.15 209.84 C 125.01 209.69 125.58 208.88 125.44 208.03 L 125.27 207.02 C 125.12 206.16 124.31 205.59 123.45 205.74 C 122.60 205.88 122.02 206.69 122.17 207.55 Z M 122.34 208.57 L 122.53 209.60 C 122.68 210.45 123.50 211.02 124.35 210.87 C 125.21 210.71 125.77 209.89 125.62 209.04 L 125.43 208.01 C 125.28 207.16 124.46 206.59 123.61 206.74 C 122.76 206.90 122.19 207.71 122.34 208.57 Z M 122.53 209.60 L 122.71 210.61 C 122.87 211.46 123.68 212.03 124.54 211.87 C 125.39 211.72 125.96 210.90 125.80 210.05 L 125.62 209.04 C 125.46 208.18 124.65 207.62 123.79 207.77 C 122.94 207.93 122.37 208.75 122.53 209.60 Z M 122.71 210.60 L 122.88 211.54 C 123.03 212.40 123.84 212.97 124.70 212.82 C 125.55 212.67 126.12 211.85 125.97 211.00 L 125.80 210.06 C 125.65 209.20 124.84 208.63 123.98 208.78 C 123.13 208.93 122.56 209.75 122.71 210.60 Z M 122.87 211.52 L 123.04 212.57 C 123.18 213.43 123.99 214.01 124.84 213.87 C 125.70 213.73 126.28 212.92 126.14 212.07 L 125.97 211.02 C 125.84 210.16 125.03 209.58 124.17 209.72 C 123.31 209.86 122.73 210.66 122.87 211.52 Z M 123.04 212.53 L 123.17 213.49 C 123.28 214.35 124.08 214.95 124.94 214.83 C 125.80 214.71 126.40 213.92 126.28 213.06 L 126.15 212.11 C 126.03 211.25 125.24 210.64 124.38 210.76 C 123.52 210.88 122.92 211.67 123.04 212.53 Z M 123.16 213.43 L 123.25 214.37 C 123.33 215.23 124.10 215.86 124.97 215.78 C 125.83 215.69 126.46 214.92 126.38 214.06 L 126.29 213.12 C 126.20 212.26 125.43 211.62 124.57 211.71 C 123.71 211.79 123.07 212.56 123.16 213.43 Z M 123.24 214.27 L 123.28 215.27 C 123.31 216.14 124.04 216.82 124.91 216.78 C 125.78 216.75 126.46 216.02 126.43 215.15 L 126.39 214.15 C 126.36 213.28 125.62 212.61 124.75 212.64 C 123.89 212.67 123.21 213.40 123.24 214.27 Z M 123.28 215.18 L 123.26 216.18 C 123.25 217.05 123.94 217.77 124.81 217.79 C 125.68 217.80 126.40 217.10 126.41 216.23 L 126.43 215.23 C 126.44 214.36 125.75 213.64 124.88 213.63 C 124.01 213.62 123.29 214.31 123.28 215.18 Z M 123.26 216.09 L 123.19 217.11 C 123.13 217.98 123.78 218.74 124.65 218.80 C 125.52 218.86 126.27 218.21 126.34 217.34 L 126.41 216.32 C 126.47 215.45 125.82 214.70 124.95 214.63 C 124.08 214.57 123.32 215.23 123.26 216.09 Z M 123.21 216.96 L 123.03 217.97 C 122.89 218.83 123.47 219.65 124.33 219.79 C 125.19 219.94 126.00 219.36 126.15 218.50 L 126.32 217.49 C 126.47 216.63 125.89 215.81 125.03 215.67 C 124.17 215.52 123.35 216.10 123.21 216.96 Z M 123.07 217.81 L 122.81 218.74 C 122.57 219.58 123.06 220.45 123.90 220.69 C 124.74 220.92 125.61 220.44 125.85 219.60 L 126.11 218.67 C 126.35 217.83 125.86 216.95 125.02 216.72 C 124.18 216.48 123.31 216.97 123.07 217.81 Z M 122.83 218.67 L 122.55 219.52 C 122.27 220.35 122.72 221.25 123.55 221.52 C 124.38 221.80 125.27 221.35 125.55 220.52 L 125.83 219.67 C 126.10 218.84 125.66 217.94 124.83 217.67 C 124.00 217.39 123.11 217.84 122.83 218.67 Z M 122.55 219.53 L 122.21 220.55 C 121.94 221.38 122.39 222.27 123.21 222.54 C 124.04 222.82 124.94 222.37 125.21 221.54 L 125.55 220.52 C 125.82 219.69 125.37 218.79 124.54 218.52 C 123.71 218.25 122.82 218.70 122.55 219.53 Z M 122.20 220.58 L 121.91 221.53 C 121.65 222.36 122.12 223.25 122.95 223.51 C 123.78 223.76 124.67 223.30 124.92 222.46 L 125.22 221.51 C 125.48 220.68 125.01 219.79 124.18 219.53 C 123.34 219.28 122.46 219.74 122.20 220.58 Z M 121.90 221.56 L 121.61 222.56 C 121.37 223.40 121.86 224.27 122.70 224.51 C 123.54 224.75 124.41 224.26 124.65 223.42 L 124.94 222.43 C 125.17 221.59 124.69 220.71 123.85 220.48 C 123.01 220.24 122.13 220.72 121.90 221.56 Z M 121.60 222.61 L 121.36 223.59 C 121.15 224.44 121.66 225.29 122.51 225.50 C 123.36 225.71 124.22 225.20 124.42 224.35 L 124.67 223.37 C 124.88 222.53 124.36 221.67 123.51 221.46 C 122.66 221.25 121.81 221.77 121.60 222.61 Z M 121.34 223.69 L 121.15 224.73 C 120.99 225.59 121.56 226.41 122.42 226.57 C 123.28 226.72 124.10 226.15 124.26 225.29 L 124.45 224.25 C 124.60 223.39 124.03 222.57 123.17 222.41 C 122.31 222.26 121.49 222.83 121.34 223.69 Z M 121.13 224.84 L 121.03 225.77 C 120.94 226.63 121.56 227.41 122.43 227.51 C 123.30 227.60 124.08 226.97 124.17 226.11 L 124.27 225.18 C 124.37 224.32 123.74 223.54 122.87 223.44 C 122.00 223.35 121.22 223.98 121.13 224.84 Z M 121.03 225.83 L 120.96 226.82 C 120.90 227.69 121.56 228.44 122.44 228.50 C 123.31 228.56 124.06 227.90 124.11 227.03 L 124.18 226.04 C 124.24 225.17 123.57 224.42 122.70 224.36 C 121.83 224.30 121.08 224.96 121.03 225.83 Z M 120.96 226.87 L 120.92 227.87 C 120.89 228.74 121.57 229.47 122.44 229.50 C 123.32 229.54 124.05 228.86 124.08 227.98 L 124.12 226.98 C 124.15 226.11 123.47 225.38 122.60 225.34 C 121.72 225.31 120.99 225.99 120.96 226.87 Z M 120.92 227.90 L 120.91 228.93 C 120.89 229.80 121.59 230.52 122.46 230.53 C 123.34 230.55 124.05 229.85 124.07 228.98 L 124.08 227.95 C 124.09 227.08 123.40 226.36 122.52 226.35 C 121.65 226.33 120.93 227.03 120.92 227.90 Z M 120.91 228.95 L 120.91 229.92 C 120.90 230.80 121.61 231.50 122.48 231.51 C 123.35 231.51 124.06 230.80 124.06 229.93 L 124.07 228.96 C 124.07 228.09 123.36 227.38 122.49 227.38 C 121.62 227.37 120.91 228.08 120.91 228.95 Z M 120.91 229.93 L 120.91 230.94 C 120.91 231.81 121.61 232.52 122.48 232.52 C 123.36 232.52 124.06 231.81 124.06 230.94 L 124.06 229.93 C 124.06 229.05 123.36 228.35 122.48 228.35 C 121.61 228.35 120.91 229.05 120.91 229.93 Z M 120.91 230.94 L 120.91 231.92 C 120.91 232.80 121.61 233.50 122.48 233.50 C 123.36 233.50 124.06 232.80 124.06 231.92 L 124.06 230.94 C 124.06 230.06 123.36 229.36 122.48 229.36 C 121.61 229.36 120.91 230.06 120.91 230.94 Z M 120.91 231.92 L 120.91 232.93 C 120.91 233.80 121.61 234.51 122.48 234.51 C 123.36 234.51 124.06 233.80 124.06 232.93 L 124.06 231.92 C 124.06 231.05 123.36 230.34 122.48 230.34 C 121.61 230.34 120.91 231.05 120.91 231.92 Z M 120.91 232.97 L 120.93 234.04 C 120.95 234.91 121.67 235.60 122.55 235.58 C 123.42 235.56 124.11 234.84 124.09 233.96 L 124.06 232.89 C 124.04 232.02 123.32 231.33 122.45 231.35 C 121.58 231.37 120.89 232.10 120.91 232.97 Z M 121.12 234.75 L 121.52 235.49 C 121.93 236.25 122.88 236.54 123.65 236.13 C 124.42 235.72 124.71 234.76 124.30 233.99 L 123.90 233.25 C 123.49 232.49 122.53 232.20 121.76 232.61 C 120.99 233.02 120.71 233.98 121.12 234.75 Z M 122.86 236.32 L 123.85 236.35 C 124.72 236.37 125.45 235.69 125.48 234.82 C 125.50 233.95 124.82 233.22 123.95 233.19 L 122.95 233.16 C 122.08 233.13 121.35 233.82 121.33 234.69 C 121.30 235.56 121.99 236.29 122.86 236.32 Z M 124.63 236.17 L 125.46 235.74 C 126.23 235.33 126.53 234.38 126.13 233.61 C 125.73 232.83 124.77 232.53 124.00 232.94 L 123.17 233.37 C 122.40 233.77 122.10 234.73 122.50 235.50 C 122.90 236.27 123.86 236.57 124.63 236.17 Z M 125.78 235.52 L 126.58 234.80 C 127.23 234.22 127.29 233.22 126.71 232.57 C 126.13 231.92 125.13 231.86 124.48 232.44 L 123.68 233.16 C 123.02 233.74 122.97 234.74 123.55 235.39 C 124.13 236.04 125.13 236.10 125.78 235.52 Z M 126.71 234.68 L 127.38 233.93 C 127.97 233.28 127.92 232.28 127.27 231.69 C 126.62 231.11 125.62 231.16 125.03 231.81 L 124.35 232.56 C 123.77 233.21 123.82 234.21 124.47 234.80 C 125.12 235.38 126.12 235.33 126.71 234.68 Z M 127.43 233.88 L 128.07 233.10 C 128.63 232.42 128.53 231.42 127.85 230.86 C 127.18 230.31 126.17 230.41 125.62 231.08 L 124.98 231.86 C 124.42 232.54 124.52 233.54 125.20 234.10 C 125.88 234.66 126.88 234.56 127.43 233.88 Z M 128.10 233.08 L 128.69 232.32 C 129.24 231.63 129.12 230.63 128.43 230.08 C 127.73 229.54 126.73 229.66 126.19 230.35 L 125.59 231.11 C 125.05 231.80 125.17 232.80 125.86 233.35 C 126.55 233.89 127.55 233.77 128.10 233.08 Z M 128.71 232.31 L 129.31 231.53 C 129.84 230.83 129.71 229.83 129.01 229.29 C 128.31 228.75 127.31 228.88 126.77 229.58 L 126.17 230.36 C 125.63 231.06 125.77 232.07 126.47 232.60 C 127.17 233.14 128.17 233.01 128.71 232.31 Z M 129.31 231.53 L 129.90 230.75 C 130.44 230.05 130.30 229.05 129.60 228.51 C 128.89 227.97 127.89 228.11 127.35 228.82 L 126.76 229.59 C 126.23 230.29 126.36 231.30 127.07 231.83 C 127.77 232.37 128.78 232.23 129.31 231.53 Z M 129.90 230.76 L 130.51 229.96 C 131.05 229.26 130.91 228.25 130.21 227.72 C 129.50 227.18 128.50 227.31 127.96 228.02 L 127.35 228.81 C 126.81 229.52 126.95 230.52 127.65 231.06 C 128.36 231.60 129.36 231.46 129.90 230.76 Z M 130.50 229.98 L 131.15 229.14 C 131.70 228.44 131.57 227.43 130.87 226.89 C 130.17 226.34 129.16 226.47 128.61 227.17 L 127.96 228.00 C 127.42 228.71 127.55 229.72 128.25 230.26 C 128.95 230.80 129.96 230.68 130.50 229.98 Z M 131.14 229.16 L 131.82 228.31 C 132.37 227.62 132.26 226.60 131.56 226.05 C 130.87 225.49 129.86 225.61 129.30 226.30 L 128.62 227.15 C 128.07 227.85 128.18 228.86 128.88 229.41 C 129.57 229.97 130.58 229.85 131.14 229.16 Z M 131.80 228.33 L 132.45 227.54 C 133.02 226.86 132.92 225.84 132.23 225.28 C 131.55 224.71 130.53 224.81 129.97 225.49 L 129.32 226.28 C 128.75 226.97 128.85 227.98 129.54 228.55 C 130.22 229.11 131.24 229.02 131.80 228.33 Z M 132.44 227.56 L 133.03 226.86 C 133.61 226.19 133.53 225.17 132.85 224.59 C 132.17 224.02 131.15 224.10 130.58 224.78 L 129.98 225.47 C 129.41 226.15 129.49 227.17 130.17 227.75 C 130.84 228.32 131.86 228.24 132.44 227.56 Z M 133.01 226.89 L 133.71 226.11 C 134.30 225.45 134.24 224.43 133.58 223.83 C 132.92 223.24 131.90 223.30 131.30 223.96 L 130.60 224.75 C 130.01 225.41 130.07 226.43 130.73 227.02 C 131.39 227.62 132.41 227.56 133.01 226.89 Z M 133.67 226.15 L 134.31 225.48 C 134.92 224.83 134.90 223.81 134.25 223.20 C 133.61 222.58 132.59 222.61 131.97 223.25 L 131.34 223.92 C 130.72 224.57 130.75 225.59 131.39 226.20 C 132.04 226.82 133.06 226.79 133.67 226.15 Z M 134.29 225.50 L 134.98 224.80 C 135.61 224.17 135.61 223.15 134.98 222.52 C 134.34 221.89 133.32 221.90 132.69 222.53 L 132.00 223.23 C 131.37 223.86 131.37 224.88 132.00 225.51 C 132.64 226.14 133.66 226.14 134.29 225.50 Z M 134.96 224.82 L 135.68 224.13 C 136.32 223.50 136.34 222.48 135.72 221.84 C 135.10 221.20 134.08 221.19 133.44 221.81 L 132.71 222.51 C 132.07 223.13 132.06 224.15 132.68 224.79 C 133.30 225.43 134.32 225.44 134.96 224.82 Z M 135.66 224.14 L 136.39 223.46 C 137.04 222.85 137.08 221.83 136.47 221.18 C 135.86 220.53 134.84 220.49 134.19 221.10 L 133.45 221.79 C 132.80 222.40 132.77 223.42 133.38 224.07 C 133.99 224.72 135.01 224.75 135.66 224.14 Z M 136.37 223.48 L 137.12 222.81 C 137.78 222.21 137.83 221.19 137.23 220.53 C 136.64 219.87 135.61 219.81 134.95 220.41 L 134.21 221.08 C 133.55 221.68 133.49 222.70 134.09 223.36 C 134.69 224.03 135.71 224.08 136.37 223.48 Z M 137.09 222.83 L 137.84 222.18 C 138.52 221.59 138.59 220.57 138.01 219.90 C 137.42 219.22 136.40 219.15 135.73 219.74 L 134.98 220.39 C 134.30 220.97 134.23 221.99 134.81 222.67 C 135.40 223.34 136.42 223.41 137.09 222.83 Z M 137.82 222.20 L 138.59 221.56 C 139.28 220.99 139.37 219.97 138.80 219.28 C 138.23 218.60 137.21 218.50 136.52 219.07 L 135.75 219.72 C 135.07 220.29 134.97 221.31 135.54 221.99 C 136.12 222.68 137.13 222.77 137.82 222.20 Z M 138.57 221.58 L 139.33 220.96 C 140.03 220.41 140.14 219.39 139.58 218.69 C 139.03 217.99 138.01 217.88 137.31 218.44 L 136.55 219.05 C 135.85 219.61 135.74 220.63 136.30 221.33 C 136.85 222.02 137.87 222.14 138.57 221.58 Z M 139.32 220.98 L 140.13 220.35 C 140.84 219.80 140.96 218.78 140.42 218.08 C 139.87 217.37 138.85 217.24 138.14 217.79 L 137.33 218.42 C 136.62 218.97 136.50 219.99 137.05 220.70 C 137.59 221.40 138.61 221.53 139.32 220.98 Z M 140.12 220.36 L 140.91 219.75 C 141.63 219.21 141.77 218.20 141.23 217.49 C 140.69 216.77 139.67 216.63 138.96 217.17 L 138.16 217.78 C 137.45 218.32 137.31 219.33 137.85 220.05 C 138.39 220.76 139.40 220.90 140.12 220.36 Z M 140.90 219.77 L 141.71 219.17 C 142.43 218.63 142.58 217.62 142.05 216.90 C 141.52 216.18 140.50 216.03 139.78 216.56 L 138.97 217.16 C 138.25 217.69 138.10 218.71 138.63 219.43 C 139.16 220.15 140.18 220.30 140.90 219.77 Z M 141.69 219.18 L 142.51 218.59 C 143.24 218.07 143.40 217.06 142.88 216.33 C 142.36 215.60 141.34 215.44 140.62 215.96 L 139.80 216.55 C 139.07 217.07 138.91 218.08 139.43 218.81 C 139.95 219.54 140.97 219.70 141.69 219.18 Z M 142.49 218.61 L 143.31 218.03 C 144.05 217.52 144.23 216.51 143.72 215.78 C 143.20 215.04 142.19 214.86 141.46 215.37 L 140.63 215.95 C 139.90 216.46 139.72 217.47 140.23 218.21 C 140.75 218.94 141.76 219.12 142.49 218.61 Z M 143.30 218.04 L 144.12 217.48 C 144.85 216.98 145.04 215.97 144.53 215.23 C 144.03 214.49 143.02 214.30 142.28 214.81 L 141.47 215.37 C 140.73 215.87 140.54 216.88 141.05 217.62 C 141.56 218.36 142.57 218.55 143.30 218.04 Z M 144.12 217.48 L 144.93 216.92 C 145.67 216.42 145.86 215.41 145.35 214.67 C 144.84 213.93 143.83 213.74 143.09 214.25 L 142.28 214.81 C 141.54 215.32 141.35 216.33 141.86 217.06 C 142.37 217.80 143.38 217.99 144.12 217.48 Z M 144.93 216.92 L 145.76 216.36 C 146.50 215.85 146.69 214.84 146.18 214.10 C 145.67 213.36 144.66 213.17 143.92 213.68 L 143.09 214.25 C 142.36 214.75 142.17 215.76 142.67 216.50 C 143.18 217.24 144.19 217.43 144.93 216.92 Z M 145.75 216.36 L 146.58 215.79 C 147.32 215.29 147.51 214.28 147.01 213.54 C 146.50 212.80 145.49 212.61 144.75 213.11 L 143.93 213.68 C 143.19 214.18 143.00 215.19 143.50 215.93 C 144.01 216.67 145.01 216.86 145.75 216.36 Z M 146.58 215.79 L 147.40 215.23 C 148.14 214.73 148.34 213.72 147.83 212.98 C 147.32 212.24 146.31 212.05 145.57 212.55 L 144.75 213.11 C 144.01 213.62 143.82 214.63 144.33 215.37 C 144.83 216.11 145.84 216.30 146.58 215.79 Z M 147.42 215.22 L 148.24 214.65 C 148.98 214.14 149.16 213.13 148.65 212.39 C 148.14 211.65 147.13 211.47 146.39 211.98 L 145.56 212.56 C 144.83 213.07 144.65 214.08 145.16 214.82 C 145.67 215.55 146.68 215.74 147.42 215.22 Z M 148.26 214.64 L 149.07 214.06 C 149.80 213.53 149.97 212.52 149.45 211.79 C 148.93 211.06 147.92 210.89 147.19 211.42 L 146.38 212.00 C 145.65 212.52 145.48 213.53 146.00 214.26 C 146.52 214.99 147.53 215.16 148.26 214.64 Z M 149.09 214.04 L 149.90 213.45 C 150.62 212.92 150.78 211.90 150.25 211.18 C 149.72 210.46 148.70 210.30 147.98 210.83 L 147.17 211.43 C 146.45 211.96 146.29 212.97 146.82 213.70 C 147.35 214.42 148.37 214.57 149.09 214.04 Z M 149.91 213.44 L 150.70 212.85 C 151.42 212.31 151.56 211.29 151.03 210.57 C 150.49 209.86 149.47 209.71 148.75 210.25 L 147.96 210.85 C 147.25 211.38 147.10 212.40 147.64 213.12 C 148.18 213.83 149.20 213.98 149.91 213.44 Z M 150.72 212.83 L 151.50 212.23 C 152.21 211.69 152.34 210.67 151.79 209.96 C 151.25 209.25 150.23 209.11 149.52 209.66 L 148.74 210.26 C 148.03 210.81 147.89 211.83 148.44 212.54 C 148.99 213.25 150.01 213.38 150.72 212.83 Z M 151.52 212.22 L 152.32 211.59 C 153.02 211.03 153.14 210.01 152.58 209.30 C 152.02 208.60 151.00 208.48 150.30 209.04 L 149.50 209.67 C 148.79 210.23 148.68 211.25 149.23 211.96 C 149.79 212.66 150.81 212.78 151.52 212.22 Z M 152.34 211.57 L 153.11 210.95 C 153.80 210.38 153.91 209.35 153.34 208.66 C 152.77 207.96 151.75 207.86 151.05 208.42 L 150.28 209.05 C 149.58 209.62 149.48 210.64 150.05 211.34 C 150.61 212.04 151.64 212.14 152.34 211.57 Z M 153.12 210.93 L 153.90 210.28 C 154.59 209.71 154.68 208.68 154.10 207.99 C 153.53 207.30 152.50 207.21 151.81 207.79 L 151.03 208.44 C 150.34 209.01 150.25 210.04 150.83 210.73 C 151.41 211.42 152.44 211.51 153.12 210.93 Z M 153.92 210.27 L 154.68 209.62 C 155.36 209.03 155.44 208.00 154.85 207.32 C 154.26 206.64 153.23 206.56 152.55 207.15 L 151.79 207.80 C 151.11 208.39 151.03 209.42 151.62 210.10 C 152.21 210.78 153.24 210.86 153.92 210.27 Z M 154.70 209.60 L 155.46 208.92 C 156.13 208.32 156.19 207.29 155.59 206.62 C 154.99 205.95 153.96 205.89 153.29 206.49 L 152.53 207.16 C 151.85 207.76 151.79 208.80 152.39 209.47 C 152.99 210.14 154.03 210.20 154.70 209.60 Z M 155.47 208.91 L 156.21 208.24 C 156.87 207.63 156.92 206.60 156.31 205.93 C 155.70 205.27 154.67 205.22 154.00 205.83 L 153.27 206.50 C 152.61 207.11 152.56 208.14 153.17 208.81 C 153.78 209.47 154.81 209.52 155.47 208.91 Z M 156.21 208.24 L 156.93 207.57 C 157.60 206.96 157.64 205.92 157.03 205.26 C 156.41 204.60 155.38 204.56 154.72 205.17 L 154.00 205.84 C 153.33 206.45 153.29 207.48 153.90 208.14 C 154.52 208.81 155.55 208.85 156.21 208.24 Z M 156.94 207.56 L 157.66 206.89 C 158.32 206.28 158.36 205.24 157.74 204.58 C 157.13 203.92 156.10 203.89 155.44 204.50 L 154.71 205.17 C 154.05 205.79 154.02 206.82 154.63 207.48 C 155.25 208.14 156.28 208.18 156.94 207.56 Z M 157.68 206.88 L 158.41 206.18 C 159.06 205.56 159.08 204.52 158.46 203.87 C 157.83 203.22 156.80 203.20 156.15 203.82 L 155.42 204.52 C 154.77 205.14 154.75 206.17 155.37 206.83 C 155.99 207.48 157.03 207.50 157.68 206.88 Z M 158.43 206.15 L 159.13 205.45 C 159.77 204.81 159.77 203.78 159.13 203.14 C 158.50 202.51 157.46 202.51 156.83 203.14 L 156.12 203.85 C 155.49 204.48 155.49 205.52 156.12 206.15 C 156.76 206.79 157.79 206.79 158.43 206.15 Z M 159.15 205.43 L 159.84 204.71 C 160.47 204.07 160.45 203.03 159.80 202.41 C 159.15 201.78 158.12 201.80 157.49 202.45 L 156.81 203.16 C 156.18 203.81 156.20 204.85 156.85 205.47 C 157.50 206.10 158.53 206.08 159.15 205.43 Z M 159.85 204.71 L 160.55 203.97 C 161.17 203.32 161.15 202.29 160.49 201.67 C 159.84 201.05 158.81 201.07 158.19 201.72 L 157.49 202.46 C 156.87 203.11 156.89 204.14 157.54 204.76 C 158.19 205.38 159.23 205.36 159.85 204.71 Z M 160.54 203.98 L 161.23 203.26 C 161.86 202.62 161.84 201.59 161.19 200.96 C 160.55 200.34 159.52 200.35 158.89 201.00 L 158.20 201.72 C 157.57 202.36 157.59 203.39 158.24 204.02 C 158.88 204.64 159.91 204.63 160.54 203.98 Z M 161.22 203.27 L 161.92 202.57 C 162.55 201.92 162.54 200.89 161.90 200.26 C 161.26 199.63 160.23 199.64 159.60 200.28 L 158.90 200.99 C 158.27 201.63 158.28 202.66 158.92 203.29 C 159.56 203.92 160.59 203.91 161.22 203.27 Z M 161.91 202.57 L 162.62 201.86 C 163.26 201.22 163.26 200.19 162.62 199.56 C 161.98 198.92 160.95 198.93 160.32 199.56 L 159.61 200.28 C 158.97 200.91 158.98 201.94 159.61 202.58 C 160.25 203.21 161.28 203.21 161.91 202.57 Z M 162.62 201.86 L 163.32 201.15 C 163.96 200.52 163.96 199.49 163.33 198.86 C 162.69 198.22 161.66 198.22 161.03 198.86 L 160.32 199.56 C 159.69 200.19 159.69 201.22 160.32 201.86 C 160.96 202.49 161.98 202.49 162.62 201.86 Z M 163.32 201.15 L 164.02 200.46 C 164.65 199.82 164.65 198.80 164.02 198.16 C 163.39 197.53 162.36 197.53 161.73 198.16 L 161.03 198.86 C 160.40 199.49 160.40 200.52 161.03 201.15 C 161.66 201.78 162.69 201.78 163.32 201.15 Z M 164.02 200.45 L 164.73 199.74 C 165.36 199.11 165.36 198.08 164.73 197.45 C 164.09 196.82 163.07 196.82 162.44 197.45 L 161.73 198.17 C 161.09 198.80 161.10 199.83 161.73 200.46 C 162.36 201.09 163.39 201.09 164.02 200.45 Z M 164.73 199.73 L 165.45 199.00 C 166.08 198.37 166.08 197.34 165.44 196.72 C 164.80 196.09 163.78 196.10 163.15 196.73 L 162.43 197.46 C 161.80 198.10 161.81 199.12 162.45 199.75 C 163.08 200.38 164.11 200.37 164.73 199.73 Z M 165.46 199.00 L 166.17 198.27 C 166.79 197.63 166.78 196.61 166.15 195.98 C 165.51 195.36 164.48 195.37 163.86 196.01 L 163.15 196.74 C 162.52 197.37 162.54 198.40 163.17 199.02 C 163.81 199.65 164.83 199.63 165.46 199.00 Z M 166.17 198.27 L 166.88 197.55 C 167.50 196.91 167.49 195.89 166.86 195.26 C 166.22 194.64 165.20 194.65 164.57 195.28 L 163.86 196.01 C 163.24 196.65 163.25 197.67 163.88 198.29 C 164.52 198.92 165.54 198.91 166.17 198.27 Z M 166.87 197.56 L 167.56 196.86 C 168.19 196.23 168.19 195.20 167.56 194.58 C 166.93 193.95 165.90 193.95 165.27 194.58 L 164.58 195.28 C 163.95 195.91 163.95 196.93 164.59 197.56 C 165.22 198.19 166.24 198.19 166.87 197.56 Z M 167.54 196.88 L 168.28 196.16 C 168.92 195.54 168.94 194.51 168.31 193.87 C 167.69 193.24 166.67 193.22 166.03 193.84 L 165.29 194.56 C 164.65 195.18 164.64 196.21 165.26 196.85 C 165.88 197.48 166.91 197.50 167.54 196.88 Z M 168.27 196.17 L 169.00 195.48 C 169.64 194.87 169.67 193.85 169.06 193.20 C 168.45 192.55 167.43 192.53 166.78 193.14 L 166.05 193.83 C 165.40 194.44 165.37 195.46 165.98 196.11 C 166.60 196.76 167.62 196.79 168.27 196.17 Z M 168.99 195.49 L 169.69 194.83 C 170.34 194.23 170.38 193.20 169.77 192.55 C 169.16 191.90 168.14 191.87 167.49 192.48 L 166.79 193.13 C 166.13 193.74 166.10 194.76 166.71 195.41 C 167.32 196.06 168.34 196.10 168.99 195.49 Z M 169.70 194.83 L 170.42 194.14 C 171.07 193.53 171.10 192.51 170.49 191.86 C 169.88 191.21 168.86 191.18 168.21 191.80 L 167.48 192.48 C 166.83 193.09 166.81 194.11 167.42 194.76 C 168.03 195.41 169.05 195.44 169.70 194.83 Z M 170.43 194.13 L 171.16 193.44 C 171.80 192.82 171.82 191.80 171.21 191.16 C 170.59 190.52 169.57 190.49 168.93 191.11 L 168.20 191.80 C 167.56 192.42 167.54 193.44 168.15 194.08 C 168.77 194.73 169.79 194.75 170.43 194.13 Z M 171.16 193.44 L 171.87 192.75 C 172.51 192.14 172.53 191.11 171.91 190.47 C 171.30 189.83 170.27 189.81 169.63 190.43 L 168.92 191.11 C 168.28 191.73 168.26 192.75 168.88 193.39 C 169.50 194.03 170.52 194.05 171.16 193.44 Z M 171.87 192.75 L 172.60 192.05 C 173.24 191.43 173.26 190.41 172.65 189.77 C 172.03 189.13 171.01 189.11 170.37 189.73 L 169.63 190.43 C 168.99 191.05 168.97 192.07 169.59 192.71 C 170.21 193.35 171.23 193.37 171.87 192.75 Z M 172.60 192.05 L 173.32 191.37 C 173.96 190.75 173.98 189.73 173.37 189.09 C 172.75 188.44 171.73 188.42 171.09 189.03 L 170.37 189.72 C 169.73 190.34 169.70 191.36 170.32 192.00 C 170.93 192.64 171.95 192.67 172.60 192.05 Z M 173.31 191.37 L 174.03 190.70 C 174.68 190.09 174.71 189.07 174.10 188.42 C 173.49 187.77 172.47 187.74 171.82 188.35 L 171.10 189.03 C 170.45 189.64 170.42 190.66 171.03 191.30 C 171.64 191.95 172.66 191.98 173.31 191.37 Z M 174.02 190.70 L 174.75 190.02 C 175.40 189.41 175.44 188.39 174.83 187.74 C 174.23 187.09 173.21 187.06 172.56 187.66 L 171.83 188.34 C 171.17 188.95 171.14 189.97 171.75 190.62 C 172.35 191.27 173.37 191.31 174.02 190.70 Z M 174.76 190.01 L 175.49 189.33 C 176.13 188.72 176.16 187.70 175.55 187.05 C 174.94 186.40 173.92 186.37 173.28 186.98 L 172.55 187.67 C 171.90 188.28 171.87 189.30 172.48 189.95 C 173.09 190.59 174.11 190.62 174.76 190.01 Z M 175.51 189.31 L 176.24 188.59 C 176.88 187.97 176.89 186.95 176.27 186.31 C 175.65 185.68 174.63 185.66 174.00 186.28 L 173.26 187.00 C 172.62 187.62 172.61 188.64 173.23 189.28 C 173.85 189.91 174.87 189.93 175.51 189.31 Z M 176.26 188.57 L 176.97 187.86 C 177.59 187.23 177.59 186.21 176.96 185.58 C 176.33 184.96 175.31 184.96 174.68 185.59 L 173.98 186.30 C 173.35 186.94 173.35 187.95 173.99 188.58 C 174.62 189.21 175.63 189.20 176.26 188.57 Z M 176.99 187.84 L 177.68 187.11 C 178.29 186.47 178.27 185.45 177.63 184.84 C 176.99 184.22 175.97 184.25 175.35 184.89 L 174.66 185.61 C 174.05 186.26 174.07 187.27 174.71 187.89 C 175.36 188.50 176.37 188.48 176.99 187.84 Z M 177.70 187.09 L 178.38 186.35 C 178.98 185.69 178.93 184.67 178.28 184.07 C 177.62 183.48 176.60 183.52 176.01 184.18 L 175.33 184.92 C 174.73 185.57 174.78 186.59 175.43 187.19 C 176.09 187.79 177.11 187.74 177.70 187.09 Z M 178.40 186.32 L 179.04 185.59 C 179.63 184.92 179.56 183.91 178.89 183.32 C 178.22 182.74 177.21 182.80 176.62 183.47 L 175.98 184.20 C 175.40 184.87 175.47 185.89 176.13 186.47 C 176.80 187.06 177.82 186.99 178.40 186.32 Z M 179.06 185.57 L 179.71 184.80 C 180.28 184.13 180.19 183.11 179.51 182.54 C 178.84 181.97 177.82 182.05 177.25 182.73 L 176.60 183.49 C 176.03 184.17 176.12 185.19 176.79 185.76 C 177.47 186.33 178.49 186.25 179.06 185.57 Z M 179.72 184.78 L 180.36 184.00 C 180.92 183.32 180.82 182.30 180.13 181.74 C 179.44 181.18 178.43 181.28 177.87 181.97 L 177.23 182.75 C 176.67 183.44 176.77 184.45 177.46 185.01 C 178.15 185.57 179.16 185.47 179.72 184.78 Z M 180.38 183.98 L 181.00 183.19 C 181.54 182.49 181.42 181.48 180.73 180.94 C 180.03 180.39 179.02 180.51 178.47 181.21 L 177.85 181.99 C 177.30 182.69 177.43 183.70 178.12 184.25 C 178.82 184.80 179.83 184.68 180.38 183.98 Z M 181.02 183.16 L 181.58 182.41 C 182.11 181.70 181.97 180.69 181.26 180.16 C 180.55 179.63 179.54 179.78 179.01 180.49 L 178.45 181.24 C 177.92 181.95 178.06 182.95 178.77 183.48 C 179.48 184.01 180.49 183.87 181.02 183.16 Z M 181.59 182.39 L 182.18 181.58 C 182.71 180.87 182.55 179.87 181.84 179.34 C 181.12 178.82 180.12 178.98 179.60 179.69 L 179.00 180.50 C 178.48 181.21 178.63 182.22 179.35 182.74 C 180.06 183.26 181.07 183.11 181.59 182.39 Z M 182.18 181.59 L 182.76 180.81 C 183.29 180.10 183.14 179.09 182.43 178.56 C 181.72 178.03 180.72 178.18 180.19 178.89 L 179.60 179.68 C 179.07 180.39 179.22 181.39 179.93 181.92 C 180.64 182.45 181.65 182.30 182.18 181.59 Z M 182.77 180.80 L 183.37 179.98 C 183.89 179.27 183.74 178.27 183.03 177.74 C 182.32 177.22 181.31 177.37 180.79 178.08 L 180.19 178.90 C 179.66 179.61 179.81 180.61 180.53 181.14 C 181.24 181.66 182.24 181.51 182.77 180.80 Z M 183.39 179.95 L 184.00 179.09 C 184.50 178.36 184.33 177.36 183.60 176.86 C 182.88 176.35 181.88 176.52 181.37 177.25 L 180.77 178.11 C 180.26 178.84 180.44 179.84 181.16 180.34 C 181.88 180.85 182.88 180.67 183.39 179.95 Z M 184.03 179.04 L 184.60 178.14 C 185.08 177.40 184.87 176.41 184.13 175.93 C 183.39 175.45 182.40 175.67 181.92 176.41 L 181.34 177.30 C 180.86 178.04 181.07 179.03 181.82 179.51 C 182.56 179.99 183.55 179.78 184.03 179.04 Z M 184.61 178.12 L 185.13 177.29 C 185.59 176.55 185.36 175.56 184.62 175.10 C 183.87 174.63 182.88 174.86 182.42 175.61 L 181.91 176.43 C 181.44 177.18 181.67 178.17 182.42 178.63 C 183.17 179.10 184.15 178.87 184.61 178.12 Z M 185.11 177.31 L 185.65 176.46 C 186.13 175.73 185.92 174.75 185.18 174.27 C 184.45 173.79 183.46 174.01 182.99 174.74 L 182.44 175.59 C 181.96 176.33 182.18 177.31 182.91 177.79 C 183.65 178.26 184.63 178.05 185.11 177.31 Z M 185.62 176.50 L 186.17 175.71 C 186.66 174.99 186.48 174.01 185.77 173.52 C 185.05 173.02 184.07 173.20 183.58 173.91 L 183.03 174.71 C 182.53 175.42 182.71 176.40 183.43 176.90 C 184.14 177.39 185.12 177.21 185.62 176.50 Z M 186.15 175.71 L 186.28 175.53 C 186.78 174.82 186.61 173.84 185.91 173.34 C 185.20 172.85 184.23 173.01 183.73 173.72 L 183.59 173.90 C 183.09 174.61 183.26 175.59 183.97 176.09 C 184.67 176.59 185.65 176.42 186.15 175.71 Z"
      fill="black"
      fill-rule="nonzero" /></svg>