<svg xmlns="http://www.w3.org/2000/svg" width="300" height="300" viewBox="0 0 300 300">
<path d="M 112.55 130.22 L 112.68 131.18 C 112.78 131.99 113.53 132.56 114.34 132.46 C 115.14 132.35 115.71 131.61 115.61 130.80 L 115.48 129.84 C 115.38 129.03 114.64 128.46 113.83 128.56 C 113.02 128.67 112.45 129.41 112.55 130.22 Z M 112.68 131.18 L 112.80 132.17 C 112.91 132.98 113.64 133.56 114.45 133.46 C 115.26 133.35 115.84 132.62 115.74 131.81 L 115.61 130.81 C 115.51 130.00 114.77 129.42 113.96 129.53 C 113.15 129.63 112.58 130.37 112.68 131.18 Z M 112.80 132.16 L 112.91 133.12 C 113.01 133.93 113.75 134.51 114.56 134.41 C 115.37 134.32 115.95 133.58 115.85 132.77 L 115.74 131.82 C 115.64 131.00 114.91 130.42 114.10 130.52 C 113.28 130.62 112.70 131.35 112.80 132.16 Z M 112.91 133.10 L 113.01 134.04 C 113.10 134.85 113.83 135.44 114.64 135.35 C 115.46 135.27 116.04 134.54 115.96 133.72 L 115.86 132.79 C 115.77 131.97 115.04 131.38 114.22 131.47 C 113.41 131.56 112.82 132.29 112.91 133.10 Z M 113.01 134.02 L 113.10 135.06 C 113.18 135.87 113.90 136.47 114.72 136.40 C 115.53 136.32 116.13 135.60 116.06 134.79 L 115.96 133.74 C 115.89 132.93 115.16 132.33 114.35 132.40 C 113.53 132.48 112.93 133.20 113.01 134.02 Z M 113.10 135.03 L 113.18 136.08 C 113.24 136.90 113.95 137.51 114.77 137.45 C 115.59 137.38 116.20 136.67 116.14 135.85 L 116.06 134.81 C 116.00 133.99 115.29 133.38 114.47 133.44 C 113.65 133.50 113.04 134.22 113.10 135.03 Z M 113.18 136.06 L 113.24 137.05 C 113.29 137.87 113.99 138.49 114.81 138.44 C 115.63 138.39 116.25 137.69 116.20 136.87 L 116.14 135.87 C 116.09 135.05 115.39 134.43 114.57 134.48 C 113.75 134.53 113.12 135.24 113.18 136.06 Z M 113.23 137.03 L 113.29 138.06 C 113.33 138.88 114.03 139.51 114.85 139.47 C 115.67 139.43 116.30 138.73 116.26 137.91 L 116.21 136.88 C 116.16 136.06 115.46 135.43 114.64 135.47 C 113.82 135.51 113.19 136.21 113.23 137.03 Z M 113.28 138.04 L 113.33 139.06 C 113.36 139.88 114.05 140.52 114.87 140.48 C 115.69 140.45 116.33 139.76 116.30 138.94 L 116.26 137.92 C 116.23 137.10 115.53 136.46 114.71 136.49 C 113.89 136.53 113.25 137.22 113.28 138.04 Z M 113.32 139.04 L 113.35 140.13 C 113.38 140.95 114.06 141.60 114.88 141.58 C 115.71 141.55 116.35 140.87 116.33 140.05 L 116.30 138.95 C 116.28 138.13 115.59 137.48 114.77 137.51 C 113.95 137.53 113.30 138.21 113.32 139.04 Z M 113.35 140.11 L 113.37 141.18 C 113.38 142.00 114.06 142.66 114.88 142.65 C 115.70 142.64 116.36 141.96 116.35 141.14 L 116.33 140.07 C 116.32 139.24 115.64 138.59 114.82 138.60 C 114.00 138.61 113.34 139.29 113.35 140.11 Z M 113.37 141.16 L 113.37 142.10 C 113.37 142.92 114.05 143.58 114.87 143.58 C 115.69 143.58 116.36 142.91 116.35 142.08 L 116.35 141.15 C 116.35 140.33 115.67 139.66 114.85 139.67 C 114.03 139.67 113.36 140.34 113.37 141.16 Z M 113.37 142.09 L 113.37 143.07 C 113.37 143.89 114.04 144.56 114.86 144.56 C 115.69 144.56 116.35 143.89 116.35 143.06 L 116.35 142.09 C 116.35 141.27 115.69 140.60 114.86 140.60 C 114.04 140.60 113.37 141.27 113.37 142.09 Z M 113.37 143.07 L 113.37 144.04 C 113.37 144.86 114.04 145.53 114.86 145.53 C 115.69 145.53 116.35 144.86 116.35 144.04 L 116.35 143.07 C 116.35 142.24 115.69 141.57 114.86 141.57 C 114.04 141.57 113.37 142.24 113.37 143.07 Z M 113.37 144.04 L 113.37 144.96 C 113.37 145.79 114.04 146.46 114.86 146.46 C 115.69 146.46 116.36 145.79 116.36 144.96 L 116.36 144.04 C 116.36 143.21 115.69 142.54 114.86 142.54 C 114.04 142.54 113.37 143.21 113.37 144.04 Z M 113.37 144.96 L 113.37 145.97 C 113.37 146.80 114.04 147.46 114.86 147.46 C 115.69 147.46 116.36 146.80 116.36 145.97 L 116.36 144.96 C 116.36 144.14 115.69 143.47 114.86 143.47 C 114.04 143.47 113.37 144.14 113.37 144.96 Z M 113.37 145.97 L 113.37 146.96 C 113.37 147.79 114.04 148.46 114.86 148.46 C 115.69 148.46 116.36 147.79 116.36 146.96 L 116.36 145.97 C 116.36 145.15 115.69 144.48 114.86 144.48 C 114.04 144.48 113.37 145.15 113.37 145.97 Z M 113.37 146.96 L 113.37 147.97 C 113.37 148.80 114.04 149.46 114.86 149.46 C 115.69 149.46 116.36 148.80 116.36 147.97 L 116.36 146.96 C 116.36 146.14 115.69 145.47 114.86 145.47 C 114.04 145.47 113.37 146.14 113.37 146.96 Z M 113.37 147.97 L 113.37 148.97 C 113.37 149.79 114.04 150.46 114.86 150.46 C 115.69 150.46 116.36 149.79 116.36 148.97 L 116.36 147.97 C 116.36 147.15 115.69 146.48 114.86 146.48 C 114.04 146.48 113.37 147.15 113.37 147.97 Z M 113.37 148.97 L 113.37 149.97 C 113.37 150.79 114.04 151.46 114.86 151.46 C 115.69 151.46 116.36 150.79 116.36 149.97 L 116.36 148.97 C 116.36 148.14 115.69 147.48 114.86 147.48 C 114.04 147.48 113.37 148.14 113.37 148.97 Z M 113.37 149.97 L 113.37 150.97 C 113.37 151.80 114.04 152.47 114.86 152.47 C 115.69 152.47 116.36 151.80 116.36 150.97 L 116.36 149.97 C 116.36 149.14 115.69 148.47 114.86 148.47 C 114.04 148.47 113.37 149.14 113.37 149.97 Z M 113.37 150.97 L 113.37 151.95 C 113.37 152.77 114.04 153.44 114.86 153.44 C 115.69 153.44 116.36 152.77 116.36 151.95 L 116.36 150.97 C 116.36 150.15 115.69 149.48 114.86 149.48 C 114.04 149.48 113.37 150.15 113.37 150.97 Z M 113.37 151.95 L 113.37 152.97 C 113.37 153.80 114.04 154.47 114.86 154.47 C 115.69 154.47 116.36 153.80 116.36 152.97 L 116.36 151.95 C 116.36 151.12 115.69 150.46 114.86 150.46 C 114.04 150.46 113.37 151.12 113.37 151.95 Z M 113.37 152.97 L 113.37 153.98 C 113.37 154.80 114.04 155.47 114.86 155.47 C 115.69 155.47 116.36 154.80 116.36 153.98 L 116.36 152.97 C 116.36 152.15 115.69 151.48 114.86 151.48 C 114.04 151.48 113.37 152.15 113.37 152.97 Z M 113.37 153.98 L 113.37 154.99 C 113.37 155.81 114.04 156.48 114.86 156.48 C 115.69 156.48 116.36 155.81 116.36 154.99 L 116.36 153.98 C 116.36 153.15 115.69 152.48 114.86 152.48 C 114.04 152.48 113.37 153.15 113.37 153.98 Z M 113.37 154.99 L 113.37 155.99 C 113.37 156.81 114.04 157.48 114.86 157.48 C 115.69 157.48 116.36 156.81 116.36 155.99 L 116.36 154.99 C 116.36 154.16 115.69 153.49 114.86 153.49 C 114.04 153.49 113.37 154.16 113.37 154.99 Z M 113.37 155.99 L 113.37 157.02 C 113.37 157.84 114.04 158.51 114.86 158.51 C 115.69 158.51 116.36 157.84 116.36 157.02 L 116.36 155.99 C 116.36 155.16 115.69 154.49 114.86 154.49 C 114.04 154.49 113.37 155.16 113.37 155.99 Z M 113.37 157.02 L 113.37 158.01 C 113.37 158.83 114.04 159.50 114.86 159.50 C 115.69 159.50 116.36 158.83 116.36 158.01 L 116.36 157.02 C 116.36 156.19 115.69 155.52 114.86 155.52 C 114.04 155.52 113.37 156.19 113.37 157.02 Z M 113.37 158.01 L 113.37 158.99 C 113.37 159.82 114.04 160.49 114.86 160.49 C 115.69 160.49 116.36 159.82 116.36 158.99 L 116.36 158.01 C 116.36 157.18 115.69 156.51 114.86 156.51 C 114.04 156.51 113.37 157.18 113.37 158.01 Z M 113.37 159.00 L 113.37 160.00 C 113.37 160.83 114.04 161.49 114.87 161.49 C 115.69 161.49 116.36 160.82 116.36 159.99 L 116.36 158.99 C 116.35 158.16 115.68 157.50 114.86 157.50 C 114.03 157.50 113.37 158.17 113.37 159.00 Z M 113.37 160.01 L 113.38 161.01 C 113.39 161.83 114.07 162.49 114.89 162.48 C 115.72 162.47 116.38 161.80 116.37 160.97 L 116.36 159.98 C 116.35 159.16 115.67 158.49 114.85 158.50 C 114.02 158.51 113.36 159.19 113.37 160.01 Z M 113.38 161.03 L 113.41 162.04 C 113.43 162.87 114.11 163.52 114.94 163.50 C 115.76 163.48 116.41 162.79 116.39 161.97 L 116.37 160.95 C 116.35 160.13 115.67 159.47 114.84 159.49 C 114.01 159.51 113.36 160.20 113.38 161.03 Z M 113.41 162.05 L 113.44 163.05 C 113.47 163.87 114.16 164.52 114.98 164.49 C 115.81 164.47 116.46 163.77 116.43 162.95 L 116.39 161.96 C 116.37 161.13 115.68 160.48 114.85 160.51 C 114.03 160.54 113.38 161.23 113.41 162.05 Z M 113.44 163.05 L 113.48 164.06 C 113.50 164.88 114.20 165.53 115.02 165.50 C 115.85 165.47 116.49 164.78 116.46 163.95 L 116.43 162.95 C 116.40 162.12 115.71 161.48 114.88 161.51 C 114.06 161.53 113.41 162.23 113.44 163.05 Z M 113.48 164.05 L 113.51 165.05 C 113.53 165.88 114.22 166.53 115.05 166.50 C 115.87 166.47 116.52 165.79 116.49 164.96 L 116.46 163.96 C 116.44 163.14 115.75 162.49 114.92 162.51 C 114.10 162.54 113.45 163.23 113.48 164.05 Z M 113.51 165.03 L 113.52 166.01 C 113.54 166.84 114.22 167.49 115.05 167.48 C 115.87 167.46 116.53 166.78 116.51 165.96 L 116.49 164.98 C 116.48 164.15 115.80 163.50 114.97 163.51 C 114.15 163.53 113.49 164.21 113.51 165.03 Z M 113.52 166.00 L 113.53 166.99 C 113.54 167.81 114.22 168.48 115.04 168.47 C 115.87 168.46 116.53 167.79 116.52 166.96 L 116.51 165.97 C 116.51 165.14 115.83 164.48 115.00 164.49 C 114.18 164.50 113.52 165.17 113.52 166.00 Z M 113.53 167.00 L 113.55 168.01 C 113.56 168.83 114.24 169.49 115.07 169.48 C 115.89 169.47 116.55 168.79 116.54 167.96 L 116.52 166.95 C 116.51 166.13 115.83 165.47 115.01 165.48 C 114.18 165.49 113.52 166.17 113.53 167.00 Z M 113.55 168.02 L 113.57 169.03 C 113.59 169.86 114.28 170.51 115.10 170.49 C 115.93 170.47 116.58 169.79 116.56 168.96 L 116.54 167.95 C 116.52 167.12 115.83 166.47 115.01 166.49 C 114.18 166.51 113.53 167.19 113.55 168.02 Z M 113.57 169.03 L 113.60 170.02 C 113.61 170.85 114.30 171.50 115.12 171.49 C 115.95 171.47 116.60 170.78 116.58 169.96 L 116.56 168.96 C 116.54 168.14 115.86 167.48 115.04 167.50 C 114.21 167.52 113.56 168.20 113.57 169.03 Z M 113.59 170.00 L 113.60 171.01 C 113.61 171.83 114.29 172.50 115.11 172.49 C 115.94 172.48 116.60 171.81 116.59 170.98 L 116.58 169.98 C 116.58 169.15 115.90 168.49 115.08 168.50 C 114.25 168.50 113.59 169.18 113.59 170.00 Z M 113.60 170.99 L 113.60 171.98 C 113.61 172.81 114.28 173.47 115.10 173.47 C 115.93 173.47 116.59 172.80 116.59 171.98 L 116.59 170.99 C 116.59 170.17 115.92 169.50 115.10 169.50 C 114.27 169.50 113.60 170.17 113.60 170.99 Z M 113.60 171.98 L 113.60 172.97 C 113.60 173.79 114.27 174.46 115.10 174.46 C 115.92 174.46 116.59 173.79 116.59 172.97 L 116.59 171.98 C 116.59 171.15 115.92 170.48 115.10 170.48 C 114.27 170.48 113.60 171.15 113.60 171.98 Z M 113.60 172.97 L 113.60 173.98 C 113.60 174.81 114.27 175.48 115.10 175.48 C 115.92 175.48 116.59 174.81 116.59 173.98 L 116.59 172.97 C 116.59 172.14 115.92 171.47 115.10 171.47 C 114.27 171.47 113.60 172.14 113.60 172.97 Z M 113.60 173.98 L 113.60 174.97 C 113.60 175.79 114.27 176.46 115.10 176.46 C 115.92 176.46 116.59 175.79 116.59 174.97 L 116.59 173.98 C 116.59 173.16 115.92 172.49 115.10 172.49 C 114.27 172.49 113.60 173.16 113.60 173.98 Z M 113.60 174.97 L 113.60 175.98 C 113.60 176.80 114.27 177.47 115.10 177.47 C 115.92 177.47 116.59 176.80 116.59 175.98 L 116.59 174.97 C 116.59 174.14 115.92 173.47 115.10 173.47 C 114.27 173.47 113.60 174.14 113.60 174.97 Z M 113.60 175.98 L 113.60 176.97 C 113.60 177.80 114.27 178.46 115.10 178.46 C 115.92 178.46 116.59 177.80 116.59 176.97 L 116.59 175.98 C 116.59 175.15 115.92 174.48 115.10 174.48 C 114.27 174.48 113.60 175.15 113.60 175.98 Z M 113.60 176.97 L 113.60 177.98 C 113.60 178.80 114.27 179.47 115.10 179.47 C 115.92 179.47 116.59 178.80 116.59 177.98 L 116.59 176.97 C 116.59 176.14 115.92 175.48 115.10 175.48 C 114.27 175.48 113.60 176.14 113.60 176.97 Z M 113.60 177.98 L 113.60 178.97 C 113.60 179.80 114.27 180.47 115.10 180.47 C 115.92 180.47 116.59 179.80 116.59 178.97 L 116.59 177.98 C 116.59 177.15 115.92 176.48 115.10 176.48 C 114.27 176.48 113.60 177.15 113.60 177.98 Z M 113.60 178.97 L 113.60 179.96 C 113.60 180.78 114.27 181.45 115.10 181.45 C 115.92 181.45 116.59 180.78 116.59 179.96 L 116.59 178.97 C 116.59 178.15 115.92 177.48 115.10 177.48 C 114.27 177.48 113.60 178.15 113.60 178.97 Z M 113.60 179.96 L 113.60 180.98 C 113.60 181.81 114.27 182.48 115.10 182.48 C 115.92 182.48 116.59 181.81 116.59 180.98 L 116.59 179.96 C 116.59 179.13 115.92 178.46 115.10 178.46 C 114.27 178.46 113.60 179.13 113.60 179.96 Z M 113.60 180.98 L 113.60 181.99 C 113.60 182.82 114.27 183.49 115.10 183.49 C 115.92 183.49 116.59 182.82 116.59 181.99 L 116.59 180.98 C 116.59 180.16 115.92 179.49 115.10 179.49 C 114.27 179.49 113.60 180.16 113.60 180.98 Z M 113.60 181.99 L 113.60 183.01 C 113.60 183.83 114.27 184.50 115.10 184.50 C 115.92 184.50 116.59 183.83 116.59 183.01 L 116.59 181.99 C 116.59 181.17 115.92 180.50 115.10 180.50 C 114.27 180.50 113.60 181.17 113.60 181.99 Z M 113.60 183.01 L 113.60 184.01 C 113.60 184.84 114.27 185.51 115.10 185.51 C 115.92 185.51 116.59 184.84 116.59 184.01 L 116.59 183.01 C 116.59 182.18 115.92 181.51 115.10 181.51 C 114.27 181.51 113.60 182.18 113.60 183.01 Z M 113.60 184.01 L 113.60 185.03 C 113.60 185.86 114.27 186.53 115.10 186.53 C 115.92 186.53 116.59 185.86 116.59 185.03 L 116.59 184.01 C 116.59 183.19 115.92 182.52 115.10 182.52 C 114.27 182.52 113.60 183.19 113.60 184.01 Z M 113.60 185.03 L 113.60 185.99 C 113.60 186.81 114.27 187.48 115.10 187.48 C 115.92 187.48 116.59 186.81 116.59 185.99 L 116.59 185.03 C 116.59 184.21 115.92 183.54 115.10 183.54 C 114.27 183.54 113.60 184.21 113.60 185.03 Z M 113.61 185.98 L 113.60 187.00 C 113.60 187.82 114.27 188.49 115.09 188.50 C 115.92 188.50 116.59 187.83 116.59 187.01 L 116.59 185.99 C 116.60 185.17 115.93 184.50 115.10 184.49 C 114.28 184.49 113.61 185.16 113.61 185.98 Z M 113.60 186.97 L 113.58 187.95 C 113.56 188.78 114.21 189.46 115.04 189.48 C 115.86 189.50 116.55 188.85 116.56 188.02 L 116.59 187.04 C 116.61 186.21 115.96 185.53 115.13 185.51 C 114.31 185.49 113.62 186.14 113.60 186.97 Z M 113.58 187.90 L 113.52 188.91 C 113.47 189.74 114.09 190.45 114.92 190.50 C 115.74 190.55 116.45 189.92 116.50 189.10 L 116.56 188.08 C 116.61 187.26 115.99 186.55 115.16 186.50 C 114.34 186.45 113.63 187.07 113.58 187.90 Z M 113.52 188.86 L 113.43 189.81 C 113.35 190.63 113.94 191.36 114.76 191.44 C 115.58 191.53 116.31 190.93 116.40 190.11 L 116.49 189.16 C 116.58 188.34 115.98 187.60 115.16 187.52 C 114.34 187.44 113.61 188.04 113.52 188.86 Z M 113.44 189.76 L 113.31 190.70 C 113.19 191.51 113.76 192.26 114.58 192.38 C 115.39 192.49 116.15 191.92 116.26 191.10 L 116.39 190.16 C 116.50 189.35 115.93 188.60 115.12 188.48 C 114.30 188.37 113.55 188.94 113.44 189.76 Z M 113.31 190.65 L 113.14 191.68 C 113.00 192.50 113.55 193.26 114.36 193.40 C 115.18 193.54 115.94 192.99 116.08 192.18 L 116.25 191.15 C 116.39 190.33 115.84 189.57 115.03 189.43 C 114.22 189.29 113.45 189.84 113.31 190.65 Z M 113.15 191.66 L 112.96 192.65 C 112.81 193.46 113.35 194.24 114.15 194.39 C 114.96 194.54 115.74 194.00 115.89 193.19 L 116.08 192.20 C 116.23 191.39 115.69 190.61 114.88 190.46 C 114.07 190.31 113.30 190.85 113.15 191.66 Z M 112.97 192.62 L 112.76 193.62 C 112.59 194.43 113.11 195.21 113.92 195.38 C 114.72 195.55 115.51 195.03 115.68 194.22 L 115.88 193.22 C 116.05 192.42 115.53 191.63 114.73 191.46 C 113.92 191.30 113.13 191.82 112.97 192.62 Z M 112.77 193.57 L 112.52 194.61 C 112.32 195.41 112.81 196.21 113.61 196.41 C 114.41 196.61 115.21 196.12 115.41 195.32 L 115.66 194.28 C 115.86 193.48 115.37 192.67 114.57 192.48 C 113.78 192.28 112.97 192.77 112.77 193.57 Z M 112.53 194.56 L 112.27 195.47 C 112.05 196.26 112.51 197.08 113.30 197.31 C 114.09 197.53 114.91 197.07 115.13 196.28 L 115.39 195.37 C 115.62 194.58 115.16 193.76 114.37 193.54 C 113.58 193.31 112.76 193.77 112.53 194.56 Z M 112.28 195.45 L 112.00 196.39 C 111.76 197.18 112.21 198.01 112.99 198.24 C 113.78 198.48 114.60 198.04 114.84 197.25 L 115.13 196.30 C 115.36 195.52 114.92 194.69 114.13 194.45 C 113.35 194.22 112.52 194.66 112.28 195.45 Z M 112.02 196.34 L 111.70 197.27 C 111.43 198.04 111.85 198.89 112.62 199.15 C 113.40 199.42 114.24 199.01 114.50 198.23 L 114.82 197.30 C 115.09 196.53 114.68 195.68 113.90 195.42 C 113.13 195.15 112.28 195.57 112.02 196.34 Z M 111.74 197.17 L 111.35 198.08 C 111.03 198.83 111.39 199.70 112.14 200.02 C 112.89 200.34 113.76 199.99 114.08 199.24 L 114.47 198.33 C 114.79 197.57 114.43 196.70 113.68 196.38 C 112.93 196.07 112.06 196.42 111.74 197.17 Z M 111.38 198.01 L 110.90 198.99 C 110.54 199.73 110.85 200.62 111.59 200.98 C 112.32 201.34 113.21 201.03 113.57 200.29 L 114.05 199.31 C 114.41 198.57 114.10 197.68 113.37 197.32 C 112.63 196.97 111.74 197.27 111.38 198.01 Z M 110.78 199.35 L 110.60 200.23 C 110.44 201.03 110.96 201.82 111.77 201.98 C 112.57 202.14 113.35 201.62 113.52 200.82 L 113.69 199.94 C 113.86 199.13 113.33 198.35 112.53 198.19 C 111.73 198.02 110.94 198.55 110.78 199.35 Z M 111.54 201.92 L 112.22 202.17 C 113.00 202.46 113.85 202.06 114.14 201.28 C 114.42 200.51 114.02 199.65 113.25 199.37 L 112.57 199.12 C 111.80 198.83 110.94 199.23 110.66 200.01 C 110.37 200.78 110.77 201.64 111.54 201.92 Z M 112.75 202.28 L 113.95 202.27 C 114.78 202.26 115.45 201.58 115.44 200.74 C 115.43 199.91 114.75 199.24 113.92 199.25 L 112.72 199.26 C 111.89 199.27 111.22 199.95 111.23 200.78 C 111.24 201.62 111.92 202.28 112.75 202.28 Z M 113.96 202.27 L 114.97 202.25 C 115.81 202.24 116.47 201.55 116.46 200.71 C 116.44 199.87 115.75 199.21 114.91 199.22 L 113.90 199.24 C 113.07 199.26 112.40 199.95 112.42 200.79 C 112.43 201.62 113.12 202.29 113.96 202.27 Z M 114.95 202.26 L 115.96 202.25 C 116.80 202.25 117.48 201.56 117.47 200.73 C 117.47 199.89 116.78 199.21 115.94 199.21 L 114.93 199.22 C 114.09 199.22 113.41 199.91 113.42 200.75 C 113.42 201.59 114.11 202.26 114.95 202.26 Z M 115.95 202.26 L 116.98 202.26 C 117.82 202.26 118.50 201.57 118.50 200.73 C 118.50 199.89 117.82 199.21 116.97 199.21 L 115.95 199.21 C 115.11 199.21 114.43 199.89 114.43 200.73 C 114.43 201.58 115.11 202.26 115.95 202.26 Z M 116.97 202.26 L 117.99 202.26 C 118.84 202.26 119.52 201.58 119.52 200.73 C 119.52 199.89 118.84 199.21 117.99 199.21 L 116.97 199.21 C 116.13 199.21 115.45 199.89 115.45 200.73 C 115.45 201.58 116.13 202.26 116.97 202.26 Z M 117.99 202.26 L 118.94 202.26 C 119.79 202.26 120.47 201.58 120.47 200.73 C 120.47 199.89 119.79 199.20 118.94 199.20 L 117.99 199.20 C 117.15 199.20 116.46 199.89 116.46 200.73 C 116.46 201.58 117.15 202.26 117.99 202.26 Z M 118.93 202.26 L 119.92 202.27 C 120.77 202.28 121.46 201.59 121.46 200.75 C 121.47 199.90 120.79 199.21 119.94 199.21 L 118.95 199.20 C 118.11 199.20 117.42 199.88 117.41 200.72 C 117.40 201.57 118.09 202.26 118.93 202.26 Z M 119.88 202.27 L 120.87 202.30 C 121.71 202.33 122.42 201.66 122.45 200.82 C 122.47 199.97 121.81 199.27 120.97 199.24 L 119.98 199.21 C 119.13 199.18 118.43 199.85 118.40 200.69 C 118.37 201.54 119.04 202.24 119.88 202.27 Z M 120.82 202.30 L 121.81 202.36 C 122.65 202.42 123.38 201.77 123.43 200.93 C 123.49 200.09 122.85 199.36 122.00 199.30 L 121.01 199.24 C 120.17 199.19 119.44 199.83 119.39 200.67 C 119.33 201.52 119.98 202.25 120.82 202.30 Z M 121.76 202.36 L 122.78 202.46 C 123.62 202.54 124.37 201.92 124.45 201.08 C 124.53 200.23 123.91 199.48 123.07 199.40 L 122.05 199.31 C 121.21 199.23 120.46 199.84 120.38 200.69 C 120.30 201.53 120.92 202.28 121.76 202.36 Z M 122.73 202.45 L 123.70 202.58 C 124.54 202.68 125.31 202.09 125.42 201.25 C 125.52 200.41 124.93 199.64 124.09 199.53 L 123.11 199.41 C 122.27 199.30 121.51 199.90 121.40 200.74 C 121.29 201.58 121.89 202.35 122.73 202.45 Z M 123.66 202.57 L 124.67 202.72 C 125.51 202.85 126.29 202.28 126.42 201.44 C 126.55 200.60 125.97 199.82 125.13 199.69 L 124.13 199.54 C 123.29 199.41 122.51 199.99 122.38 200.82 C 122.25 201.66 122.83 202.44 123.66 202.57 Z M 124.65 202.72 L 125.53 202.87 C 126.37 203.01 127.16 202.45 127.30 201.62 C 127.44 200.78 126.88 199.99 126.05 199.85 L 125.16 199.69 C 124.33 199.55 123.53 200.11 123.39 200.95 C 123.25 201.79 123.81 202.58 124.65 202.72 Z M 125.51 202.87 L 126.47 203.05 C 127.31 203.20 128.11 202.65 128.26 201.82 C 128.41 200.98 127.86 200.18 127.03 200.03 L 126.07 199.85 C 125.23 199.69 124.43 200.25 124.28 201.08 C 124.13 201.91 124.68 202.71 125.51 202.87 Z M 126.45 203.04 L 127.56 203.26 C 128.39 203.42 129.20 202.88 129.36 202.05 C 129.53 201.22 128.98 200.41 128.15 200.25 L 127.05 200.03 C 126.22 199.87 125.41 200.41 125.25 201.24 C 125.08 202.07 125.62 202.88 126.45 203.04 Z M 127.55 203.26 L 128.55 203.46 C 129.38 203.63 130.19 203.10 130.36 202.27 C 130.53 201.43 129.99 200.62 129.16 200.45 L 128.16 200.25 C 127.33 200.08 126.52 200.62 126.35 201.45 C 126.18 202.28 126.72 203.09 127.55 203.26 Z M 128.54 203.46 L 129.58 203.68 C 130.41 203.85 131.22 203.32 131.39 202.49 C 131.57 201.66 131.03 200.84 130.20 200.67 L 129.17 200.46 C 128.34 200.28 127.53 200.82 127.35 201.65 C 127.18 202.48 127.71 203.29 128.54 203.46 Z M 129.58 203.68 L 130.55 203.88 C 131.38 204.05 132.19 203.52 132.36 202.69 C 132.54 201.86 132.01 201.05 131.18 200.87 L 130.21 200.67 C 129.38 200.50 128.56 201.03 128.39 201.86 C 128.21 202.69 128.75 203.50 129.58 203.68 Z M 130.55 203.88 L 131.60 204.10 C 132.43 204.27 133.24 203.74 133.42 202.91 C 133.59 202.08 133.06 201.27 132.23 201.09 L 131.18 200.87 C 130.35 200.70 129.53 201.23 129.36 202.06 C 129.19 202.89 129.72 203.71 130.55 203.88 Z M 131.61 204.10 L 132.58 204.30 C 133.41 204.47 134.22 203.93 134.39 203.10 C 134.55 202.27 134.02 201.46 133.19 201.29 L 132.22 201.09 C 131.39 200.92 130.58 201.46 130.41 202.29 C 130.24 203.12 130.78 203.93 131.61 204.10 Z M 132.61 204.30 L 133.46 204.46 C 134.30 204.61 135.09 204.05 135.24 203.22 C 135.39 202.39 134.84 201.59 134.01 201.44 L 133.15 201.28 C 132.32 201.13 131.52 201.69 131.37 202.52 C 131.22 203.36 131.77 204.15 132.61 204.30 Z M 133.50 204.46 L 134.49 204.62 C 135.32 204.75 136.11 204.17 136.24 203.34 C 136.37 202.50 135.79 201.71 134.96 201.58 L 133.97 201.43 C 133.13 201.30 132.35 201.87 132.22 202.71 C 132.09 203.55 132.66 204.33 133.50 204.46 Z M 134.51 204.62 L 135.49 204.76 C 136.32 204.88 137.10 204.30 137.22 203.46 C 137.34 202.62 136.76 201.84 135.92 201.72 L 134.94 201.58 C 134.10 201.46 133.32 202.04 133.20 202.88 C 133.08 203.72 133.67 204.50 134.51 204.62 Z M 135.49 204.76 L 136.50 204.90 C 137.34 205.01 138.11 204.42 138.22 203.58 C 138.34 202.74 137.75 201.97 136.91 201.86 L 135.91 201.72 C 135.07 201.60 134.30 202.19 134.18 203.03 C 134.07 203.87 134.65 204.65 135.49 204.76 Z M 136.51 204.90 L 137.48 205.02 C 138.32 205.13 139.09 204.54 139.20 203.70 C 139.31 202.85 138.71 202.09 137.87 201.98 L 136.90 201.85 C 136.06 201.75 135.29 202.34 135.18 203.18 C 135.07 204.02 135.67 204.79 136.51 204.90 Z M 137.52 205.03 L 138.53 205.13 C 139.37 205.22 140.13 204.61 140.22 203.77 C 140.31 202.93 139.70 202.17 138.85 202.08 L 137.84 201.97 C 136.99 201.89 136.24 202.50 136.15 203.34 C 136.06 204.18 136.67 204.94 137.52 205.03 Z M 138.57 205.14 L 139.58 205.22 C 140.42 205.29 141.16 204.66 141.23 203.81 C 141.30 202.97 140.67 202.23 139.82 202.16 L 138.81 202.08 C 137.97 202.01 137.23 202.64 137.16 203.49 C 137.09 204.33 137.72 205.07 138.57 205.14 Z M 139.60 205.22 L 140.61 205.29 C 141.45 205.34 142.18 204.70 142.24 203.85 C 142.29 203.00 141.65 202.27 140.80 202.22 L 139.80 202.16 C 138.95 202.10 138.22 202.74 138.17 203.59 C 138.11 204.44 138.76 205.17 139.60 205.22 Z M 140.62 205.29 L 141.62 205.34 C 142.47 205.38 143.19 204.73 143.23 203.88 C 143.28 203.04 142.63 202.31 141.78 202.27 L 140.78 202.22 C 139.94 202.17 139.21 202.83 139.17 203.67 C 139.13 204.52 139.78 205.24 140.62 205.29 Z M 141.63 205.34 L 142.62 205.38 C 143.47 205.42 144.18 204.76 144.22 203.91 C 144.26 203.06 143.60 202.35 142.75 202.31 L 141.76 202.27 C 140.92 202.23 140.20 202.89 140.16 203.74 C 140.13 204.59 140.79 205.30 141.63 205.34 Z M 142.64 205.38 L 143.64 205.41 C 144.49 205.44 145.20 204.77 145.22 203.92 C 145.25 203.08 144.58 202.37 143.73 202.34 L 142.73 202.31 C 141.88 202.29 141.18 202.95 141.15 203.80 C 141.12 204.65 141.79 205.36 142.64 205.38 Z M 143.67 205.41 L 144.67 205.43 C 145.52 205.44 146.22 204.76 146.23 203.91 C 146.24 203.06 145.56 202.36 144.71 202.35 L 143.71 202.34 C 142.86 202.33 142.16 203.01 142.15 203.86 C 142.14 204.71 142.82 205.40 143.67 205.41 Z M 144.69 205.43 L 145.68 205.43 C 146.53 205.43 147.22 204.74 147.22 203.89 C 147.22 203.05 146.54 202.36 145.69 202.35 L 144.69 202.35 C 143.84 202.35 143.16 203.04 143.15 203.89 C 143.15 204.74 143.84 205.42 144.69 205.43 Z M 145.69 205.43 L 146.69 205.43 C 147.54 205.43 148.23 204.74 148.23 203.89 C 148.23 203.04 147.54 202.35 146.69 202.35 L 145.69 202.35 C 144.84 202.35 144.15 203.04 144.15 203.89 C 144.15 204.74 144.84 205.43 145.69 205.43 Z M 146.69 205.43 L 147.68 205.43 C 148.53 205.43 149.22 204.74 149.22 203.89 C 149.22 203.04 148.53 202.35 147.68 202.35 L 146.69 202.35 C 145.84 202.35 145.15 203.04 145.15 203.89 C 145.15 204.74 145.84 205.43 146.69 205.43 Z M 147.68 205.43 L 148.68 205.43 C 149.53 205.43 150.22 204.74 150.22 203.89 C 150.22 203.04 149.53 202.35 148.68 202.35 L 147.68 202.35 C 146.83 202.35 146.14 203.04 146.14 203.89 C 146.14 204.74 146.83 205.43 147.68 205.43 Z M 148.69 205.43 L 149.62 205.42 C 150.47 205.42 151.16 204.73 151.15 203.88 C 151.15 203.03 150.46 202.35 149.61 202.35 L 148.67 202.35 C 147.82 202.36 147.14 203.05 147.14 203.90 C 147.15 204.75 147.84 205.43 148.69 205.43 Z M 149.69 205.42 L 150.72 205.37 C 151.57 205.33 152.22 204.61 152.18 203.76 C 152.14 202.92 151.42 202.26 150.57 202.30 L 149.54 202.35 C 148.69 202.39 148.04 203.11 148.08 203.96 C 148.12 204.81 148.84 205.46 149.69 205.42 Z M 150.81 205.36 L 151.74 205.26 C 152.58 205.17 153.19 204.41 153.10 203.57 C 153.00 202.72 152.24 202.12 151.40 202.21 L 150.48 202.31 C 149.63 202.40 149.03 203.16 149.12 204.01 C 149.21 204.85 149.97 205.46 150.81 205.36 Z M 151.80 205.26 L 152.76 205.11 C 153.60 204.99 154.18 204.20 154.05 203.36 C 153.93 202.52 153.14 201.95 152.31 202.07 L 151.34 202.22 C 150.50 202.34 149.92 203.12 150.05 203.96 C 150.18 204.80 150.96 205.38 151.80 205.26 Z M 152.79 205.11 L 153.89 204.92 C 154.72 204.78 155.28 203.98 155.14 203.14 C 155.00 202.31 154.20 201.75 153.37 201.89 L 152.27 202.08 C 151.44 202.22 150.88 203.01 151.02 203.85 C 151.16 204.69 151.96 205.25 152.79 205.11 Z M 153.90 204.92 L 154.94 204.73 C 155.78 204.58 156.33 203.78 156.18 202.94 C 156.03 202.11 155.23 201.55 154.39 201.70 L 153.35 201.89 C 152.52 202.04 151.96 202.84 152.11 203.68 C 152.27 204.51 153.07 205.07 153.90 204.92 Z M 154.95 204.73 L 155.98 204.54 C 156.82 204.38 157.37 203.58 157.22 202.75 C 157.07 201.91 156.26 201.36 155.43 201.51 L 154.39 201.70 C 153.56 201.86 153.00 202.66 153.16 203.49 C 153.31 204.33 154.11 204.88 154.95 204.73 Z M 155.98 204.54 L 156.95 204.36 C 157.78 204.21 158.34 203.41 158.19 202.58 C 158.04 201.74 157.24 201.19 156.41 201.34 L 155.44 201.51 C 154.60 201.66 154.05 202.46 154.19 203.30 C 154.34 204.13 155.14 204.69 155.98 204.54 Z M 156.93 204.37 L 157.92 204.20 C 158.76 204.07 159.33 203.28 159.19 202.44 C 159.05 201.60 158.26 201.03 157.43 201.17 L 156.43 201.33 C 155.59 201.47 155.02 202.26 155.16 203.10 C 155.30 203.94 156.09 204.50 156.93 204.37 Z M 157.86 204.21 L 158.83 204.09 C 159.67 203.99 160.27 203.22 160.17 202.38 C 160.07 201.54 159.30 200.94 158.46 201.04 L 157.49 201.16 C 156.65 201.27 156.05 202.03 156.15 202.88 C 156.25 203.72 157.02 204.32 157.86 204.21 Z M 158.77 204.10 L 159.67 204.03 C 160.51 203.96 161.15 203.22 161.08 202.37 C 161.01 201.53 160.27 200.90 159.43 200.96 L 158.52 201.04 C 157.68 201.10 157.05 201.84 157.11 202.69 C 157.18 203.54 157.92 204.17 158.77 204.10 Z M 159.64 204.03 L 160.61 203.97 C 161.46 203.92 162.11 203.19 162.05 202.34 C 162.00 201.50 161.28 200.85 160.43 200.90 L 159.45 200.96 C 158.61 201.01 157.96 201.74 158.01 202.59 C 158.06 203.44 158.79 204.08 159.64 204.03 Z M 160.59 203.97 L 161.64 203.93 C 162.48 203.89 163.14 203.18 163.11 202.33 C 163.07 201.48 162.35 200.82 161.50 200.86 L 160.46 200.90 C 159.61 200.94 158.95 201.65 158.99 202.50 C 159.02 203.35 159.74 204.01 160.59 203.97 Z M 161.60 203.93 L 162.61 203.91 C 163.46 203.89 164.14 203.19 164.12 202.34 C 164.10 201.49 163.40 200.82 162.55 200.83 L 161.54 200.86 C 160.69 200.87 160.02 201.58 160.03 202.43 C 160.05 203.27 160.75 203.95 161.60 203.93 Z M 162.59 203.91 L 163.59 203.90 C 164.44 203.90 165.12 203.21 165.12 202.36 C 165.11 201.51 164.42 200.82 163.57 200.83 L 162.57 200.83 C 161.72 200.84 161.04 201.53 161.04 202.38 C 161.05 203.23 161.74 203.91 162.59 203.91 Z M 163.58 203.90 L 164.60 203.90 C 165.44 203.90 166.13 203.22 166.13 202.37 C 166.13 201.52 165.44 200.83 164.60 200.83 L 163.58 200.83 C 162.73 200.83 162.04 201.52 162.04 202.37 C 162.04 203.21 162.73 203.90 163.58 203.90 Z M 164.57 203.90 L 165.59 203.92 C 166.44 203.93 167.14 203.26 167.16 202.41 C 167.17 201.56 166.49 200.86 165.64 200.84 L 164.62 200.83 C 163.77 200.81 163.07 201.49 163.06 202.34 C 163.04 203.19 163.72 203.89 164.57 203.90 Z M 165.51 203.92 L 166.47 203.98 C 167.32 204.04 168.05 203.40 168.11 202.56 C 168.17 201.71 167.53 200.97 166.68 200.91 L 165.72 200.85 C 164.88 200.79 164.14 201.43 164.08 202.27 C 164.02 203.12 164.66 203.86 165.51 203.92 Z M 166.30 203.96 L 167.30 204.14 C 168.13 204.29 168.93 203.74 169.09 202.90 C 169.24 202.07 168.68 201.27 167.85 201.11 L 166.85 200.93 C 166.02 200.78 165.22 201.34 165.06 202.17 C 164.91 203.01 165.47 203.81 166.30 203.96 Z M 167.10 204.09 L 168.03 204.39 C 168.84 204.65 169.71 204.21 169.96 203.40 C 170.22 202.59 169.78 201.72 168.97 201.46 L 168.04 201.16 C 167.23 200.90 166.37 201.35 166.11 202.16 C 165.85 202.97 166.29 203.84 167.10 204.09 Z M 167.90 204.34 L 168.78 204.72 C 169.56 205.05 170.47 204.68 170.80 203.90 C 171.13 203.12 170.76 202.22 169.98 201.88 L 169.10 201.51 C 168.32 201.18 167.41 201.54 167.08 202.32 C 166.75 203.11 167.12 204.01 167.90 204.34 Z M 168.73 204.70 L 169.68 205.14 C 170.45 205.50 171.36 205.16 171.72 204.39 C 172.08 203.62 171.75 202.71 170.98 202.35 L 170.03 201.90 C 169.26 201.55 168.34 201.88 167.99 202.65 C 167.63 203.42 167.96 204.34 168.73 204.70 Z M 169.69 205.14 L 170.62 205.57 C 171.39 205.92 172.31 205.58 172.66 204.80 C 173.01 204.03 172.67 203.12 171.90 202.76 L 170.97 202.34 C 170.19 201.99 169.28 202.33 168.93 203.10 C 168.57 203.88 168.92 204.79 169.69 205.14 Z M 170.69 205.60 L 171.62 205.97 C 172.41 206.28 173.31 205.90 173.62 205.11 C 173.94 204.32 173.55 203.42 172.76 203.11 L 171.83 202.73 C 171.04 202.42 170.14 202.81 169.83 203.60 C 169.51 204.39 169.90 205.28 170.69 205.60 Z M 171.79 206.02 L 172.76 206.29 C 173.58 206.51 174.43 206.03 174.65 205.21 C 174.88 204.39 174.39 203.55 173.58 203.32 L 172.60 203.05 C 171.78 202.83 170.93 203.31 170.71 204.13 C 170.48 204.95 170.97 205.80 171.79 206.02 Z M 172.99 206.33 L 173.96 206.45 C 174.81 206.55 175.57 205.94 175.67 205.10 C 175.77 204.25 175.17 203.49 174.32 203.39 L 173.35 203.28 C 172.50 203.18 171.74 203.78 171.64 204.63 C 171.54 205.47 172.14 206.23 172.99 206.33 Z M 174.12 206.46 L 175.12 206.47 C 175.97 206.48 176.66 205.80 176.67 204.95 C 176.68 204.10 176.00 203.40 175.15 203.39 L 174.16 203.38 C 173.31 203.37 172.61 204.05 172.60 204.90 C 172.59 205.75 173.27 206.45 174.12 206.46 Z M 175.25 206.46 L 176.25 206.39 C 177.10 206.32 177.73 205.58 177.67 204.74 C 177.60 203.89 176.86 203.25 176.02 203.32 L 175.02 203.40 C 174.17 203.46 173.53 204.20 173.60 205.05 C 173.67 205.90 174.41 206.53 175.25 206.46 Z M 176.48 206.35 L 177.42 206.14 C 178.25 205.95 178.77 205.12 178.57 204.29 C 178.38 203.47 177.56 202.95 176.73 203.14 L 175.79 203.36 C 174.96 203.55 174.45 204.37 174.64 205.20 C 174.83 206.03 175.65 206.54 176.48 206.35 Z M 177.68 206.05 L 178.60 205.65 C 179.38 205.32 179.74 204.42 179.41 203.64 C 179.08 202.86 178.17 202.50 177.39 202.83 L 176.47 203.23 C 175.69 203.56 175.33 204.46 175.66 205.24 C 176.00 206.02 176.90 206.38 177.68 206.05 Z M 178.78 205.56 L 179.67 205.04 C 180.40 204.61 180.64 203.67 180.21 202.94 C 179.78 202.21 178.84 201.96 178.11 202.39 L 177.22 202.92 C 176.49 203.35 176.24 204.29 176.68 205.02 C 177.11 205.75 178.05 206.00 178.78 205.56 Z M 179.89 204.88 L 180.65 204.23 C 181.29 203.67 181.36 202.70 180.80 202.06 C 180.24 201.42 179.27 201.35 178.63 201.90 L 177.88 202.56 C 177.24 203.11 177.17 204.08 177.73 204.72 C 178.28 205.36 179.25 205.43 179.89 204.88 Z M 181.01 203.76 L 181.41 202.97 C 181.79 202.22 181.49 201.29 180.73 200.91 C 179.98 200.52 179.05 200.83 178.67 201.58 L 178.27 202.37 C 177.89 203.13 178.19 204.05 178.94 204.44 C 179.70 204.82 180.63 204.52 181.01 203.76 Z M 181.57 202.44 L 181.67 201.41 C 181.76 200.56 181.15 199.81 180.30 199.72 C 179.46 199.64 178.70 200.25 178.62 201.10 L 178.51 202.12 C 178.42 202.97 179.04 203.72 179.88 203.81 C 180.73 203.89 181.48 203.28 181.57 202.44 Z M 181.68 201.27 L 181.70 200.25 C 181.71 199.40 181.03 198.70 180.18 198.69 C 179.33 198.68 178.63 199.36 178.62 200.20 L 178.61 201.23 C 178.59 202.08 179.27 202.78 180.12 202.79 C 180.97 202.80 181.67 202.12 181.68 201.27 Z M 181.70 200.23 L 181.70 199.19 C 181.71 198.34 181.02 197.65 180.17 197.65 C 179.32 197.64 178.63 198.33 178.63 199.18 L 178.62 200.22 C 178.62 201.07 179.30 201.76 180.15 201.76 C 181.00 201.77 181.69 201.08 181.70 200.23 Z M 181.70 199.18 L 181.70 198.19 C 181.70 197.34 181.02 196.65 180.17 196.65 C 179.32 196.65 178.63 197.34 178.63 198.19 L 178.63 199.18 C 178.62 200.03 179.31 200.72 180.16 200.72 C 181.01 200.72 181.70 200.03 181.70 199.18 Z M 181.70 198.19 L 181.71 197.10 C 181.71 196.25 181.02 195.56 180.17 195.56 C 179.32 195.55 178.63 196.24 178.63 197.09 L 178.63 198.19 C 178.62 199.04 179.31 199.73 180.16 199.73 C 181.01 199.73 181.70 199.04 181.70 198.19 Z M 181.71 197.13 L 181.72 196.22 C 181.74 195.37 181.07 194.67 180.22 194.65 C 179.37 194.63 178.66 195.31 178.65 196.16 L 178.63 197.06 C 178.61 197.91 179.29 198.62 180.14 198.63 C 180.99 198.65 181.69 197.98 181.71 197.13 Z M 181.72 196.27 L 181.77 195.31 C 181.82 194.46 181.17 193.73 180.32 193.69 C 179.47 193.64 178.75 194.29 178.70 195.14 L 178.65 196.10 C 178.60 196.95 179.25 197.68 180.10 197.72 C 180.95 197.77 181.68 197.12 181.72 196.27 Z M 181.77 195.32 L 181.84 194.31 C 181.89 193.46 181.25 192.73 180.40 192.67 C 179.55 192.62 178.82 193.26 178.76 194.11 L 178.70 195.13 C 178.65 195.98 179.29 196.71 180.14 196.76 C 180.99 196.82 181.72 196.17 181.77 195.32 Z M 181.84 194.28 L 181.88 193.41 C 181.92 192.56 181.27 191.83 180.42 191.79 C 179.57 191.75 178.85 192.40 178.81 193.25 L 178.76 194.13 C 178.72 194.98 179.38 195.70 180.23 195.75 C 181.07 195.79 181.80 195.13 181.84 194.28 Z M 181.88 193.40 L 181.93 192.35 C 181.97 191.50 181.31 190.78 180.47 190.74 C 179.62 190.70 178.89 191.36 178.86 192.21 L 178.81 193.26 C 178.77 194.11 179.42 194.83 180.27 194.87 C 181.12 194.91 181.84 194.25 181.88 193.40 Z M 181.93 192.36 L 181.99 191.30 C 182.03 190.45 181.38 189.73 180.53 189.68 C 179.68 189.64 178.96 190.29 178.91 191.14 L 178.86 192.20 C 178.81 193.05 179.46 193.77 180.31 193.82 C 181.16 193.86 181.89 193.21 181.93 192.36 Z M 181.99 191.31 L 182.05 190.26 C 182.09 189.42 181.44 188.69 180.59 188.64 C 179.75 188.59 179.02 189.24 178.97 190.09 L 178.91 191.14 C 178.86 191.98 179.51 192.71 180.36 192.76 C 181.21 192.81 181.94 192.16 181.99 191.31 Z M 182.05 190.27 L 182.10 189.25 C 182.15 188.40 181.50 187.67 180.66 187.62 C 179.81 187.57 179.08 188.22 179.03 189.07 L 178.97 190.09 C 178.92 190.94 179.57 191.67 180.42 191.72 C 181.27 191.76 182.00 191.12 182.05 190.27 Z M 182.10 189.25 L 182.16 188.19 C 182.21 187.34 181.56 186.61 180.71 186.57 C 179.86 186.52 179.13 187.17 179.09 188.02 L 179.03 189.08 C 178.98 189.92 179.63 190.65 180.48 190.70 C 181.33 190.75 182.06 190.10 182.10 189.25 Z M 182.16 188.18 L 182.21 187.20 C 182.26 186.35 181.60 185.62 180.75 185.58 C 179.90 185.54 179.18 186.19 179.14 187.04 L 179.09 188.03 C 179.04 188.88 179.70 189.60 180.55 189.64 C 181.40 189.69 182.12 189.03 182.16 188.18 Z M 182.21 187.19 L 182.25 186.30 C 182.29 185.45 181.63 184.73 180.78 184.69 C 179.93 184.66 179.21 185.32 179.17 186.17 L 179.14 187.05 C 179.10 187.90 179.76 188.62 180.61 188.66 C 181.46 188.70 182.18 188.04 182.21 187.19 Z M 182.25 186.30 L 182.29 185.30 C 182.33 184.45 181.67 183.73 180.81 183.70 C 179.96 183.66 179.25 184.33 179.21 185.18 L 179.17 186.17 C 179.14 187.02 179.80 187.74 180.65 187.77 C 181.50 187.81 182.22 187.15 182.25 186.30 Z M 182.29 185.30 L 182.33 184.31 C 182.36 183.46 181.70 182.75 180.85 182.71 C 180.00 182.68 179.28 183.35 179.25 184.20 L 179.21 185.18 C 179.18 186.03 179.84 186.75 180.70 186.78 C 181.55 186.81 182.26 186.15 182.29 185.30 Z M 182.33 184.30 L 182.36 183.31 C 182.39 182.46 181.72 181.75 180.87 181.72 C 180.02 181.70 179.31 182.36 179.28 183.22 L 179.25 184.21 C 179.22 185.06 179.89 185.77 180.74 185.79 C 181.59 185.82 182.30 185.15 182.33 184.30 Z M 182.36 183.29 L 182.38 182.27 C 182.39 181.42 181.72 180.71 180.86 180.70 C 180.01 180.68 179.31 181.36 179.30 182.21 L 179.28 183.24 C 179.26 184.09 179.94 184.79 180.79 184.80 C 181.64 184.82 182.35 184.14 182.36 183.29 Z M 182.38 182.25 L 182.38 181.26 C 182.39 180.41 181.70 179.71 180.85 179.71 C 180.00 179.70 179.31 180.39 179.30 181.24 L 179.30 182.23 C 179.29 183.08 179.98 183.78 180.83 183.78 C 181.68 183.79 182.37 183.10 182.38 182.25 Z M 182.38 181.25 L 182.39 180.22 C 182.39 179.37 181.70 178.68 180.85 178.68 C 180.00 178.68 179.31 179.37 179.30 180.22 L 179.30 181.25 C 179.30 182.10 179.99 182.79 180.84 182.79 C 181.69 182.79 182.38 182.10 182.38 181.25 Z M 182.39 180.22 L 182.39 179.22 C 182.39 178.37 181.70 177.68 180.85 177.68 C 179.99 177.68 179.30 178.37 179.30 179.22 L 179.30 180.22 C 179.30 181.07 179.99 181.76 180.85 181.76 C 181.70 181.76 182.39 181.07 182.39 180.22 Z M 182.39 179.22 L 182.39 178.23 C 182.39 177.38 181.70 176.69 180.85 176.69 C 179.99 176.69 179.30 177.38 179.30 178.23 L 179.30 179.22 C 179.30 180.07 179.99 180.76 180.85 180.76 C 181.70 180.76 182.39 180.07 182.39 179.22 Z M 182.39 178.23 L 182.39 177.22 C 182.39 176.37 181.70 175.68 180.85 175.68 C 179.99 175.68 179.30 176.37 179.30 177.22 L 179.30 178.23 C 179.30 179.08 179.99 179.77 180.85 179.77 C 181.70 179.77 182.39 179.08 182.39 178.23 Z M 182.39 177.22 L 182.39 176.24 C 182.39 175.38 181.70 174.69 180.85 174.69 C 179.99 174.69 179.30 175.38 179.30 176.24 L 179.30 177.22 C 179.30 178.07 179.99 178.76 180.85 178.76 C 181.70 178.76 182.39 178.07 182.39 177.22 Z M 182.39 176.24 L 182.39 175.23 C 182.39 174.38 181.70 173.69 180.85 173.69 C 179.99 173.69 179.30 174.38 179.30 175.23 L 179.30 176.24 C 179.30 177.09 179.99 177.78 180.85 177.78 C 181.70 177.78 182.39 177.09 182.39 176.24 Z M 182.39 175.23 L 182.39 174.22 C 182.39 173.37 181.70 172.68 180.85 172.68 C 179.99 172.68 179.30 173.37 179.30 174.22 L 179.30 175.23 C 179.30 176.08 179.99 176.77 180.85 176.77 C 181.70 176.77 182.39 176.08 182.39 175.23 Z M 182.39 174.22 L 182.39 173.22 C 182.39 172.37 181.70 171.68 180.85 171.68 C 179.99 171.68 179.30 172.37 179.30 173.22 L 179.30 174.22 C 179.30 175.07 179.99 175.76 180.85 175.76 C 181.70 175.76 182.39 175.07 182.39 174.22 Z M 182.39 173.22 L 182.39 172.22 C 182.39 171.37 181.70 170.68 180.85 170.68 C 179.99 170.68 179.30 171.37 179.30 172.22 L 179.30 173.22 C 179.30 174.07 179.99 174.76 180.85 174.76 C 181.70 174.76 182.39 174.07 182.39 173.22 Z M 182.39 172.22 L 182.39 171.22 C 182.39 170.36 181.70 169.67 180.85 169.67 C 179.99 169.67 179.30 170.36 179.30 171.22 L 179.30 172.22 C 179.30 173.07 179.99 173.76 180.85 173.76 C 181.70 173.76 182.39 173.07 182.39 172.22 Z M 182.39 171.22 L 182.39 170.21 C 182.39 169.36 181.70 168.67 180.85 168.67 C 179.99 168.67 179.30 169.36 179.30 170.21 L 179.30 171.22 C 179.30 172.07 179.99 172.76 180.85 172.76 C 181.70 172.76 182.39 172.07 182.39 171.22 Z M 182.39 170.21 L 182.39 169.21 C 182.39 168.36 181.70 167.67 180.85 167.67 C 179.99 167.67 179.30 168.36 179.30 169.21 L 179.30 170.21 C 179.30 171.06 179.99 171.75 180.85 171.75 C 181.70 171.75 182.39 171.06 182.39 170.21 Z M 182.39 169.21 L 182.39 168.22 C 182.39 167.37 181.70 166.68 180.85 166.68 C 179.99 166.68 179.30 167.37 179.30 168.22 L 179.30 169.21 C 179.30 170.06 179.99 170.75 180.85 170.75 C 181.70 170.75 182.39 170.06 182.39 169.21 Z M 182.39 168.22 L 182.39 167.24 C 182.39 166.39 181.70 165.70 180.85 165.70 C 179.99 165.70 179.30 166.39 179.30 167.24 L 179.30 168.22 C 179.30 169.08 179.99 169.77 180.85 169.77 C 181.70 169.77 182.39 169.08 182.39 168.22 Z M 182.39 167.24 L 182.39 166.23 C 182.39 165.38 181.70 164.69 180.85 164.69 C 179.99 164.69 179.30 165.38 179.30 166.23 L 179.30 167.24 C 179.30 168.09 179.99 168.78 180.85 168.78 C 181.70 168.78 182.39 168.09 182.39 167.24 Z M 182.39 166.23 L 182.39 165.22 C 182.39 164.37 181.70 163.68 180.85 163.68 C 179.99 163.68 179.30 164.37 179.30 165.22 L 179.30 166.23 C 179.30 167.08 179.99 167.77 180.85 167.77 C 181.70 167.77 182.39 167.08 182.39 166.23 Z M 182.39 165.22 L 182.39 164.21 C 182.39 163.36 181.70 162.67 180.85 162.67 C 179.99 162.67 179.30 163.36 179.30 164.21 L 179.30 165.22 C 179.30 166.07 179.99 166.76 180.85 166.76 C 181.70 166.76 182.39 166.07 182.39 165.22 Z M 182.39 164.21 L 182.39 163.21 C 182.39 162.36 181.70 161.67 180.85 161.67 C 179.99 161.67 179.30 162.36 179.30 163.21 L 179.30 164.21 C 179.30 165.06 179.99 165.75 180.85 165.75 C 181.70 165.75 182.39 165.06 182.39 164.21 Z M 182.39 163.21 L 182.39 162.20 C 182.39 161.35 181.70 160.66 180.85 160.66 C 179.99 160.66 179.30 161.35 179.30 162.20 L 179.30 163.21 C 179.30 164.06 179.99 164.75 180.85 164.75 C 181.70 164.75 182.39 164.06 182.39 163.21 Z M 182.39 162.20 L 182.39 161.20 C 182.39 160.34 181.70 159.65 180.85 159.65 C 179.99 159.65 179.30 160.34 179.30 161.20 L 179.30 162.20 C 179.30 163.05 179.99 163.74 180.85 163.74 C 181.70 163.74 182.39 163.05 182.39 162.20 Z M 182.39 161.20 L 182.39 160.21 C 182.39 159.36 181.70 158.67 180.85 158.67 C 179.99 158.67 179.30 159.36 179.30 160.21 L 179.30 161.20 C 179.30 162.05 179.99 162.74 180.85 162.74 C 181.70 162.74 182.39 162.05 182.39 161.20 Z M 182.39 160.21 L 182.39 159.23 C 182.39 158.38 181.70 157.69 180.85 157.69 C 179.99 157.69 179.30 158.38 179.30 159.23 L 179.30 160.21 C 179.30 161.07 179.99 161.76 180.85 161.76 C 181.70 161.76 182.39 161.06 182.39 160.21 Z M 182.39 159.23 L 182.39 158.24 C 182.39 157.38 181.69 156.69 180.84 156.69 C 179.99 156.70 179.30 157.39 179.30 158.24 L 179.30 159.23 C 179.30 160.09 179.99 160.78 180.85 160.78 C 181.70 160.78 182.39 160.08 182.39 159.23 Z M 182.39 158.23 L 182.38 157.22 C 182.38 156.36 181.68 155.67 180.83 155.68 C 179.97 155.69 179.28 156.38 179.29 157.24 L 179.30 158.25 C 179.30 159.11 180.00 159.79 180.85 159.79 C 181.71 159.78 182.40 159.09 182.39 158.23 Z M 182.38 157.21 L 182.37 156.21 C 182.36 155.36 181.66 154.67 180.80 154.68 C 179.95 154.69 179.27 155.40 179.28 156.25 L 179.29 157.25 C 179.30 158.10 180.00 158.79 180.86 158.78 C 181.71 158.76 182.40 158.06 182.38 157.21 Z M 182.37 156.20 L 182.35 155.21 C 182.34 154.35 181.63 153.67 180.78 153.69 C 179.92 153.71 179.24 154.41 179.26 155.27 L 179.28 156.26 C 179.29 157.12 180.00 157.79 180.85 157.78 C 181.71 157.76 182.39 157.06 182.37 156.20 Z M 182.35 155.20 L 182.33 154.19 C 182.31 153.34 181.60 152.66 180.75 152.68 C 179.89 152.70 179.22 153.41 179.24 154.26 L 179.26 155.27 C 179.28 156.13 179.99 156.80 180.84 156.78 C 181.69 156.76 182.37 156.06 182.35 155.20 Z M 182.33 154.19 L 182.31 153.18 C 182.29 152.33 181.58 151.65 180.72 151.67 C 179.87 151.69 179.19 152.40 179.21 153.26 L 179.24 154.26 C 179.26 155.12 179.96 155.79 180.82 155.77 C 181.67 155.75 182.35 155.05 182.33 154.19 Z M 182.31 153.19 L 182.28 152.19 C 182.26 151.33 181.55 150.66 180.70 150.68 C 179.85 150.70 179.17 151.40 179.19 152.26 L 179.21 153.26 C 179.23 154.11 179.94 154.79 180.80 154.77 C 181.65 154.75 182.33 154.04 182.31 153.19 Z M 182.28 152.19 L 182.26 151.18 C 182.24 150.33 181.53 149.66 180.68 149.67 C 179.82 149.69 179.15 150.40 179.17 151.26 L 179.19 152.26 C 179.21 153.11 179.92 153.79 180.77 153.77 C 181.63 153.75 182.30 153.04 182.28 152.19 Z M 182.26 151.18 L 182.24 150.19 C 182.22 149.33 181.51 148.66 180.66 148.68 C 179.80 148.70 179.13 149.40 179.15 150.26 L 179.17 151.26 C 179.19 152.11 179.90 152.78 180.75 152.77 C 181.60 152.75 182.28 152.04 182.26 151.18 Z M 182.23 150.19 L 182.21 149.20 C 182.19 148.35 181.49 147.67 180.63 147.69 C 179.78 147.71 179.11 148.42 179.12 149.27 L 179.15 150.26 C 179.17 151.11 179.87 151.79 180.73 151.77 C 181.58 151.75 182.25 151.04 182.23 150.19 Z M 182.21 149.20 L 182.19 148.20 C 182.17 147.35 181.46 146.68 180.61 146.69 C 179.76 146.71 179.08 147.42 179.10 148.27 L 179.13 149.27 C 179.15 150.12 179.85 150.80 180.70 150.78 C 181.55 150.76 182.23 150.05 182.21 149.20 Z M 182.19 148.20 L 182.16 147.18 C 182.14 146.33 181.44 145.66 180.59 145.68 C 179.74 145.70 179.06 146.40 179.08 147.25 L 179.11 148.27 C 179.12 149.12 179.83 149.80 180.68 149.78 C 181.53 149.76 182.21 149.05 182.19 148.20 Z M 182.16 147.19 L 182.14 146.16 C 182.12 145.31 181.42 144.63 180.57 144.65 C 179.72 144.67 179.04 145.38 179.06 146.23 L 179.08 147.25 C 179.10 148.10 179.81 148.78 180.66 148.76 C 181.51 148.74 182.18 148.04 182.16 147.19 Z M 182.14 146.16 L 182.12 145.14 C 182.10 144.29 181.39 143.62 180.54 143.63 C 179.69 143.65 179.02 144.36 179.04 145.21 L 179.06 146.23 C 179.08 147.08 179.78 147.75 180.64 147.73 C 181.49 147.71 182.16 147.01 182.14 146.16 Z M 182.12 145.14 L 182.09 144.16 C 182.07 143.31 181.37 142.64 180.52 142.66 C 179.67 142.68 178.99 143.38 179.01 144.24 L 179.04 145.21 C 179.06 146.06 179.76 146.73 180.62 146.71 C 181.47 146.69 182.14 145.99 182.12 145.14 Z M 182.09 144.16 L 182.07 143.11 C 182.04 142.26 181.33 141.59 180.48 141.62 C 179.63 141.64 178.96 142.35 178.99 143.20 L 179.01 144.24 C 179.04 145.09 179.75 145.76 180.60 145.74 C 181.45 145.71 182.12 145.01 182.09 144.16 Z M 182.07 143.11 L 182.03 142.10 C 182.01 141.25 181.30 140.59 180.44 140.61 C 179.59 140.64 178.93 141.35 178.95 142.20 L 178.98 143.20 C 179.01 144.06 179.72 144.72 180.57 144.70 C 181.43 144.67 182.09 143.96 182.07 143.11 Z M 182.04 142.10 L 182.00 141.17 C 181.98 140.32 181.26 139.65 180.41 139.68 C 179.56 139.71 178.89 140.42 178.92 141.27 L 178.95 142.21 C 178.98 143.06 179.69 143.72 180.55 143.70 C 181.40 143.67 182.06 142.95 182.04 142.10 Z M 182.01 141.17 L 181.97 140.14 C 181.94 139.29 181.23 138.62 180.38 138.65 C 179.53 138.68 178.86 139.39 178.89 140.24 L 178.92 141.27 C 178.95 142.12 179.66 142.79 180.51 142.76 C 181.37 142.74 182.03 142.02 182.01 141.17 Z M 181.97 140.14 L 181.94 139.16 C 181.91 138.31 181.20 137.64 180.35 137.67 C 179.49 137.69 178.82 138.41 178.85 139.26 L 178.89 140.24 C 178.91 141.10 179.63 141.76 180.48 141.74 C 181.33 141.71 182.00 140.99 181.97 140.14 Z M 181.94 139.16 L 181.91 138.16 C 181.88 137.30 181.16 136.64 180.31 136.67 C 179.46 136.70 178.79 137.41 178.82 138.26 L 178.85 139.26 C 178.88 140.11 179.60 140.78 180.45 140.75 C 181.30 140.72 181.97 140.01 181.94 139.16 Z M 181.91 138.16 L 181.87 137.16 C 181.84 136.31 181.13 135.64 180.27 135.67 C 179.42 135.70 178.75 136.42 178.78 137.27 L 178.82 138.26 C 178.85 139.12 179.56 139.78 180.42 139.75 C 181.27 139.72 181.94 139.01 181.91 138.16 Z M 181.87 137.16 L 181.83 136.17 C 181.80 135.31 181.09 134.65 180.24 134.68 C 179.38 134.71 178.72 135.42 178.75 136.28 L 178.78 137.27 C 178.81 138.13 179.53 138.79 180.38 138.76 C 181.24 138.73 181.90 138.01 181.87 137.16 Z M 181.83 136.15 L 181.79 135.15 C 181.75 134.30 181.02 133.64 180.17 133.68 C 179.32 133.72 178.66 134.44 178.70 135.29 L 178.75 136.29 C 178.79 137.15 179.51 137.80 180.36 137.76 C 181.22 137.72 181.87 137.00 181.83 136.15 Z M 181.78 135.10 L 181.71 134.12 C 181.65 133.27 180.90 132.63 180.05 132.70 C 179.20 132.76 178.56 133.51 178.63 134.36 L 178.70 135.34 C 178.77 136.19 179.51 136.83 180.36 136.76 C 181.21 136.70 181.85 135.95 181.78 135.10 Z M 181.71 134.08 L 181.61 133.09 C 181.52 132.25 180.76 131.63 179.91 131.72 C 179.06 131.80 178.44 132.56 178.53 133.41 L 178.63 134.40 C 178.72 135.25 179.48 135.86 180.33 135.78 C 181.18 135.69 181.79 134.93 181.71 134.08 Z M 181.61 133.09 L 181.50 132.08 C 181.41 131.23 180.65 130.61 179.80 130.70 C 178.95 130.79 178.33 131.55 178.42 132.40 L 178.53 133.41 C 178.62 134.26 179.38 134.88 180.23 134.79 C 181.08 134.70 181.69 133.94 181.61 133.09 Z M 181.50 132.08 L 181.39 131.06 C 181.31 130.21 180.55 129.60 179.70 129.68 C 178.85 129.77 178.23 130.53 178.32 131.38 L 178.42 132.40 C 178.51 133.25 179.27 133.86 180.12 133.77 C 180.97 133.69 181.59 132.93 181.50 132.08 Z M 181.39 131.04 L 181.27 130.04 C 181.17 129.20 180.40 128.59 179.55 128.70 C 178.70 128.80 178.10 129.57 178.20 130.42 L 178.32 131.41 C 178.42 132.26 179.19 132.86 180.04 132.76 C 180.89 132.65 181.49 131.88 181.39 131.04 Z M 181.26 129.99 L 181.10 128.98 C 180.97 128.14 180.18 127.56 179.33 127.70 C 178.49 127.83 177.91 128.63 178.05 129.47 L 178.21 130.47 C 178.34 131.32 179.14 131.89 179.98 131.76 C 180.82 131.62 181.40 130.83 181.26 129.99 Z M 181.10 128.94 L 180.92 127.99 C 180.76 127.15 179.96 126.60 179.12 126.75 C 178.28 126.91 177.72 127.72 177.88 128.56 L 178.06 129.51 C 178.21 130.35 179.02 130.90 179.86 130.75 C 180.70 130.59 181.25 129.78 181.10 128.94 Z M 180.92 127.98 L 180.73 127.00 C 180.57 126.16 179.76 125.61 178.92 125.78 C 178.08 125.94 177.53 126.75 177.69 127.59 L 177.88 128.57 C 178.04 129.41 178.85 129.96 179.69 129.79 C 180.53 129.63 181.08 128.82 180.92 127.98 Z M 180.73 126.99 L 180.54 126.06 C 180.38 125.22 179.56 124.68 178.72 124.85 C 177.89 125.01 177.34 125.83 177.51 126.66 L 177.69 127.60 C 177.86 128.43 178.67 128.98 179.51 128.81 C 180.35 128.65 180.89 127.83 180.73 126.99 Z M 180.54 126.05 L 180.33 125.02 C 180.15 124.19 179.33 123.65 178.50 123.83 C 177.66 124.00 177.12 124.82 177.30 125.66 L 177.51 126.68 C 177.69 127.52 178.51 128.05 179.34 127.88 C 180.18 127.70 180.71 126.88 180.54 126.05 Z M 180.32 125.01 L 180.11 124.06 C 179.93 123.22 179.10 122.70 178.27 122.88 C 177.43 123.07 176.91 123.89 177.09 124.73 L 177.30 125.67 C 177.49 126.51 178.31 127.04 179.15 126.85 C 179.98 126.67 180.51 125.84 180.32 125.01 Z M 180.11 124.04 L 179.87 123.04 C 179.68 122.21 178.84 121.69 178.01 121.89 C 177.18 122.08 176.66 122.91 176.86 123.75 L 177.10 124.75 C 177.29 125.58 178.13 126.09 178.96 125.90 C 179.79 125.70 180.30 124.87 180.11 124.04 Z M 179.86 123.01 L 179.61 122.00 C 179.39 121.17 178.55 120.67 177.72 120.88 C 176.89 121.09 176.40 121.94 176.61 122.76 L 176.87 123.78 C 177.08 124.60 177.92 125.10 178.75 124.89 C 179.58 124.68 180.08 123.83 179.86 123.01 Z M 179.60 121.99 L 179.36 121.05 C 179.14 120.22 178.30 119.72 177.47 119.94 C 176.65 120.15 176.15 121.00 176.36 121.82 L 176.61 122.77 C 176.82 123.60 177.67 124.09 178.50 123.88 C 179.32 123.66 179.82 122.82 179.60 121.99 Z M 179.37 121.10 L 179.15 120.12 C 178.97 119.28 178.15 118.76 177.31 118.94 C 176.48 119.12 175.95 119.95 176.14 120.78 L 176.35 121.77 C 176.54 122.60 177.36 123.13 178.19 122.95 C 179.03 122.76 179.55 121.94 179.37 121.10 Z M 179.17 120.23 L 179.03 119.27 C 178.91 118.42 178.13 117.84 177.29 117.96 C 176.44 118.08 175.86 118.86 175.98 119.70 L 176.12 120.67 C 176.24 121.51 177.02 122.10 177.86 121.98 C 178.71 121.85 179.29 121.07 179.17 120.23 Z M 179.03 119.23 L 178.85 118.19 C 178.71 117.35 177.91 116.78 177.07 116.92 C 176.23 117.07 175.67 117.86 175.81 118.70 L 175.98 119.74 C 176.13 120.58 176.92 121.15 177.76 121.01 C 178.60 120.87 179.17 120.07 179.03 119.23 Z M 177.24 116.90 L 176.55 116.94 C 175.70 116.99 175.05 117.72 175.09 118.57 C 175.14 119.43 175.87 120.08 176.73 120.03 L 177.42 119.99 C 178.27 119.94 178.93 119.21 178.88 118.36 C 178.83 117.50 178.10 116.85 177.24 116.90 Z M 175.73 117.23 L 174.84 117.88 C 174.14 118.38 173.99 119.35 174.49 120.05 C 175.00 120.74 175.97 120.89 176.66 120.39 L 177.56 119.74 C 178.25 119.24 178.40 118.26 177.90 117.57 C 177.39 116.88 176.42 116.72 175.73 117.23 Z M 174.74 117.95 L 173.99 118.59 C 173.33 119.14 173.26 120.13 173.82 120.78 C 174.37 121.44 175.36 121.52 176.01 120.96 L 176.76 120.32 C 177.42 119.76 177.49 118.78 176.94 118.12 C 176.38 117.47 175.39 117.39 174.74 117.95 Z M 174.02 118.56 L 173.23 119.20 C 172.56 119.75 172.46 120.73 173.00 121.40 C 173.55 122.07 174.53 122.17 175.20 121.63 L 175.99 120.98 C 176.66 120.44 176.76 119.45 176.21 118.78 C 175.67 118.12 174.68 118.02 174.02 118.56 Z M 173.29 119.15 L 172.48 119.74 C 171.78 120.25 171.63 121.23 172.13 121.93 C 172.64 122.63 173.62 122.78 174.32 122.27 L 175.13 121.68 C 175.83 121.17 175.99 120.19 175.48 119.49 C 174.97 118.79 173.99 118.64 173.29 119.15 Z M 172.56 119.68 L 171.69 120.24 C 170.96 120.70 170.74 121.67 171.20 122.40 C 171.67 123.13 172.63 123.34 173.36 122.88 L 174.24 122.33 C 174.97 121.87 175.18 120.90 174.72 120.17 C 174.26 119.44 173.29 119.22 172.56 119.68 Z M 171.80 120.17 L 170.87 120.65 C 170.11 121.05 169.81 122.00 170.21 122.77 C 170.61 123.54 171.56 123.83 172.33 123.43 L 173.25 122.95 C 174.02 122.55 174.32 121.60 173.92 120.83 C 173.51 120.06 172.57 119.77 171.80 120.17 Z M 170.99 120.60 L 170.12 120.96 C 169.33 121.30 168.95 122.22 169.29 123.02 C 169.63 123.82 170.55 124.19 171.35 123.85 L 172.21 123.49 C 173.01 123.15 173.39 122.23 173.05 121.43 C 172.71 120.63 171.79 120.26 170.99 120.60 Z M 170.27 120.91 L 169.35 121.19 C 168.53 121.45 168.06 122.33 168.32 123.16 C 168.58 123.99 169.46 124.45 170.29 124.19 L 171.20 123.91 C 172.03 123.65 172.49 122.77 172.24 121.94 C 171.98 121.11 171.10 120.65 170.27 120.91 Z M 169.51 121.15 L 168.52 121.36 C 167.67 121.53 167.12 122.36 167.29 123.21 C 167.47 124.06 168.30 124.61 169.15 124.44 L 170.14 124.23 C 170.99 124.06 171.54 123.23 171.36 122.38 C 171.19 121.53 170.36 120.98 169.51 121.15 Z M 168.59 121.34 L 167.66 121.49 C 166.80 121.62 166.21 122.42 166.34 123.28 C 166.48 124.14 167.28 124.73 168.14 124.59 L 169.07 124.45 C 169.93 124.32 170.52 123.51 170.39 122.66 C 170.25 121.80 169.45 121.21 168.59 121.34 Z M 167.70 121.48 L 166.65 121.62 C 165.79 121.73 165.18 122.51 165.29 123.38 C 165.41 124.24 166.19 124.84 167.05 124.73 L 168.10 124.60 C 168.96 124.49 169.57 123.70 169.46 122.84 C 169.35 121.98 168.56 121.37 167.70 121.48 Z M 166.69 121.61 L 165.62 121.73 C 164.76 121.82 164.13 122.59 164.22 123.46 C 164.32 124.32 165.09 124.94 165.95 124.85 L 167.02 124.74 C 167.88 124.65 168.51 123.87 168.42 123.01 C 168.32 122.14 167.55 121.52 166.69 121.61 Z M 165.65 121.72 L 164.62 121.82 C 163.76 121.89 163.12 122.66 163.19 123.52 C 163.27 124.38 164.03 125.02 164.90 124.95 L 165.93 124.85 C 166.79 124.78 167.43 124.01 167.35 123.15 C 167.28 122.29 166.51 121.65 165.65 121.72 Z M 164.64 121.81 L 163.71 121.88 C 162.85 121.95 162.20 122.70 162.26 123.56 C 162.32 124.43 163.08 125.08 163.94 125.02 L 164.87 124.95 C 165.74 124.88 166.39 124.13 166.33 123.27 C 166.26 122.40 165.51 121.75 164.64 121.81 Z M 163.74 121.88 L 162.68 121.94 C 161.82 121.99 161.15 122.73 161.20 123.60 C 161.25 124.46 161.99 125.13 162.86 125.08 L 163.92 125.02 C 164.78 124.97 165.45 124.23 165.40 123.36 C 165.35 122.49 164.61 121.83 163.74 121.88 Z M 162.70 121.94 L 161.77 121.98 C 160.90 122.02 160.23 122.75 160.27 123.62 C 160.30 124.48 161.04 125.16 161.91 125.12 L 162.84 125.08 C 163.71 125.04 164.38 124.31 164.34 123.44 C 164.30 122.57 163.57 121.90 162.70 121.94 Z M 161.77 121.98 L 160.79 122.02 C 159.92 122.05 159.25 122.79 159.28 123.65 C 159.32 124.52 160.05 125.19 160.92 125.16 L 161.90 125.12 C 162.77 125.08 163.44 124.35 163.41 123.48 C 163.37 122.62 162.64 121.94 161.77 121.98 Z M 160.81 122.02 L 159.80 122.05 C 158.93 122.07 158.25 122.79 158.27 123.66 C 158.30 124.53 159.02 125.21 159.89 125.19 L 160.90 125.16 C 161.77 125.14 162.45 124.41 162.43 123.54 C 162.40 122.68 161.68 121.99 160.81 122.02 Z M 159.83 122.05 L 158.84 122.06 C 157.97 122.07 157.28 122.78 157.29 123.65 C 157.30 124.52 158.01 125.21 158.88 125.20 L 159.86 125.19 C 160.73 125.18 161.43 124.47 161.42 123.60 C 161.41 122.73 160.69 122.04 159.83 122.05 Z M 158.84 122.06 L 157.82 122.07 C 156.95 122.09 156.26 122.80 156.28 123.67 C 156.29 124.54 157.00 125.23 157.87 125.22 L 158.88 125.20 C 159.75 125.19 160.45 124.47 160.43 123.61 C 160.42 122.74 159.70 122.04 158.84 122.06 Z M 157.80 122.07 L 156.83 122.10 C 155.96 122.13 155.28 122.85 155.30 123.72 C 155.33 124.59 156.05 125.27 156.92 125.24 L 157.89 125.22 C 158.76 125.19 159.44 124.47 159.42 123.60 C 159.39 122.73 158.67 122.05 157.80 122.07 Z M 156.82 122.10 L 155.79 122.14 C 154.92 122.16 154.24 122.89 154.27 123.76 C 154.30 124.63 155.03 125.31 155.89 125.28 L 156.92 125.24 C 157.79 125.22 158.47 124.49 158.44 123.62 C 158.41 122.76 157.69 122.07 156.82 122.10 Z M 155.80 122.14 L 154.80 122.17 C 153.94 122.19 153.25 122.91 153.28 123.78 C 153.30 124.65 154.03 125.33 154.90 125.31 L 155.89 125.28 C 156.76 125.25 157.44 124.53 157.41 123.66 C 157.39 122.79 156.66 122.11 155.80 122.14 Z M 154.81 122.17 L 153.80 122.19 C 152.93 122.22 152.25 122.94 152.27 123.81 C 152.29 124.68 153.02 125.36 153.88 125.33 L 154.89 125.31 C 155.76 125.28 156.44 124.56 156.42 123.69 C 156.40 122.82 155.67 122.14 154.81 122.17 Z M 153.79 122.19 L 152.79 122.22 C 151.92 122.25 151.24 122.97 151.26 123.84 C 151.29 124.71 152.01 125.39 152.88 125.37 L 153.89 125.33 C 154.76 125.31 155.44 124.58 155.41 123.72 C 155.39 122.85 154.66 122.17 153.79 122.19 Z M 152.78 122.22 L 151.78 122.26 C 150.92 122.29 150.24 123.01 150.27 123.88 C 150.30 124.75 151.02 125.43 151.89 125.40 L 152.89 125.36 C 153.75 125.34 154.43 124.61 154.40 123.74 C 154.38 122.87 153.65 122.20 152.78 122.22 Z M 151.78 122.26 L 150.79 122.29 C 149.92 122.32 149.24 123.05 149.27 123.92 C 149.30 124.78 150.03 125.46 150.90 125.43 L 151.89 125.40 C 152.76 125.37 153.44 124.64 153.41 123.77 C 153.38 122.91 152.65 122.23 151.78 122.26 Z M 150.79 122.29 L 149.80 122.33 C 148.93 122.36 148.25 123.09 148.29 123.95 C 148.32 124.82 149.04 125.50 149.91 125.47 L 150.90 125.43 C 151.76 125.40 152.44 124.67 152.41 123.81 C 152.38 122.94 151.65 122.26 150.79 122.29 Z M 149.79 122.33 L 148.79 122.37 C 147.92 122.40 147.25 123.13 147.28 124.00 C 147.31 124.87 148.05 125.54 148.91 125.51 L 149.92 125.47 C 150.78 125.43 151.46 124.70 151.43 123.84 C 151.39 122.97 150.66 122.29 149.79 122.33 Z M 148.78 122.37 L 147.78 122.41 C 146.91 122.45 146.24 123.19 146.28 124.06 C 146.32 124.92 147.06 125.59 147.93 125.55 L 148.92 125.51 C 149.79 125.47 150.46 124.73 150.42 123.86 C 150.38 123.00 149.64 122.33 148.78 122.37 Z M 147.77 122.41 L 146.77 122.47 C 145.90 122.52 145.24 123.26 145.29 124.13 C 145.34 124.99 146.08 125.65 146.94 125.61 L 147.94 125.55 C 148.81 125.50 149.47 124.76 149.42 123.90 C 149.37 123.03 148.63 122.37 147.77 122.41 Z M 146.75 122.47 L 145.74 122.54 C 144.88 122.59 144.22 123.34 144.28 124.21 C 144.34 125.07 145.08 125.73 145.95 125.67 L 146.96 125.61 C 147.83 125.55 148.48 124.80 148.43 123.94 C 148.37 123.07 147.62 122.41 146.75 122.47 Z M 145.73 122.54 L 144.74 122.61 C 143.88 122.68 143.23 123.43 143.30 124.30 C 143.36 125.16 144.12 125.81 144.98 125.75 L 145.97 125.67 C 146.83 125.61 147.48 124.85 147.41 123.99 C 147.35 123.12 146.59 122.47 145.73 122.54 Z M 144.73 122.61 L 143.74 122.70 C 142.87 122.77 142.23 123.53 142.30 124.39 C 142.37 125.26 143.13 125.90 143.99 125.83 L 144.99 125.75 C 145.86 125.67 146.50 124.92 146.43 124.05 C 146.36 123.19 145.60 122.54 144.73 122.61 Z M 143.73 122.70 L 142.73 122.78 C 141.87 122.85 141.23 123.61 141.30 124.48 C 141.37 125.34 142.13 125.98 143.00 125.91 L 144.00 125.83 C 144.86 125.75 145.50 124.99 145.43 124.13 C 145.36 123.27 144.60 122.62 143.73 122.70 Z M 142.74 122.78 L 141.77 122.86 C 140.90 122.93 140.26 123.69 140.33 124.56 C 140.40 125.42 141.16 126.06 142.03 125.99 L 143.00 125.91 C 143.86 125.84 144.50 125.08 144.43 124.22 C 144.36 123.35 143.60 122.71 142.74 122.78 Z M 141.77 122.86 L 140.77 122.94 C 139.90 123.01 139.26 123.77 139.33 124.63 C 139.40 125.50 140.15 126.14 141.02 126.07 L 142.02 125.99 C 142.89 125.92 143.53 125.17 143.46 124.30 C 143.39 123.44 142.64 122.79 141.77 122.86 Z M 140.77 122.94 L 139.75 123.02 C 138.88 123.08 138.24 123.84 138.30 124.70 C 138.37 125.57 139.12 126.22 139.99 126.15 L 141.01 126.07 C 141.88 126.01 142.53 125.25 142.46 124.39 C 142.39 123.52 141.64 122.87 140.77 122.94 Z M 139.75 123.02 L 138.75 123.09 C 137.88 123.16 137.23 123.91 137.30 124.77 C 137.36 125.64 138.11 126.29 138.98 126.23 L 139.98 126.15 C 140.85 126.09 141.50 125.34 141.44 124.47 C 141.37 123.60 140.62 122.95 139.75 123.02 Z M 138.75 123.09 L 137.74 123.17 C 136.88 123.23 136.23 123.98 136.29 124.85 C 136.35 125.71 137.10 126.36 137.97 126.30 L 138.98 126.23 C 139.84 126.16 140.49 125.41 140.43 124.55 C 140.37 123.68 139.61 123.03 138.75 123.09 Z M 137.74 123.17 L 136.75 123.24 C 135.88 123.30 135.23 124.05 135.29 124.92 C 135.36 125.79 136.11 126.44 136.98 126.37 L 137.97 126.30 C 138.84 126.24 139.49 125.48 139.42 124.62 C 139.36 123.75 138.61 123.10 137.74 123.17 Z M 136.74 123.24 L 135.71 123.32 C 134.85 123.38 134.20 124.14 134.27 125.00 C 134.33 125.87 135.09 126.52 135.95 126.45 L 136.98 126.37 C 137.84 126.31 138.49 125.55 138.43 124.69 C 138.36 123.82 137.61 123.17 136.74 123.24 Z M 135.71 123.32 L 134.73 123.40 C 133.87 123.46 133.22 124.22 133.29 125.09 C 133.36 125.95 134.11 126.60 134.98 126.53 L 135.96 126.45 C 136.82 126.38 137.47 125.62 137.40 124.76 C 137.33 123.89 136.57 123.25 135.71 123.32 Z M 134.72 123.40 L 133.75 123.48 C 132.88 123.55 132.24 124.31 132.31 125.17 C 132.38 126.04 133.14 126.68 134.01 126.61 L 134.99 126.53 C 135.85 126.45 136.49 125.70 136.42 124.83 C 136.35 123.97 135.59 123.32 134.72 123.40 Z M 133.74 123.48 L 132.74 123.56 C 131.88 123.64 131.24 124.40 131.31 125.27 C 131.39 126.13 132.15 126.77 133.01 126.69 L 134.01 126.61 C 134.88 126.53 135.52 125.77 135.44 124.91 C 135.37 124.04 134.61 123.40 133.74 123.48 Z M 132.74 123.56 L 131.75 123.65 C 130.88 123.73 130.25 124.49 130.32 125.36 C 130.40 126.22 131.16 126.86 132.03 126.78 L 133.02 126.69 C 133.88 126.62 134.52 125.85 134.44 124.99 C 134.36 124.13 133.60 123.49 132.74 123.56 Z M 131.75 123.65 L 130.74 123.75 C 129.87 123.82 129.24 124.59 129.32 125.45 C 129.39 126.32 130.16 126.95 131.02 126.87 L 132.03 126.78 C 132.89 126.70 133.53 125.94 133.45 125.08 C 133.37 124.21 132.61 123.58 131.75 123.65 Z M 130.73 123.75 L 129.74 123.84 C 128.87 123.92 128.24 124.68 128.32 125.55 C 128.40 126.41 129.16 127.05 130.03 126.97 L 131.02 126.87 C 131.89 126.79 132.52 126.03 132.44 125.16 C 132.36 124.30 131.60 123.67 130.73 123.75 Z M 129.73 123.84 L 128.75 123.93 C 127.88 124.02 127.25 124.78 127.33 125.65 C 127.41 126.51 128.18 127.14 129.05 127.06 L 130.03 126.97 C 130.90 126.88 131.53 126.12 131.45 125.25 C 131.36 124.39 130.60 123.76 129.73 123.84 Z M 128.75 123.93 L 127.74 124.03 C 126.88 124.11 126.24 124.88 126.33 125.74 C 126.41 126.60 127.17 127.24 128.04 127.16 L 129.04 127.06 C 129.91 126.98 130.54 126.21 130.46 125.35 C 130.38 124.48 129.61 123.85 128.75 123.93 Z M 127.76 124.03 L 126.78 124.11 C 125.92 124.18 125.27 124.94 125.34 125.80 C 125.42 126.67 126.17 127.31 127.04 127.24 L 128.02 127.16 C 128.88 127.09 129.53 126.33 129.45 125.46 C 129.38 124.60 128.62 123.96 127.76 124.03 Z M 126.82 124.11 L 125.82 124.17 C 124.96 124.22 124.30 124.96 124.35 125.83 C 124.40 126.69 125.14 127.35 126.01 127.30 L 127.00 127.24 C 127.87 127.19 128.53 126.45 128.48 125.58 C 128.43 124.71 127.68 124.05 126.82 124.11 Z M 125.85 124.16 L 124.85 124.21 C 123.99 124.24 123.31 124.97 123.35 125.84 C 123.39 126.70 124.12 127.38 124.98 127.34 L 125.98 127.30 C 126.85 127.27 127.52 126.54 127.49 125.67 C 127.45 124.80 126.72 124.13 125.85 124.16 Z M 124.87 124.20 L 123.85 124.24 C 122.98 124.26 122.30 124.99 122.33 125.86 C 122.36 126.72 123.08 127.40 123.95 127.37 L 124.97 127.34 C 125.83 127.31 126.51 126.59 126.49 125.72 C 126.46 124.86 125.74 124.18 124.87 124.20 Z M 123.85 124.24 L 122.84 124.27 C 121.97 124.29 121.29 125.02 121.32 125.88 C 121.34 126.75 122.07 127.43 122.93 127.41 L 123.95 127.37 C 124.81 127.35 125.49 126.62 125.47 125.76 C 125.44 124.89 124.72 124.21 123.85 124.24 Z M 122.83 124.27 L 121.83 124.30 C 120.96 124.33 120.28 125.06 120.31 125.93 C 120.34 126.79 121.07 127.47 121.94 127.44 L 122.94 127.40 C 123.81 127.37 124.49 126.65 124.45 125.78 C 124.42 124.92 123.70 124.24 122.83 124.27 Z M 121.82 124.30 L 120.82 124.34 C 119.96 124.38 119.28 125.11 119.32 125.97 C 119.35 126.84 120.08 127.51 120.94 127.48 L 121.94 127.44 C 122.81 127.41 123.48 126.68 123.45 125.81 C 123.42 124.95 122.69 124.27 121.82 124.30 Z M 120.85 124.34 L 119.87 124.37 C 119.00 124.39 118.32 125.10 118.34 125.97 C 118.36 126.84 119.08 127.52 119.94 127.50 L 120.92 127.48 C 121.79 127.46 122.47 126.74 122.45 125.87 C 122.43 125.01 121.71 124.32 120.85 124.34 Z M 119.90 124.37 L 118.91 124.37 C 118.04 124.37 117.34 125.08 117.35 125.94 C 117.35 126.81 118.06 127.51 118.92 127.51 L 119.91 127.50 C 120.78 127.50 121.47 126.79 121.47 125.93 C 121.47 125.06 120.76 124.36 119.90 124.37 Z M 118.92 124.37 L 118.00 124.37 C 117.13 124.37 116.43 125.06 116.42 125.93 C 116.42 126.79 117.12 127.50 117.99 127.50 L 118.91 127.50 C 119.77 127.51 120.48 126.81 120.48 125.94 C 120.48 125.08 119.78 124.37 118.92 124.37 Z M 118.03 124.37 L 116.97 124.34 C 116.10 124.32 115.38 125.01 115.36 125.87 C 115.34 126.73 116.03 127.45 116.89 127.47 L 117.95 127.50 C 118.82 127.52 119.53 126.84 119.56 125.97 C 119.58 125.11 118.89 124.39 118.03 124.37 Z M 117.00 124.35 L 116.00 124.30 C 115.14 124.25 114.40 124.92 114.36 125.78 C 114.32 126.65 114.98 127.38 115.85 127.42 L 116.85 127.47 C 117.71 127.51 118.45 126.85 118.49 125.99 C 118.53 125.12 117.87 124.39 117.00 124.35 Z M 116.05 124.30 L 115.04 124.22 C 114.17 124.15 113.42 124.79 113.35 125.65 C 113.28 126.51 113.92 127.26 114.78 127.34 L 115.80 127.42 C 116.66 127.49 117.41 126.85 117.48 125.99 C 117.55 125.13 116.91 124.37 116.05 124.30 Z M 115.14 124.23 L 114.13 124.08 C 113.28 123.95 112.48 124.54 112.35 125.40 C 112.23 126.25 112.82 127.04 113.67 127.17 L 114.68 127.32 C 115.53 127.45 116.33 126.86 116.45 126.01 C 116.58 125.15 115.99 124.36 115.14 124.23 Z M 114.26 124.11 L 113.32 123.89 C 112.48 123.69 111.64 124.21 111.44 125.05 C 111.24 125.89 111.77 126.73 112.60 126.93 L 113.54 127.15 C 114.38 127.34 115.22 126.82 115.42 125.98 C 115.62 125.14 115.10 124.30 114.26 124.11 Z M 113.37 123.90 L 112.42 123.65 C 111.59 123.42 110.74 123.92 110.51 124.75 C 110.29 125.58 110.78 126.43 111.61 126.66 L 112.56 126.91 C 113.39 127.14 114.24 126.64 114.47 125.81 C 114.69 124.98 114.20 124.12 113.37 123.90 Z M 112.45 123.65 L 111.46 123.37 C 110.64 123.13 109.77 123.61 109.54 124.44 C 109.30 125.27 109.78 126.13 110.61 126.37 L 111.59 126.65 C 112.42 126.89 113.28 126.41 113.52 125.58 C 113.75 124.75 113.28 123.89 112.45 123.65 Z M 111.50 123.38 L 110.54 123.08 C 109.72 122.83 108.85 123.28 108.59 124.11 C 108.34 124.93 108.79 125.80 109.61 126.06 L 110.57 126.36 C 111.39 126.61 112.26 126.16 112.52 125.34 C 112.78 124.51 112.32 123.64 111.50 123.38 Z M 110.55 123.09 L 109.61 122.79 C 108.79 122.52 107.92 122.97 107.65 123.79 C 107.39 124.61 107.84 125.49 108.66 125.75 L 109.60 126.05 C 110.42 126.31 111.30 125.86 111.56 125.05 C 111.82 124.23 111.37 123.35 110.55 123.09 Z M 109.58 122.78 L 108.60 122.49 C 107.78 122.25 106.91 122.72 106.67 123.54 C 106.43 124.36 106.90 125.23 107.72 125.47 L 108.70 125.76 C 109.52 126.00 110.38 125.53 110.62 124.71 C 110.87 123.89 110.40 123.02 109.58 122.78 Z M 108.53 122.47 L 107.54 122.23 C 106.71 122.03 105.87 122.54 105.67 123.37 C 105.46 124.20 105.97 125.04 106.80 125.24 L 107.79 125.49 C 108.62 125.69 109.46 125.18 109.66 124.35 C 109.87 123.52 109.36 122.68 108.53 122.47 Z M 107.40 122.21 L 106.41 122.06 C 105.56 121.93 104.77 122.51 104.64 123.36 C 104.52 124.20 105.10 124.99 105.94 125.12 L 106.94 125.27 C 107.79 125.40 108.57 124.81 108.70 123.97 C 108.83 123.12 108.25 122.34 107.40 122.21 Z M 106.10 122.05 L 105.13 122.09 C 104.28 122.13 103.62 122.85 103.66 123.70 C 103.70 124.55 104.42 125.21 105.27 125.17 L 106.25 125.13 C 107.10 125.09 107.75 124.36 107.71 123.51 C 107.67 122.66 106.95 122.01 106.10 122.05 Z M 104.70 122.19 L 103.77 122.51 C 102.97 122.79 102.55 123.66 102.82 124.46 C 103.10 125.26 103.97 125.68 104.77 125.40 L 105.70 125.08 C 106.50 124.80 106.93 123.93 106.65 123.13 C 106.37 122.33 105.50 121.91 104.70 122.19 Z M 103.34 122.76 L 102.56 123.36 C 101.90 123.87 101.77 124.82 102.28 125.49 C 102.79 126.15 103.74 126.27 104.41 125.76 L 105.19 125.16 C 105.86 124.65 105.98 123.70 105.47 123.03 C 104.96 122.37 104.01 122.25 103.34 122.76 Z M 102.18 123.84 L 101.70 124.70 C 101.31 125.42 101.57 126.33 102.29 126.72 C 103.01 127.12 103.92 126.86 104.32 126.14 L 104.79 125.28 C 105.19 124.56 104.92 123.65 104.20 123.26 C 103.48 122.86 102.57 123.12 102.18 123.84 Z M 101.61 125.00 L 101.38 125.75 C 101.15 126.52 101.59 127.34 102.36 127.57 C 103.14 127.80 103.95 127.36 104.19 126.59 L 104.41 125.84 C 104.64 125.06 104.20 124.25 103.43 124.02 C 102.66 123.79 101.84 124.23 101.61 125.00 Z"
      fill="black"
      fill-rule="nonzero" /></svg>