<svg xmlns="http://www.w3.org/2000/svg" width="300" height="300" viewBox="0 0 300 300">
<path d="M 118.29 196.79 L 117.94 195.55 C 117.71 194.77 116.90 194.32 116.11 194.54 C 115.33 194.77 114.88 195.59 115.10 196.37 L 115.46 197.60 C 115.68 198.38 116.50 198.84 117.28 198.61 C 118.07 198.39 118.52 197.57 118.29 196.79 Z M 117.93 195.44 L 117.73 194.92 C 117.44 194.15 116.58 193.76 115.80 194.05 C 115.03 194.34 114.63 195.20 114.93 195.98 L 115.12 196.49 C 115.41 197.26 116.27 197.66 117.05 197.37 C 117.82 197.08 118.22 196.21 117.93 195.44 Z M 114.84 195.73 L 115.03 196.77 C 115.18 197.59 115.97 198.14 116.80 197.99 C 117.62 197.83 118.17 197.04 118.02 196.22 L 117.82 195.18 C 117.67 194.35 116.88 193.81 116.05 193.96 C 115.23 194.11 114.68 194.90 114.84 195.73 Z M 115.06 196.94 L 115.35 197.89 C 115.59 198.70 116.45 199.15 117.26 198.91 C 118.06 198.66 118.52 197.81 118.27 197.00 L 117.98 196.05 C 117.74 195.24 116.88 194.78 116.08 195.03 C 115.27 195.27 114.81 196.13 115.06 196.94 Z M 115.37 197.97 L 115.71 198.89 C 116.00 199.69 116.88 200.10 117.67 199.81 C 118.47 199.52 118.88 198.64 118.59 197.84 L 118.25 196.92 C 117.96 196.13 117.08 195.72 116.29 196.01 C 115.49 196.30 115.08 197.18 115.37 197.97 Z M 115.72 198.91 L 116.06 199.83 C 116.36 200.62 117.24 201.02 118.04 200.72 C 118.83 200.42 119.23 199.54 118.93 198.75 L 118.58 197.83 C 118.28 197.04 117.40 196.64 116.61 196.94 C 115.82 197.24 115.42 198.12 115.72 198.91 Z M 116.07 199.84 L 116.43 200.79 C 116.73 201.58 117.62 201.98 118.41 201.67 C 119.20 201.37 119.59 200.49 119.29 199.70 L 118.93 198.74 C 118.62 197.95 117.74 197.56 116.95 197.86 C 116.16 198.16 115.76 199.05 116.07 199.84 Z M 116.43 200.80 L 116.79 201.72 C 117.10 202.50 117.99 202.89 118.78 202.59 C 119.56 202.28 119.95 201.39 119.65 200.60 L 119.29 199.69 C 118.98 198.90 118.09 198.51 117.30 198.82 C 116.52 199.12 116.13 200.01 116.43 200.80 Z M 116.80 201.73 L 117.18 202.69 C 117.50 203.48 118.39 203.86 119.17 203.54 C 119.96 203.23 120.34 202.34 120.03 201.55 L 119.64 200.59 C 119.33 199.80 118.43 199.42 117.65 199.74 C 116.86 200.05 116.48 200.94 116.80 201.73 Z M 117.19 202.71 L 117.56 203.61 C 117.89 204.40 118.78 204.77 119.56 204.45 C 120.34 204.12 120.72 203.23 120.39 202.45 L 120.02 201.54 C 119.70 200.76 118.80 200.38 118.02 200.71 C 117.24 201.03 116.87 201.92 117.19 202.71 Z M 117.57 203.63 L 117.96 204.56 C 118.29 205.34 119.19 205.70 119.97 205.37 C 120.75 205.04 121.11 204.14 120.78 203.36 L 120.39 202.43 C 120.06 201.65 119.16 201.29 118.38 201.62 C 117.60 201.95 117.24 202.85 117.57 203.63 Z M 117.97 204.57 L 118.37 205.49 C 118.71 206.27 119.61 206.63 120.38 206.29 C 121.16 205.95 121.52 205.05 121.18 204.27 L 120.78 203.35 C 120.44 202.57 119.54 202.22 118.76 202.55 C 117.99 202.89 117.63 203.79 117.97 204.57 Z M 118.38 205.51 L 118.79 206.42 C 119.14 207.20 120.05 207.54 120.82 207.19 C 121.59 206.84 121.93 205.93 121.58 205.16 L 121.17 204.25 C 120.82 203.48 119.91 203.14 119.14 203.49 C 118.37 203.84 118.03 204.74 118.38 205.51 Z M 118.81 206.46 L 119.24 207.36 C 119.61 208.12 120.53 208.44 121.29 208.08 C 122.05 207.71 122.37 206.79 122.00 206.03 L 121.56 205.13 C 121.20 204.36 120.28 204.05 119.52 204.41 C 118.76 204.78 118.44 205.70 118.81 206.46 Z M 119.26 207.41 L 119.72 208.27 C 120.11 209.02 121.03 209.31 121.78 208.92 C 122.53 208.52 122.82 207.60 122.43 206.85 L 121.98 205.99 C 121.59 205.24 120.66 204.95 119.91 205.34 C 119.16 205.73 118.87 206.66 119.26 207.41 Z M 119.73 208.30 L 120.22 209.17 C 120.63 209.91 121.56 210.18 122.30 209.77 C 123.04 209.36 123.31 208.43 122.90 207.69 L 122.41 206.82 C 122.00 206.08 121.07 205.81 120.33 206.22 C 119.59 206.63 119.32 207.56 119.73 208.30 Z M 120.22 209.19 L 120.73 210.08 C 121.15 210.81 122.08 211.07 122.82 210.65 C 123.55 210.24 123.81 209.30 123.39 208.57 L 122.89 207.67 C 122.47 206.94 121.54 206.68 120.80 207.10 C 120.06 207.52 119.81 208.45 120.22 209.19 Z M 120.73 210.08 L 121.23 210.95 C 121.65 211.68 122.58 211.93 123.32 211.51 C 124.05 211.09 124.31 210.16 123.89 209.42 L 123.39 208.56 C 122.97 207.83 122.04 207.57 121.30 207.99 C 120.57 208.41 120.31 209.35 120.73 210.08 Z M 121.24 210.97 L 121.76 211.84 C 122.19 212.56 123.13 212.80 123.85 212.37 C 124.58 211.94 124.82 211.00 124.39 210.27 L 123.87 209.40 C 123.44 208.68 122.50 208.44 121.77 208.87 C 121.05 209.30 120.81 210.24 121.24 210.97 Z M 121.78 211.87 L 122.32 212.72 C 122.77 213.44 123.72 213.65 124.43 213.20 C 125.15 212.74 125.36 211.80 124.90 211.08 L 124.36 210.23 C 123.91 209.52 122.97 209.31 122.25 209.76 C 121.54 210.21 121.33 211.16 121.78 211.87 Z M 122.36 212.78 L 122.94 213.61 C 123.42 214.30 124.37 214.47 125.07 213.99 C 125.76 213.51 125.93 212.55 125.45 211.86 L 124.87 211.03 C 124.38 210.33 123.43 210.16 122.74 210.65 C 122.04 211.13 121.87 212.08 122.36 212.78 Z M 122.97 213.66 L 123.57 214.45 C 124.08 215.12 125.04 215.26 125.72 214.74 C 126.39 214.23 126.52 213.27 126.01 212.60 L 125.41 211.81 C 124.90 211.14 123.94 211.01 123.27 211.52 C 122.59 212.03 122.46 212.99 122.97 213.66 Z M 123.60 214.49 L 124.23 215.25 C 124.76 215.91 125.72 216.01 126.38 215.48 C 127.03 214.94 127.13 213.98 126.60 213.32 L 125.98 212.56 C 125.44 211.90 124.48 211.80 123.83 212.34 C 123.17 212.87 123.07 213.84 123.60 214.49 Z M 124.26 215.29 L 124.90 216.04 C 125.46 216.68 126.42 216.75 127.06 216.20 C 127.70 215.65 127.77 214.68 127.22 214.04 L 126.57 213.29 C 126.02 212.65 125.05 212.58 124.41 213.13 C 123.77 213.68 123.70 214.65 124.26 215.29 Z M 124.94 216.08 L 125.62 216.81 C 126.19 217.43 127.15 217.48 127.78 216.90 C 128.40 216.33 128.44 215.37 127.87 214.74 L 127.19 214.01 C 126.62 213.38 125.65 213.34 125.03 213.92 C 124.41 214.49 124.37 215.45 124.94 216.08 Z M 125.65 216.85 L 126.35 217.56 C 126.94 218.17 127.91 218.17 128.51 217.58 C 129.11 216.99 129.12 216.03 128.53 215.42 L 127.83 214.71 C 127.24 214.11 126.27 214.10 125.67 214.69 C 125.07 215.28 125.06 216.25 125.65 216.85 Z M 126.38 217.59 L 127.10 218.29 C 127.71 218.87 128.68 218.85 129.26 218.24 C 129.85 217.63 129.83 216.67 129.22 216.08 L 128.50 215.39 C 127.89 214.81 126.92 214.83 126.34 215.44 C 125.76 216.04 125.78 217.01 126.38 217.59 Z M 127.13 218.31 L 127.87 218.99 C 128.50 219.56 129.46 219.51 130.03 218.89 C 130.60 218.27 130.56 217.30 129.93 216.74 L 129.19 216.06 C 128.57 215.49 127.60 215.53 127.03 216.16 C 126.47 216.78 126.51 217.74 127.13 218.31 Z M 127.90 219.01 L 128.65 219.67 C 129.29 220.22 130.25 220.16 130.80 219.52 C 131.36 218.89 131.29 217.92 130.66 217.37 L 129.91 216.71 C 129.27 216.16 128.31 216.23 127.76 216.86 C 127.20 217.49 127.27 218.46 127.90 219.01 Z M 128.68 219.69 L 129.44 220.33 C 130.08 220.87 131.04 220.78 131.58 220.14 C 132.13 219.49 132.04 218.53 131.39 217.99 L 130.63 217.35 C 129.99 216.81 129.03 216.90 128.49 217.54 C 127.95 218.19 128.03 219.15 128.68 219.69 Z M 129.46 220.34 L 130.25 220.97 C 130.90 221.50 131.86 221.39 132.39 220.74 C 132.91 220.08 132.81 219.12 132.15 218.60 L 131.37 217.97 C 130.71 217.44 129.75 217.55 129.23 218.20 C 128.70 218.86 128.81 219.82 129.46 220.34 Z M 130.27 220.99 L 131.05 221.59 C 131.72 222.10 132.67 221.98 133.19 221.31 C 133.70 220.65 133.57 219.69 132.91 219.18 L 132.13 218.58 C 131.46 218.07 130.51 218.19 129.99 218.86 C 129.48 219.52 129.61 220.48 130.27 220.99 Z M 131.07 221.61 L 131.87 222.19 C 132.54 222.69 133.49 222.55 133.99 221.88 C 134.49 221.20 134.35 220.25 133.68 219.75 L 132.88 219.16 C 132.21 218.66 131.26 218.80 130.76 219.48 C 130.26 220.15 130.40 221.11 131.07 221.61 Z M 131.89 222.21 L 132.72 222.80 C 133.40 223.29 134.35 223.13 134.84 222.45 C 135.32 221.76 135.17 220.81 134.48 220.33 L 133.65 219.73 C 132.97 219.25 132.02 219.40 131.53 220.09 C 131.05 220.77 131.20 221.72 131.89 222.21 Z M 132.74 222.81 L 133.57 223.39 C 134.26 223.87 135.21 223.70 135.69 223.01 C 136.16 222.32 135.99 221.37 135.30 220.89 L 134.46 220.31 C 133.77 219.84 132.83 220.01 132.35 220.70 C 131.87 221.39 132.05 222.33 132.74 222.81 Z M 133.59 223.40 L 134.43 223.96 C 135.12 224.43 136.07 224.25 136.53 223.55 C 137.00 222.85 136.82 221.91 136.12 221.45 L 135.28 220.88 C 134.59 220.42 133.65 220.60 133.18 221.30 C 132.71 221.99 132.90 222.93 133.59 223.40 Z M 134.45 223.97 L 135.29 224.52 C 135.99 224.98 136.93 224.79 137.38 224.09 C 137.84 223.39 137.65 222.45 136.95 221.99 L 136.11 221.44 C 135.41 220.98 134.47 221.17 134.01 221.87 C 133.55 222.57 133.75 223.51 134.45 223.97 Z M 135.30 224.53 L 136.14 225.07 C 136.84 225.52 137.78 225.31 138.23 224.61 C 138.68 223.90 138.47 222.97 137.77 222.52 L 136.93 221.98 C 136.23 221.53 135.29 221.74 134.84 222.44 C 134.39 223.14 134.60 224.08 135.30 224.53 Z M 136.16 225.07 L 137.03 225.62 C 137.74 226.06 138.67 225.84 139.11 225.13 C 139.55 224.42 139.33 223.49 138.63 223.05 L 137.75 222.51 C 137.04 222.07 136.11 222.29 135.67 222.99 C 135.23 223.70 135.45 224.63 136.16 225.07 Z M 137.06 225.63 L 137.91 226.14 C 138.62 226.57 139.55 226.33 139.97 225.62 C 140.40 224.90 140.17 223.97 139.45 223.55 L 138.60 223.04 C 137.89 222.61 136.96 222.85 136.53 223.56 C 136.11 224.28 136.34 225.20 137.06 225.63 Z M 137.94 226.16 L 138.79 226.63 C 139.51 227.04 140.43 226.79 140.84 226.06 C 141.25 225.34 140.99 224.42 140.27 224.01 L 139.42 223.53 C 138.69 223.12 137.78 223.38 137.37 224.10 C 136.96 224.83 137.21 225.75 137.94 226.16 Z M 138.82 226.65 L 139.71 227.12 C 140.44 227.51 141.35 227.23 141.74 226.50 C 142.13 225.77 141.86 224.86 141.12 224.47 L 140.23 223.99 C 139.50 223.60 138.59 223.88 138.20 224.62 C 137.81 225.35 138.09 226.26 138.82 226.65 Z M 139.73 227.13 L 140.61 227.59 C 141.35 227.97 142.26 227.68 142.64 226.94 C 143.02 226.21 142.73 225.30 141.99 224.92 L 141.11 224.46 C 140.37 224.08 139.46 224.37 139.08 225.10 C 138.70 225.84 138.99 226.75 139.73 227.13 Z M 140.61 227.58 L 141.49 228.04 C 142.22 228.43 143.13 228.14 143.51 227.41 C 143.90 226.68 143.61 225.77 142.88 225.39 L 142.00 224.93 C 141.27 224.54 140.36 224.82 139.98 225.56 C 139.59 226.29 139.87 227.20 140.61 227.58 Z M 141.47 228.03 L 142.36 228.51 C 143.08 228.91 143.99 228.64 144.39 227.92 C 144.78 227.19 144.52 226.28 143.79 225.89 L 142.90 225.40 C 142.18 225.01 141.27 225.27 140.87 226.00 C 140.48 226.72 140.74 227.63 141.47 228.03 Z M 142.34 228.50 L 143.21 228.99 C 143.93 229.39 144.84 229.14 145.24 228.42 C 145.65 227.70 145.39 226.79 144.67 226.39 L 143.81 225.90 C 143.09 225.49 142.18 225.75 141.77 226.47 C 141.37 227.19 141.62 228.10 142.34 228.50 Z M 143.21 228.98 L 144.08 229.48 C 144.79 229.88 145.70 229.63 146.11 228.92 C 146.51 228.20 146.26 227.29 145.55 226.89 L 144.68 226.39 C 143.96 225.99 143.05 226.24 142.65 226.95 C 142.24 227.67 142.49 228.58 143.21 228.98 Z M 144.08 229.47 L 144.96 229.98 C 145.67 230.38 146.58 230.13 146.98 229.42 C 147.39 228.71 147.14 227.80 146.43 227.39 L 145.55 226.89 C 144.83 226.49 143.93 226.73 143.52 227.45 C 143.11 228.16 143.36 229.07 144.08 229.47 Z M 144.95 229.97 L 145.81 230.46 C 146.52 230.87 147.42 230.62 147.83 229.91 C 148.24 229.20 147.99 228.30 147.28 227.89 L 146.43 227.40 C 145.72 226.99 144.81 227.24 144.41 227.95 C 144.00 228.66 144.25 229.56 144.95 229.97 Z M 145.81 230.45 L 146.67 230.95 C 147.37 231.36 148.28 231.12 148.69 230.42 C 149.10 229.71 148.86 228.81 148.15 228.40 L 147.29 227.90 C 146.58 227.49 145.68 227.73 145.27 228.43 C 144.86 229.14 145.10 230.04 145.81 230.45 Z M 146.67 230.95 L 147.53 231.45 C 148.23 231.86 149.14 231.62 149.54 230.92 C 149.95 230.21 149.71 229.31 149.01 228.90 L 148.15 228.40 C 147.45 227.99 146.55 228.23 146.14 228.94 C 145.73 229.64 145.97 230.54 146.67 230.95 Z M 147.54 231.45 L 148.38 231.93 C 149.08 232.33 149.98 232.09 150.38 231.39 C 150.79 230.68 150.54 229.79 149.84 229.38 L 149.00 228.90 C 148.30 228.50 147.40 228.74 147.00 229.44 C 146.59 230.15 146.84 231.05 147.54 231.45 Z M 148.39 231.93 L 149.18 232.38 C 149.88 232.78 150.78 232.53 151.17 231.82 C 151.57 231.12 151.32 230.22 150.62 229.83 L 149.83 229.38 C 149.12 228.98 148.23 229.23 147.83 229.94 C 147.43 230.64 147.68 231.54 148.39 231.93 Z M 149.18 232.38 L 150.08 232.87 C 150.78 233.27 151.67 233.02 152.06 232.31 C 152.46 231.61 152.21 230.72 151.50 230.33 L 150.61 229.83 C 149.91 229.43 149.02 229.68 148.62 230.39 C 148.23 231.09 148.48 231.98 149.18 232.38 Z M 150.08 232.87 L 151.02 233.40 C 151.72 233.79 152.61 233.54 153.00 232.84 C 153.40 232.14 153.15 231.25 152.44 230.86 L 151.50 230.33 C 150.80 229.94 149.91 230.19 149.52 230.89 C 149.12 231.59 149.37 232.48 150.08 232.87 Z M 151.01 233.39 L 151.89 233.89 C 152.59 234.29 153.48 234.04 153.87 233.34 C 154.27 232.65 154.02 231.76 153.33 231.36 L 152.45 230.87 C 151.75 230.47 150.86 230.71 150.47 231.41 C 150.07 232.11 150.32 233.00 151.01 233.39 Z M 151.88 233.88 L 152.78 234.41 C 153.47 234.81 154.36 234.57 154.76 233.88 C 155.17 233.19 154.93 232.30 154.24 231.90 L 153.34 231.37 C 152.65 230.97 151.76 231.20 151.36 231.90 C 150.95 232.59 151.19 233.48 151.88 233.88 Z M 152.76 234.39 L 153.61 234.91 C 154.30 235.33 155.19 235.11 155.60 234.43 C 156.02 233.74 155.80 232.85 155.12 232.43 L 154.26 231.91 C 153.58 231.50 152.69 231.71 152.27 232.40 C 151.86 233.08 152.07 233.97 152.76 234.39 Z M 153.57 234.88 L 154.46 235.47 C 155.13 235.91 156.02 235.73 156.46 235.06 C 156.90 234.39 156.72 233.50 156.05 233.06 L 155.16 232.47 C 154.50 232.03 153.60 232.21 153.16 232.88 C 152.72 233.54 152.90 234.44 153.57 234.88 Z M 154.40 235.42 L 155.22 236.03 C 155.86 236.50 156.76 236.37 157.23 235.73 C 157.71 235.09 157.57 234.19 156.94 233.72 L 156.12 233.11 C 155.48 232.63 154.58 232.77 154.10 233.40 C 153.63 234.04 153.76 234.94 154.40 235.42 Z M 155.17 235.98 L 155.87 236.55 C 156.48 237.05 157.39 236.96 157.89 236.35 C 158.39 235.73 158.29 234.83 157.68 234.33 L 156.98 233.76 C 156.37 233.26 155.47 233.35 154.97 233.97 C 154.47 234.58 154.56 235.48 155.17 235.98 Z M 155.86 236.54 L 156.00 236.65 C 156.60 237.16 157.50 237.08 158.01 236.47 C 158.51 235.87 158.43 234.97 157.83 234.46 L 157.69 234.35 C 157.09 233.84 156.19 233.92 155.68 234.53 C 155.17 235.13 155.26 236.03 155.86 236.54 Z"
      fill="black"
      fill-rule="nonzero" /></svg>