<svg xmlns="http://www.w3.org/2000/svg" width="300" height="300" viewBox="0 0 300 300">
<path d="M 158.51 136.79 L 158.20 135.87 C 157.95 135.11 157.12 134.70 156.36 134.96 C 155.60 135.21 155.19 136.04 155.45 136.80 L 155.76 137.72 C 156.01 138.48 156.84 138.89 157.60 138.63 C 158.36 138.38 158.77 137.55 158.51 136.79 Z M 158.12 135.64 L 157.64 134.74 C 157.26 134.03 156.37 133.76 155.65 134.14 C 154.94 134.52 154.67 135.41 155.05 136.13 L 155.53 137.03 C 155.91 137.74 156.80 138.01 157.52 137.63 C 158.23 137.25 158.50 136.36 158.12 135.64 Z M 157.49 134.47 L 156.84 133.71 C 156.31 133.08 155.37 133.00 154.74 133.53 C 154.11 134.06 154.03 135.00 154.56 135.63 L 155.20 136.40 C 155.73 137.03 156.68 137.11 157.31 136.58 C 157.94 136.05 158.02 135.10 157.49 134.47 Z M 156.74 133.56 L 156.01 132.87 C 155.39 132.29 154.43 132.33 153.85 132.94 C 153.28 133.56 153.31 134.52 153.92 135.10 L 154.66 135.78 C 155.27 136.36 156.24 136.33 156.81 135.71 C 157.39 135.10 157.36 134.13 156.74 133.56 Z M 155.93 132.78 L 155.14 132.14 C 154.48 131.60 153.50 131.71 152.96 132.38 C 152.43 133.04 152.54 134.02 153.20 134.55 L 154.00 135.19 C 154.66 135.73 155.64 135.62 156.17 134.95 C 156.71 134.29 156.60 133.31 155.93 132.78 Z M 155.08 132.07 L 154.28 131.50 C 153.58 131.00 152.60 131.17 152.10 131.87 C 151.60 132.58 151.76 133.55 152.47 134.05 L 153.27 134.62 C 153.97 135.12 154.95 134.96 155.45 134.25 C 155.95 133.55 155.78 132.57 155.08 132.07 Z M 154.25 131.46 L 153.45 130.94 C 152.73 130.45 151.75 130.65 151.27 131.38 C 150.78 132.10 150.98 133.08 151.71 133.56 L 152.50 134.09 C 153.23 134.58 154.21 134.38 154.69 133.65 C 155.17 132.93 154.97 131.95 154.25 131.46 Z M 153.39 130.88 L 152.50 130.35 C 151.75 129.90 150.77 130.15 150.32 130.91 C 149.87 131.66 150.12 132.64 150.87 133.09 L 151.77 133.62 C 152.52 134.07 153.50 133.82 153.95 133.06 C 154.40 132.31 154.15 131.33 153.39 130.88 Z M 152.41 130.29 L 151.53 129.84 C 150.74 129.45 149.78 129.76 149.38 130.55 C 148.98 131.34 149.30 132.31 150.09 132.71 L 150.97 133.15 C 151.76 133.55 152.72 133.23 153.12 132.44 C 153.52 131.65 153.20 130.69 152.41 130.29 Z M 151.42 129.78 L 150.49 129.40 C 149.67 129.06 148.72 129.45 148.38 130.28 C 148.05 131.10 148.44 132.04 149.26 132.38 L 150.20 132.77 C 151.02 133.11 151.96 132.71 152.30 131.89 C 152.64 131.07 152.25 130.12 151.42 129.78 Z M 150.36 129.34 L 149.40 129.05 C 148.55 128.78 147.64 129.26 147.37 130.11 C 147.11 130.97 147.58 131.87 148.44 132.14 L 149.39 132.44 C 150.25 132.71 151.16 132.23 151.42 131.37 C 151.69 130.52 151.21 129.61 150.36 129.34 Z M 149.26 129.00 L 148.29 128.79 C 147.41 128.60 146.55 129.16 146.36 130.04 C 146.17 130.92 146.73 131.79 147.61 131.98 L 148.58 132.19 C 149.46 132.37 150.32 131.81 150.51 130.94 C 150.70 130.06 150.14 129.19 149.26 129.00 Z M 148.16 128.76 L 147.15 128.63 C 146.26 128.52 145.44 129.15 145.32 130.04 C 145.20 130.94 145.84 131.76 146.73 131.88 L 147.74 132.01 C 148.63 132.12 149.45 131.49 149.57 130.60 C 149.69 129.70 149.05 128.88 148.16 128.76 Z M 147.03 128.62 L 145.99 128.56 C 145.08 128.51 144.31 129.20 144.26 130.11 C 144.21 131.01 144.90 131.79 145.81 131.84 L 146.85 131.89 C 147.76 131.94 148.53 131.25 148.58 130.34 C 148.63 129.44 147.93 128.67 147.03 128.62 Z M 145.88 128.55 L 144.88 128.57 C 143.97 128.58 143.24 129.32 143.25 130.23 C 143.27 131.14 144.01 131.87 144.92 131.86 L 145.92 131.84 C 146.83 131.83 147.55 131.08 147.54 130.18 C 147.53 129.27 146.78 128.54 145.88 128.55 Z M 144.74 128.57 L 143.73 128.67 C 142.82 128.76 142.16 129.56 142.25 130.47 C 142.34 131.38 143.15 132.04 144.05 131.95 L 145.06 131.85 C 145.97 131.76 146.63 130.96 146.54 130.05 C 146.45 129.14 145.64 128.48 144.74 128.57 Z M 143.47 128.71 L 142.53 128.96 C 141.65 129.19 141.13 130.10 141.36 130.98 C 141.59 131.86 142.50 132.39 143.38 132.15 L 144.31 131.91 C 145.20 131.67 145.72 130.77 145.49 129.89 C 145.26 129.00 144.35 128.48 143.47 128.71 Z M 142.19 129.09 L 141.36 129.52 C 140.55 129.94 140.24 130.94 140.66 131.75 C 141.08 132.56 142.08 132.88 142.89 132.46 L 143.72 132.03 C 144.53 131.60 144.85 130.61 144.43 129.79 C 144.01 128.98 143.01 128.67 142.19 129.09 Z M 141.13 129.66 L 140.32 130.27 C 139.58 130.82 139.43 131.86 139.98 132.59 C 140.53 133.33 141.57 133.48 142.30 132.93 L 143.12 132.32 C 143.85 131.77 144.00 130.73 143.45 130.00 C 142.91 129.26 141.87 129.11 141.13 129.66 Z M 140.21 130.36 L 139.48 131.00 C 138.80 131.61 138.73 132.66 139.34 133.34 C 139.95 134.03 141.00 134.09 141.68 133.48 L 142.41 132.84 C 143.09 132.24 143.16 131.19 142.55 130.50 C 141.94 129.81 140.89 129.75 140.21 130.36 Z M 139.42 131.06 L 138.69 131.77 C 138.04 132.42 138.03 133.47 138.67 134.12 C 139.32 134.78 140.37 134.78 141.02 134.14 L 141.75 133.43 C 142.40 132.78 142.41 131.73 141.77 131.08 C 141.12 130.42 140.07 130.41 139.42 131.06 Z M 138.64 131.82 L 137.96 132.56 C 137.33 133.23 137.37 134.29 138.04 134.91 C 138.72 135.54 139.77 135.50 140.40 134.82 L 141.08 134.09 C 141.70 133.41 141.66 132.36 140.99 131.73 C 140.32 131.11 139.26 131.15 138.64 131.82 Z M 137.91 132.60 L 137.26 133.35 C 136.66 134.05 136.74 135.10 137.44 135.71 C 138.13 136.31 139.19 136.23 139.79 135.53 L 140.44 134.78 C 141.05 134.08 140.97 133.03 140.27 132.42 C 139.57 131.82 138.52 131.90 137.91 132.60 Z M 137.23 133.38 L 136.58 134.18 C 135.99 134.90 136.10 135.95 136.81 136.54 C 137.53 137.13 138.59 137.02 139.17 136.30 L 139.83 135.50 C 140.41 134.79 140.31 133.73 139.59 133.14 C 138.87 132.56 137.82 132.66 137.23 133.38 Z M 136.55 134.21 L 135.95 134.97 C 135.38 135.71 135.51 136.76 136.24 137.34 C 136.97 137.91 138.03 137.78 138.60 137.05 L 139.20 136.28 C 139.77 135.55 139.64 134.49 138.91 133.92 C 138.18 133.34 137.12 133.47 136.55 134.21 Z M 135.92 135.00 L 135.32 135.81 C 134.77 136.56 134.92 137.61 135.67 138.17 C 136.42 138.72 137.48 138.57 138.03 137.82 L 138.63 137.01 C 139.18 136.27 139.03 135.21 138.28 134.66 C 137.53 134.10 136.47 134.26 135.92 135.00 Z M 135.29 135.85 L 134.71 136.68 C 134.18 137.44 134.36 138.50 135.13 139.03 C 135.90 139.57 136.95 139.38 137.48 138.61 L 138.06 137.78 C 138.60 137.02 138.41 135.96 137.64 135.43 C 136.88 134.89 135.82 135.08 135.29 135.85 Z M 134.68 136.72 L 134.15 137.52 C 133.64 138.31 133.86 139.36 134.65 139.87 C 135.43 140.38 136.48 140.16 136.99 139.37 L 137.52 138.57 C 138.03 137.79 137.81 136.74 137.02 136.23 C 136.24 135.71 135.19 135.94 134.68 136.72 Z M 134.12 137.56 L 133.60 138.42 C 133.11 139.22 133.36 140.26 134.17 140.75 C 134.97 141.24 136.01 140.99 136.50 140.19 L 137.02 139.33 C 137.51 138.53 137.26 137.49 136.46 137.00 C 135.66 136.51 134.61 136.76 134.12 137.56 Z M 133.57 138.46 L 133.05 139.36 C 132.59 140.18 132.87 141.22 133.68 141.69 C 134.50 142.15 135.54 141.87 136.01 141.06 L 136.53 140.15 C 136.99 139.33 136.71 138.30 135.90 137.83 C 135.08 137.36 134.04 137.64 133.57 138.46 Z M 133.03 139.40 L 132.57 140.25 C 132.12 141.08 132.43 142.11 133.26 142.56 C 134.09 143.01 135.12 142.70 135.57 141.87 L 136.03 141.02 C 136.48 140.19 136.17 139.16 135.34 138.71 C 134.51 138.26 133.48 138.57 133.03 139.40 Z M 132.55 140.29 L 132.09 141.18 C 131.67 142.02 132.00 143.05 132.84 143.48 C 133.68 143.90 134.71 143.57 135.14 142.73 L 135.59 141.84 C 136.02 140.99 135.69 139.97 134.84 139.54 C 134.00 139.11 132.98 139.45 132.55 140.29 Z M 132.07 141.22 L 131.63 142.15 C 131.23 143.00 131.60 144.02 132.45 144.42 C 133.30 144.83 134.32 144.46 134.73 143.61 L 135.16 142.69 C 135.57 141.83 135.20 140.81 134.35 140.41 C 133.49 140.00 132.47 140.37 132.07 141.22 Z M 131.61 142.20 L 131.21 143.12 C 130.83 143.99 131.23 145.00 132.10 145.37 C 132.97 145.75 133.98 145.35 134.35 144.48 L 134.75 143.56 C 135.13 142.69 134.73 141.68 133.86 141.30 C 132.99 140.93 131.98 141.33 131.61 142.20 Z M 131.18 143.17 L 130.82 144.09 C 130.48 144.97 130.91 145.96 131.79 146.31 C 132.68 146.66 133.67 146.22 134.02 145.34 L 134.38 144.43 C 134.73 143.54 134.29 142.55 133.41 142.20 C 132.53 141.85 131.53 142.29 131.18 143.17 Z M 130.80 144.14 L 130.47 145.08 C 130.15 145.97 130.62 146.95 131.51 147.27 C 132.41 147.59 133.39 147.12 133.71 146.23 L 134.04 145.29 C 134.36 144.39 133.89 143.41 133.00 143.09 C 132.10 142.78 131.12 143.24 130.80 144.14 Z M 130.45 145.13 L 130.14 146.10 C 129.85 147.00 130.35 147.97 131.25 148.26 C 132.16 148.55 133.13 148.05 133.42 147.15 L 133.73 146.18 C 134.02 145.27 133.52 144.30 132.61 144.01 C 131.71 143.72 130.74 144.22 130.45 145.13 Z M 130.12 146.14 L 129.85 147.08 C 129.58 148.00 130.11 148.95 131.02 149.22 C 131.94 149.48 132.89 148.96 133.16 148.04 L 133.43 147.10 C 133.70 146.19 133.17 145.23 132.26 144.97 C 131.34 144.70 130.39 145.23 130.12 146.14 Z M 129.84 147.12 L 129.59 148.07 C 129.34 148.99 129.89 149.93 130.81 150.17 C 131.73 150.42 132.68 149.87 132.92 148.95 L 133.17 148.00 C 133.41 147.08 132.87 146.14 131.95 145.90 C 131.02 145.65 130.08 146.20 129.84 147.12 Z M 129.58 148.10 L 129.34 149.08 C 129.12 150.00 129.68 150.94 130.61 151.16 C 131.54 151.39 132.47 150.82 132.70 149.89 L 132.93 148.91 C 133.16 147.99 132.59 147.05 131.66 146.83 C 130.73 146.61 129.80 147.17 129.58 148.10 Z M 129.33 149.11 L 129.11 150.11 C 128.90 151.04 129.49 151.97 130.42 152.17 C 131.35 152.38 132.27 151.79 132.48 150.86 L 132.70 149.86 C 132.91 148.93 132.32 148.00 131.39 147.80 C 130.46 147.59 129.54 148.18 129.33 149.11 Z M 129.10 150.14 L 128.90 151.13 C 128.71 152.07 129.31 152.98 130.25 153.17 C 131.18 153.36 132.10 152.76 132.29 151.82 L 132.49 150.83 C 132.68 149.90 132.08 148.98 131.14 148.79 C 130.20 148.60 129.29 149.21 129.10 150.14 Z M 128.89 151.16 L 128.71 152.13 C 128.53 153.07 129.15 153.97 130.09 154.15 C 131.03 154.32 131.93 153.71 132.11 152.77 L 132.29 151.80 C 132.47 150.86 131.85 149.95 130.91 149.78 C 129.97 149.60 129.07 150.22 128.89 151.16 Z M 128.70 152.15 L 128.53 153.14 C 128.37 154.08 129.00 154.98 129.94 155.14 C 130.89 155.30 131.78 154.67 131.95 153.73 L 132.12 152.74 C 132.28 151.80 131.65 150.90 130.71 150.74 C 129.76 150.58 128.87 151.21 128.70 152.15 Z M 128.53 153.16 L 128.37 154.16 C 128.22 155.10 128.87 155.99 129.81 156.14 C 130.76 156.29 131.64 155.65 131.79 154.70 L 131.95 153.70 C 132.10 152.76 131.46 151.87 130.51 151.72 C 129.56 151.57 128.68 152.22 128.53 153.16 Z M 128.36 154.18 L 128.22 155.19 C 128.08 156.14 128.74 157.02 129.69 157.15 C 130.64 157.29 131.52 156.63 131.65 155.68 L 131.80 154.68 C 131.94 153.73 131.28 152.85 130.33 152.71 C 129.38 152.58 128.50 153.23 128.36 154.18 Z M 128.22 155.21 L 128.09 156.22 C 127.96 157.17 128.64 158.04 129.59 158.16 C 130.54 158.28 131.41 157.61 131.53 156.66 L 131.66 155.66 C 131.78 154.71 131.11 153.84 130.16 153.71 C 129.21 153.59 128.34 154.26 128.22 155.21 Z M 128.08 156.24 L 127.97 157.24 C 127.86 158.20 128.54 159.06 129.50 159.17 C 130.45 159.28 131.31 158.59 131.42 157.64 L 131.53 156.64 C 131.64 155.68 130.96 154.82 130.01 154.71 C 129.05 154.60 128.19 155.29 128.08 156.24 Z M 127.96 157.27 L 127.86 158.27 C 127.77 159.22 128.46 160.07 129.42 160.17 C 130.38 160.26 131.23 159.57 131.32 158.61 L 131.42 157.61 C 131.52 156.66 130.82 155.81 129.87 155.71 C 128.91 155.62 128.06 156.31 127.96 157.27 Z M 127.86 158.29 L 127.77 159.28 C 127.69 160.23 128.40 161.08 129.36 161.16 C 130.32 161.24 131.16 160.53 131.24 159.57 L 131.33 158.59 C 131.41 157.63 130.70 156.79 129.74 156.70 C 128.78 156.62 127.94 157.33 127.86 158.29 Z M 127.77 159.30 L 127.70 160.30 C 127.63 161.26 128.35 162.09 129.31 162.16 C 130.27 162.23 131.11 161.50 131.18 160.54 L 131.25 159.55 C 131.31 158.59 130.59 157.76 129.63 157.69 C 128.67 157.62 127.84 158.34 127.77 159.30 Z M 127.70 160.32 L 127.64 161.33 C 127.59 162.30 128.32 163.12 129.28 163.17 C 130.24 163.23 131.07 162.49 131.12 161.53 L 131.18 160.52 C 131.23 159.56 130.50 158.73 129.54 158.68 C 128.57 158.63 127.75 159.36 127.70 160.32 Z M 127.64 161.36 L 127.60 162.36 C 127.55 163.32 128.30 164.13 129.26 164.17 C 130.23 164.21 131.04 163.47 131.08 162.51 L 131.12 161.51 C 131.16 160.54 130.42 159.73 129.46 159.69 C 128.49 159.65 127.68 160.40 127.64 161.36 Z M 127.59 162.38 L 127.56 163.37 C 127.53 164.33 128.29 165.13 129.25 165.16 C 130.22 165.19 131.02 164.44 131.05 163.47 L 131.08 162.48 C 131.11 161.52 130.36 160.72 129.39 160.69 C 128.43 160.66 127.62 161.41 127.59 162.38 Z M 127.56 163.38 L 127.54 164.37 C 127.52 165.34 128.29 166.14 129.25 166.16 C 130.21 166.18 131.01 165.41 131.03 164.45 L 131.05 163.46 C 131.07 162.49 130.31 161.69 129.34 161.67 C 128.38 161.65 127.58 162.42 127.56 163.38 Z M 127.54 164.39 L 127.53 165.43 C 127.51 166.40 128.29 167.19 129.25 167.20 C 130.22 167.22 131.01 166.44 131.02 165.48 L 131.03 164.43 C 131.05 163.47 130.27 162.68 129.31 162.66 C 128.34 162.65 127.55 163.42 127.54 164.39 Z M 127.52 165.44 L 127.52 166.47 C 127.51 167.43 128.29 168.22 129.25 168.23 C 130.22 168.24 131.01 167.46 131.02 166.49 L 131.02 165.47 C 131.03 164.50 130.25 163.71 129.28 163.71 C 128.32 163.70 127.53 164.48 127.52 165.44 Z M 127.52 166.48 L 127.51 167.46 C 127.51 168.43 128.29 169.22 129.26 169.22 C 130.23 169.22 131.01 168.44 131.01 167.47 L 131.02 166.48 C 131.02 165.52 130.24 164.73 129.27 164.73 C 128.30 164.73 127.52 165.51 127.52 166.48 Z M 127.51 167.47 L 127.51 168.41 C 127.51 169.38 128.30 170.16 129.26 170.16 C 130.23 170.17 131.01 169.38 131.02 168.41 L 131.02 167.47 C 131.02 166.50 130.23 165.72 129.26 165.72 C 128.30 165.72 127.51 166.50 127.51 167.47 Z M 127.51 168.42 L 127.52 169.49 C 127.52 170.45 128.31 171.23 129.27 171.23 C 130.24 171.23 131.02 170.44 131.02 169.47 L 131.02 168.41 C 131.01 167.44 130.23 166.66 129.26 166.66 C 128.29 166.66 127.51 167.45 127.51 168.42 Z M 127.52 169.52 L 127.54 170.51 C 127.56 171.48 128.36 172.24 129.33 172.22 C 130.30 172.20 131.06 171.40 131.04 170.43 L 131.02 169.44 C 131.00 168.47 130.19 167.71 129.23 167.73 C 128.26 167.75 127.49 168.55 127.52 169.52 Z M 127.54 170.58 L 127.60 171.53 C 127.66 172.49 128.49 173.22 129.46 173.16 C 130.43 173.10 131.16 172.27 131.10 171.31 L 131.04 170.36 C 130.98 169.39 130.15 168.66 129.18 168.72 C 128.21 168.78 127.48 169.61 127.54 170.58 Z M 127.61 171.63 L 127.73 172.61 C 127.85 173.57 128.72 174.26 129.68 174.14 C 130.64 174.02 131.33 173.15 131.21 172.19 L 131.09 171.20 C 130.97 170.24 130.10 169.56 129.14 169.68 C 128.18 169.80 127.49 170.67 127.61 171.63 Z M 127.75 172.72 L 127.93 173.70 C 128.11 174.65 129.02 175.28 129.97 175.11 C 130.92 174.93 131.55 174.02 131.37 173.07 L 131.19 172.08 C 131.02 171.13 130.10 170.50 129.15 170.68 C 128.20 170.85 127.57 171.77 127.75 172.72 Z M 127.95 173.79 L 128.18 174.76 C 128.41 175.70 129.35 176.28 130.29 176.05 C 131.23 175.83 131.81 174.88 131.58 173.95 L 131.35 172.98 C 131.13 172.04 130.18 171.46 129.24 171.69 C 128.30 171.91 127.73 172.86 127.95 173.79 Z M 128.21 174.84 L 128.49 175.82 C 128.76 176.74 129.73 177.27 130.66 177.00 C 131.59 176.73 132.12 175.76 131.85 174.84 L 131.56 173.86 C 131.29 172.94 130.32 172.41 129.39 172.68 C 128.47 172.95 127.94 173.92 128.21 174.84 Z M 128.52 175.89 L 128.85 176.85 C 129.16 177.76 130.15 178.24 131.06 177.93 C 131.97 177.62 132.46 176.62 132.15 175.71 L 131.82 174.76 C 131.51 173.85 130.51 173.36 129.60 173.68 C 128.69 173.99 128.21 174.98 128.52 175.89 Z M 128.88 176.92 L 129.24 177.83 C 129.59 178.73 130.61 179.17 131.50 178.81 C 132.39 178.46 132.83 177.44 132.48 176.55 L 132.12 175.64 C 131.76 174.74 130.75 174.30 129.85 174.66 C 128.96 175.01 128.52 176.03 128.88 176.92 Z M 129.27 177.91 L 129.69 178.84 C 130.09 179.72 131.12 180.10 132.00 179.71 C 132.87 179.31 133.26 178.28 132.86 177.40 L 132.44 176.47 C 132.05 175.60 131.02 175.21 130.14 175.61 C 129.26 176.00 128.88 177.03 129.27 177.91 Z M 129.74 178.92 L 130.19 179.81 C 130.64 180.66 131.68 180.99 132.54 180.55 C 133.39 180.11 133.72 179.06 133.28 178.21 L 132.82 177.32 C 132.38 176.47 131.33 176.14 130.48 176.58 C 129.63 177.02 129.30 178.07 129.74 178.92 Z M 130.24 179.89 L 130.74 180.73 C 131.22 181.56 132.29 181.83 133.11 181.35 C 133.94 180.86 134.21 179.80 133.73 178.97 L 133.23 178.13 C 132.75 177.30 131.69 177.03 130.86 177.51 C 130.03 178.00 129.76 179.06 130.24 179.89 Z M 130.79 180.82 L 131.35 181.65 C 131.88 182.44 132.96 182.66 133.75 182.12 C 134.55 181.59 134.76 180.51 134.23 179.72 L 133.67 178.89 C 133.14 178.09 132.06 177.88 131.27 178.41 C 130.47 178.94 130.26 180.02 130.79 180.82 Z M 131.41 181.73 L 132.01 182.52 C 132.59 183.29 133.68 183.44 134.44 182.86 C 135.20 182.28 135.35 181.19 134.77 180.43 L 134.17 179.63 C 133.59 178.87 132.50 178.72 131.74 179.30 C 130.98 179.88 130.83 180.97 131.41 181.73 Z M 132.07 182.60 L 132.73 183.37 C 133.35 184.10 134.45 184.19 135.17 183.56 C 135.90 182.94 135.99 181.85 135.37 181.12 L 134.71 180.35 C 134.09 179.62 132.99 179.54 132.27 180.16 C 131.54 180.78 131.45 181.87 132.07 182.60 Z M 132.81 183.45 L 133.51 184.18 C 134.18 184.86 135.28 184.88 135.96 184.21 C 136.65 183.55 136.66 182.45 136.00 181.77 L 135.29 181.04 C 134.62 180.35 133.53 180.34 132.84 181.00 C 132.16 181.67 132.14 182.77 132.81 183.45 Z M 133.63 184.29 L 134.37 184.92 C 135.10 185.54 136.19 185.46 136.81 184.73 C 137.43 184.01 137.35 182.92 136.62 182.30 L 135.88 181.66 C 135.15 181.04 134.06 181.12 133.44 181.85 C 132.82 182.57 132.91 183.67 133.63 184.29 Z M 134.55 185.05 L 135.40 185.60 C 136.19 186.13 137.26 185.91 137.78 185.11 C 138.31 184.31 138.09 183.24 137.29 182.72 L 136.44 182.17 C 135.65 181.64 134.58 181.87 134.06 182.66 C 133.53 183.46 133.76 184.53 134.55 185.05 Z M 135.57 185.70 L 136.45 186.14 C 137.29 186.57 138.33 186.23 138.76 185.38 C 139.19 184.54 138.85 183.50 138.00 183.07 L 137.12 182.63 C 136.27 182.20 135.23 182.54 134.81 183.38 C 134.38 184.23 134.72 185.27 135.57 185.70 Z M 136.55 186.19 L 137.46 186.57 C 138.33 186.95 139.34 186.54 139.71 185.67 C 140.08 184.79 139.68 183.78 138.80 183.41 L 137.90 183.03 C 137.02 182.65 136.01 183.06 135.64 183.93 C 135.27 184.81 135.68 185.82 136.55 186.19 Z M 137.53 186.60 L 138.47 186.95 C 139.36 187.28 140.35 186.83 140.68 185.94 C 141.01 185.06 140.56 184.07 139.67 183.74 L 138.73 183.39 C 137.84 183.05 136.85 183.51 136.52 184.39 C 136.19 185.28 136.64 186.27 137.53 186.60 Z M 138.54 186.97 L 139.50 187.28 C 140.40 187.58 141.37 187.08 141.66 186.18 C 141.95 185.28 141.46 184.32 140.56 184.03 L 139.60 183.72 C 138.70 183.42 137.73 183.92 137.44 184.82 C 137.15 185.72 137.64 186.68 138.54 186.97 Z M 139.58 187.30 L 140.54 187.57 C 141.45 187.82 142.40 187.28 142.65 186.37 C 142.90 185.46 142.36 184.52 141.45 184.27 L 140.49 184.01 C 139.58 183.76 138.64 184.29 138.38 185.20 C 138.13 186.11 138.67 187.05 139.58 187.30 Z M 140.63 187.59 L 141.60 187.80 C 142.52 188.01 143.43 187.43 143.63 186.51 C 143.84 185.59 143.26 184.68 142.34 184.48 L 141.37 184.26 C 140.45 184.05 139.54 184.63 139.33 185.55 C 139.13 186.47 139.71 187.38 140.63 187.59 Z M 141.68 187.82 L 142.67 187.99 C 143.60 188.14 144.48 187.52 144.64 186.59 C 144.80 185.67 144.17 184.79 143.25 184.63 L 142.26 184.46 C 141.33 184.30 140.45 184.93 140.29 185.85 C 140.14 186.78 140.76 187.66 141.68 187.82 Z M 142.76 187.99 L 143.75 188.11 C 144.68 188.22 145.52 187.56 145.64 186.63 C 145.75 185.70 145.08 184.85 144.15 184.74 L 143.16 184.62 C 142.23 184.51 141.39 185.18 141.28 186.11 C 141.16 187.04 141.83 187.88 142.76 187.99 Z M 143.83 188.11 L 144.81 188.19 C 145.75 188.25 146.56 187.55 146.62 186.62 C 146.69 185.69 145.99 184.88 145.06 184.81 L 144.07 184.74 C 143.14 184.67 142.33 185.37 142.26 186.30 C 142.19 187.24 142.90 188.05 143.83 188.11 Z M 144.87 188.19 L 145.87 188.22 C 146.80 188.25 147.59 187.53 147.62 186.59 C 147.65 185.66 146.93 184.88 145.99 184.84 L 145.00 184.81 C 144.06 184.77 143.28 185.50 143.25 186.44 C 143.21 187.37 143.94 188.15 144.87 188.19 Z M 145.91 188.22 L 146.93 188.23 C 147.86 188.25 148.62 187.50 148.64 186.57 C 148.65 185.64 147.91 184.88 146.98 184.86 L 145.96 184.85 C 145.03 184.83 144.26 185.58 144.25 186.51 C 144.23 187.44 144.98 188.21 145.91 188.22 Z M 146.95 188.23 L 147.97 188.23 C 148.90 188.23 149.66 187.47 149.65 186.54 C 149.65 185.61 148.90 184.86 147.97 184.86 L 146.95 184.86 C 146.02 184.87 145.27 185.62 145.27 186.55 C 145.27 187.48 146.02 188.23 146.95 188.23 Z M 148.02 188.23 L 148.99 188.20 C 149.92 188.17 150.65 187.40 150.62 186.47 C 150.60 185.54 149.82 184.81 148.90 184.84 L 147.92 184.87 C 147.00 184.89 146.27 185.67 146.29 186.59 C 146.32 187.52 147.09 188.25 148.02 188.23 Z M 149.09 188.19 L 150.11 188.10 C 151.03 188.03 151.72 187.22 151.64 186.29 C 151.56 185.37 150.75 184.68 149.83 184.76 L 148.80 184.85 C 147.88 184.92 147.20 185.74 147.27 186.66 C 147.35 187.58 148.16 188.27 149.09 188.19 Z M 150.31 188.07 L 151.26 187.88 C 152.16 187.69 152.75 186.81 152.56 185.90 C 152.38 185.00 151.49 184.41 150.59 184.60 L 149.63 184.79 C 148.73 184.98 148.14 185.86 148.33 186.77 C 148.51 187.68 149.40 188.26 150.31 188.07 Z M 151.50 187.81 L 152.42 187.47 C 153.28 187.15 153.73 186.19 153.40 185.32 C 153.08 184.45 152.12 184.01 151.25 184.33 L 150.34 184.67 C 149.47 184.99 149.03 185.95 149.35 186.82 C 149.67 187.69 150.64 188.13 151.50 187.81 Z M 152.60 187.39 L 153.50 186.92 C 154.33 186.50 154.65 185.49 154.23 184.67 C 153.80 183.85 152.79 183.52 151.97 183.95 L 151.07 184.41 C 150.25 184.84 149.92 185.85 150.35 186.67 C 150.77 187.49 151.78 187.81 152.60 187.39 Z M 153.63 186.85 L 154.46 186.33 C 155.25 185.84 155.48 184.80 154.99 184.02 C 154.50 183.24 153.47 183.00 152.69 183.49 L 151.85 184.02 C 151.07 184.51 150.83 185.54 151.32 186.32 C 151.81 187.11 152.85 187.34 153.63 186.85 Z M 154.56 186.26 L 155.37 185.67 C 156.12 185.12 156.29 184.07 155.74 183.33 C 155.19 182.58 154.15 182.42 153.40 182.96 L 152.59 183.56 C 151.84 184.10 151.68 185.15 152.22 185.90 C 152.77 186.64 153.82 186.81 154.56 186.26 Z M 155.46 185.60 L 156.22 184.97 C 156.93 184.37 157.03 183.32 156.44 182.61 C 155.84 181.89 154.79 181.80 154.08 182.39 L 153.31 183.03 C 152.60 183.62 152.51 184.68 153.10 185.39 C 153.69 186.10 154.75 186.20 155.46 185.60 Z M 156.30 184.91 L 157.02 184.23 C 157.70 183.60 157.73 182.53 157.10 181.86 C 156.47 181.18 155.41 181.14 154.73 181.78 L 154.00 182.45 C 153.33 183.09 153.29 184.15 153.92 184.83 C 154.56 185.50 155.62 185.54 156.30 184.91 Z M 157.08 184.17 L 157.79 183.44 C 158.44 182.78 158.42 181.71 157.76 181.06 C 157.09 180.42 156.03 180.43 155.38 181.10 L 154.67 181.83 C 154.02 182.50 154.04 183.56 154.70 184.21 C 155.37 184.86 156.43 184.84 157.08 184.17 Z M 157.84 183.40 L 158.48 182.68 C 159.10 181.99 159.05 180.93 158.36 180.30 C 157.67 179.68 156.60 179.74 155.98 180.43 L 155.34 181.14 C 154.71 181.83 154.77 182.90 155.46 183.52 C 156.15 184.14 157.22 184.09 157.84 183.40 Z M 158.51 182.65 L 159.17 181.88 C 159.77 181.18 159.69 180.11 158.98 179.51 C 158.28 178.90 157.21 178.99 156.61 179.69 L 155.95 180.46 C 155.35 181.17 155.43 182.23 156.14 182.83 C 156.84 183.44 157.91 183.36 158.51 182.65 Z M 159.18 181.87 L 159.84 181.08 C 160.44 180.36 160.34 179.30 159.62 178.70 C 158.91 178.11 157.84 178.20 157.25 178.92 L 156.59 179.71 C 155.99 180.43 156.09 181.49 156.81 182.09 C 157.52 182.68 158.59 182.58 159.18 181.87 Z M 159.86 181.06 L 160.48 180.29 C 161.07 179.56 160.96 178.50 160.24 177.91 C 159.51 177.32 158.45 177.43 157.86 178.16 L 157.23 178.93 C 156.64 179.66 156.75 180.72 157.48 181.31 C 158.20 181.90 159.27 181.79 159.86 181.06 Z M 160.51 180.26 L 161.13 179.46 C 161.70 178.72 161.57 177.66 160.82 177.08 C 160.08 176.51 159.02 176.65 158.45 177.39 L 157.83 178.19 C 157.26 178.93 157.39 179.99 158.14 180.57 C 158.88 181.14 159.94 181.00 160.51 180.26 Z M 161.17 179.41 L 161.76 178.59 C 162.30 177.83 162.12 176.77 161.36 176.22 C 160.60 175.68 159.54 175.86 158.99 176.62 L 158.41 177.44 C 157.86 178.20 158.04 179.26 158.80 179.81 C 159.56 180.35 160.63 180.18 161.17 179.41 Z M 161.80 178.53 L 162.35 177.69 C 162.86 176.90 162.64 175.85 161.85 175.34 C 161.06 174.82 160.01 175.05 159.50 175.83 L 158.95 176.68 C 158.44 177.47 158.66 178.52 159.45 179.03 C 160.23 179.54 161.29 179.32 161.80 178.53 Z M 162.38 177.65 L 162.89 176.81 C 163.39 176.00 163.13 174.95 162.33 174.46 C 161.53 173.97 160.48 174.22 159.99 175.03 L 159.47 175.87 C 158.98 176.68 159.23 177.72 160.03 178.22 C 160.84 178.71 161.88 178.45 162.38 177.65 Z M 162.90 176.80 L 163.41 175.94 C 163.90 175.14 163.64 174.09 162.83 173.60 C 162.02 173.12 160.98 173.38 160.49 174.19 L 159.98 175.04 C 159.49 175.85 159.75 176.89 160.56 177.38 C 161.37 177.86 162.42 177.60 162.90 176.80 Z M 163.42 175.95 L 163.93 175.09 C 164.42 174.28 164.16 173.23 163.35 172.75 C 162.54 172.26 161.49 172.52 161.01 173.33 L 160.49 174.18 C 160.00 174.99 160.26 176.04 161.07 176.53 C 161.88 177.01 162.93 176.75 163.42 175.95 Z M 163.94 175.08 L 164.45 174.22 C 164.93 173.41 164.67 172.36 163.86 171.88 C 163.04 171.40 162.00 171.66 161.51 172.47 L 161.00 173.33 C 160.52 174.14 160.78 175.19 161.59 175.68 C 162.40 176.16 163.45 175.89 163.94 175.08 Z M 164.46 174.21 L 164.97 173.34 C 165.44 172.52 165.16 171.47 164.34 171.00 C 163.53 170.52 162.48 170.80 162.00 171.62 L 161.50 172.49 C 161.03 173.31 161.30 174.35 162.12 174.83 C 162.94 175.30 163.99 175.02 164.46 174.21 Z M 164.98 173.31 L 165.47 172.44 C 165.93 171.61 165.64 170.57 164.81 170.10 C 163.99 169.64 162.94 169.94 162.48 170.76 L 161.99 171.64 C 161.53 172.47 161.82 173.51 162.65 173.97 C 163.48 174.44 164.52 174.14 164.98 173.31 Z M 165.49 172.41 L 165.96 171.54 C 166.41 170.70 166.10 169.66 165.26 169.21 C 164.43 168.76 163.39 169.08 162.94 169.91 L 162.47 170.79 C 162.02 171.62 162.33 172.66 163.16 173.11 C 164.00 173.56 165.04 173.25 165.49 172.41 Z M 165.97 171.52 L 166.44 170.63 C 166.87 169.78 166.55 168.75 165.70 168.31 C 164.86 167.87 163.83 168.20 163.39 169.04 L 162.92 169.93 C 162.49 170.77 162.81 171.81 163.66 172.25 C 164.50 172.69 165.53 172.36 165.97 171.52 Z M 166.45 170.61 L 166.90 169.71 C 167.33 168.86 166.98 167.82 166.14 167.40 C 165.29 166.97 164.26 167.31 163.83 168.16 L 163.38 169.06 C 162.95 169.91 163.29 170.94 164.14 171.37 C 164.99 171.80 166.02 171.45 166.45 170.61 Z M 166.91 169.69 L 167.34 168.80 C 167.76 167.94 167.40 166.91 166.55 166.50 C 165.69 166.08 164.67 166.44 164.25 167.29 L 163.82 168.18 C 163.40 169.04 163.76 170.07 164.61 170.48 C 165.47 170.90 166.50 170.54 166.91 169.69 Z M 167.35 168.78 L 167.78 167.88 C 168.18 167.02 167.81 166.00 166.95 165.59 C 166.09 165.19 165.07 165.56 164.66 166.42 L 164.24 167.31 C 163.83 168.17 164.20 169.20 165.06 169.60 C 165.92 170.01 166.95 169.64 167.35 168.78 Z M 167.79 167.86 L 168.20 166.95 C 168.59 166.08 168.20 165.06 167.33 164.67 C 166.46 164.28 165.44 164.67 165.05 165.54 L 164.65 166.44 C 164.26 167.31 164.64 168.33 165.51 168.72 C 166.38 169.11 167.40 168.72 167.79 167.86 Z M 168.22 166.91 L 168.61 165.98 C 168.98 165.11 168.57 164.09 167.69 163.72 C 166.81 163.35 165.80 163.76 165.43 164.64 L 165.04 165.57 C 164.67 166.45 165.08 167.46 165.96 167.83 C 166.83 168.20 167.84 167.79 168.22 166.91 Z M 168.63 165.94 L 168.99 165.00 C 169.34 164.11 168.90 163.11 168.01 162.77 C 167.13 162.42 166.12 162.86 165.78 163.75 L 165.41 164.68 C 165.06 165.57 165.50 166.57 166.39 166.92 C 167.28 167.27 168.28 166.83 168.63 165.94 Z M 169.01 164.95 L 169.35 164.00 C 169.67 163.10 169.20 162.12 168.30 161.80 C 167.40 161.48 166.41 161.95 166.09 162.85 L 165.76 163.80 C 165.44 164.69 165.91 165.68 166.81 166.00 C 167.71 166.32 168.69 165.85 169.01 164.95 Z M 169.37 163.94 L 169.67 162.99 C 169.95 162.07 169.44 161.10 168.53 160.82 C 167.62 160.54 166.65 161.05 166.36 161.96 L 166.07 162.91 C 165.79 163.83 166.30 164.80 167.21 165.08 C 168.12 165.36 169.09 164.85 169.37 163.94 Z M 169.70 162.89 L 169.94 161.92 C 170.17 160.99 169.60 160.05 168.68 159.82 C 167.75 159.59 166.81 160.16 166.58 161.08 L 166.34 162.06 C 166.11 162.98 166.67 163.92 167.60 164.15 C 168.53 164.38 169.47 163.82 169.70 162.89 Z M 169.97 161.80 L 170.14 160.83 C 170.30 159.88 169.67 158.99 168.73 158.82 C 167.78 158.66 166.88 159.29 166.72 160.23 L 166.55 161.20 C 166.39 162.15 167.02 163.05 167.96 163.21 C 168.90 163.37 169.80 162.74 169.97 161.80 Z M 170.15 160.70 L 170.25 159.74 C 170.35 158.79 169.65 157.94 168.70 157.84 C 167.75 157.75 166.90 158.44 166.80 159.40 L 166.70 160.36 C 166.61 161.31 167.30 162.16 168.25 162.26 C 169.21 162.35 170.06 161.66 170.15 160.70 Z M 170.26 159.65 L 170.31 158.66 C 170.35 157.70 169.61 156.89 168.66 156.84 C 167.70 156.80 166.89 157.53 166.84 158.49 L 166.79 159.49 C 166.75 160.44 167.48 161.26 168.44 161.30 C 169.40 161.35 170.21 160.61 170.26 159.65 Z M 170.31 158.61 L 170.33 157.57 C 170.35 156.62 169.58 155.83 168.63 155.81 C 167.67 155.79 166.88 156.55 166.86 157.51 L 166.84 158.54 C 166.82 159.50 167.58 160.29 168.54 160.31 C 169.50 160.33 170.29 159.57 170.31 158.61 Z M 170.33 157.55 L 170.33 156.59 C 170.34 155.63 169.57 154.85 168.61 154.84 C 167.65 154.84 166.87 155.61 166.87 156.57 L 166.86 157.53 C 166.86 158.49 167.63 159.27 168.58 159.27 C 169.54 159.28 170.32 158.51 170.33 157.55 Z M 170.33 156.55 L 170.32 155.55 C 170.30 154.59 169.52 153.83 168.56 153.84 C 167.60 153.85 166.84 154.64 166.85 155.60 L 166.87 156.60 C 166.88 157.56 167.67 158.32 168.62 158.31 C 169.58 158.30 170.35 157.51 170.33 156.55 Z M 170.32 155.50 L 170.27 154.46 C 170.23 153.51 169.42 152.76 168.47 152.81 C 167.51 152.85 166.77 153.65 166.81 154.61 L 166.85 155.65 C 166.89 156.60 167.70 157.35 168.66 157.31 C 169.61 157.27 170.36 156.46 170.32 155.50 Z M 170.27 154.40 L 170.19 153.44 C 170.12 152.49 169.29 151.77 168.33 151.85 C 167.38 151.92 166.66 152.76 166.74 153.71 L 166.81 154.67 C 166.89 155.63 167.72 156.34 168.68 156.27 C 169.63 156.19 170.34 155.36 170.27 154.40 Z M 170.19 153.37 L 170.07 152.38 C 169.95 151.43 169.09 150.75 168.14 150.87 C 167.19 150.98 166.51 151.85 166.63 152.80 L 166.74 153.78 C 166.86 154.73 167.72 155.41 168.67 155.30 C 169.62 155.18 170.30 154.32 170.19 153.37 Z M 170.05 152.29 L 169.88 151.28 C 169.71 150.34 168.82 149.71 167.87 149.87 C 166.93 150.04 166.30 150.94 166.46 151.88 L 166.64 152.89 C 166.80 153.83 167.70 154.46 168.64 154.30 C 169.59 154.13 170.22 153.24 170.05 152.29 Z M 169.86 151.19 L 169.63 150.22 C 169.41 149.29 168.48 148.71 167.55 148.93 C 166.62 149.15 166.04 150.08 166.26 151.01 L 166.48 151.98 C 166.70 152.91 167.63 153.49 168.56 153.27 C 169.50 153.05 170.08 152.12 169.86 151.19 Z M 169.61 150.14 L 169.34 149.20 C 169.08 148.28 168.12 147.75 167.20 148.02 C 166.28 148.28 165.74 149.24 166.01 150.16 L 166.28 151.10 C 166.54 152.02 167.51 152.55 168.42 152.28 C 169.34 152.02 169.88 151.06 169.61 150.14 Z M 169.32 149.14 L 169.00 148.18 C 168.70 147.27 167.72 146.78 166.81 147.08 C 165.90 147.38 165.41 148.36 165.71 149.27 L 166.03 150.23 C 166.33 151.14 167.31 151.63 168.22 151.33 C 169.13 151.03 169.62 150.04 169.32 149.14 Z M 168.99 148.13 L 168.63 147.16 C 168.30 146.26 167.30 145.80 166.41 146.13 C 165.51 146.46 165.04 147.45 165.37 148.35 L 165.73 149.32 C 166.06 150.22 167.06 150.69 167.96 150.36 C 168.85 150.03 169.32 149.03 168.99 148.13 Z M 168.62 147.12 L 168.25 146.18 C 167.90 145.28 166.89 144.84 166.00 145.19 C 165.10 145.54 164.66 146.55 165.02 147.44 L 165.39 148.39 C 165.74 149.28 166.74 149.72 167.64 149.37 C 168.53 149.02 168.97 148.01 168.62 147.12 Z M 168.23 146.14 L 167.84 145.20 C 167.47 144.32 166.45 143.90 165.57 144.27 C 164.68 144.64 164.27 145.66 164.64 146.55 L 165.03 147.48 C 165.40 148.37 166.42 148.78 167.30 148.41 C 168.19 148.04 168.60 147.02 168.23 146.14 Z M 167.82 145.16 L 167.41 144.24 C 167.01 143.36 165.98 142.98 165.10 143.37 C 164.23 143.77 163.84 144.80 164.24 145.68 L 164.65 146.59 C 165.05 147.47 166.08 147.86 166.96 147.46 C 167.83 147.06 168.22 146.03 167.82 145.16 Z M 167.38 144.18 L 166.94 143.30 C 166.52 142.44 165.47 142.09 164.61 142.51 C 163.75 142.94 163.40 143.99 163.82 144.85 L 164.26 145.73 C 164.69 146.59 165.74 146.94 166.60 146.52 C 167.46 146.09 167.81 145.04 167.38 144.18 Z M 166.91 143.23 L 166.41 142.33 C 165.94 141.49 164.88 141.19 164.04 141.66 C 163.20 142.12 162.90 143.19 163.36 144.03 L 163.86 144.92 C 164.33 145.76 165.39 146.06 166.23 145.60 C 167.07 145.13 167.37 144.07 166.91 143.23 Z M 166.37 142.26 L 165.83 141.40 C 165.32 140.58 164.25 140.33 163.43 140.84 C 162.61 141.35 162.36 142.43 162.87 143.24 L 163.41 144.10 C 163.92 144.92 164.99 145.17 165.81 144.66 C 166.63 144.15 166.88 143.08 166.37 142.26 Z M 165.79 141.33 L 165.23 140.52 C 164.69 139.73 163.60 139.53 162.81 140.08 C 162.01 140.62 161.81 141.71 162.36 142.50 L 162.92 143.31 C 163.46 144.11 164.55 144.31 165.34 143.76 C 166.14 143.21 166.34 142.13 165.79 141.33 Z M 165.19 140.47 L 164.61 139.69 C 164.03 138.92 162.94 138.76 162.17 139.33 C 161.40 139.91 161.24 141.00 161.81 141.78 L 162.40 142.56 C 162.97 143.33 164.07 143.49 164.84 142.91 C 165.61 142.33 165.77 141.24 165.19 140.47 Z M 164.58 139.65 L 163.96 138.86 C 163.36 138.11 162.26 137.98 161.50 138.58 C 160.75 139.18 160.62 140.28 161.22 141.03 L 161.85 141.82 C 162.45 142.57 163.54 142.70 164.30 142.10 C 165.05 141.50 165.18 140.40 164.58 139.65 Z M 163.93 138.83 L 163.29 138.06 C 162.67 137.32 161.57 137.22 160.83 137.84 C 160.09 138.46 159.99 139.56 160.61 140.30 L 161.25 141.07 C 161.87 141.81 162.97 141.91 163.71 141.29 C 164.45 140.67 164.55 139.57 163.93 138.83 Z M 163.27 138.03 L 162.61 137.28 C 161.98 136.55 160.87 136.47 160.14 137.11 C 159.42 137.74 159.34 138.85 159.97 139.57 L 160.63 140.33 C 161.26 141.06 162.37 141.13 163.10 140.50 C 163.82 139.87 163.90 138.76 163.27 138.03 Z M 162.60 137.26 L 161.93 136.51 C 161.28 135.79 160.17 135.73 159.45 136.38 C 158.73 137.02 158.67 138.13 159.32 138.85 L 159.99 139.60 C 160.63 140.31 161.74 140.38 162.46 139.73 C 163.18 139.08 163.24 137.98 162.60 137.26 Z M 161.91 136.49 L 161.23 135.75 C 160.57 135.04 159.47 134.99 158.75 135.65 C 158.04 136.30 158.00 137.41 158.65 138.12 L 159.33 138.86 C 159.99 139.58 161.10 139.62 161.81 138.97 C 162.52 138.31 162.57 137.21 161.91 136.49 Z M 161.21 135.73 L 160.53 135.01 C 159.86 134.31 158.76 134.27 158.05 134.94 C 157.35 135.60 157.32 136.71 157.98 137.41 L 158.67 138.14 C 159.33 138.84 160.44 138.88 161.14 138.21 C 161.85 137.55 161.88 136.44 161.21 135.73 Z M 160.51 134.99 L 159.82 134.28 C 159.15 133.59 158.04 133.57 157.35 134.24 C 156.65 134.92 156.63 136.03 157.31 136.72 L 158.00 137.43 C 158.67 138.13 159.78 138.14 160.47 137.47 C 161.17 136.80 161.19 135.69 160.51 134.99 Z M 159.81 134.26 L 159.09 133.54 C 158.41 132.86 157.30 132.86 156.61 133.54 C 155.93 134.23 155.92 135.34 156.61 136.02 L 157.33 136.74 C 158.01 137.42 159.12 137.43 159.80 136.74 C 160.49 136.06 160.49 134.95 159.81 134.26 Z M 159.07 133.53 L 158.35 132.83 C 157.66 132.15 156.55 132.17 155.87 132.86 C 155.20 133.56 155.22 134.67 155.91 135.34 L 156.63 136.04 C 157.32 136.71 158.43 136.70 159.10 136.00 C 159.78 135.31 159.76 134.20 159.07 133.53 Z M 158.33 132.81 L 157.61 132.13 C 156.91 131.47 155.80 131.50 155.14 132.21 C 154.47 132.91 154.51 134.02 155.21 134.68 L 155.93 135.36 C 156.63 136.02 157.74 135.99 158.41 135.29 C 159.07 134.58 159.04 133.47 158.33 132.81 Z M 157.59 132.11 L 156.85 131.44 C 156.14 130.79 155.03 130.84 154.38 131.56 C 153.73 132.27 153.78 133.38 154.50 134.03 L 155.23 134.70 C 155.95 135.35 157.06 135.30 157.71 134.59 C 158.36 133.87 158.31 132.76 157.59 132.11 Z M 156.83 131.42 L 156.08 130.76 C 155.35 130.13 154.25 130.20 153.61 130.93 C 152.97 131.65 153.04 132.76 153.77 133.40 L 154.52 134.06 C 155.25 134.69 156.36 134.62 156.99 133.89 C 157.63 133.16 157.56 132.06 156.83 131.42 Z M 156.05 130.74 L 155.29 130.10 C 154.55 129.48 153.44 129.57 152.82 130.31 C 152.20 131.05 152.29 132.16 153.04 132.78 L 153.80 133.42 C 154.54 134.04 155.65 133.95 156.27 133.21 C 156.89 132.47 156.79 131.36 156.05 130.74 Z M 155.26 130.07 L 154.46 129.43 C 153.71 128.83 152.60 128.95 152.00 129.70 C 151.39 130.46 151.51 131.56 152.27 132.16 L 153.07 132.80 C 153.82 133.41 154.92 133.29 155.53 132.53 C 156.13 131.78 156.01 130.68 155.26 130.07 Z M 154.42 129.40 L 153.60 128.78 C 152.83 128.19 151.73 128.34 151.15 129.11 C 150.56 129.88 150.71 130.98 151.48 131.57 L 152.30 132.19 C 153.07 132.78 154.17 132.63 154.76 131.86 C 155.34 131.09 155.19 129.99 154.42 129.40 Z M 153.55 128.74 L 152.73 128.17 C 151.94 127.61 150.85 127.80 150.29 128.60 C 149.74 129.39 149.93 130.48 150.72 131.04 L 151.53 131.61 C 152.33 132.16 153.42 131.97 153.98 131.18 C 154.53 130.39 154.34 129.29 153.55 128.74 Z M 152.65 128.11 L 151.81 127.59 C 150.98 127.08 149.90 127.34 149.39 128.16 C 148.88 128.98 149.14 130.06 149.96 130.57 L 150.81 131.09 C 151.63 131.60 152.71 131.35 153.22 130.52 C 153.73 129.70 153.47 128.62 152.65 128.11 Z M 151.67 127.51 L 150.75 127.06 C 149.89 126.62 148.83 126.97 148.40 127.84 C 147.97 128.71 148.32 129.76 149.19 130.19 L 150.10 130.65 C 150.97 131.08 152.02 130.73 152.45 129.87 C 152.89 129.00 152.53 127.95 151.67 127.51 Z M 150.58 126.98 L 149.69 126.65 C 148.78 126.31 147.77 126.78 147.44 127.68 C 147.10 128.59 147.56 129.60 148.47 129.94 L 149.36 130.27 C 150.27 130.60 151.28 130.14 151.61 129.23 C 151.95 128.33 151.49 127.32 150.58 126.98 Z M 149.51 126.60 L 148.56 126.35 C 147.62 126.11 146.67 126.68 146.43 127.62 C 146.19 128.55 146.75 129.51 147.69 129.75 L 148.65 129.99 C 149.58 130.23 150.54 129.67 150.78 128.73 C 151.02 127.79 150.45 126.84 149.51 126.60 Z M 148.40 126.32 L 147.41 126.17 C 146.46 126.01 145.56 126.66 145.41 127.62 C 145.26 128.57 145.91 129.47 146.86 129.62 L 147.85 129.78 C 148.80 129.93 149.70 129.28 149.85 128.32 C 150.00 127.37 149.35 126.47 148.40 126.32 Z M 147.28 126.15 L 146.29 126.07 C 145.32 126.00 144.48 126.71 144.41 127.67 C 144.33 128.64 145.05 129.48 146.01 129.55 L 147.00 129.63 C 147.96 129.71 148.80 128.99 148.88 128.03 C 148.96 127.07 148.24 126.23 147.28 126.15 Z M 146.15 126.07 L 145.16 126.07 C 144.19 126.06 143.41 126.84 143.41 127.81 C 143.40 128.77 144.18 129.55 145.15 129.56 L 146.14 129.56 C 147.10 129.56 147.89 128.78 147.89 127.82 C 147.89 126.86 147.12 126.07 146.15 126.07 Z M 145.00 126.07 L 144.00 126.16 C 143.04 126.24 142.33 127.09 142.41 128.05 C 142.49 129.01 143.34 129.72 144.30 129.64 L 145.30 129.55 C 146.26 129.47 146.97 128.62 146.89 127.66 C 146.81 126.70 145.96 125.99 145.00 126.07 Z M 143.83 126.19 L 142.88 126.36 C 141.93 126.54 141.31 127.45 141.49 128.39 C 141.66 129.34 142.57 129.96 143.51 129.79 L 144.47 129.61 C 145.41 129.43 146.03 128.52 145.86 127.58 C 145.68 126.63 144.77 126.01 143.83 126.19 Z M 142.70 126.41 L 141.73 126.70 C 140.81 126.98 140.29 127.95 140.57 128.86 C 140.84 129.78 141.81 130.30 142.73 130.03 L 143.70 129.73 C 144.61 129.46 145.13 128.49 144.86 127.58 C 144.58 126.66 143.62 126.14 142.70 126.41 Z M 141.55 126.78 L 140.64 127.17 C 139.76 127.54 139.36 128.56 139.73 129.44 C 140.11 130.31 141.12 130.72 142.00 130.34 L 142.91 129.95 C 143.79 129.58 144.19 128.56 143.82 127.68 C 143.44 126.81 142.43 126.40 141.55 126.78 Z M 140.50 127.24 L 139.66 127.70 C 138.82 128.15 138.51 129.19 138.96 130.03 C 139.41 130.87 140.45 131.18 141.29 130.73 L 142.14 130.27 C 142.97 129.82 143.29 128.77 142.84 127.94 C 142.38 127.10 141.34 126.79 140.50 127.24 Z M 139.58 127.75 L 138.70 128.28 C 137.90 128.78 137.64 129.83 138.13 130.64 C 138.63 131.45 139.68 131.70 140.49 131.21 L 141.37 130.67 C 142.17 130.18 142.43 129.13 141.94 128.32 C 141.44 127.51 140.39 127.26 139.58 127.75 Z M 138.67 128.31 L 137.80 128.88 C 137.01 129.39 136.78 130.45 137.29 131.24 C 137.81 132.03 138.86 132.26 139.65 131.74 L 140.52 131.18 C 141.32 130.67 141.54 129.61 141.03 128.82 C 140.52 128.03 139.46 127.80 138.67 128.31 Z M 137.78 128.90 L 136.95 129.46 C 136.17 129.98 135.97 131.03 136.49 131.81 C 137.01 132.59 138.06 132.80 138.84 132.28 L 139.67 131.72 C 140.45 131.20 140.66 130.14 140.14 129.37 C 139.61 128.59 138.56 128.38 137.78 128.90 Z M 136.92 129.49 L 136.10 130.07 C 135.34 130.61 135.16 131.66 135.69 132.43 C 136.23 133.19 137.29 133.37 138.05 132.83 L 138.87 132.24 C 139.63 131.71 139.81 130.65 139.28 129.89 C 138.74 129.13 137.68 128.95 136.92 129.49 Z M 136.05 130.12 L 135.26 130.73 C 134.52 131.29 134.38 132.34 134.94 133.08 C 135.51 133.82 136.56 133.96 137.30 133.39 L 138.09 132.78 C 138.83 132.22 138.97 131.17 138.41 130.43 C 137.84 129.69 136.79 129.55 136.05 130.12 Z M 135.20 130.79 L 134.41 131.45 C 133.71 132.05 133.62 133.10 134.22 133.81 C 134.82 134.51 135.87 134.59 136.57 134.00 L 137.36 133.33 C 138.06 132.74 138.14 131.68 137.55 130.98 C 136.95 130.28 135.90 130.19 135.20 130.79 Z M 134.35 131.52 L 133.62 132.21 C 132.96 132.83 132.92 133.88 133.55 134.55 C 134.18 135.22 135.23 135.25 135.90 134.62 L 136.63 133.93 C 137.30 133.30 137.33 132.25 136.70 131.59 C 136.07 130.92 135.02 130.89 134.35 131.52 Z M 133.58 132.26 L 132.90 132.96 C 132.26 133.62 132.27 134.66 132.93 135.30 C 133.58 135.93 134.62 135.92 135.26 135.27 L 135.94 134.56 C 136.58 133.91 136.57 132.87 135.91 132.23 C 135.26 131.60 134.22 131.61 133.58 132.26 Z M 132.87 133.01 L 132.19 133.75 C 131.58 134.42 131.63 135.45 132.30 136.06 C 132.97 136.67 134.00 136.63 134.61 135.96 L 135.29 135.22 C 135.90 134.55 135.85 133.51 135.18 132.90 C 134.51 132.29 133.48 132.34 132.87 133.01 Z M 132.17 133.79 L 131.51 134.56 C 130.93 135.24 131.00 136.26 131.68 136.85 C 132.36 137.43 133.39 137.36 133.97 136.68 L 134.63 135.92 C 135.22 135.24 135.14 134.21 134.47 133.62 C 133.79 133.04 132.76 133.11 132.17 133.79 Z M 131.50 134.60 L 130.87 135.36 C 130.31 136.05 130.40 137.06 131.09 137.63 C 131.78 138.19 132.79 138.09 133.36 137.41 L 133.99 136.64 C 134.55 135.95 134.45 134.94 133.76 134.38 C 133.08 133.81 132.06 133.91 131.50 134.60 Z M 130.86 135.40 L 130.24 136.19 C 129.70 136.88 129.82 137.88 130.51 138.42 C 131.20 138.97 132.20 138.85 132.74 138.16 L 133.37 137.37 C 133.91 136.68 133.79 135.68 133.10 135.13 C 132.41 134.59 131.41 134.71 130.86 135.40 Z M 130.23 136.23 L 129.62 137.04 C 129.10 137.74 129.24 138.73 129.94 139.25 C 130.63 139.77 131.62 139.63 132.14 138.93 L 132.75 138.12 C 133.28 137.42 133.13 136.43 132.44 135.91 C 131.74 135.39 130.75 135.53 130.23 136.23 Z M 129.60 137.09 L 129.04 137.90 C 128.55 138.60 128.72 139.58 129.43 140.07 C 130.13 140.56 131.11 140.39 131.60 139.69 L 132.16 138.88 C 132.66 138.17 132.48 137.20 131.78 136.71 C 131.07 136.21 130.10 136.39 129.60 137.09 Z M 129.02 137.96 L 128.48 138.81 C 128.02 139.53 128.23 140.49 128.95 140.94 C 129.67 141.40 130.62 141.19 131.08 140.47 L 131.62 139.62 C 132.08 138.90 131.87 137.95 131.15 137.49 C 130.43 137.03 129.48 137.24 129.02 137.96 Z M 128.45 138.89 L 127.96 139.76 C 127.54 140.49 127.79 141.42 128.52 141.84 C 129.25 142.26 130.18 142.00 130.60 141.27 L 131.10 140.40 C 131.52 139.67 131.26 138.74 130.53 138.32 C 129.80 137.90 128.87 138.16 128.45 138.89 Z M 127.94 139.84 L 127.50 140.70 C 127.13 141.44 127.42 142.34 128.16 142.72 C 128.90 143.09 129.81 142.80 130.18 142.06 L 130.62 141.20 C 130.99 140.46 130.70 139.55 129.96 139.18 C 129.22 138.80 128.31 139.10 127.94 139.84 Z M 127.48 140.78 L 127.08 141.69 C 126.75 142.44 127.09 143.31 127.83 143.65 C 128.58 143.98 129.46 143.64 129.79 142.89 L 130.20 141.98 C 130.53 141.23 130.19 140.35 129.44 140.02 C 128.70 139.69 127.82 140.03 127.48 140.78 Z M 127.06 141.78 L 126.71 142.71 C 126.43 143.47 126.82 144.32 127.58 144.60 C 128.34 144.88 129.18 144.50 129.47 143.74 L 129.81 142.80 C 130.10 142.04 129.71 141.20 128.95 140.91 C 128.19 140.63 127.34 141.02 127.06 141.78 Z M 126.69 142.80 L 126.40 143.76 C 126.17 144.53 126.60 145.35 127.37 145.58 C 128.14 145.82 128.96 145.38 129.19 144.61 L 129.49 143.65 C 129.72 142.88 129.28 142.06 128.51 141.83 C 127.74 141.59 126.93 142.03 126.69 142.80 Z M 126.38 143.85 L 126.15 144.83 C 125.96 145.61 126.44 146.40 127.22 146.59 C 128.00 146.77 128.79 146.29 128.97 145.51 L 129.21 144.53 C 129.40 143.75 128.92 142.96 128.14 142.77 C 127.35 142.59 126.57 143.07 126.38 143.85 Z M 126.13 144.93 L 125.96 145.92 C 125.83 146.71 126.36 147.46 127.15 147.59 C 127.94 147.72 128.69 147.19 128.82 146.40 L 128.99 145.41 C 129.12 144.62 128.59 143.87 127.80 143.74 C 127.01 143.61 126.26 144.14 126.13 144.93 Z M 125.95 146.03 L 125.86 147.04 C 125.79 147.84 126.38 148.54 127.17 148.61 C 127.97 148.68 128.68 148.09 128.75 147.30 L 128.84 146.29 C 128.91 145.49 128.32 144.79 127.52 144.71 C 126.72 144.64 126.02 145.23 125.95 146.03 Z M 125.85 147.11 L 125.82 147.98 C 125.78 148.78 126.40 149.46 127.20 149.49 C 128.00 149.53 128.68 148.91 128.72 148.11 L 128.75 147.23 C 128.79 146.43 128.17 145.75 127.37 145.72 C 126.56 145.68 125.89 146.30 125.85 147.11 Z"
      fill="black"
      fill-rule="nonzero" /></svg>