<svg xmlns="http://www.w3.org/2000/svg" width="300" height="300" viewBox="0 0 300 300">
<path d="M 159.08 132.27 L 158.53 131.43 C 158.07 130.74 157.14 130.55 156.45 131.01 C 155.75 131.46 155.56 132.40 156.02 133.09 L 156.58 133.93 C 157.03 134.62 157.96 134.81 158.66 134.36 C 159.35 133.90 159.54 132.97 159.08 132.27 Z M 158.43 131.23 L 157.78 130.49 C 157.21 129.85 156.23 129.79 155.59 130.36 C 154.95 130.93 154.89 131.91 155.46 132.55 L 156.11 133.29 C 156.68 133.93 157.66 133.99 158.30 133.42 C 158.94 132.85 159.00 131.87 158.43 131.23 Z M 157.54 130.23 L 156.73 129.65 C 156.01 129.14 155.02 129.30 154.51 130.01 C 154.00 130.73 154.17 131.72 154.88 132.23 L 155.69 132.81 C 156.41 133.32 157.40 133.16 157.91 132.44 C 158.42 131.73 158.26 130.74 157.54 130.23 Z M 156.49 129.48 L 155.61 129.06 C 154.80 128.68 153.84 129.03 153.46 129.84 C 153.08 130.65 153.43 131.61 154.24 131.99 L 155.12 132.40 C 155.93 132.78 156.89 132.43 157.27 131.63 C 157.65 130.82 157.30 129.86 156.49 129.48 Z M 155.35 128.95 L 154.36 128.69 C 153.49 128.45 152.60 128.97 152.36 129.84 C 152.13 130.71 152.65 131.60 153.52 131.84 L 154.50 132.10 C 155.37 132.34 156.27 131.82 156.50 130.95 C 156.73 130.08 156.22 129.18 155.35 128.95 Z M 154.12 128.63 L 153.14 128.52 C 152.24 128.42 151.43 129.08 151.33 129.98 C 151.23 130.88 151.88 131.69 152.78 131.79 L 153.76 131.89 C 154.67 131.99 155.48 131.34 155.57 130.44 C 155.67 129.54 155.02 128.73 154.12 128.63 Z M 152.96 128.51 L 151.94 128.51 C 151.03 128.51 150.29 129.24 150.29 130.16 C 150.29 131.07 151.03 131.80 151.94 131.80 L 152.96 131.80 C 153.87 131.80 154.61 131.07 154.61 130.16 C 154.61 129.24 153.87 128.51 152.96 128.51 Z M 151.74 128.51 L 150.78 128.63 C 149.87 128.74 149.23 129.57 149.34 130.47 C 149.45 131.38 150.27 132.02 151.18 131.91 L 152.14 131.80 C 153.05 131.69 153.69 130.86 153.58 129.96 C 153.47 129.05 152.65 128.40 151.74 128.51 Z M 150.43 128.71 L 149.47 129.05 C 148.61 129.36 148.16 130.30 148.46 131.16 C 148.77 132.02 149.71 132.47 150.58 132.17 L 151.53 131.83 C 152.39 131.53 152.84 130.58 152.54 129.72 C 152.23 128.86 151.29 128.41 150.43 128.71 Z M 149.14 129.21 L 148.31 129.73 C 147.53 130.22 147.30 131.25 147.79 132.02 C 148.28 132.80 149.31 133.03 150.08 132.54 L 150.91 132.01 C 151.68 131.52 151.92 130.50 151.43 129.72 C 150.94 128.95 149.91 128.72 149.14 129.21 Z M 148.14 129.84 L 147.34 130.49 C 146.63 131.07 146.52 132.12 147.10 132.84 C 147.69 133.55 148.74 133.66 149.45 133.08 L 150.25 132.43 C 150.96 131.85 151.07 130.80 150.49 130.08 C 149.91 129.37 148.86 129.26 148.14 129.84 Z M 147.26 130.55 L 146.50 131.25 C 145.82 131.89 145.78 132.95 146.41 133.63 C 147.04 134.31 148.10 134.35 148.78 133.72 L 149.54 133.02 C 150.22 132.39 150.26 131.32 149.63 130.64 C 149.00 129.96 147.94 129.92 147.26 130.55 Z M 146.43 131.30 L 145.73 132.02 C 145.07 132.68 145.08 133.75 145.75 134.41 C 146.42 135.06 147.49 135.05 148.14 134.39 L 148.84 133.67 C 149.50 133.01 149.49 131.94 148.82 131.28 C 148.16 130.63 147.09 130.63 146.43 131.30 Z M 145.67 132.06 L 145.03 132.77 C 144.40 133.47 144.46 134.55 145.16 135.18 C 145.86 135.81 146.94 135.75 147.57 135.05 L 148.21 134.34 C 148.83 133.64 148.77 132.56 148.07 131.93 C 147.37 131.30 146.29 131.36 145.67 132.06 Z M 144.97 132.82 L 144.35 133.57 C 143.75 134.30 143.85 135.39 144.58 135.99 C 145.32 136.59 146.40 136.49 147.00 135.76 L 147.63 135.00 C 148.23 134.27 148.12 133.19 147.39 132.59 C 146.66 131.98 145.58 132.09 144.97 132.82 Z M 144.30 133.62 L 143.68 134.44 C 143.11 135.20 143.26 136.29 144.02 136.86 C 144.78 137.44 145.87 137.29 146.44 136.52 L 147.06 135.71 C 147.63 134.94 147.48 133.86 146.72 133.28 C 145.96 132.71 144.87 132.86 144.30 133.62 Z M 143.64 134.49 L 143.09 135.27 C 142.54 136.06 142.74 137.14 143.53 137.69 C 144.31 138.24 145.40 138.04 145.94 137.26 L 146.49 136.47 C 147.04 135.69 146.84 134.60 146.05 134.06 C 145.27 133.51 144.18 133.70 143.64 134.49 Z M 143.06 135.31 L 142.50 136.17 C 141.97 136.97 142.20 138.05 143.00 138.58 C 143.80 139.10 144.88 138.88 145.41 138.08 L 145.97 137.22 C 146.50 136.42 146.28 135.34 145.47 134.81 C 144.67 134.28 143.59 134.51 143.06 135.31 Z M 142.48 136.19 L 141.95 137.03 C 141.44 137.84 141.68 138.92 142.50 139.43 C 143.31 139.95 144.39 139.70 144.90 138.89 L 145.43 138.05 C 145.94 137.24 145.70 136.16 144.89 135.65 C 144.07 135.13 142.99 135.38 142.48 136.19 Z M 141.93 137.05 L 141.43 137.88 C 140.93 138.71 141.19 139.78 142.02 140.28 C 142.85 140.78 143.92 140.52 144.42 139.69 L 144.92 138.86 C 145.42 138.04 145.16 136.96 144.33 136.46 C 143.51 135.96 142.43 136.23 141.93 137.05 Z M 141.40 137.92 L 140.89 138.81 C 140.41 139.65 140.70 140.73 141.54 141.21 C 142.38 141.69 143.45 141.40 143.93 140.56 L 144.45 139.66 C 144.93 138.82 144.64 137.75 143.80 137.27 C 142.96 136.78 141.89 137.08 141.40 137.92 Z M 140.86 138.85 L 140.40 139.72 C 139.94 140.57 140.26 141.64 141.11 142.10 C 141.97 142.56 143.04 142.24 143.50 141.38 L 143.96 140.52 C 144.42 139.66 144.10 138.60 143.25 138.14 C 142.39 137.68 141.32 138.00 140.86 138.85 Z M 140.37 139.75 L 139.95 140.60 C 139.51 141.47 139.86 142.53 140.73 142.97 C 141.60 143.41 142.66 143.06 143.10 142.19 L 143.52 141.34 C 143.96 140.48 143.61 139.41 142.74 138.97 C 141.87 138.54 140.81 138.88 140.37 139.75 Z M 139.92 140.64 L 139.49 141.55 C 139.07 142.43 139.45 143.48 140.33 143.90 C 141.22 144.32 142.27 143.94 142.69 143.06 L 143.12 142.15 C 143.54 141.27 143.16 140.21 142.28 139.79 C 141.40 139.38 140.34 139.75 139.92 140.64 Z M 139.47 141.59 L 139.03 142.57 C 138.63 143.47 139.04 144.52 139.93 144.91 C 140.83 145.31 141.88 144.90 142.27 144.01 L 142.71 143.02 C 143.11 142.13 142.70 141.08 141.81 140.68 C 140.91 140.29 139.87 140.69 139.47 141.59 Z M 139.01 142.61 L 138.65 143.47 C 138.27 144.38 138.70 145.42 139.61 145.80 C 140.51 146.17 141.56 145.74 141.93 144.84 L 142.29 143.97 C 142.67 143.07 142.24 142.03 141.34 141.65 C 140.43 141.27 139.39 141.70 139.01 142.61 Z M 138.64 143.50 L 138.29 144.37 C 137.93 145.29 138.37 146.32 139.29 146.68 C 140.20 147.05 141.24 146.60 141.60 145.69 L 141.95 144.81 C 142.31 143.90 141.86 142.86 140.95 142.50 C 140.03 142.14 139.00 142.59 138.64 143.50 Z M 138.28 144.39 L 137.93 145.32 C 137.57 146.24 138.04 147.27 138.96 147.62 C 139.88 147.97 140.91 147.51 141.26 146.59 L 141.61 145.66 C 141.96 144.74 141.50 143.71 140.58 143.36 C 139.66 143.01 138.63 143.47 138.28 144.39 Z M 137.92 145.34 L 137.55 146.32 C 137.21 147.24 137.68 148.27 138.61 148.61 C 139.54 148.96 140.56 148.48 140.91 147.56 L 141.27 146.58 C 141.61 145.65 141.14 144.62 140.21 144.28 C 139.29 143.94 138.26 144.41 137.92 145.34 Z M 137.54 146.33 L 137.17 147.37 C 136.84 148.30 137.32 149.32 138.25 149.66 C 139.18 149.99 140.21 149.51 140.54 148.58 L 140.91 147.54 C 141.25 146.61 140.77 145.59 139.84 145.25 C 138.91 144.92 137.88 145.40 137.54 146.33 Z M 137.17 147.38 L 136.85 148.28 C 136.52 149.21 137.01 150.24 137.94 150.57 C 138.88 150.90 139.90 150.41 140.23 149.47 L 140.55 148.57 C 140.88 147.64 140.39 146.61 139.45 146.28 C 138.52 145.95 137.49 146.44 137.17 147.38 Z M 136.84 148.29 L 136.52 149.21 C 136.20 150.15 136.69 151.17 137.63 151.49 C 138.57 151.82 139.59 151.32 139.92 150.39 L 140.23 149.46 C 140.56 148.53 140.06 147.50 139.13 147.18 C 138.19 146.85 137.17 147.35 136.84 148.29 Z M 136.52 149.22 L 136.19 150.17 C 135.88 151.11 136.38 152.13 137.32 152.45 C 138.26 152.77 139.28 152.26 139.60 151.32 L 139.92 150.37 C 140.24 149.43 139.74 148.41 138.80 148.09 C 137.85 147.78 136.83 148.28 136.52 149.22 Z M 136.19 150.18 L 135.87 151.15 C 135.56 152.09 136.07 153.11 137.02 153.42 C 137.96 153.73 138.98 153.22 139.29 152.28 L 139.61 151.31 C 139.92 150.36 139.41 149.35 138.46 149.03 C 137.52 148.72 136.50 149.24 136.19 150.18 Z M 135.86 151.16 L 135.55 152.14 C 135.25 153.09 135.77 154.11 136.72 154.41 C 137.67 154.71 138.68 154.19 138.99 153.24 L 139.30 152.26 C 139.60 151.31 139.08 150.30 138.13 149.99 C 137.18 149.69 136.16 150.21 135.86 151.16 Z M 135.54 152.16 L 135.24 153.14 C 134.94 154.10 135.48 155.11 136.43 155.40 C 137.39 155.69 138.40 155.16 138.69 154.21 L 138.99 153.22 C 139.29 152.27 138.75 151.26 137.80 150.96 C 136.85 150.67 135.83 151.21 135.54 152.16 Z M 135.23 153.16 L 134.94 154.13 C 134.66 155.09 135.21 156.09 136.17 156.38 C 137.12 156.66 138.13 156.11 138.41 155.15 L 138.70 154.19 C 138.98 153.23 138.43 152.22 137.48 151.94 C 136.52 151.66 135.51 152.20 135.23 153.16 Z M 134.94 154.15 L 134.66 155.11 C 134.39 156.07 134.95 157.08 135.91 157.35 C 136.87 157.62 137.87 157.06 138.15 156.10 L 138.42 155.14 C 138.69 154.17 138.13 153.17 137.17 152.90 C 136.21 152.63 135.21 153.18 134.94 154.15 Z M 134.66 155.13 L 134.39 156.09 C 134.13 157.06 134.70 158.06 135.66 158.32 C 136.63 158.58 137.62 158.02 137.89 157.05 L 138.15 156.08 C 138.42 155.12 137.85 154.12 136.88 153.86 C 135.92 153.59 134.92 154.16 134.66 155.13 Z M 134.39 156.11 L 134.13 157.08 C 133.88 158.04 134.45 159.04 135.42 159.29 C 136.39 159.55 137.39 158.97 137.64 158.00 L 137.89 157.03 C 138.15 156.07 137.57 155.07 136.60 154.82 C 135.63 154.56 134.64 155.14 134.39 156.11 Z M 134.13 157.09 L 133.88 158.05 C 133.63 159.03 134.22 160.02 135.19 160.26 C 136.16 160.51 137.15 159.92 137.40 158.95 L 137.65 157.99 C 137.89 157.01 137.31 156.02 136.33 155.78 C 135.36 155.53 134.37 156.12 134.13 157.09 Z M 133.87 158.07 L 133.64 159.03 C 133.40 160.01 133.99 160.99 134.97 161.23 C 135.94 161.47 136.93 160.88 137.17 159.90 L 137.41 158.94 C 137.65 157.96 137.05 156.98 136.08 156.74 C 135.10 156.50 134.12 157.09 133.87 158.07 Z M 133.63 159.04 L 133.40 160.01 C 133.17 160.99 133.77 161.97 134.75 162.20 C 135.72 162.44 136.71 161.84 136.94 160.86 L 137.17 159.89 C 137.41 158.91 136.80 157.93 135.83 157.70 C 134.85 157.46 133.87 158.07 133.63 159.04 Z M 133.39 160.02 L 133.17 160.99 C 132.94 161.97 133.55 162.95 134.53 163.18 C 135.51 163.41 136.49 162.80 136.72 161.82 L 136.95 160.85 C 137.17 159.87 136.56 158.89 135.58 158.66 C 134.60 158.43 133.62 159.04 133.39 160.02 Z M 133.16 161.00 L 132.95 161.97 C 132.73 162.96 133.34 163.93 134.33 164.15 C 135.31 164.37 136.29 163.76 136.51 162.77 L 136.72 161.80 C 136.95 160.82 136.33 159.84 135.34 159.62 C 134.36 159.40 133.39 160.02 133.16 161.00 Z M 132.94 161.99 L 132.73 162.96 C 132.52 163.95 133.14 164.92 134.13 165.14 C 135.12 165.35 136.09 164.72 136.30 163.74 L 136.51 162.76 C 136.72 161.77 136.10 160.80 135.11 160.59 C 134.13 160.38 133.15 161.00 132.94 161.99 Z M 132.73 162.98 L 132.52 163.96 C 132.32 164.95 132.95 165.92 133.94 166.12 C 134.93 166.33 135.90 165.69 136.10 164.70 L 136.31 163.72 C 136.51 162.73 135.87 161.76 134.89 161.56 C 133.90 161.36 132.93 161.99 132.73 162.98 Z M 132.52 163.98 L 132.32 164.97 C 132.13 165.96 132.77 166.93 133.76 167.12 C 134.75 167.32 135.72 166.67 135.91 165.68 L 136.11 164.69 C 136.30 163.70 135.66 162.73 134.67 162.54 C 133.67 162.34 132.71 162.99 132.52 163.98 Z M 132.32 164.99 L 132.13 165.96 C 131.95 166.96 132.60 167.91 133.60 168.10 C 134.59 168.29 135.55 167.63 135.73 166.64 L 135.92 165.66 C 136.10 164.67 135.45 163.71 134.45 163.52 C 133.46 163.34 132.50 163.99 132.32 164.99 Z M 132.13 165.98 L 131.96 166.96 C 131.78 167.95 132.44 168.91 133.44 169.08 C 134.44 169.26 135.39 168.60 135.57 167.60 L 135.74 166.62 C 135.92 165.62 135.25 164.67 134.25 164.49 C 133.26 164.32 132.31 164.98 132.13 165.98 Z M 131.95 166.98 L 131.79 167.96 C 131.62 168.96 132.29 169.91 133.29 170.07 C 134.29 170.24 135.24 169.57 135.41 168.57 L 135.57 167.58 C 135.74 166.58 135.06 165.63 134.06 165.47 C 133.06 165.30 132.12 165.98 131.95 166.98 Z M 131.78 167.98 L 131.63 168.97 C 131.47 169.97 132.15 170.91 133.16 171.07 C 134.16 171.23 135.10 170.54 135.26 169.54 L 135.41 168.55 C 135.57 167.54 134.88 166.61 133.88 166.45 C 132.88 166.29 131.94 166.98 131.78 167.98 Z M 131.62 168.99 L 131.48 169.99 C 131.33 170.99 132.03 171.92 133.03 172.07 C 134.04 172.22 134.97 171.52 135.12 170.51 L 135.26 169.52 C 135.41 168.51 134.71 167.58 133.71 167.43 C 132.70 167.29 131.77 167.99 131.62 168.99 Z M 131.47 170.01 L 131.34 171.00 C 131.20 172.01 131.91 172.94 132.92 173.07 C 133.93 173.21 134.85 172.50 134.99 171.49 L 135.12 170.49 C 135.26 169.49 134.55 168.56 133.54 168.43 C 132.53 168.29 131.61 169.00 131.47 170.01 Z M 131.33 171.02 L 131.21 172.03 C 131.09 173.04 131.81 173.95 132.82 174.08 C 133.83 174.20 134.75 173.48 134.87 172.47 L 134.99 171.47 C 135.11 170.46 134.40 169.54 133.39 169.42 C 132.38 169.30 131.46 170.01 131.33 171.02 Z M 131.21 172.05 L 131.10 173.05 C 130.99 174.06 131.72 174.97 132.73 175.08 C 133.74 175.19 134.65 174.46 134.77 173.45 L 134.87 172.45 C 134.99 171.44 134.26 170.53 133.24 170.41 C 132.23 170.30 131.32 171.03 131.21 172.05 Z M 131.09 173.07 L 131.00 174.07 C 130.90 175.09 131.64 175.99 132.65 176.09 C 133.67 176.19 134.57 175.44 134.67 174.43 L 134.77 173.43 C 134.87 172.41 134.13 171.51 133.11 171.41 C 132.10 171.31 131.19 172.05 131.09 173.07 Z M 130.99 174.09 L 130.91 175.09 C 130.82 176.11 131.57 177.00 132.59 177.09 C 133.61 177.18 134.50 176.42 134.59 175.41 L 134.68 174.41 C 134.76 173.39 134.01 172.50 132.99 172.41 C 131.97 172.32 131.08 173.07 130.99 174.09 Z M 130.90 175.11 L 130.83 176.10 C 130.75 177.12 131.52 178.01 132.54 178.09 C 133.56 178.16 134.44 177.40 134.52 176.38 L 134.59 175.39 C 134.67 174.37 133.91 173.48 132.89 173.40 C 131.87 173.33 130.98 174.09 130.90 175.11 Z M 130.82 176.13 L 130.76 177.11 C 130.70 178.14 131.47 179.02 132.49 179.08 C 133.52 179.15 134.40 178.37 134.46 177.35 L 134.52 176.36 C 134.59 175.34 133.81 174.46 132.79 174.39 C 131.77 174.33 130.89 175.10 130.82 176.13 Z M 130.76 177.14 L 130.71 178.13 C 130.65 179.16 131.44 180.03 132.46 180.08 C 133.49 180.14 134.36 179.35 134.41 178.33 L 134.46 177.33 C 134.52 176.30 133.73 175.43 132.71 175.38 C 131.68 175.32 130.81 176.11 130.76 177.14 Z M 130.70 178.15 L 130.66 179.16 C 130.62 180.19 131.42 181.06 132.44 181.10 C 133.47 181.14 134.33 180.34 134.38 179.32 L 134.42 178.30 C 134.46 177.28 133.66 176.41 132.64 176.37 C 131.61 176.33 130.74 177.13 130.70 178.15 Z M 130.66 179.18 L 130.63 180.19 C 130.59 181.22 131.40 182.07 132.43 182.11 C 133.46 182.14 134.32 181.33 134.35 180.30 L 134.38 179.30 C 134.41 178.27 133.60 177.41 132.58 177.38 C 131.55 177.35 130.69 178.16 130.66 179.18 Z M 130.62 180.20 L 130.60 181.20 C 130.58 182.23 131.39 183.09 132.42 183.11 C 133.45 183.13 134.30 182.32 134.33 181.29 L 134.35 180.29 C 134.37 179.26 133.56 178.41 132.53 178.38 C 131.50 178.36 130.65 179.17 130.62 180.20 Z M 130.60 181.21 L 130.58 182.21 C 130.56 183.24 131.39 184.09 132.42 184.11 C 133.45 184.12 134.30 183.30 134.31 182.27 L 134.33 181.28 C 134.35 180.25 133.53 179.40 132.49 179.38 C 131.46 179.36 130.61 180.18 130.60 181.21 Z M 130.58 182.22 L 130.57 183.21 C 130.55 184.24 131.38 185.09 132.42 185.10 C 133.45 185.11 134.29 184.28 134.31 183.25 L 134.32 182.26 C 134.33 181.23 133.50 180.38 132.47 180.37 C 131.44 180.36 130.59 181.19 130.58 182.22 Z M 130.56 183.21 L 130.56 184.23 C 130.55 185.27 131.38 186.11 132.41 186.12 C 133.45 186.13 134.29 185.30 134.30 184.26 L 134.31 183.24 C 134.32 182.21 133.48 181.36 132.45 181.36 C 131.42 181.35 130.57 182.18 130.56 183.21 Z M 130.55 184.24 L 130.55 185.31 C 130.55 186.35 131.38 187.19 132.42 187.19 C 133.46 187.19 134.30 186.36 134.30 185.32 L 134.30 184.25 C 134.31 183.22 133.47 182.38 132.43 182.37 C 131.40 182.37 130.56 183.21 130.55 184.24 Z M 130.55 185.33 L 130.55 186.38 C 130.56 187.41 131.41 188.25 132.45 188.24 C 133.49 188.23 134.32 187.38 134.31 186.35 L 134.30 185.30 C 134.30 184.26 133.45 183.43 132.41 183.44 C 131.37 183.45 130.54 184.29 130.55 185.33 Z M 130.55 186.41 L 130.58 187.42 C 130.60 188.46 131.47 189.28 132.51 189.25 C 133.55 189.23 134.37 188.36 134.34 187.32 L 134.32 186.31 C 134.29 185.27 133.43 184.45 132.39 184.48 C 131.35 184.51 130.53 185.37 130.55 186.41 Z M 130.58 187.47 L 130.62 188.43 C 130.68 189.47 131.56 190.27 132.60 190.21 C 133.64 190.16 134.44 189.28 134.39 188.24 L 134.34 187.28 C 134.29 186.24 133.40 185.43 132.36 185.49 C 131.32 185.54 130.52 186.43 130.58 187.47 Z M 130.63 188.49 L 130.70 189.39 C 130.79 190.43 131.71 191.20 132.75 191.11 C 133.79 191.02 134.56 190.11 134.47 189.07 L 134.39 188.17 C 134.30 187.13 133.38 186.36 132.35 186.45 C 131.31 186.54 130.54 187.45 130.63 188.49 Z M 130.71 189.50 L 130.87 190.59 C 131.02 191.62 131.98 192.34 133.01 192.19 C 134.05 192.04 134.76 191.08 134.61 190.05 L 134.46 188.96 C 134.31 187.93 133.35 187.21 132.32 187.36 C 131.28 187.51 130.56 188.47 130.71 189.50 Z M 130.89 190.73 L 131.12 191.74 C 131.34 192.76 132.36 193.40 133.38 193.18 C 134.40 192.95 135.04 191.94 134.81 190.92 L 134.59 189.91 C 134.36 188.89 133.35 188.25 132.33 188.47 C 131.31 188.70 130.67 189.71 130.89 190.73 Z M 131.15 191.88 L 131.44 192.80 C 131.74 193.80 132.80 194.36 133.80 194.05 C 134.80 193.74 135.36 192.68 135.06 191.68 L 134.78 190.77 C 134.47 189.77 133.41 189.21 132.41 189.52 C 131.41 189.82 130.85 190.88 131.15 191.88 Z M 131.48 192.93 L 131.81 193.78 C 132.19 194.75 133.29 195.23 134.27 194.85 C 135.24 194.47 135.72 193.37 135.34 192.39 L 135.01 191.55 C 134.63 190.57 133.53 190.09 132.55 190.48 C 131.58 190.86 131.10 191.96 131.48 192.93 Z M 131.86 193.90 L 132.29 194.81 C 132.74 195.75 133.88 196.15 134.82 195.70 C 135.77 195.25 136.17 194.12 135.72 193.18 L 135.29 192.27 C 134.84 191.32 133.71 190.92 132.76 191.37 C 131.82 191.82 131.41 192.95 131.86 193.90 Z M 132.35 194.92 L 132.85 195.79 C 133.36 196.71 134.52 197.03 135.43 196.52 C 136.35 196.00 136.67 194.84 136.15 193.93 L 135.66 193.06 C 135.15 192.14 133.99 191.82 133.07 192.34 C 132.16 192.85 131.84 194.01 132.35 194.92 Z M 132.91 195.90 L 133.45 196.73 C 134.03 197.61 135.20 197.86 136.08 197.28 C 136.96 196.71 137.21 195.53 136.63 194.65 L 136.09 193.82 C 135.52 192.94 134.34 192.70 133.46 193.27 C 132.58 193.85 132.33 195.02 132.91 195.90 Z M 133.51 196.82 L 134.10 197.62 C 134.73 198.46 135.92 198.64 136.76 198.01 C 137.61 197.39 137.78 196.20 137.16 195.35 L 136.57 194.56 C 135.94 193.71 134.75 193.54 133.91 194.16 C 133.07 194.79 132.89 195.98 133.51 196.82 Z M 134.17 197.70 L 134.80 198.47 C 135.47 199.27 136.67 199.39 137.48 198.72 C 138.29 198.05 138.40 196.85 137.73 196.04 L 137.10 195.27 C 136.43 194.46 135.23 194.35 134.42 195.02 C 133.61 195.69 133.50 196.89 134.17 197.70 Z M 134.86 198.53 L 135.53 199.27 C 136.24 200.05 137.45 200.10 138.22 199.40 C 139.00 198.69 139.05 197.48 138.35 196.71 L 137.67 195.97 C 136.96 195.19 135.76 195.14 134.98 195.85 C 134.21 196.55 134.15 197.76 134.86 198.53 Z M 135.59 199.33 L 136.30 200.05 C 137.04 200.79 138.25 200.80 138.99 200.06 C 139.74 199.32 139.74 198.11 139.00 197.37 L 138.29 196.65 C 137.55 195.90 136.35 195.90 135.60 196.64 C 134.85 197.38 134.85 198.59 135.59 199.33 Z M 136.35 200.10 L 137.08 200.78 C 137.84 201.49 139.05 201.45 139.77 200.69 C 140.49 199.92 140.45 198.72 139.68 198.00 L 138.95 197.32 C 138.18 196.60 136.98 196.64 136.26 197.41 C 135.54 198.17 135.58 199.38 136.35 200.10 Z M 137.13 200.82 L 137.88 201.48 C 138.67 202.17 139.88 202.09 140.57 201.30 C 141.26 200.50 141.17 199.30 140.38 198.61 L 139.63 197.95 C 138.84 197.26 137.63 197.34 136.94 198.14 C 136.25 198.93 136.33 200.13 137.13 200.82 Z M 137.93 201.52 L 138.71 202.15 C 139.53 202.82 140.73 202.69 141.39 201.88 C 142.05 201.06 141.93 199.86 141.11 199.20 L 140.33 198.57 C 139.51 197.90 138.32 198.03 137.65 198.84 C 136.99 199.66 137.12 200.86 137.93 201.52 Z M 138.76 202.20 L 139.56 202.80 C 140.40 203.43 141.59 203.26 142.23 202.42 C 142.86 201.58 142.69 200.39 141.85 199.76 L 141.06 199.16 C 140.22 198.52 139.02 198.69 138.39 199.53 C 137.76 200.37 137.92 201.56 138.76 202.20 Z M 139.61 202.84 L 140.43 203.41 C 141.29 204.01 142.48 203.80 143.08 202.94 C 143.68 202.08 143.47 200.90 142.61 200.29 L 141.80 199.72 C 140.94 199.12 139.75 199.32 139.15 200.18 C 138.55 201.04 138.75 202.23 139.61 202.84 Z M 140.48 203.44 L 141.31 203.99 C 142.19 204.56 143.37 204.32 143.95 203.44 C 144.52 202.56 144.28 201.38 143.40 200.81 L 142.57 200.26 C 141.69 199.68 140.51 199.93 139.93 200.81 C 139.35 201.68 139.60 202.86 140.48 203.44 Z M 141.36 204.02 L 142.22 204.54 C 143.11 205.10 144.28 204.82 144.83 203.93 C 145.38 203.03 145.11 201.86 144.21 201.31 L 143.36 200.78 C 142.46 200.23 141.29 200.50 140.74 201.40 C 140.19 202.29 140.46 203.46 141.36 204.02 Z M 142.26 204.57 L 143.15 205.09 C 144.05 205.61 145.22 205.31 145.74 204.40 C 146.27 203.49 145.97 202.33 145.06 201.80 L 144.17 201.28 C 143.26 200.76 142.10 201.06 141.57 201.97 C 141.04 202.88 141.35 204.04 142.26 204.57 Z M 143.21 205.12 L 144.10 205.60 C 145.03 206.09 146.18 205.74 146.67 204.82 C 147.17 203.89 146.82 202.74 145.90 202.25 L 145.00 201.77 C 144.07 201.27 142.92 201.62 142.43 202.55 C 141.93 203.47 142.28 204.62 143.21 205.12 Z M 144.19 205.64 L 145.08 206.06 C 146.03 206.51 147.16 206.10 147.61 205.15 C 148.05 204.20 147.65 203.07 146.70 202.62 L 145.81 202.21 C 144.86 201.76 143.73 202.17 143.28 203.12 C 142.84 204.06 143.24 205.20 144.19 205.64 Z M 145.22 206.11 L 146.15 206.47 C 147.13 206.84 148.22 206.35 148.59 205.37 C 148.97 204.39 148.48 203.30 147.50 202.92 L 146.57 202.57 C 145.59 202.20 144.49 202.69 144.12 203.67 C 143.75 204.65 144.24 205.74 145.22 206.11 Z M 146.32 206.52 L 147.29 206.79 C 148.30 207.07 149.35 206.48 149.62 205.47 C 149.90 204.46 149.31 203.42 148.30 203.14 L 147.32 202.87 C 146.32 202.59 145.27 203.18 144.99 204.19 C 144.72 205.20 145.31 206.25 146.32 206.52 Z M 147.46 206.83 L 148.42 207.00 C 149.45 207.19 150.43 206.51 150.62 205.48 C 150.81 204.45 150.13 203.47 149.10 203.28 L 148.14 203.10 C 147.11 202.92 146.12 203.60 145.93 204.63 C 145.75 205.66 146.43 206.64 147.46 206.83 Z M 148.55 207.02 L 149.52 207.13 C 150.56 207.24 151.49 206.49 151.61 205.45 C 151.72 204.42 150.97 203.48 149.93 203.37 L 148.97 203.26 C 147.93 203.15 146.99 203.90 146.88 204.93 C 146.77 205.97 147.51 206.91 148.55 207.02 Z M 149.62 207.13 L 150.61 207.19 C 151.65 207.24 152.54 206.45 152.60 205.41 C 152.65 204.37 151.86 203.48 150.82 203.42 L 149.83 203.36 C 148.79 203.31 147.90 204.10 147.84 205.14 C 147.79 206.18 148.58 207.07 149.62 207.13 Z M 150.70 207.18 L 151.71 207.19 C 152.74 207.20 153.59 206.36 153.60 205.32 C 153.61 204.28 152.77 203.44 151.73 203.43 L 150.73 203.42 C 149.69 203.41 148.84 204.25 148.83 205.29 C 148.82 206.33 149.66 207.18 150.70 207.18 Z M 151.78 207.19 L 152.78 207.15 C 153.82 207.12 154.63 206.25 154.59 205.21 C 154.56 204.18 153.69 203.36 152.65 203.40 L 151.66 203.43 C 150.62 203.47 149.81 204.34 149.84 205.37 C 149.88 206.41 150.75 207.22 151.78 207.19 Z M 152.87 207.14 L 153.84 207.06 C 154.87 206.98 155.64 206.08 155.55 205.05 C 155.47 204.02 154.57 203.25 153.54 203.33 L 152.57 203.41 C 151.54 203.49 150.77 204.39 150.85 205.43 C 150.93 206.46 151.83 207.22 152.87 207.14 Z M 153.96 207.05 L 154.96 206.90 C 155.98 206.75 156.68 205.80 156.53 204.78 C 156.38 203.76 155.43 203.05 154.41 203.20 L 153.41 203.35 C 152.39 203.50 151.69 204.45 151.84 205.47 C 151.99 206.49 152.94 207.20 153.96 207.05 Z M 155.11 206.86 L 156.11 206.63 C 157.11 206.39 157.73 205.39 157.49 204.38 C 157.25 203.38 156.25 202.76 155.25 203.00 L 154.25 203.24 C 153.25 203.48 152.63 204.48 152.87 205.48 C 153.11 206.48 154.11 207.10 155.11 206.86 Z M 156.26 206.58 L 157.16 206.28 C 158.13 205.96 158.66 204.91 158.34 203.93 C 158.01 202.96 156.96 202.43 155.99 202.75 L 155.09 203.05 C 154.12 203.37 153.59 204.43 153.92 205.40 C 154.24 206.37 155.29 206.90 156.26 206.58 Z M 157.28 206.23 L 158.19 205.86 C 159.14 205.47 159.59 204.38 159.20 203.44 C 158.81 202.49 157.72 202.04 156.78 202.43 L 155.86 202.80 C 154.92 203.19 154.47 204.28 154.86 205.22 C 155.25 206.17 156.33 206.62 157.28 206.23 Z M 158.28 205.81 L 159.22 205.36 C 160.14 204.92 160.52 203.81 160.08 202.89 C 159.64 201.97 158.53 201.58 157.61 202.03 L 156.68 202.48 C 155.76 202.92 155.37 204.02 155.81 204.94 C 156.26 205.87 157.36 206.25 158.28 205.81 Z M 159.29 205.32 L 160.19 204.84 C 161.09 204.35 161.42 203.23 160.94 202.34 C 160.46 201.44 159.34 201.10 158.44 201.58 L 157.54 202.07 C 156.64 202.55 156.31 203.67 156.79 204.57 C 157.27 205.47 158.39 205.80 159.29 205.32 Z M 160.24 204.80 L 161.05 204.33 C 161.93 203.82 162.23 202.69 161.72 201.81 C 161.21 200.93 160.08 200.63 159.20 201.15 L 158.39 201.62 C 157.51 202.13 157.21 203.25 157.72 204.13 C 158.23 205.01 159.36 205.31 160.24 204.80 Z M 161.09 204.30 L 161.93 203.79 C 162.79 203.26 163.06 202.13 162.53 201.26 C 161.99 200.40 160.86 200.13 160.00 200.66 L 159.16 201.17 C 158.30 201.70 158.03 202.84 158.56 203.70 C 159.09 204.57 160.23 204.83 161.09 204.30 Z M 161.96 203.77 L 162.81 203.21 C 163.67 202.66 163.91 201.53 163.36 200.68 C 162.81 199.83 161.68 199.58 160.83 200.13 L 159.97 200.68 C 159.12 201.23 158.87 202.37 159.42 203.22 C 159.97 204.07 161.10 204.31 161.96 203.77 Z M 162.84 203.19 L 163.72 202.60 C 164.56 202.04 164.79 200.90 164.23 200.06 C 163.66 199.22 162.53 199.00 161.69 199.56 L 160.80 200.15 C 159.96 200.71 159.74 201.85 160.30 202.69 C 160.86 203.53 162.00 203.75 162.84 203.19 Z M 163.74 202.58 L 164.57 202.01 C 165.40 201.44 165.61 200.30 165.03 199.47 C 164.46 198.64 163.32 198.43 162.49 199.01 L 161.67 199.57 C 160.84 200.15 160.63 201.28 161.20 202.12 C 161.77 202.95 162.91 203.16 163.74 202.58 Z M 164.58 202.00 L 165.39 201.43 C 166.22 200.85 166.41 199.71 165.83 198.88 C 165.25 198.06 164.11 197.87 163.29 198.45 L 162.48 199.02 C 161.65 199.60 161.46 200.74 162.04 201.56 C 162.62 202.39 163.76 202.58 164.58 202.00 Z M 165.41 201.41 L 166.23 200.82 C 167.04 200.23 167.22 199.09 166.63 198.28 C 166.04 197.46 164.90 197.28 164.09 197.87 L 163.27 198.46 C 162.46 199.05 162.27 200.19 162.86 201.01 C 163.46 201.82 164.59 202.00 165.41 201.41 Z M 166.24 200.80 L 167.06 200.20 C 167.86 199.60 168.03 198.46 167.43 197.65 C 166.83 196.85 165.69 196.68 164.88 197.28 L 164.07 197.89 C 163.26 198.49 163.10 199.63 163.70 200.43 C 164.30 201.24 165.44 201.41 166.24 200.80 Z M 167.08 200.18 L 167.88 199.57 C 168.67 198.96 168.82 197.82 168.21 197.02 C 167.60 196.22 166.46 196.07 165.66 196.68 L 164.86 197.30 C 164.07 197.91 163.92 199.05 164.53 199.85 C 165.14 200.64 166.28 200.79 167.08 200.18 Z M 167.90 199.55 L 168.70 198.92 C 169.48 198.29 169.61 197.15 168.99 196.36 C 168.37 195.58 167.22 195.45 166.44 196.07 L 165.64 196.70 C 164.86 197.33 164.72 198.47 165.35 199.25 C 165.97 200.04 167.11 200.17 167.90 199.55 Z M 168.72 198.89 L 169.51 198.24 C 170.28 197.61 170.40 196.47 169.76 195.69 C 169.12 194.92 167.98 194.81 167.21 195.44 L 166.42 196.09 C 165.64 196.73 165.53 197.87 166.17 198.65 C 166.80 199.42 167.95 199.53 168.72 198.89 Z M 169.53 198.23 L 170.30 197.58 C 171.06 196.93 171.16 195.78 170.51 195.02 C 169.86 194.26 168.72 194.16 167.95 194.81 L 167.19 195.46 C 166.42 196.11 166.33 197.25 166.98 198.02 C 167.62 198.78 168.77 198.87 169.53 198.23 Z M 170.31 197.56 L 171.06 196.91 C 171.82 196.25 171.89 195.11 171.24 194.35 C 170.58 193.60 169.44 193.52 168.68 194.18 L 167.94 194.83 C 167.18 195.48 167.10 196.63 167.76 197.38 C 168.42 198.14 169.56 198.22 170.31 197.56 Z M 171.07 196.90 L 171.80 196.25 C 172.55 195.58 172.62 194.44 171.95 193.69 C 171.29 192.94 170.15 192.88 169.40 193.54 L 168.67 194.19 C 167.92 194.85 167.85 196.00 168.52 196.75 C 169.18 197.49 170.33 197.56 171.07 196.90 Z M 171.81 196.24 L 172.55 195.57 C 173.29 194.90 173.35 193.76 172.68 193.02 C 172.01 192.27 170.87 192.22 170.13 192.89 L 169.39 193.55 C 168.65 194.22 168.59 195.36 169.26 196.11 C 169.93 196.85 171.07 196.91 171.81 196.24 Z M 172.56 195.57 L 173.31 194.88 C 174.05 194.21 174.10 193.06 173.42 192.33 C 172.75 191.59 171.60 191.54 170.86 192.21 L 170.12 192.89 C 169.38 193.57 169.33 194.71 170.00 195.45 C 170.68 196.19 171.82 196.24 172.56 195.57 Z M 173.32 194.88 L 174.05 194.20 C 174.79 193.51 174.83 192.37 174.15 191.63 C 173.47 190.90 172.32 190.86 171.59 191.54 L 170.85 192.22 C 170.12 192.90 170.07 194.05 170.76 194.78 C 171.44 195.51 172.58 195.56 173.32 194.88 Z M 174.06 194.19 L 174.79 193.51 C 175.52 192.82 175.55 191.67 174.87 190.94 C 174.18 190.21 173.03 190.18 172.30 190.86 L 171.58 191.54 C 170.85 192.23 170.81 193.38 171.50 194.11 C 172.18 194.84 173.33 194.87 174.06 194.19 Z M 174.80 193.50 L 175.51 192.82 C 176.24 192.12 176.26 190.97 175.57 190.25 C 174.88 189.52 173.73 189.50 173.01 190.19 L 172.29 190.87 C 171.57 191.56 171.54 192.71 172.23 193.44 C 172.92 194.16 174.07 194.19 174.80 193.50 Z M 175.52 192.81 L 176.25 192.10 C 176.97 191.40 176.99 190.25 176.29 189.53 C 175.59 188.81 174.44 188.80 173.72 189.50 L 172.99 190.20 C 172.27 190.90 172.26 192.05 172.96 192.77 C 173.65 193.49 174.80 193.50 175.52 192.81 Z M 176.26 192.09 L 176.98 191.38 C 177.69 190.67 177.70 189.52 176.99 188.81 C 176.29 188.10 175.14 188.09 174.42 188.80 L 173.71 189.51 C 172.99 190.21 172.99 191.36 173.69 192.08 C 174.40 192.79 175.55 192.80 176.26 192.09 Z M 177.00 191.36 L 177.70 190.65 C 178.40 189.93 178.39 188.78 177.68 188.08 C 176.96 187.38 175.81 187.38 175.11 188.10 L 174.41 188.81 C 173.70 189.53 173.71 190.68 174.43 191.38 C 175.14 192.09 176.29 192.08 177.00 191.36 Z M 177.72 190.63 L 178.40 189.91 C 179.10 189.19 179.07 188.04 178.35 187.35 C 177.62 186.65 176.47 186.68 175.78 187.40 L 175.09 188.12 C 174.40 188.84 174.42 189.99 175.15 190.69 C 175.87 191.38 177.02 191.36 177.72 190.63 Z M 178.42 189.89 L 179.10 189.17 C 179.78 188.43 179.73 187.28 179.00 186.60 C 178.26 185.92 177.11 185.96 176.43 186.70 L 175.75 187.42 C 175.07 188.16 175.12 189.31 175.85 189.99 C 176.59 190.67 177.74 190.63 178.42 189.89 Z M 179.12 189.14 L 179.80 188.38 C 180.47 187.63 180.40 186.48 179.65 185.81 C 178.90 185.14 177.75 185.21 177.08 185.96 L 176.40 186.72 C 175.74 187.47 175.80 188.62 176.55 189.29 C 177.30 189.96 178.45 189.89 179.12 189.14 Z M 179.82 188.35 L 180.48 187.58 C 181.13 186.82 181.04 185.67 180.28 185.02 C 179.52 184.37 178.37 184.46 177.71 185.22 L 177.06 185.99 C 176.41 186.75 176.50 187.90 177.26 188.55 C 178.02 189.20 179.17 189.11 179.82 188.35 Z M 180.50 187.56 L 181.13 186.79 C 181.77 186.02 181.66 184.87 180.88 184.23 C 180.11 183.59 178.96 183.70 178.32 184.48 L 177.69 185.25 C 177.05 186.02 177.16 187.17 177.94 187.81 C 178.72 188.44 179.86 188.33 180.50 187.56 Z M 181.15 186.77 L 181.76 186.00 C 182.38 185.22 182.25 184.07 181.46 183.45 C 180.67 182.82 179.53 182.96 178.91 183.74 L 178.30 184.51 C 177.68 185.29 177.81 186.44 178.60 187.06 C 179.38 187.69 180.53 187.55 181.15 186.77 Z M 181.78 185.98 L 182.39 185.18 C 183.00 184.38 182.84 183.23 182.04 182.62 C 181.24 182.02 180.10 182.17 179.49 182.97 L 178.88 183.77 C 178.27 184.57 178.43 185.71 179.23 186.32 C 180.03 186.93 181.17 186.78 181.78 185.98 Z M 182.42 185.15 L 183.00 184.34 C 183.60 183.52 183.41 182.38 182.60 181.79 C 181.78 181.20 180.64 181.38 180.05 182.19 L 179.46 183.00 C 178.87 183.82 179.05 184.96 179.87 185.55 C 180.68 186.14 181.82 185.96 182.42 185.15 Z M 183.03 184.30 L 183.60 183.48 C 184.17 182.65 183.96 181.51 183.13 180.94 C 182.29 180.37 181.15 180.58 180.58 181.41 L 180.02 182.23 C 179.45 183.06 179.66 184.20 180.49 184.78 C 181.32 185.35 182.46 185.14 183.03 184.30 Z M 183.63 183.44 L 184.17 182.60 C 184.72 181.75 184.48 180.61 183.63 180.07 C 182.77 179.52 181.64 179.76 181.09 180.61 L 180.55 181.45 C 180.00 182.31 180.24 183.44 181.10 183.99 C 181.95 184.54 183.08 184.29 183.63 183.44 Z M 184.21 182.55 L 184.74 181.67 C 185.26 180.80 184.98 179.68 184.11 179.15 C 183.24 178.63 182.11 178.91 181.59 179.78 L 181.06 180.66 C 180.53 181.53 180.81 182.66 181.68 183.18 C 182.55 183.70 183.68 183.42 184.21 182.55 Z M 184.77 181.62 L 185.27 180.73 C 185.76 179.84 185.45 178.72 184.56 178.22 C 183.67 177.73 182.55 178.04 182.06 178.93 L 181.56 179.83 C 181.06 180.72 181.38 181.84 182.26 182.33 C 183.15 182.83 184.27 182.51 184.77 181.62 Z M 185.30 180.67 L 185.76 179.78 C 186.23 178.88 185.87 177.77 184.97 177.30 C 184.07 176.83 182.96 177.19 182.49 178.09 L 182.03 178.98 C 181.56 179.89 181.91 181.00 182.82 181.46 C 183.72 181.93 184.83 181.58 185.30 180.67 Z M 185.79 179.72 L 186.20 178.86 C 186.63 177.94 186.24 176.84 185.32 176.41 C 184.40 175.97 183.30 176.37 182.87 177.29 L 182.46 178.15 C 182.02 179.07 182.42 180.17 183.34 180.60 C 184.26 181.04 185.36 180.64 185.79 179.72 Z M 186.24 178.78 L 186.64 177.81 C 187.03 176.87 186.58 175.79 185.64 175.40 C 184.70 175.01 183.62 175.46 183.23 176.40 L 182.83 177.37 C 182.44 178.31 182.88 179.39 183.83 179.78 C 184.77 180.17 185.85 179.72 186.24 178.78 Z M 186.68 177.71 L 187.01 176.76 C 187.34 175.80 186.84 174.75 185.87 174.41 C 184.91 174.08 183.86 174.59 183.52 175.55 L 183.19 176.50 C 182.86 177.46 183.36 178.51 184.33 178.85 C 185.29 179.18 186.34 178.67 186.68 177.71 Z M 187.04 176.66 L 187.31 175.74 C 187.58 174.76 187.01 173.73 186.03 173.46 C 185.05 173.18 184.02 173.75 183.75 174.73 L 183.49 175.65 C 183.21 176.64 183.78 177.66 184.76 177.94 C 185.74 178.21 186.77 177.64 187.04 176.66 Z M 187.33 175.64 L 187.55 174.69 C 187.77 173.69 187.15 172.70 186.15 172.47 C 185.15 172.25 184.16 172.88 183.94 173.87 L 183.72 174.83 C 183.49 175.83 184.12 176.82 185.12 177.04 C 186.12 177.27 187.11 176.64 187.33 175.64 Z M 187.57 174.60 L 187.74 173.61 C 187.92 172.60 187.24 171.64 186.23 171.46 C 185.22 171.29 184.26 171.96 184.09 172.97 L 183.91 173.96 C 183.74 174.97 184.41 175.93 185.42 176.11 C 186.43 176.28 187.39 175.61 187.57 174.60 Z M 187.76 173.52 L 187.88 172.53 C 188.01 171.51 187.29 170.59 186.27 170.46 C 185.25 170.33 184.32 171.05 184.20 172.07 L 184.07 173.06 C 183.94 174.08 184.67 175.01 185.68 175.13 C 186.70 175.26 187.63 174.54 187.76 173.52 Z M 187.89 172.44 L 187.97 171.44 C 188.05 170.42 187.28 169.52 186.26 169.44 C 185.23 169.37 184.34 170.13 184.26 171.16 L 184.18 172.16 C 184.11 173.18 184.87 174.08 185.90 174.15 C 186.92 174.23 187.81 173.47 187.89 172.44 Z M 187.97 171.36 L 188.01 170.35 C 188.04 169.32 187.23 168.46 186.21 168.43 C 185.18 168.40 184.32 169.20 184.29 170.23 L 184.26 171.24 C 184.22 172.27 185.03 173.13 186.06 173.16 C 187.08 173.19 187.94 172.38 187.97 171.36 Z M 188.01 170.28 L 188.00 169.29 C 188.00 168.26 187.16 167.43 186.14 167.44 C 185.11 167.44 184.28 168.28 184.28 169.31 L 184.29 170.29 C 184.29 171.32 185.13 172.15 186.15 172.15 C 187.18 172.15 188.01 171.31 188.01 170.28 Z M 188.01 169.25 L 187.98 168.25 C 187.95 167.22 187.09 166.41 186.06 166.44 C 185.03 166.47 184.22 167.33 184.25 168.36 L 184.28 169.35 C 184.31 170.38 185.17 171.19 186.20 171.16 C 187.23 171.13 188.04 170.27 188.01 169.25 Z M 187.98 168.17 L 187.91 167.17 C 187.83 166.14 186.94 165.37 185.92 165.44 C 184.89 165.51 184.11 166.40 184.18 167.43 L 184.25 168.43 C 184.32 169.46 185.22 170.23 186.24 170.16 C 187.27 170.09 188.05 169.20 187.98 168.17 Z M 187.89 167.03 L 187.75 166.05 C 187.60 165.03 186.65 164.32 185.63 164.47 C 184.61 164.62 183.90 165.57 184.05 166.59 L 184.19 167.57 C 184.34 168.59 185.29 169.30 186.32 169.15 C 187.34 169.00 188.04 168.05 187.89 167.03 Z M 187.72 165.87 L 187.48 164.94 C 187.23 163.94 186.21 163.33 185.21 163.58 C 184.21 163.83 183.60 164.85 183.85 165.85 L 184.09 166.78 C 184.34 167.78 185.36 168.39 186.36 168.14 C 187.36 167.89 187.97 166.87 187.72 165.87 Z M 187.44 164.79 L 187.12 163.86 C 186.79 162.88 185.72 162.36 184.74 162.69 C 183.77 163.02 183.24 164.09 183.58 165.07 L 183.90 166.00 C 184.23 166.98 185.29 167.50 186.27 167.17 C 187.25 166.83 187.77 165.77 187.44 164.79 Z M 187.09 163.78 L 186.71 162.80 C 186.33 161.84 185.24 161.36 184.28 161.74 C 183.32 162.12 182.84 163.21 183.22 164.17 L 183.61 165.15 C 183.98 166.11 185.07 166.58 186.03 166.21 C 187.00 165.83 187.47 164.74 187.09 163.78 Z M 186.70 162.77 L 186.32 161.87 C 185.93 160.92 184.83 160.46 183.88 160.86 C 182.92 161.25 182.47 162.35 182.86 163.30 L 183.23 164.20 C 183.63 165.16 184.73 165.61 185.68 165.22 C 186.64 164.82 187.09 163.73 186.70 162.77 Z M 186.31 161.84 L 185.91 160.92 C 185.50 159.97 184.40 159.54 183.45 159.95 C 182.50 160.36 182.06 161.46 182.48 162.41 L 182.88 163.33 C 183.29 164.28 184.39 164.72 185.34 164.31 C 186.29 163.89 186.72 162.79 186.31 161.84 Z M 185.89 160.87 L 185.46 159.95 C 185.02 159.01 183.91 158.61 182.97 159.04 C 182.03 159.48 181.63 160.59 182.06 161.53 L 182.50 162.46 C 182.93 163.39 184.05 163.80 184.98 163.36 C 185.92 162.93 186.33 161.81 185.89 160.87 Z M 185.43 159.89 L 184.98 159.00 C 184.51 158.08 183.38 157.71 182.46 158.18 C 181.54 158.65 181.17 159.78 181.64 160.70 L 182.09 161.59 C 182.56 162.51 183.69 162.88 184.61 162.41 C 185.53 161.94 185.90 160.81 185.43 159.89 Z M 184.95 158.95 L 184.47 158.09 C 183.97 157.18 182.83 156.85 181.93 157.35 C 181.02 157.85 180.69 158.99 181.19 159.90 L 181.67 160.76 C 182.17 161.66 183.31 161.99 184.21 161.49 C 185.12 160.99 185.45 159.85 184.95 158.95 Z M 184.45 158.05 L 183.95 157.19 C 183.43 156.29 182.28 155.99 181.39 156.51 C 180.50 157.03 180.19 158.18 180.71 159.07 L 181.21 159.93 C 181.73 160.83 182.88 161.13 183.77 160.61 C 184.67 160.09 184.97 158.94 184.45 158.05 Z M 183.94 157.17 L 183.42 156.30 C 182.89 155.41 181.75 155.11 180.86 155.64 C 179.97 156.17 179.67 157.32 180.20 158.21 L 180.72 159.08 C 181.25 159.97 182.40 160.27 183.29 159.74 C 184.18 159.21 184.47 158.06 183.94 157.17 Z M 183.42 156.30 L 182.93 155.47 C 182.40 154.58 181.25 154.29 180.36 154.82 C 179.47 155.34 179.18 156.49 179.71 157.38 L 180.20 158.21 C 180.73 159.10 181.88 159.39 182.77 158.86 C 183.66 158.33 183.95 157.19 183.42 156.30 Z M 182.93 155.46 L 182.42 154.61 C 181.89 153.72 180.74 153.43 179.85 153.96 C 178.96 154.49 178.67 155.65 179.20 156.53 L 179.71 157.39 C 180.24 158.28 181.39 158.57 182.28 158.03 C 183.17 157.50 183.46 156.35 182.93 155.46 Z M 182.41 154.60 L 181.88 153.72 C 181.34 152.84 180.19 152.56 179.31 153.10 C 178.42 153.63 178.14 154.79 178.68 155.67 L 179.21 156.55 C 179.75 157.43 180.90 157.71 181.78 157.17 C 182.67 156.64 182.95 155.48 182.41 154.60 Z M 181.87 153.71 L 181.33 152.84 C 180.78 151.96 179.63 151.69 178.75 152.24 C 177.87 152.78 177.60 153.94 178.15 154.82 L 178.69 155.69 C 179.23 156.57 180.39 156.84 181.27 156.29 C 182.15 155.74 182.42 154.59 181.87 153.71 Z M 181.32 152.82 L 180.79 151.98 C 180.23 151.11 179.06 150.86 178.19 151.42 C 177.32 151.98 177.06 153.14 177.62 154.01 L 178.16 154.84 C 178.72 155.72 179.88 155.97 180.75 155.41 C 181.62 154.85 181.88 153.69 181.32 152.82 Z M 180.77 151.96 L 180.22 151.13 C 179.65 150.26 178.48 150.03 177.62 150.60 C 176.75 151.17 176.51 152.34 177.09 153.20 L 177.64 154.04 C 178.21 154.90 179.38 155.14 180.24 154.57 C 181.11 153.99 181.35 152.83 180.77 151.96 Z M 180.21 151.10 L 179.64 150.27 C 179.05 149.41 177.88 149.19 177.02 149.78 C 176.16 150.37 175.94 151.54 176.53 152.40 L 177.10 153.23 C 177.69 154.09 178.86 154.31 179.72 153.72 C 180.57 153.13 180.79 151.96 180.21 151.10 Z M 179.62 150.25 L 179.04 149.42 C 178.44 148.57 177.26 148.37 176.41 148.97 C 175.56 149.57 175.36 150.75 175.96 151.60 L 176.55 152.42 C 177.15 153.27 178.32 153.47 179.17 152.87 C 180.02 152.27 180.23 151.10 179.62 150.25 Z M 179.02 149.39 L 178.42 148.58 C 177.81 147.74 176.62 147.56 175.78 148.18 C 174.94 148.79 174.76 149.97 175.38 150.81 L 175.98 151.63 C 176.60 152.46 177.78 152.64 178.62 152.03 C 179.46 151.41 179.64 150.23 179.02 149.39 Z M 178.40 148.54 L 177.79 147.75 C 177.15 146.92 175.96 146.77 175.14 147.40 C 174.31 148.04 174.16 149.22 174.79 150.05 L 175.41 150.85 C 176.04 151.68 177.23 151.83 178.06 151.19 C 178.88 150.56 179.04 149.37 178.40 148.54 Z M 177.75 147.70 L 177.12 146.93 C 176.46 146.12 175.27 146.00 174.46 146.66 C 173.65 147.32 173.53 148.51 174.19 149.32 L 174.82 150.09 C 175.48 150.90 176.67 151.02 177.48 150.36 C 178.29 149.70 178.41 148.51 177.75 147.70 Z M 177.08 146.88 L 176.43 146.14 C 175.75 145.35 174.55 145.27 173.76 145.95 C 172.98 146.64 172.89 147.84 173.58 148.62 L 174.23 149.37 C 174.92 150.16 176.11 150.24 176.90 149.55 C 177.69 148.86 177.77 147.67 177.08 146.88 Z M 176.38 146.08 L 175.70 145.35 C 174.98 144.59 173.78 144.55 173.02 145.27 C 172.26 145.99 172.22 147.19 172.94 147.95 L 173.63 148.68 C 174.35 149.44 175.55 149.47 176.31 148.76 C 177.07 148.04 177.10 146.84 176.38 146.08 Z M 175.64 145.29 L 174.93 144.60 C 174.18 143.87 172.98 143.88 172.25 144.63 C 171.52 145.38 171.53 146.58 172.28 147.31 L 173.00 148.01 C 173.75 148.74 174.95 148.72 175.68 147.97 C 176.41 147.22 176.39 146.02 175.64 145.29 Z M 174.87 144.54 L 174.13 143.88 C 173.35 143.18 172.15 143.24 171.45 144.03 C 170.75 144.81 170.82 146.01 171.60 146.70 L 172.34 147.37 C 173.12 148.07 174.32 148.00 175.02 147.22 C 175.72 146.44 175.65 145.24 174.87 144.54 Z M 174.07 143.83 L 173.30 143.19 C 172.49 142.52 171.30 142.63 170.63 143.44 C 169.96 144.25 170.07 145.45 170.88 146.12 L 171.65 146.75 C 172.46 147.42 173.66 147.31 174.33 146.50 C 175.00 145.69 174.88 144.50 174.07 143.83 Z M 173.25 143.14 L 172.44 142.52 C 171.61 141.89 170.41 142.05 169.77 142.88 C 169.14 143.71 169.30 144.91 170.13 145.54 L 170.94 146.16 C 171.77 146.80 172.96 146.64 173.60 145.81 C 174.24 144.97 174.08 143.78 173.25 143.14 Z M 172.37 142.48 L 171.54 141.89 C 170.68 141.29 169.49 141.50 168.89 142.36 C 168.29 143.22 168.50 144.41 169.36 145.01 L 170.19 145.59 C 171.05 146.19 172.24 145.99 172.84 145.12 C 173.44 144.26 173.24 143.08 172.37 142.48 Z M 171.46 141.84 L 170.61 141.30 C 169.72 140.75 168.54 141.02 167.98 141.91 C 167.43 142.80 167.70 143.97 168.59 144.53 L 169.44 145.06 C 170.33 145.62 171.51 145.35 172.06 144.46 C 172.62 143.57 172.35 142.39 171.46 141.84 Z M 170.50 141.24 L 169.65 140.78 C 168.72 140.28 167.56 140.63 167.06 141.55 C 166.57 142.48 166.91 143.63 167.84 144.13 L 168.69 144.59 C 169.62 145.09 170.78 144.75 171.28 143.82 C 171.77 142.89 171.43 141.74 170.50 141.24 Z M 169.50 140.71 L 168.58 140.30 C 167.61 139.88 166.49 140.33 166.07 141.29 C 165.65 142.26 166.09 143.38 167.05 143.80 L 167.98 144.21 C 168.95 144.63 170.07 144.18 170.49 143.22 C 170.91 142.25 170.47 141.13 169.50 140.71 Z M 168.41 140.24 L 167.46 139.93 C 166.46 139.60 165.38 140.15 165.05 141.15 C 164.72 142.15 165.27 143.23 166.27 143.56 L 167.22 143.87 C 168.22 144.20 169.30 143.65 169.63 142.65 C 169.96 141.65 169.41 140.57 168.41 140.24 Z M 167.31 139.88 L 166.35 139.66 C 165.32 139.41 164.29 140.05 164.05 141.08 C 163.81 142.11 164.44 143.14 165.47 143.38 L 166.43 143.60 C 167.46 143.84 168.49 143.21 168.73 142.18 C 168.97 141.15 168.33 140.12 167.31 139.88 Z M 166.21 139.63 L 165.24 139.47 C 164.19 139.30 163.21 140.01 163.04 141.06 C 162.88 142.10 163.59 143.08 164.63 143.25 L 165.61 143.41 C 166.65 143.57 167.63 142.86 167.80 141.82 C 167.97 140.78 167.26 139.80 166.21 139.63 Z M 165.13 139.46 L 164.16 139.35 C 163.11 139.24 162.17 140.01 162.06 141.06 C 161.95 142.11 162.71 143.05 163.76 143.16 L 164.73 143.27 C 165.78 143.38 166.73 142.61 166.84 141.56 C 166.95 140.51 166.19 139.57 165.13 139.46 Z M 164.08 139.34 L 163.09 139.28 C 162.03 139.21 161.12 140.02 161.05 141.07 C 160.99 142.13 161.79 143.04 162.85 143.11 L 163.84 143.17 C 164.90 143.24 165.81 142.44 165.88 141.38 C 165.94 140.32 165.14 139.41 164.08 139.34 Z M 163.03 139.28 L 162.02 139.24 C 160.96 139.21 160.07 140.04 160.04 141.10 C 160.00 142.16 160.83 143.05 161.89 143.08 L 162.91 143.11 C 163.96 143.15 164.85 142.32 164.89 141.26 C 164.92 140.20 164.09 139.31 163.03 139.28 Z M 161.97 139.24 L 160.96 139.23 C 159.90 139.22 159.03 140.07 159.02 141.13 C 159.01 142.19 159.86 143.06 160.92 143.07 L 161.93 143.08 C 162.99 143.09 163.86 142.24 163.87 141.18 C 163.89 140.12 163.04 139.25 161.97 139.24 Z M 160.92 139.23 L 159.94 139.24 C 158.87 139.25 158.02 140.11 158.03 141.18 C 158.04 142.24 158.91 143.09 159.97 143.08 L 160.96 143.07 C 162.02 143.06 162.87 142.19 162.86 141.13 C 162.85 140.07 161.99 139.22 160.92 139.23 Z M 159.88 139.24 L 158.88 139.28 C 157.82 139.32 156.99 140.21 157.03 141.27 C 157.08 142.34 157.97 143.16 159.03 143.12 L 160.03 143.08 C 161.09 143.04 161.92 142.14 161.87 141.08 C 161.83 140.02 160.94 139.20 159.88 139.24 Z M 158.80 139.28 L 157.80 139.36 C 156.74 139.45 155.95 140.38 156.03 141.44 C 156.12 142.50 157.05 143.28 158.11 143.20 L 159.11 143.12 C 160.17 143.03 160.96 142.10 160.87 141.04 C 160.79 139.98 159.86 139.19 158.80 139.28 Z M 157.70 139.37 L 156.70 139.51 C 155.65 139.65 154.91 140.62 155.05 141.67 C 155.19 142.72 156.16 143.46 157.21 143.32 L 158.21 143.19 C 159.26 143.05 160.00 142.08 159.86 141.02 C 159.72 139.97 158.75 139.23 157.70 139.37 Z M 156.59 139.52 L 155.63 139.71 C 154.58 139.91 153.90 140.92 154.10 141.96 C 154.30 143.01 155.31 143.69 156.35 143.49 L 157.32 143.30 C 158.36 143.10 159.05 142.09 158.85 141.05 C 158.65 140.01 157.64 139.32 156.59 139.52 Z M 155.52 139.73 L 154.56 139.97 C 153.53 140.23 152.90 141.28 153.15 142.31 C 153.41 143.34 154.46 143.97 155.49 143.71 L 156.46 143.47 C 157.49 143.21 158.11 142.17 157.86 141.13 C 157.60 140.10 156.56 139.48 155.52 139.73 Z M 154.46 140.00 L 153.49 140.30 C 152.48 140.61 151.91 141.68 152.22 142.70 C 152.53 143.72 153.60 144.29 154.62 143.98 L 155.59 143.68 C 156.60 143.37 157.17 142.29 156.86 141.28 C 156.55 140.26 155.48 139.69 154.46 140.00 Z M 153.40 140.33 L 152.45 140.67 C 151.45 141.04 150.94 142.14 151.30 143.14 C 151.66 144.14 152.77 144.65 153.76 144.29 L 154.71 143.95 C 155.71 143.58 156.23 142.48 155.87 141.48 C 155.50 140.48 154.40 139.97 153.40 140.33 Z M 152.37 140.71 L 151.47 141.08 C 150.49 141.49 150.03 142.62 150.44 143.60 C 150.85 144.58 151.98 145.04 152.96 144.63 L 153.85 144.26 C 154.83 143.85 155.29 142.72 154.88 141.74 C 154.47 140.76 153.35 140.30 152.37 140.71 Z M 151.40 141.11 L 150.51 141.53 C 149.55 141.98 149.14 143.12 149.58 144.08 C 150.03 145.04 151.18 145.46 152.14 145.01 L 153.03 144.60 C 153.99 144.15 154.41 143.00 153.96 142.04 C 153.51 141.08 152.37 140.66 151.40 141.11 Z M 150.46 141.56 L 149.56 142.01 C 148.61 142.50 148.24 143.65 148.72 144.60 C 149.20 145.54 150.35 145.92 151.30 145.44 L 152.20 144.98 C 153.14 144.50 153.52 143.34 153.04 142.40 C 152.56 141.45 151.40 141.08 150.46 141.56 Z M 149.51 142.04 L 148.61 142.53 C 147.68 143.04 147.33 144.21 147.84 145.14 C 148.34 146.07 149.51 146.41 150.44 145.90 L 151.35 145.41 C 152.28 144.90 152.62 143.74 152.11 142.81 C 151.61 141.88 150.44 141.53 149.51 142.04 Z M 148.57 142.56 L 147.70 143.05 C 146.78 143.58 146.47 144.75 146.99 145.67 C 147.52 146.58 148.69 146.90 149.60 146.38 L 150.47 145.88 C 151.39 145.36 151.71 144.19 151.18 143.27 C 150.66 142.35 149.49 142.03 148.57 142.56 Z M 147.67 143.08 L 146.82 143.59 C 145.91 144.13 145.62 145.30 146.16 146.21 C 146.71 147.11 147.88 147.41 148.79 146.87 L 149.64 146.35 C 150.54 145.81 150.84 144.64 150.29 143.73 C 149.75 142.83 148.58 142.53 147.67 143.08 Z M 146.78 143.61 L 145.93 144.15 C 145.04 144.72 144.78 145.90 145.34 146.79 C 145.91 147.68 147.08 147.94 147.97 147.38 L 148.82 146.84 C 149.71 146.27 149.98 145.09 149.41 144.20 C 148.85 143.32 147.67 143.05 146.78 143.61 Z M 145.89 144.19 L 145.05 144.75 C 144.18 145.34 143.95 146.52 144.54 147.40 C 145.13 148.27 146.31 148.50 147.18 147.91 L 148.02 147.34 C 148.89 146.75 149.12 145.57 148.53 144.70 C 147.94 143.83 146.76 143.60 145.89 144.19 Z M 145.00 144.79 L 144.18 145.39 C 143.33 146.00 143.15 147.19 143.76 148.04 C 144.38 148.89 145.57 149.08 146.42 148.46 L 147.23 147.87 C 148.08 147.25 148.27 146.06 147.65 145.21 C 147.04 144.36 145.85 144.18 145.00 144.79 Z M 144.13 145.44 L 143.34 146.06 C 142.52 146.71 142.38 147.90 143.03 148.72 C 143.68 149.54 144.87 149.68 145.69 149.03 L 146.48 148.41 C 147.30 147.76 147.44 146.57 146.79 145.75 C 146.14 144.93 144.95 144.79 144.13 145.44 Z M 143.29 146.10 L 142.53 146.75 C 141.74 147.43 141.64 148.62 142.32 149.42 C 143.00 150.21 144.19 150.31 144.98 149.63 L 145.74 148.98 C 146.54 148.31 146.63 147.11 145.95 146.32 C 145.28 145.52 144.08 145.43 143.29 146.10 Z M 142.49 146.79 L 141.76 147.46 C 140.98 148.15 140.92 149.35 141.62 150.12 C 142.32 150.89 143.51 150.95 144.28 150.26 L 145.02 149.59 C 145.80 148.89 145.86 147.70 145.16 146.92 C 144.46 146.15 143.27 146.09 142.49 146.79 Z M 141.73 147.48 L 141.00 148.17 C 140.25 148.88 140.21 150.07 140.92 150.83 C 141.63 151.59 142.82 151.62 143.58 150.91 L 144.31 150.23 C 145.07 149.51 145.10 148.32 144.39 147.57 C 143.68 146.81 142.49 146.77 141.73 147.48 Z M 140.99 148.19 L 140.26 148.89 C 139.52 149.60 139.49 150.79 140.21 151.54 C 140.93 152.29 142.12 152.31 142.87 151.59 L 143.59 150.89 C 144.34 150.17 144.36 148.99 143.65 148.24 C 142.93 147.49 141.74 147.47 140.99 148.19 Z M 140.26 148.89 L 139.56 149.57 C 138.82 150.29 138.80 151.48 139.52 152.22 C 140.24 152.96 141.42 152.98 142.17 152.26 L 142.87 151.58 C 143.61 150.86 143.63 149.68 142.91 148.94 C 142.19 148.19 141.01 148.18 140.26 148.89 Z M 139.56 149.58 L 138.86 150.27 C 138.12 150.99 138.10 152.17 138.82 152.91 C 139.54 153.65 140.72 153.66 141.46 152.94 L 142.17 152.26 C 142.90 151.54 142.92 150.35 142.20 149.62 C 141.48 148.88 140.30 148.86 139.56 149.58 Z M 138.85 150.28 L 138.14 150.98 C 137.41 151.70 137.40 152.88 138.12 153.61 C 138.85 154.35 140.02 154.35 140.76 153.63 L 141.47 152.93 C 142.20 152.21 142.21 151.03 141.48 150.30 C 140.76 149.57 139.58 149.56 138.85 150.28 Z M 138.14 151.00 L 137.42 151.71 C 136.70 152.44 136.70 153.61 137.42 154.34 C 138.15 155.06 139.32 155.06 140.05 154.33 L 140.76 153.62 C 141.49 152.89 141.48 151.72 140.76 150.99 C 140.03 150.27 138.86 150.27 138.14 151.00 Z M 137.41 151.73 L 136.70 152.46 C 135.98 153.19 136.00 154.36 136.73 155.08 C 137.46 155.79 138.63 155.78 139.34 155.05 L 140.06 154.32 C 140.77 153.59 140.76 152.41 140.03 151.70 C 139.30 150.99 138.13 151.00 137.41 151.73 Z M 136.69 152.48 L 135.99 153.21 C 135.29 153.94 135.32 155.11 136.05 155.81 C 136.79 156.52 137.96 156.49 138.66 155.75 L 139.35 155.03 C 140.06 154.29 140.03 153.12 139.29 152.42 C 138.56 151.72 137.39 151.74 136.69 152.48 Z M 135.98 153.22 L 135.30 153.95 C 134.61 154.70 134.65 155.86 135.39 156.55 C 136.13 157.24 137.29 157.21 137.99 156.46 L 138.67 155.73 C 139.36 154.99 139.32 153.83 138.58 153.14 C 137.84 152.44 136.68 152.48 135.98 153.22 Z M 135.29 153.97 L 134.62 154.71 C 133.93 155.46 133.98 156.61 134.73 157.30 C 135.47 157.98 136.63 157.93 137.31 157.19 L 137.99 156.45 C 138.68 155.70 138.63 154.54 137.88 153.86 C 137.14 153.18 135.98 153.23 135.29 153.97 Z M 134.61 154.73 L 133.94 155.47 C 133.26 156.22 133.32 157.37 134.07 158.05 C 134.81 158.72 135.97 158.66 136.64 157.92 L 137.32 157.17 C 137.99 156.43 137.93 155.27 137.19 154.60 C 136.44 153.92 135.29 153.98 134.61 154.73 Z M 133.93 155.48 L 133.27 156.23 C 132.60 156.98 132.66 158.13 133.41 158.80 C 134.16 159.46 135.31 159.40 135.98 158.65 L 136.65 157.90 C 137.31 157.16 137.25 156.01 136.50 155.34 C 135.75 154.67 134.60 154.74 133.93 155.48 Z M 133.27 156.24 L 132.60 156.99 C 131.94 157.74 132.01 158.89 132.76 159.55 C 133.51 160.21 134.65 160.14 135.31 159.39 L 135.98 158.64 C 136.64 157.89 136.57 156.75 135.82 156.09 C 135.07 155.42 133.93 155.49 133.27 156.24 Z M 132.60 157.01 L 131.93 157.77 C 131.27 158.52 131.35 159.66 132.09 160.32 C 132.84 160.97 133.98 160.90 134.64 160.15 L 135.31 159.38 C 135.97 158.63 135.89 157.50 135.15 156.84 C 134.40 156.18 133.26 156.26 132.60 157.01 Z M 131.93 157.78 L 131.27 158.55 C 130.61 159.29 130.69 160.43 131.44 161.08 C 132.19 161.73 133.32 161.65 133.97 160.90 L 134.64 160.14 C 135.29 159.39 135.21 158.26 134.46 157.61 C 133.71 156.96 132.58 157.04 131.93 157.78 Z M 131.27 158.56 L 130.62 159.31 C 129.97 160.06 130.05 161.19 130.80 161.83 C 131.55 162.48 132.68 162.39 133.32 161.65 L 133.97 160.89 C 134.62 160.15 134.54 159.02 133.79 158.37 C 133.04 157.73 131.91 157.81 131.27 158.56 Z M 130.62 159.32 L 129.98 160.07 C 129.34 160.82 129.42 161.94 130.17 162.58 C 130.92 163.22 132.04 163.13 132.68 162.39 L 133.32 161.64 C 133.96 160.89 133.87 159.77 133.13 159.13 C 132.38 158.49 131.26 158.58 130.62 159.32 Z M 129.98 160.08 L 129.34 160.82 C 128.71 161.57 128.80 162.69 129.55 163.32 C 130.29 163.96 131.41 163.86 132.04 163.12 L 132.68 162.37 C 133.31 161.63 133.22 160.51 132.47 159.88 C 131.73 159.24 130.61 159.33 129.98 160.08 Z M 129.35 160.84 L 128.70 161.60 C 128.07 162.35 128.16 163.46 128.91 164.09 C 129.65 164.72 130.77 164.62 131.39 163.88 L 132.04 163.11 C 132.67 162.36 132.58 161.25 131.83 160.62 C 131.09 160.00 129.97 160.09 129.35 160.84 Z M 128.70 161.61 L 128.06 162.38 C 127.44 163.12 127.54 164.23 128.28 164.85 C 129.02 165.47 130.13 165.37 130.75 164.63 L 131.39 163.87 C 132.01 163.12 131.92 162.02 131.17 161.39 C 130.43 160.77 129.32 160.87 128.70 161.61 Z M 128.06 162.39 L 127.43 163.15 C 126.81 163.90 126.91 165.00 127.65 165.61 C 128.40 166.23 129.50 166.13 130.11 165.39 L 130.75 164.62 C 131.37 163.88 131.26 162.78 130.52 162.16 C 129.78 161.55 128.68 161.65 128.06 162.39 Z M 127.43 163.16 L 126.80 163.93 C 126.18 164.67 126.29 165.77 127.03 166.38 C 127.77 166.99 128.87 166.89 129.48 166.15 L 130.11 165.38 C 130.72 164.64 130.62 163.54 129.88 162.93 C 129.14 162.32 128.04 162.42 127.43 163.16 Z M 126.80 163.94 L 126.16 164.72 C 125.55 165.46 125.66 166.55 126.40 167.15 C 127.14 167.76 128.23 167.65 128.83 166.91 L 129.47 166.14 C 130.08 165.40 129.97 164.31 129.23 163.70 C 128.49 163.10 127.40 163.20 126.80 163.94 Z M 126.16 164.73 L 125.52 165.52 C 124.92 166.26 125.03 167.34 125.77 167.94 C 126.51 168.54 127.59 168.43 128.19 167.69 L 128.83 166.90 C 129.43 166.17 129.32 165.08 128.58 164.48 C 127.85 163.88 126.76 163.99 126.16 164.73 Z M 125.52 165.54 L 124.88 166.33 C 124.29 167.07 124.41 168.15 125.15 168.74 C 125.89 169.33 126.96 169.21 127.55 168.47 L 128.19 167.68 C 128.78 166.94 128.66 165.86 127.92 165.27 C 127.19 164.68 126.11 164.80 125.52 165.54 Z M 124.88 166.36 L 124.26 167.15 C 123.68 167.89 123.81 168.96 124.56 169.54 C 125.30 170.12 126.37 169.98 126.94 169.24 L 127.56 168.45 C 128.14 167.71 128.00 166.64 127.26 166.06 C 126.52 165.48 125.45 165.62 124.88 166.36 Z M 124.24 167.18 L 123.65 167.97 C 123.10 168.72 123.25 169.78 124.00 170.34 C 124.75 170.90 125.81 170.75 126.37 170.00 L 126.96 169.21 C 127.51 168.46 127.36 167.40 126.61 166.84 C 125.86 166.28 124.80 166.44 124.24 167.18 Z M 123.64 168.02 L 123.07 168.82 C 122.53 169.58 122.71 170.63 123.47 171.17 C 124.23 171.70 125.28 171.52 125.82 170.76 L 126.39 169.96 C 126.92 169.20 126.74 168.15 125.98 167.61 C 125.22 167.07 124.17 167.26 123.64 168.02 Z M 123.04 168.87 L 122.48 169.73 C 121.97 170.51 122.18 171.55 122.96 172.05 C 123.73 172.56 124.77 172.35 125.28 171.57 L 125.85 170.71 C 126.35 169.93 126.14 168.90 125.36 168.39 C 124.59 167.88 123.55 168.10 123.04 168.87 Z M 122.45 169.79 L 121.93 170.64 C 121.45 171.43 121.71 172.46 122.50 172.94 C 123.29 173.42 124.32 173.16 124.79 172.37 L 125.31 171.52 C 125.79 170.73 125.53 169.70 124.74 169.22 C 123.95 168.74 122.92 169.00 122.45 169.79 Z M 121.90 170.70 L 121.43 171.55 C 120.98 172.36 121.27 173.37 122.08 173.82 C 122.88 174.27 123.90 173.98 124.34 173.17 L 124.82 172.32 C 125.27 171.51 124.98 170.50 124.17 170.05 C 123.37 169.60 122.35 169.89 121.90 170.70 Z M 121.41 171.60 L 120.96 172.47 C 120.54 173.29 120.86 174.29 121.68 174.71 C 122.50 175.13 123.50 174.81 123.92 173.99 L 124.37 173.12 C 124.79 172.31 124.46 171.30 123.65 170.88 C 122.83 170.46 121.83 170.79 121.41 171.60 Z M 120.94 172.52 L 120.52 173.40 C 120.13 174.23 120.48 175.22 121.31 175.61 C 122.13 176.01 123.12 175.66 123.52 174.83 L 123.94 173.95 C 124.33 173.12 123.98 172.13 123.15 171.74 C 122.33 171.34 121.34 171.69 120.94 172.52 Z M 120.51 173.44 L 120.11 174.35 C 119.73 175.18 120.11 176.16 120.95 176.53 C 121.79 176.90 122.76 176.53 123.14 175.69 L 123.54 174.79 C 123.91 173.95 123.53 172.97 122.69 172.60 C 121.85 172.23 120.88 172.61 120.51 173.44 Z M 120.09 174.39 L 119.71 175.32 C 119.36 176.16 119.77 177.13 120.61 177.48 C 121.46 177.82 122.42 177.42 122.77 176.57 L 123.15 175.65 C 123.50 174.80 123.09 173.83 122.25 173.49 C 121.40 173.14 120.44 173.54 120.09 174.39 Z M 119.69 175.36 L 119.33 176.31 C 119.01 177.16 119.44 178.12 120.29 178.44 C 121.15 178.76 122.10 178.34 122.42 177.48 L 122.79 176.53 C 123.11 175.68 122.68 174.72 121.83 174.40 C 120.97 174.07 120.02 174.50 119.69 175.36 Z M 119.32 176.35 L 118.99 177.30 C 118.69 178.16 119.14 179.10 120.00 179.40 C 120.86 179.70 121.81 179.25 122.11 178.39 L 122.44 177.44 C 122.74 176.58 122.28 175.64 121.42 175.34 C 120.56 175.04 119.62 175.49 119.32 176.35 Z M 118.98 177.33 L 118.67 178.28 C 118.39 179.14 118.87 180.07 119.73 180.36 C 120.60 180.64 121.53 180.16 121.81 179.29 L 122.12 178.35 C 122.40 177.49 121.92 176.55 121.06 176.27 C 120.19 175.99 119.26 176.47 118.98 177.33 Z M 118.66 178.30 L 118.37 179.26 C 118.10 180.13 118.59 181.05 119.47 181.32 C 120.34 181.59 121.26 181.10 121.53 180.22 L 121.82 179.27 C 122.09 178.40 121.60 177.47 120.73 177.21 C 119.85 176.94 118.93 177.43 118.66 178.30 Z M 118.37 179.28 L 118.08 180.24 C 117.82 181.12 118.33 182.03 119.20 182.29 C 120.08 182.55 120.99 182.05 121.25 181.17 L 121.54 180.21 C 121.79 179.33 121.29 178.41 120.42 178.16 C 119.54 177.90 118.62 178.40 118.37 179.28 Z M 118.08 180.25 L 117.80 181.22 C 117.55 182.10 118.05 183.02 118.93 183.27 C 119.81 183.52 120.72 183.01 120.97 182.14 L 121.25 181.16 C 121.51 180.29 121.00 179.37 120.12 179.12 C 119.25 178.87 118.33 179.37 118.08 180.25 Z M 117.80 181.23 L 117.74 181.42 C 117.49 182.29 118.00 183.21 118.88 183.46 C 119.76 183.71 120.67 183.20 120.92 182.32 L 120.98 182.13 C 121.23 181.26 120.72 180.34 119.84 180.09 C 118.96 179.84 118.05 180.35 117.80 181.23 Z"
      fill="black"
      fill-rule="nonzero" /></svg>