<svg xmlns="http://www.w3.org/2000/svg" width="300" height="300" viewBox="0 0 300 300">
<path d="M 153.38 130.69 L 152.33 130.28 C 151.55 129.98 150.67 130.37 150.36 131.15 C 150.06 131.93 150.44 132.81 151.23 133.11 L 152.28 133.52 C 153.06 133.83 153.94 133.44 154.24 132.66 C 154.55 131.87 154.16 130.99 153.38 130.69 Z M 152.33 130.27 L 151.30 129.88 C 150.51 129.57 149.63 129.97 149.32 130.76 C 149.02 131.55 149.41 132.43 150.20 132.73 L 151.23 133.13 C 152.02 133.43 152.90 133.03 153.21 132.25 C 153.51 131.46 153.11 130.57 152.33 130.27 Z M 151.29 129.86 L 150.32 129.50 C 149.52 129.20 148.63 129.60 148.33 130.40 C 148.03 131.20 148.44 132.09 149.24 132.38 L 150.21 132.75 C 151.01 133.05 151.90 132.64 152.20 131.84 C 152.49 131.05 152.09 130.16 151.29 129.86 Z M 150.30 129.48 L 149.39 129.16 C 148.59 128.87 147.70 129.29 147.41 130.10 C 147.13 130.91 147.55 131.80 148.36 132.08 L 149.26 132.40 C 150.07 132.69 150.95 132.27 151.24 131.46 C 151.53 130.65 151.10 129.76 150.30 129.48 Z M 149.36 129.13 L 148.56 128.87 C 147.74 128.61 146.85 129.06 146.59 129.88 C 146.32 130.70 146.77 131.58 147.59 131.85 L 148.39 132.11 C 149.21 132.38 150.10 131.93 150.36 131.10 C 150.63 130.28 150.18 129.40 149.36 129.13 Z M 148.46 128.84 L 147.33 128.55 C 146.48 128.33 145.63 128.84 145.41 129.69 C 145.20 130.53 145.71 131.39 146.55 131.60 L 147.69 131.89 C 148.53 132.10 149.39 131.59 149.60 130.75 C 149.81 129.91 149.30 129.05 148.46 128.84 Z M 147.13 128.50 L 146.19 128.38 C 145.32 128.28 144.53 128.89 144.42 129.76 C 144.31 130.63 144.93 131.42 145.80 131.53 L 146.74 131.64 C 147.61 131.75 148.40 131.14 148.51 130.27 C 148.62 129.40 148.00 128.61 147.13 128.50 Z M 146.01 128.36 L 145.21 128.35 C 144.33 128.34 143.60 129.04 143.59 129.92 C 143.58 130.80 144.28 131.52 145.16 131.54 L 145.97 131.55 C 146.85 131.56 147.57 130.86 147.58 129.98 C 147.60 129.10 146.89 128.38 146.01 128.36 Z M 145.17 128.34 L 144.18 128.35 C 143.29 128.35 142.58 129.08 142.59 129.96 C 142.59 130.85 143.31 131.56 144.20 131.55 L 145.19 131.55 C 146.08 131.54 146.79 130.82 146.79 129.93 C 146.78 129.05 146.06 128.34 145.17 128.34 Z M 144.13 128.34 L 143.15 128.37 C 142.26 128.41 141.56 129.15 141.60 130.04 C 141.63 130.93 142.38 131.63 143.27 131.60 L 144.25 131.56 C 145.14 131.53 145.83 130.78 145.80 129.89 C 145.77 129.00 145.02 128.31 144.13 128.34 Z M 143.02 128.38 L 142.05 128.49 C 141.16 128.59 140.52 129.39 140.62 130.28 C 140.72 131.17 141.52 131.81 142.41 131.71 L 143.39 131.60 C 144.28 131.49 144.92 130.69 144.82 129.80 C 144.72 128.91 143.91 128.28 143.02 128.38 Z M 141.82 128.52 L 140.86 128.77 C 139.99 129.00 139.46 129.88 139.69 130.75 C 139.91 131.62 140.80 132.14 141.67 131.92 L 142.63 131.67 C 143.50 131.45 144.03 130.56 143.80 129.69 C 143.58 128.82 142.69 128.30 141.82 128.52 Z M 140.65 128.83 L 139.75 129.20 C 138.91 129.54 138.51 130.49 138.84 131.32 C 139.18 132.16 140.13 132.56 140.97 132.22 L 141.87 131.86 C 142.71 131.52 143.11 130.57 142.77 129.74 C 142.44 128.90 141.49 128.50 140.65 128.83 Z M 139.62 129.25 L 138.67 129.73 C 137.87 130.14 137.54 131.12 137.95 131.93 C 138.36 132.74 139.35 133.06 140.15 132.65 L 141.10 132.17 C 141.90 131.76 142.23 130.78 141.82 129.97 C 141.41 129.17 140.42 128.84 139.62 129.25 Z M 138.59 129.77 L 137.76 130.25 C 136.98 130.70 136.71 131.71 137.17 132.49 C 137.62 133.28 138.63 133.54 139.42 133.09 L 140.24 132.61 C 141.02 132.15 141.29 131.15 140.83 130.36 C 140.38 129.58 139.37 129.31 138.59 129.77 Z M 137.69 130.28 L 136.85 130.83 C 136.09 131.33 135.87 132.35 136.37 133.11 C 136.86 133.88 137.88 134.09 138.65 133.60 L 139.49 133.05 C 140.25 132.56 140.47 131.53 139.97 130.77 C 139.48 130.01 138.46 129.79 137.69 130.28 Z M 136.78 130.87 L 135.94 131.48 C 135.20 132.01 135.03 133.05 135.57 133.79 C 136.10 134.53 137.13 134.70 137.88 134.16 L 138.72 133.56 C 139.46 133.02 139.63 131.99 139.09 131.25 C 138.56 130.50 137.52 130.34 136.78 130.87 Z M 135.88 131.52 L 135.13 132.11 C 134.41 132.68 134.29 133.72 134.86 134.44 C 135.42 135.16 136.47 135.28 137.19 134.71 L 137.94 134.12 C 138.66 133.55 138.78 132.51 138.21 131.79 C 137.64 131.07 136.60 130.95 135.88 131.52 Z M 135.08 132.15 L 134.32 132.79 C 133.62 133.39 133.54 134.44 134.13 135.14 C 134.73 135.84 135.78 135.92 136.48 135.33 L 137.24 134.68 C 137.94 134.08 138.02 133.03 137.42 132.33 C 136.83 131.63 135.78 131.55 135.08 132.15 Z M 134.27 132.83 L 133.50 133.53 C 132.82 134.16 132.78 135.21 133.40 135.89 C 134.02 136.57 135.08 136.62 135.76 135.99 L 136.53 135.29 C 137.21 134.67 137.25 133.61 136.63 132.93 C 136.01 132.25 134.95 132.21 134.27 132.83 Z M 133.46 133.57 L 132.74 134.27 C 132.08 134.91 132.07 135.97 132.72 136.63 C 133.36 137.29 134.42 137.31 135.08 136.66 L 135.80 135.96 C 136.46 135.32 136.47 134.26 135.83 133.60 C 135.18 132.94 134.12 132.92 133.46 133.57 Z M 132.71 134.30 L 132.01 135.03 C 131.37 135.69 131.38 136.75 132.05 137.40 C 132.72 138.04 133.78 138.02 134.42 137.35 L 135.12 136.63 C 135.76 135.96 135.74 134.90 135.07 134.26 C 134.41 133.62 133.35 133.64 132.71 134.30 Z M 131.97 135.06 L 131.29 135.81 C 130.67 136.50 130.72 137.56 131.41 138.18 C 132.10 138.81 133.16 138.75 133.78 138.06 L 134.46 137.32 C 135.08 136.63 135.03 135.57 134.34 134.95 C 133.65 134.32 132.59 134.38 131.97 135.06 Z M 131.25 135.86 L 130.61 136.62 C 130.01 137.33 130.10 138.39 130.81 138.99 C 131.52 139.59 132.58 139.50 133.18 138.78 L 133.82 138.02 C 134.42 137.31 134.33 136.25 133.62 135.65 C 132.91 135.05 131.85 135.15 131.25 135.86 Z M 130.56 136.67 L 129.95 137.47 C 129.38 138.21 129.51 139.26 130.25 139.83 C 130.99 140.40 132.04 140.27 132.61 139.53 L 133.23 138.73 C 133.80 138.00 133.66 136.94 132.92 136.37 C 132.19 135.80 131.13 135.94 130.56 136.67 Z M 129.90 137.52 L 129.33 138.33 C 128.79 139.09 128.97 140.15 129.73 140.69 C 130.49 141.22 131.54 141.04 132.08 140.28 L 132.65 139.48 C 133.19 138.72 133.01 137.66 132.25 137.12 C 131.49 136.59 130.44 136.76 129.90 137.52 Z M 129.29 138.38 L 128.75 139.22 C 128.24 140.00 128.46 141.04 129.24 141.55 C 130.02 142.06 131.06 141.85 131.57 141.07 L 132.12 140.23 C 132.63 139.45 132.41 138.41 131.63 137.90 C 130.85 137.39 129.80 137.60 129.29 138.38 Z M 128.72 139.26 L 128.21 140.09 C 127.73 140.89 127.98 141.93 128.77 142.41 C 129.57 142.90 130.61 142.65 131.10 141.85 L 131.60 141.02 C 132.09 140.23 131.84 139.19 131.04 138.70 C 130.24 138.21 129.20 138.46 128.72 139.26 Z M 128.18 140.14 L 127.70 140.99 C 127.24 141.80 127.53 142.83 128.34 143.29 C 129.15 143.75 130.18 143.46 130.64 142.65 L 131.13 141.80 C 131.59 140.99 131.30 139.96 130.49 139.50 C 129.68 139.04 128.64 139.32 128.18 140.14 Z M 127.67 141.04 L 127.21 141.94 C 126.78 142.77 127.11 143.79 127.94 144.21 C 128.77 144.64 129.79 144.32 130.21 143.49 L 130.68 142.59 C 131.10 141.76 130.78 140.75 129.95 140.32 C 129.12 139.89 128.10 140.21 127.67 141.04 Z M 127.18 142.00 L 126.74 142.95 C 126.35 143.80 126.72 144.80 127.56 145.20 C 128.41 145.59 129.42 145.22 129.81 144.37 L 130.25 143.42 C 130.64 142.57 130.27 141.57 129.42 141.18 C 128.57 140.79 127.57 141.16 127.18 142.00 Z M 126.71 143.02 L 126.35 143.90 C 125.99 144.76 126.41 145.75 127.27 146.10 C 128.14 146.46 129.12 146.04 129.48 145.18 L 129.84 144.30 C 130.19 143.44 129.78 142.45 128.92 142.10 C 128.05 141.74 127.06 142.16 126.71 143.02 Z M 126.32 143.96 L 125.99 144.87 C 125.67 145.75 126.12 146.72 127.00 147.04 C 127.87 147.37 128.85 146.91 129.17 146.04 L 129.50 145.12 C 129.83 144.24 129.37 143.27 128.50 142.95 C 127.62 142.63 126.65 143.08 126.32 143.96 Z M 125.97 144.93 L 125.65 145.89 C 125.36 146.78 125.85 147.73 126.74 148.02 C 127.63 148.32 128.58 147.83 128.87 146.94 L 129.19 145.98 C 129.48 145.09 129.00 144.14 128.11 143.84 C 127.22 143.55 126.26 144.04 125.97 144.93 Z M 125.64 145.94 L 125.34 146.94 C 125.08 147.84 125.59 148.78 126.49 149.05 C 127.39 149.31 128.33 148.79 128.60 147.89 L 128.89 146.89 C 129.16 145.99 128.64 145.05 127.74 144.79 C 126.84 144.52 125.90 145.04 125.64 145.94 Z M 125.33 146.98 L 125.07 147.94 C 124.83 148.85 125.38 149.78 126.28 150.02 C 127.19 150.26 128.12 149.72 128.36 148.81 L 128.61 147.85 C 128.85 146.94 128.31 146.01 127.40 145.77 C 126.50 145.54 125.57 146.08 125.33 146.98 Z M 125.06 147.98 L 124.84 148.93 C 124.62 149.84 125.18 150.76 126.10 150.98 C 127.01 151.19 127.93 150.63 128.15 149.72 L 128.37 148.77 C 128.59 147.86 128.02 146.94 127.11 146.72 C 126.20 146.51 125.28 147.07 125.06 147.98 Z M 124.83 148.96 L 124.62 149.93 C 124.42 150.85 125.00 151.76 125.92 151.96 C 126.84 152.16 127.74 151.57 127.94 150.66 L 128.15 149.68 C 128.35 148.76 127.77 147.86 126.85 147.66 C 125.93 147.46 125.03 148.04 124.83 148.96 Z M 124.61 149.96 L 124.41 150.96 C 124.23 151.88 124.83 152.78 125.75 152.96 C 126.68 153.15 127.57 152.55 127.76 151.62 L 127.95 150.62 C 128.13 149.70 127.53 148.80 126.61 148.62 C 125.69 148.44 124.79 149.04 124.61 149.96 Z M 124.40 150.99 L 124.22 152.01 C 124.05 152.94 124.67 153.82 125.60 153.99 C 126.53 154.16 127.41 153.54 127.58 152.61 L 127.76 151.59 C 127.93 150.67 127.31 149.78 126.39 149.61 C 125.46 149.45 124.57 150.06 124.40 150.99 Z M 124.22 152.03 L 124.05 153.02 C 123.90 153.95 124.53 154.82 125.46 154.98 C 126.39 155.13 127.27 154.50 127.42 153.57 L 127.58 152.59 C 127.74 151.66 127.11 150.78 126.18 150.63 C 125.25 150.47 124.37 151.10 124.22 152.03 Z M 124.05 153.04 L 123.90 154.01 C 123.76 154.95 124.41 155.82 125.34 155.96 C 126.27 156.10 127.14 155.45 127.28 154.52 L 127.43 153.55 C 127.57 152.61 126.93 151.74 125.99 151.60 C 125.06 151.46 124.19 152.11 124.05 153.04 Z M 123.90 154.03 L 123.76 155.02 C 123.64 155.96 124.29 156.82 125.22 156.95 C 126.16 157.08 127.02 156.42 127.15 155.49 L 127.29 154.50 C 127.41 153.56 126.76 152.70 125.82 152.57 C 124.89 152.44 124.03 153.10 123.90 154.03 Z M 123.76 155.04 L 123.64 156.04 C 123.52 156.98 124.18 157.83 125.12 157.95 C 126.06 158.07 126.91 157.40 127.03 156.47 L 127.15 155.47 C 127.27 154.53 126.61 153.67 125.67 153.56 C 124.73 153.44 123.88 154.11 123.76 155.04 Z M 123.63 156.06 L 123.52 157.07 C 123.41 158.01 124.09 158.86 125.03 158.96 C 125.97 159.07 126.81 158.39 126.92 157.45 L 127.03 156.44 C 127.14 155.51 126.46 154.66 125.52 154.55 C 124.58 154.45 123.74 155.12 123.63 156.06 Z M 123.52 157.09 L 123.41 158.11 C 123.32 159.06 124.00 159.89 124.94 159.99 C 125.89 160.08 126.72 159.40 126.82 158.46 L 126.92 157.44 C 127.02 156.49 126.33 155.65 125.39 155.56 C 124.45 155.47 123.61 156.15 123.52 157.09 Z M 123.41 158.13 L 123.32 159.16 C 123.23 160.11 123.93 160.94 124.87 161.02 C 125.81 161.11 126.65 160.41 126.73 159.47 L 126.82 158.44 C 126.91 157.50 126.21 156.66 125.27 156.58 C 124.33 156.50 123.49 157.19 123.41 158.13 Z M 123.31 159.18 L 123.23 160.21 C 123.16 161.15 123.87 161.98 124.81 162.05 C 125.75 162.12 126.58 161.42 126.65 160.47 L 126.73 159.45 C 126.81 158.51 126.10 157.68 125.16 157.61 C 124.21 157.53 123.39 158.24 123.31 159.18 Z M 123.23 160.22 L 123.16 161.23 C 123.10 162.17 123.81 162.99 124.76 163.06 C 125.71 163.12 126.52 162.41 126.59 161.46 L 126.66 160.46 C 126.72 159.51 126.01 158.69 125.06 158.63 C 124.11 158.56 123.29 159.28 123.23 160.22 Z M 123.16 161.25 L 123.10 162.22 C 123.05 163.17 123.78 163.98 124.72 164.03 C 125.67 164.09 126.48 163.36 126.54 162.41 L 126.59 161.44 C 126.65 160.49 125.92 159.68 124.97 159.63 C 124.03 159.57 123.21 160.30 123.16 161.25 Z M 123.10 162.24 L 123.06 163.20 C 123.02 164.15 123.75 164.95 124.70 164.99 C 125.65 165.04 126.45 164.30 126.50 163.35 L 126.54 162.39 C 126.58 161.44 125.85 160.64 124.90 160.60 C 123.95 160.56 123.14 161.29 123.10 162.24 Z M 123.06 163.22 L 123.02 164.29 C 123.00 165.24 123.74 166.04 124.69 166.06 C 125.64 166.09 126.44 165.35 126.47 164.40 L 126.50 163.33 C 126.53 162.38 125.78 161.58 124.83 161.55 C 123.88 161.52 123.09 162.27 123.06 163.22 Z M 123.02 164.32 L 123.01 165.33 C 122.99 166.28 123.75 167.06 124.70 167.08 C 125.65 167.09 126.44 166.33 126.45 165.38 L 126.47 164.37 C 126.48 163.42 125.73 162.64 124.77 162.62 C 123.82 162.61 123.04 163.36 123.02 164.32 Z M 123.00 165.35 L 123.00 166.32 C 123.00 167.27 123.77 168.05 124.72 168.05 C 125.67 168.05 126.45 167.28 126.45 166.33 L 126.45 165.36 C 126.46 164.41 125.69 163.63 124.74 163.63 C 123.78 163.63 123.01 164.40 123.00 165.35 Z M 123.00 166.33 L 123.00 167.28 C 123.01 168.23 123.79 169.00 124.74 169.00 C 125.69 168.99 126.46 168.22 126.46 167.26 L 126.45 166.32 C 126.45 165.36 125.67 164.59 124.72 164.60 C 123.76 164.60 122.99 165.38 123.00 166.33 Z M 123.00 167.29 L 123.01 168.27 C 123.02 169.23 123.81 169.99 124.76 169.98 C 125.72 169.97 126.48 169.19 126.47 168.23 L 126.46 167.25 C 126.45 166.30 125.67 165.53 124.71 165.54 C 123.76 165.55 122.99 166.34 123.00 167.29 Z M 123.01 168.29 L 123.03 169.28 C 123.05 170.24 123.85 170.99 124.80 170.97 C 125.75 170.95 126.51 170.16 126.49 169.21 L 126.47 168.21 C 126.45 167.26 125.66 166.50 124.70 166.52 C 123.75 166.54 122.99 167.33 123.01 168.29 Z M 123.03 169.31 L 123.07 170.31 C 123.11 171.26 123.91 172.01 124.87 171.97 C 125.82 171.93 126.57 171.13 126.53 170.17 L 126.49 169.18 C 126.46 168.22 125.65 167.48 124.70 167.51 C 123.74 167.55 123.00 168.36 123.03 169.31 Z M 123.07 170.35 L 123.14 171.36 C 123.19 172.31 124.02 173.04 124.97 172.98 C 125.93 172.92 126.65 172.10 126.59 171.14 L 126.53 170.13 C 126.47 169.18 125.65 168.45 124.69 168.51 C 123.74 168.57 123.01 169.39 123.07 170.35 Z M 123.14 171.41 L 123.23 172.39 C 123.31 173.34 124.15 174.04 125.11 173.96 C 126.06 173.87 126.76 173.03 126.68 172.07 L 126.59 171.09 C 126.50 170.14 125.66 169.44 124.71 169.52 C 123.76 169.61 123.05 170.45 123.14 171.41 Z M 123.23 172.43 L 123.35 173.41 C 123.46 174.36 124.32 175.04 125.27 174.93 C 126.22 174.82 126.90 173.96 126.79 173.01 L 126.67 172.03 C 126.56 171.08 125.70 170.40 124.75 170.51 C 123.80 170.62 123.12 171.48 123.23 172.43 Z M 123.35 173.46 L 123.49 174.45 C 123.63 175.40 124.51 176.05 125.46 175.92 C 126.41 175.78 127.06 174.90 126.93 173.95 L 126.78 172.96 C 126.65 172.01 125.77 171.36 124.82 171.49 C 123.87 171.63 123.21 172.51 123.35 173.46 Z M 123.50 174.49 L 123.67 175.49 C 123.83 176.44 124.72 177.07 125.67 176.92 C 126.61 176.76 127.25 175.86 127.09 174.92 L 126.92 173.91 C 126.76 172.97 125.87 172.33 124.92 172.49 C 123.98 172.65 123.34 173.54 123.50 174.49 Z M 123.67 175.53 L 123.86 176.52 C 124.04 177.46 124.95 178.08 125.89 177.90 C 126.84 177.72 127.45 176.81 127.27 175.87 L 127.08 174.88 C 126.90 173.94 125.99 173.32 125.05 173.50 C 124.11 173.68 123.49 174.59 123.67 175.53 Z M 123.87 176.56 L 124.08 177.52 C 124.28 178.46 125.20 179.06 126.14 178.86 C 127.07 178.66 127.67 177.73 127.47 176.80 L 127.27 175.83 C 127.07 174.89 126.14 174.30 125.21 174.50 C 124.27 174.70 123.67 175.62 123.87 176.56 Z M 124.08 177.55 L 124.31 178.52 C 124.53 179.46 125.46 180.04 126.39 179.82 C 127.33 179.60 127.91 178.67 127.69 177.73 L 127.47 176.76 C 127.25 175.83 126.31 175.25 125.38 175.47 C 124.45 175.68 123.86 176.62 124.08 177.55 Z M 124.32 178.55 L 124.56 179.53 C 124.80 180.46 125.74 181.02 126.67 180.79 C 127.60 180.55 128.17 179.61 127.93 178.68 L 127.68 177.70 C 127.45 176.77 126.51 176.21 125.57 176.44 C 124.64 176.68 124.08 177.62 124.32 178.55 Z M 124.57 179.56 L 124.83 180.54 C 125.09 181.47 126.04 182.01 126.97 181.76 C 127.89 181.51 128.44 180.56 128.19 179.63 L 127.92 178.65 C 127.67 177.72 126.72 177.18 125.79 177.43 C 124.87 177.68 124.32 178.63 124.57 179.56 Z M 124.84 180.57 L 125.13 181.56 C 125.39 182.48 126.36 183.01 127.28 182.75 C 128.20 182.48 128.73 181.52 128.47 180.60 L 128.18 179.60 C 127.92 178.68 126.95 178.15 126.03 178.42 C 125.11 178.68 124.58 179.64 124.84 180.57 Z M 125.14 181.59 L 125.44 182.58 C 125.72 183.49 126.70 184.01 127.61 183.73 C 128.53 183.44 129.05 182.47 128.76 181.55 L 128.46 180.57 C 128.18 179.65 127.20 179.14 126.29 179.42 C 125.37 179.70 124.86 180.67 125.14 181.59 Z M 125.45 182.61 L 125.77 183.57 C 126.07 184.48 127.06 184.98 127.97 184.67 C 128.88 184.37 129.37 183.39 129.07 182.48 L 128.75 181.52 C 128.45 180.61 127.47 180.11 126.56 180.42 C 125.65 180.72 125.15 181.70 125.45 182.61 Z M 125.79 183.61 L 126.12 184.53 C 126.44 185.43 127.44 185.90 128.34 185.58 C 129.24 185.25 129.71 184.26 129.38 183.35 L 129.06 182.44 C 128.73 181.54 127.74 181.07 126.83 181.39 C 125.93 181.72 125.46 182.71 125.79 183.61 Z M 126.14 184.58 L 126.50 185.50 C 126.85 186.39 127.86 186.83 128.76 186.48 C 129.65 186.12 130.08 185.11 129.73 184.22 L 129.36 183.30 C 129.01 182.41 128.00 181.97 127.11 182.33 C 126.22 182.68 125.78 183.69 126.14 184.58 Z M 126.53 185.58 L 126.97 186.55 C 127.36 187.42 128.39 187.81 129.27 187.42 C 130.14 187.02 130.53 185.99 130.14 185.12 L 129.70 184.15 C 129.30 183.27 128.28 182.88 127.40 183.28 C 126.53 183.67 126.14 184.70 126.53 185.58 Z M 127.01 186.64 L 127.47 187.51 C 127.91 188.37 128.96 188.70 129.82 188.25 C 130.67 187.81 131.00 186.76 130.55 185.91 L 130.09 185.03 C 129.65 184.18 128.60 183.85 127.75 184.29 C 126.90 184.74 126.57 185.79 127.01 186.64 Z M 127.52 187.61 L 128.01 188.41 C 128.51 189.23 129.58 189.49 130.40 189.00 C 131.22 188.50 131.48 187.43 130.98 186.61 L 130.50 185.81 C 130.00 184.99 128.93 184.73 128.11 185.22 C 127.29 185.72 127.03 186.79 127.52 187.61 Z M 128.08 188.52 L 128.65 189.33 C 129.21 190.11 130.29 190.29 131.08 189.74 C 131.86 189.18 132.05 188.10 131.49 187.31 L 130.91 186.50 C 130.36 185.72 129.27 185.53 128.49 186.09 C 127.71 186.65 127.52 187.73 128.08 188.52 Z M 128.74 189.44 L 129.38 190.21 C 130.00 190.94 131.10 191.04 131.84 190.42 C 132.57 189.81 132.67 188.71 132.05 187.97 L 131.40 187.20 C 130.79 186.46 129.69 186.37 128.95 186.99 C 128.22 187.60 128.12 188.70 128.74 189.44 Z M 129.48 190.32 L 130.18 191.01 C 130.86 191.70 131.96 191.70 132.64 191.02 C 133.32 190.34 133.32 189.24 132.64 188.56 L 131.95 187.86 C 131.27 187.18 130.17 187.18 129.49 187.86 C 128.81 188.54 128.81 189.64 129.48 190.32 Z M 130.29 191.12 L 131.05 191.76 C 131.78 192.37 132.88 192.28 133.50 191.55 C 134.12 190.81 134.02 189.71 133.29 189.09 L 132.53 188.46 C 131.80 187.84 130.70 187.93 130.08 188.67 C 129.46 189.40 129.55 190.50 130.29 191.12 Z M 131.16 191.85 L 131.98 192.42 C 132.77 192.98 133.85 192.79 134.41 192.00 C 134.96 191.21 134.77 190.13 133.99 189.57 L 133.17 189.00 C 132.38 188.44 131.30 188.63 130.74 189.42 C 130.19 190.21 130.38 191.29 131.16 191.85 Z M 132.10 192.50 L 132.96 193.01 C 133.79 193.50 134.86 193.22 135.35 192.39 C 135.84 191.56 135.56 190.49 134.73 190.00 L 133.87 189.49 C 133.04 189.01 131.97 189.28 131.48 190.11 C 130.99 190.95 131.27 192.01 132.10 192.50 Z M 133.08 193.07 L 133.97 193.51 C 134.84 193.93 135.88 193.57 136.30 192.71 C 136.73 191.84 136.37 190.79 135.50 190.37 L 134.61 189.94 C 133.75 189.51 132.70 189.87 132.28 190.74 C 131.85 191.60 132.21 192.65 133.08 193.07 Z M 134.08 193.56 L 134.99 193.93 C 135.89 194.29 136.91 193.87 137.27 192.97 C 137.63 192.08 137.21 191.06 136.31 190.70 L 135.40 190.32 C 134.50 189.96 133.48 190.39 133.12 191.28 C 132.76 192.17 133.18 193.19 134.08 193.56 Z M 135.09 193.97 L 136.04 194.29 C 136.95 194.60 137.94 194.12 138.26 193.21 C 138.57 192.29 138.08 191.30 137.17 190.99 L 136.22 190.66 C 135.31 190.35 134.31 190.84 134.00 191.75 C 133.69 192.66 134.18 193.65 135.09 193.97 Z M 136.12 194.32 L 137.08 194.59 C 138.00 194.86 138.97 194.33 139.24 193.40 C 139.51 192.48 138.98 191.51 138.05 191.24 L 137.09 190.96 C 136.17 190.70 135.20 191.23 134.93 192.15 C 134.66 193.08 135.19 194.05 136.12 194.32 Z M 137.15 194.61 L 138.10 194.85 C 139.03 195.08 139.98 194.51 140.21 193.57 C 140.44 192.64 139.87 191.70 138.94 191.46 L 137.98 191.23 C 137.05 191.00 136.11 191.57 135.87 192.50 C 135.64 193.43 136.21 194.38 137.15 194.61 Z M 138.16 194.86 L 139.14 195.06 C 140.08 195.26 141.00 194.66 141.20 193.72 C 141.40 192.78 140.80 191.86 139.86 191.66 L 138.88 191.45 C 137.94 191.25 137.02 191.85 136.82 192.79 C 136.62 193.73 137.22 194.66 138.16 194.86 Z M 139.19 195.07 L 140.20 195.25 C 141.14 195.42 142.05 194.80 142.22 193.86 C 142.39 192.91 141.76 192.01 140.82 191.84 L 139.81 191.66 C 138.87 191.49 137.96 192.11 137.79 193.05 C 137.62 194.00 138.25 194.90 139.19 195.07 Z M 140.25 195.26 L 141.25 195.41 C 142.19 195.56 143.08 194.91 143.22 193.97 C 143.37 193.02 142.72 192.14 141.78 191.99 L 140.78 191.84 C 139.83 191.69 138.95 192.34 138.80 193.28 C 138.65 194.23 139.30 195.11 140.25 195.26 Z M 141.29 195.42 L 142.30 195.55 C 143.24 195.67 144.11 195.00 144.23 194.05 C 144.36 193.11 143.69 192.24 142.74 192.12 L 141.73 191.99 C 140.79 191.87 139.92 192.53 139.80 193.48 C 139.68 194.43 140.35 195.29 141.29 195.42 Z M 142.35 195.55 L 143.33 195.65 C 144.28 195.74 145.12 195.05 145.22 194.10 C 145.32 193.15 144.62 192.31 143.67 192.21 L 142.69 192.11 C 141.74 192.02 140.90 192.71 140.80 193.66 C 140.71 194.61 141.40 195.45 142.35 195.55 Z M 143.39 195.65 L 144.40 195.72 C 145.35 195.78 146.17 195.06 146.24 194.11 C 146.30 193.16 145.58 192.34 144.63 192.28 L 143.61 192.21 C 142.66 192.15 141.84 192.87 141.78 193.82 C 141.72 194.77 142.44 195.59 143.39 195.65 Z M 144.47 195.72 L 145.47 195.74 C 146.42 195.77 147.21 195.02 147.24 194.08 C 147.27 193.13 146.52 192.33 145.57 192.31 L 144.57 192.28 C 143.62 192.25 142.83 193.00 142.80 193.95 C 142.77 194.90 143.52 195.69 144.47 195.72 Z M 145.52 195.74 L 146.49 195.74 C 147.44 195.74 148.21 194.97 148.21 194.03 C 148.21 193.08 147.44 192.31 146.50 192.31 L 145.52 192.31 C 144.58 192.31 143.81 193.08 143.81 194.02 C 143.81 194.97 144.57 195.74 145.52 195.74 Z M 146.52 195.74 L 147.51 195.72 C 148.45 195.71 149.20 194.93 149.19 193.98 C 149.17 193.04 148.40 192.29 147.45 192.30 L 146.47 192.32 C 145.52 192.33 144.77 193.11 144.79 194.05 C 144.80 195.00 145.58 195.75 146.52 195.74 Z M 147.55 195.72 L 148.55 195.67 C 149.49 195.63 150.22 194.83 150.18 193.89 C 150.14 192.95 149.34 192.22 148.40 192.26 L 147.40 192.30 C 146.46 192.35 145.73 193.14 145.77 194.09 C 145.81 195.03 146.61 195.76 147.55 195.72 Z M 148.65 195.66 L 149.65 195.56 C 150.58 195.47 151.26 194.63 151.17 193.69 C 151.07 192.76 150.24 192.07 149.30 192.17 L 148.30 192.27 C 147.37 192.37 146.68 193.20 146.78 194.14 C 146.88 195.08 147.71 195.76 148.65 195.66 Z M 149.79 195.54 L 150.76 195.35 C 151.69 195.18 152.29 194.29 152.12 193.36 C 151.94 192.44 151.05 191.83 150.13 192.01 L 149.16 192.19 C 148.23 192.37 147.63 193.26 147.80 194.18 C 147.98 195.11 148.87 195.71 149.79 195.54 Z M 150.91 195.32 L 151.86 195.05 C 152.76 194.79 153.29 193.85 153.04 192.95 C 152.78 192.05 151.84 191.52 150.94 191.78 L 149.98 192.04 C 149.08 192.30 148.56 193.24 148.81 194.14 C 149.06 195.05 150.00 195.57 150.91 195.32 Z M 151.97 195.01 L 152.92 194.67 C 153.80 194.35 154.26 193.38 153.95 192.50 C 153.63 191.62 152.66 191.16 151.78 191.47 L 150.83 191.81 C 149.94 192.13 149.49 193.10 149.80 193.98 C 150.12 194.87 151.09 195.33 151.97 195.01 Z M 153.00 194.64 L 153.92 194.25 C 154.79 193.89 155.19 192.90 154.83 192.03 C 154.47 191.17 153.48 190.76 152.62 191.12 L 151.70 191.51 C 150.83 191.87 150.42 192.86 150.79 193.72 C 151.15 194.59 152.14 195.00 153.00 194.64 Z M 153.99 194.22 L 154.88 193.80 C 155.73 193.41 156.09 192.40 155.70 191.55 C 155.30 190.71 154.29 190.34 153.45 190.74 L 152.55 191.15 C 151.71 191.55 151.34 192.56 151.74 193.40 C 152.13 194.25 153.14 194.62 153.99 194.22 Z M 154.94 193.77 L 155.83 193.31 C 156.66 192.89 156.99 191.87 156.56 191.04 C 156.13 190.21 155.11 189.88 154.28 190.31 L 153.39 190.77 C 152.56 191.19 152.23 192.21 152.66 193.04 C 153.09 193.87 154.10 194.20 154.94 193.77 Z M 155.88 193.28 L 156.76 192.79 C 157.57 192.33 157.87 191.31 157.41 190.49 C 156.96 189.68 155.93 189.39 155.11 189.84 L 154.23 190.34 C 153.42 190.79 153.13 191.82 153.58 192.63 C 154.04 193.45 155.07 193.74 155.88 193.28 Z M 156.81 192.76 L 157.62 192.27 C 158.42 191.79 158.68 190.76 158.20 189.96 C 157.72 189.16 156.68 188.90 155.88 189.38 L 155.07 189.87 C 154.27 190.35 154.01 191.39 154.49 192.19 C 154.97 192.98 156.01 193.24 156.81 192.76 Z M 157.66 192.25 L 158.49 191.71 C 159.28 191.21 159.50 190.17 159.00 189.38 C 158.50 188.60 157.45 188.37 156.67 188.87 L 155.84 189.41 C 155.06 189.91 154.83 190.96 155.33 191.74 C 155.84 192.52 156.88 192.75 157.66 192.25 Z M 158.53 191.69 L 159.39 191.10 C 160.16 190.58 160.36 189.53 159.83 188.76 C 159.31 187.99 158.26 187.79 157.49 188.32 L 156.63 188.90 C 155.86 189.43 155.66 190.47 156.19 191.24 C 156.71 192.01 157.76 192.21 158.53 191.69 Z M 159.42 191.08 L 160.24 190.49 C 161.00 189.94 161.17 188.89 160.63 188.13 C 160.08 187.38 159.03 187.21 158.27 187.75 L 157.46 188.34 C 156.70 188.88 156.53 189.94 157.07 190.69 C 157.62 191.45 158.67 191.62 159.42 191.08 Z M 160.27 190.46 L 161.06 189.87 C 161.80 189.31 161.95 188.25 161.38 187.51 C 160.82 186.77 159.77 186.62 159.02 187.18 L 158.24 187.77 C 157.50 188.33 157.35 189.39 157.91 190.13 C 158.48 190.88 159.53 191.02 160.27 190.46 Z M 161.09 189.85 L 161.88 189.22 C 162.61 188.64 162.73 187.58 162.15 186.85 C 161.57 186.12 160.51 186.00 159.78 186.58 L 158.99 187.21 C 158.26 187.79 158.14 188.85 158.72 189.58 C 159.30 190.31 160.36 190.43 161.09 189.85 Z M 161.92 189.19 L 162.70 188.53 C 163.41 187.92 163.50 186.86 162.89 186.15 C 162.29 185.44 161.23 185.35 160.52 185.95 L 159.74 186.61 C 159.03 187.22 158.94 188.28 159.54 188.99 C 160.14 189.70 161.21 189.79 161.92 189.19 Z M 162.74 188.49 L 163.50 187.80 C 164.18 187.18 164.24 186.11 163.61 185.42 C 162.98 184.73 161.92 184.68 161.23 185.31 L 160.48 185.99 C 159.79 186.62 159.74 187.68 160.36 188.37 C 160.99 189.06 162.05 189.11 162.74 188.49 Z M 163.54 187.76 L 164.25 187.06 C 164.92 186.41 164.93 185.34 164.28 184.68 C 163.63 184.01 162.56 184.00 161.89 184.65 L 161.18 185.35 C 160.52 186.00 160.51 187.07 161.16 187.73 C 161.81 188.40 162.88 188.41 163.54 187.76 Z M 164.30 187.02 L 164.98 186.29 C 165.62 185.62 165.59 184.55 164.92 183.91 C 164.24 183.27 163.18 183.30 162.54 183.98 L 161.85 184.70 C 161.21 185.37 161.24 186.44 161.91 187.08 C 162.59 187.72 163.66 187.69 164.30 187.02 Z M 165.02 186.25 L 165.68 185.51 C 166.30 184.81 166.24 183.74 165.54 183.13 C 164.84 182.51 163.78 182.57 163.16 183.27 L 162.50 184.02 C 161.88 184.71 161.94 185.78 162.64 186.40 C 163.34 187.01 164.40 186.95 165.02 186.25 Z M 165.72 185.47 L 166.36 184.69 C 166.96 183.98 166.86 182.91 166.15 182.32 C 165.43 181.72 164.37 181.82 163.77 182.53 L 163.13 183.31 C 162.53 184.02 162.63 185.09 163.34 185.68 C 164.06 186.28 165.12 186.18 165.72 185.47 Z M 166.39 184.66 L 167.00 183.88 C 167.58 183.15 167.46 182.09 166.72 181.51 C 165.99 180.93 164.93 181.06 164.35 181.79 L 163.74 182.57 C 163.16 183.30 163.29 184.36 164.02 184.94 C 164.75 185.52 165.81 185.39 166.39 184.66 Z M 167.03 183.85 L 167.63 183.05 C 168.19 182.31 168.04 181.25 167.29 180.69 C 166.54 180.13 165.49 180.28 164.93 181.03 L 164.33 181.82 C 163.77 182.57 163.92 183.63 164.67 184.19 C 165.41 184.75 166.47 184.60 167.03 183.85 Z M 167.65 183.02 L 168.23 182.21 C 168.78 181.45 168.60 180.39 167.84 179.85 C 167.08 179.31 166.03 179.48 165.49 180.24 L 164.90 181.06 C 164.36 181.82 164.53 182.87 165.29 183.42 C 166.05 183.96 167.11 183.78 167.65 183.02 Z M 168.26 182.18 L 168.82 181.34 C 169.35 180.57 169.15 179.52 168.38 179.00 C 167.61 178.47 166.56 178.67 166.03 179.44 L 165.46 180.27 C 164.94 181.04 165.14 182.10 165.91 182.62 C 166.68 183.15 167.73 182.95 168.26 182.18 Z M 168.85 181.32 L 169.40 180.47 C 169.91 179.69 169.68 178.64 168.90 178.13 C 168.12 177.62 167.07 177.84 166.56 178.62 L 166.01 179.47 C 165.50 180.25 165.72 181.30 166.50 181.81 C 167.29 182.32 168.34 182.10 168.85 181.32 Z M 169.42 180.44 L 169.95 179.58 C 170.44 178.79 170.20 177.75 169.40 177.25 C 168.61 176.76 167.57 177.00 167.07 177.80 L 166.54 178.65 C 166.05 179.45 166.29 180.49 167.08 180.98 C 167.88 181.48 168.92 181.23 169.42 180.44 Z M 169.97 179.56 L 170.48 178.69 C 170.96 177.89 170.70 176.85 169.89 176.37 C 169.09 175.89 168.05 176.16 167.57 176.96 L 167.05 177.82 C 166.58 178.63 166.84 179.67 167.64 180.15 C 168.45 180.63 169.49 180.36 169.97 179.56 Z M 170.50 178.67 L 170.99 177.80 C 171.46 176.99 171.18 175.95 170.36 175.49 C 169.55 175.02 168.51 175.30 168.05 176.12 L 167.55 176.99 C 167.09 177.80 167.37 178.83 168.18 179.30 C 169.00 179.77 170.03 179.48 170.50 178.67 Z M 171.01 177.78 L 171.49 176.91 C 171.94 176.09 171.64 175.06 170.82 174.60 C 170.00 174.15 168.96 174.45 168.51 175.27 L 168.03 176.14 C 167.58 176.96 167.88 178.00 168.70 178.45 C 169.52 178.90 170.56 178.60 171.01 177.78 Z M 171.50 176.89 L 171.98 175.99 C 172.42 175.16 172.10 174.13 171.27 173.69 C 170.44 173.25 169.41 173.57 168.97 174.40 L 168.50 175.29 C 168.06 176.12 168.37 177.15 169.20 177.59 C 170.03 178.03 171.06 177.72 171.50 176.89 Z M 171.99 175.97 L 172.46 175.06 C 172.88 174.22 172.55 173.20 171.71 172.77 C 170.88 172.34 169.85 172.67 169.42 173.51 L 168.96 174.42 C 168.53 175.26 168.86 176.28 169.70 176.71 C 170.54 177.14 171.56 176.80 171.99 175.97 Z M 172.47 175.03 L 172.91 174.13 C 173.33 173.29 172.98 172.27 172.13 171.85 C 171.29 171.44 170.27 171.79 169.85 172.63 L 169.41 173.53 C 169.00 174.38 169.35 175.40 170.19 175.81 C 171.04 176.23 172.06 175.88 172.47 175.03 Z M 172.93 174.11 L 173.34 173.22 C 173.74 172.36 173.37 171.35 172.52 170.95 C 171.67 170.55 170.65 170.92 170.25 171.77 L 169.84 172.66 C 169.44 173.52 169.81 174.53 170.66 174.93 C 171.51 175.33 172.53 174.96 172.93 174.11 Z M 173.36 173.19 L 173.76 172.28 C 174.14 171.42 173.75 170.41 172.89 170.03 C 172.02 169.65 171.02 170.04 170.63 170.90 L 170.23 171.80 C 169.85 172.67 170.24 173.68 171.11 174.06 C 171.97 174.44 172.98 174.05 173.36 173.19 Z M 173.77 172.25 L 174.17 171.31 C 174.53 170.43 174.11 169.43 173.24 169.07 C 172.37 168.71 171.37 169.12 171.01 170.00 L 170.62 170.94 C 170.25 171.81 170.67 172.81 171.54 173.17 C 172.41 173.53 173.41 173.12 173.77 172.25 Z M 174.18 171.27 L 174.54 170.34 C 174.88 169.46 174.45 168.47 173.57 168.13 C 172.69 167.78 171.70 168.22 171.35 169.10 L 170.99 170.03 C 170.65 170.91 171.09 171.90 171.97 172.25 C 172.85 172.59 173.84 172.15 174.18 171.27 Z M 174.56 170.30 L 174.89 169.38 C 175.22 168.49 174.76 167.51 173.87 167.19 C 172.98 166.86 172.00 167.32 171.67 168.21 L 171.34 169.14 C 171.02 170.03 171.48 171.01 172.36 171.33 C 173.25 171.65 174.24 171.19 174.56 170.30 Z M 174.91 169.35 L 175.23 168.39 C 175.53 167.50 175.05 166.53 174.16 166.22 C 173.26 165.92 172.29 166.40 171.98 167.29 L 171.66 168.25 C 171.36 169.14 171.84 170.12 172.73 170.42 C 173.63 170.72 174.60 170.24 174.91 169.35 Z M 175.24 168.36 L 175.55 167.36 C 175.84 166.46 175.33 165.49 174.43 165.21 C 173.52 164.93 172.56 165.43 172.28 166.34 L 171.97 167.33 C 171.69 168.24 172.19 169.20 173.09 169.48 C 174.00 169.76 174.96 169.26 175.24 168.36 Z M 175.57 167.31 L 175.84 166.33 C 176.09 165.42 175.56 164.47 174.64 164.22 C 173.73 163.97 172.78 164.51 172.53 165.42 L 172.26 166.39 C 172.01 167.31 172.55 168.25 173.46 168.50 C 174.37 168.76 175.32 168.22 175.57 167.31 Z M 175.86 166.26 L 176.07 165.33 C 176.28 164.40 175.70 163.48 174.78 163.27 C 173.85 163.06 172.93 163.64 172.72 164.56 L 172.51 165.49 C 172.30 166.42 172.88 167.34 173.80 167.55 C 174.73 167.76 175.65 167.18 175.86 166.26 Z M 176.10 165.22 L 176.26 164.21 C 176.41 163.27 175.77 162.39 174.83 162.24 C 173.89 162.09 173.01 162.73 172.86 163.67 L 172.70 164.68 C 172.55 165.61 173.19 166.50 174.13 166.64 C 175.07 166.79 175.95 166.15 176.10 165.22 Z M 176.27 164.08 L 176.36 163.09 C 176.44 162.14 175.73 161.31 174.79 161.23 C 173.84 161.15 173.01 161.85 172.93 162.80 L 172.84 163.79 C 172.76 164.74 173.47 165.57 174.41 165.65 C 175.36 165.73 176.19 165.03 176.27 164.08 Z M 176.36 163.00 L 176.39 162.03 C 176.43 161.08 175.68 160.29 174.73 160.26 C 173.78 160.23 172.98 160.97 172.95 161.92 L 172.92 162.89 C 172.89 163.84 173.64 164.63 174.59 164.66 C 175.54 164.69 176.33 163.95 176.36 163.00 Z M 176.40 162.00 L 176.41 161.03 C 176.42 160.07 175.65 159.29 174.70 159.29 C 173.75 159.28 172.97 160.04 172.96 160.99 L 172.95 161.96 C 172.94 162.92 173.70 163.70 174.66 163.70 C 175.61 163.71 176.39 162.95 176.40 162.00 Z M 176.41 160.99 L 176.40 160.00 C 176.38 159.04 175.60 158.28 174.65 158.29 C 173.69 158.31 172.93 159.09 172.94 160.04 L 172.95 161.03 C 172.97 161.99 173.75 162.75 174.70 162.74 C 175.66 162.73 176.42 161.94 176.41 160.99 Z M 176.40 159.93 L 176.34 158.91 C 176.30 157.96 175.48 157.23 174.53 157.27 C 173.58 157.32 172.84 158.14 172.89 159.09 L 172.94 160.11 C 172.99 161.06 173.80 161.80 174.76 161.75 C 175.71 161.70 176.44 160.89 176.40 159.93 Z M 176.34 158.83 L 176.24 157.86 C 176.15 156.91 175.30 156.21 174.35 156.31 C 173.39 156.40 172.70 157.25 172.80 158.20 L 172.89 159.17 C 172.99 160.13 173.84 160.82 174.79 160.72 C 175.74 160.63 176.44 159.78 176.34 158.83 Z M 176.24 157.77 L 176.09 156.79 C 175.94 155.84 175.06 155.19 174.11 155.34 C 173.16 155.48 172.51 156.37 172.65 157.32 L 172.80 158.29 C 172.95 159.24 173.83 159.89 174.78 159.75 C 175.73 159.60 176.38 158.72 176.24 157.77 Z M 176.07 156.70 L 175.87 155.70 C 175.67 154.76 174.75 154.15 173.81 154.35 C 172.87 154.54 172.27 155.46 172.46 156.41 L 172.67 157.41 C 172.86 158.35 173.78 158.95 174.72 158.76 C 175.66 158.56 176.27 157.64 176.07 156.70 Z M 175.85 155.61 L 175.60 154.65 C 175.35 153.71 174.40 153.16 173.47 153.40 C 172.54 153.65 171.98 154.60 172.22 155.53 L 172.48 156.49 C 172.72 157.43 173.67 157.98 174.61 157.74 C 175.54 157.50 176.09 156.54 175.85 155.61 Z M 175.58 154.57 L 175.29 153.64 C 175.00 152.72 174.02 152.21 173.10 152.49 C 172.18 152.78 171.67 153.76 171.95 154.68 L 172.24 155.61 C 172.53 156.53 173.51 157.04 174.43 156.75 C 175.35 156.47 175.86 155.49 175.58 154.57 Z M 175.27 153.58 L 174.94 152.63 C 174.61 151.72 173.62 151.24 172.71 151.56 C 171.80 151.88 171.32 152.88 171.64 153.79 L 171.97 154.74 C 172.29 155.65 173.29 156.13 174.20 155.81 C 175.11 155.49 175.59 154.49 175.27 153.58 Z M 174.92 152.58 L 174.54 151.61 C 174.20 150.71 173.18 150.26 172.28 150.61 C 171.38 150.96 170.93 151.97 171.28 152.87 L 171.66 153.84 C 172.00 154.74 173.02 155.19 173.92 154.84 C 174.82 154.49 175.27 153.48 174.92 152.58 Z M 174.53 151.57 L 174.16 150.68 C 173.79 149.79 172.77 149.36 171.88 149.73 C 170.98 150.10 170.56 151.13 170.93 152.02 L 171.29 152.91 C 171.66 153.81 172.69 154.23 173.58 153.86 C 174.48 153.49 174.90 152.47 174.53 151.57 Z M 174.15 150.65 L 173.76 149.76 C 173.38 148.87 172.34 148.46 171.45 148.85 C 170.57 149.24 170.16 150.27 170.55 151.16 L 170.94 152.05 C 171.32 152.94 172.36 153.35 173.25 152.96 C 174.13 152.57 174.54 151.54 174.15 150.65 Z M 173.75 149.73 L 173.33 148.81 C 172.93 147.93 171.88 147.54 171.00 147.95 C 170.12 148.35 169.73 149.40 170.14 150.28 L 170.56 151.19 C 170.96 152.07 172.01 152.46 172.89 152.06 C 173.77 151.65 174.16 150.61 173.75 149.73 Z M 173.32 148.78 L 172.87 147.84 C 172.45 146.97 171.39 146.60 170.52 147.02 C 169.64 147.44 169.28 148.49 169.70 149.37 L 170.15 150.31 C 170.57 151.18 171.62 151.55 172.50 151.13 C 173.38 150.71 173.74 149.66 173.32 148.78 Z M 172.86 147.81 L 172.40 146.91 C 171.96 146.04 170.90 145.69 170.03 146.13 C 169.16 146.56 168.82 147.62 169.25 148.49 L 169.71 149.40 C 170.15 150.27 171.21 150.62 172.08 150.18 C 172.95 149.74 173.29 148.68 172.86 147.81 Z M 172.39 146.88 L 171.92 145.99 C 171.46 145.13 170.40 144.80 169.53 145.25 C 168.67 145.71 168.34 146.77 168.80 147.63 L 169.27 148.52 C 169.72 149.38 170.79 149.71 171.65 149.26 C 172.51 148.80 172.84 147.74 172.39 146.88 Z M 171.90 145.95 L 171.40 145.07 C 170.93 144.22 169.86 143.91 169.01 144.39 C 168.15 144.86 167.85 145.93 168.32 146.79 L 168.82 147.67 C 169.29 148.52 170.37 148.83 171.22 148.35 C 172.07 147.88 172.37 146.80 171.90 145.95 Z M 171.38 145.02 L 170.87 144.16 C 170.37 143.32 169.29 143.05 168.45 143.55 C 167.61 144.04 167.34 145.13 167.83 145.97 L 168.35 146.83 C 168.85 147.67 169.93 147.94 170.77 147.44 C 171.60 146.94 171.88 145.86 171.38 145.02 Z M 170.84 144.11 L 170.30 143.28 C 169.77 142.46 168.68 142.22 167.86 142.75 C 167.04 143.27 166.80 144.37 167.33 145.19 L 167.87 146.02 C 168.39 146.84 169.49 147.07 170.31 146.55 C 171.13 146.02 171.36 144.93 170.84 144.11 Z M 170.26 143.21 L 169.67 142.38 C 169.11 141.58 168.00 141.39 167.21 141.95 C 166.41 142.51 166.22 143.61 166.78 144.41 L 167.37 145.25 C 167.93 146.04 169.04 146.24 169.83 145.67 C 170.63 145.11 170.82 144.01 170.26 143.21 Z M 169.62 142.31 L 169.01 141.52 C 168.41 140.75 167.30 140.61 166.53 141.21 C 165.76 141.81 165.62 142.91 166.22 143.68 L 166.83 144.47 C 167.43 145.24 168.54 145.39 169.31 144.79 C 170.08 144.19 170.22 143.08 169.62 142.31 Z M 168.96 141.46 L 168.32 140.71 C 167.69 139.97 166.58 139.87 165.84 140.50 C 165.09 141.13 165.00 142.25 165.63 142.99 L 166.27 143.74 C 166.90 144.49 168.01 144.58 168.75 143.95 C 169.50 143.32 169.59 142.21 168.96 141.46 Z M 168.28 140.66 L 167.61 139.93 C 166.95 139.21 165.84 139.16 165.12 139.82 C 164.40 140.48 164.35 141.60 165.01 142.32 L 165.67 143.04 C 166.33 143.76 167.45 143.81 168.17 143.15 C 168.89 142.49 168.93 141.38 168.28 140.66 Z M 167.57 139.89 L 166.88 139.18 C 166.20 138.49 165.08 138.48 164.38 139.16 C 163.69 139.84 163.68 140.96 164.36 141.66 L 165.05 142.36 C 165.73 143.05 166.85 143.06 167.54 142.38 C 168.24 141.70 168.25 140.58 167.57 139.89 Z M 166.84 139.15 L 166.12 138.46 C 165.42 137.78 164.30 137.81 163.63 138.51 C 162.95 139.21 162.98 140.33 163.68 141.00 L 164.40 141.69 C 165.10 142.37 166.22 142.35 166.89 141.64 C 167.57 140.94 167.54 139.82 166.84 139.15 Z M 166.09 138.43 L 165.35 137.75 C 164.63 137.09 163.52 137.15 162.86 137.87 C 162.20 138.59 162.25 139.70 162.97 140.36 L 163.71 141.04 C 164.43 141.69 165.55 141.64 166.21 140.92 C 166.86 140.20 166.81 139.09 166.09 138.43 Z M 165.32 137.73 L 164.56 137.06 C 163.83 136.42 162.71 136.49 162.07 137.23 C 161.43 137.96 161.51 139.08 162.24 139.72 L 163.00 140.38 C 163.73 141.03 164.85 140.95 165.49 140.22 C 166.13 139.48 166.06 138.37 165.32 137.73 Z M 164.54 137.04 L 163.77 136.39 C 163.02 135.76 161.91 135.86 161.28 136.61 C 160.65 137.35 160.75 138.46 161.49 139.09 L 162.26 139.74 C 163.01 140.37 164.12 140.27 164.75 139.53 C 165.38 138.78 165.28 137.67 164.54 137.04 Z M 163.75 136.37 L 162.97 135.74 C 162.22 135.13 161.10 135.24 160.49 136.00 C 159.87 136.75 159.99 137.86 160.74 138.48 L 161.52 139.11 C 162.27 139.73 163.39 139.61 164.00 138.86 C 164.62 138.10 164.50 136.99 163.75 136.37 Z M 162.95 135.72 L 162.17 135.10 C 161.40 134.50 160.29 134.63 159.68 135.40 C 159.08 136.16 159.21 137.28 159.98 137.88 L 160.76 138.50 C 161.53 139.10 162.64 138.97 163.25 138.21 C 163.85 137.44 163.72 136.33 162.95 135.72 Z M 162.14 135.09 L 161.35 134.48 C 160.57 133.89 159.46 134.04 158.87 134.81 C 158.28 135.59 158.43 136.70 159.20 137.29 L 160.00 137.90 C 160.78 138.49 161.89 138.34 162.48 137.56 C 163.07 136.79 162.92 135.68 162.14 135.09 Z M 161.33 134.46 L 160.52 133.87 C 159.73 133.29 158.63 133.45 158.05 134.24 C 157.47 135.03 157.63 136.13 158.42 136.71 L 159.23 137.31 C 160.01 137.89 161.12 137.72 161.70 136.94 C 162.28 136.15 162.11 135.04 161.33 134.46 Z M 160.50 133.85 L 159.68 133.26 C 158.88 132.70 157.78 132.88 157.21 133.68 C 156.64 134.47 156.82 135.58 157.62 136.15 L 158.44 136.73 C 159.24 137.30 160.34 137.11 160.91 136.32 C 161.48 135.52 161.29 134.42 160.50 133.85 Z M 159.65 133.24 L 158.82 132.68 C 158.02 132.12 156.91 132.33 156.36 133.13 C 155.81 133.94 156.01 135.04 156.82 135.60 L 157.65 136.16 C 158.45 136.72 159.56 136.51 160.11 135.71 C 160.66 134.90 160.46 133.80 159.65 133.24 Z M 158.79 132.65 L 157.96 132.11 C 157.14 131.57 156.04 131.80 155.50 132.62 C 154.97 133.43 155.19 134.53 156.01 135.07 L 156.85 135.62 C 157.67 136.15 158.76 135.93 159.30 135.11 C 159.84 134.29 159.61 133.19 158.79 132.65 Z M 157.92 132.08 L 157.08 131.56 C 156.25 131.04 155.16 131.29 154.64 132.13 C 154.12 132.96 154.38 134.05 155.21 134.57 L 156.05 135.09 C 156.88 135.61 157.97 135.36 158.49 134.53 C 159.01 133.70 158.75 132.60 157.92 132.08 Z M 157.04 131.53 L 156.18 131.03 C 155.34 130.53 154.25 130.81 153.75 131.66 C 153.26 132.50 153.54 133.59 154.38 134.09 L 155.25 134.59 C 156.09 135.09 157.18 134.81 157.67 133.96 C 158.17 133.12 157.89 132.03 157.04 131.53 Z M 156.14 131.00 L 155.26 130.52 C 154.40 130.05 153.33 130.36 152.85 131.22 C 152.38 132.08 152.70 133.16 153.55 133.63 L 154.43 134.11 C 155.29 134.58 156.37 134.27 156.84 133.41 C 157.31 132.55 157.00 131.47 156.14 131.00 Z M 155.22 130.50 L 154.33 130.04 C 153.45 129.60 152.39 129.94 151.94 130.82 C 151.49 131.69 151.84 132.76 152.72 133.21 L 153.60 133.66 C 154.48 134.10 155.55 133.76 155.99 132.88 C 156.44 132.01 156.09 130.94 155.22 130.50 Z M 154.28 130.02 L 153.37 129.59 C 152.48 129.17 151.43 129.56 151.01 130.44 C 150.59 131.33 150.97 132.39 151.86 132.81 L 152.77 133.23 C 153.65 133.65 154.71 133.27 155.13 132.38 C 155.55 131.49 155.16 130.43 154.28 130.02 Z M 153.32 129.57 L 152.39 129.17 C 151.49 128.78 150.44 129.20 150.05 130.10 C 149.67 131.00 150.08 132.04 150.99 132.43 L 151.92 132.83 C 152.82 133.22 153.86 132.80 154.25 131.90 C 154.64 131.00 154.22 129.95 153.32 129.57 Z M 152.33 129.14 L 151.38 128.77 C 150.46 128.42 149.43 128.88 149.08 129.79 C 148.72 130.71 149.18 131.74 150.10 132.09 L 151.05 132.46 C 151.96 132.81 152.99 132.36 153.34 131.44 C 153.70 130.52 153.24 129.50 152.33 129.14 Z M 151.30 128.75 L 150.35 128.42 C 149.42 128.11 148.41 128.61 148.09 129.54 C 147.78 130.47 148.28 131.48 149.21 131.80 L 150.17 132.12 C 151.10 132.43 152.11 131.93 152.42 131.00 C 152.74 130.07 152.23 129.06 151.30 128.75 Z M 150.25 128.40 L 149.30 128.13 C 148.36 127.87 147.38 128.42 147.11 129.37 C 146.85 130.32 147.41 131.30 148.35 131.56 L 149.30 131.83 C 150.25 132.09 151.23 131.53 151.49 130.59 C 151.76 129.64 151.20 128.66 150.25 128.40 Z M 149.19 128.10 L 148.22 127.90 C 147.26 127.71 146.32 128.33 146.12 129.29 C 145.92 130.25 146.54 131.19 147.51 131.39 L 148.47 131.59 C 149.43 131.79 150.37 131.17 150.57 130.20 C 150.77 129.24 150.15 128.30 149.19 128.10 Z M 148.08 127.88 L 147.09 127.76 C 146.11 127.63 145.22 128.33 145.10 129.30 C 144.98 130.28 145.67 131.17 146.65 131.29 L 147.64 131.42 C 148.62 131.54 149.51 130.85 149.63 129.87 C 149.75 128.89 149.06 128.00 148.08 127.88 Z M 146.95 127.74 L 145.97 127.69 C 144.98 127.65 144.15 128.40 144.10 129.39 C 144.05 130.37 144.81 131.21 145.79 131.26 L 146.78 131.30 C 147.76 131.35 148.60 130.60 148.65 129.61 C 148.70 128.63 147.94 127.79 146.95 127.74 Z M 145.86 127.69 L 144.86 127.70 C 143.88 127.72 143.09 128.52 143.10 129.51 C 143.12 130.49 143.92 131.28 144.91 131.27 L 145.90 131.26 C 146.89 131.25 147.67 130.44 147.66 129.45 C 147.65 128.47 146.84 127.68 145.86 127.69 Z M 144.78 127.71 L 143.81 127.76 C 142.82 127.82 142.07 128.67 142.13 129.65 C 142.19 130.63 143.03 131.38 144.02 131.33 L 144.99 131.27 C 145.98 131.21 146.73 130.37 146.67 129.38 C 146.61 128.40 145.77 127.65 144.78 127.71 Z M 143.73 127.77 L 142.77 127.87 C 141.79 127.97 141.08 128.84 141.18 129.82 C 141.28 130.80 142.15 131.52 143.13 131.42 L 144.09 131.32 C 145.07 131.22 145.79 130.34 145.69 129.36 C 145.59 128.38 144.71 127.67 143.73 127.77 Z M 142.67 127.88 L 141.69 128.04 C 140.72 128.19 140.05 129.11 140.21 130.08 C 140.36 131.05 141.28 131.71 142.25 131.56 L 143.23 131.40 C 144.20 131.25 144.87 130.34 144.71 129.36 C 144.56 128.39 143.64 127.73 142.67 127.88 Z M 141.57 128.06 L 140.57 128.29 C 139.61 128.51 139.01 129.47 139.23 130.43 C 139.45 131.38 140.41 131.98 141.37 131.76 L 142.37 131.54 C 143.33 131.32 143.93 130.36 143.71 129.40 C 143.49 128.44 142.53 127.84 141.57 128.06 Z M 140.44 128.33 L 139.47 128.63 C 138.53 128.92 138.01 129.92 138.30 130.86 C 138.59 131.79 139.59 132.32 140.52 132.03 L 141.50 131.73 C 142.44 131.44 142.96 130.44 142.67 129.50 C 142.38 128.56 141.38 128.04 140.44 128.33 Z M 139.35 128.67 L 138.46 129.02 C 137.55 129.37 137.09 130.40 137.45 131.32 C 137.80 132.23 138.83 132.69 139.75 132.33 L 140.64 131.99 C 141.56 131.63 142.01 130.60 141.66 129.69 C 141.30 128.77 140.27 128.32 139.35 128.67 Z M 138.37 129.06 L 137.47 129.47 C 136.58 129.87 136.18 130.92 136.59 131.82 C 136.99 132.71 138.04 133.11 138.94 132.70 L 139.84 132.29 C 140.73 131.89 141.13 130.84 140.72 129.94 C 140.32 129.05 139.26 128.65 138.37 129.06 Z M 137.40 129.50 L 136.49 129.97 C 135.62 130.41 135.27 131.48 135.72 132.35 C 136.16 133.23 137.23 133.57 138.10 133.13 L 139.01 132.66 C 139.88 132.22 140.23 131.15 139.78 130.28 C 139.34 129.40 138.27 129.06 137.40 129.50 Z M 136.43 130.00 L 135.53 130.51 C 134.67 130.98 134.37 132.06 134.85 132.92 C 135.33 133.77 136.41 134.08 137.26 133.60 L 138.16 133.09 C 139.02 132.61 139.32 131.53 138.84 130.68 C 138.37 129.83 137.29 129.52 136.43 130.00 Z M 135.48 130.54 L 134.61 131.06 C 133.77 131.56 133.50 132.65 134.01 133.49 C 134.51 134.33 135.60 134.60 136.44 134.09 L 137.31 133.57 C 138.14 133.06 138.41 131.98 137.91 131.14 C 137.41 130.30 136.32 130.03 135.48 130.54 Z M 134.57 131.09 L 133.73 131.63 C 132.91 132.15 132.67 133.24 133.19 134.06 C 133.72 134.89 134.81 135.13 135.63 134.60 L 136.47 134.06 C 137.29 133.54 137.54 132.45 137.01 131.63 C 136.49 130.80 135.40 130.56 134.57 131.09 Z M 133.70 131.65 L 132.87 132.21 C 132.06 132.75 131.85 133.85 132.39 134.66 C 132.93 135.46 134.03 135.68 134.83 135.13 L 135.67 134.57 C 136.47 134.03 136.69 132.94 136.14 132.13 C 135.60 131.32 134.51 131.11 133.70 131.65 Z M 132.84 132.24 L 132.02 132.82 C 131.22 133.38 131.03 134.47 131.59 135.27 C 132.15 136.06 133.25 136.25 134.04 135.69 L 134.86 135.11 C 135.66 134.55 135.85 133.45 135.29 132.66 C 134.73 131.87 133.63 131.68 132.84 132.24 Z M 131.99 132.84 L 131.18 133.44 C 130.40 134.01 130.24 135.11 130.81 135.89 C 131.39 136.67 132.49 136.83 133.27 136.26 L 134.07 135.66 C 134.85 135.09 135.02 133.99 134.44 133.21 C 133.87 132.43 132.77 132.26 131.99 132.84 Z M 131.16 133.46 L 130.36 134.07 C 129.60 134.66 129.45 135.76 130.04 136.52 C 130.63 137.29 131.73 137.43 132.50 136.84 L 133.29 136.23 C 134.06 135.64 134.20 134.55 133.61 133.78 C 133.02 133.01 131.92 132.87 131.16 133.46 Z M 130.34 134.09 L 129.56 134.72 C 128.81 135.32 128.68 136.42 129.29 137.17 C 129.89 137.93 130.99 138.05 131.74 137.45 L 132.52 136.82 C 133.27 136.22 133.40 135.12 132.79 134.37 C 132.19 133.61 131.09 133.49 130.34 134.09 Z M 129.54 134.75 L 128.77 135.38 C 128.03 136.00 127.93 137.10 128.55 137.84 C 129.16 138.57 130.26 138.67 131.00 138.06 L 131.76 137.42 C 132.50 136.81 132.60 135.71 131.99 134.97 C 131.37 134.23 130.27 134.13 129.54 134.75 Z M 128.75 135.41 L 127.99 136.06 C 127.27 136.69 127.19 137.78 127.81 138.51 C 128.44 139.23 129.54 139.31 130.26 138.69 L 131.02 138.04 C 131.74 137.41 131.82 136.31 131.20 135.59 C 130.57 134.86 129.47 134.78 128.75 135.41 Z M 127.97 136.08 L 127.23 136.75 C 126.52 137.39 126.46 138.48 127.09 139.19 C 127.73 139.91 128.82 139.97 129.54 139.33 L 130.28 138.66 C 130.99 138.03 131.06 136.93 130.42 136.22 C 129.78 135.51 128.69 135.45 127.97 136.08 Z M 127.21 136.77 L 126.47 137.46 C 125.77 138.11 125.73 139.20 126.37 139.90 C 127.02 140.60 128.11 140.64 128.81 139.99 L 129.55 139.31 C 130.25 138.66 130.30 137.57 129.65 136.87 C 129.00 136.17 127.91 136.13 127.21 136.77 Z M 126.45 137.49 L 125.71 138.20 C 125.02 138.85 125.00 139.94 125.66 140.62 C 126.31 141.31 127.40 141.33 128.09 140.68 L 128.83 139.97 C 129.51 139.31 129.54 138.22 128.88 137.54 C 128.22 136.85 127.14 136.83 126.45 137.49 Z M 125.69 138.23 L 124.97 138.95 C 124.30 139.61 124.30 140.70 124.97 141.37 C 125.64 142.03 126.72 142.03 127.39 141.37 L 128.11 140.65 C 128.77 139.98 128.78 138.90 128.11 138.23 C 127.44 137.56 126.36 137.56 125.69 138.23 Z M 124.94 138.98 L 124.26 139.71 C 123.61 140.39 123.64 141.47 124.32 142.12 C 125.00 142.76 126.08 142.73 126.73 142.05 L 127.41 141.33 C 128.06 140.65 128.03 139.57 127.35 138.92 C 126.67 138.27 125.59 138.30 124.94 138.98 Z M 124.22 139.75 L 123.58 140.48 C 122.96 141.18 123.02 142.25 123.72 142.87 C 124.42 143.49 125.49 143.43 126.11 142.73 L 126.76 142.01 C 127.38 141.31 127.32 140.24 126.62 139.61 C 125.92 138.99 124.85 139.05 124.22 139.75 Z M 123.54 140.54 L 122.90 141.31 C 122.31 142.03 122.42 143.10 123.14 143.69 C 123.86 144.28 124.92 144.17 125.51 143.45 L 126.15 142.68 C 126.74 141.95 126.64 140.89 125.91 140.30 C 125.19 139.71 124.13 139.82 123.54 140.54 Z M 122.86 141.38 L 122.25 142.20 C 121.70 142.95 121.86 144.00 122.60 144.55 C 123.35 145.11 124.40 144.95 124.95 144.20 L 125.56 143.38 C 126.11 142.64 125.95 141.58 125.21 141.03 C 124.46 140.48 123.41 140.64 122.86 141.38 Z M 122.20 142.28 L 121.66 143.11 C 121.15 143.88 121.36 144.92 122.13 145.43 C 122.91 145.94 123.94 145.72 124.45 144.95 L 125.00 144.13 C 125.51 143.35 125.29 142.32 124.52 141.81 C 123.75 141.30 122.71 141.51 122.20 142.28 Z M 121.62 143.19 L 121.12 144.03 C 120.66 144.83 120.93 145.85 121.72 146.31 C 122.52 146.78 123.54 146.51 124.00 145.72 L 124.50 144.87 C 124.96 144.08 124.69 143.06 123.90 142.59 C 123.10 142.13 122.08 142.39 121.62 143.19 Z M 121.09 144.11 L 120.64 144.98 C 120.22 145.79 120.54 146.79 121.35 147.22 C 122.17 147.64 123.17 147.32 123.59 146.50 L 124.04 145.64 C 124.46 144.82 124.14 143.82 123.33 143.40 C 122.51 142.98 121.51 143.30 121.09 144.11 Z M 120.61 145.05 L 120.20 145.94 C 119.82 146.78 120.19 147.76 121.02 148.14 C 121.85 148.52 122.83 148.15 123.21 147.32 L 123.62 146.43 C 124.00 145.60 123.64 144.62 122.80 144.23 C 121.97 143.85 120.99 144.22 120.61 145.05 Z M 120.17 146.01 L 119.80 146.93 C 119.46 147.78 119.87 148.74 120.71 149.09 C 121.56 149.43 122.52 149.02 122.86 148.18 L 123.24 147.25 C 123.58 146.41 123.17 145.44 122.33 145.10 C 121.48 144.76 120.52 145.17 120.17 146.01 Z M 119.78 147.00 L 119.44 147.94 C 119.13 148.80 119.58 149.75 120.43 150.05 C 121.29 150.36 122.24 149.92 122.54 149.06 L 122.88 148.11 C 123.19 147.26 122.75 146.31 121.89 146.00 C 121.03 145.69 120.09 146.14 119.78 147.00 Z M 119.42 148.00 L 119.11 148.97 C 118.84 149.84 119.32 150.77 120.18 151.04 C 121.05 151.32 121.97 150.84 122.25 149.97 L 122.56 149.00 C 122.84 148.14 122.36 147.21 121.49 146.93 C 120.63 146.66 119.70 147.14 119.42 148.00 Z M 119.10 149.03 L 118.83 149.98 C 118.58 150.85 119.09 151.76 119.96 152.01 C 120.84 152.26 121.74 151.75 121.99 150.88 L 122.26 149.92 C 122.51 149.05 122.00 148.14 121.13 147.89 C 120.26 147.64 119.35 148.15 119.10 149.03 Z M 118.82 150.02 L 118.57 150.98 C 118.35 151.86 118.88 152.76 119.76 152.98 C 120.63 153.21 121.53 152.68 121.75 151.80 L 122.00 150.84 C 122.23 149.96 121.70 149.06 120.82 148.84 C 119.94 148.61 119.05 149.14 118.82 150.02 Z M 118.57 151.01 L 118.34 151.99 C 118.13 152.87 118.67 153.75 119.55 153.96 C 120.43 154.17 121.32 153.63 121.53 152.75 L 121.76 151.77 C 121.97 150.89 121.43 150.00 120.54 149.79 C 119.66 149.58 118.78 150.13 118.57 151.01 Z M 118.33 152.00 L 118.11 152.99 C 117.91 153.87 118.46 154.75 119.35 154.95 C 120.23 155.15 121.11 154.59 121.31 153.71 L 121.53 152.73 C 121.73 151.85 121.18 150.97 120.29 150.77 C 119.41 150.57 118.53 151.12 118.33 152.00 Z M 118.11 152.99 L 117.97 153.62 C 117.77 154.51 118.33 155.38 119.21 155.58 C 120.10 155.77 120.97 155.22 121.17 154.33 L 121.31 153.70 C 121.50 152.82 120.95 151.95 120.06 151.75 C 119.18 151.55 118.31 152.11 118.11 152.99 Z"
      fill="black"
      fill-rule="nonzero" /></svg>