<svg xmlns="http://www.w3.org/2000/svg" width="300" height="300" viewBox="0 0 300 300">
<path d="M 156.03 138.30 L 155.27 137.64 C 154.65 137.11 153.72 137.18 153.18 137.80 C 152.65 138.42 152.72 139.35 153.34 139.88 L 154.10 140.54 C 154.71 141.07 155.65 141.00 156.18 140.38 C 156.71 139.77 156.65 138.83 156.03 138.30 Z M 155.25 137.62 L 154.48 136.98 C 153.84 136.46 152.91 136.55 152.39 137.19 C 151.87 137.82 151.96 138.75 152.59 139.27 L 153.36 139.91 C 153.99 140.43 154.93 140.34 155.45 139.71 C 155.97 139.07 155.88 138.14 155.25 137.62 Z M 154.44 136.94 L 153.64 136.34 C 152.99 135.84 152.05 135.97 151.55 136.62 C 151.06 137.27 151.18 138.21 151.84 138.71 L 152.63 139.31 C 153.28 139.81 154.22 139.69 154.72 139.03 C 155.22 138.38 155.09 137.44 154.44 136.94 Z M 153.60 136.30 L 152.79 135.73 C 152.11 135.25 151.17 135.41 150.70 136.09 C 150.22 136.77 150.39 137.70 151.06 138.18 L 151.88 138.75 C 152.56 139.23 153.49 139.06 153.97 138.38 C 154.44 137.71 154.28 136.77 153.60 136.30 Z M 152.72 135.67 L 151.86 135.14 C 151.15 134.70 150.22 134.92 149.78 135.63 C 149.35 136.34 149.57 137.27 150.28 137.71 L 151.13 138.24 C 151.84 138.68 152.77 138.45 153.21 137.74 C 153.65 137.03 153.43 136.10 152.72 135.67 Z M 151.74 135.07 L 150.85 134.63 C 150.10 134.25 149.19 134.56 148.82 135.31 C 148.45 136.06 148.76 136.97 149.51 137.34 L 150.40 137.78 C 151.15 138.16 152.05 137.85 152.43 137.10 C 152.80 136.35 152.49 135.44 151.74 135.07 Z M 150.66 134.55 L 149.74 134.24 C 148.95 133.97 148.09 134.40 147.82 135.19 C 147.55 135.99 147.98 136.85 148.78 137.12 L 149.70 137.43 C 150.49 137.69 151.35 137.26 151.62 136.47 C 151.89 135.67 151.46 134.81 150.66 134.55 Z M 149.51 134.18 L 148.61 134.02 C 147.78 133.88 146.99 134.44 146.85 135.27 C 146.71 136.10 147.27 136.89 148.10 137.02 L 149.01 137.18 C 149.84 137.32 150.62 136.76 150.76 135.93 C 150.90 135.10 150.34 134.32 149.51 134.18 Z M 148.44 134.00 L 147.34 133.94 C 146.50 133.89 145.78 134.53 145.73 135.38 C 145.68 136.22 146.33 136.94 147.17 136.99 L 148.27 137.05 C 149.11 137.09 149.83 136.45 149.88 135.61 C 149.93 134.77 149.28 134.05 148.44 134.00 Z M 147.25 133.93 L 146.30 133.93 C 145.46 133.94 144.77 134.62 144.78 135.47 C 144.78 136.31 145.46 137.00 146.31 136.99 L 147.26 136.99 C 148.10 136.99 148.79 136.30 148.78 135.46 C 148.78 134.61 148.10 133.93 147.25 133.93 Z M 146.22 133.93 L 145.19 133.99 C 144.34 134.04 143.70 134.77 143.75 135.61 C 143.79 136.46 144.52 137.10 145.37 137.06 L 146.39 137.00 C 147.24 136.95 147.89 136.22 147.84 135.38 C 147.79 134.53 147.06 133.88 146.22 133.93 Z M 145.07 134.00 L 144.04 134.14 C 143.20 134.26 142.61 135.03 142.73 135.87 C 142.84 136.71 143.62 137.30 144.46 137.19 L 145.49 137.05 C 146.33 136.93 146.92 136.16 146.80 135.32 C 146.69 134.47 145.91 133.88 145.07 134.00 Z M 143.87 134.17 L 142.81 134.44 C 141.98 134.65 141.48 135.49 141.69 136.31 C 141.90 137.14 142.74 137.64 143.57 137.43 L 144.63 137.16 C 145.46 136.95 145.96 136.11 145.75 135.28 C 145.54 134.46 144.70 133.96 143.87 134.17 Z M 142.65 134.48 L 141.71 134.82 C 140.91 135.12 140.50 136.01 140.79 136.81 C 141.09 137.61 141.98 138.03 142.78 137.73 L 143.72 137.39 C 144.52 137.09 144.94 136.20 144.64 135.40 C 144.35 134.60 143.46 134.19 142.65 134.48 Z M 141.61 134.86 L 140.77 135.24 C 139.98 135.59 139.63 136.51 139.98 137.29 C 140.33 138.07 141.25 138.42 142.03 138.07 L 142.88 137.70 C 143.66 137.35 144.02 136.43 143.67 135.65 C 143.32 134.86 142.40 134.51 141.61 134.86 Z M 140.70 135.26 L 139.78 135.73 C 139.01 136.12 138.70 137.05 139.09 137.82 C 139.47 138.59 140.41 138.90 141.18 138.51 L 142.10 138.05 C 142.87 137.66 143.18 136.72 142.79 135.96 C 142.41 135.19 141.47 134.88 140.70 135.26 Z M 139.70 135.77 L 138.89 136.23 C 138.14 136.66 137.89 137.62 138.32 138.36 C 138.75 139.11 139.70 139.37 140.45 138.94 L 141.26 138.47 C 142.00 138.04 142.26 137.09 141.83 136.34 C 141.40 135.59 140.45 135.34 139.70 135.77 Z M 138.83 136.26 L 137.99 136.80 C 137.26 137.26 137.05 138.22 137.51 138.95 C 137.97 139.68 138.93 139.90 139.66 139.44 L 140.51 138.91 C 141.24 138.45 141.45 137.48 140.99 136.75 C 140.53 136.02 139.56 135.80 138.83 136.26 Z M 137.95 136.82 L 137.13 137.38 C 136.41 137.86 136.22 138.83 136.70 139.55 C 137.18 140.27 138.16 140.46 138.87 139.98 L 139.70 139.42 C 140.42 138.94 140.61 137.96 140.13 137.24 C 139.65 136.53 138.67 136.34 137.95 136.82 Z M 137.10 137.39 L 136.28 137.97 C 135.57 138.46 135.40 139.44 135.90 140.15 C 136.40 140.86 137.38 141.03 138.09 140.53 L 138.90 139.96 C 139.61 139.46 139.78 138.48 139.28 137.77 C 138.78 137.06 137.80 136.89 137.10 137.39 Z M 136.25 137.99 L 135.44 138.59 C 134.74 139.10 134.59 140.09 135.11 140.79 C 135.62 141.48 136.61 141.63 137.31 141.11 L 138.12 140.51 C 138.82 140.00 138.97 139.01 138.45 138.31 C 137.93 137.62 136.95 137.47 136.25 137.99 Z M 135.38 138.62 L 134.60 139.26 C 133.92 139.80 133.81 140.79 134.36 141.47 C 134.91 142.15 135.90 142.26 136.57 141.71 L 137.36 141.08 C 138.04 140.53 138.14 139.54 137.60 138.86 C 137.05 138.19 136.06 138.08 135.38 138.62 Z M 134.50 139.34 L 133.78 140.02 C 133.14 140.62 133.11 141.62 133.71 142.25 C 134.31 142.88 135.31 142.91 135.94 142.32 L 136.67 141.63 C 137.30 141.03 137.33 140.04 136.73 139.40 C 136.14 138.77 135.14 138.74 134.50 139.34 Z M 133.67 140.13 L 133.02 140.87 C 132.44 141.53 132.51 142.53 133.17 143.10 C 133.82 143.68 134.82 143.61 135.39 142.96 L 136.05 142.21 C 136.62 141.55 136.56 140.56 135.90 139.98 C 135.25 139.41 134.25 139.47 133.67 140.13 Z M 132.95 140.95 L 132.35 141.73 C 131.82 142.43 131.95 143.42 132.64 143.95 C 133.34 144.48 134.33 144.35 134.86 143.66 L 135.46 142.88 C 135.99 142.18 135.86 141.19 135.17 140.66 C 134.48 140.13 133.48 140.26 132.95 140.95 Z M 132.31 141.80 L 131.74 142.61 C 131.24 143.33 131.42 144.32 132.14 144.82 C 132.86 145.32 133.84 145.14 134.34 144.42 L 134.91 143.60 C 135.41 142.88 135.23 141.89 134.51 141.40 C 133.79 140.90 132.80 141.08 132.31 141.80 Z M 131.69 142.69 L 131.16 143.54 C 130.70 144.29 130.94 145.26 131.68 145.72 C 132.43 146.18 133.40 145.95 133.86 145.20 L 134.39 144.35 C 134.85 143.60 134.62 142.63 133.87 142.17 C 133.12 141.71 132.15 141.94 131.69 142.69 Z M 131.12 143.62 L 130.65 144.48 C 130.24 145.25 130.52 146.21 131.29 146.62 C 132.07 147.04 133.03 146.75 133.44 145.98 L 133.91 145.12 C 134.32 144.35 134.04 143.39 133.27 142.98 C 132.50 142.56 131.53 142.85 131.12 143.62 Z M 130.61 144.55 L 130.17 145.49 C 129.80 146.28 130.13 147.23 130.93 147.60 C 131.72 147.98 132.66 147.64 133.04 146.85 L 133.48 145.91 C 133.86 145.12 133.52 144.17 132.73 143.80 C 131.94 143.42 130.99 143.76 130.61 144.55 Z M 130.14 145.56 L 129.77 146.44 C 129.43 147.25 129.81 148.18 130.62 148.52 C 131.43 148.85 132.36 148.47 132.70 147.66 L 133.07 146.78 C 133.41 145.97 133.03 145.04 132.22 144.70 C 131.41 144.36 130.48 144.75 130.14 145.56 Z M 129.74 146.50 L 129.40 147.44 C 129.09 148.26 129.51 149.18 130.33 149.48 C 131.16 149.79 132.07 149.37 132.38 148.54 L 132.73 147.60 C 133.03 146.78 132.61 145.86 131.79 145.56 C 130.96 145.25 130.05 145.67 129.74 146.50 Z M 129.37 147.50 L 129.05 148.48 C 128.78 149.31 129.24 150.21 130.07 150.49 C 130.91 150.76 131.81 150.30 132.08 149.46 L 132.40 148.49 C 132.68 147.65 132.22 146.75 131.38 146.48 C 130.54 146.20 129.65 146.66 129.37 147.50 Z M 129.03 148.53 L 128.77 149.44 C 128.53 150.29 129.02 151.17 129.87 151.41 C 130.71 151.66 131.60 151.17 131.84 150.32 L 132.10 149.41 C 132.35 148.56 131.86 147.68 131.01 147.44 C 130.16 147.19 129.28 147.68 129.03 148.53 Z M 128.76 149.48 L 128.51 150.45 C 128.29 151.30 128.80 152.17 129.66 152.39 C 130.51 152.61 131.39 152.10 131.61 151.24 L 131.85 150.28 C 132.08 149.42 131.56 148.55 130.71 148.33 C 129.85 148.11 128.98 148.63 128.76 149.48 Z M 128.50 150.48 L 128.26 151.52 C 128.06 152.38 128.59 153.24 129.45 153.44 C 130.31 153.64 131.18 153.10 131.38 152.24 L 131.62 151.21 C 131.82 150.35 131.28 149.49 130.42 149.29 C 129.56 149.09 128.70 149.62 128.50 150.48 Z M 128.25 151.54 L 128.04 152.50 C 127.86 153.37 128.41 154.22 129.27 154.41 C 130.14 154.59 130.99 154.04 131.18 153.18 L 131.38 152.22 C 131.57 151.35 131.02 150.50 130.15 150.31 C 129.29 150.13 128.44 150.68 128.25 151.54 Z M 128.04 152.52 L 127.84 153.51 C 127.67 154.38 128.23 155.23 129.10 155.40 C 129.97 155.57 130.82 155.01 130.99 154.14 L 131.19 153.15 C 131.36 152.28 130.79 151.44 129.92 151.26 C 129.05 151.09 128.21 151.65 128.04 152.52 Z M 127.83 153.54 L 127.65 154.54 C 127.49 155.41 128.07 156.25 128.95 156.41 C 129.82 156.57 130.66 155.99 130.82 155.11 L 131.00 154.11 C 131.16 153.24 130.58 152.40 129.70 152.24 C 128.83 152.08 127.99 152.66 127.83 153.54 Z M 127.64 154.57 L 127.48 155.56 C 127.34 156.44 127.93 157.27 128.81 157.41 C 129.69 157.56 130.52 156.96 130.66 156.08 L 130.82 155.08 C 130.97 154.20 130.37 153.38 129.49 153.23 C 128.61 153.09 127.79 153.69 127.64 154.57 Z M 127.47 155.60 L 127.33 156.61 C 127.21 157.49 127.82 158.31 128.71 158.43 C 129.59 158.56 130.40 157.94 130.53 157.06 L 130.67 156.05 C 130.79 155.16 130.18 154.35 129.29 154.22 C 128.41 154.10 127.60 154.72 127.47 155.60 Z M 127.33 156.65 L 127.21 157.64 C 127.11 158.53 127.74 159.33 128.63 159.43 C 129.51 159.53 130.31 158.90 130.42 158.01 L 130.53 157.02 C 130.64 156.14 130.00 155.34 129.12 155.23 C 128.23 155.13 127.43 155.76 127.33 156.65 Z M 127.21 157.67 L 127.11 158.65 C 127.03 159.54 127.68 160.33 128.57 160.42 C 129.46 160.50 130.25 159.85 130.33 158.96 L 130.42 157.98 C 130.51 157.09 129.86 156.30 128.97 156.22 C 128.08 156.13 127.29 156.79 127.21 157.67 Z M 127.11 158.69 L 127.03 159.68 C 126.97 160.57 127.63 161.35 128.52 161.41 C 129.42 161.48 130.19 160.81 130.26 159.92 L 130.33 158.93 C 130.40 158.04 129.73 157.26 128.84 157.19 C 127.95 157.13 127.18 157.79 127.11 158.69 Z M 127.03 159.71 L 126.97 160.71 C 126.92 161.61 127.60 162.37 128.50 162.42 C 129.39 162.47 130.15 161.79 130.20 160.90 L 130.26 159.89 C 130.31 159.00 129.63 158.23 128.74 158.18 C 127.85 158.13 127.08 158.81 127.03 159.71 Z M 126.97 160.74 L 126.93 161.74 C 126.89 162.63 127.58 163.39 128.48 163.42 C 129.37 163.46 130.13 162.77 130.17 161.87 L 130.21 160.87 C 130.24 159.98 129.55 159.22 128.66 159.19 C 127.76 159.15 127.01 159.84 126.97 160.74 Z M 126.92 161.76 L 126.90 162.75 C 126.87 163.64 127.58 164.39 128.47 164.41 C 129.37 164.44 130.12 163.73 130.14 162.84 L 130.17 161.85 C 130.19 160.96 129.49 160.21 128.59 160.18 C 127.70 160.16 126.95 160.86 126.92 161.76 Z M 126.90 162.76 L 126.88 163.79 C 126.86 164.68 127.58 165.42 128.48 165.44 C 129.37 165.45 130.11 164.74 130.13 163.84 L 130.14 162.82 C 130.16 161.92 129.44 161.18 128.54 161.17 C 127.65 161.15 126.91 161.87 126.90 162.76 Z M 126.88 163.80 L 126.87 164.81 C 126.86 165.70 127.59 166.44 128.48 166.44 C 129.38 166.45 130.11 165.73 130.12 164.83 L 130.13 163.83 C 130.13 162.93 129.41 162.20 128.51 162.19 C 127.62 162.18 126.88 162.91 126.88 163.80 Z M 126.87 164.81 L 126.87 165.80 C 126.87 166.70 127.59 167.42 128.49 167.43 C 129.39 167.43 130.12 166.70 130.12 165.80 L 130.12 164.82 C 130.12 163.92 129.40 163.19 128.50 163.19 C 127.60 163.19 126.87 163.92 126.87 164.81 Z M 126.87 165.80 L 126.87 166.79 C 126.87 167.69 127.60 168.42 128.50 168.41 C 129.40 168.41 130.12 167.68 130.12 166.79 L 130.12 165.80 C 130.12 164.90 129.39 164.17 128.49 164.17 C 127.59 164.17 126.87 164.90 126.87 165.80 Z M 126.87 166.81 L 126.88 167.80 C 126.90 168.70 127.63 169.42 128.53 169.41 C 129.43 169.39 130.15 168.65 130.14 167.76 L 130.12 166.76 C 130.11 165.87 129.37 165.15 128.47 165.16 C 127.57 165.17 126.86 165.91 126.87 166.81 Z M 126.88 167.85 L 126.93 168.85 C 126.97 169.75 127.73 170.45 128.63 170.40 C 129.53 170.36 130.22 169.60 130.18 168.70 L 130.14 167.70 C 130.09 166.81 129.33 166.11 128.43 166.15 C 127.54 166.19 126.84 166.96 126.88 167.85 Z M 126.93 168.93 L 127.03 169.93 C 127.11 170.83 127.91 171.49 128.80 171.40 C 129.70 171.32 130.35 170.52 130.27 169.63 L 130.18 168.63 C 130.09 167.73 129.30 167.07 128.40 167.16 C 127.51 167.24 126.85 168.04 126.93 168.93 Z M 127.04 170.01 L 127.18 171.01 C 127.31 171.90 128.13 172.52 129.02 172.39 C 129.91 172.26 130.53 171.44 130.40 170.54 L 130.26 169.55 C 130.13 168.66 129.31 168.04 128.42 168.17 C 127.53 168.30 126.91 169.12 127.04 170.01 Z M 127.19 171.08 L 127.38 172.07 C 127.54 172.95 128.39 173.53 129.28 173.37 C 130.16 173.20 130.75 172.35 130.58 171.47 L 130.39 170.48 C 130.23 169.59 129.38 169.01 128.49 169.18 C 127.61 169.34 127.03 170.19 127.19 171.08 Z M 127.39 172.13 L 127.61 173.10 C 127.81 173.98 128.69 174.53 129.56 174.33 C 130.44 174.13 130.99 173.25 130.79 172.38 L 130.57 171.40 C 130.37 170.53 129.49 169.98 128.61 170.18 C 127.74 170.38 127.19 171.25 127.39 172.13 Z M 127.63 173.17 L 127.90 174.16 C 128.14 175.03 129.04 175.54 129.90 175.30 C 130.77 175.06 131.28 174.17 131.04 173.30 L 130.77 172.31 C 130.53 171.44 129.64 170.93 128.77 171.17 C 127.90 171.41 127.39 172.30 127.63 173.17 Z M 127.93 174.24 L 128.24 175.18 C 128.52 176.04 129.44 176.50 130.29 176.22 C 131.15 175.94 131.61 175.02 131.33 174.16 L 131.02 173.22 C 130.74 172.36 129.82 171.90 128.96 172.18 C 128.11 172.46 127.64 173.39 127.93 174.24 Z M 128.27 175.27 L 128.62 176.17 C 128.95 177.01 129.90 177.42 130.74 177.09 C 131.57 176.76 131.99 175.82 131.66 174.98 L 131.30 174.07 C 130.97 173.24 130.03 172.83 129.19 173.15 C 128.35 173.48 127.94 174.43 128.27 175.27 Z M 128.66 176.26 L 129.08 177.17 C 129.46 177.99 130.43 178.34 131.24 177.96 C 132.06 177.59 132.42 176.62 132.04 175.80 L 131.62 174.89 C 131.24 174.08 130.27 173.72 129.46 174.10 C 128.64 174.47 128.28 175.44 128.66 176.26 Z M 129.11 177.25 L 129.58 178.13 C 130.00 178.93 130.99 179.23 131.79 178.81 C 132.58 178.39 132.89 177.40 132.47 176.61 L 132.00 175.72 C 131.58 174.93 130.60 174.62 129.80 175.04 C 129.00 175.46 128.69 176.45 129.11 177.25 Z M 129.61 178.19 L 130.12 179.06 C 130.57 179.84 131.58 180.10 132.36 179.64 C 133.13 179.19 133.40 178.19 132.94 177.41 L 132.44 176.54 C 131.98 175.76 130.98 175.50 130.20 175.96 C 129.42 176.41 129.16 177.41 129.61 178.19 Z M 130.15 179.11 L 130.69 179.96 C 131.17 180.72 132.19 180.94 132.95 180.46 C 133.71 179.97 133.93 178.96 133.45 178.20 L 132.91 177.35 C 132.42 176.59 131.41 176.37 130.65 176.85 C 129.89 177.34 129.66 178.35 130.15 179.11 Z M 130.72 180.01 L 131.30 180.83 C 131.81 181.58 132.83 181.76 133.58 181.24 C 134.32 180.73 134.50 179.70 133.98 178.96 L 133.41 178.14 C 132.90 177.40 131.87 177.22 131.13 177.73 C 130.39 178.25 130.21 179.27 130.72 180.01 Z M 131.34 180.90 L 131.95 181.69 C 132.50 182.41 133.53 182.54 134.25 181.99 C 134.97 181.44 135.10 180.41 134.55 179.69 L 133.94 178.90 C 133.39 178.18 132.36 178.05 131.64 178.60 C 130.92 179.15 130.79 180.18 131.34 180.90 Z M 132.00 181.76 L 132.65 182.52 C 133.24 183.21 134.28 183.29 134.97 182.70 C 135.66 182.11 135.74 181.08 135.15 180.39 L 134.50 179.62 C 133.91 178.94 132.87 178.85 132.18 179.44 C 131.49 180.03 131.41 181.07 132.00 181.76 Z M 132.71 182.59 L 133.40 183.31 C 134.03 183.97 135.06 183.99 135.72 183.37 C 136.38 182.74 136.40 181.70 135.78 181.04 L 135.09 180.32 C 134.46 179.66 133.43 179.64 132.77 180.26 C 132.11 180.89 132.09 181.93 132.71 182.59 Z M 133.46 183.37 L 134.19 184.05 C 134.85 184.68 135.89 184.64 136.51 183.98 C 137.13 183.32 137.10 182.28 136.44 181.66 L 135.72 180.98 C 135.05 180.36 134.01 180.39 133.39 181.05 C 132.77 181.71 132.80 182.75 133.46 183.37 Z M 134.25 184.11 L 135.00 184.75 C 135.70 185.33 136.74 185.25 137.32 184.55 C 137.91 183.86 137.82 182.82 137.12 182.23 L 136.37 181.60 C 135.68 181.01 134.64 181.10 134.06 181.80 C 133.47 182.49 133.56 183.53 134.25 184.11 Z M 135.07 184.80 L 135.86 185.41 C 136.58 185.96 137.62 185.82 138.17 185.10 C 138.72 184.37 138.58 183.34 137.86 182.79 L 137.06 182.18 C 136.34 181.63 135.31 181.77 134.76 182.49 C 134.21 183.22 134.34 184.25 135.07 184.80 Z M 135.92 185.45 L 136.75 186.03 C 137.50 186.55 138.53 186.37 139.05 185.62 C 139.57 184.88 139.38 183.85 138.64 183.33 L 137.80 182.75 C 137.06 182.23 136.03 182.41 135.51 183.16 C 134.99 183.90 135.17 184.93 135.92 185.45 Z M 136.81 186.07 L 137.66 186.62 C 138.43 187.11 139.45 186.88 139.94 186.12 C 140.43 185.35 140.21 184.34 139.44 183.85 L 138.58 183.30 C 137.82 182.81 136.80 183.03 136.31 183.79 C 135.82 184.56 136.04 185.58 136.81 186.07 Z M 137.73 186.65 L 138.60 187.16 C 139.39 187.61 140.39 187.34 140.85 186.56 C 141.30 185.77 141.03 184.77 140.25 184.31 L 139.37 183.81 C 138.59 183.35 137.58 183.62 137.13 184.41 C 136.68 185.19 136.94 186.20 137.73 186.65 Z M 138.69 187.20 L 139.57 187.64 C 140.39 188.05 141.37 187.72 141.78 186.91 C 142.18 186.10 141.85 185.11 141.04 184.71 L 140.16 184.27 C 139.35 183.86 138.36 184.19 137.96 185.00 C 137.55 185.81 137.88 186.80 138.69 187.20 Z M 139.70 187.70 L 140.65 188.08 C 141.49 188.42 142.45 188.01 142.79 187.17 C 143.12 186.33 142.71 185.37 141.87 185.04 L 140.92 184.65 C 140.08 184.32 139.12 184.72 138.78 185.56 C 138.45 186.40 138.86 187.36 139.70 187.70 Z M 140.76 188.12 L 141.70 188.42 C 142.56 188.69 143.48 188.22 143.76 187.35 C 144.03 186.49 143.56 185.57 142.69 185.29 L 141.76 185.00 C 140.90 184.72 139.98 185.20 139.70 186.06 C 139.43 186.92 139.90 187.85 140.76 188.12 Z M 141.77 188.44 L 142.72 188.69 C 143.59 188.93 144.49 188.41 144.73 187.53 C 144.96 186.66 144.44 185.76 143.57 185.53 L 142.62 185.27 C 141.74 185.04 140.84 185.56 140.61 186.43 C 140.38 187.31 140.90 188.21 141.77 188.44 Z M 142.79 188.70 L 143.76 188.92 C 144.65 189.12 145.52 188.56 145.72 187.68 C 145.91 186.80 145.36 185.93 144.48 185.73 L 143.50 185.51 C 142.62 185.32 141.74 185.87 141.55 186.75 C 141.35 187.63 141.91 188.51 142.79 188.70 Z M 143.86 188.94 L 144.84 189.09 C 145.73 189.24 146.57 188.63 146.71 187.75 C 146.86 186.86 146.25 186.02 145.36 185.88 L 144.38 185.72 C 143.49 185.57 142.65 186.18 142.51 187.07 C 142.37 187.95 142.97 188.79 143.86 188.94 Z M 144.96 189.10 L 145.95 189.19 C 146.84 189.28 147.63 188.62 147.71 187.72 C 147.79 186.83 147.13 186.04 146.24 185.96 L 145.25 185.87 C 144.36 185.79 143.57 186.44 143.48 187.34 C 143.40 188.23 144.06 189.02 144.96 189.10 Z M 146.03 189.20 L 147.03 189.24 C 147.92 189.27 148.68 188.57 148.71 187.68 C 148.75 186.78 148.05 186.03 147.16 185.99 L 146.16 185.95 C 145.26 185.92 144.51 186.62 144.47 187.51 C 144.44 188.41 145.13 189.16 146.03 189.20 Z M 147.07 189.23 L 148.07 189.25 C 148.97 189.26 149.70 188.55 149.71 187.65 C 149.73 186.76 149.01 186.02 148.12 186.01 L 147.11 186.00 C 146.22 185.98 145.49 186.70 145.47 187.59 C 145.46 188.49 146.18 189.22 147.07 189.23 Z M 148.10 189.24 L 149.10 189.24 C 149.99 189.24 150.71 188.52 150.71 187.63 C 150.71 186.73 149.99 186.01 149.10 186.01 L 148.09 186.01 C 147.20 186.01 146.48 186.74 146.48 187.63 C 146.48 188.52 147.21 189.24 148.10 189.24 Z M 149.14 189.24 L 150.14 189.21 C 151.03 189.19 151.73 188.45 151.71 187.56 C 151.69 186.68 150.95 185.97 150.06 185.99 L 149.06 186.02 C 148.17 186.04 147.47 186.78 147.49 187.67 C 147.51 188.56 148.25 189.26 149.14 189.24 Z M 150.19 189.21 L 151.17 189.15 C 152.06 189.09 152.73 188.33 152.68 187.45 C 152.63 186.57 151.87 185.89 150.98 185.94 L 150.00 186.00 C 149.12 186.05 148.44 186.81 148.50 187.70 C 148.55 188.58 149.31 189.26 150.19 189.21 Z M 151.27 189.14 L 152.25 189.02 C 153.13 188.91 153.75 188.12 153.65 187.24 C 153.54 186.36 152.75 185.73 151.87 185.84 L 150.89 185.96 C 150.01 186.06 149.38 186.86 149.49 187.74 C 149.59 188.61 150.39 189.24 151.27 189.14 Z M 152.38 188.99 L 153.38 188.79 C 154.24 188.61 154.80 187.77 154.62 186.90 C 154.45 186.04 153.60 185.48 152.74 185.66 L 151.74 185.86 C 150.88 186.04 150.32 186.88 150.49 187.75 C 150.67 188.61 151.52 189.17 152.38 188.99 Z M 153.51 188.75 L 154.45 188.47 C 155.30 188.22 155.78 187.34 155.53 186.49 C 155.28 185.65 154.40 185.17 153.55 185.42 L 152.61 185.69 C 151.76 185.94 151.28 186.83 151.53 187.67 C 151.78 188.52 152.66 189.00 153.51 188.75 Z M 154.56 188.43 L 155.51 188.08 C 156.33 187.77 156.75 186.85 156.44 186.03 C 156.13 185.21 155.21 184.79 154.39 185.10 L 153.44 185.46 C 152.62 185.77 152.20 186.68 152.51 187.50 C 152.82 188.33 153.74 188.74 154.56 188.43 Z M 155.61 188.03 L 156.53 187.61 C 157.33 187.24 157.68 186.30 157.31 185.51 C 156.95 184.71 156.00 184.36 155.21 184.73 L 154.29 185.15 C 153.49 185.51 153.14 186.45 153.51 187.25 C 153.87 188.05 154.81 188.40 155.61 188.03 Z M 156.63 187.56 L 157.49 187.08 C 158.26 186.66 158.54 185.70 158.13 184.94 C 157.71 184.17 156.74 183.89 155.98 184.30 L 155.11 184.78 C 154.34 185.20 154.06 186.16 154.48 186.93 C 154.90 187.69 155.86 187.98 156.63 187.56 Z M 157.58 187.03 L 158.42 186.50 C 159.16 186.04 159.38 185.06 158.92 184.32 C 158.45 183.59 157.48 183.36 156.74 183.83 L 155.89 184.36 C 155.16 184.82 154.93 185.80 155.40 186.53 C 155.86 187.27 156.84 187.50 157.58 187.03 Z M 158.48 186.46 L 159.31 185.88 C 160.02 185.39 160.20 184.40 159.70 183.69 C 159.20 182.97 158.22 182.80 157.50 183.30 L 156.68 183.87 C 155.96 184.37 155.79 185.35 156.28 186.07 C 156.78 186.78 157.76 186.96 158.48 186.46 Z M 159.35 185.85 L 160.12 185.27 C 160.82 184.75 160.96 183.76 160.44 183.06 C 159.92 182.37 158.93 182.23 158.24 182.75 L 157.46 183.33 C 156.76 183.85 156.62 184.84 157.14 185.53 C 157.66 186.23 158.65 186.37 159.35 185.85 Z M 160.16 185.24 L 160.95 184.62 C 161.63 184.08 161.74 183.08 161.20 182.40 C 160.66 181.72 159.67 181.61 158.98 182.15 L 158.20 182.78 C 157.52 183.32 157.41 184.31 157.95 184.99 C 158.49 185.67 159.48 185.78 160.16 185.24 Z M 160.98 184.59 L 161.77 183.92 C 162.44 183.36 162.52 182.37 161.96 181.70 C 161.40 181.04 160.41 180.95 159.74 181.51 L 158.95 182.18 C 158.29 182.74 158.20 183.73 158.76 184.40 C 159.32 185.06 160.31 185.15 160.98 184.59 Z M 161.80 183.90 L 162.54 183.25 C 163.19 182.67 163.25 181.67 162.67 181.02 C 162.09 180.37 161.10 180.31 160.45 180.89 L 159.71 181.54 C 159.06 182.12 159.00 183.11 159.58 183.76 C 160.15 184.41 161.15 184.47 161.80 183.90 Z M 162.56 183.22 L 163.29 182.55 C 163.93 181.96 163.96 180.96 163.37 180.32 C 162.78 179.69 161.79 179.65 161.15 180.24 L 160.42 180.91 C 159.79 181.50 159.75 182.50 160.34 183.14 C 160.93 183.77 161.92 183.81 162.56 183.22 Z M 163.31 182.53 L 164.04 181.82 C 164.66 181.22 164.68 180.23 164.08 179.60 C 163.48 178.98 162.49 178.96 161.86 179.56 L 161.13 180.26 C 160.51 180.86 160.49 181.86 161.09 182.48 C 161.69 183.11 162.68 183.13 163.31 182.53 Z M 164.06 181.81 L 164.78 181.09 C 165.39 180.48 165.40 179.48 164.78 178.87 C 164.17 178.25 163.18 178.25 162.56 178.86 L 161.84 179.58 C 161.23 180.19 161.22 181.18 161.83 181.80 C 162.45 182.41 163.44 182.42 164.06 181.81 Z M 164.79 181.07 L 165.49 180.36 C 166.10 179.74 166.09 178.74 165.47 178.13 C 164.85 177.53 163.85 177.54 163.25 178.16 L 162.55 178.88 C 161.94 179.50 161.95 180.49 162.57 181.10 C 163.19 181.71 164.19 181.69 164.79 181.07 Z M 165.51 180.34 L 166.20 179.61 C 166.80 178.98 166.77 177.98 166.14 177.39 C 165.51 176.79 164.51 176.82 163.92 177.45 L 163.23 178.18 C 162.63 178.81 162.66 179.80 163.29 180.40 C 163.92 181.00 164.92 180.97 165.51 180.34 Z M 166.22 179.59 L 166.90 178.85 C 167.48 178.21 167.43 177.21 166.79 176.63 C 166.15 176.04 165.15 176.09 164.57 176.73 L 163.90 177.47 C 163.31 178.11 163.36 179.11 164.00 179.69 C 164.64 180.28 165.64 180.23 166.22 179.59 Z M 166.92 178.82 L 167.58 178.07 C 168.15 177.41 168.08 176.42 167.43 175.85 C 166.77 175.28 165.78 175.34 165.21 176.00 L 164.55 176.76 C 163.98 177.41 164.04 178.41 164.70 178.98 C 165.35 179.55 166.35 179.48 166.92 178.82 Z M 167.60 178.04 L 168.24 177.28 C 168.80 176.61 168.71 175.61 168.04 175.06 C 167.38 174.50 166.38 174.59 165.82 175.26 L 165.18 176.02 C 164.63 176.69 164.71 177.69 165.38 178.24 C 166.05 178.80 167.04 178.71 167.60 178.04 Z M 168.26 177.26 L 168.88 176.48 C 169.43 175.80 169.33 174.81 168.65 174.27 C 167.97 173.72 166.98 173.82 166.43 174.50 L 165.81 175.28 C 165.26 175.95 165.37 176.95 166.04 177.49 C 166.72 178.04 167.71 177.93 168.26 177.26 Z M 168.90 176.47 L 169.51 175.68 C 170.05 175.00 169.94 174.01 169.25 173.47 C 168.57 172.93 167.58 173.05 167.04 173.73 L 166.42 174.52 C 165.88 175.20 166.00 176.19 166.68 176.73 C 167.37 177.27 168.36 177.15 168.90 176.47 Z M 169.52 175.68 L 170.16 174.85 C 170.70 174.16 170.57 173.17 169.88 172.64 C 169.19 172.10 168.20 172.23 167.67 172.92 L 167.03 173.74 C 166.49 174.43 166.62 175.42 167.31 175.96 C 168.00 176.49 168.99 176.36 169.52 175.68 Z M 170.17 174.84 L 170.79 174.02 C 171.32 173.33 171.18 172.34 170.49 171.81 C 169.79 171.28 168.80 171.42 168.28 172.11 L 167.66 172.93 C 167.13 173.62 167.26 174.62 167.96 175.14 C 168.65 175.67 169.65 175.53 170.17 174.84 Z M 170.81 174.00 L 171.38 173.22 C 171.90 172.52 171.75 171.53 171.05 171.01 C 170.34 170.49 169.35 170.64 168.84 171.35 L 168.26 172.13 C 167.74 172.84 167.89 173.83 168.60 174.34 C 169.30 174.86 170.29 174.71 170.81 174.00 Z M 171.41 173.19 L 171.99 172.35 C 172.49 171.63 172.32 170.64 171.60 170.14 C 170.88 169.64 169.89 169.82 169.39 170.54 L 168.81 171.38 C 168.31 172.10 168.49 173.08 169.21 173.58 C 169.93 174.08 170.91 173.90 171.41 173.19 Z M 172.03 172.29 L 172.58 171.43 C 173.05 170.69 172.84 169.71 172.10 169.24 C 171.36 168.77 170.38 168.99 169.91 169.73 L 169.36 170.59 C 168.89 171.33 169.10 172.31 169.84 172.78 C 170.58 173.25 171.56 173.03 172.03 172.29 Z M 172.63 171.36 L 173.09 170.55 C 173.52 169.79 173.25 168.82 172.48 168.39 C 171.72 167.95 170.75 168.22 170.32 168.99 L 169.86 169.79 C 169.43 170.56 169.70 171.53 170.46 171.96 C 171.23 172.39 172.20 172.12 172.63 171.36 Z M 173.13 170.47 L 173.58 169.55 C 173.97 168.76 173.64 167.80 172.85 167.42 C 172.06 167.03 171.10 167.36 170.72 168.15 L 170.27 169.07 C 169.88 169.86 170.21 170.82 171.00 171.20 C 171.79 171.59 172.75 171.26 173.13 170.47 Z M 173.63 169.45 L 174.00 168.54 C 174.33 167.73 173.94 166.80 173.12 166.46 C 172.31 166.13 171.38 166.52 171.04 167.34 L 170.67 168.25 C 170.34 169.06 170.73 169.99 171.55 170.33 C 172.36 170.66 173.29 170.27 173.63 169.45 Z M 174.04 168.44 L 174.35 167.49 C 174.63 166.65 174.17 165.74 173.34 165.47 C 172.50 165.19 171.59 165.65 171.32 166.49 L 171.00 167.44 C 170.73 168.28 171.18 169.18 172.02 169.46 C 172.86 169.74 173.76 169.28 174.04 168.44 Z M 174.39 167.36 L 174.62 166.41 C 174.83 165.55 174.30 164.69 173.44 164.48 C 172.58 164.27 171.72 164.80 171.51 165.66 L 171.28 166.61 C 171.07 167.47 171.60 168.33 172.46 168.54 C 173.32 168.75 174.18 168.22 174.39 167.36 Z M 174.65 166.27 L 174.80 165.29 C 174.94 164.41 174.33 163.59 173.46 163.46 C 172.58 163.33 171.76 163.93 171.63 164.81 L 171.48 165.79 C 171.35 166.67 171.95 167.49 172.83 167.62 C 173.70 167.75 174.52 167.15 174.65 166.27 Z M 174.82 165.17 L 174.89 164.18 C 174.96 163.30 174.29 162.52 173.41 162.46 C 172.52 162.39 171.75 163.06 171.69 163.94 L 171.61 164.93 C 171.55 165.81 172.21 166.59 173.10 166.65 C 173.98 166.72 174.75 166.05 174.82 165.17 Z M 174.90 164.10 L 174.92 163.12 C 174.94 162.23 174.23 161.50 173.35 161.48 C 172.46 161.46 171.72 162.16 171.70 163.05 L 171.68 164.03 C 171.66 164.92 172.36 165.65 173.25 165.67 C 174.14 165.69 174.88 164.99 174.90 164.10 Z M 174.92 163.09 L 174.92 162.08 C 174.92 161.18 174.20 160.46 173.31 160.46 C 172.42 160.46 171.70 161.18 171.70 162.07 L 171.70 163.09 C 171.70 163.98 172.42 164.70 173.31 164.70 C 174.20 164.70 174.92 163.98 174.92 163.09 Z M 174.92 162.03 L 174.89 161.03 C 174.87 160.14 174.12 159.44 173.23 159.46 C 172.34 159.49 171.64 160.23 171.67 161.12 L 171.70 162.12 C 171.72 163.01 172.47 163.71 173.36 163.69 C 174.25 163.66 174.95 162.92 174.92 162.03 Z M 174.88 160.87 L 174.75 159.87 C 174.64 158.98 173.82 158.36 172.94 158.48 C 172.05 158.59 171.43 159.40 171.55 160.29 L 171.68 161.29 C 171.80 162.17 172.61 162.79 173.49 162.68 C 174.38 162.56 175.00 161.75 174.88 160.87 Z M 174.71 159.65 L 174.45 158.71 C 174.22 157.85 173.33 157.34 172.47 157.58 C 171.61 157.81 171.10 158.70 171.33 159.56 L 171.59 160.50 C 171.83 161.37 172.72 161.87 173.58 161.64 C 174.44 161.40 174.94 160.51 174.71 159.65 Z M 174.41 158.58 L 174.06 157.62 C 173.75 156.78 172.82 156.35 171.99 156.66 C 171.15 156.96 170.72 157.89 171.02 158.73 L 171.37 159.69 C 171.68 160.53 172.61 160.96 173.45 160.65 C 174.29 160.35 174.72 159.42 174.41 158.58 Z M 174.04 157.57 L 173.68 156.68 C 173.35 155.86 172.41 155.46 171.58 155.79 C 170.75 156.12 170.35 157.06 170.68 157.89 L 171.04 158.78 C 171.37 159.60 172.32 160.01 173.14 159.67 C 173.97 159.34 174.37 158.40 174.04 157.57 Z M 173.67 156.66 L 173.28 155.72 C 172.93 154.90 171.98 154.51 171.16 154.86 C 170.33 155.21 169.95 156.16 170.30 156.98 L 170.70 157.92 C 171.04 158.74 171.99 159.12 172.81 158.78 C 173.64 158.43 174.02 157.48 173.67 156.66 Z M 173.27 155.70 L 172.86 154.78 C 172.50 153.96 171.55 153.59 170.73 153.94 C 169.91 154.30 169.54 155.26 169.90 156.07 L 170.31 157.00 C 170.66 157.82 171.62 158.19 172.44 157.83 C 173.25 157.47 173.63 156.52 173.27 155.70 Z M 172.85 154.76 L 172.45 153.86 C 172.08 153.05 171.13 152.69 170.31 153.05 C 169.50 153.42 169.14 154.38 169.50 155.19 L 169.91 156.09 C 170.27 156.90 171.23 157.26 172.04 156.90 C 172.86 156.53 173.22 155.57 172.85 154.76 Z M 172.44 153.85 L 172.02 152.93 C 171.65 152.12 170.69 151.76 169.88 152.13 C 169.07 152.51 168.71 153.47 169.08 154.28 L 169.51 155.20 C 169.88 156.01 170.84 156.37 171.65 156.00 C 172.46 155.62 172.82 154.66 172.44 153.85 Z M 172.01 152.92 L 171.59 152.01 C 171.21 151.20 170.25 150.85 169.44 151.23 C 168.64 151.60 168.29 152.57 168.66 153.37 L 169.09 154.28 C 169.47 155.09 170.43 155.44 171.23 155.06 C 172.04 154.69 172.39 153.73 172.01 152.92 Z M 171.59 152.00 L 171.16 151.10 C 170.78 150.30 169.82 149.95 169.01 150.34 C 168.20 150.72 167.86 151.68 168.24 152.49 L 168.67 153.38 C 169.05 154.19 170.01 154.53 170.82 154.15 C 171.62 153.77 171.97 152.80 171.59 152.00 Z M 171.16 151.09 L 170.72 150.18 C 170.33 149.38 169.36 149.04 168.56 149.43 C 167.75 149.82 167.42 150.79 167.81 151.59 L 168.25 152.50 C 168.64 153.30 169.60 153.64 170.41 153.25 C 171.21 152.86 171.54 151.89 171.16 151.09 Z M 170.71 150.17 L 170.26 149.27 C 169.86 148.47 168.89 148.14 168.09 148.54 C 167.30 148.94 166.97 149.91 167.37 150.71 L 167.81 151.61 C 168.21 152.40 169.18 152.73 169.98 152.33 C 170.78 151.94 171.11 150.97 170.71 150.17 Z M 170.25 149.25 L 169.81 148.37 C 169.40 147.58 168.42 147.27 167.63 147.67 C 166.83 148.08 166.52 149.05 166.93 149.85 L 167.38 150.72 C 167.78 151.52 168.76 151.83 169.55 151.43 C 170.35 151.02 170.66 150.04 170.25 149.25 Z M 169.79 148.35 L 169.32 147.47 C 168.91 146.68 167.93 146.38 167.14 146.80 C 166.35 147.22 166.05 148.20 166.47 148.99 L 166.94 149.87 C 167.36 150.66 168.34 150.96 169.13 150.54 C 169.91 150.12 170.21 149.14 169.79 148.35 Z M 169.31 147.44 L 168.81 146.55 C 168.38 145.77 167.40 145.48 166.61 145.92 C 165.83 146.35 165.55 147.34 165.98 148.12 L 166.48 149.01 C 166.91 149.79 167.90 150.08 168.68 149.64 C 169.46 149.21 169.74 148.23 169.31 147.44 Z M 168.80 146.52 L 168.29 145.64 C 167.84 144.87 166.85 144.60 166.08 145.05 C 165.30 145.50 165.04 146.49 165.49 147.26 L 166.00 148.14 C 166.45 148.92 167.44 149.18 168.21 148.73 C 168.99 148.28 169.25 147.29 168.80 146.52 Z M 168.27 145.61 L 167.74 144.74 C 167.27 143.98 166.28 143.74 165.51 144.20 C 164.75 144.67 164.51 145.67 164.98 146.43 L 165.51 147.30 C 165.97 148.06 166.97 148.30 167.73 147.83 C 168.50 147.37 168.74 146.37 168.27 145.61 Z M 167.71 144.70 L 167.17 143.87 C 166.68 143.12 165.68 142.91 164.93 143.40 C 164.18 143.89 163.97 144.89 164.46 145.64 L 165.00 146.47 C 165.49 147.22 166.49 147.43 167.24 146.94 C 167.99 146.45 168.20 145.45 167.71 144.70 Z M 167.13 143.81 L 166.55 142.99 C 166.03 142.26 165.01 142.09 164.28 142.61 C 163.56 143.13 163.39 144.15 163.91 144.87 L 164.50 145.70 C 165.02 146.43 166.03 146.59 166.76 146.07 C 167.49 145.55 167.66 144.54 167.13 143.81 Z M 166.50 142.92 L 165.86 142.12 C 165.30 141.42 164.28 141.31 163.58 141.87 C 162.88 142.43 162.76 143.45 163.32 144.15 L 163.96 144.94 C 164.52 145.64 165.54 145.76 166.24 145.20 C 166.94 144.64 167.06 143.62 166.50 142.92 Z M 165.80 142.05 L 165.16 141.33 C 164.56 140.66 163.54 140.60 162.87 141.20 C 162.20 141.80 162.14 142.83 162.73 143.50 L 163.38 144.22 C 163.98 144.89 165.00 144.95 165.67 144.35 C 166.34 143.75 166.40 142.72 165.80 142.05 Z M 165.11 141.27 L 164.42 140.57 C 163.79 139.93 162.76 139.92 162.12 140.55 C 161.48 141.18 161.47 142.21 162.10 142.85 L 162.79 143.55 C 163.42 144.20 164.45 144.20 165.09 143.57 C 165.73 142.94 165.74 141.91 165.11 141.27 Z M 164.36 140.51 L 163.62 139.83 C 162.96 139.22 161.93 139.27 161.32 139.93 C 160.71 140.59 160.75 141.62 161.41 142.23 L 162.16 142.91 C 162.82 143.52 163.85 143.48 164.46 142.81 C 165.07 142.15 165.02 141.12 164.36 140.51 Z M 163.54 139.76 L 162.77 139.14 C 162.07 138.57 161.04 138.68 160.48 139.38 C 159.91 140.09 160.02 141.11 160.72 141.68 L 161.49 142.30 C 162.19 142.87 163.22 142.76 163.79 142.06 C 164.35 141.36 164.24 140.33 163.54 139.76 Z M 162.67 139.06 L 161.84 138.49 C 161.10 137.98 160.08 138.17 159.57 138.91 C 159.06 139.66 159.25 140.68 159.99 141.19 L 160.82 141.76 C 161.56 142.27 162.58 142.08 163.09 141.34 C 163.61 140.59 163.42 139.57 162.67 139.06 Z M 161.74 138.42 L 160.87 137.92 C 160.08 137.47 159.08 137.74 158.63 138.53 C 158.18 139.31 158.45 140.31 159.24 140.76 L 160.10 141.26 C 160.89 141.71 161.89 141.44 162.34 140.66 C 162.79 139.87 162.52 138.87 161.74 138.42 Z M 160.76 137.86 L 159.87 137.43 C 159.05 137.04 158.07 137.38 157.68 138.20 C 157.28 139.02 157.63 140.00 158.45 140.39 L 159.34 140.82 C 160.16 141.22 161.14 140.87 161.53 140.05 C 161.93 139.24 161.58 138.26 160.76 137.86 Z M 159.77 137.38 L 158.83 137.01 C 157.99 136.68 157.03 137.09 156.70 137.93 C 156.36 138.78 156.77 139.74 157.62 140.07 L 158.55 140.44 C 159.39 140.78 160.35 140.37 160.69 139.52 C 161.02 138.68 160.61 137.72 159.77 137.38 Z M 158.73 136.97 L 157.78 136.67 C 156.91 136.39 155.98 136.87 155.70 137.74 C 155.43 138.61 155.90 139.53 156.77 139.81 L 157.72 140.11 C 158.59 140.39 159.52 139.91 159.80 139.04 C 160.07 138.18 159.59 137.25 158.73 136.97 Z M 157.67 136.63 L 156.71 136.40 C 155.83 136.18 154.93 136.73 154.71 137.61 C 154.50 138.50 155.04 139.39 155.93 139.61 L 156.88 139.84 C 157.77 140.06 158.66 139.52 158.88 138.63 C 159.10 137.75 158.55 136.85 157.67 136.63 Z M 156.60 136.38 L 155.64 136.21 C 154.74 136.05 153.88 136.65 153.72 137.55 C 153.56 138.45 154.17 139.31 155.07 139.47 L 156.03 139.64 C 156.93 139.79 157.79 139.19 157.95 138.29 C 158.11 137.39 157.51 136.53 156.60 136.38 Z M 155.54 136.19 L 154.52 136.07 C 153.61 135.97 152.79 136.62 152.69 137.53 C 152.58 138.44 153.24 139.26 154.15 139.37 L 155.16 139.48 C 156.07 139.59 156.89 138.93 157.00 138.03 C 157.10 137.12 156.45 136.29 155.54 136.19 Z M 154.45 136.06 L 153.46 136.00 C 152.55 135.93 151.76 136.62 151.69 137.54 C 151.63 138.45 152.32 139.24 153.23 139.31 L 154.22 139.37 C 155.13 139.44 155.93 138.75 155.99 137.83 C 156.05 136.92 155.36 136.13 154.45 136.06 Z M 153.41 135.99 L 152.40 135.95 C 151.48 135.92 150.71 136.64 150.68 137.55 C 150.65 138.47 151.36 139.24 152.28 139.27 L 153.29 139.31 C 154.20 139.35 154.97 138.63 155.01 137.71 C 155.04 136.80 154.33 136.02 153.41 135.99 Z M 152.36 135.95 L 151.35 135.94 C 150.43 135.93 149.68 136.66 149.67 137.58 C 149.66 138.50 150.39 139.25 151.31 139.27 L 152.32 139.28 C 153.24 139.29 153.99 138.55 154.00 137.63 C 154.01 136.72 153.28 135.96 152.36 135.95 Z M 151.31 135.94 L 150.31 135.95 C 149.39 135.96 148.65 136.72 148.66 137.64 C 148.67 138.56 149.43 139.29 150.35 139.28 L 151.35 139.27 C 152.27 139.25 153.01 138.50 152.99 137.58 C 152.98 136.66 152.23 135.93 151.31 135.94 Z M 150.22 135.95 L 149.23 136.02 C 148.32 136.07 147.62 136.87 147.68 137.78 C 147.74 138.70 148.53 139.40 149.44 139.34 L 150.43 139.28 C 151.35 139.22 152.05 138.43 151.99 137.51 C 151.93 136.59 151.14 135.90 150.22 135.95 Z M 149.10 136.03 L 148.11 136.17 C 147.20 136.30 146.57 137.15 146.70 138.06 C 146.83 138.96 147.67 139.60 148.58 139.47 L 149.57 139.32 C 150.48 139.19 151.11 138.35 150.98 137.44 C 150.85 136.53 150.01 135.90 149.10 136.03 Z M 147.96 136.20 L 147.03 136.42 C 146.14 136.63 145.58 137.53 145.80 138.42 C 146.01 139.32 146.90 139.87 147.80 139.66 L 148.73 139.44 C 149.62 139.23 150.17 138.33 149.96 137.44 C 149.75 136.54 148.86 135.99 147.96 136.20 Z M 146.91 136.46 L 145.96 136.76 C 145.09 137.03 144.60 137.96 144.88 138.84 C 145.15 139.71 146.08 140.20 146.96 139.92 L 147.91 139.62 C 148.79 139.35 149.27 138.42 149.00 137.54 C 148.72 136.67 147.79 136.18 146.91 136.46 Z M 145.87 136.79 L 144.90 137.16 C 144.05 137.48 143.61 138.44 143.94 139.29 C 144.26 140.15 145.22 140.58 146.08 140.26 L 147.05 139.89 C 147.90 139.57 148.33 138.61 148.01 137.75 C 147.69 136.90 146.73 136.47 145.87 136.79 Z M 144.84 137.19 L 143.94 137.57 C 143.10 137.93 142.71 138.90 143.07 139.74 C 143.43 140.58 144.40 140.97 145.24 140.61 L 146.14 140.23 C 146.98 139.87 147.37 138.90 147.01 138.06 C 146.65 137.22 145.68 136.83 144.84 137.19 Z M 143.90 137.59 L 143.00 138.01 C 142.17 138.40 141.81 139.38 142.20 140.20 C 142.58 141.03 143.56 141.39 144.39 141.00 L 145.29 140.59 C 146.12 140.20 146.47 139.22 146.09 138.39 C 145.71 137.57 144.72 137.21 143.90 137.59 Z M 142.96 138.03 L 142.05 138.49 C 141.23 138.89 140.90 139.88 141.31 140.69 C 141.71 141.51 142.70 141.84 143.51 141.44 L 144.43 140.98 C 145.24 140.58 145.57 139.59 145.17 138.78 C 144.76 137.96 143.77 137.63 142.96 138.03 Z M 142.02 138.51 L 141.13 138.97 C 140.32 139.39 140.01 140.39 140.43 141.19 C 140.85 141.99 141.84 142.30 142.65 141.88 L 143.54 141.42 C 144.35 141.00 144.66 140.00 144.24 139.20 C 143.82 138.40 142.82 138.09 142.02 138.51 Z M 141.10 138.99 L 140.24 139.47 C 139.44 139.90 139.15 140.89 139.58 141.69 C 140.02 142.48 141.01 142.77 141.80 142.34 L 142.67 141.87 C 143.46 141.43 143.76 140.44 143.32 139.65 C 142.89 138.85 141.90 138.56 141.10 138.99 Z M 140.21 139.48 L 139.34 139.98 C 138.56 140.42 138.28 141.42 138.73 142.20 C 139.17 142.99 140.17 143.26 140.95 142.82 L 141.83 142.32 C 142.61 141.88 142.88 140.88 142.44 140.10 C 141.99 139.31 141.00 139.04 140.21 139.48 Z M 139.32 140.00 L 138.45 140.51 C 137.67 140.97 137.42 141.97 137.88 142.74 C 138.33 143.52 139.33 143.77 140.10 143.31 L 140.98 142.80 C 141.75 142.34 142.01 141.34 141.55 140.57 C 141.09 139.80 140.09 139.54 139.32 140.00 Z M 138.42 140.53 L 137.58 141.06 C 136.82 141.52 136.58 142.52 137.05 143.29 C 137.52 144.05 138.52 144.28 139.28 143.82 L 140.13 143.29 C 140.89 142.82 141.12 141.83 140.66 141.06 C 140.19 140.30 139.19 140.06 138.42 140.53 Z M 137.56 141.08 L 136.73 141.61 C 135.98 142.09 135.76 143.09 136.24 143.84 C 136.72 144.59 137.72 144.81 138.47 144.33 L 139.30 143.79 C 140.05 143.31 140.27 142.31 139.79 141.56 C 139.31 140.81 138.31 140.59 137.56 141.08 Z M 136.70 141.63 L 135.87 142.19 C 135.13 142.69 134.94 143.69 135.43 144.42 C 135.93 145.16 136.93 145.36 137.66 144.86 L 138.49 144.30 C 139.23 143.81 139.43 142.81 138.93 142.07 C 138.44 141.34 137.44 141.14 136.70 141.63 Z M 135.85 142.22 L 135.02 142.80 C 134.29 143.31 134.12 144.31 134.63 145.03 C 135.13 145.76 136.13 145.93 136.86 145.42 L 137.69 144.84 C 138.41 144.33 138.59 143.33 138.08 142.61 C 137.57 141.88 136.57 141.71 135.85 142.22 Z M 134.99 142.83 L 134.17 143.43 C 133.46 143.95 133.31 144.95 133.83 145.66 C 134.36 146.37 135.35 146.52 136.06 146.00 L 136.88 145.40 C 137.59 144.87 137.74 143.88 137.22 143.17 C 136.70 142.46 135.70 142.31 134.99 142.83 Z M 134.15 143.46 L 133.34 144.08 C 132.65 144.62 132.52 145.61 133.06 146.31 C 133.60 147.00 134.59 147.13 135.29 146.59 L 136.09 145.97 C 136.78 145.43 136.91 144.43 136.37 143.74 C 135.83 143.05 134.84 142.92 134.15 143.46 Z M 133.31 144.12 L 132.53 144.76 C 131.86 145.31 131.77 146.31 132.32 146.98 C 132.88 147.65 133.87 147.75 134.54 147.19 L 135.32 146.55 C 135.99 146.00 136.09 145.00 135.53 144.33 C 134.98 143.66 133.98 143.56 133.31 144.12 Z M 132.49 144.80 L 131.76 145.46 C 131.11 146.04 131.06 147.03 131.63 147.67 C 132.21 148.32 133.20 148.38 133.85 147.80 L 134.58 147.15 C 135.23 146.57 135.29 145.58 134.71 144.93 C 134.13 144.28 133.14 144.23 132.49 144.80 Z M 131.71 145.52 L 130.98 146.24 C 130.36 146.84 130.36 147.83 130.96 148.45 C 131.57 149.06 132.56 149.07 133.17 148.46 L 133.90 147.74 C 134.52 147.14 134.52 146.15 133.92 145.53 C 133.31 144.92 132.32 144.91 131.71 145.52 Z M 130.92 146.30 L 130.24 147.05 C 129.67 147.69 129.71 148.67 130.35 149.25 C 130.99 149.83 131.97 149.78 132.55 149.14 L 133.23 148.39 C 133.81 147.76 133.76 146.77 133.12 146.20 C 132.48 145.62 131.50 145.67 130.92 146.30 Z M 130.19 147.12 L 129.58 147.88 C 129.04 148.55 129.14 149.52 129.80 150.06 C 130.46 150.60 131.44 150.50 131.98 149.84 L 132.60 149.08 C 133.14 148.41 133.04 147.44 132.37 146.90 C 131.71 146.36 130.73 146.46 130.19 147.12 Z M 129.54 147.95 L 128.96 148.73 C 128.46 149.41 128.60 150.38 129.29 150.88 C 129.97 151.39 130.94 151.24 131.44 150.56 L 132.02 149.78 C 132.52 149.09 132.38 148.12 131.69 147.62 C 131.01 147.11 130.04 147.26 129.54 147.95 Z M 128.93 148.78 L 128.37 149.62 C 127.89 150.32 128.08 151.28 128.78 151.75 C 129.49 152.22 130.44 152.04 130.92 151.33 L 131.48 150.50 C 131.95 149.80 131.76 148.84 131.06 148.37 C 130.36 147.89 129.40 148.08 128.93 148.78 Z M 128.34 149.67 L 127.81 150.53 C 127.37 151.25 127.60 152.19 128.32 152.63 C 129.04 153.07 129.98 152.85 130.43 152.13 L 130.95 151.27 C 131.39 150.55 131.16 149.61 130.44 149.17 C 129.72 148.73 128.78 148.95 128.34 149.67 Z M 127.78 150.59 L 127.30 151.46 C 126.89 152.20 127.16 153.13 127.90 153.53 C 128.63 153.94 129.56 153.68 129.97 152.94 L 130.46 152.07 C 130.86 151.33 130.60 150.40 129.86 149.99 C 129.12 149.58 128.19 149.85 127.78 150.59 Z M 127.27 151.52 L 126.83 152.41 C 126.45 153.17 126.76 154.08 127.51 154.46 C 128.27 154.83 129.18 154.52 129.56 153.77 L 130.00 152.88 C 130.38 152.12 130.07 151.21 129.32 150.83 C 128.56 150.46 127.65 150.77 127.27 151.52 Z M 126.80 152.47 L 126.39 153.38 C 126.05 154.15 126.40 155.05 127.17 155.39 C 127.93 155.74 128.83 155.39 129.18 154.62 L 129.58 153.71 C 129.92 152.94 129.58 152.04 128.81 151.70 C 128.04 151.36 127.14 151.70 126.80 152.47 Z M 126.37 153.44 L 126.00 154.37 C 125.69 155.15 126.07 156.04 126.85 156.35 C 127.63 156.66 128.52 156.28 128.83 155.50 L 129.20 154.57 C 129.51 153.79 129.13 152.90 128.35 152.59 C 127.57 152.28 126.68 152.66 126.37 153.44 Z M 125.98 154.43 L 125.65 155.37 C 125.37 156.16 125.78 157.03 126.57 157.31 C 127.37 157.59 128.24 157.18 128.52 156.38 L 128.85 155.44 C 129.13 154.65 128.72 153.78 127.92 153.50 C 127.13 153.22 126.26 153.63 125.98 154.43 Z M 125.63 155.42 L 125.33 156.37 C 125.07 157.17 125.52 158.02 126.32 158.28 C 127.12 158.53 127.98 158.09 128.23 157.29 L 128.53 156.34 C 128.79 155.54 128.34 154.68 127.54 154.43 C 126.74 154.17 125.88 154.62 125.63 155.42 Z M 125.32 156.40 L 125.04 157.36 C 124.80 158.17 125.26 159.01 126.07 159.25 C 126.88 159.49 127.73 159.02 127.96 158.22 L 128.24 157.26 C 128.48 156.45 128.01 155.60 127.21 155.37 C 126.40 155.13 125.55 155.59 125.32 156.40 Z M 125.03 157.38 L 124.76 158.34 C 124.54 159.16 125.01 160.00 125.82 160.22 C 126.63 160.45 127.47 159.97 127.70 159.16 L 127.97 158.20 C 128.19 157.39 127.72 156.55 126.91 156.32 C 126.10 156.09 125.26 156.57 125.03 157.38 Z M 124.76 158.35 L 124.72 158.51 C 124.49 159.32 124.97 160.16 125.78 160.39 C 126.59 160.61 127.43 160.13 127.66 159.32 L 127.70 159.16 C 127.92 158.35 127.45 157.51 126.64 157.28 C 125.82 157.06 124.98 157.54 124.76 158.35 Z"
      fill="black"
      fill-rule="nonzero" /></svg>