<svg xmlns="http://www.w3.org/2000/svg" width="300" height="300" viewBox="0 0 300 300">
<path d="M 159.60 138.14 L 159.27 137.19 C 158.98 136.38 158.09 135.96 157.29 136.25 C 156.48 136.53 156.06 137.42 156.34 138.23 L 156.68 139.17 C 156.97 139.98 157.85 140.40 158.66 140.12 C 159.46 139.83 159.89 138.94 159.60 138.14 Z M 159.21 137.04 L 158.79 136.15 C 158.42 135.38 157.50 135.05 156.72 135.41 C 155.95 135.78 155.61 136.71 155.98 137.48 L 156.40 138.37 C 156.77 139.15 157.69 139.48 158.47 139.11 C 159.24 138.75 159.58 137.82 159.21 137.04 Z M 158.69 135.96 L 158.15 135.14 C 157.68 134.41 156.71 134.21 155.99 134.68 C 155.27 135.16 155.07 136.12 155.54 136.84 L 156.08 137.67 C 156.55 138.39 157.52 138.59 158.24 138.12 C 158.96 137.65 159.16 136.68 158.69 135.96 Z M 158.10 135.06 L 157.51 134.26 C 157.00 133.56 156.01 133.41 155.32 133.93 C 154.62 134.44 154.47 135.43 154.99 136.12 L 155.58 136.92 C 156.10 137.62 157.08 137.77 157.78 137.25 C 158.47 136.73 158.62 135.75 158.10 135.06 Z M 157.51 134.24 L 156.90 133.43 C 156.37 132.74 155.38 132.61 154.69 133.13 C 153.99 133.66 153.86 134.65 154.39 135.34 L 154.99 136.14 C 155.52 136.84 156.51 136.97 157.20 136.45 C 157.90 135.92 158.03 134.93 157.51 134.24 Z M 156.90 133.42 L 156.28 132.62 C 155.74 131.93 154.75 131.80 154.06 132.33 C 153.37 132.87 153.24 133.86 153.77 134.55 L 154.39 135.35 C 154.92 136.05 155.91 136.18 156.61 135.64 C 157.30 135.11 157.43 134.12 156.90 133.42 Z M 156.28 132.62 L 155.66 131.83 C 155.13 131.13 154.13 131.01 153.44 131.54 C 152.75 132.08 152.62 133.07 153.16 133.77 L 153.77 134.56 C 154.31 135.25 155.30 135.38 155.99 134.84 C 156.69 134.31 156.81 133.31 156.28 132.62 Z M 155.67 131.83 L 155.05 131.03 C 154.51 130.33 153.52 130.21 152.82 130.74 C 152.13 131.28 152.00 132.27 152.54 132.97 L 153.16 133.77 C 153.69 134.46 154.69 134.59 155.38 134.05 C 156.07 133.51 156.20 132.52 155.67 131.83 Z M 155.05 131.02 L 154.43 130.23 C 153.89 129.54 152.90 129.41 152.20 129.95 C 151.51 130.49 151.39 131.49 151.93 132.18 L 152.54 132.97 C 153.08 133.66 154.08 133.79 154.77 133.25 C 155.46 132.71 155.59 131.72 155.05 131.02 Z M 154.42 130.21 L 153.80 129.44 C 153.25 128.75 152.25 128.64 151.56 129.19 C 150.88 129.74 150.77 130.74 151.32 131.42 L 151.94 132.20 C 152.49 132.88 153.49 132.99 154.17 132.44 C 154.86 131.90 154.97 130.90 154.42 130.21 Z M 153.78 129.41 L 153.14 128.65 C 152.57 127.97 151.57 127.88 150.90 128.44 C 150.23 129.01 150.14 130.01 150.70 130.68 L 151.34 131.45 C 151.90 132.12 152.90 132.21 153.57 131.65 C 154.25 131.09 154.34 130.09 153.78 129.41 Z M 153.13 128.63 L 152.47 127.87 C 151.91 127.20 150.90 127.12 150.24 127.69 C 149.57 128.26 149.49 129.26 150.06 129.93 L 150.71 130.69 C 151.28 131.36 152.28 131.44 152.95 130.87 C 153.61 130.30 153.69 129.30 153.13 128.63 Z M 152.47 127.86 L 151.80 127.09 C 151.23 126.42 150.22 126.35 149.56 126.93 C 148.89 127.50 148.82 128.51 149.40 129.17 L 150.06 129.94 C 150.64 130.60 151.64 130.68 152.31 130.10 C 152.97 129.52 153.04 128.52 152.47 127.86 Z M 151.78 127.05 L 151.12 126.33 C 150.52 125.68 149.51 125.64 148.86 126.24 C 148.21 126.84 148.17 127.85 148.77 128.50 L 149.42 129.21 C 150.02 129.86 151.03 129.90 151.68 129.30 C 152.33 128.71 152.37 127.70 151.78 127.05 Z M 151.04 126.24 L 150.34 125.59 C 149.69 124.98 148.67 125.02 148.07 125.67 C 147.46 126.32 147.50 127.34 148.15 127.95 L 148.85 128.59 C 149.50 129.20 150.52 129.16 151.12 128.51 C 151.73 127.86 151.69 126.84 151.04 126.24 Z M 150.19 125.44 L 149.36 124.85 C 148.63 124.33 147.61 124.50 147.09 125.23 C 146.57 125.96 146.74 126.97 147.47 127.50 L 148.30 128.09 C 149.03 128.61 150.05 128.44 150.57 127.71 C 151.09 126.98 150.92 125.97 150.19 125.44 Z M 149.22 124.74 L 148.39 124.27 C 147.59 123.83 146.59 124.11 146.15 124.91 C 145.70 125.70 145.99 126.70 146.78 127.15 L 147.61 127.61 C 148.41 128.05 149.41 127.77 149.85 126.98 C 150.29 126.18 150.01 125.18 149.22 124.74 Z M 148.23 124.17 L 147.27 123.77 C 146.41 123.41 145.43 123.82 145.08 124.67 C 144.73 125.52 145.13 126.50 145.98 126.85 L 146.94 127.25 C 147.80 127.61 148.77 127.21 149.13 126.35 C 149.48 125.50 149.08 124.52 148.23 124.17 Z M 147.04 123.67 L 146.02 123.41 C 145.12 123.18 144.19 123.72 143.96 124.63 C 143.73 125.54 144.28 126.46 145.18 126.69 L 146.20 126.95 C 147.11 127.18 148.03 126.64 148.27 125.73 C 148.50 124.82 147.95 123.90 147.04 123.67 Z M 145.79 123.34 L 144.77 123.23 C 143.83 123.13 142.98 123.81 142.88 124.75 C 142.77 125.69 143.45 126.54 144.40 126.64 L 145.42 126.75 C 146.36 126.86 147.21 126.18 147.31 125.24 C 147.41 124.29 146.73 123.45 145.79 123.34 Z M 144.57 123.20 L 143.59 123.21 C 142.63 123.22 141.86 124.00 141.86 124.95 C 141.87 125.91 142.65 126.68 143.61 126.68 L 144.59 126.67 C 145.55 126.67 146.32 125.89 146.31 124.93 C 146.31 123.97 145.53 123.20 144.57 123.20 Z M 143.39 123.21 L 142.38 123.33 C 141.42 123.44 140.74 124.31 140.85 125.27 C 140.97 126.23 141.84 126.92 142.80 126.80 L 143.80 126.68 C 144.76 126.57 145.45 125.70 145.33 124.74 C 145.22 123.78 144.35 123.09 143.39 123.21 Z M 142.11 123.36 L 141.17 123.63 C 140.23 123.89 139.68 124.87 139.95 125.81 C 140.21 126.75 141.19 127.30 142.13 127.03 L 143.07 126.76 C 144.01 126.50 144.56 125.52 144.29 124.58 C 144.03 123.65 143.05 123.10 142.11 123.36 Z M 140.86 123.73 L 140.01 124.15 C 139.12 124.59 138.76 125.65 139.19 126.54 C 139.63 127.42 140.70 127.78 141.58 127.35 L 142.43 126.93 C 143.32 126.50 143.68 125.43 143.25 124.54 C 142.81 123.66 141.74 123.30 140.86 123.73 Z M 139.77 124.28 L 138.99 124.82 C 138.17 125.39 137.97 126.50 138.54 127.32 C 139.10 128.13 140.22 128.33 141.03 127.77 L 141.82 127.23 C 142.63 126.66 142.83 125.54 142.27 124.73 C 141.70 123.91 140.58 123.71 139.77 124.28 Z M 138.83 124.93 L 138.05 125.61 C 137.29 126.26 137.21 127.40 137.86 128.15 C 138.51 128.90 139.65 128.99 140.40 128.34 L 141.19 127.66 C 141.94 127.01 142.03 125.87 141.37 125.12 C 140.72 124.36 139.58 124.28 138.83 124.93 Z M 137.95 125.69 L 137.25 126.38 C 136.54 127.08 136.54 128.23 137.24 128.94 C 137.95 129.65 139.10 129.66 139.81 128.95 L 140.50 128.26 C 141.21 127.55 141.22 126.40 140.51 125.69 C 139.81 124.98 138.66 124.98 137.95 125.69 Z M 137.18 126.44 L 136.53 127.16 C 135.85 127.91 135.91 129.06 136.65 129.73 C 137.39 130.41 138.55 130.35 139.22 129.61 L 139.88 128.89 C 140.55 128.14 140.50 126.99 139.75 126.32 C 139.01 125.64 137.86 125.70 137.18 126.44 Z M 136.46 127.22 L 135.80 128.02 C 135.16 128.80 135.27 129.95 136.05 130.59 C 136.83 131.24 137.98 131.13 138.63 130.35 L 139.28 129.55 C 139.93 128.77 139.81 127.62 139.04 126.98 C 138.26 126.33 137.11 126.44 136.46 127.22 Z M 135.75 128.08 L 135.14 128.89 C 134.53 129.69 134.69 130.84 135.50 131.45 C 136.31 132.06 137.46 131.90 138.07 131.09 L 138.68 130.29 C 139.29 129.48 139.13 128.33 138.32 127.72 C 137.51 127.11 136.36 127.27 135.75 128.08 Z M 135.10 128.94 L 134.54 129.74 C 133.96 130.57 134.17 131.71 135.00 132.29 C 135.84 132.87 136.98 132.67 137.56 131.84 L 138.12 131.04 C 138.70 130.21 138.49 129.06 137.66 128.48 C 136.83 127.90 135.68 128.11 135.10 128.94 Z M 134.51 129.79 L 133.96 130.63 C 133.41 131.48 133.65 132.62 134.50 133.18 C 135.36 133.73 136.50 133.49 137.05 132.63 L 137.60 131.79 C 138.15 130.93 137.91 129.79 137.05 129.24 C 136.20 128.69 135.06 128.93 134.51 129.79 Z M 133.93 130.68 L 133.39 131.57 C 132.86 132.44 133.15 133.58 134.02 134.10 C 134.89 134.63 136.02 134.35 136.55 133.47 L 137.09 132.58 C 137.61 131.71 137.33 130.58 136.46 130.05 C 135.58 129.53 134.45 129.81 133.93 130.68 Z M 133.36 131.62 L 132.88 132.48 C 132.38 133.37 132.69 134.49 133.58 134.99 C 134.47 135.49 135.60 135.18 136.10 134.29 L 136.58 133.43 C 137.08 132.54 136.76 131.41 135.87 130.91 C 134.98 130.41 133.86 130.73 133.36 131.62 Z M 132.85 132.52 L 132.39 133.39 C 131.91 134.29 132.26 135.41 133.16 135.89 C 134.07 136.36 135.19 136.02 135.67 135.11 L 136.12 134.25 C 136.60 133.34 136.26 132.22 135.35 131.74 C 134.45 131.27 133.33 131.61 132.85 132.52 Z M 132.37 133.42 L 131.92 134.32 C 131.46 135.23 131.83 136.35 132.75 136.81 C 133.66 137.27 134.78 136.89 135.24 135.98 L 135.69 135.08 C 136.15 134.16 135.77 133.05 134.86 132.59 C 133.94 132.13 132.83 132.50 132.37 133.42 Z M 131.90 134.35 L 131.46 135.27 C 131.02 136.20 131.41 137.31 132.34 137.75 C 133.26 138.19 134.37 137.80 134.81 136.88 L 135.26 135.95 C 135.70 135.02 135.31 133.91 134.38 133.47 C 133.45 133.03 132.34 133.42 131.90 134.35 Z M 131.44 135.30 L 131.04 136.19 C 130.61 137.12 131.02 138.23 131.95 138.66 C 132.89 139.08 133.99 138.68 134.42 137.74 L 134.83 136.85 C 135.26 135.92 134.85 134.81 133.91 134.38 C 132.98 133.95 131.87 134.36 131.44 135.30 Z M 131.02 136.21 L 130.63 137.08 C 130.21 138.03 130.64 139.13 131.58 139.55 C 132.53 139.96 133.63 139.54 134.05 138.60 L 134.43 137.72 C 134.85 136.78 134.43 135.67 133.48 135.26 C 132.54 134.84 131.44 135.26 131.02 136.21 Z M 130.62 137.11 L 130.23 138.02 C 129.83 138.97 130.27 140.06 131.22 140.47 C 132.17 140.88 133.27 140.43 133.67 139.48 L 134.06 138.58 C 134.46 137.62 134.02 136.53 133.07 136.12 C 132.12 135.72 131.02 136.16 130.62 137.11 Z M 130.22 138.04 L 129.83 138.99 C 129.44 139.94 129.89 141.04 130.85 141.43 C 131.81 141.82 132.90 141.37 133.30 140.41 L 133.68 139.46 C 134.08 138.50 133.62 137.41 132.66 137.02 C 131.70 136.62 130.61 137.08 130.22 138.04 Z M 129.81 139.01 L 129.42 140.00 C 129.04 140.96 129.52 142.05 130.48 142.43 C 131.45 142.81 132.54 142.34 132.92 141.38 L 133.31 140.39 C 133.69 139.42 133.22 138.33 132.25 137.95 C 131.29 137.57 130.20 138.04 129.81 139.01 Z M 129.41 140.02 L 129.08 140.91 C 128.71 141.88 129.20 142.97 130.17 143.34 C 131.14 143.70 132.23 143.21 132.60 142.24 L 132.93 141.35 C 133.30 140.38 132.81 139.30 131.84 138.93 C 130.87 138.56 129.78 139.05 129.41 140.02 Z M 129.06 140.93 L 128.73 141.85 C 128.37 142.83 128.88 143.91 129.86 144.27 C 130.84 144.62 131.92 144.12 132.27 143.14 L 132.61 142.22 C 132.96 141.24 132.46 140.16 131.48 139.80 C 130.50 139.45 129.42 139.95 129.06 140.93 Z M 128.71 141.88 L 128.39 142.83 C 128.05 143.82 128.57 144.89 129.56 145.23 C 130.55 145.57 131.62 145.05 131.96 144.06 L 132.29 143.11 C 132.63 142.13 132.10 141.05 131.12 140.71 C 130.13 140.37 129.05 140.89 128.71 141.88 Z M 128.37 142.86 L 128.06 143.83 C 127.74 144.83 128.28 145.89 129.28 146.22 C 130.27 146.54 131.34 145.99 131.66 145.00 L 131.98 144.03 C 132.30 143.03 131.75 141.97 130.76 141.64 C 129.76 141.32 128.70 141.87 128.37 142.86 Z M 128.04 143.87 L 127.74 144.86 C 127.44 145.86 128.01 146.92 129.01 147.22 C 130.02 147.52 131.08 146.96 131.38 145.95 L 131.68 144.96 C 131.98 143.96 131.41 142.90 130.41 142.60 C 129.40 142.30 128.34 142.86 128.04 143.87 Z M 127.73 144.90 L 127.46 145.86 C 127.18 146.88 127.78 147.92 128.79 148.20 C 129.80 148.48 130.85 147.89 131.13 146.88 L 131.40 145.91 C 131.67 144.90 131.08 143.85 130.07 143.57 C 129.06 143.29 128.01 143.89 127.73 144.90 Z M 127.45 145.91 L 127.21 146.86 C 126.95 147.88 127.57 148.91 128.59 149.17 C 129.61 149.43 130.65 148.81 130.90 147.79 L 131.14 146.83 C 131.40 145.81 130.78 144.78 129.76 144.52 C 128.74 144.27 127.71 144.89 127.45 145.91 Z M 127.20 146.90 L 126.97 147.86 C 126.74 148.89 127.38 149.91 128.41 150.15 C 129.43 150.38 130.46 149.74 130.69 148.72 L 130.91 147.75 C 131.15 146.73 130.51 145.70 129.48 145.47 C 128.46 145.23 127.43 145.87 127.20 146.90 Z M 126.96 147.90 L 126.76 148.87 C 126.54 149.91 127.20 150.92 128.23 151.14 C 129.26 151.35 130.28 150.69 130.50 149.66 L 130.70 148.68 C 130.92 147.65 130.26 146.64 129.23 146.42 C 128.20 146.20 127.18 146.86 126.96 147.90 Z M 126.75 148.90 L 126.56 149.90 C 126.36 150.93 127.03 151.94 128.07 152.14 C 129.11 152.34 130.11 151.66 130.31 150.62 L 130.50 149.63 C 130.70 148.60 130.03 147.59 128.99 147.39 C 127.95 147.19 126.95 147.87 126.75 148.90 Z M 126.55 149.92 L 126.37 150.93 C 126.18 151.97 126.87 152.97 127.92 153.15 C 128.96 153.34 129.95 152.65 130.14 151.61 L 130.32 150.60 C 130.51 149.56 129.81 148.56 128.77 148.38 C 127.73 148.19 126.74 148.88 126.55 149.92 Z M 126.36 150.95 L 126.20 151.92 C 126.03 152.97 126.73 153.96 127.77 154.13 C 128.82 154.31 129.81 153.60 129.98 152.56 L 130.14 151.58 C 130.32 150.54 129.61 149.55 128.57 149.38 C 127.53 149.20 126.54 149.91 126.36 150.95 Z M 126.19 151.95 L 126.04 152.93 C 125.88 153.97 126.60 154.95 127.64 155.12 C 128.69 155.28 129.67 154.56 129.84 153.52 L 129.99 152.54 C 130.15 151.49 129.43 150.51 128.39 150.34 C 127.34 150.18 126.36 150.90 126.19 151.95 Z M 126.04 152.95 L 125.89 153.94 C 125.74 154.99 126.47 155.96 127.52 156.11 C 128.57 156.26 129.55 155.53 129.70 154.48 L 129.84 153.49 C 129.99 152.44 129.26 151.47 128.21 151.32 C 127.16 151.17 126.19 151.90 126.04 152.95 Z M 125.89 153.96 L 125.76 154.96 C 125.62 156.01 126.36 156.98 127.42 157.11 C 128.47 157.25 129.44 156.51 129.57 155.46 L 129.70 154.46 C 129.84 153.41 129.10 152.44 128.05 152.30 C 126.99 152.16 126.03 152.91 125.89 153.96 Z M 125.75 154.98 L 125.63 155.98 C 125.51 157.04 126.27 158.00 127.32 158.12 C 128.38 158.25 129.34 157.49 129.46 156.43 L 129.58 155.43 C 129.70 154.38 128.95 153.42 127.89 153.29 C 126.83 153.17 125.88 153.92 125.75 154.98 Z M 125.63 156.01 L 125.52 157.01 C 125.41 158.07 126.18 159.02 127.24 159.13 C 128.30 159.24 129.25 158.47 129.36 157.41 L 129.47 156.41 C 129.58 155.35 128.81 154.40 127.75 154.29 C 126.69 154.18 125.74 154.95 125.63 156.01 Z M 125.52 157.04 L 125.43 158.05 C 125.33 159.11 126.12 160.05 127.18 160.15 C 128.24 160.24 129.18 159.46 129.28 158.40 L 129.37 157.39 C 129.46 156.32 128.68 155.38 127.62 155.29 C 126.55 155.19 125.61 155.98 125.52 157.04 Z M 125.42 158.08 L 125.35 159.08 C 125.27 160.15 126.06 161.08 127.13 161.16 C 128.19 161.24 129.12 160.44 129.20 159.38 L 129.28 158.37 C 129.36 157.31 128.57 156.38 127.50 156.29 C 126.43 156.21 125.51 157.01 125.42 158.08 Z M 125.34 159.11 L 125.28 160.11 C 125.21 161.18 126.02 162.10 127.09 162.17 C 128.16 162.24 129.08 161.43 129.14 160.36 L 129.21 159.36 C 129.28 158.29 128.47 157.37 127.40 157.30 C 126.33 157.23 125.41 158.04 125.34 159.11 Z M 125.27 160.14 L 125.22 161.13 C 125.17 162.20 125.99 163.12 127.06 163.17 C 128.13 163.23 129.04 162.41 129.10 161.34 L 129.15 160.34 C 129.20 159.27 128.38 158.36 127.31 158.30 C 126.24 158.24 125.33 159.07 125.27 160.14 Z M 125.22 161.15 L 125.18 162.15 C 125.13 163.22 125.96 164.12 127.04 164.17 C 128.11 164.21 129.01 163.38 129.06 162.31 L 129.10 161.32 C 129.14 160.25 128.31 159.34 127.24 159.30 C 126.17 159.25 125.26 160.08 125.22 161.15 Z M 125.17 162.16 L 125.14 163.14 C 125.11 164.22 125.95 165.12 127.02 165.15 C 128.10 165.19 128.99 164.34 129.03 163.27 L 129.06 162.29 C 129.10 161.22 128.25 160.32 127.18 160.28 C 126.11 160.25 125.21 161.09 125.17 162.16 Z M 125.14 163.16 L 125.11 164.18 C 125.09 165.25 125.94 166.14 127.02 166.17 C 128.09 166.19 128.98 165.34 129.01 164.27 L 129.03 163.25 C 129.06 162.18 128.21 161.29 127.13 161.26 C 126.06 161.24 125.16 162.09 125.14 163.16 Z M 125.11 164.19 L 125.10 165.21 C 125.08 166.28 125.94 167.17 127.02 167.18 C 128.10 167.20 128.98 166.34 129.00 165.26 L 129.01 164.25 C 129.03 163.17 128.17 162.29 127.09 162.27 C 126.01 162.26 125.13 163.12 125.11 164.19 Z M 125.09 165.22 L 125.09 166.23 C 125.08 167.30 125.95 168.18 127.03 168.19 C 128.11 168.19 128.99 167.32 128.99 166.25 L 129.00 165.24 C 129.00 164.17 128.13 163.29 127.06 163.28 C 125.98 163.28 125.10 164.15 125.09 165.22 Z M 125.09 166.24 L 125.09 167.24 C 125.10 168.32 125.98 169.19 127.06 169.18 C 128.13 169.18 129.01 168.30 129.00 167.22 L 129.00 166.23 C 128.99 165.15 128.11 164.28 127.03 164.28 C 125.95 164.29 125.08 165.17 125.09 166.24 Z M 125.09 167.26 L 125.10 168.24 C 125.12 169.33 126.01 170.19 127.09 170.17 C 128.17 170.16 129.03 169.27 129.02 168.19 L 129.00 167.20 C 128.99 166.12 128.10 165.26 127.02 165.27 C 125.94 165.29 125.07 166.18 125.09 167.26 Z M 125.10 168.26 L 125.13 169.25 C 125.15 170.33 126.05 171.19 127.13 171.16 C 128.21 171.13 129.07 170.24 129.04 169.15 L 129.02 168.17 C 128.99 167.09 128.09 166.23 127.01 166.26 C 125.93 166.28 125.08 167.18 125.10 168.26 Z M 125.12 169.27 L 125.16 170.27 C 125.20 171.35 126.11 172.20 127.19 172.16 C 128.27 172.12 129.12 171.21 129.08 170.13 L 129.05 169.13 C 129.01 168.05 128.10 167.20 127.02 167.24 C 125.93 167.28 125.09 168.19 125.12 169.27 Z M 125.16 170.29 L 125.21 171.29 C 125.26 172.37 126.18 173.21 127.26 173.15 C 128.35 173.10 129.18 172.18 129.13 171.09 L 129.08 170.10 C 129.03 169.02 128.11 168.18 127.02 168.23 C 125.94 168.29 125.10 169.21 125.16 170.29 Z M 125.20 171.32 L 125.27 172.32 C 125.34 173.40 126.28 174.22 127.36 174.15 C 128.45 174.08 129.27 173.14 129.20 172.06 L 129.13 171.06 C 129.06 169.98 128.12 169.16 127.04 169.23 C 125.95 169.30 125.13 170.24 125.20 171.32 Z M 125.27 172.36 L 125.36 173.35 C 125.45 174.44 126.41 175.24 127.49 175.15 C 128.58 175.05 129.38 174.10 129.29 173.01 L 129.20 172.02 C 129.10 170.93 128.15 170.13 127.06 170.22 C 125.98 170.32 125.18 171.27 125.27 172.36 Z M 125.36 173.40 L 125.47 174.40 C 125.59 175.48 126.57 176.27 127.65 176.15 C 128.73 176.03 129.51 175.05 129.39 173.97 L 129.28 172.97 C 129.16 171.88 128.19 171.10 127.10 171.22 C 126.02 171.34 125.24 172.32 125.36 173.40 Z M 125.47 174.45 L 125.61 175.47 C 125.76 176.55 126.76 177.30 127.84 177.16 C 128.92 177.01 129.68 176.01 129.53 174.93 L 129.39 173.91 C 129.24 172.83 128.24 172.07 127.16 172.22 C 126.08 172.37 125.32 173.37 125.47 174.45 Z M 125.62 175.52 L 125.79 176.54 C 125.97 177.62 126.99 178.35 128.07 178.17 C 129.15 177.99 129.88 176.97 129.70 175.89 L 129.53 174.87 C 129.35 173.79 128.33 173.06 127.25 173.24 C 126.17 173.42 125.44 174.44 125.62 175.52 Z M 125.80 176.60 L 125.99 177.61 C 126.20 178.68 127.25 179.38 128.32 179.17 C 129.40 178.96 130.10 177.92 129.89 176.84 L 129.69 175.83 C 129.48 174.76 128.44 174.06 127.36 174.27 C 126.28 174.48 125.58 175.52 125.80 176.60 Z M 126.00 177.67 L 126.23 178.65 C 126.47 179.72 127.53 180.39 128.61 180.14 C 129.68 179.90 130.34 178.83 130.10 177.76 L 129.88 176.78 C 129.63 175.71 128.57 175.04 127.50 175.29 C 126.43 175.53 125.76 176.60 126.00 177.67 Z M 126.24 178.71 L 126.49 179.65 C 126.76 180.72 127.85 181.35 128.92 181.08 C 129.98 180.80 130.62 179.71 130.34 178.65 L 130.09 177.70 C 129.81 176.64 128.72 176.00 127.66 176.28 C 126.60 176.56 125.96 177.65 126.24 178.71 Z M 126.50 179.73 L 126.78 180.63 C 127.09 181.68 128.21 182.28 129.26 181.96 C 130.31 181.64 130.91 180.53 130.59 179.48 L 130.32 178.57 C 130.00 177.52 128.89 176.92 127.84 177.24 C 126.78 177.56 126.18 178.67 126.50 179.73 Z M 126.80 180.72 L 127.17 181.75 C 127.53 182.79 128.67 183.33 129.71 182.97 C 130.75 182.60 131.30 181.46 130.93 180.42 L 130.57 179.39 C 130.20 178.35 129.06 177.80 128.02 178.17 C 126.98 178.54 126.43 179.68 126.80 180.72 Z M 127.20 181.85 L 127.60 182.80 C 128.02 183.82 129.19 184.30 130.21 183.88 C 131.23 183.45 131.71 182.28 131.29 181.27 L 130.89 180.32 C 130.47 179.30 129.30 178.82 128.28 179.24 C 127.26 179.67 126.78 180.83 127.20 181.85 Z M 127.65 182.91 L 128.07 183.78 C 128.55 184.78 129.75 185.19 130.74 184.71 C 131.74 184.23 132.15 183.03 131.67 182.04 L 131.24 181.16 C 130.76 180.17 129.56 179.75 128.57 180.24 C 127.58 180.72 127.16 181.91 127.65 182.91 Z M 128.12 183.89 L 128.58 184.70 C 129.11 185.66 130.33 186.01 131.30 185.47 C 132.26 184.93 132.61 183.71 132.07 182.75 L 131.62 181.94 C 131.08 180.97 129.86 180.62 128.89 181.16 C 127.93 181.70 127.58 182.92 128.12 183.89 Z M 128.63 184.80 L 129.17 185.63 C 129.76 186.57 131.00 186.84 131.93 186.25 C 132.86 185.65 133.14 184.42 132.54 183.48 L 132.01 182.65 C 131.42 181.72 130.18 181.44 129.25 182.03 C 128.32 182.63 128.04 183.87 128.63 184.80 Z M 129.23 185.74 L 129.83 186.56 C 130.48 187.45 131.74 187.65 132.63 187.00 C 133.52 186.35 133.72 185.10 133.07 184.20 L 132.47 183.38 C 131.82 182.49 130.57 182.29 129.68 182.94 C 128.78 183.59 128.58 184.84 129.23 185.74 Z M 129.91 186.66 L 130.55 187.42 C 131.25 188.27 132.52 188.39 133.37 187.68 C 134.22 186.97 134.33 185.71 133.63 184.86 L 132.99 184.10 C 132.28 183.25 131.02 183.13 130.17 183.84 C 129.32 184.55 129.20 185.81 129.91 186.66 Z M 130.63 187.52 L 131.31 188.23 C 132.07 189.03 133.34 189.06 134.14 188.30 C 134.94 187.54 134.97 186.27 134.21 185.47 L 133.54 184.76 C 132.77 183.96 131.51 183.93 130.70 184.69 C 129.90 185.45 129.87 186.72 130.63 187.52 Z M 131.40 188.33 L 132.15 189.01 C 132.96 189.75 134.23 189.70 134.98 188.88 C 135.73 188.06 135.67 186.80 134.85 186.05 L 134.11 185.37 C 133.30 184.62 132.03 184.68 131.28 185.49 C 130.53 186.31 130.59 187.58 131.40 188.33 Z M 132.26 189.10 L 133.05 189.72 C 133.91 190.41 135.17 190.26 135.86 189.39 C 136.55 188.53 136.40 187.27 135.53 186.58 L 134.74 185.95 C 133.88 185.27 132.61 185.42 131.93 186.28 C 131.24 187.15 131.39 188.41 132.26 189.10 Z M 133.17 189.81 L 133.99 190.37 C 134.91 190.99 136.16 190.74 136.78 189.83 C 137.39 188.91 137.15 187.66 136.23 187.04 L 135.41 186.49 C 134.49 185.87 133.24 186.11 132.63 187.03 C 132.01 187.95 132.25 189.20 133.17 189.81 Z M 134.13 190.45 L 134.99 190.94 C 135.96 191.48 137.18 191.14 137.72 190.17 C 138.27 189.21 137.92 187.98 136.96 187.44 L 136.09 186.96 C 135.13 186.42 133.91 186.76 133.37 187.72 C 132.82 188.69 133.17 189.91 134.13 190.45 Z M 135.14 191.01 L 136.05 191.43 C 137.06 191.89 138.25 191.45 138.71 190.44 C 139.17 189.43 138.73 188.24 137.72 187.78 L 136.81 187.37 C 135.80 186.91 134.61 187.35 134.15 188.36 C 133.69 189.36 134.14 190.55 135.14 191.01 Z M 136.19 191.49 L 137.13 191.83 C 138.17 192.22 139.32 191.68 139.70 190.65 C 140.09 189.61 139.56 188.46 138.52 188.07 L 137.58 187.73 C 136.54 187.34 135.39 187.87 135.01 188.91 C 134.62 189.95 135.15 191.10 136.19 191.49 Z M 137.25 191.87 L 138.21 192.16 C 139.27 192.47 140.38 191.87 140.70 190.81 C 141.02 189.75 140.41 188.63 139.35 188.32 L 138.40 188.03 C 137.33 187.72 136.22 188.32 135.90 189.38 C 135.59 190.44 136.19 191.56 137.25 191.87 Z M 138.31 192.18 L 139.28 192.42 C 140.35 192.67 141.43 192.01 141.69 190.94 C 141.95 189.86 141.29 188.78 140.21 188.52 L 139.25 188.29 C 138.17 188.03 137.09 188.69 136.83 189.77 C 136.57 190.84 137.24 191.93 138.31 192.18 Z M 139.37 192.43 L 140.34 192.62 C 141.43 192.83 142.48 192.12 142.69 191.04 C 142.90 189.95 142.18 188.90 141.10 188.69 L 140.12 188.50 C 139.04 188.29 137.99 189.00 137.78 190.09 C 137.57 191.18 138.28 192.23 139.37 192.43 Z M 140.42 192.63 L 141.41 192.78 C 142.50 192.95 143.52 192.20 143.69 191.11 C 143.85 190.02 143.10 189.00 142.01 188.83 L 141.02 188.68 C 139.93 188.51 138.91 189.26 138.74 190.36 C 138.58 191.45 139.33 192.47 140.42 192.63 Z M 141.47 192.79 L 142.48 192.91 C 143.58 193.04 144.57 192.26 144.70 191.16 C 144.83 190.07 144.05 189.07 142.95 188.94 L 141.95 188.82 C 140.85 188.69 139.86 189.48 139.73 190.57 C 139.60 191.67 140.38 192.66 141.47 192.79 Z M 142.53 192.92 L 143.54 193.01 C 144.64 193.11 145.61 192.30 145.72 191.21 C 145.82 190.11 145.01 189.14 143.91 189.03 L 142.90 188.94 C 141.80 188.84 140.83 189.65 140.73 190.74 C 140.63 191.84 141.43 192.81 142.53 192.92 Z M 143.59 193.01 L 144.60 193.08 C 145.69 193.16 146.65 192.33 146.73 191.23 C 146.80 190.13 145.98 189.18 144.88 189.10 L 143.87 189.03 C 142.77 188.95 141.82 189.78 141.74 190.88 C 141.66 191.98 142.49 192.93 143.59 193.01 Z M 144.63 193.08 L 145.62 193.13 C 146.72 193.19 147.66 192.34 147.71 191.24 C 147.77 190.14 146.92 189.21 145.82 189.15 L 144.84 189.10 C 143.74 189.05 142.80 189.89 142.74 190.99 C 142.69 192.09 143.54 193.03 144.63 193.08 Z M 145.66 193.13 L 146.67 193.17 C 147.77 193.20 148.69 192.34 148.73 191.24 C 148.76 190.14 147.90 189.22 146.80 189.18 L 145.78 189.15 C 144.68 189.12 143.76 189.98 143.73 191.08 C 143.70 192.18 144.56 193.10 145.66 193.13 Z M 146.74 193.16 L 147.75 193.16 C 148.85 193.16 149.74 192.26 149.74 191.16 C 149.73 190.07 148.84 189.18 147.74 189.18 L 146.73 189.18 C 145.63 189.19 144.74 190.08 144.75 191.18 C 144.75 192.28 145.64 193.17 146.74 193.16 Z M 147.87 193.16 L 148.85 193.09 C 149.94 193.03 150.78 192.08 150.71 190.99 C 150.64 189.89 149.69 189.06 148.60 189.13 L 147.62 189.19 C 146.53 189.25 145.69 190.20 145.76 191.30 C 145.83 192.39 146.77 193.22 147.87 193.16 Z M 149.01 193.07 L 149.98 192.93 C 151.06 192.77 151.81 191.76 151.65 190.68 C 151.49 189.59 150.48 188.84 149.40 189.00 L 148.43 189.14 C 147.35 189.30 146.60 190.31 146.76 191.40 C 146.92 192.48 147.93 193.23 149.01 193.07 Z M 150.15 192.90 L 151.11 192.66 C 152.18 192.41 152.83 191.34 152.58 190.27 C 152.32 189.21 151.25 188.55 150.19 188.81 L 149.22 189.04 C 148.16 189.30 147.50 190.37 147.76 191.43 C 148.01 192.50 149.08 193.15 150.15 192.90 Z M 151.26 192.62 L 152.21 192.31 C 153.25 191.98 153.82 190.86 153.49 189.82 C 153.15 188.78 152.04 188.21 151.00 188.55 L 150.04 188.85 C 149.00 189.19 148.43 190.30 148.77 191.34 C 149.10 192.38 150.22 192.95 151.26 192.62 Z M 152.32 192.27 L 153.26 191.90 C 154.27 191.50 154.78 190.36 154.38 189.34 C 153.98 188.33 152.84 187.83 151.82 188.22 L 150.89 188.59 C 149.87 188.99 149.37 190.13 149.77 191.15 C 150.16 192.16 151.31 192.66 152.32 192.27 Z M 153.35 191.86 L 154.25 191.45 C 155.24 191.01 155.68 189.84 155.23 188.85 C 154.79 187.86 153.62 187.41 152.63 187.86 L 151.73 188.27 C 150.74 188.71 150.30 189.88 150.74 190.87 C 151.19 191.87 152.36 192.31 153.35 191.86 Z M 154.33 191.41 L 155.23 190.95 C 156.19 190.46 156.57 189.27 156.08 188.30 C 155.58 187.34 154.40 186.95 153.43 187.45 L 152.54 187.91 C 151.57 188.40 151.19 189.59 151.69 190.56 C 152.18 191.52 153.37 191.90 154.33 191.41 Z M 155.31 190.90 L 156.20 190.39 C 157.13 189.85 157.46 188.65 156.91 187.71 C 156.37 186.77 155.17 186.45 154.23 186.99 L 153.34 187.50 C 152.40 188.04 152.08 189.25 152.63 190.18 C 153.17 191.12 154.37 191.44 155.31 190.90 Z M 156.28 190.34 L 157.09 189.81 C 158.00 189.23 158.26 188.01 157.67 187.10 C 157.08 186.19 155.87 185.93 154.96 186.52 L 154.15 187.04 C 153.24 187.63 152.98 188.84 153.56 189.75 C 154.15 190.66 155.37 190.93 156.28 190.34 Z M 157.16 189.76 L 157.97 189.18 C 158.85 188.55 159.05 187.33 158.42 186.45 C 157.79 185.57 156.57 185.37 155.69 186.00 L 154.88 186.57 C 154.00 187.20 153.80 188.43 154.43 189.31 C 155.06 190.19 156.28 190.39 157.16 189.76 Z M 158.04 189.12 L 158.84 188.49 C 159.69 187.82 159.83 186.59 159.16 185.74 C 158.49 184.89 157.26 184.75 156.41 185.42 L 155.61 186.06 C 154.77 186.73 154.62 187.96 155.30 188.80 C 155.97 189.65 157.20 189.79 158.04 189.12 Z M 158.91 188.43 L 159.66 187.78 C 160.47 187.07 160.56 185.83 159.85 185.02 C 159.14 184.21 157.90 184.12 157.09 184.83 L 156.34 185.48 C 155.53 186.19 155.45 187.43 156.16 188.24 C 156.87 189.05 158.10 189.14 158.91 188.43 Z M 159.72 187.72 L 160.41 187.07 C 161.19 186.32 161.22 185.09 160.48 184.31 C 159.74 183.52 158.50 183.49 157.72 184.23 L 157.03 184.89 C 156.25 185.63 156.22 186.87 156.96 187.65 C 157.70 188.43 158.94 188.46 159.72 187.72 Z M 160.45 187.02 L 161.15 186.31 C 161.91 185.54 161.90 184.31 161.13 183.55 C 160.36 182.80 159.13 182.81 158.37 183.57 L 157.67 184.28 C 156.92 185.05 156.93 186.28 157.70 187.04 C 158.46 187.79 159.70 187.78 160.45 187.02 Z M 161.19 186.27 L 161.90 185.51 C 162.63 184.72 162.58 183.49 161.79 182.75 C 161.01 182.02 159.77 182.07 159.04 182.85 L 158.33 183.62 C 157.60 184.40 157.65 185.64 158.43 186.37 C 159.22 187.10 160.45 187.06 161.19 186.27 Z M 161.92 185.47 L 162.61 184.70 C 163.32 183.90 163.25 182.67 162.45 181.96 C 161.64 181.24 160.41 181.31 159.70 182.12 L 159.01 182.89 C 158.30 183.69 158.37 184.92 159.18 185.64 C 159.98 186.35 161.21 186.28 161.92 185.47 Z M 162.63 184.68 L 163.26 183.93 C 163.96 183.12 163.87 181.89 163.05 181.19 C 162.24 180.49 161.01 180.59 160.31 181.40 L 159.67 182.15 C 158.98 182.96 159.07 184.19 159.89 184.89 C 160.70 185.59 161.93 185.49 162.63 184.68 Z M 163.29 183.90 L 163.92 183.13 C 164.61 182.30 164.49 181.07 163.66 180.39 C 162.83 179.71 161.60 179.83 160.92 180.66 L 160.29 181.44 C 159.60 182.26 159.72 183.49 160.55 184.17 C 161.38 184.85 162.61 184.73 163.29 183.90 Z M 163.95 183.09 L 164.58 182.29 C 165.24 181.45 165.09 180.23 164.25 179.57 C 163.41 178.91 162.19 179.05 161.52 179.90 L 160.90 180.70 C 160.23 181.54 160.38 182.76 161.23 183.42 C 162.07 184.08 163.29 183.94 163.95 183.09 Z M 164.61 182.25 L 165.22 181.43 C 165.86 180.57 165.68 179.36 164.82 178.72 C 163.96 178.08 162.74 178.26 162.10 179.12 L 161.50 179.94 C 160.86 180.80 161.03 182.01 161.89 182.65 C 162.75 183.29 163.97 183.11 164.61 182.25 Z M 165.25 181.39 L 165.83 180.56 C 166.44 179.68 166.23 178.47 165.35 177.86 C 164.47 177.25 163.26 177.46 162.65 178.34 L 162.07 179.17 C 161.46 180.04 161.67 181.25 162.55 181.87 C 163.43 182.48 164.64 182.26 165.25 181.39 Z M 165.86 180.51 L 166.41 179.67 C 166.99 178.77 166.74 177.57 165.85 176.99 C 164.95 176.40 163.75 176.65 163.17 177.55 L 162.62 178.39 C 162.03 179.28 162.28 180.48 163.18 181.07 C 164.07 181.66 165.27 181.40 165.86 180.51 Z M 166.44 179.63 L 166.96 178.78 C 167.52 177.87 167.24 176.67 166.33 176.11 C 165.42 175.55 164.22 175.83 163.66 176.74 L 163.14 177.59 C 162.58 178.50 162.86 179.70 163.77 180.26 C 164.68 180.82 165.88 180.54 166.44 179.63 Z M 166.98 178.74 L 167.48 177.88 C 168.02 176.95 167.71 175.77 166.79 175.23 C 165.87 174.69 164.68 175.00 164.14 175.92 L 163.64 176.78 C 163.10 177.71 163.41 178.89 164.33 179.43 C 165.26 179.97 166.44 179.66 166.98 178.74 Z M 167.50 177.85 L 167.99 176.97 C 168.51 176.04 168.18 174.86 167.24 174.34 C 166.31 173.82 165.13 174.15 164.61 175.09 L 164.12 175.96 C 163.60 176.89 163.93 178.07 164.87 178.59 C 165.80 179.11 166.98 178.78 167.50 177.85 Z M 168.01 176.95 L 168.48 176.06 C 168.99 175.12 168.63 173.95 167.69 173.44 C 166.75 172.94 165.57 173.29 165.07 174.23 L 164.59 175.11 C 164.09 176.05 164.44 177.23 165.38 177.74 C 166.32 178.24 167.50 177.89 168.01 176.95 Z M 168.49 176.04 L 168.95 175.15 C 169.45 174.20 169.08 173.03 168.13 172.54 C 167.18 172.04 166.01 172.41 165.52 173.36 L 165.05 174.25 C 164.56 175.20 164.93 176.37 165.88 176.87 C 166.83 177.36 168.00 176.99 168.49 176.04 Z M 168.97 175.13 L 169.42 174.23 C 169.90 173.28 169.51 172.11 168.56 171.63 C 167.60 171.15 166.44 171.53 165.96 172.49 L 165.51 173.39 C 165.02 174.34 165.41 175.51 166.36 175.99 C 167.32 176.47 168.48 176.08 168.97 175.13 Z M 169.43 174.21 L 169.87 173.31 C 170.34 172.35 169.94 171.19 168.98 170.72 C 168.02 170.25 166.86 170.65 166.39 171.61 L 165.95 172.51 C 165.48 173.47 165.87 174.63 166.84 175.10 C 167.80 175.57 168.96 175.17 169.43 174.21 Z M 169.88 173.30 L 170.31 172.40 C 170.77 171.43 170.36 170.27 169.39 169.81 C 168.42 169.35 167.27 169.76 166.81 170.73 L 166.38 171.63 C 165.92 172.59 166.33 173.75 167.29 174.21 C 168.26 174.67 169.41 174.26 169.88 173.30 Z M 170.31 172.38 L 170.75 171.45 C 171.20 170.48 170.78 169.32 169.81 168.87 C 168.84 168.42 167.68 168.84 167.23 169.81 L 166.80 170.74 C 166.35 171.72 166.77 172.87 167.74 173.32 C 168.71 173.77 169.86 173.35 170.31 172.38 Z M 170.76 171.43 L 171.17 170.50 C 171.61 169.53 171.18 168.38 170.20 167.94 C 169.23 167.50 168.08 167.93 167.64 168.91 L 167.22 169.83 C 166.78 170.81 167.22 171.96 168.19 172.40 C 169.17 172.84 170.32 172.40 170.76 171.43 Z M 171.18 170.48 L 171.58 169.57 C 172.01 168.59 171.56 167.45 170.58 167.02 C 169.60 166.59 168.45 167.04 168.03 168.02 L 167.63 168.93 C 167.20 169.91 167.65 171.06 168.63 171.48 C 169.61 171.91 170.75 171.46 171.18 170.48 Z M 171.59 169.55 L 171.97 168.65 C 172.38 167.66 171.92 166.52 170.93 166.11 C 169.94 165.70 168.81 166.16 168.39 167.15 L 168.01 168.05 C 167.60 169.03 168.06 170.17 169.05 170.58 C 170.04 171.00 171.18 170.53 171.59 169.55 Z M 171.98 168.62 L 172.36 167.68 C 172.75 166.69 172.27 165.56 171.28 165.16 C 170.28 164.76 169.15 165.25 168.75 166.24 L 168.38 167.18 C 167.98 168.17 168.46 169.30 169.46 169.70 C 170.45 170.10 171.58 169.61 171.98 168.62 Z M 172.37 167.65 L 172.73 166.70 C 173.11 165.70 172.61 164.58 171.60 164.20 C 170.60 163.82 169.48 164.32 169.10 165.33 L 168.74 166.27 C 168.36 167.28 168.86 168.40 169.87 168.78 C 170.87 169.16 171.99 168.65 172.37 167.65 Z M 172.74 166.66 L 173.08 165.72 C 173.44 164.71 172.91 163.60 171.90 163.25 C 170.89 162.89 169.78 163.42 169.42 164.43 L 169.09 165.36 C 168.73 166.37 169.26 167.48 170.27 167.84 C 171.28 168.20 172.39 167.67 172.74 166.66 Z M 173.09 165.68 L 173.40 164.75 C 173.73 163.73 173.18 162.63 172.16 162.30 C 171.14 161.96 170.04 162.52 169.71 163.54 L 169.40 164.47 C 169.07 165.49 169.62 166.59 170.64 166.92 C 171.66 167.25 172.76 166.70 173.09 165.68 Z M 173.41 164.70 L 173.69 163.76 C 174.00 162.73 173.42 161.65 172.39 161.34 C 171.36 161.04 170.28 161.62 169.97 162.65 L 169.69 163.59 C 169.38 164.61 169.97 165.70 171.00 166.00 C 172.02 166.31 173.11 165.73 173.41 164.70 Z M 173.71 163.71 L 173.97 162.76 C 174.25 161.73 173.63 160.66 172.60 160.38 C 171.56 160.10 170.49 160.71 170.21 161.75 L 169.96 162.70 C 169.68 163.73 170.29 164.80 171.33 165.08 C 172.36 165.36 173.43 164.75 173.71 163.71 Z M 173.98 162.72 L 174.21 161.75 C 174.47 160.71 173.83 159.66 172.79 159.41 C 171.74 159.15 170.69 159.79 170.44 160.83 L 170.20 161.80 C 169.95 162.84 170.59 163.89 171.63 164.14 C 172.67 164.40 173.72 163.76 173.98 162.72 Z M 174.22 161.71 L 174.44 160.72 C 174.67 159.68 174.01 158.64 172.96 158.41 C 171.92 158.17 170.88 158.84 170.65 159.88 L 170.43 160.87 C 170.20 161.92 170.86 162.96 171.90 163.19 C 172.95 163.42 173.99 162.76 174.22 161.71 Z M 174.45 160.69 L 174.65 159.69 C 174.86 158.64 174.18 157.62 173.13 157.40 C 172.08 157.19 171.05 157.87 170.84 158.92 L 170.64 159.92 C 170.43 160.97 171.11 162.00 172.16 162.21 C 173.21 162.42 174.24 161.74 174.45 160.69 Z M 174.66 159.66 L 174.84 158.67 C 175.04 157.62 174.34 156.60 173.28 156.41 C 172.23 156.21 171.21 156.91 171.02 157.96 L 170.83 158.95 C 170.64 160.01 171.34 161.02 172.39 161.22 C 173.45 161.42 174.46 160.72 174.66 159.66 Z M 174.85 158.63 L 175.01 157.63 C 175.19 156.57 174.47 155.57 173.41 155.40 C 172.35 155.22 171.35 155.94 171.17 157.00 L 171.01 158.00 C 170.83 159.06 171.55 160.06 172.61 160.24 C 173.67 160.41 174.68 159.69 174.85 158.63 Z M 175.02 157.59 L 175.16 156.59 C 175.31 155.53 174.57 154.54 173.50 154.39 C 172.44 154.24 171.45 154.99 171.30 156.05 L 171.16 157.05 C 171.02 158.11 171.76 159.10 172.82 159.25 C 173.89 159.39 174.87 158.65 175.02 157.59 Z M 175.17 156.53 L 175.28 155.55 C 175.39 154.48 174.62 153.52 173.55 153.41 C 172.48 153.29 171.52 154.07 171.40 155.14 L 171.29 156.11 C 171.18 157.18 171.95 158.15 173.02 158.26 C 174.09 158.38 175.05 157.60 175.17 156.53 Z M 175.28 155.48 L 175.35 154.45 C 175.43 153.37 174.62 152.44 173.54 152.37 C 172.46 152.29 171.53 153.11 171.46 154.18 L 171.39 155.21 C 171.32 156.29 172.13 157.22 173.21 157.29 C 174.28 157.37 175.21 156.55 175.28 155.48 Z M 175.36 154.36 L 175.38 153.36 C 175.41 152.28 174.55 151.39 173.48 151.36 C 172.40 151.34 171.50 152.19 171.48 153.27 L 171.45 154.27 C 171.43 155.35 172.28 156.24 173.36 156.27 C 174.44 156.29 175.34 155.44 175.36 154.36 Z M 175.39 153.27 L 175.36 152.29 C 175.34 151.21 174.45 150.36 173.37 150.38 C 172.29 150.40 171.43 151.30 171.45 152.38 L 171.48 153.36 C 171.50 154.44 172.39 155.30 173.47 155.27 C 174.55 155.25 175.41 154.35 175.39 153.27 Z M 175.36 152.21 L 175.30 151.23 C 175.23 150.15 174.30 149.33 173.22 149.40 C 172.14 149.47 171.32 150.41 171.39 151.49 L 171.45 152.46 C 171.53 153.54 172.46 154.36 173.54 154.29 C 174.62 154.22 175.43 153.29 175.36 152.21 Z M 175.29 151.15 L 175.19 150.17 C 175.07 149.09 174.11 148.31 173.03 148.43 C 171.95 148.54 171.17 149.51 171.29 150.59 L 171.40 151.57 C 171.51 152.64 172.48 153.42 173.55 153.31 C 174.63 153.19 175.41 152.22 175.29 151.15 Z M 175.18 150.08 L 175.03 149.09 C 174.86 148.02 173.86 147.28 172.79 147.45 C 171.72 147.61 170.98 148.62 171.15 149.69 L 171.30 150.68 C 171.46 151.75 172.47 152.48 173.54 152.32 C 174.61 152.15 175.35 151.15 175.18 150.08 Z M 175.01 148.99 L 174.81 148.00 C 174.59 146.94 173.55 146.26 172.48 146.48 C 171.42 146.70 170.74 147.74 170.96 148.80 L 171.16 149.79 C 171.38 150.85 172.42 151.54 173.49 151.31 C 174.55 151.09 175.23 150.05 175.01 148.99 Z M 174.78 147.89 L 174.52 146.92 C 174.24 145.87 173.16 145.25 172.11 145.53 C 171.06 145.81 170.44 146.89 170.72 147.94 L 170.98 148.92 C 171.26 149.96 172.34 150.59 173.39 150.31 C 174.44 150.02 175.07 148.94 174.78 147.89 Z M 174.49 146.81 L 174.18 145.87 C 173.83 144.84 172.72 144.28 171.68 144.62 C 170.65 144.97 170.09 146.08 170.44 147.12 L 170.75 148.05 C 171.10 149.09 172.21 149.64 173.24 149.30 C 174.28 148.95 174.83 147.84 174.49 146.81 Z M 174.14 145.77 L 173.77 144.84 C 173.37 143.83 172.23 143.33 171.22 143.73 C 170.20 144.13 169.71 145.28 170.11 146.29 L 170.47 147.22 C 170.87 148.23 172.02 148.73 173.03 148.33 C 174.04 147.93 174.54 146.78 174.14 145.77 Z M 173.74 144.75 L 173.32 143.84 C 172.87 142.84 171.71 142.40 170.71 142.85 C 169.72 143.30 169.28 144.47 169.73 145.46 L 170.14 146.38 C 170.59 147.37 171.76 147.81 172.75 147.36 C 173.75 146.91 174.19 145.74 173.74 144.75 Z M 173.29 143.76 L 172.83 142.86 C 172.34 141.88 171.15 141.49 170.18 141.99 C 169.21 142.48 168.82 143.67 169.31 144.64 L 169.76 145.54 C 170.26 146.51 171.45 146.90 172.42 146.41 C 173.39 145.92 173.78 144.73 173.29 143.76 Z M 172.80 142.79 L 172.31 141.92 C 171.78 140.97 170.58 140.62 169.63 141.15 C 168.68 141.68 168.33 142.89 168.86 143.84 L 169.34 144.71 C 169.87 145.66 171.08 146.01 172.03 145.47 C 172.98 144.94 173.33 143.74 172.80 142.79 Z M 172.28 141.86 L 171.76 141.00 C 171.20 140.07 169.98 139.77 169.05 140.34 C 168.11 140.90 167.82 142.12 168.38 143.05 L 168.90 143.90 C 169.46 144.84 170.68 145.14 171.61 144.57 C 172.54 144.01 172.84 142.79 172.28 141.86 Z M 171.72 140.94 L 171.17 140.11 C 170.57 139.19 169.35 138.94 168.44 139.54 C 167.53 140.14 167.27 141.36 167.87 142.27 L 168.42 143.11 C 169.02 144.02 170.24 144.28 171.16 143.68 C 172.07 143.08 172.32 141.86 171.72 140.94 Z M 171.13 140.05 L 170.55 139.23 C 169.92 138.33 168.69 138.12 167.80 138.75 C 166.91 139.39 166.70 140.62 167.33 141.51 L 167.91 142.33 C 168.54 143.22 169.77 143.43 170.66 142.80 C 171.55 142.17 171.76 140.94 171.13 140.05 Z M 170.51 139.17 L 169.93 138.40 C 169.27 137.53 168.03 137.36 167.16 138.02 C 166.29 138.68 166.12 139.92 166.78 140.79 L 167.37 141.56 C 168.03 142.43 169.27 142.60 170.13 141.94 C 171.00 141.28 171.17 140.04 170.51 139.17 Z M 169.89 138.35 L 169.28 137.59 C 168.59 136.74 167.35 136.61 166.50 137.29 C 165.65 137.98 165.51 139.22 166.20 140.07 L 166.81 140.83 C 167.50 141.68 168.74 141.82 169.59 141.13 C 170.44 140.45 170.58 139.20 169.89 138.35 Z M 169.24 137.55 L 168.60 136.79 C 167.89 135.96 166.64 135.86 165.81 136.56 C 164.98 137.27 164.88 138.52 165.58 139.35 L 166.23 140.11 C 166.94 140.94 168.18 141.04 169.02 140.34 C 169.85 139.63 169.95 138.39 169.24 137.55 Z M 168.57 136.76 L 167.89 135.99 C 167.17 135.17 165.92 135.10 165.10 135.82 C 164.28 136.54 164.21 137.79 164.93 138.61 L 165.61 139.38 C 166.33 140.20 167.58 140.27 168.40 139.55 C 169.22 138.83 169.29 137.58 168.57 136.76 Z M 167.87 135.97 L 167.19 135.22 C 166.45 134.41 165.20 134.35 164.40 135.09 C 163.59 135.83 163.53 137.08 164.27 137.88 L 164.95 138.63 C 165.68 139.44 166.93 139.50 167.74 138.76 C 168.55 138.02 168.61 136.77 167.87 135.97 Z M 167.17 135.20 L 166.49 134.47 C 165.74 133.67 164.49 133.63 163.69 134.38 C 162.90 135.13 162.86 136.38 163.60 137.17 L 164.29 137.90 C 165.03 138.70 166.28 138.74 167.08 137.99 C 167.88 137.25 167.92 136.00 167.17 135.20 Z M 166.46 134.45 L 165.76 133.72 C 165.00 132.94 163.75 132.92 162.96 133.68 C 162.18 134.43 162.16 135.69 162.92 136.47 L 163.62 137.20 C 164.38 137.98 165.64 138.00 166.42 137.24 C 167.20 136.48 167.22 135.23 166.46 134.45 Z M 165.73 133.69 L 165.02 132.98 C 164.24 132.21 162.99 132.22 162.22 132.99 C 161.45 133.77 161.46 135.02 162.23 135.79 L 162.95 136.50 C 163.72 137.27 164.97 137.26 165.74 136.49 C 166.51 135.71 166.51 134.46 165.73 133.69 Z M 164.98 132.95 L 164.26 132.27 C 163.47 131.52 162.22 131.55 161.47 132.34 C 160.72 133.14 160.75 134.39 161.54 135.14 L 162.27 135.82 C 163.06 136.57 164.31 136.53 165.06 135.74 C 165.81 134.95 165.77 133.70 164.98 132.95 Z M 164.22 132.23 L 163.45 131.54 C 162.63 130.82 161.38 130.89 160.66 131.70 C 159.93 132.52 160.00 133.77 160.82 134.49 L 161.59 135.18 C 162.40 135.90 163.65 135.83 164.38 135.02 C 165.10 134.20 165.03 132.95 164.22 132.23 Z M 163.40 131.50 L 162.62 130.85 C 161.78 130.15 160.54 130.27 159.84 131.10 C 159.14 131.94 159.25 133.19 160.09 133.88 L 160.87 134.53 C 161.71 135.23 162.95 135.12 163.65 134.28 C 164.35 133.44 164.24 132.20 163.40 131.50 Z M 162.57 130.81 L 161.79 130.20 C 160.93 129.53 159.69 129.68 159.02 130.54 C 158.35 131.40 158.50 132.64 159.36 133.31 L 160.14 133.92 C 161.00 134.59 162.24 134.44 162.91 133.58 C 163.58 132.73 163.43 131.49 162.57 130.81 Z M 161.74 130.17 L 160.96 129.59 C 160.08 128.94 158.84 129.13 158.20 130.01 C 157.55 130.89 157.74 132.12 158.62 132.77 L 159.40 133.35 C 160.28 133.99 161.52 133.80 162.16 132.93 C 162.81 132.05 162.62 130.82 161.74 130.17 Z M 160.91 129.56 L 160.10 129.00 C 159.21 128.37 157.98 128.59 157.36 129.49 C 156.74 130.38 156.96 131.61 157.85 132.23 L 158.66 132.80 C 159.55 133.42 160.78 133.20 161.40 132.30 C 162.02 131.41 161.80 130.18 160.91 129.56 Z M 160.05 128.97 L 159.21 128.41 C 158.30 127.82 157.08 128.07 156.49 128.98 C 155.89 129.89 156.14 131.11 157.05 131.70 L 157.89 132.26 C 158.80 132.85 160.02 132.60 160.62 131.69 C 161.22 130.79 160.96 129.57 160.05 128.97 Z M 159.16 128.39 L 158.31 127.86 C 157.38 127.29 156.17 127.58 155.60 128.50 C 155.04 129.42 155.32 130.63 156.25 131.20 L 157.10 131.73 C 158.02 132.30 159.23 132.01 159.80 131.09 C 160.37 130.17 160.08 128.96 159.16 128.39 Z M 158.25 127.83 L 157.39 127.34 C 156.45 126.80 155.25 127.12 154.71 128.06 C 154.17 129.00 154.50 130.20 155.44 130.74 L 156.30 131.23 C 157.24 131.77 158.44 131.45 158.98 130.51 C 159.52 129.57 159.19 128.37 158.25 127.83 Z M 157.33 127.31 L 156.45 126.84 C 155.49 126.34 154.31 126.70 153.80 127.66 C 153.30 128.61 153.67 129.80 154.62 130.30 L 155.50 130.77 C 156.46 131.27 157.64 130.91 158.15 129.95 C 158.65 129.00 158.28 127.81 157.33 127.31 Z M 156.38 126.81 L 155.46 126.37 C 154.49 125.91 153.32 126.32 152.85 127.29 C 152.39 128.26 152.80 129.43 153.77 129.90 L 154.69 130.34 C 155.67 130.80 156.83 130.39 157.30 129.42 C 157.76 128.44 157.35 127.28 156.38 126.81 Z M 155.38 126.34 L 154.45 125.95 C 153.46 125.53 152.32 125.99 151.90 126.98 C 151.48 127.98 151.94 129.12 152.93 129.54 L 153.86 129.93 C 154.85 130.35 155.99 129.88 156.41 128.89 C 156.83 127.90 156.37 126.76 155.38 126.34 Z M 154.35 125.91 L 153.42 125.58 C 152.41 125.21 151.30 125.73 150.93 126.74 C 150.57 127.75 151.09 128.87 152.10 129.24 L 153.03 129.57 C 154.04 129.94 155.16 129.41 155.52 128.40 C 155.89 127.39 155.36 126.28 154.35 125.91 Z M 153.31 125.55 L 152.37 125.27 C 151.34 124.96 150.26 125.55 149.96 126.58 C 149.65 127.60 150.24 128.68 151.27 128.99 L 152.21 129.27 C 153.24 129.57 154.32 128.98 154.62 127.96 C 154.93 126.93 154.34 125.85 153.31 125.55 Z M 152.25 125.24 L 151.27 125.02 C 150.23 124.78 149.19 125.43 148.96 126.48 C 148.72 127.52 149.37 128.55 150.41 128.79 L 151.39 129.01 C 152.43 129.25 153.47 128.60 153.71 127.56 C 153.94 126.52 153.29 125.48 152.25 125.24 Z M 151.16 125.00 L 150.18 124.84 C 149.13 124.67 148.13 125.37 147.96 126.42 C 147.78 127.47 148.49 128.47 149.54 128.64 L 150.53 128.81 C 151.57 128.98 152.57 128.27 152.74 127.22 C 152.92 126.17 152.21 125.18 151.16 125.00 Z M 150.08 124.83 L 149.09 124.72 C 148.03 124.60 147.08 125.35 146.96 126.41 C 146.84 127.46 147.59 128.41 148.65 128.53 L 149.64 128.65 C 150.69 128.77 151.64 128.01 151.77 126.96 C 151.89 125.91 151.13 124.96 150.08 124.83 Z M 149.01 124.72 L 148.03 124.65 C 146.97 124.57 146.06 125.36 145.98 126.41 C 145.90 127.47 146.69 128.38 147.75 128.46 L 148.73 128.53 C 149.78 128.61 150.70 127.82 150.77 126.77 C 150.85 125.71 150.06 124.80 149.01 124.72 Z M 147.95 124.65 L 146.98 124.62 C 145.93 124.59 145.05 125.41 145.01 126.46 C 144.98 127.51 145.81 128.39 146.86 128.43 L 147.82 128.46 C 148.88 128.49 149.75 127.67 149.79 126.62 C 149.82 125.56 149.00 124.68 147.95 124.65 Z M 146.88 124.63 L 145.89 124.65 C 144.84 124.67 144.01 125.53 144.03 126.58 C 144.05 127.63 144.92 128.46 145.97 128.44 L 146.96 128.42 C 148.00 128.40 148.83 127.53 148.81 126.49 C 148.79 125.44 147.93 124.61 146.88 124.63 Z M 145.77 124.66 L 144.76 124.74 C 143.72 124.83 142.94 125.74 143.03 126.78 C 143.11 127.82 144.03 128.59 145.07 128.51 L 146.08 128.42 C 147.12 128.34 147.90 127.43 147.81 126.39 C 147.73 125.35 146.81 124.58 145.77 124.66 Z M 144.63 124.77 L 143.63 124.92 C 142.60 125.07 141.89 126.03 142.05 127.06 C 142.20 128.08 143.16 128.79 144.19 128.64 L 145.19 128.49 C 146.22 128.33 146.92 127.37 146.77 126.35 C 146.62 125.32 145.66 124.61 144.63 124.77 Z M 143.51 124.95 L 142.57 125.15 C 141.56 125.37 140.92 126.37 141.14 127.38 C 141.36 128.38 142.35 129.03 143.36 128.81 L 144.30 128.60 C 145.31 128.39 145.95 127.39 145.73 126.38 C 145.52 125.37 144.52 124.73 143.51 124.95 Z M 142.46 125.19 L 141.51 125.46 C 140.52 125.74 139.94 126.76 140.22 127.75 C 140.49 128.74 141.52 129.31 142.51 129.04 L 143.46 128.77 C 144.45 128.49 145.03 127.47 144.75 126.48 C 144.48 125.49 143.45 124.92 142.46 125.19 Z M 141.40 125.51 L 140.44 125.84 C 139.48 126.17 138.97 127.22 139.30 128.18 C 139.63 129.15 140.68 129.66 141.65 129.33 L 142.61 128.99 C 143.57 128.66 144.08 127.61 143.75 126.65 C 143.42 125.68 142.37 125.17 141.40 125.51 Z M 140.34 125.89 L 139.39 126.29 C 138.45 126.68 138.01 127.75 138.40 128.68 C 138.79 129.62 139.86 130.06 140.80 129.67 L 141.75 129.27 C 142.68 128.88 143.13 127.81 142.74 126.88 C 142.35 125.94 141.27 125.50 140.34 125.89 Z M 139.28 126.35 L 138.39 126.79 C 137.49 127.23 137.12 128.32 137.56 129.23 C 138.01 130.13 139.10 130.50 140.00 130.05 L 140.90 129.61 C 141.80 129.17 142.17 128.07 141.72 127.17 C 141.28 126.27 140.19 125.90 139.28 126.35 Z M 138.30 126.85 L 137.44 127.33 C 136.57 127.83 136.27 128.93 136.76 129.80 C 137.26 130.67 138.36 130.98 139.23 130.48 L 140.09 130.00 C 140.96 129.50 141.27 128.39 140.77 127.52 C 140.28 126.65 139.17 126.35 138.30 126.85 Z M 137.37 127.39 L 136.53 127.93 C 135.69 128.46 135.44 129.58 135.98 130.42 C 136.52 131.25 137.63 131.50 138.47 130.96 L 139.31 130.43 C 140.15 129.89 140.39 128.78 139.86 127.94 C 139.32 127.10 138.21 126.85 137.37 127.39 Z M 136.47 127.98 L 135.64 128.56 C 134.83 129.13 134.64 130.25 135.21 131.06 C 135.78 131.87 136.90 132.06 137.71 131.49 L 138.53 130.91 C 139.34 130.34 139.53 129.22 138.96 128.41 C 138.39 127.60 137.28 127.41 136.47 127.98 Z M 135.59 128.61 L 134.79 129.23 C 134.00 129.83 133.85 130.94 134.45 131.73 C 135.05 132.51 136.17 132.66 136.95 132.06 L 137.76 131.44 C 138.54 130.84 138.69 129.72 138.09 128.94 C 137.49 128.16 136.37 128.01 135.59 128.61 Z M 134.75 129.27 L 133.98 129.90 C 133.22 130.52 133.11 131.64 133.73 132.40 C 134.35 133.15 135.46 133.27 136.22 132.65 L 136.99 132.02 C 137.75 131.40 137.86 130.28 137.24 129.52 C 136.62 128.76 135.50 128.65 134.75 129.27 Z M 133.94 129.94 L 133.19 130.59 C 132.46 131.23 132.38 132.34 133.01 133.08 C 133.65 133.82 134.76 133.90 135.50 133.26 L 136.25 132.61 C 136.99 131.97 137.07 130.86 136.43 130.12 C 135.79 129.38 134.68 129.30 133.94 129.94 Z M 133.17 130.63 L 132.43 131.30 C 131.71 131.95 131.66 133.06 132.31 133.78 C 132.96 134.49 134.07 134.55 134.78 133.90 L 135.52 133.22 C 136.24 132.57 136.29 131.46 135.64 130.75 C 134.99 130.03 133.88 129.98 133.17 130.63 Z M 132.41 131.34 L 131.68 132.03 C 130.98 132.69 130.95 133.79 131.61 134.49 C 132.27 135.19 133.38 135.22 134.08 134.55 L 134.80 133.86 C 135.50 133.20 135.53 132.10 134.87 131.40 C 134.21 130.70 133.10 130.67 132.41 131.34 Z M 131.66 132.06 L 130.94 132.76 C 130.26 133.43 130.25 134.53 130.92 135.21 C 131.60 135.89 132.69 135.90 133.37 135.23 L 134.09 134.52 C 134.77 133.85 134.78 132.76 134.11 132.08 C 133.44 131.39 132.34 131.39 131.66 132.06 Z M 130.93 132.79 L 130.22 133.51 C 129.55 134.19 129.56 135.28 130.24 135.94 C 130.92 136.61 132.01 136.60 132.68 135.93 L 133.39 135.20 C 134.05 134.53 134.05 133.44 133.37 132.77 C 132.69 132.10 131.60 132.11 130.93 132.79 Z M 130.21 133.53 L 129.51 134.26 C 128.86 134.95 128.88 136.03 129.57 136.69 C 130.25 137.34 131.34 137.32 131.99 136.63 L 132.69 135.90 C 133.34 135.22 133.32 134.13 132.63 133.48 C 131.95 132.82 130.86 132.85 130.21 133.53 Z M 129.50 134.29 L 128.82 135.02 C 128.18 135.72 128.22 136.79 128.91 137.43 C 129.60 138.08 130.68 138.03 131.32 137.34 L 132.00 136.61 C 132.64 135.92 132.60 134.84 131.91 134.20 C 131.22 133.56 130.14 133.60 129.50 134.29 Z M 128.81 135.05 L 128.14 135.79 C 127.51 136.49 127.57 137.56 128.27 138.19 C 128.96 138.81 130.04 138.76 130.66 138.06 L 131.33 137.32 C 131.96 136.62 131.90 135.55 131.20 134.92 C 130.51 134.30 129.43 134.35 128.81 135.05 Z M 128.13 135.82 L 127.48 136.56 C 126.87 137.26 126.94 138.33 127.64 138.94 C 128.35 139.55 129.41 139.48 130.03 138.78 L 130.67 138.04 C 131.29 137.33 131.21 136.27 130.51 135.65 C 129.81 135.04 128.74 135.11 128.13 135.82 Z M 127.47 136.59 L 126.82 137.35 C 126.22 138.06 126.31 139.12 127.02 139.72 C 127.73 140.32 128.79 140.23 129.39 139.52 L 130.04 138.75 C 130.64 138.04 130.55 136.98 129.84 136.38 C 129.13 135.79 128.07 135.88 127.47 136.59 Z M 126.81 137.38 L 126.17 138.16 C 125.59 138.88 125.70 139.93 126.42 140.52 C 127.14 141.10 128.19 140.99 128.77 140.27 L 129.41 139.49 C 129.99 138.77 129.88 137.72 129.16 137.13 C 128.44 136.55 127.39 136.66 126.81 137.38 Z M 126.15 138.20 L 125.54 138.99 C 124.98 139.72 125.11 140.76 125.84 141.33 C 126.57 141.89 127.62 141.76 128.18 141.03 L 128.79 140.24 C 129.36 139.51 129.22 138.46 128.49 137.90 C 127.76 137.33 126.72 137.47 126.15 138.20 Z M 125.52 139.03 L 124.93 139.83 C 124.39 140.57 124.56 141.61 125.30 142.15 C 126.04 142.69 127.08 142.53 127.62 141.79 L 128.21 140.99 C 128.75 140.24 128.58 139.20 127.84 138.66 C 127.10 138.12 126.06 138.29 125.52 139.03 Z M 124.91 139.87 L 124.35 140.69 C 123.83 141.45 124.03 142.48 124.78 143.00 C 125.54 143.51 126.57 143.32 127.09 142.56 L 127.65 141.74 C 128.16 140.99 127.97 139.96 127.21 139.44 C 126.46 138.93 125.43 139.12 124.91 139.87 Z M 124.32 140.74 L 123.80 141.56 C 123.31 142.33 123.54 143.36 124.31 143.84 C 125.08 144.33 126.10 144.10 126.59 143.33 L 127.11 142.51 C 127.60 141.74 127.37 140.72 126.60 140.23 C 125.83 139.75 124.81 139.97 124.32 140.74 Z M 123.78 141.61 L 123.28 142.45 C 122.82 143.23 123.08 144.25 123.86 144.71 C 124.65 145.17 125.66 144.91 126.12 144.13 L 126.62 143.29 C 127.08 142.50 126.82 141.49 126.04 141.03 C 125.25 140.57 124.24 140.83 123.78 141.61 Z M 123.26 142.49 L 122.78 143.36 C 122.34 144.16 122.63 145.16 123.43 145.60 C 124.22 146.04 125.23 145.75 125.67 144.95 L 126.14 144.08 C 126.58 143.29 126.29 142.28 125.50 141.85 C 124.70 141.41 123.70 141.70 123.26 142.49 Z M 122.76 143.40 L 122.30 144.30 C 121.88 145.10 122.19 146.10 123.00 146.51 C 123.81 146.93 124.80 146.62 125.22 145.81 L 125.68 144.91 C 126.10 144.10 125.79 143.11 124.98 142.69 C 124.17 142.28 123.18 142.59 122.76 143.40 Z M 122.28 144.33 L 121.83 145.26 C 121.43 146.08 121.76 147.06 122.58 147.46 C 123.39 147.86 124.38 147.52 124.78 146.71 L 125.23 145.78 C 125.63 144.96 125.30 143.98 124.48 143.58 C 123.67 143.18 122.68 143.51 122.28 144.33 Z M 121.81 145.29 L 121.40 146.18 C 121.01 147.00 121.37 147.98 122.19 148.36 C 123.01 148.75 123.99 148.39 124.37 147.57 L 124.79 146.68 C 125.17 145.86 124.82 144.88 124.00 144.50 C 123.18 144.11 122.20 144.47 121.81 145.29 Z M 121.39 146.20 L 120.99 147.09 C 120.61 147.92 120.98 148.89 121.81 149.26 C 122.63 149.64 123.61 149.27 123.98 148.44 L 124.38 147.55 C 124.76 146.72 124.39 145.75 123.56 145.38 C 122.73 145.00 121.76 145.37 121.39 146.20 Z M 120.98 147.11 L 120.58 148.02 C 120.21 148.85 120.59 149.82 121.42 150.19 C 122.25 150.55 123.22 150.17 123.59 149.34 L 123.99 148.43 C 124.35 147.60 123.97 146.63 123.14 146.26 C 122.31 145.90 121.34 146.28 120.98 147.11 Z M 120.57 148.03 L 120.17 148.96 C 119.81 149.80 120.20 150.76 121.03 151.12 C 121.87 151.48 122.83 151.09 123.19 150.26 L 123.59 149.33 C 123.95 148.50 123.56 147.53 122.73 147.17 C 121.90 146.81 120.93 147.20 120.57 148.03 Z M 120.17 148.97 L 119.77 149.91 C 119.42 150.74 119.81 151.71 120.64 152.06 C 121.48 152.42 122.44 152.03 122.80 151.19 L 123.20 150.25 C 123.55 149.42 123.16 148.45 122.32 148.10 C 121.49 147.74 120.52 148.13 120.17 148.97 Z M 119.77 149.91 L 119.43 150.71 C 119.08 151.55 119.47 152.51 120.31 152.86 C 121.14 153.22 122.11 152.83 122.46 151.99 L 122.80 151.19 C 123.15 150.35 122.76 149.39 121.92 149.04 C 121.09 148.68 120.12 149.07 119.77 149.91 Z"
      fill="black"
      fill-rule="nonzero" /></svg>