<svg xmlns="http://www.w3.org/2000/svg" width="300" height="300" viewBox="0 0 300 300">
<path d="M 146.84 137.22 L 145.84 137.31 C 145.01 137.39 144.40 138.12 144.47 138.95 C 144.55 139.78 145.29 140.39 146.12 140.31 L 147.12 140.22 C 147.95 140.14 148.56 139.41 148.48 138.58 C 148.41 137.75 147.67 137.14 146.84 137.22 Z M 145.81 137.31 L 144.77 137.42 C 143.94 137.51 143.34 138.26 143.43 139.09 C 143.52 139.92 144.26 140.52 145.09 140.43 L 146.14 140.32 C 146.97 140.23 147.57 139.48 147.48 138.65 C 147.39 137.82 146.65 137.22 145.81 137.31 Z M 144.47 137.48 L 143.57 137.77 C 142.77 138.02 142.33 138.88 142.59 139.68 C 142.84 140.48 143.70 140.92 144.50 140.66 L 145.40 140.37 C 146.20 140.12 146.64 139.26 146.38 138.46 C 146.12 137.66 145.27 137.22 144.47 137.48 Z M 142.82 140.11 L 143.23 140.66 C 143.72 141.33 144.67 141.47 145.34 140.98 C 146.00 140.48 146.15 139.54 145.65 138.87 L 145.24 138.32 C 144.75 137.65 143.81 137.51 143.14 138.00 C 142.47 138.50 142.33 139.44 142.82 140.11 Z M 143.60 140.98 L 144.44 141.56 C 145.10 142.03 146.02 141.86 146.49 141.19 C 146.95 140.52 146.79 139.61 146.12 139.14 L 145.28 138.56 C 144.62 138.09 143.70 138.26 143.23 138.92 C 142.76 139.59 142.93 140.51 143.60 140.98 Z"
      fill="black"
      fill-rule="nonzero" /><path d="M 143.22 225.15 L 143.70 226.10 C 144.08 226.85 144.99 227.16 145.74 226.78 C 146.49 226.41 146.79 225.49 146.42 224.74 L 145.94 223.79 C 145.57 223.04 144.65 222.74 143.90 223.11 C 143.15 223.49 142.85 224.40 143.22 225.15 Z M 143.67 226.11 L 144.13 227.03 C 144.51 227.80 145.44 228.11 146.21 227.73 C 146.97 227.34 147.28 226.41 146.90 225.65 L 146.45 224.73 C 146.06 223.97 145.13 223.66 144.37 224.04 C 143.60 224.42 143.29 225.35 143.67 226.11 Z M 144.10 227.04 L 144.52 227.88 C 144.90 228.66 145.85 228.98 146.63 228.59 C 147.41 228.21 147.73 227.26 147.34 226.48 L 146.93 225.64 C 146.54 224.86 145.60 224.54 144.82 224.93 C 144.04 225.31 143.72 226.26 144.10 227.04 Z M 144.50 227.87 L 144.95 228.82 C 145.33 229.61 146.28 229.94 147.08 229.56 C 147.87 229.18 148.20 228.22 147.82 227.43 L 147.37 226.49 C 146.98 225.70 146.03 225.36 145.24 225.74 C 144.45 226.13 144.11 227.08 144.50 227.87 Z M 144.93 228.79 L 145.33 229.66 C 145.70 230.47 146.65 230.82 147.45 230.45 C 148.25 230.08 148.61 229.14 148.24 228.33 L 147.84 227.46 C 147.47 226.66 146.52 226.30 145.72 226.67 C 144.92 227.04 144.56 227.99 144.93 228.79 Z M 145.31 229.62 L 145.68 230.49 C 146.03 231.30 146.97 231.68 147.78 231.34 C 148.59 230.99 148.97 230.05 148.63 229.24 L 148.26 228.37 C 147.91 227.56 146.97 227.18 146.16 227.53 C 145.35 227.87 144.97 228.81 145.31 229.62 Z M 145.67 230.46 L 146.04 231.38 C 146.36 232.20 147.30 232.60 148.12 232.27 C 148.94 231.94 149.34 231.01 149.01 230.19 L 148.64 229.27 C 148.31 228.45 147.38 228.05 146.56 228.38 C 145.74 228.71 145.34 229.64 145.67 230.46 Z M 146.03 231.36 L 146.40 232.32 C 146.71 233.14 147.64 233.55 148.47 233.24 C 149.29 232.92 149.70 231.99 149.39 231.17 L 149.02 230.21 C 148.70 229.38 147.77 228.97 146.95 229.29 C 146.12 229.61 145.71 230.53 146.03 231.36 Z M 146.39 232.30 L 146.73 233.22 C 147.05 234.05 147.97 234.47 148.80 234.16 C 149.63 233.85 150.05 232.92 149.74 232.10 L 149.39 231.18 C 149.08 230.35 148.16 229.93 147.33 230.24 C 146.50 230.55 146.08 231.48 146.39 232.30 Z M 146.73 233.21 L 147.07 234.16 C 147.38 234.99 148.29 235.42 149.13 235.12 C 149.96 234.82 150.39 233.90 150.09 233.06 L 149.74 232.11 C 149.44 231.28 148.52 230.85 147.69 231.15 C 146.86 231.45 146.43 232.37 146.73 233.21 Z M 147.06 234.13 L 147.39 235.08 C 147.68 235.92 148.59 236.37 149.43 236.08 C 150.27 235.79 150.71 234.87 150.42 234.04 L 150.10 233.09 C 149.81 232.25 148.89 231.81 148.06 232.10 C 147.22 232.38 146.78 233.30 147.06 234.13 Z M 147.38 235.06 L 147.69 236.00 C 147.96 236.85 148.87 237.31 149.71 237.03 C 150.55 236.76 151.01 235.85 150.74 235.01 L 150.43 234.07 C 150.16 233.22 149.26 232.76 148.41 233.03 C 147.57 233.31 147.11 234.21 147.38 235.06 Z M 147.68 235.97 L 147.97 236.94 C 148.23 237.79 149.12 238.27 149.97 238.01 C 150.82 237.75 151.30 236.86 151.04 236.01 L 150.75 235.04 C 150.50 234.20 149.60 233.72 148.75 233.97 C 147.90 234.23 147.42 235.12 147.68 235.97 Z M 147.96 236.90 L 148.23 237.86 C 148.46 238.72 149.35 239.22 150.20 238.98 C 151.06 238.74 151.56 237.86 151.32 237.01 L 151.05 236.05 C 150.82 235.19 149.93 234.69 149.08 234.93 C 148.22 235.17 147.72 236.05 147.96 236.90 Z M 148.22 237.83 L 148.46 238.80 C 148.68 239.66 149.56 240.18 150.42 239.96 C 151.27 239.74 151.79 238.87 151.58 238.01 L 151.33 237.04 C 151.11 236.18 150.24 235.66 149.38 235.88 C 148.52 236.10 148.00 236.97 148.22 237.83 Z M 148.46 238.77 L 148.68 239.75 C 148.89 240.61 149.75 241.15 150.61 240.95 C 151.47 240.75 152.01 239.88 151.81 239.02 L 151.58 238.04 C 151.38 237.18 150.52 236.64 149.66 236.84 C 148.79 237.04 148.26 237.90 148.46 238.77 Z M 148.68 239.72 L 148.88 240.68 C 149.06 241.55 149.92 242.10 150.78 241.92 C 151.65 241.74 152.21 240.88 152.02 240.02 L 151.82 239.05 C 151.64 238.19 150.78 237.63 149.92 237.81 C 149.05 238.00 148.49 238.85 148.68 239.72 Z M 148.87 240.64 L 149.06 241.62 C 149.22 242.49 150.06 243.07 150.93 242.91 C 151.80 242.74 152.37 241.91 152.21 241.04 L 152.03 240.06 C 151.87 239.18 151.03 238.61 150.16 238.77 C 149.29 238.93 148.71 239.77 148.87 240.64 Z M 149.05 241.58 L 149.21 242.58 C 149.34 243.46 150.16 244.06 151.04 243.92 C 151.91 243.78 152.51 242.96 152.38 242.09 L 152.22 241.08 C 152.08 240.21 151.26 239.61 150.39 239.74 C 149.51 239.88 148.91 240.70 149.05 241.58 Z M 149.20 242.53 L 149.32 243.52 C 149.43 244.40 150.23 245.02 151.11 244.92 C 151.99 244.81 152.62 244.00 152.51 243.12 L 152.38 242.14 C 152.27 241.26 151.47 240.63 150.59 240.74 C 149.71 240.85 149.09 241.65 149.20 242.53 Z M 149.31 243.47 L 149.41 244.47 C 149.49 245.36 150.28 246.01 151.16 245.92 C 152.04 245.84 152.69 245.06 152.61 244.17 L 152.51 243.17 C 152.43 242.29 151.65 241.64 150.76 241.72 C 149.88 241.81 149.23 242.59 149.31 243.47 Z M 149.40 244.43 L 149.47 245.43 C 149.53 246.31 150.29 246.98 151.18 246.92 C 152.06 246.87 152.73 246.10 152.68 245.22 L 152.61 244.22 C 152.55 243.33 151.79 242.66 150.90 242.72 C 150.02 242.78 149.35 243.54 149.40 244.43 Z M 149.47 245.38 L 149.50 246.39 C 149.53 247.28 150.28 247.97 151.17 247.94 C 152.05 247.91 152.75 247.16 152.72 246.27 L 152.68 245.26 C 152.65 244.38 151.90 243.68 151.02 243.71 C 150.13 243.75 149.43 244.49 149.47 245.38 Z M 149.50 246.35 L 149.51 247.35 C 149.53 248.24 150.26 248.95 151.14 248.94 C 152.03 248.92 152.74 248.19 152.73 247.30 L 152.72 246.31 C 152.71 245.42 151.98 244.71 151.09 244.72 C 150.20 244.73 149.49 245.46 149.50 246.35 Z M 149.51 247.33 L 149.51 248.32 C 149.51 249.21 150.24 249.93 151.13 249.93 C 152.02 249.93 152.74 249.21 152.74 248.32 L 152.73 247.32 C 152.73 246.43 152.01 245.71 151.12 245.71 C 150.23 245.72 149.51 246.44 149.51 247.33 Z M 149.51 248.32 L 149.51 249.30 C 149.51 250.19 150.23 250.92 151.12 250.92 C 152.01 250.92 152.73 250.20 152.74 249.31 L 152.74 248.32 C 152.74 247.43 152.02 246.71 151.13 246.71 C 150.24 246.70 149.51 247.42 149.51 248.32 Z M 149.51 249.27 L 149.49 250.27 C 149.47 251.16 150.17 251.90 151.07 251.92 C 151.96 251.94 152.70 251.23 152.72 250.34 L 152.74 249.34 C 152.76 248.45 152.05 247.71 151.16 247.69 C 150.27 247.67 149.53 248.38 149.51 249.27 Z M 149.49 250.21 L 149.43 251.22 C 149.37 252.11 150.05 252.88 150.95 252.93 C 151.84 252.98 152.60 252.30 152.65 251.41 L 152.71 250.40 C 152.77 249.51 152.09 248.74 151.20 248.69 C 150.30 248.64 149.54 249.32 149.49 250.21 Z M 149.43 251.14 L 149.33 252.12 C 149.23 253.01 149.87 253.80 150.76 253.90 C 151.64 254.00 152.44 253.36 152.54 252.47 L 152.65 251.49 C 152.75 250.60 152.11 249.81 151.22 249.71 C 150.33 249.61 149.53 250.25 149.43 251.14 Z M 149.34 252.03 L 149.18 253.02 C 149.03 253.90 149.63 254.73 150.51 254.88 C 151.40 255.02 152.23 254.42 152.37 253.54 L 152.53 252.55 C 152.67 251.67 152.08 250.84 151.19 250.70 C 150.31 250.55 149.48 251.15 149.34 252.03 Z M 149.19 252.94 L 148.98 253.93 C 148.79 254.80 149.34 255.66 150.22 255.85 C 151.09 256.04 151.95 255.49 152.14 254.61 L 152.36 253.62 C 152.54 252.75 151.99 251.88 151.11 251.70 C 150.24 251.51 149.38 252.06 149.19 252.94 Z M 148.99 253.85 L 148.74 254.81 C 148.50 255.67 149.02 256.56 149.88 256.80 C 150.75 257.03 151.63 256.51 151.87 255.65 L 152.12 254.69 C 152.36 253.83 151.84 252.94 150.98 252.71 C 150.11 252.47 149.23 252.99 148.99 253.85 Z M 148.76 254.75 L 148.46 255.70 C 148.19 256.55 148.66 257.46 149.52 257.73 C 150.37 257.99 151.28 257.52 151.55 256.67 L 151.85 255.72 C 152.11 254.86 151.64 253.95 150.79 253.68 C 149.93 253.42 149.02 253.89 148.76 254.75 Z M 148.47 255.65 L 148.14 256.60 C 147.85 257.44 148.29 258.37 149.14 258.66 C 149.98 258.96 150.91 258.51 151.20 257.67 L 151.53 256.72 C 151.83 255.87 151.38 254.95 150.54 254.65 C 149.69 254.36 148.77 254.80 148.47 255.65 Z M 148.16 256.56 L 147.80 257.50 C 147.49 258.33 147.91 259.27 148.75 259.58 C 149.59 259.90 150.52 259.47 150.84 258.64 L 151.19 257.70 C 151.50 256.86 151.08 255.93 150.24 255.62 C 149.40 255.30 148.47 255.72 148.16 256.56 Z M 147.82 257.47 L 147.45 258.38 C 147.12 259.21 147.53 260.15 148.36 260.48 C 149.19 260.82 150.13 260.41 150.46 259.58 L 150.82 258.67 C 151.15 257.84 150.75 256.89 149.92 256.56 C 149.09 256.23 148.15 256.64 147.82 257.47 Z M 147.47 258.35 L 147.08 259.27 C 146.72 260.09 147.11 261.04 147.93 261.39 C 148.75 261.74 149.70 261.36 150.05 260.54 L 150.44 259.62 C 150.79 258.79 150.41 257.84 149.59 257.49 C 148.77 257.14 147.82 257.53 147.47 258.35 Z M 147.09 259.23 L 146.67 260.16 C 146.30 260.97 146.65 261.93 147.46 262.30 C 148.27 262.67 149.23 262.32 149.60 261.50 L 150.03 260.58 C 150.40 259.76 150.05 258.81 149.24 258.43 C 148.42 258.06 147.47 258.42 147.09 259.23 Z M 146.69 260.12 L 146.24 261.02 C 145.85 261.82 146.18 262.79 146.97 263.18 C 147.77 263.58 148.74 263.25 149.13 262.45 L 149.58 261.55 C 149.98 260.75 149.65 259.78 148.85 259.39 C 148.05 258.99 147.09 259.32 146.69 260.12 Z M 146.27 260.98 L 145.79 261.88 C 145.38 262.66 145.67 263.63 146.46 264.05 C 147.24 264.47 148.21 264.17 148.63 263.39 L 149.10 262.49 C 149.52 261.71 149.23 260.74 148.44 260.32 C 147.66 259.90 146.69 260.20 146.27 260.98 Z M 145.83 261.83 L 145.33 262.69 C 144.88 263.45 145.14 264.43 145.91 264.88 C 146.67 265.32 147.65 265.06 148.09 264.30 L 148.59 263.44 C 149.04 262.67 148.78 261.69 148.01 261.25 C 147.25 260.81 146.27 261.07 145.83 261.83 Z M 145.37 262.63 L 144.83 263.47 C 144.36 264.21 144.57 265.19 145.31 265.67 C 146.05 266.15 147.03 265.93 147.51 265.19 L 148.05 264.36 C 148.52 263.62 148.31 262.63 147.57 262.16 C 146.83 261.68 145.85 261.89 145.37 262.63 Z M 144.89 263.41 L 144.29 264.22 C 143.78 264.93 143.94 265.92 144.65 266.44 C 145.36 266.95 146.35 266.79 146.86 266.08 L 147.45 265.26 C 147.97 264.55 147.81 263.56 147.10 263.05 C 146.39 262.54 145.40 262.70 144.89 263.41 Z M 144.35 264.17 L 143.73 264.94 C 143.19 265.62 143.30 266.61 143.98 267.16 C 144.67 267.70 145.66 267.58 146.20 266.90 L 146.81 266.13 C 147.35 265.45 147.24 264.46 146.56 263.92 C 145.88 263.38 144.89 263.49 144.35 264.17 Z M 143.77 264.90 L 143.14 265.65 C 142.58 266.31 142.65 267.30 143.31 267.86 C 143.97 268.42 144.96 268.34 145.52 267.68 L 146.16 266.94 C 146.72 266.28 146.64 265.29 145.98 264.73 C 145.33 264.17 144.34 264.25 143.77 264.90 Z M 143.17 265.63 L 142.52 266.35 C 141.94 266.99 142.00 267.98 142.64 268.55 C 143.28 269.13 144.27 269.07 144.84 268.43 L 145.49 267.71 C 146.07 267.06 146.01 266.08 145.37 265.50 C 144.73 264.93 143.74 264.98 143.17 265.63 Z M 142.54 266.33 L 141.86 267.07 C 141.28 267.69 141.31 268.68 141.94 269.26 C 142.57 269.84 143.55 269.81 144.13 269.18 L 144.82 268.45 C 145.40 267.82 145.37 266.84 144.74 266.26 C 144.11 265.67 143.13 265.71 142.54 266.33 Z M 141.89 267.05 L 141.17 267.79 C 140.58 268.41 140.60 269.38 141.21 269.98 C 141.83 270.57 142.80 270.55 143.40 269.94 L 144.11 269.20 C 144.70 268.58 144.68 267.60 144.07 267.01 C 143.46 266.42 142.48 266.44 141.89 267.05 Z M 141.19 267.78 L 140.50 268.48 C 139.91 269.08 139.91 270.05 140.51 270.65 C 141.12 271.25 142.09 271.24 142.69 270.64 L 143.38 269.95 C 143.97 269.34 143.97 268.37 143.37 267.77 C 142.77 267.17 141.79 267.18 141.19 267.78 Z M 140.52 268.47 L 139.81 269.17 C 139.21 269.76 139.21 270.73 139.80 271.34 C 140.40 271.94 141.37 271.94 141.97 271.35 L 142.67 270.65 C 143.28 270.05 143.28 269.08 142.68 268.48 C 142.09 267.88 141.12 267.87 140.52 268.47 Z M 139.82 269.17 L 139.10 269.88 C 138.49 270.47 138.49 271.44 139.08 272.04 C 139.67 272.64 140.64 272.65 141.24 272.06 L 141.96 271.35 C 142.56 270.76 142.57 269.79 141.98 269.19 C 141.39 268.58 140.42 268.58 139.82 269.17 Z M 139.10 269.88 L 138.37 270.59 C 137.78 271.18 137.77 272.15 138.36 272.75 C 138.95 273.35 139.91 273.36 140.51 272.77 L 141.24 272.05 C 141.83 271.46 141.84 270.50 141.25 269.90 C 140.66 269.30 139.70 269.29 139.10 269.88 Z M 138.37 270.60 L 137.67 271.30 C 137.07 271.89 137.07 272.85 137.66 273.45 C 138.25 274.05 139.21 274.05 139.81 273.46 L 140.51 272.76 C 141.11 272.17 141.11 271.20 140.52 270.61 C 139.93 270.01 138.97 270.01 138.37 270.60 Z M 137.66 271.31 L 136.96 272.01 C 136.36 272.61 136.37 273.57 136.96 274.16 C 137.56 274.76 138.52 274.76 139.11 274.16 L 139.82 273.45 C 140.41 272.86 140.41 271.89 139.81 271.30 C 139.22 270.71 138.25 270.71 137.66 271.31 Z M 136.95 272.02 L 136.24 272.74 C 135.66 273.34 135.67 274.30 136.27 274.89 C 136.87 275.48 137.83 275.47 138.41 274.87 L 139.12 274.15 C 139.71 273.55 139.70 272.59 139.10 272.00 C 138.50 271.41 137.54 271.42 136.95 272.02 Z M 136.23 272.75 L 135.54 273.48 C 134.96 274.08 134.98 275.04 135.58 275.63 C 136.19 276.21 137.15 276.19 137.73 275.58 L 138.42 274.86 C 139.01 274.25 138.99 273.29 138.38 272.71 C 137.78 272.13 136.81 272.15 136.23 272.75 Z M 135.53 273.49 L 134.84 274.21 C 134.27 274.82 134.30 275.79 134.91 276.36 C 135.52 276.94 136.48 276.91 137.05 276.30 L 137.74 275.57 C 138.32 274.96 138.29 274.00 137.68 273.42 C 137.07 272.85 136.10 272.88 135.53 273.49 Z M 134.84 274.22 L 134.15 274.95 C 133.58 275.57 133.62 276.53 134.23 277.10 C 134.84 277.67 135.81 277.64 136.38 277.02 L 137.06 276.29 C 137.63 275.68 137.60 274.72 136.99 274.14 C 136.37 273.57 135.41 273.61 134.84 274.22 Z M 134.15 274.96 L 133.47 275.69 C 132.90 276.31 132.94 277.27 133.55 277.84 C 134.17 278.41 135.13 278.37 135.70 277.76 L 136.38 277.02 C 136.95 276.40 136.92 275.44 136.30 274.87 C 135.68 274.30 134.72 274.34 134.15 274.96 Z M 133.47 275.69 L 133.22 275.96 C 132.65 276.58 132.69 277.54 133.31 278.11 C 133.93 278.68 134.89 278.64 135.46 278.02 L 135.71 277.76 C 136.28 277.14 136.24 276.18 135.62 275.61 C 135.00 275.04 134.04 275.07 133.47 275.69 Z"
      fill="black"
      fill-rule="nonzero" /></svg>